<svg xmlns="http://www.w3.org/2000/svg" width="24" height="24" viewBox="0 0 24 24" fill="none" stroke="currentColor" stroke-width="2" stroke-linecap="round" stroke-linejoin="round"><path d="M5.620 2.022 C 5.576 2.032,5.441 2.060,5.320 2.084 C 5.028 2.140,4.436 2.431,4.151 2.657 C 3.630 3.072,3.186 3.789,3.061 4.420 C 3.006 4.694,2.999 5.065,3.009 7.023 L 3.020 9.306 3.141 9.503 C 3.543 10.156,4.457 10.156,4.859 9.503 C 4.979 9.308,4.980 9.300,4.993 8.653 L 5.007 8.000 6.000 8.000 L 6.993 8.000 7.007 8.653 C 7.020 9.300,7.021 9.308,7.141 9.503 C 7.543 10.156,8.457 10.156,8.859 9.503 L 8.980 9.306 8.991 7.023 C 9.001 5.065,8.994 4.694,8.939 4.420 C 8.814 3.788,8.370 3.071,7.849 2.658 C 7.579 2.444,7.070 2.182,6.760 2.098 C 6.541 2.038,5.772 1.987,5.620 2.022 M11.579 2.072 C 11.217 2.243,11.002 2.581,11.002 2.980 C 11.002 3.264,11.091 3.485,11.284 3.677 C 11.513 3.907,11.698 3.963,12.353 4.001 C 13.039 4.040,13.395 4.090,13.926 4.223 C 16.134 4.774,17.999 6.238,19.058 8.250 C 19.636 9.347,19.909 10.378,19.982 11.740 C 20.011 12.280,20.069 12.463,20.283 12.677 C 20.694 13.088,21.367 13.065,21.741 12.628 C 21.960 12.373,22.016 12.118,21.984 11.541 C 21.842 9.026,20.882 6.800,19.182 5.045 C 17.851 3.671,16.239 2.739,14.400 2.280 C 13.712 2.108,13.175 2.036,12.420 2.015 C 11.811 1.998,11.723 2.004,11.579 2.072 M6.425 4.113 C 6.607 4.207,6.801 4.404,6.905 4.600 C 6.966 4.715,6.982 4.852,6.993 5.370 L 7.007 6.000 6.000 6.000 L 4.993 6.000 5.007 5.370 C 5.022 4.680,5.047 4.590,5.294 4.327 C 5.596 4.006,6.051 3.920,6.425 4.113 M2.577 11.076 C 2.360 11.174,2.139 11.408,2.056 11.626 C 1.998 11.776,1.992 11.900,2.012 12.451 C 2.126 15.589,3.810 18.549,6.500 20.338 C 6.967 20.649,8.014 21.176,8.565 21.377 C 9.514 21.724,10.711 21.951,11.680 21.968 C 12.174 21.977,12.236 21.970,12.410 21.885 C 12.733 21.728,13.000 21.319,13.000 20.980 C 13.000 20.798,12.869 20.469,12.741 20.326 C 12.505 20.065,12.343 20.014,11.600 19.965 C 10.820 19.914,10.399 19.844,9.766 19.662 C 7.890 19.122,6.229 17.861,5.190 16.189 C 4.462 15.016,4.000 13.456,4.000 12.169 C 4.000 11.638,3.810 11.279,3.429 11.089 C 3.201 10.975,2.812 10.969,2.577 11.076 M15.695 14.057 C 15.466 14.129,15.256 14.299,15.128 14.516 L 15.020 14.700 15.009 17.912 C 15.002 20.005,15.012 21.177,15.039 21.276 C 15.099 21.498,15.290 21.739,15.508 21.867 L 15.700 21.980 17.465 21.992 C 19.459 22.005,19.602 21.991,20.120 21.732 C 20.534 21.525,21.005 21.054,21.212 20.640 C 21.670 19.723,21.546 18.631,20.900 17.893 L 20.720 17.687 20.803 17.493 C 20.996 17.048,21.048 16.457,20.940 15.940 C 20.754 15.047,19.953 14.246,19.060 14.060 C 18.680 13.981,15.947 13.978,15.695 14.057 M18.844 16.145 C 19.017 16.319,19.045 16.565,18.912 16.759 C 18.758 16.987,18.704 16.999,17.810 16.999 L 17.000 17.000 17.000 16.498 L 17.000 15.996 17.859 16.008 L 18.719 16.020 18.844 16.145 M19.348 19.174 C 19.479 19.318,19.488 19.344,19.470 19.528 C 19.455 19.684,19.423 19.755,19.325 19.854 L 19.199 19.980 18.099 19.992 L 17.000 20.004 17.000 19.500 L 17.000 18.996 18.103 19.008 L 19.206 19.020 19.348 19.174 " stroke="none" fill-rule="evenodd" fill="black"></path></svg>