<svg xmlns="http://www.w3.org/2000/svg" width="24" height="24" viewBox="0 0 24 24" fill="none" stroke="currentColor" stroke-width="2" stroke-linecap="round" stroke-linejoin="round"><path d="M11.695 5.057 C 11.466 5.129,11.256 5.299,11.128 5.516 L 11.020 5.700 11.020 12.003 L 11.020 18.306 11.141 18.503 C 11.543 19.156,12.457 19.156,12.859 18.503 L 12.980 18.306 12.980 12.003 L 12.980 5.700 12.872 5.516 C 12.628 5.101,12.150 4.915,11.695 5.057 M4.873 7.060 C 4.136 7.200,3.468 7.565,2.958 8.105 C 2.562 8.524,2.318 8.949,2.130 9.548 L 2.020 9.900 2.020 13.103 L 2.020 16.306 2.141 16.503 C 2.543 17.156,3.457 17.156,3.859 16.503 L 3.980 16.306 3.992 14.653 L 4.003 13.000 5.500 13.000 L 6.997 13.000 7.008 14.653 L 7.020 16.306 7.141 16.503 C 7.543 17.156,8.457 17.156,8.859 16.503 L 8.980 16.306 8.991 13.283 C 8.998 11.344,8.988 10.164,8.961 9.992 C 8.748 8.610,7.722 7.468,6.378 7.118 C 5.959 7.009,5.280 6.983,4.873 7.060 M15.695 7.056 C 15.465 7.130,15.255 7.300,15.128 7.516 L 15.020 7.700 15.009 11.913 C 15.002 14.672,15.013 16.178,15.039 16.277 C 15.099 16.498,15.290 16.739,15.508 16.867 L 15.700 16.980 17.620 16.980 C 19.521 16.980,19.543 16.979,19.840 16.886 C 20.827 16.578,21.579 15.826,21.886 14.840 C 22.021 14.406,22.021 13.593,21.886 13.161 C 21.766 12.779,21.609 12.470,21.402 12.208 L 21.238 12.000 21.402 11.792 C 21.609 11.530,21.766 11.221,21.886 10.839 C 22.021 10.407,22.021 9.594,21.886 9.160 C 21.582 8.182,20.827 7.423,19.861 7.123 C 19.541 7.024,19.535 7.023,17.700 7.013 C 16.259 7.005,15.824 7.014,15.695 7.056 M6.119 9.143 C 6.417 9.279,6.728 9.592,6.862 9.892 C 6.951 10.090,6.974 10.210,6.991 10.566 L 7.011 11.000 5.500 11.000 L 3.989 11.000 4.009 10.565 C 4.026 10.206,4.049 10.088,4.137 9.895 C 4.326 9.479,4.751 9.129,5.174 9.039 C 5.441 8.982,5.870 9.030,6.119 9.143 M19.310 9.061 C 19.688 9.173,20.000 9.598,20.000 10.001 C 20.000 10.331,19.784 10.696,19.484 10.872 L 19.300 10.980 18.150 10.992 L 17.000 11.005 17.000 10.002 L 17.000 9.000 18.053 9.000 C 18.879 9.000,19.150 9.013,19.310 9.061 M19.310 13.061 C 19.688 13.173,20.000 13.598,20.000 14.001 C 20.000 14.331,19.784 14.696,19.484 14.872 L 19.300 14.980 18.150 14.992 L 17.000 15.005 17.000 14.002 L 17.000 13.000 18.053 13.000 C 18.879 13.000,19.150 13.013,19.310 13.061 " stroke="none" fill-rule="evenodd" fill="black"></path></svg>