<svg xmlns="http://www.w3.org/2000/svg" width="24" height="24" viewBox="0 0 24 24" fill="none" stroke="currentColor" stroke-width="2" stroke-linecap="round" stroke-linejoin="round"><path d="M2.670 2.061 C 2.448 2.142,2.250 2.309,2.128 2.516 C 2.036 2.672,2.020 2.745,2.021 3.000 C 2.021 3.212,2.043 3.341,2.095 3.440 C 2.135 3.517,2.933 4.347,3.868 5.284 L 5.567 6.988 5.247 7.015 C 3.762 7.138,2.586 8.094,2.130 9.548 L 2.020 9.900 2.020 13.103 L 2.020 16.306 2.141 16.503 C 2.543 17.156,3.457 17.156,3.859 16.503 L 3.980 16.306 3.992 14.653 L 4.003 13.000 5.500 13.000 L 6.997 13.000 7.008 14.653 L 7.020 16.306 7.141 16.503 C 7.543 17.156,8.457 17.156,8.859 16.503 L 8.980 16.306 9.000 13.373 L 9.020 10.439 10.009 11.430 L 10.998 12.420 11.009 15.363 L 11.020 18.306 11.141 18.503 C 11.543 19.156,12.457 19.156,12.859 18.503 L 12.980 18.306 12.991 16.365 L 13.003 14.424 16.711 18.128 C 18.751 20.165,20.483 21.865,20.560 21.905 C 20.659 21.957,20.788 21.979,21.000 21.979 C 21.258 21.980,21.327 21.964,21.492 21.867 C 21.968 21.587,22.139 20.967,21.865 20.508 C 21.810 20.416,17.665 16.243,12.653 11.235 C 4.231 2.820,3.525 2.125,3.343 2.065 C 3.107 1.987,2.874 1.986,2.670 2.061 M11.695 5.057 C 11.466 5.129,11.256 5.299,11.128 5.516 L 11.020 5.700 11.020 7.003 L 11.020 8.306 11.141 8.503 C 11.543 9.156,12.457 9.156,12.859 8.503 L 12.980 8.306 12.980 7.003 L 12.980 5.700 12.872 5.516 C 12.628 5.101,12.150 4.915,11.695 5.057 M15.695 7.056 C 15.465 7.130,15.255 7.300,15.128 7.516 L 15.020 7.700 15.009 9.911 C 15.001 11.337,15.012 12.176,15.039 12.275 C 15.099 12.498,15.289 12.739,15.508 12.867 L 15.700 12.980 17.503 13.000 L 19.306 13.020 19.502 13.141 C 20.165 13.551,20.153 14.470,19.478 14.870 C 19.034 15.133,18.882 15.345,18.849 15.746 C 18.789 16.499,19.501 17.009,20.224 16.731 C 20.930 16.459,21.563 15.758,21.853 14.928 C 21.965 14.608,21.975 14.537,21.977 14.040 C 21.978 13.640,21.959 13.432,21.906 13.240 C 21.809 12.888,21.558 12.377,21.381 12.171 L 21.236 12.003 21.401 11.793 C 21.609 11.530,21.766 11.222,21.886 10.839 C 22.021 10.407,22.021 9.594,21.886 9.160 C 21.582 8.182,20.827 7.423,19.861 7.123 C 19.541 7.024,19.535 7.023,17.700 7.013 C 16.259 7.005,15.824 7.014,15.695 7.056 M6.119 9.143 C 6.417 9.279,6.728 9.592,6.862 9.892 C 6.951 10.090,6.974 10.210,6.991 10.566 L 7.011 11.000 5.500 11.000 L 3.989 11.000 4.009 10.565 C 4.026 10.206,4.049 10.088,4.137 9.895 C 4.326 9.479,4.751 9.129,5.174 9.039 C 5.441 8.982,5.870 9.030,6.119 9.143 M19.310 9.061 C 19.688 9.173,20.000 9.598,20.000 10.001 C 20.000 10.331,19.784 10.696,19.484 10.872 L 19.300 10.980 18.150 10.992 L 17.000 11.005 17.000 10.002 L 17.000 9.000 18.053 9.000 C 18.879 9.000,19.150 9.013,19.310 9.061 " stroke="none" fill-rule="evenodd" fill="black"></path></svg>