<svg xmlns="http://www.w3.org/2000/svg" width="24" height="24" viewBox="0 0 24 24" fill="none" stroke="currentColor" stroke-width="2" stroke-linecap="round" stroke-linejoin="round"><path d="M2.670 2.061 C 2.448 2.142,2.250 2.309,2.128 2.516 C 2.037 2.672,2.020 2.746,2.020 3.000 C 2.020 3.254,2.036 3.328,2.127 3.480 C 2.186 3.579,2.632 4.056,3.117 4.540 L 4.000 5.419 4.000 12.710 L 4.000 20.000 3.446 20.000 C 2.648 20.000,2.367 20.110,2.128 20.516 C 2.037 20.672,2.020 20.746,2.020 21.000 C 2.020 21.256,2.036 21.328,2.131 21.489 C 2.256 21.702,2.449 21.864,2.670 21.943 C 2.794 21.987,4.438 21.997,12.020 21.998 L 21.220 21.999 21.420 21.905 C 21.929 21.664,22.142 21.080,21.904 20.580 C 21.826 20.417,20.124 18.697,12.674 11.255 C 4.233 2.822,3.525 2.125,3.343 2.065 C 3.107 1.987,2.874 1.986,2.670 2.061 M18.695 2.057 C 18.466 2.129,18.256 2.299,18.128 2.516 L 18.020 2.700 18.008 4.350 L 17.997 6.000 16.502 6.000 L 15.007 6.000 14.993 5.350 C 14.981 4.726,14.976 4.693,14.871 4.514 C 14.479 3.848,13.521 3.848,13.129 4.514 C 13.024 4.693,13.019 4.726,13.007 5.350 L 12.993 6.000 12.500 6.000 L 12.007 6.000 11.993 5.350 C 11.981 4.726,11.976 4.693,11.871 4.514 C 11.479 3.848,10.521 3.848,10.129 4.514 L 10.020 4.700 10.008 5.939 C 9.997 7.021,10.004 7.199,10.063 7.353 C 10.155 7.595,10.342 7.795,10.580 7.906 C 10.774 7.997,10.812 7.999,11.887 8.000 L 12.993 8.000 13.007 8.653 C 13.020 9.300,13.021 9.308,13.141 9.503 C 13.543 10.156,14.457 10.156,14.859 9.503 C 14.979 9.308,14.980 9.300,14.993 8.653 L 15.007 8.000 16.503 8.000 L 17.998 8.000 18.009 11.653 L 18.020 15.306 18.141 15.503 C 18.543 16.156,19.457 16.156,19.859 15.503 L 19.980 15.306 19.980 9.003 L 19.980 2.700 19.872 2.516 C 19.628 2.101,19.150 1.915,18.695 2.057 M6.789 8.209 L 7.000 8.417 7.002 8.799 C 7.004 9.215,7.053 9.405,7.217 9.619 C 7.452 9.927,7.943 10.077,8.300 9.950 L 8.460 9.893 9.546 10.972 L 10.632 12.052 10.446 12.179 C 10.344 12.250,10.206 12.394,10.140 12.500 C 10.021 12.691,10.020 12.701,10.007 13.347 L 9.993 14.000 9.500 14.000 L 9.007 14.000 8.993 13.350 C 8.981 12.726,8.976 12.693,8.871 12.514 C 8.479 11.848,7.521 11.848,7.129 12.514 C 7.024 12.693,7.019 12.726,7.007 13.350 L 6.993 14.000 6.497 14.000 L 6.000 14.000 6.000 11.000 L 6.000 8.000 6.289 8.000 L 6.577 8.000 6.789 8.209 M12.300 13.720 L 12.578 14.000 12.289 14.000 L 12.000 14.000 12.000 13.720 C 12.000 13.566,12.005 13.440,12.011 13.440 C 12.017 13.440,12.147 13.566,12.300 13.720 M7.007 16.653 C 7.020 17.300,7.021 17.308,7.141 17.503 C 7.543 18.156,8.457 18.156,8.859 17.503 C 8.979 17.308,8.980 17.300,8.993 16.653 L 9.007 16.000 9.500 16.000 L 9.993 16.000 10.007 16.653 C 10.020 17.300,10.021 17.308,10.141 17.503 C 10.543 18.156,11.457 18.156,11.859 17.503 C 11.979 17.308,11.980 17.300,11.993 16.653 L 12.007 16.000 13.292 16.000 L 14.577 16.000 14.789 16.209 L 15.000 16.417 15.002 16.799 C 15.004 17.215,15.053 17.405,15.217 17.619 C 15.453 17.929,15.942 18.077,16.306 17.950 L 16.473 17.892 17.236 18.656 L 18.000 19.421 18.000 19.710 L 18.000 20.000 12.000 20.000 L 6.000 20.000 6.000 18.000 L 6.000 16.000 6.497 16.000 L 6.993 16.000 7.007 16.653 " stroke="none" fill-rule="evenodd" fill="black"></path></svg>