<svg xmlns="http://www.w3.org/2000/svg" width="24" height="24" viewBox="0 0 24 24" fill="none" stroke="currentColor" stroke-width="2" stroke-linecap="round" stroke-linejoin="round"><path d="M4.695 2.057 C 4.466 2.129,4.256 2.299,4.128 2.516 L 4.020 2.700 4.010 11.350 L 3.999 20.000 3.446 20.000 C 2.648 20.000,2.367 20.110,2.128 20.516 C 2.037 20.672,2.020 20.746,2.020 21.000 C 2.020 21.256,2.036 21.328,2.131 21.489 C 2.256 21.702,2.449 21.864,2.670 21.943 C 2.893 22.023,21.107 22.023,21.330 21.943 C 21.551 21.864,21.744 21.702,21.869 21.489 C 21.964 21.328,21.980 21.256,21.980 21.000 C 21.980 20.746,21.963 20.672,21.872 20.516 C 21.633 20.110,21.352 20.000,20.554 20.000 L 20.001 20.000 19.990 11.350 L 19.980 2.700 19.871 2.514 C 19.479 1.848,18.521 1.848,18.129 2.514 L 18.020 2.700 18.008 4.350 L 17.997 6.000 16.502 6.000 L 15.007 6.000 14.993 5.350 C 14.981 4.726,14.976 4.693,14.871 4.514 C 14.648 4.134,14.208 3.941,13.786 4.035 C 13.515 4.096,13.270 4.275,13.129 4.514 C 13.024 4.693,13.019 4.726,13.007 5.350 L 12.993 6.000 12.500 6.000 L 12.007 6.000 11.993 5.350 C 11.981 4.726,11.976 4.693,11.871 4.514 C 11.479 3.848,10.521 3.848,10.129 4.514 C 10.024 4.693,10.019 4.726,10.007 5.350 L 9.993 6.000 9.500 6.000 L 9.007 6.000 8.993 5.350 C 8.981 4.726,8.976 4.693,8.871 4.514 C 8.479 3.848,7.521 3.848,7.129 4.514 C 7.024 4.693,7.019 4.726,7.007 5.350 L 6.993 6.000 6.498 6.000 L 6.003 6.000 5.992 4.350 L 5.980 2.700 5.872 2.516 C 5.628 2.101,5.150 1.915,4.695 2.057 M7.007 8.653 C 7.020 9.300,7.021 9.308,7.141 9.503 C 7.446 9.999,8.077 10.144,8.548 9.828 C 8.654 9.756,8.791 9.613,8.859 9.503 C 8.979 9.308,8.980 9.300,8.993 8.653 L 9.007 8.000 9.500 8.000 L 9.993 8.000 10.007 8.653 C 10.020 9.300,10.021 9.308,10.141 9.503 C 10.543 10.156,11.457 10.156,11.859 9.503 C 11.979 9.308,11.980 9.300,11.993 8.653 L 12.007 8.000 12.500 8.000 L 12.993 8.000 13.007 8.653 C 13.020 9.300,13.021 9.308,13.141 9.503 C 13.543 10.156,14.457 10.156,14.859 9.503 C 14.979 9.308,14.980 9.300,14.993 8.653 L 15.007 8.000 16.503 8.000 L 18.000 8.000 18.000 11.000 L 18.000 14.000 17.503 14.000 L 17.007 14.000 16.993 13.350 C 16.981 12.726,16.976 12.693,16.871 12.514 C 16.479 11.848,15.521 11.848,15.129 12.514 C 15.024 12.693,15.019 12.726,15.007 13.350 L 14.993 14.000 13.500 14.000 L 12.007 14.000 11.993 13.350 C 11.981 12.726,11.976 12.693,11.871 12.514 C 11.730 12.275,11.485 12.096,11.214 12.035 C 10.792 11.941,10.352 12.134,10.129 12.514 C 10.024 12.693,10.019 12.726,10.007 13.350 L 9.993 14.000 9.500 14.000 L 9.007 14.000 8.993 13.350 C 8.981 12.726,8.976 12.693,8.871 12.514 C 8.479 11.848,7.521 11.848,7.129 12.514 C 7.024 12.693,7.019 12.726,7.007 13.350 L 6.993 14.000 6.497 14.000 L 6.000 14.000 6.000 11.000 L 6.000 8.000 6.497 8.000 L 6.993 8.000 7.007 8.653 M7.007 16.653 C 7.020 17.300,7.021 17.308,7.141 17.503 C 7.543 18.156,8.457 18.156,8.859 17.503 C 8.979 17.308,8.980 17.300,8.993 16.653 L 9.007 16.000 9.500 16.000 L 9.993 16.000 10.007 16.653 C 10.020 17.300,10.021 17.308,10.141 17.503 C 10.543 18.156,11.457 18.156,11.859 17.503 C 11.979 17.308,11.980 17.300,11.993 16.653 L 12.007 16.000 13.500 16.000 L 14.993 16.000 15.007 16.653 C 15.020 17.300,15.021 17.308,15.141 17.503 C 15.543 18.156,16.457 18.156,16.859 17.503 C 16.979 17.308,16.980 17.300,16.993 16.653 L 17.007 16.000 17.503 16.000 L 18.000 16.000 18.000 18.000 L 18.000 20.000 12.000 20.000 L 6.000 20.000 6.000 18.000 L 6.000 16.000 6.497 16.000 L 6.993 16.000 7.007 16.653 " stroke="none" fill-rule="evenodd" fill="black"></path></svg>