<svg xmlns="http://www.w3.org/2000/svg" width="24" height="24" viewBox="0 0 24 24" fill="none" stroke="currentColor" stroke-width="2" stroke-linecap="round" stroke-linejoin="round"><path d="M4.499 7.040 C 3.363 7.246,2.461 8.048,2.114 9.160 L 2.020 9.460 2.020 12.883 L 2.020 16.306 2.141 16.503 C 2.543 17.156,3.457 17.156,3.859 16.503 L 3.980 16.307 3.992 15.153 L 4.005 14.000 5.000 14.000 L 5.995 14.000 6.008 15.153 L 6.020 16.307 6.141 16.503 C 6.543 17.156,7.457 17.156,7.859 16.503 L 7.980 16.306 7.980 12.883 L 7.980 9.460 7.886 9.160 C 7.580 8.178,6.810 7.407,5.861 7.129 C 5.500 7.023,4.832 6.980,4.499 7.040 M9.695 7.057 C 9.466 7.129,9.256 7.299,9.128 7.516 L 9.020 7.700 9.020 11.120 L 9.020 14.540 9.114 14.840 C 9.422 15.827,10.174 16.579,11.160 16.886 C 11.594 17.021,12.406 17.021,12.840 16.886 C 13.826 16.579,14.578 15.827,14.886 14.840 C 14.974 14.558,14.980 14.479,14.980 13.500 C 14.980 12.521,14.974 12.442,14.886 12.160 C 14.580 11.180,13.821 10.417,12.861 10.125 C 12.594 10.044,12.452 10.027,12.020 10.025 C 11.713 10.024,11.426 10.044,11.320 10.074 C 11.221 10.102,11.109 10.134,11.072 10.144 C 11.010 10.163,11.003 10.068,10.992 8.932 L 10.980 7.700 10.872 7.516 C 10.628 7.101,10.150 6.915,9.695 7.057 M5.310 9.061 C 5.452 9.103,5.571 9.178,5.697 9.303 C 5.978 9.584,6.000 9.703,6.000 10.947 L 6.000 12.000 5.000 12.000 L 4.000 12.000 4.000 10.947 C 4.000 9.702,4.022 9.585,4.304 9.303 C 4.583 9.024,4.916 8.944,5.310 9.061 M18.460 10.059 C 17.595 10.220,16.933 10.671,16.446 11.431 C 16.101 11.968,16.000 12.439,16.000 13.505 C 16.000 14.763,16.160 15.288,16.758 15.985 C 17.848 17.255,19.906 17.332,21.092 16.146 C 21.641 15.597,21.820 15.134,21.659 14.678 C 21.572 14.431,21.438 14.273,21.215 14.154 C 20.947 14.010,20.712 13.983,20.440 14.064 C 20.217 14.130,20.198 14.146,19.685 14.704 C 19.327 15.093,18.690 15.092,18.299 14.701 C 18.045 14.447,18.000 14.266,18.000 13.500 C 18.000 12.731,18.045 12.553,18.303 12.295 C 18.720 11.877,19.444 11.930,19.789 12.402 C 20.123 12.858,20.324 12.980,20.740 12.980 C 20.973 12.980,21.051 12.962,21.207 12.870 C 21.555 12.665,21.721 12.376,21.719 11.975 C 21.717 11.529,21.255 10.892,20.655 10.509 C 19.956 10.063,19.234 9.915,18.460 10.059 M12.310 12.061 C 12.589 12.144,12.856 12.411,12.939 12.690 C 13.020 12.961,13.024 14.028,12.945 14.290 C 12.872 14.533,12.707 14.740,12.484 14.872 C 12.328 14.963,12.254 14.980,12.000 14.980 C 11.746 14.980,11.672 14.963,11.516 14.872 C 11.303 14.747,11.141 14.550,11.058 14.316 C 10.976 14.081,10.977 12.971,11.061 12.690 C 11.173 12.313,11.577 12.012,11.983 12.003 C 12.050 12.001,12.198 12.027,12.310 12.061 " stroke="none" fill-rule="evenodd" fill="black"></path></svg>