<svg xmlns="http://www.w3.org/2000/svg" width="24" height="24" viewBox="0 0 24 24" fill="none" stroke="currentColor" stroke-width="2" stroke-linecap="round" stroke-linejoin="round"><path d="M5.890 5.463 C 5.408 5.703,4.490 6.901,3.943 8.003 C 2.680 10.548,2.680 13.452,3.943 15.997 C 4.496 17.111,5.412 18.303,5.899 18.541 C 6.561 18.865,7.326 18.393,7.326 17.660 C 7.326 17.350,7.223 17.156,6.814 16.693 C 5.869 15.624,5.301 14.426,5.074 13.020 C 5.008 12.607,5.008 11.393,5.074 10.980 C 5.301 9.577,5.867 8.377,6.802 7.320 C 7.223 6.844,7.326 6.651,7.326 6.340 C 7.326 5.606,6.551 5.133,5.890 5.463 M17.204 5.465 C 16.997 5.569,16.798 5.784,16.712 6.000 C 16.652 6.151,16.662 6.561,16.731 6.725 C 16.764 6.804,16.934 7.029,17.108 7.225 C 17.698 7.887,18.001 8.337,18.319 9.020 C 18.795 10.042,18.975 10.862,18.975 12.000 C 18.975 13.138,18.795 13.958,18.319 14.980 C 18.001 15.663,17.700 16.110,17.108 16.774 C 16.935 16.968,16.765 17.193,16.732 17.274 C 16.663 17.439,16.651 17.849,16.712 18.000 C 16.923 18.528,17.550 18.790,18.061 18.564 C 18.542 18.351,19.535 17.062,20.082 15.940 C 21.304 13.436,21.304 10.564,20.082 8.060 C 19.544 6.955,18.546 5.655,18.074 5.441 C 17.815 5.323,17.470 5.333,17.204 5.465 M8.973 8.204 C 8.725 8.250,8.605 8.325,8.339 8.606 C 7.752 9.223,7.360 9.958,7.130 10.869 C 7.032 11.256,7.021 11.371,7.021 12.000 C 7.021 12.629,7.032 12.744,7.130 13.131 C 7.369 14.078,7.832 14.917,8.432 15.489 C 8.732 15.775,9.012 15.873,9.344 15.806 C 9.820 15.710,10.160 15.313,10.160 14.852 C 10.160 14.553,10.083 14.382,9.792 14.032 C 9.458 13.631,9.264 13.296,9.127 12.887 C 9.037 12.614,9.025 12.515,9.025 12.000 C 9.025 11.485,9.037 11.386,9.127 11.113 C 9.264 10.704,9.458 10.369,9.792 9.968 C 10.084 9.617,10.160 9.448,10.160 9.144 C 10.160 8.545,9.588 8.092,8.973 8.204 M14.631 8.198 C 14.393 8.244,14.115 8.441,13.981 8.658 C 13.872 8.834,13.860 8.887,13.861 9.177 C 13.862 9.556,13.891 9.621,14.241 10.020 C 14.547 10.370,14.749 10.726,14.875 11.139 C 14.958 11.412,14.973 11.542,14.973 12.000 C 14.973 12.458,14.958 12.588,14.875 12.861 C 14.749 13.276,14.546 13.632,14.239 13.980 C 13.905 14.359,13.827 14.537,13.847 14.880 C 13.896 15.751,14.883 16.131,15.530 15.528 C 16.019 15.071,16.465 14.357,16.722 13.619 C 16.922 13.046,16.980 12.679,16.980 12.000 C 16.980 11.162,16.838 10.527,16.489 9.811 C 16.145 9.104,15.520 8.348,15.198 8.249 C 14.985 8.184,14.794 8.167,14.631 8.198 M11.695 11.057 C 11.466 11.129,11.256 11.299,11.128 11.516 C 11.036 11.672,11.020 11.745,11.021 12.000 C 11.022 12.332,11.101 12.533,11.306 12.728 C 11.785 13.181,12.580 13.046,12.893 12.460 C 13.025 12.211,13.015 11.760,12.872 11.516 C 12.628 11.101,12.150 10.915,11.695 11.057 " stroke="none" fill-rule="evenodd" fill="black"></path></svg>