<svg xmlns="http://www.w3.org/2000/svg" width="24" height="24" viewBox="0 0 24 24" fill="none" stroke="currentColor" stroke-width="2" stroke-linecap="round" stroke-linejoin="round"><path d="M2.670 2.061 C 2.448 2.142,2.250 2.309,2.128 2.516 C 2.036 2.672,2.020 2.745,2.021 3.000 C 2.021 3.213,2.043 3.341,2.095 3.440 C 2.136 3.517,2.639 4.052,3.213 4.629 L 4.256 5.678 4.155 5.789 C 3.681 6.309,2.950 7.566,2.638 8.400 C 1.751 10.767,1.720 13.096,2.544 15.447 C 2.762 16.068,3.229 16.999,3.606 17.561 C 5.602 20.543,8.922 22.214,12.493 22.034 C 14.455 21.935,16.452 21.201,17.995 20.011 L 18.331 19.753 19.375 20.792 C 19.950 21.363,20.483 21.864,20.560 21.905 C 20.659 21.957,20.787 21.979,21.000 21.979 C 21.258 21.980,21.327 21.964,21.492 21.867 C 21.968 21.587,22.139 20.967,21.865 20.508 C 21.810 20.416,17.665 16.243,12.653 11.235 C 4.231 2.820,3.525 2.125,3.343 2.065 C 3.107 1.987,2.874 1.986,2.670 2.061 M11.080 2.043 C 9.922 2.160,8.798 2.467,7.760 2.949 C 7.190 3.215,7.007 3.436,6.969 3.907 C 6.952 4.122,6.964 4.188,7.057 4.378 C 7.185 4.639,7.384 4.815,7.653 4.904 C 7.936 4.998,8.161 4.962,8.637 4.744 C 10.417 3.927,12.308 3.782,14.226 4.313 C 16.341 4.899,18.237 6.498,19.205 8.512 C 20.096 10.364,20.244 12.530,19.614 14.460 C 19.556 14.636,19.410 15.005,19.288 15.280 C 19.039 15.845,19.000 16.059,19.096 16.347 C 19.186 16.619,19.363 16.816,19.629 16.942 C 19.823 17.034,19.892 17.047,20.106 17.030 C 20.396 17.006,20.662 16.871,20.816 16.669 C 21.021 16.400,21.419 15.433,21.624 14.706 C 22.518 11.532,21.776 8.099,19.647 5.557 C 18.089 3.697,15.786 2.429,13.360 2.097 C 12.822 2.023,11.571 1.994,11.080 2.043 M11.637 6.055 C 10.747 6.246,10.212 7.378,10.686 8.068 C 10.749 8.161,10.856 8.269,10.924 8.308 C 10.991 8.348,11.107 8.464,11.181 8.567 C 11.255 8.670,11.402 8.805,11.508 8.867 C 11.673 8.964,11.742 8.980,12.000 8.979 C 12.360 8.979,12.561 8.923,12.817 8.754 C 13.544 8.272,13.705 7.254,13.162 6.567 C 12.962 6.314,12.648 6.117,12.344 6.053 C 12.051 5.991,11.930 5.992,11.637 6.055 M7.019 8.439 L 8.337 9.757 8.253 9.849 C 8.008 10.116,7.937 10.538,8.080 10.871 C 8.254 11.276,8.371 11.344,9.606 11.755 C 10.609 12.090,10.718 12.135,10.853 12.273 L 11.000 12.423 11.000 12.812 L 11.000 13.201 10.075 14.588 C 9.566 15.351,9.116 16.048,9.076 16.138 C 8.915 16.491,9.030 16.958,9.348 17.245 C 9.743 17.601,10.354 17.575,10.707 17.187 C 10.791 17.095,11.112 16.637,11.420 16.170 C 11.728 15.704,11.989 15.322,12.000 15.322 C 12.011 15.322,12.272 15.704,12.580 16.170 C 12.888 16.637,13.209 17.095,13.293 17.187 C 13.644 17.574,14.257 17.601,14.648 17.248 C 14.839 17.075,14.922 16.926,14.979 16.651 L 15.022 16.441 15.961 17.383 L 16.900 18.324 16.780 18.424 C 16.552 18.613,15.999 18.963,15.618 19.159 C 13.978 20.001,12.063 20.258,10.280 19.874 C 7.503 19.276,5.238 17.243,4.360 14.562 C 4.052 13.624,3.939 12.812,3.971 11.780 C 4.010 10.561,4.259 9.567,4.799 8.480 C 5.081 7.912,5.591 7.120,5.674 7.120 C 5.688 7.120,6.294 7.713,7.019 8.439 M14.468 9.621 C 14.112 9.745,13.954 9.846,13.828 10.030 C 13.682 10.242,13.640 10.374,13.640 10.624 C 13.640 11.016,13.843 11.350,14.175 11.503 C 14.513 11.660,14.650 11.662,15.095 11.520 C 15.560 11.371,15.779 11.198,15.920 10.871 C 16.129 10.386,15.876 9.790,15.374 9.580 C 15.164 9.492,14.787 9.510,14.468 9.621 " stroke="none" fill-rule="evenodd" fill="black"></path></svg>