<svg xmlns="http://www.w3.org/2000/svg" width="24" height="24" viewBox="0 0 24 24" fill="none" stroke="currentColor" stroke-width="2" stroke-linecap="round" stroke-linejoin="round"><path d="M11.080 2.045 C 9.507 2.184,7.883 2.751,6.540 3.630 C 5.905 4.045,5.499 4.378,4.919 4.958 C 2.953 6.926,1.919 9.544,2.013 12.320 C 2.084 14.439,2.752 16.328,4.033 18.040 C 4.430 18.570,5.305 19.464,5.800 19.847 C 7.242 20.961,8.787 21.624,10.600 21.907 C 11.247 22.008,12.753 22.008,13.400 21.907 C 15.638 21.557,17.504 20.620,19.062 19.062 C 20.620 17.504,21.557 15.638,21.907 13.400 C 22.008 12.753,22.008 11.247,21.907 10.600 C 21.624 8.786,20.959 7.238,19.847 5.800 C 19.510 5.365,18.639 4.494,18.200 4.154 C 16.133 2.555,13.646 1.818,11.080 2.045 M12.734 4.041 C 14.574 4.216,16.228 4.976,17.554 6.256 C 20.043 8.658,20.702 12.394,19.183 15.499 C 18.749 16.387,18.223 17.105,17.496 17.801 C 16.876 18.394,16.262 18.819,15.471 19.200 C 13.267 20.265,10.733 20.265,8.529 19.200 C 7.477 18.693,6.612 18.015,5.847 17.100 C 3.848 14.711,3.440 11.302,4.816 8.500 C 6.162 5.760,8.867 4.049,11.920 4.005 C 12.129 4.003,12.495 4.019,12.734 4.041 M11.637 6.055 C 10.808 6.233,10.296 7.199,10.600 8.011 C 10.758 8.434,11.144 8.812,11.538 8.930 C 11.747 8.992,12.253 8.992,12.462 8.930 C 12.855 8.812,13.242 8.434,13.399 8.013 C 13.707 7.190,13.190 6.230,12.344 6.053 C 12.051 5.991,11.930 5.992,11.637 6.055 M8.581 9.602 C 8.095 9.845,7.876 10.398,8.080 10.871 C 8.258 11.285,8.356 11.339,9.753 11.804 L 11.000 12.219 11.000 12.710 L 11.000 13.201 10.075 14.588 C 9.566 15.351,9.116 16.048,9.076 16.138 C 8.915 16.491,9.030 16.958,9.348 17.245 C 9.743 17.601,10.354 17.575,10.707 17.187 C 10.791 17.095,11.112 16.637,11.420 16.170 C 11.728 15.704,11.989 15.322,12.000 15.322 C 12.011 15.322,12.272 15.704,12.580 16.170 C 12.888 16.637,13.209 17.095,13.293 17.187 C 13.744 17.683,14.575 17.558,14.886 16.948 C 14.991 16.742,15.024 16.414,14.960 16.219 C 14.932 16.135,14.480 15.421,13.955 14.633 L 13.000 13.199 13.000 12.709 L 13.000 12.219 14.247 11.804 C 15.644 11.339,15.742 11.285,15.920 10.871 C 16.129 10.386,15.876 9.790,15.374 9.580 C 15.063 9.450,14.875 9.488,13.390 9.983 L 12.000 10.447 10.610 9.983 C 9.079 9.473,8.906 9.440,8.581 9.602 " stroke="none" fill-rule="evenodd" fill="black"></path></svg>