<svg xmlns="http://www.w3.org/2000/svg" width="24" height="24" viewBox="0 0 24 24" fill="none" stroke="currentColor" stroke-width="2" stroke-linecap="round" stroke-linejoin="round"><path d="M13.670 3.061 C 13.467 3.135,13.259 3.300,13.155 3.468 C 13.097 3.561,12.525 5.780,11.439 10.114 C 9.953 16.050,9.806 16.609,9.762 16.500 C 9.735 16.434,9.302 15.284,8.800 13.945 C 8.156 12.228,7.852 11.468,7.769 11.365 C 7.704 11.286,7.564 11.175,7.457 11.120 L 7.262 11.020 5.121 11.007 C 3.665 10.999,2.915 11.009,2.776 11.039 C 2.516 11.095,2.269 11.276,2.129 11.514 C 2.036 11.672,2.020 11.745,2.020 12.000 C 2.020 12.256,2.036 12.328,2.131 12.489 C 2.192 12.592,2.304 12.725,2.381 12.783 C 2.656 12.993,2.688 12.996,4.563 12.998 L 6.306 13.000 7.703 16.729 C 8.680 19.339,9.136 20.506,9.220 20.617 C 9.529 21.023,10.125 21.110,10.567 20.812 C 10.894 20.592,10.800 20.918,12.559 13.892 C 14.047 7.950,14.194 7.391,14.238 7.500 C 14.265 7.566,14.698 8.716,15.200 10.055 C 15.844 11.772,16.148 12.532,16.231 12.635 C 16.296 12.714,16.436 12.825,16.543 12.880 L 16.738 12.980 18.931 12.991 C 20.334 12.998,21.179 12.987,21.276 12.961 C 21.498 12.901,21.739 12.710,21.867 12.492 C 21.964 12.327,21.980 12.257,21.980 12.000 C 21.980 11.746,21.963 11.672,21.872 11.516 C 21.813 11.415,21.698 11.282,21.618 11.221 C 21.339 11.008,21.254 11.000,19.401 11.000 L 17.695 11.000 16.321 7.330 C 15.565 5.311,14.922 3.610,14.891 3.548 C 14.683 3.128,14.110 2.899,13.670 3.061 " stroke="none" fill-rule="evenodd" fill="black"></path></svg>