<svg xmlns="http://www.w3.org/2000/svg" width="24" height="24" viewBox="0 0 24 24" fill="none" stroke="currentColor" stroke-width="2" stroke-linecap="round" stroke-linejoin="round"><path d="M8.667 5.062 C 8.442 5.144,8.217 5.339,8.125 5.531 C 8.081 5.624,7.763 6.825,7.420 8.200 C 7.077 9.575,6.778 10.768,6.757 10.850 L 6.717 11.000 4.805 11.000 C 2.729 11.000,2.664 11.006,2.382 11.221 C 2.302 11.282,2.187 11.415,2.128 11.516 C 2.037 11.672,2.020 11.746,2.020 12.000 C 2.020 12.257,2.036 12.327,2.133 12.492 C 2.261 12.710,2.502 12.901,2.725 12.961 C 2.824 12.988,3.742 12.998,5.329 12.991 C 7.630 12.981,7.789 12.975,7.920 12.906 C 8.096 12.812,8.310 12.612,8.382 12.474 C 8.413 12.416,8.594 11.742,8.786 10.976 L 9.134 9.584 10.617 14.029 C 11.840 17.693,12.122 18.500,12.224 18.626 C 12.477 18.938,12.930 19.070,13.313 18.942 C 13.548 18.864,13.818 18.622,13.907 18.409 C 13.940 18.330,14.271 16.896,14.643 15.223 C 15.014 13.549,15.329 12.135,15.343 12.080 C 15.365 11.991,15.383 12.010,15.508 12.260 C 15.670 12.583,15.834 12.771,16.060 12.894 C 16.218 12.979,16.245 12.980,18.671 12.991 C 20.258 12.998,21.176 12.988,21.275 12.961 C 21.498 12.901,21.739 12.710,21.867 12.492 C 21.964 12.327,21.980 12.257,21.980 12.000 C 21.980 11.746,21.963 11.672,21.872 11.516 C 21.813 11.415,21.698 11.282,21.618 11.221 C 21.335 11.005,21.278 11.000,19.114 11.000 L 17.120 11.000 16.484 9.727 C 16.133 9.027,15.802 8.401,15.748 8.336 C 15.616 8.180,15.311 8.031,15.075 8.009 C 14.704 7.973,14.281 8.207,14.122 8.535 C 14.075 8.632,13.767 9.925,13.424 11.464 C 13.086 12.980,12.798 14.193,12.785 14.160 C 12.771 14.127,12.121 12.184,11.340 9.843 C 10.427 7.104,9.884 5.532,9.817 5.436 C 9.565 5.072,9.074 4.912,8.667 5.062 " stroke="none" fill-rule="evenodd" fill="black"></path></svg>