<svg xmlns="http://www.w3.org/2000/svg" width="24" height="24" viewBox="0 0 24 24" fill="none" stroke="currentColor" stroke-width="2" stroke-linecap="round" stroke-linejoin="round"><path d="M11.080 1.042 C 9.639 1.168,8.290 1.551,6.994 2.203 C 6.456 2.474,6.250 2.724,6.211 3.159 C 6.170 3.603,6.487 4.050,6.935 4.180 C 7.237 4.268,7.361 4.239,8.040 3.920 C 9.422 3.271,10.514 3.023,12.000 3.023 C 13.493 3.023,14.621 3.280,15.940 3.920 C 17.753 4.799,19.201 6.247,20.080 8.060 C 20.514 8.953,20.755 9.731,20.906 10.720 C 20.992 11.284,21.003 12.600,20.926 13.160 C 20.795 14.115,20.514 15.050,20.099 15.912 C 19.774 16.589,19.742 16.702,19.800 16.980 C 19.883 17.382,20.191 17.680,20.611 17.769 C 20.802 17.809,20.869 17.806,21.051 17.748 C 21.418 17.632,21.570 17.463,21.880 16.824 C 22.630 15.277,23.000 13.691,23.000 12.026 C 22.999 9.612,22.234 7.324,20.774 5.367 C 20.316 4.755,19.249 3.688,18.640 3.235 C 17.045 2.049,15.362 1.359,13.423 1.096 C 12.873 1.022,11.639 0.993,11.080 1.042 M2.670 2.061 C 2.448 2.142,2.250 2.309,2.128 2.516 C 2.036 2.672,2.020 2.745,2.021 3.000 C 2.021 3.214,2.043 3.340,2.096 3.440 C 2.136 3.517,2.476 3.890,2.851 4.268 C 3.485 4.907,3.529 4.961,3.476 5.034 C 3.445 5.077,3.282 5.298,3.114 5.526 C 2.704 6.081,2.447 6.509,2.120 7.180 C 0.296 10.920,0.717 15.270,3.226 18.633 C 3.686 19.248,4.752 20.314,5.367 20.774 C 8.729 23.282,13.081 23.703,16.820 21.880 C 17.491 21.553,17.919 21.296,18.474 20.886 C 18.702 20.718,18.923 20.555,18.966 20.524 C 19.039 20.471,19.093 20.515,19.732 21.149 C 20.110 21.524,20.483 21.864,20.560 21.904 C 20.660 21.957,20.786 21.979,21.000 21.979 C 21.258 21.980,21.327 21.964,21.492 21.867 C 21.968 21.587,22.139 20.967,21.865 20.508 C 21.810 20.416,17.665 16.243,12.653 11.235 C 4.231 2.820,3.525 2.125,3.343 2.065 C 3.107 1.987,2.874 1.986,2.670 2.061 M6.744 8.735 C 6.547 8.935,6.409 9.122,6.294 9.347 C 5.996 9.929,5.996 9.929,6.009 12.783 L 6.020 15.306 6.141 15.503 C 6.543 16.156,7.457 16.156,7.859 15.503 C 7.979 15.308,7.980 15.300,7.993 14.653 L 8.007 14.000 8.500 14.000 L 8.993 14.000 9.007 14.653 C 9.020 15.300,9.021 15.308,9.141 15.503 C 9.543 16.156,10.457 16.156,10.859 15.503 L 10.980 15.306 11.000 13.873 L 11.020 12.439 12.007 13.430 L 12.993 14.420 13.007 14.860 C 13.019 15.255,13.032 15.319,13.131 15.489 C 13.350 15.861,13.631 15.996,14.200 15.998 L 14.580 16.000 16.098 17.518 C 16.933 18.354,17.608 19.044,17.598 19.053 C 17.469 19.165,16.904 19.553,16.635 19.714 C 13.411 21.648,9.306 21.370,6.370 19.019 C 4.857 17.807,3.722 16.029,3.267 14.160 C 3.081 13.397,3.023 12.888,3.023 12.000 C 3.023 10.865,3.162 10.013,3.508 9.020 C 3.785 8.227,4.383 7.118,4.831 6.566 L 4.972 6.392 6.000 7.420 L 7.028 8.447 6.744 8.735 M13.695 8.055 C 13.464 8.130,13.255 8.300,13.128 8.516 C 13.023 8.694,13.020 8.723,13.007 9.404 C 12.999 9.825,13.011 10.172,13.037 10.268 C 13.099 10.498,13.287 10.737,13.508 10.867 C 13.673 10.964,13.743 10.980,14.003 10.980 C 14.271 10.980,14.329 10.966,14.503 10.859 C 14.742 10.712,14.946 10.422,14.982 10.179 C 14.997 10.081,15.031 10.000,15.057 10.000 C 15.227 10.000,15.529 10.138,15.679 10.283 C 15.975 10.571,15.977 10.581,16.000 12.023 L 16.020 13.307 16.141 13.503 C 16.543 14.156,17.457 14.156,17.859 13.503 L 17.980 13.306 17.980 11.883 C 17.980 10.503,17.977 10.451,17.886 10.160 C 17.580 9.180,16.820 8.416,15.861 8.125 C 15.574 8.039,15.451 8.027,14.700 8.015 C 14.072 8.004,13.818 8.015,13.695 8.055 M8.789 10.209 L 9.000 10.417 9.000 11.209 L 9.000 12.000 8.500 12.000 L 8.000 12.000 8.001 11.190 C 8.001 10.299,8.014 10.241,8.236 10.091 C 8.447 9.950,8.548 9.971,8.789 10.209 " stroke="none" fill-rule="evenodd" fill="black"></path></svg>