<svg xmlns="http://www.w3.org/2000/svg" width="24" height="24" viewBox="0 0 24 24" fill="none" stroke="currentColor" stroke-width="2" stroke-linecap="round" stroke-linejoin="round"><path d="M2.670 2.061 C 2.448 2.142,2.250 2.309,2.128 2.516 C 2.036 2.672,2.020 2.745,2.021 3.000 C 2.021 3.214,2.043 3.340,2.096 3.440 C 2.137 3.517,2.397 3.810,2.674 4.091 L 3.178 4.602 2.968 4.803 C 2.527 5.227,2.288 5.606,2.114 6.161 L 2.020 6.460 2.020 12.000 L 2.020 17.540 2.114 17.840 C 2.418 18.816,3.149 19.554,4.140 19.886 L 4.420 19.980 11.500 19.991 L 18.579 20.002 19.500 20.916 C 20.006 21.419,20.483 21.864,20.560 21.905 C 20.659 21.957,20.787 21.979,21.000 21.979 C 21.258 21.980,21.327 21.964,21.492 21.867 C 21.968 21.587,22.139 20.967,21.865 20.508 C 21.810 20.416,17.665 16.243,12.653 11.235 C 4.231 2.820,3.525 2.125,3.343 2.065 C 3.107 1.987,2.874 1.986,2.670 2.061 M8.695 4.057 C 8.465 4.129,8.256 4.299,8.128 4.516 C 8.037 4.672,8.020 4.746,8.020 5.000 C 8.020 5.256,8.036 5.328,8.131 5.489 C 8.256 5.702,8.449 5.864,8.670 5.943 C 8.792 5.987,9.771 5.997,13.963 5.998 C 19.717 6.000,19.369 5.983,19.679 6.283 C 20.005 6.600,19.978 6.102,20.000 12.023 L 20.020 17.306 20.141 17.503 C 20.543 18.156,21.457 18.156,21.859 17.503 L 21.980 17.306 21.980 11.883 L 21.980 6.460 21.886 6.160 C 21.581 5.182,20.832 4.428,19.861 4.121 L 19.540 4.020 14.200 4.012 C 9.900 4.006,8.828 4.015,8.695 4.057 M5.920 7.340 L 7.180 8.600 6.969 8.803 C 6.527 9.227,6.288 9.605,6.114 10.161 L 6.020 10.460 6.020 12.883 L 6.020 15.306 6.141 15.503 C 6.543 16.156,7.457 16.156,7.859 15.503 C 7.979 15.308,7.980 15.300,7.993 14.653 L 8.007 14.000 9.000 14.000 L 9.993 14.000 10.007 14.653 C 10.020 15.300,10.021 15.308,10.141 15.503 C 10.543 16.156,11.457 16.156,11.859 15.503 L 11.980 15.307 12.000 14.373 L 12.020 13.439 14.300 15.720 L 16.580 18.001 10.640 17.990 L 4.700 17.980 4.516 17.872 C 4.415 17.813,4.284 17.700,4.225 17.623 C 3.988 17.312,4.000 17.608,4.000 12.021 C 4.000 6.525,3.995 6.674,4.198 6.412 C 4.298 6.283,4.554 6.080,4.617 6.080 C 4.641 6.080,5.227 6.647,5.920 7.340 M16.695 8.057 C 16.466 8.129,16.256 8.299,16.128 8.516 L 16.020 8.700 16.008 9.930 C 15.996 11.142,15.994 11.160,15.913 11.160 C 15.782 11.160,15.449 11.360,15.338 11.506 C 14.942 12.025,15.095 12.681,15.694 13.040 C 15.779 13.090,15.908 13.224,15.980 13.338 C 16.126 13.566,16.366 13.798,16.568 13.907 C 16.661 13.957,16.789 13.979,17.000 13.979 C 17.258 13.980,17.327 13.964,17.492 13.867 C 17.711 13.739,17.901 13.498,17.961 13.275 C 17.988 13.176,17.999 12.337,17.991 10.911 L 17.980 8.700 17.872 8.516 C 17.628 8.101,17.150 7.915,16.695 8.057 M9.330 10.750 L 10.000 11.419 10.000 11.710 L 10.000 12.000 9.000 12.000 L 8.000 12.000 8.000 11.446 C 8.000 10.853,8.047 10.607,8.198 10.412 C 8.297 10.283,8.554 10.080,8.617 10.080 C 8.640 10.080,8.961 10.381,9.330 10.750 " stroke="none" fill-rule="evenodd" fill="black"></path></svg>