<svg xmlns="http://www.w3.org/2000/svg" width="24" height="24" viewBox="0 0 24 24" fill="none" stroke="currentColor" stroke-width="2" stroke-linecap="round" stroke-linejoin="round"><path d="M4.499 4.043 C 3.380 4.232,2.461 5.048,2.114 6.160 L 2.020 6.460 2.020 12.000 L 2.020 17.540 2.114 17.840 C 2.422 18.827,3.173 19.578,4.160 19.886 L 4.460 19.980 12.000 19.980 L 19.540 19.980 19.840 19.886 C 20.827 19.578,21.578 18.827,21.886 17.840 L 21.980 17.540 21.980 12.000 L 21.980 6.460 21.886 6.160 C 21.581 5.182,20.832 4.428,19.861 4.121 L 19.540 4.020 12.120 4.014 C 8.039 4.011,4.609 4.024,4.499 4.043 M19.310 6.061 C 19.589 6.144,19.856 6.411,19.939 6.690 C 19.992 6.868,20.000 7.546,20.000 12.001 C 20.000 16.212,19.990 17.139,19.945 17.290 C 19.872 17.533,19.707 17.740,19.484 17.872 L 19.300 17.980 12.000 17.980 L 4.700 17.980 4.516 17.872 C 4.303 17.747,4.141 17.550,4.058 17.316 C 3.969 17.061,3.971 6.993,4.061 6.690 C 4.140 6.421,4.412 6.143,4.673 6.063 C 4.964 5.974,19.009 5.971,19.310 6.061 M8.499 8.040 C 7.363 8.246,6.461 9.048,6.114 10.160 L 6.020 10.460 6.020 12.883 L 6.020 15.306 6.141 15.503 C 6.543 16.156,7.457 16.156,7.859 15.503 C 7.979 15.308,7.980 15.300,7.993 14.653 L 8.007 14.000 9.000 14.000 L 9.993 14.000 10.007 14.653 C 10.020 15.300,10.021 15.308,10.141 15.503 C 10.543 16.156,11.457 16.156,11.859 15.503 L 11.980 15.306 11.980 12.883 L 11.980 10.460 11.886 10.160 C 11.580 9.178,10.810 8.407,9.861 8.129 C 9.500 8.023,8.832 7.980,8.499 8.040 M16.695 8.057 C 16.466 8.129,16.256 8.299,16.128 8.516 L 16.020 8.700 16.008 9.867 L 15.996 11.035 15.648 11.013 C 14.759 10.959,13.911 11.383,13.409 12.134 C 13.112 12.578,13.019 12.909,13.022 13.520 C 13.024 13.960,13.038 14.056,13.133 14.320 C 13.393 15.038,13.959 15.604,14.680 15.869 L 14.980 15.980 16.140 15.980 L 17.300 15.980 17.492 15.867 C 17.710 15.739,17.901 15.498,17.961 15.276 C 17.988 15.177,17.998 14.005,17.991 11.912 L 17.980 8.700 17.872 8.516 C 17.628 8.101,17.150 7.915,16.695 8.057 M9.310 10.061 C 9.452 10.103,9.571 10.178,9.697 10.303 C 9.948 10.554,10.000 10.751,10.000 11.447 L 10.000 12.000 9.000 12.000 L 8.000 12.000 8.000 11.447 C 8.000 10.750,8.052 10.554,8.304 10.303 C 8.583 10.024,8.916 9.944,9.310 10.061 M15.724 13.062 C 15.925 13.166,16.000 13.336,16.000 13.690 L 16.000 14.000 15.698 14.000 C 15.348 14.000,15.194 13.937,15.078 13.748 C 14.935 13.513,15.009 13.226,15.252 13.078 C 15.406 12.984,15.563 12.979,15.724 13.062 " stroke="none" fill-rule="evenodd" fill="black"></path></svg>