<svg xmlns="http://www.w3.org/2000/svg" width="24" height="24" viewBox="0 0 24 24" fill="none" stroke="currentColor" stroke-width="2" stroke-linecap="round" stroke-linejoin="round"><path d="M5.695 3.057 C 5.466 3.129,5.256 3.299,5.128 3.516 L 5.020 3.700 5.000 5.427 L 4.980 7.153 4.660 7.317 C 3.919 7.698,3.363 8.360,3.114 9.160 C 2.979 9.594,2.979 10.406,3.114 10.840 C 3.363 11.640,3.928 12.314,4.660 12.684 L 4.980 12.845 5.000 16.576 L 5.020 20.306 5.141 20.503 C 5.543 21.156,6.457 21.156,6.859 20.503 L 6.980 20.306 7.000 16.576 L 7.020 12.845 7.340 12.684 C 8.072 12.314,8.637 11.640,8.886 10.840 C 9.021 10.406,9.021 9.594,8.886 9.160 C 8.637 8.360,8.081 7.698,7.340 7.317 L 7.020 7.153 7.000 5.427 L 6.980 3.700 6.872 3.516 C 6.628 3.101,6.150 2.915,5.695 3.057 M11.695 3.057 C 11.466 3.129,11.256 3.299,11.128 3.516 L 11.020 3.700 11.009 8.426 L 10.999 13.152 10.669 13.315 C 9.946 13.674,9.392 14.317,9.132 15.100 C 9.038 15.381,9.025 15.486,9.023 15.960 C 9.019 16.908,9.238 17.444,9.897 18.101 C 10.228 18.430,10.362 18.534,10.647 18.677 L 10.994 18.852 11.007 19.579 L 11.020 20.307 11.141 20.503 C 11.543 21.156,12.457 21.156,12.859 20.503 L 12.980 20.306 12.992 19.065 C 13.006 17.690,12.995 17.614,12.749 17.333 C 12.573 17.133,12.347 17.033,11.988 16.997 C 11.463 16.943,11.139 16.678,11.036 16.217 C 10.867 15.464,11.583 14.815,12.315 15.058 C 12.609 15.156,12.834 15.392,12.973 15.748 C 13.151 16.203,13.472 16.442,13.920 16.451 C 14.461 16.462,14.920 16.007,14.920 15.459 C 14.920 14.941,14.440 14.096,13.916 13.692 C 13.669 13.502,13.236 13.251,13.096 13.215 L 13.001 13.192 12.991 8.446 L 12.980 3.700 12.872 3.516 C 12.628 3.101,12.150 2.915,11.695 3.057 M17.695 3.057 C 17.314 3.176,17.048 3.510,17.011 3.915 L 16.990 4.150 16.665 4.316 C 15.922 4.693,15.364 5.357,15.114 6.160 C 14.979 6.594,14.979 7.406,15.114 7.840 C 15.363 8.640,15.928 9.314,16.660 9.684 L 16.980 9.845 17.000 11.076 L 17.020 12.307 17.141 12.503 C 17.209 12.613,17.346 12.756,17.452 12.828 C 17.923 13.144,18.554 12.999,18.859 12.503 L 18.980 12.307 19.000 11.076 L 19.020 9.845 19.340 9.684 C 20.072 9.314,20.637 8.640,20.886 7.840 C 21.021 7.406,21.021 6.594,20.886 6.160 C 20.636 5.357,20.078 4.693,19.335 4.316 L 19.010 4.150 18.989 3.915 C 18.931 3.275,18.311 2.864,17.695 3.057 M18.310 6.061 C 18.688 6.173,19.000 6.598,19.000 7.001 C 19.000 7.331,18.784 7.696,18.484 7.872 C 18.328 7.963,18.254 7.980,18.000 7.980 C 17.746 7.980,17.672 7.963,17.516 7.872 C 16.935 7.530,16.833 6.774,17.304 6.303 C 17.583 6.024,17.916 5.944,18.310 6.061 M6.310 9.061 C 6.688 9.173,7.000 9.598,7.000 10.001 C 7.000 10.331,6.784 10.696,6.484 10.872 C 6.328 10.963,6.254 10.980,6.000 10.980 C 5.746 10.980,5.672 10.963,5.516 10.872 C 4.935 10.530,4.833 9.774,5.304 9.303 C 5.583 9.024,5.916 8.944,6.310 9.061 M18.580 15.096 C 18.424 15.171,18.029 15.545,16.774 16.806 C 15.891 17.694,15.135 18.483,15.095 18.560 C 15.043 18.659,15.021 18.788,15.021 19.000 C 15.020 19.258,15.036 19.327,15.133 19.492 C 15.263 19.714,15.502 19.901,15.736 19.965 C 15.939 20.019,16.267 19.989,16.445 19.899 C 16.519 19.861,16.899 19.514,17.289 19.128 L 17.997 18.426 18.009 20.366 L 18.020 22.306 18.141 22.503 C 18.543 23.156,19.457 23.156,19.859 22.503 L 19.980 22.306 19.991 20.366 L 20.003 18.426 20.711 19.128 C 21.101 19.514,21.483 19.864,21.560 19.904 C 21.660 19.957,21.787 19.979,22.000 19.979 C 22.258 19.980,22.327 19.964,22.492 19.867 C 22.714 19.737,22.901 19.498,22.965 19.264 C 23.019 19.061,22.989 18.733,22.899 18.555 C 22.862 18.481,22.109 17.694,21.226 16.806 C 19.472 15.043,19.420 15.001,19.000 15.001 C 18.851 15.001,18.716 15.031,18.580 15.096 " stroke="none" fill-rule="evenodd" fill="black"></path></svg>