<svg xmlns="http://www.w3.org/2000/svg" width="24" height="24" viewBox="0 0 24 24" fill="none" stroke="currentColor" stroke-width="2" stroke-linecap="round" stroke-linejoin="round"><path d="M5.695 3.057 C 5.466 3.129,5.256 3.299,5.128 3.516 L 5.020 3.700 5.000 5.427 L 4.980 7.153 4.660 7.317 C 3.919 7.698,3.363 8.360,3.114 9.160 C 2.979 9.594,2.979 10.406,3.114 10.840 C 3.363 11.640,3.928 12.314,4.660 12.684 L 4.980 12.845 5.000 16.576 L 5.020 20.306 5.141 20.503 C 5.543 21.156,6.457 21.156,6.859 20.503 L 6.980 20.306 7.000 16.576 L 7.020 12.845 7.340 12.684 C 8.072 12.314,8.637 11.640,8.886 10.840 C 9.021 10.406,9.021 9.594,8.886 9.160 C 8.637 8.360,8.081 7.698,7.340 7.317 L 7.020 7.153 7.000 5.427 L 6.980 3.700 6.872 3.516 C 6.628 3.101,6.150 2.915,5.695 3.057 M11.695 3.057 C 11.466 3.129,11.256 3.299,11.128 3.516 L 11.020 3.700 11.009 8.433 L 10.999 13.165 10.809 13.248 C 10.256 13.491,9.695 13.988,9.409 14.491 C 8.738 15.669,8.929 17.160,9.872 18.103 C 10.136 18.367,10.479 18.609,10.780 18.742 L 10.994 18.836 11.007 19.571 L 11.020 20.307 11.141 20.503 C 11.543 21.156,12.457 21.156,12.859 20.503 L 12.980 20.306 12.992 19.065 C 13.006 17.690,12.995 17.614,12.749 17.333 C 12.573 17.133,12.347 17.033,11.988 16.997 C 11.500 16.947,11.206 16.734,11.061 16.322 C 10.838 15.691,11.329 15.000,12.001 15.000 C 12.196 15.000,12.372 15.063,12.645 15.228 C 13.380 15.676,14.275 15.133,14.188 14.293 C 14.145 13.874,13.897 13.600,13.291 13.298 L 13.001 13.154 12.991 8.427 L 12.980 3.700 12.872 3.516 C 12.628 3.101,12.150 2.915,11.695 3.057 M17.695 3.057 C 17.314 3.176,17.048 3.510,17.011 3.915 L 16.990 4.150 16.665 4.316 C 15.922 4.693,15.364 5.357,15.114 6.160 C 14.979 6.594,14.979 7.406,15.114 7.840 C 15.365 8.645,15.931 9.318,16.670 9.688 L 17.000 9.853 17.000 10.777 C 17.001 11.664,17.004 11.708,17.095 11.900 C 17.276 12.281,17.595 12.488,18.000 12.488 C 18.405 12.488,18.724 12.281,18.905 11.900 C 18.996 11.708,18.999 11.664,19.000 10.777 L 19.000 9.853 19.330 9.688 C 20.069 9.318,20.635 8.645,20.886 7.840 C 21.021 7.406,21.021 6.594,20.886 6.160 C 20.636 5.357,20.078 4.693,19.335 4.316 L 19.010 4.150 18.989 3.915 C 18.931 3.275,18.311 2.864,17.695 3.057 M18.310 6.061 C 18.688 6.173,19.000 6.598,19.000 7.001 C 19.000 7.331,18.784 7.696,18.484 7.872 C 18.328 7.963,18.254 7.980,18.000 7.980 C 17.746 7.980,17.672 7.963,17.516 7.872 C 16.935 7.530,16.833 6.774,17.304 6.303 C 17.583 6.024,17.916 5.944,18.310 6.061 M6.310 9.061 C 6.688 9.173,7.000 9.598,7.000 10.001 C 7.000 10.331,6.784 10.696,6.484 10.872 C 6.328 10.963,6.254 10.980,6.000 10.980 C 5.746 10.980,5.672 10.963,5.516 10.872 C 4.935 10.530,4.833 9.774,5.304 9.303 C 5.583 9.024,5.916 8.944,6.310 9.061 M18.617 14.577 C 18.415 14.665,18.193 14.886,18.094 15.100 C 18.015 15.270,18.001 15.364,18.000 15.724 L 18.000 16.148 17.708 16.292 C 17.548 16.371,17.334 16.499,17.233 16.576 L 17.050 16.716 16.664 16.503 C 16.211 16.253,15.998 16.209,15.686 16.302 C 15.161 16.458,14.862 17.002,15.014 17.526 C 15.098 17.815,15.269 17.998,15.677 18.238 L 16.014 18.436 16.017 19.002 L 16.020 19.567 15.649 19.786 C 15.230 20.032,15.075 20.208,14.999 20.524 C 14.876 21.035,15.183 21.552,15.700 21.702 C 16.043 21.802,16.254 21.745,16.876 21.388 L 17.053 21.286 17.235 21.425 C 17.335 21.501,17.548 21.629,17.708 21.708 L 18.000 21.852 18.000 22.276 C 18.001 22.638,18.015 22.729,18.095 22.900 C 18.276 23.281,18.595 23.488,19.000 23.488 C 19.405 23.488,19.724 23.281,19.905 22.900 C 19.986 22.729,19.999 22.639,20.000 22.274 L 20.000 21.848 20.269 21.721 C 20.418 21.652,20.633 21.524,20.749 21.437 L 20.959 21.278 21.120 21.380 C 21.666 21.725,21.988 21.810,22.323 21.699 C 22.828 21.531,23.121 21.024,23.001 20.524 C 22.926 20.210,22.771 20.034,22.352 19.784 L 21.980 19.562 21.983 18.999 L 21.986 18.436 22.323 18.238 C 22.731 17.998,22.902 17.815,22.986 17.526 C 23.138 17.002,22.839 16.458,22.314 16.302 C 22.002 16.209,21.789 16.253,21.336 16.503 L 20.950 16.716 20.767 16.576 C 20.666 16.499,20.452 16.371,20.292 16.292 L 20.000 16.148 20.000 15.724 C 19.999 15.362,19.985 15.271,19.905 15.100 C 19.793 14.865,19.599 14.669,19.391 14.582 C 19.210 14.506,18.785 14.503,18.617 14.577 M19.260 18.044 C 19.497 18.107,19.701 18.263,19.849 18.494 C 19.968 18.679,19.980 18.727,19.980 19.003 C 19.980 19.287,19.970 19.322,19.831 19.531 C 19.613 19.859,19.389 19.980,19.000 19.979 C 18.665 19.978,18.526 19.923,18.308 19.705 C 18.104 19.501,18.022 19.300,18.022 19.000 C 18.022 18.334,18.621 17.871,19.260 18.044 " stroke="none" fill-rule="evenodd" fill="black"></path></svg>