<svg xmlns="http://www.w3.org/2000/svg" width="24" height="24" viewBox="0 0 24 24" fill="none" stroke="currentColor" stroke-width="2" stroke-linecap="round" stroke-linejoin="round"><path d="M5.695 3.057 C 5.466 3.129,5.256 3.299,5.128 3.516 L 5.020 3.700 5.000 5.427 L 4.980 7.153 4.660 7.317 C 3.919 7.698,3.363 8.360,3.114 9.160 C 2.979 9.594,2.979 10.406,3.114 10.840 C 3.363 11.640,3.928 12.314,4.660 12.684 L 4.980 12.845 5.000 16.576 L 5.020 20.306 5.141 20.503 C 5.543 21.156,6.457 21.156,6.859 20.503 L 6.980 20.306 7.000 16.576 L 7.020 12.845 7.340 12.684 C 8.072 12.314,8.637 11.640,8.886 10.840 C 9.021 10.406,9.021 9.594,8.886 9.160 C 8.637 8.360,8.081 7.698,7.340 7.317 L 7.020 7.153 7.000 5.427 L 6.980 3.700 6.872 3.516 C 6.628 3.101,6.150 2.915,5.695 3.057 M11.695 3.057 C 11.466 3.129,11.256 3.299,11.128 3.516 L 11.020 3.700 11.009 8.433 L 10.999 13.165 10.809 13.248 C 10.131 13.546,9.496 14.194,9.223 14.865 C 8.907 15.641,8.936 16.546,9.301 17.304 C 9.646 18.022,10.396 18.682,11.008 18.804 C 11.432 18.890,11.888 18.656,12.083 18.254 C 12.292 17.823,12.138 17.268,11.739 17.013 C 11.207 16.672,11.053 16.481,11.011 16.107 C 10.941 15.491,11.504 14.935,12.112 15.019 C 12.504 15.073,12.661 15.198,13.016 15.740 C 13.284 16.148,13.810 16.282,14.267 16.058 C 14.525 15.932,14.694 15.721,14.783 15.415 C 14.857 15.160,14.833 14.990,14.675 14.654 C 14.412 14.093,13.887 13.583,13.294 13.312 L 13.004 13.180 12.992 8.440 L 12.980 3.700 12.872 3.516 C 12.628 3.101,12.150 2.915,11.695 3.057 M17.695 3.057 C 17.314 3.176,17.048 3.510,17.011 3.915 L 16.990 4.150 16.665 4.316 C 15.922 4.693,15.364 5.357,15.114 6.160 C 14.979 6.594,14.979 7.406,15.114 7.840 C 15.363 8.640,15.928 9.314,16.660 9.684 L 16.980 9.845 17.000 12.076 L 17.020 14.306 17.141 14.503 C 17.543 15.156,18.457 15.156,18.859 14.503 L 18.980 14.306 19.000 12.076 L 19.020 9.845 19.340 9.684 C 20.072 9.314,20.637 8.640,20.886 7.840 C 21.021 7.406,21.021 6.594,20.886 6.160 C 20.636 5.357,20.078 4.693,19.335 4.316 L 19.010 4.150 18.989 3.915 C 18.931 3.275,18.311 2.864,17.695 3.057 M18.310 6.061 C 18.688 6.173,19.000 6.598,19.000 7.001 C 19.000 7.331,18.784 7.696,18.484 7.872 C 18.328 7.963,18.254 7.980,18.000 7.980 C 17.746 7.980,17.672 7.963,17.516 7.872 C 16.935 7.530,16.833 6.774,17.304 6.303 C 17.583 6.024,17.916 5.944,18.310 6.061 M6.310 9.061 C 6.688 9.173,7.000 9.598,7.000 10.001 C 7.000 10.331,6.784 10.696,6.484 10.872 C 6.328 10.963,6.254 10.980,6.000 10.980 C 5.746 10.980,5.672 10.963,5.516 10.872 C 4.935 10.530,4.833 9.774,5.304 9.303 C 5.583 9.024,5.916 8.944,6.310 9.061 M20.640 16.068 C 20.488 16.121,20.196 16.394,18.731 17.853 L 17.002 19.575 16.271 18.855 C 15.655 18.247,15.509 18.123,15.343 18.067 C 14.865 17.905,14.383 18.083,14.128 18.516 C 14.036 18.672,14.020 18.745,14.021 19.000 C 14.021 19.213,14.043 19.341,14.095 19.440 C 14.197 19.633,16.297 21.740,16.520 21.873 C 16.673 21.964,16.745 21.980,17.000 21.979 C 17.212 21.979,17.341 21.957,17.440 21.905 C 17.632 21.805,21.739 17.705,21.873 17.480 C 21.964 17.328,21.980 17.254,21.980 17.000 C 21.980 16.746,21.963 16.672,21.872 16.516 C 21.617 16.083,21.121 15.903,20.640 16.068 " stroke="none" fill-rule="evenodd" fill="black"></path></svg>