<svg xmlns="http://www.w3.org/2000/svg" width="24" height="24" viewBox="0 0 24 24" fill="none" stroke="currentColor" stroke-width="2" stroke-linecap="round" stroke-linejoin="round"><path d="M5.695 3.057 C 5.466 3.129,5.256 3.299,5.128 3.516 L 5.020 3.700 5.000 5.427 L 4.980 7.153 4.660 7.317 C 3.919 7.698,3.363 8.360,3.114 9.160 C 2.979 9.594,2.979 10.406,3.114 10.840 C 3.363 11.640,3.928 12.314,4.660 12.684 L 4.980 12.845 5.000 16.576 L 5.020 20.306 5.141 20.503 C 5.543 21.156,6.457 21.156,6.859 20.503 L 6.980 20.306 7.000 16.576 L 7.020 12.845 7.340 12.684 C 8.072 12.314,8.637 11.640,8.886 10.840 C 9.021 10.406,9.021 9.594,8.886 9.160 C 8.637 8.360,8.081 7.698,7.340 7.317 L 7.020 7.153 7.000 5.427 L 6.980 3.700 6.872 3.516 C 6.628 3.101,6.150 2.915,5.695 3.057 M11.695 3.057 C 11.466 3.129,11.256 3.299,11.128 3.516 L 11.020 3.700 11.009 8.431 L 10.999 13.162 10.782 13.257 C 10.099 13.560,9.475 14.217,9.204 14.920 C 8.985 15.488,8.945 16.194,9.100 16.780 C 9.362 17.774,10.237 18.645,11.226 18.897 C 11.695 19.017,11.981 18.961,12.280 18.693 C 12.509 18.487,12.608 18.263,12.608 17.951 C 12.608 17.492,12.329 17.146,11.838 16.997 C 11.487 16.890,11.255 16.718,11.127 16.471 C 10.763 15.763,11.324 14.916,12.089 15.017 C 12.510 15.073,12.764 15.266,12.939 15.661 C 13.121 16.074,13.451 16.297,13.880 16.298 C 14.328 16.299,14.695 16.026,14.839 15.584 C 14.919 15.340,14.868 15.039,14.683 14.667 C 14.386 14.067,13.954 13.639,13.353 13.348 L 13.006 13.180 12.993 8.440 L 12.980 3.700 12.872 3.516 C 12.628 3.101,12.150 2.915,11.695 3.057 M17.695 3.057 C 17.314 3.176,17.048 3.510,17.011 3.915 L 16.990 4.150 16.665 4.316 C 15.922 4.693,15.364 5.357,15.114 6.160 C 14.979 6.594,14.979 7.406,15.114 7.840 C 15.365 8.645,15.931 9.318,16.670 9.688 L 17.000 9.853 17.000 10.777 C 17.001 11.664,17.004 11.708,17.095 11.900 C 17.276 12.281,17.595 12.488,18.000 12.488 C 18.405 12.488,18.724 12.281,18.905 11.900 C 18.996 11.708,18.999 11.664,19.000 10.777 L 19.000 9.853 19.330 9.688 C 20.069 9.318,20.635 8.645,20.886 7.840 C 21.021 7.406,21.021 6.594,20.886 6.160 C 20.636 5.357,20.078 4.693,19.335 4.316 L 19.010 4.150 18.989 3.915 C 18.931 3.275,18.311 2.864,17.695 3.057 M18.310 6.061 C 18.688 6.173,19.000 6.598,19.000 7.001 C 19.000 7.331,18.784 7.696,18.484 7.872 C 18.328 7.963,18.254 7.980,18.000 7.980 C 17.746 7.980,17.672 7.963,17.516 7.872 C 16.935 7.530,16.833 6.774,17.304 6.303 C 17.583 6.024,17.916 5.944,18.310 6.061 M6.310 9.061 C 6.688 9.173,7.000 9.598,7.000 10.001 C 7.000 10.331,6.784 10.696,6.484 10.872 C 6.328 10.963,6.254 10.980,6.000 10.980 C 5.746 10.980,5.672 10.963,5.516 10.872 C 4.935 10.530,4.833 9.774,5.304 9.303 C 5.583 9.024,5.916 8.944,6.310 9.061 M18.617 14.577 C 18.438 14.655,18.206 14.870,18.123 15.036 C 18.084 15.115,18.011 15.314,17.962 15.478 C 17.609 16.656,16.655 17.611,15.480 17.962 C 15.075 18.083,14.921 18.165,14.752 18.352 C 14.420 18.720,14.420 19.280,14.752 19.648 C 14.920 19.834,15.074 19.917,15.478 20.038 C 16.687 20.400,17.610 21.343,17.987 22.600 C 18.076 22.898,18.131 23.008,18.270 23.163 C 18.672 23.610,19.328 23.610,19.730 23.163 C 19.869 23.008,19.924 22.898,20.013 22.600 C 20.399 21.311,21.311 20.399,22.600 20.013 C 22.898 19.924,23.008 19.869,23.163 19.730 C 23.574 19.360,23.612 18.754,23.248 18.352 C 23.079 18.165,22.925 18.083,22.520 17.962 C 21.314 17.602,20.390 16.658,20.014 15.402 C 19.832 14.793,19.515 14.518,18.997 14.522 C 18.856 14.522,18.685 14.547,18.617 14.577 M19.194 18.057 C 19.373 18.282,19.740 18.644,20.020 18.873 L 20.180 19.004 20.020 19.130 C 19.818 19.288,19.295 19.809,19.127 20.019 L 19.000 20.178 18.873 20.019 C 18.705 19.809,18.182 19.288,17.980 19.130 L 17.820 19.004 17.980 18.873 C 18.260 18.644,18.627 18.282,18.806 18.057 C 18.901 17.938,18.989 17.840,19.000 17.840 C 19.011 17.840,19.099 17.938,19.194 18.057 " stroke="none" fill-rule="evenodd" fill="black"></path></svg>