<svg xmlns="http://www.w3.org/2000/svg" width="24" height="24" viewBox="0 0 24 24" fill="none" stroke="currentColor" stroke-width="2" stroke-linecap="round" stroke-linejoin="round"><path d="M11.773 3.019 C 2.965 4.125,3.496 4.042,3.240 4.352 C 2.969 4.681,2.931 5.162,3.149 5.516 C 3.289 5.743,3.583 5.946,3.823 5.982 C 3.950 6.002,5.035 5.881,7.502 5.572 L 11.000 5.135 11.000 6.066 L 11.000 6.997 8.810 7.009 C 6.637 7.020,6.619 7.021,6.455 7.108 C 5.974 7.366,5.136 8.677,4.703 9.848 C 4.235 11.116,4.001 12.502,4.001 14.000 C 4.001 15.498,4.235 16.884,4.703 18.152 C 5.189 19.469,6.105 20.822,6.600 20.954 C 6.737 20.991,8.022 21.000,12.020 20.991 L 17.260 20.980 17.450 20.886 C 17.928 20.651,18.830 19.252,19.273 18.060 C 19.768 16.728,20.000 15.395,20.000 13.889 C 20.000 12.115,19.689 10.563,19.045 9.120 C 18.640 8.213,18.011 7.306,17.660 7.124 L 17.460 7.020 15.230 7.009 L 13.000 6.997 13.000 5.939 C 13.000 5.356,13.013 4.880,13.030 4.880 C 13.047 4.879,14.693 4.674,16.689 4.424 C 20.122 3.994,20.327 3.964,20.497 3.864 C 21.370 3.353,21.005 1.992,20.000 2.006 C 19.901 2.007,16.199 2.463,11.773 3.019 M11.000 11.000 L 11.000 13.000 8.517 13.000 L 6.034 13.000 6.060 12.770 C 6.210 11.447,6.632 10.173,7.233 9.230 L 7.380 9.001 9.190 9.000 L 11.000 9.000 11.000 11.000 M16.893 9.317 C 17.246 9.910,17.476 10.481,17.675 11.263 C 17.815 11.812,17.904 12.295,17.943 12.710 L 17.970 13.000 15.485 13.000 L 13.000 13.000 13.000 11.000 L 13.000 9.000 14.852 9.000 L 16.705 9.000 16.893 9.317 M17.914 15.270 C 17.857 15.748,17.678 16.526,17.499 17.070 C 17.319 17.617,16.906 18.472,16.658 18.810 L 16.519 19.000 11.950 19.000 L 7.380 18.999 7.233 18.770 C 6.632 17.827,6.210 16.553,6.060 15.230 L 6.034 15.000 11.990 15.000 L 17.946 15.000 17.914 15.270 " stroke="none" fill-rule="evenodd" fill="black"></path></svg>