<svg xmlns="http://www.w3.org/2000/svg" width="24" height="24" viewBox="0 0 24 24" fill="none" stroke="currentColor" stroke-width="2" stroke-linecap="round" stroke-linejoin="round"><path d="M9.499 7.040 C 8.363 7.246,7.461 8.048,7.114 9.160 L 7.020 9.460 7.020 12.883 L 7.020 16.306 7.141 16.503 C 7.543 17.156,8.457 17.156,8.859 16.503 L 8.980 16.307 8.992 15.153 L 9.005 14.000 10.000 14.000 L 10.995 14.000 11.008 15.153 L 11.020 16.307 11.141 16.503 C 11.543 17.156,12.457 17.156,12.859 16.503 L 12.980 16.306 12.980 12.883 L 12.980 9.460 12.886 9.160 C 12.580 8.178,11.810 7.407,10.861 7.129 C 10.500 7.023,9.832 6.980,9.499 7.040 M15.695 7.057 C 15.466 7.129,15.256 7.299,15.128 7.516 L 15.020 7.700 15.020 12.003 L 15.020 16.306 15.141 16.503 C 15.209 16.613,15.346 16.756,15.452 16.828 C 15.923 17.144,16.554 16.999,16.859 16.503 L 16.980 16.306 16.980 12.003 L 16.980 7.700 16.872 7.516 C 16.628 7.101,16.150 6.915,15.695 7.057 M10.310 9.061 C 10.452 9.103,10.571 9.178,10.697 9.303 C 10.978 9.584,11.000 9.703,11.000 10.947 L 11.000 12.000 10.000 12.000 L 9.000 12.000 9.000 10.947 C 9.000 9.702,9.022 9.585,9.304 9.303 C 9.583 9.024,9.916 8.944,10.310 9.061 " stroke="none" fill-rule="evenodd" fill="black"></path></svg>