<svg xmlns="http://www.w3.org/2000/svg" width="24" height="24" viewBox="0 0 24 24" fill="none" stroke="currentColor" stroke-width="2" stroke-linecap="round" stroke-linejoin="round"><path d="M6.667 3.059 C 6.522 3.115,3.783 5.078,3.553 5.291 C 3.273 5.551,3.171 6.074,3.336 6.410 C 3.587 6.925,4.219 7.143,4.705 6.884 C 4.790 6.839,5.507 6.329,6.298 5.751 C 7.888 4.590,7.944 4.535,7.987 4.110 C 8.029 3.712,7.840 3.337,7.497 3.136 C 7.275 3.006,6.898 2.971,6.667 3.059 M16.665 3.059 C 16.433 3.142,16.233 3.323,16.108 3.564 C 16.010 3.753,15.998 3.814,16.013 4.051 C 16.042 4.532,16.066 4.556,17.702 5.751 C 18.493 6.329,19.210 6.839,19.295 6.884 C 19.779 7.142,20.380 6.940,20.649 6.428 C 20.831 6.081,20.738 5.562,20.447 5.291 C 20.189 5.052,17.472 3.114,17.319 3.060 C 17.111 2.986,16.870 2.986,16.665 3.059 M11.207 5.043 C 9.656 5.193,8.096 5.846,6.900 6.847 C 5.985 7.612,5.307 8.477,4.800 9.529 C 3.734 11.734,3.735 14.267,4.801 16.474 C 5.225 17.352,5.730 18.049,6.446 18.741 C 7.114 19.389,7.706 19.803,8.529 20.200 C 11.259 21.519,14.467 21.184,16.900 19.326 C 17.239 19.067,17.925 18.394,18.211 18.040 C 20.163 15.625,20.547 12.317,19.200 9.529 C 18.693 8.477,18.015 7.612,17.100 6.847 C 15.483 5.494,13.337 4.837,11.207 5.043 M12.564 7.039 C 14.921 7.269,16.913 8.837,17.671 11.060 C 18.168 12.517,18.068 14.251,17.410 15.580 C 16.550 17.316,15.056 18.478,13.160 18.885 C 12.554 19.015,11.446 19.015,10.840 18.885 C 8.941 18.478,7.451 17.319,6.590 15.580 C 5.932 14.251,5.832 12.517,6.329 11.060 C 6.618 10.212,7.080 9.470,7.731 8.805 C 9.008 7.503,10.757 6.864,12.564 7.039 M12.689 9.059 C 12.474 9.126,12.273 9.278,12.162 9.456 C 12.115 9.532,11.766 10.527,11.385 11.665 L 10.694 13.736 10.209 13.015 C 9.693 12.247,9.563 12.117,9.240 12.043 C 8.969 11.981,7.929 11.989,7.710 12.055 C 7.467 12.128,7.260 12.293,7.128 12.516 C 7.037 12.672,7.020 12.746,7.020 13.000 C 7.020 13.256,7.036 13.328,7.131 13.489 C 7.343 13.849,7.634 13.995,8.144 13.998 L 8.467 14.000 9.364 15.346 C 9.857 16.086,10.316 16.734,10.384 16.786 C 10.817 17.116,11.464 17.037,11.789 16.613 C 11.868 16.509,12.101 15.865,12.603 14.366 L 13.307 12.264 13.789 12.982 C 14.283 13.716,14.400 13.841,14.687 13.942 C 14.907 14.020,16.113 14.020,16.330 13.943 C 16.551 13.864,16.744 13.702,16.869 13.489 C 16.964 13.328,16.980 13.256,16.980 13.000 C 16.980 12.746,16.963 12.672,16.872 12.516 C 16.664 12.162,16.334 12.000,15.820 12.000 L 15.533 12.000 14.636 10.654 C 14.143 9.914,13.685 9.267,13.617 9.215 C 13.352 9.013,13.017 8.956,12.689 9.059 " stroke="none" fill-rule="evenodd" fill="black"></path></svg>