<svg xmlns="http://www.w3.org/2000/svg" width="24" height="24" viewBox="0 0 24 24" fill="none" stroke="currentColor" stroke-width="2" stroke-linecap="round" stroke-linejoin="round"><path d="M6.667 3.059 C 6.522 3.115,3.783 5.078,3.553 5.291 C 3.273 5.551,3.171 6.074,3.336 6.410 C 3.587 6.925,4.219 7.143,4.705 6.884 C 4.790 6.839,5.507 6.329,6.298 5.751 C 7.888 4.590,7.944 4.535,7.987 4.110 C 8.029 3.712,7.840 3.337,7.497 3.136 C 7.275 3.006,6.898 2.971,6.667 3.059 M16.665 3.059 C 16.433 3.142,16.233 3.323,16.108 3.564 C 16.010 3.753,15.998 3.814,16.013 4.051 C 16.042 4.532,16.066 4.556,17.702 5.751 C 18.493 6.329,19.210 6.839,19.295 6.884 C 19.779 7.142,20.380 6.940,20.649 6.428 C 20.831 6.081,20.738 5.562,20.447 5.291 C 20.189 5.052,17.472 3.114,17.319 3.060 C 17.111 2.986,16.870 2.986,16.665 3.059 M11.207 5.043 C 9.656 5.193,8.096 5.846,6.900 6.847 C 5.985 7.612,5.307 8.477,4.800 9.529 C 3.734 11.734,3.735 14.267,4.801 16.474 C 5.225 17.352,5.730 18.049,6.446 18.741 C 7.114 19.389,7.706 19.803,8.529 20.200 C 11.259 21.519,14.467 21.184,16.900 19.326 C 17.239 19.067,17.925 18.394,18.211 18.040 C 20.163 15.625,20.547 12.317,19.200 9.529 C 18.693 8.477,18.015 7.612,17.100 6.847 C 15.483 5.494,13.337 4.837,11.207 5.043 M12.564 7.039 C 14.921 7.269,16.913 8.837,17.671 11.060 C 18.168 12.517,18.068 14.251,17.410 15.580 C 16.550 17.316,15.056 18.478,13.160 18.885 C 12.554 19.015,11.446 19.015,10.840 18.885 C 8.941 18.478,7.451 17.319,6.590 15.580 C 5.932 14.251,5.832 12.517,6.329 11.060 C 6.618 10.212,7.080 9.470,7.731 8.805 C 9.008 7.503,10.757 6.864,12.564 7.039 M11.695 10.057 C 11.466 10.129,11.256 10.299,11.128 10.516 C 11.025 10.692,11.019 10.728,11.007 11.350 L 10.993 12.000 10.443 12.000 C 9.648 12.000,9.366 12.111,9.128 12.516 C 9.037 12.672,9.020 12.746,9.020 13.000 C 9.020 13.256,9.036 13.328,9.131 13.489 C 9.256 13.702,9.449 13.864,9.670 13.943 C 9.768 13.978,10.022 13.997,10.407 13.998 L 10.993 14.000 11.007 14.653 C 11.020 15.300,11.021 15.308,11.141 15.503 C 11.209 15.613,11.346 15.756,11.452 15.828 C 11.923 16.144,12.554 15.999,12.859 15.503 C 12.979 15.308,12.980 15.300,12.993 14.653 L 13.007 14.000 13.593 13.998 C 13.978 13.997,14.232 13.978,14.330 13.943 C 14.551 13.864,14.744 13.702,14.869 13.489 C 14.964 13.328,14.980 13.256,14.980 13.000 C 14.980 12.746,14.963 12.672,14.872 12.516 C 14.634 12.111,14.352 12.000,13.557 12.000 L 13.007 12.000 12.993 11.350 C 12.981 10.728,12.975 10.692,12.872 10.516 C 12.628 10.101,12.150 9.915,11.695 10.057 " stroke="none" fill-rule="evenodd" fill="black"></path></svg>