<svg xmlns="http://www.w3.org/2000/svg" width="24" height="24" viewBox="0 0 24 24" fill="none" stroke="currentColor" stroke-width="2" stroke-linecap="round" stroke-linejoin="round"><path d="M11.360 1.744 C 11.034 1.813,10.452 2.100,10.150 2.339 C 10.024 2.439,9.841 2.622,9.744 2.746 C 9.537 3.009,8.492 4.734,8.392 4.976 C 8.136 5.598,8.633 6.321,9.318 6.320 C 9.589 6.319,9.897 6.187,10.050 6.004 C 10.109 5.935,10.408 5.460,10.715 4.949 C 11.022 4.438,11.324 3.971,11.387 3.912 C 11.724 3.591,12.333 3.606,12.647 3.945 C 12.733 4.039,20.728 17.345,20.899 17.680 C 20.927 17.735,20.969 17.895,20.994 18.035 C 21.077 18.517,21.295 18.804,21.681 18.940 C 22.185 19.118,22.772 18.827,22.942 18.314 C 23.058 17.963,22.961 17.355,22.702 16.820 C 22.528 16.459,14.558 3.163,14.320 2.834 C 13.957 2.334,13.225 1.866,12.607 1.740 C 12.252 1.667,11.711 1.669,11.360 1.744 M2.670 2.061 C 2.448 2.142,2.250 2.309,2.128 2.516 C 2.036 2.672,2.020 2.745,2.021 3.000 C 2.021 3.212,2.043 3.341,2.095 3.440 C 2.135 3.517,3.157 4.571,4.366 5.782 L 6.563 7.984 3.976 12.302 C 2.553 14.677,1.338 16.728,1.276 16.860 C 1.085 17.265,1.021 17.572,1.021 18.080 C 1.021 18.622,1.087 18.912,1.318 19.380 C 1.599 19.949,2.054 20.404,2.620 20.682 C 3.283 21.008,2.441 20.978,11.498 20.991 L 19.577 21.001 19.998 21.415 C 20.522 21.929,20.608 21.978,21.000 21.979 C 21.258 21.980,21.327 21.964,21.492 21.867 C 21.968 21.587,22.139 20.967,21.865 20.508 C 21.810 20.416,17.665 16.243,12.653 11.235 C 4.231 2.820,3.525 2.125,3.343 2.065 C 3.107 1.987,2.874 1.986,2.670 2.061 M11.695 6.057 C 11.466 6.129,11.256 6.299,11.128 6.516 C 11.020 6.699,11.020 6.703,11.020 7.503 L 11.020 8.306 11.141 8.503 C 11.543 9.156,12.457 9.156,12.859 8.503 L 12.980 8.306 12.980 7.503 C 12.980 6.703,12.980 6.699,12.872 6.516 C 12.628 6.101,12.150 5.915,11.695 6.057 M10.695 18.990 C 6.208 18.997,3.778 18.986,3.681 18.960 C 3.149 18.817,2.852 18.193,3.088 17.713 C 3.139 17.611,4.269 15.708,5.600 13.485 L 8.020 9.443 12.790 14.212 L 17.560 18.980 10.695 18.990 M11.695 15.055 C 11.464 15.130,11.255 15.300,11.128 15.516 C 11.037 15.672,11.020 15.746,11.020 16.000 C 11.020 16.257,11.036 16.327,11.133 16.492 C 11.651 17.374,12.998 17.018,12.998 16.000 C 12.998 15.623,12.792 15.281,12.463 15.112 C 12.265 15.010,11.911 14.984,11.695 15.055 " stroke="none" fill-rule="evenodd" fill="black"></path></svg>