<svg xmlns="http://www.w3.org/2000/svg" width="24" height="24" viewBox="0 0 24 24" fill="none" stroke="currentColor" stroke-width="2" stroke-linecap="round" stroke-linejoin="round"><path d="M11.360 1.743 C 10.997 1.820,10.351 2.154,10.057 2.417 C 9.924 2.536,9.724 2.765,9.614 2.927 C 9.333 3.337,1.373 16.642,1.258 16.894 C 1.083 17.275,1.021 17.588,1.021 18.080 C 1.021 18.622,1.087 18.912,1.318 19.380 C 1.603 19.956,2.045 20.398,2.620 20.682 C 3.280 21.007,2.416 20.980,12.000 20.980 C 21.583 20.980,20.719 21.007,21.380 20.682 C 21.947 20.403,22.401 19.949,22.682 19.380 C 22.913 18.912,22.979 18.622,22.979 18.080 C 22.979 17.589,22.917 17.275,22.744 16.897 C 22.629 16.647,14.665 3.334,14.386 2.927 C 14.276 2.765,14.076 2.536,13.943 2.417 C 13.633 2.140,13.002 1.820,12.607 1.739 C 12.252 1.667,11.711 1.669,11.360 1.743 M12.380 3.756 C 12.468 3.797,12.588 3.882,12.647 3.945 C 12.789 4.099,20.880 17.616,20.952 17.820 C 21.108 18.266,20.805 18.829,20.340 18.956 C 20.114 19.018,3.907 19.018,3.663 18.956 C 3.165 18.831,2.862 18.202,3.076 17.740 C 3.207 17.457,11.243 4.064,11.353 3.945 C 11.508 3.778,11.744 3.682,12.000 3.682 C 12.130 3.682,12.286 3.712,12.380 3.756 M11.695 8.057 C 11.466 8.129,11.256 8.299,11.128 8.516 L 11.020 8.700 11.020 11.003 L 11.020 13.306 11.141 13.503 C 11.209 13.613,11.346 13.756,11.452 13.828 C 11.923 14.144,12.554 13.999,12.859 13.503 L 12.980 13.306 12.980 11.003 L 12.980 8.700 12.872 8.516 C 12.628 8.101,12.150 7.915,11.695 8.057 M11.695 15.055 C 11.464 15.130,11.255 15.300,11.128 15.516 C 11.037 15.672,11.020 15.746,11.020 16.000 C 11.020 16.257,11.036 16.327,11.133 16.492 C 11.651 17.374,12.998 17.018,12.998 16.000 C 12.998 15.623,12.792 15.281,12.463 15.112 C 12.265 15.010,11.911 14.984,11.695 15.055 " stroke="none" fill-rule="evenodd" fill="black"></path></svg>