<svg xmlns="http://www.w3.org/2000/svg" width="24" height="24" viewBox="0 0 24 24" fill="none" stroke="currentColor" stroke-width="2" stroke-linecap="round" stroke-linejoin="round"><path d="M11.568 1.043 C 11.230 1.087,10.915 1.181,10.622 1.327 C 10.158 1.558,7.428 3.181,7.313 3.295 C 7.000 3.603,6.926 4.089,7.135 4.466 C 7.374 4.900,7.925 5.116,8.344 4.941 C 8.421 4.909,9.172 4.477,10.012 3.983 C 11.637 3.026,11.769 2.966,12.170 3.014 C 12.278 3.026,12.459 3.080,12.573 3.133 C 12.867 3.269,19.216 7.020,19.473 7.210 C 19.727 7.397,19.900 7.655,19.961 7.935 C 19.992 8.079,20.001 9.286,19.992 11.980 L 19.980 15.820 19.847 16.076 C 19.599 16.550,19.633 16.970,19.947 17.319 C 20.221 17.624,20.562 17.719,20.968 17.604 C 21.264 17.520,21.456 17.326,21.659 16.906 C 22.001 16.196,21.975 16.569,21.991 12.000 C 22.000 9.151,21.991 7.868,21.960 7.700 C 21.807 6.870,21.418 6.209,20.781 5.696 C 20.572 5.528,19.277 4.741,17.041 3.423 C 15.159 2.315,13.548 1.373,13.460 1.330 C 13.200 1.202,12.802 1.087,12.467 1.042 C 12.117 0.995,11.935 0.995,11.568 1.043 M2.670 2.061 C 2.448 2.142,2.250 2.309,2.128 2.516 C 2.036 2.672,2.020 2.745,2.021 3.000 C 2.021 3.213,2.043 3.341,2.095 3.440 C 2.136 3.517,2.549 3.962,3.012 4.429 C 3.476 4.896,3.847 5.285,3.838 5.293 C 3.828 5.301,3.687 5.393,3.523 5.497 C 2.966 5.854,2.582 6.291,2.298 6.892 C 2.004 7.516,2.023 7.205,2.009 11.720 C 1.999 15.327,2.005 15.816,2.062 16.100 C 2.197 16.773,2.552 17.405,3.043 17.852 C 3.266 18.054,4.217 18.675,6.849 20.339 C 8.779 21.559,10.434 22.596,10.527 22.644 C 11.439 23.109,12.561 23.109,13.472 22.644 C 13.564 22.597,14.652 21.918,15.890 21.134 C 17.127 20.351,18.164 19.701,18.193 19.689 C 18.226 19.677,18.680 20.099,19.333 20.750 C 19.931 21.345,20.483 21.864,20.560 21.905 C 20.659 21.957,20.787 21.979,21.000 21.979 C 21.258 21.980,21.327 21.964,21.492 21.867 C 21.968 21.587,22.139 20.967,21.865 20.508 C 21.810 20.416,17.665 16.243,12.653 11.235 C 4.231 2.820,3.525 2.125,3.343 2.065 C 3.107 1.987,2.874 1.986,2.670 2.061 M11.695 6.057 C 11.466 6.129,11.256 6.299,11.128 6.516 C 11.023 6.695,11.020 6.720,11.007 7.436 C 10.996 8.051,11.005 8.200,11.061 8.347 C 11.144 8.566,11.285 8.736,11.497 8.874 C 11.641 8.968,11.700 8.980,12.000 8.980 C 12.300 8.980,12.359 8.968,12.503 8.874 C 12.715 8.736,12.856 8.566,12.939 8.347 C 12.995 8.200,13.004 8.051,12.993 7.436 C 12.980 6.720,12.977 6.695,12.872 6.516 C 12.628 6.101,12.150 5.915,11.695 6.057 M11.058 12.478 C 14.203 15.623,16.768 18.205,16.758 18.214 C 16.656 18.312,12.604 20.838,12.440 20.906 C 12.151 21.027,11.850 21.027,11.560 20.907 C 11.284 20.791,4.519 16.513,4.356 16.350 C 4.290 16.284,4.188 16.138,4.128 16.025 L 4.020 15.820 4.020 11.860 L 4.020 7.900 4.128 7.695 C 4.280 7.408,4.430 7.271,4.895 6.998 C 5.118 6.868,5.309 6.761,5.320 6.760 C 5.331 6.760,7.913 9.333,11.058 12.478 M11.695 15.055 C 11.464 15.130,11.255 15.300,11.128 15.516 C 11.037 15.672,11.020 15.746,11.020 16.000 C 11.020 16.257,11.036 16.327,11.133 16.492 C 11.651 17.374,12.998 17.018,12.998 16.000 C 12.998 15.623,12.792 15.281,12.463 15.112 C 12.265 15.010,11.911 14.984,11.695 15.055 " stroke="none" fill-rule="evenodd" fill="black"></path></svg>