<svg xmlns="http://www.w3.org/2000/svg" width="24" height="24" viewBox="0 0 24 24" fill="none" stroke="currentColor" stroke-width="2" stroke-linecap="round" stroke-linejoin="round"><path d="M2.670 2.061 C 2.448 2.142,2.250 2.309,2.128 2.516 C 2.036 2.672,2.020 2.745,2.021 3.000 C 2.021 3.214,2.043 3.340,2.096 3.440 C 2.136 3.517,2.457 3.870,2.809 4.225 L 3.448 4.871 3.247 5.205 C 2.749 6.037,2.389 7.183,2.205 8.520 C 2.051 9.633,2.021 10.208,2.021 12.000 C 2.021 13.792,2.051 14.367,2.205 15.480 C 2.744 19.396,4.610 21.251,8.560 21.800 C 9.623 21.948,10.220 21.979,12.000 21.979 C 13.780 21.979,14.377 21.948,15.440 21.800 C 16.837 21.606,17.984 21.244,18.834 20.730 L 19.128 20.552 19.774 21.191 C 20.129 21.543,20.483 21.864,20.560 21.904 C 20.660 21.957,20.786 21.979,21.000 21.979 C 21.258 21.980,21.327 21.964,21.492 21.867 C 21.968 21.587,22.139 20.967,21.865 20.508 C 21.810 20.416,17.665 16.243,12.653 11.235 C 4.231 2.820,3.525 2.125,3.343 2.065 C 3.107 1.987,2.874 1.986,2.670 2.061 M10.720 2.027 C 9.648 2.068,8.519 2.186,7.720 2.343 C 7.089 2.466,6.926 2.527,6.739 2.709 C 6.187 3.245,6.419 4.172,7.159 4.387 C 7.375 4.450,7.394 4.449,8.020 4.325 C 9.466 4.039,11.427 3.937,13.500 4.041 C 15.753 4.154,17.147 4.498,18.094 5.174 C 19.261 6.009,19.813 7.584,19.959 10.500 C 20.062 12.566,19.962 14.512,19.676 15.980 C 19.535 16.708,19.543 16.806,19.771 17.145 C 20.023 17.519,20.572 17.673,20.980 17.484 C 21.176 17.393,21.416 17.148,21.494 16.960 C 21.627 16.642,21.819 15.470,21.927 14.320 C 21.996 13.582,21.997 10.451,21.928 9.680 C 21.808 8.345,21.646 7.466,21.361 6.599 C 20.624 4.354,19.222 3.081,16.803 2.459 C 15.433 2.108,13.061 1.939,10.720 2.027 M11.695 6.057 C 11.466 6.129,11.256 6.299,11.128 6.516 C 11.020 6.699,11.020 6.703,11.020 7.503 L 11.020 8.306 11.141 8.503 C 11.543 9.156,12.457 9.156,12.859 8.503 L 12.980 8.306 12.980 7.503 C 12.980 6.703,12.980 6.699,12.872 6.516 C 12.628 6.101,12.150 5.915,11.695 6.057 M11.290 12.710 C 14.782 16.202,17.640 19.074,17.640 19.092 C 17.640 19.139,17.175 19.339,16.741 19.478 C 15.630 19.834,14.114 20.000,11.992 20.000 C 8.139 19.999,6.136 19.439,5.174 18.094 C 4.498 17.147,4.154 15.753,4.041 13.500 C 3.914 10.968,4.098 8.584,4.521 7.264 C 4.654 6.849,4.864 6.360,4.910 6.360 C 4.927 6.360,7.797 9.217,11.290 12.710 M11.695 15.055 C 11.464 15.130,11.255 15.300,11.128 15.516 C 11.037 15.672,11.020 15.746,11.020 16.000 C 11.020 16.257,11.036 16.327,11.133 16.492 C 11.651 17.374,12.998 17.018,12.998 16.000 C 12.998 15.623,12.792 15.281,12.463 15.112 C 12.265 15.010,11.911 14.984,11.695 15.055 " stroke="none" fill-rule="evenodd" fill="black"></path></svg>