<svg xmlns="http://www.w3.org/2000/svg" width="24" height="24" viewBox="0 0 24 24" fill="none" stroke="currentColor" stroke-width="2" stroke-linecap="round" stroke-linejoin="round"><path d="M2.670 2.061 C 2.448 2.142,2.250 2.309,2.128 2.516 C 2.036 2.672,2.020 2.745,2.021 3.000 C 2.021 3.213,2.043 3.341,2.095 3.440 C 2.136 3.517,2.637 4.050,3.208 4.625 L 4.248 5.670 3.965 6.051 C 2.994 7.360,2.351 8.921,2.093 10.600 C 1.994 11.247,1.994 12.757,2.094 13.400 C 2.377 15.224,3.075 16.839,4.186 18.240 C 4.531 18.676,5.364 19.505,5.792 19.840 C 6.367 20.289,6.918 20.634,7.580 20.959 C 8.564 21.441,9.517 21.740,10.600 21.907 C 11.244 22.006,12.756 22.006,13.400 21.907 C 15.079 21.649,16.640 21.006,17.949 20.035 L 18.330 19.752 19.375 20.792 C 19.950 21.363,20.483 21.864,20.560 21.905 C 20.659 21.957,20.787 21.979,21.000 21.979 C 21.258 21.980,21.327 21.964,21.492 21.867 C 21.968 21.587,22.139 20.967,21.865 20.508 C 21.810 20.416,17.665 16.243,12.653 11.235 C 4.231 2.820,3.525 2.125,3.343 2.065 C 3.107 1.987,2.874 1.986,2.670 2.061 M11.100 2.043 C 9.933 2.153,8.750 2.478,7.713 2.974 C 7.275 3.184,7.112 3.343,7.019 3.657 C 6.947 3.898,6.947 4.053,7.018 4.252 C 7.108 4.505,7.272 4.703,7.492 4.824 C 7.663 4.918,7.747 4.939,7.960 4.937 C 8.184 4.936,8.279 4.909,8.640 4.743 C 10.549 3.869,12.590 3.765,14.604 4.438 C 15.952 4.889,17.262 5.801,18.201 6.943 C 19.759 8.838,20.363 11.501,19.775 13.880 C 19.649 14.390,19.533 14.721,19.278 15.302 C 19.041 15.842,19.011 16.000,19.094 16.286 C 19.271 16.893,19.927 17.182,20.497 16.903 C 20.761 16.774,20.867 16.646,21.063 16.218 C 22.652 12.760,22.190 8.817,19.844 5.800 C 19.496 5.352,18.714 4.568,18.240 4.191 C 16.827 3.067,15.111 2.333,13.345 2.097 C 12.779 2.022,11.619 1.994,11.100 2.043 M11.695 6.057 C 11.466 6.129,11.256 6.299,11.128 6.516 C 11.020 6.699,11.020 6.703,11.020 7.503 L 11.020 8.306 11.141 8.503 C 11.543 9.156,12.457 9.156,12.859 8.503 L 12.980 8.306 12.980 7.503 C 12.980 6.703,12.980 6.699,12.872 6.516 C 12.628 6.101,12.150 5.915,11.695 6.057 M11.290 12.710 C 14.364 15.784,16.880 18.313,16.880 18.328 C 16.880 18.392,15.945 18.972,15.480 19.197 C 11.539 21.099,6.805 19.486,4.849 15.576 C 4.281 14.440,4.023 13.325,4.023 12.000 C 4.023 10.642,4.286 9.532,4.887 8.352 C 5.091 7.953,5.621 7.120,5.671 7.120 C 5.687 7.120,8.215 9.635,11.290 12.710 M11.695 15.055 C 11.464 15.130,11.255 15.300,11.128 15.516 C 11.037 15.672,11.020 15.746,11.020 16.000 C 11.020 16.257,11.036 16.327,11.133 16.492 C 11.651 17.374,12.998 17.018,12.998 16.000 C 12.998 15.623,12.792 15.281,12.463 15.112 C 12.265 15.010,11.911 14.984,11.695 15.055 " stroke="none" fill-rule="evenodd" fill="black"></path></svg>