<svg xmlns="http://www.w3.org/2000/svg" width="24" height="24" viewBox="0 0 24 24" fill="none" stroke="currentColor" stroke-width="2" stroke-linecap="round" stroke-linejoin="round"><path d="M11.300 2.026 C 10.343 2.084,9.646 2.185,8.900 2.375 C 6.603 2.961,4.801 4.327,3.862 6.195 C 3.443 7.030,3.242 7.735,3.073 8.960 C 2.993 9.541,3.005 11.371,3.093 12.000 C 3.386 14.093,4.042 15.833,5.179 17.540 C 6.118 18.948,7.164 20.004,8.500 20.893 C 9.257 21.396,9.983 21.708,10.812 21.888 C 11.402 22.015,12.597 22.015,13.186 21.888 C 14.037 21.704,14.757 21.393,15.544 20.869 C 18.014 19.223,19.868 16.522,20.619 13.477 C 20.915 12.277,21.023 11.252,20.987 10.000 C 20.913 7.467,20.238 5.758,18.747 4.333 C 17.312 2.961,15.379 2.203,12.900 2.041 C 12.337 2.004,11.763 1.999,11.300 2.026 M12.882 4.042 C 14.546 4.171,15.754 4.565,16.825 5.326 C 17.699 5.947,18.335 6.811,18.661 7.820 C 18.981 8.810,19.080 10.463,18.900 11.820 C 18.507 14.798,16.851 17.560,14.500 19.158 C 13.634 19.746,12.881 20.000,12.000 20.000 C 10.864 20.000,9.880 19.559,8.640 18.493 C 7.321 17.360,6.191 15.668,5.597 13.938 C 5.015 12.243,4.858 10.422,5.143 8.680 C 5.398 7.126,6.118 6.014,7.420 5.162 C 8.770 4.279,10.738 3.875,12.882 4.042 M7.670 10.061 C 7.448 10.142,7.250 10.309,7.128 10.516 C 7.036 10.672,7.020 10.745,7.021 11.000 C 7.021 11.213,7.043 11.341,7.095 11.440 C 7.194 11.627,9.294 13.739,9.508 13.866 C 9.968 14.138,10.587 13.968,10.867 13.492 C 10.964 13.327,10.980 13.257,10.980 13.000 C 10.980 12.747,10.963 12.672,10.873 12.520 C 10.815 12.421,10.266 11.843,9.653 11.236 C 8.680 10.271,8.515 10.124,8.343 10.066 C 8.108 9.987,7.875 9.985,7.670 10.061 M15.640 10.069 C 15.492 10.121,15.265 10.325,14.347 11.236 C 13.734 11.843,13.185 12.421,13.127 12.520 C 13.037 12.672,13.020 12.747,13.020 13.000 C 13.020 13.257,13.036 13.327,13.133 13.492 C 13.413 13.968,14.032 14.138,14.492 13.866 C 14.706 13.739,16.806 11.627,16.905 11.440 C 16.957 11.341,16.979 11.213,16.979 11.000 C 16.980 10.745,16.964 10.672,16.872 10.516 C 16.617 10.083,16.120 9.902,15.640 10.069 M10.643 16.069 C 10.101 16.260,9.852 16.935,10.126 17.469 C 10.264 17.737,10.482 17.886,10.966 18.044 C 11.364 18.175,11.403 18.180,12.000 18.180 C 12.597 18.180,12.636 18.175,13.034 18.044 C 13.518 17.886,13.736 17.737,13.874 17.469 C 14.153 16.926,13.898 16.256,13.340 16.066 C 13.074 15.976,12.904 15.983,12.560 16.100 C 12.363 16.167,12.179 16.200,12.000 16.200 C 11.821 16.200,11.637 16.167,11.440 16.100 C 11.107 15.987,10.899 15.979,10.643 16.069 " stroke="none" fill-rule="evenodd" fill="black"></path></svg>