<svg xmlns="http://www.w3.org/2000/svg" width="24" height="24" viewBox="0 0 24 24" fill="none" stroke="currentColor" stroke-width="2" stroke-linecap="round" stroke-linejoin="round"><path d="M3.695 3.057 C 3.466 3.129,3.256 3.299,3.128 3.516 L 3.020 3.700 3.020 12.003 L 3.020 20.306 3.141 20.503 C 3.543 21.156,4.457 21.156,4.859 20.503 L 4.980 20.306 4.980 12.003 L 4.980 3.700 4.872 3.516 C 4.628 3.101,4.150 2.915,3.695 3.057 M7.695 5.057 C 7.466 5.129,7.256 5.299,7.128 5.516 C 7.037 5.672,7.020 5.746,7.020 6.000 C 7.020 6.256,7.036 6.328,7.131 6.489 C 7.256 6.702,7.449 6.864,7.670 6.943 C 7.892 7.022,20.108 7.022,20.330 6.943 C 20.551 6.864,20.744 6.702,20.869 6.489 C 20.964 6.328,20.980 6.256,20.980 6.000 C 20.980 5.746,20.963 5.672,20.872 5.516 C 20.740 5.293,20.533 5.128,20.290 5.055 C 20.028 4.976,7.947 4.978,7.695 5.057 M7.695 11.057 C 7.466 11.129,7.256 11.299,7.128 11.516 C 7.037 11.672,7.020 11.746,7.020 12.000 C 7.020 12.256,7.036 12.328,7.131 12.489 C 7.256 12.702,7.449 12.864,7.670 12.943 C 7.891 13.022,14.109 13.022,14.330 12.943 C 14.551 12.864,14.744 12.702,14.869 12.489 C 14.964 12.328,14.980 12.256,14.980 12.000 C 14.980 11.746,14.963 11.672,14.872 11.516 C 14.740 11.293,14.533 11.128,14.290 11.055 C 14.030 10.977,7.945 10.979,7.695 11.057 M7.695 17.057 C 7.466 17.129,7.256 17.299,7.128 17.516 C 7.037 17.672,7.020 17.746,7.020 18.000 C 7.020 18.256,7.036 18.328,7.131 18.489 C 7.256 18.702,7.449 18.864,7.670 18.943 C 7.892 19.022,18.108 19.022,18.330 18.943 C 18.551 18.864,18.744 18.702,18.869 18.489 C 18.964 18.328,18.980 18.256,18.980 18.000 C 18.980 17.746,18.963 17.672,18.872 17.516 C 18.740 17.293,18.533 17.128,18.290 17.055 C 18.028 16.976,7.946 16.978,7.695 17.057 " stroke="none" fill-rule="evenodd" fill="black"></path></svg>