<svg xmlns="http://www.w3.org/2000/svg" width="24" height="24" viewBox="0 0 24 24" fill="none" stroke="currentColor" stroke-width="2" stroke-linecap="round" stroke-linejoin="round"><path d="M3.695 5.057 C 3.466 5.129,3.256 5.299,3.128 5.516 C 3.037 5.672,3.020 5.746,3.020 6.000 C 3.020 6.256,3.036 6.328,3.131 6.489 C 3.256 6.702,3.449 6.864,3.670 6.943 C 3.893 7.022,20.107 7.022,20.330 6.943 C 20.551 6.864,20.744 6.702,20.869 6.489 C 20.964 6.328,20.980 6.256,20.980 6.000 C 20.980 5.746,20.963 5.672,20.872 5.516 C 20.740 5.293,20.533 5.128,20.290 5.055 C 20.027 4.976,3.947 4.978,3.695 5.057 M7.695 11.057 C 7.466 11.129,7.256 11.299,7.128 11.516 C 7.037 11.672,7.020 11.746,7.020 12.000 C 7.020 12.256,7.036 12.328,7.131 12.489 C 7.256 12.702,7.449 12.864,7.670 12.943 C 7.892 13.022,16.108 13.022,16.330 12.943 C 16.551 12.864,16.744 12.702,16.869 12.489 C 16.964 12.328,16.980 12.256,16.980 12.000 C 16.980 11.746,16.963 11.672,16.872 11.516 C 16.740 11.293,16.533 11.128,16.290 11.055 C 16.029 10.976,7.946 10.979,7.695 11.057 M5.695 17.057 C 5.466 17.129,5.256 17.299,5.128 17.516 C 5.037 17.672,5.020 17.746,5.020 18.000 C 5.020 18.256,5.036 18.328,5.131 18.489 C 5.256 18.702,5.449 18.864,5.670 18.943 C 5.793 18.987,6.938 18.996,12.000 18.996 C 17.062 18.996,18.207 18.987,18.330 18.943 C 18.551 18.864,18.744 18.702,18.869 18.489 C 18.964 18.328,18.980 18.256,18.980 18.000 C 18.980 17.746,18.963 17.672,18.872 17.516 C 18.740 17.293,18.533 17.128,18.290 17.055 C 18.028 16.976,5.947 16.978,5.695 17.057 " stroke="none" fill-rule="evenodd" fill="black"></path></svg>