<svg xmlns="http://www.w3.org/2000/svg" width="24" height="24" viewBox="0 0 24 24" fill="none" stroke="currentColor" stroke-width="2" stroke-linecap="round" stroke-linejoin="round"><path d="M4.499 2.043 C 3.380 2.232,2.461 3.048,2.114 4.160 L 2.020 4.460 2.020 12.000 L 2.020 19.540 2.114 19.840 C 2.422 20.827,3.173 21.578,4.160 21.886 L 4.460 21.980 12.000 21.980 L 19.540 21.980 19.840 21.886 C 20.827 21.578,21.578 20.827,21.886 19.840 L 21.980 19.540 21.980 12.000 L 21.980 4.460 21.886 4.160 C 21.581 3.182,20.832 2.428,19.861 2.121 L 19.540 2.020 12.120 2.014 C 8.039 2.011,4.609 2.024,4.499 2.043 M19.310 4.061 C 19.589 4.144,19.856 4.411,19.939 4.690 C 19.993 4.870,20.000 5.755,20.000 12.001 C 20.000 17.907,19.991 19.138,19.945 19.290 C 19.872 19.533,19.707 19.740,19.484 19.872 L 19.300 19.980 12.000 19.980 L 4.700 19.980 4.516 19.872 C 4.415 19.813,4.284 19.700,4.225 19.623 C 3.986 19.309,4.000 19.795,4.000 12.022 C 4.000 5.758,4.007 4.870,4.061 4.690 C 4.140 4.421,4.412 4.143,4.673 4.063 C 4.964 3.974,19.009 3.971,19.310 4.061 M6.695 6.057 C 6.466 6.129,6.256 6.299,6.128 6.516 C 6.037 6.672,6.020 6.746,6.020 7.000 C 6.020 7.256,6.036 7.328,6.131 7.489 C 6.256 7.702,6.449 7.864,6.670 7.943 C 6.889 8.021,11.111 8.021,11.330 7.943 C 11.551 7.864,11.744 7.702,11.869 7.489 C 11.964 7.328,11.980 7.256,11.980 7.000 C 11.980 6.746,11.963 6.672,11.872 6.516 C 11.740 6.293,11.533 6.128,11.290 6.055 C 11.033 5.978,6.943 5.979,6.695 6.057 M6.695 9.057 C 6.466 9.129,6.256 9.299,6.128 9.516 C 6.037 9.672,6.020 9.746,6.020 10.000 C 6.020 10.256,6.036 10.328,6.131 10.489 C 6.256 10.702,6.449 10.864,6.670 10.943 C 6.891 11.022,13.109 11.022,13.330 10.943 C 13.551 10.864,13.744 10.702,13.869 10.489 C 13.964 10.328,13.980 10.256,13.980 10.000 C 13.980 9.746,13.963 9.672,13.872 9.516 C 13.740 9.293,13.533 9.128,13.290 9.055 C 13.030 8.977,6.945 8.979,6.695 9.057 M6.695 12.057 C 6.466 12.129,6.256 12.299,6.128 12.516 C 6.037 12.672,6.020 12.746,6.020 13.000 C 6.020 13.256,6.036 13.328,6.131 13.489 C 6.256 13.702,6.449 13.864,6.670 13.943 C 6.885 14.020,9.115 14.020,9.330 13.943 C 9.551 13.864,9.744 13.702,9.869 13.489 C 9.964 13.328,9.980 13.256,9.980 13.000 C 9.980 12.746,9.963 12.672,9.872 12.516 C 9.740 12.293,9.533 12.128,9.290 12.055 C 9.039 11.979,6.937 11.981,6.695 12.057 " stroke="none" fill-rule="evenodd" fill="black"></path></svg>