<svg xmlns="http://www.w3.org/2000/svg" width="24" height="24" viewBox="0 0 24 24" fill="none" stroke="currentColor" stroke-width="2" stroke-linecap="round" stroke-linejoin="round"><path d="M4.499 2.043 C 3.380 2.232,2.461 3.048,2.114 4.160 L 2.020 4.460 2.020 12.000 L 2.020 19.540 2.114 19.840 C 2.422 20.827,3.173 21.578,4.160 21.886 L 4.460 21.980 12.000 21.980 L 19.540 21.980 19.840 21.886 C 20.827 21.578,21.578 20.827,21.886 19.840 L 21.980 19.540 21.980 12.000 L 21.980 4.460 21.886 4.160 C 21.581 3.182,20.832 2.428,19.861 2.121 L 19.540 2.020 12.120 2.014 C 8.039 2.011,4.609 2.024,4.499 2.043 M19.310 4.061 C 19.589 4.144,19.856 4.411,19.939 4.690 C 19.993 4.870,20.000 5.755,20.000 12.001 C 20.000 17.907,19.991 19.138,19.945 19.290 C 19.872 19.533,19.707 19.740,19.484 19.872 L 19.300 19.980 12.000 19.980 L 4.700 19.980 4.516 19.872 C 4.415 19.813,4.284 19.700,4.225 19.623 C 3.986 19.309,4.000 19.795,4.000 12.022 C 4.000 5.758,4.007 4.870,4.061 4.690 C 4.140 4.421,4.412 4.143,4.673 4.063 C 4.964 3.974,19.009 3.971,19.310 4.061 M6.695 10.057 C 6.466 10.129,6.256 10.299,6.128 10.516 C 6.037 10.672,6.020 10.746,6.020 11.000 C 6.020 11.256,6.036 11.328,6.131 11.489 C 6.256 11.702,6.449 11.864,6.670 11.943 C 6.889 12.021,11.111 12.021,11.330 11.943 C 11.551 11.864,11.744 11.702,11.869 11.489 C 11.964 11.328,11.980 11.256,11.980 11.000 C 11.980 10.746,11.963 10.672,11.872 10.516 C 11.740 10.293,11.533 10.128,11.290 10.055 C 11.033 9.978,6.943 9.979,6.695 10.057 M6.695 13.057 C 6.466 13.129,6.256 13.299,6.128 13.516 C 6.037 13.672,6.020 13.746,6.020 14.000 C 6.020 14.256,6.036 14.328,6.131 14.489 C 6.256 14.702,6.449 14.864,6.670 14.943 C 6.891 15.022,13.109 15.022,13.330 14.943 C 13.551 14.864,13.744 14.702,13.869 14.489 C 13.964 14.328,13.980 14.256,13.980 14.000 C 13.980 13.746,13.963 13.672,13.872 13.516 C 13.740 13.293,13.533 13.128,13.290 13.055 C 13.030 12.977,6.945 12.979,6.695 13.057 M6.695 16.057 C 6.466 16.129,6.256 16.299,6.128 16.516 C 6.037 16.672,6.020 16.746,6.020 17.000 C 6.020 17.256,6.036 17.328,6.131 17.489 C 6.256 17.702,6.449 17.864,6.670 17.943 C 6.885 18.020,9.115 18.020,9.330 17.943 C 9.551 17.864,9.744 17.702,9.869 17.489 C 9.964 17.328,9.980 17.256,9.980 17.000 C 9.980 16.746,9.963 16.672,9.872 16.516 C 9.740 16.293,9.533 16.128,9.290 16.055 C 9.039 15.979,6.937 15.981,6.695 16.057 " stroke="none" fill-rule="evenodd" fill="black"></path></svg>