<svg xmlns="http://www.w3.org/2000/svg" width="24" height="24" viewBox="0 0 24 24" fill="none" stroke="currentColor" stroke-width="2" stroke-linecap="round" stroke-linejoin="round"><path d="M4.499 2.043 C 3.380 2.232,2.461 3.048,2.114 4.160 L 2.020 4.460 2.020 12.000 L 2.020 19.540 2.114 19.840 C 2.422 20.827,3.173 21.578,4.160 21.886 L 4.460 21.980 12.000 21.980 L 19.540 21.980 19.840 21.886 C 20.827 21.578,21.578 20.827,21.886 19.840 L 21.980 19.540 21.980 12.000 L 21.980 4.460 21.886 4.160 C 21.581 3.182,20.832 2.428,19.861 2.121 L 19.540 2.020 12.120 2.014 C 8.039 2.011,4.609 2.024,4.499 2.043 M19.310 4.061 C 19.589 4.144,19.856 4.411,19.939 4.690 C 19.993 4.870,20.000 5.755,20.000 12.001 C 20.000 17.907,19.991 19.138,19.945 19.290 C 19.872 19.533,19.707 19.740,19.484 19.872 L 19.300 19.980 12.000 19.980 L 4.700 19.980 4.516 19.872 C 4.415 19.813,4.284 19.700,4.225 19.623 C 3.986 19.309,4.000 19.795,4.000 12.022 C 4.000 5.758,4.007 4.870,4.061 4.690 C 4.140 4.421,4.412 4.143,4.673 4.063 C 4.964 3.974,19.009 3.971,19.310 4.061 M9.695 10.057 C 9.466 10.129,9.256 10.299,9.128 10.516 L 9.020 10.700 9.020 14.003 L 9.020 17.306 9.141 17.503 C 9.543 18.156,10.457 18.156,10.859 17.503 L 10.980 17.306 10.980 14.003 L 10.980 10.700 10.872 10.516 C 10.628 10.101,10.150 9.915,9.695 10.057 M12.695 12.057 C 12.466 12.129,12.256 12.299,12.128 12.516 L 12.020 12.700 12.020 15.003 L 12.020 17.306 12.141 17.503 C 12.209 17.613,12.346 17.756,12.452 17.828 C 12.923 18.144,13.554 17.999,13.859 17.503 L 13.980 17.306 13.980 15.003 L 13.980 12.700 13.872 12.516 C 13.628 12.101,13.150 11.915,12.695 12.057 M6.695 14.057 C 6.466 14.129,6.256 14.299,6.128 14.516 L 6.020 14.700 6.020 16.003 L 6.020 17.306 6.141 17.503 C 6.543 18.156,7.457 18.156,7.859 17.503 L 7.980 17.306 7.980 16.003 L 7.980 14.700 7.872 14.516 C 7.628 14.101,7.150 13.915,6.695 14.057 " stroke="none" fill-rule="evenodd" fill="black"></path></svg>