<svg xmlns="http://www.w3.org/2000/svg" width="24" height="24" viewBox="0 0 24 24" fill="none" stroke="currentColor" stroke-width="2" stroke-linecap="round" stroke-linejoin="round"><path d="M4.499 2.043 C 3.380 2.232,2.461 3.048,2.114 4.160 L 2.020 4.460 2.020 12.000 L 2.020 19.540 2.114 19.840 C 2.422 20.827,3.173 21.578,4.160 21.886 L 4.460 21.980 12.000 21.980 L 19.540 21.980 19.840 21.886 C 20.827 21.578,21.578 20.827,21.886 19.840 L 21.980 19.540 21.980 12.000 L 21.980 4.460 21.886 4.160 C 21.581 3.182,20.832 2.428,19.861 2.121 L 19.540 2.020 12.120 2.014 C 8.039 2.011,4.609 2.024,4.499 2.043 M19.310 4.061 C 19.589 4.144,19.856 4.411,19.939 4.690 C 19.993 4.870,20.000 5.755,20.000 12.001 C 20.000 17.907,19.991 19.138,19.945 19.290 C 19.872 19.533,19.707 19.740,19.484 19.872 L 19.300 19.980 12.000 19.980 L 4.700 19.980 4.516 19.872 C 4.415 19.813,4.284 19.700,4.225 19.623 C 3.986 19.309,4.000 19.795,4.000 12.022 C 4.000 5.758,4.007 4.870,4.061 4.690 C 4.140 4.421,4.412 4.143,4.673 4.063 C 4.964 3.974,19.009 3.971,19.310 4.061 M8.695 6.057 C 8.466 6.129,8.256 6.299,8.128 6.516 L 8.020 6.700 8.020 8.003 L 8.020 9.306 8.141 9.503 C 8.543 10.156,9.457 10.156,9.859 9.503 L 9.980 9.306 9.980 8.003 L 9.980 6.700 9.872 6.516 C 9.628 6.101,9.150 5.915,8.695 6.057 M11.695 6.057 C 11.466 6.129,11.256 6.299,11.128 6.516 L 11.020 6.700 11.020 10.003 L 11.020 13.306 11.141 13.503 C 11.543 14.156,12.457 14.156,12.859 13.503 L 12.980 13.306 12.980 10.003 L 12.980 6.700 12.872 6.516 C 12.628 6.101,12.150 5.915,11.695 6.057 M14.695 6.057 C 14.466 6.129,14.256 6.299,14.128 6.516 L 14.020 6.700 14.020 9.003 L 14.020 11.306 14.141 11.503 C 14.209 11.613,14.346 11.756,14.452 11.828 C 14.923 12.144,15.554 11.999,15.859 11.503 L 15.980 11.306 15.980 9.003 L 15.980 6.700 15.872 6.516 C 15.628 6.101,15.150 5.915,14.695 6.057 " stroke="none" fill-rule="evenodd" fill="black"></path></svg>