<svg xmlns="http://www.w3.org/2000/svg" width="24" height="24" viewBox="0 0 24 24" fill="none" stroke="currentColor" stroke-width="2" stroke-linecap="round" stroke-linejoin="round"><path d="M4.499 2.043 C 3.380 2.232,2.461 3.048,2.114 4.160 L 2.020 4.460 2.020 12.000 L 2.020 19.540 2.114 19.840 C 2.422 20.827,3.173 21.578,4.160 21.886 L 4.460 21.980 12.000 21.980 L 19.540 21.980 19.840 21.886 C 20.827 21.578,21.578 20.827,21.886 19.840 L 21.980 19.540 21.980 12.000 L 21.980 4.460 21.886 4.160 C 21.581 3.182,20.832 2.428,19.861 2.121 L 19.540 2.020 12.120 2.014 C 8.039 2.011,4.609 2.024,4.499 2.043 M19.310 4.061 C 19.589 4.144,19.856 4.411,19.939 4.690 C 19.993 4.870,20.000 5.755,20.000 12.001 C 20.000 17.907,19.991 19.138,19.945 19.290 C 19.872 19.533,19.707 19.740,19.484 19.872 L 19.300 19.980 12.000 19.980 L 4.700 19.980 4.516 19.872 C 4.415 19.813,4.284 19.700,4.225 19.623 C 3.986 19.309,4.000 19.795,4.000 12.022 C 4.000 5.758,4.007 4.870,4.061 4.690 C 4.140 4.421,4.412 4.143,4.673 4.063 C 4.964 3.974,19.009 3.971,19.310 4.061 M9.695 6.057 C 9.466 6.129,9.256 6.299,9.128 6.516 C 9.037 6.672,9.020 6.746,9.020 7.000 C 9.020 7.256,9.036 7.328,9.131 7.489 C 9.256 7.702,9.449 7.864,9.670 7.943 C 9.889 8.021,14.111 8.021,14.330 7.943 C 14.551 7.864,14.744 7.702,14.869 7.489 C 14.964 7.328,14.980 7.256,14.980 7.000 C 14.980 6.746,14.963 6.672,14.872 6.516 C 14.740 6.293,14.533 6.128,14.290 6.055 C 14.033 5.978,9.943 5.979,9.695 6.057 M8.695 11.057 C 8.466 11.129,8.256 11.299,8.128 11.516 C 8.037 11.672,8.020 11.746,8.020 12.000 C 8.020 12.256,8.036 12.328,8.131 12.489 C 8.256 12.702,8.449 12.864,8.670 12.943 C 8.891 13.022,15.109 13.022,15.330 12.943 C 15.551 12.864,15.744 12.702,15.869 12.489 C 15.964 12.328,15.980 12.256,15.980 12.000 C 15.980 11.746,15.963 11.672,15.872 11.516 C 15.740 11.293,15.533 11.128,15.290 11.055 C 15.030 10.977,8.945 10.979,8.695 11.057 M10.695 16.057 C 10.466 16.129,10.256 16.299,10.128 16.516 C 10.037 16.672,10.020 16.746,10.020 17.000 C 10.020 17.256,10.036 17.328,10.131 17.489 C 10.256 17.702,10.449 17.864,10.670 17.943 C 10.885 18.020,13.115 18.020,13.330 17.943 C 13.551 17.864,13.744 17.702,13.869 17.489 C 13.964 17.328,13.980 17.256,13.980 17.000 C 13.980 16.746,13.963 16.672,13.872 16.516 C 13.740 16.293,13.533 16.128,13.290 16.055 C 13.039 15.979,10.937 15.981,10.695 16.057 " stroke="none" fill-rule="evenodd" fill="black"></path></svg>