<svg xmlns="http://www.w3.org/2000/svg" width="24" height="24" viewBox="0 0 24 24" fill="none" stroke="currentColor" stroke-width="2" stroke-linecap="round" stroke-linejoin="round"><path d="M4.499 2.043 C 3.380 2.232,2.461 3.048,2.114 4.160 L 2.020 4.460 2.020 12.000 L 2.020 19.540 2.114 19.840 C 2.422 20.827,3.173 21.578,4.160 21.886 L 4.460 21.980 12.000 21.980 L 19.540 21.980 19.840 21.886 C 20.827 21.578,21.578 20.827,21.886 19.840 L 21.980 19.540 21.980 12.000 L 21.980 4.460 21.886 4.160 C 21.581 3.182,20.832 2.428,19.861 2.121 L 19.540 2.020 12.120 2.014 C 8.039 2.011,4.609 2.024,4.499 2.043 M19.310 4.061 C 19.589 4.144,19.856 4.411,19.939 4.690 C 19.993 4.870,20.000 5.755,20.000 12.001 C 20.000 17.907,19.991 19.138,19.945 19.290 C 19.872 19.533,19.707 19.740,19.484 19.872 L 19.300 19.980 12.000 19.980 L 4.700 19.980 4.516 19.872 C 4.415 19.813,4.284 19.700,4.225 19.623 C 3.986 19.309,4.000 19.795,4.000 12.022 C 4.000 5.758,4.007 4.870,4.061 4.690 C 4.140 4.421,4.412 4.143,4.673 4.063 C 4.964 3.974,19.009 3.971,19.310 4.061 M10.695 6.057 C 10.466 6.129,10.256 6.299,10.128 6.516 L 10.020 6.700 10.020 8.003 L 10.020 9.306 10.141 9.503 C 10.543 10.156,11.457 10.156,11.859 9.503 L 11.980 9.306 11.980 8.003 L 11.980 6.700 11.872 6.516 C 11.628 6.101,11.150 5.915,10.695 6.057 M13.695 6.057 C 13.466 6.129,13.256 6.299,13.128 6.516 L 13.020 6.700 13.020 10.003 L 13.020 13.306 13.141 13.503 C 13.543 14.156,14.457 14.156,14.859 13.503 L 14.980 13.306 14.980 10.003 L 14.980 6.700 14.872 6.516 C 14.628 6.101,14.150 5.915,13.695 6.057 M16.695 6.057 C 16.466 6.129,16.256 6.299,16.128 6.516 L 16.020 6.700 16.020 9.003 L 16.020 11.306 16.141 11.503 C 16.209 11.613,16.346 11.756,16.452 11.828 C 16.923 12.144,17.554 11.999,17.859 11.503 L 17.980 11.306 17.980 9.003 L 17.980 6.700 17.872 6.516 C 17.628 6.101,17.150 5.915,16.695 6.057 " stroke="none" fill-rule="evenodd" fill="black"></path></svg>