<svg xmlns="http://www.w3.org/2000/svg" width="24" height="24" viewBox="0 0 24 24" fill="none" stroke="currentColor" stroke-width="2" stroke-linecap="round" stroke-linejoin="round"><path d="M6.695 5.057 C 6.466 5.129,6.256 5.299,6.128 5.516 L 6.020 5.700 6.000 11.300 C 5.989 14.380,5.965 16.922,5.948 16.950 C 5.923 16.988,5.669 17.000,4.904 17.000 C 3.800 17.000,3.642 17.023,3.382 17.221 C 3.302 17.282,3.187 17.415,3.128 17.516 C 3.037 17.672,3.020 17.746,3.020 18.000 C 3.020 18.257,3.036 18.327,3.133 18.492 C 3.263 18.714,3.503 18.901,3.735 18.964 C 4.003 19.036,6.199 18.989,6.500 18.905 C 7.253 18.694,7.713 18.220,7.910 17.453 C 7.975 17.199,7.980 16.777,7.980 11.440 L 7.980 5.700 7.872 5.516 C 7.628 5.101,7.150 4.915,6.695 5.057 M9.695 5.057 C 9.466 5.129,9.256 5.299,9.128 5.516 L 9.020 5.700 9.020 8.003 L 9.020 10.306 9.141 10.503 C 9.209 10.613,9.346 10.756,9.452 10.828 C 9.923 11.144,10.554 10.999,10.859 10.503 L 10.980 10.306 10.980 8.003 L 10.980 5.700 10.872 5.516 C 10.628 5.101,10.150 4.915,9.695 5.057 M12.695 5.057 C 12.466 5.129,12.256 5.299,12.128 5.516 L 12.020 5.700 12.000 11.300 C 11.989 14.380,11.965 16.922,11.948 16.950 C 11.923 16.988,11.669 17.000,10.904 17.000 C 9.800 17.000,9.642 17.023,9.382 17.221 C 9.302 17.282,9.187 17.415,9.128 17.516 C 9.037 17.672,9.020 17.746,9.020 18.000 C 9.020 18.257,9.036 18.327,9.133 18.492 C 9.263 18.714,9.503 18.901,9.735 18.964 C 10.003 19.036,12.199 18.989,12.500 18.905 C 13.245 18.696,13.712 18.220,13.905 17.473 C 13.954 17.281,13.974 16.954,13.989 16.110 L 14.008 15.000 17.594 14.998 C 20.485 14.997,21.209 14.986,21.330 14.943 C 21.840 14.761,22.113 14.202,21.943 13.688 C 21.858 13.433,21.336 12.815,20.519 12.000 C 19.290 10.775,18.320 10.175,17.339 10.033 C 17.081 9.996,16.961 9.996,16.790 10.034 C 16.082 10.193,15.773 11.005,16.198 11.591 C 16.366 11.822,16.610 11.953,16.954 11.997 C 17.124 12.018,17.342 12.081,17.490 12.151 C 17.769 12.283,18.364 12.697,18.540 12.881 L 18.655 13.000 16.328 13.000 L 14.002 13.000 13.991 9.350 L 13.980 5.700 13.872 5.516 C 13.628 5.101,13.150 4.915,12.695 5.057 " stroke="none" fill-rule="evenodd" fill="black"></path></svg>