<svg xmlns="http://www.w3.org/2000/svg" width="24" height="24" viewBox="0 0 24 24" fill="none" stroke="currentColor" stroke-width="2" stroke-linecap="round" stroke-linejoin="round"><path d="M15.499 6.041 C 14.368 6.242,13.461 7.048,13.114 8.160 L 13.020 8.460 13.020 14.383 L 13.020 20.306 13.141 20.503 C 13.543 21.156,14.457 21.156,14.859 20.503 L 14.980 20.306 15.000 14.523 C 15.022 8.042,14.994 8.601,15.321 8.283 C 15.563 8.049,15.765 8.000,16.500 8.000 C 17.254 8.000,17.441 8.047,17.697 8.303 C 17.953 8.559,18.000 8.746,18.000 9.501 C 18.000 10.173,17.958 10.383,17.779 10.618 C 17.613 10.835,17.380 10.954,17.034 10.998 C 16.680 11.043,16.562 11.084,16.375 11.226 C 15.966 11.538,15.886 12.160,16.198 12.591 C 16.369 12.827,16.608 12.953,16.972 12.999 C 17.364 13.049,17.516 13.114,17.717 13.321 C 17.952 13.563,18.000 13.765,18.000 14.501 C 18.000 15.173,17.958 15.383,17.779 15.618 C 17.613 15.835,17.380 15.954,17.034 15.998 C 16.870 16.019,16.686 16.055,16.625 16.078 C 16.439 16.149,16.242 16.323,16.128 16.516 C 16.037 16.672,16.020 16.746,16.020 17.000 C 16.020 17.257,16.036 17.327,16.133 17.492 C 16.263 17.714,16.502 17.901,16.736 17.965 C 16.960 18.026,17.519 17.982,17.863 17.877 C 18.820 17.584,19.581 16.818,19.886 15.840 C 19.974 15.558,19.980 15.479,19.980 14.500 C 19.980 13.521,19.975 13.443,19.886 13.161 C 19.766 12.779,19.609 12.469,19.402 12.208 L 19.238 12.000 19.402 11.792 C 19.609 11.531,19.766 11.221,19.886 10.839 C 19.975 10.557,19.980 10.479,19.980 9.500 C 19.980 8.521,19.974 8.442,19.886 8.160 C 19.580 7.180,18.821 6.417,17.861 6.125 C 17.567 6.036,17.462 6.027,16.620 6.016 C 16.114 6.010,15.609 6.021,15.499 6.041 M6.499 9.043 C 5.383 9.230,4.461 10.048,4.114 11.160 C 4.021 11.458,4.020 11.473,4.020 13.500 C 4.020 15.527,4.021 15.542,4.114 15.840 C 4.422 16.827,5.173 17.578,6.160 17.886 C 6.443 17.975,6.520 17.980,7.520 17.980 L 8.580 17.980 8.936 17.855 L 9.292 17.731 9.493 17.856 C 9.671 17.966,9.726 17.980,9.996 17.980 C 10.257 17.980,10.327 17.964,10.492 17.867 C 10.710 17.739,10.901 17.498,10.961 17.277 C 10.988 17.178,10.998 15.838,10.991 13.413 L 10.980 9.700 10.871 9.514 C 10.577 9.015,9.909 8.859,9.440 9.179 L 9.300 9.274 9.020 9.180 C 8.866 9.128,8.623 9.066,8.480 9.043 C 8.177 8.994,6.792 8.994,6.499 9.043 M8.310 11.061 C 8.589 11.144,8.856 11.411,8.939 11.690 C 9.024 11.976,9.029 15.010,8.945 15.290 C 8.872 15.533,8.707 15.740,8.484 15.872 C 8.301 15.980,8.297 15.980,7.500 15.980 C 6.703 15.980,6.699 15.980,6.516 15.872 C 6.303 15.747,6.141 15.550,6.058 15.316 C 5.971 15.067,5.973 11.986,6.061 11.690 C 6.140 11.421,6.412 11.143,6.673 11.063 C 6.941 10.981,8.035 10.979,8.310 11.061 " stroke="none" fill-rule="evenodd" fill="black"></path></svg>