<svg xmlns="http://www.w3.org/2000/svg" width="24" height="24" viewBox="0 0 24 24" fill="none" stroke="currentColor" stroke-width="2" stroke-linecap="round" stroke-linejoin="round"><path d="M11.400 5.025 C 10.398 5.153,9.777 5.379,9.037 5.885 C 8.421 6.306,7.827 6.988,7.484 7.671 C 7.075 8.484,6.912 9.522,7.056 10.400 C 7.168 11.085,7.372 11.522,7.785 11.959 L 8.037 12.227 7.895 12.363 C 7.696 12.555,7.384 13.041,7.244 13.377 C 7.008 13.945,6.996 14.093,7.008 16.303 L 7.020 18.306 7.141 18.503 C 7.543 19.156,8.457 19.156,8.859 18.503 L 8.980 18.306 9.000 16.303 L 9.020 14.300 9.131 14.074 C 9.319 13.690,9.581 13.492,10.226 13.243 C 10.746 13.042,11.008 12.701,11.013 12.216 C 11.015 11.952,10.882 11.608,10.718 11.456 C 10.673 11.414,10.336 11.227,9.968 11.040 C 9.405 10.753,9.284 10.675,9.188 10.538 C 9.029 10.309,8.974 9.907,9.034 9.419 C 9.172 8.299,9.955 7.413,11.074 7.112 C 11.515 6.994,12.413 6.994,12.848 7.112 C 13.670 7.335,14.227 7.779,14.568 8.480 C 14.748 8.852,14.825 9.079,14.923 9.520 C 14.959 9.682,14.979 10.877,14.996 14.023 L 15.020 18.306 15.141 18.503 C 15.543 19.156,16.457 19.156,16.859 18.503 L 16.980 18.306 16.992 14.223 C 17.001 11.394,16.990 10.001,16.959 9.688 C 16.821 8.303,16.264 7.076,15.411 6.275 C 15.061 5.946,14.877 5.819,14.420 5.590 C 13.644 5.202,13.012 5.046,12.120 5.022 C 11.801 5.014,11.477 5.015,11.400 5.025 " stroke="none" fill-rule="evenodd" fill="black"></path></svg>