<svg xmlns="http://www.w3.org/2000/svg" width="24" height="24" viewBox="0 0 24 24" fill="none" stroke="currentColor" stroke-width="2" stroke-linecap="round" stroke-linejoin="round"><path d="M13.695 6.057 C 13.466 6.129,13.256 6.299,13.128 6.516 L 13.020 6.700 13.009 11.914 C 13.002 15.337,13.013 17.179,13.039 17.277 C 13.099 17.498,13.290 17.739,13.508 17.867 C 13.673 17.964,13.743 17.980,14.004 17.980 C 14.274 17.980,14.329 17.966,14.507 17.856 L 14.708 17.731 15.064 17.855 L 15.420 17.980 16.480 17.980 C 17.480 17.980,17.557 17.975,17.840 17.886 C 18.827 17.578,19.578 16.827,19.886 15.840 C 19.979 15.542,19.980 15.527,19.980 13.500 C 19.980 11.473,19.979 11.458,19.886 11.160 C 19.577 10.169,18.792 9.390,17.822 9.112 C 17.524 9.027,17.424 9.020,16.500 9.020 C 15.794 9.020,15.447 9.035,15.320 9.072 C 15.221 9.101,15.109 9.134,15.072 9.144 C 15.010 9.163,15.003 9.068,14.992 7.932 L 14.980 6.700 14.872 6.516 C 14.628 6.101,14.150 5.915,13.695 6.057 M5.695 9.055 C 5.464 9.130,5.255 9.300,5.128 9.516 C 5.037 9.672,5.020 9.746,5.020 10.000 C 5.020 10.256,5.036 10.328,5.131 10.489 C 5.192 10.592,5.304 10.725,5.381 10.783 C 5.644 10.984,5.734 10.996,6.963 10.998 C 8.306 11.000,8.413 11.019,8.697 11.303 C 8.862 11.468,9.000 11.760,9.000 11.944 C 9.000 11.982,8.702 11.997,7.730 12.009 C 6.518 12.025,6.445 12.030,6.139 12.124 C 5.176 12.420,4.419 13.181,4.114 14.160 C 3.979 14.594,3.979 15.406,4.114 15.840 C 4.421 16.826,5.173 17.578,6.160 17.886 C 6.457 17.979,6.479 17.980,8.380 17.980 L 10.300 17.980 10.492 17.867 C 10.711 17.738,10.901 17.498,10.962 17.273 C 10.989 17.171,10.999 16.156,10.991 14.269 L 10.979 11.420 10.885 11.140 C 10.558 10.159,9.814 9.418,8.861 9.124 C 8.551 9.028,8.495 9.025,7.200 9.014 C 6.166 9.005,5.822 9.014,5.695 9.055 M17.310 11.061 C 17.589 11.144,17.856 11.411,17.939 11.690 C 18.024 11.976,18.029 15.010,17.945 15.290 C 17.872 15.533,17.707 15.740,17.484 15.872 C 17.301 15.980,17.297 15.980,16.500 15.980 C 15.703 15.980,15.699 15.980,15.516 15.872 C 15.303 15.747,15.141 15.550,15.058 15.316 C 14.971 15.067,14.973 11.986,15.061 11.690 C 15.140 11.421,15.412 11.143,15.673 11.063 C 15.941 10.981,17.035 10.979,17.310 11.061 M9.000 15.002 L 9.000 16.005 7.850 15.992 L 6.700 15.980 6.516 15.872 C 5.935 15.530,5.833 14.774,6.304 14.303 C 6.582 14.024,6.680 14.006,7.930 14.003 L 9.000 14.000 9.000 15.002 " stroke="none" fill-rule="evenodd" fill="black"></path></svg>