<svg xmlns="http://www.w3.org/2000/svg" width="24" height="24" viewBox="0 0 24 24" fill="none" stroke="currentColor" stroke-width="2" stroke-linecap="round" stroke-linejoin="round"><path d="M5.499 7.040 C 4.363 7.246,3.461 8.048,3.114 9.160 L 3.020 9.460 3.020 12.883 L 3.020 16.306 3.141 16.503 C 3.543 17.156,4.457 17.156,4.859 16.503 L 4.980 16.307 4.992 15.153 L 5.005 14.000 6.000 14.000 L 6.995 14.000 7.008 15.153 L 7.020 16.307 7.141 16.503 C 7.543 17.156,8.457 17.156,8.859 16.503 L 8.980 16.306 8.980 12.883 L 8.980 9.460 8.886 9.160 C 8.580 8.178,7.810 7.407,6.861 7.129 C 6.500 7.023,5.832 6.980,5.499 7.040 M10.695 7.057 C 10.466 7.129,10.256 7.299,10.128 7.516 L 10.020 7.700 10.009 11.913 C 10.002 14.672,10.013 16.178,10.039 16.277 C 10.099 16.498,10.290 16.739,10.508 16.867 L 10.700 16.980 12.911 16.991 C 14.337 16.999,15.176 16.988,15.275 16.961 C 15.498 16.901,15.739 16.711,15.867 16.492 C 15.964 16.327,15.980 16.257,15.980 16.000 C 15.980 15.746,15.963 15.672,15.872 15.516 C 15.813 15.415,15.698 15.282,15.618 15.221 C 15.342 15.011,15.242 15.000,13.554 15.000 L 12.002 15.000 11.991 11.350 L 11.980 7.700 11.872 7.516 C 11.628 7.101,11.150 6.915,10.695 7.057 M15.695 7.057 C 15.466 7.129,15.256 7.299,15.128 7.516 C 15.037 7.672,15.020 7.746,15.020 8.000 C 15.020 8.256,15.036 8.328,15.131 8.489 C 15.256 8.702,15.449 8.864,15.670 8.943 C 15.768 8.978,16.023 8.997,16.409 8.998 L 16.998 9.000 17.009 12.653 L 17.020 16.306 17.141 16.503 C 17.543 17.156,18.457 17.156,18.859 16.503 L 18.980 16.306 18.991 12.653 L 19.002 9.000 19.591 8.998 C 19.977 8.997,20.232 8.978,20.330 8.943 C 20.551 8.864,20.744 8.702,20.869 8.489 C 20.964 8.328,20.980 8.256,20.980 8.000 C 20.980 7.746,20.963 7.672,20.872 7.516 C 20.740 7.293,20.533 7.128,20.290 7.055 C 20.033 6.978,15.943 6.979,15.695 7.057 M6.310 9.061 C 6.452 9.103,6.571 9.178,6.697 9.303 C 6.978 9.584,7.000 9.703,7.000 10.947 L 7.000 12.000 6.000 12.000 L 5.000 12.000 5.000 10.947 C 5.000 9.702,5.022 9.585,5.304 9.303 C 5.583 9.024,5.916 8.944,6.310 9.061 " stroke="none" fill-rule="evenodd" fill="black"></path></svg>