<svg xmlns="http://www.w3.org/2000/svg" width="24" height="24" viewBox="0 0 24 24" fill="none" stroke="currentColor" stroke-width="2" stroke-linecap="round" stroke-linejoin="round"><path d="M10.058 3.058 C 8.662 3.275,7.474 4.250,6.987 5.580 C 6.845 5.968,6.809 6.123,6.760 6.557 C 6.682 7.250,6.816 7.993,7.138 8.661 C 7.380 9.161,7.554 9.382,8.433 10.307 C 8.855 10.751,9.200 11.128,9.200 11.145 C 9.200 11.162,8.717 11.663,8.127 12.258 C 6.998 13.397,6.787 13.652,6.503 14.226 C 5.740 15.769,5.858 17.515,6.822 18.961 C 7.076 19.341,7.659 19.924,8.039 20.178 C 9.468 21.131,11.228 21.259,12.730 20.518 C 13.390 20.192,13.674 19.955,14.789 18.800 C 15.246 18.327,15.630 17.940,15.644 17.940 C 15.657 17.940,16.273 18.579,17.012 19.360 C 18.524 20.957,18.553 20.980,19.019 20.980 C 19.254 20.980,19.331 20.962,19.489 20.869 C 19.960 20.592,20.139 19.965,19.873 19.521 C 19.822 19.436,19.162 18.716,18.408 17.921 L 17.035 16.477 17.548 15.944 C 17.829 15.651,18.458 14.999,18.944 14.495 C 19.431 13.991,19.860 13.518,19.898 13.445 C 20.077 13.098,19.997 12.597,19.717 12.317 C 19.421 12.021,19.105 11.941,18.698 12.059 C 18.470 12.125,18.435 12.156,17.602 13.014 C 17.129 13.501,16.497 14.149,16.199 14.453 L 15.656 15.006 15.295 14.633 C 15.096 14.428,14.576 13.882,14.138 13.420 C 13.701 12.958,13.047 12.269,12.686 11.889 L 12.029 11.199 12.826 10.389 C 13.716 9.486,13.959 9.188,14.195 8.709 C 15.273 6.518,14.148 3.880,11.840 3.186 C 11.226 3.002,10.675 2.962,10.058 3.058 M11.061 5.044 C 11.394 5.105,11.737 5.291,12.022 5.565 C 12.463 5.988,12.621 6.406,12.592 7.066 C 12.575 7.444,12.561 7.504,12.420 7.789 C 12.284 8.067,12.180 8.188,11.458 8.918 L 10.649 9.735 10.233 9.298 C 9.088 8.094,9.076 8.079,8.926 7.766 C 8.781 7.462,8.780 7.456,8.780 6.938 L 8.780 6.416 8.931 6.111 C 9.333 5.296,10.167 4.878,11.061 5.044 M12.480 14.577 C 13.437 15.585,14.224 16.430,14.230 16.455 C 14.235 16.480,13.785 16.962,13.230 17.526 C 12.248 18.525,12.210 18.558,11.875 18.718 C 11.080 19.097,10.254 19.095,9.480 18.714 C 9.000 18.477,8.525 18.001,8.291 17.520 C 7.909 16.738,7.908 15.895,8.289 15.120 C 8.447 14.798,8.512 14.723,9.538 13.688 C 10.553 12.663,10.623 12.600,10.680 12.670 C 10.713 12.711,11.523 13.569,12.480 14.577 " stroke="none" fill-rule="evenodd" fill="black"></path></svg>