<svg xmlns="http://www.w3.org/2000/svg" width="24" height="24" viewBox="0 0 24 24" fill="none" stroke="currentColor" stroke-width="2" stroke-linecap="round" stroke-linejoin="round"><path d="M2.670 2.061 C 2.448 2.142,2.250 2.309,2.128 2.516 C 2.036 2.672,2.020 2.745,2.021 3.000 C 2.021 3.213,2.043 3.341,2.095 3.440 C 2.136 3.517,2.718 4.132,3.389 4.806 L 4.610 6.031 4.393 6.094 C 3.952 6.223,3.432 6.661,3.216 7.088 C 2.927 7.658,2.930 8.349,3.225 8.930 C 3.361 9.199,3.801 9.639,4.070 9.775 C 4.508 9.997,5.038 10.059,5.492 9.940 C 5.852 9.847,6.118 9.690,6.404 9.404 C 6.676 9.132,6.836 8.871,6.919 8.563 L 6.967 8.387 7.750 9.170 L 8.534 9.954 8.392 10.267 C 7.931 11.286,7.870 12.304,8.212 13.300 C 8.481 14.081,9.006 14.794,9.661 15.264 C 10.302 15.724,11.171 16.000,11.980 16.000 C 12.625 16.000,13.123 15.889,13.732 15.609 L 14.045 15.465 15.127 16.547 L 16.209 17.629 15.895 17.838 C 14.655 18.659,12.974 19.092,11.512 18.966 C 9.256 18.773,7.355 17.661,6.118 15.812 C 5.582 15.011,5.254 14.199,5.052 13.179 C 4.924 12.531,4.821 12.337,4.503 12.141 C 4.329 12.034,4.272 12.020,4.002 12.021 C 3.743 12.022,3.670 12.039,3.510 12.132 C 3.157 12.339,2.978 12.689,3.014 13.103 C 3.088 13.947,3.477 15.188,3.947 16.080 C 5.357 18.755,7.857 20.493,10.920 20.925 C 11.455 21.000,12.736 20.989,13.280 20.905 C 14.809 20.667,16.289 20.066,17.381 19.239 L 17.631 19.050 18.985 20.408 C 19.730 21.154,20.421 21.814,20.520 21.873 C 20.673 21.964,20.746 21.980,21.000 21.980 C 21.257 21.980,21.327 21.964,21.492 21.867 C 21.968 21.587,22.139 20.967,21.865 20.508 C 21.810 20.416,17.665 16.243,12.653 11.235 C 4.231 2.820,3.525 2.125,3.343 2.065 C 3.107 1.987,2.874 1.986,2.670 2.061 M11.520 3.027 C 10.542 3.070,9.404 3.325,8.520 3.698 C 8.110 3.871,7.944 4.004,7.818 4.261 C 7.533 4.843,7.831 5.479,8.476 5.666 C 8.726 5.739,8.802 5.723,9.600 5.429 C 11.117 4.869,13.033 4.899,14.580 5.507 C 16.345 6.200,17.861 7.700,18.555 9.440 C 18.717 9.847,18.898 10.497,18.980 10.971 C 19.061 11.441,19.198 11.675,19.497 11.859 C 19.671 11.966,19.729 11.980,20.000 11.980 C 20.271 11.980,20.329 11.966,20.502 11.859 C 20.734 11.716,20.899 11.492,20.967 11.229 C 21.010 11.067,21.006 10.972,20.945 10.609 C 20.636 8.771,19.764 7.069,18.448 5.734 C 17.111 4.378,15.439 3.504,13.522 3.159 C 13.169 3.095,11.870 2.981,11.800 3.008 C 11.789 3.012,11.663 3.021,11.520 3.027 M13.069 8.323 C 12.717 8.407,12.444 8.664,12.342 9.005 C 12.264 9.268,12.264 9.350,12.344 9.589 C 12.440 9.875,12.566 10.014,12.930 10.235 C 13.324 10.473,13.541 10.689,13.742 11.040 C 13.939 11.385,14.060 11.511,14.300 11.625 C 14.989 11.950,15.794 11.377,15.706 10.625 C 15.642 10.083,14.951 9.159,14.277 8.713 C 13.753 8.367,13.384 8.248,13.069 8.323 M12.411 13.965 C 12.231 14.006,11.714 14.001,11.521 13.957 C 10.739 13.777,10.078 13.022,10.014 12.236 C 10.000 12.069,10.002 11.828,10.018 11.700 L 10.047 11.468 11.284 12.704 C 12.465 13.884,12.516 13.941,12.411 13.965 M18.670 14.061 C 18.448 14.142,18.250 14.309,18.128 14.516 C 18.036 14.672,18.020 14.746,18.020 15.003 C 18.020 15.271,18.034 15.329,18.141 15.503 C 18.287 15.740,18.577 15.946,18.817 15.982 C 18.987 16.007,18.993 16.013,19.018 16.179 C 19.053 16.417,19.245 16.699,19.465 16.839 C 20.102 17.243,20.930 16.826,20.988 16.072 C 21.011 15.775,20.927 15.370,20.782 15.083 C 20.646 14.816,20.297 14.449,20.017 14.281 C 19.607 14.034,19.009 13.936,18.670 14.061 " stroke="none" fill-rule="evenodd" fill="black"></path></svg>