<svg xmlns="http://www.w3.org/2000/svg" width="24" height="24" viewBox="0 0 24 24" fill="none" stroke="currentColor" stroke-width="2" stroke-linecap="round" stroke-linejoin="round"><path d="M11.400 2.044 C 9.761 2.229,8.261 3.290,7.526 4.785 C 7.143 5.563,7.020 6.129,7.021 7.100 C 7.023 7.850,7.057 8.138,7.227 8.820 C 7.485 9.856,8.044 10.965,8.696 11.734 L 8.922 12.000 7.407 12.000 C 5.761 12.000,5.657 12.011,5.382 12.221 C 5.302 12.282,5.187 12.415,5.128 12.516 C 5.037 12.672,5.020 12.746,5.020 13.000 C 5.020 13.256,5.036 13.328,5.131 13.489 C 5.256 13.702,5.449 13.864,5.670 13.943 C 5.789 13.986,6.351 13.997,8.409 13.998 L 10.998 14.000 11.009 17.653 L 11.020 21.306 11.141 21.503 C 11.543 22.156,12.457 22.156,12.859 21.503 L 12.980 21.306 12.991 17.653 L 13.002 14.000 15.591 13.998 C 17.649 13.997,18.211 13.986,18.330 13.943 C 18.551 13.864,18.744 13.702,18.869 13.489 C 18.964 13.328,18.980 13.256,18.980 13.000 C 18.980 12.746,18.963 12.672,18.872 12.516 C 18.813 12.415,18.698 12.282,18.618 12.221 C 18.343 12.011,18.239 12.000,16.593 12.000 L 15.078 12.000 15.304 11.734 C 16.779 9.995,17.382 7.319,16.732 5.400 C 16.198 3.822,14.850 2.573,13.240 2.162 C 12.669 2.016,12.019 1.974,11.400 2.044 M12.861 4.129 C 13.804 4.405,14.583 5.183,14.875 6.139 C 14.959 6.414,14.973 6.544,14.976 7.040 C 14.981 8.167,14.706 9.067,14.053 10.057 C 13.610 10.730,12.796 11.473,12.128 11.816 C 11.996 11.884,11.994 11.883,11.737 11.740 C 10.681 11.149,9.738 10.013,9.306 8.809 C 9.107 8.256,9.027 7.760,9.026 7.080 C 9.026 6.534,9.037 6.422,9.124 6.139 C 9.458 5.052,10.371 4.245,11.499 4.040 C 11.832 3.980,12.500 4.023,12.861 4.129 " stroke="none" fill-rule="evenodd" fill="black"></path></svg>