<svg xmlns="http://www.w3.org/2000/svg" width="24" height="24" viewBox="0 0 24 24" fill="none" stroke="currentColor" stroke-width="2" stroke-linecap="round" stroke-linejoin="round"><path d="M19.695 3.057 C 19.466 3.129,19.256 3.299,19.128 3.516 L 19.020 3.700 19.008 5.350 L 18.997 7.000 17.998 7.000 L 17.000 7.000 17.000 5.650 C 16.999 4.313,16.998 4.298,16.905 4.100 C 16.722 3.714,16.419 3.520,16.000 3.520 C 15.581 3.520,15.278 3.714,15.095 4.100 C 15.002 4.298,15.001 4.313,15.000 5.650 L 15.000 7.000 14.002 7.000 L 13.005 7.000 12.992 5.850 L 12.980 4.700 12.871 4.514 C 12.479 3.848,11.521 3.848,11.129 4.514 L 11.020 4.700 11.008 5.850 L 10.995 7.000 9.998 7.000 L 9.000 7.000 9.000 6.150 C 8.999 5.339,8.995 5.291,8.905 5.100 C 8.722 4.714,8.419 4.520,8.000 4.520 C 7.581 4.520,7.278 4.714,7.095 5.100 C 7.005 5.291,7.001 5.339,7.000 6.150 L 7.000 7.000 6.003 7.000 L 5.007 7.000 4.993 6.350 C 4.981 5.726,4.976 5.693,4.871 5.514 C 4.479 4.848,3.521 4.848,3.129 5.514 L 3.020 5.700 3.020 8.003 L 3.020 10.306 3.141 10.503 C 3.543 11.156,4.457 11.156,4.859 10.503 C 4.979 10.308,4.980 10.300,4.993 9.653 L 5.007 9.000 6.003 9.000 L 7.000 9.000 7.000 9.850 C 7.001 10.661,7.005 10.709,7.095 10.900 C 7.276 11.281,7.595 11.488,8.000 11.488 C 8.405 11.488,8.724 11.281,8.905 10.900 C 8.995 10.709,8.999 10.661,9.000 9.850 L 9.000 9.000 10.000 9.000 L 10.999 9.000 11.010 15.153 L 11.020 21.306 11.141 21.503 C 11.209 21.613,11.346 21.756,11.452 21.828 C 11.923 22.144,12.554 21.999,12.859 21.503 L 12.980 21.306 12.990 15.153 L 13.001 9.000 14.000 9.000 L 15.000 9.000 15.000 10.350 C 15.001 11.687,15.002 11.702,15.095 11.900 C 15.276 12.281,15.595 12.488,16.000 12.488 C 16.405 12.488,16.724 12.281,16.905 11.900 C 16.998 11.702,16.999 11.687,17.000 10.350 L 17.000 9.000 17.998 9.000 L 18.997 9.000 19.008 10.653 L 19.020 12.306 19.141 12.503 C 19.543 13.156,20.457 13.156,20.859 12.503 L 20.980 12.306 20.980 8.003 L 20.980 3.700 20.872 3.516 C 20.628 3.101,20.150 2.915,19.695 3.057 " stroke="none" fill-rule="evenodd" fill="black"></path></svg>