<svg xmlns="http://www.w3.org/2000/svg" width="24" height="24" viewBox="0 0 24 24" fill="none" stroke="currentColor" stroke-width="2" stroke-linecap="round" stroke-linejoin="round"><path d="M5.695 14.057 C 5.466 14.129,5.256 14.299,5.128 14.516 L 5.020 14.700 5.020 16.503 L 5.020 18.306 5.141 18.503 C 5.543 19.156,6.457 19.156,6.859 18.503 L 6.980 18.306 6.980 16.503 L 6.980 14.700 6.872 14.516 C 6.628 14.101,6.150 13.915,5.695 14.057 M9.695 17.057 C 9.466 17.129,9.256 17.299,9.128 17.516 C 9.036 17.672,9.020 17.745,9.021 18.000 C 9.022 18.332,9.101 18.533,9.306 18.728 C 9.785 19.181,10.580 19.046,10.893 18.460 C 11.025 18.211,11.015 17.760,10.872 17.516 C 10.628 17.101,10.150 16.915,9.695 17.057 M13.695 17.057 C 13.466 17.129,13.256 17.299,13.128 17.516 C 13.036 17.672,13.020 17.745,13.021 18.000 C 13.022 18.332,13.101 18.533,13.306 18.728 C 13.785 19.181,14.580 19.046,14.893 18.460 C 15.025 18.211,15.015 17.760,14.872 17.516 C 14.628 17.101,14.150 16.915,13.695 17.057 M17.695 17.057 C 17.466 17.129,17.256 17.299,17.128 17.516 C 17.036 17.672,17.020 17.745,17.021 18.000 C 17.022 18.332,17.101 18.533,17.306 18.728 C 17.785 19.181,18.580 19.046,18.893 18.460 C 19.025 18.211,19.015 17.760,18.872 17.516 C 18.628 17.101,18.150 16.915,17.695 17.057 " stroke="none" fill-rule="evenodd" fill="black"></path></svg>