<svg xmlns="http://www.w3.org/2000/svg" width="24" height="24" viewBox="0 0 24 24" fill="none" stroke="currentColor" stroke-width="2" stroke-linecap="round" stroke-linejoin="round"><path d="M2.670 2.061 C 2.448 2.142,2.250 2.309,2.128 2.516 C 2.037 2.672,2.020 2.746,2.020 3.000 C 2.020 3.413,2.089 3.515,2.933 4.356 L 3.632 5.051 3.446 5.179 C 3.344 5.250,3.206 5.394,3.140 5.500 L 3.020 5.694 3.020 8.000 L 3.020 10.306 3.141 10.503 C 3.543 11.156,4.457 11.156,4.859 10.503 C 4.979 10.308,4.980 10.300,4.993 9.653 L 5.007 9.000 6.003 9.000 L 7.000 9.000 7.000 9.850 C 7.001 10.661,7.005 10.709,7.095 10.900 C 7.276 11.281,7.595 11.488,8.000 11.488 C 8.268 11.488,8.492 11.402,8.675 11.228 C 8.842 11.070,8.999 10.746,9.000 10.560 C 9.000 10.423,9.021 10.441,9.999 11.419 L 10.999 12.418 11.009 16.862 L 11.020 21.306 11.141 21.503 C 11.543 22.156,12.457 22.156,12.859 21.503 L 12.980 21.306 12.991 17.864 L 13.002 14.422 16.711 18.127 C 18.751 20.165,20.483 21.865,20.560 21.905 C 20.659 21.957,20.788 21.979,21.000 21.979 C 21.258 21.980,21.327 21.964,21.492 21.867 C 21.968 21.587,22.139 20.967,21.865 20.508 C 21.810 20.416,17.665 16.243,12.653 11.235 C 4.231 2.820,3.525 2.125,3.343 2.065 C 3.107 1.987,2.874 1.986,2.670 2.061 M19.695 3.057 C 19.466 3.129,19.256 3.299,19.128 3.516 L 19.020 3.700 19.008 5.350 L 18.997 7.000 17.998 7.000 L 17.000 7.000 17.000 5.650 C 16.999 4.313,16.998 4.298,16.905 4.100 C 16.722 3.714,16.419 3.520,16.000 3.520 C 15.581 3.520,15.278 3.714,15.095 4.100 C 15.002 4.298,15.001 4.313,15.000 5.650 L 15.000 7.000 14.002 7.000 L 13.005 7.000 12.992 5.850 L 12.980 4.700 12.871 4.514 C 12.479 3.848,11.521 3.848,11.129 4.514 L 11.020 4.700 11.008 6.440 C 10.998 7.984,11.004 8.199,11.063 8.354 C 11.155 8.595,11.343 8.796,11.580 8.906 C 11.779 8.999,11.788 8.999,13.390 9.000 L 15.000 9.000 15.000 10.350 C 15.001 11.687,15.002 11.702,15.095 11.900 C 15.276 12.281,15.595 12.488,16.000 12.488 C 16.405 12.488,16.724 12.281,16.905 11.900 C 16.998 11.702,16.999 11.687,17.000 10.350 L 17.000 9.000 17.998 9.000 L 18.997 9.000 19.008 10.653 L 19.020 12.306 19.141 12.503 C 19.543 13.156,20.457 13.156,20.859 12.503 L 20.980 12.306 20.980 8.003 L 20.980 3.700 20.872 3.516 C 20.628 3.101,20.150 2.915,19.695 3.057 M5.300 6.720 L 5.578 7.000 5.289 7.000 L 5.000 7.000 5.000 6.720 C 5.000 6.566,5.005 6.440,5.011 6.440 C 5.017 6.440,5.147 6.566,5.300 6.720 " stroke="none" fill-rule="evenodd" fill="black"></path></svg>