<svg xmlns="http://www.w3.org/2000/svg" width="24" height="24" viewBox="0 0 24 24" fill="none" stroke="currentColor" stroke-width="2" stroke-linecap="round" stroke-linejoin="round"><path d="M5.873 7.060 C 5.136 7.200,4.468 7.565,3.958 8.105 C 3.562 8.524,3.318 8.949,3.130 9.548 L 3.020 9.900 3.020 13.103 L 3.020 16.306 3.141 16.503 C 3.543 17.156,4.457 17.156,4.859 16.503 L 4.980 16.307 4.992 15.153 L 5.005 14.000 6.500 14.000 L 7.995 14.000 8.008 15.153 L 8.020 16.307 8.141 16.503 C 8.543 17.156,9.457 17.156,9.859 16.503 L 9.980 16.306 9.991 13.283 C 9.998 11.344,9.988 10.164,9.961 9.992 C 9.748 8.610,8.722 7.468,7.378 7.118 C 6.959 7.009,6.280 6.983,5.873 7.060 M11.695 7.056 C 11.465 7.130,11.255 7.300,11.128 7.516 L 11.020 7.700 11.020 12.003 L 11.020 16.306 11.141 16.503 C 11.543 17.156,12.457 17.156,12.859 16.503 L 12.980 16.307 12.992 15.157 L 13.004 14.007 14.292 13.991 C 15.502 13.976,15.597 13.969,15.860 13.884 C 16.841 13.563,17.581 12.817,17.886 11.840 C 17.974 11.558,17.980 11.479,17.980 10.500 C 17.980 9.521,17.974 9.442,17.886 9.160 C 17.581 8.181,16.827 7.423,15.861 7.123 C 15.541 7.024,15.535 7.023,13.700 7.013 C 12.259 7.005,11.824 7.014,11.695 7.056 M19.695 7.057 C 19.466 7.129,19.256 7.299,19.128 7.516 L 19.020 7.700 19.020 12.003 L 19.020 16.306 19.141 16.503 C 19.543 17.156,20.457 17.156,20.859 16.503 L 20.980 16.306 20.980 12.003 L 20.980 7.700 20.872 7.516 C 20.628 7.101,20.150 6.915,19.695 7.057 M7.119 9.143 C 7.415 9.278,7.727 9.592,7.867 9.896 C 7.978 10.137,7.979 10.150,7.993 11.070 L 8.007 12.000 6.500 12.000 L 4.993 12.000 5.006 11.070 C 5.020 10.149,5.022 10.138,5.132 9.900 C 5.329 9.477,5.750 9.129,6.174 9.039 C 6.441 8.982,6.870 9.030,7.119 9.143 M15.310 9.061 C 15.589 9.144,15.856 9.411,15.939 9.690 C 16.020 9.961,16.024 11.028,15.945 11.290 C 15.872 11.533,15.707 11.740,15.484 11.872 L 15.300 11.980 14.150 11.992 L 13.000 12.005 13.000 10.502 L 13.000 9.000 14.053 9.000 C 14.879 9.000,15.150 9.013,15.310 9.061 " stroke="none" fill-rule="evenodd" fill="black"></path></svg>