<svg xmlns="http://www.w3.org/2000/svg" width="24" height="24" viewBox="0 0 24 24" fill="none" stroke="currentColor" stroke-width="2" stroke-linecap="round" stroke-linejoin="round"><path d="M10.873 2.060 C 10.136 2.200,9.468 2.565,8.958 3.105 C 8.562 3.524,8.318 3.949,8.130 4.548 L 8.020 4.900 8.020 8.603 L 8.020 12.306 8.141 12.503 C 8.543 13.156,9.457 13.156,9.859 12.503 L 9.980 12.306 10.000 8.723 L 10.020 5.140 10.133 4.896 C 10.276 4.586,10.586 4.278,10.900 4.134 C 11.106 4.039,11.192 4.023,11.500 4.023 C 11.808 4.023,11.894 4.039,12.100 4.134 C 12.416 4.279,12.725 4.586,12.862 4.891 C 12.957 5.103,12.973 5.202,12.998 5.723 C 13.024 6.286,13.032 6.325,13.144 6.508 C 13.543 7.156,14.458 7.154,14.859 6.503 C 14.974 6.316,14.981 6.282,14.994 5.798 C 15.002 5.519,14.988 5.163,14.964 5.007 C 14.747 3.607,13.728 2.470,12.378 2.118 C 11.959 2.009,11.280 1.983,10.873 2.060 M11.695 8.056 C 11.051 8.261,10.799 9.040,11.198 9.591 C 11.263 9.681,11.403 9.805,11.508 9.867 L 11.700 9.980 15.280 10.000 L 18.860 10.020 19.100 10.132 C 19.417 10.280,19.725 10.587,19.865 10.896 C 19.960 11.105,19.976 11.192,19.976 11.500 C 19.976 11.808,19.960 11.895,19.865 12.104 C 19.724 12.415,19.416 12.721,19.100 12.866 C 18.888 12.963,18.794 12.979,18.300 13.002 C 17.992 13.017,17.689 13.049,17.627 13.074 C 17.435 13.152,17.241 13.324,17.128 13.516 C 17.037 13.672,17.020 13.746,17.020 14.000 C 17.020 14.256,17.036 14.328,17.131 14.489 C 17.362 14.882,17.623 14.996,18.300 14.998 C 19.094 15.000,19.634 14.870,20.240 14.531 C 20.709 14.268,21.268 13.709,21.531 13.240 C 22.666 11.214,21.630 8.746,19.378 8.111 C 19.060 8.022,19.055 8.021,15.460 8.013 C 12.582 8.006,11.827 8.014,11.695 8.056 M4.873 9.063 C 4.147 9.194,3.470 9.562,2.958 10.105 C 2.559 10.527,2.314 10.957,2.133 11.548 C 2.038 11.863,2.026 11.963,2.026 12.500 C 2.026 13.037,2.038 13.137,2.133 13.452 C 2.500 14.655,3.334 15.490,4.548 15.869 L 4.900 15.979 8.510 15.991 C 10.904 15.999,12.173 15.989,12.274 15.962 C 12.498 15.901,12.739 15.711,12.867 15.492 C 12.964 15.327,12.980 15.257,12.980 15.000 C 12.980 14.746,12.963 14.672,12.872 14.516 C 12.761 14.328,12.572 14.158,12.373 14.070 C 12.286 14.032,11.427 14.015,8.700 14.000 L 5.140 13.980 4.900 13.868 C 4.583 13.720,4.275 13.413,4.135 13.104 C 4.040 12.895,4.024 12.808,4.024 12.500 C 4.024 12.192,4.040 12.105,4.135 11.896 C 4.275 11.588,4.584 11.278,4.894 11.137 C 5.100 11.043,5.199 11.027,5.718 11.003 C 6.263 10.977,6.322 10.966,6.496 10.865 C 7.248 10.424,7.120 9.305,6.290 9.055 C 6.055 8.984,5.282 8.989,4.873 9.063 M14.695 11.057 C 14.466 11.129,14.256 11.299,14.128 11.516 L 14.020 11.700 14.000 15.280 L 13.980 18.860 13.868 19.100 C 13.721 19.415,13.413 19.724,13.104 19.867 C 12.894 19.965,12.811 19.980,12.500 19.980 C 12.189 19.980,12.106 19.965,11.896 19.867 C 11.587 19.725,11.278 19.414,11.137 19.106 C 11.043 18.900,11.027 18.801,11.003 18.282 C 10.977 17.742,10.966 17.677,10.868 17.510 C 10.480 16.848,9.520 16.850,9.129 17.514 C 9.021 17.698,9.020 17.707,9.023 18.400 C 9.026 19.039,9.036 19.131,9.134 19.452 C 9.724 21.392,11.674 22.429,13.588 21.821 C 14.606 21.497,15.497 20.606,15.821 19.588 C 15.875 19.417,15.938 19.156,15.961 19.008 C 15.988 18.835,15.998 17.496,15.991 15.220 L 15.980 11.700 15.872 11.516 C 15.628 11.101,15.150 10.915,14.695 11.057 " stroke="none" fill-rule="evenodd" fill="black"></path></svg>