<svg xmlns="http://www.w3.org/2000/svg" width="24" height="24" viewBox="0 0 24 24" fill="none" stroke="currentColor" stroke-width="2" stroke-linecap="round" stroke-linejoin="round"><path d="M14.402 2.061 C 12.989 2.317,11.804 3.584,11.257 5.425 L 11.149 5.789 10.664 5.559 C 9.807 5.150,9.256 5.021,8.400 5.027 C 7.772 5.032,7.306 5.120,6.779 5.335 C 4.789 6.146,3.338 8.195,3.037 10.619 C 3.003 10.896,2.996 11.318,3.013 11.999 C 3.086 14.829,3.586 16.773,4.779 18.860 C 5.471 20.070,6.066 20.760,6.880 21.297 C 8.304 22.236,9.951 22.229,11.600 21.278 C 11.789 21.169,11.968 21.080,11.999 21.080 C 12.030 21.080,12.229 21.179,12.441 21.300 C 13.716 22.029,14.950 22.185,16.160 21.772 C 17.517 21.309,18.588 20.181,19.612 18.138 C 20.554 16.258,21.001 14.125,20.998 11.520 C 20.997 10.324,20.809 9.449,20.337 8.449 C 19.962 7.653,19.585 7.105,19.032 6.552 C 17.548 5.068,15.594 4.626,13.772 5.362 C 13.600 5.431,13.435 5.498,13.405 5.510 C 13.323 5.543,13.381 5.392,13.590 5.028 C 13.973 4.362,14.369 4.072,14.994 4.001 C 15.390 3.956,15.624 3.837,15.802 3.591 C 16.207 3.032,15.947 2.253,15.290 2.055 C 15.067 1.988,14.796 1.990,14.402 2.061 M9.162 7.100 C 9.692 7.237,10.256 7.558,10.860 8.065 C 11.326 8.456,11.528 8.540,12.000 8.540 C 12.472 8.540,12.674 8.456,13.140 8.065 C 14.167 7.203,15.077 6.881,16.000 7.054 C 17.119 7.264,18.174 8.293,18.692 9.680 C 18.972 10.433,19.040 11.132,18.964 12.474 C 18.822 14.941,18.374 16.429,17.194 18.345 C 16.859 18.889,16.369 19.415,15.980 19.649 C 15.251 20.087,14.462 20.090,13.640 19.658 C 12.846 19.240,12.668 19.167,12.329 19.121 C 11.726 19.039,11.299 19.141,10.608 19.535 C 10.119 19.813,9.705 19.952,9.275 19.983 C 8.992 20.003,8.890 19.992,8.614 19.910 C 8.171 19.780,7.889 19.603,7.477 19.199 C 7.099 18.827,6.851 18.470,6.398 17.644 C 5.529 16.061,5.162 14.667,5.036 12.473 C 4.958 11.112,5.034 10.384,5.335 9.606 C 5.869 8.226,6.969 7.200,8.100 7.025 C 8.318 6.992,8.900 7.033,9.162 7.100 M8.183 8.057 C 7.938 8.148,7.490 8.472,7.178 8.783 C 6.517 9.444,6.163 10.222,6.037 11.294 C 5.966 11.893,6.000 12.273,6.144 12.508 C 6.540 13.151,7.459 13.153,7.853 12.512 C 7.955 12.347,7.973 12.269,8.004 11.852 C 8.081 10.819,8.256 10.436,8.868 9.968 C 9.039 9.837,9.220 9.687,9.268 9.634 C 9.482 9.403,9.553 8.933,9.422 8.618 C 9.339 8.420,9.147 8.217,8.943 8.112 C 8.739 8.007,8.387 7.981,8.183 8.057 " stroke="none" fill-rule="evenodd" fill="black"></path></svg>