<svg xmlns="http://www.w3.org/2000/svg" width="24" height="24" viewBox="0 0 24 24" fill="none" stroke="currentColor" stroke-width="2" stroke-linecap="round" stroke-linejoin="round"><path d="M4.477 3.073 C 3.806 3.249,3.238 3.823,3.060 4.508 C 3.010 4.698,3.000 5.123,3.000 7.000 C 3.000 9.455,3.003 9.491,3.225 9.930 C 3.361 10.199,3.801 10.639,4.070 10.775 C 4.509 10.997,4.545 11.000,7.000 11.000 C 9.455 11.000,9.491 10.997,9.930 10.775 C 10.196 10.640,10.638 10.200,10.771 9.937 C 10.996 9.494,11.000 9.442,10.999 7.014 C 10.999 4.601,10.991 4.496,10.781 4.083 C 10.646 3.816,10.297 3.449,10.017 3.281 C 9.564 3.008,9.524 3.005,7.000 3.005 C 4.992 3.005,4.711 3.012,4.477 3.073 M16.695 3.057 C 16.466 3.129,16.256 3.299,16.128 3.516 L 16.020 3.700 16.008 4.850 L 15.995 6.000 14.944 6.000 C 13.797 6.000,13.643 6.022,13.382 6.221 C 13.302 6.282,13.187 6.415,13.128 6.516 C 13.037 6.672,13.020 6.746,13.020 7.000 C 13.020 7.256,13.036 7.328,13.131 7.489 C 13.192 7.592,13.304 7.725,13.381 7.783 C 13.642 7.983,13.738 7.996,14.908 7.998 L 15.995 8.000 16.008 9.153 L 16.020 10.307 16.141 10.503 C 16.543 11.156,17.457 11.156,17.859 10.503 L 17.980 10.307 17.992 9.153 L 18.005 8.000 19.092 7.998 C 20.262 7.996,20.358 7.983,20.619 7.783 C 20.696 7.725,20.808 7.592,20.869 7.489 C 20.964 7.328,20.980 7.256,20.980 7.000 C 20.980 6.746,20.963 6.672,20.872 6.516 C 20.813 6.415,20.698 6.282,20.618 6.221 C 20.357 6.022,20.203 6.000,19.056 6.000 L 18.005 6.000 17.992 4.850 L 17.980 3.700 17.872 3.516 C 17.628 3.101,17.150 2.915,16.695 3.057 M9.000 7.000 L 9.000 9.000 7.000 9.000 L 5.000 9.000 5.000 7.000 L 5.000 5.000 7.000 5.000 L 9.000 5.000 9.000 7.000 M4.477 13.073 C 3.806 13.249,3.238 13.823,3.060 14.508 C 3.010 14.698,3.000 15.123,3.000 17.000 C 3.000 19.455,3.003 19.491,3.225 19.930 C 3.361 20.199,3.801 20.639,4.070 20.775 C 4.509 20.997,4.545 21.000,7.000 21.000 C 9.455 21.000,9.491 20.997,9.930 20.775 C 10.196 20.640,10.638 20.200,10.771 19.937 C 10.996 19.494,11.000 19.442,10.999 17.014 C 10.999 14.601,10.991 14.496,10.781 14.083 C 10.646 13.816,10.297 13.449,10.017 13.281 C 9.564 13.008,9.524 13.005,7.000 13.005 C 4.992 13.005,4.711 13.012,4.477 13.073 M14.477 13.073 C 13.806 13.249,13.238 13.823,13.060 14.508 C 13.010 14.698,13.000 15.123,13.000 17.000 C 13.000 19.455,13.003 19.491,13.225 19.930 C 13.361 20.199,13.801 20.639,14.070 20.775 C 14.509 20.997,14.545 21.000,17.000 21.000 C 19.455 21.000,19.491 20.997,19.930 20.775 C 20.196 20.640,20.638 20.200,20.771 19.937 C 20.996 19.494,21.000 19.442,20.999 17.014 C 20.999 14.601,20.991 14.496,20.781 14.083 C 20.646 13.816,20.297 13.449,20.017 13.281 C 19.564 13.008,19.524 13.005,17.000 13.005 C 14.992 13.005,14.711 13.012,14.477 13.073 M9.000 17.000 L 9.000 19.000 7.000 19.000 L 5.000 19.000 5.000 17.000 L 5.000 15.000 7.000 15.000 L 9.000 15.000 9.000 17.000 M19.000 17.000 L 19.000 19.000 17.000 19.000 L 15.000 19.000 15.000 17.000 L 15.000 15.000 17.000 15.000 L 19.000 15.000 19.000 17.000 " stroke="none" fill-rule="evenodd" fill="black"></path></svg>