<svg xmlns="http://www.w3.org/2000/svg" width="24" height="24" viewBox="0 0 24 24" fill="none" stroke="currentColor" stroke-width="2" stroke-linecap="round" stroke-linejoin="round"><path d="M2.670 2.061 C 2.448 2.142,2.250 2.309,2.128 2.516 C 2.037 2.672,2.020 2.746,2.020 3.000 C 2.020 3.359,2.108 3.537,2.451 3.873 L 2.668 4.086 2.494 4.352 C 2.026 5.063,1.887 5.903,2.098 6.734 C 2.318 7.604,2.898 8.315,3.701 8.702 L 3.998 8.845 4.009 13.712 L 4.020 18.580 4.114 18.860 C 4.443 19.840,5.160 20.557,6.140 20.886 L 6.420 20.980 11.800 20.993 C 15.797 21.002,17.252 20.993,17.460 20.958 C 17.949 20.876,18.456 20.662,18.797 20.394 L 18.894 20.317 19.657 21.074 C 20.077 21.490,20.483 21.864,20.560 21.905 C 20.660 21.957,20.787 21.979,21.000 21.979 C 21.258 21.980,21.327 21.964,21.492 21.867 C 21.968 21.587,22.139 20.967,21.865 20.508 C 21.810 20.416,17.665 16.243,12.653 11.235 C 4.231 2.820,3.525 2.125,3.343 2.065 C 3.107 1.987,2.874 1.986,2.670 2.061 M7.695 3.057 C 7.465 3.129,7.256 3.299,7.128 3.516 C 7.037 3.672,7.020 3.746,7.020 4.000 C 7.020 4.256,7.036 4.328,7.131 4.489 C 7.256 4.702,7.449 4.864,7.670 4.943 C 7.793 4.987,8.853 4.997,13.463 4.998 C 19.819 5.000,19.372 4.978,19.697 5.303 C 19.970 5.577,20.057 5.919,19.945 6.290 C 19.872 6.533,19.707 6.740,19.484 6.872 L 19.300 6.980 15.520 7.000 C 12.617 7.015,11.714 7.032,11.627 7.070 C 11.428 7.158,11.239 7.328,11.128 7.516 C 11.037 7.672,11.020 7.746,11.020 8.000 C 11.020 8.256,11.036 8.328,11.131 8.489 C 11.256 8.702,11.449 8.864,11.670 8.943 C 11.790 8.986,12.433 8.997,14.909 8.998 L 17.998 9.000 18.009 12.153 L 18.020 15.306 18.141 15.503 C 18.543 16.156,19.457 16.156,19.859 15.503 L 19.980 15.306 20.000 12.076 L 20.020 8.845 20.340 8.684 C 21.072 8.314,21.637 7.640,21.886 6.840 C 22.021 6.406,22.021 5.594,21.886 5.160 C 21.582 4.183,20.832 3.428,19.861 3.121 L 19.540 3.020 13.700 3.012 C 8.991 3.006,7.828 3.015,7.695 3.057 M4.860 6.280 L 5.579 7.000 5.220 7.000 C 4.783 7.000,4.614 6.956,4.393 6.788 C 4.089 6.556,3.937 6.106,4.040 5.741 C 4.068 5.641,4.102 5.560,4.116 5.560 C 4.129 5.560,4.464 5.884,4.860 6.280 M8.606 10.026 L 9.632 11.051 9.446 11.179 C 9.344 11.250,9.206 11.394,9.140 11.500 C 9.034 11.671,9.020 11.730,9.020 11.997 C 9.020 12.256,9.036 12.327,9.131 12.489 C 9.192 12.592,9.304 12.725,9.381 12.783 C 9.635 12.977,9.753 12.996,10.700 12.998 L 11.580 13.000 14.510 15.930 C 16.121 17.541,17.440 18.871,17.440 18.885 C 17.440 18.994,16.973 19.003,11.900 18.991 L 6.700 18.980 6.516 18.872 C 6.415 18.813,6.284 18.700,6.225 18.623 C 5.989 18.314,6.000 18.557,6.000 13.575 L 6.000 9.000 6.790 9.000 L 7.579 9.000 8.606 10.026 " stroke="none" fill-rule="evenodd" fill="black"></path></svg>