<svg xmlns="http://www.w3.org/2000/svg" width="24" height="24" viewBox="0 0 24 24" fill="none" stroke="currentColor" stroke-width="2" stroke-linecap="round" stroke-linejoin="round"><path d="M7.358 2.061 C 6.023 2.269,4.857 3.186,4.316 4.455 C 4.035 5.113,4.027 5.184,4.003 7.253 L 3.980 9.126 3.720 9.217 C 2.350 9.697,1.370 10.816,1.083 12.227 C 0.700 14.105,1.756 16.031,3.540 16.711 C 3.716 16.778,3.891 16.843,3.930 16.855 C 3.994 16.876,4.000 16.968,4.002 18.029 C 4.004 19.267,4.016 19.356,4.217 19.619 C 4.275 19.696,4.408 19.808,4.511 19.869 C 4.693 19.976,4.724 19.980,5.347 19.993 L 5.993 20.007 6.007 20.657 C 6.020 21.300,6.021 21.309,6.141 21.503 C 6.209 21.613,6.346 21.756,6.452 21.828 C 6.923 22.144,7.554 21.999,7.859 21.503 C 7.979 21.308,7.980 21.300,7.993 20.653 L 8.007 20.000 12.000 20.000 L 15.993 20.000 16.007 20.653 C 16.020 21.300,16.021 21.308,16.141 21.503 C 16.543 22.156,17.457 22.156,17.859 21.503 C 17.979 21.309,17.980 21.300,17.993 20.657 L 18.007 20.007 18.653 19.993 C 19.276 19.980,19.307 19.976,19.489 19.869 C 19.592 19.808,19.725 19.696,19.783 19.619 C 19.984 19.356,19.996 19.267,19.998 18.029 C 20.000 16.968,20.006 16.876,20.070 16.855 C 21.342 16.450,22.237 15.646,22.704 14.488 C 23.560 12.365,22.464 9.982,20.280 9.217 L 20.020 9.126 19.997 7.253 C 19.972 5.207,19.971 5.199,19.714 4.540 C 19.199 3.220,18.007 2.270,16.605 2.058 C 16.063 1.977,7.884 1.979,7.358 2.061 M16.523 4.073 C 17.240 4.260,17.841 4.916,17.960 5.640 C 17.987 5.803,17.999 6.502,17.991 7.513 L 17.980 9.126 17.720 9.217 C 17.317 9.359,16.922 9.572,16.562 9.844 C 16.228 10.095,15.785 10.573,15.630 10.849 L 15.545 11.000 12.000 11.000 L 8.455 11.000 8.370 10.849 C 8.215 10.573,7.772 10.095,7.438 9.844 C 7.078 9.572,6.683 9.359,6.280 9.217 L 6.020 9.126 6.009 7.473 C 6.000 6.090,6.008 5.773,6.061 5.535 C 6.210 4.854,6.795 4.251,7.477 4.073 C 7.718 4.010,8.102 4.005,12.000 4.005 C 15.898 4.005,16.282 4.010,16.523 4.073 M5.478 11.062 C 5.956 11.171,6.389 11.485,6.686 11.937 C 6.961 12.357,6.971 12.420,6.997 13.943 L 7.020 15.307 7.141 15.503 C 7.543 16.156,8.457 16.156,8.859 15.503 L 8.980 15.307 8.992 14.153 L 9.005 13.000 12.000 13.000 L 14.995 13.000 15.008 14.153 L 15.020 15.307 15.141 15.503 C 15.543 16.156,16.457 16.156,16.859 15.503 L 16.980 15.307 17.003 13.943 C 17.028 12.420,17.038 12.359,17.314 11.937 C 17.810 11.181,18.661 10.848,19.523 11.073 C 20.262 11.266,20.850 11.924,20.967 12.690 C 21.067 13.343,20.873 13.933,20.403 14.404 C 20.024 14.784,19.545 15.000,19.078 15.000 C 18.668 15.000,18.320 15.189,18.128 15.516 L 18.020 15.700 18.008 16.850 L 17.995 18.000 12.000 18.000 L 6.005 18.000 5.992 16.850 L 5.980 15.700 5.872 15.516 C 5.680 15.189,5.332 15.000,4.922 15.000 C 4.112 15.000,3.287 14.341,3.073 13.523 C 2.891 12.825,3.080 12.112,3.583 11.598 C 4.073 11.098,4.769 10.901,5.478 11.062 " stroke="none" fill-rule="evenodd" fill="black"></path></svg>