<svg xmlns="http://www.w3.org/2000/svg" width="24" height="24" viewBox="0 0 24 24" fill="none" stroke="currentColor" stroke-width="2" stroke-linecap="round" stroke-linejoin="round"><path d="M2.670 2.061 C 2.448 2.142,2.250 2.309,2.128 2.516 C 2.036 2.672,2.020 2.745,2.021 3.000 C 2.021 3.213,2.043 3.341,2.095 3.440 C 2.136 3.517,2.586 4.003,3.095 4.520 L 4.020 5.460 4.000 7.293 L 3.980 9.126 3.720 9.217 C 2.350 9.697,1.370 10.816,1.083 12.227 C 0.700 14.105,1.756 16.031,3.540 16.711 C 3.716 16.778,3.892 16.843,3.930 16.855 C 3.994 16.876,4.000 16.968,4.002 18.029 C 4.004 19.267,4.016 19.356,4.217 19.619 C 4.275 19.696,4.408 19.808,4.511 19.869 C 4.693 19.976,4.724 19.980,5.347 19.993 L 5.993 20.007 6.007 20.657 C 6.020 21.300,6.021 21.309,6.141 21.503 C 6.543 22.156,7.457 22.156,7.859 21.503 C 7.979 21.308,7.980 21.300,7.993 20.653 L 8.007 20.000 12.000 20.000 L 15.993 20.000 16.007 20.653 C 16.020 21.300,16.021 21.308,16.141 21.503 C 16.543 22.156,17.457 22.156,17.859 21.503 C 17.979 21.308,17.980 21.300,17.993 20.653 L 18.007 20.000 18.294 20.000 L 18.581 20.000 19.460 20.883 C 19.944 21.368,20.421 21.814,20.520 21.873 C 20.672 21.964,20.746 21.980,21.000 21.980 C 21.257 21.980,21.327 21.964,21.492 21.867 C 21.968 21.587,22.139 20.967,21.865 20.508 C 21.810 20.416,17.665 16.243,12.653 11.235 C 4.231 2.820,3.525 2.125,3.343 2.065 C 3.107 1.987,2.874 1.986,2.670 2.061 M7.420 2.044 C 6.708 2.147,6.364 2.368,6.224 2.814 C 6.135 3.096,6.156 3.316,6.298 3.596 C 6.404 3.805,6.528 3.913,6.807 4.040 C 7.016 4.134,7.171 4.139,7.540 4.061 C 7.778 4.010,8.459 4.002,12.040 4.003 C 15.897 4.004,16.283 4.011,16.523 4.073 C 17.240 4.260,17.841 4.916,17.960 5.640 C 17.987 5.803,17.999 6.502,17.991 7.515 L 17.980 9.129 17.752 9.199 C 17.198 9.371,16.483 9.832,16.054 10.296 C 15.738 10.636,15.483 11.042,15.291 11.505 C 15.109 11.945,15.087 12.316,15.228 12.583 C 15.436 12.976,15.888 13.208,16.283 13.123 C 16.394 13.099,16.533 13.054,16.592 13.023 C 16.790 12.919,16.992 12.666,17.104 12.380 C 17.262 11.981,17.414 11.749,17.667 11.524 C 18.149 11.095,18.761 10.924,19.369 11.050 C 19.799 11.139,20.087 11.290,20.381 11.580 C 20.689 11.884,20.823 12.117,20.927 12.530 C 21.092 13.181,20.933 13.816,20.475 14.336 C 20.260 14.580,20.037 14.730,19.636 14.899 C 19.271 15.053,19.159 15.141,19.015 15.386 C 18.630 16.040,19.124 16.859,19.900 16.856 C 20.411 16.854,21.243 16.404,21.820 15.820 C 22.846 14.779,23.225 13.386,22.863 11.983 C 22.529 10.687,21.513 9.608,20.240 9.200 L 20.020 9.129 19.997 7.255 C 19.972 5.206,19.971 5.199,19.714 4.540 C 19.287 3.446,18.387 2.595,17.245 2.204 C 16.664 2.005,16.532 2.000,11.940 2.005 C 9.586 2.008,7.552 2.025,7.420 2.044 M7.800 9.220 L 9.580 11.000 9.017 11.000 L 8.455 11.000 8.370 10.849 C 8.215 10.573,7.772 10.095,7.438 9.844 C 7.078 9.572,6.683 9.359,6.280 9.217 L 6.020 9.126 6.009 8.283 C 6.003 7.819,6.003 7.440,6.009 7.440 C 6.015 7.440,6.821 8.241,7.800 9.220 M5.478 11.062 C 5.956 11.171,6.389 11.485,6.686 11.937 C 6.961 12.357,6.971 12.420,6.997 13.943 L 7.020 15.307 7.141 15.503 C 7.543 16.156,8.457 16.156,8.859 15.503 L 8.980 15.307 8.992 14.153 L 9.005 13.000 10.292 13.000 L 11.580 13.000 14.080 15.500 L 16.580 18.000 11.292 18.000 L 6.005 18.000 5.992 16.850 L 5.980 15.700 5.872 15.516 C 5.680 15.189,5.332 15.000,4.922 15.000 C 4.112 15.000,3.287 14.341,3.073 13.523 C 2.891 12.825,3.080 12.112,3.583 11.598 C 4.073 11.098,4.769 10.901,5.478 11.062 " stroke="none" fill-rule="evenodd" fill="black"></path></svg>