<svg xmlns="http://www.w3.org/2000/svg" width="24" height="24" viewBox="0 0 24 24" fill="none" stroke="currentColor" stroke-width="2" stroke-linecap="round" stroke-linejoin="round"><path d="M7.358 2.061 C 5.731 2.315,4.417 3.584,4.083 5.227 C 4.005 5.609,4.000 5.766,4.000 7.889 L 4.000 10.145 3.670 10.313 C 2.922 10.693,2.365 11.354,2.114 12.160 L 2.020 12.460 2.020 15.000 L 2.020 17.540 2.114 17.840 C 2.483 19.022,3.511 19.876,4.695 19.983 L 4.993 20.010 5.007 20.658 C 5.020 21.300,5.021 21.309,5.141 21.503 C 5.543 22.156,6.457 22.156,6.859 21.503 C 6.979 21.308,6.980 21.300,6.993 20.653 L 7.007 20.000 12.000 20.000 L 16.993 20.000 17.007 20.653 C 17.020 21.300,17.021 21.308,17.141 21.503 C 17.543 22.156,18.457 22.156,18.859 21.503 C 18.979 21.309,18.980 21.300,18.993 20.658 L 19.007 20.010 19.305 19.983 C 20.489 19.876,21.517 19.022,21.886 17.840 L 21.980 17.540 21.980 15.000 L 21.980 12.460 21.886 12.160 C 21.635 11.354,21.078 10.693,20.330 10.313 L 20.000 10.145 20.000 7.889 C 20.000 5.361,19.987 5.214,19.705 4.516 C 19.172 3.197,18.001 2.269,16.605 2.058 C 16.063 1.977,7.884 1.979,7.358 2.061 M16.523 4.073 C 17.022 4.203,17.516 4.599,17.772 5.071 C 17.987 5.468,17.999 5.621,17.999 7.983 L 18.000 10.145 17.670 10.313 C 16.931 10.689,16.372 11.347,16.118 12.140 C 16.042 12.379,16.026 12.536,16.010 13.210 L 15.991 14.000 12.000 14.000 L 8.009 14.000 7.990 13.210 C 7.974 12.536,7.958 12.379,7.882 12.140 C 7.628 11.347,7.069 10.689,6.330 10.313 L 6.000 10.145 6.000 7.971 C 6.000 5.541,6.009 5.441,6.265 5.014 C 6.546 4.543,6.988 4.201,7.477 4.073 C 7.718 4.010,8.102 4.005,12.000 4.005 C 15.898 4.005,16.282 4.010,16.523 4.073 M5.308 12.060 C 5.438 12.099,5.571 12.179,5.679 12.283 C 5.975 12.571,5.977 12.582,6.000 14.020 L 6.020 15.300 6.131 15.489 C 6.256 15.702,6.449 15.864,6.670 15.943 C 6.892 16.022,17.108 16.022,17.330 15.943 C 17.551 15.864,17.744 15.702,17.869 15.489 L 17.980 15.300 18.000 14.020 C 18.023 12.582,18.025 12.571,18.321 12.283 C 18.490 12.120,18.777 12.000,19.000 12.000 C 19.402 12.000,19.827 12.312,19.939 12.690 C 20.025 12.978,20.030 17.007,19.945 17.290 C 19.872 17.533,19.707 17.740,19.484 17.872 L 19.300 17.980 12.000 17.980 L 4.700 17.980 4.516 17.872 C 4.415 17.813,4.284 17.700,4.225 17.623 C 4.000 17.327,4.000 17.332,4.000 15.022 C 4.000 12.586,3.997 12.609,4.304 12.303 C 4.582 12.024,4.916 11.944,5.308 12.060 " stroke="none" fill-rule="evenodd" fill="black"></path></svg>