<svg xmlns="http://www.w3.org/2000/svg" width="24" height="24" viewBox="0 0 24 24" fill="none" stroke="currentColor" stroke-width="2" stroke-linecap="round" stroke-linejoin="round"><path d="M14.695 6.057 C 14.051 6.258,13.799 7.040,14.198 7.591 C 14.263 7.681,14.403 7.805,14.508 7.867 C 14.699 7.980,14.703 7.980,15.620 8.005 C 16.431 8.027,16.578 8.041,16.861 8.126 C 17.811 8.411,18.584 9.184,18.875 10.139 C 18.958 10.412,18.973 10.542,18.973 11.000 C 18.973 11.458,18.958 11.588,18.875 11.861 C 18.586 12.811,17.844 13.556,16.860 13.886 L 16.580 13.980 12.000 13.991 L 7.420 14.002 8.626 12.791 C 9.289 12.125,9.864 11.517,9.905 11.440 C 9.957 11.341,9.979 11.213,9.979 11.000 C 9.980 10.745,9.964 10.672,9.872 10.516 C 9.618 10.084,9.138 9.906,8.657 10.065 C 8.479 10.124,8.252 10.338,6.347 12.235 C 5.166 13.412,4.187 14.419,4.127 14.520 C 4.036 14.673,4.020 14.745,4.021 15.000 C 4.021 15.212,4.043 15.341,4.095 15.440 C 4.192 15.626,8.292 19.737,8.508 19.865 C 8.967 20.139,9.587 19.968,9.867 19.492 C 9.964 19.327,9.980 19.258,9.979 19.000 C 9.979 18.787,9.957 18.659,9.905 18.560 C 9.864 18.483,9.290 17.876,8.628 17.211 L 7.424 16.002 12.062 15.989 C 16.345 15.977,16.723 15.971,17.000 15.905 C 18.544 15.538,19.756 14.614,20.433 13.288 C 20.838 12.494,20.980 11.899,20.980 11.000 C 20.980 10.552,20.960 10.286,20.907 10.040 C 20.625 8.721,19.863 7.576,18.800 6.874 C 18.046 6.375,17.396 6.135,16.552 6.043 C 16.012 5.983,14.902 5.992,14.695 6.057 " stroke="none" fill-rule="evenodd" fill="black"></path></svg>