<svg xmlns="http://www.w3.org/2000/svg" width="24" height="24" viewBox="0 0 24 24" fill="none" stroke="currentColor" stroke-width="2" stroke-linecap="round" stroke-linejoin="round"><path d="M14.670 7.061 C 14.448 7.142,14.250 7.309,14.128 7.516 C 14.036 7.672,14.020 7.745,14.021 8.000 C 14.021 8.213,14.043 8.341,14.095 8.440 C 14.136 8.517,14.711 9.125,15.374 9.790 L 16.578 11.000 10.735 11.000 C 5.900 11.000,4.861 11.009,4.710 11.055 C 4.467 11.128,4.260 11.293,4.128 11.516 C 4.037 11.672,4.020 11.746,4.020 12.000 C 4.020 12.256,4.036 12.328,4.131 12.489 C 4.256 12.702,4.449 12.864,4.670 12.943 C 4.793 12.987,5.892 12.997,10.699 12.998 L 16.578 13.000 15.374 14.210 C 14.711 14.876,14.138 15.481,14.101 15.555 C 13.872 16.009,14.056 16.601,14.508 16.867 C 14.673 16.964,14.742 16.980,15.000 16.979 C 15.212 16.979,15.341 16.957,15.440 16.905 C 15.517 16.865,16.531 15.884,17.694 14.726 C 19.996 12.433,19.999 12.429,19.999 12.000 C 19.999 11.569,19.999 11.569,17.674 9.255 C 15.750 7.340,15.521 7.124,15.343 7.065 C 15.107 6.987,14.874 6.986,14.670 7.061 " stroke="none" fill-rule="evenodd" fill="black"></path></svg>