<svg xmlns="http://www.w3.org/2000/svg" width="24" height="24" viewBox="0 0 24 24" fill="none" stroke="currentColor" stroke-width="2" stroke-linecap="round" stroke-linejoin="round"><path d="M6.640 5.068 C 6.486 5.121,6.153 5.437,4.295 7.295 C 2.251 9.338,2.125 9.472,2.060 9.675 C 1.888 10.205,2.155 10.759,2.670 10.943 C 2.893 11.022,17.107 11.022,17.330 10.943 C 17.551 10.864,17.744 10.702,17.869 10.489 C 17.964 10.328,17.980 10.256,17.980 10.000 C 17.980 9.746,17.963 9.672,17.872 9.516 C 17.740 9.293,17.533 9.128,17.290 9.055 C 17.139 9.009,16.100 9.000,11.265 9.000 L 5.422 9.000 6.626 7.790 C 7.289 7.125,7.864 6.517,7.905 6.440 C 7.957 6.341,7.979 6.213,7.979 6.000 C 7.980 5.745,7.964 5.672,7.872 5.516 C 7.617 5.083,7.122 4.903,6.640 5.068 M6.695 13.057 C 6.466 13.129,6.256 13.299,6.128 13.516 C 6.037 13.672,6.020 13.746,6.020 14.000 C 6.020 14.256,6.036 14.328,6.131 14.489 C 6.256 14.702,6.449 14.864,6.670 14.943 C 6.793 14.987,7.892 14.997,12.699 14.998 L 18.578 15.000 17.374 16.210 C 16.711 16.875,16.138 17.481,16.101 17.555 C 15.872 18.009,16.056 18.601,16.508 18.867 C 16.673 18.964,16.743 18.980,17.000 18.980 C 17.254 18.980,17.328 18.963,17.480 18.873 C 17.581 18.813,18.589 17.833,19.765 16.653 C 21.744 14.666,21.874 14.527,21.940 14.325 C 22.118 13.777,21.832 13.218,21.290 13.055 C 21.027 12.976,6.947 12.978,6.695 13.057 " stroke="none" fill-rule="evenodd" fill="black"></path></svg>