<svg xmlns="http://www.w3.org/2000/svg" width="24" height="24" viewBox="0 0 24 24" fill="none" stroke="currentColor" stroke-width="2" stroke-linecap="round" stroke-linejoin="round"><path d="M2.670 8.061 C 2.448 8.142,2.250 8.309,2.128 8.516 C 2.036 8.672,2.020 8.745,2.021 9.000 C 2.021 9.213,2.043 9.341,2.095 9.440 C 2.136 9.517,2.711 10.125,3.374 10.790 L 4.578 12.000 3.374 13.210 C 2.711 13.876,2.138 14.481,2.101 14.555 C 1.872 15.009,2.056 15.601,2.508 15.867 C 2.673 15.964,2.743 15.980,3.000 15.980 C 3.254 15.980,3.327 15.964,3.480 15.873 C 3.579 15.814,4.281 15.143,5.040 14.383 L 6.420 13.000 12.498 13.000 L 18.577 13.000 17.873 13.710 C 17.486 14.101,17.139 14.481,17.101 14.555 C 16.872 15.008,17.056 15.601,17.508 15.867 C 17.673 15.964,17.742 15.980,18.000 15.979 C 18.212 15.979,18.341 15.957,18.440 15.905 C 18.517 15.865,19.306 15.109,20.194 14.226 C 21.957 12.472,21.999 12.420,21.999 12.000 C 21.999 11.578,21.960 11.530,20.175 9.756 C 18.716 8.307,18.519 8.124,18.343 8.066 C 17.863 7.906,17.382 8.084,17.128 8.516 C 17.036 8.672,17.020 8.745,17.021 9.000 C 17.021 9.213,17.043 9.340,17.096 9.440 C 17.136 9.517,17.486 9.899,17.873 10.290 L 18.577 11.000 12.500 11.000 L 6.423 11.000 4.982 9.566 C 3.702 8.293,3.518 8.124,3.343 8.066 C 3.108 7.987,2.875 7.986,2.670 8.061 " stroke="none" fill-rule="evenodd" fill="black"></path></svg>