<svg xmlns="http://www.w3.org/2000/svg" width="24" height="24" viewBox="0 0 24 24" fill="none" stroke="currentColor" stroke-width="2" stroke-linecap="round" stroke-linejoin="round"><path d="M5.695 2.057 C 5.466 2.129,5.256 2.299,5.128 2.516 L 5.020 2.700 5.020 6.003 L 5.020 9.306 5.141 9.503 C 5.543 10.156,6.457 10.156,6.859 9.503 L 6.980 9.306 6.980 6.003 L 6.980 2.700 6.872 2.516 C 6.628 2.101,6.150 1.915,5.695 2.057 M15.670 7.061 C 15.448 7.142,15.250 7.309,15.128 7.516 C 15.036 7.672,15.020 7.745,15.021 8.000 C 15.021 8.213,15.043 8.341,15.095 8.440 C 15.136 8.517,15.711 9.125,16.374 9.790 L 17.578 11.000 13.179 11.000 C 8.463 11.000,8.335 11.005,7.755 11.204 C 6.366 11.679,5.372 12.805,5.082 14.232 C 5.000 14.630,4.999 14.730,5.009 17.974 L 5.020 21.306 5.141 21.503 C 5.543 22.156,6.457 22.156,6.859 21.503 L 6.980 21.306 7.001 17.943 C 7.024 14.185,7.007 14.406,7.314 13.937 C 7.508 13.642,7.712 13.446,8.014 13.265 C 8.469 12.992,8.308 13.000,13.187 13.000 L 17.578 13.000 16.374 14.210 C 15.711 14.876,15.138 15.481,15.101 15.555 C 14.872 16.009,15.056 16.601,15.508 16.867 C 15.673 16.964,15.742 16.980,16.000 16.979 C 16.212 16.979,16.341 16.957,16.440 16.905 C 16.517 16.865,17.531 15.884,18.694 14.726 C 20.996 12.433,20.999 12.429,20.999 12.000 C 20.999 11.569,20.999 11.569,18.674 9.255 C 16.750 7.340,16.521 7.124,16.343 7.065 C 16.107 6.987,15.874 6.986,15.670 7.061 " stroke="none" fill-rule="evenodd" fill="black"></path></svg>