<svg xmlns="http://www.w3.org/2000/svg" width="24" height="24" viewBox="0 0 24 24" fill="none" stroke="currentColor" stroke-width="2" stroke-linecap="round" stroke-linejoin="round"><path d="M6.640 4.068 C 6.486 4.121,6.148 4.441,4.326 6.255 C 2.001 8.569,2.001 8.569,2.001 9.000 C 2.001 9.429,2.004 9.433,4.306 11.726 C 5.469 12.884,6.483 13.865,6.560 13.905 C 6.659 13.957,6.788 13.979,7.000 13.979 C 7.258 13.980,7.327 13.964,7.492 13.867 C 7.714 13.737,7.901 13.498,7.965 13.264 C 8.019 13.061,7.989 12.733,7.899 12.555 C 7.862 12.481,7.289 11.876,6.626 11.210 L 5.422 10.000 6.321 10.000 C 7.637 10.001,8.101 10.086,8.840 10.464 C 9.869 10.991,10.627 11.973,10.908 13.145 C 10.965 13.382,10.977 13.822,10.997 16.363 L 11.020 19.306 11.141 19.503 C 11.543 20.156,12.457 20.156,12.859 19.503 L 12.980 19.306 13.003 16.363 C 13.023 13.822,13.035 13.382,13.092 13.145 C 13.373 11.973,14.131 10.991,15.160 10.464 C 15.899 10.086,16.363 10.001,17.679 10.000 L 18.578 10.000 17.374 11.210 C 16.711 11.876,16.136 12.483,16.095 12.560 C 16.043 12.659,16.021 12.787,16.021 13.000 C 16.020 13.258,16.036 13.327,16.133 13.492 C 16.263 13.714,16.502 13.901,16.736 13.965 C 16.939 14.019,17.267 13.989,17.445 13.899 C 17.519 13.862,18.531 12.884,19.694 11.726 C 21.996 9.433,21.999 9.429,21.999 9.000 C 21.999 8.569,21.999 8.569,19.674 6.255 C 17.750 4.340,17.521 4.124,17.343 4.065 C 16.862 3.906,16.382 4.084,16.128 4.516 C 16.036 4.672,16.020 4.745,16.021 5.000 C 16.021 5.213,16.043 5.341,16.095 5.440 C 16.136 5.517,16.711 6.125,17.374 6.790 L 18.578 8.000 17.699 8.001 C 16.395 8.003,15.799 8.077,15.060 8.329 C 13.970 8.701,12.929 9.449,12.249 10.350 C 12.129 10.510,12.017 10.640,12.000 10.640 C 11.983 10.640,11.871 10.510,11.750 10.350 C 11.070 9.450,10.026 8.699,8.940 8.329 C 8.201 8.077,7.605 8.003,6.301 8.001 L 5.422 8.000 6.626 6.790 C 7.289 6.125,7.864 5.517,7.905 5.440 C 7.957 5.341,7.979 5.213,7.979 5.000 C 7.980 4.745,7.964 4.672,7.872 4.516 C 7.617 4.083,7.121 3.903,6.640 4.068 " stroke="none" fill-rule="evenodd" fill="black"></path></svg>