<svg xmlns="http://www.w3.org/2000/svg" width="24" height="24" viewBox="0 0 24 24" fill="none" stroke="currentColor" stroke-width="2" stroke-linecap="round" stroke-linejoin="round"><path d="M11.499 2.040 C 10.363 2.246,9.460 3.049,9.114 4.160 C 8.979 4.594,8.979 5.406,9.114 5.840 C 9.421 6.826,10.174 7.579,11.160 7.886 C 11.594 8.021,12.406 8.021,12.840 7.886 C 13.826 7.579,14.579 6.826,14.886 5.840 C 15.021 5.406,15.021 4.594,14.886 4.160 C 14.581 3.179,13.810 2.407,12.861 2.129 C 12.500 2.023,11.832 1.980,11.499 2.040 M12.310 4.061 C 12.688 4.173,13.000 4.598,13.000 5.001 C 13.000 5.331,12.784 5.696,12.484 5.872 C 12.328 5.963,12.254 5.980,12.000 5.980 C 11.746 5.980,11.672 5.963,11.516 5.872 C 10.935 5.530,10.833 4.774,11.304 4.303 C 11.583 4.024,11.916 3.944,12.310 4.061 M11.695 10.057 C 11.466 10.129,11.256 10.299,11.128 10.516 L 11.020 10.700 11.009 14.636 L 10.998 18.572 10.269 17.853 C 9.655 17.247,9.509 17.123,9.343 17.067 C 8.865 16.905,8.383 17.083,8.128 17.516 C 8.036 17.672,8.020 17.745,8.021 18.000 C 8.021 18.212,8.043 18.341,8.095 18.440 C 8.135 18.517,8.891 19.306,9.774 20.194 C 11.528 21.957,11.580 21.999,12.000 21.999 C 12.420 21.999,12.472 21.957,14.226 20.194 C 15.109 19.306,15.865 18.517,15.905 18.440 C 15.957 18.341,15.979 18.212,15.979 18.000 C 15.980 17.745,15.964 17.672,15.872 17.516 C 15.617 17.083,15.135 16.905,14.657 17.067 C 14.491 17.123,14.345 17.247,13.731 17.853 L 13.002 18.572 12.991 14.636 L 12.980 10.700 12.872 10.516 C 12.628 10.101,12.150 9.915,11.695 10.057 " stroke="none" fill-rule="evenodd" fill="black"></path></svg>