<svg xmlns="http://www.w3.org/2000/svg" width="24" height="24" viewBox="0 0 24 24" fill="none" stroke="currentColor" stroke-width="2" stroke-linecap="round" stroke-linejoin="round"><path d="M6.580 6.094 C 6.343 6.204,6.155 6.405,6.064 6.646 C 6.004 6.805,5.999 7.235,6.009 11.563 L 6.020 16.306 6.141 16.503 C 6.543 17.156,7.457 17.156,7.859 16.503 L 7.980 16.306 7.991 12.864 L 8.002 9.422 12.211 13.627 C 14.526 15.940,16.483 17.865,16.560 17.905 C 16.659 17.957,16.788 17.979,17.000 17.979 C 17.258 17.980,17.327 17.964,17.492 17.867 C 17.714 17.737,17.901 17.498,17.965 17.264 C 18.019 17.062,17.989 16.734,17.899 16.555 C 17.862 16.481,15.939 14.526,13.626 12.210 L 9.421 8.000 12.800 7.998 C 15.519 7.997,16.209 7.986,16.330 7.943 C 16.551 7.864,16.744 7.702,16.869 7.489 C 16.964 7.328,16.980 7.256,16.980 7.000 C 16.980 6.746,16.963 6.672,16.872 6.516 C 16.813 6.415,16.698 6.282,16.618 6.221 C 16.317 5.992,16.507 6.000,11.444 6.000 L 6.780 6.001 6.580 6.094 " stroke="none" fill-rule="evenodd" fill="black"></path></svg>