<svg xmlns="http://www.w3.org/2000/svg" width="24" height="24" viewBox="0 0 24 24" fill="none" stroke="currentColor" stroke-width="2" stroke-linecap="round" stroke-linejoin="round"><path d="M7.186 5.079 C 6.695 5.236,6.259 5.655,6.093 6.130 C 6.024 6.330,6.020 6.629,6.020 12.323 L 6.020 18.306 6.141 18.503 C 6.543 19.156,7.457 19.156,7.859 18.503 L 7.980 18.306 8.000 12.873 L 8.020 7.440 11.800 11.220 L 15.580 15.000 14.236 15.000 C 12.775 15.000,12.653 15.015,12.382 15.221 C 12.302 15.282,12.187 15.415,12.128 15.516 C 12.037 15.672,12.020 15.746,12.020 16.000 C 12.020 16.256,12.036 16.328,12.131 16.489 C 12.256 16.702,12.449 16.864,12.670 16.943 C 12.790 16.986,13.368 16.997,15.520 16.998 L 18.220 16.999 18.420 16.906 C 18.657 16.796,18.845 16.595,18.936 16.354 C 18.996 16.197,19.002 15.911,18.991 13.440 L 18.980 10.700 18.871 10.514 C 18.479 9.848,17.521 9.848,17.129 10.514 L 17.020 10.700 17.008 12.138 L 16.996 13.575 12.868 9.452 C 10.268 6.856,8.673 5.292,8.560 5.228 C 8.148 4.996,7.624 4.939,7.186 5.079 " stroke="none" fill-rule="evenodd" fill="black"></path></svg>