<svg xmlns="http://www.w3.org/2000/svg" width="24" height="24" viewBox="0 0 24 24" fill="none" stroke="currentColor" stroke-width="2" stroke-linecap="round" stroke-linejoin="round"><path d="M2.580 2.094 C 2.343 2.204,2.155 2.405,2.064 2.646 C 2.004 2.803,1.998 3.089,2.009 5.563 L 2.020 8.306 2.141 8.503 C 2.543 9.156,3.457 9.156,3.859 8.503 L 3.980 8.306 3.992 6.865 L 4.004 5.424 6.985 8.402 C 8.625 10.040,10.042 11.479,10.135 11.600 C 10.375 11.911,10.524 12.169,10.690 12.560 C 10.985 13.255,10.972 13.055,10.997 17.403 L 11.020 21.306 11.141 21.503 C 11.543 22.156,12.457 22.156,12.859 21.503 L 12.980 21.306 13.002 17.383 C 13.024 13.545,13.026 13.453,13.109 13.140 C 13.263 12.563,13.508 12.064,13.865 11.600 C 13.958 11.479,15.375 10.040,17.015 8.402 L 19.996 5.424 20.008 6.865 L 20.020 8.306 20.141 8.503 C 20.543 9.156,21.457 9.156,21.859 8.503 L 21.980 8.306 21.991 5.563 C 22.002 3.089,21.996 2.803,21.936 2.646 C 21.845 2.405,21.657 2.204,21.420 2.094 L 21.220 2.001 18.556 2.000 C 15.666 2.000,15.673 1.999,15.382 2.221 C 15.302 2.282,15.187 2.415,15.128 2.516 C 15.037 2.672,15.020 2.746,15.020 3.000 C 15.020 3.256,15.036 3.328,15.131 3.489 C 15.192 3.592,15.304 3.725,15.381 3.783 C 15.650 3.989,15.716 3.996,17.199 3.998 L 18.577 4.000 15.496 7.090 C 13.757 8.834,12.329 10.298,12.219 10.450 C 12.112 10.598,12.014 10.720,12.000 10.720 C 11.986 10.720,11.888 10.598,11.781 10.450 C 11.671 10.298,10.243 8.834,8.504 7.090 L 5.423 4.000 6.801 3.998 C 8.284 3.996,8.350 3.989,8.619 3.783 C 8.696 3.725,8.808 3.592,8.869 3.489 C 8.964 3.328,8.980 3.256,8.980 3.000 C 8.980 2.746,8.963 2.672,8.872 2.516 C 8.813 2.415,8.698 2.282,8.618 2.221 C 8.327 1.999,8.334 2.000,5.444 2.000 L 2.780 2.001 2.580 2.094 " stroke="none" fill-rule="evenodd" fill="black"></path></svg>