<svg xmlns="http://www.w3.org/2000/svg" width="24" height="24" viewBox="0 0 24 24" fill="none" stroke="currentColor" stroke-width="2" stroke-linecap="round" stroke-linejoin="round"><path d="M5.499 3.043 C 4.380 3.233,3.461 4.048,3.114 5.160 L 3.020 5.460 3.020 8.883 L 3.020 12.306 3.141 12.503 C 3.543 13.156,4.457 13.156,4.859 12.503 L 4.980 12.306 5.000 9.023 C 5.022 5.344,5.001 5.594,5.321 5.283 C 5.633 4.981,5.174 5.000,12.000 5.000 C 18.826 5.000,18.367 4.981,18.679 5.283 C 18.999 5.594,18.978 5.344,19.000 9.023 L 19.020 12.306 19.141 12.503 C 19.543 13.156,20.457 13.156,20.859 12.503 L 20.980 12.306 20.980 8.883 L 20.980 5.460 20.886 5.160 C 20.581 4.182,19.832 3.428,18.861 3.121 L 18.540 3.020 12.120 3.014 C 8.589 3.011,5.609 3.024,5.499 3.043 M5.640 14.069 C 5.488 14.121,5.205 14.384,3.825 15.755 C 2.040 17.530,2.001 17.578,2.001 18.000 C 2.001 18.420,2.043 18.472,3.806 20.226 C 4.694 21.109,5.481 21.862,5.555 21.899 C 6.010 22.128,6.601 21.944,6.867 21.492 C 6.964 21.327,6.980 21.258,6.979 21.000 C 6.979 20.787,6.957 20.660,6.904 20.560 C 6.864 20.483,6.514 20.101,6.127 19.710 L 5.423 19.000 7.801 18.998 C 9.684 18.997,10.211 18.985,10.330 18.943 C 10.551 18.864,10.744 18.702,10.869 18.489 C 10.964 18.328,10.980 18.256,10.980 18.000 C 10.980 17.746,10.963 17.672,10.872 17.516 C 10.813 17.415,10.698 17.282,10.618 17.221 C 10.330 17.002,10.307 17.000,7.765 17.000 L 5.423 17.000 6.127 16.290 C 6.514 15.900,6.864 15.517,6.904 15.440 C 6.957 15.340,6.979 15.213,6.979 15.000 C 6.980 14.745,6.964 14.672,6.872 14.516 C 6.617 14.083,6.121 13.902,5.640 14.069 M17.670 14.061 C 17.448 14.142,17.250 14.309,17.128 14.516 C 17.036 14.672,17.020 14.745,17.021 15.000 C 17.021 15.213,17.043 15.340,17.096 15.440 C 17.136 15.517,17.486 15.900,17.873 16.290 L 18.577 17.000 16.235 17.000 C 13.693 17.000,13.670 17.002,13.382 17.221 C 13.302 17.282,13.187 17.415,13.128 17.516 C 13.037 17.672,13.020 17.746,13.020 18.000 C 13.020 18.256,13.036 18.328,13.131 18.489 C 13.256 18.702,13.449 18.864,13.670 18.943 C 13.789 18.985,14.316 18.997,16.199 18.998 L 18.577 19.000 17.873 19.710 C 17.486 20.101,17.139 20.481,17.101 20.555 C 16.872 21.008,17.056 21.601,17.508 21.867 C 17.673 21.964,17.742 21.980,18.000 21.979 C 18.212 21.979,18.341 21.957,18.440 21.905 C 18.517 21.865,19.306 21.109,20.194 20.226 C 21.957 18.472,21.999 18.420,21.999 18.000 C 21.999 17.578,21.960 17.530,20.175 15.756 C 18.716 14.307,18.519 14.124,18.343 14.066 C 18.108 13.987,17.875 13.986,17.670 14.061 " stroke="none" fill-rule="evenodd" fill="black"></path></svg>