<svg xmlns="http://www.w3.org/2000/svg" width="24" height="24" viewBox="0 0 24 24" fill="none" stroke="currentColor" stroke-width="2" stroke-linecap="round" stroke-linejoin="round"><path d="M3.695 3.057 C 3.466 3.129,3.256 3.299,3.128 3.516 C 3.037 3.672,3.020 3.746,3.020 4.000 C 3.020 4.256,3.036 4.328,3.131 4.489 C 3.256 4.702,3.449 4.864,3.670 4.943 C 3.893 5.022,20.107 5.022,20.330 4.943 C 20.551 4.864,20.744 4.702,20.869 4.489 C 20.964 4.328,20.980 4.256,20.980 4.000 C 20.980 3.746,20.963 3.672,20.872 3.516 C 20.740 3.293,20.533 3.128,20.290 3.055 C 20.027 2.976,3.947 2.978,3.695 3.057 M11.580 9.096 C 11.422 9.172,10.940 9.634,9.274 11.306 C 8.116 12.469,7.138 13.481,7.101 13.555 C 6.872 14.010,7.056 14.601,7.508 14.867 C 7.673 14.964,7.742 14.980,8.000 14.979 C 8.213 14.979,8.341 14.957,8.440 14.905 C 8.517 14.864,9.124 14.289,9.789 13.627 L 10.998 12.423 11.009 16.365 L 11.020 20.306 11.141 20.503 C 11.543 21.156,12.457 21.156,12.859 20.503 L 12.980 20.306 12.991 16.365 L 13.002 12.423 14.211 13.627 C 14.876 14.289,15.483 14.864,15.560 14.905 C 15.659 14.957,15.787 14.979,16.000 14.979 C 16.258 14.980,16.327 14.964,16.492 14.867 C 16.714 14.737,16.901 14.498,16.965 14.264 C 17.019 14.061,16.989 13.733,16.899 13.555 C 16.862 13.481,15.884 12.469,14.726 11.306 C 12.433 9.004,12.429 9.001,12.000 9.001 C 11.851 9.001,11.716 9.031,11.580 9.096 " stroke="none" fill-rule="evenodd" fill="black"></path></svg>