<svg xmlns="http://www.w3.org/2000/svg" width="24" height="24" viewBox="0 0 24 24" fill="none" stroke="currentColor" stroke-width="2" stroke-linecap="round" stroke-linejoin="round"><path d="M6.580 2.096 C 6.424 2.171,6.029 2.545,4.774 3.806 C 3.891 4.694,3.135 5.483,3.095 5.560 C 3.043 5.659,3.021 5.788,3.021 6.000 C 3.020 6.258,3.036 6.327,3.133 6.492 C 3.263 6.714,3.502 6.901,3.736 6.965 C 3.939 7.019,4.267 6.989,4.445 6.899 C 4.519 6.861,4.899 6.514,5.290 6.127 L 5.999 5.424 6.010 13.365 L 6.020 21.306 6.141 21.503 C 6.209 21.613,6.346 21.756,6.452 21.828 C 6.923 22.144,7.554 21.999,7.859 21.503 L 7.980 21.306 7.990 13.365 L 8.001 5.424 8.710 6.127 C 9.101 6.514,9.483 6.864,9.560 6.904 C 9.660 6.957,9.787 6.979,10.000 6.979 C 10.258 6.980,10.327 6.964,10.492 6.867 C 10.714 6.737,10.901 6.498,10.965 6.264 C 11.019 6.061,10.989 5.733,10.899 5.555 C 10.862 5.481,10.109 4.694,9.226 3.806 C 7.971 2.545,7.576 2.171,7.420 2.096 C 7.151 1.968,6.849 1.968,6.580 2.096 M16.580 2.096 C 16.424 2.171,16.029 2.545,14.774 3.806 C 13.891 4.694,13.135 5.483,13.095 5.560 C 13.043 5.659,13.021 5.788,13.021 6.000 C 13.020 6.258,13.036 6.327,13.133 6.492 C 13.263 6.714,13.502 6.901,13.736 6.965 C 13.939 7.019,14.267 6.989,14.445 6.899 C 14.519 6.861,14.899 6.514,15.290 6.127 L 15.999 5.424 16.010 13.365 L 16.020 21.306 16.141 21.503 C 16.209 21.613,16.346 21.756,16.452 21.828 C 16.923 22.144,17.554 21.999,17.859 21.503 L 17.980 21.306 17.990 13.365 L 18.001 5.424 18.710 6.127 C 19.101 6.514,19.483 6.864,19.560 6.904 C 19.660 6.957,19.787 6.979,20.000 6.979 C 20.258 6.980,20.327 6.964,20.492 6.867 C 20.714 6.737,20.901 6.498,20.965 6.264 C 21.019 6.061,20.989 5.733,20.899 5.555 C 20.862 5.481,20.109 4.694,19.226 3.806 C 17.971 2.545,17.576 2.171,17.420 2.096 C 17.151 1.968,16.849 1.968,16.580 2.096 " stroke="none" fill-rule="evenodd" fill="black"></path></svg>