<svg xmlns="http://www.w3.org/2000/svg" width="24" height="24" viewBox="0 0 24 24" fill="none" stroke="currentColor" stroke-width="2" stroke-linecap="round" stroke-linejoin="round"><path d="M9.695 2.057 C 9.466 2.129,9.256 2.299,9.128 2.516 C 9.037 2.672,9.020 2.746,9.020 3.000 C 9.020 3.256,9.036 3.328,9.131 3.489 C 9.192 3.592,9.304 3.725,9.381 3.783 C 9.635 3.977,9.753 3.996,10.700 3.998 L 11.580 4.000 6.874 8.710 C 4.286 11.301,2.135 13.483,2.095 13.560 C 2.043 13.659,2.021 13.788,2.021 14.000 C 2.020 14.258,2.036 14.327,2.133 14.492 C 2.263 14.714,2.502 14.901,2.736 14.965 C 2.938 15.019,3.266 14.989,3.445 14.899 C 3.519 14.862,5.698 12.716,8.287 10.129 L 12.995 5.426 13.007 6.366 L 13.020 7.307 13.141 7.503 C 13.543 8.156,14.457 8.156,14.859 7.503 L 14.980 7.306 14.991 5.063 C 15.002 3.053,14.996 2.802,14.937 2.646 C 14.845 2.405,14.657 2.204,14.420 2.094 L 14.220 2.001 12.040 2.003 C 10.374 2.005,9.821 2.018,9.695 2.057 M20.640 9.068 C 20.483 9.121,19.851 9.737,15.733 13.851 L 11.005 18.573 10.993 17.637 L 10.980 16.700 10.871 16.514 C 10.479 15.848,9.521 15.848,9.129 16.514 L 9.020 16.700 9.009 18.940 C 8.998 20.948,9.004 21.198,9.063 21.354 C 9.155 21.595,9.343 21.796,9.580 21.906 L 9.780 21.999 11.980 21.998 C 13.714 21.997,14.212 21.985,14.330 21.943 C 14.551 21.864,14.744 21.702,14.869 21.489 C 14.964 21.328,14.980 21.256,14.980 21.000 C 14.980 20.746,14.963 20.672,14.872 20.516 C 14.813 20.415,14.698 20.282,14.618 20.221 C 14.366 20.029,14.188 20.000,13.264 20.000 L 12.420 20.000 17.126 15.290 C 19.714 12.699,21.865 10.517,21.905 10.440 C 21.957 10.341,21.979 10.212,21.979 10.000 C 21.980 9.745,21.964 9.672,21.872 9.516 C 21.617 9.083,21.122 8.903,20.640 9.068 " stroke="none" fill-rule="evenodd" fill="black"></path></svg>