<svg xmlns="http://www.w3.org/2000/svg" width="24" height="24" viewBox="0 0 24 24" fill="none" stroke="currentColor" stroke-width="2" stroke-linecap="round" stroke-linejoin="round"><path d="M17.695 2.057 C 17.466 2.129,17.256 2.299,17.128 2.516 L 17.020 2.700 17.008 7.260 C 17.000 10.676,17.009 11.863,17.044 11.992 C 17.104 12.209,17.388 12.531,17.593 12.612 C 17.863 12.721,18.019 12.732,18.267 12.660 C 18.565 12.574,18.879 12.272,18.954 11.999 C 18.992 11.861,19.000 10.772,18.992 7.260 L 18.980 2.700 18.872 2.516 C 18.628 2.101,18.150 1.915,17.695 2.057 M7.640 5.068 C 7.486 5.121,7.148 5.441,5.326 7.255 C 3.001 9.569,3.001 9.569,3.001 10.000 C 3.001 10.429,3.004 10.433,5.306 12.726 C 6.469 13.884,7.483 14.865,7.560 14.905 C 7.659 14.957,7.788 14.979,8.000 14.979 C 8.258 14.980,8.327 14.964,8.492 14.867 C 8.714 14.737,8.901 14.498,8.965 14.264 C 9.019 14.061,8.989 13.733,8.899 13.555 C 8.862 13.481,8.289 12.876,7.626 12.210 L 6.422 11.000 6.901 11.000 C 9.651 11.003,12.135 12.018,14.042 13.920 C 14.339 14.217,14.701 14.613,14.846 14.800 C 16.130 16.462,16.837 18.317,16.965 20.360 C 16.987 20.723,17.015 21.096,17.025 21.189 C 17.052 21.420,17.257 21.711,17.497 21.859 C 17.671 21.966,17.729 21.980,17.997 21.980 C 18.257 21.980,18.327 21.964,18.492 21.867 C 18.714 21.737,18.901 21.498,18.965 21.264 C 19.027 21.038,18.982 20.022,18.879 19.308 C 18.104 13.947,13.887 9.798,8.500 9.096 C 8.258 9.065,7.694 9.028,7.247 9.013 L 6.434 8.987 7.633 7.784 C 8.292 7.122,8.864 6.517,8.905 6.440 C 8.957 6.341,8.979 6.213,8.979 6.000 C 8.980 5.745,8.964 5.672,8.872 5.516 C 8.617 5.083,8.121 4.903,7.640 5.068 " stroke="none" fill-rule="evenodd" fill="black"></path></svg>