<svg xmlns="http://www.w3.org/2000/svg" width="24" height="24" viewBox="0 0 24 24" fill="none" stroke="currentColor" stroke-width="2" stroke-linecap="round" stroke-linejoin="round"><path d="M6.580 2.096 C 6.422 2.172,5.940 2.634,4.274 4.306 C 3.116 5.469,2.138 6.481,2.101 6.555 C 1.872 7.010,2.056 7.601,2.508 7.867 C 2.673 7.964,2.742 7.980,3.000 7.979 C 3.213 7.979,3.341 7.957,3.440 7.905 C 3.517 7.864,4.125 7.289,4.790 6.626 L 6.000 5.422 6.000 8.636 C 6.000 11.004,6.013 11.893,6.048 12.009 C 6.074 12.097,6.173 12.254,6.267 12.360 C 6.674 12.812,7.276 12.823,7.701 12.387 C 7.823 12.260,7.921 12.116,7.951 12.015 C 7.988 11.891,8.000 11.063,8.000 8.636 L 8.000 5.422 9.210 6.626 C 9.876 7.289,10.483 7.864,10.560 7.905 C 10.659 7.957,10.787 7.979,11.000 7.979 C 11.258 7.980,11.327 7.964,11.492 7.867 C 11.714 7.737,11.901 7.498,11.965 7.264 C 12.019 7.061,11.989 6.733,11.899 6.555 C 11.862 6.481,10.884 5.469,9.726 4.306 C 7.433 2.004,7.429 2.001,7.000 2.001 C 6.851 2.001,6.716 2.031,6.580 2.096 M16.670 5.061 C 16.448 5.142,16.250 5.309,16.128 5.516 C 16.036 5.672,16.020 5.745,16.021 6.000 C 16.021 6.213,16.043 6.341,16.095 6.440 C 16.136 6.517,16.708 7.122,17.367 7.784 L 18.566 8.987 17.753 9.013 C 16.220 9.062,15.038 9.292,13.690 9.803 C 10.513 11.009,7.899 13.664,6.741 16.860 C 6.270 18.160,5.998 19.618,6.002 20.820 C 6.004 21.367,6.143 21.652,6.511 21.869 C 6.673 21.964,6.744 21.980,7.003 21.980 C 7.271 21.980,7.329 21.966,7.503 21.859 C 7.743 21.711,7.948 21.420,7.975 21.189 C 7.985 21.096,8.013 20.723,8.035 20.360 C 8.189 17.897,9.185 15.694,10.940 13.940 C 12.859 12.020,15.337 11.003,18.099 11.000 L 18.578 11.000 17.374 12.210 C 16.711 12.876,16.138 13.481,16.101 13.555 C 15.872 14.009,16.056 14.601,16.508 14.867 C 16.673 14.964,16.742 14.980,17.000 14.979 C 17.212 14.979,17.341 14.957,17.440 14.905 C 17.517 14.865,18.531 13.884,19.694 12.726 C 21.996 10.433,21.999 10.429,21.999 10.000 C 21.999 9.569,21.999 9.569,19.674 7.255 C 17.750 5.340,17.521 5.124,17.343 5.065 C 17.107 4.987,16.874 4.986,16.670 5.061 " stroke="none" fill-rule="evenodd" fill="black"></path></svg>