<svg xmlns="http://www.w3.org/2000/svg" width="24" height="24" viewBox="0 0 24 24" fill="none" stroke="currentColor" stroke-width="2" stroke-linecap="round" stroke-linejoin="round"><path d="M11.580 2.096 C 11.422 2.172,10.940 2.634,9.274 4.306 C 8.116 5.469,7.138 6.481,7.101 6.555 C 6.872 7.010,7.056 7.601,7.508 7.867 C 7.673 7.964,7.742 7.980,8.000 7.979 C 8.213 7.979,8.341 7.957,8.440 7.905 C 8.517 7.864,9.125 7.289,9.790 6.626 L 11.000 5.422 11.000 7.032 C 11.000 7.918,10.981 8.818,10.957 9.032 C 10.880 9.742,10.713 10.295,10.375 10.970 C 9.930 11.858,9.349 12.516,8.413 13.193 C 7.169 14.091,6.464 14.896,5.847 16.120 C 5.388 17.031,5.144 17.847,5.038 18.824 C 5.014 19.042,5.001 19.689,5.007 20.263 L 5.020 21.307 5.141 21.503 C 5.543 22.156,6.457 22.156,6.859 21.503 L 6.980 21.306 7.006 20.103 C 7.020 19.441,7.051 18.798,7.073 18.673 C 7.188 18.045,7.334 17.610,7.625 17.030 C 8.069 16.144,8.650 15.486,9.580 14.815 C 9.888 14.593,10.266 14.297,10.420 14.158 C 10.954 13.675,11.532 12.988,11.848 12.458 C 11.920 12.338,11.988 12.240,12.000 12.240 C 12.012 12.240,12.080 12.338,12.152 12.458 C 12.663 13.312,13.399 14.077,14.420 14.814 C 15.351 15.487,15.931 16.144,16.375 17.030 C 16.666 17.610,16.812 18.045,16.927 18.673 C 16.949 18.798,16.980 19.441,16.994 20.103 L 17.020 21.306 17.141 21.503 C 17.543 22.156,18.457 22.156,18.859 21.503 L 18.980 21.307 18.993 20.303 C 19.000 19.751,18.986 19.102,18.962 18.860 C 18.866 17.887,18.616 17.040,18.154 16.121 C 17.536 14.896,16.831 14.091,15.587 13.193 C 14.651 12.516,14.070 11.858,13.625 10.970 C 13.287 10.295,13.120 9.742,13.043 9.032 C 13.019 8.818,13.000 7.918,13.000 7.032 L 13.000 5.422 14.210 6.626 C 14.876 7.289,15.483 7.864,15.560 7.905 C 15.659 7.957,15.787 7.979,16.000 7.979 C 16.258 7.980,16.327 7.964,16.492 7.867 C 16.714 7.737,16.901 7.498,16.965 7.264 C 17.019 7.061,16.989 6.733,16.899 6.555 C 16.862 6.481,15.884 5.469,14.726 4.306 C 12.433 2.004,12.429 2.001,12.000 2.001 C 11.851 2.001,11.716 2.031,11.580 2.096 " stroke="none" fill-rule="evenodd" fill="black"></path></svg>