<svg xmlns="http://www.w3.org/2000/svg" width="24" height="24" viewBox="0 0 24 24" fill="none" stroke="currentColor" stroke-width="2" stroke-linecap="round" stroke-linejoin="round"><path d="M3.695 3.057 C 3.466 3.129,3.256 3.299,3.128 3.516 L 3.020 3.700 3.020 12.003 L 3.020 20.306 3.141 20.503 C 3.543 21.156,4.457 21.156,4.859 20.503 L 4.980 20.306 4.980 12.003 L 4.980 3.700 4.872 3.516 C 4.628 3.101,4.150 2.915,3.695 3.057 M13.640 7.068 C 13.486 7.121,13.148 7.441,11.326 9.255 C 9.001 11.569,9.001 11.569,9.001 12.000 C 9.001 12.429,9.004 12.433,11.306 14.726 C 12.469 15.884,13.483 16.865,13.560 16.905 C 13.659 16.957,13.788 16.979,14.000 16.979 C 14.258 16.980,14.327 16.964,14.492 16.867 C 14.714 16.737,14.901 16.498,14.965 16.264 C 15.019 16.061,14.989 15.733,14.899 15.555 C 14.862 15.481,14.289 14.876,13.626 14.210 L 12.422 13.000 16.301 12.998 C 19.437 12.997,20.209 12.986,20.330 12.943 C 20.551 12.864,20.744 12.702,20.869 12.489 C 20.964 12.328,20.980 12.256,20.980 12.000 C 20.980 11.746,20.963 11.672,20.872 11.516 C 20.813 11.415,20.698 11.282,20.618 11.221 C 20.320 10.994,20.435 11.000,16.265 11.000 L 12.422 11.000 13.626 9.790 C 14.289 9.125,14.864 8.517,14.905 8.440 C 14.957 8.341,14.979 8.213,14.979 8.000 C 14.980 7.745,14.964 7.672,14.872 7.516 C 14.617 7.083,14.121 6.903,13.640 7.068 " stroke="none" fill-rule="evenodd" fill="black"></path></svg>