<svg xmlns="http://www.w3.org/2000/svg" width="24" height="24" viewBox="0 0 24 24" fill="none" stroke="currentColor" stroke-width="2" stroke-linecap="round" stroke-linejoin="round"><path d="M7.400 3.044 C 5.761 3.229,4.261 4.290,3.526 5.785 C 3.158 6.533,3.020 7.136,3.020 8.000 C 3.020 8.448,3.040 8.714,3.093 8.960 C 3.523 10.968,4.960 12.419,7.000 12.905 C 7.279 12.972,7.688 12.978,12.938 12.989 L 18.576 13.002 17.373 14.211 C 16.710 14.876,16.136 15.483,16.095 15.560 C 16.043 15.659,16.021 15.787,16.021 16.000 C 16.020 16.258,16.036 16.327,16.133 16.492 C 16.263 16.714,16.502 16.901,16.736 16.965 C 16.939 17.019,17.267 16.989,17.445 16.899 C 17.519 16.862,18.531 15.884,19.694 14.726 C 21.996 12.433,21.999 12.429,21.999 12.000 C 21.999 11.569,21.999 11.569,19.674 9.255 C 17.750 7.340,17.521 7.124,17.343 7.065 C 16.862 6.906,16.382 7.084,16.128 7.516 C 16.036 7.672,16.020 7.745,16.021 8.000 C 16.021 8.213,16.043 8.341,16.095 8.440 C 16.136 8.517,16.711 9.125,17.374 9.791 L 18.580 11.002 13.000 10.991 L 7.420 10.980 7.140 10.886 C 6.156 10.556,5.414 9.811,5.125 8.861 C 5.042 8.588,5.027 8.458,5.027 8.000 C 5.027 7.542,5.042 7.412,5.125 7.139 C 5.416 6.185,6.185 5.416,7.139 5.125 C 7.412 5.042,7.542 5.027,8.000 5.027 C 8.458 5.027,8.588 5.042,8.861 5.125 C 9.816 5.416,10.589 6.189,10.874 7.139 C 10.959 7.422,10.973 7.568,10.995 8.383 L 11.020 9.306 11.141 9.503 C 11.543 10.156,12.457 10.156,12.859 9.503 L 12.980 9.306 12.980 8.343 C 12.980 7.563,12.966 7.315,12.907 7.040 C 12.576 5.491,11.600 4.219,10.213 3.525 C 9.352 3.095,8.397 2.932,7.400 3.044 M11.695 14.057 C 11.466 14.129,11.256 14.299,11.128 14.516 L 11.020 14.700 11.020 18.003 L 11.020 21.306 11.141 21.503 C 11.543 22.156,12.457 22.156,12.859 21.503 L 12.980 21.306 12.980 18.003 L 12.980 14.700 12.872 14.516 C 12.628 14.101,12.150 13.915,11.695 14.057 " stroke="none" fill-rule="evenodd" fill="black"></path></svg>