<svg xmlns="http://www.w3.org/2000/svg" width="24" height="24" viewBox="0 0 24 24" fill="none" stroke="currentColor" stroke-width="2" stroke-linecap="round" stroke-linejoin="round"><path d="M3.670 3.061 C 3.448 3.142,3.250 3.309,3.128 3.516 C 3.036 3.672,3.020 3.745,3.021 4.000 C 3.021 4.212,3.043 4.341,3.095 4.440 C 3.135 4.517,4.161 5.575,5.374 6.790 L 7.579 9.000 6.736 9.000 C 5.812 9.000,5.634 9.029,5.382 9.221 C 5.302 9.282,5.187 9.415,5.128 9.516 C 5.037 9.672,5.020 9.746,5.020 10.000 C 5.020 10.256,5.036 10.328,5.131 10.489 C 5.256 10.702,5.449 10.864,5.670 10.943 C 5.788 10.985,6.286 10.997,8.020 10.998 L 10.220 10.999 10.420 10.906 C 10.657 10.796,10.845 10.595,10.937 10.354 C 10.996 10.198,11.002 9.948,10.991 7.940 L 10.980 5.700 10.871 5.514 C 10.648 5.134,10.208 4.941,9.786 5.035 C 9.515 5.096,9.270 5.275,9.129 5.514 L 9.020 5.700 9.007 6.636 L 8.995 7.572 6.767 5.352 C 4.755 3.345,4.521 3.124,4.343 3.065 C 4.107 2.987,3.874 2.986,3.670 3.061 M13.580 13.094 C 13.343 13.204,13.155 13.405,13.063 13.646 C 13.004 13.802,12.998 14.053,13.009 16.063 L 13.020 18.306 13.141 18.503 C 13.543 19.156,14.457 19.156,14.859 18.503 L 14.980 18.307 14.993 17.366 L 15.005 16.426 17.213 18.629 C 18.427 19.841,19.481 20.862,19.555 20.899 C 20.010 21.128,20.601 20.944,20.867 20.492 C 20.964 20.327,20.980 20.258,20.979 20.000 C 20.979 19.788,20.957 19.659,20.905 19.560 C 20.865 19.483,19.839 18.425,18.626 17.210 L 16.421 15.000 17.300 14.998 C 18.247 14.996,18.365 14.977,18.619 14.783 C 18.696 14.725,18.808 14.592,18.869 14.489 C 18.964 14.328,18.980 14.256,18.980 14.000 C 18.980 13.746,18.963 13.672,18.872 13.516 C 18.813 13.415,18.698 13.282,18.618 13.221 C 18.332 13.003,18.292 13.000,15.944 13.000 L 13.780 13.001 13.580 13.094 " stroke="none" fill-rule="evenodd" fill="black"></path></svg>