<svg xmlns="http://www.w3.org/2000/svg" width="24" height="24" viewBox="0 0 24 24" fill="none" stroke="currentColor" stroke-width="2" stroke-linecap="round" stroke-linejoin="round"><path d="M2.695 8.057 C 2.466 8.129,2.256 8.299,2.128 8.516 L 2.020 8.700 2.020 12.003 L 2.020 15.306 2.141 15.503 C 2.543 16.156,3.457 16.156,3.859 15.503 L 3.980 15.307 3.992 14.153 L 4.005 13.000 11.291 13.000 L 18.577 13.000 17.873 13.710 C 17.486 14.101,17.139 14.481,17.101 14.555 C 16.872 15.008,17.056 15.601,17.508 15.867 C 17.673 15.964,17.742 15.980,18.000 15.979 C 18.212 15.979,18.341 15.957,18.440 15.905 C 18.517 15.865,19.306 15.109,20.194 14.226 C 21.957 12.472,21.999 12.420,21.999 12.000 C 21.999 11.578,21.960 11.530,20.175 9.756 C 18.716 8.307,18.519 8.124,18.343 8.066 C 17.863 7.906,17.382 8.084,17.128 8.516 C 17.036 8.672,17.020 8.745,17.021 9.000 C 17.021 9.213,17.043 9.340,17.096 9.440 C 17.136 9.517,17.486 9.900,17.873 10.290 L 18.577 11.000 11.291 11.000 L 4.005 11.000 3.992 9.850 L 3.980 8.700 3.872 8.516 C 3.628 8.101,3.150 7.915,2.695 8.057 " stroke="none" fill-rule="evenodd" fill="black"></path></svg>