<svg xmlns="http://www.w3.org/2000/svg" width="24" height="24" viewBox="0 0 24 24" fill="none" stroke="currentColor" stroke-width="2" stroke-linecap="round" stroke-linejoin="round"><path d="M3.695 3.057 C 3.466 3.129,3.256 3.299,3.128 3.516 C 3.037 3.672,3.020 3.746,3.020 4.000 C 3.020 4.256,3.036 4.328,3.131 4.489 C 3.256 4.702,3.449 4.864,3.670 4.943 C 3.893 5.022,20.107 5.022,20.330 4.943 C 20.551 4.864,20.744 4.702,20.869 4.489 C 20.964 4.328,20.980 4.256,20.980 4.000 C 20.980 3.746,20.963 3.672,20.872 3.516 C 20.740 3.293,20.533 3.128,20.290 3.055 C 20.027 2.976,3.947 2.978,3.695 3.057 M11.695 9.057 C 11.466 9.129,11.256 9.299,11.128 9.516 L 11.020 9.700 11.009 13.637 L 10.998 17.574 9.769 16.353 C 8.688 15.279,8.516 15.124,8.343 15.066 C 7.863 14.905,7.382 15.084,7.128 15.516 C 7.036 15.672,7.020 15.745,7.021 16.000 C 7.021 16.212,7.043 16.341,7.095 16.440 C 7.135 16.517,8.116 17.531,9.274 18.694 C 11.567 20.996,11.571 20.999,12.000 20.999 C 12.429 20.999,12.433 20.996,14.726 18.694 C 15.884 17.531,16.865 16.517,16.905 16.440 C 16.957 16.341,16.979 16.212,16.979 16.000 C 16.980 15.745,16.964 15.672,16.872 15.516 C 16.618 15.084,16.137 14.905,15.657 15.066 C 15.484 15.124,15.312 15.279,14.231 16.353 L 13.002 17.574 12.991 13.637 L 12.980 9.700 12.872 9.516 C 12.628 9.101,12.150 8.915,11.695 9.057 " stroke="none" fill-rule="evenodd" fill="black"></path></svg>