<svg xmlns="http://www.w3.org/2000/svg" width="24" height="24" viewBox="0 0 24 24" fill="none" stroke="currentColor" stroke-width="2" stroke-linecap="round" stroke-linejoin="round"><path d="M17.580 2.096 C 17.424 2.171,17.029 2.545,15.774 3.806 C 14.891 4.694,14.135 5.483,14.095 5.560 C 14.043 5.659,14.021 5.788,14.021 6.000 C 14.020 6.258,14.036 6.327,14.133 6.492 C 14.263 6.714,14.502 6.901,14.736 6.965 C 14.939 7.019,15.267 6.989,15.445 6.899 C 15.519 6.861,15.899 6.514,16.290 6.127 L 16.999 5.424 17.010 12.865 L 17.020 20.306 17.141 20.503 C 17.543 21.156,18.457 21.156,18.859 20.503 L 18.980 20.306 18.990 12.865 L 19.001 5.424 19.710 6.127 C 20.101 6.514,20.483 6.864,20.560 6.904 C 20.660 6.957,20.787 6.979,21.000 6.979 C 21.258 6.980,21.327 6.964,21.492 6.867 C 21.714 6.737,21.901 6.498,21.965 6.264 C 22.019 6.061,21.989 5.733,21.899 5.555 C 21.862 5.481,21.109 4.694,20.226 3.806 C 18.971 2.545,18.576 2.171,18.420 2.096 C 18.151 1.968,17.849 1.968,17.580 2.096 M5.499 3.043 C 4.383 3.230,3.461 4.048,3.114 5.160 L 3.020 5.460 3.020 12.000 L 3.020 18.540 3.114 18.840 C 3.418 19.816,4.149 20.554,5.140 20.886 L 5.420 20.980 9.771 20.991 C 12.657 20.999,14.174 20.989,14.275 20.961 C 14.498 20.901,14.739 20.710,14.867 20.492 C 14.964 20.327,14.980 20.257,14.980 20.000 C 14.980 19.746,14.963 19.672,14.872 19.516 C 14.761 19.328,14.572 19.158,14.373 19.070 C 14.286 19.031,13.284 19.015,9.980 19.000 L 5.700 18.980 5.516 18.872 C 5.415 18.813,5.284 18.700,5.225 18.623 C 4.987 18.311,5.000 18.701,5.000 12.022 C 5.000 5.123,4.977 5.629,5.303 5.303 C 5.618 4.988,5.471 5.000,9.037 4.998 C 11.558 4.997,12.210 4.986,12.330 4.943 C 12.551 4.864,12.744 4.702,12.869 4.489 C 12.964 4.328,12.980 4.256,12.980 4.000 C 12.980 3.746,12.963 3.672,12.872 3.516 C 12.813 3.415,12.698 3.282,12.618 3.221 C 12.323 2.996,12.382 3.000,8.904 3.005 C 7.142 3.007,5.609 3.025,5.499 3.043 " stroke="none" fill-rule="evenodd" fill="black"></path></svg>