<svg xmlns="http://www.w3.org/2000/svg" width="24" height="24" viewBox="0 0 24 24" fill="none" stroke="currentColor" stroke-width="2" stroke-linecap="round" stroke-linejoin="round"><path d="M7.640 5.068 C 7.486 5.121,7.151 5.438,5.347 7.235 C 4.166 8.411,3.187 9.419,3.127 9.520 C 3.037 9.672,3.020 9.746,3.020 10.000 C 3.020 10.254,3.036 10.328,3.127 10.480 C 3.261 10.705,7.368 14.805,7.560 14.905 C 7.659 14.957,7.788 14.979,8.000 14.979 C 8.258 14.980,8.327 14.964,8.492 14.867 C 8.714 14.737,8.901 14.498,8.965 14.264 C 9.019 14.061,8.989 13.733,8.899 13.555 C 8.862 13.481,8.064 12.650,7.126 11.710 L 5.421 10.000 7.126 8.290 C 8.064 7.350,8.865 6.517,8.905 6.440 C 8.957 6.341,8.979 6.212,8.979 6.000 C 8.980 5.745,8.964 5.672,8.872 5.516 C 8.617 5.083,8.121 4.903,7.640 5.068 M12.640 5.068 C 12.486 5.121,12.148 5.441,10.326 7.255 C 8.001 9.569,8.001 9.569,8.001 10.000 C 8.001 10.429,8.004 10.433,10.306 12.726 C 11.469 13.884,12.483 14.865,12.560 14.905 C 12.659 14.957,12.788 14.979,13.000 14.979 C 13.258 14.980,13.327 14.964,13.492 14.867 C 13.714 14.737,13.901 14.498,13.965 14.264 C 14.019 14.061,13.989 13.733,13.899 13.555 C 13.862 13.481,13.289 12.875,12.626 12.208 L 11.420 10.997 13.980 11.009 L 16.540 11.022 16.861 11.122 C 17.822 11.423,18.585 12.187,18.875 13.139 C 18.958 13.412,18.973 13.542,18.973 14.000 C 18.973 14.458,18.958 14.588,18.875 14.861 C 18.585 15.813,17.826 16.574,16.860 16.881 C 16.619 16.958,16.450 16.974,15.660 16.998 C 15.112 17.015,14.694 17.045,14.627 17.073 C 14.433 17.154,14.240 17.325,14.128 17.516 C 14.037 17.672,14.020 17.746,14.020 18.000 C 14.020 18.257,14.036 18.327,14.133 18.492 C 14.263 18.714,14.503 18.901,14.736 18.964 C 14.987 19.032,16.622 18.986,17.000 18.901 C 18.513 18.561,19.756 17.615,20.433 16.288 C 20.838 15.494,20.980 14.899,20.980 14.000 C 20.980 13.101,20.838 12.506,20.433 11.713 C 19.794 10.461,18.604 9.510,17.240 9.162 C 16.692 9.022,16.227 9.000,13.792 9.000 L 11.422 9.000 12.626 7.790 C 13.289 7.125,13.864 6.517,13.905 6.440 C 13.957 6.341,13.979 6.213,13.979 6.000 C 13.980 5.745,13.964 5.672,13.872 5.516 C 13.617 5.083,13.121 4.903,12.640 5.068 " stroke="none" fill-rule="evenodd" fill="black"></path></svg>