<svg xmlns="http://www.w3.org/2000/svg" width="24" height="24" viewBox="0 0 24 24" fill="none" stroke="currentColor" stroke-width="2" stroke-linecap="round" stroke-linejoin="round"><path d="M15.380 3.043 C 13.717 3.207,12.205 4.071,11.181 5.443 C 10.656 6.145,10.332 6.882,10.103 7.890 L 10.078 8.000 7.750 8.000 L 5.422 8.000 6.626 6.790 C 7.289 6.124,7.864 5.517,7.905 5.440 C 7.957 5.341,7.979 5.213,7.979 5.000 C 7.980 4.745,7.964 4.672,7.872 4.516 C 7.618 4.084,7.138 3.906,6.657 4.065 C 6.479 4.124,6.250 4.340,4.326 6.255 C 2.001 8.569,2.001 8.569,2.001 9.000 C 2.001 9.429,2.004 9.433,4.306 11.726 C 5.469 12.884,6.481 13.862,6.555 13.899 C 7.010 14.128,7.601 13.944,7.867 13.492 C 7.964 13.327,7.980 13.258,7.979 13.000 C 7.979 12.787,7.957 12.659,7.905 12.560 C 7.864 12.483,7.289 11.876,6.626 11.210 L 5.422 10.000 8.301 9.998 C 11.404 9.996,11.334 10.001,11.619 9.783 C 11.869 9.593,11.962 9.376,12.004 8.890 C 12.073 8.091,12.164 7.745,12.464 7.160 C 12.829 6.446,13.446 5.829,14.160 5.464 C 14.611 5.233,14.930 5.129,15.395 5.058 C 15.879 4.986,16.121 4.986,16.605 5.058 C 18.074 5.280,19.310 6.324,19.797 7.755 C 19.897 8.050,20.000 8.680,20.000 9.000 C 20.000 10.365,19.213 11.747,18.047 12.431 C 17.482 12.762,16.682 13.000,16.130 13.000 C 15.667 13.000,15.329 13.174,15.128 13.516 L 15.020 13.700 15.020 17.503 L 15.020 21.306 15.141 21.503 C 15.543 22.156,16.457 22.156,16.859 21.503 L 16.980 21.306 16.991 18.114 L 17.002 14.921 17.111 14.896 C 18.456 14.592,19.394 14.087,20.269 13.195 C 21.109 12.340,21.626 11.369,21.885 10.160 C 22.015 9.554,22.015 8.446,21.885 7.840 C 21.626 6.631,21.109 5.660,20.269 4.805 C 18.978 3.490,17.230 2.860,15.380 3.043 " stroke="none" fill-rule="evenodd" fill="black"></path></svg>