<svg xmlns="http://www.w3.org/2000/svg" width="24" height="24" viewBox="0 0 24 24" fill="none" stroke="currentColor" stroke-width="2" stroke-linecap="round" stroke-linejoin="round"><path d="M11.580 2.096 C 11.424 2.171,11.029 2.545,9.774 3.806 C 8.891 4.694,8.135 5.483,8.095 5.560 C 8.043 5.659,8.021 5.788,8.021 6.000 C 8.020 6.258,8.036 6.327,8.133 6.492 C 8.263 6.714,8.502 6.901,8.736 6.965 C 8.939 7.019,9.267 6.989,9.445 6.899 C 9.519 6.861,9.900 6.514,10.290 6.127 L 11.000 5.423 11.000 12.711 L 11.000 20.000 9.946 20.000 C 8.797 20.000,8.644 20.022,8.382 20.221 C 8.302 20.282,8.187 20.415,8.128 20.516 C 8.037 20.672,8.020 20.746,8.020 21.000 C 8.020 21.256,8.036 21.328,8.131 21.489 C 8.256 21.702,8.449 21.864,8.670 21.943 C 8.791 21.986,9.445 21.996,12.000 21.996 C 14.555 21.996,15.209 21.986,15.330 21.943 C 15.551 21.864,15.744 21.702,15.869 21.489 C 15.964 21.328,15.980 21.256,15.980 21.000 C 15.980 20.746,15.963 20.672,15.872 20.516 C 15.813 20.415,15.698 20.282,15.618 20.221 C 15.356 20.022,15.203 20.000,14.054 20.000 L 13.000 20.000 13.000 12.711 L 13.000 5.423 13.710 6.127 C 14.101 6.514,14.483 6.864,14.560 6.904 C 14.660 6.957,14.787 6.979,15.000 6.979 C 15.258 6.980,15.327 6.964,15.492 6.867 C 15.714 6.737,15.901 6.498,15.965 6.264 C 16.019 6.061,15.989 5.733,15.899 5.555 C 15.862 5.481,15.109 4.694,14.226 3.806 C 12.971 2.545,12.576 2.171,12.420 2.096 C 12.151 1.968,11.849 1.968,11.580 2.096 " stroke="none" fill-rule="evenodd" fill="black"></path></svg>