<svg xmlns="http://www.w3.org/2000/svg" width="24" height="24" viewBox="0 0 24 24" fill="none" stroke="currentColor" stroke-width="2" stroke-linecap="round" stroke-linejoin="round"><path d="M3.580 3.094 C 3.343 3.204,3.155 3.405,3.063 3.646 C 3.004 3.802,2.998 4.053,3.009 6.063 L 3.020 8.306 3.141 8.503 C 3.543 9.156,4.457 9.156,4.859 8.503 L 4.980 8.307 4.993 7.366 L 5.005 6.426 7.213 8.629 C 8.427 9.841,9.481 10.862,9.555 10.899 C 10.010 11.128,10.601 10.944,10.867 10.492 C 10.964 10.327,10.980 10.258,10.979 10.000 C 10.979 9.788,10.957 9.659,10.905 9.560 C 10.865 9.483,9.839 8.425,8.626 7.210 L 6.421 5.000 7.300 4.998 C 8.247 4.996,8.365 4.977,8.619 4.783 C 8.696 4.725,8.808 4.592,8.869 4.489 C 8.964 4.328,8.980 4.256,8.980 4.000 C 8.980 3.746,8.963 3.672,8.872 3.516 C 8.813 3.415,8.698 3.282,8.618 3.221 C 8.332 3.003,8.292 3.000,5.944 3.000 L 3.780 3.001 3.580 3.094 M13.670 13.061 C 13.448 13.142,13.250 13.309,13.128 13.516 C 13.036 13.672,13.020 13.745,13.021 14.000 C 13.021 14.212,13.043 14.341,13.095 14.440 C 13.135 14.517,14.161 15.575,15.374 16.790 L 17.579 19.000 16.736 19.000 C 15.812 19.000,15.634 19.029,15.382 19.221 C 15.302 19.282,15.187 19.415,15.128 19.516 C 15.037 19.672,15.020 19.746,15.020 20.000 C 15.020 20.256,15.036 20.328,15.131 20.489 C 15.256 20.702,15.449 20.864,15.670 20.943 C 15.788 20.985,16.286 20.997,18.020 20.998 L 20.220 20.999 20.420 20.906 C 20.657 20.796,20.845 20.595,20.937 20.354 C 20.996 20.198,21.002 19.948,20.991 17.940 L 20.980 15.700 20.871 15.514 C 20.479 14.848,19.521 14.848,19.129 15.514 L 19.020 15.700 19.007 16.636 L 18.995 17.572 16.767 15.352 C 14.755 13.345,14.521 13.124,14.343 13.065 C 14.107 12.987,13.874 12.986,13.670 13.061 " stroke="none" fill-rule="evenodd" fill="black"></path></svg>