<svg xmlns="http://www.w3.org/2000/svg" width="24" height="24" viewBox="0 0 24 24" fill="none" stroke="currentColor" stroke-width="2" stroke-linecap="round" stroke-linejoin="round"><path d="M10.740 3.443 C 10.402 3.486,10.079 3.617,9.810 3.820 C 9.684 3.916,8.040 5.539,6.157 7.427 C 2.844 10.749,2.730 10.869,2.608 11.141 C 2.345 11.727,2.351 12.310,2.625 12.888 C 2.759 13.170,2.890 13.306,6.272 16.686 C 8.904 19.316,9.835 20.222,10.000 20.315 C 10.328 20.500,10.614 20.575,11.000 20.576 C 11.923 20.579,12.702 19.968,12.940 19.052 C 12.988 18.870,13.000 18.534,13.000 17.414 L 13.000 16.005 14.150 15.992 L 15.300 15.980 15.492 15.867 C 15.710 15.739,15.901 15.498,15.961 15.276 C 15.988 15.177,15.998 14.005,15.991 11.912 L 15.980 8.700 15.872 8.516 C 15.813 8.415,15.698 8.282,15.618 8.221 C 15.356 8.022,15.203 8.000,14.054 8.000 L 13.000 8.000 13.000 6.588 C 13.000 5.060,12.986 4.927,12.775 4.509 C 12.397 3.761,11.589 3.337,10.740 3.443 M11.131 9.489 C 11.192 9.592,11.304 9.725,11.381 9.783 C 11.643 9.983,11.738 9.996,12.910 9.998 L 14.000 10.000 14.000 12.000 L 14.000 14.000 12.946 14.000 C 11.797 14.000,11.644 14.022,11.382 14.221 C 11.302 14.282,11.187 14.415,11.128 14.516 L 11.020 14.700 11.000 16.630 L 10.980 18.560 7.700 15.280 L 4.420 12.000 7.700 8.720 L 10.980 5.440 11.000 7.370 L 11.020 9.300 11.131 9.489 M17.695 8.057 C 17.466 8.129,17.256 8.299,17.128 8.516 L 17.020 8.700 17.020 12.003 L 17.020 15.306 17.141 15.503 C 17.543 16.156,18.457 16.156,18.859 15.503 L 18.980 15.306 18.980 12.003 L 18.980 8.700 18.872 8.516 C 18.628 8.101,18.150 7.915,17.695 8.057 M20.695 8.057 C 20.466 8.129,20.256 8.299,20.128 8.516 L 20.020 8.700 20.020 12.003 L 20.020 15.306 20.141 15.503 C 20.543 16.156,21.457 16.156,21.859 15.503 L 21.980 15.306 21.980 12.003 L 21.980 8.700 21.872 8.516 C 21.628 8.101,21.150 7.915,20.695 8.057 " stroke="none" fill-rule="evenodd" fill="black"></path></svg>