<svg xmlns="http://www.w3.org/2000/svg" width="24" height="24" viewBox="0 0 24 24" fill="none" stroke="currentColor" stroke-width="2" stroke-linecap="round" stroke-linejoin="round"><path d="M17.670 3.061 C 17.448 3.142,17.250 3.309,17.128 3.516 C 17.036 3.672,17.020 3.745,17.021 4.000 C 17.021 4.213,17.043 4.340,17.096 4.440 C 17.136 4.517,17.486 4.899,17.873 5.290 L 18.577 6.000 10.735 6.000 C 4.206 6.000,2.862 6.009,2.710 6.055 C 2.467 6.128,2.260 6.293,2.128 6.516 C 2.037 6.672,2.020 6.746,2.020 7.000 C 2.020 7.256,2.036 7.328,2.131 7.489 C 2.256 7.702,2.449 7.864,2.670 7.943 C 2.793 7.987,4.221 7.997,10.699 7.998 L 18.577 8.000 17.873 8.710 C 17.486 9.101,17.139 9.481,17.101 9.555 C 16.872 10.008,17.056 10.601,17.508 10.867 C 17.673 10.964,17.742 10.980,18.000 10.979 C 18.212 10.979,18.341 10.957,18.440 10.905 C 18.517 10.865,19.306 10.109,20.194 9.226 C 21.957 7.472,21.999 7.420,21.999 7.000 C 21.999 6.578,21.960 6.530,20.175 4.756 C 18.716 3.307,18.519 3.124,18.343 3.066 C 18.108 2.987,17.875 2.986,17.670 3.061 M17.670 13.061 C 17.448 13.142,17.250 13.309,17.128 13.516 C 17.036 13.672,17.020 13.745,17.021 14.000 C 17.021 14.213,17.043 14.340,17.096 14.440 C 17.136 14.517,17.486 14.900,17.873 15.290 L 18.577 16.000 10.735 16.000 C 4.206 16.000,2.862 16.009,2.710 16.055 C 2.467 16.128,2.260 16.293,2.128 16.516 C 2.037 16.672,2.020 16.746,2.020 17.000 C 2.020 17.256,2.036 17.328,2.131 17.489 C 2.256 17.702,2.449 17.864,2.670 17.943 C 2.793 17.987,4.221 17.997,10.699 17.998 L 18.577 18.000 17.873 18.710 C 17.486 19.101,17.139 19.481,17.101 19.555 C 16.872 20.008,17.056 20.601,17.508 20.867 C 17.673 20.964,17.742 20.980,18.000 20.979 C 18.212 20.979,18.341 20.957,18.440 20.905 C 18.517 20.865,19.306 20.109,20.194 19.226 C 21.957 17.472,21.999 17.420,21.999 17.000 C 21.999 16.578,21.960 16.530,20.175 14.756 C 18.716 13.307,18.519 13.124,18.343 13.066 C 18.108 12.987,17.875 12.986,17.670 13.061 " stroke="none" fill-rule="evenodd" fill="black"></path></svg>