<svg xmlns="http://www.w3.org/2000/svg" width="24" height="24" viewBox="0 0 24 24" fill="none" stroke="currentColor" stroke-width="2" stroke-linecap="round" stroke-linejoin="round"><path d="M5.499 3.043 C 4.380 3.233,3.461 4.048,3.114 5.160 L 3.020 5.460 3.020 8.883 L 3.020 12.306 3.141 12.503 C 3.543 13.156,4.457 13.156,4.859 12.503 L 4.980 12.306 5.000 9.023 C 5.022 5.344,5.001 5.594,5.321 5.283 C 5.633 4.981,5.174 5.000,12.000 5.000 C 18.826 5.000,18.367 4.981,18.679 5.283 C 19.003 5.598,18.978 5.224,19.000 10.023 L 19.020 14.306 19.141 14.503 C 19.543 15.156,20.457 15.156,20.859 14.503 L 20.980 14.306 20.980 9.883 L 20.980 5.460 20.886 5.160 C 20.581 4.182,19.832 3.428,18.861 3.121 L 18.540 3.020 12.120 3.014 C 8.589 3.011,5.609 3.024,5.499 3.043 M5.640 14.069 C 5.488 14.121,5.205 14.384,3.825 15.755 C 2.040 17.530,2.001 17.578,2.001 18.000 C 2.001 18.420,2.043 18.472,3.806 20.226 C 4.694 21.109,5.481 21.862,5.555 21.899 C 6.010 22.128,6.601 21.944,6.867 21.492 C 6.964 21.327,6.980 21.258,6.979 21.000 C 6.979 20.787,6.957 20.660,6.904 20.560 C 6.864 20.483,6.514 20.101,6.127 19.710 L 5.423 19.000 12.801 18.998 C 18.861 18.997,20.207 18.987,20.330 18.943 C 20.551 18.864,20.744 18.702,20.869 18.489 C 20.964 18.328,20.980 18.256,20.980 18.000 C 20.980 17.746,20.963 17.672,20.872 17.516 C 20.740 17.293,20.533 17.128,20.290 17.055 C 20.138 17.009,18.871 17.000,12.765 17.000 L 5.423 17.000 6.127 16.290 C 6.514 15.900,6.864 15.517,6.904 15.440 C 6.957 15.340,6.979 15.213,6.979 15.000 C 6.980 14.745,6.964 14.672,6.872 14.516 C 6.617 14.083,6.121 13.902,5.640 14.069 " stroke="none" fill-rule="evenodd" fill="black"></path></svg>