<svg xmlns="http://www.w3.org/2000/svg" width="24" height="24" viewBox="0 0 24 24" fill="none" stroke="currentColor" stroke-width="2" stroke-linecap="round" stroke-linejoin="round"><path d="M17.670 8.061 C 17.448 8.142,17.250 8.309,17.128 8.516 C 17.036 8.672,17.020 8.745,17.021 9.000 C 17.021 9.213,17.043 9.340,17.096 9.440 C 17.136 9.517,17.486 9.900,17.873 10.290 L 18.577 11.000 13.499 11.000 L 8.422 11.000 7.261 9.842 C 5.988 8.572,5.920 8.522,5.500 8.522 C 5.074 8.522,5.025 8.560,3.567 10.012 C 2.834 10.742,2.186 11.421,2.127 11.520 C 2.036 11.673,2.020 11.745,2.021 12.000 C 2.021 12.213,2.043 12.341,2.095 12.440 C 2.180 12.602,4.700 15.150,4.943 15.320 C 5.256 15.539,5.744 15.539,6.055 15.321 C 6.146 15.258,6.715 14.710,7.320 14.103 L 8.419 13.000 13.498 13.000 L 18.577 13.000 17.873 13.710 C 17.486 14.101,17.139 14.481,17.101 14.555 C 16.872 15.008,17.056 15.601,17.508 15.867 C 17.673 15.964,17.742 15.980,18.000 15.979 C 18.212 15.979,18.341 15.957,18.440 15.905 C 18.517 15.865,19.306 15.109,20.194 14.226 C 21.957 12.472,21.999 12.420,21.999 12.000 C 21.999 11.578,21.960 11.530,20.175 9.756 C 18.716 8.307,18.519 8.124,18.343 8.066 C 18.108 7.987,17.875 7.986,17.670 8.061 M6.040 12.540 L 5.501 13.080 4.961 12.540 L 4.421 12.000 4.960 11.460 L 5.499 10.920 6.039 11.460 L 6.579 12.000 6.040 12.540 " stroke="none" fill-rule="evenodd" fill="black"></path></svg>