<svg xmlns="http://www.w3.org/2000/svg" width="24" height="24" viewBox="0 0 24 24" fill="none" stroke="currentColor" stroke-width="2" stroke-linecap="round" stroke-linejoin="round"><path d="M11.580 3.096 C 11.422 3.172,10.940 3.634,9.274 5.306 C 8.116 6.469,7.138 7.481,7.101 7.555 C 6.872 8.010,7.056 8.601,7.508 8.867 C 7.673 8.964,7.742 8.980,8.000 8.979 C 8.213 8.979,8.341 8.957,8.440 8.905 C 8.517 8.864,9.125 8.289,9.790 7.626 L 11.000 6.422 11.000 7.401 C 11.000 8.419,10.952 9.456,10.878 10.040 C 10.583 12.362,9.873 14.005,8.621 15.263 C 7.840 16.047,7.031 16.555,5.880 16.982 C 5.554 17.103,5.424 17.174,5.297 17.301 C 5.119 17.479,5.000 17.760,5.000 18.000 C 5.000 18.562,5.524 19.045,6.074 18.991 C 6.460 18.953,7.665 18.430,8.423 17.971 C 9.219 17.490,10.096 16.719,10.660 16.005 L 10.980 15.600 11.000 17.953 L 11.020 20.306 11.141 20.503 C 11.543 21.156,12.457 21.156,12.859 20.503 L 12.980 20.306 13.000 17.953 L 13.020 15.600 13.340 16.005 C 13.904 16.719,14.781 17.490,15.577 17.971 C 16.335 18.430,17.540 18.953,17.926 18.991 C 18.476 19.045,19.000 18.562,19.000 18.000 C 19.000 17.760,18.881 17.479,18.703 17.301 C 18.576 17.174,18.446 17.103,18.120 16.982 C 16.971 16.555,16.163 16.049,15.378 15.263 C 14.837 14.720,14.453 14.189,14.102 13.494 C 13.315 11.937,13.001 10.205,13.000 7.421 L 13.000 6.422 14.210 7.626 C 14.876 8.289,15.483 8.864,15.560 8.905 C 15.659 8.957,15.787 8.979,16.000 8.979 C 16.258 8.980,16.327 8.964,16.492 8.867 C 16.714 8.737,16.901 8.498,16.965 8.264 C 17.019 8.061,16.989 7.733,16.899 7.555 C 16.862 7.481,15.884 6.469,14.726 5.306 C 12.433 3.004,12.429 3.001,12.000 3.001 C 11.851 3.001,11.716 3.031,11.580 3.096 " stroke="none" fill-rule="evenodd" fill="black"></path></svg>