<svg xmlns="http://www.w3.org/2000/svg" width="24" height="24" viewBox="0 0 24 24" fill="none" stroke="currentColor" stroke-width="2" stroke-linecap="round" stroke-linejoin="round"><path d="M11.695 2.057 C 11.466 2.129,11.256 2.299,11.128 2.516 C 11.036 2.672,11.020 2.746,11.020 3.003 C 11.020 3.271,11.034 3.329,11.141 3.503 C 11.289 3.743,11.580 3.948,11.811 3.975 C 11.904 3.986,12.241 4.013,12.560 4.035 C 13.644 4.111,14.559 4.354,15.500 4.816 C 17.133 5.618,18.382 6.867,19.184 8.500 C 20.263 10.697,20.263 13.291,19.183 15.499 C 18.530 16.835,17.573 17.914,16.311 18.736 C 15.148 19.494,13.489 20.000,12.168 20.000 C 11.666 20.000,11.335 20.165,11.128 20.516 C 11.037 20.672,11.020 20.746,11.020 21.000 C 11.020 21.257,11.036 21.327,11.133 21.492 C 11.263 21.714,11.502 21.901,11.736 21.965 C 12.085 22.061,13.393 21.944,14.260 21.740 C 16.114 21.304,17.709 20.414,19.062 19.062 C 20.620 17.504,21.557 15.638,21.907 13.400 C 22.008 12.753,22.008 11.247,21.907 10.600 C 21.557 8.362,20.619 6.494,19.062 4.939 C 17.858 3.736,16.486 2.913,14.866 2.423 C 13.788 2.096,12.167 1.909,11.695 2.057 M6.640 7.068 C 6.486 7.121,6.148 7.441,4.326 9.255 C 2.001 11.569,2.001 11.569,2.001 12.000 C 2.001 12.429,2.004 12.433,4.306 14.726 C 5.469 15.884,6.483 16.865,6.560 16.905 C 6.659 16.957,6.788 16.979,7.000 16.979 C 7.258 16.980,7.327 16.964,7.492 16.867 C 7.714 16.737,7.901 16.498,7.965 16.264 C 8.019 16.061,7.989 15.733,7.899 15.555 C 7.862 15.481,7.289 14.876,6.626 14.210 L 5.422 13.000 10.301 12.998 C 14.272 12.997,15.208 12.987,15.330 12.943 C 15.551 12.864,15.744 12.702,15.869 12.489 C 15.964 12.328,15.980 12.256,15.980 12.000 C 15.980 11.746,15.963 11.672,15.872 11.516 C 15.740 11.293,15.533 11.128,15.290 11.055 C 15.139 11.010,14.252 11.000,10.265 11.000 L 5.422 11.000 6.626 9.790 C 7.289 9.125,7.864 8.517,7.905 8.440 C 7.957 8.341,7.979 8.213,7.979 8.000 C 7.980 7.745,7.964 7.672,7.872 7.516 C 7.617 7.083,7.121 6.903,6.640 7.068 " stroke="none" fill-rule="evenodd" fill="black"></path></svg>