<svg xmlns="http://www.w3.org/2000/svg" width="24" height="24" viewBox="0 0 24 24" fill="none" stroke="currentColor" stroke-width="2" stroke-linecap="round" stroke-linejoin="round"><path d="M5.640 8.069 C 5.488 8.121,5.205 8.384,3.825 9.755 C 2.040 11.530,2.001 11.578,2.001 12.000 C 2.001 12.420,2.043 12.472,3.806 14.226 C 4.694 15.109,5.481 15.862,5.555 15.899 C 6.010 16.128,6.601 15.944,6.867 15.492 C 6.964 15.327,6.980 15.258,6.979 15.000 C 6.979 14.787,6.957 14.660,6.904 14.560 C 6.864 14.483,6.514 14.101,6.127 13.710 L 5.423 13.000 9.301 12.998 C 12.437 12.997,13.209 12.986,13.330 12.943 C 13.551 12.864,13.744 12.702,13.869 12.489 C 13.964 12.328,13.980 12.256,13.980 12.000 C 13.980 11.746,13.963 11.672,13.872 11.516 C 13.813 11.415,13.698 11.282,13.618 11.221 C 13.320 10.994,13.435 11.000,9.265 11.000 L 5.423 11.000 6.127 10.290 C 6.514 9.900,6.864 9.517,6.904 9.440 C 6.957 9.340,6.979 9.213,6.979 9.000 C 6.980 8.745,6.964 8.672,6.872 8.516 C 6.617 8.083,6.121 7.902,5.640 8.069 M18.499 9.040 C 17.363 9.246,16.460 10.049,16.114 11.160 C 15.979 11.594,15.979 12.406,16.114 12.840 C 16.421 13.826,17.174 14.579,18.160 14.886 C 18.594 15.021,19.406 15.021,19.840 14.886 C 20.826 14.579,21.579 13.826,21.886 12.840 C 22.021 12.406,22.021 11.594,21.886 11.160 C 21.581 10.179,20.810 9.407,19.861 9.129 C 19.500 9.023,18.832 8.980,18.499 9.040 M19.310 11.061 C 19.688 11.173,20.000 11.598,20.000 12.001 C 20.000 12.331,19.784 12.696,19.484 12.872 C 19.328 12.963,19.254 12.980,19.000 12.980 C 18.746 12.980,18.672 12.963,18.516 12.872 C 17.935 12.530,17.833 11.774,18.304 11.303 C 18.583 11.024,18.916 10.944,19.310 11.061 " stroke="none" fill-rule="evenodd" fill="black"></path></svg>