<svg xmlns="http://www.w3.org/2000/svg" width="24" height="24" viewBox="0 0 24 24" fill="none" stroke="currentColor" stroke-width="2" stroke-linecap="round" stroke-linejoin="round"><path d="M11.580 2.096 C 11.424 2.171,11.029 2.545,9.774 3.806 C 8.891 4.694,8.135 5.483,8.095 5.560 C 8.043 5.659,8.021 5.788,8.021 6.000 C 8.020 6.258,8.036 6.327,8.133 6.492 C 8.263 6.714,8.502 6.901,8.736 6.965 C 8.939 7.019,9.267 6.989,9.445 6.899 C 9.519 6.861,9.900 6.514,10.290 6.127 L 11.000 5.423 11.000 10.502 L 11.000 15.581 9.897 16.680 C 9.290 17.285,8.744 17.852,8.682 17.940 C 8.456 18.263,8.455 18.736,8.680 19.057 C 8.850 19.300,11.398 21.820,11.560 21.905 C 11.659 21.957,11.787 21.979,12.000 21.979 C 12.255 21.980,12.327 21.964,12.480 21.873 C 12.579 21.814,13.258 21.166,13.988 20.433 C 15.400 19.016,15.479 18.917,15.486 18.549 C 15.491 18.294,15.443 18.120,15.318 17.940 C 15.256 17.852,14.710 17.285,14.103 16.680 L 13.000 15.581 13.000 10.502 L 13.000 5.423 13.710 6.127 C 14.101 6.514,14.483 6.864,14.560 6.904 C 14.660 6.957,14.787 6.979,15.000 6.979 C 15.258 6.980,15.327 6.964,15.492 6.867 C 15.714 6.737,15.901 6.498,15.965 6.264 C 16.019 6.061,15.989 5.733,15.899 5.555 C 15.862 5.481,15.109 4.694,14.226 3.806 C 12.971 2.545,12.576 2.171,12.420 2.096 C 12.151 1.968,11.849 1.968,11.580 2.096 M12.551 17.971 L 13.080 18.501 12.540 19.040 L 12.000 19.579 11.460 19.040 L 10.920 18.501 11.449 17.971 C 11.741 17.679,11.988 17.440,12.000 17.440 C 12.012 17.440,12.259 17.679,12.551 17.971 " stroke="none" fill-rule="evenodd" fill="black"></path></svg>