<svg xmlns="http://www.w3.org/2000/svg" width="24" height="24" viewBox="0 0 24 24" fill="none" stroke="currentColor" stroke-width="2" stroke-linecap="round" stroke-linejoin="round"><path d="M5.580 2.094 C 5.343 2.204,5.155 2.405,5.064 2.646 C 5.004 2.803,4.998 3.089,5.009 5.563 L 5.020 8.306 5.141 8.503 C 5.543 9.156,6.457 9.156,6.859 8.503 L 6.980 8.306 6.992 6.865 L 7.004 5.424 9.281 7.701 C 11.480 9.899,11.556 9.981,11.500 10.066 C 11.370 10.265,11.160 10.849,11.082 11.228 C 10.700 13.105,11.756 15.031,13.540 15.711 C 13.716 15.778,13.891 15.843,13.929 15.855 C 13.993 15.875,13.999 16.063,14.009 18.592 L 14.020 21.306 14.141 21.503 C 14.543 22.156,15.457 22.156,15.859 21.503 L 15.980 21.306 15.991 18.592 C 16.001 16.063,16.007 15.875,16.071 15.855 C 17.340 15.452,18.237 14.645,18.704 13.488 C 19.090 12.530,19.090 11.469,18.705 10.516 C 18.172 9.197,17.001 8.269,15.605 8.058 C 15.121 7.986,14.879 7.986,14.395 8.058 C 13.961 8.124,13.621 8.231,13.237 8.423 L 12.974 8.554 10.697 6.277 L 8.420 4.000 9.800 3.998 C 11.284 3.996,11.350 3.989,11.619 3.783 C 11.696 3.725,11.808 3.592,11.869 3.489 C 11.964 3.328,11.980 3.256,11.980 3.000 C 11.980 2.746,11.963 2.672,11.872 2.516 C 11.813 2.415,11.698 2.282,11.618 2.221 C 11.327 1.999,11.334 2.000,8.444 2.000 L 5.780 2.001 5.580 2.094 M15.523 10.073 C 16.262 10.266,16.850 10.924,16.967 11.690 C 17.067 12.343,16.873 12.933,16.403 13.404 C 16.002 13.807,15.547 14.000,15.000 14.000 C 14.485 14.000,14.038 13.822,13.653 13.465 C 12.323 12.229,13.189 10.005,15.000 10.005 C 15.143 10.005,15.378 10.036,15.523 10.073 " stroke="none" fill-rule="evenodd" fill="black"></path></svg>