<svg xmlns="http://www.w3.org/2000/svg" width="24" height="24" viewBox="0 0 24 24" fill="none" stroke="currentColor" stroke-width="2" stroke-linecap="round" stroke-linejoin="round"><path d="M16.340 4.105 C 16.186 4.137,15.889 4.247,15.680 4.350 C 15.356 4.508,15.243 4.592,14.915 4.918 C 14.583 5.249,14.505 5.353,14.345 5.684 C 14.094 6.199,14.028 6.528,14.050 7.160 C 14.064 7.571,14.086 7.717,14.176 7.978 L 14.285 8.295 10.652 11.928 L 7.020 15.560 7.000 14.630 C 6.980 13.705,6.979 13.699,6.871 13.514 C 6.479 12.848,5.521 12.848,5.129 13.514 L 5.020 13.700 5.009 15.940 C 4.998 17.948,5.004 18.198,5.063 18.354 C 5.155 18.595,5.343 18.796,5.580 18.906 L 5.780 18.999 7.980 18.998 C 9.714 18.997,10.212 18.985,10.330 18.943 C 10.551 18.864,10.744 18.702,10.869 18.489 C 10.964 18.328,10.980 18.256,10.980 18.000 C 10.980 17.746,10.963 17.672,10.872 17.516 C 10.760 17.327,10.569 17.156,10.373 17.071 C 10.301 17.040,9.930 17.015,9.350 17.001 L 8.440 16.980 12.071 13.349 L 15.701 9.719 15.951 9.817 C 16.324 9.963,16.615 10.014,17.060 10.011 C 19.081 9.996,20.522 7.966,19.859 6.068 C 19.515 5.084,18.658 4.303,17.700 4.101 C 17.349 4.026,16.707 4.028,16.340 4.105 M17.544 6.182 C 17.676 6.263,17.783 6.374,17.870 6.520 C 17.983 6.708,18.000 6.773,18.000 7.009 C 18.000 7.346,17.897 7.585,17.666 7.783 C 17.044 8.315,16.099 7.913,16.047 7.094 C 16.019 6.658,16.231 6.294,16.617 6.114 C 16.873 5.994,17.289 6.025,17.544 6.182 " stroke="none" fill-rule="evenodd" fill="black"></path></svg>