<svg xmlns="http://www.w3.org/2000/svg" width="24" height="24" viewBox="0 0 24 24" fill="none" stroke="currentColor" stroke-width="2" stroke-linecap="round" stroke-linejoin="round"><path d="M7.842 4.043 C 5.232 4.295,2.995 6.161,2.261 8.700 C 2.072 9.351,2.024 9.722,2.022 10.543 L 2.020 11.306 2.141 11.503 C 2.542 12.154,3.457 12.156,3.857 11.507 C 3.973 11.318,3.976 11.297,4.005 10.607 C 4.021 10.218,4.064 9.757,4.100 9.582 C 4.569 7.339,6.691 5.789,8.955 6.034 C 10.252 6.175,11.340 6.800,12.128 7.857 C 13.271 9.388,13.271 11.609,12.129 13.143 C 11.402 14.120,10.414 14.731,9.225 14.938 C 8.925 14.990,8.399 15.000,5.881 15.000 C 2.638 15.000,2.675 14.998,2.382 15.221 C 2.302 15.282,2.187 15.415,2.128 15.516 C 2.037 15.672,2.020 15.746,2.020 16.000 C 2.020 16.256,2.036 16.328,2.131 16.489 C 2.256 16.702,2.449 16.864,2.670 16.943 C 2.793 16.987,4.221 16.997,10.699 16.998 L 18.577 17.000 17.873 17.710 C 17.486 18.101,17.136 18.483,17.096 18.560 C 17.043 18.660,17.021 18.787,17.021 19.000 C 17.020 19.258,17.036 19.327,17.133 19.492 C 17.263 19.714,17.502 19.901,17.736 19.965 C 17.939 20.019,18.267 19.989,18.445 19.899 C 18.519 19.862,19.306 19.109,20.194 18.226 C 21.957 16.472,21.999 16.420,21.999 16.000 C 21.999 15.578,21.960 15.530,20.175 13.756 C 18.716 12.307,18.519 12.124,18.343 12.066 C 17.863 11.906,17.382 12.084,17.128 12.516 C 17.036 12.672,17.020 12.745,17.021 13.000 C 17.021 13.213,17.043 13.340,17.096 13.440 C 17.136 13.517,17.486 13.900,17.873 14.290 L 18.577 15.000 15.888 15.000 L 13.199 15.000 13.444 14.710 C 14.862 13.026,15.344 10.791,14.739 8.699 C 14.218 6.897,12.916 5.384,11.220 4.609 C 10.136 4.113,9.033 3.929,7.842 4.043 " stroke="none" fill-rule="evenodd" fill="black"></path></svg>