<svg xmlns="http://www.w3.org/2000/svg" width="24" height="24" viewBox="0 0 24 24" fill="none" stroke="currentColor" stroke-width="2" stroke-linecap="round" stroke-linejoin="round"><path d="M17.670 8.061 C 17.448 8.142,17.250 8.309,17.128 8.516 C 17.036 8.672,17.020 8.745,17.021 9.000 C 17.021 9.213,17.043 9.340,17.096 9.440 C 17.136 9.517,17.486 9.900,17.873 10.290 L 18.577 11.000 13.292 11.000 L 8.007 11.000 7.993 10.350 C 7.981 9.728,7.975 9.692,7.872 9.516 C 7.740 9.293,7.533 9.128,7.290 9.055 C 7.023 8.975,2.977 8.975,2.710 9.055 C 2.467 9.128,2.260 9.293,2.128 9.516 L 2.020 9.700 2.020 12.000 L 2.020 14.300 2.131 14.489 C 2.256 14.702,2.449 14.864,2.670 14.943 C 2.889 15.021,7.111 15.021,7.330 14.943 C 7.551 14.864,7.744 14.702,7.869 14.489 C 7.976 14.307,7.980 14.277,7.993 13.650 L 8.007 13.000 13.292 13.000 L 18.577 13.000 17.873 13.710 C 17.486 14.101,17.139 14.481,17.101 14.555 C 16.872 15.008,17.056 15.601,17.508 15.867 C 17.673 15.964,17.742 15.980,18.000 15.979 C 18.212 15.979,18.341 15.957,18.440 15.905 C 18.517 15.865,19.306 15.109,20.194 14.226 C 21.957 12.472,21.999 12.420,21.999 12.000 C 21.999 11.578,21.960 11.530,20.175 9.756 C 18.716 8.307,18.519 8.124,18.343 8.066 C 18.108 7.987,17.875 7.986,17.670 8.061 M6.000 12.000 L 6.000 13.000 5.000 13.000 L 4.000 13.000 4.000 12.000 L 4.000 11.000 5.000 11.000 L 6.000 11.000 6.000 12.000 " stroke="none" fill-rule="evenodd" fill="black"></path></svg>