<svg xmlns="http://www.w3.org/2000/svg" width="24" height="24" viewBox="0 0 24 24" fill="none" stroke="currentColor" stroke-width="2" stroke-linecap="round" stroke-linejoin="round"><path d="M11.580 2.096 C 11.424 2.171,11.029 2.545,9.774 3.806 C 8.891 4.694,8.135 5.483,8.095 5.560 C 8.043 5.659,8.021 5.788,8.021 6.000 C 8.020 6.258,8.036 6.327,8.133 6.492 C 8.263 6.714,8.502 6.901,8.736 6.965 C 8.939 7.019,9.267 6.989,9.445 6.899 C 9.519 6.861,9.900 6.514,10.290 6.127 L 11.000 5.423 11.000 10.784 L 11.000 16.145 10.670 16.313 C 9.922 16.693,9.365 17.355,9.114 18.160 C 8.979 18.594,8.979 19.406,9.114 19.840 C 9.421 20.826,10.174 21.579,11.160 21.886 C 11.594 22.021,12.406 22.021,12.840 21.886 C 13.826 21.579,14.579 20.826,14.886 19.840 C 15.021 19.406,15.021 18.594,14.886 18.160 C 14.635 17.355,14.078 16.693,13.330 16.313 L 13.000 16.145 13.000 10.784 L 13.000 5.423 13.710 6.127 C 14.101 6.514,14.483 6.864,14.560 6.904 C 14.660 6.957,14.787 6.979,15.000 6.979 C 15.258 6.980,15.327 6.964,15.492 6.867 C 15.714 6.737,15.901 6.498,15.965 6.264 C 16.019 6.061,15.989 5.733,15.899 5.555 C 15.862 5.481,15.109 4.694,14.226 3.806 C 12.971 2.545,12.576 2.171,12.420 2.096 C 12.151 1.968,11.849 1.968,11.580 2.096 M12.310 18.061 C 12.688 18.173,13.000 18.598,13.000 19.001 C 13.000 19.331,12.784 19.696,12.484 19.872 C 12.328 19.963,12.254 19.980,12.000 19.980 C 11.746 19.980,11.672 19.963,11.516 19.872 C 10.935 19.530,10.833 18.774,11.304 18.303 C 11.583 18.024,11.916 17.944,12.310 18.061 " stroke="none" fill-rule="evenodd" fill="black"></path></svg>