<svg xmlns="http://www.w3.org/2000/svg" width="24" height="24" viewBox="0 0 24 24" fill="none" stroke="currentColor" stroke-width="2" stroke-linecap="round" stroke-linejoin="round"><path d="M11.080 2.045 C 9.206 2.210,7.361 2.947,5.800 4.154 C 5.005 4.769,4.015 5.884,3.470 6.780 C 2.550 8.291,1.993 10.208,2.002 11.834 C 2.004 12.367,2.146 12.654,2.511 12.869 C 2.673 12.964,2.744 12.980,3.003 12.980 C 3.271 12.980,3.329 12.966,3.503 12.859 C 3.743 12.711,3.948 12.420,3.975 12.189 C 3.986 12.096,4.013 11.759,4.035 11.440 C 4.111 10.356,4.354 9.441,4.816 8.500 C 5.342 7.430,6.062 6.526,7.000 5.759 C 7.919 5.007,9.239 4.391,10.422 4.161 C 12.164 3.822,13.945 4.052,15.500 4.816 C 17.133 5.618,18.382 6.867,19.184 8.500 C 19.646 9.441,19.889 10.356,19.965 11.440 C 19.987 11.759,20.014 12.096,20.025 12.189 C 20.052 12.420,20.257 12.711,20.497 12.859 C 20.671 12.966,20.729 12.980,20.997 12.980 C 21.257 12.980,21.327 12.964,21.492 12.867 C 21.714 12.737,21.901 12.498,21.965 12.264 C 22.022 12.058,21.985 11.143,21.898 10.560 C 21.635 8.815,20.951 7.228,19.847 5.800 C 19.510 5.365,18.639 4.494,18.200 4.154 C 16.133 2.555,13.646 1.818,11.080 2.045 M11.695 8.057 C 11.466 8.129,11.256 8.299,11.128 8.516 L 11.020 8.700 11.009 13.637 L 10.999 18.575 9.769 17.353 C 8.688 16.279,8.516 16.124,8.343 16.066 C 7.863 15.905,7.382 16.084,7.128 16.516 C 7.036 16.672,7.020 16.745,7.021 17.000 C 7.021 17.212,7.043 17.341,7.095 17.440 C 7.135 17.517,8.116 18.531,9.274 19.694 C 11.567 21.996,11.571 21.999,12.000 21.999 C 12.429 21.999,12.433 21.996,14.726 19.694 C 15.884 18.531,16.865 17.517,16.905 17.440 C 16.957 17.341,16.979 17.212,16.979 17.000 C 16.980 16.745,16.964 16.672,16.872 16.516 C 16.618 16.084,16.137 15.905,15.657 16.066 C 15.484 16.124,15.312 16.279,14.231 17.353 L 13.001 18.575 12.991 13.637 L 12.980 8.700 12.872 8.516 C 12.628 8.101,12.150 7.915,11.695 8.057 " stroke="none" fill-rule="evenodd" fill="black"></path></svg>