<svg xmlns="http://www.w3.org/2000/svg" width="24" height="24" viewBox="0 0 24 24" fill="none" stroke="currentColor" stroke-width="2" stroke-linecap="round" stroke-linejoin="round"><path d="M11.580 2.096 C 11.422 2.172,10.940 2.634,9.274 4.306 C 8.116 5.469,7.138 6.481,7.101 6.555 C 6.872 7.010,7.056 7.601,7.508 7.867 C 7.673 7.964,7.742 7.980,8.000 7.979 C 8.213 7.979,8.341 7.957,8.440 7.905 C 8.517 7.864,9.125 7.289,9.790 6.626 L 11.000 5.422 11.000 7.141 C 11.001 8.086,11.019 9.022,11.042 9.220 C 11.151 10.174,11.396 10.984,11.847 11.880 C 12.463 13.103,13.179 13.919,14.420 14.815 C 15.350 15.486,15.931 16.144,16.375 17.030 C 16.666 17.610,16.812 18.045,16.927 18.673 C 16.949 18.798,16.980 19.441,16.994 20.103 L 17.020 21.306 17.141 21.503 C 17.543 22.156,18.457 22.156,18.859 21.503 L 18.980 21.307 18.993 20.303 C 19.000 19.751,18.986 19.102,18.962 18.860 C 18.866 17.887,18.616 17.040,18.154 16.121 C 17.536 14.896,16.831 14.091,15.587 13.193 C 14.651 12.516,14.070 11.858,13.625 10.970 C 13.287 10.295,13.120 9.742,13.043 9.032 C 13.019 8.818,13.000 7.918,13.000 7.032 L 13.000 5.422 14.210 6.626 C 14.876 7.289,15.483 7.864,15.560 7.905 C 15.659 7.957,15.787 7.979,16.000 7.979 C 16.258 7.980,16.327 7.964,16.492 7.867 C 16.714 7.737,16.901 7.498,16.965 7.264 C 17.019 7.061,16.989 6.733,16.899 6.555 C 16.862 6.481,15.884 5.469,14.726 4.306 C 12.433 2.004,12.429 2.001,12.000 2.001 C 11.851 2.001,11.716 2.031,11.580 2.096 M9.600 12.123 C 9.203 12.303,9.022 12.589,9.021 13.043 C 9.020 13.311,9.034 13.369,9.141 13.543 C 9.543 14.196,10.457 14.196,10.859 13.543 C 10.966 13.369,10.980 13.311,10.979 13.043 C 10.978 12.812,10.958 12.702,10.893 12.580 C 10.714 12.245,10.377 12.042,10.000 12.042 C 9.864 12.042,9.711 12.073,9.600 12.123 M6.600 14.104 C 6.399 14.191,6.205 14.389,6.095 14.620 C 5.867 15.103,6.074 15.666,6.577 15.932 C 6.802 16.050,7.198 16.050,7.423 15.932 C 7.926 15.666,8.133 15.103,7.905 14.620 C 7.793 14.385,7.599 14.189,7.391 14.102 C 7.203 14.023,6.783 14.024,6.600 14.104 M5.800 17.037 C 5.178 17.164,4.827 17.854,5.095 18.420 C 5.276 18.801,5.595 19.008,6.000 19.008 C 6.405 19.008,6.724 18.801,6.905 18.420 C 7.188 17.822,6.785 17.107,6.120 17.029 C 6.021 17.018,5.877 17.021,5.800 17.037 M5.695 20.057 C 5.466 20.129,5.256 20.299,5.128 20.516 C 5.036 20.672,5.020 20.745,5.021 21.000 C 5.022 21.332,5.101 21.533,5.306 21.728 C 5.785 22.181,6.580 22.046,6.893 21.460 C 7.025 21.211,7.015 20.760,6.872 20.516 C 6.628 20.101,6.150 19.915,5.695 20.057 " stroke="none" fill-rule="evenodd" fill="black"></path></svg>