<svg xmlns="http://www.w3.org/2000/svg" width="24" height="24" viewBox="0 0 24 24" fill="none" stroke="currentColor" stroke-width="2" stroke-linecap="round" stroke-linejoin="round"><path d="M10.740 3.443 C 10.402 3.486,10.079 3.617,9.810 3.820 C 9.684 3.916,8.040 5.539,6.157 7.427 C 2.844 10.749,2.730 10.869,2.608 11.141 C 2.345 11.727,2.351 12.310,2.625 12.888 C 2.759 13.170,2.890 13.306,6.272 16.686 C 8.904 19.316,9.835 20.222,10.000 20.315 C 10.328 20.500,10.614 20.575,11.000 20.576 C 11.923 20.579,12.702 19.968,12.940 19.052 C 12.988 18.870,13.000 18.534,13.000 17.412 L 13.000 16.000 15.590 15.998 C 17.649 15.997,18.211 15.986,18.330 15.943 C 18.551 15.864,18.744 15.702,18.869 15.489 L 18.980 15.300 18.980 12.000 L 18.980 8.700 18.872 8.516 C 18.813 8.415,18.698 8.282,18.618 8.221 C 18.328 8.000,18.325 8.000,15.554 8.000 L 13.000 8.000 13.000 6.588 C 13.000 5.060,12.986 4.927,12.775 4.509 C 12.397 3.761,11.589 3.337,10.740 3.443 M11.131 9.489 C 11.256 9.702,11.449 9.864,11.670 9.943 C 11.789 9.986,12.351 9.997,14.410 9.998 L 17.000 10.000 17.000 12.000 L 17.000 14.000 14.446 14.000 C 11.675 14.000,11.672 14.000,11.382 14.221 C 11.302 14.282,11.187 14.415,11.128 14.516 L 11.020 14.700 11.000 16.630 L 10.980 18.560 7.700 15.280 L 4.420 12.000 7.700 8.720 L 10.980 5.440 11.000 7.370 L 11.020 9.300 11.131 9.489 M20.695 8.057 C 20.466 8.129,20.256 8.299,20.128 8.516 L 20.020 8.700 20.020 12.003 L 20.020 15.306 20.141 15.503 C 20.543 16.156,21.457 16.156,21.859 15.503 L 21.980 15.306 21.980 12.003 L 21.980 8.700 21.872 8.516 C 21.628 8.101,21.150 7.915,20.695 8.057 " stroke="none" fill-rule="evenodd" fill="black"></path></svg>