<svg xmlns="http://www.w3.org/2000/svg" width="24" height="24" viewBox="0 0 24 24" fill="none" stroke="currentColor" stroke-width="2" stroke-linecap="round" stroke-linejoin="round"><path d="M7.400 3.044 C 5.761 3.229,4.261 4.290,3.526 5.785 C 3.158 6.533,3.020 7.136,3.020 8.000 C 3.020 8.448,3.040 8.714,3.093 8.960 C 3.523 10.968,4.974 12.433,7.000 12.904 C 7.256 12.963,7.571 12.976,9.149 12.989 L 10.999 13.005 11.009 17.156 L 11.020 21.306 11.141 21.503 C 11.543 22.156,12.457 22.156,12.859 21.503 L 12.980 21.306 12.991 17.153 L 13.001 13.000 15.790 13.000 L 18.578 13.000 17.374 14.210 C 16.711 14.876,16.136 15.483,16.095 15.560 C 16.043 15.659,16.021 15.787,16.021 16.000 C 16.020 16.258,16.036 16.327,16.133 16.492 C 16.263 16.714,16.502 16.901,16.736 16.965 C 16.939 17.019,17.267 16.989,17.445 16.899 C 17.519 16.862,18.531 15.884,19.694 14.726 C 21.996 12.433,21.999 12.429,21.999 12.000 C 21.999 11.569,21.999 11.569,19.674 9.255 C 17.750 7.340,17.521 7.124,17.343 7.065 C 16.862 6.906,16.382 7.084,16.128 7.516 C 16.036 7.672,16.020 7.745,16.021 8.000 C 16.021 8.213,16.043 8.341,16.095 8.440 C 16.136 8.517,16.711 9.125,17.374 9.790 L 18.578 11.000 15.792 11.000 L 13.005 11.000 12.989 9.150 C 12.976 7.571,12.963 7.256,12.904 7.000 C 12.543 5.449,11.584 4.211,10.213 3.525 C 9.352 3.095,8.397 2.932,7.400 3.044 M8.861 5.129 C 9.803 5.404,10.578 6.178,10.877 7.139 C 10.976 7.457,10.977 7.476,10.991 9.233 L 11.005 11.005 9.213 10.991 C 7.467 10.977,7.413 10.974,7.140 10.884 C 6.162 10.562,5.415 9.811,5.125 8.861 C 5.042 8.588,5.027 8.458,5.027 8.000 C 5.027 7.542,5.042 7.412,5.125 7.139 C 5.456 6.054,6.371 5.245,7.499 5.040 C 7.832 4.980,8.500 5.023,8.861 5.129 " stroke="none" fill-rule="evenodd" fill="black"></path></svg>