<svg xmlns="http://www.w3.org/2000/svg" width="24" height="24" viewBox="0 0 24 24" fill="none" stroke="currentColor" stroke-width="2" stroke-linecap="round" stroke-linejoin="round"><path d="M11.580 2.096 C 11.422 2.172,10.940 2.634,9.274 4.306 C 8.116 5.469,7.138 6.481,7.101 6.555 C 6.872 7.010,7.056 7.601,7.508 7.867 C 7.673 7.964,7.742 7.980,8.000 7.979 C 8.213 7.979,8.341 7.957,8.440 7.905 C 8.517 7.864,9.124 7.289,9.789 6.627 L 10.999 5.423 11.009 10.365 L 11.020 15.306 11.141 15.503 C 11.446 15.999,12.077 16.144,12.548 15.828 C 12.654 15.756,12.791 15.613,12.859 15.503 L 12.980 15.306 12.991 10.365 L 13.001 5.423 14.211 6.627 C 14.876 7.289,15.483 7.864,15.560 7.905 C 15.659 7.957,15.787 7.979,16.000 7.979 C 16.258 7.980,16.327 7.964,16.492 7.867 C 16.714 7.737,16.901 7.498,16.965 7.264 C 17.019 7.061,16.989 6.733,16.899 6.555 C 16.862 6.481,15.884 5.469,14.726 4.306 C 12.433 2.004,12.429 2.001,12.000 2.001 C 11.851 2.001,11.716 2.031,11.580 2.096 M2.695 11.057 C 2.466 11.129,2.256 11.299,2.128 11.516 C 2.023 11.694,2.020 11.718,2.022 12.300 C 2.029 13.940,2.548 15.706,3.470 17.220 C 4.015 18.116,5.008 19.235,5.800 19.847 C 7.242 20.961,8.787 21.624,10.600 21.907 C 11.247 22.008,12.753 22.008,13.400 21.907 C 15.214 21.624,16.762 20.959,18.200 19.847 C 18.637 19.509,19.509 18.637,19.847 18.200 C 21.206 16.443,21.966 14.343,21.977 12.320 C 21.980 11.714,21.978 11.696,21.871 11.514 C 21.481 10.851,20.520 10.847,20.134 11.507 C 20.039 11.668,20.025 11.748,19.993 12.273 C 19.876 14.196,19.284 15.748,18.145 17.110 C 17.389 18.015,16.519 18.695,15.471 19.200 C 13.267 20.265,10.733 20.265,8.529 19.200 C 6.942 18.434,5.672 17.189,4.870 15.614 C 4.338 14.570,4.088 13.595,4.006 12.253 C 3.975 11.750,3.959 11.666,3.868 11.509 C 3.628 11.101,3.147 10.916,2.695 11.057 " stroke="none" fill-rule="evenodd" fill="black"></path></svg>