<svg xmlns="http://www.w3.org/2000/svg" width="24" height="24" viewBox="0 0 24 24" fill="none" stroke="currentColor" stroke-width="2" stroke-linecap="round" stroke-linejoin="round"><path d="M11.580 3.096 C 11.422 3.172,10.940 3.634,9.274 5.306 C 8.116 6.469,7.138 7.481,7.101 7.555 C 6.872 8.010,7.056 8.601,7.508 8.867 C 7.673 8.964,7.742 8.980,8.000 8.979 C 8.213 8.979,8.341 8.957,8.440 8.905 C 8.517 8.864,9.124 8.289,9.789 7.627 L 10.998 6.423 11.009 10.365 L 11.020 14.306 11.141 14.503 C 11.543 15.156,12.457 15.156,12.859 14.503 L 12.980 14.306 12.991 10.365 L 13.002 6.423 14.211 7.627 C 14.876 8.289,15.483 8.864,15.560 8.905 C 15.659 8.957,15.787 8.979,16.000 8.979 C 16.258 8.980,16.327 8.964,16.492 8.867 C 16.714 8.737,16.901 8.498,16.965 8.264 C 17.019 8.061,16.989 7.733,16.899 7.555 C 16.862 7.481,15.884 6.469,14.726 5.306 C 12.433 3.004,12.429 3.001,12.000 3.001 C 11.851 3.001,11.716 3.031,11.580 3.096 M3.695 19.057 C 3.466 19.129,3.256 19.299,3.128 19.516 C 3.037 19.672,3.020 19.746,3.020 20.000 C 3.020 20.256,3.036 20.328,3.131 20.489 C 3.256 20.702,3.449 20.864,3.670 20.943 C 3.893 21.022,20.107 21.022,20.330 20.943 C 20.551 20.864,20.744 20.702,20.869 20.489 C 20.964 20.328,20.980 20.256,20.980 20.000 C 20.980 19.746,20.963 19.672,20.872 19.516 C 20.740 19.293,20.533 19.128,20.290 19.055 C 20.027 18.976,3.947 18.978,3.695 19.057 " stroke="none" fill-rule="evenodd" fill="black"></path></svg>