<svg xmlns="http://www.w3.org/2000/svg" width="24" height="24" viewBox="0 0 24 24" fill="none" stroke="currentColor" stroke-width="2" stroke-linecap="round" stroke-linejoin="round"><path d="M17.580 2.096 C 17.424 2.171,17.029 2.545,15.774 3.806 C 14.891 4.694,14.135 5.483,14.095 5.560 C 14.043 5.659,14.021 5.788,14.021 6.000 C 14.020 6.258,14.036 6.327,14.133 6.492 C 14.263 6.714,14.502 6.901,14.736 6.965 C 14.939 7.019,15.267 6.989,15.445 6.899 C 15.519 6.861,15.899 6.514,16.289 6.128 L 16.998 5.425 17.009 7.866 L 17.020 10.306 17.141 10.503 C 17.543 11.156,18.457 11.156,18.859 10.503 L 18.980 10.306 18.991 7.866 L 19.002 5.425 19.711 6.128 C 20.101 6.514,20.483 6.864,20.560 6.904 C 20.660 6.957,20.787 6.979,21.000 6.979 C 21.258 6.980,21.327 6.964,21.492 6.867 C 21.714 6.737,21.901 6.498,21.965 6.264 C 22.019 6.061,21.989 5.733,21.899 5.555 C 21.862 5.481,21.109 4.694,20.226 3.806 C 18.971 2.545,18.576 2.171,18.420 2.096 C 18.151 1.968,17.849 1.968,17.580 2.096 M5.499 3.043 C 4.383 3.230,3.461 4.048,3.114 5.160 L 3.020 5.460 3.020 12.000 L 3.020 18.540 3.114 18.840 C 3.418 19.816,4.150 20.555,5.140 20.886 L 5.420 20.979 8.770 20.991 C 10.990 20.999,12.172 20.989,12.274 20.962 C 12.498 20.901,12.739 20.711,12.867 20.492 C 12.964 20.327,12.980 20.257,12.980 20.000 C 12.980 19.746,12.963 19.672,12.872 19.516 C 12.761 19.328,12.572 19.158,12.373 19.070 C 12.287 19.032,11.483 19.015,8.980 19.000 L 5.700 18.980 5.516 18.872 C 5.415 18.813,5.284 18.700,5.225 18.623 C 4.987 18.311,5.000 18.701,5.000 12.022 C 5.000 5.123,4.977 5.629,5.303 5.303 C 5.618 4.988,5.471 5.000,9.037 4.998 C 11.558 4.997,12.210 4.986,12.330 4.943 C 12.551 4.864,12.744 4.702,12.869 4.489 C 12.964 4.328,12.980 4.256,12.980 4.000 C 12.980 3.746,12.963 3.672,12.872 3.516 C 12.813 3.415,12.698 3.282,12.618 3.221 C 12.323 2.996,12.382 3.000,8.904 3.005 C 7.142 3.007,5.609 3.025,5.499 3.043 M17.695 13.057 C 17.466 13.129,17.256 13.299,17.128 13.516 L 17.020 13.700 17.009 16.136 L 16.998 18.571 16.269 17.852 C 15.655 17.247,15.509 17.123,15.343 17.067 C 14.865 16.905,14.383 17.083,14.128 17.516 C 14.036 17.672,14.020 17.745,14.021 18.000 C 14.021 18.212,14.043 18.341,14.095 18.440 C 14.135 18.517,14.891 19.306,15.774 20.194 C 17.528 21.957,17.580 21.999,18.000 21.999 C 18.420 21.999,18.472 21.957,20.226 20.194 C 21.109 19.306,21.865 18.517,21.905 18.440 C 21.957 18.341,21.979 18.212,21.979 18.000 C 21.980 17.745,21.964 17.672,21.872 17.516 C 21.617 17.083,21.135 16.905,20.657 17.067 C 20.491 17.123,20.345 17.247,19.731 17.852 L 19.002 18.571 18.991 16.136 L 18.980 13.700 18.872 13.516 C 18.628 13.101,18.150 12.915,17.695 13.057 " stroke="none" fill-rule="evenodd" fill="black"></path></svg>