<svg xmlns="http://www.w3.org/2000/svg" width="24" height="24" viewBox="0 0 24 24" fill="none" stroke="currentColor" stroke-width="2" stroke-linecap="round" stroke-linejoin="round"><path d="M14.695 2.057 C 14.466 2.129,14.256 2.299,14.128 2.516 C 14.037 2.672,14.020 2.746,14.020 3.000 C 14.020 3.256,14.036 3.328,14.131 3.489 C 14.192 3.592,14.304 3.725,14.381 3.783 C 14.650 3.989,14.716 3.996,16.199 3.998 L 17.578 4.000 14.515 7.070 C 12.831 8.758,11.369 10.251,11.266 10.388 C 10.584 11.291,10.171 12.305,10.041 13.400 C 10.009 13.665,9.999 14.921,10.008 17.543 L 10.020 21.306 10.141 21.503 C 10.543 22.156,11.457 22.156,11.859 21.503 L 11.980 21.306 12.002 17.383 C 12.024 13.545,12.026 13.453,12.109 13.140 C 12.263 12.563,12.508 12.064,12.865 11.600 C 12.958 11.479,14.375 10.040,16.015 8.402 L 18.996 5.424 19.008 6.865 L 19.020 8.306 19.141 8.503 C 19.543 9.156,20.457 9.156,20.859 8.503 L 20.980 8.306 20.991 5.563 C 21.002 3.089,20.996 2.803,20.936 2.646 C 20.845 2.405,20.657 2.204,20.420 2.094 L 20.220 2.001 17.540 2.003 C 15.466 2.005,14.823 2.017,14.695 2.057 M3.670 4.061 C 3.448 4.142,3.250 4.309,3.128 4.516 C 3.036 4.672,3.020 4.745,3.021 5.000 C 3.021 5.212,3.043 5.341,3.095 5.440 C 3.179 5.600,7.696 10.147,7.943 10.320 C 8.258 10.541,8.741 10.539,9.065 10.317 C 9.499 10.018,9.619 9.371,9.320 8.943 C 9.258 8.853,8.157 7.734,6.873 6.455 C 4.764 4.353,4.521 4.124,4.343 4.065 C 4.107 3.987,3.874 3.986,3.670 4.061 " stroke="none" fill-rule="evenodd" fill="black"></path></svg>