<svg xmlns="http://www.w3.org/2000/svg" width="24" height="24" viewBox="0 0 24 24" fill="none" stroke="currentColor" stroke-width="2" stroke-linecap="round" stroke-linejoin="round"><path d="M5.499 3.043 C 4.383 3.230,3.461 4.048,3.114 5.160 L 3.020 5.460 3.020 12.000 L 3.020 18.540 3.114 18.840 C 3.418 19.816,4.150 20.555,5.140 20.886 L 5.420 20.979 8.770 20.991 C 10.990 20.999,12.172 20.989,12.274 20.962 C 12.498 20.901,12.739 20.711,12.867 20.492 C 12.964 20.327,12.980 20.257,12.980 20.000 C 12.980 19.746,12.963 19.672,12.872 19.516 C 12.761 19.328,12.572 19.158,12.373 19.070 C 12.287 19.032,11.483 19.015,8.980 19.000 L 5.700 18.980 5.516 18.872 C 5.415 18.813,5.284 18.700,5.225 18.623 C 4.987 18.311,5.000 18.701,5.000 12.022 C 5.000 5.123,4.977 5.629,5.303 5.303 C 5.623 4.983,5.356 5.000,10.037 4.998 C 13.393 4.997,14.208 4.986,14.330 4.943 C 14.551 4.864,14.744 4.702,14.869 4.489 C 14.964 4.328,14.980 4.256,14.980 4.000 C 14.980 3.746,14.963 3.672,14.872 3.516 C 14.813 3.415,14.698 3.282,14.618 3.221 C 14.318 2.993,14.469 3.000,9.904 3.005 C 7.592 3.007,5.609 3.025,5.499 3.043 M17.695 3.057 C 17.466 3.129,17.256 3.299,17.128 3.516 L 17.020 3.700 17.010 11.136 L 16.999 18.573 16.270 17.853 C 15.655 17.247,15.509 17.123,15.343 17.067 C 14.865 16.905,14.383 17.083,14.128 17.516 C 14.036 17.672,14.020 17.745,14.021 18.000 C 14.021 18.212,14.043 18.341,14.095 18.440 C 14.135 18.517,14.891 19.306,15.774 20.194 C 17.528 21.957,17.580 21.999,18.000 21.999 C 18.420 21.999,18.472 21.957,20.226 20.194 C 21.109 19.306,21.865 18.517,21.905 18.440 C 21.957 18.341,21.979 18.212,21.979 18.000 C 21.980 17.745,21.964 17.672,21.872 17.516 C 21.617 17.083,21.135 16.905,20.657 17.067 C 20.491 17.123,20.345 17.247,19.730 17.853 L 19.001 18.573 18.990 11.136 L 18.980 3.700 18.872 3.516 C 18.628 3.101,18.150 2.915,17.695 3.057 " stroke="none" fill-rule="evenodd" fill="black"></path></svg>