<svg xmlns="http://www.w3.org/2000/svg" width="24" height="24" viewBox="0 0 24 24" fill="none" stroke="currentColor" stroke-width="2" stroke-linecap="round" stroke-linejoin="round"><path d="M5.640 3.069 C 5.488 3.121,5.205 3.384,3.825 4.755 C 2.040 6.530,2.001 6.578,2.001 7.000 C 2.001 7.420,2.043 7.472,3.806 9.226 C 4.694 10.109,5.481 10.862,5.555 10.899 C 6.010 11.128,6.601 10.944,6.867 10.492 C 6.964 10.327,6.980 10.258,6.979 10.000 C 6.979 9.787,6.957 9.660,6.904 9.560 C 6.864 9.483,6.514 9.101,6.127 8.710 L 5.423 8.000 7.801 7.998 C 9.684 7.997,10.211 7.985,10.330 7.943 C 10.551 7.864,10.744 7.702,10.869 7.489 C 10.964 7.328,10.980 7.256,10.980 7.000 C 10.980 6.746,10.963 6.672,10.872 6.516 C 10.813 6.415,10.698 6.282,10.618 6.221 C 10.330 6.002,10.307 6.000,7.765 6.000 L 5.423 6.000 6.127 5.290 C 6.514 4.899,6.864 4.517,6.904 4.440 C 6.957 4.340,6.979 4.213,6.979 4.000 C 6.980 3.745,6.964 3.672,6.872 3.516 C 6.617 3.083,6.121 2.902,5.640 3.069 M17.670 3.061 C 17.448 3.142,17.250 3.309,17.128 3.516 C 17.036 3.672,17.020 3.745,17.021 4.000 C 17.021 4.213,17.043 4.340,17.096 4.440 C 17.136 4.517,17.486 4.899,17.873 5.290 L 18.577 6.000 16.235 6.000 C 13.693 6.000,13.670 6.002,13.382 6.221 C 13.302 6.282,13.187 6.415,13.128 6.516 C 13.037 6.672,13.020 6.746,13.020 7.000 C 13.020 7.256,13.036 7.328,13.131 7.489 C 13.256 7.702,13.449 7.864,13.670 7.943 C 13.789 7.985,14.316 7.997,16.199 7.998 L 18.577 8.000 17.873 8.710 C 17.486 9.101,17.139 9.481,17.101 9.555 C 16.872 10.008,17.056 10.601,17.508 10.867 C 17.673 10.964,17.742 10.980,18.000 10.979 C 18.212 10.979,18.341 10.957,18.440 10.905 C 18.517 10.865,19.306 10.109,20.194 9.226 C 21.957 7.472,21.999 7.420,21.999 7.000 C 21.999 6.578,21.960 6.530,20.175 4.756 C 18.716 3.307,18.519 3.124,18.343 3.066 C 18.108 2.987,17.875 2.986,17.670 3.061 M5.499 13.043 C 4.380 13.233,3.461 14.048,3.114 15.160 C 3.022 15.453,3.020 15.497,3.020 17.000 C 3.020 18.503,3.022 18.547,3.114 18.840 C 3.422 19.827,4.173 20.578,5.160 20.886 L 5.460 20.980 12.000 20.980 L 18.540 20.980 18.840 20.886 C 19.827 20.578,20.578 19.827,20.886 18.840 C 20.978 18.547,20.980 18.503,20.980 17.000 C 20.980 15.497,20.978 15.453,20.886 15.160 C 20.581 14.182,19.832 13.428,18.861 13.121 L 18.540 13.020 12.120 13.014 C 8.589 13.011,5.609 13.024,5.499 13.043 M18.310 15.061 C 18.589 15.144,18.856 15.411,18.939 15.690 C 19.023 15.972,19.028 18.015,18.945 18.290 C 18.872 18.533,18.707 18.740,18.484 18.872 L 18.300 18.980 12.000 18.980 L 5.700 18.980 5.516 18.872 C 5.415 18.813,5.284 18.700,5.225 18.623 C 5.014 18.347,5.000 18.245,5.000 17.022 C 5.000 15.698,5.019 15.587,5.301 15.306 C 5.624 14.982,5.086 15.007,11.963 15.003 C 17.352 15.000,18.131 15.007,18.310 15.061 " stroke="none" fill-rule="evenodd" fill="black"></path></svg>