<svg xmlns="http://www.w3.org/2000/svg" width="24" height="24" viewBox="0 0 24 24" fill="none" stroke="currentColor" stroke-width="2" stroke-linecap="round" stroke-linejoin="round"><path d="M11.580 2.096 C 11.424 2.171,11.029 2.545,9.774 3.806 C 8.891 4.694,8.135 5.483,8.095 5.560 C 8.043 5.659,8.021 5.788,8.021 6.000 C 8.020 6.258,8.036 6.327,8.133 6.492 C 8.263 6.714,8.502 6.901,8.736 6.965 C 8.939 7.019,9.267 6.989,9.445 6.899 C 9.519 6.861,9.900 6.514,10.290 6.127 L 11.000 5.423 11.000 10.711 L 11.000 16.000 10.446 16.000 C 9.648 16.000,9.367 16.110,9.128 16.516 L 9.020 16.700 9.020 19.000 L 9.020 21.300 9.131 21.489 C 9.256 21.702,9.449 21.864,9.670 21.943 C 9.889 22.021,14.111 22.021,14.330 21.943 C 14.551 21.864,14.744 21.702,14.869 21.489 L 14.980 21.300 14.980 19.000 L 14.980 16.700 14.872 16.516 C 14.633 16.110,14.352 16.000,13.554 16.000 L 13.000 16.000 13.000 10.711 L 13.000 5.423 13.710 6.127 C 14.101 6.514,14.483 6.864,14.560 6.904 C 14.660 6.957,14.787 6.979,15.000 6.979 C 15.258 6.980,15.327 6.964,15.492 6.867 C 15.714 6.737,15.901 6.498,15.965 6.264 C 16.019 6.061,15.989 5.733,15.899 5.555 C 15.862 5.481,15.109 4.694,14.226 3.806 C 12.971 2.545,12.576 2.171,12.420 2.096 C 12.151 1.968,11.849 1.968,11.580 2.096 M13.000 19.000 L 13.000 20.000 12.000 20.000 L 11.000 20.000 11.000 19.000 L 11.000 18.000 12.000 18.000 L 13.000 18.000 13.000 19.000 " stroke="none" fill-rule="evenodd" fill="black"></path></svg>