<svg xmlns="http://www.w3.org/2000/svg" width="24" height="24" viewBox="0 0 24 24" fill="none" stroke="currentColor" stroke-width="2" stroke-linecap="round" stroke-linejoin="round"><path d="M2.695 6.057 C 2.051 6.258,1.799 7.040,2.198 7.591 C 2.263 7.681,2.403 7.805,2.508 7.867 L 2.700 7.980 4.140 8.005 C 5.906 8.037,6.225 8.090,7.060 8.499 C 7.827 8.875,8.329 9.305,8.973 10.139 C 9.560 10.901,10.280 11.575,10.920 11.964 C 10.973 11.996,10.973 12.004,10.920 12.036 C 10.274 12.429,9.521 13.135,8.966 13.867 C 8.346 14.685,7.762 15.179,6.992 15.536 C 6.154 15.925,5.684 15.999,4.076 16.000 C 2.787 16.000,2.648 16.018,2.382 16.221 C 2.302 16.282,2.187 16.415,2.128 16.516 C 2.037 16.672,2.020 16.746,2.020 17.000 C 2.020 17.257,2.036 17.327,2.133 17.492 C 2.263 17.713,2.503 17.901,2.734 17.964 C 2.843 17.993,3.371 18.002,4.338 17.990 C 5.636 17.975,5.824 17.964,6.220 17.883 C 7.166 17.690,7.997 17.344,8.799 16.810 C 9.351 16.443,10.080 15.738,10.516 15.151 C 10.886 14.651,11.153 14.361,11.482 14.098 C 12.108 13.599,12.808 13.267,13.601 13.094 C 13.852 13.040,14.274 13.026,16.240 13.012 L 18.580 12.995 17.875 13.707 C 17.487 14.099,17.139 14.481,17.101 14.555 C 16.872 15.008,17.056 15.601,17.508 15.867 C 17.673 15.964,17.742 15.980,18.000 15.979 C 18.212 15.979,18.341 15.957,18.440 15.905 C 18.517 15.865,19.306 15.109,20.194 14.226 C 21.957 12.472,21.999 12.420,21.999 12.000 C 21.999 11.578,21.960 11.530,20.175 9.756 C 18.716 8.307,18.519 8.124,18.343 8.066 C 17.863 7.906,17.382 8.084,17.128 8.516 C 17.036 8.672,17.020 8.745,17.021 9.000 C 17.021 9.213,17.043 9.340,17.096 9.440 C 17.136 9.517,17.487 9.900,17.875 10.292 L 18.580 11.004 16.220 10.989 C 13.984 10.975,13.842 10.969,13.520 10.890 C 12.712 10.689,12.091 10.388,11.483 9.902 C 11.145 9.631,10.931 9.399,10.542 8.880 C 10.123 8.320,9.396 7.602,8.902 7.259 C 7.922 6.579,6.804 6.161,5.644 6.042 C 5.044 5.981,2.904 5.991,2.695 6.057 " stroke="none" fill-rule="evenodd" fill="black"></path></svg>