<svg xmlns="http://www.w3.org/2000/svg" width="24" height="24" viewBox="0 0 24 24" fill="none" stroke="currentColor" stroke-width="2" stroke-linecap="round" stroke-linejoin="round"><path d="M6.580 2.096 C 6.424 2.171,6.029 2.545,4.774 3.806 C 3.891 4.694,3.135 5.483,3.095 5.560 C 3.043 5.659,3.021 5.788,3.021 6.000 C 3.020 6.258,3.036 6.327,3.133 6.492 C 3.263 6.714,3.502 6.901,3.736 6.965 C 3.939 7.019,4.267 6.989,4.445 6.899 C 4.519 6.861,4.899 6.514,5.290 6.127 L 5.999 5.424 6.010 13.365 L 6.020 21.306 6.141 21.503 C 6.209 21.613,6.346 21.756,6.452 21.828 C 6.923 22.144,7.554 21.999,7.859 21.503 L 7.980 21.306 7.990 13.365 L 8.001 5.424 8.710 6.127 C 9.101 6.514,9.483 6.864,9.560 6.904 C 9.660 6.957,9.787 6.979,10.000 6.979 C 10.258 6.980,10.327 6.964,10.492 6.867 C 10.714 6.737,10.901 6.498,10.965 6.264 C 11.019 6.061,10.989 5.733,10.899 5.555 C 10.862 5.481,10.109 4.694,9.226 3.806 C 7.971 2.545,7.576 2.171,7.420 2.096 C 7.151 1.968,6.849 1.968,6.580 2.096 M16.695 2.057 C 16.466 2.129,16.256 2.299,16.128 2.516 L 16.020 2.700 16.010 10.636 L 15.999 18.573 15.270 17.853 C 14.655 17.247,14.509 17.123,14.343 17.067 C 13.865 16.905,13.383 17.083,13.128 17.516 C 13.036 17.672,13.020 17.745,13.021 18.000 C 13.021 18.212,13.043 18.341,13.095 18.440 C 13.135 18.517,13.891 19.306,14.774 20.194 C 16.528 21.957,16.580 21.999,17.000 21.999 C 17.420 21.999,17.472 21.957,19.226 20.194 C 20.109 19.306,20.865 18.517,20.905 18.440 C 20.957 18.341,20.979 18.212,20.979 18.000 C 20.980 17.745,20.964 17.672,20.872 17.516 C 20.617 17.083,20.135 16.905,19.657 17.067 C 19.491 17.123,19.345 17.247,18.730 17.853 L 18.001 18.573 17.990 10.636 L 17.980 2.700 17.872 2.516 C 17.628 2.101,17.150 1.915,16.695 2.057 " stroke="none" fill-rule="evenodd" fill="black"></path></svg>