<svg xmlns="http://www.w3.org/2000/svg" width="24" height="24" viewBox="0 0 24 24" fill="none" stroke="currentColor" stroke-width="2" stroke-linecap="round" stroke-linejoin="round"><path d="M5.640 8.069 C 5.488 8.121,5.205 8.384,3.825 9.755 C 2.040 11.530,2.001 11.578,2.001 12.000 C 2.001 12.420,2.043 12.472,3.806 14.226 C 4.694 15.109,5.481 15.862,5.555 15.899 C 6.010 16.128,6.601 15.944,6.867 15.492 C 6.964 15.327,6.980 15.258,6.979 15.000 C 6.979 14.787,6.957 14.660,6.904 14.560 C 6.864 14.483,6.514 14.101,6.127 13.710 L 5.423 13.000 12.709 13.000 L 19.995 13.000 20.008 14.153 L 20.020 15.307 20.141 15.503 C 20.543 16.156,21.457 16.156,21.859 15.503 L 21.980 15.306 21.980 12.003 L 21.980 8.700 21.871 8.514 C 21.479 7.848,20.521 7.848,20.129 8.514 L 20.020 8.700 20.008 9.850 L 19.995 11.000 12.709 11.000 L 5.423 11.000 6.127 10.290 C 6.514 9.900,6.864 9.517,6.904 9.440 C 6.957 9.340,6.979 9.213,6.979 9.000 C 6.980 8.745,6.964 8.672,6.872 8.516 C 6.617 8.083,6.121 7.902,5.640 8.069 " stroke="none" fill-rule="evenodd" fill="black"></path></svg>