<svg xmlns="http://www.w3.org/2000/svg" width="24" height="24" viewBox="0 0 24 24" fill="none" stroke="currentColor" stroke-width="2" stroke-linecap="round" stroke-linejoin="round"><path d="M19.695 3.057 C 19.466 3.129,19.256 3.299,19.128 3.516 L 19.020 3.700 19.020 12.003 L 19.020 20.306 19.141 20.503 C 19.543 21.156,20.457 21.156,20.859 20.503 L 20.980 20.306 20.980 12.003 L 20.980 3.700 20.872 3.516 C 20.628 3.101,20.150 2.915,19.695 3.057 M9.670 7.061 C 9.448 7.142,9.250 7.309,9.128 7.516 C 9.036 7.672,9.020 7.745,9.021 8.000 C 9.021 8.213,9.043 8.341,9.095 8.440 C 9.136 8.517,9.711 9.125,10.374 9.790 L 11.578 11.000 7.735 11.000 C 3.565 11.000,3.680 10.994,3.382 11.221 C 3.302 11.282,3.187 11.415,3.128 11.516 C 3.037 11.672,3.020 11.746,3.020 12.000 C 3.020 12.256,3.036 12.328,3.131 12.489 C 3.256 12.702,3.449 12.864,3.670 12.943 C 3.791 12.986,4.563 12.997,7.699 12.998 L 11.578 13.000 10.374 14.210 C 9.711 14.876,9.138 15.481,9.101 15.555 C 8.872 16.009,9.056 16.601,9.508 16.867 C 9.673 16.964,9.742 16.980,10.000 16.979 C 10.212 16.979,10.341 16.957,10.440 16.905 C 10.517 16.865,11.531 15.884,12.694 14.726 C 14.996 12.433,14.999 12.429,14.999 12.000 C 14.999 11.569,14.999 11.569,12.674 9.255 C 10.750 7.340,10.521 7.124,10.343 7.065 C 10.107 6.987,9.874 6.986,9.670 7.061 " stroke="none" fill-rule="evenodd" fill="black"></path></svg>