<svg xmlns="http://www.w3.org/2000/svg" width="24" height="24" viewBox="0 0 24 24" fill="none" stroke="currentColor" stroke-width="2" stroke-linecap="round" stroke-linejoin="round"><path d="M11.540 2.023 C 10.715 2.102,10.250 2.200,9.620 2.427 C 7.203 3.297,5.474 5.417,5.073 8.000 C 4.996 8.493,4.996 15.507,5.073 16.000 C 5.552 19.090,7.881 21.425,10.980 21.926 C 11.392 21.992,12.607 21.992,13.020 21.926 C 14.548 21.679,15.874 21.008,16.941 19.941 C 18.226 18.656,18.965 16.936,18.977 15.200 C 18.980 14.724,18.975 14.691,18.871 14.514 C 18.648 14.134,18.208 13.941,17.786 14.035 C 17.375 14.127,17.056 14.473,17.019 14.866 C 17.009 14.973,16.981 15.258,16.958 15.500 C 16.890 16.209,16.730 16.737,16.398 17.353 C 15.793 18.477,14.799 19.322,13.600 19.732 C 13.044 19.922,12.670 19.980,12.000 19.980 C 11.330 19.980,10.956 19.922,10.400 19.732 C 8.808 19.188,7.575 17.858,7.162 16.240 C 7.016 15.670,7.000 15.247,7.000 12.000 C 7.000 8.753,7.016 8.330,7.162 7.760 C 7.607 6.015,9.009 4.613,10.760 4.161 C 11.693 3.920,12.875 3.983,13.752 4.320 C 14.120 4.461,14.569 4.703,14.900 4.939 C 16.001 5.723,16.794 7.028,16.942 8.300 L 16.970 8.540 16.255 7.837 C 15.655 7.247,15.508 7.123,15.343 7.067 C 14.865 6.905,14.383 7.083,14.128 7.516 C 14.036 7.672,14.020 7.745,14.021 8.000 C 14.021 8.212,14.043 8.341,14.095 8.440 C 14.135 8.517,14.891 9.306,15.774 10.194 C 17.528 11.957,17.580 11.999,18.000 11.999 C 18.420 11.999,18.472 11.957,20.226 10.194 C 21.109 9.306,21.865 8.517,21.905 8.440 C 21.957 8.341,21.979 8.212,21.979 8.000 C 21.980 7.745,21.964 7.672,21.872 7.516 C 21.617 7.083,21.135 6.905,20.657 7.067 C 20.491 7.123,20.345 7.247,19.731 7.853 C 19.282 8.296,18.996 8.550,18.986 8.516 C 18.977 8.485,18.949 8.282,18.924 8.064 C 18.869 7.582,18.764 7.149,18.573 6.620 C 17.715 4.237,15.581 2.473,13.102 2.098 C 12.726 2.041,11.813 1.997,11.540 2.023 " stroke="none" fill-rule="evenodd" fill="black"></path></svg>