<svg xmlns="http://www.w3.org/2000/svg" width="24" height="24" viewBox="0 0 24 24" fill="none" stroke="currentColor" stroke-width="2" stroke-linecap="round" stroke-linejoin="round"><path d="M16.670 5.061 C 16.448 5.142,16.250 5.309,16.128 5.516 C 16.036 5.672,16.020 5.745,16.021 6.000 C 16.021 6.213,16.043 6.341,16.095 6.440 C 16.136 6.517,16.711 7.124,17.374 7.790 L 18.578 9.000 12.735 9.000 C 7.900 9.000,6.861 9.009,6.710 9.055 C 6.467 9.128,6.260 9.293,6.128 9.516 C 6.037 9.672,6.020 9.746,6.020 10.000 C 6.020 10.256,6.036 10.328,6.131 10.489 C 6.256 10.702,6.449 10.864,6.670 10.943 C 6.893 11.022,21.107 11.022,21.330 10.943 C 21.845 10.759,22.112 10.205,21.940 9.675 C 21.875 9.472,21.749 9.338,19.705 7.295 C 17.745 5.335,17.521 5.124,17.343 5.065 C 17.107 4.987,16.874 4.986,16.670 5.061 M2.695 13.057 C 2.167 13.222,1.885 13.785,2.060 14.325 C 2.126 14.527,2.256 14.666,4.235 16.653 C 5.411 17.833,6.419 18.813,6.520 18.873 C 6.672 18.963,6.746 18.980,7.000 18.980 C 7.257 18.980,7.327 18.964,7.492 18.867 C 7.714 18.737,7.901 18.498,7.965 18.264 C 8.019 18.061,7.989 17.733,7.899 17.555 C 7.862 17.481,7.289 16.875,6.626 16.210 L 5.422 15.000 11.301 14.998 C 16.108 14.997,17.207 14.987,17.330 14.943 C 17.551 14.864,17.744 14.702,17.869 14.489 C 17.964 14.328,17.980 14.256,17.980 14.000 C 17.980 13.746,17.963 13.672,17.872 13.516 C 17.740 13.293,17.533 13.128,17.290 13.055 C 17.027 12.976,2.947 12.978,2.695 13.057 " stroke="none" fill-rule="evenodd" fill="black"></path></svg>