<svg xmlns="http://www.w3.org/2000/svg" width="24" height="24" viewBox="0 0 24 24" fill="none" stroke="currentColor" stroke-width="2" stroke-linecap="round" stroke-linejoin="round"><path d="M5.640 8.069 C 5.488 8.121,5.205 8.384,3.825 9.755 C 2.040 11.530,2.001 11.578,2.001 12.000 C 2.001 12.420,2.043 12.472,3.806 14.226 C 4.694 15.109,5.481 15.862,5.555 15.899 C 6.010 16.128,6.601 15.944,6.867 15.492 C 6.964 15.327,6.980 15.258,6.979 15.000 C 6.979 14.787,6.957 14.660,6.904 14.560 C 6.864 14.483,6.514 14.101,6.127 13.710 L 5.423 13.000 10.502 13.000 L 15.581 13.000 16.680 14.103 C 17.285 14.710,17.853 15.257,17.943 15.320 C 18.255 15.539,18.743 15.539,19.055 15.321 C 19.300 15.151,21.819 12.603,21.905 12.440 C 21.957 12.341,21.979 12.213,21.979 12.000 C 21.980 11.745,21.964 11.673,21.873 11.520 C 21.814 11.421,21.166 10.742,20.433 10.012 C 18.975 8.560,18.926 8.522,18.500 8.522 C 18.080 8.522,18.012 8.572,16.739 9.842 L 15.578 11.000 10.501 11.000 L 5.423 11.000 6.127 10.290 C 6.514 9.900,6.864 9.517,6.904 9.440 C 6.957 9.340,6.979 9.213,6.979 9.000 C 6.980 8.745,6.964 8.672,6.872 8.516 C 6.617 8.083,6.121 7.902,5.640 8.069 M19.040 12.540 L 18.501 13.080 17.961 12.540 L 17.421 12.000 17.960 11.460 L 18.499 10.920 19.039 11.460 L 19.579 12.000 19.040 12.540 " stroke="none" fill-rule="evenodd" fill="black"></path></svg>