<svg xmlns="http://www.w3.org/2000/svg" width="24" height="24" viewBox="0 0 24 24" fill="none" stroke="currentColor" stroke-width="2" stroke-linecap="round" stroke-linejoin="round"><path d="M9.477 2.073 C 8.806 2.249,8.238 2.823,8.060 3.508 C 8.009 3.703,8.000 4.278,8.000 7.368 L 8.000 11.000 6.630 11.001 C 5.608 11.001,5.193 11.016,4.995 11.058 C 3.674 11.337,3.017 12.814,3.685 14.000 C 3.778 14.165,4.684 15.096,7.314 17.728 C 10.694 21.110,10.830 21.241,11.112 21.375 C 11.703 21.655,12.287 21.656,12.880 21.378 C 13.173 21.240,13.259 21.157,16.703 17.708 C 20.585 13.820,20.409 14.019,20.541 13.365 C 20.717 12.495,20.284 11.628,19.468 11.214 C 19.098 11.026,18.852 11.001,17.370 11.001 L 16.000 11.000 15.999 7.390 C 15.999 3.482,16.000 3.515,15.781 3.083 C 15.646 2.816,15.297 2.449,15.017 2.281 C 14.564 2.008,14.524 2.005,12.000 2.005 C 9.992 2.005,9.711 2.012,9.477 2.073 M14.002 8.090 C 14.003 11.402,14.014 12.209,14.057 12.330 C 14.136 12.551,14.298 12.744,14.511 12.869 L 14.700 12.980 16.630 13.000 L 18.560 13.020 15.280 16.300 L 12.000 19.580 8.720 16.300 L 5.440 13.020 7.370 13.000 L 9.300 12.980 9.489 12.869 C 9.702 12.744,9.864 12.551,9.943 12.330 C 9.986 12.209,9.997 11.402,9.998 8.090 L 10.000 4.000 12.000 4.000 L 14.000 4.000 14.002 8.090 " stroke="none" fill-rule="evenodd" fill="black"></path></svg>