<svg xmlns="http://www.w3.org/2000/svg" width="24" height="24" viewBox="0 0 24 24" fill="none" stroke="currentColor" stroke-width="2" stroke-linecap="round" stroke-linejoin="round"><path d="M6.695 2.057 C 6.466 2.129,6.256 2.299,6.128 2.516 L 6.020 2.700 6.010 10.636 L 5.999 18.573 5.270 17.853 C 4.655 17.247,4.509 17.123,4.343 17.067 C 3.865 16.905,3.383 17.083,3.128 17.516 C 3.036 17.672,3.020 17.745,3.021 18.000 C 3.021 18.212,3.043 18.341,3.095 18.440 C 3.135 18.517,3.891 19.306,4.774 20.194 C 6.528 21.957,6.580 21.999,7.000 21.999 C 7.420 21.999,7.472 21.957,9.226 20.194 C 10.109 19.306,10.865 18.517,10.905 18.440 C 10.957 18.341,10.979 18.212,10.979 18.000 C 10.980 17.745,10.964 17.672,10.872 17.516 C 10.617 17.083,10.135 16.905,9.657 17.067 C 9.491 17.123,9.345 17.247,8.730 17.853 L 8.001 18.573 7.990 10.636 L 7.980 2.700 7.872 2.516 C 7.628 2.101,7.150 1.915,6.695 2.057 M16.580 2.096 C 16.424 2.171,16.029 2.545,14.774 3.806 C 13.891 4.694,13.135 5.483,13.095 5.560 C 13.043 5.659,13.021 5.788,13.021 6.000 C 13.020 6.258,13.036 6.327,13.133 6.492 C 13.263 6.714,13.502 6.901,13.736 6.965 C 13.939 7.019,14.267 6.989,14.445 6.899 C 14.519 6.861,14.899 6.514,15.290 6.127 L 15.999 5.424 16.010 13.365 L 16.020 21.306 16.141 21.503 C 16.209 21.613,16.346 21.756,16.452 21.828 C 16.923 22.144,17.554 21.999,17.859 21.503 L 17.980 21.306 17.990 13.365 L 18.001 5.424 18.710 6.127 C 19.101 6.514,19.483 6.864,19.560 6.904 C 19.660 6.957,19.787 6.979,20.000 6.979 C 20.258 6.980,20.327 6.964,20.492 6.867 C 20.714 6.737,20.901 6.498,20.965 6.264 C 21.019 6.061,20.989 5.733,20.899 5.555 C 20.862 5.481,20.109 4.694,19.226 3.806 C 17.971 2.545,17.576 2.171,17.420 2.096 C 17.151 1.968,16.849 1.968,16.580 2.096 " stroke="none" fill-rule="evenodd" fill="black"></path></svg>