<svg xmlns="http://www.w3.org/2000/svg" width="24" height="24" viewBox="0 0 24 24" fill="none" stroke="currentColor" stroke-width="2" stroke-linecap="round" stroke-linejoin="round"><path d="M6.640 2.068 C 6.486 2.121,6.148 2.441,4.326 4.255 C 2.001 6.569,2.001 6.569,2.001 7.000 C 2.001 7.429,2.004 7.433,4.306 9.726 C 5.469 10.884,6.483 11.865,6.560 11.905 C 6.659 11.957,6.788 11.979,7.000 11.979 C 7.258 11.980,7.327 11.964,7.492 11.867 C 7.714 11.737,7.901 11.498,7.965 11.264 C 8.019 11.061,7.989 10.733,7.899 10.555 C 7.862 10.481,7.289 9.875,6.626 9.210 L 5.421 8.000 8.772 8.010 L 12.124 8.020 12.216 8.285 C 12.429 8.894,12.724 9.364,13.180 9.820 C 13.638 10.278,14.092 10.563,14.705 10.778 L 14.980 10.874 15.000 15.590 L 15.020 20.306 15.141 20.503 C 15.543 21.156,16.457 21.156,16.859 20.503 L 16.980 20.306 16.991 15.592 C 17.001 11.159,17.005 10.876,17.071 10.855 C 18.341 10.451,19.237 9.646,19.704 8.488 C 20.090 7.530,20.090 6.469,19.705 5.516 C 19.172 4.197,18.001 3.269,16.605 3.058 C 16.121 2.986,15.879 2.986,15.395 3.058 C 13.856 3.291,12.603 4.397,12.143 5.930 C 12.124 5.996,11.928 6.000,8.772 6.000 L 5.422 6.000 6.626 4.790 C 7.289 4.125,7.864 3.517,7.905 3.440 C 7.957 3.341,7.979 3.213,7.979 3.000 C 7.980 2.745,7.964 2.672,7.872 2.516 C 7.617 2.083,7.121 1.903,6.640 2.068 M16.523 5.073 C 17.262 5.266,17.850 5.924,17.967 6.690 C 18.067 7.343,17.873 7.933,17.403 8.404 C 17.002 8.807,16.547 9.000,16.000 9.000 C 15.485 9.000,15.038 8.822,14.653 8.465 C 13.323 7.229,14.189 5.005,16.000 5.005 C 16.143 5.005,16.378 5.036,16.523 5.073 " stroke="none" fill-rule="evenodd" fill="black"></path></svg>