<svg xmlns="http://www.w3.org/2000/svg" width="24" height="24" viewBox="0 0 24 24" fill="none" stroke="currentColor" stroke-width="2" stroke-linecap="round" stroke-linejoin="round"><path d="M6.640 7.068 C 6.486 7.121,6.148 7.441,4.326 9.255 C 2.001 11.569,2.001 11.569,2.001 12.000 C 2.001 12.429,2.004 12.433,4.306 14.726 C 5.469 15.884,6.483 16.865,6.560 16.905 C 6.659 16.957,6.788 16.979,7.000 16.979 C 7.258 16.980,7.327 16.964,7.492 16.867 C 7.714 16.737,7.901 16.498,7.965 16.264 C 8.019 16.061,7.989 15.733,7.899 15.555 C 7.862 15.481,7.289 14.876,6.626 14.210 L 5.422 13.000 12.000 13.000 L 18.578 13.000 17.374 14.210 C 16.711 14.876,16.138 15.481,16.101 15.555 C 15.872 16.009,16.056 16.601,16.508 16.867 C 16.673 16.964,16.742 16.980,17.000 16.979 C 17.212 16.979,17.341 16.957,17.440 16.905 C 17.517 16.865,18.531 15.884,19.694 14.726 C 21.996 12.433,21.999 12.429,21.999 12.000 C 21.999 11.569,21.999 11.569,19.674 9.255 C 17.750 7.340,17.521 7.124,17.343 7.065 C 16.862 6.906,16.382 7.084,16.128 7.516 C 16.036 7.672,16.020 7.745,16.021 8.000 C 16.021 8.213,16.043 8.341,16.095 8.440 C 16.136 8.517,16.711 9.125,17.374 9.790 L 18.578 11.000 12.000 11.000 L 5.422 11.000 6.626 9.790 C 7.289 9.125,7.864 8.517,7.905 8.440 C 7.957 8.341,7.979 8.213,7.979 8.000 C 7.980 7.745,7.964 7.672,7.872 7.516 C 7.617 7.083,7.121 6.903,6.640 7.068 " stroke="none" fill-rule="evenodd" fill="black"></path></svg>