<svg xmlns="http://www.w3.org/2000/svg" width="24" height="24" viewBox="0 0 24 24" fill="none" stroke="currentColor" stroke-width="2" stroke-linecap="round" stroke-linejoin="round"><path d="M6.695 2.057 C 6.466 2.129,6.256 2.299,6.128 2.516 L 6.020 2.700 6.010 10.636 L 5.999 18.573 5.270 17.853 C 4.655 17.247,4.509 17.123,4.343 17.067 C 3.865 16.905,3.383 17.083,3.128 17.516 C 3.036 17.672,3.020 17.745,3.021 18.000 C 3.021 18.212,3.043 18.341,3.095 18.440 C 3.135 18.517,3.891 19.306,4.774 20.194 C 6.528 21.957,6.580 21.999,7.000 21.999 C 7.420 21.999,7.472 21.957,9.226 20.194 C 10.109 19.306,10.865 18.517,10.905 18.440 C 10.957 18.341,10.979 18.212,10.979 18.000 C 10.980 17.745,10.964 17.672,10.872 17.516 C 10.617 17.083,10.135 16.905,9.657 17.067 C 9.491 17.123,9.345 17.247,8.730 17.853 L 8.001 18.573 7.990 10.636 L 7.980 2.700 7.872 2.516 C 7.628 2.101,7.150 1.915,6.695 2.057 M16.695 2.057 C 16.466 2.129,16.256 2.299,16.128 2.516 L 16.020 2.700 16.010 10.636 L 15.999 18.573 15.270 17.853 C 14.655 17.247,14.509 17.123,14.343 17.067 C 13.865 16.905,13.383 17.083,13.128 17.516 C 13.036 17.672,13.020 17.745,13.021 18.000 C 13.021 18.212,13.043 18.341,13.095 18.440 C 13.135 18.517,13.891 19.306,14.774 20.194 C 16.528 21.957,16.580 21.999,17.000 21.999 C 17.420 21.999,17.472 21.957,19.226 20.194 C 20.109 19.306,20.865 18.517,20.905 18.440 C 20.957 18.341,20.979 18.212,20.979 18.000 C 20.980 17.745,20.964 17.672,20.872 17.516 C 20.617 17.083,20.135 16.905,19.657 17.067 C 19.491 17.123,19.345 17.247,18.730 17.853 L 18.001 18.573 17.990 10.636 L 17.980 2.700 17.872 2.516 C 17.628 2.101,17.150 1.915,16.695 2.057 " stroke="none" fill-rule="evenodd" fill="black"></path></svg>