<svg xmlns="http://www.w3.org/2000/svg" width="24" height="24" viewBox="0 0 24 24" fill="none" stroke="currentColor" stroke-width="2" stroke-linecap="round" stroke-linejoin="round"><path d="M15.580 3.096 C 15.424 3.171,15.029 3.545,13.774 4.806 C 12.891 5.694,12.135 6.483,12.095 6.560 C 12.043 6.659,12.021 6.788,12.021 7.000 C 12.020 7.258,12.036 7.327,12.133 7.492 C 12.263 7.714,12.502 7.901,12.736 7.965 C 12.939 8.019,13.267 7.989,13.445 7.899 C 13.519 7.861,13.900 7.514,14.290 7.127 L 15.000 6.423 15.000 10.330 L 15.000 14.236 10.704 11.658 C 7.515 9.745,6.355 9.068,6.205 9.034 C 5.796 8.939,5.350 9.138,5.129 9.514 L 5.020 9.700 5.020 15.003 L 5.020 20.306 5.141 20.503 C 5.543 21.156,6.457 21.156,6.859 20.503 L 6.980 20.306 6.991 16.053 C 6.997 13.714,7.012 11.800,7.024 11.800 C 7.037 11.800,8.958 12.947,11.293 14.348 C 13.629 15.750,15.603 16.919,15.680 16.946 C 16.018 17.067,16.435 16.967,16.701 16.701 C 17.020 16.382,17.000 16.749,17.000 11.284 L 17.000 6.423 17.710 7.127 C 18.101 7.514,18.483 7.864,18.560 7.904 C 18.660 7.957,18.787 7.979,19.000 7.979 C 19.258 7.980,19.327 7.964,19.492 7.867 C 19.714 7.737,19.901 7.498,19.965 7.264 C 20.019 7.061,19.989 6.733,19.899 6.555 C 19.862 6.481,19.109 5.694,18.226 4.806 C 16.971 3.545,16.576 3.171,16.420 3.096 C 16.151 2.968,15.849 2.968,15.580 3.096 " stroke="none" fill-rule="evenodd" fill="black"></path></svg>