<svg xmlns="http://www.w3.org/2000/svg" width="24" height="24" viewBox="0 0 24 24" fill="none" stroke="currentColor" stroke-width="2" stroke-linecap="round" stroke-linejoin="round"><path d="M13.580 2.096 C 13.422 2.172,12.940 2.634,11.274 4.306 C 10.116 5.469,9.138 6.481,9.101 6.555 C 8.872 7.010,9.056 7.601,9.508 7.867 C 9.673 7.964,9.742 7.980,10.000 7.979 C 10.213 7.979,10.341 7.957,10.440 7.905 C 10.517 7.864,11.125 7.289,11.790 6.626 L 13.000 5.422 13.000 6.532 C 13.000 8.341,12.891 8.941,12.375 9.970 C 11.930 10.858,11.349 11.516,10.413 12.193 C 9.169 13.091,8.464 13.896,7.847 15.120 C 7.388 16.032,7.143 16.850,7.038 17.824 C 7.013 18.058,7.001 18.852,7.008 19.763 L 7.020 21.306 7.141 21.503 C 7.543 22.156,8.457 22.156,8.859 21.503 L 8.980 21.306 9.007 19.583 C 9.022 18.635,9.052 17.768,9.073 17.656 C 9.199 17.013,9.339 16.599,9.625 16.030 C 10.069 15.144,10.649 14.487,11.580 13.814 C 12.831 12.911,13.548 12.090,14.159 10.860 C 14.506 10.164,14.705 9.607,14.836 8.971 C 14.969 8.326,14.999 7.903,14.999 6.621 L 15.000 5.422 16.210 6.626 C 16.875 7.289,17.483 7.864,17.560 7.905 C 17.659 7.957,17.787 7.979,18.000 7.979 C 18.258 7.980,18.327 7.964,18.492 7.867 C 18.714 7.737,18.901 7.498,18.965 7.264 C 19.019 7.061,18.989 6.733,18.899 6.555 C 18.862 6.481,17.884 5.469,16.726 4.306 C 14.433 2.004,14.429 2.001,14.000 2.001 C 13.851 2.001,13.716 2.031,13.580 2.096 " stroke="none" fill-rule="evenodd" fill="black"></path></svg>