<svg xmlns="http://www.w3.org/2000/svg" width="24" height="24" viewBox="0 0 24 24" fill="none" stroke="currentColor" stroke-width="2" stroke-linecap="round" stroke-linejoin="round"><path d="M17.670 8.061 C 17.448 8.142,17.250 8.309,17.128 8.516 C 17.036 8.672,17.020 8.745,17.021 9.000 C 17.021 9.213,17.043 9.340,17.096 9.440 C 17.136 9.517,17.486 9.900,17.873 10.290 L 18.577 11.000 13.215 11.000 L 7.853 11.000 7.688 10.670 C 7.321 9.938,6.642 9.363,5.861 9.125 C 5.588 9.042,5.458 9.027,5.000 9.027 C 4.542 9.027,4.412 9.042,4.139 9.125 C 3.178 9.418,2.419 10.181,2.114 11.160 C 1.979 11.594,1.979 12.406,2.114 12.840 C 2.421 13.826,3.174 14.579,4.160 14.886 C 4.594 15.021,5.406 15.021,5.840 14.886 C 6.645 14.635,7.318 14.069,7.688 13.330 L 7.853 13.000 13.215 13.000 L 18.577 13.000 17.873 13.710 C 17.486 14.101,17.139 14.481,17.101 14.555 C 16.872 15.008,17.056 15.601,17.508 15.867 C 17.673 15.964,17.742 15.980,18.000 15.979 C 18.212 15.979,18.341 15.957,18.440 15.905 C 18.517 15.865,19.306 15.109,20.194 14.226 C 21.957 12.472,21.999 12.420,21.999 12.000 C 21.999 11.578,21.960 11.530,20.175 9.756 C 18.716 8.307,18.519 8.124,18.343 8.066 C 18.108 7.987,17.875 7.986,17.670 8.061 M5.310 11.061 C 5.688 11.173,6.000 11.598,6.000 12.001 C 6.000 12.331,5.784 12.696,5.484 12.872 C 5.328 12.963,5.254 12.980,5.000 12.980 C 4.746 12.980,4.672 12.963,4.516 12.872 C 3.935 12.530,3.833 11.774,4.304 11.303 C 4.583 11.024,4.916 10.944,5.310 11.061 " stroke="none" fill-rule="evenodd" fill="black"></path></svg>