<svg xmlns="http://www.w3.org/2000/svg" width="24" height="24" viewBox="0 0 24 24" fill="none" stroke="currentColor" stroke-width="2" stroke-linecap="round" stroke-linejoin="round"><path d="M12.720 3.442 C 12.089 3.523,11.518 3.931,11.225 4.509 C 11.014 4.926,11.000 5.059,11.000 6.588 L 11.000 8.000 8.446 8.000 C 5.675 8.000,5.672 8.000,5.382 8.221 C 5.302 8.282,5.187 8.415,5.128 8.516 L 5.020 8.700 5.020 12.000 L 5.020 15.300 5.131 15.489 C 5.256 15.702,5.449 15.864,5.670 15.943 C 5.789 15.986,6.351 15.997,8.410 15.998 L 11.000 16.000 11.000 17.412 C 11.000 18.940,11.014 19.073,11.225 19.491 C 11.460 19.956,11.875 20.313,12.372 20.477 C 12.756 20.603,13.025 20.620,13.386 20.541 C 14.026 20.400,13.837 20.568,17.708 16.703 C 21.157 13.259,21.240 13.173,21.378 12.880 C 21.656 12.287,21.655 11.703,21.375 11.112 C 21.241 10.831,21.109 10.694,17.748 7.333 C 15.698 5.284,14.178 3.795,14.060 3.722 C 13.700 3.496,13.165 3.385,12.720 3.442 M16.300 15.280 L 13.020 18.560 13.000 16.630 L 12.980 14.700 12.872 14.516 C 12.813 14.415,12.698 14.282,12.618 14.221 C 12.328 14.000,12.325 14.000,9.554 14.000 L 7.000 14.000 7.000 12.000 L 7.000 10.000 9.590 9.998 C 11.649 9.997,12.211 9.986,12.330 9.943 C 12.551 9.864,12.744 9.702,12.869 9.489 L 12.980 9.300 12.991 7.362 L 13.003 5.423 16.291 8.711 L 19.580 12.000 16.300 15.280 M2.695 8.057 C 2.466 8.129,2.256 8.299,2.128 8.516 L 2.020 8.700 2.020 12.003 L 2.020 15.306 2.141 15.503 C 2.543 16.156,3.457 16.156,3.859 15.503 L 3.980 15.306 3.980 12.003 L 3.980 8.700 3.872 8.516 C 3.628 8.101,3.150 7.915,2.695 8.057 " stroke="none" fill-rule="evenodd" fill="black"></path></svg>