<svg xmlns="http://www.w3.org/2000/svg" width="24" height="24" viewBox="0 0 24 24" fill="none" stroke="currentColor" stroke-width="2" stroke-linecap="round" stroke-linejoin="round"><path d="M16.400 3.044 C 14.761 3.229,13.261 4.290,12.526 5.785 C 12.345 6.153,12.194 6.578,12.096 7.000 C 12.037 7.256,12.024 7.571,12.011 9.150 L 11.995 11.000 9.208 11.000 L 6.422 11.000 7.626 9.790 C 8.289 9.125,8.864 8.517,8.905 8.440 C 8.957 8.341,8.979 8.213,8.979 8.000 C 8.980 7.745,8.964 7.672,8.872 7.516 C 8.618 7.084,8.138 6.906,7.657 7.065 C 7.479 7.124,7.250 7.340,5.326 9.255 C 3.001 11.569,3.001 11.569,3.001 12.000 C 3.001 12.429,3.004 12.433,5.306 14.726 C 6.469 15.884,7.481 16.862,7.555 16.899 C 8.010 17.128,8.601 16.944,8.867 16.492 C 8.964 16.327,8.980 16.258,8.979 16.000 C 8.979 15.787,8.957 15.659,8.905 15.560 C 8.864 15.483,8.289 14.876,7.626 14.210 L 6.422 13.000 9.210 13.000 L 11.999 13.000 12.009 17.153 L 12.020 21.306 12.141 21.503 C 12.543 22.156,13.457 22.156,13.859 21.503 L 13.980 21.306 13.991 17.156 L 14.001 13.005 15.851 12.989 C 17.429 12.976,17.744 12.963,18.000 12.904 C 19.531 12.548,20.756 11.614,21.433 10.288 C 21.838 9.494,21.980 8.899,21.980 8.000 C 21.980 7.101,21.838 6.506,21.433 5.713 C 20.794 4.461,19.604 3.510,18.240 3.162 C 17.669 3.016,17.019 2.974,16.400 3.044 M17.861 5.129 C 18.804 5.405,19.584 6.183,19.875 7.139 C 19.958 7.412,19.973 7.542,19.973 8.000 C 19.973 8.458,19.958 8.588,19.875 8.861 C 19.585 9.811,18.838 10.562,17.860 10.884 C 17.587 10.974,17.533 10.977,15.787 10.991 L 13.995 11.005 14.009 9.233 C 14.023 7.476,14.024 7.457,14.123 7.139 C 14.462 6.049,15.371 5.245,16.499 5.040 C 16.832 4.980,17.500 5.023,17.861 5.129 " stroke="none" fill-rule="evenodd" fill="black"></path></svg>