<svg xmlns="http://www.w3.org/2000/svg" width="24" height="24" viewBox="0 0 24 24" fill="none" stroke="currentColor" stroke-width="2" stroke-linecap="round" stroke-linejoin="round"><path d="M9.580 2.094 C 9.343 2.204,9.155 2.405,9.063 2.646 C 9.004 2.802,8.998 3.053,9.009 5.063 L 9.020 7.306 9.141 7.503 C 9.543 8.156,10.457 8.156,10.859 7.503 L 10.980 7.307 10.993 6.366 L 11.005 5.426 15.713 10.129 C 18.302 12.716,20.483 14.865,20.560 14.905 C 20.659 14.957,20.788 14.979,21.000 14.979 C 21.258 14.980,21.327 14.964,21.492 14.867 C 21.714 14.737,21.901 14.498,21.965 14.264 C 22.019 14.062,21.989 13.734,21.899 13.555 C 21.862 13.481,19.714 11.301,17.126 8.710 L 12.420 4.000 13.300 3.998 C 14.247 3.996,14.365 3.977,14.619 3.783 C 14.696 3.725,14.808 3.592,14.869 3.489 C 14.964 3.328,14.980 3.256,14.980 3.000 C 14.980 2.746,14.963 2.672,14.872 2.516 C 14.813 2.415,14.698 2.282,14.618 2.221 C 14.332 2.003,14.292 2.000,11.944 2.000 L 9.780 2.001 9.580 2.094 M2.670 9.061 C 2.448 9.142,2.250 9.309,2.128 9.516 C 2.036 9.672,2.020 9.745,2.021 10.000 C 2.021 10.212,2.043 10.341,2.095 10.440 C 2.135 10.517,4.286 12.699,6.874 15.290 L 11.580 20.000 10.736 20.000 C 9.812 20.000,9.634 20.029,9.382 20.221 C 9.302 20.282,9.187 20.415,9.128 20.516 C 9.037 20.672,9.020 20.746,9.020 21.000 C 9.020 21.256,9.036 21.328,9.131 21.489 C 9.256 21.702,9.449 21.864,9.670 21.943 C 9.788 21.985,10.286 21.997,12.020 21.998 L 14.220 21.999 14.420 21.906 C 14.657 21.796,14.845 21.595,14.937 21.354 C 14.996 21.198,15.002 20.948,14.991 18.940 L 14.980 16.700 14.871 16.514 C 14.479 15.848,13.521 15.848,13.129 16.514 L 13.020 16.700 13.007 17.637 L 12.995 18.573 8.267 13.852 C 3.927 9.517,3.524 9.125,3.343 9.065 C 3.107 8.987,2.874 8.986,2.670 9.061 " stroke="none" fill-rule="evenodd" fill="black"></path></svg>