<svg xmlns="http://www.w3.org/2000/svg" width="24" height="24" viewBox="0 0 24 24" fill="none" stroke="currentColor" stroke-width="2" stroke-linecap="round" stroke-linejoin="round"><path d="M6.695 2.057 C 6.466 2.129,6.256 2.299,6.128 2.516 L 6.020 2.700 6.020 4.003 L 6.020 5.306 6.141 5.503 C 6.209 5.613,6.346 5.756,6.452 5.828 C 6.923 6.144,7.554 5.999,7.859 5.503 L 7.980 5.306 7.980 4.003 L 7.980 2.700 7.872 2.516 C 7.628 2.101,7.150 1.915,6.695 2.057 M16.580 2.096 C 16.424 2.171,16.029 2.545,14.774 3.806 C 13.891 4.694,13.135 5.483,13.095 5.560 C 13.043 5.659,13.021 5.788,13.021 6.000 C 13.020 6.258,13.036 6.327,13.133 6.492 C 13.263 6.714,13.502 6.901,13.736 6.965 C 13.939 7.019,14.267 6.989,14.445 6.899 C 14.519 6.861,14.899 6.514,15.289 6.128 L 15.997 5.426 16.009 7.366 L 16.020 9.306 16.141 9.503 C 16.543 10.156,17.457 10.156,17.859 9.503 L 17.980 9.306 17.991 7.366 L 18.003 5.426 18.711 6.128 C 19.101 6.514,19.483 6.864,19.560 6.904 C 19.660 6.957,19.787 6.979,20.000 6.979 C 20.258 6.980,20.327 6.964,20.492 6.867 C 20.714 6.737,20.901 6.498,20.965 6.264 C 21.019 6.061,20.989 5.733,20.899 5.555 C 20.862 5.481,20.109 4.694,19.226 3.806 C 17.971 2.545,17.576 2.171,17.420 2.096 C 17.151 1.968,16.849 1.968,16.580 2.096 M6.695 8.057 C 6.466 8.129,6.256 8.299,6.128 8.516 L 6.020 8.700 6.020 10.003 L 6.020 11.306 6.141 11.503 C 6.543 12.156,7.457 12.156,7.859 11.503 L 7.980 11.306 7.980 10.003 L 7.980 8.700 7.872 8.516 C 7.628 8.101,7.150 7.915,6.695 8.057 M16.695 12.057 C 16.466 12.129,16.256 12.299,16.128 12.516 L 16.020 12.700 16.020 14.003 L 16.020 15.306 16.141 15.503 C 16.543 16.156,17.457 16.156,17.859 15.503 L 17.980 15.306 17.980 14.003 L 17.980 12.700 17.872 12.516 C 17.628 12.101,17.150 11.915,16.695 12.057 M6.695 14.057 C 6.466 14.129,6.256 14.299,6.128 14.516 L 6.020 14.700 6.009 16.635 L 5.997 18.571 5.269 17.852 C 4.655 17.247,4.509 17.123,4.343 17.067 C 3.865 16.905,3.383 17.083,3.128 17.516 C 3.036 17.672,3.020 17.745,3.021 18.000 C 3.021 18.212,3.043 18.341,3.095 18.440 C 3.135 18.517,3.891 19.306,4.774 20.194 C 6.528 21.957,6.580 21.999,7.000 21.999 C 7.420 21.999,7.472 21.957,9.226 20.194 C 10.109 19.306,10.865 18.517,10.905 18.440 C 10.957 18.341,10.979 18.212,10.979 18.000 C 10.980 17.745,10.964 17.672,10.872 17.516 C 10.617 17.083,10.135 16.905,9.657 17.067 C 9.491 17.123,9.345 17.247,8.731 17.852 L 8.003 18.571 7.991 16.635 L 7.980 14.700 7.872 14.516 C 7.628 14.101,7.150 13.915,6.695 14.057 M16.695 18.057 C 16.466 18.129,16.256 18.299,16.128 18.516 L 16.020 18.700 16.020 20.003 L 16.020 21.306 16.141 21.503 C 16.543 22.156,17.457 22.156,17.859 21.503 L 17.980 21.306 17.980 20.003 L 17.980 18.700 17.872 18.516 C 17.628 18.101,17.150 17.915,16.695 18.057 " stroke="none" fill-rule="evenodd" fill="black"></path></svg>