<svg xmlns="http://www.w3.org/2000/svg" width="24" height="24" viewBox="0 0 24 24" fill="none" stroke="currentColor" stroke-width="2" stroke-linecap="round" stroke-linejoin="round"><path d="M5.640 3.069 C 5.488 3.121,5.205 3.384,3.825 4.755 C 2.040 6.530,2.001 6.578,2.001 7.000 C 2.001 7.420,2.043 7.472,3.806 9.226 C 4.694 10.109,5.481 10.862,5.555 10.899 C 6.010 11.128,6.601 10.944,6.867 10.492 C 6.964 10.327,6.980 10.258,6.979 10.000 C 6.979 9.787,6.957 9.660,6.904 9.560 C 6.864 9.483,6.514 9.101,6.127 8.710 L 5.423 8.000 13.301 7.998 C 19.779 7.997,21.207 7.987,21.330 7.943 C 21.551 7.864,21.744 7.702,21.869 7.489 C 21.964 7.328,21.980 7.256,21.980 7.000 C 21.980 6.746,21.963 6.672,21.872 6.516 C 21.740 6.293,21.533 6.128,21.290 6.055 C 21.138 6.009,19.794 6.000,13.265 6.000 L 5.423 6.000 6.127 5.290 C 6.514 4.899,6.864 4.517,6.904 4.440 C 6.957 4.340,6.979 4.213,6.979 4.000 C 6.980 3.745,6.964 3.672,6.872 3.516 C 6.617 3.083,6.121 2.902,5.640 3.069 M17.670 13.061 C 17.448 13.142,17.250 13.309,17.128 13.516 C 17.036 13.672,17.020 13.745,17.021 14.000 C 17.021 14.213,17.043 14.340,17.096 14.440 C 17.136 14.517,17.486 14.900,17.873 15.290 L 18.577 16.000 10.735 16.000 C 4.206 16.000,2.862 16.009,2.710 16.055 C 2.467 16.128,2.260 16.293,2.128 16.516 C 2.037 16.672,2.020 16.746,2.020 17.000 C 2.020 17.256,2.036 17.328,2.131 17.489 C 2.256 17.702,2.449 17.864,2.670 17.943 C 2.793 17.987,4.221 17.997,10.699 17.998 L 18.577 18.000 17.873 18.710 C 17.486 19.101,17.139 19.481,17.101 19.555 C 16.872 20.008,17.056 20.601,17.508 20.867 C 17.673 20.964,17.742 20.980,18.000 20.979 C 18.212 20.979,18.341 20.957,18.440 20.905 C 18.517 20.865,19.306 20.109,20.194 19.226 C 21.957 17.472,21.999 17.420,21.999 17.000 C 21.999 16.578,21.960 16.530,20.175 14.756 C 18.716 13.307,18.519 13.124,18.343 13.066 C 18.108 12.987,17.875 12.986,17.670 13.061 " stroke="none" fill-rule="evenodd" fill="black"></path></svg>