<svg xmlns="http://www.w3.org/2000/svg" width="24" height="24" viewBox="0 0 24 24" fill="none" stroke="currentColor" stroke-width="2" stroke-linecap="round" stroke-linejoin="round"><path d="M7.580 2.094 C 7.343 2.204,7.155 2.405,7.064 2.646 C 7.004 2.803,6.998 3.089,7.009 5.563 L 7.020 8.306 7.141 8.503 C 7.543 9.156,8.457 9.156,8.859 8.503 L 8.980 8.306 8.992 6.865 L 9.004 5.424 11.985 8.402 C 13.625 10.040,15.042 11.479,15.135 11.600 C 15.375 11.911,15.524 12.169,15.690 12.560 C 15.985 13.255,15.972 13.055,15.997 17.403 L 16.020 21.306 16.141 21.503 C 16.543 22.156,17.457 22.156,17.859 21.503 L 17.980 21.306 17.992 17.543 C 18.001 14.921,17.991 13.665,17.959 13.400 C 17.829 12.305,17.416 11.291,16.734 10.388 C 16.631 10.251,15.169 8.758,13.485 7.070 L 10.422 4.000 11.801 3.998 C 13.284 3.996,13.350 3.989,13.619 3.783 C 13.696 3.725,13.808 3.592,13.869 3.489 C 13.964 3.328,13.980 3.256,13.980 3.000 C 13.980 2.746,13.963 2.672,13.872 2.516 C 13.813 2.415,13.698 2.282,13.618 2.221 C 13.327 1.999,13.334 2.000,10.444 2.000 L 7.780 2.001 7.580 2.094 " stroke="none" fill-rule="evenodd" fill="black"></path></svg>