<svg xmlns="http://www.w3.org/2000/svg" width="24" height="24" viewBox="0 0 24 24" fill="none" stroke="currentColor" stroke-width="2" stroke-linecap="round" stroke-linejoin="round"><path d="M2.670 2.061 C 2.448 2.142,2.250 2.309,2.128 2.516 C 2.036 2.672,2.020 2.745,2.021 3.000 C 2.021 3.212,2.043 3.341,2.095 3.440 C 2.135 3.517,3.161 4.574,4.374 5.790 L 6.579 8.000 5.736 8.000 C 4.812 8.000,4.634 8.029,4.382 8.221 C 4.302 8.282,4.187 8.415,4.128 8.516 C 4.037 8.672,4.020 8.746,4.020 9.000 C 4.020 9.256,4.036 9.328,4.131 9.489 C 4.256 9.702,4.449 9.864,4.670 9.943 C 4.788 9.985,5.286 9.997,7.020 9.998 L 9.220 9.999 9.420 9.906 C 9.657 9.796,9.845 9.595,9.937 9.354 C 9.996 9.198,10.002 8.948,9.991 6.940 L 9.980 4.700 9.871 4.514 C 9.730 4.275,9.485 4.096,9.214 4.035 C 8.792 3.941,8.352 4.134,8.129 4.514 L 8.020 4.700 8.007 5.636 L 7.995 6.572 5.767 4.352 C 3.755 2.345,3.521 2.124,3.343 2.065 C 3.107 1.987,2.874 1.986,2.670 2.061 M20.640 2.068 C 20.486 2.121,20.139 2.451,18.233 4.351 L 16.005 6.572 15.993 5.636 L 15.980 4.700 15.871 4.514 C 15.479 3.848,14.521 3.848,14.129 4.514 L 14.020 4.700 14.009 6.940 C 13.998 8.948,14.004 9.198,14.063 9.354 C 14.155 9.595,14.343 9.796,14.580 9.906 L 14.780 9.999 16.980 9.998 C 18.714 9.997,19.212 9.985,19.330 9.943 C 19.551 9.864,19.744 9.702,19.869 9.489 C 19.964 9.328,19.980 9.256,19.980 9.000 C 19.980 8.746,19.963 8.672,19.872 8.516 C 19.813 8.415,19.698 8.282,19.618 8.221 C 19.366 8.029,19.188 8.000,18.264 8.000 L 17.421 8.000 19.626 5.790 C 20.839 4.574,21.865 3.517,21.905 3.440 C 21.957 3.341,21.979 3.212,21.979 3.000 C 21.980 2.745,21.964 2.672,21.872 2.516 C 21.617 2.083,21.121 1.903,20.640 2.068 M4.695 14.057 C 4.466 14.129,4.256 14.299,4.128 14.516 C 4.037 14.672,4.020 14.746,4.020 15.000 C 4.020 15.256,4.036 15.328,4.131 15.489 C 4.192 15.592,4.304 15.725,4.381 15.783 C 4.635 15.977,4.753 15.996,5.700 15.998 L 6.579 16.000 4.374 18.210 C 3.161 19.425,2.135 20.483,2.095 20.560 C 2.043 20.659,2.021 20.788,2.021 21.000 C 2.020 21.258,2.036 21.327,2.133 21.492 C 2.263 21.714,2.502 21.901,2.736 21.965 C 2.939 22.019,3.267 21.989,3.445 21.899 C 3.519 21.862,4.573 20.841,5.787 19.629 L 7.995 17.426 8.007 18.366 L 8.020 19.307 8.141 19.503 C 8.543 20.156,9.457 20.156,9.859 19.503 L 9.980 19.306 9.991 17.063 C 10.002 15.053,9.996 14.802,9.937 14.646 C 9.845 14.405,9.657 14.204,9.420 14.094 L 9.220 14.001 7.040 14.003 C 5.374 14.005,4.821 14.018,4.695 14.057 M14.580 14.094 C 14.343 14.204,14.155 14.405,14.063 14.646 C 14.004 14.802,13.998 15.053,14.009 17.063 L 14.020 19.306 14.141 19.503 C 14.543 20.156,15.457 20.156,15.859 19.503 L 15.980 19.307 15.993 18.366 L 16.005 17.426 18.213 19.629 C 19.427 20.841,20.481 21.862,20.555 21.899 C 21.010 22.128,21.601 21.944,21.867 21.492 C 21.964 21.327,21.980 21.258,21.979 21.000 C 21.979 20.788,21.957 20.659,21.905 20.560 C 21.865 20.483,20.839 19.425,19.626 18.210 L 17.421 16.000 18.300 15.998 C 19.247 15.996,19.365 15.977,19.619 15.783 C 19.696 15.725,19.808 15.592,19.869 15.489 C 19.964 15.328,19.980 15.256,19.980 15.000 C 19.980 14.746,19.963 14.672,19.872 14.516 C 19.813 14.415,19.698 14.282,19.618 14.221 C 19.332 14.003,19.292 14.000,16.944 14.000 L 14.780 14.001 14.580 14.094 " stroke="none" fill-rule="evenodd" fill="black"></path></svg>