<svg xmlns="http://www.w3.org/2000/svg" width="24" height="24" viewBox="0 0 24 24" fill="none" stroke="currentColor" stroke-width="2" stroke-linecap="round" stroke-linejoin="round"><path d="M8.695 2.057 C 8.466 2.129,8.256 2.299,8.128 2.516 C 8.037 2.672,8.020 2.746,8.020 3.000 C 8.020 3.256,8.036 3.328,8.131 3.489 C 8.192 3.592,8.304 3.725,8.381 3.783 C 8.643 3.983,8.738 3.996,9.910 3.998 L 11.000 4.000 11.000 11.287 L 11.000 18.574 10.270 17.854 C 9.655 17.247,9.509 17.123,9.343 17.067 C 8.865 16.905,8.383 17.083,8.128 17.516 C 8.036 17.672,8.020 17.745,8.021 18.000 C 8.021 18.212,8.043 18.341,8.095 18.440 C 8.135 18.517,8.891 19.306,9.774 20.194 C 11.528 21.957,11.580 21.999,12.000 21.999 C 12.420 21.999,12.472 21.957,14.226 20.194 C 15.109 19.306,15.865 18.517,15.905 18.440 C 15.957 18.341,15.979 18.212,15.979 18.000 C 15.980 17.745,15.964 17.672,15.872 17.516 C 15.617 17.083,15.135 16.905,14.657 17.067 C 14.491 17.123,14.345 17.247,13.730 17.854 L 13.000 18.574 13.000 11.287 L 13.000 4.000 14.090 3.998 C 15.262 3.996,15.357 3.983,15.619 3.783 C 15.696 3.725,15.808 3.592,15.869 3.489 C 15.964 3.328,15.980 3.256,15.980 3.000 C 15.980 2.746,15.963 2.672,15.872 2.516 C 15.740 2.293,15.533 2.128,15.290 2.055 C 15.030 1.977,8.945 1.979,8.695 2.057 " stroke="none" fill-rule="evenodd" fill="black"></path></svg>