<svg xmlns="http://www.w3.org/2000/svg" width="24" height="24" viewBox="0 0 24 24" fill="none" stroke="currentColor" stroke-width="2" stroke-linecap="round" stroke-linejoin="round"><path d="M16.670 2.061 C 16.448 2.142,16.250 2.309,16.128 2.516 C 16.036 2.672,16.020 2.745,16.021 3.000 C 16.021 3.213,16.043 3.341,16.095 3.440 C 16.136 3.517,16.711 4.124,17.374 4.790 L 18.578 6.000 14.179 6.000 C 9.463 6.000,9.335 6.005,8.755 6.204 C 7.368 6.679,6.372 7.805,6.083 9.227 C 6.002 9.623,6.000 9.743,6.000 14.104 L 6.000 18.576 4.770 17.354 C 3.688 16.279,3.516 16.124,3.343 16.066 C 2.863 15.905,2.382 16.084,2.128 16.516 C 2.036 16.672,2.020 16.745,2.021 17.000 C 2.021 17.212,2.043 17.341,2.095 17.440 C 2.135 17.517,3.116 18.531,4.274 19.694 C 6.567 21.996,6.571 21.999,7.000 21.999 C 7.429 21.999,7.433 21.996,9.726 19.694 C 10.884 18.531,11.865 17.517,11.905 17.440 C 11.957 17.341,11.979 17.212,11.979 17.000 C 11.980 16.745,11.964 16.672,11.872 16.516 C 11.618 16.084,11.137 15.905,10.657 16.066 C 10.484 16.124,10.312 16.279,9.230 17.354 L 8.000 18.576 8.002 14.158 C 8.004 10.115,8.010 9.718,8.073 9.477 C 8.201 8.988,8.543 8.546,9.014 8.265 C 9.469 7.992,9.309 8.000,14.187 8.000 L 18.578 8.000 17.374 9.210 C 16.711 9.876,16.138 10.481,16.101 10.555 C 15.872 11.009,16.056 11.601,16.508 11.867 C 16.673 11.964,16.742 11.980,17.000 11.979 C 17.212 11.979,17.341 11.957,17.440 11.905 C 17.517 11.865,18.531 10.884,19.694 9.726 C 21.996 7.433,21.999 7.429,21.999 7.000 C 21.999 6.569,21.999 6.569,19.674 4.255 C 17.750 2.340,17.521 2.124,17.343 2.065 C 17.107 1.987,16.874 1.986,16.670 2.061 " stroke="none" fill-rule="evenodd" fill="black"></path></svg>