<svg xmlns="http://www.w3.org/2000/svg" width="24" height="24" viewBox="0 0 24 24" fill="none" stroke="currentColor" stroke-width="2" stroke-linecap="round" stroke-linejoin="round"><path d="M11.640 2.069 C 11.490 2.121,11.240 2.350,10.126 3.456 C 9.393 4.184,8.743 4.852,8.682 4.940 C 8.452 5.271,8.452 5.730,8.682 6.060 C 8.744 6.148,9.290 6.715,9.897 7.320 L 11.000 8.419 11.000 13.497 L 11.000 18.574 10.270 17.854 C 9.655 17.247,9.509 17.123,9.343 17.067 C 8.865 16.905,8.383 17.083,8.128 17.516 C 8.036 17.672,8.020 17.745,8.021 18.000 C 8.021 18.212,8.043 18.341,8.095 18.440 C 8.135 18.517,8.891 19.306,9.774 20.194 C 11.528 21.957,11.580 21.999,12.000 21.999 C 12.420 21.999,12.472 21.957,14.226 20.194 C 15.109 19.306,15.865 18.517,15.905 18.440 C 15.957 18.341,15.979 18.212,15.979 18.000 C 15.980 17.745,15.964 17.672,15.872 17.516 C 15.617 17.083,15.135 16.905,14.657 17.067 C 14.491 17.123,14.345 17.247,13.730 17.854 L 13.000 18.574 13.000 13.498 L 13.000 8.422 14.158 7.261 C 15.389 6.027,15.479 5.911,15.486 5.549 C 15.491 5.294,15.443 5.120,15.318 4.940 C 15.257 4.852,14.607 4.184,13.874 3.456 C 12.695 2.286,12.517 2.124,12.343 2.066 C 12.102 1.985,11.878 1.986,11.640 2.069 M12.551 4.971 L 13.080 5.501 12.540 6.040 L 12.000 6.579 11.460 6.040 L 10.920 5.501 11.449 4.971 C 11.741 4.679,11.988 4.440,12.000 4.440 C 12.012 4.440,12.259 4.679,12.551 4.971 " stroke="none" fill-rule="evenodd" fill="black"></path></svg>