<svg xmlns="http://www.w3.org/2000/svg" width="24" height="24" viewBox="0 0 24 24" fill="none" stroke="currentColor" stroke-width="2" stroke-linecap="round" stroke-linejoin="round"><path d="M2.695 9.057 C 2.466 9.129,2.256 9.299,2.128 9.516 L 2.020 9.700 2.009 11.940 C 1.998 13.948,2.004 14.198,2.063 14.354 C 2.155 14.595,2.343 14.796,2.580 14.906 L 2.780 14.999 4.980 14.998 C 6.714 14.997,7.212 14.985,7.330 14.943 C 7.551 14.864,7.744 14.702,7.869 14.489 C 7.964 14.328,7.980 14.256,7.980 14.000 C 7.980 13.746,7.963 13.672,7.872 13.516 C 7.813 13.415,7.698 13.282,7.618 13.221 C 7.367 13.030,7.187 13.000,6.264 12.998 L 5.420 12.997 5.843 12.588 C 6.525 11.929,7.339 11.401,8.040 11.161 C 8.851 10.884,9.943 10.987,10.811 11.423 C 11.385 11.711,11.741 12.020,12.262 12.683 C 13.184 13.856,14.301 14.559,15.765 14.887 C 16.125 14.968,16.288 14.980,17.000 14.980 C 17.712 14.980,17.875 14.968,18.235 14.887 C 19.020 14.711,19.736 14.408,20.392 13.972 C 21.012 13.561,21.797 12.724,21.939 12.324 C 22.067 11.959,21.975 11.569,21.694 11.296 C 21.408 11.018,21.042 10.936,20.664 11.065 C 20.463 11.133,20.353 11.231,19.908 11.732 C 19.565 12.119,19.263 12.351,18.814 12.576 C 18.217 12.874,17.680 13.000,17.000 13.000 C 16.324 13.000,15.724 12.858,15.145 12.561 C 14.608 12.285,14.259 11.976,13.740 11.317 C 12.815 10.145,11.657 9.419,10.228 9.114 C 9.669 8.994,8.508 8.985,8.000 9.095 C 6.807 9.355,5.660 10.020,4.435 11.161 L 4.005 11.561 3.993 10.631 C 3.980 9.702,3.980 9.700,3.872 9.516 C 3.628 9.101,3.150 8.915,2.695 9.057 " stroke="none" fill-rule="evenodd" fill="black"></path></svg>