<svg xmlns="http://www.w3.org/2000/svg" width="24" height="24" viewBox="0 0 24 24" fill="none" stroke="currentColor" stroke-width="2" stroke-linecap="round" stroke-linejoin="round"><path d="M3.580 2.094 C 3.343 2.204,3.155 2.405,3.064 2.646 C 3.004 2.803,2.998 3.089,3.009 5.563 L 3.020 8.306 3.141 8.503 C 3.543 9.156,4.457 9.156,4.859 8.503 L 4.980 8.306 4.992 6.865 L 5.004 5.424 7.985 8.402 C 9.625 10.040,11.042 11.479,11.135 11.600 C 11.375 11.911,11.524 12.169,11.690 12.560 C 11.985 13.255,11.972 13.055,11.997 17.403 L 12.020 21.306 12.141 21.503 C 12.543 22.156,13.457 22.156,13.859 21.503 L 13.980 21.306 13.992 17.543 C 14.001 14.921,13.991 13.665,13.959 13.400 C 13.829 12.305,13.416 11.291,12.734 10.388 C 12.631 10.251,11.169 8.758,9.485 7.070 L 6.422 4.000 7.801 3.998 C 9.284 3.996,9.350 3.989,9.619 3.783 C 9.696 3.725,9.808 3.592,9.869 3.489 C 9.964 3.328,9.980 3.256,9.980 3.000 C 9.980 2.746,9.963 2.672,9.872 2.516 C 9.813 2.415,9.698 2.282,9.618 2.221 C 9.327 1.999,9.334 2.000,6.444 2.000 L 3.780 2.001 3.580 2.094 M19.640 4.068 C 19.486 4.121,19.125 4.463,17.127 6.455 C 15.843 7.734,14.743 8.852,14.682 8.940 C 14.279 9.518,14.617 10.347,15.305 10.469 C 15.570 10.516,15.858 10.459,16.055 10.321 C 16.304 10.148,20.821 5.601,20.905 5.440 C 20.957 5.341,20.979 5.212,20.979 5.000 C 20.980 4.745,20.964 4.672,20.872 4.516 C 20.617 4.083,20.121 3.903,19.640 4.068 " stroke="none" fill-rule="evenodd" fill="black"></path></svg>