<svg xmlns="http://www.w3.org/2000/svg" width="24" height="24" viewBox="0 0 24 24" fill="none" stroke="currentColor" stroke-width="2" stroke-linecap="round" stroke-linejoin="round"><path d="M16.580 2.096 C 16.422 2.172,15.940 2.634,14.274 4.306 C 13.116 5.469,12.138 6.481,12.101 6.555 C 11.872 7.010,12.056 7.601,12.508 7.867 C 12.673 7.964,12.742 7.980,13.000 7.979 C 13.213 7.979,13.341 7.957,13.440 7.905 C 13.517 7.864,14.125 7.289,14.790 6.626 L 16.000 5.422 16.000 8.636 C 16.000 11.004,16.013 11.893,16.048 12.009 C 16.074 12.097,16.173 12.254,16.267 12.360 C 16.674 12.812,17.276 12.823,17.701 12.387 C 17.823 12.260,17.921 12.116,17.951 12.015 C 17.988 11.891,18.000 11.063,18.000 8.636 L 18.000 5.422 19.210 6.626 C 19.875 7.289,20.483 7.864,20.560 7.905 C 20.659 7.957,20.787 7.979,21.000 7.979 C 21.258 7.980,21.327 7.964,21.492 7.867 C 21.714 7.737,21.901 7.498,21.965 7.264 C 22.019 7.061,21.989 6.733,21.899 6.555 C 21.862 6.481,20.884 5.469,19.726 4.306 C 17.433 2.004,17.429 2.001,17.000 2.001 C 16.851 2.001,16.716 2.031,16.580 2.096 M6.640 5.068 C 6.486 5.121,6.148 5.441,4.326 7.255 C 2.001 9.569,2.001 9.569,2.001 10.000 C 2.001 10.429,2.004 10.433,4.306 12.726 C 5.469 13.884,6.483 14.865,6.560 14.905 C 6.659 14.957,6.788 14.979,7.000 14.979 C 7.258 14.980,7.327 14.964,7.492 14.867 C 7.714 14.737,7.901 14.498,7.965 14.264 C 8.019 14.061,7.989 13.733,7.899 13.555 C 7.862 13.481,7.289 12.876,6.626 12.210 L 5.422 11.000 5.901 11.000 C 8.651 11.003,11.135 12.018,13.042 13.920 C 13.339 14.217,13.701 14.613,13.846 14.800 C 15.130 16.462,15.837 18.317,15.965 20.360 C 15.987 20.723,16.015 21.096,16.025 21.189 C 16.052 21.420,16.257 21.711,16.497 21.859 C 16.671 21.966,16.729 21.980,16.997 21.980 C 17.257 21.980,17.327 21.964,17.492 21.867 C 17.714 21.737,17.901 21.498,17.965 21.264 C 18.027 21.038,17.982 20.022,17.879 19.308 C 17.104 13.947,12.887 9.798,7.500 9.096 C 7.258 9.065,6.694 9.028,6.247 9.013 L 5.434 8.987 6.633 7.784 C 7.292 7.122,7.864 6.517,7.905 6.440 C 7.957 6.341,7.979 6.213,7.979 6.000 C 7.980 5.745,7.964 5.672,7.872 5.516 C 7.617 5.083,7.121 4.903,6.640 5.068 " stroke="none" fill-rule="evenodd" fill="black"></path></svg>