<svg xmlns="http://www.w3.org/2000/svg" width="24" height="24" viewBox="0 0 24 24" fill="none" stroke="currentColor" stroke-width="2" stroke-linecap="round" stroke-linejoin="round"><path d="M9.670 2.061 C 9.448 2.142,9.250 2.309,9.128 2.516 C 9.036 2.672,9.020 2.745,9.021 3.000 C 9.021 3.212,9.043 3.341,9.095 3.440 C 9.135 3.517,11.286 5.699,13.874 8.290 L 18.580 13.000 17.736 13.000 C 16.812 13.000,16.634 13.029,16.382 13.221 C 16.302 13.282,16.187 13.415,16.128 13.516 C 16.037 13.672,16.020 13.746,16.020 14.000 C 16.020 14.256,16.036 14.328,16.131 14.489 C 16.256 14.702,16.449 14.864,16.670 14.943 C 16.788 14.985,17.286 14.997,19.020 14.998 L 21.220 14.999 21.420 14.906 C 21.657 14.796,21.845 14.595,21.937 14.354 C 21.996 14.198,22.002 13.948,21.991 11.940 L 21.980 9.700 21.871 9.514 C 21.479 8.848,20.521 8.848,20.129 9.514 L 20.020 9.700 20.007 10.637 L 19.995 11.573 15.267 6.852 C 10.927 2.517,10.524 2.125,10.343 2.065 C 10.107 1.987,9.874 1.986,9.670 2.061 M2.580 9.094 C 2.343 9.204,2.155 9.405,2.063 9.646 C 2.004 9.802,1.998 10.053,2.009 12.063 L 2.020 14.306 2.141 14.503 C 2.543 15.156,3.457 15.156,3.859 14.503 L 3.980 14.307 3.993 13.366 L 4.005 12.426 8.713 17.129 C 11.302 19.716,13.483 21.865,13.560 21.905 C 13.659 21.957,13.788 21.979,14.000 21.979 C 14.258 21.980,14.327 21.964,14.492 21.867 C 14.714 21.737,14.901 21.498,14.965 21.264 C 15.019 21.062,14.989 20.734,14.899 20.555 C 14.862 20.481,12.714 18.301,10.126 15.710 L 5.420 11.000 6.300 10.998 C 7.247 10.996,7.365 10.977,7.619 10.783 C 7.696 10.725,7.808 10.592,7.869 10.489 C 7.964 10.328,7.980 10.256,7.980 10.000 C 7.980 9.746,7.963 9.672,7.872 9.516 C 7.813 9.415,7.698 9.282,7.618 9.221 C 7.332 9.003,7.292 9.000,4.944 9.000 L 2.780 9.001 2.580 9.094 " stroke="none" fill-rule="evenodd" fill="black"></path></svg>