<svg xmlns="http://www.w3.org/2000/svg" width="24" height="24" viewBox="0 0 24 24" fill="none" stroke="currentColor" stroke-width="2" stroke-linecap="round" stroke-linejoin="round"><path d="M2.670 2.061 C 2.448 2.142,2.250 2.309,2.128 2.516 C 2.036 2.672,2.020 2.745,2.021 3.000 C 2.021 3.212,2.043 3.341,2.095 3.440 C 2.135 3.517,3.257 4.671,4.587 6.003 L 7.006 8.427 7.002 11.843 C 6.998 15.564,6.993 15.471,7.225 15.930 C 7.361 16.199,7.801 16.639,8.070 16.775 C 8.529 17.007,8.436 17.002,12.157 16.998 L 15.573 16.994 17.997 19.413 C 19.329 20.743,20.483 21.865,20.560 21.905 C 20.659 21.957,20.788 21.979,21.000 21.979 C 21.258 21.980,21.327 21.964,21.492 21.867 C 21.968 21.587,22.139 20.967,21.865 20.508 C 21.810 20.416,17.665 16.243,12.653 11.235 C 4.231 2.820,3.525 2.125,3.343 2.065 C 3.107 1.987,2.874 1.986,2.670 2.061 M7.695 2.057 C 7.466 2.129,7.256 2.299,7.128 2.516 C 7.020 2.699,7.020 2.703,7.020 3.503 L 7.020 4.306 7.141 4.503 C 7.543 5.156,8.457 5.156,8.859 4.503 L 8.980 4.306 8.980 3.503 C 8.980 2.703,8.980 2.699,8.872 2.516 C 8.628 2.101,8.150 1.915,7.695 2.057 M15.695 2.057 C 15.466 2.129,15.256 2.299,15.128 2.516 C 15.020 2.699,15.020 2.703,15.020 3.503 L 15.020 4.306 15.141 4.503 C 15.543 5.156,16.457 5.156,16.859 4.503 L 16.980 4.306 16.980 3.503 C 16.980 2.703,16.980 2.699,16.872 2.516 C 16.628 2.101,16.150 1.915,15.695 2.057 M2.695 7.057 C 2.466 7.129,2.256 7.299,2.128 7.516 C 2.037 7.672,2.020 7.746,2.020 8.000 C 2.020 8.256,2.036 8.328,2.131 8.489 C 2.256 8.702,2.449 8.864,2.670 8.943 C 2.878 9.017,4.122 9.017,4.330 8.943 C 4.551 8.864,4.744 8.702,4.869 8.489 C 4.964 8.328,4.980 8.256,4.980 8.000 C 4.980 7.746,4.963 7.672,4.872 7.516 C 4.740 7.293,4.533 7.128,4.290 7.055 C 4.050 6.983,2.928 6.984,2.695 7.057 M11.695 7.057 C 11.466 7.129,11.256 7.299,11.128 7.516 C 11.037 7.672,11.020 7.746,11.020 8.000 C 11.020 8.256,11.036 8.328,11.131 8.489 C 11.192 8.592,11.304 8.725,11.381 8.783 C 11.654 8.991,11.700 8.996,13.408 8.998 L 14.997 9.000 15.008 10.653 L 15.020 12.306 15.141 12.503 C 15.543 13.156,16.457 13.156,16.859 12.503 L 16.980 12.306 16.992 10.556 C 17.004 8.656,16.991 8.495,16.782 8.083 C 16.646 7.816,16.297 7.449,16.017 7.281 C 15.580 7.018,15.463 7.005,13.560 7.005 C 12.283 7.005,11.819 7.018,11.695 7.057 M19.695 7.057 C 19.466 7.129,19.256 7.299,19.128 7.516 C 19.037 7.672,19.020 7.746,19.020 8.000 C 19.020 8.256,19.036 8.328,19.131 8.489 C 19.256 8.702,19.449 8.864,19.670 8.943 C 19.878 9.017,21.122 9.017,21.330 8.943 C 21.551 8.864,21.744 8.702,21.869 8.489 C 21.964 8.328,21.980 8.256,21.980 8.000 C 21.980 7.746,21.963 7.672,21.872 7.516 C 21.740 7.293,21.533 7.128,21.290 7.055 C 21.050 6.983,19.928 6.984,19.695 7.057 M11.300 12.720 L 13.580 15.000 11.290 15.000 L 9.000 15.000 9.000 12.720 C 9.000 11.466,9.005 10.440,9.010 10.440 C 9.016 10.440,10.046 11.466,11.300 12.720 M2.695 15.057 C 2.466 15.129,2.256 15.299,2.128 15.516 C 2.037 15.672,2.020 15.746,2.020 16.000 C 2.020 16.256,2.036 16.328,2.131 16.489 C 2.256 16.702,2.449 16.864,2.670 16.943 C 2.878 17.017,4.122 17.017,4.330 16.943 C 4.551 16.864,4.744 16.702,4.869 16.489 C 4.964 16.328,4.980 16.256,4.980 16.000 C 4.980 15.746,4.963 15.672,4.872 15.516 C 4.740 15.293,4.533 15.128,4.290 15.055 C 4.050 14.983,2.928 14.984,2.695 15.057 M19.695 15.057 C 19.466 15.129,19.256 15.299,19.128 15.516 C 19.037 15.672,19.020 15.746,19.020 16.000 C 19.020 16.256,19.036 16.328,19.131 16.489 C 19.256 16.702,19.449 16.864,19.670 16.943 C 19.878 17.017,21.122 17.017,21.330 16.943 C 21.551 16.864,21.744 16.702,21.869 16.489 C 21.964 16.328,21.980 16.256,21.980 16.000 C 21.980 15.746,21.963 15.672,21.872 15.516 C 21.740 15.293,21.533 15.128,21.290 15.055 C 21.050 14.983,19.928 14.984,19.695 15.057 M7.695 19.057 C 7.466 19.129,7.256 19.299,7.128 19.516 C 7.020 19.699,7.020 19.703,7.020 20.503 L 7.020 21.306 7.141 21.503 C 7.543 22.156,8.457 22.156,8.859 21.503 L 8.980 21.306 8.980 20.503 C 8.980 19.703,8.980 19.699,8.872 19.516 C 8.628 19.101,8.150 18.915,7.695 19.057 M15.695 19.057 C 15.466 19.129,15.256 19.299,15.128 19.516 C 15.020 19.699,15.020 19.703,15.020 20.503 L 15.020 21.306 15.141 21.503 C 15.543 22.156,16.457 22.156,16.859 21.503 L 16.980 21.306 16.980 20.503 C 16.980 19.703,16.980 19.699,16.872 19.516 C 16.628 19.101,16.150 18.915,15.695 19.057 " stroke="none" fill-rule="evenodd" fill="black"></path></svg>