<svg xmlns="http://www.w3.org/2000/svg" width="24" height="24" viewBox="0 0 24 24" fill="none" stroke="currentColor" stroke-width="2" stroke-linecap="round" stroke-linejoin="round"><path d="M4.499 3.043 C 3.380 3.232,2.461 4.048,2.114 5.160 L 2.020 5.460 2.020 12.000 L 2.020 18.540 2.114 18.840 C 2.422 19.827,3.173 20.578,4.160 20.886 L 4.460 20.980 12.000 20.980 L 19.540 20.980 19.840 20.886 C 20.827 20.578,21.578 19.827,21.886 18.840 L 21.980 18.540 21.980 12.000 L 21.980 5.460 21.886 5.160 C 21.581 4.182,20.832 3.428,19.861 3.121 L 19.540 3.020 12.120 3.014 C 8.039 3.011,4.609 3.024,4.499 3.043 M19.310 5.061 C 19.589 5.144,19.856 5.411,19.939 5.690 C 19.992 5.869,20.000 6.651,20.000 12.001 C 20.000 17.059,19.991 18.139,19.945 18.290 C 19.872 18.533,19.707 18.740,19.484 18.872 L 19.300 18.980 12.000 18.980 L 4.700 18.980 4.516 18.872 C 4.303 18.747,4.141 18.550,4.058 18.316 C 3.968 18.060,3.971 5.993,4.061 5.690 C 4.140 5.421,4.412 5.143,4.673 5.063 C 4.964 4.974,19.009 4.971,19.310 5.061 M6.695 7.057 C 6.466 7.129,6.256 7.299,6.128 7.516 C 6.037 7.672,6.020 7.746,6.020 8.000 C 6.020 8.256,6.036 8.328,6.131 8.489 C 6.256 8.702,6.449 8.864,6.670 8.943 C 6.892 9.022,17.108 9.022,17.330 8.943 C 17.551 8.864,17.744 8.702,17.869 8.489 C 17.964 8.328,17.980 8.256,17.980 8.000 C 17.980 7.746,17.963 7.672,17.872 7.516 C 17.740 7.293,17.533 7.128,17.290 7.055 C 17.028 6.976,6.946 6.978,6.695 7.057 M6.695 11.057 C 6.466 11.129,6.256 11.299,6.128 11.516 C 6.037 11.672,6.020 11.746,6.020 12.000 C 6.020 12.256,6.036 12.328,6.131 12.489 C 6.256 12.702,6.449 12.864,6.670 12.943 C 6.892 13.022,17.108 13.022,17.330 12.943 C 17.551 12.864,17.744 12.702,17.869 12.489 C 17.964 12.328,17.980 12.256,17.980 12.000 C 17.980 11.746,17.963 11.672,17.872 11.516 C 17.740 11.293,17.533 11.128,17.290 11.055 C 17.028 10.976,6.946 10.978,6.695 11.057 M6.695 15.057 C 6.466 15.129,6.256 15.299,6.128 15.516 C 6.037 15.672,6.020 15.746,6.020 16.000 C 6.020 16.256,6.036 16.328,6.131 16.489 C 6.256 16.702,6.449 16.864,6.670 16.943 C 6.892 17.022,17.108 17.022,17.330 16.943 C 17.551 16.864,17.744 16.702,17.869 16.489 C 17.964 16.328,17.980 16.256,17.980 16.000 C 17.980 15.746,17.963 15.672,17.872 15.516 C 17.740 15.293,17.533 15.128,17.290 15.055 C 17.028 14.976,6.946 14.978,6.695 15.057 " stroke="none" fill-rule="evenodd" fill="black"></path></svg>