<svg xmlns="http://www.w3.org/2000/svg" width="24" height="24" viewBox="0 0 24 24" fill="none" stroke="currentColor" stroke-width="2" stroke-linecap="round" stroke-linejoin="round"><path d="M2.670 2.061 C 2.448 2.142,2.250 2.309,2.128 2.516 C 2.036 2.672,2.020 2.745,2.021 3.000 C 2.021 3.214,2.043 3.340,2.096 3.440 C 2.137 3.517,2.397 3.810,2.674 4.091 L 3.178 4.602 2.968 4.803 C 2.527 5.227,2.288 5.606,2.114 6.161 L 2.020 6.460 2.020 12.000 L 2.020 17.540 2.114 17.840 C 2.418 18.816,3.149 19.554,4.140 19.886 L 4.420 19.980 11.500 19.991 L 18.579 20.002 19.500 20.916 C 20.006 21.419,20.483 21.864,20.560 21.905 C 20.659 21.957,20.787 21.979,21.000 21.979 C 21.258 21.980,21.327 21.964,21.492 21.867 C 21.968 21.587,22.139 20.967,21.865 20.508 C 21.810 20.416,17.665 16.243,12.653 11.235 C 4.231 2.820,3.525 2.125,3.343 2.065 C 3.107 1.987,2.874 1.986,2.670 2.061 M8.695 4.057 C 8.465 4.129,8.256 4.299,8.128 4.516 C 8.037 4.672,8.020 4.746,8.020 5.000 C 8.020 5.256,8.036 5.328,8.131 5.489 C 8.256 5.702,8.449 5.864,8.670 5.943 C 8.792 5.987,9.771 5.997,13.963 5.998 C 19.717 6.000,19.369 5.983,19.679 6.283 C 20.005 6.600,19.978 6.102,20.000 12.023 L 20.020 17.306 20.141 17.503 C 20.543 18.156,21.457 18.156,21.859 17.503 L 21.980 17.306 21.980 11.883 L 21.980 6.460 21.886 6.160 C 21.581 5.182,20.832 4.428,19.861 4.121 L 19.540 4.020 14.200 4.012 C 9.900 4.006,8.828 4.015,8.695 4.057 M5.646 7.066 L 6.632 8.051 6.446 8.179 C 6.344 8.250,6.206 8.394,6.140 8.500 L 6.020 8.694 6.020 10.500 L 6.020 12.306 6.141 12.503 C 6.543 13.156,7.457 13.156,7.859 12.503 L 7.980 12.307 7.992 11.153 L 8.005 10.000 8.292 10.000 L 8.580 10.000 10.844 12.264 L 13.108 14.528 13.050 14.694 C 12.923 15.058,13.071 15.547,13.381 15.783 C 13.595 15.946,13.785 15.996,14.200 15.998 L 14.581 16.000 15.580 17.000 L 16.580 18.001 10.640 17.990 L 4.700 17.980 4.516 17.872 C 4.415 17.813,4.284 17.700,4.225 17.623 C 3.988 17.312,4.000 17.608,4.000 12.021 C 4.000 6.525,3.995 6.674,4.198 6.412 C 4.297 6.283,4.554 6.080,4.617 6.080 C 4.640 6.080,5.103 6.524,5.646 7.066 M16.695 11.057 C 16.466 11.129,16.256 11.299,16.128 11.516 C 16.020 11.699,16.020 11.703,16.020 12.503 L 16.020 13.306 16.141 13.503 C 16.543 14.156,17.457 14.156,17.859 13.503 L 17.980 13.306 17.980 12.503 C 17.980 11.703,17.980 11.699,17.872 11.516 C 17.628 11.101,17.150 10.915,16.695 11.057 " stroke="none" fill-rule="evenodd" fill="black"></path></svg>