<svg xmlns="http://www.w3.org/2000/svg" width="24" height="24" viewBox="0 0 24 24" fill="none" stroke="currentColor" stroke-width="2" stroke-linecap="round" stroke-linejoin="round"><path d="M2.670 2.061 C 2.448 2.142,2.250 2.309,2.128 2.516 C 2.036 2.672,2.020 2.745,2.021 3.000 C 2.021 3.213,2.043 3.341,2.095 3.440 C 2.136 3.517,2.707 4.121,3.366 4.782 L 4.562 5.984 4.280 6.177 C 3.655 6.605,3.219 7.271,3.059 8.047 C 3.006 8.301,3.000 8.849,3.010 12.001 C 3.023 16.126,2.999 15.811,3.346 16.517 C 3.494 16.820,3.595 16.960,3.855 17.225 C 4.159 17.535,4.383 17.686,7.342 19.573 C 9.081 20.682,10.565 21.621,10.640 21.660 C 11.122 21.909,11.812 22.033,12.336 21.963 C 12.675 21.918,13.111 21.789,13.360 21.660 C 13.434 21.622,14.411 21.005,15.531 20.289 L 17.567 18.989 18.994 20.410 C 19.778 21.192,20.483 21.864,20.560 21.905 C 20.659 21.957,20.788 21.979,21.000 21.979 C 21.258 21.980,21.327 21.964,21.492 21.867 C 21.968 21.587,22.139 20.967,21.865 20.508 C 21.810 20.416,17.665 16.243,12.653 11.235 C 4.231 2.820,3.525 2.125,3.343 2.065 C 3.107 1.987,2.874 1.986,2.670 2.061 M11.480 2.098 C 10.932 2.198,10.856 2.236,9.180 3.236 C 8.036 3.919,7.853 4.065,7.762 4.367 C 7.641 4.771,7.740 5.142,8.040 5.413 C 8.327 5.671,8.684 5.747,9.025 5.624 C 9.110 5.593,9.727 5.242,10.396 4.844 C 11.065 4.446,11.677 4.102,11.756 4.080 C 11.959 4.024,12.129 4.030,12.340 4.102 C 12.536 4.168,18.274 7.568,18.540 7.776 C 18.785 7.967,18.874 8.082,18.940 8.297 C 19.029 8.589,19.029 15.147,18.940 15.480 C 18.772 16.108,19.014 16.634,19.555 16.819 C 19.795 16.901,19.955 16.896,20.215 16.799 C 20.531 16.680,20.725 16.452,20.867 16.034 L 20.980 15.700 20.980 11.920 C 20.980 7.652,21.000 7.947,20.658 7.249 C 20.460 6.847,20.154 6.482,19.761 6.182 C 19.482 5.969,13.682 2.515,13.302 2.336 C 13.147 2.262,12.912 2.175,12.780 2.141 C 12.435 2.052,11.837 2.032,11.480 2.098 M11.480 6.577 C 11.072 6.691,10.827 6.882,10.683 7.200 C 10.444 7.728,10.724 8.343,11.291 8.535 C 11.519 8.612,11.621 8.616,11.853 8.554 L 12.027 8.507 13.511 9.393 L 14.995 10.279 15.007 11.293 L 15.020 12.307 15.141 12.503 C 15.543 13.156,16.457 13.156,16.859 12.503 L 16.980 12.307 16.992 11.193 C 17.006 9.977,16.988 9.831,16.773 9.376 C 16.552 8.907,16.311 8.724,14.518 7.660 C 13.550 7.085,12.797 6.664,12.641 6.611 C 12.341 6.509,11.785 6.492,11.480 6.577 M7.499 8.961 C 7.490 8.976,7.421 9.080,7.345 9.193 C 7.268 9.306,7.164 9.503,7.113 9.629 C 7.021 9.858,7.020 9.874,7.008 11.815 C 7.001 13.089,7.011 13.841,7.039 13.975 C 7.130 14.411,7.416 14.874,7.755 15.132 C 7.857 15.209,8.659 15.734,9.538 16.297 C 11.323 17.441,11.412 17.484,12.004 17.485 C 12.536 17.486,12.754 17.394,13.787 16.730 C 14.274 16.416,14.689 16.160,14.707 16.160 C 14.726 16.160,15.051 16.471,15.430 16.850 L 16.120 17.540 14.336 18.680 C 13.355 19.307,12.487 19.855,12.406 19.899 C 12.211 20.003,11.795 20.006,11.604 19.905 C 11.216 19.697,5.435 15.979,5.292 15.845 C 4.986 15.558,4.997 15.714,5.009 11.797 C 5.020 8.342,5.020 8.340,5.106 8.180 C 5.220 7.970,5.356 7.847,5.720 7.626 L 6.020 7.443 6.768 8.189 C 7.179 8.599,7.508 8.947,7.499 8.961 M13.230 14.688 C 13.211 14.740,12.029 15.484,11.983 15.472 C 11.958 15.465,11.276 15.037,10.469 14.520 L 9.001 13.580 9.000 12.000 L 9.000 10.420 11.120 12.540 C 12.286 13.706,13.236 14.672,13.230 14.688 " stroke="none" fill-rule="evenodd" fill="black"></path></svg>