<svg xmlns="http://www.w3.org/2000/svg" width="24" height="24" viewBox="0 0 24 24" fill="none" stroke="currentColor" stroke-width="2" stroke-linecap="round" stroke-linejoin="round"><path d="M11.695 2.057 C 11.466 2.129,11.256 2.299,11.128 2.516 L 11.020 2.700 11.009 6.692 C 10.999 10.457,10.995 10.684,10.929 10.664 C 10.891 10.653,9.139 10.166,7.034 9.582 C 3.020 8.467,2.939 8.449,2.626 8.580 C 2.427 8.663,2.211 8.862,2.109 9.056 C 1.988 9.285,1.988 9.715,2.108 9.943 C 2.245 10.202,2.477 10.384,2.787 10.475 C 2.937 10.520,4.689 11.007,6.680 11.559 C 8.671 12.111,10.314 12.567,10.332 12.572 C 10.349 12.577,9.185 14.251,7.745 16.292 C 6.304 18.332,5.095 20.083,5.057 20.181 C 4.923 20.532,5.045 20.970,5.352 21.248 C 5.715 21.576,6.280 21.580,6.638 21.257 C 6.719 21.184,7.954 19.467,9.383 17.442 C 10.811 15.418,11.989 13.761,12.000 13.761 C 12.011 13.761,13.189 15.418,14.617 17.442 C 16.046 19.467,17.281 21.184,17.362 21.257 C 17.720 21.580,18.285 21.576,18.648 21.248 C 18.955 20.970,19.077 20.532,18.943 20.181 C 18.905 20.083,17.696 18.332,16.255 16.292 C 14.815 14.251,13.651 12.577,13.668 12.572 C 13.686 12.567,15.329 12.111,17.320 11.559 C 19.311 11.007,21.063 10.520,21.213 10.475 C 21.523 10.384,21.755 10.202,21.892 9.943 C 22.012 9.715,22.012 9.285,21.891 9.056 C 21.789 8.862,21.573 8.663,21.374 8.580 C 21.061 8.449,20.980 8.467,16.966 9.582 C 14.861 10.166,13.109 10.653,13.071 10.664 C 13.005 10.684,13.001 10.457,12.991 6.692 L 12.980 2.700 12.872 2.516 C 12.628 2.101,12.150 1.915,11.695 2.057 " stroke="none" fill-rule="evenodd" fill="black"></path></svg>