<svg xmlns="http://www.w3.org/2000/svg" width="24" height="24" viewBox="0 0 24 24" fill="none" stroke="currentColor" stroke-width="2" stroke-linecap="round" stroke-linejoin="round"><path d="M11.695 2.057 C 11.466 2.129,11.256 2.299,11.128 2.516 L 11.020 2.700 11.000 6.491 L 10.980 10.281 7.740 8.458 C 5.958 7.455,4.439 6.609,4.365 6.577 C 4.194 6.505,3.797 6.503,3.626 6.575 C 3.437 6.654,3.209 6.866,3.109 7.056 C 3.044 7.179,3.022 7.290,3.022 7.500 C 3.022 7.834,3.115 8.042,3.356 8.246 C 3.443 8.320,4.956 9.190,6.717 10.180 C 8.479 11.170,9.920 11.990,9.920 12.003 C 9.920 12.015,8.467 12.842,6.692 13.841 C 4.917 14.839,3.404 15.710,3.330 15.774 C 3.112 15.966,3.022 16.177,3.022 16.500 C 3.022 16.819,3.104 17.015,3.326 17.228 C 3.603 17.493,4.042 17.566,4.400 17.408 C 4.499 17.364,6.020 16.517,7.780 15.526 L 10.980 13.723 11.000 17.515 L 11.020 21.306 11.141 21.503 C 11.209 21.613,11.346 21.756,11.452 21.828 C 11.923 22.144,12.554 21.999,12.859 21.503 L 12.980 21.306 13.000 17.515 L 13.020 13.723 16.220 15.526 C 17.980 16.517,19.501 17.364,19.600 17.408 C 19.958 17.566,20.397 17.493,20.674 17.228 C 20.896 17.015,20.978 16.819,20.978 16.500 C 20.978 16.177,20.888 15.966,20.670 15.774 C 20.596 15.710,19.083 14.839,17.308 13.841 C 15.533 12.842,14.080 12.015,14.080 12.003 C 14.080 11.990,15.521 11.170,17.283 10.180 C 19.044 9.190,20.557 8.320,20.644 8.246 C 20.885 8.042,20.978 7.834,20.978 7.500 C 20.978 7.290,20.956 7.179,20.891 7.056 C 20.791 6.866,20.563 6.654,20.374 6.575 C 20.203 6.503,19.806 6.505,19.635 6.577 C 19.561 6.609,18.042 7.455,16.260 8.458 L 13.020 10.281 13.000 6.491 L 12.980 2.700 12.872 2.516 C 12.628 2.101,12.150 1.915,11.695 2.057 " stroke="none" fill-rule="evenodd" fill="black"></path></svg>