<svg xmlns="http://www.w3.org/2000/svg" width="24" height="24" viewBox="0 0 24 24" fill="none" stroke="currentColor" stroke-width="2" stroke-linecap="round" stroke-linejoin="round"><path d="M2.670 2.061 C 2.448 2.142,2.250 2.309,2.128 2.516 C 2.036 2.672,2.020 2.745,2.021 3.000 C 2.021 3.213,2.043 3.341,2.095 3.440 C 2.136 3.517,2.637 4.050,3.209 4.625 L 4.249 5.671 4.049 5.925 C 3.082 7.161,2.351 8.891,2.100 10.540 C 1.998 11.204,1.978 12.404,2.058 13.060 C 2.373 15.658,3.547 17.906,5.440 19.533 C 8.122 21.838,11.697 22.576,15.035 21.513 C 16.169 21.152,16.486 20.883,16.490 20.281 C 16.493 19.764,16.110 19.346,15.584 19.292 C 15.417 19.275,15.310 19.295,15.019 19.400 C 13.757 19.854,12.690 20.041,11.679 19.985 C 8.832 19.825,6.443 18.357,5.023 15.896 C 4.489 14.971,4.141 13.821,4.033 12.628 C 3.944 11.638,4.099 10.374,4.425 9.426 C 4.673 8.707,5.188 7.722,5.569 7.239 L 5.679 7.100 6.749 8.170 L 7.820 9.241 7.744 9.370 C 7.448 9.871,7.215 10.468,7.093 11.040 C 6.991 11.514,6.991 12.533,7.093 12.980 C 7.260 13.719,7.544 14.367,7.944 14.922 C 8.243 15.338,8.812 15.884,9.240 16.168 C 10.636 17.093,12.410 17.256,13.947 16.599 C 14.151 16.512,14.406 16.387,14.513 16.320 C 14.621 16.254,14.725 16.200,14.745 16.200 C 14.764 16.200,16.031 17.452,17.560 18.983 C 19.121 20.545,20.419 21.812,20.520 21.873 C 20.673 21.964,20.746 21.980,21.000 21.980 C 21.257 21.980,21.327 21.964,21.492 21.867 C 21.968 21.587,22.139 20.967,21.865 20.508 C 21.810 20.416,17.665 16.243,12.653 11.235 C 4.231 2.820,3.525 2.125,3.343 2.065 C 3.107 1.987,2.874 1.986,2.670 2.061 M10.950 2.041 C 9.784 2.174,8.596 2.518,7.658 2.992 C 7.147 3.250,6.960 3.507,6.960 3.949 C 6.961 4.393,7.230 4.764,7.653 4.904 C 7.934 4.998,8.105 4.964,8.750 4.686 C 9.802 4.233,10.604 4.049,11.682 4.012 C 12.984 3.967,14.101 4.175,15.228 4.673 C 17.761 5.793,19.505 8.105,19.926 10.900 C 19.963 11.146,19.980 11.671,19.980 12.561 L 19.980 13.862 19.851 14.123 C 19.712 14.405,19.495 14.640,19.181 14.848 C 18.926 15.018,18.772 15.242,18.715 15.528 C 18.677 15.721,18.680 15.789,18.738 15.968 C 18.863 16.351,19.077 16.559,19.448 16.655 C 19.867 16.764,20.310 16.579,20.869 16.062 C 21.362 15.605,21.701 15.046,21.889 14.380 C 21.975 14.075,21.979 13.992,21.979 12.580 C 21.980 11.573,21.963 10.985,21.928 10.740 C 21.751 9.514,21.463 8.582,20.935 7.522 C 20.412 6.471,19.813 5.653,18.952 4.816 C 18.142 4.028,17.437 3.537,16.340 2.997 C 15.415 2.541,14.558 2.274,13.453 2.098 C 12.989 2.024,11.409 1.988,10.950 2.041 M11.695 7.057 C 11.051 7.258,10.799 8.040,11.198 8.591 C 11.397 8.866,11.610 8.961,12.121 9.005 C 13.071 9.087,13.723 9.410,14.304 10.088 C 14.716 10.569,14.930 11.123,14.995 11.883 C 15.028 12.264,15.050 12.354,15.148 12.514 C 15.543 13.156,16.461 13.151,16.859 12.503 C 16.976 12.313,16.980 12.289,16.979 11.843 C 16.975 10.311,16.114 8.742,14.800 7.874 C 14.046 7.375,13.396 7.135,12.552 7.043 C 12.065 6.989,11.903 6.992,11.695 7.057 M13.256 14.726 C 13.201 14.815,12.558 14.969,12.158 14.989 C 11.146 15.040,10.226 14.618,9.626 13.827 C 9.366 13.485,9.240 13.241,9.114 12.839 C 9.035 12.587,9.021 12.455,9.021 12.000 C 9.022 11.460,9.061 11.235,9.225 10.842 L 9.283 10.703 11.279 12.699 C 12.377 13.797,13.267 14.709,13.256 14.726 " stroke="none" fill-rule="evenodd" fill="black"></path></svg>