<svg xmlns="http://www.w3.org/2000/svg" width="24" height="24" viewBox="0 0 24 24" fill="none" stroke="currentColor" stroke-width="2" stroke-linecap="round" stroke-linejoin="round"><path d="M2.670 2.061 C 2.448 2.142,2.250 2.309,2.128 2.516 C 2.036 2.672,2.020 2.745,2.021 3.000 C 2.021 3.213,2.043 3.340,2.096 3.440 C 2.136 3.517,2.502 3.916,2.909 4.326 L 3.650 5.072 3.585 5.246 C 3.324 5.948,3.329 6.975,3.598 8.002 C 3.892 9.127,4.601 10.623,5.391 11.789 L 5.532 11.999 5.381 12.227 C 4.740 13.193,4.139 14.370,3.820 15.285 C 3.513 16.167,3.393 16.801,3.396 17.531 C 3.398 18.156,3.491 18.589,3.727 19.080 C 3.860 19.358,3.954 19.483,4.237 19.764 C 4.769 20.292,5.295 20.523,6.133 20.598 C 7.466 20.717,9.280 20.138,11.209 18.976 C 11.413 18.853,11.674 18.689,11.789 18.610 L 11.999 18.468 12.227 18.619 C 13.591 19.525,15.161 20.236,16.343 20.483 C 17.253 20.673,18.108 20.651,18.758 20.421 L 18.935 20.358 19.678 21.094 C 20.086 21.499,20.483 21.864,20.560 21.904 C 20.660 21.957,20.787 21.979,21.000 21.979 C 21.258 21.980,21.327 21.964,21.492 21.867 C 21.968 21.587,22.139 20.967,21.865 20.508 C 21.810 20.416,17.665 16.243,12.653 11.235 C 4.231 2.820,3.525 2.125,3.343 2.065 C 3.107 1.987,2.874 1.986,2.670 2.061 M16.860 3.427 C 15.595 3.586,13.887 4.295,12.336 5.306 L 12.000 5.525 11.590 5.268 C 10.781 4.760,9.745 4.210,9.309 4.056 C 8.691 3.838,8.000 4.337,8.000 5.000 C 8.000 5.207,8.102 5.480,8.243 5.651 C 8.332 5.759,8.520 5.874,8.972 6.096 C 9.525 6.367,10.254 6.765,10.331 6.837 C 10.348 6.853,10.340 6.959,10.314 7.072 C 10.180 7.652,10.594 8.214,11.194 8.269 C 11.457 8.293,11.643 8.244,11.861 8.097 L 12.006 7.998 12.333 8.268 C 13.554 9.276,14.810 10.533,15.752 11.690 L 16.005 11.999 15.907 12.130 C 15.591 12.553,15.696 13.208,16.129 13.522 C 16.396 13.715,16.707 13.760,17.065 13.658 C 17.138 13.637,17.179 13.683,17.357 13.987 C 17.471 14.181,17.709 14.632,17.884 14.989 C 18.231 15.693,18.341 15.825,18.675 15.939 C 19.436 16.198,20.203 15.465,19.955 14.716 C 19.811 14.279,19.027 12.818,18.615 12.216 L 18.476 12.013 18.826 11.456 C 19.649 10.148,20.220 8.837,20.486 7.640 C 20.566 7.285,20.580 7.109,20.580 6.500 C 20.579 5.677,20.541 5.480,20.272 4.921 C 20.140 4.646,20.045 4.519,19.765 4.240 C 19.159 3.637,18.497 3.395,17.480 3.407 C 17.205 3.410,16.926 3.419,16.860 3.427 M18.180 5.522 C 18.464 5.668,18.575 5.897,18.594 6.376 C 18.627 7.193,18.335 8.172,17.685 9.420 C 17.536 9.706,17.365 10.019,17.304 10.115 L 17.193 10.290 17.066 10.135 C 16.304 9.204,14.672 7.581,13.802 6.888 L 13.704 6.810 13.902 6.683 C 14.254 6.457,15.528 5.848,15.955 5.702 C 16.603 5.479,17.030 5.401,17.541 5.411 C 17.925 5.419,18.008 5.433,18.180 5.522 M6.594 8.014 L 7.768 9.189 7.414 9.585 C 7.219 9.803,7.004 10.049,6.936 10.132 L 6.813 10.283 6.698 10.111 C 6.506 9.823,5.902 8.600,5.764 8.219 C 5.592 7.745,5.361 6.840,5.413 6.840 C 5.417 6.840,5.949 7.368,6.594 8.014 M13.349 14.862 C 13.322 14.886,13.147 15.040,12.960 15.205 C 12.773 15.370,12.480 15.617,12.310 15.755 L 12.000 16.005 11.690 15.753 C 10.539 14.815,9.274 13.556,8.335 12.415 L 7.994 12.001 8.283 11.650 C 8.441 11.458,8.708 11.143,8.875 10.951 L 9.180 10.601 11.289 12.710 C 12.891 14.310,13.387 14.829,13.349 14.862 M7.546 14.560 C 8.273 15.367,9.448 16.505,10.135 17.067 L 10.290 17.193 10.095 17.318 C 9.988 17.386,9.576 17.603,9.180 17.799 C 7.911 18.429,6.964 18.684,6.225 18.595 C 5.652 18.526,5.436 18.268,5.407 17.618 C 5.383 17.065,5.511 16.424,5.787 15.720 C 5.935 15.344,6.403 14.392,6.621 14.025 L 6.807 13.711 6.934 13.865 C 7.003 13.950,7.279 14.262,7.546 14.560 M17.110 18.591 C 17.029 18.609,16.179 18.383,15.780 18.237 C 15.415 18.105,14.205 17.509,13.885 17.305 L 13.710 17.193 13.865 17.066 C 13.949 16.997,14.197 16.781,14.415 16.586 L 14.811 16.232 15.986 17.406 C 16.633 18.052,17.138 18.585,17.110 18.591 " stroke="none" fill-rule="evenodd" fill="black"></path></svg>