<svg xmlns="http://www.w3.org/2000/svg" width="24" height="24" viewBox="0 0 24 24" fill="none" stroke="currentColor" stroke-width="2" stroke-linecap="round" stroke-linejoin="round"><path d="M11.420 1.985 C 10.044 2.060,8.710 2.404,7.500 2.997 C 6.529 3.473,5.534 4.165,5.337 4.502 C 4.979 5.113,5.385 5.915,6.088 5.987 C 6.408 6.020,6.597 5.948,7.029 5.628 C 8.245 4.727,9.437 4.235,10.880 4.036 C 11.608 3.936,12.788 3.984,13.560 4.146 C 14.697 4.383,15.741 4.865,16.771 5.627 C 16.985 5.786,17.228 5.935,17.311 5.958 C 17.765 6.084,18.230 5.896,18.469 5.489 C 18.564 5.328,18.580 5.256,18.580 5.000 C 18.580 4.614,18.469 4.414,18.091 4.115 C 16.696 3.016,14.937 2.280,13.180 2.060 C 12.711 2.002,11.815 1.963,11.420 1.985 M2.695 8.057 C 2.466 8.129,2.256 8.299,2.128 8.516 C 1.985 8.760,1.975 9.211,2.107 9.460 C 2.490 10.177,3.510 10.177,3.893 9.460 C 4.025 9.211,4.015 8.760,3.872 8.516 C 3.628 8.101,3.150 7.915,2.695 8.057 M11.358 8.061 C 10.230 8.237,9.143 8.974,8.569 9.953 C 7.320 12.083,8.233 14.785,10.512 15.704 C 12.558 16.528,14.877 15.538,15.704 13.488 C 16.090 12.530,16.090 11.469,15.705 10.516 C 15.172 9.197,14.001 8.269,12.605 8.058 C 12.144 7.989,11.816 7.990,11.358 8.061 M20.695 8.057 C 20.466 8.129,20.256 8.299,20.128 8.516 C 20.036 8.672,20.020 8.745,20.021 9.000 C 20.022 9.332,20.101 9.533,20.306 9.728 C 20.785 10.181,21.580 10.046,21.893 9.460 C 22.025 9.211,22.015 8.760,21.872 8.516 C 21.628 8.101,21.150 7.915,20.695 8.057 M12.523 10.073 C 13.262 10.266,13.850 10.924,13.967 11.690 C 14.067 12.343,13.873 12.933,13.403 13.404 C 13.002 13.807,12.547 14.000,12.000 14.000 C 11.485 14.000,11.038 13.822,10.653 13.465 C 9.323 12.229,10.189 10.005,12.000 10.005 C 12.143 10.005,12.378 10.036,12.523 10.073 M2.689 12.056 C 2.317 12.178,2.052 12.504,2.013 12.888 C 1.989 13.127,2.111 13.919,2.265 14.520 C 2.962 17.240,4.881 19.638,7.369 20.897 C 7.689 21.059,7.781 21.089,7.983 21.090 C 8.414 21.094,8.782 20.839,8.940 20.426 C 9.068 20.091,8.962 19.647,8.694 19.392 C 8.631 19.333,8.409 19.192,8.200 19.078 C 6.961 18.407,6.035 17.561,5.269 16.400 C 4.591 15.374,4.222 14.364,3.998 12.929 C 3.942 12.571,3.782 12.313,3.514 12.148 C 3.289 12.009,2.949 11.972,2.689 12.056 M20.670 12.057 C 20.238 12.211,20.073 12.473,19.960 13.181 C 19.915 13.466,19.834 13.865,19.781 14.067 C 19.211 16.219,17.676 18.133,15.730 19.115 C 15.420 19.271,15.218 19.447,15.114 19.651 C 14.776 20.314,15.268 21.097,16.017 21.090 C 16.219 21.089,16.311 21.059,16.631 20.897 C 19.411 19.490,21.384 16.782,21.916 13.645 C 22.017 13.048,22.020 12.912,21.934 12.660 C 21.766 12.167,21.165 11.880,20.670 12.057 M11.695 20.057 C 11.466 20.129,11.256 20.299,11.128 20.516 C 11.036 20.672,11.020 20.745,11.021 21.000 C 11.022 21.332,11.101 21.533,11.306 21.728 C 11.785 22.181,12.580 22.046,12.893 21.460 C 13.025 21.211,13.015 20.760,12.872 20.516 C 12.628 20.101,12.150 19.915,11.695 20.057 " stroke="none" fill-rule="evenodd" fill="black"></path></svg>