<svg xmlns="http://www.w3.org/2000/svg" width="24" height="24" viewBox="0 0 24 24" fill="none" stroke="currentColor" stroke-width="2" stroke-linecap="round" stroke-linejoin="round"><path d="M2.670 2.061 C 2.448 2.142,2.250 2.309,2.128 2.516 C 2.036 2.672,2.020 2.745,2.021 3.000 C 2.021 3.214,2.043 3.340,2.096 3.440 C 2.137 3.517,2.418 3.832,2.722 4.140 L 3.273 4.700 3.147 5.060 L 3.020 5.420 3.020 6.863 L 3.020 8.306 3.141 8.503 C 3.543 9.156,4.457 9.156,4.859 8.503 L 4.980 8.307 5.000 7.373 L 5.020 6.439 6.320 7.743 C 7.498 8.925,7.613 9.051,7.543 9.093 C 7.350 9.211,7.162 9.418,7.084 9.600 C 6.998 9.799,6.998 9.819,7.009 12.290 C 7.020 14.756,7.021 14.782,7.106 14.940 C 7.154 15.028,7.253 15.156,7.326 15.224 C 7.474 15.361,11.453 17.856,11.664 17.944 C 11.836 18.016,12.165 18.016,12.338 17.943 C 12.413 17.912,13.026 17.541,13.701 17.118 L 14.928 16.348 16.254 17.674 L 17.580 19.000 16.736 19.000 C 15.812 19.000,15.634 19.029,15.382 19.221 C 15.302 19.282,15.187 19.415,15.128 19.516 C 15.037 19.672,15.020 19.746,15.020 20.000 C 15.020 20.257,15.036 20.327,15.133 20.492 C 15.263 20.713,15.502 20.901,15.732 20.963 C 15.837 20.991,16.357 21.001,17.236 20.992 L 18.580 20.978 18.940 20.852 L 19.300 20.727 19.860 21.278 C 20.168 21.582,20.483 21.863,20.560 21.904 C 20.660 21.957,20.786 21.979,21.000 21.979 C 21.258 21.980,21.327 21.964,21.492 21.867 C 21.968 21.587,22.139 20.967,21.865 20.508 C 21.810 20.416,17.665 16.243,12.653 11.235 C 4.231 2.820,3.525 2.125,3.343 2.065 C 3.107 1.987,2.874 1.986,2.670 2.061 M15.695 3.055 C 15.464 3.130,15.255 3.300,15.128 3.516 C 15.037 3.672,15.020 3.746,15.020 4.000 C 15.020 4.256,15.036 4.328,15.131 4.489 C 15.192 4.592,15.304 4.725,15.381 4.783 C 15.644 4.984,15.734 4.996,16.963 4.998 C 18.284 5.000,18.408 5.021,18.679 5.283 C 18.975 5.571,18.977 5.581,19.000 7.023 L 19.020 8.307 19.141 8.503 C 19.543 9.156,20.457 9.156,20.859 8.503 L 20.980 8.306 20.980 6.883 C 20.980 5.503,20.977 5.451,20.886 5.160 C 20.581 4.181,19.825 3.421,18.861 3.124 C 18.551 3.028,18.495 3.025,17.200 3.014 C 16.166 3.005,15.822 3.014,15.695 3.055 M11.540 6.617 C 11.265 6.757,10.959 6.996,10.853 7.153 C 10.710 7.366,10.662 7.679,10.735 7.930 C 10.877 8.417,11.238 8.680,11.765 8.680 C 12.000 8.680,12.002 8.681,13.061 9.343 L 14.122 10.007 14.003 10.143 C 13.886 10.276,13.760 10.608,13.760 10.781 C 13.760 10.950,13.873 11.240,14.003 11.404 C 14.177 11.623,14.468 11.759,14.765 11.760 L 14.989 11.760 15.009 12.041 C 15.034 12.390,15.177 12.642,15.452 12.828 C 15.923 13.144,16.554 12.999,16.859 12.503 L 16.980 12.306 16.992 11.048 L 17.004 9.790 16.900 9.577 C 16.843 9.460,16.739 9.317,16.668 9.258 C 16.598 9.200,15.595 8.564,14.441 7.846 L 12.342 6.540 12.041 6.527 C 11.782 6.517,11.712 6.529,11.540 6.617 M11.000 14.128 L 11.000 15.202 10.790 15.069 C 10.675 14.996,10.225 14.714,9.790 14.443 L 9.000 13.951 9.000 12.878 L 9.000 11.805 10.000 12.430 L 11.000 13.054 11.000 14.128 M13.469 14.902 C 13.464 14.905,13.357 14.974,13.230 15.054 L 13.000 15.199 13.000 14.811 L 13.000 14.423 13.239 14.659 C 13.370 14.789,13.474 14.898,13.469 14.902 M3.695 15.057 C 3.466 15.129,3.256 15.299,3.128 15.516 L 3.020 15.700 3.020 17.120 C 3.020 18.497,3.023 18.549,3.114 18.840 C 3.419 19.817,4.158 20.563,5.140 20.884 C 5.404 20.970,5.495 20.976,6.764 20.991 C 7.647 21.001,8.163 20.992,8.268 20.963 C 8.498 20.901,8.737 20.713,8.867 20.492 C 8.964 20.327,8.980 20.257,8.980 20.000 C 8.980 19.746,8.963 19.672,8.872 19.516 C 8.761 19.327,8.569 19.156,8.373 19.071 C 8.296 19.038,7.854 19.016,6.980 19.001 L 5.700 18.980 5.516 18.872 C 5.327 18.761,5.157 18.570,5.071 18.373 C 5.037 18.295,5.015 17.865,5.001 16.980 L 4.980 15.700 4.872 15.516 C 4.628 15.101,4.150 14.915,3.695 15.057 " stroke="none" fill-rule="evenodd" fill="black"></path></svg>