<svg xmlns="http://www.w3.org/2000/svg" width="24" height="24" viewBox="0 0 24 24" fill="none" stroke="currentColor" stroke-width="2" stroke-linecap="round" stroke-linejoin="round"><path d="M5.499 3.043 C 4.383 3.230,3.461 4.048,3.114 5.160 C 3.023 5.451,3.020 5.503,3.020 6.883 L 3.020 8.306 3.141 8.503 C 3.543 9.156,4.457 9.156,4.859 8.503 L 4.980 8.307 5.000 7.023 C 5.023 5.581,5.025 5.571,5.321 5.283 C 5.592 5.021,5.716 5.000,7.037 4.998 C 8.266 4.996,8.356 4.984,8.619 4.783 C 8.696 4.725,8.808 4.592,8.869 4.489 C 8.964 4.328,8.980 4.256,8.980 4.000 C 8.980 3.746,8.963 3.672,8.872 3.516 C 8.813 3.415,8.698 3.282,8.618 3.221 C 8.350 3.016,8.216 3.000,6.904 3.005 C 6.242 3.007,5.609 3.025,5.499 3.043 M15.695 3.055 C 15.464 3.130,15.255 3.300,15.128 3.516 C 15.037 3.672,15.020 3.746,15.020 4.000 C 15.020 4.256,15.036 4.328,15.131 4.489 C 15.192 4.592,15.304 4.725,15.381 4.783 C 15.644 4.984,15.734 4.996,16.963 4.998 C 18.284 5.000,18.408 5.021,18.679 5.283 C 18.975 5.571,18.977 5.581,19.000 7.023 L 19.020 8.307 19.141 8.503 C 19.543 9.156,20.457 9.156,20.859 8.503 L 20.980 8.306 20.980 6.883 C 20.980 5.503,20.977 5.451,20.886 5.160 C 20.581 4.181,19.825 3.421,18.861 3.124 C 18.551 3.028,18.495 3.025,17.200 3.014 C 16.166 3.005,15.822 3.014,15.695 3.055 M11.560 6.612 C 11.218 6.798,7.460 9.152,7.323 9.266 C 7.248 9.328,7.144 9.472,7.092 9.586 L 6.998 9.792 7.009 12.286 C 7.020 14.756,7.021 14.782,7.106 14.940 C 7.154 15.028,7.253 15.156,7.326 15.224 C 7.474 15.361,11.453 17.856,11.664 17.944 C 11.835 18.016,12.165 18.016,12.336 17.944 C 12.547 17.856,16.526 15.361,16.674 15.224 C 16.747 15.156,16.846 15.028,16.894 14.940 C 16.979 14.782,16.980 14.756,16.991 12.283 L 17.002 9.786 16.899 9.575 C 16.843 9.459,16.739 9.317,16.668 9.258 C 16.598 9.200,15.595 8.564,14.441 7.846 L 12.342 6.540 12.041 6.527 C 11.782 6.516,11.715 6.528,11.560 6.612 M13.056 9.340 C 13.619 9.691,14.080 9.990,14.080 10.003 C 14.080 10.015,13.612 10.318,13.040 10.675 L 12.000 11.325 10.960 10.675 C 10.388 10.318,9.920 10.015,9.920 10.003 C 9.920 9.972,11.973 8.683,12.006 8.693 C 12.021 8.697,12.493 8.988,13.056 9.340 M11.000 14.128 L 11.000 15.202 10.790 15.069 C 10.675 14.996,10.225 14.714,9.790 14.443 L 9.000 13.951 9.000 12.878 L 9.000 11.805 10.000 12.430 L 11.000 13.054 11.000 14.128 M15.000 12.875 L 15.000 13.951 14.210 14.443 C 13.775 14.714,13.325 14.996,13.210 15.069 L 13.000 15.202 13.000 14.128 L 13.000 13.054 13.990 12.431 C 14.535 12.088,14.985 11.806,14.990 11.804 C 14.995 11.802,15.000 12.284,15.000 12.875 M3.695 15.057 C 3.466 15.129,3.256 15.299,3.128 15.516 L 3.020 15.700 3.020 17.120 C 3.020 18.497,3.023 18.549,3.114 18.840 C 3.419 19.817,4.158 20.563,5.140 20.884 C 5.404 20.970,5.495 20.976,6.764 20.991 C 7.647 21.001,8.163 20.992,8.268 20.963 C 8.498 20.901,8.737 20.713,8.867 20.492 C 8.964 20.327,8.980 20.257,8.980 20.000 C 8.980 19.746,8.963 19.672,8.872 19.516 C 8.761 19.327,8.569 19.156,8.373 19.071 C 8.296 19.038,7.854 19.016,6.980 19.001 L 5.700 18.980 5.516 18.872 C 5.327 18.761,5.157 18.570,5.071 18.373 C 5.037 18.295,5.015 17.865,5.001 16.980 L 4.980 15.700 4.872 15.516 C 4.628 15.101,4.150 14.915,3.695 15.057 M19.695 15.057 C 19.466 15.129,19.256 15.299,19.128 15.516 L 19.020 15.700 18.999 16.980 C 18.984 17.854,18.962 18.296,18.929 18.373 C 18.844 18.569,18.673 18.761,18.484 18.872 L 18.300 18.980 17.020 19.001 C 16.146 19.016,15.704 19.038,15.627 19.071 C 15.431 19.156,15.239 19.327,15.128 19.516 C 15.037 19.672,15.020 19.746,15.020 20.000 C 15.020 20.257,15.036 20.327,15.133 20.492 C 15.263 20.713,15.502 20.901,15.732 20.963 C 15.837 20.992,16.353 21.001,17.236 20.991 C 18.505 20.976,18.596 20.970,18.860 20.884 C 19.842 20.563,20.581 19.817,20.886 18.840 C 20.977 18.549,20.980 18.497,20.980 17.120 L 20.980 15.700 20.872 15.516 C 20.628 15.101,20.150 14.915,19.695 15.057 " stroke="none" fill-rule="evenodd" fill="black"></path></svg>