<svg xmlns="http://www.w3.org/2000/svg" width="24" height="24" viewBox="0 0 24 24" fill="none" stroke="currentColor" stroke-width="2" stroke-linecap="round" stroke-linejoin="round"><path d="M4.499 2.040 C 3.363 2.246,2.460 3.049,2.114 4.160 C 1.979 4.594,1.979 5.406,2.114 5.840 C 2.365 6.645,2.931 7.318,3.670 7.688 L 4.000 7.853 4.000 9.058 C 4.000 10.363,4.019 10.524,4.225 10.930 C 4.361 11.199,4.801 11.639,5.070 11.775 C 5.472 11.979,5.642 12.000,6.868 12.000 L 8.000 12.000 8.000 15.132 C 8.000 18.535,7.997 18.479,8.225 18.930 C 8.361 19.199,8.801 19.639,9.070 19.775 C 9.497 19.991,9.592 20.000,11.458 19.998 C 13.311 19.996,13.344 19.993,13.619 19.783 C 13.696 19.725,13.808 19.592,13.869 19.489 C 13.964 19.328,13.980 19.256,13.980 19.000 C 13.980 18.746,13.963 18.672,13.872 18.516 C 13.813 18.415,13.698 18.282,13.618 18.221 C 13.342 18.011,13.242 18.000,11.554 18.000 L 10.000 18.000 10.000 15.000 L 10.000 12.000 11.590 11.998 C 13.300 11.996,13.346 11.991,13.619 11.783 C 13.696 11.725,13.808 11.592,13.869 11.489 C 13.964 11.328,13.980 11.256,13.980 11.000 C 13.980 10.746,13.963 10.672,13.872 10.516 C 13.813 10.415,13.698 10.282,13.618 10.221 C 13.322 9.995,13.410 10.000,9.554 10.000 L 6.000 10.000 6.000 8.927 L 6.000 7.853 6.330 7.688 C 7.069 7.318,7.635 6.645,7.886 5.840 C 8.021 5.406,8.021 4.594,7.886 4.160 C 7.581 3.179,6.810 2.407,5.861 2.129 C 5.500 2.023,4.832 1.980,4.499 2.040 M5.310 4.061 C 5.688 4.173,6.000 4.598,6.000 5.001 C 6.000 5.331,5.784 5.696,5.484 5.872 C 5.328 5.963,5.254 5.980,5.000 5.980 C 4.746 5.980,4.672 5.963,4.516 5.872 C 3.935 5.530,3.833 4.774,4.304 4.303 C 4.583 4.024,4.916 3.944,5.310 4.061 M16.695 7.057 C 16.466 7.129,16.256 7.299,16.128 7.516 L 16.020 7.700 16.020 10.503 L 16.020 13.306 16.141 13.503 C 16.543 14.156,17.457 14.156,17.859 13.503 C 17.979 13.309,17.980 13.300,17.993 12.658 L 18.007 12.010 18.513 11.991 C 18.925 11.975,19.076 11.951,19.320 11.865 C 20.031 11.614,20.605 11.041,20.867 10.320 C 20.965 10.051,20.976 9.966,20.976 9.500 C 20.976 9.035,20.965 8.948,20.868 8.680 C 20.732 8.306,20.458 7.898,20.165 7.636 C 19.887 7.387,19.390 7.137,19.020 7.060 C 18.650 6.982,16.940 6.980,16.695 7.057 M18.748 9.078 C 18.893 9.167,19.000 9.346,19.000 9.500 C 19.000 9.654,18.893 9.833,18.748 9.922 C 18.650 9.981,18.547 10.000,18.310 10.000 L 18.000 10.000 18.000 9.500 L 18.000 9.000 18.310 9.000 C 18.547 9.000,18.650 9.019,18.748 9.078 M16.695 16.055 C 16.464 16.130,16.255 16.300,16.128 16.516 L 16.020 16.700 16.009 18.911 C 16.001 20.337,16.012 21.176,16.039 21.275 C 16.099 21.498,16.289 21.739,16.508 21.867 L 16.700 21.980 17.620 21.980 C 18.473 21.980,18.562 21.973,18.840 21.886 C 19.827 21.578,20.579 20.826,20.886 19.840 C 21.021 19.406,21.021 18.594,20.886 18.160 C 20.581 17.181,19.820 16.416,18.861 16.125 C 18.574 16.039,18.451 16.027,17.700 16.015 C 17.072 16.004,16.818 16.015,16.695 16.055 M18.310 18.061 C 18.688 18.173,19.000 18.598,19.000 19.001 C 19.000 19.461,18.620 19.911,18.170 19.983 L 18.000 20.010 18.000 19.005 C 18.000 18.200,18.010 18.000,18.053 18.000 C 18.082 18.000,18.198 18.027,18.310 18.061 " stroke="none" fill-rule="evenodd" fill="black"></path></svg>