<svg xmlns="http://www.w3.org/2000/svg" width="24" height="24" viewBox="0 0 24 24" fill="none" stroke="currentColor" stroke-width="2" stroke-linecap="round" stroke-linejoin="round"><path d="M11.540 2.023 C 10.715 2.102,10.250 2.200,9.620 2.427 C 7.452 3.207,5.779 5.052,5.223 7.275 C 5.064 7.908,5.023 8.264,5.023 9.000 C 5.023 9.977,5.150 10.675,5.484 11.541 C 5.574 11.774,5.639 11.986,5.628 12.014 C 5.617 12.041,4.916 13.263,4.070 14.729 C 3.224 16.194,2.502 17.467,2.466 17.557 C 2.278 18.027,2.522 18.579,3.017 18.804 C 3.226 18.899,3.415 18.899,4.880 18.800 C 5.529 18.756,6.136 18.720,6.230 18.720 L 6.400 18.720 7.096 20.110 C 7.512 20.940,7.838 21.543,7.906 21.608 C 8.307 21.986,9.008 21.957,9.343 21.547 C 9.407 21.468,10.026 20.422,10.718 19.222 C 11.410 18.022,11.986 17.040,11.999 17.040 C 12.011 17.040,12.588 18.025,13.281 19.229 C 14.617 21.551,14.743 21.736,15.065 21.831 C 15.430 21.940,15.835 21.852,16.094 21.608 C 16.162 21.543,16.488 20.940,16.904 20.110 L 17.600 18.720 17.770 18.720 C 17.864 18.720,18.471 18.756,19.120 18.800 C 20.690 18.906,20.775 18.905,21.032 18.776 C 21.537 18.525,21.731 17.934,21.475 17.430 C 21.428 17.336,20.715 16.094,19.892 14.668 C 19.069 13.242,18.386 12.051,18.375 12.021 C 18.363 11.990,18.428 11.771,18.518 11.533 C 18.857 10.641,18.977 9.976,18.977 9.000 C 18.977 8.056,18.876 7.462,18.573 6.620 C 17.715 4.237,15.581 2.473,13.102 2.098 C 12.726 2.041,11.813 1.997,11.540 2.023 M12.552 4.043 C 14.413 4.246,16.001 5.479,16.680 7.248 C 17.092 8.320,17.085 9.720,16.663 10.793 C 16.033 12.395,14.670 13.541,12.960 13.907 C 12.489 14.008,11.511 14.008,11.040 13.907 C 9.531 13.584,8.318 12.683,7.602 11.353 C 7.267 10.732,7.111 10.212,7.036 9.470 C 6.962 8.742,7.070 7.898,7.320 7.248 C 8.146 5.096,10.274 3.793,12.552 4.043 M7.254 14.133 C 7.827 14.647,8.276 14.957,8.910 15.274 C 9.231 15.435,9.892 15.686,10.193 15.761 C 10.288 15.785,10.360 15.819,10.353 15.837 C 10.346 15.855,9.963 16.523,9.502 17.322 L 8.664 18.775 8.255 17.943 C 7.601 16.609,7.612 16.615,5.969 16.726 C 5.590 16.751,5.268 16.761,5.255 16.748 C 5.232 16.726,6.878 13.840,6.913 13.840 C 6.921 13.840,7.075 13.972,7.254 14.133 M17.934 15.283 C 18.393 16.076,18.757 16.736,18.745 16.749 C 18.732 16.762,18.410 16.751,18.031 16.726 C 17.064 16.661,16.773 16.667,16.578 16.755 C 16.304 16.880,16.127 17.132,15.723 17.975 C 15.516 18.408,15.334 18.748,15.318 18.731 C 15.281 18.691,13.640 15.845,13.640 15.821 C 13.640 15.811,13.717 15.784,13.810 15.760 C 14.117 15.682,14.774 15.432,15.090 15.274 C 15.717 14.961,16.277 14.571,16.800 14.085 C 16.943 13.952,17.069 13.843,17.080 13.842 C 17.092 13.841,17.476 14.489,17.934 15.283 " stroke="none" fill-rule="evenodd" fill="black"></path></svg>