<svg xmlns="http://www.w3.org/2000/svg" width="24" height="24" viewBox="0 0 24 24" fill="none" stroke="currentColor" stroke-width="2" stroke-linecap="round" stroke-linejoin="round"><path d="M2.670 2.061 C 2.448 2.142,2.250 2.309,2.128 2.516 C 2.036 2.672,2.020 2.745,2.021 3.000 C 2.021 3.212,2.043 3.341,2.095 3.440 C 2.135 3.517,2.886 4.300,3.763 5.180 L 5.358 6.780 5.279 7.033 C 5.110 7.575,5.036 8.050,5.013 8.740 C 4.979 9.769,5.114 10.573,5.485 11.563 L 5.647 11.996 4.094 14.686 C 3.239 16.165,2.510 17.448,2.472 17.538 C 2.274 18.013,2.517 18.577,3.017 18.804 C 3.226 18.899,3.415 18.899,4.880 18.800 C 5.529 18.756,6.136 18.720,6.230 18.720 L 6.400 18.720 7.096 20.110 C 7.512 20.940,7.838 21.543,7.906 21.608 C 8.307 21.986,9.008 21.957,9.343 21.547 C 9.407 21.468,10.026 20.422,10.718 19.222 C 11.410 18.022,11.986 17.040,11.999 17.040 C 12.011 17.040,12.588 18.025,13.281 19.229 C 14.617 21.551,14.743 21.736,15.065 21.831 C 15.458 21.948,15.899 21.834,16.140 21.554 C 16.206 21.477,16.539 20.853,16.879 20.167 L 17.499 18.920 18.959 20.376 C 19.763 21.176,20.483 21.865,20.560 21.905 C 20.659 21.957,20.788 21.979,21.000 21.979 C 21.258 21.980,21.327 21.964,21.492 21.867 C 21.968 21.587,22.139 20.967,21.865 20.508 C 21.810 20.416,17.665 16.243,12.653 11.235 C 4.231 2.820,3.525 2.125,3.343 2.065 C 3.107 1.987,2.874 1.986,2.670 2.061 M11.400 2.027 C 11.075 2.059,10.439 2.173,10.160 2.249 C 9.029 2.556,7.649 3.353,7.399 3.841 C 7.079 4.469,7.492 5.205,8.200 5.269 C 8.501 5.297,8.685 5.230,9.061 4.959 C 9.405 4.711,10.001 4.403,10.400 4.267 C 10.961 4.077,11.330 4.020,12.000 4.023 C 12.921 4.026,13.509 4.166,14.293 4.569 C 16.091 5.492,17.167 7.454,16.967 9.448 C 16.872 10.404,16.638 11.038,16.065 11.894 C 15.717 12.414,15.668 12.597,15.767 12.990 C 15.836 13.267,16.148 13.572,16.449 13.659 C 16.592 13.700,16.742 13.716,16.849 13.702 L 17.020 13.678 17.500 14.525 C 18.136 15.647,18.278 15.781,18.820 15.778 C 19.403 15.775,19.801 15.368,19.800 14.775 C 19.799 14.521,19.738 14.396,19.005 13.130 C 18.672 12.555,18.389 12.058,18.376 12.025 C 18.364 11.992,18.428 11.771,18.518 11.533 C 18.864 10.621,18.980 9.980,18.978 8.980 C 18.976 8.373,18.958 8.127,18.889 7.760 C 18.306 4.670,15.838 2.386,12.712 2.043 C 12.348 2.003,11.719 1.995,11.400 2.027 M12.520 13.976 C 12.520 14.040,11.288 13.970,10.920 13.885 C 9.933 13.657,9.198 13.248,8.475 12.525 C 7.673 11.723,7.229 10.843,7.058 9.720 C 6.999 9.328,6.980 8.658,7.026 8.539 C 7.046 8.488,7.694 9.114,9.786 11.206 C 11.290 12.710,12.520 13.956,12.520 13.976 M7.082 13.984 C 7.291 14.202,7.783 14.602,8.131 14.838 C 8.606 15.160,9.214 15.451,9.805 15.641 C 10.099 15.736,10.345 15.817,10.351 15.821 C 10.357 15.825,9.980 16.491,9.513 17.301 L 8.663 18.774 8.255 17.943 C 7.601 16.609,7.612 16.615,5.969 16.726 C 5.590 16.751,5.268 16.761,5.255 16.748 C 5.229 16.722,6.881 13.840,6.921 13.840 C 6.934 13.840,7.006 13.905,7.082 13.984 M15.107 16.530 L 15.993 17.420 15.665 18.100 C 15.484 18.473,15.326 18.761,15.313 18.740 C 14.774 17.817,13.639 15.828,13.648 15.821 C 13.659 15.812,14.150 15.655,14.200 15.644 C 14.212 15.642,14.620 16.041,15.107 16.530 " stroke="none" fill-rule="evenodd" fill="black"></path></svg>