<svg xmlns="http://www.w3.org/2000/svg" width="24" height="24" viewBox="0 0 24 24" fill="none" stroke="currentColor" stroke-width="2" stroke-linecap="round" stroke-linejoin="round"><path d="M3.695 4.057 C 3.466 4.129,3.256 4.299,3.128 4.516 C 3.036 4.672,3.020 4.745,3.021 5.000 C 3.022 5.332,3.101 5.533,3.306 5.728 C 3.785 6.181,4.580 6.046,4.893 5.460 C 5.025 5.211,5.015 4.760,4.872 4.516 C 4.628 4.101,4.150 3.915,3.695 4.057 M3.695 8.057 C 3.466 8.129,3.256 8.299,3.128 8.516 C 3.036 8.672,3.020 8.745,3.021 9.000 C 3.022 9.332,3.101 9.533,3.306 9.728 C 3.785 10.181,4.580 10.046,4.893 9.460 C 5.025 9.211,5.015 8.760,4.872 8.516 C 4.628 8.101,4.150 7.915,3.695 8.057 M3.695 12.057 C 3.466 12.129,3.256 12.299,3.128 12.516 C 3.036 12.672,3.020 12.745,3.021 13.000 C 3.022 13.332,3.101 13.533,3.306 13.728 C 3.785 14.181,4.580 14.046,4.893 13.460 C 5.025 13.211,5.015 12.760,4.872 12.516 C 4.628 12.101,4.150 11.915,3.695 12.057 M16.670 13.061 C 16.448 13.142,16.250 13.309,16.128 13.516 C 16.036 13.672,16.020 13.745,16.021 14.000 C 16.021 14.213,16.043 14.340,16.096 14.440 C 16.136 14.517,16.486 14.900,16.873 15.290 L 17.577 16.000 10.735 16.000 C 5.053 16.000,3.862 16.009,3.710 16.055 C 3.467 16.128,3.260 16.293,3.128 16.516 C 3.037 16.672,3.020 16.746,3.020 17.000 C 3.020 17.256,3.036 17.328,3.131 17.489 C 3.256 17.702,3.449 17.864,3.670 17.943 C 3.793 17.987,5.057 17.997,10.699 17.998 L 17.577 18.000 16.873 18.710 C 16.486 19.101,16.139 19.481,16.101 19.555 C 15.872 20.008,16.056 20.601,16.508 20.867 C 16.673 20.964,16.742 20.980,17.000 20.979 C 17.212 20.979,17.341 20.957,17.440 20.905 C 17.517 20.865,18.306 20.109,19.194 19.226 C 20.957 17.472,20.999 17.420,20.999 17.000 C 20.999 16.578,20.960 16.530,19.175 14.756 C 17.716 13.307,17.519 13.124,17.343 13.066 C 17.108 12.987,16.875 12.986,16.670 13.061 " stroke="none" fill-rule="evenodd" fill="black"></path></svg>