<svg xmlns="http://www.w3.org/2000/svg" width="24" height="24" viewBox="0 0 24 24" fill="none" stroke="currentColor" stroke-width="2" stroke-linecap="round" stroke-linejoin="round"><path d="M8.723 5.047 C 8.647 5.068,8.512 5.137,8.423 5.200 C 8.333 5.262,7.089 6.489,5.657 7.927 C 3.296 10.298,3.041 10.566,2.911 10.820 C 2.708 11.214,2.628 11.548,2.628 12.000 C 2.628 12.451,2.708 12.785,2.910 13.180 C 3.041 13.435,3.292 13.698,5.757 16.165 C 8.219 18.629,8.478 18.876,8.657 18.935 C 8.835 18.994,9.407 19.000,14.559 19.000 C 20.775 19.000,20.464 19.011,20.930 18.775 C 21.196 18.640,21.638 18.200,21.771 17.937 C 22.010 17.466,22.000 17.732,21.999 12.014 C 21.999 6.337,22.006 6.525,21.781 6.083 C 21.646 5.816,21.297 5.449,21.017 5.281 C 20.530 4.988,20.918 5.004,14.560 5.006 C 10.943 5.007,8.810 5.022,8.723 5.047 M20.000 12.000 L 20.000 17.000 14.710 17.000 L 9.419 17.000 7.030 14.609 L 4.640 12.218 4.640 12.000 L 4.640 11.782 7.030 9.391 L 9.419 7.000 14.710 7.000 L 20.000 7.000 20.000 12.000 M11.670 9.061 C 11.448 9.142,11.250 9.309,11.128 9.516 C 11.036 9.672,11.020 9.745,11.021 10.000 C 11.021 10.213,11.043 10.340,11.096 10.440 C 11.136 10.517,11.486 10.900,11.873 11.290 L 12.577 12.000 11.873 12.710 C 11.486 13.101,11.139 13.481,11.101 13.555 C 10.872 14.008,11.056 14.601,11.508 14.867 C 11.673 14.964,11.742 14.980,12.000 14.979 C 12.213 14.979,12.340 14.957,12.440 14.904 C 12.517 14.864,12.900 14.514,13.290 14.127 L 14.000 13.423 14.710 14.127 C 15.101 14.514,15.483 14.864,15.560 14.904 C 15.660 14.957,15.787 14.979,16.000 14.979 C 16.258 14.980,16.327 14.964,16.492 14.867 C 16.714 14.737,16.901 14.498,16.965 14.264 C 17.019 14.061,16.989 13.733,16.899 13.555 C 16.861 13.481,16.514 13.101,16.127 12.710 L 15.423 12.000 16.127 11.290 C 16.514 10.900,16.864 10.517,16.904 10.440 C 16.957 10.340,16.979 10.213,16.979 10.000 C 16.980 9.745,16.964 9.672,16.872 9.516 C 16.617 9.083,16.135 8.905,15.657 9.067 C 15.491 9.123,15.345 9.247,14.730 9.854 L 14.000 10.574 13.270 9.854 C 12.655 9.247,12.509 9.123,12.343 9.067 C 12.108 8.987,11.876 8.985,11.670 9.061 " stroke="none" fill-rule="evenodd" fill="black"></path></svg>