<svg xmlns="http://www.w3.org/2000/svg" width="24" height="24" viewBox="0 0 24 24" fill="none" stroke="currentColor" stroke-width="2" stroke-linecap="round" stroke-linejoin="round"><path d="M7.640 3.068 C 7.486 3.121,7.151 3.438,5.347 5.235 C 4.185 6.393,3.189 7.416,3.134 7.508 C 2.862 7.968,3.032 8.587,3.508 8.867 C 3.673 8.964,3.742 8.980,4.000 8.979 C 4.212 8.979,4.341 8.957,4.440 8.905 C 4.632 8.805,8.739 4.705,8.873 4.480 C 8.964 4.328,8.980 4.254,8.980 4.000 C 8.980 3.746,8.963 3.672,8.872 3.516 C 8.617 3.083,8.121 2.903,7.640 3.068 M13.640 3.068 C 13.483 3.121,12.806 3.783,8.347 8.235 C 5.375 11.202,3.190 13.415,3.127 13.520 C 3.036 13.672,3.020 13.746,3.020 14.000 C 3.020 14.257,3.036 14.327,3.133 14.492 C 3.263 14.714,3.502 14.901,3.736 14.965 C 3.938 15.019,4.266 14.989,4.445 14.899 C 4.630 14.807,14.736 4.708,14.873 4.480 C 14.964 4.327,14.980 4.254,14.980 4.000 C 14.980 3.746,14.963 3.672,14.872 3.516 C 14.617 3.083,14.122 2.903,13.640 3.068 M19.640 3.068 C 19.482 3.121,18.460 4.128,11.347 11.235 C 6.583 15.995,3.190 19.414,3.127 19.520 C 3.036 19.672,3.020 19.746,3.020 20.000 C 3.020 20.257,3.036 20.327,3.133 20.492 C 3.263 20.714,3.502 20.901,3.736 20.965 C 3.938 21.019,4.266 20.989,4.445 20.899 C 4.630 20.807,20.736 4.709,20.873 4.480 C 20.964 4.327,20.980 4.254,20.980 4.000 C 20.980 3.746,20.963 3.672,20.872 3.516 C 20.618 3.083,20.123 2.903,19.640 3.068 M19.640 9.068 C 19.483 9.121,18.806 9.783,14.347 14.235 C 11.375 17.202,9.190 19.415,9.127 19.520 C 9.036 19.672,9.020 19.746,9.020 20.000 C 9.020 20.257,9.036 20.327,9.133 20.492 C 9.263 20.714,9.502 20.901,9.736 20.965 C 9.938 21.019,10.266 20.989,10.445 20.899 C 10.630 20.807,20.736 10.708,20.873 10.480 C 20.964 10.327,20.980 10.254,20.980 10.000 C 20.980 9.746,20.963 9.672,20.872 9.516 C 20.617 9.083,20.122 8.903,19.640 9.068 M19.640 15.068 C 19.486 15.121,19.151 15.438,17.347 17.235 C 16.185 18.393,15.189 19.416,15.134 19.508 C 14.862 19.968,15.032 20.587,15.508 20.867 C 15.673 20.964,15.742 20.980,16.000 20.979 C 16.212 20.979,16.341 20.957,16.440 20.905 C 16.632 20.805,20.739 16.705,20.873 16.480 C 20.964 16.328,20.980 16.254,20.980 16.000 C 20.980 15.746,20.963 15.672,20.872 15.516 C 20.617 15.083,20.121 14.903,19.640 15.068 " stroke="none" fill-rule="evenodd" fill="black"></path></svg>