<svg xmlns="http://www.w3.org/2000/svg" width="24" height="24" viewBox="0 0 24 24" fill="none" stroke="currentColor" stroke-width="2" stroke-linecap="round" stroke-linejoin="round"><path d="M15.904 2.041 C 14.748 2.173,13.664 2.585,12.518 3.328 C 12.332 3.449,12.094 3.596,11.990 3.655 C 11.885 3.715,11.773 3.805,11.740 3.855 C 11.707 3.905,11.558 4.043,11.410 4.161 C 11.054 4.445,4.871 10.605,4.338 11.209 C 3.900 11.703,3.484 12.248,3.215 12.680 C 1.413 15.574,1.635 18.525,3.820 20.740 C 4.605 21.537,5.446 21.930,6.483 21.988 C 7.367 22.037,8.195 21.816,8.933 21.335 C 9.156 21.190,10.543 19.827,15.132 15.244 C 18.384 11.997,21.122 9.232,21.216 9.100 C 21.453 8.768,21.585 8.532,21.703 8.234 C 22.146 7.108,22.079 5.891,21.518 4.847 C 21.299 4.441,21.068 4.152,20.628 3.735 C 19.474 2.644,18.146 2.060,16.720 2.019 C 16.445 2.012,16.078 2.021,15.904 2.041 M17.320 4.100 C 18.079 4.282,18.788 4.699,19.402 5.326 C 20.023 5.959,20.170 6.842,19.785 7.617 C 19.651 7.885,19.323 8.220,13.752 13.786 C 8.220 19.311,7.844 19.678,7.600 19.791 C 7.122 20.012,6.697 20.053,6.210 19.925 C 5.715 19.795,5.351 19.522,4.904 18.944 C 4.260 18.110,4.024 17.466,4.025 16.540 C 4.026 15.250,4.549 14.046,5.703 12.680 C 6.183 12.111,6.067 12.026,6.641 13.372 C 7.062 14.357,7.166 14.566,7.303 14.704 C 7.479 14.881,7.759 15.000,8.000 15.000 C 8.562 15.000,9.044 14.477,8.991 13.923 C 8.979 13.799,8.754 13.222,8.319 12.205 L 7.665 10.675 8.403 9.937 L 9.141 9.199 9.641 10.370 C 10.062 11.357,10.165 11.566,10.303 11.704 C 10.479 11.881,10.759 12.000,11.000 12.000 C 11.562 12.000,12.044 11.477,11.991 10.923 C 11.979 10.799,11.754 10.222,11.319 9.205 L 10.665 7.675 11.403 6.937 L 12.141 6.199 12.641 7.370 C 13.062 8.357,13.165 8.566,13.303 8.704 C 13.479 8.881,13.759 9.000,14.000 9.000 C 14.563 9.000,15.044 8.477,14.991 7.923 C 14.979 7.797,14.769 7.257,14.368 6.320 C 13.814 5.025,13.769 4.902,13.831 4.855 C 13.869 4.827,14.116 4.697,14.380 4.566 C 14.909 4.303,15.344 4.154,15.800 4.081 C 15.965 4.055,16.127 4.026,16.160 4.018 C 16.292 3.986,17.076 4.042,17.320 4.100 " stroke="none" fill-rule="evenodd" fill="black"></path></svg>