<svg xmlns="http://www.w3.org/2000/svg" width="24" height="24" viewBox="0 0 24 24" fill="none" stroke="currentColor" stroke-width="2" stroke-linecap="round" stroke-linejoin="round"><path d="M11.540 1.023 C 10.715 1.102,10.250 1.200,9.620 1.427 C 7.452 2.207,5.779 4.052,5.223 6.275 C 5.054 6.948,5.021 7.257,5.022 8.160 C 5.023 9.917,5.346 11.582,5.988 13.140 C 6.783 15.069,8.078 16.606,9.556 17.374 C 9.977 17.593,10.748 17.880,10.915 17.880 C 11.018 17.880,11.028 18.014,10.945 18.290 C 10.872 18.533,10.707 18.740,10.484 18.872 L 10.300 18.980 8.380 19.002 C 6.481 19.024,6.457 19.026,6.139 19.123 C 5.174 19.422,4.414 20.187,4.115 21.160 C 4.045 21.390,4.023 21.559,4.022 21.883 C 4.020 22.285,4.026 22.315,4.141 22.503 C 4.446 22.998,5.077 23.144,5.548 22.828 C 5.816 22.647,5.951 22.410,5.999 22.031 C 6.048 21.645,6.111 21.491,6.301 21.301 C 6.588 21.014,6.525 21.022,8.660 20.998 C 10.524 20.976,10.588 20.973,10.860 20.884 C 12.065 20.489,12.901 19.448,12.987 18.236 C 13.009 17.917,13.020 17.880,13.091 17.880 C 13.253 17.880,14.030 17.590,14.444 17.374 C 15.895 16.620,17.205 15.081,17.980 13.220 C 18.452 12.087,18.771 10.820,18.927 9.460 C 18.994 8.875,18.994 7.392,18.926 6.980 C 18.675 5.443,18.008 4.126,16.941 3.059 C 15.884 2.002,14.540 1.315,13.102 1.098 C 12.726 1.041,11.813 0.997,11.540 1.023 M12.552 3.043 C 14.413 3.246,16.001 4.479,16.680 6.248 C 16.988 7.050,17.059 7.991,16.915 9.360 C 16.752 10.913,16.276 12.390,15.569 13.540 C 14.559 15.183,13.206 16.070,11.840 15.985 C 11.364 15.955,11.078 15.880,10.618 15.663 C 9.144 14.969,7.931 13.201,7.363 10.920 C 6.985 9.403,6.905 7.762,7.162 6.760 C 7.776 4.355,10.073 2.771,12.552 3.043 M11.695 5.054 C 11.048 5.267,10.799 6.040,11.198 6.591 C 11.369 6.827,11.608 6.953,11.972 6.999 C 12.355 7.048,12.509 7.112,12.699 7.301 C 12.889 7.491,12.952 7.645,13.001 8.031 C 13.049 8.410,13.184 8.647,13.452 8.828 C 13.923 9.144,14.554 8.998,14.859 8.503 C 14.974 8.315,14.980 8.285,14.978 7.883 C 14.977 7.559,14.955 7.390,14.885 7.160 C 14.586 6.184,13.809 5.404,12.863 5.130 C 12.463 5.015,11.922 4.979,11.695 5.054 " stroke="none" fill-rule="evenodd" fill="black"></path></svg>