<svg xmlns="http://www.w3.org/2000/svg" width="24" height="24" viewBox="0 0 24 24" fill="none" stroke="currentColor" stroke-width="2" stroke-linecap="round" stroke-linejoin="round"><path d="M2.670 2.061 C 2.448 2.142,2.250 2.309,2.128 2.516 C 2.036 2.672,2.020 2.745,2.021 3.000 C 2.021 3.213,2.043 3.341,2.095 3.440 C 2.136 3.517,2.637 4.050,3.208 4.625 L 4.248 5.670 3.965 6.051 C 2.896 7.492,2.271 9.093,2.055 10.949 C 1.978 11.606,1.999 12.831,2.098 13.458 C 2.362 15.134,3.023 16.701,4.045 18.068 C 4.424 18.575,5.428 19.578,5.944 19.965 C 7.305 20.985,8.854 21.638,10.540 21.902 C 11.098 21.989,12.312 22.021,12.900 21.964 C 14.747 21.785,16.486 21.121,17.949 20.035 L 18.330 19.752 19.375 20.792 C 19.950 21.363,20.483 21.864,20.560 21.905 C 20.659 21.957,20.787 21.979,21.000 21.979 C 21.258 21.980,21.327 21.964,21.492 21.867 C 21.714 21.737,21.901 21.498,21.965 21.264 C 22.019 21.062,21.989 20.734,21.899 20.555 C 21.862 20.481,20.599 19.185,19.092 17.676 L 16.352 14.931 16.533 14.376 C 16.632 14.070,16.904 13.234,17.137 12.517 L 17.561 11.214 18.619 10.804 C 19.200 10.578,19.711 10.384,19.753 10.373 C 19.820 10.356,19.836 10.387,19.875 10.607 C 20.105 11.882,20.013 13.242,19.613 14.460 C 19.556 14.636,19.409 15.005,19.288 15.280 C 19.166 15.555,19.059 15.861,19.049 15.960 C 18.975 16.717,19.790 17.276,20.471 16.937 C 20.740 16.803,20.855 16.662,21.070 16.200 C 22.365 13.426,22.301 10.184,20.898 7.440 C 19.655 5.008,17.411 3.158,14.786 2.397 C 12.497 1.735,9.965 1.925,7.820 2.920 C 7.373 3.128,7.230 3.235,7.098 3.459 C 6.787 3.991,7.055 4.706,7.638 4.899 C 7.932 4.997,8.148 4.964,8.625 4.748 C 9.337 4.426,10.040 4.206,10.690 4.101 L 11.000 4.051 10.999 5.276 L 10.997 6.500 10.109 7.145 L 9.220 7.791 6.380 4.961 C 3.799 2.388,3.522 2.125,3.343 2.065 C 3.107 1.987,2.874 1.986,2.670 2.061 M13.688 4.183 C 15.535 4.573,17.154 5.597,18.354 7.134 C 18.645 7.506,19.126 8.281,19.135 8.390 C 19.139 8.439,18.868 8.561,18.028 8.888 C 17.354 9.150,16.894 9.309,16.861 9.291 C 16.831 9.274,15.951 8.639,14.905 7.880 L 13.003 6.500 13.002 5.290 L 13.000 4.080 13.099 4.080 C 13.154 4.080,13.419 4.126,13.688 4.183 M6.634 8.054 L 7.567 8.988 7.374 9.128 C 7.267 9.204,7.159 9.279,7.133 9.294 C 7.096 9.315,5.011 8.541,4.870 8.454 C 4.807 8.415,5.588 7.120,5.675 7.120 C 5.689 7.120,6.121 7.540,6.634 8.054 M13.796 9.540 C 14.765 10.244,15.559 10.837,15.559 10.859 C 15.560 10.918,14.797 13.256,14.765 13.289 C 14.750 13.305,13.817 12.396,12.691 11.269 L 10.644 9.220 11.312 8.732 C 11.679 8.464,11.992 8.248,12.007 8.252 C 12.022 8.256,12.827 8.836,13.796 9.540 M5.329 10.783 C 5.929 11.016,6.425 11.211,6.430 11.217 C 6.452 11.239,7.880 15.782,7.880 15.830 C 7.880 15.858,7.535 16.278,7.114 16.763 L 6.348 17.644 6.190 17.492 C 5.723 17.042,5.223 16.322,4.836 15.541 C 4.171 14.201,3.893 12.698,4.040 11.240 C 4.090 10.739,4.161 10.360,4.203 10.360 C 4.222 10.360,4.729 10.551,5.329 10.783 M11.300 12.720 L 13.580 15.000 11.657 15.000 L 9.734 15.000 9.106 13.019 C 8.760 11.930,8.469 10.990,8.457 10.929 C 8.439 10.832,8.466 10.800,8.705 10.630 C 8.852 10.525,8.983 10.440,8.996 10.440 C 9.009 10.440,10.046 11.466,11.300 12.720 M15.298 17.916 C 15.715 18.418,16.062 18.846,16.069 18.867 C 16.084 18.912,15.341 19.284,14.874 19.464 C 14.023 19.793,13.229 19.955,12.298 19.988 C 10.917 20.038,9.647 19.765,8.409 19.153 C 7.960 18.931,7.922 18.903,7.969 18.838 C 7.997 18.798,8.362 18.370,8.780 17.886 L 9.540 17.005 12.040 17.004 L 14.540 17.002 15.298 17.916 " stroke="none" fill-rule="evenodd" fill="black"></path></svg>