<svg xmlns="http://www.w3.org/2000/svg" width="24" height="24" viewBox="0 0 24 24" fill="none" stroke="currentColor" stroke-width="2" stroke-linecap="round" stroke-linejoin="round"><path d="M17.311 2.041 C 16.869 2.116,16.404 2.321,16.020 2.613 C 15.640 2.901,4.877 13.700,4.691 13.980 C 3.902 15.167,3.787 16.530,4.370 17.812 L 4.493 18.083 3.832 18.752 C 3.467 19.119,3.136 19.483,3.096 19.560 C 3.043 19.660,3.021 19.786,3.021 20.000 C 3.020 20.258,3.036 20.327,3.133 20.492 C 3.263 20.714,3.502 20.901,3.736 20.965 C 3.939 21.019,4.267 20.989,4.445 20.899 C 4.519 20.861,4.881 20.533,5.248 20.168 L 5.917 19.507 6.188 19.630 C 7.481 20.218,8.884 20.094,10.040 19.290 C 10.201 19.178,11.771 17.640,14.150 15.265 L 18.000 11.421 18.790 12.210 L 19.579 12.999 17.874 14.710 C 16.936 15.650,16.135 16.483,16.095 16.560 C 16.043 16.659,16.021 16.788,16.021 17.000 C 16.020 17.258,16.036 17.327,16.133 17.492 C 16.413 17.968,17.033 18.139,17.492 17.865 C 17.708 17.737,21.808 13.626,21.905 13.440 C 22.007 13.246,22.007 12.754,21.905 12.560 C 21.864 12.483,21.290 11.876,20.628 11.211 L 19.424 10.002 20.422 8.991 C 21.072 8.333,21.467 7.900,21.554 7.751 C 21.959 7.061,22.090 6.313,21.937 5.572 C 21.778 4.801,21.583 4.514,20.473 3.416 C 19.571 2.524,19.315 2.330,18.817 2.165 C 18.354 2.011,17.775 1.963,17.311 2.041 M18.283 4.120 C 18.517 4.238,19.759 5.479,19.884 5.720 C 20.012 5.966,20.015 6.390,19.892 6.620 C 19.844 6.708,19.399 7.185,18.903 7.680 L 18.000 8.580 16.710 7.290 L 15.420 6.000 16.320 5.097 C 17.174 4.241,17.324 4.112,17.560 4.035 C 17.724 3.981,18.093 4.025,18.283 4.120 M15.300 8.720 L 16.580 10.000 12.766 13.814 C 10.276 16.304,8.881 17.671,8.746 17.752 C 7.412 18.557,5.721 17.330,6.045 15.792 C 6.157 15.256,5.989 15.442,10.135 11.290 C 12.249 9.172,13.988 7.440,14.000 7.440 C 14.011 7.440,14.596 8.016,15.300 8.720 " stroke="none" fill-rule="evenodd" fill="black"></path></svg>