<svg xmlns="http://www.w3.org/2000/svg" width="24" height="24" viewBox="0 0 24 24" fill="none" stroke="currentColor" stroke-width="2" stroke-linecap="round" stroke-linejoin="round"><path d="M2.670 2.061 C 2.448 2.142,2.250 2.309,2.128 2.516 C 2.037 2.672,2.020 2.746,2.020 3.000 C 2.020 3.254,2.036 3.327,2.127 3.480 C 2.187 3.580,3.310 4.733,4.656 6.079 L 7.078 8.498 5.286 10.299 C 4.279 11.311,3.398 12.231,3.274 12.400 C 2.390 13.608,1.983 15.028,2.112 16.450 C 2.244 17.897,2.827 19.151,3.838 20.162 C 4.620 20.945,5.477 21.434,6.565 21.720 C 8.284 22.171,10.120 21.809,11.600 20.726 C 11.769 20.602,12.689 19.721,13.701 18.714 L 15.502 16.922 17.921 19.344 C 19.267 20.690,20.420 21.813,20.520 21.873 C 20.673 21.964,20.746 21.980,21.000 21.980 C 21.257 21.980,21.327 21.964,21.492 21.867 C 21.968 21.587,22.139 20.967,21.865 20.508 C 21.810 20.416,17.665 16.243,12.653 11.235 C 4.231 2.820,3.525 2.125,3.343 2.065 C 3.107 1.987,2.874 1.986,2.670 2.061 M15.394 2.120 C 14.285 2.225,13.232 2.644,12.308 3.348 C 12.171 3.451,11.533 4.058,10.890 4.695 C 9.601 5.973,9.519 6.079,9.521 6.478 C 9.523 7.036,9.966 7.480,10.520 7.479 C 10.916 7.478,10.998 7.416,12.300 6.125 C 13.101 5.330,13.594 4.872,13.784 4.748 C 15.384 3.700,17.491 3.934,18.803 5.306 C 19.132 5.650,19.265 5.837,19.477 6.255 C 20.012 7.306,20.044 8.582,19.561 9.658 C 19.315 10.207,19.106 10.459,17.839 11.740 C 16.761 12.829,16.604 13.004,16.546 13.177 C 16.415 13.569,16.497 13.931,16.783 14.217 C 17.068 14.502,17.429 14.585,17.823 14.455 C 17.998 14.397,18.159 14.251,19.263 13.145 C 19.947 12.460,20.605 11.765,20.726 11.600 C 22.494 9.184,22.258 5.929,20.162 3.839 C 19.073 2.752,17.753 2.175,16.200 2.107 C 15.947 2.096,15.584 2.102,15.394 2.120 M9.446 11.179 C 9.344 11.250,9.206 11.394,9.140 11.500 C 9.034 11.671,9.020 11.729,9.021 11.997 C 9.022 12.228,9.042 12.338,9.107 12.460 C 9.362 12.937,9.936 13.132,10.420 12.906 C 10.628 12.809,10.852 12.590,10.901 12.438 C 10.926 12.358,10.960 12.381,11.281 12.701 L 11.633 13.051 11.446 13.179 C 11.344 13.250,11.206 13.394,11.140 13.500 C 11.034 13.671,11.020 13.729,11.021 13.997 C 11.022 14.451,11.203 14.737,11.600 14.917 C 12.061 15.125,12.659 14.918,12.886 14.470 L 12.942 14.361 13.511 14.931 L 14.081 15.502 12.290 17.287 C 10.942 18.631,10.428 19.118,10.207 19.260 C 8.441 20.393,6.167 20.007,4.900 18.360 C 4.036 17.236,3.853 15.648,4.439 14.342 C 4.702 13.757,4.864 13.569,6.716 11.710 L 8.498 9.919 9.065 10.485 L 9.632 11.051 9.446 11.179 " stroke="none" fill-rule="evenodd" fill="black"></path></svg>