<svg xmlns="http://www.w3.org/2000/svg" width="24" height="24" viewBox="0 0 24 24" fill="none" stroke="currentColor" stroke-width="2" stroke-linecap="round" stroke-linejoin="round"><path d="M5.499 3.043 C 4.383 3.230,3.461 4.048,3.114 5.160 C 3.027 5.438,3.020 5.527,3.020 6.383 L 3.020 7.306 3.141 7.503 C 3.543 8.156,4.457 8.156,4.859 7.503 L 4.980 7.306 5.002 6.523 C 5.027 5.636,5.050 5.547,5.321 5.283 C 5.592 5.021,5.716 5.000,7.037 4.998 C 8.266 4.996,8.356 4.984,8.619 4.783 C 8.696 4.725,8.808 4.592,8.869 4.489 C 8.964 4.328,8.980 4.256,8.980 4.000 C 8.980 3.746,8.963 3.672,8.872 3.516 C 8.813 3.415,8.698 3.282,8.618 3.221 C 8.350 3.016,8.216 3.000,6.904 3.005 C 6.242 3.007,5.609 3.025,5.499 3.043 M15.695 3.055 C 15.464 3.130,15.255 3.300,15.128 3.516 C 15.037 3.672,15.020 3.746,15.020 4.000 C 15.020 4.256,15.036 4.328,15.131 4.489 C 15.192 4.592,15.304 4.725,15.381 4.783 C 15.644 4.984,15.734 4.996,16.963 4.998 C 18.284 5.000,18.408 5.021,18.679 5.283 C 18.950 5.547,18.973 5.636,18.998 6.523 L 19.020 7.306 19.141 7.503 C 19.543 8.156,20.457 8.156,20.859 7.503 L 20.980 7.306 20.980 6.383 C 20.980 5.527,20.973 5.438,20.886 5.160 C 20.581 4.181,19.825 3.421,18.861 3.124 C 18.551 3.028,18.495 3.025,17.200 3.014 C 16.166 3.005,15.822 3.014,15.695 3.055 M4.695 10.057 C 4.466 10.129,4.256 10.299,4.128 10.516 L 4.020 10.700 4.008 11.908 C 4.000 12.666,4.011 13.174,4.038 13.272 C 4.099 13.498,4.288 13.738,4.508 13.867 L 4.700 13.980 5.500 13.980 L 6.300 13.980 6.492 13.867 C 6.712 13.738,6.901 13.498,6.962 13.272 C 6.989 13.174,7.000 12.666,6.992 11.908 L 6.980 10.700 6.872 10.516 C 6.740 10.293,6.533 10.128,6.290 10.055 C 6.050 9.983,4.928 9.984,4.695 10.057 M9.695 10.057 C 9.466 10.129,9.256 10.299,9.128 10.516 L 9.020 10.700 9.020 12.003 L 9.020 13.306 9.141 13.503 C 9.543 14.156,10.457 14.156,10.859 13.503 L 10.980 13.306 10.980 12.003 L 10.980 10.700 10.872 10.516 C 10.628 10.101,10.150 9.915,9.695 10.057 M13.695 10.057 C 13.466 10.129,13.256 10.299,13.128 10.516 L 13.020 10.700 13.008 11.908 C 13.000 12.666,13.011 13.174,13.038 13.272 C 13.099 13.498,13.288 13.738,13.508 13.867 L 13.700 13.980 14.500 13.980 L 15.300 13.980 15.492 13.867 C 15.712 13.738,15.901 13.498,15.962 13.272 C 15.989 13.174,16.000 12.666,15.992 11.908 L 15.980 10.700 15.872 10.516 C 15.740 10.293,15.533 10.128,15.290 10.055 C 15.050 9.983,13.928 9.984,13.695 10.057 M18.695 10.057 C 18.466 10.129,18.256 10.299,18.128 10.516 L 18.020 10.700 18.020 12.003 L 18.020 13.306 18.141 13.503 C 18.543 14.156,19.457 14.156,19.859 13.503 L 19.980 13.306 19.980 12.003 L 19.980 10.700 19.872 10.516 C 19.628 10.101,19.150 9.915,18.695 10.057 M3.695 16.057 C 3.466 16.129,3.256 16.299,3.128 16.516 L 3.020 16.700 3.020 17.620 C 3.020 18.473,3.027 18.562,3.114 18.840 C 3.419 19.817,4.158 20.563,5.140 20.884 C 5.404 20.970,5.495 20.976,6.764 20.991 C 7.647 21.001,8.163 20.992,8.268 20.963 C 8.498 20.901,8.737 20.713,8.867 20.492 C 8.964 20.327,8.980 20.257,8.980 20.000 C 8.980 19.746,8.963 19.672,8.872 19.516 C 8.761 19.327,8.569 19.156,8.373 19.071 C 8.296 19.038,7.854 19.016,6.980 19.001 L 5.700 18.980 5.516 18.872 C 5.326 18.760,5.155 18.568,5.072 18.373 C 5.043 18.305,5.015 17.947,5.002 17.480 C 4.981 16.724,4.977 16.694,4.872 16.516 C 4.628 16.101,4.150 15.915,3.695 16.057 M19.695 16.057 C 19.466 16.129,19.256 16.299,19.128 16.516 C 19.023 16.694,19.019 16.724,18.997 17.480 C 18.984 17.934,18.955 18.307,18.927 18.373 C 18.846 18.567,18.675 18.760,18.484 18.872 L 18.300 18.980 17.020 19.001 C 16.146 19.016,15.704 19.038,15.627 19.071 C 15.431 19.156,15.239 19.327,15.128 19.516 C 15.037 19.672,15.020 19.746,15.020 20.000 C 15.020 20.257,15.036 20.327,15.133 20.492 C 15.263 20.713,15.502 20.901,15.732 20.963 C 15.837 20.992,16.353 21.001,17.236 20.991 C 18.505 20.976,18.596 20.970,18.860 20.884 C 19.842 20.563,20.581 19.817,20.886 18.840 C 20.973 18.562,20.980 18.473,20.980 17.620 L 20.980 16.700 20.872 16.516 C 20.628 16.101,20.150 15.915,19.695 16.057 " stroke="none" fill-rule="evenodd" fill="black"></path></svg>