<svg xmlns="http://www.w3.org/2000/svg" width="24" height="24" viewBox="0 0 24 24" fill="none" stroke="currentColor" stroke-width="2" stroke-linecap="round" stroke-linejoin="round"><path d="M2.670 2.061 C 2.448 2.142,2.250 2.309,2.128 2.516 C 2.036 2.672,2.020 2.745,2.021 3.000 C 2.021 3.214,2.043 3.340,2.096 3.440 C 2.137 3.517,2.418 3.832,2.722 4.140 L 3.273 4.700 3.148 5.060 L 3.022 5.420 3.021 6.363 L 3.020 7.306 3.141 7.503 C 3.543 8.156,4.457 8.156,4.858 7.504 C 4.970 7.323,4.980 7.274,4.994 6.869 L 5.009 6.429 7.059 8.479 L 9.108 10.528 9.052 10.691 C 9.007 10.820,8.998 11.107,9.008 12.080 L 9.020 13.306 9.141 13.503 C 9.543 14.155,10.457 14.156,10.857 13.505 C 10.966 13.329,10.979 13.269,10.999 12.875 L 11.020 12.439 14.300 15.720 L 17.580 19.000 16.736 19.000 C 15.812 19.000,15.634 19.029,15.382 19.221 C 15.302 19.282,15.187 19.415,15.128 19.516 C 15.037 19.672,15.020 19.746,15.020 20.000 C 15.020 20.257,15.036 20.327,15.133 20.492 C 15.263 20.713,15.502 20.901,15.732 20.963 C 15.837 20.991,16.357 21.001,17.236 20.992 L 18.580 20.978 18.940 20.852 L 19.300 20.727 19.860 21.278 C 20.168 21.582,20.483 21.863,20.560 21.904 C 20.660 21.957,20.786 21.979,21.000 21.979 C 21.258 21.980,21.327 21.964,21.492 21.867 C 21.968 21.587,22.139 20.967,21.865 20.508 C 21.810 20.416,17.665 16.243,12.653 11.235 C 4.231 2.820,3.525 2.125,3.343 2.065 C 3.107 1.987,2.874 1.986,2.670 2.061 M15.695 3.055 C 15.464 3.130,15.255 3.300,15.128 3.516 C 15.037 3.672,15.020 3.746,15.020 4.000 C 15.020 4.256,15.036 4.328,15.131 4.489 C 15.192 4.592,15.304 4.725,15.381 4.783 C 15.644 4.984,15.734 4.996,16.963 4.998 C 18.284 5.000,18.408 5.021,18.679 5.283 C 18.950 5.547,18.973 5.636,18.998 6.523 L 19.020 7.306 19.141 7.503 C 19.543 8.156,20.457 8.156,20.859 7.503 L 20.980 7.306 20.980 6.383 C 20.980 5.527,20.973 5.438,20.886 5.160 C 20.581 4.181,19.825 3.421,18.861 3.124 C 18.551 3.028,18.495 3.025,17.200 3.014 C 16.166 3.005,15.822 3.014,15.695 3.055 M4.695 10.057 C 4.466 10.129,4.256 10.299,4.128 10.516 L 4.020 10.700 4.008 11.908 C 4.000 12.666,4.011 13.174,4.038 13.272 C 4.099 13.498,4.288 13.738,4.508 13.867 L 4.700 13.980 5.500 13.980 L 6.300 13.980 6.492 13.867 C 6.712 13.738,6.901 13.498,6.962 13.272 C 6.989 13.174,7.000 12.666,6.992 11.908 L 6.980 10.700 6.872 10.516 C 6.740 10.293,6.533 10.128,6.290 10.055 C 6.050 9.983,4.928 9.984,4.695 10.057 M14.695 10.057 C 14.466 10.129,14.256 10.299,14.128 10.516 C 14.036 10.672,14.020 10.745,14.021 11.000 C 14.022 11.332,14.101 11.533,14.306 11.728 C 14.785 12.181,15.580 12.046,15.893 11.460 C 16.025 11.211,16.015 10.760,15.872 10.516 C 15.628 10.101,15.150 9.915,14.695 10.057 M18.695 10.057 C 18.466 10.129,18.256 10.299,18.128 10.516 L 18.020 10.700 18.020 12.003 L 18.020 13.306 18.141 13.503 C 18.543 14.156,19.457 14.156,19.859 13.503 L 19.980 13.306 19.980 12.003 L 19.980 10.700 19.872 10.516 C 19.628 10.101,19.150 9.915,18.695 10.057 M3.695 16.057 C 3.466 16.129,3.256 16.299,3.128 16.516 L 3.020 16.700 3.020 17.620 C 3.020 18.473,3.027 18.562,3.114 18.840 C 3.419 19.817,4.158 20.563,5.140 20.884 C 5.404 20.970,5.495 20.976,6.764 20.991 C 7.647 21.001,8.163 20.992,8.268 20.963 C 8.498 20.901,8.737 20.713,8.867 20.492 C 8.964 20.327,8.980 20.257,8.980 20.000 C 8.980 19.746,8.963 19.672,8.872 19.516 C 8.761 19.327,8.569 19.156,8.373 19.071 C 8.296 19.038,7.854 19.016,6.980 19.001 L 5.700 18.980 5.516 18.872 C 5.326 18.760,5.155 18.568,5.072 18.373 C 5.043 18.305,5.015 17.947,5.002 17.480 C 4.981 16.724,4.977 16.694,4.872 16.516 C 4.628 16.101,4.150 15.915,3.695 16.057 " stroke="none" fill-rule="evenodd" fill="black"></path></svg>