<svg xmlns="http://www.w3.org/2000/svg" width="24" height="24" viewBox="0 0 24 24" fill="none" stroke="currentColor" stroke-width="2" stroke-linecap="round" stroke-linejoin="round"><path d="M2.670 2.061 C 2.448 2.142,2.250 2.309,2.128 2.516 C 2.036 2.672,2.020 2.745,2.021 3.000 C 2.021 3.213,2.043 3.341,2.095 3.440 C 2.136 3.517,2.718 4.132,3.389 4.806 L 4.610 6.031 4.393 6.094 C 3.952 6.223,3.432 6.661,3.216 7.088 C 2.995 7.523,3.000 7.428,3.000 11.500 C 3.000 15.593,2.994 15.474,3.225 15.930 C 3.361 16.199,3.801 16.639,4.070 16.775 C 4.428 16.956,4.679 17.000,5.368 17.000 L 6.000 17.000 6.000 18.000 L 6.000 19.000 5.446 19.000 C 4.648 19.000,4.367 19.110,4.128 19.516 C 4.037 19.672,4.020 19.746,4.020 20.000 C 4.020 20.256,4.036 20.328,4.131 20.489 C 4.256 20.702,4.449 20.864,4.670 20.943 C 4.889 21.021,9.111 21.021,9.330 20.943 C 9.551 20.864,9.744 20.702,9.869 20.489 C 9.964 20.328,9.980 20.256,9.980 20.000 C 9.980 19.746,9.963 19.672,9.872 19.516 C 9.633 19.110,9.352 19.000,8.554 19.000 L 8.000 19.000 8.000 18.000 L 8.000 17.000 11.791 17.000 L 15.583 17.000 15.791 17.211 L 16.000 17.423 16.000 18.211 L 16.000 19.000 15.446 19.000 C 14.648 19.000,14.367 19.110,14.128 19.516 C 14.037 19.672,14.020 19.746,14.020 20.000 C 14.020 20.256,14.036 20.328,14.131 20.489 C 14.256 20.702,14.449 20.864,14.670 20.943 C 14.886 21.020,19.111 21.021,19.327 20.944 L 19.473 20.892 19.907 21.329 C 20.406 21.833,20.592 21.957,20.888 21.987 C 21.295 22.029,21.660 21.844,21.867 21.492 C 21.964 21.327,21.980 21.257,21.980 21.000 C 21.980 20.746,21.964 20.672,21.873 20.520 C 21.809 20.414,18.015 16.593,12.653 11.235 C 4.231 2.820,3.525 2.125,3.343 2.065 C 3.107 1.987,2.874 1.986,2.670 2.061 M16.695 4.057 C 16.466 4.129,16.256 4.299,16.128 4.516 C 16.025 4.692,16.019 4.728,16.007 5.350 L 15.993 6.000 13.443 6.000 C 10.676 6.000,10.672 6.000,10.382 6.221 C 10.302 6.282,10.187 6.415,10.128 6.516 C 10.037 6.672,10.020 6.746,10.020 7.000 C 10.020 7.256,10.036 7.328,10.131 7.489 C 10.192 7.592,10.304 7.725,10.381 7.783 C 10.655 7.992,10.696 7.996,12.460 7.998 L 14.099 8.000 13.491 8.610 C 12.837 9.266,12.760 9.384,12.760 9.729 C 12.761 10.037,12.821 10.207,13.002 10.413 C 13.298 10.749,13.797 10.848,14.185 10.646 C 14.271 10.601,14.911 9.993,15.620 9.283 L 16.900 8.000 17.950 8.000 L 19.000 8.000 19.000 8.550 L 19.000 9.100 17.456 10.640 C 16.331 11.762,15.890 12.227,15.832 12.355 C 15.733 12.571,15.727 12.923,15.818 13.142 C 15.963 13.490,16.366 13.760,16.740 13.759 C 17.101 13.758,17.233 13.664,18.150 12.749 L 19.000 11.901 19.000 13.464 C 19.000 14.961,18.997 15.031,18.922 15.098 C 18.818 15.192,18.720 15.493,18.720 15.717 C 18.721 16.070,18.998 16.480,19.329 16.618 C 19.502 16.690,19.832 16.698,20.057 16.636 C 20.411 16.538,20.861 15.924,20.959 15.404 C 20.985 15.268,21.000 13.840,20.999 11.485 C 20.999 7.473,21.001 7.516,20.781 7.083 C 20.646 6.816,20.297 6.449,20.017 6.281 C 19.658 6.065,19.360 6.005,18.633 6.002 L 18.007 6.000 17.993 5.350 C 17.981 4.728,17.975 4.692,17.872 4.516 C 17.628 4.101,17.150 3.915,16.695 4.057 M6.960 8.380 L 7.339 8.761 6.170 9.930 L 5.000 11.100 5.000 9.550 L 5.000 8.000 5.791 8.000 L 6.582 8.000 6.960 8.380 M8.720 13.380 L 7.100 15.000 6.050 15.000 L 5.000 15.000 5.000 14.450 L 5.000 13.900 6.870 12.030 L 8.740 10.160 9.540 10.960 L 10.340 11.760 8.720 13.380 M13.221 14.879 L 13.105 15.000 11.503 15.000 L 9.901 15.000 10.820 14.080 L 11.740 13.160 12.538 13.959 L 13.337 14.758 13.221 14.879 " stroke="none" fill-rule="evenodd" fill="black"></path></svg>