<svg xmlns="http://www.w3.org/2000/svg" width="24" height="24" viewBox="0 0 24 24" fill="none" stroke="currentColor" stroke-width="2" stroke-linecap="round" stroke-linejoin="round"><path d="M6.695 4.057 C 6.466 4.129,6.256 4.299,6.128 4.516 C 6.025 4.692,6.019 4.728,6.007 5.350 L 5.993 6.000 5.367 6.002 C 4.909 6.004,4.669 6.023,4.477 6.073 C 3.806 6.249,3.238 6.823,3.060 7.508 C 2.970 7.851,2.970 15.149,3.060 15.492 C 3.153 15.852,3.310 16.118,3.596 16.404 C 4.073 16.881,4.426 17.000,5.368 17.000 L 6.000 17.000 6.000 18.000 L 6.000 19.000 5.446 19.000 C 4.648 19.000,4.367 19.110,4.128 19.516 C 4.037 19.672,4.020 19.746,4.020 20.000 C 4.020 20.256,4.036 20.328,4.131 20.489 C 4.256 20.702,4.449 20.864,4.670 20.943 C 4.889 21.021,9.111 21.021,9.330 20.943 C 9.551 20.864,9.744 20.702,9.869 20.489 C 9.964 20.328,9.980 20.256,9.980 20.000 C 9.980 19.746,9.963 19.672,9.872 19.516 C 9.633 19.110,9.352 19.000,8.554 19.000 L 8.000 19.000 8.000 18.000 L 8.000 17.000 12.000 17.000 L 16.000 17.000 16.000 18.000 L 16.000 19.000 15.446 19.000 C 14.648 19.000,14.367 19.110,14.128 19.516 C 14.037 19.672,14.020 19.746,14.020 20.000 C 14.020 20.256,14.036 20.328,14.131 20.489 C 14.256 20.702,14.449 20.864,14.670 20.943 C 14.889 21.021,19.111 21.021,19.330 20.943 C 19.551 20.864,19.744 20.702,19.869 20.489 C 19.964 20.328,19.980 20.256,19.980 20.000 C 19.980 19.746,19.963 19.672,19.872 19.516 C 19.633 19.110,19.352 19.000,18.554 19.000 L 18.000 19.000 18.000 18.000 L 18.000 17.000 18.632 17.000 C 19.574 17.000,19.927 16.881,20.404 16.404 C 20.694 16.114,20.841 15.863,20.937 15.491 C 21.029 15.137,21.031 7.917,20.940 7.529 C 20.858 7.182,20.720 6.927,20.465 6.653 C 19.998 6.151,19.590 6.006,18.633 6.002 L 18.007 6.000 17.993 5.350 C 17.981 4.726,17.976 4.693,17.871 4.514 C 17.479 3.848,16.521 3.848,16.129 4.514 C 16.024 4.693,16.019 4.726,16.007 5.350 L 15.993 6.000 12.000 6.000 L 8.007 6.000 7.993 5.350 C 7.981 4.728,7.975 4.692,7.872 4.516 C 7.628 4.101,7.150 3.915,6.695 4.057 M8.080 8.010 C 8.080 8.016,7.387 8.713,6.540 9.560 L 5.000 11.100 5.000 9.550 L 5.000 8.000 6.540 8.000 C 7.387 8.000,8.080 8.005,8.080 8.010 M10.600 11.500 L 7.100 15.000 6.050 15.000 L 5.000 15.000 5.000 14.450 L 5.000 13.900 7.950 10.950 L 10.900 8.000 12.500 8.000 L 14.100 8.000 10.600 11.500 M19.000 8.550 L 19.000 9.100 16.050 12.050 L 13.100 15.000 11.500 15.000 L 9.900 15.000 13.400 11.500 L 16.900 8.000 17.950 8.000 L 19.000 8.000 19.000 8.550 M19.000 13.460 L 19.000 15.000 17.450 15.000 L 15.900 15.000 17.440 13.460 C 18.287 12.613,18.984 11.920,18.990 11.920 C 18.995 11.920,19.000 12.613,19.000 13.460 " stroke="none" fill-rule="evenodd" fill="black"></path></svg>