<svg xmlns="http://www.w3.org/2000/svg" width="24" height="24" viewBox="0 0 24 24" fill="none" stroke="currentColor" stroke-width="2" stroke-linecap="round" stroke-linejoin="round"><path d="M8.667 3.065 C 8.543 3.103,8.412 3.186,8.303 3.295 C 8.106 3.492,8.108 3.486,7.417 5.567 L 6.943 6.994 5.721 7.010 C 4.375 7.027,4.276 7.042,3.730 7.299 C 3.346 7.480,3.148 7.620,2.862 7.915 C 2.529 8.256,2.314 8.609,2.159 9.067 C 2.037 9.427,2.026 9.501,2.024 9.960 C 2.023 10.432,2.059 10.664,2.673 14.140 C 3.329 17.851,3.379 18.106,3.548 18.538 C 3.919 19.493,4.860 20.394,5.866 20.758 C 6.500 20.987,6.673 21.000,9.035 20.998 C 10.722 20.997,11.212 20.985,11.330 20.943 C 11.551 20.864,11.744 20.702,11.869 20.489 C 11.964 20.328,11.980 20.256,11.980 20.000 C 11.980 19.746,11.963 19.672,11.872 19.516 C 11.761 19.327,11.571 19.158,11.373 19.070 C 11.289 19.033,10.684 19.015,9.040 18.999 C 6.837 18.977,6.818 18.976,6.565 18.883 C 5.981 18.668,5.482 18.123,5.322 17.526 C 5.261 17.298,4.000 10.084,4.000 9.962 C 4.000 9.759,4.126 9.481,4.300 9.302 C 4.551 9.044,4.737 9.000,5.583 9.000 L 6.272 9.000 6.136 9.419 C 6.061 9.649,6.000 9.907,6.000 9.992 C 6.000 10.739,6.796 11.220,7.465 10.876 C 7.770 10.719,7.865 10.560,8.141 9.752 L 8.390 9.020 12.000 9.020 L 15.610 9.020 15.859 9.752 C 16.135 10.560,16.230 10.719,16.535 10.876 C 17.204 11.220,18.000 10.739,18.000 9.992 C 18.000 9.907,17.938 9.648,17.863 9.416 L 17.726 8.994 18.493 9.007 C 19.203 9.019,19.274 9.027,19.451 9.114 C 19.698 9.236,19.901 9.500,19.964 9.782 C 20.009 9.985,19.996 10.092,19.762 11.429 C 19.624 12.216,19.511 12.943,19.511 13.044 C 19.511 13.372,19.749 13.749,20.056 13.908 C 20.244 14.005,20.647 14.023,20.855 13.944 C 21.074 13.860,21.308 13.637,21.404 13.421 C 21.444 13.330,21.597 12.572,21.743 11.738 C 21.982 10.372,22.007 10.182,21.989 9.840 C 21.951 9.120,21.650 8.440,21.138 7.915 C 20.852 7.620,20.654 7.480,20.270 7.299 C 19.724 7.042,19.625 7.027,18.279 7.010 L 17.058 6.994 16.484 5.273 C 15.858 3.399,15.816 3.310,15.476 3.133 C 14.795 2.779,14.000 3.254,14.000 4.014 C 14.000 4.111,14.182 4.720,14.460 5.558 C 14.713 6.320,14.920 6.956,14.920 6.972 C 14.920 6.987,13.606 7.000,12.000 7.000 C 10.394 7.000,9.080 6.987,9.080 6.972 C 9.080 6.956,9.287 6.320,9.540 5.558 C 9.818 4.720,10.000 4.111,10.000 4.014 C 10.000 3.604,9.715 3.194,9.340 3.066 C 9.106 2.986,8.924 2.986,8.667 3.065 M11.499 11.040 C 10.363 11.246,9.460 12.049,9.114 13.160 C 8.979 13.594,8.979 14.406,9.114 14.840 C 9.421 15.826,10.174 16.579,11.160 16.886 C 11.594 17.021,12.406 17.021,12.840 16.886 C 13.826 16.579,14.579 15.826,14.886 14.840 C 15.021 14.406,15.021 13.594,14.886 13.160 C 14.581 12.179,13.810 11.407,12.861 11.129 C 12.500 11.023,11.832 10.980,11.499 11.040 M12.310 13.061 C 12.688 13.173,13.000 13.598,13.000 14.001 C 13.000 14.331,12.784 14.696,12.484 14.872 C 12.328 14.963,12.254 14.980,12.000 14.980 C 11.746 14.980,11.672 14.963,11.516 14.872 C 10.935 14.530,10.833 13.774,11.304 13.303 C 11.583 13.024,11.916 12.944,12.310 13.061 M16.640 16.069 C 16.492 16.121,16.265 16.325,15.347 17.236 C 14.734 17.843,14.185 18.421,14.127 18.520 C 14.037 18.672,14.020 18.747,14.020 19.000 C 14.020 19.254,14.036 19.328,14.127 19.480 C 14.260 19.703,16.367 21.803,16.560 21.905 C 16.659 21.957,16.787 21.979,17.000 21.979 C 17.258 21.980,17.327 21.964,17.492 21.867 C 17.714 21.737,17.901 21.498,17.965 21.264 C 18.019 21.061,17.989 20.733,17.899 20.555 C 17.861 20.481,17.514 20.101,17.127 19.710 L 16.423 19.000 17.127 18.290 C 17.514 17.899,17.864 17.517,17.904 17.440 C 17.957 17.340,17.979 17.213,17.979 17.000 C 17.980 16.745,17.964 16.672,17.872 16.516 C 17.617 16.083,17.120 15.902,16.640 16.069 M19.670 16.061 C 19.448 16.142,19.250 16.309,19.128 16.516 C 19.036 16.672,19.020 16.745,19.021 17.000 C 19.021 17.213,19.043 17.340,19.096 17.440 C 19.136 17.517,19.486 17.899,19.873 18.290 L 20.577 19.000 19.873 19.710 C 19.486 20.101,19.139 20.481,19.101 20.555 C 18.872 21.008,19.056 21.601,19.508 21.867 C 19.673 21.964,19.742 21.980,20.000 21.979 C 20.213 21.979,20.341 21.957,20.440 21.905 C 20.633 21.803,22.740 19.703,22.873 19.480 C 22.964 19.328,22.980 19.254,22.980 19.000 C 22.980 18.747,22.963 18.672,22.873 18.520 C 22.815 18.421,22.266 17.843,21.653 17.236 C 20.680 16.271,20.515 16.124,20.343 16.066 C 20.108 15.987,19.875 15.985,19.670 16.061 " stroke="none" fill-rule="evenodd" fill="black"></path></svg>