<svg xmlns="http://www.w3.org/2000/svg" width="24" height="24" viewBox="0 0 24 24" fill="none" stroke="currentColor" stroke-width="2" stroke-linecap="round" stroke-linejoin="round"><path d="M8.667 3.065 C 8.543 3.103,8.412 3.186,8.303 3.295 C 8.106 3.492,8.108 3.486,7.417 5.567 L 6.943 6.994 5.721 7.010 C 4.375 7.027,4.276 7.042,3.730 7.299 C 3.346 7.480,3.148 7.620,2.862 7.915 C 2.529 8.256,2.314 8.609,2.159 9.067 C 2.037 9.427,2.026 9.501,2.024 9.960 C 2.023 10.432,2.059 10.664,2.673 14.140 C 3.329 17.851,3.379 18.106,3.548 18.538 C 3.919 19.493,4.860 20.394,5.866 20.758 C 6.516 20.993,6.627 21.000,9.535 20.998 C 11.640 20.997,12.211 20.986,12.330 20.943 C 12.551 20.864,12.744 20.702,12.869 20.489 C 12.964 20.328,12.980 20.256,12.980 20.000 C 12.980 19.746,12.963 19.672,12.872 19.516 C 12.761 19.328,12.572 19.158,12.373 19.070 C 12.288 19.032,11.592 19.015,9.540 18.999 L 6.820 18.978 6.565 18.884 C 5.981 18.667,5.482 18.122,5.322 17.526 C 5.261 17.298,4.000 10.084,4.000 9.962 C 4.000 9.759,4.126 9.481,4.300 9.302 C 4.551 9.044,4.737 9.000,5.583 9.000 L 6.272 9.000 6.136 9.419 C 6.061 9.649,6.000 9.907,6.000 9.992 C 6.000 10.739,6.796 11.220,7.465 10.876 C 7.770 10.719,7.865 10.560,8.141 9.752 L 8.390 9.020 12.000 9.020 L 15.610 9.020 15.859 9.752 C 16.135 10.560,16.230 10.719,16.535 10.876 C 17.204 11.220,18.000 10.739,18.000 9.992 C 18.000 9.907,17.938 9.648,17.863 9.416 L 17.726 8.994 18.493 9.007 C 19.203 9.019,19.274 9.027,19.451 9.114 C 19.698 9.236,19.901 9.500,19.964 9.782 C 20.008 9.980,19.999 10.075,19.866 10.831 C 19.786 11.289,19.720 11.748,19.720 11.853 C 19.720 12.327,20.089 12.730,20.607 12.822 C 20.964 12.885,21.450 12.607,21.609 12.249 C 21.650 12.155,21.757 11.660,21.846 11.149 C 21.984 10.360,22.005 10.163,21.988 9.840 C 21.951 9.121,21.650 8.441,21.138 7.915 C 20.852 7.620,20.654 7.480,20.270 7.299 C 19.724 7.042,19.625 7.027,18.279 7.010 L 17.058 6.994 16.484 5.273 C 15.858 3.399,15.816 3.310,15.476 3.133 C 14.795 2.779,14.000 3.254,14.000 4.014 C 14.000 4.111,14.182 4.720,14.460 5.558 C 14.713 6.320,14.920 6.956,14.920 6.972 C 14.920 6.987,13.606 7.000,12.000 7.000 C 10.394 7.000,9.080 6.987,9.080 6.972 C 9.080 6.956,9.287 6.320,9.540 5.558 C 9.818 4.720,10.000 4.111,10.000 4.014 C 10.000 3.604,9.715 3.194,9.340 3.066 C 9.106 2.986,8.924 2.986,8.667 3.065 M11.499 11.040 C 10.363 11.246,9.460 12.049,9.114 13.160 C 8.979 13.594,8.979 14.406,9.114 14.840 C 9.421 15.826,10.174 16.579,11.160 16.886 C 11.594 17.021,12.406 17.021,12.840 16.886 C 13.826 16.579,14.579 15.826,14.886 14.840 C 15.021 14.406,15.021 13.594,14.886 13.160 C 14.581 12.179,13.810 11.407,12.861 11.129 C 12.500 11.023,11.832 10.980,11.499 11.040 M12.310 13.061 C 12.688 13.173,13.000 13.598,13.000 14.001 C 13.000 14.331,12.784 14.696,12.484 14.872 C 12.328 14.963,12.254 14.980,12.000 14.980 C 11.746 14.980,11.672 14.963,11.516 14.872 C 10.935 14.530,10.833 13.774,11.304 13.303 C 11.583 13.024,11.916 12.944,12.310 13.061 M18.617 14.577 C 18.415 14.665,18.193 14.886,18.094 15.100 C 18.015 15.270,18.001 15.364,18.000 15.724 L 18.000 16.148 17.708 16.292 C 17.548 16.371,17.334 16.499,17.233 16.576 L 17.050 16.716 16.664 16.503 C 16.211 16.253,15.998 16.209,15.686 16.302 C 15.161 16.458,14.862 17.002,15.014 17.526 C 15.098 17.815,15.269 17.998,15.677 18.238 L 16.014 18.436 16.017 19.002 L 16.020 19.567 15.649 19.786 C 15.230 20.032,15.075 20.208,14.999 20.524 C 14.876 21.035,15.183 21.552,15.700 21.702 C 16.043 21.802,16.254 21.745,16.876 21.388 L 17.053 21.286 17.235 21.425 C 17.335 21.501,17.548 21.629,17.708 21.708 L 18.000 21.852 18.000 22.276 C 18.001 22.638,18.015 22.729,18.095 22.900 C 18.276 23.281,18.595 23.488,19.000 23.488 C 19.405 23.488,19.724 23.281,19.905 22.900 C 19.986 22.729,19.999 22.639,20.000 22.274 L 20.000 21.848 20.269 21.721 C 20.418 21.652,20.633 21.524,20.749 21.437 L 20.959 21.278 21.120 21.380 C 21.666 21.725,21.988 21.810,22.323 21.699 C 22.828 21.531,23.121 21.024,23.001 20.524 C 22.926 20.210,22.771 20.034,22.352 19.784 L 21.980 19.562 21.983 18.999 L 21.986 18.436 22.323 18.238 C 22.731 17.998,22.902 17.815,22.986 17.526 C 23.138 17.002,22.839 16.458,22.314 16.302 C 22.002 16.209,21.789 16.253,21.336 16.503 L 20.950 16.716 20.767 16.576 C 20.666 16.499,20.452 16.371,20.292 16.292 L 20.000 16.148 20.000 15.724 C 19.999 15.362,19.985 15.271,19.905 15.100 C 19.793 14.865,19.599 14.669,19.391 14.582 C 19.210 14.506,18.785 14.503,18.617 14.577 M19.260 18.044 C 19.497 18.107,19.701 18.263,19.849 18.494 C 19.968 18.679,19.980 18.727,19.980 19.003 C 19.980 19.287,19.970 19.322,19.831 19.531 C 19.613 19.859,19.389 19.980,19.000 19.979 C 18.665 19.978,18.526 19.923,18.308 19.705 C 18.104 19.501,18.022 19.300,18.022 19.000 C 18.022 18.334,18.621 17.871,19.260 18.044 " stroke="none" fill-rule="evenodd" fill="black"></path></svg>