<svg xmlns="http://www.w3.org/2000/svg" width="24" height="24" viewBox="0 0 24 24" fill="none" stroke="currentColor" stroke-width="2" stroke-linecap="round" stroke-linejoin="round"><path d="M8.667 3.065 C 8.543 3.103,8.412 3.186,8.303 3.295 C 8.106 3.492,8.108 3.486,7.417 5.567 L 6.943 6.994 5.721 7.010 C 4.375 7.027,4.276 7.042,3.730 7.299 C 3.346 7.480,3.148 7.620,2.862 7.915 C 2.529 8.256,2.314 8.609,2.159 9.067 C 2.037 9.427,2.026 9.501,2.024 9.960 C 2.023 10.432,2.059 10.664,2.673 14.140 C 3.329 17.851,3.379 18.106,3.548 18.538 C 3.919 19.493,4.860 20.394,5.866 20.758 C 6.544 21.003,6.483 21.000,11.035 20.998 C 14.393 20.997,15.208 20.986,15.330 20.943 C 15.551 20.864,15.744 20.702,15.869 20.489 C 15.964 20.328,15.980 20.256,15.980 20.000 C 15.980 19.746,15.963 19.672,15.872 19.516 C 15.761 19.328,15.572 19.158,15.373 19.070 C 15.286 19.031,14.295 19.015,11.040 19.000 L 6.820 18.979 6.565 18.884 C 5.979 18.666,5.481 18.122,5.322 17.526 C 5.261 17.298,4.000 10.084,4.000 9.962 C 4.000 9.759,4.126 9.481,4.300 9.302 C 4.551 9.044,4.737 9.000,5.583 9.000 L 6.272 9.000 6.136 9.419 C 6.061 9.649,6.000 9.907,6.000 9.992 C 6.000 10.739,6.796 11.220,7.465 10.876 C 7.770 10.719,7.865 10.560,8.141 9.752 L 8.390 9.020 12.000 9.020 L 15.610 9.020 15.859 9.752 C 16.135 10.560,16.230 10.719,16.535 10.876 C 17.204 11.220,18.000 10.739,18.000 9.992 C 18.000 9.907,17.938 9.648,17.863 9.416 L 17.726 8.994 18.493 9.007 C 19.203 9.019,19.274 9.027,19.451 9.114 C 19.698 9.236,19.901 9.500,19.964 9.782 C 20.009 9.982,19.998 10.082,19.820 11.089 C 19.714 11.689,19.627 12.261,19.627 12.360 C 19.624 13.056,20.359 13.552,20.991 13.280 C 21.240 13.173,21.497 12.907,21.557 12.694 C 21.581 12.609,21.693 12.018,21.805 11.380 C 21.984 10.362,22.006 10.173,21.989 9.840 C 21.951 9.121,21.650 8.440,21.138 7.915 C 20.852 7.620,20.654 7.480,20.270 7.299 C 19.724 7.042,19.625 7.027,18.279 7.010 L 17.058 6.994 16.484 5.273 C 15.858 3.399,15.816 3.310,15.476 3.133 C 14.795 2.779,14.000 3.254,14.000 4.014 C 14.000 4.111,14.182 4.720,14.460 5.558 C 14.713 6.320,14.920 6.956,14.920 6.972 C 14.920 6.987,13.606 7.000,12.000 7.000 C 10.394 7.000,9.080 6.987,9.080 6.972 C 9.080 6.956,9.287 6.320,9.540 5.558 C 9.818 4.720,10.000 4.111,10.000 4.014 C 10.000 3.604,9.715 3.194,9.340 3.066 C 9.106 2.986,8.924 2.986,8.667 3.065 M11.499 11.040 C 10.363 11.246,9.460 12.049,9.114 13.160 C 8.979 13.594,8.979 14.406,9.114 14.840 C 9.421 15.826,10.174 16.579,11.160 16.886 C 11.594 17.021,12.406 17.021,12.840 16.886 C 13.826 16.579,14.579 15.826,14.886 14.840 C 15.021 14.406,15.021 13.594,14.886 13.160 C 14.581 12.179,13.810 11.407,12.861 11.129 C 12.500 11.023,11.832 10.980,11.499 11.040 M12.310 13.061 C 12.688 13.173,13.000 13.598,13.000 14.001 C 13.000 14.331,12.784 14.696,12.484 14.872 C 12.328 14.963,12.254 14.980,12.000 14.980 C 11.746 14.980,11.672 14.963,11.516 14.872 C 10.935 14.530,10.833 13.774,11.304 13.303 C 11.583 13.024,11.916 12.944,12.310 13.061 M18.695 15.057 C 18.466 15.129,18.256 15.299,18.128 15.516 L 18.020 15.700 18.020 17.503 L 18.020 19.306 18.141 19.503 C 18.543 20.156,19.457 20.156,19.859 19.503 L 19.980 19.306 19.980 17.503 L 19.980 15.700 19.872 15.516 C 19.628 15.101,19.150 14.915,18.695 15.057 M18.695 21.057 C 18.466 21.129,18.256 21.299,18.128 21.516 C 18.036 21.672,18.020 21.745,18.021 22.000 C 18.022 22.332,18.101 22.533,18.306 22.728 C 18.785 23.181,19.580 23.046,19.893 22.460 C 20.025 22.211,20.015 21.760,19.872 21.516 C 19.628 21.101,19.150 20.915,18.695 21.057 " stroke="none" fill-rule="evenodd" fill="black"></path></svg>