<svg xmlns="http://www.w3.org/2000/svg" width="24" height="24" viewBox="0 0 24 24" fill="none" stroke="currentColor" stroke-width="2" stroke-linecap="round" stroke-linejoin="round"><path d="M8.667 3.065 C 8.543 3.103,8.412 3.186,8.303 3.295 C 8.106 3.492,8.108 3.486,7.417 5.567 L 6.943 6.994 5.721 7.010 C 4.375 7.027,4.276 7.042,3.730 7.299 C 3.346 7.480,3.148 7.620,2.862 7.915 C 2.529 8.256,2.314 8.609,2.159 9.067 C 2.037 9.427,2.026 9.501,2.024 9.960 C 2.023 10.432,2.059 10.664,2.673 14.140 C 3.329 17.851,3.379 18.106,3.548 18.538 C 3.919 19.493,4.860 20.394,5.866 20.758 C 6.516 20.993,6.627 21.000,9.535 20.998 C 11.640 20.997,12.211 20.986,12.330 20.943 C 12.551 20.864,12.744 20.702,12.869 20.489 C 12.964 20.328,12.980 20.256,12.980 20.000 C 12.980 19.746,12.963 19.672,12.872 19.516 C 12.761 19.328,12.572 19.158,12.373 19.070 C 12.288 19.032,11.592 19.015,9.540 18.999 L 6.820 18.978 6.565 18.884 C 5.981 18.667,5.482 18.122,5.322 17.526 C 5.261 17.298,4.000 10.084,4.000 9.962 C 4.000 9.759,4.126 9.481,4.300 9.302 C 4.551 9.044,4.737 9.000,5.583 9.000 L 6.272 9.000 6.136 9.419 C 6.061 9.649,6.000 9.907,6.000 9.992 C 6.000 10.739,6.796 11.220,7.465 10.876 C 7.770 10.719,7.865 10.560,8.141 9.752 L 8.390 9.020 12.000 9.020 L 15.610 9.020 15.859 9.752 C 16.135 10.560,16.230 10.719,16.535 10.876 C 17.204 11.220,18.000 10.739,18.000 9.992 C 18.000 9.907,17.938 9.648,17.863 9.416 L 17.726 8.994 18.493 9.007 C 19.203 9.019,19.274 9.027,19.451 9.114 C 19.698 9.236,19.901 9.500,19.964 9.782 C 20.010 9.988,19.991 10.122,19.586 12.431 C 19.352 13.768,19.160 14.961,19.161 15.081 C 19.164 15.805,19.934 16.264,20.593 15.936 C 20.816 15.825,20.959 15.669,21.060 15.427 C 21.094 15.345,21.321 14.149,21.564 12.769 C 21.977 10.424,22.005 10.234,21.988 9.860 C 21.954 9.125,21.659 8.449,21.138 7.915 C 20.852 7.620,20.654 7.480,20.270 7.299 C 19.724 7.042,19.625 7.027,18.279 7.010 L 17.058 6.994 16.484 5.273 C 15.858 3.399,15.816 3.310,15.476 3.133 C 14.795 2.779,14.000 3.254,14.000 4.014 C 14.000 4.111,14.182 4.720,14.460 5.558 C 14.713 6.320,14.920 6.956,14.920 6.972 C 14.920 6.987,13.606 7.000,12.000 7.000 C 10.394 7.000,9.080 6.987,9.080 6.972 C 9.080 6.956,9.287 6.320,9.540 5.558 C 9.818 4.720,10.000 4.111,10.000 4.014 C 10.000 3.604,9.715 3.194,9.340 3.066 C 9.106 2.986,8.924 2.986,8.667 3.065 M11.499 11.040 C 10.363 11.246,9.460 12.049,9.114 13.160 C 8.979 13.594,8.979 14.406,9.114 14.840 C 9.421 15.826,10.174 16.579,11.160 16.886 C 11.594 17.021,12.406 17.021,12.840 16.886 C 13.826 16.579,14.579 15.826,14.886 14.840 C 15.021 14.406,15.021 13.594,14.886 13.160 C 14.581 12.179,13.810 11.407,12.861 11.129 C 12.500 11.023,11.832 10.980,11.499 11.040 M12.310 13.061 C 12.688 13.173,13.000 13.598,13.000 14.001 C 13.000 14.331,12.784 14.696,12.484 14.872 C 12.328 14.963,12.254 14.980,12.000 14.980 C 11.746 14.980,11.672 14.963,11.516 14.872 C 10.935 14.530,10.833 13.774,11.304 13.303 C 11.583 13.024,11.916 12.944,12.310 13.061 M15.695 18.057 C 15.466 18.129,15.256 18.299,15.128 18.516 C 15.037 18.672,15.020 18.746,15.020 19.000 C 15.020 19.256,15.036 19.328,15.131 19.489 C 15.256 19.702,15.449 19.864,15.670 19.943 C 15.891 20.022,22.109 20.022,22.330 19.943 C 22.551 19.864,22.744 19.702,22.869 19.489 C 22.964 19.328,22.980 19.256,22.980 19.000 C 22.980 18.746,22.963 18.672,22.872 18.516 C 22.740 18.293,22.533 18.128,22.290 18.055 C 22.030 17.977,15.945 17.979,15.695 18.057 " stroke="none" fill-rule="evenodd" fill="black"></path></svg>