<svg xmlns="http://www.w3.org/2000/svg" width="24" height="24" viewBox="0 0 24 24" fill="none" stroke="currentColor" stroke-width="2" stroke-linecap="round" stroke-linejoin="round"><path d="M8.667 3.065 C 8.543 3.103,8.412 3.186,8.303 3.295 C 8.106 3.492,8.108 3.486,7.417 5.567 L 6.943 6.994 5.721 7.010 C 4.375 7.027,4.276 7.042,3.730 7.299 C 3.346 7.480,3.148 7.620,2.862 7.915 C 2.529 8.256,2.314 8.609,2.159 9.067 C 2.037 9.427,2.026 9.501,2.024 9.960 C 2.023 10.432,2.059 10.664,2.673 14.140 C 3.329 17.851,3.379 18.106,3.548 18.538 C 3.919 19.493,4.860 20.394,5.866 20.758 C 6.489 20.983,6.695 21.000,8.795 21.000 L 10.700 20.999 10.900 20.905 C 11.281 20.724,11.488 20.405,11.488 20.000 C 11.488 19.615,11.293 19.297,10.940 19.106 C 10.784 19.022,10.733 19.019,8.800 18.998 C 6.851 18.977,6.816 18.975,6.565 18.883 C 5.982 18.669,5.482 18.123,5.322 17.526 C 5.261 17.298,4.000 10.084,4.000 9.962 C 4.000 9.759,4.126 9.481,4.300 9.302 C 4.551 9.044,4.737 9.000,5.583 9.000 L 6.272 9.000 6.136 9.419 C 6.061 9.649,6.000 9.907,6.000 9.992 C 6.000 10.739,6.796 11.220,7.465 10.876 C 7.770 10.719,7.865 10.560,8.141 9.752 L 8.390 9.020 12.000 9.020 L 15.610 9.020 15.859 9.752 C 16.135 10.560,16.230 10.719,16.535 10.876 C 17.204 11.220,18.000 10.739,18.000 9.992 C 18.000 9.907,17.938 9.648,17.863 9.416 L 17.726 8.994 18.493 9.007 C 19.203 9.019,19.274 9.027,19.451 9.114 C 19.698 9.236,19.901 9.500,19.964 9.782 C 20.006 9.969,20.001 10.065,19.926 10.492 C 19.820 11.101,19.819 11.290,19.923 11.520 C 20.103 11.917,20.390 12.098,20.840 12.098 C 21.187 12.098,21.321 12.042,21.562 11.793 C 21.746 11.604,21.798 11.447,21.923 10.720 C 22.119 9.571,21.864 8.660,21.138 7.915 C 20.852 7.620,20.654 7.480,20.270 7.299 C 19.724 7.042,19.625 7.027,18.279 7.010 L 17.058 6.994 16.484 5.273 C 15.858 3.399,15.816 3.310,15.476 3.133 C 14.795 2.779,14.000 3.254,14.000 4.014 C 14.000 4.111,14.182 4.720,14.460 5.558 C 14.713 6.320,14.920 6.956,14.920 6.972 C 14.920 6.987,13.606 7.000,12.000 7.000 C 10.394 7.000,9.080 6.987,9.080 6.972 C 9.080 6.956,9.287 6.320,9.540 5.558 C 9.818 4.720,10.000 4.111,10.000 4.014 C 10.000 3.604,9.715 3.194,9.340 3.066 C 9.106 2.986,8.924 2.986,8.667 3.065 M11.580 11.026 C 10.584 11.186,9.733 11.809,9.302 12.691 C 8.857 13.604,8.912 14.739,9.443 15.559 C 9.658 15.893,9.818 16.031,10.077 16.106 C 10.732 16.298,11.358 15.834,11.360 15.157 C 11.360 14.973,11.330 14.873,11.190 14.597 C 11.038 14.296,11.020 14.230,11.020 13.980 C 11.020 13.745,11.038 13.669,11.133 13.508 C 11.337 13.161,11.731 12.963,12.110 13.017 C 12.774 13.111,12.969 13.083,13.240 12.851 C 13.640 12.508,13.708 11.964,13.407 11.508 C 13.284 11.322,13.037 11.172,12.731 11.097 C 12.486 11.037,11.782 10.993,11.580 11.026 M15.699 14.037 C 14.670 14.202,13.737 14.905,13.305 15.840 C 13.072 16.345,13.021 16.592,13.024 17.200 C 13.026 17.692,13.037 17.773,13.149 18.111 C 13.392 18.843,13.413 18.869,15.473 20.912 C 16.500 21.930,17.421 22.812,17.520 22.872 C 17.673 22.964,17.745 22.980,18.000 22.980 C 18.254 22.980,18.327 22.964,18.480 22.873 C 18.579 22.814,19.509 21.923,20.547 20.893 C 22.582 18.874,22.591 18.863,22.818 18.213 C 23.020 17.636,23.050 16.947,22.900 16.380 C 22.746 15.802,22.353 15.189,21.871 14.775 C 20.903 13.943,19.453 13.773,18.325 14.360 L 18.013 14.522 17.697 14.363 C 17.245 14.135,16.862 14.039,16.340 14.020 C 16.098 14.012,15.810 14.019,15.699 14.037 M16.756 16.138 C 16.867 16.194,17.072 16.348,17.213 16.480 C 17.512 16.759,17.693 16.846,17.980 16.849 C 18.293 16.851,18.459 16.777,18.773 16.492 C 19.235 16.074,19.562 15.956,20.020 16.041 C 20.841 16.193,21.259 17.127,20.806 17.797 C 20.748 17.883,20.101 18.542,19.368 19.262 C 18.242 20.369,18.025 20.565,17.961 20.535 C 17.919 20.516,17.278 19.898,16.537 19.163 C 15.024 17.661,15.020 17.657,15.023 17.160 C 15.025 16.915,15.045 16.822,15.133 16.651 C 15.292 16.341,15.584 16.126,15.980 16.025 C 16.158 15.979,16.559 16.038,16.756 16.138 " stroke="none" fill-rule="evenodd" fill="black"></path></svg>