<svg xmlns="http://www.w3.org/2000/svg" width="24" height="24" viewBox="0 0 24 24" fill="none" stroke="currentColor" stroke-width="2" stroke-linecap="round" stroke-linejoin="round"><path d="M8.643 3.069 C 8.407 3.152,8.149 3.416,8.066 3.660 C 8.009 3.828,8.000 4.068,8.000 5.427 L 8.000 7.000 7.798 7.000 C 7.538 7.000,7.035 6.896,6.780 6.789 C 6.205 6.549,5.568 5.984,5.045 5.251 C 4.737 4.818,4.581 4.662,4.371 4.574 C 4.203 4.503,3.793 4.505,3.621 4.577 C 3.446 4.650,3.170 4.906,2.881 5.260 C 1.983 6.365,1.439 7.697,1.223 9.320 C 1.093 10.291,0.966 13.006,1.037 13.271 C 1.101 13.505,1.308 13.759,1.531 13.874 C 1.807 14.016,2.043 14.027,2.422 13.915 C 2.830 13.795,3.546 13.786,3.860 13.896 C 4.822 14.234,5.504 14.937,5.949 16.051 C 6.158 16.575,6.257 16.720,6.504 16.865 C 6.664 16.958,6.749 16.975,7.213 17.004 C 8.120 17.062,8.592 17.169,9.100 17.433 C 9.778 17.786,10.410 18.681,10.945 20.048 C 11.095 20.433,11.172 20.574,11.301 20.703 C 11.692 21.094,12.301 21.092,12.695 20.698 C 12.834 20.559,12.906 20.429,13.058 20.041 C 13.592 18.677,14.219 17.788,14.900 17.434 C 15.407 17.169,15.879 17.062,16.787 17.004 C 17.591 16.953,17.734 16.845,18.051 16.051 C 18.498 14.934,19.175 14.235,20.140 13.896 C 20.454 13.786,21.170 13.795,21.578 13.915 C 21.793 13.978,21.958 14.003,22.087 13.990 C 22.487 13.952,22.862 13.643,22.963 13.269 C 22.992 13.160,22.999 12.913,22.983 12.561 C 22.970 12.263,22.940 11.615,22.918 11.120 C 22.842 9.473,22.704 8.557,22.383 7.583 C 22.036 6.529,21.361 5.413,20.703 4.807 C 20.461 4.584,20.301 4.520,19.991 4.521 C 19.547 4.522,19.386 4.639,18.917 5.300 C 18.432 5.984,17.782 6.555,17.220 6.789 C 16.966 6.896,16.462 7.000,16.203 7.000 L 16.003 7.000 15.992 5.347 L 15.980 3.694 15.860 3.502 C 15.704 3.252,15.475 3.091,15.190 3.032 C 14.803 2.951,14.718 2.991,13.290 3.942 L 12.000 4.800 10.735 3.957 C 10.040 3.493,9.399 3.088,9.310 3.057 C 9.107 2.985,8.869 2.989,8.643 3.069 M10.814 6.411 C 11.555 6.905,11.747 7.000,12.000 7.000 C 12.254 7.000,12.444 6.905,13.225 6.383 L 13.980 5.880 13.991 6.990 C 14.004 8.236,13.977 8.497,13.792 8.880 C 13.639 9.197,13.228 9.624,12.930 9.775 C 12.346 10.071,11.658 10.073,11.083 9.781 C 10.816 9.646,10.449 9.297,10.281 9.017 C 10.033 8.605,10.005 8.411,10.002 7.068 C 10.000 6.124,10.010 5.881,10.050 5.905 C 10.078 5.921,10.421 6.149,10.814 6.411 M4.095 7.258 C 4.190 7.402,4.814 7.939,5.157 8.171 C 5.918 8.686,6.922 8.999,7.811 9.000 C 8.073 9.000,8.126 9.011,8.143 9.070 C 8.510 10.292,9.362 11.240,10.512 11.704 C 11.231 11.994,12.023 12.070,12.757 11.921 C 14.127 11.641,15.230 10.723,15.711 9.460 C 15.778 9.284,15.843 9.109,15.855 9.070 C 15.874 9.011,15.928 9.000,16.189 9.000 C 17.078 8.999,18.082 8.686,18.843 8.171 C 19.186 7.939,19.810 7.402,19.905 7.258 C 19.940 7.204,19.982 7.160,19.998 7.160 C 20.051 7.160,20.431 8.011,20.535 8.360 C 20.745 9.067,20.862 9.931,20.906 11.084 L 20.932 11.787 20.573 11.813 C 19.511 11.888,18.615 12.273,17.732 13.033 C 17.283 13.419,16.671 14.240,16.413 14.802 L 16.311 15.024 15.896 15.073 C 14.302 15.262,13.119 15.977,12.229 17.289 C 12.114 17.458,12.011 17.598,11.999 17.599 C 11.988 17.599,11.885 17.460,11.771 17.290 C 10.897 15.987,9.698 15.262,8.101 15.073 C 7.690 15.024,7.682 15.021,7.635 14.901 C 7.541 14.663,7.158 14.043,6.919 13.741 C 5.982 12.563,4.800 11.910,3.427 11.813 L 3.068 11.787 3.094 11.084 C 3.138 9.931,3.255 9.067,3.465 8.360 C 3.569 8.011,3.949 7.160,4.002 7.160 C 4.018 7.160,4.060 7.204,4.095 7.258 " stroke="none" fill-rule="evenodd" fill="black"></path></svg>