<svg xmlns="http://www.w3.org/2000/svg" width="24" height="24" viewBox="0 0 24 24" fill="none" stroke="currentColor" stroke-width="2" stroke-linecap="round" stroke-linejoin="round"><path d="M7.499 2.043 C 6.393 2.228,5.487 3.025,5.114 4.140 L 5.021 4.420 5.009 7.710 L 4.997 11.000 4.368 11.002 C 3.909 11.004,3.669 11.023,3.477 11.073 C 2.785 11.254,2.184 11.886,2.039 12.585 C 2.009 12.727,2.000 13.432,2.011 14.748 C 2.024 16.427,2.036 16.742,2.096 17.000 C 2.318 17.953,2.731 18.745,3.348 19.401 L 3.650 19.722 3.364 20.154 C 2.985 20.728,2.928 20.946,3.061 21.322 C 3.284 21.955,3.992 22.187,4.569 21.816 C 4.666 21.753,4.831 21.552,5.040 21.240 C 5.217 20.976,5.384 20.760,5.411 20.760 C 5.438 20.761,5.559 20.788,5.680 20.821 C 6.340 21.000,6.327 21.000,12.000 21.000 C 17.673 21.000,17.660 21.000,18.320 20.821 C 18.441 20.788,18.562 20.761,18.589 20.760 C 18.616 20.760,18.783 20.976,18.960 21.240 C 19.169 21.552,19.334 21.753,19.431 21.816 C 20.008 22.187,20.716 21.955,20.939 21.322 C 21.071 20.948,21.008 20.711,20.616 20.123 L 20.346 19.717 20.589 19.468 C 21.224 18.820,21.679 17.966,21.904 17.000 C 21.964 16.742,21.976 16.427,21.989 14.757 C 22.006 12.643,21.995 12.505,21.782 12.083 C 21.646 11.816,21.297 11.449,21.017 11.281 C 20.527 10.986,21.025 11.005,13.630 11.002 L 7.000 11.000 7.000 7.947 C 7.000 4.481,6.989 4.618,7.303 4.303 C 7.584 4.022,7.703 4.000,8.944 4.000 L 9.994 4.000 10.007 4.770 C 10.021 5.615,10.048 5.723,10.306 5.968 C 10.785 6.421,11.577 6.287,11.894 5.700 C 11.977 5.545,11.980 5.499,11.980 4.120 L 11.980 2.700 11.872 2.516 C 11.813 2.415,11.698 2.282,11.618 2.221 C 11.338 2.008,11.256 2.000,9.404 2.005 C 8.467 2.007,7.609 2.025,7.499 2.043 M19.991 14.770 C 19.977 16.523,19.976 16.543,19.877 16.861 C 19.577 17.827,18.819 18.581,17.840 18.886 L 17.540 18.980 12.000 18.980 L 6.460 18.980 6.160 18.886 C 5.181 18.581,4.423 17.827,4.123 16.861 C 4.024 16.543,4.023 16.523,4.009 14.770 L 3.995 13.000 12.000 13.000 L 20.005 13.000 19.991 14.770 " stroke="none" fill-rule="evenodd" fill="black"></path></svg>