<svg xmlns="http://www.w3.org/2000/svg" width="24" height="24" viewBox="0 0 24 24" fill="none" stroke="currentColor" stroke-width="2" stroke-linecap="round" stroke-linejoin="round"><path d="M5.499 6.043 C 4.379 6.233,3.461 7.048,3.114 8.160 C 3.021 8.457,3.020 8.478,3.020 10.383 L 3.020 12.306 3.141 12.503 C 3.543 13.156,4.457 13.156,4.859 12.503 L 4.980 12.306 5.000 10.523 C 5.022 8.523,5.014 8.582,5.321 8.283 C 5.632 7.982,5.228 8.000,11.520 8.000 C 17.807 8.000,17.366 7.979,17.682 8.287 C 17.928 8.525,17.970 8.659,17.999 9.300 C 18.021 9.795,18.037 9.888,18.134 10.100 C 18.265 10.387,18.549 10.690,18.810 10.824 L 19.000 10.921 19.000 12.000 L 19.000 13.079 18.810 13.176 C 18.549 13.310,18.265 13.613,18.134 13.900 C 18.037 14.112,18.021 14.206,17.998 14.700 C 17.983 15.008,17.951 15.311,17.926 15.373 C 17.848 15.565,17.676 15.759,17.484 15.872 L 17.300 15.980 13.020 16.000 C 9.716 16.015,8.714 16.031,8.627 16.070 C 8.428 16.158,8.239 16.328,8.128 16.516 C 8.037 16.672,8.020 16.746,8.020 17.000 C 8.020 17.257,8.036 17.327,8.133 17.492 C 8.261 17.710,8.502 17.901,8.725 17.961 C 8.826 17.989,10.343 17.999,13.229 17.991 L 17.580 17.980 17.860 17.886 C 19.069 17.481,19.894 16.459,19.986 15.253 L 20.012 14.915 20.196 14.821 C 20.451 14.690,20.735 14.386,20.868 14.100 L 20.980 13.860 20.980 12.000 L 20.980 10.140 20.868 9.900 C 20.735 9.614,20.451 9.310,20.196 9.179 L 20.012 9.085 19.986 8.747 C 19.893 7.540,19.049 6.497,17.861 6.121 L 17.540 6.020 11.620 6.014 C 8.364 6.011,5.609 6.024,5.499 6.043 M4.695 15.057 C 4.466 15.129,4.256 15.299,4.128 15.516 L 4.020 15.700 4.020 17.503 L 4.020 19.306 4.141 19.503 C 4.543 20.156,5.457 20.156,5.859 19.503 L 5.980 19.306 5.980 17.503 L 5.980 15.700 5.872 15.516 C 5.628 15.101,5.150 14.915,4.695 15.057 M4.695 21.057 C 4.466 21.129,4.256 21.299,4.128 21.516 C 4.036 21.672,4.020 21.745,4.021 22.000 C 4.022 22.332,4.101 22.533,4.306 22.728 C 4.785 23.181,5.580 23.046,5.893 22.460 C 6.025 22.211,6.015 21.760,5.872 21.516 C 5.628 21.101,5.150 20.915,4.695 21.057 " stroke="none" fill-rule="evenodd" fill="black"></path></svg>