<svg xmlns="http://www.w3.org/2000/svg" width="24" height="24" viewBox="0 0 24 24" fill="none" stroke="currentColor" stroke-width="2" stroke-linecap="round" stroke-linejoin="round"><path d="M5.499 6.043 C 4.379 6.233,3.454 7.055,3.115 8.160 C 3.045 8.390,3.023 8.559,3.022 8.883 C 3.020 9.285,3.026 9.315,3.141 9.503 C 3.537 10.147,4.457 10.156,4.849 9.520 C 4.927 9.392,4.971 9.249,4.999 9.031 C 5.049 8.636,5.114 8.485,5.321 8.283 C 5.632 7.982,5.230 8.000,11.500 8.000 C 17.770 8.000,17.368 7.982,17.679 8.283 C 17.928 8.525,17.970 8.657,17.999 9.300 C 18.021 9.795,18.037 9.888,18.134 10.100 C 18.265 10.387,18.549 10.690,18.810 10.824 L 19.000 10.921 19.000 12.000 L 19.000 13.079 18.810 13.176 C 18.549 13.310,18.265 13.613,18.134 13.900 C 18.037 14.112,18.021 14.206,17.998 14.700 C 17.983 15.008,17.951 15.311,17.926 15.373 C 17.848 15.565,17.676 15.759,17.484 15.872 L 17.300 15.980 14.260 16.000 C 11.239 16.020,11.219 16.021,11.060 16.106 C 10.706 16.298,10.512 16.615,10.512 17.003 C 10.512 17.292,10.619 17.536,10.827 17.724 C 11.153 18.018,10.976 18.005,14.460 17.991 L 17.580 17.979 17.860 17.886 C 19.067 17.483,19.893 16.459,19.986 15.253 L 20.012 14.915 20.196 14.821 C 20.451 14.690,20.735 14.386,20.868 14.100 L 20.980 13.860 20.980 12.000 L 20.980 10.140 20.868 9.900 C 20.735 9.614,20.451 9.310,20.196 9.179 L 20.012 9.085 19.986 8.747 C 19.893 7.540,19.049 6.497,17.861 6.121 L 17.540 6.020 11.620 6.014 C 8.364 6.011,5.609 6.024,5.499 6.043 M7.066 10.044 C 5.269 10.233,3.580 11.450,2.707 13.182 C 2.499 13.595,2.278 14.212,2.166 14.689 C 2.013 15.340,1.994 15.761,2.007 18.083 L 2.020 20.306 2.141 20.503 C 2.543 21.156,3.457 21.156,3.859 20.503 L 3.980 20.307 3.992 19.153 L 4.005 18.000 4.852 18.000 C 5.387 18.000,5.840 17.978,6.080 17.942 C 8.153 17.627,9.888 16.137,10.615 14.048 C 10.918 13.179,11.015 12.504,10.994 11.420 C 10.980 10.722,10.977 10.694,10.872 10.516 C 10.813 10.415,10.698 10.282,10.618 10.221 C 10.345 10.013,10.229 10.000,8.744 10.005 C 7.994 10.008,7.239 10.026,7.066 10.044 M8.980 12.230 C 8.846 13.418,8.432 14.301,7.668 15.027 C 7.329 15.349,6.889 15.635,6.517 15.775 C 6.033 15.957,5.709 16.000,4.819 16.000 L 3.994 16.000 4.020 15.770 C 4.153 14.591,4.560 13.714,5.306 12.998 C 5.626 12.691,5.835 12.543,6.220 12.351 C 6.787 12.068,7.125 12.008,8.193 12.004 L 9.006 12.000 8.980 12.230 " stroke="none" fill-rule="evenodd" fill="black"></path></svg>