<svg xmlns="http://www.w3.org/2000/svg" width="24" height="24" viewBox="0 0 24 24" fill="none" stroke="currentColor" stroke-width="2" stroke-linecap="round" stroke-linejoin="round"><path d="M5.499 6.043 C 4.379 6.233,3.454 7.055,3.115 8.160 C 3.045 8.390,3.023 8.559,3.022 8.883 C 3.020 9.285,3.026 9.315,3.141 9.503 C 3.537 10.147,4.457 10.156,4.849 9.520 C 4.927 9.392,4.971 9.249,4.999 9.031 C 5.049 8.636,5.114 8.485,5.321 8.283 C 5.632 7.982,5.230 8.000,11.500 8.000 C 17.770 8.000,17.368 7.982,17.679 8.283 C 17.928 8.525,17.970 8.657,17.999 9.300 C 18.021 9.795,18.037 9.888,18.134 10.100 C 18.265 10.387,18.549 10.690,18.810 10.824 L 19.000 10.921 19.000 12.000 L 19.000 13.079 18.810 13.176 C 18.549 13.310,18.265 13.613,18.134 13.900 C 18.037 14.112,18.021 14.206,17.998 14.700 C 17.983 15.008,17.951 15.311,17.926 15.373 C 17.848 15.565,17.676 15.759,17.484 15.872 L 17.300 15.980 14.760 16.000 C 12.251 16.020,12.218 16.021,12.060 16.106 C 11.706 16.298,11.512 16.615,11.512 17.003 C 11.512 17.292,11.619 17.536,11.827 17.724 C 12.150 18.015,12.034 18.005,14.961 17.991 L 17.580 17.979 17.860 17.885 C 19.066 17.484,19.893 16.459,19.986 15.253 L 20.012 14.915 20.196 14.821 C 20.451 14.690,20.735 14.386,20.868 14.100 L 20.980 13.860 20.980 12.000 L 20.980 10.140 20.868 9.900 C 20.735 9.614,20.451 9.310,20.196 9.179 L 20.012 9.085 19.986 8.747 C 19.893 7.540,19.049 6.497,17.861 6.121 L 17.540 6.020 11.620 6.014 C 8.364 6.011,5.609 6.024,5.499 6.043 M3.600 11.584 C 3.399 11.671,3.205 11.869,3.095 12.100 C 3.005 12.291,3.001 12.340,3.000 13.144 L 3.000 13.987 2.786 14.035 C 2.515 14.096,2.270 14.275,2.129 14.514 L 2.020 14.700 2.020 16.120 C 2.020 17.497,2.023 17.549,2.114 17.840 C 2.483 19.023,3.511 19.876,4.696 19.983 L 4.996 20.011 5.008 21.159 L 5.020 22.307 5.141 22.503 C 5.543 23.156,6.457 23.156,6.859 22.503 L 6.980 22.307 6.992 21.159 L 7.004 20.011 7.304 19.983 C 8.489 19.876,9.517 19.023,9.886 17.840 C 9.977 17.549,9.980 17.497,9.980 16.120 L 9.980 14.700 9.871 14.514 C 9.730 14.275,9.485 14.096,9.214 14.035 L 9.000 13.987 9.000 13.144 C 8.999 12.340,8.995 12.291,8.905 12.100 C 8.722 11.714,8.419 11.520,8.000 11.520 C 7.581 11.520,7.278 11.714,7.095 12.100 C 7.005 12.291,7.001 12.339,7.000 13.150 L 7.000 14.000 6.000 14.000 L 5.000 14.000 5.000 13.150 C 4.999 12.339,4.995 12.291,4.905 12.100 C 4.793 11.865,4.599 11.669,4.391 11.582 C 4.203 11.503,3.783 11.504,3.600 11.584 M8.000 16.554 C 8.000 17.352,7.890 17.633,7.484 17.872 L 7.300 17.980 6.000 17.980 L 4.700 17.980 4.516 17.872 C 4.415 17.813,4.284 17.700,4.225 17.623 C 4.038 17.377,4.000 17.202,4.000 16.575 L 4.000 16.000 6.000 16.000 L 8.000 16.000 8.000 16.554 " stroke="none" fill-rule="evenodd" fill="black"></path></svg>