<svg xmlns="http://www.w3.org/2000/svg" width="24" height="24" viewBox="0 0 24 24" fill="none" stroke="currentColor" stroke-width="2" stroke-linecap="round" stroke-linejoin="round"><path d="M10.174 3.041 C 9.791 3.119,9.361 3.449,9.179 3.804 L 9.085 3.988 8.764 4.015 C 7.519 4.119,6.491 4.951,6.114 6.160 L 6.020 6.460 6.020 12.500 L 6.020 18.540 6.114 18.840 C 6.418 19.816,7.150 20.555,8.140 20.886 L 8.420 20.979 11.770 20.991 C 13.990 20.999,15.172 20.989,15.274 20.962 C 15.498 20.901,15.739 20.711,15.867 20.492 C 15.964 20.327,15.980 20.257,15.980 20.000 C 15.980 19.746,15.963 19.672,15.872 19.516 C 15.761 19.328,15.572 19.158,15.373 19.070 C 15.287 19.032,14.483 19.015,11.980 19.000 L 8.700 18.980 8.516 18.872 C 8.415 18.813,8.284 18.700,8.225 18.623 C 7.987 18.311,8.000 18.657,8.000 12.502 C 8.000 6.190,7.979 6.635,8.287 6.318 C 8.525 6.072,8.659 6.030,9.300 6.001 C 9.795 5.979,9.888 5.963,10.100 5.866 C 10.387 5.735,10.690 5.451,10.824 5.190 L 10.921 5.000 12.000 5.000 L 13.079 5.000 13.176 5.190 C 13.310 5.451,13.613 5.735,13.900 5.866 C 14.112 5.963,14.205 5.979,14.700 6.001 C 15.331 6.030,15.468 6.071,15.699 6.301 C 15.994 6.596,15.978 6.426,16.000 9.523 L 16.020 12.306 16.141 12.503 C 16.543 13.156,17.457 13.156,17.859 12.503 L 17.980 12.306 17.980 9.383 L 17.980 6.460 17.886 6.160 C 17.705 5.578,17.391 5.107,16.911 4.695 C 16.460 4.308,15.868 4.068,15.236 4.015 L 14.915 3.988 14.821 3.804 C 14.690 3.549,14.386 3.265,14.100 3.132 L 13.860 3.020 12.100 3.013 C 11.132 3.010,10.265 3.022,10.174 3.041 M18.695 15.057 C 18.466 15.129,18.256 15.299,18.128 15.516 L 18.020 15.700 18.020 17.503 L 18.020 19.306 18.141 19.503 C 18.543 20.156,19.457 20.156,19.859 19.503 L 19.980 19.306 19.980 17.503 L 19.980 15.700 19.872 15.516 C 19.628 15.101,19.150 14.915,18.695 15.057 M18.695 21.057 C 18.466 21.129,18.256 21.299,18.128 21.516 C 18.036 21.672,18.020 21.745,18.021 22.000 C 18.022 22.332,18.101 22.533,18.306 22.728 C 18.785 23.181,19.580 23.046,19.893 22.460 C 20.025 22.211,20.015 21.760,19.872 21.516 C 19.628 21.101,19.150 20.915,18.695 21.057 " stroke="none" fill-rule="evenodd" fill="black"></path></svg>