<svg xmlns="http://www.w3.org/2000/svg" width="24" height="24" viewBox="0 0 24 24" fill="none" stroke="currentColor" stroke-width="2" stroke-linecap="round" stroke-linejoin="round"><path d="M2.670 2.061 C 2.448 2.142,2.250 2.309,2.128 2.516 C 2.036 2.672,2.020 2.745,2.021 3.000 C 2.021 3.212,2.043 3.341,2.095 3.440 C 2.135 3.517,3.030 4.444,4.083 5.500 L 5.998 7.420 6.009 13.000 L 6.020 18.580 6.114 18.860 C 6.446 19.851,7.184 20.582,8.160 20.886 L 8.460 20.980 12.000 20.980 L 15.540 20.980 15.840 20.886 C 16.599 20.649,17.289 20.091,17.644 19.426 L 17.769 19.191 19.095 20.511 C 19.824 21.237,20.483 21.864,20.560 21.905 C 20.659 21.957,20.787 21.979,21.000 21.979 C 21.258 21.980,21.327 21.964,21.492 21.867 C 21.968 21.587,22.139 20.967,21.865 20.508 C 21.810 20.416,17.665 16.243,12.653 11.235 C 4.231 2.820,3.525 2.125,3.343 2.065 C 3.107 1.987,2.874 1.986,2.670 2.061 M10.174 3.040 C 9.791 3.119,9.348 3.462,9.170 3.817 C 9.096 3.964,9.073 3.978,8.836 4.027 C 8.526 4.090,8.302 4.243,8.140 4.502 C 8.034 4.671,8.020 4.729,8.020 4.997 C 8.020 5.257,8.036 5.327,8.133 5.492 C 8.263 5.714,8.503 5.901,8.735 5.964 C 8.827 5.989,9.105 6.001,9.379 5.993 C 9.803 5.980,9.888 5.965,10.100 5.867 C 10.387 5.734,10.690 5.451,10.824 5.190 L 10.921 5.000 12.000 5.000 L 13.079 5.000 13.176 5.190 C 13.310 5.451,13.613 5.735,13.900 5.866 C 14.112 5.963,14.205 5.979,14.700 6.001 C 15.331 6.030,15.468 6.071,15.699 6.301 C 15.996 6.599,15.978 6.368,16.000 10.023 L 16.020 13.306 16.141 13.503 C 16.543 14.156,17.457 14.156,17.859 13.503 L 17.980 13.306 17.980 9.883 L 17.980 6.460 17.886 6.160 C 17.705 5.578,17.391 5.107,16.911 4.695 C 16.460 4.308,15.868 4.068,15.236 4.015 L 14.915 3.988 14.821 3.804 C 14.690 3.549,14.386 3.265,14.100 3.132 L 13.860 3.020 12.100 3.013 C 11.132 3.010,10.265 3.022,10.174 3.040 M16.000 17.764 C 16.000 18.336,15.851 18.656,15.484 18.872 L 15.300 18.980 12.000 18.980 L 8.700 18.980 8.516 18.872 C 8.415 18.813,8.284 18.700,8.225 18.623 C 7.990 18.314,8.000 18.537,8.000 13.785 L 8.000 9.420 12.000 13.420 L 16.000 17.420 16.000 17.764 " stroke="none" fill-rule="evenodd" fill="black"></path></svg>