<svg xmlns="http://www.w3.org/2000/svg" width="24" height="24" viewBox="0 0 24 24" fill="none" stroke="currentColor" stroke-width="2" stroke-linecap="round" stroke-linejoin="round"><path d="M2.670 2.061 C 2.448 2.142,2.250 2.309,2.128 2.516 C 2.036 2.672,2.020 2.745,2.021 3.000 C 2.021 3.213,2.043 3.341,2.095 3.440 C 2.136 3.517,2.762 4.176,3.488 4.904 L 4.807 6.229 4.554 6.372 C 3.871 6.755,3.351 7.401,3.114 8.160 L 3.020 8.460 3.020 12.000 L 3.020 15.540 3.114 15.840 C 3.418 16.816,4.149 17.554,5.140 17.886 L 5.420 17.980 11.000 17.991 L 16.580 18.002 18.500 19.917 C 19.556 20.970,20.483 21.865,20.560 21.905 C 20.659 21.957,20.788 21.979,21.000 21.979 C 21.258 21.980,21.327 21.964,21.492 21.867 C 21.968 21.587,22.139 20.967,21.865 20.508 C 21.810 20.416,17.665 16.243,12.653 11.235 C 4.231 2.820,3.525 2.125,3.343 2.065 C 3.107 1.987,2.874 1.986,2.670 2.061 M10.695 6.056 C 10.465 6.129,10.256 6.299,10.128 6.516 C 10.037 6.672,10.020 6.746,10.020 7.000 C 10.020 7.256,10.036 7.328,10.131 7.489 C 10.256 7.702,10.449 7.864,10.670 7.943 C 10.790 7.986,11.442 7.997,13.963 7.998 C 17.496 8.000,17.378 7.991,17.679 8.283 C 17.928 8.525,17.970 8.657,17.999 9.300 C 18.021 9.795,18.037 9.888,18.134 10.100 C 18.265 10.387,18.549 10.690,18.810 10.824 L 19.000 10.921 19.000 12.000 L 19.000 13.079 18.810 13.176 C 18.550 13.309,18.266 13.612,18.132 13.900 C 18.025 14.128,18.020 14.168,18.020 14.723 C 18.020 15.302,18.021 15.308,18.141 15.503 C 18.209 15.613,18.346 15.756,18.452 15.828 C 19.058 16.235,19.901 15.849,19.987 15.125 C 20.011 14.925,20.020 14.911,20.196 14.821 C 20.451 14.690,20.735 14.386,20.868 14.100 L 20.980 13.860 20.980 12.000 L 20.980 10.140 20.868 9.900 C 20.735 9.614,20.451 9.310,20.196 9.179 L 20.012 9.085 19.986 8.747 C 19.893 7.540,19.048 6.495,17.861 6.122 L 17.540 6.021 14.200 6.012 C 11.535 6.006,10.827 6.014,10.695 6.056 M10.580 12.000 L 14.580 16.001 10.140 15.990 L 5.700 15.980 5.516 15.872 C 5.415 15.813,5.284 15.700,5.225 15.623 C 4.994 15.320,5.000 15.423,5.000 12.022 C 5.000 8.472,4.988 8.618,5.304 8.303 C 5.531 8.076,5.742 8.006,6.220 8.003 L 6.580 8.000 10.580 12.000 " stroke="none" fill-rule="evenodd" fill="black"></path></svg>