<svg xmlns="http://www.w3.org/2000/svg" width="24" height="24" viewBox="0 0 24 24" fill="none" stroke="currentColor" stroke-width="2" stroke-linecap="round" stroke-linejoin="round"><path d="M5.499 6.043 C 4.379 6.233,3.461 7.048,3.114 8.160 L 3.020 8.460 3.020 12.000 L 3.020 15.540 3.114 15.840 C 3.418 16.816,4.150 17.555,5.140 17.886 L 5.420 17.979 8.770 17.991 C 10.990 17.999,12.172 17.989,12.274 17.962 C 12.498 17.901,12.739 17.711,12.867 17.492 C 12.964 17.327,12.980 17.257,12.980 17.000 C 12.980 16.746,12.963 16.672,12.872 16.516 C 12.761 16.328,12.572 16.158,12.373 16.070 C 12.287 16.032,11.483 16.015,8.980 16.000 L 5.700 15.980 5.516 15.872 C 5.415 15.813,5.284 15.700,5.225 15.623 C 4.994 15.320,5.000 15.423,5.000 12.022 C 5.000 8.472,4.988 8.618,5.303 8.303 C 5.628 7.978,5.185 8.000,11.500 8.000 C 17.770 8.000,17.368 7.982,17.679 8.283 C 17.928 8.525,17.970 8.657,17.999 9.300 C 18.021 9.795,18.037 9.888,18.134 10.100 C 18.265 10.387,18.549 10.690,18.810 10.824 L 19.000 10.921 19.000 11.311 C 19.001 11.637,19.016 11.733,19.095 11.900 C 19.276 12.282,19.595 12.488,20.003 12.488 C 20.292 12.488,20.536 12.381,20.724 12.173 C 20.980 11.889,21.008 11.754,20.993 10.896 C 20.980 10.165,20.976 10.132,20.868 9.900 C 20.735 9.614,20.451 9.310,20.196 9.179 L 20.012 9.085 19.986 8.747 C 19.893 7.540,19.049 6.497,17.861 6.121 L 17.540 6.020 11.620 6.014 C 8.364 6.011,5.609 6.024,5.499 6.043 M18.617 14.577 C 18.438 14.655,18.206 14.870,18.123 15.036 C 18.084 15.115,18.011 15.314,17.962 15.478 C 17.609 16.656,16.655 17.611,15.480 17.962 C 15.075 18.083,14.921 18.165,14.752 18.352 C 14.420 18.720,14.420 19.280,14.752 19.648 C 14.920 19.834,15.074 19.917,15.478 20.038 C 16.687 20.400,17.610 21.343,17.987 22.600 C 18.076 22.898,18.131 23.008,18.270 23.163 C 18.672 23.610,19.328 23.610,19.730 23.163 C 19.869 23.008,19.924 22.898,20.013 22.600 C 20.399 21.311,21.311 20.399,22.600 20.013 C 22.898 19.924,23.008 19.869,23.163 19.730 C 23.574 19.360,23.612 18.754,23.248 18.352 C 23.079 18.165,22.925 18.083,22.520 17.962 C 21.314 17.602,20.390 16.658,20.014 15.402 C 19.832 14.793,19.515 14.518,18.997 14.522 C 18.856 14.522,18.685 14.547,18.617 14.577 M19.194 18.057 C 19.373 18.282,19.740 18.644,20.020 18.873 L 20.180 19.004 20.020 19.130 C 19.818 19.288,19.295 19.809,19.127 20.019 L 19.000 20.178 18.873 20.019 C 18.705 19.809,18.182 19.288,17.980 19.130 L 17.820 19.004 17.980 18.873 C 18.260 18.644,18.627 18.282,18.806 18.057 C 18.901 17.938,18.989 17.840,19.000 17.840 C 19.011 17.840,19.099 17.938,19.194 18.057 " stroke="none" fill-rule="evenodd" fill="black"></path></svg>