<svg xmlns="http://www.w3.org/2000/svg" width="24" height="24" viewBox="0 0 24 24" fill="none" stroke="currentColor" stroke-width="2" stroke-linecap="round" stroke-linejoin="round"><path d="M10.174 3.041 C 9.791 3.119,9.361 3.449,9.179 3.804 L 9.085 3.988 8.764 4.015 C 7.519 4.119,6.491 4.951,6.114 6.160 L 6.020 6.460 6.020 12.500 L 6.020 18.540 6.114 18.840 C 6.422 19.827,7.173 20.578,8.160 20.886 L 8.460 20.980 12.000 20.980 L 15.540 20.980 15.840 20.886 C 16.827 20.578,17.578 19.827,17.886 18.840 L 17.980 18.540 17.980 12.500 L 17.980 6.460 17.886 6.160 C 17.705 5.578,17.391 5.107,16.911 4.695 C 16.460 4.308,15.868 4.068,15.236 4.015 L 14.915 3.988 14.821 3.804 C 14.690 3.549,14.386 3.265,14.100 3.132 L 13.860 3.020 12.100 3.013 C 11.132 3.010,10.265 3.022,10.174 3.041 M13.176 5.190 C 13.310 5.451,13.613 5.735,13.900 5.866 C 14.112 5.963,14.205 5.979,14.700 6.001 C 15.343 6.030,15.475 6.072,15.717 6.321 C 16.018 6.632,16.000 6.230,16.000 12.501 C 16.000 17.136,15.990 18.139,15.945 18.290 C 15.872 18.533,15.707 18.740,15.484 18.872 L 15.300 18.980 12.000 18.980 L 8.700 18.980 8.516 18.872 C 8.415 18.813,8.284 18.700,8.225 18.623 C 7.987 18.311,8.000 18.655,8.000 12.522 C 8.000 6.228,7.982 6.632,8.283 6.321 C 8.525 6.072,8.657 6.030,9.300 6.001 C 9.795 5.979,9.888 5.963,10.100 5.866 C 10.387 5.735,10.690 5.451,10.824 5.190 L 10.921 5.000 12.000 5.000 L 13.079 5.000 13.176 5.190 " stroke="none" fill-rule="evenodd" fill="black"></path></svg>