<svg xmlns="http://www.w3.org/2000/svg" width="24" height="24" viewBox="0 0 24 24" fill="none" stroke="currentColor" stroke-width="2" stroke-linecap="round" stroke-linejoin="round"><path d="M5.499 6.043 C 4.383 6.230,3.461 7.048,3.114 8.160 L 3.020 8.460 3.020 12.000 L 3.020 15.540 3.114 15.840 C 3.419 16.818,4.164 17.569,5.140 17.882 C 5.383 17.960,5.531 17.974,6.260 17.990 C 6.805 18.002,7.158 17.993,7.264 17.964 C 7.497 17.901,7.737 17.714,7.867 17.492 C 7.964 17.327,7.980 17.257,7.980 17.000 C 7.980 16.746,7.963 16.672,7.872 16.516 C 7.760 16.325,7.567 16.154,7.373 16.073 C 7.307 16.045,6.934 16.016,6.480 16.003 C 5.724 15.981,5.694 15.977,5.516 15.872 C 5.415 15.813,5.284 15.700,5.225 15.623 C 4.994 15.320,5.000 15.423,5.000 12.022 C 5.000 8.472,4.988 8.618,5.303 8.303 C 5.587 8.019,5.694 8.000,7.037 7.998 C 8.266 7.996,8.356 7.984,8.619 7.783 C 8.696 7.725,8.808 7.592,8.869 7.489 C 8.964 7.328,8.980 7.256,8.980 7.000 C 8.980 6.746,8.963 6.672,8.872 6.516 C 8.813 6.415,8.698 6.282,8.618 6.221 C 8.350 6.016,8.216 6.000,6.904 6.005 C 6.242 6.007,5.609 6.025,5.499 6.043 M15.695 6.055 C 15.464 6.130,15.255 6.300,15.128 6.516 C 15.037 6.672,15.020 6.746,15.020 7.000 C 15.020 7.256,15.036 7.328,15.131 7.489 C 15.192 7.592,15.304 7.725,15.381 7.783 C 15.622 7.967,15.770 7.996,16.463 7.998 C 17.238 8.000,17.435 8.047,17.679 8.283 C 17.928 8.525,17.970 8.657,17.999 9.300 C 18.021 9.795,18.037 9.888,18.134 10.100 C 18.265 10.387,18.549 10.690,18.810 10.824 L 19.000 10.921 19.000 12.000 L 19.000 13.079 18.810 13.176 C 18.549 13.310,18.265 13.613,18.134 13.900 C 18.037 14.112,18.021 14.206,17.998 14.700 C 17.983 15.008,17.951 15.311,17.926 15.373 C 17.848 15.565,17.676 15.759,17.484 15.872 L 17.300 15.980 16.020 16.001 C 15.146 16.016,14.704 16.038,14.627 16.071 C 14.431 16.156,14.239 16.327,14.128 16.516 C 14.037 16.672,14.020 16.746,14.020 17.000 C 14.020 17.257,14.036 17.327,14.133 17.492 C 14.263 17.713,14.502 17.901,14.732 17.963 C 14.837 17.992,15.353 18.001,16.236 17.991 C 17.505 17.976,17.596 17.970,17.860 17.884 C 19.059 17.491,19.893 16.459,19.986 15.253 L 20.012 14.915 20.196 14.821 C 20.451 14.690,20.735 14.386,20.868 14.100 L 20.980 13.860 20.980 12.000 L 20.980 10.140 20.868 9.900 C 20.735 9.614,20.451 9.310,20.196 9.179 L 20.012 9.085 19.986 8.747 C 19.893 7.538,19.036 6.482,17.861 6.125 C 17.574 6.039,17.451 6.027,16.700 6.015 C 16.072 6.004,15.818 6.015,15.695 6.055 M11.643 7.066 C 11.285 7.198,11.220 7.303,10.085 9.584 C 8.927 11.911,8.926 11.915,9.061 12.322 C 9.150 12.592,9.397 12.844,9.660 12.934 C 9.814 12.986,10.011 13.000,10.607 13.000 C 11.021 13.000,11.360 13.008,11.360 13.019 C 11.360 13.029,11.061 13.638,10.695 14.372 C 9.960 15.847,9.932 15.933,10.061 16.322 C 10.189 16.707,10.594 17.000,11.000 17.000 C 11.080 17.000,11.233 16.970,11.340 16.934 C 11.716 16.806,11.767 16.724,12.920 14.406 L 13.980 12.275 13.980 11.988 C 13.980 11.747,13.962 11.670,13.872 11.516 C 13.813 11.415,13.698 11.282,13.618 11.221 C 13.373 11.034,13.181 11.000,12.374 11.000 C 11.970 11.000,11.640 10.992,11.640 10.981 C 11.640 10.971,11.939 10.362,12.305 9.628 C 13.035 8.165,13.068 8.065,12.944 7.693 C 12.909 7.586,12.828 7.435,12.765 7.358 C 12.523 7.065,12.011 6.931,11.643 7.066 " stroke="none" fill-rule="evenodd" fill="black"></path></svg>