<svg xmlns="http://www.w3.org/2000/svg" width="24" height="24" viewBox="0 0 24 24" fill="none" stroke="currentColor" stroke-width="2" stroke-linecap="round" stroke-linejoin="round"><path d="M5.695 2.057 C 5.466 2.129,5.256 2.299,5.128 2.516 C 5.025 2.692,5.019 2.728,5.007 3.345 L 4.993 3.990 4.711 4.018 C 3.496 4.138,2.485 4.972,2.114 6.160 L 2.020 6.460 2.020 12.000 L 2.020 17.540 2.114 17.840 C 2.422 18.827,3.173 19.578,4.160 19.886 L 4.460 19.980 12.000 19.980 L 19.540 19.980 19.840 19.886 C 20.827 19.578,21.578 18.827,21.886 17.840 L 21.980 17.540 21.980 12.000 L 21.980 6.460 21.886 6.160 C 21.705 5.578,21.391 5.107,20.911 4.695 C 20.474 4.321,19.893 4.078,19.289 4.018 L 19.007 3.990 18.993 3.345 C 18.981 2.726,18.976 2.693,18.871 2.514 C 18.479 1.848,17.521 1.848,17.129 2.514 C 17.024 2.693,17.019 2.726,17.007 3.350 L 16.993 4.000 12.000 4.000 L 7.007 4.000 6.993 3.350 C 6.981 2.728,6.975 2.692,6.872 2.516 C 6.628 2.101,6.150 1.915,5.695 2.057 M19.310 6.061 C 19.589 6.144,19.856 6.411,19.939 6.690 C 19.992 6.868,20.000 7.546,20.000 12.001 C 20.000 16.212,19.990 17.139,19.945 17.290 C 19.872 17.533,19.707 17.740,19.484 17.872 L 19.300 17.980 12.000 17.980 L 4.700 17.980 4.516 17.872 C 4.303 17.747,4.141 17.550,4.058 17.316 C 3.969 17.061,3.971 6.993,4.061 6.690 C 4.140 6.421,4.412 6.143,4.673 6.063 C 4.964 5.974,19.009 5.971,19.310 6.061 M15.600 9.584 C 15.399 9.671,15.205 9.869,15.095 10.100 C 15.019 10.262,15.001 10.366,15.000 10.645 L 15.000 10.991 14.610 11.008 C 14.174 11.027,13.994 11.095,13.772 11.326 C 13.599 11.507,13.512 11.732,13.512 12.000 C 13.512 12.405,13.719 12.724,14.100 12.905 C 14.263 12.982,14.365 12.999,14.650 13.000 L 15.000 13.000 15.000 13.350 C 15.001 13.635,15.018 13.737,15.095 13.900 C 15.276 14.281,15.595 14.488,16.000 14.488 C 16.405 14.488,16.724 14.281,16.905 13.900 C 16.982 13.737,16.999 13.635,17.000 13.350 L 17.000 13.000 17.350 13.000 C 17.635 12.999,17.737 12.982,17.900 12.905 C 18.281 12.724,18.488 12.405,18.488 12.000 C 18.488 11.732,18.401 11.507,18.228 11.326 C 18.006 11.095,17.826 11.027,17.390 11.008 L 17.000 10.991 17.000 10.645 C 16.999 10.366,16.981 10.262,16.905 10.100 C 16.793 9.865,16.599 9.669,16.391 9.582 C 16.203 9.503,15.783 9.504,15.600 9.584 M6.240 11.037 C 5.791 11.177,5.512 11.546,5.512 12.000 C 5.512 12.405,5.719 12.724,6.100 12.905 L 6.300 12.999 8.000 12.999 L 9.700 12.999 9.900 12.905 C 10.281 12.724,10.488 12.405,10.488 12.000 C 10.488 11.615,10.293 11.297,9.940 11.106 C 9.784 11.022,9.740 11.020,8.060 11.013 C 7.114 11.009,6.295 11.019,6.240 11.037 " stroke="none" fill-rule="evenodd" fill="black"></path></svg>