<svg xmlns="http://www.w3.org/2000/svg" width="24" height="24" viewBox="0 0 24 24" fill="none" stroke="currentColor" stroke-width="2" stroke-linecap="round" stroke-linejoin="round"><path d="M14.680 1.986 C 12.862 2.083,11.175 2.861,9.932 4.176 C 9.572 4.557,9.205 5.038,9.016 5.375 C 8.945 5.503,8.904 5.646,8.891 5.812 C 8.863 6.177,8.966 6.383,9.375 6.781 C 9.686 7.083,9.816 7.165,11.669 8.233 L 13.633 9.366 13.479 9.633 C 13.394 9.780,13.306 9.985,13.282 10.089 C 13.142 10.718,13.718 11.343,14.367 11.267 C 14.735 11.223,14.996 11.019,15.244 10.580 L 15.365 10.365 15.832 10.637 C 18.180 12.001,19.753 12.895,19.888 12.943 C 20.231 13.064,20.628 12.972,20.890 12.710 C 21.210 12.390,21.693 11.220,21.889 10.291 C 21.969 9.912,21.979 9.748,21.978 8.940 C 21.976 8.093,21.967 7.983,21.870 7.560 C 21.502 5.951,20.716 4.631,19.540 3.643 C 18.601 2.855,17.471 2.315,16.313 2.102 C 16.003 2.045,15.043 1.952,14.940 1.968 C 14.918 1.972,14.801 1.980,14.680 1.986 M2.670 2.061 C 2.448 2.142,2.250 2.309,2.128 2.516 C 2.037 2.672,2.020 2.746,2.020 3.000 C 2.020 3.254,2.036 3.327,2.127 3.480 C 2.189 3.584,4.209 5.633,6.893 8.315 L 11.550 12.970 11.364 13.293 L 11.178 13.616 10.799 13.683 C 9.072 13.989,7.374 14.868,6.276 16.025 C 6.013 16.303,5.945 16.476,5.967 16.820 C 6.008 17.453,6.607 17.881,7.208 17.705 C 7.396 17.651,7.513 17.572,7.868 17.260 C 8.953 16.307,10.019 15.812,11.391 15.622 C 12.371 15.487,13.419 15.583,14.300 15.888 C 14.529 15.968,14.608 16.039,16.047 17.472 L 17.553 18.973 17.387 19.172 C 16.907 19.745,16.804 19.828,16.439 19.937 C 16.028 20.059,15.507 19.988,15.182 19.767 C 15.095 19.707,14.889 19.499,14.724 19.304 C 14.560 19.109,14.325 18.870,14.203 18.773 C 12.912 17.748,11.088 17.748,9.797 18.773 C 9.675 18.870,9.440 19.109,9.276 19.304 C 9.111 19.499,8.905 19.707,8.818 19.767 C 8.373 20.070,7.627 20.070,7.182 19.767 C 7.095 19.707,6.889 19.499,6.724 19.304 C 6.093 18.556,5.358 18.147,4.447 18.037 C 3.618 17.936,2.660 18.177,2.264 18.584 C 1.908 18.951,1.928 19.609,2.306 19.968 C 2.603 20.249,3.015 20.309,3.468 20.138 C 4.205 19.861,4.709 20.017,5.278 20.697 C 5.995 21.556,6.924 22.000,8.004 22.000 C 9.073 22.000,10.008 21.552,10.721 20.698 C 11.144 20.192,11.496 20.000,12.000 20.000 C 12.504 20.000,12.856 20.192,13.278 20.697 C 13.995 21.556,14.924 22.000,16.004 22.000 C 17.063 22.000,18.019 21.546,18.704 20.718 L 18.972 20.395 19.696 21.113 C 20.094 21.507,20.483 21.864,20.560 21.904 C 20.660 21.957,20.787 21.979,21.000 21.979 C 21.258 21.980,21.327 21.964,21.492 21.867 C 21.968 21.587,22.139 20.967,21.865 20.508 C 21.810 20.416,17.665 16.243,12.653 11.235 C 4.231 2.820,3.525 2.125,3.343 2.065 C 3.107 1.987,2.874 1.986,2.670 2.061 M14.999 4.094 C 14.713 4.359,14.163 4.959,13.870 5.325 C 13.570 5.699,12.978 6.526,12.950 6.610 C 12.935 6.654,11.280 5.727,11.280 5.675 C 11.280 5.661,11.434 5.503,11.622 5.325 C 12.529 4.466,13.653 4.017,15.020 3.967 L 15.140 3.962 14.999 4.094 M17.444 5.124 C 17.433 5.876,17.092 7.014,16.482 8.334 C 16.395 8.522,16.339 8.600,16.300 8.586 C 16.241 8.563,14.711 7.684,14.684 7.657 C 14.663 7.636,14.913 7.260,15.214 6.860 C 15.752 6.144,16.349 5.519,16.905 5.089 C 17.098 4.939,17.410 4.757,17.433 4.780 C 17.442 4.788,17.447 4.943,17.444 5.124 M19.642 7.097 C 20.035 8.080,20.111 9.314,19.837 10.270 C 19.796 10.413,19.753 10.540,19.742 10.551 C 19.726 10.567,18.080 9.647,18.080 9.623 C 18.080 9.619,18.159 9.455,18.255 9.258 C 18.636 8.479,18.997 7.526,19.188 6.797 L 19.294 6.396 19.404 6.588 C 19.465 6.694,19.572 6.923,19.642 7.097 " stroke="none" fill-rule="evenodd" fill="black"></path></svg>