<svg xmlns="http://www.w3.org/2000/svg" width="24" height="24" viewBox="0 0 24 24" fill="none" stroke="currentColor" stroke-width="2" stroke-linecap="round" stroke-linejoin="round"><path d="M14.240 2.042 C 12.106 2.303,10.238 3.466,9.102 5.239 C 8.791 5.724,8.746 5.924,8.862 6.315 C 8.902 6.449,8.978 6.578,9.073 6.673 C 9.164 6.764,10.084 7.319,11.428 8.094 L 13.633 9.366 13.212 10.093 C 12.981 10.493,12.430 11.447,11.987 12.214 C 11.545 12.981,11.165 13.614,11.142 13.620 C 11.119 13.626,10.884 13.671,10.620 13.720 C 9.105 14.000,7.542 14.802,6.436 15.868 C 6.019 16.271,5.942 16.425,5.967 16.814 C 6.008 17.455,6.604 17.882,7.212 17.704 C 7.396 17.651,7.509 17.578,7.765 17.348 C 9.269 16.000,11.059 15.397,12.952 15.602 C 14.324 15.751,15.513 16.287,16.620 17.256 C 17.203 17.766,17.444 17.847,17.890 17.680 C 18.394 17.492,18.667 16.942,18.503 16.448 C 18.419 16.197,18.222 15.970,17.728 15.558 C 16.600 14.617,15.299 13.993,13.896 13.721 C 13.686 13.680,13.508 13.641,13.501 13.634 C 13.478 13.609,15.350 10.395,15.385 10.397 C 15.404 10.399,16.401 10.965,17.600 11.655 C 18.799 12.345,19.841 12.930,19.916 12.955 C 20.236 13.061,20.639 12.961,20.885 12.715 C 21.046 12.554,21.353 11.978,21.535 11.497 C 22.240 9.629,22.129 7.607,21.223 5.824 C 20.216 3.841,18.383 2.498,16.140 2.100 C 15.706 2.023,14.655 1.991,14.240 2.042 M14.980 4.112 C 14.730 4.340,14.160 4.963,13.870 5.325 C 13.570 5.699,12.978 6.526,12.950 6.610 C 12.935 6.654,11.280 5.727,11.280 5.675 C 11.280 5.619,11.912 5.061,12.180 4.880 C 12.973 4.345,13.955 4.025,14.860 4.007 L 15.100 4.002 14.980 4.112 M17.444 5.124 C 17.433 5.876,17.092 7.014,16.482 8.334 C 16.395 8.522,16.339 8.600,16.300 8.586 C 16.241 8.563,14.711 7.684,14.684 7.657 C 14.663 7.636,14.913 7.260,15.214 6.860 C 15.752 6.144,16.349 5.519,16.905 5.089 C 17.098 4.939,17.410 4.757,17.433 4.780 C 17.442 4.788,17.447 4.943,17.444 5.124 M19.740 7.454 C 19.972 8.151,20.044 8.860,19.956 9.580 C 19.914 9.916,19.783 10.510,19.741 10.552 C 19.726 10.567,18.080 9.646,18.080 9.623 C 18.080 9.619,18.159 9.455,18.255 9.258 C 18.672 8.405,19.013 7.489,19.242 6.600 L 19.289 6.420 19.447 6.734 C 19.534 6.906,19.666 7.230,19.740 7.454 M3.541 18.045 C 3.037 18.118,2.494 18.348,2.264 18.584 C 1.908 18.951,1.928 19.609,2.306 19.968 C 2.603 20.249,3.015 20.309,3.468 20.138 C 4.205 19.861,4.709 20.017,5.278 20.697 C 5.995 21.556,6.924 22.000,8.004 22.000 C 9.073 22.000,10.008 21.552,10.721 20.698 C 11.144 20.192,11.496 20.000,12.000 20.000 C 12.504 20.000,12.856 20.192,13.278 20.697 C 13.995 21.556,14.924 22.000,16.004 22.000 C 17.073 22.000,18.008 21.552,18.721 20.698 C 19.291 20.017,19.795 19.861,20.532 20.138 C 20.863 20.263,21.151 20.269,21.400 20.157 C 22.179 19.804,22.195 18.745,21.429 18.354 C 20.887 18.078,20.153 17.956,19.527 18.038 C 18.630 18.155,17.898 18.567,17.276 19.304 C 16.931 19.712,16.750 19.849,16.437 19.937 C 16.013 20.057,15.507 19.988,15.182 19.767 C 15.095 19.707,14.889 19.499,14.724 19.304 C 14.396 18.915,14.109 18.669,13.739 18.460 C 12.491 17.753,10.925 17.877,9.797 18.773 C 9.675 18.870,9.440 19.109,9.276 19.304 C 9.111 19.499,8.905 19.707,8.818 19.767 C 8.493 19.988,7.987 20.057,7.563 19.937 C 7.250 19.849,7.069 19.712,6.724 19.304 C 6.560 19.109,6.325 18.870,6.203 18.773 C 5.445 18.171,4.482 17.908,3.541 18.045 " stroke="none" fill-rule="evenodd" fill="black"></path></svg>