<svg xmlns="http://www.w3.org/2000/svg" width="24" height="24" viewBox="0 0 24 24" fill="none" stroke="currentColor" stroke-width="2" stroke-linecap="round" stroke-linejoin="round"><path d="M9.695 7.057 C 9.466 7.129,9.256 7.299,9.128 7.516 L 9.020 7.700 9.020 10.500 L 9.020 13.300 9.131 13.489 C 9.256 13.702,9.449 13.864,9.670 13.943 C 9.892 14.022,21.108 14.022,21.330 13.943 C 21.551 13.864,21.744 13.702,21.869 13.489 L 21.980 13.300 21.992 11.976 C 22.006 10.479,21.970 10.171,21.705 9.516 C 21.172 8.197,20.001 7.269,18.605 7.058 C 18.068 6.978,9.953 6.976,9.695 7.057 M4.499 8.040 C 3.363 8.246,2.460 9.049,2.114 10.160 C 1.979 10.594,1.979 11.406,2.114 11.840 C 2.421 12.826,3.174 13.579,4.160 13.886 C 4.594 14.021,5.406 14.021,5.840 13.886 C 6.826 13.579,7.579 12.826,7.886 11.840 C 8.021 11.406,8.021 10.594,7.886 10.160 C 7.581 9.179,6.810 8.407,5.861 8.129 C 5.500 8.023,4.832 7.980,4.499 8.040 M18.523 9.073 C 18.866 9.163,19.198 9.366,19.454 9.642 C 19.883 10.105,19.998 10.479,19.999 11.410 L 20.000 12.000 15.500 12.000 L 11.000 12.000 11.000 10.500 L 11.000 9.000 14.630 9.002 C 17.928 9.004,18.284 9.011,18.523 9.073 M5.310 10.061 C 5.688 10.173,6.000 10.598,6.000 11.001 C 6.000 11.331,5.784 11.696,5.484 11.872 C 5.328 11.963,5.254 11.980,5.000 11.980 C 4.746 11.980,4.672 11.963,4.516 11.872 C 3.935 11.530,3.833 10.774,4.304 10.303 C 4.583 10.024,4.916 9.944,5.310 10.061 M2.695 15.057 C 2.466 15.129,2.256 15.299,2.128 15.516 C 2.037 15.672,2.020 15.746,2.020 16.000 C 2.020 16.256,2.036 16.328,2.131 16.489 C 2.256 16.702,2.449 16.864,2.670 16.943 C 2.893 17.023,21.107 17.023,21.330 16.943 C 21.551 16.864,21.744 16.702,21.869 16.489 C 21.964 16.328,21.980 16.256,21.980 16.000 C 21.980 15.746,21.963 15.672,21.872 15.516 C 21.740 15.293,21.533 15.128,21.290 15.055 C 21.027 14.976,2.947 14.978,2.695 15.057 " stroke="none" fill-rule="evenodd" fill="black"></path></svg>