<svg xmlns="http://www.w3.org/2000/svg" width="24" height="24" viewBox="0 0 24 24" fill="none" stroke="currentColor" stroke-width="2" stroke-linecap="round" stroke-linejoin="round"><path d="M2.670 2.061 C 2.448 2.142,2.250 2.309,2.128 2.516 C 2.036 2.672,2.020 2.745,2.021 3.000 C 2.021 3.212,2.043 3.341,2.095 3.440 C 2.135 3.517,2.846 4.260,3.674 5.090 L 5.179 6.601 4.969 6.803 C 4.526 7.227,4.288 7.606,4.114 8.161 C 3.979 8.593,3.979 9.406,4.114 9.840 C 4.421 10.826,5.174 11.579,6.160 11.886 C 6.594 12.021,7.407 12.021,7.839 11.886 C 8.394 11.712,8.773 11.474,9.197 11.031 L 9.400 10.820 10.200 11.620 L 11.000 12.419 11.000 12.710 L 11.000 13.000 7.001 13.000 L 3.002 13.000 2.991 10.350 L 2.980 7.700 2.871 7.514 C 2.479 6.848,1.521 6.848,1.129 7.514 L 1.020 7.700 1.020 12.503 L 1.020 17.306 1.141 17.503 C 1.543 18.156,2.457 18.156,2.859 17.503 L 2.980 17.307 2.992 16.153 L 3.005 15.000 8.292 15.000 L 13.580 15.000 16.960 18.383 C 18.880 20.304,20.418 21.811,20.520 21.873 C 20.673 21.964,20.746 21.980,21.000 21.980 C 21.257 21.980,21.327 21.964,21.492 21.867 C 21.968 21.587,22.139 20.967,21.865 20.508 C 21.810 20.416,17.665 16.243,12.653 11.235 C 4.231 2.820,3.525 2.125,3.343 2.065 C 3.107 1.987,2.874 1.986,2.670 2.061 M12.695 8.057 C 12.466 8.129,12.256 8.299,12.128 8.516 C 12.037 8.672,12.020 8.746,12.020 9.000 C 12.020 9.256,12.036 9.328,12.131 9.489 C 12.256 9.702,12.449 9.864,12.670 9.943 C 12.790 9.986,13.459 9.997,16.040 10.001 C 18.947 10.004,19.286 10.011,19.523 10.073 C 19.866 10.163,20.198 10.366,20.454 10.642 C 20.883 11.105,20.998 11.479,20.999 12.410 L 21.000 13.000 19.390 13.000 C 17.781 13.001,17.780 13.001,17.580 13.095 C 17.215 13.268,17.002 13.601,17.002 14.000 C 17.002 14.399,17.215 14.732,17.580 14.905 C 17.780 14.999,17.781 14.999,19.388 15.000 L 20.995 15.000 21.008 16.153 L 21.020 17.307 21.141 17.503 C 21.543 18.156,22.457 18.156,22.859 17.503 L 22.980 17.306 22.991 14.475 C 23.002 11.770,22.998 11.625,22.922 11.248 C 22.721 10.264,22.198 9.416,21.438 8.843 C 20.866 8.412,20.276 8.160,19.605 8.058 C 19.071 7.978,12.951 7.977,12.695 8.057 M7.290 8.710 C 7.636 9.056,7.920 9.358,7.920 9.382 C 7.920 9.476,7.661 9.768,7.486 9.871 C 7.328 9.964,7.255 9.980,6.997 9.980 C 6.729 9.980,6.671 9.966,6.502 9.860 C 5.877 9.469,5.841 8.605,6.432 8.185 C 6.513 8.127,6.597 8.080,6.619 8.080 C 6.641 8.080,6.943 8.363,7.290 8.710 " stroke="none" fill-rule="evenodd" fill="black"></path></svg>