<svg xmlns="http://www.w3.org/2000/svg" width="24" height="24" viewBox="0 0 24 24" fill="none" stroke="currentColor" stroke-width="2" stroke-linecap="round" stroke-linejoin="round"><path d="M2.670 2.061 C 2.448 2.142,2.250 2.309,2.128 2.516 C 2.036 2.672,2.020 2.745,2.021 3.000 C 2.021 3.212,2.043 3.341,2.095 3.440 C 2.135 3.517,3.029 4.444,4.080 5.500 L 5.992 7.420 6.012 8.260 C 6.051 9.815,6.333 10.905,7.086 12.411 C 7.557 13.352,7.738 13.868,7.905 14.740 C 7.965 15.049,7.978 15.468,7.997 17.700 L 8.020 20.300 8.131 20.489 C 8.256 20.702,8.449 20.864,8.670 20.943 C 8.891 21.022,15.109 21.022,15.330 20.943 C 15.551 20.864,15.744 20.702,15.869 20.489 L 15.980 20.300 15.992 18.862 L 16.004 17.425 18.212 19.628 C 19.426 20.840,20.483 21.865,20.560 21.905 C 20.659 21.957,20.788 21.979,21.000 21.979 C 21.258 21.980,21.327 21.964,21.492 21.867 C 21.968 21.587,22.139 20.967,21.865 20.508 C 21.810 20.416,17.665 16.243,12.653 11.235 C 4.231 2.820,3.525 2.125,3.343 2.065 C 3.107 1.987,2.874 1.986,2.670 2.061 M7.695 3.057 C 7.466 3.129,7.256 3.299,7.128 3.516 C 7.037 3.672,7.020 3.746,7.020 4.000 C 7.020 4.256,7.036 4.328,7.131 4.489 C 7.256 4.702,7.449 4.864,7.670 4.943 C 7.791 4.986,8.598 4.997,11.910 4.998 L 16.000 5.000 16.000 6.000 L 16.000 7.000 13.946 7.000 C 11.717 7.000,11.666 7.004,11.382 7.221 C 11.302 7.282,11.187 7.415,11.128 7.516 C 11.037 7.672,11.020 7.746,11.020 8.000 C 11.020 8.256,11.036 8.328,11.131 8.489 C 11.256 8.702,11.449 8.864,11.670 8.943 C 11.788 8.985,12.262 8.997,13.870 8.998 L 15.920 9.000 15.920 9.105 C 15.920 9.290,15.716 10.129,15.591 10.460 C 15.525 10.636,15.371 10.994,15.249 11.256 C 15.117 11.538,15.020 11.807,15.009 11.917 C 14.971 12.319,15.185 12.697,15.562 12.891 C 15.752 12.989,15.814 13.002,16.047 12.987 C 16.355 12.969,16.615 12.840,16.778 12.626 C 16.834 12.553,16.976 12.288,17.094 12.037 C 17.497 11.183,17.721 10.482,17.889 9.557 C 17.976 9.074,17.979 8.983,17.979 6.380 L 17.980 3.700 17.872 3.516 C 17.740 3.293,17.533 3.128,17.290 3.055 C 17.029 2.976,7.946 2.978,7.695 3.057 M14.000 17.210 L 14.000 19.000 12.003 19.000 L 10.007 19.000 9.990 16.950 C 9.974 15.063,9.965 14.862,9.885 14.422 C 9.699 13.401,9.493 12.800,8.918 11.600 C 8.501 10.729,8.357 10.377,8.257 9.984 C 8.224 9.850,8.186 9.704,8.174 9.660 C 8.162 9.616,9.468 10.894,11.076 12.500 L 14.000 15.420 14.000 17.210 " stroke="none" fill-rule="evenodd" fill="black"></path></svg>