<svg xmlns="http://www.w3.org/2000/svg" width="24" height="24" viewBox="0 0 24 24" fill="none" stroke="currentColor" stroke-width="2" stroke-linecap="round" stroke-linejoin="round"><path d="M11.499 2.040 C 10.389 2.242,9.473 3.037,9.139 4.090 C 9.055 4.357,9.049 4.365,8.767 4.538 C 7.862 5.096,6.970 5.956,6.363 6.856 C 5.849 7.617,5.469 8.462,5.244 9.341 C 5.042 10.129,5.029 10.285,5.001 12.280 L 4.975 14.180 4.871 14.472 C 4.640 15.118,4.166 15.709,3.572 16.091 C 3.147 16.364,2.969 16.687,3.012 17.108 C 3.051 17.485,3.310 17.815,3.670 17.943 C 3.788 17.985,4.269 17.997,5.910 17.998 L 8.000 18.000 8.000 18.155 C 8.000 18.240,8.026 18.460,8.059 18.645 C 8.284 19.933,9.068 20.996,10.220 21.574 C 10.763 21.846,11.415 22.000,12.029 22.000 C 12.694 22.000,13.601 21.740,13.877 21.471 C 14.496 20.865,14.142 19.849,13.284 19.771 C 13.094 19.754,12.988 19.771,12.735 19.858 C 11.978 20.119,11.230 19.987,10.683 19.495 C 10.315 19.164,10.071 18.699,10.015 18.220 L 9.989 18.000 11.584 17.998 C 13.301 17.996,13.346 17.992,13.619 17.783 C 13.696 17.725,13.808 17.592,13.869 17.489 C 13.964 17.328,13.980 17.256,13.980 17.000 C 13.980 16.746,13.963 16.672,13.872 16.516 C 13.813 16.415,13.698 16.282,13.618 16.221 C 13.323 15.996,13.394 16.000,9.742 16.000 L 6.376 16.000 6.527 15.690 C 6.666 15.404,6.804 15.009,6.924 14.560 C 6.955 14.441,6.981 13.739,6.999 12.480 C 7.021 10.961,7.040 10.510,7.094 10.230 C 7.391 8.673,8.325 7.245,9.620 6.370 C 9.752 6.281,10.031 6.116,10.240 6.004 C 10.449 5.892,10.677 5.735,10.748 5.656 C 10.888 5.498,11.000 5.215,11.000 5.020 C 11.000 4.483,11.473 4.000,12.000 4.000 C 12.527 4.000,13.000 4.483,13.000 5.020 C 13.000 5.215,13.112 5.498,13.252 5.656 C 13.323 5.735,13.551 5.892,13.760 6.004 C 14.251 6.268,14.589 6.497,14.955 6.815 C 15.937 7.666,16.662 8.935,16.905 10.230 C 16.954 10.490,16.978 10.932,16.996 11.943 L 17.020 13.307 17.141 13.503 C 17.543 14.156,18.457 14.156,18.859 13.503 L 18.980 13.306 18.993 12.123 C 19.010 10.608,18.944 9.961,18.682 9.063 C 18.405 8.113,17.863 7.087,17.211 6.280 C 16.710 5.660,15.911 4.957,15.233 4.538 C 14.951 4.365,14.945 4.357,14.861 4.090 C 14.567 3.165,13.787 2.400,12.861 2.129 C 12.500 2.023,11.832 1.980,11.499 2.040 M16.670 16.061 C 16.448 16.142,16.250 16.309,16.128 16.516 C 16.037 16.672,16.020 16.746,16.020 17.000 C 16.020 17.254,16.036 17.328,16.127 17.480 C 16.186 17.579,16.650 18.074,17.157 18.579 L 18.079 19.499 17.124 20.459 C 16.599 20.988,16.138 21.481,16.101 21.555 C 15.872 22.009,16.056 22.601,16.508 22.867 C 16.673 22.964,16.743 22.980,17.000 22.980 C 17.254 22.980,17.328 22.964,17.480 22.873 C 17.579 22.814,18.074 22.350,18.579 21.843 L 19.499 20.921 20.459 21.876 C 20.988 22.401,21.483 22.864,21.560 22.905 C 21.659 22.957,21.787 22.979,22.000 22.979 C 22.258 22.980,22.327 22.964,22.492 22.867 C 22.714 22.737,22.901 22.498,22.965 22.264 C 23.019 22.061,22.989 21.733,22.899 21.555 C 22.862 21.481,22.401 20.988,21.876 20.459 L 20.921 19.499 21.843 18.579 C 22.350 18.074,22.814 17.579,22.873 17.480 C 22.964 17.328,22.980 17.254,22.980 17.000 C 22.980 16.746,22.963 16.672,22.872 16.516 C 22.618 16.084,22.136 15.905,21.657 16.066 C 21.486 16.124,21.330 16.262,20.480 17.104 L 19.500 18.076 18.520 17.104 C 17.671 16.262,17.514 16.124,17.343 16.066 C 17.108 15.987,16.875 15.985,16.670 16.061 " stroke="none" fill-rule="evenodd" fill="black"></path></svg>