<svg xmlns="http://www.w3.org/2000/svg" width="24" height="24" viewBox="0 0 24 24" fill="none" stroke="currentColor" stroke-width="2" stroke-linecap="round" stroke-linejoin="round"><path d="M11.499 2.040 C 10.389 2.242,9.473 3.037,9.139 4.090 C 9.055 4.357,9.049 4.365,8.767 4.538 C 7.862 5.096,6.970 5.956,6.363 6.856 C 5.849 7.617,5.469 8.462,5.244 9.341 C 5.042 10.129,5.029 10.285,5.001 12.280 L 4.975 14.180 4.871 14.472 C 4.640 15.118,4.166 15.709,3.572 16.091 C 3.147 16.364,2.969 16.687,3.012 17.108 C 3.051 17.485,3.310 17.815,3.670 17.943 C 3.788 17.985,4.268 17.997,5.904 17.998 L 7.988 18.000 8.014 18.332 C 8.142 20.004,9.360 21.450,10.987 21.863 C 11.465 21.984,11.647 21.984,11.900 21.865 C 12.279 21.685,12.487 21.366,12.490 20.961 C 12.493 20.452,12.172 20.091,11.600 19.961 C 10.753 19.768,10.125 19.079,10.022 18.230 L 9.994 18.000 10.847 18.000 C 11.661 17.999,11.709 17.995,11.900 17.905 C 12.281 17.724,12.488 17.405,12.488 17.000 C 12.488 16.615,12.293 16.297,11.940 16.106 C 11.781 16.021,11.761 16.020,9.079 16.009 L 6.377 15.998 6.527 15.689 C 6.666 15.404,6.804 15.009,6.924 14.560 C 6.955 14.441,6.981 13.739,6.999 12.480 C 7.021 10.961,7.040 10.510,7.094 10.230 C 7.391 8.673,8.325 7.245,9.620 6.370 C 9.752 6.281,10.031 6.116,10.240 6.004 C 10.449 5.892,10.677 5.735,10.748 5.656 C 10.888 5.498,11.000 5.215,11.000 5.020 C 11.000 4.483,11.473 4.000,12.000 4.000 C 12.527 4.000,13.000 4.483,13.000 5.020 C 13.000 5.215,13.112 5.498,13.252 5.656 C 13.323 5.735,13.551 5.892,13.760 6.004 C 14.251 6.268,14.589 6.497,14.955 6.815 C 15.936 7.665,16.658 8.929,16.906 10.230 C 16.960 10.511,16.978 10.956,16.999 12.500 C 17.028 14.598,17.034 14.655,17.273 14.983 C 17.429 15.200,17.752 15.369,18.015 15.373 C 18.340 15.378,18.546 15.298,18.762 15.081 C 19.021 14.823,19.107 14.548,19.044 14.184 C 19.017 14.032,19.000 13.320,19.000 12.377 C 18.999 11.521,18.981 10.658,18.959 10.460 C 18.818 9.191,18.396 8.017,17.703 6.960 C 17.068 5.992,16.183 5.124,15.233 4.538 C 14.951 4.365,14.945 4.357,14.861 4.090 C 14.567 3.165,13.787 2.400,12.861 2.129 C 12.500 2.023,11.832 1.980,11.499 2.040 M20.640 16.068 C 20.488 16.121,20.196 16.394,18.731 17.853 L 17.002 19.575 16.271 18.855 C 15.655 18.247,15.509 18.123,15.343 18.067 C 14.865 17.905,14.383 18.083,14.128 18.516 C 14.036 18.672,14.020 18.745,14.021 19.000 C 14.021 19.213,14.043 19.341,14.095 19.440 C 14.197 19.633,16.297 21.740,16.520 21.873 C 16.673 21.964,16.745 21.980,17.000 21.979 C 17.212 21.979,17.341 21.957,17.440 21.905 C 17.632 21.805,21.739 17.705,21.873 17.480 C 21.964 17.328,21.980 17.254,21.980 17.000 C 21.980 16.746,21.963 16.672,21.872 16.516 C 21.617 16.083,21.121 15.903,20.640 16.068 " stroke="none" fill-rule="evenodd" fill="black"></path></svg>