<svg xmlns="http://www.w3.org/2000/svg" width="24" height="24" viewBox="0 0 24 24" fill="none" stroke="currentColor" stroke-width="2" stroke-linecap="round" stroke-linejoin="round"><path d="M11.499 2.040 C 10.389 2.242,9.473 3.037,9.139 4.090 C 9.055 4.357,9.049 4.365,8.767 4.538 C 7.862 5.096,6.970 5.956,6.363 6.856 C 5.849 7.617,5.469 8.462,5.244 9.341 C 5.042 10.129,5.029 10.285,5.001 12.280 L 4.975 14.180 4.871 14.472 C 4.640 15.118,4.166 15.709,3.572 16.091 C 3.147 16.364,2.969 16.687,3.012 17.108 C 3.051 17.485,3.310 17.815,3.670 17.943 C 3.788 17.985,4.269 17.997,5.910 17.998 L 8.000 18.000 8.000 18.184 C 8.000 18.466,8.151 19.144,8.289 19.479 C 8.714 20.516,9.490 21.292,10.512 21.704 C 12.558 22.528,14.877 21.538,15.704 19.488 C 15.854 19.115,16.000 18.473,16.000 18.184 L 16.000 18.000 18.073 18.000 C 20.397 18.000,20.385 18.001,20.676 17.719 C 20.882 17.520,20.961 17.361,20.988 17.101 C 21.032 16.674,20.856 16.370,20.382 16.058 C 19.799 15.674,19.360 15.119,19.129 14.472 L 19.025 14.180 18.999 12.280 C 18.971 10.285,18.958 10.129,18.756 9.341 C 18.252 7.369,16.952 5.599,15.233 4.538 C 14.951 4.365,14.945 4.357,14.861 4.090 C 14.567 3.165,13.787 2.400,12.861 2.129 C 12.500 2.023,11.832 1.980,11.499 2.040 M12.310 4.061 C 12.696 4.175,13.000 4.598,13.000 5.020 C 13.000 5.215,13.112 5.498,13.252 5.656 C 13.323 5.735,13.551 5.892,13.760 6.004 C 14.251 6.268,14.589 6.497,14.955 6.815 C 15.936 7.665,16.658 8.929,16.906 10.230 C 16.960 10.510,16.979 10.961,17.001 12.480 C 17.019 13.739,17.045 14.441,17.076 14.560 C 17.196 15.009,17.334 15.404,17.473 15.690 L 17.624 16.000 12.000 16.000 L 6.376 16.000 6.527 15.690 C 6.666 15.404,6.804 15.009,6.924 14.560 C 6.955 14.441,6.981 13.739,6.999 12.480 C 7.021 10.961,7.040 10.510,7.094 10.230 C 7.391 8.673,8.325 7.245,9.620 6.370 C 9.752 6.281,10.030 6.115,10.238 6.003 C 10.446 5.890,10.650 5.767,10.692 5.729 C 10.850 5.586,10.960 5.334,10.999 5.028 C 11.049 4.636,11.114 4.484,11.322 4.283 C 11.589 4.024,11.928 3.947,12.310 4.061 M13.981 18.224 C 13.917 18.740,13.704 19.147,13.319 19.493 C 12.706 20.044,11.825 20.158,11.083 19.781 C 10.816 19.646,10.449 19.297,10.281 19.017 C 10.138 18.780,10.006 18.360,10.002 18.130 L 10.000 18.000 12.005 18.000 L 14.009 18.000 13.981 18.224 " stroke="none" fill-rule="evenodd" fill="black"></path></svg>