<svg xmlns="http://www.w3.org/2000/svg" width="24" height="24" viewBox="0 0 24 24" fill="none" stroke="currentColor" stroke-width="2" stroke-linecap="round" stroke-linejoin="round"><path d="M11.499 2.040 C 10.389 2.242,9.473 3.037,9.139 4.090 C 9.055 4.357,9.049 4.365,8.767 4.538 C 7.862 5.096,6.970 5.956,6.363 6.856 C 5.849 7.617,5.469 8.462,5.244 9.341 C 5.042 10.129,5.029 10.285,5.001 12.280 L 4.975 14.180 4.871 14.472 C 4.640 15.118,4.166 15.709,3.572 16.091 C 3.147 16.364,2.969 16.687,3.012 17.108 C 3.051 17.485,3.310 17.815,3.670 17.943 C 3.788 17.985,4.268 17.997,5.904 17.998 L 7.988 18.000 8.013 18.310 C 8.059 18.896,8.246 19.484,8.556 20.015 C 9.306 21.300,10.744 22.074,12.217 21.987 C 12.740 21.957,12.989 21.880,13.187 21.688 C 13.685 21.205,13.600 20.439,13.012 20.093 C 12.823 19.982,12.810 19.980,12.266 19.991 C 11.807 19.999,11.667 19.988,11.443 19.921 C 10.948 19.773,10.442 19.358,10.216 18.913 C 10.114 18.710,10.002 18.293,10.001 18.110 L 10.000 18.000 11.350 18.000 C 12.687 17.999,12.702 17.998,12.900 17.905 C 13.281 17.724,13.488 17.405,13.488 17.000 C 13.488 16.615,13.293 16.297,12.940 16.106 C 12.780 16.020,12.774 16.020,9.579 16.009 L 6.377 15.998 6.527 15.689 C 6.666 15.404,6.804 15.009,6.924 14.560 C 6.955 14.441,6.981 13.739,6.999 12.480 C 7.021 10.961,7.040 10.510,7.094 10.230 C 7.391 8.673,8.325 7.245,9.620 6.370 C 9.752 6.281,10.031 6.116,10.240 6.004 C 10.449 5.892,10.677 5.735,10.748 5.656 C 10.888 5.498,11.000 5.215,11.000 5.020 C 11.000 4.483,11.473 4.000,12.000 4.000 C 12.527 4.000,13.000 4.483,13.000 5.020 C 13.000 5.215,13.112 5.498,13.252 5.656 C 13.323 5.735,13.551 5.892,13.760 6.004 C 14.967 6.653,15.793 7.499,16.392 8.700 C 16.812 9.542,16.955 10.195,16.994 11.444 L 17.021 12.308 17.142 12.504 C 17.543 13.156,18.457 13.156,18.859 12.503 C 18.979 12.307,18.980 12.304,18.994 11.623 C 19.023 10.141,18.780 9.006,18.171 7.780 C 17.515 6.459,16.459 5.294,15.233 4.538 C 14.951 4.365,14.945 4.357,14.861 4.090 C 14.567 3.165,13.787 2.400,12.861 2.129 C 12.500 2.023,11.832 1.980,11.499 2.040 M18.695 15.057 C 18.466 15.129,18.256 15.299,18.128 15.516 L 18.020 15.700 18.009 17.635 L 17.997 19.571 17.269 18.852 C 16.655 18.247,16.509 18.123,16.343 18.067 C 15.865 17.905,15.383 18.083,15.128 18.516 C 15.036 18.672,15.020 18.745,15.021 19.000 C 15.021 19.212,15.043 19.341,15.095 19.440 C 15.135 19.517,15.891 20.306,16.774 21.194 C 18.528 22.957,18.580 22.999,19.000 22.999 C 19.420 22.999,19.472 22.957,21.226 21.194 C 22.109 20.306,22.865 19.517,22.905 19.440 C 22.957 19.341,22.979 19.212,22.979 19.000 C 22.980 18.745,22.964 18.672,22.872 18.516 C 22.617 18.083,22.135 17.905,21.657 18.067 C 21.491 18.123,21.345 18.247,20.731 18.852 L 20.003 19.571 19.991 17.635 L 19.980 15.700 19.872 15.516 C 19.628 15.101,19.150 14.915,18.695 15.057 " stroke="none" fill-rule="evenodd" fill="black"></path></svg>