<svg xmlns="http://www.w3.org/2000/svg" width="24" height="24" viewBox="0 0 24 24" fill="none" stroke="currentColor" stroke-width="2" stroke-linecap="round" stroke-linejoin="round"><path d="M11.499 2.040 C 10.389 2.242,9.473 3.037,9.139 4.090 C 9.055 4.357,9.049 4.365,8.767 4.538 C 7.862 5.096,6.970 5.956,6.363 6.856 C 5.849 7.617,5.469 8.462,5.244 9.341 C 5.042 10.129,5.029 10.285,5.001 12.280 L 4.975 14.180 4.871 14.472 C 4.640 15.118,4.166 15.709,3.572 16.091 C 3.147 16.364,2.969 16.687,3.012 17.108 C 3.051 17.485,3.310 17.815,3.670 17.943 C 3.788 17.985,4.268 17.997,5.904 17.998 L 7.988 18.000 8.014 18.332 C 8.085 19.266,8.486 20.122,9.180 20.824 C 9.661 21.310,10.213 21.645,10.826 21.823 C 11.498 22.019,12.129 21.564,12.137 20.880 C 12.140 20.660,12.121 20.586,12.016 20.400 C 11.876 20.151,11.696 20.013,11.340 19.883 C 10.611 19.615,10.126 19.007,10.029 18.240 L 9.985 17.893 10.159 17.736 C 10.381 17.537,10.488 17.297,10.488 17.003 C 10.488 16.615,10.294 16.298,9.940 16.106 C 9.784 16.022,9.735 16.020,8.079 16.008 L 6.378 15.997 6.528 15.688 C 6.666 15.404,6.804 15.009,6.924 14.560 C 6.955 14.441,6.981 13.739,6.999 12.480 C 7.021 10.961,7.040 10.510,7.094 10.230 C 7.391 8.673,8.325 7.245,9.620 6.370 C 9.752 6.281,10.031 6.116,10.240 6.004 C 10.449 5.892,10.677 5.735,10.748 5.656 C 10.888 5.498,11.000 5.215,11.000 5.020 C 11.000 4.483,11.473 4.000,12.000 4.000 C 12.527 4.000,13.000 4.483,13.000 5.020 C 13.000 5.207,13.107 5.486,13.240 5.647 C 13.306 5.728,13.494 5.861,13.672 5.954 C 14.913 6.599,15.804 7.503,16.398 8.720 C 16.592 9.116,16.742 9.550,16.900 10.170 C 17.023 10.652,17.333 10.942,17.773 10.988 C 18.350 11.047,18.880 10.575,18.880 10.003 C 18.880 9.823,18.720 9.165,18.567 8.718 C 18.001 7.060,16.774 5.506,15.303 4.583 L 14.946 4.359 14.860 4.088 C 14.567 3.165,13.786 2.400,12.861 2.129 C 12.500 2.023,11.832 1.980,11.499 2.040 M17.372 13.072 C 17.112 13.165,16.870 13.331,16.723 13.517 C 16.661 13.596,16.403 14.074,16.150 14.580 L 15.689 15.501 14.657 15.651 C 13.546 15.812,13.351 15.870,13.063 16.122 C 12.745 16.402,12.575 16.831,12.611 17.267 C 12.646 17.710,12.753 17.864,13.623 18.726 C 14.233 19.330,14.399 19.517,14.384 19.580 C 14.373 19.624,14.289 20.107,14.197 20.653 L 14.030 21.645 14.095 21.913 C 14.262 22.595,14.870 23.044,15.552 22.989 C 15.821 22.968,16.039 22.871,17.330 22.198 L 17.800 21.953 18.270 22.198 C 19.561 22.871,19.779 22.968,20.048 22.989 C 20.724 23.043,21.333 22.598,21.503 21.925 C 21.576 21.635,21.580 21.680,21.357 20.400 L 21.200 19.500 21.979 18.726 C 22.844 17.867,22.944 17.722,22.986 17.276 C 23.027 16.835,22.860 16.406,22.537 16.122 C 22.249 15.870,22.054 15.812,20.943 15.651 L 19.911 15.501 19.434 14.548 C 18.905 13.491,18.773 13.315,18.370 13.130 C 18.069 12.992,17.662 12.969,17.372 13.072 M18.109 16.376 C 18.267 16.693,18.451 17.015,18.518 17.091 C 18.699 17.298,18.948 17.384,19.653 17.484 L 20.285 17.574 19.787 18.077 C 19.512 18.354,19.261 18.634,19.228 18.701 C 19.111 18.935,19.109 19.155,19.217 19.773 C 19.274 20.098,19.320 20.391,19.320 20.424 C 19.320 20.466,19.137 20.389,18.699 20.162 C 18.097 19.850,18.070 19.840,17.800 19.840 C 17.530 19.840,17.503 19.850,16.901 20.162 C 16.413 20.415,16.280 20.469,16.280 20.415 C 16.280 20.378,16.326 20.085,16.383 19.765 C 16.492 19.156,16.489 18.935,16.372 18.701 C 16.339 18.634,16.088 18.354,15.813 18.077 L 15.315 17.574 15.947 17.484 C 16.652 17.384,16.901 17.298,17.082 17.091 C 17.149 17.015,17.333 16.693,17.491 16.376 C 17.649 16.059,17.788 15.800,17.800 15.800 C 17.812 15.800,17.951 16.059,18.109 16.376 " stroke="none" fill-rule="evenodd" fill="black"></path></svg>