<svg xmlns="http://www.w3.org/2000/svg" width="24" height="24" viewBox="0 0 24 24" fill="none" stroke="currentColor" stroke-width="2" stroke-linecap="round" stroke-linejoin="round"><path d="M11.499 2.040 C 10.389 2.242,9.473 3.037,9.139 4.090 C 9.055 4.357,9.049 4.365,8.767 4.538 C 7.862 5.096,6.970 5.956,6.363 6.856 C 5.849 7.617,5.469 8.462,5.244 9.341 C 5.042 10.129,5.029 10.285,5.001 12.280 L 4.975 14.180 4.871 14.472 C 4.640 15.118,4.166 15.709,3.572 16.091 C 3.147 16.364,2.969 16.687,3.012 17.108 C 3.051 17.485,3.310 17.815,3.670 17.943 C 3.788 17.985,4.269 17.997,5.910 17.998 L 8.000 18.000 8.000 18.155 C 8.000 18.522,8.171 19.231,8.362 19.659 C 8.768 20.563,9.574 21.335,10.493 21.697 C 11.066 21.923,11.334 21.973,12.000 21.976 C 12.536 21.978,12.666 21.966,12.960 21.883 C 13.569 21.713,13.766 21.578,13.924 21.221 C 14.138 20.737,13.940 20.177,13.473 19.944 C 13.215 19.816,12.944 19.809,12.523 19.921 C 11.421 20.214,10.353 19.578,10.060 18.455 C 10.027 18.327,10.000 18.173,10.000 18.112 L 10.000 18.000 11.590 17.998 C 13.300 17.996,13.346 17.991,13.619 17.783 C 13.696 17.725,13.808 17.592,13.869 17.489 C 13.964 17.328,13.980 17.256,13.980 17.000 C 13.980 16.746,13.963 16.672,13.872 16.516 C 13.813 16.415,13.698 16.282,13.618 16.221 C 13.323 15.996,13.394 16.000,9.742 16.000 L 6.376 16.000 6.527 15.690 C 6.666 15.404,6.804 15.009,6.924 14.560 C 6.955 14.441,6.981 13.739,6.999 12.480 C 7.021 10.961,7.040 10.510,7.094 10.230 C 7.391 8.673,8.325 7.245,9.620 6.370 C 9.752 6.281,10.031 6.116,10.240 6.004 C 10.449 5.892,10.677 5.735,10.748 5.656 C 10.888 5.498,11.000 5.215,11.000 5.020 C 11.000 4.483,11.473 4.000,12.000 4.000 C 12.527 4.000,13.000 4.483,13.000 5.020 C 13.000 5.206,13.107 5.486,13.239 5.646 C 13.303 5.724,13.487 5.856,13.648 5.940 C 14.388 6.325,15.049 6.832,15.505 7.366 C 16.215 8.196,16.665 9.098,16.881 10.123 C 16.986 10.625,17.024 10.704,17.258 10.910 C 17.830 11.414,18.713 11.120,18.885 10.369 C 18.927 10.184,18.922 10.104,18.844 9.729 C 18.406 7.618,17.089 5.704,15.303 4.583 L 14.946 4.359 14.860 4.088 C 14.567 3.165,13.786 2.400,12.861 2.129 C 12.500 2.023,11.832 1.980,11.499 2.040 M18.695 13.057 C 18.342 13.168,18.095 13.451,18.019 13.835 L 17.976 14.050 17.757 14.118 C 17.003 14.351,16.361 14.980,16.118 15.722 C 16.034 15.976,16.020 16.094,16.022 16.520 C 16.024 16.960,16.038 17.056,16.133 17.320 C 16.394 18.039,16.964 18.609,17.680 18.867 C 17.961 18.968,18.033 18.976,18.800 18.992 C 19.702 19.010,19.786 19.030,19.922 19.252 C 20.021 19.415,20.021 19.585,19.922 19.748 C 19.770 19.996,19.746 20.000,18.248 20.000 C 16.774 20.000,16.653 20.014,16.382 20.221 C 16.302 20.282,16.187 20.415,16.128 20.516 C 16.037 20.672,16.020 20.746,16.020 21.000 C 16.020 21.256,16.036 21.328,16.131 21.489 C 16.256 21.702,16.449 21.864,16.670 21.943 C 16.768 21.978,17.022 21.997,17.405 21.998 L 17.991 22.000 18.018 22.179 C 18.054 22.422,18.258 22.712,18.497 22.859 C 18.671 22.966,18.729 22.980,19.000 22.980 C 19.271 22.980,19.329 22.966,19.503 22.859 C 19.752 22.706,19.949 22.419,19.984 22.160 L 20.010 21.966 20.294 21.873 C 21.001 21.642,21.605 21.046,21.868 20.320 C 21.965 20.052,21.976 19.965,21.976 19.500 C 21.976 19.035,21.965 18.948,21.868 18.680 C 21.646 18.068,21.195 17.561,20.620 17.277 C 20.172 17.055,19.869 17.002,19.068 17.001 C 18.319 17.000,18.216 16.974,18.078 16.748 C 17.932 16.508,18.023 16.193,18.276 16.062 C 18.377 16.010,18.612 16.000,19.788 15.998 C 21.285 15.996,21.350 15.989,21.619 15.783 C 21.696 15.725,21.808 15.592,21.869 15.489 C 21.964 15.328,21.980 15.256,21.980 15.000 C 21.980 14.746,21.963 14.672,21.872 14.516 C 21.634 14.111,21.351 14.000,20.559 14.000 L 20.010 14.000 19.983 13.830 C 19.926 13.473,19.648 13.163,19.290 13.055 C 19.068 12.988,18.913 12.989,18.695 13.057 " stroke="none" fill-rule="evenodd" fill="black"></path></svg>