<svg xmlns="http://www.w3.org/2000/svg" width="24" height="24" viewBox="0 0 24 24" fill="none" stroke="currentColor" stroke-width="2" stroke-linecap="round" stroke-linejoin="round"><path d="M11.499 2.040 C 10.389 2.242,9.473 3.037,9.139 4.090 C 9.055 4.357,9.049 4.365,8.767 4.538 C 7.862 5.096,6.970 5.956,6.363 6.856 C 5.849 7.617,5.469 8.462,5.244 9.341 C 5.042 10.129,5.029 10.285,5.001 12.280 L 4.975 14.180 4.871 14.472 C 4.640 15.118,4.166 15.709,3.572 16.091 C 3.147 16.364,2.969 16.687,3.012 17.108 C 3.051 17.485,3.310 17.815,3.670 17.943 C 3.788 17.985,4.269 17.997,5.910 17.998 L 8.000 18.000 8.000 18.155 C 8.000 18.686,8.256 19.537,8.574 20.059 C 9.087 20.903,9.866 21.511,10.821 21.812 C 11.700 22.089,12.824 22.038,13.500 21.690 C 13.897 21.486,14.106 21.008,13.983 20.585 C 13.798 19.947,13.292 19.716,12.523 19.921 C 11.421 20.214,10.353 19.578,10.060 18.455 C 10.027 18.327,10.000 18.173,10.000 18.112 L 10.000 18.000 11.590 17.998 C 13.300 17.996,13.346 17.991,13.619 17.783 C 13.696 17.725,13.808 17.592,13.869 17.489 C 13.964 17.328,13.980 17.256,13.980 17.000 C 13.980 16.746,13.963 16.672,13.872 16.516 C 13.813 16.415,13.698 16.282,13.618 16.221 C 13.323 15.996,13.394 16.000,9.742 16.000 L 6.376 16.000 6.527 15.690 C 6.666 15.404,6.804 15.009,6.924 14.560 C 6.955 14.441,6.981 13.739,6.999 12.480 C 7.021 10.961,7.040 10.510,7.094 10.230 C 7.391 8.673,8.325 7.245,9.620 6.370 C 9.752 6.281,10.031 6.116,10.240 6.004 C 10.449 5.892,10.677 5.735,10.748 5.656 C 10.888 5.498,11.000 5.215,11.000 5.020 C 11.000 4.483,11.473 4.000,12.000 4.000 C 12.527 4.000,13.000 4.483,13.000 5.020 C 13.000 5.215,13.112 5.498,13.252 5.656 C 13.323 5.735,13.551 5.892,13.760 6.004 C 14.251 6.268,14.589 6.497,14.955 6.815 C 15.937 7.666,16.662 8.935,16.905 10.230 C 16.954 10.490,16.978 10.932,16.996 11.943 L 17.020 13.307 17.141 13.503 C 17.543 14.156,18.457 14.156,18.859 13.503 L 18.980 13.306 18.993 12.123 C 19.010 10.608,18.944 9.961,18.682 9.063 C 18.405 8.113,17.863 7.087,17.211 6.280 C 16.710 5.660,15.911 4.957,15.233 4.538 C 14.951 4.365,14.945 4.357,14.861 4.090 C 14.567 3.165,13.787 2.400,12.861 2.129 C 12.500 2.023,11.832 1.980,11.499 2.040 M16.695 16.057 C 16.466 16.129,16.256 16.299,16.128 16.516 L 16.020 16.700 16.020 19.503 L 16.020 22.306 16.141 22.503 C 16.543 23.156,17.457 23.156,17.859 22.503 L 17.980 22.306 17.980 19.503 L 17.980 16.700 17.872 16.516 C 17.628 16.101,17.150 15.915,16.695 16.057 M20.695 16.057 C 20.466 16.129,20.256 16.299,20.128 16.516 L 20.020 16.700 20.020 19.503 L 20.020 22.306 20.141 22.503 C 20.543 23.156,21.457 23.156,21.859 22.503 L 21.980 22.306 21.980 19.503 L 21.980 16.700 21.872 16.516 C 21.628 16.101,21.150 15.915,20.695 16.057 " stroke="none" fill-rule="evenodd" fill="black"></path></svg>