<svg xmlns="http://www.w3.org/2000/svg" width="24" height="24" viewBox="0 0 24 24" fill="none" stroke="currentColor" stroke-width="2" stroke-linecap="round" stroke-linejoin="round"><path d="M6.499 3.043 C 5.383 3.230,4.461 4.048,4.114 5.160 L 4.020 5.460 4.020 12.000 L 4.020 18.540 4.114 18.840 C 4.422 19.827,5.173 20.578,6.160 20.886 L 6.460 20.980 12.880 20.980 L 19.300 20.980 19.492 20.867 C 19.709 20.739,19.901 20.498,19.960 20.278 C 19.987 20.180,19.997 17.333,19.990 11.914 L 19.980 3.700 19.872 3.516 C 19.740 3.293,19.533 3.128,19.290 3.055 C 19.138 3.009,18.055 3.001,12.904 3.005 C 9.492 3.007,6.609 3.025,6.499 3.043 M18.000 9.999 L 18.000 14.998 12.230 15.010 C 6.918 15.021,6.443 15.028,6.240 15.091 C 6.119 15.128,6.015 15.159,6.010 15.160 C 6.005 15.160,6.000 13.075,6.000 10.527 C 6.000 5.297,5.981 5.625,6.304 5.303 C 6.622 4.984,6.183 5.006,12.430 5.003 L 18.000 5.000 18.000 9.999 M11.695 6.057 C 11.466 6.129,11.256 6.299,11.128 6.516 C 11.025 6.692,11.019 6.728,11.007 7.350 L 10.993 8.000 10.443 8.000 C 9.648 8.000,9.366 8.111,9.128 8.516 C 9.037 8.672,9.020 8.746,9.020 9.000 C 9.020 9.256,9.036 9.328,9.131 9.489 C 9.256 9.702,9.449 9.864,9.670 9.943 C 9.768 9.978,10.022 9.997,10.408 9.998 L 10.997 10.000 11.008 11.653 L 11.020 13.306 11.141 13.503 C 11.543 14.156,12.457 14.156,12.859 13.503 L 12.980 13.306 12.992 11.653 L 13.003 10.000 13.592 9.998 C 13.978 9.997,14.232 9.978,14.330 9.943 C 14.551 9.864,14.744 9.702,14.869 9.489 C 14.964 9.328,14.980 9.256,14.980 9.000 C 14.980 8.746,14.963 8.672,14.872 8.516 C 14.634 8.111,14.352 8.000,13.557 8.000 L 13.007 8.000 12.993 7.350 C 12.981 6.728,12.975 6.692,12.872 6.516 C 12.628 6.101,12.150 5.915,11.695 6.057 M18.000 18.001 L 18.000 19.001 12.350 18.991 L 6.700 18.980 6.516 18.872 C 5.935 18.530,5.833 17.774,6.304 17.303 C 6.622 16.984,6.183 17.006,12.430 17.003 L 18.000 17.000 18.000 18.001 " stroke="none" fill-rule="evenodd" fill="black"></path></svg>