<svg xmlns="http://www.w3.org/2000/svg" width="24" height="24" viewBox="0 0 24 24" fill="none" stroke="currentColor" stroke-width="2" stroke-linecap="round" stroke-linejoin="round"><path d="M2.670 2.061 C 2.448 2.142,2.250 2.309,2.128 2.516 C 2.036 2.672,2.020 2.745,2.021 3.000 C 2.021 3.212,2.043 3.341,2.095 3.440 C 2.135 3.517,3.743 5.157,5.667 7.084 L 9.167 10.587 8.703 10.958 C 8.115 11.427,8.020 11.573,8.021 12.000 C 8.021 12.212,8.043 12.341,8.095 12.440 C 8.136 12.517,8.805 13.219,9.583 14.000 L 10.998 15.420 11.009 17.363 L 11.020 19.306 11.141 19.503 C 11.543 20.156,12.457 20.156,12.859 19.503 L 12.980 19.306 12.991 17.087 C 13.001 15.101,12.996 14.847,12.936 14.664 C 12.876 14.481,12.748 14.338,11.690 13.273 C 10.933 12.512,10.522 12.070,10.541 12.039 C 10.560 12.008,11.385 12.805,12.901 14.321 L 15.232 16.652 15.177 16.809 C 14.978 17.372,14.951 18.335,15.117 18.969 C 15.454 20.264,16.363 21.282,17.599 21.749 C 17.985 21.895,18.587 22.000,19.031 21.999 C 19.393 21.999,19.996 21.904,20.240 21.809 C 20.321 21.777,20.375 21.790,20.520 21.875 C 20.671 21.963,20.748 21.980,21.000 21.980 C 21.257 21.980,21.327 21.964,21.492 21.867 C 21.968 21.587,22.139 20.967,21.865 20.508 C 21.810 20.416,17.665 16.243,12.653 11.235 C 4.231 2.820,3.525 2.125,3.343 2.065 C 3.107 1.987,2.874 1.986,2.670 2.061 M16.477 3.073 C 15.806 3.249,15.238 3.823,15.060 4.508 C 14.941 4.962,15.003 5.492,15.225 5.930 C 15.361 6.199,15.801 6.639,16.070 6.775 C 16.659 7.073,17.341 7.073,17.930 6.775 C 18.196 6.640,18.638 6.200,18.771 5.937 C 18.994 5.498,19.052 5.007,18.940 4.529 C 18.858 4.182,18.720 3.927,18.465 3.653 C 17.948 3.097,17.211 2.882,16.477 3.073 M13.670 7.057 C 13.587 7.087,13.497 7.128,13.470 7.149 C 12.932 7.562,12.182 8.189,12.088 8.303 C 12.020 8.385,11.944 8.541,11.918 8.650 C 11.764 9.289,12.231 9.887,12.882 9.885 C 13.158 9.884,13.283 9.837,13.554 9.633 C 13.671 9.544,13.782 9.487,13.799 9.506 C 13.816 9.525,14.154 10.026,14.550 10.620 C 14.953 11.223,15.327 11.741,15.397 11.792 C 15.673 11.995,15.731 12.000,17.515 11.998 C 19.306 11.996,19.345 11.992,19.619 11.783 C 19.696 11.725,19.808 11.592,19.869 11.489 C 19.964 11.328,19.980 11.256,19.980 11.000 C 19.980 10.746,19.963 10.672,19.872 10.516 C 19.813 10.415,19.698 10.282,19.618 10.221 C 19.349 10.016,19.221 10.000,17.820 10.000 L 16.533 10.000 15.636 8.654 C 15.136 7.904,14.683 7.266,14.612 7.211 C 14.359 7.018,13.961 6.953,13.670 7.057 M4.358 14.061 C 3.230 14.237,2.143 14.974,1.569 15.953 C 0.320 18.083,1.233 20.785,3.512 21.704 C 5.558 22.528,7.877 21.538,8.704 19.488 C 9.090 18.530,9.090 17.469,8.705 16.516 C 8.172 15.197,7.001 14.269,5.605 14.058 C 5.144 13.989,4.816 13.990,4.358 14.061 M18.695 14.057 C 18.051 14.258,17.799 15.040,18.198 15.591 C 18.386 15.850,18.613 15.960,19.048 16.001 C 19.253 16.021,19.511 16.065,19.623 16.098 C 20.079 16.235,20.572 16.669,20.799 17.133 C 20.910 17.362,20.946 17.525,21.021 18.165 C 21.051 18.412,21.236 18.694,21.465 18.839 C 21.938 19.139,22.558 18.992,22.856 18.508 C 22.956 18.345,22.977 18.264,22.991 17.988 C 23.021 17.393,22.784 16.540,22.421 15.932 C 21.834 14.949,20.756 14.232,19.605 14.058 C 19.141 13.989,18.915 13.988,18.695 14.057 M5.523 16.073 C 6.262 16.266,6.850 16.924,6.967 17.690 C 7.067 18.343,6.873 18.933,6.403 19.404 C 6.002 19.807,5.547 20.000,5.000 20.000 C 4.485 20.000,4.038 19.822,3.653 19.465 C 2.323 18.229,3.189 16.005,5.000 16.005 C 5.143 16.005,5.378 16.036,5.523 16.073 M18.442 19.913 C 18.336 19.948,17.845 19.652,17.599 19.404 C 17.356 19.159,17.080 18.707,17.080 18.556 C 17.080 18.525,17.395 18.816,17.780 19.200 C 18.165 19.585,18.463 19.906,18.442 19.913 " stroke="none" fill-rule="evenodd" fill="black"></path></svg>