<svg xmlns="http://www.w3.org/2000/svg" width="24" height="24" viewBox="0 0 24 24" fill="none" stroke="currentColor" stroke-width="2" stroke-linecap="round" stroke-linejoin="round"><path d="M16.477 3.073 C 15.806 3.249,15.238 3.823,15.060 4.508 C 14.941 4.962,15.003 5.492,15.225 5.930 C 15.361 6.199,15.801 6.639,16.070 6.775 C 16.659 7.073,17.341 7.073,17.930 6.775 C 18.196 6.640,18.638 6.200,18.771 5.937 C 18.994 5.498,19.052 5.007,18.940 4.529 C 18.858 4.182,18.720 3.927,18.465 3.653 C 17.948 3.097,17.211 2.882,16.477 3.073 M13.670 7.057 C 13.587 7.087,13.497 7.128,13.470 7.150 C 13.442 7.171,12.250 8.124,10.820 9.267 C 7.895 11.607,8.019 11.485,8.021 12.000 C 8.021 12.212,8.043 12.341,8.095 12.440 C 8.136 12.517,8.805 13.219,9.583 14.000 L 10.998 15.420 11.009 17.363 L 11.020 19.306 11.141 19.503 C 11.543 20.156,12.457 20.156,12.859 19.503 L 12.980 19.306 12.991 17.087 C 13.001 15.101,12.996 14.847,12.936 14.664 C 12.876 14.481,12.748 14.338,11.686 13.270 C 10.979 12.558,10.519 12.066,10.542 12.045 C 10.888 11.731,13.773 9.478,13.797 9.504 C 13.815 9.524,14.154 10.026,14.550 10.620 C 14.953 11.223,15.327 11.741,15.397 11.792 C 15.673 11.995,15.731 12.000,17.515 11.998 C 19.306 11.996,19.345 11.992,19.619 11.783 C 19.696 11.725,19.808 11.592,19.869 11.489 C 19.964 11.328,19.980 11.256,19.980 11.000 C 19.980 10.746,19.963 10.672,19.872 10.516 C 19.813 10.415,19.698 10.282,19.618 10.221 C 19.349 10.016,19.221 10.000,17.820 10.000 L 16.533 10.000 15.636 8.654 C 15.136 7.904,14.683 7.266,14.612 7.211 C 14.359 7.018,13.961 6.953,13.670 7.057 M4.358 14.061 C 3.230 14.237,2.143 14.974,1.569 15.953 C 0.320 18.083,1.233 20.785,3.512 21.704 C 5.558 22.528,7.877 21.538,8.704 19.488 C 9.090 18.530,9.090 17.469,8.705 16.516 C 8.172 15.197,7.001 14.269,5.605 14.058 C 5.144 13.989,4.816 13.990,4.358 14.061 M18.358 14.061 C 17.230 14.237,16.143 14.974,15.569 15.953 C 14.320 18.083,15.233 20.785,17.512 21.704 C 19.558 22.528,21.877 21.538,22.704 19.488 C 23.090 18.530,23.090 17.469,22.705 16.516 C 22.172 15.197,21.001 14.269,19.605 14.058 C 19.144 13.989,18.816 13.990,18.358 14.061 M5.523 16.073 C 6.262 16.266,6.850 16.924,6.967 17.690 C 7.067 18.343,6.873 18.933,6.403 19.404 C 6.002 19.807,5.547 20.000,5.000 20.000 C 4.485 20.000,4.038 19.822,3.653 19.465 C 2.323 18.229,3.189 16.005,5.000 16.005 C 5.143 16.005,5.378 16.036,5.523 16.073 M19.523 16.073 C 20.262 16.266,20.850 16.924,20.967 17.690 C 21.067 18.343,20.873 18.933,20.403 19.404 C 20.002 19.807,19.547 20.000,19.000 20.000 C 18.485 20.000,18.038 19.822,17.653 19.465 C 16.323 18.229,17.189 16.005,19.000 16.005 C 19.143 16.005,19.378 16.036,19.523 16.073 " stroke="none" fill-rule="evenodd" fill="black"></path></svg>