<svg xmlns="http://www.w3.org/2000/svg" width="24" height="24" viewBox="0 0 24 24" fill="none" stroke="currentColor" stroke-width="2" stroke-linecap="round" stroke-linejoin="round"><path d="M9.695 4.057 C 9.466 4.129,9.256 4.299,9.128 4.516 C 9.036 4.672,9.020 4.746,9.020 5.003 C 9.020 5.271,9.034 5.329,9.141 5.503 C 9.288 5.741,9.577 5.946,9.820 5.982 L 9.997 6.009 10.009 8.158 L 10.020 10.306 10.141 10.503 C 10.543 11.156,11.457 11.156,11.859 10.503 L 11.980 10.306 11.980 7.503 L 11.980 4.700 11.872 4.516 C 11.740 4.293,11.533 4.128,11.290 4.055 C 11.050 3.983,9.928 3.984,9.695 4.057 M15.174 4.040 C 14.753 4.127,14.330 4.476,14.132 4.900 L 14.020 5.140 14.020 7.500 L 14.020 9.860 14.133 10.104 C 14.276 10.413,14.585 10.721,14.900 10.868 L 15.140 10.980 16.500 10.980 L 17.860 10.980 18.100 10.868 C 18.415 10.721,18.724 10.413,18.867 10.104 L 18.980 9.860 18.980 7.500 L 18.980 5.140 18.868 4.900 C 18.721 4.585,18.413 4.276,18.104 4.133 L 17.860 4.020 16.600 4.013 C 15.907 4.009,15.265 4.021,15.174 4.040 M17.000 7.500 L 17.000 9.000 16.500 9.000 L 16.000 9.000 16.000 7.500 L 16.000 6.000 16.500 6.000 L 17.000 6.000 17.000 7.500 M5.695 9.055 C 5.464 9.130,5.255 9.300,5.128 9.516 C 5.037 9.672,5.020 9.746,5.020 10.000 C 5.020 10.257,5.036 10.327,5.133 10.492 C 5.651 11.374,6.998 11.018,6.998 10.000 C 6.998 9.623,6.792 9.281,6.463 9.112 C 6.265 9.010,5.911 8.984,5.695 9.055 M10.174 13.040 C 9.753 13.127,9.330 13.476,9.132 13.900 L 9.020 14.140 9.020 16.500 L 9.020 18.860 9.133 19.104 C 9.276 19.413,9.585 19.721,9.900 19.868 L 10.140 19.980 11.500 19.980 L 12.860 19.980 13.100 19.868 C 13.415 19.721,13.724 19.413,13.867 19.104 L 13.980 18.860 13.980 16.500 L 13.980 14.140 13.868 13.900 C 13.721 13.585,13.413 13.276,13.104 13.133 L 12.860 13.020 11.600 13.013 C 10.907 13.009,10.265 13.021,10.174 13.040 M16.695 13.057 C 16.466 13.129,16.256 13.299,16.128 13.516 C 16.036 13.672,16.020 13.746,16.020 14.003 C 16.020 14.271,16.034 14.329,16.141 14.503 C 16.288 14.741,16.577 14.946,16.820 14.982 L 16.997 15.009 17.009 17.158 L 17.020 19.306 17.141 19.503 C 17.543 20.156,18.457 20.156,18.859 19.503 L 18.980 19.306 18.980 16.503 L 18.980 13.700 18.872 13.516 C 18.740 13.293,18.533 13.128,18.290 13.055 C 18.050 12.983,16.928 12.984,16.695 13.057 M12.000 16.500 L 12.000 18.000 11.500 18.000 L 11.000 18.000 11.000 16.500 L 11.000 15.000 11.500 15.000 L 12.000 15.000 12.000 16.500 M5.695 18.055 C 5.464 18.130,5.255 18.300,5.128 18.516 C 5.037 18.672,5.020 18.746,5.020 19.000 C 5.020 19.257,5.036 19.327,5.133 19.492 C 5.651 20.374,6.998 20.018,6.998 19.000 C 6.998 18.623,6.792 18.281,6.463 18.112 C 6.265 18.010,5.911 17.984,5.695 18.055 " stroke="none" fill-rule="evenodd" fill="black"></path></svg>