<svg xmlns="http://www.w3.org/2000/svg" width="24" height="24" viewBox="0 0 24 24" fill="none" stroke="currentColor" stroke-width="2" stroke-linecap="round" stroke-linejoin="round"><path d="M2.670 2.061 C 2.448 2.142,2.250 2.309,2.128 2.516 C 2.036 2.672,2.020 2.745,2.021 3.000 C 2.021 3.212,2.043 3.341,2.095 3.440 C 2.135 3.517,4.283 5.697,6.869 8.285 L 11.570 12.991 10.855 13.007 C 10.176 13.022,10.128 13.029,9.896 13.134 C 9.587 13.275,9.280 13.583,9.132 13.900 L 9.020 14.140 9.020 16.500 L 9.020 18.860 9.132 19.100 C 9.279 19.415,9.587 19.724,9.896 19.867 L 10.140 19.980 11.500 19.980 L 12.860 19.980 13.104 19.867 C 13.413 19.724,13.721 19.415,13.868 19.100 L 13.980 18.860 13.992 17.142 L 14.003 15.424 15.502 16.922 L 17.000 18.420 17.002 18.800 C 17.004 19.215,17.054 19.405,17.217 19.619 C 17.453 19.929,17.942 20.077,18.306 19.950 L 18.473 19.892 19.406 20.829 C 19.920 21.344,20.421 21.814,20.520 21.873 C 20.672 21.964,20.746 21.980,21.000 21.980 C 21.257 21.980,21.327 21.964,21.492 21.867 C 21.968 21.587,22.139 20.967,21.865 20.508 C 21.810 20.416,17.665 16.243,12.653 11.235 C 4.231 2.820,3.525 2.125,3.343 2.065 C 3.107 1.987,2.874 1.986,2.670 2.061 M9.695 4.057 C 9.466 4.129,9.256 4.299,9.128 4.516 C 9.036 4.672,9.020 4.746,9.020 5.003 C 9.020 5.271,9.034 5.329,9.141 5.503 C 9.287 5.741,9.577 5.946,9.818 5.982 L 9.993 6.008 10.007 6.657 C 10.020 7.300,10.021 7.309,10.141 7.503 C 10.543 8.156,11.457 8.156,11.859 7.503 L 11.980 7.306 11.980 6.003 L 11.980 4.700 11.872 4.516 C 11.740 4.293,11.533 4.128,11.290 4.055 C 11.050 3.983,9.928 3.984,9.695 4.057 M15.174 4.040 C 14.753 4.127,14.330 4.476,14.132 4.900 L 14.020 5.140 14.020 7.500 L 14.020 9.860 14.133 10.104 C 14.276 10.413,14.585 10.721,14.900 10.868 L 15.140 10.980 16.500 10.980 L 17.860 10.980 18.100 10.868 C 18.415 10.721,18.724 10.413,18.867 10.104 L 18.980 9.860 18.980 7.500 L 18.980 5.140 18.868 4.900 C 18.721 4.585,18.413 4.276,18.104 4.133 L 17.860 4.020 16.600 4.013 C 15.907 4.009,15.265 4.021,15.174 4.040 M17.000 7.500 L 17.000 9.000 16.500 9.000 L 16.000 9.000 16.000 7.500 L 16.000 6.000 16.500 6.000 L 17.000 6.000 17.000 7.500 M5.695 9.057 C 5.466 9.129,5.256 9.299,5.128 9.516 C 5.036 9.672,5.020 9.745,5.021 10.000 C 5.022 10.332,5.101 10.533,5.306 10.728 C 5.785 11.181,6.580 11.046,6.893 10.460 C 7.025 10.211,7.015 9.760,6.872 9.516 C 6.628 9.101,6.150 8.915,5.695 9.057 M12.000 16.500 L 12.000 18.000 11.500 18.000 L 11.000 18.000 11.000 16.500 L 11.000 15.000 11.500 15.000 L 12.000 15.000 12.000 16.500 M5.695 18.057 C 5.466 18.129,5.256 18.299,5.128 18.516 C 5.036 18.672,5.020 18.745,5.021 19.000 C 5.022 19.332,5.101 19.533,5.306 19.728 C 5.785 20.181,6.580 20.046,6.893 19.460 C 7.025 19.211,7.015 18.760,6.872 18.516 C 6.628 18.101,6.150 17.915,5.695 18.057 " stroke="none" fill-rule="evenodd" fill="black"></path></svg>