<svg xmlns="http://www.w3.org/2000/svg" width="24" height="24" viewBox="0 0 24 24" fill="none" stroke="currentColor" stroke-width="2" stroke-linecap="round" stroke-linejoin="round"><path d="M2.670 2.061 C 2.448 2.142,2.250 2.309,2.128 2.516 C 2.036 2.672,2.020 2.745,2.021 3.000 C 2.021 3.212,2.043 3.341,2.095 3.440 C 2.135 3.517,3.118 4.534,4.279 5.700 L 6.390 7.820 6.498 8.176 C 6.558 8.372,6.650 8.631,6.703 8.751 C 6.756 8.871,6.800 8.986,6.800 9.005 C 6.800 9.024,6.732 9.040,6.650 9.040 C 6.441 9.040,5.920 9.143,5.540 9.260 C 3.506 9.885,1.929 11.674,1.585 13.746 C 1.441 14.616,1.465 15.017,1.682 15.316 C 2.016 15.778,2.628 15.876,3.086 15.541 C 3.368 15.335,3.469 15.092,3.517 14.500 C 3.578 13.764,3.738 13.276,4.103 12.711 C 4.606 11.934,5.397 11.364,6.323 11.113 C 6.608 11.035,6.753 11.022,7.260 11.024 C 7.930 11.028,8.266 11.095,8.768 11.326 C 9.002 11.434,9.038 11.464,9.016 11.534 C 9.002 11.578,8.991 11.796,8.992 12.017 C 8.998 13.173,9.642 14.213,10.649 14.694 L 10.997 14.860 10.975 15.060 C 10.881 15.919,10.663 16.465,10.165 17.089 C 9.898 17.424,9.726 17.586,9.354 17.852 C 8.825 18.229,8.284 18.411,7.435 18.495 C 6.858 18.552,6.733 18.595,6.534 18.807 C 6.133 19.233,6.157 19.859,6.588 20.239 C 6.818 20.441,7.007 20.495,7.454 20.488 C 8.418 20.473,9.553 20.111,10.403 19.549 C 10.921 19.206,11.482 18.678,11.850 18.188 L 11.995 17.996 12.150 18.192 C 12.938 19.189,13.828 19.828,14.940 20.195 C 15.493 20.378,15.852 20.444,16.429 20.468 C 16.946 20.490,16.963 20.488,17.182 20.381 C 17.456 20.247,17.658 19.989,17.720 19.695 C 17.760 19.508,17.755 19.429,17.692 19.180 C 17.681 19.136,18.290 19.715,19.046 20.466 C 19.802 21.217,20.483 21.864,20.560 21.905 C 20.659 21.957,20.787 21.979,21.000 21.979 C 21.258 21.980,21.327 21.964,21.492 21.867 C 21.968 21.587,22.139 20.967,21.865 20.508 C 21.810 20.416,17.665 16.243,12.653 11.235 C 4.231 2.820,3.525 2.125,3.343 2.065 C 3.107 1.987,2.874 1.986,2.670 2.061 M8.436 2.157 C 8.172 2.209,7.928 2.392,7.608 2.778 C 7.043 3.461,6.902 3.791,7.000 4.202 C 7.145 4.806,7.819 5.130,8.380 4.865 C 8.594 4.764,8.716 4.647,8.910 4.360 C 8.977 4.261,9.140 4.057,9.273 3.907 C 9.512 3.637,9.640 3.377,9.640 3.160 C 9.640 2.940,9.515 2.632,9.354 2.458 C 9.130 2.215,8.762 2.094,8.436 2.157 M15.173 2.159 C 14.925 2.197,14.642 2.391,14.501 2.618 C 14.392 2.794,14.380 2.847,14.381 3.137 C 14.382 3.519,14.412 3.584,14.767 3.985 C 15.168 4.437,15.461 4.984,15.624 5.580 C 15.712 5.902,15.743 6.727,15.682 7.106 C 15.593 7.658,15.389 8.149,15.037 8.660 C 14.796 9.009,14.537 9.266,14.089 9.600 C 13.808 9.809,13.718 9.903,13.630 10.077 C 13.283 10.762,13.812 11.562,14.590 11.529 C 14.684 11.525,14.927 11.452,15.130 11.366 C 15.334 11.280,15.590 11.182,15.700 11.147 C 16.399 10.928,17.359 10.966,18.075 11.241 C 19.427 11.760,20.376 13.029,20.463 14.438 C 20.495 14.955,20.570 15.207,20.752 15.408 C 21.130 15.828,21.792 15.842,22.196 15.437 C 22.420 15.214,22.478 15.036,22.479 14.577 C 22.481 13.555,22.095 12.370,21.463 11.462 C 20.589 10.206,19.174 9.307,17.720 9.083 C 17.087 8.986,17.151 9.013,17.221 8.878 C 17.458 8.420,17.667 7.600,17.717 6.937 C 17.836 5.339,17.282 3.736,16.219 2.606 C 15.843 2.207,15.583 2.096,15.173 2.159 M11.300 12.720 C 11.340 12.764,11.363 12.800,11.352 12.800 C 11.341 12.800,11.300 12.764,11.260 12.720 C 11.220 12.676,11.197 12.640,11.208 12.640 C 11.219 12.640,11.260 12.676,11.300 12.720 M15.220 16.644 C 16.276 17.702,17.104 18.557,17.060 18.545 C 17.016 18.532,16.773 18.503,16.520 18.481 C 16.267 18.459,15.926 18.404,15.763 18.358 C 14.267 17.943,13.186 16.663,13.020 15.112 L 12.991 14.844 13.126 14.785 C 13.199 14.753,13.269 14.725,13.280 14.723 C 13.291 14.721,14.164 15.586,15.220 16.644 " stroke="none" fill-rule="evenodd" fill="black"></path></svg>