<svg xmlns="http://www.w3.org/2000/svg" width="24" height="24" viewBox="0 0 24 24" fill="none" stroke="currentColor" stroke-width="2" stroke-linecap="round" stroke-linejoin="round"><path d="M8.436 2.157 C 8.096 2.224,7.756 2.530,7.269 3.210 C 7.011 3.569,6.694 4.201,6.541 4.660 C 6.109 5.958,6.151 7.367,6.657 8.633 C 6.736 8.829,6.800 9.001,6.800 9.015 C 6.800 9.029,6.732 9.040,6.650 9.040 C 6.441 9.040,5.920 9.143,5.540 9.260 C 3.506 9.885,1.929 11.674,1.585 13.746 C 1.441 14.616,1.465 15.017,1.682 15.316 C 2.016 15.778,2.628 15.876,3.086 15.541 C 3.368 15.335,3.469 15.092,3.517 14.500 C 3.578 13.764,3.738 13.276,4.103 12.711 C 4.606 11.934,5.397 11.364,6.323 11.113 C 6.608 11.035,6.753 11.022,7.260 11.024 C 7.926 11.028,8.267 11.095,8.757 11.322 L 9.020 11.443 9.020 11.991 C 9.021 12.453,9.035 12.587,9.114 12.840 C 9.365 13.645,9.931 14.318,10.670 14.688 L 11.001 14.854 10.977 15.057 C 10.874 15.936,10.663 16.464,10.165 17.089 C 9.898 17.424,9.726 17.586,9.354 17.852 C 8.825 18.229,8.284 18.411,7.435 18.495 C 6.858 18.552,6.733 18.595,6.534 18.807 C 6.133 19.233,6.157 19.859,6.588 20.239 C 6.818 20.441,7.007 20.495,7.454 20.488 C 8.418 20.473,9.553 20.111,10.403 19.549 C 10.921 19.206,11.482 18.678,11.850 18.188 L 11.995 17.996 12.150 18.192 C 12.938 19.189,13.828 19.828,14.940 20.195 C 15.493 20.378,15.852 20.444,16.429 20.468 C 16.946 20.490,16.963 20.488,17.182 20.381 C 17.843 20.058,17.935 19.151,17.351 18.706 C 17.155 18.556,17.050 18.528,16.532 18.482 C 16.273 18.460,15.926 18.404,15.763 18.358 C 14.269 17.943,13.186 16.662,13.020 15.118 L 12.992 14.857 13.326 14.690 C 14.059 14.323,14.625 13.658,14.882 12.860 C 14.957 12.629,14.974 12.479,14.980 12.001 L 14.987 11.421 15.229 11.313 C 15.807 11.052,16.680 10.937,17.309 11.039 C 18.495 11.230,19.519 11.967,20.069 13.023 C 20.304 13.475,20.437 13.966,20.477 14.522 C 20.513 15.045,20.589 15.264,20.805 15.468 C 21.195 15.838,21.827 15.817,22.211 15.421 C 22.453 15.172,22.495 15.003,22.468 14.389 C 22.410 13.107,21.904 11.891,21.013 10.892 C 20.182 9.960,18.945 9.280,17.741 9.093 C 17.520 9.059,17.299 9.024,17.250 9.015 L 17.159 8.998 17.235 8.849 C 17.458 8.411,17.659 7.616,17.724 6.909 C 17.864 5.412,17.271 3.722,16.208 2.592 C 15.884 2.248,15.690 2.150,15.335 2.153 C 14.789 2.156,14.360 2.577,14.360 3.109 C 14.361 3.411,14.429 3.583,14.652 3.842 C 15.465 4.788,15.753 5.554,15.708 6.660 C 15.671 7.592,15.350 8.374,14.728 9.046 C 14.532 9.257,14.089 9.623,13.974 9.668 C 13.948 9.678,13.822 9.615,13.694 9.528 C 13.133 9.148,12.712 9.023,12.000 9.023 C 11.287 9.023,10.867 9.148,10.304 9.529 C 10.072 9.686,10.065 9.688,9.939 9.628 C 9.738 9.532,9.099 8.900,8.899 8.598 C 8.392 7.836,8.166 6.913,8.277 6.059 C 8.385 5.223,8.677 4.593,9.276 3.905 C 9.512 3.634,9.640 3.373,9.640 3.160 C 9.640 2.940,9.515 2.632,9.354 2.458 C 9.130 2.215,8.762 2.094,8.436 2.157 M12.260 11.044 C 12.612 11.138,12.881 11.426,12.967 11.799 C 13.061 12.204,12.860 12.651,12.486 12.871 C 12.328 12.964,12.255 12.980,12.000 12.980 C 11.746 12.980,11.672 12.963,11.516 12.872 C 10.935 12.530,10.833 11.774,11.304 11.303 C 11.567 11.039,11.904 10.948,12.260 11.044 " stroke="none" fill-rule="evenodd" fill="black"></path></svg>