<svg xmlns="http://www.w3.org/2000/svg" width="24" height="24" viewBox="0 0 24 24" fill="none" stroke="currentColor" stroke-width="2" stroke-linecap="round" stroke-linejoin="round"><path d="M12.703 2.445 C 12.510 2.466,12.334 2.519,12.123 2.622 C 11.828 2.765,11.700 2.889,7.292 7.295 C 2.847 11.737,2.761 11.826,2.622 12.120 C 2.345 12.711,2.345 13.300,2.623 13.880 C 2.727 14.097,2.853 14.261,3.165 14.582 L 3.572 15.000 3.165 15.418 C 2.853 15.739,2.727 15.903,2.623 16.120 C 2.344 16.701,2.345 17.290,2.623 17.880 C 2.757 18.165,2.843 18.259,4.292 19.708 C 5.721 21.136,5.839 21.244,6.112 21.374 C 6.700 21.654,7.289 21.656,7.871 21.381 C 8.099 21.273,8.253 21.155,8.581 20.835 L 9.000 20.428 9.419 20.835 C 9.747 21.155,9.901 21.273,10.129 21.381 C 10.711 21.656,11.300 21.654,11.888 21.375 C 12.171 21.240,12.322 21.093,16.708 16.708 C 21.151 12.265,21.239 12.174,21.377 11.880 C 21.655 11.289,21.655 10.700,21.377 10.120 C 21.273 9.903,21.147 9.739,20.835 9.418 L 20.428 9.000 20.835 8.581 C 21.155 8.253,21.273 8.099,21.381 7.871 C 21.656 7.289,21.654 6.700,21.374 6.112 C 21.244 5.838,21.139 5.724,19.708 4.295 C 18.279 2.869,18.160 2.761,17.879 2.624 C 17.530 2.453,17.164 2.398,16.711 2.446 C 16.257 2.495,15.922 2.682,15.416 3.169 L 15.000 3.570 14.585 3.170 C 14.020 2.626,13.743 2.487,13.100 2.426 C 13.034 2.420,12.855 2.428,12.703 2.445 M13.425 4.841 C 13.739 5.147,13.903 5.274,14.120 5.377 C 14.698 5.654,15.291 5.655,15.871 5.381 C 16.099 5.273,16.253 5.155,16.583 4.833 L 17.004 4.424 18.290 5.710 L 19.576 6.996 19.167 7.417 C 18.845 7.747,18.727 7.901,18.619 8.129 C 18.345 8.709,18.346 9.302,18.623 9.880 C 18.727 10.098,18.854 10.261,19.167 10.584 L 19.576 11.004 15.291 15.289 L 11.005 19.575 10.586 19.171 C 10.078 18.682,9.743 18.495,9.289 18.446 C 8.523 18.364,8.071 18.539,7.414 19.171 L 6.995 19.575 5.709 18.289 L 4.424 17.004 4.833 16.584 C 5.146 16.261,5.273 16.098,5.377 15.880 C 5.654 15.302,5.655 14.709,5.381 14.129 C 5.273 13.901,5.155 13.747,4.833 13.417 L 4.424 12.996 8.702 8.718 C 11.055 6.365,12.987 4.440,12.996 4.440 C 13.005 4.440,13.198 4.620,13.425 4.841 M13.670 7.061 C 13.448 7.142,13.250 7.309,13.128 7.516 C 13.036 7.672,13.020 7.745,13.021 8.000 C 13.022 8.354,13.076 8.476,13.373 8.790 L 13.575 9.004 13.058 9.523 L 12.540 10.041 12.196 10.015 C 11.533 9.965,10.972 10.181,10.534 10.653 C 10.131 11.089,9.975 11.539,10.013 12.163 L 10.036 12.545 9.521 13.059 L 9.006 13.572 8.759 13.349 C 8.395 13.019,8.056 12.928,7.684 13.058 C 7.450 13.141,7.253 13.303,7.128 13.516 C 7.036 13.672,7.020 13.745,7.021 14.000 C 7.022 14.354,7.076 14.476,7.371 14.788 L 7.572 15.000 7.371 15.212 C 7.076 15.524,7.022 15.646,7.021 16.000 C 7.020 16.258,7.036 16.327,7.133 16.492 C 7.338 16.842,7.705 17.029,8.105 16.988 C 8.368 16.961,8.523 16.879,8.788 16.629 L 9.000 16.428 9.212 16.629 C 9.477 16.879,9.632 16.961,9.895 16.988 C 10.295 17.029,10.662 16.842,10.867 16.492 C 10.964 16.327,10.980 16.258,10.979 16.000 C 10.978 15.646,10.924 15.524,10.627 15.210 L 10.425 14.996 10.940 14.480 L 11.455 13.964 11.837 13.987 C 12.271 14.013,12.577 13.954,12.929 13.775 C 13.196 13.640,13.638 13.200,13.771 12.937 C 13.973 12.539,14.051 12.009,13.964 11.634 L 13.930 11.489 14.463 10.957 L 14.996 10.425 15.210 10.627 C 15.477 10.879,15.632 10.961,15.895 10.988 C 16.295 11.029,16.662 10.842,16.867 10.492 C 16.964 10.327,16.980 10.258,16.979 10.000 C 16.978 9.646,16.924 9.524,16.629 9.212 L 16.428 9.000 16.629 8.788 C 16.924 8.476,16.978 8.354,16.979 8.000 C 16.980 7.745,16.964 7.672,16.872 7.516 C 16.747 7.303,16.550 7.141,16.316 7.058 C 15.946 6.928,15.605 7.019,15.244 7.346 L 15.000 7.567 14.756 7.346 C 14.396 7.020,14.037 6.926,13.670 7.061 " stroke="none" fill-rule="evenodd" fill="black"></path></svg>