<svg xmlns="http://www.w3.org/2000/svg" width="24" height="24" viewBox="0 0 24 24" fill="none" stroke="currentColor" stroke-width="2" stroke-linecap="round" stroke-linejoin="round"><path d="M11.632 2.001 C 10.711 2.111,9.921 2.623,9.415 3.440 C 9.133 3.894,8.631 4.773,8.534 4.980 C 8.160 5.783,8.924 6.625,9.766 6.338 C 10.054 6.240,10.226 6.031,10.714 5.185 C 10.963 4.752,11.209 4.348,11.260 4.288 C 11.416 4.101,11.704 3.984,12.000 3.985 C 12.299 3.986,12.507 4.075,12.705 4.286 C 12.795 4.383,18.879 14.819,19.835 16.518 C 19.897 16.627,19.954 16.823,19.985 17.029 C 20.044 17.429,20.171 17.669,20.411 17.833 C 21.013 18.247,21.814 17.924,21.963 17.208 C 22.019 16.936,21.966 16.472,21.833 16.076 C 21.779 15.913,20.470 13.614,18.249 9.780 C 16.325 6.458,14.670 3.608,14.571 3.448 C 13.933 2.411,12.814 1.860,11.632 2.001 M2.670 2.061 C 2.448 2.142,2.250 2.309,2.128 2.516 C 2.036 2.672,2.020 2.745,2.021 3.000 C 2.021 3.212,2.043 3.341,2.095 3.440 C 2.135 3.517,3.186 4.600,4.430 5.846 L 6.692 8.113 6.570 8.329 C 6.503 8.448,5.499 10.182,4.339 12.182 C 3.179 14.183,2.205 15.891,2.174 15.977 C 1.996 16.479,1.951 17.104,2.058 17.606 C 2.247 18.497,2.861 19.292,3.660 19.679 C 4.333 20.006,3.601 19.977,11.520 19.990 L 18.579 20.001 19.500 20.916 C 20.006 21.419,20.483 21.864,20.560 21.905 C 20.659 21.957,20.787 21.979,21.000 21.979 C 21.258 21.980,21.327 21.964,21.492 21.867 C 21.968 21.587,22.139 20.967,21.865 20.508 C 21.810 20.416,17.665 16.243,12.653 11.235 C 4.231 2.820,3.525 2.125,3.343 2.065 C 3.107 1.987,2.874 1.986,2.670 2.061 M15.170 17.991 C 14.406 17.996,11.737 17.996,9.240 17.991 L 4.700 17.980 4.535 17.892 C 4.113 17.666,3.887 17.108,4.055 16.706 C 4.111 16.573,8.054 9.746,8.133 9.647 C 8.165 9.607,9.137 10.557,12.367 13.787 L 16.560 17.980 15.170 17.991 " stroke="none" fill-rule="evenodd" fill="black"></path></svg>