<svg xmlns="http://www.w3.org/2000/svg" width="24" height="24" viewBox="0 0 24 24" fill="none" stroke="currentColor" stroke-width="2" stroke-linecap="round" stroke-linejoin="round"><path d="M4.293 4.582 C 3.420 4.774,2.564 5.506,2.218 6.357 C 2.023 6.838,2.000 7.084,2.000 8.730 C 2.000 10.391,2.012 10.510,2.225 10.930 C 2.361 11.199,2.801 11.639,3.070 11.775 C 3.508 11.997,4.038 12.059,4.492 11.940 C 4.852 11.847,5.118 11.690,5.404 11.404 C 5.920 10.889,6.106 10.236,5.940 9.529 C 5.852 9.156,5.699 8.891,5.404 8.597 C 5.079 8.273,4.742 8.099,4.306 8.030 L 3.991 7.981 4.008 7.600 C 4.027 7.161,4.101 6.979,4.352 6.752 C 4.529 6.592,4.670 6.539,5.020 6.499 C 5.464 6.449,5.729 6.270,5.905 5.900 C 6.134 5.415,5.891 4.790,5.391 4.582 C 5.207 4.505,4.644 4.505,4.293 4.582 M10.293 4.582 C 9.420 4.774,8.564 5.506,8.218 6.357 C 8.023 6.838,8.000 7.084,8.000 8.730 C 8.000 10.391,8.012 10.510,8.225 10.930 C 8.361 11.199,8.801 11.639,9.070 11.775 C 9.508 11.997,10.038 12.059,10.492 11.940 C 10.852 11.847,11.118 11.690,11.404 11.404 C 11.920 10.889,12.106 10.236,11.940 9.529 C 11.852 9.156,11.699 8.891,11.404 8.597 C 11.079 8.273,10.742 8.099,10.306 8.030 L 9.991 7.981 10.008 7.600 C 10.027 7.161,10.101 6.979,10.352 6.752 C 10.529 6.592,10.670 6.539,11.020 6.499 C 11.464 6.449,11.729 6.270,11.905 5.900 C 12.134 5.415,11.891 4.790,11.391 4.582 C 11.207 4.505,10.644 4.505,10.293 4.582 M14.695 6.057 C 14.466 6.129,14.256 6.299,14.128 6.516 C 14.037 6.672,14.020 6.746,14.020 7.000 C 14.020 7.256,14.036 7.328,14.131 7.489 C 14.256 7.702,14.449 7.864,14.670 7.943 C 14.891 8.022,21.109 8.022,21.330 7.943 C 21.551 7.864,21.744 7.702,21.869 7.489 C 21.964 7.328,21.980 7.256,21.980 7.000 C 21.980 6.746,21.963 6.672,21.872 6.516 C 21.740 6.293,21.533 6.128,21.290 6.055 C 21.030 5.977,14.945 5.979,14.695 6.057 M14.695 10.057 C 14.466 10.129,14.256 10.299,14.128 10.516 C 14.037 10.672,14.020 10.746,14.020 11.000 C 14.020 11.256,14.036 11.328,14.131 11.489 C 14.256 11.702,14.449 11.864,14.670 11.943 C 14.891 12.022,21.109 12.022,21.330 11.943 C 21.551 11.864,21.744 11.702,21.869 11.489 C 21.964 11.328,21.980 11.256,21.980 11.000 C 21.980 10.746,21.963 10.672,21.872 10.516 C 21.740 10.293,21.533 10.128,21.290 10.055 C 21.030 9.977,14.945 9.979,14.695 10.057 M5.695 14.057 C 5.466 14.129,5.256 14.299,5.128 14.516 C 5.037 14.672,5.020 14.746,5.020 15.000 C 5.020 15.256,5.036 15.328,5.131 15.489 C 5.256 15.702,5.449 15.864,5.670 15.943 C 5.893 16.022,21.107 16.022,21.330 15.943 C 21.551 15.864,21.744 15.702,21.869 15.489 C 21.964 15.328,21.980 15.256,21.980 15.000 C 21.980 14.746,21.963 14.672,21.872 14.516 C 21.740 14.293,21.533 14.128,21.290 14.055 C 21.027 13.976,5.947 13.978,5.695 14.057 M5.695 18.057 C 5.466 18.129,5.256 18.299,5.128 18.516 C 5.037 18.672,5.020 18.746,5.020 19.000 C 5.020 19.256,5.036 19.328,5.131 19.489 C 5.256 19.702,5.449 19.864,5.670 19.943 C 5.893 20.022,21.107 20.022,21.330 19.943 C 21.551 19.864,21.744 19.702,21.869 19.489 C 21.964 19.328,21.980 19.256,21.980 19.000 C 21.980 18.746,21.963 18.672,21.872 18.516 C 21.740 18.293,21.533 18.128,21.290 18.055 C 21.027 17.976,5.947 17.978,5.695 18.057 " stroke="none" fill-rule="evenodd" fill="black"></path></svg>