<svg xmlns="http://www.w3.org/2000/svg" width="24" height="24" viewBox="0 0 24 24" fill="none" stroke="currentColor" stroke-width="2" stroke-linecap="round" stroke-linejoin="round"><path d="M2.670 2.061 C 2.448 2.142,2.250 2.309,2.128 2.516 C 2.036 2.672,2.020 2.745,2.021 3.000 C 2.021 3.213,2.043 3.341,2.095 3.440 C 2.136 3.517,2.637 4.050,3.208 4.625 L 4.248 5.670 3.965 6.051 C 2.992 7.362,2.353 8.914,2.093 10.600 C 2.040 10.943,2.022 11.298,2.022 12.000 C 2.022 13.038,2.071 13.479,2.285 14.355 C 2.727 16.167,3.610 17.732,4.939 19.061 C 6.490 20.613,8.383 21.564,10.600 21.907 C 11.245 22.007,12.755 22.007,13.400 21.907 C 15.086 21.647,16.638 21.008,17.949 20.035 L 18.330 19.752 19.375 20.792 C 19.950 21.363,20.483 21.864,20.560 21.905 C 20.659 21.957,20.787 21.979,21.000 21.979 C 21.258 21.980,21.327 21.964,21.492 21.867 C 21.968 21.587,22.139 20.967,21.865 20.508 C 21.810 20.416,17.665 16.243,12.653 11.235 C 4.231 2.820,3.525 2.125,3.343 2.065 C 3.107 1.987,2.874 1.986,2.670 2.061 M11.080 2.043 C 9.896 2.162,8.747 2.480,7.713 2.974 C 7.268 3.187,7.111 3.344,7.014 3.676 C 6.827 4.316,7.292 4.936,7.960 4.938 C 8.187 4.938,8.273 4.914,8.635 4.746 C 9.318 4.430,10.075 4.197,10.779 4.087 L 10.997 4.053 11.009 6.179 L 11.020 8.306 11.141 8.503 C 11.287 8.740,11.577 8.946,11.817 8.982 C 11.988 9.007,11.993 9.012,12.018 9.183 C 12.054 9.423,12.260 9.713,12.497 9.859 L 12.694 9.980 16.227 9.991 C 18.170 9.997,19.760 10.008,19.760 10.016 C 19.760 10.025,19.796 10.206,19.840 10.420 C 19.884 10.634,19.920 10.852,19.920 10.904 L 19.920 11.000 17.906 11.000 C 15.721 11.000,15.666 11.005,15.382 11.221 C 15.302 11.282,15.187 11.415,15.128 11.516 C 15.037 11.672,15.020 11.746,15.020 12.000 C 15.020 12.256,15.036 12.328,15.131 12.489 C 15.256 12.702,15.449 12.864,15.670 12.943 C 15.788 12.985,16.265 12.997,17.884 12.998 L 19.949 13.000 19.931 13.110 C 19.899 13.316,19.795 13.860,19.775 13.930 C 19.757 13.991,19.700 14.000,19.324 14.000 C 18.659 14.000,18.354 14.132,18.128 14.516 C 18.036 14.672,18.020 14.746,18.020 15.003 C 18.020 15.271,18.034 15.329,18.141 15.503 C 18.294 15.751,18.581 15.949,18.838 15.984 C 19.030 16.009,19.030 16.009,19.054 16.185 C 19.145 16.847,19.855 17.231,20.460 16.945 C 20.737 16.814,20.847 16.682,21.062 16.220 C 22.196 13.781,22.304 11.066,21.369 8.500 C 21.190 8.010,20.695 7.019,20.399 6.560 C 18.850 4.157,16.203 2.483,13.340 2.096 C 12.786 2.021,11.580 1.993,11.080 2.043 M13.566 4.157 C 14.028 4.252,14.419 4.360,14.782 4.491 C 15.111 4.611,15.840 4.946,15.840 4.978 C 15.840 4.990,15.201 5.000,14.420 5.000 L 13.000 5.000 13.000 4.540 C 13.000 4.001,12.955 4.031,13.566 4.157 M18.661 7.564 C 18.803 7.775,18.920 7.959,18.920 7.974 C 18.920 7.988,17.588 8.000,15.960 8.000 L 13.000 8.000 13.000 7.500 L 13.000 7.001 15.610 6.990 L 18.220 6.980 18.311 7.080 C 18.360 7.135,18.518 7.353,18.661 7.564 M8.350 9.770 L 11.000 12.420 11.000 16.170 L 11.000 19.920 10.898 19.920 C 10.703 19.920,9.979 19.751,9.500 19.595 C 8.382 19.229,7.352 18.612,6.504 17.801 C 5.777 17.105,5.251 16.387,4.817 15.499 C 3.736 13.290,3.736 10.714,4.817 8.499 C 5.052 8.017,5.608 7.120,5.672 7.120 C 5.687 7.120,6.892 8.312,8.350 9.770 M15.080 16.500 L 15.579 17.000 14.289 17.000 L 13.000 17.000 13.000 16.500 L 13.000 16.000 13.791 16.000 L 14.581 16.000 15.080 16.500 M15.520 19.177 C 14.877 19.504,13.833 19.836,13.235 19.904 L 13.000 19.930 13.000 19.465 L 13.000 19.000 14.430 19.002 L 15.860 19.004 15.520 19.177 " stroke="none" fill-rule="evenodd" fill="black"></path></svg>