<svg xmlns="http://www.w3.org/2000/svg" width="24" height="24" viewBox="0 0 24 24" fill="none" stroke="currentColor" stroke-width="2" stroke-linecap="round" stroke-linejoin="round"><path d="M5.499 3.043 C 4.383 3.230,3.461 4.048,3.114 5.160 C 3.023 5.451,3.020 5.503,3.020 6.883 L 3.020 8.306 3.141 8.503 C 3.543 9.156,4.457 9.156,4.859 8.503 L 4.980 8.307 5.000 7.023 C 5.023 5.581,5.025 5.571,5.321 5.283 C 5.592 5.021,5.716 5.000,7.037 4.998 C 8.266 4.996,8.356 4.984,8.619 4.783 C 8.696 4.725,8.808 4.592,8.869 4.489 C 8.964 4.328,8.980 4.256,8.980 4.000 C 8.980 3.746,8.963 3.672,8.872 3.516 C 8.813 3.415,8.698 3.282,8.618 3.221 C 8.350 3.016,8.216 3.000,6.904 3.005 C 6.242 3.007,5.609 3.025,5.499 3.043 M15.695 3.055 C 15.464 3.130,15.255 3.300,15.128 3.516 C 15.037 3.672,15.020 3.746,15.020 4.000 C 15.020 4.256,15.036 4.328,15.131 4.489 C 15.192 4.592,15.304 4.725,15.381 4.783 C 15.644 4.984,15.734 4.996,16.963 4.998 C 18.284 5.000,18.408 5.021,18.679 5.283 C 18.975 5.571,18.977 5.581,19.000 7.023 L 19.020 8.307 19.141 8.503 C 19.543 9.156,20.457 9.156,20.859 8.503 L 20.980 8.306 20.980 6.883 C 20.980 5.503,20.977 5.451,20.886 5.160 C 20.581 4.181,19.825 3.421,18.861 3.124 C 18.551 3.028,18.495 3.025,17.200 3.014 C 16.166 3.005,15.822 3.014,15.695 3.055 M11.477 6.073 C 11.130 6.164,10.802 6.366,10.535 6.653 C 10.178 7.038,10.000 7.485,10.000 8.000 C 10.000 8.546,10.193 9.001,10.596 9.404 C 10.876 9.684,11.146 9.846,11.491 9.938 C 11.688 9.991,11.645 9.995,10.769 9.997 C 9.563 10.001,9.457 9.967,8.772 9.359 C 8.387 9.017,8.058 8.926,7.684 9.058 C 7.450 9.141,7.253 9.303,7.128 9.516 C 7.037 9.672,7.020 9.746,7.020 10.000 C 7.020 10.255,7.036 10.328,7.130 10.487 C 7.334 10.835,8.062 11.405,8.655 11.682 C 9.192 11.932,9.372 11.967,10.230 11.989 L 11.000 12.008 11.000 12.577 L 11.000 13.145 10.670 13.313 C 9.922 13.693,9.365 14.354,9.114 15.160 C 9.027 15.438,9.020 15.527,9.020 16.383 L 9.020 17.306 9.141 17.503 C 9.543 18.156,10.457 18.156,10.859 17.503 L 10.980 17.306 11.002 16.523 C 11.027 15.638,11.050 15.547,11.318 15.287 C 11.496 15.114,11.767 15.000,12.000 15.000 C 12.233 15.000,12.504 15.114,12.682 15.287 C 12.950 15.547,12.973 15.638,12.998 16.523 L 13.020 17.306 13.141 17.503 C 13.543 18.156,14.457 18.156,14.859 17.503 L 14.980 17.306 14.980 16.383 C 14.980 15.527,14.973 15.438,14.886 15.160 C 14.635 14.354,14.078 13.693,13.330 13.313 L 13.000 13.145 13.000 12.577 L 13.000 12.008 13.770 11.989 C 14.628 11.967,14.808 11.932,15.345 11.682 C 15.938 11.405,16.666 10.835,16.870 10.487 C 16.964 10.328,16.980 10.255,16.980 10.000 C 16.980 9.746,16.963 9.672,16.872 9.516 C 16.747 9.303,16.550 9.141,16.316 9.058 C 15.942 8.926,15.613 9.017,15.228 9.359 C 14.543 9.967,14.437 10.001,13.231 9.997 C 12.355 9.995,12.312 9.991,12.509 9.938 C 12.854 9.846,13.124 9.684,13.404 9.404 C 13.920 8.889,14.106 8.236,13.940 7.529 C 13.858 7.182,13.720 6.927,13.465 6.653 C 13.074 6.232,12.560 6.005,12.000 6.005 C 11.857 6.005,11.622 6.036,11.477 6.073 M3.695 15.057 C 3.466 15.129,3.256 15.299,3.128 15.516 L 3.020 15.700 3.020 17.120 C 3.020 18.497,3.023 18.549,3.114 18.840 C 3.419 19.817,4.158 20.563,5.140 20.884 C 5.404 20.970,5.495 20.976,6.764 20.991 C 7.647 21.001,8.163 20.992,8.268 20.963 C 8.498 20.901,8.737 20.713,8.867 20.492 C 8.964 20.327,8.980 20.257,8.980 20.000 C 8.980 19.746,8.963 19.672,8.872 19.516 C 8.761 19.327,8.569 19.156,8.373 19.071 C 8.296 19.038,7.854 19.016,6.980 19.001 L 5.700 18.980 5.516 18.872 C 5.327 18.761,5.157 18.570,5.071 18.373 C 5.037 18.295,5.015 17.865,5.001 16.980 L 4.980 15.700 4.872 15.516 C 4.628 15.101,4.150 14.915,3.695 15.057 M19.695 15.057 C 19.466 15.129,19.256 15.299,19.128 15.516 L 19.020 15.700 18.999 16.980 C 18.984 17.854,18.962 18.296,18.929 18.373 C 18.844 18.569,18.673 18.761,18.484 18.872 L 18.300 18.980 17.020 19.001 C 16.146 19.016,15.704 19.038,15.627 19.071 C 15.431 19.156,15.239 19.327,15.128 19.516 C 15.037 19.672,15.020 19.746,15.020 20.000 C 15.020 20.257,15.036 20.327,15.133 20.492 C 15.263 20.713,15.502 20.901,15.732 20.963 C 15.837 20.992,16.353 21.001,17.236 20.991 C 18.505 20.976,18.596 20.970,18.860 20.884 C 19.842 20.563,20.581 19.817,20.886 18.840 C 20.977 18.549,20.980 18.497,20.980 17.120 L 20.980 15.700 20.872 15.516 C 20.628 15.101,20.150 14.915,19.695 15.057 " stroke="none" fill-rule="evenodd" fill="black"></path></svg>