<svg xmlns="http://www.w3.org/2000/svg" width="24" height="24" viewBox="0 0 24 24" fill="none" stroke="currentColor" stroke-width="2" stroke-linecap="round" stroke-linejoin="round"><path d="M2.670 2.061 C 2.448 2.142,2.250 2.309,2.128 2.516 C 2.036 2.672,2.020 2.745,2.021 3.000 C 2.021 3.212,2.043 3.341,2.095 3.440 C 2.135 3.517,3.362 4.777,4.822 6.240 L 7.475 8.900 5.785 11.223 C 4.514 12.970,4.081 13.594,4.042 13.734 C 3.902 14.234,4.180 14.768,4.670 14.943 C 4.789 14.986,5.351 14.997,7.410 14.998 L 10.000 15.000 10.000 18.073 C 10.000 21.513,9.990 21.390,10.284 21.684 C 10.522 21.922,10.658 21.978,11.000 21.979 C 11.429 21.980,11.597 21.873,11.972 21.361 C 12.131 21.145,12.951 20.020,13.795 18.860 L 15.331 16.752 17.875 19.292 C 19.275 20.689,20.483 21.865,20.560 21.905 C 20.659 21.957,20.788 21.979,21.000 21.979 C 21.258 21.980,21.327 21.964,21.492 21.867 C 21.968 21.587,22.139 20.967,21.865 20.508 C 21.810 20.416,17.665 16.243,12.653 11.235 C 4.231 2.820,3.525 2.125,3.343 2.065 C 3.107 1.987,2.874 1.986,2.670 2.061 M12.675 2.055 C 12.596 2.084,12.475 2.146,12.407 2.195 C 12.254 2.304,9.667 5.849,9.553 6.106 C 9.379 6.500,9.532 7.027,9.893 7.275 C 10.334 7.579,10.837 7.524,11.204 7.133 C 11.283 7.049,11.490 6.782,11.664 6.541 L 11.980 6.102 12.000 7.704 L 12.020 9.306 12.141 9.503 C 12.287 9.740,12.577 9.946,12.817 9.982 C 12.988 10.007,12.993 10.012,13.018 10.183 C 13.054 10.423,13.260 10.713,13.497 10.859 L 13.694 10.980 15.365 10.992 L 17.037 11.003 16.600 11.600 C 16.003 12.416,15.969 12.471,15.918 12.709 C 15.829 13.127,16.061 13.586,16.458 13.781 C 16.654 13.877,16.717 13.888,16.952 13.871 C 17.247 13.850,17.403 13.786,17.576 13.614 C 17.818 13.373,19.883 10.484,19.947 10.299 C 20.075 9.922,19.935 9.463,19.618 9.221 C 19.328 9.000,19.325 9.000,16.554 9.000 L 14.000 9.000 14.000 5.927 C 14.000 2.452,14.013 2.606,13.694 2.296 C 13.418 2.028,13.016 1.933,12.675 2.055 M11.415 12.835 C 13.293 14.713,13.881 15.324,13.855 15.368 C 13.836 15.400,13.415 15.983,12.920 16.663 L 12.020 17.899 12.000 15.799 L 11.980 13.700 11.872 13.516 C 11.813 13.415,11.698 13.282,11.618 13.221 C 11.334 13.004,11.284 13.000,9.035 13.000 L 6.962 13.000 7.924 11.680 C 8.453 10.954,8.899 10.360,8.913 10.360 C 8.928 10.360,10.054 11.474,11.415 12.835 " stroke="none" fill-rule="evenodd" fill="black"></path></svg>