<svg xmlns="http://www.w3.org/2000/svg" width="24" height="24" viewBox="0 0 24 24" fill="none" stroke="currentColor" stroke-width="2" stroke-linecap="round" stroke-linejoin="round"><path d="M19.477 2.073 C 19.130 2.164,18.802 2.366,18.535 2.653 C 18.179 3.036,18.055 3.338,17.997 3.960 C 17.944 4.534,17.837 4.748,17.363 5.218 L 17.003 5.575 16.391 4.977 C 15.875 4.471,15.733 4.355,15.480 4.232 C 14.843 3.922,14.154 3.922,13.520 4.232 C 13.289 4.346,13.123 4.474,12.793 4.792 L 12.365 5.206 12.032 5.144 C 10.425 4.846,8.703 5.037,7.180 5.683 C 4.975 6.618,3.246 8.469,2.474 10.720 C 2.140 11.694,2.024 12.412,2.023 13.500 C 2.022 14.370,2.067 14.771,2.245 15.500 C 3.154 19.215,6.387 21.845,10.220 21.986 C 13.656 22.113,16.857 20.105,18.267 16.940 C 18.541 16.326,18.759 15.592,18.905 14.800 C 19.015 14.202,19.005 12.737,18.887 12.106 L 18.798 11.633 19.209 11.204 C 19.491 10.910,19.661 10.693,19.750 10.517 C 20.084 9.850,20.085 9.164,19.752 8.480 C 19.652 8.274,19.500 8.093,19.026 7.609 L 18.426 6.999 18.805 6.609 C 19.013 6.395,19.241 6.147,19.310 6.057 C 19.655 5.611,19.930 4.893,19.984 4.302 L 20.011 4.000 20.596 3.998 C 20.978 3.997,21.232 3.978,21.330 3.943 C 21.551 3.864,21.744 3.702,21.869 3.489 C 21.964 3.328,21.980 3.256,21.980 3.000 C 21.980 2.746,21.963 2.672,21.872 2.516 C 21.740 2.293,21.533 2.128,21.290 2.055 C 21.013 1.972,19.819 1.984,19.477 2.073 M16.290 7.710 C 17.414 8.833,18.000 9.447,18.000 9.500 C 18.000 9.551,17.797 9.783,17.457 10.121 C 17.159 10.417,16.870 10.735,16.816 10.826 C 16.671 11.069,16.656 11.314,16.758 11.740 C 16.960 12.584,16.977 12.716,16.975 13.520 C 16.974 14.172,16.960 14.369,16.885 14.720 C 16.497 16.544,15.535 17.966,14.016 18.961 C 13.064 19.584,11.952 19.939,10.800 19.986 C 8.445 20.083,6.316 18.979,5.022 16.989 C 3.992 15.406,3.722 13.252,4.327 11.460 C 4.784 10.108,5.720 8.872,6.859 8.116 C 8.455 7.056,10.297 6.746,12.167 7.222 C 12.913 7.412,13.073 7.350,13.859 6.561 C 14.208 6.211,14.449 6.000,14.499 6.000 C 14.552 6.000,15.171 6.592,16.290 7.710 M9.358 9.061 C 7.725 9.316,6.421 10.580,6.079 12.241 C 5.959 12.826,5.980 13.241,6.144 13.508 C 6.539 14.150,7.458 14.154,7.851 13.515 C 7.943 13.366,7.972 13.258,8.001 12.955 C 8.021 12.749,8.063 12.495,8.094 12.390 C 8.219 11.979,8.536 11.573,8.937 11.313 C 9.231 11.122,9.474 11.047,9.952 11.001 C 10.238 10.974,10.365 10.941,10.503 10.860 C 11.248 10.424,11.115 9.303,10.290 9.055 C 10.069 8.989,9.812 8.990,9.358 9.061 " stroke="none" fill-rule="evenodd" fill="black"></path></svg>