<svg xmlns="http://www.w3.org/2000/svg" width="24" height="24" viewBox="0 0 24 24" fill="none" stroke="currentColor" stroke-width="2" stroke-linecap="round" stroke-linejoin="round"><path d="M2.670 2.061 C 2.448 2.142,2.250 2.309,2.128 2.516 C 2.037 2.672,2.020 2.746,2.020 3.000 C 2.020 3.254,2.036 3.327,2.127 3.480 C 2.189 3.582,3.712 5.136,5.657 7.080 L 9.080 10.499 8.554 11.026 L 8.029 11.552 7.764 11.420 C 7.201 11.137,6.671 11.021,5.980 11.027 C 5.237 11.033,4.698 11.169,4.080 11.505 C 3.125 12.026,2.480 12.848,2.136 13.980 C 2.039 14.300,2.027 14.408,2.024 14.940 C 2.019 15.629,2.078 15.948,2.315 16.537 C 2.738 17.589,3.667 18.453,4.748 18.800 L 5.091 18.911 5.216 19.285 C 5.957 21.496,8.415 22.584,10.594 21.665 C 11.621 21.232,12.469 20.291,12.817 19.199 C 13.110 18.279,13.030 17.141,12.610 16.275 L 12.457 15.961 12.979 15.441 L 13.501 14.920 16.920 18.343 C 18.864 20.288,20.418 21.811,20.520 21.873 C 20.673 21.964,20.746 21.980,21.000 21.980 C 21.257 21.980,21.327 21.964,21.492 21.867 C 21.968 21.587,22.139 20.967,21.865 20.508 C 21.810 20.416,17.665 16.243,12.653 11.235 C 4.231 2.820,3.525 2.125,3.343 2.065 C 3.107 1.987,2.874 1.986,2.670 2.061 M14.233 2.079 C 13.833 2.163,13.537 2.268,13.147 2.464 C 12.087 2.996,11.325 4.014,11.071 5.239 C 10.911 6.011,11.042 7.006,11.403 7.751 C 11.562 8.079,11.567 8.101,11.527 8.298 C 11.386 8.999,12.005 9.619,12.700 9.472 C 12.948 9.419,13.149 9.283,13.464 8.954 C 13.752 8.653,13.836 8.505,13.868 8.239 C 13.903 7.936,13.820 7.712,13.538 7.358 C 13.230 6.970,13.133 6.774,13.049 6.366 C 12.763 4.980,14.093 3.710,15.462 4.061 C 15.837 4.158,16.117 4.319,16.401 4.600 C 16.815 5.011,16.910 5.254,17.023 6.185 C 17.067 6.545,17.455 6.933,17.815 6.977 C 17.906 6.988,18.120 7.015,18.290 7.038 C 19.199 7.159,19.900 7.904,19.985 8.837 C 20.016 9.180,19.951 9.514,19.785 9.860 C 19.206 11.070,17.707 11.369,16.663 10.484 C 16.533 10.373,16.362 10.251,16.283 10.213 C 16.083 10.115,15.669 10.118,15.461 10.220 C 15.222 10.337,14.740 10.814,14.622 11.051 C 14.502 11.292,14.485 11.638,14.582 11.871 C 14.664 12.067,14.901 12.311,15.100 12.404 C 15.264 12.480,15.667 12.503,15.815 12.445 C 15.865 12.425,16.000 12.471,16.235 12.588 C 16.942 12.940,17.913 13.082,18.660 12.942 C 20.076 12.677,21.204 11.767,21.711 10.480 C 21.935 9.913,21.978 9.675,21.978 9.000 C 21.978 8.444,21.967 8.339,21.867 7.980 C 21.491 6.630,20.500 5.596,19.188 5.184 L 18.916 5.099 18.796 4.739 C 18.511 3.889,17.948 3.158,17.187 2.652 C 16.366 2.105,15.190 1.877,14.233 2.079 M11.165 14.419 C 10.379 15.213,10.244 15.367,10.186 15.537 C 10.050 15.942,10.121 16.220,10.473 16.658 C 10.761 17.015,10.864 17.222,10.944 17.605 C 11.089 18.291,10.853 19.013,10.328 19.485 C 9.542 20.192,8.359 20.162,7.610 19.416 C 7.230 19.038,7.000 18.494,7.000 17.973 C 7.000 17.647,6.801 17.314,6.500 17.138 C 6.365 17.059,6.236 17.026,5.952 16.999 C 5.475 16.953,5.231 16.878,4.937 16.688 C 4.274 16.259,3.903 15.432,4.037 14.681 C 4.234 13.577,5.300 12.832,6.368 13.051 C 6.753 13.130,7.022 13.263,7.370 13.548 C 7.678 13.800,7.854 13.876,8.140 13.878 C 8.507 13.880,8.657 13.772,9.620 12.804 L 10.499 11.920 11.289 12.709 L 12.078 13.497 11.165 14.419 " stroke="none" fill-rule="evenodd" fill="black"></path></svg>