<svg xmlns="http://www.w3.org/2000/svg" width="24" height="24" viewBox="0 0 24 24" fill="none" stroke="currentColor" stroke-width="2" stroke-linecap="round" stroke-linejoin="round"><path d="M2.670 2.061 C 2.448 2.142,2.250 2.309,2.128 2.516 C 2.037 2.672,2.020 2.746,2.020 3.000 C 2.020 3.254,2.036 3.327,2.127 3.480 C 2.188 3.581,3.495 4.919,5.117 6.540 L 8.000 9.420 8.000 10.120 L 7.999 10.820 7.831 10.916 C 7.300 11.219,6.631 11.835,6.175 12.438 C 5.832 12.891,5.398 13.774,5.243 14.332 C 4.903 15.555,4.921 16.672,5.301 17.828 C 5.662 18.928,6.246 19.809,7.111 20.559 C 7.637 21.015,8.452 21.473,9.136 21.697 C 11.610 22.508,14.330 21.617,15.868 19.493 C 16.107 19.162,16.600 18.246,16.600 18.132 C 16.600 18.103,16.614 18.080,16.630 18.080 C 16.647 18.080,17.488 18.909,18.500 19.923 C 19.512 20.936,20.421 21.813,20.520 21.873 C 20.673 21.964,20.746 21.980,21.000 21.980 C 21.257 21.980,21.327 21.964,21.492 21.867 C 21.968 21.587,22.139 20.967,21.865 20.508 C 21.810 20.416,17.665 16.243,12.653 11.235 C 4.231 2.820,3.525 2.125,3.343 2.065 C 3.107 1.987,2.874 1.986,2.670 2.061 M7.695 2.057 C 7.466 2.129,7.256 2.299,7.128 2.516 C 7.036 2.672,7.020 2.746,7.020 3.003 C 7.020 3.271,7.034 3.329,7.141 3.503 C 7.287 3.741,7.577 3.946,7.818 3.982 L 7.993 4.008 8.007 4.657 C 8.020 5.300,8.021 5.309,8.141 5.503 C 8.543 6.156,9.457 6.156,9.859 5.503 C 9.979 5.308,9.980 5.300,9.993 4.653 L 10.007 4.000 11.002 4.000 L 11.998 4.000 12.009 6.653 L 12.020 9.306 12.141 9.503 C 12.543 10.156,13.457 10.156,13.859 9.503 L 13.980 9.306 13.991 6.658 L 14.002 4.009 14.180 3.982 C 14.423 3.946,14.712 3.741,14.859 3.503 C 14.966 3.329,14.980 3.271,14.980 3.003 C 14.980 2.746,14.964 2.672,14.872 2.516 C 14.740 2.293,14.533 2.128,14.290 2.055 C 14.030 1.977,7.945 1.979,7.695 2.057 M16.640 7.069 C 16.490 7.121,16.240 7.350,15.126 8.456 C 14.393 9.184,13.743 9.852,13.682 9.940 C 13.280 10.519,13.618 11.347,14.305 11.469 C 14.549 11.512,14.855 11.462,15.017 11.352 C 15.085 11.306,15.558 10.853,16.070 10.345 L 17.000 9.421 17.290 9.710 L 17.579 10.000 16.655 10.930 C 16.147 11.442,15.695 11.914,15.651 11.980 C 15.455 12.271,15.465 12.738,15.672 13.052 C 15.967 13.497,16.622 13.624,17.057 13.320 C 17.300 13.150,19.820 10.602,19.905 10.440 C 19.957 10.341,19.979 10.213,19.979 10.000 C 19.980 9.746,19.964 9.672,19.873 9.520 C 19.815 9.421,19.266 8.843,18.653 8.236 C 17.680 7.271,17.515 7.124,17.343 7.066 C 17.102 6.985,16.878 6.986,16.640 7.069 M12.300 13.720 L 14.580 16.000 10.784 16.000 L 6.988 16.000 7.014 15.670 C 7.051 15.211,7.170 14.773,7.377 14.336 C 7.806 13.429,8.355 12.863,9.228 12.425 C 9.700 12.189,9.913 11.952,9.981 11.588 C 9.996 11.507,10.011 11.440,10.015 11.440 C 10.018 11.440,11.046 12.466,12.300 13.720 M14.440 18.025 C 14.440 18.039,14.361 18.160,14.265 18.295 C 13.695 19.094,12.944 19.619,12.015 19.868 C 11.666 19.962,11.546 19.974,10.980 19.974 C 10.454 19.974,10.286 19.959,10.034 19.889 C 9.321 19.693,8.664 19.314,8.157 18.805 C 7.884 18.531,7.560 18.110,7.560 18.031 C 7.560 18.014,9.108 18.000,11.000 18.000 C 12.892 18.000,14.440 18.011,14.440 18.025 " stroke="none" fill-rule="evenodd" fill="black"></path></svg>