<svg xmlns="http://www.w3.org/2000/svg" width="24" height="24" viewBox="0 0 24 24" fill="none" stroke="currentColor" stroke-width="2" stroke-linecap="round" stroke-linejoin="round"><path d="M7.695 2.057 C 7.466 2.129,7.256 2.299,7.128 2.516 C 7.036 2.672,7.020 2.746,7.020 3.003 C 7.020 3.271,7.034 3.329,7.141 3.503 C 7.288 3.742,7.578 3.946,7.821 3.982 L 8.000 4.009 8.000 7.403 L 8.000 10.796 7.710 10.983 C 6.406 11.825,5.453 13.229,5.113 14.812 C 4.996 15.355,4.986 16.504,5.093 17.080 C 5.436 18.930,6.669 20.556,8.340 21.363 C 9.199 21.778,9.874 21.952,10.760 21.987 C 12.310 22.048,13.816 21.516,14.953 20.506 C 15.786 19.765,16.363 18.891,16.704 17.852 C 16.925 17.177,16.979 16.803,16.977 15.960 C 16.976 15.160,16.913 14.746,16.701 14.121 L 16.599 13.822 18.215 12.201 C 19.104 11.310,19.865 10.517,19.905 10.440 C 19.957 10.341,19.979 10.212,19.979 10.000 C 19.980 9.746,19.964 9.672,19.873 9.520 C 19.815 9.421,19.266 8.842,18.653 8.234 C 17.610 7.198,17.526 7.125,17.323 7.064 C 17.051 6.984,16.949 6.984,16.677 7.064 C 16.472 7.125,16.390 7.199,15.230 8.352 L 14.000 9.576 14.000 6.793 L 14.000 4.009 14.179 3.982 C 14.422 3.946,14.712 3.742,14.859 3.503 C 14.966 3.329,14.980 3.271,14.980 3.003 C 14.980 2.746,14.964 2.672,14.872 2.516 C 14.740 2.293,14.533 2.128,14.290 2.055 C 14.030 1.977,7.945 1.979,7.695 2.057 M12.009 7.850 L 12.020 11.700 12.108 11.864 C 12.156 11.954,12.262 12.086,12.344 12.158 C 12.568 12.354,13.058 12.570,13.331 12.591 C 13.783 12.627,13.775 12.634,15.470 10.945 L 17.001 9.422 17.290 9.710 L 17.578 9.999 16.055 11.530 C 14.771 12.819,14.520 13.090,14.460 13.249 C 14.351 13.543,14.391 13.822,14.615 14.314 C 14.823 14.770,14.942 15.217,14.984 15.690 L 15.011 16.000 11.000 16.000 L 6.989 16.000 7.017 15.691 C 7.081 14.987,7.279 14.408,7.659 13.820 C 8.054 13.208,8.550 12.762,9.190 12.443 C 9.577 12.249,9.772 12.089,9.892 11.864 L 9.980 11.700 9.991 7.850 L 10.002 4.000 11.000 4.000 L 11.998 4.000 12.009 7.850 M14.440 18.022 C 14.440 18.096,14.059 18.585,13.802 18.841 C 13.098 19.543,12.201 19.935,11.180 19.987 C 9.818 20.056,8.476 19.393,7.717 18.276 C 7.631 18.149,7.560 18.034,7.560 18.022 C 7.560 18.010,9.108 18.000,11.000 18.000 C 12.892 18.000,14.440 18.010,14.440 18.022 " stroke="none" fill-rule="evenodd" fill="black"></path></svg>