<svg xmlns="http://www.w3.org/2000/svg" width="24" height="24" viewBox="0 0 24 24" fill="none" stroke="currentColor" stroke-width="2" stroke-linecap="round" stroke-linejoin="round"><path d="M2.670 2.061 C 2.448 2.142,2.250 2.309,2.128 2.516 C 2.037 2.672,2.020 2.746,2.020 3.000 C 2.020 3.254,2.036 3.328,2.127 3.480 C 2.186 3.579,2.632 4.056,3.117 4.540 L 4.000 5.419 4.000 12.341 C 4.000 19.890,3.987 19.461,4.225 19.930 C 4.377 20.229,4.814 20.652,5.123 20.798 C 5.532 20.992,5.680 21.006,7.128 20.992 L 8.460 20.980 8.730 20.867 L 9.000 20.755 9.270 20.867 L 9.540 20.980 10.872 20.992 C 12.320 21.006,12.468 20.992,12.877 20.798 C 13.183 20.653,13.623 20.230,13.771 19.937 C 13.992 19.501,14.000 19.412,14.000 17.334 L 14.000 15.420 14.443 15.863 L 14.885 16.306 15.347 17.983 C 15.601 18.905,15.853 19.756,15.909 19.873 C 16.067 20.210,16.433 20.572,16.802 20.756 C 17.389 21.050,17.781 21.065,18.727 20.829 L 19.274 20.693 19.807 21.229 C 20.478 21.904,20.598 21.980,21.000 21.980 C 21.257 21.980,21.327 21.964,21.492 21.867 C 21.968 21.587,22.139 20.967,21.865 20.508 C 21.810 20.416,17.665 16.243,12.653 11.235 C 4.231 2.820,3.525 2.125,3.343 2.065 C 3.107 1.987,2.874 1.986,2.670 2.061 M7.695 3.054 C 7.464 3.130,7.255 3.301,7.128 3.516 C 7.036 3.672,7.020 3.746,7.020 4.003 C 7.020 4.271,7.034 4.329,7.141 4.503 C 7.288 4.742,7.578 4.946,7.821 4.982 C 7.981 5.006,8.000 5.020,8.000 5.115 C 8.001 5.263,8.168 5.600,8.305 5.728 C 8.686 6.084,9.314 6.084,9.695 5.728 C 9.833 5.598,9.999 5.262,10.000 5.110 L 10.000 5.000 11.000 5.000 L 12.000 5.000 12.002 7.090 C 12.003 8.731,12.015 9.212,12.057 9.330 C 12.189 9.700,12.518 9.953,12.916 9.989 L 13.152 10.010 13.243 10.329 C 13.381 10.814,13.554 11.033,13.911 11.173 C 14.386 11.359,14.935 11.130,15.160 10.651 C 15.235 10.491,15.246 10.417,15.228 10.181 C 15.216 10.026,15.195 9.864,15.181 9.820 C 15.158 9.745,15.233 9.721,16.297 9.455 L 17.437 9.171 17.477 9.295 C 17.683 9.947,18.837 14.258,18.810 14.276 C 18.791 14.289,18.713 14.339,18.637 14.387 C 18.456 14.502,18.340 14.663,18.257 14.917 C 18.054 15.538,18.549 16.200,19.217 16.200 L 19.380 16.200 19.497 16.609 C 19.602 16.975,19.634 17.038,19.802 17.206 C 19.936 17.340,20.051 17.412,20.202 17.457 C 20.481 17.540,20.593 17.537,20.857 17.438 C 21.261 17.287,21.571 16.789,21.500 16.407 C 21.428 16.014,18.178 4.311,18.089 4.120 C 18.028 3.989,17.880 3.793,17.723 3.635 C 17.317 3.229,16.791 3.000,16.262 3.000 C 16.030 3.000,15.817 3.045,14.171 3.441 L 13.441 3.616 13.331 3.511 C 13.128 3.318,12.757 3.125,12.462 3.059 C 12.222 3.006,11.955 2.997,10.877 3.008 C 9.626 3.020,9.571 3.024,9.340 3.115 C 9.043 3.231,8.962 3.232,8.660 3.121 C 8.362 3.011,7.919 2.981,7.695 3.054 M16.307 5.064 C 16.321 5.100,16.462 5.599,16.620 6.174 C 16.815 6.881,16.894 7.228,16.864 7.244 C 16.796 7.282,14.639 7.812,14.624 7.795 C 14.583 7.745,14.010 5.575,14.033 5.553 C 14.059 5.527,16.124 5.011,16.231 5.004 C 16.259 5.002,16.294 5.029,16.307 5.064 M7.789 9.209 L 8.000 9.417 8.000 14.209 L 8.000 19.000 7.000 19.000 L 6.000 19.000 6.000 14.000 L 6.000 9.000 6.789 9.000 L 7.577 9.000 7.789 9.209 M12.000 14.210 L 12.000 15.000 11.000 15.000 L 10.000 15.000 10.000 13.210 L 10.000 11.421 11.000 12.420 L 12.000 13.419 12.000 14.210 M12.000 18.000 L 12.000 19.000 11.000 19.000 L 10.000 19.000 10.000 18.000 L 10.000 17.000 11.000 17.000 L 12.000 17.000 12.000 18.000 " stroke="none" fill-rule="evenodd" fill="black"></path></svg>