<svg xmlns="http://www.w3.org/2000/svg" width="24" height="24" viewBox="0 0 24 24" fill="none" stroke="currentColor" stroke-width="2" stroke-linecap="round" stroke-linejoin="round"><path d="M2.670 2.061 C 2.448 2.142,2.250 2.309,2.128 2.516 C 2.036 2.672,2.020 2.745,2.021 3.000 C 2.021 3.212,2.043 3.341,2.095 3.440 C 2.136 3.517,2.806 4.220,3.585 5.002 L 5.002 6.423 5.000 13.783 C 4.999 22.050,4.974 21.376,5.299 21.701 C 5.565 21.967,5.984 22.068,6.320 21.946 C 6.397 21.918,7.707 21.064,9.230 20.047 L 12.000 18.200 14.767 20.045 C 16.289 21.059,17.614 21.917,17.711 21.950 C 18.075 22.074,18.548 21.928,18.783 21.619 C 18.946 21.406,18.996 21.215,18.998 20.801 L 19.000 20.423 19.710 21.127 C 20.101 21.514,20.483 21.864,20.560 21.904 C 20.660 21.957,20.787 21.979,21.000 21.979 C 21.258 21.980,21.327 21.964,21.492 21.867 C 21.968 21.587,22.139 20.967,21.865 20.508 C 21.810 20.416,17.665 16.243,12.653 11.235 C 4.231 2.820,3.525 2.125,3.343 2.065 C 3.107 1.987,2.874 1.986,2.670 2.061 M9.460 2.026 C 8.731 2.113,8.058 2.341,7.440 2.711 C 7.049 2.945,6.930 3.057,6.815 3.300 C 6.521 3.924,6.928 4.637,7.619 4.708 C 7.873 4.735,8.054 4.679,8.390 4.474 C 8.692 4.289,9.038 4.145,9.350 4.073 C 9.527 4.032,10.144 4.020,12.040 4.020 C 14.488 4.020,14.502 4.020,14.822 4.112 C 15.783 4.388,16.572 5.165,16.878 6.139 L 16.979 6.460 16.999 10.383 L 17.020 14.306 17.141 14.503 C 17.543 15.156,18.457 15.156,18.859 14.503 L 18.980 14.306 18.980 10.343 C 18.980 6.662,18.975 6.356,18.907 6.040 C 18.625 4.721,17.863 3.576,16.800 2.874 C 16.046 2.375,15.396 2.135,14.552 2.043 C 14.198 2.004,9.768 1.990,9.460 2.026 M16.992 18.772 L 16.980 19.120 14.725 17.617 C 13.484 16.789,12.398 16.087,12.310 16.056 C 12.107 15.985,11.893 15.985,11.690 16.056 C 11.602 16.087,10.533 16.777,9.315 17.589 C 8.097 18.401,7.078 19.078,7.050 19.095 C 7.010 19.119,7.000 18.044,7.000 13.772 L 7.000 8.420 12.002 13.422 L 17.003 18.423 16.992 18.772 " stroke="none" fill-rule="evenodd" fill="black"></path></svg>