<svg xmlns="http://www.w3.org/2000/svg" width="24" height="24" viewBox="0 0 24 24" fill="none" stroke="currentColor" stroke-width="2" stroke-linecap="round" stroke-linejoin="round"><path d="M9.400 2.044 C 7.761 2.229,6.261 3.290,5.526 4.785 C 5.347 5.148,5.197 5.571,5.094 6.000 C 5.027 6.282,5.022 6.748,5.011 13.718 C 4.997 22.053,4.973 21.375,5.298 21.700 C 5.565 21.967,5.983 22.068,6.320 21.946 C 6.549 21.863,12.700 17.741,12.796 17.606 C 12.843 17.540,12.908 17.410,12.941 17.318 C 13.209 16.556,12.448 15.789,11.690 16.056 C 11.602 16.087,10.533 16.777,9.315 17.589 C 8.097 18.401,7.077 19.079,7.049 19.095 C 7.008 19.120,7.000 17.906,7.009 12.793 L 7.020 6.460 7.121 6.139 C 7.430 5.164,8.217 4.387,9.178 4.112 C 9.499 4.020,9.510 4.020,12.000 4.020 C 14.490 4.020,14.501 4.020,14.822 4.112 C 15.784 4.388,16.575 5.168,16.877 6.139 L 16.977 6.460 16.998 8.883 L 17.020 11.306 17.141 11.503 C 17.543 12.156,18.457 12.156,18.859 11.503 L 18.980 11.306 18.980 8.843 C 18.980 6.612,18.973 6.348,18.907 6.040 C 18.625 4.721,17.863 3.576,16.800 2.874 C 16.046 2.375,15.396 2.135,14.552 2.043 C 14.092 1.992,9.849 1.994,9.400 2.044 M19.351 14.039 C 18.895 14.122,18.443 14.323,18.060 14.613 C 17.928 14.713,16.989 15.620,15.974 16.627 C 14.261 18.327,14.122 18.475,14.062 18.665 C 14.005 18.844,13.998 19.090,14.008 20.585 L 14.020 22.300 14.131 22.489 C 14.192 22.592,14.304 22.725,14.381 22.783 C 14.655 22.992,14.694 22.996,16.483 22.998 C 17.902 23.000,18.175 22.991,18.343 22.936 C 18.522 22.878,18.710 22.701,20.372 21.026 C 21.380 20.011,22.287 19.072,22.387 18.940 C 22.775 18.428,22.957 17.919,22.989 17.258 C 23.036 16.280,22.720 15.505,21.996 14.824 C 21.652 14.500,21.154 14.216,20.720 14.097 C 20.460 14.025,19.620 13.989,19.351 14.039 M20.385 16.112 C 20.594 16.219,20.778 16.402,20.891 16.615 C 21.016 16.850,21.016 17.350,20.891 17.586 C 20.840 17.682,20.129 18.433,19.197 19.376 L 17.591 21.000 16.795 21.000 L 16.000 21.000 16.000 20.205 L 16.000 19.410 17.602 17.825 C 18.483 16.953,19.248 16.211,19.302 16.175 C 19.599 15.980,20.073 15.953,20.385 16.112 " stroke="none" fill-rule="evenodd" fill="black"></path></svg>