<svg xmlns="http://www.w3.org/2000/svg" width="24" height="24" viewBox="0 0 24 24" fill="none" stroke="currentColor" stroke-width="2" stroke-linecap="round" stroke-linejoin="round"><path d="M9.400 2.044 C 7.761 2.229,6.261 3.290,5.526 4.785 C 5.347 5.148,5.197 5.571,5.094 6.000 C 5.027 6.282,5.022 6.748,5.011 13.718 C 4.997 22.053,4.973 21.375,5.298 21.700 C 5.565 21.967,5.983 22.068,6.320 21.946 C 6.397 21.918,7.707 21.064,9.230 20.047 L 12.000 18.200 14.767 20.045 C 16.289 21.059,17.614 21.917,17.711 21.950 C 18.212 22.121,18.822 21.792,18.961 21.277 C 18.988 21.177,18.997 18.641,18.989 13.713 C 18.978 6.748,18.973 6.282,18.906 6.000 C 18.586 4.664,17.847 3.566,16.800 2.874 C 16.046 2.375,15.396 2.135,14.552 2.043 C 14.092 1.992,9.849 1.994,9.400 2.044 M14.861 4.122 C 15.820 4.422,16.574 5.176,16.879 6.139 L 16.980 6.460 16.991 12.793 C 17.000 17.906,16.992 19.120,16.951 19.095 C 16.923 19.079,15.903 18.401,14.685 17.589 C 13.467 16.777,12.398 16.087,12.310 16.056 C 12.107 15.985,11.893 15.985,11.690 16.056 C 11.602 16.087,10.533 16.777,9.315 17.589 C 8.097 18.401,7.077 19.079,7.049 19.095 C 7.008 19.120,7.000 17.906,7.009 12.793 L 7.020 6.460 7.121 6.139 C 7.468 5.043,8.384 4.234,9.499 4.042 C 9.609 4.023,10.789 4.011,12.120 4.015 L 14.540 4.022 14.861 4.122 " stroke="none" fill-rule="evenodd" fill="black"></path></svg>