<svg xmlns="http://www.w3.org/2000/svg" width="24" height="24" viewBox="0 0 24 24" fill="none" stroke="currentColor" stroke-width="2" stroke-linecap="round" stroke-linejoin="round"><path d="M8.240 3.035 C 7.978 3.121,7.715 3.333,7.605 3.547 C 7.580 3.596,7.507 3.869,7.442 4.156 C 7.248 5.016,7.005 5.607,6.582 6.237 C 5.775 7.444,4.560 8.251,2.970 8.639 C 2.335 8.793,2.000 9.144,2.000 9.651 C 2.000 9.920,2.081 10.103,2.349 10.442 C 2.735 10.930,2.988 11.324,3.180 11.732 C 3.747 12.945,3.533 13.936,2.445 15.129 C 2.111 15.495,2.040 15.620,2.012 15.895 C 1.985 16.161,2.050 16.395,2.211 16.606 C 2.404 16.858,2.612 16.945,3.360 17.082 C 5.818 17.533,6.506 18.029,6.889 19.630 C 6.956 19.911,7.027 20.205,7.045 20.284 C 7.130 20.639,7.501 20.947,7.892 20.988 C 8.323 21.032,8.576 20.885,8.973 20.360 C 10.374 18.505,12.320 17.895,14.085 18.758 C 14.767 19.092,15.464 19.678,16.046 20.407 C 16.419 20.876,16.593 20.980,17.000 20.980 C 17.256 20.980,17.328 20.964,17.489 20.869 C 17.834 20.666,18.000 20.345,18.000 19.882 C 18.000 19.161,18.145 18.343,18.342 17.948 C 18.642 17.345,19.305 17.071,20.587 17.016 C 20.898 17.003,21.223 16.967,21.330 16.933 C 21.577 16.856,21.850 16.585,21.936 16.334 C 22.083 15.901,21.992 15.612,21.554 15.131 C 21.150 14.686,20.842 14.227,20.673 13.819 C 20.548 13.516,20.541 13.475,20.541 13.000 C 20.541 12.525,20.548 12.484,20.673 12.181 C 20.841 11.775,21.151 11.311,21.536 10.890 C 21.937 10.452,21.978 10.369,21.979 10.000 C 21.980 9.743,21.964 9.673,21.869 9.511 C 21.676 9.182,21.324 9.001,20.879 9.000 C 19.831 8.999,18.819 8.616,18.146 7.966 C 17.427 7.271,17.098 6.475,17.008 5.212 C 16.975 4.757,16.956 4.660,16.867 4.508 C 16.740 4.292,16.530 4.127,16.290 4.055 C 16.051 3.983,15.896 3.986,15.664 4.065 C 15.408 4.152,15.210 4.354,15.001 4.740 C 14.553 5.568,14.050 6.146,13.593 6.360 C 13.208 6.540,12.921 6.580,12.582 6.502 C 11.986 6.364,11.438 6.001,10.758 5.295 C 10.304 4.823,10.000 4.441,9.602 3.840 C 9.298 3.382,9.150 3.219,8.943 3.112 C 8.771 3.024,8.399 2.983,8.240 3.035 M9.684 7.067 C 10.498 7.820,11.296 8.268,12.179 8.469 C 12.357 8.509,12.643 8.532,12.960 8.531 C 13.383 8.531,13.514 8.514,13.812 8.425 C 14.363 8.259,14.849 7.996,15.261 7.639 L 15.445 7.480 15.680 7.943 C 16.070 8.713,16.617 9.359,17.311 9.872 C 17.656 10.127,18.462 10.543,18.840 10.661 C 18.961 10.699,19.074 10.743,19.091 10.758 C 19.108 10.774,19.051 10.929,18.965 11.103 C 18.659 11.717,18.515 12.317,18.513 12.980 C 18.512 13.651,18.651 14.256,18.950 14.871 C 19.028 15.031,19.084 15.167,19.076 15.174 C 19.067 15.180,18.943 15.217,18.800 15.255 C 17.972 15.478,17.217 16.002,16.768 16.667 C 16.603 16.912,16.321 17.503,16.319 17.606 C 16.317 17.779,16.248 17.763,15.885 17.505 C 13.647 15.922,10.976 15.997,8.775 17.705 L 8.449 17.957 8.258 17.629 C 7.805 16.849,7.279 16.353,6.459 15.932 C 6.058 15.726,5.440 15.494,5.050 15.402 C 4.935 15.374,4.840 15.337,4.840 15.319 C 4.840 15.300,4.920 15.127,5.017 14.933 C 5.202 14.563,5.361 14.105,5.444 13.700 C 5.509 13.383,5.508 12.616,5.443 12.240 C 5.364 11.781,5.139 11.148,4.880 10.653 L 4.647 10.207 4.774 10.156 C 5.090 10.030,5.804 9.657,6.116 9.453 C 7.223 8.732,8.144 7.703,8.736 6.528 L 8.881 6.240 9.135 6.517 C 9.274 6.669,9.521 6.917,9.684 7.067 " stroke="none" fill-rule="evenodd" fill="black"></path></svg>