<svg xmlns="http://www.w3.org/2000/svg" width="24" height="24" viewBox="0 0 24 24" fill="none" stroke="currentColor" stroke-width="2" stroke-linecap="round" stroke-linejoin="round"><path d="M3.695 5.057 C 3.466 5.129,3.256 5.299,3.128 5.516 C 3.037 5.672,3.020 5.746,3.020 6.000 C 3.020 6.256,3.036 6.328,3.131 6.489 C 3.256 6.702,3.449 6.864,3.670 6.943 C 3.893 7.022,20.107 7.022,20.330 6.943 C 20.551 6.864,20.744 6.702,20.869 6.489 C 20.964 6.328,20.980 6.256,20.980 6.000 C 20.980 5.746,20.963 5.672,20.872 5.516 C 20.740 5.293,20.533 5.128,20.290 5.055 C 20.027 4.976,3.947 4.978,3.695 5.057 M3.695 11.057 C 3.466 11.129,3.256 11.299,3.128 11.516 C 3.037 11.672,3.020 11.746,3.020 12.000 C 3.020 12.256,3.036 12.328,3.131 12.489 C 3.256 12.702,3.449 12.864,3.670 12.943 C 3.885 13.020,6.115 13.020,6.330 12.943 C 6.551 12.864,6.744 12.702,6.869 12.489 C 6.964 12.328,6.980 12.256,6.980 12.000 C 6.980 11.746,6.963 11.672,6.872 11.516 C 6.740 11.293,6.533 11.128,6.290 11.055 C 6.039 10.979,3.937 10.981,3.695 11.057 M10.695 11.057 C 10.466 11.129,10.256 11.299,10.128 11.516 C 10.037 11.672,10.020 11.746,10.020 12.000 C 10.020 12.256,10.036 12.328,10.131 12.489 C 10.256 12.702,10.449 12.864,10.670 12.943 C 10.885 13.020,13.115 13.020,13.330 12.943 C 13.551 12.864,13.744 12.702,13.869 12.489 C 13.964 12.328,13.980 12.256,13.980 12.000 C 13.980 11.746,13.963 11.672,13.872 11.516 C 13.740 11.293,13.533 11.128,13.290 11.055 C 13.039 10.979,10.937 10.981,10.695 11.057 M17.695 11.057 C 17.466 11.129,17.256 11.299,17.128 11.516 C 17.037 11.672,17.020 11.746,17.020 12.000 C 17.020 12.256,17.036 12.328,17.131 12.489 C 17.256 12.702,17.449 12.864,17.670 12.943 C 17.885 13.020,20.115 13.020,20.330 12.943 C 20.551 12.864,20.744 12.702,20.869 12.489 C 20.964 12.328,20.980 12.256,20.980 12.000 C 20.980 11.746,20.963 11.672,20.872 11.516 C 20.740 11.293,20.533 11.128,20.290 11.055 C 20.039 10.979,17.937 10.981,17.695 11.057 M3.695 17.057 C 3.466 17.129,3.256 17.299,3.128 17.516 C 3.036 17.672,3.020 17.745,3.021 18.000 C 3.022 18.332,3.101 18.533,3.306 18.728 C 3.785 19.181,4.580 19.046,4.893 18.460 C 5.025 18.211,5.015 17.760,4.872 17.516 C 4.628 17.101,4.150 16.915,3.695 17.057 M7.695 17.057 C 7.466 17.129,7.256 17.299,7.128 17.516 C 7.036 17.672,7.020 17.745,7.021 18.000 C 7.022 18.332,7.101 18.533,7.306 18.728 C 7.785 19.181,8.580 19.046,8.893 18.460 C 9.025 18.211,9.015 17.760,8.872 17.516 C 8.628 17.101,8.150 16.915,7.695 17.057 M11.695 17.057 C 11.466 17.129,11.256 17.299,11.128 17.516 C 11.036 17.672,11.020 17.745,11.021 18.000 C 11.022 18.332,11.101 18.533,11.306 18.728 C 11.785 19.181,12.580 19.046,12.893 18.460 C 13.025 18.211,13.015 17.760,12.872 17.516 C 12.628 17.101,12.150 16.915,11.695 17.057 M15.695 17.057 C 15.466 17.129,15.256 17.299,15.128 17.516 C 15.036 17.672,15.020 17.745,15.021 18.000 C 15.022 18.332,15.101 18.533,15.306 18.728 C 15.785 19.181,16.580 19.046,16.893 18.460 C 17.025 18.211,17.015 17.760,16.872 17.516 C 16.628 17.101,16.150 16.915,15.695 17.057 M19.695 17.057 C 19.466 17.129,19.256 17.299,19.128 17.516 C 19.036 17.672,19.020 17.745,19.021 18.000 C 19.022 18.332,19.101 18.533,19.306 18.728 C 19.785 19.181,20.580 19.046,20.893 18.460 C 21.025 18.211,21.015 17.760,20.872 17.516 C 20.628 17.101,20.150 16.915,19.695 17.057 " stroke="none" fill-rule="evenodd" fill="black"></path></svg>