<svg xmlns="http://www.w3.org/2000/svg" width="24" height="24" viewBox="0 0 24 24" fill="none" stroke="currentColor" stroke-width="2" stroke-linecap="round" stroke-linejoin="round"><path d="M5.499 3.043 C 4.383 3.230,3.461 4.048,3.114 5.160 L 3.020 5.460 3.020 12.883 L 3.020 20.306 3.141 20.503 C 3.543 21.156,4.457 21.156,4.859 20.503 L 4.980 20.306 5.000 13.023 C 5.022 4.860,4.992 5.603,5.321 5.283 C 5.635 4.979,5.059 5.000,13.037 4.998 C 18.900 4.997,20.207 4.987,20.330 4.943 C 20.551 4.864,20.744 4.702,20.869 4.489 C 20.964 4.328,20.980 4.256,20.980 4.000 C 20.980 3.746,20.963 3.672,20.872 3.516 C 20.740 3.293,20.533 3.128,20.290 3.055 C 20.138 3.009,18.902 3.001,12.904 3.005 C 8.942 3.007,5.609 3.025,5.499 3.043 M19.695 7.057 C 19.466 7.129,19.256 7.299,19.128 7.516 C 19.036 7.672,19.020 7.745,19.021 8.000 C 19.022 8.332,19.101 8.533,19.306 8.728 C 19.785 9.181,20.580 9.046,20.893 8.460 C 21.025 8.211,21.015 7.760,20.872 7.516 C 20.628 7.101,20.150 6.915,19.695 7.057 M19.695 11.057 C 19.466 11.129,19.256 11.299,19.128 11.516 C 19.036 11.672,19.020 11.745,19.021 12.000 C 19.022 12.332,19.101 12.533,19.306 12.728 C 19.785 13.181,20.580 13.046,20.893 12.460 C 21.025 12.211,21.015 11.760,20.872 11.516 C 20.628 11.101,20.150 10.915,19.695 11.057 M19.695 15.057 C 19.466 15.129,19.256 15.299,19.128 15.516 C 19.036 15.672,19.020 15.745,19.021 16.000 C 19.022 16.332,19.101 16.533,19.306 16.728 C 19.785 17.181,20.580 17.046,20.893 16.460 C 21.025 16.211,21.015 15.760,20.872 15.516 C 20.628 15.101,20.150 14.915,19.695 15.057 M7.695 19.057 C 7.466 19.129,7.256 19.299,7.128 19.516 C 7.036 19.672,7.020 19.745,7.021 20.000 C 7.022 20.332,7.101 20.533,7.306 20.728 C 7.785 21.181,8.580 21.046,8.893 20.460 C 9.025 20.211,9.015 19.760,8.872 19.516 C 8.628 19.101,8.150 18.915,7.695 19.057 M11.695 19.057 C 11.466 19.129,11.256 19.299,11.128 19.516 C 11.036 19.672,11.020 19.745,11.021 20.000 C 11.022 20.332,11.101 20.533,11.306 20.728 C 11.785 21.181,12.580 21.046,12.893 20.460 C 13.025 20.211,13.015 19.760,12.872 19.516 C 12.628 19.101,12.150 18.915,11.695 19.057 M15.695 19.057 C 15.466 19.129,15.256 19.299,15.128 19.516 C 15.036 19.672,15.020 19.745,15.021 20.000 C 15.022 20.332,15.101 20.533,15.306 20.728 C 15.785 21.181,16.580 21.046,16.893 20.460 C 17.025 20.211,17.015 19.760,16.872 19.516 C 16.628 19.101,16.150 18.915,15.695 19.057 M19.695 19.057 C 19.466 19.129,19.256 19.299,19.128 19.516 C 19.036 19.672,19.020 19.745,19.021 20.000 C 19.022 20.332,19.101 20.533,19.306 20.728 C 19.785 21.181,20.580 21.046,20.893 20.460 C 21.025 20.211,21.015 19.760,20.872 19.516 C 20.628 19.101,20.150 18.915,19.695 19.057 " stroke="none" fill-rule="evenodd" fill="black"></path></svg>