<svg xmlns="http://www.w3.org/2000/svg" width="24" height="24" viewBox="0 0 24 24" fill="none" stroke="currentColor" stroke-width="2" stroke-linecap="round" stroke-linejoin="round"><path d="M4.477 3.073 C 3.789 3.253,3.183 3.887,3.041 4.577 C 3.012 4.716,3.002 7.251,3.009 12.543 L 3.020 20.306 3.141 20.503 C 3.543 21.156,4.457 21.156,4.859 20.503 L 4.980 20.306 4.990 12.653 L 5.001 5.000 12.590 4.998 C 18.826 4.997,20.207 4.987,20.330 4.943 C 20.551 4.864,20.744 4.702,20.869 4.489 C 20.964 4.328,20.980 4.256,20.980 4.000 C 20.980 3.746,20.963 3.672,20.872 3.516 C 20.740 3.293,20.533 3.128,20.290 3.055 C 20.138 3.009,18.823 3.000,12.424 3.002 C 5.294 3.004,4.721 3.010,4.477 3.073 " stroke="none" fill-rule="evenodd" fill="black"></path></svg>