<svg xmlns="http://www.w3.org/2000/svg" width="24" height="24" viewBox="0 0 24 24" fill="none" stroke="currentColor" stroke-width="2" stroke-linecap="round" stroke-linejoin="round"><path d="M9.540 3.026 C 8.804 3.084,8.250 3.200,7.620 3.427 C 5.452 4.207,3.781 6.050,3.222 8.275 C 3.016 9.097,3.020 8.960,3.020 14.823 L 3.020 20.306 3.141 20.503 C 3.543 21.156,4.457 21.156,4.859 20.503 L 4.980 20.306 5.004 14.823 C 5.019 11.200,5.042 9.272,5.070 9.140 C 5.194 8.555,5.312 8.212,5.557 7.728 C 6.187 6.479,7.396 5.510,8.760 5.162 C 9.358 5.009,9.696 5.000,15.008 4.998 C 19.224 4.997,20.208 4.987,20.330 4.943 C 20.551 4.864,20.744 4.702,20.869 4.489 C 20.964 4.328,20.980 4.256,20.980 4.000 C 20.980 3.746,20.963 3.672,20.872 3.516 C 20.813 3.415,20.698 3.282,20.618 3.221 C 20.315 2.990,20.557 2.999,14.904 3.007 C 12.042 3.010,9.628 3.019,9.540 3.026 " stroke="none" fill-rule="evenodd" fill="black"></path></svg>