<svg xmlns="http://www.w3.org/2000/svg" width="24" height="24" viewBox="0 0 24 24" fill="none" stroke="currentColor" stroke-width="2" stroke-linecap="round" stroke-linejoin="round"><path d="M15.200 3.042 C 12.393 3.114,10.569 3.356,9.180 3.841 C 7.124 4.558,5.153 6.335,4.201 8.329 C 3.266 10.288,2.969 12.795,3.007 18.403 L 3.020 20.306 3.141 20.503 C 3.543 21.156,4.457 21.156,4.859 20.503 L 4.980 20.306 5.006 17.743 C 5.031 15.196,5.046 14.647,5.123 13.420 C 5.200 12.200,5.375 11.035,5.602 10.248 C 5.934 9.095,6.511 8.159,7.445 7.259 C 8.549 6.195,9.579 5.681,11.200 5.385 C 12.691 5.112,14.716 5.005,18.500 4.999 C 20.307 4.996,20.345 4.992,20.619 4.783 C 20.696 4.725,20.808 4.592,20.869 4.489 C 20.964 4.328,20.980 4.256,20.980 4.000 C 20.980 3.746,20.963 3.672,20.872 3.516 C 20.813 3.415,20.698 3.282,20.618 3.221 C 20.335 3.005,20.272 2.999,18.224 3.007 C 17.188 3.010,15.827 3.026,15.200 3.042 " stroke="none" fill-rule="evenodd" fill="black"></path></svg>