<svg xmlns="http://www.w3.org/2000/svg" width="24" height="24" viewBox="0 0 24 24" fill="none" stroke="currentColor" stroke-width="2" stroke-linecap="round" stroke-linejoin="round"><path d="M3.695 3.057 C 3.466 3.129,3.256 3.299,3.128 3.516 C 2.985 3.760,2.975 4.211,3.107 4.460 C 3.490 5.177,4.510 5.177,4.893 4.460 C 5.025 4.211,5.015 3.760,4.872 3.516 C 4.628 3.101,4.150 2.915,3.695 3.057 M7.695 3.057 C 7.466 3.129,7.256 3.299,7.128 3.516 C 6.985 3.760,6.975 4.211,7.107 4.460 C 7.490 5.177,8.510 5.177,8.893 4.460 C 9.025 4.211,9.015 3.760,8.872 3.516 C 8.628 3.101,8.150 2.915,7.695 3.057 M11.695 3.057 C 11.466 3.129,11.256 3.299,11.128 3.516 L 11.020 3.700 11.009 7.350 L 10.998 11.000 7.446 11.000 C 3.590 11.000,3.678 10.995,3.382 11.221 C 3.302 11.282,3.187 11.415,3.128 11.516 C 3.037 11.672,3.020 11.746,3.020 12.000 C 3.020 12.256,3.036 12.328,3.131 12.489 C 3.256 12.702,3.449 12.864,3.670 12.943 C 3.791 12.986,4.516 12.997,7.409 12.998 L 10.998 13.000 11.009 16.653 L 11.020 20.306 11.141 20.503 C 11.543 21.156,12.457 21.156,12.859 20.503 L 12.980 20.306 12.991 16.653 L 13.002 13.000 16.591 12.998 C 19.484 12.997,20.209 12.986,20.330 12.943 C 20.551 12.864,20.744 12.702,20.869 12.489 C 20.964 12.328,20.980 12.256,20.980 12.000 C 20.980 11.746,20.963 11.672,20.872 11.516 C 20.813 11.415,20.698 11.282,20.618 11.221 C 20.322 10.995,20.410 11.000,16.554 11.000 L 13.002 11.000 12.991 7.350 L 12.980 3.700 12.872 3.516 C 12.628 3.101,12.150 2.915,11.695 3.057 M15.695 3.057 C 15.466 3.129,15.256 3.299,15.128 3.516 C 14.985 3.760,14.975 4.211,15.107 4.460 C 15.490 5.177,16.510 5.177,16.893 4.460 C 17.025 4.211,17.015 3.760,16.872 3.516 C 16.628 3.101,16.150 2.915,15.695 3.057 M19.695 3.057 C 19.466 3.129,19.256 3.299,19.128 3.516 C 18.985 3.760,18.975 4.211,19.107 4.460 C 19.490 5.177,20.510 5.177,20.893 4.460 C 21.025 4.211,21.015 3.760,20.872 3.516 C 20.628 3.101,20.150 2.915,19.695 3.057 M3.695 7.057 C 3.466 7.129,3.256 7.299,3.128 7.516 C 3.036 7.672,3.020 7.745,3.021 8.000 C 3.022 8.332,3.101 8.533,3.306 8.728 C 3.785 9.181,4.580 9.046,4.893 8.460 C 5.025 8.211,5.015 7.760,4.872 7.516 C 4.628 7.101,4.150 6.915,3.695 7.057 M19.695 7.057 C 19.466 7.129,19.256 7.299,19.128 7.516 C 19.036 7.672,19.020 7.745,19.021 8.000 C 19.022 8.332,19.101 8.533,19.306 8.728 C 19.785 9.181,20.580 9.046,20.893 8.460 C 21.025 8.211,21.015 7.760,20.872 7.516 C 20.628 7.101,20.150 6.915,19.695 7.057 M3.695 15.057 C 3.466 15.129,3.256 15.299,3.128 15.516 C 3.036 15.672,3.020 15.745,3.021 16.000 C 3.022 16.332,3.101 16.533,3.306 16.728 C 3.785 17.181,4.580 17.046,4.893 16.460 C 5.025 16.211,5.015 15.760,4.872 15.516 C 4.628 15.101,4.150 14.915,3.695 15.057 M19.695 15.057 C 19.466 15.129,19.256 15.299,19.128 15.516 C 19.036 15.672,19.020 15.745,19.021 16.000 C 19.022 16.332,19.101 16.533,19.306 16.728 C 19.785 17.181,20.580 17.046,20.893 16.460 C 21.025 16.211,21.015 15.760,20.872 15.516 C 20.628 15.101,20.150 14.915,19.695 15.057 M3.695 19.057 C 3.466 19.129,3.256 19.299,3.128 19.516 C 3.036 19.672,3.020 19.745,3.021 20.000 C 3.022 20.332,3.101 20.533,3.306 20.728 C 3.785 21.181,4.580 21.046,4.893 20.460 C 5.025 20.211,5.015 19.760,4.872 19.516 C 4.628 19.101,4.150 18.915,3.695 19.057 M7.695 19.057 C 7.466 19.129,7.256 19.299,7.128 19.516 C 7.036 19.672,7.020 19.745,7.021 20.000 C 7.022 20.332,7.101 20.533,7.306 20.728 C 7.785 21.181,8.580 21.046,8.893 20.460 C 9.025 20.211,9.015 19.760,8.872 19.516 C 8.628 19.101,8.150 18.915,7.695 19.057 M15.695 19.057 C 15.466 19.129,15.256 19.299,15.128 19.516 C 15.036 19.672,15.020 19.745,15.021 20.000 C 15.022 20.332,15.101 20.533,15.306 20.728 C 15.785 21.181,16.580 21.046,16.893 20.460 C 17.025 20.211,17.015 19.760,16.872 19.516 C 16.628 19.101,16.150 18.915,15.695 19.057 M19.695 19.057 C 19.466 19.129,19.256 19.299,19.128 19.516 C 19.036 19.672,19.020 19.745,19.021 20.000 C 19.022 20.332,19.101 20.533,19.306 20.728 C 19.785 21.181,20.580 21.046,20.893 20.460 C 21.025 20.211,21.015 19.760,20.872 19.516 C 20.628 19.101,20.150 18.915,19.695 19.057 " stroke="none" fill-rule="evenodd" fill="black"></path></svg>