<svg xmlns="http://www.w3.org/2000/svg" width="24" height="24" viewBox="0 0 24 24" fill="none" stroke="currentColor" stroke-width="2" stroke-linecap="round" stroke-linejoin="round"><path d="M10.477 1.073 C 10.130 1.164,9.802 1.366,9.535 1.653 C 9.128 2.092,9.000 2.471,9.000 3.244 C 9.000 3.917,8.940 4.480,8.808 5.040 C 8.749 5.293,8.701 5.609,8.702 5.742 C 8.706 6.430,9.462 6.896,10.092 6.599 C 10.289 6.507,10.539 6.260,10.601 6.097 L 10.638 5.999 12.001 6.009 L 13.364 6.020 13.497 6.400 C 13.780 7.205,14.071 7.770,14.647 8.631 C 15.243 9.521,15.573 10.226,15.776 11.044 C 15.910 11.581,15.955 11.923,15.995 12.692 C 16.025 13.287,16.033 13.327,16.145 13.509 C 16.543 14.156,17.459 14.153,17.858 13.504 C 17.970 13.323,17.980 13.274,17.994 12.869 C 18.028 11.890,17.805 10.652,17.401 9.578 C 17.156 8.926,16.859 8.362,16.354 7.593 C 16.097 7.201,15.794 6.690,15.681 6.458 C 15.209 5.490,15.001 4.514,14.999 3.266 C 14.998 2.482,14.867 2.086,14.465 1.653 C 14.198 1.366,13.870 1.164,13.523 1.073 C 13.134 0.972,10.866 0.972,10.477 1.073 M2.670 2.061 C 2.448 2.142,2.250 2.309,2.128 2.516 C 2.036 2.672,2.020 2.745,2.021 3.000 C 2.021 3.212,2.043 3.341,2.095 3.440 C 2.135 3.517,3.273 4.687,4.624 6.041 L 7.081 8.501 6.944 8.761 C 6.624 9.371,6.284 10.392,6.146 11.160 C 6.005 11.945,5.994 12.327,6.007 15.980 L 6.020 19.580 6.114 19.860 C 6.446 20.850,7.184 21.582,8.160 21.886 L 8.460 21.980 12.000 21.980 L 15.540 21.980 15.840 21.886 C 16.817 21.581,17.584 20.820,17.876 19.866 C 17.922 19.715,17.960 19.544,17.960 19.487 C 17.960 19.398,18.147 19.568,19.190 20.606 C 19.867 21.280,20.483 21.864,20.560 21.905 C 20.659 21.957,20.787 21.979,21.000 21.979 C 21.258 21.980,21.327 21.964,21.492 21.867 C 21.968 21.587,22.139 20.967,21.865 20.508 C 21.810 20.416,17.665 16.243,12.653 11.235 C 4.231 2.820,3.525 2.125,3.343 2.065 C 3.107 1.987,2.874 1.986,2.670 2.061 M13.000 3.500 L 13.000 4.000 12.000 4.000 L 11.000 4.000 11.000 3.500 L 11.000 3.000 12.000 3.000 L 13.000 3.000 13.000 3.500 M9.600 11.020 L 10.618 12.039 10.238 12.014 C 9.547 11.969,8.858 12.124,8.254 12.462 L 7.994 12.607 8.021 12.314 C 8.057 11.908,8.151 11.307,8.224 11.020 C 8.275 10.818,8.557 10.000,8.575 10.000 C 8.578 10.000,9.039 10.459,9.600 11.020 M10.423 14.059 C 10.734 14.151,10.966 14.324,11.278 14.697 C 11.620 15.107,11.950 15.380,12.360 15.594 C 12.940 15.896,13.463 16.014,14.130 15.994 L 14.561 15.981 15.280 16.700 L 16.000 17.419 16.000 18.263 C 16.000 19.188,15.971 19.366,15.779 19.618 C 15.718 19.698,15.585 19.813,15.484 19.872 L 15.300 19.980 12.000 19.980 L 8.700 19.980 8.516 19.872 C 8.415 19.813,8.284 19.700,8.225 19.623 C 8.002 19.330,8.000 19.311,8.000 17.263 L 8.000 15.376 8.200 15.224 C 8.311 15.140,8.545 14.903,8.720 14.697 C 9.161 14.183,9.477 14.008,9.983 14.003 C 10.116 14.001,10.314 14.026,10.423 14.059 " stroke="none" fill-rule="evenodd" fill="black"></path></svg>