<svg xmlns="http://www.w3.org/2000/svg" width="24" height="24" viewBox="0 0 24 24" fill="none" stroke="currentColor" stroke-width="2" stroke-linecap="round" stroke-linejoin="round"><path d="M17.499 4.040 C 16.363 4.246,15.460 5.049,15.114 6.160 C 14.979 6.594,14.979 7.406,15.114 7.840 C 15.421 8.826,16.174 9.579,17.160 9.886 C 17.594 10.021,18.406 10.021,18.840 9.886 C 19.826 9.579,20.579 8.826,20.886 7.840 C 21.021 7.406,21.021 6.594,20.886 6.160 C 20.581 5.179,19.810 4.407,18.861 4.129 C 18.500 4.023,17.832 3.980,17.499 4.040 M18.310 6.061 C 18.688 6.173,19.000 6.598,19.000 7.001 C 19.000 7.331,18.784 7.696,18.484 7.872 C 18.328 7.963,18.254 7.980,18.000 7.980 C 17.746 7.980,17.672 7.963,17.516 7.872 C 16.935 7.530,16.833 6.774,17.304 6.303 C 17.583 6.024,17.916 5.944,18.310 6.061 M14.671 11.064 C 14.562 11.097,14.415 11.186,14.327 11.271 C 14.012 11.577,12.887 13.729,12.368 15.020 C 12.135 15.599,11.731 16.759,11.641 17.110 C 11.617 17.203,11.584 17.280,11.568 17.279 C 11.553 17.278,11.479 17.187,11.404 17.077 C 11.196 16.770,10.570 16.055,10.224 15.728 C 9.353 14.904,8.314 14.363,7.200 14.155 C 6.855 14.090,5.702 14.091,5.300 14.156 C 4.849 14.228,4.364 14.344,3.910 14.487 C 3.442 14.634,3.219 14.806,3.081 15.127 C 2.920 15.502,3.026 15.959,3.339 16.234 C 3.658 16.514,3.981 16.555,4.530 16.385 C 5.233 16.168,5.615 16.107,6.260 16.107 C 6.748 16.107,6.918 16.122,7.170 16.192 C 7.810 16.367,8.417 16.749,9.010 17.350 C 9.701 18.048,10.268 18.867,10.941 20.140 C 11.069 20.382,11.241 20.645,11.323 20.725 C 11.703 21.093,12.321 21.081,12.702 20.700 C 12.897 20.505,12.961 20.334,13.082 19.680 C 13.511 17.370,14.313 15.229,15.586 12.994 C 15.900 12.443,15.969 12.291,15.987 12.110 C 16.020 11.798,15.917 11.513,15.695 11.297 C 15.411 11.021,15.066 10.942,14.671 11.064 " stroke="none" fill-rule="evenodd" fill="black"></path></svg>