<svg xmlns="http://www.w3.org/2000/svg" width="24" height="24" viewBox="0 0 24 24" fill="none" stroke="currentColor" stroke-width="2" stroke-linecap="round" stroke-linejoin="round"><path d="M5.499 4.040 C 4.363 4.246,3.460 5.049,3.114 6.160 C 2.979 6.594,2.979 7.406,3.114 7.840 C 3.421 8.826,4.174 9.579,5.160 9.886 C 5.594 10.021,6.406 10.021,6.840 9.886 C 7.826 9.579,8.579 8.826,8.886 7.840 C 9.021 7.406,9.021 6.594,8.886 6.160 C 8.581 5.179,7.810 4.407,6.861 4.129 C 6.500 4.023,5.832 3.980,5.499 4.040 M6.310 6.061 C 6.688 6.173,7.000 6.598,7.000 7.001 C 7.000 7.331,6.784 7.696,6.484 7.872 C 6.328 7.963,6.254 7.980,6.000 7.980 C 5.746 7.980,5.672 7.963,5.516 7.872 C 4.935 7.530,4.833 6.774,5.304 6.303 C 5.583 6.024,5.916 5.944,6.310 6.061 M8.650 11.066 C 8.404 11.154,8.146 11.422,8.060 11.679 C 7.934 12.060,7.980 12.232,8.414 12.994 C 9.687 15.229,10.489 17.370,10.918 19.680 C 11.039 20.334,11.103 20.505,11.298 20.700 C 11.679 21.081,12.297 21.093,12.677 20.725 C 12.759 20.645,12.931 20.382,13.059 20.140 C 13.743 18.848,14.368 17.951,15.044 17.292 C 15.424 16.920,15.634 16.756,15.982 16.553 C 16.940 15.995,18.034 15.942,19.470 16.386 C 20.019 16.555,20.342 16.514,20.661 16.234 C 20.974 15.959,21.080 15.502,20.919 15.127 C 20.781 14.806,20.558 14.634,20.090 14.487 C 19.182 14.201,18.575 14.104,17.720 14.105 C 16.739 14.107,16.148 14.243,15.300 14.661 C 14.732 14.941,14.254 15.276,13.776 15.728 C 13.430 16.055,12.804 16.770,12.596 17.077 C 12.521 17.187,12.447 17.278,12.432 17.279 C 12.416 17.280,12.383 17.203,12.359 17.110 C 12.272 16.771,11.866 15.606,11.631 15.020 C 11.118 13.738,9.989 11.578,9.673 11.272 C 9.418 11.025,9.003 10.941,8.650 11.066 " stroke="none" fill-rule="evenodd" fill="black"></path></svg>