<svg xmlns="http://www.w3.org/2000/svg" width="24" height="24" viewBox="0 0 24 24" fill="none" stroke="currentColor" stroke-width="2" stroke-linecap="round" stroke-linejoin="round"><path d="M3.477 7.073 C 2.780 7.255,2.184 7.886,2.037 8.596 C 1.959 8.971,2.011 9.946,2.133 10.411 C 2.396 11.411,3.139 12.919,4.001 14.200 C 4.424 14.830,4.937 15.457,5.470 15.996 L 6.000 16.533 6.000 16.898 C 6.000 17.550,6.169 17.977,6.596 18.404 C 6.882 18.690,7.148 18.847,7.508 18.940 C 7.851 19.030,16.149 19.030,16.492 18.940 C 16.852 18.847,17.118 18.690,17.404 18.404 C 17.832 17.976,18.000 17.545,18.000 16.872 L 18.000 16.495 18.215 16.309 C 18.623 15.958,19.441 14.954,20.001 14.120 C 20.651 13.152,21.313 11.926,21.621 11.120 C 21.899 10.393,21.967 10.078,21.988 9.420 C 22.018 8.517,21.901 8.122,21.465 7.653 C 21.198 7.366,20.870 7.164,20.523 7.073 C 20.279 7.009,19.679 7.005,12.000 7.005 C 4.321 7.005,3.721 7.009,3.477 7.073 M20.000 9.294 C 20.000 9.664,19.899 10.060,19.660 10.620 C 18.956 12.275,17.454 14.433,16.540 15.104 C 16.069 15.451,16.000 15.618,16.000 16.425 L 16.000 17.000 12.000 17.000 L 8.000 17.000 8.000 16.427 C 8.000 15.575,7.953 15.478,7.288 14.964 C 6.448 14.314,5.346 12.778,4.580 11.188 C 4.160 10.317,4.032 9.918,4.009 9.410 L 3.990 9.000 11.995 9.000 L 20.000 9.000 20.000 9.294 " stroke="none" fill-rule="evenodd" fill="black"></path></svg>