<svg xmlns="http://www.w3.org/2000/svg" width="24" height="24" viewBox="0 0 24 24" fill="none" stroke="currentColor" stroke-width="2" stroke-linecap="round" stroke-linejoin="round"><path d="M7.300 2.045 C 6.526 2.142,5.755 2.441,5.176 2.870 C 4.655 3.257,4.334 3.679,4.128 4.247 C 4.037 4.500,4.022 4.603,4.022 5.000 C 4.022 5.397,4.037 5.500,4.128 5.753 C 4.187 5.915,4.294 6.148,4.367 6.271 C 4.537 6.558,4.987 7.018,5.315 7.238 C 6.824 8.253,9.176 8.253,10.685 7.238 C 11.031 7.005,11.470 6.551,11.640 6.250 L 11.780 6.002 15.980 5.999 C 19.382 5.997,20.209 5.986,20.330 5.943 C 20.551 5.864,20.744 5.702,20.869 5.489 C 20.964 5.328,20.980 5.256,20.980 5.000 C 20.980 4.746,20.963 4.672,20.872 4.516 C 20.813 4.415,20.698 4.282,20.618 4.221 C 20.319 3.993,20.462 4.000,15.944 3.999 L 11.780 3.998 11.646 3.764 C 11.352 3.250,10.811 2.781,10.140 2.459 C 9.350 2.080,8.275 1.923,7.300 2.045 M8.467 4.042 C 9.022 4.116,9.471 4.306,9.769 4.592 C 10.065 4.876,10.055 5.146,9.735 5.440 C 9.341 5.804,8.777 5.979,8.000 5.979 C 7.223 5.979,6.659 5.804,6.265 5.440 C 5.945 5.146,5.935 4.875,6.231 4.593 C 6.523 4.314,6.902 4.144,7.420 4.060 C 7.827 3.994,8.076 3.990,8.467 4.042 M3.477 10.073 C 2.780 10.255,2.184 10.886,2.037 11.596 C 1.959 11.971,2.011 12.946,2.133 13.411 C 2.396 14.411,3.139 15.919,4.001 17.200 C 4.424 17.830,4.937 18.457,5.470 18.996 L 6.000 19.533 6.000 19.898 C 6.000 20.550,6.169 20.977,6.596 21.404 C 6.882 21.690,7.148 21.847,7.508 21.940 C 7.851 22.030,16.149 22.030,16.492 21.940 C 16.852 21.847,17.118 21.690,17.404 21.404 C 17.832 20.976,18.000 20.545,18.000 19.872 L 18.000 19.495 18.215 19.309 C 18.623 18.958,19.441 17.954,20.001 17.120 C 20.651 16.152,21.313 14.926,21.621 14.120 C 21.899 13.393,21.967 13.078,21.988 12.420 C 22.018 11.517,21.901 11.122,21.465 10.653 C 21.198 10.366,20.870 10.164,20.523 10.073 C 20.279 10.009,19.679 10.005,12.000 10.005 C 4.321 10.005,3.721 10.009,3.477 10.073 M20.000 12.294 C 20.000 12.664,19.899 13.060,19.660 13.620 C 18.956 15.275,17.454 17.433,16.540 18.104 C 16.069 18.451,16.000 18.618,16.000 19.425 L 16.000 20.000 12.000 20.000 L 8.000 20.000 8.000 19.427 C 8.000 18.575,7.953 18.478,7.288 17.964 C 6.448 17.314,5.346 15.778,4.580 14.188 C 4.160 13.317,4.032 12.918,4.009 12.410 L 3.990 12.000 11.995 12.000 L 20.000 12.000 20.000 12.294 " stroke="none" fill-rule="evenodd" fill="black"></path></svg>