<svg xmlns="http://www.w3.org/2000/svg" width="24" height="24" viewBox="0 0 24 24" fill="none" stroke="currentColor" stroke-width="2" stroke-linecap="round" stroke-linejoin="round"><path d="M3.695 3.057 C 3.466 3.129,3.256 3.299,3.128 3.516 C 2.985 3.760,2.975 4.211,3.107 4.460 C 3.490 5.177,4.510 5.177,4.893 4.460 C 5.025 4.211,5.015 3.760,4.872 3.516 C 4.628 3.101,4.150 2.915,3.695 3.057 M8.695 3.057 C 8.466 3.129,8.256 3.299,8.128 3.516 C 7.985 3.760,7.975 4.211,8.107 4.460 C 8.490 5.177,9.510 5.177,9.893 4.460 C 10.025 4.211,10.015 3.760,9.872 3.516 C 9.628 3.101,9.150 2.915,8.695 3.057 M14.695 3.057 C 14.466 3.129,14.256 3.299,14.128 3.516 C 13.985 3.760,13.975 4.211,14.107 4.460 C 14.490 5.177,15.510 5.177,15.893 4.460 C 16.025 4.211,16.015 3.760,15.872 3.516 C 15.628 3.101,15.150 2.915,14.695 3.057 M19.695 3.057 C 19.466 3.129,19.256 3.299,19.128 3.516 C 18.985 3.760,18.975 4.211,19.107 4.460 C 19.490 5.177,20.510 5.177,20.893 4.460 C 21.025 4.211,21.015 3.760,20.872 3.516 C 20.628 3.101,20.150 2.915,19.695 3.057 M3.695 8.057 C 3.466 8.129,3.256 8.299,3.128 8.516 C 3.036 8.672,3.020 8.745,3.021 9.000 C 3.022 9.332,3.101 9.533,3.306 9.728 C 3.785 10.181,4.580 10.046,4.893 9.460 C 5.025 9.211,5.015 8.760,4.872 8.516 C 4.628 8.101,4.150 7.915,3.695 8.057 M19.695 8.057 C 19.466 8.129,19.256 8.299,19.128 8.516 C 19.036 8.672,19.020 8.745,19.021 9.000 C 19.022 9.332,19.101 9.533,19.306 9.728 C 19.785 10.181,20.580 10.046,20.893 9.460 C 21.025 9.211,21.015 8.760,20.872 8.516 C 20.628 8.101,20.150 7.915,19.695 8.057 M3.695 13.057 C 3.466 13.129,3.256 13.299,3.128 13.516 L 3.020 13.700 3.009 16.458 C 3.002 18.288,3.012 19.286,3.040 19.421 C 3.148 19.941,3.602 20.538,4.070 20.775 C 4.540 21.013,4.078 21.000,12.000 21.000 C 19.922 21.000,19.460 21.013,19.930 20.775 C 20.196 20.640,20.638 20.200,20.771 19.937 C 21.004 19.478,21.003 19.493,20.991 16.470 L 20.980 13.700 20.872 13.516 C 20.740 13.293,20.533 13.128,20.290 13.055 C 20.027 12.976,3.947 12.978,3.695 13.057 M19.000 17.000 L 19.000 19.000 12.000 19.000 L 5.000 19.000 5.000 17.000 L 5.000 15.000 12.000 15.000 L 19.000 15.000 19.000 17.000 " stroke="none" fill-rule="evenodd" fill="black"></path></svg>