<svg xmlns="http://www.w3.org/2000/svg" width="24" height="24" viewBox="0 0 24 24" fill="none" stroke="currentColor" stroke-width="2" stroke-linecap="round" stroke-linejoin="round"><path d="M4.477 3.073 C 3.806 3.249,3.238 3.823,3.060 4.508 C 3.010 4.700,3.000 5.180,3.000 7.500 C 3.000 10.501,2.999 10.484,3.225 10.930 C 3.361 11.199,3.801 11.639,4.070 11.775 C 4.516 12.001,4.499 12.000,7.500 12.000 C 10.501 12.000,10.484 12.001,10.930 11.775 C 11.196 11.640,11.638 11.200,11.771 10.937 C 12.000 10.485,12.000 10.489,11.999 7.514 C 11.999 4.558,11.995 4.505,11.781 4.083 C 11.646 3.816,11.297 3.449,11.017 3.281 C 10.555 3.003,10.580 3.005,7.500 3.005 C 5.020 3.005,4.713 3.012,4.477 3.073 M14.720 3.037 C 13.860 3.299,13.742 4.479,14.535 4.887 C 15.006 5.129,15.596 4.954,15.867 4.492 C 15.964 4.327,15.980 4.257,15.980 4.000 C 15.980 3.746,15.963 3.672,15.872 3.516 C 15.641 3.123,15.133 2.912,14.720 3.037 M19.720 3.037 C 18.860 3.299,18.742 4.479,19.535 4.887 C 20.006 5.129,20.596 4.954,20.867 4.492 C 20.964 4.327,20.980 4.257,20.980 4.000 C 20.980 3.746,20.963 3.672,20.872 3.516 C 20.641 3.123,20.133 2.912,19.720 3.037 M10.000 7.500 L 10.000 10.000 7.500 10.000 L 5.000 10.000 5.000 7.500 L 5.000 5.000 7.500 5.000 L 10.000 5.000 10.000 7.500 M19.720 8.037 C 18.860 8.299,18.742 9.479,19.535 9.887 C 20.006 10.129,20.596 9.954,20.867 9.492 C 20.964 9.327,20.980 9.257,20.980 9.000 C 20.980 8.746,20.963 8.672,20.872 8.516 C 20.641 8.123,20.133 7.912,19.720 8.037 M3.720 14.037 C 2.860 14.299,2.742 15.479,3.535 15.887 C 4.006 16.129,4.596 15.954,4.867 15.492 C 4.964 15.327,4.980 15.257,4.980 15.000 C 4.980 14.746,4.963 14.672,4.872 14.516 C 4.641 14.123,4.133 13.912,3.720 14.037 M19.720 14.037 C 18.860 14.299,18.742 15.479,19.535 15.887 C 20.006 16.129,20.596 15.954,20.867 15.492 C 20.964 15.327,20.980 15.257,20.980 15.000 C 20.980 14.746,20.963 14.672,20.872 14.516 C 20.641 14.123,20.133 13.912,19.720 14.037 M3.720 19.037 C 2.860 19.299,2.742 20.479,3.535 20.887 C 4.006 21.129,4.596 20.954,4.867 20.492 C 4.964 20.327,4.980 20.257,4.980 20.000 C 4.980 19.746,4.963 19.672,4.872 19.516 C 4.641 19.123,4.133 18.912,3.720 19.037 M8.720 19.037 C 7.860 19.299,7.742 20.479,8.535 20.887 C 9.006 21.129,9.596 20.954,9.867 20.492 C 9.964 20.327,9.980 20.257,9.980 20.000 C 9.980 19.746,9.963 19.672,9.872 19.516 C 9.641 19.123,9.133 18.912,8.720 19.037 M14.720 19.037 C 13.860 19.299,13.742 20.479,14.535 20.887 C 15.006 21.129,15.596 20.954,15.867 20.492 C 15.964 20.327,15.980 20.257,15.980 20.000 C 15.980 19.746,15.963 19.672,15.872 19.516 C 15.641 19.123,15.133 18.912,14.720 19.037 M19.720 19.037 C 18.860 19.299,18.742 20.479,19.535 20.887 C 20.006 21.129,20.596 20.954,20.867 20.492 C 20.964 20.327,20.980 20.257,20.980 20.000 C 20.980 19.746,20.963 19.672,20.872 19.516 C 20.641 19.123,20.133 18.912,19.720 19.037 " stroke="none" fill-rule="evenodd" fill="black"></path></svg>