<svg xmlns="http://www.w3.org/2000/svg" width="24" height="24" viewBox="0 0 24 24" fill="none" stroke="currentColor" stroke-width="2" stroke-linecap="round" stroke-linejoin="round"><path d="M8.499 2.043 C 7.388 2.231,6.470 3.041,6.118 4.140 C 6.042 4.379,6.026 4.536,6.010 5.205 L 5.991 5.991 5.225 6.010 C 4.567 6.027,4.415 6.043,4.139 6.126 C 3.181 6.415,2.420 7.179,2.114 8.160 L 2.020 8.460 2.020 14.000 L 2.020 19.540 2.114 19.840 C 2.422 20.827,3.173 21.578,4.160 21.886 L 4.460 21.980 10.000 21.980 L 15.540 21.980 15.840 21.886 C 16.818 21.581,17.570 20.834,17.882 19.860 C 17.958 19.621,17.974 19.464,17.990 18.795 L 18.009 18.009 18.795 17.990 C 19.464 17.974,19.621 17.958,19.860 17.882 C 20.834 17.570,21.581 16.818,21.886 15.840 L 21.980 15.540 21.980 10.000 L 21.980 4.460 21.886 4.160 C 21.581 3.182,20.832 2.428,19.861 2.121 L 19.540 2.020 14.120 2.014 C 11.139 2.011,8.609 2.024,8.499 2.043 M19.310 4.061 C 19.589 4.144,19.856 4.411,19.939 4.690 C 19.992 4.868,20.000 5.546,20.000 10.001 C 20.000 14.212,19.990 15.139,19.945 15.290 C 19.872 15.533,19.707 15.740,19.484 15.872 L 19.300 15.980 14.000 15.980 L 8.700 15.980 8.516 15.872 C 8.303 15.747,8.141 15.550,8.058 15.316 C 7.969 15.061,7.971 4.993,8.061 4.690 C 8.140 4.421,8.412 4.143,8.673 4.063 C 8.963 3.974,19.010 3.972,19.310 4.061 M13.499 5.040 C 12.373 5.244,11.454 6.055,11.123 7.137 C 11.018 7.481,10.974 8.040,11.035 8.264 C 11.099 8.498,11.286 8.737,11.508 8.867 C 11.673 8.964,11.743 8.980,12.003 8.980 C 12.271 8.980,12.329 8.966,12.503 8.859 C 12.751 8.706,12.948 8.421,12.979 8.169 C 13.027 7.781,13.086 7.567,13.183 7.436 C 13.698 6.732,14.776 6.944,14.965 7.786 C 15.058 8.203,14.865 8.648,14.498 8.863 C 14.376 8.935,14.233 8.974,14.012 8.997 C 13.528 9.045,13.254 9.224,13.083 9.600 C 12.926 9.948,13.005 10.410,13.272 10.695 C 13.418 10.851,13.744 10.999,13.943 11.000 C 14.403 11.001,14.820 11.289,14.939 11.690 C 15.014 11.942,15.015 12.056,14.945 12.290 C 14.872 12.533,14.707 12.740,14.484 12.872 C 14.328 12.963,14.254 12.980,14.000 12.980 C 13.746 12.980,13.672 12.963,13.516 12.872 C 13.323 12.759,13.150 12.563,13.076 12.373 C 13.051 12.311,13.016 12.128,12.997 11.966 C 12.956 11.614,12.833 11.381,12.595 11.205 C 12.117 10.854,11.432 10.998,11.129 11.514 C 11.029 11.686,11.020 11.733,11.022 12.120 C 11.023 12.440,11.045 12.611,11.115 12.840 C 11.416 13.821,12.173 14.579,13.160 14.886 C 13.594 15.021,14.406 15.021,14.840 14.886 C 15.826 14.579,16.579 13.826,16.886 12.840 C 17.021 12.406,17.021 11.593,16.886 11.161 C 16.766 10.779,16.609 10.470,16.402 10.208 L 16.238 10.000 16.402 9.792 C 16.609 9.530,16.766 9.221,16.886 8.839 C 17.021 8.407,17.021 7.594,16.886 7.160 C 16.581 6.179,15.810 5.407,14.861 5.129 C 14.500 5.023,13.832 4.980,13.499 5.040 M6.009 11.790 L 6.020 15.580 6.114 15.860 C 6.442 16.840,7.160 17.558,8.140 17.886 L 8.420 17.980 12.210 17.991 L 16.000 18.003 16.000 18.555 C 16.000 19.352,15.890 19.633,15.484 19.872 L 15.300 19.980 10.000 19.980 L 4.700 19.980 4.516 19.872 C 4.415 19.813,4.284 19.700,4.225 19.623 C 3.988 19.312,4.000 19.608,4.000 14.022 C 4.000 8.240,3.979 8.627,4.304 8.303 C 4.554 8.053,4.728 8.006,5.429 8.003 L 5.997 8.000 6.009 11.790 " stroke="none" fill-rule="evenodd" fill="black"></path></svg>