<svg xmlns="http://www.w3.org/2000/svg" width="24" height="24" viewBox="0 0 24 24" fill="none" stroke="currentColor" stroke-width="2" stroke-linecap="round" stroke-linejoin="round"><path d="M3.695 3.057 C 3.051 3.258,2.799 4.040,3.198 4.591 C 3.448 4.937,3.952 5.090,4.344 4.941 C 5.232 4.602,5.204 3.328,4.303 3.059 C 4.066 2.988,3.916 2.988,3.695 3.057 M8.695 3.057 C 8.051 3.258,7.799 4.040,8.198 4.591 C 8.448 4.937,8.952 5.090,9.344 4.941 C 10.232 4.602,10.204 3.328,9.303 3.059 C 9.066 2.988,8.916 2.988,8.695 3.057 M13.723 3.047 C 13.503 3.110,13.251 3.308,13.131 3.511 L 13.020 3.700 13.010 11.914 C 13.003 17.333,13.013 20.180,13.040 20.278 C 13.099 20.498,13.291 20.739,13.508 20.867 L 13.700 20.980 16.458 20.991 C 18.288 20.998,19.286 20.988,19.421 20.960 C 19.941 20.852,20.538 20.398,20.775 19.931 C 21.010 19.465,20.999 19.871,20.997 11.980 C 20.996 5.268,20.990 4.721,20.927 4.477 C 20.743 3.773,20.097 3.174,19.383 3.043 C 19.075 2.987,13.920 2.990,13.723 3.047 M19.000 12.000 L 19.000 19.000 17.000 19.000 L 15.000 19.000 15.000 12.000 L 15.000 5.000 17.000 5.000 L 19.000 5.000 19.000 12.000 M3.695 8.057 C 3.051 8.258,2.799 9.040,3.198 9.591 C 3.448 9.937,3.952 10.090,4.344 9.941 C 5.232 9.602,5.204 8.328,4.303 8.059 C 4.066 7.988,3.916 7.988,3.695 8.057 M3.695 14.057 C 3.051 14.258,2.799 15.040,3.198 15.591 C 3.448 15.937,3.952 16.090,4.344 15.941 C 5.232 15.602,5.204 14.328,4.303 14.059 C 4.066 13.988,3.916 13.988,3.695 14.057 M3.695 19.057 C 3.314 19.176,3.048 19.510,3.011 19.914 C 2.911 21.016,4.438 21.424,4.906 20.420 C 5.159 19.876,4.873 19.229,4.303 19.059 C 4.066 18.988,3.916 18.988,3.695 19.057 M8.723 19.047 C 8.065 19.236,7.794 20.033,8.198 20.591 C 8.639 21.199,9.587 21.104,9.906 20.420 C 10.264 19.651,9.541 18.812,8.723 19.047 " stroke="none" fill-rule="evenodd" fill="black"></path></svg>