<svg xmlns="http://www.w3.org/2000/svg" width="24" height="24" viewBox="0 0 24 24" fill="none" stroke="currentColor" stroke-width="2" stroke-linecap="round" stroke-linejoin="round"><path d="M4.580 3.047 C 4.100 3.139,3.550 3.534,3.281 3.982 C 3.004 4.444,3.005 4.428,3.003 7.440 C 3.001 9.184,3.015 10.193,3.042 10.289 C 3.105 10.517,3.316 10.763,3.555 10.888 L 3.769 11.000 12.000 11.000 L 20.231 11.000 20.445 10.888 C 20.684 10.763,20.895 10.517,20.958 10.289 C 20.985 10.193,20.999 9.184,20.997 7.440 C 20.996 5.021,20.988 4.713,20.927 4.477 C 20.743 3.773,20.097 3.174,19.383 3.043 C 19.076 2.987,4.875 2.991,4.580 3.047 M19.000 7.000 L 19.000 9.000 12.000 9.000 L 5.000 9.000 5.000 7.000 L 5.000 5.000 12.000 5.000 L 19.000 5.000 19.000 7.000 M3.561 14.108 C 3.039 14.383,2.850 15.008,3.140 15.504 C 3.337 15.840,3.686 16.021,4.081 15.992 C 4.828 15.938,5.247 15.075,4.828 14.452 C 4.642 14.177,4.377 14.026,4.045 14.008 C 3.814 13.995,3.752 14.008,3.561 14.108 M19.561 14.108 C 19.172 14.312,18.969 14.684,19.013 15.112 C 19.052 15.491,19.337 15.840,19.707 15.962 C 19.939 16.039,20.285 15.993,20.507 15.857 C 21.155 15.457,21.154 14.542,20.505 14.142 C 20.351 14.048,20.253 14.019,20.045 14.008 C 19.814 13.995,19.752 14.008,19.561 14.108 M3.561 19.108 C 3.039 19.383,2.850 20.008,3.140 20.504 C 3.337 20.840,3.686 21.021,4.081 20.992 C 4.828 20.938,5.247 20.075,4.828 19.452 C 4.642 19.177,4.377 19.026,4.045 19.008 C 3.814 18.995,3.752 19.008,3.561 19.108 M8.561 19.108 C 8.039 19.383,7.850 20.008,8.140 20.504 C 8.337 20.840,8.686 21.021,9.081 20.992 C 9.828 20.938,10.247 20.075,9.828 19.452 C 9.642 19.177,9.377 19.026,9.045 19.008 C 8.814 18.995,8.752 19.008,8.561 19.108 M14.561 19.108 C 14.039 19.383,13.850 20.008,14.140 20.504 C 14.337 20.840,14.686 21.021,15.081 20.992 C 15.828 20.938,16.247 20.075,15.828 19.452 C 15.642 19.177,15.377 19.026,15.045 19.008 C 14.814 18.995,14.752 19.008,14.561 19.108 M19.561 19.108 C 19.172 19.312,18.969 19.684,19.013 20.112 C 19.052 20.491,19.337 20.840,19.707 20.962 C 19.939 21.039,20.285 20.993,20.507 20.857 C 21.155 20.457,21.154 19.542,20.505 19.142 C 20.351 19.048,20.253 19.019,20.045 19.008 C 19.814 18.995,19.752 19.008,19.561 19.108 " stroke="none" fill-rule="evenodd" fill="black"></path></svg>