<svg xmlns="http://www.w3.org/2000/svg" width="24" height="24" viewBox="0 0 24 24" fill="none" stroke="currentColor" stroke-width="2" stroke-linecap="round" stroke-linejoin="round"><path d="M3.695 3.057 C 3.466 3.129,3.256 3.299,3.128 3.516 C 2.985 3.760,2.975 4.211,3.107 4.460 C 3.490 5.177,4.510 5.177,4.893 4.460 C 5.025 4.211,5.015 3.760,4.872 3.516 C 4.628 3.101,4.150 2.915,3.695 3.057 M8.695 3.057 C 8.466 3.129,8.256 3.299,8.128 3.516 C 7.985 3.760,7.975 4.211,8.107 4.460 C 8.490 5.177,9.510 5.177,9.893 4.460 C 10.025 4.211,10.015 3.760,9.872 3.516 C 9.628 3.101,9.150 2.915,8.695 3.057 M14.695 3.057 C 14.466 3.129,14.256 3.299,14.128 3.516 C 13.985 3.760,13.975 4.211,14.107 4.460 C 14.490 5.177,15.510 5.177,15.893 4.460 C 16.025 4.211,16.015 3.760,15.872 3.516 C 15.628 3.101,15.150 2.915,14.695 3.057 M19.695 3.057 C 19.466 3.129,19.256 3.299,19.128 3.516 C 18.985 3.760,18.975 4.211,19.107 4.460 C 19.490 5.177,20.510 5.177,20.893 4.460 C 21.025 4.211,21.015 3.760,20.872 3.516 C 20.628 3.101,20.150 2.915,19.695 3.057 M3.695 8.057 C 3.466 8.129,3.256 8.299,3.128 8.516 C 3.036 8.672,3.020 8.745,3.021 9.000 C 3.022 9.332,3.101 9.533,3.306 9.728 C 3.785 10.181,4.580 10.046,4.893 9.460 C 5.025 9.211,5.015 8.760,4.872 8.516 C 4.628 8.101,4.150 7.915,3.695 8.057 M19.695 8.057 C 19.466 8.129,19.256 8.299,19.128 8.516 C 19.036 8.672,19.020 8.745,19.021 9.000 C 19.022 9.332,19.101 9.533,19.306 9.728 C 19.785 10.181,20.580 10.046,20.893 9.460 C 21.025 9.211,21.015 8.760,20.872 8.516 C 20.628 8.101,20.150 7.915,19.695 8.057 M13.477 12.073 C 12.806 12.249,12.238 12.823,12.060 13.508 C 12.010 13.700,12.000 14.180,12.000 16.500 C 12.000 19.501,11.999 19.484,12.225 19.930 C 12.361 20.199,12.801 20.639,13.070 20.775 C 13.516 21.001,13.499 21.000,16.500 21.000 C 19.501 21.000,19.484 21.001,19.930 20.775 C 20.196 20.640,20.638 20.200,20.771 19.937 C 21.000 19.485,21.000 19.489,20.999 16.514 C 20.999 13.558,20.995 13.505,20.781 13.083 C 20.646 12.816,20.297 12.449,20.017 12.281 C 19.555 12.003,19.580 12.005,16.500 12.005 C 14.020 12.005,13.713 12.012,13.477 12.073 M3.695 14.057 C 3.466 14.129,3.256 14.299,3.128 14.516 C 3.036 14.672,3.020 14.745,3.021 15.000 C 3.022 15.332,3.101 15.533,3.306 15.728 C 3.785 16.181,4.580 16.046,4.893 15.460 C 5.025 15.211,5.015 14.760,4.872 14.516 C 4.628 14.101,4.150 13.915,3.695 14.057 M19.000 16.500 L 19.000 19.000 16.500 19.000 L 14.000 19.000 14.000 16.500 L 14.000 14.000 16.500 14.000 L 19.000 14.000 19.000 16.500 M3.695 19.057 C 3.466 19.129,3.256 19.299,3.128 19.516 C 3.036 19.672,3.020 19.745,3.021 20.000 C 3.022 20.332,3.101 20.533,3.306 20.728 C 3.785 21.181,4.580 21.046,4.893 20.460 C 5.025 20.211,5.015 19.760,4.872 19.516 C 4.628 19.101,4.150 18.915,3.695 19.057 M8.695 19.057 C 8.466 19.129,8.256 19.299,8.128 19.516 C 8.036 19.672,8.020 19.745,8.021 20.000 C 8.022 20.332,8.101 20.533,8.306 20.728 C 8.785 21.181,9.580 21.046,9.893 20.460 C 10.025 20.211,10.015 19.760,9.872 19.516 C 9.628 19.101,9.150 18.915,8.695 19.057 " stroke="none" fill-rule="evenodd" fill="black"></path></svg>