<svg xmlns="http://www.w3.org/2000/svg" width="24" height="24" viewBox="0 0 24 24" fill="none" stroke="currentColor" stroke-width="2" stroke-linecap="round" stroke-linejoin="round"><path d="M2.670 2.061 C 2.448 2.142,2.250 2.309,2.128 2.516 C 2.037 2.672,2.020 2.746,2.020 3.000 C 2.020 3.254,2.036 3.328,2.127 3.480 C 2.186 3.579,2.632 4.056,3.117 4.540 L 4.000 5.419 4.002 12.800 C 4.003 18.861,4.013 20.207,4.057 20.330 C 4.136 20.551,4.298 20.744,4.511 20.869 L 4.700 20.980 6.410 20.992 C 7.502 20.999,8.175 20.988,8.274 20.962 C 8.498 20.901,8.738 20.711,8.867 20.492 C 8.964 20.327,8.980 20.257,8.980 20.000 C 8.980 19.746,8.963 19.672,8.872 19.516 C 8.813 19.415,8.698 19.282,8.618 19.221 C 8.356 19.022,8.203 19.000,7.054 19.000 L 6.000 19.000 6.000 13.210 L 6.000 7.420 11.780 13.200 L 17.560 18.980 16.650 19.001 C 16.070 19.015,15.699 19.040,15.627 19.071 C 15.431 19.156,15.240 19.327,15.128 19.516 C 15.037 19.672,15.020 19.746,15.020 20.000 C 15.020 20.256,15.036 20.328,15.131 20.489 C 15.256 20.702,15.449 20.864,15.670 20.943 C 15.885 21.020,19.112 21.021,19.327 20.944 L 19.473 20.892 19.907 21.329 C 20.474 21.900,20.608 21.980,21.000 21.980 C 21.257 21.980,21.327 21.964,21.492 21.867 C 21.968 21.587,22.139 20.967,21.865 20.508 C 21.810 20.416,17.665 16.243,12.653 11.235 C 4.231 2.820,3.525 2.125,3.343 2.065 C 3.107 1.987,2.874 1.986,2.670 2.061 M15.695 3.057 C 15.466 3.129,15.256 3.299,15.128 3.516 C 15.037 3.672,15.020 3.746,15.020 4.000 C 15.020 4.256,15.036 4.328,15.131 4.489 C 15.192 4.592,15.304 4.725,15.381 4.783 C 15.642 4.983,15.738 4.996,16.909 4.998 L 17.999 5.000 18.009 10.153 L 18.020 15.306 18.141 15.503 C 18.543 16.156,19.457 16.156,19.859 15.503 L 19.980 15.306 19.980 9.503 L 19.980 3.700 19.872 3.516 C 19.740 3.293,19.533 3.128,19.290 3.055 C 19.035 2.978,15.941 2.980,15.695 3.057 " stroke="none" fill-rule="evenodd" fill="black"></path></svg>