<svg xmlns="http://www.w3.org/2000/svg" width="24" height="24" viewBox="0 0 24 24" fill="none" stroke="currentColor" stroke-width="2" stroke-linecap="round" stroke-linejoin="round"><path d="M2.670 2.061 C 2.448 2.142,2.250 2.309,2.128 2.516 C 2.036 2.672,2.020 2.745,2.021 3.000 C 2.021 3.213,2.043 3.341,2.095 3.440 C 2.136 3.517,2.583 3.997,3.089 4.506 L 4.009 5.431 4.003 7.306 C 3.996 9.174,3.972 9.601,3.854 9.980 C 3.710 10.440,3.343 10.931,3.111 10.976 C 2.652 11.064,2.553 11.096,2.405 11.205 C 2.314 11.273,2.190 11.412,2.129 11.514 C 2.036 11.672,2.020 11.745,2.020 12.003 C 2.020 12.271,2.034 12.329,2.141 12.503 C 2.293 12.749,2.578 12.947,2.831 12.981 C 3.141 13.023,3.257 13.073,3.407 13.231 C 3.646 13.481,3.824 13.841,3.927 14.280 C 3.952 14.385,3.981 15.322,3.997 16.520 C 4.024 18.518,4.028 18.588,4.116 18.860 C 4.434 19.833,5.189 20.587,6.137 20.877 C 6.481 20.982,7.040 21.026,7.264 20.965 C 7.498 20.901,7.737 20.714,7.867 20.492 C 7.964 20.327,7.980 20.257,7.980 20.000 C 7.980 19.746,7.963 19.672,7.872 19.516 C 7.758 19.323,7.561 19.149,7.375 19.078 C 7.314 19.055,7.130 19.019,6.966 18.998 C 6.622 18.955,6.387 18.835,6.225 18.623 C 6.003 18.332,6.000 18.301,6.000 16.378 C 6.000 15.365,5.982 14.472,5.958 14.293 C 5.858 13.546,5.530 12.687,5.163 12.210 L 5.001 12.000 5.161 11.790 C 5.376 11.507,5.614 11.043,5.736 10.668 C 5.944 10.033,5.972 9.808,5.997 8.590 L 6.020 7.440 11.738 13.158 C 14.883 16.303,17.448 18.885,17.437 18.896 C 17.414 18.919,17.157 18.978,16.820 19.037 C 15.913 19.198,15.704 20.395,16.501 20.863 C 17.001 21.155,18.119 20.927,18.797 20.394 L 18.894 20.317 19.657 21.074 C 20.077 21.490,20.483 21.864,20.560 21.905 C 20.660 21.957,20.787 21.979,21.000 21.979 C 21.258 21.980,21.327 21.964,21.492 21.867 C 21.968 21.587,22.139 20.967,21.865 20.508 C 21.810 20.416,17.665 16.243,12.653 11.235 C 4.231 2.820,3.525 2.125,3.343 2.065 C 3.107 1.987,2.874 1.986,2.670 2.061 M16.695 3.054 C 16.048 3.267,15.799 4.040,16.198 4.591 C 16.369 4.827,16.608 4.953,16.972 4.999 C 17.364 5.049,17.516 5.114,17.717 5.321 C 17.994 5.608,18.000 5.653,18.000 7.657 C 18.000 9.520,18.023 9.841,18.200 10.480 C 18.304 10.855,18.624 11.513,18.837 11.790 L 18.999 12.000 18.837 12.210 C 18.323 12.878,17.952 14.137,18.009 15.021 C 18.024 15.260,18.051 15.357,18.145 15.510 C 18.442 15.992,19.062 16.139,19.535 15.839 C 19.757 15.699,19.949 15.413,19.976 15.185 C 19.987 15.094,20.016 14.835,20.040 14.609 C 20.107 13.992,20.281 13.557,20.593 13.231 C 20.743 13.073,20.859 13.023,21.169 12.981 C 21.422 12.947,21.707 12.749,21.859 12.503 C 21.966 12.329,21.980 12.271,21.980 12.003 C 21.980 11.745,21.964 11.672,21.871 11.514 C 21.810 11.412,21.686 11.273,21.595 11.205 C 21.447 11.096,21.348 11.064,20.889 10.976 C 20.672 10.934,20.329 10.499,20.178 10.075 C 20.043 9.699,20.030 9.503,20.003 7.480 C 19.976 5.482,19.972 5.412,19.884 5.140 C 19.565 4.164,18.798 3.401,17.863 3.130 C 17.463 3.015,16.922 2.979,16.695 3.054 " stroke="none" fill-rule="evenodd" fill="black"></path></svg>