<svg xmlns="http://www.w3.org/2000/svg" width="24" height="24" viewBox="0 0 24 24" fill="none" stroke="currentColor" stroke-width="2" stroke-linecap="round" stroke-linejoin="round"><path d="M13.695 3.057 C 13.466 3.129,13.256 3.299,13.128 3.516 C 13.037 3.672,13.020 3.746,13.020 4.000 C 13.020 4.256,13.036 4.328,13.131 4.489 C 13.192 4.592,13.304 4.725,13.381 4.783 C 13.654 4.991,13.700 4.996,15.410 4.998 L 17.000 5.000 17.000 12.000 L 17.000 19.000 15.446 19.000 C 13.758 19.000,13.658 19.011,13.382 19.221 C 13.302 19.282,13.187 19.415,13.128 19.516 C 13.037 19.672,13.020 19.746,13.020 20.000 C 13.020 20.257,13.036 20.327,13.133 20.492 C 13.261 20.711,13.502 20.901,13.725 20.961 C 13.824 20.988,14.663 20.999,16.089 20.991 L 18.300 20.980 18.492 20.867 C 18.709 20.739,18.901 20.498,18.960 20.278 C 18.987 20.180,18.997 17.333,18.990 11.914 L 18.980 3.700 18.872 3.516 C 18.740 3.293,18.533 3.128,18.290 3.055 C 18.033 2.978,13.943 2.979,13.695 3.057 M4.695 15.055 C 4.464 15.130,4.255 15.300,4.128 15.516 C 4.037 15.672,4.020 15.746,4.020 16.000 C 4.020 16.257,4.036 16.327,4.133 16.492 C 4.651 17.374,5.998 17.018,5.998 16.000 C 5.998 15.623,5.792 15.281,5.463 15.112 C 5.265 15.010,4.911 14.984,4.695 15.055 M8.695 15.055 C 8.464 15.130,8.255 15.300,8.128 15.516 C 8.037 15.672,8.020 15.746,8.020 16.000 C 8.020 16.257,8.036 16.327,8.133 16.492 C 8.651 17.374,9.998 17.018,9.998 16.000 C 9.998 15.623,9.792 15.281,9.463 15.112 C 9.265 15.010,8.911 14.984,8.695 15.055 M12.695 15.055 C 12.464 15.130,12.255 15.300,12.128 15.516 C 12.037 15.672,12.020 15.746,12.020 16.000 C 12.020 16.257,12.036 16.327,12.133 16.492 C 12.651 17.374,13.998 17.018,13.998 16.000 C 13.998 15.623,13.792 15.281,13.463 15.112 C 13.265 15.010,12.911 14.984,12.695 15.055 " stroke="none" fill-rule="evenodd" fill="black"></path></svg>