<svg xmlns="http://www.w3.org/2000/svg" width="24" height="24" viewBox="0 0 24 24" fill="none" stroke="currentColor" stroke-width="2" stroke-linecap="round" stroke-linejoin="round"><path d="M2.695 3.057 C 2.466 3.129,2.256 3.299,2.128 3.516 L 2.020 3.700 2.010 11.914 C 2.003 17.333,2.013 20.180,2.040 20.278 C 2.099 20.498,2.291 20.739,2.508 20.867 L 2.700 20.980 4.911 20.991 C 6.337 20.999,7.176 20.988,7.275 20.961 C 7.498 20.901,7.739 20.711,7.867 20.492 C 7.964 20.327,7.980 20.257,7.980 20.000 C 7.980 19.746,7.963 19.672,7.872 19.516 C 7.813 19.415,7.698 19.282,7.618 19.221 C 7.342 19.011,7.242 19.000,5.554 19.000 L 4.000 19.000 4.000 12.000 L 4.000 5.000 5.590 4.998 C 7.300 4.996,7.346 4.991,7.619 4.783 C 7.696 4.725,7.808 4.592,7.869 4.489 C 7.964 4.328,7.980 4.256,7.980 4.000 C 7.980 3.746,7.963 3.672,7.872 3.516 C 7.740 3.293,7.533 3.128,7.290 3.055 C 7.033 2.978,2.943 2.979,2.695 3.057 M16.695 3.057 C 16.466 3.129,16.256 3.299,16.128 3.516 C 16.037 3.672,16.020 3.746,16.020 4.000 C 16.020 4.256,16.036 4.328,16.131 4.489 C 16.192 4.592,16.304 4.725,16.381 4.783 C 16.654 4.991,16.700 4.996,18.410 4.998 L 20.000 5.000 20.000 12.000 L 20.000 19.000 18.446 19.000 C 16.758 19.000,16.658 19.011,16.382 19.221 C 16.302 19.282,16.187 19.415,16.128 19.516 C 16.037 19.672,16.020 19.746,16.020 20.000 C 16.020 20.257,16.036 20.327,16.133 20.492 C 16.261 20.711,16.502 20.901,16.725 20.961 C 16.824 20.988,17.663 20.999,19.089 20.991 L 21.300 20.980 21.492 20.867 C 21.709 20.739,21.901 20.498,21.960 20.278 C 21.987 20.180,21.997 17.333,21.990 11.914 L 21.980 3.700 21.872 3.516 C 21.740 3.293,21.533 3.128,21.290 3.055 C 21.033 2.978,16.943 2.979,16.695 3.057 M7.695 15.055 C 7.464 15.130,7.255 15.300,7.128 15.516 C 7.037 15.672,7.020 15.746,7.020 16.000 C 7.020 16.257,7.036 16.327,7.133 16.492 C 7.651 17.374,8.998 17.018,8.998 16.000 C 8.998 15.623,8.792 15.281,8.463 15.112 C 8.265 15.010,7.911 14.984,7.695 15.055 M11.695 15.055 C 11.464 15.130,11.255 15.300,11.128 15.516 C 11.037 15.672,11.020 15.746,11.020 16.000 C 11.020 16.257,11.036 16.327,11.133 16.492 C 11.651 17.374,12.998 17.018,12.998 16.000 C 12.998 15.623,12.792 15.281,12.463 15.112 C 12.265 15.010,11.911 14.984,11.695 15.055 M15.695 15.055 C 15.464 15.130,15.255 15.300,15.128 15.516 C 15.037 15.672,15.020 15.746,15.020 16.000 C 15.020 16.257,15.036 16.327,15.133 16.492 C 15.651 17.374,16.998 17.018,16.998 16.000 C 16.998 15.623,16.792 15.281,16.463 15.112 C 16.265 15.010,15.911 14.984,15.695 15.055 " stroke="none" fill-rule="evenodd" fill="black"></path></svg>