<svg xmlns="http://www.w3.org/2000/svg" width="24" height="24" viewBox="0 0 24 24" fill="none" stroke="currentColor" stroke-width="2" stroke-linecap="round" stroke-linejoin="round"><path d="M7.664 3.063 C 7.578 3.094,7.448 3.165,7.376 3.220 C 7.230 3.332,2.154 11.414,2.056 11.691 C 1.985 11.893,1.985 12.107,2.056 12.309 C 2.154 12.587,7.230 20.668,7.377 20.780 C 7.701 21.028,8.161 21.061,8.501 20.862 C 8.904 20.625,9.100 20.105,8.946 19.680 C 8.918 19.603,7.838 17.851,6.547 15.786 C 5.256 13.722,4.200 12.018,4.200 12.000 C 4.200 11.982,5.256 10.278,6.547 8.214 C 7.838 6.149,8.918 4.397,8.946 4.320 C 9.221 3.561,8.428 2.783,7.664 3.063 M15.650 3.066 C 15.171 3.236,14.882 3.845,15.054 4.320 C 15.082 4.397,16.162 6.149,17.453 8.214 C 18.744 10.278,19.800 11.982,19.800 12.000 C 19.800 12.018,18.744 13.722,17.453 15.786 C 16.162 17.851,15.082 19.603,15.054 19.680 C 14.900 20.105,15.096 20.625,15.499 20.862 C 15.839 21.061,16.299 21.028,16.623 20.780 C 16.770 20.668,21.846 12.587,21.944 12.309 C 22.015 12.107,22.015 11.893,21.944 11.691 C 21.913 11.604,20.733 9.685,19.322 7.426 C 17.522 4.547,16.714 3.289,16.619 3.217 C 16.352 3.013,15.970 2.953,15.650 3.066 " stroke="none" fill-rule="evenodd" fill="black"></path></svg>