<svg xmlns="http://www.w3.org/2000/svg" width="24" height="24" viewBox="0 0 24 24" fill="none" stroke="currentColor" stroke-width="2" stroke-linecap="round" stroke-linejoin="round"><path d="M4.695 3.057 C 4.466 3.129,4.256 3.299,4.128 3.516 L 4.020 3.700 4.010 11.914 C 4.003 17.333,4.013 20.180,4.040 20.278 C 4.099 20.498,4.291 20.739,4.508 20.867 L 4.700 20.980 6.410 20.992 C 7.502 20.999,8.175 20.988,8.274 20.962 C 8.498 20.901,8.738 20.711,8.867 20.492 C 8.964 20.327,8.980 20.257,8.980 20.000 C 8.980 19.746,8.963 19.672,8.872 19.516 C 8.813 19.415,8.698 19.282,8.618 19.221 C 8.356 19.022,8.203 19.000,7.054 19.000 L 6.000 19.000 6.000 12.000 L 6.000 5.000 7.090 4.998 C 8.262 4.996,8.357 4.983,8.619 4.783 C 8.696 4.725,8.808 4.592,8.869 4.489 C 8.964 4.328,8.980 4.256,8.980 4.000 C 8.980 3.746,8.963 3.672,8.872 3.516 C 8.740 3.293,8.533 3.128,8.290 3.055 C 8.035 2.978,4.941 2.980,4.695 3.057 M15.695 3.057 C 15.466 3.129,15.256 3.299,15.128 3.516 C 15.037 3.672,15.020 3.746,15.020 4.000 C 15.020 4.256,15.036 4.328,15.131 4.489 C 15.192 4.592,15.304 4.725,15.381 4.783 C 15.643 4.983,15.738 4.996,16.910 4.998 L 18.000 5.000 18.000 12.000 L 18.000 19.000 16.946 19.000 C 15.797 19.000,15.644 19.022,15.382 19.221 C 15.302 19.282,15.187 19.415,15.128 19.516 C 15.037 19.672,15.020 19.746,15.020 20.000 C 15.020 20.257,15.036 20.327,15.133 20.492 C 15.262 20.711,15.502 20.901,15.726 20.962 C 15.825 20.988,16.498 20.999,17.590 20.992 L 19.300 20.980 19.492 20.867 C 19.709 20.739,19.901 20.498,19.960 20.278 C 19.987 20.180,19.997 17.333,19.990 11.914 L 19.980 3.700 19.872 3.516 C 19.740 3.293,19.533 3.128,19.290 3.055 C 19.035 2.978,15.941 2.980,15.695 3.057 " stroke="none" fill-rule="evenodd" fill="black"></path></svg>