<svg xmlns="http://www.w3.org/2000/svg" width="24" height="24" viewBox="0 0 24 24" fill="none" stroke="currentColor" stroke-width="2" stroke-linecap="round" stroke-linejoin="round"><path d="M7.900 2.045 C 7.211 2.131,6.422 2.450,5.857 2.871 C 4.880 3.598,4.269 4.586,4.062 5.775 C 4.015 6.047,4.000 6.438,4.000 7.442 L 4.000 8.753 3.750 8.949 C 3.029 9.516,2.524 10.227,2.241 11.071 C 1.865 12.194,1.947 13.458,2.464 14.489 C 2.750 15.062,3.282 15.705,3.786 16.087 L 3.992 16.243 4.010 17.212 C 4.026 18.090,4.037 18.216,4.130 18.563 C 4.447 19.753,5.144 20.712,6.136 21.323 C 7.919 22.420,10.196 22.154,11.670 20.676 L 12.000 20.345 12.330 20.676 C 13.804 22.154,16.081 22.420,17.864 21.323 C 18.856 20.712,19.553 19.753,19.870 18.563 C 19.963 18.216,19.974 18.090,19.990 17.212 L 20.008 16.243 20.214 16.087 C 20.718 15.705,21.250 15.062,21.536 14.489 C 21.934 13.695,22.090 12.644,21.938 11.775 C 21.739 10.633,21.161 9.666,20.250 8.949 L 20.000 8.753 20.000 7.442 C 20.000 5.997,19.970 5.700,19.759 5.071 C 19.095 3.090,17.127 1.818,15.060 2.033 C 13.974 2.146,13.038 2.599,12.270 3.382 L 12.000 3.657 11.730 3.382 C 10.712 2.344,9.340 1.865,7.900 2.045 M9.020 4.060 C 9.741 4.211,10.395 4.713,10.715 5.362 C 11.004 5.949,10.999 5.867,10.999 9.506 L 11.000 12.752 10.693 12.578 C 10.076 12.226,9.348 12.029,8.640 12.023 C 8.281 12.021,8.197 12.033,8.060 12.106 C 7.850 12.220,7.660 12.422,7.578 12.618 C 7.493 12.821,7.493 13.179,7.578 13.382 C 7.726 13.738,8.124 13.998,8.520 14.000 C 9.426 14.005,10.319 14.559,10.715 15.362 C 10.950 15.839,10.999 16.119,10.999 17.000 C 10.999 17.874,10.950 18.162,10.723 18.620 C 10.439 19.195,9.932 19.646,9.320 19.868 C 9.052 19.965,8.965 19.976,8.500 19.976 C 8.035 19.976,7.948 19.965,7.680 19.868 C 7.068 19.646,6.561 19.195,6.277 18.620 C 6.083 18.227,6.002 17.858,6.001 17.360 L 6.000 16.980 6.326 16.993 C 6.715 17.009,6.934 16.939,7.173 16.724 C 7.574 16.362,7.600 15.715,7.228 15.326 C 7.018 15.108,6.832 15.036,6.372 14.996 C 5.859 14.951,5.473 14.822,5.108 14.574 C 4.431 14.113,4.001 13.308,4.001 12.500 C 4.001 11.579,4.550 10.685,5.362 10.285 C 5.787 10.076,6.136 10.002,6.720 9.999 C 7.375 9.995,7.640 9.878,7.869 9.489 C 7.964 9.328,7.980 9.256,7.980 9.000 C 7.980 8.745,7.964 8.672,7.871 8.514 C 7.731 8.276,7.485 8.096,7.220 8.037 C 7.095 8.009,6.810 7.997,6.506 8.007 L 6.000 8.024 6.001 7.142 C 6.002 6.107,6.042 5.856,6.285 5.362 C 6.774 4.371,7.914 3.828,9.020 4.060 M16.020 4.060 C 16.741 4.211,17.395 4.713,17.715 5.362 C 17.958 5.856,17.998 6.107,17.999 7.142 L 18.000 8.024 17.494 8.007 C 17.190 7.997,16.905 8.009,16.780 8.037 C 16.515 8.096,16.269 8.276,16.129 8.514 C 16.036 8.672,16.020 8.745,16.020 9.000 C 16.020 9.256,16.036 9.328,16.131 9.489 C 16.360 9.878,16.625 9.995,17.280 9.999 C 17.864 10.002,18.213 10.076,18.638 10.285 C 19.450 10.685,19.999 11.579,19.999 12.500 C 19.999 13.308,19.569 14.113,18.892 14.574 C 18.527 14.822,18.141 14.951,17.628 14.996 C 17.168 15.036,16.982 15.108,16.772 15.326 C 16.511 15.599,16.434 16.054,16.590 16.405 C 16.767 16.804,17.154 17.014,17.674 16.993 L 18.000 16.980 17.999 17.360 C 17.998 17.858,17.917 18.227,17.723 18.620 C 17.439 19.195,16.932 19.646,16.320 19.868 C 16.052 19.965,15.965 19.976,15.500 19.976 C 15.035 19.976,14.948 19.965,14.680 19.868 C 14.068 19.646,13.561 19.195,13.277 18.620 C 13.050 18.162,13.001 17.874,13.001 17.000 C 13.001 16.119,13.050 15.839,13.285 15.362 C 13.681 14.559,14.574 14.005,15.480 14.000 C 15.876 13.998,16.274 13.738,16.422 13.382 C 16.507 13.179,16.507 12.821,16.422 12.618 C 16.340 12.422,16.150 12.220,15.940 12.106 C 15.803 12.033,15.719 12.021,15.360 12.023 C 14.652 12.029,13.924 12.226,13.307 12.578 L 13.000 12.752 13.001 9.506 C 13.001 5.867,12.996 5.949,13.285 5.362 C 13.774 4.371,14.914 3.828,16.020 4.060 " stroke="none" fill-rule="evenodd" fill="black"></path></svg>