<svg xmlns="http://www.w3.org/2000/svg" width="24" height="24" viewBox="0 0 24 24" fill="none" stroke="currentColor" stroke-width="2" stroke-linecap="round" stroke-linejoin="round"><path d="M7.477 3.073 C 6.806 3.249,6.238 3.823,6.060 4.508 C 5.941 4.962,6.003 5.492,6.225 5.930 C 6.361 6.199,6.801 6.639,7.070 6.775 C 7.659 7.073,8.341 7.073,8.930 6.775 C 9.196 6.640,9.638 6.200,9.771 5.937 C 9.994 5.498,10.052 5.007,9.940 4.529 C 9.858 4.182,9.720 3.927,9.465 3.653 C 8.948 3.097,8.211 2.882,7.477 3.073 M15.477 3.073 C 14.806 3.249,14.238 3.823,14.060 4.508 C 13.941 4.962,14.003 5.492,14.225 5.930 C 14.361 6.199,14.801 6.639,15.070 6.775 C 15.659 7.073,16.341 7.073,16.930 6.775 C 17.196 6.640,17.638 6.200,17.771 5.937 C 17.994 5.498,18.052 5.007,17.940 4.529 C 17.858 4.182,17.720 3.927,17.465 3.653 C 16.948 3.097,16.211 2.882,15.477 3.073 M7.695 11.055 C 7.464 11.130,7.255 11.300,7.128 11.516 C 7.037 11.672,7.020 11.746,7.020 12.000 C 7.020 12.257,7.036 12.327,7.133 12.492 C 7.651 13.374,8.998 13.018,8.998 12.000 C 8.998 11.623,8.792 11.281,8.463 11.112 C 8.265 11.010,7.911 10.984,7.695 11.055 M15.695 11.055 C 15.464 11.130,15.255 11.300,15.128 11.516 C 15.037 11.672,15.020 11.746,15.020 12.000 C 15.020 12.257,15.036 12.327,15.133 12.492 C 15.651 13.374,16.998 13.018,16.998 12.000 C 16.998 11.623,16.792 11.281,16.463 11.112 C 16.265 11.010,15.911 10.984,15.695 11.055 M7.477 17.073 C 6.806 17.249,6.238 17.823,6.060 18.508 C 5.941 18.962,6.003 19.492,6.225 19.930 C 6.361 20.199,6.801 20.639,7.070 20.775 C 7.659 21.073,8.341 21.073,8.930 20.775 C 9.196 20.640,9.638 20.200,9.771 19.937 C 9.994 19.498,10.052 19.007,9.940 18.529 C 9.858 18.182,9.720 17.927,9.465 17.653 C 9.074 17.232,8.560 17.005,8.000 17.005 C 7.857 17.005,7.622 17.036,7.477 17.073 M15.695 18.055 C 15.464 18.130,15.255 18.300,15.128 18.516 C 15.037 18.672,15.020 18.746,15.020 19.000 C 15.020 19.257,15.036 19.327,15.133 19.492 C 15.651 20.374,16.998 20.018,16.998 19.000 C 16.998 18.623,16.792 18.281,16.463 18.112 C 16.265 18.010,15.911 17.984,15.695 18.055 " stroke="none" fill-rule="evenodd" fill="black"></path></svg>