<svg xmlns="http://www.w3.org/2000/svg" width="24" height="24" viewBox="0 0 24 24" fill="none" stroke="currentColor" stroke-width="2" stroke-linecap="round" stroke-linejoin="round"><path d="M11.660 3.069 C 11.538 3.111,11.398 3.202,11.300 3.302 C 11.188 3.418,9.787 5.875,6.588 11.569 C 2.442 18.946,2.033 19.691,2.013 19.890 C 1.981 20.196,2.083 20.485,2.298 20.700 C 2.626 21.028,1.731 21.000,12.017 20.998 C 21.925 20.996,21.322 21.010,21.619 20.783 C 21.927 20.549,22.074 20.075,21.951 19.714 C 21.880 19.505,12.921 3.561,12.762 3.360 C 12.523 3.058,12.053 2.934,11.660 3.069 M15.648 12.530 L 19.276 18.980 15.638 18.990 C 13.637 18.996,10.363 18.996,8.362 18.990 L 4.724 18.980 8.352 12.530 C 10.347 8.983,11.989 6.080,12.000 6.080 C 12.011 6.080,13.653 8.983,15.648 12.530 " stroke="none" fill-rule="evenodd" fill="black"></path></svg>