<svg xmlns="http://www.w3.org/2000/svg" width="24" height="24" viewBox="0 0 24 24" fill="none" stroke="currentColor" stroke-width="2" stroke-linecap="round" stroke-linejoin="round"><path d="M10.880 5.045 C 9.538 5.180,8.436 5.678,7.578 6.537 C 7.167 6.949,6.763 7.529,6.516 8.062 C 6.289 8.554,6.035 9.328,6.010 9.608 C 5.991 9.812,6.004 9.870,6.115 10.090 C 6.261 10.382,6.444 10.536,6.751 10.625 C 7.115 10.731,7.469 10.616,7.759 10.297 C 8.218 9.793,8.522 9.524,8.770 9.402 C 9.303 9.140,9.924 9.151,10.401 9.433 C 10.549 9.520,10.907 9.826,11.276 10.181 C 12.340 11.205,12.801 11.557,13.524 11.896 C 15.252 12.706,17.531 12.700,19.169 11.880 C 19.896 11.517,20.584 10.899,21.073 10.173 C 21.451 9.611,21.935 8.429,21.987 7.940 C 22.030 7.547,21.826 7.155,21.478 6.960 C 21.332 6.878,21.247 6.860,21.000 6.861 C 20.611 6.862,20.440 6.951,20.138 7.309 C 19.862 7.635,19.478 7.977,19.264 8.088 C 18.715 8.370,18.037 8.352,17.549 8.042 C 17.444 7.975,17.012 7.592,16.589 7.190 C 16.166 6.789,15.660 6.340,15.464 6.193 C 14.242 5.276,12.618 4.870,10.880 5.045 M12.282 7.040 C 12.805 7.100,13.221 7.220,13.660 7.437 C 14.146 7.678,14.492 7.952,15.380 8.800 C 16.334 9.711,16.933 10.082,17.657 10.209 L 17.900 10.252 17.745 10.306 C 17.199 10.495,16.094 10.550,15.422 10.422 C 14.456 10.239,13.869 9.899,12.900 8.962 C 11.763 7.862,11.350 7.574,10.600 7.356 C 10.457 7.314,10.300 7.280,10.250 7.280 C 10.061 7.280,10.172 7.203,10.450 7.141 C 11.067 7.004,11.678 6.971,12.282 7.040 M6.840 11.545 C 4.852 11.776,3.417 12.758,2.563 14.471 C 2.337 14.925,2.043 15.772,2.013 16.060 C 1.930 16.827,2.722 17.391,3.423 17.065 C 3.565 16.998,3.697 16.887,3.859 16.695 C 4.494 15.945,4.966 15.693,5.670 15.730 C 6.248 15.760,6.384 15.844,7.369 16.773 C 8.201 17.558,8.480 17.794,8.887 18.054 C 9.499 18.445,10.348 18.770,11.100 18.902 C 11.598 18.989,12.571 19.020,13.072 18.965 C 14.498 18.809,15.525 18.350,16.402 17.480 C 17.038 16.850,17.467 16.124,17.809 15.102 C 18.021 14.468,18.041 14.238,17.910 13.951 C 17.731 13.559,17.416 13.352,17.000 13.352 C 16.694 13.352,16.463 13.459,16.241 13.703 C 15.782 14.207,15.478 14.476,15.229 14.598 C 14.873 14.774,14.519 14.830,14.158 14.768 C 13.662 14.683,13.491 14.566,12.600 13.700 C 11.915 13.035,11.616 12.782,11.170 12.491 C 10.507 12.057,9.770 11.765,8.961 11.613 C 8.634 11.552,7.180 11.505,6.840 11.545 M8.928 13.652 C 9.402 13.777,9.882 14.012,10.278 14.313 C 10.441 14.438,10.873 14.825,11.238 15.173 C 12.262 16.152,12.780 16.497,13.480 16.664 C 13.645 16.704,13.795 16.748,13.813 16.763 C 13.831 16.778,13.723 16.819,13.573 16.855 C 12.465 17.120,11.240 17.016,10.340 16.579 C 9.929 16.380,9.469 16.013,8.662 15.242 C 7.693 14.315,7.224 14.010,6.491 13.829 L 6.146 13.743 6.275 13.691 C 6.565 13.572,7.051 13.523,7.800 13.537 C 8.439 13.548,8.593 13.564,8.928 13.652 " stroke="none" fill-rule="evenodd" fill="black"></path></svg>