<svg xmlns="http://www.w3.org/2000/svg" width="24" height="24" viewBox="0 0 24 24" fill="none" stroke="currentColor" stroke-width="2" stroke-linecap="round" stroke-linejoin="round"><path d="M11.080 2.045 C 9.507 2.184,7.883 2.751,6.540 3.630 C 5.905 4.045,5.499 4.378,4.919 4.958 C 2.953 6.926,1.919 9.544,2.013 12.320 C 2.084 14.439,2.752 16.328,4.033 18.040 C 4.430 18.570,5.305 19.464,5.800 19.847 C 7.242 20.961,8.787 21.624,10.600 21.907 C 11.247 22.008,12.753 22.008,13.400 21.907 C 15.638 21.557,17.504 20.620,19.062 19.062 C 20.620 17.504,21.557 15.638,21.907 13.400 C 22.008 12.753,22.008 11.247,21.907 10.600 C 21.624 8.786,20.959 7.238,19.847 5.800 C 19.510 5.365,18.639 4.494,18.200 4.154 C 16.133 2.555,13.646 1.818,11.080 2.045 M12.734 4.041 C 14.574 4.216,16.228 4.976,17.554 6.256 C 20.043 8.658,20.702 12.394,19.183 15.499 C 18.749 16.387,18.223 17.105,17.496 17.801 C 16.876 18.394,16.262 18.819,15.471 19.200 C 13.267 20.265,10.733 20.265,8.529 19.200 C 7.477 18.693,6.612 18.015,5.847 17.100 C 3.848 14.711,3.440 11.302,4.816 8.500 C 6.162 5.760,8.867 4.049,11.920 4.005 C 12.129 4.003,12.495 4.019,12.734 4.041 M12.780 8.013 C 11.108 8.573,9.673 9.060,9.591 9.095 C 9.395 9.181,9.170 9.410,9.083 9.615 C 9.044 9.706,8.559 11.140,8.006 12.802 C 7.357 14.751,7.000 15.880,7.000 15.984 C 7.000 16.536,7.465 17.000,8.017 17.000 C 8.240 17.000,14.358 14.960,14.564 14.817 C 14.646 14.760,14.760 14.646,14.817 14.564 C 14.960 14.358,17.000 8.240,17.000 8.017 C 17.000 7.479,16.600 7.058,16.048 7.014 C 15.834 6.997,15.628 7.060,12.780 8.013 M14.390 9.650 C 14.380 9.678,14.115 10.474,13.801 11.420 C 13.487 12.366,13.210 13.160,13.185 13.185 C 13.140 13.230,9.636 14.409,9.613 14.387 C 9.598 14.371,10.746 10.919,10.791 10.842 C 10.818 10.797,14.233 9.616,14.374 9.603 C 14.393 9.601,14.400 9.623,14.390 9.650 " stroke="none" fill-rule="evenodd" fill="black"></path></svg>