<svg xmlns="http://www.w3.org/2000/svg" width="24" height="24" viewBox="0 0 24 24" fill="none" stroke="currentColor" stroke-width="2" stroke-linecap="round" stroke-linejoin="round"><path d="M11.695 2.057 C 11.466 2.129,11.256 2.299,11.128 2.516 L 11.020 2.700 11.020 4.003 L 11.020 5.306 11.141 5.503 C 11.543 6.156,12.457 6.156,12.859 5.503 L 12.980 5.306 12.980 4.003 L 12.980 2.700 12.872 2.516 C 12.628 2.101,12.150 1.915,11.695 2.057 M7.695 4.057 C 7.466 4.129,7.256 4.299,7.128 4.516 L 7.020 4.700 7.020 9.003 L 7.020 13.306 7.141 13.503 C 7.209 13.613,7.346 13.756,7.452 13.828 C 7.923 14.144,8.554 13.999,8.859 13.503 L 8.980 13.306 8.980 9.003 L 8.980 4.700 8.872 4.516 C 8.628 4.101,8.150 3.915,7.695 4.057 M15.695 4.057 C 15.466 4.129,15.256 4.299,15.128 4.516 L 15.020 4.700 15.020 6.003 L 15.020 7.306 15.141 7.503 C 15.543 8.156,16.457 8.156,16.859 7.503 L 16.980 7.306 16.980 6.003 L 16.980 4.700 16.872 4.516 C 16.628 4.101,16.150 3.915,15.695 4.057 M11.695 7.057 C 11.466 7.129,11.256 7.299,11.128 7.516 L 11.020 7.700 11.020 12.003 L 11.020 16.306 11.141 16.503 C 11.209 16.613,11.346 16.756,11.452 16.828 C 11.923 17.144,12.554 16.999,12.859 16.503 L 12.980 16.306 12.980 12.003 L 12.980 7.700 12.872 7.516 C 12.628 7.101,12.150 6.915,11.695 7.057 M3.695 10.057 C 3.466 10.129,3.256 10.299,3.128 10.516 L 3.020 10.700 3.020 12.003 L 3.020 13.306 3.141 13.503 C 3.543 14.156,4.457 14.156,4.859 13.503 L 4.980 13.306 4.980 12.003 L 4.980 10.700 4.872 10.516 C 4.628 10.101,4.150 9.915,3.695 10.057 M15.695 10.057 C 15.466 10.129,15.256 10.299,15.128 10.516 L 15.020 10.700 15.020 15.003 L 15.020 19.306 15.141 19.503 C 15.543 20.156,16.457 20.156,16.859 19.503 L 16.980 19.306 16.980 15.003 L 16.980 10.700 16.872 10.516 C 16.628 10.101,16.150 9.915,15.695 10.057 M19.695 10.057 C 19.466 10.129,19.256 10.299,19.128 10.516 L 19.020 10.700 19.020 12.003 L 19.020 13.306 19.141 13.503 C 19.543 14.156,20.457 14.156,20.859 13.503 L 20.980 13.306 20.980 12.003 L 20.980 10.700 20.872 10.516 C 20.628 10.101,20.150 9.915,19.695 10.057 M7.695 16.057 C 7.466 16.129,7.256 16.299,7.128 16.516 L 7.020 16.700 7.020 18.003 L 7.020 19.306 7.141 19.503 C 7.543 20.156,8.457 20.156,8.859 19.503 L 8.980 19.306 8.980 18.003 L 8.980 16.700 8.872 16.516 C 8.628 16.101,8.150 15.915,7.695 16.057 M11.695 18.057 C 11.466 18.129,11.256 18.299,11.128 18.516 L 11.020 18.700 11.020 20.003 L 11.020 21.306 11.141 21.503 C 11.543 22.156,12.457 22.156,12.859 21.503 L 12.980 21.306 12.980 20.003 L 12.980 18.700 12.872 18.516 C 12.628 18.101,12.150 17.915,11.695 18.057 " stroke="none" fill-rule="evenodd" fill="black"></path></svg>