<svg xmlns="http://www.w3.org/2000/svg" width="24" height="24" viewBox="0 0 24 24" fill="none" stroke="currentColor" stroke-width="2" stroke-linecap="round" stroke-linejoin="round"><path d="M14.100 2.092 C 13.862 2.206,13.630 2.450,13.557 2.665 C 13.459 2.952,13.498 3.212,13.778 4.140 C 14.470 6.434,14.865 8.125,15.020 9.460 C 15.084 10.017,15.097 10.360,15.053 10.360 C 15.037 10.360,14.601 10.041,14.083 9.651 C 12.636 8.563,10.903 7.163,9.107 5.631 C 8.802 5.371,8.501 5.132,8.437 5.099 C 8.147 4.948,7.691 4.994,7.403 5.202 C 7.174 5.369,7.066 5.592,6.916 6.210 C 6.796 6.705,6.775 6.758,6.707 6.736 C 6.132 6.553,4.109 6.000,4.017 6.000 C 3.591 6.000,3.178 6.296,3.063 6.684 C 2.936 7.110,3.011 7.380,3.368 7.783 C 4.464 9.021,7.862 12.623,9.375 14.150 C 10.057 14.837,10.606 15.407,10.597 15.416 C 10.537 15.474,9.492 15.560,8.846 15.560 C 7.030 15.560,5.027 15.121,2.820 14.240 C 2.534 14.126,2.207 14.023,2.094 14.011 C 1.389 13.938,0.831 14.632,1.055 15.305 C 1.227 15.823,2.414 17.087,3.724 18.149 C 6.022 20.012,8.678 21.342,11.000 21.795 C 11.685 21.929,11.981 21.961,12.745 21.987 C 14.927 22.061,17.076 21.481,18.234 20.506 C 18.369 20.393,18.442 20.360,18.563 20.360 C 18.894 20.360,19.479 20.644,20.847 21.467 C 21.565 21.900,21.703 21.968,21.892 21.988 C 22.345 22.034,22.792 21.756,22.934 21.340 C 23.023 21.078,23.028 19.264,22.940 18.651 C 22.795 17.629,22.408 16.636,21.849 15.853 L 21.654 15.579 21.707 15.346 C 21.810 14.891,21.880 14.188,21.880 13.608 C 21.878 9.734,19.436 5.477,15.520 2.520 C 14.947 2.087,14.844 2.034,14.542 2.013 C 14.346 1.999,14.262 2.014,14.100 2.092 M17.175 6.890 C 18.563 8.628,19.412 10.400,19.767 12.300 C 19.840 12.693,19.856 12.924,19.857 13.580 C 19.859 14.408,19.821 14.712,19.637 15.379 C 19.486 15.928,19.546 16.191,19.929 16.642 C 20.503 17.319,20.814 17.988,20.939 18.820 C 20.968 19.018,20.986 19.186,20.979 19.194 C 20.971 19.202,20.714 19.081,20.406 18.925 C 19.625 18.528,19.210 18.395,18.680 18.371 C 17.989 18.339,17.527 18.492,16.996 18.928 C 16.364 19.447,15.380 19.789,14.090 19.940 C 11.688 20.221,9.212 19.482,6.427 17.651 C 6.144 17.465,5.922 17.305,5.932 17.295 C 5.942 17.284,6.113 17.304,6.311 17.339 C 7.144 17.483,7.592 17.525,8.522 17.547 C 9.615 17.573,10.159 17.535,10.960 17.375 C 11.814 17.205,12.823 16.869,13.139 16.648 C 13.621 16.313,13.694 15.579,13.286 15.167 C 13.205 15.086,12.800 14.705,12.384 14.320 C 11.486 13.487,8.494 10.407,7.291 9.077 L 7.198 8.973 7.420 8.992 C 7.696 9.015,7.950 8.925,8.169 8.727 C 8.360 8.555,8.417 8.448,8.503 8.106 C 8.540 7.959,8.581 7.840,8.595 7.841 C 8.609 7.841,8.836 8.023,9.100 8.244 C 11.517 10.269,14.982 12.884,15.482 13.061 C 15.837 13.186,16.277 13.083,16.528 12.815 C 16.886 12.433,17.115 11.290,17.067 10.120 C 17.026 9.134,16.794 7.638,16.501 6.484 C 16.445 6.265,16.400 6.063,16.400 6.036 C 16.400 5.973,16.751 6.361,17.175 6.890 " stroke="none" fill-rule="evenodd" fill="black"></path></svg>