<svg xmlns="http://www.w3.org/2000/svg" width="24" height="24" viewBox="0 0 24 24" fill="none" stroke="currentColor" stroke-width="2" stroke-linecap="round" stroke-linejoin="round"><path d="M9.082 1.362 C 7.970 1.475,7.100 1.889,6.319 2.676 C 5.397 3.604,5.000 4.613,5.000 6.023 L 5.000 6.593 4.710 6.642 C 3.292 6.880,2.031 7.849,1.421 9.169 C 0.775 10.567,0.892 12.204,1.730 13.490 C 2.134 14.110,2.601 14.543,3.360 15.000 C 3.591 15.140,3.795 15.266,3.813 15.282 C 3.832 15.298,3.820 15.363,3.787 15.427 C 3.707 15.580,3.538 16.119,3.475 16.420 C 3.408 16.737,3.407 17.754,3.474 18.060 C 3.637 18.810,3.890 19.380,4.303 19.930 C 4.972 20.822,5.857 21.392,6.976 21.650 C 7.500 21.772,8.400 21.771,8.890 21.649 C 9.393 21.523,9.810 21.349,10.344 21.039 L 10.812 20.768 10.960 20.954 C 11.658 21.833,12.730 22.453,13.840 22.622 C 14.327 22.696,14.590 22.695,15.111 22.617 C 16.171 22.460,16.923 22.084,17.661 21.343 C 18.203 20.799,18.502 20.337,18.738 19.680 C 18.922 19.168,18.964 18.900,18.988 18.094 L 19.010 17.329 19.215 17.303 C 19.328 17.288,19.553 17.240,19.715 17.195 C 21.297 16.756,22.480 15.516,22.884 13.873 C 22.958 13.569,22.976 13.386,22.978 12.880 C 22.979 12.492,22.960 12.178,22.927 12.040 C 22.571 10.571,21.902 9.677,20.577 8.897 C 20.370 8.775,20.200 8.662,20.200 8.645 C 20.200 8.629,20.255 8.465,20.322 8.281 C 20.523 7.731,20.572 7.440,20.575 6.780 C 20.579 5.762,20.329 4.947,19.774 4.170 C 18.671 2.623,16.725 1.915,14.922 2.403 C 14.530 2.510,14.179 2.666,13.633 2.979 L 13.185 3.235 13.091 3.108 C 12.919 2.873,12.503 2.470,12.197 2.241 C 11.288 1.563,10.179 1.250,9.082 1.362 M10.135 3.424 C 10.472 3.506,10.943 3.765,11.219 4.020 L 11.458 4.242 11.339 4.314 C 11.274 4.353,10.811 4.624,10.311 4.916 C 9.343 5.480,9.138 5.648,9.047 5.952 C 9.013 6.066,9.000 6.852,9.000 8.792 L 9.000 11.475 8.010 10.905 L 7.020 10.335 7.020 7.857 C 7.020 5.414,7.021 5.376,7.108 5.100 C 7.510 3.825,8.813 3.103,10.135 3.424 M16.755 4.346 C 17.485 4.535,18.161 5.160,18.436 5.897 C 18.611 6.366,18.626 7.151,18.467 7.526 L 18.420 7.638 17.400 7.039 C 16.839 6.710,16.317 6.423,16.240 6.401 C 16.053 6.347,15.811 6.352,15.640 6.414 C 15.563 6.441,14.501 7.037,13.280 7.737 C 12.059 8.438,11.047 9.019,11.030 9.028 C 11.013 9.037,11.001 8.544,11.002 7.932 L 11.004 6.820 13.012 5.652 C 14.116 5.010,15.123 4.447,15.248 4.400 C 15.684 4.239,16.263 4.218,16.755 4.346 M17.793 9.584 C 20.029 10.887,19.968 10.849,20.252 11.117 C 20.535 11.384,20.719 11.679,20.865 12.100 C 20.960 12.375,20.976 12.485,20.978 12.880 C 20.980 13.369,20.935 13.568,20.730 13.978 C 20.401 14.634,19.784 15.135,19.110 15.295 L 19.000 15.322 19.000 14.088 C 19.000 12.698,18.983 12.589,18.725 12.324 C 18.627 12.224,17.857 11.773,16.360 10.942 C 15.139 10.263,14.116 9.686,14.086 9.659 C 14.043 9.619,14.213 9.507,14.986 9.065 C 15.511 8.765,15.946 8.520,15.953 8.520 C 15.960 8.520,16.788 8.999,17.793 9.584 M5.000 9.870 C 5.001 11.077,5.003 11.104,5.095 11.302 C 5.147 11.413,5.262 11.566,5.351 11.642 C 5.441 11.718,6.514 12.354,7.737 13.056 C 8.960 13.758,9.956 14.337,9.950 14.343 C 9.905 14.387,8.050 15.400,8.014 15.400 C 7.955 15.400,4.301 13.247,3.985 13.026 C 3.347 12.580,2.948 11.680,3.013 10.837 C 3.085 9.907,3.754 9.041,4.650 8.718 C 5.032 8.581,5.000 8.475,5.000 9.870 M12.500 11.075 L 12.980 11.349 12.980 12.003 L 12.980 12.657 12.490 12.930 L 12.001 13.203 11.499 12.912 L 10.998 12.620 11.009 11.982 L 11.020 11.343 11.480 11.075 C 11.733 10.928,11.958 10.806,11.980 10.805 C 12.002 10.803,12.236 10.925,12.500 11.075 M16.312 13.200 L 17.001 13.580 16.990 16.120 L 16.980 18.660 16.883 18.934 C 16.697 19.461,16.283 19.996,15.841 20.279 C 15.426 20.546,14.757 20.710,14.291 20.660 C 13.741 20.602,13.167 20.342,12.776 19.976 C 12.555 19.770,12.545 19.753,12.620 19.711 C 14.530 18.625,14.848 18.399,14.952 18.051 C 14.987 17.933,15.000 17.178,15.000 15.183 L 15.000 12.475 15.312 12.648 C 15.484 12.742,15.934 12.991,16.312 13.200 M12.999 16.070 L 12.997 17.180 11.021 18.332 C 9.933 18.966,8.936 19.527,8.805 19.578 C 8.118 19.847,7.280 19.782,6.640 19.410 C 6.177 19.141,5.723 18.567,5.537 18.015 C 5.404 17.623,5.386 17.013,5.494 16.602 C 5.532 16.460,5.568 16.338,5.575 16.331 C 5.582 16.324,6.018 16.573,6.544 16.884 C 7.070 17.195,7.561 17.476,7.636 17.508 C 7.802 17.579,8.166 17.583,8.335 17.515 C 8.446 17.471,11.731 15.654,12.600 15.157 C 12.787 15.050,12.954 14.962,12.970 14.961 C 12.987 14.960,12.999 15.460,12.999 16.070 " stroke="none" fill-rule="evenodd" fill="black"></path></svg>