<svg xmlns="http://www.w3.org/2000/svg" width="24" height="24" viewBox="0 0 24 24" fill="none" stroke="currentColor" stroke-width="2" stroke-linecap="round" stroke-linejoin="round"><path d="M9.695 2.057 C 9.466 2.129,9.256 2.299,9.128 2.516 C 9.022 2.696,9.019 2.719,8.995 3.560 C 8.977 4.181,8.952 4.476,8.905 4.623 C 8.766 5.061,8.329 5.573,7.912 5.784 C 7.566 5.959,7.315 6.000,6.578 6.000 C 5.823 6.000,5.624 6.037,5.382 6.221 C 5.302 6.282,5.187 6.415,5.128 6.516 L 5.020 6.700 5.009 8.911 C 5.001 10.337,5.012 11.176,5.039 11.275 C 5.099 11.498,5.289 11.739,5.508 11.867 L 5.700 11.980 7.348 11.992 L 8.997 12.003 9.011 14.852 C 9.026 17.957,9.020 17.872,9.268 18.600 C 9.839 20.273,11.206 21.484,13.000 21.904 C 13.264 21.966,13.585 21.976,15.708 21.989 C 17.307 21.999,18.169 21.990,18.272 21.962 C 18.498 21.901,18.738 21.711,18.867 21.492 L 18.980 21.300 18.980 19.000 L 18.980 16.700 18.872 16.516 C 18.813 16.415,18.698 16.282,18.618 16.221 C 18.342 16.011,18.242 16.000,16.554 16.000 L 15.000 16.000 15.000 14.002 L 15.000 12.003 16.650 11.992 L 18.300 11.980 18.492 11.867 C 18.711 11.739,18.901 11.498,18.961 11.275 C 18.988 11.176,18.999 10.337,18.991 8.911 L 18.980 6.700 18.872 6.516 C 18.813 6.415,18.698 6.282,18.618 6.221 C 18.342 6.011,18.242 6.000,16.555 6.000 L 15.003 6.000 14.992 4.350 L 14.980 2.700 14.872 2.516 C 14.740 2.293,14.533 2.128,14.290 2.055 C 14.033 1.978,9.943 1.979,9.695 2.057 M13.002 5.590 C 13.004 7.300,13.009 7.346,13.217 7.619 C 13.275 7.696,13.408 7.808,13.511 7.869 L 13.700 7.980 15.350 7.992 L 17.000 8.003 17.000 9.002 L 17.000 10.000 15.446 10.000 C 13.758 10.000,13.658 10.011,13.382 10.221 C 13.302 10.282,13.187 10.415,13.128 10.516 L 13.020 10.700 13.009 13.912 C 13.002 16.005,13.012 17.177,13.039 17.276 C 13.099 17.498,13.290 17.739,13.508 17.867 L 13.700 17.980 15.350 17.992 L 17.000 18.003 17.000 19.004 L 17.000 20.005 15.210 19.991 C 13.467 19.977,13.413 19.974,13.140 19.884 C 12.163 19.562,11.422 18.819,11.122 17.861 L 11.022 17.540 11.001 14.120 L 10.980 10.700 10.872 10.516 C 10.813 10.415,10.698 10.282,10.618 10.221 C 10.342 10.011,10.242 10.000,8.554 10.000 L 7.000 10.000 7.000 9.000 L 7.000 8.000 7.184 8.000 C 7.285 8.000,7.543 7.964,7.757 7.921 C 9.117 7.643,10.193 6.755,10.704 5.488 C 10.854 5.115,11.000 4.473,11.000 4.184 L 11.000 4.000 12.000 4.000 L 13.000 4.000 13.002 5.590 " stroke="none" fill-rule="evenodd" fill="black"></path></svg>