<svg xmlns="http://www.w3.org/2000/svg" width="24" height="24" viewBox="0 0 24 24" fill="none" stroke="currentColor" stroke-width="2" stroke-linecap="round" stroke-linejoin="round"><path d="M11.025 2.044 C 8.742 2.232,6.671 3.022,4.860 4.394 C 4.346 4.784,3.343 5.788,2.966 6.292 C 1.981 7.606,1.400 8.942,1.114 10.547 C 1.036 10.985,1.023 11.198,1.023 12.000 C 1.023 13.052,1.084 13.522,1.339 14.455 C 2.124 17.318,4.355 19.784,7.298 21.041 C 10.753 22.517,14.861 22.266,17.995 20.385 C 21.247 18.434,23.111 15.184,22.988 11.680 C 22.920 9.740,22.265 7.934,21.034 6.292 C 20.435 5.493,19.320 4.467,18.400 3.870 C 16.270 2.487,13.618 1.830,11.025 2.044 M13.392 4.099 C 15.453 4.398,17.221 5.244,18.615 6.598 C 19.373 7.335,19.793 7.909,20.240 8.820 C 20.651 9.659,20.835 10.271,20.941 11.160 C 21.104 12.530,20.890 13.828,20.294 15.080 C 19.892 15.926,19.492 16.502,18.841 17.174 C 18.320 17.713,17.936 18.035,17.353 18.426 C 16.259 19.158,14.862 19.682,13.400 19.907 C 12.755 20.007,11.245 20.007,10.600 19.907 C 8.797 19.629,7.137 18.910,5.887 17.866 C 5.473 17.519,4.788 16.807,4.517 16.440 C 3.697 15.332,3.214 14.140,3.059 12.840 C 2.932 11.772,3.037 10.745,3.380 9.700 C 3.523 9.265,3.984 8.335,4.262 7.920 C 4.873 7.011,5.791 6.121,6.751 5.506 C 8.073 4.659,9.462 4.206,11.300 4.023 C 11.623 3.991,12.992 4.041,13.392 4.099 M11.617 6.577 C 11.435 6.656,11.206 6.871,11.116 7.047 C 11.037 7.202,10.000 12.753,10.000 13.021 C 10.000 13.243,10.125 13.527,10.300 13.702 C 10.815 14.217,11.695 14.021,11.933 13.337 C 11.963 13.251,12.076 12.690,12.184 12.090 L 12.380 11.000 12.590 11.000 C 12.748 11.000,12.800 11.014,12.800 11.059 C 12.800 11.092,12.729 11.547,12.642 12.071 C 12.512 12.861,12.492 13.054,12.525 13.202 C 12.655 13.785,13.290 14.144,13.827 13.939 C 14.074 13.845,14.340 13.596,14.418 13.387 C 14.524 13.100,15.009 10.086,14.985 9.866 C 14.943 9.493,14.663 9.167,14.290 9.055 C 14.166 9.018,13.889 9.000,13.434 9.000 C 12.921 9.000,12.760 8.988,12.760 8.950 C 12.760 8.922,12.814 8.612,12.880 8.260 C 12.946 7.908,12.999 7.548,12.999 7.460 C 12.999 7.131,12.711 6.715,12.391 6.582 C 12.210 6.506,11.785 6.503,11.617 6.577 M6.240 9.036 C 5.949 9.129,5.688 9.354,5.586 9.600 C 5.499 9.810,4.510 14.789,4.510 15.020 C 4.509 15.679,5.217 16.173,5.827 15.939 C 6.073 15.845,6.340 15.596,6.418 15.387 C 6.465 15.262,6.720 14.102,6.720 14.014 C 6.720 14.006,6.976 14.000,7.290 13.999 C 8.180 13.998,8.542 13.881,9.013 13.440 C 9.295 13.177,9.519 12.799,9.595 12.460 C 9.620 12.350,9.686 11.975,9.742 11.626 C 9.832 11.069,9.839 10.956,9.801 10.706 C 9.718 10.172,9.421 9.693,8.974 9.374 C 8.522 9.051,8.400 9.025,7.300 9.013 C 6.772 9.008,6.295 9.018,6.240 9.036 M16.240 9.036 C 15.949 9.129,15.688 9.354,15.586 9.600 C 15.499 9.810,14.510 14.789,14.510 15.020 C 14.509 15.679,15.217 16.173,15.827 15.939 C 16.073 15.845,16.340 15.596,16.418 15.387 C 16.465 15.262,16.720 14.102,16.720 14.014 C 16.720 14.006,16.977 14.000,17.290 13.999 C 18.180 13.998,18.542 13.881,19.013 13.440 C 19.295 13.177,19.519 12.799,19.595 12.460 C 19.620 12.350,19.686 11.975,19.742 11.626 C 19.832 11.069,19.839 10.956,19.801 10.706 C 19.718 10.172,19.421 9.693,18.974 9.374 C 18.522 9.051,18.400 9.025,17.300 9.013 C 16.772 9.008,16.295 9.018,16.240 9.036 M7.800 11.070 C 7.800 11.151,7.686 11.826,7.655 11.930 C 7.638 11.987,7.588 12.000,7.377 12.000 C 7.129 12.000,7.119 11.996,7.140 11.910 C 7.168 11.788,7.320 11.035,7.320 11.016 C 7.320 11.007,7.428 11.000,7.560 11.000 C 7.762 11.000,7.800 11.011,7.800 11.070 M17.800 11.070 C 17.800 11.151,17.686 11.826,17.655 11.930 C 17.638 11.987,17.588 12.000,17.377 12.000 C 17.129 12.000,17.119 11.996,17.140 11.910 C 17.168 11.788,17.320 11.035,17.320 11.016 C 17.320 11.007,17.428 11.000,17.560 11.000 C 17.762 11.000,17.800 11.011,17.800 11.070 " stroke="none" fill-rule="evenodd" fill="black"></path></svg>