<svg xmlns="http://www.w3.org/2000/svg" width="24" height="24" viewBox="0 0 24 24" fill="none" stroke="currentColor" stroke-width="2" stroke-linecap="round" stroke-linejoin="round"><path d="M11.413 1.059 C 10.828 1.165,9.108 1.805,7.962 2.343 C 6.336 3.106,4.935 3.975,3.588 5.055 C 2.866 5.633,2.514 6.238,2.365 7.160 C 2.236 7.955,2.109 9.257,2.036 10.520 C 1.934 12.294,2.078 15.070,2.365 16.840 C 2.509 17.730,2.865 18.362,3.531 18.908 C 5.337 20.390,7.621 21.648,10.128 22.545 C 11.041 22.871,11.382 22.961,11.803 22.988 C 12.263 23.018,12.618 22.942,13.593 22.604 C 14.685 22.225,15.356 21.944,16.380 21.437 C 17.671 20.798,18.691 20.174,19.789 19.353 C 20.443 18.864,20.754 18.579,20.983 18.258 C 21.347 17.748,21.463 17.365,21.616 16.176 C 21.835 14.464,21.858 14.073,21.858 12.000 C 21.858 9.931,21.835 9.529,21.618 7.841 C 21.469 6.687,21.373 6.339,21.078 5.882 C 20.841 5.515,20.599 5.274,20.000 4.809 C 18.186 3.400,15.976 2.224,13.586 1.394 C 12.478 1.010,12.049 0.944,11.413 1.059 M12.876 3.263 C 14.921 3.959,16.911 4.995,18.557 6.220 C 19.111 6.632,19.357 6.865,19.445 7.064 C 19.526 7.246,19.677 8.333,19.788 9.540 C 19.887 10.616,19.887 13.384,19.788 14.460 C 19.677 15.667,19.526 16.754,19.445 16.936 C 19.355 17.139,19.108 17.371,18.517 17.808 C 17.539 18.533,16.627 19.085,15.460 19.660 C 14.503 20.132,13.834 20.411,12.860 20.744 C 11.972 21.048,11.909 21.049,11.080 20.762 C 8.678 19.932,6.303 18.644,4.788 17.347 C 4.496 17.098,4.416 16.940,4.342 16.473 C 3.980 14.195,3.921 11.337,4.183 8.800 C 4.290 7.755,4.390 7.168,4.489 6.987 C 4.658 6.679,6.099 5.624,7.260 4.957 C 8.505 4.243,10.125 3.532,11.460 3.113 C 11.925 2.967,12.040 2.979,12.876 3.263 M8.665 6.066 C 8.499 6.116,8.376 6.217,7.851 6.733 C 7.094 7.475,7.020 7.589,7.020 8.003 C 7.020 8.271,7.034 8.329,7.140 8.498 C 7.291 8.739,7.520 8.905,7.789 8.969 L 7.998 9.018 8.009 12.162 L 8.020 15.306 8.141 15.503 C 8.543 16.156,9.457 16.156,9.859 15.503 L 9.980 15.307 9.992 14.153 L 10.005 13.000 12.002 13.000 L 14.000 13.000 14.000 13.994 L 14.000 14.987 13.786 15.035 C 13.201 15.166,12.871 15.752,13.061 16.323 C 13.123 16.509,13.214 16.621,13.736 17.153 C 14.474 17.905,14.589 17.980,15.000 17.980 C 15.253 17.980,15.328 17.963,15.480 17.873 C 15.700 17.743,16.801 16.634,16.904 16.440 C 16.957 16.340,16.979 16.214,16.979 16.000 C 16.980 15.743,16.964 15.673,16.869 15.511 C 16.734 15.282,16.475 15.096,16.204 15.033 L 16.002 14.987 15.991 11.843 L 15.980 8.700 15.871 8.514 C 15.730 8.275,15.485 8.096,15.214 8.035 C 14.792 7.941,14.352 8.134,14.129 8.514 L 14.020 8.700 14.008 9.850 L 13.995 11.000 11.998 11.000 L 10.000 11.000 10.000 10.005 L 10.000 9.009 10.179 8.982 C 10.755 8.896,11.129 8.254,10.940 7.675 C 10.877 7.485,10.793 7.384,10.205 6.794 C 9.599 6.187,9.521 6.123,9.323 6.064 C 9.060 5.987,8.921 5.987,8.665 6.066 " stroke="none" fill-rule="evenodd" fill="black"></path></svg>