<svg xmlns="http://www.w3.org/2000/svg" width="24" height="24" viewBox="0 0 24 24" fill="none" stroke="currentColor" stroke-width="2" stroke-linecap="round" stroke-linejoin="round"><path d="M9.667 2.065 C 9.268 2.188,9.365 2.014,6.585 7.583 C 3.793 13.177,3.918 12.892,4.061 13.322 C 4.189 13.707,4.594 14.000,5.000 14.000 C 5.243 14.000,5.521 13.881,5.697 13.702 C 5.829 13.568,6.257 12.739,7.920 9.408 C 9.053 7.138,9.989 5.280,10.000 5.280 C 10.011 5.280,10.947 7.138,12.080 9.408 C 13.743 12.739,14.171 13.568,14.303 13.702 C 14.479 13.881,14.757 14.000,15.000 14.000 C 15.406 14.000,15.811 13.707,15.939 13.322 C 16.082 12.892,16.207 13.177,13.415 7.583 C 10.646 2.036,10.739 2.202,10.340 2.066 C 10.106 1.986,9.924 1.986,9.667 2.065 M10.667 12.065 C 10.406 12.145,10.153 12.401,10.061 12.678 C 9.919 13.103,9.838 12.913,12.085 17.417 C 13.744 20.743,14.171 21.568,14.303 21.702 C 14.686 22.092,15.314 22.092,15.697 21.702 C 15.829 21.568,16.256 20.743,17.915 17.417 C 20.152 12.934,20.080 13.101,19.944 12.693 C 19.711 11.992,18.816 11.776,18.304 12.297 C 18.172 12.431,17.831 13.083,16.580 15.592 C 15.722 17.312,15.011 18.720,15.000 18.720 C 14.989 18.720,14.278 17.312,13.420 15.592 C 11.727 12.198,11.727 12.198,11.340 12.066 C 11.106 11.986,10.924 11.986,10.667 12.065 " stroke="none" fill-rule="evenodd" fill="black"></path></svg>