<svg xmlns="http://www.w3.org/2000/svg" width="24" height="24" viewBox="0 0 24 24" fill="none" stroke="currentColor" stroke-width="2" stroke-linecap="round" stroke-linejoin="round"><path d="M3.201 3.064 C 2.900 3.145,2.696 3.273,2.447 3.536 C 2.171 3.828,2.032 4.132,2.009 4.498 C 1.992 4.757,2.132 5.433,3.598 12.216 C 4.482 16.305,5.244 19.751,5.292 19.874 C 5.395 20.136,5.879 20.659,6.142 20.792 C 6.568 21.007,6.369 21.000,12.006 21.000 C 17.639 20.999,17.437 21.006,17.811 20.787 C 18.029 20.660,18.366 20.304,18.479 20.081 C 18.599 19.847,22.000 4.916,22.000 4.625 C 22.000 3.884,21.414 3.179,20.683 3.041 C 20.542 3.014,17.555 3.001,11.945 3.003 C 4.572 3.005,3.390 3.013,3.201 3.064 M19.880 5.062 C 19.880 5.115,16.790 18.739,16.735 18.930 C 16.716 18.996,16.452 19.000,11.920 19.000 C 7.389 19.000,7.124 18.996,7.104 18.930 C 7.087 18.874,4.341 6.189,4.143 5.250 L 4.090 5.000 11.985 5.000 C 19.068 5.000,19.880 5.006,19.880 5.062 M8.643 8.069 C 8.304 8.189,8.000 8.614,8.000 8.968 C 8.000 9.031,8.235 10.490,8.522 12.210 C 9.090 15.619,9.073 15.549,9.381 15.783 C 9.661 15.997,9.652 15.996,12.000 15.996 C 14.348 15.996,14.339 15.997,14.619 15.783 C 14.927 15.549,14.910 15.619,15.481 12.199 C 15.865 9.902,16.000 9.008,15.985 8.866 C 15.943 8.493,15.663 8.167,15.290 8.055 C 15.141 8.010,14.519 8.001,11.964 8.003 C 9.224 8.006,8.797 8.014,8.643 8.069 M13.800 10.062 C 13.800 10.095,13.656 10.986,13.480 12.040 C 13.304 13.094,13.160 13.967,13.160 13.978 C 13.160 13.990,12.638 14.000,12.000 14.000 C 11.362 14.000,10.840 13.990,10.840 13.978 C 10.840 13.967,10.696 13.094,10.520 12.040 C 10.344 10.986,10.200 10.095,10.200 10.062 C 10.200 10.007,10.407 10.000,12.000 10.000 C 13.593 10.000,13.800 10.007,13.800 10.062 " stroke="none" fill-rule="evenodd" fill="black"></path></svg>