<svg xmlns="http://www.w3.org/2000/svg" width="24" height="24" viewBox="0 0 24 24" fill="none" stroke="currentColor" stroke-width="2" stroke-linecap="round" stroke-linejoin="round"><path d="M11.340 2.043 C 9.709 2.268,8.319 3.171,7.336 4.643 C 6.657 5.662,6.191 7.002,6.039 8.378 C 5.967 9.033,5.975 9.946,6.058 10.420 C 6.243 11.473,6.753 12.832,7.431 14.078 L 7.701 14.574 7.606 14.857 C 7.421 15.403,7.499 16.091,7.797 16.555 C 8.179 17.151,8.799 17.492,9.500 17.492 C 10.201 17.492,10.821 17.151,11.203 16.555 C 11.590 15.953,11.588 15.045,11.200 14.441 C 10.876 13.935,10.278 13.567,9.713 13.524 L 9.391 13.500 9.117 12.981 C 8.618 12.033,8.222 11.019,8.080 10.320 C 7.933 9.596,7.992 8.421,8.221 7.541 C 8.618 6.014,9.452 4.882,10.580 4.340 C 11.096 4.092,11.400 4.025,12.000 4.026 C 12.432 4.027,12.544 4.041,12.820 4.132 C 13.970 4.512,14.928 5.582,15.538 7.168 C 15.707 7.609,15.887 7.815,16.213 7.939 C 16.569 8.075,17.014 7.957,17.279 7.655 C 17.671 7.209,17.620 6.797,17.023 5.580 C 16.221 3.947,14.930 2.725,13.500 2.247 C 12.901 2.047,11.959 1.958,11.340 2.043 M10.505 7.063 C 9.632 7.275,9.002 8.077,9.000 8.982 C 9.000 9.508,9.182 9.979,9.529 10.346 C 10.298 11.159,11.528 11.216,12.338 10.475 C 12.458 10.365,12.595 10.213,12.641 10.138 C 12.717 10.015,12.745 10.000,12.902 10.000 C 13.426 10.000,14.704 10.249,15.390 10.484 C 16.719 10.941,18.137 12.018,18.994 13.223 C 19.342 13.712,19.735 14.523,19.865 15.020 C 19.996 15.524,20.017 16.309,19.909 16.709 C 19.764 17.249,19.422 17.775,19.012 18.090 C 18.272 18.659,17.243 18.920,15.481 18.984 C 14.698 19.012,14.552 19.050,14.314 19.289 C 13.913 19.689,13.925 20.333,14.339 20.715 C 14.615 20.970,14.840 21.017,15.619 20.984 C 18.593 20.859,20.319 20.095,21.320 18.460 C 22.059 17.253,22.195 15.713,21.698 14.177 C 21.088 12.291,19.648 10.569,17.660 9.350 C 16.768 8.803,15.836 8.455,14.644 8.222 C 14.081 8.112,13.236 8.000,12.974 8.000 C 12.817 8.000,12.784 7.978,12.473 7.669 C 12.290 7.487,12.049 7.290,11.937 7.230 C 11.515 7.007,10.992 6.946,10.505 7.063 M4.300 11.075 C 3.924 11.247,3.198 12.195,2.718 13.141 C 2.468 13.633,2.205 14.394,2.096 14.940 C 2.007 15.386,1.994 16.535,2.073 16.900 C 2.448 18.624,3.560 19.900,5.263 20.559 C 6.882 21.187,8.934 21.129,10.900 20.401 C 11.521 20.171,12.353 19.759,12.804 19.459 C 13.706 18.859,14.591 17.833,15.375 16.480 L 15.641 16.021 15.930 15.950 C 16.321 15.854,16.604 15.705,16.860 15.459 C 17.289 15.046,17.487 14.586,17.487 14.000 C 17.487 12.218,15.346 11.340,14.082 12.604 C 13.458 13.229,13.322 14.246,13.763 14.993 L 13.842 15.128 13.655 15.454 C 13.239 16.178,12.841 16.719,12.362 17.213 C 11.964 17.625,11.759 17.783,11.308 18.027 C 8.923 19.320,6.264 19.314,4.883 18.015 C 4.079 17.258,3.828 16.248,4.138 15.023 C 4.325 14.286,4.689 13.604,5.314 12.820 C 5.588 12.475,5.720 12.203,5.720 11.980 C 5.720 11.641,5.460 11.235,5.145 11.082 C 4.924 10.975,4.525 10.972,4.300 11.075 " stroke="none" fill-rule="evenodd" fill="black"></path></svg>