<svg xmlns="http://www.w3.org/2000/svg" width="24" height="24" viewBox="0 0 24 24" fill="none" stroke="currentColor" stroke-width="2" stroke-linecap="round" stroke-linejoin="round"><path d="M12.180 1.025 C 10.240 1.187,8.484 1.791,6.913 2.838 C 6.215 3.303,5.802 3.639,5.237 4.200 C 3.708 5.721,2.660 7.680,2.219 9.844 C 1.660 12.589,2.233 15.634,3.746 17.954 C 4.912 19.743,6.624 21.221,8.480 22.042 C 10.741 23.041,13.248 23.266,15.600 22.679 C 17.426 22.223,19.082 21.323,20.451 20.041 C 20.623 19.881,20.808 19.672,20.864 19.577 C 21.002 19.342,21.030 19.033,20.940 18.755 C 20.874 18.554,20.753 18.423,19.065 16.727 C 18.030 15.687,17.192 14.877,17.100 14.828 C 16.980 14.764,16.870 14.742,16.660 14.742 C 16.319 14.742,16.175 14.811,15.784 15.156 C 15.259 15.620,14.703 15.921,14.020 16.108 C 13.661 16.207,13.555 16.218,12.980 16.218 C 12.405 16.218,12.300 16.207,11.940 16.108 C 11.452 15.974,10.830 15.676,10.480 15.409 C 10.156 15.163,9.709 14.693,9.506 14.388 C 9.281 14.048,9.019 13.468,8.914 13.080 C 8.832 12.780,8.822 12.652,8.823 11.980 C 8.825 11.277,8.833 11.195,8.930 10.880 C 9.160 10.130,9.528 9.510,10.047 8.996 C 10.557 8.491,11.128 8.156,11.860 7.934 C 12.198 7.831,12.267 7.825,12.980 7.825 C 13.693 7.825,13.762 7.831,14.100 7.934 C 14.778 8.140,15.265 8.414,15.837 8.912 C 16.186 9.215,16.339 9.288,16.639 9.291 C 17.073 9.295,17.085 9.285,18.992 7.357 C 19.952 6.386,20.778 5.537,20.827 5.470 C 20.956 5.295,21.014 4.979,20.959 4.737 C 20.898 4.465,20.805 4.330,20.428 3.976 C 18.743 2.387,16.495 1.336,14.240 1.081 C 13.826 1.035,12.501 0.998,12.180 1.025 M13.700 3.041 C 14.508 3.116,15.311 3.293,16.050 3.561 C 16.744 3.812,17.942 4.480,18.392 4.867 L 18.523 4.980 17.562 5.966 L 16.601 6.953 16.330 6.774 C 15.842 6.451,15.128 6.139,14.500 5.975 C 13.613 5.742,12.347 5.742,11.460 5.975 C 9.382 6.519,7.731 8.071,7.086 10.090 C 5.988 13.521,7.981 17.152,11.451 18.043 C 13.104 18.468,14.800 18.200,16.284 17.280 L 16.590 17.090 17.562 18.062 C 18.422 18.923,18.528 19.042,18.480 19.100 C 18.450 19.136,18.217 19.305,17.963 19.475 C 14.612 21.713,10.277 21.469,7.180 18.869 C 5.493 17.453,4.381 15.393,4.076 13.120 C 4.011 12.638,4.011 11.377,4.074 10.880 C 4.294 9.171,5.036 7.484,6.152 6.157 C 7.983 3.978,10.886 2.780,13.700 3.041 " stroke="none" fill-rule="evenodd" fill="black"></path></svg>