<svg xmlns="http://www.w3.org/2000/svg" width="24" height="24" viewBox="0 0 24 24" fill="none" stroke="currentColor" stroke-width="2" stroke-linecap="round" stroke-linejoin="round"><path d="M11.140 2.046 C 8.818 2.246,6.623 3.263,4.977 4.900 C 3.576 6.292,2.665 7.941,2.236 9.860 C 2.105 10.447,2.040 10.978,2.014 11.700 C 1.873 15.544,4.049 19.197,7.518 20.939 C 8.322 21.343,9.588 21.767,10.000 21.771 C 10.977 21.780,11.373 20.501,10.561 19.956 C 10.475 19.899,10.196 19.794,9.940 19.723 C 8.576 19.348,7.472 18.727,6.482 17.776 C 4.759 16.123,3.862 13.799,4.040 11.449 C 4.172 9.694,4.786 8.172,5.897 6.848 C 8.229 4.070,12.207 3.220,15.466 4.805 C 16.347 5.233,17.124 5.799,17.783 6.491 C 18.736 7.493,19.343 8.570,19.718 9.919 C 19.863 10.442,19.910 10.544,20.088 10.722 C 20.454 11.088,21.083 11.093,21.455 10.732 C 21.864 10.335,21.868 10.012,21.479 8.830 C 20.335 5.353,17.276 2.744,13.640 2.144 C 12.846 2.013,11.933 1.977,11.140 2.046 M11.695 7.057 C 11.466 7.129,11.256 7.299,11.128 7.516 L 11.020 7.700 11.009 9.916 C 10.999 11.894,11.005 12.153,11.064 12.336 C 11.125 12.522,11.273 12.683,12.735 14.153 C 13.618 15.040,14.421 15.814,14.520 15.873 C 14.672 15.963,14.746 15.980,15.000 15.980 C 15.257 15.980,15.327 15.964,15.492 15.867 C 15.714 15.737,15.901 15.498,15.965 15.264 C 16.019 15.061,15.989 14.733,15.899 14.555 C 15.862 14.481,15.195 13.781,14.417 13.000 L 13.002 11.580 12.991 9.640 L 12.980 7.700 12.872 7.516 C 12.628 7.101,12.150 6.915,11.695 7.057 M20.695 13.057 C 20.466 13.129,20.256 13.299,20.128 13.516 L 20.020 13.700 20.009 16.850 L 19.998 20.000 16.445 20.000 C 12.590 20.000,12.678 19.995,12.382 20.221 C 12.302 20.282,12.187 20.415,12.128 20.516 C 12.037 20.672,12.020 20.746,12.020 21.000 C 12.020 21.256,12.036 21.328,12.131 21.489 C 12.256 21.702,12.449 21.864,12.670 21.943 C 12.892 22.022,21.108 22.022,21.330 21.943 C 21.551 21.864,21.744 21.702,21.869 21.489 L 21.980 21.300 21.980 17.500 L 21.980 13.700 21.872 13.516 C 21.628 13.101,21.150 12.915,20.695 13.057 " stroke="none" fill-rule="evenodd" fill="black"></path></svg>