<svg xmlns="http://www.w3.org/2000/svg" width="24" height="24" viewBox="0 0 24 24" fill="none" stroke="currentColor" stroke-width="2" stroke-linecap="round" stroke-linejoin="round"><path d="M11.320 2.026 C 10.344 2.121,9.815 2.217,9.136 2.422 C 7.613 2.883,6.256 3.676,5.071 4.799 C 3.581 6.210,2.541 8.147,2.161 10.214 C 1.912 11.573,1.962 13.108,2.301 14.445 C 3.000 17.203,4.927 19.627,7.418 20.884 C 7.902 21.128,7.940 21.140,8.213 21.140 C 8.406 21.140,8.546 21.117,8.640 21.070 C 8.719 21.031,11.467 18.312,14.925 14.850 C 20.731 9.038,21.072 8.689,21.120 8.509 C 21.227 8.107,21.095 7.715,20.548 6.813 C 19.046 4.335,16.480 2.596,13.660 2.143 C 12.929 2.025,11.872 1.973,11.320 2.026 M13.240 4.101 C 15.142 4.385,17.003 5.455,18.213 6.960 C 18.474 7.286,18.920 7.952,18.920 8.019 C 18.920 8.074,8.072 18.920,8.016 18.920 C 7.959 18.920,7.120 18.366,7.120 18.328 C 7.120 18.313,8.390 17.031,9.943 15.480 C 11.529 13.895,12.812 12.581,12.873 12.480 C 12.964 12.327,12.980 12.254,12.980 12.000 C 12.980 11.746,12.963 11.672,12.872 11.516 C 12.740 11.293,12.533 11.128,12.290 11.055 C 12.055 10.984,11.943 10.986,11.677 11.064 C 11.467 11.125,11.371 11.216,8.579 14.004 C 6.995 15.586,5.686 16.880,5.671 16.880 C 5.605 16.880,5.043 15.966,4.799 15.460 C 4.232 14.284,4.022 13.344,4.024 12.000 C 4.025 11.122,4.072 10.732,4.264 9.980 C 5.087 6.764,7.914 4.357,11.240 4.041 C 11.742 3.994,12.716 4.023,13.240 4.101 M20.580 10.736 C 20.294 10.873,10.844 20.329,10.722 20.600 C 10.480 21.141,10.781 21.778,11.360 21.947 C 11.541 22.000,11.705 22.007,12.300 21.988 C 13.423 21.950,14.354 21.775,15.360 21.412 C 18.800 20.170,21.233 17.264,21.863 13.644 C 21.999 12.861,22.043 11.686,21.947 11.360 C 21.774 10.767,21.130 10.474,20.580 10.736 M19.456 14.886 C 19.020 15.996,18.395 16.930,17.535 17.761 C 16.892 18.381,16.279 18.811,15.509 19.181 C 15.131 19.363,14.528 19.600,14.443 19.600 C 14.431 19.600,15.581 18.439,17.000 17.020 C 18.419 15.601,19.585 14.456,19.592 14.475 C 19.598 14.495,19.537 14.680,19.456 14.886 " stroke="none" fill-rule="evenodd" fill="black"></path></svg>