<svg xmlns="http://www.w3.org/2000/svg" width="24" height="24" viewBox="0 0 24 24" fill="none" stroke="currentColor" stroke-width="2" stroke-linecap="round" stroke-linejoin="round"><path d="M11.632 3.001 C 11.077 3.067,10.559 3.284,10.124 3.633 C 9.654 4.011,9.649 4.019,8.340 6.279 C 7.406 7.891,7.383 7.939,7.410 8.238 C 7.453 8.710,7.646 8.922,8.357 9.279 C 9.567 9.885,10.584 10.624,11.530 11.585 C 13.244 13.325,14.371 15.475,14.799 17.820 C 14.840 18.040,14.884 18.346,14.899 18.500 C 14.913 18.654,14.934 18.829,14.946 18.890 L 14.966 19.000 13.967 19.000 C 12.868 19.000,12.920 19.013,12.920 18.747 C 12.920 18.414,12.670 17.349,12.435 16.680 C 11.526 14.092,9.484 11.902,6.995 10.844 C 6.690 10.714,6.561 10.680,6.373 10.680 C 6.082 10.680,5.768 10.823,5.613 11.026 C 5.555 11.101,5.034 11.984,4.456 12.987 C 3.279 15.026,3.260 15.071,3.385 15.472 C 3.497 15.828,3.725 16.030,4.200 16.195 C 5.178 16.535,5.858 17.057,6.367 17.860 C 6.556 18.157,6.740 18.547,6.826 18.832 L 6.878 19.005 5.789 18.992 C 4.755 18.981,4.692 18.976,4.535 18.892 C 4.210 18.718,4.052 18.452,3.999 17.994 C 3.974 17.772,3.931 17.618,3.862 17.500 C 3.580 17.018,2.922 16.862,2.461 17.168 C 2.113 17.398,1.977 17.716,2.012 18.216 C 2.085 19.272,2.720 20.222,3.660 20.681 C 4.280 20.983,4.423 21.000,6.420 20.998 C 8.314 20.996,8.344 20.993,8.619 20.783 C 8.696 20.725,8.808 20.592,8.869 20.489 C 8.976 20.306,8.980 20.282,8.975 19.760 C 8.959 17.822,7.816 15.887,6.080 14.857 C 5.937 14.773,5.813 14.699,5.805 14.693 C 5.793 14.686,6.735 13.022,6.783 12.965 C 6.803 12.943,7.377 13.296,7.738 13.552 C 8.140 13.836,9.073 14.759,9.370 15.165 C 10.117 16.185,10.606 17.264,10.838 18.404 C 10.881 18.616,10.936 19.066,10.960 19.404 C 10.985 19.743,11.014 20.096,11.025 20.189 C 11.052 20.420,11.257 20.711,11.497 20.859 L 11.694 20.980 15.577 20.980 C 19.969 20.980,19.659 21.001,20.357 20.652 C 20.655 20.503,20.803 20.396,21.061 20.142 C 21.902 19.315,22.191 18.168,21.833 17.080 C 21.777 16.908,20.567 14.781,18.250 10.780 C 16.326 7.458,14.670 4.608,14.571 4.448 C 13.933 3.411,12.814 2.860,11.632 3.001 M12.436 5.079 C 12.515 5.120,12.636 5.213,12.705 5.286 C 12.801 5.389,19.299 16.540,19.852 17.552 C 20.068 17.946,19.994 18.399,19.661 18.728 C 19.405 18.980,19.287 19.000,18.059 19.000 L 16.973 19.000 16.923 18.530 C 16.582 15.290,15.103 12.254,12.760 9.986 C 11.950 9.201,10.962 8.444,10.120 7.960 C 9.955 7.866,9.814 7.783,9.807 7.778 C 9.792 7.766,11.088 5.520,11.210 5.348 C 11.308 5.207,11.554 5.050,11.750 5.001 C 11.949 4.952,12.258 4.987,12.436 5.079 " stroke="none" fill-rule="evenodd" fill="black"></path></svg>