<svg xmlns="http://www.w3.org/2000/svg" width="24" height="24" viewBox="0 0 24 24" fill="none" stroke="currentColor" stroke-width="2" stroke-linecap="round" stroke-linejoin="round"><path d="M12.650 2.066 C 12.422 2.147,12.147 2.421,12.073 2.642 C 12.040 2.740,11.826 3.761,11.597 4.910 L 11.181 7.000 10.880 7.000 C 9.506 7.001,7.837 7.302,6.528 7.786 C 5.992 7.984,5.019 8.463,4.541 8.765 L 4.142 9.017 3.521 9.022 C 2.831 9.028,2.567 9.084,2.016 9.338 C 0.472 10.052,-0.341 11.830,0.137 13.452 C 0.334 14.120,0.624 14.592,1.125 15.058 C 1.435 15.346,1.634 15.459,1.911 15.503 C 2.014 15.520,2.085 15.555,2.096 15.595 C 2.107 15.631,2.146 15.786,2.183 15.940 C 2.330 16.547,2.631 17.216,3.029 17.820 C 4.492 20.043,7.211 21.521,10.580 21.927 C 11.238 22.006,13.008 21.993,13.640 21.905 C 16.749 21.470,19.257 20.150,20.721 18.180 C 21.389 17.280,21.863 16.153,21.947 15.262 C 21.970 15.017,21.990 14.965,22.118 14.822 C 22.346 14.567,22.468 14.388,22.618 14.090 C 23.312 12.707,23.037 11.063,21.934 9.995 C 21.607 9.680,21.373 9.518,20.984 9.338 C 20.433 9.083,20.169 9.028,19.477 9.022 L 18.854 9.017 18.517 8.803 C 17.493 8.151,16.250 7.635,15.000 7.344 C 14.596 7.250,13.651 7.092,13.360 7.071 C 13.263 7.063,13.222 7.042,13.228 7.000 C 13.259 6.759,13.778 4.213,13.802 4.186 C 13.818 4.168,14.570 4.275,15.473 4.425 L 17.115 4.698 17.207 4.899 C 17.327 5.159,17.799 5.639,18.069 5.775 C 18.661 6.073,19.341 6.073,19.930 5.775 C 20.196 5.640,20.638 5.200,20.771 4.937 C 21.065 4.358,21.068 3.649,20.781 3.083 C 20.646 2.816,20.297 2.449,20.017 2.281 C 19.261 1.826,18.251 1.946,17.614 2.567 L 17.448 2.728 15.265 2.364 C 14.065 2.164,13.023 2.001,12.951 2.003 C 12.879 2.005,12.744 2.033,12.650 2.066 M13.438 9.098 C 15.092 9.314,16.602 9.876,17.740 10.699 C 17.894 10.810,18.073 10.935,18.137 10.976 C 18.281 11.068,18.628 11.163,18.739 11.141 C 18.783 11.131,18.946 11.094,19.100 11.057 C 19.841 10.881,20.516 11.197,20.852 11.879 C 20.968 12.113,20.980 12.174,20.979 12.499 C 20.979 12.819,20.965 12.890,20.856 13.120 C 20.770 13.300,20.649 13.460,20.463 13.640 C 20.093 13.997,20.047 14.102,19.979 14.733 C 19.886 15.600,19.725 16.063,19.281 16.735 C 17.528 19.387,13.184 20.654,9.260 19.657 C 6.293 18.904,4.215 16.979,4.019 14.800 C 3.955 14.091,3.673 13.813,2.860 13.658 C 2.431 13.576,2.306 13.481,2.134 13.105 C 2.038 12.895,2.022 12.809,2.021 12.499 C 2.020 12.172,2.032 12.114,2.148 11.879 C 2.486 11.197,3.172 10.877,3.900 11.062 C 4.446 11.201,4.649 11.148,5.243 10.714 C 6.560 9.748,8.381 9.149,10.380 9.024 C 10.921 8.990,12.996 9.041,13.438 9.098 M8.516 11.577 C 7.466 11.979,7.167 13.277,7.945 14.055 C 8.528 14.638,9.472 14.638,10.055 14.055 C 10.781 13.330,10.577 12.126,9.650 11.657 C 9.455 11.558,9.370 11.541,9.042 11.532 C 8.789 11.525,8.611 11.540,8.516 11.577 M14.516 11.577 C 13.466 11.979,13.167 13.277,13.945 14.055 C 14.807 14.918,16.314 14.420,16.477 13.218 C 16.566 12.564,16.245 11.958,15.650 11.657 C 15.455 11.558,15.370 11.541,15.042 11.532 C 14.789 11.525,14.611 11.540,14.516 11.577 M9.643 16.066 C 9.406 16.153,9.149 16.418,9.066 16.660 C 8.883 17.197,9.103 17.675,9.652 17.935 C 11.209 18.672,12.791 18.672,14.348 17.935 C 14.671 17.782,14.844 17.603,14.939 17.325 C 15.117 16.803,14.838 16.232,14.321 16.060 C 14.044 15.968,13.828 15.996,13.383 16.180 C 12.376 16.597,11.621 16.596,10.614 16.178 C 10.197 16.005,9.903 15.971,9.643 16.066 " stroke="none" fill-rule="evenodd" fill="black"></path></svg>