<svg xmlns="http://www.w3.org/2000/svg" width="24" height="24" viewBox="0 0 24 24" fill="none" stroke="currentColor" stroke-width="2" stroke-linecap="round" stroke-linejoin="round"><path d="M7.180 6.059 C 7.092 6.092,7.011 6.119,7.001 6.119 C 6.990 6.120,5.904 7.196,4.587 8.510 C 2.001 11.090,2.000 11.091,2.001 11.500 C 2.002 11.900,1.996 11.892,4.532 14.433 C 5.866 15.770,6.970 16.843,7.060 16.893 L 7.220 16.980 12.020 16.980 C 16.440 16.980,16.830 16.975,16.940 16.913 C 17.006 16.876,18.131 15.774,19.440 14.463 C 21.998 11.903,21.999 11.901,21.999 11.500 C 21.998 11.100,22.005 11.108,19.468 8.567 C 18.104 7.200,17.032 6.158,16.940 6.109 C 16.729 5.995,16.285 5.988,16.080 6.095 C 16.003 6.135,15.053 7.052,13.970 8.134 L 12.000 10.100 10.030 8.134 C 8.947 7.052,7.999 6.137,7.924 6.099 C 7.733 6.004,7.377 5.985,7.180 6.059 M10.820 11.720 L 14.099 15.000 11.000 15.000 L 7.900 15.000 6.170 13.270 C 5.219 12.319,4.440 11.522,4.440 11.500 C 4.440 11.448,7.447 8.440,7.500 8.440 C 7.522 8.440,9.016 9.916,10.820 11.720 M18.050 9.950 C 18.880 10.780,19.560 11.478,19.560 11.500 C 19.560 11.552,16.553 14.560,16.500 14.560 C 16.448 14.560,13.440 11.553,13.440 11.500 C 13.440 11.448,16.447 8.440,16.500 8.440 C 16.522 8.440,17.219 9.119,18.050 9.950 " stroke="none" fill-rule="evenodd" fill="black"></path></svg>