<svg xmlns="http://www.w3.org/2000/svg" width="24" height="24" viewBox="0 0 24 24" fill="none" stroke="currentColor" stroke-width="2" stroke-linecap="round" stroke-linejoin="round"><path d="M3.240 7.037 C 2.800 7.173,2.515 7.542,2.511 7.980 C 2.508 8.406,2.472 8.363,4.354 10.250 L 6.099 12.000 4.354 13.750 C 2.472 15.637,2.508 15.594,2.511 16.020 C 2.515 16.389,2.714 16.706,3.060 16.894 C 3.218 16.979,3.245 16.980,5.676 16.991 C 7.873 17.001,8.154 16.995,8.336 16.936 C 8.524 16.875,8.710 16.701,10.653 14.765 C 11.833 13.589,12.813 12.581,12.873 12.480 C 12.963 12.328,12.980 12.254,12.980 12.000 C 12.980 11.746,12.964 11.672,12.873 11.520 C 12.720 11.263,8.624 7.194,8.420 7.096 C 8.268 7.024,8.130 7.020,5.800 7.013 C 4.447 7.009,3.295 7.020,3.240 7.037 M12.240 7.037 C 11.800 7.173,11.515 7.542,11.511 7.980 C 11.508 8.406,11.472 8.363,13.354 10.250 L 15.099 12.000 13.354 13.750 C 11.472 15.637,11.508 15.594,11.511 16.020 C 11.515 16.389,11.714 16.706,12.060 16.894 C 12.218 16.979,12.245 16.980,14.676 16.991 C 16.873 17.001,17.154 16.995,17.336 16.936 C 17.524 16.875,17.710 16.701,19.653 14.765 C 20.833 13.589,21.813 12.581,21.873 12.480 C 21.963 12.328,21.980 12.254,21.980 12.000 C 21.980 11.746,21.964 11.672,21.873 11.520 C 21.720 11.263,17.624 7.194,17.420 7.096 C 17.268 7.024,17.130 7.020,14.800 7.013 C 13.447 7.009,12.295 7.020,12.240 7.037 M9.080 10.500 L 10.580 12.000 9.080 13.500 L 7.580 15.000 6.741 15.000 L 5.902 15.000 7.146 13.750 C 8.478 12.413,8.489 12.398,8.489 12.000 C 8.489 11.602,8.478 11.587,7.146 10.250 L 5.902 9.000 6.741 9.000 L 7.580 9.000 9.080 10.500 M18.080 10.500 L 19.580 12.000 18.080 13.500 L 16.580 15.000 15.741 15.000 L 14.902 15.000 16.146 13.750 C 17.478 12.413,17.489 12.398,17.489 12.000 C 17.489 11.602,17.478 11.587,16.146 10.250 L 14.902 9.000 15.741 9.000 L 16.580 9.000 18.080 10.500 " stroke="none" fill-rule="evenodd" fill="black"></path></svg>