<svg xmlns="http://www.w3.org/2000/svg" width="24" height="24" viewBox="0 0 24 24" fill="none" stroke="currentColor" stroke-width="2" stroke-linecap="round" stroke-linejoin="round"><path d="M4.695 3.057 C 4.466 3.129,4.256 3.299,4.128 3.516 C 4.037 3.672,4.020 3.746,4.020 4.000 C 4.020 4.256,4.036 4.328,4.131 4.489 C 4.256 4.702,4.449 4.864,4.670 4.943 C 4.893 5.022,19.107 5.022,19.330 4.943 C 19.551 4.864,19.744 4.702,19.869 4.489 C 19.964 4.328,19.980 4.256,19.980 4.000 C 19.980 3.746,19.963 3.672,19.872 3.516 C 19.740 3.293,19.533 3.128,19.290 3.055 C 19.027 2.976,4.947 2.978,4.695 3.057 M7.499 7.043 C 6.379 7.234,5.461 8.048,5.114 9.160 C 5.022 9.453,5.020 9.497,5.020 11.000 C 5.020 12.503,5.022 12.547,5.114 12.840 C 5.418 13.816,6.150 14.554,7.140 14.886 L 7.420 14.980 11.014 14.991 C 13.812 15.000,14.604 15.014,14.590 15.051 C 14.580 15.078,14.280 15.978,13.923 17.050 L 13.273 19.000 11.501 19.000 L 9.728 19.000 9.318 17.775 C 8.869 16.435,8.801 16.302,8.476 16.133 C 7.795 15.780,7.000 16.254,7.000 17.012 C 7.000 17.130,7.401 18.448,7.590 18.950 C 7.605 18.990,7.220 19.000,5.751 19.000 C 3.734 19.000,3.663 19.007,3.382 19.221 C 3.302 19.282,3.187 19.415,3.128 19.516 C 3.037 19.672,3.020 19.746,3.020 20.000 C 3.020 20.256,3.036 20.328,3.131 20.489 C 3.256 20.702,3.449 20.864,3.670 20.943 C 3.893 21.022,20.107 21.022,20.330 20.943 C 20.551 20.864,20.744 20.702,20.869 20.489 C 20.964 20.328,20.980 20.256,20.980 20.000 C 20.980 19.746,20.963 19.672,20.872 19.516 C 20.813 19.415,20.698 19.282,20.618 19.221 C 20.330 19.002,20.308 19.000,17.749 19.000 C 15.880 19.000,15.395 18.990,15.410 18.950 C 15.420 18.922,15.721 18.018,16.079 16.940 C 16.438 15.862,16.746 14.960,16.765 14.936 C 16.784 14.913,16.876 14.870,16.970 14.843 C 17.240 14.763,17.640 14.536,17.891 14.321 C 18.391 13.893,18.702 13.430,18.886 12.840 C 18.978 12.547,18.980 12.503,18.980 11.000 C 18.980 9.497,18.978 9.453,18.886 9.160 C 18.581 8.182,17.832 7.428,16.861 7.121 L 16.540 7.020 12.120 7.014 C 9.689 7.011,7.609 7.024,7.499 7.043 M16.310 9.061 C 16.589 9.144,16.856 9.411,16.939 9.690 C 17.023 9.972,17.028 12.015,16.945 12.290 C 16.872 12.533,16.707 12.740,16.484 12.872 L 16.300 12.980 12.000 12.980 L 7.700 12.980 7.516 12.872 C 7.303 12.747,7.141 12.550,7.058 12.316 C 6.972 12.071,6.974 9.982,7.061 9.690 C 7.140 9.421,7.412 9.143,7.673 9.063 C 7.962 8.974,16.011 8.972,16.310 9.061 " stroke="none" fill-rule="evenodd" fill="black"></path></svg>