<svg xmlns="http://www.w3.org/2000/svg" width="24" height="24" viewBox="0 0 24 24" fill="none" stroke="currentColor" stroke-width="2" stroke-linecap="round" stroke-linejoin="round"><path d="M12.740 2.784 C 11.024 3.213,9.575 3.593,9.520 3.627 C 9.159 3.855,9.057 4.059,8.955 4.752 C 8.911 5.052,8.872 5.301,8.868 5.305 C 8.863 5.310,7.339 5.018,5.480 4.657 C 3.621 4.296,2.045 4.001,1.977 4.001 C 1.341 3.997,0.836 4.720,1.055 5.320 C 1.110 5.473,11.068 22.419,11.226 22.629 C 11.553 23.065,12.277 23.114,12.675 22.726 C 12.836 22.569,22.842 5.598,22.944 5.308 C 23.157 4.706,22.661 4.000,22.026 4.000 C 21.960 4.000,20.675 4.264,19.172 4.586 C 17.669 4.908,16.428 5.162,16.416 5.149 C 16.403 5.136,16.529 4.681,16.696 4.138 C 16.863 3.594,17.000 3.083,17.000 3.002 C 17.000 2.477,16.521 1.996,16.003 2.001 C 15.924 2.002,14.456 2.354,12.740 2.784 M14.510 4.450 C 14.500 4.478,14.160 5.571,13.756 6.880 C 13.114 8.958,13.020 9.293,13.022 9.520 C 13.023 9.705,13.048 9.826,13.108 9.940 C 13.268 10.241,13.601 10.480,13.862 10.480 C 13.928 10.480,13.961 10.499,13.953 10.533 C 13.946 10.562,13.733 10.949,13.480 11.392 L 13.020 12.198 13.000 11.449 C 12.981 10.725,12.976 10.694,12.872 10.516 C 12.689 10.205,12.331 10.000,11.969 10.000 C 11.893 10.000,11.472 10.119,11.032 10.264 C 10.593 10.408,10.228 10.521,10.222 10.514 C 10.215 10.506,10.366 9.331,10.557 7.902 L 10.904 5.304 12.682 4.856 C 13.660 4.609,14.475 4.406,14.494 4.404 C 14.513 4.402,14.520 4.423,14.510 4.450 M6.340 6.861 C 7.572 7.098,8.587 7.298,8.595 7.305 C 8.604 7.312,8.473 8.357,8.305 9.629 C 8.137 10.900,7.999 11.986,7.999 12.043 C 8.002 12.535,8.494 13.000,9.012 13.000 C 9.130 13.000,10.448 12.599,10.950 12.410 C 10.990 12.395,11.000 12.784,11.000 14.269 C 11.000 16.401,10.999 16.393,11.303 16.697 C 11.689 17.083,12.295 17.095,12.677 16.725 C 12.778 16.627,13.499 15.401,14.896 12.956 C 16.777 9.660,16.967 9.311,16.987 9.111 C 17.036 8.637,16.748 8.196,16.296 8.053 C 16.104 7.993,16.040 7.991,15.792 8.033 C 15.636 8.060,15.504 8.077,15.498 8.071 C 15.482 8.055,15.683 7.425,15.714 7.393 C 15.746 7.361,19.879 6.473,19.924 6.489 C 19.956 6.500,12.038 19.998,12.000 19.998 C 11.983 19.998,4.563 7.405,4.122 6.628 C 4.039 6.481,4.007 6.394,4.042 6.407 C 4.074 6.419,5.108 6.623,6.340 6.861 " stroke="none" fill-rule="evenodd" fill="black"></path></svg>