<svg xmlns="http://www.w3.org/2000/svg" width="24" height="24" viewBox="0 0 24 24" fill="none" stroke="currentColor" stroke-width="2" stroke-linecap="round" stroke-linejoin="round"><path d="M2.689 8.059 C 2.457 8.131,2.263 8.287,2.138 8.499 C 1.927 8.860,1.914 8.784,2.778 12.234 C 3.209 13.958,3.587 15.416,3.618 15.474 C 3.769 15.763,4.165 15.998,4.500 15.998 C 4.835 15.998,5.231 15.763,5.382 15.474 C 5.413 15.416,5.675 14.421,5.964 13.263 C 6.254 12.105,6.496 11.163,6.503 11.170 C 6.510 11.176,6.751 12.124,7.039 13.275 C 7.327 14.427,7.587 15.416,7.618 15.474 C 7.769 15.763,8.165 15.998,8.500 15.998 C 8.835 15.998,9.231 15.763,9.382 15.474 C 9.413 15.416,9.791 13.958,10.222 12.234 C 11.093 8.758,11.077 8.851,10.851 8.486 C 10.548 7.995,9.902 7.862,9.424 8.191 C 9.150 8.381,9.096 8.511,8.794 9.705 C 8.640 10.318,8.508 10.825,8.503 10.831 C 8.497 10.837,8.391 10.444,8.269 9.959 C 8.022 8.984,7.951 8.804,7.706 8.540 C 7.205 7.999,6.377 7.852,5.744 8.191 C 5.479 8.333,5.160 8.651,5.046 8.888 C 4.996 8.991,4.856 9.468,4.734 9.948 C 4.612 10.427,4.508 10.825,4.502 10.831 C 4.496 10.838,4.370 10.361,4.223 9.771 C 4.076 9.182,3.919 8.624,3.875 8.531 C 3.734 8.236,3.339 7.997,3.005 8.003 C 2.925 8.004,2.783 8.029,2.689 8.059 M12.695 8.055 C 12.464 8.130,12.255 8.300,12.128 8.516 C 12.037 8.672,12.020 8.746,12.020 9.000 C 12.020 9.257,12.036 9.327,12.133 9.492 C 12.651 10.374,13.998 10.018,13.998 9.000 C 13.998 8.623,13.792 8.281,13.463 8.112 C 13.265 8.010,12.911 7.984,12.695 8.055 M15.665 8.056 C 15.437 8.141,15.233 8.323,15.120 8.543 C 14.984 8.808,14.978 9.230,15.107 9.448 C 15.156 9.529,15.646 10.137,16.198 10.798 L 17.202 12.000 16.198 13.202 C 15.646 13.863,15.159 14.465,15.115 14.540 C 15.001 14.733,14.974 15.067,15.054 15.301 C 15.142 15.558,15.285 15.736,15.511 15.869 C 15.669 15.962,15.746 15.980,15.980 15.980 C 16.473 15.980,16.508 15.951,17.569 14.677 C 18.285 13.817,18.509 13.572,18.544 13.610 C 18.569 13.638,18.988 14.140,19.476 14.727 C 20.489 15.947,20.530 15.980,21.020 15.980 C 21.254 15.980,21.331 15.962,21.489 15.869 C 21.715 15.736,21.858 15.558,21.946 15.301 C 22.026 15.067,21.999 14.733,21.885 14.540 C 21.841 14.465,21.354 13.863,20.802 13.202 L 19.798 12.000 20.802 10.798 C 21.354 10.137,21.841 9.535,21.885 9.460 C 21.999 9.267,22.026 8.933,21.946 8.699 C 21.858 8.442,21.715 8.264,21.489 8.131 C 21.331 8.038,21.254 8.020,21.020 8.020 C 20.530 8.020,20.489 8.053,19.476 9.273 C 18.988 9.860,18.569 10.362,18.544 10.390 C 18.509 10.428,18.285 10.183,17.569 9.323 C 16.807 8.408,16.607 8.191,16.459 8.120 C 16.230 8.008,15.871 7.980,15.665 8.056 M12.580 10.595 C 12.377 10.687,12.151 10.937,12.064 11.164 C 12.004 11.322,11.998 11.545,12.008 13.323 L 12.020 15.306 12.141 15.503 C 12.543 16.156,13.457 16.156,13.859 15.503 L 13.980 15.306 13.992 13.323 C 14.004 11.106,14.008 11.143,13.724 10.828 C 13.528 10.609,13.320 10.522,13.000 10.522 C 12.834 10.522,12.682 10.548,12.580 10.595 " stroke="none" fill-rule="evenodd" fill="black"></path></svg>