<svg xmlns="http://www.w3.org/2000/svg" width="24" height="24" viewBox="0 0 24 24" fill="none" stroke="currentColor" stroke-width="2" stroke-linecap="round" stroke-linejoin="round"><path d="M12.620 2.024 C 12.510 2.033,12.195 2.069,11.920 2.105 C 8.792 2.509,6.464 4.402,5.504 7.321 C 5.191 8.272,5.057 9.050,5.003 10.223 C 4.969 10.981,4.910 11.186,4.642 11.492 C 4.392 11.777,3.726 12.000,3.127 12.000 C 2.660 12.000,2.334 12.165,2.138 12.499 C 1.979 12.770,1.969 13.031,2.098 13.483 C 2.494 14.860,3.278 16.124,4.363 17.134 C 4.548 17.306,4.812 17.530,4.950 17.631 C 5.087 17.733,5.200 17.834,5.199 17.858 C 5.199 17.881,5.160 18.017,5.113 18.160 C 5.042 18.373,5.026 18.520,5.023 18.980 C 5.020 19.461,5.033 19.582,5.114 19.840 C 5.422 20.827,6.174 21.579,7.160 21.886 C 7.412 21.964,7.547 21.979,8.000 21.979 C 8.609 21.979,8.922 21.907,9.400 21.656 C 10.026 21.327,10.637 20.618,10.839 19.987 C 10.886 19.840,10.893 19.835,11.034 19.857 C 11.268 19.894,12.016 19.954,12.606 19.983 L 13.152 20.010 13.315 20.335 C 13.682 21.068,14.357 21.636,15.160 21.886 C 15.594 22.021,16.406 22.021,16.840 21.886 C 17.826 21.579,18.579 20.826,18.886 19.840 C 19.010 19.441,19.019 18.600,18.903 18.208 L 18.828 17.955 19.270 17.519 C 20.822 15.987,21.752 14.035,21.964 11.860 C 22.020 11.292,21.989 10.127,21.903 9.540 C 21.315 5.521,18.580 2.673,14.760 2.101 C 14.353 2.040,13.026 1.992,12.620 2.024 M14.126 4.042 C 15.751 4.207,17.078 4.844,18.146 5.972 C 19.195 7.081,19.824 8.598,19.963 10.356 C 20.135 12.523,19.442 14.471,17.944 16.033 C 17.832 16.150,17.691 16.282,17.632 16.325 L 17.523 16.403 17.324 16.302 C 16.924 16.099,16.548 16.022,15.980 16.025 C 15.549 16.027,15.405 16.044,15.139 16.125 C 14.359 16.362,13.679 16.937,13.312 17.670 L 13.147 18.000 12.963 18.000 C 12.540 17.999,11.132 17.878,10.852 17.818 C 10.795 17.806,10.721 17.719,10.642 17.570 C 10.292 16.915,9.593 16.348,8.861 16.125 C 8.588 16.042,8.458 16.027,8.000 16.027 C 7.456 16.027,7.185 16.080,6.694 16.282 C 6.572 16.333,6.560 16.328,6.214 16.070 C 5.528 15.559,4.947 14.888,4.488 14.076 L 4.361 13.852 4.699 13.742 C 5.558 13.462,6.266 12.864,6.643 12.100 C 6.880 11.619,6.958 11.253,7.001 10.420 C 7.063 9.235,7.146 8.726,7.405 7.946 C 7.995 6.175,9.218 4.928,10.918 4.365 C 11.828 4.063,13.084 3.936,14.126 4.042 M10.695 8.055 C 10.464 8.130,10.255 8.300,10.128 8.516 C 10.037 8.672,10.020 8.746,10.020 9.000 C 10.020 9.257,10.036 9.327,10.133 9.492 C 10.651 10.374,11.998 10.018,11.998 9.000 C 11.998 8.623,11.792 8.281,11.463 8.112 C 11.265 8.010,10.911 7.984,10.695 8.055 M15.695 8.055 C 15.464 8.130,15.255 8.300,15.128 8.516 C 15.037 8.672,15.020 8.746,15.020 9.000 C 15.020 9.257,15.036 9.327,15.133 9.492 C 15.651 10.374,16.998 10.018,16.998 9.000 C 16.998 8.623,16.792 8.281,16.463 8.112 C 16.265 8.010,15.911 7.984,15.695 8.055 M8.310 18.061 C 8.688 18.173,9.000 18.598,9.000 19.001 C 9.000 19.331,8.784 19.696,8.484 19.872 C 8.328 19.963,8.254 19.980,8.000 19.980 C 7.746 19.980,7.672 19.963,7.516 19.872 C 6.932 19.529,6.832 18.772,7.308 18.302 C 7.593 18.022,7.916 17.944,8.310 18.061 M16.310 18.061 C 16.688 18.173,17.000 18.598,17.000 19.001 C 17.000 19.331,16.784 19.696,16.484 19.872 C 16.328 19.963,16.254 19.980,16.000 19.980 C 15.746 19.980,15.672 19.963,15.516 19.872 C 14.932 19.528,14.831 18.775,15.307 18.299 C 15.582 18.024,15.918 17.944,16.310 18.061 " stroke="none" fill-rule="evenodd" fill="black"></path></svg>