<svg xmlns="http://www.w3.org/2000/svg" width="24" height="24" viewBox="0 0 24 24" fill="none" stroke="currentColor" stroke-width="2" stroke-linecap="round" stroke-linejoin="round"><path d="M11.320 3.028 C 9.644 3.154,7.997 3.777,6.600 4.814 C 6.094 5.189,5.172 6.117,4.774 6.651 C 2.148 10.175,2.470 15.065,5.537 18.232 C 6.734 19.468,8.185 20.317,9.795 20.722 C 11.412 21.129,13.050 21.085,14.589 20.594 C 15.223 20.392,15.546 20.246,15.694 20.097 C 16.184 19.600,16.044 18.785,15.420 18.494 C 15.114 18.351,14.913 18.369,14.241 18.598 C 13.308 18.916,12.578 19.028,11.720 18.986 C 10.470 18.925,9.370 18.589,8.352 17.958 C 6.606 16.875,5.415 15.099,5.094 13.100 C 5.008 12.564,5.008 11.436,5.094 10.900 C 5.416 8.894,6.606 7.125,8.368 6.033 C 9.048 5.611,10.055 5.233,10.874 5.093 C 11.207 5.036,11.727 5.024,14.630 5.011 L 18.000 4.995 18.000 10.787 L 18.000 16.579 16.550 15.131 C 14.966 13.550,14.930 13.522,14.500 13.522 C 14.195 13.522,14.011 13.605,13.684 13.890 C 13.203 14.310,12.693 14.489,11.980 14.488 C 11.221 14.487,10.671 14.245,10.151 13.682 C 9.710 13.207,9.520 12.697,9.520 11.993 C 9.520 11.235,9.712 10.767,10.240 10.240 C 10.795 9.684,11.275 9.501,12.100 9.529 C 12.644 9.547,13.011 9.649,13.420 9.895 C 13.962 10.221,14.269 10.588,14.507 11.195 C 14.727 11.755,15.009 11.978,15.500 11.978 C 15.711 11.978,15.821 11.956,15.946 11.890 C 16.300 11.703,16.559 11.234,16.497 10.892 C 16.454 10.654,16.286 10.209,16.116 9.880 C 15.522 8.729,14.224 7.818,12.836 7.577 C 12.325 7.488,11.357 7.517,10.895 7.634 C 9.713 7.934,8.638 8.760,8.059 9.813 C 7.759 10.359,7.587 10.933,7.525 11.588 C 7.262 14.386,9.575 16.717,12.377 16.477 C 13.057 16.419,13.644 16.253,14.157 15.974 L 14.413 15.834 16.417 17.833 C 17.518 18.932,18.483 19.865,18.560 19.905 C 18.659 19.957,18.788 19.979,19.000 19.979 C 19.255 19.980,19.328 19.964,19.484 19.872 C 19.585 19.813,19.717 19.700,19.776 19.621 C 20.016 19.308,20.002 19.839,19.990 11.420 L 19.980 3.700 19.872 3.516 C 19.813 3.415,19.698 3.282,19.618 3.221 C 19.320 2.994,19.435 2.999,15.304 3.007 C 13.212 3.011,11.419 3.020,11.320 3.028 " stroke="none" fill-rule="evenodd" fill="black"></path></svg>