<svg xmlns="http://www.w3.org/2000/svg" width="24" height="24" viewBox="0 0 24 24" fill="none" stroke="currentColor" stroke-width="2" stroke-linecap="round" stroke-linejoin="round"><path d="M0.695 7.057 C 0.466 7.129,0.256 7.299,0.128 7.516 L 0.020 7.700 0.009 11.413 C 0.002 13.838,0.012 15.178,0.039 15.277 C 0.099 15.498,0.290 15.739,0.508 15.867 L 0.700 15.980 3.347 15.991 L 5.993 16.002 6.007 16.651 C 6.020 17.277,6.024 17.307,6.131 17.489 C 6.256 17.702,6.449 17.864,6.670 17.943 C 6.889 18.021,11.111 18.021,11.330 17.943 C 11.551 17.864,11.744 17.702,11.869 17.489 C 11.976 17.307,11.980 17.277,11.993 16.650 L 12.007 16.000 17.593 15.998 C 22.156 15.997,23.208 15.987,23.330 15.943 C 23.551 15.864,23.744 15.702,23.869 15.489 L 23.980 15.300 23.980 11.500 L 23.980 7.700 23.872 7.516 C 23.740 7.293,23.533 7.128,23.290 7.055 C 23.027 6.976,0.948 6.978,0.695 7.057 M6.000 11.500 L 6.000 14.000 5.502 14.000 L 5.003 14.000 4.992 12.350 L 4.980 10.700 4.871 10.514 C 4.479 9.848,3.521 9.848,3.129 10.514 L 3.020 10.700 3.008 12.350 L 2.997 14.000 2.498 14.000 L 2.000 14.000 2.000 11.500 L 2.000 9.000 4.000 9.000 L 6.000 9.000 6.000 11.500 M13.000 11.500 L 13.000 14.000 11.946 14.000 C 10.797 14.000,10.644 14.022,10.382 14.221 C 10.302 14.282,10.187 14.415,10.128 14.516 C 10.025 14.692,10.019 14.728,10.007 15.350 L 9.993 16.000 8.997 16.000 L 8.000 16.000 8.000 12.500 L 8.000 9.000 10.500 9.000 L 13.000 9.000 13.000 11.500 M22.000 11.500 L 22.000 14.000 21.502 14.000 L 21.003 14.000 20.992 12.350 L 20.980 10.700 20.871 10.514 C 20.479 9.848,19.521 9.848,19.129 10.514 L 19.020 10.700 19.008 12.350 L 18.997 14.000 18.500 14.000 L 18.003 14.000 17.992 12.350 L 17.980 10.700 17.871 10.514 C 17.479 9.848,16.521 9.848,16.129 10.514 L 16.020 10.700 16.008 12.350 L 15.997 14.000 15.498 14.000 L 15.000 14.000 15.000 11.500 L 15.000 9.000 18.500 9.000 L 22.000 9.000 22.000 11.500 M10.695 10.057 C 10.466 10.129,10.256 10.299,10.128 10.516 C 10.020 10.699,10.020 10.703,10.020 11.503 L 10.020 12.306 10.141 12.503 C 10.543 13.156,11.457 13.156,11.859 12.503 L 11.980 12.306 11.980 11.503 C 11.980 10.703,11.980 10.699,11.872 10.516 C 11.628 10.101,11.150 9.915,10.695 10.057 " stroke="none" fill-rule="evenodd" fill="black"></path></svg>