<svg xmlns="http://www.w3.org/2000/svg" width="24" height="24" viewBox="0 0 24 24" fill="none" stroke="currentColor" stroke-width="2" stroke-linecap="round" stroke-linejoin="round"><path d="M11.320 2.001 C 8.910 2.176,6.646 3.328,5.111 5.160 C 3.882 6.626,3.148 8.431,2.997 10.354 C 2.878 11.885,3.208 13.528,3.926 14.977 C 4.703 16.545,5.964 17.890,7.480 18.769 C 7.854 18.986,8.563 19.320,8.930 19.452 C 8.994 19.475,9.000 19.555,9.002 20.329 C 9.004 21.245,9.024 21.367,9.217 21.619 C 9.400 21.859,9.644 21.972,10.023 21.992 C 10.913 22.039,12.369 21.800,13.500 21.422 C 15.909 20.617,18.054 18.904,19.376 16.730 C 20.796 14.397,21.325 11.572,20.798 9.140 C 20.255 6.635,18.735 4.528,16.520 3.211 C 14.990 2.302,13.130 1.869,11.320 2.001 M12.532 4.000 C 15.375 4.236,17.779 6.149,18.662 8.878 C 19.292 10.828,18.996 13.273,17.883 15.313 C 17.055 16.829,15.728 18.139,14.197 18.954 C 13.306 19.429,12.096 19.814,11.133 19.930 L 11.006 19.945 10.993 19.203 C 10.981 18.531,10.972 18.444,10.893 18.297 C 10.730 17.994,10.534 17.860,9.992 17.686 C 9.154 17.416,8.654 17.176,8.017 16.736 C 6.528 15.709,5.502 14.152,5.113 12.328 C 5.033 11.953,5.022 11.786,5.022 10.980 C 5.022 9.951,5.071 9.612,5.344 8.769 C 6.195 6.143,8.619 4.232,11.387 4.004 C 11.950 3.957,12.009 3.957,12.532 4.000 M9.667 6.065 C 9.263 6.189,8.968 6.649,9.010 7.087 C 9.033 7.327,9.560 8.426,9.762 8.656 C 10.364 9.342,11.492 8.907,11.493 7.990 C 11.493 7.784,11.461 7.693,11.177 7.111 C 10.820 6.379,10.655 6.174,10.340 6.066 C 10.106 5.986,9.924 5.986,9.667 6.065 M13.240 6.035 C 12.857 6.160,12.710 6.334,12.330 7.103 C 11.987 7.798,11.947 7.980,12.061 8.322 C 12.189 8.707,12.594 9.000,13.000 9.000 C 13.242 9.000,13.521 8.881,13.697 8.703 C 13.809 8.590,13.959 8.336,14.177 7.889 C 14.461 7.305,14.493 7.217,14.492 7.010 C 14.491 6.619,14.290 6.291,13.943 6.112 C 13.771 6.024,13.399 5.983,13.240 6.035 M7.581 8.603 C 6.929 8.928,6.808 9.767,7.344 10.238 C 7.574 10.440,8.673 10.967,8.913 10.990 C 9.622 11.058,10.171 10.356,9.939 9.675 C 9.825 9.340,9.694 9.231,8.954 8.862 C 8.299 8.534,8.260 8.520,8.005 8.522 C 7.823 8.523,7.690 8.548,7.581 8.603 M14.643 11.066 C 14.288 11.197,14.000 11.615,14.000 12.000 C 14.000 12.227,14.116 12.512,14.277 12.681 C 14.380 12.790,14.620 12.932,15.090 13.162 C 15.685 13.453,15.781 13.489,15.988 13.490 C 16.414 13.494,16.783 13.237,16.940 12.826 C 17.075 12.471,16.956 12.026,16.656 11.762 C 16.574 11.690,16.235 11.497,15.902 11.333 C 15.218 10.995,14.976 10.944,14.643 11.066 M8.050 11.858 C 7.310 12.226,7.177 12.336,7.061 12.675 C 6.829 13.356,7.378 14.058,8.087 13.990 C 8.327 13.967,9.426 13.440,9.656 13.238 C 9.973 12.960,10.081 12.504,9.920 12.129 C 9.821 11.898,9.598 11.674,9.376 11.581 C 9.296 11.547,9.118 11.520,8.981 11.520 C 8.749 11.520,8.686 11.543,8.050 11.858 M10.643 13.066 C 10.345 13.176,10.172 13.396,9.823 14.111 C 9.539 14.693,9.507 14.784,9.507 14.990 C 9.507 15.415,9.766 15.784,10.174 15.940 C 10.529 16.075,10.974 15.956,11.238 15.656 C 11.440 15.426,11.967 14.327,11.990 14.087 C 12.014 13.843,11.923 13.551,11.765 13.358 C 11.523 13.065,11.011 12.931,10.643 13.066 M13.240 13.035 C 12.784 13.185,12.509 13.550,12.508 14.010 C 12.507 14.217,12.539 14.305,12.823 14.889 C 13.041 15.336,13.191 15.590,13.303 15.703 C 13.479 15.881,13.758 16.000,14.000 16.000 C 14.406 16.000,14.811 15.707,14.939 15.322 C 15.053 14.980,15.013 14.798,14.670 14.103 C 14.344 13.443,14.196 13.241,13.947 13.113 C 13.771 13.024,13.399 12.983,13.240 13.035 " stroke="none" fill-rule="evenodd" fill="black"></path></svg>