<svg xmlns="http://www.w3.org/2000/svg" width="24" height="24" viewBox="0 0 24 24" fill="none" stroke="currentColor" stroke-width="2" stroke-linecap="round" stroke-linejoin="round"><path d="M11.080 2.045 C 9.507 2.184,7.883 2.751,6.540 3.630 C 5.905 4.045,5.499 4.378,4.919 4.958 C 2.953 6.926,1.919 9.544,2.013 12.320 C 2.084 14.439,2.752 16.328,4.033 18.040 C 4.430 18.570,5.305 19.464,5.800 19.847 C 7.242 20.961,8.787 21.624,10.600 21.907 C 11.247 22.008,12.753 22.008,13.400 21.907 C 15.638 21.557,17.504 20.620,19.062 19.062 C 20.620 17.504,21.557 15.638,21.907 13.400 C 22.008 12.753,22.008 11.247,21.907 10.600 C 21.624 8.786,20.959 7.238,19.847 5.800 C 19.510 5.365,18.639 4.494,18.200 4.154 C 16.133 2.555,13.646 1.818,11.080 2.045 M12.734 4.041 C 14.574 4.216,16.228 4.976,17.554 6.256 C 20.043 8.658,20.702 12.394,19.183 15.499 C 18.749 16.387,18.223 17.105,17.496 17.801 C 16.876 18.394,16.262 18.819,15.471 19.200 C 13.267 20.265,10.733 20.265,8.529 19.200 C 7.477 18.693,6.612 18.015,5.847 17.100 C 3.848 14.711,3.440 11.302,4.816 8.500 C 6.162 5.760,8.867 4.049,11.920 4.005 C 12.129 4.003,12.495 4.019,12.734 4.041 M7.695 7.057 C 7.466 7.129,7.256 7.299,7.128 7.516 L 7.020 7.700 7.020 12.003 L 7.020 16.306 7.141 16.503 C 7.209 16.613,7.346 16.756,7.452 16.828 C 7.923 17.144,8.554 16.999,8.859 16.503 L 8.980 16.306 8.980 12.003 L 8.980 7.700 8.872 7.516 C 8.628 7.101,8.150 6.915,7.695 7.057 M10.695 7.057 C 10.466 7.129,10.256 7.299,10.128 7.516 L 10.020 7.700 10.009 11.913 C 10.002 14.672,10.013 16.178,10.039 16.277 C 10.099 16.498,10.290 16.739,10.508 16.867 L 10.700 16.980 12.160 16.980 C 13.421 16.980,13.666 16.970,13.960 16.907 C 15.488 16.580,16.748 15.630,17.433 14.288 C 17.662 13.839,17.805 13.439,17.907 12.960 C 18.008 12.489,18.008 11.511,17.907 11.040 C 17.625 9.721,16.863 8.576,15.800 7.874 C 15.046 7.375,14.396 7.135,13.552 7.043 C 12.988 6.981,10.904 6.991,10.695 7.057 M13.861 9.126 C 14.812 9.413,15.584 10.185,15.875 11.139 C 15.958 11.412,15.973 11.542,15.973 12.000 C 15.973 12.458,15.958 12.588,15.875 12.861 C 15.585 13.813,14.828 14.572,13.860 14.882 C 13.621 14.958,13.464 14.974,12.790 14.990 L 12.000 15.009 12.000 12.000 L 12.000 8.991 12.770 9.010 C 13.433 9.027,13.584 9.043,13.861 9.126 " stroke="none" fill-rule="evenodd" fill="black"></path></svg>