<svg xmlns="http://www.w3.org/2000/svg" width="24" height="24" viewBox="0 0 24 24" fill="none" stroke="currentColor" stroke-width="2" stroke-linecap="round" stroke-linejoin="round"><path d="M3.664 4.063 C 3.454 4.140,3.266 4.288,3.159 4.461 C 3.106 4.547,2.952 5.078,2.774 5.790 C 2.499 6.888,2.480 6.991,2.518 7.170 C 2.541 7.277,2.586 7.415,2.619 7.477 C 2.705 7.644,3.012 7.899,3.192 7.953 C 3.300 7.985,3.805 8.000,4.806 8.000 C 6.384 8.000,6.513 7.986,6.930 7.775 C 7.196 7.640,7.638 7.200,7.771 6.937 C 8.065 6.358,8.068 5.649,7.781 5.083 C 7.551 4.628,7.022 4.203,6.523 4.073 C 6.165 3.980,3.913 3.972,3.664 4.063 M10.664 4.063 C 10.454 4.140,10.266 4.288,10.159 4.461 C 10.106 4.547,9.952 5.078,9.774 5.790 C 9.499 6.888,9.480 6.991,9.518 7.170 C 9.541 7.277,9.586 7.415,9.619 7.477 C 9.705 7.644,10.012 7.899,10.192 7.953 C 10.300 7.985,10.805 8.000,11.806 8.000 C 13.384 8.000,13.513 7.986,13.930 7.775 C 14.196 7.640,14.638 7.200,14.771 6.937 C 15.065 6.358,15.068 5.649,14.781 5.083 C 14.551 4.628,14.022 4.203,13.523 4.073 C 13.165 3.980,10.913 3.972,10.664 4.063 M17.664 7.063 C 17.454 7.140,17.266 7.288,17.159 7.461 C 17.106 7.547,16.952 8.078,16.774 8.790 C 16.499 9.888,16.480 9.991,16.518 10.170 C 16.541 10.277,16.586 10.415,16.619 10.477 C 16.705 10.644,17.012 10.899,17.192 10.953 C 17.300 10.985,17.805 11.000,18.806 11.000 C 20.384 11.000,20.513 10.986,20.930 10.775 C 21.196 10.640,21.638 10.200,21.771 9.937 C 22.065 9.358,22.068 8.649,21.781 8.083 C 21.551 7.628,21.022 7.203,20.523 7.073 C 20.165 6.980,17.913 6.972,17.664 7.063 M2.664 10.063 C 2.454 10.140,2.266 10.288,2.159 10.461 C 2.106 10.547,1.952 11.078,1.774 11.790 C 1.499 12.888,1.480 12.991,1.518 13.170 C 1.541 13.277,1.586 13.415,1.619 13.477 C 1.705 13.644,2.012 13.899,2.192 13.953 C 2.300 13.985,2.805 14.000,3.806 14.000 C 5.384 14.000,5.513 13.986,5.930 13.775 C 6.196 13.640,6.638 13.200,6.771 12.937 C 7.065 12.358,7.068 11.649,6.781 11.083 C 6.551 10.628,6.022 10.203,5.523 10.073 C 5.165 9.980,2.913 9.972,2.664 10.063 M9.664 10.063 C 9.454 10.140,9.266 10.288,9.159 10.461 C 9.106 10.547,8.952 11.078,8.774 11.790 C 8.499 12.888,8.480 12.991,8.518 13.170 C 8.541 13.277,8.586 13.415,8.619 13.477 C 8.705 13.644,9.012 13.899,9.192 13.953 C 9.300 13.985,9.805 14.000,10.806 14.000 C 12.384 14.000,12.513 13.986,12.930 13.775 C 13.196 13.640,13.638 13.200,13.771 12.937 C 14.065 12.358,14.068 11.649,13.781 11.083 C 13.551 10.628,13.022 10.203,12.523 10.073 C 12.165 9.980,9.913 9.972,9.664 10.063 M16.664 13.063 C 16.454 13.140,16.266 13.288,16.159 13.461 C 16.106 13.547,15.952 14.078,15.774 14.790 C 15.499 15.888,15.480 15.991,15.518 16.170 C 15.541 16.277,15.586 16.415,15.619 16.477 C 15.705 16.644,16.012 16.899,16.192 16.953 C 16.300 16.985,16.805 17.000,17.806 17.000 C 19.384 17.000,19.513 16.986,19.930 16.775 C 20.196 16.640,20.638 16.200,20.771 15.937 C 21.065 15.358,21.068 14.649,20.781 14.083 C 20.551 13.628,20.022 13.203,19.523 13.073 C 19.165 12.980,16.913 12.972,16.664 13.063 M8.664 16.063 C 8.454 16.140,8.266 16.288,8.159 16.461 C 8.106 16.547,7.952 17.078,7.774 17.790 C 7.499 18.888,7.480 18.991,7.518 19.170 C 7.541 19.277,7.586 19.415,7.619 19.477 C 7.705 19.644,8.012 19.899,8.192 19.953 C 8.300 19.985,8.805 20.000,9.806 20.000 C 11.384 20.000,11.513 19.986,11.930 19.775 C 12.196 19.640,12.638 19.200,12.771 18.937 C 13.065 18.358,13.068 17.649,12.781 17.083 C 12.551 16.628,12.022 16.203,11.523 16.073 C 11.165 15.980,8.913 15.972,8.664 16.063 " stroke="none" fill-rule="evenodd" fill="black"></path></svg>