<svg xmlns="http://www.w3.org/2000/svg" width="24" height="24" viewBox="0 0 24 24" fill="none" stroke="currentColor" stroke-width="2" stroke-linecap="round" stroke-linejoin="round"><path d="M3.447 5.042 C 2.847 5.162,2.269 5.703,2.076 6.324 C 2.003 6.556,2.000 6.761,2.000 10.958 C 2.000 14.696,2.009 15.402,2.061 15.705 C 2.357 17.444,3.502 18.670,5.097 18.957 C 5.258 18.986,7.100 19.000,10.799 19.000 C 16.730 19.000,16.467 19.009,16.915 18.782 C 17.022 18.728,17.209 18.593,17.332 18.481 C 17.759 18.090,17.953 17.684,17.994 17.092 L 18.020 16.723 19.243 17.792 C 19.916 18.380,20.519 18.885,20.583 18.914 C 20.940 19.077,21.416 18.987,21.701 18.701 C 22.025 18.377,22.002 18.910,21.990 11.918 L 21.980 5.700 21.872 5.516 C 21.691 5.209,21.331 5.000,20.981 5.000 C 20.659 5.000,20.522 5.094,19.123 6.283 C 18.373 6.919,17.751 7.440,17.741 7.440 C 17.730 7.440,17.674 7.345,17.615 7.230 C 17.086 6.185,16.068 5.411,14.800 5.090 C 14.566 5.031,13.993 5.024,9.080 5.016 C 6.077 5.011,3.542 5.023,3.447 5.042 M14.566 7.088 C 15.068 7.266,15.521 7.618,15.776 8.030 C 16.005 8.401,16.000 8.288,16.000 12.829 L 16.000 17.001 10.650 16.991 L 5.300 16.980 5.072 16.888 C 4.784 16.771,4.465 16.462,4.285 16.124 C 4.008 15.602,4.025 15.904,4.010 11.229 L 3.997 6.998 9.189 7.010 C 13.884 7.021,14.398 7.028,14.566 7.088 M20.000 11.981 L 20.000 15.802 19.002 14.931 L 18.004 14.060 18.002 11.959 L 18.000 9.857 18.990 9.012 C 19.535 8.547,19.985 8.165,19.990 8.163 C 19.995 8.161,20.000 9.879,20.000 11.981 " stroke="none" fill-rule="evenodd" fill="black"></path></svg>