<svg xmlns="http://www.w3.org/2000/svg" width="24" height="24" viewBox="0 0 24 24" fill="none" stroke="currentColor" stroke-width="2" stroke-linecap="round" stroke-linejoin="round"><path d="M1.695 7.057 C 1.466 7.129,1.256 7.299,1.128 7.516 L 1.020 7.700 1.020 12.003 L 1.020 16.306 1.141 16.503 C 1.543 17.156,2.457 17.156,2.859 16.503 L 2.980 16.306 2.992 14.653 L 3.003 13.000 4.000 13.000 L 4.997 13.000 5.008 14.653 L 5.020 16.306 5.141 16.503 C 5.543 17.156,6.457 17.156,6.859 16.503 L 6.980 16.306 6.980 12.003 L 6.980 7.700 6.871 7.514 C 6.479 6.848,5.521 6.848,5.129 7.514 L 5.020 7.700 5.008 9.350 L 4.997 11.000 4.000 11.000 L 3.003 11.000 2.992 9.350 L 2.980 7.700 2.872 7.516 C 2.628 7.101,2.150 6.915,1.695 7.057 M8.695 7.055 C 8.464 7.130,8.255 7.300,8.128 7.516 L 8.020 7.700 8.009 11.913 C 8.002 14.672,8.013 16.178,8.039 16.277 C 8.099 16.498,8.290 16.739,8.508 16.867 L 8.700 16.980 10.120 16.980 C 11.497 16.980,11.549 16.977,11.840 16.886 C 12.827 16.578,13.579 15.826,13.886 14.840 C 14.021 14.406,14.021 13.593,13.886 13.161 C 13.766 12.779,13.609 12.470,13.402 12.208 L 13.238 12.000 13.402 11.792 C 13.609 11.530,13.766 11.221,13.886 10.839 C 14.021 10.407,14.021 9.594,13.886 9.160 C 13.581 8.182,12.825 7.421,11.861 7.124 C 11.551 7.028,11.495 7.025,10.200 7.014 C 9.166 7.005,8.822 7.014,8.695 7.055 M18.400 7.044 C 16.761 7.229,15.261 8.290,14.526 9.785 C 14.158 10.533,14.020 11.136,14.020 12.000 C 14.020 12.670,14.078 13.044,14.268 13.600 C 14.846 15.291,16.253 16.525,18.040 16.907 C 18.511 17.008,19.489 17.008,19.960 16.907 C 21.488 16.580,22.748 15.630,23.433 14.288 C 23.838 13.494,23.980 12.899,23.980 12.000 C 23.980 11.101,23.838 10.506,23.433 9.713 C 22.794 8.461,21.604 7.510,20.240 7.162 C 19.669 7.016,19.019 6.974,18.400 7.044 M11.310 9.061 C 11.688 9.173,12.000 9.598,12.000 10.001 C 12.000 10.331,11.784 10.696,11.484 10.872 C 11.308 10.975,11.272 10.981,10.650 10.993 L 10.000 11.007 10.000 10.003 L 10.000 9.000 10.553 9.000 C 10.931 9.000,11.170 9.019,11.310 9.061 M19.861 9.129 C 20.804 9.405,21.584 10.183,21.875 11.139 C 21.958 11.412,21.973 11.542,21.973 12.000 C 21.973 12.458,21.958 12.588,21.875 12.861 C 21.582 13.822,20.819 14.581,19.840 14.886 C 19.406 15.021,18.594 15.021,18.160 14.886 C 17.181 14.581,16.418 13.822,16.125 12.861 C 16.042 12.588,16.027 12.458,16.027 12.000 C 16.027 11.542,16.042 11.412,16.125 11.139 C 16.456 10.054,17.371 9.245,18.499 9.040 C 18.832 8.980,19.500 9.023,19.861 9.129 M18.477 10.073 C 17.806 10.249,17.238 10.823,17.060 11.508 C 16.941 11.962,17.003 12.492,17.225 12.930 C 17.361 13.199,17.801 13.639,18.070 13.775 C 18.659 14.073,19.341 14.073,19.930 13.775 C 20.196 13.640,20.638 13.200,20.771 12.937 C 20.994 12.498,21.052 12.007,20.940 11.529 C 20.858 11.182,20.720 10.927,20.465 10.653 C 20.074 10.232,19.560 10.005,19.000 10.005 C 18.857 10.005,18.622 10.036,18.477 10.073 M11.310 13.061 C 11.688 13.173,12.000 13.598,12.000 14.001 C 12.000 14.331,11.784 14.696,11.484 14.872 C 11.308 14.975,11.272 14.981,10.650 14.993 L 10.000 15.007 10.000 14.003 L 10.000 13.000 10.553 13.000 C 10.931 13.000,11.170 13.019,11.310 13.061 " stroke="none" fill-rule="evenodd" fill="black"></path></svg>