<svg xmlns="http://www.w3.org/2000/svg" width="24" height="24" viewBox="0 0 24 24" fill="none" stroke="currentColor" stroke-width="2" stroke-linecap="round" stroke-linejoin="round"><path d="M3.667 3.065 C 3.312 3.174,3.000 3.599,3.000 3.973 C 3.000 4.097,4.987 18.548,5.028 18.720 C 5.072 18.907,5.194 19.105,5.351 19.248 C 5.494 19.377,5.797 19.486,8.658 20.439 C 11.031 21.230,11.855 21.489,12.000 21.489 C 12.145 21.489,12.969 21.230,15.342 20.439 C 18.203 19.486,18.506 19.377,18.649 19.248 C 18.806 19.105,18.928 18.907,18.972 18.720 C 18.985 18.665,19.448 15.344,20.001 11.340 C 20.702 6.268,21.000 4.001,20.985 3.866 C 20.943 3.493,20.663 3.167,20.290 3.055 C 20.005 2.969,3.946 2.979,3.667 3.065 M18.825 5.170 C 18.811 5.264,18.422 8.094,17.960 11.460 C 17.497 14.826,17.110 17.619,17.100 17.667 C 17.083 17.743,16.765 17.858,14.540 18.600 L 12.000 19.447 9.460 18.600 C 7.235 17.858,6.917 17.743,6.900 17.667 C 6.890 17.619,6.503 14.826,6.040 11.460 C 5.578 8.094,5.189 5.264,5.175 5.170 L 5.151 5.000 12.000 5.000 L 18.849 5.000 18.825 5.170 M8.240 7.037 C 7.983 7.116,7.715 7.332,7.604 7.549 C 7.474 7.802,7.483 7.952,7.761 10.162 C 8.012 12.161,8.039 12.332,8.137 12.498 C 8.256 12.702,8.451 12.865,8.670 12.943 C 8.789 12.985,9.338 12.997,11.330 12.998 C 12.710 12.999,13.840 13.007,13.840 13.015 C 13.840 13.131,13.591 14.704,13.569 14.724 C 13.553 14.738,13.193 14.853,12.769 14.979 L 11.998 15.207 11.509 15.061 C 10.250 14.684,10.375 14.737,10.280 14.539 C 10.180 14.333,9.959 14.144,9.719 14.060 C 9.125 13.850,8.475 14.262,8.414 14.888 C 8.386 15.175,8.527 15.805,8.671 16.039 C 8.733 16.138,8.862 16.267,8.961 16.328 C 9.204 16.478,11.745 17.240,12.002 17.240 C 12.236 17.240,14.784 16.480,15.027 16.338 C 15.208 16.232,15.327 16.088,15.422 15.860 C 15.514 15.641,16.009 12.146,15.985 11.888 C 15.949 11.500,15.674 11.170,15.290 11.055 C 15.143 11.011,14.593 11.000,12.494 11.000 C 11.056 11.000,9.880 10.987,9.880 10.970 C 9.880 10.954,9.826 10.517,9.760 10.000 C 9.694 9.483,9.640 9.046,9.640 9.030 C 9.640 9.014,11.003 9.000,12.670 9.000 L 15.700 8.999 15.900 8.905 C 16.281 8.724,16.488 8.405,16.488 8.000 C 16.488 7.615,16.293 7.297,15.940 7.106 L 15.780 7.020 12.060 7.013 C 10.014 7.009,8.295 7.020,8.240 7.037 " stroke="none" fill-rule="evenodd" fill="black"></path></svg>