<svg xmlns="http://www.w3.org/2000/svg" width="24" height="24" viewBox="0 0 24 24" fill="none" stroke="currentColor" stroke-width="2" stroke-linecap="round" stroke-linejoin="round"><path d="M13.180 5.058 C 11.926 5.212,11.019 5.650,10.158 6.516 C 9.461 7.217,9.044 7.931,8.440 9.460 C 8.257 9.922,8.096 10.314,8.080 10.332 C 8.065 10.350,8.030 10.170,8.004 9.932 C 7.844 8.502,7.378 7.493,6.443 6.556 C 5.767 5.877,4.987 5.417,4.100 5.174 C 3.657 5.053,2.895 5.003,2.662 5.079 C 2.332 5.188,2.001 5.633,2.000 5.970 C 2.000 6.052,2.458 9.091,3.018 12.723 C 4.148 20.049,4.048 19.540,4.409 19.802 C 4.653 19.979,4.834 20.013,5.380 19.987 C 6.749 19.921,8.119 19.456,9.200 18.689 C 9.665 18.360,10.380 17.652,10.690 17.215 C 10.952 16.846,11.282 16.238,11.446 15.822 C 11.507 15.667,11.558 15.558,11.559 15.581 C 11.559 15.603,11.667 16.454,11.797 17.472 C 12.061 19.536,12.066 19.553,12.409 19.802 C 12.655 19.980,12.832 20.013,13.400 19.986 C 15.888 19.868,18.052 18.512,19.193 16.357 C 19.442 15.888,22.963 6.354,22.991 6.074 C 23.035 5.636,22.736 5.192,22.304 5.056 C 22.100 4.992,22.027 4.990,21.521 5.033 C 20.676 5.105,20.141 5.247,19.485 5.573 C 18.514 6.056,17.674 6.817,16.983 7.840 C 16.696 8.265,16.223 9.211,16.017 9.773 C 15.930 10.008,15.851 10.200,15.840 10.200 C 15.829 10.200,15.626 9.179,15.388 7.930 C 14.922 5.481,14.910 5.438,14.619 5.217 C 14.328 4.995,13.994 4.958,13.180 5.058 M13.200 7.113 C 13.200 7.131,13.415 8.279,13.678 9.663 C 13.940 11.047,14.238 12.639,14.340 13.200 C 14.441 13.761,14.543 14.281,14.567 14.355 C 14.623 14.533,14.854 14.785,15.054 14.887 C 15.304 15.015,15.621 15.028,15.871 14.920 C 16.168 14.792,16.360 14.565,16.495 14.180 C 16.921 12.968,18.012 10.163,18.238 9.700 C 18.567 9.028,18.907 8.537,19.346 8.103 C 19.649 7.802,20.313 7.335,20.392 7.366 C 20.443 7.386,17.561 15.178,17.382 15.505 C 16.918 16.353,16.110 17.107,15.221 17.524 C 14.902 17.674,14.326 17.859,14.036 17.905 C 13.890 17.929,13.885 17.925,13.862 17.795 C 13.849 17.721,13.650 16.139,13.420 14.280 C 13.190 12.421,12.973 10.803,12.938 10.685 C 12.764 10.108,12.086 9.841,11.525 10.129 C 11.184 10.305,11.176 10.323,10.337 12.836 C 9.910 14.115,9.495 15.292,9.415 15.451 C 8.882 16.513,7.899 17.345,6.740 17.717 C 6.344 17.844,5.893 17.947,5.863 17.916 C 5.835 17.888,4.235 7.475,4.249 7.411 C 4.266 7.332,4.760 7.679,5.046 7.972 C 5.479 8.414,5.780 8.936,5.900 9.453 C 5.953 9.681,6.302 12.609,6.462 14.157 C 6.526 14.781,6.561 14.902,6.750 15.155 C 6.888 15.338,7.231 15.491,7.504 15.491 C 7.787 15.491,8.126 15.327,8.279 15.115 C 8.342 15.029,8.883 13.730,9.483 12.229 C 10.082 10.728,10.662 9.320,10.772 9.100 C 11.314 8.009,11.876 7.471,12.780 7.175 C 13.078 7.078,13.200 7.060,13.200 7.113 " stroke="none" fill-rule="evenodd" fill="black"></path></svg>