<svg xmlns="http://www.w3.org/2000/svg" width="24" height="24" viewBox="0 0 24 24" fill="none" stroke="currentColor" stroke-width="2" stroke-linecap="round" stroke-linejoin="round"><path d="M10.349 2.044 C 7.535 2.178,5.738 2.713,4.406 3.814 C 3.787 4.326,3.247 5.075,2.885 5.924 C 2.566 6.671,2.342 7.527,2.205 8.520 C 2.051 9.633,2.021 10.208,2.021 12.000 C 2.021 13.792,2.051 14.367,2.205 15.480 C 2.744 19.396,4.610 21.251,8.560 21.800 C 9.623 21.948,10.220 21.979,12.000 21.979 C 13.780 21.979,14.377 21.948,15.440 21.800 C 16.241 21.689,16.753 21.574,17.401 21.361 C 20.018 20.502,21.344 18.717,21.800 15.440 C 21.948 14.377,21.979 13.780,21.979 12.000 C 21.979 10.220,21.948 9.623,21.800 8.560 C 21.494 6.357,20.759 4.778,19.594 3.814 C 18.657 3.040,17.469 2.539,15.960 2.283 C 14.520 2.039,12.378 1.947,10.349 2.044 M13.500 4.041 C 16.040 4.168,17.512 4.591,18.435 5.458 C 19.509 6.468,19.999 8.517,19.999 12.000 C 19.999 15.490,19.511 17.527,18.430 18.548 C 17.356 19.562,15.410 20.000,11.992 20.000 C 8.581 19.999,6.644 19.561,5.570 18.548 C 4.489 17.527,4.001 15.490,4.001 12.000 C 4.001 10.005,4.176 8.385,4.505 7.320 C 5.052 5.555,6.056 4.719,8.129 4.302 C 9.412 4.045,11.521 3.942,13.500 4.041 M7.695 7.057 C 7.466 7.129,7.256 7.299,7.128 7.516 C 7.037 7.672,7.020 7.746,7.020 8.000 C 7.020 8.256,7.036 8.328,7.131 8.489 C 7.256 8.702,7.449 8.864,7.670 8.943 C 7.791 8.986,8.516 8.997,11.409 8.998 L 14.998 9.000 15.009 12.653 L 15.020 16.306 15.141 16.503 C 15.543 17.156,16.457 17.156,16.859 16.503 L 16.980 16.306 16.980 12.003 L 16.980 7.700 16.872 7.516 C 16.740 7.293,16.533 7.128,16.290 7.055 C 16.029 6.976,7.946 6.979,7.695 7.057 M9.873 10.060 C 9.136 10.200,8.468 10.565,7.958 11.105 C 7.559 11.527,7.314 11.957,7.133 12.548 C 7.038 12.863,7.026 12.963,7.026 13.500 C 7.026 14.037,7.038 14.137,7.133 14.452 C 7.725 16.393,9.674 17.429,11.588 16.821 C 12.604 16.498,13.497 15.606,13.820 14.591 C 13.943 14.205,13.999 13.860,13.999 13.500 C 13.999 11.928,12.904 10.515,11.378 10.118 C 10.959 10.009,10.280 9.983,9.873 10.060 M11.119 12.143 C 11.417 12.279,11.727 12.592,11.865 12.896 C 11.960 13.105,11.976 13.192,11.976 13.500 C 11.976 13.808,11.960 13.895,11.865 14.104 C 11.725 14.413,11.417 14.720,11.100 14.868 C 10.893 14.965,10.810 14.980,10.500 14.980 C 10.190 14.980,10.107 14.965,9.900 14.868 C 9.583 14.720,9.275 14.413,9.135 14.104 C 9.040 13.896,9.024 13.808,9.024 13.500 C 9.023 13.191,9.039 13.106,9.134 12.900 C 9.327 12.478,9.749 12.129,10.174 12.039 C 10.441 11.982,10.870 12.030,11.119 12.143 " stroke="none" fill-rule="evenodd" fill="black"></path></svg>