<svg xmlns="http://www.w3.org/2000/svg" width="24" height="24" viewBox="0 0 24 24" fill="none" stroke="currentColor" stroke-width="2" stroke-linecap="round" stroke-linejoin="round"><path d="M11.695 6.057 C 11.466 6.129,11.256 6.299,11.128 6.516 L 11.020 6.700 11.009 11.914 C 11.002 15.337,11.013 17.179,11.039 17.277 C 11.099 17.498,11.290 17.739,11.508 17.867 L 11.700 17.980 15.010 17.991 C 18.130 18.001,18.340 17.997,18.690 17.926 C 19.475 17.764,20.144 17.410,20.727 16.849 C 21.309 16.287,21.706 15.620,21.888 14.895 C 22.018 14.381,22.016 13.601,21.884 13.100 C 21.697 12.388,21.362 11.800,20.842 11.278 C 20.062 10.492,19.197 10.085,18.158 10.015 L 17.777 9.989 17.667 9.678 C 16.894 7.495,15.235 6.266,12.760 6.042 C 12.172 5.989,11.901 5.993,11.695 6.057 M8.695 7.057 C 8.466 7.129,8.256 7.299,8.128 7.516 L 8.020 7.700 8.020 12.503 L 8.020 17.306 8.141 17.503 C 8.543 18.156,9.457 18.156,9.859 17.503 L 9.980 17.306 9.980 12.503 L 9.980 7.700 9.872 7.516 C 9.628 7.101,9.150 6.915,8.695 7.057 M13.457 8.178 C 14.431 8.425,15.096 8.945,15.540 9.804 C 15.731 10.174,15.914 10.694,16.001 11.115 C 16.067 11.440,16.243 11.702,16.497 11.859 L 16.694 11.980 17.517 12.004 C 18.112 12.021,18.385 12.045,18.503 12.090 C 19.266 12.379,19.829 12.988,19.962 13.672 C 20.149 14.629,19.444 15.673,18.430 15.943 C 18.261 15.988,17.716 15.999,15.610 16.000 L 13.000 16.000 13.000 12.040 C 13.000 9.815,13.015 8.080,13.035 8.080 C 13.054 8.080,13.244 8.124,13.457 8.178 M5.695 9.057 C 5.466 9.129,5.256 9.299,5.128 9.516 L 5.020 9.700 5.020 13.503 L 5.020 17.306 5.141 17.503 C 5.209 17.613,5.346 17.756,5.452 17.828 C 5.923 18.144,6.554 17.999,6.859 17.503 L 6.980 17.306 6.980 13.503 L 6.980 9.700 6.872 9.516 C 6.628 9.101,6.150 8.915,5.695 9.057 M2.695 13.057 C 2.466 13.129,2.256 13.299,2.128 13.516 L 2.020 13.700 2.020 15.003 L 2.020 16.306 2.141 16.503 C 2.543 17.156,3.457 17.156,3.859 16.503 L 3.980 16.306 3.980 15.003 L 3.980 13.700 3.872 13.516 C 3.628 13.101,3.150 12.915,2.695 13.057 " stroke="none" fill-rule="evenodd" fill="black"></path></svg>