<svg xmlns="http://www.w3.org/2000/svg" width="24" height="24" viewBox="0 0 24 24" fill="none" stroke="currentColor" stroke-width="2" stroke-linecap="round" stroke-linejoin="round"><path d="M3.695 3.056 C 3.465 3.129,3.256 3.299,3.128 3.516 C 2.988 3.755,2.975 4.171,3.101 4.420 C 3.145 4.508,4.593 6.503,6.317 8.854 L 9.452 13.127 6.310 16.274 C 4.582 18.004,3.135 19.483,3.095 19.560 C 3.043 19.659,3.021 19.788,3.021 20.000 C 3.020 20.258,3.036 20.327,3.133 20.492 C 3.263 20.714,3.502 20.901,3.736 20.965 C 3.938 21.019,4.266 20.989,4.445 20.899 C 4.519 20.862,5.948 19.467,7.620 17.799 L 10.660 14.766 12.740 17.611 C 13.884 19.176,14.892 20.537,14.980 20.634 C 15.068 20.732,15.230 20.854,15.340 20.906 L 15.540 20.999 17.860 20.998 C 19.694 20.997,20.211 20.985,20.330 20.943 C 20.551 20.864,20.744 20.702,20.869 20.489 C 21.012 20.245,21.026 19.831,20.899 19.580 C 20.855 19.492,19.407 17.497,17.683 15.146 L 14.548 10.873 17.690 7.726 C 19.418 5.996,20.865 4.517,20.905 4.440 C 20.957 4.341,20.979 4.212,20.979 4.000 C 20.980 3.745,20.964 3.672,20.872 3.516 C 20.618 3.084,20.138 2.906,19.657 3.065 C 19.478 3.125,19.186 3.403,16.400 6.182 L 13.340 9.233 11.260 6.388 C 10.116 4.824,9.109 3.465,9.022 3.368 C 8.935 3.272,8.791 3.154,8.702 3.107 C 8.542 3.021,8.516 3.020,6.200 3.012 C 4.361 3.006,3.825 3.015,3.695 3.056 M12.887 11.993 C 15.699 15.827,18.000 18.973,18.000 18.983 C 18.000 18.993,17.601 18.997,17.113 18.991 L 16.227 18.980 11.113 12.007 C 8.301 8.173,6.000 5.027,6.000 5.017 C 6.000 5.007,6.399 5.003,6.887 5.009 L 7.773 5.020 12.887 11.993 " stroke="none" fill-rule="evenodd" fill="black"></path></svg>