<svg xmlns="http://www.w3.org/2000/svg" width="24" height="24" viewBox="0 0 24 24" fill="none" stroke="currentColor" stroke-width="2" stroke-linecap="round" stroke-linejoin="round"><path d="M9.080 2.024 C 6.976 2.095,5.764 2.305,4.837 2.760 C 3.386 3.472,2.570 4.654,2.243 6.520 C 2.048 7.636,2.001 8.699,2.001 11.980 C 2.001 15.298,2.048 16.365,2.243 17.480 C 2.488 18.878,3.012 19.894,3.855 20.605 C 4.793 21.397,5.886 21.755,7.900 21.928 C 8.747 22.001,15.253 22.001,16.100 21.928 C 18.285 21.740,19.438 21.323,20.381 20.381 C 21.323 19.438,21.740 18.285,21.928 16.100 C 22.001 15.253,22.001 8.747,21.928 7.900 C 21.740 5.715,21.323 4.561,20.381 3.620 C 19.435 2.674,18.269 2.256,16.080 2.078 C 15.581 2.037,9.979 1.994,9.080 2.024 M15.140 4.041 C 17.479 4.139,18.392 4.393,19.057 5.128 C 19.562 5.686,19.795 6.474,19.927 8.080 C 19.999 8.949,19.999 15.051,19.927 15.920 C 19.795 17.526,19.562 18.314,19.057 18.872 C 18.420 19.577,17.494 19.852,15.400 19.959 C 14.390 20.011,9.610 20.011,8.600 19.959 C 6.304 19.842,5.327 19.502,4.738 18.615 C 4.144 17.720,4.000 16.432,4.000 12.000 C 4.000 7.142,4.171 5.949,4.990 5.074 C 5.611 4.409,6.610 4.132,8.701 4.044 C 9.829 3.997,14.039 3.995,15.140 4.041 M7.557 7.237 C 6.997 7.315,6.523 7.712,6.333 8.261 C 6.270 8.442,6.263 8.778,6.250 12.060 C 6.240 14.572,6.250 15.739,6.281 15.920 C 6.357 16.368,6.648 16.676,7.080 16.766 C 7.512 16.856,7.985 16.612,8.176 16.200 C 8.256 16.029,8.261 15.944,8.272 14.514 L 8.284 13.008 8.992 12.990 C 9.798 12.970,10.006 12.927,10.505 12.677 C 11.482 12.189,12.082 11.208,12.079 10.104 C 12.078 9.483,11.941 9.027,11.604 8.509 C 11.239 7.952,10.565 7.472,9.900 7.297 C 9.627 7.225,7.946 7.182,7.557 7.237 M9.560 9.287 C 10.030 9.495,10.222 10.068,9.974 10.524 C 9.761 10.916,9.556 11.000,8.814 11.000 L 8.280 11.000 8.280 10.096 L 8.280 9.191 8.850 9.208 C 9.245 9.220,9.463 9.244,9.560 9.287 M13.437 9.710 C 13.166 9.848,12.981 10.085,12.922 10.372 C 12.891 10.519,12.881 11.427,12.889 13.303 C 12.900 15.963,12.902 16.024,12.984 16.200 C 13.175 16.612,13.648 16.856,14.080 16.766 C 14.506 16.678,14.806 16.353,14.881 15.898 C 14.902 15.767,14.920 15.006,14.920 14.207 L 14.920 12.754 15.229 12.351 C 15.539 11.946,15.853 11.655,16.014 11.622 C 16.061 11.612,16.224 11.584,16.376 11.560 C 16.562 11.530,16.707 11.478,16.819 11.401 C 17.417 10.989,17.398 10.122,16.782 9.741 C 16.595 9.625,16.566 9.620,16.143 9.620 C 15.658 9.620,15.368 9.693,14.953 9.920 L 14.743 10.035 14.605 9.892 C 14.302 9.580,13.837 9.508,13.437 9.710 " stroke="none" fill-rule="evenodd" fill="black"></path></svg>