<svg xmlns="http://www.w3.org/2000/svg" width="24" height="24" viewBox="0 0 24 24" fill="none" stroke="currentColor" stroke-width="2" stroke-linecap="round" stroke-linejoin="round"><path d="M8.400 3.066 C 7.457 3.193,6.470 3.434,5.780 3.707 C 4.841 4.077,3.813 4.691,3.650 4.980 C 3.551 5.155,3.052 6.646,2.803 7.512 C 1.537 11.907,1.292 15.781,2.167 17.552 C 2.521 18.271,3.078 19.039,3.679 19.641 C 4.392 20.355,5.111 20.776,5.892 20.937 C 6.514 21.066,6.918 20.991,7.377 20.663 C 7.983 20.231,8.780 19.179,9.184 18.279 C 9.289 18.044,9.299 18.035,9.417 18.055 C 10.700 18.283,13.300 18.283,14.584 18.055 C 14.701 18.035,14.712 18.044,14.799 18.247 C 15.170 19.111,16.062 20.287,16.650 20.687 C 17.103 20.994,17.501 21.063,18.108 20.937 C 19.273 20.696,20.416 19.793,21.357 18.369 C 22.067 17.295,22.289 16.519,22.347 14.920 C 22.416 13.012,21.990 10.264,21.197 7.512 C 20.948 6.646,20.449 5.155,20.350 4.980 C 20.187 4.691,19.159 4.077,18.220 3.707 C 17.482 3.416,16.492 3.180,15.482 3.056 C 14.972 2.993,14.924 2.993,14.706 3.057 C 14.348 3.161,14.202 3.338,13.802 4.150 L 13.464 4.836 13.142 4.808 C 12.965 4.793,12.451 4.780,12.000 4.780 C 11.549 4.780,11.035 4.793,10.858 4.808 L 10.536 4.836 10.198 4.150 C 9.806 3.354,9.650 3.162,9.316 3.063 C 9.070 2.990,8.965 2.990,8.400 3.066 M8.740 5.708 C 9.129 6.469,9.223 6.614,9.409 6.740 C 9.681 6.925,9.846 6.943,10.485 6.857 C 11.284 6.750,12.665 6.750,13.509 6.857 C 14.090 6.931,14.129 6.932,14.336 6.867 C 14.676 6.759,14.828 6.574,15.225 5.785 C 15.415 5.408,15.575 5.095,15.580 5.088 C 15.600 5.066,16.580 5.276,16.940 5.381 C 17.395 5.512,18.016 5.775,18.389 5.993 L 18.678 6.162 18.917 6.911 C 19.333 8.218,19.570 9.089,19.818 10.228 C 20.453 13.139,20.517 15.808,19.977 16.787 C 19.430 17.775,18.674 18.589,18.030 18.881 C 17.936 18.924,17.819 18.959,17.770 18.959 C 17.627 18.961,17.224 18.482,16.895 17.920 C 16.721 17.624,16.720 17.620,16.810 17.592 C 16.859 17.577,17.032 17.527,17.193 17.480 C 17.712 17.329,17.978 16.998,17.978 16.500 C 17.978 16.173,17.888 15.966,17.661 15.766 C 17.331 15.477,17.047 15.455,16.268 15.660 C 15.533 15.854,14.662 16.027,13.901 16.130 C 13.354 16.205,13.075 16.218,12.000 16.218 C 10.915 16.218,10.648 16.206,10.080 16.128 C 9.289 16.020,8.632 15.890,7.808 15.678 C 6.943 15.455,6.675 15.471,6.339 15.766 C 6.112 15.966,6.022 16.173,6.022 16.500 C 6.022 16.998,6.288 17.329,6.807 17.480 C 6.968 17.527,7.141 17.577,7.190 17.592 C 7.280 17.620,7.279 17.624,7.105 17.920 C 6.776 18.482,6.373 18.961,6.230 18.959 C 6.181 18.959,6.061 18.922,5.964 18.878 C 5.338 18.594,4.555 17.751,4.023 16.787 C 3.601 16.022,3.540 14.173,3.864 11.960 C 4.087 10.432,4.488 8.773,5.083 6.911 L 5.322 6.162 5.611 5.993 C 5.990 5.771,6.609 5.511,7.072 5.378 C 7.397 5.285,8.268 5.089,8.380 5.083 C 8.402 5.082,8.564 5.363,8.740 5.708 M8.477 10.073 C 7.806 10.249,7.238 10.823,7.060 11.508 C 6.941 11.962,7.003 12.492,7.225 12.930 C 7.361 13.199,7.801 13.639,8.070 13.775 C 8.659 14.073,9.341 14.073,9.930 13.775 C 10.196 13.640,10.638 13.200,10.771 12.937 C 10.994 12.498,11.052 12.007,10.940 11.529 C 10.858 11.182,10.720 10.927,10.465 10.653 C 10.074 10.232,9.560 10.005,9.000 10.005 C 8.857 10.005,8.622 10.036,8.477 10.073 M14.477 10.073 C 13.806 10.249,13.238 10.823,13.060 11.508 C 12.941 11.962,13.003 12.492,13.225 12.930 C 13.361 13.199,13.801 13.639,14.070 13.775 C 14.659 14.073,15.341 14.073,15.930 13.775 C 16.196 13.640,16.638 13.200,16.771 12.937 C 16.994 12.498,17.052 12.007,16.940 11.529 C 16.858 11.182,16.720 10.927,16.465 10.653 C 16.074 10.232,15.560 10.005,15.000 10.005 C 14.857 10.005,14.622 10.036,14.477 10.073 " stroke="none" fill-rule="evenodd" fill="black"></path></svg>