<svg xmlns="http://www.w3.org/2000/svg" width="24" height="24" viewBox="0 0 24 24" fill="none" stroke="currentColor" stroke-width="2" stroke-linecap="round" stroke-linejoin="round"><path d="M4.499 2.043 C 3.380 2.232,2.461 3.048,2.114 4.160 L 2.020 4.460 2.020 12.000 L 2.020 19.540 2.114 19.840 C 2.422 20.827,3.173 21.578,4.160 21.886 L 4.460 21.980 12.000 21.980 L 19.540 21.980 19.840 21.886 C 20.827 21.578,21.578 20.827,21.886 19.840 L 21.980 19.540 21.980 12.000 L 21.980 4.460 21.886 4.160 C 21.581 3.182,20.832 2.428,19.861 2.121 L 19.540 2.020 12.120 2.014 C 8.039 2.011,4.609 2.024,4.499 2.043 M19.310 4.061 C 19.589 4.144,19.856 4.411,19.939 4.690 C 19.993 4.870,20.000 5.755,20.000 12.001 C 20.000 17.907,19.991 19.138,19.945 19.290 C 19.872 19.533,19.707 19.740,19.484 19.872 L 19.300 19.980 12.000 19.980 L 4.700 19.980 4.516 19.872 C 4.415 19.813,4.284 19.700,4.225 19.623 C 3.986 19.309,4.000 19.795,4.000 12.022 C 4.000 5.758,4.007 4.870,4.061 4.690 C 4.140 4.421,4.412 4.143,4.673 4.063 C 4.964 3.974,19.009 3.971,19.310 4.061 M12.695 6.057 C 12.466 6.129,12.256 6.299,12.128 6.516 L 12.020 6.700 12.020 10.120 L 12.020 13.540 12.114 13.840 C 12.422 14.827,13.174 15.579,14.160 15.886 C 14.594 16.021,15.406 16.021,15.840 15.886 C 16.826 15.579,17.579 14.826,17.886 13.840 C 18.021 13.406,18.021 12.594,17.886 12.160 C 17.581 11.181,16.821 10.417,15.861 10.125 C 15.594 10.044,15.452 10.027,15.020 10.025 C 14.713 10.024,14.426 10.044,14.320 10.074 C 14.221 10.102,14.109 10.134,14.072 10.145 C 14.008 10.163,14.002 10.044,13.992 8.432 L 13.980 6.700 13.872 6.516 C 13.628 6.101,13.150 5.915,12.695 6.057 M8.503 10.040 C 7.799 10.167,7.062 10.610,6.638 11.159 C 5.465 12.681,5.971 14.844,7.697 15.681 C 8.217 15.933,8.631 16.020,9.159 15.988 C 9.919 15.942,10.593 15.643,11.088 15.134 C 11.319 14.896,11.400 14.710,11.400 14.420 C 11.400 13.854,10.985 13.435,10.425 13.435 C 10.119 13.435,9.966 13.494,9.702 13.713 C 9.244 14.094,8.687 14.089,8.299 13.701 C 7.906 13.308,7.908 12.690,8.303 12.295 C 8.479 12.119,8.768 12.000,9.020 12.000 C 9.225 12.000,9.504 12.116,9.688 12.277 C 9.902 12.465,9.981 12.506,10.221 12.560 C 10.816 12.694,11.400 12.213,11.400 11.591 C 11.400 11.290,11.321 11.106,11.088 10.866 C 10.756 10.525,10.301 10.259,9.804 10.115 C 9.500 10.027,8.796 9.987,8.503 10.040 M15.310 12.061 C 15.688 12.173,16.000 12.598,16.000 13.001 C 16.000 13.331,15.784 13.696,15.484 13.872 C 15.328 13.963,15.254 13.980,15.000 13.980 C 14.746 13.980,14.672 13.963,14.516 13.872 C 13.935 13.530,13.833 12.774,14.304 12.303 C 14.583 12.024,14.916 11.944,15.310 12.061 " stroke="none" fill-rule="evenodd" fill="black"></path></svg>