<svg xmlns="http://www.w3.org/2000/svg" width="24" height="24" viewBox="0 0 24 24" fill="none" stroke="currentColor" stroke-width="2" stroke-linecap="round" stroke-linejoin="round"><path d="M2.695 5.056 C 2.465 5.129,2.255 5.300,2.128 5.516 L 2.020 5.700 2.010 11.914 C 2.003 16.003,2.013 18.179,2.039 18.278 C 2.099 18.498,2.290 18.739,2.508 18.867 L 2.700 18.980 5.220 18.992 C 7.953 19.005,8.120 18.996,8.736 18.795 C 9.394 18.580,9.901 18.257,10.405 17.734 C 11.850 16.231,11.852 13.766,10.408 12.271 L 10.147 12.000 10.408 11.729 C 11.871 10.214,11.851 7.758,10.365 6.226 C 9.846 5.693,9.225 5.330,8.480 5.127 L 8.100 5.023 5.480 5.013 C 3.398 5.005,2.826 5.014,2.695 5.056 M15.695 5.057 C 15.466 5.129,15.256 5.299,15.128 5.516 C 15.037 5.672,15.020 5.746,15.020 6.000 C 15.020 6.256,15.036 6.328,15.131 6.489 C 15.256 6.702,15.449 6.864,15.670 6.943 C 15.888 7.021,19.112 7.021,19.330 6.943 C 19.551 6.864,19.744 6.702,19.869 6.489 C 19.964 6.328,19.980 6.256,19.980 6.000 C 19.980 5.746,19.963 5.672,19.872 5.516 C 19.740 5.293,19.533 5.128,19.290 5.055 C 19.035 4.978,15.941 4.980,15.695 5.057 M7.885 7.040 C 8.373 7.131,8.923 7.509,9.200 7.946 C 9.578 8.542,9.577 9.459,9.198 10.057 C 9.027 10.327,8.688 10.643,8.433 10.771 C 7.991 10.992,7.905 11.000,5.872 11.000 L 4.000 11.000 4.000 9.000 L 4.000 7.000 5.835 7.000 C 6.886 7.000,7.761 7.017,7.885 7.040 M16.672 8.583 C 14.829 8.916,13.364 10.424,13.059 12.300 C 12.976 12.811,12.977 15.025,13.061 15.419 C 13.402 17.030,14.530 18.295,16.074 18.798 C 16.567 18.958,16.951 19.016,17.500 19.013 C 18.738 19.006,19.834 18.532,20.708 17.627 C 21.238 17.079,21.637 16.388,21.639 16.017 C 21.640 15.799,21.543 15.526,21.404 15.357 C 21.167 15.070,20.691 14.934,20.338 15.054 C 20.045 15.154,19.902 15.290,19.662 15.698 C 19.211 16.465,18.588 16.890,17.754 17.000 C 16.565 17.159,15.375 16.346,15.059 15.160 C 15.024 15.027,15.001 14.754,15.000 14.470 L 15.000 14.000 18.090 13.998 C 20.567 13.997,21.210 13.986,21.330 13.943 C 21.550 13.864,21.744 13.702,21.866 13.493 C 22.005 13.256,22.032 12.852,21.944 12.316 C 21.669 10.628,20.525 9.284,18.891 8.726 C 18.303 8.525,17.336 8.463,16.672 8.583 M18.116 10.581 C 18.537 10.681,18.900 10.896,19.260 11.258 C 19.436 11.435,19.631 11.675,19.692 11.790 L 19.805 12.000 17.500 12.000 L 15.195 12.000 15.308 11.790 C 15.369 11.675,15.564 11.434,15.740 11.255 C 16.090 10.900,16.453 10.683,16.872 10.582 C 17.179 10.508,17.801 10.507,18.116 10.581 M7.885 13.040 C 8.373 13.131,8.923 13.509,9.200 13.946 C 9.578 14.542,9.577 15.459,9.198 16.057 C 9.027 16.327,8.688 16.643,8.433 16.771 C 7.991 16.992,7.905 17.000,5.872 17.000 L 4.000 17.000 4.000 15.000 L 4.000 13.000 5.835 13.000 C 6.886 13.000,7.761 13.017,7.885 13.040 " stroke="none" fill-rule="evenodd" fill="black"></path></svg>