<svg xmlns="http://www.w3.org/2000/svg" width="24" height="24" viewBox="0 0 24 24" fill="none" stroke="currentColor" stroke-width="2" stroke-linecap="round" stroke-linejoin="round"><path d="M10.720 3.058 C 8.204 3.383,6.036 4.438,4.419 6.125 C 4.024 6.537,3.591 7.094,3.303 7.558 C 1.713 10.129,1.587 13.147,2.958 15.789 L 3.192 16.241 2.597 18.030 C 2.217 19.171,2.001 19.880,2.000 19.985 C 2.000 20.338,2.197 20.685,2.499 20.862 C 2.834 21.058,2.886 21.052,5.280 20.539 C 6.479 20.283,7.496 20.072,7.540 20.071 C 7.584 20.069,7.818 20.145,8.060 20.239 C 9.356 20.743,10.609 20.972,12.060 20.969 C 17.078 20.960,21.310 17.582,21.937 13.086 C 22.066 12.164,22.006 11.006,21.781 10.060 C 21.021 6.864,18.270 4.220,14.787 3.337 C 13.869 3.104,13.295 3.034,12.180 3.018 C 11.457 3.008,11.012 3.020,10.720 3.058 M13.540 5.113 C 14.482 5.283,15.076 5.477,15.900 5.880 C 18.016 6.917,19.426 8.642,19.886 10.760 C 19.964 11.119,19.978 11.296,19.978 11.980 C 19.978 12.664,19.964 12.841,19.886 13.200 C 19.610 14.470,18.960 15.645,18.006 16.597 C 16.816 17.785,15.229 18.569,13.395 18.876 C 12.896 18.960,12.038 18.996,11.463 18.957 C 10.350 18.883,9.448 18.666,8.445 18.234 C 8.195 18.125,7.914 18.027,7.820 18.014 C 7.694 17.997,7.257 18.074,6.103 18.319 C 5.251 18.500,4.548 18.641,4.539 18.632 C 4.530 18.623,4.695 18.095,4.906 17.459 C 5.397 15.981,5.397 15.985,4.965 15.267 C 4.481 14.461,4.216 13.733,4.081 12.840 C 4.023 12.454,4.023 11.506,4.081 11.120 C 4.293 9.721,4.896 8.527,5.939 7.446 C 7.145 6.195,8.910 5.327,10.782 5.065 C 11.411 4.977,12.934 5.003,13.540 5.113 M10.674 10.057 C 10.594 10.088,9.798 10.601,8.904 11.198 C 7.206 12.332,7.153 12.375,7.039 12.736 C 6.931 13.080,7.084 13.557,7.374 13.778 C 7.644 13.984,8.026 14.052,8.320 13.946 C 8.397 13.918,9.002 13.533,9.664 13.091 L 10.868 12.287 11.624 13.045 C 12.110 13.532,12.443 13.832,12.556 13.887 C 12.789 14.001,13.070 14.025,13.290 13.950 C 13.532 13.867,16.688 11.757,16.796 11.606 C 16.843 11.539,16.908 11.410,16.941 11.318 C 17.210 10.556,16.448 9.789,15.690 10.057 C 15.601 10.088,14.990 10.473,14.331 10.913 L 13.132 11.713 12.376 10.955 C 11.904 10.482,11.556 10.167,11.449 10.115 C 11.233 10.010,10.867 9.983,10.674 10.057 " stroke="none" fill-rule="evenodd" fill="black"></path></svg>