<svg xmlns="http://www.w3.org/2000/svg" width="24" height="24" viewBox="0 0 24 24" fill="none" stroke="currentColor" stroke-width="2" stroke-linecap="round" stroke-linejoin="round"><path d="M11.320 2.024 C 11.243 2.033,11.000 2.059,10.780 2.083 C 10.181 2.147,9.490 2.303,8.828 2.523 C 5.775 3.540,3.386 5.990,2.434 9.078 C 1.972 10.581,1.877 12.232,2.164 13.800 C 2.727 16.878,4.705 19.518,7.505 20.928 C 8.121 21.238,8.368 21.296,8.666 21.199 C 8.867 21.133,9.089 20.973,9.198 20.815 C 9.271 20.708,11.415 15.298,11.526 14.940 C 11.579 14.771,11.575 14.508,11.518 14.331 C 11.444 14.099,11.302 13.937,10.983 13.722 C 10.328 13.280,10.022 12.732,10.022 12.000 C 10.022 11.409,10.193 11.002,10.618 10.579 C 11.381 9.821,12.628 9.820,13.382 10.577 C 13.808 11.005,13.978 11.410,13.978 12.000 C 13.978 12.732,13.672 13.280,13.017 13.722 C 12.696 13.939,12.556 14.099,12.480 14.336 C 12.368 14.685,12.405 14.801,13.598 17.839 C 14.216 19.411,14.768 20.765,14.826 20.849 C 14.896 20.950,15.016 21.042,15.184 21.125 C 15.551 21.306,15.774 21.283,16.346 21.005 C 18.701 19.860,20.528 17.835,21.397 15.407 C 21.850 14.143,22.032 12.986,21.986 11.660 C 21.936 10.206,21.619 8.930,20.983 7.620 C 19.535 4.637,16.659 2.553,13.360 2.096 C 12.947 2.039,11.595 1.991,11.320 2.024 M12.664 4.042 C 14.538 4.193,16.202 4.951,17.574 6.279 C 18.818 7.481,19.577 8.942,19.905 10.760 C 20.011 11.348,20.002 12.709,19.888 13.329 C 19.560 15.116,18.784 16.566,17.504 17.788 C 17.084 18.189,16.617 18.557,16.280 18.754 L 16.140 18.836 15.395 16.928 L 14.649 15.020 14.896 14.758 C 15.941 13.650,16.262 12.129,15.761 10.658 C 15.338 9.414,14.258 8.442,12.931 8.112 C 12.431 7.987,11.568 7.988,11.067 8.112 C 9.190 8.579,7.924 10.265,8.012 12.180 C 8.058 13.164,8.431 14.045,9.105 14.759 L 9.352 15.021 8.606 16.929 L 7.860 18.836 7.720 18.754 C 7.164 18.429,6.266 17.632,5.792 17.044 C 3.600 14.327,3.409 10.509,5.320 7.603 C 6.057 6.482,7.185 5.470,8.349 4.886 C 9.733 4.191,11.131 3.918,12.664 4.042 " stroke="none" fill-rule="evenodd" fill="black"></path></svg>