<svg xmlns="http://www.w3.org/2000/svg" width="24" height="24" viewBox="0 0 24 24" fill="none" stroke="currentColor" stroke-width="2" stroke-linecap="round" stroke-linejoin="round"><path d="M12.400 3.044 C 10.761 3.229,9.261 4.290,8.526 5.785 C 8.333 6.177,8.187 6.599,8.093 7.040 C 7.986 7.538,7.986 9.462,8.093 9.960 C 8.235 10.623,8.501 11.260,8.865 11.807 C 9.232 12.359,9.914 12.994,10.489 13.318 L 10.718 13.447 10.665 13.573 C 10.636 13.643,10.030 15.057,9.319 16.716 C 8.416 18.825,8.022 19.789,8.009 19.922 C 7.956 20.477,8.437 21.000,9.000 21.000 C 9.241 21.000,9.521 20.881,9.697 20.704 C 9.843 20.557,10.009 20.191,11.260 17.270 L 12.659 14.000 13.329 14.000 L 13.998 14.000 14.009 17.153 L 14.020 20.306 14.141 20.503 C 14.543 21.156,15.457 21.156,15.859 20.503 L 15.980 20.306 15.980 12.003 L 15.980 3.700 15.872 3.516 C 15.740 3.293,15.533 3.128,15.290 3.055 C 15.082 2.992,12.931 2.984,12.400 3.044 M14.000 8.505 L 14.000 12.009 13.210 11.990 C 12.536 11.974,12.379 11.958,12.140 11.882 C 11.161 11.569,10.387 10.783,10.112 9.822 C 10.027 9.524,10.020 9.424,10.020 8.500 C 10.020 7.576,10.027 7.476,10.112 7.178 C 10.426 6.083,11.378 5.231,12.499 5.043 C 12.609 5.025,12.992 5.007,13.350 5.005 L 14.000 5.000 14.000 8.505 " stroke="none" fill-rule="evenodd" fill="black"></path></svg>