<svg xmlns="http://www.w3.org/2000/svg" width="24" height="24" viewBox="0 0 24 24" fill="none" stroke="currentColor" stroke-width="2" stroke-linecap="round" stroke-linejoin="round"><path d="M2.689 3.059 C 2.454 3.132,2.263 3.287,2.131 3.511 C 2.021 3.698,2.020 3.708,2.028 4.320 C 2.048 5.923,2.406 9.288,2.783 11.420 C 3.828 17.320,5.644 20.479,8.260 20.943 C 9.063 21.086,10.035 20.926,10.842 20.519 L 11.065 20.407 11.257 20.527 C 11.896 20.924,12.837 21.091,13.606 20.944 C 14.977 20.681,16.244 19.691,17.500 17.900 C 18.987 15.778,20.584 12.073,21.742 8.060 C 21.972 7.265,22.005 7.109,21.988 6.910 C 21.952 6.499,21.689 6.175,21.295 6.057 C 21.053 5.984,20.926 5.985,20.693 6.064 C 20.462 6.143,20.267 6.286,20.164 6.454 C 20.121 6.523,19.967 6.994,19.821 7.500 C 19.054 10.161,18.032 12.823,17.037 14.756 C 15.781 17.196,14.525 18.641,13.400 18.941 C 13.177 19.000,12.920 19.019,12.920 18.977 C 12.920 18.964,13.065 18.796,13.242 18.602 C 15.040 16.642,16.941 13.030,18.191 9.200 C 18.587 7.988,18.931 6.660,18.985 6.135 C 19.019 5.802,18.924 5.522,18.702 5.300 C 18.340 4.937,17.795 4.907,17.377 5.225 C 17.149 5.399,17.060 5.606,16.920 6.280 C 16.478 8.411,15.355 11.396,14.119 13.725 C 13.293 15.283,12.520 16.430,11.656 17.380 L 11.372 17.693 11.263 17.456 C 10.837 16.528,10.478 14.964,10.282 13.180 C 10.088 11.410,10.035 10.190,10.006 6.720 L 9.980 3.700 9.871 3.514 C 9.479 2.848,8.521 2.848,8.129 3.514 L 8.020 3.700 8.021 6.760 C 8.022 9.791,8.049 10.725,8.182 12.320 C 8.412 15.096,8.874 17.158,9.580 18.560 L 9.720 18.838 9.490 18.909 C 9.179 19.005,8.651 19.004,8.360 18.906 C 7.076 18.475,5.925 16.338,5.125 12.900 C 4.652 10.868,4.274 8.132,4.101 5.500 C 3.994 3.863,3.982 3.750,3.884 3.547 C 3.674 3.114,3.170 2.908,2.689 3.059 " stroke="none" fill-rule="evenodd" fill="black"></path></svg>