<svg xmlns="http://www.w3.org/2000/svg" width="24" height="24" viewBox="0 0 24 24" fill="none" stroke="currentColor" stroke-width="2" stroke-linecap="round" stroke-linejoin="round"><path d="M8.580 2.096 C 8.421 2.172,7.848 2.726,5.755 4.826 C 3.473 7.116,3.120 7.485,3.059 7.652 C 2.995 7.823,2.990 7.937,3.013 8.672 C 3.125 12.289,4.186 14.841,6.122 16.150 C 6.606 16.477,7.455 16.813,8.080 16.924 C 8.245 16.954,8.641 16.978,8.960 16.978 C 9.620 16.979,9.869 16.927,10.360 16.689 C 10.766 16.493,11.331 15.929,11.628 15.425 C 11.742 15.231,11.842 15.053,11.850 15.030 C 11.859 15.003,11.975 15.026,12.162 15.091 C 12.326 15.148,12.667 15.267,12.920 15.355 C 13.437 15.536,13.941 15.646,14.792 15.764 C 15.467 15.858,15.586 15.894,15.885 16.092 C 16.803 16.701,17.189 17.718,16.906 18.780 C 16.678 19.633,15.974 20.049,14.860 19.988 C 14.143 19.949,13.693 19.713,13.617 19.336 C 13.577 19.133,13.690 19.041,14.036 18.998 C 14.391 18.953,14.633 18.825,14.802 18.591 C 15.220 18.013,14.923 17.204,14.232 17.038 C 13.984 16.978,13.532 17.014,13.188 17.120 C 12.089 17.460,11.429 18.581,11.657 19.722 C 11.873 20.804,12.686 21.572,13.951 21.890 C 14.451 22.015,15.570 22.015,16.108 21.890 C 17.367 21.597,18.245 20.862,18.708 19.714 C 18.961 19.088,19.418 16.831,19.657 15.020 C 19.898 13.204,19.975 12.072,19.978 10.340 C 19.980 9.160,19.967 8.810,19.908 8.400 C 19.688 6.863,19.286 5.879,18.568 5.115 C 18.199 4.723,17.821 4.450,17.413 4.280 C 16.971 4.095,16.666 4.042,15.839 4.002 C 14.762 3.949,14.047 3.803,13.560 3.535 C 13.319 3.402,13.256 3.345,13.013 3.040 C 12.506 2.402,12.083 2.137,11.420 2.042 C 11.266 2.020,10.609 2.001,9.960 2.001 C 8.799 2.001,8.777 2.002,8.580 2.096 M11.207 4.033 C 11.244 4.048,11.363 4.177,11.472 4.320 C 12.275 5.380,13.558 5.888,15.707 5.999 C 16.462 6.038,16.654 6.091,16.981 6.347 C 17.345 6.633,17.684 7.339,17.837 8.134 C 18.019 9.078,18.041 10.614,17.899 12.519 C 17.838 13.335,17.693 14.729,17.656 14.850 C 17.638 14.910,17.608 14.898,17.447 14.764 C 16.988 14.382,16.378 14.040,15.980 13.942 C 15.848 13.909,15.425 13.835,15.040 13.779 C 14.107 13.641,13.882 13.587,13.217 13.340 C 12.483 13.067,12.187 12.995,11.784 12.994 C 10.983 12.992,10.533 13.292,10.045 14.156 C 9.610 14.925,9.451 15.029,8.780 14.987 C 7.519 14.907,6.557 14.196,5.900 12.860 C 5.559 12.167,5.374 11.584,5.216 10.700 C 5.145 10.303,5.041 9.398,5.040 9.171 L 5.040 9.003 7.170 8.991 L 9.300 8.980 9.489 8.869 C 9.702 8.744,9.864 8.551,9.943 8.330 C 9.985 8.212,9.997 7.731,9.998 6.090 L 10.000 4.000 10.570 4.003 C 10.883 4.004,11.170 4.018,11.207 4.033 M8.000 6.220 L 8.000 7.000 7.210 7.000 L 6.421 7.000 7.200 6.220 C 7.629 5.791,7.984 5.440,7.990 5.440 C 7.995 5.440,8.000 5.791,8.000 6.220 M14.695 9.057 C 14.466 9.129,14.256 9.299,14.128 9.516 C 14.037 9.672,14.020 9.746,14.020 10.000 C 14.020 10.256,14.036 10.328,14.131 10.489 C 14.256 10.702,14.449 10.864,14.670 10.943 C 14.878 11.017,16.122 11.017,16.330 10.943 C 16.551 10.864,16.744 10.702,16.869 10.489 C 16.964 10.328,16.980 10.256,16.980 10.000 C 16.980 9.746,16.963 9.672,16.872 9.516 C 16.740 9.293,16.533 9.128,16.290 9.055 C 16.050 8.983,14.928 8.984,14.695 9.057 " stroke="none" fill-rule="evenodd" fill="black"></path></svg>