<svg xmlns="http://www.w3.org/2000/svg" width="24" height="24" viewBox="0 0 24 24" fill="none" stroke="currentColor" stroke-width="2" stroke-linecap="round" stroke-linejoin="round"><path d="M11.340 3.027 C 8.490 3.269,6.051 4.705,4.468 7.073 C 4.129 7.580,3.667 8.541,3.464 9.160 C 2.713 11.457,2.879 13.842,3.939 15.980 C 4.404 16.918,4.897 17.609,5.621 18.337 C 7.079 19.801,8.933 20.700,10.992 20.941 C 11.706 21.024,20.097 21.026,20.330 20.943 C 20.550 20.864,20.744 20.702,20.867 20.492 C 21.002 20.261,21.031 19.861,20.962 19.173 C 20.717 16.724,19.521 14.501,17.635 12.990 C 17.243 12.676,16.673 12.290,16.350 12.120 C 16.245 12.065,16.160 12.011,16.160 12.000 C 16.160 11.989,16.246 11.935,16.350 11.880 C 16.454 11.825,16.720 11.662,16.940 11.517 C 19.223 10.014,20.687 7.579,20.962 4.827 C 21.031 4.144,21.002 3.739,20.869 3.513 C 20.811 3.414,20.698 3.282,20.618 3.221 C 20.318 2.992,20.479 2.999,15.804 3.007 C 13.437 3.010,11.428 3.020,11.340 3.027 M18.896 5.170 C 18.818 5.705,18.545 6.548,18.274 7.090 C 17.352 8.933,15.678 10.291,13.725 10.777 C 13.513 10.830,13.263 10.885,13.170 10.900 L 13.000 10.927 13.000 7.964 L 13.000 5.000 15.960 5.000 L 18.921 5.000 18.896 5.170 M11.000 8.040 L 11.000 11.000 8.040 11.000 L 5.079 11.000 5.104 10.830 C 5.117 10.737,5.171 10.487,5.224 10.275 C 5.703 8.336,7.057 6.659,8.889 5.735 C 9.470 5.442,10.419 5.143,10.950 5.085 C 10.990 5.081,11.000 5.696,11.000 8.040 M11.000 15.964 L 11.000 18.927 10.830 18.900 C 8.921 18.596,7.074 17.349,6.046 15.669 C 5.588 14.921,5.214 13.930,5.104 13.170 L 5.079 13.000 8.040 13.000 L 11.000 13.000 11.000 15.964 M13.660 13.206 C 15.644 13.684,17.343 15.048,18.274 16.910 C 18.545 17.452,18.818 18.295,18.896 18.830 L 18.921 19.000 15.960 19.000 L 13.000 19.000 13.000 16.040 L 13.000 13.079 13.170 13.104 C 13.263 13.117,13.484 13.163,13.660 13.206 " stroke="none" fill-rule="evenodd" fill="black"></path></svg>