<svg xmlns="http://www.w3.org/2000/svg" width="24" height="24" viewBox="0 0 24 24" fill="none" stroke="currentColor" stroke-width="2" stroke-linecap="round" stroke-linejoin="round"><path d="M7.667 2.065 C 7.406 2.145,7.153 2.401,7.061 2.678 C 6.943 3.033,6.983 3.196,7.393 4.023 L 7.757 4.757 7.565 4.969 C 6.858 5.747,6.365 6.716,6.114 7.820 L 6.024 8.220 6.010 12.717 C 6.001 15.803,6.010 17.278,6.040 17.419 C 6.148 17.941,6.601 18.537,7.070 18.775 C 7.309 18.896,7.677 19.000,7.866 19.000 L 7.995 19.000 8.008 20.153 L 8.020 21.307 8.141 21.503 C 8.543 22.156,9.457 22.156,9.859 21.503 L 9.980 21.307 9.992 20.153 L 10.005 19.000 12.000 19.000 L 13.995 19.000 14.008 20.153 L 14.020 21.307 14.141 21.503 C 14.543 22.156,15.457 22.156,15.859 21.503 L 15.980 21.307 15.992 20.153 L 16.005 19.000 16.134 19.000 C 16.323 19.000,16.691 18.896,16.930 18.775 C 17.196 18.640,17.638 18.200,17.771 17.937 C 18.013 17.461,18.004 17.665,17.990 12.729 L 17.976 8.220 17.886 7.820 C 17.631 6.695,17.140 5.734,16.433 4.972 L 16.240 4.765 16.605 4.026 C 17.013 3.204,17.057 3.031,16.944 2.693 C 16.712 1.992,15.816 1.776,15.304 2.297 C 15.196 2.406,15.046 2.655,14.863 3.028 L 14.585 3.594 14.443 3.523 C 14.220 3.411,13.611 3.212,13.280 3.143 C 12.482 2.977,11.518 2.977,10.720 3.143 C 10.389 3.212,9.780 3.411,9.557 3.523 L 9.415 3.594 9.137 3.028 C 8.821 2.384,8.644 2.170,8.340 2.066 C 8.106 1.986,7.924 1.986,7.667 2.065 M12.605 5.058 C 14.062 5.278,15.287 6.302,15.780 7.712 L 15.874 7.980 13.937 7.990 C 12.872 7.996,11.128 7.996,10.063 7.990 L 8.126 7.980 8.220 7.712 C 8.707 6.320,9.934 5.283,11.358 5.061 C 11.816 4.990,12.144 4.989,12.605 5.058 M3.695 9.057 C 3.466 9.129,3.256 9.299,3.128 9.516 L 3.020 9.700 3.020 13.003 L 3.020 16.306 3.141 16.503 C 3.543 17.156,4.457 17.156,4.859 16.503 L 4.980 16.306 4.980 13.003 L 4.980 9.700 4.872 9.516 C 4.628 9.101,4.150 8.915,3.695 9.057 M19.695 9.057 C 19.466 9.129,19.256 9.299,19.128 9.516 L 19.020 9.700 19.020 13.003 L 19.020 16.306 19.141 16.503 C 19.543 17.156,20.457 17.156,20.859 16.503 L 20.980 16.306 20.980 13.003 L 20.980 9.700 20.872 9.516 C 20.628 9.101,20.150 8.915,19.695 9.057 M16.000 13.500 L 16.000 17.000 12.000 17.000 L 8.000 17.000 8.000 13.500 L 8.000 10.000 12.000 10.000 L 16.000 10.000 16.000 13.500 " stroke="none" fill-rule="evenodd" fill="black"></path></svg>