<svg xmlns="http://www.w3.org/2000/svg" width="24" height="24" viewBox="0 0 24 24" fill="none" stroke="currentColor" stroke-width="2" stroke-linecap="round" stroke-linejoin="round"><path d="M11.647 3.067 C 11.552 3.101,11.407 3.194,11.324 3.274 C 11.167 3.426,2.150 18.411,2.054 18.680 C 1.933 19.018,2.033 19.435,2.299 19.701 C 2.625 20.028,1.733 20.000,12.017 19.998 C 21.925 19.996,21.322 20.010,21.619 19.783 C 21.917 19.556,22.071 19.081,21.960 18.736 C 21.932 18.650,19.850 15.147,17.333 10.951 C 13.916 5.255,12.722 3.295,12.620 3.218 C 12.351 3.012,11.970 2.953,11.647 3.067 M15.635 12.007 C 17.596 15.277,19.200 17.964,19.200 17.977 C 19.200 17.989,15.952 18.000,11.982 18.000 L 4.764 18.000 8.372 11.983 C 11.066 7.491,11.991 5.978,12.025 6.013 C 12.049 6.039,13.674 8.736,15.635 12.007 " stroke="none" fill-rule="evenodd" fill="black"></path></svg>