<svg xmlns="http://www.w3.org/2000/svg" width="24" height="24" viewBox="0 0 24 24" fill="none" stroke="currentColor" stroke-width="2" stroke-linecap="round" stroke-linejoin="round"><path d="M2.695 8.057 C 2.466 8.129,2.256 8.299,2.128 8.516 C 2.036 8.672,2.020 8.746,2.020 9.003 C 2.020 9.271,2.034 9.329,2.141 9.503 C 2.288 9.742,2.578 9.946,2.821 9.982 L 3.000 10.009 3.002 12.595 C 3.003 14.650,3.014 15.211,3.057 15.330 C 3.136 15.551,3.298 15.744,3.511 15.869 C 3.692 15.976,3.722 15.980,4.240 15.980 C 4.842 15.980,4.933 15.953,5.208 15.690 C 5.337 15.566,5.513 15.170,6.664 12.405 C 7.544 10.292,7.979 9.201,7.991 9.075 C 8.078 8.178,6.942 7.653,6.303 8.295 C 6.161 8.439,6.067 8.636,5.580 9.807 L 5.020 11.155 5.000 9.927 L 4.980 8.700 4.872 8.516 C 4.740 8.293,4.533 8.128,4.290 8.055 C 4.050 7.983,2.928 7.984,2.695 8.057 M9.670 8.061 C 9.588 8.091,9.456 8.164,9.378 8.224 C 9.071 8.458,9.090 8.379,8.512 11.848 C 8.010 14.861,7.984 15.044,8.033 15.227 C 8.215 15.914,8.972 16.215,9.548 15.828 C 9.932 15.569,9.896 15.709,10.479 12.211 C 10.765 10.490,11.000 9.031,11.000 8.968 C 11.000 8.757,10.872 8.470,10.701 8.299 C 10.431 8.029,10.018 7.933,9.670 8.061 M14.294 8.042 C 13.575 8.169,12.870 8.704,12.541 9.371 C 12.215 10.029,12.106 11.175,12.321 11.680 C 12.622 12.387,13.233 12.872,13.953 12.974 C 14.129 13.000,14.283 13.029,14.294 13.040 C 14.321 13.068,14.205 13.677,14.154 13.770 C 14.078 13.913,13.875 14.000,13.615 14.000 C 13.383 14.000,13.364 13.993,13.266 13.864 C 13.010 13.529,12.456 13.420,12.044 13.625 C 11.372 13.960,11.326 14.930,11.952 15.556 C 12.339 15.943,12.620 16.018,13.583 15.991 C 14.376 15.968,14.642 15.898,15.116 15.583 C 15.818 15.116,16.113 14.553,16.285 13.357 C 16.381 12.687,16.178 12.089,15.690 11.602 C 15.347 11.260,15.012 11.093,14.539 11.028 C 14.150 10.975,14.164 10.999,14.260 10.541 C 14.346 10.139,14.465 10.028,14.836 10.007 L 15.112 9.991 15.266 10.162 C 15.659 10.598,16.337 10.603,16.724 10.173 C 16.934 9.940,17.016 9.697,16.990 9.384 C 16.948 8.862,16.589 8.355,16.104 8.135 C 15.871 8.029,15.828 8.023,15.180 8.014 C 14.806 8.009,14.407 8.021,14.294 8.042 M19.700 8.049 C 19.486 8.126,19.283 8.277,19.186 8.431 C 19.134 8.513,18.510 9.976,17.799 11.681 C 16.633 14.479,16.508 14.801,16.508 15.000 C 16.509 15.401,16.721 15.725,17.100 15.905 C 17.639 16.160,18.231 15.879,18.480 15.250 L 18.579 15.000 19.285 15.000 L 19.991 15.000 20.018 15.179 C 20.054 15.422,20.258 15.712,20.497 15.859 C 20.671 15.966,20.729 15.980,21.000 15.980 C 21.271 15.980,21.329 15.966,21.502 15.859 C 21.734 15.715,21.899 15.492,21.968 15.227 C 22.015 15.045,21.988 14.850,21.488 11.848 C 20.910 8.380,20.929 8.458,20.623 8.225 C 20.352 8.019,19.982 7.948,19.700 8.049 M19.636 12.910 C 19.639 12.980,19.618 13.000,19.540 13.000 C 19.421 13.000,19.417 12.970,19.510 12.777 C 19.576 12.638,19.580 12.635,19.606 12.726 C 19.620 12.778,19.634 12.861,19.636 12.910 " stroke="none" fill-rule="evenodd" fill="black"></path></svg>