<svg xmlns="http://www.w3.org/2000/svg" width="24" height="24" viewBox="0 0 24 24" fill="none" stroke="currentColor" stroke-width="2" stroke-linecap="round" stroke-linejoin="round"><path d="M2.664 5.063 C 2.436 5.146,2.257 5.297,2.131 5.511 L 2.020 5.700 2.010 11.914 C 2.003 16.003,2.013 18.179,2.039 18.278 C 2.178 18.792,2.788 19.121,3.289 18.950 C 3.386 18.917,4.491 18.207,5.743 17.372 C 6.995 16.538,8.040 15.843,8.065 15.828 C 8.093 15.812,8.698 16.717,9.678 18.241 C 10.669 19.783,11.294 20.717,11.376 20.780 C 11.749 21.064,12.248 21.066,12.617 20.785 C 12.709 20.715,13.376 19.712,14.667 17.701 C 15.719 16.063,16.593 14.721,16.609 14.721 C 16.624 14.720,17.515 15.208,18.589 15.805 C 19.662 16.402,20.618 16.918,20.714 16.951 C 21.074 17.074,21.548 16.927,21.783 16.619 C 22.007 16.327,21.996 16.592,21.998 11.017 C 22.000 5.211,22.022 5.629,21.697 5.303 C 21.365 4.972,22.268 5.000,11.983 5.003 C 4.135 5.005,2.798 5.014,2.664 5.063 M15.234 8.644 L 12.769 10.287 9.834 8.658 C 8.220 7.762,6.893 7.023,6.883 7.015 C 6.874 7.007,9.304 7.000,12.283 7.000 L 17.700 7.000 15.234 8.644 M8.520 10.210 C 9.785 10.913,10.834 11.500,10.851 11.517 C 10.875 11.539,9.813 12.272,8.796 12.934 L 8.692 13.002 7.376 10.955 C 6.652 9.830,6.053 8.892,6.045 8.871 C 6.027 8.823,5.802 8.701,8.520 10.210 M5.594 11.888 C 6.367 13.091,7.000 14.090,6.999 14.108 C 6.998 14.132,4.803 15.614,4.116 16.054 L 4.000 16.128 4.000 12.775 L 4.000 9.421 4.094 9.561 C 4.146 9.637,4.821 10.684,5.594 11.888 M19.984 14.270 C 19.975 14.279,19.454 14.001,18.827 13.653 L 17.687 13.020 17.774 12.877 C 17.821 12.799,18.337 11.993,18.920 11.087 L 19.980 9.440 19.990 11.846 C 19.996 13.170,19.993 14.260,19.984 14.270 M16.759 10.746 C 16.338 11.403,15.972 11.961,15.946 11.986 C 15.911 12.020,15.759 11.952,15.327 11.711 C 14.958 11.504,14.768 11.376,14.793 11.351 C 14.856 11.288,17.499 9.529,17.513 9.541 C 17.520 9.547,17.180 10.089,16.759 10.746 M13.849 13.171 C 14.371 13.462,14.802 13.716,14.806 13.735 C 14.815 13.772,12.033 18.119,12.000 18.119 C 11.973 18.119,9.800 14.732,9.801 14.692 C 9.802 14.654,12.801 12.646,12.860 12.644 C 12.882 12.642,13.327 12.880,13.849 13.171 " stroke="none" fill-rule="evenodd" fill="black"></path></svg>