<svg xmlns="http://www.w3.org/2000/svg" width="24" height="24" viewBox="0 0 24 24" fill="none" stroke="currentColor" stroke-width="2" stroke-linecap="round" stroke-linejoin="round"><path d="M7.400 3.044 C 5.761 3.229,4.261 4.290,3.526 5.785 C 3.333 6.177,3.187 6.599,3.093 7.040 C 3.025 7.358,3.020 7.684,3.020 12.000 C 3.020 16.316,3.025 16.642,3.093 16.960 C 3.526 18.984,5.016 20.474,7.040 20.907 C 7.358 20.975,7.684 20.980,12.000 20.980 C 16.316 20.980,16.642 20.975,16.960 20.907 C 18.488 20.580,19.748 19.630,20.433 18.288 C 20.662 17.839,20.805 17.439,20.907 16.960 C 20.975 16.642,20.980 16.316,20.980 12.000 C 20.980 7.684,20.975 7.358,20.907 7.040 C 20.625 5.721,19.863 4.576,18.800 3.874 C 18.046 3.375,17.396 3.135,16.552 3.043 C 16.084 2.991,7.855 2.993,7.400 3.044 M16.861 5.121 C 17.836 5.429,18.613 6.217,18.888 7.178 L 18.980 7.500 18.980 12.000 L 18.980 16.500 18.888 16.822 C 18.610 17.792,17.831 18.577,16.840 18.886 L 16.540 18.980 12.000 18.980 L 7.460 18.980 7.160 18.886 C 6.169 18.577,5.390 17.792,5.112 16.822 L 5.020 16.500 5.020 12.000 L 5.020 7.500 5.112 7.178 C 5.426 6.083,6.374 5.234,7.499 5.043 C 7.609 5.024,9.689 5.011,12.120 5.014 L 16.540 5.020 16.861 5.121 M7.670 8.061 C 7.448 8.142,7.250 8.309,7.128 8.516 C 7.036 8.672,7.020 8.745,7.021 9.000 C 7.021 9.213,7.043 9.341,7.095 9.440 C 7.136 9.517,7.711 10.125,8.374 10.790 L 9.578 12.000 8.374 13.210 C 7.711 13.876,7.138 14.481,7.101 14.555 C 6.872 15.009,7.056 15.601,7.508 15.867 C 7.673 15.964,7.742 15.980,8.000 15.979 C 8.212 15.979,8.341 15.957,8.440 15.905 C 8.632 15.804,11.739 12.704,11.873 12.480 C 11.964 12.328,11.980 12.254,11.980 12.000 C 11.980 11.746,11.963 11.672,11.873 11.520 C 11.814 11.421,11.040 10.618,10.153 9.736 C 8.714 8.305,8.519 8.124,8.343 8.066 C 8.108 7.987,7.875 7.986,7.670 8.061 M12.695 14.057 C 12.466 14.129,12.256 14.299,12.128 14.516 C 12.037 14.672,12.020 14.746,12.020 15.000 C 12.020 15.256,12.036 15.328,12.131 15.489 C 12.256 15.702,12.449 15.864,12.670 15.943 C 12.888 16.021,16.112 16.021,16.330 15.943 C 16.551 15.864,16.744 15.702,16.869 15.489 C 16.964 15.328,16.980 15.256,16.980 15.000 C 16.980 14.746,16.963 14.672,16.872 14.516 C 16.740 14.293,16.533 14.128,16.290 14.055 C 16.035 13.978,12.941 13.980,12.695 14.057 " stroke="none" fill-rule="evenodd" fill="black"></path></svg>