<svg xmlns="http://www.w3.org/2000/svg" width="24" height="24" viewBox="0 0 24 24" fill="none" stroke="currentColor" stroke-width="2" stroke-linecap="round" stroke-linejoin="round"><path d="M7.400 3.044 C 5.761 3.229,4.261 4.290,3.526 5.785 C 3.333 6.177,3.187 6.599,3.093 7.040 C 3.025 7.358,3.020 7.684,3.020 12.000 C 3.020 16.316,3.025 16.642,3.093 16.960 C 3.526 18.984,5.016 20.474,7.040 20.907 C 7.358 20.975,7.684 20.980,12.000 20.980 C 16.316 20.980,16.642 20.975,16.960 20.907 C 18.488 20.580,19.748 19.630,20.433 18.288 C 20.662 17.839,20.805 17.439,20.907 16.960 C 20.975 16.642,20.980 16.316,20.980 12.000 C 20.980 7.684,20.975 7.358,20.907 7.040 C 20.625 5.721,19.863 4.576,18.800 3.874 C 18.046 3.375,17.396 3.135,16.552 3.043 C 16.084 2.991,7.855 2.993,7.400 3.044 M16.861 5.121 C 17.836 5.429,18.613 6.217,18.888 7.178 L 18.980 7.500 18.980 12.000 L 18.980 16.500 18.888 16.822 C 18.610 17.792,17.831 18.577,16.840 18.886 L 16.540 18.980 12.000 18.980 L 7.460 18.980 7.160 18.886 C 6.169 18.577,5.390 17.792,5.112 16.822 L 5.020 16.500 5.020 12.000 L 5.020 7.500 5.112 7.178 C 5.426 6.083,6.374 5.234,7.499 5.043 C 7.609 5.024,9.689 5.011,12.120 5.014 L 16.540 5.020 16.861 5.121 M8.695 7.057 C 8.467 7.128,8.256 7.299,8.131 7.513 C 7.981 7.768,7.963 8.196,8.079 8.759 C 8.360 10.122,9.244 11.193,10.512 11.704 C 12.560 12.529,14.874 11.540,15.705 9.484 C 16.014 8.720,16.083 7.877,15.868 7.510 C 15.648 7.135,15.207 6.941,14.786 7.035 C 14.520 7.095,14.270 7.274,14.137 7.501 C 14.061 7.631,14.026 7.768,13.997 8.047 C 13.947 8.537,13.875 8.773,13.688 9.062 C 13.006 10.117,11.599 10.318,10.681 9.493 C 10.423 9.262,10.181 8.901,10.098 8.623 C 10.065 8.511,10.021 8.253,10.001 8.048 C 9.975 7.768,9.941 7.635,9.865 7.505 C 9.628 7.101,9.145 6.916,8.695 7.057 " stroke="none" fill-rule="evenodd" fill="black"></path></svg>