<svg xmlns="http://www.w3.org/2000/svg" width="24" height="24" viewBox="0 0 24 24" fill="none" stroke="currentColor" stroke-width="2" stroke-linecap="round" stroke-linejoin="round"><path d="M5.499 3.043 C 4.380 3.233,3.461 4.048,3.114 5.160 L 3.020 5.460 3.020 12.000 L 3.020 18.540 3.114 18.840 C 3.422 19.827,4.173 20.578,5.160 20.886 L 5.460 20.980 12.000 20.980 L 18.540 20.980 18.840 20.886 C 19.827 20.578,20.578 19.827,20.886 18.840 L 20.980 18.540 20.980 12.000 L 20.980 5.460 20.886 5.160 C 20.581 4.182,19.832 3.428,18.861 3.121 L 18.540 3.020 12.120 3.014 C 8.589 3.011,5.609 3.024,5.499 3.043 M18.310 5.061 C 18.589 5.144,18.856 5.411,18.939 5.690 C 18.992 5.869,19.000 6.651,19.000 12.001 C 19.000 17.059,18.991 18.139,18.945 18.290 C 18.872 18.533,18.707 18.740,18.484 18.872 L 18.300 18.980 12.000 18.980 L 5.700 18.980 5.516 18.872 C 5.303 18.747,5.141 18.550,5.058 18.316 C 4.968 18.060,4.971 5.993,5.061 5.690 C 5.140 5.421,5.412 5.143,5.673 5.063 C 5.963 4.974,18.010 4.972,18.310 5.061 M7.695 7.057 C 7.466 7.129,7.256 7.299,7.128 7.516 C 7.036 7.672,7.020 7.745,7.021 8.000 C 7.022 8.332,7.101 8.533,7.306 8.728 C 7.785 9.181,8.580 9.046,8.893 8.460 C 9.025 8.211,9.015 7.760,8.872 7.516 C 8.628 7.101,8.150 6.915,7.695 7.057 M7.695 10.057 C 7.466 10.129,7.256 10.299,7.128 10.516 L 7.020 10.700 7.020 13.503 L 7.020 16.306 7.141 16.503 C 7.543 17.156,8.457 17.156,8.859 16.503 L 8.980 16.306 8.980 13.503 L 8.980 10.700 8.872 10.516 C 8.628 10.101,8.150 9.915,7.695 10.057 M11.695 10.057 C 11.466 10.129,11.256 10.299,11.128 10.516 L 11.020 10.700 11.020 13.503 L 11.020 16.306 11.141 16.503 C 11.543 17.156,12.457 17.156,12.859 16.503 L 12.980 16.306 13.000 14.523 C 13.022 12.523,13.014 12.582,13.321 12.283 C 13.490 12.120,13.777 12.000,14.000 12.000 C 14.223 12.000,14.510 12.120,14.679 12.283 C 14.986 12.582,14.978 12.523,15.000 14.523 L 15.020 16.306 15.141 16.503 C 15.543 17.156,16.457 17.156,16.859 16.503 L 16.980 16.306 16.980 14.383 C 16.980 12.478,16.979 12.457,16.886 12.160 C 16.705 11.578,16.391 11.107,15.911 10.695 C 15.133 10.028,14.012 9.830,12.983 10.179 L 12.700 10.274 12.560 10.181 C 12.299 10.005,11.997 9.962,11.695 10.057 " stroke="none" fill-rule="evenodd" fill="black"></path></svg>