<svg xmlns="http://www.w3.org/2000/svg" width="24" height="24" viewBox="0 0 24 24" fill="none" stroke="currentColor" stroke-width="2" stroke-linecap="round" stroke-linejoin="round"><path d="M9.680 3.037 C 9.232 3.174,8.957 3.539,8.955 4.000 C 8.954 4.217,9.058 4.482,10.517 7.959 C 11.377 10.008,12.080 11.699,12.080 11.717 C 12.080 11.734,11.956 11.769,11.805 11.794 C 11.174 11.898,10.195 12.305,9.731 12.656 C 9.331 12.960,8.978 13.393,8.744 13.867 C 8.333 14.700,8.299 15.676,8.654 16.419 C 9.064 17.276,9.751 17.783,10.737 17.958 C 11.898 18.163,13.149 17.648,14.163 16.545 C 14.880 15.766,15.160 15.183,15.163 14.463 C 15.166 13.927,15.058 13.511,14.728 12.780 C 14.628 12.560,13.851 10.724,13.001 8.700 L 11.455 5.020 13.397 5.000 C 15.573 4.978,15.497 4.988,15.793 4.682 C 16.177 4.286,16.169 3.695,15.774 3.300 C 15.465 2.991,15.556 3.000,12.483 3.003 C 10.996 3.005,9.735 3.021,9.680 3.037 M6.548 6.061 C 6.333 6.140,6.170 6.266,6.064 6.434 C 5.827 6.813,3.136 12.087,2.928 12.580 C 1.887 15.058,1.727 17.140,2.444 18.864 C 2.604 19.247,2.987 19.822,3.312 20.167 C 4.038 20.936,5.097 21.485,6.420 21.777 C 7.325 21.977,7.392 21.980,11.660 21.980 C 15.286 21.980,15.707 21.973,16.160 21.909 C 19.815 21.387,21.871 19.528,21.986 16.640 C 22.041 15.260,21.652 13.783,20.770 12.020 C 20.518 11.518,17.582 6.645,17.358 6.359 C 17.147 6.089,16.681 5.943,16.332 6.037 C 15.799 6.180,15.469 6.805,15.654 7.320 C 15.681 7.398,16.395 8.595,17.239 9.980 C 19.125 13.076,19.492 13.798,19.806 15.038 C 20.450 17.578,19.411 19.171,16.717 19.775 C 15.762 19.990,15.525 20.000,11.629 20.000 C 7.959 20.000,7.614 19.988,6.891 19.839 C 4.427 19.331,3.527 17.662,4.238 14.920 C 4.534 13.778,4.702 13.406,6.411 10.103 L 7.860 7.300 7.860 7.000 C 7.860 6.744,7.844 6.672,7.749 6.511 C 7.503 6.093,6.988 5.900,6.548 6.061 M12.950 13.730 C 13.032 13.834,13.160 14.249,13.160 14.412 C 13.160 14.624,12.978 14.908,12.603 15.283 C 12.264 15.622,11.964 15.822,11.646 15.921 C 11.083 16.096,10.612 15.944,10.457 15.538 C 10.322 15.184,10.499 14.657,10.864 14.323 C 11.188 14.028,11.883 13.775,12.560 13.707 C 12.850 13.678,12.911 13.681,12.950 13.730 " stroke="none" fill-rule="evenodd" fill="black"></path></svg>