<svg xmlns="http://www.w3.org/2000/svg" width="24" height="24" viewBox="0 0 24 24" fill="none" stroke="currentColor" stroke-width="2" stroke-linecap="round" stroke-linejoin="round"><path d="M9.695 2.057 C 9.466 2.129,9.256 2.299,9.128 2.516 L 9.020 2.700 9.000 4.745 L 8.980 6.791 7.409 5.919 C 5.770 5.010,5.635 4.952,5.312 5.021 C 4.787 5.135,4.412 5.673,4.517 6.163 C 4.572 6.420,4.640 6.549,4.807 6.708 C 4.985 6.879,9.527 9.402,9.773 9.466 C 10.119 9.557,10.477 9.446,10.727 9.169 C 11.015 8.850,11.004 9.003,10.991 5.680 L 10.980 2.700 10.872 2.516 C 10.628 2.101,10.150 1.915,9.695 2.057 M13.695 2.057 C 13.466 2.129,13.256 2.299,13.128 2.516 L 13.020 2.700 13.009 5.680 C 12.996 9.003,12.985 8.850,13.273 9.169 C 13.523 9.446,13.881 9.557,14.227 9.466 C 14.473 9.402,19.015 6.879,19.193 6.708 C 19.360 6.549,19.428 6.420,19.483 6.163 C 19.588 5.673,19.213 5.135,18.688 5.021 C 18.365 4.952,18.230 5.010,16.591 5.919 L 15.020 6.791 15.000 4.745 L 14.980 2.700 14.872 2.516 C 14.628 2.101,14.150 1.915,13.695 2.057 M3.049 8.622 C 2.717 8.789,2.509 9.118,2.505 9.480 C 2.502 9.781,2.657 10.114,2.874 10.271 C 2.963 10.335,3.684 10.746,4.476 11.184 C 5.269 11.622,5.918 11.989,5.918 12.000 C 5.918 12.011,5.268 12.380,4.473 12.820 C 3.678 13.260,2.956 13.671,2.870 13.733 C 2.658 13.885,2.502 14.221,2.505 14.520 C 2.511 15.140,3.123 15.619,3.713 15.465 C 4.010 15.388,8.539 12.868,8.725 12.677 C 8.884 12.513,9.000 12.227,9.000 12.000 C 9.000 11.772,8.884 11.487,8.725 11.325 C 8.627 11.224,7.809 10.749,6.202 9.858 L 3.824 8.541 3.542 8.528 C 3.300 8.517,3.230 8.530,3.049 8.622 M20.100 8.595 C 20.012 8.636,18.914 9.238,17.660 9.935 C 16.009 10.851,15.345 11.240,15.252 11.345 C 14.887 11.755,14.946 12.456,15.371 12.774 C 15.442 12.827,16.540 13.447,17.812 14.152 C 19.313 14.985,20.190 15.448,20.313 15.475 C 20.901 15.601,21.489 15.126,21.495 14.520 C 21.498 14.221,21.342 13.885,21.130 13.733 C 21.044 13.671,20.322 13.260,19.527 12.820 C 18.732 12.380,18.082 12.011,18.082 12.000 C 18.082 11.989,18.731 11.622,19.524 11.184 C 20.316 10.746,21.037 10.335,21.126 10.271 C 21.343 10.114,21.498 9.781,21.495 9.477 C 21.491 9.090,21.245 8.738,20.869 8.581 C 20.669 8.498,20.298 8.504,20.100 8.595 M11.641 10.069 C 11.503 10.118,11.321 10.271,10.847 10.736 C 10.095 11.475,10.020 11.589,10.021 12.000 C 10.021 12.214,10.043 12.340,10.096 12.440 C 10.199 12.634,11.300 13.743,11.520 13.873 C 11.672 13.963,11.747 13.980,12.000 13.980 C 12.253 13.980,12.328 13.963,12.480 13.873 C 12.700 13.743,13.801 12.634,13.904 12.440 C 13.957 12.340,13.979 12.214,13.979 12.000 C 13.980 11.590,13.905 11.475,13.154 10.737 C 12.648 10.240,12.505 10.122,12.343 10.067 C 12.102 9.985,11.878 9.986,11.641 10.069 M9.660 14.558 C 9.392 14.667,4.916 17.190,4.807 17.294 C 4.641 17.451,4.572 17.580,4.517 17.837 C 4.460 18.104,4.544 18.400,4.743 18.632 C 4.931 18.853,5.158 18.966,5.460 18.990 C 5.695 19.009,5.718 19.002,6.162 18.769 C 6.414 18.637,7.151 18.233,7.800 17.871 L 8.980 17.213 9.000 19.259 L 9.020 21.306 9.141 21.503 C 9.543 22.156,10.457 22.156,10.859 21.503 L 10.980 21.306 10.991 18.323 C 11.004 14.993,11.016 15.151,10.724 14.828 C 10.527 14.608,10.320 14.521,10.000 14.523 C 9.857 14.524,9.704 14.540,9.660 14.558 M13.580 14.593 C 13.376 14.688,13.150 14.938,13.064 15.164 C 13.004 15.324,12.998 15.614,13.009 18.323 L 13.020 21.306 13.141 21.503 C 13.543 22.156,14.457 22.156,14.859 21.503 L 14.980 21.306 15.000 19.259 L 15.020 17.213 16.200 17.871 C 16.849 18.233,17.586 18.637,17.838 18.769 C 18.282 19.002,18.305 19.009,18.540 18.990 C 18.842 18.966,19.069 18.853,19.257 18.632 C 19.604 18.228,19.577 17.657,19.193 17.294 C 19.120 17.224,17.998 16.577,16.700 15.855 L 14.340 14.543 14.040 14.530 C 13.811 14.521,13.702 14.535,13.580 14.593 " stroke="none" fill-rule="evenodd" fill="black"></path></svg>