<svg xmlns="http://www.w3.org/2000/svg" width="24" height="24" viewBox="0 0 24 24" fill="none" stroke="currentColor" stroke-width="2" stroke-linecap="round" stroke-linejoin="round"><path d="M11.773 2.036 C 11.703 2.054,11.568 2.109,11.473 2.159 C 11.292 2.253,8.187 3.994,6.940 4.700 C 6.544 4.925,5.583 5.466,4.804 5.904 C 4.025 6.341,3.339 6.747,3.280 6.807 C 3.220 6.866,3.138 6.983,3.096 7.067 C 3.023 7.214,3.020 7.397,3.010 11.951 C 2.999 16.662,2.999 16.684,3.082 16.876 C 3.128 16.982,3.231 17.132,3.312 17.209 C 3.443 17.334,11.325 21.802,11.669 21.946 C 11.740 21.976,11.889 22.000,12.000 22.000 C 12.111 22.000,12.260 21.976,12.331 21.946 C 12.637 21.818,20.553 17.338,20.674 17.225 C 20.747 17.156,20.846 17.028,20.894 16.940 L 20.980 16.780 20.980 12.000 C 20.980 7.387,20.977 7.215,20.904 7.067 C 20.862 6.983,20.780 6.866,20.720 6.807 C 20.661 6.747,19.975 6.341,19.196 5.904 C 18.417 5.466,17.456 4.925,17.060 4.700 C 15.513 3.824,12.665 2.229,12.487 2.140 C 12.275 2.034,11.963 1.988,11.773 2.036 M12.966 4.690 C 13.489 4.981,13.913 5.235,13.907 5.254 C 13.902 5.272,13.471 5.528,12.949 5.821 L 12.000 6.355 11.051 5.821 C 10.529 5.528,10.098 5.272,10.093 5.254 C 10.085 5.227,11.938 4.163,11.997 4.161 C 12.006 4.160,12.442 4.399,12.966 4.690 M9.743 7.380 C 10.701 7.920,11.551 8.389,11.632 8.424 C 11.822 8.504,12.178 8.504,12.368 8.424 C 12.449 8.389,13.299 7.920,14.257 7.380 L 16.000 6.400 16.977 6.949 C 17.515 7.252,17.951 7.502,17.947 7.506 C 17.889 7.564,12.010 10.839,11.979 10.831 C 11.954 10.825,10.608 10.074,8.987 9.161 C 6.274 7.635,6.046 7.499,6.130 7.453 C 6.179 7.426,6.616 7.179,7.100 6.905 C 7.584 6.630,7.985 6.404,7.990 6.402 C 7.996 6.401,8.785 6.841,9.743 7.380 M8.023 10.910 L 10.998 12.580 10.999 15.931 L 11.000 19.281 10.810 19.182 C 10.705 19.128,10.260 18.880,9.820 18.631 L 9.020 18.179 9.000 15.960 L 8.980 13.740 8.887 13.551 C 8.836 13.447,8.738 13.315,8.669 13.257 C 8.601 13.199,7.747 12.754,6.772 12.266 L 5.000 11.380 5.000 10.310 C 5.000 9.722,5.011 9.240,5.024 9.240 C 5.037 9.240,6.387 9.992,8.023 10.910 M19.000 10.310 L 19.000 11.380 17.228 12.266 C 16.253 12.754,15.399 13.199,15.331 13.257 C 15.262 13.315,15.164 13.447,15.113 13.551 L 15.020 13.740 15.000 15.960 L 14.980 18.179 14.180 18.631 C 13.740 18.880,13.295 19.128,13.190 19.182 L 13.000 19.281 13.001 15.931 L 13.002 12.580 15.971 10.911 C 17.604 9.994,18.953 9.242,18.970 9.241 C 18.987 9.241,19.000 9.722,19.000 10.310 M6.020 14.130 L 7.000 14.619 7.000 15.833 L 7.000 17.046 6.790 16.926 C 6.675 16.860,6.229 16.609,5.800 16.367 L 5.020 15.927 5.009 14.784 C 5.004 14.155,5.008 13.640,5.019 13.640 C 5.030 13.640,5.481 13.860,6.020 14.130 M18.991 14.784 L 18.980 15.927 18.200 16.367 C 17.771 16.609,17.326 16.860,17.210 16.926 L 17.000 17.046 17.000 15.833 L 17.000 14.619 17.970 14.132 C 18.503 13.864,18.954 13.644,18.971 13.642 C 18.987 13.641,18.996 14.155,18.991 14.784 " stroke="none" fill-rule="evenodd" fill="black"></path></svg>