<svg xmlns="http://www.w3.org/2000/svg" width="24" height="24" viewBox="0 0 24 24" fill="none" stroke="currentColor" stroke-width="2" stroke-linecap="round" stroke-linejoin="round"><path d="M9.080 2.024 C 6.976 2.095,5.764 2.305,4.837 2.760 C 3.386 3.472,2.570 4.654,2.243 6.520 C 2.048 7.636,2.001 8.699,2.001 11.980 C 2.001 15.298,2.048 16.365,2.243 17.480 C 2.488 18.878,3.012 19.894,3.855 20.605 C 4.793 21.397,5.886 21.755,7.900 21.928 C 8.747 22.001,15.253 22.001,16.100 21.928 C 18.285 21.740,19.438 21.323,20.381 20.381 C 21.323 19.438,21.740 18.285,21.928 16.100 C 22.001 15.253,22.001 8.747,21.928 7.900 C 21.740 5.715,21.323 4.561,20.381 3.620 C 19.435 2.674,18.269 2.256,16.080 2.078 C 15.581 2.037,9.979 1.994,9.080 2.024 M15.140 4.041 C 17.479 4.139,18.392 4.393,19.057 5.128 C 19.562 5.686,19.795 6.474,19.927 8.080 C 19.999 8.949,19.999 15.051,19.927 15.920 C 19.795 17.526,19.562 18.314,19.057 18.872 C 18.420 19.577,17.494 19.852,15.400 19.959 C 14.390 20.011,9.610 20.011,8.600 19.959 C 6.304 19.842,5.327 19.502,4.738 18.615 C 4.144 17.720,4.000 16.432,4.000 12.000 C 4.000 7.142,4.171 5.949,4.990 5.074 C 5.611 4.409,6.610 4.132,8.701 4.044 C 9.829 3.997,14.039 3.995,15.140 4.041 M9.848 7.244 C 9.465 7.309,9.152 7.528,8.860 7.939 C 8.507 8.432,8.349 8.883,7.080 12.991 C 6.204 15.829,6.196 15.863,6.360 16.211 C 6.511 16.533,6.920 16.800,7.260 16.800 C 7.440 16.800,7.750 16.676,7.907 16.542 C 8.123 16.357,8.178 16.229,8.521 15.110 L 8.813 14.160 10.104 14.160 L 11.396 14.160 11.541 14.630 C 12.069 16.343,12.089 16.392,12.327 16.571 C 12.472 16.681,12.789 16.800,12.934 16.800 C 12.984 16.800,13.123 16.771,13.243 16.736 C 13.668 16.611,14.014 16.091,13.941 15.687 C 13.908 15.506,12.363 10.490,12.035 9.500 C 11.732 8.582,11.471 8.041,11.184 7.731 C 10.874 7.396,10.652 7.286,10.160 7.222 C 10.105 7.214,9.965 7.225,9.848 7.244 M15.567 7.243 C 15.313 7.293,15.043 7.505,14.911 7.757 C 14.809 7.951,14.800 8.006,14.800 8.410 C 14.800 8.938,14.845 9.109,15.046 9.337 C 15.259 9.579,15.543 9.695,15.860 9.670 C 16.145 9.647,16.304 9.574,16.495 9.377 C 16.710 9.155,16.771 8.988,16.792 8.558 C 16.805 8.273,16.793 8.116,16.743 7.944 C 16.595 7.437,16.096 7.139,15.567 7.243 M15.613 10.079 C 15.365 10.117,15.082 10.311,14.941 10.538 L 14.820 10.734 14.820 13.420 L 14.820 16.106 14.940 16.298 C 15.295 16.865,16.019 16.953,16.485 16.486 C 16.806 16.165,16.800 16.226,16.800 13.420 C 16.800 10.661,16.803 10.692,16.514 10.378 C 16.289 10.135,15.961 10.025,15.613 10.079 M10.456 11.120 C 10.623 11.659,10.760 12.114,10.760 12.130 C 10.760 12.147,10.462 12.160,10.097 12.160 C 9.485 12.160,9.436 12.155,9.456 12.090 C 9.858 10.762,10.088 10.073,10.119 10.105 C 10.137 10.124,10.289 10.581,10.456 11.120 " stroke="none" fill-rule="evenodd" fill="black"></path></svg>