<svg xmlns="http://www.w3.org/2000/svg" width="24" height="24" viewBox="0 0 24 24" fill="none" stroke="currentColor" stroke-width="2" stroke-linecap="round" stroke-linejoin="round"><path d="M2.800 5.034 C 2.487 5.139,2.211 5.393,2.115 5.665 C 2.069 5.794,2.060 6.868,2.060 12.000 C 2.060 18.974,2.033 18.396,2.374 18.711 C 2.682 18.994,2.788 19.014,3.850 18.987 C 4.782 18.963,5.137 18.921,5.740 18.765 C 7.930 18.198,9.739 16.580,10.540 14.473 C 10.856 13.640,10.977 12.955,10.977 12.000 C 10.977 11.263,10.935 10.903,10.778 10.280 C 10.095 7.588,7.837 5.539,5.060 5.094 C 4.650 5.029,2.952 4.984,2.800 5.034 M19.453 5.042 C 17.856 5.173,16.288 5.910,15.119 7.079 C 13.779 8.418,13.077 10.112,13.077 12.000 C 13.077 13.888,13.778 15.579,15.119 16.922 C 15.971 17.776,16.921 18.342,18.100 18.699 C 18.856 18.928,19.250 18.978,20.340 18.979 L 21.300 18.980 21.492 18.867 C 21.710 18.739,21.901 18.498,21.961 18.278 C 21.987 18.179,21.997 16.003,21.990 11.914 L 21.980 5.700 21.872 5.516 C 21.740 5.293,21.533 5.128,21.290 5.055 C 21.090 4.995,20.108 4.988,19.453 5.042 M4.512 7.043 C 5.925 7.197,7.182 7.919,8.025 9.061 C 8.755 10.051,9.087 11.255,8.964 12.470 C 8.938 12.728,8.889 13.048,8.856 13.180 C 8.409 14.933,7.062 16.322,5.340 16.803 C 5.023 16.892,4.405 17.000,4.210 17.000 L 4.080 17.000 4.080 12.000 C 4.080 9.250,4.090 7.000,4.102 7.000 C 4.113 7.000,4.298 7.019,4.512 7.043 M20.000 12.000 L 20.000 17.000 19.860 17.000 C 19.782 17.000,19.546 16.972,19.334 16.938 C 17.143 16.586,15.457 14.897,15.121 12.720 C 15.069 12.386,15.069 11.614,15.121 11.280 C 15.293 10.162,15.809 9.173,16.624 8.399 C 17.509 7.558,18.633 7.081,19.910 7.005 L 20.000 7.000 20.000 12.000 " stroke="none" fill-rule="evenodd" fill="black"></path></svg>