<svg xmlns="http://www.w3.org/2000/svg" width="24" height="24" viewBox="0 0 24 24" fill="none" stroke="currentColor" stroke-width="2" stroke-linecap="round" stroke-linejoin="round"><path d="M3.820 2.063 C 3.362 2.165,2.991 2.367,2.664 2.694 C 2.507 2.851,2.328 3.073,2.268 3.187 C 2.123 3.461,2.000 3.953,2.000 4.263 C 2.000 4.721,2.175 5.393,2.423 5.885 C 2.562 6.161,3.043 6.864,3.294 7.159 C 3.488 7.386,3.520 7.449,3.559 7.679 C 3.749 8.793,4.255 9.671,5.380 10.836 L 5.868 11.340 5.734 11.820 C 5.552 12.471,5.338 13.478,5.258 14.060 C 5.167 14.718,5.195 15.765,5.315 16.215 C 5.477 16.821,5.749 17.269,6.176 17.631 C 6.499 17.904,6.690 17.981,7.040 17.976 C 7.490 17.971,7.880 17.775,8.400 17.293 C 8.534 17.170,8.648 17.076,8.654 17.085 C 8.660 17.093,8.787 17.325,8.936 17.600 C 9.292 18.258,9.930 19.210,10.464 19.880 C 11.240 20.854,12.328 21.854,12.731 21.963 C 13.405 22.145,14.060 21.590,13.988 20.897 C 13.955 20.576,13.833 20.401,13.378 20.023 C 12.550 19.335,11.629 18.217,10.919 17.040 C 10.474 16.302,10.221 15.704,9.958 14.766 C 9.890 14.525,9.844 14.442,9.698 14.300 C 9.425 14.035,9.040 13.935,8.716 14.047 C 8.453 14.137,8.290 14.286,7.987 14.711 C 7.569 15.299,7.254 15.655,7.224 15.575 C 7.179 15.460,7.201 14.662,7.260 14.249 C 7.338 13.700,7.515 12.913,7.781 11.934 C 7.901 11.491,8.000 11.066,8.000 10.991 C 8.000 10.639,7.916 10.521,7.062 9.668 C 5.885 8.492,5.632 8.074,5.519 7.120 C 5.496 6.933,5.459 6.720,5.435 6.646 C 5.411 6.572,5.230 6.329,5.033 6.106 C 4.402 5.390,4.067 4.816,4.013 4.360 C 3.984 4.116,4.077 4.031,4.396 4.008 C 4.893 3.972,5.532 4.208,6.250 4.692 C 6.702 4.997,6.665 4.989,7.740 5.016 C 10.354 5.084,12.130 5.947,13.135 7.639 C 13.650 8.507,13.927 9.314,14.500 11.625 C 14.931 13.363,15.158 14.119,15.447 14.777 C 15.790 15.558,16.244 16.236,16.520 16.378 C 16.575 16.407,16.791 16.479,17.000 16.538 C 17.663 16.728,18.599 17.228,19.118 17.670 L 19.255 17.787 18.879 17.856 C 17.954 18.025,17.506 18.399,17.506 19.000 C 17.506 19.311,17.742 19.895,18.071 20.396 C 18.317 20.772,18.933 21.354,19.440 21.690 C 19.931 22.015,21.437 22.853,21.695 22.945 C 22.454 23.215,23.198 22.457,22.939 21.678 C 22.833 21.358,22.645 21.210,21.677 20.682 C 20.874 20.245,20.295 19.892,20.328 19.859 C 20.335 19.851,20.731 19.883,21.207 19.929 C 21.942 20.000,22.100 20.005,22.255 19.961 C 22.503 19.892,22.739 19.710,22.871 19.486 C 22.962 19.331,22.980 19.253,22.980 19.020 C 22.980 18.569,22.932 18.504,21.811 17.431 C 21.266 16.909,20.667 16.355,20.480 16.200 C 19.741 15.586,18.734 15.005,17.950 14.740 L 17.600 14.621 17.384 14.181 C 17.078 13.557,16.891 12.959,16.478 11.285 C 15.895 8.925,15.673 8.228,15.200 7.261 C 13.892 4.585,11.452 3.153,7.964 3.013 L 7.308 2.987 6.977 2.779 C 6.540 2.505,5.972 2.259,5.490 2.135 C 4.981 2.005,4.228 1.972,3.820 2.063 M8.695 6.055 C 8.464 6.130,8.255 6.300,8.128 6.516 C 8.037 6.672,8.020 6.746,8.020 7.000 C 8.020 7.257,8.036 7.327,8.133 7.492 C 8.651 8.374,9.998 8.018,9.998 7.000 C 9.998 6.623,9.792 6.281,9.463 6.112 C 9.265 6.010,8.911 5.984,8.695 6.055 " stroke="none" fill-rule="evenodd" fill="black"></path></svg>