<svg xmlns="http://www.w3.org/2000/svg" width="24" height="24" viewBox="0 0 24 24" fill="none" stroke="currentColor" stroke-width="2" stroke-linecap="round" stroke-linejoin="round"><path d="M11.660 4.263 C 11.571 4.295,11.211 4.551,10.860 4.834 C 10.091 5.450,10.020 5.549,10.020 6.000 C 10.020 6.443,10.105 6.563,10.821 7.137 C 11.604 7.765,11.631 7.780,12.000 7.780 C 12.369 7.780,12.396 7.765,13.179 7.137 C 13.887 6.570,13.980 6.440,13.980 6.020 C 13.980 5.553,13.903 5.444,13.146 4.837 C 12.742 4.513,12.436 4.299,12.324 4.261 C 12.106 4.187,11.873 4.188,11.660 4.263 M6.689 8.056 C 6.452 8.134,6.262 8.289,6.131 8.511 C 6.036 8.672,6.020 8.744,6.020 9.000 C 6.020 9.515,5.896 9.394,8.815 11.731 C 10.242 12.874,11.475 13.847,11.555 13.894 C 11.761 14.016,12.239 14.016,12.445 13.894 C 12.525 13.847,13.758 12.874,15.185 11.731 C 17.233 10.092,17.800 9.618,17.873 9.486 C 18.175 8.942,17.888 8.229,17.296 8.057 C 17.024 7.978,16.734 8.000,16.540 8.115 C 16.468 8.157,15.417 8.986,14.205 9.956 L 12.000 11.721 9.795 9.956 C 8.583 8.986,7.530 8.156,7.456 8.112 C 7.282 8.010,6.914 7.983,6.689 8.056 M1.734 11.036 C 1.278 11.153,0.962 11.622,1.013 12.110 C 1.060 12.570,0.778 12.340,6.342 16.473 C 9.135 18.549,11.501 20.284,11.600 20.330 C 11.838 20.440,12.162 20.440,12.400 20.330 C 12.499 20.284,14.865 18.549,17.658 16.473 C 23.222 12.340,22.940 12.570,22.987 12.110 C 23.029 11.709,22.840 11.337,22.490 11.132 C 22.242 10.987,21.781 10.972,21.560 11.103 C 21.483 11.148,19.314 12.749,16.740 14.661 C 14.166 16.572,12.033 18.136,12.000 18.136 C 11.967 18.136,9.834 16.571,7.260 14.659 C 4.686 12.747,2.510 11.148,2.424 11.104 C 2.252 11.018,1.931 10.986,1.734 11.036 " stroke="none" fill-rule="evenodd" fill="black"></path></svg>