<svg xmlns="http://www.w3.org/2000/svg" width="24" height="24" viewBox="0 0 24 24" fill="none" stroke="currentColor" stroke-width="2" stroke-linecap="round" stroke-linejoin="round"><path d="M7.200 2.202 C 5.940 2.527,5.149 3.601,4.957 5.248 C 4.893 5.796,4.932 6.876,5.039 7.516 C 5.085 7.788,5.117 8.016,5.111 8.022 C 5.105 8.027,4.866 8.125,4.580 8.238 C 2.951 8.886,1.758 9.809,1.295 10.780 C 0.594 12.249,1.170 13.746,2.875 14.886 C 3.334 15.193,4.240 15.651,4.721 15.819 C 5.153 15.970,5.128 15.932,5.061 16.322 C 4.850 17.555,4.878 18.754,5.140 19.660 C 5.335 20.333,5.571 20.733,6.026 21.160 C 6.334 21.449,6.578 21.595,7.009 21.746 C 7.411 21.887,8.115 21.919,8.600 21.820 C 9.544 21.627,10.585 21.086,11.603 20.260 C 11.806 20.095,11.983 19.960,11.996 19.960 C 12.009 19.960,12.191 20.098,12.400 20.267 C 13.694 21.313,15.003 21.884,16.100 21.883 C 16.860 21.882,17.473 21.639,18.009 21.128 C 18.575 20.588,18.922 19.791,19.043 18.752 C 19.121 18.081,19.060 16.979,18.897 16.097 L 18.874 15.975 19.316 15.805 C 20.982 15.167,22.230 14.215,22.705 13.220 C 23.194 12.197,23.059 11.113,22.329 10.195 C 21.700 9.404,20.638 8.700,19.320 8.202 C 18.839 8.020,18.876 8.101,18.978 7.440 C 19.070 6.848,19.103 5.746,19.043 5.257 C 18.992 4.832,18.860 4.282,18.721 3.912 C 18.605 3.603,18.296 3.145,18.035 2.894 C 16.712 1.624,14.648 1.933,12.402 3.736 C 12.194 3.903,12.014 4.040,12.002 4.039 C 11.990 4.039,11.776 3.878,11.527 3.681 C 10.483 2.857,9.415 2.321,8.503 2.162 C 8.128 2.096,7.540 2.114,7.200 2.202 M8.378 4.181 C 8.938 4.327,9.689 4.761,10.478 5.394 L 10.576 5.473 10.315 5.766 C 9.527 6.652,8.602 7.941,7.839 9.218 L 7.625 9.577 7.574 9.454 C 7.465 9.186,7.237 8.331,7.124 7.771 C 6.745 5.875,6.923 4.472,7.580 4.177 C 7.741 4.105,8.091 4.106,8.378 4.181 M16.463 4.201 C 16.769 4.349,16.951 4.734,17.044 5.428 C 17.095 5.815,17.073 6.609,16.995 7.150 C 16.940 7.532,16.979 7.514,16.434 7.404 C 16.108 7.338,15.528 7.253,14.500 7.121 C 14.346 7.101,13.704 7.062,13.072 7.034 C 12.099 6.992,11.930 6.976,11.957 6.927 C 12.029 6.798,13.053 5.800,13.481 5.443 C 14.055 4.963,14.518 4.652,15.004 4.423 C 15.658 4.114,16.134 4.042,16.463 4.201 M13.627 9.064 C 13.675 9.077,13.782 9.189,13.865 9.314 C 14.182 9.789,14.817 10.883,15.091 11.427 L 15.378 11.994 15.259 12.246 C 14.986 12.827,14.225 14.153,13.841 14.719 L 13.686 14.947 13.233 14.974 C 12.649 15.007,11.428 15.007,10.803 14.974 L 10.314 14.947 10.149 14.704 C 9.842 14.252,9.197 13.144,8.910 12.575 L 8.624 12.011 8.739 11.755 C 8.970 11.238,10.119 9.261,10.296 9.075 C 10.354 9.014,13.404 9.004,13.627 9.064 M16.965 9.560 C 18.651 9.987,19.836 10.526,20.512 11.174 C 20.980 11.623,21.092 11.951,20.907 12.329 C 20.705 12.742,20.112 13.227,19.340 13.610 C 18.877 13.840,18.445 14.011,18.386 13.988 C 18.360 13.978,18.297 13.837,18.246 13.675 C 17.969 12.793,17.114 10.902,16.465 9.736 L 16.285 9.411 16.457 9.443 C 16.552 9.461,16.780 9.514,16.965 9.560 M5.838 10.560 C 6.211 11.630,6.764 12.863,7.337 13.900 C 7.543 14.274,7.709 14.584,7.704 14.589 C 7.691 14.603,6.760 14.375,6.360 14.259 C 5.479 14.004,4.508 13.584,3.994 13.237 C 3.667 13.016,3.259 12.625,3.136 12.417 C 3.083 12.327,3.029 12.170,3.015 12.068 C 2.935 11.488,3.809 10.721,5.220 10.134 C 5.396 10.060,5.565 10.005,5.595 10.010 C 5.626 10.016,5.730 10.252,5.838 10.560 M11.549 10.063 C 10.817 10.240,10.254 10.801,10.060 11.548 C 9.902 12.152,10.081 12.854,10.514 13.326 C 11.314 14.200,12.624 14.227,13.433 13.384 C 13.811 12.991,14.000 12.529,14.000 12.000 C 14.000 10.728,12.781 9.764,11.549 10.063 M16.616 15.153 C 17.040 16.610,17.183 18.111,16.980 18.956 C 16.896 19.306,16.711 19.638,16.533 19.760 C 16.309 19.912,15.915 19.920,15.499 19.781 C 14.927 19.589,14.158 19.137,13.582 18.654 L 13.432 18.528 13.820 18.074 C 14.586 17.178,15.439 15.984,16.100 14.881 L 16.375 14.423 16.425 14.546 C 16.453 14.613,16.539 14.887,16.616 15.153 M7.560 16.599 C 8.841 16.839,10.462 17.000,11.605 17.000 C 12.033 17.000,12.080 17.007,12.048 17.064 C 11.986 17.175,11.036 18.117,10.640 18.461 C 9.867 19.130,8.971 19.668,8.374 19.818 C 7.497 20.039,7.107 19.696,6.956 18.572 C 6.880 18.002,6.981 16.520,7.096 16.520 C 7.120 16.520,7.329 16.556,7.560 16.599 " stroke="none" fill-rule="evenodd" fill="black"></path></svg>