<svg xmlns="http://www.w3.org/2000/svg" width="24" height="24" viewBox="0 0 24 24" fill="none" stroke="currentColor" stroke-width="2" stroke-linecap="round" stroke-linejoin="round"><path d="M7.695 2.057 C 7.465 2.129,7.256 2.299,7.128 2.516 L 7.020 2.700 7.009 11.900 C 7.000 18.860,7.009 21.142,7.044 21.272 C 7.150 21.656,7.493 21.947,7.888 21.986 C 8.069 22.004,8.418 21.928,10.258 21.466 C 12.639 20.868,12.631 20.871,12.859 20.502 L 12.980 20.306 12.991 17.416 L 13.002 14.527 14.111 14.513 C 15.368 14.498,15.446 14.481,15.724 14.173 C 16.008 13.857,16.004 13.893,15.992 11.680 L 15.980 9.700 15.872 9.516 C 15.813 9.415,15.698 9.282,15.618 9.221 C 15.356 9.022,15.203 9.000,14.054 9.000 L 13.000 9.000 13.000 8.500 L 13.000 8.000 14.090 7.998 C 15.262 7.996,15.357 7.983,15.619 7.783 C 15.696 7.725,15.806 7.597,15.863 7.498 C 15.961 7.332,15.988 7.161,16.239 5.162 C 16.521 2.919,16.528 2.803,16.385 2.531 C 16.310 2.388,16.098 2.189,15.920 2.094 C 15.786 2.023,15.597 2.020,11.820 2.012 C 8.660 2.006,7.827 2.015,7.695 2.057 M14.360 4.030 C 14.360 4.046,14.306 4.483,14.240 5.000 C 14.174 5.517,14.120 5.954,14.120 5.970 C 14.120 5.986,13.619 6.000,13.006 6.000 C 11.793 6.000,11.646 6.020,11.382 6.221 C 11.302 6.282,11.187 6.415,11.128 6.516 L 11.020 6.700 11.008 8.410 C 11.001 9.502,11.012 10.175,11.038 10.274 C 11.099 10.498,11.289 10.738,11.508 10.867 L 11.700 10.980 12.850 10.992 L 14.000 11.005 14.000 11.762 L 14.000 12.520 12.879 12.520 C 11.642 12.520,11.580 12.530,11.325 12.772 C 11.251 12.842,11.148 12.990,11.095 13.100 L 11.001 13.300 11.000 16.261 L 11.000 19.222 10.050 19.457 C 9.527 19.586,9.078 19.700,9.050 19.710 C 9.010 19.725,9.000 18.139,9.000 11.864 L 9.000 4.000 11.680 4.000 C 13.154 4.000,14.360 4.014,14.360 4.030 " stroke="none" fill-rule="evenodd" fill="black"></path></svg>