<svg xmlns="http://www.w3.org/2000/svg" width="24" height="24" viewBox="0 0 24 24" fill="none" stroke="currentColor" stroke-width="2" stroke-linecap="round" stroke-linejoin="round"><path d="M11.080 2.045 C 9.507 2.184,7.883 2.751,6.540 3.630 C 5.905 4.045,5.499 4.378,4.919 4.958 C 2.953 6.926,1.919 9.544,2.013 12.320 C 2.084 14.439,2.752 16.328,4.033 18.040 C 4.430 18.570,5.305 19.464,5.800 19.847 C 7.242 20.961,8.787 21.624,10.600 21.907 C 11.247 22.008,12.753 22.008,13.400 21.907 C 15.638 21.557,17.504 20.620,19.062 19.062 C 20.620 17.504,21.557 15.638,21.907 13.400 C 22.008 12.753,22.008 11.247,21.907 10.600 C 21.624 8.786,20.959 7.238,19.847 5.800 C 19.510 5.365,18.639 4.494,18.200 4.154 C 16.133 2.555,13.646 1.818,11.080 2.045 M12.734 4.041 C 13.889 4.151,15.006 4.503,15.992 5.068 L 16.204 5.189 16.002 5.318 C 14.897 6.028,14.670 7.840,15.522 9.158 C 15.607 9.290,15.954 9.683,16.294 10.032 C 16.633 10.381,16.923 10.708,16.939 10.758 C 16.962 10.830,16.666 11.533,15.618 13.895 C 14.875 15.570,14.256 16.953,14.243 16.969 C 14.225 16.990,13.107 12.959,12.330 10.070 C 12.313 10.010,12.340 10.000,12.505 10.000 C 12.875 9.999,13.278 9.727,13.422 9.382 C 13.507 9.179,13.507 8.821,13.422 8.618 C 13.340 8.422,13.150 8.220,12.940 8.106 C 12.783 8.022,12.749 8.020,11.000 8.020 C 9.251 8.020,9.217 8.022,9.060 8.106 C 8.707 8.297,8.512 8.615,8.512 9.000 C 8.512 9.405,8.719 9.724,9.100 9.905 C 9.275 9.987,9.359 9.999,9.768 10.000 L 10.237 10.000 10.282 10.170 C 10.307 10.263,10.478 10.893,10.663 11.568 L 10.998 12.797 10.070 14.962 L 9.143 17.128 9.084 16.954 C 9.052 16.858,8.536 15.241,7.936 13.360 L 6.847 9.940 6.954 9.885 C 7.531 9.588,7.672 8.790,7.228 8.326 C 6.956 8.043,6.874 8.022,5.926 8.000 L 5.072 7.980 5.309 7.620 C 5.598 7.181,6.051 6.636,6.446 6.256 C 8.134 4.626,10.418 3.822,12.734 4.041 M17.408 7.042 C 17.630 7.103,17.786 7.284,17.880 7.589 C 17.971 7.883,18.028 8.608,17.972 8.752 C 17.938 8.840,17.920 8.827,17.595 8.502 C 17.134 8.041,17.021 7.832,17.020 7.440 C 17.020 7.275,17.033 7.109,17.049 7.070 C 17.081 6.991,17.193 6.982,17.408 7.042 M19.839 10.420 C 20.103 11.785,20.018 13.212,19.596 14.497 C 19.406 15.076,19.016 15.887,18.692 16.380 C 17.960 17.491,16.816 18.531,15.724 19.079 C 15.507 19.188,15.472 19.196,15.490 19.133 C 15.502 19.093,16.293 17.302,17.249 15.153 C 18.442 12.473,19.084 11.079,19.294 10.711 C 19.463 10.416,19.623 10.118,19.649 10.048 C 19.676 9.978,19.710 9.934,19.726 9.951 C 19.741 9.967,19.792 10.178,19.839 10.420 M6.127 14.260 C 6.870 16.592,7.474 18.522,7.469 18.549 C 7.456 18.617,6.927 18.207,6.504 17.801 C 4.436 15.819,3.595 13.041,4.203 10.203 L 4.247 9.997 4.512 10.008 L 4.776 10.020 6.127 14.260 M12.391 17.910 C 12.683 18.983,12.921 19.880,12.921 19.904 C 12.919 20.001,11.859 20.033,11.168 19.958 C 10.775 19.915,10.245 19.818,10.209 19.783 C 10.187 19.761,11.809 15.960,11.840 15.960 C 11.851 15.960,12.099 16.837,12.391 17.910 " stroke="none" fill-rule="evenodd" fill="black"></path></svg>