<svg xmlns="http://www.w3.org/2000/svg" width="24" height="24" viewBox="0 0 24 24" fill="none" stroke="currentColor" stroke-width="2" stroke-linecap="round" stroke-linejoin="round"><path d="M1.695 7.057 C 1.466 7.129,1.256 7.299,1.128 7.516 C 1.037 7.672,1.020 7.746,1.020 8.000 C 1.020 8.256,1.036 8.328,1.131 8.489 C 1.256 8.702,1.449 8.864,1.670 8.943 C 1.768 8.978,2.023 8.997,2.409 8.998 L 2.998 9.000 3.009 12.653 L 3.020 16.306 3.141 16.503 C 3.543 17.156,4.457 17.156,4.859 16.503 L 4.980 16.306 4.991 12.653 L 5.002 9.000 5.591 8.998 C 5.977 8.997,6.232 8.978,6.330 8.943 C 6.551 8.864,6.744 8.702,6.869 8.489 C 6.964 8.328,6.980 8.256,6.980 8.000 C 6.980 7.746,6.963 7.672,6.872 7.516 C 6.740 7.293,6.533 7.128,6.290 7.055 C 6.033 6.978,1.943 6.979,1.695 7.057 M8.695 7.057 C 8.466 7.129,8.256 7.299,8.128 7.516 L 8.020 7.700 8.009 11.913 C 8.002 14.672,8.013 16.178,8.039 16.277 C 8.099 16.498,8.290 16.739,8.508 16.867 L 8.700 16.980 10.911 16.991 C 12.337 16.999,13.176 16.988,13.275 16.961 C 13.498 16.901,13.739 16.711,13.867 16.492 C 13.964 16.327,13.980 16.257,13.980 16.000 C 13.980 15.746,13.963 15.672,13.872 15.516 C 13.813 15.415,13.698 15.282,13.618 15.221 C 13.342 15.011,13.242 15.000,11.554 15.000 L 10.000 15.000 10.000 14.000 L 10.000 13.000 10.850 13.000 C 11.661 12.999,11.709 12.995,11.900 12.905 C 12.281 12.724,12.488 12.405,12.488 12.000 C 12.488 11.615,12.293 11.297,11.940 11.106 C 11.792 11.027,11.713 11.019,10.890 11.007 L 10.000 10.995 10.000 9.997 L 10.000 9.000 11.590 8.998 C 13.300 8.996,13.346 8.991,13.619 8.783 C 13.696 8.725,13.808 8.592,13.869 8.489 C 13.964 8.328,13.980 8.256,13.980 8.000 C 13.980 7.746,13.963 7.672,13.872 7.516 C 13.740 7.293,13.533 7.128,13.290 7.055 C 13.033 6.978,8.943 6.979,8.695 7.057 M15.695 7.057 C 15.466 7.129,15.256 7.299,15.128 7.516 L 15.020 7.700 15.009 11.913 C 15.002 14.672,15.013 16.178,15.039 16.277 C 15.099 16.498,15.290 16.739,15.508 16.867 L 15.700 16.980 17.024 16.992 C 18.227 17.003,18.385 16.997,18.748 16.923 C 20.385 16.589,21.588 15.388,21.921 13.757 C 21.991 13.413,22.000 13.207,22.000 12.000 C 22.000 10.459,21.964 10.157,21.705 9.516 C 21.172 8.197,20.001 7.269,18.605 7.058 C 18.093 6.981,15.940 6.980,15.695 7.057 M18.523 9.073 C 19.212 9.253,19.795 9.860,19.941 10.549 C 20.023 10.933,20.023 13.067,19.941 13.451 C 19.863 13.821,19.710 14.091,19.400 14.404 C 18.931 14.880,18.575 15.000,17.632 15.000 L 17.000 15.000 17.000 12.000 L 17.000 9.000 17.630 9.002 C 18.090 9.004,18.331 9.023,18.523 9.073 " stroke="none" fill-rule="evenodd" fill="black"></path></svg>