<svg xmlns="http://www.w3.org/2000/svg" width="24" height="24" viewBox="0 0 24 24" fill="none" stroke="currentColor" stroke-width="2" stroke-linecap="round" stroke-linejoin="round"><path d="M10.952 2.039 C 7.958 2.275,5.852 3.417,4.500 5.540 C 3.867 6.534,3.345 8.120,3.145 9.660 C 2.764 12.582,3.117 15.485,4.098 17.500 C 4.511 18.348,4.888 18.883,5.559 19.574 C 6.625 20.673,7.970 21.403,9.583 21.757 C 10.870 22.040,12.543 22.072,13.838 21.839 C 16.648 21.333,18.968 19.555,19.760 17.300 C 19.941 16.785,19.978 16.546,19.978 15.880 C 19.980 13.504,18.685 11.645,16.380 10.717 L 16.020 10.572 15.990 10.356 C 15.833 9.220,15.732 8.803,15.481 8.258 C 15.120 7.474,14.562 6.859,13.839 6.450 C 12.827 5.876,11.229 5.865,10.044 6.422 C 9.416 6.718,8.735 7.267,8.590 7.595 C 8.493 7.812,8.488 8.166,8.578 8.382 C 8.782 8.871,9.404 9.132,9.866 8.923 C 9.957 8.881,10.164 8.740,10.326 8.608 C 10.789 8.231,11.179 8.067,11.732 8.017 C 12.587 7.939,13.265 8.295,13.616 9.003 C 13.767 9.309,13.918 9.812,13.919 10.012 C 13.920 10.116,13.911 10.122,13.790 10.102 C 13.564 10.063,12.517 10.001,12.092 10.000 C 10.224 9.999,8.954 10.607,8.377 11.780 C 8.091 12.360,8.028 12.661,8.025 13.460 C 8.023 14.217,8.082 14.542,8.317 15.059 C 8.626 15.741,9.261 16.375,9.947 16.686 C 10.916 17.125,12.466 17.090,13.538 16.604 C 14.401 16.212,15.079 15.473,15.464 14.504 C 15.619 14.113,15.774 13.534,15.839 13.098 C 15.908 12.642,15.887 12.661,16.149 12.806 C 17.131 13.351,17.687 14.077,17.902 15.092 C 17.991 15.512,18.016 15.994,17.965 16.290 C 17.808 17.191,17.041 18.198,15.979 18.897 C 14.640 19.779,12.832 20.153,10.931 19.940 C 7.491 19.556,5.542 17.469,5.100 13.697 C 4.961 12.506,4.985 10.935,5.161 9.720 C 5.513 7.294,6.475 5.696,8.120 4.809 C 9.743 3.934,12.577 3.745,14.480 4.385 C 16.001 4.897,17.104 5.941,17.998 7.714 C 18.105 7.926,18.253 8.158,18.326 8.228 C 18.694 8.580,19.306 8.580,19.674 8.228 C 19.894 8.016,19.977 7.819,19.978 7.498 C 19.980 7.228,19.968 7.191,19.712 6.678 C 18.388 4.021,16.259 2.471,13.420 2.099 C 12.847 2.024,11.549 1.992,10.952 2.039 M13.020 12.040 C 13.306 12.061,13.634 12.089,13.749 12.103 L 13.957 12.129 13.936 12.314 C 13.776 13.691,13.400 14.457,12.731 14.770 C 12.215 15.012,11.306 15.067,10.838 14.886 C 10.236 14.653,9.914 13.961,10.031 13.154 C 10.112 12.597,10.352 12.306,10.866 12.142 C 11.292 12.006,12.052 11.970,13.020 12.040 " stroke="none" fill-rule="evenodd" fill="black"></path></svg>