<svg xmlns="http://www.w3.org/2000/svg" width="24" height="24" viewBox="0 0 24 24" fill="none" stroke="currentColor" stroke-width="2" stroke-linecap="round" stroke-linejoin="round"><path d="M11.400 2.027 C 10.053 2.123,8.974 2.398,7.790 2.946 C 5.466 4.022,3.665 5.922,2.726 8.288 C 2.267 9.444,2.062 10.437,2.016 11.720 C 1.949 13.604,2.471 15.597,3.447 17.177 C 4.788 19.346,6.804 20.894,9.200 21.591 C 10.149 21.867,10.879 21.974,11.820 21.978 C 12.617 21.980,12.818 21.939,13.400 21.653 C 13.726 21.494,13.835 21.412,14.162 21.084 C 14.457 20.787,14.580 20.628,14.707 20.380 C 14.815 20.167,15.479 18.233,16.683 14.620 C 18.609 8.838,18.571 8.970,18.430 8.637 C 18.346 8.438,18.138 8.211,17.944 8.109 C 17.715 7.988,17.285 7.988,17.057 8.108 C 16.687 8.304,16.660 8.359,16.062 10.154 C 15.760 11.059,15.507 11.800,15.500 11.800 C 15.493 11.800,15.240 11.059,14.938 10.154 C 14.340 8.359,14.313 8.304,13.943 8.108 C 13.715 7.988,13.285 7.988,13.056 8.109 C 12.862 8.211,12.654 8.438,12.570 8.637 C 12.434 8.959,12.445 9.002,13.476 12.090 L 14.447 15.000 13.721 17.178 C 13.253 18.581,12.955 19.415,12.882 19.523 C 12.755 19.713,12.498 19.900,12.285 19.959 C 11.843 20.082,10.515 19.917,9.600 19.625 C 7.332 18.903,5.472 17.188,4.595 15.012 C 3.750 12.914,3.837 10.439,4.825 8.468 C 6.712 4.702,11.109 3.031,15.011 4.595 C 17.224 5.482,18.994 7.432,19.663 9.719 C 20.307 11.919,19.999 14.230,18.801 16.200 C 18.520 16.661,18.463 16.826,18.492 17.101 C 18.563 17.790,19.276 18.197,19.902 17.905 C 20.139 17.795,20.238 17.685,20.545 17.189 C 21.056 16.365,21.521 15.221,21.741 14.245 C 21.899 13.542,21.960 13.046,21.986 12.240 C 22.029 10.909,21.809 9.656,21.303 8.345 C 20.516 6.309,19.057 4.591,17.120 3.418 C 15.467 2.417,13.303 1.891,11.400 2.027 M8.662 8.044 C 7.092 8.273,5.796 9.431,5.376 10.980 C 5.282 11.328,5.268 11.458,5.265 11.980 C 5.262 12.627,5.328 12.991,5.544 13.523 C 5.999 14.643,7.020 15.536,8.220 15.865 C 8.579 15.963,8.686 15.974,9.260 15.974 C 10.011 15.973,10.292 15.913,10.914 15.619 C 11.464 15.358,11.634 15.179,11.723 14.763 C 11.780 14.496,11.696 14.200,11.497 13.968 C 11.164 13.578,10.737 13.514,10.180 13.769 C 9.800 13.943,9.582 13.998,9.266 13.999 C 8.752 14.001,8.230 13.787,7.861 13.425 C 6.733 12.313,7.268 10.424,8.814 10.059 C 9.289 9.947,9.717 10.007,10.241 10.258 C 10.696 10.476,11.079 10.446,11.406 10.166 C 11.814 9.817,11.871 9.210,11.537 8.772 C 11.416 8.614,10.673 8.235,10.300 8.142 C 9.754 8.005,9.171 7.970,8.662 8.044 " stroke="none" fill-rule="evenodd" fill="black"></path></svg>