<svg xmlns="http://www.w3.org/2000/svg" width="24" height="24" viewBox="0 0 24 24" fill="none" stroke="currentColor" stroke-width="2" stroke-linecap="round" stroke-linejoin="round"><path d="M7.269 2.103 C 6.487 2.292,5.794 2.910,5.525 3.660 C 5.469 3.816,5.088 6.053,4.444 10.020 C 3.896 13.386,3.437 16.243,3.422 16.369 C 3.389 16.645,3.457 17.135,3.570 17.440 C 3.740 17.896,4.134 18.392,4.533 18.648 C 4.702 18.756,8.729 20.729,10.529 21.584 C 11.426 22.011,11.883 22.082,12.574 21.900 C 12.805 21.840,18.901 18.954,19.316 18.708 C 19.674 18.497,20.048 18.089,20.232 17.710 C 20.439 17.284,20.499 17.024,20.493 16.580 C 20.486 16.096,19.000 7.068,18.860 6.667 C 18.722 6.267,18.537 5.986,18.214 5.683 C 17.849 5.341,17.456 5.138,17.000 5.056 C 16.234 4.918,15.457 5.127,14.893 5.620 L 14.687 5.800 14.589 5.630 C 14.534 5.536,14.422 5.325,14.339 5.160 C 14.002 4.487,13.620 4.075,13.082 3.806 C 12.331 3.430,11.576 3.436,10.807 3.826 C 10.634 3.913,10.502 3.958,10.487 3.935 C 9.973 3.190,9.700 2.833,9.521 2.673 C 9.253 2.433,8.742 2.172,8.396 2.098 C 8.072 2.028,7.567 2.030,7.269 2.103 M8.219 4.211 C 8.285 4.287,8.561 4.667,8.831 5.055 L 9.323 5.761 7.771 8.717 C 6.918 10.343,6.217 11.670,6.213 11.666 C 6.192 11.645,7.404 4.347,7.440 4.279 C 7.521 4.128,7.721 4.034,7.919 4.054 C 8.060 4.068,8.122 4.101,8.219 4.211 M12.134 5.558 C 12.188 5.578,12.271 5.637,12.318 5.688 C 12.393 5.768,13.160 7.186,13.191 7.303 C 13.202 7.340,8.762 11.717,8.343 12.083 L 8.186 12.220 8.288 12.040 C 8.344 11.941,9.124 10.458,10.022 8.745 C 11.474 5.972,11.667 5.625,11.777 5.577 C 11.925 5.512,12.003 5.508,12.134 5.558 M16.739 7.062 C 16.811 7.096,16.899 7.182,16.935 7.252 C 17.003 7.385,18.480 16.254,18.493 16.609 C 18.499 16.763,18.481 16.817,18.400 16.898 C 18.280 17.019,12.060 20.000,11.929 20.000 C 11.817 20.000,6.033 17.200,6.049 17.154 C 6.055 17.136,8.292 14.942,11.020 12.279 C 13.748 9.615,16.074 7.338,16.190 7.218 C 16.419 6.980,16.511 6.954,16.739 7.062 " stroke="none" fill-rule="evenodd" fill="black"></path></svg>