<svg xmlns="http://www.w3.org/2000/svg" width="24" height="24" viewBox="0 0 24 24" fill="none" stroke="currentColor" stroke-width="2" stroke-linecap="round" stroke-linejoin="round"><path d="M11.080 2.045 C 9.507 2.184,7.883 2.751,6.540 3.630 C 5.905 4.045,5.499 4.378,4.919 4.958 C 2.953 6.926,1.919 9.544,2.013 12.320 C 2.084 14.439,2.752 16.328,4.033 18.040 C 4.430 18.570,5.305 19.464,5.800 19.847 C 7.242 20.961,8.787 21.624,10.600 21.907 C 11.247 22.008,12.753 22.008,13.400 21.907 C 15.638 21.557,17.504 20.620,19.062 19.062 C 20.620 17.504,21.557 15.638,21.907 13.400 C 22.008 12.753,22.008 11.247,21.907 10.600 C 21.624 8.786,20.959 7.238,19.847 5.800 C 19.510 5.365,18.639 4.494,18.200 4.154 C 16.133 2.555,13.646 1.818,11.080 2.045 M12.734 4.041 C 14.574 4.216,16.228 4.976,17.554 6.256 C 20.043 8.658,20.702 12.394,19.183 15.499 C 18.749 16.387,18.223 17.105,17.496 17.801 C 16.876 18.394,16.262 18.819,15.471 19.200 C 13.267 20.265,10.733 20.265,8.529 19.200 C 7.477 18.693,6.612 18.015,5.847 17.100 C 3.848 14.711,3.440 11.302,4.816 8.500 C 6.162 5.760,8.867 4.049,11.920 4.005 C 12.129 4.003,12.495 4.019,12.734 4.041 M11.380 5.920 C 10.788 6.007,10.109 6.255,9.574 6.580 C 8.712 7.102,7.912 7.968,7.533 8.786 C 7.160 9.594,7.024 10.273,7.022 11.340 C 7.020 12.246,7.085 12.685,7.339 13.460 C 7.918 15.230,9.264 16.777,10.960 17.622 C 11.469 17.875,11.810 18.000,11.994 18.000 C 12.396 18.000,12.807 17.712,12.934 17.340 C 13.130 16.765,12.868 16.276,12.220 16.005 C 10.109 15.122,8.812 13.041,9.032 10.890 C 9.092 10.304,9.163 10.027,9.360 9.620 C 9.561 9.202,9.873 8.832,10.281 8.524 C 10.863 8.086,11.290 7.925,11.960 7.892 C 12.501 7.866,12.861 7.941,13.339 8.179 C 13.949 8.483,14.382 8.934,14.684 9.579 C 14.938 10.121,15.057 10.874,14.961 11.334 C 14.868 11.782,14.495 11.994,13.882 11.947 C 13.460 11.915,13.283 11.854,13.124 11.686 C 12.795 11.337,12.719 10.906,12.900 10.424 C 13.015 10.118,13.025 9.928,12.939 9.675 C 12.769 9.175,12.191 8.886,11.698 9.054 C 11.317 9.184,11.126 9.412,10.940 9.959 C 10.789 10.403,10.740 10.844,10.797 11.234 C 10.906 11.983,11.231 12.626,11.773 13.168 C 12.316 13.712,13.221 14.003,14.195 13.947 C 14.693 13.919,15.033 13.840,15.420 13.661 C 16.518 13.155,17.060 12.131,16.987 10.702 C 16.861 8.273,15.197 6.348,12.869 5.938 C 12.528 5.878,11.728 5.868,11.380 5.920 " stroke="none" fill-rule="evenodd" fill="black"></path></svg>