<svg xmlns="http://www.w3.org/2000/svg" width="24" height="24" viewBox="0 0 24 24" fill="none" stroke="currentColor" stroke-width="2" stroke-linecap="round" stroke-linejoin="round"><path d="M5.499 3.043 C 4.380 3.233,3.461 4.048,3.114 5.160 L 3.020 5.460 3.020 12.000 L 3.020 18.540 3.114 18.840 C 3.422 19.827,4.173 20.578,5.160 20.886 L 5.460 20.980 12.000 20.980 L 18.540 20.980 18.840 20.886 C 19.827 20.578,20.578 19.827,20.886 18.840 L 20.980 18.540 20.980 12.000 L 20.980 5.460 20.886 5.160 C 20.581 4.182,19.832 3.428,18.861 3.121 L 18.540 3.020 12.120 3.014 C 8.589 3.011,5.609 3.024,5.499 3.043 M18.310 5.061 C 18.589 5.144,18.856 5.411,18.939 5.690 C 18.992 5.869,19.000 6.651,19.000 12.001 C 19.000 17.059,18.991 18.139,18.945 18.290 C 18.872 18.533,18.707 18.740,18.484 18.872 L 18.300 18.980 12.000 18.980 L 5.700 18.980 5.516 18.872 C 5.303 18.747,5.141 18.550,5.058 18.316 C 4.968 18.060,4.971 5.993,5.061 5.690 C 5.140 5.421,5.412 5.143,5.673 5.063 C 5.963 4.974,18.010 4.972,18.310 5.061 M7.650 6.066 C 7.171 6.236,6.882 6.844,7.054 7.320 C 7.082 7.397,7.977 8.765,9.042 10.360 L 10.980 13.260 11.000 15.283 L 11.020 17.306 11.141 17.503 C 11.543 18.156,12.457 18.156,12.859 17.503 L 12.980 17.306 13.000 15.283 L 13.020 13.260 14.954 10.365 C 16.017 8.772,16.913 7.398,16.944 7.310 C 17.211 6.551,16.442 5.791,15.678 6.061 C 15.583 6.094,15.450 6.164,15.383 6.215 C 15.314 6.267,14.544 7.384,13.644 8.734 C 12.755 10.069,12.015 11.160,12.000 11.160 C 11.985 11.160,11.245 10.069,10.356 8.734 C 9.456 7.384,8.686 6.267,8.617 6.215 C 8.346 6.008,7.976 5.951,7.650 6.066 " stroke="none" fill-rule="evenodd" fill="black"></path></svg>