<svg xmlns="http://www.w3.org/2000/svg" width="24" height="24" viewBox="0 0 24 24" fill="none" stroke="currentColor" stroke-width="2" stroke-linecap="round" stroke-linejoin="round"><path d="M5.695 2.057 C 5.466 2.129,5.256 2.299,5.128 2.516 L 5.020 2.700 5.020 5.500 L 5.020 8.300 5.131 8.489 C 5.256 8.702,5.449 8.864,5.670 8.943 C 5.890 9.021,11.110 9.021,11.330 8.943 C 11.551 8.864,11.744 8.702,11.869 8.489 L 11.980 8.300 11.980 5.500 L 11.980 2.700 11.872 2.516 C 11.740 2.293,11.533 2.128,11.290 2.055 C 11.031 1.977,5.944 1.979,5.695 2.057 M15.873 2.060 C 15.136 2.200,14.468 2.565,13.958 3.105 C 13.559 3.527,13.314 3.957,13.133 4.548 C 13.038 4.863,13.026 4.963,13.026 5.500 C 13.026 6.037,13.038 6.137,13.133 6.452 C 13.725 8.393,15.674 9.429,17.588 8.821 C 18.604 8.498,19.497 7.606,19.820 6.591 C 19.943 6.205,19.999 5.860,19.999 5.500 C 19.999 3.928,18.904 2.515,17.378 2.118 C 16.959 2.009,16.280 1.983,15.873 2.060 M10.000 5.500 L 10.000 7.000 8.500 7.000 L 7.000 7.000 7.000 5.500 L 7.000 4.000 8.500 4.000 L 10.000 4.000 10.000 5.500 M17.119 4.143 C 17.417 4.279,17.727 4.592,17.865 4.896 C 17.960 5.105,17.976 5.192,17.976 5.500 C 17.976 5.808,17.960 5.895,17.865 6.104 C 17.725 6.413,17.417 6.720,17.100 6.868 C 16.893 6.965,16.810 6.980,16.500 6.980 C 16.190 6.980,16.107 6.965,15.900 6.868 C 15.583 6.720,15.275 6.413,15.135 6.104 C 15.040 5.896,15.024 5.808,15.024 5.500 C 15.023 5.191,15.039 5.106,15.134 4.900 C 15.327 4.478,15.749 4.129,16.174 4.039 C 16.441 3.982,16.870 4.030,17.119 4.143 M10.380 10.038 C 9.390 10.152,8.496 10.477,7.663 11.027 C 7.124 11.384,6.392 12.116,6.029 12.662 C 4.982 14.239,4.730 16.114,5.324 17.893 C 5.614 18.758,6.036 19.462,6.655 20.109 C 7.682 21.184,8.880 21.781,10.372 21.963 C 11.126 22.054,11.525 21.957,11.783 21.619 C 12.007 21.327,11.996 21.592,11.998 16.017 C 12.000 11.331,11.994 10.836,11.934 10.661 C 11.863 10.453,11.645 10.206,11.432 10.095 C 11.278 10.015,10.809 9.989,10.380 10.038 M9.990 17.937 L 9.980 19.874 9.719 19.782 C 7.708 19.079,6.600 16.973,7.161 14.920 C 7.496 13.695,8.508 12.626,9.720 12.218 L 9.980 12.130 9.990 14.065 C 9.996 15.129,9.996 16.872,9.990 17.937 " stroke="none" fill-rule="evenodd" fill="black"></path></svg>