<svg xmlns="http://www.w3.org/2000/svg" width="24" height="24" viewBox="0 0 24 24" fill="none" stroke="currentColor" stroke-width="2" stroke-linecap="round" stroke-linejoin="round"><path d="M18.182 2.057 C 17.985 2.130,17.856 2.226,17.715 2.403 C 17.549 2.611,11.120 13.510,11.056 13.692 C 10.985 13.893,10.985 14.107,11.056 14.307 C 11.086 14.394,12.025 16.066,13.142 18.022 C 14.510 20.417,15.223 21.627,15.323 21.725 C 15.977 22.359,17.082 21.803,16.987 20.889 C 16.967 20.689,16.789 20.362,15.062 17.338 L 13.159 14.008 16.288 8.714 C 18.374 5.184,19.434 3.353,19.469 3.220 C 19.526 3.004,19.493 2.736,19.383 2.528 C 19.309 2.386,19.094 2.186,18.924 2.100 C 18.736 2.005,18.378 1.985,18.182 2.057 M6.660 6.071 C 6.240 6.211,5.965 6.652,6.013 7.110 C 6.033 7.304,6.138 7.509,6.922 8.884 C 7.414 9.745,7.799 10.464,7.787 10.495 C 7.775 10.527,7.167 11.450,6.435 12.546 C 5.703 13.643,5.082 14.603,5.054 14.680 C 4.948 14.974,5.016 15.356,5.222 15.626 C 5.443 15.916,5.920 16.069,6.264 15.961 C 6.638 15.843,6.640 15.840,8.318 13.322 C 9.200 11.999,9.933 10.858,9.957 10.774 C 10.024 10.533,10.007 10.317,9.906 10.100 C 9.664 9.581,7.815 6.409,7.677 6.275 C 7.411 6.017,7.044 5.944,6.660 6.071 " stroke="none" fill-rule="evenodd" fill="black"></path></svg>