<svg xmlns="http://www.w3.org/2000/svg" width="24" height="24" viewBox="0 0 24 24" fill="none" stroke="currentColor" stroke-width="2" stroke-linecap="round" stroke-linejoin="round"><path d="M12.301 6.045 C 10.051 6.217,8.286 7.255,7.352 8.956 C 7.305 9.042,7.254 9.080,7.186 9.080 C 7.025 9.080,6.413 9.272,6.148 9.406 C 5.580 9.692,5.048 10.151,4.722 10.635 C 4.502 10.961,4.265 11.467,4.176 11.800 C 4.138 11.943,4.094 12.075,4.078 12.093 C 4.063 12.111,3.906 12.176,3.730 12.237 C 2.298 12.733,1.279 13.948,1.039 15.450 C 0.936 16.088,1.050 16.531,1.381 16.783 C 1.678 17.010,0.992 16.996,11.983 16.998 C 23.339 17.000,22.374 17.026,22.684 16.716 C 22.960 16.440,22.980 16.371,22.976 15.720 C 22.967 14.243,22.480 12.613,21.692 11.423 C 21.376 10.946,20.723 10.276,20.278 9.973 C 19.590 9.503,18.843 9.211,17.987 9.077 L 17.675 9.028 17.492 8.664 C 16.991 7.664,16.324 6.962,15.460 6.528 C 14.902 6.248,14.367 6.106,13.620 6.042 C 13.085 5.996,12.934 5.996,12.301 6.045 M13.540 8.041 C 14.642 8.163,15.198 8.569,15.743 9.647 L 15.918 9.995 15.505 10.987 L 15.092 11.980 13.416 12.000 C 12.200 12.015,11.709 12.034,11.627 12.070 C 11.428 12.158,11.239 12.328,11.128 12.516 C 11.037 12.672,11.020 12.746,11.020 13.000 C 11.020 13.256,11.036 13.328,11.131 13.489 C 11.192 13.592,11.304 13.725,11.381 13.783 C 11.646 13.986,11.729 13.996,13.034 13.998 C 13.989 14.000,14.244 14.011,14.229 14.050 C 14.219 14.078,14.125 14.303,14.021 14.550 L 13.832 15.000 8.553 15.000 L 3.275 15.000 3.353 14.890 C 3.464 14.734,3.833 14.393,4.006 14.288 C 4.229 14.151,4.585 14.042,4.897 14.014 C 5.637 13.946,5.934 13.656,6.003 12.932 C 6.068 12.243,6.255 11.810,6.632 11.478 C 6.983 11.168,7.261 11.065,7.911 11.004 C 8.545 10.945,8.758 10.789,8.995 10.206 C 9.178 9.756,9.353 9.489,9.681 9.161 C 10.403 8.438,11.533 8.040,12.960 8.006 C 13.081 8.003,13.342 8.019,13.540 8.041 M18.238 11.184 C 19.513 11.553,20.485 12.817,20.842 14.571 C 20.887 14.790,20.917 14.977,20.908 14.985 C 20.900 14.994,19.794 14.996,18.451 14.990 L 16.009 14.980 16.212 14.490 L 16.415 14.000 17.298 13.998 C 18.247 13.996,18.365 13.977,18.619 13.783 C 18.696 13.725,18.808 13.592,18.869 13.489 C 18.964 13.328,18.980 13.256,18.980 13.000 C 18.980 12.746,18.963 12.672,18.872 12.516 C 18.646 12.132,18.341 12.000,17.678 12.000 L 17.248 12.000 17.447 11.526 L 17.647 11.052 17.833 11.086 C 17.936 11.105,18.118 11.149,18.238 11.184 " stroke="none" fill-rule="evenodd" fill="black"></path></svg>