<svg xmlns="http://www.w3.org/2000/svg" width="24" height="24" viewBox="0 0 24 24" fill="none" stroke="currentColor" stroke-width="2" stroke-linecap="round" stroke-linejoin="round"><path d="M2.665 5.056 C 2.437 5.141,2.234 5.323,2.120 5.543 L 2.020 5.738 2.009 8.936 C 2.000 11.779,2.006 12.157,2.063 12.328 C 2.115 12.486,2.673 13.158,5.243 16.156 C 7.938 19.301,8.385 19.805,8.549 19.886 L 8.740 19.980 11.433 19.991 C 13.168 19.998,14.179 19.987,14.277 19.961 C 14.498 19.901,14.739 19.710,14.867 19.492 C 14.962 19.331,14.980 19.255,14.980 19.020 C 14.980 18.819,14.957 18.695,14.900 18.580 C 14.856 18.492,12.303 15.447,9.228 11.813 C 4.434 6.148,3.611 5.193,3.458 5.119 C 3.230 5.008,2.870 4.980,2.665 5.056 M20.720 5.046 C 20.643 5.067,20.511 5.133,20.427 5.192 C 20.239 5.325,13.714 13.349,13.593 13.596 C 13.368 14.056,13.575 14.631,14.060 14.894 C 14.218 14.979,14.245 14.980,16.676 14.991 C 18.871 15.001,19.154 14.995,19.336 14.936 C 19.520 14.877,19.655 14.755,20.705 13.705 C 21.753 12.657,21.877 12.520,21.936 12.337 C 21.995 12.154,22.001 11.814,21.991 8.917 L 21.980 5.700 21.872 5.516 C 21.635 5.112,21.171 4.923,20.720 5.046 M7.782 13.200 C 9.780 15.565,11.513 17.613,11.632 17.750 L 11.850 18.000 10.655 18.000 L 9.460 17.999 6.730 14.813 L 4.000 11.626 4.000 10.184 C 4.000 8.777,4.002 8.744,4.074 8.821 C 4.115 8.865,5.784 10.835,7.782 13.200 M19.291 12.289 L 18.581 13.000 17.591 13.000 L 16.602 13.000 18.291 10.921 L 19.980 8.843 19.991 10.211 L 20.001 11.578 19.291 12.289 " stroke="none" fill-rule="evenodd" fill="black"></path></svg>