<svg xmlns="http://www.w3.org/2000/svg" width="24" height="24" viewBox="0 0 24 24" fill="none" stroke="currentColor" stroke-width="2" stroke-linecap="round" stroke-linejoin="round"><path d="M11.080 2.045 C 7.235 2.385,3.835 5.037,2.567 8.685 C 2.165 9.842,2.022 10.713,2.022 12.000 C 2.022 13.038,2.071 13.479,2.285 14.355 C 2.693 16.028,3.533 17.587,4.694 18.824 C 5.116 19.274,5.322 19.380,5.707 19.350 C 6.352 19.298,6.777 18.687,6.594 18.075 C 6.548 17.923,6.494 17.852,5.863 17.112 C 4.112 15.059,3.547 12.113,4.404 9.503 C 5.075 7.460,6.554 5.768,8.501 4.817 C 10.710 3.737,13.290 3.737,15.499 4.817 C 17.127 5.612,18.388 6.873,19.183 8.501 C 20.264 10.710,20.263 13.292,19.183 15.499 C 18.795 16.293,18.431 16.818,17.773 17.532 C 17.376 17.964,17.278 18.279,17.418 18.676 C 17.558 19.070,17.877 19.316,18.293 19.350 C 18.678 19.380,18.884 19.274,19.306 18.824 C 20.465 17.588,21.308 16.026,21.715 14.355 C 21.930 13.475,21.979 13.038,21.978 12.000 C 21.977 10.961,21.927 10.513,21.715 9.645 C 20.539 4.825,16.035 1.606,11.080 2.045 M11.499 6.040 C 10.363 6.246,9.460 7.049,9.114 8.160 C 8.979 8.594,8.979 9.406,9.114 9.840 C 9.421 10.826,10.174 11.579,11.160 11.886 C 11.594 12.021,12.406 12.021,12.840 11.886 C 13.826 11.579,14.579 10.826,14.886 9.840 C 15.021 9.406,15.021 8.594,14.886 8.160 C 14.581 7.179,13.810 6.407,12.861 6.129 C 12.500 6.023,11.832 5.980,11.499 6.040 M12.310 8.061 C 12.688 8.173,13.000 8.598,13.000 9.001 C 13.000 9.331,12.784 9.696,12.484 9.872 C 12.328 9.963,12.254 9.980,12.000 9.980 C 11.746 9.980,11.672 9.963,11.516 9.872 C 10.935 9.530,10.833 8.774,11.304 8.303 C 11.583 8.024,11.916 7.944,12.310 8.061 M10.860 13.027 C 10.327 13.108,9.753 13.364,9.348 13.700 C 8.684 14.250,8.280 15.112,8.280 15.981 C 8.280 16.314,8.754 20.263,8.845 20.687 C 9.081 21.786,10.059 22.727,11.191 22.943 C 11.571 23.016,12.429 23.016,12.809 22.943 C 13.941 22.727,14.919 21.786,15.155 20.687 C 15.246 20.263,15.720 16.314,15.720 15.981 C 15.720 14.856,15.064 13.804,14.060 13.320 C 13.490 13.045,13.394 13.030,12.120 13.019 C 11.493 13.013,10.926 13.017,10.860 13.027 M13.186 15.109 C 13.518 15.287,13.721 15.626,13.720 16.005 C 13.719 16.101,13.603 17.103,13.462 18.231 C 13.223 20.130,13.196 20.296,13.096 20.481 C 12.888 20.862,12.597 21.000,12.000 21.000 C 11.403 21.000,11.112 20.862,10.904 20.481 C 10.804 20.296,10.777 20.130,10.538 18.231 C 10.397 17.103,10.281 16.101,10.280 16.005 C 10.279 15.549,10.555 15.177,11.000 15.036 C 11.055 15.019,11.532 15.008,12.060 15.012 C 12.967 15.020,13.029 15.025,13.186 15.109 " stroke="none" fill-rule="evenodd" fill="black"></path></svg>