<svg xmlns="http://www.w3.org/2000/svg" width="24" height="24" viewBox="0 0 24 24" fill="none" stroke="currentColor" stroke-width="2" stroke-linecap="round" stroke-linejoin="round"><path d="M9.678 2.058 C 9.533 2.111,3.456 6.139,3.289 6.292 C 3.239 6.338,3.153 6.467,3.098 6.580 L 2.998 6.784 3.009 10.545 L 3.020 14.306 3.141 14.503 C 3.543 15.156,4.457 15.156,4.859 14.503 L 4.980 14.306 4.991 11.556 L 5.002 8.806 7.951 10.647 C 9.573 11.660,10.923 12.510,10.950 12.536 C 10.990 12.573,10.998 13.270,10.990 15.852 L 10.980 19.120 8.725 17.616 C 7.484 16.789,6.398 16.087,6.310 16.056 C 5.877 15.904,5.376 16.093,5.138 16.499 C 5.013 16.713,4.970 17.045,5.039 17.264 C 5.158 17.642,5.121 17.613,8.349 19.770 C 10.036 20.898,11.498 21.860,11.598 21.909 C 11.720 21.969,11.853 21.999,12.000 21.999 C 12.147 21.999,12.280 21.969,12.402 21.909 C 12.754 21.736,18.709 17.728,18.796 17.606 C 18.843 17.540,18.908 17.410,18.941 17.318 C 19.209 16.556,18.448 15.789,17.690 16.056 C 17.602 16.087,16.516 16.789,15.275 17.616 L 13.020 19.120 13.010 15.852 C 13.002 13.270,13.010 12.573,13.050 12.536 C 13.077 12.510,14.427 11.660,16.049 10.647 L 18.998 8.806 19.009 11.556 L 19.020 14.306 19.141 14.503 C 19.543 15.156,20.457 15.156,20.859 14.503 L 20.980 14.306 20.991 10.545 L 21.002 6.784 20.902 6.580 C 20.847 6.467,20.761 6.338,20.711 6.292 C 20.527 6.123,14.461 2.110,14.308 2.056 C 13.877 1.904,13.376 2.094,13.138 2.499 C 12.941 2.836,12.972 3.299,13.214 3.615 C 13.268 3.686,14.346 4.430,15.713 5.340 C 17.036 6.220,18.112 6.957,18.106 6.978 C 18.090 7.033,12.071 10.795,12.000 10.795 C 11.929 10.795,5.910 7.033,5.894 6.978 C 5.888 6.957,6.964 6.220,8.287 5.340 C 9.629 4.447,10.732 3.686,10.785 3.617 C 10.906 3.459,11.000 3.189,11.000 3.002 C 11.000 2.334,10.295 1.831,9.678 2.058 " stroke="none" fill-rule="evenodd" fill="black"></path></svg>