<svg xmlns="http://www.w3.org/2000/svg" width="24" height="24" viewBox="0 0 24 24" fill="none" stroke="currentColor" stroke-width="2" stroke-linecap="round" stroke-linejoin="round"><path d="M11.260 1.028 C 10.845 1.055,10.212 1.171,9.869 1.284 C 9.083 1.540,8.599 1.916,7.862 2.840 C 6.260 4.847,4.836 6.650,4.733 6.800 C 3.937 7.966,3.764 9.966,4.345 11.290 C 4.470 11.574,4.755 12.036,4.925 12.231 C 4.988 12.304,5.040 12.379,5.040 12.400 C 5.040 12.420,4.949 12.464,4.838 12.497 C 4.396 12.628,4.422 12.599,2.739 14.842 C 1.870 16.000,1.121 17.027,1.074 17.122 C 1.007 17.262,0.994 17.347,1.009 17.558 C 1.043 18.036,1.153 18.156,2.083 18.739 C 6.245 21.343,9.171 22.673,11.380 22.963 C 12.112 23.060,13.205 22.948,13.941 22.701 C 14.897 22.381,15.728 21.755,16.331 20.900 C 16.455 20.724,17.189 19.743,17.961 18.720 C 19.464 16.729,19.616 16.490,19.815 15.796 C 20.209 14.425,19.954 12.931,19.141 11.850 C 19.041 11.717,18.960 11.598,18.960 11.586 C 18.960 11.573,19.056 11.534,19.173 11.500 C 19.591 11.379,19.614 11.353,21.272 9.144 C 22.133 7.996,22.867 6.998,22.903 6.926 C 23.045 6.642,23.024 6.235,22.856 5.975 C 22.747 5.808,22.546 5.649,21.620 5.000 C 19.137 3.261,16.183 1.826,13.964 1.282 C 12.953 1.034,12.215 0.965,11.260 1.028 M13.140 3.140 C 14.452 3.412,16.439 4.224,18.176 5.198 C 19.275 5.814,20.575 6.662,20.544 6.743 C 20.534 6.771,20.134 7.315,19.657 7.951 L 18.789 9.108 18.086 8.611 C 15.168 6.550,11.725 5.150,9.225 5.009 L 8.720 4.980 9.162 4.420 C 9.674 3.770,9.995 3.430,10.221 3.297 C 10.743 2.991,12.077 2.919,13.140 3.140 M9.940 7.095 C 11.149 7.316,12.610 7.829,14.060 8.540 C 14.942 8.973,15.510 9.295,16.294 9.811 C 16.915 10.218,16.923 10.257,16.370 10.141 C 16.199 10.106,15.820 10.056,15.528 10.031 C 13.999 9.898,11.561 10.348,8.164 11.389 L 7.428 11.615 7.144 11.468 C 6.597 11.186,6.265 10.792,6.095 10.220 C 5.995 9.885,5.996 9.011,6.097 8.620 C 6.340 7.678,6.996 7.191,8.220 7.043 C 8.636 6.993,9.533 7.020,9.940 7.095 M15.597 12.042 C 16.560 12.163,17.321 12.616,17.696 13.292 C 17.911 13.679,17.977 13.954,17.976 14.460 C 17.976 14.990,17.921 15.258,17.745 15.601 C 17.622 15.841,16.832 16.926,16.763 16.951 C 16.746 16.958,16.694 16.859,16.647 16.731 C 16.500 16.328,16.171 15.847,15.762 15.436 C 14.842 14.512,13.774 14.081,12.240 14.015 C 10.795 13.953,8.540 14.377,5.552 15.271 C 5.118 15.401,4.775 15.488,4.789 15.464 C 4.803 15.440,4.999 15.175,5.224 14.876 L 5.633 14.332 6.647 13.985 C 10.958 12.510,14.024 11.845,15.597 12.042 M13.029 16.118 C 13.997 16.355,14.654 16.937,14.906 17.780 C 15.005 18.113,15.005 18.887,14.906 19.220 C 14.465 20.691,12.761 21.341,10.722 20.815 C 9.279 20.443,7.391 19.571,4.972 18.159 C 4.615 17.951,4.336 17.768,4.352 17.754 C 4.367 17.739,4.821 17.589,5.360 17.421 C 7.988 16.599,9.663 16.210,11.380 16.025 C 11.755 15.985,12.703 16.038,13.029 16.118 " stroke="none" fill-rule="evenodd" fill="black"></path></svg>