<svg xmlns="http://www.w3.org/2000/svg" width="24" height="24" viewBox="0 0 24 24" fill="none" stroke="currentColor" stroke-width="2" stroke-linecap="round" stroke-linejoin="round"><path d="M14.480 2.043 C 13.999 2.136,13.365 2.575,12.968 3.090 C 11.816 4.583,11.691 7.330,12.643 10.236 C 12.961 11.207,13.107 11.537,13.294 11.710 C 13.663 12.050,13.960 12.070,14.936 11.822 C 16.405 11.448,17.749 10.889,18.698 10.258 C 20.178 9.275,20.925 8.120,20.987 6.720 C 21.038 5.589,20.717 4.718,19.980 3.980 C 19.596 3.596,19.324 3.413,18.890 3.246 C 18.649 3.154,18.564 3.143,18.100 3.144 C 17.731 3.144,17.534 3.162,17.422 3.206 L 17.263 3.267 17.087 3.051 C 16.442 2.259,15.417 1.863,14.480 2.043 M5.920 3.044 C 4.830 3.211,3.855 3.888,3.417 4.780 C 3.320 4.978,3.213 5.247,3.180 5.378 C 3.095 5.716,3.103 6.179,3.199 6.486 C 3.243 6.626,3.279 6.742,3.279 6.744 C 3.280 6.746,3.174 6.832,3.044 6.934 C 2.251 7.556,1.846 8.640,2.061 9.556 C 2.165 9.997,2.373 10.339,2.779 10.740 C 3.677 11.627,5.014 12.041,6.800 11.986 C 8.227 11.942,9.561 11.650,11.146 11.035 C 11.607 10.856,11.813 10.677,11.939 10.347 C 12.035 10.097,12.008 9.834,11.804 9.040 C 11.286 7.020,10.514 5.436,9.551 4.419 C 8.911 3.743,8.215 3.308,7.480 3.123 C 7.081 3.023,6.310 2.984,5.920 3.044 M15.328 4.143 C 15.538 4.278,15.792 4.674,15.969 5.139 C 16.193 5.730,16.510 6.001,16.975 6.000 C 17.365 6.000,17.755 5.734,17.917 5.359 C 17.965 5.247,18.031 5.146,18.064 5.133 C 18.155 5.098,18.415 5.231,18.574 5.394 C 18.851 5.679,19.031 6.244,18.985 6.689 C 18.876 7.745,17.898 8.624,15.999 9.372 C 15.561 9.545,14.764 9.800,14.662 9.800 C 14.586 9.800,14.278 8.658,14.138 7.860 C 14.049 7.352,14.017 6.261,14.077 5.785 C 14.181 4.958,14.473 4.286,14.820 4.073 C 14.964 3.984,15.115 4.005,15.328 4.143 M6.979 5.061 C 8.079 5.348,9.116 6.861,9.750 9.105 L 9.831 9.390 9.426 9.513 C 8.243 9.872,7.586 9.978,6.540 9.978 C 5.612 9.977,5.220 9.907,4.657 9.639 C 4.291 9.464,4.000 9.190,4.000 9.019 C 4.000 8.864,4.138 8.625,4.315 8.473 C 4.492 8.322,4.950 8.086,5.275 7.980 C 5.526 7.898,5.770 7.694,5.892 7.463 C 6.013 7.233,6.012 6.805,5.889 6.573 C 5.781 6.368,5.554 6.171,5.317 6.079 C 5.112 5.999,5.081 5.914,5.182 5.702 C 5.434 5.171,6.264 4.875,6.979 5.061 M9.700 12.041 C 9.612 12.062,9.378 12.117,9.180 12.164 C 7.662 12.521,6.162 13.152,5.130 13.868 C 4.411 14.366,3.729 15.106,3.416 15.728 C 2.907 16.739,2.868 17.938,3.311 18.992 C 3.479 19.391,3.693 19.698,4.061 20.065 C 4.326 20.329,4.456 20.424,4.763 20.575 C 5.218 20.798,5.524 20.880,5.900 20.880 C 6.146 20.880,6.476 20.822,6.683 20.741 C 6.726 20.724,6.805 20.791,6.942 20.963 C 7.454 21.601,8.258 21.998,9.040 21.999 C 9.974 21.999,10.824 21.402,11.374 20.360 C 12.233 18.731,12.202 16.252,11.288 13.560 C 10.922 12.481,10.815 12.293,10.463 12.112 C 10.282 12.019,9.932 11.986,9.700 12.041 M16.400 12.063 C 15.270 12.186,14.109 12.482,12.854 12.966 C 12.393 13.144,12.187 13.322,12.061 13.653 C 11.965 13.903,11.992 14.167,12.197 14.960 C 12.724 17.008,13.499 18.593,14.468 19.603 C 15.224 20.390,15.944 20.793,16.896 20.962 C 17.262 21.027,18.009 20.989,18.409 20.884 C 19.108 20.702,19.562 20.443,20.065 19.939 C 20.581 19.423,20.880 18.738,20.880 18.075 C 20.880 17.880,20.851 17.675,20.801 17.514 C 20.757 17.374,20.721 17.258,20.721 17.256 C 20.720 17.254,20.830 17.164,20.964 17.057 C 21.601 16.546,21.998 15.741,21.999 14.960 C 21.999 13.998,21.346 13.103,20.260 12.579 C 19.220 12.077,17.897 11.900,16.400 12.063 M18.160 14.040 C 18.922 14.137,19.540 14.379,19.833 14.697 C 20.022 14.902,20.039 15.006,19.922 15.235 C 19.774 15.526,19.442 15.754,18.842 15.977 C 18.249 16.198,18.022 16.474,18.022 16.980 C 18.022 17.428,18.236 17.733,18.684 17.926 C 18.879 18.009,18.887 18.019,18.867 18.142 C 18.776 18.705,17.882 19.123,17.111 18.962 C 15.973 18.726,14.902 17.204,14.250 14.895 L 14.169 14.610 14.574 14.487 C 15.320 14.261,16.160 14.086,16.780 14.028 C 17.113 13.997,17.872 14.004,18.160 14.040 M9.719 15.340 C 9.924 16.196,9.978 16.633,9.976 17.440 C 9.973 18.336,9.886 18.833,9.640 19.343 C 9.462 19.712,9.189 20.000,9.017 20.000 C 8.649 20.000,8.228 19.482,7.980 18.725 C 7.684 17.818,6.500 17.767,6.095 18.644 C 5.984 18.883,5.980 18.887,5.846 18.866 C 5.553 18.818,5.215 18.450,5.090 18.044 C 4.996 17.737,4.997 17.167,5.093 16.893 C 5.447 15.873,6.819 14.946,8.920 14.306 L 9.380 14.166 9.492 14.513 C 9.553 14.704,9.656 15.076,9.719 15.340 " stroke="none" fill-rule="evenodd" fill="black"></path></svg>