<svg xmlns="http://www.w3.org/2000/svg" width="24" height="24" viewBox="0 0 24 24" fill="none" stroke="currentColor" stroke-width="2" stroke-linecap="round" stroke-linejoin="round"><path d="M11.540 2.024 C 10.718 2.104,10.052 2.292,9.360 2.640 C 8.749 2.947,8.370 3.221,7.844 3.733 C 6.997 4.559,6.469 5.505,6.165 6.740 C 6.050 7.208,6.000 7.702,6.000 8.385 L 6.000 8.990 5.714 9.018 C 4.495 9.138,3.485 9.970,3.114 11.160 L 3.020 11.460 3.020 15.500 L 3.020 19.540 3.114 19.840 C 3.422 20.827,4.173 21.578,5.160 21.886 L 5.460 21.980 12.000 21.980 L 18.540 21.980 18.840 21.886 C 19.827 21.578,20.578 20.827,20.886 19.840 L 20.980 19.540 20.980 15.500 L 20.980 11.460 20.886 11.160 C 20.705 10.578,20.391 10.107,19.911 9.695 C 19.475 9.321,18.893 9.078,18.291 9.018 L 18.010 8.991 17.988 8.165 C 17.964 7.268,17.904 6.886,17.673 6.164 C 17.550 5.779,17.268 5.171,17.059 4.838 C 16.729 4.313,16.115 3.635,15.620 3.250 C 14.874 2.670,13.911 2.249,12.951 2.083 C 12.692 2.038,11.783 2.000,11.540 2.024 M12.507 4.042 C 13.647 4.197,14.645 4.829,15.289 5.804 C 15.796 6.572,15.999 7.328,16.000 8.450 L 16.000 9.000 12.000 9.000 L 8.000 9.000 8.000 8.450 C 8.001 7.327,8.203 6.574,8.713 5.800 C 9.203 5.056,9.924 4.494,10.747 4.215 C 11.317 4.022,11.920 3.963,12.507 4.042 M18.310 11.061 C 18.589 11.144,18.856 11.411,18.939 11.690 C 18.992 11.866,19.000 12.389,19.000 15.501 C 19.000 19.415,19.005 19.321,18.779 19.618 C 18.718 19.698,18.585 19.813,18.484 19.872 L 18.300 19.980 12.000 19.980 L 5.700 19.980 5.516 19.872 C 5.303 19.747,5.141 19.550,5.058 19.316 C 4.969 19.062,4.971 11.991,5.061 11.690 C 5.140 11.421,5.412 11.143,5.673 11.063 C 5.963 10.974,18.010 10.972,18.310 11.061 M11.004 12.061 C 10.224 12.279,9.591 12.967,9.420 13.780 C 9.312 14.297,9.376 14.770,9.622 15.271 C 9.799 15.631,10.200 16.047,10.543 16.229 C 10.923 16.430,11.181 16.480,11.831 16.480 C 12.159 16.480,12.439 16.498,12.485 16.522 C 12.647 16.609,12.658 16.867,12.504 16.969 C 12.438 17.013,11.646 17.004,11.441 16.957 C 11.342 16.934,11.203 16.871,11.131 16.816 C 10.928 16.661,10.744 16.600,10.480 16.600 C 10.195 16.600,10.030 16.661,9.825 16.841 C 9.592 17.046,9.502 17.251,9.502 17.580 C 9.502 18.056,9.744 18.363,10.369 18.678 C 10.858 18.925,11.169 18.980,12.080 18.980 C 12.794 18.980,12.882 18.972,13.120 18.887 C 14.632 18.349,15.124 16.427,14.053 15.243 C 13.552 14.689,13.139 14.527,12.132 14.487 L 11.461 14.460 11.408 14.350 C 11.365 14.259,11.365 14.221,11.409 14.130 L 11.461 14.020 12.041 14.020 C 12.573 14.020,12.631 14.027,12.760 14.110 C 12.837 14.159,12.996 14.247,13.113 14.304 C 13.545 14.516,14.067 14.365,14.348 13.948 C 14.505 13.714,14.547 13.465,14.481 13.167 C 14.388 12.752,13.837 12.316,13.160 12.118 C 12.759 12.002,11.350 11.964,11.004 12.061 " stroke="none" fill-rule="evenodd" fill="black"></path></svg>