<svg xmlns="http://www.w3.org/2000/svg" width="24" height="24" viewBox="0 0 24 24" fill="none" stroke="currentColor" stroke-width="2" stroke-linecap="round" stroke-linejoin="round"><path d="M6.700 2.048 C 6.594 2.086,2.977 4.317,2.460 4.664 C 2.242 4.810,2.099 4.993,2.039 5.204 C 2.014 5.289,2.000 7.537,2.000 11.243 C 2.000 17.815,1.981 17.368,2.274 17.669 C 2.420 17.819,10.401 22.834,10.677 22.950 C 10.767 22.987,10.905 23.003,11.064 22.993 C 11.306 22.977,11.372 22.942,14.938 20.904 C 17.137 19.647,18.622 18.775,18.708 18.689 C 18.985 18.413,18.978 18.468,19.000 16.342 L 19.020 14.424 20.758 13.397 C 21.714 12.833,22.565 12.313,22.649 12.242 C 22.733 12.172,22.841 12.039,22.891 11.947 C 22.980 11.781,22.980 11.769,22.992 9.580 C 23.001 8.015,22.991 7.335,22.959 7.224 C 22.890 6.989,22.743 6.794,22.531 6.655 C 21.793 6.171,18.394 4.082,18.284 4.046 C 18.102 3.985,17.884 3.988,17.695 4.055 C 17.610 4.086,16.694 4.640,15.660 5.286 C 14.626 5.933,13.698 6.510,13.597 6.568 C 13.497 6.627,13.356 6.735,13.284 6.807 C 13.010 7.085,13.022 6.988,13.000 9.055 L 12.980 10.931 12.500 11.205 L 12.020 11.479 12.000 8.350 C 11.981 5.379,11.976 5.212,11.904 5.067 C 11.807 4.872,11.643 4.708,11.407 4.571 C 11.304 4.511,10.374 3.933,9.340 3.286 C 8.306 2.640,7.390 2.086,7.305 2.055 C 7.125 1.991,6.871 1.988,6.700 2.048 M8.067 4.845 C 8.635 5.200,9.104 5.493,9.108 5.497 C 9.125 5.509,7.038 6.800,7.000 6.800 C 6.978 6.800,6.492 6.508,5.921 6.151 L 4.882 5.501 5.091 5.373 C 5.206 5.302,5.669 5.011,6.120 4.726 C 6.571 4.440,6.961 4.205,6.987 4.204 C 7.012 4.202,7.498 4.490,8.067 4.845 M19.067 6.845 C 19.635 7.200,20.104 7.493,20.108 7.497 C 20.129 7.513,18.034 8.800,17.990 8.797 C 17.911 8.793,15.946 7.544,15.950 7.500 C 15.953 7.456,17.912 6.209,17.987 6.204 C 18.012 6.202,18.498 6.490,19.067 6.845 M5.100 7.990 L 5.980 8.543 6.000 12.162 C 6.019 15.637,6.023 15.786,6.097 15.936 C 6.140 16.022,6.230 16.144,6.297 16.207 C 6.365 16.270,7.221 16.821,8.200 17.432 L 9.980 18.542 9.991 19.371 L 10.002 20.201 9.665 19.990 C 9.479 19.875,8.130 19.033,6.666 18.120 L 4.003 16.460 4.002 11.889 L 4.000 7.318 4.110 7.377 C 4.171 7.410,4.616 7.686,5.100 7.990 M10.000 9.977 L 10.000 12.634 9.015 13.197 C 8.474 13.507,8.024 13.760,8.015 13.760 C 8.007 13.760,8.004 12.586,8.010 11.151 L 8.020 8.543 8.998 7.931 C 9.536 7.595,9.981 7.320,9.988 7.320 C 9.995 7.320,10.000 8.516,10.000 9.977 M16.100 9.990 L 16.980 10.543 16.991 11.373 L 17.002 12.204 16.791 12.070 C 16.675 11.996,16.224 11.714,15.790 11.443 L 15.000 10.951 15.000 10.134 L 15.000 9.318 15.110 9.377 C 15.171 9.410,15.616 9.686,16.100 9.990 M20.999 10.130 L 20.997 10.940 19.998 11.527 L 18.998 12.114 19.009 11.329 L 19.020 10.543 19.998 9.931 C 20.536 9.595,20.981 9.320,20.988 9.320 C 20.995 9.320,20.999 9.684,20.999 10.130 M14.970 13.285 C 15.504 13.618,15.945 13.894,15.951 13.899 C 15.957 13.904,14.886 14.544,13.571 15.320 C 12.256 16.097,11.144 16.756,11.100 16.784 C 11.027 16.831,10.921 16.775,10.013 16.208 C 9.460 15.863,9.001 15.566,8.994 15.550 C 8.981 15.522,13.904 12.684,13.970 12.681 C 13.987 12.681,14.437 12.952,14.970 13.285 M17.000 16.532 L 17.000 17.423 14.590 18.799 C 13.264 19.555,12.139 20.200,12.090 20.232 L 12.000 20.289 12.000 19.431 L 12.000 18.572 14.470 17.109 C 15.829 16.304,16.953 15.645,16.970 15.643 C 16.986 15.641,17.000 16.041,17.000 16.532 " stroke="none" fill-rule="evenodd" fill="black"></path></svg>