<svg xmlns="http://www.w3.org/2000/svg" width="24" height="24" viewBox="0 0 24 24" fill="none" stroke="currentColor" stroke-width="2" stroke-linecap="round" stroke-linejoin="round"><path d="M11.080 2.045 C 9.507 2.184,7.883 2.751,6.540 3.630 C 5.905 4.045,5.499 4.378,4.919 4.958 C 2.953 6.926,1.919 9.544,2.013 12.320 C 2.084 14.439,2.752 16.328,4.033 18.040 C 4.430 18.570,5.305 19.464,5.800 19.847 C 7.242 20.961,8.787 21.624,10.600 21.907 C 11.247 22.008,12.753 22.008,13.400 21.907 C 15.638 21.557,17.504 20.620,19.062 19.062 C 20.620 17.504,21.557 15.638,21.907 13.400 C 22.008 12.753,22.008 11.247,21.907 10.600 C 21.624 8.786,20.959 7.238,19.847 5.800 C 19.510 5.365,18.639 4.494,18.200 4.154 C 16.133 2.555,13.646 1.818,11.080 2.045 M12.734 4.041 C 14.574 4.216,16.228 4.976,17.554 6.256 C 20.043 8.658,20.702 12.394,19.183 15.499 C 18.749 16.387,18.223 17.105,17.496 17.801 C 16.876 18.394,16.262 18.819,15.471 19.200 C 13.267 20.265,10.733 20.265,8.529 19.200 C 7.477 18.693,6.612 18.015,5.847 17.100 C 3.848 14.711,3.440 11.302,4.816 8.500 C 6.162 5.760,8.867 4.049,11.920 4.005 C 12.129 4.003,12.495 4.019,12.734 4.041 M11.700 6.049 C 11.507 6.118,11.254 6.308,11.167 6.449 C 11.081 6.591,7.121 15.493,7.046 15.716 C 6.936 16.041,7.039 16.441,7.299 16.701 C 7.689 17.091,8.311 17.092,8.697 16.704 C 8.833 16.567,8.961 16.313,9.478 15.147 C 9.952 14.076,10.109 13.758,10.158 13.771 C 10.192 13.780,11.415 14.485,12.876 15.338 C 14.337 16.190,15.604 16.913,15.691 16.944 C 16.448 17.211,17.209 16.442,16.940 15.681 C 16.907 15.588,15.976 13.475,14.870 10.986 C 13.093 6.986,12.841 6.441,12.697 6.296 C 12.442 6.039,12.020 5.935,11.700 6.049 M12.913 11.525 C 13.403 12.627,13.798 13.534,13.792 13.540 C 13.771 13.559,10.956 11.901,10.953 11.868 C 10.948 11.819,11.973 9.520,12.000 9.520 C 12.013 9.520,12.424 10.422,12.913 11.525 " stroke="none" fill-rule="evenodd" fill="black"></path></svg>