<svg xmlns="http://www.w3.org/2000/svg" width="24" height="24" viewBox="0 0 24 24" fill="none" stroke="currentColor" stroke-width="2" stroke-linecap="round" stroke-linejoin="round"><path d="M12.689 4.059 C 12.454 4.132,12.263 4.287,12.131 4.511 C 12.038 4.669,12.020 4.746,12.020 4.980 C 12.020 5.465,12.031 5.479,13.530 6.805 L 14.857 7.980 10.299 8.000 C 6.772 8.015,5.714 8.031,5.627 8.070 C 5.022 8.339,4.817 9.065,5.198 9.591 C 5.263 9.681,5.403 9.805,5.508 9.867 L 5.700 9.980 7.636 10.000 L 9.573 10.020 5.918 12.660 C 1.898 15.564,2.060 15.429,2.013 15.890 C 1.971 16.292,2.160 16.663,2.511 16.869 C 2.673 16.964,2.743 16.980,3.000 16.979 C 3.201 16.979,3.339 16.957,3.420 16.913 C 3.486 16.877,4.539 16.125,5.760 15.243 L 7.980 13.638 8.006 14.169 C 8.049 15.028,8.213 15.658,8.585 16.391 C 8.875 16.963,9.187 17.384,9.701 17.899 C 10.606 18.806,11.726 19.424,13.075 19.761 C 15.267 20.310,17.700 19.872,19.478 18.609 C 19.900 18.309,20.564 17.672,20.856 17.289 C 22.377 15.286,22.377 12.706,20.855 10.711 C 20.599 10.376,20.004 9.784,19.671 9.533 C 19.522 9.421,18.115 8.192,16.543 6.801 C 14.971 5.410,13.626 4.229,13.554 4.176 C 13.316 4.000,13.010 3.958,12.689 4.059 M16.080 10.102 C 17.582 10.358,18.940 11.253,19.570 12.400 C 20.465 14.033,19.889 15.949,18.158 17.086 C 17.737 17.364,17.598 17.434,17.111 17.615 C 15.713 18.137,14.208 18.125,12.798 17.582 C 10.955 16.871,9.823 15.244,10.037 13.612 C 10.279 11.761,11.994 10.331,14.320 10.042 C 14.723 9.992,15.613 10.022,16.080 10.102 M14.477 12.073 C 13.806 12.249,13.238 12.823,13.060 13.508 C 12.941 13.962,13.003 14.492,13.225 14.930 C 13.361 15.199,13.801 15.639,14.070 15.775 C 14.659 16.073,15.341 16.073,15.930 15.775 C 16.196 15.640,16.638 15.200,16.771 14.937 C 16.994 14.498,17.052 14.007,16.940 13.529 C 16.858 13.182,16.720 12.927,16.465 12.653 C 16.074 12.232,15.560 12.005,15.000 12.005 C 14.857 12.005,14.622 12.036,14.477 12.073 " stroke="none" fill-rule="evenodd" fill="black"></path></svg>