<svg xmlns="http://www.w3.org/2000/svg" width="24" height="24" viewBox="0 0 24 24" fill="none" stroke="currentColor" stroke-width="2" stroke-linecap="round" stroke-linejoin="round"><path d="M6.681 3.061 C 5.774 3.226,4.863 4.029,4.550 4.940 C 4.483 5.136,3.970 7.640,3.232 11.380 C 2.034 17.452,2.025 17.504,2.022 18.020 C 2.020 18.458,2.035 18.587,2.114 18.839 C 2.292 19.407,2.544 19.827,2.934 20.207 C 3.345 20.609,3.843 20.857,4.442 20.959 C 4.625 20.990,6.540 21.000,11.000 20.992 L 17.300 20.980 17.620 20.867 C 18.043 20.718,18.354 20.523,18.704 20.191 C 19.148 19.769,19.431 19.274,19.563 18.689 C 19.586 18.585,20.138 15.800,20.790 12.500 C 21.965 6.552,21.975 6.495,21.977 5.980 C 21.980 5.542,21.965 5.413,21.886 5.160 C 21.620 4.309,21.103 3.675,20.380 3.316 C 19.734 2.996,20.370 3.023,13.300 3.014 C 8.108 3.008,6.927 3.016,6.681 3.061 M19.539 5.140 C 19.673 5.223,19.769 5.327,19.856 5.480 C 19.963 5.670,19.980 5.738,19.978 5.980 C 19.976 6.177,19.623 8.048,18.785 12.300 C 17.506 18.786,17.551 18.595,17.261 18.816 C 17.192 18.869,17.065 18.933,16.978 18.958 C 16.862 18.992,15.215 19.000,10.737 18.992 L 4.654 18.980 4.461 18.860 C 4.327 18.777,4.231 18.673,4.144 18.520 C 4.037 18.330,4.020 18.262,4.022 18.020 C 4.025 17.686,6.366 5.743,6.467 5.544 C 6.591 5.302,6.683 5.206,6.889 5.103 L 7.097 4.999 13.222 5.010 L 19.346 5.020 19.539 5.140 M8.670 7.061 C 8.448 7.142,8.250 7.309,8.128 7.516 C 8.036 7.672,8.020 7.745,8.021 8.000 C 8.021 8.212,8.043 8.341,8.095 8.440 C 8.135 8.517,8.899 9.313,9.793 10.209 C 10.795 11.214,11.403 11.852,11.379 11.874 C 11.357 11.894,10.202 12.669,8.810 13.596 C 6.152 15.367,6.157 15.363,6.039 15.736 C 5.970 15.955,6.013 16.287,6.138 16.501 C 6.368 16.892,6.842 17.083,7.280 16.960 C 7.357 16.939,8.842 15.971,10.580 14.811 C 14.195 12.396,13.980 12.574,13.980 12.003 C 13.980 11.746,13.964 11.673,13.873 11.520 C 13.813 11.419,12.834 10.412,11.653 9.235 C 9.748 7.338,9.521 7.124,9.343 7.065 C 9.107 6.987,8.874 6.986,8.670 7.061 M11.695 15.057 C 11.466 15.129,11.256 15.299,11.128 15.516 C 11.037 15.672,11.020 15.746,11.020 16.000 C 11.020 16.256,11.036 16.328,11.131 16.489 C 11.256 16.702,11.449 16.864,11.670 16.943 C 11.888 17.021,15.112 17.021,15.330 16.943 C 15.551 16.864,15.744 16.702,15.869 16.489 C 15.964 16.328,15.980 16.256,15.980 16.000 C 15.980 15.746,15.963 15.672,15.872 15.516 C 15.740 15.293,15.533 15.128,15.290 15.055 C 15.035 14.978,11.941 14.980,11.695 15.057 " stroke="none" fill-rule="evenodd" fill="black"></path></svg>