<svg xmlns="http://www.w3.org/2000/svg" width="24" height="24" viewBox="0 0 24 24" fill="none" stroke="currentColor" stroke-width="2" stroke-linecap="round" stroke-linejoin="round"><path d="M13.460 3.044 C 11.950 3.164,10.073 3.575,8.611 4.104 C 5.180 5.347,2.765 7.259,1.643 9.620 C 0.983 11.008,0.833 12.531,1.196 14.140 C 1.756 16.621,3.075 18.254,5.300 19.219 C 6.592 19.780,8.023 20.028,9.720 19.987 C 11.034 19.954,12.095 19.809,13.440 19.478 C 17.410 18.500,20.488 16.554,21.977 14.080 C 22.826 12.669,23.138 11.245,22.943 9.678 C 22.718 7.882,22.022 6.352,20.935 5.265 C 19.763 4.093,18.003 3.314,16.000 3.081 C 15.467 3.019,14.032 2.998,13.460 3.044 M15.980 5.097 C 16.881 5.230,17.560 5.433,18.219 5.766 C 19.602 6.465,20.396 7.486,20.798 9.083 C 21.090 10.246,21.040 11.358,20.651 12.304 L 20.544 12.565 20.342 12.335 C 18.974 10.775,15.960 10.548,14.176 11.870 C 12.304 13.259,12.752 15.699,15.050 16.631 C 15.198 16.691,15.319 16.752,15.320 16.766 C 15.320 16.803,14.430 17.125,13.860 17.294 C 12.876 17.587,11.823 17.808,10.840 17.928 C 10.198 18.007,8.525 17.995,7.982 17.908 C 6.818 17.722,5.951 17.405,5.161 16.877 C 4.181 16.221,3.539 15.253,3.205 13.928 C 2.693 11.893,3.193 10.228,4.795 8.639 C 5.797 7.644,7.132 6.827,8.870 6.144 C 10.193 5.624,11.892 5.208,13.200 5.083 C 13.453 5.059,13.732 5.032,13.820 5.024 C 14.147 4.991,15.593 5.040,15.980 5.097 M8.300 11.042 C 7.506 11.149,6.752 11.443,6.176 11.870 C 5.655 12.257,5.334 12.679,5.128 13.247 C 5.037 13.500,5.022 13.603,5.022 14.000 C 5.022 14.397,5.037 14.500,5.128 14.753 C 5.279 15.171,5.459 15.454,5.780 15.781 C 6.611 16.628,7.844 17.055,9.257 16.986 C 10.018 16.949,10.659 16.791,11.248 16.496 C 11.736 16.251,11.946 15.990,11.989 15.578 C 12.047 15.010,11.587 14.512,10.996 14.504 C 10.812 14.501,10.709 14.531,10.416 14.669 C 9.876 14.925,9.629 14.979,9.000 14.979 C 8.223 14.979,7.659 14.804,7.265 14.440 C 6.945 14.146,6.935 13.875,7.231 13.593 C 7.695 13.150,8.544 12.932,9.401 13.036 C 9.848 13.090,10.098 13.166,10.480 13.363 C 10.928 13.593,11.385 13.528,11.721 13.187 C 12.104 12.799,12.076 12.131,11.662 11.767 C 11.377 11.517,10.650 11.220,10.025 11.098 C 9.631 11.021,8.685 10.990,8.300 11.042 M17.467 13.042 C 18.022 13.116,18.471 13.306,18.769 13.592 C 19.065 13.876,19.055 14.146,18.735 14.440 C 18.341 14.804,17.777 14.979,17.000 14.979 C 16.223 14.979,15.659 14.804,15.265 14.440 C 14.945 14.146,14.935 13.875,15.231 13.593 C 15.523 13.314,15.902 13.144,16.420 13.060 C 16.827 12.994,17.076 12.990,17.467 13.042 " stroke="none" fill-rule="evenodd" fill="black"></path></svg>