<svg xmlns="http://www.w3.org/2000/svg" width="24" height="24" viewBox="0 0 24 24" fill="none" stroke="currentColor" stroke-width="2" stroke-linecap="round" stroke-linejoin="round"><path d="M2.695 2.057 C 2.466 2.129,2.256 2.299,2.128 2.516 L 2.020 2.700 2.010 11.914 C 2.003 17.998,2.013 21.180,2.040 21.278 C 2.099 21.498,2.291 21.739,2.508 21.867 C 2.696 21.978,2.715 21.980,3.404 21.993 C 3.825 22.001,4.172 21.989,4.268 21.963 C 4.498 21.901,4.737 21.713,4.867 21.492 C 4.964 21.327,4.980 21.257,4.980 21.000 C 4.980 20.745,4.964 20.672,4.871 20.514 C 4.730 20.275,4.485 20.096,4.214 20.035 L 4.000 19.987 4.000 11.998 L 4.000 4.009 4.179 3.982 C 4.422 3.946,4.712 3.742,4.859 3.503 C 4.966 3.329,4.980 3.271,4.980 3.003 C 4.980 2.746,4.964 2.672,4.872 2.516 C 4.740 2.293,4.533 2.128,4.290 2.055 C 4.050 1.983,2.928 1.984,2.695 2.057 M19.695 2.057 C 19.466 2.129,19.256 2.299,19.128 2.516 C 19.036 2.672,19.020 2.746,19.020 3.003 C 19.020 3.271,19.034 3.329,19.141 3.503 C 19.288 3.742,19.578 3.946,19.821 3.982 L 20.000 4.009 20.000 11.998 L 20.000 19.987 19.786 20.035 C 19.515 20.096,19.270 20.275,19.129 20.514 C 19.036 20.672,19.020 20.745,19.020 21.000 C 19.020 21.257,19.036 21.327,19.133 21.492 C 19.263 21.713,19.502 21.901,19.732 21.963 C 19.828 21.989,20.175 22.001,20.596 21.993 C 21.285 21.980,21.304 21.978,21.492 21.867 C 21.709 21.739,21.901 21.498,21.960 21.278 C 21.987 21.180,21.997 17.998,21.990 11.914 L 21.980 2.700 21.872 2.516 C 21.740 2.293,21.533 2.128,21.290 2.055 C 21.050 1.983,19.928 1.984,19.695 2.057 M6.695 8.057 C 6.466 8.129,6.256 8.299,6.128 8.516 L 6.020 8.700 6.020 12.003 L 6.020 15.306 6.141 15.503 C 6.543 16.156,7.457 16.156,7.859 15.503 L 7.980 15.306 8.000 13.223 L 8.020 11.140 8.133 10.896 C 8.276 10.586,8.586 10.278,8.900 10.134 C 9.106 10.039,9.191 10.023,9.500 10.024 C 9.808 10.024,9.896 10.040,10.104 10.135 C 10.413 10.275,10.720 10.583,10.868 10.900 L 10.980 11.140 11.000 13.223 L 11.020 15.306 11.141 15.503 C 11.543 16.156,12.457 16.156,12.859 15.503 L 12.980 15.306 13.000 13.223 L 13.020 11.140 13.132 10.900 C 13.280 10.583,13.587 10.275,13.896 10.135 C 14.104 10.040,14.192 10.024,14.500 10.024 C 14.809 10.023,14.894 10.039,15.100 10.134 C 15.414 10.278,15.724 10.586,15.867 10.896 L 15.980 11.140 16.000 13.223 L 16.020 15.306 16.141 15.503 C 16.543 16.156,17.457 16.156,17.859 15.503 L 17.980 15.306 17.991 13.283 C 17.999 12.023,17.987 11.159,17.961 10.992 C 17.747 9.609,16.736 8.483,15.378 8.114 C 14.960 8.001,14.117 7.990,13.707 8.092 C 13.141 8.233,12.513 8.564,12.153 8.910 L 12.005 9.051 11.818 8.886 C 10.819 8.007,9.429 7.768,8.191 8.264 L 7.839 8.404 7.661 8.259 C 7.372 8.022,7.034 7.951,6.695 8.057 " stroke="none" fill-rule="evenodd" fill="black"></path></svg>