<svg xmlns="http://www.w3.org/2000/svg" width="24" height="24" viewBox="0 0 24 24" fill="none" stroke="currentColor" stroke-width="2" stroke-linecap="round" stroke-linejoin="round"><path d="M2.695 5.057 C 2.183 5.217,1.881 5.794,2.050 6.289 C 2.083 6.386,2.941 7.711,3.955 9.233 L 5.800 12.000 3.953 14.770 C 2.936 16.293,2.082 17.603,2.054 17.680 C 1.932 18.016,2.033 18.435,2.299 18.701 C 2.607 19.009,2.514 19.000,5.502 19.000 C 8.349 19.000,8.316 19.002,8.603 18.792 C 8.791 18.655,10.504 16.070,10.567 15.830 C 10.666 15.452,10.484 15.005,10.140 14.782 C 9.804 14.563,9.462 14.553,9.103 14.753 C 8.916 14.857,8.843 14.951,8.183 15.933 L 7.465 17.000 6.170 17.000 C 5.145 17.000,4.882 16.990,4.905 16.950 C 4.922 16.922,5.599 15.903,6.411 14.685 C 7.223 13.467,7.913 12.398,7.944 12.310 C 8.015 12.107,8.015 11.893,7.944 11.690 C 7.913 11.602,7.223 10.533,6.411 9.315 C 5.599 8.097,4.922 7.078,4.905 7.050 C 4.882 7.010,5.145 7.000,6.171 7.000 L 7.466 7.000 11.368 12.850 C 13.854 16.578,15.315 18.733,15.396 18.792 C 15.685 19.002,15.651 19.000,18.498 19.000 C 21.486 19.000,21.393 19.009,21.701 18.701 C 21.970 18.432,22.065 18.036,21.944 17.690 C 21.913 17.602,21.058 16.286,20.043 14.765 L 18.200 12.000 20.045 9.233 C 21.059 7.711,21.917 6.386,21.950 6.289 C 22.075 5.922,21.931 5.460,21.618 5.221 C 21.328 5.000,21.328 5.000,18.524 5.001 C 16.903 5.002,15.873 5.017,15.760 5.043 C 15.406 5.124,15.327 5.214,14.393 6.611 C 13.910 7.334,13.489 7.999,13.457 8.088 C 13.190 8.847,13.957 9.609,14.718 9.341 C 14.810 9.308,14.938 9.244,15.003 9.198 C 15.068 9.151,15.439 8.638,15.828 8.057 L 16.534 7.000 17.829 7.000 C 18.855 7.000,19.118 7.010,19.095 7.050 C 19.078 7.078,18.401 8.097,17.589 9.315 C 16.777 10.533,16.087 11.602,16.056 11.690 C 15.985 11.893,15.985 12.107,16.056 12.310 C 16.087 12.398,16.777 13.467,17.589 14.685 C 18.401 15.903,19.078 16.922,19.095 16.950 C 19.118 16.990,18.855 17.000,17.829 17.000 L 16.534 17.000 12.633 11.150 C 8.471 4.908,8.633 5.133,8.240 5.043 C 7.956 4.978,2.906 4.991,2.695 5.057 " stroke="none" fill-rule="evenodd" fill="black"></path></svg>