<svg xmlns="http://www.w3.org/2000/svg" width="24" height="24" viewBox="0 0 24 24" fill="none" stroke="currentColor" stroke-width="2" stroke-linecap="round" stroke-linejoin="round"><path d="M4.643 3.069 C 4.546 3.103,4.392 3.206,4.300 3.298 C 3.973 3.625,4.000 2.852,4.002 12.017 C 4.004 20.842,3.991 20.323,4.217 20.619 C 4.444 20.917,4.918 21.071,5.264 20.960 C 5.350 20.933,6.901 20.065,8.710 19.032 L 12.000 17.154 15.290 19.032 C 17.100 20.065,18.650 20.933,18.736 20.960 C 19.082 21.071,19.556 20.917,19.783 20.619 C 20.009 20.323,19.996 20.842,19.998 12.017 C 20.000 2.854,20.026 3.624,19.701 3.299 C 19.422 3.020,19.043 2.936,18.675 3.072 C 18.573 3.109,17.030 3.975,15.245 4.995 L 12.000 6.851 8.755 4.995 C 6.970 3.975,5.427 3.109,5.325 3.072 C 5.098 2.988,4.876 2.987,4.643 3.069 M9.958 8.000 C 9.959 8.011,9.163 8.475,8.190 9.030 C 7.216 9.586,6.325 10.095,6.210 10.161 L 6.000 10.282 6.000 8.004 L 6.000 5.726 7.979 6.853 C 9.067 7.473,9.958 7.989,9.958 8.000 M17.991 9.134 L 17.980 10.269 16.010 9.144 C 14.927 8.526,14.041 8.011,14.042 8.000 C 14.042 7.989,14.929 7.475,16.011 6.859 L 17.980 5.737 17.991 6.869 C 17.996 7.491,17.996 8.510,17.991 9.134 M14.483 10.570 C 15.844 11.345,16.958 11.989,16.958 12.000 C 16.959 12.011,15.843 12.657,14.480 13.435 L 12.000 14.851 9.520 13.435 C 8.157 12.657,7.041 12.011,7.042 12.000 C 7.043 11.982,11.959 9.164,11.995 9.161 C 12.003 9.161,13.123 9.795,14.483 10.570 M9.958 16.000 C 9.959 16.011,9.163 16.475,8.190 17.030 C 7.216 17.586,6.325 18.095,6.210 18.161 L 6.000 18.282 6.000 16.004 L 6.000 13.726 7.979 14.853 C 9.067 15.473,9.958 15.989,9.958 16.000 M17.991 17.134 L 17.980 18.269 16.010 17.144 C 14.927 16.526,14.041 16.011,14.042 16.000 C 14.042 15.989,14.929 15.475,16.011 14.859 L 17.980 13.737 17.991 14.869 C 17.996 15.491,17.996 16.510,17.991 17.134 " stroke="none" fill-rule="evenodd" fill="black"></path></svg>