<svg xmlns="http://www.w3.org/2000/svg" width="24" height="24" viewBox="0 0 24 24" fill="none" stroke="currentColor" stroke-width="2" stroke-linecap="round" stroke-linejoin="round"><path d="M11.080 2.045 C 9.507 2.184,7.883 2.751,6.540 3.630 C 5.905 4.045,5.499 4.378,4.919 4.958 C 2.953 6.926,1.919 9.544,2.013 12.320 C 2.084 14.439,2.752 16.328,4.033 18.040 C 4.430 18.570,5.305 19.464,5.800 19.847 C 7.242 20.961,8.787 21.624,10.600 21.907 C 11.247 22.008,12.753 22.008,13.400 21.907 C 15.638 21.557,17.504 20.620,19.062 19.062 C 20.620 17.504,21.557 15.638,21.907 13.400 C 22.008 12.753,22.008 11.247,21.907 10.600 C 21.624 8.786,20.959 7.238,19.847 5.800 C 19.510 5.365,18.639 4.494,18.200 4.154 C 16.133 2.555,13.646 1.818,11.080 2.045 M12.734 4.041 C 14.574 4.216,16.228 4.976,17.554 6.256 C 20.043 8.658,20.702 12.394,19.183 15.499 C 18.749 16.387,18.223 17.105,17.496 17.801 C 16.876 18.394,16.262 18.819,15.471 19.200 C 13.267 20.265,10.733 20.265,8.529 19.200 C 7.477 18.693,6.612 18.015,5.847 17.100 C 3.848 14.711,3.440 11.302,4.816 8.500 C 6.162 5.760,8.867 4.049,11.920 4.005 C 12.129 4.003,12.495 4.019,12.734 4.041 M10.880 6.960 C 9.528 7.049,8.134 7.390,6.940 7.925 C 6.386 8.173,6.170 8.354,6.066 8.660 C 5.982 8.906,5.982 9.094,6.066 9.340 C 6.203 9.742,6.655 10.033,7.074 9.990 C 7.176 9.980,7.517 9.861,7.831 9.725 C 9.235 9.121,10.666 8.868,12.154 8.962 C 13.639 9.055,14.898 9.439,16.220 10.205 C 16.685 10.473,16.916 10.539,17.184 10.479 C 17.425 10.425,17.552 10.356,17.708 10.193 C 18.080 9.804,18.089 9.208,17.728 8.826 C 17.530 8.618,16.495 8.052,15.760 7.750 C 14.249 7.131,12.528 6.853,10.880 6.960 M10.570 10.125 C 9.673 10.199,8.831 10.438,7.975 10.863 C 7.206 11.244,7.019 11.464,7.022 11.980 C 7.023 12.315,7.117 12.522,7.358 12.729 C 7.548 12.892,7.750 12.960,8.039 12.960 C 8.216 12.960,8.323 12.923,8.715 12.725 C 9.484 12.337,10.120 12.160,10.960 12.101 C 11.586 12.057,12.529 12.186,13.200 12.406 C 13.621 12.544,14.187 12.823,14.597 13.095 C 15.130 13.449,15.218 13.488,15.476 13.490 C 16.240 13.494,16.715 12.741,16.380 12.057 C 16.262 11.815,16.105 11.680,15.504 11.304 C 14.443 10.638,13.214 10.235,11.900 10.122 C 11.362 10.076,11.161 10.076,10.570 10.125 M10.500 13.380 C 9.953 13.477,9.479 13.633,8.971 13.883 C 8.388 14.171,8.164 14.367,8.060 14.679 C 7.760 15.584,8.719 16.324,9.554 15.831 C 10.150 15.479,10.719 15.322,11.404 15.321 C 11.889 15.320,12.327 15.414,12.646 15.587 C 12.762 15.650,12.966 15.829,13.133 16.015 C 13.466 16.384,13.664 16.493,14.000 16.492 C 14.530 16.491,14.940 16.103,14.990 15.558 C 15.007 15.370,14.993 15.292,14.910 15.115 C 14.561 14.369,13.627 13.706,12.545 13.435 C 12.114 13.327,10.972 13.296,10.500 13.380 " stroke="none" fill-rule="evenodd" fill="black"></path></svg>