<svg xmlns="http://www.w3.org/2000/svg" width="24" height="24" viewBox="0 0 24 24" fill="none" stroke="currentColor" stroke-width="2" stroke-linecap="round" stroke-linejoin="round"><path d="M11.670 2.061 C 11.448 2.142,11.250 2.309,11.128 2.516 L 11.020 2.700 11.009 6.777 C 10.997 11.377,10.979 11.093,11.303 11.417 C 11.710 11.823,12.316 11.812,12.725 11.390 C 13.011 11.095,13.000 11.256,13.000 7.469 L 13.000 4.072 13.210 4.100 C 13.467 4.134,14.135 4.291,14.460 4.394 C 16.488 5.037,18.219 6.541,19.176 8.491 C 20.492 11.172,20.196 14.362,18.406 16.774 C 16.549 19.279,13.358 20.478,10.320 19.814 C 8.173 19.345,6.338 18.045,5.191 16.180 C 3.466 13.377,3.643 9.782,5.634 7.167 C 5.763 6.998,6.014 6.700,6.193 6.505 C 6.567 6.095,6.664 5.882,6.628 5.540 C 6.557 4.851,5.843 4.443,5.220 4.734 C 4.838 4.913,3.977 5.935,3.412 6.880 C 1.971 9.293,1.617 12.246,2.445 14.940 C 3.263 17.596,5.185 19.827,7.680 21.014 C 10.857 22.526,14.543 22.282,17.463 20.367 C 18.131 19.928,18.503 19.624,19.081 19.044 C 19.628 18.494,19.968 18.077,20.371 17.460 C 22.138 14.754,22.484 11.361,21.300 8.335 C 20.061 5.166,17.169 2.778,13.845 2.180 C 12.876 2.006,11.956 1.956,11.670 2.061 " stroke="none" fill-rule="evenodd" fill="black"></path></svg>