<svg xmlns="http://www.w3.org/2000/svg" width="24" height="24" viewBox="0 0 24 24" fill="none" stroke="currentColor" stroke-width="2" stroke-linecap="round" stroke-linejoin="round"><path d="M5.220 2.119 C 4.826 2.220,4.611 2.416,4.437 2.832 C 4.266 3.240,4.140 3.706,4.079 4.154 C 4.022 4.566,4.046 5.432,4.124 5.826 L 4.173 6.073 4.022 6.283 C 3.527 6.972,3.162 7.932,3.037 8.872 C 2.978 9.319,3.009 10.379,3.099 11.000 C 3.467 13.539,4.800 15.210,7.080 15.992 C 7.333 16.079,7.639 16.172,7.760 16.199 L 7.980 16.249 7.989 17.241 L 7.999 18.233 7.840 18.260 C 7.579 18.304,7.063 18.293,6.834 18.239 C 6.228 18.097,5.940 17.825,5.039 16.548 C 4.606 15.935,4.303 15.608,3.952 15.375 C 3.638 15.166,3.228 15.000,3.025 15.000 C 2.328 15.000,1.839 15.673,2.061 16.325 C 2.152 16.592,2.328 16.779,2.615 16.915 C 2.923 17.060,3.031 17.179,3.660 18.064 C 4.647 19.452,5.434 20.027,6.640 20.241 C 6.900 20.287,7.891 20.303,7.957 20.262 C 7.976 20.250,7.998 20.479,8.006 20.773 C 8.019 21.285,8.025 21.314,8.141 21.503 C 8.543 22.156,9.457 22.156,9.859 21.503 L 9.980 21.306 9.982 18.923 C 9.985 16.341,9.973 16.476,10.212 16.202 C 10.512 15.856,10.576 15.407,10.377 15.042 C 10.174 14.668,9.962 14.558,9.262 14.461 C 8.682 14.381,7.847 14.170,7.440 14.001 C 6.083 13.438,5.349 12.419,5.093 10.743 C 4.990 10.069,5.000 9.035,5.112 8.620 C 5.241 8.146,5.550 7.553,5.862 7.180 C 6.325 6.629,6.375 6.404,6.177 5.760 C 6.070 5.414,6.060 5.328,6.060 4.793 C 6.060 4.471,6.074 4.193,6.091 4.176 C 6.134 4.133,6.632 4.298,7.060 4.498 C 7.258 4.591,7.678 4.822,7.994 5.011 C 8.705 5.439,8.755 5.449,9.437 5.304 C 10.693 5.036,11.628 4.958,12.694 5.033 C 13.431 5.085,13.759 5.132,14.563 5.304 C 15.245 5.449,15.295 5.439,16.006 5.011 C 16.322 4.822,16.742 4.591,16.940 4.498 C 17.368 4.298,17.866 4.133,17.909 4.176 C 17.926 4.193,17.940 4.471,17.940 4.793 C 17.939 5.339,17.930 5.411,17.809 5.819 C 17.691 6.214,17.682 6.278,17.720 6.459 C 17.771 6.703,17.868 6.867,18.173 7.226 C 18.449 7.551,18.765 8.168,18.888 8.620 C 18.961 8.891,18.975 9.045,18.974 9.620 C 18.972 11.030,18.695 12.048,18.089 12.865 C 17.455 13.720,16.359 14.240,14.720 14.462 C 14.145 14.540,13.890 14.653,13.701 14.913 C 13.537 15.139,13.478 15.406,13.529 15.688 C 13.563 15.878,13.646 16.026,13.890 16.333 L 13.980 16.446 14.000 18.876 L 14.020 21.306 14.141 21.503 C 14.543 22.156,15.457 22.156,15.859 21.503 L 15.980 21.306 15.989 18.785 L 15.999 16.263 16.329 16.175 C 18.981 15.466,20.503 13.743,20.901 11.000 C 20.991 10.379,21.022 9.319,20.963 8.872 C 20.838 7.932,20.473 6.972,19.978 6.283 L 19.827 6.073 19.876 5.826 C 19.954 5.432,19.978 4.566,19.921 4.154 C 19.817 3.390,19.536 2.616,19.278 2.383 C 19.061 2.187,18.872 2.116,18.497 2.091 C 17.695 2.038,16.558 2.391,15.382 3.058 L 14.904 3.329 14.702 3.285 C 14.190 3.173,13.437 3.076,12.750 3.032 C 11.659 2.963,10.326 3.061,9.298 3.285 L 9.096 3.329 8.618 3.058 C 7.768 2.576,6.977 2.269,6.258 2.143 C 5.883 2.077,5.424 2.067,5.220 2.119 " stroke="none" fill-rule="evenodd" fill="black"></path></svg>