<svg xmlns="http://www.w3.org/2000/svg" width="24" height="24" viewBox="0 0 24 24" fill="none" stroke="currentColor" stroke-width="2" stroke-linecap="round" stroke-linejoin="round"><path d="M11.000 3.045 C 8.793 3.225,6.596 4.099,4.999 5.433 C 2.599 7.437,1.567 10.250,2.179 13.119 C 2.397 14.140,2.971 15.316,3.710 16.257 C 4.280 16.982,5.281 17.864,6.104 18.367 C 6.306 18.491,6.440 18.599,6.440 18.638 C 6.440 18.674,6.341 19.197,6.220 19.800 C 6.099 20.403,6.000 20.953,6.000 21.023 C 6.000 21.195,6.100 21.466,6.222 21.626 C 6.443 21.916,6.900 22.063,7.268 21.963 C 7.381 21.933,7.913 21.578,8.868 20.897 C 10.215 19.936,10.307 19.877,10.439 19.898 C 11.746 20.102,13.432 20.004,14.860 19.640 C 19.894 18.360,22.886 14.027,21.758 9.652 C 21.247 7.670,19.881 5.886,17.931 4.654 C 17.465 4.360,16.489 3.886,15.930 3.683 C 14.421 3.135,12.672 2.909,11.000 3.045 M13.313 5.099 C 16.520 5.522,19.146 7.563,19.824 10.159 C 20.109 11.252,20.020 12.523,19.587 13.550 C 18.424 16.307,15.209 18.110,11.680 17.984 C 11.295 17.970,10.818 17.933,10.620 17.901 C 10.132 17.822,9.854 17.826,9.658 17.915 C 9.569 17.956,9.265 18.155,8.982 18.358 C 8.565 18.658,8.473 18.710,8.493 18.634 C 8.636 18.090,8.615 17.805,8.408 17.479 C 8.289 17.293,8.232 17.255,7.416 16.814 C 6.624 16.385,5.708 15.592,5.161 14.861 C 3.785 13.021,3.627 10.762,4.738 8.801 C 5.612 7.257,7.228 6.026,9.160 5.433 C 9.853 5.220,10.525 5.099,11.440 5.023 C 11.763 4.996,12.876 5.041,13.313 5.099 M9.695 7.057 C 9.466 7.129,9.256 7.299,9.128 7.516 L 9.020 7.700 9.020 11.503 L 9.020 15.306 9.141 15.503 C 9.543 16.156,10.457 16.156,10.859 15.503 L 10.980 15.307 11.000 14.007 C 11.018 12.851,11.026 12.725,11.074 12.859 C 11.104 12.942,11.628 13.633,12.237 14.395 C 13.436 15.892,13.492 15.947,13.891 15.987 C 14.447 16.044,14.931 15.656,14.988 15.107 C 15.028 14.722,14.957 14.597,14.097 13.521 C 13.666 12.982,13.307 12.531,13.299 12.518 C 13.291 12.505,13.643 12.046,14.082 11.497 C 14.958 10.402,15.028 10.279,14.988 9.893 C 14.932 9.350,14.441 8.951,13.905 9.014 C 13.475 9.065,13.445 9.094,12.240 10.601 C 11.629 11.365,11.104 12.058,11.074 12.141 C 11.027 12.272,11.017 11.992,11.000 9.996 L 10.980 7.700 10.872 7.516 C 10.628 7.101,10.150 6.915,9.695 7.057 " stroke="none" fill-rule="evenodd" fill="black"></path></svg>