<svg xmlns="http://www.w3.org/2000/svg" width="24" height="24" viewBox="0 0 24 24" fill="none" stroke="currentColor" stroke-width="2" stroke-linecap="round" stroke-linejoin="round"><path d="M11.080 2.045 C 9.507 2.184,7.883 2.751,6.540 3.630 C 5.905 4.045,5.499 4.378,4.919 4.958 C 2.953 6.926,1.919 9.544,2.013 12.320 C 2.084 14.439,2.752 16.328,4.033 18.040 C 4.430 18.570,5.305 19.464,5.800 19.847 C 7.242 20.961,8.787 21.624,10.600 21.907 C 11.247 22.008,12.753 22.008,13.400 21.907 C 15.638 21.557,17.504 20.620,19.062 19.062 C 20.620 17.504,21.557 15.638,21.907 13.400 C 22.008 12.753,22.008 11.247,21.907 10.600 C 21.624 8.786,20.959 7.238,19.847 5.800 C 19.510 5.365,18.639 4.494,18.200 4.154 C 16.133 2.555,13.646 1.818,11.080 2.045 M13.576 4.161 C 14.751 4.386,16.080 5.006,17.000 5.759 C 17.631 6.275,18.266 6.974,18.691 7.620 C 19.393 8.686,19.923 10.228,19.936 11.238 L 19.940 11.575 19.700 11.748 C 19.056 12.211,18.149 12.701,17.360 13.011 C 16.915 13.186,16.275 13.400,16.198 13.400 C 16.177 13.400,16.160 13.323,16.160 13.229 C 16.160 12.706,15.975 11.846,15.733 11.245 C 15.250 10.046,14.299 9.030,13.099 8.431 C 12.434 8.098,11.828 7.936,10.994 7.866 L 10.448 7.820 10.579 7.380 C 10.953 6.118,11.562 4.970,12.280 4.171 L 12.421 4.015 12.780 4.047 C 12.978 4.064,13.336 4.115,13.576 4.161 M9.680 4.378 C 9.680 4.388,9.629 4.483,9.568 4.588 C 9.267 5.101,8.881 6.044,8.663 6.798 C 8.150 8.569,7.983 10.284,8.007 13.520 L 8.020 15.300 8.131 15.489 C 8.260 15.708,8.434 15.852,8.683 15.944 C 8.832 16.000,9.101 16.013,10.367 16.030 C 12.285 16.056,13.419 15.986,14.840 15.758 C 16.375 15.511,17.948 15.008,19.284 14.338 L 19.715 14.122 19.654 14.331 C 19.388 15.247,18.806 16.319,18.153 17.100 C 17.388 18.015,16.523 18.693,15.471 19.200 C 13.267 20.265,10.733 20.265,8.529 19.200 C 7.477 18.693,6.612 18.015,5.847 17.100 C 4.102 15.014,3.551 12.113,4.403 9.502 C 5.144 7.236,6.927 5.373,9.176 4.516 C 9.560 4.370,9.680 4.337,9.680 4.378 M11.320 9.925 C 12.374 10.118,13.316 10.842,13.786 11.820 C 14.054 12.380,14.184 13.035,14.133 13.579 C 14.111 13.815,14.100 13.838,14.004 13.859 C 13.621 13.941,12.570 14.009,11.370 14.028 L 10.000 14.050 10.001 12.975 C 10.001 11.945,10.052 10.531,10.104 10.092 L 10.129 9.884 10.334 9.868 C 10.596 9.847,11.037 9.873,11.320 9.925 " stroke="none" fill-rule="evenodd" fill="black"></path></svg>