<svg xmlns="http://www.w3.org/2000/svg" width="24" height="24" viewBox="0 0 24 24" fill="none" stroke="currentColor" stroke-width="2" stroke-linecap="round" stroke-linejoin="round"><path d="M5.040 3.027 C 4.436 3.122,4.025 3.269,3.585 3.550 C 2.815 4.040,2.303 4.775,2.073 5.720 C 2.003 6.010,2.003 6.990,2.073 7.280 C 2.148 7.588,2.313 8.027,2.434 8.240 C 2.798 8.884,3.432 9.453,4.088 9.723 C 4.539 9.909,4.850 9.968,5.526 9.995 L 6.151 10.020 4.354 12.800 C 3.366 14.329,2.492 15.705,2.414 15.858 C 2.148 16.376,2.051 16.726,2.015 17.300 C 1.923 18.788,2.895 20.233,4.342 20.756 C 5.053 21.014,4.745 21.003,11.242 20.989 C 16.602 20.977,17.162 20.970,17.382 20.909 C 18.625 20.566,19.497 19.719,19.864 18.500 C 19.960 18.181,19.973 18.071,19.976 17.540 C 19.980 16.905,19.950 16.710,19.771 16.220 C 19.386 15.168,18.458 14.357,17.340 14.095 C 17.186 14.058,16.785 14.018,16.448 14.004 L 15.836 13.980 18.866 9.220 C 20.532 6.602,21.918 4.397,21.946 4.320 C 22.070 3.976,21.967 3.561,21.691 3.293 C 21.364 2.976,22.067 2.999,13.123 3.005 C 8.732 3.008,5.095 3.018,5.040 3.027 M19.090 5.130 C 19.048 5.202,17.685 7.346,16.062 9.895 C 14.439 12.444,13.084 14.611,13.051 14.709 C 12.926 15.075,13.071 15.547,13.381 15.783 C 13.650 15.989,13.716 15.996,15.203 15.998 C 16.022 15.999,16.681 16.018,16.821 16.044 C 17.621 16.192,18.104 16.920,17.964 17.768 C 17.879 18.281,17.601 18.653,17.140 18.868 L 16.900 18.980 11.200 18.991 C 7.232 18.998,5.437 18.988,5.291 18.958 C 4.791 18.854,4.339 18.501,4.128 18.049 C 4.037 17.854,4.021 17.766,4.021 17.460 C 4.022 17.151,4.036 17.071,4.126 16.897 C 4.183 16.785,5.278 15.069,6.559 13.083 C 7.840 11.096,8.915 9.390,8.949 9.292 C 9.109 8.823,8.852 8.280,8.373 8.071 C 8.293 8.036,7.803 8.016,6.680 8.001 L 5.100 7.980 4.860 7.868 C 4.399 7.653,4.121 7.281,4.036 6.768 C 3.982 6.442,4.034 6.049,4.166 5.784 C 4.273 5.571,4.538 5.295,4.740 5.189 C 5.091 5.004,4.954 5.007,12.254 5.003 L 19.168 5.000 19.090 5.130 " stroke="none" fill-rule="evenodd" fill="black"></path></svg>