<svg xmlns="http://www.w3.org/2000/svg" width="24" height="24" viewBox="0 0 24 24" fill="none" stroke="currentColor" stroke-width="2" stroke-linecap="round" stroke-linejoin="round"><path d="M15.699 3.053 C 15.611 3.082,15.487 3.139,15.425 3.180 C 15.363 3.221,14.082 4.853,12.579 6.807 L 9.846 10.360 8.253 8.291 C 6.451 5.951,6.519 6.020,5.995 6.020 C 5.732 6.020,5.710 6.029,4.595 6.580 C 3.349 7.196,3.185 7.312,3.066 7.660 C 3.006 7.836,3.000 8.246,3.000 12.000 C 3.000 15.754,3.006 16.164,3.066 16.340 C 3.185 16.688,3.349 16.804,4.595 17.420 C 5.710 17.971,5.732 17.980,5.995 17.980 C 6.519 17.980,6.451 18.049,8.253 15.709 L 9.846 13.640 12.593 17.209 C 15.687 21.227,15.463 20.980,16.007 20.980 L 16.276 20.980 18.406 19.920 C 20.724 18.767,20.806 18.716,20.934 18.340 C 20.994 18.163,21.000 17.616,21.000 12.000 C 21.000 6.384,20.994 5.837,20.934 5.660 C 20.806 5.284,20.723 5.233,18.418 4.087 C 16.125 2.947,16.077 2.929,15.699 3.053 M17.660 5.950 L 19.000 6.619 19.000 12.000 L 19.000 17.381 17.654 18.053 C 16.356 18.702,16.306 18.723,16.237 18.653 C 16.143 18.556,11.121 12.026,11.121 12.000 C 11.121 11.983,15.817 5.866,16.164 5.430 C 16.230 5.348,16.292 5.280,16.302 5.280 C 16.312 5.280,16.923 5.581,17.660 5.950 M7.152 10.139 C 7.966 11.196,8.555 11.996,8.543 12.027 C 8.517 12.095,5.769 15.669,5.720 15.700 C 5.701 15.712,5.531 15.645,5.342 15.552 L 5.000 15.382 5.000 12.000 L 5.000 8.618 5.330 8.451 C 5.511 8.360,5.678 8.290,5.700 8.295 C 5.722 8.301,6.375 9.131,7.152 10.139 " stroke="none" fill-rule="evenodd" fill="black"></path></svg>