<svg xmlns="http://www.w3.org/2000/svg" width="24" height="24" viewBox="0 0 24 24" fill="none" stroke="currentColor" stroke-width="2" stroke-linecap="round" stroke-linejoin="round"><path d="M14.072 1.336 C 13.991 1.365,13.865 1.438,13.792 1.497 C 13.720 1.557,11.726 3.535,9.363 5.893 C 6.626 8.624,4.981 10.295,4.832 10.496 C 4.155 11.405,3.868 12.595,4.060 13.696 C 4.169 14.319,4.439 14.970,4.786 15.445 C 5.044 15.798,9.149 19.939,9.477 20.177 C 10.787 21.128,12.571 21.255,13.957 20.496 C 14.444 20.229,14.735 19.971,16.125 18.573 C 17.405 17.285,17.514 17.164,17.580 16.965 C 17.833 16.190,17.124 15.471,16.334 15.700 C 16.105 15.766,16.066 15.801,14.660 17.199 C 13.103 18.747,13.025 18.809,12.470 18.940 C 11.966 19.059,11.497 19.005,11.000 18.771 C 10.712 18.636,10.618 18.549,8.727 16.665 C 7.643 15.584,6.658 14.582,6.539 14.437 C 6.107 13.912,5.937 13.321,6.031 12.673 C 6.091 12.263,6.253 11.911,6.546 11.553 C 6.669 11.403,7.657 10.401,8.741 9.326 C 10.582 7.503,10.733 7.363,11.011 7.226 C 11.589 6.940,12.290 6.934,12.895 7.207 C 13.162 7.328,13.269 7.424,14.561 8.706 C 16.062 10.195,16.116 10.238,16.531 10.239 C 16.815 10.240,17.012 10.162,17.215 9.968 C 17.427 9.765,17.518 9.552,17.518 9.260 C 17.518 8.836,17.476 8.781,16.088 7.387 C 15.391 6.687,14.712 6.028,14.580 5.923 C 14.173 5.599,13.663 5.337,13.063 5.142 C 12.999 5.121,13.187 4.913,14.148 3.948 C 15.399 2.691,15.411 2.675,15.411 2.261 C 15.411 1.886,15.168 1.512,14.821 1.355 C 14.631 1.269,14.285 1.260,14.072 1.336 M11.695 12.057 C 11.465 12.129,11.256 12.299,11.128 12.516 C 11.037 12.672,11.020 12.746,11.020 13.000 C 11.020 13.256,11.036 13.328,11.131 13.489 C 11.256 13.702,11.449 13.864,11.670 13.943 C 11.791 13.986,12.572 13.997,15.760 13.998 L 19.700 13.999 19.900 13.905 C 20.281 13.724,20.488 13.405,20.488 13.000 C 20.488 12.615,20.293 12.297,19.940 12.106 L 19.780 12.020 15.820 12.012 C 12.660 12.006,11.827 12.015,11.695 12.057 " stroke="none" fill-rule="evenodd" fill="black"></path></svg>