<svg xmlns="http://www.w3.org/2000/svg" width="24" height="24" viewBox="0 0 24 24" fill="none" stroke="currentColor" stroke-width="2" stroke-linecap="round" stroke-linejoin="round"><path d="M1.700 5.047 C 1.503 5.122,1.294 5.268,1.203 5.395 C 0.909 5.809,0.948 6.350,1.298 6.700 C 1.450 6.852,1.670 6.948,4.183 7.953 L 6.903 9.041 6.610 11.771 C 6.258 15.056,6.258 15.052,6.316 15.487 C 6.450 16.496,6.925 17.388,7.663 18.015 C 8.754 18.943,10.116 19.218,11.638 18.817 C 12.415 18.613,13.142 18.213,13.817 17.619 L 14.174 17.305 14.274 17.443 C 14.440 17.668,14.902 18.105,15.165 18.283 C 15.775 18.698,16.500 18.946,17.221 18.987 C 19.355 19.110,21.427 17.796,22.307 15.761 C 22.614 15.050,22.653 14.784,22.840 12.120 C 22.977 10.170,23.002 9.668,22.965 9.536 C 22.901 9.302,22.713 9.063,22.492 8.933 C 22.327 8.836,22.257 8.820,22.000 8.820 C 21.743 8.820,21.673 8.836,21.508 8.933 C 21.292 9.060,21.099 9.302,21.041 9.516 C 21.020 9.595,20.931 10.686,20.842 11.940 C 20.753 13.194,20.661 14.319,20.636 14.440 C 20.439 15.412,19.632 16.361,18.671 16.750 C 18.300 16.901,18.060 16.957,17.673 16.986 C 17.001 17.036,16.478 16.849,16.040 16.403 C 15.738 16.096,15.579 15.797,15.492 15.373 C 15.438 15.106,15.438 15.024,15.493 14.587 C 15.526 14.319,15.621 13.479,15.703 12.720 C 15.869 11.182,15.868 11.150,15.629 10.832 C 15.126 10.164,14.033 10.405,13.865 11.220 C 13.851 11.286,13.768 11.988,13.680 12.780 C 13.497 14.419,13.457 14.643,13.262 15.064 C 12.757 16.157,11.692 16.903,10.518 16.987 C 9.891 17.031,9.365 16.861,8.946 16.478 C 8.511 16.081,8.311 15.636,8.309 15.060 C 8.308 14.862,8.461 13.275,8.650 11.533 C 9.008 8.230,9.009 8.208,8.859 7.918 C 8.693 7.596,8.695 7.598,5.386 6.274 C 2.090 4.956,2.011 4.930,1.700 5.047 " stroke="none" fill-rule="evenodd" fill="black"></path></svg>