<svg xmlns="http://www.w3.org/2000/svg" width="24" height="24" viewBox="0 0 24 24" fill="none" stroke="currentColor" stroke-width="2" stroke-linecap="round" stroke-linejoin="round"><path d="M11.080 2.042 C 9.169 2.225,7.360 2.948,5.800 4.154 C 5.303 4.538,4.429 5.432,4.033 5.960 C 2.625 7.841,1.935 10.012,2.013 12.320 C 2.084 14.439,2.752 16.328,4.033 18.040 C 4.430 18.570,5.305 19.464,5.800 19.847 C 7.242 20.961,8.787 21.624,10.600 21.907 C 11.247 22.008,12.753 22.008,13.400 21.907 C 15.638 21.557,17.504 20.620,19.062 19.062 C 20.620 17.504,21.556 15.642,21.907 13.400 C 22.001 12.801,21.999 11.481,21.904 10.760 C 21.559 8.159,20.272 5.860,18.240 4.215 C 16.847 3.088,15.081 2.336,13.280 2.104 C 12.685 2.027,11.564 1.996,11.080 2.042 M13.360 4.096 C 15.927 4.576,18.026 6.131,19.155 8.392 C 19.686 9.454,19.945 10.448,19.988 11.580 C 20.065 13.654,19.425 15.580,18.153 17.100 C 17.388 18.015,16.523 18.693,15.471 19.200 C 13.267 20.265,10.733 20.265,8.529 19.200 C 7.477 18.693,6.612 18.015,5.847 17.100 C 3.848 14.711,3.440 11.302,4.816 8.500 C 6.046 5.996,8.435 4.329,11.207 4.041 C 11.701 3.989,12.961 4.022,13.360 4.096 M9.667 8.065 C 9.415 8.142,9.155 8.400,9.066 8.660 C 9.007 8.835,9.000 9.175,9.002 12.017 C 9.004 15.427,8.998 15.332,9.217 15.619 C 9.444 15.917,9.919 16.071,10.264 15.960 C 10.350 15.932,11.603 15.200,13.049 14.333 C 14.892 13.228,15.708 12.718,15.778 12.626 C 16.065 12.250,16.067 11.753,15.784 11.382 C 15.707 11.280,14.975 10.821,13.049 9.667 C 11.603 8.801,10.359 8.071,10.284 8.046 C 10.106 7.986,9.905 7.992,9.667 8.065 M11.994 11.366 C 12.514 11.677,12.961 11.951,12.987 11.976 C 13.022 12.009,12.777 12.174,12.017 12.628 L 11.000 13.236 11.000 12.018 C 11.000 11.348,11.011 10.800,11.024 10.800 C 11.037 10.800,11.473 11.054,11.994 11.366 " stroke="none" fill-rule="evenodd" fill="black"></path></svg>