<svg xmlns="http://www.w3.org/2000/svg" width="24" height="24" viewBox="0 0 24 24" fill="none" stroke="currentColor" stroke-width="2" stroke-linecap="round" stroke-linejoin="round"><path d="M11.300 2.027 C 9.590 2.109,8.513 2.411,7.576 3.073 C 6.957 3.510,6.168 4.402,5.747 5.140 C 4.794 6.814,4.752 9.038,5.639 10.904 C 5.765 11.170,5.946 11.503,6.041 11.644 C 6.799 12.768,7.959 13.726,9.380 14.401 C 10.094 14.740,10.664 14.955,11.830 15.322 C 12.823 15.635,12.877 15.657,12.816 15.724 C 12.501 16.072,11.512 16.078,10.070 15.742 C 8.914 15.472,8.122 15.198,7.245 14.765 C 6.801 14.545,6.724 14.520,6.505 14.520 C 6.068 14.521,5.746 14.736,5.578 15.138 C 5.515 15.290,5.000 19.214,5.001 19.540 C 5.002 19.741,5.126 20.020,5.292 20.194 C 5.522 20.434,6.755 21.004,7.720 21.315 C 10.767 22.298,14.224 22.207,16.630 21.080 C 17.417 20.711,18.313 19.974,18.865 19.241 C 20.145 17.542,20.375 14.717,19.396 12.698 C 18.591 11.036,17.138 9.958,14.280 8.901 C 13.576 8.641,12.600 8.183,12.600 8.114 C 12.600 8.080,12.774 8.074,13.270 8.092 C 14.668 8.145,15.789 8.372,16.900 8.829 C 17.290 8.989,17.365 9.007,17.563 8.989 C 17.943 8.955,18.284 8.712,18.424 8.376 C 18.504 8.185,19.011 4.104,18.984 3.866 C 18.959 3.634,18.807 3.360,18.629 3.224 C 18.363 3.022,17.374 2.658,16.544 2.458 C 15.050 2.098,13.117 1.939,11.300 2.027 M13.541 4.041 C 14.288 4.090,14.971 4.173,15.536 4.284 C 15.963 4.368,16.792 4.585,16.865 4.632 C 16.895 4.652,16.873 4.947,16.789 5.620 C 16.723 6.148,16.666 6.585,16.661 6.591 C 16.656 6.597,16.438 6.549,16.176 6.484 C 15.086 6.214,14.238 6.108,13.140 6.106 C 12.394 6.105,12.264 6.115,11.981 6.193 C 11.415 6.350,10.862 6.764,10.641 7.197 C 10.355 7.759,10.411 8.542,10.778 9.095 C 11.190 9.715,11.927 10.150,13.700 10.819 C 16.312 11.804,17.383 12.677,17.818 14.177 C 18.107 15.176,18.022 16.557,17.618 17.434 C 17.279 18.165,16.608 18.853,15.866 19.227 C 15.273 19.526,14.413 19.773,13.500 19.906 C 12.825 20.005,11.217 20.006,10.520 19.907 C 9.464 19.758,8.120 19.393,7.348 19.044 C 7.081 18.924,7.076 18.919,7.098 18.791 C 7.120 18.663,7.320 17.075,7.320 17.031 C 7.320 17.018,7.585 17.098,7.908 17.208 C 8.950 17.562,10.207 17.850,11.180 17.959 C 12.564 18.114,13.532 17.840,14.280 17.084 C 15.194 16.160,15.242 14.913,14.390 14.235 C 14.072 13.982,13.638 13.797,12.560 13.457 C 11.315 13.064,10.866 12.896,10.219 12.582 C 8.905 11.944,7.981 11.117,7.490 10.140 C 7.158 9.479,7.023 8.869,7.025 8.040 C 7.027 7.149,7.202 6.554,7.671 5.843 C 8.252 4.965,9.002 4.409,9.886 4.203 C 10.648 4.026,12.220 3.956,13.541 4.041 " stroke="none" fill-rule="evenodd" fill="black"></path></svg>