<svg xmlns="http://www.w3.org/2000/svg" width="24" height="24" viewBox="0 0 24 24" fill="none" stroke="currentColor" stroke-width="2" stroke-linecap="round" stroke-linejoin="round"><path d="M5.499 5.043 C 4.389 5.231,3.454 6.055,3.123 7.137 C 3.018 7.481,2.974 8.040,3.035 8.264 C 3.147 8.676,3.479 8.937,3.972 8.999 C 4.355 9.048,4.509 9.112,4.699 9.301 C 4.974 9.576,4.977 9.596,5.000 11.020 L 5.020 12.300 5.131 12.489 C 5.256 12.702,5.449 12.864,5.670 12.943 C 5.892 13.022,18.108 13.022,18.330 12.943 C 18.551 12.864,18.744 12.702,18.869 12.489 L 18.980 12.300 19.000 11.020 C 19.023 9.596,19.026 9.576,19.301 9.301 C 19.491 9.112,19.645 9.048,20.028 8.999 C 20.392 8.953,20.631 8.827,20.802 8.591 C 20.969 8.360,21.014 8.159,20.986 7.757 C 20.902 6.551,20.053 5.498,18.861 5.121 L 18.540 5.020 12.120 5.014 C 8.589 5.011,5.609 5.024,5.499 5.043 M18.303 7.061 C 18.481 7.115,18.715 7.262,18.676 7.295 C 18.667 7.302,18.579 7.355,18.480 7.412 C 18.059 7.655,17.573 8.163,17.344 8.600 C 17.077 9.109,17.031 9.333,17.010 10.210 L 16.991 11.000 12.000 11.000 L 7.009 11.000 6.990 10.210 C 6.969 9.333,6.923 9.109,6.656 8.600 C 6.427 8.163,5.941 7.655,5.520 7.412 C 5.421 7.355,5.333 7.302,5.324 7.295 C 5.287 7.264,5.514 7.116,5.680 7.063 C 5.958 6.974,18.013 6.972,18.303 7.061 M2.695 10.057 C 2.466 10.129,2.256 10.299,2.128 10.516 L 2.020 10.700 2.020 14.503 L 2.020 18.306 2.141 18.503 C 2.209 18.613,2.346 18.756,2.452 18.828 C 2.923 19.144,3.554 18.999,3.859 18.503 L 3.980 18.306 3.980 14.503 L 3.980 10.700 3.872 10.516 C 3.628 10.101,3.150 9.915,2.695 10.057 M20.695 10.057 C 20.466 10.129,20.256 10.299,20.128 10.516 L 20.020 10.700 20.020 14.503 L 20.020 18.306 20.141 18.503 C 20.543 19.156,21.457 19.156,21.859 18.503 L 21.980 18.306 21.980 14.503 L 21.980 10.700 21.872 10.516 C 21.628 10.101,21.150 9.915,20.695 10.057 M5.695 14.057 C 5.466 14.129,5.256 14.299,5.128 14.516 C 5.037 14.672,5.020 14.746,5.020 15.000 C 5.020 15.256,5.036 15.328,5.131 15.489 C 5.256 15.702,5.449 15.864,5.670 15.943 C 5.793 15.987,6.938 15.996,12.000 15.996 C 17.062 15.996,18.207 15.987,18.330 15.943 C 18.551 15.864,18.744 15.702,18.869 15.489 C 18.964 15.328,18.980 15.256,18.980 15.000 C 18.980 14.746,18.963 14.672,18.872 14.516 C 18.740 14.293,18.533 14.128,18.290 14.055 C 18.028 13.976,5.947 13.978,5.695 14.057 M5.695 17.057 C 5.466 17.129,5.256 17.299,5.128 17.516 C 5.037 17.672,5.020 17.746,5.020 18.000 C 5.020 18.256,5.036 18.328,5.131 18.489 C 5.256 18.702,5.449 18.864,5.670 18.943 C 5.793 18.987,6.938 18.996,12.000 18.996 C 17.062 18.996,18.207 18.987,18.330 18.943 C 18.551 18.864,18.744 18.702,18.869 18.489 C 18.964 18.328,18.980 18.256,18.980 18.000 C 18.980 17.746,18.963 17.672,18.872 17.516 C 18.740 17.293,18.533 17.128,18.290 17.055 C 18.028 16.976,5.947 16.978,5.695 17.057 " stroke="none" fill-rule="evenodd" fill="black"></path></svg>