<svg xmlns="http://www.w3.org/2000/svg" width="24" height="24" viewBox="0 0 24 24" fill="none" stroke="currentColor" stroke-width="2" stroke-linecap="round" stroke-linejoin="round"><path d="M2.695 2.057 C 2.466 2.129,2.256 2.299,2.128 2.516 L 2.020 2.700 2.020 5.000 L 2.020 7.300 2.131 7.489 C 2.256 7.702,2.449 7.864,2.670 7.943 C 2.889 8.021,7.111 8.021,7.330 7.943 C 7.551 7.864,7.744 7.702,7.869 7.489 L 7.980 7.300 7.980 5.000 L 7.980 2.700 7.872 2.516 C 7.740 2.293,7.533 2.128,7.290 2.055 C 7.033 1.978,2.943 1.979,2.695 2.057 M9.695 2.057 C 9.466 2.129,9.256 2.299,9.128 2.516 L 9.020 2.700 9.020 5.000 L 9.020 7.300 9.131 7.489 C 9.256 7.702,9.449 7.864,9.670 7.943 C 9.889 8.021,14.111 8.021,14.330 7.943 C 14.551 7.864,14.744 7.702,14.869 7.489 L 14.980 7.300 14.980 5.000 L 14.980 2.700 14.872 2.516 C 14.740 2.293,14.533 2.128,14.290 2.055 C 14.033 1.978,9.943 1.979,9.695 2.057 M16.695 2.057 C 16.466 2.129,16.256 2.299,16.128 2.516 L 16.020 2.700 16.020 5.000 L 16.020 7.300 16.131 7.489 C 16.256 7.702,16.449 7.864,16.670 7.943 C 16.889 8.021,21.111 8.021,21.330 7.943 C 21.551 7.864,21.744 7.702,21.869 7.489 L 21.980 7.300 21.980 5.000 L 21.980 2.700 21.872 2.516 C 21.740 2.293,21.533 2.128,21.290 2.055 C 21.033 1.978,16.943 1.979,16.695 2.057 M6.000 5.000 L 6.000 6.000 5.000 6.000 L 4.000 6.000 4.000 5.000 L 4.000 4.000 5.000 4.000 L 6.000 4.000 6.000 5.000 M13.000 5.000 L 13.000 6.000 12.000 6.000 L 11.000 6.000 11.000 5.000 L 11.000 4.000 12.000 4.000 L 13.000 4.000 13.000 5.000 M20.000 5.000 L 20.000 6.000 19.000 6.000 L 18.000 6.000 18.000 5.000 L 18.000 4.000 19.000 4.000 L 20.000 4.000 20.000 5.000 M9.695 9.057 C 9.466 9.129,9.256 9.299,9.128 9.516 L 9.020 9.700 9.020 12.000 L 9.020 14.300 9.131 14.489 C 9.256 14.702,9.449 14.864,9.670 14.943 C 9.889 15.021,14.111 15.021,14.330 14.943 C 14.551 14.864,14.744 14.702,14.869 14.489 L 14.980 14.300 14.980 12.000 L 14.980 9.700 14.872 9.516 C 14.740 9.293,14.533 9.128,14.290 9.055 C 14.033 8.978,9.943 8.979,9.695 9.057 M16.695 9.057 C 16.466 9.129,16.256 9.299,16.128 9.516 L 16.020 9.700 16.020 12.000 L 16.020 14.300 16.131 14.489 C 16.256 14.702,16.449 14.864,16.670 14.943 C 16.889 15.021,21.111 15.021,21.330 14.943 C 21.551 14.864,21.744 14.702,21.869 14.489 L 21.980 14.300 21.980 12.000 L 21.980 9.700 21.872 9.516 C 21.740 9.293,21.533 9.128,21.290 9.055 C 21.033 8.978,16.943 8.979,16.695 9.057 M13.000 12.000 L 13.000 13.000 12.000 13.000 L 11.000 13.000 11.000 12.000 L 11.000 11.000 12.000 11.000 L 13.000 11.000 13.000 12.000 M20.000 12.000 L 20.000 13.000 19.000 13.000 L 18.000 13.000 18.000 12.000 L 18.000 11.000 19.000 11.000 L 20.000 11.000 20.000 12.000 M2.695 16.057 C 2.466 16.129,2.256 16.299,2.128 16.516 L 2.020 16.700 2.020 19.000 L 2.020 21.300 2.131 21.489 C 2.256 21.702,2.449 21.864,2.670 21.943 C 2.889 22.021,7.111 22.021,7.330 21.943 C 7.551 21.864,7.744 21.702,7.869 21.489 L 7.980 21.300 7.980 19.000 L 7.980 16.700 7.872 16.516 C 7.740 16.293,7.533 16.128,7.290 16.055 C 7.033 15.978,2.943 15.979,2.695 16.057 M9.695 16.057 C 9.466 16.129,9.256 16.299,9.128 16.516 L 9.020 16.700 9.020 19.000 L 9.020 21.300 9.131 21.489 C 9.256 21.702,9.449 21.864,9.670 21.943 C 9.889 22.021,14.111 22.021,14.330 21.943 C 14.551 21.864,14.744 21.702,14.869 21.489 L 14.980 21.300 14.980 19.000 L 14.980 16.700 14.872 16.516 C 14.740 16.293,14.533 16.128,14.290 16.055 C 14.033 15.978,9.943 15.979,9.695 16.057 M16.695 16.057 C 16.466 16.129,16.256 16.299,16.128 16.516 L 16.020 16.700 16.020 19.000 L 16.020 21.300 16.131 21.489 C 16.256 21.702,16.449 21.864,16.670 21.943 C 16.889 22.021,21.111 22.021,21.330 21.943 C 21.551 21.864,21.744 21.702,21.869 21.489 L 21.980 21.300 21.980 19.000 L 21.980 16.700 21.872 16.516 C 21.740 16.293,21.533 16.128,21.290 16.055 C 21.033 15.978,16.943 15.979,16.695 16.057 M6.000 19.000 L 6.000 20.000 5.000 20.000 L 4.000 20.000 4.000 19.000 L 4.000 18.000 5.000 18.000 L 6.000 18.000 6.000 19.000 M13.000 19.000 L 13.000 20.000 12.000 20.000 L 11.000 20.000 11.000 19.000 L 11.000 18.000 12.000 18.000 L 13.000 18.000 13.000 19.000 M20.000 19.000 L 20.000 20.000 19.000 20.000 L 18.000 20.000 18.000 19.000 L 18.000 18.000 19.000 18.000 L 20.000 18.000 20.000 19.000 " stroke="none" fill-rule="evenodd" fill="black"></path></svg>