<svg xmlns="http://www.w3.org/2000/svg" width="24" height="24" viewBox="0 0 24 24" fill="none" stroke="currentColor" stroke-width="2" stroke-linecap="round" stroke-linejoin="round"><path d="M8.695 3.057 C 8.466 3.129,8.256 3.299,8.128 3.516 L 8.020 3.700 8.020 6.000 L 8.020 8.300 8.131 8.489 C 8.256 8.702,8.449 8.864,8.670 8.943 C 8.891 9.022,15.109 9.022,15.330 8.943 C 15.551 8.864,15.744 8.702,15.869 8.489 L 15.980 8.300 15.980 6.000 L 15.980 3.700 15.872 3.516 C 15.740 3.293,15.533 3.128,15.290 3.055 C 15.030 2.977,8.945 2.979,8.695 3.057 M14.000 6.000 L 14.000 7.000 12.000 7.000 L 10.000 7.000 10.000 6.000 L 10.000 5.000 12.000 5.000 L 14.000 5.000 14.000 6.000 M3.695 10.057 C 3.466 10.129,3.256 10.299,3.128 10.516 L 3.020 10.700 3.020 15.500 L 3.020 20.300 3.131 20.489 C 3.256 20.702,3.449 20.864,3.670 20.943 C 3.893 21.022,20.107 21.022,20.330 20.943 C 20.551 20.864,20.744 20.702,20.869 20.489 L 20.980 20.300 20.980 15.500 L 20.980 10.700 20.872 10.516 C 20.740 10.293,20.533 10.128,20.290 10.055 C 20.022 9.974,14.978 9.974,14.710 10.055 C 14.467 10.128,14.260 10.293,14.128 10.516 L 14.020 10.700 14.008 12.350 L 13.997 14.000 12.000 14.000 L 10.003 14.000 9.992 12.350 L 9.980 10.700 9.872 10.516 C 9.740 10.293,9.533 10.128,9.290 10.055 C 9.031 9.977,3.944 9.979,3.695 10.057 M8.008 13.650 L 8.020 15.300 8.131 15.489 C 8.256 15.702,8.449 15.864,8.670 15.943 C 8.891 16.022,15.109 16.022,15.330 15.943 C 15.551 15.864,15.744 15.702,15.869 15.489 L 15.980 15.300 15.992 13.650 L 16.003 12.000 17.502 12.000 L 19.000 12.000 19.000 15.500 L 19.000 19.000 12.000 19.000 L 5.000 19.000 5.000 15.500 L 5.000 12.000 6.498 12.000 L 7.997 12.000 8.008 13.650 " stroke="none" fill-rule="evenodd" fill="black"></path></svg>