<svg xmlns="http://www.w3.org/2000/svg" width="24" height="24" viewBox="0 0 24 24" fill="none" stroke="currentColor" stroke-width="2" stroke-linecap="round" stroke-linejoin="round"><path d="M5.670 3.061 C 5.471 3.134,5.260 3.299,5.161 3.458 C 5.117 3.530,5.010 3.868,4.923 4.210 C 4.565 5.616,4.152 6.364,3.153 7.420 C 2.645 7.956,2.582 8.045,2.528 8.300 C 2.446 8.686,2.610 9.093,2.940 9.320 C 3.258 9.539,3.741 9.539,4.058 9.321 C 4.413 9.077,5.295 8.072,5.738 7.405 L 6.008 7.000 6.504 7.000 L 7.000 7.000 7.000 9.000 L 7.000 11.000 5.446 11.000 C 3.758 11.000,3.658 11.011,3.382 11.221 C 3.302 11.282,3.187 11.415,3.128 11.516 C 3.037 11.672,3.020 11.746,3.020 12.000 C 3.020 12.256,3.036 12.328,3.131 12.489 C 3.192 12.592,3.304 12.725,3.381 12.783 C 3.654 12.992,3.699 12.996,5.416 12.998 L 7.012 13.000 6.984 13.530 C 6.891 15.313,6.477 16.491,5.627 17.396 C 5.271 17.775,4.916 18.073,4.092 18.687 C 3.153 19.386,3.053 19.499,3.012 19.894 C 2.971 20.291,3.162 20.663,3.511 20.869 C 3.672 20.964,3.744 20.980,4.000 20.980 C 4.371 20.980,4.353 20.990,5.468 20.156 C 7.220 18.845,7.948 17.945,8.480 16.432 L 8.631 16.004 9.402 17.292 C 9.836 18.017,10.238 18.643,10.323 18.725 C 10.978 19.358,12.082 18.804,11.987 17.889 C 11.966 17.686,11.850 17.478,10.564 15.334 L 9.164 13.000 9.932 13.000 C 10.656 12.999,10.711 12.994,10.900 12.905 C 11.281 12.724,11.488 12.405,11.488 12.000 C 11.488 11.615,11.293 11.297,10.940 11.106 C 10.792 11.027,10.713 11.019,9.890 11.007 L 9.000 10.995 9.000 8.997 L 9.000 7.000 9.850 7.000 C 10.661 6.999,10.709 6.995,10.900 6.905 C 11.281 6.724,11.488 6.405,11.488 6.000 C 11.488 5.615,11.293 5.297,10.940 5.106 C 10.783 5.022,10.743 5.020,8.790 5.009 C 7.696 5.002,6.800 4.990,6.800 4.981 C 6.800 4.972,6.845 4.779,6.900 4.553 C 7.017 4.067,7.023 3.922,6.934 3.660 C 6.765 3.164,6.165 2.879,5.670 3.061 M13.695 5.057 C 13.466 5.129,13.256 5.299,13.128 5.516 L 13.020 5.700 13.010 11.914 C 13.003 16.003,13.013 18.179,13.039 18.278 C 13.099 18.497,13.290 18.739,13.506 18.865 C 13.663 18.957,13.753 18.979,14.040 18.993 L 14.386 19.009 14.743 19.730 C 15.167 20.587,15.256 20.719,15.508 20.867 C 15.673 20.964,15.742 20.980,16.000 20.979 C 16.213 20.979,16.341 20.957,16.440 20.905 C 16.517 20.864,16.994 20.420,17.500 19.918 L 18.420 19.004 19.360 18.992 L 20.300 18.980 20.492 18.867 C 20.710 18.739,20.901 18.498,20.961 18.278 C 20.987 18.179,20.997 16.003,20.990 11.914 L 20.980 5.700 20.872 5.516 C 20.740 5.293,20.533 5.128,20.290 5.055 C 20.030 4.977,13.945 4.979,13.695 5.057 M19.000 11.996 L 19.000 16.993 18.370 17.007 C 17.847 17.018,17.713 17.034,17.580 17.098 C 17.492 17.141,17.164 17.427,16.850 17.735 C 16.537 18.042,16.273 18.286,16.265 18.277 C 16.256 18.268,16.155 18.071,16.040 17.840 C 15.916 17.592,15.768 17.361,15.679 17.275 C 15.535 17.138,15.232 17.000,15.073 17.000 C 15.003 17.000,15.000 16.810,15.000 12.000 L 15.000 7.000 17.000 7.000 L 19.000 7.000 19.000 11.996 " stroke="none" fill-rule="evenodd" fill="black"></path></svg>