<svg xmlns="http://www.w3.org/2000/svg" width="24" height="24" viewBox="0 0 24 24" fill="none" stroke="currentColor" stroke-width="2" stroke-linecap="round" stroke-linejoin="round"><path d="M19.209 2.114 C 17.910 2.575,15.416 4.711,13.480 7.020 C 11.995 8.792,9.185 12.988,5.935 18.286 C 5.315 19.297,5.280 19.369,5.274 19.630 C 5.264 20.131,5.456 20.380,6.111 20.713 C 7.871 21.610,9.777 22.049,11.640 21.987 C 13.037 21.941,14.289 21.623,15.535 20.997 C 16.394 20.566,17.000 20.121,17.643 19.452 C 19.331 17.693,20.441 15.026,20.818 11.820 C 20.981 10.442,21.043 8.288,20.966 6.720 C 20.887 5.114,20.714 2.911,20.651 2.691 C 20.609 2.550,20.538 2.431,20.429 2.323 C 20.088 1.985,19.740 1.926,19.209 2.114 M18.904 5.740 C 18.991 7.031,19.003 9.654,18.927 10.580 C 18.784 12.322,18.501 13.744,18.059 14.947 C 17.829 15.573,17.320 16.579,16.970 17.100 C 16.200 18.244,15.387 18.922,14.180 19.423 C 12.314 20.197,10.250 20.187,8.050 19.392 C 7.868 19.326,7.720 19.257,7.720 19.239 C 7.720 19.197,8.791 17.468,9.812 15.860 C 11.802 12.726,13.481 10.251,14.521 8.920 C 15.657 7.465,17.012 6.083,18.357 5.006 C 18.608 4.805,18.818 4.645,18.823 4.650 C 18.828 4.656,18.864 5.146,18.904 5.740 M9.678 6.175 C 9.577 6.202,9.226 6.373,8.898 6.555 C 6.184 8.061,4.149 10.094,3.417 12.030 C 2.796 13.676,2.878 15.743,3.651 17.878 C 3.843 18.410,3.986 18.617,4.253 18.755 C 4.654 18.961,5.099 18.888,5.414 18.566 C 5.526 18.452,6.122 17.263,7.984 13.439 C 11.075 7.089,10.924 7.411,10.926 7.170 C 10.930 6.702,10.654 6.307,10.238 6.183 C 9.990 6.109,9.923 6.108,9.678 6.175 M7.309 10.238 C 6.994 10.938,5.053 14.878,5.024 14.879 C 5.003 14.880,4.998 14.635,5.013 14.290 C 5.061 13.196,5.320 12.438,5.949 11.561 C 6.202 11.208,7.289 10.040,7.365 10.040 C 7.383 10.040,7.358 10.129,7.309 10.238 " stroke="none" fill-rule="evenodd" fill="black"></path></svg>