<svg xmlns="http://www.w3.org/2000/svg" width="24" height="24" viewBox="0 0 24 24" fill="none" stroke="currentColor" stroke-width="2" stroke-linecap="round" stroke-linejoin="round"><path d="M11.695 2.057 C 11.466 2.129,11.256 2.299,11.128 2.516 L 11.020 2.700 11.020 6.003 L 11.020 9.306 11.141 9.503 C 11.543 10.156,12.457 10.156,12.859 9.503 L 12.980 9.306 12.980 6.003 L 12.980 2.700 12.872 2.516 C 12.628 2.101,12.150 1.915,11.695 2.057 M5.257 4.713 C 4.837 4.910,4.616 5.273,4.650 5.707 C 4.664 5.876,4.704 6.013,4.772 6.128 C 4.828 6.223,5.879 7.301,7.107 8.525 C 9.125 10.536,9.359 10.756,9.537 10.815 C 9.931 10.945,10.291 10.862,10.578 10.576 C 10.887 10.267,10.959 9.831,10.768 9.436 C 10.664 9.223,6.300 4.849,6.080 4.738 C 5.869 4.632,5.457 4.619,5.257 4.713 M18.033 4.696 C 17.952 4.725,17.817 4.804,17.733 4.872 C 17.424 5.120,13.286 9.304,13.221 9.435 C 13.038 9.799,13.122 10.275,13.422 10.576 C 13.709 10.862,14.069 10.945,14.463 10.815 C 14.641 10.756,14.877 10.534,16.893 8.525 C 18.121 7.301,19.172 6.223,19.228 6.128 C 19.377 5.877,19.398 5.523,19.280 5.248 C 19.074 4.771,18.516 4.524,18.033 4.696 M2.695 11.057 C 2.466 11.129,2.256 11.299,2.128 11.516 C 2.037 11.672,2.020 11.746,2.020 12.000 C 2.020 12.256,2.036 12.328,2.131 12.489 C 2.256 12.702,2.449 12.864,2.670 12.943 C 2.891 13.022,9.109 13.022,9.330 12.943 C 9.551 12.864,9.744 12.702,9.869 12.489 C 9.964 12.328,9.980 12.256,9.980 12.000 C 9.980 11.746,9.963 11.672,9.872 11.516 C 9.740 11.293,9.533 11.128,9.290 11.055 C 9.030 10.977,2.945 10.979,2.695 11.057 M14.695 11.057 C 14.466 11.129,14.256 11.299,14.128 11.516 C 14.037 11.672,14.020 11.746,14.020 12.000 C 14.020 12.256,14.036 12.328,14.131 12.489 C 14.256 12.702,14.449 12.864,14.670 12.943 C 14.891 13.022,21.109 13.022,21.330 12.943 C 21.551 12.864,21.744 12.702,21.869 12.489 C 21.964 12.328,21.980 12.256,21.980 12.000 C 21.980 11.746,21.963 11.672,21.872 11.516 C 21.740 11.293,21.533 11.128,21.290 11.055 C 21.030 10.977,14.945 10.979,14.695 11.057 M9.540 13.186 C 9.355 13.242,9.177 13.409,7.107 15.473 C 5.879 16.698,4.829 17.776,4.773 17.870 C 4.635 18.102,4.604 18.455,4.700 18.706 C 4.920 19.281,5.612 19.534,6.128 19.228 C 6.223 19.172,7.301 18.121,8.525 16.893 C 10.534 14.877,10.756 14.641,10.815 14.463 C 10.946 14.068,10.863 13.709,10.574 13.420 C 10.295 13.141,9.947 13.063,9.540 13.186 M13.793 13.183 C 13.549 13.258,13.270 13.534,13.184 13.786 C 13.103 14.025,13.103 14.214,13.185 14.463 C 13.244 14.641,13.464 14.875,15.475 16.893 C 16.699 18.121,17.777 19.172,17.872 19.228 C 18.388 19.534,19.080 19.281,19.300 18.706 C 19.396 18.455,19.365 18.102,19.227 17.870 C 19.171 17.776,18.121 16.698,16.893 15.474 C 14.742 13.330,14.652 13.245,14.443 13.184 C 14.181 13.107,14.041 13.107,13.793 13.183 M11.695 14.057 C 11.466 14.129,11.256 14.299,11.128 14.516 L 11.020 14.700 11.020 18.003 L 11.020 21.306 11.141 21.503 C 11.543 22.156,12.457 22.156,12.859 21.503 L 12.980 21.306 12.980 18.003 L 12.980 14.700 12.872 14.516 C 12.628 14.101,12.150 13.915,11.695 14.057 " stroke="none" fill-rule="evenodd" fill="black"></path></svg>