<svg xmlns="http://www.w3.org/2000/svg" width="24" height="24" viewBox="0 0 24 24" fill="none" stroke="currentColor" stroke-width="2" stroke-linecap="round" stroke-linejoin="round"><path d="M13.313 2.057 C 12.502 2.201,11.748 2.603,11.139 3.216 C 10.502 3.858,10.084 4.770,10.014 5.670 L 9.988 6.000 6.440 6.000 C 2.590 6.000,2.678 5.995,2.382 6.221 C 2.302 6.282,2.187 6.415,2.128 6.516 L 2.020 6.700 2.009 11.914 C 2.002 15.337,2.013 17.179,2.039 17.277 C 2.099 17.498,2.290 17.739,2.508 17.867 L 2.700 17.980 5.022 17.991 L 7.344 18.002 7.492 18.351 C 7.805 19.089,8.257 19.737,8.873 20.327 C 9.706 21.126,10.672 21.631,11.854 21.888 C 12.441 22.016,13.556 22.014,14.160 21.885 C 15.804 21.533,17.162 20.604,18.060 19.216 C 18.191 19.013,18.194 19.011,18.446 18.983 C 19.119 18.909,19.687 18.739,20.286 18.433 C 21.630 17.748,22.580 16.489,22.907 14.960 C 22.974 14.649,22.980 14.371,22.980 11.660 L 22.980 8.700 22.872 8.516 C 22.813 8.415,22.698 8.282,22.618 8.221 C 22.374 8.035,22.180 8.000,21.389 8.000 C 20.721 8.000,20.673 7.995,20.700 7.930 C 21.257 6.557,21.023 5.165,20.064 4.132 C 19.380 3.397,18.555 3.035,17.540 3.025 C 17.276 3.022,16.987 3.033,16.899 3.049 C 16.748 3.076,16.723 3.066,16.519 2.898 C 16.051 2.513,15.445 2.221,14.860 2.100 C 14.425 2.009,13.696 1.989,13.313 2.057 M14.494 4.078 C 14.886 4.179,15.121 4.316,15.420 4.619 C 16.448 5.660,16.027 7.398,14.631 7.884 C 14.449 7.947,14.234 7.999,14.153 7.999 L 14.007 8.000 13.993 7.350 C 13.981 6.728,13.975 6.692,13.872 6.516 C 13.633 6.110,13.352 6.000,12.554 6.000 C 11.916 6.000,11.951 6.031,12.061 5.567 C 12.158 5.154,12.308 4.885,12.598 4.600 C 13.136 4.073,13.779 3.896,14.494 4.078 M18.260 5.219 C 18.798 5.533,19.098 6.214,18.960 6.805 C 18.853 7.266,18.525 7.671,18.102 7.864 C 17.882 7.965,17.455 8.043,17.487 7.976 C 17.778 7.371,17.865 7.125,17.941 6.685 C 18.031 6.174,18.011 5.506,17.895 5.110 C 17.877 5.048,17.888 5.045,17.987 5.082 C 18.049 5.106,18.172 5.167,18.260 5.219 M12.000 12.000 L 12.000 16.000 8.000 16.000 L 4.000 16.000 4.000 12.000 L 4.000 8.000 8.000 8.000 L 12.000 8.000 12.000 12.000 M5.695 9.057 C 5.466 9.129,5.256 9.299,5.128 9.516 C 5.037 9.672,5.020 9.746,5.020 10.000 C 5.020 10.256,5.036 10.328,5.131 10.489 C 5.256 10.702,5.449 10.864,5.670 10.943 C 5.768 10.978,6.022 10.997,6.408 10.998 L 6.997 11.000 7.008 12.653 L 7.020 14.306 7.141 14.503 C 7.543 15.156,8.457 15.156,8.859 14.503 L 8.980 14.306 8.992 12.653 L 9.003 11.000 9.592 10.998 C 9.978 10.997,10.232 10.978,10.330 10.943 C 10.551 10.864,10.744 10.702,10.869 10.489 C 10.964 10.328,10.980 10.256,10.980 10.000 C 10.980 9.746,10.963 9.672,10.872 9.516 C 10.740 9.293,10.533 9.128,10.290 9.055 C 10.033 8.978,5.943 8.979,5.695 9.057 M17.000 13.110 C 17.000 16.437,16.987 16.687,16.796 17.245 C 16.485 18.153,15.830 18.972,15.047 19.431 C 13.938 20.081,12.607 20.176,11.441 19.686 C 10.839 19.433,10.144 18.869,9.744 18.307 C 9.643 18.166,9.560 18.039,9.560 18.026 C 9.560 18.014,10.402 17.998,11.430 17.991 L 13.300 17.980 13.489 17.869 C 13.702 17.744,13.864 17.551,13.943 17.330 C 13.986 17.209,13.997 16.484,13.998 13.590 L 14.000 10.000 15.500 10.000 L 17.000 10.000 17.000 13.110 M20.991 12.270 L 20.978 14.540 20.878 14.861 C 20.632 15.648,20.061 16.322,19.330 16.688 C 19.148 16.779,18.995 16.846,18.990 16.837 C 18.984 16.827,18.985 15.286,18.992 13.410 L 19.004 10.000 20.004 10.000 L 21.004 10.000 20.991 12.270 " stroke="none" fill-rule="evenodd" fill="black"></path></svg>