<svg xmlns="http://www.w3.org/2000/svg" width="24" height="24" viewBox="0 0 24 24" fill="none" stroke="currentColor" stroke-width="2" stroke-linecap="round" stroke-linejoin="round"><path d="M16.499 3.040 C 15.363 3.246,14.460 4.049,14.114 5.160 C 13.979 5.594,13.979 6.406,14.114 6.840 C 14.421 7.826,15.174 8.579,16.160 8.886 C 16.594 9.021,17.406 9.021,17.840 8.886 C 18.826 8.579,19.579 7.826,19.886 6.840 C 20.021 6.406,20.021 5.594,19.886 5.160 C 19.581 4.179,18.810 3.407,17.861 3.129 C 17.500 3.023,16.832 2.980,16.499 3.040 M17.310 5.061 C 17.688 5.173,18.000 5.598,18.000 6.001 C 18.000 6.331,17.784 6.696,17.484 6.872 C 17.328 6.963,17.254 6.980,17.000 6.980 C 16.746 6.980,16.672 6.963,16.516 6.872 C 15.932 6.528,15.831 5.775,16.307 5.299 C 16.582 5.024,16.918 4.944,17.310 5.061 M6.358 7.061 C 5.230 7.237,4.143 7.974,3.569 8.953 C 2.320 11.083,3.233 13.785,5.512 14.704 C 6.113 14.946,6.542 15.010,7.420 14.989 C 8.066 14.973,8.237 14.955,8.563 14.869 C 10.241 14.426,11.409 13.259,11.873 11.563 L 11.978 11.180 11.979 9.440 L 11.980 7.700 11.872 7.516 C 11.740 7.293,11.533 7.128,11.290 7.055 C 11.032 6.977,6.862 6.983,6.358 7.061 M9.999 9.870 C 9.998 10.885,9.957 11.147,9.723 11.620 C 9.438 12.197,8.928 12.649,8.320 12.866 C 8.060 12.958,7.940 12.975,7.419 12.991 C 7.047 13.002,6.733 12.992,6.596 12.963 C 5.886 12.816,5.255 12.220,5.073 11.523 C 4.845 10.647,5.210 9.750,5.987 9.279 C 6.415 9.020,6.546 9.005,8.370 9.002 L 10.000 9.000 9.999 9.870 M16.358 10.061 C 14.731 10.315,13.417 11.584,13.083 13.227 C 13.003 13.618,13.000 13.752,13.002 16.906 C 13.003 19.536,13.014 20.210,13.057 20.330 C 13.136 20.551,13.298 20.744,13.511 20.869 L 13.700 20.980 17.000 20.980 L 20.300 20.980 20.489 20.869 C 20.702 20.744,20.864 20.551,20.943 20.330 C 20.986 20.210,20.997 19.536,20.998 16.906 C 21.000 13.794,20.996 13.613,20.921 13.243 C 20.721 12.264,20.197 11.415,19.438 10.843 C 18.866 10.412,18.276 10.160,17.605 10.058 C 17.144 9.989,16.816 9.990,16.358 10.061 M17.523 12.073 C 18.022 12.203,18.516 12.599,18.772 13.071 C 18.991 13.476,18.999 13.585,18.999 16.410 L 19.000 19.000 17.000 19.000 L 15.000 19.000 15.000 16.398 C 15.000 13.497,15.004 13.449,15.265 13.014 C 15.646 12.378,16.288 12.005,17.000 12.005 C 17.143 12.005,17.378 12.036,17.523 12.073 " stroke="none" fill-rule="evenodd" fill="black"></path></svg>