<svg xmlns="http://www.w3.org/2000/svg" width="24" height="24" viewBox="0 0 24 24" fill="none" stroke="currentColor" stroke-width="2" stroke-linecap="round" stroke-linejoin="round"><path d="M4.499 3.043 C 3.380 3.232,2.461 4.048,2.114 5.160 L 2.020 5.460 2.020 9.180 C 2.020 12.030,2.032 12.984,2.072 13.260 C 2.405 15.555,3.346 17.466,4.919 19.042 C 5.217 19.340,5.613 19.703,5.800 19.847 C 7.242 20.961,8.787 21.624,10.600 21.907 C 11.247 22.008,12.753 22.008,13.400 21.907 C 15.638 21.557,17.504 20.620,19.062 19.062 C 20.650 17.474,21.594 15.563,21.928 13.260 C 21.968 12.984,21.980 12.030,21.980 9.180 L 21.980 5.460 21.886 5.160 C 21.581 4.182,20.832 3.428,19.861 3.121 L 19.540 3.020 12.120 3.014 C 8.039 3.011,4.609 3.024,4.499 3.043 M19.310 5.061 C 19.589 5.144,19.856 5.411,19.939 5.690 C 19.991 5.866,20.000 6.346,20.000 9.097 C 20.000 10.985,19.983 12.478,19.959 12.734 C 19.805 14.355,19.175 15.878,18.153 17.100 C 17.388 18.015,16.523 18.693,15.471 19.200 C 13.267 20.265,10.733 20.265,8.529 19.200 C 7.738 18.819,7.124 18.394,6.504 17.801 C 5.074 16.433,4.227 14.689,4.041 12.734 C 4.017 12.478,4.000 10.985,4.000 9.097 C 4.000 6.346,4.009 5.866,4.061 5.690 C 4.140 5.421,4.412 5.143,4.673 5.063 C 4.964 4.974,19.009 4.971,19.310 5.061 M7.670 10.061 C 7.448 10.142,7.250 10.309,7.128 10.516 C 7.037 10.672,7.020 10.746,7.020 11.000 C 7.020 11.254,7.036 11.328,7.127 11.480 C 7.261 11.705,11.368 15.805,11.560 15.905 C 11.660 15.957,11.787 15.978,12.000 15.978 C 12.213 15.978,12.340 15.957,12.440 15.905 C 12.632 15.805,16.739 11.705,16.873 11.480 C 16.964 11.328,16.980 11.254,16.980 11.000 C 16.980 10.746,16.963 10.672,16.872 10.516 C 16.618 10.084,16.137 9.906,15.657 10.066 C 15.481 10.124,15.279 10.312,13.730 11.854 L 12.000 13.577 10.270 11.854 C 8.721 10.312,8.519 10.124,8.343 10.066 C 8.108 9.987,7.875 9.986,7.670 10.061 " stroke="none" fill-rule="evenodd" fill="black"></path></svg>