<svg xmlns="http://www.w3.org/2000/svg" width="24" height="24" viewBox="0 0 24 24" fill="none" stroke="currentColor" stroke-width="2" stroke-linecap="round" stroke-linejoin="round"><path d="M3.960 4.062 C 3.605 4.138,3.107 4.393,2.832 4.639 C 2.532 4.907,2.239 5.352,2.118 5.722 L 2.020 6.020 2.020 8.663 L 2.020 11.306 2.141 11.503 C 2.543 12.156,3.457 12.156,3.859 11.503 C 3.979 11.308,3.980 11.300,3.993 10.653 L 4.007 10.000 4.500 10.000 L 4.993 10.000 5.007 10.653 C 5.020 11.300,5.021 11.308,5.141 11.503 C 5.543 12.156,6.457 12.156,6.859 11.503 L 6.980 11.306 6.980 8.643 L 6.980 5.980 6.869 5.680 C 6.430 4.486,5.192 3.798,3.960 4.062 M8.664 4.063 C 8.312 4.192,8.057 4.508,8.014 4.866 C 7.996 5.019,8.119 5.701,8.598 8.100 C 8.931 9.772,9.230 11.219,9.261 11.315 C 9.475 11.968,10.267 12.204,10.822 11.781 C 10.994 11.650,11.106 11.441,11.584 10.370 C 11.802 9.881,11.989 9.480,12.000 9.480 C 12.011 9.480,12.227 9.944,12.480 10.510 C 12.852 11.342,12.971 11.571,13.103 11.704 C 13.279 11.881,13.559 12.000,13.800 12.000 C 14.154 12.000,14.529 11.772,14.677 11.466 C 14.763 11.288,16.000 5.223,16.000 4.978 C 16.000 4.472,15.517 4.000,14.998 4.000 C 14.654 4.000,14.267 4.237,14.123 4.534 C 14.074 4.635,13.915 5.325,13.740 6.200 C 13.576 7.021,13.436 7.698,13.429 7.704 C 13.423 7.711,13.292 7.434,13.139 7.088 C 12.842 6.420,12.711 6.241,12.419 6.102 C 12.045 5.924,11.595 6.002,11.304 6.295 C 11.180 6.420,11.071 6.614,10.861 7.088 C 10.708 7.433,10.577 7.711,10.571 7.704 C 10.564 7.698,10.424 7.021,10.260 6.200 C 10.085 5.325,9.926 4.635,9.877 4.534 C 9.674 4.114,9.115 3.897,8.664 4.063 M18.477 4.073 C 17.806 4.249,17.238 4.823,17.060 5.508 C 16.976 5.828,16.976 7.172,17.060 7.492 C 17.153 7.852,17.310 8.118,17.596 8.404 C 18.073 8.881,18.426 9.000,19.368 9.000 L 20.000 9.000 20.000 9.500 L 20.000 10.000 19.483 10.000 L 18.966 10.000 18.923 9.869 C 18.868 9.701,18.632 9.458,18.423 9.351 C 18.199 9.237,17.801 9.237,17.577 9.351 C 17.086 9.602,16.904 10.077,17.063 10.693 C 17.143 11.001,17.281 11.237,17.522 11.478 C 17.967 11.923,18.245 12.000,19.407 12.000 C 20.598 12.000,20.898 11.910,21.404 11.404 C 21.895 10.913,22.000 10.579,21.999 9.514 C 21.999 8.459,21.903 8.124,21.465 7.653 C 20.998 7.150,20.590 7.006,19.630 7.002 L 19.000 7.000 19.000 6.500 L 19.000 6.000 19.517 6.000 L 20.034 6.000 20.077 6.131 C 20.132 6.297,20.366 6.540,20.577 6.652 C 20.802 6.770,21.198 6.770,21.423 6.652 C 21.917 6.391,22.096 5.923,21.937 5.307 C 21.772 4.673,21.224 4.162,20.581 4.044 C 20.192 3.972,18.790 3.992,18.477 4.073 M4.724 6.062 C 4.790 6.096,4.879 6.182,4.922 6.252 C 4.992 6.368,5.000 6.457,5.000 7.190 L 5.000 8.000 4.500 8.000 L 4.000 8.000 4.000 7.198 C 4.000 6.307,4.020 6.220,4.252 6.078 C 4.406 5.984,4.563 5.979,4.724 6.062 M16.673 14.054 C 16.035 14.291,15.803 15.071,16.211 15.606 C 16.397 15.849,16.644 15.963,17.069 16.002 C 18.163 16.101,18.437 16.131,18.695 16.182 C 19.077 16.256,19.533 16.386,19.770 16.488 L 19.963 16.571 19.938 16.756 C 19.859 17.322,19.689 18.054,19.510 18.598 C 19.327 19.154,19.126 19.595,18.609 20.573 C 18.353 21.056,18.574 21.655,19.100 21.905 C 19.475 22.082,19.935 21.988,20.225 21.675 C 20.361 21.527,20.580 21.160,20.834 20.653 C 21.467 19.389,21.891 17.796,21.983 16.336 C 22.033 15.534,21.882 15.310,20.993 14.867 C 20.394 14.568,19.953 14.413,19.280 14.265 C 18.418 14.075,16.937 13.955,16.673 14.054 M2.667 16.065 C 2.254 16.192,1.965 16.652,2.012 17.107 C 2.047 17.442,2.186 17.636,2.631 17.973 C 4.571 19.437,6.731 20.399,9.110 20.858 C 9.574 20.947,9.745 20.960,10.470 20.960 C 12.588 20.959,14.505 20.596,16.440 19.828 C 17.695 19.329,17.931 19.138,17.989 18.575 C 18.030 18.182,17.774 17.752,17.407 17.594 C 17.093 17.460,16.822 17.491,16.288 17.724 C 14.404 18.545,12.814 18.900,10.820 18.947 C 9.937 18.968,9.825 18.963,9.420 18.882 C 7.407 18.479,5.608 17.682,3.936 16.452 C 3.303 15.986,3.113 15.928,2.667 16.065 " stroke="none" fill-rule="evenodd" fill="black"></path></svg>