<svg xmlns="http://www.w3.org/2000/svg" width="24" height="24" viewBox="0 0 24 24" fill="none" stroke="currentColor" stroke-width="2" stroke-linecap="round" stroke-linejoin="round"><path d="M7.860 3.047 C 6.098 3.245,4.498 4.337,3.644 5.923 C 3.347 6.476,3.127 7.180,3.041 7.860 C 3.008 8.120,2.998 9.665,3.007 13.400 L 3.020 18.580 3.114 18.860 C 3.443 19.840,4.160 20.557,5.140 20.886 L 5.420 20.980 10.600 20.993 C 14.335 21.002,15.880 20.992,16.140 20.959 C 17.385 20.800,18.456 20.285,19.340 19.420 C 20.218 18.560,20.757 17.501,20.941 16.271 C 21.028 15.693,21.028 8.307,20.941 7.729 C 20.563 5.211,18.594 3.316,16.072 3.042 C 15.592 2.990,8.326 2.994,7.860 3.047 M16.405 5.108 C 17.002 5.277,17.592 5.634,18.022 6.085 C 18.329 6.408,18.489 6.642,18.681 7.053 C 18.994 7.721,18.980 7.487,18.980 12.000 C 18.980 16.518,18.995 16.278,18.678 16.954 C 18.223 17.924,17.409 18.610,16.360 18.906 C 16.114 18.976,15.826 18.980,10.900 18.980 L 5.700 18.980 5.516 18.872 C 5.415 18.813,5.283 18.700,5.224 18.621 C 4.985 18.309,4.997 18.601,5.009 13.018 C 5.021 7.906,5.021 7.900,5.108 7.595 C 5.484 6.271,6.630 5.239,7.942 5.044 C 8.073 5.024,9.962 5.011,12.140 5.015 C 16.067 5.022,16.103 5.022,16.405 5.108 M8.477 7.072 C 7.802 7.252,7.238 7.824,7.060 8.508 C 6.975 8.831,6.973 16.094,7.057 16.330 C 7.136 16.551,7.298 16.744,7.511 16.869 L 7.700 16.980 9.740 16.992 C 11.945 17.004,12.129 16.991,12.641 16.783 C 13.501 16.433,14.212 15.599,14.424 14.689 C 14.506 14.340,14.506 13.660,14.424 13.311 C 14.272 12.656,13.846 12.006,13.316 11.617 L 13.126 11.478 13.244 11.218 C 13.309 11.075,13.390 10.837,13.424 10.689 C 13.506 10.340,13.506 9.660,13.424 9.311 C 13.219 8.430,12.595 7.674,11.746 7.277 C 11.243 7.041,11.160 7.030,9.900 7.015 C 8.889 7.003,8.706 7.010,8.477 7.072 M10.944 9.108 C 11.134 9.210,11.347 9.438,11.425 9.626 C 11.496 9.795,11.496 10.205,11.425 10.374 C 11.338 10.581,11.118 10.804,10.900 10.906 C 10.710 10.994,10.656 10.999,9.850 11.000 L 9.000 11.000 9.000 9.997 L 9.000 8.995 9.890 9.007 C 10.716 9.019,10.792 9.026,10.944 9.108 M11.944 13.108 C 12.134 13.210,12.347 13.438,12.425 13.626 C 12.496 13.795,12.496 14.205,12.425 14.374 C 12.338 14.581,12.118 14.804,11.900 14.906 C 11.703 14.998,11.680 14.999,10.350 15.000 L 9.000 15.000 9.000 13.998 L 9.000 12.996 10.390 13.008 C 11.732 13.020,11.786 13.023,11.944 13.108 M15.695 15.055 C 15.464 15.130,15.255 15.300,15.128 15.516 C 15.037 15.672,15.020 15.746,15.020 16.000 C 15.020 16.257,15.036 16.327,15.133 16.492 C 15.651 17.374,16.998 17.018,16.998 16.000 C 16.998 15.623,16.792 15.281,16.463 15.112 C 16.265 15.010,15.911 14.984,15.695 15.055 " stroke="none" fill-rule="evenodd" fill="black"></path></svg>