<svg xmlns="http://www.w3.org/2000/svg" width="24" height="24" viewBox="0 0 24 24" fill="none" stroke="currentColor" stroke-width="2" stroke-linecap="round" stroke-linejoin="round"><path d="M11.080 2.045 C 9.507 2.184,7.883 2.751,6.540 3.630 C 5.905 4.045,5.499 4.378,4.919 4.958 C 2.953 6.926,1.919 9.544,2.013 12.320 C 2.084 14.439,2.752 16.328,4.033 18.040 C 4.430 18.570,5.305 19.464,5.800 19.847 C 7.242 20.961,8.787 21.624,10.600 21.907 C 11.247 22.008,12.753 22.008,13.400 21.907 C 15.638 21.557,17.504 20.620,19.062 19.062 C 20.620 17.504,21.557 15.638,21.907 13.400 C 22.008 12.753,22.008 11.247,21.907 10.600 C 21.624 8.786,20.959 7.238,19.847 5.800 C 19.510 5.365,18.639 4.494,18.200 4.154 C 16.133 2.555,13.646 1.818,11.080 2.045 M12.734 4.041 C 14.574 4.216,16.228 4.976,17.554 6.256 C 20.043 8.658,20.702 12.394,19.183 15.499 C 18.749 16.387,18.223 17.105,17.496 17.801 C 16.876 18.394,16.262 18.819,15.471 19.200 C 13.267 20.265,10.733 20.265,8.529 19.200 C 7.477 18.693,6.612 18.015,5.847 17.100 C 3.848 14.711,3.440 11.302,4.816 8.500 C 6.162 5.760,8.867 4.049,11.920 4.005 C 12.129 4.003,12.495 4.019,12.734 4.041 M11.500 7.027 C 10.824 7.109,10.434 7.224,9.820 7.521 C 9.248 7.799,8.895 8.048,8.450 8.488 C 7.825 9.106,7.382 9.901,7.129 10.857 C 7.031 11.226,7.022 11.322,7.024 12.000 C 7.026 12.694,7.034 12.768,7.149 13.200 C 7.406 14.170,7.793 14.847,8.474 15.521 C 9.070 16.109,9.621 16.464,10.320 16.711 C 10.926 16.924,11.270 16.979,12.000 16.977 C 12.802 16.975,13.131 16.904,13.760 16.594 C 14.134 16.410,14.225 16.343,14.586 15.982 L 14.991 15.577 15.007 15.944 C 15.021 16.267,15.038 16.335,15.143 16.506 C 15.543 17.156,16.458 17.155,16.859 16.503 L 16.980 16.306 16.980 14.503 L 16.980 12.700 16.871 12.514 C 16.731 12.277,16.485 12.095,16.224 12.039 C 16.089 12.009,15.549 11.998,14.620 12.007 C 13.274 12.019,13.214 12.023,13.060 12.106 C 12.707 12.297,12.512 12.615,12.512 13.000 C 12.512 13.268,12.598 13.492,12.772 13.675 C 12.927 13.838,13.253 13.999,13.430 14.000 C 13.502 14.000,13.560 14.016,13.560 14.035 C 13.560 14.122,13.220 14.567,13.070 14.678 C 12.753 14.911,12.515 14.977,11.980 14.977 C 11.432 14.978,11.147 14.916,10.695 14.699 C 9.478 14.114,8.797 12.742,9.061 11.408 C 9.135 11.033,9.440 10.395,9.700 10.072 C 10.027 9.665,10.611 9.290,11.200 9.109 C 11.554 9.000,12.386 8.992,12.753 9.094 C 13.305 9.246,13.740 9.505,14.140 9.918 C 14.515 10.306,14.853 10.439,15.244 10.356 C 15.625 10.274,15.923 9.960,16.004 9.552 C 16.078 9.186,15.982 8.951,15.590 8.537 C 14.796 7.698,13.795 7.198,12.604 7.044 C 12.285 7.002,11.764 6.994,11.500 7.027 " stroke="none" fill-rule="evenodd" fill="black"></path></svg>