<svg xmlns="http://www.w3.org/2000/svg" width="24" height="24" viewBox="0 0 24 24" fill="none" stroke="currentColor" stroke-width="2" stroke-linecap="round" stroke-linejoin="round"><path d="M3.695 3.056 C 3.465 3.129,3.256 3.299,3.128 3.516 L 3.020 3.700 3.009 5.916 C 2.999 7.881,3.005 8.155,3.063 8.336 C 3.125 8.528,3.498 8.909,9.294 14.706 C 15.091 20.502,15.472 20.875,15.664 20.937 C 15.845 20.995,16.119 21.001,18.084 20.991 L 20.300 20.980 20.489 20.869 C 20.702 20.744,20.864 20.551,20.943 20.330 C 20.985 20.212,20.997 19.719,20.998 18.017 C 21.000 16.128,20.992 15.829,20.935 15.657 C 20.875 15.475,20.390 14.980,14.725 9.316 C 10.501 5.092,8.530 3.148,8.420 3.096 C 8.270 3.025,8.127 3.020,6.060 3.012 C 4.339 3.006,3.824 3.015,3.695 3.056 M13.723 3.047 C 13.503 3.110,13.251 3.308,13.131 3.511 C 13.036 3.672,13.020 3.744,13.020 4.000 C 13.020 4.254,13.036 4.328,13.127 4.480 C 13.188 4.583,14.570 5.992,16.347 7.765 C 19.303 10.714,19.471 10.874,19.675 10.940 C 20.221 11.117,20.818 10.809,20.961 10.276 C 20.988 10.177,20.998 9.005,20.991 6.912 L 20.980 3.700 20.872 3.516 C 20.813 3.415,20.698 3.282,20.618 3.221 C 20.324 2.997,20.375 3.000,16.984 3.004 C 15.065 3.006,13.807 3.022,13.723 3.047 M13.290 10.710 L 19.000 16.420 19.000 17.710 L 19.000 19.000 17.710 19.000 L 16.420 19.000 10.710 13.290 L 5.000 7.580 5.000 6.290 L 5.000 5.000 6.290 5.000 L 7.580 5.000 13.290 10.710 M19.000 6.280 C 19.000 6.984,18.995 7.560,18.990 7.560 C 18.984 7.560,18.404 6.984,17.700 6.280 L 16.420 5.000 17.710 5.000 L 19.000 5.000 19.000 6.280 M3.695 13.055 C 3.464 13.130,3.255 13.300,3.128 13.516 L 3.020 13.700 3.020 17.000 L 3.020 20.300 3.131 20.489 C 3.256 20.702,3.449 20.864,3.670 20.943 C 3.903 21.026,10.080 21.025,10.316 20.942 C 10.550 20.859,10.747 20.697,10.872 20.484 C 10.963 20.328,10.980 20.254,10.980 20.000 C 10.980 19.746,10.964 19.672,10.873 19.520 C 10.718 19.260,4.622 13.192,4.427 13.103 C 4.222 13.010,3.897 12.989,3.695 13.055 M6.300 17.720 L 7.580 19.000 6.290 19.000 L 5.000 19.000 5.000 17.720 C 5.000 17.016,5.005 16.440,5.010 16.440 C 5.016 16.440,5.596 17.016,6.300 17.720 " stroke="none" fill-rule="evenodd" fill="black"></path></svg>