<svg xmlns="http://www.w3.org/2000/svg" width="24" height="24" viewBox="0 0 24 24" fill="none" stroke="currentColor" stroke-width="2" stroke-linecap="round" stroke-linejoin="round"><path d="M16.673 8.054 C 16.035 8.291,15.803 9.071,16.211 9.606 C 16.397 9.849,16.644 9.963,17.069 10.002 C 18.163 10.101,18.437 10.131,18.695 10.182 C 19.077 10.256,19.533 10.386,19.770 10.488 L 19.963 10.571 19.938 10.756 C 19.859 11.322,19.689 12.054,19.510 12.598 C 19.327 13.154,19.126 13.595,18.609 14.573 C 18.353 15.056,18.574 15.655,19.100 15.905 C 19.475 16.082,19.935 15.988,20.225 15.675 C 20.361 15.527,20.580 15.160,20.834 14.653 C 21.467 13.389,21.891 11.796,21.983 10.336 C 22.033 9.534,21.882 9.310,20.993 8.867 C 20.394 8.568,19.953 8.413,19.280 8.265 C 18.418 8.075,16.937 7.955,16.673 8.054 M2.667 10.065 C 2.254 10.192,1.965 10.652,2.012 11.107 C 2.047 11.442,2.186 11.636,2.631 11.973 C 4.571 13.437,6.731 14.399,9.110 14.858 C 9.574 14.947,9.745 14.960,10.470 14.960 C 12.588 14.959,14.505 14.596,16.440 13.828 C 17.695 13.329,17.931 13.138,17.989 12.575 C 18.030 12.182,17.774 11.752,17.407 11.594 C 17.093 11.460,16.822 11.491,16.288 11.724 C 14.401 12.546,12.818 12.900,10.820 12.947 C 9.937 12.968,9.825 12.963,9.420 12.882 C 7.407 12.479,5.608 11.682,3.936 10.452 C 3.303 9.986,3.113 9.928,2.667 10.065 " stroke="none" fill-rule="evenodd" fill="black"></path></svg>