<svg xmlns="http://www.w3.org/2000/svg" width="24" height="24" viewBox="0 0 24 24" fill="none" stroke="currentColor" stroke-width="2" stroke-linecap="round" stroke-linejoin="round"><path d="M11.773 2.036 C 11.703 2.054,11.568 2.109,11.473 2.159 C 10.937 2.438,2.479 7.148,2.371 7.228 C 1.935 7.549,1.887 8.276,2.274 8.676 C 2.378 8.782,3.743 9.560,7.000 11.367 C 9.519 12.765,11.641 13.929,11.716 13.954 C 11.897 14.015,12.116 14.012,12.305 13.945 C 12.390 13.915,14.148 12.952,16.212 11.805 C 18.275 10.658,19.972 9.720,19.982 9.720 C 19.992 9.720,20.000 9.877,19.999 10.070 L 19.999 10.420 16.037 12.620 C 13.858 13.830,12.051 14.825,12.023 14.832 C 11.994 14.838,10.040 13.771,7.680 12.460 C 4.889 10.909,3.322 10.061,3.196 10.031 C 2.796 9.939,2.348 10.142,2.129 10.514 L 2.020 10.700 2.008 12.415 C 1.995 14.342,2.002 14.395,2.274 14.676 C 2.378 14.782,3.743 15.560,7.000 17.367 C 9.519 18.765,11.641 19.929,11.716 19.954 C 11.897 20.015,12.116 20.012,12.305 19.945 C 12.390 19.915,14.148 18.952,16.212 17.805 C 18.275 16.658,19.972 15.720,19.982 15.720 C 19.992 15.720,20.000 15.877,19.999 16.070 L 19.999 16.420 16.037 18.620 C 13.858 19.830,12.051 20.825,12.023 20.832 C 11.994 20.838,10.057 19.781,7.718 18.481 C 5.378 17.181,3.386 16.091,3.291 16.059 C 2.702 15.859,2.077 16.266,2.012 16.893 C 1.983 17.179,2.083 17.478,2.274 17.676 C 2.378 17.782,3.743 18.560,7.000 20.367 C 9.519 21.765,11.641 22.929,11.716 22.954 C 11.791 22.979,11.919 23.000,12.000 23.000 C 12.081 23.000,12.209 22.979,12.284 22.954 C 12.359 22.929,14.481 21.765,17.000 20.367 C 20.257 18.560,21.622 17.782,21.726 17.676 C 21.998 17.395,22.005 17.342,21.992 15.415 L 21.980 13.700 21.871 13.514 C 21.652 13.142,21.204 12.939,20.804 13.031 C 20.678 13.061,19.111 13.909,16.320 15.460 C 13.960 16.771,12.006 17.838,11.977 17.832 C 11.949 17.825,10.142 16.830,7.963 15.620 L 4.001 13.420 4.001 13.070 C 4.000 12.877,4.008 12.720,4.018 12.720 C 4.028 12.720,5.725 13.658,7.788 14.805 C 9.852 15.952,11.610 16.915,11.695 16.945 C 11.884 17.012,12.103 17.015,12.284 16.954 C 12.359 16.929,14.481 15.765,17.000 14.367 C 20.257 12.560,21.622 11.782,21.726 11.676 C 21.998 11.395,22.005 11.342,21.992 9.415 L 21.980 7.700 21.871 7.514 C 21.652 7.142,21.204 6.939,20.804 7.031 C 20.678 7.061,19.111 7.909,16.320 9.460 C 13.960 10.771,12.006 11.838,11.978 11.832 C 11.903 11.815,5.081 8.024,5.082 8.000 C 5.083 7.978,11.907 4.187,11.978 4.169 C 12.003 4.162,13.127 4.770,14.475 5.519 C 15.823 6.268,16.989 6.908,17.068 6.941 C 17.264 7.023,17.598 7.015,17.807 6.924 C 18.019 6.832,18.254 6.594,18.342 6.381 C 18.486 6.036,18.391 5.560,18.128 5.308 C 18.038 5.222,13.211 2.510,12.520 2.157 C 12.281 2.036,11.974 1.986,11.773 2.036 " stroke="none" fill-rule="evenodd" fill="black"></path></svg>