<svg xmlns="http://www.w3.org/2000/svg" width="24" height="24" viewBox="0 0 24 24" fill="none" stroke="currentColor" stroke-width="2" stroke-linecap="round" stroke-linejoin="round"><path d="M11.648 1.067 C 11.553 1.101,11.373 1.222,11.248 1.337 C 7.108 5.124,5.220 6.870,5.160 6.969 C 5.086 7.091,1.175 16.354,1.060 16.680 C 0.934 17.036,1.026 17.429,1.299 17.701 C 1.601 18.003,1.573 18.000,4.000 18.000 C 6.426 18.000,6.399 18.003,6.700 17.702 C 6.857 17.546,7.031 17.122,9.919 9.902 C 11.966 4.784,12.979 2.204,12.991 2.078 C 13.059 1.369,12.335 0.824,11.648 1.067 M14.723 4.044 C 14.525 4.104,14.260 4.298,14.168 4.449 C 14.124 4.521,13.400 6.189,12.558 8.156 C 11.480 10.673,11.022 11.788,11.009 11.922 C 10.972 12.304,11.013 12.366,12.624 14.380 C 13.452 15.414,14.180 16.325,14.244 16.405 L 14.359 16.550 10.910 17.844 C 7.630 19.074,7.453 19.145,7.297 19.301 C 6.908 19.690,6.909 20.311,7.299 20.701 C 7.623 21.025,6.974 21.000,15.017 20.998 C 20.896 20.997,22.207 20.987,22.330 20.943 C 22.551 20.864,22.744 20.702,22.869 20.489 C 22.965 20.326,22.980 20.258,22.978 20.000 L 22.975 19.700 19.425 12.100 C 17.472 7.920,15.824 4.437,15.763 4.360 C 15.542 4.083,15.069 3.940,14.723 4.044 M7.366 10.885 L 5.328 15.980 4.424 15.991 C 3.927 15.997,3.520 15.994,3.520 15.986 C 3.520 15.977,4.265 14.199,5.176 12.035 L 6.831 8.100 8.103 6.931 C 8.803 6.288,9.382 5.769,9.390 5.776 C 9.397 5.784,8.487 8.083,7.366 10.885 M17.720 13.187 C 19.183 16.325,20.386 18.916,20.393 18.946 C 20.404 18.991,19.837 19.000,16.973 18.998 L 13.540 18.996 15.010 18.443 C 15.846 18.128,16.540 17.844,16.619 17.784 C 16.695 17.725,16.808 17.592,16.869 17.489 C 17.012 17.245,17.026 16.831,16.899 16.580 C 16.855 16.492,15.994 15.391,14.987 14.132 L 13.156 11.845 14.088 9.663 C 14.600 8.463,15.029 7.482,15.040 7.482 C 15.051 7.482,16.257 10.050,17.720 13.187 " stroke="none" fill-rule="evenodd" fill="black"></path></svg>