<svg xmlns="http://www.w3.org/2000/svg" width="24" height="24" viewBox="0 0 24 24" fill="none" stroke="currentColor" stroke-width="2" stroke-linecap="round" stroke-linejoin="round"><path d="M12.680 2.027 C 10.795 2.211,9.551 2.535,8.180 3.197 C 7.088 3.724,6.389 4.210,5.618 4.979 C 4.508 6.087,3.751 7.450,3.341 9.079 C 2.824 11.132,2.904 13.822,3.542 15.840 C 3.817 16.711,4.139 17.391,4.620 18.121 C 6.039 20.272,8.354 21.581,11.380 21.943 C 11.828 21.997,12.263 22.009,13.553 22.004 C 14.989 21.998,15.208 21.988,15.553 21.918 C 16.650 21.693,17.787 21.247,18.548 20.745 C 19.186 20.323,19.818 19.679,19.938 19.328 C 19.991 19.171,20.000 18.793,20.000 16.577 L 20.000 14.009 20.179 13.982 C 20.422 13.946,20.712 13.742,20.859 13.503 C 20.966 13.329,20.980 13.271,20.980 13.003 C 20.980 12.746,20.964 12.672,20.872 12.516 C 20.740 12.293,20.533 12.128,20.290 12.055 C 20.021 11.974,13.979 11.974,13.710 12.055 C 13.467 12.128,13.260 12.293,13.128 12.516 C 13.036 12.672,13.020 12.746,13.020 13.003 C 13.020 13.271,13.034 13.329,13.141 13.503 C 13.288 13.742,13.578 13.946,13.821 13.982 L 14.000 14.009 14.000 17.010 L 14.000 20.011 13.642 19.984 C 12.993 19.935,12.634 19.764,12.139 19.264 C 11.509 18.629,11.002 17.681,10.622 16.425 C 9.865 13.925,9.805 10.782,10.462 8.094 C 11.025 5.792,12.075 4.246,13.220 4.036 C 13.368 4.009,13.753 3.999,14.220 4.011 C 14.864 4.027,15.038 4.045,15.362 4.130 C 16.065 4.316,17.086 4.780,17.700 5.192 L 17.980 5.380 18.000 7.080 C 18.019 8.727,18.023 8.785,18.106 8.940 C 18.298 9.294,18.615 9.488,19.003 9.488 C 19.292 9.488,19.536 9.381,19.724 9.173 C 20.008 8.857,20.004 8.893,19.992 6.680 L 19.980 4.700 19.873 4.518 C 19.724 4.264,19.206 3.782,18.780 3.500 C 18.053 3.019,16.792 2.448,15.960 2.224 C 15.288 2.042,14.869 2.000,13.800 2.007 C 13.261 2.010,12.757 2.019,12.680 2.027 M9.425 5.069 C 8.529 6.850,8.000 9.420,8.000 12.002 C 8.000 14.798,8.637 17.538,9.717 19.387 L 9.838 19.594 9.509 19.475 C 8.069 18.958,6.931 18.066,6.170 16.858 C 5.957 16.521,5.617 15.766,5.465 15.293 C 5.302 14.785,5.152 14.065,5.075 13.420 C 5.008 12.851,5.007 11.221,5.074 10.700 C 5.402 8.167,6.494 6.440,8.515 5.262 C 8.832 5.077,9.526 4.755,9.553 4.780 C 9.559 4.787,9.502 4.917,9.425 5.069 M18.000 16.317 L 18.000 18.634 17.799 18.809 C 17.505 19.067,17.031 19.340,16.528 19.542 C 16.284 19.640,16.066 19.720,16.042 19.720 C 16.013 19.720,16.000 18.848,16.000 16.860 L 16.000 14.000 17.000 14.000 L 18.000 14.000 18.000 16.317 " stroke="none" fill-rule="evenodd" fill="black"></path></svg>