<svg xmlns="http://www.w3.org/2000/svg" width="24" height="24" viewBox="0 0 24 24" fill="none" stroke="currentColor" stroke-width="2" stroke-linecap="round" stroke-linejoin="round"><path d="M11.646 1.068 C 11.526 1.110,11.344 1.250,11.066 1.516 C 7.140 5.260,5.415 6.939,5.063 7.360 C 3.728 8.955,3.000 10.986,3.000 13.116 C 3.000 15.033,3.712 17.057,4.922 18.580 C 7.163 21.400,10.859 22.622,14.343 21.696 C 16.432 21.141,18.387 19.727,19.538 17.940 C 21.042 15.605,21.401 12.850,20.540 10.252 C 20.173 9.146,19.665 8.230,18.937 7.360 C 18.585 6.940,16.960 5.358,12.935 1.517 C 12.399 1.006,12.108 0.905,11.646 1.068 M14.428 5.714 C 15.743 6.975,16.987 8.190,17.191 8.414 C 18.882 10.265,19.432 12.858,18.637 15.244 C 18.482 15.711,18.143 16.413,17.876 16.822 C 17.045 18.095,15.767 19.100,14.343 19.601 C 13.522 19.889,12.961 19.980,12.000 19.980 C 11.209 19.980,10.926 19.949,10.300 19.794 C 8.600 19.372,7.084 18.293,6.124 16.822 C 4.795 14.786,4.643 12.159,5.729 9.980 C 5.987 9.462,6.364 8.901,6.725 8.500 C 7.069 8.118,11.968 3.399,12.008 3.411 C 12.023 3.416,13.112 4.452,14.428 5.714 M11.576 7.596 C 11.379 7.686,8.706 10.310,8.396 10.717 C 7.766 11.545,7.407 12.829,7.518 13.855 C 7.638 14.973,8.072 15.909,8.819 16.663 C 10.187 18.044,12.274 18.388,14.000 17.519 C 15.448 16.789,16.347 15.420,16.499 13.713 C 16.581 12.792,16.195 11.502,15.603 10.717 C 15.298 10.314,12.622 7.686,12.424 7.596 C 12.318 7.548,12.168 7.522,12.000 7.522 C 11.832 7.522,11.682 7.548,11.576 7.596 M13.007 10.900 C 14.037 11.916,14.157 12.069,14.352 12.607 C 14.448 12.870,14.459 12.956,14.459 13.440 C 14.460 13.864,14.444 14.027,14.385 14.200 C 14.082 15.089,13.440 15.700,12.576 15.921 C 11.998 16.069,11.398 15.991,10.832 15.693 C 10.447 15.491,10.020 15.066,9.833 14.700 C 9.577 14.198,9.540 14.040,9.541 13.440 C 9.541 12.956,9.552 12.870,9.648 12.607 C 9.843 12.068,9.963 11.916,11.000 10.891 C 11.539 10.358,11.992 9.926,12.007 9.931 C 12.022 9.936,12.472 10.372,13.007 10.900 " stroke="none" fill-rule="evenodd" fill="black"></path></svg>