<svg xmlns="http://www.w3.org/2000/svg" width="24" height="24" viewBox="0 0 24 24" fill="none" stroke="currentColor" stroke-width="2" stroke-linecap="round" stroke-linejoin="round"><path d="M9.729 2.045 C 8.998 2.153,8.335 2.639,8.023 3.293 C 7.838 3.682,4.000 15.798,4.000 15.994 C 4.000 16.536,4.472 17.002,5.017 16.999 C 5.182 16.998,5.287 16.959,6.040 16.620 C 6.987 16.193,8.025 15.864,9.129 15.642 C 9.788 15.509,9.875 15.473,10.092 15.250 C 10.277 15.058,10.230 15.197,11.201 11.980 C 11.626 10.572,11.986 9.406,12.000 9.390 C 12.014 9.373,12.346 10.408,12.739 11.690 C 13.837 15.274,13.768 15.072,13.968 15.268 C 14.178 15.473,14.316 15.533,14.780 15.619 C 15.920 15.829,17.095 16.209,18.200 16.724 C 18.699 16.956,18.761 16.976,19.020 16.977 C 19.231 16.977,19.340 16.956,19.463 16.892 C 19.851 16.687,20.095 16.217,20.008 15.842 C 19.898 15.364,16.137 3.544,16.011 3.280 C 15.756 2.743,15.191 2.276,14.580 2.096 C 14.366 2.033,14.108 2.025,12.160 2.017 C 10.961 2.012,9.867 2.024,9.729 2.045 M14.162 4.105 C 14.223 4.165,14.702 5.629,15.824 9.181 C 16.691 11.927,17.400 14.190,17.400 14.211 C 17.400 14.232,17.369 14.236,17.330 14.220 C 17.189 14.161,16.176 13.876,15.819 13.794 L 15.451 13.709 14.359 10.145 C 13.758 8.184,13.235 6.504,13.195 6.411 C 13.093 6.169,12.839 5.912,12.572 5.780 C 12.377 5.684,12.289 5.666,12.020 5.664 C 11.756 5.662,11.660 5.680,11.474 5.767 C 11.217 5.886,10.959 6.126,10.848 6.348 C 10.806 6.432,10.280 8.122,9.680 10.105 L 8.588 13.709 8.184 13.799 C 7.962 13.849,7.519 13.967,7.200 14.062 C 6.882 14.156,6.619 14.231,6.616 14.227 C 6.605 14.210,9.752 4.327,9.803 4.221 C 9.911 3.997,9.886 3.999,12.069 4.010 C 14.055 4.020,14.079 4.021,14.162 4.105 M8.664 17.060 C 8.109 17.273,7.905 17.765,8.058 18.523 C 8.210 19.276,8.597 19.963,9.340 20.800 C 9.768 21.282,11.376 22.804,11.567 22.906 C 11.661 22.957,11.788 22.979,12.000 22.979 C 12.256 22.980,12.328 22.964,12.486 22.871 C 12.760 22.709,14.283 21.105,14.851 20.380 C 16.052 18.844,16.313 17.734,15.597 17.207 C 15.398 17.061,15.093 16.981,14.868 17.017 C 14.777 17.032,14.549 17.113,14.361 17.197 C 13.543 17.565,12.798 17.734,12.000 17.734 C 11.197 17.734,10.457 17.565,9.625 17.191 C 9.216 17.007,8.912 16.966,8.664 17.060 M12.024 19.740 L 12.787 19.740 12.387 20.168 L 11.987 20.596 11.803 20.441 C 11.703 20.356,11.485 20.149,11.320 19.980 C 11.055 19.710,11.034 19.679,11.140 19.707 C 11.206 19.725,11.604 19.740,12.024 19.740 " stroke="none" fill-rule="evenodd" fill="black"></path></svg>