<svg xmlns="http://www.w3.org/2000/svg" width="24" height="24" viewBox="0 0 24 24" fill="none" stroke="currentColor" stroke-width="2" stroke-linecap="round" stroke-linejoin="round"><path d="M2.660 3.069 C 2.239 3.214,1.965 3.653,2.013 4.110 C 2.033 4.309,2.440 5.049,6.581 12.414 C 9.081 16.861,11.177 20.563,11.238 20.640 C 11.598 21.095,12.402 21.095,12.762 20.640 C 12.823 20.563,14.919 16.861,17.419 12.414 C 22.456 3.456,22.096 4.150,21.940 3.679 C 21.697 2.949,20.677 2.774,20.220 3.385 C 20.154 3.474,18.282 6.780,16.060 10.733 C 13.838 14.686,12.011 17.920,12.000 17.920 C 11.989 17.920,10.162 14.686,7.940 10.733 C 5.718 6.780,3.846 3.474,3.780 3.385 C 3.539 3.063,3.066 2.930,2.660 3.069 M7.260 3.035 C 6.726 3.175,6.382 3.745,6.532 4.240 C 6.592 4.440,11.062 12.417,11.238 12.640 C 11.598 13.095,12.402 13.095,12.762 12.640 C 12.938 12.417,17.408 4.440,17.468 4.240 C 17.595 3.822,17.366 3.332,16.940 3.109 C 16.823 3.048,16.704 3.025,16.500 3.024 C 16.166 3.022,15.960 3.114,15.754 3.356 C 15.680 3.443,14.810 4.956,13.820 6.717 C 12.830 8.479,12.011 9.920,12.000 9.920 C 11.989 9.920,11.170 8.479,10.180 6.717 C 9.190 4.956,8.320 3.443,8.246 3.356 C 8.172 3.269,8.039 3.160,7.951 3.115 C 7.773 3.024,7.445 2.986,7.260 3.035 " stroke="none" fill-rule="evenodd" fill="black"></path></svg>