<svg xmlns="http://www.w3.org/2000/svg" width="24" height="24" viewBox="0 0 24 24" fill="none" stroke="currentColor" stroke-width="2" stroke-linecap="round" stroke-linejoin="round"><path d="M9.080 2.024 C 6.976 2.095,5.764 2.305,4.837 2.760 C 3.386 3.472,2.570 4.654,2.243 6.520 C 2.048 7.636,2.001 8.699,2.001 11.980 C 2.001 15.298,2.048 16.365,2.243 17.480 C 2.488 18.878,3.012 19.894,3.855 20.605 C 4.793 21.397,5.886 21.755,7.900 21.928 C 8.747 22.001,15.253 22.001,16.100 21.928 C 18.285 21.740,19.438 21.323,20.381 20.381 C 21.323 19.438,21.740 18.285,21.928 16.100 C 22.001 15.253,22.001 8.747,21.928 7.900 C 21.740 5.715,21.323 4.561,20.381 3.620 C 19.435 2.674,18.269 2.256,16.080 2.078 C 15.581 2.037,9.979 1.994,9.080 2.024 M15.140 4.041 C 17.479 4.139,18.392 4.393,19.057 5.128 C 19.562 5.686,19.795 6.474,19.927 8.080 C 19.999 8.949,19.999 15.051,19.927 15.920 C 19.795 17.526,19.562 18.314,19.057 18.872 C 18.420 19.577,17.494 19.852,15.400 19.959 C 14.390 20.011,9.610 20.011,8.600 19.959 C 6.304 19.842,5.327 19.502,4.738 18.615 C 4.144 17.720,4.000 16.432,4.000 12.000 C 4.000 7.142,4.171 5.949,4.990 5.074 C 5.611 4.409,6.610 4.132,8.701 4.044 C 9.829 3.997,14.039 3.995,15.140 4.041 M6.100 7.237 C 5.961 7.271,5.827 7.338,5.666 7.457 C 5.366 7.676,5.233 8.212,5.390 8.567 C 5.434 8.667,6.012 9.470,6.675 10.353 C 7.338 11.236,7.880 11.977,7.880 12.000 C 7.880 12.023,7.338 12.764,6.675 13.647 C 6.012 14.530,5.434 15.333,5.390 15.433 C 5.219 15.819,5.368 16.329,5.727 16.586 C 6.173 16.906,6.684 16.848,7.062 16.433 C 7.149 16.338,7.652 15.680,8.180 14.971 C 8.708 14.263,9.149 13.683,9.160 13.683 C 9.171 13.683,9.630 14.287,10.180 15.025 C 10.730 15.763,11.247 16.435,11.329 16.518 C 11.515 16.706,11.847 16.821,12.104 16.786 C 12.758 16.696,13.183 15.986,12.923 15.415 C 12.882 15.325,12.307 14.528,11.644 13.646 C 10.982 12.763,10.440 12.023,10.440 12.000 C 10.440 11.977,10.978 11.242,11.636 10.366 C 12.294 9.489,12.862 8.714,12.898 8.644 C 13.072 8.308,12.996 7.810,12.731 7.544 C 12.499 7.311,12.303 7.226,12.000 7.225 C 11.789 7.224,11.701 7.245,11.532 7.337 C 11.343 7.440,11.224 7.584,10.252 8.884 C 9.662 9.672,9.171 10.316,9.160 10.317 C 9.149 10.317,8.690 9.713,8.140 8.976 C 7.590 8.238,7.065 7.565,6.974 7.480 C 6.735 7.257,6.400 7.165,6.100 7.237 M17.480 7.237 C 17.403 7.253,17.284 7.295,17.215 7.332 C 17.036 7.425,16.782 7.728,16.727 7.912 C 16.697 8.014,16.680 8.413,16.680 9.047 L 16.680 10.024 16.130 10.070 C 15.487 10.123,15.164 10.212,14.663 10.474 C 14.045 10.796,13.447 11.439,13.188 12.060 C 12.840 12.895,12.807 13.668,13.084 14.500 C 13.244 14.979,13.467 15.345,13.832 15.727 C 14.514 16.442,15.222 16.743,16.320 16.787 C 17.050 16.816,17.404 16.766,17.788 16.578 C 18.247 16.354,18.544 15.931,18.638 15.366 C 18.669 15.181,18.679 13.998,18.671 11.500 C 18.661 8.183,18.655 7.890,18.591 7.774 C 18.375 7.379,17.903 7.150,17.480 7.237 M16.680 13.420 L 16.680 14.800 16.442 14.800 C 15.939 14.800,15.602 14.676,15.309 14.382 C 15.015 14.089,14.940 13.893,14.940 13.420 C 14.940 13.072,14.953 12.994,15.040 12.823 C 15.304 12.305,15.750 12.062,16.470 12.045 L 16.680 12.040 16.680 13.420 " stroke="none" fill-rule="evenodd" fill="black"></path></svg>