<svg xmlns="http://www.w3.org/2000/svg" width="24" height="24" viewBox="0 0 24 24" fill="none" stroke="currentColor" stroke-width="2" stroke-linecap="round" stroke-linejoin="round"><path d="M1.664 4.063 C 0.994 4.308,0.785 5.171,1.274 5.676 C 1.354 5.759,1.672 5.977,1.980 6.161 C 3.136 6.850,4.265 7.644,5.408 8.570 L 5.996 9.046 5.975 9.313 C 5.884 10.478,5.726 11.450,5.481 12.365 C 5.279 13.123,5.101 13.599,4.738 14.351 C 4.354 15.149,4.209 15.386,3.056 17.106 C 2.522 17.901,2.067 18.621,2.043 18.706 C 1.851 19.398,2.410 20.068,3.113 19.989 C 3.422 19.954,4.259 19.495,6.120 18.341 C 7.904 17.234,8.780 16.757,9.783 16.346 C 10.222 16.166,11.187 15.836,11.428 15.783 L 11.554 15.755 11.969 16.588 C 12.429 17.511,12.632 18.003,12.928 18.915 C 13.107 19.466,13.146 19.548,13.298 19.700 C 13.829 20.232,14.777 19.986,14.961 19.268 C 15.345 17.773,15.829 16.494,16.411 15.440 L 16.621 15.060 16.920 15.027 C 17.357 14.980,18.843 15.025,19.191 15.096 C 19.531 15.167,19.960 15.348,19.960 15.423 C 19.960 15.483,19.676 15.721,19.494 15.814 C 19.424 15.849,19.226 15.916,19.054 15.963 C 18.468 16.122,18.189 16.354,18.075 16.777 C 17.954 17.229,18.266 17.789,18.726 17.942 C 19.041 18.047,19.216 18.203,19.376 18.523 C 19.455 18.681,19.520 18.861,19.520 18.923 C 19.520 19.030,19.513 19.034,19.370 19.012 C 18.979 18.952,18.448 18.705,17.678 18.226 C 17.313 17.999,17.086 17.958,16.750 18.056 C 16.349 18.172,16.040 18.585,16.040 19.002 C 16.040 19.187,16.127 19.439,16.248 19.602 C 16.423 19.841,17.453 20.450,18.137 20.720 C 19.460 21.242,20.591 21.050,21.177 20.205 C 21.506 19.730,21.602 18.992,21.425 18.307 C 21.367 18.083,21.249 17.775,21.150 17.588 L 20.978 17.262 21.279 16.961 C 22.216 16.023,22.239 14.807,21.335 13.963 C 20.715 13.384,19.854 13.098,18.469 13.010 L 17.998 12.980 18.265 12.640 C 19.405 11.192,20.773 9.950,22.251 9.023 C 22.488 8.874,22.727 8.694,22.781 8.622 C 23.210 8.060,22.961 7.257,22.295 7.057 C 21.919 6.943,21.709 7.003,21.081 7.399 C 19.100 8.651,17.418 10.305,15.841 12.552 C 15.465 13.087,15.452 13.100,15.298 13.111 C 14.859 13.140,13.562 13.298,13.066 13.382 C 12.757 13.435,12.502 13.474,12.499 13.469 C 11.302 11.613,9.467 9.483,7.695 7.894 C 6.338 6.677,4.798 5.539,3.112 4.508 C 2.272 3.994,2.043 3.924,1.664 4.063 M13.499 5.040 C 12.363 5.246,11.460 6.049,11.114 7.160 C 10.979 7.594,10.979 8.406,11.114 8.840 C 11.421 9.826,12.174 10.579,13.160 10.886 C 13.594 11.021,14.406 11.021,14.840 10.886 C 15.826 10.579,16.579 9.826,16.886 8.840 C 17.021 8.406,17.021 7.594,16.886 7.160 C 16.581 6.179,15.810 5.407,14.861 5.129 C 14.500 5.023,13.832 4.980,13.499 5.040 M14.310 7.061 C 14.688 7.173,15.000 7.598,15.000 8.001 C 15.000 8.331,14.784 8.696,14.484 8.872 C 14.328 8.963,14.254 8.980,14.000 8.980 C 13.746 8.980,13.672 8.963,13.516 8.872 C 12.935 8.530,12.833 7.774,13.304 7.303 C 13.583 7.024,13.916 6.944,14.310 7.061 M8.974 12.100 C 9.487 12.709,9.840 13.161,10.289 13.782 L 10.436 13.985 9.929 14.158 C 8.943 14.493,7.681 15.076,6.685 15.655 C 6.434 15.801,6.224 15.920,6.217 15.920 C 6.211 15.920,6.347 15.627,6.520 15.270 C 7.108 14.057,7.493 12.852,7.720 11.520 C 7.767 11.245,7.814 10.975,7.826 10.920 C 7.846 10.826,7.863 10.837,8.125 11.120 C 8.277 11.285,8.660 11.726,8.974 12.100 M14.240 15.262 C 14.240 15.312,13.945 15.960,13.922 15.960 C 13.888 15.960,13.592 15.355,13.614 15.333 C 13.661 15.286,14.240 15.220,14.240 15.262 " stroke="none" fill-rule="evenodd" fill="black"></path></svg>