<svg xmlns="http://www.w3.org/2000/svg" width="24" height="24" viewBox="0 0 24 24" fill="none" stroke="currentColor" stroke-width="2" stroke-linecap="round" stroke-linejoin="round"><path d="M2.695 3.057 C 2.051 3.258,1.799 4.040,2.198 4.591 C 2.263 4.681,2.403 4.805,2.508 4.867 L 2.700 4.980 4.080 5.006 C 5.500 5.033,5.779 5.061,6.360 5.234 C 8.539 5.881,10.254 7.825,10.796 10.260 C 10.938 10.896,10.974 11.244,10.974 12.000 C 10.974 12.756,10.938 13.104,10.796 13.740 C 10.234 16.264,8.378 18.286,6.120 18.835 C 5.570 18.969,5.166 19.000,3.997 19.000 C 2.793 19.000,2.645 19.020,2.382 19.221 C 2.302 19.282,2.187 19.415,2.128 19.516 C 2.037 19.672,2.020 19.746,2.020 20.000 C 2.020 20.256,2.036 20.328,2.131 20.489 C 2.256 20.702,2.449 20.864,2.670 20.943 C 2.858 21.010,5.009 21.021,5.592 20.958 C 9.181 20.568,12.116 17.660,12.837 13.780 C 13.523 10.085,12.000 6.268,9.060 4.313 C 8.010 3.615,6.766 3.167,5.526 3.042 C 4.923 2.981,2.903 2.992,2.695 3.057 M11.695 3.057 C 11.051 3.258,10.799 4.040,11.198 4.591 C 11.263 4.681,11.403 4.805,11.508 4.867 L 11.700 4.980 14.820 5.000 L 17.940 5.020 18.201 5.122 C 19.470 5.617,20.205 7.093,19.940 8.614 C 19.825 9.271,19.577 9.771,19.131 10.244 C 18.834 10.558,18.581 10.731,18.207 10.874 C 17.941 10.976,17.935 10.977,16.340 11.000 C 15.212 11.016,14.707 11.037,14.627 11.071 C 14.024 11.333,13.817 12.065,14.198 12.591 C 14.263 12.681,14.403 12.805,14.508 12.867 L 14.700 12.980 16.320 13.002 C 17.927 13.023,17.942 13.024,18.201 13.123 C 19.466 13.609,20.205 15.093,19.940 16.614 C 19.825 17.271,19.577 17.771,19.131 18.244 C 18.836 18.557,18.583 18.730,18.207 18.876 L 17.940 18.980 14.840 19.000 C 12.482 19.015,11.713 19.032,11.627 19.070 C 11.428 19.158,11.239 19.328,11.128 19.516 C 11.037 19.672,11.020 19.746,11.020 20.000 C 11.020 20.256,11.036 20.328,11.131 20.489 C 11.256 20.702,11.449 20.864,11.670 20.943 C 11.898 21.024,17.683 21.024,18.144 20.943 C 19.061 20.782,19.830 20.373,20.520 19.681 C 21.835 18.364,22.317 16.355,21.775 14.460 C 21.549 13.669,20.992 12.737,20.440 12.226 L 20.195 12.000 20.440 11.774 C 20.992 11.263,21.549 10.331,21.775 9.540 C 22.151 8.228,22.049 6.908,21.479 5.692 C 20.786 4.215,19.475 3.228,17.961 3.042 C 17.435 2.977,11.907 2.991,11.695 3.057 " stroke="none" fill-rule="evenodd" fill="black"></path></svg>