<svg xmlns="http://www.w3.org/2000/svg" width="24" height="24" viewBox="0 0 24 24" fill="none" stroke="currentColor" stroke-width="2" stroke-linecap="round" stroke-linejoin="round"><path d="M11.080 2.045 C 9.507 2.184,7.883 2.751,6.540 3.630 C 5.905 4.045,5.499 4.378,4.919 4.958 C 2.953 6.926,1.919 9.544,2.013 12.320 C 2.084 14.439,2.752 16.328,4.033 18.040 C 4.430 18.570,5.305 19.464,5.800 19.847 C 7.242 20.961,8.787 21.624,10.600 21.907 C 11.247 22.008,12.753 22.008,13.400 21.907 C 15.638 21.557,17.504 20.620,19.062 19.062 C 20.620 17.504,21.557 15.638,21.907 13.400 C 22.008 12.753,22.008 11.247,21.907 10.600 C 21.624 8.786,20.959 7.238,19.847 5.800 C 19.510 5.365,18.639 4.494,18.200 4.154 C 16.133 2.555,13.646 1.818,11.080 2.045 M12.734 4.041 C 14.574 4.216,16.228 4.976,17.554 6.256 C 20.043 8.658,20.702 12.394,19.183 15.499 C 18.749 16.387,18.223 17.105,17.496 17.801 C 16.876 18.394,16.262 18.819,15.471 19.200 C 13.267 20.265,10.733 20.265,8.529 19.200 C 7.477 18.693,6.612 18.015,5.847 17.100 C 3.848 14.711,3.440 11.302,4.816 8.500 C 6.162 5.760,8.867 4.049,11.920 4.005 C 12.129 4.003,12.495 4.019,12.734 4.041 M7.617 6.577 C 7.435 6.656,7.206 6.871,7.115 7.049 C 6.971 7.333,6.976 7.518,7.154 8.260 C 7.243 8.634,7.399 9.309,7.500 9.760 C 7.944 11.742,8.225 12.550,8.735 13.315 C 9.193 14.002,9.742 14.459,10.430 14.726 C 10.679 14.823,10.756 14.870,10.742 14.917 C 10.620 15.325,10.000 17.913,10.000 18.014 C 10.000 18.344,10.207 18.690,10.511 18.869 C 10.762 19.017,11.217 19.029,11.445 18.894 C 11.525 18.847,12.760 17.872,14.190 16.728 C 17.120 14.384,16.980 14.521,16.980 13.980 C 16.980 13.747,16.962 13.669,16.871 13.514 C 16.734 13.282,16.492 13.100,16.236 13.039 C 16.128 13.013,16.040 12.984,16.040 12.975 C 16.040 12.966,16.156 12.684,16.298 12.349 C 16.689 11.425,16.740 11.159,16.621 10.654 C 16.479 10.054,16.092 9.547,15.585 9.301 C 15.428 9.224,13.709 8.568,11.764 7.841 C 8.515 6.627,8.208 6.520,7.984 6.522 C 7.850 6.522,7.685 6.547,7.617 6.577 M12.050 10.089 C 13.475 10.623,14.640 11.074,14.640 11.092 C 14.640 11.110,14.385 11.721,14.073 12.450 C 13.444 13.922,13.419 14.022,13.588 14.403 L 13.670 14.587 13.248 14.923 C 13.016 15.109,12.795 15.282,12.758 15.309 C 12.702 15.349,12.718 15.246,12.849 14.729 C 13.031 14.007,13.033 13.792,12.862 13.499 C 12.672 13.175,12.339 13.000,11.913 13.000 C 11.584 13.000,11.179 12.900,10.930 12.758 C 10.425 12.470,10.013 11.659,9.681 10.301 C 9.492 9.529,9.407 9.120,9.434 9.119 C 9.448 9.119,10.626 9.556,12.050 10.089 " stroke="none" fill-rule="evenodd" fill="black"></path></svg>