<svg xmlns="http://www.w3.org/2000/svg" width="24" height="24" viewBox="0 0 24 24" fill="none" stroke="currentColor" stroke-width="2" stroke-linecap="round" stroke-linejoin="round"><path d="M13.400 2.041 C 10.576 2.310,8.216 3.574,6.675 5.643 C 6.251 6.212,6.068 6.506,5.789 7.063 C 5.244 8.151,4.966 9.297,5.013 10.256 C 5.068 11.389,5.460 11.976,6.160 11.976 C 6.847 11.976,7.330 11.284,7.097 10.635 C 6.884 10.043,7.059 9.055,7.559 8.018 C 8.595 5.873,10.532 4.486,13.040 4.095 C 13.607 4.007,15.050 3.995,15.537 4.075 C 16.693 4.266,17.342 4.646,17.680 5.333 C 17.908 5.796,17.975 6.139,17.973 6.840 C 17.971 7.545,17.897 7.862,17.594 8.474 C 17.094 9.485,16.255 10.299,15.080 10.914 C 14.123 11.415,12.793 11.802,11.665 11.907 C 11.402 11.931,11.388 11.928,11.416 11.856 C 11.432 11.814,11.905 10.529,12.466 9.000 C 13.569 5.996,13.574 5.977,13.424 5.620 C 13.339 5.421,13.149 5.219,12.940 5.108 C 12.716 4.988,12.284 4.988,12.060 5.108 C 11.857 5.216,11.661 5.420,11.586 5.600 C 11.270 6.367,6.024 20.784,6.009 20.926 C 5.950 21.513,6.489 22.048,7.083 21.991 C 7.334 21.967,7.620 21.818,7.768 21.635 C 7.854 21.529,8.249 20.498,9.255 17.755 L 10.624 14.020 10.882 13.992 C 11.024 13.976,11.430 13.935,11.785 13.900 C 13.284 13.753,14.739 13.342,15.952 12.722 C 18.089 11.631,19.555 9.801,19.925 7.760 C 19.956 7.585,19.979 7.186,19.978 6.800 C 19.975 4.059,18.492 2.446,15.640 2.081 C 15.170 2.021,13.859 1.998,13.400 2.041 " stroke="none" fill-rule="evenodd" fill="black"></path></svg>