<svg xmlns="http://www.w3.org/2000/svg" width="24" height="24" viewBox="0 0 24 24" fill="none" stroke="currentColor" stroke-width="2" stroke-linecap="round" stroke-linejoin="round"><path d="M10.720 3.023 C 8.261 3.156,6.701 3.387,5.060 3.861 C 3.899 4.197,3.131 4.529,2.370 5.026 C 1.996 5.270,1.439 5.856,1.269 6.184 C 0.983 6.736,1.000 6.371,1.000 12.100 C 1.000 17.783,0.986 17.459,1.247 17.989 C 2.088 19.697,5.892 20.861,11.038 20.987 C 12.284 21.017,12.397 20.997,12.696 20.698 C 12.976 20.418,13.000 20.299,13.000 19.210 C 13.000 18.338,13.005 18.276,13.070 18.296 C 13.515 18.430,19.916 20.000,20.019 20.000 C 20.183 20.000,20.541 19.871,20.960 19.660 C 22.034 19.121,22.709 18.404,22.920 17.580 C 22.998 17.275,23.000 17.135,22.999 12.124 C 22.999 6.416,23.013 6.729,22.731 6.184 C 22.551 5.835,21.997 5.264,21.568 4.986 C 20.074 4.014,17.631 3.360,14.520 3.100 C 13.830 3.042,11.312 2.991,10.720 3.023 M14.330 5.097 C 16.700 5.297,18.773 5.763,19.974 6.366 C 20.309 6.534,20.804 6.890,20.901 7.032 L 21.000 7.179 21.000 9.140 L 21.000 11.101 20.904 11.243 C 20.787 11.414,20.462 11.668,20.149 11.830 L 19.919 11.950 15.983 10.966 L 12.047 9.982 11.814 10.031 C 11.525 10.091,11.297 10.251,11.140 10.502 L 11.020 10.693 11.008 11.832 L 10.995 12.971 10.548 12.943 C 9.603 12.884,8.204 12.653,7.250 12.397 C 5.299 11.874,3.620 11.002,3.124 10.253 L 3.000 10.066 3.000 8.622 L 3.000 7.179 3.099 7.032 C 3.196 6.890,3.691 6.534,4.026 6.366 C 5.431 5.660,7.836 5.184,10.800 5.023 C 11.365 4.993,13.660 5.041,14.330 5.097 M16.510 13.158 C 18.363 13.621,19.942 14.000,20.019 14.000 C 20.164 14.000,20.544 13.871,20.833 13.724 L 21.000 13.638 21.000 13.870 C 21.000 14.051,20.978 14.134,20.900 14.249 C 20.794 14.404,20.429 14.682,20.110 14.850 L 19.920 14.950 16.460 14.085 L 13.000 13.220 13.000 12.747 C 13.000 12.316,13.006 12.276,13.070 12.296 C 13.108 12.307,14.656 12.696,16.510 13.158 M3.287 12.955 C 4.931 13.954,7.730 14.737,10.360 14.934 L 10.980 14.980 10.991 15.484 L 11.002 15.988 10.811 15.975 C 8.715 15.830,7.528 15.644,6.107 15.236 C 4.701 14.833,3.516 14.232,3.132 13.727 C 3.004 13.559,3.000 13.541,3.000 13.177 C 3.000 12.970,3.007 12.800,3.016 12.800 C 3.025 12.800,3.147 12.870,3.287 12.955 M16.510 16.158 C 18.363 16.621,19.942 17.000,20.019 17.000 C 20.164 17.000,20.544 16.871,20.833 16.724 L 21.000 16.638 21.000 16.870 C 21.000 17.051,20.978 17.134,20.900 17.249 C 20.794 17.404,20.429 17.682,20.110 17.850 L 19.920 17.950 16.460 17.085 L 13.000 16.220 13.000 15.747 C 13.000 15.316,13.006 15.276,13.070 15.296 C 13.108 15.307,14.656 15.696,16.510 16.158 M3.462 16.376 C 5.128 17.196,7.805 17.810,10.280 17.940 C 10.533 17.953,10.798 17.973,10.870 17.984 L 11.000 18.004 11.000 18.505 L 11.000 19.005 10.690 18.983 C 10.520 18.971,10.155 18.951,9.880 18.938 C 8.143 18.857,5.952 18.477,4.700 18.041 C 4.078 17.824,3.460 17.501,3.217 17.266 L 3.000 17.055 3.000 16.608 C 3.000 16.361,3.005 16.160,3.012 16.160 C 3.019 16.160,3.221 16.257,3.462 16.376 " stroke="none" fill-rule="evenodd" fill="black"></path></svg>