<svg xmlns="http://www.w3.org/2000/svg" width="24" height="24" viewBox="0 0 24 24" fill="none" stroke="currentColor" stroke-width="2" stroke-linecap="round" stroke-linejoin="round"><path d="M2.695 6.057 C 2.466 6.129,2.256 6.299,2.128 6.516 L 2.020 6.700 2.009 9.529 C 1.998 12.264,2.001 12.371,2.082 12.768 C 2.357 14.119,3.247 15.194,4.512 15.704 C 6.567 16.532,8.908 15.522,9.714 13.460 C 9.972 12.800,9.972 12.796,9.997 10.724 L 10.020 8.829 11.311 10.767 L 12.602 12.705 12.480 13.222 C 12.310 13.938,11.829 15.787,11.373 17.480 C 11.045 18.699,10.994 18.930,11.013 19.112 C 11.077 19.743,11.718 20.146,12.325 19.939 C 12.564 19.857,12.775 19.678,12.875 19.470 C 12.959 19.296,13.195 18.449,13.761 16.290 C 13.939 15.613,14.102 14.991,14.124 14.907 L 14.164 14.755 14.316 14.892 C 14.678 15.219,15.269 15.553,15.802 15.731 C 16.397 15.929,16.728 15.978,17.480 15.976 C 18.104 15.975,18.222 15.963,18.563 15.871 C 20.550 15.336,21.890 13.711,21.988 11.717 C 22.090 9.646,20.736 7.754,18.743 7.181 C 17.764 6.900,16.467 6.972,15.510 7.361 C 14.526 7.762,13.741 8.596,13.337 9.671 L 13.209 10.012 11.969 8.155 C 10.651 6.180,10.608 6.127,10.240 6.043 C 9.969 5.981,8.929 5.989,8.710 6.055 C 8.467 6.128,8.260 6.293,8.128 6.516 L 8.020 6.700 7.999 9.560 C 7.975 12.751,7.988 12.598,7.688 13.063 C 7.305 13.654,6.683 14.000,6.000 14.000 C 5.317 14.000,4.695 13.654,4.312 13.063 C 4.011 12.597,4.025 12.751,4.001 9.560 L 3.980 6.700 3.872 6.516 C 3.628 6.101,3.150 5.915,2.695 6.057 M18.020 9.060 C 18.741 9.211,19.395 9.713,19.715 10.362 C 20.087 11.118,20.090 11.878,19.723 12.620 C 19.318 13.439,18.546 13.942,17.620 13.989 C 16.500 14.047,15.623 13.594,14.946 12.610 L 14.753 12.328 14.919 11.515 C 15.154 10.367,15.335 9.941,15.756 9.548 C 15.965 9.352,16.148 9.247,16.461 9.145 C 16.902 9.001,17.565 8.965,18.020 9.060 " stroke="none" fill-rule="evenodd" fill="black"></path></svg>