<svg xmlns="http://www.w3.org/2000/svg" width="24" height="24" viewBox="0 0 24 24" fill="none" stroke="currentColor" stroke-width="2" stroke-linecap="round" stroke-linejoin="round"><path d="M11.140 2.042 C 7.997 2.360,5.325 3.965,3.613 6.564 C 3.290 7.054,2.828 7.970,2.618 8.540 C 2.427 9.056,2.187 10.015,2.102 10.600 C 1.793 12.731,2.231 15.042,3.292 16.885 C 3.611 17.440,3.917 17.637,4.380 17.587 C 4.587 17.565,5.589 17.214,7.080 16.640 C 11.118 15.087,13.169 13.738,14.572 11.710 C 15.508 10.358,16.147 8.880,17.456 5.038 C 17.722 4.256,17.701 3.940,17.360 3.597 C 17.142 3.378,16.022 2.808,15.360 2.580 C 14.806 2.389,13.941 2.178,13.386 2.098 C 12.850 2.022,11.639 1.991,11.140 2.042 M12.783 4.043 C 13.537 4.116,14.442 4.344,15.108 4.628 L 15.435 4.767 15.163 5.554 C 14.294 8.063,13.705 9.394,12.993 10.462 C 12.086 11.821,10.803 12.815,8.680 13.801 C 7.416 14.388,4.823 15.399,4.755 15.331 C 4.695 15.271,4.450 14.640,4.342 14.264 C 3.915 12.785,3.901 11.328,4.301 9.841 C 4.565 8.860,5.099 7.828,5.781 6.980 C 6.994 5.472,8.796 4.424,10.700 4.120 C 11.477 3.996,12.073 3.973,12.783 4.043 M20.137 8.433 C 19.844 8.595,18.308 9.640,17.486 10.237 C 15.869 11.411,14.769 12.349,13.377 13.739 C 11.763 15.350,10.927 16.354,9.632 18.240 C 9.043 19.097,8.404 20.121,8.361 20.274 C 8.233 20.736,8.437 21.233,8.840 21.439 C 9.030 21.536,9.768 21.739,10.280 21.835 C 11.018 21.973,11.562 22.013,12.335 21.988 C 14.471 21.918,16.454 21.195,18.195 19.850 C 18.658 19.493,19.632 18.507,19.988 18.036 C 21.298 16.302,22.002 14.197,21.999 12.020 C 21.998 11.132,21.907 10.407,21.674 9.429 C 21.585 9.057,21.518 8.866,21.426 8.730 C 21.156 8.328,20.571 8.194,20.137 8.433 M19.937 11.067 C 19.951 11.103,19.973 11.414,19.986 11.757 C 20.039 13.128,19.729 14.504,19.096 15.712 C 18.720 16.429,18.371 16.906,17.761 17.534 C 17.045 18.272,16.391 18.748,15.500 19.181 C 14.728 19.555,14.134 19.746,13.240 19.906 C 12.826 19.981,11.459 20.007,11.109 19.947 L 10.918 19.915 11.345 19.287 C 13.420 16.240,15.832 13.845,19.260 11.425 C 19.590 11.193,19.872 11.002,19.886 11.001 C 19.900 11.000,19.923 11.030,19.937 11.067 " stroke="none" fill-rule="evenodd" fill="black"></path></svg>