<svg xmlns="http://www.w3.org/2000/svg" width="24" height="24" viewBox="0 0 24 24" fill="none" stroke="currentColor" stroke-width="2" stroke-linecap="round" stroke-linejoin="round"><path d="M10.340 3.024 C 10.252 3.033,10.027 3.059,9.840 3.083 C 8.246 3.279,6.644 3.960,5.380 4.980 C 4.560 5.642,4.354 5.915,4.354 6.346 C 4.354 6.746,4.622 7.137,5.000 7.288 C 5.151 7.348,5.561 7.338,5.725 7.269 C 5.804 7.236,6.029 7.066,6.225 6.892 C 6.886 6.303,7.336 6.000,8.020 5.680 C 9.031 5.208,9.863 5.025,11.000 5.025 C 12.137 5.025,12.969 5.208,13.980 5.680 C 16.101 6.671,17.592 8.689,17.924 11.020 C 18.033 11.783,17.978 12.908,17.795 13.660 C 16.959 17.093,13.618 19.395,10.132 18.938 C 8.652 18.744,7.403 18.167,6.280 17.156 C 5.831 16.752,5.691 16.680,5.358 16.680 C 4.776 16.680,4.354 17.093,4.354 17.663 C 4.354 17.979,4.473 18.203,4.809 18.525 C 5.470 19.158,6.166 19.641,7.020 20.061 C 9.569 21.314,12.443 21.314,14.980 20.060 C 15.927 19.593,16.613 19.101,17.357 18.357 C 18.101 17.613,18.593 16.927,19.060 15.980 C 20.123 13.828,20.289 11.446,19.535 9.160 C 18.782 6.878,17.121 4.984,14.940 3.921 C 14.062 3.493,13.267 3.244,12.320 3.101 C 11.911 3.039,10.662 2.991,10.340 3.024 M10.480 7.027 C 10.182 7.058,9.689 7.171,9.373 7.280 C 7.700 7.860,6.476 9.251,6.094 11.008 C 5.993 11.472,5.993 12.528,6.094 12.992 C 6.303 13.951,6.717 14.737,7.386 15.440 C 8.087 16.176,8.883 16.629,9.920 16.884 C 10.425 17.007,11.437 17.019,11.960 16.907 C 12.725 16.743,13.401 16.445,13.964 16.021 C 14.681 15.483,14.900 15.124,14.804 14.645 C 14.695 14.097,14.205 13.770,13.624 13.857 C 13.445 13.884,13.335 13.955,12.780 14.402 C 12.183 14.882,11.234 15.102,10.439 14.943 C 9.972 14.851,9.372 14.555,9.035 14.253 C 8.272 13.568,7.910 12.621,8.036 11.638 C 8.089 11.227,8.155 11.005,8.328 10.660 C 8.628 10.063,9.086 9.614,9.697 9.321 C 10.225 9.067,10.438 9.019,11.020 9.023 C 11.851 9.028,12.376 9.240,13.115 9.869 C 13.396 10.107,13.593 10.176,13.926 10.152 C 14.536 10.108,14.955 9.495,14.782 8.900 C 14.608 8.303,13.430 7.483,12.320 7.186 C 11.730 7.029,11.042 6.969,10.480 7.027 " stroke="none" fill-rule="evenodd" fill="black"></path></svg>