<svg xmlns="http://www.w3.org/2000/svg" width="24" height="24" viewBox="0 0 24 24" fill="none" stroke="currentColor" stroke-width="2" stroke-linecap="round" stroke-linejoin="round"><path d="M4.499 2.043 C 3.380 2.232,2.461 3.048,2.114 4.160 L 2.020 4.460 2.020 12.000 L 2.020 19.540 2.114 19.840 C 2.422 20.827,3.173 21.578,4.160 21.886 L 4.460 21.980 12.000 21.980 L 19.540 21.980 19.840 21.886 C 20.827 21.578,21.578 20.827,21.886 19.840 L 21.980 19.540 21.980 12.000 L 21.980 4.460 21.886 4.160 C 21.581 3.182,20.832 2.428,19.861 2.121 L 19.540 2.020 12.120 2.014 C 8.039 2.011,4.609 2.024,4.499 2.043 M11.000 5.000 L 11.000 6.000 8.946 6.000 C 6.717 6.000,6.666 6.004,6.382 6.221 C 6.302 6.282,6.187 6.415,6.128 6.516 C 6.037 6.672,6.020 6.746,6.020 7.000 C 6.020 7.256,6.036 7.328,6.131 7.489 C 6.256 7.702,6.449 7.864,6.670 7.943 C 6.788 7.985,7.269 7.997,8.910 7.998 L 11.000 8.000 11.000 8.500 L 11.000 9.000 10.030 9.000 C 9.485 9.000,8.995 9.019,8.911 9.042 C 8.518 9.151,8.200 9.580,8.200 10.000 C 8.200 10.420,8.518 10.849,8.911 10.958 C 9.007 10.985,10.051 11.000,11.850 11.000 C 13.385 11.000,14.640 11.006,14.640 11.012 C 14.640 11.077,14.367 11.805,14.217 12.142 C 14.050 12.514,14.016 12.564,13.943 12.546 C 13.898 12.534,13.464 12.390,12.980 12.226 C 12.020 11.899,11.226 11.691,10.420 11.554 C 9.793 11.448,8.483 11.425,8.023 11.512 C 7.567 11.599,7.040 11.787,6.700 11.984 C 6.286 12.225,5.763 12.752,5.532 13.162 C 5.167 13.809,4.973 14.711,5.012 15.580 C 5.054 16.539,5.332 17.173,6.002 17.840 C 6.741 18.577,7.610 18.936,8.783 18.989 C 10.340 19.060,11.940 18.308,13.441 16.799 C 13.860 16.377,14.360 15.785,14.661 15.350 C 14.748 15.224,14.840 15.121,14.863 15.120 C 14.934 15.120,17.408 16.365,18.080 16.740 C 18.421 16.930,18.992 17.260,19.350 17.473 L 20.000 17.860 20.000 18.484 C 20.000 19.358,19.900 19.627,19.484 19.872 L 19.300 19.980 12.000 19.980 L 4.700 19.980 4.516 19.872 C 4.415 19.813,4.284 19.700,4.225 19.623 C 3.986 19.309,4.000 19.795,4.000 12.022 C 4.000 4.005,3.975 4.631,4.304 4.303 C 4.613 3.994,4.464 4.006,7.930 4.003 L 11.000 4.000 11.000 5.000 M19.310 4.061 C 19.592 4.144,19.858 4.412,19.940 4.694 C 19.993 4.875,19.999 5.572,19.990 10.206 L 19.980 15.511 19.120 15.033 C 18.647 14.770,17.725 14.290,17.072 13.967 C 16.419 13.644,15.883 13.367,15.882 13.350 C 15.881 13.334,15.961 13.141,16.060 12.921 C 16.460 12.030,16.744 11.002,16.787 10.284 C 16.818 9.784,16.750 9.556,16.494 9.301 C 16.204 9.010,16.137 9.000,14.453 9.000 L 13.000 9.000 13.000 8.500 L 13.000 8.000 15.090 7.998 C 16.731 7.997,17.212 7.985,17.330 7.943 C 17.551 7.864,17.744 7.702,17.869 7.489 C 17.964 7.328,17.980 7.256,17.980 7.000 C 17.980 6.746,17.963 6.672,17.872 6.516 C 17.813 6.415,17.698 6.282,17.618 6.221 C 17.334 6.004,17.283 6.000,15.054 6.000 L 13.000 6.000 13.000 5.000 L 13.000 4.000 16.053 4.000 C 18.669 4.000,19.135 4.009,19.310 4.061 M10.180 13.536 C 10.958 13.676,12.837 14.217,12.900 14.320 C 12.931 14.370,12.425 14.977,11.980 15.424 C 11.264 16.142,10.368 16.722,9.700 16.902 C 9.365 16.992,8.813 17.020,8.511 16.964 C 7.994 16.866,7.468 16.580,7.265 16.286 C 7.055 15.983,7.021 15.852,7.024 15.360 C 7.030 14.247,7.402 13.700,8.293 13.498 C 8.613 13.425,9.681 13.447,10.180 13.536 " stroke="none" fill-rule="evenodd" fill="black"></path></svg>