<svg xmlns="http://www.w3.org/2000/svg" width="24" height="24" viewBox="0 0 24 24" fill="none" stroke="currentColor" stroke-width="2" stroke-linecap="round" stroke-linejoin="round"><path d="M5.118 3.061 C 4.168 3.209,3.383 3.668,2.583 4.542 C 1.635 5.578,1.257 6.093,1.090 6.574 C 0.996 6.844,0.993 6.885,1.010 7.677 C 1.028 8.572,1.070 8.783,1.323 9.285 C 1.586 9.808,2.163 10.378,2.728 10.674 L 2.956 10.793 2.976 13.087 C 3.006 16.586,3.123 18.291,3.423 19.631 C 3.623 20.522,3.944 21.128,4.316 21.318 C 4.617 21.472,5.410 21.623,6.620 21.757 C 9.522 22.079,14.466 22.079,17.380 21.757 C 18.641 21.618,19.475 21.451,19.749 21.282 C 20.168 21.024,20.525 20.091,20.714 18.760 C 20.926 17.274,20.999 15.952,21.029 13.120 L 21.053 10.780 21.284 10.665 C 21.887 10.364,22.503 9.710,22.757 9.101 C 22.955 8.624,22.999 8.348,22.999 7.549 C 23.000 6.749,22.963 6.575,22.697 6.121 C 22.371 5.564,21.181 4.222,20.675 3.841 C 20.106 3.412,19.515 3.159,18.845 3.058 C 18.299 2.976,5.648 2.978,5.118 3.061 M18.763 5.073 C 19.256 5.202,19.570 5.456,20.382 6.382 C 20.538 6.558,20.742 6.805,20.836 6.930 L 21.008 7.158 20.994 7.689 C 20.981 8.181,20.972 8.233,20.872 8.405 C 20.674 8.740,20.296 8.997,19.997 8.999 C 19.649 9.001,19.261 8.753,19.108 8.431 C 19.070 8.351,19.021 8.146,19.000 7.976 C 18.953 7.608,18.833 7.381,18.595 7.205 C 18.247 6.950,17.753 6.950,17.405 7.205 C 17.167 7.381,17.047 7.608,17.000 7.976 C 16.953 8.347,16.874 8.527,16.670 8.725 C 16.301 9.083,15.699 9.083,15.330 8.725 C 15.126 8.527,15.047 8.347,15.000 7.976 C 14.953 7.608,14.833 7.381,14.595 7.205 C 14.247 6.950,13.753 6.950,13.405 7.205 C 13.167 7.381,13.047 7.608,13.000 7.976 C 12.953 8.347,12.874 8.527,12.670 8.725 C 12.301 9.083,11.699 9.083,11.330 8.725 C 11.126 8.527,11.047 8.347,11.000 7.976 C 10.953 7.608,10.833 7.381,10.595 7.205 C 10.247 6.950,9.753 6.950,9.405 7.205 C 9.167 7.381,9.047 7.608,9.000 7.976 C 8.953 8.347,8.874 8.527,8.670 8.725 C 8.301 9.083,7.699 9.083,7.330 8.725 C 7.126 8.527,7.047 8.347,7.000 7.976 C 6.953 7.608,6.833 7.381,6.595 7.205 C 6.247 6.950,5.753 6.950,5.405 7.205 C 5.167 7.381,5.047 7.608,5.000 7.976 C 4.979 8.146,4.930 8.351,4.892 8.431 C 4.739 8.754,4.353 9.000,4.001 9.000 C 3.681 9.000,3.242 8.670,3.077 8.305 C 3.016 8.172,3.002 8.043,3.001 7.640 L 3.001 7.140 3.198 6.886 C 3.459 6.549,4.144 5.783,4.387 5.556 C 4.647 5.313,4.926 5.155,5.240 5.073 C 5.479 5.010,6.013 5.005,12.000 5.005 C 18.016 5.005,18.520 5.010,18.763 5.073 M6.173 10.376 C 6.415 10.573,6.815 10.780,7.160 10.887 C 7.594 11.021,8.406 11.021,8.840 10.887 C 9.186 10.779,9.586 10.572,9.830 10.373 L 10.000 10.235 10.170 10.373 C 10.414 10.572,10.814 10.779,11.160 10.887 C 11.594 11.021,12.406 11.021,12.840 10.887 C 13.186 10.779,13.586 10.572,13.830 10.373 L 14.000 10.235 14.170 10.373 C 14.414 10.572,14.814 10.779,15.160 10.887 C 15.594 11.021,16.406 11.021,16.840 10.887 C 17.186 10.780,17.586 10.572,17.829 10.374 L 17.998 10.236 18.205 10.400 C 18.319 10.490,18.553 10.631,18.725 10.712 L 19.038 10.860 19.039 12.240 C 19.040 14.637,18.935 16.889,18.757 18.282 C 18.676 18.919,18.557 19.500,18.495 19.561 C 18.447 19.608,17.443 19.744,16.600 19.817 C 13.756 20.065,9.648 20.048,6.980 19.778 C 6.177 19.697,5.551 19.603,5.493 19.554 C 5.361 19.445,5.180 18.192,5.079 16.689 C 5.015 15.742,4.960 12.761,4.988 11.754 L 5.013 10.848 5.336 10.684 C 5.514 10.593,5.732 10.457,5.820 10.381 C 5.908 10.305,5.986 10.242,5.993 10.242 C 6.001 10.241,6.082 10.301,6.173 10.376 M11.580 13.096 C 11.427 13.169,11.118 13.455,10.274 14.306 C 9.666 14.919,9.136 15.483,9.095 15.560 C 9.043 15.659,9.021 15.787,9.021 16.000 C 9.020 16.258,9.036 16.327,9.133 16.492 C 9.338 16.842,9.705 17.029,10.105 16.988 C 10.367 16.961,10.523 16.879,10.785 16.632 L 10.995 16.433 11.007 17.370 L 11.020 18.307 11.141 18.503 C 11.543 19.156,12.457 19.156,12.859 18.503 L 12.980 18.307 12.993 17.370 L 13.005 16.433 13.215 16.632 C 13.477 16.879,13.633 16.961,13.895 16.988 C 14.295 17.029,14.662 16.842,14.867 16.492 C 14.964 16.327,14.980 16.258,14.979 16.000 C 14.979 15.787,14.957 15.659,14.905 15.560 C 14.864 15.483,14.334 14.919,13.726 14.306 C 12.510 13.080,12.405 13.001,12.000 13.001 C 11.851 13.001,11.715 13.031,11.580 13.096 " stroke="none" fill-rule="evenodd" fill="black"></path></svg>