<svg xmlns="http://www.w3.org/2000/svg" width="24" height="24" viewBox="0 0 24 24" fill="none" stroke="currentColor" stroke-width="2" stroke-linecap="round" stroke-linejoin="round"><path d="M11.680 2.052 C 11.603 2.077,9.674 3.496,7.393 5.206 C 2.730 8.703,3.020 8.452,3.020 8.981 C 3.020 9.202,3.042 9.304,3.121 9.461 C 3.213 9.643,3.355 9.760,4.769 10.820 C 5.620 11.458,6.316 11.989,6.316 12.000 C 6.316 12.011,5.626 12.537,4.781 13.168 C 3.021 14.484,3.020 14.485,3.020 14.980 C 3.020 15.504,2.748 15.234,7.298 19.216 C 9.550 21.186,11.461 22.839,11.546 22.889 C 11.747 23.007,12.228 23.017,12.433 22.907 C 12.505 22.868,14.424 21.209,16.696 19.221 C 20.490 15.901,20.835 15.589,20.914 15.406 C 21.064 15.056,20.997 14.592,20.760 14.340 C 20.718 14.296,20.009 13.756,19.184 13.140 C 18.358 12.524,17.683 12.011,17.683 12.000 C 17.683 11.989,18.374 11.463,19.219 10.832 C 20.980 9.515,20.980 9.515,20.980 9.019 C 20.980 8.798,20.958 8.696,20.879 8.539 C 20.785 8.352,20.529 8.152,16.639 5.231 C 13.899 3.173,12.440 2.102,12.323 2.061 C 12.121 1.991,11.884 1.988,11.680 2.052 M15.193 6.640 C 16.911 7.927,18.317 8.989,18.317 9.000 C 18.316 9.045,12.061 13.700,12.000 13.700 C 11.939 13.700,5.684 9.045,5.684 9.000 C 5.683 8.950,11.947 4.285,12.004 4.292 C 12.040 4.296,13.474 5.353,15.193 6.640 M9.729 14.550 C 10.658 15.248,11.481 15.856,11.559 15.900 C 11.695 15.977,11.793 15.981,14.507 16.000 L 17.314 16.020 14.688 18.319 C 13.243 19.583,12.034 20.617,12.000 20.617 C 11.916 20.617,5.589 15.075,5.628 15.036 C 5.742 14.924,7.950 13.285,7.990 13.283 C 8.018 13.281,8.801 13.852,9.729 14.550 M16.508 13.630 L 16.974 13.980 16.487 13.991 C 16.219 13.997,15.781 13.997,15.513 13.991 L 15.026 13.980 15.483 13.633 C 15.734 13.442,15.963 13.284,15.991 13.283 C 16.019 13.281,16.251 13.438,16.508 13.630 " stroke="none" fill-rule="evenodd" fill="black"></path></svg>