<svg xmlns="http://www.w3.org/2000/svg" width="24" height="24" viewBox="0 0 24 24" fill="none" stroke="currentColor" stroke-width="2" stroke-linecap="round" stroke-linejoin="round"><path d="M11.080 2.045 C 9.507 2.184,7.883 2.751,6.540 3.630 C 5.905 4.045,5.499 4.378,4.919 4.958 C 2.953 6.926,1.919 9.544,2.013 12.320 C 2.084 14.439,2.752 16.328,4.033 18.040 C 4.430 18.570,5.305 19.464,5.800 19.847 C 7.242 20.961,8.787 21.624,10.600 21.907 C 11.247 22.008,12.753 22.008,13.400 21.907 C 15.638 21.557,17.504 20.620,19.062 19.062 C 20.620 17.504,21.557 15.638,21.907 13.400 C 22.008 12.753,22.008 11.247,21.907 10.600 C 21.624 8.786,20.959 7.238,19.847 5.800 C 19.510 5.365,18.639 4.494,18.200 4.154 C 16.133 2.555,13.646 1.818,11.080 2.045 M12.734 4.041 C 14.574 4.216,16.228 4.976,17.554 6.256 C 20.043 8.658,20.702 12.394,19.183 15.499 C 18.749 16.387,18.223 17.105,17.496 17.801 C 16.876 18.394,16.262 18.819,15.471 19.200 C 13.267 20.265,10.733 20.265,8.529 19.200 C 7.477 18.693,6.612 18.015,5.847 17.100 C 3.848 14.711,3.440 11.302,4.816 8.500 C 6.162 5.760,8.867 4.049,11.920 4.005 C 12.129 4.003,12.495 4.019,12.734 4.041 M7.695 8.057 C 7.466 8.129,7.256 8.299,7.128 8.516 C 7.037 8.672,7.020 8.746,7.020 9.000 C 7.020 9.256,7.036 9.328,7.131 9.489 C 7.256 9.702,7.449 9.864,7.670 9.943 C 7.888 10.021,11.112 10.021,11.330 9.943 C 11.551 9.864,11.744 9.702,11.869 9.489 C 11.964 9.328,11.980 9.256,11.980 9.000 C 11.980 8.746,11.963 8.672,11.872 8.516 C 11.740 8.293,11.533 8.128,11.290 8.055 C 11.035 7.978,7.941 7.980,7.695 8.057 M14.240 8.035 C 14.055 8.095,13.901 8.192,13.774 8.327 C 13.696 8.409,13.122 9.513,12.264 11.230 L 10.880 14.000 9.500 14.000 L 8.120 14.000 8.369 13.500 L 8.619 13.000 9.399 12.998 C 10.240 12.996,10.370 12.973,10.619 12.783 C 10.696 12.725,10.808 12.592,10.869 12.489 C 10.964 12.328,10.980 12.256,10.980 12.000 C 10.980 11.745,10.964 11.672,10.871 11.514 C 10.731 11.277,10.485 11.095,10.224 11.039 C 10.086 11.009,9.408 10.999,8.120 11.007 C 6.261 11.020,6.217 11.022,6.060 11.106 C 5.706 11.298,5.512 11.615,5.512 12.003 C 5.512 12.423,5.768 12.785,6.174 12.940 C 6.276 12.979,6.360 13.017,6.360 13.024 C 6.360 13.031,6.168 13.423,5.934 13.895 C 5.533 14.703,5.507 14.769,5.509 14.992 C 5.512 15.292,5.618 15.536,5.827 15.724 C 6.150 16.014,6.023 16.004,9.060 15.991 C 11.761 15.980,11.781 15.979,11.940 15.894 C 12.028 15.846,12.157 15.747,12.226 15.674 C 12.303 15.593,12.771 14.702,13.416 13.410 C 14.001 12.239,14.489 11.280,14.500 11.280 C 14.520 11.280,15.360 12.941,15.360 12.980 C 15.360 12.991,15.255 13.000,15.126 13.000 C 14.667 13.000,14.328 13.175,14.128 13.516 C 14.037 13.672,14.020 13.746,14.020 14.000 C 14.020 14.256,14.036 14.328,14.131 14.489 C 14.192 14.592,14.304 14.725,14.381 14.783 C 14.630 14.973,14.760 14.996,15.601 14.998 L 16.383 15.000 16.509 15.256 C 16.665 15.572,16.844 15.780,17.051 15.886 C 17.712 16.223,18.493 15.735,18.493 14.985 C 18.493 14.755,18.457 14.677,16.929 11.619 C 16.039 9.839,15.309 8.425,15.236 8.342 C 15.165 8.261,15.035 8.158,14.947 8.113 C 14.771 8.024,14.399 7.983,14.240 8.035 " stroke="none" fill-rule="evenodd" fill="black"></path></svg>