<svg xmlns="http://www.w3.org/2000/svg" width="24" height="24" viewBox="0 0 24 24" fill="none" stroke="currentColor" stroke-width="2" stroke-linecap="round" stroke-linejoin="round"><path d="M6.575 3.041 C 4.485 3.213,2.582 4.607,1.632 6.660 C 1.152 7.696,0.970 8.654,1.013 9.918 C 1.100 12.482,1.972 14.881,3.537 16.860 C 3.917 17.341,4.811 18.242,5.280 18.618 C 7.307 20.241,9.805 21.076,12.360 20.987 C 14.596 20.908,16.662 20.162,18.491 18.773 C 19.003 18.383,20.093 17.303,20.480 16.800 C 21.935 14.912,22.764 12.764,22.965 10.362 C 23.019 9.712,22.992 8.795,22.903 8.300 C 22.519 6.158,21.186 4.398,19.293 3.535 C 17.078 2.526,14.586 3.019,12.783 4.824 C 12.562 5.046,12.299 5.338,12.200 5.472 C 12.101 5.607,12.008 5.713,11.993 5.708 C 11.979 5.704,11.884 5.592,11.782 5.460 C 11.680 5.328,11.467 5.087,11.308 4.925 C 9.983 3.566,8.306 2.899,6.575 3.041 M7.918 5.124 C 8.502 5.272,9.218 5.685,9.757 6.184 C 10.266 6.655,10.737 7.412,11.022 8.218 C 11.246 8.852,11.757 9.132,12.334 8.936 C 12.640 8.832,12.849 8.587,13.004 8.154 C 13.261 7.435,13.619 6.839,14.100 6.328 C 14.634 5.760,15.387 5.298,16.080 5.114 C 16.581 4.980,17.308 4.990,17.860 5.138 C 19.173 5.489,20.244 6.505,20.730 7.860 C 20.926 8.406,20.978 8.761,20.977 9.540 C 20.974 11.147,20.638 12.536,19.896 14.003 C 18.708 16.351,16.595 18.083,14.142 18.722 C 13.330 18.934,12.980 18.975,12.000 18.976 C 11.238 18.977,11.021 18.963,10.585 18.885 C 9.331 18.663,8.216 18.219,7.193 17.535 C 5.091 16.131,3.602 13.826,3.166 11.300 C 2.828 9.339,3.008 8.058,3.788 6.886 C 4.241 6.205,4.817 5.696,5.485 5.385 C 6.300 5.006,7.109 4.919,7.918 5.124 M7.240 9.035 C 6.939 9.134,6.689 9.354,6.576 9.620 C 6.484 9.835,6.494 10.480,6.598 11.090 C 6.944 13.113,8.223 14.816,9.960 15.564 C 12.895 16.830,16.160 15.196,17.197 11.944 C 17.457 11.130,17.570 9.967,17.424 9.620 C 17.339 9.421,17.149 9.219,16.940 9.108 C 16.716 8.988,16.284 8.988,16.060 9.108 C 15.853 9.218,15.661 9.421,15.581 9.611 C 15.546 9.694,15.501 9.982,15.481 10.252 C 15.394 11.387,15.034 12.233,14.323 12.974 C 12.687 14.677,10.082 14.185,8.960 11.960 C 8.695 11.435,8.574 10.964,8.519 10.252 C 8.499 9.982,8.454 9.694,8.419 9.611 C 8.339 9.420,8.145 9.216,7.943 9.112 C 7.771 9.024,7.399 8.983,7.240 9.035 " stroke="none" fill-rule="evenodd" fill="black"></path></svg>