<svg xmlns="http://www.w3.org/2000/svg" width="24" height="24" viewBox="0 0 24 24" fill="none" stroke="currentColor" stroke-width="2" stroke-linecap="round" stroke-linejoin="round"><path d="M5.900 5.045 C 4.179 5.260,2.675 6.557,2.185 8.248 C 2.001 8.880,1.994 9.037,2.008 12.200 L 2.022 15.180 2.127 15.563 C 2.592 17.261,3.759 18.426,5.437 18.869 C 5.763 18.955,5.934 18.973,6.580 18.989 C 7.241 19.005,7.393 18.997,7.744 18.924 C 9.394 18.584,10.584 17.394,10.924 15.744 C 11.037 15.195,11.018 14.765,10.868 14.510 C 10.568 13.998,9.881 13.855,9.405 14.205 C 9.146 14.396,9.042 14.610,8.997 15.047 C 8.947 15.537,8.875 15.773,8.688 16.062 C 8.392 16.519,7.910 16.858,7.404 16.963 C 7.267 16.992,6.953 17.002,6.581 16.991 C 6.060 16.975,5.940 16.958,5.680 16.866 C 5.072 16.649,4.562 16.197,4.277 15.620 C 4.001 15.062,4.001 15.068,4.001 12.000 C 4.001 8.921,4.000 8.941,4.285 8.362 C 4.605 7.713,5.259 7.211,5.980 7.060 C 6.371 6.978,7.186 6.985,7.523 7.073 C 8.047 7.210,8.552 7.629,8.797 8.129 C 8.911 8.362,8.945 8.522,9.021 9.165 C 9.051 9.412,9.236 9.694,9.465 9.839 C 9.938 10.139,10.558 9.992,10.856 9.508 C 10.956 9.345,10.977 9.264,10.991 8.988 C 11.021 8.393,10.784 7.540,10.421 6.932 C 9.961 6.161,9.142 5.511,8.245 5.204 C 7.710 5.021,6.663 4.950,5.900 5.045 M15.670 6.055 C 15.355 6.172,15.084 6.477,15.024 6.780 C 15.002 6.895,14.800 8.847,14.800 8.950 C 14.800 8.987,14.683 9.000,14.346 9.000 C 13.657 9.000,13.357 9.127,13.128 9.516 C 13.037 9.672,13.020 9.746,13.020 10.000 C 13.020 10.256,13.036 10.328,13.131 10.489 C 13.351 10.864,13.631 10.996,14.210 10.998 L 14.601 11.000 14.580 11.150 C 14.555 11.324,14.400 12.874,14.400 12.945 C 14.400 12.979,14.231 12.997,13.810 13.007 C 13.301 13.020,13.198 13.033,13.060 13.107 C 12.708 13.296,12.512 13.615,12.512 14.000 C 12.512 14.405,12.719 14.724,13.100 14.905 C 13.274 14.987,13.360 14.999,13.754 15.000 C 14.205 15.000,14.208 15.001,14.188 15.090 C 14.177 15.139,14.127 15.612,14.078 16.140 C 13.978 17.207,13.986 17.298,14.198 17.591 C 14.263 17.681,14.403 17.805,14.508 17.867 C 14.673 17.964,14.743 17.980,15.000 17.980 C 15.257 17.980,15.327 17.964,15.492 17.867 C 15.717 17.735,15.890 17.512,15.954 17.272 C 15.991 17.135,16.200 15.246,16.200 15.050 C 16.200 15.011,16.428 15.000,17.204 15.000 L 18.209 15.000 18.188 15.090 C 18.177 15.139,18.127 15.612,18.078 16.140 C 17.978 17.207,17.986 17.298,18.198 17.591 C 18.263 17.681,18.403 17.805,18.508 17.867 C 18.673 17.964,18.743 17.980,19.000 17.980 C 19.257 17.980,19.327 17.964,19.492 17.867 C 19.717 17.735,19.890 17.512,19.954 17.272 C 19.991 17.135,20.200 15.246,20.200 15.050 C 20.200 15.013,20.326 15.000,20.690 14.998 C 21.378 14.996,21.637 14.884,21.869 14.489 C 21.964 14.328,21.980 14.256,21.980 14.000 C 21.980 13.746,21.963 13.672,21.872 13.516 C 21.655 13.147,21.336 13.000,20.753 13.000 L 20.399 13.000 20.420 12.850 C 20.445 12.671,20.600 11.125,20.600 11.051 C 20.600 11.012,20.730 11.000,21.150 11.000 C 21.645 10.999,21.720 10.990,21.900 10.905 C 22.281 10.724,22.488 10.405,22.488 10.000 C 22.488 9.615,22.292 9.295,21.940 9.108 C 21.808 9.038,21.693 9.020,21.287 9.007 C 20.807 8.992,20.794 8.989,20.813 8.906 C 20.824 8.859,20.873 8.388,20.922 7.860 C 21.023 6.782,21.014 6.690,20.789 6.394 C 20.598 6.144,20.330 6.020,19.981 6.020 C 19.745 6.020,19.669 6.038,19.508 6.133 C 19.292 6.260,19.098 6.503,19.042 6.716 C 19.012 6.834,18.800 8.788,18.800 8.953 C 18.800 8.988,18.544 9.000,17.796 9.000 L 16.791 9.000 16.812 8.910 C 16.823 8.861,16.873 8.388,16.922 7.860 C 17.023 6.782,17.014 6.690,16.789 6.394 C 16.548 6.079,16.028 5.921,15.670 6.055 M18.580 11.150 C 18.555 11.329,18.400 12.875,18.400 12.949 C 18.400 12.989,18.186 13.000,17.400 13.000 L 16.399 13.000 16.420 12.850 C 16.445 12.671,16.600 11.125,16.600 11.051 C 16.600 11.011,16.814 11.000,17.600 11.000 L 18.601 11.000 18.580 11.150 " stroke="none" fill-rule="evenodd" fill="black"></path></svg>