<svg xmlns="http://www.w3.org/2000/svg" width="24" height="24" viewBox="0 0 24 24" fill="none" stroke="currentColor" stroke-width="2" stroke-linecap="round" stroke-linejoin="round"><path d="M3.477 3.073 C 2.806 3.249,2.238 3.823,2.060 4.508 C 2.008 4.707,2.000 5.691,2.000 12.000 C 2.000 19.922,1.987 19.460,2.225 19.930 C 2.361 20.199,2.801 20.639,3.070 20.775 C 3.542 21.014,2.983 21.000,12.000 21.000 C 21.017 21.000,20.458 21.014,20.930 20.775 C 21.196 20.640,21.638 20.200,21.771 19.937 C 22.014 19.459,22.000 19.929,21.999 12.014 C 21.999 4.156,22.009 4.532,21.781 4.083 C 21.646 3.816,21.297 3.449,21.017 3.281 C 20.523 2.983,21.217 3.005,12.000 3.005 C 4.321 3.005,3.721 3.009,3.477 3.073 M11.040 5.030 C 11.040 5.046,10.985 5.256,10.918 5.496 C 10.482 7.055,10.180 9.347,10.037 12.180 C 9.984 13.214,9.998 13.326,10.211 13.606 C 10.283 13.699,10.430 13.822,10.539 13.878 C 10.731 13.977,10.766 13.980,11.589 13.992 L 12.440 14.004 12.446 14.942 C 12.449 15.458,12.454 15.902,12.456 15.930 C 12.462 16.009,11.431 15.993,10.929 15.906 C 10.017 15.748,9.075 15.419,7.938 14.859 C 7.307 14.548,7.231 14.520,7.010 14.520 C 6.730 14.520,6.540 14.590,6.339 14.766 C 6.112 14.966,6.022 15.173,6.022 15.500 C 6.022 16.028,6.204 16.226,7.095 16.670 C 8.939 17.590,10.618 18.031,12.130 17.993 L 12.640 17.980 12.658 18.100 C 12.744 18.664,12.765 18.794,12.784 18.890 L 12.806 19.000 8.403 19.000 L 4.000 19.000 4.000 12.000 L 4.000 5.000 7.520 5.000 C 9.456 5.000,11.040 5.014,11.040 5.030 M20.000 12.000 L 20.000 19.000 17.419 19.000 C 15.390 19.000,14.834 18.989,14.820 18.950 C 14.810 18.922,14.760 18.608,14.707 18.251 L 14.612 17.602 14.996 17.475 C 15.887 17.178,17.343 16.503,17.645 16.246 C 17.885 16.041,17.978 15.834,17.978 15.500 C 17.978 15.173,17.888 14.966,17.661 14.766 C 17.460 14.590,17.270 14.520,16.990 14.520 C 16.769 14.520,16.693 14.548,16.065 14.857 C 15.362 15.203,14.609 15.520,14.493 15.520 C 14.433 15.520,14.430 15.420,14.460 14.330 C 14.507 12.633,14.508 12.639,14.248 12.352 C 13.967 12.041,13.892 12.022,12.910 12.007 C 12.040 11.994,12.040 11.994,12.058 11.907 C 12.067 11.859,12.086 11.613,12.099 11.360 C 12.136 10.649,12.273 9.217,12.382 8.413 C 12.539 7.251,12.744 6.301,13.025 5.430 L 13.164 5.000 16.582 5.000 L 20.000 5.000 20.000 12.000 M6.695 7.057 C 6.466 7.129,6.256 7.299,6.128 7.516 C 6.020 7.699,6.020 7.703,6.020 8.503 L 6.020 9.306 6.141 9.503 C 6.543 10.156,7.457 10.156,7.859 9.503 L 7.980 9.306 7.980 8.503 C 7.980 7.703,7.980 7.699,7.872 7.516 C 7.628 7.101,7.150 6.915,6.695 7.057 M16.695 7.057 C 16.466 7.129,16.256 7.299,16.128 7.516 C 16.020 7.699,16.020 7.703,16.020 8.503 L 16.020 9.306 16.141 9.503 C 16.543 10.156,17.457 10.156,17.859 9.503 L 17.980 9.306 17.980 8.503 C 17.980 7.703,17.980 7.699,17.872 7.516 C 17.628 7.101,17.150 6.915,16.695 7.057 " stroke="none" fill-rule="evenodd" fill="black"></path></svg>