<svg xmlns="http://www.w3.org/2000/svg" width="24" height="24" viewBox="0 0 24 24" fill="none" stroke="currentColor" stroke-width="2" stroke-linecap="round" stroke-linejoin="round"><path d="M8.580 4.095 C 8.470 4.147,8.333 4.242,8.276 4.305 C 8.129 4.467,2.130 14.481,2.059 14.684 C 1.984 14.895,1.984 15.105,2.059 15.316 C 2.130 15.520,5.129 20.534,5.276 20.695 C 5.333 20.758,5.470 20.853,5.580 20.905 L 5.780 20.999 11.963 21.000 C 18.847 21.000,18.368 21.020,18.669 20.725 C 18.811 20.586,21.861 15.559,21.958 15.305 C 22.012 15.164,22.012 14.837,21.959 14.697 C 21.874 14.473,15.815 4.419,15.689 4.292 C 15.402 4.004,15.622 4.021,12.020 4.010 L 8.780 4.000 8.580 4.095 M16.814 9.977 C 18.126 12.164,19.200 13.964,19.200 13.977 C 19.200 13.990,18.381 14.000,17.381 14.000 L 15.562 14.000 13.181 10.022 C 11.871 7.834,10.800 6.034,10.800 6.022 C 10.800 6.010,11.616 6.000,12.614 6.000 L 14.428 6.000 16.814 9.977 M9.935 8.506 C 10.411 9.302,10.800 9.974,10.800 10.000 C 10.800 10.041,6.133 17.856,6.028 17.991 C 6.000 18.028,5.740 17.627,5.076 16.521 L 4.164 15.000 6.572 10.983 C 8.369 7.986,8.991 6.978,9.025 7.013 C 9.049 7.039,9.459 7.711,9.935 8.506 M12.634 13.006 C 12.946 13.527,13.200 13.963,13.200 13.976 C 13.200 13.989,12.652 14.000,11.982 14.000 L 10.764 14.000 11.372 12.983 C 11.826 12.223,11.991 11.978,12.024 12.013 C 12.049 12.039,12.323 12.486,12.634 13.006 M19.200 16.023 C 19.200 16.036,18.801 16.711,18.314 17.523 L 17.429 19.000 12.596 19.000 L 7.764 19.000 8.664 17.500 L 9.564 16.000 14.382 16.000 C 17.032 16.000,19.200 16.010,19.200 16.023 " stroke="none" fill-rule="evenodd" fill="black"></path></svg>