<svg xmlns="http://www.w3.org/2000/svg" width="24" height="24" viewBox="0 0 24 24" fill="none" stroke="currentColor" stroke-width="2" stroke-linecap="round" stroke-linejoin="round"><path d="M5.665 2.059 C 5.269 2.200,5.020 2.563,5.020 2.999 C 5.021 3.240,5.081 3.420,5.815 5.370 C 6.704 7.732,6.718 7.759,7.135 7.915 C 7.251 7.958,7.780 8.080,8.310 8.185 L 9.272 8.377 9.557 9.091 L 9.841 9.805 6.503 13.620 C 4.667 15.718,3.133 17.495,3.093 17.567 C 3.044 17.658,3.022 17.788,3.022 17.980 C 3.022 18.233,3.073 18.413,3.553 19.847 C 4.129 21.566,4.180 21.674,4.508 21.867 L 4.700 21.980 6.740 21.980 C 8.755 21.980,8.782 21.979,8.940 21.894 C 9.291 21.704,9.284 21.717,10.556 18.665 C 11.215 17.086,11.759 15.788,11.767 15.781 C 11.793 15.755,12.895 15.321,12.906 15.332 C 12.912 15.338,13.410 16.723,14.012 18.410 C 14.739 20.445,15.143 21.523,15.215 21.617 C 15.274 21.695,15.408 21.808,15.511 21.869 L 15.700 21.980 17.911 21.991 C 19.377 21.999,20.175 21.988,20.279 21.960 C 20.502 21.900,20.760 21.690,20.868 21.480 C 20.927 21.363,21.144 20.474,21.482 18.960 C 22.045 16.442,22.053 16.380,21.886 16.051 C 21.753 15.791,21.558 15.659,20.614 15.188 L 19.716 14.740 16.275 8.840 C 14.382 5.595,12.779 2.883,12.711 2.813 C 12.445 2.535,12.489 2.542,9.109 2.259 C 7.410 2.117,5.975 2.001,5.920 2.002 C 5.865 2.003,5.750 2.028,5.665 2.059 M9.550 4.306 L 11.400 4.455 14.770 10.237 C 16.624 13.418,18.202 16.089,18.278 16.174 C 18.379 16.287,18.606 16.423,19.128 16.684 C 19.520 16.880,19.840 17.055,19.840 17.072 C 19.840 17.090,19.696 17.750,19.520 18.540 C 19.344 19.330,19.200 19.981,19.200 19.988 C 19.200 19.995,18.637 20.000,17.950 19.999 L 16.700 19.999 15.722 17.249 C 14.327 13.331,14.389 13.494,14.234 13.333 C 14.014 13.104,13.821 13.022,13.500 13.023 C 13.235 13.024,13.151 13.052,11.908 13.553 C 10.554 14.098,10.357 14.197,10.205 14.402 C 10.139 14.491,8.688 17.913,7.852 19.950 C 7.836 19.988,7.583 20.000,6.779 20.000 L 5.727 20.000 5.431 19.112 L 5.134 18.223 8.504 14.373 C 12.167 10.185,12.033 10.357,11.991 9.925 C 11.975 9.752,11.114 7.514,10.896 7.074 C 10.769 6.820,10.528 6.624,10.248 6.547 C 10.123 6.513,9.633 6.409,9.160 6.317 C 8.687 6.224,8.280 6.129,8.256 6.104 C 8.211 6.059,7.520 4.232,7.520 4.159 C 7.520 4.137,7.560 4.127,7.610 4.137 C 7.660 4.148,8.533 4.223,9.550 4.306 " stroke="none" fill-rule="evenodd" fill="black"></path></svg>