<svg xmlns="http://www.w3.org/2000/svg" width="24" height="24" viewBox="0 0 24 24" fill="none" stroke="currentColor" stroke-width="2" stroke-linecap="round" stroke-linejoin="round"><path d="M2.695 5.057 C 2.466 5.129,2.256 5.299,2.128 5.516 C 2.037 5.672,2.020 5.746,2.020 6.000 C 2.020 6.256,2.036 6.328,2.131 6.489 C 2.256 6.702,2.449 6.864,2.670 6.943 C 2.768 6.978,3.028 6.998,3.420 7.000 L 4.020 7.003 6.509 10.172 L 8.997 13.340 8.999 15.170 L 9.000 17.000 7.946 17.000 C 6.797 17.000,6.644 17.022,6.382 17.221 C 6.302 17.282,6.187 17.415,6.128 17.516 C 6.037 17.672,6.020 17.746,6.020 18.000 C 6.020 18.256,6.036 18.328,6.131 18.489 C 6.256 18.702,6.449 18.864,6.670 18.943 C 6.891 19.022,14.109 19.022,14.330 18.943 C 14.551 18.864,14.744 18.702,14.869 18.489 C 14.964 18.328,14.980 18.256,14.980 18.000 C 14.980 17.746,14.963 17.672,14.872 17.516 C 14.813 17.415,14.698 17.282,14.618 17.221 C 14.342 17.011,14.242 17.000,12.554 17.000 L 11.000 17.000 11.001 15.230 L 11.002 13.460 13.681 11.230 L 16.360 9.000 17.030 9.000 C 17.651 8.999,17.715 8.992,17.900 8.905 C 18.281 8.724,18.488 8.405,18.488 8.000 C 18.488 7.615,18.293 7.297,17.940 7.106 C 17.780 7.020,17.774 7.020,15.000 7.020 C 12.226 7.020,12.220 7.020,12.060 7.106 C 11.707 7.297,11.512 7.615,11.512 8.000 C 11.512 8.385,11.708 8.704,12.060 8.893 C 12.191 8.963,12.312 8.982,12.718 8.999 L 13.217 9.020 11.686 10.295 C 10.845 10.996,10.148 11.561,10.137 11.551 C 10.127 11.540,9.320 10.516,8.345 9.276 L 6.572 7.020 7.436 7.000 C 8.295 6.980,8.301 6.979,8.492 6.867 C 9.248 6.423,9.123 5.306,8.290 5.055 C 8.031 4.977,2.944 4.979,2.695 5.057 M19.695 10.057 C 19.466 10.129,19.256 10.299,19.128 10.516 L 19.020 10.700 19.020 13.003 L 19.020 15.306 19.141 15.503 C 19.209 15.613,19.346 15.756,19.452 15.828 C 19.923 16.144,20.554 15.999,20.859 15.503 L 20.980 15.306 20.980 13.003 L 20.980 10.700 20.872 10.516 C 20.628 10.101,20.150 9.915,19.695 10.057 M19.695 17.057 C 19.466 17.129,19.256 17.299,19.128 17.516 C 19.036 17.672,19.020 17.745,19.021 18.000 C 19.022 18.332,19.101 18.533,19.306 18.728 C 19.785 19.181,20.580 19.046,20.893 18.460 C 21.025 18.211,21.015 17.760,20.872 17.516 C 20.628 17.101,20.150 16.915,19.695 17.057 " stroke="none" fill-rule="evenodd" fill="black"></path></svg>