<svg xmlns="http://www.w3.org/2000/svg" width="24" height="24" viewBox="0 0 24 24" fill="none" stroke="currentColor" stroke-width="2" stroke-linecap="round" stroke-linejoin="round"><path d="M4.580 2.095 C 4.340 2.209,4.193 2.358,4.083 2.600 C 4.002 2.779,4.002 2.809,4.003 11.980 C 4.003 19.563,4.013 21.206,4.057 21.330 C 4.136 21.551,4.298 21.744,4.511 21.869 L 4.700 21.980 7.000 21.980 L 9.300 21.980 9.489 21.869 C 9.702 21.744,9.864 21.551,9.943 21.330 C 9.986 21.209,9.997 20.489,9.998 17.620 L 10.000 14.060 12.099 17.840 C 13.670 20.669,14.234 21.652,14.343 21.748 C 14.630 22.000,14.626 22.000,17.037 22.000 L 19.220 21.999 19.420 21.906 C 19.658 21.795,19.845 21.595,19.936 21.354 C 19.997 21.194,20.001 20.437,19.991 11.940 L 19.980 2.700 19.872 2.516 C 19.740 2.293,19.533 2.128,19.290 2.055 C 19.023 1.975,14.977 1.975,14.710 2.055 C 14.467 2.128,14.260 2.293,14.128 2.516 L 14.020 2.700 14.009 6.318 L 13.998 9.937 11.900 6.158 C 10.330 3.330,9.766 2.348,9.657 2.252 C 9.370 2.000,9.374 2.000,6.963 2.000 L 4.780 2.001 4.580 2.095 M12.840 11.964 C 15.271 16.343,17.266 19.943,17.273 19.963 C 17.281 19.985,16.941 19.999,16.433 19.999 L 15.580 19.997 11.160 12.036 C 8.729 7.657,6.734 4.057,6.727 4.037 C 6.719 4.015,7.059 4.001,7.567 4.001 L 8.420 4.003 12.840 11.964 M18.000 10.570 L 18.000 17.140 17.000 15.340 L 16.000 13.540 16.000 8.770 L 16.000 4.000 17.000 4.000 L 18.000 4.000 18.000 10.570 M8.000 15.230 L 8.000 20.000 7.000 20.000 L 6.000 20.000 6.000 13.430 L 6.000 6.860 7.000 8.660 L 8.000 10.460 8.000 15.230 " stroke="none" fill-rule="evenodd" fill="black"></path></svg>