<svg xmlns="http://www.w3.org/2000/svg" width="24" height="24" viewBox="0 0 24 24" fill="none" stroke="currentColor" stroke-width="2" stroke-linecap="round" stroke-linejoin="round"><path d="M9.080 2.024 C 6.976 2.095,5.764 2.305,4.837 2.760 C 3.386 3.472,2.570 4.654,2.243 6.520 C 2.048 7.636,2.001 8.699,2.001 11.980 C 2.001 15.298,2.048 16.365,2.243 17.480 C 2.488 18.878,3.012 19.894,3.855 20.605 C 4.793 21.397,5.886 21.755,7.900 21.928 C 8.747 22.001,15.253 22.001,16.100 21.928 C 18.285 21.740,19.438 21.323,20.381 20.381 C 21.323 19.438,21.740 18.285,21.928 16.100 C 22.001 15.253,22.001 8.747,21.928 7.900 C 21.740 5.715,21.323 4.561,20.381 3.620 C 19.435 2.674,18.269 2.256,16.080 2.078 C 15.581 2.037,9.979 1.994,9.080 2.024 M15.140 4.041 C 17.479 4.139,18.392 4.393,19.057 5.128 C 19.562 5.686,19.795 6.474,19.927 8.080 C 19.999 8.949,19.999 15.051,19.927 15.920 C 19.795 17.526,19.562 18.314,19.057 18.872 C 18.420 19.577,17.494 19.852,15.400 19.959 C 14.390 20.011,9.610 20.011,8.600 19.959 C 6.304 19.842,5.327 19.502,4.738 18.615 C 4.144 17.720,4.000 16.432,4.000 12.000 C 4.000 7.142,4.171 5.949,4.990 5.074 C 5.611 4.409,6.610 4.132,8.701 4.044 C 9.829 3.997,14.039 3.995,15.140 4.041 M8.013 7.242 C 7.779 7.288,7.637 7.370,7.469 7.555 C 7.190 7.864,7.200 7.695,7.200 12.000 C 7.200 16.396,7.183 16.154,7.515 16.486 C 7.864 16.836,8.390 16.885,8.780 16.605 C 8.868 16.542,8.994 16.404,9.060 16.298 L 9.180 16.106 9.192 12.083 C 9.200 9.384,9.190 8.013,9.162 7.916 C 9.028 7.453,8.506 7.147,8.013 7.242 M14.640 7.237 C 14.348 7.297,14.072 7.514,13.932 7.796 C 13.869 7.921,13.858 8.075,13.848 8.985 L 13.836 10.030 13.388 10.058 C 12.746 10.098,12.443 10.175,11.929 10.426 C 11.557 10.609,11.418 10.704,11.139 10.968 C 10.421 11.647,10.064 12.462,10.064 13.420 C 10.064 14.979,11.094 16.290,12.640 16.697 C 12.981 16.786,13.961 16.825,14.360 16.765 C 14.751 16.705,15.186 16.494,15.383 16.269 C 15.568 16.057,15.740 15.689,15.796 15.382 C 15.826 15.222,15.840 13.993,15.840 11.600 C 15.840 7.663,15.851 7.827,15.575 7.543 C 15.326 7.287,14.968 7.170,14.640 7.237 M13.840 13.420 L 13.840 14.800 13.602 14.800 C 13.098 14.800,12.742 14.668,12.459 14.377 C 12.152 14.061,12.026 13.667,12.086 13.210 C 12.122 12.929,12.250 12.676,12.463 12.463 C 12.754 12.172,13.073 12.058,13.630 12.045 L 13.840 12.040 13.840 13.420 " stroke="none" fill-rule="evenodd" fill="black"></path></svg>