<svg xmlns="http://www.w3.org/2000/svg" width="24" height="24" viewBox="0 0 24 24" fill="none" stroke="currentColor" stroke-width="2" stroke-linecap="round" stroke-linejoin="round"><path d="M3.014 3.041 C 2.344 3.162,1.738 3.588,1.405 4.173 C 1.148 4.623,1.000 5.285,1.000 5.985 C 1.000 6.977,1.381 10.963,1.544 11.680 C 1.847 13.005,2.675 14.070,3.819 14.605 L 4.082 14.728 3.949 14.876 C 3.349 15.539,3.040 16.506,3.154 17.360 C 3.305 18.499,3.887 19.471,5.025 20.488 C 6.023 21.380,6.691 21.772,7.499 21.939 C 8.383 22.121,9.310 21.862,10.129 21.203 C 10.760 20.696,11.252 20.080,11.801 19.110 C 11.897 18.939,11.987 18.800,12.000 18.800 C 12.013 18.800,12.103 18.940,12.199 19.110 C 12.748 20.080,13.240 20.696,13.871 21.203 C 14.690 21.862,15.617 22.121,16.501 21.939 C 17.315 21.770,17.980 21.379,18.996 20.469 C 20.113 19.468,20.696 18.489,20.846 17.360 C 20.960 16.506,20.651 15.539,20.051 14.876 L 19.918 14.728 20.181 14.605 C 21.001 14.222,21.667 13.563,22.079 12.726 C 22.478 11.917,22.603 11.171,22.880 7.920 C 23.045 5.990,23.031 5.354,22.812 4.680 C 22.556 3.894,22.016 3.347,21.260 3.109 C 20.770 2.955,19.983 2.993,19.282 3.204 C 17.514 3.738,15.563 5.333,13.513 7.920 C 13.014 8.550,12.525 9.213,12.221 9.670 C 12.115 9.830,12.016 9.960,12.000 9.960 C 11.985 9.960,11.873 9.812,11.752 9.630 C 10.920 8.381,9.665 6.857,8.583 5.780 C 7.073 4.277,5.647 3.384,4.304 3.097 C 3.951 3.022,3.280 2.993,3.014 3.041 M4.160 5.121 C 5.117 5.430,6.037 6.074,7.242 7.278 C 8.615 8.650,10.087 10.582,10.917 12.100 C 11.083 12.403,11.261 12.673,11.344 12.748 C 11.803 13.156,12.558 13.037,12.852 12.509 C 13.518 11.316,13.851 10.797,14.580 9.817 C 15.286 8.869,15.997 8.039,16.758 7.277 C 17.747 6.288,18.432 5.759,19.220 5.379 C 19.907 5.048,20.527 4.917,20.742 5.058 C 20.942 5.188,20.979 5.353,20.975 6.080 C 20.970 6.935,20.734 9.657,20.559 10.880 C 20.491 11.358,20.462 11.462,20.302 11.784 C 19.903 12.593,19.190 13.007,18.008 13.119 C 17.553 13.162,17.317 13.152,16.473 13.052 C 16.017 12.999,15.896 12.996,15.744 13.039 C 15.052 13.232,14.783 14.050,15.221 14.625 C 15.383 14.837,15.614 14.942,16.168 15.057 C 17.444 15.320,18.338 15.798,18.696 16.409 C 19.048 17.011,18.807 17.805,18.021 18.635 C 17.462 19.224,16.758 19.760,16.326 19.923 C 15.884 20.089,15.445 19.952,14.961 19.495 C 14.447 19.010,14.096 18.478,13.539 17.340 C 13.117 16.478,13.048 16.300,12.998 15.949 C 12.974 15.780,12.918 15.595,12.860 15.496 C 12.568 14.999,11.875 14.860,11.405 15.205 C 11.176 15.374,11.050 15.606,11.002 15.949 C 10.952 16.299,10.890 16.459,10.464 17.332 C 9.906 18.475,9.555 19.009,9.039 19.495 C 8.555 19.952,8.116 20.089,7.674 19.923 C 7.242 19.760,6.538 19.224,5.979 18.635 C 5.190 17.803,4.951 17.012,5.304 16.409 C 5.662 15.798,6.556 15.320,7.832 15.057 C 8.386 14.942,8.617 14.837,8.779 14.625 C 9.217 14.050,8.948 13.232,8.256 13.039 C 8.104 12.996,7.983 12.999,7.527 13.053 C 6.650 13.156,6.469 13.164,5.992 13.120 C 4.812 13.010,4.098 12.595,3.698 11.784 C 3.486 11.355,3.425 11.012,3.261 9.302 C 3.077 7.382,3.030 6.744,3.025 6.100 C 3.019 5.393,3.055 5.217,3.233 5.076 C 3.327 5.001,3.374 4.994,3.620 5.014 C 3.774 5.027,4.017 5.075,4.160 5.121 " stroke="none" fill-rule="evenodd" fill="black"></path></svg>