<svg xmlns="http://www.w3.org/2000/svg" width="24" height="24" viewBox="0 0 24 24" fill="none" stroke="currentColor" stroke-width="2" stroke-linecap="round" stroke-linejoin="round"><path d="M5.873 2.063 C 5.147 2.194,4.470 2.562,3.958 3.105 C 3.559 3.527,3.314 3.957,3.133 4.548 C 3.038 4.863,3.026 4.963,3.026 5.500 C 3.026 6.037,3.038 6.137,3.133 6.452 C 3.500 7.655,4.333 8.489,5.548 8.869 L 5.900 8.980 9.954 8.991 C 13.765 9.002,14.008 9.007,13.990 9.071 C 13.979 9.109,13.642 9.959,13.240 10.960 C 12.601 12.551,12.509 12.808,12.509 13.000 C 12.510 13.564,12.963 14.001,13.548 14.000 C 13.867 13.999,14.032 13.870,16.341 11.815 C 17.574 10.718,18.751 9.676,18.957 9.500 C 21.034 7.725,21.606 5.146,20.312 3.390 C 19.807 2.706,18.997 2.211,18.138 2.061 C 17.641 1.974,6.354 1.976,5.873 2.063 M17.821 4.044 C 18.633 4.194,19.092 4.908,18.964 5.823 C 18.845 6.671,18.438 7.305,17.474 8.139 C 17.220 8.359,16.793 8.735,16.525 8.973 C 16.258 9.211,16.040 9.390,16.040 9.372 C 16.040 9.353,16.141 9.086,16.264 8.779 C 16.440 8.342,16.489 8.172,16.490 8.000 C 16.492 7.621,16.293 7.297,15.940 7.106 L 15.780 7.020 10.960 7.000 L 6.140 6.980 5.900 6.868 C 5.583 6.720,5.275 6.413,5.135 6.104 C 5.040 5.896,5.024 5.808,5.024 5.500 C 5.023 5.191,5.039 5.106,5.134 4.900 C 5.328 4.477,5.755 4.124,6.174 4.042 C 6.437 3.990,17.539 3.991,17.821 4.044 M10.190 10.054 C 10.108 10.085,10.000 10.137,9.950 10.170 C 9.901 10.203,8.860 11.119,7.639 12.205 C 6.417 13.291,5.249 14.324,5.043 14.500 C 4.390 15.058,3.867 15.711,3.520 16.400 C 2.348 18.727,3.230 21.155,5.508 21.870 L 5.860 21.980 11.800 21.991 C 15.740 21.999,17.830 21.989,18.008 21.961 C 18.416 21.898,18.863 21.742,19.240 21.531 C 19.709 21.268,20.268 20.709,20.531 20.240 C 21.666 18.214,20.631 15.747,18.378 15.111 L 18.060 15.021 14.026 15.009 C 10.235 14.998,9.992 14.993,10.010 14.929 C 10.021 14.891,10.358 14.041,10.760 13.040 C 11.397 11.454,11.491 11.192,11.491 11.000 C 11.492 10.620,11.288 10.290,10.943 10.112 C 10.742 10.009,10.386 9.981,10.190 10.054 M7.739 15.208 C 7.557 15.662,7.509 15.826,7.509 16.000 C 7.508 16.379,7.708 16.703,8.060 16.894 L 8.220 16.980 13.040 17.000 L 17.860 17.020 18.100 17.132 C 18.417 17.280,18.725 17.587,18.865 17.896 C 18.960 18.105,18.976 18.192,18.976 18.500 C 18.976 18.808,18.960 18.895,18.865 19.104 C 18.725 19.413,18.417 19.720,18.100 19.868 L 17.860 19.980 12.120 19.992 C 7.833 20.001,6.324 19.993,6.160 19.958 C 5.020 19.714,4.666 18.427,5.386 17.146 C 5.627 16.716,5.939 16.378,6.770 15.649 C 7.193 15.276,7.630 14.890,7.740 14.790 C 7.850 14.690,7.947 14.614,7.955 14.622 C 7.963 14.630,7.866 14.894,7.739 15.208 " stroke="none" fill-rule="evenodd" fill="black"></path></svg>