<svg xmlns="http://www.w3.org/2000/svg" width="24" height="24" viewBox="0 0 24 24" fill="none" stroke="currentColor" stroke-width="2" stroke-linecap="round" stroke-linejoin="round"><path d="M5.080 5.035 C 5.025 5.053,4.919 5.099,4.844 5.138 C 4.725 5.199,1.371 8.437,1.189 8.666 C 1.083 8.799,1.000 9.067,1.000 9.275 C 1.001 9.668,1.051 9.727,2.954 11.580 C 4.033 12.631,4.789 13.337,4.897 13.394 C 5.128 13.516,5.475 13.522,5.735 13.406 C 5.873 13.345,6.268 12.985,7.291 11.986 L 8.663 10.648 9.615 11.574 L 10.568 12.500 9.198 13.839 C 8.250 14.766,7.805 15.228,7.755 15.339 C 7.710 15.437,7.681 15.595,7.681 15.742 C 7.679 16.184,7.698 16.207,9.623 18.081 C 10.582 19.016,11.442 19.825,11.534 19.880 C 11.672 19.963,11.751 19.980,12.000 19.980 C 12.249 19.980,12.328 19.963,12.466 19.880 C 12.558 19.825,13.418 19.015,14.378 18.080 C 16.302 16.206,16.321 16.183,16.319 15.742 C 16.319 15.595,16.290 15.437,16.245 15.340 C 16.195 15.229,15.749 14.765,14.802 13.840 L 13.431 12.500 14.384 11.574 L 15.336 10.648 16.708 11.986 C 17.733 12.986,18.126 13.345,18.264 13.406 C 18.526 13.522,18.872 13.517,19.103 13.394 C 19.340 13.268,22.779 9.919,22.885 9.709 C 23.053 9.380,23.019 8.933,22.804 8.667 C 22.551 8.352,19.278 5.201,19.115 5.115 C 18.875 4.988,18.450 4.985,18.220 5.108 C 18.132 5.155,17.547 5.692,16.920 6.302 C 16.293 6.913,15.676 7.512,15.550 7.635 L 15.319 7.858 14.530 7.077 C 12.790 5.357,12.552 5.139,12.342 5.067 C 12.094 4.982,11.906 4.982,11.658 5.067 C 11.448 5.139,11.210 5.357,9.470 7.077 L 8.681 7.858 8.450 7.635 C 8.324 7.512,7.707 6.913,7.080 6.303 C 6.453 5.693,5.869 5.157,5.783 5.112 C 5.612 5.024,5.239 4.983,5.080 5.035 M6.386 10.078 C 5.921 10.537,5.490 10.952,5.430 11.000 L 5.320 11.086 4.376 10.173 L 3.433 9.260 4.380 8.329 L 5.328 7.398 6.280 8.320 L 7.232 9.242 6.386 10.078 M12.965 8.336 L 13.900 9.251 12.960 10.166 C 12.443 10.668,12.011 11.080,12.000 11.080 C 11.989 11.080,11.557 10.668,11.040 10.166 L 10.100 9.252 11.040 8.328 C 11.557 7.820,11.991 7.408,12.005 7.412 C 12.019 7.416,12.451 7.832,12.965 8.336 M20.030 8.728 L 20.561 9.262 19.621 10.174 L 18.680 11.086 18.572 11.001 C 18.512 10.954,18.081 10.539,17.615 10.079 L 16.766 9.244 17.713 8.327 L 18.660 7.410 19.080 7.802 C 19.311 8.018,19.739 8.435,20.030 8.728 M12.960 14.834 L 13.900 15.749 12.964 16.664 C 12.449 17.168,12.015 17.580,12.000 17.580 C 11.985 17.580,11.551 17.168,11.036 16.664 L 10.100 15.749 11.040 14.834 C 11.557 14.332,11.989 13.920,12.000 13.920 C 12.011 13.920,12.443 14.332,12.960 14.834 " stroke="none" fill-rule="evenodd" fill="black"></path></svg>