<svg xmlns="http://www.w3.org/2000/svg" width="24" height="24" viewBox="0 0 24 24" fill="none" stroke="currentColor" stroke-width="2" stroke-linecap="round" stroke-linejoin="round"><path d="M9.499 2.042 C 8.386 2.234,7.482 3.030,7.116 4.140 C 7.026 4.413,7.023 4.467,7.009 6.207 L 6.995 7.993 5.727 8.009 C 4.518 8.025,4.445 8.030,4.139 8.124 C 3.176 8.420,2.420 9.180,2.114 10.160 L 2.020 10.460 2.020 13.000 L 2.020 15.540 2.114 15.840 C 2.419 16.817,3.159 17.563,4.140 17.884 C 4.403 17.969,4.499 17.976,5.705 17.991 L 6.991 18.007 7.010 18.793 C 7.026 19.464,7.042 19.621,7.118 19.860 C 7.430 20.834,8.182 21.581,9.160 21.886 L 9.460 21.980 12.000 21.980 L 14.540 21.980 14.840 21.886 C 15.817 21.581,16.560 20.845,16.884 19.860 C 16.974 19.587,16.977 19.533,16.991 17.793 L 17.005 16.007 18.293 15.991 C 19.502 15.976,19.597 15.969,19.860 15.884 C 20.841 15.563,21.581 14.817,21.886 13.840 L 21.980 13.540 21.980 11.000 L 21.980 8.460 21.886 8.160 C 21.580 7.180,20.824 6.420,19.861 6.124 C 19.555 6.030,19.482 6.025,18.275 6.009 L 17.009 5.993 16.990 5.207 C 16.974 4.536,16.958 4.379,16.882 4.140 C 16.573 3.174,15.820 2.422,14.861 2.122 L 14.540 2.022 12.120 2.015 C 10.789 2.011,9.609 2.023,9.499 2.042 M14.310 4.061 C 14.589 4.144,14.856 4.411,14.939 4.690 C 15.025 4.979,15.031 10.006,14.945 10.290 C 14.872 10.533,14.707 10.740,14.484 10.872 L 14.300 10.980 11.880 11.002 L 9.460 11.023 9.139 11.123 C 8.183 11.420,7.434 12.166,7.116 13.140 C 7.031 13.403,7.024 13.498,7.009 14.712 L 6.993 16.004 5.847 15.992 L 4.700 15.980 4.516 15.872 C 4.415 15.813,4.284 15.700,4.225 15.623 C 4.000 15.327,4.000 15.332,4.000 13.022 C 4.000 10.586,3.997 10.609,4.303 10.303 C 4.621 9.985,4.414 10.000,8.537 9.998 C 11.476 9.997,12.209 9.986,12.330 9.943 C 12.551 9.864,12.744 9.702,12.869 9.489 C 12.964 9.328,12.980 9.256,12.980 9.000 C 12.980 8.746,12.963 8.672,12.872 8.516 C 12.813 8.415,12.698 8.282,12.618 8.221 C 12.342 8.011,12.242 8.000,10.554 8.000 L 9.000 8.000 9.000 6.447 C 9.000 4.649,9.007 4.599,9.304 4.303 C 9.604 4.002,9.569 4.006,11.983 4.003 C 13.772 4.000,14.138 4.010,14.310 4.061 M10.695 5.057 C 10.466 5.129,10.256 5.299,10.128 5.516 C 10.036 5.672,10.020 5.745,10.021 6.000 C 10.022 6.332,10.101 6.533,10.306 6.728 C 10.785 7.181,11.580 7.046,11.893 6.460 C 12.025 6.211,12.015 5.760,11.872 5.516 C 11.628 5.101,11.150 4.915,10.695 5.057 M19.310 8.061 C 19.589 8.144,19.856 8.411,19.939 8.690 C 20.025 8.978,20.030 13.007,19.945 13.290 C 19.872 13.533,19.707 13.740,19.484 13.872 L 19.300 13.980 15.520 14.000 C 12.617 14.015,11.714 14.032,11.627 14.070 C 11.428 14.158,11.239 14.328,11.128 14.516 C 11.037 14.672,11.020 14.746,11.020 15.000 C 11.020 15.256,11.036 15.328,11.131 15.489 C 11.192 15.592,11.304 15.725,11.381 15.783 C 11.654 15.991,11.700 15.996,13.410 15.998 L 15.000 16.000 15.000 17.554 C 15.000 19.242,14.989 19.342,14.779 19.618 C 14.718 19.698,14.585 19.813,14.484 19.872 L 14.300 19.980 12.000 19.980 L 9.700 19.980 9.516 19.872 C 9.415 19.813,9.284 19.700,9.225 19.623 C 8.996 19.323,9.000 19.378,9.000 16.522 C 9.000 13.560,8.995 13.619,9.283 13.321 C 9.589 13.007,9.448 13.023,12.160 12.999 C 14.553 12.977,14.583 12.976,14.860 12.885 C 15.836 12.562,16.566 11.831,16.884 10.860 C 16.969 10.597,16.976 10.502,16.991 9.290 L 17.007 8.000 18.056 8.000 C 18.879 8.000,19.150 8.013,19.310 8.061 M12.695 17.057 C 12.466 17.129,12.256 17.299,12.128 17.516 C 12.036 17.672,12.020 17.745,12.021 18.000 C 12.022 18.332,12.101 18.533,12.306 18.728 C 12.785 19.181,13.580 19.046,13.893 18.460 C 14.025 18.211,14.015 17.760,13.872 17.516 C 13.628 17.101,13.150 16.915,12.695 17.057 " stroke="none" fill-rule="evenodd" fill="black"></path></svg>