<svg xmlns="http://www.w3.org/2000/svg" width="24" height="24" viewBox="0 0 24 24" fill="none" stroke="currentColor" stroke-width="2" stroke-linecap="round" stroke-linejoin="round"><path d="M12.670 8.061 C 12.448 8.142,12.250 8.309,12.128 8.516 C 12.036 8.672,12.020 8.745,12.021 9.000 C 12.021 9.213,12.043 9.340,12.096 9.440 C 12.136 9.517,12.486 9.900,12.873 10.290 L 13.577 11.000 10.735 11.000 C 7.651 11.000,7.674 10.998,7.382 11.221 C 7.302 11.282,7.187 11.415,7.128 11.516 C 7.037 11.672,7.020 11.746,7.020 12.000 C 7.020 12.256,7.036 12.328,7.131 12.489 C 7.256 12.702,7.449 12.864,7.670 12.943 C 7.790 12.986,8.399 12.997,10.699 12.998 L 13.577 13.000 12.873 13.710 C 12.486 14.101,12.139 14.481,12.101 14.555 C 11.872 15.008,12.056 15.601,12.508 15.867 C 12.673 15.964,12.742 15.980,13.000 15.979 C 13.212 15.979,13.341 15.957,13.440 15.905 C 13.517 15.865,14.306 15.109,15.194 14.226 C 16.957 12.472,16.999 12.420,16.999 12.000 C 16.999 11.578,16.960 11.530,15.175 9.756 C 13.716 8.307,13.519 8.124,13.343 8.066 C 13.108 7.987,12.875 7.986,12.670 8.061 M2.640 10.045 C 2.080 10.135,1.452 10.610,1.208 11.127 C 0.826 11.936,0.970 12.778,1.596 13.404 C 2.114 13.923,2.761 14.107,3.471 13.940 C 3.843 13.852,4.109 13.700,4.404 13.404 C 4.923 12.886,5.107 12.239,4.940 11.529 C 4.858 11.182,4.720 10.927,4.465 10.653 C 3.979 10.130,3.370 9.927,2.640 10.045 M20.640 10.045 C 20.080 10.135,19.452 10.610,19.208 11.127 C 18.826 11.936,18.970 12.778,19.596 13.404 C 20.114 13.923,20.761 14.107,21.471 13.940 C 21.843 13.852,22.109 13.700,22.404 13.404 C 22.923 12.886,23.107 12.239,22.940 11.529 C 22.858 11.182,22.720 10.927,22.465 10.653 C 21.979 10.130,21.370 9.927,20.640 10.045 " stroke="none" fill-rule="evenodd" fill="black"></path></svg>