<svg xmlns="http://www.w3.org/2000/svg" width="24" height="24" viewBox="0 0 24 24" fill="none" stroke="currentColor" stroke-width="2" stroke-linecap="round" stroke-linejoin="round"><path d="M1.667 5.069 C 1.171 5.235,0.878 5.833,1.054 6.320 C 1.124 6.510,3.621 10.506,3.776 10.675 C 3.948 10.862,4.254 10.999,4.500 10.999 C 4.874 10.999,5.277 10.730,5.422 10.382 C 5.504 10.186,5.507 9.822,5.429 9.638 C 5.397 9.562,5.207 9.240,5.007 8.921 C 4.808 8.603,4.652 8.335,4.661 8.326 C 4.683 8.304,9.520 10.487,9.520 10.518 C 9.520 10.531,8.904 10.819,8.150 11.158 C 6.184 12.042,6.061 12.104,5.888 12.300 C 5.807 12.393,5.708 12.557,5.670 12.664 C 5.588 12.892,5.581 13.277,5.655 13.485 C 5.757 13.770,9.171 19.576,9.324 19.725 C 9.702 20.092,10.321 20.081,10.701 19.701 C 10.967 19.435,11.068 19.016,10.945 18.680 C 10.907 18.575,8.503 14.416,7.997 13.578 L 7.923 13.456 9.935 12.548 C 11.041 12.049,11.970 11.640,12.000 11.640 C 12.030 11.640,12.959 12.049,14.065 12.548 L 16.077 13.456 16.003 13.578 C 15.497 14.416,13.093 18.575,13.055 18.680 C 12.932 19.016,13.033 19.435,13.299 19.701 C 13.679 20.081,14.298 20.092,14.676 19.725 C 14.829 19.576,18.243 13.770,18.345 13.485 C 18.419 13.277,18.412 12.892,18.330 12.664 C 18.292 12.557,18.193 12.393,18.112 12.300 C 17.939 12.104,17.816 12.042,15.850 11.158 C 15.097 10.819,14.480 10.531,14.480 10.518 C 14.480 10.487,19.317 8.304,19.339 8.325 C 19.348 8.335,19.177 8.627,18.960 8.976 C 18.523 9.676,18.451 9.874,18.521 10.185 C 18.575 10.425,18.644 10.552,18.807 10.708 C 19.216 11.099,19.847 11.085,20.224 10.675 C 20.417 10.465,22.887 6.482,22.947 6.284 C 23.057 5.920,22.969 5.566,22.701 5.299 C 22.419 5.017,22.020 4.931,21.650 5.073 C 21.546 5.114,19.342 6.104,16.753 7.273 C 14.163 8.443,12.025 9.400,12.000 9.400 C 11.975 9.400,9.818 8.435,7.207 7.255 C 4.596 6.075,2.381 5.085,2.284 5.055 C 2.059 4.985,1.909 4.989,1.667 5.069 " stroke="none" fill-rule="evenodd" fill="black"></path></svg>