<svg xmlns="http://www.w3.org/2000/svg" width="24" height="24" viewBox="0 0 24 24" fill="none" stroke="currentColor" stroke-width="2" stroke-linecap="round" stroke-linejoin="round"><path d="M3.695 3.057 C 3.466 3.129,3.256 3.299,3.128 3.516 L 3.020 3.700 3.009 11.940 C 2.999 19.510,3.003 20.194,3.064 20.354 C 3.155 20.595,3.342 20.795,3.580 20.906 L 3.780 20.999 12.000 20.999 L 20.220 20.999 20.420 20.905 C 20.530 20.853,20.668 20.758,20.728 20.695 C 20.994 20.410,21.074 19.949,20.918 19.600 C 20.855 19.460,20.009 18.592,17.128 15.710 L 13.420 12.000 17.128 8.290 C 20.009 5.408,20.855 4.540,20.918 4.400 C 21.074 4.051,20.994 3.590,20.728 3.305 C 20.668 3.242,20.530 3.147,20.420 3.095 L 20.220 3.001 12.040 3.003 C 5.468 3.005,3.828 3.016,3.695 3.057 M9.560 5.010 C 9.560 5.016,8.534 6.046,7.280 7.300 L 5.000 9.580 5.000 7.290 L 5.000 5.000 7.280 5.000 C 8.534 5.000,9.560 5.005,9.560 5.010 M11.300 11.280 L 5.020 17.560 5.010 14.990 L 4.999 12.421 8.710 8.710 L 12.420 5.000 15.000 5.000 L 17.580 5.000 11.300 11.280 M14.800 16.220 L 17.580 19.000 12.000 19.000 L 6.420 19.000 9.200 16.220 C 10.729 14.691,11.989 13.440,12.000 13.440 C 12.011 13.440,13.271 14.691,14.800 16.220 " stroke="none" fill-rule="evenodd" fill="black"></path></svg>