<svg xmlns="http://www.w3.org/2000/svg" width="24" height="24" viewBox="0 0 24 24" fill="none" stroke="currentColor" stroke-width="2" stroke-linecap="round" stroke-linejoin="round"><path d="M2.667 5.065 C 2.412 5.143,2.152 5.402,2.065 5.665 C 2.005 5.847,2.000 6.399,2.010 12.082 L 2.020 18.300 2.131 18.489 C 2.256 18.702,2.449 18.864,2.670 18.943 C 2.893 19.023,21.107 19.023,21.330 18.943 C 21.551 18.864,21.744 18.702,21.869 18.489 L 21.980 18.300 21.980 12.000 L 21.980 5.700 21.871 5.514 C 21.649 5.137,21.204 4.939,20.793 5.034 C 20.635 5.071,19.590 5.695,16.294 7.724 L 12.000 10.366 7.710 7.729 C 5.350 6.278,3.359 5.070,3.284 5.045 C 3.105 4.986,2.904 4.992,2.667 5.065 M7.234 9.780 C 8.843 10.770,10.160 11.591,10.160 11.605 C 10.160 11.626,4.229 15.905,4.053 16.012 C 4.009 16.038,4.000 15.329,4.000 11.920 L 4.000 7.795 4.154 7.888 C 4.239 7.938,5.625 8.790,7.234 9.780 M19.987 16.987 C 19.979 16.994,16.860 16.996,13.055 16.990 L 6.136 16.980 9.358 14.668 L 12.580 12.355 16.280 10.079 L 19.980 7.803 19.990 12.388 C 19.996 14.910,19.994 16.979,19.987 16.987 " stroke="none" fill-rule="evenodd" fill="black"></path></svg>