<svg xmlns="http://www.w3.org/2000/svg" width="24" height="24" viewBox="0 0 24 24" fill="none" stroke="currentColor" stroke-width="2" stroke-linecap="round" stroke-linejoin="round"><path d="M3.667 3.065 C 3.312 3.174,3.000 3.599,3.000 3.973 C 3.000 4.097,4.987 18.548,5.028 18.720 C 5.072 18.907,5.194 19.105,5.351 19.248 C 5.494 19.377,5.797 19.486,8.658 20.439 C 11.031 21.230,11.855 21.489,12.000 21.489 C 12.145 21.489,12.969 21.230,15.342 20.439 C 18.203 19.486,18.506 19.377,18.649 19.248 C 18.806 19.105,18.928 18.907,18.972 18.720 C 18.985 18.665,19.448 15.344,20.001 11.340 C 20.702 6.268,21.000 4.001,20.985 3.866 C 20.943 3.493,20.663 3.167,20.290 3.055 C 20.005 2.969,3.946 2.979,3.667 3.065 M18.825 5.170 C 18.811 5.264,18.422 8.094,17.960 11.460 C 17.497 14.826,17.110 17.619,17.100 17.667 C 17.083 17.743,16.765 17.858,14.540 18.600 L 12.000 19.447 9.460 18.600 C 7.235 17.858,6.917 17.743,6.900 17.667 C 6.890 17.619,6.503 14.826,6.040 11.460 C 5.578 8.094,5.189 5.264,5.175 5.170 L 5.151 5.000 12.000 5.000 L 18.849 5.000 18.825 5.170 M7.240 7.037 C 6.791 7.177,6.512 7.546,6.512 8.000 C 6.512 8.405,6.719 8.724,7.100 8.905 C 7.295 8.997,7.327 8.999,8.390 9.000 L 9.480 9.000 9.480 11.680 C 9.480 13.154,9.471 14.360,9.459 14.360 C 9.448 14.360,9.290 14.284,9.109 14.191 C 8.815 14.041,8.750 14.023,8.500 14.023 C 8.290 14.022,8.179 14.044,8.056 14.109 C 7.863 14.211,7.654 14.437,7.569 14.637 C 7.483 14.840,7.491 15.184,7.587 15.400 C 7.724 15.708,7.931 15.848,9.103 16.430 C 10.017 16.883,10.236 16.976,10.420 16.992 C 10.703 17.015,10.956 16.922,11.186 16.711 C 11.521 16.401,11.500 16.720,11.500 12.000 C 11.500 8.562,11.490 7.792,11.445 7.665 C 11.375 7.467,11.152 7.219,10.943 7.107 C 10.783 7.022,10.743 7.020,9.060 7.013 C 8.114 7.009,7.295 7.019,7.240 7.037 M13.637 7.054 C 13.192 7.151,12.784 7.518,12.593 7.990 C 12.501 8.219,12.500 8.230,12.500 10.000 C 12.500 11.770,12.501 11.781,12.593 12.010 C 12.763 12.431,13.096 12.766,13.488 12.912 C 13.607 12.956,13.842 12.980,14.250 12.991 C 14.575 13.000,14.840 13.013,14.840 13.019 C 14.840 13.064,14.597 14.696,14.590 14.701 C 14.584 14.705,14.265 14.786,13.880 14.880 C 13.085 15.075,12.952 15.131,12.752 15.352 C 12.517 15.613,12.442 15.989,12.558 16.335 C 12.672 16.678,13.113 16.999,13.471 17.000 C 13.650 17.000,15.624 16.521,15.873 16.417 C 16.100 16.322,16.254 16.185,16.368 15.975 C 16.461 15.804,16.502 15.585,16.701 14.200 C 16.943 12.513,16.956 12.255,16.813 11.940 C 16.691 11.671,16.478 11.408,16.264 11.262 C 15.972 11.063,15.682 11.000,15.052 11.000 L 14.520 11.000 14.520 10.000 L 14.520 9.000 15.610 9.000 C 16.673 8.999,16.705 8.997,16.900 8.905 C 17.281 8.724,17.488 8.405,17.488 8.000 C 17.488 7.615,17.293 7.297,16.940 7.106 C 16.785 7.023,16.733 7.020,15.320 7.012 C 14.291 7.007,13.794 7.019,13.637 7.054 " stroke="none" fill-rule="evenodd" fill="black"></path></svg>