<svg xmlns="http://www.w3.org/2000/svg" width="24" height="24" viewBox="0 0 24 24" fill="none" stroke="currentColor" stroke-width="2" stroke-linecap="round" stroke-linejoin="round"><path d="M11.080 2.045 C 9.507 2.184,7.883 2.751,6.540 3.630 C 5.905 4.045,5.499 4.378,4.919 4.958 C 2.953 6.926,1.919 9.544,2.013 12.320 C 2.084 14.439,2.752 16.328,4.033 18.040 C 4.430 18.570,5.305 19.464,5.800 19.847 C 7.242 20.961,8.787 21.624,10.600 21.907 C 11.247 22.008,12.753 22.008,13.400 21.907 C 15.638 21.557,17.504 20.620,19.062 19.062 C 20.620 17.504,21.557 15.638,21.907 13.400 C 22.008 12.753,22.008 11.247,21.907 10.600 C 21.624 8.786,20.959 7.238,19.847 5.800 C 19.510 5.365,18.639 4.494,18.200 4.154 C 16.133 2.555,13.646 1.818,11.080 2.045 M12.734 4.041 C 14.574 4.216,16.228 4.976,17.554 6.256 C 20.043 8.658,20.702 12.394,19.183 15.499 C 18.749 16.387,18.223 17.105,17.496 17.801 C 16.876 18.394,16.262 18.819,15.471 19.200 C 13.267 20.265,10.733 20.265,8.529 19.200 C 7.477 18.693,6.612 18.015,5.847 17.100 C 3.848 14.711,3.440 11.302,4.816 8.500 C 6.162 5.760,8.867 4.049,11.920 4.005 C 12.129 4.003,12.495 4.019,12.734 4.041 M10.734 7.038 C 10.132 7.182,9.815 7.949,10.133 8.492 C 10.188 8.584,10.384 8.789,10.569 8.947 C 12.058 10.213,12.423 12.370,11.432 14.040 C 11.189 14.449,10.963 14.716,10.580 15.046 C 10.170 15.400,10.044 15.588,10.012 15.893 C 9.956 16.441,10.348 16.932,10.888 16.987 C 11.295 17.029,11.575 16.878,12.204 16.281 L 12.500 16.000 13.340 15.998 C 14.244 15.996,14.367 15.976,14.619 15.783 C 14.696 15.725,14.808 15.592,14.869 15.489 C 14.964 15.328,14.980 15.256,14.980 15.000 C 14.980 14.746,14.963 14.672,14.872 14.516 C 14.674 14.180,14.332 14.000,13.889 14.000 C 13.681 14.000,13.672 13.996,13.697 13.910 C 14.072 12.637,14.097 11.599,13.780 10.407 C 13.725 10.201,13.680 10.028,13.680 10.022 C 13.680 10.015,13.822 10.002,13.995 9.992 C 14.244 9.978,14.348 9.951,14.496 9.864 C 15.248 9.424,15.120 8.305,14.290 8.055 C 14.161 8.016,13.869 8.000,13.300 8.000 L 12.492 8.000 12.201 7.721 C 11.516 7.064,11.215 6.924,10.734 7.038 M9.695 11.055 C 9.464 11.130,9.255 11.300,9.128 11.516 C 9.037 11.672,9.020 11.746,9.020 12.000 C 9.020 12.257,9.036 12.327,9.133 12.492 C 9.651 13.374,10.998 13.018,10.998 12.000 C 10.998 11.623,10.792 11.281,10.463 11.112 C 10.265 11.010,9.911 10.984,9.695 11.055 " stroke="none" fill-rule="evenodd" fill="black"></path></svg>