<svg xmlns="http://www.w3.org/2000/svg" width="24" height="24" viewBox="0 0 24 24" fill="none" stroke="currentColor" stroke-width="2" stroke-linecap="round" stroke-linejoin="round"><path d="M2.670 2.061 C 2.448 2.142,2.250 2.309,2.128 2.516 C 2.036 2.672,2.020 2.745,2.021 3.000 C 2.022 3.390,2.071 3.479,2.568 3.985 L 2.966 4.391 2.803 4.605 C 2.040 5.613,1.806 6.969,2.188 8.178 C 2.344 8.673,2.563 9.096,2.838 9.436 L 2.980 9.613 3.000 14.096 L 3.020 18.580 3.114 18.860 C 3.446 19.851,4.184 20.582,5.160 20.886 L 5.460 20.980 12.020 20.980 L 18.580 20.980 18.940 20.853 L 19.300 20.727 19.860 21.278 C 20.168 21.582,20.483 21.863,20.560 21.904 C 20.660 21.957,20.786 21.979,21.000 21.979 C 21.258 21.980,21.327 21.964,21.492 21.867 C 21.968 21.587,22.139 20.967,21.865 20.508 C 21.810 20.416,17.665 16.243,12.653 11.235 C 4.231 2.820,3.525 2.125,3.343 2.065 C 3.107 1.987,2.874 1.986,2.670 2.061 M7.695 3.057 C 7.465 3.129,7.256 3.299,7.128 3.516 C 7.037 3.672,7.020 3.746,7.020 4.000 C 7.020 4.256,7.036 4.328,7.131 4.489 C 7.256 4.702,7.449 4.864,7.670 4.943 C 7.792 4.987,8.774 4.997,12.983 4.998 C 16.500 4.999,18.221 5.014,18.383 5.043 C 18.962 5.149,19.494 5.555,19.762 6.095 C 20.164 6.907,20.035 7.714,19.388 8.432 C 19.217 8.623,19.103 8.791,19.062 8.915 C 19.005 9.084,19.000 9.510,19.009 12.706 L 19.020 16.306 19.141 16.503 C 19.543 17.156,20.457 17.156,20.859 16.503 L 20.980 16.306 21.000 12.963 L 21.020 9.620 21.229 9.350 C 21.844 8.553,22.130 7.332,21.938 6.322 C 21.859 5.905,21.672 5.372,21.489 5.044 C 20.980 4.130,20.055 3.416,19.005 3.127 L 18.620 3.021 13.240 3.012 C 8.903 3.006,7.828 3.014,7.695 3.057 M11.000 12.420 L 17.580 19.001 11.640 18.990 L 5.700 18.980 5.516 18.872 C 5.415 18.813,5.284 18.700,5.225 18.623 C 4.989 18.314,5.000 18.553,5.000 13.622 C 5.000 8.459,5.030 8.885,4.642 8.466 C 4.338 8.137,4.258 8.015,4.132 7.693 C 4.041 7.459,4.026 7.360,4.026 7.000 C 4.026 6.699,4.046 6.524,4.098 6.380 C 4.176 6.161,4.352 5.840,4.394 5.840 C 4.408 5.840,7.381 8.801,11.000 12.420 " stroke="none" fill-rule="evenodd" fill="black"></path></svg>