<svg xmlns="http://www.w3.org/2000/svg" width="24" height="24" viewBox="0 0 24 24" fill="none" stroke="currentColor" stroke-width="2" stroke-linecap="round" stroke-linejoin="round"><path d="M5.450 3.042 C 4.100 3.220,2.860 4.161,2.335 5.406 C 2.087 5.995,2.024 6.310,2.022 6.980 C 2.020 7.443,2.037 7.648,2.096 7.880 C 2.255 8.504,2.487 9.000,2.810 9.406 L 2.980 9.620 3.000 14.100 L 3.020 18.580 3.114 18.860 C 3.446 19.851,4.184 20.582,5.160 20.886 L 5.460 20.980 12.000 20.980 L 18.540 20.980 18.840 20.886 C 19.816 20.582,20.554 19.851,20.886 18.860 L 20.980 18.580 21.000 14.100 L 21.020 9.620 21.229 9.350 C 21.844 8.553,22.130 7.332,21.938 6.322 C 21.859 5.905,21.672 5.372,21.489 5.044 C 20.980 4.130,20.056 3.417,19.005 3.126 L 18.620 3.020 12.160 3.015 C 8.607 3.012,5.587 3.024,5.450 3.042 M18.383 5.043 C 18.962 5.149,19.494 5.555,19.762 6.095 C 20.164 6.906,20.035 7.714,19.389 8.431 C 19.224 8.614,19.103 8.792,19.063 8.908 C 19.007 9.074,19.000 9.595,19.000 13.601 C 19.000 18.493,19.008 18.318,18.779 18.618 C 18.718 18.698,18.585 18.813,18.484 18.872 L 18.300 18.980 12.000 18.980 L 5.700 18.980 5.516 18.872 C 5.415 18.813,5.284 18.700,5.225 18.623 C 4.989 18.314,5.000 18.553,5.000 13.622 C 5.000 8.454,5.030 8.883,4.640 8.466 C 4.183 7.977,4.020 7.584,4.024 6.980 C 4.027 6.553,4.103 6.279,4.311 5.940 C 4.588 5.489,5.085 5.148,5.620 5.041 C 5.876 4.990,18.101 4.992,18.383 5.043 " stroke="none" fill-rule="evenodd" fill="black"></path></svg>