<svg xmlns="http://www.w3.org/2000/svg" width="24" height="24" viewBox="0 0 24 24" fill="none" stroke="currentColor" stroke-width="2" stroke-linecap="round" stroke-linejoin="round"><path d="M11.580 2.597 C 11.477 2.645,11.009 3.084,10.260 3.836 L 9.101 5.000 7.497 5.000 C 5.754 5.000,5.659 5.010,5.382 5.221 C 5.302 5.282,5.187 5.415,5.128 5.516 L 5.020 5.700 5.009 7.400 L 4.997 9.100 3.803 10.300 C 2.526 11.583,2.511 11.604,2.511 12.000 C 2.511 12.396,2.526 12.417,3.803 13.700 L 4.997 14.900 5.009 16.600 L 5.020 18.300 5.131 18.489 C 5.192 18.592,5.304 18.725,5.381 18.783 C 5.655 18.992,5.696 18.996,7.460 18.998 L 9.101 19.000 10.260 20.164 C 11.524 21.433,11.596 21.488,12.000 21.488 C 12.404 21.488,12.476 21.433,13.740 20.164 L 14.899 19.000 16.540 18.998 C 18.304 18.996,18.345 18.992,18.619 18.783 C 18.696 18.725,18.808 18.592,18.869 18.489 L 18.980 18.300 18.991 16.600 L 19.003 14.900 20.197 13.700 C 21.474 12.417,21.489 12.396,21.489 12.000 C 21.489 11.604,21.474 11.583,20.197 10.300 L 19.003 9.100 18.991 7.400 L 18.980 5.700 18.872 5.516 C 18.813 5.415,18.698 5.282,18.618 5.221 C 18.341 5.010,18.246 5.000,16.503 5.000 L 14.899 5.000 13.740 3.836 C 12.991 3.084,12.523 2.645,12.420 2.597 C 12.205 2.496,11.795 2.496,11.580 2.597 M12.960 5.863 C 13.477 6.381,13.972 6.845,14.060 6.893 C 14.214 6.977,14.269 6.980,15.610 6.992 L 17.000 7.004 17.001 8.352 C 17.002 9.617,17.007 9.711,17.083 9.880 C 17.141 10.010,17.433 10.330,18.131 11.030 L 19.099 12.000 18.131 12.970 C 17.433 13.670,17.141 13.990,17.083 14.120 C 17.007 14.289,17.002 14.383,17.001 15.648 L 17.000 16.996 15.610 17.008 C 14.349 17.019,14.207 17.027,14.080 17.094 C 14.003 17.135,13.503 17.602,12.970 18.134 L 12.000 19.099 11.030 18.134 C 10.497 17.602,9.997 17.135,9.920 17.094 C 9.793 17.027,9.651 17.019,8.392 17.008 L 7.004 16.996 6.992 15.608 C 6.981 14.349,6.973 14.207,6.906 14.080 C 6.865 14.003,6.398 13.503,5.866 12.970 L 4.901 12.000 5.866 11.030 C 6.398 10.497,6.865 9.997,6.906 9.920 C 6.973 9.793,6.981 9.651,6.992 8.392 L 7.004 7.004 8.392 6.992 C 9.731 6.980,9.786 6.977,9.940 6.893 C 10.028 6.845,10.523 6.381,11.040 5.863 C 11.557 5.344,11.989 4.920,12.000 4.920 C 12.011 4.920,12.443 5.344,12.960 5.863 M11.499 8.040 C 10.374 8.244,9.483 9.028,9.115 10.140 C 9.024 10.416,9.022 10.448,9.009 12.538 C 8.994 14.907,8.988 14.854,9.276 15.173 C 9.638 15.574,10.283 15.600,10.675 15.228 C 10.905 15.010,10.999 14.754,11.000 14.350 L 11.000 14.000 12.000 14.000 L 13.000 14.000 13.000 14.350 C 13.001 14.635,13.018 14.737,13.095 14.900 C 13.276 15.282,13.595 15.488,14.003 15.488 C 14.292 15.488,14.536 15.381,14.724 15.173 C 15.012 14.854,15.006 14.907,14.991 12.538 C 14.978 10.448,14.976 10.416,14.885 10.140 C 14.560 9.158,13.800 8.404,12.861 8.129 C 12.500 8.023,11.832 7.980,11.499 8.040 M12.310 10.061 C 12.452 10.103,12.571 10.178,12.697 10.303 C 12.948 10.554,13.000 10.751,13.000 11.447 L 13.000 12.000 12.000 12.000 L 11.000 12.000 11.000 11.447 C 11.000 10.750,11.052 10.554,11.304 10.303 C 11.583 10.024,11.916 9.944,12.310 10.061 " stroke="none" fill-rule="evenodd" fill="black"></path></svg>