<svg xmlns="http://www.w3.org/2000/svg" width="24" height="24" viewBox="0 0 24 24" fill="none" stroke="currentColor" stroke-width="2" stroke-linecap="round" stroke-linejoin="round"><path d="M2.670 2.061 C 2.448 2.142,2.250 2.309,2.128 2.516 C 2.036 2.672,2.020 2.745,2.021 3.000 C 2.021 3.213,2.043 3.341,2.095 3.440 C 2.136 3.517,2.637 4.050,3.208 4.625 L 4.248 5.670 3.965 6.051 C 2.992 7.362,2.353 8.914,2.093 10.600 C 2.040 10.943,2.022 11.298,2.022 12.000 C 2.022 13.038,2.071 13.479,2.285 14.355 C 2.727 16.167,3.610 17.732,4.939 19.061 C 6.490 20.613,8.383 21.564,10.600 21.907 C 11.245 22.007,12.755 22.007,13.400 21.907 C 15.086 21.647,16.638 21.008,17.949 20.035 L 18.330 19.752 19.375 20.792 C 19.950 21.363,20.483 21.864,20.560 21.905 C 20.659 21.957,20.787 21.979,21.000 21.979 C 21.258 21.980,21.327 21.964,21.492 21.867 C 21.968 21.587,22.139 20.967,21.865 20.508 C 21.810 20.416,17.665 16.243,12.653 11.235 C 4.231 2.820,3.525 2.125,3.343 2.065 C 3.107 1.987,2.874 1.986,2.670 2.061 M11.080 2.043 C 9.896 2.162,8.747 2.480,7.713 2.974 C 7.268 3.187,7.111 3.344,7.014 3.676 C 6.827 4.316,7.292 4.936,7.960 4.938 C 8.187 4.938,8.273 4.914,8.635 4.746 C 9.318 4.430,10.075 4.197,10.779 4.087 L 10.997 4.053 11.009 6.176 L 11.020 8.300 11.133 8.492 C 11.195 8.598,11.330 8.745,11.433 8.819 C 11.536 8.893,11.652 9.009,11.692 9.076 C 11.934 9.488,12.636 9.615,13.055 9.321 C 13.146 9.258,14.029 8.396,15.017 7.405 L 16.815 5.605 17.017 5.764 C 17.129 5.852,17.414 6.115,17.651 6.350 L 18.082 6.777 17.891 6.964 C 17.786 7.068,16.944 7.876,16.021 8.760 C 15.097 9.645,14.302 10.426,14.254 10.497 C 13.973 10.911,14.056 11.436,14.460 11.792 C 14.768 12.063,15.175 12.109,15.545 11.913 C 15.649 11.858,16.431 11.137,17.460 10.149 L 19.200 8.477 19.303 8.709 C 19.469 9.080,19.633 9.552,19.737 9.960 L 19.834 10.340 18.399 11.780 C 16.861 13.324,16.802 13.397,16.801 13.780 C 16.800 14.116,16.867 14.280,17.100 14.507 C 17.331 14.733,17.497 14.800,17.820 14.799 C 18.174 14.798,18.318 14.697,19.150 13.869 C 19.573 13.447,19.920 13.132,19.920 13.167 C 19.920 13.308,19.758 14.004,19.638 14.381 C 19.568 14.600,19.409 15.005,19.285 15.280 C 19.079 15.737,19.060 15.804,19.062 16.060 C 19.064 16.490,19.252 16.781,19.640 16.957 C 20.001 17.120,20.499 17.022,20.768 16.735 C 20.894 16.601,21.189 15.983,21.386 15.440 C 22.211 13.171,22.205 10.794,21.369 8.500 C 21.190 8.010,20.695 7.019,20.399 6.560 C 18.850 4.157,16.203 2.483,13.340 2.096 C 12.786 2.021,11.580 1.993,11.080 2.043 M13.578 4.160 C 13.791 4.203,14.067 4.268,14.192 4.302 C 14.396 4.359,15.000 4.563,15.000 4.576 C 15.000 4.578,14.550 5.030,14.000 5.580 L 13.000 6.579 13.000 5.330 L 13.000 4.080 13.096 4.080 C 13.148 4.080,13.365 4.116,13.578 4.160 M8.350 9.770 L 11.000 12.420 11.000 16.170 L 11.000 19.920 10.898 19.920 C 10.703 19.920,9.979 19.751,9.500 19.595 C 8.382 19.229,7.352 18.612,6.504 17.801 C 5.777 17.105,5.251 16.387,4.817 15.499 C 3.736 13.290,3.736 10.714,4.817 8.499 C 5.052 8.017,5.608 7.120,5.672 7.120 C 5.687 7.120,6.892 8.312,8.350 9.770 M13.690 16.490 L 13.000 17.180 13.000 15.800 L 13.000 14.420 13.690 15.110 L 14.380 15.800 13.690 16.490 M16.349 17.769 C 16.641 18.061,16.880 18.312,16.880 18.327 C 16.880 18.383,16.018 18.930,15.603 19.138 C 14.897 19.491,13.950 19.802,13.280 19.901 L 13.100 19.927 14.440 18.584 C 15.177 17.845,15.788 17.240,15.799 17.240 C 15.810 17.240,16.058 17.478,16.349 17.769 " stroke="none" fill-rule="evenodd" fill="black"></path></svg>