<svg xmlns="http://www.w3.org/2000/svg" width="24" height="24" viewBox="0 0 24 24" fill="none" stroke="currentColor" stroke-width="2" stroke-linecap="round" stroke-linejoin="round"><path d="M11.695 2.057 C 11.466 2.129,11.256 2.299,11.128 2.516 L 11.020 2.700 11.020 4.003 L 11.020 5.306 11.141 5.503 C 11.543 6.156,12.457 6.156,12.859 5.503 L 12.980 5.306 12.980 4.003 L 12.980 2.700 12.872 2.516 C 12.628 2.101,12.150 1.915,11.695 2.057 M5.295 4.657 C 5.066 4.729,4.856 4.899,4.728 5.116 C 4.636 5.272,4.620 5.345,4.621 5.600 C 4.621 5.813,4.643 5.940,4.695 6.040 C 4.797 6.233,6.299 7.741,6.520 7.873 C 6.672 7.963,6.746 7.980,7.000 7.980 C 7.257 7.980,7.327 7.964,7.492 7.867 C 7.967 7.588,8.138 6.969,7.866 6.508 C 7.812 6.416,7.400 5.977,6.952 5.534 C 6.205 4.796,6.119 4.723,5.921 4.664 C 5.666 4.588,5.519 4.587,5.295 4.657 M18.040 4.669 C 17.896 4.720,17.698 4.892,17.046 5.536 C 16.599 5.978,16.188 6.416,16.134 6.508 C 15.862 6.969,16.033 7.588,16.508 7.867 C 16.673 7.964,16.743 7.980,17.000 7.980 C 17.254 7.980,17.328 7.963,17.480 7.873 C 17.701 7.741,19.203 6.233,19.305 6.040 C 19.357 5.940,19.379 5.813,19.379 5.600 C 19.380 5.345,19.364 5.272,19.272 5.116 C 19.017 4.682,18.518 4.502,18.040 4.669 M11.358 8.061 C 10.230 8.237,9.143 8.974,8.569 9.953 C 7.320 12.083,8.233 14.785,10.512 15.704 C 12.558 16.528,14.877 15.538,15.704 13.488 C 16.090 12.530,16.090 11.469,15.705 10.516 C 15.172 9.197,14.001 8.269,12.605 8.058 C 12.144 7.989,11.816 7.990,11.358 8.061 M12.523 10.073 C 13.262 10.266,13.850 10.924,13.967 11.690 C 14.067 12.343,13.873 12.933,13.403 13.404 C 13.002 13.807,12.547 14.000,12.000 14.000 C 11.485 14.000,11.038 13.822,10.653 13.465 C 9.323 12.229,10.189 10.005,12.000 10.005 C 12.143 10.005,12.378 10.036,12.523 10.073 M3.695 11.057 C 3.466 11.129,3.256 11.299,3.128 11.516 C 3.037 11.672,3.020 11.746,3.020 12.000 C 3.020 12.256,3.036 12.328,3.131 12.489 C 3.256 12.702,3.449 12.864,3.670 12.943 C 3.885 13.020,6.115 13.020,6.330 12.943 C 6.551 12.864,6.744 12.702,6.869 12.489 C 6.964 12.328,6.980 12.256,6.980 12.000 C 6.980 11.746,6.963 11.672,6.872 11.516 C 6.740 11.293,6.533 11.128,6.290 11.055 C 6.039 10.979,3.937 10.981,3.695 11.057 M18.695 11.057 C 18.466 11.129,18.256 11.299,18.128 11.516 C 18.037 11.672,18.020 11.746,18.020 12.000 C 18.020 12.256,18.036 12.328,18.131 12.489 C 18.256 12.702,18.449 12.864,18.670 12.943 C 18.885 13.020,21.115 13.020,21.330 12.943 C 21.551 12.864,21.744 12.702,21.869 12.489 C 21.964 12.328,21.980 12.256,21.980 12.000 C 21.980 11.746,21.963 11.672,21.872 11.516 C 21.740 11.293,21.533 11.128,21.290 11.055 C 21.039 10.979,18.937 10.981,18.695 11.057 M6.640 16.069 C 6.496 16.120,6.298 16.292,5.646 16.936 C 5.199 17.378,4.788 17.816,4.734 17.908 C 4.462 18.369,4.633 18.988,5.108 19.267 C 5.273 19.364,5.343 19.380,5.600 19.380 C 5.854 19.380,5.928 19.363,6.080 19.273 C 6.301 19.141,7.803 17.633,7.905 17.440 C 7.957 17.340,7.979 17.213,7.979 17.000 C 7.980 16.745,7.964 16.672,7.872 16.516 C 7.617 16.082,7.118 15.902,6.640 16.069 M16.670 16.061 C 16.448 16.142,16.250 16.309,16.128 16.516 C 16.036 16.672,16.020 16.745,16.021 17.000 C 16.021 17.213,16.043 17.340,16.095 17.440 C 16.197 17.633,17.699 19.141,17.920 19.273 C 18.072 19.363,18.146 19.380,18.400 19.380 C 18.657 19.380,18.727 19.364,18.892 19.267 C 19.367 18.988,19.538 18.369,19.266 17.908 C 19.212 17.816,18.801 17.378,18.354 16.937 C 17.661 16.252,17.511 16.123,17.343 16.067 C 17.108 15.987,16.875 15.985,16.670 16.061 M11.695 18.057 C 11.466 18.129,11.256 18.299,11.128 18.516 L 11.020 18.700 11.020 20.003 L 11.020 21.306 11.141 21.503 C 11.543 22.156,12.457 22.156,12.859 21.503 L 12.980 21.306 12.980 20.003 L 12.980 18.700 12.872 18.516 C 12.628 18.101,12.150 17.915,11.695 18.057 " stroke="none" fill-rule="evenodd" fill="black"></path></svg>