<svg xmlns="http://www.w3.org/2000/svg" width="24" height="24" viewBox="0 0 24 24" fill="none" stroke="currentColor" stroke-width="2" stroke-linecap="round" stroke-linejoin="round"><path d="M2.670 2.061 C 2.448 2.142,2.250 2.309,2.128 2.516 C 2.036 2.672,2.020 2.745,2.021 3.000 C 2.021 3.213,2.043 3.341,2.095 3.440 C 2.136 3.517,2.742 4.156,3.443 4.860 L 4.717 6.140 4.479 6.412 C 3.181 7.893,2.370 9.690,2.072 11.740 C 2.039 11.967,2.021 12.463,2.024 13.080 C 2.027 13.953,2.039 14.124,2.133 14.644 C 2.502 16.690,3.374 18.428,4.771 19.905 C 5.116 20.270,5.345 20.379,5.707 20.350 C 6.352 20.298,6.777 19.687,6.594 19.075 C 6.548 18.923,6.492 18.848,5.862 18.112 C 4.101 16.050,3.542 13.082,4.419 10.453 C 4.709 9.586,5.299 8.534,5.882 7.846 L 6.131 7.552 6.841 8.261 L 7.552 8.971 7.321 9.255 C 6.420 10.368,5.941 11.843,6.014 13.282 C 6.028 13.562,6.068 13.932,6.103 14.105 C 6.328 15.225,6.891 16.323,7.642 17.109 C 7.942 17.422,8.133 17.518,8.462 17.519 C 9.099 17.521,9.571 16.946,9.438 16.330 C 9.393 16.117,9.337 16.030,8.953 15.571 C 8.540 15.076,8.290 14.587,8.113 13.927 C 8.012 13.552,7.991 12.603,8.076 12.220 C 8.198 11.662,8.458 11.080,8.780 10.644 L 8.968 10.389 9.679 11.099 L 10.391 11.810 10.297 11.948 C 9.938 12.478,9.908 13.303,10.225 13.929 C 10.362 14.199,10.801 14.638,11.071 14.775 C 11.697 15.092,12.522 15.062,13.052 14.703 L 13.190 14.609 13.913 15.335 L 14.635 16.060 14.575 16.291 C 14.413 16.915,14.880 17.520,15.522 17.520 C 15.646 17.520,15.807 17.500,15.878 17.475 L 16.008 17.429 16.740 18.160 L 17.472 18.892 17.416 19.051 C 17.264 19.482,17.457 19.986,17.868 20.227 C 18.092 20.358,18.475 20.397,18.685 20.309 L 18.829 20.249 19.585 21.007 C 20.000 21.424,20.421 21.814,20.520 21.873 C 20.672 21.964,20.746 21.980,21.000 21.980 C 21.257 21.980,21.327 21.964,21.492 21.867 C 21.968 21.587,22.139 20.967,21.865 20.508 C 21.810 20.416,21.413 19.989,20.983 19.560 C 20.552 19.132,20.200 18.770,20.200 18.756 C 20.200 18.742,20.290 18.595,20.400 18.428 C 20.842 17.758,21.282 16.813,21.537 15.988 C 21.831 15.037,21.950 14.327,21.987 13.312 C 22.128 9.372,19.911 5.714,16.342 3.997 C 14.089 2.913,11.493 2.708,9.121 3.427 C 8.208 3.703,7.905 3.878,7.740 4.225 C 7.509 4.711,7.729 5.317,8.217 5.545 C 8.510 5.681,8.753 5.670,9.228 5.499 C 10.660 4.984,12.118 4.873,13.600 5.165 C 14.807 5.404,16.142 6.039,17.080 6.821 C 19.511 8.847,20.520 11.999,19.720 15.070 C 19.541 15.758,19.070 16.848,18.800 17.200 L 18.723 17.300 18.006 16.585 L 17.290 15.870 17.424 15.579 C 17.925 14.495,18.116 13.160,17.927 12.056 C 17.497 9.545,15.610 7.593,13.154 7.117 C 12.575 7.005,11.905 6.976,11.689 7.055 C 11.038 7.292,10.799 8.040,11.198 8.591 C 11.404 8.875,11.608 8.963,12.166 9.007 C 13.272 9.094,14.125 9.473,14.840 10.197 C 15.819 11.185,16.203 12.574,15.880 13.951 C 15.832 14.154,15.782 14.320,15.767 14.320 C 15.753 14.320,12.996 11.577,9.640 8.225 C 4.022 2.611,3.524 2.125,3.343 2.065 C 3.107 1.987,2.874 1.986,2.670 2.061 " stroke="none" fill-rule="evenodd" fill="black"></path></svg>