<svg xmlns="http://www.w3.org/2000/svg" width="24" height="24" viewBox="0 0 24 24" fill="none" stroke="currentColor" stroke-width="2" stroke-linecap="round" stroke-linejoin="round"><path d="M11.080 3.045 C 7.235 3.385,3.835 6.037,2.567 9.685 C 2.165 10.842,2.022 11.713,2.022 13.000 C 2.022 14.038,2.071 14.479,2.285 15.355 C 2.693 17.028,3.533 18.587,4.694 19.824 C 5.116 20.274,5.322 20.380,5.707 20.350 C 6.352 20.298,6.777 19.687,6.594 19.075 C 6.548 18.923,6.494 18.852,5.863 18.112 C 4.553 16.576,3.869 14.456,4.030 12.430 C 4.118 11.334,4.358 10.439,4.817 9.501 C 5.612 7.873,6.873 6.612,8.501 5.817 C 10.710 4.737,13.290 4.737,15.499 5.817 C 17.127 6.612,18.388 7.873,19.183 9.501 C 20.264 11.710,20.263 14.292,19.183 16.499 C 18.795 17.293,18.431 17.818,17.773 18.532 C 17.376 18.964,17.278 19.279,17.418 19.676 C 17.558 20.070,17.877 20.316,18.293 20.350 C 18.678 20.380,18.884 20.274,19.306 19.824 C 20.465 18.588,21.308 17.026,21.715 15.355 C 21.930 14.475,21.979 14.038,21.978 13.000 C 21.977 11.961,21.927 11.513,21.715 10.645 C 20.539 5.825,16.035 2.606,11.080 3.045 M11.380 7.043 C 10.719 7.108,10.114 7.274,9.488 7.563 C 7.372 8.540,6.001 10.678,6.001 13.000 C 6.001 14.498,6.602 16.018,7.615 17.084 C 7.934 17.419,8.127 17.518,8.465 17.519 C 9.095 17.521,9.573 16.935,9.437 16.327 C 9.387 16.103,9.336 16.020,9.039 15.680 C 8.486 15.047,8.177 14.393,8.058 13.605 C 7.986 13.121,7.986 12.879,8.058 12.395 C 8.280 10.926,9.324 9.690,10.755 9.203 C 11.050 9.103,11.680 9.000,12.000 9.000 C 12.320 9.000,12.950 9.103,13.245 9.203 C 14.222 9.536,15.080 10.268,15.536 11.160 C 15.767 11.611,15.871 11.930,15.942 12.395 C 16.014 12.879,16.014 13.121,15.942 13.605 C 15.820 14.414,15.497 15.076,14.885 15.772 C 14.641 16.049,14.615 16.094,14.560 16.341 C 14.425 16.941,14.908 17.521,15.538 17.519 C 15.871 17.518,16.067 17.418,16.376 17.093 C 17.393 16.022,17.997 14.506,17.999 13.016 C 18.003 10.689,16.630 8.541,14.512 7.563 C 13.520 7.105,12.486 6.933,11.380 7.043 M11.477 11.073 C 10.806 11.249,10.238 11.823,10.060 12.508 C 9.941 12.962,10.003 13.492,10.225 13.930 C 10.361 14.199,10.801 14.639,11.070 14.775 C 11.659 15.073,12.341 15.073,12.930 14.775 C 13.196 14.640,13.638 14.200,13.771 13.937 C 13.994 13.498,14.052 13.007,13.940 12.529 C 13.858 12.182,13.720 11.927,13.465 11.653 C 13.074 11.232,12.560 11.005,12.000 11.005 C 11.857 11.005,11.622 11.036,11.477 11.073 " stroke="none" fill-rule="evenodd" fill="black"></path></svg>