<svg xmlns="http://www.w3.org/2000/svg" width="24" height="24" viewBox="0 0 24 24" fill="none" stroke="currentColor" stroke-width="2" stroke-linecap="round" stroke-linejoin="round"><path d="M4.477 3.073 C 3.806 3.249,3.238 3.823,3.060 4.508 C 3.008 4.707,3.000 5.691,3.000 12.000 C 3.000 19.922,2.987 19.460,3.225 19.930 C 3.361 20.199,3.801 20.639,4.070 20.775 C 4.540 21.013,4.078 21.000,12.000 21.000 C 19.922 21.000,19.460 21.013,19.930 20.775 C 20.196 20.640,20.638 20.200,20.771 19.937 C 21.014 19.459,21.000 19.929,20.999 12.014 C 20.999 4.156,21.009 4.532,20.781 4.083 C 20.646 3.816,20.297 3.449,20.017 3.281 C 19.525 2.985,20.100 3.005,12.000 3.005 C 5.266 3.005,4.721 3.010,4.477 3.073 M7.000 6.000 L 7.000 7.000 6.000 7.000 L 5.000 7.000 5.000 6.000 L 5.000 5.000 6.000 5.000 L 7.000 5.000 7.000 6.000 M19.000 6.000 L 19.000 7.000 14.000 7.000 L 9.000 7.000 9.000 6.000 L 9.000 5.000 14.000 5.000 L 19.000 5.000 19.000 6.000 M19.000 14.000 L 19.000 19.000 12.000 19.000 L 5.000 19.000 5.000 14.000 L 5.000 9.000 12.000 9.000 L 19.000 9.000 19.000 14.000 M9.695 11.057 C 9.466 11.129,9.256 11.299,9.128 11.516 C 9.036 11.672,9.020 11.745,9.021 12.000 C 9.021 12.213,9.043 12.340,9.096 12.440 C 9.136 12.517,9.486 12.900,9.873 13.290 L 10.577 14.000 9.873 14.710 C 9.486 15.101,9.139 15.481,9.101 15.555 C 8.872 16.008,9.056 16.601,9.508 16.867 C 9.673 16.964,9.742 16.980,10.000 16.979 C 10.213 16.979,10.340 16.957,10.440 16.904 C 10.517 16.864,10.900 16.514,11.290 16.127 L 12.000 15.423 12.710 16.127 C 13.101 16.514,13.483 16.864,13.560 16.904 C 13.660 16.957,13.787 16.979,14.000 16.979 C 14.258 16.980,14.327 16.964,14.492 16.867 C 14.714 16.737,14.901 16.498,14.965 16.264 C 15.019 16.061,14.989 15.733,14.899 15.555 C 14.861 15.481,14.514 15.101,14.127 14.710 L 13.423 14.000 14.127 13.290 C 14.514 12.900,14.864 12.517,14.904 12.440 C 14.957 12.340,14.979 12.213,14.979 12.000 C 14.980 11.745,14.964 11.672,14.872 11.516 C 14.740 11.293,14.533 11.128,14.290 11.055 C 14.054 10.984,13.943 10.986,13.680 11.064 C 13.485 11.122,13.397 11.195,12.733 11.851 L 12.000 12.574 11.267 11.851 C 10.603 11.195,10.515 11.122,10.320 11.064 C 10.066 10.988,9.919 10.987,9.695 11.057 " stroke="none" fill-rule="evenodd" fill="black"></path></svg>