<svg xmlns="http://www.w3.org/2000/svg" width="24" height="24" viewBox="0 0 24 24" fill="none" stroke="currentColor" stroke-width="2" stroke-linecap="round" stroke-linejoin="round"><path d="M2.670 2.061 C 2.448 2.142,2.250 2.309,2.128 2.516 C 2.036 2.672,2.020 2.745,2.021 3.000 C 2.022 3.392,2.070 3.478,2.587 4.004 L 3.003 4.427 3.001 11.844 C 2.999 19.941,2.985 19.457,3.225 19.930 C 3.361 20.199,3.801 20.639,4.070 20.775 C 4.543 21.015,4.059 21.001,12.156 20.999 L 19.573 20.997 19.996 21.413 C 20.522 21.930,20.608 21.978,21.000 21.979 C 21.258 21.980,21.327 21.964,21.492 21.867 C 21.968 21.587,22.139 20.967,21.865 20.508 C 21.810 20.416,17.665 16.243,12.653 11.235 C 4.231 2.820,3.525 2.125,3.343 2.065 C 3.107 1.987,2.874 1.986,2.670 2.061 M7.695 3.057 C 7.466 3.129,7.256 3.299,7.128 3.516 C 7.037 3.672,7.020 3.746,7.020 4.000 C 7.020 4.256,7.036 4.328,7.131 4.489 C 7.256 4.702,7.449 4.864,7.670 4.943 C 7.792 4.987,8.845 4.997,13.410 4.998 L 19.000 5.000 19.000 6.000 L 19.000 7.000 15.446 7.000 C 11.590 7.000,11.678 6.995,11.382 7.221 C 11.302 7.282,11.187 7.415,11.128 7.516 C 11.037 7.672,11.020 7.746,11.020 8.000 C 11.020 8.256,11.036 8.328,11.131 8.489 C 11.256 8.702,11.449 8.864,11.670 8.943 C 11.791 8.986,12.516 8.997,15.409 8.998 L 18.998 9.000 19.009 12.653 L 19.020 16.306 19.141 16.503 C 19.543 17.156,20.457 17.156,20.859 16.503 L 20.980 16.306 20.991 10.552 C 21.002 4.291,21.010 4.534,20.782 4.083 C 20.646 3.816,20.297 3.449,20.017 3.281 C 19.531 2.988,19.918 3.005,13.560 3.005 C 9.011 3.005,7.827 3.016,7.695 3.057 M5.300 6.720 L 5.578 7.000 5.289 7.000 L 5.000 7.000 5.000 6.720 C 5.000 6.566,5.005 6.440,5.011 6.440 C 5.017 6.440,5.147 6.566,5.300 6.720 M12.580 14.000 L 17.580 19.000 11.290 19.000 L 5.000 19.000 5.000 14.000 L 5.000 9.000 6.290 9.000 L 7.580 9.000 12.580 14.000 " stroke="none" fill-rule="evenodd" fill="black"></path></svg>