<svg xmlns="http://www.w3.org/2000/svg" width="24" height="24" viewBox="0 0 24 24" fill="none" stroke="currentColor" stroke-width="2" stroke-linecap="round" stroke-linejoin="round"><path d="M2.670 2.061 C 2.448 2.142,2.250 2.309,2.128 2.516 C 2.037 2.672,2.020 2.746,2.020 3.000 C 2.020 3.254,2.036 3.327,2.127 3.480 C 2.188 3.582,3.623 5.047,5.435 6.857 L 8.635 10.055 8.564 10.157 C 8.444 10.333,8.024 11.119,7.799 11.591 L 7.584 12.043 7.262 12.017 C 6.692 11.971,5.812 12.103,5.248 12.320 C 4.565 12.582,3.886 13.035,3.384 13.563 C 2.723 14.257,2.301 15.067,2.093 16.040 C 2.027 16.348,2.020 16.612,2.020 18.840 L 2.020 21.300 2.133 21.492 C 2.262 21.711,2.502 21.901,2.728 21.962 C 2.831 21.990,3.693 21.999,5.292 21.989 C 7.415 21.976,7.736 21.966,8.000 21.904 C 9.536 21.544,10.756 20.614,11.433 19.288 C 11.835 18.499,11.979 17.900,11.980 17.013 L 11.980 16.405 12.460 16.173 C 12.936 15.942,13.815 15.471,13.900 15.400 C 13.929 15.376,14.992 16.412,17.142 18.564 C 18.953 20.377,20.418 21.812,20.520 21.873 C 20.673 21.964,20.746 21.980,21.000 21.980 C 21.257 21.980,21.327 21.964,21.492 21.867 C 21.968 21.587,22.139 20.967,21.865 20.508 C 21.810 20.416,17.665 16.243,12.653 11.235 C 4.231 2.820,3.525 2.125,3.343 2.065 C 3.107 1.987,2.874 1.986,2.670 2.061 M20.180 2.122 C 18.435 2.453,17.115 2.891,15.600 3.645 C 14.118 4.383,12.880 5.231,11.662 6.343 C 11.014 6.934,10.813 7.168,10.741 7.410 C 10.665 7.666,10.665 7.735,10.742 7.995 C 10.889 8.489,11.383 8.782,11.889 8.675 C 12.123 8.625,12.364 8.466,12.640 8.178 C 13.144 7.653,14.144 6.839,14.886 6.351 C 16.234 5.463,17.892 4.719,19.320 4.360 C 19.507 4.313,19.681 4.268,19.706 4.260 C 19.763 4.242,19.544 5.089,19.339 5.680 C 18.609 7.779,17.500 9.597,15.961 11.216 C 15.417 11.788,15.314 11.961,15.314 12.306 C 15.314 12.925,15.882 13.391,16.495 13.277 C 16.774 13.225,16.901 13.132,17.384 12.629 C 19.487 10.434,20.938 7.798,21.659 4.864 C 21.826 4.183,22.000 3.210,21.999 2.961 C 21.997 2.612,21.757 2.251,21.422 2.095 C 21.160 1.973,20.944 1.977,20.180 2.122 M12.410 13.952 C 12.335 14.008,11.384 14.480,11.347 14.480 C 11.335 14.480,11.238 14.350,11.133 14.192 C 10.862 13.788,10.345 13.257,9.941 12.970 C 9.753 12.836,9.576 12.719,9.550 12.710 C 9.499 12.693,9.682 12.263,9.953 11.766 L 10.092 11.512 11.286 12.706 C 12.364 13.783,12.474 13.905,12.410 13.952 M7.875 14.137 C 8.827 14.426,9.563 15.160,9.867 16.125 C 9.959 16.418,9.972 16.528,9.973 17.000 C 9.973 17.459,9.958 17.588,9.875 17.861 C 9.585 18.811,8.838 19.562,7.860 19.884 C 7.587 19.974,7.533 19.977,5.787 19.991 L 3.995 20.005 4.009 18.233 C 4.023 16.476,4.024 16.457,4.123 16.139 C 4.462 15.049,5.371 14.245,6.499 14.040 C 6.845 13.978,7.500 14.024,7.875 14.137 " stroke="none" fill-rule="evenodd" fill="black"></path></svg>