<svg xmlns="http://www.w3.org/2000/svg" width="24" height="24" viewBox="0 0 24 24" fill="none" stroke="currentColor" stroke-width="2" stroke-linecap="round" stroke-linejoin="round"><path d="M20.580 2.047 C 18.339 2.470,17.086 2.881,15.380 3.755 C 12.081 5.444,9.336 8.282,7.797 11.592 L 7.587 12.043 7.263 12.017 C 6.692 11.971,5.812 12.103,5.248 12.320 C 4.565 12.582,3.886 13.035,3.384 13.563 C 2.723 14.257,2.301 15.067,2.093 16.040 C 2.027 16.348,2.020 16.612,2.020 18.840 L 2.020 21.300 2.133 21.492 C 2.262 21.711,2.502 21.901,2.728 21.962 C 2.831 21.990,3.693 21.999,5.292 21.989 C 7.415 21.976,7.736 21.966,8.000 21.904 C 9.536 21.544,10.756 20.614,11.433 19.288 C 11.830 18.509,11.970 17.934,11.984 17.025 L 11.994 16.390 12.373 16.218 C 13.218 15.835,14.288 15.200,15.158 14.566 C 18.724 11.967,21.137 8.086,21.899 3.721 C 22.018 3.036,22.023 2.835,21.925 2.620 C 21.690 2.104,21.257 1.920,20.580 2.047 M19.719 4.330 C 19.718 4.413,19.574 4.953,19.427 5.420 C 18.859 7.236,17.828 9.075,16.530 10.593 C 16.241 10.930,15.356 11.840,15.316 11.840 C 15.303 11.840,15.223 11.737,15.140 11.610 C 14.514 10.660,13.431 9.570,12.450 8.903 C 12.290 8.795,12.160 8.695,12.160 8.682 C 12.160 8.644,13.076 7.754,13.407 7.470 C 15.122 6.003,17.172 4.921,19.300 4.361 C 19.641 4.271,19.720 4.265,19.719 4.330 M11.172 10.465 C 12.113 11.074,12.926 11.887,13.535 12.828 C 13.637 12.985,13.720 13.122,13.720 13.131 C 13.720 13.225,11.527 14.480,11.363 14.480 C 11.342 14.480,11.238 14.350,11.133 14.192 C 10.862 13.788,10.345 13.257,9.941 12.970 C 9.753 12.836,9.576 12.719,9.549 12.710 C 9.491 12.690,9.816 11.986,10.154 11.400 C 10.411 10.954,10.840 10.280,10.867 10.280 C 10.877 10.280,11.015 10.363,11.172 10.465 M7.875 14.137 C 8.827 14.426,9.563 15.160,9.867 16.125 C 9.959 16.418,9.972 16.528,9.973 17.000 C 9.973 17.459,9.958 17.588,9.875 17.861 C 9.585 18.811,8.838 19.562,7.860 19.884 C 7.587 19.974,7.533 19.977,5.787 19.991 L 3.995 20.005 4.009 18.233 C 4.023 16.476,4.024 16.457,4.123 16.139 C 4.462 15.049,5.371 14.245,6.499 14.040 C 6.845 13.978,7.500 14.024,7.875 14.137 " stroke="none" fill-rule="evenodd" fill="black"></path></svg>