<svg xmlns="http://www.w3.org/2000/svg" width="24" height="24" viewBox="0 0 24 24" fill="none" stroke="currentColor" stroke-width="2" stroke-linecap="round" stroke-linejoin="round"><path d="M11.840 2.024 C 10.287 2.210,8.990 2.810,7.960 3.820 L 7.660 4.115 7.138 4.158 C 5.755 4.273,4.589 4.801,3.570 5.775 C 2.767 6.543,2.255 7.435,1.963 8.574 C 1.831 9.086,1.789 9.529,1.812 10.157 C 1.835 10.798,1.896 11.131,2.103 11.755 C 2.411 12.682,2.831 13.358,3.527 14.050 L 4.000 14.521 3.958 14.904 C 3.838 15.977,4.243 17.097,5.030 17.870 C 5.284 18.119,5.597 18.356,5.831 18.475 L 6.000 18.562 6.000 19.854 C 6.000 21.331,6.014 21.416,6.299 21.701 C 6.565 21.967,6.982 22.067,7.320 21.946 C 7.397 21.919,8.247 21.424,9.209 20.847 L 10.958 19.797 11.189 19.855 C 12.350 20.148,13.601 20.002,14.740 19.439 C 15.413 19.107,16.084 18.578,16.462 18.083 L 16.608 17.892 17.054 17.864 C 19.651 17.707,21.901 15.987,22.713 13.537 C 23.629 10.778,22.560 7.779,20.096 6.192 C 19.620 5.886,18.742 5.513,18.226 5.398 C 18.049 5.358,17.977 5.321,17.931 5.243 C 17.208 4.037,16.381 3.257,15.187 2.658 C 14.698 2.412,14.032 2.192,13.500 2.099 C 13.148 2.037,12.117 1.991,11.840 2.024 M13.462 4.139 C 14.221 4.331,14.961 4.763,15.509 5.334 C 15.885 5.725,16.022 5.918,16.285 6.431 C 16.600 7.043,16.742 7.153,17.353 7.259 C 18.768 7.504,19.846 8.262,20.514 9.483 C 21.257 10.841,21.198 12.545,20.363 13.862 C 19.533 15.170,17.984 15.961,16.440 15.864 C 15.746 15.820,15.512 15.934,15.144 16.492 C 14.651 17.238,14.025 17.687,13.176 17.902 C 12.555 18.060,11.924 18.026,11.272 17.801 C 11.001 17.707,10.714 17.697,10.495 17.775 C 10.410 17.805,9.815 18.146,9.173 18.532 L 8.006 19.233 7.993 18.407 C 7.981 17.646,7.973 17.567,7.892 17.416 C 7.771 17.190,7.569 17.024,7.293 16.923 C 7.165 16.877,6.979 16.809,6.880 16.772 C 6.636 16.683,6.246 16.288,6.104 15.986 C 5.875 15.499,5.875 15.087,6.104 14.523 C 6.234 14.204,6.225 13.905,6.076 13.615 C 5.994 13.455,5.903 13.370,5.567 13.138 C 5.056 12.785,4.736 12.473,4.454 12.051 C 3.272 10.284,3.747 7.926,5.520 6.762 C 6.206 6.311,6.769 6.155,7.740 6.146 C 8.270 6.141,8.405 6.127,8.527 6.067 C 8.608 6.027,8.884 5.770,9.140 5.497 C 9.795 4.799,10.452 4.383,11.244 4.163 C 11.926 3.974,12.773 3.965,13.462 4.139 " stroke="none" fill-rule="evenodd" fill="black"></path></svg>