<svg xmlns="http://www.w3.org/2000/svg" width="24" height="24" viewBox="0 0 24 24" fill="none" stroke="currentColor" stroke-width="2" stroke-linecap="round" stroke-linejoin="round"><path d="M15.647 1.067 C 15.357 1.170,15.204 1.366,14.640 2.360 C 14.347 2.877,14.104 3.304,14.101 3.309 C 14.097 3.315,13.966 3.283,13.809 3.240 C 13.231 3.080,12.771 3.025,12.000 3.025 C 11.180 3.025,10.738 3.083,10.058 3.279 C 9.051 3.569,8.045 4.150,7.251 4.898 C 6.485 5.620,6.025 6.305,5.558 7.420 L 5.324 7.980 5.032 8.006 C 4.697 8.035,4.570 8.078,4.375 8.226 C 4.083 8.449,3.936 8.897,4.035 9.264 C 4.139 9.645,4.495 9.947,4.891 9.988 L 5.106 10.010 5.798 14.095 C 6.573 18.664,6.712 19.399,6.889 19.857 C 7.349 21.049,8.094 21.553,9.820 21.838 C 11.299 22.082,13.351 22.039,14.640 21.737 C 16.276 21.354,16.886 20.698,17.259 18.920 C 17.317 18.645,17.678 16.566,18.063 14.300 C 18.447 12.034,18.770 10.142,18.780 10.096 C 18.796 10.023,18.836 10.008,19.058 9.990 C 19.649 9.943,20.047 9.471,19.987 8.888 C 19.951 8.536,19.701 8.205,19.373 8.076 C 19.311 8.051,19.129 8.020,18.968 8.006 L 18.676 7.980 18.442 7.420 C 18.100 6.604,17.818 6.114,17.366 5.553 C 17.074 5.190,16.475 4.618,16.150 4.390 C 16.024 4.301,15.920 4.213,15.920 4.194 C 15.920 4.175,16.155 3.748,16.442 3.245 C 16.890 2.461,16.968 2.298,16.987 2.110 C 17.063 1.377,16.347 0.820,15.647 1.067 M12.620 5.044 C 12.818 5.067,12.995 5.101,13.013 5.119 C 13.031 5.136,12.680 5.791,12.233 6.575 L 11.420 7.999 9.452 8.000 L 7.484 8.000 7.538 7.870 C 7.719 7.439,8.055 6.943,8.437 6.544 C 9.548 5.386,11.035 4.853,12.620 5.044 M15.411 6.395 C 15.868 6.835,16.257 7.381,16.462 7.870 L 16.516 8.000 15.121 8.000 L 13.726 8.000 14.308 6.981 C 14.850 6.032,14.895 5.965,14.971 6.006 C 15.016 6.030,15.214 6.205,15.411 6.395 M16.744 10.110 C 16.732 10.171,16.415 12.029,16.040 14.240 C 15.665 16.451,15.313 18.458,15.259 18.700 C 15.135 19.253,15.026 19.472,14.818 19.587 C 14.103 19.983,11.632 20.124,10.089 19.857 C 8.908 19.654,8.815 19.569,8.597 18.506 C 8.499 18.024,7.160 10.168,7.160 10.070 C 7.160 10.004,7.415 10.000,11.963 10.000 L 16.766 10.000 16.744 10.110 M9.709 13.055 C 9.113 13.277,8.845 13.901,9.116 14.433 C 9.367 14.923,9.941 15.131,10.420 14.905 C 10.801 14.724,11.008 14.405,11.008 14.000 C 11.008 13.615,10.809 13.290,10.463 13.112 C 10.261 13.008,9.906 12.981,9.709 13.055 M12.760 15.035 C 12.305 15.184,12.032 15.547,12.032 16.000 C 12.032 16.405,12.239 16.724,12.620 16.905 C 13.103 17.133,13.666 16.926,13.932 16.423 C 14.049 16.199,14.050 15.802,13.933 15.579 C 13.825 15.375,13.663 15.213,13.463 15.112 C 13.291 15.024,12.918 14.983,12.760 15.035 M10.760 17.035 C 10.305 17.184,10.032 17.547,10.032 18.000 C 10.032 18.405,10.239 18.724,10.620 18.905 C 11.103 19.133,11.666 18.926,11.932 18.423 C 12.049 18.199,12.050 17.802,11.933 17.579 C 11.825 17.375,11.663 17.213,11.463 17.112 C 11.291 17.024,10.918 16.983,10.760 17.035 " stroke="none" fill-rule="evenodd" fill="black"></path></svg>