<svg xmlns="http://www.w3.org/2000/svg" width="24" height="24" viewBox="0 0 24 24" fill="none" stroke="currentColor" stroke-width="2" stroke-linecap="round" stroke-linejoin="round"><path d="M11.734 2.041 C 10.343 2.187,8.960 2.840,7.960 3.820 L 7.660 4.115 7.138 4.158 C 5.755 4.273,4.589 4.801,3.570 5.775 C 2.767 6.543,2.255 7.435,1.963 8.574 C 1.831 9.086,1.789 9.529,1.812 10.157 C 1.835 10.798,1.896 11.131,2.103 11.755 C 2.411 12.682,2.831 13.358,3.527 14.050 L 4.000 14.521 3.958 14.904 C 3.838 15.977,4.243 17.097,5.030 17.870 C 5.284 18.119,5.597 18.356,5.831 18.475 L 6.000 18.562 6.000 19.854 C 6.000 20.951,6.010 21.175,6.066 21.340 C 6.229 21.819,6.813 22.113,7.284 21.954 C 7.359 21.929,8.214 21.433,9.185 20.852 L 10.949 19.795 11.185 19.854 C 11.798 20.009,12.424 20.041,12.739 19.934 C 12.946 19.864,13.194 19.644,13.301 19.438 C 13.484 19.084,13.394 18.588,13.095 18.297 C 12.887 18.095,12.635 18.000,12.303 17.999 C 12.027 17.999,11.615 17.919,11.272 17.801 C 11.001 17.707,10.714 17.697,10.495 17.775 C 10.410 17.805,9.815 18.146,9.173 18.532 L 8.006 19.233 7.993 18.407 C 7.981 17.646,7.973 17.567,7.892 17.416 C 7.771 17.190,7.569 17.024,7.293 16.923 C 7.165 16.877,6.979 16.809,6.880 16.772 C 6.636 16.683,6.246 16.288,6.104 15.986 C 5.875 15.499,5.875 15.087,6.104 14.523 C 6.234 14.204,6.225 13.905,6.076 13.615 C 5.994 13.455,5.903 13.370,5.567 13.138 C 5.056 12.785,4.736 12.473,4.454 12.051 C 3.272 10.284,3.747 7.926,5.520 6.762 C 6.206 6.311,6.769 6.155,7.740 6.146 C 8.270 6.141,8.405 6.127,8.527 6.067 C 8.608 6.027,8.867 5.786,9.104 5.533 C 9.635 4.964,9.934 4.734,10.500 4.458 C 11.024 4.202,11.390 4.096,11.970 4.032 C 13.768 3.832,15.518 4.828,16.337 6.519 C 16.585 7.029,16.760 7.156,17.364 7.260 C 19.949 7.707,21.538 10.232,20.818 12.747 C 20.684 13.216,20.416 13.748,20.117 14.140 C 19.983 14.316,19.839 14.532,19.797 14.620 C 19.710 14.804,19.698 15.098,19.769 15.335 C 19.833 15.554,20.174 15.898,20.384 15.956 C 20.854 16.087,21.237 15.949,21.577 15.525 C 22.252 14.684,22.671 13.786,22.889 12.709 C 23.019 12.068,23.017 10.933,22.886 10.320 C 22.407 8.090,20.931 6.364,18.840 5.589 C 18.631 5.512,18.356 5.425,18.229 5.397 L 17.997 5.347 17.801 5.023 C 16.554 2.970,14.148 1.787,11.734 2.041 M15.695 18.057 C 15.466 18.129,15.256 18.299,15.128 18.516 C 15.037 18.672,15.020 18.746,15.020 19.000 C 15.020 19.256,15.036 19.328,15.131 19.489 C 15.256 19.702,15.449 19.864,15.670 19.943 C 15.891 20.022,22.109 20.022,22.330 19.943 C 22.551 19.864,22.744 19.702,22.869 19.489 C 22.964 19.328,22.980 19.256,22.980 19.000 C 22.980 18.746,22.963 18.672,22.872 18.516 C 22.740 18.293,22.533 18.128,22.290 18.055 C 22.030 17.977,15.945 17.979,15.695 18.057 " stroke="none" fill-rule="evenodd" fill="black"></path></svg>