<svg xmlns="http://www.w3.org/2000/svg" width="24" height="24" viewBox="0 0 24 24" fill="none" stroke="currentColor" stroke-width="2" stroke-linecap="round" stroke-linejoin="round"><path d="M2.670 2.061 C 2.448 2.142,2.250 2.309,2.128 2.516 C 2.036 2.672,2.020 2.745,2.021 3.000 C 2.021 3.212,2.043 3.341,2.095 3.440 C 2.135 3.517,2.819 4.234,3.614 5.034 C 4.960 6.387,5.039 6.475,4.763 6.300 C 4.280 5.994,4.026 5.938,3.678 6.061 C 3.027 6.290,2.798 7.070,3.218 7.621 C 3.280 7.702,3.917 8.135,4.894 8.761 L 6.470 9.770 6.353 10.113 C 6.201 10.562,6.097 11.038,6.035 11.570 L 5.986 12.000 4.439 12.000 C 2.759 12.000,2.658 12.011,2.382 12.221 C 2.302 12.282,2.187 12.415,2.128 12.516 C 2.037 12.672,2.020 12.746,2.020 13.000 C 2.020 13.256,2.036 13.328,2.131 13.489 C 2.192 13.592,2.304 13.725,2.381 13.783 C 2.654 13.991,2.700 13.996,4.410 13.998 L 6.000 14.000 6.001 14.710 C 6.001 15.380,6.064 16.040,6.158 16.356 C 6.180 16.430,6.190 16.504,6.180 16.520 C 6.170 16.536,5.545 16.916,4.791 17.365 C 4.037 17.813,3.355 18.245,3.275 18.325 C 2.982 18.618,2.922 19.132,3.138 19.501 C 3.374 19.904,3.893 20.099,4.320 19.946 C 4.397 19.919,5.019 19.561,5.702 19.151 C 6.385 18.741,6.963 18.400,6.988 18.393 C 7.012 18.386,7.125 18.502,7.238 18.651 C 7.537 19.043,8.109 19.594,8.522 19.886 C 9.486 20.568,10.567 20.937,11.744 20.987 C 13.813 21.075,15.702 20.137,16.950 18.402 C 16.957 18.392,17.741 19.160,18.691 20.108 C 19.642 21.056,20.483 21.865,20.560 21.905 C 20.659 21.957,20.788 21.979,21.000 21.979 C 21.258 21.980,21.327 21.964,21.492 21.867 C 21.968 21.587,22.139 20.967,21.865 20.508 C 21.810 20.416,17.665 16.243,12.653 11.235 C 4.231 2.820,3.525 2.125,3.343 2.065 C 3.107 1.987,2.874 1.986,2.670 2.061 M11.343 4.061 C 10.691 4.171,10.113 4.420,9.579 4.822 C 9.203 5.105,9.021 5.317,8.937 5.570 C 8.818 5.928,8.910 6.296,9.187 6.573 C 9.581 6.968,10.134 6.974,10.581 6.588 C 10.883 6.327,11.010 6.248,11.300 6.138 C 12.511 5.683,13.820 6.482,13.981 7.777 L 14.009 8.000 13.451 8.000 C 12.648 8.000,12.367 8.109,12.128 8.516 C 12.037 8.672,12.020 8.746,12.020 9.000 C 12.020 9.256,12.036 9.328,12.131 9.489 C 12.192 9.592,12.304 9.725,12.381 9.783 C 12.648 9.987,12.721 9.996,14.130 9.998 L 15.439 10.000 15.554 10.254 C 15.870 10.950,15.963 11.415,15.996 12.460 C 16.019 13.211,16.031 13.317,16.107 13.460 C 16.219 13.669,16.377 13.816,16.600 13.917 C 16.774 13.996,16.851 13.998,18.980 13.997 C 20.715 13.997,21.212 13.985,21.330 13.943 C 21.551 13.864,21.744 13.702,21.869 13.489 C 21.964 13.328,21.980 13.256,21.980 13.000 C 21.980 12.746,21.963 12.672,21.872 12.516 C 21.813 12.415,21.698 12.282,21.618 12.221 C 21.342 12.011,21.241 12.000,19.561 12.000 L 18.014 12.000 17.965 11.570 C 17.903 11.038,17.799 10.562,17.647 10.113 L 17.530 9.770 19.106 8.761 C 20.083 8.135,20.720 7.702,20.782 7.621 C 21.028 7.299,21.061 6.839,20.862 6.499 C 20.625 6.095,20.123 5.904,19.693 6.055 C 19.607 6.086,18.862 6.542,18.038 7.068 C 17.214 7.595,16.517 8.039,16.489 8.056 C 16.462 8.072,16.343 8.065,16.225 8.041 L 16.011 7.997 15.983 7.658 C 15.968 7.471,15.919 7.180,15.875 7.009 C 15.350 5.000,13.381 3.719,11.343 4.061 M11.446 13.179 C 11.344 13.250,11.206 13.394,11.140 13.500 L 11.020 13.694 11.009 16.287 C 11.003 17.713,10.990 18.880,10.981 18.880 C 10.931 18.880,10.351 18.655,10.180 18.570 C 9.198 18.078,8.424 17.107,8.114 15.978 C 8.032 15.677,8.026 15.560,8.011 13.820 C 7.998 12.325,8.006 11.905,8.055 11.580 C 8.121 11.136,8.262 10.657,8.444 10.252 L 8.564 9.984 10.098 11.518 L 11.632 13.052 11.446 13.179 M15.480 16.944 C 15.480 17.031,15.146 17.501,14.906 17.751 C 14.466 18.210,13.881 18.589,13.319 18.780 C 13.158 18.835,13.020 18.880,13.013 18.880 C 13.006 18.880,13.000 17.877,13.000 16.650 L 13.000 14.420 14.240 15.660 C 14.922 16.342,15.480 16.919,15.480 16.944 " stroke="none" fill-rule="evenodd" fill="black"></path></svg>