<svg xmlns="http://www.w3.org/2000/svg" width="24" height="24" viewBox="0 0 24 24" fill="none" stroke="currentColor" stroke-width="2" stroke-linecap="round" stroke-linejoin="round"><path d="M6.674 2.059 C 6.440 2.145,3.311 4.255,3.208 4.397 C 2.988 4.697,3.000 4.221,3.000 12.557 C 3.000 20.964,2.986 20.459,3.225 20.930 C 3.361 21.199,3.801 21.639,4.070 21.775 C 4.497 21.991,4.589 22.000,6.500 22.000 C 8.411 22.000,8.503 21.991,8.930 21.775 C 9.196 21.640,9.638 21.200,9.771 20.937 C 9.959 20.567,10.000 20.312,10.000 19.522 C 10.000 18.673,10.054 18.365,10.265 18.014 C 10.970 16.837,12.539 16.654,13.454 17.642 C 13.900 18.123,13.998 18.466,13.999 19.542 C 14.000 20.326,14.038 20.561,14.225 20.930 C 14.361 21.199,14.801 21.639,15.070 21.775 C 15.497 21.991,15.589 22.000,17.500 22.000 C 19.411 22.000,19.503 21.991,19.930 21.775 C 20.196 21.640,20.638 21.200,20.771 20.937 C 21.014 20.458,21.000 20.975,21.000 12.549 C 21.000 4.222,21.012 4.697,20.792 4.397 C 20.682 4.246,17.551 2.141,17.312 2.057 C 17.106 1.985,16.894 1.985,16.688 2.057 C 16.449 2.141,13.318 4.246,13.208 4.397 C 12.998 4.683,13.000 4.657,13.000 7.425 L 13.000 10.000 12.000 10.000 L 11.000 10.000 11.000 7.425 C 11.000 4.657,11.002 4.683,10.792 4.397 C 10.682 4.246,7.551 2.141,7.312 2.057 C 7.113 1.987,6.868 1.988,6.674 2.059 M8.000 4.866 L 9.000 5.533 9.002 8.356 C 9.003 10.610,9.014 11.210,9.057 11.330 C 9.136 11.551,9.298 11.744,9.511 11.869 L 9.700 11.980 12.000 11.980 L 14.300 11.980 14.489 11.869 C 14.702 11.744,14.864 11.551,14.943 11.330 C 14.986 11.210,14.997 10.610,14.998 8.356 L 15.000 5.533 16.000 4.866 L 17.000 4.200 18.000 4.866 L 19.000 5.533 19.000 12.766 L 19.000 20.000 17.500 20.000 L 16.000 20.000 16.000 19.316 C 16.000 18.522,15.924 18.058,15.705 17.516 C 15.172 16.197,14.001 15.269,12.605 15.058 C 12.121 14.986,11.879 14.986,11.395 15.058 C 10.002 15.269,8.833 16.195,8.289 17.521 C 8.081 18.027,8.000 18.531,8.000 19.316 L 8.000 20.000 6.500 20.000 L 5.000 20.000 5.000 12.766 L 5.000 5.533 5.990 4.869 C 6.535 4.504,6.985 4.204,6.990 4.203 C 6.996 4.201,7.450 4.500,8.000 4.866 M6.695 6.057 C 6.466 6.129,6.256 6.299,6.128 6.516 C 6.036 6.672,6.020 6.745,6.021 7.000 C 6.022 7.332,6.101 7.533,6.306 7.728 C 6.785 8.181,7.580 8.046,7.893 7.460 C 8.025 7.211,8.015 6.760,7.872 6.516 C 7.628 6.101,7.150 5.915,6.695 6.057 M16.695 6.057 C 16.466 6.129,16.256 6.299,16.128 6.516 C 16.036 6.672,16.020 6.745,16.021 7.000 C 16.022 7.332,16.101 7.533,16.306 7.728 C 16.785 8.181,17.580 8.046,17.893 7.460 C 18.025 7.211,18.015 6.760,17.872 6.516 C 17.628 6.101,17.150 5.915,16.695 6.057 M6.695 9.057 C 6.466 9.129,6.256 9.299,6.128 9.516 C 6.036 9.672,6.020 9.745,6.021 10.000 C 6.022 10.332,6.101 10.533,6.306 10.728 C 6.785 11.181,7.580 11.046,7.893 10.460 C 8.025 10.211,8.015 9.760,7.872 9.516 C 7.628 9.101,7.150 8.915,6.695 9.057 M16.695 9.057 C 16.466 9.129,16.256 9.299,16.128 9.516 C 16.036 9.672,16.020 9.745,16.021 10.000 C 16.022 10.332,16.101 10.533,16.306 10.728 C 16.785 11.181,17.580 11.046,17.893 10.460 C 18.025 10.211,18.015 9.760,17.872 9.516 C 17.628 9.101,17.150 8.915,16.695 9.057 M6.695 12.057 C 6.466 12.129,6.256 12.299,6.128 12.516 C 6.036 12.672,6.020 12.745,6.021 13.000 C 6.022 13.332,6.101 13.533,6.306 13.728 C 6.785 14.181,7.580 14.046,7.893 13.460 C 8.025 13.211,8.015 12.760,7.872 12.516 C 7.628 12.101,7.150 11.915,6.695 12.057 M16.695 12.057 C 16.466 12.129,16.256 12.299,16.128 12.516 C 16.036 12.672,16.020 12.745,16.021 13.000 C 16.022 13.332,16.101 13.533,16.306 13.728 C 16.785 14.181,17.580 14.046,17.893 13.460 C 18.025 13.211,18.015 12.760,17.872 12.516 C 17.628 12.101,17.150 11.915,16.695 12.057 " stroke="none" fill-rule="evenodd" fill="black"></path></svg>