<svg xmlns="http://www.w3.org/2000/svg" width="24" height="24" viewBox="0 0 24 24" fill="none" stroke="currentColor" stroke-width="2" stroke-linecap="round" stroke-linejoin="round"><path d="M11.640 2.068 C 11.490 2.120,11.267 2.324,10.295 3.295 C 9.307 4.283,9.121 4.487,9.071 4.640 C 9.038 4.739,8.591 7.560,8.076 10.910 L 7.140 17.000 6.016 17.000 C 4.792 17.000,4.646 17.020,4.382 17.221 C 4.302 17.282,4.187 17.415,4.128 17.516 L 4.020 17.700 4.008 18.850 L 3.995 20.000 3.444 20.000 C 2.648 20.000,2.367 20.111,2.128 20.516 C 2.037 20.672,2.020 20.746,2.020 21.000 C 2.020 21.256,2.036 21.328,2.131 21.489 C 2.256 21.702,2.449 21.864,2.670 21.943 C 2.794 21.987,4.432 21.996,12.000 21.996 C 19.568 21.996,21.206 21.987,21.330 21.943 C 21.551 21.864,21.744 21.702,21.869 21.489 C 21.964 21.328,21.980 21.256,21.980 21.000 C 21.980 20.746,21.963 20.672,21.872 20.516 C 21.633 20.111,21.352 20.000,20.556 20.000 L 20.005 20.000 19.992 18.850 L 19.980 17.700 19.872 17.516 C 19.813 17.415,19.698 17.282,19.618 17.221 C 19.354 17.020,19.208 17.000,17.984 17.000 L 16.860 17.000 15.924 10.910 C 15.409 7.560,14.962 4.739,14.929 4.640 C 14.879 4.487,14.693 4.283,13.705 3.296 C 12.677 2.268,12.517 2.123,12.343 2.066 C 12.102 1.985,11.878 1.986,11.640 2.068 M12.544 4.970 L 13.068 5.500 13.936 11.180 C 14.414 14.304,14.814 16.892,14.825 16.930 C 14.844 16.996,14.691 17.000,12.000 17.000 C 9.309 17.000,9.156 16.996,9.175 16.930 C 9.186 16.892,9.586 14.304,10.064 11.180 L 10.932 5.500 11.456 4.970 C 11.743 4.679,11.988 4.440,12.000 4.440 C 12.012 4.440,12.257 4.679,12.544 4.970 M18.000 19.500 L 18.000 20.000 12.000 20.000 L 6.000 20.000 6.000 19.500 L 6.000 19.000 12.000 19.000 L 18.000 19.000 18.000 19.500 " stroke="none" fill-rule="evenodd" fill="black"></path></svg>