<svg xmlns="http://www.w3.org/2000/svg" width="24" height="24" viewBox="0 0 24 24" fill="none" stroke="currentColor" stroke-width="2" stroke-linecap="round" stroke-linejoin="round"><path d="M6.695 2.057 C 6.466 2.129,6.256 2.299,6.128 2.516 L 6.020 2.700 6.009 5.350 L 5.998 8.000 5.445 8.000 C 4.648 8.000,4.367 8.110,4.128 8.516 C 4.037 8.672,4.020 8.746,4.020 9.000 C 4.020 9.256,4.036 9.328,4.131 9.489 C 4.256 9.702,4.449 9.864,4.670 9.943 C 4.768 9.978,5.023 9.997,5.410 9.998 L 6.000 10.000 6.000 15.000 L 6.000 20.000 4.446 20.000 C 2.758 20.000,2.658 20.011,2.382 20.221 C 2.302 20.282,2.187 20.415,2.128 20.516 C 2.037 20.672,2.020 20.746,2.020 21.000 C 2.020 21.256,2.036 21.328,2.131 21.489 C 2.256 21.702,2.449 21.864,2.670 21.943 C 2.893 22.023,21.107 22.023,21.330 21.943 C 21.551 21.864,21.744 21.702,21.869 21.489 C 21.964 21.328,21.980 21.256,21.980 21.000 C 21.980 20.746,21.963 20.672,21.872 20.516 C 21.813 20.415,21.698 20.282,21.618 20.221 C 21.334 20.005,21.281 20.000,19.074 20.000 L 17.041 20.000 17.144 19.730 C 17.730 18.206,18.001 16.794,18.000 15.273 C 17.999 13.618,17.629 11.891,16.955 10.395 C 16.870 10.205,16.800 10.041,16.800 10.030 C 16.800 10.020,16.916 10.002,17.058 9.990 C 17.239 9.976,17.372 9.937,17.500 9.862 C 18.248 9.424,18.117 8.304,17.290 8.055 C 17.162 8.016,16.872 8.000,16.324 8.000 L 15.540 8.000 15.280 7.670 C 14.928 7.224,14.192 6.469,13.676 6.025 C 12.165 4.725,10.210 3.715,8.309 3.253 L 8.009 3.180 7.989 2.932 C 7.937 2.279,7.320 1.862,6.695 2.057 M8.552 5.405 C 9.098 5.583,9.714 5.835,10.198 6.080 C 10.982 6.476,11.993 7.175,12.564 7.716 L 12.860 7.997 10.430 7.998 L 8.000 8.000 8.000 6.620 C 8.000 5.861,8.010 5.240,8.022 5.240 C 8.034 5.240,8.272 5.314,8.552 5.405 M14.746 10.450 C 15.920 12.601,16.266 14.915,15.776 17.360 C 15.649 17.997,15.395 18.759,15.078 19.454 L 14.830 20.000 11.415 20.000 L 8.000 20.000 8.000 19.000 L 8.000 18.000 9.590 17.998 C 11.300 17.996,11.346 17.991,11.619 17.783 C 11.696 17.725,11.808 17.592,11.869 17.489 C 11.964 17.328,11.980 17.256,11.980 17.000 C 11.980 16.746,11.963 16.672,11.872 16.516 C 11.813 16.415,11.698 16.282,11.618 16.221 C 11.342 16.011,11.242 16.000,9.554 16.000 L 8.000 16.000 8.000 15.000 L 8.000 14.000 9.590 13.998 C 11.300 13.996,11.346 13.991,11.619 13.783 C 11.696 13.725,11.808 13.592,11.869 13.489 C 11.964 13.328,11.980 13.256,11.980 13.000 C 11.980 12.746,11.963 12.672,11.872 12.516 C 11.813 12.415,11.698 12.282,11.618 12.221 C 11.342 12.011,11.242 12.000,9.554 12.000 L 8.000 12.000 8.000 11.000 L 8.000 10.000 11.250 10.000 L 14.500 10.001 14.746 10.450 " stroke="none" fill-rule="evenodd" fill="black"></path></svg>