<svg xmlns="http://www.w3.org/2000/svg" width="24" height="24" viewBox="0 0 24 24" fill="none" stroke="currentColor" stroke-width="2" stroke-linecap="round" stroke-linejoin="round"><path d="M11.695 2.055 C 11.464 2.130,11.255 2.300,11.128 2.516 L 11.020 2.700 11.000 4.549 L 10.980 6.398 10.720 6.663 C 9.806 7.594,7.947 8.770,6.380 9.410 C 5.482 9.777,4.827 9.949,4.146 9.995 C 3.661 10.029,3.471 10.096,3.272 10.306 C 2.905 10.694,2.921 11.368,3.305 11.728 C 3.544 11.951,3.725 11.998,4.350 11.999 C 4.866 12.000,4.920 12.007,4.920 12.070 C 4.920 12.108,4.884 12.532,4.840 13.012 C 4.488 16.870,3.956 19.296,3.232 20.351 C 2.888 20.853,2.951 21.455,3.381 21.783 C 3.661 21.997,3.652 21.996,6.006 21.998 C 8.091 22.000,8.204 21.996,8.454 21.919 C 9.054 21.733,9.821 21.036,10.534 20.029 C 10.949 19.441,11.526 18.375,11.843 17.611 C 11.919 17.429,11.989 17.281,12.000 17.281 C 12.011 17.281,12.081 17.429,12.157 17.611 C 12.905 19.414,14.065 21.045,15.057 21.688 C 15.541 22.001,15.531 22.000,17.979 22.000 C 20.332 22.000,20.335 22.000,20.626 21.778 C 20.930 21.546,21.073 21.072,20.948 20.706 C 20.914 20.605,20.833 20.446,20.768 20.351 C 20.131 19.423,19.625 17.346,19.281 14.252 C 19.231 13.803,19.080 12.167,19.080 12.070 C 19.080 12.007,19.134 12.000,19.650 12.000 C 20.166 11.999,20.239 11.990,20.420 11.905 C 21.174 11.548,21.197 10.493,20.460 10.109 C 20.342 10.048,20.183 10.018,19.854 9.995 C 19.173 9.949,18.518 9.777,17.620 9.410 C 16.038 8.764,14.154 7.568,13.270 6.649 L 13.000 6.368 13.000 5.684 L 13.000 5.000 13.573 5.000 C 14.259 5.000,14.454 4.948,14.701 4.701 C 14.978 4.424,15.064 4.043,14.935 3.664 C 14.817 3.317,14.680 3.220,13.440 2.602 C 12.203 1.986,12.051 1.938,11.695 2.055 M12.372 8.551 C 12.901 8.997,13.169 9.197,13.806 9.623 L 14.371 10.000 12.000 10.000 L 9.629 10.000 10.204 9.616 C 10.777 9.234,11.399 8.762,11.780 8.422 C 11.890 8.323,11.985 8.242,11.992 8.242 C 11.999 8.241,12.170 8.380,12.372 8.551 M11.000 12.110 C 10.999 12.171,10.981 12.481,10.958 12.800 C 10.840 14.484,10.394 16.105,9.637 17.601 C 9.168 18.529,8.691 19.231,8.193 19.729 L 7.923 20.000 6.762 20.000 L 5.600 20.000 5.681 19.790 C 5.984 18.999,6.343 17.304,6.578 15.560 C 6.689 14.729,6.860 13.082,6.903 12.430 L 6.931 12.000 8.965 12.000 L 11.000 12.000 11.000 12.110 M17.097 12.430 C 17.267 15.039,17.771 18.158,18.257 19.609 L 18.388 20.000 17.233 20.000 L 16.077 20.000 15.807 19.729 C 15.309 19.231,14.832 18.529,14.363 17.601 C 13.606 16.105,13.160 14.484,13.042 12.800 C 13.019 12.481,13.001 12.171,13.000 12.110 L 13.000 12.000 15.035 12.000 L 17.069 12.000 17.097 12.430 " stroke="none" fill-rule="evenodd" fill="black"></path></svg>