<svg xmlns="http://www.w3.org/2000/svg" width="24" height="24" viewBox="0 0 24 24" fill="none" stroke="currentColor" stroke-width="2" stroke-linecap="round" stroke-linejoin="round"><path d="M6.358 3.061 C 4.731 3.315,3.417 4.584,3.083 6.227 C 3.001 6.627,3.000 6.720,3.000 13.310 L 3.000 19.987 2.786 20.035 C 2.515 20.096,2.270 20.275,2.129 20.514 C 2.036 20.672,2.020 20.745,2.020 21.000 C 2.020 21.256,2.036 21.328,2.131 21.489 C 2.256 21.702,2.449 21.864,2.670 21.943 C 2.893 22.023,21.107 22.023,21.330 21.943 C 21.551 21.864,21.744 21.702,21.869 21.489 C 21.964 21.328,21.980 21.256,21.980 21.000 C 21.980 20.746,21.963 20.672,21.872 20.516 C 21.633 20.110,21.352 20.000,20.554 20.000 L 20.000 20.000 20.000 18.927 L 20.000 17.853 20.330 17.688 C 21.068 17.318,21.635 16.646,21.886 15.840 C 21.978 15.547,21.980 15.503,21.980 14.000 C 21.980 12.497,21.978 12.453,21.886 12.160 C 21.580 11.180,20.822 10.418,19.861 10.125 C 19.588 10.042,19.458 10.027,19.000 10.027 C 18.542 10.027,18.412 10.042,18.139 10.125 C 17.178 10.418,16.420 11.180,16.114 12.160 C 16.022 12.453,16.020 12.497,16.020 14.000 C 16.020 15.503,16.022 15.547,16.114 15.840 C 16.365 16.646,16.932 17.318,17.670 17.688 L 18.000 17.853 18.000 18.927 L 18.000 20.000 16.500 20.000 L 15.000 20.000 15.000 13.316 C 15.000 6.805,14.998 6.622,14.921 6.243 C 14.628 4.806,13.637 3.680,12.245 3.204 C 11.709 3.020,11.378 3.000,8.960 3.004 C 7.291 3.007,6.611 3.022,6.358 3.061 M11.523 5.073 C 12.022 5.203,12.516 5.599,12.772 6.071 C 13.007 6.506,12.999 6.224,12.999 13.410 L 13.000 20.000 11.502 20.000 L 10.003 20.000 9.992 18.350 L 9.980 16.700 9.871 16.514 C 9.479 15.848,8.521 15.848,8.129 16.514 L 8.020 16.700 8.008 18.350 L 7.997 20.000 6.498 20.000 L 5.000 20.000 5.000 13.398 C 5.000 6.070,4.985 6.480,5.265 6.014 C 5.546 5.543,5.988 5.201,6.477 5.073 C 6.711 5.012,6.992 5.005,9.000 5.005 C 11.008 5.005,11.289 5.012,11.523 5.073 M7.695 8.057 C 7.466 8.129,7.256 8.299,7.128 8.516 C 7.037 8.672,7.020 8.746,7.020 9.000 C 7.020 9.256,7.036 9.328,7.131 9.489 C 7.256 9.702,7.449 9.864,7.670 9.943 C 7.885 10.020,10.115 10.020,10.330 9.943 C 10.551 9.864,10.744 9.702,10.869 9.489 C 10.964 9.328,10.980 9.256,10.980 9.000 C 10.980 8.746,10.963 8.672,10.872 8.516 C 10.740 8.293,10.533 8.128,10.290 8.055 C 10.039 7.979,7.937 7.981,7.695 8.057 M7.695 12.057 C 7.466 12.129,7.256 12.299,7.128 12.516 C 7.037 12.672,7.020 12.746,7.020 13.000 C 7.020 13.256,7.036 13.328,7.131 13.489 C 7.256 13.702,7.449 13.864,7.670 13.943 C 7.885 14.020,10.115 14.020,10.330 13.943 C 10.551 13.864,10.744 13.702,10.869 13.489 C 10.964 13.328,10.980 13.256,10.980 13.000 C 10.980 12.746,10.963 12.672,10.872 12.516 C 10.740 12.293,10.533 12.128,10.290 12.055 C 10.039 11.979,7.937 11.981,7.695 12.057 M19.310 12.061 C 19.589 12.144,19.856 12.411,19.939 12.690 C 20.023 12.972,20.028 15.015,19.945 15.290 C 19.872 15.533,19.707 15.740,19.484 15.872 C 19.328 15.963,19.254 15.980,19.000 15.980 C 18.746 15.980,18.672 15.963,18.516 15.872 C 18.415 15.813,18.284 15.700,18.225 15.623 C 18.014 15.347,18.000 15.245,18.000 14.022 C 18.000 12.695,18.019 12.587,18.304 12.303 C 18.583 12.024,18.916 11.944,19.310 12.061 " stroke="none" fill-rule="evenodd" fill="black"></path></svg>