<svg xmlns="http://www.w3.org/2000/svg" width="24" height="24" viewBox="0 0 24 24" fill="none" stroke="currentColor" stroke-width="2" stroke-linecap="round" stroke-linejoin="round"><path d="M11.700 2.054 C 11.400 2.154,4.582 5.090,4.435 5.183 C 4.261 5.293,4.140 5.454,4.059 5.682 C 3.826 6.344,4.382 7.058,5.079 6.991 C 5.212 6.978,6.266 6.546,8.634 5.531 L 12.000 4.089 15.366 5.531 C 17.734 6.546,18.788 6.978,18.921 6.991 C 19.618 7.058,20.174 6.344,19.941 5.682 C 19.860 5.453,19.739 5.293,19.564 5.183 C 19.483 5.131,17.812 4.402,15.852 3.562 C 12.053 1.935,12.055 1.936,11.700 2.054 M2.695 9.057 C 2.466 9.129,2.256 9.299,2.128 9.516 C 2.036 9.672,2.020 9.746,2.020 10.003 C 2.020 10.271,2.034 10.329,2.141 10.503 C 2.288 10.742,2.578 10.946,2.821 10.982 L 3.000 11.009 3.000 15.498 L 3.000 19.987 2.786 20.035 C 2.515 20.096,2.270 20.275,2.129 20.514 C 2.036 20.672,2.020 20.745,2.020 21.000 C 2.020 21.256,2.036 21.328,2.131 21.489 C 2.256 21.702,2.449 21.864,2.670 21.943 C 2.893 22.023,21.107 22.023,21.330 21.943 C 21.551 21.864,21.744 21.702,21.869 21.489 C 21.964 21.328,21.980 21.256,21.980 21.000 C 21.980 20.745,21.964 20.672,21.871 20.514 C 21.730 20.275,21.485 20.096,21.214 20.035 L 21.000 19.987 21.000 15.498 L 21.000 11.009 21.179 10.982 C 21.422 10.946,21.712 10.742,21.859 10.503 C 21.966 10.329,21.980 10.271,21.980 10.003 C 21.980 9.746,21.964 9.672,21.872 9.516 C 21.740 9.293,21.533 9.128,21.290 9.055 C 21.027 8.976,2.947 8.978,2.695 9.057 M19.000 15.500 L 19.000 20.000 12.000 20.000 L 5.000 20.000 5.000 15.500 L 5.000 11.000 12.000 11.000 L 19.000 11.000 19.000 15.500 M7.695 13.057 C 7.466 13.129,7.256 13.299,7.128 13.516 L 7.020 13.700 7.020 15.503 L 7.020 17.306 7.141 17.503 C 7.543 18.156,8.457 18.156,8.859 17.503 L 8.980 17.306 8.980 15.503 L 8.980 13.700 8.872 13.516 C 8.628 13.101,8.150 12.915,7.695 13.057 M11.695 13.057 C 11.466 13.129,11.256 13.299,11.128 13.516 L 11.020 13.700 11.020 15.503 L 11.020 17.306 11.141 17.503 C 11.543 18.156,12.457 18.156,12.859 17.503 L 12.980 17.306 12.980 15.503 L 12.980 13.700 12.872 13.516 C 12.628 13.101,12.150 12.915,11.695 13.057 M15.695 13.057 C 15.466 13.129,15.256 13.299,15.128 13.516 L 15.020 13.700 15.020 15.503 L 15.020 17.306 15.141 17.503 C 15.543 18.156,16.457 18.156,16.859 17.503 L 16.980 17.306 16.980 15.503 L 16.980 13.700 16.872 13.516 C 16.628 13.101,16.150 12.915,15.695 13.057 " stroke="none" fill-rule="evenodd" fill="black"></path></svg>