<svg xmlns="http://www.w3.org/2000/svg" width="24" height="24" viewBox="0 0 24 24" fill="none" stroke="currentColor" stroke-width="2" stroke-linecap="round" stroke-linejoin="round"><path d="M11.695 2.057 C 11.466 2.129,11.256 2.299,11.128 2.516 C 11.025 2.692,11.019 2.728,11.007 3.350 L 10.993 4.000 10.443 4.000 C 9.648 4.000,9.366 4.111,9.128 4.516 C 9.037 4.672,9.020 4.746,9.020 5.000 C 9.020 5.256,9.036 5.328,9.131 5.489 C 9.256 5.702,9.449 5.864,9.670 5.943 C 9.768 5.978,10.023 5.997,10.410 5.998 L 11.000 6.000 11.000 6.790 L 11.000 7.580 7.117 11.460 C 4.898 13.678,3.189 15.417,3.127 15.520 C 3.036 15.673,3.020 15.746,3.020 16.000 C 3.020 16.257,3.036 16.327,3.133 16.492 C 3.338 16.842,3.705 17.029,4.105 16.988 C 4.368 16.961,4.523 16.879,4.788 16.629 L 5.000 16.428 5.000 18.214 L 5.000 20.000 3.946 20.000 C 2.797 20.000,2.644 20.022,2.382 20.221 C 2.302 20.282,2.187 20.415,2.128 20.516 C 2.037 20.672,2.020 20.746,2.020 21.000 C 2.020 21.256,2.036 21.328,2.131 21.489 C 2.256 21.702,2.449 21.864,2.670 21.943 C 2.794 21.987,4.432 21.996,12.000 21.996 C 19.568 21.996,21.206 21.987,21.330 21.943 C 21.551 21.864,21.744 21.702,21.869 21.489 C 21.964 21.328,21.980 21.256,21.980 21.000 C 21.980 20.746,21.963 20.672,21.872 20.516 C 21.813 20.415,21.698 20.282,21.618 20.221 C 21.356 20.022,21.203 20.000,20.054 20.000 L 19.000 20.000 19.000 18.214 L 19.000 16.428 19.212 16.629 C 19.477 16.879,19.632 16.961,19.895 16.988 C 20.295 17.029,20.662 16.842,20.867 16.492 C 20.964 16.327,20.980 16.257,20.980 16.000 C 20.980 15.746,20.964 15.673,20.873 15.520 C 20.811 15.417,19.102 13.678,16.883 11.460 L 13.000 7.580 13.000 6.790 L 13.000 6.000 13.590 5.998 C 13.977 5.997,14.232 5.978,14.330 5.943 C 14.551 5.864,14.744 5.702,14.869 5.489 C 14.964 5.328,14.980 5.256,14.980 5.000 C 14.980 4.746,14.963 4.672,14.872 4.516 C 14.634 4.111,14.352 4.000,13.557 4.000 L 13.007 4.000 12.993 3.350 C 12.981 2.728,12.975 2.692,12.872 2.516 C 12.628 2.101,12.150 1.915,11.695 2.057 M14.510 11.930 L 17.000 14.420 17.000 17.210 L 17.000 20.000 16.003 20.000 L 15.005 20.000 14.991 18.210 C 14.977 16.467,14.974 16.413,14.884 16.140 C 14.562 15.162,13.811 14.415,12.861 14.125 C 12.588 14.042,12.458 14.027,12.000 14.027 C 11.542 14.027,11.412 14.042,11.139 14.125 C 10.189 14.415,9.438 15.162,9.116 16.140 C 9.026 16.413,9.023 16.467,9.009 18.210 L 8.995 20.000 7.997 20.000 L 7.000 20.000 7.000 17.210 L 7.000 14.420 9.490 11.930 C 10.859 10.561,11.989 9.440,12.000 9.440 C 12.011 9.440,13.140 10.560,14.510 11.930 M12.334 16.064 C 12.446 16.102,12.593 16.200,12.700 16.306 C 12.992 16.599,13.000 16.653,13.000 18.447 L 13.000 20.000 12.000 20.000 L 11.000 20.000 11.000 18.447 C 11.000 16.653,11.008 16.599,11.301 16.306 C 11.587 16.019,11.952 15.934,12.334 16.064 " stroke="none" fill-rule="evenodd" fill="black"></path></svg>