<svg xmlns="http://www.w3.org/2000/svg" width="24" height="24" viewBox="0 0 24 24" fill="none" stroke="currentColor" stroke-width="2" stroke-linecap="round" stroke-linejoin="round"><path d="M4.647 2.067 C 4.292 2.193,4.246 2.267,3.095 4.560 L 2.020 6.700 2.007 7.520 C 1.996 8.233,2.006 8.395,2.080 8.758 C 2.171 9.206,2.358 9.703,2.566 10.047 C 2.865 10.544,3.445 11.142,3.850 11.370 L 4.000 11.455 4.000 15.727 L 4.000 20.000 3.446 20.000 C 2.648 20.000,2.367 20.110,2.128 20.516 C 2.037 20.672,2.020 20.746,2.020 21.000 C 2.020 21.256,2.036 21.328,2.131 21.489 C 2.256 21.702,2.449 21.864,2.670 21.943 C 2.893 22.023,21.107 22.023,21.330 21.943 C 21.551 21.864,21.744 21.702,21.869 21.489 C 21.964 21.328,21.980 21.256,21.980 21.000 C 21.980 20.746,21.963 20.672,21.872 20.516 C 21.633 20.110,21.352 20.000,20.554 20.000 L 20.000 20.000 20.000 15.727 L 20.000 11.455 20.150 11.370 C 20.556 11.141,21.135 10.544,21.436 10.044 C 21.637 9.711,21.833 9.189,21.923 8.744 C 21.994 8.397,22.004 8.224,21.993 7.520 L 21.980 6.700 20.905 4.560 C 20.068 2.893,19.797 2.388,19.679 2.275 C 19.369 1.979,19.965 2.000,11.983 2.003 C 5.666 2.006,4.800 2.014,4.647 2.067 M18.870 4.980 C 19.140 5.519,19.360 5.969,19.360 5.980 C 19.360 5.991,16.048 6.000,12.000 6.000 C 7.952 6.000,4.640 5.991,4.640 5.980 C 4.640 5.969,4.860 5.519,5.130 4.980 L 5.619 4.000 12.000 4.000 L 18.381 4.000 18.870 4.980 M7.981 8.224 C 7.917 8.740,7.704 9.147,7.319 9.493 C 6.706 10.044,5.825 10.158,5.083 9.781 C 4.816 9.646,4.449 9.297,4.281 9.017 C 4.138 8.780,4.006 8.360,4.002 8.130 L 4.000 8.000 6.005 8.000 L 8.009 8.000 7.981 8.224 M13.981 8.224 C 13.917 8.740,13.704 9.147,13.319 9.493 C 12.706 10.044,11.825 10.158,11.083 9.781 C 10.816 9.646,10.449 9.297,10.281 9.017 C 10.138 8.780,10.006 8.360,10.002 8.130 L 10.000 8.000 12.005 8.000 L 14.009 8.000 13.981 8.224 M19.981 8.224 C 19.917 8.740,19.704 9.147,19.319 9.493 C 18.706 10.044,17.825 10.158,17.083 9.781 C 16.816 9.646,16.449 9.297,16.281 9.017 C 16.138 8.780,16.006 8.360,16.002 8.130 L 16.000 8.000 18.005 8.000 L 20.009 8.000 19.981 8.224 M9.123 10.783 C 9.275 10.946,9.718 11.293,9.956 11.436 C 10.512 11.771,11.341 12.000,12.000 12.000 C 12.459 12.000,13.040 11.884,13.488 11.704 C 14.005 11.495,14.351 11.271,14.810 10.845 L 15.000 10.669 15.190 10.845 C 15.649 11.271,15.995 11.495,16.512 11.704 C 16.885 11.854,17.527 12.000,17.816 12.000 L 18.000 12.000 18.000 16.000 L 18.000 20.000 17.003 20.000 L 16.005 20.000 15.991 18.210 C 15.977 16.467,15.974 16.413,15.884 16.140 C 15.558 15.151,14.781 14.387,13.822 14.112 C 13.512 14.023,13.446 14.020,12.000 14.020 C 10.554 14.020,10.488 14.023,10.178 14.112 C 9.219 14.387,8.442 15.151,8.116 16.140 C 8.026 16.413,8.023 16.467,8.009 18.210 L 7.995 20.000 6.997 20.000 L 6.000 20.000 6.000 16.000 L 6.000 12.000 6.184 12.000 C 6.663 12.000,7.560 11.728,8.044 11.436 C 8.282 11.293,8.725 10.946,8.877 10.783 C 8.930 10.727,8.986 10.680,9.000 10.680 C 9.014 10.680,9.070 10.727,9.123 10.783 M13.310 16.061 C 13.452 16.103,13.571 16.178,13.697 16.303 C 13.993 16.599,14.000 16.650,14.000 18.447 L 14.000 20.000 12.000 20.000 L 10.000 20.000 10.000 18.447 C 10.000 16.653,10.008 16.599,10.301 16.306 C 10.587 16.019,10.656 16.007,11.963 16.003 C 12.876 16.001,13.147 16.012,13.310 16.061 " stroke="none" fill-rule="evenodd" fill="black"></path></svg>