<svg xmlns="http://www.w3.org/2000/svg" width="24" height="24" viewBox="0 0 24 24" fill="none" stroke="currentColor" stroke-width="2" stroke-linecap="round" stroke-linejoin="round"><path d="M10.360 3.060 C 9.592 3.191,8.834 3.630,8.342 4.226 C 8.076 4.549,7.981 4.803,8.012 5.107 C 8.069 5.657,8.553 6.044,9.112 5.987 C 9.388 5.959,9.609 5.824,9.870 5.525 C 10.151 5.204,10.485 5.035,10.894 5.009 C 11.458 4.973,11.825 5.155,12.278 5.697 C 12.995 6.556,13.924 7.000,15.004 7.000 C 16.073 7.000,17.008 6.552,17.721 5.698 C 18.175 5.155,18.541 4.973,19.106 5.009 C 19.515 5.035,19.849 5.204,20.130 5.525 C 20.391 5.824,20.612 5.959,20.888 5.987 C 21.447 6.044,21.931 5.657,21.988 5.107 C 22.019 4.803,21.924 4.549,21.658 4.226 C 20.616 2.963,18.721 2.633,17.261 3.460 C 16.891 3.669,16.604 3.915,16.276 4.304 C 15.931 4.712,15.750 4.849,15.437 4.937 C 15.013 5.057,14.507 4.988,14.182 4.767 C 14.095 4.707,13.889 4.499,13.724 4.304 C 13.560 4.109,13.325 3.870,13.203 3.773 C 12.405 3.140,11.385 2.884,10.360 3.060 M5.695 8.057 C 5.468 8.128,5.256 8.298,5.132 8.509 C 5.018 8.704,5.028 8.617,4.958 10.160 C 4.842 12.735,4.436 15.291,3.635 18.488 C 3.482 19.098,3.330 19.687,3.297 19.798 L 3.237 20.000 3.065 20.000 C 2.669 20.000,2.318 20.193,2.128 20.516 C 2.037 20.672,2.020 20.746,2.020 21.000 C 2.020 21.256,2.036 21.328,2.131 21.489 C 2.256 21.702,2.449 21.864,2.670 21.943 C 2.893 22.023,22.107 22.023,22.330 21.943 C 22.551 21.864,22.744 21.702,22.869 21.489 C 22.964 21.328,22.980 21.256,22.980 21.000 C 22.980 20.746,22.963 20.672,22.872 20.516 C 22.761 20.327,22.571 20.158,22.373 20.071 C 22.294 20.036,21.866 20.015,20.965 20.001 L 19.670 19.980 19.514 19.580 C 19.428 19.360,19.240 18.838,19.096 18.420 C 18.442 16.518,18.131 15.102,18.038 13.600 C 17.984 12.729,17.931 12.527,17.697 12.299 C 17.387 11.998,17.406 12.000,15.158 12.000 L 13.170 12.000 13.144 11.730 C 13.086 11.121,13.043 10.416,13.019 9.660 C 12.988 8.707,12.950 8.545,12.692 8.294 C 12.378 7.989,12.511 8.000,8.983 8.003 C 6.547 8.005,5.824 8.017,5.695 8.057 M11.030 10.280 C 11.100 12.175,11.469 14.808,12.004 17.220 C 12.140 17.830,12.597 19.707,12.664 19.930 C 12.684 19.996,12.491 20.000,9.000 20.000 C 5.509 20.000,5.316 19.996,5.336 19.930 C 5.403 19.707,5.860 17.830,5.996 17.220 C 6.509 14.903,6.865 12.445,6.941 10.680 C 6.955 10.361,6.974 10.077,6.982 10.050 C 6.994 10.010,7.420 10.001,9.009 10.010 L 11.020 10.020 11.030 10.280 M16.056 14.170 C 16.272 15.925,16.522 17.013,17.119 18.800 C 17.313 19.383,17.485 19.892,17.500 19.930 C 17.527 19.996,17.447 20.000,16.149 20.000 C 14.871 20.000,14.767 19.995,14.741 19.930 C 14.680 19.772,14.111 17.483,13.944 16.720 C 13.775 15.954,13.440 14.180,13.440 14.056 C 13.440 14.009,13.656 14.000,14.738 14.000 L 16.035 14.000 16.056 14.170 " stroke="none" fill-rule="evenodd" fill="black"></path></svg>