<svg xmlns="http://www.w3.org/2000/svg" width="24" height="24" viewBox="0 0 24 24" fill="none" stroke="currentColor" stroke-width="2" stroke-linecap="round" stroke-linejoin="round"><path d="M12.700 2.056 C 12.612 2.085,10.713 3.022,8.480 4.138 C 5.216 5.771,4.392 6.199,4.275 6.321 C 3.980 6.630,4.000 6.104,4.000 13.427 L 4.000 20.000 3.446 20.000 C 2.648 20.000,2.367 20.110,2.128 20.516 C 2.037 20.672,2.020 20.746,2.020 21.000 C 2.020 21.256,2.036 21.328,2.131 21.489 C 2.256 21.702,2.449 21.864,2.670 21.943 C 2.893 22.023,21.107 22.023,21.330 21.943 C 21.551 21.864,21.744 21.702,21.869 21.489 C 21.964 21.328,21.980 21.256,21.980 21.000 C 21.980 20.746,21.963 20.672,21.872 20.516 C 21.633 20.110,21.352 20.000,20.554 20.000 L 20.000 20.000 20.000 15.425 C 20.000 10.488,20.008 10.693,19.792 10.396 C 19.735 10.318,18.613 9.544,16.850 8.368 L 14.000 6.466 14.000 4.660 C 14.000 2.611,13.998 2.596,13.701 2.299 C 13.433 2.031,13.061 1.941,12.700 2.056 M12.000 12.320 L 12.000 20.000 9.000 20.000 L 6.000 20.000 6.000 13.810 L 6.000 7.620 8.970 6.132 C 10.603 5.314,11.954 4.643,11.970 4.642 C 11.987 4.641,12.000 8.096,12.000 12.320 M8.695 8.057 C 8.466 8.129,8.256 8.299,8.128 8.516 C 8.036 8.672,8.020 8.745,8.021 9.000 C 8.022 9.332,8.101 9.533,8.306 9.728 C 8.785 10.181,9.580 10.046,9.893 9.460 C 10.025 9.211,10.015 8.760,9.872 8.516 C 9.628 8.101,9.150 7.915,8.695 8.057 M16.110 10.274 L 18.000 11.533 18.000 15.767 L 18.000 20.000 16.000 20.000 L 14.000 20.000 14.000 14.435 L 14.000 8.871 14.110 8.942 C 14.171 8.982,15.070 9.581,16.110 10.274 M8.695 11.057 C 8.466 11.129,8.256 11.299,8.128 11.516 C 8.036 11.672,8.020 11.745,8.021 12.000 C 8.022 12.332,8.101 12.533,8.306 12.728 C 8.785 13.181,9.580 13.046,9.893 12.460 C 10.025 12.211,10.015 11.760,9.872 11.516 C 9.628 11.101,9.150 10.915,8.695 11.057 M8.695 14.057 C 8.466 14.129,8.256 14.299,8.128 14.516 C 8.036 14.672,8.020 14.745,8.021 15.000 C 8.022 15.332,8.101 15.533,8.306 15.728 C 8.785 16.181,9.580 16.046,9.893 15.460 C 10.025 15.211,10.015 14.760,9.872 14.516 C 9.628 14.101,9.150 13.915,8.695 14.057 M8.695 17.057 C 8.466 17.129,8.256 17.299,8.128 17.516 C 8.036 17.672,8.020 17.745,8.021 18.000 C 8.022 18.332,8.101 18.533,8.306 18.728 C 8.785 19.181,9.580 19.046,9.893 18.460 C 10.025 18.211,10.015 17.760,9.872 17.516 C 9.628 17.101,9.150 16.915,8.695 17.057 " stroke="none" fill-rule="evenodd" fill="black"></path></svg>