<svg xmlns="http://www.w3.org/2000/svg" width="24" height="24" viewBox="0 0 24 24" fill="none" stroke="currentColor" stroke-width="2" stroke-linecap="round" stroke-linejoin="round"><path d="M2.695 4.057 C 2.466 4.129,2.256 4.299,2.128 4.516 L 2.020 4.700 2.009 11.960 C 2.002 16.903,2.012 19.285,2.041 19.423 C 2.148 19.941,2.602 20.538,3.070 20.775 C 3.509 20.997,3.545 21.000,6.000 21.000 C 8.455 21.000,8.491 20.997,8.930 20.775 C 9.196 20.640,9.638 20.200,9.771 19.937 C 9.979 19.527,10.000 19.351,10.000 18.022 C 10.000 16.632,10.030 16.406,10.265 16.014 C 10.970 14.837,12.539 14.654,13.454 15.642 C 13.944 16.170,13.998 16.411,13.999 18.042 C 14.000 19.364,14.019 19.524,14.225 19.930 C 14.361 20.199,14.801 20.639,15.070 20.775 C 15.509 20.997,15.545 21.000,18.000 21.000 C 20.455 21.000,20.491 20.997,20.930 20.775 C 21.196 20.640,21.638 20.200,21.771 19.937 C 22.015 19.456,22.002 19.940,21.990 11.973 L 21.980 4.700 21.872 4.516 C 21.740 4.293,21.533 4.128,21.290 4.055 C 21.023 3.975,16.977 3.975,16.710 4.055 C 16.467 4.128,16.260 4.293,16.128 4.516 L 16.020 4.700 16.008 5.850 L 15.995 7.000 15.500 7.000 L 15.005 7.000 14.992 5.850 L 14.980 4.700 14.872 4.516 C 14.740 4.293,14.533 4.128,14.290 4.055 C 14.023 3.975,9.977 3.975,9.710 4.055 C 9.467 4.128,9.260 4.293,9.128 4.516 L 9.020 4.700 9.008 5.850 L 8.995 7.000 8.500 7.000 L 8.005 7.000 7.992 5.850 L 7.980 4.700 7.872 4.516 C 7.740 4.293,7.533 4.128,7.290 4.055 C 7.033 3.978,2.943 3.979,2.695 4.057 M6.008 7.150 L 6.020 8.300 6.131 8.489 C 6.256 8.702,6.449 8.864,6.670 8.943 C 6.888 9.021,10.112 9.021,10.330 8.943 C 10.551 8.864,10.744 8.702,10.869 8.489 L 10.980 8.300 10.992 7.150 L 11.005 6.000 12.000 6.000 L 12.995 6.000 13.008 7.150 L 13.020 8.300 13.131 8.489 C 13.256 8.702,13.449 8.864,13.670 8.943 C 13.888 9.021,17.112 9.021,17.330 8.943 C 17.551 8.864,17.744 8.702,17.869 8.489 L 17.980 8.300 17.992 7.150 L 18.005 6.000 19.002 6.000 L 20.000 6.000 20.000 8.000 L 20.000 10.000 12.000 10.000 L 4.000 10.000 4.000 8.000 L 4.000 6.000 4.998 6.000 L 5.995 6.000 6.008 7.150 M20.000 15.500 L 20.000 19.000 18.000 19.000 L 16.000 19.000 16.000 17.816 C 16.000 16.478,15.956 16.138,15.705 15.516 C 15.172 14.197,14.001 13.269,12.605 13.058 C 12.121 12.986,11.879 12.986,11.395 13.058 C 9.735 13.309,8.421 14.566,8.083 16.227 C 8.010 16.583,8.000 16.778,8.000 17.816 L 8.000 19.000 6.000 19.000 L 4.000 19.000 4.000 15.500 L 4.000 12.000 12.000 12.000 L 20.000 12.000 20.000 15.500 " stroke="none" fill-rule="evenodd" fill="black"></path></svg>