<svg xmlns="http://www.w3.org/2000/svg" width="24" height="24" viewBox="0 0 24 24" fill="none" stroke="currentColor" stroke-width="2" stroke-linecap="round" stroke-linejoin="round"><path d="M11.499 1.043 C 10.382 1.230,9.460 2.049,9.114 3.160 C 8.979 3.594,8.979 4.406,9.114 4.840 C 9.365 5.646,9.931 6.318,10.672 6.689 C 10.986 6.846,11.003 6.862,10.992 6.974 C 10.981 7.088,10.967 7.096,10.700 7.150 C 10.334 7.223,9.771 7.417,9.420 7.590 C 7.689 8.447,6.532 9.929,6.117 11.820 C 6.039 12.177,6.028 12.370,6.011 13.610 L 5.992 15.000 5.496 15.000 L 5.000 15.000 5.000 13.461 L 5.000 11.921 5.190 11.824 C 5.450 11.691,5.734 11.388,5.868 11.100 C 5.968 10.885,5.980 10.816,5.980 10.440 C 5.980 9.823,5.902 9.582,5.314 8.395 C 4.764 7.286,4.689 7.185,4.325 7.061 C 4.100 6.985,3.948 6.984,3.697 7.059 C 3.318 7.172,3.244 7.271,2.686 8.395 C 2.098 9.582,2.020 9.823,2.020 10.440 C 2.020 10.816,2.032 10.885,2.132 11.100 C 2.266 11.388,2.550 11.691,2.810 11.824 L 3.000 11.921 3.000 15.954 L 3.000 19.987 2.786 20.035 C 2.515 20.096,2.270 20.275,2.129 20.514 C 2.036 20.672,2.020 20.745,2.020 21.000 C 2.020 21.256,2.036 21.328,2.131 21.489 C 2.256 21.702,2.449 21.864,2.670 21.943 C 2.891 22.022,10.109 22.022,10.330 21.943 C 10.551 21.864,10.744 21.702,10.869 21.489 L 10.980 21.300 11.000 20.020 C 11.023 18.582,11.025 18.571,11.321 18.283 C 11.490 18.120,11.777 18.000,12.000 18.000 C 12.223 18.000,12.510 18.120,12.679 18.283 C 12.975 18.571,12.977 18.582,13.000 20.020 L 13.020 21.300 13.131 21.489 C 13.256 21.702,13.449 21.864,13.670 21.943 C 13.891 22.022,21.109 22.022,21.330 21.943 C 21.551 21.864,21.744 21.702,21.869 21.489 C 21.964 21.328,21.980 21.256,21.980 21.000 C 21.980 20.745,21.964 20.672,21.871 20.514 C 21.730 20.275,21.485 20.096,21.214 20.035 L 21.000 19.987 21.000 15.954 L 21.000 11.921 21.190 11.824 C 21.450 11.691,21.734 11.388,21.868 11.100 C 21.968 10.885,21.980 10.816,21.980 10.440 C 21.980 9.823,21.902 9.582,21.314 8.395 C 20.764 7.286,20.689 7.185,20.325 7.061 C 20.100 6.985,19.948 6.984,19.697 7.059 C 19.318 7.172,19.244 7.271,18.686 8.395 C 18.098 9.582,18.020 9.823,18.020 10.440 C 18.020 10.816,18.032 10.885,18.132 11.100 C 18.266 11.388,18.550 11.691,18.810 11.824 L 19.000 11.921 19.000 13.461 L 19.000 15.000 18.504 15.000 L 18.008 15.000 17.989 13.610 C 17.972 12.370,17.961 12.177,17.883 11.820 C 17.467 9.924,16.315 8.449,14.580 7.590 C 14.229 7.417,13.666 7.223,13.300 7.150 C 13.033 7.096,13.019 7.088,13.008 6.974 C 12.997 6.862,13.014 6.846,13.328 6.689 C 14.070 6.318,14.639 5.641,14.885 4.840 C 14.955 4.611,14.977 4.440,14.978 4.120 C 14.980 3.733,14.971 3.686,14.871 3.514 C 14.568 2.998,13.883 2.854,13.405 3.205 C 13.169 3.379,13.047 3.609,13.002 3.966 C 12.981 4.130,12.945 4.314,12.922 4.375 C 12.851 4.561,12.677 4.758,12.484 4.872 C 12.328 4.964,12.254 4.980,11.997 4.980 C 11.729 4.980,11.671 4.966,11.502 4.860 C 11.002 4.547,10.858 3.905,11.183 3.436 C 11.378 3.154,11.609 3.047,12.169 2.979 C 12.421 2.948,12.706 2.752,12.859 2.503 C 12.966 2.329,12.980 2.271,12.980 2.003 C 12.980 1.746,12.964 1.672,12.872 1.516 C 12.617 1.082,12.174 0.930,11.499 1.043 M12.605 9.058 C 14.062 9.278,15.287 10.302,15.780 11.712 L 15.874 11.980 13.937 11.990 C 12.872 11.996,11.128 11.996,10.063 11.990 L 8.126 11.980 8.220 11.712 C 8.707 10.320,9.934 9.283,11.358 9.061 C 11.816 8.990,12.144 8.989,12.605 9.058 M16.002 15.090 C 16.004 16.262,16.017 16.357,16.217 16.619 C 16.275 16.696,16.408 16.808,16.511 16.869 L 16.700 16.980 17.850 16.992 L 19.000 17.005 19.000 18.502 L 19.000 20.000 17.005 20.000 L 15.009 20.000 14.990 19.210 C 14.974 18.536,14.958 18.379,14.882 18.140 C 14.572 17.172,13.813 16.415,12.861 16.125 C 12.588 16.042,12.458 16.027,12.000 16.027 C 11.542 16.027,11.412 16.042,11.139 16.125 C 10.187 16.415,9.428 17.172,9.118 18.140 C 9.042 18.379,9.026 18.536,9.010 19.210 L 8.991 20.000 6.995 20.000 L 5.000 20.000 5.000 18.502 L 5.000 17.005 6.150 16.992 L 7.300 16.980 7.489 16.869 C 7.592 16.808,7.725 16.696,7.783 16.619 C 7.983 16.357,7.996 16.262,7.998 15.090 L 8.000 14.000 12.000 14.000 L 16.000 14.000 16.002 15.090 " stroke="none" fill-rule="evenodd" fill="black"></path></svg>