<svg xmlns="http://www.w3.org/2000/svg" width="24" height="24" viewBox="0 0 24 24" fill="none" stroke="currentColor" stroke-width="2" stroke-linecap="round" stroke-linejoin="round"><path d="M5.695 4.057 C 5.466 4.129,5.256 4.299,5.128 4.516 C 5.032 4.681,5.019 4.748,5.006 5.151 L 4.991 5.603 4.725 5.841 C 4.194 6.316,3.474 6.750,2.760 7.024 C 2.138 7.263,1.872 7.769,2.066 8.340 C 2.203 8.741,2.654 9.032,3.074 8.991 C 3.324 8.966,4.032 8.679,4.545 8.393 C 4.776 8.265,4.973 8.160,4.982 8.160 C 4.992 8.160,5.000 9.474,5.000 11.080 L 5.000 14.000 3.446 14.000 C 1.758 14.000,1.658 14.011,1.382 14.221 C 1.302 14.282,1.187 14.415,1.128 14.516 C 1.037 14.672,1.020 14.746,1.020 15.000 C 1.020 15.256,1.036 15.328,1.131 15.489 C 1.192 15.592,1.304 15.725,1.381 15.783 C 1.654 15.991,1.700 15.996,3.408 15.998 L 4.997 16.000 5.008 17.653 L 5.020 19.306 5.141 19.503 C 5.543 20.156,6.457 20.156,6.859 19.503 L 6.980 19.306 6.992 17.653 L 7.003 16.000 12.000 16.000 L 16.997 16.000 17.008 17.653 L 17.020 19.306 17.141 19.503 C 17.543 20.156,18.457 20.156,18.859 19.503 L 18.980 19.306 18.992 17.653 L 19.003 16.000 20.592 15.998 C 22.300 15.996,22.346 15.991,22.619 15.783 C 22.696 15.725,22.808 15.592,22.869 15.489 C 22.964 15.328,22.980 15.256,22.980 15.000 C 22.980 14.746,22.963 14.672,22.872 14.516 C 22.813 14.415,22.698 14.282,22.618 14.221 C 22.342 14.011,22.242 14.000,20.554 14.000 L 19.000 14.000 19.000 11.080 C 19.000 9.474,19.008 8.160,19.018 8.160 C 19.027 8.160,19.224 8.265,19.455 8.393 C 19.968 8.679,20.676 8.966,20.926 8.991 C 21.346 9.032,21.797 8.741,21.934 8.340 C 22.128 7.769,21.862 7.263,21.240 7.024 C 20.526 6.750,19.806 6.316,19.275 5.841 L 19.009 5.603 18.994 5.151 C 18.981 4.746,18.969 4.681,18.870 4.514 C 18.479 3.848,17.521 3.848,17.129 4.514 C 17.027 4.688,17.019 4.738,17.000 5.282 L 16.980 5.865 16.785 6.202 C 16.512 6.677,16.225 7.049,15.850 7.415 C 15.099 8.149,14.225 8.627,13.189 8.870 C 12.794 8.963,12.654 8.976,12.020 8.977 C 11.252 8.978,10.955 8.936,10.300 8.732 C 9.054 8.343,7.851 7.351,7.193 6.171 L 7.020 5.860 7.000 5.280 C 6.981 4.741,6.972 4.687,6.872 4.516 C 6.628 4.101,6.150 3.915,5.695 4.057 M7.320 9.355 C 7.828 9.769,8.633 10.235,9.281 10.492 C 9.644 10.636,10.321 10.825,10.690 10.885 L 11.000 10.936 11.000 12.468 L 11.000 14.000 9.000 14.000 L 7.000 14.000 7.000 11.558 C 7.000 9.614,7.010 9.122,7.050 9.146 C 7.078 9.163,7.199 9.257,7.320 9.355 M17.000 11.560 L 17.000 14.000 15.000 14.000 L 13.000 14.000 13.000 12.468 L 13.000 10.936 13.310 10.885 C 14.465 10.696,15.741 10.113,16.717 9.327 C 16.858 9.213,16.979 9.120,16.987 9.120 C 16.994 9.120,17.000 10.218,17.000 11.560 " stroke="none" fill-rule="evenodd" fill="black"></path></svg>