<svg xmlns="http://www.w3.org/2000/svg" width="24" height="24" viewBox="0 0 24 24" fill="none" stroke="currentColor" stroke-width="2" stroke-linecap="round" stroke-linejoin="round"><path d="M6.499 2.043 C 5.390 2.231,4.488 3.024,4.114 4.140 L 4.020 4.420 4.009 12.210 L 3.999 20.000 3.446 20.000 C 2.648 20.000,2.367 20.110,2.128 20.516 C 2.037 20.672,2.020 20.746,2.020 21.000 C 2.020 21.256,2.036 21.328,2.131 21.489 C 2.256 21.702,2.449 21.864,2.670 21.943 C 2.893 22.023,21.107 22.023,21.330 21.943 C 21.551 21.864,21.744 21.702,21.869 21.489 C 21.964 21.328,21.980 21.256,21.980 21.000 C 21.980 20.746,21.963 20.672,21.872 20.516 C 21.633 20.110,21.352 20.000,20.554 20.000 L 20.001 20.000 19.991 12.210 L 19.980 4.420 19.886 4.140 C 19.556 3.158,18.821 2.425,17.861 2.121 L 17.540 2.020 12.120 2.014 C 9.139 2.011,6.609 2.024,6.499 2.043 M17.310 4.061 C 17.589 4.144,17.856 4.411,17.939 4.690 C 17.993 4.870,18.000 5.802,18.000 12.447 L 18.000 20.000 17.003 20.000 L 16.005 20.000 15.991 18.210 C 15.977 16.467,15.974 16.413,15.884 16.140 C 15.558 15.151,14.781 14.387,13.822 14.112 C 13.512 14.023,13.446 14.020,12.000 14.020 C 10.554 14.020,10.488 14.023,10.178 14.112 C 9.219 14.387,8.442 15.151,8.116 16.140 C 8.026 16.413,8.023 16.467,8.009 18.210 L 7.995 20.000 6.997 20.000 L 6.000 20.000 6.000 12.447 C 6.000 3.955,5.975 4.632,6.304 4.303 C 6.621 3.985,6.234 4.006,11.983 4.003 C 16.458 4.000,17.131 4.008,17.310 4.061 M11.695 6.057 C 11.466 6.129,11.256 6.299,11.128 6.516 C 11.025 6.692,11.019 6.728,11.007 7.350 L 10.993 8.000 10.443 8.000 C 9.648 8.000,9.366 8.111,9.128 8.516 C 9.037 8.672,9.020 8.746,9.020 9.000 C 9.020 9.256,9.036 9.328,9.131 9.489 C 9.256 9.702,9.449 9.864,9.670 9.943 C 9.768 9.978,10.022 9.997,10.407 9.998 L 10.993 10.000 11.007 10.653 C 11.020 11.300,11.021 11.308,11.141 11.503 C 11.209 11.613,11.346 11.756,11.452 11.828 C 11.923 12.144,12.554 11.999,12.859 11.503 C 12.979 11.308,12.980 11.300,12.993 10.653 L 13.007 10.000 13.593 9.998 C 13.978 9.997,14.232 9.978,14.330 9.943 C 14.551 9.864,14.744 9.702,14.869 9.489 C 14.964 9.328,14.980 9.256,14.980 9.000 C 14.980 8.746,14.963 8.672,14.872 8.516 C 14.634 8.111,14.352 8.000,13.557 8.000 L 13.007 8.000 12.993 7.350 C 12.981 6.728,12.975 6.692,12.872 6.516 C 12.628 6.101,12.150 5.915,11.695 6.057 M13.310 16.061 C 13.452 16.103,13.571 16.178,13.697 16.303 C 13.993 16.599,14.000 16.650,14.000 18.447 L 14.000 20.000 12.000 20.000 L 10.000 20.000 10.000 18.447 C 10.000 16.653,10.008 16.599,10.301 16.306 C 10.587 16.019,10.656 16.007,11.963 16.003 C 12.876 16.001,13.147 16.012,13.310 16.061 " stroke="none" fill-rule="evenodd" fill="black"></path></svg>