<svg xmlns="http://www.w3.org/2000/svg" width="24" height="24" viewBox="0 0 24 24" fill="none" stroke="currentColor" stroke-width="2" stroke-linecap="round" stroke-linejoin="round"><path d="M11.490 1.061 C 11.130 1.139,10.757 1.337,10.464 1.605 C 10.167 1.877,9.993 2.133,9.878 2.463 C 9.829 2.605,9.643 3.724,9.413 5.260 C 9.064 7.586,9.027 7.887,9.010 8.546 L 8.991 9.273 8.466 9.578 C 8.088 9.797,7.354 10.328,5.863 11.460 C 4.721 12.327,3.700 13.122,3.594 13.226 C 3.107 13.706,2.884 14.558,3.063 15.254 C 3.222 15.869,3.713 16.491,4.240 16.746 C 4.746 16.991,5.298 17.061,5.754 16.940 C 5.878 16.907,6.826 16.567,7.860 16.184 C 8.894 15.801,9.745 15.502,9.752 15.520 C 9.764 15.551,9.181 19.720,9.139 19.910 L 9.118 20.000 8.006 20.000 C 6.793 20.000,6.646 20.020,6.382 20.221 C 6.302 20.282,6.187 20.415,6.128 20.516 C 6.037 20.672,6.020 20.746,6.020 21.000 C 6.020 21.256,6.036 21.328,6.131 21.489 C 6.256 21.702,6.449 21.864,6.670 21.943 C 6.892 22.022,17.108 22.022,17.330 21.943 C 17.551 21.864,17.744 21.702,17.869 21.489 C 17.964 21.328,17.980 21.256,17.980 21.000 C 17.980 20.746,17.963 20.672,17.872 20.516 C 17.813 20.415,17.698 20.282,17.618 20.221 C 17.354 20.020,17.207 20.000,15.994 20.000 L 14.882 20.000 14.861 19.910 C 14.819 19.720,14.236 15.551,14.248 15.520 C 14.255 15.502,15.128 15.808,16.190 16.199 C 17.251 16.590,18.200 16.931,18.298 16.955 C 18.909 17.109,19.717 16.884,20.235 16.415 C 20.691 16.002,20.957 15.454,20.989 14.860 C 21.022 14.242,20.842 13.705,20.463 13.290 C 20.355 13.171,19.347 12.377,18.223 11.525 C 15.953 9.803,15.982 9.824,15.414 9.505 L 15.009 9.276 14.990 8.548 C 14.973 7.886,14.937 7.588,14.587 5.260 C 14.357 3.724,14.171 2.605,14.122 2.463 C 14.007 2.133,13.833 1.877,13.536 1.605 C 12.982 1.098,12.235 0.899,11.490 1.061 M12.175 3.074 C 12.225 3.130,12.328 3.732,12.601 5.563 C 12.798 6.891,12.960 8.017,12.960 8.065 C 12.960 8.152,12.959 8.152,12.730 8.088 C 12.575 8.045,12.336 8.024,12.000 8.024 C 11.664 8.024,11.425 8.045,11.270 8.088 L 11.040 8.152 11.040 8.062 C 11.040 8.012,11.202 6.886,11.399 5.560 C 11.672 3.728,11.774 3.131,11.825 3.074 C 11.911 2.979,12.089 2.979,12.175 3.074 M12.256 10.044 C 12.771 10.187,13.080 10.697,12.965 11.213 C 12.897 11.518,12.726 11.731,12.432 11.878 C 12.099 12.044,11.887 12.042,11.559 11.870 C 11.133 11.647,10.938 11.257,11.031 10.813 C 11.152 10.236,11.703 9.890,12.256 10.044 M9.120 11.849 C 9.271 12.347,9.509 12.743,9.878 13.112 C 9.950 13.184,10.003 13.249,9.995 13.257 C 9.957 13.290,5.280 15.000,5.226 15.000 C 5.151 15.000,5.000 14.813,5.000 14.721 C 5.000 14.683,5.038 14.618,5.084 14.576 C 5.145 14.520,8.990 11.582,9.026 11.563 C 9.029 11.561,9.072 11.690,9.120 11.849 M17.889 13.775 C 18.595 14.306,18.967 14.612,18.984 14.673 C 19.014 14.778,18.895 14.971,18.789 14.992 C 18.739 15.002,14.061 13.305,14.005 13.256 C 13.997 13.249,14.050 13.184,14.122 13.112 C 14.491 12.743,14.729 12.347,14.880 11.850 L 14.967 11.563 15.893 12.267 C 16.403 12.654,17.301 13.332,17.889 13.775 M12.059 14.530 C 12.070 14.580,12.242 15.772,12.441 17.180 C 12.640 18.588,12.813 19.799,12.826 19.870 L 12.849 20.000 12.000 20.000 L 11.151 20.000 11.174 19.870 C 11.187 19.799,11.360 18.588,11.559 17.180 C 11.957 14.367,11.945 14.440,12.000 14.440 C 12.021 14.440,12.048 14.480,12.059 14.530 " stroke="none" fill-rule="evenodd" fill="black"></path></svg>