<svg xmlns="http://www.w3.org/2000/svg" width="24" height="24" viewBox="0 0 24 24" fill="none" stroke="currentColor" stroke-width="2" stroke-linecap="round" stroke-linejoin="round"><path d="M11.540 2.026 C 9.702 2.107,7.788 2.758,6.280 3.816 C 4.685 4.935,3.452 6.471,2.756 8.208 C 1.779 10.644,1.753 13.212,2.681 15.614 C 2.813 15.956,2.875 16.062,3.018 16.194 C 3.366 16.514,3.860 16.553,4.250 16.291 C 4.656 16.019,4.777 15.545,4.579 15.000 C 4.033 13.494,3.887 12.205,4.102 10.800 C 4.635 7.315,7.366 4.607,10.865 4.096 C 11.384 4.020,12.511 4.010,13.000 4.077 C 15.481 4.416,17.607 5.808,18.868 7.920 C 19.876 9.609,20.220 11.601,19.839 13.555 C 19.758 13.971,19.643 14.372,19.441 14.940 C 19.276 15.403,19.282 15.692,19.463 15.985 C 19.799 16.529,20.512 16.627,20.982 16.194 C 21.125 16.062,21.187 15.956,21.319 15.614 C 22.244 13.218,22.218 10.637,21.244 8.208 C 20.665 6.763,19.675 5.403,18.470 4.393 C 16.523 2.763,14.045 1.916,11.540 2.026 M11.320 6.042 C 10.054 6.200,9.039 6.652,8.038 7.505 C 6.817 8.546,6.083 10.088,6.012 11.763 C 5.977 12.598,6.076 13.242,6.364 14.047 C 6.512 14.462,6.694 14.693,6.978 14.825 C 7.590 15.110,8.270 14.719,8.382 14.017 C 8.402 13.893,8.375 13.759,8.262 13.419 C 7.895 12.312,7.923 11.359,8.350 10.380 C 8.836 9.266,9.858 8.413,11.067 8.112 C 11.568 7.988,12.431 7.987,12.931 8.112 C 14.144 8.413,15.195 9.292,15.660 10.394 C 16.079 11.387,16.102 12.327,15.734 13.436 C 15.594 13.860,15.589 13.889,15.636 14.097 C 15.820 14.918,16.778 15.195,17.351 14.592 C 17.498 14.437,17.678 14.002,17.819 13.459 C 18.141 12.222,18.028 10.847,17.505 9.605 C 16.756 7.831,14.982 6.426,13.080 6.102 C 12.613 6.022,11.723 5.992,11.320 6.042 M11.477 10.073 C 10.978 10.204,10.449 10.628,10.218 11.084 C 9.889 11.733,9.940 12.534,10.349 13.128 L 10.493 13.338 9.247 17.080 C 8.436 19.516,8.000 20.879,8.000 20.984 C 8.000 21.739,8.793 22.221,9.465 21.876 C 9.770 21.719,9.865 21.560,10.141 20.752 L 10.390 20.020 12.000 20.020 L 13.610 20.020 13.859 20.752 C 14.135 21.560,14.230 21.719,14.535 21.876 C 15.207 22.221,16.000 21.739,16.000 20.984 C 16.000 20.879,15.564 19.514,14.752 17.076 L 13.504 13.329 13.606 13.194 C 13.954 12.737,14.078 12.118,13.940 11.529 C 13.858 11.182,13.720 10.927,13.465 10.653 C 13.074 10.232,12.560 10.005,12.000 10.005 C 11.857 10.005,11.622 10.036,11.477 10.073 M12.470 16.591 C 12.718 17.333,12.920 17.954,12.920 17.971 C 12.920 17.987,12.506 18.000,12.000 18.000 C 11.494 18.000,11.080 17.987,11.080 17.971 C 11.080 17.911,11.980 15.240,12.000 15.240 C 12.011 15.240,12.223 15.848,12.470 16.591 " stroke="none" fill-rule="evenodd" fill="black"></path></svg>