<svg xmlns="http://www.w3.org/2000/svg" width="24" height="24" viewBox="0 0 24 24" fill="none" stroke="currentColor" stroke-width="2" stroke-linecap="round" stroke-linejoin="round"><path d="M9.477 2.073 C 8.806 2.249,8.238 2.823,8.060 3.508 C 8.010 3.697,8.000 4.107,8.000 5.859 L 8.000 7.981 7.792 8.030 C 7.678 8.058,7.521 8.124,7.442 8.179 C 7.364 8.233,6.137 9.444,4.715 10.869 C 2.329 13.261,2.125 13.476,2.064 13.663 C 2.005 13.846,1.999 14.226,2.009 17.583 L 2.020 21.300 2.131 21.489 C 2.256 21.702,2.449 21.864,2.670 21.943 C 2.893 22.023,21.107 22.023,21.330 21.943 C 21.551 21.864,21.744 21.702,21.869 21.489 L 21.980 21.300 21.990 12.548 C 22.002 3.015,22.013 3.540,21.782 3.083 C 21.646 2.816,21.297 2.449,21.017 2.281 C 20.533 1.989,20.867 2.005,15.000 2.005 C 10.157 2.005,9.719 2.010,9.477 2.073 M20.000 12.000 L 20.000 20.000 17.000 20.000 L 14.000 20.000 14.000 16.927 C 14.000 14.188,13.993 13.833,13.935 13.657 C 13.876 13.480,13.674 13.264,11.935 11.519 L 10.000 9.577 10.000 6.789 L 10.000 4.000 15.000 4.000 L 20.000 4.000 20.000 12.000 M12.695 6.057 C 12.466 6.129,12.256 6.299,12.128 6.516 C 12.036 6.672,12.020 6.745,12.021 7.000 C 12.022 7.332,12.101 7.533,12.306 7.728 C 12.785 8.181,13.580 8.046,13.893 7.460 C 14.025 7.211,14.015 6.760,13.872 6.516 C 13.628 6.101,13.150 5.915,12.695 6.057 M16.695 6.057 C 16.466 6.129,16.256 6.299,16.128 6.516 C 16.036 6.672,16.020 6.745,16.021 7.000 C 16.022 7.332,16.101 7.533,16.306 7.728 C 16.785 8.181,17.580 8.046,17.893 7.460 C 18.025 7.211,18.015 6.760,17.872 6.516 C 17.628 6.101,17.150 5.915,16.695 6.057 M16.695 10.057 C 16.466 10.129,16.256 10.299,16.128 10.516 C 16.036 10.672,16.020 10.745,16.021 11.000 C 16.022 11.332,16.101 11.533,16.306 11.728 C 16.785 12.181,17.580 12.046,17.893 11.460 C 18.025 11.211,18.015 10.760,17.872 10.516 C 17.628 10.101,17.150 9.915,16.695 10.057 M10.010 12.430 L 12.000 14.420 12.000 17.210 L 12.000 20.000 10.502 20.000 L 9.003 20.000 8.992 18.350 L 8.980 16.700 8.871 16.514 C 8.479 15.848,7.521 15.848,7.129 16.514 L 7.020 16.700 7.008 18.350 L 6.997 20.000 5.498 20.000 L 4.000 20.000 4.000 17.210 L 4.000 14.420 5.990 12.430 C 7.084 11.336,7.989 10.440,8.000 10.440 C 8.011 10.440,8.915 11.335,10.010 12.430 M16.695 14.057 C 16.466 14.129,16.256 14.299,16.128 14.516 C 16.036 14.672,16.020 14.745,16.021 15.000 C 16.022 15.332,16.101 15.533,16.306 15.728 C 16.785 16.181,17.580 16.046,17.893 15.460 C 18.025 15.211,18.015 14.760,17.872 14.516 C 17.628 14.101,17.150 13.915,16.695 14.057 " stroke="none" fill-rule="evenodd" fill="black"></path></svg>