<svg xmlns="http://www.w3.org/2000/svg" width="24" height="24" viewBox="0 0 24 24" fill="none" stroke="currentColor" stroke-width="2" stroke-linecap="round" stroke-linejoin="round"><path d="M11.695 2.057 C 11.466 2.129,11.256 2.299,11.128 2.516 C 11.020 2.699,11.020 2.703,11.020 3.503 L 11.020 4.306 11.141 4.503 C 11.543 5.156,12.457 5.156,12.859 4.503 L 12.980 4.306 12.980 3.503 C 12.980 2.703,12.980 2.699,12.872 2.516 C 12.628 2.101,12.150 1.915,11.695 2.057 M5.270 4.661 C 5.048 4.742,4.850 4.909,4.728 5.116 C 4.636 5.272,4.620 5.345,4.621 5.600 C 4.622 5.990,4.671 6.078,5.175 6.594 C 5.661 7.091,5.842 7.222,6.103 7.269 C 6.816 7.395,7.393 6.820,7.270 6.105 C 7.224 5.840,7.089 5.656,6.571 5.156 C 6.233 4.830,6.087 4.716,5.939 4.666 C 5.708 4.587,5.475 4.586,5.270 4.661 M18.045 4.668 C 17.854 4.736,17.082 5.446,16.880 5.740 C 16.379 6.470,17.011 7.422,17.895 7.270 C 18.154 7.225,18.339 7.091,18.825 6.594 C 19.329 6.078,19.378 5.990,19.379 5.600 C 19.380 5.345,19.364 5.272,19.272 5.116 C 19.018 4.684,18.517 4.501,18.045 4.668 M11.440 6.024 C 10.367 6.152,9.460 6.482,8.640 7.043 C 7.302 7.957,6.475 9.199,6.109 10.840 C 6.005 11.309,5.985 12.522,6.075 12.980 C 6.362 14.449,7.024 15.628,8.062 16.520 C 8.421 16.827,8.606 17.053,8.772 17.382 C 8.978 17.792,9.014 18.002,9.021 18.820 C 9.027 19.488,9.038 19.614,9.118 19.860 C 9.432 20.837,10.183 21.582,11.160 21.886 C 11.594 22.021,12.406 22.021,12.840 21.886 C 13.817 21.582,14.568 20.837,14.882 19.860 C 14.962 19.614,14.973 19.488,14.979 18.820 C 14.986 17.969,15.021 17.787,15.271 17.300 C 15.379 17.090,15.500 16.940,15.757 16.700 C 17.012 15.526,17.528 14.679,17.869 13.238 C 17.968 12.821,17.977 12.711,17.976 12.000 C 17.975 11.139,17.925 10.816,17.678 10.080 C 17.003 8.061,15.266 6.537,13.164 6.117 C 12.793 6.042,11.753 5.986,11.440 6.024 M13.005 8.134 C 13.848 8.350,14.643 8.876,15.174 9.570 C 16.020 10.677,16.226 12.158,15.714 13.457 C 15.476 14.062,15.084 14.625,14.650 14.987 C 14.352 15.236,13.985 15.615,13.835 15.830 L 13.716 16.000 12.000 16.000 L 10.284 16.000 10.165 15.830 C 10.015 15.616,9.660 15.249,9.307 14.945 C 8.175 13.969,7.719 12.241,8.202 10.760 C 8.670 9.325,9.909 8.280,11.423 8.041 C 11.820 7.979,12.570 8.023,13.005 8.134 M2.695 11.057 C 2.466 11.129,2.256 11.299,2.128 11.516 C 2.037 11.672,2.020 11.746,2.020 12.000 C 2.020 12.256,2.036 12.328,2.131 12.489 C 2.256 12.702,2.449 12.864,2.670 12.943 C 2.878 13.017,4.122 13.017,4.330 12.943 C 4.551 12.864,4.744 12.702,4.869 12.489 C 4.964 12.328,4.980 12.256,4.980 12.000 C 4.980 11.746,4.963 11.672,4.872 11.516 C 4.740 11.293,4.533 11.128,4.290 11.055 C 4.050 10.983,2.928 10.984,2.695 11.057 M19.695 11.057 C 19.466 11.129,19.256 11.299,19.128 11.516 C 19.037 11.672,19.020 11.746,19.020 12.000 C 19.020 12.256,19.036 12.328,19.131 12.489 C 19.256 12.702,19.449 12.864,19.670 12.943 C 19.878 13.017,21.122 13.017,21.330 12.943 C 21.551 12.864,21.744 12.702,21.869 12.489 C 21.964 12.328,21.980 12.256,21.980 12.000 C 21.980 11.746,21.963 11.672,21.872 11.516 C 21.740 11.293,21.533 11.128,21.290 11.055 C 21.050 10.983,19.928 10.984,19.695 11.057 M12.977 18.630 C 12.975 19.015,12.956 19.304,12.927 19.373 C 12.846 19.567,12.675 19.760,12.484 19.872 C 12.328 19.963,12.254 19.980,12.000 19.980 C 11.746 19.980,11.672 19.963,11.516 19.872 C 11.326 19.760,11.155 19.568,11.073 19.373 C 11.043 19.303,11.024 19.021,11.023 18.630 L 11.020 18.000 12.000 18.000 L 12.980 18.000 12.977 18.630 " stroke="none" fill-rule="evenodd" fill="black"></path></svg>