<svg xmlns="http://www.w3.org/2000/svg" width="24" height="24" viewBox="0 0 24 24" fill="none" stroke="currentColor" stroke-width="2" stroke-linecap="round" stroke-linejoin="round"><path d="M2.670 2.061 C 2.448 2.142,2.250 2.309,2.128 2.516 C 2.037 2.672,2.020 2.746,2.020 3.000 C 2.020 3.254,2.036 3.327,2.127 3.480 C 2.187 3.580,3.316 4.740,4.672 6.094 L 7.109 8.529 6.970 8.734 C 6.616 9.260,6.247 10.179,6.103 10.895 C 6.010 11.356,5.980 12.154,6.037 12.623 C 6.216 14.092,6.807 15.302,7.823 16.280 C 8.466 16.898,8.588 17.036,8.729 17.305 C 8.978 17.781,9.014 17.967,9.021 18.820 C 9.027 19.488,9.038 19.614,9.118 19.860 C 9.432 20.837,10.183 21.582,11.160 21.886 C 11.594 22.021,12.406 22.021,12.840 21.886 C 13.817 21.582,14.568 20.837,14.882 19.860 C 14.962 19.614,14.973 19.488,14.979 18.820 C 14.984 18.224,15.000 18.009,15.056 17.822 C 15.127 17.583,15.293 17.233,15.430 17.032 L 15.503 16.923 17.922 19.344 C 19.267 20.691,20.420 21.813,20.520 21.873 C 20.673 21.964,20.746 21.980,21.000 21.980 C 21.257 21.980,21.327 21.964,21.492 21.867 C 21.968 21.587,22.139 20.967,21.865 20.508 C 21.810 20.416,17.665 16.243,12.653 11.235 C 4.231 2.820,3.525 2.125,3.343 2.065 C 3.107 1.987,2.874 1.986,2.670 2.061 M11.695 2.057 C 11.466 2.129,11.256 2.299,11.128 2.516 C 11.020 2.699,11.020 2.703,11.020 3.503 L 11.020 4.306 11.141 4.503 C 11.543 5.156,12.457 5.156,12.859 4.503 L 12.980 4.306 12.980 3.503 C 12.980 2.703,12.980 2.699,12.872 2.516 C 12.628 2.101,12.150 1.915,11.695 2.057 M18.045 4.668 C 17.854 4.736,17.082 5.446,16.880 5.740 C 16.379 6.470,17.011 7.422,17.895 7.270 C 18.154 7.225,18.339 7.091,18.825 6.594 C 19.329 6.078,19.378 5.990,19.379 5.600 C 19.380 5.345,19.364 5.272,19.272 5.116 C 19.018 4.684,18.517 4.501,18.045 4.668 M11.480 6.025 C 10.785 6.110,10.600 6.171,10.385 6.385 C 10.006 6.765,9.993 7.377,10.358 7.753 C 10.628 8.031,10.719 8.063,11.200 8.043 C 11.940 8.012,12.533 8.025,12.780 8.078 C 14.001 8.337,15.019 9.119,15.569 10.220 C 15.943 10.969,16.044 11.645,15.945 12.722 C 15.912 13.072,15.917 13.121,15.997 13.302 C 16.180 13.715,16.462 13.898,16.920 13.898 C 17.266 13.898,17.401 13.842,17.640 13.596 C 17.826 13.403,17.899 13.193,17.963 12.664 C 18.096 11.569,17.876 10.352,17.357 9.304 C 16.543 7.660,14.944 6.464,13.072 6.099 C 12.749 6.036,11.762 5.990,11.480 6.025 M11.339 12.759 L 14.097 15.518 13.995 15.629 C 13.939 15.690,13.853 15.798,13.804 15.870 L 13.715 16.000 11.999 16.000 L 10.284 16.000 10.163 15.830 C 9.983 15.576,9.696 15.277,9.366 14.998 C 8.904 14.608,8.474 13.977,8.241 13.350 C 7.954 12.579,7.934 11.628,8.186 10.829 C 8.290 10.497,8.513 10.000,8.556 10.000 C 8.570 10.000,9.822 11.241,11.339 12.759 M2.695 11.057 C 2.466 11.129,2.256 11.299,2.128 11.516 C 2.037 11.672,2.020 11.746,2.020 12.000 C 2.020 12.256,2.036 12.328,2.131 12.489 C 2.256 12.702,2.449 12.864,2.670 12.943 C 2.878 13.017,4.122 13.017,4.330 12.943 C 4.551 12.864,4.744 12.702,4.869 12.489 C 4.964 12.328,4.980 12.256,4.980 12.000 C 4.980 11.746,4.963 11.672,4.872 11.516 C 4.740 11.293,4.533 11.128,4.290 11.055 C 4.050 10.983,2.928 10.984,2.695 11.057 M19.695 11.057 C 19.466 11.129,19.256 11.299,19.128 11.516 C 19.037 11.672,19.020 11.746,19.020 12.000 C 19.020 12.256,19.036 12.328,19.131 12.489 C 19.256 12.702,19.449 12.864,19.670 12.943 C 19.878 13.017,21.122 13.017,21.330 12.943 C 21.551 12.864,21.744 12.702,21.869 12.489 C 21.964 12.328,21.980 12.256,21.980 12.000 C 21.980 11.746,21.963 11.672,21.872 11.516 C 21.740 11.293,21.533 11.128,21.290 11.055 C 21.050 10.983,19.928 10.984,19.695 11.057 M12.977 18.630 C 12.975 19.015,12.956 19.304,12.927 19.373 C 12.846 19.567,12.675 19.760,12.484 19.872 C 12.328 19.963,12.254 19.980,12.000 19.980 C 11.746 19.980,11.672 19.963,11.516 19.872 C 11.326 19.760,11.155 19.568,11.073 19.373 C 11.043 19.303,11.024 19.021,11.023 18.630 L 11.020 18.000 12.000 18.000 L 12.980 18.000 12.977 18.630 " stroke="none" fill-rule="evenodd" fill="black"></path></svg>