<svg xmlns="http://www.w3.org/2000/svg" width="24" height="24" viewBox="0 0 24 24" fill="none" stroke="currentColor" stroke-width="2" stroke-linecap="round" stroke-linejoin="round"><path d="M8.695 5.057 C 8.466 5.129,8.256 5.299,8.128 5.516 L 8.020 5.700 8.009 7.850 L 7.997 10.000 6.869 10.002 C 5.595 10.005,5.391 10.035,4.983 10.281 C 4.703 10.449,4.354 10.816,4.219 11.083 C 4.022 11.470,4.000 11.651,4.000 12.863 L 4.000 13.990 3.714 14.018 C 2.495 14.138,1.484 14.971,1.114 16.160 C 0.979 16.594,0.979 17.406,1.114 17.840 C 1.421 18.826,2.173 19.578,3.160 19.886 L 3.460 19.980 9.000 19.980 L 14.540 19.980 14.840 19.886 C 15.646 19.635,16.318 19.068,16.688 18.330 L 16.853 18.000 17.500 18.000 L 18.147 18.000 18.312 18.330 C 18.677 19.060,19.346 19.627,20.140 19.882 C 20.383 19.960,20.531 19.974,21.260 19.990 C 21.805 20.002,22.158 19.993,22.264 19.964 C 22.497 19.901,22.737 19.714,22.867 19.492 C 22.964 19.327,22.980 19.257,22.980 19.000 C 22.980 18.746,22.963 18.672,22.872 18.516 C 22.760 18.325,22.567 18.154,22.373 18.073 C 22.307 18.045,21.934 18.016,21.480 18.003 C 20.724 17.981,20.694 17.977,20.516 17.872 C 20.328 17.761,20.158 17.572,20.070 17.373 C 20.033 17.289,20.015 16.681,20.000 14.980 L 19.980 12.700 19.871 12.514 C 19.479 11.848,18.521 11.848,18.129 12.514 L 18.020 12.700 18.008 14.350 L 17.997 16.000 17.425 16.000 L 16.853 16.000 16.688 15.670 C 16.403 15.102,15.909 14.607,15.330 14.313 L 15.000 14.145 15.000 11.389 C 15.000 8.796,14.995 8.609,14.921 8.243 C 14.721 7.264,14.197 6.415,13.438 5.843 C 12.866 5.412,12.276 5.160,11.605 5.058 C 11.093 4.981,8.940 4.980,8.695 5.057 M11.523 7.073 C 11.866 7.163,12.198 7.366,12.454 7.642 C 12.883 8.105,12.998 8.479,12.999 9.410 L 13.000 10.000 11.500 10.000 L 10.000 10.000 10.000 8.500 L 10.000 7.000 10.630 7.002 C 11.090 7.004,11.331 7.023,11.523 7.073 M13.000 13.000 L 13.000 14.000 9.500 14.000 L 6.000 14.000 6.000 13.000 L 6.000 12.000 9.500 12.000 L 13.000 12.000 13.000 13.000 M4.334 16.064 C 4.698 16.188,5.000 16.613,5.000 17.001 C 5.000 17.331,4.784 17.696,4.484 17.872 C 4.328 17.963,4.254 17.980,4.000 17.980 C 3.746 17.980,3.672 17.963,3.516 17.872 C 2.937 17.531,2.833 16.774,3.301 16.306 C 3.587 16.019,3.952 15.934,4.334 16.064 M11.146 16.057 C 10.972 16.511,10.972 17.489,11.146 17.943 C 11.166 17.992,10.869 18.000,9.000 18.000 C 7.131 18.000,6.834 17.992,6.854 17.943 C 7.028 17.489,7.028 16.511,6.854 16.057 C 6.834 16.008,7.131 16.000,9.000 16.000 C 10.869 16.000,11.166 16.008,11.146 16.057 M14.334 16.064 C 14.698 16.188,15.000 16.613,15.000 17.001 C 15.000 17.331,14.784 17.696,14.484 17.872 C 14.328 17.963,14.254 17.980,14.000 17.980 C 13.746 17.980,13.672 17.963,13.516 17.872 C 12.937 17.531,12.833 16.774,13.301 16.306 C 13.587 16.019,13.952 15.934,14.334 16.064 " stroke="none" fill-rule="evenodd" fill="black"></path></svg>