<svg xmlns="http://www.w3.org/2000/svg" width="24" height="24" viewBox="0 0 24 24" fill="none" stroke="currentColor" stroke-width="2" stroke-linecap="round" stroke-linejoin="round"><path d="M11.140 3.044 C 7.490 3.314,4.349 5.490,3.358 8.434 C 3.179 8.965,3.177 8.987,3.264 9.283 C 3.343 9.553,3.653 9.876,3.905 9.951 C 4.145 10.022,19.855 10.022,20.095 9.951 C 20.347 9.876,20.657 9.553,20.736 9.283 C 20.821 8.995,20.820 8.983,20.675 8.530 C 20.005 6.431,18.241 4.676,15.840 3.720 C 14.439 3.162,12.778 2.923,11.140 3.044 M13.300 5.099 C 14.923 5.344,16.318 5.997,17.386 7.011 C 17.677 7.288,18.200 7.902,18.200 7.968 C 18.200 7.986,15.410 8.000,12.000 8.000 C 8.590 8.000,5.800 7.986,5.800 7.968 C 5.800 7.902,6.323 7.288,6.614 7.011 C 7.820 5.865,9.456 5.178,11.340 5.025 C 11.717 4.994,12.900 5.039,13.300 5.099 M4.695 11.057 C 4.466 11.129,4.256 11.299,4.128 11.516 C 4.037 11.672,4.020 11.746,4.020 12.000 C 4.020 12.256,4.036 12.328,4.131 12.489 C 4.256 12.702,4.449 12.864,4.670 12.943 C 4.893 13.022,19.107 13.022,19.330 12.943 C 19.551 12.864,19.744 12.702,19.869 12.489 C 19.964 12.328,19.980 12.256,19.980 12.000 C 19.980 11.746,19.963 11.672,19.872 11.516 C 19.740 11.293,19.533 11.128,19.290 11.055 C 19.027 10.976,4.947 10.978,4.695 11.057 M3.695 14.057 C 3.466 14.129,3.256 14.299,3.128 14.516 C 3.027 14.688,3.020 14.731,3.021 15.160 C 3.022 15.660,3.098 16.103,3.268 16.600 C 3.846 18.291,5.253 19.525,7.040 19.907 C 7.358 19.975,7.684 19.980,12.000 19.980 C 16.316 19.980,16.642 19.975,16.960 19.907 C 18.488 19.580,19.748 18.630,20.433 17.288 C 20.808 16.553,20.977 15.893,20.979 15.160 C 20.980 14.731,20.973 14.688,20.872 14.516 C 20.740 14.293,20.533 14.128,20.290 14.055 C 20.027 13.976,3.947 13.978,3.695 14.057 M18.797 16.110 C 18.715 16.325,18.483 16.703,18.305 16.911 C 17.893 17.391,17.422 17.705,16.840 17.886 L 16.540 17.980 12.000 17.980 L 7.460 17.980 7.160 17.886 C 6.578 17.705,6.107 17.391,5.695 16.911 C 5.517 16.703,5.285 16.325,5.203 16.110 L 5.162 16.000 12.000 16.000 L 18.838 16.000 18.797 16.110 " stroke="none" fill-rule="evenodd" fill="black"></path></svg>