<svg xmlns="http://www.w3.org/2000/svg" width="24" height="24" viewBox="0 0 24 24" fill="none" stroke="currentColor" stroke-width="2" stroke-linecap="round" stroke-linejoin="round"><path d="M2.670 2.061 C 2.448 2.142,2.250 2.309,2.128 2.516 C 2.036 2.672,2.020 2.745,2.021 3.000 C 2.022 3.358,2.077 3.479,2.388 3.805 L 2.605 4.033 2.391 4.095 C 1.952 4.223,1.432 4.662,1.216 5.088 C 0.990 5.533,1.000 5.250,1.002 11.458 C 1.003 16.134,1.013 17.207,1.057 17.330 C 1.136 17.551,1.298 17.744,1.511 17.869 C 1.694 17.977,1.722 17.981,2.427 18.000 L 3.155 18.020 3.316 18.340 C 3.686 19.071,4.360 19.637,5.160 19.886 C 5.594 20.021,6.406 20.021,6.840 19.886 C 7.645 19.635,8.318 19.069,8.688 18.330 L 8.853 18.000 12.009 18.000 L 15.164 18.000 15.264 18.224 C 15.757 19.340,16.923 20.051,18.163 19.991 L 18.553 19.973 19.447 20.869 C 19.938 21.362,20.416 21.810,20.508 21.865 C 20.967 22.139,21.587 21.968,21.867 21.492 C 21.964 21.327,21.980 21.257,21.980 21.000 C 21.980 20.746,21.964 20.672,21.873 20.520 C 21.809 20.414,18.015 16.593,12.653 11.235 C 4.231 2.820,3.525 2.125,3.343 2.065 C 3.107 1.987,2.874 1.986,2.670 2.061 M8.695 4.056 C 8.465 4.129,8.256 4.299,8.128 4.516 C 8.037 4.672,8.020 4.746,8.020 5.000 C 8.020 5.256,8.036 5.328,8.131 5.489 C 8.192 5.592,8.304 5.725,8.381 5.783 C 8.642 5.983,8.738 5.996,9.908 5.998 L 10.995 6.000 11.008 7.153 L 11.020 8.307 11.141 8.503 C 11.543 9.156,12.457 9.156,12.859 8.503 L 12.980 8.307 12.992 7.153 L 13.005 6.000 14.096 6.000 L 15.188 6.000 15.315 6.590 C 15.385 6.915,15.528 7.585,15.634 8.080 L 15.827 8.980 14.783 9.001 C 14.092 9.015,13.702 9.039,13.627 9.071 C 13.430 9.157,13.239 9.327,13.128 9.516 C 13.037 9.672,13.020 9.746,13.020 10.000 C 13.020 10.256,13.036 10.328,13.131 10.489 C 13.192 10.592,13.304 10.725,13.381 10.783 C 13.646 10.986,13.728 10.996,15.041 10.998 L 16.263 11.000 16.377 11.550 C 16.441 11.853,16.518 12.187,16.548 12.292 C 16.620 12.537,16.843 12.786,17.100 12.906 L 17.300 12.999 19.150 13.000 L 21.000 13.000 21.000 14.494 L 21.000 15.987 20.786 16.035 C 20.515 16.096,20.270 16.275,20.129 16.514 C 20.036 16.672,20.020 16.745,20.020 17.000 C 20.020 17.257,20.036 17.327,20.133 17.492 C 20.263 17.713,20.502 17.901,20.732 17.963 C 20.828 17.989,21.175 18.001,21.596 17.993 C 22.282 17.980,22.305 17.977,22.489 17.869 C 22.702 17.744,22.864 17.551,22.943 17.330 C 23.011 17.139,23.024 11.744,22.958 11.057 C 22.836 9.793,22.524 8.651,22.018 7.620 C 21.077 5.705,19.709 4.521,17.939 4.092 C 17.687 4.031,17.239 4.023,13.260 4.014 C 9.717 4.006,8.828 4.014,8.695 4.056 M5.290 6.710 L 6.000 7.421 6.000 8.210 L 6.000 9.000 4.500 9.000 L 3.000 9.000 3.000 7.500 L 3.000 6.000 3.790 6.000 L 4.581 6.000 5.290 6.710 M17.691 6.099 C 17.991 6.178,18.480 6.426,18.784 6.655 C 19.645 7.302,20.397 8.553,20.738 9.904 C 20.827 10.257,20.920 10.763,20.920 10.891 L 20.920 11.001 19.612 10.991 L 18.303 10.980 17.893 9.060 C 17.668 8.004,17.431 6.893,17.366 6.590 L 17.250 6.040 17.356 6.040 C 17.415 6.040,17.566 6.067,17.691 6.099 M12.080 13.500 L 14.580 16.000 11.716 16.000 L 8.853 16.000 8.688 15.670 C 8.321 14.938,7.642 14.363,6.861 14.125 C 6.588 14.042,6.458 14.027,6.000 14.027 C 5.542 14.027,5.412 14.042,5.139 14.125 C 4.358 14.363,3.679 14.938,3.312 15.670 C 3.195 15.904,3.125 16.000,3.073 16.000 C 3.003 16.000,3.000 15.899,3.000 13.500 L 3.000 11.000 6.290 11.000 L 9.580 11.000 12.080 13.500 M6.334 16.064 C 6.698 16.188,7.000 16.613,7.000 17.001 C 7.000 17.331,6.784 17.696,6.484 17.872 C 6.328 17.963,6.254 17.980,6.000 17.980 C 5.746 17.980,5.672 17.963,5.516 17.872 C 4.937 17.531,4.833 16.774,5.301 16.306 C 5.587 16.019,5.952 15.934,6.334 16.064 " stroke="none" fill-rule="evenodd" fill="black"></path></svg>