<svg xmlns="http://www.w3.org/2000/svg" width="24" height="24" viewBox="0 0 24 24" fill="none" stroke="currentColor" stroke-width="2" stroke-linecap="round" stroke-linejoin="round"><path d="M11.499 2.040 C 10.374 2.244,9.488 3.024,9.114 4.140 L 9.020 4.420 9.009 8.210 L 8.997 12.000 8.867 12.000 C 8.682 12.000,8.311 11.897,8.088 11.784 C 7.672 11.573,7.235 11.063,7.094 10.623 C 7.046 10.475,7.022 10.189,7.004 9.560 C 6.980 8.715,6.978 8.697,6.871 8.514 C 6.479 7.848,5.521 7.848,5.129 8.514 C 5.021 8.698,5.020 8.709,5.007 9.520 C 4.996 10.233,5.006 10.395,5.080 10.759 C 5.357 12.119,6.244 13.192,7.512 13.704 C 7.885 13.854,8.527 14.000,8.816 14.000 L 9.000 14.000 9.000 17.000 L 9.000 20.000 7.946 20.000 C 6.797 20.000,6.644 20.022,6.382 20.221 C 6.302 20.282,6.187 20.415,6.128 20.516 C 6.037 20.672,6.020 20.746,6.020 21.000 C 6.020 21.256,6.036 21.328,6.131 21.489 C 6.256 21.702,6.449 21.864,6.670 21.943 C 6.892 22.022,17.108 22.022,17.330 21.943 C 17.551 21.864,17.744 21.702,17.869 21.489 C 17.964 21.328,17.980 21.256,17.980 21.000 C 17.980 20.746,17.963 20.672,17.872 20.516 C 17.813 20.415,17.698 20.282,17.618 20.221 C 17.356 20.022,17.203 20.000,16.054 20.000 L 15.000 20.000 15.000 18.500 L 15.000 17.000 15.184 17.000 C 15.473 17.000,16.115 16.854,16.488 16.704 C 17.757 16.192,18.643 15.118,18.922 13.752 C 18.998 13.375,19.002 13.230,18.991 10.529 L 18.980 7.700 18.871 7.514 C 18.479 6.848,17.521 6.848,17.129 7.514 L 17.020 7.700 16.999 10.560 C 16.975 13.751,16.988 13.598,16.688 14.063 C 16.506 14.344,16.178 14.649,15.912 14.784 C 15.688 14.897,15.318 15.000,15.133 15.000 L 15.002 15.000 14.991 9.710 L 14.980 4.420 14.886 4.140 C 14.555 3.154,13.800 2.403,12.861 2.129 C 12.500 2.023,11.832 1.980,11.499 2.040 M12.310 4.061 C 12.589 4.144,12.856 4.411,12.939 4.690 C 12.993 4.870,13.000 5.802,13.000 12.447 L 13.000 20.000 12.000 20.000 L 11.000 20.000 11.000 12.447 C 11.000 3.955,10.975 4.632,11.304 4.303 C 11.583 4.024,11.916 3.944,12.310 4.061 " stroke="none" fill-rule="evenodd" fill="black"></path></svg>