<svg xmlns="http://www.w3.org/2000/svg" width="24" height="24" viewBox="0 0 24 24" fill="none" stroke="currentColor" stroke-width="2" stroke-linecap="round" stroke-linejoin="round"><path d="M11.700 3.056 C 11.443 3.137,11.385 3.187,10.782 3.862 C 9.410 5.396,9.323 5.515,9.131 6.113 C 9.000 6.521,8.968 7.103,9.052 7.540 C 9.086 7.716,9.126 7.891,9.141 7.930 C 9.167 7.996,9.072 8.000,7.474 8.000 C 5.662 8.000,5.262 8.031,4.755 8.204 C 3.367 8.679,2.372 9.805,2.082 11.231 C 2.000 11.632,1.999 11.718,2.009 15.970 L 2.020 20.300 2.131 20.489 C 2.256 20.702,2.449 20.864,2.670 20.943 C 2.893 21.023,21.107 21.023,21.330 20.943 C 21.551 20.864,21.744 20.702,21.869 20.489 L 21.980 20.300 21.991 15.970 C 22.001 11.771,21.999 11.627,21.921 11.246 C 21.628 9.806,20.638 8.681,19.245 8.204 C 18.738 8.031,18.338 8.000,16.526 8.000 C 15.069 8.000,14.835 7.992,14.854 7.943 C 14.948 7.697,14.977 7.476,14.978 7.000 C 14.979 6.543,14.965 6.414,14.886 6.161 C 14.766 5.779,14.609 5.470,14.403 5.209 C 14.088 4.810,12.756 3.339,12.594 3.211 C 12.333 3.004,12.031 2.952,11.700 3.056 M12.368 5.911 C 12.835 6.438,12.873 6.489,12.941 6.682 C 13.063 7.030,12.973 7.417,12.706 7.692 C 12.179 8.234,11.274 8.016,11.057 7.295 C 10.921 6.845,11.007 6.620,11.549 6.007 C 11.785 5.739,11.988 5.520,12.000 5.520 C 12.012 5.520,12.178 5.696,12.368 5.911 M18.523 10.073 C 19.022 10.203,19.516 10.599,19.772 11.071 C 19.964 11.426,19.999 11.705,19.999 12.910 L 20.000 14.000 19.893 14.000 C 19.713 14.000,19.349 13.881,19.182 13.767 C 19.095 13.707,18.889 13.499,18.724 13.304 C 18.560 13.109,18.325 12.870,18.203 12.773 C 16.912 11.748,15.088 11.748,13.797 12.773 C 13.675 12.870,13.440 13.109,13.276 13.304 C 13.111 13.499,12.905 13.707,12.818 13.767 C 12.373 14.070,11.627 14.070,11.182 13.767 C 11.095 13.707,10.889 13.499,10.724 13.304 C 10.396 12.915,10.109 12.669,9.739 12.460 C 8.491 11.753,6.925 11.877,5.797 12.773 C 5.675 12.870,5.440 13.109,5.276 13.304 C 5.111 13.499,4.905 13.707,4.818 13.767 C 4.651 13.881,4.287 14.000,4.107 14.000 L 4.000 14.000 4.000 12.898 C 4.000 12.044,4.014 11.734,4.062 11.522 C 4.215 10.850,4.801 10.250,5.477 10.073 C 5.720 10.010,6.211 10.005,12.000 10.005 C 17.789 10.005,18.280 10.010,18.523 10.073 M8.423 14.059 C 8.734 14.151,8.966 14.324,9.278 14.697 C 9.995 15.556,10.924 16.000,12.004 16.000 C 13.073 16.000,14.008 15.552,14.721 14.698 C 15.144 14.192,15.496 14.000,16.000 14.000 C 16.504 14.000,16.856 14.192,17.278 14.697 C 17.437 14.888,17.678 15.132,17.813 15.241 C 18.363 15.680,19.212 16.000,19.827 16.000 L 20.000 16.000 20.000 17.500 L 20.000 19.000 12.000 19.000 L 4.000 19.000 4.000 17.500 L 4.000 16.000 4.176 16.000 C 4.423 16.000,4.891 15.905,5.202 15.791 C 5.795 15.575,6.280 15.226,6.719 14.701 C 6.877 14.512,7.078 14.309,7.166 14.251 C 7.525 14.013,8.017 13.938,8.423 14.059 " stroke="none" fill-rule="evenodd" fill="black"></path></svg>