<svg xmlns="http://www.w3.org/2000/svg" width="24" height="24" viewBox="0 0 24 24" fill="none" stroke="currentColor" stroke-width="2" stroke-linecap="round" stroke-linejoin="round"><path d="M2.670 2.061 C 2.448 2.142,2.250 2.309,2.128 2.516 C 2.036 2.672,2.020 2.745,2.021 3.000 C 2.022 3.392,2.071 3.478,2.586 4.003 L 3.001 4.425 3.011 12.003 L 3.020 19.580 3.114 19.860 C 3.443 20.840,4.160 21.557,5.140 21.886 L 5.420 21.980 11.820 21.992 C 16.357 22.000,18.295 21.990,18.478 21.959 C 18.942 21.880,19.463 21.657,19.796 21.395 L 19.892 21.319 20.156 21.573 C 20.519 21.923,20.633 21.978,21.000 21.979 C 21.258 21.980,21.327 21.964,21.492 21.867 C 21.968 21.587,22.139 20.967,21.865 20.508 C 21.810 20.416,17.665 16.243,12.653 11.235 C 4.231 2.820,3.525 2.125,3.343 2.065 C 3.107 1.987,2.874 1.986,2.670 2.061 M6.695 2.057 C 6.465 2.129,6.256 2.299,6.128 2.516 C 6.037 2.672,6.020 2.746,6.020 3.000 C 6.020 3.256,6.036 3.328,6.131 3.489 C 6.256 3.702,6.449 3.864,6.670 3.943 C 6.793 3.987,7.853 3.997,12.463 3.998 C 18.773 4.000,18.368 3.982,18.679 4.283 C 19.006 4.601,18.978 4.042,19.000 10.523 L 19.020 16.306 19.141 16.503 C 19.543 17.156,20.457 17.156,20.859 16.503 L 20.980 16.306 20.980 10.383 L 20.980 4.460 20.886 4.160 C 20.581 3.182,19.832 2.428,18.861 2.121 L 18.540 2.020 12.700 2.012 C 7.991 2.006,6.828 2.015,6.695 2.057 M10.695 6.057 C 10.466 6.129,10.256 6.299,10.128 6.516 C 10.037 6.672,10.020 6.746,10.020 7.000 C 10.020 7.256,10.036 7.328,10.131 7.489 C 10.256 7.702,10.449 7.864,10.670 7.943 C 10.788 7.985,11.269 7.997,12.910 7.998 L 15.000 8.000 15.000 8.500 L 15.000 9.000 14.446 9.000 C 13.648 9.000,13.367 9.110,13.128 9.516 C 13.037 9.672,13.020 9.746,13.020 10.000 C 13.020 10.256,13.036 10.328,13.131 10.489 C 13.192 10.592,13.304 10.725,13.381 10.783 C 13.626 10.971,13.765 10.996,14.534 10.998 C 15.576 11.001,15.915 10.893,16.404 10.404 C 16.895 9.913,17.000 9.579,16.999 8.514 C 16.999 7.716,16.954 7.424,16.781 7.083 C 16.646 6.816,16.297 6.449,16.017 6.281 C 15.566 6.009,15.517 6.005,13.060 6.005 C 11.374 6.005,10.821 6.017,10.695 6.057 M7.000 8.841 C 7.000 9.554,7.157 9.965,7.596 10.404 C 8.035 10.843,8.446 11.000,9.158 11.000 L 9.579 11.000 10.606 12.026 L 11.632 13.051 11.446 13.179 C 11.344 13.250,11.206 13.394,11.140 13.500 C 11.034 13.671,11.020 13.729,11.021 13.997 C 11.022 14.228,11.042 14.338,11.107 14.460 C 11.362 14.937,11.936 15.132,12.420 14.906 C 12.628 14.809,12.852 14.590,12.901 14.437 C 12.926 14.359,13.053 14.474,14.018 15.438 L 15.108 16.528 15.050 16.694 C 14.935 17.024,15.048 17.483,15.306 17.728 C 15.566 17.973,16.032 18.071,16.336 17.944 L 16.469 17.889 17.455 18.875 C 17.997 19.417,18.440 19.872,18.440 19.885 C 18.440 19.995,17.960 20.003,11.900 19.991 L 5.700 19.980 5.516 19.872 C 5.415 19.813,5.284 19.700,5.225 19.623 C 4.986 19.310,5.000 19.723,5.000 12.785 L 5.000 6.421 6.000 7.420 L 7.000 8.419 7.000 8.841 M7.695 13.057 C 7.466 13.129,7.256 13.299,7.128 13.516 C 7.036 13.672,7.020 13.745,7.021 14.000 C 7.022 14.332,7.101 14.533,7.306 14.728 C 7.785 15.181,8.580 15.046,8.893 14.460 C 9.025 14.211,9.015 13.760,8.872 13.516 C 8.628 13.101,8.150 12.915,7.695 13.057 M7.695 16.057 C 7.466 16.129,7.256 16.299,7.128 16.516 C 7.036 16.672,7.020 16.745,7.021 17.000 C 7.022 17.332,7.101 17.533,7.306 17.728 C 7.785 18.181,8.580 18.046,8.893 17.460 C 9.025 17.211,9.015 16.760,8.872 16.516 C 8.628 16.101,8.150 15.915,7.695 16.057 M11.695 16.057 C 11.466 16.129,11.256 16.299,11.128 16.516 C 11.036 16.672,11.020 16.745,11.021 17.000 C 11.022 17.332,11.101 17.533,11.306 17.728 C 11.785 18.181,12.580 18.046,12.893 17.460 C 13.025 17.211,13.015 16.760,12.872 16.516 C 12.628 16.101,12.150 15.915,11.695 16.057 " stroke="none" fill-rule="evenodd" fill="black"></path></svg>