<svg xmlns="http://www.w3.org/2000/svg" width="24" height="24" viewBox="0 0 24 24" fill="none" stroke="currentColor" stroke-width="2" stroke-linecap="round" stroke-linejoin="round"><path d="M5.499 2.043 C 4.380 2.233,3.461 3.048,3.114 4.160 L 3.020 4.460 3.020 12.000 L 3.020 19.540 3.114 19.840 C 3.422 20.827,4.173 21.578,5.160 21.886 L 5.460 21.980 12.000 21.980 L 18.540 21.980 18.840 21.886 C 19.827 21.578,20.578 20.827,20.886 19.840 L 20.980 19.540 20.980 12.000 L 20.980 4.460 20.886 4.160 C 20.581 3.182,19.832 2.428,18.861 2.121 L 18.540 2.020 12.120 2.014 C 8.589 2.011,5.609 2.024,5.499 2.043 M18.310 4.061 C 18.589 4.144,18.856 4.411,18.939 4.690 C 18.993 4.870,19.000 5.755,19.000 12.001 C 19.000 17.907,18.991 19.138,18.945 19.290 C 18.872 19.533,18.707 19.740,18.484 19.872 L 18.300 19.980 12.000 19.980 L 5.700 19.980 5.516 19.872 C 5.415 19.813,5.284 19.700,5.225 19.623 C 4.986 19.309,5.000 19.795,5.000 12.022 C 5.000 4.005,4.975 4.631,5.304 4.303 C 5.623 3.983,5.120 4.006,11.983 4.003 C 17.353 4.000,18.131 4.007,18.310 4.061 M8.477 6.073 C 7.806 6.249,7.238 6.823,7.060 7.508 C 6.976 7.828,6.976 9.172,7.060 9.492 C 7.153 9.852,7.310 10.118,7.596 10.404 C 7.882 10.690,8.148 10.847,8.508 10.940 C 8.860 11.032,15.136 11.029,15.491 10.937 C 15.863 10.841,16.114 10.694,16.404 10.404 C 16.895 9.913,17.000 9.579,16.999 8.514 C 16.999 7.716,16.954 7.424,16.781 7.083 C 16.646 6.816,16.297 6.449,16.017 6.281 C 15.548 5.999,15.636 6.005,12.000 6.005 C 9.047 6.005,8.715 6.011,8.477 6.073 M15.000 8.500 L 15.000 9.000 12.000 9.000 L 9.000 9.000 9.000 8.500 L 9.000 8.000 12.000 8.000 L 15.000 8.000 15.000 8.500 M7.695 13.057 C 7.466 13.129,7.256 13.299,7.128 13.516 C 7.036 13.672,7.020 13.745,7.021 14.000 C 7.022 14.332,7.101 14.533,7.306 14.728 C 7.785 15.181,8.580 15.046,8.893 14.460 C 9.025 14.211,9.015 13.760,8.872 13.516 C 8.628 13.101,8.150 12.915,7.695 13.057 M11.695 13.057 C 11.466 13.129,11.256 13.299,11.128 13.516 C 11.036 13.672,11.020 13.745,11.021 14.000 C 11.022 14.332,11.101 14.533,11.306 14.728 C 11.785 15.181,12.580 15.046,12.893 14.460 C 13.025 14.211,13.015 13.760,12.872 13.516 C 12.628 13.101,12.150 12.915,11.695 13.057 M15.695 13.057 C 15.466 13.129,15.256 13.299,15.128 13.516 C 15.036 13.672,15.020 13.745,15.021 14.000 C 15.022 14.332,15.101 14.533,15.306 14.728 C 15.785 15.181,16.580 15.046,16.893 14.460 C 17.025 14.211,17.015 13.760,16.872 13.516 C 16.628 13.101,16.150 12.915,15.695 13.057 M7.695 16.057 C 7.466 16.129,7.256 16.299,7.128 16.516 C 7.036 16.672,7.020 16.745,7.021 17.000 C 7.022 17.332,7.101 17.533,7.306 17.728 C 7.785 18.181,8.580 18.046,8.893 17.460 C 9.025 17.211,9.015 16.760,8.872 16.516 C 8.628 16.101,8.150 15.915,7.695 16.057 M11.695 16.057 C 11.466 16.129,11.256 16.299,11.128 16.516 C 11.036 16.672,11.020 16.745,11.021 17.000 C 11.022 17.332,11.101 17.533,11.306 17.728 C 11.785 18.181,12.580 18.046,12.893 17.460 C 13.025 17.211,13.015 16.760,12.872 16.516 C 12.628 16.101,12.150 15.915,11.695 16.057 M15.695 16.057 C 15.466 16.129,15.256 16.299,15.128 16.516 C 15.036 16.672,15.020 16.745,15.021 17.000 C 15.022 17.332,15.101 17.533,15.306 17.728 C 15.785 18.181,16.580 18.046,16.893 17.460 C 17.025 17.211,17.015 16.760,16.872 16.516 C 16.628 16.101,16.150 15.915,15.695 16.057 " stroke="none" fill-rule="evenodd" fill="black"></path></svg>