<svg xmlns="http://www.w3.org/2000/svg" width="24" height="24" viewBox="0 0 24 24" fill="none" stroke="currentColor" stroke-width="2" stroke-linecap="round" stroke-linejoin="round"><path d="M7.695 2.057 C 7.466 2.129,7.256 2.299,7.128 2.516 C 7.025 2.692,7.019 2.728,7.007 3.345 L 6.993 3.991 6.227 4.010 C 5.567 4.027,5.415 4.043,5.139 4.126 C 4.181 4.415,3.420 5.179,3.114 6.160 L 3.020 6.460 3.020 13.000 L 3.020 19.540 3.114 19.840 C 3.418 20.816,4.150 21.555,5.140 21.886 L 5.420 21.979 8.770 21.991 C 10.990 21.999,12.172 21.989,12.274 21.962 C 12.498 21.901,12.739 21.711,12.867 21.492 C 12.964 21.327,12.980 21.257,12.980 21.000 C 12.980 20.746,12.963 20.672,12.872 20.516 C 12.761 20.328,12.572 20.158,12.373 20.070 C 12.287 20.032,11.483 20.015,8.980 20.000 L 5.700 19.980 5.516 19.872 C 5.415 19.813,5.284 19.700,5.225 19.623 C 4.992 19.317,5.000 19.464,5.000 15.575 L 5.000 12.000 12.060 12.000 L 19.120 12.000 19.270 12.166 C 19.659 12.598,20.339 12.601,20.724 12.173 C 21.015 11.850,21.005 11.966,20.991 9.039 L 20.979 6.420 20.885 6.140 C 20.558 5.158,19.808 4.412,18.861 4.126 C 18.585 4.043,18.433 4.027,17.773 4.010 L 17.007 3.991 16.993 3.345 C 16.981 2.726,16.976 2.693,16.871 2.514 C 16.479 1.848,15.521 1.848,15.129 2.514 C 15.024 2.693,15.019 2.726,15.007 3.350 L 14.993 4.000 12.000 4.000 L 9.007 4.000 8.993 3.350 C 8.981 2.728,8.975 2.692,8.872 2.516 C 8.628 2.101,8.150 1.915,7.695 2.057 M7.007 6.653 C 7.020 7.300,7.021 7.308,7.141 7.503 C 7.543 8.156,8.457 8.156,8.859 7.503 C 8.979 7.308,8.980 7.300,8.993 6.653 L 9.007 6.000 12.000 6.000 L 14.993 6.000 15.007 6.653 C 15.020 7.300,15.021 7.308,15.141 7.503 C 15.543 8.156,16.457 8.156,16.859 7.503 C 16.979 7.308,16.980 7.300,16.993 6.653 L 17.007 6.000 17.556 6.000 C 18.249 6.000,18.446 6.052,18.697 6.303 C 18.993 6.599,19.000 6.650,19.000 8.447 L 19.000 10.000 12.000 10.000 L 5.000 10.000 5.000 8.447 C 5.000 6.649,5.007 6.599,5.304 6.303 C 5.554 6.053,5.728 6.006,6.427 6.003 L 6.993 6.000 7.007 6.653 M18.499 14.040 C 17.363 14.246,16.460 15.049,16.114 16.160 C 15.979 16.594,15.979 17.406,16.114 17.840 C 16.241 18.247,16.438 18.609,16.700 18.917 L 16.918 19.174 16.620 19.337 C 15.882 19.740,15.355 20.379,15.115 21.160 C 15.045 21.390,15.023 21.559,15.022 21.883 C 15.020 22.285,15.026 22.315,15.141 22.503 C 15.537 23.147,16.457 23.156,16.849 22.520 C 16.927 22.392,16.971 22.249,16.999 22.031 C 17.049 21.636,17.114 21.485,17.321 21.283 C 17.591 21.022,17.720 21.000,19.000 21.000 C 20.280 21.000,20.409 21.022,20.679 21.283 C 20.886 21.485,20.951 21.636,21.001 22.031 C 21.049 22.410,21.184 22.647,21.452 22.828 C 21.923 23.144,22.554 22.998,22.859 22.503 C 22.974 22.315,22.980 22.285,22.978 21.883 C 22.977 21.559,22.955 21.390,22.885 21.160 C 22.645 20.379,22.118 19.740,21.380 19.337 L 21.082 19.174 21.300 18.917 C 21.562 18.609,21.759 18.247,21.886 17.840 C 22.021 17.406,22.021 16.594,21.886 16.160 C 21.581 15.179,20.810 14.407,19.861 14.129 C 19.500 14.023,18.832 13.980,18.499 14.040 M19.334 16.064 C 19.698 16.188,20.000 16.613,20.000 17.001 C 20.000 17.331,19.784 17.696,19.484 17.872 C 19.328 17.963,19.254 17.980,19.000 17.980 C 18.746 17.980,18.672 17.963,18.516 17.872 C 17.937 17.531,17.833 16.774,18.301 16.306 C 18.587 16.019,18.952 15.934,19.334 16.064 " stroke="none" fill-rule="evenodd" fill="black"></path></svg>