<svg xmlns="http://www.w3.org/2000/svg" width="24" height="24" viewBox="0 0 24 24" fill="none" stroke="currentColor" stroke-width="2" stroke-linecap="round" stroke-linejoin="round"><path d="M7.695 2.057 C 7.466 2.129,7.256 2.299,7.128 2.516 C 7.025 2.692,7.019 2.728,7.007 3.345 L 6.993 3.991 6.227 4.010 C 5.567 4.027,5.415 4.043,5.139 4.126 C 4.181 4.415,3.420 5.179,3.114 6.160 L 3.020 6.460 3.020 13.000 L 3.020 19.540 3.114 19.840 C 3.418 20.816,4.151 21.555,5.140 21.886 L 5.420 21.979 8.540 21.991 C 12.024 22.005,11.847 22.018,12.173 21.724 C 12.381 21.536,12.488 21.292,12.488 21.003 C 12.488 20.615,12.294 20.298,11.940 20.106 C 11.781 20.021,11.761 20.020,8.740 20.000 L 5.700 19.980 5.516 19.872 C 5.415 19.813,5.284 19.700,5.225 19.623 C 4.992 19.317,5.000 19.464,5.000 15.575 L 5.000 12.000 12.060 12.000 L 19.120 12.000 19.270 12.166 C 19.659 12.598,20.339 12.601,20.724 12.173 C 21.015 11.850,21.005 11.966,20.991 9.039 L 20.979 6.420 20.885 6.140 C 20.558 5.158,19.808 4.412,18.861 4.126 C 18.585 4.043,18.433 4.027,17.773 4.010 L 17.007 3.991 16.993 3.345 C 16.981 2.726,16.976 2.693,16.871 2.514 C 16.479 1.848,15.521 1.848,15.129 2.514 C 15.024 2.693,15.019 2.726,15.007 3.350 L 14.993 4.000 12.000 4.000 L 9.007 4.000 8.993 3.350 C 8.981 2.728,8.975 2.692,8.872 2.516 C 8.628 2.101,8.150 1.915,7.695 2.057 M7.007 6.653 C 7.020 7.300,7.021 7.308,7.141 7.503 C 7.543 8.156,8.457 8.156,8.859 7.503 C 8.979 7.308,8.980 7.300,8.993 6.653 L 9.007 6.000 12.000 6.000 L 14.993 6.000 15.007 6.653 C 15.020 7.300,15.021 7.308,15.141 7.503 C 15.543 8.156,16.457 8.156,16.859 7.503 C 16.979 7.308,16.980 7.300,16.993 6.653 L 17.007 6.000 17.556 6.000 C 18.249 6.000,18.446 6.052,18.697 6.303 C 18.993 6.599,19.000 6.650,19.000 8.447 L 19.000 10.000 12.000 10.000 L 5.000 10.000 5.000 8.447 C 5.000 6.649,5.007 6.599,5.304 6.303 C 5.554 6.053,5.728 6.006,6.427 6.003 L 6.993 6.000 7.007 6.653 M17.358 14.061 C 16.230 14.237,15.143 14.974,14.569 15.953 C 13.320 18.083,14.233 20.785,16.512 21.704 C 17.473 22.091,18.529 22.090,19.494 21.701 C 19.684 21.625,19.881 21.535,19.932 21.502 C 20.020 21.444,20.041 21.460,20.681 22.104 C 21.044 22.468,21.416 22.810,21.508 22.865 C 21.967 23.139,22.587 22.968,22.867 22.492 C 22.964 22.327,22.980 22.257,22.980 22.000 C 22.980 21.589,22.910 21.484,22.104 20.681 C 21.460 20.041,21.444 20.020,21.502 19.932 C 21.627 19.740,21.844 19.132,21.921 18.757 C 22.070 18.024,21.994 17.230,21.705 16.516 C 21.172 15.197,20.001 14.269,18.605 14.058 C 18.144 13.989,17.816 13.990,17.358 14.061 M18.523 16.073 C 19.262 16.266,19.850 16.924,19.967 17.690 C 20.067 18.343,19.873 18.933,19.403 19.404 C 19.002 19.807,18.547 20.000,18.000 20.000 C 17.485 20.000,17.038 19.822,16.653 19.465 C 15.323 18.229,16.189 16.005,18.000 16.005 C 18.143 16.005,18.378 16.036,18.523 16.073 " stroke="none" fill-rule="evenodd" fill="black"></path></svg>