<svg xmlns="http://www.w3.org/2000/svg" width="24" height="24" viewBox="0 0 24 24" fill="none" stroke="currentColor" stroke-width="2" stroke-linecap="round" stroke-linejoin="round"><path d="M2.670 2.061 C 2.448 2.142,2.250 2.309,2.128 2.516 C 2.036 2.672,2.020 2.745,2.021 3.000 C 2.021 3.213,2.043 3.340,2.095 3.440 C 2.136 3.517,2.510 3.923,2.926 4.343 L 3.683 5.106 3.606 5.203 C 3.343 5.537,3.121 6.057,3.041 6.522 C 3.010 6.705,3.000 8.643,3.008 13.180 L 3.020 19.580 3.114 19.860 C 3.443 20.840,4.160 21.557,5.140 21.886 L 5.420 21.980 11.820 21.992 C 16.357 22.000,18.295 21.990,18.478 21.959 C 18.942 21.880,19.463 21.657,19.796 21.395 L 19.892 21.319 20.156 21.573 C 20.519 21.923,20.633 21.978,21.000 21.979 C 21.258 21.980,21.327 21.964,21.492 21.867 C 21.968 21.587,22.139 20.967,21.865 20.508 C 21.810 20.416,17.665 16.243,12.653 11.235 C 4.231 2.820,3.525 2.125,3.343 2.065 C 3.107 1.987,2.874 1.986,2.670 2.061 M7.695 2.057 C 7.466 2.129,7.256 2.299,7.128 2.516 C 7.020 2.699,7.020 2.703,7.020 3.503 L 7.020 4.306 7.141 4.503 C 7.287 4.740,7.577 4.946,7.817 4.982 C 7.988 5.007,7.993 5.012,8.018 5.183 C 8.054 5.423,8.260 5.713,8.497 5.859 L 8.694 5.980 11.843 5.991 L 14.993 6.002 15.007 6.654 C 15.020 7.300,15.021 7.309,15.141 7.503 C 15.543 8.156,16.457 8.156,16.859 7.503 C 16.979 7.308,16.980 7.300,16.993 6.653 L 17.007 6.000 17.556 6.000 C 18.249 6.000,18.446 6.052,18.697 6.303 C 18.993 6.599,19.000 6.650,19.000 8.447 L 19.000 10.000 16.946 10.000 C 14.717 10.000,14.666 10.004,14.382 10.221 C 14.302 10.282,14.187 10.415,14.128 10.516 C 14.037 10.672,14.020 10.746,14.020 11.000 C 14.020 11.256,14.036 11.328,14.131 11.489 C 14.256 11.702,14.449 11.864,14.670 11.943 C 14.788 11.985,15.269 11.997,16.909 11.998 L 18.997 12.000 19.009 14.153 L 19.020 16.306 19.141 16.503 C 19.543 17.156,20.457 17.156,20.859 16.503 L 20.980 16.306 20.980 11.383 L 20.980 6.460 20.886 6.160 C 20.580 5.179,19.819 4.415,18.861 4.126 C 18.585 4.043,18.433 4.027,17.773 4.010 L 17.007 3.991 16.993 3.345 C 16.981 2.726,16.976 2.693,16.871 2.514 C 16.479 1.848,15.521 1.848,15.129 2.514 C 15.024 2.693,15.019 2.726,15.007 3.350 L 14.993 4.000 12.000 4.000 L 9.007 4.000 8.993 3.350 C 8.981 2.728,8.975 2.692,8.872 2.516 C 8.628 2.101,8.150 1.915,7.695 2.057 M6.860 8.280 L 8.580 10.000 6.790 10.000 L 5.000 10.000 5.000 8.435 C 5.000 6.968,5.025 6.560,5.117 6.560 C 5.130 6.560,5.914 7.334,6.860 8.280 M14.510 15.930 C 16.671 18.091,18.440 19.871,18.440 19.885 C 18.440 19.995,17.965 20.003,11.900 19.991 L 5.700 19.980 5.516 19.872 C 5.415 19.813,5.284 19.700,5.225 19.623 C 4.992 19.317,5.000 19.464,5.000 15.575 L 5.000 12.000 7.790 12.000 L 10.580 12.000 14.510 15.930 " stroke="none" fill-rule="evenodd" fill="black"></path></svg>