<svg xmlns="http://www.w3.org/2000/svg" width="24" height="24" viewBox="0 0 24 24" fill="none" stroke="currentColor" stroke-width="2" stroke-linecap="round" stroke-linejoin="round"><path d="M7.695 2.057 C 7.466 2.129,7.256 2.299,7.128 2.516 C 7.025 2.692,7.019 2.728,7.007 3.345 L 6.993 3.991 6.227 4.010 C 5.567 4.027,5.415 4.043,5.139 4.126 C 4.181 4.415,3.420 5.179,3.114 6.160 L 3.020 6.460 3.020 13.000 L 3.020 19.540 3.114 19.840 C 3.418 20.816,4.149 21.554,5.140 21.886 L 5.420 21.980 10.272 21.991 C 13.491 21.998,15.175 21.988,15.276 21.961 C 15.498 21.901,15.739 21.710,15.867 21.492 C 15.964 21.327,15.980 21.257,15.980 21.000 C 15.980 20.746,15.963 20.672,15.872 20.516 C 15.761 20.328,15.572 20.158,15.373 20.070 C 15.285 20.031,14.184 20.015,10.480 20.000 L 5.700 19.980 5.516 19.872 C 5.415 19.813,5.284 19.700,5.225 19.623 C 4.992 19.317,5.000 19.464,5.000 15.575 L 5.000 12.000 12.610 12.000 L 20.220 11.999 20.420 11.906 C 20.657 11.795,20.845 11.595,20.937 11.353 C 20.998 11.195,21.003 10.947,20.991 8.799 C 20.978 6.433,20.978 6.418,20.885 6.140 C 20.559 5.159,19.808 4.412,18.861 4.126 C 18.585 4.043,18.433 4.027,17.773 4.010 L 17.007 3.991 16.993 3.345 C 16.981 2.726,16.976 2.693,16.871 2.514 C 16.479 1.848,15.521 1.848,15.129 2.514 C 15.024 2.693,15.019 2.726,15.007 3.350 L 14.993 4.000 12.000 4.000 L 9.007 4.000 8.993 3.350 C 8.981 2.728,8.975 2.692,8.872 2.516 C 8.628 2.101,8.150 1.915,7.695 2.057 M7.007 6.653 C 7.020 7.300,7.021 7.308,7.141 7.503 C 7.543 8.156,8.457 8.156,8.859 7.503 C 8.979 7.308,8.980 7.300,8.993 6.653 L 9.007 6.000 12.000 6.000 L 14.993 6.000 15.007 6.653 C 15.020 7.300,15.021 7.308,15.141 7.503 C 15.543 8.156,16.457 8.156,16.859 7.503 C 16.979 7.308,16.980 7.300,16.993 6.653 L 17.007 6.000 17.556 6.000 C 18.249 6.000,18.446 6.052,18.697 6.303 C 18.993 6.599,19.000 6.650,19.000 8.447 L 19.000 10.000 12.000 10.000 L 5.000 10.000 5.000 8.447 C 5.000 6.649,5.007 6.599,5.304 6.303 C 5.554 6.053,5.728 6.006,6.427 6.003 L 6.993 6.000 7.007 6.653 M18.440 14.058 C 17.838 14.187,17.375 14.431,16.957 14.839 C 16.601 15.186,16.510 15.362,16.510 15.700 C 16.510 16.008,16.633 16.278,16.855 16.455 C 17.079 16.633,17.247 16.694,17.514 16.691 C 17.804 16.689,18.001 16.601,18.255 16.362 C 18.613 16.027,18.899 15.941,19.284 16.054 C 19.720 16.182,19.978 16.533,19.979 17.000 C 19.980 17.218,19.960 17.295,19.856 17.479 C 19.701 17.752,19.434 17.946,19.169 17.979 C 18.764 18.029,18.565 18.088,18.405 18.205 C 17.835 18.625,17.886 19.502,18.501 19.863 C 18.958 20.131,19.923 19.974,20.622 19.519 C 20.911 19.331,21.369 18.866,21.553 18.575 C 21.851 18.102,22.030 17.365,21.987 16.788 C 21.893 15.520,21.004 14.438,19.780 14.102 C 19.448 14.010,18.765 13.988,18.440 14.058 M18.695 21.057 C 18.466 21.129,18.256 21.299,18.128 21.516 C 18.036 21.672,18.020 21.745,18.021 22.000 C 18.022 22.332,18.101 22.533,18.306 22.728 C 18.785 23.181,19.580 23.046,19.893 22.460 C 20.025 22.211,20.015 21.760,19.872 21.516 C 19.628 21.101,19.150 20.915,18.695 21.057 " stroke="none" fill-rule="evenodd" fill="black"></path></svg>