<svg xmlns="http://www.w3.org/2000/svg" width="24" height="24" viewBox="0 0 24 24" fill="none" stroke="currentColor" stroke-width="2" stroke-linecap="round" stroke-linejoin="round"><path d="M7.695 2.057 C 7.466 2.129,7.256 2.299,7.128 2.516 C 7.025 2.692,7.019 2.728,7.007 3.345 L 6.993 3.991 6.227 4.010 C 5.567 4.027,5.415 4.043,5.139 4.126 C 4.181 4.415,3.420 5.179,3.114 6.160 L 3.020 6.460 3.020 13.000 L 3.020 19.540 3.114 19.840 C 3.422 20.827,4.173 21.578,5.160 21.886 L 5.460 21.980 12.000 21.980 L 18.540 21.980 18.840 21.886 C 19.827 21.578,20.578 20.827,20.886 19.840 L 20.980 19.540 20.980 13.000 L 20.980 6.460 20.886 6.160 C 20.580 5.179,19.819 4.415,18.861 4.126 C 18.585 4.043,18.433 4.027,17.773 4.010 L 17.007 3.991 16.993 3.345 C 16.981 2.726,16.976 2.693,16.871 2.514 C 16.479 1.848,15.521 1.848,15.129 2.514 C 15.024 2.693,15.019 2.726,15.007 3.350 L 14.993 4.000 12.000 4.000 L 9.007 4.000 8.993 3.350 C 8.981 2.728,8.975 2.692,8.872 2.516 C 8.628 2.101,8.150 1.915,7.695 2.057 M7.007 6.653 C 7.020 7.300,7.021 7.308,7.141 7.503 C 7.543 8.156,8.457 8.156,8.859 7.503 C 8.979 7.308,8.980 7.300,8.993 6.653 L 9.007 6.000 12.000 6.000 L 14.993 6.000 15.007 6.653 C 15.020 7.300,15.021 7.308,15.141 7.503 C 15.543 8.156,16.457 8.156,16.859 7.503 C 16.979 7.308,16.980 7.300,16.993 6.653 L 17.007 6.000 17.556 6.000 C 18.249 6.000,18.446 6.052,18.697 6.303 C 18.993 6.599,19.000 6.650,19.000 8.447 L 19.000 10.000 12.000 10.000 L 5.000 10.000 5.000 8.447 C 5.000 6.649,5.007 6.599,5.304 6.303 C 5.554 6.053,5.728 6.006,6.427 6.003 L 6.993 6.000 7.007 6.653 M19.000 15.554 C 19.000 19.410,19.005 19.322,18.779 19.618 C 18.718 19.698,18.585 19.813,18.484 19.872 L 18.300 19.980 12.000 19.980 L 5.700 19.980 5.516 19.872 C 5.415 19.813,5.284 19.700,5.225 19.623 C 4.992 19.317,5.000 19.464,5.000 15.575 L 5.000 12.000 12.000 12.000 L 19.000 12.000 19.000 15.554 M10.695 14.057 C 10.466 14.129,10.256 14.299,10.128 14.516 C 10.036 14.672,10.020 14.746,10.020 15.003 C 10.020 15.271,10.034 15.329,10.141 15.503 C 10.288 15.741,10.577 15.946,10.819 15.982 L 10.996 16.008 11.008 17.157 L 11.020 18.307 11.141 18.503 C 11.543 19.156,12.457 19.156,12.859 18.503 L 12.980 18.306 12.992 16.563 C 13.002 15.016,12.996 14.801,12.937 14.646 C 12.845 14.405,12.657 14.204,12.420 14.094 C 12.234 14.008,12.171 14.001,11.540 14.003 C 11.102 14.005,10.801 14.024,10.695 14.057 " stroke="none" fill-rule="evenodd" fill="black"></path></svg>