<svg xmlns="http://www.w3.org/2000/svg" width="24" height="24" viewBox="0 0 24 24" fill="none" stroke="currentColor" stroke-width="2" stroke-linecap="round" stroke-linejoin="round"><path d="M7.695 2.057 C 7.466 2.129,7.256 2.299,7.128 2.516 C 7.025 2.692,7.019 2.728,7.007 3.345 L 6.993 3.991 6.227 4.010 C 5.567 4.027,5.415 4.043,5.139 4.126 C 4.181 4.415,3.420 5.179,3.114 6.160 L 3.020 6.460 3.020 13.000 L 3.020 19.540 3.114 19.840 C 3.418 20.816,4.149 21.554,5.140 21.886 L 5.420 21.980 9.271 21.991 C 11.824 21.999,13.173 21.989,13.275 21.961 C 13.498 21.901,13.739 21.711,13.867 21.492 C 13.964 21.327,13.980 21.257,13.980 21.000 C 13.980 20.746,13.963 20.672,13.872 20.516 C 13.761 20.328,13.572 20.158,13.373 20.070 C 13.286 20.032,12.383 20.015,9.480 20.000 L 5.700 19.980 5.516 19.872 C 5.415 19.813,5.284 19.700,5.225 19.623 C 4.992 19.317,5.000 19.464,5.000 15.575 L 5.000 12.000 11.997 12.000 L 18.993 12.000 19.007 12.653 C 19.020 13.300,19.021 13.308,19.141 13.503 C 19.543 14.156,20.457 14.156,20.859 13.503 L 20.980 13.306 20.980 9.883 L 20.980 6.460 20.886 6.160 C 20.580 5.179,19.819 4.415,18.861 4.126 C 18.585 4.043,18.433 4.027,17.773 4.010 L 17.007 3.991 16.993 3.345 C 16.981 2.726,16.976 2.693,16.871 2.514 C 16.479 1.848,15.521 1.848,15.129 2.514 C 15.024 2.693,15.019 2.726,15.007 3.350 L 14.993 4.000 12.000 4.000 L 9.007 4.000 8.993 3.350 C 8.981 2.728,8.975 2.692,8.872 2.516 C 8.628 2.101,8.150 1.915,7.695 2.057 M7.007 6.653 C 7.020 7.300,7.021 7.308,7.141 7.503 C 7.543 8.156,8.457 8.156,8.859 7.503 C 8.979 7.308,8.980 7.300,8.993 6.653 L 9.007 6.000 12.000 6.000 L 14.993 6.000 15.007 6.653 C 15.020 7.300,15.021 7.308,15.141 7.503 C 15.543 8.156,16.457 8.156,16.859 7.503 C 16.979 7.308,16.980 7.300,16.993 6.653 L 17.007 6.000 17.556 6.000 C 18.249 6.000,18.446 6.052,18.697 6.303 C 18.993 6.599,19.000 6.650,19.000 8.447 L 19.000 10.000 12.000 10.000 L 5.000 10.000 5.000 8.447 C 5.000 6.649,5.007 6.599,5.304 6.303 C 5.554 6.053,5.728 6.006,6.427 6.003 L 6.993 6.000 7.007 6.653 M16.695 16.057 C 16.466 16.129,16.256 16.299,16.128 16.516 L 16.020 16.700 16.020 19.503 L 16.020 22.306 16.141 22.503 C 16.543 23.156,17.457 23.156,17.859 22.503 L 17.980 22.306 17.980 19.503 L 17.980 16.700 17.872 16.516 C 17.628 16.101,17.150 15.915,16.695 16.057 M20.695 16.057 C 20.466 16.129,20.256 16.299,20.128 16.516 L 20.020 16.700 20.020 19.503 L 20.020 22.306 20.141 22.503 C 20.543 23.156,21.457 23.156,21.859 22.503 L 21.980 22.306 21.980 19.503 L 21.980 16.700 21.872 16.516 C 21.628 16.101,21.150 15.915,20.695 16.057 " stroke="none" fill-rule="evenodd" fill="black"></path></svg>