<svg xmlns="http://www.w3.org/2000/svg" width="24" height="24" viewBox="0 0 24 24" fill="none" stroke="currentColor" stroke-width="2" stroke-linecap="round" stroke-linejoin="round"><path d="M7.695 2.057 C 7.466 2.129,7.256 2.299,7.128 2.516 C 7.025 2.692,7.019 2.728,7.007 3.345 L 6.993 3.991 6.227 4.010 C 5.567 4.027,5.415 4.043,5.139 4.126 C 4.181 4.415,3.420 5.179,3.114 6.160 L 3.020 6.460 3.020 13.000 L 3.020 19.540 3.114 19.840 C 3.418 20.816,4.151 21.555,5.140 21.886 L 5.420 21.979 8.540 21.991 C 12.024 22.005,11.847 22.018,12.173 21.724 C 12.381 21.536,12.488 21.292,12.488 21.003 C 12.488 20.615,12.294 20.298,11.940 20.106 C 11.781 20.021,11.761 20.020,8.740 20.000 L 5.700 19.980 5.516 19.872 C 5.415 19.813,5.284 19.700,5.225 19.623 C 4.992 19.317,5.000 19.464,5.000 15.575 L 5.000 12.000 11.997 12.000 L 18.993 12.000 19.007 12.653 C 19.020 13.300,19.021 13.308,19.141 13.503 C 19.543 14.156,20.457 14.156,20.859 13.503 L 20.980 13.306 20.980 9.883 L 20.980 6.460 20.886 6.160 C 20.580 5.179,19.819 4.415,18.861 4.126 C 18.585 4.043,18.433 4.027,17.773 4.010 L 17.007 3.991 16.993 3.345 C 16.981 2.726,16.976 2.693,16.871 2.514 C 16.479 1.848,15.521 1.848,15.129 2.514 C 15.024 2.693,15.019 2.726,15.007 3.350 L 14.993 4.000 12.000 4.000 L 9.007 4.000 8.993 3.350 C 8.981 2.728,8.975 2.692,8.872 2.516 C 8.628 2.101,8.150 1.915,7.695 2.057 M7.007 6.653 C 7.020 7.300,7.021 7.308,7.141 7.503 C 7.543 8.156,8.457 8.156,8.859 7.503 C 8.979 7.308,8.980 7.300,8.993 6.653 L 9.007 6.000 12.000 6.000 L 14.993 6.000 15.007 6.653 C 15.020 7.300,15.021 7.308,15.141 7.503 C 15.543 8.156,16.457 8.156,16.859 7.503 C 16.979 7.308,16.980 7.300,16.993 6.653 L 17.007 6.000 17.556 6.000 C 18.249 6.000,18.446 6.052,18.697 6.303 C 18.993 6.599,19.000 6.650,19.000 8.447 L 19.000 10.000 12.000 10.000 L 5.000 10.000 5.000 8.447 C 5.000 6.649,5.007 6.599,5.304 6.303 C 5.554 6.053,5.728 6.006,6.427 6.003 L 6.993 6.000 7.007 6.653 M20.640 16.068 C 20.488 16.121,20.196 16.394,18.731 17.853 L 17.002 19.575 16.271 18.855 C 15.655 18.247,15.509 18.123,15.343 18.067 C 14.865 17.905,14.383 18.083,14.128 18.516 C 14.036 18.672,14.020 18.745,14.021 19.000 C 14.021 19.213,14.043 19.341,14.095 19.440 C 14.197 19.633,16.297 21.740,16.520 21.873 C 16.673 21.964,16.745 21.980,17.000 21.979 C 17.212 21.979,17.341 21.957,17.440 21.905 C 17.632 21.805,21.739 17.705,21.873 17.480 C 21.964 17.328,21.980 17.254,21.980 17.000 C 21.980 16.746,21.963 16.672,21.872 16.516 C 21.617 16.083,21.121 15.903,20.640 16.068 " stroke="none" fill-rule="evenodd" fill="black"></path></svg>