<svg xmlns="http://www.w3.org/2000/svg" width="24" height="24" viewBox="0 0 24 24" fill="none" stroke="currentColor" stroke-width="2" stroke-linecap="round" stroke-linejoin="round"><path d="M7.695 2.057 C 7.466 2.129,7.256 2.299,7.128 2.516 C 7.025 2.692,7.019 2.728,7.007 3.345 L 6.993 3.991 6.227 4.010 C 5.567 4.027,5.415 4.043,5.139 4.126 C 4.181 4.415,3.420 5.179,3.114 6.160 L 3.020 6.460 3.020 13.000 L 3.020 19.540 3.114 19.840 C 3.418 20.816,4.149 21.554,5.140 21.886 L 5.420 21.980 9.540 21.991 C 14.139 22.004,13.843 22.021,14.173 21.724 C 14.381 21.536,14.488 21.292,14.488 21.003 C 14.488 20.615,14.294 20.298,13.940 20.106 L 13.780 20.020 9.740 20.000 L 5.700 19.980 5.516 19.872 C 5.415 19.813,5.284 19.700,5.225 19.623 C 4.992 19.317,5.000 19.464,5.000 15.575 L 5.000 12.000 11.995 12.000 L 18.991 12.000 19.018 12.179 C 19.054 12.422,19.258 12.712,19.497 12.859 C 19.671 12.966,19.729 12.980,19.997 12.980 C 20.257 12.980,20.327 12.964,20.492 12.867 C 20.711 12.738,20.901 12.498,20.962 12.273 C 20.989 12.171,20.999 11.156,20.991 9.269 L 20.979 6.420 20.885 6.140 C 20.558 5.157,19.808 4.412,18.861 4.126 C 18.585 4.043,18.433 4.027,17.773 4.010 L 17.007 3.991 16.993 3.345 C 16.981 2.726,16.976 2.693,16.871 2.514 C 16.479 1.848,15.521 1.848,15.129 2.514 C 15.024 2.693,15.019 2.726,15.007 3.350 L 14.993 4.000 12.000 4.000 L 9.007 4.000 8.993 3.350 C 8.981 2.728,8.975 2.692,8.872 2.516 C 8.628 2.101,8.150 1.915,7.695 2.057 M7.007 6.653 C 7.020 7.300,7.021 7.308,7.141 7.503 C 7.543 8.156,8.457 8.156,8.859 7.503 C 8.979 7.308,8.980 7.300,8.993 6.653 L 9.007 6.000 12.000 6.000 L 14.993 6.000 15.007 6.653 C 15.020 7.300,15.021 7.308,15.141 7.503 C 15.543 8.156,16.457 8.156,16.859 7.503 C 16.979 7.308,16.980 7.300,16.993 6.653 L 17.007 6.000 17.556 6.000 C 18.249 6.000,18.446 6.052,18.697 6.303 C 18.993 6.599,19.000 6.650,19.000 8.447 L 19.000 10.000 12.000 10.000 L 5.000 10.000 5.000 8.447 C 5.000 6.649,5.007 6.599,5.304 6.303 C 5.554 6.053,5.728 6.006,6.427 6.003 L 6.993 6.000 7.007 6.653 M18.668 15.061 C 18.585 15.092,18.462 15.156,18.395 15.203 C 18.260 15.300,16.136 18.454,16.054 18.680 C 15.893 19.127,16.117 19.673,16.550 19.886 C 16.733 19.977,16.784 19.981,17.930 20.000 L 19.120 20.020 18.600 20.800 C 17.971 21.741,17.914 21.905,18.061 22.322 C 18.284 22.955,18.992 23.187,19.570 22.815 C 19.686 22.741,19.972 22.342,20.805 21.093 C 21.401 20.198,21.917 19.387,21.950 19.289 C 22.074 18.926,21.931 18.460,21.625 18.226 C 21.365 18.028,21.326 18.023,20.070 18.001 L 18.880 17.980 19.383 17.225 C 19.660 16.810,19.912 16.399,19.943 16.310 C 20.212 15.550,19.428 14.782,18.668 15.061 " stroke="none" fill-rule="evenodd" fill="black"></path></svg>