<svg xmlns="http://www.w3.org/2000/svg" width="24" height="24" viewBox="0 0 24 24" fill="none" stroke="currentColor" stroke-width="2" stroke-linecap="round" stroke-linejoin="round"><path d="M7.695 2.057 C 7.466 2.129,7.256 2.299,7.128 2.516 C 7.025 2.692,7.019 2.728,7.007 3.345 L 6.993 3.991 6.227 4.010 C 5.567 4.027,5.415 4.043,5.139 4.126 C 4.181 4.415,3.420 5.179,3.114 6.160 L 3.020 6.460 3.020 13.000 L 3.020 19.540 3.114 19.840 C 3.418 20.816,4.150 21.554,5.140 21.886 L 5.420 21.980 9.040 21.991 C 13.081 22.004,12.845 22.020,13.173 21.724 C 13.381 21.536,13.488 21.292,13.488 21.003 C 13.488 20.615,13.294 20.298,12.940 20.106 C 12.780 20.020,12.774 20.020,9.240 20.000 L 5.700 19.980 5.516 19.872 C 5.415 19.813,5.284 19.700,5.225 19.623 C 4.992 19.317,5.000 19.464,5.000 15.575 L 5.000 12.000 10.590 11.998 C 15.155 11.997,16.208 11.987,16.330 11.943 C 16.551 11.864,16.744 11.702,16.869 11.489 C 16.964 11.328,16.980 11.256,16.980 11.000 C 16.980 10.746,16.963 10.672,16.872 10.516 C 16.740 10.293,16.533 10.128,16.290 10.055 C 16.139 10.010,15.144 10.000,10.554 10.000 L 5.000 10.000 5.000 8.447 C 5.000 6.650,5.007 6.599,5.303 6.303 C 5.554 6.052,5.751 6.000,6.444 6.000 L 6.993 6.000 7.007 6.653 C 7.020 7.300,7.021 7.308,7.141 7.503 C 7.543 8.156,8.457 8.156,8.859 7.503 C 8.979 7.308,8.980 7.300,8.993 6.653 L 9.007 6.000 12.000 6.000 L 14.993 6.000 15.007 6.653 C 15.020 7.300,15.021 7.308,15.141 7.503 C 15.543 8.156,16.457 8.156,16.859 7.503 C 16.979 7.308,16.980 7.300,16.993 6.653 L 17.007 6.000 17.556 6.000 C 18.230 6.000,18.442 6.053,18.679 6.283 C 18.986 6.582,18.978 6.523,19.000 8.523 L 19.020 10.306 19.141 10.503 C 19.543 11.156,20.457 11.156,20.859 10.503 L 20.980 10.306 20.980 8.383 C 20.980 6.478,20.979 6.457,20.886 6.160 C 20.580 5.179,19.819 4.415,18.861 4.126 C 18.585 4.043,18.433 4.027,17.773 4.010 L 17.007 3.991 16.993 3.345 C 16.981 2.726,16.976 2.693,16.871 2.514 C 16.479 1.848,15.521 1.848,15.129 2.514 C 15.024 2.693,15.019 2.726,15.007 3.350 L 14.993 4.000 12.000 4.000 L 9.007 4.000 8.993 3.350 C 8.981 2.728,8.975 2.692,8.872 2.516 C 8.628 2.101,8.150 1.915,7.695 2.057 M19.670 13.061 C 19.448 13.142,19.250 13.309,19.128 13.516 C 19.036 13.672,19.020 13.745,19.021 14.000 C 19.022 14.352,19.076 14.476,19.365 14.782 L 19.561 14.988 18.970 15.012 C 18.062 15.048,17.497 15.218,16.820 15.658 C 15.973 16.209,15.419 16.972,15.135 17.980 C 15.033 18.340,15.022 18.442,15.022 19.000 C 15.021 19.692,15.080 19.989,15.335 20.594 C 15.764 21.611,16.669 22.439,17.740 22.795 C 18.972 23.204,20.361 22.979,21.387 22.204 C 21.732 21.944,21.856 21.799,21.942 21.553 C 22.151 20.963,21.739 20.317,21.112 20.253 C 20.807 20.222,20.616 20.289,20.244 20.557 C 19.861 20.834,19.539 20.957,19.116 20.988 C 17.787 21.087,16.724 19.790,17.077 18.502 C 17.238 17.916,17.603 17.468,18.128 17.212 C 18.433 17.063,18.760 17.001,19.236 17.000 L 19.572 17.000 19.371 17.212 C 19.121 17.477,19.039 17.632,19.012 17.895 C 18.971 18.295,19.158 18.662,19.508 18.867 C 19.673 18.964,19.742 18.980,20.000 18.979 C 20.213 18.979,20.341 18.957,20.440 18.905 C 20.517 18.864,21.081 18.334,21.694 17.726 C 22.920 16.510,22.999 16.405,22.999 16.000 C 22.999 15.593,22.922 15.491,21.675 14.256 C 20.683 13.273,20.515 13.124,20.343 13.066 C 20.108 12.987,19.875 12.985,19.670 13.061 " stroke="none" fill-rule="evenodd" fill="black"></path></svg>