<svg xmlns="http://www.w3.org/2000/svg" width="24" height="24" viewBox="0 0 24 24" fill="none" stroke="currentColor" stroke-width="2" stroke-linecap="round" stroke-linejoin="round"><path d="M6.695 2.057 C 6.466 2.129,6.256 2.299,6.128 2.516 C 6.025 2.692,6.019 2.728,6.007 3.345 L 5.993 3.991 5.227 4.010 C 4.567 4.027,4.415 4.043,4.139 4.126 C 3.181 4.415,2.420 5.179,2.114 6.160 L 2.020 6.460 2.020 13.000 L 2.020 19.540 2.114 19.840 C 2.418 20.816,3.150 21.554,4.140 21.886 L 4.420 21.980 8.176 21.991 C 12.417 22.004,12.173 22.021,12.496 21.698 C 12.685 21.509,12.800 21.244,12.800 21.000 C 12.800 20.642,12.558 20.267,12.218 20.098 C 12.065 20.023,11.934 20.019,8.380 20.000 L 4.700 19.980 4.516 19.872 C 4.415 19.813,4.284 19.700,4.225 19.623 C 3.992 19.317,4.000 19.464,4.000 15.575 L 4.000 12.000 11.610 12.000 L 19.220 11.999 19.420 11.906 C 19.657 11.795,19.845 11.595,19.937 11.353 C 19.998 11.195,20.003 10.947,19.991 8.799 C 19.978 6.433,19.978 6.418,19.885 6.140 C 19.559 5.159,18.808 4.412,17.861 4.126 C 17.585 4.043,17.433 4.027,16.773 4.010 L 16.007 3.991 15.993 3.345 C 15.981 2.726,15.976 2.693,15.871 2.514 C 15.479 1.848,14.521 1.848,14.129 2.514 C 14.024 2.693,14.019 2.726,14.007 3.350 L 13.993 4.000 11.000 4.000 L 8.007 4.000 7.993 3.350 C 7.981 2.728,7.975 2.692,7.872 2.516 C 7.628 2.101,7.150 1.915,6.695 2.057 M6.007 6.653 C 6.020 7.300,6.021 7.308,6.141 7.503 C 6.543 8.156,7.457 8.156,7.859 7.503 C 7.979 7.308,7.980 7.300,7.993 6.653 L 8.007 6.000 11.000 6.000 L 13.993 6.000 14.007 6.653 C 14.020 7.300,14.021 7.308,14.141 7.503 C 14.543 8.156,15.457 8.156,15.859 7.503 C 15.979 7.308,15.980 7.300,15.993 6.653 L 16.007 6.000 16.556 6.000 C 17.249 6.000,17.446 6.052,17.697 6.303 C 17.993 6.599,18.000 6.650,18.000 8.447 L 18.000 10.000 11.000 10.000 L 4.000 10.000 4.000 8.447 C 4.000 6.649,4.007 6.599,4.304 6.303 C 4.554 6.053,4.728 6.006,5.427 6.003 L 5.993 6.000 6.007 6.653 M17.400 13.044 C 15.761 13.229,14.261 14.290,13.526 15.785 C 13.158 16.533,13.020 17.136,13.020 18.000 C 13.020 18.670,13.078 19.044,13.268 19.600 C 13.846 21.291,15.253 22.525,17.040 22.907 C 17.511 23.008,18.489 23.008,18.960 22.907 C 20.488 22.580,21.748 21.630,22.433 20.288 C 22.838 19.494,22.980 18.899,22.980 18.000 C 22.980 17.101,22.838 16.506,22.433 15.713 C 21.794 14.461,20.604 13.510,19.240 13.162 C 18.669 13.016,18.019 12.974,17.400 13.044 M17.075 18.400 C 17.194 18.615,17.331 18.763,17.511 18.869 L 17.700 18.980 19.274 19.000 L 20.847 19.020 20.683 19.340 C 20.302 20.081,19.640 20.637,18.840 20.886 C 18.588 20.964,18.453 20.979,18.000 20.979 C 17.547 20.979,17.412 20.964,17.160 20.886 C 16.181 20.581,15.418 19.822,15.125 18.861 C 15.042 18.588,15.027 18.458,15.027 18.000 C 15.027 17.542,15.042 17.412,15.125 17.139 C 15.361 16.363,15.925 15.695,16.660 15.317 L 16.980 15.153 17.000 16.726 C 17.016 17.957,17.032 18.322,17.075 18.400 M19.460 15.380 C 20.022 15.695,20.586 16.332,20.797 16.890 L 20.838 17.000 19.919 17.000 L 19.000 17.000 19.000 16.081 L 19.000 15.162 19.110 15.203 C 19.171 15.226,19.328 15.306,19.460 15.380 " stroke="none" fill-rule="evenodd" fill="black"></path></svg>