<svg xmlns="http://www.w3.org/2000/svg" width="24" height="24" viewBox="0 0 24 24" fill="none" stroke="currentColor" stroke-width="2" stroke-linecap="round" stroke-linejoin="round"><path d="M7.695 2.057 C 7.466 2.129,7.256 2.299,7.128 2.516 C 7.025 2.692,7.019 2.728,7.007 3.345 L 6.993 3.991 6.227 4.010 C 5.567 4.027,5.415 4.043,5.139 4.126 C 4.181 4.415,3.420 5.179,3.114 6.160 L 3.020 6.460 3.020 13.000 L 3.020 19.540 3.114 19.840 C 3.422 20.827,4.173 21.578,5.160 21.886 L 5.460 21.980 12.000 21.980 L 18.540 21.980 18.840 21.886 C 19.827 21.578,20.578 20.827,20.886 19.840 L 20.980 19.540 20.980 13.000 L 20.980 6.460 20.886 6.160 C 20.580 5.179,19.819 4.415,18.861 4.126 C 18.585 4.043,18.433 4.027,17.773 4.010 L 17.007 3.991 16.993 3.345 C 16.981 2.726,16.976 2.693,16.871 2.514 C 16.479 1.848,15.521 1.848,15.129 2.514 C 15.024 2.693,15.019 2.726,15.007 3.350 L 14.993 4.000 12.000 4.000 L 9.007 4.000 8.993 3.350 C 8.981 2.728,8.975 2.692,8.872 2.516 C 8.628 2.101,8.150 1.915,7.695 2.057 M7.007 6.653 C 7.020 7.300,7.021 7.308,7.141 7.503 C 7.543 8.156,8.457 8.156,8.859 7.503 C 8.979 7.308,8.980 7.300,8.993 6.653 L 9.007 6.000 12.000 6.000 L 14.993 6.000 15.007 6.653 C 15.020 7.300,15.021 7.308,15.141 7.503 C 15.543 8.156,16.457 8.156,16.859 7.503 C 16.979 7.308,16.980 7.300,16.993 6.653 L 17.007 6.000 17.556 6.000 C 18.249 6.000,18.446 6.052,18.697 6.303 C 18.993 6.599,19.000 6.650,19.000 8.447 L 19.000 10.000 12.000 10.000 L 5.000 10.000 5.000 8.447 C 5.000 6.649,5.007 6.599,5.304 6.303 C 5.554 6.053,5.728 6.006,6.427 6.003 L 6.993 6.000 7.007 6.653 M19.000 15.554 C 19.000 19.410,19.005 19.322,18.779 19.618 C 18.718 19.698,18.585 19.813,18.484 19.872 L 18.300 19.980 12.000 19.980 L 5.700 19.980 5.516 19.872 C 5.415 19.813,5.284 19.700,5.225 19.623 C 4.992 19.317,5.000 19.464,5.000 15.575 L 5.000 12.000 12.000 12.000 L 19.000 12.000 19.000 15.554 M9.726 13.043 C 8.993 13.267,8.765 14.159,9.303 14.697 C 9.724 15.118,10.385 15.091,10.772 14.638 C 10.990 14.384,11.058 14.032,10.960 13.677 C 10.907 13.489,10.671 13.217,10.469 13.114 C 10.281 13.018,9.920 12.984,9.726 13.043 M13.726 13.043 C 12.993 13.267,12.765 14.159,13.303 14.697 C 13.724 15.118,14.385 15.091,14.772 14.638 C 14.990 14.384,15.058 14.032,14.960 13.677 C 14.907 13.489,14.671 13.217,14.469 13.114 C 14.281 13.018,13.920 12.984,13.726 13.043 M9.652 16.063 C 9.560 16.097,9.415 16.192,9.331 16.274 C 9.039 16.558,8.944 16.907,9.055 17.289 C 9.136 17.569,9.332 17.775,9.748 18.018 C 11.042 18.777,12.632 18.830,13.980 18.160 C 14.725 17.790,14.951 17.544,14.990 17.060 C 15.008 16.837,14.996 16.773,14.903 16.582 C 14.726 16.222,14.368 15.996,13.983 16.003 C 13.787 16.007,13.664 16.052,13.312 16.252 C 12.775 16.557,12.229 16.676,11.700 16.603 C 11.308 16.548,11.025 16.445,10.635 16.217 C 10.367 16.060,10.278 16.028,10.068 16.016 C 9.910 16.007,9.759 16.024,9.652 16.063 " stroke="none" fill-rule="evenodd" fill="black"></path></svg>