<svg xmlns="http://www.w3.org/2000/svg" width="24" height="24" viewBox="0 0 24 24" fill="none" stroke="currentColor" stroke-width="2" stroke-linecap="round" stroke-linejoin="round"><path d="M8.477 3.073 C 7.806 3.249,7.238 3.823,7.060 4.508 C 7.027 4.634,7.000 4.820,7.000 4.922 C 7.000 5.332,6.811 5.680,6.484 5.872 C 6.303 5.978,6.286 5.980,5.380 6.005 C 4.569 6.027,4.422 6.041,4.139 6.126 C 3.183 6.413,2.420 7.179,2.114 8.160 L 2.020 8.460 2.020 13.500 L 2.020 18.540 2.114 18.840 C 2.418 19.816,3.149 20.554,4.140 20.886 L 4.420 20.980 8.271 20.991 C 10.824 20.999,12.173 20.989,12.275 20.961 C 12.498 20.901,12.739 20.711,12.867 20.492 C 12.964 20.327,12.980 20.257,12.980 20.000 C 12.980 19.746,12.963 19.672,12.872 19.516 C 12.761 19.328,12.572 19.158,12.373 19.070 C 12.286 19.032,11.383 19.015,8.480 19.000 L 4.700 18.980 4.516 18.872 C 4.415 18.813,4.284 18.700,4.225 18.623 C 3.989 18.314,4.000 18.562,4.000 13.522 C 4.000 8.339,3.984 8.630,4.283 8.321 C 4.552 8.044,4.623 8.028,5.660 7.997 C 6.452 7.974,6.619 7.958,6.860 7.881 C 8.030 7.509,8.877 6.480,8.984 5.302 L 9.011 5.000 12.000 5.000 L 14.989 5.000 15.016 5.302 C 15.123 6.480,15.970 7.509,17.140 7.881 C 17.381 7.958,17.548 7.974,18.340 7.997 C 19.364 8.027,19.442 8.045,19.699 8.301 C 19.984 8.587,19.978 8.539,20.000 10.523 L 20.020 12.306 20.141 12.503 C 20.543 13.156,21.457 13.156,21.859 12.503 L 21.980 12.306 21.980 10.383 C 21.980 8.478,21.979 8.457,21.886 8.160 C 21.580 7.179,20.817 6.413,19.861 6.126 C 19.578 6.041,19.431 6.027,18.620 6.005 C 17.714 5.980,17.697 5.978,17.516 5.872 C 17.197 5.684,17.001 5.340,16.999 4.965 C 16.999 4.713,16.901 4.319,16.781 4.083 C 16.646 3.816,16.297 3.449,16.017 3.281 C 15.548 2.999,15.636 3.005,12.000 3.005 C 9.047 3.005,8.715 3.011,8.477 3.073 M11.423 9.044 C 10.775 9.139,10.122 9.413,9.587 9.816 C 8.638 10.530,8.071 11.610,8.012 12.820 C 7.985 13.360,8.038 13.722,8.226 14.287 C 8.653 15.572,9.685 16.528,11.022 16.878 C 11.418 16.982,12.042 17.025,12.264 16.965 C 12.498 16.901,12.737 16.714,12.867 16.492 C 12.964 16.327,12.980 16.257,12.980 16.000 C 12.980 15.746,12.963 15.672,12.872 15.516 C 12.680 15.190,12.333 15.001,11.924 15.000 C 11.375 14.998,10.691 14.623,10.365 14.146 C 10.081 13.730,9.948 13.130,10.036 12.660 C 10.139 12.108,10.544 11.529,11.006 11.273 C 11.819 10.823,12.751 10.949,13.401 11.599 C 13.847 12.045,14.005 12.491,13.990 13.260 C 13.982 13.680,14.007 13.770,14.216 14.054 C 14.419 14.329,14.887 14.464,15.269 14.358 C 15.511 14.290,15.852 13.965,15.919 13.736 C 15.993 13.485,16.016 12.805,15.963 12.443 C 15.802 11.346,15.173 10.326,14.284 9.723 C 13.439 9.150,12.396 8.902,11.423 9.044 M18.617 14.577 C 18.415 14.665,18.193 14.886,18.094 15.100 C 18.015 15.270,18.001 15.364,18.000 15.724 L 18.000 16.148 17.708 16.292 C 17.548 16.371,17.334 16.499,17.233 16.576 L 17.050 16.716 16.664 16.503 C 16.211 16.253,15.998 16.209,15.686 16.302 C 15.161 16.458,14.862 17.002,15.014 17.526 C 15.098 17.815,15.269 17.998,15.677 18.238 L 16.014 18.436 16.017 19.002 L 16.020 19.567 15.649 19.786 C 15.230 20.032,15.075 20.208,14.999 20.524 C 14.876 21.035,15.183 21.552,15.700 21.702 C 16.043 21.802,16.254 21.745,16.876 21.388 L 17.053 21.286 17.235 21.425 C 17.335 21.501,17.548 21.629,17.708 21.708 L 18.000 21.852 18.000 22.276 C 18.001 22.638,18.015 22.729,18.095 22.900 C 18.276 23.281,18.595 23.488,19.000 23.488 C 19.405 23.488,19.724 23.281,19.905 22.900 C 19.986 22.729,19.999 22.639,20.000 22.274 L 20.000 21.848 20.269 21.721 C 20.418 21.652,20.633 21.524,20.749 21.437 L 20.959 21.278 21.120 21.380 C 21.666 21.725,21.988 21.810,22.323 21.699 C 22.828 21.531,23.121 21.024,23.001 20.524 C 22.926 20.210,22.771 20.034,22.352 19.784 L 21.980 19.562 21.983 18.999 L 21.986 18.436 22.323 18.238 C 22.731 17.998,22.902 17.815,22.986 17.526 C 23.138 17.002,22.839 16.458,22.314 16.302 C 22.002 16.209,21.789 16.253,21.336 16.503 L 20.950 16.716 20.767 16.576 C 20.666 16.499,20.452 16.371,20.292 16.292 L 20.000 16.148 20.000 15.724 C 19.999 15.362,19.985 15.271,19.905 15.100 C 19.793 14.865,19.599 14.669,19.391 14.582 C 19.210 14.506,18.785 14.503,18.617 14.577 M19.260 18.044 C 19.497 18.107,19.701 18.263,19.849 18.494 C 19.968 18.679,19.980 18.727,19.980 19.003 C 19.980 19.287,19.970 19.322,19.831 19.531 C 19.613 19.859,19.389 19.980,19.000 19.979 C 18.665 19.978,18.526 19.923,18.308 19.705 C 18.104 19.501,18.022 19.300,18.022 19.000 C 18.022 18.334,18.621 17.871,19.260 18.044 " stroke="none" fill-rule="evenodd" fill="black"></path></svg>