<svg xmlns="http://www.w3.org/2000/svg" width="24" height="24" viewBox="0 0 24 24" fill="none" stroke="currentColor" stroke-width="2" stroke-linecap="round" stroke-linejoin="round"><path d="M8.477 3.073 C 7.806 3.249,7.238 3.823,7.060 4.508 C 7.027 4.634,7.000 4.820,7.000 4.922 C 7.000 5.332,6.811 5.680,6.484 5.872 C 6.303 5.978,6.286 5.980,5.380 6.005 C 4.569 6.027,4.422 6.041,4.139 6.126 C 3.183 6.413,2.420 7.179,2.114 8.160 L 2.020 8.460 2.020 13.500 L 2.020 18.540 2.114 18.840 C 2.418 19.816,3.149 20.554,4.140 20.886 L 4.420 20.980 8.771 20.991 C 11.657 20.999,13.174 20.989,13.275 20.961 C 13.498 20.901,13.739 20.710,13.867 20.492 C 13.964 20.327,13.980 20.257,13.980 20.000 C 13.980 19.746,13.963 19.672,13.872 19.516 C 13.761 19.328,13.572 19.158,13.373 19.070 C 13.286 19.031,12.284 19.015,8.980 19.000 L 4.700 18.980 4.516 18.872 C 4.415 18.813,4.284 18.700,4.225 18.623 C 3.989 18.314,4.000 18.562,4.000 13.522 C 4.000 8.339,3.984 8.630,4.283 8.321 C 4.552 8.044,4.623 8.028,5.660 7.997 C 6.452 7.974,6.619 7.958,6.860 7.881 C 8.030 7.509,8.877 6.480,8.984 5.302 L 9.011 5.000 12.000 5.000 L 14.989 5.000 15.016 5.302 C 15.123 6.480,15.970 7.509,17.140 7.881 C 17.381 7.958,17.548 7.974,18.340 7.997 C 19.377 8.028,19.448 8.044,19.717 8.321 C 19.970 8.582,20.000 8.739,20.000 9.797 C 20.001 10.663,20.005 10.708,20.095 10.900 C 20.276 11.282,20.595 11.488,21.003 11.488 C 21.292 11.488,21.536 11.381,21.724 11.173 C 21.997 10.870,22.010 10.789,21.991 9.534 C 21.975 8.511,21.967 8.397,21.883 8.140 C 21.567 7.166,20.808 6.411,19.861 6.126 C 19.578 6.041,19.431 6.027,18.620 6.005 C 17.714 5.980,17.697 5.978,17.516 5.872 C 17.197 5.684,17.001 5.340,16.999 4.965 C 16.999 4.713,16.901 4.319,16.781 4.083 C 16.646 3.816,16.297 3.449,16.017 3.281 C 15.548 2.999,15.636 3.005,12.000 3.005 C 9.047 3.005,8.715 3.011,8.477 3.073 M11.340 9.057 C 10.512 9.200,9.776 9.581,9.177 10.178 C 8.655 10.699,8.317 11.286,8.110 12.033 C 7.986 12.482,7.986 13.480,8.110 13.949 C 8.310 14.708,8.644 15.288,9.198 15.842 C 9.765 16.409,10.411 16.750,11.245 16.922 C 11.979 17.074,12.947 16.974,13.506 16.687 C 13.804 16.535,14.040 16.149,14.040 15.814 C 14.040 15.587,13.890 15.259,13.714 15.099 C 13.399 14.814,13.101 14.768,12.542 14.916 C 12.030 15.052,11.595 15.012,11.100 14.784 C 10.698 14.599,10.285 14.126,10.112 13.650 C 9.981 13.293,9.990 12.670,10.131 12.310 C 10.328 11.806,10.662 11.437,11.126 11.211 C 11.874 10.848,12.706 10.965,13.331 11.522 C 13.613 11.774,13.767 12.018,13.910 12.440 C 14.060 12.884,14.132 13.015,14.292 13.137 C 14.832 13.549,15.573 13.379,15.845 12.781 C 16.136 12.141,15.514 10.737,14.597 9.966 C 14.089 9.538,13.564 9.268,12.949 9.118 C 12.518 9.013,11.765 8.984,11.340 9.057 M18.695 13.057 C 18.342 13.168,18.095 13.451,18.019 13.835 L 17.976 14.050 17.757 14.118 C 17.003 14.351,16.361 14.980,16.118 15.722 C 16.034 15.976,16.020 16.094,16.022 16.520 C 16.024 16.960,16.038 17.056,16.133 17.320 C 16.394 18.039,16.964 18.609,17.680 18.867 C 17.961 18.968,18.033 18.976,18.800 18.992 C 19.702 19.010,19.786 19.030,19.922 19.252 C 20.021 19.415,20.021 19.585,19.922 19.748 C 19.770 19.996,19.746 20.000,18.248 20.000 C 16.774 20.000,16.653 20.014,16.382 20.221 C 16.302 20.282,16.187 20.415,16.128 20.516 C 16.037 20.672,16.020 20.746,16.020 21.000 C 16.020 21.256,16.036 21.328,16.131 21.489 C 16.256 21.702,16.449 21.864,16.670 21.943 C 16.768 21.978,17.022 21.997,17.405 21.998 L 17.991 22.000 18.018 22.179 C 18.054 22.422,18.258 22.712,18.497 22.859 C 18.671 22.966,18.729 22.980,19.000 22.980 C 19.271 22.980,19.329 22.966,19.503 22.859 C 19.752 22.706,19.949 22.419,19.984 22.160 L 20.010 21.966 20.294 21.873 C 21.001 21.642,21.605 21.046,21.868 20.320 C 21.965 20.052,21.976 19.965,21.976 19.500 C 21.976 19.035,21.965 18.948,21.868 18.680 C 21.646 18.068,21.195 17.561,20.620 17.277 C 20.172 17.055,19.869 17.002,19.068 17.001 C 18.319 17.000,18.216 16.974,18.078 16.748 C 17.932 16.508,18.023 16.193,18.276 16.062 C 18.377 16.010,18.612 16.000,19.788 15.998 C 21.285 15.996,21.350 15.989,21.619 15.783 C 21.696 15.725,21.808 15.592,21.869 15.489 C 21.964 15.328,21.980 15.256,21.980 15.000 C 21.980 14.746,21.963 14.672,21.872 14.516 C 21.634 14.111,21.351 14.000,20.559 14.000 L 20.010 14.000 19.983 13.830 C 19.926 13.473,19.648 13.163,19.290 13.055 C 19.068 12.988,18.913 12.989,18.695 13.057 " stroke="none" fill-rule="evenodd" fill="black"></path></svg>