<svg xmlns="http://www.w3.org/2000/svg" width="24" height="24" viewBox="0 0 24 24" fill="none" stroke="currentColor" stroke-width="2" stroke-linecap="round" stroke-linejoin="round"><path d="M8.477 3.073 C 7.806 3.249,7.238 3.823,7.060 4.508 C 7.027 4.634,7.000 4.820,7.000 4.922 C 7.000 5.332,6.811 5.680,6.484 5.872 C 6.303 5.978,6.286 5.980,5.380 6.005 C 4.569 6.027,4.422 6.041,4.139 6.126 C 3.183 6.413,2.420 7.179,2.114 8.160 L 2.020 8.460 2.020 13.500 L 2.020 18.540 2.114 18.840 C 2.418 19.816,3.150 20.554,4.140 20.886 L 4.420 20.980 8.040 20.991 C 12.081 21.004,11.845 21.020,12.173 20.724 C 12.381 20.536,12.488 20.292,12.488 20.003 C 12.488 19.615,12.294 19.298,11.940 19.106 C 11.780 19.020,11.774 19.020,8.240 19.000 L 4.700 18.980 4.516 18.872 C 4.415 18.813,4.284 18.700,4.225 18.623 C 3.989 18.314,4.000 18.562,4.000 13.522 C 4.000 8.339,3.984 8.630,4.283 8.321 C 4.552 8.044,4.623 8.028,5.660 7.997 C 6.452 7.974,6.619 7.958,6.860 7.881 C 8.030 7.509,8.877 6.480,8.984 5.302 L 9.011 5.000 12.000 5.000 L 14.989 5.000 15.016 5.302 C 15.123 6.480,15.970 7.509,17.140 7.881 C 17.381 7.958,17.548 7.974,18.340 7.997 C 19.364 8.027,19.442 8.045,19.699 8.301 C 19.984 8.587,19.978 8.539,20.000 10.523 L 20.020 12.306 20.141 12.503 C 20.543 13.156,21.457 13.156,21.859 12.503 L 21.980 12.306 21.980 10.383 C 21.980 8.478,21.979 8.457,21.886 8.160 C 21.580 7.179,20.817 6.413,19.861 6.126 C 19.578 6.041,19.431 6.027,18.620 6.005 C 17.714 5.980,17.697 5.978,17.516 5.872 C 17.197 5.684,17.001 5.340,16.999 4.965 C 16.999 4.713,16.901 4.319,16.781 4.083 C 16.646 3.816,16.297 3.449,16.017 3.281 C 15.548 2.999,15.636 3.005,12.000 3.005 C 9.047 3.005,8.715 3.011,8.477 3.073 M11.358 9.061 C 10.230 9.237,9.143 9.974,8.569 10.953 C 7.320 13.083,8.233 15.785,10.512 16.704 C 12.558 17.528,14.877 16.538,15.704 14.488 C 16.090 13.530,16.090 12.469,15.705 11.516 C 15.172 10.197,14.001 9.269,12.605 9.058 C 12.144 8.989,11.816 8.990,11.358 9.061 M12.523 11.073 C 13.262 11.266,13.850 11.924,13.967 12.690 C 14.067 13.343,13.873 13.933,13.403 14.404 C 13.002 14.807,12.547 15.000,12.000 15.000 C 11.485 15.000,11.038 14.822,10.653 14.465 C 9.323 13.229,10.189 11.005,12.000 11.005 C 12.143 11.005,12.378 11.036,12.523 11.073 M18.617 14.577 C 18.438 14.655,18.206 14.870,18.123 15.036 C 18.084 15.115,18.011 15.314,17.962 15.478 C 17.609 16.656,16.655 17.611,15.480 17.962 C 15.075 18.083,14.921 18.165,14.752 18.352 C 14.420 18.720,14.420 19.280,14.752 19.648 C 14.920 19.834,15.074 19.917,15.478 20.038 C 16.687 20.400,17.610 21.343,17.987 22.600 C 18.076 22.898,18.131 23.008,18.270 23.163 C 18.672 23.610,19.328 23.610,19.730 23.163 C 19.869 23.008,19.924 22.898,20.013 22.600 C 20.399 21.311,21.311 20.399,22.600 20.013 C 22.898 19.924,23.008 19.869,23.163 19.730 C 23.574 19.360,23.612 18.754,23.248 18.352 C 23.079 18.165,22.925 18.083,22.520 17.962 C 21.314 17.602,20.390 16.658,20.014 15.402 C 19.832 14.793,19.515 14.518,18.997 14.522 C 18.856 14.522,18.685 14.547,18.617 14.577 M19.194 18.057 C 19.373 18.282,19.740 18.644,20.020 18.873 L 20.180 19.004 20.020 19.130 C 19.818 19.288,19.295 19.809,19.127 20.019 L 19.000 20.178 18.873 20.019 C 18.705 19.809,18.182 19.288,17.980 19.130 L 17.820 19.004 17.980 18.873 C 18.260 18.644,18.627 18.282,18.806 18.057 C 18.901 17.938,18.989 17.840,19.000 17.840 C 19.011 17.840,19.099 17.938,19.194 18.057 " stroke="none" fill-rule="evenodd" fill="black"></path></svg>