<svg xmlns="http://www.w3.org/2000/svg" width="24" height="24" viewBox="0 0 24 24" fill="none" stroke="currentColor" stroke-width="2" stroke-linecap="round" stroke-linejoin="round"><path d="M8.477 3.073 C 7.806 3.249,7.238 3.823,7.060 4.508 C 7.027 4.634,7.000 4.820,7.000 4.922 C 7.000 5.332,6.811 5.680,6.484 5.872 C 6.303 5.978,6.286 5.980,5.380 6.005 C 4.569 6.027,4.422 6.041,4.139 6.126 C 3.183 6.413,2.420 7.179,2.114 8.160 L 2.020 8.460 2.020 13.500 L 2.020 18.540 2.114 18.840 C 2.418 19.816,3.151 20.556,4.140 20.885 L 4.420 20.979 7.269 20.991 C 9.156 20.999,10.171 20.989,10.273 20.962 C 10.498 20.901,10.738 20.711,10.867 20.492 C 10.964 20.327,10.980 20.257,10.980 20.000 C 10.980 19.746,10.963 19.672,10.872 19.516 C 10.761 19.328,10.572 19.158,10.373 19.070 C 10.287 19.032,9.582 19.015,7.480 19.000 L 4.700 18.980 4.516 18.872 C 4.415 18.813,4.284 18.700,4.225 18.623 C 3.989 18.314,4.000 18.562,4.000 13.522 C 4.000 8.339,3.984 8.630,4.283 8.321 C 4.552 8.044,4.623 8.028,5.660 7.997 C 6.452 7.974,6.619 7.958,6.860 7.881 C 8.030 7.509,8.877 6.480,8.984 5.302 L 9.011 5.000 12.000 5.000 L 14.989 5.000 15.016 5.302 C 15.123 6.480,15.970 7.509,17.140 7.881 C 17.381 7.958,17.548 7.974,18.340 7.997 C 19.364 8.027,19.442 8.045,19.699 8.301 C 19.974 8.576,19.977 8.595,20.000 10.023 L 20.020 11.307 20.141 11.503 C 20.543 12.156,21.457 12.156,21.859 11.503 L 21.980 11.306 21.980 9.883 C 21.980 8.503,21.977 8.451,21.886 8.160 C 21.580 7.179,20.817 6.413,19.861 6.126 C 19.578 6.041,19.431 6.027,18.620 6.005 C 17.714 5.980,17.697 5.978,17.516 5.872 C 17.197 5.684,17.001 5.340,16.999 4.965 C 16.999 4.713,16.901 4.319,16.781 4.083 C 16.646 3.816,16.297 3.449,16.017 3.281 C 15.548 2.999,15.636 3.005,12.000 3.005 C 9.047 3.005,8.715 3.011,8.477 3.073 M11.376 9.058 C 9.805 9.302,8.549 10.436,8.132 11.985 C 8.038 12.331,8.025 12.457,8.024 13.000 C 8.023 13.517,8.038 13.674,8.112 13.947 C 8.322 14.725,8.649 15.293,9.200 15.843 C 9.624 16.265,9.872 16.400,10.218 16.399 C 10.912 16.397,11.357 15.766,11.154 15.072 C 11.116 14.940,11.023 14.820,10.757 14.560 C 10.348 14.159,10.274 14.055,10.132 13.693 C 10.041 13.459,10.026 13.360,10.026 13.000 C 10.026 12.641,10.041 12.541,10.131 12.310 C 10.385 11.659,10.861 11.239,11.545 11.060 C 11.832 10.986,12.062 10.985,12.407 11.058 C 12.824 11.146,13.102 11.304,13.480 11.665 C 13.904 12.070,14.024 12.134,14.360 12.136 C 15.094 12.140,15.571 11.394,15.261 10.728 C 15.144 10.479,14.618 9.936,14.270 9.707 C 13.376 9.119,12.397 8.900,11.376 9.058 M15.499 14.040 C 14.363 14.246,13.461 15.048,13.114 16.160 L 13.020 16.460 13.020 18.883 L 13.020 21.306 13.141 21.503 C 13.543 22.156,14.457 22.156,14.859 21.503 C 14.979 21.308,14.980 21.300,14.993 20.653 L 15.007 20.000 16.000 20.000 L 16.993 20.000 17.007 20.653 C 17.020 21.300,17.021 21.308,17.141 21.503 C 17.543 22.156,18.457 22.156,18.859 21.503 L 18.980 21.306 18.980 18.883 L 18.980 16.460 18.886 16.160 C 18.580 15.178,17.810 14.407,16.861 14.129 C 16.500 14.023,15.832 13.980,15.499 14.040 M20.695 14.057 C 20.466 14.129,20.256 14.299,20.128 14.516 L 20.020 14.700 20.020 18.003 L 20.020 21.306 20.141 21.503 C 20.543 22.156,21.457 22.156,21.859 21.503 L 21.980 21.306 21.980 18.003 L 21.980 14.700 21.872 14.516 C 21.628 14.101,21.150 13.915,20.695 14.057 M16.334 16.064 C 16.446 16.102,16.593 16.200,16.700 16.306 C 16.948 16.554,17.000 16.753,17.000 17.447 L 17.000 18.000 16.000 18.000 L 15.000 18.000 15.000 17.447 C 15.000 16.753,15.052 16.554,15.301 16.306 C 15.587 16.019,15.952 15.934,16.334 16.064 " stroke="none" fill-rule="evenodd" fill="black"></path></svg>