<svg xmlns="http://www.w3.org/2000/svg" width="24" height="24" viewBox="0 0 24 24" fill="none" stroke="currentColor" stroke-width="2" stroke-linecap="round" stroke-linejoin="round"><path d="M8.477 3.073 C 7.806 3.249,7.238 3.823,7.060 4.508 C 7.027 4.634,7.000 4.820,7.000 4.922 C 7.000 5.332,6.811 5.680,6.484 5.872 C 6.303 5.978,6.286 5.980,5.380 6.005 C 4.569 6.027,4.422 6.041,4.139 6.126 C 3.183 6.413,2.420 7.179,2.114 8.160 L 2.020 8.460 2.020 13.500 L 2.020 18.540 2.114 18.840 C 2.418 19.816,3.149 20.554,4.140 20.886 L 4.420 20.980 8.771 20.991 C 11.657 20.999,13.174 20.989,13.275 20.961 C 13.498 20.901,13.739 20.710,13.867 20.492 C 13.964 20.327,13.980 20.257,13.980 20.000 C 13.980 19.746,13.963 19.672,13.872 19.516 C 13.761 19.328,13.572 19.158,13.373 19.070 C 13.286 19.031,12.284 19.015,8.980 19.000 L 4.700 18.980 4.516 18.872 C 4.415 18.813,4.284 18.700,4.225 18.623 C 3.989 18.314,4.000 18.562,4.000 13.522 C 4.000 8.339,3.984 8.630,4.283 8.321 C 4.552 8.044,4.623 8.028,5.660 7.997 C 6.452 7.974,6.619 7.958,6.860 7.881 C 8.030 7.509,8.877 6.480,8.984 5.302 L 9.011 5.000 12.000 5.000 L 14.989 5.000 15.016 5.302 C 15.123 6.480,15.970 7.509,17.140 7.881 C 17.381 7.958,17.548 7.974,18.340 7.997 C 19.377 8.028,19.448 8.044,19.717 8.321 C 19.997 8.610,20.000 8.638,20.000 10.797 L 20.001 12.700 20.095 12.900 C 20.276 13.282,20.595 13.488,21.003 13.488 C 21.292 13.488,21.536 13.381,21.724 13.173 C 22.012 12.854,22.006 12.907,21.991 10.538 C 21.978 8.448,21.976 8.416,21.885 8.140 C 21.560 7.159,20.807 6.410,19.861 6.126 C 19.578 6.041,19.431 6.027,18.620 6.005 C 17.714 5.980,17.697 5.978,17.516 5.872 C 17.197 5.684,17.001 5.340,16.999 4.965 C 16.999 4.713,16.901 4.319,16.781 4.083 C 16.646 3.816,16.297 3.449,16.017 3.281 C 15.548 2.999,15.636 3.005,12.000 3.005 C 9.047 3.005,8.715 3.011,8.477 3.073 M11.358 9.061 C 10.230 9.237,9.143 9.974,8.569 10.953 C 7.320 13.083,8.233 15.785,10.512 16.704 C 12.558 17.528,14.877 16.538,15.704 14.488 C 16.090 13.530,16.090 12.469,15.705 11.516 C 15.172 10.197,14.001 9.269,12.605 9.058 C 12.144 8.989,11.816 8.990,11.358 9.061 M12.523 11.073 C 13.262 11.266,13.850 11.924,13.967 12.690 C 14.067 13.343,13.873 13.933,13.403 14.404 C 13.002 14.807,12.547 15.000,12.000 15.000 C 11.485 15.000,11.038 14.822,10.653 14.465 C 9.323 13.229,10.189 11.005,12.000 11.005 C 12.143 11.005,12.378 11.036,12.523 11.073 M18.668 15.061 C 18.585 15.092,18.462 15.156,18.395 15.203 C 18.260 15.300,16.136 18.454,16.054 18.680 C 15.893 19.127,16.117 19.673,16.550 19.886 C 16.733 19.977,16.784 19.981,17.930 20.000 L 19.120 20.020 18.600 20.800 C 17.971 21.741,17.914 21.905,18.061 22.322 C 18.284 22.955,18.992 23.187,19.570 22.815 C 19.686 22.741,19.972 22.342,20.805 21.093 C 21.401 20.198,21.917 19.387,21.950 19.289 C 22.074 18.926,21.931 18.460,21.625 18.226 C 21.365 18.028,21.326 18.023,20.070 18.001 L 18.880 17.980 19.383 17.225 C 19.660 16.810,19.912 16.399,19.943 16.310 C 20.212 15.550,19.428 14.782,18.668 15.061 " stroke="none" fill-rule="evenodd" fill="black"></path></svg>