<svg xmlns="http://www.w3.org/2000/svg" width="24" height="24" viewBox="0 0 24 24" fill="none" stroke="currentColor" stroke-width="2" stroke-linecap="round" stroke-linejoin="round"><path d="M8.477 3.073 C 7.806 3.249,7.238 3.823,7.060 4.508 C 7.027 4.634,7.000 4.820,7.000 4.922 C 7.000 5.332,6.811 5.680,6.484 5.872 C 6.303 5.978,6.286 5.980,5.380 6.005 C 4.569 6.027,4.422 6.041,4.139 6.126 C 3.183 6.413,2.420 7.179,2.114 8.160 L 2.020 8.460 2.020 13.500 L 2.020 18.540 2.114 18.840 C 2.418 19.816,3.150 20.554,4.140 20.886 L 4.420 20.980 8.040 20.991 C 12.081 21.004,11.845 21.020,12.173 20.724 C 12.381 20.536,12.488 20.292,12.488 20.003 C 12.488 19.615,12.294 19.298,11.940 19.106 C 11.780 19.020,11.774 19.020,8.240 19.000 L 4.700 18.980 4.516 18.872 C 4.415 18.813,4.284 18.700,4.225 18.623 C 3.989 18.314,4.000 18.562,4.000 13.522 C 4.000 8.339,3.984 8.630,4.283 8.321 C 4.552 8.044,4.623 8.028,5.660 7.997 C 6.452 7.974,6.619 7.958,6.860 7.881 C 8.030 7.509,8.877 6.480,8.984 5.302 L 9.011 5.000 12.000 5.000 L 14.989 5.000 15.016 5.302 C 15.123 6.480,15.970 7.509,17.140 7.881 C 17.381 7.958,17.548 7.974,18.340 7.997 C 19.377 8.028,19.448 8.044,19.717 8.321 C 19.997 8.610,20.000 8.638,20.000 10.797 L 20.001 12.700 20.095 12.900 C 20.276 13.282,20.595 13.488,21.003 13.488 C 21.292 13.488,21.536 13.381,21.724 13.173 C 22.012 12.854,22.006 12.907,21.991 10.538 C 21.978 8.448,21.976 8.416,21.885 8.140 C 21.560 7.159,20.807 6.410,19.861 6.126 C 19.578 6.041,19.431 6.027,18.620 6.005 C 17.714 5.980,17.697 5.978,17.516 5.872 C 17.197 5.684,17.001 5.340,16.999 4.965 C 16.999 4.713,16.901 4.319,16.781 4.083 C 16.646 3.816,16.297 3.449,16.017 3.281 C 15.548 2.999,15.636 3.005,12.000 3.005 C 9.047 3.005,8.715 3.011,8.477 3.073 M11.306 9.064 C 10.656 9.181,10.137 9.404,9.618 9.789 C 8.879 10.337,8.368 11.098,8.111 12.033 C 7.988 12.478,7.988 13.522,8.111 13.967 C 8.314 14.707,8.639 15.272,9.174 15.818 C 9.717 16.373,10.338 16.718,11.094 16.888 C 11.399 16.957,11.488 16.963,11.626 16.925 C 12.407 16.710,12.667 15.779,12.101 15.229 C 11.949 15.081,11.804 15.014,11.393 14.899 C 10.918 14.767,10.430 14.340,10.202 13.859 C 9.838 13.088,9.990 12.213,10.594 11.602 C 11.591 10.594,13.198 10.892,13.825 12.200 C 13.915 12.387,14.048 12.598,14.120 12.668 C 14.671 13.205,15.582 12.949,15.772 12.204 C 15.841 11.931,15.803 11.698,15.622 11.301 C 15.240 10.462,14.574 9.808,13.667 9.378 C 12.932 9.030,12.104 8.920,11.306 9.064 M17.400 14.105 C 15.967 14.477,14.755 15.584,14.261 16.971 C 13.317 19.617,15.054 22.480,17.881 22.938 C 19.906 23.267,21.950 22.204,22.806 20.376 C 23.081 19.789,23.052 19.382,22.709 19.052 C 22.446 18.798,22.311 18.746,21.961 18.762 C 21.191 18.799,20.832 18.774,20.500 18.662 C 19.795 18.424,19.284 17.980,18.958 17.322 C 18.688 16.778,18.655 16.133,18.861 15.428 C 18.967 15.067,18.972 15.019,18.929 14.812 C 18.873 14.545,18.729 14.323,18.527 14.190 C 18.195 13.972,17.975 13.955,17.400 14.105 M16.789 17.050 C 16.924 17.892,17.345 18.699,18.004 19.380 C 18.516 19.909,19.100 20.283,19.813 20.540 L 20.006 20.609 19.893 20.678 C 19.540 20.893,18.941 21.021,18.445 20.988 C 16.369 20.852,15.275 18.510,16.548 16.930 C 16.624 16.837,16.698 16.760,16.714 16.760 C 16.729 16.760,16.763 16.890,16.789 17.050 " stroke="none" fill-rule="evenodd" fill="black"></path></svg>