<svg xmlns="http://www.w3.org/2000/svg" width="24" height="24" viewBox="0 0 24 24" fill="none" stroke="currentColor" stroke-width="2" stroke-linecap="round" stroke-linejoin="round"><path d="M8.477 3.073 C 7.806 3.249,7.238 3.823,7.060 4.508 C 7.027 4.634,7.000 4.820,7.000 4.922 C 7.000 5.332,6.811 5.680,6.484 5.872 C 6.303 5.978,6.286 5.980,5.380 6.005 C 4.569 6.027,4.422 6.041,4.139 6.126 C 3.183 6.413,2.420 7.179,2.114 8.160 L 2.020 8.460 2.020 13.500 L 2.020 18.540 2.114 18.840 C 2.418 19.816,3.150 20.555,4.140 20.886 L 4.420 20.979 7.770 20.991 C 9.990 20.999,11.172 20.989,11.274 20.962 C 11.498 20.901,11.739 20.711,11.867 20.492 C 11.964 20.327,11.980 20.257,11.980 20.000 C 11.980 19.746,11.963 19.672,11.872 19.516 C 11.761 19.328,11.572 19.158,11.373 19.070 C 11.287 19.032,10.483 19.015,7.980 19.000 L 4.700 18.980 4.516 18.872 C 4.415 18.813,4.284 18.700,4.225 18.623 C 3.989 18.314,4.000 18.562,4.000 13.522 C 4.000 8.339,3.984 8.630,4.283 8.321 C 4.552 8.044,4.623 8.028,5.660 7.997 C 6.452 7.974,6.619 7.958,6.860 7.881 C 8.030 7.509,8.877 6.480,8.984 5.302 L 9.011 5.000 12.000 5.000 L 14.989 5.000 15.016 5.302 C 15.123 6.480,15.970 7.509,17.140 7.881 C 17.381 7.958,17.548 7.974,18.340 7.997 C 19.364 8.027,19.442 8.045,19.699 8.301 C 19.990 8.593,19.978 8.483,20.000 11.023 L 20.020 13.306 20.141 13.503 C 20.543 14.156,21.457 14.156,21.859 13.503 L 21.980 13.306 21.980 10.883 L 21.980 8.460 21.886 8.160 C 21.580 7.179,20.817 6.413,19.861 6.126 C 19.578 6.041,19.431 6.027,18.620 6.005 C 17.714 5.980,17.697 5.978,17.516 5.872 C 17.197 5.684,17.001 5.340,16.999 4.965 C 16.999 4.713,16.901 4.319,16.781 4.083 C 16.646 3.816,16.297 3.449,16.017 3.281 C 15.548 2.999,15.636 3.005,12.000 3.005 C 9.047 3.005,8.715 3.011,8.477 3.073 M11.358 9.061 C 10.230 9.237,9.143 9.974,8.569 10.953 C 7.320 13.083,8.233 15.785,10.512 16.704 C 12.558 17.528,14.877 16.538,15.704 14.488 C 16.090 13.530,16.090 12.469,15.705 11.516 C 15.172 10.197,14.001 9.269,12.605 9.058 C 12.144 8.989,11.816 8.990,11.358 9.061 M12.523 11.073 C 13.262 11.266,13.850 11.924,13.967 12.690 C 14.067 13.343,13.873 13.933,13.403 14.404 C 13.002 14.807,12.547 15.000,12.000 15.000 C 11.485 15.000,11.038 14.822,10.653 14.465 C 9.323 13.229,10.189 11.005,12.000 11.005 C 12.143 11.005,12.378 11.036,12.523 11.073 M20.640 16.068 C 20.488 16.121,20.196 16.394,18.731 17.853 L 17.002 19.575 16.271 18.855 C 15.655 18.247,15.509 18.123,15.343 18.067 C 14.865 17.905,14.383 18.083,14.128 18.516 C 14.036 18.672,14.020 18.745,14.021 19.000 C 14.021 19.213,14.043 19.341,14.095 19.440 C 14.197 19.633,16.297 21.740,16.520 21.873 C 16.673 21.964,16.745 21.980,17.000 21.979 C 17.212 21.979,17.341 21.957,17.440 21.905 C 17.632 21.805,21.739 17.705,21.873 17.480 C 21.964 17.328,21.980 17.254,21.980 17.000 C 21.980 16.746,21.963 16.672,21.872 16.516 C 21.617 16.083,21.121 15.903,20.640 16.068 " stroke="none" fill-rule="evenodd" fill="black"></path></svg>