<svg xmlns="http://www.w3.org/2000/svg" width="24" height="24" viewBox="0 0 24 24" fill="none" stroke="currentColor" stroke-width="2" stroke-linecap="round" stroke-linejoin="round"><path d="M8.477 3.073 C 7.806 3.249,7.238 3.823,7.060 4.508 C 7.027 4.634,7.000 4.820,7.000 4.922 C 7.000 5.332,6.811 5.680,6.484 5.872 C 6.303 5.978,6.286 5.980,5.380 6.005 C 4.569 6.027,4.422 6.041,4.139 6.126 C 3.183 6.413,2.420 7.179,2.114 8.160 L 2.020 8.460 2.020 13.500 L 2.020 18.540 2.114 18.840 C 2.418 19.816,3.149 20.554,4.140 20.886 L 4.420 20.980 8.540 20.991 C 13.139 21.004,12.843 21.021,13.173 20.724 C 13.381 20.536,13.488 20.292,13.488 20.003 C 13.488 19.615,13.294 19.298,12.940 19.106 L 12.780 19.020 8.740 19.000 L 4.700 18.980 4.516 18.872 C 4.415 18.813,4.284 18.700,4.225 18.623 C 3.989 18.314,4.000 18.562,4.000 13.522 C 4.000 8.339,3.984 8.630,4.283 8.321 C 4.552 8.044,4.623 8.028,5.660 7.997 C 6.452 7.974,6.619 7.958,6.860 7.881 C 8.030 7.509,8.877 6.480,8.984 5.302 L 9.011 5.000 12.000 5.000 L 14.989 5.000 15.016 5.302 C 15.123 6.480,15.970 7.509,17.140 7.881 C 17.381 7.958,17.548 7.974,18.340 7.997 C 19.364 8.027,19.442 8.045,19.699 8.301 C 19.990 8.593,19.978 8.483,20.000 11.023 L 20.020 13.306 20.141 13.503 C 20.543 14.156,21.457 14.156,21.859 13.503 L 21.980 13.306 21.980 10.883 L 21.980 8.460 21.886 8.160 C 21.580 7.179,20.817 6.413,19.861 6.126 C 19.578 6.041,19.431 6.027,18.620 6.005 C 17.714 5.980,17.697 5.978,17.516 5.872 C 17.197 5.684,17.001 5.340,16.999 4.965 C 16.999 4.713,16.901 4.319,16.781 4.083 C 16.646 3.816,16.297 3.449,16.017 3.281 C 15.548 2.999,15.636 3.005,12.000 3.005 C 9.047 3.005,8.715 3.011,8.477 3.073 M11.560 9.024 C 10.745 9.176,10.437 9.279,9.964 9.560 C 8.974 10.149,8.298 11.112,8.076 12.251 C 7.614 14.624,9.374 16.869,11.790 16.989 C 12.262 17.012,12.748 16.958,13.000 16.854 C 13.212 16.766,13.431 16.529,13.520 16.290 C 13.616 16.034,13.619 15.920,13.538 15.647 C 13.461 15.387,13.287 15.185,13.026 15.053 C 12.831 14.954,12.810 14.952,12.303 14.979 C 11.712 15.010,11.525 14.980,11.126 14.788 C 10.664 14.565,10.349 14.218,10.138 13.700 C 10.037 13.452,10.024 13.372,10.026 13.000 C 10.027 12.680,10.047 12.527,10.110 12.356 C 10.390 11.589,11.048 11.082,11.853 11.014 C 12.375 10.970,12.908 11.150,13.319 11.511 C 13.572 11.732,13.717 11.943,13.861 12.300 C 13.961 12.547,13.975 12.639,13.985 13.087 C 13.998 13.678,14.065 13.872,14.333 14.102 C 14.490 14.236,14.800 14.360,14.980 14.360 C 15.160 14.360,15.470 14.236,15.627 14.102 C 15.894 13.873,15.971 13.662,15.991 13.100 C 16.033 11.885,15.502 10.713,14.550 9.920 C 14.186 9.618,13.429 9.237,12.960 9.121 C 12.631 9.039,11.790 8.981,11.560 9.024 M16.240 16.037 C 15.794 16.173,15.512 16.546,15.512 17.000 C 15.512 17.405,15.719 17.724,16.100 17.905 C 16.296 17.997,16.324 17.999,17.439 18.000 L 18.579 18.000 16.874 19.710 C 15.936 20.651,15.138 21.481,15.101 21.555 C 14.872 22.010,15.056 22.601,15.508 22.867 C 15.673 22.964,15.742 22.980,16.000 22.979 C 16.212 22.979,16.341 22.957,16.440 22.905 C 16.517 22.865,17.350 22.064,18.290 21.126 L 20.000 19.421 20.000 20.561 C 20.001 21.676,20.003 21.704,20.095 21.900 C 20.276 22.281,20.595 22.488,21.000 22.488 C 21.405 22.488,21.724 22.281,21.905 21.900 L 21.999 21.700 21.999 19.240 L 21.999 16.780 21.905 16.580 C 21.791 16.340,21.642 16.193,21.400 16.083 C 21.225 16.004,21.152 16.002,18.780 16.004 C 17.438 16.006,16.295 16.021,16.240 16.037 " stroke="none" fill-rule="evenodd" fill="black"></path></svg>