<svg xmlns="http://www.w3.org/2000/svg" width="24" height="24" viewBox="0 0 24 24" fill="none" stroke="currentColor" stroke-width="2" stroke-linecap="round" stroke-linejoin="round"><path d="M8.477 3.073 C 7.806 3.249,7.238 3.823,7.060 4.508 C 7.027 4.634,7.000 4.820,7.000 4.922 C 7.000 5.332,6.811 5.680,6.484 5.872 C 6.303 5.978,6.286 5.980,5.380 6.005 C 4.569 6.027,4.422 6.041,4.139 6.126 C 3.183 6.413,2.420 7.179,2.114 8.160 L 2.020 8.460 2.020 13.500 L 2.020 18.540 2.114 18.840 C 2.418 19.816,3.149 20.554,4.140 20.886 L 4.420 20.980 8.771 20.991 C 11.657 20.999,13.174 20.989,13.275 20.961 C 13.498 20.901,13.739 20.710,13.867 20.492 C 13.964 20.327,13.980 20.257,13.980 20.000 C 13.980 19.746,13.963 19.672,13.872 19.516 C 13.761 19.328,13.572 19.158,13.373 19.070 C 13.286 19.031,12.284 19.015,8.980 19.000 L 4.700 18.980 4.516 18.872 C 4.415 18.813,4.284 18.700,4.225 18.623 C 3.989 18.314,4.000 18.562,4.000 13.522 C 4.000 8.339,3.984 8.630,4.283 8.321 C 4.552 8.044,4.623 8.028,5.660 7.997 C 6.452 7.974,6.619 7.958,6.860 7.881 C 8.030 7.509,8.877 6.480,8.984 5.302 L 9.011 5.000 12.000 5.000 L 14.989 5.000 15.016 5.302 C 15.123 6.480,15.970 7.509,17.140 7.881 C 17.381 7.958,17.548 7.974,18.340 7.997 C 19.364 8.027,19.442 8.045,19.699 8.301 C 19.990 8.593,19.978 8.483,20.000 11.023 L 20.020 13.306 20.141 13.503 C 20.543 14.156,21.457 14.156,21.859 13.503 L 21.980 13.306 21.980 10.883 L 21.980 8.460 21.886 8.160 C 21.580 7.179,20.817 6.413,19.861 6.126 C 19.578 6.041,19.431 6.027,18.620 6.005 C 17.714 5.980,17.697 5.978,17.516 5.872 C 17.197 5.684,17.001 5.340,16.999 4.965 C 16.999 4.713,16.901 4.319,16.781 4.083 C 16.646 3.816,16.297 3.449,16.017 3.281 C 15.548 2.999,15.636 3.005,12.000 3.005 C 9.047 3.005,8.715 3.011,8.477 3.073 M11.494 9.042 C 9.847 9.257,8.557 10.397,8.111 12.033 C 7.988 12.486,7.989 13.525,8.113 13.976 C 8.457 15.228,9.350 16.249,10.500 16.705 C 11.497 17.102,12.641 17.091,13.555 16.676 C 13.881 16.528,14.008 16.410,14.124 16.145 C 14.247 15.865,14.243 15.599,14.113 15.316 C 13.878 14.805,13.359 14.637,12.717 14.866 C 11.944 15.141,11.165 14.971,10.597 14.403 C 9.390 13.197,10.150 11.159,11.860 11.014 C 12.762 10.937,13.627 11.540,13.930 12.458 C 13.953 12.525,13.973 12.850,13.975 13.180 C 13.979 13.671,13.993 13.806,14.052 13.924 C 14.368 14.559,15.193 14.696,15.666 14.194 C 15.911 13.933,16.000 13.600,15.998 12.960 C 15.994 11.522,15.156 10.146,13.883 9.488 C 13.071 9.068,12.342 8.932,11.494 9.042 M16.695 16.057 C 16.466 16.129,16.256 16.299,16.128 16.516 L 16.020 16.700 16.020 19.503 L 16.020 22.306 16.141 22.503 C 16.543 23.156,17.457 23.156,17.859 22.503 L 17.980 22.306 17.980 19.503 L 17.980 16.700 17.872 16.516 C 17.628 16.101,17.150 15.915,16.695 16.057 M20.695 16.057 C 20.466 16.129,20.256 16.299,20.128 16.516 L 20.020 16.700 20.020 19.503 L 20.020 22.306 20.141 22.503 C 20.543 23.156,21.457 23.156,21.859 22.503 L 21.980 22.306 21.980 19.503 L 21.980 16.700 21.872 16.516 C 21.628 16.101,21.150 15.915,20.695 16.057 " stroke="none" fill-rule="evenodd" fill="black"></path></svg>