<svg xmlns="http://www.w3.org/2000/svg" width="24" height="24" viewBox="0 0 24 24" fill="none" stroke="currentColor" stroke-width="2" stroke-linecap="round" stroke-linejoin="round"><path d="M8.477 3.073 C 7.806 3.249,7.238 3.823,7.060 4.508 C 7.027 4.634,7.000 4.820,7.000 4.922 C 7.000 5.332,6.811 5.680,6.484 5.872 C 6.303 5.978,6.286 5.980,5.380 6.005 C 4.569 6.027,4.422 6.041,4.139 6.126 C 3.183 6.413,2.420 7.179,2.114 8.160 L 2.020 8.460 2.020 13.500 L 2.020 18.540 2.114 18.840 C 2.418 19.816,3.149 20.554,4.140 20.886 L 4.420 20.980 8.271 20.991 C 10.824 20.999,12.173 20.989,12.275 20.961 C 12.498 20.901,12.739 20.711,12.867 20.492 C 12.964 20.327,12.980 20.257,12.980 20.000 C 12.980 19.746,12.963 19.672,12.872 19.516 C 12.761 19.328,12.572 19.158,12.373 19.070 C 12.286 19.032,11.383 19.015,8.480 19.000 L 4.700 18.980 4.516 18.872 C 4.415 18.813,4.284 18.700,4.225 18.623 C 3.989 18.314,4.000 18.562,4.000 13.522 C 4.000 8.339,3.984 8.630,4.283 8.321 C 4.552 8.044,4.623 8.028,5.660 7.997 C 6.452 7.974,6.619 7.958,6.860 7.881 C 8.030 7.509,8.877 6.480,8.984 5.302 L 9.011 5.000 12.000 5.000 L 14.989 5.000 15.016 5.302 C 15.123 6.480,15.970 7.509,17.140 7.881 C 17.381 7.958,17.548 7.974,18.340 7.997 C 19.364 8.027,19.442 8.045,19.699 8.301 C 19.950 8.553,19.973 8.648,19.998 9.523 L 20.020 10.306 20.141 10.503 C 20.543 11.156,21.457 11.156,21.859 10.503 L 21.980 10.306 21.980 9.383 C 21.980 8.527,21.973 8.438,21.886 8.160 C 21.580 7.179,20.817 6.413,19.861 6.126 C 19.578 6.041,19.431 6.027,18.620 6.005 C 17.714 5.980,17.697 5.978,17.516 5.872 C 17.197 5.684,17.001 5.340,16.999 4.965 C 16.999 4.713,16.901 4.319,16.781 4.083 C 16.646 3.816,16.297 3.449,16.017 3.281 C 15.548 2.999,15.636 3.005,12.000 3.005 C 9.047 3.005,8.715 3.011,8.477 3.073 M11.233 9.076 C 9.748 9.401,8.649 10.384,8.187 11.802 C 7.822 12.921,8.013 14.249,8.681 15.245 C 9.053 15.800,9.772 16.394,10.404 16.668 C 11.007 16.930,11.881 17.070,12.264 16.965 C 12.498 16.901,12.737 16.714,12.867 16.492 C 12.964 16.327,12.980 16.257,12.980 15.997 C 12.980 15.729,12.966 15.671,12.860 15.502 C 12.637 15.145,12.489 15.077,11.684 14.961 C 10.620 14.807,9.850 13.740,10.033 12.673 C 10.205 11.671,11.149 10.930,12.146 11.014 C 12.703 11.061,13.169 11.307,13.545 11.750 C 13.822 12.077,13.965 12.185,14.227 12.266 C 14.787 12.439,15.394 12.019,15.466 11.408 C 15.513 11.013,15.342 10.698,14.780 10.140 C 14.257 9.621,13.642 9.285,12.880 9.099 C 12.460 8.997,11.648 8.985,11.233 9.076 M18.600 12.584 C 18.399 12.671,18.205 12.869,18.095 13.100 C 18.018 13.263,18.001 13.365,18.000 13.650 L 18.000 14.000 16.946 14.000 C 15.797 14.000,15.644 14.022,15.382 14.221 C 15.302 14.282,15.187 14.415,15.128 14.516 C 15.036 14.672,15.020 14.746,15.020 15.003 C 15.020 15.271,15.034 15.329,15.141 15.503 C 15.288 15.742,15.578 15.946,15.821 15.982 L 16.000 16.009 16.000 17.998 L 16.000 19.987 15.786 20.035 C 15.515 20.096,15.270 20.275,15.129 20.514 C 15.036 20.672,15.020 20.745,15.020 21.000 C 15.020 21.256,15.036 21.328,15.131 21.489 C 15.192 21.592,15.304 21.725,15.381 21.783 C 15.643 21.983,15.738 21.996,16.910 21.998 L 18.000 22.000 18.000 22.350 C 18.001 22.635,18.018 22.737,18.095 22.900 C 18.276 23.281,18.595 23.488,19.000 23.488 C 19.405 23.488,19.724 23.281,19.905 22.900 C 19.982 22.735,19.999 22.635,20.000 22.334 L 20.000 21.969 20.289 21.874 C 21.001 21.642,21.604 21.048,21.868 20.320 C 21.965 20.052,21.976 19.965,21.976 19.500 C 21.976 19.035,21.965 18.949,21.868 18.684 C 21.809 18.521,21.705 18.301,21.636 18.194 L 21.512 18.000 21.636 17.806 C 21.705 17.699,21.809 17.479,21.868 17.316 C 21.965 17.051,21.976 16.965,21.976 16.500 C 21.976 16.035,21.965 15.948,21.868 15.680 C 21.599 14.937,20.984 14.347,20.241 14.118 L 20.020 14.049 19.999 13.635 C 19.982 13.318,19.957 13.182,19.892 13.060 C 19.783 12.854,19.580 12.661,19.391 12.582 C 19.203 12.503,18.783 12.504,18.600 12.584 M19.724 16.062 C 19.872 16.139,20.000 16.341,20.000 16.500 C 20.000 16.566,19.965 16.678,19.922 16.748 C 19.780 16.980,19.693 17.000,18.802 17.000 L 18.000 17.000 18.000 16.500 L 18.000 16.000 18.802 16.000 C 19.448 16.000,19.627 16.012,19.724 16.062 M19.724 19.062 C 19.872 19.139,20.000 19.341,20.000 19.500 C 20.000 19.566,19.965 19.678,19.922 19.748 C 19.780 19.980,19.693 20.000,18.802 20.000 L 18.000 20.000 18.000 19.500 L 18.000 19.000 18.802 19.000 C 19.448 19.000,19.627 19.012,19.724 19.062 " stroke="none" fill-rule="evenodd" fill="black"></path></svg>