<svg xmlns="http://www.w3.org/2000/svg" width="24" height="24" viewBox="0 0 24 24" fill="none" stroke="currentColor" stroke-width="2" stroke-linecap="round" stroke-linejoin="round"><path d="M13.700 2.057 C 13.516 2.116,12.831 2.484,12.281 2.818 C 9.774 4.344,8.028 6.432,7.338 8.729 C 7.007 9.828,6.914 11.104,7.099 11.980 C 7.520 13.976,9.025 15.476,11.040 15.907 C 11.511 16.008,12.489 16.008,12.960 15.907 C 14.488 15.580,15.748 14.630,16.433 13.288 C 17.027 12.123,17.156 10.827,16.813 9.468 C 16.691 8.984,16.538 8.611,15.988 7.460 C 15.496 6.431,15.353 6.045,15.221 5.384 C 15.104 4.800,15.049 4.285,15.006 3.375 C 14.976 2.739,14.967 2.678,14.869 2.512 C 14.629 2.102,14.144 1.914,13.700 2.057 M13.156 5.221 C 13.343 6.436,13.656 7.317,14.481 8.961 C 14.993 9.981,15.126 10.977,14.870 11.863 C 14.596 12.808,13.821 13.581,12.840 13.886 C 12.406 14.021,11.594 14.021,11.160 13.886 C 10.179 13.581,9.404 12.808,9.130 11.863 C 8.842 10.868,9.084 9.364,9.724 8.165 C 10.377 6.943,11.373 5.858,12.672 4.952 C 12.884 4.805,13.061 4.688,13.067 4.693 C 13.072 4.699,13.112 4.936,13.156 5.221 M3.650 16.066 C 3.085 16.266,2.831 17.001,3.149 17.514 C 3.368 17.870,3.377 17.873,5.693 18.453 C 6.852 18.743,7.800 18.989,7.800 19.000 C 7.800 19.011,6.852 19.257,5.693 19.547 C 3.377 20.127,3.368 20.130,3.149 20.486 C 2.862 20.949,3.023 21.582,3.497 21.861 C 3.864 22.076,3.685 22.109,8.038 21.020 L 12.000 20.030 15.940 21.015 C 18.107 21.557,19.940 22.000,20.013 22.000 C 20.760 22.000,21.246 21.124,20.851 20.486 C 20.632 20.130,20.623 20.127,18.307 19.547 C 17.148 19.257,16.200 19.011,16.200 19.000 C 16.200 18.989,17.148 18.743,18.307 18.453 C 20.623 17.873,20.632 17.870,20.851 17.514 C 21.090 17.128,21.025 16.618,20.695 16.297 C 20.515 16.122,20.241 16.001,20.023 15.999 C 19.955 15.998,18.122 16.442,15.950 16.984 L 12.000 17.970 8.050 16.984 C 5.878 16.442,4.037 16.000,3.960 16.002 C 3.883 16.004,3.744 16.033,3.650 16.066 " stroke="none" fill-rule="evenodd" fill="black"></path></svg>