<svg xmlns="http://www.w3.org/2000/svg" width="24" height="24" viewBox="0 0 24 24" fill="none" stroke="currentColor" stroke-width="2" stroke-linecap="round" stroke-linejoin="round"><path d="M11.080 2.045 C 9.507 2.184,7.883 2.751,6.540 3.630 C 5.905 4.045,5.499 4.378,4.919 4.958 C 2.953 6.926,1.919 9.544,2.013 12.320 C 2.084 14.439,2.752 16.328,4.033 18.040 C 4.430 18.570,5.305 19.464,5.800 19.847 C 7.242 20.961,8.787 21.624,10.600 21.907 C 11.247 22.008,12.753 22.008,13.400 21.907 C 15.638 21.557,17.504 20.620,19.062 19.062 C 20.620 17.504,21.557 15.638,21.907 13.400 C 22.008 12.753,22.008 11.247,21.907 10.600 C 21.624 8.786,20.959 7.238,19.847 5.800 C 19.510 5.365,18.639 4.494,18.200 4.154 C 16.133 2.555,13.646 1.818,11.080 2.045 M12.734 4.041 C 13.729 4.136,14.625 4.387,15.504 4.818 C 15.990 5.056,16.880 5.609,16.880 5.672 C 16.880 5.708,5.709 16.880,5.672 16.880 C 5.609 16.880,5.056 15.990,4.818 15.504 C 3.737 13.301,3.737 10.697,4.816 8.500 C 6.162 5.760,8.867 4.049,11.920 4.005 C 12.129 4.003,12.495 4.019,12.734 4.041 M18.640 7.546 C 20.223 9.913,20.430 12.949,19.183 15.499 C 18.749 16.387,18.223 17.105,17.496 17.801 C 16.876 18.394,16.262 18.819,15.471 19.200 C 13.263 20.267,10.735 20.265,8.520 19.197 C 8.056 18.972,7.120 18.392,7.120 18.328 C 7.120 18.292,18.291 7.120,18.328 7.120 C 18.343 7.120,18.484 7.312,18.640 7.546 " stroke="none" fill-rule="evenodd" fill="black"></path></svg>