<svg xmlns="http://www.w3.org/2000/svg" width="24" height="24" viewBox="0 0 24 24" fill="none" stroke="currentColor" stroke-width="2" stroke-linecap="round" stroke-linejoin="round"><path d="M11.200 2.039 C 10.617 2.117,10.207 2.250,9.623 2.551 C 8.679 3.038,7.759 3.965,7.180 5.011 C 7.035 5.272,7.020 5.327,7.021 5.580 C 7.023 5.907,7.113 6.115,7.339 6.314 C 7.537 6.488,7.740 6.566,8.000 6.569 C 8.402 6.573,8.681 6.388,8.949 5.940 C 9.341 5.286,9.895 4.698,10.403 4.396 C 10.857 4.125,11.218 4.029,11.760 4.031 C 12.303 4.033,12.646 4.111,13.173 4.354 C 14.787 5.100,15.325 6.313,14.791 8.000 C 14.725 8.209,14.617 8.487,14.551 8.617 C 14.486 8.747,13.009 11.483,11.271 14.696 C 9.532 17.910,8.085 20.609,8.055 20.695 C 7.825 21.346,8.389 22.057,9.083 21.991 C 9.333 21.967,9.621 21.818,9.762 21.640 C 9.883 21.486,16.162 9.897,16.403 9.380 C 16.593 8.974,16.777 8.412,16.888 7.900 C 17.013 7.320,17.014 6.287,16.890 5.792 C 16.666 4.898,16.352 4.345,15.703 3.699 C 15.459 3.456,15.116 3.162,14.940 3.046 C 14.287 2.614,13.416 2.246,12.700 2.100 C 12.317 2.022,11.561 1.992,11.200 2.039 " stroke="none" fill-rule="evenodd" fill="black"></path></svg>