<svg xmlns="http://www.w3.org/2000/svg" width="24" height="24" viewBox="0 0 24 24" fill="none" stroke="currentColor" stroke-width="2" stroke-linecap="round" stroke-linejoin="round"><path d="M11.665 1.063 C 11.417 1.142,11.187 1.375,10.834 1.905 C 9.586 3.776,8.882 5.802,8.777 7.827 L 8.749 8.353 8.505 8.213 C 7.417 7.590,6.294 7.211,5.091 7.059 C 4.356 6.967,3.802 6.988,3.545 7.120 C 3.312 7.239,3.144 7.431,3.061 7.675 C 2.929 8.063,2.980 8.237,3.600 9.500 C 4.321 10.970,5.063 12.094,5.833 12.888 C 5.987 13.047,6.037 13.123,5.997 13.135 C 5.966 13.145,5.841 13.176,5.720 13.203 C 5.020 13.358,3.845 13.862,3.422 14.188 C 2.937 14.562,2.867 15.257,3.274 15.675 C 3.508 15.916,5.917 17.150,6.370 17.262 C 6.430 17.277,6.480 17.296,6.480 17.306 C 6.480 17.315,6.425 17.506,6.358 17.731 C 6.099 18.603,5.934 19.895,6.035 20.264 C 6.099 20.497,6.286 20.737,6.505 20.865 C 6.984 21.146,8.094 20.964,9.233 20.419 C 9.775 20.159,10.249 19.877,10.679 19.558 L 10.996 19.323 11.008 20.815 L 11.020 22.306 11.141 22.503 C 11.543 23.156,12.457 23.156,12.859 22.503 L 12.980 22.306 12.992 20.815 L 13.004 19.323 13.321 19.558 C 14.502 20.434,15.840 20.970,16.860 20.977 C 17.273 20.980,17.312 20.973,17.492 20.867 C 17.714 20.737,17.901 20.498,17.965 20.264 C 18.064 19.903,17.910 18.670,17.656 17.787 C 17.581 17.527,17.520 17.308,17.520 17.301 C 17.520 17.294,17.570 17.277,17.630 17.262 C 18.083 17.150,20.492 15.916,20.726 15.675 C 21.138 15.251,21.064 14.548,20.567 14.177 C 20.133 13.853,18.964 13.355,18.280 13.203 C 18.159 13.176,18.034 13.145,18.003 13.135 C 17.963 13.123,18.013 13.047,18.167 12.888 C 19.035 11.994,19.909 10.610,20.725 8.840 C 20.958 8.335,20.974 8.281,20.977 8.000 C 20.980 7.741,20.965 7.674,20.869 7.511 C 20.592 7.040,20.158 6.926,19.088 7.042 C 17.799 7.182,16.506 7.618,15.420 8.277 C 15.272 8.367,15.145 8.440,15.136 8.440 C 15.127 8.440,15.120 8.345,15.119 8.230 C 15.116 7.402,14.686 5.724,14.092 4.221 C 13.677 3.172,12.954 1.604,12.778 1.374 C 12.541 1.063,12.074 0.933,11.665 1.063 M12.181 4.824 C 12.540 5.711,12.827 6.615,12.974 7.320 C 13.100 7.920,13.129 8.278,13.109 8.931 C 13.085 9.690,13.025 9.972,12.716 10.769 C 12.566 11.154,12.510 11.355,12.510 11.500 C 12.509 11.885,12.730 12.234,13.072 12.391 C 13.365 12.525,13.636 12.525,13.929 12.390 C 14.121 12.302,14.191 12.234,14.462 11.874 C 15.250 10.826,15.948 10.223,16.959 9.717 C 17.342 9.525,18.240 9.187,18.275 9.221 C 18.300 9.247,17.960 9.843,17.660 10.300 C 16.907 11.444,16.174 12.151,15.063 12.806 C 14.346 13.229,14.240 13.311,14.126 13.531 C 13.920 13.932,13.988 14.390,14.299 14.701 C 14.547 14.949,14.785 15.017,15.274 14.979 C 15.877 14.933,16.705 14.950,17.159 15.018 C 17.387 15.052,17.582 15.089,17.593 15.099 C 17.626 15.132,17.157 15.324,16.860 15.399 C 16.706 15.438,16.391 15.483,16.160 15.498 C 15.904 15.516,15.677 15.554,15.580 15.597 C 15.375 15.687,15.151 15.936,15.060 16.174 C 14.941 16.485,14.989 16.693,15.329 17.360 C 15.613 17.917,15.851 18.603,15.783 18.670 C 15.767 18.686,15.617 18.628,15.450 18.540 C 14.603 18.094,13.399 17.139,12.895 16.513 C 12.603 16.150,12.342 16.000,12.003 16.000 C 11.646 16.001,11.419 16.131,11.098 16.520 C 10.491 17.253,8.975 18.411,8.275 18.675 C 8.170 18.714,8.170 18.714,8.203 18.567 C 8.287 18.196,8.467 17.741,8.727 17.242 C 9.003 16.712,9.009 16.695,8.990 16.459 C 8.967 16.168,8.856 15.938,8.655 15.761 C 8.440 15.573,8.312 15.531,7.840 15.499 C 7.609 15.483,7.294 15.438,7.140 15.399 C 6.843 15.324,6.374 15.132,6.407 15.099 C 6.418 15.089,6.613 15.052,6.841 15.018 C 7.293 14.950,8.122 14.933,8.721 14.979 C 8.964 14.998,9.160 14.992,9.264 14.964 C 9.497 14.901,9.737 14.714,9.867 14.492 C 9.964 14.327,9.980 14.257,9.980 14.000 C 9.980 13.743,9.964 13.673,9.867 13.507 C 9.740 13.292,9.678 13.245,8.937 12.807 C 7.837 12.157,7.109 11.461,6.380 10.362 C 6.088 9.922,5.681 9.227,5.702 9.205 C 5.710 9.197,5.893 9.247,6.108 9.317 C 6.650 9.494,7.470 9.905,7.922 10.226 C 8.421 10.581,9.065 11.230,9.489 11.805 C 9.794 12.219,9.858 12.283,10.066 12.385 C 10.580 12.636,11.157 12.436,11.393 11.924 C 11.545 11.594,11.531 11.390,11.322 10.880 C 10.925 9.912,10.784 9.202,10.785 8.180 C 10.786 6.903,11.051 5.804,11.688 4.432 C 11.884 4.011,11.838 3.975,12.181 4.824 " stroke="none" fill-rule="evenodd" fill="black"></path></svg>