<svg xmlns="http://www.w3.org/2000/svg" width="24" height="24" viewBox="0 0 24 24" fill="none" stroke="currentColor" stroke-width="2" stroke-linecap="round" stroke-linejoin="round"><path d="M10.540 5.026 C 8.765 5.166,7.276 5.842,6.059 7.059 C 4.989 8.129,4.322 9.447,4.074 10.980 C 4.008 11.393,4.008 12.607,4.074 13.020 C 4.322 14.553,4.989 15.871,6.059 16.941 C 7.102 17.984,8.303 18.607,9.860 18.911 C 10.137 18.965,10.848 18.975,15.150 18.988 C 18.493 18.998,20.171 18.989,20.274 18.962 C 20.498 18.901,20.739 18.711,20.867 18.492 C 20.964 18.327,20.980 18.257,20.980 18.000 C 20.980 17.746,20.963 17.672,20.872 17.516 C 20.761 17.328,20.572 17.158,20.373 17.070 C 20.285 17.031,19.141 17.015,15.280 16.998 C 9.812 16.974,10.156 16.989,9.400 16.732 C 7.810 16.189,6.580 14.864,6.161 13.240 C 5.920 12.307,5.983 11.125,6.320 10.248 C 6.905 8.725,8.205 7.559,9.760 7.162 C 10.353 7.010,10.711 7.000,15.508 6.998 C 19.306 6.997,20.208 6.986,20.330 6.943 C 20.551 6.864,20.744 6.702,20.869 6.489 C 20.964 6.328,20.980 6.256,20.980 6.000 C 20.980 5.746,20.963 5.672,20.872 5.516 C 20.813 5.415,20.698 5.282,20.618 5.221 C 20.317 4.991,20.513 4.999,15.404 5.007 C 12.817 5.010,10.628 5.019,10.540 5.026 M10.499 9.040 C 9.363 9.246,8.460 10.049,8.114 11.160 C 7.979 11.594,7.979 12.406,8.114 12.840 C 8.421 13.826,9.174 14.579,10.160 14.886 C 10.594 15.021,11.406 15.021,11.840 14.886 C 12.645 14.635,13.318 14.069,13.688 13.330 L 13.853 13.000 17.017 12.998 C 19.555 12.997,20.210 12.986,20.330 12.943 C 20.551 12.864,20.744 12.702,20.869 12.489 C 20.964 12.328,20.980 12.256,20.980 12.000 C 20.980 11.746,20.963 11.672,20.872 11.516 C 20.813 11.415,20.698 11.282,20.618 11.221 C 20.324 10.997,20.373 11.000,16.980 11.000 L 13.853 11.000 13.688 10.670 C 13.320 9.935,12.631 9.354,11.861 9.129 C 11.500 9.023,10.832 8.980,10.499 9.040 M11.310 11.061 C 11.688 11.173,12.000 11.598,12.000 12.001 C 12.000 12.331,11.784 12.696,11.484 12.872 C 11.328 12.963,11.254 12.980,11.000 12.980 C 10.746 12.980,10.672 12.963,10.516 12.872 C 9.935 12.530,9.833 11.774,10.304 11.303 C 10.583 11.024,10.916 10.944,11.310 11.061 " stroke="none" fill-rule="evenodd" fill="black"></path></svg>