<svg xmlns="http://www.w3.org/2000/svg" width="24" height="24" viewBox="0 0 24 24" fill="none" stroke="currentColor" stroke-width="2" stroke-linecap="round" stroke-linejoin="round"><path d="M4.643 5.068 C 4.546 5.103,4.392 5.206,4.301 5.297 C 4.148 5.450,4.055 5.664,3.077 8.101 L 2.020 10.740 2.009 13.933 C 2.002 16.001,2.013 17.179,2.039 17.277 C 2.099 17.498,2.290 17.739,2.508 17.867 C 2.695 17.977,2.719 17.981,3.427 18.000 L 4.155 18.020 4.316 18.340 C 4.686 19.071,5.360 19.637,6.160 19.886 C 6.594 20.021,7.406 20.021,7.840 19.886 C 8.645 19.635,9.318 19.069,9.688 18.330 L 9.853 18.000 12.000 18.000 L 14.147 18.000 14.312 18.330 C 14.682 19.069,15.355 19.635,16.160 19.886 C 16.412 19.964,16.547 19.979,17.000 19.979 C 17.453 19.979,17.588 19.964,17.840 19.886 C 18.640 19.637,19.314 19.071,19.684 18.340 L 19.845 18.020 20.573 18.000 C 21.281 17.981,21.305 17.977,21.492 17.867 C 21.711 17.738,21.901 17.498,21.962 17.272 C 21.990 17.169,22.000 16.321,21.991 14.768 C 21.978 12.435,21.978 12.418,21.885 12.140 C 21.559 11.158,20.803 10.407,19.861 10.128 C 19.624 10.058,19.400 10.027,19.006 10.011 L 18.471 9.988 16.563 7.604 C 14.855 5.470,14.634 5.210,14.457 5.120 L 14.260 5.020 9.540 5.013 C 5.344 5.006,4.800 5.013,4.643 5.068 M11.000 8.500 L 11.000 10.000 7.741 10.000 L 4.481 10.000 4.556 9.810 C 4.598 9.705,4.851 9.071,5.120 8.400 C 5.389 7.729,5.624 7.140,5.643 7.090 L 5.678 7.000 8.339 7.000 L 11.000 7.000 11.000 8.500 M14.720 8.500 L 15.921 10.000 14.461 10.000 L 13.000 10.000 13.000 8.500 L 13.000 7.000 13.259 7.000 L 13.519 7.000 14.720 8.500 M19.310 12.061 C 19.452 12.103,19.571 12.178,19.697 12.303 C 19.993 12.599,20.000 12.650,20.000 14.447 C 20.000 15.927,19.997 16.000,19.927 16.000 C 19.875 16.000,19.805 15.904,19.688 15.670 C 19.321 14.938,18.642 14.363,17.861 14.125 C 17.588 14.042,17.458 14.027,17.000 14.027 C 16.542 14.027,16.412 14.042,16.139 14.125 C 15.358 14.363,14.679 14.938,14.312 15.670 L 14.147 16.000 12.000 16.000 L 9.853 16.000 9.688 15.670 C 9.321 14.938,8.642 14.363,7.861 14.125 C 7.588 14.042,7.458 14.027,7.000 14.027 C 6.542 14.027,6.412 14.042,6.139 14.125 C 5.358 14.363,4.679 14.938,4.312 15.670 C 4.195 15.904,4.125 16.000,4.073 16.000 C 4.003 16.000,4.000 15.914,4.000 14.000 L 4.000 12.000 11.553 12.000 C 18.198 12.000,19.130 12.007,19.310 12.061 M7.334 16.064 C 7.698 16.188,8.000 16.613,8.000 17.001 C 8.000 17.331,7.784 17.696,7.484 17.872 C 7.328 17.963,7.254 17.980,7.000 17.980 C 6.746 17.980,6.672 17.963,6.516 17.872 C 5.937 17.531,5.833 16.774,6.301 16.306 C 6.587 16.019,6.952 15.934,7.334 16.064 M17.334 16.064 C 17.698 16.188,18.000 16.613,18.000 17.001 C 18.000 17.331,17.784 17.696,17.484 17.872 C 17.328 17.963,17.254 17.980,17.000 17.980 C 16.746 17.980,16.672 17.963,16.516 17.872 C 15.934 17.529,15.831 16.775,16.304 16.303 C 16.587 16.019,16.954 15.935,17.334 16.064 " stroke="none" fill-rule="evenodd" fill="black"></path></svg>