<svg xmlns="http://www.w3.org/2000/svg" width="24" height="24" viewBox="0 0 24 24" fill="none" stroke="currentColor" stroke-width="2" stroke-linecap="round" stroke-linejoin="round"><path d="M11.695 2.055 C 11.464 2.130,11.255 2.300,11.128 2.516 L 11.020 2.700 11.009 5.892 L 10.998 9.085 9.789 7.533 C 9.124 6.680,8.478 5.882,8.353 5.760 C 7.474 4.900,6.084 4.769,5.034 5.447 C 4.691 5.668,4.331 6.051,4.153 6.385 C 3.931 6.799,2.030 11.709,2.009 11.920 C 1.972 12.296,2.168 12.667,2.508 12.867 L 2.700 12.980 5.883 13.000 L 9.067 13.020 7.548 14.200 C 6.712 14.849,5.919 15.490,5.784 15.623 C 5.488 15.918,5.274 16.272,5.132 16.700 C 5.040 16.976,5.025 17.085,5.026 17.500 C 5.027 17.909,5.043 18.028,5.133 18.300 C 5.191 18.476,5.306 18.736,5.389 18.878 C 5.597 19.233,6.041 19.666,6.383 19.847 C 6.535 19.928,7.803 20.441,9.200 20.987 C 11.658 21.948,11.749 21.980,12.020 21.980 C 12.254 21.980,12.331 21.962,12.489 21.869 C 12.702 21.744,12.864 21.551,12.943 21.330 C 12.986 21.210,12.997 20.559,12.998 18.046 L 13.000 14.913 13.154 15.108 C 13.378 15.392,13.537 15.511,13.784 15.583 C 14.528 15.799,15.221 15.074,14.994 14.317 C 14.969 14.233,14.753 13.912,14.514 13.603 C 14.275 13.295,14.080 13.033,14.080 13.021 C 14.080 13.010,14.553 12.999,15.130 12.998 C 16.259 12.996,16.359 12.982,16.619 12.783 C 16.696 12.725,16.808 12.592,16.869 12.489 C 16.964 12.328,16.980 12.256,16.980 12.000 C 16.980 11.746,16.963 11.672,16.872 11.516 C 16.629 11.104,16.356 11.000,15.510 11.000 L 14.912 11.000 16.465 9.790 C 17.320 9.125,18.118 8.479,18.239 8.356 C 18.515 8.076,18.731 7.714,18.868 7.300 C 18.960 7.024,18.975 6.915,18.974 6.500 C 18.973 6.092,18.957 5.972,18.868 5.700 C 18.637 4.996,18.151 4.420,17.517 4.098 C 17.415 4.047,16.191 3.560,14.796 3.016 C 12.125 1.974,12.031 1.945,11.695 2.055 M14.889 5.200 C 15.836 5.570,16.659 5.907,16.716 5.949 C 16.848 6.045,17.000 6.340,17.000 6.500 C 17.000 6.568,16.960 6.703,16.910 6.801 C 16.833 6.953,16.550 7.190,14.940 8.447 C 13.906 9.255,13.047 9.917,13.030 9.918 C 13.013 9.919,13.000 8.695,13.000 7.197 L 13.000 4.475 13.083 4.501 C 13.128 4.515,13.941 4.830,14.889 5.200 M6.800 7.090 C 6.952 7.167,7.191 7.453,8.446 9.060 C 9.254 10.094,9.916 10.954,9.917 10.970 C 9.919 10.987,8.696 11.000,7.200 11.000 C 5.704 11.000,4.480 10.991,4.480 10.980 C 4.480 10.940,5.811 7.538,5.881 7.400 C 5.967 7.228,6.060 7.142,6.241 7.063 C 6.437 6.978,6.595 6.986,6.800 7.090 M18.499 14.040 C 17.363 14.246,16.461 15.048,16.114 16.160 L 16.020 16.460 16.020 18.883 L 16.020 21.306 16.141 21.503 C 16.543 22.156,17.457 22.156,17.859 21.503 C 17.979 21.308,17.980 21.300,17.993 20.653 L 18.007 20.000 19.000 20.000 L 19.993 20.000 20.007 20.653 C 20.020 21.300,20.021 21.308,20.141 21.503 C 20.543 22.156,21.457 22.156,21.859 21.503 L 21.980 21.306 21.980 18.883 L 21.980 16.460 21.886 16.160 C 21.580 15.178,20.810 14.407,19.861 14.129 C 19.500 14.023,18.832 13.980,18.499 14.040 M11.000 16.800 C 11.000 18.296,10.990 19.520,10.977 19.520 C 10.887 19.520,7.392 18.127,7.286 18.048 C 7.135 17.937,7.002 17.681,7.001 17.498 C 7.000 17.432,7.040 17.297,7.090 17.199 C 7.167 17.047,7.450 16.811,9.060 15.553 C 10.094 14.746,10.954 14.084,10.970 14.083 C 10.987 14.081,11.000 15.304,11.000 16.800 M19.334 16.064 C 19.446 16.102,19.593 16.200,19.700 16.306 C 19.948 16.554,20.000 16.753,20.000 17.447 L 20.000 18.000 19.000 18.000 L 18.000 18.000 18.000 17.447 C 18.000 16.753,18.052 16.554,18.301 16.306 C 18.587 16.019,18.952 15.934,19.334 16.064 " stroke="none" fill-rule="evenodd" fill="black"></path></svg>