<svg xmlns="http://www.w3.org/2000/svg" width="24" height="24" viewBox="0 0 24 24" fill="none" stroke="currentColor" stroke-width="2" stroke-linecap="round" stroke-linejoin="round"><path d="M6.647 4.067 C 6.290 4.194,6.248 4.262,5.084 6.591 L 4.000 8.763 4.000 10.278 L 4.000 11.793 3.670 12.013 C 3.206 12.323,2.773 12.709,2.436 13.113 C 2.061 13.563,1.984 13.735,2.010 14.065 C 2.057 14.642,2.519 15.040,3.083 14.989 C 3.410 14.959,3.598 14.837,3.945 14.429 C 4.580 13.683,5.434 13.206,6.400 13.058 C 6.878 12.986,7.122 12.986,7.600 13.058 C 8.569 13.206,9.420 13.682,10.060 14.435 C 10.553 15.014,10.400 14.980,12.500 14.980 C 14.600 14.980,14.447 15.014,14.940 14.435 C 15.536 13.734,16.362 13.248,17.253 13.074 C 17.571 13.012,18.429 13.012,18.747 13.074 C 19.643 13.249,20.479 13.745,21.076 14.455 C 21.302 14.723,21.425 14.834,21.577 14.905 C 22.105 15.150,22.730 14.896,22.938 14.352 C 22.998 14.193,23.004 13.984,22.991 12.298 C 22.977 10.462,22.975 10.414,22.885 10.140 C 22.562 9.162,21.815 8.418,20.861 8.124 C 20.551 8.028,20.492 8.024,19.158 8.009 L 17.776 7.994 17.583 7.207 C 17.221 5.735,17.109 5.477,16.608 4.953 C 16.129 4.451,15.565 4.147,14.920 4.043 C 14.750 4.015,13.300 4.002,10.740 4.003 C 7.331 4.006,6.797 4.014,6.647 4.067 M1.695 6.057 C 1.466 6.129,1.256 6.299,1.128 6.516 L 1.020 6.700 1.020 9.003 L 1.020 11.306 1.141 11.503 C 1.209 11.613,1.346 11.756,1.452 11.828 C 1.923 12.144,2.554 11.999,2.859 11.503 L 2.980 11.306 2.980 9.003 L 2.980 6.700 2.872 6.516 C 2.628 6.101,2.150 5.915,1.695 6.057 M9.000 7.000 L 9.000 8.000 7.820 8.000 C 7.171 8.000,6.640 7.991,6.640 7.980 C 6.640 7.969,6.860 7.519,7.130 6.980 L 7.619 6.000 8.310 6.000 L 9.000 6.000 9.000 7.000 M14.900 6.122 C 15.229 6.291,15.336 6.485,15.541 7.287 C 15.639 7.668,15.719 7.985,15.719 7.990 C 15.720 7.995,14.658 8.000,13.360 8.000 L 11.000 8.000 11.000 6.999 L 11.000 5.998 12.851 6.009 L 14.702 6.020 14.900 6.122 M20.310 10.061 C 20.452 10.103,20.571 10.178,20.697 10.303 C 20.937 10.544,21.000 10.759,21.000 11.346 L 21.000 11.798 20.590 11.597 C 20.133 11.373,19.601 11.198,19.060 11.094 C 18.562 10.997,17.438 10.997,16.940 11.094 C 15.760 11.322,14.680 11.875,13.838 12.682 L 13.506 13.000 12.499 13.000 L 11.492 13.000 11.204 12.721 C 10.348 11.892,9.244 11.321,8.060 11.095 C 7.671 11.020,6.588 10.995,6.210 11.051 L 6.000 11.083 6.000 10.541 L 6.000 10.000 13.053 10.000 C 19.250 10.000,20.130 10.007,20.310 10.061 M6.499 14.040 C 5.363 14.246,4.460 15.049,4.114 16.160 C 3.979 16.594,3.979 17.406,4.114 17.840 C 4.421 18.826,5.174 19.579,6.160 19.886 C 6.594 20.021,7.406 20.021,7.840 19.886 C 8.826 19.579,9.579 18.826,9.886 17.840 C 10.021 17.406,10.021 16.594,9.886 16.160 C 9.581 15.179,8.810 14.407,7.861 14.129 C 7.500 14.023,6.832 13.980,6.499 14.040 M17.499 14.040 C 16.363 14.246,15.460 15.049,15.114 16.160 C 14.979 16.594,14.979 17.406,15.114 17.840 C 15.421 18.826,16.174 19.579,17.160 19.886 C 17.594 20.021,18.406 20.021,18.840 19.886 C 19.826 19.579,20.579 18.826,20.886 17.840 C 21.021 17.406,21.021 16.594,20.886 16.160 C 20.581 15.179,19.810 14.407,18.861 14.129 C 18.500 14.023,17.832 13.980,17.499 14.040 M7.334 16.064 C 7.698 16.188,8.000 16.613,8.000 17.001 C 8.000 17.331,7.784 17.696,7.484 17.872 C 7.328 17.963,7.254 17.980,7.000 17.980 C 6.746 17.980,6.672 17.963,6.516 17.872 C 5.937 17.531,5.833 16.774,6.301 16.306 C 6.587 16.019,6.952 15.934,7.334 16.064 M18.334 16.064 C 18.698 16.188,19.000 16.613,19.000 17.001 C 19.000 17.331,18.784 17.696,18.484 17.872 C 18.328 17.963,18.254 17.980,18.000 17.980 C 17.746 17.980,17.672 17.963,17.516 17.872 C 16.937 17.531,16.833 16.774,17.301 16.306 C 17.587 16.019,17.952 15.934,18.334 16.064 " stroke="none" fill-rule="evenodd" fill="black"></path></svg>