<svg xmlns="http://www.w3.org/2000/svg" width="24" height="24" viewBox="0 0 24 24" fill="none" stroke="currentColor" stroke-width="2" stroke-linecap="round" stroke-linejoin="round"><path d="M12.761 3.522 C 7.316 4.432,3.641 5.064,3.549 5.105 C 3.368 5.187,3.178 5.392,3.076 5.617 C 3.006 5.770,3.002 5.939,3.001 8.384 L 3.000 10.987 2.786 11.035 C 2.515 11.096,2.270 11.275,2.129 11.514 L 2.020 11.700 2.020 14.620 L 2.020 17.540 2.114 17.840 C 2.422 18.827,3.174 19.579,4.160 19.886 C 4.594 20.021,5.407 20.021,5.839 19.886 C 6.351 19.726,6.743 19.491,7.107 19.127 L 7.234 19.000 11.000 19.000 L 14.766 19.000 14.893 19.127 C 15.257 19.491,15.649 19.726,16.161 19.886 C 16.412 19.965,16.546 19.979,17.000 19.979 C 17.454 19.979,17.588 19.965,17.839 19.886 C 18.350 19.726,18.743 19.491,19.104 19.129 L 19.229 19.005 20.264 18.992 L 21.300 18.980 21.492 18.867 C 21.711 18.738,21.901 18.498,21.962 18.273 C 21.990 18.169,21.999 16.982,21.990 14.669 C 21.976 11.261,21.974 11.215,21.885 10.820 C 21.611 9.604,21.100 8.652,20.269 7.805 C 19.258 6.775,18.009 6.180,16.564 6.039 C 16.353 6.019,15.215 6.002,14.036 6.001 C 11.709 6.000,11.668 6.003,11.382 6.221 C 11.302 6.282,11.187 6.415,11.128 6.516 L 11.020 6.700 11.009 8.850 L 10.997 11.000 9.999 11.000 L 9.000 11.000 9.000 9.427 C 9.000 8.106,8.990 7.825,8.938 7.671 C 8.826 7.343,8.681 7.225,7.920 6.840 C 7.339 6.547,7.237 6.483,7.320 6.463 C 7.475 6.427,20.872 4.200,20.936 4.200 C 20.981 4.200,20.995 4.309,21.006 4.753 C 21.020 5.288,21.024 5.313,21.141 5.503 C 21.543 6.156,22.457 6.156,22.859 5.503 L 22.980 5.306 22.980 4.003 L 22.980 2.700 22.872 2.516 C 22.686 2.201,22.331 1.995,21.985 2.004 C 21.894 2.006,17.743 2.690,12.761 3.522 M6.020 8.130 L 7.000 8.619 7.000 9.810 L 7.000 11.000 6.000 11.000 L 5.000 11.000 5.000 9.320 C 5.000 8.396,5.009 7.640,5.020 7.640 C 5.031 7.640,5.481 7.860,6.020 8.130 M14.818 9.870 C 15.643 12.633,15.586 12.464,15.750 12.646 C 15.830 12.734,15.968 12.845,16.057 12.893 C 16.217 12.978,16.256 12.980,18.110 12.991 L 20.000 13.003 19.995 14.831 C 19.993 15.890,19.977 16.580,19.959 16.471 C 19.778 15.400,18.930 14.451,17.861 14.125 C 17.588 14.042,17.458 14.027,17.000 14.027 C 16.542 14.027,16.412 14.042,16.139 14.125 C 14.982 14.478,14.123 15.518,14.016 16.698 L 13.989 17.000 13.494 17.000 L 13.000 17.000 13.000 12.500 L 13.000 8.000 13.630 8.000 L 14.260 8.001 14.818 9.870 M16.855 8.100 C 18.184 8.381,19.319 9.395,19.780 10.712 L 19.874 10.980 18.571 10.991 C 17.854 10.996,17.260 10.994,17.251 10.984 C 17.242 10.975,17.046 10.340,16.816 9.574 C 16.587 8.807,16.389 8.149,16.377 8.110 C 16.349 8.021,16.472 8.018,16.855 8.100 M11.000 15.000 L 11.000 17.000 9.506 17.000 L 8.011 17.000 7.984 16.698 C 7.877 15.518,7.017 14.476,5.861 14.125 C 5.594 14.044,5.452 14.027,5.020 14.025 C 4.713 14.024,4.426 14.044,4.320 14.074 C 4.221 14.102,4.109 14.134,4.070 14.145 C 4.006 14.164,4.000 14.119,4.000 13.583 L 4.000 13.000 7.500 13.000 L 11.000 13.000 11.000 15.000 M5.334 16.064 C 5.698 16.188,6.000 16.613,6.000 17.001 C 6.000 17.331,5.784 17.696,5.484 17.872 C 5.328 17.963,5.254 17.980,5.000 17.980 C 4.746 17.980,4.672 17.963,4.516 17.872 C 3.937 17.531,3.833 16.774,4.301 16.306 C 4.587 16.019,4.952 15.934,5.334 16.064 M17.334 16.064 C 17.698 16.188,18.000 16.613,18.000 17.001 C 18.000 17.331,17.784 17.696,17.484 17.872 C 17.328 17.963,17.254 17.980,17.000 17.980 C 16.746 17.980,16.672 17.963,16.516 17.872 C 15.934 17.529,15.831 16.775,16.304 16.303 C 16.587 16.019,16.954 15.935,17.334 16.064 " stroke="none" fill-rule="evenodd" fill="black"></path></svg>