<svg xmlns="http://www.w3.org/2000/svg" width="24" height="24" viewBox="0 0 24 24" fill="none" stroke="currentColor" stroke-width="2" stroke-linecap="round" stroke-linejoin="round"><path d="M11.700 1.054 C 11.436 1.143,2.592 5.085,2.434 5.184 C 2.261 5.293,2.140 5.454,2.059 5.682 C 1.789 6.449,2.552 7.211,3.320 6.940 C 3.413 6.907,5.393 6.034,7.720 5.000 C 10.046 3.966,11.973 3.120,12.000 3.120 C 12.027 3.120,13.954 3.966,16.280 5.000 C 18.607 6.034,20.587 6.907,20.680 6.940 C 21.448 7.211,22.211 6.449,21.941 5.682 C 21.860 5.454,21.739 5.293,21.566 5.184 C 21.486 5.134,19.365 4.179,16.854 3.064 C 11.964 0.891,12.066 0.931,11.700 1.054 M4.643 8.068 C 4.546 8.103,4.392 8.206,4.301 8.297 C 4.148 8.450,4.055 8.664,3.077 11.101 L 2.020 13.740 2.009 16.933 C 2.002 19.001,2.013 20.179,2.039 20.277 C 2.099 20.498,2.290 20.739,2.508 20.867 C 2.695 20.977,2.719 20.981,3.427 21.000 L 4.155 21.020 4.316 21.340 C 4.686 22.071,5.360 22.637,6.160 22.886 C 6.594 23.021,7.406 23.021,7.840 22.886 C 8.645 22.635,9.318 22.069,9.688 21.330 L 9.853 21.000 12.000 21.000 L 14.147 21.000 14.312 21.330 C 14.682 22.069,15.355 22.635,16.160 22.886 C 16.412 22.964,16.547 22.979,17.000 22.979 C 17.453 22.979,17.588 22.964,17.840 22.886 C 18.640 22.637,19.314 22.071,19.684 21.340 L 19.845 21.020 20.573 21.000 C 21.281 20.981,21.305 20.977,21.492 20.867 C 21.711 20.738,21.901 20.498,21.962 20.272 C 21.990 20.169,22.000 19.321,21.991 17.768 C 21.978 15.435,21.978 15.418,21.885 15.140 C 21.559 14.158,20.803 13.407,19.861 13.128 C 19.624 13.058,19.400 13.027,19.006 13.011 L 18.471 12.988 16.563 10.604 C 14.855 8.470,14.634 8.210,14.457 8.120 L 14.260 8.020 9.540 8.013 C 5.344 8.006,4.800 8.013,4.643 8.068 M11.000 11.500 L 11.000 13.000 7.741 13.000 L 4.481 13.000 4.556 12.810 C 4.598 12.706,4.851 12.071,5.120 11.400 C 5.389 10.729,5.624 10.139,5.643 10.090 L 5.678 10.000 8.339 10.000 L 11.000 10.000 11.000 11.500 M14.720 11.500 L 15.921 13.000 14.461 13.000 L 13.000 13.000 13.000 11.500 L 13.000 10.000 13.259 10.000 L 13.519 10.000 14.720 11.500 M19.310 15.061 C 19.452 15.103,19.571 15.178,19.697 15.303 C 19.993 15.599,20.000 15.650,20.000 17.447 C 20.000 18.927,19.997 19.000,19.927 19.000 C 19.875 19.000,19.805 18.904,19.688 18.670 C 19.321 17.938,18.642 17.363,17.861 17.125 C 17.588 17.042,17.458 17.027,17.000 17.027 C 16.542 17.027,16.412 17.042,16.139 17.125 C 15.358 17.363,14.679 17.938,14.312 18.670 L 14.147 19.000 12.000 19.000 L 9.853 19.000 9.688 18.670 C 9.321 17.938,8.642 17.363,7.861 17.125 C 7.588 17.042,7.458 17.027,7.000 17.027 C 6.542 17.027,6.412 17.042,6.139 17.125 C 5.358 17.363,4.679 17.938,4.312 18.670 C 4.195 18.904,4.125 19.000,4.073 19.000 C 4.003 19.000,4.000 18.914,4.000 17.000 L 4.000 15.000 11.553 15.000 C 18.198 15.000,19.130 15.007,19.310 15.061 M7.310 19.061 C 7.688 19.173,8.000 19.598,8.000 20.001 C 8.000 20.331,7.784 20.696,7.484 20.872 C 7.328 20.963,7.254 20.980,7.000 20.980 C 6.746 20.980,6.672 20.963,6.516 20.872 C 5.935 20.530,5.833 19.774,6.304 19.303 C 6.583 19.024,6.916 18.944,7.310 19.061 M17.310 19.061 C 17.688 19.173,18.000 19.598,18.000 20.001 C 18.000 20.331,17.784 20.696,17.484 20.872 C 17.328 20.963,17.254 20.980,17.000 20.980 C 16.746 20.980,16.672 20.963,16.516 20.872 C 15.932 20.528,15.831 19.775,16.307 19.299 C 16.582 19.024,16.918 18.944,17.310 19.061 " stroke="none" fill-rule="evenodd" fill="black"></path></svg>