<svg xmlns="http://www.w3.org/2000/svg" width="24" height="24" viewBox="0 0 24 24" fill="none" stroke="currentColor" stroke-width="2" stroke-linecap="round" stroke-linejoin="round"><path d="M11.695 2.055 C 11.464 2.130,11.255 2.300,11.128 2.516 L 11.020 2.700 11.009 5.892 L 10.998 9.085 9.789 7.533 C 9.124 6.680,8.478 5.882,8.353 5.760 C 7.474 4.900,6.084 4.769,5.034 5.447 C 4.691 5.668,4.331 6.051,4.153 6.385 C 3.931 6.799,2.030 11.709,2.009 11.920 C 1.972 12.296,2.168 12.667,2.508 12.867 L 2.700 12.980 5.883 13.000 L 9.067 13.020 7.548 14.200 C 6.712 14.849,5.919 15.490,5.784 15.623 C 5.488 15.918,5.274 16.272,5.132 16.700 C 5.040 16.976,5.025 17.085,5.026 17.500 C 5.027 17.909,5.043 18.028,5.133 18.300 C 5.191 18.476,5.306 18.736,5.389 18.878 C 5.597 19.233,6.041 19.666,6.383 19.847 C 6.804 20.071,11.710 21.970,11.920 21.990 C 12.296 22.028,12.667 21.832,12.867 21.492 L 12.980 21.300 13.000 18.088 L 13.020 14.876 13.400 15.346 C 13.857 15.912,14.024 16.020,14.439 16.020 C 14.651 16.020,14.735 16.000,14.886 15.911 C 15.240 15.703,15.412 15.412,15.414 15.017 C 15.415 14.696,15.349 14.583,14.645 13.707 L 14.078 13.000 16.129 12.998 C 17.737 12.997,18.212 12.985,18.330 12.943 C 18.551 12.864,18.744 12.702,18.869 12.489 C 18.964 12.328,18.980 12.256,18.980 12.000 C 18.980 11.746,18.963 11.672,18.872 11.516 C 18.813 11.415,18.698 11.282,18.618 11.221 C 18.341 11.010,18.245 11.000,16.510 11.000 L 14.912 11.000 16.465 9.790 C 17.320 9.125,18.118 8.479,18.239 8.356 C 18.515 8.076,18.731 7.714,18.868 7.300 C 18.960 7.024,18.975 6.915,18.974 6.500 C 18.973 6.092,18.957 5.972,18.868 5.700 C 18.637 4.996,18.151 4.420,17.517 4.098 C 17.415 4.047,16.191 3.560,14.796 3.016 C 12.125 1.974,12.031 1.945,11.695 2.055 M14.889 5.200 C 15.836 5.570,16.659 5.907,16.716 5.949 C 16.848 6.045,17.000 6.340,17.000 6.500 C 17.000 6.568,16.960 6.703,16.910 6.801 C 16.833 6.953,16.550 7.190,14.940 8.447 C 13.906 9.255,13.047 9.917,13.030 9.918 C 13.013 9.919,13.000 8.695,13.000 7.197 L 13.000 4.475 13.083 4.501 C 13.128 4.515,13.941 4.830,14.889 5.200 M6.800 7.090 C 6.952 7.167,7.191 7.453,8.446 9.060 C 9.254 10.094,9.916 10.954,9.917 10.970 C 9.919 10.987,8.696 11.000,7.200 11.000 C 5.704 11.000,4.480 10.991,4.480 10.980 C 4.480 10.940,5.811 7.538,5.881 7.400 C 5.967 7.228,6.060 7.142,6.241 7.063 C 6.437 6.978,6.595 6.986,6.800 7.090 M19.640 14.069 C 19.492 14.121,19.265 14.325,18.347 15.236 C 17.734 15.843,17.185 16.421,17.127 16.520 C 17.037 16.672,17.020 16.747,17.020 17.000 C 17.020 17.257,17.036 17.327,17.133 17.492 C 17.338 17.842,17.705 18.029,18.105 17.988 C 18.368 17.961,18.523 17.879,18.786 17.631 L 18.997 17.431 19.009 19.369 L 19.020 21.306 19.141 21.503 C 19.543 22.156,20.457 22.156,20.859 21.503 L 20.980 21.306 20.991 18.086 C 21.003 14.446,21.017 14.623,20.698 14.304 C 20.412 14.018,20.030 13.933,19.640 14.069 M11.000 16.800 C 11.000 18.296,10.990 19.520,10.977 19.520 C 10.887 19.520,7.392 18.127,7.286 18.048 C 7.135 17.937,7.002 17.681,7.001 17.498 C 7.000 17.432,7.040 17.297,7.090 17.199 C 7.167 17.047,7.450 16.811,9.060 15.553 C 10.094 14.746,10.954 14.084,10.970 14.083 C 10.987 14.081,11.000 15.304,11.000 16.800 " stroke="none" fill-rule="evenodd" fill="black"></path></svg>