<svg xmlns="http://www.w3.org/2000/svg" width="24" height="24" viewBox="0 0 24 24" fill="none" stroke="currentColor" stroke-width="2" stroke-linecap="round" stroke-linejoin="round"><path d="M11.695 2.055 C 11.464 2.130,11.255 2.300,11.128 2.516 L 11.020 2.700 11.009 5.892 L 10.998 9.085 9.789 7.533 C 9.124 6.680,8.478 5.882,8.353 5.760 C 7.474 4.900,6.084 4.769,5.034 5.447 C 4.691 5.668,4.331 6.051,4.153 6.385 C 3.931 6.799,2.030 11.709,2.009 11.920 C 1.972 12.296,2.168 12.667,2.508 12.867 L 2.700 12.980 5.883 13.000 L 9.067 13.020 7.548 14.200 C 6.712 14.849,5.919 15.490,5.784 15.623 C 5.488 15.918,5.274 16.272,5.132 16.700 C 5.040 16.976,5.025 17.085,5.026 17.500 C 5.027 17.909,5.043 18.028,5.133 18.300 C 5.191 18.476,5.306 18.736,5.389 18.878 C 5.597 19.233,6.041 19.666,6.383 19.847 C 6.535 19.928,7.803 20.441,9.200 20.987 C 11.658 21.948,11.749 21.980,12.020 21.980 C 12.254 21.980,12.331 21.962,12.489 21.869 C 12.702 21.744,12.864 21.551,12.943 21.330 C 12.986 21.210,12.997 20.559,12.998 18.046 L 13.000 14.913 13.154 15.108 C 13.378 15.392,13.537 15.511,13.784 15.583 C 14.528 15.799,15.221 15.074,14.994 14.317 C 14.969 14.233,14.753 13.912,14.514 13.603 C 14.275 13.295,14.080 13.033,14.080 13.021 C 14.080 13.010,14.553 12.999,15.130 12.998 C 16.259 12.996,16.359 12.982,16.619 12.783 C 16.696 12.725,16.808 12.592,16.869 12.489 C 16.964 12.328,16.980 12.256,16.980 12.000 C 16.980 11.746,16.963 11.672,16.872 11.516 C 16.629 11.104,16.356 11.000,15.510 11.000 L 14.912 11.000 16.465 9.790 C 17.320 9.125,18.118 8.479,18.239 8.356 C 18.515 8.076,18.731 7.714,18.868 7.300 C 18.960 7.024,18.975 6.915,18.974 6.500 C 18.973 6.092,18.957 5.972,18.868 5.700 C 18.637 4.996,18.151 4.420,17.517 4.098 C 17.415 4.047,16.191 3.560,14.796 3.016 C 12.125 1.974,12.031 1.945,11.695 2.055 M14.889 5.200 C 15.836 5.570,16.659 5.907,16.716 5.949 C 16.848 6.045,17.000 6.340,17.000 6.500 C 17.000 6.568,16.960 6.703,16.910 6.801 C 16.833 6.953,16.550 7.190,14.940 8.447 C 13.906 9.255,13.047 9.917,13.030 9.918 C 13.013 9.919,13.000 8.695,13.000 7.197 L 13.000 4.475 13.083 4.501 C 13.128 4.515,13.941 4.830,14.889 5.200 M6.800 7.090 C 6.952 7.167,7.191 7.453,8.446 9.060 C 9.254 10.094,9.916 10.954,9.917 10.970 C 9.919 10.987,8.696 11.000,7.200 11.000 C 5.704 11.000,4.480 10.991,4.480 10.980 C 4.480 10.940,5.811 7.538,5.881 7.400 C 5.967 7.228,6.060 7.142,6.241 7.063 C 6.437 6.978,6.595 6.986,6.800 7.090 M18.174 14.042 C 17.573 14.161,17.060 14.752,17.010 15.384 C 16.932 16.352,18.089 16.878,18.730 16.166 L 18.880 16.000 19.250 16.000 C 19.546 16.000,19.645 16.016,19.748 16.078 C 19.991 16.226,20.065 16.513,19.922 16.748 C 19.801 16.946,19.656 17.000,19.248 17.000 C 18.664 17.000,18.345 17.147,18.128 17.516 C 18.037 17.672,18.020 17.746,18.020 18.000 C 18.020 18.256,18.036 18.328,18.131 18.489 C 18.353 18.866,18.630 18.996,19.220 18.998 C 19.544 19.000,19.644 19.015,19.748 19.078 C 19.991 19.226,20.065 19.513,19.922 19.748 C 19.801 19.946,19.656 20.000,19.242 20.000 L 18.880 20.000 18.730 19.834 C 18.528 19.610,18.322 19.522,18.000 19.522 C 17.680 19.522,17.472 19.609,17.276 19.828 C 17.067 20.060,16.984 20.303,17.010 20.616 C 17.051 21.137,17.409 21.642,17.896 21.867 L 18.140 21.980 19.080 21.979 C 20.005 21.979,20.025 21.977,20.320 21.869 C 21.040 21.605,21.606 21.039,21.867 20.320 C 21.965 20.051,21.976 19.966,21.976 19.500 C 21.976 19.035,21.965 18.949,21.868 18.684 C 21.809 18.521,21.705 18.301,21.636 18.194 L 21.512 18.000 21.636 17.806 C 21.705 17.699,21.809 17.479,21.868 17.316 C 21.965 17.051,21.976 16.965,21.976 16.500 C 21.976 16.035,21.965 15.948,21.868 15.680 C 21.732 15.306,21.458 14.898,21.165 14.636 C 20.887 14.387,20.390 14.137,20.020 14.060 C 19.713 13.996,18.468 13.983,18.174 14.042 M11.000 16.800 C 11.000 18.296,10.990 19.520,10.977 19.520 C 10.887 19.520,7.392 18.127,7.286 18.048 C 7.135 17.937,7.002 17.681,7.001 17.498 C 7.000 17.432,7.040 17.297,7.090 17.199 C 7.167 17.047,7.450 16.811,9.060 15.553 C 10.094 14.746,10.954 14.084,10.970 14.083 C 10.987 14.081,11.000 15.304,11.000 16.800 " stroke="none" fill-rule="evenodd" fill="black"></path></svg>