<svg xmlns="http://www.w3.org/2000/svg" width="24" height="24" viewBox="0 0 24 24" fill="none" stroke="currentColor" stroke-width="2" stroke-linecap="round" stroke-linejoin="round"><path d="M10.760 3.044 C 10.661 3.063,10.517 3.104,10.440 3.135 C 9.926 3.341,3.072 6.343,2.960 6.412 C 2.157 6.903,1.812 7.927,2.148 8.820 C 2.242 9.069,6.869 20.263,7.134 20.883 C 7.281 21.226,7.637 21.595,8.000 21.780 C 8.414 21.990,8.991 22.063,9.375 21.953 C 9.656 21.873,16.970 18.677,17.140 18.560 C 17.843 18.076,18.178 17.130,17.927 16.340 C 17.822 16.010,12.945 4.236,12.809 3.985 C 12.439 3.300,11.546 2.890,10.760 3.044 M14.695 3.057 C 14.466 3.129,14.256 3.299,14.128 3.516 C 14.037 3.672,14.020 3.746,14.020 4.000 C 14.020 4.256,14.036 4.328,14.131 4.489 C 14.256 4.702,14.449 4.864,14.670 4.943 C 14.768 4.978,15.023 4.997,15.410 4.998 L 16.000 5.000 16.000 6.850 L 16.001 8.700 16.095 8.900 C 16.276 9.281,16.595 9.488,17.000 9.488 C 17.405 9.488,17.724 9.281,17.905 8.900 L 17.999 8.700 17.999 6.740 C 17.999 4.624,17.988 4.490,17.781 4.083 C 17.551 3.628,17.022 3.203,16.523 3.073 C 16.191 2.987,14.955 2.976,14.695 3.057 M19.643 5.069 C 19.291 5.193,19.000 5.614,19.000 6.000 C 19.000 6.240,19.119 6.521,19.296 6.698 C 19.417 6.819,19.574 6.909,19.893 7.039 C 20.130 7.136,20.333 7.228,20.342 7.243 C 20.351 7.259,19.871 8.411,19.275 9.805 C 18.023 12.734,18.000 12.792,18.000 12.994 C 18.000 13.527,18.470 14.000,19.000 14.000 C 19.241 14.000,19.521 13.881,19.697 13.704 C 19.874 13.526,19.768 13.760,21.482 9.740 C 22.429 7.519,22.457 7.425,22.343 6.880 C 22.256 6.464,22.069 6.104,21.800 5.834 C 21.551 5.585,21.289 5.439,20.616 5.176 C 20.125 4.984,19.941 4.964,19.643 5.069 M13.555 10.965 C 14.903 14.224,15.991 16.903,15.973 16.919 C 15.955 16.934,14.374 17.628,12.460 18.459 C 10.546 19.290,8.969 19.977,8.955 19.984 C 8.930 19.998,4.040 8.214,4.040 8.139 C 4.040 8.104,10.958 5.055,11.062 5.044 C 11.086 5.042,12.207 7.706,13.555 10.965 " stroke="none" fill-rule="evenodd" fill="black"></path></svg>