<svg xmlns="http://www.w3.org/2000/svg" width="24" height="24" viewBox="0 0 24 24" fill="none" stroke="currentColor" stroke-width="2" stroke-linecap="round" stroke-linejoin="round"><path d="M2.670 2.061 C 2.448 2.142,2.250 2.309,2.128 2.516 C 2.036 2.672,2.020 2.745,2.021 3.000 C 2.021 3.213,2.043 3.341,2.095 3.440 C 2.136 3.517,2.538 3.951,2.988 4.405 L 3.807 5.229 3.553 5.372 C 2.871 5.755,2.351 6.401,2.114 7.160 L 2.020 7.460 2.020 12.280 L 2.020 17.100 2.130 17.452 C 2.511 18.667,3.340 19.495,4.548 19.868 C 4.895 19.975,4.917 19.977,6.020 19.978 C 7.069 19.980,7.163 19.974,7.500 19.886 C 7.936 19.773,8.519 19.505,8.859 19.262 C 9.263 18.974,9.539 18.674,10.472 17.510 C 11.474 16.259,11.520 16.221,12.000 16.221 C 12.480 16.221,12.526 16.260,13.527 17.509 C 14.011 18.113,14.511 18.711,14.637 18.837 C 15.110 19.310,15.803 19.703,16.480 19.882 C 16.769 19.959,16.951 19.975,17.700 19.989 L 18.580 20.006 19.500 20.919 C 20.006 21.420,20.483 21.864,20.560 21.905 C 20.659 21.957,20.787 21.979,21.000 21.979 C 21.258 21.980,21.327 21.964,21.492 21.867 C 21.968 21.587,22.139 20.967,21.865 20.508 C 21.810 20.416,17.665 16.243,12.653 11.235 C 4.231 2.820,3.525 2.125,3.343 2.065 C 3.107 1.987,2.874 1.986,2.670 2.061 M9.695 5.057 C 9.465 5.129,9.256 5.299,9.128 5.516 C 9.037 5.672,9.020 5.746,9.020 6.000 C 9.020 6.256,9.036 6.328,9.131 6.489 C 9.256 6.702,9.449 6.864,9.670 6.943 C 9.792 6.986,10.689 6.997,14.463 6.998 C 19.702 7.000,19.375 6.981,19.697 7.303 C 20.022 7.629,20.003 7.292,19.998 12.566 C 19.992 17.810,19.966 17.371,20.294 17.689 C 20.793 18.173,21.672 17.944,21.908 17.268 C 21.976 17.072,21.980 16.791,21.980 12.260 L 21.980 7.460 21.886 7.160 C 21.581 6.182,20.832 5.428,19.861 5.121 L 19.540 5.020 14.700 5.012 C 10.809 5.006,9.828 5.014,9.695 5.057 M7.136 8.556 L 8.692 10.112 8.456 10.057 C 7.406 9.810,6.333 10.460,6.060 11.508 C 5.941 11.962,6.003 12.492,6.225 12.930 C 6.361 13.199,6.801 13.639,7.070 13.775 C 7.659 14.073,8.341 14.073,8.930 13.775 C 9.196 13.640,9.638 13.200,9.771 12.937 C 9.990 12.506,10.052 12.007,9.945 11.550 C 9.915 11.423,9.893 11.320,9.895 11.320 C 9.898 11.320,10.582 12.002,11.416 12.836 L 12.931 14.351 12.715 14.290 C 12.404 14.203,11.613 14.204,11.280 14.292 C 10.907 14.392,10.416 14.637,10.139 14.862 C 9.849 15.098,9.948 14.985,8.860 16.326 C 8.367 16.934,7.899 17.485,7.819 17.551 C 7.618 17.716,7.307 17.866,7.008 17.942 C 6.807 17.993,6.589 18.003,5.948 17.993 C 5.159 17.980,5.134 17.977,4.896 17.867 C 4.587 17.724,4.279 17.415,4.132 17.100 L 4.020 16.860 4.009 12.384 C 3.997 7.318,3.979 7.628,4.303 7.303 C 4.531 7.076,4.742 7.006,5.220 7.003 L 5.580 7.000 7.136 8.556 M15.605 10.045 C 15.125 10.125,14.522 10.540,14.379 10.890 C 14.281 11.129,14.288 11.456,14.395 11.700 C 14.463 11.856,14.662 12.078,15.303 12.713 C 16.179 13.582,16.320 13.682,16.671 13.688 C 17.004 13.693,17.192 13.615,17.440 13.367 C 18.216 12.591,18.162 11.253,17.326 10.516 C 16.864 10.108,16.244 9.939,15.605 10.045 " stroke="none" fill-rule="evenodd" fill="black"></path></svg>