<svg xmlns="http://www.w3.org/2000/svg" width="24" height="24" viewBox="0 0 24 24" fill="none" stroke="currentColor" stroke-width="2" stroke-linecap="round" stroke-linejoin="round"><path d="M9.640 5.068 C 9.485 5.121,9.036 5.553,6.347 8.235 C 4.570 10.008,3.188 11.417,3.127 11.520 C 3.036 11.672,3.020 11.746,3.020 12.000 C 3.020 12.254,3.036 12.328,3.127 12.480 C 3.262 12.706,9.368 18.805,9.560 18.905 C 9.659 18.957,9.788 18.979,10.000 18.979 C 10.257 18.980,10.327 18.964,10.489 18.869 C 10.702 18.744,10.864 18.551,10.943 18.330 C 10.987 18.207,10.997 17.061,10.998 12.017 C 11.000 5.092,11.024 5.631,10.697 5.303 C 10.412 5.019,10.032 4.934,9.640 5.068 M13.650 5.067 C 13.556 5.100,13.400 5.206,13.304 5.303 C 12.975 5.631,13.000 5.091,13.002 12.017 C 13.003 17.061,13.013 18.207,13.057 18.330 C 13.136 18.551,13.298 18.744,13.511 18.869 C 13.673 18.964,13.743 18.980,14.000 18.979 C 14.212 18.979,14.341 18.957,14.440 18.905 C 14.632 18.805,20.738 12.706,20.873 12.480 C 20.964 12.328,20.980 12.254,20.980 12.000 C 20.980 11.746,20.964 11.672,20.873 11.520 C 20.812 11.417,19.431 10.008,17.653 8.235 C 14.817 5.407,14.522 5.125,14.343 5.065 C 14.103 4.986,13.876 4.986,13.650 5.067 M9.000 12.010 L 9.000 15.580 7.210 13.790 L 5.420 12.000 7.200 10.220 C 8.179 9.241,8.984 8.440,8.990 8.440 C 8.995 8.440,9.000 10.046,9.000 12.010 M16.790 13.790 L 15.000 15.580 15.000 12.000 L 15.000 8.420 16.790 10.210 L 18.580 12.000 16.790 13.790 " stroke="none" fill-rule="evenodd" fill="black"></path></svg>