<svg xmlns="http://www.w3.org/2000/svg" width="24" height="24" viewBox="0 0 24 24" fill="none" stroke="currentColor" stroke-width="2" stroke-linecap="round" stroke-linejoin="round"><path d="M11.640 7.068 C 11.485 7.121,11.036 7.553,8.347 10.235 C 6.570 12.008,5.188 13.417,5.127 13.520 C 5.036 13.672,5.020 13.746,5.020 14.000 C 5.020 14.254,5.037 14.328,5.128 14.484 C 5.253 14.697,5.450 14.859,5.684 14.942 C 5.922 15.025,18.096 15.027,18.330 14.943 C 18.551 14.864,18.744 14.702,18.869 14.489 C 18.964 14.328,18.980 14.256,18.980 14.000 C 18.980 13.746,18.964 13.672,18.873 13.520 C 18.812 13.417,17.431 12.008,15.653 10.235 C 12.817 7.407,12.522 7.125,12.343 7.065 C 12.102 6.986,11.878 6.986,11.640 7.068 M13.800 11.220 L 15.580 13.000 12.000 13.000 L 8.420 13.000 10.200 11.220 C 11.179 10.241,11.989 9.440,12.000 9.440 C 12.011 9.440,12.821 10.241,13.800 11.220 " stroke="none" fill-rule="evenodd" fill="black"></path></svg>