<svg xmlns="http://www.w3.org/2000/svg" width="24" height="24" viewBox="0 0 24 24" fill="none" stroke="currentColor" stroke-width="2" stroke-linecap="round" stroke-linejoin="round"><path d="M13.640 5.068 C 13.485 5.121,13.036 5.553,10.347 8.235 C 8.570 10.008,7.188 11.417,7.127 11.520 C 7.036 11.672,7.020 11.746,7.020 12.000 C 7.020 12.254,7.036 12.328,7.127 12.480 C 7.262 12.706,13.368 18.805,13.560 18.905 C 13.659 18.957,13.788 18.979,14.000 18.979 C 14.255 18.980,14.328 18.964,14.484 18.872 C 14.585 18.813,14.717 18.700,14.776 18.621 C 15.014 18.309,15.002 18.701,14.990 11.920 L 14.980 5.700 14.872 5.516 C 14.617 5.083,14.122 4.903,13.640 5.068 M13.000 12.010 L 13.000 15.580 11.210 13.790 L 9.420 12.000 11.200 10.220 C 12.179 9.241,12.984 8.440,12.990 8.440 C 12.995 8.440,13.000 10.046,13.000 12.010 " stroke="none" fill-rule="evenodd" fill="black"></path></svg>