<svg xmlns="http://www.w3.org/2000/svg" width="24" height="24" viewBox="0 0 24 24" fill="none" stroke="currentColor" stroke-width="2" stroke-linecap="round" stroke-linejoin="round"><path d="M9.650 5.067 C 9.556 5.100,9.400 5.206,9.304 5.303 C 8.975 5.631,9.000 5.091,9.002 12.017 C 9.003 17.061,9.013 18.207,9.057 18.330 C 9.136 18.551,9.298 18.744,9.511 18.869 C 9.673 18.964,9.743 18.980,10.000 18.979 C 10.212 18.979,10.341 18.957,10.440 18.905 C 10.632 18.805,16.738 12.706,16.873 12.480 C 16.964 12.328,16.980 12.254,16.980 12.000 C 16.980 11.746,16.964 11.672,16.873 11.520 C 16.812 11.417,15.431 10.008,13.653 8.235 C 10.817 5.407,10.522 5.125,10.343 5.065 C 10.103 4.986,9.876 4.986,9.650 5.067 M12.790 13.790 L 11.000 15.580 11.000 12.000 L 11.000 8.420 12.790 10.210 L 14.580 12.000 12.790 13.790 " stroke="none" fill-rule="evenodd" fill="black"></path></svg>