<svg xmlns="http://www.w3.org/2000/svg" width="24" height="24" viewBox="0 0 24 24" fill="none" stroke="currentColor" stroke-width="2" stroke-linecap="round" stroke-linejoin="round"><path d="M7.477 4.073 C 6.806 4.249,6.238 4.823,6.060 5.508 C 6.008 5.706,6.000 6.577,6.000 12.000 C 6.000 18.828,5.988 18.462,6.225 18.930 C 6.361 19.199,6.801 19.639,7.070 19.775 C 7.529 20.008,7.360 20.000,12.000 20.000 C 16.640 20.000,16.471 20.008,16.930 19.775 C 17.196 19.640,17.638 19.200,17.771 18.937 C 18.012 18.462,18.000 18.830,17.999 12.014 C 17.999 5.247,18.008 5.529,17.781 5.083 C 17.646 4.816,17.297 4.449,17.017 4.281 C 16.539 3.993,16.751 4.005,12.000 4.005 C 8.102 4.005,7.718 4.010,7.477 4.073 M1.695 6.057 C 1.466 6.129,1.256 6.299,1.128 6.516 C 1.037 6.672,1.020 6.746,1.020 7.000 C 1.020 7.256,1.036 7.328,1.131 7.489 C 1.256 7.702,1.449 7.864,1.670 7.943 C 1.768 7.978,2.023 7.997,2.410 7.998 L 3.000 8.000 3.000 12.000 L 3.000 16.000 2.446 16.000 C 1.648 16.000,1.367 16.110,1.128 16.516 C 1.037 16.672,1.020 16.746,1.020 17.000 C 1.020 17.256,1.036 17.328,1.131 17.489 C 1.192 17.592,1.304 17.725,1.381 17.783 C 1.627 17.971,1.764 17.996,2.542 17.998 C 3.327 18.000,3.559 17.963,3.930 17.775 C 4.196 17.640,4.638 17.200,4.771 16.937 C 5.008 16.471,5.000 16.634,4.999 12.014 C 4.999 7.426,5.003 7.520,4.781 7.083 C 4.551 6.628,4.022 6.203,3.523 6.073 C 3.191 5.987,1.955 5.976,1.695 6.057 M16.000 12.000 L 16.000 18.000 12.000 18.000 L 8.000 18.000 8.000 12.000 L 8.000 6.000 12.000 6.000 L 16.000 6.000 16.000 12.000 M20.477 6.073 C 19.806 6.249,19.238 6.823,19.060 7.508 C 18.970 7.851,18.970 16.149,19.060 16.492 C 19.153 16.852,19.310 17.118,19.596 17.404 C 19.882 17.690,20.148 17.847,20.508 17.940 C 20.812 18.020,22.110 18.021,22.330 17.943 C 22.551 17.864,22.744 17.702,22.869 17.489 C 22.964 17.328,22.980 17.256,22.980 17.000 C 22.980 16.746,22.963 16.672,22.872 16.516 C 22.633 16.110,22.352 16.000,21.554 16.000 L 21.000 16.000 21.000 12.000 L 21.000 8.000 21.590 7.998 C 21.977 7.997,22.232 7.978,22.330 7.943 C 22.551 7.864,22.744 7.702,22.869 7.489 C 22.964 7.328,22.980 7.256,22.980 7.000 C 22.980 6.746,22.963 6.672,22.872 6.516 C 22.740 6.293,22.533 6.128,22.290 6.055 C 22.013 5.972,20.819 5.984,20.477 6.073 " stroke="none" fill-rule="evenodd" fill="black"></path></svg>