<svg xmlns="http://www.w3.org/2000/svg" width="24" height="24" viewBox="0 0 24 24" fill="none" stroke="currentColor" stroke-width="2" stroke-linecap="round" stroke-linejoin="round"><path d="M6.695 1.057 C 6.466 1.129,6.256 1.299,6.128 1.516 C 6.023 1.695,6.020 1.719,6.007 2.449 C 5.992 3.281,6.022 3.496,6.202 3.877 C 6.348 4.186,6.771 4.623,7.070 4.775 C 7.529 5.008,7.360 5.000,12.000 5.000 C 16.640 5.000,16.471 5.008,16.930 4.775 C 17.196 4.640,17.638 4.200,17.771 3.937 C 17.970 3.545,18.007 3.298,17.993 2.463 C 17.980 1.715,17.978 1.696,17.871 1.514 C 17.479 0.848,16.521 0.848,16.129 1.514 C 16.024 1.693,16.019 1.726,16.007 2.350 L 15.993 3.000 12.000 3.000 L 8.007 3.000 7.993 2.350 C 7.981 1.728,7.975 1.692,7.872 1.516 C 7.628 1.101,7.150 0.915,6.695 1.057 M5.477 6.073 C 4.806 6.249,4.238 6.823,4.060 7.508 C 4.009 7.704,4.000 8.350,4.000 12.000 C 4.000 16.640,3.992 16.471,4.225 16.930 C 4.361 17.199,4.801 17.639,5.070 17.775 C 5.538 18.012,5.172 18.000,12.000 18.000 C 18.828 18.000,18.462 18.012,18.930 17.775 C 19.196 17.640,19.638 17.200,19.771 16.937 C 20.008 16.471,20.000 16.634,19.999 12.014 C 19.999 7.426,20.003 7.520,19.781 7.083 C 19.646 6.816,19.297 6.449,19.017 6.281 C 18.528 5.987,18.983 6.005,12.000 6.005 C 6.211 6.005,5.720 6.010,5.477 6.073 M18.000 12.000 L 18.000 16.000 12.000 16.000 L 6.000 16.000 6.000 12.000 L 6.000 8.000 12.000 8.000 L 18.000 8.000 18.000 12.000 M7.477 19.073 C 6.784 19.254,6.184 19.886,6.038 20.589 C 6.012 20.717,5.999 21.104,6.007 21.555 L 6.020 22.307 6.141 22.503 C 6.543 23.156,7.457 23.156,7.859 22.503 C 7.979 22.308,7.980 22.300,7.993 21.653 L 8.007 21.000 12.000 21.000 L 15.993 21.000 16.007 21.653 C 16.020 22.300,16.021 22.308,16.141 22.503 C 16.543 23.156,17.457 23.156,17.859 22.503 L 17.980 22.307 17.993 21.562 C 18.007 20.744,17.964 20.444,17.782 20.083 C 17.646 19.816,17.297 19.449,17.017 19.281 C 16.539 18.993,16.751 19.005,12.000 19.005 C 8.102 19.005,7.718 19.010,7.477 19.073 " stroke="none" fill-rule="evenodd" fill="black"></path></svg>