<svg xmlns="http://www.w3.org/2000/svg" width="24" height="24" viewBox="0 0 24 24" fill="none" stroke="currentColor" stroke-width="2" stroke-linecap="round" stroke-linejoin="round"><path d="M15.820 1.025 C 15.379 1.132,14.566 1.747,14.060 2.355 C 13.360 3.196,13.052 3.940,13.014 4.880 C 13.001 5.228,13.014 5.423,13.068 5.681 L 13.141 6.022 12.500 6.026 C 12.007 6.029,11.764 6.050,11.445 6.117 C 9.760 6.470,8.594 7.361,7.331 9.260 C 6.290 10.825,5.220 12.914,3.971 15.820 C 3.004 18.070,2.046 20.569,2.011 20.930 C 1.973 21.325,2.180 21.703,2.536 21.891 C 2.657 21.955,2.773 21.977,2.980 21.978 C 3.227 21.979,3.339 21.950,3.920 21.733 C 7.962 20.224,11.591 18.581,13.818 17.252 C 15.773 16.085,16.839 15.101,17.419 13.927 C 17.825 13.106,18.029 12.167,17.991 11.299 L 17.971 10.858 18.316 10.928 C 19.814 11.235,21.422 10.492,22.547 8.974 C 22.893 8.507,22.978 8.315,22.979 8.000 C 22.980 7.686,22.897 7.498,22.548 7.026 C 21.720 5.906,20.558 5.168,19.410 5.033 L 19.011 4.987 18.986 4.703 C 18.897 3.653,18.320 2.610,17.367 1.775 C 17.040 1.488,16.604 1.182,16.392 1.090 C 16.264 1.035,15.934 0.997,15.820 1.025 M16.269 3.491 C 16.751 3.994,16.972 4.446,16.976 4.940 C 16.979 5.228,16.965 5.286,16.844 5.520 C 16.648 5.900,16.514 6.070,16.176 6.377 L 15.874 6.650 15.714 6.495 C 15.510 6.297,15.232 5.881,15.115 5.599 C 15.043 5.424,15.025 5.304,15.025 5.000 C 15.025 4.574,15.088 4.371,15.346 3.969 C 15.485 3.751,15.944 3.240,16.000 3.240 C 16.015 3.240,16.136 3.353,16.269 3.491 M19.600 7.120 C 19.899 7.238,20.296 7.510,20.559 7.777 L 20.777 8.000 20.559 8.223 C 20.286 8.501,19.832 8.809,19.553 8.905 C 19.265 9.005,18.735 9.005,18.447 8.905 C 18.190 8.816,17.718 8.506,17.504 8.285 L 17.348 8.125 17.619 7.832 C 17.977 7.445,18.387 7.159,18.760 7.035 C 18.920 6.982,19.363 7.027,19.600 7.120 M12.985 8.043 C 14.392 8.239,15.600 9.331,15.905 10.683 C 15.987 11.046,15.997 11.880,15.924 12.213 L 15.873 12.446 15.203 11.787 C 14.601 11.194,14.512 11.121,14.319 11.064 C 14.057 10.986,13.945 10.984,13.710 11.055 C 13.467 11.128,13.260 11.293,13.128 11.516 C 13.036 11.672,13.020 11.745,13.021 12.000 C 13.021 12.213,13.043 12.340,13.095 12.440 C 13.136 12.517,13.521 12.935,13.951 13.368 C 14.659 14.082,14.728 14.162,14.677 14.225 C 14.645 14.263,14.410 14.451,14.154 14.642 C 12.787 15.663,10.558 16.831,7.360 18.201 C 6.043 18.765,4.755 19.288,4.733 19.267 C 4.699 19.232,5.812 16.565,6.439 15.180 C 6.744 14.507,7.467 13.000,7.501 12.966 C 7.512 12.955,7.723 13.144,7.971 13.388 C 8.523 13.931,8.605 13.978,9.000 13.979 C 9.258 13.980,9.327 13.964,9.492 13.867 C 9.714 13.737,9.901 13.498,9.965 13.264 C 10.019 13.061,9.989 12.733,9.899 12.555 C 9.861 12.481,9.536 12.123,9.177 11.760 L 8.523 11.100 8.752 10.736 C 9.069 10.230,9.473 9.673,9.769 9.331 C 10.637 8.333,11.779 7.875,12.985 8.043 " stroke="none" fill-rule="evenodd" fill="black"></path></svg>