<svg xmlns="http://www.w3.org/2000/svg" width="24" height="24" viewBox="0 0 24 24" fill="none" stroke="currentColor" stroke-width="2" stroke-linecap="round" stroke-linejoin="round"><path d="M15.820 1.025 C 15.379 1.132,14.566 1.747,14.060 2.355 C 13.360 3.196,13.052 3.940,13.014 4.880 C 13.001 5.227,13.014 5.423,13.068 5.680 L 13.140 6.020 12.500 6.022 C 11.645 6.024,10.926 6.168,10.597 6.402 C 10.444 6.511,10.249 6.851,10.217 7.066 C 10.151 7.509,10.475 8.000,10.929 8.142 C 11.126 8.204,11.190 8.207,11.389 8.167 C 12.202 8.002,12.268 7.994,12.660 8.016 C 14.222 8.103,15.479 9.118,15.885 10.620 C 16.011 11.085,16.011 11.839,15.884 12.360 C 15.752 12.904,15.793 13.156,16.067 13.481 C 16.411 13.890,17.151 13.897,17.528 13.495 C 17.811 13.193,17.978 12.461,17.979 11.520 L 17.980 10.860 18.320 10.929 C 19.814 11.235,21.423 10.490,22.547 8.974 C 22.893 8.507,22.978 8.315,22.979 8.000 C 22.980 7.686,22.897 7.498,22.548 7.026 C 21.720 5.906,20.558 5.168,19.410 5.033 L 19.011 4.987 18.986 4.703 C 18.897 3.653,18.320 2.610,17.367 1.775 C 17.040 1.488,16.604 1.182,16.392 1.090 C 16.264 1.035,15.934 0.997,15.820 1.025 M2.670 2.061 C 2.448 2.142,2.250 2.309,2.128 2.516 C 2.036 2.672,2.020 2.745,2.021 3.000 C 2.021 3.212,2.043 3.341,2.095 3.440 C 2.135 3.517,3.375 4.789,4.850 6.267 L 7.532 8.953 7.273 9.347 C 6.043 11.216,4.668 14.034,3.142 17.820 C 2.411 19.632,2.000 20.774,2.000 20.993 C 2.000 21.531,2.469 22.000,3.007 22.000 C 3.296 22.000,5.745 21.068,8.080 20.068 C 11.001 18.819,13.075 17.765,14.654 16.728 L 15.049 16.469 17.734 19.151 C 19.211 20.625,20.483 21.865,20.560 21.905 C 20.659 21.957,20.788 21.979,21.000 21.979 C 21.258 21.980,21.327 21.964,21.492 21.867 C 21.968 21.587,22.139 20.967,21.865 20.508 C 21.810 20.416,17.665 16.243,12.653 11.235 C 4.231 2.820,3.525 2.125,3.343 2.065 C 3.107 1.987,2.874 1.986,2.670 2.061 M16.269 3.491 C 16.751 3.994,16.972 4.446,16.976 4.940 C 16.979 5.228,16.965 5.286,16.844 5.520 C 16.648 5.900,16.514 6.070,16.176 6.377 L 15.874 6.650 15.714 6.495 C 15.510 6.297,15.232 5.881,15.115 5.599 C 15.043 5.424,15.025 5.304,15.025 5.000 C 15.025 4.574,15.088 4.371,15.346 3.969 C 15.485 3.751,15.944 3.240,16.000 3.240 C 16.015 3.240,16.136 3.353,16.269 3.491 M19.600 7.120 C 19.899 7.238,20.296 7.510,20.559 7.777 L 20.777 8.000 20.559 8.223 C 20.286 8.501,19.832 8.809,19.553 8.905 C 19.265 9.005,18.735 9.005,18.447 8.905 C 18.190 8.816,17.718 8.506,17.504 8.285 L 17.348 8.125 17.619 7.832 C 17.977 7.445,18.387 7.159,18.760 7.035 C 18.920 6.982,19.363 7.027,19.600 7.120 M13.510 15.089 C 13.363 15.201,12.257 15.853,11.720 16.144 C 10.642 16.729,8.594 17.689,7.020 18.350 C 6.020 18.769,4.746 19.280,4.733 19.266 C 4.701 19.234,5.873 16.432,6.455 15.151 C 6.778 14.439,7.467 12.999,7.501 12.966 C 7.512 12.955,7.723 13.144,7.971 13.388 C 8.523 13.931,8.605 13.978,9.000 13.979 C 9.258 13.980,9.327 13.964,9.492 13.867 C 9.714 13.737,9.901 13.498,9.965 13.264 C 10.019 13.061,9.989 12.733,9.899 12.555 C 9.861 12.481,9.536 12.123,9.177 11.760 L 8.524 11.100 8.748 10.746 L 8.972 10.393 11.286 12.706 C 13.598 15.017,13.600 15.020,13.510 15.089 " stroke="none" fill-rule="evenodd" fill="black"></path></svg>