<svg xmlns="http://www.w3.org/2000/svg" width="24" height="24" viewBox="0 0 24 24" fill="none" stroke="currentColor" stroke-width="2" stroke-linecap="round" stroke-linejoin="round"><path d="M9.499 1.042 C 8.385 1.234,7.478 2.033,7.116 3.140 C 7.031 3.403,7.024 3.499,7.009 4.705 L 6.993 5.991 6.227 6.010 C 5.567 6.027,5.415 6.043,5.139 6.126 C 4.181 6.415,3.420 7.179,3.114 8.160 L 3.020 8.460 3.020 14.000 L 3.020 19.540 3.114 19.840 C 3.418 20.816,4.149 21.554,5.140 21.886 L 5.420 21.980 9.271 21.991 C 11.824 21.999,13.173 21.989,13.275 21.961 C 13.498 21.901,13.739 21.711,13.867 21.492 C 13.964 21.327,13.980 21.257,13.980 21.000 C 13.980 20.746,13.963 20.672,13.872 20.516 C 13.761 20.328,13.572 20.158,13.373 20.070 C 13.286 20.032,12.383 20.015,9.480 20.000 L 5.700 19.980 5.516 19.872 C 5.415 19.813,5.284 19.700,5.225 19.623 C 4.988 19.312,5.000 19.608,5.000 14.022 C 5.000 8.240,4.980 8.627,5.303 8.303 C 5.554 8.052,5.751 8.000,6.447 8.000 L 7.000 8.000 7.000 8.494 L 7.000 8.987 6.786 9.035 C 6.515 9.096,6.270 9.275,6.129 9.514 C 6.036 9.672,6.020 9.745,6.020 10.000 C 6.020 10.256,6.036 10.328,6.131 10.489 C 6.256 10.702,6.449 10.864,6.670 10.943 C 6.892 11.022,17.108 11.022,17.330 10.943 C 17.551 10.864,17.744 10.702,17.869 10.489 C 17.964 10.328,17.980 10.256,17.980 10.000 C 17.980 9.745,17.964 9.672,17.871 9.514 C 17.730 9.275,17.485 9.096,17.214 9.035 L 17.000 8.987 17.000 8.494 L 17.000 8.000 17.553 8.000 C 18.231 8.000,18.441 8.053,18.679 8.283 C 18.954 8.551,18.974 8.630,18.998 9.583 L 19.020 10.426 19.141 10.623 C 19.543 11.276,20.457 11.276,20.859 10.623 L 20.980 10.426 20.978 9.423 C 20.977 8.454,20.973 8.410,20.874 8.113 C 20.550 7.150,19.799 6.409,18.861 6.126 C 18.585 6.043,18.433 6.027,17.773 6.010 L 17.007 5.991 16.991 4.705 C 16.976 3.452,16.973 3.412,16.873 3.113 C 16.552 2.153,15.810 1.419,14.861 1.122 L 14.540 1.022 12.120 1.015 C 10.789 1.011,9.609 1.023,9.499 1.042 M14.310 3.061 C 14.452 3.103,14.571 3.178,14.697 3.303 C 15.007 3.614,15.000 3.538,15.000 6.447 L 15.000 9.000 12.000 9.000 L 9.000 9.000 9.000 6.447 C 9.000 3.538,8.993 3.614,9.304 3.303 C 9.604 3.002,9.569 3.006,11.983 3.003 C 13.772 3.000,14.138 3.010,14.310 3.061 M7.695 13.057 C 7.466 13.129,7.256 13.299,7.128 13.516 C 7.036 13.672,7.020 13.745,7.021 14.000 C 7.022 14.332,7.101 14.533,7.306 14.728 C 7.785 15.181,8.580 15.046,8.893 14.460 C 9.025 14.211,9.015 13.760,8.872 13.516 C 8.628 13.101,8.150 12.915,7.695 13.057 M11.600 13.083 C 11.203 13.263,11.022 13.549,11.021 14.003 C 11.020 14.271,11.034 14.329,11.141 14.503 C 11.543 15.156,12.457 15.156,12.859 14.503 C 12.966 14.329,12.980 14.271,12.979 14.003 C 12.978 13.772,12.958 13.662,12.893 13.540 C 12.714 13.205,12.377 13.002,12.000 13.002 C 11.864 13.002,11.711 13.033,11.600 13.083 M18.695 13.057 C 18.342 13.168,18.095 13.451,18.019 13.835 L 17.976 14.050 17.757 14.118 C 17.015 14.348,16.401 14.938,16.132 15.680 C 16.035 15.948,16.024 16.035,16.024 16.500 C 16.024 16.966,16.035 17.051,16.133 17.320 C 16.395 18.040,16.964 18.609,17.680 18.867 C 17.961 18.968,18.033 18.976,18.800 18.992 C 19.702 19.010,19.786 19.030,19.922 19.252 C 20.025 19.421,20.021 19.598,19.909 19.764 C 19.751 19.998,19.747 19.999,18.256 19.999 C 16.774 20.000,16.653 20.014,16.382 20.221 C 16.302 20.282,16.187 20.415,16.128 20.516 C 16.037 20.672,16.020 20.746,16.020 21.000 C 16.020 21.256,16.036 21.328,16.131 21.489 C 16.256 21.702,16.449 21.864,16.670 21.943 C 16.768 21.978,17.022 21.997,17.405 21.998 L 17.991 22.000 18.018 22.179 C 18.054 22.422,18.258 22.712,18.497 22.859 C 18.671 22.966,18.729 22.980,19.000 22.980 C 19.271 22.980,19.329 22.966,19.503 22.859 C 19.752 22.706,19.949 22.419,19.984 22.160 L 20.010 21.966 20.294 21.873 C 21.001 21.642,21.605 21.046,21.868 20.320 C 21.965 20.052,21.976 19.965,21.976 19.500 C 21.976 19.035,21.965 18.948,21.868 18.680 C 21.646 18.068,21.195 17.561,20.620 17.277 C 20.172 17.055,19.870 17.002,19.060 17.000 C 18.309 16.999,18.238 16.981,18.091 16.764 C 17.979 16.598,17.975 16.421,18.078 16.252 C 18.230 16.003,18.251 16.000,19.788 15.998 C 21.285 15.996,21.350 15.989,21.619 15.783 C 21.696 15.725,21.808 15.592,21.869 15.489 C 21.964 15.328,21.980 15.256,21.980 15.000 C 21.980 14.746,21.963 14.672,21.872 14.516 C 21.634 14.111,21.351 14.000,20.559 14.000 L 20.010 14.000 19.983 13.830 C 19.926 13.473,19.648 13.163,19.290 13.055 C 19.068 12.988,18.913 12.989,18.695 13.057 M7.695 16.057 C 7.466 16.129,7.256 16.299,7.128 16.516 C 7.036 16.672,7.020 16.745,7.021 17.000 C 7.022 17.332,7.101 17.533,7.306 17.728 C 7.785 18.181,8.580 18.046,8.893 17.460 C 9.025 17.211,9.015 16.760,8.872 16.516 C 8.628 16.101,8.150 15.915,7.695 16.057 M11.695 16.057 C 11.466 16.129,11.256 16.299,11.128 16.516 C 11.036 16.672,11.020 16.745,11.021 17.000 C 11.022 17.332,11.101 17.533,11.306 17.728 C 11.785 18.181,12.580 18.046,12.893 17.460 C 13.025 17.211,13.015 16.760,12.872 16.516 C 12.628 16.101,12.150 15.915,11.695 16.057 " stroke="none" fill-rule="evenodd" fill="black"></path></svg>