<svg xmlns="http://www.w3.org/2000/svg" width="24" height="24" viewBox="0 0 24 24" fill="none" stroke="currentColor" stroke-width="2" stroke-linecap="round" stroke-linejoin="round"><path d="M3.695 2.055 C 3.464 2.130,3.255 2.300,3.128 2.516 L 3.020 2.700 3.020 8.300 C 3.020 14.242,3.010 13.847,3.184 14.850 L 3.210 15.000 2.552 15.000 C 1.638 15.000,1.376 15.095,1.128 15.516 C 1.037 15.672,1.020 15.746,1.020 16.000 C 1.020 16.256,1.036 16.328,1.131 16.489 C 1.192 16.592,1.304 16.725,1.381 16.783 C 1.642 16.982,1.740 16.996,2.882 16.998 L 3.943 17.000 4.048 17.214 L 4.153 17.428 3.194 18.384 C 2.666 18.910,2.186 19.421,2.127 19.520 C 2.036 19.672,2.020 19.746,2.020 20.000 C 2.020 20.257,2.036 20.327,2.133 20.492 C 2.263 20.714,2.502 20.901,2.736 20.965 C 2.939 21.019,3.267 20.989,3.445 20.899 C 3.519 20.861,3.978 20.436,4.464 19.953 L 5.347 19.075 5.704 19.422 C 8.450 22.096,12.524 22.757,15.940 21.084 C 16.839 20.643,17.576 20.124,18.296 19.422 L 18.653 19.075 19.536 19.953 C 20.022 20.436,20.483 20.864,20.560 20.905 C 20.659 20.957,20.787 20.979,21.000 20.979 C 21.258 20.980,21.327 20.964,21.492 20.867 C 21.968 20.587,22.139 19.967,21.865 19.508 C 21.810 19.416,21.334 18.910,20.806 18.384 L 19.847 17.428 19.952 17.214 L 20.057 17.000 21.118 16.998 C 22.260 16.996,22.358 16.982,22.619 16.783 C 22.696 16.725,22.808 16.592,22.869 16.489 C 22.964 16.328,22.980 16.256,22.980 16.000 C 22.980 15.746,22.963 15.672,22.872 15.516 C 22.624 15.095,22.362 15.000,21.449 15.000 L 20.790 15.000 20.819 14.830 C 20.835 14.737,20.876 14.507,20.911 14.320 C 20.965 14.024,20.975 13.260,20.988 8.424 C 21.004 2.202,21.023 2.623,20.717 2.317 C 20.482 2.082,20.341 2.022,20.020 2.021 C 19.547 2.020,19.534 2.030,18.099 3.582 C 17.396 4.344,16.766 5.029,16.700 5.105 L 16.580 5.243 16.114 5.006 C 15.140 4.510,14.246 4.233,13.120 4.075 C 12.670 4.012,11.357 4.011,10.880 4.073 C 9.928 4.198,8.936 4.493,8.100 4.902 L 7.580 5.156 6.080 3.664 C 5.124 2.714,4.525 2.148,4.427 2.103 C 4.223 2.010,3.897 1.988,3.695 2.055 M7.117 7.376 C 7.510 7.492,7.679 7.454,8.184 7.135 C 9.248 6.464,10.209 6.138,11.434 6.033 C 12.341 5.956,13.404 6.079,14.240 6.359 C 14.650 6.496,15.504 6.928,15.925 7.210 C 16.469 7.575,16.783 7.633,17.160 7.438 C 17.358 7.336,17.460 7.236,18.265 6.363 L 18.980 5.586 18.992 5.923 C 18.999 6.108,18.996 7.952,18.987 10.020 C 18.969 13.989,18.970 13.981,18.779 14.730 L 18.710 15.000 17.801 15.000 C 17.147 15.000,16.842 15.015,16.710 15.055 C 16.169 15.218,15.881 15.780,16.061 16.322 C 16.121 16.504,16.212 16.618,16.670 17.086 L 17.208 17.636 17.125 17.753 C 17.027 17.891,16.520 18.349,16.180 18.607 C 15.301 19.274,14.192 19.736,13.020 19.926 C 12.844 19.954,12.385 19.977,12.000 19.977 C 11.051 19.977,10.338 19.852,9.531 19.544 C 8.663 19.213,7.995 18.798,7.246 18.125 C 6.706 17.640,6.699 17.731,7.329 17.087 C 7.788 16.618,7.879 16.504,7.939 16.322 C 8.119 15.780,7.831 15.218,7.290 15.055 C 7.158 15.015,6.853 15.000,6.199 15.000 L 5.290 15.000 5.221 14.730 C 5.028 13.973,5.030 14.025,5.013 9.600 L 4.996 5.420 5.948 6.366 C 6.834 7.246,6.915 7.316,7.117 7.376 M8.695 10.057 C 8.466 10.129,8.256 10.299,8.128 10.516 C 8.036 10.672,8.020 10.745,8.021 11.000 C 8.022 11.332,8.101 11.533,8.306 11.728 C 8.785 12.181,9.580 12.046,9.893 11.460 C 10.025 11.211,10.015 10.760,9.872 10.516 C 9.628 10.101,9.150 9.915,8.695 10.057 M14.695 10.057 C 14.466 10.129,14.256 10.299,14.128 10.516 C 14.036 10.672,14.020 10.745,14.021 11.000 C 14.022 11.332,14.101 11.533,14.306 11.728 C 14.785 12.181,15.580 12.046,15.893 11.460 C 16.025 11.211,16.015 10.760,15.872 10.516 C 15.628 10.101,15.150 9.915,14.695 10.057 M11.477 14.073 C 10.806 14.249,10.238 14.823,10.060 15.508 C 9.941 15.962,10.003 16.492,10.225 16.930 C 10.361 17.199,10.801 17.639,11.070 17.775 C 11.659 18.073,12.341 18.073,12.930 17.775 C 13.196 17.640,13.638 17.200,13.771 16.937 C 13.994 16.498,14.052 16.007,13.940 15.529 C 13.858 15.182,13.720 14.927,13.465 14.653 C 13.074 14.232,12.560 14.005,12.000 14.005 C 11.857 14.005,11.622 14.036,11.477 14.073 " stroke="none" fill-rule="evenodd" fill="black"></path></svg>