<svg xmlns="http://www.w3.org/2000/svg" width="24" height="24" viewBox="0 0 24 24" fill="none" stroke="currentColor" stroke-width="2" stroke-linecap="round" stroke-linejoin="round"><path d="M3.695 3.057 C 3.466 3.129,3.256 3.299,3.128 3.516 L 3.020 3.700 3.020 7.000 L 3.020 10.300 3.131 10.489 C 3.256 10.702,3.449 10.864,3.670 10.943 C 3.891 11.022,10.109 11.022,10.330 10.943 C 10.551 10.864,10.744 10.702,10.869 10.489 L 10.980 10.300 10.980 7.000 L 10.980 3.700 10.872 3.516 C 10.740 3.293,10.533 3.128,10.290 3.055 C 10.030 2.977,3.945 2.979,3.695 3.057 M13.695 3.057 C 13.466 3.129,13.256 3.299,13.128 3.516 L 13.020 3.700 13.020 7.000 L 13.020 10.300 13.131 10.489 C 13.256 10.702,13.449 10.864,13.670 10.943 C 13.891 11.022,20.109 11.022,20.330 10.943 C 20.551 10.864,20.744 10.702,20.869 10.489 L 20.980 10.300 20.980 7.000 L 20.980 3.700 20.872 3.516 C 20.740 3.293,20.533 3.128,20.290 3.055 C 20.030 2.977,13.945 2.979,13.695 3.057 M9.000 7.000 L 9.000 9.000 7.000 9.000 L 5.000 9.000 5.000 7.000 L 5.000 5.000 7.000 5.000 L 9.000 5.000 9.000 7.000 M19.000 7.000 L 19.000 9.000 17.000 9.000 L 15.000 9.000 15.000 7.000 L 15.000 5.000 17.000 5.000 L 19.000 5.000 19.000 7.000 M3.695 13.057 C 3.466 13.129,3.256 13.299,3.128 13.516 L 3.020 13.700 3.020 17.000 L 3.020 20.300 3.131 20.489 C 3.256 20.702,3.449 20.864,3.670 20.943 C 3.891 21.022,10.109 21.022,10.330 20.943 C 10.551 20.864,10.744 20.702,10.869 20.489 L 10.980 20.300 10.980 17.000 L 10.980 13.700 10.872 13.516 C 10.740 13.293,10.533 13.128,10.290 13.055 C 10.030 12.977,3.945 12.979,3.695 13.057 M16.695 13.057 C 16.466 13.129,16.256 13.299,16.128 13.516 L 16.020 13.700 16.008 14.850 L 15.995 16.000 14.944 16.000 C 13.797 16.000,13.643 16.022,13.382 16.221 C 13.302 16.282,13.187 16.415,13.128 16.516 C 13.037 16.672,13.020 16.746,13.020 17.000 C 13.020 17.256,13.036 17.328,13.131 17.489 C 13.192 17.592,13.304 17.725,13.381 17.783 C 13.642 17.983,13.738 17.996,14.908 17.998 L 15.995 18.000 16.008 19.153 L 16.020 20.307 16.141 20.503 C 16.543 21.156,17.457 21.156,17.859 20.503 L 17.980 20.307 17.992 19.153 L 18.005 18.000 19.092 17.998 C 20.262 17.996,20.358 17.983,20.619 17.783 C 20.696 17.725,20.808 17.592,20.869 17.489 C 20.964 17.328,20.980 17.256,20.980 17.000 C 20.980 16.746,20.963 16.672,20.872 16.516 C 20.813 16.415,20.698 16.282,20.618 16.221 C 20.357 16.022,20.203 16.000,19.056 16.000 L 18.005 16.000 17.992 14.850 L 17.980 13.700 17.872 13.516 C 17.628 13.101,17.150 12.915,16.695 13.057 M9.000 17.000 L 9.000 19.000 7.000 19.000 L 5.000 19.000 5.000 17.000 L 5.000 15.000 7.000 15.000 L 9.000 15.000 9.000 17.000 " stroke="none" fill-rule="evenodd" fill="black"></path></svg>