<svg xmlns="http://www.w3.org/2000/svg" width="24" height="24" viewBox="0 0 24 24" fill="none" stroke="currentColor" stroke-width="2" stroke-linecap="round" stroke-linejoin="round"><path d="M3.695 3.057 C 3.466 3.129,3.256 3.299,3.128 3.516 L 3.020 3.700 3.020 7.000 L 3.020 10.300 3.131 10.489 C 3.256 10.702,3.449 10.864,3.670 10.943 C 3.891 11.022,10.109 11.022,10.330 10.943 C 10.551 10.864,10.744 10.702,10.869 10.489 L 10.980 10.300 10.980 7.000 L 10.980 3.700 10.872 3.516 C 10.740 3.293,10.533 3.128,10.290 3.055 C 10.030 2.977,3.945 2.979,3.695 3.057 M13.695 3.057 C 13.466 3.129,13.256 3.299,13.128 3.516 L 13.020 3.700 13.020 7.000 L 13.020 10.300 13.131 10.489 C 13.256 10.702,13.449 10.864,13.670 10.943 C 13.891 11.022,20.109 11.022,20.330 10.943 C 20.551 10.864,20.744 10.702,20.869 10.489 L 20.980 10.300 20.980 7.000 L 20.980 3.700 20.872 3.516 C 20.740 3.293,20.533 3.128,20.290 3.055 C 20.030 2.977,13.945 2.979,13.695 3.057 M9.000 7.000 L 9.000 9.000 7.000 9.000 L 5.000 9.000 5.000 7.000 L 5.000 5.000 7.000 5.000 L 9.000 5.000 9.000 7.000 M19.000 7.000 L 19.000 9.000 17.000 9.000 L 15.000 9.000 15.000 7.000 L 15.000 5.000 17.000 5.000 L 19.000 5.000 19.000 7.000 M3.695 13.057 C 3.466 13.129,3.256 13.299,3.128 13.516 L 3.020 13.700 3.020 17.000 L 3.020 20.300 3.131 20.489 C 3.256 20.702,3.449 20.864,3.670 20.943 C 3.891 21.022,10.109 21.022,10.330 20.943 C 10.551 20.864,10.744 20.702,10.869 20.489 L 10.980 20.300 10.980 17.000 L 10.980 13.700 10.872 13.516 C 10.740 13.293,10.533 13.128,10.290 13.055 C 10.030 12.977,3.945 12.979,3.695 13.057 M16.358 13.061 C 15.230 13.237,14.143 13.974,13.569 14.953 C 12.320 17.083,13.233 19.785,15.512 20.704 C 17.558 21.528,19.877 20.538,20.704 18.488 C 21.090 17.530,21.090 16.469,20.705 15.516 C 20.172 14.197,19.001 13.269,17.605 13.058 C 17.144 12.989,16.816 12.990,16.358 13.061 M9.000 17.000 L 9.000 19.000 7.000 19.000 L 5.000 19.000 5.000 17.000 L 5.000 15.000 7.000 15.000 L 9.000 15.000 9.000 17.000 M17.523 15.073 C 18.262 15.266,18.850 15.924,18.967 16.690 C 19.067 17.343,18.873 17.933,18.403 18.404 C 18.002 18.807,17.547 19.000,17.000 19.000 C 16.485 19.000,16.038 18.822,15.653 18.465 C 14.323 17.229,15.189 15.005,17.000 15.005 C 17.143 15.005,17.378 15.036,17.523 15.073 " stroke="none" fill-rule="evenodd" fill="black"></path></svg>