<svg xmlns="http://www.w3.org/2000/svg" width="24" height="24" viewBox="0 0 24 24" fill="none" stroke="currentColor" stroke-width="2" stroke-linecap="round" stroke-linejoin="round"><path d="M8.540 5.026 C 6.765 5.166,5.276 5.842,4.059 7.059 C 2.989 8.129,2.322 9.447,2.074 10.980 C 2.008 11.393,2.008 12.607,2.074 13.020 C 2.571 16.099,4.928 18.462,7.956 18.918 C 8.444 18.991,9.083 19.014,9.264 18.965 C 9.498 18.901,9.737 18.714,9.867 18.492 C 9.964 18.327,9.980 18.257,9.980 18.000 C 9.980 17.746,9.963 17.672,9.872 17.516 C 9.759 17.323,9.563 17.150,9.373 17.076 C 9.311 17.051,9.053 17.016,8.800 16.998 C 8.018 16.942,7.418 16.786,6.785 16.474 C 5.675 15.928,4.774 14.933,4.320 13.752 C 3.915 12.699,3.915 11.301,4.320 10.248 C 4.907 8.719,6.197 7.566,7.780 7.154 C 7.934 7.114,8.303 7.061,8.600 7.035 C 8.897 7.010,9.205 6.974,9.284 6.955 C 9.495 6.904,9.739 6.710,9.867 6.492 C 9.964 6.327,9.980 6.257,9.980 6.000 C 9.980 5.746,9.963 5.672,9.872 5.516 C 9.623 5.092,9.283 4.967,8.540 5.026 M20.540 5.026 C 19.804 5.084,19.250 5.200,18.620 5.427 C 16.452 6.207,14.779 8.052,14.223 10.275 C 14.064 10.908,14.023 11.264,14.023 12.000 C 14.023 12.736,14.064 13.092,14.223 13.725 C 14.898 16.423,17.193 18.502,19.956 18.918 C 20.444 18.991,21.083 19.014,21.264 18.965 C 21.498 18.901,21.737 18.714,21.867 18.492 C 21.964 18.327,21.980 18.257,21.980 18.000 C 21.980 17.746,21.963 17.672,21.872 17.516 C 21.759 17.323,21.563 17.150,21.373 17.076 C 21.311 17.051,21.053 17.016,20.800 16.998 C 19.488 16.903,18.449 16.460,17.563 15.616 C 16.882 14.968,16.281 13.928,16.139 13.150 L 16.111 13.000 18.646 12.998 C 20.658 12.997,21.211 12.985,21.330 12.943 C 21.551 12.864,21.744 12.702,21.869 12.489 C 21.964 12.328,21.980 12.256,21.980 12.000 C 21.980 11.746,21.963 11.672,21.872 11.516 C 21.813 11.415,21.698 11.282,21.618 11.221 C 21.329 11.001,21.320 11.000,18.609 11.000 L 16.111 11.000 16.139 10.850 C 16.185 10.596,16.362 10.117,16.541 9.760 C 17.186 8.476,18.373 7.520,19.780 7.154 C 19.934 7.114,20.303 7.061,20.600 7.035 C 20.897 7.010,21.205 6.974,21.284 6.955 C 21.495 6.904,21.739 6.710,21.867 6.492 C 21.964 6.327,21.980 6.257,21.980 6.000 C 21.980 5.746,21.963 5.672,21.872 5.516 C 21.623 5.092,21.283 4.967,20.540 5.026 " stroke="none" fill-rule="evenodd" fill="black"></path></svg>