<svg xmlns="http://www.w3.org/2000/svg" width="24" height="24" viewBox="0 0 24 24" fill="none" stroke="currentColor" stroke-width="2" stroke-linecap="round" stroke-linejoin="round"><path d="M2.670 2.061 C 2.448 2.142,2.250 2.309,2.128 2.516 C 2.036 2.672,2.020 2.745,2.021 3.000 C 2.021 3.212,2.043 3.341,2.095 3.440 C 2.135 3.517,3.943 5.357,6.113 7.530 L 10.059 11.479 6.675 14.870 C 3.031 18.521,3.168 18.368,3.040 18.916 C 2.856 19.700,3.330 20.572,4.110 20.887 L 4.340 20.980 11.958 20.990 L 19.576 21.001 19.998 21.415 C 20.522 21.929,20.608 21.978,21.000 21.979 C 21.258 21.980,21.327 21.964,21.492 21.867 C 21.968 21.587,22.139 20.967,21.865 20.508 C 21.810 20.416,17.665 16.243,12.653 11.235 C 4.231 2.820,3.525 2.125,3.343 2.065 C 3.107 1.987,2.874 1.986,2.670 2.061 M18.860 3.055 C 18.386 3.171,18.373 3.182,15.415 6.138 C 12.750 8.799,12.606 8.951,12.539 9.155 C 12.324 9.823,12.790 10.478,13.480 10.478 C 13.903 10.478,13.864 10.512,16.529 7.849 L 18.999 5.382 19.009 10.844 L 19.020 16.306 19.141 16.503 C 19.543 17.156,20.457 17.156,20.859 16.503 L 20.980 16.306 20.991 10.426 C 21.002 3.928,21.015 4.290,20.749 3.846 C 20.503 3.439,20.110 3.156,19.655 3.060 C 19.329 2.991,19.131 2.990,18.860 3.055 M14.540 15.960 L 17.580 19.000 11.480 19.000 L 5.380 19.000 8.420 15.960 C 10.092 14.288,11.469 12.920,11.480 12.920 C 11.491 12.920,12.868 14.288,14.540 15.960 " stroke="none" fill-rule="evenodd" fill="black"></path></svg>