<svg xmlns="http://www.w3.org/2000/svg" width="24" height="24" viewBox="0 0 24 24" fill="none" stroke="currentColor" stroke-width="2" stroke-linecap="round" stroke-linejoin="round"><path d="M18.860 3.054 C 18.342 3.189,18.696 2.852,10.868 10.674 C 6.825 14.714,3.445 18.113,3.357 18.226 C 3.111 18.542,3.022 18.826,3.024 19.280 C 3.025 19.576,3.045 19.711,3.116 19.890 C 3.286 20.324,3.671 20.709,4.114 20.889 L 4.340 20.980 12.320 20.980 L 20.300 20.980 20.489 20.869 C 20.702 20.744,20.864 20.551,20.943 20.330 C 20.987 20.207,20.997 18.784,20.998 12.334 C 21.000 4.629,20.999 4.484,20.921 4.232 C 20.770 3.744,20.355 3.293,19.898 3.123 C 19.611 3.015,19.130 2.983,18.860 3.054 M19.000 12.200 L 19.000 19.000 18.000 19.000 L 17.000 19.000 17.000 13.190 L 17.000 7.381 17.990 6.390 C 18.534 5.846,18.984 5.400,18.990 5.400 C 18.995 5.400,19.000 8.460,19.000 12.200 M15.000 14.200 L 15.000 19.000 10.190 19.000 L 5.380 19.000 10.180 14.200 C 12.820 11.560,14.984 9.400,14.990 9.400 C 14.995 9.400,15.000 11.560,15.000 14.200 " stroke="none" fill-rule="evenodd" fill="black"></path></svg>