<svg xmlns="http://www.w3.org/2000/svg" width="24" height="24" viewBox="0 0 24 24" fill="none" stroke="currentColor" stroke-width="2" stroke-linecap="round" stroke-linejoin="round"><path d="M7.499 2.043 C 6.379 2.234,5.461 3.048,5.114 4.160 L 5.020 4.460 5.020 11.000 L 5.020 17.540 5.114 17.840 C 5.419 18.818,6.166 19.570,7.140 19.882 C 7.379 19.958,7.536 19.974,8.210 19.990 L 9.000 20.009 9.002 21.095 C 9.004 22.262,9.017 22.358,9.217 22.619 C 9.275 22.696,9.408 22.808,9.511 22.869 C 9.670 22.962,9.746 22.980,9.985 22.980 C 10.268 22.980,10.280 22.975,11.135 22.551 L 12.000 22.122 12.855 22.546 C 13.812 23.021,13.958 23.060,14.322 22.939 C 14.592 22.850,14.844 22.603,14.934 22.340 C 14.989 22.178,15.000 21.967,15.000 21.078 L 15.000 20.009 15.790 19.990 C 16.464 19.974,16.621 19.958,16.860 19.882 C 17.834 19.570,18.581 18.818,18.886 17.840 L 18.980 17.540 18.980 11.000 L 18.980 4.460 18.886 4.160 C 18.581 3.182,17.832 2.428,16.861 2.121 L 16.540 2.020 12.120 2.014 C 9.689 2.011,7.609 2.024,7.499 2.043 M16.310 4.061 C 16.589 4.144,16.856 4.411,16.939 4.690 C 16.992 4.869,17.000 5.651,17.000 11.001 C 17.000 16.059,16.991 17.139,16.945 17.290 C 16.872 17.533,16.707 17.740,16.484 17.872 C 16.308 17.975,16.272 17.981,15.650 17.993 C 15.041 18.006,15.000 18.002,14.999 17.933 C 14.999 17.893,14.989 17.823,14.977 17.778 C 14.961 17.720,15.007 17.631,15.131 17.478 C 15.670 16.810,16.000 15.869,16.000 15.000 C 16.000 14.327,15.776 13.525,15.421 12.932 C 14.834 11.949,13.756 11.232,12.605 11.058 C 12.121 10.986,11.879 10.986,11.395 11.058 C 9.156 11.396,7.632 13.563,8.082 15.772 C 8.214 16.417,8.482 16.998,8.869 17.478 C 8.993 17.631,9.039 17.720,9.023 17.778 C 9.011 17.823,9.001 17.893,9.001 17.933 C 9.000 18.002,8.959 18.006,8.350 17.993 C 7.728 17.981,7.692 17.975,7.516 17.872 C 7.303 17.747,7.141 17.550,7.058 17.316 C 6.968 17.060,6.971 4.993,7.061 4.690 C 7.140 4.421,7.412 4.143,7.673 4.063 C 7.962 3.974,16.011 3.972,16.310 4.061 M9.695 6.057 C 9.466 6.129,9.256 6.299,9.128 6.516 C 9.037 6.672,9.020 6.746,9.020 7.000 C 9.020 7.256,9.036 7.328,9.131 7.489 C 9.256 7.702,9.449 7.864,9.670 7.943 C 9.889 8.021,14.111 8.021,14.330 7.943 C 14.551 7.864,14.744 7.702,14.869 7.489 C 14.964 7.328,14.980 7.256,14.980 7.000 C 14.980 6.746,14.963 6.672,14.872 6.516 C 14.740 6.293,14.533 6.128,14.290 6.055 C 14.033 5.978,9.943 5.979,9.695 6.057 M12.523 13.073 C 13.262 13.266,13.850 13.924,13.967 14.690 C 14.067 15.343,13.873 15.933,13.403 16.404 C 13.002 16.807,12.547 17.000,12.000 17.000 C 11.485 17.000,11.038 16.822,10.653 16.465 C 9.323 15.229,10.189 13.005,12.000 13.005 C 12.143 13.005,12.378 13.036,12.523 13.073 M11.334 18.940 C 11.506 18.973,11.806 19.000,12.000 19.000 C 12.194 19.000,12.494 18.973,12.666 18.940 C 12.839 18.907,12.985 18.880,12.990 18.880 C 12.995 18.880,13.000 19.213,13.000 19.620 C 13.000 20.027,12.993 20.360,12.984 20.360 C 12.975 20.360,12.808 20.284,12.614 20.190 C 12.309 20.044,12.224 20.020,12.000 20.020 C 11.776 20.020,11.691 20.044,11.386 20.190 C 11.192 20.284,11.025 20.360,11.016 20.360 C 11.007 20.360,11.000 20.027,11.000 19.620 C 11.000 19.213,11.005 18.880,11.010 18.880 C 11.015 18.880,11.161 18.907,11.334 18.940 " stroke="none" fill-rule="evenodd" fill="black"></path></svg>