<svg xmlns="http://www.w3.org/2000/svg" width="24" height="24" viewBox="0 0 24 24" fill="none" stroke="currentColor" stroke-width="2" stroke-linecap="round" stroke-linejoin="round"><path d="M2.670 2.061 C 2.448 2.142,2.250 2.309,2.128 2.516 C 2.036 2.672,2.020 2.745,2.021 3.000 C 2.021 3.212,2.043 3.341,2.095 3.440 C 2.136 3.517,2.805 4.219,3.583 5.000 L 4.998 6.420 5.009 12.000 L 5.020 17.580 5.114 17.860 C 5.443 18.842,6.176 19.573,7.140 19.882 C 7.379 19.958,7.536 19.974,8.210 19.990 L 9.000 20.009 9.002 21.095 C 9.004 22.262,9.017 22.358,9.217 22.619 C 9.275 22.696,9.408 22.808,9.511 22.869 C 9.670 22.962,9.746 22.980,9.985 22.980 C 10.268 22.980,10.280 22.975,11.135 22.551 L 12.000 22.122 12.855 22.546 C 13.812 23.021,13.958 23.060,14.322 22.939 C 14.592 22.850,14.844 22.603,14.934 22.340 C 14.989 22.178,15.000 21.967,15.000 21.073 L 15.000 20.000 15.650 19.999 C 16.324 19.999,16.664 19.951,17.057 19.804 C 17.274 19.724,17.628 19.527,17.797 19.394 L 17.895 19.317 19.158 20.574 C 19.852 21.266,20.483 21.864,20.560 21.905 C 20.659 21.957,20.787 21.979,21.000 21.979 C 21.258 21.980,21.327 21.964,21.492 21.867 C 21.968 21.587,22.139 20.967,21.865 20.508 C 21.810 20.416,17.665 16.243,12.653 11.235 C 4.231 2.820,3.525 2.125,3.343 2.065 C 3.107 1.987,2.874 1.986,2.670 2.061 M7.405 2.065 C 7.060 2.134,6.625 2.321,6.473 2.467 C 6.188 2.740,6.112 3.239,6.297 3.618 C 6.535 4.105,7.009 4.272,7.617 4.084 C 7.885 4.001,7.940 4.000,11.997 4.000 C 16.603 4.000,16.372 3.986,16.679 4.283 C 17.004 4.599,16.978 4.163,17.000 9.523 L 17.020 14.306 17.141 14.503 C 17.543 15.156,18.457 15.156,18.859 14.503 L 18.980 14.306 18.980 9.383 L 18.980 4.460 18.886 4.160 C 18.581 3.182,17.832 2.428,16.861 2.121 L 16.540 2.020 12.120 2.013 C 8.379 2.008,7.655 2.015,7.405 2.065 M10.695 6.057 C 10.466 6.129,10.256 6.299,10.128 6.516 C 10.037 6.672,10.020 6.746,10.020 7.000 C 10.020 7.256,10.036 7.328,10.131 7.489 C 10.256 7.702,10.449 7.864,10.670 7.943 C 10.888 8.021,14.112 8.021,14.330 7.943 C 14.551 7.864,14.744 7.702,14.869 7.489 C 14.964 7.328,14.980 7.256,14.980 7.000 C 14.980 6.746,14.963 6.672,14.872 6.516 C 14.740 6.293,14.533 6.128,14.290 6.055 C 14.035 5.978,10.941 5.980,10.695 6.057 M9.846 11.639 C 8.916 12.242,8.304 13.141,8.082 14.228 C 7.852 15.360,8.148 16.585,8.869 17.478 C 8.993 17.631,9.039 17.720,9.023 17.778 C 9.011 17.823,9.001 17.893,9.001 17.933 C 9.000 18.002,8.959 18.006,8.350 17.993 C 7.728 17.981,7.692 17.975,7.516 17.872 C 7.415 17.813,7.284 17.700,7.225 17.623 C 6.990 17.314,7.000 17.537,7.000 12.785 L 7.000 8.420 8.536 9.956 L 10.073 11.493 9.846 11.639 M12.795 14.215 L 13.969 15.389 13.906 15.607 C 13.777 16.048,13.339 16.568,12.912 16.784 C 12.347 17.070,11.651 17.069,11.083 16.781 C 10.816 16.646,10.449 16.297,10.281 16.017 C 9.732 15.106,10.026 13.895,10.937 13.310 C 11.113 13.196,11.476 13.045,11.580 13.041 C 11.602 13.041,12.149 13.569,12.795 14.215 M16.440 17.883 C 16.440 17.951,16.072 18.000,15.565 18.000 C 15.054 18.000,15.000 17.993,14.999 17.930 C 14.999 17.892,14.989 17.824,14.977 17.779 C 14.962 17.723,15.013 17.627,15.148 17.458 C 15.253 17.326,15.376 17.150,15.419 17.069 L 15.498 16.920 15.969 17.389 C 16.228 17.647,16.440 17.870,16.440 17.883 M11.334 18.940 C 11.506 18.973,11.806 19.000,12.000 19.000 C 12.194 19.000,12.494 18.973,12.666 18.940 C 12.839 18.907,12.985 18.880,12.990 18.880 C 12.995 18.880,13.000 19.213,13.000 19.620 C 13.000 20.027,12.993 20.360,12.984 20.360 C 12.975 20.360,12.808 20.284,12.614 20.190 C 12.309 20.044,12.224 20.020,12.000 20.020 C 11.776 20.020,11.691 20.044,11.386 20.190 C 11.192 20.284,11.025 20.360,11.016 20.360 C 11.007 20.360,11.000 20.027,11.000 19.620 C 11.000 19.213,11.005 18.880,11.010 18.880 C 11.015 18.880,11.161 18.907,11.334 18.940 " stroke="none" fill-rule="evenodd" fill="black"></path></svg>