<svg xmlns="http://www.w3.org/2000/svg" width="24" height="24" viewBox="0 0 24 24" fill="none" stroke="currentColor" stroke-width="2" stroke-linecap="round" stroke-linejoin="round"><path d="M4.499 4.043 C 3.380 4.232,2.461 5.048,2.114 6.160 L 2.020 6.460 2.020 12.000 L 2.020 17.540 2.114 17.840 C 2.419 18.817,3.155 19.559,4.140 19.885 C 4.413 19.975,4.464 19.977,6.266 19.991 C 7.485 20.000,8.166 19.991,8.270 19.963 C 8.498 19.901,8.738 19.712,8.867 19.492 C 8.964 19.327,8.980 19.257,8.980 19.000 C 8.980 18.746,8.963 18.672,8.872 18.516 C 8.761 18.327,8.571 18.158,8.373 18.071 C 8.291 18.035,7.768 18.015,6.480 18.001 L 4.700 17.980 4.516 17.872 C 4.415 17.813,4.284 17.700,4.225 17.623 C 3.988 17.312,4.000 17.608,4.000 12.022 C 4.000 6.240,3.980 6.627,4.303 6.303 C 4.631 5.976,4.009 6.000,12.000 6.000 C 19.991 6.000,19.369 5.976,19.697 6.303 C 20.022 6.628,20.000 6.192,20.000 12.441 L 20.000 17.987 19.786 18.035 C 18.903 18.233,18.721 19.405,19.501 19.863 C 19.850 20.067,20.423 20.032,20.929 19.775 C 21.196 19.640,21.638 19.200,21.771 18.937 C 22.014 18.458,22.003 18.805,21.991 12.331 L 21.980 6.420 21.886 6.140 C 21.556 5.158,20.821 4.425,19.861 4.121 L 19.540 4.020 12.120 4.014 C 8.039 4.011,4.609 4.024,4.499 4.043 M11.477 15.073 C 10.806 15.249,10.238 15.823,10.060 16.508 C 9.976 16.828,9.976 18.172,10.060 18.492 C 10.153 18.852,10.310 19.118,10.596 19.404 C 10.882 19.690,11.148 19.847,11.508 19.940 C 11.847 20.029,16.153 20.029,16.492 19.940 C 16.852 19.847,17.118 19.690,17.404 19.404 C 17.895 18.913,18.000 18.579,17.999 17.514 C 17.999 16.716,17.954 16.424,17.781 16.083 C 17.646 15.816,17.297 15.449,17.017 15.281 C 16.564 15.008,16.524 15.005,14.000 15.005 C 11.992 15.005,11.711 15.012,11.477 15.073 M16.000 17.500 L 16.000 18.000 14.000 18.000 L 12.000 18.000 12.000 17.500 L 12.000 17.000 14.000 17.000 L 16.000 17.000 16.000 17.500 " stroke="none" fill-rule="evenodd" fill="black"></path></svg>