<svg xmlns="http://www.w3.org/2000/svg" width="24" height="24" viewBox="0 0 24 24" fill="none" stroke="currentColor" stroke-width="2" stroke-linecap="round" stroke-linejoin="round"><path d="M15.699 3.053 C 15.611 3.082,15.492 3.137,15.435 3.174 C 15.378 3.211,14.299 4.481,13.037 5.996 L 10.742 8.750 9.009 7.885 L 7.276 7.020 7.007 7.020 C 6.799 7.020,6.693 7.043,6.539 7.121 C 6.355 7.214,6.217 7.386,4.731 9.361 C 3.576 10.895,3.103 11.555,3.056 11.695 C 2.826 12.377,3.386 13.061,4.112 12.987 C 4.535 12.944,4.565 12.913,5.947 11.067 C 6.642 10.139,7.232 9.356,7.259 9.327 C 7.299 9.285,7.625 9.433,9.016 10.127 L 10.725 10.980 10.992 10.980 C 11.506 10.980,11.377 11.108,13.850 8.139 L 16.060 5.484 17.740 7.158 C 18.664 8.078,19.483 8.865,19.560 8.905 C 19.659 8.957,19.788 8.979,20.000 8.979 C 20.258 8.980,20.327 8.964,20.492 8.867 C 20.714 8.737,20.901 8.498,20.965 8.264 C 21.019 8.061,20.989 7.733,20.899 7.555 C 20.809 7.376,16.708 3.263,16.490 3.134 C 16.285 3.012,15.934 2.976,15.699 3.053 M15.700 9.053 C 15.612 9.082,15.497 9.132,15.445 9.163 C 15.392 9.194,14.550 10.219,13.573 11.440 C 12.596 12.661,11.774 13.675,11.747 13.694 C 11.715 13.716,11.105 13.432,10.014 12.887 C 8.226 11.995,8.099 11.947,7.761 12.036 C 7.367 12.140,7.414 12.079,5.162 15.457 C 2.884 18.875,2.954 18.754,3.018 19.179 C 3.054 19.422,3.258 19.712,3.497 19.859 L 3.694 19.980 11.911 19.990 C 17.332 19.997,20.180 19.987,20.278 19.960 C 20.498 19.901,20.739 19.709,20.867 19.492 L 20.980 19.300 20.991 16.584 C 21.001 14.147,20.995 13.846,20.936 13.664 C 20.875 13.476,20.699 13.289,18.765 11.347 C 17.607 10.185,16.584 9.189,16.490 9.133 C 16.285 9.012,15.934 8.976,15.700 9.053 M17.550 12.970 L 19.000 14.420 19.000 16.210 L 19.000 18.000 12.438 18.000 C 7.198 18.000,5.881 17.990,5.905 17.950 C 6.121 17.589,8.331 14.320,8.359 14.320 C 8.381 14.320,9.146 14.694,10.061 15.150 L 11.725 15.980 11.992 15.980 C 12.513 15.980,12.433 16.059,14.354 13.655 C 15.292 12.481,16.069 11.521,16.080 11.521 C 16.091 11.520,16.752 12.172,17.550 12.970 " stroke="none" fill-rule="evenodd" fill="black"></path></svg>