<svg xmlns="http://www.w3.org/2000/svg" width="24" height="24" viewBox="0 0 24 24" fill="none" stroke="currentColor" stroke-width="2" stroke-linecap="round" stroke-linejoin="round"><path d="M2.670 2.061 C 2.448 2.142,2.250 2.309,2.128 2.516 C 2.037 2.672,2.020 2.746,2.020 3.000 C 2.020 3.254,2.036 3.327,2.127 3.480 C 2.188 3.581,3.495 4.919,5.117 6.540 L 8.000 9.420 8.000 10.210 L 8.000 11.000 5.870 11.002 C 3.491 11.005,3.432 11.011,2.983 11.281 C 2.703 11.449,2.354 11.816,2.219 12.083 C 1.997 12.520,2.000 12.467,2.000 16.000 C 2.000 19.547,1.996 19.478,2.225 19.930 C 2.361 20.199,2.801 20.639,3.070 20.775 C 3.541 21.014,3.015 21.000,11.659 21.000 L 19.582 21.000 19.961 21.383 C 20.471 21.898,20.614 21.980,21.000 21.980 C 21.257 21.980,21.327 21.964,21.492 21.867 C 21.968 21.587,22.139 20.967,21.865 20.508 C 21.810 20.416,17.665 16.243,12.653 11.235 C 4.231 2.820,3.525 2.125,3.343 2.065 C 3.107 1.987,2.874 1.986,2.670 2.061 M15.477 3.073 C 14.806 3.249,14.238 3.823,14.060 4.508 C 14.014 4.685,14.000 4.994,14.000 5.868 L 14.000 7.000 12.946 7.000 C 11.797 7.000,11.644 7.022,11.382 7.221 C 11.302 7.282,11.187 7.415,11.128 7.516 C 11.037 7.672,11.020 7.746,11.020 8.000 C 11.020 8.256,11.036 8.328,11.131 8.489 C 11.192 8.592,11.304 8.725,11.381 8.783 C 11.643 8.983,11.738 8.996,12.910 8.998 L 14.000 9.000 14.000 10.110 C 14.001 11.193,14.003 11.225,14.095 11.420 C 14.336 11.928,14.919 12.142,15.420 11.905 C 15.660 11.791,15.807 11.642,15.917 11.400 C 15.996 11.224,15.998 11.152,15.999 8.110 L 16.000 5.000 18.000 5.000 L 19.999 5.000 20.010 11.153 L 20.020 17.306 20.141 17.503 C 20.543 18.156,21.457 18.156,21.859 17.503 L 21.980 17.306 21.990 11.051 C 22.002 4.245,22.011 4.535,21.782 4.083 C 21.646 3.816,21.297 3.449,21.017 3.281 C 20.564 3.008,20.524 3.005,18.000 3.005 C 15.992 3.005,15.711 3.012,15.477 3.073 M14.000 17.210 L 14.000 19.000 12.000 19.000 L 10.000 19.000 10.000 15.210 L 10.000 11.420 12.000 13.420 L 14.000 15.420 14.000 17.210 M8.000 16.000 L 8.000 19.000 6.000 19.000 L 4.000 19.000 4.000 16.000 L 4.000 13.000 6.000 13.000 L 8.000 13.000 8.000 16.000 M16.800 18.220 L 17.579 19.000 16.790 19.000 L 16.000 19.000 16.000 18.220 C 16.000 17.791,16.005 17.440,16.010 17.440 C 16.016 17.440,16.371 17.791,16.800 18.220 " stroke="none" fill-rule="evenodd" fill="black"></path></svg>