<svg xmlns="http://www.w3.org/2000/svg" width="24" height="24" viewBox="0 0 24 24" fill="none" stroke="currentColor" stroke-width="2" stroke-linecap="round" stroke-linejoin="round"><path d="M2.695 2.057 C 2.466 2.129,2.256 2.299,2.128 2.516 L 2.020 2.700 2.020 12.000 L 2.020 21.300 2.131 21.489 C 2.256 21.702,2.449 21.864,2.670 21.943 C 2.893 22.023,21.107 22.023,21.330 21.943 C 21.551 21.864,21.744 21.702,21.869 21.489 C 21.964 21.328,21.980 21.256,21.980 21.000 C 21.980 20.746,21.963 20.672,21.872 20.516 C 21.740 20.293,21.533 20.128,21.290 20.055 C 21.138 20.009,19.686 20.000,12.554 20.000 L 4.001 20.000 3.990 11.350 L 3.980 2.700 3.872 2.516 C 3.628 2.101,3.150 1.915,2.695 2.057 M7.600 6.123 C 7.256 6.279,7.050 6.563,7.012 6.935 C 6.932 7.722,7.751 8.291,8.445 7.928 C 9.377 7.441,9.047 6.042,8.000 6.042 C 7.864 6.042,7.711 6.073,7.600 6.123 M11.600 10.123 C 11.256 10.279,11.050 10.563,11.012 10.935 C 10.969 11.353,11.175 11.730,11.555 11.928 C 12.249 12.291,13.068 11.722,12.988 10.935 C 12.935 10.417,12.520 10.042,12.000 10.042 C 11.864 10.042,11.711 10.073,11.600 10.123 M18.600 10.123 C 18.256 10.279,18.050 10.563,18.012 10.935 C 17.969 11.353,18.175 11.730,18.555 11.928 C 19.249 12.291,20.068 11.722,19.988 10.935 C 19.935 10.417,19.520 10.042,19.000 10.042 C 18.864 10.042,18.711 10.073,18.600 10.123 M7.578 14.115 C 7.375 14.208,7.109 14.507,7.047 14.712 C 6.902 15.197,7.115 15.688,7.577 15.932 C 7.802 16.050,8.198 16.050,8.423 15.932 C 8.885 15.688,9.098 15.197,8.953 14.712 C 8.891 14.507,8.625 14.208,8.422 14.115 C 8.206 14.017,7.794 14.017,7.578 14.115 M15.578 15.115 C 15.375 15.208,15.109 15.507,15.047 15.712 C 14.902 16.197,15.115 16.688,15.577 16.932 C 15.802 17.050,16.198 17.050,16.423 16.932 C 16.885 16.688,17.098 16.197,16.953 15.712 C 16.891 15.507,16.625 15.208,16.422 15.115 C 16.206 15.017,15.794 15.017,15.578 15.115 " stroke="none" fill-rule="evenodd" fill="black"></path></svg>