<svg xmlns="http://www.w3.org/2000/svg" width="24" height="24" viewBox="0 0 24 24" fill="none" stroke="currentColor" stroke-width="2" stroke-linecap="round" stroke-linejoin="round"><path d="M5.580 2.096 C 5.424 2.171,5.029 2.545,3.774 3.806 C 2.891 4.694,2.135 5.483,2.095 5.560 C 2.043 5.659,2.021 5.788,2.021 6.000 C 2.020 6.258,2.036 6.327,2.133 6.492 C 2.263 6.714,2.502 6.901,2.736 6.965 C 2.939 7.019,3.267 6.989,3.445 6.899 C 3.519 6.861,3.900 6.514,4.290 6.127 L 5.000 5.423 5.000 12.711 L 5.000 20.000 3.946 20.000 C 2.797 20.000,2.644 20.022,2.382 20.221 C 2.302 20.282,2.187 20.415,2.128 20.516 C 2.037 20.672,2.020 20.746,2.020 21.000 C 2.020 21.256,2.036 21.328,2.131 21.489 C 2.256 21.702,2.449 21.864,2.670 21.943 C 2.893 22.023,21.107 22.023,21.330 21.943 C 21.551 21.864,21.744 21.702,21.869 21.489 C 21.964 21.328,21.980 21.256,21.980 21.000 C 21.980 20.746,21.963 20.672,21.872 20.516 C 21.813 20.415,21.698 20.282,21.618 20.221 C 21.356 20.022,21.203 20.000,20.054 20.000 L 19.000 20.000 19.000 14.711 L 19.000 9.423 19.710 10.127 C 20.101 10.514,20.483 10.864,20.560 10.904 C 20.660 10.957,20.787 10.979,21.000 10.979 C 21.258 10.980,21.327 10.964,21.492 10.867 C 21.714 10.737,21.901 10.498,21.965 10.264 C 22.019 10.061,21.989 9.733,21.899 9.555 C 21.862 9.481,21.109 8.694,20.226 7.806 C 18.472 6.043,18.420 6.001,18.000 6.001 C 17.580 6.001,17.528 6.043,15.774 7.806 C 14.891 8.694,14.135 9.483,14.095 9.560 C 14.043 9.659,14.021 9.788,14.021 10.000 C 14.020 10.258,14.036 10.327,14.133 10.492 C 14.263 10.714,14.502 10.901,14.736 10.965 C 14.939 11.019,15.267 10.989,15.445 10.899 C 15.519 10.861,15.900 10.514,16.290 10.127 L 17.000 9.423 17.000 14.711 L 17.000 20.000 15.000 20.000 L 13.000 20.000 13.000 17.211 L 13.000 14.423 13.710 15.127 C 14.101 15.514,14.481 15.861,14.555 15.899 C 15.008 16.128,15.601 15.944,15.867 15.492 C 15.964 15.327,15.980 15.258,15.979 15.000 C 15.979 14.788,15.957 14.659,15.905 14.560 C 15.865 14.483,15.109 13.694,14.226 12.806 C 12.472 11.043,12.420 11.001,12.000 11.001 C 11.580 11.001,11.528 11.043,9.774 12.806 C 8.891 13.694,8.135 14.483,8.095 14.560 C 8.043 14.659,8.021 14.788,8.021 15.000 C 8.020 15.258,8.036 15.327,8.133 15.492 C 8.263 15.714,8.502 15.901,8.736 15.965 C 8.939 16.019,9.267 15.989,9.445 15.899 C 9.519 15.861,9.900 15.514,10.290 15.127 L 11.000 14.423 11.000 17.211 L 11.000 20.000 9.000 20.000 L 7.000 20.000 7.000 12.711 L 7.000 5.423 7.710 6.127 C 8.101 6.514,8.483 6.864,8.560 6.904 C 8.660 6.957,8.787 6.979,9.000 6.979 C 9.258 6.980,9.327 6.964,9.492 6.867 C 9.714 6.737,9.901 6.498,9.965 6.264 C 10.019 6.061,9.989 5.733,9.899 5.555 C 9.862 5.481,9.109 4.694,8.226 3.806 C 6.971 2.545,6.576 2.171,6.420 2.096 C 6.151 1.968,5.849 1.968,5.580 2.096 " stroke="none" fill-rule="evenodd" fill="black"></path></svg>