<svg xmlns="http://www.w3.org/2000/svg" width="24" height="24" viewBox="0 0 24 24" fill="none" stroke="currentColor" stroke-width="2" stroke-linecap="round" stroke-linejoin="round"><path d="M11.695 2.055 C 11.048 2.267,10.799 3.040,11.198 3.591 C 11.263 3.681,11.399 3.803,11.499 3.862 C 11.665 3.959,11.745 3.973,12.411 4.023 C 13.458 4.101,14.168 4.257,14.980 4.587 C 17.628 5.661,19.440 7.954,19.906 10.820 C 19.993 11.354,20.002 12.522,19.924 13.060 C 19.655 14.914,18.847 16.500,17.527 17.767 C 15.955 19.277,13.878 20.070,11.720 19.987 C 10.025 19.921,8.547 19.394,7.154 18.357 C 6.614 17.955,6.398 17.892,5.985 18.017 C 5.725 18.095,5.559 18.232,5.419 18.485 C 5.321 18.664,5.301 18.744,5.303 18.960 C 5.308 19.372,5.448 19.577,6.020 20.008 C 7.320 20.988,8.907 21.642,10.620 21.904 C 11.289 22.006,12.714 22.008,13.360 21.908 C 15.918 21.509,18.072 20.318,19.636 18.440 C 20.880 16.945,21.584 15.375,21.906 13.380 C 21.958 13.054,21.977 12.703,21.978 12.020 C 21.979 11.002,21.931 10.575,21.713 9.660 C 20.820 5.920,17.799 2.992,14.040 2.222 C 13.160 2.041,11.989 1.958,11.695 2.055 M11.695 6.057 C 11.051 6.258,10.799 7.040,11.198 7.591 C 11.396 7.864,11.610 7.961,12.110 8.004 C 12.909 8.073,13.255 8.164,13.840 8.464 C 14.739 8.924,15.462 9.771,15.797 10.755 C 15.897 11.050,16.000 11.680,16.000 12.000 C 16.000 12.322,15.897 12.951,15.796 13.245 C 15.321 14.632,14.195 15.628,12.773 15.917 C 11.037 16.271,9.236 15.393,8.443 13.804 C 8.162 13.242,8.071 12.890,8.004 12.110 C 7.974 11.762,7.947 11.645,7.864 11.503 C 7.480 10.847,6.518 10.853,6.129 11.514 C 6.025 11.692,6.020 11.722,6.024 12.220 C 6.042 14.600,7.727 16.877,10.060 17.672 C 10.754 17.909,11.179 17.975,12.000 17.975 C 12.822 17.975,13.248 17.909,13.940 17.672 C 15.954 16.982,17.426 15.298,17.885 13.160 C 18.015 12.554,18.015 11.446,17.885 10.840 C 17.626 9.631,17.109 8.660,16.269 7.805 C 15.258 6.775,14.009 6.180,12.564 6.039 C 12.064 5.991,11.896 5.994,11.695 6.057 M11.477 10.073 C 10.806 10.249,10.238 10.823,10.060 11.508 C 9.941 11.962,10.003 12.492,10.225 12.930 C 10.361 13.199,10.801 13.639,11.070 13.775 C 11.659 14.073,12.341 14.073,12.930 13.775 C 13.196 13.640,13.638 13.200,13.771 12.937 C 13.994 12.498,14.052 12.007,13.940 11.529 C 13.858 11.182,13.720 10.927,13.465 10.653 C 13.074 10.232,12.560 10.005,12.000 10.005 C 11.857 10.005,11.622 10.036,11.477 10.073 " stroke="none" fill-rule="evenodd" fill="black"></path></svg>