<svg xmlns="http://www.w3.org/2000/svg" width="24" height="24" viewBox="0 0 24 24" fill="none" stroke="currentColor" stroke-width="2" stroke-linecap="round" stroke-linejoin="round"><path d="M2.695 2.057 C 2.466 2.129,2.256 2.299,2.128 2.516 L 2.020 2.700 2.020 12.003 L 2.020 21.306 2.141 21.503 C 2.543 22.156,3.457 22.156,3.859 21.503 L 3.980 21.307 3.992 20.153 L 4.005 19.000 9.291 19.000 L 14.577 19.000 13.873 19.710 C 13.486 20.101,13.136 20.483,13.096 20.560 C 13.043 20.660,13.021 20.787,13.021 21.000 C 13.020 21.258,13.036 21.327,13.133 21.492 C 13.263 21.714,13.502 21.901,13.736 21.965 C 13.939 22.019,14.267 21.989,14.445 21.899 C 14.519 21.862,15.306 21.109,16.194 20.226 C 17.957 18.472,17.999 18.420,17.999 18.000 C 17.999 17.578,17.960 17.530,16.175 15.756 C 14.716 14.307,14.519 14.124,14.343 14.066 C 13.863 13.906,13.382 14.084,13.128 14.516 C 13.036 14.672,13.020 14.745,13.021 15.000 C 13.021 15.213,13.043 15.340,13.096 15.440 C 13.136 15.517,13.486 15.899,13.873 16.290 L 14.577 17.000 9.289 17.000 L 4.000 17.000 4.000 15.000 L 4.000 13.000 6.789 13.000 L 9.577 13.000 8.873 13.710 C 8.486 14.101,8.136 14.483,8.096 14.560 C 8.043 14.660,8.021 14.787,8.021 15.000 C 8.020 15.258,8.036 15.327,8.133 15.492 C 8.263 15.714,8.502 15.901,8.736 15.965 C 8.939 16.019,9.267 15.989,9.445 15.899 C 9.519 15.862,10.306 15.109,11.194 14.226 C 12.957 12.472,12.999 12.420,12.999 12.000 C 12.999 11.578,12.960 11.530,11.175 9.756 C 9.716 8.307,9.519 8.124,9.343 8.066 C 8.863 7.906,8.382 8.084,8.128 8.516 C 8.036 8.672,8.020 8.745,8.021 9.000 C 8.021 9.213,8.043 9.340,8.096 9.440 C 8.136 9.517,8.486 9.900,8.873 10.290 L 9.577 11.000 6.789 11.000 L 4.000 11.000 4.000 9.000 L 4.000 7.000 11.289 7.000 L 18.577 7.000 17.873 7.710 C 17.486 8.101,17.139 8.481,17.101 8.555 C 16.872 9.008,17.056 9.601,17.508 9.867 C 17.673 9.964,17.742 9.980,18.000 9.979 C 18.212 9.979,18.341 9.957,18.440 9.905 C 18.517 9.865,19.306 9.109,20.194 8.226 C 21.957 6.472,21.999 6.420,21.999 6.000 C 21.999 5.578,21.960 5.530,20.175 3.756 C 18.716 2.307,18.519 2.124,18.343 2.066 C 17.863 1.906,17.382 2.084,17.128 2.516 C 17.036 2.672,17.020 2.745,17.021 3.000 C 17.021 3.213,17.043 3.340,17.096 3.440 C 17.136 3.517,17.486 3.900,17.873 4.290 L 18.577 5.000 11.291 5.000 L 4.005 5.000 3.992 3.850 L 3.980 2.700 3.872 2.516 C 3.628 2.101,3.150 1.915,2.695 2.057 " stroke="none" fill-rule="evenodd" fill="black"></path></svg>