<svg xmlns="http://www.w3.org/2000/svg" width="24" height="24" viewBox="0 0 24 24" fill="none" stroke="currentColor" stroke-width="2" stroke-linecap="round" stroke-linejoin="round"><path d="M2.670 2.061 C 2.448 2.142,2.250 2.309,2.128 2.516 C 2.036 2.672,2.020 2.745,2.021 3.000 C 2.021 3.213,2.043 3.341,2.095 3.440 C 2.136 3.517,2.637 4.050,3.208 4.625 L 4.248 5.670 3.965 6.051 C 2.994 7.360,2.351 8.921,2.093 10.600 C 1.994 11.244,1.994 12.756,2.093 13.400 C 2.433 15.611,3.388 17.511,4.939 19.061 C 6.490 20.613,8.383 21.564,10.600 21.907 C 11.245 22.007,12.755 22.007,13.400 21.907 C 15.086 21.647,16.638 21.008,17.949 20.035 L 18.330 19.752 19.375 20.792 C 19.950 21.363,20.483 21.864,20.560 21.905 C 20.659 21.957,20.787 21.979,21.000 21.979 C 21.258 21.980,21.327 21.964,21.492 21.867 C 21.968 21.587,22.139 20.967,21.865 20.508 C 21.810 20.416,17.665 16.243,12.653 11.235 C 4.231 2.820,3.525 2.125,3.343 2.065 C 3.107 1.987,2.874 1.986,2.670 2.061 M9.360 2.339 C 8.766 2.513,8.395 2.648,7.901 2.869 C 7.366 3.109,7.182 3.247,7.057 3.502 C 6.779 4.070,7.069 4.728,7.675 4.906 C 7.963 4.990,8.113 4.960,8.695 4.703 C 9.083 4.532,9.892 4.240,9.979 4.240 C 9.988 4.240,10.002 4.930,10.008 5.773 L 10.020 7.306 10.141 7.503 C 10.543 8.156,11.457 8.156,11.859 7.503 L 11.980 7.306 11.992 5.608 C 11.999 4.506,11.988 3.836,11.960 3.702 C 11.851 3.173,11.465 2.666,10.980 2.414 C 10.490 2.159,10.045 2.138,9.360 2.339 M14.600 2.584 C 14.399 2.671,14.205 2.869,14.095 3.100 L 14.001 3.300 14.000 5.782 C 14.000 8.475,14.001 8.488,14.225 8.930 C 14.361 9.199,14.801 9.639,15.070 9.775 C 15.512 9.999,15.525 10.000,18.218 10.000 L 20.700 9.999 20.900 9.906 C 21.122 9.803,21.338 9.582,21.431 9.363 C 21.573 9.029,21.479 8.635,21.030 7.675 C 19.983 5.435,17.951 3.557,15.606 2.662 C 15.188 2.503,14.848 2.476,14.600 2.584 M16.490 5.370 C 17.060 5.758,17.539 6.176,17.970 6.660 C 18.289 7.019,18.842 7.775,18.905 7.937 C 18.926 7.993,18.776 8.000,17.464 8.000 L 16.000 8.000 16.000 6.540 C 16.000 5.737,16.015 5.080,16.032 5.080 C 16.050 5.080,16.256 5.210,16.490 5.370 M7.856 9.276 L 10.012 11.433 10.086 11.726 C 10.348 12.773,11.227 13.652,12.274 13.914 L 12.567 13.988 14.724 16.144 C 15.910 17.330,16.880 18.312,16.880 18.328 C 16.880 18.392,15.945 18.972,15.480 19.197 C 13.264 20.266,10.738 20.267,8.529 19.200 C 7.738 18.819,7.124 18.394,6.504 17.801 C 5.777 17.105,5.251 16.387,4.817 15.499 C 3.736 13.290,3.736 10.714,4.817 8.499 C 5.052 8.016,5.608 7.120,5.672 7.120 C 5.688 7.120,6.670 8.090,7.856 9.276 M16.695 12.057 C 16.466 12.129,16.256 12.299,16.128 12.516 C 16.037 12.672,16.020 12.746,16.020 13.000 C 16.020 13.256,16.036 13.328,16.131 13.489 C 16.192 13.592,16.304 13.725,16.381 13.783 C 16.652 13.990,16.709 13.996,18.290 13.998 C 19.098 13.999,19.760 14.009,19.760 14.020 C 19.760 14.113,19.466 14.919,19.285 15.320 C 19.085 15.766,19.060 15.848,19.062 16.080 C 19.065 16.522,19.342 16.892,19.765 17.018 C 20.028 17.096,20.111 17.096,20.347 17.016 C 20.729 16.886,20.867 16.721,21.163 16.037 C 21.499 15.263,21.801 14.276,21.799 13.953 C 21.799 13.712,21.699 13.315,21.581 13.083 C 21.446 12.816,21.097 12.449,20.817 12.281 C 20.383 12.020,20.253 12.005,18.460 12.005 C 17.264 12.005,16.818 12.018,16.695 12.057 " stroke="none" fill-rule="evenodd" fill="black"></path></svg>