<svg xmlns="http://www.w3.org/2000/svg" width="24" height="24" viewBox="0 0 24 24" fill="none" stroke="currentColor" stroke-width="2" stroke-linecap="round" stroke-linejoin="round"><path d="M2.695 2.057 C 2.466 2.129,2.256 2.299,2.128 2.516 L 2.020 2.700 2.020 12.000 L 2.020 21.300 2.131 21.489 C 2.256 21.702,2.449 21.864,2.670 21.943 C 2.893 22.023,21.107 22.023,21.330 21.943 C 21.551 21.864,21.744 21.702,21.869 21.489 C 21.964 21.328,21.980 21.256,21.980 21.000 C 21.980 20.745,21.964 20.672,21.871 20.514 C 21.730 20.275,21.485 20.096,21.216 20.036 L 21.004 19.988 20.992 18.844 L 20.980 17.700 20.871 17.514 C 20.479 16.848,19.521 16.848,19.129 17.514 L 19.020 17.700 19.008 18.850 L 18.995 20.000 17.999 20.000 L 17.003 20.000 16.991 17.850 L 16.980 15.700 16.871 15.514 C 16.479 14.848,15.521 14.848,15.129 15.514 L 15.020 15.700 15.009 17.850 L 14.997 20.000 13.999 20.000 L 13.002 20.000 12.991 16.350 L 12.980 12.700 12.871 12.514 C 12.479 11.848,11.521 11.848,11.129 12.514 L 11.020 12.700 11.009 16.350 L 10.998 20.000 10.001 20.000 L 9.003 20.000 8.991 17.850 L 8.980 15.700 8.871 15.514 C 8.648 15.134,8.208 14.941,7.786 15.035 C 7.515 15.096,7.270 15.275,7.129 15.514 L 7.020 15.700 7.009 17.850 L 6.997 20.000 5.499 20.000 L 4.000 20.000 4.000 15.984 L 4.000 11.967 4.290 11.922 C 5.757 11.692,6.815 11.246,7.755 10.461 C 8.229 10.065,8.553 9.713,9.305 8.780 C 10.086 7.810,10.444 7.459,10.848 7.264 C 11.236 7.078,11.493 7.024,12.000 7.024 C 12.507 7.024,12.764 7.078,13.152 7.264 C 13.556 7.459,13.914 7.810,14.695 8.780 C 15.049 9.220,15.465 9.713,15.620 9.876 C 16.885 11.214,18.485 11.901,20.539 11.987 C 20.903 12.002,21.158 11.994,21.264 11.965 C 21.498 11.901,21.737 11.714,21.867 11.492 C 21.964 11.327,21.980 11.257,21.980 11.000 C 21.980 10.745,21.964 10.672,21.871 10.514 C 21.734 10.282,21.490 10.099,21.246 10.046 C 21.144 10.024,20.844 9.996,20.580 9.984 C 20.012 9.958,19.508 9.876,19.040 9.734 C 17.986 9.415,17.392 8.946,16.287 7.560 C 15.329 6.358,14.843 5.894,14.148 5.519 C 13.486 5.162,12.882 5.022,12.000 5.022 C 11.118 5.022,10.514 5.162,9.852 5.519 C 9.156 5.894,8.668 6.360,7.713 7.560 C 6.562 9.006,5.920 9.488,4.738 9.798 C 4.563 9.844,4.326 9.893,4.211 9.906 L 4.002 9.931 3.991 6.315 L 3.980 2.700 3.872 2.516 C 3.628 2.101,3.150 1.915,2.695 2.057 " stroke="none" fill-rule="evenodd" fill="black"></path></svg>