<svg xmlns="http://www.w3.org/2000/svg" width="24" height="24" viewBox="0 0 24 24" fill="none" stroke="currentColor" stroke-width="2" stroke-linecap="round" stroke-linejoin="round"><path d="M11.695 2.057 C 11.466 2.129,11.256 2.299,11.128 2.516 L 11.020 2.700 11.009 7.607 L 10.999 12.514 6.619 15.921 C 3.043 18.702,2.220 19.359,2.137 19.502 C 1.862 19.970,2.031 20.587,2.511 20.869 C 2.673 20.964,2.743 20.980,3.000 20.979 C 3.201 20.979,3.340 20.957,3.421 20.913 C 3.488 20.877,5.441 19.370,7.761 17.564 C 10.082 15.759,11.989 14.282,12.000 14.282 C 12.011 14.282,13.918 15.759,16.239 17.564 C 18.559 19.370,20.512 20.877,20.579 20.913 C 20.660 20.957,20.799 20.979,21.000 20.979 C 21.257 20.980,21.327 20.964,21.489 20.869 C 21.969 20.587,22.138 19.970,21.863 19.502 C 21.780 19.359,20.957 18.702,17.381 15.921 L 13.001 12.514 12.991 7.607 L 12.980 2.700 12.872 2.516 C 12.628 2.101,12.150 1.915,11.695 2.057 M2.578 3.115 C 2.375 3.208,2.109 3.507,2.047 3.712 C 1.902 4.197,2.115 4.688,2.577 4.932 C 2.802 5.050,3.198 5.050,3.423 4.932 C 4.036 4.609,4.187 3.875,3.745 3.372 C 3.533 3.132,3.330 3.042,3.000 3.042 C 2.833 3.042,2.682 3.068,2.578 3.115 M16.578 3.115 C 16.375 3.208,16.109 3.507,16.047 3.712 C 15.902 4.197,16.115 4.688,16.577 4.932 C 16.802 5.050,17.198 5.050,17.423 4.932 C 18.036 4.609,18.187 3.875,17.745 3.372 C 17.533 3.132,17.330 3.042,17.000 3.042 C 16.833 3.042,16.682 3.068,16.578 3.115 M6.578 7.115 C 6.375 7.208,6.109 7.507,6.047 7.712 C 5.902 8.197,6.115 8.688,6.577 8.932 C 6.695 8.993,6.812 9.017,7.000 9.017 C 7.862 9.017,8.314 8.019,7.745 7.372 C 7.533 7.132,7.330 7.042,7.000 7.042 C 6.833 7.042,6.682 7.068,6.578 7.115 M20.578 7.115 C 20.375 7.208,20.109 7.507,20.047 7.712 C 19.902 8.197,20.115 8.688,20.577 8.932 C 20.695 8.993,20.812 9.017,21.000 9.017 C 21.862 9.017,22.314 8.019,21.745 7.372 C 21.533 7.132,21.330 7.042,21.000 7.042 C 20.833 7.042,20.682 7.068,20.578 7.115 M16.695 11.057 C 16.142 11.230,15.852 11.861,16.081 12.393 C 16.351 13.021,17.143 13.207,17.649 12.761 C 18.244 12.238,18.042 11.281,17.290 11.055 C 17.068 10.988,16.913 10.989,16.695 11.057 M2.578 11.115 C 2.375 11.208,2.109 11.507,2.047 11.712 C 1.902 12.197,2.115 12.688,2.577 12.932 C 2.802 13.050,3.198 13.050,3.423 12.932 C 3.885 12.688,4.098 12.197,3.953 11.712 C 3.891 11.507,3.625 11.208,3.422 11.115 C 3.206 11.017,2.794 11.017,2.578 11.115 M11.578 18.115 C 11.375 18.208,11.109 18.507,11.047 18.712 C 10.902 19.197,11.115 19.688,11.577 19.932 C 11.802 20.050,12.198 20.050,12.423 19.932 C 12.885 19.688,13.098 19.197,12.953 18.712 C 12.891 18.507,12.625 18.208,12.422 18.115 C 12.206 18.017,11.794 18.017,11.578 18.115 " stroke="none" fill-rule="evenodd" fill="black"></path></svg>