<svg xmlns="http://www.w3.org/2000/svg" width="24" height="24" viewBox="0 0 24 24" fill="none" stroke="currentColor" stroke-width="2" stroke-linecap="round" stroke-linejoin="round"><path d="M9.500 2.297 C 6.267 3.134,3.610 5.616,2.566 8.773 C 2.157 10.010,2.019 10.943,2.051 12.240 C 2.067 12.867,2.096 13.196,2.173 13.640 C 2.532 15.688,3.431 17.447,4.878 18.934 C 6.716 20.824,9.109 21.877,11.725 21.949 C 13.466 21.997,14.988 21.663,16.500 20.902 C 19.051 19.617,20.856 17.434,21.663 14.660 C 21.801 14.182,21.823 13.886,21.744 13.550 C 21.623 13.034,21.320 12.608,20.863 12.312 C 20.387 12.004,20.660 12.024,16.460 12.001 L 12.700 11.980 12.516 11.872 C 12.415 11.813,12.284 11.700,12.225 11.623 C 11.992 11.317,12.000 11.471,12.000 7.503 C 12.000 3.540,12.005 3.645,11.776 3.191 C 11.638 2.920,11.280 2.570,10.980 2.414 C 10.530 2.179,10.090 2.144,9.500 2.297 M14.600 2.584 C 14.399 2.671,14.205 2.869,14.095 3.100 L 14.001 3.300 14.000 5.782 C 14.000 8.475,14.001 8.488,14.225 8.930 C 14.361 9.199,14.801 9.639,15.070 9.775 C 15.512 9.999,15.525 10.000,18.218 10.000 L 20.700 9.999 20.900 9.906 C 21.122 9.803,21.338 9.582,21.431 9.363 C 21.573 9.029,21.479 8.635,21.030 7.675 C 19.983 5.435,17.951 3.557,15.606 2.662 C 15.188 2.503,14.848 2.476,14.600 2.584 M10.009 7.910 L 10.020 11.580 10.114 11.860 C 10.442 12.839,11.161 13.558,12.140 13.886 L 12.420 13.980 16.090 13.991 L 19.761 14.003 19.735 14.111 C 19.622 14.583,19.221 15.520,18.909 16.040 C 17.444 18.486,14.860 19.960,12.039 19.960 C 8.539 19.960,5.461 17.700,4.404 14.354 C 3.902 12.764,3.929 10.971,4.480 9.340 C 4.647 8.844,5.080 7.981,5.391 7.522 C 6.335 6.130,7.626 5.103,9.200 4.493 C 9.438 4.400,9.900 4.250,9.969 4.243 C 9.984 4.241,10.002 5.891,10.009 7.910 M16.490 5.370 C 17.060 5.758,17.539 6.176,17.970 6.660 C 18.289 7.019,18.842 7.775,18.905 7.937 C 18.926 7.993,18.776 8.000,17.464 8.000 L 16.000 8.000 16.000 6.540 C 16.000 5.737,16.015 5.080,16.032 5.080 C 16.050 5.080,16.256 5.210,16.490 5.370 " stroke="none" fill-rule="evenodd" fill="black"></path></svg>