<svg xmlns="http://www.w3.org/2000/svg" width="24" height="24" viewBox="0 0 24 24" fill="none" stroke="currentColor" stroke-width="2" stroke-linecap="round" stroke-linejoin="round"><path d="M5.695 2.057 C 5.466 2.129,5.256 2.299,5.128 2.516 L 5.020 2.700 5.008 3.850 L 4.995 5.000 3.944 5.000 C 2.797 5.000,2.643 5.022,2.382 5.221 C 2.302 5.282,2.187 5.415,2.128 5.516 C 2.037 5.672,2.020 5.746,2.020 6.000 C 2.020 6.256,2.036 6.328,2.131 6.489 C 2.192 6.592,2.304 6.725,2.381 6.783 C 2.643 6.983,2.738 6.996,3.910 6.998 L 5.000 7.000 5.000 8.073 L 5.000 9.145 4.670 9.313 C 4.091 9.607,3.597 10.102,3.312 10.670 C 3.157 10.979,3.139 11.000,3.020 11.000 C 2.512 11.000,2.063 11.396,2.013 11.888 C 1.954 12.458,2.348 12.937,2.916 12.989 L 3.152 13.010 3.315 13.335 C 3.597 13.900,4.102 14.404,4.670 14.688 C 4.993 14.850,5.000 14.856,5.000 14.999 C 5.000 15.142,4.992 15.149,4.670 15.313 C 4.091 15.607,3.597 16.102,3.312 16.670 C 3.157 16.979,3.139 17.000,3.020 17.000 C 2.512 17.000,2.063 17.396,2.013 17.888 C 1.954 18.458,2.348 18.937,2.916 18.989 L 3.152 19.010 3.315 19.335 C 3.596 19.898,4.102 20.404,4.665 20.685 L 4.990 20.848 5.011 21.088 C 5.039 21.393,5.195 21.655,5.452 21.828 C 6.075 22.246,6.921 21.839,6.989 21.088 L 7.010 20.848 7.335 20.685 C 7.900 20.403,8.404 19.898,8.688 19.330 L 8.853 19.000 9.924 19.000 L 10.995 19.000 11.008 20.153 L 11.020 21.307 11.141 21.503 C 11.543 22.156,12.457 22.156,12.859 21.503 L 12.980 21.307 12.992 20.153 L 13.005 19.000 14.076 19.000 L 15.147 19.000 15.312 19.330 C 15.596 19.898,16.100 20.403,16.665 20.685 L 16.990 20.848 17.011 21.088 C 17.079 21.839,17.925 22.246,18.548 21.828 C 18.805 21.655,18.961 21.393,18.989 21.088 L 19.010 20.848 19.335 20.685 C 19.898 20.404,20.404 19.898,20.685 19.335 L 20.848 19.010 21.084 18.989 C 21.652 18.937,22.046 18.458,21.987 17.888 C 21.937 17.396,21.488 17.000,20.980 17.000 C 20.861 17.000,20.843 16.979,20.688 16.670 C 20.403 16.102,19.909 15.607,19.330 15.313 L 19.000 15.145 19.000 14.073 L 19.000 13.000 20.090 12.998 C 21.262 12.996,21.357 12.983,21.619 12.783 C 21.696 12.725,21.808 12.592,21.869 12.489 C 21.964 12.328,21.980 12.256,21.980 12.000 C 21.980 11.746,21.963 11.672,21.872 11.516 C 21.813 11.415,21.698 11.282,21.618 11.221 C 21.356 11.022,21.203 11.000,20.054 11.000 L 19.000 11.000 19.000 9.927 L 19.000 8.853 19.330 8.688 C 19.898 8.404,20.403 7.900,20.685 7.335 L 20.848 7.010 21.084 6.989 C 21.652 6.937,22.046 6.458,21.987 5.888 C 21.937 5.396,21.488 5.000,20.980 5.000 C 20.861 5.000,20.843 4.979,20.688 4.670 C 20.404 4.103,19.909 3.607,19.335 3.316 L 19.010 3.150 18.989 2.915 C 18.949 2.477,18.645 2.132,18.214 2.035 C 17.627 1.904,17.066 2.314,17.011 2.915 L 16.990 3.150 16.665 3.316 C 16.091 3.607,15.596 4.103,15.312 4.670 L 15.147 5.000 14.076 5.000 L 13.005 5.000 12.992 3.850 L 12.980 2.700 12.871 2.514 C 12.479 1.848,11.521 1.848,11.129 2.514 L 11.020 2.700 11.008 3.850 L 10.995 5.000 9.000 5.000 L 7.005 5.000 6.992 3.850 L 6.980 2.700 6.872 2.516 C 6.628 2.101,6.150 1.915,5.695 2.057 M18.310 5.061 C 18.688 5.173,19.000 5.598,19.000 6.001 C 19.000 6.331,18.784 6.696,18.484 6.872 C 18.328 6.963,18.254 6.980,18.000 6.980 C 17.746 6.980,17.672 6.963,17.516 6.872 C 16.935 6.530,16.833 5.774,17.304 5.303 C 17.583 5.024,17.916 4.944,18.310 5.061 M11.000 9.000 L 11.000 11.000 9.927 11.000 L 8.853 11.000 8.688 10.670 C 8.403 10.102,7.909 9.607,7.330 9.313 L 7.000 9.145 7.000 8.073 L 7.000 7.000 9.000 7.000 L 11.000 7.000 11.000 9.000 M15.312 7.330 C 15.597 7.900,16.100 8.403,16.670 8.688 L 17.000 8.853 17.000 9.927 L 17.000 11.000 15.000 11.000 L 13.000 11.000 13.000 9.000 L 13.000 7.000 14.073 7.000 L 15.147 7.000 15.312 7.330 M6.310 11.061 C 6.688 11.173,7.000 11.598,7.000 12.001 C 7.000 12.331,6.784 12.696,6.484 12.872 C 6.328 12.963,6.254 12.980,6.000 12.980 C 5.746 12.980,5.672 12.963,5.516 12.872 C 4.935 12.530,4.833 11.774,5.304 11.303 C 5.583 11.024,5.916 10.944,6.310 11.061 M11.000 15.000 L 11.000 17.000 9.927 17.000 L 8.853 17.000 8.688 16.670 C 8.403 16.102,7.909 15.607,7.330 15.313 C 7.008 15.149,7.000 15.142,7.000 15.000 C 7.000 14.858,7.008 14.851,7.330 14.687 C 7.909 14.393,8.403 13.898,8.688 13.330 L 8.853 13.000 9.927 13.000 L 11.000 13.000 11.000 15.000 M17.000 14.073 L 17.000 15.145 16.670 15.313 C 16.091 15.607,15.597 16.102,15.312 16.670 L 15.147 17.000 14.073 17.000 L 13.000 17.000 13.000 15.000 L 13.000 13.000 15.000 13.000 L 17.000 13.000 17.000 14.073 M6.310 17.061 C 6.688 17.173,7.000 17.598,7.000 18.001 C 7.000 18.331,6.784 18.696,6.484 18.872 C 6.328 18.963,6.254 18.980,6.000 18.980 C 5.746 18.980,5.672 18.963,5.516 18.872 C 4.935 18.530,4.833 17.774,5.304 17.303 C 5.583 17.024,5.916 16.944,6.310 17.061 M18.310 17.061 C 18.688 17.173,19.000 17.598,19.000 18.001 C 19.000 18.331,18.784 18.696,18.484 18.872 C 18.328 18.963,18.254 18.980,18.000 18.980 C 17.746 18.980,17.672 18.963,17.516 18.872 C 16.935 18.530,16.833 17.774,17.304 17.303 C 17.583 17.024,17.916 16.944,18.310 17.061 " stroke="none" fill-rule="evenodd" fill="black"></path></svg>