<svg xmlns="http://www.w3.org/2000/svg" width="24" height="24" viewBox="0 0 24 24" fill="none" stroke="currentColor" stroke-width="2" stroke-linecap="round" stroke-linejoin="round"><path d="M9.500 2.297 C 6.267 3.134,3.610 5.616,2.566 8.773 C 2.157 10.010,2.019 10.943,2.051 12.240 C 2.067 12.867,2.096 13.196,2.173 13.640 C 2.532 15.688,3.431 17.447,4.878 18.934 C 6.716 20.824,9.109 21.877,11.725 21.949 C 13.466 21.997,14.988 21.663,16.500 20.902 C 19.051 19.617,20.856 17.434,21.663 14.660 C 21.720 14.462,21.776 14.192,21.788 14.060 C 21.812 13.775,21.726 13.368,21.582 13.083 C 21.446 12.816,21.097 12.449,20.817 12.281 C 20.369 12.011,20.306 12.005,17.957 12.002 C 15.576 12.000,15.601 11.997,15.298 12.300 C 15.175 12.423,15.108 12.539,15.042 12.744 C 14.993 12.896,14.870 13.190,14.769 13.398 C 14.616 13.712,14.526 13.835,14.242 14.120 C 13.857 14.508,13.546 14.712,13.089 14.879 C 12.278 15.175,11.470 15.128,10.655 14.738 C 9.904 14.378,9.235 13.565,9.043 12.781 C 8.767 11.653,9.055 10.595,9.860 9.777 C 10.227 9.405,10.550 9.208,11.118 9.009 C 11.562 8.854,11.718 8.746,11.869 8.489 L 11.980 8.300 11.991 6.103 C 11.999 4.659,11.988 3.835,11.960 3.700 C 11.851 3.173,11.464 2.666,10.980 2.414 C 10.530 2.179,10.090 2.144,9.500 2.297 M14.600 2.584 C 14.399 2.671,14.205 2.869,14.095 3.100 L 14.001 3.300 14.000 5.723 C 14.000 7.852,14.008 8.169,14.065 8.336 C 14.118 8.493,14.246 8.642,14.802 9.198 C 15.358 9.754,15.507 9.882,15.664 9.935 C 15.831 9.992,16.148 10.000,18.277 10.000 L 20.700 9.999 20.900 9.906 C 21.122 9.803,21.338 9.582,21.431 9.363 C 21.573 9.029,21.479 8.635,21.030 7.675 C 19.983 5.435,17.951 3.557,15.606 2.662 C 15.188 2.503,14.848 2.476,14.600 2.584 M10.000 5.759 L 10.000 7.279 9.750 7.405 C 7.823 8.374,6.697 10.476,6.975 12.584 C 7.060 13.224,7.196 13.685,7.459 14.220 C 8.077 15.478,9.259 16.477,10.580 16.858 C 12.416 17.387,14.272 16.911,15.641 15.560 C 16.031 15.175,16.334 14.764,16.564 14.310 L 16.721 14.000 18.241 14.000 L 19.762 14.000 19.735 14.110 C 19.622 14.583,19.221 15.520,18.909 16.040 C 17.444 18.486,14.860 19.960,12.039 19.960 C 8.539 19.960,5.461 17.700,4.404 14.354 C 3.902 12.764,3.929 10.971,4.480 9.340 C 4.647 8.844,5.080 7.981,5.391 7.522 C 6.335 6.130,7.626 5.103,9.200 4.493 C 9.441 4.399,9.901 4.250,9.970 4.243 C 9.986 4.241,10.000 4.924,10.000 5.759 M16.490 5.370 C 17.060 5.758,17.539 6.176,17.970 6.660 C 18.289 7.019,18.842 7.775,18.905 7.937 C 18.926 7.993,18.797 8.000,17.690 8.000 L 16.452 8.000 16.226 7.774 L 16.000 7.548 16.000 6.314 C 16.000 5.635,16.015 5.080,16.032 5.080 C 16.050 5.080,16.256 5.210,16.490 5.370 " stroke="none" fill-rule="evenodd" fill="black"></path></svg>