<svg xmlns="http://www.w3.org/2000/svg" width="24" height="24" viewBox="0 0 24 24" fill="none" stroke="currentColor" stroke-width="2" stroke-linecap="round" stroke-linejoin="round"><path d="M2.695 2.057 C 2.466 2.129,2.256 2.299,2.128 2.516 L 2.020 2.700 2.020 12.000 L 2.020 21.300 2.131 21.489 C 2.256 21.702,2.449 21.864,2.670 21.943 C 2.893 22.023,21.107 22.023,21.330 21.943 C 21.551 21.864,21.744 21.702,21.869 21.489 C 21.964 21.328,21.980 21.256,21.980 21.000 C 21.980 20.746,21.963 20.672,21.872 20.516 C 21.740 20.293,21.533 20.128,21.290 20.055 C 21.138 20.009,19.686 20.000,12.554 20.000 L 4.001 20.000 3.990 11.350 L 3.980 2.700 3.872 2.516 C 3.628 2.101,3.150 1.915,2.695 2.057 M6.695 5.054 C 6.463 5.131,6.255 5.301,6.128 5.516 C 6.036 5.672,6.020 5.746,6.020 6.003 C 6.020 6.271,6.034 6.329,6.141 6.503 C 6.289 6.743,6.580 6.948,6.811 6.975 C 6.904 6.985,7.304 7.013,7.700 7.037 C 8.819 7.103,9.678 7.258,10.640 7.568 C 12.399 8.136,13.855 9.017,15.122 10.280 C 16.133 11.287,16.829 12.330,17.340 13.600 C 17.738 14.592,17.923 15.475,17.995 16.730 C 18.027 17.283,18.036 17.332,18.146 17.510 C 18.543 18.156,19.460 18.152,19.859 17.503 L 19.980 17.306 19.977 16.663 C 19.970 14.752,19.304 12.610,18.181 10.878 C 16.313 8.000,13.324 6.011,9.766 5.277 C 8.747 5.067,7.032 4.942,6.695 5.054 " stroke="none" fill-rule="evenodd" fill="black"></path></svg>