<svg xmlns="http://www.w3.org/2000/svg" width="24" height="24" viewBox="0 0 24 24" fill="none" stroke="currentColor" stroke-width="2" stroke-linecap="round" stroke-linejoin="round"><path d="M5.499 3.043 C 4.383 3.230,3.461 4.048,3.114 5.160 L 3.020 5.460 3.020 12.000 L 3.020 18.540 3.114 18.840 C 3.422 19.827,4.173 20.578,5.160 20.886 L 5.460 20.980 12.000 20.980 L 18.540 20.980 18.840 20.886 C 19.827 20.578,20.578 19.827,20.886 18.840 L 20.980 18.540 20.980 15.120 L 20.980 11.700 20.871 11.514 C 20.479 10.848,19.521 10.848,19.129 11.514 L 19.020 11.700 19.000 14.980 C 18.985 17.483,18.968 18.287,18.930 18.373 C 18.842 18.572,18.672 18.761,18.484 18.872 L 18.300 18.980 12.000 18.980 L 5.700 18.980 5.516 18.872 C 5.415 18.813,5.284 18.700,5.225 18.623 C 4.987 18.311,5.000 18.701,5.000 12.022 C 5.000 5.123,4.977 5.629,5.303 5.303 C 5.625 4.981,5.298 5.000,10.537 4.998 C 14.311 4.997,15.208 4.986,15.330 4.943 C 15.551 4.864,15.744 4.702,15.869 4.489 C 15.964 4.328,15.980 4.256,15.980 4.000 C 15.980 3.746,15.963 3.672,15.872 3.516 C 15.813 3.415,15.698 3.282,15.618 3.221 C 15.317 2.991,15.512 3.000,10.404 3.005 C 7.817 3.007,5.609 3.025,5.499 3.043 M19.640 5.068 C 19.484 5.121,18.966 5.623,15.731 8.853 L 12.001 12.577 10.771 11.355 C 9.688 10.279,9.516 10.124,9.343 10.066 C 8.863 9.905,8.382 10.084,8.128 10.516 C 8.037 10.672,8.020 10.746,8.020 11.000 C 8.020 11.254,8.036 11.328,8.127 11.480 C 8.261 11.704,11.368 14.804,11.560 14.905 C 11.754 15.007,12.246 15.007,12.440 14.905 C 12.632 14.805,20.737 6.707,20.873 6.480 C 20.964 6.328,20.980 6.254,20.980 6.000 C 20.980 5.746,20.963 5.672,20.872 5.516 C 20.617 5.083,20.122 4.903,19.640 5.068 " stroke="none" fill-rule="evenodd" fill="black"></path></svg>