<svg xmlns="http://www.w3.org/2000/svg" width="24" height="24" viewBox="0 0 24 24" fill="none" stroke="currentColor" stroke-width="2" stroke-linecap="round" stroke-linejoin="round"><path d="M19.660 6.066 C 19.472 6.123,19.180 6.405,14.730 10.852 L 10.001 15.578 7.770 13.353 C 5.622 11.209,5.532 11.125,5.323 11.064 C 5.057 10.986,4.945 10.984,4.710 11.055 C 4.467 11.128,4.260 11.293,4.128 11.516 C 4.037 11.672,4.020 11.746,4.020 12.000 C 4.020 12.254,4.036 12.328,4.127 12.480 C 4.262 12.706,9.368 17.805,9.560 17.905 C 9.754 18.006,10.246 18.007,10.440 17.905 C 10.633 17.805,20.737 7.708,20.873 7.480 C 20.964 7.327,20.980 7.254,20.980 7.000 C 20.980 6.746,20.963 6.672,20.872 6.516 C 20.740 6.293,20.533 6.128,20.290 6.055 C 20.062 5.986,19.915 5.989,19.660 6.066 " stroke="none" fill-rule="evenodd" fill="black"></path></svg>