<svg xmlns="http://www.w3.org/2000/svg" width="24" height="24" viewBox="0 0 24 24" fill="none" stroke="currentColor" stroke-width="2" stroke-linecap="round" stroke-linejoin="round"><path d="M16.660 6.066 C 16.474 6.122,16.279 6.307,13.847 8.733 C 12.371 10.206,11.188 11.418,11.127 11.520 C 11.036 11.672,11.020 11.746,11.020 12.000 C 11.020 12.257,11.036 12.327,11.133 12.492 C 11.263 12.714,11.502 12.901,11.736 12.965 C 11.938 13.019,12.266 12.989,12.445 12.899 C 12.630 12.807,17.738 7.706,17.873 7.480 C 17.964 7.328,17.980 7.254,17.980 7.000 C 17.980 6.746,17.963 6.672,17.872 6.516 C 17.740 6.293,17.533 6.128,17.290 6.055 C 17.062 5.986,16.915 5.989,16.660 6.066 M21.660 6.066 C 21.472 6.123,21.180 6.405,16.730 10.852 L 12.001 15.578 9.770 13.353 C 7.622 11.209,7.532 11.125,7.323 11.064 C 7.057 10.986,6.945 10.984,6.710 11.055 C 6.467 11.128,6.260 11.293,6.128 11.516 C 6.037 11.672,6.020 11.746,6.020 12.000 C 6.020 12.254,6.036 12.328,6.127 12.480 C 6.262 12.706,11.368 17.805,11.560 17.905 C 11.754 18.006,12.246 18.007,12.440 17.905 C 12.633 17.805,22.737 7.708,22.873 7.480 C 22.964 7.327,22.980 7.254,22.980 7.000 C 22.980 6.746,22.963 6.672,22.872 6.516 C 22.740 6.293,22.533 6.128,22.290 6.055 C 22.062 5.986,21.915 5.989,21.660 6.066 M1.695 11.057 C 1.466 11.129,1.256 11.299,1.128 11.516 C 1.037 11.672,1.020 11.746,1.020 12.000 C 1.020 12.254,1.036 12.328,1.127 12.480 C 1.262 12.706,6.368 17.805,6.560 17.905 C 6.659 17.957,6.788 17.979,7.000 17.979 C 7.258 17.980,7.327 17.964,7.492 17.867 C 7.968 17.587,8.138 16.968,7.866 16.508 C 7.811 16.416,6.590 15.167,5.153 13.734 C 2.627 11.214,2.533 11.125,2.323 11.064 C 2.066 10.988,1.919 10.987,1.695 11.057 " stroke="none" fill-rule="evenodd" fill="black"></path></svg>