<svg xmlns="http://www.w3.org/2000/svg" width="24" height="24" viewBox="0 0 24 24" fill="none" stroke="currentColor" stroke-width="2" stroke-linecap="round" stroke-linejoin="round"><path d="M11.160 3.043 C 7.873 3.354,4.917 5.494,3.290 8.740 C 2.491 10.336,2.072 12.034,2.013 13.926 C 1.943 16.163,2.435 18.265,3.483 20.203 C 3.714 20.632,3.865 20.806,4.101 20.920 C 4.263 20.999,4.361 21.000,12.723 20.998 C 19.683 20.997,21.207 20.987,21.330 20.943 C 21.551 20.864,21.744 20.702,21.869 20.489 L 21.980 20.300 21.992 18.320 C 22.004 16.094,22.010 16.139,21.711 15.814 C 21.535 15.624,21.335 15.537,20.980 15.498 C 20.677 15.465,20.496 15.390,20.326 15.228 C 20.104 15.015,20.022 14.819,20.022 14.500 C 20.022 14.169,20.110 13.971,20.352 13.752 C 20.529 13.592,20.670 13.539,21.020 13.499 C 21.464 13.449,21.729 13.270,21.905 12.900 L 21.999 12.700 21.999 10.740 L 21.999 8.780 21.905 8.580 C 21.853 8.470,21.758 8.333,21.695 8.276 C 21.551 8.146,12.063 3.101,11.853 3.043 C 11.685 2.996,11.655 2.996,11.160 3.043 M14.205 6.520 L 16.950 7.980 14.258 7.990 C 12.778 7.996,10.342 7.996,8.845 7.990 L 6.123 7.980 6.464 7.592 C 7.268 6.679,8.395 5.892,9.520 5.458 C 10.092 5.237,10.970 5.037,11.300 5.052 C 11.426 5.058,12.048 5.373,14.205 6.520 M20.000 10.835 L 20.000 11.669 19.823 11.737 C 19.564 11.835,19.182 12.094,18.911 12.352 C 17.879 13.337,17.701 14.958,18.495 16.152 C 18.802 16.614,19.372 17.091,19.823 17.263 L 20.000 17.331 20.000 18.166 L 20.000 19.000 12.551 18.990 L 5.102 18.980 4.993 18.760 C 3.795 16.332,3.686 13.149,4.711 10.490 L 4.900 10.000 12.450 10.000 L 20.000 10.000 20.000 10.835 M7.695 12.057 C 7.466 12.129,7.256 12.299,7.128 12.516 C 7.036 12.672,7.020 12.745,7.021 13.000 C 7.022 13.332,7.101 13.533,7.306 13.728 C 7.785 14.181,8.580 14.046,8.893 13.460 C 9.025 13.211,9.015 12.760,8.872 12.516 C 8.628 12.101,8.150 11.915,7.695 12.057 M14.695 12.057 C 14.466 12.129,14.256 12.299,14.128 12.516 C 14.036 12.672,14.020 12.745,14.021 13.000 C 14.022 13.332,14.101 13.533,14.306 13.728 C 14.785 14.181,15.580 14.046,15.893 13.460 C 16.025 13.211,16.015 12.760,15.872 12.516 C 15.628 12.101,15.150 11.915,14.695 12.057 M10.695 15.057 C 10.466 15.129,10.256 15.299,10.128 15.516 C 10.036 15.672,10.020 15.745,10.021 16.000 C 10.022 16.332,10.101 16.533,10.306 16.728 C 10.785 17.181,11.580 17.046,11.893 16.460 C 12.025 16.211,12.015 15.760,11.872 15.516 C 11.628 15.101,11.150 14.915,10.695 15.057 " stroke="none" fill-rule="evenodd" fill="black"></path></svg>