<svg xmlns="http://www.w3.org/2000/svg" width="24" height="24" viewBox="0 0 24 24" fill="none" stroke="currentColor" stroke-width="2" stroke-linecap="round" stroke-linejoin="round"><path d="M11.340 2.045 C 10.216 2.187,9.164 2.736,8.327 3.618 C 8.018 3.943,7.666 4.449,7.502 4.804 L 7.404 5.016 6.948 5.026 C 6.137 5.043,5.490 5.207,4.763 5.581 C 3.304 6.332,2.348 7.672,2.098 9.320 C 1.998 9.982,2.035 10.580,2.223 11.311 C 2.348 11.801,2.714 12.558,3.030 12.982 C 3.470 13.572,4.200 14.188,4.809 14.483 L 4.998 14.575 5.009 17.938 L 5.020 21.300 5.131 21.489 C 5.256 21.702,5.449 21.864,5.670 21.943 C 5.892 22.022,18.108 22.022,18.330 21.943 C 18.551 21.864,18.744 21.702,18.869 21.489 L 18.980 21.300 18.991 17.938 L 19.002 14.575 19.191 14.483 C 19.800 14.188,20.530 13.572,20.970 12.982 C 21.452 12.335,21.815 11.422,21.919 10.592 C 22.101 9.137,21.578 7.601,20.540 6.541 C 20.128 6.121,19.764 5.852,19.237 5.581 C 18.510 5.207,17.863 5.043,17.052 5.026 L 16.596 5.016 16.498 4.804 C 16.124 3.996,15.326 3.154,14.453 2.647 C 13.556 2.125,12.431 1.908,11.340 2.045 M12.563 4.057 C 13.669 4.254,14.615 5.139,14.901 6.244 C 14.994 6.605,15.095 6.777,15.303 6.936 C 15.579 7.147,15.834 7.191,16.249 7.099 C 16.664 7.008,17.284 7.005,17.649 7.093 C 19.361 7.507,20.355 9.308,19.794 10.980 C 19.592 11.579,19.042 12.271,18.527 12.573 C 18.389 12.654,18.114 12.777,17.916 12.846 C 17.480 12.998,17.281 13.136,17.133 13.388 L 17.020 13.580 17.008 14.790 L 16.996 16.000 12.000 16.000 L 7.004 16.000 6.992 14.790 L 6.980 13.580 6.867 13.388 C 6.719 13.136,6.520 12.998,6.084 12.846 C 5.593 12.674,5.273 12.477,4.941 12.142 C 3.986 11.178,3.780 9.796,4.411 8.584 C 4.781 7.872,5.538 7.290,6.351 7.093 C 6.701 7.008,7.373 7.009,7.732 7.095 C 8.072 7.176,8.149 7.176,8.389 7.096 C 8.758 6.972,8.950 6.763,9.064 6.360 C 9.242 5.729,9.483 5.292,9.870 4.901 C 10.589 4.176,11.547 3.876,12.563 4.057 M17.000 19.000 L 17.000 20.000 12.000 20.000 L 7.000 20.000 7.000 19.000 L 7.000 18.000 12.000 18.000 L 17.000 18.000 17.000 19.000 " stroke="none" fill-rule="evenodd" fill="black"></path></svg>