<svg xmlns="http://www.w3.org/2000/svg" width="24" height="24" viewBox="0 0 24 24" fill="none" stroke="currentColor" stroke-width="2" stroke-linecap="round" stroke-linejoin="round"><path d="M2.670 2.061 C 2.448 2.142,2.250 2.309,2.128 2.516 C 2.036 2.672,2.020 2.745,2.021 3.000 C 2.021 3.213,2.043 3.341,2.095 3.440 C 2.136 3.517,2.648 4.063,3.234 4.653 L 4.300 5.727 4.201 5.793 C 3.293 6.407,2.586 7.307,2.226 8.310 C 1.739 9.666,1.890 11.304,2.612 12.497 C 3.123 13.341,4.002 14.154,4.769 14.494 L 4.998 14.595 5.009 17.947 L 5.020 21.300 5.131 21.489 C 5.256 21.702,5.449 21.864,5.670 21.943 C 5.892 22.022,18.108 22.022,18.330 21.943 C 18.551 21.864,18.744 21.702,18.869 21.489 C 18.967 21.320,18.981 21.253,18.994 20.866 L 19.009 20.432 19.715 21.131 C 20.103 21.516,20.483 21.864,20.560 21.904 C 20.660 21.957,20.787 21.979,21.000 21.979 C 21.258 21.980,21.327 21.964,21.492 21.867 C 21.968 21.587,22.139 20.967,21.865 20.508 C 21.810 20.416,17.665 16.243,12.653 11.235 C 4.231 2.820,3.525 2.125,3.343 2.065 C 3.107 1.987,2.874 1.986,2.670 2.061 M11.460 2.027 C 10.622 2.132,9.697 2.490,9.066 2.953 C 8.556 3.327,7.961 3.973,7.801 4.326 C 7.644 4.671,7.730 5.120,8.004 5.394 C 8.229 5.620,8.412 5.697,8.720 5.698 C 9.072 5.699,9.309 5.567,9.600 5.208 C 10.043 4.660,10.544 4.318,11.200 4.114 C 11.610 3.987,12.361 3.984,12.783 4.108 C 13.325 4.267,13.753 4.521,14.130 4.906 C 14.515 5.299,14.751 5.713,14.903 6.260 C 15.003 6.617,15.099 6.781,15.303 6.936 C 15.579 7.147,15.834 7.191,16.249 7.099 C 16.664 7.008,17.284 7.005,17.649 7.093 C 19.361 7.507,20.355 9.308,19.794 10.980 C 19.592 11.579,19.042 12.271,18.527 12.573 C 18.389 12.654,18.114 12.777,17.916 12.846 C 17.287 13.065,17.046 13.328,17.010 13.833 C 16.976 14.306,17.144 14.653,17.508 14.867 C 17.673 14.964,17.743 14.980,18.003 14.980 C 18.277 14.980,18.325 14.968,18.503 14.851 C 18.611 14.780,18.848 14.651,19.030 14.564 C 19.785 14.201,20.490 13.626,20.970 12.982 C 21.452 12.335,21.815 11.422,21.919 10.592 C 22.101 9.137,21.578 7.601,20.540 6.541 C 20.128 6.121,19.764 5.852,19.237 5.581 C 18.511 5.208,17.863 5.043,17.057 5.026 L 16.606 5.016 16.447 4.709 C 15.806 3.469,14.586 2.496,13.260 2.166 C 12.705 2.028,11.931 1.968,11.460 2.027 M10.180 11.600 L 14.580 16.000 10.792 16.000 L 7.004 16.000 6.992 14.790 L 6.980 13.580 6.867 13.388 C 6.715 13.130,6.498 12.982,6.085 12.858 C 5.068 12.550,4.298 11.750,4.037 10.729 C 3.931 10.312,3.932 9.643,4.040 9.220 C 4.233 8.464,4.808 7.730,5.504 7.351 C 5.656 7.269,5.780 7.201,5.780 7.201 C 5.780 7.200,7.760 9.180,10.180 11.600 M16.789 18.209 L 17.000 18.417 17.000 19.209 L 17.000 20.000 12.000 20.000 L 7.000 20.000 7.000 19.000 L 7.000 18.000 11.789 18.000 L 16.577 18.000 16.789 18.209 " stroke="none" fill-rule="evenodd" fill="black"></path></svg>