<svg xmlns="http://www.w3.org/2000/svg" width="24" height="24" viewBox="0 0 24 24" fill="none" stroke="currentColor" stroke-width="2" stroke-linecap="round" stroke-linejoin="round"><path d="M11.695 2.057 C 11.466 2.129,11.256 2.299,11.128 2.516 L 11.020 2.700 11.008 3.850 L 10.995 5.000 9.944 5.000 C 8.797 5.000,8.643 5.022,8.382 5.221 C 8.302 5.282,8.187 5.415,8.128 5.516 C 8.037 5.672,8.020 5.746,8.020 6.000 C 8.020 6.256,8.036 6.328,8.131 6.489 C 8.192 6.592,8.304 6.725,8.381 6.783 C 8.643 6.983,8.738 6.996,9.910 6.998 L 11.000 7.000 11.000 7.881 L 11.000 8.761 10.849 8.666 C 10.212 8.264,9.297 8.001,8.533 8.000 C 5.788 7.999,3.668 10.407,4.043 13.103 C 4.142 13.818,4.473 14.636,4.881 15.174 C 5.090 15.449,5.506 15.880,5.666 15.987 C 5.750 16.043,5.749 16.046,5.559 16.241 C 5.336 16.470,5.106 16.903,5.041 17.215 C 5.011 17.358,5.000 17.915,5.008 18.866 L 5.020 20.300 5.131 20.489 C 5.256 20.702,5.449 20.864,5.670 20.943 C 5.892 21.022,18.108 21.022,18.330 20.943 C 18.551 20.864,18.744 20.702,18.869 20.489 L 18.980 20.300 18.992 18.866 C 19.000 17.915,18.989 17.358,18.959 17.215 C 18.894 16.903,18.664 16.470,18.441 16.241 C 18.251 16.046,18.250 16.043,18.334 15.986 C 18.381 15.954,18.532 15.818,18.669 15.683 C 19.719 14.653,20.211 13.066,19.920 11.642 C 19.486 9.508,17.640 7.999,15.467 8.000 C 14.698 8.001,13.793 8.261,13.151 8.666 L 13.000 8.761 13.000 7.881 L 13.000 7.000 14.090 6.998 C 15.262 6.996,15.357 6.983,15.619 6.783 C 15.696 6.725,15.808 6.592,15.869 6.489 C 15.964 6.328,15.980 6.256,15.980 6.000 C 15.980 5.746,15.963 5.672,15.872 5.516 C 15.813 5.415,15.698 5.282,15.618 5.221 C 15.357 5.022,15.203 5.000,14.056 5.000 L 13.005 5.000 12.992 3.850 L 12.980 2.700 12.872 2.516 C 12.628 2.101,12.150 1.915,11.695 2.057 M9.020 10.060 C 9.174 10.092,9.452 10.193,9.638 10.285 C 10.056 10.491,10.473 10.891,10.676 11.280 C 10.836 11.589,11.002 11.776,11.220 11.894 C 11.364 11.972,11.440 11.980,12.000 11.980 C 12.562 11.980,12.635 11.972,12.784 11.892 C 12.992 11.781,13.157 11.593,13.326 11.273 C 13.528 10.890,13.950 10.488,14.362 10.285 C 15.117 9.913,15.882 9.913,16.637 10.284 C 17.214 10.569,17.686 11.131,17.891 11.780 C 18.006 12.143,18.013 12.818,17.905 13.180 C 17.646 14.045,16.967 14.698,16.096 14.921 C 15.799 14.997,15.638 15.000,12.000 15.000 C 8.362 15.000,8.201 14.997,7.904 14.921 C 7.032 14.698,6.353 14.044,6.096 13.180 C 5.988 12.817,5.994 12.142,6.109 11.780 C 6.503 10.536,7.757 9.796,9.020 10.060 M16.380 17.309 L 17.000 17.619 17.000 18.309 L 17.000 19.000 12.000 19.000 L 7.000 19.000 7.000 18.309 L 7.000 17.619 7.610 17.312 L 8.220 17.005 11.990 17.002 L 15.759 17.000 16.380 17.309 " stroke="none" fill-rule="evenodd" fill="black"></path></svg>