<svg xmlns="http://www.w3.org/2000/svg" width="24" height="24" viewBox="0 0 24 24" fill="none" stroke="currentColor" stroke-width="2" stroke-linecap="round" stroke-linejoin="round"><path d="M11.477 2.073 C 10.978 2.204,10.449 2.628,10.218 3.084 C 9.906 3.700,9.941 4.527,10.302 5.059 C 10.356 5.138,10.400 5.226,10.400 5.253 C 10.400 5.280,10.245 5.688,10.056 6.161 C 9.866 6.633,9.694 7.064,9.674 7.118 C 9.638 7.211,9.596 7.175,8.782 6.362 C 7.943 5.524,7.929 5.507,7.964 5.385 C 8.018 5.199,8.006 4.812,7.940 4.529 C 7.858 4.182,7.720 3.927,7.465 3.653 C 6.659 2.786,5.341 2.786,4.535 3.653 C 3.954 4.278,3.835 5.157,4.225 5.931 C 4.364 6.206,4.841 6.673,5.111 6.797 C 5.245 6.859,5.329 6.925,5.341 6.977 C 5.351 7.023,5.694 8.905,6.103 11.160 C 6.511 13.415,6.855 15.299,6.866 15.346 C 6.884 15.422,6.824 15.464,6.359 15.703 C 5.724 16.030,5.446 16.279,5.229 16.714 C 5.007 17.157,4.995 17.273,5.008 18.866 L 5.020 20.300 5.131 20.489 C 5.256 20.702,5.449 20.864,5.670 20.943 C 5.892 21.022,18.108 21.022,18.330 20.943 C 18.551 20.864,18.744 20.702,18.869 20.489 L 18.980 20.300 18.992 18.866 C 19.005 17.273,18.993 17.157,18.771 16.714 C 18.554 16.279,18.276 16.030,17.641 15.703 C 17.176 15.464,17.116 15.422,17.134 15.346 C 17.145 15.299,17.489 13.415,17.897 11.160 C 18.306 8.905,18.649 7.023,18.659 6.977 C 18.671 6.925,18.755 6.859,18.889 6.797 C 19.156 6.674,19.636 6.207,19.772 5.937 C 19.994 5.497,20.052 5.007,19.940 4.529 C 19.858 4.182,19.720 3.927,19.465 3.653 C 18.659 2.786,17.341 2.786,16.535 3.653 C 16.131 4.088,15.975 4.538,16.013 5.162 L 16.036 5.545 15.200 6.380 C 14.403 7.176,14.362 7.211,14.326 7.118 C 14.306 7.064,14.134 6.633,13.944 6.161 C 13.599 5.299,13.565 5.186,13.641 5.140 C 13.789 5.048,14.000 4.384,13.999 4.014 C 13.998 3.492,13.818 3.033,13.465 2.653 C 13.074 2.232,12.560 2.005,12.000 2.005 C 11.857 2.005,11.622 2.036,11.477 2.073 M12.573 8.130 C 12.874 8.883,13.167 9.559,13.223 9.630 C 13.280 9.702,13.410 9.810,13.513 9.870 C 13.673 9.964,13.744 9.980,14.000 9.979 C 14.213 9.979,14.341 9.957,14.440 9.905 C 14.517 9.864,15.000 9.414,15.513 8.905 C 16.161 8.262,16.438 8.010,16.423 8.080 C 16.410 8.135,16.130 9.674,15.800 11.500 C 15.470 13.326,15.190 14.861,15.179 14.910 L 15.158 15.000 12.000 15.000 L 8.842 15.000 8.821 14.910 C 8.810 14.861,8.530 13.326,8.200 11.500 C 7.870 9.674,7.590 8.135,7.577 8.080 C 7.561 8.011,7.847 8.270,8.507 8.924 C 9.333 9.742,9.486 9.877,9.657 9.934 C 10.045 10.064,10.423 9.980,10.700 9.702 C 10.848 9.554,10.925 9.389,11.420 8.148 C 11.726 7.385,11.986 6.760,12.000 6.760 C 12.014 6.760,12.271 7.377,12.573 8.130 M16.380 17.309 L 17.000 17.619 17.000 18.309 L 17.000 19.000 12.000 19.000 L 7.000 19.000 7.000 18.309 L 7.000 17.619 7.610 17.312 L 8.220 17.005 11.990 17.002 L 15.759 17.000 16.380 17.309 " stroke="none" fill-rule="evenodd" fill="black"></path></svg>