<svg xmlns="http://www.w3.org/2000/svg" width="24" height="24" viewBox="0 0 24 24" fill="none" stroke="currentColor" stroke-width="2" stroke-linecap="round" stroke-linejoin="round"><path d="M10.660 6.066 C 10.474 6.122,10.279 6.307,7.847 8.733 C 6.371 10.206,5.188 11.418,5.127 11.520 C 5.036 11.673,5.020 11.745,5.021 12.000 C 5.021 12.212,5.043 12.341,5.095 12.440 C 5.192 12.625,10.292 17.737,10.508 17.865 C 10.967 18.139,11.587 17.968,11.867 17.492 C 11.964 17.327,11.980 17.258,11.979 17.000 C 11.979 16.788,11.957 16.659,11.905 16.560 C 11.865 16.483,10.839 15.425,9.626 14.210 L 7.421 12.000 9.626 9.790 C 10.839 8.574,11.865 7.517,11.905 7.440 C 11.957 7.341,11.979 7.212,11.979 7.000 C 11.980 6.745,11.964 6.672,11.872 6.516 C 11.740 6.293,11.533 6.128,11.290 6.055 C 11.062 5.986,10.915 5.989,10.660 6.066 M16.660 6.066 C 16.474 6.122,16.279 6.307,13.847 8.733 C 12.371 10.206,11.188 11.418,11.127 11.520 C 11.036 11.673,11.020 11.745,11.021 12.000 C 11.021 12.212,11.043 12.341,11.095 12.440 C 11.192 12.625,16.292 17.737,16.508 17.865 C 16.967 18.139,17.587 17.968,17.867 17.492 C 17.964 17.327,17.980 17.258,17.979 17.000 C 17.979 16.788,17.957 16.659,17.905 16.560 C 17.865 16.483,16.839 15.425,15.626 14.210 L 13.421 12.000 15.626 9.790 C 16.839 8.574,17.865 7.517,17.905 7.440 C 17.957 7.341,17.979 7.212,17.979 7.000 C 17.980 6.745,17.964 6.672,17.872 6.516 C 17.740 6.293,17.533 6.128,17.290 6.055 C 17.062 5.986,16.915 5.989,16.660 6.066 " stroke="none" fill-rule="evenodd" fill="black"></path></svg>