<svg xmlns="http://www.w3.org/2000/svg" width="24" height="24" viewBox="0 0 24 24" fill="none" stroke="currentColor" stroke-width="2" stroke-linecap="round" stroke-linejoin="round"><path d="M6.695 6.057 C 6.466 6.129,6.256 6.299,6.128 6.516 L 6.020 6.700 6.020 11.003 L 6.020 15.306 6.141 15.503 C 6.543 16.156,7.457 16.156,7.859 15.503 L 7.980 15.306 7.991 11.653 L 8.002 8.000 11.591 7.998 C 14.484 7.997,15.209 7.986,15.330 7.943 C 15.551 7.864,15.744 7.702,15.869 7.489 C 15.964 7.328,15.980 7.256,15.980 7.000 C 15.980 6.746,15.963 6.672,15.872 6.516 C 15.740 6.293,15.533 6.128,15.290 6.055 C 15.029 5.976,6.946 5.979,6.695 6.057 M10.695 10.057 C 10.466 10.129,10.256 10.299,10.128 10.516 L 10.020 10.700 10.020 15.003 L 10.020 19.306 10.141 19.503 C 10.543 20.156,11.457 20.156,11.859 19.503 L 11.980 19.306 11.991 15.653 L 12.002 12.000 15.591 11.998 C 18.484 11.997,19.209 11.986,19.330 11.943 C 19.551 11.864,19.744 11.702,19.869 11.489 C 19.964 11.328,19.980 11.256,19.980 11.000 C 19.980 10.746,19.963 10.672,19.872 10.516 C 19.740 10.293,19.533 10.128,19.290 10.055 C 19.029 9.976,10.946 9.979,10.695 10.057 " stroke="none" fill-rule="evenodd" fill="black"></path></svg>