<svg xmlns="http://www.w3.org/2000/svg" width="24" height="24" viewBox="0 0 24 24" fill="none" stroke="currentColor" stroke-width="2" stroke-linecap="round" stroke-linejoin="round"><path d="M6.695 6.057 C 6.466 6.129,6.256 6.299,6.128 6.516 C 6.036 6.672,6.020 6.745,6.021 7.000 C 6.021 7.212,6.043 7.341,6.095 7.440 C 6.135 7.517,7.161 8.574,8.374 9.790 L 10.579 12.000 8.374 14.210 C 7.161 15.425,6.135 16.483,6.095 16.560 C 6.043 16.659,6.021 16.788,6.021 17.000 C 6.020 17.258,6.036 17.327,6.133 17.492 C 6.413 17.968,7.033 18.139,7.492 17.865 C 7.708 17.737,12.808 12.625,12.905 12.440 C 12.957 12.341,12.979 12.212,12.979 12.000 C 12.980 11.745,12.964 11.673,12.873 11.520 C 12.812 11.418,11.630 10.207,10.153 8.734 C 7.627 6.214,7.533 6.125,7.323 6.064 C 7.066 5.988,6.919 5.987,6.695 6.057 M12.695 6.057 C 12.466 6.129,12.256 6.299,12.128 6.516 C 12.036 6.672,12.020 6.745,12.021 7.000 C 12.021 7.212,12.043 7.341,12.095 7.440 C 12.135 7.517,13.161 8.574,14.374 9.790 L 16.579 12.000 14.374 14.210 C 13.161 15.425,12.135 16.483,12.095 16.560 C 12.043 16.659,12.021 16.788,12.021 17.000 C 12.020 17.258,12.036 17.327,12.133 17.492 C 12.413 17.968,13.033 18.139,13.492 17.865 C 13.708 17.737,18.808 12.625,18.905 12.440 C 18.957 12.341,18.979 12.212,18.979 12.000 C 18.980 11.745,18.964 11.673,18.873 11.520 C 18.812 11.418,17.630 10.207,16.153 8.734 C 13.627 6.214,13.533 6.125,13.323 6.064 C 13.066 5.988,12.919 5.987,12.695 6.057 " stroke="none" fill-rule="evenodd" fill="black"></path></svg>