<svg xmlns="http://www.w3.org/2000/svg" width="24" height="24" viewBox="0 0 24 24" fill="none" stroke="currentColor" stroke-width="2" stroke-linecap="round" stroke-linejoin="round"><path d="M16.695 4.057 C 16.466 4.129,16.256 4.299,16.128 4.516 L 16.020 4.700 16.020 11.503 L 16.020 18.306 16.141 18.503 C 16.543 19.156,17.457 19.156,17.859 18.503 L 17.980 18.306 17.980 11.503 L 17.980 4.700 17.872 4.516 C 17.628 4.101,17.150 3.915,16.695 4.057 M5.670 5.061 C 5.448 5.142,5.250 5.309,5.128 5.516 C 5.036 5.672,5.020 5.745,5.021 6.000 C 5.021 6.212,5.043 6.341,5.095 6.440 C 5.135 6.517,6.386 7.800,7.874 9.290 L 10.579 12.000 7.874 14.710 C 6.386 16.200,5.135 17.483,5.095 17.560 C 5.043 17.659,5.021 17.788,5.021 18.000 C 5.020 18.258,5.036 18.327,5.133 18.492 C 5.263 18.714,5.502 18.901,5.736 18.965 C 5.938 19.019,6.266 18.989,6.445 18.899 C 6.630 18.807,12.737 12.707,12.873 12.480 C 12.964 12.328,12.980 12.254,12.980 12.000 C 12.980 11.746,12.964 11.672,12.873 11.520 C 12.812 11.417,11.431 10.008,9.653 8.235 C 6.817 5.407,6.522 5.125,6.343 5.065 C 6.107 4.987,5.874 4.986,5.670 5.061 " stroke="none" fill-rule="evenodd" fill="black"></path></svg>