<svg xmlns="http://www.w3.org/2000/svg" width="24" height="24" viewBox="0 0 24 24" fill="none" stroke="currentColor" stroke-width="2" stroke-linecap="round" stroke-linejoin="round"><path d="M6.695 6.057 C 6.466 6.129,6.256 6.299,6.128 6.516 C 6.037 6.672,6.020 6.746,6.020 7.000 C 6.020 7.254,6.036 7.328,6.127 7.480 C 6.262 7.706,11.368 12.805,11.560 12.905 C 11.660 12.957,11.787 12.978,12.000 12.978 C 12.213 12.978,12.340 12.957,12.440 12.905 C 12.632 12.805,17.738 7.706,17.873 7.480 C 17.964 7.328,17.980 7.254,17.980 7.000 C 17.980 6.746,17.963 6.672,17.872 6.516 C 17.740 6.293,17.533 6.128,17.290 6.055 C 17.055 5.984,16.943 5.986,16.677 6.064 C 16.468 6.125,16.378 6.209,14.230 8.353 L 12.000 10.578 9.770 8.353 C 7.622 6.209,7.532 6.125,7.323 6.064 C 7.066 5.988,6.919 5.987,6.695 6.057 M6.670 12.061 C 6.448 12.142,6.250 12.309,6.128 12.516 C 6.037 12.672,6.020 12.746,6.020 13.000 C 6.020 13.254,6.036 13.328,6.127 13.480 C 6.262 13.706,11.368 18.805,11.560 18.905 C 11.660 18.957,11.787 18.978,12.000 18.978 C 12.213 18.978,12.340 18.957,12.440 18.905 C 12.632 18.805,17.738 13.706,17.873 13.480 C 17.964 13.328,17.980 13.254,17.980 13.000 C 17.980 12.746,17.963 12.672,17.872 12.516 C 17.618 12.084,17.138 11.906,16.657 12.065 C 16.479 12.124,16.244 12.346,14.230 14.354 L 12.000 16.578 9.770 14.354 C 7.756 12.346,7.521 12.124,7.343 12.065 C 7.107 11.987,6.874 11.986,6.670 12.061 " stroke="none" fill-rule="evenodd" fill="black"></path></svg>