<svg xmlns="http://www.w3.org/2000/svg" width="24" height="24" viewBox="0 0 24 24" fill="none" stroke="currentColor" stroke-width="2" stroke-linecap="round" stroke-linejoin="round"><path d="M10.643 3.066 C 10.256 3.208,9.969 3.665,10.009 4.074 C 10.020 4.184,10.620 5.840,11.478 8.130 L 12.930 12.000 11.478 15.870 C 10.620 18.160,10.020 19.816,10.009 19.926 C 9.951 20.514,10.489 21.048,11.083 20.991 C 11.344 20.966,11.633 20.811,11.780 20.617 C 11.864 20.506,12.361 19.233,13.440 16.359 C 14.887 12.504,14.979 12.244,14.979 12.000 C 14.979 11.756,14.887 11.496,13.440 7.641 C 12.353 4.746,11.865 3.495,11.780 3.385 C 11.537 3.069,11.026 2.926,10.643 3.066 " stroke="none" fill-rule="evenodd" fill="black"></path></svg>