<svg xmlns="http://www.w3.org/2000/svg" width="24" height="24" viewBox="0 0 24 24" fill="none" stroke="currentColor" stroke-width="2" stroke-linecap="round" stroke-linejoin="round"><path d="M7.695 7.057 C 7.466 7.129,7.256 7.299,7.128 7.516 L 7.020 7.700 7.020 12.003 L 7.020 16.306 7.141 16.503 C 7.543 17.156,8.457 17.156,8.859 16.503 L 8.980 16.306 8.991 12.653 L 9.002 9.000 12.591 8.998 C 15.484 8.997,16.209 8.986,16.330 8.943 C 16.551 8.864,16.744 8.702,16.869 8.489 C 16.964 8.328,16.980 8.256,16.980 8.000 C 16.980 7.746,16.963 7.672,16.872 7.516 C 16.740 7.293,16.533 7.128,16.290 7.055 C 16.029 6.976,7.946 6.979,7.695 7.057 " stroke="none" fill-rule="evenodd" fill="black"></path></svg>