<svg xmlns="http://www.w3.org/2000/svg" width="24" height="24" viewBox="0 0 24 24" fill="none" stroke="currentColor" stroke-width="2" stroke-linecap="round" stroke-linejoin="round"><path d="M7.695 7.057 C 7.466 7.129,7.256 7.299,7.128 7.516 C 7.037 7.672,7.020 7.746,7.020 8.000 C 7.020 8.256,7.036 8.328,7.131 8.489 C 7.256 8.702,7.449 8.864,7.670 8.943 C 7.791 8.986,8.516 8.997,11.409 8.998 L 14.998 9.000 15.009 12.653 L 15.020 16.306 15.141 16.503 C 15.543 17.156,16.457 17.156,16.859 16.503 L 16.980 16.306 16.980 12.003 L 16.980 7.700 16.872 7.516 C 16.740 7.293,16.533 7.128,16.290 7.055 C 16.029 6.976,7.946 6.979,7.695 7.057 " stroke="none" fill-rule="evenodd" fill="black"></path></svg>