<svg xmlns="http://www.w3.org/2000/svg" width="24" height="24" viewBox="0 0 24 24" fill="none" stroke="currentColor" stroke-width="2" stroke-linecap="round" stroke-linejoin="round"><path d="M12.726 3.046 C 12.516 3.106,12.290 3.266,12.183 3.430 C 12.129 3.513,11.396 5.416,10.553 7.660 C 9.112 11.497,9.021 11.756,9.021 12.000 C 9.021 12.244,9.113 12.505,10.560 16.359 C 11.639 19.233,12.136 20.506,12.220 20.617 C 12.367 20.811,12.656 20.966,12.917 20.991 C 13.511 21.048,14.049 20.514,13.991 19.926 C 13.980 19.816,13.380 18.160,12.522 15.870 L 11.070 12.000 12.522 8.130 C 13.380 5.840,13.980 4.184,13.991 4.074 C 14.057 3.403,13.385 2.856,12.726 3.046 " stroke="none" fill-rule="evenodd" fill="black"></path></svg>