<svg xmlns="http://www.w3.org/2000/svg" width="24" height="24" viewBox="0 0 24 24" fill="none" stroke="currentColor" stroke-width="2" stroke-linecap="round" stroke-linejoin="round"><path d="M3.726 10.046 C 3.272 10.177,2.965 10.621,3.009 11.084 C 3.034 11.344,3.189 11.633,3.383 11.780 C 3.494 11.864,4.767 12.361,7.641 13.440 C 11.496 14.887,11.756 14.979,12.000 14.979 C 12.244 14.979,12.504 14.887,16.359 13.440 C 19.233 12.361,20.506 11.864,20.617 11.780 C 20.930 11.542,21.071 11.074,20.944 10.693 C 20.816 10.307,20.494 10.056,20.067 10.012 C 19.863 9.991,19.696 10.050,15.927 11.462 L 12.000 12.934 8.086 11.467 C 4.060 9.958,4.046 9.954,3.726 10.046 " stroke="none" fill-rule="evenodd" fill="black"></path></svg>