<svg xmlns="http://www.w3.org/2000/svg" width="24" height="24" viewBox="0 0 24 24" fill="none" stroke="currentColor" stroke-width="2" stroke-linecap="round" stroke-linejoin="round"><path d="M8.695 6.057 C 8.466 6.129,8.256 6.299,8.128 6.516 C 8.037 6.672,8.020 6.746,8.020 7.000 C 8.020 7.256,8.036 7.328,8.131 7.489 C 8.256 7.702,8.449 7.864,8.670 7.943 C 8.791 7.986,9.516 7.997,12.409 7.998 L 15.998 8.000 16.009 11.653 L 16.020 15.306 16.141 15.503 C 16.543 16.156,17.457 16.156,17.859 15.503 L 17.980 15.306 17.980 11.003 L 17.980 6.700 17.872 6.516 C 17.740 6.293,17.533 6.128,17.290 6.055 C 17.029 5.976,8.946 5.979,8.695 6.057 M4.695 10.057 C 4.466 10.129,4.256 10.299,4.128 10.516 C 4.037 10.672,4.020 10.746,4.020 11.000 C 4.020 11.256,4.036 11.328,4.131 11.489 C 4.256 11.702,4.449 11.864,4.670 11.943 C 4.791 11.986,5.516 11.997,8.409 11.998 L 11.998 12.000 12.009 15.653 L 12.020 19.306 12.141 19.503 C 12.543 20.156,13.457 20.156,13.859 19.503 L 13.980 19.306 13.980 15.003 L 13.980 10.700 13.872 10.516 C 13.740 10.293,13.533 10.128,13.290 10.055 C 13.029 9.976,4.946 9.979,4.695 10.057 " stroke="none" fill-rule="evenodd" fill="black"></path></svg>