<svg xmlns="http://www.w3.org/2000/svg" width="24" height="24" viewBox="0 0 24 24" fill="none" stroke="currentColor" stroke-width="2" stroke-linecap="round" stroke-linejoin="round"><path d="M11.640 5.068 C 11.485 5.121,11.093 5.495,8.847 7.735 C 7.368 9.209,6.188 10.418,6.127 10.520 C 6.036 10.672,6.020 10.746,6.020 11.000 C 6.020 11.257,6.036 11.327,6.133 11.492 C 6.263 11.714,6.502 11.901,6.736 11.965 C 6.939 12.019,7.267 11.989,7.445 11.899 C 7.519 11.862,8.575 10.839,9.790 9.626 L 12.000 7.421 14.210 9.626 C 15.425 10.839,16.483 11.865,16.560 11.905 C 16.659 11.957,16.788 11.979,17.000 11.979 C 17.258 11.980,17.327 11.964,17.492 11.867 C 17.968 11.587,18.138 10.968,17.866 10.508 C 17.811 10.416,16.590 9.168,15.153 7.735 C 12.783 5.372,12.522 5.124,12.343 5.065 C 12.102 4.986,11.878 4.986,11.640 5.068 M11.660 11.066 C 11.474 11.122,11.279 11.307,8.847 13.733 C 7.371 15.206,6.188 16.418,6.127 16.520 C 6.036 16.672,6.020 16.746,6.020 17.000 C 6.020 17.257,6.036 17.327,6.133 17.492 C 6.263 17.714,6.502 17.901,6.736 17.965 C 6.939 18.019,7.267 17.989,7.445 17.899 C 7.519 17.862,8.575 16.839,9.790 15.626 L 12.000 13.421 14.210 15.626 C 15.425 16.839,16.483 17.865,16.560 17.905 C 16.659 17.957,16.788 17.979,17.000 17.979 C 17.258 17.980,17.327 17.964,17.492 17.867 C 17.968 17.587,18.138 16.968,17.866 16.508 C 17.811 16.416,16.590 15.167,15.153 13.734 C 12.627 11.214,12.533 11.125,12.323 11.064 C 12.059 10.986,11.922 10.987,11.660 11.066 " stroke="none" fill-rule="evenodd" fill="black"></path></svg>