<svg xmlns="http://www.w3.org/2000/svg" width="24" height="24" viewBox="0 0 24 24" fill="none" stroke="currentColor" stroke-width="2" stroke-linecap="round" stroke-linejoin="round"><path d="M12.695 4.057 C 12.466 4.129,12.256 4.299,12.128 4.516 L 12.020 4.700 12.009 8.350 L 11.998 12.000 8.446 12.000 C 4.590 12.000,4.678 11.995,4.382 12.221 C 4.302 12.282,4.187 12.415,4.128 12.516 C 4.037 12.672,4.020 12.746,4.020 13.000 C 4.020 13.256,4.036 13.328,4.131 13.489 C 4.256 13.702,4.449 13.864,4.670 13.943 C 4.892 14.022,13.108 14.022,13.330 13.943 C 13.551 13.864,13.744 13.702,13.869 13.489 L 13.980 13.300 13.980 9.000 L 13.980 4.700 13.872 4.516 C 13.628 4.101,13.150 3.915,12.695 4.057 M16.695 8.057 C 16.466 8.129,16.256 8.299,16.128 8.516 L 16.020 8.700 16.009 12.350 L 15.998 16.000 12.446 16.000 C 8.590 16.000,8.678 15.995,8.382 16.221 C 8.302 16.282,8.187 16.415,8.128 16.516 C 8.037 16.672,8.020 16.746,8.020 17.000 C 8.020 17.256,8.036 17.328,8.131 17.489 C 8.256 17.702,8.449 17.864,8.670 17.943 C 8.892 18.022,17.108 18.022,17.330 17.943 C 17.551 17.864,17.744 17.702,17.869 17.489 L 17.980 17.300 17.980 13.000 L 17.980 8.700 17.872 8.516 C 17.628 8.101,17.150 7.915,16.695 8.057 " stroke="none" fill-rule="evenodd" fill="black"></path></svg>