<svg xmlns="http://www.w3.org/2000/svg" width="24" height="24" viewBox="0 0 24 24" fill="none" stroke="currentColor" stroke-width="2" stroke-linecap="round" stroke-linejoin="round"><path d="M2.670 2.061 C 2.448 2.142,2.250 2.309,2.128 2.516 C 2.036 2.672,2.020 2.745,2.021 3.000 C 2.021 3.212,2.043 3.341,2.095 3.440 C 2.135 3.517,3.386 4.799,4.873 6.290 L 7.579 9.000 6.374 10.210 C 5.711 10.875,5.136 11.483,5.096 11.560 C 4.981 11.781,4.993 12.210,5.122 12.460 C 5.283 12.773,5.455 12.874,6.303 13.158 C 6.719 13.298,7.075 13.420,7.094 13.431 C 7.112 13.441,6.453 14.127,5.629 14.955 C 4.237 16.353,4.126 16.475,4.060 16.675 C 3.888 17.204,4.155 17.759,4.670 17.943 C 4.788 17.985,5.269 17.997,6.910 17.998 L 9.000 18.000 9.000 19.132 C 9.000 20.358,9.021 20.528,9.225 20.930 C 9.361 21.199,9.801 21.639,10.070 21.775 C 10.479 21.982,10.632 22.000,12.000 22.000 C 13.368 22.000,13.521 21.982,13.930 21.775 C 14.196 21.640,14.638 21.200,14.771 20.937 C 14.976 20.533,15.000 20.342,15.000 19.124 L 15.000 18.000 15.790 18.000 L 16.580 18.000 18.460 19.883 C 19.494 20.918,20.421 21.813,20.520 21.873 C 20.673 21.964,20.746 21.980,21.000 21.980 C 21.257 21.980,21.327 21.964,21.492 21.867 C 21.968 21.587,22.139 20.967,21.865 20.508 C 21.810 20.416,17.665 16.243,12.653 11.235 C 4.231 2.820,3.525 2.125,3.343 2.065 C 3.107 1.987,2.874 1.986,2.670 2.061 M11.640 2.069 C 11.490 2.121,11.240 2.350,10.126 3.456 C 9.393 4.184,8.743 4.852,8.682 4.940 C 8.280 5.519,8.618 6.347,9.305 6.469 C 9.549 6.512,9.855 6.462,10.017 6.352 C 10.085 6.306,10.559 5.853,11.070 5.345 L 12.000 4.421 13.140 5.560 C 13.767 6.187,14.280 6.709,14.280 6.721 C 14.280 6.733,14.096 6.832,13.871 6.942 C 13.391 7.174,13.162 7.379,13.066 7.660 C 12.983 7.905,12.982 8.093,13.065 8.343 C 13.124 8.518,13.296 8.706,14.635 10.055 C 15.463 10.888,16.119 11.577,16.093 11.587 C 15.831 11.685,15.563 12.041,15.503 12.372 C 15.436 12.742,15.703 13.222,16.069 13.389 C 16.424 13.552,16.575 13.533,17.570 13.202 C 18.525 12.883,18.690 12.793,18.867 12.492 C 18.964 12.327,18.980 12.258,18.979 12.000 C 18.979 11.788,18.957 11.659,18.905 11.560 C 18.865 11.483,18.127 10.711,17.266 9.845 C 16.405 8.979,15.718 8.263,15.740 8.254 C 15.762 8.245,15.977 8.135,16.218 8.009 C 16.700 7.757,16.879 7.579,16.963 7.268 C 17.027 7.034,16.985 6.709,16.866 6.508 C 16.811 6.416,15.815 5.393,14.653 4.235 C 12.748 2.338,12.521 2.124,12.343 2.065 C 12.102 1.985,11.877 1.986,11.640 2.069 M11.800 13.220 L 14.580 16.000 11.001 16.000 L 7.422 16.000 8.626 14.790 C 9.289 14.125,9.864 13.517,9.905 13.440 C 9.957 13.341,9.979 13.213,9.979 13.000 C 9.980 12.742,9.964 12.673,9.867 12.508 C 9.696 12.217,9.522 12.118,8.692 11.840 C 8.279 11.702,7.925 11.580,7.906 11.569 C 7.874 11.552,8.951 10.440,9.000 10.440 C 9.011 10.440,10.271 11.691,11.800 13.220 M13.000 19.000 L 13.000 20.000 12.000 20.000 L 11.000 20.000 11.000 19.000 L 11.000 18.000 12.000 18.000 L 13.000 18.000 13.000 19.000 " stroke="none" fill-rule="evenodd" fill="black"></path></svg>