<svg xmlns="http://www.w3.org/2000/svg" width="24" height="24" viewBox="0 0 24 24" fill="none" stroke="currentColor" stroke-width="2" stroke-linecap="round" stroke-linejoin="round"><path d="M11.643 2.069 C 11.332 2.179,11.178 2.385,10.721 3.311 L 10.302 4.158 10.001 4.224 C 9.126 4.414,7.888 4.936,7.120 5.440 C 5.724 6.356,4.673 7.539,3.939 9.020 C 2.867 11.182,2.708 13.724,3.504 15.980 C 3.692 16.510,4.179 17.495,4.468 17.927 C 5.613 19.640,7.273 20.916,9.160 21.535 C 11.434 22.281,13.819 22.122,15.940 21.084 C 18.718 19.723,20.580 17.088,20.941 14.008 C 21.380 10.254,19.359 6.582,15.940 4.918 C 15.362 4.637,14.527 4.338,13.999 4.224 L 13.698 4.158 13.279 3.311 C 12.801 2.343,12.664 2.166,12.316 2.063 C 12.057 1.986,11.874 1.987,11.643 2.069 M13.102 6.098 C 15.301 6.430,17.239 7.854,18.265 9.889 C 18.400 10.158,18.720 10.969,18.720 11.044 C 18.720 11.062,18.554 11.130,18.350 11.195 C 16.973 11.635,15.693 11.593,14.260 11.061 C 13.755 10.874,13.277 10.621,12.438 10.099 C 10.978 9.192,9.901 8.767,8.575 8.577 C 8.127 8.513,6.841 8.489,6.674 8.542 C 6.555 8.580,6.935 8.144,7.309 7.815 C 8.050 7.162,8.757 6.738,9.620 6.427 C 10.250 6.200,10.715 6.102,11.540 6.023 C 11.813 5.997,12.726 6.041,13.102 6.098 M8.690 10.636 C 9.578 10.818,10.403 11.181,11.525 11.884 C 13.974 13.419,16.118 13.836,18.490 13.238 C 18.748 13.173,18.969 13.120,18.981 13.120 C 19.033 13.120,18.899 14.230,18.795 14.660 C 18.697 15.062,18.431 15.797,18.289 16.060 L 18.180 16.260 17.780 16.356 C 17.429 16.439,17.277 16.452,16.540 16.456 C 15.589 16.461,15.365 16.427,14.540 16.153 C 13.922 15.948,13.299 15.636,12.453 15.109 C 11.120 14.279,10.139 13.866,8.971 13.640 C 7.851 13.424,6.466 13.479,5.426 13.782 C 5.225 13.840,5.086 13.862,5.063 13.839 C 5.008 13.784,5.017 12.350,5.074 12.000 C 5.150 11.539,5.285 10.985,5.335 10.932 C 5.400 10.863,6.158 10.654,6.600 10.583 C 7.119 10.500,8.157 10.527,8.690 10.636 M8.680 15.634 C 9.557 15.815,10.414 16.186,11.428 16.823 C 12.122 17.259,12.551 17.498,13.060 17.729 C 13.939 18.128,15.056 18.423,15.868 18.469 C 16.095 18.482,16.279 18.503,16.278 18.516 C 16.276 18.551,15.974 18.768,15.667 18.956 C 14.866 19.446,13.981 19.770,13.020 19.926 C 12.844 19.954,12.385 19.977,12.000 19.977 C 11.264 19.977,10.908 19.936,10.275 19.777 C 8.329 19.291,6.657 17.941,5.738 16.117 C 5.659 15.960,5.602 15.824,5.612 15.815 C 5.647 15.779,6.411 15.602,6.688 15.564 C 7.139 15.504,8.233 15.542,8.680 15.634 " stroke="none" fill-rule="evenodd" fill="black"></path></svg>