<svg xmlns="http://www.w3.org/2000/svg" width="24" height="24" viewBox="0 0 24 24" fill="none" stroke="currentColor" stroke-width="2" stroke-linecap="round" stroke-linejoin="round"><path d="M14.682 4.050 C 14.606 4.075,12.950 5.266,11.002 6.696 C 8.894 8.243,7.428 9.294,7.380 9.292 C 7.336 9.289,7.173 9.241,7.017 9.185 C 6.019 8.825,4.870 9.025,4.089 9.695 C 3.754 9.982,3.491 10.313,3.312 10.670 L 3.147 11.000 2.520 11.000 C 1.641 11.000,1.373 11.099,1.128 11.516 C 1.037 11.672,1.020 11.746,1.020 12.000 C 1.020 12.256,1.036 12.328,1.131 12.489 C 1.192 12.592,1.304 12.725,1.381 12.783 C 1.623 12.968,1.768 12.996,2.483 12.998 L 3.147 13.000 3.312 13.330 C 3.682 14.068,4.354 14.635,5.160 14.886 C 5.418 14.967,5.539 14.980,6.020 14.977 C 6.508 14.974,6.620 14.961,6.887 14.872 C 7.852 14.552,8.584 13.808,8.886 12.840 C 8.967 12.582,8.980 12.461,8.977 11.980 C 8.974 11.493,8.961 11.380,8.873 11.114 L 8.771 10.809 12.254 8.254 C 16.079 5.450,15.940 5.566,15.987 5.110 C 16.047 4.533,15.639 4.048,15.068 4.017 C 14.932 4.009,14.758 4.024,14.682 4.050 M17.499 9.040 C 16.363 9.246,15.460 10.049,15.114 11.160 C 14.979 11.594,14.979 12.406,15.114 12.840 C 15.421 13.826,16.174 14.579,17.160 14.886 C 17.594 15.021,18.406 15.021,18.840 14.886 C 19.645 14.635,20.318 14.069,20.688 13.330 L 20.853 13.000 21.517 12.998 C 22.232 12.996,22.377 12.968,22.619 12.783 C 22.696 12.725,22.808 12.592,22.869 12.489 C 22.964 12.328,22.980 12.256,22.980 12.000 C 22.980 11.746,22.963 11.672,22.872 11.516 C 22.627 11.099,22.359 11.000,21.480 11.000 L 20.853 11.000 20.688 10.670 C 20.320 9.935,19.631 9.354,18.861 9.129 C 18.500 9.023,17.832 8.980,17.499 9.040 M6.310 11.061 C 6.688 11.173,7.000 11.598,7.000 12.001 C 7.000 12.331,6.784 12.696,6.484 12.872 C 6.328 12.963,6.254 12.980,6.000 12.980 C 5.746 12.980,5.672 12.963,5.516 12.872 C 4.935 12.530,4.833 11.774,5.304 11.303 C 5.583 11.024,5.916 10.944,6.310 11.061 M18.310 11.061 C 18.688 11.173,19.000 11.598,19.000 12.001 C 19.000 12.331,18.784 12.696,18.484 12.872 C 18.328 12.963,18.254 12.980,18.000 12.980 C 17.746 12.980,17.672 12.963,17.516 12.872 C 16.935 12.530,16.833 11.774,17.304 11.303 C 17.583 11.024,17.916 10.944,18.310 11.061 " stroke="none" fill-rule="evenodd" fill="black"></path></svg>