<svg xmlns="http://www.w3.org/2000/svg" width="24" height="24" viewBox="0 0 24 24" fill="none" stroke="currentColor" stroke-width="2" stroke-linecap="round" stroke-linejoin="round"><path d="M11.080 2.045 C 9.507 2.184,7.883 2.751,6.540 3.630 C 5.905 4.045,5.499 4.378,4.919 4.958 C 2.953 6.926,1.919 9.544,2.013 12.320 C 2.084 14.439,2.752 16.328,4.033 18.040 C 4.430 18.570,5.305 19.464,5.800 19.847 C 7.242 20.961,8.787 21.624,10.600 21.907 C 11.247 22.008,12.753 22.008,13.400 21.907 C 15.638 21.557,17.504 20.620,19.062 19.062 C 20.620 17.504,21.557 15.638,21.907 13.400 C 22.008 12.753,22.008 11.247,21.907 10.600 C 21.624 8.786,20.959 7.238,19.847 5.800 C 19.510 5.365,18.639 4.494,18.200 4.154 C 16.133 2.555,13.646 1.818,11.080 2.045 M12.734 4.041 C 14.574 4.216,16.228 4.976,17.554 6.256 C 20.043 8.658,20.702 12.394,19.183 15.499 C 18.749 16.387,18.223 17.105,17.496 17.801 C 16.876 18.394,16.262 18.819,15.471 19.200 C 13.267 20.265,10.733 20.265,8.529 19.200 C 7.477 18.693,6.612 18.015,5.847 17.100 C 3.848 14.711,3.440 11.302,4.816 8.500 C 6.162 5.760,8.867 4.049,11.920 4.005 C 12.129 4.003,12.495 4.019,12.734 4.041 M8.695 7.055 C 8.464 7.130,8.255 7.300,8.128 7.516 L 8.020 7.700 8.020 12.003 L 8.020 16.306 8.141 16.503 C 8.543 17.156,9.457 17.156,9.859 16.503 L 9.980 16.306 9.991 13.966 L 10.002 11.626 10.601 12.623 C 10.958 13.219,11.257 13.671,11.343 13.748 C 11.700 14.062,12.236 14.075,12.626 13.778 C 12.711 13.713,12.972 13.320,13.368 12.659 L 13.980 11.639 14.000 13.973 L 14.020 16.306 14.141 16.503 C 14.543 17.156,15.457 17.156,15.859 16.503 L 15.980 16.306 15.991 12.086 C 16.003 7.327,16.021 7.628,15.698 7.304 C 15.514 7.121,15.245 7.000,15.020 7.000 C 14.786 7.000,14.486 7.117,14.327 7.272 C 14.234 7.361,13.757 8.116,13.120 9.180 C 12.542 10.148,12.050 10.963,12.028 10.991 C 12.000 11.028,11.696 10.553,10.916 9.251 C 10.326 8.266,9.781 7.393,9.704 7.311 C 9.463 7.055,9.030 6.945,8.695 7.055 " stroke="none" fill-rule="evenodd" fill="black"></path></svg>