<svg xmlns="http://www.w3.org/2000/svg" width="24" height="24" viewBox="0 0 24 24" fill="none" stroke="currentColor" stroke-width="2" stroke-linecap="round" stroke-linejoin="round"><path d="M11.320 2.023 C 11.243 2.033,11.009 2.059,10.800 2.082 C 9.492 2.224,8.038 2.724,6.827 3.447 C 5.934 3.980,4.857 4.926,4.192 5.760 C 3.072 7.166,2.404 8.714,2.094 10.620 C 1.995 11.233,1.994 12.756,2.092 13.380 C 2.346 14.978,2.891 16.383,3.740 17.624 C 5.218 19.783,7.432 21.257,10.000 21.793 C 10.702 21.940,11.093 21.978,11.900 21.979 C 12.781 21.980,12.910 21.956,13.145 21.750 C 13.459 21.474,13.577 21.095,13.466 20.716 C 13.385 20.438,13.213 20.234,12.952 20.104 C 12.755 20.006,12.711 20.000,12.122 20.000 C 10.758 19.999,9.630 19.744,8.484 19.177 C 6.124 18.010,4.549 15.882,4.091 13.240 C 4.045 12.972,4.025 12.618,4.024 12.040 C 4.023 11.141,4.071 10.750,4.280 9.940 C 4.987 7.198,7.201 4.986,9.947 4.278 C 11.506 3.876,13.041 3.919,14.498 4.406 C 16.621 5.115,18.289 6.599,19.252 8.638 C 19.763 9.720,19.999 10.861,20.000 12.257 C 20.000 12.862,20.053 13.019,20.341 13.273 C 20.734 13.619,21.291 13.601,21.670 13.230 C 21.949 12.957,21.980 12.823,21.978 11.920 C 21.975 11.116,21.931 10.657,21.794 10.000 C 20.926 5.861,17.642 2.751,13.473 2.119 C 12.966 2.042,11.654 1.984,11.320 2.023 M18.695 15.057 C 18.466 15.129,18.256 15.299,18.128 15.516 L 18.020 15.700 18.008 16.850 L 17.995 18.000 16.944 18.000 C 15.797 18.000,15.643 18.022,15.382 18.221 C 15.302 18.282,15.187 18.415,15.128 18.516 C 15.037 18.672,15.020 18.746,15.020 19.000 C 15.020 19.256,15.036 19.328,15.131 19.489 C 15.192 19.592,15.304 19.725,15.381 19.783 C 15.642 19.983,15.738 19.996,16.908 19.998 L 17.995 20.000 18.008 21.153 L 18.020 22.307 18.141 22.503 C 18.543 23.156,19.457 23.156,19.859 22.503 L 19.980 22.307 19.992 21.153 L 20.005 20.000 21.092 19.998 C 22.262 19.996,22.358 19.983,22.619 19.783 C 22.696 19.725,22.808 19.592,22.869 19.489 C 22.964 19.328,22.980 19.256,22.980 19.000 C 22.980 18.746,22.963 18.672,22.872 18.516 C 22.813 18.415,22.698 18.282,22.618 18.221 C 22.357 18.022,22.203 18.000,21.056 18.000 L 20.005 18.000 19.992 16.850 L 19.980 15.700 19.872 15.516 C 19.628 15.101,19.150 14.915,18.695 15.057 " stroke="none" fill-rule="evenodd" fill="black"></path></svg>