<svg xmlns="http://www.w3.org/2000/svg" width="24" height="24" viewBox="0 0 24 24" fill="none" stroke="currentColor" stroke-width="2" stroke-linecap="round" stroke-linejoin="round"><path d="M7.695 6.057 C 7.466 6.129,7.256 6.299,7.128 6.516 L 7.020 6.700 7.009 8.850 L 6.997 11.000 4.445 11.000 C 1.676 11.000,1.672 11.000,1.382 11.221 C 1.302 11.282,1.187 11.415,1.128 11.516 C 1.037 11.672,1.020 11.746,1.020 12.000 C 1.020 12.256,1.036 12.328,1.131 12.489 C 1.256 12.702,1.449 12.864,1.670 12.943 C 1.789 12.986,2.351 12.997,4.410 12.998 L 7.000 13.000 7.000 15.073 C 7.000 17.419,6.998 17.400,7.299 17.701 C 7.565 17.967,7.984 18.068,8.320 17.946 C 8.397 17.918,9.931 16.974,11.730 15.850 L 15.000 13.805 15.002 15.492 C 15.004 17.308,15.007 17.345,15.217 17.619 C 15.275 17.696,15.408 17.808,15.511 17.869 L 15.700 17.980 16.908 17.992 C 17.666 18.000,18.174 17.989,18.272 17.962 C 18.498 17.901,18.738 17.712,18.867 17.492 C 18.964 17.327,18.980 17.257,18.980 17.000 C 18.980 16.746,18.963 16.672,18.872 16.516 C 18.633 16.110,18.352 16.000,17.554 16.000 L 17.000 16.000 17.000 14.500 L 17.000 13.000 19.590 12.998 C 21.649 12.997,22.211 12.986,22.330 12.943 C 22.551 12.864,22.744 12.702,22.869 12.489 C 22.964 12.328,22.980 12.256,22.980 12.000 C 22.980 11.746,22.963 11.672,22.872 11.516 C 22.813 11.415,22.698 11.282,22.618 11.221 C 22.328 11.000,22.324 11.000,19.555 11.000 L 17.003 11.000 16.991 8.850 L 16.980 6.700 16.872 6.516 C 16.740 6.293,16.533 6.128,16.290 6.055 C 16.030 5.977,13.970 5.977,13.710 6.055 C 13.467 6.128,13.260 6.293,13.128 6.516 C 13.037 6.672,13.020 6.746,13.020 7.000 C 13.020 7.256,13.036 7.328,13.131 7.489 C 13.256 7.702,13.449 7.864,13.670 7.943 C 13.768 7.978,14.023 7.997,14.410 7.998 L 15.000 8.000 15.000 9.100 L 15.000 10.201 14.690 10.006 C 9.833 6.965,8.429 6.099,8.284 6.054 C 8.069 5.988,7.912 5.989,7.695 6.057 M14.070 12.009 C 14.064 12.025,13.034 12.679,11.780 13.462 C 10.526 14.246,9.388 14.957,9.250 15.044 L 9.000 15.201 9.000 12.003 L 9.000 8.805 11.540 10.392 C 12.937 11.266,14.075 11.993,14.070 12.009 " stroke="none" fill-rule="evenodd" fill="black"></path></svg>