<svg xmlns="http://www.w3.org/2000/svg" width="24" height="24" viewBox="0 0 24 24" fill="none" stroke="currentColor" stroke-width="2" stroke-linecap="round" stroke-linejoin="round"><path d="M11.080 2.045 C 9.507 2.184,7.883 2.751,6.540 3.630 C 5.905 4.045,5.499 4.378,4.919 4.958 C 2.953 6.926,1.919 9.544,2.013 12.320 C 2.084 14.439,2.752 16.328,4.033 18.040 C 4.430 18.570,5.305 19.464,5.800 19.847 C 7.242 20.961,8.787 21.624,10.600 21.907 C 11.247 22.008,12.753 22.008,13.400 21.907 C 15.638 21.557,17.504 20.620,19.062 19.062 C 20.620 17.504,21.557 15.638,21.907 13.400 C 22.008 12.753,22.008 11.247,21.907 10.600 C 21.624 8.786,20.959 7.238,19.847 5.800 C 19.510 5.365,18.639 4.494,18.200 4.154 C 16.133 2.555,13.646 1.818,11.080 2.045 M12.734 4.041 C 14.574 4.216,16.228 4.976,17.554 6.256 C 20.043 8.658,20.702 12.394,19.183 15.499 C 18.749 16.387,18.223 17.105,17.496 17.801 C 16.876 18.394,16.262 18.819,15.471 19.200 C 13.267 20.265,10.733 20.265,8.529 19.200 C 7.477 18.693,6.612 18.015,5.847 17.100 C 3.848 14.711,3.440 11.302,4.816 8.500 C 6.162 5.760,8.867 4.049,11.920 4.005 C 12.129 4.003,12.495 4.019,12.734 4.041 M11.640 7.068 C 11.486 7.121,11.148 7.441,9.326 9.255 C 7.001 11.569,7.001 11.569,7.001 12.000 C 7.001 12.429,7.004 12.433,9.306 14.726 C 10.469 15.884,11.483 16.865,11.560 16.905 C 11.659 16.957,11.788 16.979,12.000 16.979 C 12.258 16.980,12.327 16.964,12.492 16.867 C 12.714 16.737,12.901 16.498,12.965 16.264 C 13.019 16.061,12.989 15.733,12.899 15.555 C 12.862 15.481,12.289 14.876,11.626 14.210 L 10.422 13.000 13.301 12.998 C 15.601 12.997,16.210 12.986,16.330 12.943 C 16.551 12.864,16.744 12.702,16.869 12.489 C 16.964 12.328,16.980 12.256,16.980 12.000 C 16.980 11.746,16.963 11.672,16.872 11.516 C 16.813 11.415,16.698 11.282,16.618 11.221 C 16.326 10.998,16.349 11.000,13.265 11.000 L 10.422 11.000 11.626 9.790 C 12.289 9.125,12.864 8.517,12.905 8.440 C 12.957 8.341,12.979 8.213,12.979 8.000 C 12.980 7.745,12.964 7.672,12.872 7.516 C 12.617 7.083,12.121 6.903,11.640 7.068 " stroke="none" fill-rule="evenodd" fill="black"></path></svg>