<svg xmlns="http://www.w3.org/2000/svg" width="24" height="24" viewBox="0 0 24 24" fill="none" stroke="currentColor" stroke-width="2" stroke-linecap="round" stroke-linejoin="round"><path d="M11.080 2.045 C 9.507 2.184,7.883 2.751,6.540 3.630 C 5.905 4.045,5.499 4.378,4.919 4.958 C 2.953 6.926,1.919 9.544,2.013 12.320 C 2.084 14.439,2.752 16.328,4.033 18.040 C 4.430 18.570,5.305 19.464,5.800 19.847 C 7.242 20.961,8.787 21.624,10.600 21.907 C 11.247 22.008,12.753 22.008,13.400 21.907 C 15.638 21.557,17.504 20.620,19.062 19.062 C 20.620 17.504,21.557 15.638,21.907 13.400 C 22.008 12.753,22.008 11.247,21.907 10.600 C 21.624 8.786,20.959 7.238,19.847 5.800 C 19.510 5.365,18.639 4.494,18.200 4.154 C 16.133 2.555,13.646 1.818,11.080 2.045 M12.734 4.041 C 14.574 4.216,16.228 4.976,17.554 6.256 C 20.043 8.658,20.702 12.394,19.183 15.499 C 18.749 16.387,18.223 17.105,17.496 17.801 C 16.876 18.394,16.262 18.819,15.471 19.200 C 13.267 20.265,10.733 20.265,8.529 19.200 C 7.477 18.693,6.612 18.015,5.847 17.100 C 3.848 14.711,3.440 11.302,4.816 8.500 C 6.162 5.760,8.867 4.049,11.920 4.005 C 12.129 4.003,12.495 4.019,12.734 4.041 M14.600 8.163 C 14.461 8.225,13.713 8.950,11.327 11.332 C 9.626 13.030,8.190 14.496,8.135 14.588 C 7.912 14.962,7.982 15.456,8.302 15.776 C 8.588 16.062,8.949 16.145,9.343 16.015 C 9.523 15.956,9.814 15.676,12.706 12.785 C 15.718 9.773,15.874 9.610,15.941 9.405 C 16.208 8.576,15.383 7.811,14.600 8.163 M8.700 8.152 C 7.898 8.438,7.754 9.478,8.452 9.948 C 9.077 10.367,9.921 9.959,9.989 9.204 C 10.025 8.805,9.856 8.472,9.504 8.250 C 9.376 8.169,9.279 8.144,9.060 8.135 C 8.906 8.129,8.744 8.136,8.700 8.152 M14.695 14.177 C 14.142 14.350,13.852 14.981,14.081 15.513 C 14.351 16.141,15.143 16.327,15.649 15.881 C 16.244 15.358,16.042 14.401,15.290 14.175 C 15.068 14.108,14.913 14.109,14.695 14.177 " stroke="none" fill-rule="evenodd" fill="black"></path></svg>