<svg xmlns="http://www.w3.org/2000/svg" width="24" height="24" viewBox="0 0 24 24" fill="none" stroke="currentColor" stroke-width="2" stroke-linecap="round" stroke-linejoin="round"><path d="M11.080 2.045 C 9.507 2.184,7.883 2.751,6.540 3.630 C 5.905 4.045,5.499 4.378,4.919 4.958 C 2.953 6.926,1.919 9.544,2.013 12.320 C 2.084 14.439,2.752 16.328,4.033 18.040 C 4.430 18.570,5.305 19.464,5.800 19.847 C 7.242 20.961,8.787 21.624,10.600 21.907 C 11.247 22.008,12.753 22.008,13.400 21.907 C 15.638 21.557,17.504 20.620,19.062 19.062 C 20.620 17.504,21.557 15.638,21.907 13.400 C 22.008 12.753,22.008 11.247,21.907 10.600 C 21.624 8.786,20.959 7.238,19.847 5.800 C 19.510 5.365,18.639 4.494,18.200 4.154 C 16.133 2.555,13.646 1.818,11.080 2.045 M12.734 4.041 C 14.574 4.216,16.228 4.976,17.554 6.256 C 20.043 8.658,20.702 12.394,19.183 15.499 C 18.749 16.387,18.223 17.105,17.496 17.801 C 16.876 18.394,16.262 18.819,15.471 19.200 C 13.267 20.265,10.733 20.265,8.529 19.200 C 7.477 18.693,6.612 18.015,5.847 17.100 C 3.848 14.711,3.440 11.302,4.816 8.500 C 6.162 5.760,8.867 4.049,11.920 4.005 C 12.129 4.003,12.495 4.019,12.734 4.041 M8.580 8.094 C 8.343 8.204,8.155 8.405,8.064 8.646 C 8.004 8.804,7.999 9.126,8.009 12.063 L 8.020 15.306 8.141 15.503 C 8.543 16.156,9.457 16.156,9.859 15.503 L 9.980 15.306 9.991 13.365 L 10.003 11.424 12.211 13.628 C 13.426 14.840,14.481 15.862,14.555 15.899 C 15.010 16.128,15.601 15.944,15.867 15.492 C 15.964 15.327,15.980 15.258,15.979 15.000 C 15.979 14.788,15.957 14.659,15.905 14.560 C 15.865 14.483,14.839 13.425,13.626 12.210 L 11.421 10.000 13.300 9.998 C 14.766 9.997,15.213 9.985,15.330 9.943 C 15.551 9.864,15.744 9.702,15.869 9.489 C 15.964 9.328,15.980 9.256,15.980 9.000 C 15.980 8.746,15.963 8.672,15.872 8.516 C 15.813 8.415,15.698 8.282,15.618 8.221 C 15.324 7.997,15.377 8.000,11.944 8.000 L 8.780 8.001 8.580 8.094 " stroke="none" fill-rule="evenodd" fill="black"></path></svg>