<svg xmlns="http://www.w3.org/2000/svg" width="24" height="24" viewBox="0 0 24 24" fill="none" stroke="currentColor" stroke-width="2" stroke-linecap="round" stroke-linejoin="round"><path d="M7.695 6.057 C 7.466 6.129,7.256 6.299,7.128 6.516 L 7.020 6.700 7.009 8.850 L 6.997 11.000 4.445 11.000 C 1.676 11.000,1.672 11.000,1.382 11.221 C 1.302 11.282,1.187 11.415,1.128 11.516 C 1.037 11.672,1.020 11.746,1.020 12.000 C 1.020 12.256,1.036 12.328,1.131 12.489 C 1.256 12.702,1.449 12.864,1.670 12.943 C 1.789 12.986,2.351 12.997,4.410 12.998 L 7.000 13.000 7.000 15.073 C 7.000 17.419,6.998 17.400,7.299 17.701 C 7.565 17.967,7.984 18.068,8.320 17.946 C 8.397 17.918,9.931 16.975,11.728 15.851 L 14.997 13.807 15.008 15.557 L 15.020 17.306 15.141 17.503 C 15.543 18.156,16.457 18.156,16.859 17.503 L 16.980 17.306 16.991 15.153 L 17.003 13.000 19.591 12.998 C 21.649 12.997,22.211 12.986,22.330 12.943 C 22.551 12.864,22.744 12.702,22.869 12.489 C 22.964 12.328,22.980 12.256,22.980 12.000 C 22.980 11.746,22.963 11.672,22.872 11.516 C 22.813 11.415,22.698 11.282,22.618 11.221 C 22.328 11.000,22.324 11.000,19.555 11.000 L 17.003 11.000 16.991 8.850 L 16.980 6.700 16.871 6.514 C 16.479 5.848,15.521 5.848,15.129 6.514 L 15.020 6.700 15.000 8.444 L 14.980 10.188 11.720 8.148 C 9.927 7.027,8.381 6.084,8.284 6.054 C 8.069 5.988,7.912 5.989,7.695 6.057 M14.070 12.009 C 14.064 12.025,13.034 12.679,11.780 13.462 C 10.526 14.246,9.388 14.957,9.250 15.044 L 9.000 15.201 9.000 12.003 L 9.000 8.805 11.540 10.392 C 12.937 11.266,14.075 11.993,14.070 12.009 " stroke="none" fill-rule="evenodd" fill="black"></path></svg>