<svg xmlns="http://www.w3.org/2000/svg" width="24" height="24" viewBox="0 0 24 24" fill="none" stroke="currentColor" stroke-width="2" stroke-linecap="round" stroke-linejoin="round"><path d="M11.080 2.045 C 9.507 2.184,7.883 2.751,6.540 3.630 C 5.905 4.045,5.499 4.378,4.919 4.958 C 2.953 6.926,1.919 9.544,2.013 12.320 C 2.084 14.439,2.752 16.328,4.033 18.040 C 4.430 18.570,5.305 19.464,5.800 19.847 C 7.242 20.961,8.787 21.624,10.600 21.907 C 11.247 22.008,12.753 22.008,13.400 21.907 C 15.638 21.557,17.504 20.620,19.062 19.062 C 20.620 17.504,21.557 15.638,21.907 13.400 C 22.008 12.753,22.008 11.247,21.907 10.600 C 21.624 8.786,20.959 7.238,19.847 5.800 C 19.510 5.365,18.639 4.494,18.200 4.154 C 16.133 2.555,13.646 1.818,11.080 2.045 M12.734 4.041 C 14.574 4.216,16.228 4.976,17.554 6.256 C 20.043 8.658,20.702 12.394,19.183 15.499 C 18.749 16.387,18.223 17.105,17.496 17.801 C 16.876 18.394,16.262 18.819,15.471 19.200 C 13.267 20.265,10.733 20.265,8.529 19.200 C 7.477 18.693,6.612 18.015,5.847 17.100 C 3.848 14.711,3.440 11.302,4.816 8.500 C 6.162 5.760,8.867 4.049,11.920 4.005 C 12.129 4.003,12.495 4.019,12.734 4.041 M8.670 8.061 C 8.448 8.142,8.250 8.309,8.128 8.516 C 8.036 8.672,8.020 8.745,8.021 9.000 C 8.021 9.212,8.043 9.341,8.095 9.440 C 8.196 9.632,11.296 12.739,11.520 12.873 C 11.672 12.964,11.746 12.980,12.000 12.980 C 12.254 12.980,12.328 12.964,12.480 12.873 C 12.704 12.739,15.804 9.632,15.905 9.440 C 15.957 9.341,15.979 9.212,15.979 9.000 C 15.980 8.745,15.964 8.672,15.872 8.516 C 15.618 8.084,15.137 7.905,14.657 8.066 C 14.484 8.124,14.312 8.279,13.230 9.354 L 12.000 10.576 10.770 9.354 C 9.688 8.279,9.516 8.124,9.343 8.066 C 9.108 7.987,8.875 7.985,8.670 8.061 M8.670 12.061 C 8.448 12.142,8.250 12.309,8.128 12.516 C 8.036 12.672,8.020 12.745,8.021 13.000 C 8.021 13.212,8.043 13.341,8.095 13.440 C 8.196 13.632,11.296 16.739,11.520 16.873 C 11.672 16.964,11.746 16.980,12.000 16.980 C 12.254 16.980,12.328 16.964,12.480 16.873 C 12.704 16.739,15.804 13.632,15.905 13.440 C 15.957 13.341,15.979 13.212,15.979 13.000 C 15.980 12.745,15.964 12.672,15.872 12.516 C 15.618 12.084,15.137 11.905,14.657 12.066 C 14.484 12.124,14.312 12.279,13.230 13.354 L 12.000 14.576 10.770 13.354 C 9.688 12.279,9.516 12.124,9.343 12.066 C 9.108 11.987,8.875 11.985,8.670 12.061 " stroke="none" fill-rule="evenodd" fill="black"></path></svg>