<svg xmlns="http://www.w3.org/2000/svg" width="24" height="24" viewBox="0 0 24 24" fill="none" stroke="currentColor" stroke-width="2" stroke-linecap="round" stroke-linejoin="round"><path d="M11.080 2.045 C 9.507 2.184,7.883 2.751,6.540 3.630 C 5.905 4.045,5.499 4.378,4.919 4.958 C 2.953 6.926,1.919 9.544,2.013 12.320 C 2.084 14.439,2.752 16.328,4.033 18.040 C 4.430 18.570,5.305 19.464,5.800 19.847 C 7.242 20.961,8.787 21.624,10.600 21.907 C 11.247 22.008,12.753 22.008,13.400 21.907 C 15.638 21.557,17.504 20.620,19.062 19.062 C 20.620 17.504,21.557 15.638,21.907 13.400 C 22.008 12.753,22.008 11.247,21.907 10.600 C 21.624 8.786,20.959 7.238,19.847 5.800 C 19.510 5.365,18.639 4.494,18.200 4.154 C 16.133 2.555,13.646 1.818,11.080 2.045 M12.734 4.041 C 14.574 4.216,16.228 4.976,17.554 6.256 C 20.043 8.658,20.702 12.394,19.183 15.499 C 18.749 16.387,18.223 17.105,17.496 17.801 C 16.876 18.394,16.262 18.819,15.471 19.200 C 13.267 20.265,10.733 20.265,8.529 19.200 C 7.477 18.693,6.612 18.015,5.847 17.100 C 3.848 14.711,3.440 11.302,4.816 8.500 C 6.162 5.760,8.867 4.049,11.920 4.005 C 12.129 4.003,12.495 4.019,12.734 4.041 M9.689 7.059 C 9.457 7.131,9.263 7.287,9.138 7.499 C 8.923 7.867,8.889 7.685,10.033 12.257 C 11.177 16.822,11.113 16.621,11.486 16.851 C 11.960 17.145,12.640 16.958,12.874 16.470 C 12.919 16.377,13.418 14.455,13.982 12.200 C 15.117 7.660,15.081 7.857,14.851 7.486 C 14.548 6.995,13.902 6.862,13.424 7.191 C 13.128 7.396,13.109 7.449,12.546 9.698 C 12.257 10.854,12.011 11.800,12.000 11.800 C 11.988 11.800,11.748 10.873,11.465 9.741 C 11.182 8.609,10.915 7.610,10.871 7.521 C 10.729 7.233,10.333 6.997,10.005 7.003 C 9.925 7.004,9.783 7.029,9.689 7.059 " stroke="none" fill-rule="evenodd" fill="black"></path></svg>