<svg xmlns="http://www.w3.org/2000/svg" width="24" height="24" viewBox="0 0 24 24" fill="none" stroke="currentColor" stroke-width="2" stroke-linecap="round" stroke-linejoin="round"><path d="M11.695 2.057 C 11.466 2.129,11.256 2.299,11.128 2.516 C 10.985 2.760,10.975 3.211,11.107 3.460 C 11.490 4.177,12.510 4.177,12.893 3.460 C 13.025 3.211,13.015 2.760,12.872 2.516 C 12.628 2.101,12.150 1.915,11.695 2.057 M7.280 3.245 C 6.767 3.343,6.416 3.891,6.528 4.419 C 6.679 5.126,7.498 5.438,8.093 5.014 C 8.431 4.774,8.589 4.219,8.429 3.835 C 8.246 3.397,7.767 3.151,7.280 3.245 M16.280 3.245 C 15.767 3.343,15.416 3.891,15.528 4.419 C 15.679 5.126,16.498 5.438,17.093 5.014 C 17.431 4.774,17.589 4.219,17.429 3.835 C 17.246 3.397,16.767 3.151,16.280 3.245 M3.766 6.610 C 3.438 6.778,3.200 7.163,3.200 7.526 C 3.200 7.740,3.356 8.066,3.538 8.234 C 4.158 8.806,5.140 8.414,5.193 7.574 C 5.221 7.138,5.007 6.770,4.623 6.596 C 4.387 6.489,3.990 6.495,3.766 6.610 M19.377 6.596 C 18.993 6.770,18.779 7.138,18.807 7.574 C 18.862 8.434,19.876 8.816,20.485 8.206 C 20.667 8.024,20.800 7.726,20.800 7.500 C 20.800 7.318,20.669 6.989,20.541 6.846 C 20.256 6.531,19.756 6.423,19.377 6.596 M9.695 7.057 C 9.466 7.129,9.256 7.299,9.128 7.516 L 9.020 7.700 9.020 12.003 L 9.020 16.306 9.141 16.503 C 9.543 17.156,10.457 17.156,10.859 16.503 L 10.980 16.306 10.992 14.653 L 11.003 13.000 12.092 12.998 C 13.262 12.996,13.358 12.983,13.619 12.783 C 13.696 12.725,13.808 12.592,13.869 12.489 C 13.964 12.328,13.980 12.256,13.980 12.000 C 13.980 11.746,13.963 11.672,13.872 11.516 C 13.813 11.415,13.698 11.282,13.618 11.221 C 13.356 11.022,13.203 11.000,12.054 11.000 L 11.000 11.000 11.000 10.000 L 11.000 9.000 12.590 8.998 C 14.300 8.996,14.346 8.991,14.619 8.783 C 14.696 8.725,14.808 8.592,14.869 8.489 C 14.964 8.328,14.980 8.256,14.980 8.000 C 14.980 7.746,14.963 7.672,14.872 7.516 C 14.740 7.293,14.533 7.128,14.290 7.055 C 14.033 6.978,9.943 6.979,9.695 7.057 M2.695 11.057 C 2.466 11.129,2.256 11.299,2.128 11.516 C 2.036 11.672,2.020 11.745,2.021 12.000 C 2.022 12.332,2.101 12.533,2.306 12.728 C 2.785 13.181,3.580 13.046,3.893 12.460 C 4.025 12.211,4.015 11.760,3.872 11.516 C 3.628 11.101,3.150 10.915,2.695 11.057 M20.695 11.057 C 20.466 11.129,20.256 11.299,20.128 11.516 C 20.036 11.672,20.020 11.745,20.021 12.000 C 20.022 12.332,20.101 12.533,20.306 12.728 C 20.785 13.181,21.580 13.046,21.893 12.460 C 22.025 12.211,22.015 11.760,21.872 11.516 C 21.628 11.101,21.150 10.915,20.695 11.057 M3.766 15.610 C 3.438 15.778,3.200 16.163,3.200 16.526 C 3.200 16.740,3.356 17.066,3.538 17.234 C 4.158 17.806,5.140 17.414,5.193 16.574 C 5.221 16.138,5.007 15.770,4.623 15.596 C 4.387 15.489,3.990 15.495,3.766 15.610 M19.377 15.596 C 18.993 15.770,18.779 16.138,18.807 16.574 C 18.862 17.434,19.876 17.816,20.485 17.206 C 20.667 17.024,20.800 16.726,20.800 16.500 C 20.800 16.318,20.669 15.989,20.541 15.846 C 20.256 15.531,19.756 15.423,19.377 15.596 M7.146 18.856 C 6.643 19.043,6.369 19.682,6.578 20.182 C 6.723 20.530,7.126 20.799,7.500 20.799 C 7.874 20.799,8.277 20.530,8.422 20.182 C 8.512 19.966,8.507 19.612,8.410 19.395 C 8.324 19.201,8.124 18.987,7.940 18.891 C 7.774 18.804,7.337 18.785,7.146 18.856 M16.146 18.856 C 15.643 19.043,15.369 19.682,15.578 20.182 C 15.723 20.530,16.126 20.799,16.500 20.799 C 16.874 20.799,17.277 20.530,17.422 20.182 C 17.512 19.966,17.507 19.612,17.410 19.395 C 17.324 19.201,17.124 18.987,16.940 18.891 C 16.774 18.804,16.337 18.785,16.146 18.856 M11.695 20.057 C 11.466 20.129,11.256 20.299,11.128 20.516 C 11.036 20.672,11.020 20.745,11.021 21.000 C 11.022 21.332,11.101 21.533,11.306 21.728 C 11.785 22.181,12.580 22.046,12.893 21.460 C 13.025 21.211,13.015 20.760,12.872 20.516 C 12.628 20.101,12.150 19.915,11.695 20.057 " stroke="none" fill-rule="evenodd" fill="black"></path></svg>