<svg xmlns="http://www.w3.org/2000/svg" width="24" height="24" viewBox="0 0 24 24" fill="none" stroke="currentColor" stroke-width="2" stroke-linecap="round" stroke-linejoin="round"><path d="M4.695 2.057 C 4.466 2.129,4.256 2.299,4.128 2.516 C 4.025 2.692,4.019 2.728,4.007 3.350 L 3.993 4.000 3.443 4.000 C 2.648 4.000,2.366 4.111,2.128 4.516 C 2.037 4.672,2.020 4.746,2.020 5.000 C 2.020 5.256,2.036 5.328,2.131 5.489 C 2.256 5.702,2.449 5.864,2.670 5.943 C 2.768 5.978,3.022 5.997,3.407 5.998 L 3.993 6.000 4.007 6.653 C 4.020 7.300,4.021 7.308,4.141 7.503 C 4.543 8.156,5.457 8.156,5.859 7.503 C 5.979 7.308,5.980 7.300,5.993 6.653 L 6.007 6.000 6.593 5.998 C 6.978 5.997,7.232 5.978,7.330 5.943 C 7.551 5.864,7.744 5.702,7.869 5.489 C 7.964 5.328,7.980 5.256,7.980 5.000 C 7.980 4.746,7.963 4.672,7.872 4.516 C 7.634 4.111,7.352 4.000,6.557 4.000 L 6.007 4.000 5.993 3.350 C 5.981 2.728,5.975 2.692,5.872 2.516 C 5.628 2.101,5.150 1.915,4.695 2.057 M10.695 4.057 C 10.466 4.129,10.256 4.299,10.128 4.516 L 10.020 4.700 10.009 7.850 L 9.998 11.000 5.945 11.000 C 1.547 11.000,1.680 10.994,1.382 11.221 C 1.302 11.282,1.187 11.415,1.128 11.516 C 1.037 11.672,1.020 11.746,1.020 12.000 C 1.020 12.256,1.036 12.328,1.131 12.489 C 1.256 12.702,1.449 12.864,1.670 12.943 C 1.791 12.986,2.598 12.997,5.909 12.998 L 9.998 13.000 10.009 16.153 L 10.020 19.306 10.141 19.503 C 10.543 20.156,11.457 20.156,11.859 19.503 L 11.980 19.306 11.980 12.003 L 11.980 4.700 11.872 4.516 C 11.628 4.101,11.150 3.915,10.695 4.057 M14.695 8.057 C 14.466 8.129,14.256 8.299,14.128 8.516 L 14.020 8.700 14.020 12.003 L 14.020 15.306 14.141 15.503 C 14.543 16.156,15.457 16.156,15.859 15.503 L 15.980 15.307 15.992 14.153 L 16.005 13.000 19.092 12.998 C 21.567 12.997,22.210 12.986,22.330 12.943 C 22.551 12.864,22.744 12.702,22.869 12.489 C 22.964 12.328,22.980 12.256,22.980 12.000 C 22.980 11.746,22.963 11.672,22.872 11.516 C 22.813 11.415,22.698 11.282,22.618 11.221 C 22.325 10.997,22.367 11.000,19.056 11.000 L 16.005 11.000 15.992 9.850 L 15.980 8.700 15.872 8.516 C 15.628 8.101,15.150 7.915,14.695 8.057 " stroke="none" fill-rule="evenodd" fill="black"></path></svg>