<svg xmlns="http://www.w3.org/2000/svg" width="24" height="24" viewBox="0 0 24 24" fill="none" stroke="currentColor" stroke-width="2" stroke-linecap="round" stroke-linejoin="round"><path d="M11.380 6.043 C 9.717 6.207,8.205 7.071,7.181 8.443 C 6.656 9.145,6.332 9.882,6.103 10.890 L 6.078 11.000 3.986 11.000 C 1.714 11.000,1.667 11.004,1.382 11.221 C 1.302 11.282,1.187 11.415,1.128 11.516 C 1.037 11.672,1.020 11.746,1.020 12.000 C 1.020 12.256,1.036 12.328,1.131 12.489 C 1.256 12.702,1.449 12.864,1.670 12.943 C 1.788 12.985,2.275 12.997,3.949 12.998 L 6.078 13.000 6.103 13.110 C 6.332 14.118,6.656 14.854,7.180 15.557 C 8.082 16.765,9.335 17.562,10.840 17.885 C 11.446 18.015,12.554 18.015,13.160 17.885 C 14.397 17.620,15.412 17.068,16.269 16.195 C 17.128 15.321,17.597 14.431,17.897 13.110 L 17.922 13.000 20.051 12.998 C 21.725 12.997,22.212 12.985,22.330 12.943 C 22.551 12.864,22.744 12.702,22.869 12.489 C 22.964 12.328,22.980 12.256,22.980 12.000 C 22.980 11.746,22.963 11.672,22.872 11.516 C 22.813 11.415,22.698 11.282,22.618 11.221 C 22.333 11.004,22.286 11.000,20.014 11.000 L 17.922 11.000 17.897 10.890 C 17.597 9.569,17.128 8.679,16.269 7.805 C 14.978 6.490,13.230 5.860,11.380 6.043 M12.602 8.058 C 12.813 8.090,13.074 8.145,13.182 8.181 C 13.430 8.262,14.000 8.524,14.000 8.557 C 14.000 8.570,13.550 9.030,13.000 9.580 L 12.000 10.579 11.000 9.580 C 10.450 9.030,10.000 8.570,10.000 8.557 C 10.000 8.524,10.570 8.262,10.820 8.180 C 11.325 8.013,12.000 7.967,12.602 8.058 M9.580 11.000 L 10.579 12.000 9.580 13.000 C 9.030 13.550,8.570 14.000,8.557 14.000 C 8.524 14.000,8.262 13.430,8.181 13.182 C 8.099 12.933,8.000 12.289,8.000 12.000 C 8.000 11.711,8.099 11.067,8.181 10.818 C 8.262 10.570,8.524 10.000,8.557 10.000 C 8.570 10.000,9.030 10.450,9.580 11.000 M15.611 10.310 C 15.690 10.480,15.783 10.709,15.819 10.818 C 15.901 11.067,16.000 11.711,16.000 12.000 C 16.000 12.289,15.901 12.933,15.819 13.182 C 15.738 13.430,15.476 14.000,15.443 14.000 C 15.430 14.000,14.970 13.550,14.420 13.000 L 13.421 12.000 14.420 11.000 C 14.970 10.450,15.430 10.000,15.443 10.000 C 15.457 10.000,15.532 10.139,15.611 10.310 M13.019 14.439 C 14.162 15.583,14.110 15.452,13.515 15.695 C 13.067 15.879,12.465 16.000,12.000 16.000 C 11.535 16.000,10.933 15.879,10.485 15.695 C 9.890 15.452,9.838 15.583,10.981 14.439 C 11.530 13.890,11.989 13.440,12.000 13.440 C 12.011 13.440,12.470 13.890,13.019 14.439 " stroke="none" fill-rule="evenodd" fill="black"></path></svg>