<svg xmlns="http://www.w3.org/2000/svg" width="24" height="24" viewBox="0 0 24 24" fill="none" stroke="currentColor" stroke-width="2" stroke-linecap="round" stroke-linejoin="round"><path d="M11.420 2.027 C 7.926 2.245,4.855 4.204,3.189 7.280 C 2.668 8.242,2.278 9.436,2.092 10.640 C 1.993 11.281,1.994 12.759,2.095 13.380 C 2.427 15.441,3.167 17.057,4.466 18.560 C 6.141 20.499,8.514 21.712,11.123 21.961 C 11.797 22.026,12.686 21.998,12.900 21.905 C 13.365 21.704,13.606 21.196,13.466 20.716 C 13.385 20.438,13.213 20.234,12.952 20.104 C 12.757 20.006,12.709 20.000,12.151 20.000 C 10.795 20.000,9.644 19.742,8.500 19.183 C 5.073 17.507,3.328 13.718,4.262 9.984 C 4.422 9.343,4.798 8.462,5.173 7.847 C 7.314 4.339,11.762 3.021,15.460 4.800 C 17.758 5.906,19.393 8.042,19.859 10.546 C 20.100 11.846,20.015 13.132,19.598 14.484 C 19.451 14.963,19.448 15.177,19.583 15.463 C 19.723 15.758,20.012 15.969,20.351 16.023 C 20.697 16.078,21.181 15.828,21.346 15.508 C 21.517 15.178,21.794 14.116,21.906 13.360 C 22.003 12.705,22.004 11.264,21.908 10.640 C 21.466 7.781,20.036 5.454,17.703 3.800 C 15.935 2.546,13.612 1.890,11.420 2.027 M15.695 18.057 C 15.466 18.129,15.256 18.299,15.128 18.516 C 15.037 18.672,15.020 18.746,15.020 19.000 C 15.020 19.256,15.036 19.328,15.131 19.489 C 15.256 19.702,15.449 19.864,15.670 19.943 C 15.891 20.022,22.109 20.022,22.330 19.943 C 22.551 19.864,22.744 19.702,22.869 19.489 C 22.964 19.328,22.980 19.256,22.980 19.000 C 22.980 18.746,22.963 18.672,22.872 18.516 C 22.740 18.293,22.533 18.128,22.290 18.055 C 22.030 17.977,15.945 17.979,15.695 18.057 " stroke="none" fill-rule="evenodd" fill="black"></path></svg>