<svg xmlns="http://www.w3.org/2000/svg" width="24" height="24" viewBox="0 0 24 24" fill="none" stroke="currentColor" stroke-width="2" stroke-linecap="round" stroke-linejoin="round"><path d="M6.499 9.040 C 5.373 9.244,4.470 10.041,4.118 11.140 C 4.042 11.379,4.026 11.536,4.010 12.210 L 3.991 13.000 2.942 13.000 C 1.797 13.000,1.643 13.022,1.382 13.221 C 1.302 13.282,1.187 13.415,1.128 13.516 C 1.037 13.672,1.020 13.746,1.020 14.000 C 1.020 14.256,1.036 14.328,1.131 14.489 C 1.256 14.702,1.449 14.864,1.670 14.943 C 1.888 15.021,5.112 15.021,5.330 14.943 C 5.551 14.864,5.744 14.702,5.869 14.489 L 5.980 14.300 6.000 13.020 C 6.023 11.582,6.025 11.571,6.321 11.283 C 6.490 11.120,6.777 11.000,7.000 11.000 C 7.223 11.000,7.510 11.120,7.679 11.283 C 7.975 11.571,7.977 11.581,8.000 13.023 L 8.020 14.307 8.141 14.503 C 8.543 15.156,9.457 15.156,9.859 14.503 L 9.980 14.306 10.001 13.223 C 10.022 12.143,10.022 12.139,10.133 11.900 C 10.279 11.583,10.587 11.275,10.896 11.135 C 11.105 11.040,11.192 11.024,11.500 11.024 C 11.808 11.024,11.895 11.040,12.104 11.135 C 12.413 11.275,12.721 11.583,12.867 11.900 C 12.978 12.139,12.978 12.143,12.999 13.223 L 13.020 14.306 13.141 14.503 C 13.446 14.999,14.077 15.144,14.548 14.828 C 14.654 14.756,14.791 14.613,14.859 14.503 L 14.980 14.306 15.001 13.223 C 15.022 12.143,15.023 12.139,15.134 11.896 C 15.276 11.586,15.585 11.279,15.900 11.134 C 16.106 11.039,16.192 11.023,16.500 11.023 C 16.808 11.023,16.894 11.039,17.100 11.134 C 17.415 11.279,17.724 11.586,17.866 11.896 C 17.977 12.139,17.978 12.143,17.999 13.220 L 18.020 14.300 18.131 14.489 C 18.256 14.702,18.449 14.864,18.670 14.943 C 18.888 15.021,22.112 15.021,22.330 14.943 C 22.551 14.864,22.744 14.702,22.869 14.489 C 22.964 14.328,22.980 14.256,22.980 14.000 C 22.980 13.746,22.963 13.672,22.872 13.516 C 22.813 13.415,22.698 13.282,22.618 13.221 C 22.356 13.022,22.203 13.000,21.054 13.000 L 20.000 13.000 20.000 12.610 C 20.000 12.396,19.981 12.107,19.959 11.969 C 19.736 10.597,18.727 9.481,17.378 9.114 C 16.960 9.001,16.117 8.990,15.707 9.092 C 15.141 9.233,14.513 9.564,14.153 9.910 L 14.005 10.051 13.818 9.886 C 13.406 9.524,12.912 9.260,12.364 9.111 C 11.925 8.991,11.069 8.992,10.622 9.114 C 10.228 9.222,9.738 9.457,9.411 9.697 C 9.273 9.798,9.153 9.880,9.144 9.880 C 9.134 9.880,9.031 9.798,8.913 9.697 C 8.415 9.270,7.822 9.045,7.120 9.019 C 6.889 9.011,6.609 9.020,6.499 9.040 " stroke="none" fill-rule="evenodd" fill="black"></path></svg>