<svg xmlns="http://www.w3.org/2000/svg" width="24" height="24" viewBox="0 0 24 24" fill="none" stroke="currentColor" stroke-width="2" stroke-linecap="round" stroke-linejoin="round"><path d="M11.695 2.057 C 11.466 2.129,11.256 2.299,11.128 2.516 L 11.020 2.700 11.009 7.350 L 10.999 12.000 8.424 12.000 C 5.631 12.000,5.668 11.997,5.374 12.222 C 5.078 12.447,4.937 12.893,5.042 13.269 C 5.085 13.421,5.729 14.304,8.206 17.607 C 11.716 22.288,11.449 21.980,12.000 21.980 C 12.551 21.980,12.284 22.288,15.794 17.607 C 18.271 14.304,18.915 13.421,18.958 13.269 C 19.065 12.886,18.925 12.455,18.618 12.221 C 18.328 12.000,18.325 12.000,15.554 12.000 L 13.001 12.000 12.991 7.350 L 12.980 2.700 12.872 2.516 C 12.628 2.101,12.150 1.915,11.695 2.057 M14.010 16.658 C 12.916 18.120,12.011 19.316,12.000 19.316 C 11.989 19.316,11.084 18.120,9.990 16.658 L 8.000 14.000 12.000 14.000 L 16.000 14.000 14.010 16.658 " stroke="none" fill-rule="evenodd" fill="black"></path></svg>