<svg xmlns="http://www.w3.org/2000/svg" width="24" height="24" viewBox="0 0 24 24" fill="none" stroke="currentColor" stroke-width="2" stroke-linecap="round" stroke-linejoin="round"><path d="M9.695 4.057 C 9.466 4.129,9.256 4.299,9.128 4.516 L 9.020 4.700 9.009 7.850 L 8.998 11.000 5.445 11.000 C 1.590 11.000,1.678 10.995,1.382 11.221 C 1.302 11.282,1.187 11.415,1.128 11.516 C 1.037 11.672,1.020 11.746,1.020 12.000 C 1.020 12.256,1.036 12.328,1.131 12.489 C 1.256 12.702,1.449 12.864,1.670 12.943 C 1.791 12.986,2.515 12.997,5.409 12.998 L 8.998 13.000 9.009 16.153 L 9.020 19.306 9.141 19.503 C 9.543 20.156,10.457 20.156,10.859 19.503 L 10.980 19.306 10.980 12.003 L 10.980 4.700 10.872 4.516 C 10.628 4.101,10.150 3.915,9.695 4.057 M13.695 8.057 C 13.466 8.129,13.256 8.299,13.128 8.516 L 13.020 8.700 13.020 12.003 L 13.020 15.306 13.141 15.503 C 13.543 16.156,14.457 16.156,14.859 15.503 L 14.980 15.307 14.992 14.153 L 15.005 13.000 18.592 12.998 C 21.485 12.997,22.209 12.986,22.330 12.943 C 22.551 12.864,22.744 12.702,22.869 12.489 C 22.964 12.328,22.980 12.256,22.980 12.000 C 22.980 11.746,22.963 11.672,22.872 11.516 C 22.813 11.415,22.698 11.282,22.618 11.221 C 22.322 10.995,22.410 11.000,18.556 11.000 L 15.005 11.000 14.992 9.850 L 14.980 8.700 14.872 8.516 C 14.628 8.101,14.150 7.915,13.695 8.057 " stroke="none" fill-rule="evenodd" fill="black"></path></svg>