<svg xmlns="http://www.w3.org/2000/svg" width="24" height="24" viewBox="0 0 24 24" fill="none" stroke="currentColor" stroke-width="2" stroke-linecap="round" stroke-linejoin="round"><path d="M11.080 2.045 C 9.507 2.184,7.883 2.751,6.540 3.630 C 5.905 4.045,5.499 4.378,4.919 4.958 C 2.953 6.926,1.919 9.544,2.013 12.320 C 2.084 14.439,2.752 16.328,4.033 18.040 C 4.430 18.570,5.305 19.464,5.800 19.847 C 7.242 20.961,8.787 21.624,10.600 21.907 C 11.247 22.008,12.753 22.008,13.400 21.907 C 15.638 21.557,17.504 20.620,19.062 19.062 C 20.620 17.504,21.557 15.638,21.907 13.400 C 22.008 12.753,22.008 11.247,21.907 10.600 C 21.624 8.786,20.959 7.238,19.847 5.800 C 19.510 5.365,18.639 4.494,18.200 4.154 C 16.133 2.555,13.646 1.818,11.080 2.045 M12.734 4.041 C 14.574 4.216,16.228 4.976,17.554 6.256 C 20.043 8.658,20.702 12.394,19.183 15.499 C 18.749 16.387,18.223 17.105,17.496 17.801 C 16.876 18.394,16.262 18.819,15.471 19.200 C 13.267 20.265,10.733 20.265,8.529 19.200 C 7.477 18.693,6.612 18.015,5.847 17.100 C 3.848 14.711,3.440 11.302,4.816 8.500 C 6.162 5.760,8.867 4.049,11.920 4.005 C 12.129 4.003,12.495 4.019,12.734 4.041 M9.667 7.065 C 9.406 7.145,9.153 7.401,9.061 7.678 C 8.927 8.081,8.938 8.111,9.954 10.148 L 10.879 12.000 9.954 13.852 C 8.938 15.889,8.927 15.919,9.061 16.322 C 9.189 16.707,9.594 17.000,10.000 17.000 C 10.080 17.000,10.233 16.970,10.340 16.934 C 10.686 16.816,10.804 16.649,11.419 15.408 C 11.727 14.788,11.988 14.280,12.000 14.280 C 12.012 14.280,12.273 14.788,12.581 15.408 C 13.196 16.649,13.314 16.816,13.660 16.934 C 13.767 16.970,13.920 17.000,14.000 17.000 C 14.406 17.000,14.811 16.707,14.939 16.322 C 15.073 15.919,15.062 15.889,14.046 13.852 L 13.121 12.000 14.046 10.148 C 15.056 8.124,15.072 8.079,14.944 7.693 C 14.712 6.992,13.816 6.776,13.304 7.297 C 13.182 7.421,12.997 7.751,12.581 8.592 C 12.273 9.212,12.012 9.720,12.000 9.720 C 11.988 9.720,11.727 9.212,11.419 8.592 C 10.804 7.351,10.686 7.184,10.340 7.066 C 10.106 6.986,9.924 6.986,9.667 7.065 " stroke="none" fill-rule="evenodd" fill="black"></path></svg>