<svg xmlns="http://www.w3.org/2000/svg" width="24" height="24" viewBox="0 0 24 24" fill="none" stroke="currentColor" stroke-width="2" stroke-linecap="round" stroke-linejoin="round"><path d="M11.080 2.045 C 9.507 2.184,7.883 2.751,6.540 3.630 C 5.905 4.045,5.499 4.378,4.919 4.958 C 2.953 6.926,1.919 9.544,2.013 12.320 C 2.084 14.439,2.752 16.328,4.033 18.040 C 4.430 18.570,5.305 19.464,5.800 19.847 C 7.242 20.961,8.787 21.624,10.600 21.907 C 11.247 22.008,12.753 22.008,13.400 21.907 C 15.638 21.557,17.504 20.620,19.062 19.062 C 20.620 17.504,21.557 15.638,21.907 13.400 C 22.008 12.753,22.008 11.247,21.907 10.600 C 21.624 8.786,20.959 7.238,19.847 5.800 C 19.510 5.365,18.639 4.494,18.200 4.154 C 16.133 2.555,13.646 1.818,11.080 2.045 M12.734 4.041 C 14.574 4.216,16.228 4.976,17.554 6.256 C 20.043 8.658,20.702 12.394,19.183 15.499 C 18.749 16.387,18.223 17.105,17.496 17.801 C 16.876 18.394,16.262 18.819,15.471 19.200 C 13.267 20.265,10.733 20.265,8.529 19.200 C 7.477 18.693,6.612 18.015,5.847 17.100 C 3.848 14.711,3.440 11.302,4.816 8.500 C 6.162 5.760,8.867 4.049,11.920 4.005 C 12.129 4.003,12.495 4.019,12.734 4.041 M11.499 7.043 C 10.383 7.230,9.461 8.048,9.114 9.160 L 9.020 9.460 9.020 12.000 L 9.020 14.540 9.114 14.840 C 9.422 15.827,10.173 16.578,11.160 16.886 C 11.451 16.977,11.503 16.980,12.880 16.980 L 14.300 16.980 14.492 16.867 C 14.711 16.739,14.901 16.498,14.961 16.275 C 14.988 16.176,14.999 15.337,14.991 13.911 L 14.980 11.700 14.872 11.516 C 14.629 11.102,14.357 11.000,13.500 11.000 C 12.643 11.000,12.371 11.102,12.128 11.516 C 12.036 11.672,12.020 11.746,12.020 12.003 C 12.020 12.271,12.034 12.329,12.141 12.503 C 12.288 12.742,12.578 12.946,12.821 12.982 L 13.000 13.009 13.000 14.008 L 13.000 15.007 12.350 14.993 C 11.728 14.981,11.692 14.975,11.516 14.872 C 11.415 14.813,11.284 14.700,11.225 14.623 C 11.000 14.327,11.000 14.332,11.000 12.022 C 11.000 9.586,10.997 9.609,11.303 9.303 C 11.587 9.019,11.694 9.000,13.037 8.998 C 14.266 8.996,14.356 8.984,14.619 8.783 C 14.696 8.725,14.808 8.592,14.869 8.489 C 14.964 8.328,14.980 8.256,14.980 8.000 C 14.980 7.746,14.963 7.672,14.872 7.516 C 14.813 7.415,14.698 7.282,14.618 7.221 C 14.350 7.016,14.216 7.000,12.904 7.005 C 12.242 7.007,11.609 7.025,11.499 7.043 " stroke="none" fill-rule="evenodd" fill="black"></path></svg>