<svg xmlns="http://www.w3.org/2000/svg" width="24" height="24" viewBox="0 0 24 24" fill="none" stroke="currentColor" stroke-width="2" stroke-linecap="round" stroke-linejoin="round"><path d="M9.695 6.057 C 9.466 6.129,9.256 6.299,9.128 6.516 L 9.020 6.700 9.009 8.850 L 8.997 11.000 5.445 11.000 C 1.590 11.000,1.678 10.995,1.382 11.221 C 1.302 11.282,1.187 11.415,1.128 11.516 C 1.037 11.672,1.020 11.746,1.020 12.000 C 1.020 12.256,1.036 12.328,1.131 12.489 C 1.256 12.702,1.449 12.864,1.670 12.943 C 1.791 12.986,2.515 12.997,5.409 12.998 L 8.997 13.000 9.009 15.153 L 9.020 17.306 9.141 17.503 C 9.543 18.156,10.457 18.156,10.859 17.503 L 10.980 17.306 10.980 12.003 L 10.980 6.700 10.872 6.516 C 10.628 6.101,10.150 5.915,9.695 6.057 M13.695 6.057 C 13.466 6.129,13.256 6.299,13.128 6.516 L 13.020 6.700 13.020 12.003 L 13.020 17.306 13.141 17.503 C 13.543 18.156,14.457 18.156,14.859 17.503 L 14.980 17.306 14.991 15.153 L 15.003 13.000 18.591 12.998 C 21.485 12.997,22.209 12.986,22.330 12.943 C 22.551 12.864,22.744 12.702,22.869 12.489 C 22.964 12.328,22.980 12.256,22.980 12.000 C 22.980 11.746,22.963 11.672,22.872 11.516 C 22.813 11.415,22.698 11.282,22.618 11.221 C 22.322 10.995,22.410 11.000,18.555 11.000 L 15.003 11.000 14.991 8.850 L 14.980 6.700 14.872 6.516 C 14.628 6.101,14.150 5.915,13.695 6.057 " stroke="none" fill-rule="evenodd" fill="black"></path></svg>