<svg xmlns="http://www.w3.org/2000/svg" width="24" height="24" viewBox="0 0 24 24" fill="none" stroke="currentColor" stroke-width="2" stroke-linecap="round" stroke-linejoin="round"><path d="M7.695 5.057 C 7.466 5.129,7.256 5.299,7.128 5.516 C 7.037 5.672,7.020 5.746,7.020 6.000 C 7.020 6.256,7.036 6.328,7.131 6.489 C 7.256 6.702,7.449 6.864,7.670 6.943 C 7.892 7.022,20.108 7.022,20.330 6.943 C 20.551 6.864,20.744 6.702,20.869 6.489 C 20.964 6.328,20.980 6.256,20.980 6.000 C 20.980 5.746,20.963 5.672,20.872 5.516 C 20.740 5.293,20.533 5.128,20.290 5.055 C 20.028 4.976,7.947 4.978,7.695 5.057 M5.695 11.057 C 5.466 11.129,5.256 11.299,5.128 11.516 C 5.037 11.672,5.020 11.746,5.020 12.000 C 5.020 12.256,5.036 12.328,5.131 12.489 C 5.256 12.702,5.449 12.864,5.670 12.943 C 5.793 12.987,6.938 12.996,12.000 12.996 C 17.062 12.996,18.207 12.987,18.330 12.943 C 18.551 12.864,18.744 12.702,18.869 12.489 C 18.964 12.328,18.980 12.256,18.980 12.000 C 18.980 11.746,18.963 11.672,18.872 11.516 C 18.740 11.293,18.533 11.128,18.290 11.055 C 18.028 10.976,5.947 10.978,5.695 11.057 M3.695 17.057 C 3.466 17.129,3.256 17.299,3.128 17.516 C 3.037 17.672,3.020 17.746,3.020 18.000 C 3.020 18.256,3.036 18.328,3.131 18.489 C 3.256 18.702,3.449 18.864,3.670 18.943 C 3.793 18.987,4.938 18.996,10.000 18.996 C 15.062 18.996,16.207 18.987,16.330 18.943 C 16.551 18.864,16.744 18.702,16.869 18.489 C 16.964 18.328,16.980 18.256,16.980 18.000 C 16.980 17.746,16.963 17.672,16.872 17.516 C 16.740 17.293,16.533 17.128,16.290 17.055 C 16.028 16.976,3.947 16.978,3.695 17.057 " stroke="none" fill-rule="evenodd" fill="black"></path></svg>