<svg xmlns="http://www.w3.org/2000/svg" width="24" height="24" viewBox="0 0 24 24" fill="none" stroke="currentColor" stroke-width="2" stroke-linecap="round" stroke-linejoin="round"><path d="M6.695 4.057 C 6.466 4.129,6.256 4.299,6.128 4.516 C 6.023 4.694,6.020 4.723,6.007 5.404 C 5.999 5.825,6.011 6.172,6.037 6.268 C 6.099 6.498,6.287 6.737,6.508 6.867 C 6.673 6.964,6.743 6.980,7.003 6.980 C 7.271 6.980,7.329 6.966,7.503 6.859 C 7.742 6.712,7.946 6.422,7.982 6.179 L 8.009 6.000 9.841 6.000 L 11.674 6.000 11.597 6.270 C 11.555 6.419,10.785 9.114,9.886 12.260 L 8.252 17.980 7.496 18.002 C 7.047 18.015,6.694 18.043,6.627 18.072 C 6.432 18.155,6.240 18.326,6.128 18.516 C 6.037 18.672,6.020 18.746,6.020 19.000 C 6.020 19.256,6.036 19.328,6.131 19.489 C 6.256 19.702,6.449 19.864,6.670 19.943 C 6.889 20.021,11.111 20.021,11.330 19.943 C 11.551 19.864,11.744 19.702,11.869 19.489 C 11.964 19.328,11.980 19.256,11.980 19.000 C 11.980 18.746,11.963 18.672,11.872 18.516 C 11.760 18.325,11.566 18.153,11.373 18.074 C 11.311 18.048,11.051 18.017,10.796 18.004 L 10.331 17.980 12.040 12.000 L 13.748 6.020 15.370 6.010 L 16.991 5.999 17.018 6.178 C 17.054 6.422,17.258 6.712,17.497 6.859 C 17.671 6.966,17.729 6.980,17.997 6.980 C 18.257 6.980,18.327 6.964,18.492 6.867 C 18.713 6.737,18.901 6.498,18.963 6.268 C 18.989 6.172,19.001 5.825,18.993 5.404 C 18.980 4.723,18.977 4.694,18.872 4.516 C 18.740 4.293,18.533 4.128,18.290 4.055 C 18.028 3.976,6.947 3.978,6.695 4.057 M16.670 14.061 C 16.448 14.142,16.250 14.309,16.128 14.516 C 16.036 14.672,16.020 14.745,16.021 15.000 C 16.021 15.213,16.043 15.340,16.096 15.440 C 16.136 15.517,16.486 15.900,16.873 16.290 L 17.577 17.000 16.873 17.710 C 16.486 18.101,16.139 18.481,16.101 18.555 C 15.872 19.008,16.056 19.601,16.508 19.867 C 16.673 19.964,16.742 19.980,17.000 19.979 C 17.213 19.979,17.340 19.957,17.440 19.904 C 17.517 19.864,17.899 19.514,18.290 19.127 L 19.000 18.423 19.710 19.127 C 20.101 19.514,20.483 19.864,20.560 19.904 C 20.660 19.957,20.787 19.979,21.000 19.979 C 21.258 19.980,21.327 19.964,21.492 19.867 C 21.714 19.737,21.901 19.498,21.965 19.264 C 22.019 19.061,21.989 18.733,21.899 18.555 C 21.861 18.481,21.514 18.101,21.127 17.710 L 20.423 17.000 21.127 16.290 C 21.514 15.900,21.864 15.517,21.904 15.440 C 21.957 15.340,21.979 15.213,21.979 15.000 C 21.980 14.745,21.964 14.672,21.872 14.516 C 21.617 14.083,21.135 13.905,20.657 14.067 C 20.491 14.123,20.345 14.247,19.730 14.854 L 19.000 15.574 18.270 14.854 C 17.655 14.247,17.509 14.123,17.343 14.067 C 17.108 13.987,16.876 13.985,16.670 14.061 " stroke="none" fill-rule="evenodd" fill="black"></path></svg>