<svg xmlns="http://www.w3.org/2000/svg" width="24" height="24" viewBox="0 0 24 24" fill="none" stroke="currentColor" stroke-width="2" stroke-linecap="round" stroke-linejoin="round"><path d="M11.695 2.057 C 11.466 2.129,11.256 2.299,11.128 2.516 L 11.020 2.700 11.020 4.503 L 11.020 6.306 11.141 6.503 C 11.209 6.613,11.346 6.756,11.452 6.828 C 11.923 7.144,12.554 6.999,12.859 6.503 L 12.980 6.306 12.980 4.503 L 12.980 2.700 12.872 2.516 C 12.628 2.101,12.150 1.915,11.695 2.057 M5.295 4.657 C 5.066 4.729,4.856 4.899,4.728 5.116 C 4.637 5.272,4.620 5.346,4.620 5.600 C 4.620 5.854,4.636 5.928,4.727 6.080 C 4.860 6.304,7.170 8.606,7.355 8.699 C 7.809 8.928,8.401 8.744,8.667 8.292 C 8.764 8.127,8.780 8.057,8.780 7.800 C 8.780 7.547,8.763 7.472,8.673 7.320 C 8.615 7.221,8.021 6.597,7.353 5.934 C 6.211 4.799,6.127 4.725,5.923 4.664 C 5.666 4.588,5.520 4.587,5.295 4.657 M18.040 4.669 C 17.891 4.721,17.654 4.936,16.647 5.936 C 15.979 6.598,15.385 7.221,15.327 7.320 C 15.237 7.472,15.220 7.547,15.220 7.800 C 15.220 8.057,15.236 8.127,15.333 8.292 C 15.463 8.514,15.702 8.701,15.936 8.765 C 16.139 8.819,16.467 8.789,16.645 8.699 C 16.830 8.606,19.140 6.304,19.273 6.080 C 19.364 5.928,19.380 5.854,19.380 5.600 C 19.380 5.346,19.363 5.272,19.272 5.116 C 19.017 4.683,18.520 4.502,18.040 4.669 M2.695 11.057 C 2.466 11.129,2.256 11.299,2.128 11.516 C 2.037 11.672,2.020 11.746,2.020 12.000 C 2.020 12.256,2.036 12.328,2.131 12.489 C 2.256 12.702,2.449 12.864,2.670 12.943 C 2.888 13.021,6.112 13.021,6.330 12.943 C 6.551 12.864,6.744 12.702,6.869 12.489 C 6.964 12.328,6.980 12.256,6.980 12.000 C 6.980 11.746,6.963 11.672,6.872 11.516 C 6.740 11.293,6.533 11.128,6.290 11.055 C 6.035 10.978,2.941 10.980,2.695 11.057 M11.643 11.069 C 11.284 11.196,11.000 11.614,11.000 12.017 C 11.000 12.124,11.527 13.759,12.544 16.812 C 13.793 20.558,14.113 21.477,14.215 21.610 C 14.463 21.936,14.922 22.072,15.322 21.939 C 15.712 21.810,15.766 21.726,16.800 19.644 L 17.740 17.752 19.660 16.791 C 21.753 15.744,21.812 15.706,21.941 15.318 C 22.072 14.922,21.935 14.462,21.610 14.215 C 21.382 14.041,12.277 10.998,11.999 11.003 C 11.901 11.005,11.741 11.034,11.643 11.069 M16.060 14.414 L 18.380 15.188 17.417 15.671 C 16.888 15.936,16.397 16.201,16.327 16.260 C 16.237 16.336,16.049 16.666,15.693 17.374 L 15.187 18.380 14.413 16.060 C 13.988 14.784,13.629 13.707,13.616 13.666 C 13.597 13.608,13.608 13.597,13.666 13.616 C 13.707 13.629,14.784 13.988,16.060 14.414 M7.440 15.269 C 7.291 15.321,7.054 15.536,6.047 16.536 C 5.379 17.198,4.785 17.821,4.727 17.920 C 4.637 18.072,4.620 18.147,4.620 18.400 C 4.620 18.657,4.636 18.727,4.733 18.892 C 4.863 19.114,5.102 19.301,5.336 19.365 C 5.539 19.419,5.867 19.389,6.045 19.299 C 6.230 19.206,8.540 16.904,8.673 16.680 C 8.764 16.528,8.780 16.454,8.780 16.200 C 8.780 15.946,8.763 15.872,8.672 15.716 C 8.417 15.283,7.920 15.102,7.440 15.269 " stroke="none" fill-rule="evenodd" fill="black"></path></svg>