<svg xmlns="http://www.w3.org/2000/svg" width="24" height="24" viewBox="0 0 24 24" fill="none" stroke="currentColor" stroke-width="2" stroke-linecap="round" stroke-linejoin="round"><path d="M2.650 2.066 C 2.085 2.266,1.831 3.001,2.149 3.514 C 2.354 3.847,2.460 3.893,3.782 4.226 L 4.980 4.527 5.834 4.319 L 6.688 4.110 6.768 4.191 L 6.849 4.271 6.424 5.549 C 6.191 6.252,6.000 6.889,6.000 6.965 C 6.000 7.040,6.207 8.136,6.460 9.400 C 6.713 10.664,6.920 11.732,6.920 11.773 C 6.920 11.814,6.643 12.309,6.305 12.874 C 5.967 13.438,5.658 13.963,5.618 14.040 C 5.578 14.117,5.435 14.729,5.300 15.400 L 5.055 16.620 4.083 18.077 C 3.548 18.878,3.084 19.611,3.052 19.705 C 3.007 19.838,2.997 20.041,3.007 20.592 L 3.020 21.307 3.141 21.503 C 3.543 22.156,4.457 22.156,4.858 21.504 C 4.972 21.320,4.980 21.280,4.999 20.784 L 5.020 20.260 5.955 18.863 C 6.469 18.095,6.913 17.393,6.943 17.303 C 6.972 17.214,7.098 16.627,7.222 16.000 L 7.448 14.860 8.178 13.640 C 8.921 12.399,9.000 12.244,9.000 12.024 C 9.000 11.956,8.783 10.815,8.518 9.489 L 8.035 7.077 8.518 5.626 C 8.811 4.742,9.000 4.111,9.000 4.014 C 9.000 3.645,8.909 3.502,8.246 2.830 C 7.315 1.885,7.326 1.888,5.950 2.232 L 5.000 2.469 4.055 2.235 C 3.056 1.987,2.921 1.970,2.650 2.066 M14.477 5.073 C 13.806 5.249,13.238 5.823,13.060 6.508 C 12.941 6.962,13.003 7.492,13.225 7.930 C 13.361 8.199,13.801 8.639,14.070 8.775 C 14.659 9.073,15.341 9.073,15.930 8.775 C 16.196 8.640,16.638 8.200,16.771 7.937 C 17.161 7.168,17.043 6.275,16.471 5.659 C 16.074 5.232,15.563 5.005,15.000 5.005 C 14.857 5.005,14.622 5.036,14.477 5.073 M19.240 5.035 C 18.935 5.135,18.646 5.397,18.566 5.645 C 18.542 5.719,18.424 6.372,18.303 7.094 C 18.183 7.817,18.079 8.413,18.072 8.419 C 18.065 8.425,17.543 8.773,16.912 9.194 L 15.764 9.958 14.432 9.769 L 13.100 9.579 12.160 8.180 C 11.067 6.554,11.062 6.549,10.523 6.528 C 10.246 6.517,10.202 6.527,10.008 6.640 C 9.540 6.913,9.376 7.488,9.627 7.974 C 9.663 8.043,10.159 8.799,10.729 9.653 C 11.853 11.335,11.892 11.380,12.312 11.476 C 12.416 11.499,13.094 11.602,13.820 11.704 C 14.546 11.806,15.145 11.894,15.151 11.899 C 15.156 11.904,15.359 12.894,15.600 14.100 C 15.871 15.454,16.071 16.359,16.123 16.465 C 16.169 16.560,16.262 16.685,16.330 16.743 C 16.399 16.800,17.086 17.162,17.857 17.548 C 18.629 17.933,19.268 18.256,19.278 18.266 C 19.288 18.275,18.817 18.763,18.232 19.351 C 17.647 19.939,17.136 20.483,17.095 20.560 C 17.043 20.659,17.021 20.787,17.021 21.000 C 17.020 21.258,17.036 21.327,17.133 21.492 C 17.413 21.968,18.033 22.138,18.492 21.865 C 18.707 21.738,21.807 18.626,21.905 18.440 C 21.957 18.341,21.979 18.212,21.979 18.000 C 21.980 17.743,21.964 17.673,21.869 17.511 C 21.808 17.408,21.700 17.279,21.629 17.225 C 21.558 17.172,20.688 16.722,19.695 16.226 C 18.212 15.486,17.886 15.308,17.868 15.232 C 17.724 14.626,17.122 11.463,17.147 11.440 C 17.165 11.424,17.748 11.032,18.442 10.569 C 19.764 9.688,19.863 9.602,19.958 9.260 C 19.982 9.172,20.117 8.398,20.259 7.539 C 20.478 6.208,20.510 5.952,20.476 5.799 C 20.410 5.505,20.212 5.250,19.943 5.112 C 19.771 5.024,19.399 4.983,19.240 5.035 M10.240 17.035 C 9.940 17.133,9.686 17.361,9.569 17.637 C 9.444 17.932,9.522 18.406,9.732 18.635 C 9.853 18.767,12.375 20.788,12.541 20.886 C 12.739 21.003,13.064 21.025,13.325 20.940 C 13.522 20.875,13.634 20.776,14.653 19.765 C 15.265 19.157,15.814 18.579,15.873 18.480 C 15.963 18.328,15.980 18.254,15.980 18.000 C 15.980 17.746,15.963 17.672,15.872 17.516 C 15.617 17.083,15.135 16.905,14.657 17.067 C 14.490 17.123,14.343 17.249,13.691 17.893 C 13.120 18.456,12.909 18.641,12.871 18.612 C 12.843 18.590,12.424 18.257,11.940 17.871 C 11.456 17.486,10.999 17.139,10.924 17.101 C 10.769 17.022,10.390 16.986,10.240 17.035 " stroke="none" fill-rule="evenodd" fill="black"></path></svg>