<svg xmlns="http://www.w3.org/2000/svg" width="24" height="24" viewBox="0 0 24 24" fill="none" stroke="currentColor" stroke-width="2" stroke-linecap="round" stroke-linejoin="round"><path d="M10.499 2.042 C 9.560 2.206,8.740 2.816,8.314 3.666 L 8.151 3.991 7.306 4.010 C 6.558 4.026,6.423 4.040,6.139 4.125 C 5.180 4.416,4.420 5.180,4.114 6.160 L 4.020 6.460 4.020 13.000 L 4.020 19.540 4.114 19.840 C 4.422 20.827,5.173 21.578,6.160 21.886 L 6.460 21.980 12.000 21.980 L 17.540 21.980 17.840 21.886 C 18.827 21.578,19.578 20.827,19.886 19.840 L 19.980 19.540 19.980 13.000 L 19.980 6.460 19.886 6.160 C 19.580 5.180,18.820 4.416,17.861 4.125 C 17.577 4.040,17.442 4.026,16.694 4.010 L 15.849 3.991 15.686 3.666 C 15.322 2.939,14.643 2.365,13.861 2.124 C 13.548 2.027,13.504 2.024,12.120 2.015 C 11.339 2.010,10.609 2.022,10.499 2.042 M13.310 4.061 C 13.688 4.173,14.000 4.598,14.000 5.001 C 14.000 5.331,13.784 5.696,13.484 5.872 L 13.300 5.980 12.000 5.980 L 10.700 5.980 10.516 5.872 C 9.935 5.530,9.833 4.774,10.304 4.303 C 10.584 4.022,10.675 4.006,11.983 4.003 C 12.878 4.001,13.147 4.012,13.310 4.061 M8.312 6.330 C 8.682 7.068,9.354 7.635,10.160 7.886 C 10.453 7.978,10.497 7.980,12.000 7.980 C 13.503 7.980,13.547 7.978,13.840 7.886 C 14.646 7.635,15.318 7.068,15.688 6.330 L 15.853 6.000 16.479 6.000 C 17.256 6.000,17.439 6.046,17.697 6.303 C 18.023 6.629,18.000 6.126,18.000 13.001 C 18.000 18.059,17.991 19.139,17.945 19.290 C 17.872 19.533,17.707 19.740,17.484 19.872 L 17.300 19.980 12.000 19.980 L 6.700 19.980 6.516 19.872 C 6.415 19.813,6.284 19.700,6.225 19.623 C 5.987 19.311,6.000 19.701,6.000 13.022 C 6.000 6.123,5.977 6.629,6.304 6.303 C 6.560 6.046,6.721 6.006,7.503 6.003 L 8.147 6.000 8.312 6.330 M8.695 12.057 C 8.466 12.129,8.256 12.299,8.128 12.516 L 8.020 12.700 8.020 15.003 L 8.020 17.306 8.141 17.503 C 8.209 17.613,8.346 17.756,8.452 17.828 C 8.923 18.144,9.554 17.999,9.859 17.503 L 9.980 17.306 9.980 15.003 L 9.980 12.700 9.872 12.516 C 9.628 12.101,9.150 11.915,8.695 12.057 M14.695 14.057 C 14.466 14.129,14.256 14.299,14.128 14.516 L 14.020 14.700 14.020 16.003 L 14.020 17.306 14.141 17.503 C 14.543 18.156,15.457 18.156,15.859 17.503 L 15.980 17.306 15.980 16.003 L 15.980 14.700 15.872 14.516 C 15.628 14.101,15.150 13.915,14.695 14.057 M11.580 15.095 C 11.340 15.209,11.193 15.358,11.083 15.600 C 11.011 15.760,11.002 15.862,11.001 16.500 C 11.001 17.174,11.007 17.233,11.095 17.420 C 11.268 17.785,11.601 17.998,12.000 17.998 C 12.399 17.998,12.732 17.785,12.905 17.420 C 12.993 17.233,12.999 17.174,12.999 16.500 C 12.999 15.826,12.993 15.767,12.905 15.580 C 12.664 15.072,12.081 14.858,11.580 15.095 " stroke="none" fill-rule="evenodd" fill="black"></path></svg>