<svg xmlns="http://www.w3.org/2000/svg" width="24" height="24" viewBox="0 0 24 24" fill="none" stroke="currentColor" stroke-width="2" stroke-linecap="round" stroke-linejoin="round"><path d="M11.380 2.024 C 10.286 2.134,9.698 2.242,9.003 2.463 C 6.470 3.265,4.358 5.034,3.137 7.377 C 1.877 9.793,1.659 12.577,2.526 15.180 C 3.752 18.862,6.997 21.481,10.900 21.938 C 11.785 22.042,13.088 22.001,13.428 21.859 C 13.627 21.776,13.871 21.540,13.964 21.340 C 14.135 20.971,14.008 20.418,13.698 20.181 C 13.412 19.963,13.341 19.951,12.464 19.982 C 11.285 20.023,10.460 19.912,9.440 19.575 C 6.950 18.754,4.945 16.615,4.280 14.071 C 3.399 10.703,4.728 7.216,7.620 5.309 C 7.818 5.179,8.214 4.957,8.500 4.817 C 11.596 3.299,15.370 3.964,17.740 6.445 C 18.198 6.925,18.326 7.084,18.671 7.600 C 19.203 8.398,19.547 9.200,19.783 10.193 C 19.961 10.942,19.972 10.968,20.207 11.178 C 20.452 11.399,20.619 11.456,20.944 11.430 C 21.399 11.393,21.747 11.090,21.842 10.649 C 21.932 10.226,21.515 8.719,21.026 7.702 C 20.235 6.057,19.050 4.688,17.560 3.699 C 16.259 2.835,14.976 2.342,13.400 2.101 C 12.998 2.039,11.715 1.990,11.380 2.024 M11.695 6.057 C 11.466 6.129,11.256 6.299,11.128 6.516 L 11.020 6.700 11.009 9.416 C 10.999 11.873,11.004 12.152,11.065 12.336 C 11.124 12.514,11.237 12.646,11.956 13.374 C 12.409 13.833,12.853 14.259,12.943 14.321 C 13.391 14.632,14.068 14.487,14.340 14.023 C 14.528 13.703,14.533 13.249,14.351 12.981 C 14.305 12.915,13.983 12.572,13.635 12.220 L 13.002 11.580 12.991 9.140 L 12.980 6.700 12.872 6.516 C 12.628 6.101,12.150 5.915,11.695 6.057 M18.695 13.057 C 18.342 13.168,18.095 13.451,18.019 13.835 L 17.976 14.050 17.757 14.118 C 17.003 14.351,16.361 14.980,16.118 15.722 C 16.034 15.976,16.020 16.094,16.022 16.520 C 16.024 16.960,16.038 17.056,16.133 17.320 C 16.394 18.039,16.964 18.609,17.680 18.867 C 17.961 18.968,18.033 18.976,18.800 18.992 C 19.702 19.010,19.786 19.030,19.922 19.252 C 20.021 19.415,20.021 19.585,19.922 19.748 C 19.770 19.996,19.746 20.000,18.248 20.000 C 16.774 20.000,16.653 20.014,16.382 20.221 C 16.302 20.282,16.187 20.415,16.128 20.516 C 16.037 20.672,16.020 20.746,16.020 21.000 C 16.020 21.256,16.036 21.328,16.131 21.489 C 16.256 21.702,16.449 21.864,16.670 21.943 C 16.768 21.978,17.022 21.997,17.405 21.998 L 17.991 22.000 18.018 22.179 C 18.054 22.422,18.258 22.712,18.497 22.859 C 18.671 22.966,18.729 22.980,19.000 22.980 C 19.271 22.980,19.329 22.966,19.503 22.859 C 19.752 22.706,19.949 22.419,19.984 22.160 L 20.010 21.966 20.294 21.873 C 21.001 21.642,21.605 21.046,21.868 20.320 C 21.965 20.052,21.976 19.965,21.976 19.500 C 21.976 19.035,21.965 18.948,21.868 18.680 C 21.646 18.068,21.195 17.561,20.620 17.277 C 20.172 17.055,19.869 17.002,19.068 17.001 C 18.319 17.000,18.216 16.974,18.078 16.748 C 17.932 16.508,18.023 16.193,18.276 16.062 C 18.377 16.010,18.612 16.000,19.788 15.998 C 21.285 15.996,21.350 15.989,21.619 15.783 C 21.696 15.725,21.808 15.592,21.869 15.489 C 21.964 15.328,21.980 15.256,21.980 15.000 C 21.980 14.746,21.963 14.672,21.872 14.516 C 21.634 14.111,21.351 14.000,20.559 14.000 L 20.010 14.000 19.983 13.830 C 19.926 13.473,19.648 13.163,19.290 13.055 C 19.068 12.988,18.913 12.989,18.695 13.057 " stroke="none" fill-rule="evenodd" fill="black"></path></svg>