<svg xmlns="http://www.w3.org/2000/svg" width="24" height="24" viewBox="0 0 24 24" fill="none" stroke="currentColor" stroke-width="2" stroke-linecap="round" stroke-linejoin="round"><path d="M11.240 2.025 C 8.763 2.251,6.657 3.225,4.939 4.940 C 3.371 6.505,2.451 8.350,2.095 10.640 C 1.993 11.292,1.994 12.803,2.096 13.420 C 2.569 16.291,4.029 18.639,6.320 20.217 C 8.049 21.407,10.101 22.044,12.036 21.993 C 12.652 21.977,12.773 21.938,13.036 21.674 C 13.507 21.204,13.363 20.408,12.752 20.104 C 12.560 20.008,12.504 20.000,12.016 20.000 C 8.867 20.000,6.015 18.159,4.726 15.295 C 4.165 14.051,3.927 12.721,4.033 11.434 C 4.177 9.682,4.783 8.174,5.863 6.880 C 7.751 4.619,10.714 3.581,13.620 4.164 C 14.774 4.396,16.077 5.012,17.043 5.783 C 18.519 6.960,19.602 8.837,19.905 10.740 C 19.936 10.938,19.972 11.406,19.984 11.780 C 20.008 12.550,20.050 12.723,20.276 12.973 C 20.545 13.272,21.005 13.374,21.390 13.219 C 21.616 13.129,21.894 12.817,21.960 12.579 C 22.067 12.198,21.969 10.740,21.778 9.860 C 21.249 7.422,19.741 5.185,17.660 3.752 C 16.469 2.932,14.944 2.332,13.460 2.100 C 13.073 2.039,11.621 1.990,11.240 2.025 M11.695 6.057 C 11.466 6.129,11.256 6.299,11.128 6.516 L 11.020 6.700 11.009 9.416 C 10.999 11.865,11.004 12.153,11.065 12.336 C 11.124 12.518,11.250 12.660,12.236 13.653 C 12.843 14.266,13.416 14.811,13.508 14.866 C 13.969 15.138,14.588 14.968,14.867 14.492 C 14.964 14.327,14.980 14.258,14.979 14.000 C 14.979 13.787,14.957 13.659,14.905 13.560 C 14.864 13.483,14.419 13.006,13.917 12.500 L 13.002 11.580 12.991 9.140 L 12.980 6.700 12.872 6.516 C 12.628 6.101,12.150 5.915,11.695 6.057 M18.358 15.061 C 17.230 15.237,16.143 15.974,15.569 16.953 C 14.320 19.083,15.233 21.785,17.512 22.704 C 19.558 23.528,21.877 22.538,22.704 20.488 C 23.090 19.530,23.090 18.469,22.705 17.516 C 22.172 16.197,21.001 15.269,19.605 15.058 C 19.144 14.989,18.816 14.990,18.358 15.061 M19.523 17.073 C 20.262 17.266,20.850 17.924,20.967 18.690 C 21.067 19.343,20.873 19.933,20.403 20.404 C 20.002 20.807,19.547 21.000,19.000 21.000 C 18.485 21.000,18.038 20.822,17.653 20.465 C 16.323 19.229,17.189 17.005,19.000 17.005 C 19.143 17.005,19.378 17.036,19.523 17.073 " stroke="none" fill-rule="evenodd" fill="black"></path></svg>