<svg xmlns="http://www.w3.org/2000/svg" width="24" height="24" viewBox="0 0 24 24" fill="none" stroke="currentColor" stroke-width="2" stroke-linecap="round" stroke-linejoin="round"><path d="M11.080 2.045 C 9.206 2.210,7.361 2.947,5.800 4.154 C 5.005 4.769,4.015 5.884,3.470 6.780 C 2.020 9.162,1.620 12.076,2.380 14.715 C 3.052 17.046,4.484 19.004,6.491 20.336 C 7.361 20.913,8.470 21.425,8.942 21.468 C 9.150 21.487,9.217 21.474,9.411 21.382 C 9.870 21.165,10.107 20.646,9.954 20.196 C 9.829 19.831,9.601 19.640,9.040 19.429 C 8.481 19.219,7.749 18.812,7.201 18.408 C 6.776 18.094,6.047 17.370,5.703 16.921 C 4.676 15.577,4.165 14.250,4.034 12.585 C 3.873 10.535,4.535 8.462,5.848 6.900 C 6.839 5.721,8.096 4.863,9.502 4.403 C 11.478 3.758,13.651 3.908,15.500 4.816 C 17.133 5.618,18.382 6.867,19.184 8.500 C 19.646 9.441,19.889 10.356,19.965 11.440 C 19.987 11.759,20.014 12.096,20.025 12.189 C 20.052 12.420,20.257 12.711,20.497 12.859 C 20.671 12.966,20.729 12.980,20.997 12.980 C 21.257 12.980,21.327 12.964,21.492 12.867 C 21.714 12.737,21.901 12.498,21.965 12.264 C 22.022 12.058,21.985 11.143,21.898 10.560 C 21.635 8.815,20.951 7.228,19.847 5.800 C 19.510 5.365,18.639 4.494,18.200 4.154 C 16.133 2.555,13.646 1.818,11.080 2.045 M11.695 6.057 C 11.466 6.129,11.256 6.299,11.128 6.516 L 11.020 6.700 11.020 9.503 L 11.020 12.306 11.141 12.503 C 11.543 13.156,12.457 13.156,12.859 12.503 L 12.980 12.306 12.980 9.503 L 12.980 6.700 12.872 6.516 C 12.628 6.101,12.150 5.915,11.695 6.057 M11.695 14.057 C 11.466 14.129,11.256 14.299,11.128 14.516 C 11.037 14.672,11.020 14.746,11.020 15.000 C 11.020 15.256,11.036 15.328,11.131 15.489 C 11.192 15.592,11.304 15.725,11.381 15.783 C 11.643 15.983,11.738 15.996,12.910 15.998 L 14.000 16.000 14.000 16.500 L 14.000 17.000 13.370 17.002 C 12.410 17.006,12.002 17.150,11.535 17.653 C 11.091 18.131,11.000 18.446,11.000 19.500 C 11.000 20.587,11.101 20.909,11.596 21.404 C 11.882 21.690,12.148 21.847,12.508 21.940 C 12.822 22.022,15.102 22.024,15.330 21.943 C 15.551 21.864,15.744 21.702,15.869 21.489 C 15.964 21.328,15.980 21.256,15.980 21.000 C 15.980 20.746,15.963 20.672,15.872 20.516 C 15.813 20.415,15.698 20.282,15.618 20.221 C 15.356 20.022,15.203 20.000,14.054 20.000 L 13.000 20.000 13.000 19.500 L 13.000 19.000 13.632 19.000 C 14.574 19.000,14.927 18.881,15.404 18.404 C 15.895 17.913,16.000 17.579,15.999 16.514 C 15.999 15.716,15.954 15.424,15.781 15.083 C 15.646 14.816,15.297 14.449,15.017 14.281 C 14.603 14.031,14.412 14.005,13.060 14.005 C 12.191 14.005,11.814 14.020,11.695 14.057 M17.695 14.057 C 17.466 14.129,17.256 14.299,17.128 14.516 L 17.020 14.700 17.008 15.953 C 17.000 16.748,17.012 17.283,17.039 17.416 C 17.114 17.779,17.299 18.107,17.591 18.399 C 18.073 18.881,18.424 19.000,19.366 19.000 L 19.995 19.000 20.008 20.153 L 20.020 21.307 20.141 21.503 C 20.543 22.156,21.457 22.156,21.859 21.503 L 21.980 21.306 21.980 18.003 L 21.980 14.700 21.871 14.514 C 21.730 14.275,21.485 14.096,21.214 14.035 C 20.792 13.941,20.352 14.134,20.129 14.514 L 20.020 14.700 20.008 15.850 L 19.995 17.000 19.500 17.000 L 19.005 17.000 18.992 15.850 L 18.980 14.700 18.872 14.516 C 18.628 14.101,18.150 13.915,17.695 14.057 " stroke="none" fill-rule="evenodd" fill="black"></path></svg>