<svg xmlns="http://www.w3.org/2000/svg" width="24" height="24" viewBox="0 0 24 24" fill="none" stroke="currentColor" stroke-width="2" stroke-linecap="round" stroke-linejoin="round"><path d="M11.080 2.045 C 9.507 2.184,7.883 2.751,6.540 3.630 C 5.905 4.045,5.499 4.378,4.919 4.958 C 2.953 6.926,1.919 9.544,2.013 12.320 C 2.084 14.439,2.752 16.328,4.033 18.040 C 4.430 18.570,5.305 19.464,5.800 19.847 C 7.231 20.953,8.815 21.635,10.560 21.898 C 11.143 21.985,12.058 22.022,12.264 21.965 C 12.498 21.901,12.737 21.714,12.867 21.492 C 12.964 21.327,12.980 21.257,12.980 21.000 C 12.980 20.746,12.963 20.672,12.872 20.516 C 12.665 20.165,12.334 20.000,11.832 20.000 C 10.817 20.000,9.549 19.693,8.529 19.200 C 7.477 18.693,6.612 18.015,5.847 17.100 C 4.102 15.014,3.551 12.113,4.403 9.502 C 4.953 7.820,6.121 6.296,7.620 5.309 C 8.119 4.980,8.929 4.591,9.502 4.403 C 11.478 3.758,13.651 3.908,15.500 4.816 C 17.133 5.618,18.382 6.867,19.184 8.500 C 19.646 9.441,19.889 10.356,19.965 11.440 C 19.987 11.759,20.014 12.096,20.025 12.189 C 20.052 12.420,20.257 12.711,20.497 12.859 C 20.671 12.966,20.729 12.980,20.997 12.980 C 21.257 12.980,21.327 12.964,21.492 12.867 C 21.714 12.737,21.901 12.498,21.965 12.264 C 22.022 12.058,21.985 11.143,21.898 10.560 C 21.635 8.815,20.951 7.228,19.847 5.800 C 19.510 5.365,18.639 4.494,18.200 4.154 C 16.133 2.555,13.646 1.818,11.080 2.045 M11.695 6.057 C 11.466 6.129,11.256 6.299,11.128 6.516 L 11.020 6.700 11.009 9.416 C 10.999 11.831,11.005 12.154,11.063 12.328 C 11.134 12.542,11.638 13.112,11.940 13.320 C 12.522 13.721,13.351 13.372,13.473 12.674 C 13.535 12.323,13.433 12.036,13.135 11.720 L 13.002 11.579 12.991 9.140 L 12.980 6.700 12.872 6.516 C 12.628 6.101,12.150 5.915,11.695 6.057 M14.695 14.057 C 14.466 14.129,14.256 14.299,14.128 14.516 L 14.020 14.700 14.020 18.003 L 14.020 21.306 14.141 21.503 C 14.543 22.156,15.457 22.156,15.859 21.503 L 15.980 21.306 15.980 18.003 L 15.980 14.700 15.872 14.516 C 15.628 14.101,15.150 13.915,14.695 14.057 M17.695 14.057 C 17.466 14.129,17.256 14.299,17.128 14.516 C 17.037 14.672,17.020 14.746,17.020 15.000 C 17.020 15.256,17.036 15.328,17.131 15.489 C 17.192 15.592,17.304 15.725,17.381 15.783 C 17.643 15.983,17.738 15.996,18.910 15.998 L 20.000 16.000 20.000 16.500 L 20.000 17.000 19.370 17.002 C 18.410 17.006,18.002 17.150,17.535 17.653 C 17.091 18.131,17.000 18.446,17.000 19.500 C 17.000 20.587,17.101 20.909,17.596 21.404 C 17.882 21.690,18.148 21.847,18.508 21.940 C 18.822 22.022,21.102 22.024,21.330 21.943 C 21.551 21.864,21.744 21.702,21.869 21.489 C 21.964 21.328,21.980 21.256,21.980 21.000 C 21.980 20.746,21.963 20.672,21.872 20.516 C 21.813 20.415,21.698 20.282,21.618 20.221 C 21.356 20.022,21.203 20.000,20.054 20.000 L 19.000 20.000 19.000 19.500 L 19.000 19.000 19.632 19.000 C 20.574 19.000,20.927 18.881,21.404 18.404 C 21.895 17.913,22.000 17.579,21.999 16.514 C 21.999 15.716,21.954 15.424,21.781 15.083 C 21.646 14.816,21.297 14.449,21.017 14.281 C 20.603 14.031,20.412 14.005,19.060 14.005 C 18.191 14.005,17.814 14.020,17.695 14.057 " stroke="none" fill-rule="evenodd" fill="black"></path></svg>