<svg xmlns="http://www.w3.org/2000/svg" width="24" height="24" viewBox="0 0 24 24" fill="none" stroke="currentColor" stroke-width="2" stroke-linecap="round" stroke-linejoin="round"><path d="M11.240 2.025 C 8.247 2.298,5.717 3.708,3.931 6.099 C 2.981 7.372,2.386 8.836,2.094 10.620 C 1.992 11.239,1.992 12.841,2.093 13.436 C 2.624 16.567,4.314 19.070,6.940 20.620 C 8.498 21.539,10.380 22.045,12.047 21.993 C 12.608 21.976,12.758 21.925,13.006 21.669 C 13.400 21.263,13.343 20.554,12.889 20.212 C 12.656 20.036,12.497 20.000,11.954 20.000 C 9.366 19.999,6.811 18.632,5.374 16.480 C 4.716 15.495,4.285 14.384,4.073 13.120 C 3.997 12.665,4.008 11.312,4.093 10.809 C 4.342 9.325,4.873 8.113,5.761 7.000 C 6.070 6.613,6.695 5.994,7.080 5.693 C 9.169 4.062,11.970 3.574,14.492 4.402 C 16.505 5.063,18.164 6.489,19.132 8.390 C 19.685 9.476,19.941 10.496,19.987 11.800 C 20.014 12.572,20.068 12.752,20.343 12.994 C 20.859 13.449,21.679 13.248,21.923 12.608 C 22.004 12.394,22.008 12.334,21.985 11.660 C 21.932 10.083,21.577 8.731,20.854 7.360 C 19.390 4.582,16.762 2.679,13.640 2.135 C 13.178 2.055,12.894 2.032,12.240 2.021 C 11.789 2.014,11.339 2.016,11.240 2.025 M11.695 6.057 C 11.466 6.129,11.256 6.299,11.128 6.516 L 11.020 6.700 11.009 9.416 C 10.999 11.865,11.004 12.153,11.065 12.336 C 11.124 12.518,11.250 12.660,12.236 13.653 C 12.843 14.266,13.416 14.811,13.508 14.866 C 13.969 15.138,14.588 14.968,14.867 14.492 C 14.964 14.327,14.980 14.258,14.979 14.000 C 14.979 13.787,14.957 13.659,14.905 13.560 C 14.864 13.483,14.419 13.006,13.917 12.500 L 13.002 11.580 12.991 9.140 L 12.980 6.700 12.872 6.516 C 12.628 6.101,12.150 5.915,11.695 6.057 M18.358 15.061 C 17.230 15.237,16.143 15.974,15.569 16.953 C 14.320 19.083,15.233 21.785,17.512 22.704 C 19.558 23.528,21.877 22.538,22.704 20.488 C 23.090 19.530,23.090 18.469,22.705 17.516 C 22.172 16.197,21.001 15.269,19.605 15.058 C 19.144 14.989,18.816 14.990,18.358 15.061 M19.470 17.057 C 19.485 17.071,18.954 17.626,18.290 18.290 C 17.626 18.954,17.072 19.486,17.059 19.472 C 17.045 19.459,17.024 19.314,17.012 19.150 C 16.940 18.202,17.563 17.318,18.477 17.071 C 18.735 17.001,19.405 16.991,19.470 17.057 M20.982 18.784 C 21.047 19.396,20.844 19.961,20.398 20.410 C 20.104 20.705,19.779 20.885,19.404 20.963 C 19.181 21.010,18.584 20.997,18.532 20.945 C 18.504 20.918,20.872 18.520,20.927 18.520 C 20.941 18.520,20.966 18.639,20.982 18.784 " stroke="none" fill-rule="evenodd" fill="black"></path></svg>