<svg xmlns="http://www.w3.org/2000/svg" width="24" height="24" viewBox="0 0 24 24" fill="none" stroke="currentColor" stroke-width="2" stroke-linecap="round" stroke-linejoin="round"><path d="M11.207 2.040 C 9.550 2.179,7.981 2.708,6.600 3.594 C 2.920 5.956,1.197 10.455,2.366 14.653 C 2.843 16.366,3.708 17.840,4.977 19.100 C 6.626 20.738,8.718 21.714,11.118 21.964 C 11.666 22.022,12.838 21.989,13.412 21.900 C 14.171 21.783,15.147 21.527,15.486 21.356 C 15.675 21.261,15.895 21.002,15.954 20.806 C 16.118 20.257,15.830 19.696,15.303 19.539 C 15.025 19.456,14.947 19.463,14.435 19.617 C 12.886 20.082,11.483 20.121,10.000 19.740 C 7.032 18.978,4.755 16.561,4.159 13.540 C 3.632 10.871,4.523 8.077,6.498 6.209 C 8.790 4.041,12.057 3.422,15.011 4.596 C 16.553 5.210,17.940 6.397,18.847 7.880 C 19.286 8.597,19.567 9.292,19.777 10.180 C 19.916 10.765,19.964 11.181,19.994 12.047 C 20.020 12.801,20.023 12.825,20.134 13.013 C 20.493 13.625,21.377 13.658,21.798 13.076 C 21.977 12.829,22.014 12.567,21.987 11.740 C 21.909 9.354,21.109 7.295,19.537 5.438 C 18.276 3.947,16.323 2.765,14.320 2.281 C 13.438 2.068,12.107 1.965,11.207 2.040 M11.695 6.057 C 11.466 6.129,11.256 6.299,11.128 6.516 L 11.020 6.700 11.009 9.416 C 10.999 11.858,11.005 12.153,11.064 12.336 C 11.125 12.522,11.275 12.685,12.735 14.153 C 13.618 15.040,14.421 15.814,14.520 15.873 C 14.672 15.963,14.746 15.980,15.000 15.980 C 15.257 15.980,15.327 15.964,15.492 15.867 C 15.714 15.737,15.901 15.498,15.965 15.264 C 16.019 15.061,15.989 14.733,15.899 14.555 C 15.862 14.481,15.195 13.781,14.417 13.000 L 13.002 11.580 12.991 9.140 L 12.980 6.700 12.872 6.516 C 12.628 6.101,12.150 5.915,11.695 6.057 M18.695 15.057 C 18.466 15.129,18.256 15.299,18.128 15.516 L 18.020 15.700 18.020 17.503 L 18.020 19.306 18.141 19.503 C 18.543 20.156,19.457 20.156,19.859 19.503 L 19.980 19.306 19.980 17.503 L 19.980 15.700 19.872 15.516 C 19.628 15.101,19.150 14.915,18.695 15.057 M18.695 21.057 C 18.466 21.129,18.256 21.299,18.128 21.516 C 18.036 21.672,18.020 21.745,18.021 22.000 C 18.022 22.332,18.101 22.533,18.306 22.728 C 18.785 23.181,19.580 23.046,19.893 22.460 C 20.025 22.211,20.015 21.760,19.872 21.516 C 19.628 21.101,19.150 20.915,18.695 21.057 " stroke="none" fill-rule="evenodd" fill="black"></path></svg>