<svg xmlns="http://www.w3.org/2000/svg" width="24" height="24" viewBox="0 0 24 24" fill="none" stroke="currentColor" stroke-width="2" stroke-linecap="round" stroke-linejoin="round"><path d="M11.100 2.042 C 5.817 2.535,1.835 7.038,2.013 12.320 C 2.077 14.236,2.622 15.939,3.679 17.531 C 5.002 19.523,6.959 20.953,9.273 21.618 C 10.096 21.855,11.210 22.018,11.560 21.952 C 12.005 21.870,12.324 21.510,12.353 21.060 C 12.371 20.770,12.322 20.590,12.165 20.373 C 11.986 20.126,11.732 20.015,11.221 19.961 C 8.536 19.677,6.215 18.122,4.949 15.760 C 4.077 14.134,3.799 12.245,4.163 10.420 C 4.720 7.625,6.793 5.294,9.516 4.400 C 11.026 3.904,12.789 3.883,14.307 4.344 C 17.294 5.250,19.518 7.856,19.919 10.920 C 19.981 11.394,20.060 11.611,20.233 11.781 C 20.470 12.015,20.661 12.098,20.960 12.096 C 21.259 12.094,21.467 12.005,21.666 11.794 C 21.948 11.493,21.996 11.248,21.902 10.598 C 21.305 6.467,18.223 3.141,14.160 2.243 C 13.283 2.050,11.957 1.963,11.100 2.042 M11.695 6.057 C 11.466 6.129,11.256 6.299,11.128 6.516 L 11.020 6.700 11.009 9.416 C 10.999 11.831,11.005 12.154,11.063 12.328 C 11.134 12.542,11.638 13.112,11.940 13.320 C 12.522 13.721,13.351 13.372,13.473 12.674 C 13.535 12.323,13.433 12.036,13.135 11.720 L 13.002 11.579 12.991 9.140 L 12.980 6.700 12.872 6.516 C 12.628 6.101,12.150 5.915,11.695 6.057 M15.699 14.037 C 14.670 14.202,13.737 14.905,13.305 15.840 C 13.072 16.345,13.021 16.592,13.024 17.200 C 13.026 17.692,13.037 17.773,13.149 18.111 C 13.392 18.843,13.413 18.869,15.473 20.912 C 16.500 21.930,17.421 22.812,17.520 22.872 C 17.673 22.964,17.745 22.980,18.000 22.980 C 18.254 22.980,18.327 22.964,18.480 22.873 C 18.579 22.814,19.509 21.923,20.547 20.893 C 22.582 18.874,22.591 18.863,22.818 18.213 C 23.020 17.636,23.050 16.947,22.900 16.380 C 22.746 15.802,22.353 15.189,21.871 14.775 C 20.903 13.943,19.453 13.773,18.325 14.360 L 18.013 14.522 17.697 14.363 C 17.245 14.135,16.862 14.039,16.340 14.020 C 16.098 14.012,15.810 14.019,15.699 14.037 M16.756 16.138 C 16.867 16.194,17.072 16.348,17.213 16.480 C 17.512 16.759,17.693 16.846,17.980 16.849 C 18.293 16.851,18.459 16.777,18.773 16.492 C 19.235 16.074,19.562 15.956,20.020 16.041 C 20.841 16.193,21.259 17.127,20.806 17.797 C 20.748 17.883,20.101 18.542,19.368 19.262 C 18.242 20.369,18.025 20.565,17.961 20.535 C 17.919 20.516,17.278 19.898,16.537 19.163 C 15.024 17.661,15.020 17.657,15.023 17.160 C 15.025 16.915,15.045 16.822,15.133 16.651 C 15.292 16.341,15.584 16.126,15.980 16.025 C 16.158 15.979,16.559 16.038,16.756 16.138 " stroke="none" fill-rule="evenodd" fill="black"></path></svg>