<svg xmlns="http://www.w3.org/2000/svg" width="24" height="24" viewBox="0 0 24 24" fill="none" stroke="currentColor" stroke-width="2" stroke-linecap="round" stroke-linejoin="round"><path d="M11.080 2.045 C 9.911 2.148,8.573 2.530,7.513 3.063 C 5.902 3.874,4.396 5.258,3.470 6.780 C 1.513 9.994,1.513 14.006,3.470 17.220 C 4.243 18.489,5.511 19.758,6.780 20.530 C 8.227 21.411,9.861 21.910,11.542 21.986 C 12.230 22.017,12.425 21.969,12.696 21.698 C 13.098 21.296,13.097 20.703,12.694 20.300 C 12.481 20.087,12.231 20.000,11.831 20.000 C 10.817 20.000,9.548 19.693,8.529 19.200 C 7.477 18.693,6.612 18.015,5.847 17.100 C 4.102 15.014,3.551 12.113,4.403 9.502 C 4.953 7.820,6.121 6.296,7.620 5.309 C 9.947 3.776,12.982 3.586,15.499 4.817 C 17.127 5.612,18.388 6.873,19.183 8.501 C 19.648 9.452,19.889 10.358,19.965 11.440 C 19.987 11.759,20.014 12.096,20.025 12.189 C 20.052 12.420,20.257 12.711,20.497 12.859 C 20.671 12.966,20.729 12.980,20.997 12.980 C 21.257 12.980,21.327 12.964,21.492 12.867 C 21.714 12.737,21.901 12.498,21.965 12.264 C 22.022 12.058,21.985 11.143,21.898 10.560 C 21.635 8.815,20.951 7.228,19.847 5.800 C 19.510 5.365,18.639 4.494,18.200 4.154 C 16.133 2.555,13.646 1.818,11.080 2.045 M11.695 6.057 C 11.466 6.129,11.256 6.299,11.128 6.516 L 11.020 6.700 11.009 9.416 C 10.999 11.865,11.004 12.153,11.065 12.336 C 11.124 12.518,11.250 12.660,12.236 13.653 C 12.843 14.266,13.416 14.811,13.508 14.866 C 13.969 15.138,14.588 14.968,14.867 14.492 C 14.964 14.327,14.980 14.258,14.979 14.000 C 14.979 13.787,14.957 13.659,14.905 13.560 C 14.864 13.483,14.419 13.006,13.917 12.500 L 13.002 11.580 12.991 9.140 L 12.980 6.700 12.872 6.516 C 12.628 6.101,12.150 5.915,11.695 6.057 M18.617 14.577 C 18.415 14.665,18.193 14.886,18.094 15.100 C 18.015 15.270,18.001 15.364,18.000 15.724 L 18.000 16.148 17.708 16.292 C 17.548 16.371,17.334 16.499,17.233 16.576 L 17.050 16.716 16.664 16.503 C 16.211 16.253,15.998 16.209,15.686 16.302 C 15.161 16.458,14.862 17.002,15.014 17.526 C 15.098 17.815,15.269 17.998,15.677 18.238 L 16.014 18.436 16.017 19.002 L 16.020 19.567 15.649 19.786 C 15.230 20.032,15.075 20.208,14.999 20.524 C 14.876 21.035,15.183 21.552,15.700 21.702 C 16.043 21.802,16.254 21.745,16.876 21.388 L 17.053 21.286 17.235 21.425 C 17.335 21.501,17.548 21.629,17.708 21.708 L 18.000 21.852 18.000 22.276 C 18.001 22.638,18.015 22.729,18.095 22.900 C 18.276 23.281,18.595 23.488,19.000 23.488 C 19.405 23.488,19.724 23.281,19.905 22.900 C 19.986 22.729,19.999 22.639,20.000 22.274 L 20.000 21.848 20.269 21.721 C 20.418 21.652,20.633 21.524,20.749 21.437 L 20.959 21.278 21.120 21.380 C 21.666 21.725,21.988 21.810,22.323 21.699 C 22.828 21.531,23.121 21.024,23.001 20.524 C 22.926 20.210,22.771 20.034,22.352 19.784 L 21.980 19.562 21.983 18.999 L 21.986 18.436 22.323 18.238 C 22.731 17.998,22.902 17.815,22.986 17.526 C 23.138 17.002,22.839 16.458,22.314 16.302 C 22.002 16.209,21.789 16.253,21.336 16.503 L 20.950 16.716 20.767 16.576 C 20.666 16.499,20.452 16.371,20.292 16.292 L 20.000 16.148 20.000 15.724 C 19.999 15.362,19.985 15.271,19.905 15.100 C 19.793 14.865,19.599 14.669,19.391 14.582 C 19.210 14.506,18.785 14.503,18.617 14.577 M19.260 18.044 C 19.497 18.107,19.701 18.263,19.849 18.494 C 19.968 18.679,19.980 18.727,19.980 19.003 C 19.980 19.287,19.970 19.322,19.831 19.531 C 19.613 19.859,19.389 19.980,19.000 19.979 C 18.665 19.978,18.526 19.923,18.308 19.705 C 18.104 19.501,18.022 19.300,18.022 19.000 C 18.022 18.334,18.621 17.871,19.260 18.044 " stroke="none" fill-rule="evenodd" fill="black"></path></svg>