<svg xmlns="http://www.w3.org/2000/svg" width="24" height="24" viewBox="0 0 24 24" fill="none" stroke="currentColor" stroke-width="2" stroke-linecap="round" stroke-linejoin="round"><path d="M4.477 3.073 C 3.806 3.249,3.238 3.823,3.060 4.508 C 3.008 4.707,3.000 5.691,3.000 12.000 C 3.000 19.922,2.987 19.460,3.225 19.930 C 3.361 20.199,3.801 20.639,4.070 20.775 C 4.540 21.013,4.078 21.000,12.000 21.000 C 19.922 21.000,19.460 21.013,19.930 20.775 C 20.196 20.640,20.638 20.200,20.771 19.937 C 21.014 19.459,21.000 19.929,20.999 12.014 C 20.999 4.156,21.009 4.532,20.781 4.083 C 20.646 3.816,20.297 3.449,20.017 3.281 C 19.525 2.985,20.100 3.005,12.000 3.005 C 5.266 3.005,4.721 3.010,4.477 3.073 M19.000 7.994 L 19.000 10.987 18.786 11.035 C 18.515 11.096,18.270 11.275,18.129 11.514 C 18.036 11.672,18.020 11.745,18.020 12.003 C 18.020 12.271,18.034 12.329,18.141 12.503 C 18.288 12.742,18.578 12.946,18.821 12.982 L 19.000 13.009 19.000 16.005 L 19.000 19.000 16.005 19.000 L 13.010 19.000 12.983 18.830 C 12.896 18.285,12.334 17.913,11.786 18.035 C 11.392 18.123,11.078 18.448,11.017 18.830 L 10.990 19.000 7.995 19.000 L 5.000 19.000 5.000 16.005 L 5.000 13.009 5.179 12.982 C 5.422 12.946,5.712 12.742,5.859 12.503 C 5.966 12.329,5.980 12.271,5.980 12.003 C 5.980 11.745,5.964 11.672,5.871 11.514 C 5.730 11.275,5.485 11.096,5.214 11.035 L 5.000 10.987 5.000 7.994 L 5.000 5.000 12.000 5.000 L 19.000 5.000 19.000 7.994 M11.695 6.057 C 11.466 6.129,11.256 6.299,11.128 6.516 L 11.020 6.700 11.009 9.416 C 10.999 11.858,11.005 12.153,11.064 12.336 C 11.125 12.522,11.275 12.685,12.735 14.153 C 13.618 15.040,14.421 15.814,14.520 15.873 C 14.672 15.963,14.746 15.980,15.000 15.980 C 15.257 15.980,15.327 15.964,15.492 15.867 C 15.714 15.737,15.901 15.498,15.965 15.264 C 16.019 15.061,15.989 14.733,15.899 14.555 C 15.862 14.481,15.195 13.781,14.417 13.000 L 13.002 11.580 12.991 9.140 L 12.980 6.700 12.872 6.516 C 12.628 6.101,12.150 5.915,11.695 6.057 " stroke="none" fill-rule="evenodd" fill="black"></path></svg>