<svg xmlns="http://www.w3.org/2000/svg" width="24" height="24" viewBox="0 0 24 24" fill="none" stroke="currentColor" stroke-width="2" stroke-linecap="round" stroke-linejoin="round"><path d="M11.140 2.042 C 9.707 2.187,8.478 2.555,7.279 3.200 C 6.190 3.785,5.220 4.556,4.461 5.440 C 3.192 6.916,2.454 8.509,2.114 10.502 C 1.994 11.203,1.985 12.700,2.096 13.400 C 2.485 15.865,3.642 17.988,5.440 19.535 C 6.724 20.640,8.060 21.328,9.680 21.719 C 10.424 21.898,10.900 21.961,11.700 21.987 C 12.928 22.026,13.493 21.926,13.746 21.625 C 14.111 21.194,14.073 20.496,13.668 20.189 C 13.388 19.977,13.415 19.981,12.180 19.978 C 10.947 19.975,10.785 19.957,9.980 19.743 C 7.550 19.096,5.571 17.364,4.607 15.040 C 3.920 13.385,3.820 11.567,4.318 9.794 C 4.697 8.442,5.345 7.360,6.396 6.320 C 7.872 4.861,9.663 4.093,11.780 4.011 C 13.056 3.962,14.303 4.232,15.500 4.818 C 17.218 5.657,18.518 7.003,19.299 8.750 C 19.943 10.192,20.136 11.644,19.895 13.252 C 19.830 13.690,19.830 13.733,19.892 13.930 C 20.027 14.357,20.405 14.640,20.843 14.640 C 21.126 14.640,21.316 14.563,21.541 14.355 C 21.747 14.165,21.806 14.007,21.906 13.380 C 22.007 12.748,22.006 11.279,21.905 10.620 C 21.596 8.620,20.825 6.936,19.533 5.436 C 17.972 3.624,15.666 2.394,13.240 2.080 C 12.772 2.019,11.576 1.997,11.140 2.042 M11.695 6.057 C 11.466 6.129,11.256 6.299,11.128 6.516 L 11.020 6.700 11.009 9.416 C 10.999 11.865,11.004 12.153,11.065 12.336 C 11.124 12.518,11.250 12.660,12.236 13.653 C 12.843 14.266,13.416 14.811,13.508 14.866 C 13.969 15.138,14.588 14.968,14.867 14.492 C 14.964 14.327,14.980 14.258,14.979 14.000 C 14.979 13.787,14.957 13.659,14.905 13.560 C 14.864 13.483,14.419 13.006,13.917 12.500 L 13.002 11.580 12.991 9.140 L 12.980 6.700 12.872 6.516 C 12.628 6.101,12.150 5.915,11.695 6.057 M16.667 15.065 C 16.415 15.142,16.155 15.400,16.066 15.660 C 16.007 15.835,16.000 16.175,16.002 19.017 C 16.004 22.427,15.998 22.332,16.217 22.619 C 16.444 22.917,16.919 23.071,17.264 22.960 C 17.350 22.932,18.603 22.200,20.049 21.333 C 21.892 20.228,22.708 19.718,22.778 19.626 C 23.065 19.250,23.067 18.753,22.784 18.382 C 22.707 18.280,21.975 17.821,20.049 16.667 C 18.603 15.801,17.359 15.071,17.284 15.046 C 17.106 14.986,16.905 14.992,16.667 15.065 M18.994 18.366 C 19.514 18.677,19.961 18.951,19.987 18.976 C 20.022 19.009,19.777 19.174,19.017 19.628 L 18.000 20.236 18.000 19.018 C 18.000 18.348,18.011 17.800,18.024 17.800 C 18.037 17.800,18.473 18.054,18.994 18.366 " stroke="none" fill-rule="evenodd" fill="black"></path></svg>