<svg xmlns="http://www.w3.org/2000/svg" width="24" height="24" viewBox="0 0 24 24" fill="none" stroke="currentColor" stroke-width="2" stroke-linecap="round" stroke-linejoin="round"><path d="M11.260 2.024 C 9.438 2.210,7.961 2.712,6.560 3.621 C 4.117 5.207,2.564 7.640,2.092 10.620 C 1.994 11.243,1.995 12.766,2.094 13.380 C 2.367 15.066,2.896 16.412,3.791 17.700 C 5.657 20.382,8.754 22.002,12.014 22.000 C 12.457 21.999,13.408 21.916,13.673 21.855 C 14.002 21.779,14.305 21.472,14.400 21.119 C 14.544 20.586,14.162 20.007,13.598 19.901 C 13.521 19.886,13.244 19.903,12.981 19.937 C 11.428 20.141,9.815 19.858,8.386 19.130 C 6.799 18.322,5.614 17.117,4.820 15.502 C 3.020 11.844,4.277 7.444,7.760 5.211 C 8.112 4.985,9.027 4.553,9.420 4.426 C 11.152 3.870,12.867 3.862,14.498 4.405 C 16.570 5.095,18.203 6.522,19.180 8.495 C 19.752 9.653,19.998 10.780,20.000 12.251 C 20.000 12.834,20.039 12.971,20.272 13.214 C 20.467 13.418,20.709 13.520,20.993 13.519 C 21.376 13.518,21.694 13.315,21.892 12.945 C 21.975 12.790,21.980 12.732,21.978 11.960 C 21.975 11.111,21.937 10.703,21.796 10.020 C 21.388 8.050,20.474 6.351,19.062 4.938 C 17.479 3.355,15.550 2.408,13.240 2.081 C 12.924 2.036,11.533 1.996,11.260 2.024 M11.695 6.057 C 11.466 6.129,11.256 6.299,11.128 6.516 L 11.020 6.700 11.009 9.416 C 10.999 11.858,11.005 12.153,11.064 12.336 C 11.125 12.522,11.275 12.685,12.735 14.153 C 13.618 15.040,14.421 15.814,14.520 15.873 C 14.672 15.963,14.746 15.980,15.000 15.980 C 15.257 15.980,15.327 15.964,15.492 15.867 C 15.714 15.737,15.901 15.498,15.965 15.264 C 16.019 15.061,15.989 14.733,15.899 14.555 C 15.862 14.481,15.195 13.781,14.417 13.000 L 13.002 11.580 12.991 9.140 L 12.980 6.700 12.872 6.516 C 12.628 6.101,12.150 5.915,11.695 6.057 M18.668 15.061 C 18.585 15.092,18.462 15.156,18.395 15.203 C 18.260 15.300,16.136 18.454,16.054 18.680 C 15.893 19.127,16.117 19.673,16.550 19.886 C 16.733 19.977,16.784 19.981,17.930 20.000 L 19.120 20.020 18.600 20.800 C 17.971 21.741,17.914 21.905,18.061 22.322 C 18.284 22.955,18.992 23.187,19.570 22.815 C 19.686 22.741,19.972 22.342,20.805 21.093 C 21.401 20.198,21.917 19.387,21.950 19.289 C 22.074 18.926,21.931 18.460,21.625 18.226 C 21.365 18.028,21.326 18.023,20.070 18.001 L 18.880 17.980 19.383 17.225 C 19.660 16.810,19.912 16.399,19.943 16.310 C 20.212 15.550,19.428 14.782,18.668 15.061 " stroke="none" fill-rule="evenodd" fill="black"></path></svg>