<svg xmlns="http://www.w3.org/2000/svg" width="24" height="24" viewBox="0 0 24 24" fill="none" stroke="currentColor" stroke-width="2" stroke-linecap="round" stroke-linejoin="round"><path d="M11.320 2.027 C 9.308 2.167,7.437 2.888,5.800 4.154 C 5.303 4.538,4.429 5.432,4.033 5.960 C 2.625 7.841,1.935 10.012,2.013 12.320 C 2.063 13.817,2.378 15.073,3.041 16.420 C 4.622 19.636,7.756 21.728,11.371 21.982 C 11.910 22.020,12.075 21.970,12.365 21.680 C 12.555 21.492,12.599 21.420,12.641 21.233 C 12.670 21.102,12.679 20.934,12.663 20.826 C 12.627 20.586,12.422 20.290,12.192 20.148 C 12.032 20.048,11.945 20.030,11.402 19.978 C 10.643 19.905,10.118 19.800,9.500 19.596 C 7.628 18.978,6.039 17.677,5.054 15.957 C 3.433 13.125,3.714 9.566,5.762 7.000 C 6.488 6.090,7.416 5.349,8.500 4.817 C 9.955 4.101,11.565 3.858,13.218 4.103 C 15.527 4.447,17.625 5.848,18.840 7.860 C 19.476 8.913,19.843 10.044,19.958 11.300 C 20.014 11.922,20.059 12.081,20.233 12.284 C 20.747 12.885,21.713 12.685,21.947 11.929 C 21.990 11.790,21.999 11.640,21.980 11.360 C 21.846 9.339,21.082 7.360,19.828 5.783 C 17.790 3.220,14.572 1.799,11.320 2.027 M11.695 6.057 C 11.466 6.129,11.256 6.299,11.128 6.516 L 11.020 6.700 11.009 9.416 C 10.999 11.872,11.004 12.152,11.065 12.335 C 11.122 12.506,11.227 12.635,11.736 13.153 C 12.474 13.905,12.589 13.980,13.000 13.980 C 13.257 13.980,13.327 13.964,13.492 13.867 C 13.842 13.662,14.029 13.295,13.988 12.895 C 13.957 12.595,13.875 12.467,13.416 11.999 L 13.002 11.578 12.991 9.139 L 12.980 6.700 12.872 6.516 C 12.628 6.101,12.150 5.915,11.695 6.057 M17.358 14.061 C 16.230 14.237,15.143 14.974,14.569 15.953 C 13.320 18.083,14.233 20.785,16.512 21.704 C 17.473 22.091,18.529 22.090,19.494 21.701 C 19.684 21.625,19.881 21.535,19.932 21.502 C 20.020 21.444,20.041 21.460,20.681 22.104 C 21.044 22.468,21.416 22.810,21.508 22.865 C 21.967 23.139,22.587 22.968,22.867 22.492 C 22.964 22.327,22.980 22.257,22.980 22.000 C 22.980 21.589,22.910 21.484,22.104 20.681 C 21.460 20.041,21.444 20.020,21.502 19.932 C 21.627 19.740,21.844 19.132,21.921 18.757 C 22.070 18.024,21.994 17.230,21.705 16.516 C 21.172 15.197,20.001 14.269,18.605 14.058 C 18.144 13.989,17.816 13.990,17.358 14.061 M18.523 16.073 C 19.262 16.266,19.850 16.924,19.967 17.690 C 20.067 18.343,19.873 18.933,19.403 19.404 C 19.002 19.807,18.547 20.000,18.000 20.000 C 17.485 20.000,17.038 19.822,16.653 19.465 C 15.323 18.229,16.189 16.005,18.000 16.005 C 18.143 16.005,18.378 16.036,18.523 16.073 " stroke="none" fill-rule="evenodd" fill="black"></path></svg>