<svg xmlns="http://www.w3.org/2000/svg" width="24" height="24" viewBox="0 0 24 24" fill="none" stroke="currentColor" stroke-width="2" stroke-linecap="round" stroke-linejoin="round"><path d="M11.280 2.027 C 9.972 2.120,8.579 2.511,7.444 3.103 C 4.525 4.625,2.641 7.258,2.093 10.580 C 2.004 11.123,1.991 12.791,2.073 13.300 C 2.562 16.348,4.038 18.697,6.498 20.340 C 7.905 21.279,9.358 21.786,11.150 21.962 C 11.530 21.999,11.632 21.996,11.810 21.944 C 12.244 21.817,12.520 21.442,12.519 20.980 C 12.518 20.677,12.425 20.467,12.202 20.266 C 11.976 20.063,11.847 20.014,11.440 19.981 C 10.349 19.892,9.448 19.649,8.500 19.186 C 7.643 18.769,6.930 18.248,6.237 17.534 C 5.615 16.892,5.223 16.330,4.819 15.500 C 3.933 13.680,3.767 11.691,4.338 9.735 C 4.731 8.386,5.412 7.259,6.426 6.277 C 7.670 5.073,9.089 4.368,10.820 4.092 C 11.467 3.989,12.739 3.999,13.360 4.112 C 16.293 4.644,18.657 6.690,19.595 9.506 C 19.917 10.476,20.020 11.277,19.978 12.486 L 19.950 13.271 20.063 13.478 C 20.255 13.831,20.575 14.022,20.962 14.013 C 21.359 14.004,21.712 13.767,21.863 13.409 C 22.014 13.048,22.035 11.418,21.900 10.548 C 21.447 7.633,19.765 5.055,17.334 3.551 C 15.437 2.377,13.433 1.873,11.280 2.027 M11.695 6.057 C 11.466 6.129,11.256 6.299,11.128 6.516 L 11.020 6.700 11.009 9.416 C 10.999 11.858,11.005 12.153,11.064 12.336 C 11.125 12.522,11.275 12.685,12.735 14.153 C 13.618 15.040,14.421 15.814,14.520 15.873 C 14.672 15.963,14.746 15.980,15.000 15.980 C 15.257 15.980,15.327 15.964,15.492 15.867 C 15.714 15.737,15.901 15.498,15.965 15.264 C 16.019 15.061,15.989 14.733,15.899 14.555 C 15.862 14.481,15.195 13.781,14.417 13.000 L 13.002 11.580 12.991 9.140 L 12.980 6.700 12.872 6.516 C 12.628 6.101,12.150 5.915,11.695 6.057 M20.640 16.068 C 20.488 16.121,20.196 16.394,18.731 17.853 L 17.002 19.575 16.271 18.855 C 15.655 18.247,15.509 18.123,15.343 18.067 C 14.865 17.905,14.383 18.083,14.128 18.516 C 14.036 18.672,14.020 18.745,14.021 19.000 C 14.021 19.213,14.043 19.341,14.095 19.440 C 14.197 19.633,16.297 21.740,16.520 21.873 C 16.673 21.964,16.745 21.980,17.000 21.979 C 17.212 21.979,17.341 21.957,17.440 21.905 C 17.632 21.805,21.739 17.705,21.873 17.480 C 21.964 17.328,21.980 17.254,21.980 17.000 C 21.980 16.746,21.963 16.672,21.872 16.516 C 21.617 16.083,21.121 15.903,20.640 16.068 " stroke="none" fill-rule="evenodd" fill="black"></path></svg>