<svg xmlns="http://www.w3.org/2000/svg" width="24" height="24" viewBox="0 0 24 24" fill="none" stroke="currentColor" stroke-width="2" stroke-linecap="round" stroke-linejoin="round"><path d="M11.420 2.024 C 9.468 2.173,7.796 2.750,6.303 3.789 C 4.012 5.384,2.532 7.792,2.092 10.640 C 1.993 11.280,1.994 12.759,2.094 13.380 C 2.453 15.611,3.321 17.380,4.837 18.974 C 5.498 19.669,6.590 20.473,7.479 20.919 C 8.811 21.589,10.223 21.941,11.761 21.988 C 12.634 22.015,12.857 21.973,13.125 21.731 C 13.370 21.509,13.458 21.312,13.458 20.980 C 13.458 20.655,13.368 20.446,13.147 20.251 C 12.908 20.042,12.739 20.007,11.880 19.986 C 11.023 19.965,10.539 19.894,9.780 19.677 C 7.131 18.919,5.050 16.819,4.303 14.151 C 3.860 12.571,3.924 10.803,4.478 9.291 C 5.200 7.320,6.625 5.735,8.499 4.821 C 11.621 3.297,15.377 3.970,17.781 6.484 C 19.816 8.612,20.491 11.586,19.598 14.484 C 19.418 15.070,19.449 15.343,19.732 15.664 C 19.911 15.867,20.034 15.940,20.295 15.999 C 20.655 16.079,21.085 15.896,21.306 15.568 C 21.480 15.310,21.781 14.201,21.906 13.360 C 22.003 12.705,22.004 11.264,21.908 10.640 C 21.460 7.741,19.967 5.350,17.580 3.712 C 16.367 2.880,14.827 2.296,13.321 2.098 C 12.885 2.041,11.769 1.997,11.420 2.024 M11.695 6.057 C 11.466 6.129,11.256 6.299,11.128 6.516 L 11.020 6.700 11.009 9.416 C 10.999 11.858,11.005 12.153,11.064 12.336 C 11.125 12.522,11.275 12.685,12.735 14.153 C 13.618 15.040,14.421 15.814,14.520 15.873 C 14.672 15.963,14.746 15.980,15.000 15.980 C 15.257 15.980,15.327 15.964,15.492 15.867 C 15.714 15.737,15.901 15.498,15.965 15.264 C 16.019 15.061,15.989 14.733,15.899 14.555 C 15.862 14.481,15.195 13.781,14.417 13.000 L 13.002 11.580 12.991 9.140 L 12.980 6.700 12.872 6.516 C 12.628 6.101,12.150 5.915,11.695 6.057 M15.695 18.057 C 15.466 18.129,15.256 18.299,15.128 18.516 C 15.037 18.672,15.020 18.746,15.020 19.000 C 15.020 19.256,15.036 19.328,15.131 19.489 C 15.256 19.702,15.449 19.864,15.670 19.943 C 15.891 20.022,22.109 20.022,22.330 19.943 C 22.551 19.864,22.744 19.702,22.869 19.489 C 22.964 19.328,22.980 19.256,22.980 19.000 C 22.980 18.746,22.963 18.672,22.872 18.516 C 22.740 18.293,22.533 18.128,22.290 18.055 C 22.030 17.977,15.945 17.979,15.695 18.057 " stroke="none" fill-rule="evenodd" fill="black"></path></svg>