<svg xmlns="http://www.w3.org/2000/svg" width="24" height="24" viewBox="0 0 24 24" fill="none" stroke="currentColor" stroke-width="2" stroke-linecap="round" stroke-linejoin="round"><path d="M11.080 2.045 C 9.507 2.184,7.883 2.751,6.540 3.630 C 5.905 4.045,5.499 4.378,4.919 4.958 C 2.953 6.926,1.919 9.544,2.013 12.320 C 2.084 14.439,2.752 16.328,4.033 18.040 C 4.430 18.570,5.305 19.464,5.800 19.847 C 7.231 20.953,8.815 21.635,10.560 21.898 C 11.143 21.985,12.058 22.022,12.264 21.965 C 12.498 21.901,12.737 21.714,12.867 21.492 C 12.964 21.327,12.980 21.257,12.980 21.000 C 12.980 20.746,12.963 20.672,12.872 20.516 C 12.665 20.165,12.334 20.000,11.832 20.000 C 10.817 20.000,9.549 19.693,8.529 19.200 C 7.477 18.693,6.612 18.015,5.847 17.100 C 4.102 15.014,3.551 12.113,4.403 9.502 C 4.953 7.820,6.121 6.296,7.620 5.309 C 8.119 4.980,8.929 4.591,9.502 4.403 C 11.478 3.758,13.651 3.908,15.500 4.816 C 17.133 5.618,18.382 6.867,19.184 8.500 C 19.646 9.441,19.889 10.356,19.965 11.440 C 19.987 11.759,20.014 12.096,20.025 12.189 C 20.052 12.420,20.257 12.711,20.497 12.859 C 20.671 12.966,20.729 12.980,20.997 12.980 C 21.257 12.980,21.327 12.964,21.492 12.867 C 21.714 12.737,21.901 12.498,21.965 12.264 C 22.022 12.058,21.985 11.143,21.898 10.560 C 21.635 8.815,20.951 7.228,19.847 5.800 C 19.510 5.365,18.639 4.494,18.200 4.154 C 16.133 2.555,13.646 1.818,11.080 2.045 M11.695 6.057 C 11.466 6.129,11.256 6.299,11.128 6.516 L 11.020 6.700 11.009 9.416 C 10.999 11.872,11.004 12.152,11.065 12.335 C 11.122 12.506,11.227 12.635,11.736 13.153 C 12.474 13.905,12.589 13.980,13.000 13.980 C 13.257 13.980,13.327 13.964,13.492 13.867 C 13.842 13.662,14.029 13.295,13.988 12.895 C 13.957 12.595,13.875 12.467,13.416 11.999 L 13.002 11.578 12.991 9.139 L 12.980 6.700 12.872 6.516 C 12.628 6.101,12.150 5.915,11.695 6.057 M15.695 15.057 C 15.466 15.129,15.256 15.299,15.128 15.516 L 15.020 15.700 15.020 19.000 L 15.020 22.300 15.131 22.489 C 15.256 22.702,15.449 22.864,15.670 22.943 C 15.891 23.022,22.109 23.022,22.330 22.943 C 22.551 22.864,22.744 22.702,22.869 22.489 L 22.980 22.300 22.980 19.000 L 22.980 15.700 22.872 15.516 C 22.740 15.293,22.533 15.128,22.290 15.055 C 22.030 14.977,15.945 14.979,15.695 15.057 M21.000 19.000 L 21.000 21.000 19.000 21.000 L 17.000 21.000 17.000 19.000 L 17.000 17.000 19.000 17.000 L 21.000 17.000 21.000 19.000 " stroke="none" fill-rule="evenodd" fill="black"></path></svg>