<svg xmlns="http://www.w3.org/2000/svg" width="24" height="24" viewBox="0 0 24 24" fill="none" stroke="currentColor" stroke-width="2" stroke-linecap="round" stroke-linejoin="round"><path d="M11.380 2.024 C 10.286 2.134,9.698 2.242,9.003 2.463 C 6.470 3.265,4.358 5.034,3.137 7.377 C 1.877 9.793,1.659 12.577,2.526 15.180 C 3.752 18.862,6.997 21.481,10.900 21.938 C 11.785 22.042,13.088 22.001,13.428 21.859 C 13.627 21.776,13.871 21.540,13.964 21.340 C 14.135 20.971,14.008 20.418,13.698 20.181 C 13.412 19.963,13.341 19.951,12.464 19.982 C 11.285 20.023,10.460 19.912,9.440 19.575 C 6.950 18.754,4.945 16.615,4.280 14.071 C 3.399 10.703,4.728 7.216,7.620 5.309 C 7.818 5.179,8.214 4.957,8.500 4.817 C 11.596 3.299,15.370 3.964,17.740 6.445 C 18.198 6.925,18.326 7.084,18.671 7.600 C 19.203 8.398,19.547 9.200,19.783 10.193 C 19.961 10.942,19.972 10.968,20.207 11.178 C 20.452 11.399,20.619 11.456,20.944 11.430 C 21.399 11.393,21.747 11.090,21.842 10.649 C 21.932 10.226,21.515 8.719,21.026 7.702 C 20.235 6.057,19.050 4.688,17.560 3.699 C 16.259 2.835,14.976 2.342,13.400 2.101 C 12.998 2.039,11.715 1.990,11.380 2.024 M11.695 6.057 C 11.466 6.129,11.256 6.299,11.128 6.516 L 11.020 6.700 11.009 9.416 C 10.999 11.873,11.004 12.152,11.065 12.336 C 11.124 12.514,11.237 12.646,11.956 13.374 C 12.409 13.833,12.853 14.259,12.943 14.321 C 13.391 14.632,14.068 14.487,14.340 14.023 C 14.528 13.703,14.533 13.249,14.351 12.981 C 14.305 12.915,13.983 12.572,13.635 12.220 L 13.002 11.580 12.991 9.140 L 12.980 6.700 12.872 6.516 C 12.628 6.101,12.150 5.915,11.695 6.057 M18.600 12.584 C 18.399 12.671,18.205 12.869,18.095 13.100 C 18.018 13.263,18.001 13.365,18.000 13.650 L 18.000 14.000 16.946 14.000 C 15.797 14.000,15.644 14.022,15.382 14.221 C 15.302 14.282,15.187 14.415,15.128 14.516 C 15.036 14.672,15.020 14.746,15.020 15.003 C 15.020 15.271,15.034 15.329,15.141 15.503 C 15.288 15.742,15.578 15.946,15.821 15.982 L 16.000 16.009 16.000 17.998 L 16.000 19.987 15.786 20.035 C 15.515 20.096,15.270 20.275,15.129 20.514 C 15.036 20.672,15.020 20.745,15.020 21.000 C 15.020 21.256,15.036 21.328,15.131 21.489 C 15.192 21.592,15.304 21.725,15.381 21.783 C 15.643 21.983,15.738 21.996,16.910 21.998 L 18.000 22.000 18.000 22.350 C 18.001 22.635,18.018 22.737,18.095 22.900 C 18.276 23.281,18.595 23.488,19.000 23.488 C 19.405 23.488,19.724 23.281,19.905 22.900 C 19.982 22.735,19.999 22.635,20.000 22.334 L 20.000 21.969 20.289 21.874 C 21.001 21.642,21.604 21.048,21.868 20.320 C 21.965 20.052,21.976 19.965,21.976 19.500 C 21.976 19.035,21.965 18.949,21.868 18.684 C 21.809 18.521,21.705 18.301,21.636 18.194 L 21.512 18.000 21.636 17.806 C 21.705 17.699,21.809 17.479,21.868 17.316 C 21.965 17.051,21.976 16.965,21.976 16.500 C 21.976 16.035,21.965 15.948,21.868 15.680 C 21.599 14.937,20.984 14.347,20.241 14.118 L 20.020 14.049 19.999 13.635 C 19.982 13.318,19.957 13.182,19.892 13.060 C 19.783 12.854,19.580 12.661,19.391 12.582 C 19.203 12.503,18.783 12.504,18.600 12.584 M19.724 16.062 C 19.872 16.139,20.000 16.341,20.000 16.500 C 20.000 16.566,19.965 16.678,19.922 16.748 C 19.780 16.980,19.693 17.000,18.802 17.000 L 18.000 17.000 18.000 16.500 L 18.000 16.000 18.802 16.000 C 19.448 16.000,19.627 16.012,19.724 16.062 M19.724 19.062 C 19.872 19.139,20.000 19.341,20.000 19.500 C 20.000 19.566,19.965 19.678,19.922 19.748 C 19.780 19.980,19.693 20.000,18.802 20.000 L 18.000 20.000 18.000 19.500 L 18.000 19.000 18.802 19.000 C 19.448 19.000,19.627 19.012,19.724 19.062 " stroke="none" fill-rule="evenodd" fill="black"></path></svg>