<svg xmlns="http://www.w3.org/2000/svg" width="24" height="24" viewBox="0 0 24 24" fill="none" stroke="currentColor" stroke-width="2" stroke-linecap="round" stroke-linejoin="round"><path d="M11.320 2.024 C 11.243 2.033,11.009 2.059,10.800 2.082 C 9.576 2.215,8.173 2.676,7.064 3.310 C 4.634 4.698,2.856 7.085,2.260 9.759 C 2.060 10.653,2.023 11.009,2.023 12.000 C 2.023 13.210,2.118 13.852,2.466 14.988 C 3.431 18.140,6.019 20.676,9.205 21.594 C 10.197 21.880,10.879 21.977,11.900 21.979 C 12.798 21.980,12.914 21.957,13.168 21.728 C 13.708 21.240,13.590 20.397,12.940 20.094 C 12.758 20.009,12.685 20.001,12.120 20.000 C 10.756 19.998,9.629 19.743,8.484 19.177 C 6.124 18.010,4.549 15.882,4.091 13.240 C 3.998 12.702,3.999 11.367,4.093 10.809 C 4.402 8.971,5.162 7.502,6.446 6.259 C 7.906 4.845,9.651 4.108,11.760 4.015 C 13.290 3.948,14.867 4.370,16.221 5.210 C 18.343 6.526,19.744 8.800,19.959 11.280 C 19.981 11.533,20.000 11.974,20.001 12.260 C 20.002 12.846,20.046 12.999,20.284 13.235 C 20.477 13.427,20.698 13.518,20.971 13.519 C 21.370 13.521,21.689 13.332,21.871 12.988 C 21.980 12.781,21.980 12.778,21.978 11.960 C 21.976 11.120,21.934 10.668,21.794 10.000 C 20.925 5.860,17.648 2.756,13.473 2.118 C 12.966 2.041,11.660 1.983,11.320 2.024 M11.695 6.057 C 11.466 6.129,11.256 6.299,11.128 6.516 L 11.020 6.700 11.009 9.416 C 10.999 11.858,11.005 12.153,11.064 12.336 C 11.125 12.522,11.275 12.685,12.735 14.153 C 13.618 15.040,14.421 15.814,14.520 15.873 C 14.672 15.963,14.746 15.980,15.000 15.980 C 15.257 15.980,15.327 15.964,15.492 15.867 C 15.714 15.737,15.901 15.498,15.965 15.264 C 16.019 15.061,15.989 14.733,15.899 14.555 C 15.862 14.481,15.195 13.781,14.417 13.000 L 13.002 11.580 12.991 9.140 L 12.980 6.700 12.872 6.516 C 12.628 6.101,12.150 5.915,11.695 6.057 M18.695 15.057 C 18.466 15.129,18.256 15.299,18.128 15.516 L 18.020 15.700 18.008 16.850 L 17.995 18.000 16.944 18.000 C 15.797 18.000,15.643 18.022,15.382 18.221 C 15.302 18.282,15.187 18.415,15.128 18.516 C 15.037 18.672,15.020 18.746,15.020 19.000 C 15.020 19.256,15.036 19.328,15.131 19.489 C 15.192 19.592,15.304 19.725,15.381 19.783 C 15.642 19.983,15.738 19.996,16.908 19.998 L 17.995 20.000 18.008 21.153 L 18.020 22.307 18.141 22.503 C 18.543 23.156,19.457 23.156,19.859 22.503 L 19.980 22.307 19.992 21.153 L 20.005 20.000 21.092 19.998 C 22.262 19.996,22.358 19.983,22.619 19.783 C 22.696 19.725,22.808 19.592,22.869 19.489 C 22.964 19.328,22.980 19.256,22.980 19.000 C 22.980 18.746,22.963 18.672,22.872 18.516 C 22.813 18.415,22.698 18.282,22.618 18.221 C 22.357 18.022,22.203 18.000,21.056 18.000 L 20.005 18.000 19.992 16.850 L 19.980 15.700 19.872 15.516 C 19.628 15.101,19.150 14.915,18.695 15.057 " stroke="none" fill-rule="evenodd" fill="black"></path></svg>