<svg xmlns="http://www.w3.org/2000/svg" width="24" height="24" viewBox="0 0 24 24" fill="none" stroke="currentColor" stroke-width="2" stroke-linecap="round" stroke-linejoin="round"><path d="M11.420 2.024 C 8.843 2.219,6.689 3.188,4.938 4.938 C 2.388 7.486,1.412 11.162,2.361 14.640 C 3.236 17.850,5.712 20.459,8.854 21.484 C 9.864 21.813,10.645 21.952,11.680 21.987 C 12.486 22.014,13.251 21.955,13.498 21.845 C 13.689 21.760,13.932 21.503,14.022 21.291 C 14.066 21.188,14.082 21.056,14.072 20.875 C 14.054 20.538,13.903 20.275,13.630 20.106 C 13.389 19.957,13.194 19.923,12.810 19.963 C 12.372 20.009,11.524 20.007,11.100 19.958 C 8.990 19.717,6.917 18.544,5.666 16.883 C 4.018 14.695,3.574 11.989,4.439 9.402 C 5.202 7.121,7.102 5.215,9.380 4.446 C 11.974 3.571,14.688 4.010,16.870 5.657 C 18.487 6.877,19.621 8.817,19.924 10.880 C 19.977 11.239,19.993 12.189,19.960 12.960 C 19.942 13.377,19.948 13.435,20.026 13.580 C 20.338 14.157,21.035 14.322,21.538 13.939 C 21.899 13.664,21.980 13.302,21.977 11.980 C 21.976 11.299,21.957 10.946,21.905 10.620 C 21.533 8.311,20.616 6.486,19.039 4.916 C 17.487 3.372,15.484 2.385,13.321 2.098 C 12.887 2.040,11.774 1.997,11.420 2.024 M11.695 6.057 C 11.466 6.129,11.256 6.299,11.128 6.516 L 11.020 6.700 11.009 9.416 C 10.999 11.865,11.004 12.153,11.065 12.336 C 11.124 12.518,11.250 12.660,12.236 13.653 C 12.843 14.266,13.416 14.811,13.508 14.866 C 13.969 15.138,14.588 14.968,14.867 14.492 C 14.964 14.327,14.980 14.258,14.979 14.000 C 14.979 13.787,14.957 13.659,14.905 13.560 C 14.864 13.483,14.419 13.006,13.917 12.500 L 13.002 11.580 12.991 9.140 L 12.980 6.700 12.872 6.516 C 12.628 6.101,12.150 5.915,11.695 6.057 M16.670 16.061 C 16.448 16.142,16.250 16.309,16.128 16.516 C 16.037 16.672,16.020 16.746,16.020 17.000 C 16.020 17.254,16.036 17.328,16.127 17.480 C 16.186 17.579,16.650 18.074,17.157 18.579 L 18.079 19.499 17.124 20.459 C 16.599 20.988,16.138 21.481,16.101 21.555 C 15.872 22.009,16.056 22.601,16.508 22.867 C 16.673 22.964,16.743 22.980,17.000 22.980 C 17.254 22.980,17.328 22.964,17.480 22.873 C 17.579 22.814,18.074 22.350,18.579 21.843 L 19.499 20.921 20.459 21.876 C 20.988 22.401,21.483 22.864,21.560 22.905 C 21.659 22.957,21.787 22.979,22.000 22.979 C 22.258 22.980,22.327 22.964,22.492 22.867 C 22.714 22.737,22.901 22.498,22.965 22.264 C 23.019 22.061,22.989 21.733,22.899 21.555 C 22.862 21.481,22.401 20.988,21.876 20.459 L 20.921 19.499 21.843 18.579 C 22.350 18.074,22.814 17.579,22.873 17.480 C 22.964 17.328,22.980 17.254,22.980 17.000 C 22.980 16.746,22.963 16.672,22.872 16.516 C 22.618 16.084,22.136 15.905,21.657 16.066 C 21.486 16.124,21.330 16.262,20.480 17.104 L 19.500 18.076 18.520 17.104 C 17.671 16.262,17.514 16.124,17.343 16.066 C 17.108 15.987,16.875 15.985,16.670 16.061 " stroke="none" fill-rule="evenodd" fill="black"></path></svg>