<svg xmlns="http://www.w3.org/2000/svg" width="24" height="24" viewBox="0 0 24 24" fill="none" stroke="currentColor" stroke-width="2" stroke-linecap="round" stroke-linejoin="round"><path d="M11.320 4.044 C 10.902 4.092,10.295 4.225,9.864 4.364 C 9.364 4.525,8.537 4.945,8.080 5.270 C 7.615 5.601,6.942 6.268,6.620 6.720 C 6.388 7.045,5.920 7.917,5.920 8.025 C 5.920 8.055,5.879 8.086,5.830 8.095 C 4.523 8.335,3.578 8.793,2.695 9.615 C 2.245 10.034,1.884 10.528,1.580 11.140 C 1.187 11.930,1.000 12.701,1.001 13.520 C 1.004 15.982,2.739 18.176,5.180 18.805 C 5.927 18.997,5.969 18.999,9.680 18.998 C 12.501 18.997,13.209 18.986,13.330 18.943 C 14.164 18.645,14.219 17.496,13.418 17.098 C 13.266 17.023,13.132 17.019,9.640 16.998 C 5.685 16.973,5.949 16.988,5.296 16.748 C 4.583 16.486,3.846 15.867,3.456 15.204 C 2.716 13.942,2.909 12.310,3.930 11.219 C 4.606 10.496,5.421 10.124,6.503 10.043 C 6.908 10.013,6.987 9.995,7.148 9.894 C 7.424 9.723,7.546 9.544,7.663 9.139 C 7.927 8.226,8.422 7.512,9.179 6.949 C 10.607 5.887,12.648 5.706,14.265 6.498 C 15.424 7.066,16.195 7.954,16.523 9.100 C 16.598 9.360,16.615 9.521,16.616 9.960 C 16.617 10.257,16.602 10.666,16.583 10.868 C 16.550 11.221,16.553 11.244,16.656 11.455 C 16.895 11.943,17.143 12.040,18.158 12.040 C 18.948 12.040,19.253 12.098,19.700 12.331 C 20.014 12.496,20.503 12.985,20.689 13.320 C 21.002 13.883,21.456 14.107,21.949 13.944 C 22.557 13.742,22.809 13.085,22.510 12.478 C 21.864 11.167,20.450 10.195,18.994 10.060 C 18.647 10.028,18.642 10.021,18.640 9.660 C 18.638 8.844,18.168 7.546,17.573 6.710 C 17.259 6.270,16.583 5.600,16.119 5.271 C 15.656 4.942,14.829 4.522,14.327 4.360 C 13.389 4.059,12.251 3.939,11.320 4.044 M16.670 16.061 C 16.448 16.142,16.250 16.309,16.128 16.516 C 16.037 16.672,16.020 16.746,16.020 17.000 C 16.020 17.254,16.036 17.328,16.127 17.480 C 16.186 17.579,16.650 18.074,17.157 18.579 L 18.079 19.499 17.124 20.459 C 16.599 20.988,16.138 21.481,16.101 21.555 C 15.872 22.009,16.056 22.601,16.508 22.867 C 16.673 22.964,16.743 22.980,17.000 22.980 C 17.254 22.980,17.328 22.964,17.480 22.873 C 17.579 22.814,18.074 22.350,18.579 21.843 L 19.499 20.921 20.459 21.876 C 20.988 22.401,21.483 22.864,21.560 22.905 C 21.659 22.957,21.787 22.979,22.000 22.979 C 22.258 22.980,22.327 22.964,22.492 22.867 C 22.714 22.737,22.901 22.498,22.965 22.264 C 23.019 22.061,22.989 21.733,22.899 21.555 C 22.862 21.481,22.401 20.988,21.876 20.459 L 20.921 19.499 21.843 18.579 C 22.350 18.074,22.814 17.579,22.873 17.480 C 22.964 17.328,22.980 17.254,22.980 17.000 C 22.980 16.746,22.963 16.672,22.872 16.516 C 22.618 16.084,22.136 15.905,21.657 16.066 C 21.486 16.124,21.330 16.262,20.480 17.104 L 19.500 18.076 18.520 17.104 C 17.671 16.262,17.514 16.124,17.343 16.066 C 17.108 15.987,16.875 15.985,16.670 16.061 " stroke="none" fill-rule="evenodd" fill="black"></path></svg>