<svg xmlns="http://www.w3.org/2000/svg" width="24" height="24" viewBox="0 0 24 24" fill="none" stroke="currentColor" stroke-width="2" stroke-linecap="round" stroke-linejoin="round"><path d="M11.320 2.044 C 10.902 2.092,10.295 2.225,9.864 2.364 C 9.364 2.525,8.537 2.945,8.080 3.270 C 7.615 3.601,6.942 4.268,6.620 4.720 C 6.388 5.045,5.920 5.917,5.920 6.025 C 5.920 6.055,5.879 6.086,5.830 6.095 C 4.523 6.335,3.578 6.793,2.695 7.615 C 2.245 8.034,1.884 8.528,1.580 9.140 C 1.297 9.709,1.147 10.176,1.058 10.760 C 0.796 12.488,1.466 14.325,2.789 15.508 C 3.676 16.300,4.614 16.741,5.840 16.943 C 6.304 17.019,8.117 17.019,8.330 16.943 C 9.002 16.703,9.215 15.835,8.726 15.331 C 8.439 15.035,8.395 15.026,7.140 14.995 C 5.984 14.967,5.839 14.948,5.296 14.748 C 4.583 14.486,3.846 13.867,3.456 13.204 C 2.716 11.942,2.909 10.310,3.930 9.219 C 4.606 8.496,5.421 8.124,6.503 8.043 C 6.908 8.013,6.987 7.995,7.148 7.894 C 7.424 7.723,7.546 7.544,7.663 7.139 C 7.927 6.226,8.422 5.512,9.179 4.949 C 10.607 3.887,12.648 3.706,14.265 4.498 C 15.424 5.066,16.195 5.954,16.523 7.100 C 16.598 7.360,16.615 7.521,16.616 7.960 C 16.617 8.257,16.602 8.666,16.583 8.868 C 16.550 9.221,16.553 9.244,16.656 9.455 C 16.893 9.940,17.145 10.040,18.137 10.041 C 18.568 10.041,18.918 10.062,19.085 10.097 C 19.886 10.267,20.635 10.965,20.890 11.780 C 21.006 12.148,21.013 12.859,20.905 13.220 C 20.681 13.970,20.046 14.620,19.260 14.904 C 19.083 14.968,18.866 14.979,17.400 14.998 C 15.537 15.023,15.580 15.016,15.274 15.331 C 14.768 15.852,15.026 16.773,15.731 16.963 C 15.835 16.991,16.455 17.000,17.554 16.991 C 19.200 16.976,19.225 16.975,19.603 16.872 C 20.427 16.649,21.091 16.272,21.663 15.702 C 22.258 15.110,22.623 14.477,22.854 13.640 C 23.020 13.038,23.038 12.240,22.901 11.580 C 22.748 10.840,22.305 10.002,21.763 9.428 C 21.066 8.689,20.100 8.201,19.082 8.074 C 18.636 8.019,18.642 8.024,18.640 7.660 C 18.638 6.844,18.168 5.546,17.573 4.710 C 17.259 4.270,16.583 3.600,16.119 3.271 C 15.656 2.942,14.829 2.522,14.327 2.360 C 13.389 2.059,12.251 1.939,11.320 2.044 M11.695 15.057 C 11.466 15.129,11.256 15.299,11.128 15.516 C 11.023 15.695,11.020 15.721,11.007 16.424 L 10.994 17.148 10.667 17.315 C 10.091 17.607,9.596 18.103,9.312 18.670 L 9.147 19.000 6.020 19.000 C 2.627 19.000,2.676 18.997,2.382 19.221 C 2.302 19.282,2.187 19.415,2.128 19.516 C 2.037 19.672,2.020 19.746,2.020 20.000 C 2.020 20.256,2.036 20.328,2.131 20.489 C 2.256 20.702,2.449 20.864,2.670 20.943 C 2.790 20.986,3.445 20.997,5.983 20.998 L 9.147 21.000 9.312 21.330 C 9.682 22.069,10.355 22.635,11.160 22.886 C 11.412 22.964,11.547 22.979,12.000 22.979 C 12.453 22.979,12.588 22.964,12.840 22.886 C 13.645 22.635,14.318 22.069,14.688 21.330 L 14.853 21.000 18.017 20.998 C 20.555 20.997,21.210 20.986,21.330 20.943 C 21.551 20.864,21.744 20.702,21.869 20.489 C 21.964 20.328,21.980 20.256,21.980 20.000 C 21.980 19.746,21.963 19.672,21.872 19.516 C 21.813 19.415,21.698 19.282,21.618 19.221 C 21.324 18.997,21.373 19.000,17.980 19.000 L 14.853 19.000 14.688 18.670 C 14.404 18.103,13.909 17.607,13.333 17.315 L 13.006 17.148 12.993 16.424 C 12.980 15.721,12.977 15.695,12.872 15.516 C 12.628 15.101,12.150 14.915,11.695 15.057 M12.310 19.061 C 12.688 19.173,13.000 19.598,13.000 20.001 C 13.000 20.331,12.784 20.696,12.484 20.872 C 12.328 20.963,12.254 20.980,12.000 20.980 C 11.746 20.980,11.672 20.963,11.516 20.872 C 10.935 20.530,10.833 19.774,11.304 19.303 C 11.583 19.024,11.916 18.944,12.310 19.061 " stroke="none" fill-rule="evenodd" fill="black"></path></svg>