<svg xmlns="http://www.w3.org/2000/svg" width="24" height="24" viewBox="0 0 24 24" fill="none" stroke="currentColor" stroke-width="2" stroke-linecap="round" stroke-linejoin="round"><path d="M11.520 4.024 C 9.137 4.370,7.159 5.826,6.321 7.851 C 6.278 7.956,6.219 8.048,6.191 8.056 C 6.163 8.064,6.014 8.093,5.860 8.120 C 4.193 8.415,2.633 9.584,1.862 11.117 C 1.503 11.830,1.309 12.663,1.309 13.500 C 1.309 16.293,3.437 18.608,6.332 18.962 C 6.893 19.031,7.265 19.000,7.497 18.864 C 8.248 18.424,8.119 17.305,7.290 17.055 C 7.189 17.025,7.014 17.000,6.899 17.000 C 6.611 17.000,6.075 16.901,5.739 16.787 C 4.631 16.409,3.780 15.542,3.434 14.439 C 3.352 14.177,3.340 14.060,3.340 13.500 C 3.340 12.940,3.352 12.823,3.434 12.561 C 3.777 11.469,4.605 10.617,5.705 10.227 C 6.050 10.104,6.323 10.053,6.890 10.004 C 7.606 9.943,7.787 9.786,8.039 9.007 C 8.281 8.260,8.586 7.771,9.138 7.247 C 9.512 6.892,9.833 6.675,10.336 6.439 C 11.697 5.799,13.317 5.798,14.665 6.438 C 15.546 6.856,16.193 7.444,16.638 8.230 C 16.992 8.858,17.162 9.678,17.078 10.360 C 16.995 11.040,16.992 11.103,17.037 11.268 C 17.101 11.508,17.308 11.759,17.539 11.878 C 17.729 11.975,17.777 11.981,18.619 12.005 C 19.579 12.033,19.740 12.063,20.180 12.294 C 20.322 12.368,20.552 12.551,20.742 12.740 C 21.264 13.259,21.479 13.771,21.479 14.500 C 21.479 15.226,21.265 15.737,20.742 16.264 C 20.165 16.844,19.711 16.998,18.576 16.999 C 17.823 17.000,17.623 17.037,17.382 17.221 C 17.302 17.282,17.187 17.415,17.128 17.516 C 17.037 17.672,17.020 17.746,17.020 18.000 C 17.020 18.256,17.036 18.328,17.131 18.489 C 17.256 18.702,17.449 18.864,17.670 18.943 C 17.884 19.019,19.227 19.018,19.700 18.941 C 20.333 18.838,20.942 18.602,21.460 18.259 C 24.341 16.351,24.117 12.078,21.054 10.511 C 20.509 10.233,20.026 10.093,19.354 10.020 L 19.128 9.995 19.101 9.668 C 18.923 7.477,17.645 5.659,15.580 4.658 C 14.361 4.067,12.847 3.831,11.520 4.024 M11.580 11.096 C 11.424 11.171,11.029 11.545,9.774 12.806 C 8.891 13.694,8.135 14.483,8.095 14.560 C 8.043 14.659,8.021 14.788,8.021 15.000 C 8.020 15.258,8.036 15.327,8.133 15.492 C 8.263 15.714,8.502 15.901,8.736 15.965 C 8.939 16.019,9.267 15.989,9.445 15.899 C 9.519 15.861,9.899 15.514,10.289 15.128 L 10.998 14.425 11.009 17.865 L 11.020 21.306 11.141 21.503 C 11.209 21.613,11.346 21.756,11.452 21.828 C 11.923 22.144,12.554 21.999,12.859 21.503 L 12.980 21.306 12.991 17.865 L 13.002 14.425 13.711 15.128 C 14.101 15.514,14.483 15.864,14.560 15.904 C 14.660 15.957,14.787 15.979,15.000 15.979 C 15.258 15.980,15.327 15.964,15.492 15.867 C 15.714 15.737,15.901 15.498,15.965 15.264 C 16.019 15.061,15.989 14.733,15.899 14.555 C 15.862 14.481,15.109 13.694,14.226 12.806 C 12.472 11.043,12.420 11.001,12.000 11.001 C 11.851 11.001,11.716 11.031,11.580 11.096 " stroke="none" fill-rule="evenodd" fill="black"></path></svg>