<svg xmlns="http://www.w3.org/2000/svg" width="24" height="24" viewBox="0 0 24 24" fill="none" stroke="currentColor" stroke-width="2" stroke-linecap="round" stroke-linejoin="round"><path d="M11.320 4.044 C 10.902 4.092,10.295 4.225,9.864 4.364 C 9.364 4.525,8.537 4.945,8.080 5.270 C 7.615 5.601,6.942 6.268,6.620 6.720 C 6.388 7.045,5.920 7.917,5.920 8.025 C 5.920 8.055,5.879 8.086,5.830 8.095 C 4.523 8.335,3.578 8.793,2.695 9.615 C 2.245 10.034,1.884 10.528,1.580 11.140 C 1.187 11.930,1.000 12.701,1.001 13.520 C 1.004 15.982,2.739 18.176,5.180 18.805 C 5.921 18.995,5.990 18.999,9.415 18.999 C 11.801 19.000,12.692 18.988,12.809 18.952 C 13.023 18.888,13.335 18.601,13.419 18.390 C 13.506 18.174,13.507 17.823,13.422 17.618 C 13.340 17.422,13.150 17.220,12.940 17.106 C 12.781 17.020,12.768 17.020,9.400 16.998 C 5.714 16.973,5.946 16.987,5.296 16.748 C 4.583 16.486,3.846 15.867,3.456 15.204 C 2.716 13.942,2.909 12.310,3.930 11.219 C 4.606 10.496,5.421 10.124,6.503 10.043 C 6.908 10.013,6.987 9.995,7.148 9.894 C 7.424 9.723,7.546 9.544,7.663 9.139 C 7.927 8.226,8.422 7.512,9.179 6.949 C 10.607 5.887,12.648 5.706,14.265 6.498 C 15.424 7.066,16.195 7.954,16.523 9.100 C 16.598 9.360,16.615 9.521,16.616 9.960 C 16.617 10.257,16.602 10.666,16.583 10.868 C 16.550 11.221,16.553 11.244,16.656 11.455 C 16.893 11.940,17.144 12.039,18.137 12.041 C 18.934 12.043,19.202 12.090,19.631 12.302 C 20.022 12.495,20.482 12.942,20.698 13.340 C 20.926 13.758,21.018 13.863,21.256 13.980 C 21.851 14.271,22.536 13.935,22.675 13.284 C 22.729 13.033,22.655 12.726,22.451 12.360 C 21.737 11.077,20.406 10.191,18.994 10.060 C 18.647 10.028,18.642 10.021,18.640 9.660 C 18.638 8.844,18.168 7.546,17.573 6.710 C 17.259 6.270,16.583 5.600,16.119 5.271 C 15.656 4.942,14.829 4.522,14.327 4.360 C 13.389 4.059,12.251 3.939,11.320 4.044 M16.240 16.037 C 15.794 16.173,15.512 16.546,15.512 17.000 C 15.512 17.405,15.719 17.724,16.100 17.905 C 16.296 17.997,16.324 17.999,17.439 18.000 L 18.579 18.000 16.874 19.710 C 15.936 20.651,15.138 21.481,15.101 21.555 C 14.872 22.010,15.056 22.601,15.508 22.867 C 15.673 22.964,15.742 22.980,16.000 22.979 C 16.212 22.979,16.341 22.957,16.440 22.905 C 16.517 22.865,17.350 22.064,18.290 21.126 L 20.000 19.421 20.000 20.561 C 20.001 21.676,20.003 21.704,20.095 21.900 C 20.276 22.281,20.595 22.488,21.000 22.488 C 21.405 22.488,21.724 22.281,21.905 21.900 L 21.999 21.700 21.999 19.240 L 21.999 16.780 21.905 16.580 C 21.791 16.340,21.642 16.193,21.400 16.083 C 21.225 16.004,21.152 16.002,18.780 16.004 C 17.438 16.006,16.295 16.021,16.240 16.037 " stroke="none" fill-rule="evenodd" fill="black"></path></svg>