<svg xmlns="http://www.w3.org/2000/svg" width="24" height="24" viewBox="0 0 24 24" fill="none" stroke="currentColor" stroke-width="2" stroke-linecap="round" stroke-linejoin="round"><path d="M11.320 4.044 C 10.902 4.092,10.295 4.225,9.864 4.364 C 9.364 4.525,8.537 4.945,8.080 5.270 C 7.615 5.601,6.942 6.268,6.620 6.720 C 6.388 7.045,5.920 7.917,5.920 8.025 C 5.920 8.055,5.879 8.086,5.830 8.095 C 4.523 8.335,3.578 8.793,2.695 9.615 C 2.245 10.034,1.884 10.528,1.580 11.140 C 1.187 11.930,1.000 12.701,1.001 13.520 C 1.004 15.982,2.739 18.176,5.180 18.805 C 5.929 18.998,5.953 18.999,9.915 18.999 C 12.687 19.000,13.692 18.988,13.809 18.952 C 14.023 18.888,14.335 18.601,14.419 18.390 C 14.506 18.174,14.507 17.823,14.422 17.618 C 14.340 17.422,14.150 17.220,13.940 17.106 L 13.780 17.020 9.900 16.998 C 6.115 16.976,6.013 16.973,5.740 16.892 C 4.928 16.650,4.436 16.359,3.935 15.827 C 2.312 14.102,2.890 11.397,5.098 10.377 C 5.504 10.190,5.945 10.085,6.503 10.043 C 6.908 10.013,6.987 9.995,7.148 9.894 C 7.424 9.723,7.546 9.544,7.663 9.139 C 7.927 8.226,8.422 7.512,9.179 6.949 C 10.605 5.889,12.649 5.706,14.260 6.496 C 15.188 6.951,15.853 7.595,16.271 8.443 C 16.514 8.939,16.598 9.287,16.637 9.960 C 16.673 10.591,16.699 10.691,16.889 10.931 C 17.123 11.227,17.564 11.351,17.976 11.236 C 18.190 11.177,18.527 10.835,18.593 10.609 C 18.664 10.371,18.655 9.554,18.578 9.109 C 18.439 8.308,18.053 7.385,17.573 6.709 C 17.264 6.272,16.587 5.604,16.119 5.271 C 15.656 4.942,14.830 4.522,14.327 4.360 C 13.389 4.059,12.251 3.939,11.320 4.044 M18.695 13.057 C 18.342 13.168,18.095 13.451,18.019 13.835 L 17.976 14.050 17.757 14.118 C 17.003 14.351,16.361 14.980,16.118 15.722 C 16.034 15.976,16.020 16.094,16.022 16.520 C 16.024 16.960,16.038 17.056,16.133 17.320 C 16.394 18.039,16.964 18.609,17.680 18.867 C 17.961 18.968,18.033 18.976,18.800 18.992 C 19.702 19.010,19.786 19.030,19.922 19.252 C 20.021 19.415,20.021 19.585,19.922 19.748 C 19.770 19.996,19.746 20.000,18.248 20.000 C 16.774 20.000,16.653 20.014,16.382 20.221 C 16.302 20.282,16.187 20.415,16.128 20.516 C 16.037 20.672,16.020 20.746,16.020 21.000 C 16.020 21.256,16.036 21.328,16.131 21.489 C 16.256 21.702,16.449 21.864,16.670 21.943 C 16.768 21.978,17.022 21.997,17.405 21.998 L 17.991 22.000 18.018 22.179 C 18.054 22.422,18.258 22.712,18.497 22.859 C 18.671 22.966,18.729 22.980,19.000 22.980 C 19.271 22.980,19.329 22.966,19.503 22.859 C 19.752 22.706,19.949 22.419,19.984 22.160 L 20.010 21.966 20.294 21.873 C 21.001 21.642,21.605 21.046,21.868 20.320 C 21.965 20.052,21.976 19.965,21.976 19.500 C 21.976 19.035,21.965 18.948,21.868 18.680 C 21.646 18.068,21.195 17.561,20.620 17.277 C 20.172 17.055,19.869 17.002,19.068 17.001 C 18.319 17.000,18.216 16.974,18.078 16.748 C 17.932 16.508,18.023 16.193,18.276 16.062 C 18.377 16.010,18.612 16.000,19.788 15.998 C 21.285 15.996,21.350 15.989,21.619 15.783 C 21.696 15.725,21.808 15.592,21.869 15.489 C 21.964 15.328,21.980 15.256,21.980 15.000 C 21.980 14.746,21.963 14.672,21.872 14.516 C 21.634 14.111,21.351 14.000,20.559 14.000 L 20.010 14.000 19.983 13.830 C 19.926 13.473,19.648 13.163,19.290 13.055 C 19.068 12.988,18.913 12.989,18.695 13.057 " stroke="none" fill-rule="evenodd" fill="black"></path></svg>