<svg xmlns="http://www.w3.org/2000/svg" width="24" height="24" viewBox="0 0 24 24" fill="none" stroke="currentColor" stroke-width="2" stroke-linecap="round" stroke-linejoin="round"><path d="M11.320 4.044 C 10.902 4.092,10.295 4.225,9.864 4.364 C 9.364 4.525,8.537 4.945,8.080 5.270 C 7.615 5.601,6.942 6.268,6.620 6.720 C 6.388 7.045,5.920 7.917,5.920 8.025 C 5.920 8.055,5.879 8.086,5.830 8.095 C 4.523 8.335,3.578 8.793,2.695 9.615 C 2.245 10.034,1.884 10.528,1.580 11.140 C 1.187 11.930,1.000 12.701,1.001 13.520 C 1.004 15.982,2.739 18.176,5.180 18.805 C 5.927 18.997,5.969 18.999,9.680 18.998 C 12.501 18.997,13.209 18.986,13.330 18.943 C 14.164 18.645,14.219 17.496,13.418 17.098 C 13.266 17.023,13.132 17.019,9.640 16.998 C 5.685 16.973,5.949 16.988,5.296 16.748 C 4.583 16.486,3.846 15.867,3.456 15.204 C 2.716 13.942,2.909 12.310,3.930 11.219 C 4.606 10.496,5.421 10.124,6.503 10.043 C 6.908 10.013,6.987 9.995,7.148 9.894 C 7.424 9.723,7.546 9.544,7.663 9.139 C 7.927 8.226,8.422 7.512,9.179 6.949 C 10.607 5.887,12.648 5.706,14.265 6.498 C 15.424 7.066,16.195 7.954,16.523 9.100 C 16.598 9.360,16.615 9.521,16.616 9.960 C 16.617 10.257,16.602 10.666,16.583 10.868 C 16.550 11.221,16.553 11.244,16.656 11.455 C 16.893 11.940,17.144 12.039,18.137 12.041 C 18.934 12.043,19.202 12.090,19.631 12.302 C 20.036 12.502,20.482 12.941,20.717 13.372 C 20.923 13.748,21.105 13.934,21.351 14.017 C 21.718 14.143,22.061 14.078,22.344 13.828 C 22.763 13.460,22.798 12.983,22.452 12.361 C 21.737 11.077,20.407 10.191,18.994 10.060 C 18.647 10.028,18.642 10.021,18.640 9.660 C 18.638 8.844,18.168 7.546,17.573 6.710 C 17.259 6.270,16.583 5.600,16.119 5.271 C 15.656 4.942,14.829 4.522,14.327 4.360 C 13.389 4.059,12.251 3.939,11.320 4.044 M16.695 16.057 C 16.466 16.129,16.256 16.299,16.128 16.516 L 16.020 16.700 16.020 19.503 L 16.020 22.306 16.141 22.503 C 16.543 23.156,17.457 23.156,17.859 22.503 L 17.980 22.306 17.980 19.503 L 17.980 16.700 17.872 16.516 C 17.628 16.101,17.150 15.915,16.695 16.057 M20.695 16.057 C 20.466 16.129,20.256 16.299,20.128 16.516 L 20.020 16.700 20.020 19.503 L 20.020 22.306 20.141 22.503 C 20.543 23.156,21.457 23.156,21.859 22.503 L 21.980 22.306 21.980 19.503 L 21.980 16.700 21.872 16.516 C 21.628 16.101,21.150 15.915,20.695 16.057 " stroke="none" fill-rule="evenodd" fill="black"></path></svg>