<svg xmlns="http://www.w3.org/2000/svg" width="24" height="24" viewBox="0 0 24 24" fill="none" stroke="currentColor" stroke-width="2" stroke-linecap="round" stroke-linejoin="round"><path d="M11.320 4.044 C 10.902 4.092,10.295 4.225,9.864 4.364 C 9.364 4.525,8.537 4.945,8.080 5.270 C 7.615 5.601,6.942 6.268,6.620 6.720 C 6.388 7.045,5.920 7.917,5.920 8.025 C 5.920 8.055,5.879 8.086,5.830 8.095 C 5.079 8.233,4.462 8.438,3.920 8.730 C 3.228 9.102,2.558 9.670,2.104 10.268 C 1.781 10.696,1.359 11.530,1.219 12.020 C 0.285 15.287,2.531 18.547,6.000 18.959 C 6.272 18.992,8.208 19.001,12.800 18.992 L 19.220 18.980 19.603 18.874 C 20.435 18.644,21.093 18.270,21.663 17.702 C 22.258 17.110,22.623 16.477,22.854 15.640 C 23.020 15.038,23.038 14.240,22.901 13.580 C 22.748 12.840,22.305 12.002,21.763 11.428 C 21.066 10.689,20.100 10.201,19.082 10.074 C 18.636 10.019,18.642 10.024,18.640 9.660 C 18.638 8.844,18.168 7.546,17.573 6.710 C 17.259 6.270,16.583 5.600,16.119 5.271 C 15.656 4.942,14.829 4.522,14.327 4.360 C 13.389 4.059,12.251 3.939,11.320 4.044 M12.700 6.044 C 14.312 6.241,15.699 7.185,16.301 8.495 C 16.542 9.021,16.615 9.356,16.616 9.960 C 16.617 10.257,16.602 10.666,16.583 10.868 C 16.550 11.221,16.553 11.244,16.656 11.455 C 16.893 11.940,17.145 12.040,18.137 12.041 C 18.568 12.041,18.918 12.062,19.085 12.097 C 19.886 12.267,20.635 12.965,20.890 13.780 C 21.006 14.148,21.013 14.859,20.905 15.220 C 20.716 15.853,20.193 16.467,19.600 16.752 C 19.412 16.843,19.144 16.935,19.000 16.959 C 18.817 16.990,16.855 17.000,12.380 16.992 L 6.020 16.980 5.660 16.869 C 4.933 16.646,4.359 16.294,3.898 15.789 C 2.704 14.481,2.718 12.515,3.930 11.219 C 4.606 10.496,5.421 10.124,6.503 10.043 C 6.908 10.013,6.987 9.995,7.148 9.894 C 7.424 9.723,7.546 9.544,7.663 9.139 C 7.927 8.226,8.422 7.512,9.179 6.949 C 10.159 6.220,11.442 5.891,12.700 6.044 " stroke="none" fill-rule="evenodd" fill="black"></path></svg>