<svg xmlns="http://www.w3.org/2000/svg" width="24" height="24" viewBox="0 0 24 24" fill="none" stroke="currentColor" stroke-width="2" stroke-linecap="round" stroke-linejoin="round"><path d="M11.520 4.024 C 9.137 4.370,7.159 5.826,6.321 7.851 C 6.278 7.956,6.219 8.048,6.191 8.056 C 6.163 8.064,6.014 8.093,5.860 8.120 C 4.193 8.415,2.633 9.584,1.862 11.117 C 1.503 11.830,1.309 12.663,1.309 13.500 C 1.309 16.293,3.437 18.608,6.332 18.962 C 6.893 19.031,7.265 19.000,7.497 18.864 C 8.248 18.424,8.119 17.305,7.290 17.055 C 7.189 17.025,7.014 17.000,6.899 17.000 C 6.611 17.000,6.075 16.901,5.739 16.787 C 4.631 16.409,3.780 15.542,3.434 14.439 C 3.352 14.177,3.340 14.060,3.340 13.500 C 3.340 12.940,3.352 12.823,3.434 12.561 C 3.777 11.469,4.605 10.617,5.705 10.227 C 6.050 10.104,6.323 10.053,6.890 10.004 C 7.606 9.943,7.787 9.786,8.039 9.007 C 8.281 8.260,8.586 7.771,9.138 7.247 C 9.512 6.892,9.833 6.675,10.336 6.439 C 11.697 5.799,13.317 5.798,14.665 6.438 C 15.546 6.856,16.193 7.444,16.638 8.230 C 16.992 8.858,17.162 9.678,17.078 10.360 C 16.995 11.040,16.992 11.103,17.037 11.268 C 17.101 11.508,17.308 11.759,17.539 11.878 C 17.729 11.975,17.777 11.981,18.619 12.005 C 19.579 12.033,19.740 12.063,20.180 12.294 C 20.322 12.368,20.552 12.551,20.742 12.740 C 21.264 13.259,21.479 13.771,21.479 14.500 C 21.479 15.226,21.265 15.737,20.742 16.264 C 20.501 16.506,20.345 16.624,20.120 16.734 C 19.800 16.891,19.377 16.998,19.076 16.999 C 18.509 17.001,18.066 17.372,18.013 17.888 C 17.971 18.293,18.156 18.661,18.504 18.864 C 19.058 19.189,20.502 18.893,21.460 18.259 C 24.341 16.351,24.117 12.078,21.054 10.511 C 20.509 10.233,20.026 10.093,19.354 10.020 L 19.128 9.995 19.101 9.668 C 18.923 7.477,17.645 5.659,15.580 4.658 C 14.361 4.067,12.847 3.831,11.520 4.024 M10.695 14.057 C 10.466 14.129,10.256 14.299,10.128 14.516 C 10.036 14.672,10.020 14.745,10.021 15.000 C 10.022 15.332,10.101 15.533,10.306 15.728 C 10.785 16.181,11.580 16.046,11.893 15.460 C 12.025 15.211,12.015 14.760,11.872 14.516 C 11.628 14.101,11.150 13.915,10.695 14.057 M14.600 16.123 C 14.203 16.303,14.022 16.589,14.021 17.043 C 14.020 17.311,14.034 17.369,14.141 17.543 C 14.543 18.196,15.457 18.196,15.859 17.543 C 15.966 17.369,15.980 17.311,15.979 17.043 C 15.978 16.812,15.958 16.702,15.893 16.580 C 15.714 16.245,15.377 16.042,15.000 16.042 C 14.864 16.042,14.711 16.073,14.600 16.123 M10.800 17.037 C 10.178 17.164,9.827 17.854,10.095 18.420 C 10.276 18.801,10.595 19.008,11.000 19.008 C 11.405 19.008,11.724 18.801,11.905 18.420 C 12.188 17.822,11.785 17.107,11.120 17.029 C 11.021 17.018,10.877 17.021,10.800 17.037 M14.695 19.097 C 14.466 19.169,14.256 19.339,14.128 19.556 C 14.036 19.712,14.020 19.785,14.021 20.040 C 14.022 20.372,14.101 20.573,14.306 20.768 C 14.785 21.221,15.580 21.086,15.893 20.500 C 16.025 20.251,16.015 19.800,15.872 19.556 C 15.628 19.141,15.150 18.955,14.695 19.097 M10.600 20.104 C 10.399 20.191,10.205 20.389,10.095 20.620 C 9.867 21.103,10.074 21.666,10.577 21.932 C 10.695 21.993,10.812 22.017,11.000 22.017 C 11.727 22.017,12.212 21.268,11.905 20.620 C 11.793 20.385,11.599 20.189,11.391 20.102 C 11.203 20.023,10.783 20.024,10.600 20.104 " stroke="none" fill-rule="evenodd" fill="black"></path></svg>