<svg xmlns="http://www.w3.org/2000/svg" width="24" height="24" viewBox="0 0 24 24" fill="none" stroke="currentColor" stroke-width="2" stroke-linecap="round" stroke-linejoin="round"><path d="M2.670 2.061 C 2.448 2.142,2.250 2.309,2.128 2.516 C 2.036 2.672,2.020 2.745,2.021 3.000 C 2.021 3.212,2.043 3.341,2.095 3.440 C 2.135 3.517,3.057 4.471,4.143 5.560 L 6.118 7.540 6.011 7.811 C 5.934 8.007,5.881 8.087,5.822 8.097 C 4.554 8.321,3.574 8.797,2.695 9.615 C 2.245 10.034,1.884 10.528,1.580 11.140 C 1.187 11.930,1.000 12.701,1.001 13.520 C 1.004 15.982,2.739 18.176,5.180 18.805 C 5.949 19.003,5.806 18.999,11.880 18.999 L 17.580 19.000 18.960 20.383 C 19.719 21.143,20.421 21.814,20.520 21.873 C 20.673 21.964,20.746 21.980,21.000 21.980 C 21.257 21.980,21.327 21.964,21.492 21.867 C 21.968 21.587,22.139 20.967,21.865 20.508 C 21.810 20.416,17.665 16.243,12.653 11.235 C 4.231 2.820,3.525 2.125,3.343 2.065 C 3.107 1.987,2.874 1.986,2.670 2.061 M11.320 4.044 C 10.474 4.140,9.404 4.468,8.974 4.764 C 8.745 4.921,8.587 5.246,8.587 5.554 C 8.588 5.991,8.886 6.380,9.315 6.506 C 9.584 6.584,9.706 6.565,10.255 6.358 C 11.613 5.846,13.036 5.896,14.265 6.498 C 15.424 7.066,16.195 7.954,16.523 9.100 C 16.598 9.360,16.615 9.521,16.616 9.960 C 16.617 10.257,16.602 10.666,16.583 10.868 C 16.550 11.221,16.553 11.244,16.656 11.455 C 16.893 11.940,17.145 12.040,18.137 12.041 C 18.568 12.041,18.918 12.062,19.085 12.097 C 19.886 12.267,20.635 12.965,20.890 13.780 C 21.006 14.148,21.013 14.859,20.905 15.220 C 20.811 15.536,20.613 15.884,20.360 16.180 C 20.088 16.497,20.033 16.610,20.010 16.900 C 19.949 17.653,20.730 18.188,21.421 17.866 C 21.539 17.811,21.702 17.683,21.816 17.556 C 22.797 16.465,23.196 15.002,22.901 13.580 C 22.748 12.840,22.305 12.002,21.763 11.428 C 21.066 10.689,20.100 10.201,19.082 10.074 C 18.636 10.019,18.642 10.024,18.640 9.660 C 18.638 8.844,18.168 7.546,17.573 6.710 C 17.259 6.270,16.583 5.600,16.119 5.271 C 15.656 4.942,14.829 4.522,14.327 4.360 C 13.389 4.059,12.251 3.939,11.320 4.044 M14.850 16.991 C 14.460 16.997,12.313 16.996,10.080 16.989 C 6.089 16.977,6.015 16.975,5.740 16.893 C 4.925 16.648,4.435 16.359,3.935 15.827 C 2.312 14.102,2.890 11.397,5.098 10.377 C 5.503 10.190,5.945 10.085,6.500 10.043 C 6.883 10.015,6.986 9.992,7.136 9.905 C 7.361 9.772,7.550 9.546,7.605 9.340 C 7.629 9.252,7.658 9.164,7.669 9.145 C 7.681 9.126,9.461 10.881,11.625 13.045 L 15.560 16.980 14.850 16.991 " stroke="none" fill-rule="evenodd" fill="black"></path></svg>