<svg xmlns="http://www.w3.org/2000/svg" width="24" height="24" viewBox="0 0 24 24" fill="none" stroke="currentColor" stroke-width="2" stroke-linecap="round" stroke-linejoin="round"><path d="M11.520 3.027 C 11.242 3.056,10.580 3.209,10.303 3.308 C 9.562 3.575,8.926 3.990,8.380 4.564 C 8.028 4.933,7.838 5.200,7.636 5.610 C 7.551 5.783,7.479 5.880,7.436 5.880 C 7.287 5.880,6.642 6.095,6.325 6.250 C 4.960 6.917,4.080 8.245,4.013 9.740 C 3.964 10.854,4.370 11.889,5.178 12.705 C 5.757 13.290,6.426 13.672,7.248 13.887 C 7.558 13.968,7.692 13.975,9.290 13.990 L 11.000 14.005 11.000 14.575 L 11.000 15.145 10.670 15.313 C 10.091 15.607,9.597 16.102,9.312 16.670 L 9.147 17.000 6.020 17.000 C 2.627 17.000,2.676 16.997,2.382 17.221 C 2.302 17.282,2.187 17.415,2.128 17.516 C 2.037 17.672,2.020 17.746,2.020 18.000 C 2.020 18.256,2.036 18.328,2.131 18.489 C 2.256 18.702,2.449 18.864,2.670 18.943 C 2.790 18.986,3.445 18.997,5.983 18.998 L 9.147 19.000 9.312 19.330 C 9.682 20.069,10.355 20.635,11.160 20.886 C 11.594 21.021,12.406 21.021,12.840 20.886 C 13.645 20.635,14.318 20.069,14.688 19.330 L 14.853 19.000 18.017 18.998 C 20.555 18.997,21.210 18.986,21.330 18.943 C 21.551 18.864,21.744 18.702,21.869 18.489 C 21.964 18.328,21.980 18.256,21.980 18.000 C 21.980 17.746,21.963 17.672,21.872 17.516 C 21.813 17.415,21.698 17.282,21.618 17.221 C 21.324 16.997,21.373 17.000,17.980 17.000 L 14.853 17.000 14.688 16.670 C 14.403 16.102,13.909 15.607,13.330 15.313 L 13.000 15.145 13.000 14.575 L 13.000 14.005 15.090 13.990 C 17.373 13.973,17.286 13.981,17.916 13.721 C 18.528 13.469,19.173 12.909,19.515 12.333 C 20.696 10.346,19.600 7.788,17.346 7.272 C 17.145 7.226,16.976 7.186,16.972 7.183 C 16.968 7.180,16.945 7.052,16.921 6.899 C 16.824 6.285,16.555 5.607,16.189 5.060 C 15.968 4.730,15.361 4.140,14.980 3.885 C 14.564 3.607,14.020 3.349,13.583 3.222 C 12.985 3.049,12.111 2.966,11.520 3.027 M12.551 5.041 C 13.244 5.154,13.775 5.417,14.244 5.880 C 14.802 6.431,15.025 7.070,14.922 7.822 C 14.894 8.028,14.883 8.264,14.899 8.347 C 14.958 8.662,15.166 8.929,15.458 9.065 C 15.631 9.146,15.723 9.159,16.100 9.160 C 16.902 9.161,17.261 9.269,17.588 9.607 C 18.013 10.046,18.112 10.754,17.819 11.263 C 17.706 11.459,17.428 11.744,17.268 11.826 C 16.928 12.002,17.011 11.999,12.376 12.000 C 8.150 12.000,7.961 11.997,7.670 11.922 C 7.170 11.795,6.826 11.580,6.478 11.178 C 5.641 10.211,5.968 8.687,7.145 8.071 C 7.491 7.890,7.661 7.845,8.161 7.802 C 8.478 7.774,8.598 7.746,8.738 7.664 C 8.992 7.515,9.150 7.302,9.246 6.980 C 9.474 6.215,9.915 5.703,10.660 5.340 C 11.250 5.051,11.941 4.942,12.551 5.041 M12.310 17.061 C 12.688 17.173,13.000 17.598,13.000 18.001 C 13.000 18.331,12.784 18.696,12.484 18.872 C 12.328 18.963,12.254 18.980,12.000 18.980 C 11.746 18.980,11.672 18.963,11.516 18.872 C 10.935 18.530,10.833 17.774,11.304 17.303 C 11.583 17.024,11.916 16.944,12.310 17.061 " stroke="none" fill-rule="evenodd" fill="black"></path></svg>