<svg xmlns="http://www.w3.org/2000/svg" width="24" height="24" viewBox="0 0 24 24" fill="none" stroke="currentColor" stroke-width="2" stroke-linecap="round" stroke-linejoin="round"><path d="M11.320 4.044 C 10.902 4.092,10.295 4.225,9.864 4.364 C 9.364 4.525,8.537 4.945,8.080 5.270 C 7.615 5.601,6.942 6.268,6.620 6.720 C 6.388 7.045,5.920 7.917,5.920 8.025 C 5.920 8.055,5.879 8.086,5.830 8.095 C 4.523 8.335,3.578 8.793,2.695 9.615 C 2.245 10.034,1.884 10.528,1.580 11.140 C 1.187 11.930,1.000 12.701,1.001 13.520 C 1.004 15.982,2.739 18.176,5.180 18.805 C 5.940 19.000,5.894 18.999,10.680 18.998 C 14.336 18.997,15.208 18.986,15.330 18.943 C 16.164 18.645,16.219 17.496,15.418 17.098 C 15.265 17.022,15.126 17.019,10.640 16.998 C 6.098 16.976,6.015 16.975,5.740 16.892 C 4.927 16.649,4.435 16.359,3.935 15.827 C 2.312 14.102,2.890 11.397,5.098 10.377 C 5.504 10.190,5.945 10.085,6.503 10.043 C 6.908 10.013,6.987 9.995,7.148 9.894 C 7.424 9.723,7.546 9.544,7.663 9.139 C 7.927 8.226,8.422 7.512,9.179 6.949 C 10.607 5.887,12.648 5.706,14.265 6.498 C 15.424 7.066,16.195 7.954,16.523 9.100 C 16.598 9.360,16.615 9.521,16.616 9.960 C 16.617 10.257,16.602 10.666,16.583 10.868 C 16.550 11.221,16.553 11.244,16.656 11.455 C 16.895 11.943,17.143 12.040,18.158 12.040 C 18.948 12.040,19.253 12.098,19.700 12.331 C 20.014 12.496,20.504 12.985,20.689 13.320 C 20.873 13.653,21.081 13.859,21.312 13.938 C 21.686 14.066,22.026 13.996,22.320 13.733 C 22.779 13.320,22.761 12.805,22.262 12.047 C 21.539 10.950,20.270 10.178,18.994 10.060 C 18.647 10.028,18.642 10.021,18.640 9.660 C 18.638 8.844,18.168 7.546,17.573 6.710 C 17.259 6.270,16.583 5.600,16.119 5.271 C 15.656 4.942,14.829 4.522,14.327 4.360 C 13.389 4.059,12.251 3.939,11.320 4.044 M18.695 15.057 C 18.466 15.129,18.256 15.299,18.128 15.516 L 18.020 15.700 18.020 17.503 L 18.020 19.306 18.141 19.503 C 18.543 20.156,19.457 20.156,19.859 19.503 L 19.980 19.306 19.980 17.503 L 19.980 15.700 19.872 15.516 C 19.628 15.101,19.150 14.915,18.695 15.057 M18.695 21.057 C 18.466 21.129,18.256 21.299,18.128 21.516 C 18.036 21.672,18.020 21.745,18.021 22.000 C 18.022 22.332,18.101 22.533,18.306 22.728 C 18.785 23.181,19.580 23.046,19.893 22.460 C 20.025 22.211,20.015 21.760,19.872 21.516 C 19.628 21.101,19.150 20.915,18.695 21.057 " stroke="none" fill-rule="evenodd" fill="black"></path></svg>