<svg xmlns="http://www.w3.org/2000/svg" width="24" height="24" viewBox="0 0 24 24" fill="none" stroke="currentColor" stroke-width="2" stroke-linecap="round" stroke-linejoin="round"><path d="M13.667 3.062 C 13.442 3.144,13.217 3.339,13.125 3.531 C 13.080 3.624,12.132 7.345,11.018 11.800 C 8.793 20.700,8.917 20.124,9.138 20.501 C 9.261 20.709,9.440 20.855,9.678 20.939 C 10.135 21.100,10.673 20.889,10.874 20.470 C 10.919 20.377,11.868 16.655,12.982 12.200 C 15.207 3.300,15.083 3.876,14.862 3.499 C 14.624 3.093,14.102 2.902,13.667 3.062 M6.640 7.068 C 6.486 7.121,6.151 7.438,4.347 9.235 C 3.166 10.411,2.187 11.419,2.127 11.520 C 2.037 11.672,2.020 11.746,2.020 12.000 C 2.020 12.254,2.036 12.328,2.127 12.480 C 2.261 12.705,6.368 16.805,6.560 16.905 C 6.659 16.957,6.788 16.979,7.000 16.979 C 7.258 16.980,7.327 16.964,7.492 16.867 C 7.714 16.737,7.901 16.498,7.965 16.264 C 8.019 16.061,7.989 15.733,7.899 15.555 C 7.862 15.481,7.064 14.650,6.126 13.710 L 4.421 12.000 6.126 10.290 C 7.064 9.350,7.865 8.517,7.905 8.440 C 7.957 8.341,7.979 8.212,7.979 8.000 C 7.980 7.745,7.964 7.672,7.872 7.516 C 7.617 7.083,7.121 6.903,6.640 7.068 M16.670 7.061 C 16.448 7.142,16.250 7.309,16.128 7.516 C 16.036 7.672,16.020 7.745,16.021 8.000 C 16.021 8.212,16.043 8.341,16.095 8.440 C 16.135 8.517,16.936 9.350,17.874 10.290 L 19.579 12.000 17.874 13.710 C 16.936 14.650,16.138 15.481,16.101 15.555 C 15.872 16.010,16.056 16.601,16.508 16.867 C 16.673 16.964,16.743 16.980,17.000 16.980 C 17.254 16.980,17.328 16.964,17.480 16.873 C 17.705 16.739,21.805 12.632,21.905 12.440 C 21.957 12.341,21.979 12.212,21.979 12.000 C 21.980 11.745,21.964 11.673,21.873 11.520 C 21.813 11.419,20.834 10.412,19.653 9.235 C 17.748 7.338,17.521 7.124,17.343 7.065 C 17.107 6.987,16.874 6.986,16.670 7.061 " stroke="none" fill-rule="evenodd" fill="black"></path></svg>