<svg xmlns="http://www.w3.org/2000/svg" width="24" height="24" viewBox="0 0 24 24" fill="none" stroke="currentColor" stroke-width="2" stroke-linecap="round" stroke-linejoin="round"><path d="M11.080 2.045 C 9.507 2.184,7.883 2.751,6.540 3.630 C 5.905 4.045,5.499 4.378,4.919 4.958 C 2.953 6.926,1.919 9.544,2.013 12.320 C 2.084 14.439,2.752 16.328,4.033 18.040 C 4.430 18.570,5.305 19.464,5.800 19.847 C 7.242 20.961,8.787 21.624,10.600 21.907 C 11.247 22.008,12.753 22.008,13.400 21.907 C 15.638 21.557,17.504 20.620,19.062 19.062 C 20.620 17.504,21.557 15.638,21.907 13.400 C 22.008 12.753,22.008 11.247,21.907 10.600 C 21.624 8.786,20.959 7.238,19.847 5.800 C 19.510 5.365,18.639 4.494,18.200 4.154 C 16.133 2.555,13.646 1.818,11.080 2.045 M12.734 4.041 C 14.574 4.216,16.228 4.976,17.554 6.256 C 20.043 8.658,20.702 12.394,19.183 15.499 C 18.749 16.387,18.223 17.105,17.496 17.801 C 16.876 18.394,16.262 18.819,15.471 19.200 C 13.267 20.265,10.733 20.265,8.529 19.200 C 7.477 18.693,6.612 18.015,5.847 17.100 C 3.848 14.711,3.440 11.302,4.816 8.500 C 6.162 5.760,8.867 4.049,11.920 4.005 C 12.129 4.003,12.495 4.019,12.734 4.041 M12.617 8.577 C 12.439 8.654,12.207 8.870,12.123 9.036 C 11.966 9.346,10.026 14.751,10.009 14.926 C 9.951 15.514,10.489 16.048,11.083 15.991 C 11.335 15.966,11.621 15.818,11.770 15.634 C 11.921 15.447,13.954 9.891,13.989 9.570 C 14.030 9.183,13.773 8.751,13.407 8.594 C 13.202 8.506,12.799 8.497,12.617 8.577 M8.080 9.603 C 7.862 9.702,6.292 11.243,6.127 11.520 C 6.036 11.673,6.020 11.745,6.021 12.000 C 6.021 12.213,6.043 12.340,6.095 12.440 C 6.182 12.604,7.705 14.155,7.943 14.320 C 8.032 14.383,8.194 14.449,8.303 14.469 C 9.016 14.595,9.595 14.015,9.469 13.301 C 9.423 13.044,9.353 12.946,8.846 12.431 L 8.423 12.002 8.871 11.548 C 9.160 11.255,9.347 11.029,9.399 10.911 C 9.695 10.242,9.229 9.518,8.502 9.521 C 8.346 9.521,8.196 9.551,8.080 9.603 M15.044 9.625 C 14.650 9.822,14.436 10.268,14.528 10.702 C 14.583 10.963,14.654 11.061,15.155 11.570 L 15.579 12.000 15.155 12.430 C 14.653 12.940,14.584 13.036,14.528 13.300 C 14.446 13.688,14.619 14.110,14.952 14.330 C 15.268 14.539,15.749 14.535,16.055 14.322 C 16.294 14.155,17.817 12.605,17.905 12.440 C 17.957 12.340,17.979 12.213,17.979 12.000 C 17.980 11.745,17.964 11.673,17.873 11.520 C 17.708 11.243,16.138 9.702,15.920 9.603 C 15.654 9.483,15.313 9.492,15.044 9.625 " stroke="none" fill-rule="evenodd" fill="black"></path></svg>