<svg xmlns="http://www.w3.org/2000/svg" width="24" height="24" viewBox="0 0 24 24" fill="none" stroke="currentColor" stroke-width="2" stroke-linecap="round" stroke-linejoin="round"><path d="M5.499 4.043 C 4.393 4.229,3.483 5.028,3.115 6.140 C 3.024 6.416,3.022 6.450,3.009 8.500 L 2.995 10.580 2.583 11.000 C 2.070 11.522,2.022 11.609,2.022 12.000 C 2.022 12.391,2.070 12.478,2.583 13.000 L 2.995 13.420 3.009 15.500 C 3.022 17.550,3.024 17.584,3.115 17.860 C 3.439 18.838,4.190 19.587,5.137 19.877 C 5.481 19.982,6.040 20.026,6.264 19.965 C 6.498 19.901,6.737 19.714,6.867 19.492 C 6.964 19.327,6.980 19.257,6.980 19.000 C 6.980 18.746,6.963 18.672,6.872 18.516 C 6.758 18.323,6.561 18.149,6.375 18.078 C 6.314 18.055,6.130 18.019,5.966 17.998 C 5.622 17.955,5.387 17.835,5.225 17.623 C 4.999 17.327,5.000 17.334,5.000 15.002 C 5.000 12.539,5.013 12.640,4.654 12.244 L 4.433 12.000 4.654 11.756 C 5.012 11.360,5.000 11.459,5.000 9.020 C 5.000 6.614,5.000 6.613,5.283 6.321 C 5.484 6.114,5.636 6.049,6.028 5.999 C 6.392 5.953,6.631 5.827,6.802 5.591 C 7.207 5.032,6.947 4.253,6.290 4.055 C 6.090 3.995,5.811 3.991,5.499 4.043 M17.695 4.054 C 17.048 4.267,16.799 5.040,17.198 5.591 C 17.369 5.827,17.608 5.953,17.972 5.999 C 18.364 6.049,18.516 6.114,18.717 6.321 C 19.000 6.613,19.000 6.614,19.000 9.020 C 19.000 11.459,18.988 11.360,19.346 11.756 L 19.567 12.000 19.346 12.244 C 18.988 12.640,19.000 12.541,19.000 14.981 C 19.000 17.289,18.996 17.333,18.779 17.618 C 18.613 17.835,18.380 17.954,18.034 17.998 C 17.870 18.019,17.686 18.055,17.625 18.078 C 17.439 18.149,17.242 18.323,17.128 18.516 C 17.037 18.672,17.020 18.746,17.020 19.000 C 17.020 19.257,17.036 19.327,17.133 19.492 C 17.263 19.714,17.502 19.901,17.736 19.965 C 17.960 20.026,18.519 19.982,18.863 19.877 C 19.810 19.587,20.561 18.838,20.885 17.860 C 20.976 17.584,20.978 17.550,20.991 15.500 L 21.005 13.420 21.417 13.000 C 21.930 12.478,21.978 12.391,21.978 12.000 C 21.978 11.609,21.930 11.522,21.417 11.000 L 21.005 10.580 20.991 8.500 C 20.978 6.450,20.976 6.416,20.885 6.140 C 20.560 5.159,19.798 4.401,18.863 4.130 C 18.463 4.015,17.922 3.979,17.695 4.054 M11.600 7.584 C 11.419 7.662,11.216 7.858,11.106 8.060 C 11.027 8.208,11.018 8.293,11.000 9.189 L 10.980 10.158 10.340 9.794 C 9.409 9.266,9.261 9.200,8.997 9.200 C 8.418 9.200,7.947 9.722,8.014 10.290 C 8.068 10.746,8.233 10.909,9.175 11.437 C 9.585 11.667,9.920 11.865,9.920 11.878 C 9.920 11.890,9.583 12.090,9.170 12.320 C 8.758 12.551,8.355 12.805,8.275 12.885 C 7.982 13.177,7.922 13.692,8.138 14.061 C 8.386 14.484,8.932 14.673,9.367 14.485 C 9.462 14.444,9.864 14.228,10.260 14.005 L 10.980 13.599 11.000 14.570 C 11.018 15.466,11.027 15.552,11.106 15.700 C 11.288 16.036,11.623 16.238,12.000 16.238 C 12.377 16.238,12.712 16.036,12.894 15.700 C 12.973 15.552,12.982 15.466,13.000 14.570 L 13.020 13.599 13.740 14.005 C 14.136 14.228,14.538 14.444,14.633 14.485 C 15.068 14.673,15.614 14.484,15.862 14.061 C 16.078 13.692,16.018 13.177,15.725 12.885 C 15.645 12.805,15.242 12.551,14.830 12.320 C 14.417 12.090,14.080 11.890,14.080 11.878 C 14.080 11.865,14.415 11.667,14.825 11.437 C 15.767 10.909,15.932 10.746,15.986 10.290 C 16.053 9.722,15.582 9.200,15.003 9.200 C 14.739 9.200,14.591 9.266,13.660 9.794 L 13.020 10.158 13.000 9.189 C 12.982 8.293,12.973 8.208,12.894 8.060 C 12.782 7.853,12.579 7.660,12.391 7.582 C 12.203 7.503,11.783 7.504,11.600 7.584 " stroke="none" fill-rule="evenodd" fill="black"></path></svg>