<svg xmlns="http://www.w3.org/2000/svg" width="24" height="24" viewBox="0 0 24 24" fill="none" stroke="currentColor" stroke-width="2" stroke-linecap="round" stroke-linejoin="round"><path d="M2.670 2.061 C 2.448 2.142,2.250 2.309,2.128 2.516 C 2.036 2.672,2.020 2.745,2.021 3.000 C 2.021 3.212,2.043 3.341,2.095 3.440 C 2.135 3.517,3.048 4.462,4.124 5.540 L 6.080 7.501 4.157 9.420 C 3.100 10.476,2.187 11.421,2.127 11.520 C 2.036 11.673,2.020 11.745,2.021 12.000 C 2.021 12.212,2.043 12.341,2.095 12.440 C 2.192 12.626,6.292 16.737,6.508 16.865 C 6.967 17.139,7.587 16.968,7.867 16.492 C 7.964 16.327,7.980 16.258,7.979 16.000 C 7.979 15.788,7.957 15.659,7.905 15.560 C 7.865 15.483,7.064 14.650,6.126 13.710 L 4.421 11.999 5.960 10.460 L 7.500 8.920 9.196 10.616 L 10.892 12.313 9.942 16.106 C 8.897 20.280,8.924 20.135,9.138 20.501 C 9.378 20.909,9.877 21.096,10.316 20.942 C 10.531 20.865,10.737 20.706,10.845 20.532 C 10.900 20.443,11.216 19.251,11.735 17.177 L 12.540 13.960 16.440 17.863 C 18.670 20.094,20.417 21.811,20.520 21.873 C 20.673 21.964,20.746 21.980,21.000 21.980 C 21.257 21.980,21.327 21.964,21.492 21.867 C 21.968 21.587,22.139 20.967,21.865 20.508 C 21.810 20.416,17.665 16.243,12.653 11.235 C 4.231 2.820,3.525 2.125,3.343 2.065 C 3.107 1.987,2.874 1.986,2.670 2.061 M13.667 3.062 C 13.442 3.144,13.217 3.339,13.125 3.531 C 13.081 3.624,12.762 4.825,12.418 6.200 C 11.884 8.337,11.796 8.731,11.814 8.912 C 11.885 9.629,12.696 10.034,13.306 9.657 C 13.676 9.428,13.660 9.474,14.366 6.657 C 15.073 3.838,15.070 3.856,14.862 3.499 C 14.624 3.093,14.102 2.902,13.667 3.062 M16.670 7.061 C 16.448 7.142,16.250 7.309,16.128 7.516 C 16.036 7.672,16.020 7.745,16.021 8.000 C 16.021 8.212,16.043 8.341,16.095 8.440 C 16.135 8.517,16.936 9.350,17.874 10.290 L 19.579 12.000 18.655 12.930 C 18.147 13.442,17.695 13.914,17.651 13.980 C 17.455 14.271,17.465 14.738,17.672 15.052 C 17.967 15.496,18.622 15.624,19.055 15.321 C 19.300 15.151,21.819 12.603,21.905 12.440 C 21.957 12.341,21.979 12.213,21.979 12.000 C 21.980 11.745,21.964 11.673,21.873 11.520 C 21.813 11.419,20.834 10.412,19.653 9.235 C 17.748 7.338,17.521 7.124,17.343 7.065 C 17.107 6.987,16.874 6.986,16.670 7.061 " stroke="none" fill-rule="evenodd" fill="black"></path></svg>