<svg xmlns="http://www.w3.org/2000/svg" width="24" height="24" viewBox="0 0 24 24" fill="none" stroke="currentColor" stroke-width="2" stroke-linecap="round" stroke-linejoin="round"><path d="M6.664 2.063 C 6.440 2.145,6.257 2.297,6.145 2.491 C 6.016 2.718,4.000 8.788,4.000 8.952 C 4.000 9.023,4.460 11.839,5.022 15.210 C 6.137 21.904,6.062 21.540,6.381 21.783 C 6.674 22.007,6.405 21.996,12.000 21.996 C 17.595 21.996,17.326 22.007,17.619 21.783 C 17.938 21.540,17.863 21.904,18.978 15.210 C 19.540 11.839,20.000 9.023,20.000 8.951 C 20.000 8.880,19.530 7.411,18.955 5.688 C 17.815 2.266,17.835 2.315,17.461 2.122 L 17.262 2.020 12.041 2.013 C 7.586 2.006,6.797 2.014,6.664 2.063 M13.122 6.547 L 13.971 9.093 13.101 14.317 C 12.623 17.189,12.213 19.643,12.191 19.770 L 12.151 20.000 10.000 20.000 L 7.849 20.000 7.809 19.770 C 7.787 19.643,7.377 17.189,6.899 14.317 L 6.029 9.093 6.878 6.547 L 7.727 4.000 10.000 4.000 L 12.273 4.000 13.122 6.547 M17.122 6.547 L 17.971 9.093 17.101 14.317 C 16.623 17.189,16.213 19.643,16.191 19.770 L 16.151 20.000 15.176 20.000 C 14.331 20.000,14.200 19.992,14.200 19.939 C 14.200 19.906,14.605 17.449,15.100 14.480 C 15.595 11.511,16.000 9.023,16.000 8.953 C 16.000 8.861,14.646 4.685,14.410 4.050 C 14.395 4.011,14.596 4.000,15.332 4.000 L 16.273 4.000 17.122 6.547 M9.695 6.057 C 9.466 6.129,9.256 6.299,9.128 6.516 C 9.025 6.692,9.019 6.728,9.007 7.350 L 8.993 8.000 8.443 8.000 C 7.648 8.000,7.366 8.111,7.128 8.516 C 7.037 8.672,7.020 8.746,7.020 9.000 C 7.020 9.256,7.036 9.328,7.131 9.489 C 7.256 9.702,7.449 9.864,7.670 9.943 C 7.768 9.978,8.022 9.997,8.408 9.998 L 8.995 10.000 9.008 11.153 L 9.020 12.307 9.141 12.503 C 9.543 13.156,10.457 13.156,10.859 12.503 L 10.980 12.307 10.992 11.153 L 11.005 10.000 11.592 9.998 C 11.978 9.997,12.232 9.978,12.330 9.943 C 12.551 9.864,12.744 9.702,12.869 9.489 C 12.964 9.328,12.980 9.256,12.980 9.000 C 12.980 8.746,12.963 8.672,12.872 8.516 C 12.634 8.111,12.352 8.000,11.557 8.000 L 11.007 8.000 10.993 7.350 C 10.981 6.728,10.975 6.692,10.872 6.516 C 10.628 6.101,10.150 5.915,9.695 6.057 " stroke="none" fill-rule="evenodd" fill="black"></path></svg>