<svg xmlns="http://www.w3.org/2000/svg" width="24" height="24" viewBox="0 0 24 24" fill="none" stroke="currentColor" stroke-width="2" stroke-linecap="round" stroke-linejoin="round"><path d="M7.654 2.065 C 7.424 2.146,6.938 2.572,6.687 2.910 C 6.442 3.240,6.199 3.747,6.095 4.140 C 5.992 4.534,5.992 5.466,6.095 5.860 C 6.310 6.676,6.894 7.502,7.520 7.873 C 7.672 7.963,7.746 7.980,8.000 7.980 C 8.256 7.980,8.328 7.964,8.489 7.869 C 8.839 7.663,9.029 7.292,8.988 6.894 C 8.959 6.611,8.851 6.433,8.538 6.148 C 8.358 5.985,8.245 5.838,8.152 5.649 C 8.031 5.403,8.020 5.351,8.020 5.000 C 8.020 4.649,8.031 4.597,8.152 4.349 C 8.247 4.157,8.353 4.021,8.525 3.870 C 8.826 3.608,8.959 3.389,8.988 3.107 C 9.063 2.375,8.351 1.818,7.654 2.065 M11.654 2.065 C 11.424 2.146,10.938 2.572,10.687 2.910 C 10.442 3.240,10.199 3.747,10.095 4.140 C 9.992 4.534,9.992 5.466,10.095 5.860 C 10.310 6.676,10.894 7.502,11.520 7.873 C 11.672 7.963,11.746 7.980,12.000 7.980 C 12.256 7.980,12.328 7.964,12.489 7.869 C 12.839 7.663,13.029 7.292,12.988 6.894 C 12.959 6.611,12.851 6.433,12.538 6.148 C 12.358 5.985,12.245 5.838,12.152 5.649 C 12.031 5.403,12.020 5.351,12.020 5.000 C 12.020 4.649,12.031 4.597,12.152 4.349 C 12.247 4.157,12.353 4.021,12.525 3.870 C 12.826 3.608,12.959 3.389,12.988 3.107 C 13.063 2.375,12.351 1.818,11.654 2.065 M2.695 9.057 C 2.466 9.129,2.256 9.299,2.128 9.516 L 2.020 9.700 2.020 12.680 C 2.020 14.949,2.033 15.741,2.073 16.000 C 2.553 19.096,4.904 21.447,8.000 21.927 C 8.476 22.001,11.524 22.001,12.000 21.927 C 14.119 21.599,15.948 20.371,17.020 18.556 C 17.135 18.361,17.251 18.150,17.277 18.087 L 17.324 17.973 17.832 17.991 C 18.974 18.029,20.016 17.626,20.801 16.841 C 21.339 16.304,21.707 15.659,21.889 14.931 C 21.960 14.648,21.977 14.464,21.978 13.980 C 21.978 13.448,21.966 13.335,21.868 12.983 C 21.503 11.664,20.559 10.656,19.279 10.219 C 18.955 10.109,18.399 10.000,18.160 10.000 C 18.015 10.000,18.009 9.995,17.983 9.830 C 17.926 9.473,17.648 9.163,17.290 9.055 C 17.027 8.976,2.947 8.978,2.695 9.057 M16.000 11.680 C 16.000 12.054,15.993 12.360,15.984 12.360 C 15.975 12.360,15.799 12.316,15.594 12.261 C 15.032 12.113,14.527 12.041,13.840 12.014 C 12.118 11.946,10.644 12.330,9.467 13.154 C 9.022 13.467,8.757 13.600,8.280 13.751 C 7.678 13.942,7.380 13.980,6.500 13.980 C 5.478 13.980,4.931 13.881,4.230 13.571 L 4.000 13.469 4.000 12.235 L 4.000 11.000 10.000 11.000 L 16.000 11.000 16.000 11.680 M18.654 12.125 C 19.130 12.285,19.523 12.624,19.766 13.085 C 20.362 14.211,19.720 15.616,18.462 15.939 C 18.330 15.972,18.153 16.000,18.067 16.000 C 17.922 16.000,17.913 15.993,17.941 15.910 C 17.958 15.861,17.980 14.958,17.989 13.905 L 18.007 11.991 18.212 12.018 C 18.325 12.033,18.524 12.081,18.654 12.125 M14.268 14.043 C 14.747 14.096,15.292 14.233,15.693 14.400 L 16.000 14.527 16.000 14.845 C 16.000 15.772,15.810 16.577,15.419 17.313 C 14.695 18.673,13.485 19.581,11.960 19.907 C 11.663 19.971,11.415 19.980,10.000 19.980 C 8.585 19.980,8.337 19.971,8.040 19.907 C 7.067 19.699,6.257 19.277,5.563 18.616 C 4.766 17.858,4.248 16.874,4.063 15.766 C 4.043 15.650,4.050 15.635,4.110 15.659 C 4.283 15.725,4.774 15.844,5.140 15.908 C 5.758 16.015,7.336 16.004,7.967 15.888 C 8.949 15.708,9.728 15.390,10.565 14.829 C 11.102 14.468,11.493 14.292,12.059 14.158 C 12.700 14.006,13.541 13.962,14.268 14.043 " stroke="none" fill-rule="evenodd" fill="black"></path></svg>