<svg xmlns="http://www.w3.org/2000/svg" width="24" height="24" viewBox="0 0 24 24" fill="none" stroke="currentColor" stroke-width="2" stroke-linecap="round" stroke-linejoin="round"><path d="M11.080 2.045 C 9.507 2.184,7.883 2.751,6.540 3.630 C 5.905 4.045,5.499 4.378,4.919 4.958 C 2.953 6.926,1.919 9.544,2.013 12.320 C 2.084 14.439,2.752 16.328,4.033 18.040 C 4.430 18.570,5.305 19.464,5.800 19.847 C 7.242 20.961,8.787 21.624,10.600 21.907 C 11.247 22.008,12.753 22.008,13.400 21.907 C 15.638 21.557,17.504 20.620,19.062 19.062 C 20.620 17.504,21.557 15.638,21.907 13.400 C 22.008 12.753,22.008 11.247,21.907 10.600 C 21.624 8.786,20.959 7.238,19.847 5.800 C 19.510 5.365,18.639 4.494,18.200 4.154 C 16.133 2.555,13.646 1.818,11.080 2.045 M12.734 4.041 C 14.574 4.216,16.228 4.976,17.554 6.256 C 19.767 8.392,20.556 11.623,19.580 14.550 L 19.430 15.000 18.215 15.000 L 17.000 15.000 17.000 11.927 C 17.000 8.460,17.013 8.620,16.697 8.303 C 16.411 8.018,16.050 7.935,15.657 8.066 C 15.481 8.124,15.279 8.312,13.730 9.854 L 12.000 11.577 10.290 9.875 C 9.263 8.853,8.523 8.147,8.437 8.108 C 7.952 7.887,7.396 8.060,7.129 8.514 L 7.020 8.700 7.009 11.850 L 6.998 15.000 5.784 15.000 L 4.570 15.000 4.420 14.550 C 3.757 12.562,3.901 10.363,4.816 8.500 C 6.162 5.760,8.867 4.049,11.920 4.005 C 12.129 4.003,12.495 4.019,12.734 4.041 M11.560 13.905 C 11.660 13.957,11.786 13.978,12.000 13.978 C 12.214 13.978,12.340 13.957,12.440 13.905 C 12.517 13.864,13.125 13.289,13.790 12.626 L 15.000 11.422 15.002 13.801 C 15.003 15.684,15.015 16.211,15.057 16.330 C 15.136 16.551,15.298 16.744,15.511 16.869 L 15.700 16.980 16.975 17.000 L 18.250 17.020 17.802 17.489 C 17.071 18.254,16.381 18.761,15.474 19.199 C 13.266 20.266,10.734 20.266,8.526 19.199 C 7.619 18.761,6.929 18.254,6.198 17.489 L 5.750 17.020 7.025 17.000 L 8.300 16.980 8.489 16.869 C 8.702 16.744,8.864 16.551,8.943 16.330 C 8.985 16.211,8.997 15.684,8.998 13.801 L 9.000 11.422 10.210 12.626 C 10.876 13.289,11.483 13.864,11.560 13.905 " stroke="none" fill-rule="evenodd" fill="black"></path></svg>