<svg xmlns="http://www.w3.org/2000/svg" width="24" height="24" viewBox="0 0 24 24" fill="none" stroke="currentColor" stroke-width="2" stroke-linecap="round" stroke-linejoin="round"><path d="M11.080 2.045 C 9.507 2.184,7.883 2.751,6.540 3.630 C 5.905 4.045,5.499 4.378,4.919 4.958 C 2.953 6.926,1.919 9.544,2.013 12.320 C 2.084 14.439,2.752 16.328,4.033 18.040 C 4.430 18.570,5.305 19.464,5.800 19.847 C 7.242 20.961,8.787 21.624,10.600 21.907 C 11.247 22.008,12.753 22.008,13.400 21.907 C 15.638 21.557,17.504 20.620,19.062 19.062 C 20.620 17.504,21.557 15.638,21.907 13.400 C 22.008 12.753,22.008 11.247,21.907 10.600 C 21.624 8.786,20.959 7.238,19.847 5.800 C 19.510 5.365,18.639 4.494,18.200 4.154 C 16.133 2.555,13.646 1.818,11.080 2.045 M12.734 4.041 C 14.574 4.216,16.228 4.976,17.554 6.256 C 20.043 8.658,20.702 12.394,19.183 15.499 C 18.749 16.387,18.223 17.105,17.496 17.801 C 16.876 18.394,16.262 18.819,15.471 19.200 C 13.267 20.265,10.733 20.265,8.529 19.200 C 7.477 18.693,6.612 18.015,5.847 17.100 C 3.848 14.711,3.440 11.302,4.816 8.500 C 6.162 5.760,8.867 4.049,11.920 4.005 C 12.129 4.003,12.495 4.019,12.734 4.041 M8.695 7.057 C 8.466 7.129,8.256 7.299,8.128 7.516 C 8.037 7.672,8.020 7.746,8.020 8.000 C 8.020 8.256,8.036 8.328,8.131 8.489 C 8.192 8.592,8.304 8.725,8.381 8.783 C 8.625 8.969,8.766 8.996,9.512 8.998 C 10.324 9.000,10.640 9.057,10.986 9.265 C 11.246 9.420,11.545 9.696,11.654 9.880 L 11.725 10.000 10.309 10.000 C 8.769 10.000,8.655 10.013,8.382 10.221 C 8.302 10.282,8.187 10.415,8.128 10.516 C 8.037 10.672,8.020 10.746,8.020 11.000 C 8.020 11.256,8.036 11.328,8.131 11.489 C 8.192 11.592,8.304 11.725,8.381 11.783 C 8.651 11.990,8.710 11.996,10.272 11.998 L 11.725 12.000 11.652 12.124 C 11.546 12.306,11.143 12.667,10.917 12.781 C 10.566 12.960,10.318 13.000,9.578 13.000 C 9.113 13.000,8.834 13.018,8.710 13.055 C 8.168 13.218,7.882 13.778,8.060 14.325 C 8.126 14.525,8.241 14.651,9.735 16.153 C 10.618 17.040,11.416 17.811,11.508 17.866 C 11.968 18.138,12.587 17.968,12.867 17.492 C 12.964 17.327,12.980 17.258,12.979 17.000 C 12.979 16.787,12.957 16.660,12.905 16.560 C 12.864 16.483,12.470 16.056,12.028 15.612 C 11.354 14.932,11.238 14.799,11.303 14.776 C 12.432 14.374,13.299 13.540,13.711 12.460 C 13.778 12.284,13.843 12.108,13.855 12.070 C 13.875 12.007,13.945 12.000,14.529 11.998 C 15.231 11.996,15.378 11.967,15.619 11.783 C 15.696 11.725,15.808 11.592,15.869 11.489 C 15.964 11.328,15.980 11.256,15.980 11.000 C 15.980 10.746,15.963 10.672,15.872 10.516 C 15.760 10.326,15.568 10.155,15.373 10.072 C 15.308 10.045,14.962 10.015,14.567 10.002 L 13.873 9.980 13.781 9.720 C 13.706 9.509,13.583 9.218,13.488 9.030 C 13.480 9.014,13.857 8.999,14.327 8.998 C 15.245 8.996,15.366 8.976,15.619 8.783 C 15.696 8.725,15.808 8.592,15.869 8.489 C 15.964 8.328,15.980 8.256,15.980 8.000 C 15.980 7.746,15.963 7.672,15.872 7.516 C 15.740 7.293,15.533 7.128,15.290 7.055 C 15.030 6.977,8.945 6.979,8.695 7.057 " stroke="none" fill-rule="evenodd" fill="black"></path></svg>