<svg xmlns="http://www.w3.org/2000/svg" width="24" height="24" viewBox="0 0 24 24" fill="none" stroke="currentColor" stroke-width="2" stroke-linecap="round" stroke-linejoin="round"><path d="M11.080 2.045 C 9.507 2.184,7.883 2.751,6.540 3.630 C 5.905 4.045,5.499 4.378,4.919 4.958 C 2.953 6.926,1.919 9.544,2.013 12.320 C 2.084 14.439,2.752 16.328,4.033 18.040 C 4.430 18.570,5.305 19.464,5.800 19.847 C 7.242 20.961,8.787 21.624,10.600 21.907 C 11.247 22.008,12.753 22.008,13.400 21.907 C 15.638 21.557,17.504 20.620,19.062 19.062 C 20.620 17.504,21.557 15.638,21.907 13.400 C 22.008 12.753,22.008 11.247,21.907 10.600 C 21.624 8.786,20.959 7.238,19.847 5.800 C 19.510 5.365,18.639 4.494,18.200 4.154 C 16.133 2.555,13.646 1.818,11.080 2.045 M12.734 4.041 C 14.574 4.216,16.228 4.976,17.554 6.256 C 20.043 8.658,20.702 12.394,19.183 15.499 C 18.749 16.387,18.223 17.105,17.496 17.801 C 16.876 18.394,16.262 18.819,15.471 19.200 C 13.267 20.265,10.733 20.265,8.529 19.200 C 7.477 18.693,6.612 18.015,5.847 17.100 C 3.848 14.711,3.440 11.302,4.816 8.500 C 6.162 5.760,8.867 4.049,11.920 4.005 C 12.129 4.003,12.495 4.019,12.734 4.041 M8.650 7.066 C 8.171 7.236,7.882 7.844,8.054 8.320 C 8.082 8.397,8.486 9.031,8.953 9.730 L 9.801 11.000 9.347 11.000 C 8.657 11.000,8.357 11.127,8.128 11.516 C 8.037 11.672,8.020 11.746,8.020 12.000 C 8.020 12.256,8.036 12.328,8.131 12.489 C 8.192 12.592,8.304 12.725,8.381 12.783 C 8.643 12.983,8.738 12.996,9.910 12.998 L 11.000 13.000 11.000 13.500 L 11.000 14.000 9.946 14.000 C 8.797 14.000,8.644 14.022,8.382 14.221 C 8.302 14.282,8.187 14.415,8.128 14.516 C 8.037 14.672,8.020 14.746,8.020 15.000 C 8.020 15.256,8.036 15.328,8.131 15.489 C 8.192 15.592,8.304 15.725,8.381 15.783 C 8.642 15.983,8.738 15.996,9.907 15.998 L 10.993 16.000 11.007 16.653 C 11.020 17.300,11.021 17.308,11.141 17.503 C 11.543 18.156,12.457 18.156,12.859 17.503 C 12.979 17.308,12.980 17.300,12.993 16.653 L 13.007 16.000 14.093 15.998 C 15.262 15.996,15.358 15.983,15.619 15.783 C 15.696 15.725,15.808 15.592,15.869 15.489 C 15.964 15.328,15.980 15.256,15.980 15.000 C 15.980 14.746,15.963 14.672,15.872 14.516 C 15.813 14.415,15.698 14.282,15.618 14.221 C 15.356 14.022,15.203 14.000,14.054 14.000 L 13.000 14.000 13.000 13.500 L 13.000 13.000 14.090 12.998 C 15.262 12.996,15.357 12.983,15.619 12.783 C 15.696 12.725,15.808 12.592,15.869 12.489 C 15.964 12.328,15.980 12.256,15.980 12.000 C 15.980 11.746,15.963 11.672,15.872 11.516 C 15.643 11.127,15.343 11.000,14.653 11.000 L 14.199 11.000 15.043 9.735 C 15.507 9.040,15.912 8.399,15.943 8.310 C 16.211 7.551,15.442 6.791,14.678 7.061 C 14.583 7.094,14.450 7.164,14.383 7.215 C 14.315 7.267,13.756 8.067,13.140 8.993 C 12.524 9.920,12.011 10.678,12.000 10.678 C 11.989 10.678,11.476 9.920,10.860 8.993 C 10.244 8.067,9.685 7.267,9.617 7.215 C 9.346 7.008,8.976 6.951,8.650 7.066 " stroke="none" fill-rule="evenodd" fill="black"></path></svg>