<svg xmlns="http://www.w3.org/2000/svg" width="24" height="24" viewBox="0 0 24 24" fill="none" stroke="currentColor" stroke-width="2" stroke-linecap="round" stroke-linejoin="round"><path d="M11.080 2.045 C 9.507 2.184,7.883 2.751,6.540 3.630 C 5.905 4.045,5.499 4.378,4.919 4.958 C 2.953 6.926,1.919 9.544,2.013 12.320 C 2.084 14.439,2.752 16.328,4.033 18.040 C 4.430 18.570,5.305 19.464,5.800 19.847 C 7.242 20.961,8.787 21.624,10.600 21.907 C 11.247 22.008,12.753 22.008,13.400 21.907 C 15.638 21.557,17.504 20.620,19.062 19.062 C 20.620 17.504,21.557 15.638,21.907 13.400 C 22.008 12.753,22.008 11.247,21.907 10.600 C 21.624 8.786,20.959 7.238,19.847 5.800 C 19.510 5.365,18.639 4.494,18.200 4.154 C 16.133 2.555,13.646 1.818,11.080 2.045 M12.734 4.041 C 14.574 4.216,16.228 4.976,17.554 6.256 C 20.043 8.658,20.702 12.394,19.183 15.499 C 18.749 16.387,18.223 17.105,17.496 17.801 C 16.876 18.394,16.262 18.819,15.471 19.200 C 13.267 20.265,10.733 20.265,8.529 19.200 C 7.477 18.693,6.612 18.015,5.847 17.100 C 3.848 14.711,3.440 11.302,4.816 8.500 C 6.162 5.760,8.867 4.049,11.920 4.005 C 12.129 4.003,12.495 4.019,12.734 4.041 M8.360 6.734 C 8.071 6.836,7.493 7.127,7.339 7.248 C 7.180 7.373,7.037 7.656,7.012 7.893 C 6.948 8.511,7.473 9.049,8.082 8.991 C 8.194 8.980,8.420 8.903,8.622 8.806 C 8.812 8.715,8.975 8.640,8.984 8.640 C 8.993 8.640,9.000 8.946,9.000 9.320 L 9.000 10.000 8.446 10.000 C 7.648 10.000,7.367 10.110,7.128 10.516 C 7.037 10.672,7.020 10.746,7.020 11.000 C 7.020 11.256,7.036 11.328,7.131 11.489 C 7.256 11.702,7.449 11.864,7.670 11.943 C 7.768 11.978,8.022 11.997,8.407 11.998 L 8.995 12.000 9.009 13.790 C 9.023 15.533,9.026 15.587,9.116 15.860 C 9.438 16.836,10.179 17.576,11.140 17.881 C 11.483 17.989,12.525 18.037,12.988 17.965 C 13.775 17.842,14.393 17.528,14.960 16.960 C 15.717 16.204,16.026 15.379,15.994 14.205 C 15.981 13.742,15.971 13.685,15.872 13.516 C 15.629 13.102,15.357 13.000,14.500 13.000 C 13.643 13.000,13.371 13.102,13.128 13.516 C 13.037 13.672,13.020 13.746,13.020 14.000 C 13.020 14.257,13.036 14.327,13.133 14.492 C 13.266 14.718,13.509 14.906,13.746 14.966 L 13.917 15.009 13.822 15.194 C 13.690 15.451,13.386 15.734,13.100 15.868 C 12.872 15.974,12.831 15.980,12.280 15.980 C 11.722 15.980,11.693 15.976,11.516 15.872 C 11.415 15.813,11.284 15.700,11.225 15.623 C 11.006 15.336,11.000 15.283,11.000 13.575 L 11.000 12.000 13.090 11.998 C 14.731 11.997,15.212 11.985,15.330 11.943 C 15.551 11.864,15.744 11.702,15.869 11.489 C 15.964 11.328,15.980 11.256,15.980 11.000 C 15.980 10.746,15.963 10.672,15.872 10.516 C 15.813 10.415,15.698 10.282,15.618 10.221 C 15.334 10.004,15.282 10.000,13.057 10.000 L 11.007 10.000 10.992 9.090 C 10.978 8.253,10.969 8.161,10.884 7.946 C 10.655 7.368,10.158 6.889,9.612 6.720 C 9.240 6.605,8.707 6.611,8.360 6.734 " stroke="none" fill-rule="evenodd" fill="black"></path></svg>