<svg xmlns="http://www.w3.org/2000/svg" width="24" height="24" viewBox="0 0 24 24" fill="none" stroke="currentColor" stroke-width="2" stroke-linecap="round" stroke-linejoin="round"><path d="M11.080 2.045 C 9.507 2.184,7.883 2.751,6.540 3.630 C 5.905 4.045,5.499 4.378,4.919 4.958 C 2.953 6.926,1.919 9.544,2.013 12.320 C 2.084 14.439,2.752 16.328,4.033 18.040 C 4.430 18.570,5.305 19.464,5.800 19.847 C 7.242 20.961,8.787 21.624,10.600 21.907 C 11.247 22.008,12.753 22.008,13.400 21.907 C 15.638 21.557,17.504 20.620,19.062 19.062 C 20.620 17.504,21.557 15.638,21.907 13.400 C 22.008 12.753,22.008 11.247,21.907 10.600 C 21.624 8.786,20.959 7.238,19.847 5.800 C 19.510 5.365,18.639 4.494,18.200 4.154 C 16.133 2.555,13.646 1.818,11.080 2.045 M12.734 4.041 C 14.574 4.216,16.228 4.976,17.554 6.256 C 20.043 8.658,20.702 12.394,19.183 15.499 C 18.749 16.387,18.223 17.105,17.496 17.801 C 16.876 18.394,16.262 18.819,15.471 19.200 C 13.267 20.265,10.733 20.265,8.529 19.200 C 7.477 18.693,6.612 18.015,5.847 17.100 C 3.848 14.711,3.440 11.302,4.816 8.500 C 6.162 5.760,8.867 4.049,11.920 4.005 C 12.129 4.003,12.495 4.019,12.734 4.041 M12.499 6.040 C 11.373 6.244,10.478 7.034,10.116 8.140 C 10.031 8.403,10.024 8.498,10.009 9.710 L 9.993 11.000 9.443 11.000 C 8.648 11.000,8.366 11.111,8.128 11.516 C 8.037 11.672,8.020 11.746,8.020 12.000 C 8.020 12.256,8.036 12.328,8.131 12.489 C 8.256 12.702,8.449 12.864,8.670 12.943 C 8.768 12.978,9.023 12.997,9.410 12.998 L 10.000 13.000 10.000 13.554 C 10.000 14.169,9.955 14.387,9.779 14.618 C 9.613 14.835,9.380 14.954,9.034 14.998 C 8.870 15.019,8.686 15.055,8.625 15.078 C 8.439 15.149,8.242 15.323,8.128 15.516 C 8.037 15.672,8.020 15.746,8.020 16.000 C 8.020 16.256,8.036 16.328,8.131 16.489 C 8.256 16.702,8.449 16.864,8.670 16.943 C 8.891 17.022,15.109 17.022,15.330 16.943 C 15.551 16.864,15.744 16.702,15.869 16.489 C 15.964 16.328,15.980 16.256,15.980 16.000 C 15.980 15.746,15.963 15.672,15.872 15.516 C 15.813 15.415,15.698 15.282,15.618 15.221 C 15.340 15.010,15.248 15.000,13.474 15.000 C 12.575 15.000,11.840 14.995,11.840 14.990 C 11.841 14.985,11.870 14.890,11.906 14.780 C 11.953 14.634,11.976 14.365,11.990 13.790 L 12.009 13.000 12.595 12.998 C 12.978 12.997,13.232 12.978,13.330 12.943 C 13.551 12.864,13.744 12.702,13.869 12.489 C 13.964 12.328,13.980 12.256,13.980 12.000 C 13.980 11.746,13.963 11.672,13.872 11.516 C 13.633 11.110,13.352 11.000,12.554 11.000 L 12.000 11.000 12.000 9.947 C 12.000 8.703,12.022 8.584,12.303 8.303 C 12.486 8.120,12.763 8.000,13.000 8.000 C 13.223 8.000,13.510 8.120,13.679 8.283 C 13.886 8.485,13.951 8.636,14.001 9.031 C 14.049 9.410,14.184 9.647,14.452 9.828 C 14.923 10.144,15.554 9.998,15.859 9.503 C 15.974 9.315,15.980 9.285,15.978 8.883 C 15.977 8.559,15.955 8.390,15.885 8.160 C 15.586 7.184,14.811 6.407,13.861 6.129 C 13.500 6.023,12.832 5.980,12.499 6.040 " stroke="none" fill-rule="evenodd" fill="black"></path></svg>