<svg xmlns="http://www.w3.org/2000/svg" width="24" height="24" viewBox="0 0 24 24" fill="none" stroke="currentColor" stroke-width="2" stroke-linecap="round" stroke-linejoin="round"><path d="M11.080 2.045 C 9.507 2.184,7.883 2.751,6.540 3.630 C 5.905 4.045,5.499 4.378,4.919 4.958 C 2.953 6.926,1.919 9.544,2.013 12.320 C 2.084 14.439,2.752 16.328,4.033 18.040 C 4.430 18.570,5.305 19.464,5.800 19.847 C 7.242 20.961,8.787 21.624,10.600 21.907 C 11.247 22.008,12.753 22.008,13.400 21.907 C 15.638 21.557,17.504 20.620,19.062 19.062 C 20.620 17.504,21.557 15.638,21.907 13.400 C 22.008 12.753,22.008 11.247,21.907 10.600 C 21.624 8.786,20.959 7.238,19.847 5.800 C 19.510 5.365,18.639 4.494,18.200 4.154 C 16.133 2.555,13.646 1.818,11.080 2.045 M12.734 4.041 C 14.574 4.216,16.228 4.976,17.554 6.256 C 20.043 8.658,20.702 12.394,19.183 15.499 C 18.749 16.387,18.223 17.105,17.496 17.801 C 16.876 18.394,16.262 18.819,15.471 19.200 C 13.267 20.265,10.733 20.265,8.529 19.200 C 7.477 18.693,6.612 18.015,5.847 17.100 C 3.848 14.711,3.440 11.302,4.816 8.500 C 6.162 5.760,8.867 4.049,11.920 4.005 C 12.129 4.003,12.495 4.019,12.734 4.041 M9.695 6.057 C 9.352 6.164,9.073 6.481,9.018 6.825 C 8.992 6.985,8.986 6.990,8.781 7.036 C 8.515 7.096,8.269 7.276,8.129 7.514 C 8.036 7.672,8.020 7.745,8.020 8.003 C 8.020 8.271,8.034 8.329,8.141 8.503 C 8.288 8.742,8.578 8.946,8.821 8.982 L 9.000 9.009 9.000 11.998 L 9.000 14.987 8.786 15.035 C 8.515 15.096,8.270 15.275,8.129 15.514 C 8.036 15.672,8.020 15.745,8.020 16.003 C 8.020 16.271,8.034 16.329,8.141 16.503 C 8.287 16.740,8.577 16.946,8.817 16.982 C 8.988 17.007,8.993 17.012,9.018 17.183 C 9.054 17.423,9.260 17.713,9.497 17.859 C 9.671 17.966,9.729 17.980,10.000 17.980 C 10.271 17.980,10.329 17.966,10.503 17.859 C 10.742 17.712,10.946 17.422,10.982 17.179 L 11.009 17.000 11.500 17.000 L 11.991 17.000 12.017 17.175 C 12.053 17.417,12.243 17.699,12.465 17.839 C 13.092 18.236,13.917 17.833,13.990 17.094 L 14.013 16.860 14.363 16.690 C 15.034 16.363,15.587 15.721,15.843 14.969 C 15.970 14.599,15.976 14.552,15.976 14.000 C 15.976 13.447,15.970 13.402,15.842 13.027 C 15.756 12.774,15.632 12.521,15.496 12.317 L 15.283 12.000 15.496 11.683 C 15.632 11.479,15.756 11.226,15.842 10.973 C 15.970 10.598,15.976 10.553,15.976 10.000 C 15.976 9.448,15.970 9.401,15.843 9.031 C 15.586 8.278,15.042 7.645,14.366 7.314 L 14.011 7.140 13.989 6.910 C 13.948 6.477,13.642 6.131,13.214 6.035 C 12.666 5.913,12.104 6.285,12.017 6.830 L 11.990 7.000 11.500 7.000 L 11.010 7.000 10.983 6.830 C 10.926 6.473,10.648 6.163,10.290 6.055 C 10.068 5.988,9.913 5.989,9.695 6.057 M13.333 9.043 C 13.522 9.095,13.778 9.321,13.892 9.537 C 13.958 9.662,13.978 9.770,13.978 10.000 C 13.978 10.340,13.901 10.530,13.674 10.748 C 13.421 10.990,13.359 11.000,12.121 11.000 L 11.000 11.000 11.000 10.000 L 11.000 9.000 12.090 9.000 C 12.735 9.000,13.242 9.018,13.333 9.043 M13.333 13.043 C 13.522 13.095,13.778 13.321,13.892 13.537 C 13.958 13.662,13.978 13.770,13.978 14.000 C 13.978 14.340,13.901 14.530,13.674 14.748 C 13.421 14.990,13.359 15.000,12.121 15.000 L 11.000 15.000 11.000 14.000 L 11.000 13.000 12.090 13.000 C 12.735 13.000,13.242 13.018,13.333 13.043 " stroke="none" fill-rule="evenodd" fill="black"></path></svg>