<svg xmlns="http://www.w3.org/2000/svg" width="24" height="24" viewBox="0 0 24 24" fill="none" stroke="currentColor" stroke-width="2" stroke-linecap="round" stroke-linejoin="round"><path d="M2.670 2.061 C 2.448 2.142,2.250 2.309,2.128 2.516 C 2.036 2.672,2.020 2.745,2.021 3.000 C 2.021 3.213,2.043 3.341,2.095 3.440 C 2.136 3.517,2.639 4.052,3.213 4.629 L 4.256 5.678 4.155 5.789 C 3.681 6.309,2.950 7.566,2.638 8.400 C 1.751 10.767,1.720 13.096,2.544 15.447 C 2.762 16.068,3.229 16.999,3.606 17.561 C 5.602 20.543,8.922 22.214,12.493 22.034 C 14.455 21.935,16.452 21.201,17.995 20.011 L 18.331 19.753 19.375 20.792 C 19.950 21.363,20.483 21.864,20.560 21.905 C 20.659 21.957,20.787 21.979,21.000 21.979 C 21.258 21.980,21.327 21.964,21.492 21.867 C 21.968 21.587,22.139 20.967,21.865 20.508 C 21.810 20.416,17.665 16.243,12.653 11.235 C 4.231 2.820,3.525 2.125,3.343 2.065 C 3.107 1.987,2.874 1.986,2.670 2.061 M11.080 2.043 C 9.922 2.160,8.798 2.467,7.760 2.949 C 7.190 3.215,7.007 3.436,6.969 3.907 C 6.952 4.122,6.964 4.188,7.057 4.378 C 7.185 4.639,7.384 4.815,7.653 4.904 C 7.936 4.998,8.161 4.962,8.637 4.744 C 10.417 3.927,12.308 3.782,14.226 4.313 C 16.341 4.899,18.237 6.498,19.205 8.512 C 20.096 10.364,20.244 12.530,19.614 14.460 C 19.556 14.636,19.410 15.005,19.288 15.280 C 19.039 15.845,19.000 16.059,19.096 16.347 C 19.186 16.619,19.363 16.816,19.629 16.942 C 19.823 17.034,19.892 17.047,20.106 17.030 C 20.396 17.006,20.662 16.871,20.816 16.669 C 21.021 16.400,21.419 15.433,21.624 14.706 C 22.518 11.532,21.776 8.099,19.647 5.557 C 18.089 3.697,15.786 2.429,13.360 2.097 C 12.822 2.023,11.571 1.994,11.080 2.043 M11.695 5.057 C 11.466 5.129,11.256 5.299,11.128 5.516 L 11.020 5.700 11.008 6.939 C 10.994 8.309,11.005 8.386,11.251 8.667 C 11.498 8.948,11.605 8.976,12.520 9.001 C 13.548 9.029,13.597 9.049,14.008 9.598 C 14.479 10.228,15.492 10.066,15.740 9.321 C 15.883 8.890,15.748 8.498,15.283 7.991 C 14.764 7.425,14.076 7.086,13.300 7.016 L 13.007 6.990 12.993 6.345 C 12.981 5.728,12.975 5.692,12.872 5.516 C 12.628 5.101,12.150 4.915,11.695 5.057 M6.858 8.278 L 8.016 9.437 8.023 9.988 C 8.034 10.880,8.275 11.483,8.862 12.086 C 9.461 12.701,10.201 12.998,11.140 12.999 L 11.581 13.000 12.518 13.938 C 13.034 14.455,13.448 14.884,13.438 14.893 C 13.338 14.979,13.038 15.000,11.938 15.000 L 10.727 15.000 10.484 14.870 C 10.300 14.772,10.194 14.677,10.050 14.482 C 9.738 14.059,9.353 13.919,8.894 14.064 C 8.442 14.206,8.163 14.634,8.212 15.109 C 8.244 15.411,8.427 15.707,8.840 16.121 C 9.120 16.402,9.247 16.496,9.560 16.651 C 9.991 16.865,10.292 16.954,10.707 16.988 L 10.993 17.011 11.007 17.659 C 11.020 18.300,11.021 18.309,11.141 18.503 C 11.543 19.156,12.457 19.156,12.859 18.503 C 12.979 18.308,12.980 18.300,12.993 17.653 L 13.007 17.000 13.153 16.999 C 13.339 16.998,13.798 16.902,14.037 16.814 C 14.208 16.751,14.637 16.514,14.821 16.381 C 14.898 16.325,14.954 16.374,15.901 17.323 L 16.900 18.324 16.780 18.424 C 16.552 18.613,15.999 18.963,15.618 19.159 C 13.978 20.001,12.063 20.258,10.280 19.874 C 7.503 19.276,5.238 17.243,4.360 14.562 C 4.052 13.624,3.939 12.812,3.971 11.780 C 4.010 10.561,4.259 9.567,4.799 8.480 C 5.082 7.912,5.591 7.120,5.674 7.120 C 5.688 7.120,6.222 7.641,6.858 8.278 " stroke="none" fill-rule="evenodd" fill="black"></path></svg>