<svg xmlns="http://www.w3.org/2000/svg" width="24" height="24" viewBox="0 0 24 24" fill="none" stroke="currentColor" stroke-width="2" stroke-linecap="round" stroke-linejoin="round"><path d="M2.670 2.061 C 2.448 2.142,2.250 2.309,2.128 2.516 C 2.036 2.672,2.020 2.745,2.021 3.000 C 2.021 3.212,2.043 3.341,2.095 3.440 C 2.135 3.517,2.881 4.295,3.752 5.169 L 5.336 6.757 4.875 7.229 C 4.622 7.488,4.343 7.808,4.255 7.940 C 3.892 8.485,3.735 9.076,3.771 9.759 C 3.812 10.521,4.066 11.099,4.608 11.663 L 4.923 11.992 4.672 12.021 C 3.471 12.158,2.480 12.987,2.114 14.160 L 2.020 14.460 2.020 17.000 L 2.020 19.540 2.114 19.840 C 2.422 20.827,3.173 21.578,4.160 21.886 L 4.460 21.980 11.040 21.980 C 17.253 21.980,17.639 21.976,17.960 21.907 C 18.545 21.782,19.162 21.545,19.610 21.275 L 19.759 21.185 20.090 21.507 C 20.520 21.926,20.621 21.978,21.000 21.979 C 21.258 21.980,21.327 21.964,21.492 21.867 C 21.968 21.587,22.139 20.967,21.865 20.508 C 21.810 20.416,17.665 16.243,12.653 11.235 C 4.231 2.820,3.525 2.125,3.343 2.065 C 3.107 1.987,2.874 1.986,2.670 2.061 M14.499 2.042 C 13.192 2.268,12.158 3.356,12.019 4.651 L 11.991 4.921 11.720 4.666 C 11.053 4.036,10.436 3.785,9.560 3.784 C 8.877 3.784,8.427 3.927,8.150 4.235 C 8.010 4.389,7.880 4.711,7.880 4.903 C 7.880 5.062,8.008 5.392,8.125 5.534 C 8.188 5.610,8.333 5.719,8.448 5.776 C 8.693 5.899,8.933 5.910,9.294 5.816 C 9.577 5.743,9.810 5.762,10.030 5.876 C 10.113 5.919,10.588 6.365,11.088 6.867 L 11.995 7.780 12.008 8.543 L 12.020 9.307 12.141 9.503 C 12.543 10.156,13.457 10.156,13.859 9.503 L 13.980 9.306 14.000 7.023 C 14.022 4.464,14.008 4.587,14.321 4.283 C 14.613 4.000,14.616 4.000,17.000 4.000 C 19.384 4.000,19.387 4.000,19.679 4.283 C 20.007 4.602,19.978 3.981,20.000 11.023 L 20.020 17.306 20.141 17.503 C 20.543 18.156,21.457 18.156,21.859 17.503 L 21.980 17.306 21.980 10.883 L 21.980 4.460 21.886 4.160 C 21.581 3.181,20.829 2.425,19.861 2.122 L 19.540 2.022 17.120 2.015 C 15.789 2.011,14.609 2.023,14.499 2.042 M9.390 10.810 L 12.000 13.420 12.000 14.840 L 12.000 16.260 8.966 13.220 C 6.932 11.182,5.907 10.127,5.856 10.020 C 5.754 9.806,5.754 9.356,5.855 9.160 C 5.920 9.036,6.707 8.200,6.759 8.200 C 6.771 8.200,7.954 9.374,9.390 10.810 M9.940 17.001 L 12.940 20.001 8.820 19.991 L 4.700 19.980 4.516 19.872 C 4.415 19.813,4.284 19.700,4.225 19.623 C 4.000 19.327,4.000 19.332,4.000 17.022 C 4.000 14.586,3.997 14.609,4.304 14.303 C 4.581 14.025,4.683 14.006,5.900 14.003 L 6.940 14.000 9.940 17.001 M18.173 19.754 C 17.958 19.866,17.530 19.965,17.159 19.988 C 16.625 20.020,16.218 19.933,15.680 19.673 C 15.316 19.497,15.214 19.424,14.916 19.125 C 14.476 18.683,14.216 18.236,14.077 17.680 C 14.052 17.581,14.023 17.032,14.013 16.460 L 13.994 15.420 16.136 17.559 L 18.279 19.698 18.173 19.754 " stroke="none" fill-rule="evenodd" fill="black"></path></svg>