<svg xmlns="http://www.w3.org/2000/svg" width="24" height="24" viewBox="0 0 24 24" fill="none" stroke="currentColor" stroke-width="2" stroke-linecap="round" stroke-linejoin="round"><path d="M16.103 3.045 C 15.909 3.066,15.735 3.119,15.523 3.223 C 15.239 3.362,15.120 3.471,13.613 4.971 L 12.005 6.572 11.755 6.345 C 11.400 6.024,11.095 5.939,10.710 6.055 C 10.467 6.128,10.260 6.293,10.128 6.516 C 10.036 6.672,10.020 6.745,10.021 7.000 C 10.022 7.354,10.076 7.476,10.372 7.789 L 10.575 8.004 6.852 11.732 C 3.379 15.210,3.125 15.474,3.063 15.664 C 3.005 15.846,2.999 16.114,3.009 18.084 L 3.020 20.300 3.131 20.489 C 3.256 20.702,3.449 20.864,3.670 20.943 C 3.788 20.985,4.281 20.997,5.983 20.998 C 7.876 21.000,8.170 20.992,8.343 20.935 C 8.523 20.875,8.858 20.552,12.268 17.147 L 15.996 13.425 16.211 13.628 C 16.477 13.879,16.632 13.961,16.895 13.988 C 17.295 14.029,17.662 13.842,17.867 13.492 C 17.964 13.327,17.980 13.258,17.979 13.000 C 17.978 12.646,17.924 12.524,17.628 12.211 L 17.426 11.997 19.030 10.389 C 20.528 8.886,20.643 8.761,20.774 8.488 C 21.057 7.896,21.058 7.305,20.775 6.720 C 20.639 6.438,20.537 6.327,19.105 4.895 C 17.701 3.492,17.557 3.359,17.289 3.228 C 17.028 3.099,16.886 3.063,16.500 3.026 C 16.434 3.020,16.255 3.028,16.103 3.045 M17.700 6.320 L 18.980 7.600 17.490 9.090 L 16.000 10.580 14.710 9.290 L 13.420 8.000 14.900 6.520 C 15.714 5.706,16.389 5.040,16.400 5.040 C 16.411 5.040,16.996 5.616,17.700 6.320 M13.300 10.720 L 14.580 12.000 11.080 15.500 L 7.580 19.000 6.290 19.000 L 5.000 19.000 5.000 17.710 L 5.000 16.420 8.490 12.930 C 10.409 11.011,11.989 9.440,12.000 9.440 C 12.011 9.440,12.596 10.016,13.300 10.720 " stroke="none" fill-rule="evenodd" fill="black"></path></svg>