<svg xmlns="http://www.w3.org/2000/svg" width="24" height="24" viewBox="0 0 24 24" fill="none" stroke="currentColor" stroke-width="2" stroke-linecap="round" stroke-linejoin="round"><path d="M3.695 5.057 C 3.465 5.129,3.256 5.299,3.128 5.516 C 3.037 5.672,3.020 5.746,3.020 6.000 C 3.020 6.256,3.036 6.328,3.131 6.489 C 3.256 6.702,3.449 6.864,3.670 6.943 C 3.790 6.986,4.408 6.997,6.760 6.998 L 9.700 6.999 9.900 6.905 C 10.281 6.724,10.488 6.405,10.488 6.000 C 10.488 5.615,10.293 5.297,9.940 5.106 C 9.780 5.020,9.771 5.020,6.820 5.012 C 4.478 5.006,3.825 5.015,3.695 5.057 M14.240 5.037 C 13.794 5.173,13.512 5.546,13.512 6.000 C 13.512 6.405,13.719 6.724,14.100 6.905 L 14.300 6.999 17.240 6.998 C 19.592 6.997,20.210 6.986,20.330 6.943 C 20.551 6.864,20.744 6.702,20.869 6.489 C 20.964 6.328,20.980 6.256,20.980 6.000 C 20.980 5.746,20.963 5.672,20.872 5.516 C 20.813 5.415,20.698 5.282,20.618 5.221 C 20.325 4.998,20.354 5.000,17.224 5.003 C 15.638 5.005,14.295 5.021,14.240 5.037 M3.695 9.057 C 3.465 9.129,3.256 9.299,3.128 9.516 C 3.037 9.672,3.020 9.746,3.020 10.000 C 3.020 10.256,3.036 10.328,3.131 10.489 C 3.256 10.702,3.449 10.864,3.670 10.943 C 3.790 10.986,4.408 10.997,6.760 10.998 L 9.700 10.999 9.900 10.905 C 10.281 10.724,10.488 10.405,10.488 10.000 C 10.488 9.615,10.293 9.297,9.940 9.106 C 9.780 9.020,9.771 9.020,6.820 9.012 C 4.478 9.006,3.825 9.015,3.695 9.057 M14.240 9.037 C 13.794 9.173,13.512 9.546,13.512 10.000 C 13.512 10.405,13.719 10.724,14.100 10.905 L 14.300 10.999 17.240 10.998 C 19.592 10.997,20.210 10.986,20.330 10.943 C 20.551 10.864,20.744 10.702,20.869 10.489 C 20.964 10.328,20.980 10.256,20.980 10.000 C 20.980 9.746,20.963 9.672,20.872 9.516 C 20.813 9.415,20.698 9.282,20.618 9.221 C 20.325 8.998,20.354 9.000,17.224 9.003 C 15.638 9.005,14.295 9.021,14.240 9.037 M3.695 13.057 C 3.465 13.129,3.256 13.299,3.128 13.516 C 3.037 13.672,3.020 13.746,3.020 14.000 C 3.020 14.256,3.036 14.328,3.131 14.489 C 3.256 14.702,3.449 14.864,3.670 14.943 C 3.790 14.986,4.408 14.997,6.760 14.998 L 9.700 14.999 9.900 14.905 C 10.281 14.724,10.488 14.405,10.488 14.000 C 10.488 13.615,10.293 13.297,9.940 13.106 C 9.780 13.020,9.771 13.020,6.820 13.012 C 4.478 13.006,3.825 13.015,3.695 13.057 M14.240 13.037 C 13.794 13.173,13.512 13.546,13.512 14.000 C 13.512 14.405,13.719 14.724,14.100 14.905 L 14.300 14.999 17.240 14.998 C 19.592 14.997,20.210 14.986,20.330 14.943 C 20.551 14.864,20.744 14.702,20.869 14.489 C 20.964 14.328,20.980 14.256,20.980 14.000 C 20.980 13.746,20.963 13.672,20.872 13.516 C 20.813 13.415,20.698 13.282,20.618 13.221 C 20.325 12.998,20.354 13.000,17.224 13.003 C 15.638 13.005,14.295 13.021,14.240 13.037 M3.695 17.057 C 3.465 17.129,3.256 17.299,3.128 17.516 C 3.037 17.672,3.020 17.746,3.020 18.000 C 3.020 18.256,3.036 18.328,3.131 18.489 C 3.256 18.702,3.449 18.864,3.670 18.943 C 3.790 18.986,4.408 18.997,6.760 18.998 L 9.700 18.999 9.900 18.905 C 10.281 18.724,10.488 18.405,10.488 18.000 C 10.488 17.615,10.293 17.297,9.940 17.106 C 9.780 17.020,9.771 17.020,6.820 17.012 C 4.478 17.006,3.825 17.015,3.695 17.057 M14.240 17.037 C 13.794 17.173,13.512 17.546,13.512 18.000 C 13.512 18.405,13.719 18.724,14.100 18.905 L 14.300 18.999 17.240 18.998 C 19.592 18.997,20.210 18.986,20.330 18.943 C 20.551 18.864,20.744 18.702,20.869 18.489 C 20.964 18.328,20.980 18.256,20.980 18.000 C 20.980 17.746,20.963 17.672,20.872 17.516 C 20.813 17.415,20.698 17.282,20.618 17.221 C 20.325 16.998,20.354 17.000,17.224 17.003 C 15.638 17.005,14.295 17.021,14.240 17.037 " stroke="none" fill-rule="evenodd" fill="black"></path></svg>