<svg xmlns="http://www.w3.org/2000/svg" width="24" height="24" viewBox="0 0 24 24" fill="none" stroke="currentColor" stroke-width="2" stroke-linecap="round" stroke-linejoin="round"><path d="M5.477 3.073 C 4.806 3.249,4.238 3.823,4.060 4.508 C 4.008 4.707,4.000 5.691,4.000 12.000 C 4.000 19.922,3.987 19.460,4.225 19.930 C 4.361 20.199,4.801 20.639,5.070 20.775 C 5.509 20.997,5.545 21.000,8.000 21.000 C 10.455 21.000,10.491 20.997,10.930 20.775 C 11.196 20.640,11.638 20.200,11.771 19.937 C 12.014 19.459,12.000 19.929,11.999 12.014 C 11.999 4.156,12.009 4.532,11.781 4.083 C 11.646 3.816,11.297 3.449,11.017 3.281 C 10.564 3.008,10.524 3.005,8.000 3.005 C 5.992 3.005,5.711 3.012,5.477 3.073 M10.000 12.000 L 10.000 19.000 8.000 19.000 L 6.000 19.000 6.000 12.000 L 6.000 5.000 8.000 5.000 L 10.000 5.000 10.000 12.000 M15.670 9.061 C 15.448 9.142,15.250 9.309,15.128 9.516 C 15.036 9.672,15.020 9.745,15.021 10.000 C 15.021 10.213,15.043 10.340,15.096 10.440 C 15.136 10.517,15.486 10.900,15.873 11.290 L 16.577 12.000 15.873 12.710 C 15.486 13.101,15.139 13.481,15.101 13.555 C 14.872 14.008,15.056 14.601,15.508 14.867 C 15.673 14.964,15.742 14.980,16.000 14.979 C 16.213 14.979,16.340 14.957,16.440 14.904 C 16.517 14.864,16.899 14.514,17.290 14.127 L 18.000 13.423 18.710 14.127 C 19.101 14.514,19.483 14.864,19.560 14.904 C 19.660 14.957,19.787 14.979,20.000 14.979 C 20.258 14.980,20.327 14.964,20.492 14.867 C 20.714 14.737,20.901 14.498,20.965 14.264 C 21.019 14.061,20.989 13.733,20.899 13.555 C 20.861 13.481,20.514 13.101,20.127 12.710 L 19.423 12.000 20.127 11.290 C 20.514 10.900,20.864 10.517,20.904 10.440 C 20.957 10.340,20.979 10.213,20.979 10.000 C 20.980 9.745,20.964 9.672,20.872 9.516 C 20.617 9.083,20.135 8.905,19.657 9.067 C 19.491 9.123,19.345 9.247,18.730 9.854 L 18.000 10.574 17.270 9.854 C 16.655 9.247,16.509 9.123,16.343 9.067 C 16.108 8.987,15.876 8.985,15.670 9.061 " stroke="none" fill-rule="evenodd" fill="black"></path></svg>