<svg xmlns="http://www.w3.org/2000/svg" width="24" height="24" viewBox="0 0 24 24" fill="none" stroke="currentColor" stroke-width="2" stroke-linecap="round" stroke-linejoin="round"><path d="M5.477 3.073 C 4.806 3.249,4.238 3.823,4.060 4.508 C 4.008 4.707,4.000 5.691,4.000 12.000 C 4.000 19.922,3.987 19.460,4.225 19.930 C 4.361 20.199,4.801 20.639,5.070 20.775 C 5.509 20.997,5.545 21.000,8.000 21.000 C 10.455 21.000,10.491 20.997,10.930 20.775 C 11.196 20.640,11.638 20.200,11.771 19.937 C 12.014 19.459,12.000 19.929,11.999 12.014 C 11.999 4.156,12.009 4.532,11.781 4.083 C 11.646 3.816,11.297 3.449,11.017 3.281 C 10.564 3.008,10.524 3.005,8.000 3.005 C 5.992 3.005,5.711 3.012,5.477 3.073 M10.000 12.000 L 10.000 19.000 8.000 19.000 L 6.000 19.000 6.000 12.000 L 6.000 5.000 8.000 5.000 L 10.000 5.000 10.000 12.000 M16.695 9.057 C 16.466 9.129,16.256 9.299,16.128 9.516 C 16.025 9.692,16.019 9.728,16.007 10.350 L 15.993 11.000 15.443 11.000 C 14.648 11.000,14.366 11.111,14.128 11.516 C 14.037 11.672,14.020 11.746,14.020 12.000 C 14.020 12.256,14.036 12.328,14.131 12.489 C 14.256 12.702,14.449 12.864,14.670 12.943 C 14.768 12.978,15.022 12.997,15.407 12.998 L 15.993 13.000 16.007 13.653 C 16.020 14.300,16.021 14.308,16.141 14.503 C 16.209 14.613,16.346 14.756,16.452 14.828 C 16.923 15.144,17.554 14.999,17.859 14.503 C 17.979 14.308,17.980 14.300,17.993 13.653 L 18.007 13.000 18.593 12.998 C 18.978 12.997,19.232 12.978,19.330 12.943 C 19.551 12.864,19.744 12.702,19.869 12.489 C 19.964 12.328,19.980 12.256,19.980 12.000 C 19.980 11.746,19.963 11.672,19.872 11.516 C 19.634 11.111,19.352 11.000,18.557 11.000 L 18.007 11.000 17.993 10.350 C 17.981 9.728,17.975 9.692,17.872 9.516 C 17.628 9.101,17.150 8.915,16.695 9.057 " stroke="none" fill-rule="evenodd" fill="black"></path></svg>