<svg xmlns="http://www.w3.org/2000/svg" width="24" height="24" viewBox="0 0 24 24" fill="none" stroke="currentColor" stroke-width="2" stroke-linecap="round" stroke-linejoin="round"><path d="M2.670 2.061 C 2.448 2.142,2.250 2.309,2.128 2.516 C 2.036 2.672,2.020 2.745,2.021 3.000 C 2.021 3.213,2.043 3.341,2.095 3.440 C 2.136 3.517,2.647 4.061,3.231 4.648 L 4.294 5.716 4.228 5.868 C 4.071 6.232,4.023 6.497,4.021 7.000 C 4.020 7.578,4.093 7.877,4.371 8.420 C 4.569 8.808,5.140 9.406,5.484 9.585 C 6.119 9.916,6.503 10.000,7.384 10.000 L 8.000 10.000 8.000 11.995 L 8.000 13.991 7.230 14.010 C 6.567 14.027,6.416 14.043,6.139 14.126 C 5.181 14.415,4.419 15.180,4.114 16.160 C 3.979 16.594,3.979 17.406,4.114 17.840 C 4.421 18.826,5.174 19.579,6.160 19.886 C 6.594 20.021,7.406 20.021,7.840 19.886 C 8.817 19.582,9.570 18.835,9.882 17.860 C 9.958 17.621,9.974 17.464,9.990 16.790 L 10.009 16.000 12.005 16.000 L 14.000 16.000 14.000 16.610 C 14.001 17.493,14.062 17.800,14.354 18.398 C 14.466 18.626,14.590 18.788,14.880 19.084 C 15.223 19.433,15.301 19.491,15.680 19.674 C 16.218 19.933,16.627 20.020,17.159 19.988 C 17.518 19.966,17.920 19.875,18.172 19.758 C 18.283 19.706,18.285 19.707,19.352 20.768 C 19.939 21.353,20.483 21.864,20.560 21.905 C 20.659 21.957,20.787 21.979,21.000 21.979 C 21.258 21.980,21.327 21.964,21.492 21.867 C 21.968 21.587,22.139 20.967,21.865 20.508 C 21.810 20.416,17.665 16.243,12.653 11.235 C 4.231 2.820,3.525 2.125,3.343 2.065 C 3.107 1.987,2.874 1.986,2.670 2.061 M16.499 4.040 C 15.373 4.244,14.470 5.041,14.118 6.140 C 14.042 6.379,14.026 6.536,14.010 7.210 L 13.991 8.000 13.442 8.000 C 12.649 8.000,12.366 8.111,12.128 8.516 C 12.037 8.672,12.020 8.746,12.020 9.000 C 12.020 9.256,12.036 9.328,12.131 9.489 C 12.256 9.702,12.449 9.864,12.670 9.943 C 12.768 9.978,13.022 9.997,13.407 9.998 L 13.993 10.000 14.007 10.653 C 14.020 11.300,14.021 11.308,14.141 11.503 C 14.543 12.156,15.457 12.156,15.859 11.503 C 15.979 11.309,15.980 11.300,15.993 10.658 L 16.007 10.009 16.793 9.990 C 17.464 9.974,17.621 9.958,17.860 9.882 C 18.835 9.570,19.582 8.817,19.886 7.840 C 20.021 7.406,20.021 6.594,19.886 6.160 C 19.581 5.179,18.810 4.407,17.861 4.129 C 17.500 4.023,16.832 3.980,16.499 4.040 M17.310 6.061 C 17.688 6.173,18.000 6.598,18.000 7.001 C 18.000 7.331,17.784 7.696,17.484 7.872 C 17.308 7.975,17.272 7.981,16.650 7.993 L 16.000 8.007 16.000 7.451 C 16.000 6.750,16.052 6.555,16.304 6.303 C 16.583 6.024,16.916 5.944,17.310 6.061 M11.300 12.720 L 12.580 14.000 11.290 14.000 L 10.000 14.000 10.000 12.720 C 10.000 12.016,10.005 11.440,10.010 11.440 C 10.016 11.440,10.596 12.016,11.300 12.720 M8.000 16.554 C 8.000 17.352,7.890 17.633,7.484 17.872 C 7.328 17.963,7.254 17.980,7.000 17.980 C 6.746 17.980,6.672 17.963,6.516 17.872 C 5.937 17.531,5.833 16.774,6.301 16.306 C 6.558 16.049,6.711 16.007,7.410 16.003 L 8.000 16.000 8.000 16.554 " stroke="none" fill-rule="evenodd" fill="black"></path></svg>