<svg xmlns="http://www.w3.org/2000/svg" width="24" height="24" viewBox="0 0 24 24" fill="none" stroke="currentColor" stroke-width="2" stroke-linecap="round" stroke-linejoin="round"><path d="M2.670 2.061 C 2.448 2.142,2.250 2.309,2.128 2.516 C 2.037 2.672,2.020 2.746,2.020 3.000 C 2.020 3.254,2.036 3.327,2.127 3.480 C 2.264 3.708,20.367 21.805,20.560 21.905 C 20.659 21.957,20.788 21.979,21.000 21.979 C 21.258 21.980,21.327 21.964,21.492 21.867 C 21.968 21.587,22.139 20.967,21.865 20.508 C 21.810 20.416,17.665 16.243,12.653 11.235 C 4.231 2.820,3.525 2.125,3.343 2.065 C 3.107 1.987,2.874 1.986,2.670 2.061 M11.640 2.069 C 11.490 2.121,11.240 2.350,10.126 3.456 C 9.393 4.184,8.743 4.852,8.682 4.940 C 8.280 5.519,8.618 6.347,9.305 6.469 C 9.549 6.512,9.855 6.462,10.017 6.352 C 10.085 6.306,10.559 5.853,11.070 5.344 L 12.000 4.420 12.790 5.210 L 13.580 6.000 12.656 6.930 C 12.147 7.441,11.695 7.914,11.651 7.980 C 11.529 8.162,11.477 8.462,11.528 8.698 C 11.676 9.394,12.483 9.720,13.060 9.318 C 13.300 9.150,15.820 6.601,15.905 6.440 C 15.957 6.341,15.979 6.213,15.979 6.000 C 15.980 5.746,15.964 5.673,15.873 5.520 C 15.814 5.421,15.040 4.618,14.153 3.736 C 12.714 2.305,12.519 2.124,12.343 2.066 C 12.102 1.985,11.878 1.986,11.640 2.069 M5.640 8.069 C 5.488 8.121,5.208 8.381,3.847 9.735 C 2.960 10.618,2.186 11.421,2.127 11.520 C 2.037 11.672,2.020 11.746,2.020 12.000 C 2.020 12.254,2.036 12.328,2.127 12.480 C 2.261 12.704,5.368 15.804,5.560 15.905 C 5.660 15.957,5.786 15.978,6.000 15.978 C 6.214 15.978,6.340 15.957,6.440 15.905 C 6.632 15.804,9.739 12.704,9.873 12.480 C 9.964 12.328,9.980 12.254,9.980 12.000 C 9.980 11.746,9.963 11.672,9.873 11.520 C 9.814 11.421,9.040 10.618,8.153 9.736 C 6.714 8.305,6.519 8.124,6.343 8.066 C 6.102 7.985,5.878 7.986,5.640 8.069 M17.640 8.069 C 17.490 8.121,17.240 8.350,16.126 9.456 C 15.393 10.184,14.743 10.852,14.682 10.940 C 14.280 11.519,14.618 12.347,15.305 12.469 C 15.549 12.512,15.855 12.462,16.017 12.352 C 16.085 12.306,16.559 11.853,17.070 11.344 L 18.000 10.420 18.790 11.210 L 19.580 12.000 18.656 12.930 C 18.147 13.441,17.695 13.914,17.651 13.980 C 17.455 14.271,17.465 14.738,17.672 15.052 C 17.967 15.496,18.622 15.624,19.055 15.321 C 19.300 15.151,21.819 12.603,21.905 12.440 C 21.957 12.341,21.979 12.213,21.979 12.000 C 21.980 11.746,21.964 11.673,21.873 11.520 C 21.814 11.421,21.040 10.618,20.153 9.736 C 18.714 8.305,18.519 8.124,18.343 8.066 C 18.102 7.985,17.878 7.986,17.640 8.069 M6.800 11.220 L 7.579 12.000 6.790 12.790 L 6.000 13.580 5.210 12.790 L 4.421 12.000 5.200 11.220 C 5.629 10.791,5.989 10.440,6.000 10.440 C 6.011 10.440,6.371 10.791,6.800 11.220 M11.640 14.069 C 11.488 14.121,11.208 14.381,9.847 15.735 C 8.960 16.618,8.186 17.421,8.127 17.520 C 8.037 17.672,8.020 17.746,8.020 18.000 C 8.020 18.254,8.036 18.328,8.127 18.480 C 8.261 18.704,11.368 21.804,11.560 21.905 C 11.660 21.957,11.786 21.978,12.000 21.978 C 12.214 21.978,12.340 21.957,12.440 21.905 C 12.632 21.804,15.739 18.704,15.873 18.480 C 15.964 18.328,15.980 18.254,15.980 18.000 C 15.980 17.746,15.963 17.672,15.873 17.520 C 15.814 17.421,15.040 16.618,14.153 15.736 C 12.714 14.305,12.519 14.124,12.343 14.066 C 12.102 13.985,11.878 13.986,11.640 14.069 M12.800 17.220 L 13.579 18.000 12.790 18.790 L 12.000 19.580 11.210 18.790 L 10.421 18.000 11.200 17.220 C 11.629 16.791,11.989 16.440,12.000 16.440 C 12.011 16.440,12.371 16.791,12.800 17.220 " stroke="none" fill-rule="evenodd" fill="black"></path></svg>