<svg xmlns="http://www.w3.org/2000/svg" width="24" height="24" viewBox="0 0 24 24" fill="none" stroke="currentColor" stroke-width="2" stroke-linecap="round" stroke-linejoin="round"><path d="M11.640 2.069 C 11.488 2.121,11.208 2.381,9.847 3.735 C 8.960 4.618,8.186 5.421,8.127 5.520 C 8.037 5.672,8.020 5.746,8.020 6.000 C 8.020 6.254,8.036 6.328,8.127 6.480 C 8.261 6.704,11.368 9.804,11.560 9.905 C 11.660 9.957,11.786 9.978,12.000 9.978 C 12.214 9.978,12.340 9.957,12.440 9.905 C 12.632 9.804,15.739 6.704,15.873 6.480 C 15.964 6.328,15.980 6.254,15.980 6.000 C 15.980 5.746,15.963 5.672,15.873 5.520 C 15.814 5.421,15.040 4.618,14.153 3.736 C 12.714 2.305,12.519 2.124,12.343 2.066 C 12.102 1.985,11.878 1.986,11.640 2.069 M12.800 5.220 L 13.579 6.000 12.790 6.790 L 12.000 7.580 11.210 6.790 L 10.421 6.000 11.200 5.220 C 11.629 4.791,11.989 4.440,12.000 4.440 C 12.011 4.440,12.371 4.791,12.800 5.220 M5.640 8.069 C 5.488 8.121,5.208 8.381,3.847 9.735 C 2.960 10.618,2.186 11.421,2.127 11.520 C 2.037 11.672,2.020 11.746,2.020 12.000 C 2.020 12.254,2.036 12.328,2.127 12.480 C 2.261 12.704,5.368 15.804,5.560 15.905 C 5.660 15.957,5.786 15.978,6.000 15.978 C 6.214 15.978,6.340 15.957,6.440 15.905 C 6.632 15.804,9.739 12.704,9.873 12.480 C 9.964 12.328,9.980 12.254,9.980 12.000 C 9.980 11.746,9.963 11.672,9.873 11.520 C 9.814 11.421,9.040 10.618,8.153 9.736 C 6.714 8.305,6.519 8.124,6.343 8.066 C 6.102 7.985,5.878 7.986,5.640 8.069 M17.640 8.069 C 17.488 8.121,17.208 8.381,15.847 9.735 C 14.960 10.618,14.186 11.421,14.127 11.520 C 14.037 11.672,14.020 11.746,14.020 12.000 C 14.020 12.254,14.036 12.328,14.127 12.480 C 14.261 12.704,17.368 15.804,17.560 15.905 C 17.660 15.957,17.786 15.978,18.000 15.978 C 18.214 15.978,18.340 15.957,18.440 15.905 C 18.632 15.804,21.739 12.704,21.873 12.480 C 21.964 12.328,21.980 12.254,21.980 12.000 C 21.980 11.746,21.963 11.672,21.873 11.520 C 21.814 11.421,21.040 10.618,20.153 9.736 C 18.714 8.305,18.519 8.124,18.343 8.066 C 18.102 7.985,17.878 7.986,17.640 8.069 M6.800 11.220 L 7.579 12.000 6.790 12.790 L 6.000 13.580 5.210 12.790 L 4.421 12.000 5.200 11.220 C 5.629 10.791,5.989 10.440,6.000 10.440 C 6.011 10.440,6.371 10.791,6.800 11.220 M18.800 11.220 L 19.579 12.000 18.790 12.790 L 18.000 13.580 17.210 12.790 L 16.421 12.000 17.200 11.220 C 17.629 10.791,17.989 10.440,18.000 10.440 C 18.011 10.440,18.371 10.791,18.800 11.220 M11.640 14.069 C 11.488 14.121,11.208 14.381,9.847 15.735 C 8.960 16.618,8.186 17.421,8.127 17.520 C 8.037 17.672,8.020 17.746,8.020 18.000 C 8.020 18.254,8.036 18.328,8.127 18.480 C 8.261 18.704,11.368 21.804,11.560 21.905 C 11.660 21.957,11.786 21.978,12.000 21.978 C 12.214 21.978,12.340 21.957,12.440 21.905 C 12.632 21.804,15.739 18.704,15.873 18.480 C 15.964 18.328,15.980 18.254,15.980 18.000 C 15.980 17.746,15.963 17.672,15.873 17.520 C 15.814 17.421,15.040 16.618,14.153 15.736 C 12.714 14.305,12.519 14.124,12.343 14.066 C 12.102 13.985,11.878 13.986,11.640 14.069 M12.800 17.220 L 13.579 18.000 12.790 18.790 L 12.000 19.580 11.210 18.790 L 10.421 18.000 11.200 17.220 C 11.629 16.791,11.989 16.440,12.000 16.440 C 12.011 16.440,12.371 16.791,12.800 17.220 " stroke="none" fill-rule="evenodd" fill="black"></path></svg>