<svg xmlns="http://www.w3.org/2000/svg" width="24" height="24" viewBox="0 0 24 24" fill="none" stroke="currentColor" stroke-width="2" stroke-linecap="round" stroke-linejoin="round"><path d="M11.602 1.044 C 11.134 1.135,10.578 1.514,10.326 1.914 C 10.171 2.158,2.309 16.656,2.134 17.019 C 2.007 17.284,2.000 17.320,2.000 17.743 C 2.000 18.326,2.045 18.550,2.243 18.954 C 2.690 19.863,3.949 20.673,5.720 21.192 C 7.558 21.731,9.311 21.967,11.540 21.975 C 12.742 21.980,12.785 21.977,12.943 21.893 C 13.344 21.678,13.569 21.229,13.485 20.811 C 13.407 20.422,13.055 20.066,12.707 20.024 C 12.615 20.013,12.027 19.994,11.400 19.982 C 9.858 19.953,8.682 19.832,7.483 19.579 C 5.516 19.164,4.000 18.431,4.000 17.896 C 4.000 17.785,4.843 16.200,7.990 10.398 C 10.184 6.351,11.989 3.040,12.000 3.040 C 12.011 3.040,13.172 5.167,14.580 7.765 C 15.988 10.364,17.188 12.558,17.247 12.641 C 17.400 12.856,17.750 13.020,18.041 13.013 C 18.653 12.999,19.129 12.428,19.009 11.852 C 18.977 11.703,18.237 10.302,16.379 6.872 C 14.956 4.248,13.739 2.016,13.674 1.914 C 13.258 1.256,12.387 0.890,11.602 1.044 M18.695 15.057 C 18.466 15.129,18.256 15.299,18.128 15.516 L 18.020 15.700 18.008 16.850 L 17.995 18.000 16.944 18.000 C 15.797 18.000,15.643 18.022,15.382 18.221 C 15.302 18.282,15.187 18.415,15.128 18.516 C 15.037 18.672,15.020 18.746,15.020 19.000 C 15.020 19.256,15.036 19.328,15.131 19.489 C 15.192 19.592,15.304 19.725,15.381 19.783 C 15.642 19.983,15.738 19.996,16.908 19.998 L 17.995 20.000 18.008 21.153 L 18.020 22.307 18.141 22.503 C 18.543 23.156,19.457 23.156,19.859 22.503 L 19.980 22.307 19.992 21.153 L 20.005 20.000 21.092 19.998 C 22.262 19.996,22.358 19.983,22.619 19.783 C 22.696 19.725,22.808 19.592,22.869 19.489 C 22.964 19.328,22.980 19.256,22.980 19.000 C 22.980 18.746,22.963 18.672,22.872 18.516 C 22.813 18.415,22.698 18.282,22.618 18.221 C 22.357 18.022,22.203 18.000,21.056 18.000 L 20.005 18.000 19.992 16.850 L 19.980 15.700 19.872 15.516 C 19.628 15.101,19.150 14.915,18.695 15.057 " stroke="none" fill-rule="evenodd" fill="black"></path></svg>