<svg xmlns="http://www.w3.org/2000/svg" width="24" height="24" viewBox="0 0 24 24" fill="none" stroke="currentColor" stroke-width="2" stroke-linecap="round" stroke-linejoin="round"><path d="M11.602 1.044 C 11.134 1.135,10.578 1.515,10.326 1.914 C 10.171 2.159,2.308 16.658,2.134 17.019 C 2.007 17.284,2.000 17.320,2.000 17.743 C 2.000 18.326,2.045 18.550,2.243 18.954 C 2.888 20.265,5.134 21.299,8.340 21.758 C 9.603 21.940,10.221 21.976,12.000 21.976 C 13.310 21.976,13.861 21.961,14.400 21.908 C 18.771 21.478,21.527 20.224,21.939 18.476 C 21.974 18.327,21.999 18.028,21.999 17.760 C 22.000 17.337,21.991 17.281,21.886 17.060 C 21.737 16.745,13.827 2.156,13.674 1.914 C 13.259 1.256,12.387 0.890,11.602 1.044 M16.010 10.398 C 19.152 16.192,20.000 17.786,20.000 17.897 C 20.000 18.539,17.917 19.402,15.500 19.761 C 14.289 19.941,13.729 19.975,12.000 19.975 C 10.271 19.975,9.711 19.941,8.500 19.761 C 6.082 19.402,4.000 18.539,4.000 17.896 C 4.000 17.785,4.841 16.203,7.990 10.398 C 10.184 6.351,11.989 3.040,12.000 3.040 C 12.011 3.041,13.816 6.352,16.010 10.398 " stroke="none" fill-rule="evenodd" fill="black"></path></svg>