<svg xmlns="http://www.w3.org/2000/svg" width="24" height="24" viewBox="0 0 24 24" fill="none" stroke="currentColor" stroke-width="2" stroke-linecap="round" stroke-linejoin="round"><path d="M11.695 2.057 C 11.466 2.129,11.256 2.299,11.128 2.516 L 11.020 2.700 11.009 4.960 L 10.998 7.221 7.292 8.147 C 3.222 9.165,3.378 9.115,3.149 9.486 C 2.861 9.950,3.023 10.582,3.499 10.862 C 3.856 11.071,3.831 11.075,6.731 10.348 C 8.178 9.986,9.346 9.710,9.327 9.735 C 9.308 9.760,7.919 11.497,6.241 13.595 C 4.564 15.694,3.152 17.476,3.105 17.555 C 3.039 17.668,3.020 17.765,3.020 18.000 C 3.020 18.257,3.036 18.327,3.133 18.492 C 3.414 18.970,4.030 19.138,4.497 18.864 C 4.634 18.783,5.327 17.941,7.825 14.818 L 10.980 10.875 10.990 12.937 C 10.996 14.072,10.996 15.927,10.990 17.060 L 10.980 19.120 10.225 18.617 C 9.810 18.340,9.399 18.088,9.310 18.057 C 8.877 17.904,8.376 18.093,8.138 18.499 C 8.013 18.713,7.970 19.045,8.039 19.264 C 8.154 19.627,8.205 19.670,9.911 20.808 C 10.807 21.406,11.603 21.918,11.680 21.946 C 12.016 22.068,12.435 21.967,12.701 21.701 C 13.019 21.384,13.000 21.689,13.000 16.783 L 13.000 12.421 16.210 15.626 C 17.976 17.389,19.481 18.862,19.555 18.899 C 20.010 19.128,20.601 18.944,20.867 18.492 C 20.964 18.327,20.980 18.258,20.979 18.000 C 20.979 17.788,20.957 17.659,20.905 17.560 C 20.865 17.483,19.228 15.814,17.268 13.852 C 15.308 11.889,13.712 10.275,13.722 10.266 C 13.732 10.256,15.279 9.480,17.160 8.540 C 19.896 7.172,20.609 6.800,20.725 6.679 C 20.884 6.512,21.000 6.227,21.000 6.000 C 21.000 5.594,20.708 5.189,20.321 5.060 C 19.908 4.923,20.010 4.881,16.369 6.698 C 14.538 7.612,13.031 8.360,13.021 8.360 C 13.010 8.360,12.997 7.087,12.991 5.530 L 12.980 2.700 12.872 2.516 C 12.628 2.101,12.150 1.915,11.695 2.057 " stroke="none" fill-rule="evenodd" fill="black"></path></svg>