<svg xmlns="http://www.w3.org/2000/svg" width="24" height="24" viewBox="0 0 24 24" fill="none" stroke="currentColor" stroke-width="2" stroke-linecap="round" stroke-linejoin="round"><path d="M4.695 3.057 C 4.352 3.164,4.073 3.481,4.018 3.825 C 3.992 3.985,3.986 3.990,3.781 4.036 C 3.515 4.096,3.269 4.276,3.129 4.514 C 3.036 4.672,3.020 4.745,3.020 5.003 C 3.020 5.271,3.034 5.329,3.141 5.503 C 3.287 5.740,3.577 5.946,3.817 5.982 C 3.988 6.007,3.993 6.012,4.018 6.183 C 4.054 6.423,4.260 6.713,4.497 6.859 C 4.671 6.966,4.729 6.980,5.000 6.980 C 5.271 6.980,5.329 6.966,5.503 6.859 C 5.740 6.713,5.946 6.423,5.982 6.183 C 6.007 6.012,6.012 6.007,6.183 5.982 C 6.423 5.946,6.713 5.740,6.859 5.503 C 6.966 5.329,6.980 5.271,6.980 5.003 C 6.980 4.745,6.964 4.672,6.871 4.514 C 6.731 4.276,6.485 4.096,6.219 4.036 C 6.014 3.990,6.008 3.985,5.982 3.825 C 5.926 3.473,5.646 3.162,5.290 3.055 C 5.068 2.988,4.913 2.989,4.695 3.057 M11.240 3.037 C 10.987 3.114,10.715 3.332,10.607 3.544 C 10.583 3.590,10.435 4.139,10.278 4.764 C 10.043 5.700,9.996 5.937,10.014 6.112 C 10.076 6.742,10.717 7.146,11.325 6.939 C 11.564 6.857,11.775 6.678,11.875 6.470 C 11.920 6.377,12.084 5.788,12.239 5.161 C 12.508 4.081,12.520 4.012,12.478 3.811 C 12.363 3.256,11.760 2.879,11.240 3.037 M18.695 3.057 C 18.352 3.164,18.073 3.481,18.018 3.825 C 17.992 3.985,17.986 3.990,17.781 4.036 C 17.515 4.096,17.269 4.276,17.129 4.514 C 17.036 4.672,17.020 4.745,17.020 5.003 C 17.020 5.271,17.034 5.329,17.141 5.503 C 17.287 5.740,17.577 5.946,17.817 5.982 C 17.988 6.007,17.993 6.012,18.018 6.183 C 18.054 6.423,18.260 6.713,18.497 6.859 C 18.671 6.966,18.729 6.980,19.000 6.980 C 19.271 6.980,19.329 6.966,19.503 6.859 C 19.740 6.713,19.946 6.423,19.982 6.183 C 20.007 6.012,20.012 6.007,20.183 5.982 C 20.423 5.946,20.713 5.740,20.859 5.503 C 20.966 5.329,20.980 5.271,20.980 5.003 C 20.980 4.745,20.964 4.672,20.871 4.514 C 20.731 4.276,20.485 4.096,20.219 4.036 C 20.014 3.990,20.008 3.985,19.982 3.825 C 19.926 3.473,19.646 3.162,19.290 3.055 C 19.068 2.988,18.913 2.989,18.695 3.057 M14.641 8.069 C 14.503 8.118,14.321 8.271,13.847 8.736 C 13.509 9.068,13.188 9.416,13.133 9.508 C 12.862 9.970,13.033 10.588,13.508 10.867 C 13.673 10.964,13.742 10.980,14.000 10.979 C 14.214 10.979,14.340 10.957,14.440 10.904 C 14.634 10.801,15.743 9.700,15.873 9.480 C 15.963 9.328,15.980 9.253,15.980 9.000 C 15.980 8.746,15.963 8.672,15.872 8.516 C 15.617 8.083,15.117 7.901,14.641 8.069 M7.153 9.061 C 7.041 9.097,6.898 9.188,6.793 9.291 C 6.636 9.446,6.410 9.920,4.405 14.301 C 3.186 16.962,2.153 19.239,2.109 19.360 C 2.007 19.639,1.975 20.127,2.040 20.406 C 2.219 21.181,2.823 21.784,3.594 21.961 C 3.874 22.025,4.362 21.992,4.640 21.891 C 5.100 21.724,14.507 17.389,14.640 17.283 C 14.941 17.043,15.067 16.586,14.940 16.194 C 14.874 15.991,14.701 15.810,11.485 12.589 C 9.018 10.117,8.052 9.175,7.922 9.112 C 7.699 9.003,7.396 8.983,7.153 9.061 M18.661 11.802 C 17.469 12.106,17.350 12.160,17.149 12.486 C 16.861 12.950,17.023 13.582,17.499 13.862 C 17.824 14.052,17.968 14.041,19.235 13.722 C 19.859 13.565,20.417 13.412,20.475 13.382 C 20.612 13.310,20.814 13.094,20.896 12.931 C 21.134 12.459,20.915 11.840,20.427 11.603 C 20.137 11.463,19.872 11.493,18.661 11.802 M10.038 13.978 C 11.258 15.199,12.247 16.206,12.236 16.217 C 12.217 16.236,4.568 19.750,4.170 19.923 L 3.999 19.997 4.053 19.889 C 4.083 19.829,4.933 17.976,5.942 15.770 C 6.951 13.564,7.787 11.760,7.799 11.760 C 7.810 11.760,8.818 12.758,10.038 13.978 M18.695 17.057 C 18.352 17.164,18.073 17.481,18.018 17.825 C 17.992 17.985,17.986 17.990,17.781 18.036 C 17.515 18.096,17.269 18.276,17.129 18.514 C 17.036 18.672,17.020 18.745,17.020 19.003 C 17.020 19.271,17.034 19.329,17.141 19.503 C 17.287 19.740,17.577 19.946,17.817 19.982 C 17.988 20.007,17.993 20.012,18.018 20.183 C 18.054 20.423,18.260 20.713,18.497 20.859 C 18.671 20.966,18.729 20.980,19.000 20.980 C 19.271 20.980,19.329 20.966,19.503 20.859 C 19.740 20.713,19.946 20.423,19.982 20.183 C 20.007 20.012,20.012 20.007,20.183 19.982 C 20.423 19.946,20.713 19.740,20.859 19.503 C 20.966 19.329,20.980 19.271,20.980 19.003 C 20.980 18.745,20.964 18.672,20.871 18.514 C 20.731 18.276,20.485 18.096,20.219 18.036 C 20.014 17.990,20.008 17.985,19.982 17.825 C 19.926 17.473,19.646 17.162,19.290 17.055 C 19.068 16.988,18.913 16.989,18.695 17.057 " stroke="none" fill-rule="evenodd" fill="black"></path></svg>