<svg xmlns="http://www.w3.org/2000/svg" width="24" height="24" viewBox="0 0 24 24" fill="none" stroke="currentColor" stroke-width="2" stroke-linecap="round" stroke-linejoin="round"><path d="M2.670 2.061 C 2.448 2.142,2.250 2.309,2.128 2.516 C 2.037 2.672,2.020 2.746,2.020 3.000 C 2.020 3.392,2.100 3.526,2.671 4.093 L 3.108 4.527 3.050 4.693 C 2.964 4.939,3.005 5.282,3.148 5.514 C 3.287 5.741,3.581 5.946,3.817 5.982 C 3.988 6.007,3.993 6.012,4.018 6.183 C 4.054 6.419,4.259 6.713,4.486 6.852 C 4.718 6.995,5.061 7.036,5.306 6.950 L 5.473 6.892 6.517 7.937 L 7.561 8.982 7.317 9.028 C 7.058 9.077,6.805 9.224,6.682 9.397 C 6.596 9.518,2.226 19.037,2.109 19.360 C 2.007 19.639,1.975 20.127,2.040 20.406 C 2.219 21.181,2.823 21.784,3.594 21.961 C 3.874 22.025,4.362 21.992,4.640 21.891 C 5.100 21.724,14.507 17.389,14.640 17.283 C 14.814 17.144,14.963 16.861,14.990 16.617 L 15.011 16.432 16.060 17.480 L 17.108 18.527 17.050 18.694 C 16.964 18.939,17.005 19.282,17.148 19.514 C 17.287 19.741,17.581 19.946,17.817 19.982 C 17.988 20.007,17.993 20.012,18.018 20.183 C 18.054 20.419,18.259 20.713,18.486 20.852 C 18.718 20.995,19.061 21.036,19.307 20.950 L 19.473 20.892 19.907 21.329 C 20.474 21.900,20.608 21.980,21.000 21.980 C 21.257 21.980,21.327 21.964,21.492 21.867 C 21.968 21.587,22.139 20.967,21.865 20.508 C 21.810 20.416,17.665 16.243,12.653 11.235 C 4.231 2.820,3.525 2.125,3.343 2.065 C 3.107 1.987,2.874 1.986,2.670 2.061 M11.240 3.037 C 10.987 3.114,10.715 3.332,10.607 3.544 C 10.583 3.590,10.435 4.139,10.278 4.764 C 10.043 5.700,9.996 5.937,10.014 6.112 C 10.076 6.742,10.717 7.146,11.325 6.939 C 11.564 6.857,11.775 6.678,11.875 6.470 C 11.920 6.377,12.084 5.788,12.239 5.161 C 12.508 4.081,12.520 4.012,12.478 3.811 C 12.363 3.256,11.760 2.879,11.240 3.037 M18.695 3.057 C 18.352 3.164,18.073 3.481,18.018 3.825 C 17.992 3.985,17.986 3.990,17.781 4.036 C 17.515 4.096,17.269 4.276,17.129 4.514 C 17.036 4.672,17.020 4.745,17.020 5.003 C 17.020 5.271,17.034 5.329,17.141 5.503 C 17.287 5.740,17.577 5.946,17.817 5.982 C 17.988 6.007,17.993 6.012,18.018 6.183 C 18.054 6.423,18.260 6.713,18.497 6.859 C 18.671 6.966,18.729 6.980,19.000 6.980 C 19.271 6.980,19.329 6.966,19.503 6.859 C 19.740 6.713,19.946 6.423,19.982 6.183 C 20.007 6.012,20.012 6.007,20.183 5.982 C 20.423 5.946,20.713 5.740,20.859 5.503 C 20.966 5.329,20.980 5.271,20.980 5.003 C 20.980 4.745,20.964 4.672,20.871 4.514 C 20.731 4.276,20.485 4.096,20.219 4.036 C 20.014 3.990,20.008 3.985,19.982 3.825 C 19.926 3.473,19.646 3.162,19.290 3.055 C 19.068 2.988,18.913 2.989,18.695 3.057 M14.641 8.069 C 14.503 8.118,14.321 8.271,13.847 8.736 C 13.509 9.068,13.188 9.416,13.133 9.508 C 12.862 9.970,13.033 10.588,13.508 10.867 C 13.673 10.964,13.742 10.980,14.000 10.979 C 14.214 10.979,14.340 10.957,14.440 10.904 C 14.634 10.801,15.743 9.700,15.873 9.480 C 15.963 9.328,15.980 9.253,15.980 9.000 C 15.980 8.746,15.963 8.672,15.872 8.516 C 15.617 8.083,15.117 7.901,14.641 8.069 M18.661 11.802 C 17.469 12.106,17.350 12.160,17.149 12.486 C 16.861 12.950,17.023 13.582,17.499 13.862 C 17.824 14.052,17.968 14.041,19.235 13.722 C 19.859 13.565,20.417 13.412,20.475 13.382 C 20.612 13.310,20.814 13.094,20.896 12.931 C 21.134 12.459,20.915 11.840,20.427 11.603 C 20.137 11.463,19.872 11.493,18.661 11.802 M10.038 13.978 C 11.258 15.199,12.247 16.206,12.236 16.217 C 12.217 16.236,4.568 19.750,4.170 19.923 L 3.999 19.997 4.053 19.889 C 4.083 19.829,4.933 17.976,5.942 15.770 C 6.951 13.564,7.787 11.760,7.799 11.760 C 7.810 11.760,8.818 12.758,10.038 13.978 " stroke="none" fill-rule="evenodd" fill="black"></path></svg>