<svg xmlns="http://www.w3.org/2000/svg" width="24" height="24" viewBox="0 0 24 24" fill="none" stroke="currentColor" stroke-width="2" stroke-linecap="round" stroke-linejoin="round"><path d="M7.820 5.023 C 7.256 5.101,7.052 5.146,6.732 5.260 C 6.271 5.425,5.782 5.689,5.352 6.008 C 4.957 6.301,4.200 7.043,4.096 7.240 C 3.986 7.447,3.993 7.926,4.109 8.145 C 4.350 8.600,4.938 8.806,5.400 8.597 C 5.508 8.548,5.748 8.351,6.000 8.104 C 6.231 7.878,6.534 7.616,6.673 7.523 C 8.032 6.610,9.325 6.896,11.429 8.573 C 13.199 9.984,14.733 10.602,16.158 10.478 C 17.069 10.399,17.852 10.088,18.650 9.488 C 19.105 9.146,19.771 8.487,19.885 8.267 C 20.075 7.900,20.018 7.477,19.735 7.162 C 19.533 6.938,19.308 6.834,19.017 6.831 C 18.668 6.828,18.538 6.899,18.073 7.343 C 17.200 8.176,16.578 8.488,15.782 8.489 C 14.902 8.490,13.999 8.051,12.560 6.921 C 11.245 5.889,10.160 5.318,9.100 5.100 C 8.783 5.035,8.052 4.991,7.820 5.023 M4.695 12.057 C 4.466 12.129,4.256 12.299,4.128 12.516 C 4.037 12.672,4.020 12.746,4.020 13.000 C 4.020 13.256,4.036 13.328,4.131 13.489 C 4.256 13.702,4.449 13.864,4.670 13.943 C 4.893 14.022,19.107 14.022,19.330 13.943 C 19.551 13.864,19.744 13.702,19.869 13.489 C 19.964 13.328,19.980 13.256,19.980 13.000 C 19.980 12.746,19.963 12.672,19.872 12.516 C 19.740 12.293,19.533 12.128,19.290 12.055 C 19.027 11.976,4.947 11.978,4.695 12.057 M4.695 16.057 C 4.466 16.129,4.256 16.299,4.128 16.516 C 4.037 16.672,4.020 16.746,4.020 17.000 C 4.020 17.256,4.036 17.328,4.131 17.489 C 4.256 17.702,4.449 17.864,4.670 17.943 C 4.893 18.022,19.107 18.022,19.330 17.943 C 19.551 17.864,19.744 17.702,19.869 17.489 C 19.964 17.328,19.980 17.256,19.980 17.000 C 19.980 16.746,19.963 16.672,19.872 16.516 C 19.740 16.293,19.533 16.128,19.290 16.055 C 19.027 15.976,4.947 15.978,4.695 16.057 " stroke="none" fill-rule="evenodd" fill="black"></path></svg>