<svg xmlns="http://www.w3.org/2000/svg" width="24" height="24" viewBox="0 0 24 24" fill="none" stroke="currentColor" stroke-width="2" stroke-linecap="round" stroke-linejoin="round"><path d="M7.358 2.061 C 5.728 2.317,4.417 3.584,4.083 5.227 C 4.002 5.624,4.000 5.736,4.000 10.816 L 4.000 16.000 3.446 16.000 C 2.648 16.000,2.367 16.110,2.128 16.516 C 2.022 16.697,2.020 16.712,2.007 17.520 C 1.996 18.233,2.006 18.395,2.080 18.759 C 2.357 20.119,3.244 21.192,4.512 21.704 C 5.151 21.961,5.467 22.000,6.906 21.998 C 8.276 21.996,8.353 21.987,8.619 21.783 C 8.696 21.725,8.808 21.592,8.869 21.489 C 8.964 21.328,8.980 21.256,8.980 21.000 C 8.980 20.746,8.963 20.672,8.872 20.516 C 8.813 20.415,8.698 20.282,8.618 20.221 C 8.352 20.018,8.213 20.000,6.922 20.000 C 5.646 20.000,5.474 19.980,5.083 19.781 C 4.816 19.646,4.449 19.297,4.281 19.017 C 4.138 18.780,4.006 18.360,4.002 18.130 L 4.000 18.000 6.350 18.000 L 8.700 17.999 8.900 17.905 C 9.281 17.724,9.488 17.405,9.488 17.000 C 9.488 16.615,9.293 16.297,8.940 16.106 C 8.786 16.023,8.727 16.020,7.390 16.008 L 6.000 15.996 6.002 10.868 C 6.004 6.154,6.010 5.719,6.073 5.477 C 6.201 4.988,6.543 4.546,7.014 4.265 C 7.468 3.993,7.331 4.000,11.978 4.000 C 14.278 4.000,16.160 4.005,16.160 4.010 C 16.159 4.016,16.129 4.110,16.091 4.220 C 16.031 4.396,16.021 4.673,16.009 6.538 C 15.994 8.907,15.988 8.854,16.276 9.173 C 16.638 9.574,17.283 9.600,17.675 9.228 C 17.904 9.011,17.999 8.754,18.000 8.355 L 18.000 8.009 18.790 7.990 C 19.464 7.974,19.621 7.958,19.860 7.882 C 20.835 7.570,21.582 6.817,21.886 5.840 C 22.021 5.406,22.021 4.594,21.886 4.160 C 21.582 3.183,20.832 2.428,19.861 2.121 L 19.540 2.020 13.620 2.013 C 8.837 2.008,7.634 2.017,7.358 2.061 M19.310 4.061 C 19.688 4.173,20.000 4.598,20.000 5.001 C 20.000 5.331,19.784 5.696,19.484 5.872 C 19.308 5.975,19.272 5.981,18.650 5.993 L 18.000 6.007 18.000 5.451 C 18.000 4.750,18.052 4.555,18.304 4.303 C 18.583 4.024,18.916 3.944,19.310 4.061 M8.695 6.057 C 8.466 6.129,8.256 6.299,8.128 6.516 C 8.037 6.672,8.020 6.746,8.020 7.000 C 8.020 7.256,8.036 7.328,8.131 7.489 C 8.256 7.702,8.449 7.864,8.670 7.943 C 8.889 8.021,13.111 8.021,13.330 7.943 C 13.551 7.864,13.744 7.702,13.869 7.489 C 13.964 7.328,13.980 7.256,13.980 7.000 C 13.980 6.746,13.963 6.672,13.872 6.516 C 13.740 6.293,13.533 6.128,13.290 6.055 C 13.033 5.978,8.943 5.979,8.695 6.057 M8.695 10.057 C 8.466 10.129,8.256 10.299,8.128 10.516 C 8.037 10.672,8.020 10.746,8.020 11.000 C 8.020 11.256,8.036 11.328,8.131 11.489 C 8.256 11.702,8.449 11.864,8.670 11.943 C 8.889 12.021,13.111 12.021,13.330 11.943 C 13.551 11.864,13.744 11.702,13.869 11.489 C 13.964 11.328,13.980 11.256,13.980 11.000 C 13.980 10.746,13.963 10.672,13.872 10.516 C 13.740 10.293,13.533 10.128,13.290 10.055 C 13.033 9.978,8.943 9.979,8.695 10.057 M19.351 11.039 C 18.895 11.122,18.442 11.323,18.060 11.613 C 17.928 11.714,16.314 13.295,14.473 15.128 C 11.393 18.195,11.122 18.476,11.063 18.657 C 11.010 18.825,11.000 19.105,11.002 20.517 C 11.004 22.306,11.008 22.345,11.217 22.619 C 11.275 22.696,11.408 22.808,11.511 22.869 L 11.700 22.980 13.415 22.992 C 14.906 23.002,15.156 22.995,15.335 22.938 C 15.528 22.878,15.740 22.673,18.872 19.527 C 20.705 17.686,22.286 16.072,22.386 15.940 C 22.775 15.429,22.957 14.919,22.989 14.258 C 23.036 13.280,22.720 12.505,21.996 11.824 C 21.652 11.500,21.154 11.216,20.720 11.097 C 20.460 11.025,19.620 10.989,19.351 11.039 M20.385 13.112 C 20.594 13.219,20.778 13.402,20.891 13.615 C 21.017 13.851,21.016 14.350,20.889 14.588 C 20.834 14.693,19.633 15.930,17.695 17.878 L 14.590 21.000 13.795 21.000 L 13.000 21.000 13.000 20.205 L 13.000 19.411 16.099 16.327 C 17.803 14.631,19.244 13.213,19.299 13.177 C 19.599 12.980,20.072 12.952,20.385 13.112 " stroke="none" fill-rule="evenodd" fill="black"></path></svg>