<svg xmlns="http://www.w3.org/2000/svg" width="24" height="24" viewBox="0 0 24 24" fill="none" stroke="currentColor" stroke-width="2" stroke-linecap="round" stroke-linejoin="round"><path d="M2.670 2.061 C 2.448 2.142,2.250 2.309,2.128 2.516 C 2.036 2.672,2.020 2.745,2.021 3.000 C 2.021 3.214,2.043 3.340,2.096 3.440 C 2.137 3.517,2.418 3.832,2.722 4.140 L 3.273 4.700 3.147 5.060 L 3.020 5.420 3.020 11.980 L 3.020 18.540 3.114 18.840 C 3.422 19.827,4.173 20.578,5.160 20.886 L 5.460 20.980 12.020 20.980 L 18.580 20.980 18.940 20.853 L 19.300 20.727 19.860 21.278 C 20.168 21.582,20.483 21.863,20.560 21.904 C 20.660 21.957,20.786 21.979,21.000 21.979 C 21.258 21.980,21.327 21.964,21.492 21.867 C 21.968 21.587,22.139 20.967,21.865 20.508 C 21.810 20.416,17.665 16.243,12.653 11.235 C 4.231 2.820,3.525 2.125,3.343 2.065 C 3.107 1.987,2.874 1.986,2.670 2.061 M7.695 3.057 C 7.465 3.129,7.256 3.299,7.128 3.516 C 7.037 3.672,7.020 3.746,7.020 4.000 C 7.020 4.256,7.036 4.328,7.131 4.489 C 7.256 4.702,7.449 4.864,7.670 4.943 C 7.792 4.986,8.735 4.998,12.680 5.004 C 15.368 5.007,17.406 5.025,17.240 5.043 C 15.330 5.246,13.461 6.326,12.351 7.869 C 11.888 8.511,11.803 8.788,11.940 9.201 C 12.064 9.573,12.479 9.880,12.857 9.880 C 13.245 9.879,13.529 9.694,13.830 9.247 C 14.331 8.502,15.002 7.918,15.820 7.517 C 16.610 7.130,17.249 7.000,18.368 7.000 L 18.999 7.000 19.009 11.653 L 19.020 16.306 19.141 16.503 C 19.543 17.156,20.457 17.156,20.859 16.503 L 20.980 16.306 20.980 10.883 L 20.980 5.460 20.886 5.160 C 20.581 4.182,19.832 3.428,18.861 3.121 L 18.540 3.020 13.200 3.012 C 8.900 3.006,7.828 3.015,7.695 3.057 M10.942 12.657 C 10.810 14.179,9.685 15.751,8.212 16.476 C 7.442 16.855,6.946 16.962,5.850 16.989 L 5.000 17.009 5.000 11.715 L 5.000 6.420 7.983 9.400 L 10.966 12.380 10.942 12.657 M15.140 16.560 L 17.580 19.000 12.020 18.994 C 8.962 18.991,6.514 18.982,6.580 18.974 C 7.842 18.824,8.725 18.532,9.669 17.954 C 10.948 17.172,12.050 15.838,12.536 14.484 C 12.635 14.209,12.673 14.120,12.692 14.120 C 12.697 14.120,13.798 15.218,15.140 16.560 " stroke="none" fill-rule="evenodd" fill="black"></path></svg>