<svg xmlns="http://www.w3.org/2000/svg" width="24" height="24" viewBox="0 0 24 24" fill="none" stroke="currentColor" stroke-width="2" stroke-linecap="round" stroke-linejoin="round"><path d="M2.670 2.061 C 2.448 2.142,2.250 2.309,2.128 2.516 C 2.036 2.672,2.020 2.745,2.021 3.000 C 2.021 3.213,2.043 3.341,2.095 3.440 C 2.136 3.517,2.637 4.050,3.208 4.625 L 4.248 5.670 3.965 6.051 C 2.992 7.362,2.353 8.914,2.093 10.600 C 2.040 10.943,2.022 11.298,2.022 12.000 C 2.022 13.038,2.071 13.479,2.285 14.355 C 2.727 16.167,3.610 17.732,4.939 19.061 C 6.490 20.613,8.383 21.564,10.600 21.907 C 11.245 22.007,12.755 22.007,13.400 21.907 C 15.086 21.647,16.638 21.008,17.949 20.035 L 18.330 19.752 19.375 20.792 C 19.950 21.363,20.483 21.864,20.560 21.905 C 20.659 21.957,20.787 21.979,21.000 21.979 C 21.258 21.980,21.327 21.964,21.492 21.867 C 21.968 21.587,22.139 20.967,21.865 20.508 C 21.810 20.416,17.665 16.243,12.653 11.235 C 4.231 2.820,3.525 2.125,3.343 2.065 C 3.107 1.987,2.874 1.986,2.670 2.061 M11.080 2.043 C 9.896 2.162,8.747 2.480,7.713 2.974 C 7.268 3.187,7.111 3.344,7.014 3.676 C 6.827 4.316,7.292 4.936,7.960 4.938 C 8.187 4.938,8.273 4.914,8.635 4.746 C 10.401 3.929,12.306 3.781,14.226 4.313 C 16.354 4.903,18.236 6.496,19.219 8.540 C 19.970 10.102,20.191 11.987,19.824 13.704 C 19.727 14.159,19.528 14.743,19.285 15.280 C 19.079 15.737,19.060 15.804,19.062 16.060 C 19.064 16.490,19.252 16.781,19.640 16.957 C 20.001 17.120,20.499 17.022,20.768 16.735 C 20.894 16.601,21.189 15.983,21.386 15.440 C 22.211 13.171,22.205 10.794,21.369 8.500 C 21.190 8.010,20.695 7.019,20.399 6.560 C 18.850 4.157,16.203 2.483,13.340 2.096 C 12.786 2.021,11.580 1.993,11.080 2.043 M11.695 6.057 C 11.466 6.129,11.256 6.299,11.128 6.516 C 11.023 6.694,11.020 6.723,11.007 7.404 C 10.999 7.825,11.011 8.172,11.037 8.268 C 11.099 8.498,11.287 8.737,11.508 8.867 C 11.673 8.964,11.743 8.980,12.000 8.980 C 12.257 8.980,12.327 8.964,12.492 8.867 C 12.709 8.739,12.901 8.498,12.961 8.278 L 13.001 8.128 13.190 8.185 C 13.442 8.259,13.994 8.525,14.230 8.685 C 15.091 9.267,15.677 10.151,15.923 11.240 C 15.983 11.504,15.993 12.242,15.945 12.742 C 15.912 13.072,15.917 13.121,15.997 13.302 C 16.111 13.560,16.254 13.708,16.500 13.825 C 17.033 14.077,17.682 13.798,17.856 13.241 C 18.026 12.702,18.037 11.583,17.881 10.824 C 17.357 8.279,15.340 6.401,12.761 6.058 C 12.246 5.989,11.913 5.989,11.695 6.057 M8.350 9.770 L 11.000 12.420 11.002 14.800 C 11.004 17.364,11.002 17.337,11.217 17.619 C 11.391 17.847,11.642 17.970,11.983 17.991 C 12.924 18.052,14.358 17.636,15.243 17.045 L 15.472 16.891 16.176 17.596 C 16.563 17.984,16.880 18.313,16.880 18.329 C 16.880 18.392,15.943 18.973,15.480 19.197 C 13.265 20.265,10.737 20.267,8.529 19.200 C 7.738 18.819,7.124 18.394,6.504 17.801 C 5.777 17.105,5.251 16.387,4.817 15.499 C 3.736 13.290,3.736 10.714,4.817 8.499 C 5.052 8.017,5.608 7.120,5.672 7.120 C 5.687 7.120,6.892 8.312,8.350 9.770 M13.939 15.496 C 13.850 15.561,13.328 15.781,13.130 15.838 L 13.000 15.874 13.000 15.147 L 13.000 14.420 13.509 14.929 C 13.993 15.413,14.014 15.441,13.939 15.496 " stroke="none" fill-rule="evenodd" fill="black"></path></svg>