<svg xmlns="http://www.w3.org/2000/svg" width="24" height="24" viewBox="0 0 24 24" fill="none" stroke="currentColor" stroke-width="2" stroke-linecap="round" stroke-linejoin="round"><path d="M11.380 1.040 C 9.959 1.193,8.715 1.799,7.716 2.826 C 7.027 3.535,6.619 4.204,6.318 5.123 C 6.087 5.826,6.026 6.225,6.024 7.040 C 6.023 7.852,6.080 8.205,6.325 8.920 C 6.412 9.173,6.493 9.407,6.504 9.440 C 6.520 9.489,6.473 9.502,6.257 9.513 C 5.670 9.541,5.007 9.802,4.535 10.191 C 3.806 10.793,3.398 11.802,3.519 12.708 C 3.610 13.395,3.884 13.965,4.341 14.420 C 4.691 14.768,4.894 14.887,6.064 15.424 L 7.000 15.854 7.000 16.334 L 7.000 16.814 6.270 17.557 C 5.476 18.365,5.315 18.590,5.132 19.140 C 5.037 19.423,5.025 19.524,5.023 20.020 C 5.020 20.500,5.033 20.623,5.114 20.880 C 5.276 21.399,5.462 21.704,5.859 22.101 C 6.264 22.506,6.583 22.710,7.060 22.869 C 7.348 22.965,7.438 22.976,7.960 22.976 C 8.482 22.976,8.572 22.965,8.860 22.869 C 9.457 22.670,9.607 22.553,10.850 21.323 L 12.000 20.184 13.150 21.322 C 14.385 22.544,14.507 22.640,15.110 22.854 C 15.441 22.972,15.491 22.978,16.040 22.977 C 16.554 22.976,16.655 22.964,16.927 22.873 C 17.411 22.711,17.742 22.503,18.123 22.123 C 18.503 21.742,18.711 21.411,18.873 20.927 C 18.964 20.655,18.976 20.554,18.977 20.040 C 18.978 19.491,18.972 19.441,18.854 19.110 C 18.653 18.546,18.519 18.360,17.730 17.557 L 17.000 16.814 17.000 16.334 L 17.000 15.853 17.910 15.438 C 18.410 15.210,18.946 14.951,19.099 14.862 C 19.436 14.667,19.890 14.222,20.077 13.905 C 20.395 13.367,20.561 12.621,20.484 12.076 C 20.288 10.678,19.265 9.682,17.861 9.522 C 17.667 9.500,17.503 9.476,17.495 9.468 C 17.487 9.460,17.522 9.347,17.573 9.217 C 17.881 8.432,17.980 7.897,17.980 7.020 C 17.980 6.290,17.949 6.033,17.791 5.444 C 17.200 3.240,15.388 1.550,13.150 1.116 C 12.688 1.027,11.841 0.990,11.380 1.040 M12.954 3.119 C 14.421 3.477,15.561 4.643,15.905 6.140 C 16.017 6.627,16.007 7.467,15.884 7.940 C 15.642 8.867,15.193 9.557,14.432 10.170 C 13.965 10.546,13.860 10.721,13.862 11.120 C 13.863 11.323,13.893 11.449,13.998 11.695 C 14.235 12.254,14.495 12.456,14.980 12.458 C 15.253 12.460,15.283 12.449,16.260 12.002 C 17.149 11.594,17.289 11.542,17.522 11.528 C 18.079 11.494,18.480 11.864,18.480 12.412 C 18.480 12.673,18.359 12.924,18.158 13.083 C 18.082 13.143,17.516 13.421,16.900 13.700 C 15.511 14.330,15.347 14.417,15.218 14.586 C 15.008 14.861,14.996 14.963,15.008 16.284 C 15.019 17.396,15.027 17.514,15.098 17.660 C 15.143 17.751,15.548 18.198,16.040 18.700 C 16.944 19.621,17.000 19.699,17.000 20.040 C 17.000 20.418,16.709 20.824,16.353 20.942 C 16.122 21.019,15.800 21.004,15.615 20.907 C 15.552 20.874,14.892 20.235,14.149 19.487 C 13.145 18.475,12.760 18.112,12.649 18.073 C 12.449 18.002,11.551 18.002,11.351 18.073 C 11.240 18.112,10.851 18.479,9.835 19.502 C 8.608 20.736,8.448 20.884,8.269 20.944 C 8.041 21.019,7.719 21.003,7.532 20.906 C 7.386 20.831,7.172 20.616,7.094 20.468 C 7.006 20.298,6.982 19.988,7.042 19.771 C 7.088 19.601,7.190 19.483,7.947 18.715 C 8.606 18.046,8.822 17.802,8.899 17.635 C 8.999 17.421,8.999 17.415,9.000 16.235 C 9.000 14.956,8.987 14.854,8.781 14.584 C 8.653 14.417,8.487 14.330,7.100 13.700 C 6.484 13.420,5.918 13.142,5.842 13.082 C 5.765 13.023,5.661 12.894,5.608 12.797 C 5.530 12.650,5.516 12.575,5.528 12.352 C 5.546 12.018,5.686 11.794,5.981 11.629 C 6.155 11.531,6.215 11.519,6.460 11.530 C 6.720 11.542,6.810 11.575,7.740 12.001 C 8.717 12.449,8.746 12.460,9.020 12.458 C 9.505 12.456,9.765 12.254,10.002 11.695 C 10.107 11.449,10.137 11.323,10.138 11.120 C 10.140 10.719,10.034 10.543,9.565 10.167 C 8.791 9.546,8.318 8.782,8.074 7.760 C 8.042 7.626,8.024 7.322,8.027 6.980 C 8.031 6.520,8.050 6.348,8.135 6.020 C 8.528 4.490,9.809 3.313,11.358 3.058 C 11.804 2.985,12.514 3.012,12.954 3.119 M9.695 6.055 C 9.464 6.130,9.255 6.300,9.128 6.516 C 9.037 6.672,9.020 6.746,9.020 7.000 C 9.020 7.257,9.036 7.327,9.133 7.492 C 9.651 8.374,10.998 8.018,10.998 7.000 C 10.998 6.623,10.792 6.281,10.463 6.112 C 10.265 6.010,9.911 5.984,9.695 6.055 M13.695 6.055 C 13.464 6.130,13.255 6.300,13.128 6.516 C 13.037 6.672,13.020 6.746,13.020 7.000 C 13.020 7.257,13.036 7.327,13.133 7.492 C 13.651 8.374,14.998 8.018,14.998 7.000 C 14.998 6.623,14.792 6.281,14.463 6.112 C 14.265 6.010,13.911 5.984,13.695 6.055 M11.695 8.055 C 11.464 8.130,11.255 8.300,11.128 8.516 C 11.037 8.672,11.020 8.746,11.020 9.000 C 11.020 9.257,11.036 9.327,11.133 9.492 C 11.651 10.374,12.998 10.018,12.998 9.000 C 12.998 8.623,12.792 8.281,12.463 8.112 C 12.265 8.010,11.911 7.984,11.695 8.055 M11.695 12.055 C 11.464 12.130,11.255 12.300,11.128 12.516 C 11.037 12.672,11.020 12.746,11.020 13.000 C 11.020 13.257,11.036 13.327,11.133 13.492 C 11.651 14.374,12.998 14.018,12.998 13.000 C 12.998 12.623,12.792 12.281,12.463 12.112 C 12.265 12.010,11.911 11.984,11.695 12.055 M11.695 15.055 C 11.464 15.130,11.255 15.300,11.128 15.516 C 11.037 15.672,11.020 15.746,11.020 16.000 C 11.020 16.257,11.036 16.327,11.133 16.492 C 11.651 17.374,12.998 17.018,12.998 16.000 C 12.998 15.623,12.792 15.281,12.463 15.112 C 12.265 15.010,11.911 14.984,11.695 15.055 " stroke="none" fill-rule="evenodd" fill="black"></path></svg>