<svg xmlns="http://www.w3.org/2000/svg" width="24" height="24" viewBox="0 0 24 24" fill="none" stroke="currentColor" stroke-width="2" stroke-linecap="round" stroke-linejoin="round"><path d="M6.499 2.043 C 5.379 2.233,4.461 3.048,4.114 4.160 L 4.020 4.460 4.020 12.000 L 4.020 19.540 4.114 19.840 C 4.422 20.827,5.173 21.578,6.160 21.886 L 6.460 21.980 12.000 21.980 L 17.540 21.980 17.840 21.886 C 18.827 21.578,19.578 20.827,19.886 19.840 L 19.980 19.540 19.980 12.000 L 19.980 4.460 19.886 4.160 C 19.581 3.182,18.832 2.428,17.861 2.121 L 17.540 2.020 12.120 2.014 C 9.139 2.011,6.609 2.024,6.499 2.043 M17.310 4.061 C 17.452 4.103,17.571 4.178,17.697 4.303 C 18.007 4.614,18.000 4.538,18.000 7.447 L 18.000 10.000 12.000 10.000 L 6.000 10.000 6.000 7.447 C 6.000 4.538,5.993 4.614,6.304 4.303 C 6.621 3.985,6.234 4.006,11.983 4.003 C 16.458 4.000,17.131 4.008,17.310 4.061 M8.695 6.055 C 8.464 6.130,8.255 6.300,8.128 6.516 C 8.037 6.672,8.020 6.746,8.020 7.000 C 8.020 7.257,8.036 7.327,8.133 7.492 C 8.651 8.374,9.998 8.018,9.998 7.000 C 9.998 6.623,9.792 6.281,9.463 6.112 C 9.265 6.010,8.911 5.984,8.695 6.055 M11.695 6.055 C 11.464 6.130,11.255 6.300,11.128 6.516 C 11.037 6.672,11.020 6.746,11.020 7.000 C 11.020 7.257,11.036 7.327,11.133 7.492 C 11.651 8.374,12.998 8.018,12.998 7.000 C 12.998 6.623,12.792 6.281,12.463 6.112 C 12.265 6.010,11.911 5.984,11.695 6.055 M14.695 6.055 C 14.464 6.130,14.255 6.300,14.128 6.516 C 14.037 6.672,14.020 6.746,14.020 7.000 C 14.020 7.257,14.036 7.327,14.133 7.492 C 14.651 8.374,15.998 8.018,15.998 7.000 C 15.998 6.623,15.792 6.281,15.463 6.112 C 15.265 6.010,14.911 5.984,14.695 6.055 M18.000 15.554 C 18.000 19.410,18.005 19.322,17.779 19.618 C 17.718 19.698,17.585 19.813,17.484 19.872 L 17.300 19.980 12.000 19.980 L 6.700 19.980 6.516 19.872 C 6.415 19.813,6.284 19.700,6.225 19.623 C 5.992 19.317,6.000 19.464,6.000 15.575 L 6.000 12.000 12.000 12.000 L 18.000 12.000 18.000 15.554 M8.695 14.057 C 8.466 14.129,8.256 14.299,8.128 14.516 C 8.037 14.672,8.020 14.746,8.020 15.000 C 8.020 15.256,8.036 15.328,8.131 15.489 C 8.256 15.702,8.449 15.864,8.670 15.943 C 8.891 16.022,15.109 16.022,15.330 15.943 C 15.551 15.864,15.744 15.702,15.869 15.489 C 15.964 15.328,15.980 15.256,15.980 15.000 C 15.980 14.746,15.963 14.672,15.872 14.516 C 15.740 14.293,15.533 14.128,15.290 14.055 C 15.030 13.977,8.945 13.979,8.695 14.057 " stroke="none" fill-rule="evenodd" fill="black"></path></svg>