<svg xmlns="http://www.w3.org/2000/svg" width="24" height="24" viewBox="0 0 24 24" fill="none" stroke="currentColor" stroke-width="2" stroke-linecap="round" stroke-linejoin="round"><path d="M4.499 2.043 C 3.856 2.152,3.395 2.398,2.896 2.896 C 2.496 3.296,2.296 3.613,2.125 4.113 L 2.020 4.420 2.020 9.960 L 2.020 15.500 2.114 15.800 C 2.363 16.599,2.876 17.254,3.522 17.598 C 4.210 17.965,4.996 17.507,4.999 16.738 C 5.000 16.377,4.862 16.127,4.525 15.879 C 4.225 15.659,4.105 15.500,4.041 15.240 C 4.010 15.113,4.001 13.545,4.009 9.900 C 4.020 4.889,4.022 4.735,4.097 4.584 C 4.196 4.385,4.385 4.196,4.584 4.097 C 4.736 4.022,4.888 4.020,9.933 4.009 C 15.788 3.997,15.278 3.968,15.520 4.328 C 15.837 4.800,16.042 4.949,16.425 4.989 C 16.692 5.017,16.948 4.926,17.169 4.727 C 17.352 4.561,17.422 4.438,17.481 4.176 C 17.545 3.891,17.472 3.654,17.195 3.239 C 16.817 2.673,16.360 2.312,15.771 2.112 L 15.500 2.020 10.100 2.014 C 7.130 2.011,4.609 2.024,4.499 2.043 M9.280 6.025 C 8.674 6.120,8.289 6.241,7.898 6.460 C 7.160 6.872,6.519 7.609,6.245 8.360 C 6.005 9.018,6.020 8.636,6.020 14.000 C 6.020 19.364,6.005 18.982,6.245 19.640 C 6.581 20.559,7.441 21.419,8.360 21.755 C 9.018 21.995,8.636 21.980,14.000 21.980 C 19.364 21.980,18.982 21.995,19.640 21.755 C 20.559 21.419,21.419 20.559,21.755 19.640 C 21.995 18.982,21.980 19.364,21.980 14.000 C 21.980 8.636,21.995 9.018,21.755 8.360 C 21.419 7.442,20.564 6.586,19.640 6.244 C 19.009 6.011,19.326 6.024,14.140 6.016 C 11.522 6.013,9.335 6.017,9.280 6.025 M18.926 8.111 C 19.365 8.289,19.711 8.635,19.889 9.074 L 19.980 9.300 19.991 13.856 C 19.998 16.822,19.988 18.488,19.961 18.631 C 19.843 19.269,19.372 19.777,18.740 19.946 C 18.445 20.024,9.555 20.024,9.260 19.946 C 8.632 19.778,8.160 19.273,8.040 18.642 C 7.985 18.352,7.985 9.648,8.040 9.358 C 8.164 8.707,8.689 8.170,9.327 8.042 C 9.422 8.023,11.570 8.011,14.100 8.014 L 18.700 8.020 18.926 8.111 M11.044 10.625 C 10.558 10.868,10.370 11.469,10.623 11.969 C 10.660 12.041,10.989 12.406,11.355 12.780 C 11.721 13.154,12.133 13.578,12.271 13.722 L 12.522 13.985 11.556 14.942 C 10.503 15.986,10.401 16.125,10.401 16.500 C 10.401 16.874,10.670 17.277,11.018 17.422 C 11.234 17.512,11.588 17.507,11.805 17.410 C 11.927 17.356,12.275 17.044,12.946 16.386 C 13.477 15.866,13.919 15.440,13.928 15.440 C 13.937 15.440,14.366 15.865,14.882 16.385 C 15.543 17.050,15.872 17.353,15.995 17.409 C 16.211 17.507,16.564 17.513,16.782 17.422 C 17.130 17.277,17.399 16.874,17.399 16.500 C 17.399 16.129,17.294 15.982,16.286 14.954 L 15.359 14.008 16.283 13.114 C 16.792 12.622,17.258 12.148,17.319 12.060 C 17.751 11.436,17.333 10.575,16.574 10.527 C 16.122 10.498,16.067 10.535,14.966 11.606 C 14.426 12.131,13.972 12.560,13.956 12.560 C 13.940 12.560,13.527 12.146,13.038 11.641 C 12.037 10.605,11.919 10.520,11.500 10.520 C 11.316 10.520,11.203 10.546,11.044 10.625 " stroke="none" fill-rule="evenodd" fill="black"></path></svg>