<svg xmlns="http://www.w3.org/2000/svg" width="24" height="24" viewBox="0 0 24 24" fill="none" stroke="currentColor" stroke-width="2" stroke-linecap="round" stroke-linejoin="round"><path d="M2.670 2.061 C 2.448 2.142,2.250 2.309,2.128 2.516 C 2.036 2.672,2.020 2.745,2.021 3.000 C 2.021 3.213,2.043 3.341,2.095 3.440 C 2.136 3.517,2.639 4.052,3.213 4.629 L 4.256 5.678 4.155 5.789 C 3.681 6.309,2.950 7.566,2.638 8.400 C 1.751 10.767,1.720 13.096,2.544 15.447 C 2.762 16.068,3.229 16.999,3.606 17.561 C 5.602 20.543,8.922 22.214,12.493 22.034 C 14.455 21.935,16.452 21.201,17.995 20.011 L 18.331 19.753 19.375 20.792 C 19.950 21.363,20.483 21.864,20.560 21.905 C 20.659 21.957,20.787 21.979,21.000 21.979 C 21.258 21.980,21.327 21.964,21.492 21.867 C 21.968 21.587,22.139 20.967,21.865 20.508 C 21.810 20.416,17.665 16.243,12.653 11.235 C 4.231 2.820,3.525 2.125,3.343 2.065 C 3.107 1.987,2.874 1.986,2.670 2.061 M11.080 2.043 C 9.922 2.160,8.798 2.467,7.760 2.949 C 7.190 3.215,7.007 3.436,6.969 3.907 C 6.952 4.122,6.964 4.188,7.057 4.378 C 7.185 4.639,7.384 4.815,7.653 4.904 C 7.936 4.998,8.161 4.962,8.637 4.744 C 10.417 3.927,12.308 3.782,14.226 4.313 C 16.341 4.899,18.237 6.498,19.205 8.512 C 20.096 10.364,20.244 12.530,19.614 14.460 C 19.556 14.636,19.410 15.005,19.288 15.280 C 19.039 15.845,19.000 16.059,19.096 16.347 C 19.186 16.619,19.363 16.816,19.629 16.942 C 19.823 17.034,19.892 17.047,20.106 17.030 C 20.396 17.006,20.662 16.871,20.816 16.669 C 21.021 16.400,21.419 15.433,21.624 14.706 C 22.518 11.532,21.776 8.099,19.647 5.557 C 18.089 3.697,15.786 2.429,13.360 2.097 C 12.822 2.023,11.571 1.994,11.080 2.043 M9.098 10.518 C 10.967 12.387,12.485 13.928,12.471 13.943 C 12.456 13.957,12.295 13.978,12.112 13.989 C 11.599 14.020,11.189 13.892,10.741 13.561 C 10.411 13.317,10.287 13.268,10.001 13.268 C 9.251 13.268,8.775 14.044,9.115 14.711 C 9.262 14.998,9.870 15.448,10.422 15.678 C 11.516 16.134,12.723 16.097,13.763 15.577 L 14.026 15.446 15.463 16.885 L 16.900 18.324 16.780 18.424 C 16.552 18.613,15.999 18.963,15.618 19.159 C 13.978 20.001,12.063 20.258,10.280 19.874 C 7.503 19.276,5.238 17.243,4.360 14.562 C 4.052 13.624,3.939 12.812,3.971 11.780 C 4.010 10.561,4.259 9.567,4.799 8.480 C 5.081 7.913,5.591 7.120,5.673 7.120 C 5.688 7.120,7.229 8.649,9.098 10.518 M12.922 8.383 C 12.543 8.547,12.308 8.900,12.311 9.298 C 12.315 9.702,12.510 10.004,12.911 10.227 C 13.253 10.417,13.575 10.739,13.795 11.113 C 14.065 11.572,14.442 11.771,14.877 11.683 C 15.280 11.602,15.586 11.311,15.680 10.918 C 15.742 10.662,15.709 10.488,15.534 10.141 C 15.168 9.413,14.526 8.787,13.789 8.438 C 13.504 8.303,13.157 8.281,12.922 8.383 " stroke="none" fill-rule="evenodd" fill="black"></path></svg>