<svg xmlns="http://www.w3.org/2000/svg" width="24" height="24" viewBox="0 0 24 24" fill="none" stroke="currentColor" stroke-width="2" stroke-linecap="round" stroke-linejoin="round"><path d="M4.499 2.043 C 3.856 2.152,3.395 2.398,2.896 2.896 C 2.496 3.296,2.296 3.613,2.125 4.113 L 2.020 4.420 2.020 9.960 L 2.020 15.500 2.114 15.800 C 2.363 16.599,2.876 17.254,3.522 17.598 C 4.210 17.965,4.996 17.507,4.999 16.738 C 5.000 16.377,4.862 16.127,4.525 15.879 C 4.225 15.659,4.105 15.500,4.041 15.240 C 4.010 15.113,4.001 13.545,4.009 9.900 C 4.020 4.889,4.022 4.735,4.097 4.584 C 4.196 4.385,4.385 4.196,4.584 4.097 C 4.736 4.022,4.888 4.020,9.933 4.009 C 15.788 3.997,15.278 3.968,15.520 4.328 C 15.837 4.800,16.042 4.949,16.425 4.989 C 16.692 5.017,16.948 4.926,17.169 4.727 C 17.352 4.561,17.422 4.438,17.481 4.176 C 17.545 3.891,17.472 3.654,17.195 3.239 C 16.817 2.673,16.360 2.312,15.771 2.112 L 15.500 2.020 10.100 2.014 C 7.130 2.011,4.609 2.024,4.499 2.043 M9.280 6.025 C 8.674 6.120,8.289 6.241,7.898 6.460 C 7.160 6.872,6.519 7.609,6.245 8.360 C 6.005 9.018,6.020 8.636,6.020 14.000 C 6.020 19.364,6.005 18.982,6.245 19.640 C 6.581 20.559,7.441 21.419,8.360 21.755 C 9.018 21.995,8.636 21.980,14.000 21.980 C 19.364 21.980,18.982 21.995,19.640 21.755 C 20.559 21.419,21.419 20.559,21.755 19.640 C 21.995 18.982,21.980 19.364,21.980 14.000 C 21.980 8.636,21.995 9.018,21.755 8.360 C 21.419 7.442,20.564 6.586,19.640 6.244 C 19.009 6.011,19.326 6.024,14.140 6.016 C 11.522 6.013,9.335 6.017,9.280 6.025 M18.926 8.111 C 19.365 8.289,19.711 8.635,19.889 9.074 L 19.980 9.300 19.991 13.856 C 19.998 16.822,19.988 18.488,19.961 18.631 C 19.843 19.269,19.372 19.777,18.740 19.946 C 18.445 20.024,9.555 20.024,9.260 19.946 C 8.632 19.778,8.160 19.273,8.040 18.642 C 7.985 18.352,7.985 9.648,8.040 9.358 C 8.164 8.707,8.689 8.170,9.327 8.042 C 9.422 8.023,11.570 8.011,14.100 8.014 L 18.700 8.020 18.926 8.111 M13.695 10.057 C 13.466 10.129,13.256 10.299,13.128 10.516 L 13.020 10.700 13.008 11.850 L 12.995 13.000 11.944 13.000 C 10.797 13.000,10.643 13.022,10.382 13.221 C 10.302 13.282,10.187 13.415,10.128 13.516 C 10.037 13.672,10.020 13.746,10.020 14.000 C 10.020 14.256,10.036 14.328,10.131 14.489 C 10.192 14.592,10.304 14.725,10.381 14.783 C 10.642 14.983,10.738 14.996,11.908 14.998 L 12.995 15.000 13.008 16.153 L 13.020 17.307 13.141 17.503 C 13.543 18.156,14.457 18.156,14.859 17.503 L 14.980 17.307 14.992 16.153 L 15.005 15.000 16.092 14.998 C 17.262 14.996,17.358 14.983,17.619 14.783 C 17.696 14.725,17.808 14.592,17.869 14.489 C 17.964 14.328,17.980 14.256,17.980 14.000 C 17.980 13.746,17.963 13.672,17.872 13.516 C 17.813 13.415,17.698 13.282,17.618 13.221 C 17.357 13.022,17.203 13.000,16.056 13.000 L 15.005 13.000 14.992 11.850 L 14.980 10.700 14.872 10.516 C 14.628 10.101,14.150 9.915,13.695 10.057 " stroke="none" fill-rule="evenodd" fill="black"></path></svg>