<svg xmlns="http://www.w3.org/2000/svg" width="24" height="24" viewBox="0 0 24 24" fill="none" stroke="currentColor" stroke-width="2" stroke-linecap="round" stroke-linejoin="round"><path d="M11.358 5.061 C 9.731 5.315,8.417 6.584,8.083 8.227 C 8.002 8.621,8.000 8.749,8.000 12.604 L 8.000 16.576 6.770 15.354 C 5.688 14.279,5.516 14.124,5.343 14.066 C 4.863 13.905,4.382 14.084,4.128 14.516 C 4.036 14.672,4.020 14.745,4.021 15.000 C 4.021 15.212,4.043 15.341,4.095 15.440 C 4.195 15.632,8.295 19.739,8.520 19.873 C 8.672 19.964,8.746 19.980,9.000 19.980 C 9.254 19.980,9.328 19.964,9.480 19.873 C 9.705 19.739,13.805 15.632,13.905 15.440 C 13.957 15.341,13.979 15.212,13.979 15.000 C 13.980 14.745,13.964 14.672,13.872 14.516 C 13.618 14.084,13.137 13.905,12.657 14.066 C 12.484 14.124,12.312 14.279,11.230 15.354 L 10.000 16.576 10.002 12.658 C 10.004 9.088,10.011 8.717,10.073 8.477 C 10.201 7.988,10.543 7.546,11.014 7.265 C 11.458 6.999,11.437 7.000,14.988 6.998 C 17.550 6.997,18.210 6.986,18.330 6.943 C 18.551 6.864,18.744 6.702,18.869 6.489 C 18.964 6.328,18.980 6.256,18.980 6.000 C 18.980 5.746,18.963 5.672,18.872 5.516 C 18.740 5.293,18.533 5.128,18.290 5.055 C 18.028 4.976,11.867 4.982,11.358 5.061 " stroke="none" fill-rule="evenodd" fill="black"></path></svg>