<svg xmlns="http://www.w3.org/2000/svg" width="24" height="24" viewBox="0 0 24 24" fill="none" stroke="currentColor" stroke-width="2" stroke-linecap="round" stroke-linejoin="round"><path d="M5.695 5.057 C 5.466 5.129,5.256 5.299,5.128 5.516 L 5.020 5.700 5.009 9.029 C 4.999 12.270,5.000 12.370,5.082 12.768 C 5.357 14.119,6.247 15.194,7.512 15.704 C 7.700 15.779,8.028 15.877,8.243 15.921 C 8.616 15.997,8.799 16.000,12.605 16.000 L 16.578 16.000 15.374 17.210 C 14.711 17.876,14.136 18.483,14.095 18.560 C 14.043 18.659,14.021 18.787,14.021 19.000 C 14.020 19.258,14.036 19.327,14.133 19.492 C 14.263 19.714,14.502 19.901,14.736 19.965 C 14.939 20.019,15.267 19.989,15.445 19.899 C 15.629 19.807,19.738 15.705,19.873 15.480 C 19.964 15.328,19.980 15.254,19.980 15.000 C 19.980 14.746,19.963 14.672,19.873 14.520 C 19.813 14.419,18.834 13.412,17.653 12.235 C 15.748 10.338,15.521 10.124,15.343 10.065 C 14.862 9.906,14.382 10.084,14.128 10.516 C 14.036 10.672,14.020 10.745,14.021 11.000 C 14.021 11.213,14.043 11.341,14.095 11.440 C 14.136 11.517,14.711 12.124,15.374 12.790 L 16.578 14.000 12.658 14.000 C 8.414 14.000,8.525 14.005,8.088 13.784 C 7.675 13.575,7.242 13.071,7.090 12.623 C 7.028 12.440,7.020 12.095,7.001 9.060 L 6.980 5.700 6.872 5.516 C 6.628 5.101,6.150 4.915,5.695 5.057 " stroke="none" fill-rule="evenodd" fill="black"></path></svg>