<svg xmlns="http://www.w3.org/2000/svg" width="24" height="24" viewBox="0 0 24 24" fill="none" stroke="currentColor" stroke-width="2" stroke-linecap="round" stroke-linejoin="round"><path d="M14.670 4.061 C 14.448 4.142,14.250 4.309,14.128 4.516 C 14.036 4.672,14.020 4.745,14.021 5.000 C 14.021 5.213,14.043 5.341,14.095 5.440 C 14.136 5.517,14.711 6.124,15.374 6.790 L 16.578 8.000 12.679 8.000 C 8.503 8.000,8.328 8.008,7.755 8.204 C 6.366 8.679,5.372 9.805,5.082 11.232 C 5.000 11.630,4.999 11.730,5.009 14.974 L 5.020 18.306 5.141 18.503 C 5.543 19.156,6.457 19.156,6.859 18.503 L 6.980 18.306 7.001 14.943 C 7.024 11.185,7.007 11.406,7.314 10.937 C 7.508 10.642,7.712 10.446,8.014 10.265 C 8.465 9.994,8.362 10.000,12.687 10.000 L 16.578 10.000 15.374 11.210 C 14.711 11.876,14.138 12.481,14.101 12.555 C 13.872 13.009,14.056 13.601,14.508 13.867 C 14.673 13.964,14.743 13.980,15.000 13.980 C 15.254 13.980,15.328 13.964,15.480 13.873 C 15.705 13.739,19.805 9.632,19.905 9.440 C 19.957 9.341,19.979 9.212,19.979 9.000 C 19.980 8.745,19.964 8.673,19.873 8.520 C 19.813 8.419,18.834 7.412,17.653 6.235 C 15.748 4.338,15.521 4.124,15.343 4.065 C 15.107 3.987,14.874 3.986,14.670 4.061 " stroke="none" fill-rule="evenodd" fill="black"></path></svg>