<svg xmlns="http://www.w3.org/2000/svg" width="24" height="24" viewBox="0 0 24 24" fill="none" stroke="currentColor" stroke-width="2" stroke-linecap="round" stroke-linejoin="round"><path d="M18.695 4.057 C 18.466 4.129,18.256 4.299,18.128 4.516 L 18.020 4.700 17.999 8.060 C 17.980 11.090,17.971 11.440,17.910 11.623 C 17.759 12.070,17.326 12.574,16.912 12.784 C 16.491 12.997,16.454 13.000,13.842 13.000 L 11.422 13.000 12.626 11.790 C 13.289 11.125,13.864 10.517,13.905 10.440 C 13.957 10.341,13.979 10.213,13.979 10.000 C 13.980 9.745,13.964 9.672,13.872 9.516 C 13.618 9.084,13.138 8.906,12.657 9.065 C 12.479 9.124,12.250 9.340,10.326 11.255 C 8.001 13.569,8.001 13.569,8.001 14.000 C 8.001 14.429,8.004 14.433,10.306 16.726 C 11.469 17.884,12.481 18.862,12.555 18.899 C 13.010 19.128,13.601 18.944,13.867 18.492 C 13.964 18.327,13.980 18.258,13.979 18.000 C 13.979 17.787,13.957 17.659,13.905 17.560 C 13.864 17.483,13.289 16.875,12.626 16.210 L 11.422 15.000 13.895 15.000 C 16.204 15.000,16.393 14.995,16.757 14.921 C 18.386 14.589,19.589 13.384,19.921 11.753 C 19.999 11.374,20.001 11.230,19.991 8.029 L 19.980 4.700 19.872 4.516 C 19.628 4.101,19.150 3.915,18.695 4.057 M7.640 9.068 C 7.486 9.121,7.151 9.438,5.347 11.235 C 4.166 12.411,3.187 13.419,3.127 13.520 C 3.037 13.672,3.020 13.746,3.020 14.000 C 3.020 14.254,3.036 14.328,3.127 14.480 C 3.261 14.705,7.368 18.805,7.560 18.905 C 7.659 18.957,7.788 18.979,8.000 18.979 C 8.258 18.980,8.327 18.964,8.492 18.867 C 8.714 18.737,8.901 18.498,8.965 18.264 C 9.019 18.061,8.989 17.733,8.899 17.555 C 8.862 17.481,8.064 16.651,7.126 15.710 L 5.421 14.000 7.126 12.290 C 8.064 11.350,8.865 10.517,8.905 10.440 C 8.957 10.341,8.979 10.212,8.979 10.000 C 8.980 9.745,8.964 9.672,8.872 9.516 C 8.617 9.083,8.121 8.903,7.640 9.068 " stroke="none" fill-rule="evenodd" fill="black"></path></svg>