<svg xmlns="http://www.w3.org/2000/svg" width="24" height="24" viewBox="0 0 24 24" fill="none" stroke="currentColor" stroke-width="2" stroke-linecap="round" stroke-linejoin="round"><path d="M8.640 3.068 C 8.486 3.121,8.151 3.438,6.347 5.235 C 5.185 6.393,4.189 7.416,4.134 7.508 C 3.862 7.968,4.032 8.587,4.508 8.867 C 4.673 8.964,4.742 8.980,5.000 8.979 C 5.212 8.979,5.341 8.957,5.440 8.905 C 5.517 8.865,6.350 8.064,7.290 7.126 L 9.000 5.421 10.710 7.126 C 11.650 8.064,12.483 8.865,12.560 8.905 C 12.659 8.957,12.788 8.979,13.000 8.979 C 13.258 8.980,13.327 8.964,13.492 8.867 C 13.968 8.587,14.138 7.968,13.866 7.508 C 13.811 7.416,12.815 6.393,11.653 5.235 C 9.748 3.338,9.521 3.124,9.343 3.065 C 9.102 2.985,8.878 2.986,8.640 3.068 M8.580 8.096 C 8.422 8.172,7.940 8.634,6.274 10.306 C 5.116 11.469,4.138 12.481,4.101 12.555 C 3.872 13.010,4.056 13.601,4.508 13.867 C 4.673 13.964,4.742 13.980,5.000 13.979 C 5.213 13.979,5.341 13.957,5.440 13.905 C 5.517 13.864,6.125 13.289,6.790 12.626 L 8.000 11.422 8.000 13.895 C 8.000 16.236,8.004 16.389,8.083 16.773 C 8.311 17.892,8.985 18.851,9.956 19.436 C 10.285 19.635,10.810 19.832,11.243 19.921 C 11.613 19.996,11.794 20.000,14.906 19.998 C 17.536 19.997,18.210 19.986,18.330 19.943 C 18.551 19.864,18.744 19.702,18.869 19.489 C 18.964 19.328,18.980 19.256,18.980 19.000 C 18.980 18.746,18.963 18.672,18.872 18.516 C 18.813 18.415,18.698 18.282,18.618 18.221 C 18.324 17.997,18.378 18.000,14.922 18.000 C 11.474 18.000,11.519 18.003,11.083 17.781 C 10.816 17.646,10.449 17.297,10.281 17.017 C 10.007 16.562,10.005 16.541,10.002 13.841 L 10.000 11.422 11.210 12.626 C 11.876 13.289,12.483 13.864,12.560 13.905 C 12.659 13.957,12.787 13.979,13.000 13.979 C 13.258 13.980,13.327 13.964,13.492 13.867 C 13.714 13.737,13.901 13.498,13.965 13.264 C 14.019 13.061,13.989 12.733,13.899 12.555 C 13.862 12.481,12.884 11.469,11.726 10.306 C 9.433 8.004,9.429 8.001,9.000 8.001 C 8.851 8.001,8.716 8.031,8.580 8.096 " stroke="none" fill-rule="evenodd" fill="black"></path></svg>