<svg xmlns="http://www.w3.org/2000/svg" width="24" height="24" viewBox="0 0 24 24" fill="none" stroke="currentColor" stroke-width="2" stroke-linecap="round" stroke-linejoin="round"><path d="M14.640 4.068 C 14.486 4.121,14.151 4.438,12.347 6.235 C 11.185 7.393,10.189 8.416,10.134 8.508 C 9.862 8.968,10.032 9.587,10.508 9.867 C 10.673 9.964,10.742 9.980,11.000 9.979 C 11.213 9.979,11.341 9.957,11.440 9.905 C 11.517 9.864,12.125 9.289,12.790 8.626 L 14.000 7.422 13.999 11.301 C 13.999 15.527,14.000 15.505,13.772 15.931 C 13.625 16.208,13.191 16.643,12.930 16.775 C 12.479 17.004,12.539 17.000,9.078 17.000 C 5.622 17.000,5.676 16.997,5.382 17.221 C 5.302 17.282,5.187 17.415,5.128 17.516 C 5.037 17.672,5.020 17.746,5.020 18.000 C 5.020 18.256,5.036 18.328,5.131 18.489 C 5.256 18.702,5.449 18.864,5.670 18.943 C 5.790 18.986,6.464 18.997,9.094 18.998 C 12.206 19.000,12.387 18.996,12.757 18.921 C 14.384 18.589,15.589 17.384,15.921 15.757 C 15.997 15.384,16.000 15.201,16.000 11.395 L 16.000 7.422 17.210 8.626 C 17.875 9.289,18.483 9.864,18.560 9.905 C 18.659 9.957,18.787 9.979,19.000 9.979 C 19.258 9.980,19.327 9.964,19.492 9.867 C 19.968 9.587,20.138 8.968,19.866 8.508 C 19.811 8.416,18.815 7.393,17.653 6.235 C 15.748 4.338,15.521 4.124,15.343 4.065 C 15.102 3.985,14.878 3.986,14.640 4.068 " stroke="none" fill-rule="evenodd" fill="black"></path></svg>