<svg xmlns="http://www.w3.org/2000/svg" width="24" height="24" viewBox="0 0 24 24" fill="none" stroke="currentColor" stroke-width="2" stroke-linecap="round" stroke-linejoin="round"><path d="M4.695 3.057 C 4.466 3.129,4.256 3.299,4.128 3.516 C 4.037 3.672,4.020 3.746,4.020 4.000 C 4.020 4.256,4.036 4.328,4.131 4.489 C 4.256 4.702,4.449 4.864,4.670 4.943 C 4.790 4.986,5.459 4.997,8.040 5.001 C 11.630 5.005,11.549 4.999,12.017 5.281 C 12.294 5.448,12.618 5.787,12.772 6.071 C 12.989 6.472,12.999 6.603,12.999 9.198 L 13.000 11.576 11.770 10.354 C 10.688 9.279,10.516 9.124,10.343 9.066 C 9.863 8.905,9.382 9.084,9.128 9.516 C 9.036 9.672,9.020 9.745,9.021 10.000 C 9.021 10.212,9.043 10.341,9.095 10.440 C 9.135 10.517,10.116 11.531,11.274 12.694 C 13.567 14.996,13.571 14.999,14.000 14.999 C 14.429 14.999,14.433 14.996,16.726 12.694 C 17.884 11.531,18.865 10.517,18.905 10.440 C 18.957 10.341,18.979 10.212,18.979 10.000 C 18.980 9.745,18.964 9.672,18.872 9.516 C 18.618 9.084,18.137 8.905,17.657 9.066 C 17.484 9.124,17.312 9.279,16.230 10.354 L 15.000 11.576 15.000 9.104 C 15.000 6.336,14.991 6.223,14.705 5.516 C 14.172 4.197,13.001 3.269,11.605 3.058 C 11.071 2.978,4.951 2.977,4.695 3.057 M9.670 14.061 C 9.448 14.142,9.250 14.309,9.128 14.516 C 9.037 14.672,9.020 14.746,9.020 15.000 C 9.020 15.254,9.036 15.328,9.127 15.480 C 9.261 15.705,13.368 19.805,13.560 19.905 C 13.660 19.957,13.787 19.978,14.000 19.978 C 14.213 19.978,14.340 19.957,14.440 19.905 C 14.632 19.805,18.739 15.705,18.873 15.480 C 18.964 15.328,18.980 15.254,18.980 15.000 C 18.980 14.746,18.963 14.672,18.872 14.516 C 18.618 14.084,18.137 13.906,17.657 14.066 C 17.481 14.124,17.279 14.312,15.730 15.854 L 14.000 17.577 12.270 15.854 C 10.721 14.312,10.519 14.124,10.343 14.066 C 10.108 13.987,9.875 13.986,9.670 14.061 " stroke="none" fill-rule="evenodd" fill="black"></path></svg>