<svg xmlns="http://www.w3.org/2000/svg" width="24" height="24" viewBox="0 0 24 24" fill="none" stroke="currentColor" stroke-width="2" stroke-linecap="round" stroke-linejoin="round"><path d="M9.695 2.057 C 9.466 2.129,9.256 2.299,9.128 2.516 C 9.025 2.692,9.019 2.728,9.007 3.350 L 8.993 4.000 7.367 4.002 C 5.545 4.005,5.416 4.020,4.983 4.281 C 4.703 4.449,4.354 4.816,4.219 5.083 C 4.011 5.492,4.000 5.610,4.000 7.368 L 4.000 9.000 3.446 9.000 C 2.648 9.000,2.367 9.110,2.128 9.516 C 2.037 9.672,2.020 9.746,2.020 10.000 C 2.020 10.256,2.036 10.328,2.131 10.489 C 2.256 10.702,2.449 10.864,2.670 10.943 C 2.768 10.978,3.023 10.997,3.410 10.998 L 4.000 11.000 4.000 12.000 L 4.000 13.000 3.446 13.000 C 2.648 13.000,2.367 13.110,2.128 13.516 C 2.037 13.672,2.020 13.746,2.020 14.000 C 2.020 14.256,2.036 14.328,2.131 14.489 C 2.256 14.702,2.449 14.864,2.670 14.943 C 2.768 14.978,3.023 14.997,3.410 14.998 L 4.000 15.000 4.000 16.632 C 4.000 18.399,4.010 18.507,4.225 18.930 C 4.361 19.199,4.801 19.639,5.070 19.775 C 5.493 19.989,5.601 20.000,7.365 20.000 L 8.993 20.000 9.007 20.653 C 9.020 21.300,9.021 21.308,9.141 21.503 C 9.209 21.613,9.346 21.756,9.452 21.828 C 9.923 22.144,10.554 21.999,10.859 21.503 C 10.979 21.308,10.980 21.300,10.993 20.653 L 11.007 20.000 12.000 20.000 L 12.993 20.000 13.007 20.653 C 13.020 21.300,13.021 21.308,13.141 21.503 C 13.543 22.156,14.457 22.156,14.859 21.503 C 14.979 21.308,14.980 21.300,14.993 20.653 L 15.007 20.000 16.635 20.000 C 18.399 20.000,18.507 19.989,18.930 19.775 C 19.196 19.640,19.638 19.200,19.771 18.937 C 19.988 18.510,20.000 18.386,20.000 16.624 L 20.000 15.000 20.590 14.998 C 20.977 14.997,21.232 14.978,21.330 14.943 C 21.551 14.864,21.744 14.702,21.869 14.489 C 21.964 14.328,21.980 14.256,21.980 14.000 C 21.980 13.746,21.963 13.672,21.872 13.516 C 21.633 13.110,21.352 13.000,20.554 13.000 L 20.000 13.000 20.000 12.000 L 20.000 11.000 20.590 10.998 C 20.977 10.997,21.232 10.978,21.330 10.943 C 21.551 10.864,21.744 10.702,21.869 10.489 C 21.964 10.328,21.980 10.256,21.980 10.000 C 21.980 9.746,21.963 9.672,21.872 9.516 C 21.633 9.110,21.352 9.000,20.554 9.000 L 20.000 9.000 19.999 7.390 C 19.999 5.652,19.982 5.479,19.781 5.083 C 19.646 4.816,19.297 4.449,19.017 4.281 C 18.584 4.020,18.455 4.005,16.633 4.002 L 15.007 4.000 14.993 3.350 C 14.981 2.726,14.976 2.693,14.871 2.514 C 14.479 1.848,13.521 1.848,13.129 2.514 C 13.024 2.693,13.019 2.726,13.007 3.350 L 12.993 4.000 12.000 4.000 L 11.007 4.000 10.993 3.350 C 10.981 2.728,10.975 2.692,10.872 2.516 C 10.628 2.101,10.150 1.915,9.695 2.057 M18.000 12.000 L 18.000 18.000 12.000 18.000 L 6.000 18.000 6.000 12.000 L 6.000 6.000 12.000 6.000 L 18.000 6.000 18.000 12.000 M7.695 7.057 C 7.466 7.129,7.256 7.299,7.128 7.516 L 7.020 7.700 7.020 9.003 L 7.020 10.306 7.141 10.503 C 7.543 11.156,8.457 11.156,8.859 10.503 C 8.979 10.308,8.980 10.300,8.993 9.653 L 9.007 9.000 9.593 8.998 C 9.978 8.997,10.232 8.978,10.330 8.943 C 10.551 8.864,10.744 8.702,10.869 8.489 C 10.964 8.328,10.980 8.256,10.980 8.000 C 10.980 7.746,10.963 7.672,10.872 7.516 C 10.740 7.293,10.533 7.128,10.290 7.055 C 10.039 6.979,7.937 6.981,7.695 7.057 M13.695 7.057 C 13.466 7.129,13.256 7.299,13.128 7.516 C 13.037 7.672,13.020 7.746,13.020 8.000 C 13.020 8.256,13.036 8.328,13.131 8.489 C 13.256 8.702,13.449 8.864,13.670 8.943 C 13.768 8.978,14.022 8.997,14.407 8.998 L 14.993 9.000 15.007 9.653 C 15.020 10.300,15.021 10.308,15.141 10.503 C 15.543 11.156,16.457 11.156,16.859 10.503 L 16.980 10.306 16.980 9.003 L 16.980 7.700 16.872 7.516 C 16.740 7.293,16.533 7.128,16.290 7.055 C 16.039 6.979,13.937 6.981,13.695 7.057 M7.695 13.057 C 7.466 13.129,7.256 13.299,7.128 13.516 L 7.020 13.700 7.020 15.000 L 7.020 16.300 7.131 16.489 C 7.256 16.702,7.449 16.864,7.670 16.943 C 7.885 17.020,10.115 17.020,10.330 16.943 C 10.551 16.864,10.744 16.702,10.869 16.489 C 10.964 16.328,10.980 16.256,10.980 16.000 C 10.980 15.746,10.963 15.672,10.872 15.516 C 10.634 15.111,10.352 15.000,9.557 15.000 L 9.007 15.000 8.993 14.350 C 8.981 13.728,8.975 13.692,8.872 13.516 C 8.628 13.101,8.150 12.915,7.695 13.057 M15.695 13.057 C 15.466 13.129,15.256 13.299,15.128 13.516 C 15.025 13.692,15.019 13.728,15.007 14.350 L 14.993 15.000 14.443 15.000 C 13.648 15.000,13.366 15.111,13.128 15.516 C 13.037 15.672,13.020 15.746,13.020 16.000 C 13.020 16.256,13.036 16.328,13.131 16.489 C 13.192 16.592,13.304 16.725,13.381 16.783 C 13.646 16.985,13.730 16.996,15.000 16.996 C 16.270 16.996,16.354 16.985,16.619 16.783 C 16.696 16.725,16.808 16.592,16.869 16.489 L 16.980 16.300 16.980 15.000 L 16.980 13.700 16.872 13.516 C 16.628 13.101,16.150 12.915,15.695 13.057 " stroke="none" fill-rule="evenodd" fill="black"></path></svg>