<svg xmlns="http://www.w3.org/2000/svg" width="24" height="24" viewBox="0 0 24 24" fill="none" stroke="currentColor" stroke-width="2" stroke-linecap="round" stroke-linejoin="round"><path d="M9.695 2.057 C 9.466 2.129,9.256 2.299,9.128 2.516 C 9.025 2.692,9.019 2.728,9.007 3.350 L 8.993 4.000 7.367 4.002 C 5.545 4.005,5.416 4.020,4.983 4.281 C 4.703 4.449,4.354 4.816,4.219 5.083 C 4.011 5.492,4.000 5.610,4.000 7.368 L 4.000 9.000 3.446 9.000 C 2.648 9.000,2.367 9.110,2.128 9.516 C 2.037 9.672,2.020 9.746,2.020 10.000 C 2.020 10.256,2.036 10.328,2.131 10.489 C 2.256 10.702,2.449 10.864,2.670 10.943 C 2.768 10.978,3.023 10.997,3.410 10.998 L 4.000 11.000 4.000 12.000 L 4.000 13.000 3.446 13.000 C 2.648 13.000,2.367 13.110,2.128 13.516 C 2.037 13.672,2.020 13.746,2.020 14.000 C 2.020 14.256,2.036 14.328,2.131 14.489 C 2.256 14.702,2.449 14.864,2.670 14.943 C 2.768 14.978,3.023 14.997,3.410 14.998 L 4.000 15.000 4.000 16.632 C 4.000 18.399,4.010 18.507,4.225 18.930 C 4.361 19.199,4.801 19.639,5.070 19.775 C 5.493 19.989,5.601 20.000,7.365 20.000 L 8.993 20.000 9.007 20.653 C 9.020 21.300,9.021 21.308,9.141 21.503 C 9.209 21.613,9.346 21.756,9.452 21.828 C 9.923 22.144,10.554 21.999,10.859 21.503 C 10.979 21.308,10.980 21.300,10.993 20.653 L 11.007 20.000 12.000 20.000 L 12.993 20.000 13.007 20.653 C 13.020 21.300,13.021 21.308,13.141 21.503 C 13.543 22.156,14.457 22.156,14.859 21.503 C 14.979 21.308,14.980 21.300,14.993 20.653 L 15.007 20.000 16.635 20.000 C 18.399 20.000,18.507 19.989,18.930 19.775 C 19.196 19.640,19.638 19.200,19.771 18.937 C 19.988 18.510,20.000 18.386,20.000 16.624 L 20.000 15.000 20.590 14.998 C 20.977 14.997,21.232 14.978,21.330 14.943 C 21.551 14.864,21.744 14.702,21.869 14.489 C 21.964 14.328,21.980 14.256,21.980 14.000 C 21.980 13.746,21.963 13.672,21.872 13.516 C 21.633 13.110,21.352 13.000,20.554 13.000 L 20.000 13.000 20.000 12.000 L 20.000 11.000 20.590 10.998 C 20.977 10.997,21.232 10.978,21.330 10.943 C 21.551 10.864,21.744 10.702,21.869 10.489 C 21.964 10.328,21.980 10.256,21.980 10.000 C 21.980 9.746,21.963 9.672,21.872 9.516 C 21.633 9.110,21.352 9.000,20.554 9.000 L 20.000 9.000 19.999 7.390 C 19.999 5.652,19.982 5.479,19.781 5.083 C 19.646 4.816,19.297 4.449,19.017 4.281 C 18.584 4.020,18.455 4.005,16.633 4.002 L 15.007 4.000 14.993 3.350 C 14.981 2.726,14.976 2.693,14.871 2.514 C 14.479 1.848,13.521 1.848,13.129 2.514 C 13.024 2.693,13.019 2.726,13.007 3.350 L 12.993 4.000 12.000 4.000 L 11.007 4.000 10.993 3.350 C 10.981 2.728,10.975 2.692,10.872 2.516 C 10.628 2.101,10.150 1.915,9.695 2.057 M18.000 12.000 L 18.000 18.000 12.000 18.000 L 6.000 18.000 6.000 12.000 L 6.000 6.000 12.000 6.000 L 18.000 6.000 18.000 12.000 M8.695 8.057 C 8.466 8.129,8.256 8.299,8.128 8.516 L 8.020 8.700 8.020 12.000 L 8.020 15.300 8.131 15.489 C 8.256 15.702,8.449 15.864,8.670 15.943 C 8.891 16.022,15.109 16.022,15.330 15.943 C 15.551 15.864,15.744 15.702,15.869 15.489 L 15.980 15.300 15.980 12.000 L 15.980 8.700 15.872 8.516 C 15.740 8.293,15.533 8.128,15.290 8.055 C 15.030 7.977,8.945 7.979,8.695 8.057 M14.000 12.000 L 14.000 14.000 12.000 14.000 L 10.000 14.000 10.000 12.000 L 10.000 10.000 12.000 10.000 L 14.000 10.000 14.000 12.000 " stroke="none" fill-rule="evenodd" fill="black"></path></svg>