<svg xmlns="http://www.w3.org/2000/svg" width="24" height="24" viewBox="0 0 24 24" fill="none" stroke="currentColor" stroke-width="2" stroke-linecap="round" stroke-linejoin="round"><path d="M2.670 2.061 C 2.448 2.142,2.250 2.309,2.128 2.516 C 2.036 2.672,2.020 2.745,2.021 3.000 C 2.021 3.213,2.043 3.341,2.095 3.440 C 2.136 3.517,2.711 4.125,3.374 4.790 L 4.578 6.000 3.374 7.210 C 2.711 7.875,2.136 8.483,2.095 8.560 C 2.043 8.659,2.021 8.787,2.021 9.000 C 2.020 9.255,2.036 9.328,2.128 9.484 C 2.187 9.585,2.300 9.716,2.377 9.775 C 2.677 10.004,2.627 10.000,5.425 10.000 L 8.000 10.000 8.000 15.000 L 8.000 20.000 6.946 20.000 C 5.797 20.000,5.644 20.022,5.382 20.221 C 5.302 20.282,5.187 20.415,5.128 20.516 C 5.037 20.672,5.020 20.746,5.020 21.000 C 5.020 21.256,5.036 21.328,5.131 21.489 C 5.256 21.702,5.449 21.864,5.670 21.943 C 5.891 22.022,12.109 22.022,12.330 21.943 C 12.551 21.864,12.744 21.702,12.869 21.489 C 12.964 21.328,12.980 21.256,12.980 21.000 C 12.980 20.746,12.963 20.672,12.872 20.516 C 12.813 20.415,12.698 20.282,12.618 20.221 C 12.356 20.022,12.203 20.000,11.054 20.000 L 10.000 20.000 10.000 15.710 L 10.000 11.420 12.010 13.431 L 14.020 15.441 14.089 15.730 C 14.335 16.760,15.228 17.652,16.273 17.914 L 16.566 17.987 18.493 19.910 C 19.553 20.967,20.483 21.865,20.560 21.905 C 20.659 21.957,20.788 21.979,21.000 21.979 C 21.258 21.980,21.327 21.964,21.492 21.867 C 21.968 21.587,22.139 20.967,21.865 20.508 C 21.810 20.416,17.665 16.243,12.653 11.235 C 4.231 2.820,3.525 2.125,3.343 2.065 C 3.107 1.987,2.874 1.986,2.670 2.061 M8.580 2.096 C 8.437 2.164,8.208 2.365,7.775 2.805 C 7.442 3.143,7.136 3.483,7.096 3.560 C 7.043 3.660,7.021 3.786,7.021 4.003 C 7.020 4.271,7.034 4.329,7.141 4.503 C 7.287 4.740,7.577 4.946,7.817 4.982 C 7.987 5.007,7.993 5.013,8.018 5.179 C 8.053 5.417,8.245 5.699,8.465 5.839 C 9.107 6.247,9.928 5.827,9.990 5.060 C 10.004 4.890,10.027 4.802,10.056 4.813 C 10.080 4.823,11.288 5.544,12.740 6.415 L 15.380 8.000 14.136 8.000 C 12.783 8.000,12.650 8.017,12.382 8.221 C 12.302 8.282,12.187 8.415,12.128 8.516 C 12.037 8.672,12.020 8.746,12.020 9.000 C 12.020 9.256,12.036 9.328,12.131 9.489 C 12.192 9.592,12.304 9.725,12.381 9.783 C 12.654 9.991,12.700 9.996,14.410 9.998 L 16.000 10.000 16.002 11.590 C 16.004 13.300,16.009 13.346,16.217 13.619 C 16.379 13.832,16.623 13.955,16.972 13.999 C 17.355 14.048,17.509 14.112,17.699 14.301 C 17.889 14.491,17.952 14.645,18.001 15.031 C 18.049 15.410,18.184 15.647,18.452 15.828 C 18.923 16.144,19.554 15.998,19.859 15.503 C 19.974 15.315,19.980 15.285,19.978 14.883 C 19.977 14.559,19.955 14.390,19.885 14.160 C 19.639 13.360,19.079 12.694,18.330 12.313 L 18.000 12.145 18.000 11.073 L 18.000 10.000 19.590 9.998 C 21.300 9.996,21.346 9.991,21.619 9.783 C 21.696 9.725,21.808 9.592,21.869 9.489 C 21.964 9.328,21.980 9.256,21.980 9.000 C 21.980 8.746,21.963 8.672,21.872 8.516 C 21.813 8.415,21.698 8.282,21.618 8.221 C 21.362 8.026,21.193 8.000,20.190 8.000 L 19.273 8.000 14.343 5.041 C 11.631 3.414,9.364 2.064,9.304 2.041 C 9.114 1.969,8.796 1.993,8.580 2.096 M6.300 7.720 L 6.578 8.000 6.000 8.000 L 5.422 8.000 5.700 7.720 C 5.853 7.566,5.988 7.440,6.000 7.440 C 6.012 7.440,6.147 7.566,6.300 7.720 " stroke="none" fill-rule="evenodd" fill="black"></path></svg>