<svg xmlns="http://www.w3.org/2000/svg" width="24" height="24" viewBox="0 0 24 24" fill="none" stroke="currentColor" stroke-width="2" stroke-linecap="round" stroke-linejoin="round"><path d="M9.695 2.057 C 9.466 2.129,9.256 2.299,9.128 2.516 L 9.020 2.700 9.009 4.850 L 8.997 7.000 6.945 7.000 C 4.718 7.000,4.666 7.004,4.382 7.221 C 4.302 7.282,4.187 7.415,4.128 7.516 L 4.020 7.700 4.020 10.000 L 4.020 12.300 4.131 12.489 C 4.256 12.702,4.449 12.864,4.670 12.943 C 4.788 12.985,5.269 12.997,6.910 12.998 L 9.000 13.000 9.002 17.090 C 9.003 20.402,9.014 21.209,9.057 21.330 C 9.136 21.551,9.298 21.744,9.511 21.869 L 9.700 21.980 12.000 21.980 L 14.300 21.980 14.489 21.869 C 14.702 21.744,14.864 21.551,14.943 21.330 C 14.986 21.209,14.997 20.402,14.998 17.090 L 15.000 13.000 17.090 12.998 C 18.731 12.997,19.212 12.985,19.330 12.943 C 19.551 12.864,19.744 12.702,19.869 12.489 L 19.980 12.300 19.980 10.000 L 19.980 7.700 19.872 7.516 C 19.813 7.415,19.698 7.282,19.618 7.221 C 19.334 7.004,19.282 7.000,17.055 7.000 L 15.003 7.000 14.991 4.850 L 14.980 2.700 14.872 2.516 C 14.740 2.293,14.533 2.128,14.290 2.055 C 14.033 1.978,9.943 1.979,9.695 2.057 M13.002 6.090 C 13.003 7.731,13.015 8.212,13.057 8.330 C 13.136 8.551,13.298 8.744,13.511 8.869 L 13.700 8.980 15.850 8.991 L 18.000 9.003 18.000 10.001 L 18.000 11.000 15.946 11.000 C 13.717 11.000,13.666 11.004,13.382 11.221 C 13.302 11.282,13.187 11.415,13.128 11.516 L 13.020 11.700 13.009 15.850 L 12.999 20.000 12.000 20.000 L 11.001 20.000 10.991 15.850 L 10.980 11.700 10.872 11.516 C 10.813 11.415,10.698 11.282,10.618 11.221 C 10.334 11.004,10.283 11.000,8.054 11.000 L 6.000 11.000 6.000 10.001 L 6.000 9.003 8.150 8.991 L 10.300 8.980 10.489 8.869 C 10.702 8.744,10.864 8.551,10.943 8.330 C 10.985 8.212,10.997 7.731,10.998 6.090 L 11.000 4.000 12.000 4.000 L 13.000 4.000 13.002 6.090 " stroke="none" fill-rule="evenodd" fill="black"></path></svg>