<svg xmlns="http://www.w3.org/2000/svg" width="24" height="24" viewBox="0 0 24 24" fill="none" stroke="currentColor" stroke-width="2" stroke-linecap="round" stroke-linejoin="round"><path d="M2.670 2.061 C 2.448 2.142,2.250 2.309,2.128 2.516 C 2.036 2.672,2.020 2.745,2.021 3.000 C 2.021 3.212,2.043 3.341,2.095 3.440 C 2.135 3.517,3.704 5.119,5.581 7.000 L 8.995 10.420 9.011 11.580 C 9.025 12.604,9.037 12.776,9.111 13.047 C 9.270 13.626,9.441 13.956,10.093 14.937 C 10.444 15.467,10.772 15.992,10.823 16.104 C 10.981 16.460,11.000 16.698,11.000 18.381 L 11.000 19.987 10.786 20.035 C 10.515 20.096,10.270 20.275,10.129 20.514 C 10.036 20.672,10.020 20.745,10.020 21.000 C 10.020 21.256,10.036 21.328,10.131 21.489 C 10.256 21.702,10.449 21.864,10.670 21.943 C 10.885 22.020,13.115 22.020,13.330 21.943 C 13.551 21.864,13.744 21.702,13.869 21.489 C 13.964 21.328,13.980 21.256,13.980 21.000 C 13.980 20.745,13.964 20.672,13.871 20.514 C 13.730 20.274,13.485 20.096,13.212 20.035 L 12.995 19.986 13.008 18.243 C 13.020 16.555,13.023 16.493,13.109 16.264 C 13.190 16.051,13.502 15.514,13.686 15.273 L 13.757 15.180 17.089 18.506 C 18.921 20.335,20.483 21.865,20.560 21.905 C 20.659 21.957,20.788 21.979,21.000 21.979 C 21.258 21.980,21.327 21.964,21.492 21.867 C 21.968 21.587,22.139 20.967,21.865 20.508 C 21.810 20.416,17.665 16.243,12.653 11.235 C 4.231 2.820,3.525 2.125,3.343 2.065 C 3.107 1.987,2.874 1.986,2.670 2.061 M9.540 2.043 C 8.967 2.126,8.425 2.394,7.972 2.816 C 7.557 3.203,7.247 3.688,7.182 4.052 C 7.148 4.250,7.242 4.576,7.396 4.788 C 7.773 5.309,8.628 5.283,8.984 4.740 C 9.264 4.312,9.345 4.222,9.539 4.122 L 9.738 4.020 11.915 4.009 C 14.415 3.996,14.387 3.993,14.696 4.303 C 14.970 4.577,15.057 4.919,14.945 5.290 C 14.872 5.533,14.707 5.740,14.484 5.872 L 14.300 5.980 12.520 6.001 C 11.232 6.015,10.709 6.035,10.627 6.071 C 10.429 6.158,10.239 6.327,10.128 6.516 C 10.037 6.672,10.020 6.746,10.020 7.000 C 10.020 7.256,10.036 7.328,10.131 7.489 C 10.192 7.592,10.304 7.725,10.381 7.783 C 10.642 7.983,10.738 7.996,11.908 7.998 L 12.995 8.000 13.008 9.153 L 13.020 10.307 13.141 10.503 C 13.543 11.156,14.457 11.156,14.859 10.503 L 14.980 10.307 15.000 9.076 L 15.020 7.845 15.340 7.684 C 16.072 7.314,16.637 6.640,16.886 5.840 C 17.021 5.406,17.021 4.594,16.886 4.160 C 16.582 3.182,15.829 2.425,14.861 2.122 L 14.540 2.022 12.160 2.015 C 10.851 2.011,9.672 2.024,9.540 2.043 M12.171 13.946 C 12.093 14.064,12.015 14.160,11.999 14.160 C 11.954 14.160,11.255 13.081,11.168 12.878 C 10.971 12.415,11.004 12.429,11.674 13.096 L 12.313 13.732 12.171 13.946 " stroke="none" fill-rule="evenodd" fill="black"></path></svg>