<svg xmlns="http://www.w3.org/2000/svg" width="24" height="24" viewBox="0 0 24 24" fill="none" stroke="currentColor" stroke-width="2" stroke-linecap="round" stroke-linejoin="round"><path d="M11.400 2.024 C 10.140 2.134,9.199 2.374,8.229 2.832 C 5.800 3.979,4.078 5.995,3.342 8.553 C 2.958 9.886,2.896 11.351,3.166 12.700 C 3.441 14.074,4.000 15.349,4.772 16.364 L 5.046 16.726 4.901 16.867 C 4.523 17.234,4.278 17.637,4.114 18.161 C 3.979 18.593,3.979 19.406,4.114 19.840 C 4.421 20.826,5.173 21.578,6.160 21.886 L 6.460 21.980 12.000 21.980 L 17.540 21.980 17.840 21.886 C 18.827 21.578,19.579 20.826,19.886 19.840 C 20.021 19.406,20.021 18.593,19.886 18.161 C 19.722 17.637,19.477 17.234,19.099 16.867 L 18.954 16.726 19.228 16.364 C 20.166 15.130,20.782 13.525,20.963 11.846 C 21.028 11.236,20.990 10.120,20.883 9.520 C 20.598 7.915,19.895 6.403,18.867 5.177 C 17.488 3.533,15.310 2.343,13.200 2.081 C 12.828 2.035,11.687 1.999,11.400 2.024 M12.686 4.040 C 13.548 4.125,14.347 4.352,15.090 4.725 C 17.410 5.889,18.867 8.124,18.986 10.700 C 19.069 12.488,18.442 14.259,17.242 15.630 L 16.918 16.000 12.004 16.000 L 7.091 16.000 6.914 15.810 C 4.388 13.092,4.373 8.904,6.879 6.230 C 8.376 4.633,10.512 3.828,12.686 4.040 M10.358 6.061 C 8.725 6.316,7.421 7.580,7.079 9.241 C 6.959 9.826,6.980 10.241,7.144 10.508 C 7.539 11.150,8.458 11.154,8.851 10.515 C 8.943 10.366,8.972 10.258,9.001 9.955 C 9.021 9.749,9.063 9.495,9.094 9.390 C 9.219 8.979,9.536 8.573,9.937 8.313 C 10.231 8.122,10.474 8.047,10.952 8.001 C 11.238 7.974,11.365 7.941,11.503 7.860 C 12.248 7.424,12.115 6.303,11.290 6.055 C 11.069 5.989,10.812 5.990,10.358 6.061 M17.310 18.061 C 17.688 18.173,18.000 18.598,18.000 19.001 C 18.000 19.331,17.784 19.696,17.484 19.872 L 17.300 19.980 12.000 19.980 L 6.700 19.980 6.516 19.872 C 5.935 19.530,5.833 18.774,6.304 18.303 C 6.621 17.985,6.234 18.006,11.983 18.003 C 16.458 18.000,17.131 18.008,17.310 18.061 " stroke="none" fill-rule="evenodd" fill="black"></path></svg>