<svg xmlns="http://www.w3.org/2000/svg" width="24" height="24" viewBox="0 0 24 24" fill="none" stroke="currentColor" stroke-width="2" stroke-linecap="round" stroke-linejoin="round"><path d="M4.499 7.040 C 3.363 7.246,2.461 8.048,2.114 9.160 L 2.020 9.460 2.020 12.000 L 2.020 14.540 2.114 14.840 C 2.422 15.827,3.174 16.579,4.160 16.886 C 4.594 17.021,5.406 17.021,5.840 16.886 C 6.827 16.579,7.584 15.821,7.885 14.840 C 7.955 14.611,7.977 14.440,7.978 14.120 C 7.980 13.733,7.971 13.686,7.871 13.514 C 7.568 12.998,6.883 12.854,6.405 13.205 C 6.169 13.379,6.047 13.609,6.002 13.966 C 5.981 14.130,5.945 14.314,5.922 14.375 C 5.851 14.561,5.677 14.758,5.484 14.872 C 5.328 14.963,5.254 14.980,5.000 14.980 C 4.746 14.980,4.672 14.963,4.516 14.872 C 4.303 14.747,4.141 14.550,4.058 14.316 C 3.970 14.065,3.972 9.988,4.061 9.690 C 4.173 9.312,4.598 9.000,5.000 9.000 C 5.223 9.000,5.510 9.120,5.679 9.283 C 5.886 9.485,5.951 9.636,6.001 10.031 C 6.049 10.410,6.184 10.647,6.452 10.828 C 6.923 11.144,7.554 10.998,7.859 10.503 C 7.974 10.315,7.980 10.285,7.978 9.883 C 7.977 9.559,7.955 9.390,7.885 9.160 C 7.586 8.184,6.811 7.407,5.861 7.129 C 5.500 7.023,4.832 6.980,4.499 7.040 M10.477 7.073 C 9.806 7.249,9.238 7.823,9.060 8.508 C 9.013 8.687,9.000 9.009,9.000 10.000 C 9.000 11.368,9.018 11.521,9.225 11.930 C 9.361 12.199,9.801 12.639,10.070 12.775 C 10.472 12.979,10.642 13.000,11.868 13.000 L 13.000 13.000 13.000 14.000 L 13.000 15.000 12.005 15.000 L 11.010 15.000 10.983 14.830 C 10.869 14.117,9.995 13.771,9.405 14.205 C 8.945 14.544,8.873 15.235,9.225 15.929 C 9.361 16.199,9.800 16.638,10.070 16.775 C 10.479 16.982,10.632 17.000,12.000 17.000 C 13.368 17.000,13.521 16.982,13.930 16.775 C 14.196 16.640,14.638 16.200,14.771 15.937 C 14.979 15.527,15.000 15.352,14.999 14.014 C 14.999 12.682,14.974 12.463,14.781 12.083 C 14.646 11.816,14.297 11.449,14.017 11.281 C 13.609 11.035,13.405 11.005,12.130 11.002 L 11.000 11.000 11.000 10.000 L 11.000 9.000 11.995 9.000 L 12.991 9.000 13.017 9.175 C 13.053 9.417,13.243 9.699,13.465 9.839 C 14.102 10.243,14.930 9.826,14.988 9.072 C 15.011 8.775,14.927 8.370,14.782 8.083 C 14.551 7.628,14.022 7.203,13.523 7.073 C 13.134 6.972,10.866 6.972,10.477 7.073 M16.689 7.059 C 16.457 7.131,16.263 7.287,16.138 7.499 C 15.923 7.867,15.889 7.685,17.033 12.257 C 18.177 16.822,18.113 16.621,18.486 16.851 C 18.960 17.145,19.640 16.958,19.874 16.470 C 19.919 16.377,20.418 14.455,20.982 12.200 C 22.117 7.660,22.081 7.857,21.851 7.486 C 21.548 6.995,20.902 6.862,20.424 7.191 C 20.128 7.396,20.109 7.449,19.546 9.698 C 19.257 10.854,19.011 11.800,19.000 11.800 C 18.988 11.800,18.748 10.873,18.465 9.741 C 18.182 8.609,17.915 7.610,17.871 7.521 C 17.729 7.233,17.333 6.997,17.005 7.003 C 16.925 7.004,16.783 7.029,16.689 7.059 " stroke="none" fill-rule="evenodd" fill="black"></path></svg>