<svg xmlns="http://www.w3.org/2000/svg" width="24" height="24" viewBox="0 0 24 24" fill="none" stroke="currentColor" stroke-width="2" stroke-linecap="round" stroke-linejoin="round"><path d="M2.670 2.061 C 2.448 2.142,2.250 2.309,2.128 2.516 C 2.036 2.672,2.020 2.745,2.021 3.000 C 2.021 3.213,2.043 3.341,2.095 3.440 C 2.136 3.517,2.717 4.131,3.388 4.804 L 4.607 6.029 3.960 6.383 C 3.432 6.671,3.292 6.766,3.201 6.899 C 3.002 7.188,2.994 7.266,3.007 8.843 L 3.020 10.306 3.141 10.503 C 3.543 11.156,4.457 11.156,4.859 10.503 C 4.976 10.313,4.980 10.288,4.994 9.756 L 5.008 9.205 5.358 9.388 C 5.777 9.606,6.010 9.643,6.322 9.539 C 6.714 9.409,7.000 9.006,7.000 8.583 L 7.000 8.421 8.036 9.456 C 9.057 10.476,9.071 10.493,9.036 10.615 C 8.941 10.944,9.047 11.331,9.299 11.577 C 9.398 11.674,9.774 11.910,10.231 12.160 L 10.998 12.580 10.999 13.640 C 11.001 14.670,11.003 14.706,11.095 14.900 C 11.276 15.281,11.595 15.488,12.000 15.488 C 12.268 15.488,12.492 15.402,12.675 15.228 C 12.842 15.070,12.999 14.746,13.000 14.560 C 13.000 14.426,13.148 14.569,16.710 18.126 C 18.751 20.164,20.483 21.865,20.560 21.905 C 20.659 21.957,20.788 21.979,21.000 21.979 C 21.258 21.980,21.327 21.964,21.492 21.867 C 21.968 21.587,22.139 20.967,21.865 20.508 C 21.810 20.416,17.665 16.243,12.653 11.235 C 4.231 2.820,3.525 2.125,3.343 2.065 C 3.107 1.987,2.874 1.986,2.670 2.061 M11.720 2.054 C 11.496 2.120,9.554 3.189,9.349 3.360 C 9.117 3.554,9.022 3.768,9.022 4.100 C 9.022 4.309,9.044 4.421,9.108 4.540 C 9.295 4.892,9.622 5.093,10.000 5.089 C 10.272 5.086,10.344 5.056,11.244 4.560 C 11.644 4.340,11.984 4.160,12.000 4.160 C 12.016 4.160,12.356 4.340,12.756 4.560 C 13.656 5.056,13.728 5.086,14.000 5.089 C 14.378 5.093,14.705 4.892,14.892 4.540 C 14.956 4.421,14.978 4.309,14.978 4.100 C 14.978 3.789,14.895 3.583,14.693 3.392 C 14.591 3.294,13.218 2.513,12.560 2.178 C 12.254 2.022,11.972 1.980,11.720 2.054 M17.643 5.469 C 17.290 5.594,17.000 6.014,17.000 6.402 C 17.000 6.593,17.095 6.860,17.223 7.027 C 17.278 7.100,17.458 7.237,17.622 7.333 L 17.921 7.506 17.636 7.662 C 17.314 7.839,17.150 8.013,17.061 8.275 C 16.829 8.957,17.377 9.658,18.090 9.590 C 18.224 9.577,18.409 9.509,18.642 9.388 L 18.992 9.205 19.006 9.756 C 19.020 10.288,19.024 10.313,19.141 10.503 C 19.543 11.156,20.457 11.156,20.859 10.503 L 20.980 10.306 20.993 8.843 C 21.006 7.268,20.998 7.188,20.801 6.901 C 20.706 6.763,20.529 6.651,19.602 6.140 C 19.004 5.810,18.431 5.509,18.328 5.472 C 18.097 5.388,17.875 5.387,17.643 5.469 M3.695 13.057 C 3.466 13.129,3.256 13.299,3.128 13.516 L 3.020 13.700 3.008 15.188 C 2.997 16.627,2.999 16.683,3.081 16.873 C 3.127 16.980,3.231 17.132,3.312 17.209 C 3.464 17.354,5.404 18.443,5.690 18.544 C 6.309 18.762,7.000 18.264,7.000 17.600 C 7.000 17.373,6.884 17.087,6.725 16.924 C 6.638 16.834,6.268 16.604,5.792 16.345 L 5.005 15.916 4.992 14.808 L 4.980 13.700 4.872 13.516 C 4.628 13.101,4.150 12.915,3.695 13.057 M19.695 13.057 C 19.466 13.129,19.256 13.299,19.128 13.516 L 19.020 13.700 19.020 15.003 L 19.020 16.306 19.141 16.503 C 19.543 17.156,20.457 17.156,20.859 16.503 L 20.980 16.306 20.980 15.003 L 20.980 13.700 20.872 13.516 C 20.628 13.101,20.150 12.915,19.695 13.057 M11.600 17.584 C 11.399 17.671,11.205 17.869,11.095 18.100 C 11.011 18.277,11.001 18.357,11.000 18.808 L 11.000 19.316 10.750 19.174 C 10.372 18.960,10.252 18.920,9.994 18.920 C 9.715 18.920,9.549 18.982,9.345 19.161 C 9.112 19.366,9.022 19.571,9.022 19.900 C 9.022 20.234,9.115 20.442,9.356 20.646 C 9.443 20.720,10.006 21.050,10.607 21.380 L 11.700 21.980 12.000 21.980 L 12.300 21.980 13.393 21.380 C 13.994 21.050,14.557 20.720,14.644 20.646 C 14.885 20.442,14.978 20.234,14.978 19.900 C 14.978 19.573,14.888 19.366,14.661 19.166 C 14.459 18.989,14.270 18.920,13.985 18.920 C 13.773 18.920,13.693 18.944,13.391 19.100 C 13.198 19.199,13.032 19.280,13.021 19.280 C 13.009 19.280,13.000 19.059,13.000 18.790 C 12.999 18.358,12.988 18.276,12.905 18.100 C 12.793 17.865,12.599 17.669,12.391 17.582 C 12.203 17.503,11.783 17.504,11.600 17.584 " stroke="none" fill-rule="evenodd" fill="black"></path></svg>