<svg xmlns="http://www.w3.org/2000/svg" width="24" height="24" viewBox="0 0 24 24" fill="none" stroke="currentColor" stroke-width="2" stroke-linecap="round" stroke-linejoin="round"><path d="M11.541 1.042 C 11.239 1.089,10.964 1.179,10.660 1.331 C 10.254 1.532,3.720 5.277,3.380 5.503 C 3.009 5.749,2.933 5.815,2.655 6.140 C 2.365 6.478,2.153 6.939,2.044 7.472 C 1.982 7.769,1.983 16.232,2.044 16.528 C 2.204 17.302,2.670 18.034,3.260 18.439 C 3.348 18.500,5.049 19.483,7.040 20.624 C 11.099 22.950,11.104 22.953,11.860 22.989 C 12.728 23.030,13.640 22.671,13.885 22.191 C 14.074 21.820,14.013 21.388,13.727 21.071 C 13.561 20.887,13.416 20.805,13.187 20.766 L 13.020 20.738 13.010 16.658 L 13.000 12.579 16.463 10.580 C 18.367 9.480,19.942 8.574,19.963 8.567 C 19.985 8.559,20.000 9.368,20.000 10.627 L 20.001 12.700 20.095 12.900 C 20.276 13.282,20.595 13.488,21.003 13.488 C 21.292 13.488,21.536 13.381,21.724 13.173 C 22.014 12.850,22.005 12.964,21.991 10.060 L 21.979 7.460 21.885 7.180 C 21.626 6.409,21.285 5.942,20.681 5.534 C 20.374 5.326,13.647 1.482,13.300 1.315 C 13.124 1.231,12.873 1.135,12.743 1.101 C 12.438 1.023,11.847 0.994,11.541 1.042 M12.259 3.045 C 12.422 3.090,18.921 6.789,18.919 6.835 C 18.918 6.849,17.361 7.757,15.459 8.854 L 12.000 10.847 8.541 8.854 C 6.639 7.757,5.082 6.848,5.081 6.834 C 5.079 6.792,11.572 3.090,11.724 3.046 C 11.910 2.993,12.071 2.992,12.259 3.045 M7.537 10.579 L 11.000 12.579 11.000 16.574 C 11.000 19.754,10.990 20.565,10.950 20.549 C 10.724 20.459,4.426 16.811,4.311 16.703 C 4.000 16.411,4.021 16.721,4.009 12.406 C 4.002 9.977,4.012 8.558,4.036 8.566 C 4.057 8.574,5.633 9.480,7.537 10.579 M18.695 15.057 C 18.466 15.129,18.256 15.299,18.128 15.516 L 18.020 15.700 18.008 16.850 L 17.995 18.000 16.944 18.000 C 15.797 18.000,15.643 18.022,15.382 18.221 C 15.302 18.282,15.187 18.415,15.128 18.516 C 15.037 18.672,15.020 18.746,15.020 19.000 C 15.020 19.256,15.036 19.328,15.131 19.489 C 15.192 19.592,15.304 19.725,15.381 19.783 C 15.642 19.983,15.738 19.996,16.908 19.998 L 17.995 20.000 18.008 21.153 L 18.020 22.307 18.141 22.503 C 18.543 23.156,19.457 23.156,19.859 22.503 L 19.980 22.307 19.992 21.153 L 20.005 20.000 21.092 19.998 C 22.262 19.996,22.358 19.983,22.619 19.783 C 22.696 19.725,22.808 19.592,22.869 19.489 C 22.964 19.328,22.980 19.256,22.980 19.000 C 22.980 18.746,22.963 18.672,22.872 18.516 C 22.813 18.415,22.698 18.282,22.618 18.221 C 22.357 18.022,22.203 18.000,21.056 18.000 L 20.005 18.000 19.992 16.850 L 19.980 15.700 19.872 15.516 C 19.628 15.101,19.150 14.915,18.695 15.057 " stroke="none" fill-rule="evenodd" fill="black"></path></svg>