<svg xmlns="http://www.w3.org/2000/svg" width="24" height="24" viewBox="0 0 24 24" fill="none" stroke="currentColor" stroke-width="2" stroke-linecap="round" stroke-linejoin="round"><path d="M15.647 5.560 C 15.410 5.661,10.381 8.709,10.274 8.817 C 10.004 9.091,10.021 8.873,10.009 12.157 C 9.997 15.487,9.988 15.374,10.277 15.673 C 10.423 15.822,15.334 18.807,15.658 18.942 C 15.821 19.010,16.147 19.018,16.305 18.958 C 16.564 18.859,21.587 15.810,21.728 15.665 C 22.005 15.382,22.000 15.452,22.000 12.203 L 21.999 9.300 21.905 9.100 C 21.852 8.990,21.749 8.844,21.675 8.775 C 21.601 8.707,20.371 7.951,18.943 7.095 L 16.346 5.540 16.043 5.531 C 15.876 5.525,15.698 5.539,15.647 5.560 M17.563 8.606 C 18.375 9.093,19.040 9.502,19.040 9.516 C 19.039 9.529,18.364 9.948,17.538 10.447 L 16.036 11.354 14.525 10.447 C 13.693 9.948,13.009 9.524,13.004 9.505 C 12.990 9.454,15.972 7.677,16.033 7.700 C 16.063 7.711,16.751 8.119,17.563 8.606 M1.695 8.057 C 1.466 8.129,1.256 8.299,1.128 8.516 C 1.037 8.672,1.020 8.746,1.020 9.000 C 1.020 9.256,1.036 9.328,1.131 9.489 C 1.256 9.702,1.449 9.864,1.670 9.943 C 1.890 10.021,7.110 10.021,7.330 9.943 C 7.551 9.864,7.744 9.702,7.869 9.489 C 7.964 9.328,7.980 9.256,7.980 9.000 C 7.980 8.746,7.963 8.672,7.872 8.516 C 7.740 8.293,7.533 8.128,7.290 8.055 C 7.031 7.977,1.944 7.979,1.695 8.057 M3.695 11.057 C 3.466 11.129,3.256 11.299,3.128 11.516 C 3.037 11.672,3.020 11.746,3.020 12.000 C 3.020 12.256,3.036 12.328,3.131 12.489 C 3.256 12.702,3.449 12.864,3.670 12.943 C 3.888 13.021,7.112 13.021,7.330 12.943 C 7.551 12.864,7.744 12.702,7.869 12.489 C 7.964 12.328,7.980 12.256,7.980 12.000 C 7.980 11.746,7.963 11.672,7.872 11.516 C 7.740 11.293,7.533 11.128,7.290 11.055 C 7.035 10.978,3.941 10.980,3.695 11.057 M13.693 12.280 L 14.998 13.060 14.999 14.648 L 15.000 16.236 13.500 15.336 L 12.000 14.436 12.000 12.854 L 12.000 11.273 12.194 11.387 C 12.301 11.449,12.976 11.851,13.693 12.280 M20.000 12.878 L 20.000 14.436 18.500 15.336 L 17.000 16.236 17.002 14.668 L 17.004 13.100 18.472 12.212 C 19.279 11.723,19.953 11.323,19.970 11.322 C 19.987 11.321,20.000 12.021,20.000 12.878 M5.695 14.057 C 5.466 14.129,5.256 14.299,5.128 14.516 C 5.037 14.672,5.020 14.746,5.020 15.000 C 5.020 15.256,5.036 15.328,5.131 15.489 C 5.256 15.702,5.449 15.864,5.670 15.943 C 5.878 16.017,7.122 16.017,7.330 15.943 C 7.551 15.864,7.744 15.702,7.869 15.489 C 7.964 15.328,7.980 15.256,7.980 15.000 C 7.980 14.746,7.963 14.672,7.872 14.516 C 7.740 14.293,7.533 14.128,7.290 14.055 C 7.050 13.983,5.928 13.984,5.695 14.057 " stroke="none" fill-rule="evenodd" fill="black"></path></svg>