<svg xmlns="http://www.w3.org/2000/svg" width="24" height="24" viewBox="0 0 24 24" fill="none" stroke="currentColor" stroke-width="2" stroke-linecap="round" stroke-linejoin="round"><path d="M6.695 4.057 C 6.466 4.129,6.256 4.299,6.128 4.516 L 6.020 4.700 6.009 6.850 L 5.997 9.000 3.945 9.000 C 1.718 9.000,1.666 9.004,1.382 9.221 C 1.302 9.282,1.187 9.415,1.128 9.516 L 1.020 9.700 1.020 12.500 L 1.020 15.300 1.131 15.489 C 1.256 15.702,1.449 15.864,1.670 15.943 C 1.792 15.986,2.680 15.997,6.409 15.998 L 10.997 16.000 11.009 18.150 L 11.020 20.300 11.131 20.489 C 11.256 20.702,11.449 20.864,11.670 20.943 C 11.890 21.021,17.110 21.021,17.330 20.943 C 17.551 20.864,17.744 20.702,17.869 20.489 L 17.980 20.300 17.991 18.151 L 18.003 16.003 20.151 15.991 L 22.300 15.980 22.492 15.867 C 22.710 15.739,22.901 15.498,22.961 15.276 C 22.988 15.177,22.998 14.172,22.991 12.412 L 22.980 9.700 22.872 9.516 C 22.813 9.415,22.698 9.282,22.618 9.221 C 22.318 8.992,22.497 9.000,17.555 9.000 L 13.003 9.000 12.991 6.850 L 12.980 4.700 12.872 4.516 C 12.740 4.293,12.533 4.128,12.290 4.055 C 12.031 3.977,6.944 3.979,6.695 4.057 M11.000 7.500 L 11.000 9.000 9.500 9.000 L 8.000 9.000 8.000 7.500 L 8.000 6.000 9.500 6.000 L 11.000 6.000 11.000 7.500 M6.000 12.500 L 6.000 14.000 4.500 14.000 L 3.000 14.000 3.000 12.500 L 3.000 11.000 4.500 11.000 L 6.000 11.000 6.000 12.500 M11.000 12.500 L 11.000 14.000 9.500 14.000 L 8.000 14.000 8.000 12.500 L 8.000 11.000 9.500 11.000 L 11.000 11.000 11.000 12.500 M16.000 12.500 L 16.000 14.000 14.500 14.000 L 13.000 14.000 13.000 12.500 L 13.000 11.000 14.500 11.000 L 16.000 11.000 16.000 12.500 M21.000 12.500 L 21.000 14.000 19.500 14.000 L 18.000 14.000 18.000 12.500 L 18.000 11.000 19.500 11.000 L 21.000 11.000 21.000 12.500 M16.000 17.500 L 16.000 19.000 14.500 19.000 L 13.000 19.000 13.000 17.500 L 13.000 16.000 14.500 16.000 L 16.000 16.000 16.000 17.500 " stroke="none" fill-rule="evenodd" fill="black"></path></svg>