<svg xmlns="http://www.w3.org/2000/svg" width="24" height="24" viewBox="0 0 24 24" fill="none" stroke="currentColor" stroke-width="2" stroke-linecap="round" stroke-linejoin="round"><path d="M11.460 1.057 C 10.925 1.163,10.797 1.226,8.860 2.339 C 8.068 2.794,7.362 3.222,7.291 3.290 C 6.988 3.581,6.911 4.046,7.104 4.432 C 7.234 4.694,7.438 4.865,7.720 4.947 C 8.111 5.062,8.191 5.029,10.025 3.978 C 11.474 3.148,11.695 3.033,11.885 3.013 C 12.003 3.001,12.165 3.009,12.245 3.031 C 12.399 3.073,18.921 6.790,18.919 6.834 C 18.918 6.848,17.806 7.498,16.449 8.278 C 14.682 9.294,13.932 9.745,13.811 9.868 C 13.282 10.404,13.543 11.301,14.285 11.494 C 14.517 11.555,14.787 11.531,14.971 11.435 C 15.020 11.409,16.163 10.752,17.510 9.974 C 18.858 9.196,19.970 8.560,19.980 8.560 C 19.991 8.560,20.000 10.259,20.000 12.336 C 20.000 15.993,19.997 16.121,19.921 16.366 C 19.764 16.867,19.842 17.247,20.161 17.534 C 20.500 17.838,20.973 17.887,21.348 17.656 C 21.656 17.465,21.856 17.079,21.959 16.476 C 21.990 16.298,22.000 14.893,21.992 11.840 L 21.980 7.460 21.865 7.120 C 21.708 6.652,21.585 6.421,21.345 6.139 C 21.106 5.858,20.891 5.663,20.644 5.504 C 20.262 5.258,13.600 1.458,13.300 1.315 C 13.124 1.231,12.872 1.134,12.740 1.100 C 12.397 1.010,11.797 0.991,11.460 1.057 M2.670 2.061 C 2.448 2.142,2.250 2.309,2.128 2.516 C 2.036 2.672,2.020 2.745,2.021 3.000 C 2.021 3.213,2.043 3.341,2.095 3.440 C 2.136 3.517,2.537 3.951,2.987 4.403 L 3.804 5.227 3.452 5.453 C 3.054 5.708,2.946 5.802,2.655 6.141 C 2.365 6.478,2.153 6.939,2.044 7.472 C 1.982 7.769,1.983 16.232,2.044 16.528 C 2.204 17.302,2.670 18.034,3.260 18.439 C 3.348 18.500,5.049 19.483,7.040 20.624 C 11.262 23.044,11.123 22.978,12.000 22.977 C 12.847 22.977,12.835 22.982,15.840 21.261 L 18.380 19.807 19.400 20.819 C 19.961 21.376,20.483 21.864,20.560 21.905 C 20.659 21.957,20.787 21.979,21.000 21.979 C 21.258 21.980,21.327 21.964,21.492 21.867 C 21.968 21.587,22.139 20.967,21.865 20.508 C 21.810 20.416,17.665 16.243,12.653 11.235 C 4.231 2.820,3.525 2.125,3.343 2.065 C 3.107 1.987,2.874 1.986,2.670 2.061 M5.581 7.005 C 5.741 7.168,5.817 7.268,5.760 7.239 C 5.657 7.188,5.116 6.877,5.080 6.849 C 5.054 6.828,5.203 6.720,5.259 6.720 C 5.283 6.720,5.428 6.848,5.581 7.005 M7.537 10.579 L 11.000 12.579 11.000 16.574 C 11.000 19.754,10.990 20.565,10.950 20.549 C 10.724 20.459,4.426 16.811,4.311 16.703 C 4.000 16.411,4.021 16.721,4.009 12.406 C 4.002 9.977,4.012 8.558,4.036 8.566 C 4.057 8.574,5.633 9.480,7.537 10.579 M16.808 18.401 C 16.525 18.573,13.040 20.560,13.021 20.560 C 13.010 20.560,13.000 19.179,13.000 17.490 L 13.000 14.420 14.958 16.378 L 16.916 18.335 16.808 18.401 " stroke="none" fill-rule="evenodd" fill="black"></path></svg>