<svg xmlns="http://www.w3.org/2000/svg" width="24" height="24" viewBox="0 0 24 24" fill="none" stroke="currentColor" stroke-width="2" stroke-linecap="round" stroke-linejoin="round"><path d="M2.670 2.061 C 2.448 2.142,2.250 2.309,2.128 2.516 C 2.036 2.672,2.020 2.745,2.021 3.000 C 2.021 3.212,2.043 3.341,2.095 3.440 C 2.135 3.517,2.814 4.228,3.604 5.020 L 5.039 6.460 5.014 6.725 L 4.989 6.990 4.780 7.036 C 4.515 7.096,4.269 7.276,4.129 7.514 L 4.020 7.700 4.008 9.410 C 4.001 10.502,4.012 11.175,4.038 11.274 C 4.099 11.498,4.289 11.738,4.508 11.867 C 4.684 11.970,4.740 11.981,5.170 11.994 C 5.429 12.002,5.640 12.013,5.640 12.019 C 5.640 12.026,5.954 14.122,6.338 16.678 C 7.106 21.792,7.053 21.533,7.381 21.783 C 7.671 22.005,7.488 21.996,12.000 21.996 C 16.512 21.996,16.329 22.005,16.619 21.783 C 16.908 21.563,16.945 21.444,17.144 20.114 C 17.243 19.447,17.333 18.874,17.344 18.842 C 17.357 18.805,17.899 19.319,18.892 20.308 C 19.732 21.146,20.483 21.865,20.560 21.905 C 20.659 21.957,20.788 21.979,21.000 21.979 C 21.258 21.980,21.327 21.964,21.492 21.867 C 21.968 21.587,22.139 20.967,21.865 20.508 C 21.810 20.416,17.665 16.243,12.653 11.235 C 4.231 2.820,3.525 2.125,3.343 2.065 C 3.107 1.987,2.874 1.986,2.670 2.061 M14.695 2.057 C 14.466 2.129,14.256 2.299,14.128 2.516 C 14.025 2.692,14.019 2.728,14.007 3.350 L 13.993 4.000 11.443 4.000 C 8.676 4.000,8.672 4.000,8.382 4.221 C 8.302 4.282,8.187 4.415,8.128 4.516 C 8.037 4.672,8.020 4.746,8.020 5.000 C 8.020 5.256,8.036 5.328,8.131 5.489 C 8.256 5.702,8.449 5.864,8.670 5.943 C 8.791 5.986,9.524 5.997,12.463 5.998 C 16.586 6.000,16.379 5.985,16.697 6.303 C 16.863 6.469,17.000 6.760,17.000 6.947 C 17.000 6.990,16.533 7.000,14.446 7.000 C 11.675 7.000,11.672 7.000,11.382 7.221 C 11.302 7.282,11.187 7.415,11.128 7.516 C 11.037 7.672,11.020 7.746,11.020 8.000 C 11.020 8.256,11.036 8.328,11.131 8.489 C 11.256 8.702,11.449 8.864,11.670 8.943 C 11.790 8.986,12.433 8.997,14.910 8.998 L 18.000 9.000 18.000 9.500 L 18.000 10.000 16.446 10.000 C 14.758 10.000,14.658 10.011,14.382 10.221 C 14.302 10.282,14.187 10.415,14.128 10.516 C 14.037 10.672,14.020 10.746,14.020 11.000 C 14.020 11.256,14.036 11.328,14.131 11.489 C 14.192 11.592,14.304 11.725,14.381 11.783 C 14.628 11.972,14.762 11.996,15.570 11.998 C 16.188 12.000,16.320 12.010,16.320 12.056 C 16.320 12.087,16.285 12.350,16.241 12.641 C 16.179 13.062,16.171 13.209,16.205 13.366 C 16.279 13.711,16.587 14.030,16.936 14.124 C 17.412 14.253,17.977 13.940,18.118 13.471 C 18.156 13.343,18.355 12.159,18.359 12.034 C 18.360 12.020,18.572 12.002,18.830 11.994 C 19.260 11.981,19.316 11.970,19.492 11.867 C 19.711 11.738,19.901 11.498,19.962 11.274 C 19.988 11.175,19.999 10.502,19.992 9.410 L 19.980 7.700 19.871 7.514 C 19.731 7.276,19.485 7.096,19.219 7.036 L 19.010 6.990 18.983 6.693 C 18.914 5.928,18.543 5.238,17.911 4.695 C 17.474 4.321,16.893 4.078,16.289 4.018 L 16.007 3.990 15.993 3.345 C 15.981 2.728,15.975 2.692,15.872 2.516 C 15.628 2.101,15.150 1.915,14.695 2.057 M8.080 9.500 L 8.579 10.000 7.289 10.000 L 6.000 10.000 6.000 9.500 L 6.000 9.000 6.791 9.000 L 7.581 9.000 8.080 9.500 M13.084 14.510 L 15.588 17.020 15.364 18.500 L 15.140 19.980 12.000 19.980 L 8.861 19.980 8.273 16.080 C 7.950 13.935,7.684 12.139,7.683 12.090 L 7.680 12.000 9.130 12.000 L 10.580 12.000 13.084 14.510 " stroke="none" fill-rule="evenodd" fill="black"></path></svg>