<svg xmlns="http://www.w3.org/2000/svg" width="24" height="24" viewBox="0 0 24 24" fill="none" stroke="currentColor" stroke-width="2" stroke-linecap="round" stroke-linejoin="round"><path d="M11.695 2.057 C 11.466 2.129,11.256 2.299,11.128 2.516 C 10.985 2.760,10.975 3.211,11.107 3.460 C 11.490 4.177,12.510 4.177,12.893 3.460 C 13.025 3.211,13.015 2.760,12.872 2.516 C 12.628 2.101,12.150 1.915,11.695 2.057 M10.900 5.045 C 9.431 5.229,8.051 6.245,7.421 7.609 C 6.787 8.981,6.883 10.574,7.677 11.864 C 8.287 12.855,9.239 13.548,10.437 13.872 C 10.813 13.974,10.848 13.976,12.410 13.991 L 14.000 14.006 14.000 14.503 L 14.000 15.000 10.946 15.000 C 7.633 15.000,7.675 14.997,7.382 15.221 C 7.302 15.282,7.187 15.415,7.128 15.516 C 7.037 15.672,7.020 15.746,7.020 16.000 C 7.020 16.256,7.036 16.328,7.131 16.489 C 7.256 16.702,7.449 16.864,7.670 16.943 C 7.891 17.022,15.109 17.022,15.330 16.943 C 15.551 16.864,15.744 16.702,15.869 16.489 L 15.980 16.300 15.992 12.760 C 16.000 10.287,15.990 9.125,15.959 8.904 C 15.607 6.435,13.378 4.736,10.900 5.045 M12.020 7.060 C 12.741 7.211,13.395 7.713,13.715 8.362 C 13.978 8.895,13.999 9.062,13.999 10.633 L 14.000 12.005 12.490 11.992 L 10.980 11.979 10.680 11.869 C 10.066 11.644,9.561 11.195,9.277 10.620 C 8.910 9.878,8.913 9.118,9.285 8.362 C 9.774 7.371,10.914 6.828,12.020 7.060 M11.695 18.057 C 11.466 18.129,11.256 18.299,11.128 18.516 L 11.020 18.700 11.020 20.003 L 11.020 21.306 11.141 21.503 C 11.543 22.156,12.457 22.156,12.859 21.503 L 12.980 21.306 12.980 20.003 L 12.980 18.700 12.872 18.516 C 12.628 18.101,12.150 17.915,11.695 18.057 " stroke="none" fill-rule="evenodd" fill="black"></path></svg>