<svg xmlns="http://www.w3.org/2000/svg" width="24" height="24" viewBox="0 0 24 24" fill="none" stroke="currentColor" stroke-width="2" stroke-linecap="round" stroke-linejoin="round"><path d="M11.540 5.023 C 10.478 5.125,9.692 5.335,8.910 5.726 C 6.838 6.762,5.448 8.666,5.074 10.980 C 5.008 11.393,5.008 12.607,5.074 13.020 C 5.574 16.112,7.888 18.426,10.980 18.926 C 11.392 18.992,12.607 18.992,13.020 18.926 C 14.049 18.760,15.052 18.372,15.873 17.822 L 16.191 17.610 16.765 18.188 C 17.081 18.505,17.416 18.810,17.508 18.865 C 17.967 19.139,18.587 18.968,18.867 18.492 C 18.964 18.327,18.980 18.257,18.980 18.000 C 18.980 17.595,18.906 17.480,18.188 16.765 L 17.610 16.191 17.822 15.873 C 18.372 15.052,18.760 14.049,18.926 13.020 C 18.954 12.844,18.977 12.385,18.977 12.000 C 18.977 11.056,18.876 10.462,18.573 9.620 C 17.715 7.237,15.581 5.473,13.102 5.098 C 12.726 5.041,11.813 4.997,11.540 5.023 M12.552 7.043 C 14.413 7.246,16.001 8.479,16.680 10.248 C 17.092 11.320,17.085 12.720,16.663 13.793 C 16.561 14.052,16.264 14.629,16.197 14.698 C 16.174 14.722,15.666 14.245,14.850 13.434 C 13.693 12.284,13.517 12.124,13.343 12.066 C 12.863 11.906,12.382 12.084,12.128 12.516 C 12.036 12.672,12.020 12.745,12.021 13.000 C 12.021 13.213,12.043 13.341,12.095 13.440 C 12.136 13.517,12.747 14.161,13.454 14.872 L 14.740 16.163 14.640 16.240 C 14.489 16.355,13.938 16.616,13.600 16.732 C 13.045 16.922,12.670 16.980,12.000 16.980 C 11.330 16.980,10.956 16.922,10.400 16.732 C 8.808 16.188,7.580 14.864,7.161 13.240 C 6.920 12.307,6.983 11.125,7.320 10.248 C 8.146 8.096,10.274 6.793,12.552 7.043 " stroke="none" fill-rule="evenodd" fill="black"></path></svg>