<svg xmlns="http://www.w3.org/2000/svg" width="24" height="24" viewBox="0 0 24 24" fill="none" stroke="currentColor" stroke-width="2" stroke-linecap="round" stroke-linejoin="round"><path d="M12.280 4.042 C 10.298 4.289,8.545 5.440,7.350 7.280 C 7.101 7.664,6.787 8.278,6.620 8.710 L 6.507 9.000 5.700 9.000 C 4.815 9.000,4.632 9.031,4.382 9.221 C 4.302 9.282,4.187 9.415,4.128 9.516 C 4.037 9.672,4.020 9.746,4.020 10.000 C 4.020 10.256,4.036 10.328,4.131 10.489 C 4.256 10.702,4.449 10.864,4.670 10.943 C 4.769 10.978,5.024 10.997,5.420 10.998 L 6.020 11.000 6.020 12.000 L 6.020 13.000 5.456 13.000 C 4.647 13.000,4.368 13.109,4.128 13.516 C 4.037 13.672,4.020 13.746,4.020 14.000 C 4.020 14.256,4.036 14.328,4.131 14.489 C 4.192 14.592,4.304 14.725,4.381 14.783 C 4.633 14.976,4.756 14.996,5.664 14.998 L 6.507 15.000 6.620 15.290 C 7.035 16.362,7.685 17.332,8.528 18.141 C 9.467 19.043,10.538 19.612,11.810 19.887 C 12.404 20.015,13.596 20.015,14.190 19.887 C 15.085 19.694,15.978 19.307,16.679 18.809 C 17.127 18.491,17.925 17.733,18.066 17.493 C 18.280 17.128,18.215 16.615,17.917 16.317 C 17.621 16.021,17.305 15.941,16.897 16.059 C 16.692 16.119,16.619 16.170,16.351 16.442 C 15.466 17.340,14.686 17.768,13.583 17.959 C 12.800 18.095,11.749 17.899,10.960 17.470 C 10.089 16.998,9.247 16.122,8.783 15.207 L 8.679 15.000 10.929 14.998 C 12.705 14.997,13.212 14.985,13.330 14.943 C 13.551 14.864,13.744 14.702,13.869 14.489 C 13.964 14.328,13.980 14.256,13.980 14.000 C 13.980 13.746,13.963 13.672,13.872 13.516 C 13.813 13.415,13.698 13.282,13.618 13.221 C 13.329 13.001,13.321 13.000,10.596 13.000 L 8.085 13.000 8.054 12.810 C 8.014 12.564,8.014 11.436,8.054 11.190 L 8.085 11.000 10.632 10.998 C 12.656 10.997,13.211 10.985,13.330 10.943 C 13.551 10.864,13.744 10.702,13.869 10.489 C 13.964 10.328,13.980 10.256,13.980 10.000 C 13.980 9.746,13.963 9.672,13.872 9.516 C 13.813 9.415,13.698 9.282,13.618 9.221 C 13.332 9.003,13.296 9.000,10.893 9.000 L 8.679 9.000 8.783 8.793 C 8.923 8.519,9.133 8.198,9.384 7.880 C 10.425 6.557,11.934 5.870,13.433 6.037 C 14.536 6.160,15.376 6.589,16.282 7.491 C 16.592 7.800,16.699 7.880,16.875 7.939 C 17.575 8.170,18.263 7.623,18.188 6.894 C 18.157 6.591,18.033 6.405,17.553 5.936 C 16.534 4.939,15.391 4.336,14.072 4.097 C 13.660 4.022,12.680 3.992,12.280 4.042 " stroke="none" fill-rule="evenodd" fill="black"></path></svg>