<svg xmlns="http://www.w3.org/2000/svg" width="24" height="24" viewBox="0 0 24 24" fill="none" stroke="currentColor" stroke-width="2" stroke-linecap="round" stroke-linejoin="round"><path d="M4.695 5.057 C 4.466 5.129,4.256 5.299,4.128 5.516 L 4.020 5.700 4.000 10.980 C 3.984 15.084,3.969 16.285,3.930 16.373 C 3.767 16.740,3.477 16.942,3.034 16.998 C 2.870 17.019,2.686 17.055,2.625 17.078 C 2.439 17.149,2.242 17.323,2.128 17.516 C 2.037 17.672,2.020 17.746,2.020 18.000 C 2.020 18.257,2.036 18.327,2.133 18.492 C 2.263 18.714,2.502 18.901,2.736 18.965 C 2.960 19.026,3.519 18.982,3.863 18.877 C 4.809 18.587,5.556 17.843,5.886 16.860 L 5.980 16.580 5.991 11.790 L 6.002 7.000 7.501 7.000 L 8.999 7.000 9.009 12.653 L 9.020 18.306 9.141 18.503 C 9.543 19.156,10.457 19.156,10.859 18.503 L 10.980 18.306 10.980 12.003 L 10.980 5.700 10.872 5.516 C 10.740 5.293,10.533 5.128,10.290 5.055 C 10.031 4.977,4.944 4.979,4.695 5.057 M13.695 5.057 C 13.466 5.129,13.256 5.299,13.128 5.516 L 13.020 5.700 13.010 11.914 C 13.003 16.003,13.013 18.179,13.039 18.278 C 13.099 18.498,13.290 18.739,13.508 18.867 L 13.700 18.980 16.028 18.991 C 18.230 19.002,18.377 18.998,18.751 18.922 C 20.384 18.589,21.589 17.387,21.921 15.757 C 22.070 15.023,21.994 14.231,21.704 13.512 C 21.495 12.995,21.271 12.649,20.845 12.190 L 20.669 12.000 20.845 11.810 C 21.271 11.351,21.495 11.005,21.704 10.488 C 22.090 9.530,22.090 8.469,21.705 7.516 C 21.172 6.197,20.001 5.269,18.605 5.058 C 18.077 4.979,13.948 4.978,13.695 5.057 M18.523 7.073 C 19.262 7.266,19.850 7.924,19.967 8.690 C 20.029 9.098,19.967 9.522,19.793 9.880 C 19.638 10.198,19.227 10.625,18.930 10.775 C 18.507 10.990,18.399 11.000,16.632 11.000 L 15.000 11.000 15.000 9.000 L 15.000 7.000 16.630 7.002 C 18.037 7.004,18.296 7.014,18.523 7.073 M18.523 13.073 C 19.262 13.266,19.850 13.924,19.967 14.690 C 20.029 15.098,19.967 15.522,19.793 15.880 C 19.638 16.198,19.227 16.625,18.930 16.775 C 18.507 16.990,18.399 17.000,16.632 17.000 L 15.000 17.000 15.000 15.000 L 15.000 13.000 16.630 13.002 C 18.037 13.004,18.296 13.014,18.523 13.073 " stroke="none" fill-rule="evenodd" fill="black"></path></svg>