<svg xmlns="http://www.w3.org/2000/svg" width="24" height="24" viewBox="0 0 24 24" fill="none" stroke="currentColor" stroke-width="2" stroke-linecap="round" stroke-linejoin="round"><path d="M9.925 4.059 C 9.164 4.200,8.463 4.577,7.937 5.127 C 7.522 5.561,7.306 5.918,7.118 6.481 C 7.014 6.791,6.994 6.901,7.012 7.090 C 7.062 7.647,7.548 8.045,8.106 7.988 C 8.512 7.946,8.810 7.696,8.955 7.275 C 9.194 6.580,9.640 6.154,10.248 6.038 C 10.360 6.017,11.273 6.000,12.277 6.000 C 14.297 6.000,14.389 6.009,14.795 6.252 C 15.067 6.415,15.257 6.631,15.415 6.960 C 15.529 7.198,15.540 7.254,15.540 7.620 C 15.540 7.953,15.524 8.054,15.448 8.220 C 15.309 8.522,15.168 8.708,14.958 8.861 L 14.769 9.000 10.331 9.000 C 5.513 9.000,5.682 8.992,5.382 9.221 C 5.302 9.282,5.187 9.415,5.128 9.516 C 5.037 9.672,5.020 9.746,5.020 10.000 C 5.020 10.256,5.036 10.328,5.131 10.489 C 5.256 10.702,5.449 10.864,5.670 10.943 C 5.789 10.985,6.333 10.997,8.280 11.000 L 10.740 11.003 9.619 11.571 C 8.429 12.175,8.128 12.364,7.734 12.755 L 7.487 13.000 6.690 13.000 C 5.815 13.000,5.631 13.031,5.382 13.221 C 5.302 13.282,5.187 13.415,5.128 13.516 C 5.037 13.672,5.020 13.746,5.020 14.000 C 5.020 14.256,5.036 14.328,5.131 14.489 C 5.346 14.855,5.633 14.996,6.169 14.998 L 6.518 15.000 6.489 15.130 C 6.473 15.202,6.462 15.548,6.464 15.900 C 6.467 16.412,6.484 16.600,6.550 16.841 C 6.779 17.681,7.125 18.284,7.687 18.822 C 8.246 19.358,8.766 19.660,9.492 19.868 L 9.860 19.974 11.760 19.990 C 13.062 20.001,13.759 19.991,13.976 19.960 C 14.672 19.859,15.348 19.535,15.881 19.048 C 16.378 18.594,16.673 18.144,16.882 17.519 C 16.986 17.209,17.006 17.099,16.988 16.910 C 16.912 16.072,15.912 15.707,15.305 16.297 C 15.187 16.412,15.108 16.536,15.060 16.683 C 14.845 17.338,14.487 17.729,13.928 17.917 C 13.695 17.996,13.595 18.000,11.997 18.000 C 10.172 18.000,10.068 17.990,9.605 17.771 C 9.291 17.623,8.880 17.217,8.703 16.880 C 8.448 16.394,8.377 15.803,8.513 15.280 L 8.580 15.020 13.440 15.000 L 18.300 14.980 18.492 14.867 C 19.248 14.423,19.123 13.306,18.290 13.055 C 18.142 13.010,17.464 13.000,14.684 12.998 L 11.260 12.996 13.240 12.000 L 15.220 11.004 16.700 11.000 C 18.291 10.996,18.349 10.990,18.619 10.783 C 18.696 10.725,18.808 10.592,18.869 10.489 C 18.964 10.328,18.980 10.256,18.980 10.000 C 18.980 9.746,18.963 9.672,18.872 9.516 C 18.650 9.139,18.338 9.000,17.714 9.000 C 17.497 9.000,17.320 8.984,17.320 8.965 C 17.320 8.946,17.347 8.865,17.381 8.785 C 17.498 8.505,17.569 8.062,17.569 7.619 C 17.570 6.238,16.794 5.000,15.540 4.379 C 14.821 4.023,14.838 4.025,12.380 4.014 C 10.691 4.007,10.156 4.017,9.925 4.059 " stroke="none" fill-rule="evenodd" fill="black"></path></svg>