<svg xmlns="http://www.w3.org/2000/svg" width="24" height="24" viewBox="0 0 24 24" fill="none" stroke="currentColor" stroke-width="2" stroke-linecap="round" stroke-linejoin="round"><path d="M2.670 2.061 C 2.448 2.142,2.250 2.309,2.128 2.516 C 2.037 2.672,2.020 2.746,2.020 3.000 C 2.020 3.254,2.036 3.327,2.127 3.480 C 2.187 3.579,3.008 4.432,3.952 5.375 L 5.669 7.089 5.368 7.535 C 3.552 10.218,3.552 13.782,5.368 16.465 L 5.670 16.911 4.452 18.125 C 3.783 18.793,3.186 19.421,3.127 19.520 C 3.036 19.672,3.020 19.746,3.020 20.000 C 3.020 20.257,3.036 20.327,3.133 20.492 C 3.413 20.968,4.033 21.139,4.492 20.865 C 4.584 20.810,5.207 20.217,5.875 19.548 L 7.089 18.330 7.535 18.632 C 10.218 20.448,13.782 20.448,16.465 18.632 L 16.911 18.331 18.625 20.048 C 19.568 20.992,20.421 21.813,20.520 21.873 C 20.673 21.964,20.746 21.980,21.000 21.980 C 21.257 21.980,21.327 21.964,21.492 21.867 C 21.968 21.587,22.139 20.967,21.865 20.508 C 21.810 20.416,17.665 16.243,12.653 11.235 C 4.231 2.820,3.525 2.125,3.343 2.065 C 3.107 1.987,2.874 1.986,2.670 2.061 M19.640 3.069 C 19.490 3.121,19.247 3.343,18.178 4.405 C 17.072 5.505,16.889 5.672,16.838 5.624 C 16.695 5.489,16.062 5.097,15.641 4.883 C 13.891 3.995,11.926 3.774,10.020 4.253 C 9.468 4.392,8.978 4.587,8.809 4.735 C 8.298 5.184,8.406 6.049,9.010 6.351 C 9.316 6.504,9.506 6.507,9.928 6.367 C 10.985 6.017,11.794 5.929,12.761 6.058 C 14.142 6.241,15.269 6.794,16.237 7.763 C 17.040 8.566,17.556 9.479,17.818 10.558 C 18.103 11.737,18.046 12.841,17.636 14.066 C 17.489 14.505,17.495 14.689,17.666 15.004 C 17.915 15.462,18.473 15.646,18.940 15.425 C 19.311 15.249,19.456 15.009,19.694 14.180 C 19.895 13.479,19.966 13.022,19.989 12.280 C 20.045 10.488,19.555 8.823,18.559 7.415 L 18.329 7.091 19.547 5.875 C 20.217 5.207,20.814 4.579,20.873 4.480 C 20.964 4.328,20.980 4.254,20.980 4.000 C 20.980 3.746,20.963 3.672,20.872 3.516 C 20.617 3.083,20.120 2.902,19.640 3.069 M11.290 12.710 C 13.572 14.992,15.440 16.874,15.440 16.890 C 15.440 16.936,15.031 17.189,14.669 17.368 C 11.682 18.843,8.121 17.638,6.623 14.647 C 5.916 13.237,5.819 11.472,6.366 9.960 C 6.541 9.476,7.028 8.560,7.110 8.560 C 7.127 8.560,9.007 10.427,11.290 12.710 " stroke="none" fill-rule="evenodd" fill="black"></path></svg>