<svg xmlns="http://www.w3.org/2000/svg" width="24" height="24" viewBox="0 0 24 24" fill="none" stroke="currentColor" stroke-width="2" stroke-linecap="round" stroke-linejoin="round"><path d="M11.695 4.057 C 11.466 4.129,11.256 4.299,11.128 4.516 C 11.025 4.692,11.019 4.730,11.000 5.397 L 10.980 6.094 10.700 6.150 C 10.334 6.223,9.770 6.417,9.420 6.590 C 7.682 7.451,6.534 8.925,6.113 10.840 L 6.020 11.260 6.020 15.283 L 6.020 19.306 6.141 19.503 C 6.543 20.156,7.457 20.156,7.859 19.503 L 7.980 19.306 8.002 15.363 C 8.022 11.874,8.032 11.388,8.091 11.145 C 8.426 9.764,9.397 8.680,10.712 8.220 L 10.980 8.126 11.000 13.716 L 11.020 19.306 11.141 19.503 C 11.543 20.156,12.457 20.156,12.859 19.503 L 12.980 19.306 13.000 13.716 L 13.020 8.126 13.288 8.220 C 14.603 8.680,15.574 9.764,15.909 11.145 C 15.968 11.388,15.978 11.874,15.998 15.363 L 16.020 19.306 16.141 19.503 C 16.543 20.156,17.457 20.156,17.859 19.503 L 17.980 19.306 17.980 15.283 L 17.980 11.260 17.887 10.840 C 17.465 8.920,16.323 7.453,14.580 6.590 C 14.230 6.417,13.666 6.223,13.300 6.150 L 13.020 6.094 13.000 5.397 C 12.981 4.730,12.975 4.692,12.872 4.516 C 12.628 4.101,12.150 3.915,11.695 4.057 " stroke="none" fill-rule="evenodd" fill="black"></path></svg>