<svg xmlns="http://www.w3.org/2000/svg" width="24" height="24" viewBox="0 0 24 24" fill="none" stroke="currentColor" stroke-width="2" stroke-linecap="round" stroke-linejoin="round"><path d="M2.670 2.061 C 2.448 2.142,2.250 2.309,2.128 2.516 C 2.037 2.672,2.020 2.746,2.020 3.000 C 2.020 3.254,2.036 3.327,2.127 3.480 C 2.188 3.581,3.495 4.919,5.117 6.540 L 8.000 9.420 8.000 10.710 L 8.000 12.000 7.446 12.000 C 6.648 12.000,6.367 12.110,6.128 12.516 C 6.037 12.672,6.020 12.746,6.020 13.000 C 6.020 13.256,6.036 13.328,6.131 13.489 C 6.256 13.702,6.449 13.864,6.670 13.943 C 6.769 13.978,7.023 13.997,7.412 13.998 L 8.005 14.000 7.992 15.330 C 7.977 16.853,7.971 16.882,7.605 17.366 C 7.389 17.651,7.244 17.761,6.784 17.986 C 6.379 18.184,6.153 18.401,6.060 18.679 C 5.829 19.376,6.379 20.063,7.109 19.988 C 7.264 19.972,7.467 19.898,7.789 19.740 C 8.332 19.474,8.382 19.453,8.720 19.360 C 9.615 19.113,10.749 19.135,11.542 19.416 C 13.114 19.972,13.347 20.019,14.500 20.019 C 15.376 20.018,15.676 19.982,16.360 19.793 C 16.845 19.659,17.477 19.400,17.616 19.278 L 17.745 19.165 19.043 20.465 C 19.756 21.180,20.421 21.814,20.520 21.873 C 20.672 21.964,20.746 21.980,21.000 21.980 C 21.257 21.980,21.327 21.964,21.492 21.867 C 21.968 21.587,22.139 20.967,21.865 20.508 C 21.810 20.416,17.665 16.243,12.653 11.235 C 4.231 2.820,3.525 2.125,3.343 2.065 C 3.107 1.987,2.874 1.986,2.670 2.061 M12.140 4.104 C 11.454 4.226,10.815 4.487,10.203 4.898 C 9.735 5.212,9.380 5.547,9.278 5.772 C 9.119 6.123,9.195 6.552,9.467 6.843 C 9.704 7.097,9.914 7.177,10.272 7.151 C 10.577 7.129,10.641 7.097,11.060 6.747 C 12.145 5.840,13.671 5.801,14.821 6.649 C 15.078 6.838,15.338 7.125,15.569 7.472 C 15.871 7.926,16.305 8.096,16.765 7.939 C 17.350 7.740,17.604 7.098,17.321 6.536 C 16.829 5.562,15.618 4.594,14.460 4.249 C 13.766 4.042,12.823 3.983,12.140 4.104 M10.300 11.720 L 10.578 12.000 10.289 12.000 L 10.000 12.000 10.000 11.720 C 10.000 11.566,10.005 11.440,10.011 11.440 C 10.017 11.440,10.147 11.566,10.300 11.720 M14.434 15.854 L 16.287 17.707 16.174 17.753 C 15.983 17.829,15.477 17.952,15.151 18.003 C 14.765 18.063,13.888 18.030,13.487 17.941 C 13.326 17.905,13.065 17.830,12.907 17.773 C 11.715 17.350,11.345 17.262,10.498 17.201 C 10.196 17.180,9.940 17.154,9.930 17.143 C 9.920 17.133,9.931 17.009,9.956 16.869 C 9.982 16.717,10.000 16.086,10.000 15.307 L 10.000 14.000 11.290 14.000 L 12.580 14.000 14.434 15.854 " stroke="none" fill-rule="evenodd" fill="black"></path></svg>