<svg xmlns="http://www.w3.org/2000/svg" width="24" height="24" viewBox="0 0 24 24" fill="none" stroke="currentColor" stroke-width="2" stroke-linecap="round" stroke-linejoin="round"><path d="M3.664 5.063 C 3.302 5.196,3.051 5.514,3.012 5.891 C 2.993 6.079,3.040 6.277,3.395 7.523 C 3.618 8.303,3.800 8.954,3.800 8.971 C 3.800 8.987,3.596 9.000,3.346 9.000 C 2.657 9.000,2.357 9.127,2.128 9.516 C 2.037 9.672,2.020 9.746,2.020 10.000 C 2.020 10.256,2.036 10.328,2.131 10.489 C 2.192 10.592,2.304 10.725,2.381 10.783 C 2.630 10.974,2.760 10.996,3.604 10.998 L 4.389 11.000 4.660 11.950 C 4.809 12.473,4.939 12.922,4.950 12.950 C 4.964 12.989,4.744 13.000,3.931 13.000 C 2.798 13.000,2.643 13.022,2.382 13.221 C 2.083 13.449,1.935 13.893,2.035 14.264 C 2.099 14.498,2.286 14.737,2.508 14.867 L 2.700 14.980 4.118 15.000 L 5.536 15.020 5.939 16.420 C 6.180 17.260,6.388 17.904,6.457 18.030 C 6.521 18.145,6.674 18.337,6.798 18.455 C 7.203 18.841,7.610 18.984,8.208 18.950 C 8.514 18.933,8.607 18.909,8.856 18.786 C 9.221 18.606,9.545 18.287,9.709 17.949 C 9.775 17.812,10.031 17.093,10.278 16.350 L 10.727 15.000 12.000 15.000 L 13.273 15.000 13.722 16.350 C 13.969 17.093,14.225 17.812,14.291 17.949 C 14.455 18.287,14.779 18.606,15.144 18.786 C 15.393 18.909,15.486 18.933,15.792 18.950 C 16.390 18.984,16.797 18.841,17.202 18.455 C 17.326 18.337,17.479 18.145,17.543 18.030 C 17.612 17.904,17.820 17.260,18.061 16.420 L 18.464 15.020 19.882 15.000 L 21.300 14.980 21.492 14.867 C 22.248 14.423,22.123 13.306,21.290 13.055 C 21.155 13.014,20.833 13.000,20.069 13.000 C 19.256 13.000,19.036 12.989,19.050 12.950 C 19.061 12.922,19.191 12.473,19.340 11.950 L 19.611 11.000 20.396 10.998 C 21.240 10.996,21.370 10.974,21.619 10.783 C 21.696 10.725,21.808 10.592,21.869 10.489 C 21.964 10.328,21.980 10.256,21.980 10.000 C 21.980 9.746,21.963 9.672,21.872 9.516 C 21.643 9.127,21.343 9.000,20.654 9.000 C 20.404 9.000,20.200 8.986,20.200 8.970 C 20.200 8.953,20.380 8.310,20.600 7.540 C 20.820 6.770,21.000 6.076,21.000 5.997 C 21.000 5.758,20.880 5.478,20.701 5.299 C 20.311 4.909,19.689 4.909,19.299 5.299 C 19.096 5.501,19.113 5.453,18.516 7.550 L 18.104 9.001 15.747 8.990 L 13.390 8.980 13.144 8.260 C 12.837 7.359,12.744 7.226,12.310 7.061 C 11.955 6.926,11.476 7.063,11.229 7.369 C 11.147 7.469,11.028 7.752,10.859 8.248 L 10.610 8.980 8.253 8.990 L 5.896 9.001 5.484 7.550 C 4.889 5.463,4.902 5.500,4.707 5.305 C 4.436 5.034,4.011 4.936,3.664 5.063 M9.920 11.030 C 9.920 11.046,9.775 11.496,9.597 12.030 L 9.273 13.000 8.158 13.000 L 7.043 13.000 6.964 12.730 C 6.788 12.129,6.480 11.044,6.480 11.023 C 6.480 11.010,7.254 11.000,8.200 11.000 C 9.146 11.000,9.920 11.013,9.920 11.030 M17.520 11.023 C 17.520 11.044,17.212 12.129,17.036 12.730 L 16.957 13.000 15.842 13.000 L 14.727 13.000 14.403 12.030 C 14.225 11.496,14.080 11.046,14.080 11.030 C 14.080 11.013,14.854 11.000,15.800 11.000 C 16.746 11.000,17.520 11.010,17.520 11.023 M12.296 12.070 C 12.448 12.527,12.580 12.922,12.590 12.950 C 12.604 12.989,12.470 13.000,12.000 13.000 C 11.530 13.000,11.396 12.989,11.410 12.950 C 11.420 12.922,11.552 12.527,11.704 12.070 C 11.855 11.614,11.988 11.240,12.000 11.240 C 12.012 11.240,12.145 11.614,12.296 12.070 M8.590 15.050 C 8.580 15.078,8.468 15.415,8.341 15.800 C 8.214 16.185,8.098 16.514,8.083 16.530 C 8.068 16.547,7.956 16.209,7.834 15.780 L 7.611 15.000 8.110 15.000 C 8.492 15.000,8.604 15.012,8.590 15.050 M16.166 15.780 C 16.044 16.209,15.932 16.547,15.917 16.530 C 15.902 16.514,15.786 16.185,15.659 15.800 C 15.532 15.415,15.420 15.078,15.410 15.050 C 15.396 15.012,15.508 15.000,15.890 15.000 L 16.389 15.000 16.166 15.780 " stroke="none" fill-rule="evenodd" fill="black"></path></svg>