<svg xmlns="http://www.w3.org/2000/svg" width="24" height="24" viewBox="0 0 24 24" fill="none" stroke="currentColor" stroke-width="2" stroke-linecap="round" stroke-linejoin="round"><path d="M5.695 5.057 C 5.466 5.129,5.256 5.299,5.128 5.516 L 5.020 5.700 5.020 12.003 L 5.020 18.306 5.141 18.503 C 5.543 19.156,6.457 19.156,6.859 18.503 L 6.980 18.306 6.991 12.651 L 7.001 6.995 8.771 7.009 C 10.523 7.023,10.543 7.024,10.861 7.123 C 11.819 7.421,12.579 8.181,12.877 9.139 L 12.977 9.460 12.998 11.883 L 13.020 14.306 13.141 14.503 C 13.543 15.156,14.457 15.156,14.859 14.503 L 14.980 14.306 14.980 11.843 C 14.980 9.612,14.973 9.348,14.907 9.040 C 14.625 7.721,13.863 6.576,12.800 5.874 C 12.046 5.375,11.396 5.135,10.552 5.043 C 9.965 4.978,5.907 4.991,5.695 5.057 M17.695 5.057 C 17.466 5.129,17.256 5.299,17.128 5.516 L 17.020 5.700 17.009 11.353 L 16.999 17.005 15.209 16.991 C 13.467 16.977,13.413 16.974,13.140 16.884 C 12.163 16.562,11.420 15.817,11.123 14.861 L 11.023 14.540 11.002 12.120 L 10.980 9.700 10.871 9.514 C 10.479 8.848,9.521 8.848,9.129 9.514 L 9.020 9.700 9.020 12.160 C 9.020 14.388,9.027 14.652,9.093 14.960 C 9.526 16.984,11.016 18.474,13.040 18.907 C 13.348 18.973,13.612 18.980,15.840 18.980 L 18.300 18.980 18.492 18.867 C 18.710 18.739,18.901 18.498,18.961 18.278 C 18.987 18.179,18.997 16.003,18.990 11.914 L 18.980 5.700 18.872 5.516 C 18.628 5.101,18.150 4.915,17.695 5.057 " stroke="none" fill-rule="evenodd" fill="black"></path></svg>