<svg xmlns="http://www.w3.org/2000/svg" width="24" height="24" viewBox="0 0 24 24" fill="none" stroke="currentColor" stroke-width="2" stroke-linecap="round" stroke-linejoin="round"><path d="M11.695 2.057 C 11.466 2.129,11.256 2.299,11.128 2.516 L 11.020 2.700 11.008 3.850 L 10.995 5.000 10.388 5.000 C 9.712 5.000,9.141 5.072,8.755 5.204 C 7.847 5.515,7.028 6.170,6.569 6.953 C 5.320 9.083,6.233 11.785,8.512 12.704 C 9.217 12.988,9.354 13.000,11.946 13.002 C 14.529 13.005,14.564 13.008,15.017 13.281 C 15.902 13.814,16.243 14.955,15.793 15.880 C 15.638 16.198,15.227 16.625,14.930 16.775 C 14.493 16.996,14.447 17.000,12.094 17.000 C 10.669 17.000,9.851 16.985,9.712 16.956 C 9.106 16.830,8.605 16.417,8.308 15.800 C 8.054 15.271,7.814 15.061,7.408 15.014 C 6.759 14.937,6.182 15.562,6.322 16.190 C 6.379 16.442,6.631 16.972,6.843 17.285 C 7.215 17.833,7.941 18.425,8.559 18.685 C 9.102 18.913,9.394 18.966,10.228 18.989 L 10.996 19.009 11.008 20.158 L 11.020 21.307 11.141 21.503 C 11.209 21.613,11.346 21.756,11.452 21.828 C 11.923 22.144,12.554 21.999,12.859 21.503 L 12.980 21.307 12.992 20.153 L 13.005 19.000 13.686 19.000 C 14.479 19.000,14.942 18.924,15.488 18.704 C 17.265 17.987,18.298 16.094,17.921 14.243 C 17.628 12.806,16.637 11.680,15.245 11.204 C 14.712 11.022,14.374 11.000,11.978 11.000 C 9.558 11.000,9.506 10.996,9.083 10.781 C 8.975 10.727,8.782 10.585,8.653 10.465 C 7.654 9.536,7.830 7.974,9.015 7.264 C 9.451 7.003,9.547 6.995,12.060 7.008 L 14.300 7.020 14.540 7.116 C 14.853 7.241,15.194 7.474,15.379 7.689 C 15.460 7.783,15.606 8.024,15.702 8.224 C 15.900 8.634,16.083 8.829,16.374 8.940 C 16.729 9.075,17.174 8.956,17.439 8.655 C 17.740 8.312,17.773 7.961,17.550 7.446 C 17.143 6.505,16.501 5.837,15.580 5.395 C 14.946 5.091,14.492 5.002,13.572 5.001 L 13.005 5.000 12.992 3.850 L 12.980 2.700 12.872 2.516 C 12.628 2.101,12.150 1.915,11.695 2.057 " stroke="none" fill-rule="evenodd" fill="black"></path></svg>