<svg xmlns="http://www.w3.org/2000/svg" width="24" height="24" viewBox="0 0 24 24" fill="none" stroke="currentColor" stroke-width="2" stroke-linecap="round" stroke-linejoin="round"><path d="M7.721 5.047 C 7.645 5.069,7.528 5.124,7.461 5.169 C 7.395 5.214,6.407 6.180,5.266 7.316 C 3.006 9.565,3.000 9.572,3.001 10.000 C 3.002 10.414,3.024 10.441,4.871 12.290 L 6.579 14.000 4.874 15.710 C 3.936 16.650,3.135 17.483,3.095 17.560 C 3.043 17.659,3.021 17.788,3.021 18.000 C 3.020 18.255,3.036 18.328,3.128 18.484 C 3.187 18.585,3.300 18.716,3.377 18.775 C 3.689 19.013,3.297 19.000,9.998 19.000 C 15.582 19.000,16.164 18.994,16.343 18.935 C 16.521 18.876,16.750 18.660,18.674 16.745 C 21.000 14.430,21.000 14.430,20.999 14.000 C 20.998 13.586,20.976 13.559,19.129 11.710 L 17.421 10.000 19.126 8.290 C 20.064 7.350,20.865 6.517,20.905 6.440 C 20.957 6.341,20.979 6.212,20.979 6.000 C 20.980 5.743,20.964 5.673,20.869 5.511 C 20.745 5.300,20.498 5.111,20.259 5.045 C 20.049 4.986,7.926 4.988,7.721 5.047 M16.580 8.000 L 15.581 9.000 11.001 9.000 L 6.421 9.000 7.420 8.000 L 8.419 7.000 12.999 7.000 L 17.579 7.000 16.580 8.000 M16.580 12.000 L 17.579 13.000 12.999 13.000 L 8.419 13.000 7.420 12.000 L 6.421 11.000 11.001 11.000 L 15.581 11.000 16.580 12.000 M16.580 16.000 L 15.581 17.000 11.001 17.000 L 6.421 17.000 7.420 16.000 L 8.419 15.000 12.999 15.000 L 17.579 15.000 16.580 16.000 " stroke="none" fill-rule="evenodd" fill="black"></path></svg>