<svg xmlns="http://www.w3.org/2000/svg" width="24" height="24" viewBox="0 0 24 24" fill="none" stroke="currentColor" stroke-width="2" stroke-linecap="round" stroke-linejoin="round"><path d="M16.340 4.060 C 15.473 4.202,14.682 4.627,14.053 5.288 C 13.609 5.754,13.475 6.016,12.378 8.578 L 11.341 11.000 9.617 11.000 C 7.745 11.000,7.661 11.008,7.382 11.221 C 7.083 11.449,6.935 11.893,7.035 12.264 C 7.099 12.498,7.286 12.737,7.508 12.867 L 7.700 12.980 9.087 13.000 L 10.474 13.020 9.667 14.901 C 9.223 15.935,8.803 16.881,8.734 17.002 C 8.419 17.556,7.685 17.998,7.076 18.000 C 6.509 18.001,6.066 18.372,6.013 18.888 C 5.971 19.293,6.156 19.661,6.504 19.864 C 7.001 20.155,8.203 19.947,9.084 19.416 C 9.531 19.147,10.070 18.631,10.352 18.202 C 10.529 17.933,10.814 17.308,11.620 15.427 L 12.660 13.000 14.420 12.998 C 16.314 12.996,16.344 12.993,16.619 12.783 C 16.696 12.725,16.808 12.592,16.869 12.489 C 16.964 12.328,16.980 12.256,16.980 12.000 C 16.980 11.746,16.963 11.672,16.872 11.516 C 16.761 11.327,16.571 11.158,16.373 11.070 C 16.294 11.036,15.854 11.015,14.893 11.000 L 13.526 10.980 14.333 9.099 C 14.777 8.065,15.197 7.119,15.266 6.998 C 15.431 6.708,15.817 6.354,16.135 6.202 C 16.370 6.090,16.545 6.052,17.169 5.978 C 17.421 5.948,17.706 5.752,17.859 5.503 C 17.966 5.329,17.980 5.271,17.980 5.003 C 17.980 4.746,17.964 4.672,17.872 4.516 C 17.600 4.054,17.166 3.925,16.340 4.060 " stroke="none" fill-rule="evenodd" fill="black"></path></svg>