<svg xmlns="http://www.w3.org/2000/svg" width="24" height="24" viewBox="0 0 24 24" fill="none" stroke="currentColor" stroke-width="2" stroke-linecap="round" stroke-linejoin="round"><path d="M6.695 4.057 C 6.466 4.129,6.256 4.299,6.128 4.516 L 6.020 4.700 6.009 10.031 C 5.999 15.293,6.000 15.367,6.082 15.770 C 6.357 17.118,7.248 18.194,8.512 18.704 C 8.700 18.779,9.028 18.877,9.243 18.921 C 9.616 18.997,9.795 19.000,13.406 18.998 C 16.454 18.997,17.209 18.986,17.330 18.943 C 17.551 18.864,17.744 18.702,17.869 18.489 C 17.964 18.328,17.980 18.256,17.980 18.000 C 17.980 17.746,17.963 17.672,17.872 17.516 C 17.813 17.415,17.698 17.282,17.618 17.221 C 17.321 16.995,17.422 17.000,13.422 17.000 C 9.435 17.000,9.523 17.004,9.088 16.784 C 8.675 16.575,8.243 16.072,8.090 15.623 C 8.026 15.436,8.019 15.005,8.000 10.060 L 7.980 4.700 7.872 4.516 C 7.628 4.101,7.150 3.915,6.695 4.057 " stroke="none" fill-rule="evenodd" fill="black"></path></svg>