<svg xmlns="http://www.w3.org/2000/svg" width="24" height="24" viewBox="0 0 24 24" fill="none" stroke="currentColor" stroke-width="2" stroke-linecap="round" stroke-linejoin="round"><path d="M14.695 8.057 C 14.466 8.129,14.256 8.299,14.128 8.516 L 14.020 8.700 13.999 9.980 C 13.984 10.854,13.962 11.296,13.929 11.373 C 13.844 11.569,13.673 11.761,13.484 11.872 C 13.328 11.963,13.254 11.980,13.000 11.980 C 12.746 11.980,12.672 11.963,12.516 11.872 C 12.326 11.760,12.155 11.568,12.072 11.373 C 12.043 11.305,12.015 10.947,12.002 10.480 C 11.981 9.721,11.977 9.695,11.871 9.514 C 11.479 8.848,10.521 8.848,10.129 9.514 C 10.023 9.695,10.019 9.722,9.997 10.480 C 9.984 10.934,9.955 11.307,9.927 11.373 C 9.846 11.567,9.675 11.760,9.484 11.872 C 9.328 11.963,9.254 11.980,9.000 11.980 C 8.746 11.980,8.672 11.963,8.516 11.872 C 8.326 11.760,8.155 11.568,8.072 11.373 C 8.043 11.305,8.015 10.947,8.002 10.480 C 7.981 9.721,7.977 9.695,7.871 9.514 C 7.479 8.848,6.521 8.848,6.129 9.514 L 6.020 9.700 6.000 11.980 C 5.985 13.681,5.967 14.289,5.930 14.373 C 5.842 14.572,5.672 14.761,5.484 14.872 C 5.328 14.963,5.254 14.980,5.000 14.980 C 4.746 14.980,4.672 14.963,4.516 14.872 C 4.327 14.761,4.156 14.569,4.071 14.373 C 4.038 14.296,4.016 13.854,4.001 12.980 L 3.980 11.700 3.871 11.514 C 3.479 10.848,2.521 10.848,2.129 11.514 L 2.020 11.700 2.020 13.120 C 2.020 14.497,2.023 14.549,2.114 14.840 C 2.422 15.827,3.174 16.579,4.160 16.886 C 4.594 17.021,5.406 17.021,5.840 16.886 C 6.239 16.762,6.609 16.563,6.891 16.321 C 7.575 15.736,7.933 15.046,7.988 14.208 C 8.006 13.929,8.025 13.841,8.064 13.856 C 8.303 13.948,8.528 13.977,9.000 13.978 C 9.457 13.979,9.586 13.965,9.839 13.886 C 10.221 13.766,10.530 13.609,10.792 13.402 L 11.000 13.238 11.208 13.402 C 11.470 13.609,11.779 13.766,12.161 13.886 C 12.593 14.021,13.406 14.021,13.840 13.886 C 14.826 13.579,15.578 12.827,15.886 11.840 C 15.977 11.549,15.980 11.497,15.980 10.120 L 15.980 8.700 15.872 8.516 C 15.628 8.101,15.150 7.915,14.695 8.057 M21.695 9.057 C 21.466 9.129,21.256 9.299,21.128 9.516 C 21.022 9.697,21.020 9.713,20.993 10.640 C 20.965 11.602,20.923 11.914,20.762 12.344 C 20.353 13.438,19.548 14.272,18.479 14.711 C 18.120 14.859,17.460 15.000,17.130 15.000 C 16.667 15.000,16.329 15.174,16.128 15.516 C 16.037 15.672,16.020 15.746,16.020 16.000 C 16.020 16.257,16.036 16.327,16.133 16.492 C 16.263 16.714,16.502 16.901,16.736 16.965 C 16.958 17.026,17.651 16.984,18.169 16.878 C 19.342 16.640,20.339 16.110,21.195 15.269 C 22.068 14.412,22.619 13.398,22.885 12.160 C 22.965 11.788,22.976 11.622,22.978 10.720 L 22.980 9.700 22.872 9.516 C 22.628 9.101,22.150 8.915,21.695 9.057 M17.695 11.057 C 17.466 11.129,17.256 11.299,17.128 11.516 C 17.036 11.672,17.020 11.745,17.021 12.000 C 17.022 12.332,17.101 12.533,17.306 12.728 C 17.785 13.181,18.580 13.046,18.893 12.460 C 19.025 12.211,19.015 11.760,18.872 11.516 C 18.628 11.101,18.150 10.915,17.695 11.057 " stroke="none" fill-rule="evenodd" fill="black"></path></svg>