<svg xmlns="http://www.w3.org/2000/svg" width="24" height="24" viewBox="0 0 24 24" fill="none" stroke="currentColor" stroke-width="2" stroke-linecap="round" stroke-linejoin="round"><path d="M7.695 4.057 C 7.466 4.129,7.256 4.299,7.128 4.516 L 7.020 4.700 7.009 7.350 L 6.998 10.000 6.445 10.000 C 5.648 10.000,5.367 10.110,5.128 10.516 C 5.037 10.672,5.020 10.746,5.020 11.000 C 5.020 11.256,5.036 11.328,5.131 11.489 C 5.256 11.702,5.449 11.864,5.670 11.943 C 5.768 11.978,6.023 11.997,6.410 11.998 L 7.000 12.000 7.000 13.000 L 7.000 14.000 6.446 14.000 C 5.648 14.000,5.367 14.110,5.128 14.516 C 5.037 14.672,5.020 14.746,5.020 15.000 C 5.020 15.256,5.036 15.328,5.131 15.489 C 5.256 15.702,5.449 15.864,5.670 15.943 C 5.768 15.978,6.022 15.997,6.408 15.998 L 6.997 16.000 7.008 17.653 L 7.020 19.306 7.141 19.503 C 7.543 20.156,8.457 20.156,8.859 19.503 L 8.980 19.306 8.992 17.653 L 9.003 16.000 11.592 15.998 C 13.649 15.997,14.211 15.986,14.330 15.943 C 14.551 15.864,14.744 15.702,14.869 15.489 C 14.964 15.328,14.980 15.256,14.980 15.000 C 14.980 14.746,14.963 14.672,14.872 14.516 C 14.813 14.415,14.698 14.282,14.618 14.221 C 14.328 14.000,14.325 14.000,11.554 14.000 L 9.000 14.000 9.000 13.000 L 9.000 12.000 11.684 12.000 C 14.204 12.000,14.391 11.995,14.757 11.921 C 16.117 11.643,17.193 10.755,17.704 9.488 C 18.090 8.530,18.090 7.469,17.705 6.516 C 17.172 5.197,16.001 4.269,14.605 4.058 C 14.071 3.978,7.951 3.977,7.695 4.057 M14.523 6.073 C 15.262 6.266,15.850 6.924,15.967 7.690 C 16.029 8.098,15.967 8.522,15.793 8.880 C 15.638 9.198,15.227 9.625,14.930 9.775 C 14.485 10.000,14.489 10.000,11.632 10.000 L 9.000 10.000 9.000 8.000 L 9.000 6.000 11.630 6.002 C 13.982 6.004,14.288 6.012,14.523 6.073 " stroke="none" fill-rule="evenodd" fill="black"></path></svg>