<svg xmlns="http://www.w3.org/2000/svg" width="24" height="24" viewBox="0 0 24 24" fill="none" stroke="currentColor" stroke-width="2" stroke-linecap="round" stroke-linejoin="round"><path d="M5.695 5.056 C 5.465 5.130,5.255 5.300,5.128 5.516 C 5.037 5.672,5.020 5.746,5.020 6.000 C 5.020 6.256,5.036 6.328,5.131 6.489 C 5.192 6.592,5.304 6.725,5.381 6.783 C 5.643 6.983,5.738 6.996,6.910 6.998 L 8.000 7.000 8.000 9.000 L 8.000 11.000 6.946 11.000 C 5.797 11.000,5.644 11.022,5.382 11.221 C 5.302 11.282,5.187 11.415,5.128 11.516 C 5.037 11.672,5.020 11.746,5.020 12.000 C 5.020 12.256,5.036 12.328,5.131 12.489 C 5.192 12.592,5.304 12.725,5.381 12.783 C 5.643 12.983,5.738 12.996,6.910 12.998 L 8.000 13.000 8.000 15.000 L 8.000 17.000 6.946 17.000 C 5.797 17.000,5.644 17.022,5.382 17.221 C 5.302 17.282,5.187 17.415,5.128 17.516 C 5.037 17.672,5.020 17.746,5.020 18.000 C 5.020 18.257,5.036 18.327,5.133 18.492 C 5.262 18.711,5.502 18.901,5.728 18.962 C 5.833 18.990,7.011 18.999,9.352 18.988 C 13.008 18.971,12.968 18.973,13.720 18.783 C 15.947 18.219,17.794 16.543,18.573 14.380 C 18.876 13.538,18.977 12.944,18.977 12.000 C 18.977 11.615,18.954 11.156,18.926 10.980 C 18.433 7.924,16.177 5.636,13.120 5.091 C 12.640 5.005,5.951 4.974,5.695 5.056 M12.552 7.043 C 14.413 7.246,16.001 8.479,16.680 10.248 C 17.092 11.320,17.085 12.720,16.663 13.793 C 16.120 15.174,14.990 16.258,13.600 16.732 C 12.952 16.952,12.796 16.970,11.350 16.989 L 10.000 17.006 10.000 15.003 L 10.000 13.000 11.090 12.998 C 12.262 12.996,12.357 12.983,12.619 12.783 C 12.696 12.725,12.808 12.592,12.869 12.489 C 12.964 12.328,12.980 12.256,12.980 12.000 C 12.980 11.746,12.963 11.672,12.872 11.516 C 12.813 11.415,12.698 11.282,12.618 11.221 C 12.356 11.022,12.203 11.000,11.054 11.000 L 10.000 11.000 10.000 9.000 L 10.000 7.000 11.082 7.000 C 11.676 7.000,12.338 7.019,12.552 7.043 " stroke="none" fill-rule="evenodd" fill="black"></path></svg>