<svg xmlns="http://www.w3.org/2000/svg" width="24" height="24" viewBox="0 0 24 24" fill="none" stroke="currentColor" stroke-width="2" stroke-linecap="round" stroke-linejoin="round"><path d="M12.060 4.119 C 10.048 4.523,8.580 5.967,8.093 8.020 C 8.038 8.253,8.024 8.608,8.011 10.147 L 7.994 11.993 7.307 12.007 C 6.695 12.019,6.603 12.030,6.460 12.107 C 6.107 12.297,5.912 12.615,5.912 13.000 C 5.912 13.405,6.119 13.724,6.500 13.905 C 6.685 13.992,6.750 13.999,7.352 14.000 L 8.005 14.000 7.992 15.330 C 7.977 16.853,7.971 16.882,7.605 17.366 C 7.389 17.651,7.244 17.761,6.784 17.986 C 6.379 18.184,6.153 18.401,6.060 18.679 C 5.829 19.376,6.379 20.063,7.109 19.988 C 7.264 19.972,7.467 19.898,7.789 19.740 C 8.332 19.474,8.382 19.453,8.720 19.360 C 9.615 19.113,10.749 19.135,11.542 19.416 C 13.114 19.972,13.347 20.019,14.500 20.019 C 15.143 20.018,15.425 20.002,15.700 19.947 C 16.543 19.781,17.398 19.473,17.648 19.248 C 18.079 18.859,18.111 18.257,17.724 17.828 C 17.419 17.489,16.993 17.428,16.451 17.645 C 15.688 17.950,15.087 18.059,14.324 18.028 C 13.743 18.005,13.368 17.937,12.907 17.773 C 11.715 17.350,11.345 17.262,10.498 17.201 C 10.196 17.180,9.940 17.154,9.930 17.143 C 9.920 17.133,9.931 17.009,9.956 16.869 C 9.982 16.717,10.000 16.086,10.000 15.307 L 10.000 14.000 12.050 14.000 L 14.100 13.999 14.300 13.905 C 14.681 13.724,14.888 13.405,14.888 13.000 C 14.888 12.615,14.693 12.297,14.340 12.106 C 14.183 12.021,14.145 12.020,12.090 12.009 L 10.000 11.997 10.001 10.389 C 10.003 8.655,10.026 8.385,10.211 7.926 C 10.376 7.518,10.562 7.243,10.906 6.896 C 11.181 6.618,11.295 6.536,11.646 6.364 C 12.130 6.125,12.492 6.040,13.013 6.041 C 13.518 6.042,13.867 6.125,14.338 6.357 C 14.833 6.600,15.182 6.907,15.502 7.379 C 15.882 7.937,16.268 8.108,16.765 7.939 C 17.326 7.748,17.597 7.113,17.344 6.580 C 17.194 6.263,16.852 5.807,16.502 5.458 C 15.824 4.782,14.828 4.269,13.865 4.102 C 13.381 4.018,12.525 4.026,12.060 4.119 " stroke="none" fill-rule="evenodd" fill="black"></path></svg>