<svg xmlns="http://www.w3.org/2000/svg" width="24" height="24" viewBox="0 0 24 24" fill="none" stroke="currentColor" stroke-width="2" stroke-linecap="round" stroke-linejoin="round"><path d="M9.695 4.057 C 9.466 4.129,9.256 4.299,9.128 4.516 L 9.020 4.700 9.007 5.691 L 8.995 6.681 8.795 6.782 C 7.057 7.663,5.699 9.370,5.223 11.275 C 5.064 11.908,5.023 12.264,5.023 13.000 C 5.023 13.736,5.064 14.092,5.223 14.725 C 5.498 15.827,6.019 16.792,6.833 17.710 L 7.090 18.000 6.491 18.000 C 5.644 18.000,5.371 18.103,5.128 18.516 C 5.037 18.672,5.020 18.746,5.020 19.000 C 5.020 19.256,5.036 19.328,5.131 19.489 C 5.256 19.702,5.449 19.864,5.670 19.943 C 5.892 20.022,18.108 20.022,18.330 19.943 C 18.551 19.864,18.744 19.702,18.869 19.489 C 18.964 19.328,18.980 19.256,18.980 19.000 C 18.980 18.746,18.963 18.672,18.872 18.516 C 18.761 18.328,18.572 18.158,18.373 18.070 C 18.287 18.032,17.438 18.015,14.780 17.997 C 10.980 17.973,11.135 17.982,10.400 17.732 C 8.810 17.189,7.580 15.864,7.161 14.240 C 6.920 13.307,6.983 12.125,7.320 11.248 C 7.583 10.563,8.035 9.886,8.569 9.378 C 8.764 9.192,8.940 9.040,8.960 9.040 C 8.981 9.040,9.002 9.732,9.008 10.673 L 9.020 12.306 9.141 12.503 C 9.543 13.156,10.457 13.156,10.859 12.503 L 10.980 12.306 10.991 10.196 L 11.003 8.087 11.311 8.053 C 11.481 8.035,11.791 8.020,12.000 8.020 C 12.209 8.020,12.519 8.035,12.689 8.053 L 12.997 8.087 13.009 10.196 L 13.020 12.306 13.141 12.503 C 13.543 13.156,14.457 13.156,14.859 12.503 L 14.980 12.306 14.992 10.673 C 14.998 9.732,15.019 9.040,15.040 9.040 C 15.123 9.040,15.805 9.743,16.037 10.068 C 16.611 10.873,16.881 11.608,16.965 12.600 C 16.990 12.897,17.026 13.205,17.045 13.284 C 17.096 13.495,17.290 13.739,17.508 13.867 C 17.673 13.964,17.743 13.980,18.000 13.980 C 18.257 13.980,18.327 13.964,18.492 13.867 C 18.714 13.737,18.901 13.498,18.965 13.264 C 19.045 12.972,18.961 12.016,18.795 11.340 C 18.321 9.399,16.961 7.672,15.205 6.782 L 15.005 6.681 14.993 5.691 L 14.980 4.700 14.871 4.514 C 14.479 3.848,13.521 3.848,13.129 4.514 C 13.023 4.694,13.020 4.722,13.007 5.392 L 12.993 6.084 12.807 6.054 C 12.565 6.015,11.435 6.015,11.193 6.054 L 11.007 6.084 10.993 5.392 C 10.980 4.724,10.976 4.694,10.872 4.516 C 10.628 4.101,10.150 3.915,9.695 4.057 " stroke="none" fill-rule="evenodd" fill="black"></path></svg>