<svg xmlns="http://www.w3.org/2000/svg" width="24" height="24" viewBox="0 0 24 24" fill="none" stroke="currentColor" stroke-width="2" stroke-linecap="round" stroke-linejoin="round"><path d="M9.240 4.035 C 8.946 4.131,8.688 4.355,8.585 4.602 C 8.552 4.681,8.334 6.085,8.100 7.722 C 7.866 9.360,7.662 10.711,7.647 10.724 C 7.632 10.737,6.936 11.050,6.100 11.420 C 5.264 11.790,4.514 12.134,4.434 12.184 C 4.261 12.293,4.140 12.454,4.059 12.682 C 3.837 13.312,4.332 14.000,5.006 14.000 C 5.193 14.000,5.435 13.909,6.476 13.443 C 6.925 13.243,7.300 13.087,7.310 13.097 C 7.320 13.107,7.207 13.967,7.059 15.008 C 6.765 17.078,6.758 17.207,6.923 17.801 C 7.062 18.302,7.294 18.695,7.679 19.084 C 8.068 19.476,8.377 19.671,8.898 19.853 L 9.260 19.980 13.692 19.991 C 16.620 19.998,18.175 19.988,18.276 19.961 C 18.498 19.901,18.739 19.710,18.867 19.492 C 18.964 19.327,18.980 19.257,18.980 19.000 C 18.980 18.746,18.963 18.672,18.872 18.516 C 18.813 18.415,18.698 18.282,18.618 18.221 C 18.319 17.993,18.469 18.000,13.879 18.000 C 9.290 18.000,9.484 18.009,9.186 17.782 C 9.018 17.653,8.846 17.340,8.819 17.114 C 8.807 17.005,8.931 16.031,9.150 14.520 L 9.500 12.100 12.020 10.980 C 14.199 10.011,14.562 9.837,14.704 9.697 C 14.881 9.521,15.000 9.241,15.000 9.000 C 15.000 8.437,14.477 7.956,13.921 8.009 C 13.787 8.022,13.165 8.279,11.796 8.887 C 10.731 9.360,9.856 9.737,9.850 9.724 C 9.845 9.711,9.992 8.636,10.177 7.337 C 10.460 5.355,10.508 4.945,10.475 4.797 C 10.410 4.505,10.211 4.250,9.943 4.112 C 9.771 4.024,9.399 3.983,9.240 4.035 " stroke="none" fill-rule="evenodd" fill="black"></path></svg>