<svg xmlns="http://www.w3.org/2000/svg" width="24" height="24" viewBox="0 0 24 24" fill="none" stroke="currentColor" stroke-width="2" stroke-linecap="round" stroke-linejoin="round"><path d="M6.670 4.061 C 6.175 4.243,5.902 4.767,6.042 5.267 C 6.082 5.409,6.674 6.267,8.424 8.718 L 10.754 11.980 9.247 12.000 C 8.171 12.015,7.708 12.035,7.627 12.070 C 7.429 12.158,7.239 12.327,7.128 12.516 C 7.037 12.672,7.020 12.746,7.020 13.000 C 7.020 13.256,7.036 13.328,7.131 13.489 C 7.192 13.592,7.304 13.725,7.381 13.783 C 7.654 13.991,7.700 13.996,9.409 13.998 L 10.998 14.000 11.009 16.653 L 11.020 19.306 11.141 19.503 C 11.209 19.613,11.346 19.756,11.452 19.828 C 11.923 20.144,12.554 19.999,12.859 19.503 L 12.980 19.306 12.991 16.653 L 13.002 14.000 14.591 13.998 C 16.300 13.996,16.346 13.991,16.619 13.783 C 16.696 13.725,16.808 13.592,16.869 13.489 C 16.964 13.328,16.980 13.256,16.980 13.000 C 16.980 12.746,16.963 12.672,16.872 12.516 C 16.761 12.327,16.571 12.158,16.373 12.070 C 16.292 12.035,15.829 12.015,14.753 12.000 L 13.246 11.980 15.576 8.718 C 17.326 6.267,17.918 5.409,17.958 5.267 C 18.172 4.503,17.426 3.797,16.682 4.059 C 16.590 4.092,16.462 4.156,16.396 4.203 C 16.331 4.249,15.321 5.626,14.152 7.263 C 12.983 8.901,12.014 10.240,12.000 10.240 C 11.986 10.240,11.017 8.901,9.848 7.263 C 8.679 5.626,7.669 4.249,7.604 4.203 C 7.331 4.008,6.964 3.953,6.670 4.061 " stroke="none" fill-rule="evenodd" fill="black"></path></svg>