<svg xmlns="http://www.w3.org/2000/svg" width="24" height="24" viewBox="0 0 24 24" fill="none" stroke="currentColor" stroke-width="2" stroke-linecap="round" stroke-linejoin="round"><path d="M4.670 4.061 C 4.448 4.142,4.250 4.309,4.128 4.516 C 4.037 4.672,4.020 4.746,4.020 5.000 C 4.020 5.253,4.037 5.328,4.127 5.480 C 4.288 5.752,8.185 9.607,8.585 9.891 C 10.663 11.362,13.337 11.362,15.415 9.891 C 15.815 9.607,19.712 5.752,19.873 5.480 C 19.963 5.328,19.980 5.253,19.980 5.000 C 19.980 4.746,19.963 4.672,19.872 4.516 C 19.618 4.084,19.137 3.906,18.657 4.066 C 18.480 4.125,18.253 4.337,16.420 6.159 C 14.286 8.280,14.131 8.415,13.530 8.676 C 13.000 8.908,12.648 8.977,12.000 8.977 C 11.352 8.977,11.000 8.908,10.470 8.676 C 9.869 8.415,9.714 8.280,7.580 6.159 C 5.747 4.337,5.520 4.125,5.343 4.066 C 5.108 3.987,4.875 3.986,4.670 4.061 M11.360 13.046 C 10.370 13.149,9.349 13.550,8.512 14.166 C 8.110 14.463,4.282 18.259,4.134 18.508 C 3.862 18.968,4.032 19.587,4.508 19.867 C 4.673 19.964,4.742 19.980,5.000 19.979 C 5.213 19.979,5.341 19.957,5.440 19.905 C 5.517 19.864,6.489 18.927,7.600 17.823 C 8.770 16.660,9.713 15.754,9.840 15.672 C 10.224 15.425,10.642 15.235,11.037 15.130 C 11.364 15.043,11.506 15.028,12.000 15.028 C 12.494 15.028,12.636 15.043,12.963 15.130 C 13.358 15.235,13.777 15.425,14.160 15.672 C 14.287 15.754,15.246 16.675,16.420 17.842 C 18.253 19.663,18.480 19.875,18.657 19.934 C 19.050 20.065,19.411 19.983,19.698 19.696 C 20.018 19.376,20.088 18.882,19.866 18.508 C 19.718 18.259,15.890 14.463,15.488 14.166 C 14.624 13.530,13.631 13.148,12.566 13.041 C 12.096 12.994,11.847 12.995,11.360 13.046 " stroke="none" fill-rule="evenodd" fill="black"></path></svg>