<svg xmlns="http://www.w3.org/2000/svg" width="24" height="24" viewBox="0 0 24 24" fill="none" stroke="currentColor" stroke-width="2" stroke-linecap="round" stroke-linejoin="round"><path d="M3.670 3.061 C 3.448 3.142,3.250 3.309,3.128 3.516 C 3.037 3.672,3.020 3.746,3.020 4.000 C 3.020 4.254,3.036 4.328,3.127 4.480 C 3.186 4.579,3.783 5.207,4.452 5.875 L 5.670 7.089 5.368 7.535 C 3.552 10.218,3.552 13.782,5.368 16.465 L 5.670 16.911 4.452 18.125 C 3.783 18.793,3.186 19.421,3.127 19.520 C 3.036 19.672,3.020 19.746,3.020 20.000 C 3.020 20.257,3.036 20.327,3.133 20.492 C 3.413 20.968,4.033 21.139,4.492 20.865 C 4.584 20.810,5.207 20.217,5.875 19.548 L 7.089 18.330 7.535 18.632 C 8.831 19.509,10.433 20.000,12.000 20.000 C 13.567 20.000,15.169 19.509,16.465 18.632 L 16.911 18.330 18.125 19.548 C 18.793 20.217,19.421 20.814,19.520 20.873 C 19.672 20.964,19.746 20.980,20.000 20.980 C 20.257 20.980,20.327 20.964,20.492 20.867 C 20.968 20.587,21.139 19.967,20.865 19.508 C 20.810 19.416,20.217 18.793,19.548 18.125 L 18.330 16.911 18.632 16.465 C 20.448 13.782,20.448 10.218,18.632 7.535 L 18.330 7.089 19.548 5.875 C 20.217 5.207,20.814 4.579,20.873 4.480 C 20.964 4.328,20.980 4.254,20.980 4.000 C 20.980 3.746,20.963 3.672,20.872 3.516 C 20.618 3.084,20.137 2.906,19.657 3.066 C 19.483 3.124,19.308 3.283,18.180 4.401 L 16.900 5.670 16.500 5.392 C 16.009 5.051,15.126 4.611,14.548 4.419 C 12.927 3.880,11.118 3.875,9.502 4.404 C 8.886 4.606,8.012 5.037,7.500 5.392 L 7.100 5.670 5.820 4.401 C 4.692 3.283,4.517 3.124,4.343 3.066 C 4.108 2.987,3.875 2.985,3.670 3.061 M12.564 6.039 C 14.921 6.269,16.913 7.837,17.671 10.060 C 18.168 11.517,18.068 13.251,17.410 14.580 C 16.550 16.316,15.056 17.478,13.160 17.885 C 12.554 18.015,11.446 18.015,10.840 17.885 C 8.941 17.478,7.451 16.319,6.590 14.580 C 5.932 13.251,5.832 11.517,6.329 10.060 C 6.618 9.212,7.080 8.470,7.731 7.805 C 9.008 6.503,10.757 5.864,12.564 6.039 " stroke="none" fill-rule="evenodd" fill="black"></path></svg>