<svg xmlns="http://www.w3.org/2000/svg" width="24" height="24" viewBox="0 0 24 24" fill="none" stroke="currentColor" stroke-width="2" stroke-linecap="round" stroke-linejoin="round"><path d="M7.527 5.081 C 6.802 5.271,6.196 5.905,6.044 6.632 C 6.018 6.756,6.000 7.289,6.000 7.922 L 6.000 9.000 5.446 9.000 C 4.648 9.000,4.367 9.110,4.128 9.516 C 4.037 9.672,4.020 9.746,4.020 10.000 C 4.020 10.256,4.036 10.328,4.131 10.489 C 4.256 10.702,4.449 10.864,4.670 10.943 C 4.768 10.978,5.023 10.997,5.410 10.998 L 6.000 11.000 6.000 12.000 L 6.000 13.000 5.446 13.000 C 4.648 13.000,4.367 13.110,4.128 13.516 C 4.037 13.672,4.020 13.746,4.020 14.000 C 4.020 14.256,4.036 14.328,4.131 14.489 C 4.256 14.702,4.449 14.864,4.670 14.943 C 4.768 14.978,5.022 14.997,5.408 14.998 L 5.997 15.000 6.008 16.653 L 6.020 18.306 6.141 18.503 C 6.543 19.156,7.457 19.156,7.859 18.503 L 7.980 18.306 7.992 16.653 L 8.003 14.999 10.268 15.010 L 12.532 15.020 13.397 16.580 C 14.149 17.937,14.293 18.171,14.502 18.380 C 15.148 19.027,16.043 19.174,16.880 18.772 C 17.194 18.621,17.635 18.169,17.789 17.840 C 17.978 17.439,18.000 17.253,18.000 16.078 L 18.000 15.000 18.590 14.998 C 18.977 14.997,19.232 14.978,19.330 14.943 C 19.551 14.864,19.744 14.702,19.869 14.489 C 19.964 14.328,19.980 14.256,19.980 14.000 C 19.980 13.746,19.963 13.672,19.872 13.516 C 19.633 13.110,19.352 13.000,18.554 13.000 L 18.000 13.000 18.000 12.000 L 18.000 11.000 18.590 10.998 C 18.977 10.997,19.232 10.978,19.330 10.943 C 19.551 10.864,19.744 10.702,19.869 10.489 C 19.964 10.328,19.980 10.256,19.980 10.000 C 19.980 9.746,19.963 9.672,19.872 9.516 C 19.633 9.110,19.352 9.000,18.555 9.000 L 18.003 9.000 17.992 7.350 L 17.980 5.700 17.871 5.514 C 17.479 4.848,16.521 4.848,16.129 5.514 L 16.020 5.700 16.008 7.350 L 15.997 9.001 13.732 8.990 L 11.467 8.980 10.741 7.672 C 9.737 5.866,9.664 5.747,9.430 5.542 C 8.881 5.062,8.215 4.901,7.527 5.081 M8.624 7.982 C 8.918 8.509,9.159 8.954,9.159 8.970 C 9.160 8.986,8.899 9.000,8.580 9.000 L 8.000 9.000 8.000 7.997 C 8.000 7.273,8.013 6.998,8.045 7.008 C 8.070 7.017,8.330 7.455,8.624 7.982 M10.739 11.790 C 10.981 12.225,11.229 12.675,11.292 12.790 L 11.406 13.000 9.703 13.000 L 8.000 13.000 8.000 12.000 L 8.000 11.000 9.150 11.000 L 10.300 11.000 10.739 11.790 M16.000 12.000 L 16.000 13.000 14.850 13.000 L 13.700 13.000 13.261 12.210 C 13.019 11.775,12.771 11.325,12.708 11.210 L 12.594 11.000 14.297 11.000 L 16.000 11.000 16.000 12.000 M16.000 16.003 C 16.000 16.727,15.987 17.002,15.955 16.992 C 15.913 16.978,14.843 15.094,14.841 15.030 C 14.840 15.013,15.101 15.000,15.420 15.000 L 16.000 15.000 16.000 16.003 " stroke="none" fill-rule="evenodd" fill="black"></path></svg>