<svg xmlns="http://www.w3.org/2000/svg" width="24" height="24" viewBox="0 0 24 24" fill="none" stroke="currentColor" stroke-width="2" stroke-linecap="round" stroke-linejoin="round"><path d="M11.695 3.057 C 11.466 3.129,11.256 3.299,11.128 3.516 C 11.024 3.694,11.020 3.724,11.007 4.389 L 10.993 5.078 10.847 5.100 C 10.324 5.181,9.364 5.494,8.875 5.741 C 7.338 6.521,6.103 7.874,5.496 9.444 C 5.166 10.300,5.024 11.069,5.024 12.000 C 5.024 12.931,5.166 13.700,5.496 14.555 C 6.114 16.156,7.336 17.487,8.910 18.274 C 9.443 18.541,10.273 18.812,10.827 18.899 L 10.993 18.926 11.007 19.616 C 11.020 20.305,11.020 20.307,11.141 20.503 C 11.543 21.156,12.457 21.156,12.859 20.503 C 12.980 20.307,12.980 20.304,12.993 19.619 L 13.006 18.931 13.349 18.864 C 14.543 18.629,15.801 17.996,16.649 17.202 C 17.563 16.346,17.939 15.142,17.988 12.916 C 18.014 11.717,17.993 11.600,17.698 11.304 C 17.390 10.996,17.425 11.000,15.073 11.000 L 13.000 11.000 13.000 9.060 C 13.000 7.297,13.006 7.120,13.065 7.120 C 13.200 7.120,13.982 7.408,14.314 7.580 C 14.504 7.678,14.813 7.876,15.000 8.020 C 15.532 8.430,15.609 8.476,15.823 8.517 C 16.182 8.585,16.481 8.478,16.749 8.187 C 16.999 7.916,17.065 7.565,16.936 7.188 C 16.889 7.048,16.801 6.934,16.588 6.737 C 15.794 6.002,14.507 5.366,13.353 5.139 L 13.006 5.070 12.993 4.385 C 12.980 3.724,12.976 3.693,12.872 3.516 C 12.628 3.101,12.150 2.915,11.695 3.057 M11.000 12.004 L 11.000 16.889 10.850 16.861 C 10.577 16.811,10.106 16.633,9.707 16.430 C 8.330 15.727,7.338 14.361,7.075 12.806 C 7.018 12.463,7.018 11.537,7.075 11.194 C 7.380 9.390,8.663 7.870,10.380 7.279 C 10.730 7.158,10.824 7.132,10.930 7.125 C 10.996 7.120,11.000 7.377,11.000 12.004 M15.982 13.370 C 15.892 14.620,15.681 15.364,15.314 15.721 C 15.065 15.964,14.633 16.260,14.240 16.459 C 13.921 16.620,13.191 16.880,13.060 16.880 C 13.008 16.880,13.000 16.631,13.000 14.940 L 13.000 13.000 14.504 13.000 L 16.008 13.000 15.982 13.370 " stroke="none" fill-rule="evenodd" fill="black"></path></svg>