<svg xmlns="http://www.w3.org/2000/svg" width="24" height="24" viewBox="0 0 24 24" fill="none" stroke="currentColor" stroke-width="2" stroke-linecap="round" stroke-linejoin="round"><path d="M10.499 4.043 C 9.393 4.228,8.488 5.024,8.114 6.140 L 8.020 6.420 8.009 10.210 L 7.997 14.000 7.445 14.000 C 6.648 14.000,6.367 14.110,6.128 14.516 C 6.037 14.672,6.020 14.746,6.020 15.000 C 6.020 15.256,6.036 15.328,6.131 15.489 C 6.256 15.702,6.449 15.864,6.670 15.943 C 6.768 15.978,7.022 15.997,7.408 15.998 L 7.997 16.000 8.008 17.653 L 8.020 19.306 8.141 19.503 C 8.543 20.156,9.457 20.156,9.859 19.503 L 9.980 19.306 9.992 17.653 L 10.003 16.000 10.592 15.998 C 10.978 15.997,11.232 15.978,11.330 15.943 C 11.551 15.864,11.744 15.702,11.869 15.489 C 11.964 15.328,11.980 15.256,11.980 15.000 C 11.980 14.746,11.963 14.672,11.872 14.516 C 11.633 14.110,11.352 14.000,10.554 14.000 L 10.000 14.000 10.000 13.000 L 10.000 12.000 13.090 11.998 C 15.567 11.997,16.210 11.986,16.330 11.943 C 16.551 11.864,16.744 11.702,16.869 11.489 C 16.964 11.328,16.980 11.256,16.980 11.000 C 16.980 10.746,16.963 10.672,16.872 10.516 C 16.813 10.415,16.698 10.282,16.618 10.221 C 16.325 9.997,16.367 10.000,13.054 10.000 L 10.000 10.000 10.000 8.447 C 10.000 6.650,10.007 6.599,10.303 6.303 C 10.618 5.988,10.471 6.000,14.037 5.998 C 16.558 5.997,17.210 5.986,17.330 5.943 C 17.551 5.864,17.744 5.702,17.869 5.489 C 17.964 5.328,17.980 5.256,17.980 5.000 C 17.980 4.746,17.963 4.672,17.872 4.516 C 17.813 4.415,17.698 4.282,17.618 4.221 C 17.323 3.996,17.382 4.000,13.904 4.005 C 12.142 4.007,10.609 4.025,10.499 4.043 " stroke="none" fill-rule="evenodd" fill="black"></path></svg>