<svg xmlns="http://www.w3.org/2000/svg" width="24" height="24" viewBox="0 0 24 24" fill="none" stroke="currentColor" stroke-width="2" stroke-linecap="round" stroke-linejoin="round"><path d="M5.695 6.055 C 5.464 6.130,5.255 6.300,5.128 6.516 L 5.020 6.700 5.009 11.850 L 4.999 17.000 3.946 17.000 C 2.797 17.000,2.644 17.022,2.382 17.221 C 2.302 17.282,2.187 17.415,2.128 17.516 C 2.037 17.672,2.020 17.746,2.020 18.000 C 2.020 18.256,2.036 18.328,2.131 18.489 C 2.256 18.702,2.449 18.864,2.670 18.943 C 2.888 19.021,6.112 19.021,6.330 18.943 C 6.551 18.864,6.744 18.702,6.869 18.489 L 6.980 18.300 7.000 14.015 L 7.020 9.730 9.190 12.261 C 11.620 15.096,11.498 14.980,12.020 14.980 C 12.251 14.980,12.332 14.961,12.482 14.873 C 12.618 14.793,13.202 14.139,14.822 12.248 L 16.980 9.729 17.000 14.015 L 17.020 18.300 17.131 18.489 C 17.192 18.592,17.304 18.725,17.381 18.783 C 17.656 18.993,17.692 18.996,19.500 18.996 C 21.308 18.996,21.344 18.993,21.619 18.783 C 21.696 18.725,21.808 18.592,21.869 18.489 C 21.964 18.328,21.980 18.256,21.980 18.000 C 21.980 17.746,21.963 17.672,21.872 17.516 C 21.813 17.415,21.698 17.282,21.618 17.221 C 21.356 17.022,21.203 17.000,20.054 17.000 L 19.000 17.000 19.000 11.925 C 19.000 6.397,19.011 6.680,18.778 6.374 C 18.723 6.301,18.592 6.192,18.489 6.131 C 18.331 6.038,18.254 6.020,18.020 6.020 C 17.493 6.020,17.672 5.842,14.697 9.314 C 13.232 11.022,12.019 12.420,12.000 12.420 C 11.981 12.420,10.770 11.025,9.308 9.320 C 6.420 5.950,6.521 6.054,6.070 6.017 C 5.954 6.008,5.786 6.025,5.695 6.055 " stroke="none" fill-rule="evenodd" fill="black"></path></svg>