<svg xmlns="http://www.w3.org/2000/svg" width="24" height="24" viewBox="0 0 24 24" fill="none" stroke="currentColor" stroke-width="2" stroke-linecap="round" stroke-linejoin="round"><path d="M17.670 7.057 C 17.291 7.192,17.043 7.522,17.010 7.935 C 16.995 8.131,17.008 8.225,17.070 8.363 C 17.113 8.460,17.772 9.447,18.533 10.556 C 19.702 12.259,19.924 12.605,19.965 12.786 C 20.063 13.224,19.855 13.675,19.461 13.878 C 19.264 13.979,19.256 13.980,18.001 14.001 C 17.138 14.016,16.704 14.038,16.627 14.071 C 16.430 14.157,16.239 14.327,16.128 14.516 C 16.037 14.672,16.020 14.746,16.020 15.000 C 16.020 15.256,16.036 15.328,16.131 15.489 C 16.256 15.702,16.449 15.864,16.670 15.943 C 16.860 16.011,19.165 16.022,19.488 15.957 C 19.952 15.863,20.415 15.670,20.769 15.422 C 20.930 15.310,21.328 14.902,21.448 14.729 C 21.618 14.481,21.816 14.060,21.902 13.760 C 21.957 13.568,21.977 13.369,21.977 13.000 C 21.977 12.436,21.918 12.165,21.693 11.700 C 21.528 11.360,18.911 7.528,18.684 7.294 C 18.425 7.028,18.018 6.933,17.670 7.057 M2.695 9.057 C 2.466 9.129,2.256 9.299,2.128 9.516 L 2.020 9.700 2.020 10.660 C 2.020 11.697,2.056 11.980,2.268 12.600 C 2.846 14.291,4.253 15.525,6.040 15.907 C 6.336 15.971,6.583 15.980,7.960 15.980 C 9.505 15.980,9.547 15.978,9.840 15.886 C 10.827 15.578,11.578 14.827,11.886 13.840 C 11.979 13.543,11.980 13.521,11.980 11.620 L 11.980 9.700 11.871 9.514 C 11.479 8.848,10.521 8.848,10.129 9.514 L 10.020 9.700 9.999 11.480 C 9.985 12.768,9.965 13.291,9.929 13.373 C 9.842 13.571,9.673 13.761,9.484 13.872 L 9.300 13.980 7.880 13.980 C 6.503 13.980,6.451 13.977,6.160 13.886 C 5.179 13.580,4.413 12.817,4.126 11.861 C 4.041 11.578,4.027 11.431,4.005 10.620 C 3.980 9.714,3.978 9.697,3.872 9.516 C 3.628 9.101,3.150 8.915,2.695 9.057 M13.695 14.057 C 13.466 14.129,13.256 14.299,13.128 14.516 C 13.036 14.672,13.020 14.745,13.021 15.000 C 13.022 15.332,13.101 15.533,13.306 15.728 C 13.785 16.181,14.580 16.046,14.893 15.460 C 15.025 15.211,15.015 14.760,14.872 14.516 C 14.628 14.101,14.150 13.915,13.695 14.057 M6.695 18.057 C 6.466 18.129,6.256 18.299,6.128 18.516 C 6.036 18.672,6.020 18.745,6.021 19.000 C 6.022 19.332,6.101 19.533,6.306 19.728 C 6.785 20.181,7.580 20.046,7.893 19.460 C 8.025 19.211,8.015 18.760,7.872 18.516 C 7.628 18.101,7.150 17.915,6.695 18.057 " stroke="none" fill-rule="evenodd" fill="black"></path></svg>