<svg xmlns="http://www.w3.org/2000/svg" width="24" height="24" viewBox="0 0 24 24" fill="none" stroke="currentColor" stroke-width="2" stroke-linecap="round" stroke-linejoin="round"><path d="M3.695 4.057 C 3.051 4.258,2.799 5.040,3.198 5.591 C 3.263 5.681,3.403 5.805,3.508 5.867 L 3.700 5.980 5.620 6.002 C 7.519 6.024,7.543 6.026,7.861 6.123 C 8.819 6.419,9.584 7.186,9.875 8.139 C 9.958 8.412,9.973 8.542,9.973 9.000 C 9.973 9.458,9.958 9.588,9.875 9.861 C 9.585 10.812,8.836 11.564,7.860 11.884 C 7.588 11.973,7.523 11.976,5.660 11.999 C 4.273 12.015,3.709 12.035,3.627 12.071 C 3.134 12.286,2.894 12.814,3.060 13.325 C 3.126 13.529,3.286 13.697,6.235 16.653 C 7.943 18.365,9.416 19.811,9.508 19.866 C 9.968 20.138,10.587 19.968,10.867 19.492 C 10.964 19.327,10.980 19.258,10.979 19.000 C 10.979 18.788,10.957 18.659,10.905 18.560 C 10.865 18.483,9.842 17.428,8.632 16.215 L 6.432 14.011 7.066 13.988 C 7.979 13.956,8.535 13.817,9.286 13.433 C 10.630 12.748,11.580 11.489,11.907 9.960 C 12.008 9.489,12.008 8.511,11.907 8.040 C 11.768 7.391,11.493 6.729,11.155 6.230 L 10.999 6.000 13.090 5.998 C 14.731 5.997,15.212 5.985,15.330 5.943 C 15.551 5.864,15.744 5.702,15.869 5.489 C 15.964 5.328,15.980 5.256,15.980 5.000 C 15.980 4.746,15.963 4.672,15.872 4.516 C 15.740 4.293,15.533 4.128,15.290 4.055 C 15.028 3.976,3.947 3.978,3.695 4.057 M14.340 11.105 C 14.186 11.137,13.889 11.247,13.680 11.350 C 13.356 11.508,13.243 11.592,12.915 11.918 C 12.583 12.249,12.505 12.354,12.345 12.684 C 12.117 13.151,12.041 13.491,12.041 14.040 C 12.041 14.996,12.317 15.566,13.215 16.462 C 13.646 16.892,13.775 16.998,13.937 17.053 C 14.356 17.195,14.773 17.085,15.052 16.758 C 15.217 16.566,15.280 16.389,15.280 16.120 C 15.280 15.755,15.224 15.660,14.696 15.118 C 14.396 14.809,14.168 14.539,14.121 14.434 C 14.018 14.209,14.016 13.837,14.115 13.619 C 14.350 13.102,14.982 12.884,15.474 13.150 C 15.613 13.225,16.419 13.974,18.022 15.520 C 19.311 16.763,20.436 17.822,20.521 17.873 C 20.965 18.139,21.592 17.960,21.869 17.489 C 22.022 17.228,22.027 16.828,21.880 16.548 C 21.806 16.408,21.157 15.760,19.377 14.048 C 18.055 12.777,16.883 11.670,16.772 11.589 C 16.488 11.380,16.025 11.170,15.699 11.100 C 15.349 11.026,14.706 11.028,14.340 11.105 " stroke="none" fill-rule="evenodd" fill="black"></path></svg>