<svg xmlns="http://www.w3.org/2000/svg" width="24" height="24" viewBox="0 0 24 24" fill="none" stroke="currentColor" stroke-width="2" stroke-linecap="round" stroke-linejoin="round"><path d="M6.650 3.066 C 6.171 3.236,5.882 3.845,6.054 4.320 C 6.082 4.397,7.026 5.931,8.150 7.730 L 10.195 11.000 8.544 11.000 C 6.750 11.000,6.660 11.009,6.382 11.221 C 6.302 11.282,6.187 11.415,6.128 11.516 C 6.037 11.672,6.020 11.746,6.020 12.000 C 6.020 12.256,6.036 12.328,6.131 12.489 C 6.192 12.592,6.304 12.725,6.381 12.783 C 6.655 12.993,6.692 12.996,8.508 12.998 L 10.195 13.000 9.570 14.000 L 8.946 15.000 7.919 15.000 C 6.799 15.000,6.642 15.023,6.382 15.221 C 6.083 15.449,5.935 15.893,6.035 16.264 C 6.099 16.498,6.286 16.737,6.508 16.867 C 6.683 16.969,6.744 16.981,7.191 17.000 L 7.683 17.020 6.894 18.280 C 6.460 18.973,6.082 19.603,6.054 19.680 C 5.900 20.105,6.096 20.625,6.499 20.862 C 6.839 21.061,7.299 21.028,7.623 20.780 C 7.710 20.714,8.149 20.050,8.905 18.840 L 10.055 17.000 12.000 17.000 L 13.945 17.000 15.095 18.840 C 15.851 20.050,16.290 20.714,16.377 20.780 C 16.701 21.028,17.161 21.061,17.501 20.862 C 17.904 20.625,18.100 20.105,17.946 19.680 C 17.918 19.603,17.540 18.973,17.106 18.280 L 16.317 17.020 16.809 17.000 C 17.256 16.981,17.317 16.969,17.492 16.867 C 18.248 16.424,18.123 15.306,17.290 15.055 C 17.156 15.015,16.835 15.000,16.081 15.000 L 15.054 15.000 14.430 14.000 L 13.805 13.000 15.492 12.998 C 17.308 12.996,17.345 12.993,17.619 12.783 C 17.696 12.725,17.808 12.592,17.869 12.489 C 17.964 12.328,17.980 12.256,17.980 12.000 C 17.980 11.746,17.963 11.672,17.872 11.516 C 17.813 11.415,17.698 11.282,17.618 11.221 C 17.340 11.009,17.250 11.000,15.456 11.000 L 13.805 11.000 15.850 7.730 C 16.974 5.931,17.918 4.397,17.946 4.320 C 18.070 3.979,17.967 3.562,17.694 3.296 C 17.326 2.939,16.785 2.908,16.375 3.221 C 16.288 3.288,15.550 4.433,14.133 6.700 C 12.971 8.559,12.011 10.080,12.000 10.080 C 11.989 10.080,11.045 8.582,9.902 6.750 C 8.737 4.884,7.757 3.355,7.672 3.272 C 7.419 3.025,7.004 2.941,6.650 3.066 M12.351 14.450 L 12.682 14.980 12.341 14.992 C 12.153 14.998,11.847 14.998,11.659 14.992 L 11.318 14.980 11.649 14.450 C 11.831 14.159,11.989 13.920,12.000 13.920 C 12.011 13.920,12.169 14.159,12.351 14.450 " stroke="none" fill-rule="evenodd" fill="black"></path></svg>