<svg xmlns="http://www.w3.org/2000/svg" width="24" height="24" viewBox="0 0 24 24" fill="none" stroke="currentColor" stroke-width="2" stroke-linecap="round" stroke-linejoin="round"><path d="M5.695 4.057 C 5.466 4.129,5.256 4.299,5.128 4.516 C 5.037 4.672,5.020 4.746,5.020 5.000 C 5.020 5.256,5.036 5.328,5.131 5.489 C 5.256 5.702,5.449 5.864,5.670 5.943 C 5.892 6.022,18.108 6.022,18.330 5.943 C 18.551 5.864,18.744 5.702,18.869 5.489 C 18.964 5.328,18.980 5.256,18.980 5.000 C 18.980 4.746,18.963 4.672,18.872 4.516 C 18.740 4.293,18.533 4.128,18.290 4.055 C 18.028 3.976,5.947 3.978,5.695 4.057 M5.695 8.057 C 5.466 8.129,5.256 8.299,5.128 8.516 C 5.037 8.672,5.020 8.746,5.020 9.000 C 5.020 9.256,5.036 9.328,5.131 9.489 C 5.256 9.702,5.449 9.864,5.670 9.943 C 5.789 9.986,6.351 9.997,8.409 9.998 L 10.999 10.000 11.009 14.653 L 11.020 19.306 11.141 19.503 C 11.543 20.156,12.457 20.156,12.859 19.503 L 12.980 19.306 12.991 14.653 L 13.001 10.000 15.591 9.998 C 17.649 9.997,18.211 9.986,18.330 9.943 C 18.551 9.864,18.744 9.702,18.869 9.489 C 18.964 9.328,18.980 9.256,18.980 9.000 C 18.980 8.746,18.963 8.672,18.872 8.516 C 18.740 8.293,18.533 8.128,18.290 8.055 C 18.028 7.976,5.947 7.978,5.695 8.057 " stroke="none" fill-rule="evenodd" fill="black"></path></svg>