<svg xmlns="http://www.w3.org/2000/svg" width="24" height="24" viewBox="0 0 24 24" fill="none" stroke="currentColor" stroke-width="2" stroke-linecap="round" stroke-linejoin="round"><path d="M9.695 4.057 C 9.466 4.129,9.256 4.299,9.128 4.516 L 9.020 4.700 9.009 6.541 L 8.997 8.382 7.230 9.261 C 5.305 10.219,5.191 10.292,5.066 10.660 C 5.030 10.767,5.000 10.920,5.000 11.000 C 5.000 11.406,5.293 11.811,5.678 11.939 C 6.067 12.068,6.153 12.040,7.628 11.305 C 8.362 10.939,8.971 10.640,8.981 10.640 C 8.992 10.640,9.000 11.032,9.000 11.510 L 9.000 12.381 7.232 13.260 C 5.304 14.219,5.191 14.292,5.066 14.660 C 5.030 14.767,5.000 14.920,5.000 15.000 C 5.000 15.406,5.293 15.811,5.678 15.939 C 6.067 16.068,6.153 16.040,7.628 15.305 C 8.362 14.939,8.971 14.640,8.981 14.640 C 8.992 14.640,9.001 15.887,9.002 17.410 C 9.003 19.619,9.014 20.210,9.057 20.330 C 9.136 20.550,9.298 20.744,9.507 20.866 C 9.737 21.001,10.119 21.031,10.768 20.963 C 12.341 20.800,13.830 20.189,15.040 19.211 C 15.394 18.925,16.067 18.239,16.326 17.900 C 17.243 16.700,17.806 15.277,17.963 13.768 C 18.030 13.122,18.001 12.737,17.868 12.509 C 17.483 11.853,16.519 11.850,16.136 12.504 C 16.046 12.657,16.026 12.761,15.979 13.310 C 15.917 14.041,15.842 14.439,15.671 14.940 C 15.286 16.071,14.544 17.081,13.557 17.819 C 12.856 18.343,12.119 18.668,11.110 18.897 L 11.000 18.922 11.000 16.270 L 11.000 13.619 12.768 12.740 C 14.696 11.781,14.809 11.708,14.934 11.340 C 14.970 11.233,15.000 11.080,15.000 11.000 C 15.000 10.594,14.708 10.189,14.321 10.060 C 13.939 9.934,13.843 9.965,12.369 10.698 C 11.637 11.062,11.029 11.360,11.019 11.360 C 11.008 11.360,11.000 10.968,11.000 10.490 L 11.000 9.619 12.768 8.740 C 14.696 7.781,14.809 7.708,14.934 7.340 C 14.970 7.233,15.000 7.080,15.000 7.000 C 15.000 6.594,14.708 6.189,14.321 6.060 C 13.939 5.934,13.843 5.965,12.369 6.698 C 11.637 7.062,11.030 7.360,11.021 7.360 C 11.012 7.360,10.999 6.761,10.992 6.030 L 10.980 4.700 10.872 4.516 C 10.628 4.101,10.150 3.915,9.695 4.057 " stroke="none" fill-rule="evenodd" fill="black"></path></svg>