<svg xmlns="http://www.w3.org/2000/svg" width="24" height="24" viewBox="0 0 24 24" fill="none" stroke="currentColor" stroke-width="2" stroke-linecap="round" stroke-linejoin="round"><path d="M8.695 4.057 C 8.466 4.129,8.256 4.299,8.128 4.516 L 8.020 4.700 8.009 7.850 L 7.998 11.000 6.945 11.000 C 5.797 11.000,5.644 11.022,5.382 11.221 C 5.302 11.282,5.187 11.415,5.128 11.516 C 5.037 11.672,5.020 11.746,5.020 12.000 C 5.020 12.256,5.036 12.328,5.131 12.489 C 5.192 12.592,5.304 12.725,5.381 12.783 C 5.642 12.983,5.738 12.996,6.909 12.998 L 7.998 13.000 8.009 16.153 L 8.020 19.306 8.141 19.503 C 8.543 20.156,9.457 20.156,9.859 19.503 L 9.980 19.306 10.000 16.200 L 10.020 13.093 10.300 13.149 C 12.251 13.540,14.007 15.111,14.671 17.060 C 14.842 17.562,14.917 17.959,14.979 18.694 C 15.028 19.272,15.043 19.344,15.148 19.514 C 15.541 20.153,16.460 20.151,16.856 19.508 C 17.002 19.271,17.033 18.903,16.963 18.232 C 16.806 16.723,16.243 15.302,15.326 14.100 C 15.225 13.968,14.955 13.667,14.725 13.430 L 14.307 13.000 16.244 12.998 C 17.756 12.997,18.213 12.985,18.330 12.943 C 18.551 12.864,18.744 12.702,18.869 12.489 C 18.964 12.328,18.980 12.256,18.980 12.000 C 18.980 11.746,18.963 11.672,18.872 11.516 C 18.813 11.415,18.698 11.282,18.618 11.221 C 18.336 11.006,18.270 11.000,16.207 11.000 L 14.307 11.000 14.725 10.570 C 14.955 10.333,15.225 10.032,15.326 9.900 C 16.243 8.698,16.806 7.277,16.963 5.768 C 17.030 5.122,17.001 4.737,16.868 4.509 C 16.483 3.853,15.519 3.850,15.136 4.504 C 15.046 4.657,15.026 4.761,14.979 5.310 C 14.917 6.041,14.842 6.439,14.671 6.940 C 14.286 8.071,13.544 9.081,12.557 9.819 C 11.856 10.343,11.118 10.668,10.111 10.896 L 10.002 10.921 9.991 7.811 L 9.980 4.700 9.872 4.516 C 9.628 4.101,9.150 3.915,8.695 4.057 " stroke="none" fill-rule="evenodd" fill="black"></path></svg>