<svg xmlns="http://www.w3.org/2000/svg" width="24" height="24" viewBox="0 0 24 24" fill="none" stroke="currentColor" stroke-width="2" stroke-linecap="round" stroke-linejoin="round"><path d="M11.695 3.057 C 11.466 3.129,11.256 3.299,11.128 3.516 C 11.024 3.694,11.020 3.724,11.007 4.389 L 10.993 5.078 10.847 5.100 C 10.324 5.181,9.364 5.494,8.875 5.741 C 7.338 6.521,6.103 7.874,5.496 9.444 C 5.166 10.300,5.024 11.069,5.024 12.000 C 5.024 12.931,5.166 13.700,5.496 14.555 C 6.114 16.156,7.336 17.487,8.910 18.274 C 9.443 18.541,10.273 18.812,10.827 18.899 L 10.993 18.926 11.007 19.616 C 11.020 20.305,11.020 20.307,11.141 20.503 C 11.543 21.156,12.457 21.156,12.859 20.503 C 12.980 20.307,12.980 20.304,12.993 19.619 L 13.006 18.931 13.349 18.864 C 14.529 18.632,15.859 17.966,16.614 17.228 C 16.870 16.978,16.916 16.912,16.959 16.726 C 17.050 16.341,16.940 15.971,16.661 15.726 C 16.437 15.529,16.262 15.472,15.934 15.488 C 15.622 15.502,15.595 15.517,14.940 16.025 C 14.377 16.461,13.533 16.812,12.729 16.944 C 12.265 17.020,11.464 16.999,11.000 16.899 C 8.965 16.458,7.420 14.846,7.075 12.806 C 7.018 12.463,7.018 11.537,7.075 11.194 C 7.250 10.158,7.732 9.225,8.479 8.479 C 9.345 7.612,10.344 7.147,11.580 7.034 C 12.020 6.993,12.177 6.996,12.604 7.049 C 13.486 7.160,14.324 7.500,15.000 8.020 C 15.532 8.430,15.609 8.476,15.823 8.517 C 16.182 8.585,16.481 8.478,16.749 8.187 C 16.999 7.916,17.065 7.565,16.936 7.188 C 16.889 7.048,16.801 6.934,16.588 6.737 C 15.794 6.002,14.507 5.366,13.353 5.139 L 13.006 5.070 12.993 4.385 C 12.980 3.724,12.976 3.693,12.872 3.516 C 12.628 3.101,12.150 2.915,11.695 3.057 " stroke="none" fill-rule="evenodd" fill="black"></path></svg>