<svg xmlns="http://www.w3.org/2000/svg" width="24" height="24" viewBox="0 0 24 24" fill="none" stroke="currentColor" stroke-width="2" stroke-linecap="round" stroke-linejoin="round"><path d="M4.695 5.057 C 4.466 5.129,4.256 5.299,4.128 5.516 L 4.020 5.700 4.020 12.003 L 4.020 18.306 4.141 18.503 C 4.543 19.156,5.457 19.156,5.859 18.503 L 5.980 18.306 5.991 15.713 C 6.001 13.474,6.010 13.120,6.061 13.120 C 6.093 13.120,6.313 13.185,6.549 13.263 C 7.519 13.586,8.364 14.208,8.991 15.059 C 9.543 15.809,9.873 16.659,9.960 17.560 C 10.033 18.316,10.039 18.342,10.161 18.535 C 10.555 19.156,11.466 19.142,11.856 18.508 C 12.008 18.260,12.033 17.890,11.942 17.200 C 11.776 15.935,11.327 14.843,10.545 13.800 C 10.093 13.198,9.345 12.491,8.810 12.162 C 8.695 12.091,8.600 12.021,8.600 12.007 C 8.600 11.992,8.679 11.930,8.776 11.869 C 9.087 11.672,9.569 11.274,9.919 10.922 C 10.810 10.029,11.483 8.843,11.797 7.610 C 11.913 7.156,12.010 6.345,11.991 5.995 C 11.971 5.631,11.852 5.395,11.595 5.205 C 10.990 4.761,10.087 5.140,10.019 5.866 C 9.917 6.957,9.837 7.330,9.575 7.926 C 8.968 9.307,7.833 10.341,6.448 10.776 C 6.265 10.833,6.090 10.880,6.059 10.880 C 6.011 10.880,6.001 10.496,5.991 8.290 L 5.980 5.700 5.872 5.516 C 5.628 5.101,5.150 4.915,4.695 5.057 M14.695 9.057 C 14.466 9.129,14.256 9.299,14.128 9.516 L 14.020 9.700 14.020 14.003 L 14.020 18.306 14.141 18.503 C 14.543 19.156,15.457 19.156,15.859 18.503 L 15.980 18.306 16.002 15.883 L 16.023 13.460 16.123 13.139 C 16.421 12.182,17.200 11.402,18.129 11.133 C 18.299 11.084,18.637 11.026,18.879 11.005 C 19.242 10.974,19.353 10.949,19.502 10.861 C 20.279 10.406,20.095 9.232,19.216 9.036 C 18.829 8.949,17.841 9.092,17.247 9.320 C 16.935 9.440,16.492 9.669,16.235 9.844 L 16.010 9.996 15.983 9.828 C 15.926 9.473,15.648 9.163,15.290 9.055 C 15.068 8.988,14.913 8.989,14.695 9.057 M19.695 17.057 C 19.466 17.129,19.256 17.299,19.128 17.516 C 19.036 17.672,19.020 17.745,19.021 18.000 C 19.022 18.332,19.101 18.533,19.306 18.728 C 19.785 19.181,20.580 19.046,20.893 18.460 C 21.025 18.211,21.015 17.760,20.872 17.516 C 20.628 17.101,20.150 16.915,19.695 17.057 " stroke="none" fill-rule="evenodd" fill="black"></path></svg>