<svg xmlns="http://www.w3.org/2000/svg" width="24" height="24" viewBox="0 0 24 24" fill="none" stroke="currentColor" stroke-width="2" stroke-linecap="round" stroke-linejoin="round"><path d="M17.695 3.057 C 17.466 3.129,17.256 3.299,17.128 3.516 C 17.025 3.692,17.019 3.728,17.007 4.350 L 16.993 5.000 16.887 5.000 C 16.663 5.001,16.000 5.120,15.755 5.204 C 14.847 5.515,14.028 6.170,13.569 6.953 C 12.320 9.083,13.233 11.785,15.512 12.704 C 16.082 12.933,16.511 13.000,17.446 13.002 C 18.376 13.005,18.635 13.051,19.017 13.281 C 19.902 13.814,20.243 14.955,19.793 15.880 C 19.638 16.198,19.227 16.625,18.930 16.775 C 18.493 16.996,18.448 17.000,16.078 17.000 C 13.706 17.000,13.668 17.003,13.382 17.221 C 13.302 17.282,13.187 17.415,13.128 17.516 C 13.037 17.672,13.020 17.746,13.020 18.000 C 13.020 18.256,13.036 18.328,13.131 18.489 C 13.192 18.592,13.304 18.725,13.381 18.783 C 13.642 18.983,13.738 18.996,14.907 18.998 L 15.993 19.000 16.007 19.653 C 16.020 20.300,16.021 20.308,16.141 20.503 C 16.543 21.156,17.457 21.156,17.859 20.503 C 17.979 20.308,17.980 20.300,17.993 19.653 L 18.007 19.000 18.187 19.000 C 18.473 19.000,19.117 18.853,19.488 18.704 C 20.755 18.193,21.643 17.117,21.921 15.757 C 22.111 14.823,21.926 13.778,21.421 12.932 C 20.961 12.161,20.142 11.511,19.245 11.204 C 18.834 11.063,18.289 11.000,17.478 11.000 C 16.448 11.000,16.128 10.906,15.653 10.465 C 14.654 9.537,14.830 7.974,16.014 7.265 C 16.440 7.009,16.540 7.000,18.988 6.998 C 20.714 6.997,21.212 6.985,21.330 6.943 C 21.551 6.864,21.744 6.702,21.869 6.489 C 21.964 6.328,21.980 6.256,21.980 6.000 C 21.980 5.746,21.963 5.672,21.872 5.516 C 21.813 5.415,21.698 5.282,21.618 5.221 C 21.357 5.022,21.203 5.000,20.057 5.000 L 19.007 5.000 18.993 4.350 C 18.981 3.728,18.975 3.692,18.872 3.516 C 18.628 3.101,18.150 2.915,17.695 3.057 M2.695 5.057 C 2.466 5.129,2.256 5.299,2.128 5.516 C 2.037 5.672,2.020 5.746,2.020 6.000 C 2.020 6.256,2.036 6.328,2.131 6.489 C 2.256 6.702,2.449 6.864,2.670 6.943 C 2.789 6.986,3.371 6.997,5.530 6.998 C 7.020 6.999,8.240 7.007,8.240 7.014 C 8.240 7.022,6.860 9.394,5.173 12.284 C 3.486 15.175,2.083 17.603,2.055 17.680 C 1.932 18.015,2.033 18.435,2.299 18.701 C 2.614 19.016,2.394 19.000,6.517 18.998 C 9.472 18.997,10.209 18.986,10.330 18.943 C 10.551 18.864,10.744 18.702,10.869 18.489 C 10.964 18.328,10.980 18.256,10.980 18.000 C 10.980 17.746,10.963 17.672,10.872 17.516 C 10.813 17.415,10.698 17.282,10.618 17.221 C 10.327 16.999,10.335 17.000,7.434 17.000 C 5.963 17.000,4.760 16.993,4.760 16.986 C 4.760 16.978,6.140 14.606,7.826 11.716 C 9.512 8.826,10.918 6.382,10.951 6.286 C 11.121 5.786,10.814 5.213,10.290 5.055 C 10.030 4.977,2.945 4.979,2.695 5.057 " stroke="none" fill-rule="evenodd" fill="black"></path></svg>