<svg xmlns="http://www.w3.org/2000/svg" width="24" height="24" viewBox="0 0 24 24" fill="none" stroke="currentColor" stroke-width="2" stroke-linecap="round" stroke-linejoin="round"><path d="M9.540 3.023 C 8.715 3.102,8.250 3.200,7.620 3.427 C 5.221 4.291,3.462 6.434,3.082 8.956 C 3.009 9.444,2.986 10.083,3.035 10.264 C 3.099 10.498,3.286 10.737,3.508 10.867 C 3.673 10.964,3.743 10.980,4.000 10.980 C 4.257 10.980,4.327 10.964,4.492 10.867 C 4.710 10.739,4.904 10.495,4.955 10.284 C 4.974 10.205,5.010 9.897,5.035 9.600 C 5.061 9.303,5.114 8.934,5.154 8.780 C 5.615 7.006,7.002 5.614,8.760 5.161 C 9.693 4.920,10.875 4.983,11.752 5.320 C 13.275 5.905,14.441 7.205,14.838 8.760 C 14.946 9.180,15.000 9.738,15.000 10.418 L 15.000 11.000 13.446 11.000 C 11.758 11.000,11.658 11.011,11.382 11.221 C 11.302 11.282,11.187 11.415,11.128 11.516 C 11.037 11.672,11.020 11.746,11.020 12.000 C 11.020 12.256,11.036 12.328,11.131 12.489 C 11.192 12.592,11.304 12.725,11.381 12.783 C 11.654 12.991,11.700 12.996,13.410 12.998 L 15.000 13.000 15.000 14.000 L 15.000 15.000 13.446 15.000 C 11.758 15.000,11.658 15.011,11.382 15.221 C 11.302 15.282,11.187 15.415,11.128 15.516 C 11.037 15.672,11.020 15.746,11.020 16.000 C 11.020 16.256,11.036 16.328,11.131 16.489 C 11.192 16.592,11.304 16.725,11.381 16.783 C 11.654 16.991,11.700 16.996,13.408 16.998 L 14.997 17.000 15.008 18.653 L 15.020 20.306 15.141 20.503 C 15.543 21.156,16.457 21.156,16.859 20.503 L 16.980 20.306 16.992 18.653 L 17.003 17.000 18.592 16.998 C 20.300 16.996,20.346 16.991,20.619 16.783 C 20.696 16.725,20.808 16.592,20.869 16.489 C 20.964 16.328,20.980 16.256,20.980 16.000 C 20.980 15.746,20.963 15.672,20.872 15.516 C 20.813 15.415,20.698 15.282,20.618 15.221 C 20.342 15.011,20.242 15.000,18.554 15.000 L 17.000 15.000 17.000 14.000 L 17.000 13.000 18.590 12.998 C 20.300 12.996,20.346 12.991,20.619 12.783 C 20.696 12.725,20.808 12.592,20.869 12.489 C 20.964 12.328,20.980 12.256,20.980 12.000 C 20.980 11.746,20.963 11.672,20.872 11.516 C 20.813 11.415,20.698 11.282,20.618 11.221 C 20.342 11.011,20.241 11.000,18.559 11.000 L 17.011 11.000 16.987 10.090 C 16.957 8.940,16.877 8.465,16.573 7.620 C 15.716 5.238,13.581 3.473,11.102 3.098 C 10.726 3.041,9.813 2.997,9.540 3.023 " stroke="none" fill-rule="evenodd" fill="black"></path></svg>