<svg xmlns="http://www.w3.org/2000/svg" width="24" height="24" viewBox="0 0 24 24" fill="none" stroke="currentColor" stroke-width="2" stroke-linecap="round" stroke-linejoin="round"><path d="M6.695 5.057 C 6.466 5.129,6.256 5.299,6.128 5.516 C 6.037 5.672,6.020 5.746,6.020 6.000 C 6.020 6.256,6.036 6.328,6.131 6.489 C 6.256 6.702,6.449 6.864,6.670 6.943 C 6.788 6.985,7.269 6.997,8.910 6.998 L 11.001 7.000 10.990 8.909 L 10.980 10.817 9.240 11.470 C 8.086 11.903,7.453 12.161,7.360 12.236 C 7.182 12.380,7.033 12.668,7.009 12.917 C 6.952 13.511,7.487 14.050,8.074 13.991 C 8.176 13.980,8.868 13.744,9.612 13.466 C 10.355 13.188,10.972 12.960,10.982 12.960 C 10.993 12.960,10.997 13.378,10.991 13.889 L 10.980 14.817 9.240 15.470 C 8.086 15.903,7.453 16.161,7.360 16.236 C 7.182 16.380,7.033 16.668,7.009 16.917 C 6.952 17.511,7.487 18.050,8.074 17.991 C 8.176 17.980,8.868 17.744,9.612 17.466 C 10.355 17.188,10.971 16.960,10.979 16.960 C 10.988 16.960,11.001 17.488,11.008 18.133 L 11.020 19.306 11.141 19.503 C 11.543 20.156,12.457 20.156,12.859 19.503 L 12.980 19.306 13.000 17.747 L 13.020 16.188 14.755 15.537 C 15.944 15.091,16.536 14.849,16.635 14.769 C 16.936 14.525,17.068 14.066,16.944 13.693 C 16.816 13.307,16.493 13.056,16.068 13.012 C 15.870 12.992,15.765 13.025,14.454 13.515 C 13.683 13.804,13.040 14.040,13.025 14.040 C 13.010 14.040,13.003 13.623,13.009 13.114 L 13.020 12.188 14.755 11.537 C 15.944 11.091,16.536 10.849,16.635 10.769 C 16.936 10.525,17.068 10.066,16.944 9.693 C 16.816 9.307,16.493 9.056,16.068 9.012 C 15.870 8.992,15.765 9.025,14.454 9.515 C 13.683 9.804,13.040 10.040,13.026 10.040 C 13.012 10.040,13.000 9.356,13.000 8.520 L 13.000 7.000 15.090 6.998 C 16.731 6.997,17.212 6.985,17.330 6.943 C 17.551 6.864,17.744 6.702,17.869 6.489 C 17.964 6.328,17.980 6.256,17.980 6.000 C 17.980 5.746,17.963 5.672,17.872 5.516 C 17.740 5.293,17.533 5.128,17.290 5.055 C 17.028 4.976,6.946 4.978,6.695 5.057 " stroke="none" fill-rule="evenodd" fill="black"></path></svg>