<svg xmlns="http://www.w3.org/2000/svg" width="24" height="24" viewBox="0 0 24 24" fill="none" stroke="currentColor" stroke-width="2" stroke-linecap="round" stroke-linejoin="round"><path d="M2.670 2.061 C 2.448 2.142,2.250 2.309,2.128 2.516 C 2.036 2.672,2.020 2.745,2.021 3.000 C 2.021 3.213,2.043 3.341,2.095 3.440 C 2.136 3.517,2.737 4.150,3.431 4.848 L 4.694 6.115 4.497 6.343 C 3.195 7.847,2.398 9.576,2.092 11.560 C 1.993 12.208,1.993 13.717,2.093 14.360 C 2.423 16.471,3.325 18.334,4.748 19.843 C 5.072 20.186,5.784 20.807,5.969 20.908 C 6.093 20.976,6.403 20.980,12.000 20.980 C 17.588 20.980,17.907 20.976,18.031 20.909 C 18.103 20.869,18.307 20.712,18.484 20.559 C 18.662 20.405,18.819 20.280,18.834 20.280 C 18.849 20.280,19.194 20.614,19.600 21.023 C 20.487 21.913,20.585 21.980,21.000 21.980 C 21.257 21.980,21.327 21.964,21.492 21.867 C 21.968 21.587,22.139 20.967,21.865 20.508 C 21.810 20.416,17.665 16.243,12.653 11.235 C 4.231 2.820,3.525 2.125,3.343 2.065 C 3.107 1.987,2.874 1.986,2.670 2.061 M11.100 2.985 C 9.803 3.119,8.208 3.587,7.892 3.926 C 7.749 4.080,7.629 4.397,7.629 4.620 C 7.629 4.994,7.872 5.368,8.219 5.525 C 8.485 5.646,8.770 5.623,9.281 5.440 C 9.811 5.250,10.363 5.108,10.860 5.034 C 11.328 4.964,12.674 4.963,13.120 5.033 C 14.969 5.322,16.451 6.080,17.723 7.387 C 18.363 8.044,18.722 8.541,19.117 9.319 C 19.654 10.378,19.930 11.432,19.986 12.640 C 20.034 13.695,19.876 14.681,19.481 15.780 C 19.329 16.204,19.314 16.464,19.428 16.722 C 19.517 16.922,19.708 17.131,19.889 17.225 C 20.034 17.299,20.380 17.340,20.570 17.304 C 20.775 17.266,21.068 17.054,21.178 16.866 C 21.433 16.429,21.762 15.285,21.928 14.260 C 22.009 13.758,21.996 12.127,21.906 11.580 C 21.533 9.300,20.687 7.569,19.181 6.006 C 17.645 4.412,15.699 3.413,13.440 3.060 C 13.036 2.997,11.471 2.946,11.100 2.985 M7.906 9.326 L 9.671 11.091 9.496 11.353 C 9.143 11.879,8.973 12.513,9.013 13.155 C 9.042 13.632,9.120 13.928,9.322 14.340 C 9.687 15.080,10.421 15.683,11.220 15.899 C 11.592 16.000,12.245 16.021,12.575 15.944 C 12.962 15.853,13.418 15.662,13.682 15.482 L 13.908 15.328 15.662 17.082 C 17.400 18.820,17.415 18.837,17.342 18.918 C 17.268 19.000,17.258 19.000,12.000 19.000 L 6.733 19.000 6.314 18.570 C 4.429 16.634,3.651 14.029,4.163 11.373 C 4.344 10.437,4.798 9.344,5.350 8.520 C 5.635 8.094,6.058 7.560,6.111 7.560 C 6.127 7.560,6.934 8.354,7.906 9.326 M15.081 8.603 C 14.889 8.690,13.881 9.653,13.682 9.940 C 13.372 10.385,13.489 11.010,13.940 11.320 C 14.238 11.525,14.741 11.540,15.017 11.352 C 15.199 11.228,16.188 10.245,16.320 10.057 C 16.547 9.733,16.536 9.246,16.295 8.908 C 16.041 8.551,15.497 8.414,15.081 8.603 M11.799 13.219 C 12.160 13.581,12.448 13.884,12.438 13.893 C 12.386 13.937,12.130 14.000,12.001 14.000 C 11.348 14.000,10.859 13.341,11.046 12.715 C 11.072 12.630,11.104 12.560,11.117 12.560 C 11.130 12.560,11.437 12.856,11.799 13.219 " stroke="none" fill-rule="evenodd" fill="black"></path></svg>