<svg xmlns="http://www.w3.org/2000/svg" width="24" height="24" viewBox="0 0 24 24" fill="none" stroke="currentColor" stroke-width="2" stroke-linecap="round" stroke-linejoin="round"><path d="M2.670 2.061 C 2.448 2.142,2.250 2.309,2.128 2.516 C 2.037 2.672,2.020 2.746,2.020 3.000 C 2.020 3.403,2.095 3.521,2.793 4.215 L 3.351 4.770 3.237 5.015 C 2.986 5.555,3.000 5.133,3.000 12.000 C 3.000 18.943,2.981 18.454,3.268 19.040 C 3.533 19.583,4.306 20.270,5.104 20.672 C 6.077 21.161,7.592 21.600,9.000 21.801 C 10.725 22.046,12.919 22.060,14.680 21.837 C 16.238 21.639,17.853 21.198,18.835 20.703 L 19.131 20.554 19.775 21.192 C 20.130 21.543,20.483 21.864,20.560 21.904 C 20.660 21.957,20.786 21.979,21.000 21.979 C 21.258 21.980,21.327 21.964,21.492 21.867 C 21.968 21.587,22.139 20.967,21.865 20.508 C 21.810 20.416,17.665 16.243,12.653 11.235 C 4.231 2.820,3.525 2.125,3.343 2.065 C 3.107 1.987,2.874 1.986,2.670 2.061 M10.700 2.040 C 9.215 2.136,7.471 2.424,7.035 2.643 C 6.627 2.849,6.427 3.378,6.580 3.841 C 6.702 4.208,7.118 4.520,7.486 4.520 C 7.547 4.520,7.836 4.467,8.128 4.402 C 9.382 4.125,10.419 4.024,12.020 4.023 C 13.657 4.022,14.872 4.148,16.063 4.441 C 17.471 4.787,18.687 5.384,18.939 5.853 C 19.018 5.999,19.018 6.001,18.940 6.146 C 18.781 6.441,18.115 6.876,17.420 7.139 C 16.169 7.613,14.932 7.851,13.033 7.983 C 12.738 8.003,12.653 8.026,12.474 8.133 C 12.177 8.311,12.027 8.564,12.007 8.917 C 11.982 9.351,12.170 9.681,12.545 9.864 C 12.736 9.958,12.807 9.970,13.131 9.965 C 13.548 9.960,14.542 9.867,15.140 9.777 C 16.448 9.581,17.651 9.241,18.658 8.782 C 18.829 8.704,18.977 8.640,18.985 8.640 C 18.993 8.640,19.000 9.410,19.000 10.351 L 19.000 12.061 18.902 12.206 C 18.759 12.417,18.365 12.697,17.840 12.961 C 17.334 13.215,17.155 13.371,17.062 13.635 C 16.864 14.195,17.157 14.783,17.716 14.946 C 17.992 15.027,18.148 15.004,18.563 14.822 C 18.748 14.740,18.921 14.665,18.947 14.654 C 18.982 14.639,18.997 14.848,19.007 15.470 L 19.020 16.307 19.141 16.503 C 19.543 17.156,20.457 17.156,20.859 16.503 L 20.980 16.306 20.991 11.026 C 21.002 5.164,21.019 5.545,20.732 4.960 C 20.618 4.725,20.503 4.577,20.203 4.277 C 19.992 4.067,19.712 3.825,19.581 3.739 C 18.442 2.998,16.843 2.464,14.980 2.202 C 13.855 2.044,11.822 1.967,10.700 2.040 M5.514 8.859 C 6.094 9.117,6.882 9.371,7.625 9.537 L 8.258 9.678 10.419 11.843 L 12.580 14.008 11.540 13.986 C 10.080 13.954,9.041 13.831,7.930 13.558 C 6.578 13.225,5.413 12.669,5.098 12.206 L 5.000 12.061 5.000 10.346 C 5.000 8.990,5.010 8.636,5.050 8.653 C 5.077 8.665,5.286 8.757,5.514 8.859 M5.510 14.855 C 6.727 15.391,8.204 15.737,10.080 15.928 C 10.764 15.997,13.134 15.996,13.875 15.926 L 14.451 15.871 16.047 17.467 L 17.642 19.062 17.291 19.189 C 15.680 19.770,13.752 20.037,11.540 19.987 C 10.078 19.954,9.038 19.830,7.930 19.558 C 6.578 19.225,5.413 18.669,5.098 18.206 L 5.000 18.061 5.000 16.346 C 5.000 14.990,5.010 14.636,5.050 14.653 C 5.077 14.665,5.285 14.756,5.510 14.855 " stroke="none" fill-rule="evenodd" fill="black"></path></svg>