<svg xmlns="http://www.w3.org/2000/svg" width="24" height="24" viewBox="0 0 24 24" fill="none" stroke="currentColor" stroke-width="2" stroke-linecap="round" stroke-linejoin="round"><path d="M10.920 2.023 C 8.675 2.170,7.174 2.468,5.740 3.051 C 4.888 3.397,4.317 3.758,3.797 4.277 C 3.497 4.577,3.383 4.725,3.268 4.960 C 2.981 5.546,3.000 5.057,3.000 12.000 C 3.000 18.940,2.981 18.452,3.267 19.040 C 3.381 19.276,3.494 19.422,3.796 19.725 C 4.222 20.152,4.599 20.416,5.212 20.715 C 6.644 21.415,8.482 21.831,10.720 21.962 C 11.477 22.006,11.507 22.005,11.727 21.922 C 11.977 21.828,12.206 21.609,12.310 21.366 C 12.453 21.028,12.352 20.558,12.076 20.285 C 11.855 20.066,11.682 20.012,11.100 19.982 C 9.246 19.889,7.866 19.631,6.600 19.142 C 5.893 18.870,5.295 18.496,5.096 18.203 L 5.000 18.061 5.000 16.346 C 5.000 14.990,5.010 14.636,5.050 14.653 C 5.077 14.665,5.280 14.754,5.500 14.852 C 6.461 15.280,7.689 15.609,9.040 15.801 C 9.789 15.907,10.428 15.953,10.613 15.913 C 11.565 15.710,11.688 14.394,10.790 14.022 C 10.718 13.992,10.363 13.938,10.001 13.901 C 9.244 13.824,8.404 13.683,7.830 13.537 C 6.545 13.212,5.404 12.655,5.098 12.206 L 5.000 12.061 5.000 10.346 C 5.000 8.990,5.010 8.636,5.050 8.653 C 5.077 8.665,5.285 8.756,5.510 8.855 C 6.726 9.390,8.195 9.735,10.080 9.928 C 10.745 9.996,13.255 9.996,13.920 9.928 C 15.805 9.735,17.274 9.390,18.490 8.855 C 18.715 8.756,18.922 8.665,18.948 8.654 C 18.985 8.638,18.999 8.949,19.008 9.970 L 19.020 11.306 19.141 11.503 C 19.543 12.156,20.457 12.156,20.859 11.503 L 20.980 11.306 20.991 8.528 C 21.003 5.437,21.010 5.527,20.732 4.960 C 20.618 4.725,20.503 4.577,20.203 4.277 C 19.992 4.067,19.712 3.825,19.581 3.739 C 18.248 2.872,16.465 2.340,14.080 2.098 C 13.533 2.042,11.398 1.992,10.920 2.023 M13.993 4.098 C 15.623 4.269,16.937 4.603,17.940 5.102 C 18.442 5.352,18.824 5.639,18.939 5.853 C 19.018 5.999,19.018 6.001,18.940 6.146 C 18.598 6.780,16.682 7.543,14.740 7.817 C 13.773 7.953,13.353 7.978,12.000 7.978 C 10.647 7.978,10.227 7.953,9.260 7.817 C 7.318 7.543,5.402 6.780,5.060 6.146 C 4.982 6.001,4.982 5.999,5.061 5.853 C 5.313 5.384,6.529 4.787,7.936 4.441 C 8.751 4.240,9.579 4.127,10.980 4.023 C 11.416 3.991,13.453 4.042,13.993 4.098 M15.699 14.037 C 14.670 14.202,13.737 14.905,13.305 15.840 C 13.072 16.345,13.021 16.592,13.024 17.200 C 13.026 17.692,13.037 17.773,13.149 18.111 C 13.392 18.843,13.413 18.869,15.473 20.912 C 16.500 21.930,17.421 22.812,17.520 22.872 C 17.673 22.964,17.745 22.980,18.000 22.980 C 18.254 22.980,18.327 22.964,18.480 22.873 C 18.579 22.814,19.509 21.923,20.547 20.893 C 22.582 18.874,22.591 18.863,22.818 18.213 C 23.020 17.636,23.050 16.947,22.900 16.380 C 22.746 15.802,22.353 15.189,21.871 14.775 C 20.903 13.943,19.453 13.773,18.325 14.360 L 18.013 14.522 17.697 14.363 C 17.245 14.135,16.862 14.039,16.340 14.020 C 16.098 14.012,15.810 14.019,15.699 14.037 M16.756 16.138 C 16.867 16.194,17.072 16.348,17.213 16.480 C 17.512 16.759,17.693 16.846,17.980 16.849 C 18.293 16.851,18.459 16.777,18.773 16.492 C 19.235 16.074,19.562 15.956,20.020 16.041 C 20.841 16.193,21.259 17.127,20.806 17.797 C 20.748 17.883,20.101 18.542,19.368 19.262 C 18.242 20.369,18.025 20.565,17.961 20.535 C 17.919 20.516,17.278 19.898,16.537 19.163 C 15.024 17.661,15.020 17.657,15.023 17.160 C 15.025 16.915,15.045 16.822,15.133 16.651 C 15.292 16.341,15.584 16.126,15.980 16.025 C 16.158 15.979,16.559 16.038,16.756 16.138 " stroke="none" fill-rule="evenodd" fill="black"></path></svg>