<svg xmlns="http://www.w3.org/2000/svg" width="24" height="24" viewBox="0 0 24 24" fill="none" stroke="currentColor" stroke-width="2" stroke-linecap="round" stroke-linejoin="round"><path d="M10.920 2.023 C 8.675 2.170,7.174 2.468,5.740 3.051 C 4.888 3.397,4.317 3.758,3.797 4.277 C 3.497 4.577,3.383 4.725,3.268 4.960 C 2.981 5.546,3.000 5.057,3.000 12.000 C 3.000 18.943,2.981 18.454,3.268 19.040 C 3.382 19.274,3.499 19.425,3.797 19.725 C 4.462 20.395,5.209 20.807,6.535 21.237 C 8.077 21.737,9.705 21.973,11.660 21.977 C 12.696 21.980,12.747 21.976,12.903 21.893 C 13.304 21.678,13.533 21.221,13.443 20.817 C 13.380 20.537,13.206 20.286,12.972 20.140 L 12.780 20.020 11.660 19.993 C 10.087 19.954,9.050 19.833,7.930 19.558 C 6.578 19.225,5.413 18.669,5.098 18.206 L 5.000 18.061 5.000 16.346 C 5.000 14.990,5.010 14.636,5.050 14.653 C 5.077 14.665,5.285 14.756,5.510 14.855 C 6.726 15.390,8.196 15.735,10.080 15.928 C 10.750 15.996,13.213 15.995,13.900 15.927 C 14.637 15.853,15.414 15.732,15.570 15.667 C 16.068 15.459,16.293 14.779,16.025 14.294 C 15.894 14.057,15.650 13.864,15.395 13.796 C 15.251 13.757,15.100 13.764,14.540 13.835 C 12.643 14.073,10.569 14.045,8.888 13.758 C 7.122 13.456,5.495 12.790,5.098 12.206 L 5.000 12.061 5.000 10.346 C 5.000 8.990,5.010 8.636,5.050 8.653 C 5.077 8.665,5.285 8.756,5.510 8.855 C 6.726 9.390,8.195 9.735,10.080 9.928 C 10.745 9.996,13.255 9.996,13.920 9.928 C 15.805 9.735,17.274 9.390,18.490 8.855 C 18.715 8.756,18.922 8.665,18.948 8.654 C 18.986 8.637,19.000 9.050,19.008 10.470 L 19.020 12.306 19.141 12.503 C 19.543 13.156,20.457 13.156,20.859 12.503 L 20.980 12.306 20.991 9.028 C 21.003 5.383,21.013 5.533,20.732 4.960 C 20.618 4.725,20.503 4.577,20.203 4.277 C 19.992 4.067,19.712 3.825,19.581 3.739 C 18.248 2.872,16.465 2.340,14.080 2.098 C 13.533 2.042,11.398 1.992,10.920 2.023 M13.993 4.098 C 15.623 4.269,16.937 4.603,17.940 5.102 C 18.442 5.352,18.824 5.639,18.939 5.853 C 19.018 5.999,19.018 6.001,18.940 6.146 C 18.598 6.780,16.682 7.543,14.740 7.817 C 13.773 7.953,13.353 7.978,12.000 7.978 C 10.647 7.978,10.227 7.953,9.260 7.817 C 7.318 7.543,5.402 6.780,5.060 6.146 C 4.982 6.001,4.982 5.999,5.061 5.853 C 5.313 5.384,6.529 4.787,7.936 4.441 C 8.751 4.240,9.579 4.127,10.980 4.023 C 11.416 3.991,13.453 4.042,13.993 4.098 M18.670 15.061 C 18.448 15.142,18.250 15.309,18.128 15.516 C 18.036 15.672,18.020 15.745,18.021 16.000 C 18.021 16.213,18.043 16.340,18.096 16.440 C 18.136 16.517,18.486 16.899,18.873 17.290 L 19.577 18.000 17.735 18.000 C 15.735 18.000,15.663 18.007,15.382 18.221 C 15.302 18.282,15.187 18.415,15.128 18.516 C 15.037 18.672,15.020 18.746,15.020 19.000 C 15.020 19.256,15.036 19.328,15.131 19.489 C 15.256 19.702,15.449 19.864,15.670 19.943 C 15.787 19.985,16.234 19.997,17.699 19.998 L 19.577 20.000 18.873 20.710 C 18.486 21.101,18.139 21.481,18.101 21.555 C 17.872 22.008,18.056 22.601,18.508 22.867 C 18.673 22.964,18.742 22.980,19.000 22.979 C 19.212 22.979,19.341 22.957,19.440 22.905 C 19.517 22.865,20.306 22.109,21.194 21.226 C 22.957 19.472,22.999 19.420,22.999 19.000 C 22.999 18.578,22.960 18.530,21.175 16.756 C 19.716 15.307,19.519 15.124,19.343 15.066 C 19.108 14.987,18.875 14.986,18.670 15.061 " stroke="none" fill-rule="evenodd" fill="black"></path></svg>