<svg xmlns="http://www.w3.org/2000/svg" width="24" height="24" viewBox="0 0 24 24" fill="none" stroke="currentColor" stroke-width="2" stroke-linecap="round" stroke-linejoin="round"><path d="M10.920 2.023 C 8.675 2.170,7.174 2.468,5.740 3.051 C 4.888 3.397,4.317 3.758,3.797 4.277 C 3.497 4.577,3.383 4.725,3.268 4.960 C 2.981 5.546,3.000 5.057,3.000 12.000 C 3.000 18.943,2.981 18.454,3.268 19.040 C 3.533 19.583,4.306 20.270,5.104 20.672 C 6.122 21.184,7.641 21.615,9.140 21.818 C 10.142 21.953,10.611 21.979,12.000 21.979 C 13.389 21.979,13.858 21.953,14.860 21.818 C 16.362 21.615,17.875 21.185,18.900 20.670 C 19.682 20.277,20.471 19.575,20.732 19.040 C 21.019 18.454,21.000 18.943,21.000 12.000 C 21.000 5.057,21.019 5.546,20.732 4.960 C 20.617 4.725,20.503 4.577,20.203 4.277 C 19.992 4.067,19.712 3.825,19.581 3.739 C 18.248 2.872,16.465 2.340,14.080 2.098 C 13.533 2.042,11.398 1.992,10.920 2.023 M13.993 4.098 C 15.623 4.269,16.937 4.603,17.940 5.102 C 18.442 5.352,18.824 5.639,18.939 5.853 C 19.018 5.999,19.018 6.001,18.940 6.146 C 18.598 6.780,16.682 7.543,14.740 7.817 C 13.773 7.953,13.353 7.978,12.000 7.978 C 10.647 7.978,10.227 7.953,9.260 7.817 C 7.318 7.543,5.402 6.780,5.060 6.146 C 4.982 6.001,4.982 5.999,5.061 5.853 C 5.313 5.384,6.529 4.787,7.936 4.441 C 8.751 4.240,9.579 4.127,10.980 4.023 C 11.416 3.991,13.453 4.042,13.993 4.098 M5.510 8.855 C 6.726 9.390,8.195 9.735,10.080 9.928 C 10.745 9.996,13.255 9.996,13.920 9.928 C 15.805 9.735,17.274 9.390,18.490 8.855 C 18.715 8.756,18.922 8.665,18.950 8.653 C 18.990 8.636,19.000 9.590,19.000 13.346 L 19.000 18.061 18.902 18.206 C 18.476 18.832,16.617 19.552,14.740 19.817 C 13.773 19.953,13.353 19.978,12.000 19.978 C 10.647 19.978,10.227 19.953,9.260 19.817 C 7.383 19.552,5.524 18.832,5.098 18.206 L 5.000 18.061 5.000 13.346 C 5.000 9.590,5.010 8.636,5.050 8.653 C 5.077 8.665,5.285 8.756,5.510 8.855 M9.695 13.055 C 9.464 13.130,9.255 13.300,9.128 13.516 C 9.037 13.672,9.020 13.746,9.020 14.000 C 9.020 14.257,9.036 14.327,9.133 14.492 C 9.651 15.374,10.998 15.018,10.998 14.000 C 10.998 13.623,10.792 13.281,10.463 13.112 C 10.265 13.010,9.911 12.984,9.695 13.055 M13.695 13.055 C 13.464 13.130,13.255 13.300,13.128 13.516 C 13.037 13.672,13.020 13.746,13.020 14.000 C 13.020 14.257,13.036 14.327,13.133 14.492 C 13.651 15.374,14.998 15.018,14.998 14.000 C 14.998 13.623,14.792 13.281,14.463 13.112 C 14.265 13.010,13.911 12.984,13.695 13.055 M9.643 16.067 C 9.089 16.269,8.837 16.987,9.140 17.503 C 9.372 17.900,10.241 18.356,11.120 18.543 C 11.829 18.694,12.788 18.625,13.500 18.371 C 14.170 18.132,14.717 17.773,14.874 17.469 C 15.312 16.617,14.408 15.670,13.574 16.109 C 12.948 16.438,12.776 16.514,12.553 16.562 C 12.230 16.632,11.770 16.632,11.447 16.562 C 11.224 16.514,11.057 16.440,10.422 16.107 C 10.219 16.000,9.874 15.982,9.643 16.067 " stroke="none" fill-rule="evenodd" fill="black"></path></svg>