<svg xmlns="http://www.w3.org/2000/svg" width="24" height="24" viewBox="0 0 24 24" fill="none" stroke="currentColor" stroke-width="2" stroke-linecap="round" stroke-linejoin="round"><path d="M10.920 2.023 C 8.675 2.170,7.174 2.468,5.740 3.051 C 4.888 3.397,4.317 3.758,3.797 4.277 C 3.497 4.577,3.383 4.725,3.268 4.960 C 2.981 5.546,3.000 5.057,3.000 12.000 C 3.000 18.943,2.981 18.454,3.268 19.040 C 3.533 19.583,4.306 20.270,5.104 20.672 C 6.077 21.161,7.592 21.600,9.000 21.801 C 10.088 21.956,11.957 22.050,12.264 21.965 C 12.498 21.901,12.737 21.713,12.867 21.492 C 12.964 21.327,12.980 21.257,12.980 21.000 C 12.980 20.745,12.964 20.672,12.871 20.514 C 12.734 20.282,12.490 20.099,12.246 20.046 C 12.144 20.024,11.718 19.996,11.300 19.984 C 9.658 19.938,8.216 19.702,6.970 19.276 C 6.077 18.971,5.327 18.542,5.098 18.206 L 5.000 18.061 5.000 16.346 C 5.000 14.990,5.010 14.636,5.050 14.653 C 5.077 14.665,5.285 14.756,5.510 14.855 C 7.118 15.563,9.094 15.934,11.540 15.987 C 12.534 16.009,12.687 16.004,12.900 15.942 C 13.546 15.754,13.826 15.000,13.457 14.442 C 13.333 14.255,13.043 14.050,12.864 14.023 C 12.796 14.012,12.236 13.995,11.620 13.984 C 10.099 13.957,9.071 13.838,7.930 13.558 C 6.578 13.225,5.413 12.669,5.098 12.206 L 5.000 12.061 5.000 10.346 C 5.000 8.990,5.010 8.636,5.050 8.653 C 5.077 8.665,5.285 8.756,5.510 8.855 C 6.726 9.390,8.195 9.735,10.080 9.928 C 10.745 9.996,13.255 9.996,13.920 9.928 C 15.805 9.735,17.274 9.390,18.490 8.855 C 18.715 8.756,18.922 8.665,18.950 8.653 C 18.990 8.636,19.000 8.954,19.000 10.166 C 19.001 11.696,19.001 11.701,19.095 11.900 C 19.276 12.281,19.595 12.488,20.000 12.488 C 20.405 12.488,20.724 12.281,20.905 11.900 L 20.999 11.700 21.000 8.718 C 21.000 5.411,21.008 5.525,20.732 4.960 C 20.617 4.725,20.503 4.577,20.203 4.277 C 19.992 4.067,19.712 3.825,19.581 3.739 C 18.248 2.872,16.465 2.340,14.080 2.098 C 13.533 2.042,11.398 1.992,10.920 2.023 M13.993 4.098 C 15.623 4.269,16.937 4.603,17.940 5.102 C 18.442 5.352,18.824 5.639,18.939 5.853 C 19.018 5.999,19.018 6.001,18.940 6.146 C 18.598 6.780,16.682 7.543,14.740 7.817 C 13.773 7.953,13.353 7.978,12.000 7.978 C 10.647 7.978,10.227 7.953,9.260 7.817 C 7.318 7.543,5.402 6.780,5.060 6.146 C 4.982 6.001,4.982 5.999,5.061 5.853 C 5.313 5.384,6.529 4.787,7.936 4.441 C 8.751 4.240,9.579 4.127,10.980 4.023 C 11.416 3.991,13.453 4.042,13.993 4.098 M18.617 14.577 C 18.415 14.665,18.193 14.886,18.094 15.100 C 18.015 15.270,18.001 15.364,18.000 15.724 L 18.000 16.148 17.708 16.292 C 17.548 16.371,17.334 16.499,17.233 16.576 L 17.050 16.716 16.664 16.503 C 16.211 16.253,15.998 16.209,15.686 16.302 C 15.161 16.458,14.862 17.002,15.014 17.526 C 15.098 17.815,15.269 17.998,15.677 18.238 L 16.014 18.436 16.017 19.002 L 16.020 19.567 15.649 19.786 C 15.230 20.032,15.075 20.208,14.999 20.524 C 14.876 21.035,15.183 21.552,15.700 21.702 C 16.043 21.802,16.254 21.745,16.876 21.388 L 17.053 21.286 17.235 21.425 C 17.335 21.501,17.548 21.629,17.708 21.708 L 18.000 21.852 18.000 22.276 C 18.001 22.638,18.015 22.729,18.095 22.900 C 18.276 23.281,18.595 23.488,19.000 23.488 C 19.405 23.488,19.724 23.281,19.905 22.900 C 19.986 22.729,19.999 22.639,20.000 22.274 L 20.000 21.848 20.269 21.721 C 20.418 21.652,20.633 21.524,20.749 21.437 L 20.959 21.278 21.120 21.380 C 21.666 21.725,21.988 21.810,22.323 21.699 C 22.828 21.531,23.121 21.024,23.001 20.524 C 22.926 20.210,22.771 20.034,22.352 19.784 L 21.980 19.562 21.983 18.999 L 21.986 18.436 22.323 18.238 C 22.731 17.998,22.902 17.815,22.986 17.526 C 23.138 17.002,22.839 16.458,22.314 16.302 C 22.002 16.209,21.789 16.253,21.336 16.503 L 20.950 16.716 20.767 16.576 C 20.666 16.499,20.452 16.371,20.292 16.292 L 20.000 16.148 20.000 15.724 C 19.999 15.362,19.985 15.271,19.905 15.100 C 19.793 14.865,19.599 14.669,19.391 14.582 C 19.210 14.506,18.785 14.503,18.617 14.577 M19.260 18.044 C 19.497 18.107,19.701 18.263,19.849 18.494 C 19.968 18.679,19.980 18.727,19.980 19.003 C 19.980 19.287,19.970 19.322,19.831 19.531 C 19.613 19.859,19.389 19.980,19.000 19.979 C 18.665 19.978,18.526 19.923,18.308 19.705 C 18.104 19.501,18.022 19.300,18.022 19.000 C 18.022 18.334,18.621 17.871,19.260 18.044 " stroke="none" fill-rule="evenodd" fill="black"></path></svg>