<svg xmlns="http://www.w3.org/2000/svg" width="24" height="24" viewBox="0 0 24 24" fill="none" stroke="currentColor" stroke-width="2" stroke-linecap="round" stroke-linejoin="round"><path d="M2.695 2.057 C 2.467 2.128,2.256 2.299,2.131 2.512 C 1.874 2.950,2.016 4.165,2.420 4.981 C 2.653 5.452,3.038 5.900,3.437 6.162 C 3.531 6.224,3.531 6.224,3.251 6.391 C 2.060 7.098,1.000 8.324,1.000 8.993 C 1.000 9.671,1.688 10.163,2.322 9.939 C 2.587 9.846,2.742 9.704,2.926 9.389 C 3.472 8.451,4.699 7.698,6.559 7.159 L 7.136 6.992 7.484 7.036 C 7.676 7.061,7.911 7.108,8.006 7.142 C 8.538 7.328,8.885 7.792,8.945 8.400 L 8.967 8.620 8.759 8.728 L 8.552 8.836 8.012 8.475 C 7.284 7.988,7.072 7.922,6.678 8.061 C 6.045 8.284,5.813 8.992,6.184 9.569 C 6.247 9.667,6.448 9.831,6.770 10.045 C 7.040 10.225,7.265 10.376,7.272 10.381 C 7.279 10.386,7.247 10.499,7.203 10.633 C 6.866 11.631,6.970 13.060,7.473 14.359 L 7.589 14.659 7.477 14.879 C 7.340 15.149,7.152 15.723,7.076 16.100 C 6.993 16.515,7.003 17.534,7.093 17.960 C 7.235 18.626,7.498 19.254,7.872 19.817 C 8.121 20.192,8.785 20.856,9.166 21.112 C 10.923 22.290,13.077 22.290,14.834 21.112 C 15.214 20.857,15.879 20.192,16.127 19.818 C 16.499 19.258,16.764 18.627,16.907 17.959 C 16.997 17.534,17.007 16.515,16.924 16.100 C 16.848 15.721,16.666 15.170,16.525 14.890 L 16.410 14.660 16.526 14.360 C 17.030 13.063,17.134 11.631,16.797 10.633 C 16.753 10.499,16.721 10.386,16.728 10.381 C 16.735 10.376,16.959 10.226,17.226 10.048 C 17.732 9.711,17.842 9.598,17.941 9.318 C 18.210 8.555,17.448 7.789,16.688 8.057 C 16.599 8.088,16.284 8.277,15.987 8.475 L 15.448 8.836 15.230 8.719 L 15.013 8.601 15.030 8.371 C 15.054 8.049,15.144 7.668,15.241 7.478 C 15.389 7.189,15.610 7.101,16.360 7.034 L 16.860 6.989 17.370 7.136 C 18.377 7.428,19.328 7.833,19.921 8.223 C 20.368 8.516,20.826 8.975,21.053 9.356 C 21.261 9.706,21.409 9.844,21.678 9.939 C 22.312 10.163,23.000 9.671,23.000 8.993 C 23.000 8.322,21.923 7.079,20.747 6.392 L 20.464 6.227 20.561 6.164 C 20.962 5.899,21.346 5.454,21.580 4.981 C 21.985 4.163,22.126 2.950,21.868 2.509 C 21.483 1.853,20.519 1.850,20.135 2.504 C 20.050 2.650,20.026 2.759,19.996 3.130 C 19.905 4.284,19.582 4.647,18.445 4.879 C 18.226 4.924,17.977 4.960,17.891 4.960 L 17.734 4.960 17.808 4.670 C 17.922 4.221,18.009 3.458,17.992 3.058 C 17.979 2.754,17.960 2.667,17.869 2.512 C 17.482 1.852,16.520 1.849,16.134 2.506 C 16.044 2.660,16.025 2.753,15.996 3.192 C 15.938 4.038,15.802 4.571,15.547 4.946 C 15.435 5.112,15.392 5.141,15.180 5.199 C 14.605 5.354,14.042 5.718,13.721 6.144 C 13.422 6.539,13.175 7.192,13.063 7.880 L 13.040 8.020 11.982 8.020 L 10.924 8.020 10.861 7.740 C 10.772 7.342,10.569 6.865,10.350 6.534 C 10.010 6.024,9.414 5.542,8.856 5.328 C 8.695 5.266,8.630 5.209,8.493 5.008 C 8.197 4.572,8.065 4.080,8.004 3.192 C 7.975 2.753,7.956 2.660,7.866 2.506 C 7.480 1.849,6.518 1.852,6.131 2.512 C 6.040 2.667,6.021 2.754,6.008 3.058 C 5.991 3.458,6.078 4.221,6.192 4.670 L 6.266 4.960 6.109 4.960 C 6.023 4.960,5.774 4.924,5.555 4.879 C 4.418 4.647,4.095 4.284,4.004 3.130 C 3.975 2.761,3.950 2.650,3.866 2.507 C 3.628 2.101,3.146 1.916,2.695 2.057 M12.782 10.044 C 13.888 10.155,14.550 10.496,14.821 11.093 C 15.027 11.546,15.045 12.199,14.873 12.940 C 14.602 14.100,13.777 15.463,12.789 16.381 C 12.462 16.685,12.087 16.960,12.000 16.960 C 11.913 16.960,11.538 16.685,11.211 16.381 C 10.599 15.812,10.009 15.020,9.624 14.250 C 9.345 13.691,9.235 13.401,9.127 12.940 C 8.896 11.948,9.003 11.179,9.436 10.708 C 9.942 10.160,11.284 9.893,12.782 10.044 M11.695 14.055 C 11.464 14.130,11.255 14.300,11.128 14.516 C 11.037 14.672,11.020 14.746,11.020 15.000 C 11.020 15.257,11.036 15.327,11.133 15.492 C 11.651 16.374,12.998 16.018,12.998 15.000 C 12.998 14.623,12.792 14.281,12.463 14.112 C 12.265 14.010,11.911 13.984,11.695 14.055 M9.725 17.726 C 10.620 18.607,11.452 19.044,12.125 18.988 C 12.821 18.929,13.771 18.317,14.602 17.392 C 14.786 17.187,14.953 17.002,14.973 16.980 C 15.022 16.927,14.974 17.424,14.897 17.760 C 14.706 18.596,13.964 19.440,13.120 19.783 C 12.229 20.145,11.183 20.043,10.372 19.515 C 10.233 19.424,9.978 19.201,9.806 19.019 C 9.325 18.511,9.091 17.979,9.016 17.220 L 8.988 16.940 9.180 17.160 C 9.286 17.281,9.531 17.536,9.725 17.726 " stroke="none" fill-rule="evenodd" fill="black"></path></svg>