<svg xmlns="http://www.w3.org/2000/svg" width="24" height="24" viewBox="0 0 24 24" fill="none" stroke="currentColor" stroke-width="2" stroke-linecap="round" stroke-linejoin="round"><path d="M11.667 3.065 C 11.260 3.190,11.493 2.756,7.085 11.582 C 3.674 18.412,3.027 19.733,3.010 19.906 C 2.982 20.197,3.089 20.491,3.298 20.700 C 3.625 21.027,2.851 21.000,12.017 20.998 C 18.732 20.997,20.207 20.987,20.330 20.943 C 20.551 20.864,20.744 20.702,20.869 20.489 C 20.963 20.329,20.980 20.255,20.980 20.011 L 20.980 19.722 16.920 11.593 C 13.593 4.931,12.831 3.434,12.697 3.298 C 12.427 3.023,12.067 2.942,11.667 3.065 M15.190 12.620 C 16.934 16.107,18.360 18.969,18.360 18.980 C 18.360 18.991,15.498 19.000,12.000 19.000 C 8.502 19.000,5.640 18.991,5.640 18.980 C 5.640 18.941,11.980 6.280,12.000 6.280 C 12.011 6.280,13.447 9.133,15.190 12.620 " stroke="none" fill-rule="evenodd" fill="black"></path></svg>