<svg xmlns="http://www.w3.org/2000/svg" width="24" height="24" viewBox="0 0 24 24" fill="none" stroke="currentColor" stroke-width="2" stroke-linecap="round" stroke-linejoin="round"><path d="M2.670 2.061 C 2.448 2.142,2.250 2.309,2.128 2.516 C 2.036 2.672,2.020 2.745,2.021 3.000 C 2.021 3.213,2.043 3.341,2.095 3.440 C 2.136 3.517,2.547 3.960,3.008 4.424 L 3.847 5.269 3.703 5.553 C 3.155 6.643,2.970 7.757,3.013 9.720 C 3.087 13.062,3.611 15.749,4.634 18.034 C 5.028 18.914,5.700 19.987,6.107 20.387 C 6.615 20.887,7.487 21.107,8.296 20.940 C 9.036 20.787,9.646 20.409,10.077 19.838 C 10.458 19.332,10.912 18.375,11.288 17.282 C 11.481 16.722,11.677 16.338,11.862 16.158 L 12.000 16.024 12.138 16.158 C 12.320 16.334,12.514 16.713,12.711 17.280 C 13.266 18.870,13.794 19.833,14.372 20.311 C 15.033 20.858,16.006 21.113,16.793 20.945 C 17.377 20.821,17.806 20.551,18.162 20.084 L 18.379 19.801 19.399 20.816 C 19.961 21.374,20.483 21.864,20.560 21.905 C 20.659 21.957,20.787 21.979,21.000 21.979 C 21.258 21.980,21.327 21.964,21.492 21.867 C 21.968 21.587,22.139 20.967,21.865 20.508 C 21.810 20.416,17.665 16.243,12.653 11.235 C 4.231 2.820,3.525 2.125,3.343 2.065 C 3.107 1.987,2.874 1.986,2.670 2.061 M7.695 3.057 C 7.051 3.258,6.799 4.040,7.198 4.591 C 7.388 4.853,7.609 4.958,8.067 5.003 C 8.876 5.083,9.436 5.279,10.580 5.880 C 10.998 6.100,12.097 6.660,13.023 7.125 C 14.377 7.805,14.745 7.974,14.908 7.990 C 15.623 8.058,16.172 7.358,15.939 6.675 C 15.825 6.342,15.697 6.237,14.941 5.854 C 14.556 5.659,14.241 5.489,14.240 5.475 C 14.240 5.439,14.847 5.216,15.220 5.115 C 15.681 4.990,16.456 4.989,16.892 5.112 C 17.658 5.330,18.184 5.765,18.519 6.460 C 18.937 7.325,19.059 8.393,18.963 10.340 C 18.878 12.074,18.722 13.257,18.394 14.660 C 18.251 15.269,18.257 15.505,18.420 15.784 C 18.689 16.243,19.265 16.403,19.751 16.153 C 20.133 15.956,20.234 15.722,20.499 14.420 C 20.995 11.983,21.147 8.764,20.842 7.200 C 20.414 5.012,19.148 3.581,17.248 3.139 C 17.110 3.107,16.780 3.060,16.515 3.035 C 15.344 2.923,14.230 3.207,12.648 4.019 L 11.997 4.354 11.348 4.020 C 10.529 3.597,9.928 3.352,9.346 3.202 C 8.595 3.008,8.014 2.957,7.695 3.057 M12.664 14.109 C 12.657 14.116,12.602 14.104,12.543 14.081 C 12.361 14.012,11.913 13.989,11.660 14.035 C 11.126 14.134,10.583 14.513,10.146 15.094 C 9.853 15.483,9.649 15.898,9.404 16.608 C 8.930 17.977,8.542 18.706,8.191 18.885 C 7.992 18.986,7.587 19.032,7.504 18.963 C 7.472 18.937,7.331 18.741,7.190 18.528 C 5.916 16.605,5.213 13.932,5.037 10.340 C 4.962 8.818,5.019 7.908,5.241 7.086 L 5.331 6.751 9.004 10.424 C 11.024 12.444,12.671 14.102,12.664 14.109 M16.739 18.638 C 16.633 18.795,16.510 18.944,16.467 18.967 C 16.354 19.027,16.001 18.983,15.807 18.884 C 15.459 18.706,15.070 17.977,14.596 16.610 C 14.485 16.288,14.348 15.933,14.293 15.822 C 14.206 15.646,14.371 15.798,15.562 16.986 L 16.931 18.351 16.739 18.638 " stroke="none" fill-rule="evenodd" fill="black"></path></svg>