<svg xmlns="http://www.w3.org/2000/svg" width="24" height="24" viewBox="0 0 24 24" fill="none" stroke="currentColor" stroke-width="2" stroke-linecap="round" stroke-linejoin="round"><path d="M4.499 3.043 C 3.380 3.232,2.461 4.048,2.114 5.160 L 2.020 5.460 2.020 12.000 L 2.020 18.540 2.114 18.840 C 2.418 19.816,3.150 20.555,4.140 20.886 L 4.420 20.979 7.770 20.991 C 9.990 20.999,11.172 20.989,11.274 20.962 C 11.498 20.901,11.739 20.711,11.867 20.492 C 11.964 20.327,11.980 20.257,11.980 20.000 C 11.980 19.746,11.963 19.672,11.872 19.516 C 11.761 19.328,11.572 19.158,11.373 19.070 C 11.287 19.032,10.483 19.015,7.980 19.000 L 4.700 18.980 4.516 18.872 C 4.415 18.813,4.284 18.700,4.225 18.623 C 3.987 18.311,4.000 18.701,4.000 12.022 C 4.000 5.123,3.977 5.629,4.303 5.303 C 4.631 4.976,4.009 5.000,12.000 5.000 C 19.938 5.000,19.365 4.979,19.679 5.283 C 20.001 5.596,19.978 5.284,20.000 9.523 L 20.020 13.306 20.141 13.503 C 20.543 14.156,21.457 14.156,21.859 13.503 L 21.980 13.306 21.980 9.383 L 21.980 5.460 21.886 5.160 C 21.581 4.182,20.832 3.428,19.861 3.121 L 19.540 3.020 12.120 3.014 C 8.039 3.011,4.609 3.024,4.499 3.043 M8.695 16.056 C 8.465 16.129,8.255 16.299,8.128 16.516 C 8.037 16.672,8.020 16.746,8.020 17.000 C 8.020 17.256,8.036 17.328,8.131 17.489 C 8.192 17.592,8.304 17.725,8.381 17.783 C 8.651 17.990,8.711 17.996,10.260 17.998 C 11.693 17.999,11.701 17.999,11.900 17.905 C 12.281 17.724,12.488 17.405,12.488 17.000 C 12.488 16.615,12.293 16.297,11.940 16.106 C 11.785 16.023,11.732 16.020,10.320 16.012 C 9.204 16.005,8.821 16.016,8.695 16.056 M20.640 16.068 C 20.488 16.121,20.196 16.394,18.731 17.853 L 17.002 19.575 16.271 18.855 C 15.655 18.247,15.509 18.123,15.343 18.067 C 14.865 17.905,14.383 18.083,14.128 18.516 C 14.036 18.672,14.020 18.745,14.021 19.000 C 14.021 19.213,14.043 19.341,14.095 19.440 C 14.197 19.633,16.297 21.740,16.520 21.873 C 16.673 21.964,16.745 21.980,17.000 21.979 C 17.212 21.979,17.341 21.957,17.440 21.905 C 17.632 21.805,21.739 17.705,21.873 17.480 C 21.964 17.328,21.980 17.254,21.980 17.000 C 21.980 16.746,21.963 16.672,21.872 16.516 C 21.617 16.083,21.121 15.903,20.640 16.068 " stroke="none" fill-rule="evenodd" fill="black"></path></svg>