<svg xmlns="http://www.w3.org/2000/svg" width="24" height="24" viewBox="0 0 24 24" fill="none" stroke="currentColor" stroke-width="2" stroke-linecap="round" stroke-linejoin="round"><path d="M4.499 5.043 C 3.380 5.232,2.461 6.048,2.114 7.160 L 2.020 7.460 2.020 12.000 L 2.020 16.540 2.114 16.840 C 2.422 17.827,3.173 18.578,4.160 18.886 L 4.460 18.980 12.000 18.980 L 19.540 18.980 19.840 18.886 C 20.827 18.578,21.578 17.827,21.886 16.840 L 21.980 16.540 21.980 12.000 L 21.980 7.460 21.886 7.160 C 21.581 6.182,20.832 5.428,19.861 5.121 L 19.540 5.020 12.120 5.014 C 8.039 5.011,4.609 5.024,4.499 5.043 M19.310 7.061 C 19.452 7.103,19.571 7.178,19.697 7.303 C 19.978 7.584,20.000 7.704,20.000 8.941 L 20.000 9.987 19.786 10.035 C 19.515 10.096,19.270 10.275,19.129 10.514 L 19.020 10.700 19.020 12.003 L 19.020 13.306 19.141 13.503 C 19.288 13.742,19.578 13.946,19.821 13.982 L 20.000 14.009 20.000 15.058 C 20.000 16.203,19.978 16.357,19.779 16.618 C 19.718 16.698,19.585 16.813,19.484 16.872 L 19.300 16.980 12.000 16.980 L 4.700 16.980 4.516 16.872 C 4.303 16.747,4.141 16.550,4.058 16.316 C 3.969 16.062,3.971 7.992,4.061 7.690 C 4.140 7.421,4.412 7.143,4.673 7.063 C 4.964 6.974,19.009 6.971,19.310 7.061 M6.720 11.037 C 5.860 11.299,5.742 12.479,6.535 12.887 C 7.006 13.129,7.596 12.954,7.867 12.492 C 7.964 12.327,7.980 12.257,7.980 12.000 C 7.980 11.746,7.963 11.672,7.872 11.516 C 7.641 11.123,7.133 10.912,6.720 11.037 " stroke="none" fill-rule="evenodd" fill="black"></path></svg>