<svg xmlns="http://www.w3.org/2000/svg" width="24" height="24" viewBox="0 0 24 24" fill="none" stroke="currentColor" stroke-width="2" stroke-linecap="round" stroke-linejoin="round"><path d="M2.670 2.061 C 2.449 2.142,2.250 2.309,2.129 2.515 C 2.021 2.699,2.013 2.770,2.029 3.360 C 2.031 3.437,2.025 6.362,2.016 9.860 C 2.004 14.210,2.012 16.284,2.041 16.423 C 2.148 16.941,2.602 17.538,3.070 17.775 C 3.514 18.000,3.518 18.000,6.301 18.000 L 8.864 18.000 8.742 18.990 L 8.619 19.980 8.179 20.004 C 7.938 20.017,7.689 20.049,7.627 20.074 C 7.435 20.153,7.241 20.325,7.128 20.516 C 7.037 20.672,7.020 20.746,7.020 21.000 C 7.020 21.256,7.036 21.328,7.131 21.489 C 7.256 21.702,7.449 21.864,7.670 21.943 C 7.892 22.022,16.108 22.022,16.330 21.943 C 16.551 21.864,16.744 21.702,16.869 21.489 C 16.964 21.328,16.980 21.256,16.980 21.000 C 16.980 20.746,16.963 20.672,16.872 20.516 C 16.759 20.325,16.565 20.153,16.373 20.074 C 16.311 20.049,16.062 20.017,15.821 20.004 L 15.381 19.980 15.258 18.990 L 15.136 18.000 15.858 18.000 L 16.580 18.000 18.460 19.883 C 19.494 20.918,20.421 21.813,20.520 21.873 C 20.673 21.964,20.746 21.980,21.000 21.980 C 21.257 21.980,21.327 21.964,21.492 21.867 C 21.968 21.587,22.139 20.967,21.865 20.508 C 21.810 20.416,17.665 16.243,12.653 11.235 C 4.231 2.820,3.525 2.125,3.343 2.065 C 3.107 1.987,2.874 1.986,2.670 2.061 M6.695 2.057 C 6.466 2.129,6.256 2.299,6.128 2.516 C 6.037 2.672,6.020 2.746,6.020 3.000 C 6.020 3.256,6.036 3.328,6.131 3.489 C 6.256 3.702,6.449 3.864,6.670 3.943 C 6.793 3.987,8.009 3.997,13.410 3.998 L 20.000 4.000 20.000 8.000 L 20.000 12.000 18.446 12.000 C 16.758 12.000,16.658 12.011,16.382 12.221 C 16.302 12.282,16.187 12.415,16.128 12.516 C 16.037 12.672,16.020 12.746,16.020 13.000 C 16.020 13.256,16.036 13.328,16.131 13.489 C 16.192 13.592,16.304 13.725,16.381 13.783 C 16.654 13.991,16.700 13.996,18.410 13.998 L 20.000 14.000 20.000 15.015 C 20.000 15.913,19.992 16.037,19.933 16.085 C 19.735 16.249,19.648 16.790,19.772 17.087 C 19.917 17.434,20.336 17.720,20.700 17.720 C 21.078 17.720,21.456 17.452,21.735 16.986 C 22.014 16.521,22.000 16.888,21.999 9.992 C 21.999 3.249,22.008 3.529,21.781 3.083 C 21.646 2.816,21.297 2.449,21.017 2.281 C 20.527 1.986,21.035 2.005,13.560 2.005 C 8.194 2.005,6.827 2.016,6.695 2.057 M7.300 8.720 L 10.580 12.000 7.290 12.000 L 4.000 12.000 4.000 8.720 C 4.000 6.916,4.005 5.440,4.010 5.440 C 4.016 5.440,5.496 6.916,7.300 8.720 M13.580 15.000 L 14.579 16.000 9.290 16.000 L 4.000 16.000 4.000 15.000 L 4.000 14.000 8.290 14.000 L 12.581 14.000 13.580 15.000 M13.120 18.030 C 13.120 18.047,13.174 18.483,13.240 19.000 C 13.306 19.517,13.360 19.953,13.360 19.970 C 13.360 19.987,12.748 20.000,12.000 20.000 C 11.252 20.000,10.640 19.987,10.640 19.970 C 10.640 19.953,10.694 19.517,10.760 19.000 C 10.826 18.483,10.880 18.047,10.880 18.030 C 10.880 18.014,11.384 18.000,12.000 18.000 C 12.616 18.000,13.120 18.014,13.120 18.030 " stroke="none" fill-rule="evenodd" fill="black"></path></svg>