<svg xmlns="http://www.w3.org/2000/svg" width="24" height="24" viewBox="0 0 24 24" fill="none" stroke="currentColor" stroke-width="2" stroke-linecap="round" stroke-linejoin="round"><path d="M8.695 2.057 C 8.466 2.129,8.256 2.299,8.128 2.516 L 8.020 2.700 8.000 3.913 L 7.980 5.126 7.720 5.217 C 6.350 5.697,5.370 6.816,5.083 8.227 C 5.003 8.618,5.000 8.755,5.000 12.000 C 5.000 15.243,5.003 15.382,5.082 15.772 C 5.359 17.128,6.281 18.231,7.540 18.711 C 7.716 18.778,7.891 18.843,7.928 18.854 C 7.989 18.874,7.997 18.990,8.008 20.088 L 8.020 21.300 8.131 21.489 C 8.256 21.702,8.449 21.864,8.670 21.943 C 8.891 22.022,15.109 22.022,15.330 21.943 C 15.551 21.864,15.744 21.702,15.869 21.489 L 15.980 21.300 15.992 20.088 C 16.003 18.990,16.011 18.874,16.072 18.854 C 16.662 18.668,17.163 18.400,17.584 18.046 C 18.266 17.471,18.735 16.669,18.921 15.757 C 18.996 15.387,19.000 15.202,19.000 12.000 C 19.000 8.798,18.996 8.613,18.921 8.243 C 18.630 6.816,17.654 5.699,16.280 5.217 L 16.020 5.126 16.000 3.913 L 15.980 2.700 15.872 2.516 C 15.740 2.293,15.533 2.128,15.290 2.055 C 15.030 1.977,8.945 1.979,8.695 2.057 M14.000 4.500 L 14.000 5.000 12.000 5.000 L 10.000 5.000 10.000 4.500 L 10.000 4.000 12.000 4.000 L 14.000 4.000 14.000 4.500 M15.523 7.073 C 16.212 7.253,16.795 7.860,16.941 8.549 C 17.026 8.950,17.026 15.050,16.941 15.451 C 16.863 15.821,16.710 16.091,16.400 16.404 C 16.119 16.690,15.854 16.846,15.492 16.940 C 15.150 17.029,8.850 17.029,8.508 16.940 C 7.823 16.762,7.249 16.194,7.073 15.523 C 7.011 15.285,7.004 14.950,7.002 12.028 C 7.000 8.431,6.998 8.459,7.265 8.014 C 7.546 7.543,7.988 7.201,8.477 7.073 C 8.715 7.011,9.047 7.005,12.000 7.005 C 14.953 7.005,15.285 7.011,15.523 7.073 M11.499 9.043 C 10.382 9.230,9.460 10.049,9.114 11.160 C 8.979 11.594,8.979 12.406,9.114 12.840 C 9.421 13.826,10.174 14.579,11.160 14.886 C 11.594 15.021,12.406 15.021,12.840 14.886 C 13.827 14.579,14.584 13.821,14.885 12.840 C 14.955 12.611,14.977 12.440,14.978 12.120 C 14.980 11.733,14.971 11.686,14.871 11.514 C 14.568 10.998,13.883 10.854,13.405 11.205 C 13.169 11.379,13.047 11.609,13.002 11.966 C 12.981 12.130,12.945 12.314,12.922 12.375 C 12.851 12.561,12.677 12.758,12.484 12.872 C 12.328 12.964,12.254 12.980,11.997 12.980 C 11.729 12.980,11.671 12.966,11.502 12.860 C 11.002 12.547,10.858 11.905,11.183 11.436 C 11.378 11.154,11.609 11.047,12.169 10.979 C 12.421 10.948,12.706 10.752,12.859 10.503 C 12.966 10.329,12.980 10.271,12.980 10.003 C 12.980 9.746,12.964 9.672,12.872 9.516 C 12.617 9.082,12.174 8.930,11.499 9.043 M14.000 19.500 L 14.000 20.000 12.000 20.000 L 10.000 20.000 10.000 19.500 L 10.000 19.000 12.000 19.000 L 14.000 19.000 14.000 19.500 " stroke="none" fill-rule="evenodd" fill="black"></path></svg>