<svg xmlns="http://www.w3.org/2000/svg" width="24" height="24" viewBox="0 0 24 24" fill="none" stroke="currentColor" stroke-width="2" stroke-linecap="round" stroke-linejoin="round"><path d="M4.499 2.043 C 3.379 2.234,2.461 3.048,2.114 4.160 L 2.020 4.460 2.020 12.000 L 2.020 19.540 2.114 19.840 C 2.422 20.827,3.173 21.578,4.160 21.886 L 4.460 21.980 9.000 21.980 L 13.540 21.980 13.840 21.886 C 14.827 21.578,15.578 20.827,15.886 19.840 L 15.980 19.540 15.980 12.000 L 15.980 4.460 15.886 4.160 C 15.581 3.182,14.832 2.428,13.861 2.121 L 13.540 2.020 9.120 2.014 C 6.689 2.011,4.609 2.024,4.499 2.043 M7.018 4.179 C 7.054 4.422,7.258 4.712,7.497 4.859 L 7.694 4.980 9.000 4.980 L 10.306 4.980 10.503 4.859 C 10.742 4.712,10.946 4.422,10.982 4.179 L 11.009 4.000 12.057 4.000 C 13.297 4.000,13.416 4.022,13.697 4.303 C 14.024 4.631,14.000 4.009,14.000 12.001 C 14.000 17.907,13.991 19.138,13.945 19.290 C 13.872 19.533,13.707 19.740,13.484 19.872 L 13.300 19.980 9.000 19.980 L 4.700 19.980 4.516 19.872 C 4.415 19.813,4.284 19.700,4.225 19.623 C 3.986 19.309,4.000 19.795,4.000 12.022 C 4.000 4.005,3.975 4.631,4.304 4.303 C 4.582 4.024,4.681 4.006,5.925 4.003 L 6.991 4.000 7.018 4.179 M20.668 5.061 C 20.585 5.092,20.462 5.156,20.395 5.203 C 20.251 5.306,18.140 8.453,18.057 8.690 C 17.985 8.894,17.985 9.106,18.057 9.310 C 18.088 9.399,18.493 10.040,18.957 10.735 L 19.801 12.000 18.957 13.265 C 18.493 13.960,18.088 14.601,18.057 14.690 C 17.985 14.894,17.985 15.106,18.057 15.310 C 18.088 15.398,18.600 16.201,19.196 17.094 C 20.330 18.794,20.373 18.846,20.736 18.961 C 20.955 19.030,21.287 18.987,21.501 18.862 C 21.907 18.624,22.096 18.123,21.943 17.690 C 21.912 17.601,21.507 16.960,21.043 16.265 L 20.199 15.000 21.043 13.735 C 21.507 13.040,21.912 12.399,21.943 12.310 C 22.015 12.106,22.015 11.894,21.943 11.690 C 21.912 11.601,21.507 10.960,21.043 10.265 L 20.199 9.000 21.043 7.735 C 21.507 7.040,21.912 6.399,21.943 6.310 C 22.212 5.550,21.428 4.782,20.668 5.061 M8.695 16.057 C 8.466 16.129,8.256 16.299,8.128 16.516 C 8.036 16.672,8.020 16.745,8.021 17.000 C 8.022 17.332,8.101 17.533,8.306 17.728 C 8.785 18.181,9.580 18.046,9.893 17.460 C 10.025 17.211,10.015 16.760,9.872 16.516 C 9.628 16.101,9.150 15.915,8.695 16.057 " stroke="none" fill-rule="evenodd" fill="black"></path></svg>