<svg xmlns="http://www.w3.org/2000/svg" width="24" height="24" viewBox="0 0 24 24" fill="none" stroke="currentColor" stroke-width="2" stroke-linecap="round" stroke-linejoin="round"><path d="M6.499 2.043 C 5.380 2.233,4.461 3.048,4.114 4.160 L 4.020 4.460 4.020 12.000 L 4.020 19.540 4.114 19.840 C 4.418 20.816,5.150 21.554,6.140 21.886 L 6.420 21.980 10.040 21.991 C 14.081 22.004,13.845 22.020,14.173 21.724 C 14.381 21.536,14.488 21.292,14.488 21.003 C 14.488 20.615,14.294 20.298,13.940 20.106 C 13.780 20.020,13.774 20.020,10.240 20.000 L 6.700 19.980 6.516 19.872 C 6.415 19.813,6.284 19.700,6.225 19.623 C 5.986 19.309,6.000 19.795,6.000 12.022 C 6.000 4.006,5.975 4.631,6.303 4.303 C 6.629 3.977,6.126 4.000,13.000 4.000 C 19.826 4.000,19.367 3.981,19.679 4.283 C 20.001 4.596,19.978 4.284,20.000 8.523 L 20.020 12.306 20.141 12.503 C 20.543 13.156,21.457 13.156,21.859 12.503 L 21.980 12.306 21.980 8.383 L 21.980 4.460 21.886 4.160 C 21.581 3.182,20.832 2.428,19.861 2.121 L 19.540 2.020 13.120 2.014 C 9.589 2.011,6.609 2.024,6.499 2.043 M18.580 15.096 C 18.424 15.171,18.029 15.545,16.774 16.806 C 15.891 17.694,15.135 18.483,15.095 18.560 C 15.043 18.659,15.021 18.788,15.021 19.000 C 15.020 19.258,15.036 19.327,15.133 19.492 C 15.263 19.714,15.502 19.901,15.736 19.965 C 15.939 20.019,16.267 19.989,16.445 19.899 C 16.519 19.861,16.899 19.514,17.289 19.128 L 17.997 18.426 18.009 20.366 L 18.020 22.306 18.141 22.503 C 18.543 23.156,19.457 23.156,19.859 22.503 L 19.980 22.306 19.991 20.366 L 20.003 18.426 20.711 19.128 C 21.101 19.514,21.483 19.864,21.560 19.904 C 21.660 19.957,21.787 19.979,22.000 19.979 C 22.258 19.980,22.327 19.964,22.492 19.867 C 22.714 19.737,22.901 19.498,22.965 19.264 C 23.019 19.061,22.989 18.733,22.899 18.555 C 22.862 18.481,22.109 17.694,21.226 16.806 C 19.472 15.043,19.420 15.001,19.000 15.001 C 18.851 15.001,18.716 15.031,18.580 15.096 M8.695 17.057 C 8.466 17.129,8.256 17.299,8.128 17.516 C 8.037 17.672,8.020 17.746,8.020 18.000 C 8.020 18.256,8.036 18.328,8.131 18.489 C 8.256 18.702,8.449 18.864,8.670 18.943 C 8.888 19.021,12.112 19.021,12.330 18.943 C 12.551 18.864,12.744 18.702,12.869 18.489 C 12.964 18.328,12.980 18.256,12.980 18.000 C 12.980 17.746,12.963 17.672,12.872 17.516 C 12.740 17.293,12.533 17.128,12.290 17.055 C 12.035 16.978,8.941 16.980,8.695 17.057 " stroke="none" fill-rule="evenodd" fill="black"></path></svg>