<svg xmlns="http://www.w3.org/2000/svg" width="24" height="24" viewBox="0 0 24 24" fill="none" stroke="currentColor" stroke-width="2" stroke-linecap="round" stroke-linejoin="round"><path d="M10.311 2.041 C 9.865 2.117,9.404 2.322,9.020 2.613 C 8.647 2.896,4.676 6.901,4.493 7.180 C 4.281 7.503,4.136 7.855,4.060 8.230 C 4.005 8.504,3.999 9.182,4.009 14.060 L 4.020 19.580 4.114 19.860 C 4.446 20.851,5.184 21.582,6.160 21.886 L 6.460 21.980 12.000 21.980 L 17.540 21.980 17.840 21.886 C 18.827 21.578,19.578 20.827,19.886 19.840 L 19.980 19.540 19.980 12.000 L 19.980 4.460 19.886 4.160 C 19.581 3.182,18.831 2.427,17.861 2.122 L 17.540 2.021 14.020 2.014 C 12.084 2.011,10.415 2.023,10.311 2.041 M17.310 4.061 C 17.589 4.144,17.856 4.411,17.939 4.690 C 17.993 4.870,18.000 5.755,18.000 12.001 C 18.000 17.907,17.991 19.138,17.945 19.290 C 17.872 19.533,17.707 19.740,17.484 19.872 L 17.300 19.980 12.000 19.980 L 6.700 19.980 6.516 19.872 C 6.415 19.813,6.283 19.700,6.224 19.621 C 5.987 19.310,5.998 19.616,6.009 13.839 L 6.020 8.540 6.107 8.380 C 6.179 8.247,10.260 4.121,10.321 4.119 C 10.331 4.119,10.412 4.093,10.500 4.061 C 10.746 3.972,17.012 3.972,17.310 4.061 M12.695 5.057 C 12.466 5.129,12.256 5.299,12.128 5.516 L 12.020 5.700 12.020 7.003 L 12.020 8.306 12.141 8.503 C 12.543 9.156,13.457 9.156,13.859 8.503 L 13.980 8.306 13.980 7.003 L 13.980 5.700 13.872 5.516 C 13.628 5.101,13.150 4.915,12.695 5.057 M15.695 5.057 C 15.466 5.129,15.256 5.299,15.128 5.516 L 15.020 5.700 15.020 7.003 L 15.020 8.306 15.141 8.503 C 15.543 9.156,16.457 9.156,16.859 8.503 L 16.980 8.306 16.980 7.003 L 16.980 5.700 16.872 5.516 C 16.628 5.101,16.150 4.915,15.695 5.057 M9.695 6.057 C 9.466 6.129,9.256 6.299,9.128 6.516 C 9.020 6.699,9.020 6.703,9.020 7.503 L 9.020 8.306 9.141 8.503 C 9.543 9.156,10.457 9.156,10.859 8.503 L 10.980 8.306 10.980 7.503 C 10.980 6.703,10.980 6.699,10.872 6.516 C 10.628 6.101,10.150 5.915,9.695 6.057 " stroke="none" fill-rule="evenodd" fill="black"></path></svg>