<svg xmlns="http://www.w3.org/2000/svg" width="24" height="24" viewBox="0 0 24 24" fill="none" stroke="currentColor" stroke-width="2" stroke-linecap="round" stroke-linejoin="round"><path d="M5.499 2.043 C 4.380 2.233,3.461 3.048,3.114 4.160 L 3.020 4.460 3.020 12.000 L 3.020 19.540 3.114 19.840 C 3.418 20.816,4.151 21.555,5.140 21.886 L 5.420 21.979 8.540 21.991 C 12.024 22.005,11.847 22.018,12.173 21.724 C 12.381 21.536,12.488 21.292,12.488 21.003 C 12.488 20.615,12.294 20.298,11.940 20.106 C 11.781 20.021,11.761 20.020,8.740 20.000 L 5.700 19.980 5.516 19.872 C 5.415 19.813,5.284 19.700,5.225 19.623 C 4.986 19.309,5.000 19.795,5.000 12.022 C 5.000 4.006,4.975 4.631,5.303 4.303 C 5.629 3.977,5.126 4.000,12.000 4.000 C 18.826 4.000,18.367 3.981,18.679 4.283 C 19.003 4.598,18.978 4.224,19.000 9.023 L 19.020 13.306 19.141 13.503 C 19.543 14.156,20.457 14.156,20.859 13.503 L 20.980 13.306 20.980 8.883 L 20.980 4.460 20.886 4.160 C 20.581 3.182,19.832 2.428,18.861 2.121 L 18.540 2.020 12.120 2.014 C 8.589 2.011,5.609 2.024,5.499 2.043 M16.640 16.069 C 16.492 16.121,16.265 16.325,15.347 17.236 C 14.734 17.843,14.185 18.421,14.127 18.520 C 14.037 18.672,14.020 18.747,14.020 19.000 C 14.020 19.254,14.036 19.328,14.127 19.480 C 14.260 19.703,16.367 21.803,16.560 21.905 C 16.659 21.957,16.787 21.979,17.000 21.979 C 17.258 21.980,17.327 21.964,17.492 21.867 C 17.714 21.737,17.901 21.498,17.965 21.264 C 18.019 21.061,17.989 20.733,17.899 20.555 C 17.861 20.481,17.514 20.101,17.127 19.710 L 16.423 19.000 17.127 18.290 C 17.514 17.899,17.864 17.517,17.904 17.440 C 17.957 17.340,17.979 17.213,17.979 17.000 C 17.980 16.745,17.964 16.672,17.872 16.516 C 17.617 16.083,17.120 15.902,16.640 16.069 M19.670 16.061 C 19.448 16.142,19.250 16.309,19.128 16.516 C 19.036 16.672,19.020 16.745,19.021 17.000 C 19.021 17.213,19.043 17.340,19.096 17.440 C 19.136 17.517,19.486 17.899,19.873 18.290 L 20.577 19.000 19.873 19.710 C 19.486 20.101,19.139 20.481,19.101 20.555 C 18.872 21.008,19.056 21.601,19.508 21.867 C 19.673 21.964,19.742 21.980,20.000 21.979 C 20.213 21.979,20.341 21.957,20.440 21.905 C 20.633 21.803,22.740 19.703,22.873 19.480 C 22.964 19.328,22.980 19.254,22.980 19.000 C 22.980 18.747,22.963 18.672,22.873 18.520 C 22.815 18.421,22.266 17.843,21.653 17.236 C 20.680 16.271,20.515 16.124,20.343 16.066 C 20.108 15.987,19.875 15.985,19.670 16.061 M8.695 17.057 C 8.466 17.129,8.256 17.299,8.128 17.516 C 8.037 17.672,8.020 17.746,8.020 18.000 C 8.020 18.256,8.036 18.328,8.131 18.489 C 8.256 18.702,8.449 18.864,8.670 18.943 C 8.885 19.020,11.115 19.020,11.330 18.943 C 11.551 18.864,11.744 18.702,11.869 18.489 C 11.964 18.328,11.980 18.256,11.980 18.000 C 11.980 17.746,11.963 17.672,11.872 17.516 C 11.740 17.293,11.533 17.128,11.290 17.055 C 11.039 16.979,8.937 16.981,8.695 17.057 " stroke="none" fill-rule="evenodd" fill="black"></path></svg>