<svg xmlns="http://www.w3.org/2000/svg" width="24" height="24" viewBox="0 0 24 24" fill="none" stroke="currentColor" stroke-width="2" stroke-linecap="round" stroke-linejoin="round"><path d="M7.499 2.043 C 6.379 2.234,5.461 3.048,5.114 4.160 L 5.020 4.460 5.020 12.000 L 5.020 19.540 5.114 19.840 C 5.419 20.816,6.153 21.558,7.140 21.885 C 7.416 21.976,7.448 21.978,9.538 21.991 C 11.907 22.006,11.854 22.012,12.173 21.724 C 12.381 21.536,12.488 21.292,12.488 21.003 C 12.488 20.615,12.294 20.298,11.940 20.106 C 11.783 20.022,11.736 20.020,9.740 20.000 L 7.700 19.980 7.516 19.872 C 7.415 19.813,7.284 19.700,7.225 19.623 C 6.986 19.309,7.000 19.795,7.000 12.022 C 7.000 4.006,6.975 4.631,7.303 4.303 C 7.584 4.022,7.703 4.000,8.943 4.000 L 9.991 4.000 10.018 4.179 C 10.054 4.422,10.258 4.712,10.497 4.859 L 10.694 4.980 12.000 4.980 L 13.306 4.980 13.503 4.859 C 13.742 4.712,13.946 4.422,13.982 4.179 L 14.009 4.000 15.057 4.000 C 16.297 4.000,16.416 4.022,16.697 4.303 C 17.020 4.626,17.000 4.267,17.000 9.797 L 17.001 14.700 17.095 14.900 C 17.276 15.282,17.595 15.488,18.003 15.488 C 18.292 15.488,18.536 15.381,18.724 15.173 C 19.024 14.840,19.004 15.255,18.991 9.540 L 18.980 4.420 18.886 4.140 C 18.556 3.158,17.821 2.424,16.861 2.121 L 16.540 2.020 12.120 2.014 C 9.689 2.011,7.609 2.024,7.499 2.043 M11.695 16.057 C 11.466 16.129,11.256 16.299,11.128 16.516 C 11.036 16.672,11.020 16.745,11.021 17.000 C 11.022 17.332,11.101 17.533,11.306 17.728 C 11.785 18.181,12.580 18.046,12.893 17.460 C 13.025 17.211,13.015 16.760,12.872 16.516 C 12.628 16.101,12.150 15.915,11.695 16.057 M20.640 16.068 C 20.488 16.121,20.196 16.394,18.731 17.853 L 17.002 19.575 16.271 18.855 C 15.655 18.247,15.509 18.123,15.343 18.067 C 14.865 17.905,14.383 18.083,14.128 18.516 C 14.036 18.672,14.020 18.745,14.021 19.000 C 14.021 19.213,14.043 19.341,14.095 19.440 C 14.197 19.633,16.297 21.740,16.520 21.873 C 16.673 21.964,16.745 21.980,17.000 21.979 C 17.212 21.979,17.341 21.957,17.440 21.905 C 17.632 21.805,21.739 17.705,21.873 17.480 C 21.964 17.328,21.980 17.254,21.980 17.000 C 21.980 16.746,21.963 16.672,21.872 16.516 C 21.617 16.083,21.121 15.903,20.640 16.068 " stroke="none" fill-rule="evenodd" fill="black"></path></svg>