<svg xmlns="http://www.w3.org/2000/svg" width="24" height="24" viewBox="0 0 24 24" fill="none" stroke="currentColor" stroke-width="2" stroke-linecap="round" stroke-linejoin="round"><path d="M8.695 2.057 C 8.466 2.129,8.256 2.299,8.128 2.516 L 8.020 2.700 8.000 3.913 L 7.980 5.126 7.720 5.217 C 6.350 5.697,5.370 6.816,5.083 8.227 C 5.003 8.618,5.000 8.755,5.000 12.000 C 5.000 15.243,5.003 15.382,5.082 15.772 C 5.359 17.128,6.281 18.231,7.540 18.711 C 7.716 18.778,7.891 18.843,7.928 18.854 C 7.989 18.874,7.997 18.990,8.008 20.088 L 8.020 21.300 8.131 21.489 C 8.256 21.702,8.449 21.864,8.670 21.943 C 8.891 22.022,15.109 22.022,15.330 21.943 C 15.551 21.864,15.744 21.702,15.869 21.489 L 15.980 21.300 15.992 19.560 C 16.002 18.016,15.996 17.801,15.937 17.646 C 15.845 17.405,15.657 17.204,15.420 17.094 L 15.220 17.001 11.978 17.000 C 8.469 17.000,8.520 17.003,8.083 16.781 C 7.816 16.646,7.449 16.297,7.281 16.017 C 6.999 15.548,7.005 15.636,7.005 12.000 C 7.005 9.047,7.011 8.715,7.073 8.477 C 7.250 7.801,7.850 7.215,8.522 7.062 C 8.933 6.969,15.067 6.969,15.478 7.062 C 15.956 7.171,16.389 7.485,16.686 7.937 C 16.975 8.378,16.973 8.364,16.998 10.443 L 17.020 12.306 17.141 12.503 C 17.543 13.156,18.457 13.156,18.859 12.503 L 18.980 12.306 18.992 10.477 C 19.002 8.771,18.998 8.621,18.922 8.250 C 18.630 6.816,17.657 5.700,16.280 5.217 L 16.020 5.126 16.000 3.913 L 15.980 2.700 15.872 2.516 C 15.740 2.293,15.533 2.128,15.290 2.055 C 15.030 1.977,8.945 1.979,8.695 2.057 M14.000 4.500 L 14.000 5.000 12.000 5.000 L 10.000 5.000 10.000 4.500 L 10.000 4.000 12.000 4.000 L 14.000 4.000 14.000 4.500 M18.695 15.057 C 18.466 15.129,18.256 15.299,18.128 15.516 L 18.020 15.700 18.020 17.503 L 18.020 19.306 18.141 19.503 C 18.543 20.156,19.457 20.156,19.859 19.503 L 19.980 19.306 19.980 17.503 L 19.980 15.700 19.872 15.516 C 19.628 15.101,19.150 14.915,18.695 15.057 M14.000 19.500 L 14.000 20.000 12.000 20.000 L 10.000 20.000 10.000 19.500 L 10.000 19.000 12.000 19.000 L 14.000 19.000 14.000 19.500 M18.695 21.057 C 18.466 21.129,18.256 21.299,18.128 21.516 C 18.036 21.672,18.020 21.745,18.021 22.000 C 18.022 22.332,18.101 22.533,18.306 22.728 C 18.785 23.181,19.580 23.046,19.893 22.460 C 20.025 22.211,20.015 21.760,19.872 21.516 C 19.628 21.101,19.150 20.915,18.695 21.057 " stroke="none" fill-rule="evenodd" fill="black"></path></svg>