<svg xmlns="http://www.w3.org/2000/svg" width="24" height="24" viewBox="0 0 24 24" fill="none" stroke="currentColor" stroke-width="2" stroke-linecap="round" stroke-linejoin="round"><path d="M4.499 3.043 C 3.380 3.232,2.461 4.048,2.114 5.160 L 2.020 5.460 2.020 12.000 L 2.020 18.540 2.114 18.840 C 2.418 19.816,3.149 20.554,4.140 20.886 L 4.420 20.980 8.771 20.991 C 11.657 20.999,13.174 20.989,13.275 20.961 C 13.498 20.901,13.739 20.710,13.867 20.492 C 13.964 20.327,13.980 20.257,13.980 20.000 C 13.980 19.746,13.963 19.672,13.872 19.516 C 13.761 19.328,13.572 19.158,13.373 19.070 C 13.286 19.031,12.284 19.015,8.980 19.000 L 4.700 18.980 4.516 18.872 C 4.415 18.813,4.284 18.700,4.225 18.623 C 3.987 18.311,4.000 18.701,4.000 12.022 C 4.000 5.123,3.977 5.629,4.303 5.303 C 4.631 4.976,4.009 5.000,12.000 5.000 C 19.991 5.000,19.369 4.976,19.697 5.303 C 20.006 5.612,20.000 5.555,20.000 8.297 L 20.001 10.700 20.095 10.900 C 20.276 11.282,20.595 11.488,21.003 11.488 C 21.292 11.488,21.536 11.381,21.724 11.173 C 22.015 10.850,22.005 10.966,21.991 8.039 L 21.979 5.420 21.885 5.140 C 21.559 4.160,20.821 3.425,19.861 3.121 L 19.540 3.020 12.120 3.014 C 8.039 3.011,4.609 3.024,4.499 3.043 M18.695 13.057 C 18.342 13.168,18.095 13.451,18.019 13.835 L 17.976 14.050 17.757 14.118 C 17.003 14.351,16.361 14.980,16.118 15.722 C 16.034 15.976,16.020 16.094,16.022 16.520 C 16.024 16.960,16.038 17.056,16.133 17.320 C 16.394 18.039,16.964 18.609,17.680 18.867 C 17.961 18.968,18.033 18.976,18.800 18.992 C 19.702 19.010,19.786 19.030,19.922 19.252 C 20.021 19.415,20.021 19.585,19.922 19.748 C 19.770 19.996,19.746 20.000,18.248 20.000 C 16.774 20.000,16.653 20.014,16.382 20.221 C 16.302 20.282,16.187 20.415,16.128 20.516 C 16.037 20.672,16.020 20.746,16.020 21.000 C 16.020 21.256,16.036 21.328,16.131 21.489 C 16.256 21.702,16.449 21.864,16.670 21.943 C 16.768 21.978,17.022 21.997,17.405 21.998 L 17.991 22.000 18.018 22.179 C 18.054 22.422,18.258 22.712,18.497 22.859 C 18.671 22.966,18.729 22.980,19.000 22.980 C 19.271 22.980,19.329 22.966,19.503 22.859 C 19.752 22.706,19.949 22.419,19.984 22.160 L 20.010 21.966 20.294 21.873 C 21.001 21.642,21.605 21.046,21.868 20.320 C 21.965 20.052,21.976 19.965,21.976 19.500 C 21.976 19.035,21.965 18.948,21.868 18.680 C 21.646 18.068,21.195 17.561,20.620 17.277 C 20.172 17.055,19.869 17.002,19.068 17.001 C 18.319 17.000,18.216 16.974,18.078 16.748 C 17.932 16.508,18.023 16.193,18.276 16.062 C 18.377 16.010,18.612 16.000,19.788 15.998 C 21.285 15.996,21.350 15.989,21.619 15.783 C 21.696 15.725,21.808 15.592,21.869 15.489 C 21.964 15.328,21.980 15.256,21.980 15.000 C 21.980 14.746,21.963 14.672,21.872 14.516 C 21.634 14.111,21.351 14.000,20.559 14.000 L 20.010 14.000 19.983 13.830 C 19.926 13.473,19.648 13.163,19.290 13.055 C 19.068 12.988,18.913 12.989,18.695 13.057 M8.695 16.057 C 8.466 16.129,8.256 16.299,8.128 16.516 C 8.037 16.672,8.020 16.746,8.020 17.000 C 8.020 17.256,8.036 17.328,8.131 17.489 C 8.256 17.702,8.449 17.864,8.670 17.943 C 8.889 18.021,13.111 18.021,13.330 17.943 C 13.551 17.864,13.744 17.702,13.869 17.489 C 13.964 17.328,13.980 17.256,13.980 17.000 C 13.980 16.746,13.963 16.672,13.872 16.516 C 13.740 16.293,13.533 16.128,13.290 16.055 C 13.033 15.978,8.943 15.979,8.695 16.057 " stroke="none" fill-rule="evenodd" fill="black"></path></svg>