<svg xmlns="http://www.w3.org/2000/svg" width="24" height="24" viewBox="0 0 24 24" fill="none" stroke="currentColor" stroke-width="2" stroke-linecap="round" stroke-linejoin="round"><path d="M7.499 2.043 C 6.379 2.234,5.461 3.048,5.114 4.160 L 5.020 4.460 5.020 12.000 L 5.020 19.540 5.114 19.840 C 5.418 20.816,6.151 21.555,7.140 21.886 L 7.420 21.979 10.540 21.991 C 14.024 22.005,13.847 22.018,14.173 21.724 C 14.381 21.536,14.488 21.292,14.488 21.003 C 14.488 20.615,14.294 20.298,13.940 20.106 C 13.781 20.021,13.761 20.020,10.740 20.000 L 7.700 19.980 7.516 19.872 C 7.415 19.813,7.284 19.700,7.225 19.623 C 6.986 19.309,7.000 19.795,7.000 12.022 C 7.000 4.006,6.975 4.631,7.303 4.303 C 7.584 4.022,7.703 4.000,8.943 4.000 L 9.991 4.000 10.018 4.179 C 10.054 4.422,10.258 4.712,10.497 4.859 L 10.694 4.980 12.000 4.980 L 13.306 4.980 13.503 4.859 C 13.742 4.712,13.946 4.422,13.982 4.179 L 14.009 4.000 15.057 4.000 C 16.275 4.000,16.411 4.024,16.679 4.283 C 17.001 4.596,16.978 4.284,17.000 8.523 L 17.020 12.306 17.141 12.503 C 17.543 13.156,18.457 13.156,18.859 12.503 L 18.980 12.306 18.980 8.383 L 18.980 4.460 18.886 4.160 C 18.581 3.182,17.832 2.428,16.861 2.121 L 16.540 2.020 12.120 2.014 C 9.689 2.011,7.609 2.024,7.499 2.043 M18.668 15.061 C 18.585 15.092,18.462 15.156,18.395 15.203 C 18.260 15.300,16.136 18.454,16.054 18.680 C 15.893 19.127,16.117 19.673,16.550 19.886 C 16.733 19.977,16.784 19.981,17.930 20.000 L 19.120 20.020 18.600 20.800 C 17.971 21.741,17.914 21.905,18.061 22.322 C 18.284 22.955,18.992 23.187,19.570 22.815 C 19.686 22.741,19.972 22.342,20.805 21.093 C 21.401 20.198,21.917 19.387,21.950 19.289 C 22.074 18.926,21.931 18.460,21.625 18.226 C 21.365 18.028,21.326 18.023,20.070 18.001 L 18.880 17.980 19.383 17.225 C 19.660 16.810,19.912 16.399,19.943 16.310 C 20.212 15.550,19.428 14.782,18.668 15.061 M11.695 16.057 C 11.466 16.129,11.256 16.299,11.128 16.516 C 11.036 16.672,11.020 16.745,11.021 17.000 C 11.022 17.332,11.101 17.533,11.306 17.728 C 11.785 18.181,12.580 18.046,12.893 17.460 C 13.025 17.211,13.015 16.760,12.872 16.516 C 12.628 16.101,12.150 15.915,11.695 16.057 " stroke="none" fill-rule="evenodd" fill="black"></path></svg>