<svg xmlns="http://www.w3.org/2000/svg" width="24" height="24" viewBox="0 0 24 24" fill="none" stroke="currentColor" stroke-width="2" stroke-linecap="round" stroke-linejoin="round"><path d="M3.477 3.073 C 2.806 3.249,2.238 3.823,2.060 4.508 C 2.008 4.706,2.000 5.577,2.000 11.000 C 2.000 17.828,1.988 17.462,2.225 17.930 C 2.361 18.199,2.801 18.639,3.070 18.775 C 3.529 19.007,3.373 19.000,7.864 19.000 L 11.991 19.000 12.018 19.179 C 12.054 19.422,12.258 19.712,12.497 19.859 C 12.671 19.966,12.729 19.980,12.997 19.980 C 13.256 19.980,13.327 19.964,13.489 19.869 C 13.702 19.744,13.864 19.551,13.943 19.330 C 13.987 19.208,13.997 18.238,13.998 14.090 L 14.000 9.000 14.495 9.000 L 14.991 9.000 15.018 9.179 C 15.054 9.422,15.258 9.712,15.497 9.859 L 15.694 9.980 17.000 9.980 L 18.306 9.980 18.503 9.859 C 18.742 9.712,18.946 9.422,18.982 9.179 L 19.009 9.000 19.505 9.000 L 20.000 9.000 20.000 10.850 L 20.001 12.700 20.095 12.900 C 20.276 13.281,20.595 13.488,21.000 13.488 C 21.405 13.488,21.724 13.281,21.905 12.900 L 21.999 12.700 21.999 10.740 C 21.999 8.624,21.988 8.490,21.781 8.083 C 21.646 7.816,21.297 7.449,21.017 7.281 C 20.658 7.065,20.361 7.005,19.630 7.002 L 19.000 7.000 18.999 5.890 C 18.999 4.691,18.970 4.456,18.781 4.083 C 18.646 3.816,18.297 3.449,18.017 3.281 C 17.527 2.986,18.042 3.005,10.500 3.005 C 4.239 3.005,3.721 3.010,3.477 3.073 M17.000 6.000 L 17.000 7.000 15.370 7.002 C 13.545 7.005,13.417 7.020,12.983 7.281 C 12.703 7.449,12.354 7.816,12.219 8.083 C 11.994 8.527,12.000 8.389,12.000 12.868 L 12.000 17.000 8.000 17.000 L 4.000 17.000 4.000 11.000 L 4.000 5.000 10.500 5.000 L 17.000 5.000 17.000 6.000 M18.668 15.061 C 18.585 15.092,18.462 15.156,18.395 15.203 C 18.260 15.300,16.136 18.454,16.054 18.680 C 15.893 19.127,16.117 19.673,16.550 19.886 C 16.733 19.977,16.784 19.981,17.930 20.000 L 19.120 20.020 18.600 20.800 C 17.971 21.741,17.914 21.905,18.061 22.322 C 18.284 22.955,18.992 23.187,19.570 22.815 C 19.686 22.741,19.972 22.342,20.805 21.093 C 21.401 20.198,21.917 19.387,21.950 19.289 C 22.074 18.926,21.931 18.460,21.625 18.226 C 21.365 18.028,21.326 18.023,20.070 18.001 L 18.880 17.980 19.383 17.225 C 19.660 16.810,19.912 16.399,19.943 16.310 C 20.212 15.550,19.428 14.782,18.668 15.061 " stroke="none" fill-rule="evenodd" fill="black"></path></svg>