<svg xmlns="http://www.w3.org/2000/svg" width="24" height="24" viewBox="0 0 24 24" fill="none" stroke="currentColor" stroke-width="2" stroke-linecap="round" stroke-linejoin="round"><path d="M7.940 4.043 C 5.715 4.281,3.774 5.791,2.982 7.899 C 2.809 8.358,2.721 8.763,1.856 13.080 C 1.078 16.968,1.027 17.247,1.027 17.660 C 1.028 18.569,1.368 19.369,2.026 20.004 C 2.575 20.533,3.192 20.826,3.966 20.923 C 4.777 21.025,5.734 20.747,6.363 20.226 C 6.504 20.109,7.475 19.111,8.520 18.008 L 10.420 16.003 12.000 16.003 L 13.580 16.004 15.556 18.086 C 16.643 19.232,17.642 20.251,17.776 20.350 C 18.684 21.025,19.868 21.179,20.949 20.762 C 22.248 20.261,23.118 18.909,23.028 17.530 C 23.010 17.241,21.577 9.711,21.337 8.640 C 21.181 7.942,20.810 7.124,20.370 6.506 C 20.105 6.134,19.490 5.499,19.140 5.236 C 18.379 4.665,17.539 4.295,16.540 4.092 C 16.259 4.035,15.734 4.026,12.240 4.018 C 10.051 4.013,8.116 4.024,7.940 4.043 M16.480 6.126 C 17.653 6.448,18.549 7.181,19.090 8.260 C 19.611 9.298,19.613 10.700,19.095 11.732 C 18.602 12.714,17.846 13.395,16.844 13.761 C 16.203 13.995,16.116 14.000,12.865 14.000 C 10.835 14.000,9.850 14.014,9.742 14.044 C 9.655 14.069,9.522 14.130,9.447 14.181 C 9.372 14.232,8.381 15.251,7.245 16.446 C 6.109 17.640,5.108 18.667,5.020 18.728 C 4.932 18.789,4.739 18.869,4.591 18.905 C 4.240 18.991,3.926 18.932,3.615 18.723 C 3.234 18.467,3.040 18.109,3.040 17.664 C 3.040 17.503,3.338 15.930,3.899 13.126 C 4.833 8.461,4.824 8.495,5.226 7.847 C 5.331 7.677,5.568 7.389,5.758 7.200 C 6.418 6.544,7.140 6.175,8.023 6.044 C 8.154 6.024,10.024 6.011,12.180 6.015 L 16.100 6.021 16.480 6.126 M7.695 8.057 C 7.352 8.164,7.073 8.481,7.018 8.825 C 6.992 8.985,6.986 8.990,6.781 9.036 C 6.515 9.096,6.269 9.276,6.129 9.514 C 6.036 9.672,6.020 9.745,6.020 10.003 C 6.020 10.271,6.034 10.329,6.141 10.503 C 6.287 10.740,6.577 10.946,6.817 10.982 C 6.988 11.007,6.993 11.012,7.018 11.183 C 7.054 11.423,7.260 11.713,7.497 11.859 C 7.671 11.966,7.729 11.980,8.000 11.980 C 8.271 11.980,8.329 11.966,8.503 11.859 C 8.740 11.713,8.946 11.423,8.982 11.183 C 9.007 11.012,9.012 11.007,9.183 10.982 C 9.423 10.946,9.713 10.740,9.859 10.503 C 9.966 10.329,9.980 10.271,9.980 10.003 C 9.980 9.745,9.964 9.672,9.871 9.514 C 9.731 9.276,9.485 9.096,9.219 9.036 C 9.014 8.990,9.008 8.985,8.982 8.825 C 8.926 8.473,8.646 8.162,8.290 8.055 C 8.068 7.988,7.913 7.989,7.695 8.057 M13.695 9.057 C 13.466 9.129,13.256 9.299,13.128 9.516 C 13.037 9.672,13.020 9.746,13.020 10.000 C 13.020 10.256,13.036 10.328,13.131 10.489 C 13.256 10.702,13.449 10.864,13.670 10.943 C 13.885 11.020,16.115 11.020,16.330 10.943 C 16.551 10.864,16.744 10.702,16.869 10.489 C 16.964 10.328,16.980 10.256,16.980 10.000 C 16.980 9.746,16.963 9.672,16.872 9.516 C 16.740 9.293,16.533 9.128,16.290 9.055 C 16.039 8.979,13.937 8.981,13.695 9.057 M20.660 15.640 C 21.075 17.770,21.084 17.858,20.922 18.224 C 20.814 18.470,20.545 18.742,20.286 18.869 C 20.095 18.963,20.010 18.980,19.740 18.979 C 19.262 18.977,19.113 18.896,18.553 18.328 C 17.881 17.647,16.320 15.995,16.320 15.964 C 16.320 15.950,16.450 15.917,16.610 15.892 C 17.256 15.789,18.187 15.412,18.801 15.006 C 19.203 14.740,19.745 14.262,20.029 13.923 C 20.156 13.771,20.263 13.650,20.267 13.654 C 20.271 13.658,20.448 14.552,20.660 15.640 " stroke="none" fill-rule="evenodd" fill="black"></path></svg>