<svg xmlns="http://www.w3.org/2000/svg" width="24" height="24" viewBox="0 0 24 24" fill="none" stroke="currentColor" stroke-width="2" stroke-linecap="round" stroke-linejoin="round"><path d="M5.477 2.073 C 4.806 2.249,4.238 2.823,4.060 3.508 C 4.008 3.707,4.000 4.805,4.000 12.000 C 4.000 21.017,3.986 20.458,4.225 20.930 C 4.361 21.199,4.801 21.639,5.070 21.775 C 5.519 22.003,5.479 22.000,8.718 22.000 L 11.700 21.999 11.900 21.905 C 12.281 21.724,12.488 21.405,12.488 21.000 C 12.488 20.615,12.293 20.297,11.940 20.106 C 11.781 20.020,11.766 20.020,8.890 20.009 L 6.000 19.998 6.000 11.999 L 6.000 4.000 12.000 4.000 L 18.000 4.000 18.000 8.850 L 18.001 13.700 18.095 13.900 C 18.276 14.281,18.595 14.488,19.000 14.488 C 19.405 14.488,19.724 14.281,19.905 13.900 L 19.999 13.700 19.999 8.740 C 19.999 3.361,20.005 3.524,19.781 3.083 C 19.646 2.816,19.297 2.449,19.017 2.281 C 18.528 1.987,18.983 2.005,12.000 2.005 C 6.211 2.005,5.720 2.010,5.477 2.073 M11.620 15.041 C 10.511 15.263,9.786 16.389,10.061 17.462 C 10.261 18.240,10.765 18.716,11.340 18.670 C 11.632 18.647,11.791 18.570,12.002 18.353 C 12.297 18.049,12.352 17.588,12.140 17.209 C 12.085 17.110,12.040 17.028,12.040 17.025 C 12.040 17.022,12.141 17.026,12.264 17.034 C 13.003 17.080,13.545 16.281,13.216 15.629 C 13.131 15.460,12.931 15.249,12.780 15.170 C 12.510 15.028,11.980 14.969,11.620 15.041 M20.640 16.068 C 20.488 16.121,20.196 16.394,18.731 17.853 L 17.002 19.575 16.271 18.855 C 15.655 18.247,15.509 18.123,15.343 18.067 C 14.865 17.905,14.383 18.083,14.128 18.516 C 14.036 18.672,14.020 18.745,14.021 19.000 C 14.021 19.213,14.043 19.341,14.095 19.440 C 14.197 19.633,16.297 21.740,16.520 21.873 C 16.673 21.964,16.745 21.980,17.000 21.979 C 17.212 21.979,17.341 21.957,17.440 21.905 C 17.632 21.805,21.739 17.705,21.873 17.480 C 21.964 17.328,21.980 17.254,21.980 17.000 C 21.980 16.746,21.963 16.672,21.872 16.516 C 21.617 16.083,21.121 15.903,20.640 16.068 " stroke="none" fill-rule="evenodd" fill="black"></path></svg>