<svg xmlns="http://www.w3.org/2000/svg" width="24" height="24" viewBox="0 0 24 24" fill="none" stroke="currentColor" stroke-width="2" stroke-linecap="round" stroke-linejoin="round"><path d="M2.670 2.061 C 2.448 2.142,2.250 2.309,2.128 2.516 C 2.037 2.672,2.020 2.746,2.020 3.000 C 2.020 3.254,2.036 3.328,2.127 3.480 C 2.186 3.579,2.766 4.190,3.415 4.837 L 4.595 6.014 4.236 6.105 C 3.241 6.357,2.432 7.140,2.114 8.160 L 2.020 8.460 2.020 13.500 L 2.020 18.540 2.114 18.840 C 2.418 19.816,3.149 20.554,4.140 20.886 L 4.420 20.980 11.997 20.989 L 19.575 20.999 19.997 21.414 C 20.522 21.929,20.608 21.978,21.000 21.979 C 21.258 21.980,21.327 21.964,21.492 21.867 C 21.968 21.587,22.139 20.967,21.865 20.508 C 21.810 20.416,17.665 16.243,12.653 11.235 C 4.231 2.820,3.525 2.125,3.343 2.065 C 3.107 1.987,2.874 1.986,2.670 2.061 M7.670 2.061 C 7.448 2.142,7.250 2.309,7.128 2.516 C 7.037 2.672,7.020 2.746,7.020 3.000 C 7.020 3.254,7.036 3.327,7.127 3.480 C 7.186 3.579,7.881 4.305,8.671 5.094 L 10.108 6.528 10.050 6.694 C 9.923 7.058,10.071 7.547,10.381 7.783 C 10.671 8.005,10.492 7.996,14.963 7.998 C 19.606 8.000,19.372 7.986,19.679 8.283 C 20.003 8.598,19.978 8.224,20.000 13.023 L 20.020 17.306 20.141 17.503 C 20.543 18.156,21.457 18.156,21.859 17.503 L 21.980 17.306 21.980 12.883 L 21.980 8.460 21.886 8.160 C 21.581 7.181,20.829 6.425,19.861 6.122 L 19.540 6.022 16.983 6.009 L 14.426 5.996 15.628 4.788 C 16.290 4.124,16.864 3.517,16.905 3.440 C 16.957 3.341,16.979 3.213,16.979 3.000 C 16.980 2.745,16.964 2.672,16.872 2.516 C 16.618 2.084,16.137 1.906,15.657 2.066 C 15.481 2.124,15.279 2.312,13.730 3.854 L 12.000 5.577 10.270 3.854 C 8.721 2.312,8.519 2.124,8.343 2.066 C 8.108 1.987,7.875 1.986,7.670 2.061 M12.080 13.500 L 17.580 19.001 11.140 18.990 L 4.700 18.980 4.516 18.872 C 4.415 18.813,4.284 18.700,4.225 18.623 C 3.989 18.314,4.000 18.562,4.000 13.522 C 4.000 8.298,3.981 8.625,4.304 8.303 C 4.573 8.033,4.701 8.006,5.720 8.003 L 6.580 8.000 12.080 13.500 " stroke="none" fill-rule="evenodd" fill="black"></path></svg>