<svg xmlns="http://www.w3.org/2000/svg" width="24" height="24" viewBox="0 0 24 24" fill="none" stroke="currentColor" stroke-width="2" stroke-linecap="round" stroke-linejoin="round"><path d="M7.499 2.043 C 6.379 2.234,5.461 3.048,5.114 4.160 L 5.020 4.460 5.020 12.000 L 5.020 19.540 5.114 19.840 C 5.418 20.816,6.152 21.556,7.140 21.885 L 7.420 21.979 10.039 21.991 C 12.966 22.005,12.850 22.015,13.173 21.724 C 13.381 21.536,13.488 21.292,13.488 21.003 C 13.488 20.615,13.294 20.298,12.940 20.106 C 12.782 20.021,12.749 20.020,10.240 20.000 L 7.700 19.980 7.516 19.872 C 7.415 19.813,7.284 19.700,7.225 19.623 C 6.986 19.309,7.000 19.795,7.000 12.022 C 7.000 4.006,6.975 4.631,7.303 4.303 C 7.584 4.022,7.703 4.000,8.943 4.000 L 9.991 4.000 10.018 4.179 C 10.054 4.422,10.258 4.712,10.497 4.859 L 10.694 4.980 12.000 4.980 L 13.306 4.980 13.503 4.859 C 13.742 4.712,13.946 4.422,13.982 4.179 L 14.009 4.000 15.057 4.000 C 16.275 4.000,16.411 4.024,16.679 4.283 C 17.001 4.596,16.978 4.284,17.000 8.523 L 17.020 12.306 17.141 12.503 C 17.543 13.156,18.457 13.156,18.859 12.503 L 18.980 12.306 18.980 8.383 L 18.980 4.460 18.886 4.160 C 18.581 3.182,17.832 2.428,16.861 2.121 L 16.540 2.020 12.120 2.014 C 9.689 2.011,7.609 2.024,7.499 2.043 M18.695 15.057 C 18.466 15.129,18.256 15.299,18.128 15.516 L 18.020 15.700 18.009 17.635 L 17.997 19.571 17.269 18.852 C 16.655 18.247,16.509 18.123,16.343 18.067 C 15.865 17.905,15.383 18.083,15.128 18.516 C 15.036 18.672,15.020 18.745,15.021 19.000 C 15.021 19.212,15.043 19.341,15.095 19.440 C 15.135 19.517,15.891 20.306,16.774 21.194 C 18.528 22.957,18.580 22.999,19.000 22.999 C 19.420 22.999,19.472 22.957,21.226 21.194 C 22.109 20.306,22.865 19.517,22.905 19.440 C 22.957 19.341,22.979 19.212,22.979 19.000 C 22.980 18.745,22.964 18.672,22.872 18.516 C 22.617 18.083,22.135 17.905,21.657 18.067 C 21.491 18.123,21.345 18.247,20.731 18.852 L 20.003 19.571 19.991 17.635 L 19.980 15.700 19.872 15.516 C 19.628 15.101,19.150 14.915,18.695 15.057 M11.695 16.057 C 11.466 16.129,11.256 16.299,11.128 16.516 C 11.036 16.672,11.020 16.745,11.021 17.000 C 11.022 17.332,11.101 17.533,11.306 17.728 C 11.785 18.181,12.580 18.046,12.893 17.460 C 13.025 17.211,13.015 16.760,12.872 16.516 C 12.628 16.101,12.150 15.915,11.695 16.057 " stroke="none" fill-rule="evenodd" fill="black"></path></svg>