<svg xmlns="http://www.w3.org/2000/svg" width="24" height="24" viewBox="0 0 24 24" fill="none" stroke="currentColor" stroke-width="2" stroke-linecap="round" stroke-linejoin="round"><path d="M4.499 3.043 C 3.380 3.232,2.461 4.048,2.114 5.160 L 2.020 5.460 2.020 12.000 L 2.020 18.540 2.114 18.840 C 2.418 19.816,3.149 20.554,4.140 20.886 L 4.420 20.980 8.271 20.991 C 10.824 20.999,12.173 20.989,12.275 20.961 C 12.498 20.901,12.739 20.711,12.867 20.492 C 12.964 20.327,12.980 20.257,12.980 20.000 C 12.980 19.746,12.963 19.672,12.872 19.516 C 12.761 19.328,12.572 19.158,12.373 19.070 C 12.286 19.032,11.383 19.015,8.480 19.000 L 4.700 18.980 4.516 18.872 C 4.415 18.813,4.284 18.700,4.225 18.623 C 3.987 18.311,4.000 18.701,4.000 12.022 C 4.000 5.123,3.977 5.629,4.303 5.303 C 4.631 4.976,4.009 5.000,12.000 5.000 C 19.991 5.000,19.369 4.976,19.697 5.303 C 20.014 5.620,20.000 5.441,20.000 9.297 L 20.001 12.700 20.095 12.900 C 20.276 13.282,20.595 13.488,21.003 13.488 C 21.292 13.488,21.536 13.381,21.724 13.173 C 22.020 12.845,22.004 13.081,21.991 9.040 L 21.980 5.420 21.886 5.140 C 21.557 4.158,20.821 3.425,19.861 3.121 L 19.540 3.020 12.120 3.014 C 8.039 3.011,4.609 3.024,4.499 3.043 M18.580 15.096 C 18.424 15.171,18.029 15.545,16.774 16.806 C 15.891 17.694,15.135 18.483,15.095 18.560 C 15.043 18.659,15.021 18.788,15.021 19.000 C 15.020 19.258,15.036 19.327,15.133 19.492 C 15.263 19.714,15.502 19.901,15.736 19.965 C 15.939 20.019,16.267 19.989,16.445 19.899 C 16.519 19.861,16.899 19.514,17.289 19.128 L 17.997 18.426 18.009 20.366 L 18.020 22.306 18.141 22.503 C 18.543 23.156,19.457 23.156,19.859 22.503 L 19.980 22.306 19.991 20.366 L 20.003 18.426 20.711 19.128 C 21.101 19.514,21.483 19.864,21.560 19.904 C 21.660 19.957,21.787 19.979,22.000 19.979 C 22.258 19.980,22.327 19.964,22.492 19.867 C 22.714 19.737,22.901 19.498,22.965 19.264 C 23.019 19.061,22.989 18.733,22.899 18.555 C 22.862 18.481,22.109 17.694,21.226 16.806 C 19.472 15.043,19.420 15.001,19.000 15.001 C 18.851 15.001,18.716 15.031,18.580 15.096 M8.695 16.056 C 8.465 16.129,8.256 16.299,8.128 16.516 C 8.037 16.672,8.020 16.746,8.020 17.000 C 8.020 17.256,8.036 17.328,8.131 17.489 C 8.256 17.702,8.449 17.864,8.670 17.943 C 8.787 17.985,9.243 17.997,10.760 17.998 L 12.700 17.999 12.900 17.905 C 13.281 17.724,13.488 17.405,13.488 17.000 C 13.488 16.615,13.293 16.297,12.940 16.106 C 12.783 16.022,12.745 16.020,10.820 16.012 C 9.296 16.006,8.823 16.016,8.695 16.056 " stroke="none" fill-rule="evenodd" fill="black"></path></svg>