<svg xmlns="http://www.w3.org/2000/svg" width="24" height="24" viewBox="0 0 24 24" fill="none" stroke="currentColor" stroke-width="2" stroke-linecap="round" stroke-linejoin="round"><path d="M5.477 5.073 C 4.806 5.249,4.238 5.823,4.060 6.508 C 4.009 6.704,4.000 7.350,4.000 11.000 C 4.000 15.640,3.992 15.471,4.225 15.930 C 4.361 16.199,4.801 16.639,5.070 16.775 C 5.538 17.012,5.172 17.000,12.000 17.000 C 18.828 17.000,18.462 17.012,18.930 16.775 C 19.196 16.640,19.638 16.200,19.771 15.937 C 20.008 15.471,20.000 15.634,19.999 11.014 C 19.999 6.426,20.003 6.520,19.781 6.083 C 19.646 5.816,19.297 5.449,19.017 5.281 C 18.528 4.987,18.983 5.005,12.000 5.005 C 6.211 5.005,5.720 5.010,5.477 5.073 M18.000 11.000 L 18.000 15.000 12.000 15.000 L 6.000 15.000 6.000 11.000 L 6.000 7.000 12.000 7.000 L 18.000 7.000 18.000 11.000 M2.695 18.057 C 2.466 18.129,2.256 18.299,2.128 18.516 C 2.037 18.672,2.020 18.746,2.020 19.000 C 2.020 19.256,2.036 19.328,2.131 19.489 C 2.256 19.702,2.449 19.864,2.670 19.943 C 2.893 20.023,21.107 20.023,21.330 19.943 C 21.551 19.864,21.744 19.702,21.869 19.489 C 21.964 19.328,21.980 19.256,21.980 19.000 C 21.980 18.746,21.963 18.672,21.872 18.516 C 21.740 18.293,21.533 18.128,21.290 18.055 C 21.027 17.976,2.947 17.978,2.695 18.057 " stroke="none" fill-rule="evenodd" fill="black"></path></svg>