<svg xmlns="http://www.w3.org/2000/svg" width="24" height="24" viewBox="0 0 24 24" fill="none" stroke="currentColor" stroke-width="2" stroke-linecap="round" stroke-linejoin="round"><path d="M5.477 2.073 C 4.805 2.249,4.238 2.823,4.060 3.508 C 4.008 3.707,4.000 4.805,4.000 12.000 C 4.000 21.017,3.986 20.458,4.225 20.930 C 4.361 21.199,4.801 21.639,5.070 21.775 C 5.538 22.012,5.172 22.000,12.000 22.000 C 18.828 22.000,18.462 22.012,18.930 21.775 C 19.196 21.640,19.638 21.200,19.771 20.937 C 20.014 20.458,20.002 20.864,19.990 13.732 C 19.980 7.489,19.977 7.214,19.906 7.080 C 19.804 6.887,15.140 2.216,14.940 2.107 L 14.780 2.020 10.260 2.012 C 6.091 2.005,5.720 2.009,5.477 2.073 M16.050 5.950 L 18.000 7.900 18.000 13.950 L 18.000 20.000 12.000 20.000 L 6.000 20.000 6.000 12.000 L 6.000 4.000 10.050 4.000 L 14.100 4.000 16.050 5.950 M9.695 8.057 C 9.466 8.129,9.256 8.299,9.128 8.516 C 9.037 8.672,9.020 8.746,9.020 9.000 C 9.020 9.256,9.036 9.328,9.131 9.489 C 9.192 9.592,9.304 9.725,9.381 9.783 C 9.650 9.989,9.714 9.996,11.220 9.998 C 12.536 10.000,12.628 10.005,12.748 10.078 C 12.970 10.214,13.000 10.324,13.000 11.008 C 13.000 11.544,12.990 11.636,12.922 11.748 C 12.779 11.983,12.698 12.000,11.748 12.000 C 10.811 12.000,10.634 12.029,10.382 12.221 C 10.302 12.282,10.187 12.415,10.128 12.516 C 10.037 12.672,10.020 12.746,10.020 13.000 C 10.020 13.256,10.036 13.328,10.131 13.489 C 10.192 13.592,10.304 13.725,10.381 13.783 C 10.635 13.977,10.752 13.996,11.712 13.998 C 12.701 14.000,12.778 14.016,12.922 14.252 C 12.990 14.364,13.000 14.456,13.000 14.992 C 13.000 15.676,12.970 15.786,12.748 15.922 C 12.628 15.995,12.538 16.000,11.256 16.000 C 9.773 16.000,9.653 16.014,9.382 16.221 C 9.302 16.282,9.187 16.415,9.128 16.516 C 9.037 16.672,9.020 16.746,9.020 17.000 C 9.020 17.257,9.036 17.327,9.133 17.492 C 9.262 17.712,9.502 17.901,9.730 17.963 C 9.832 17.990,10.435 18.000,11.454 17.992 L 13.020 17.979 13.320 17.869 C 14.039 17.605,14.601 17.043,14.869 16.320 C 14.980 16.021,14.980 16.016,14.980 15.000 C 14.980 13.987,14.979 13.978,14.870 13.684 C 14.810 13.521,14.705 13.301,14.636 13.194 L 14.512 13.000 14.636 12.806 C 14.705 12.699,14.810 12.479,14.870 12.316 C 14.979 12.022,14.980 12.013,14.980 11.000 C 14.980 9.985,14.979 9.978,14.869 9.680 C 14.643 9.064,14.194 8.561,13.620 8.277 C 13.102 8.021,12.937 8.001,11.300 8.003 C 10.239 8.005,9.816 8.019,9.695 8.057 " stroke="none" fill-rule="evenodd" fill="black"></path></svg>