<svg xmlns="http://www.w3.org/2000/svg" width="24" height="24" viewBox="0 0 24 24" fill="none" stroke="currentColor" stroke-width="2" stroke-linecap="round" stroke-linejoin="round"><path d="M3.477 3.073 C 2.806 3.249,2.238 3.823,2.060 4.508 C 2.008 4.706,2.000 5.577,2.000 11.000 C 2.000 17.828,1.988 17.462,2.225 17.930 C 2.361 18.199,2.801 18.639,3.070 18.775 C 3.529 19.007,3.373 19.000,7.864 19.000 L 11.991 19.000 12.018 19.179 C 12.054 19.422,12.258 19.712,12.497 19.859 C 12.671 19.966,12.729 19.980,12.997 19.980 C 13.256 19.980,13.327 19.964,13.489 19.869 C 13.702 19.744,13.864 19.551,13.943 19.330 C 13.987 19.208,13.997 18.238,13.998 14.090 L 14.000 9.000 14.495 9.000 L 14.991 9.000 15.018 9.179 C 15.054 9.422,15.258 9.712,15.497 9.859 L 15.694 9.980 17.000 9.980 L 18.306 9.980 18.503 9.859 C 18.742 9.712,18.946 9.422,18.982 9.179 L 19.009 9.000 19.505 9.000 L 20.000 9.000 20.000 9.850 C 20.001 10.661,20.005 10.709,20.095 10.900 C 20.276 11.281,20.595 11.488,21.000 11.488 C 21.405 11.488,21.724 11.281,21.905 10.900 C 21.996 10.707,21.999 10.667,21.999 9.740 C 21.999 8.435,21.926 8.149,21.465 7.653 C 20.998 7.150,20.590 7.006,19.630 7.002 L 19.000 7.000 18.999 5.890 C 18.999 4.691,18.970 4.456,18.781 4.083 C 18.646 3.816,18.297 3.449,18.017 3.281 C 17.527 2.986,18.042 3.005,10.500 3.005 C 4.239 3.005,3.721 3.010,3.477 3.073 M17.000 6.000 L 17.000 7.000 15.370 7.002 C 13.545 7.005,13.417 7.020,12.983 7.281 C 12.703 7.449,12.354 7.816,12.219 8.083 C 11.994 8.527,12.000 8.389,12.000 12.868 L 12.000 17.000 8.000 17.000 L 4.000 17.000 4.000 11.000 L 4.000 5.000 10.500 5.000 L 17.000 5.000 17.000 6.000 M18.695 13.057 C 18.342 13.168,18.095 13.451,18.019 13.835 L 17.976 14.050 17.757 14.118 C 17.003 14.351,16.361 14.980,16.118 15.722 C 16.034 15.976,16.020 16.094,16.022 16.520 C 16.024 16.960,16.038 17.056,16.133 17.320 C 16.394 18.039,16.964 18.609,17.680 18.867 C 17.961 18.968,18.033 18.976,18.800 18.992 C 19.702 19.010,19.786 19.030,19.922 19.252 C 20.021 19.415,20.021 19.585,19.922 19.748 C 19.770 19.996,19.746 20.000,18.248 20.000 C 16.774 20.000,16.653 20.014,16.382 20.221 C 16.302 20.282,16.187 20.415,16.128 20.516 C 16.037 20.672,16.020 20.746,16.020 21.000 C 16.020 21.256,16.036 21.328,16.131 21.489 C 16.256 21.702,16.449 21.864,16.670 21.943 C 16.768 21.978,17.022 21.997,17.405 21.998 L 17.991 22.000 18.018 22.179 C 18.054 22.422,18.258 22.712,18.497 22.859 C 18.671 22.966,18.729 22.980,19.000 22.980 C 19.271 22.980,19.329 22.966,19.503 22.859 C 19.752 22.706,19.949 22.419,19.984 22.160 L 20.010 21.966 20.294 21.873 C 21.001 21.642,21.605 21.046,21.868 20.320 C 21.965 20.052,21.976 19.965,21.976 19.500 C 21.976 19.035,21.965 18.948,21.868 18.680 C 21.646 18.068,21.195 17.561,20.620 17.277 C 20.172 17.055,19.869 17.002,19.068 17.001 C 18.319 17.000,18.216 16.974,18.078 16.748 C 17.932 16.508,18.023 16.193,18.276 16.062 C 18.377 16.010,18.612 16.000,19.788 15.998 C 21.285 15.996,21.350 15.989,21.619 15.783 C 21.696 15.725,21.808 15.592,21.869 15.489 C 21.964 15.328,21.980 15.256,21.980 15.000 C 21.980 14.746,21.963 14.672,21.872 14.516 C 21.634 14.111,21.351 14.000,20.559 14.000 L 20.010 14.000 19.983 13.830 C 19.926 13.473,19.648 13.163,19.290 13.055 C 19.068 12.988,18.913 12.989,18.695 13.057 " stroke="none" fill-rule="evenodd" fill="black"></path></svg>