<svg xmlns="http://www.w3.org/2000/svg" width="24" height="24" viewBox="0 0 24 24" fill="none" stroke="currentColor" stroke-width="2" stroke-linecap="round" stroke-linejoin="round"><path d="M2.670 2.061 C 2.448 2.142,2.250 2.309,2.128 2.516 C 2.036 2.672,2.020 2.745,2.021 3.000 C 2.021 3.213,2.043 3.341,2.095 3.440 C 2.136 3.517,2.581 3.994,3.084 4.500 L 3.998 5.421 4.009 12.500 L 4.020 19.580 4.114 19.860 C 4.446 20.851,5.184 21.582,6.160 21.886 L 6.460 21.980 12.000 21.980 L 17.540 21.980 17.839 21.886 C 18.394 21.712,18.773 21.473,19.197 21.032 L 19.398 20.822 19.909 21.326 C 20.190 21.603,20.483 21.863,20.560 21.904 C 20.660 21.957,20.786 21.979,21.000 21.979 C 21.258 21.980,21.327 21.964,21.492 21.867 C 21.968 21.587,22.139 20.967,21.865 20.508 C 21.810 20.416,17.665 16.243,12.653 11.235 C 4.231 2.820,3.525 2.125,3.343 2.065 C 3.107 1.987,2.874 1.986,2.670 2.061 M6.695 2.057 C 6.465 2.129,6.256 2.299,6.128 2.516 C 6.037 2.672,6.020 2.746,6.020 3.000 C 6.020 3.256,6.036 3.328,6.131 3.489 C 6.256 3.702,6.449 3.864,6.670 3.943 C 6.792 3.987,7.771 3.997,11.963 3.998 C 17.717 4.000,17.369 3.983,17.679 4.283 C 18.005 4.600,17.978 4.102,18.000 10.023 L 18.020 15.306 18.141 15.503 C 18.543 16.156,19.457 16.156,19.859 15.503 L 19.980 15.306 19.980 9.883 L 19.980 4.460 19.886 4.160 C 19.581 3.182,18.832 2.428,17.861 2.121 L 17.540 2.020 12.200 2.012 C 7.900 2.006,6.828 2.015,6.695 2.057 M11.695 6.057 C 11.466 6.129,11.256 6.299,11.128 6.516 C 11.036 6.672,11.020 6.745,11.021 7.000 C 11.022 7.332,11.101 7.533,11.306 7.728 C 11.785 8.181,12.580 8.046,12.893 7.460 C 13.025 7.211,13.015 6.760,12.872 6.516 C 12.628 6.101,12.150 5.915,11.695 6.057 M9.140 11.215 C 8.146 12.257,7.782 13.638,8.137 15.020 C 8.459 16.268,9.450 17.350,10.651 17.764 C 12.145 18.278,13.700 17.927,14.829 16.822 L 15.119 16.538 16.519 17.939 C 17.290 18.710,17.920 19.359,17.920 19.382 C 17.920 19.476,17.660 19.768,17.486 19.871 L 17.300 19.980 12.000 19.980 L 6.700 19.980 6.516 19.872 C 6.415 19.813,6.284 19.700,6.225 19.623 C 5.987 19.311,6.000 19.677,6.000 13.285 L 6.000 7.420 7.730 9.150 L 9.460 10.879 9.140 11.215 M13.596 15.205 C 13.368 15.526,12.841 15.860,12.404 15.961 C 11.949 16.066,11.326 15.941,10.900 15.658 C 10.474 15.376,10.203 14.986,10.073 14.470 C 9.894 13.763,10.084 13.114,10.631 12.563 L 10.886 12.307 12.281 13.701 L 13.675 15.095 13.596 15.205 " stroke="none" fill-rule="evenodd" fill="black"></path></svg>