<svg xmlns="http://www.w3.org/2000/svg" width="24" height="24" viewBox="0 0 24 24" fill="none" stroke="currentColor" stroke-width="2" stroke-linecap="round" stroke-linejoin="round"><path d="M7.499 2.043 C 6.379 2.234,5.461 3.048,5.114 4.160 L 5.020 4.460 5.020 12.000 L 5.020 19.540 5.114 19.840 C 5.422 20.827,6.173 21.578,7.160 21.886 L 7.460 21.980 12.000 21.980 L 16.540 21.980 16.840 21.886 C 17.827 21.578,18.578 20.827,18.886 19.840 L 18.980 19.540 18.980 12.000 L 18.980 4.460 18.886 4.160 C 18.581 3.182,17.832 2.428,16.861 2.121 L 16.540 2.020 12.120 2.014 C 9.689 2.011,7.609 2.024,7.499 2.043 M10.018 4.179 C 10.054 4.422,10.258 4.712,10.497 4.859 L 10.694 4.980 12.000 4.980 L 13.306 4.980 13.503 4.859 C 13.742 4.712,13.946 4.422,13.982 4.179 L 14.009 4.000 15.057 4.000 C 16.297 4.000,16.416 4.022,16.697 4.303 C 17.024 4.631,17.000 4.009,17.000 12.001 C 17.000 17.907,16.991 19.138,16.945 19.290 C 16.872 19.533,16.707 19.740,16.484 19.872 L 16.300 19.980 12.000 19.980 L 7.700 19.980 7.516 19.872 C 7.415 19.813,7.284 19.700,7.225 19.623 C 6.986 19.309,7.000 19.795,7.000 12.022 C 7.000 4.005,6.975 4.631,7.304 4.303 C 7.582 4.024,7.681 4.006,8.925 4.003 L 9.991 4.000 10.018 4.179 M11.617 8.577 C 11.424 8.661,11.203 8.875,11.103 9.076 C 10.885 9.515,10.025 11.753,10.009 11.925 C 9.986 12.159,10.081 12.455,10.240 12.648 C 10.431 12.878,10.675 12.976,11.125 13.000 L 11.510 13.020 11.256 13.660 C 10.964 14.394,10.941 14.572,11.094 14.900 C 11.459 15.682,12.513 15.695,12.897 14.923 C 12.947 14.822,13.211 14.182,13.484 13.500 C 13.953 12.327,13.980 12.245,13.980 11.980 C 13.980 11.748,13.962 11.669,13.872 11.516 C 13.759 11.324,13.565 11.152,13.373 11.074 C 13.311 11.049,13.086 11.018,12.874 11.004 L 12.488 10.980 12.728 10.380 C 13.017 9.658,13.052 9.435,12.920 9.129 C 12.823 8.902,12.589 8.665,12.377 8.576 C 12.208 8.506,11.779 8.506,11.617 8.577 " stroke="none" fill-rule="evenodd" fill="black"></path></svg>