<svg xmlns="http://www.w3.org/2000/svg" width="24" height="24" viewBox="0 0 24 24" fill="none" stroke="currentColor" stroke-width="2" stroke-linecap="round" stroke-linejoin="round"><path d="M3.477 3.073 C 2.806 3.249,2.238 3.823,2.060 4.508 C 1.970 4.853,1.970 17.147,2.060 17.492 C 2.153 17.852,2.310 18.118,2.596 18.404 C 2.882 18.690,3.148 18.847,3.508 18.940 C 3.830 19.024,10.095 19.027,10.330 18.943 C 10.551 18.864,10.744 18.702,10.869 18.489 C 10.964 18.328,10.980 18.256,10.980 18.000 C 10.980 17.746,10.963 17.672,10.872 17.516 C 10.813 17.415,10.698 17.282,10.618 17.221 C 10.325 16.997,10.367 17.000,7.054 17.000 L 4.000 17.000 4.000 11.000 L 4.000 5.000 10.500 5.000 L 17.000 5.000 17.000 6.000 L 17.000 7.000 15.370 7.002 C 13.963 7.004,13.704 7.014,13.477 7.073 C 12.787 7.253,12.184 7.886,12.040 8.581 C 12.012 8.716,12.001 9.405,12.008 10.547 L 12.020 12.306 12.141 12.503 C 12.543 13.156,13.457 13.156,13.859 12.503 L 13.980 12.306 13.992 10.653 L 14.003 9.000 14.497 9.000 L 14.991 9.000 15.018 9.179 C 15.054 9.422,15.258 9.712,15.497 9.859 L 15.694 9.980 17.000 9.980 L 18.306 9.980 18.503 9.859 C 18.742 9.712,18.946 9.422,18.982 9.179 L 19.009 9.000 19.502 9.000 L 19.995 9.000 20.008 10.153 L 20.020 11.307 20.141 11.503 C 20.543 12.156,21.457 12.156,21.859 11.503 L 21.980 11.306 21.992 10.058 C 22.005 8.700,21.981 8.478,21.782 8.083 C 21.646 7.816,21.297 7.449,21.017 7.281 C 20.658 7.065,20.361 7.005,19.630 7.002 L 19.000 7.000 18.999 5.890 C 18.999 4.691,18.970 4.456,18.781 4.083 C 18.646 3.816,18.297 3.449,18.017 3.281 C 17.527 2.986,18.042 3.005,10.500 3.005 C 4.239 3.005,3.721 3.010,3.477 3.073 M15.699 14.037 C 14.670 14.202,13.737 14.905,13.305 15.840 C 13.072 16.345,13.021 16.592,13.024 17.200 C 13.026 17.692,13.037 17.773,13.149 18.111 C 13.392 18.843,13.413 18.869,15.473 20.912 C 16.500 21.930,17.421 22.812,17.520 22.872 C 17.673 22.964,17.745 22.980,18.000 22.980 C 18.254 22.980,18.327 22.964,18.480 22.873 C 18.579 22.814,19.509 21.923,20.547 20.893 C 22.582 18.874,22.591 18.863,22.818 18.213 C 23.020 17.636,23.050 16.947,22.900 16.380 C 22.746 15.802,22.353 15.189,21.871 14.775 C 20.903 13.943,19.453 13.773,18.325 14.360 L 18.013 14.522 17.697 14.363 C 17.245 14.135,16.862 14.039,16.340 14.020 C 16.098 14.012,15.810 14.019,15.699 14.037 M16.756 16.138 C 16.867 16.194,17.072 16.348,17.213 16.480 C 17.512 16.759,17.693 16.846,17.980 16.849 C 18.293 16.851,18.459 16.777,18.773 16.492 C 19.235 16.074,19.562 15.956,20.020 16.041 C 20.841 16.193,21.259 17.127,20.806 17.797 C 20.748 17.883,20.101 18.542,19.368 19.262 C 18.242 20.369,18.025 20.565,17.961 20.535 C 17.919 20.516,17.278 19.898,16.537 19.163 C 15.024 17.661,15.020 17.657,15.023 17.160 C 15.025 16.915,15.045 16.822,15.133 16.651 C 15.292 16.341,15.584 16.126,15.980 16.025 C 16.158 15.979,16.559 16.038,16.756 16.138 " stroke="none" fill-rule="evenodd" fill="black"></path></svg>