<svg xmlns="http://www.w3.org/2000/svg" width="24" height="24" viewBox="0 0 24 24" fill="none" stroke="currentColor" stroke-width="2" stroke-linecap="round" stroke-linejoin="round"><path d="M3.477 3.073 C 2.806 3.249,2.238 3.823,2.060 4.508 C 2.008 4.705,2.000 5.464,2.000 10.000 C 2.000 15.733,1.990 15.466,2.225 15.930 C 2.361 16.199,2.801 16.639,3.070 16.775 C 3.506 16.996,3.557 17.000,5.868 17.000 L 8.000 17.000 8.000 18.000 L 8.000 19.000 7.446 19.000 C 6.648 19.000,6.367 19.110,6.128 19.516 C 6.037 19.672,6.020 19.746,6.020 20.000 C 6.020 20.256,6.036 20.328,6.131 20.489 C 6.256 20.702,6.449 20.864,6.670 20.943 C 6.892 21.022,17.108 21.022,17.330 20.943 C 17.551 20.864,17.744 20.702,17.869 20.489 C 17.964 20.328,17.980 20.256,17.980 20.000 C 17.980 19.746,17.963 19.672,17.872 19.516 C 17.633 19.110,17.352 19.000,16.554 19.000 L 16.000 19.000 16.000 18.000 L 16.000 17.000 18.132 17.000 C 20.443 17.000,20.494 16.996,20.930 16.775 C 21.196 16.640,21.638 16.200,21.771 15.937 C 22.010 15.466,22.000 15.732,21.999 10.014 C 21.999 4.337,22.006 4.525,21.781 4.083 C 21.646 3.816,21.297 3.449,21.017 3.281 C 20.523 2.983,21.217 3.005,12.000 3.005 C 4.321 3.005,3.721 3.009,3.477 3.073 M20.000 10.000 L 20.000 15.000 12.000 15.000 L 4.000 15.000 4.000 10.000 L 4.000 5.000 12.000 5.000 L 20.000 5.000 20.000 10.000 M15.640 7.069 C 15.490 7.121,15.252 7.338,14.231 8.353 L 13.001 9.575 12.271 8.854 C 11.655 8.247,11.509 8.123,11.343 8.067 C 11.094 7.983,10.907 7.982,10.657 8.066 C 10.481 8.124,10.286 8.305,8.847 9.736 C 7.960 10.618,7.189 11.416,7.134 11.508 C 6.862 11.968,7.032 12.587,7.508 12.867 C 7.673 12.964,7.742 12.980,8.000 12.979 C 8.213 12.979,8.341 12.957,8.440 12.905 C 8.517 12.864,9.124 12.289,9.790 11.627 L 10.999 10.422 11.710 11.126 C 12.100 11.514,12.483 11.864,12.560 11.904 C 12.660 11.957,12.787 11.979,13.000 11.979 C 13.255 11.980,13.327 11.964,13.480 11.873 C 13.704 11.739,16.804 8.632,16.905 8.440 C 16.957 8.341,16.979 8.212,16.979 8.000 C 16.980 7.745,16.964 7.672,16.872 7.516 C 16.617 7.083,16.120 6.902,15.640 7.069 M14.000 18.000 L 14.000 19.000 12.000 19.000 L 10.000 19.000 10.000 18.000 L 10.000 17.000 12.000 17.000 L 14.000 17.000 14.000 18.000 " stroke="none" fill-rule="evenodd" fill="black"></path></svg>