<svg xmlns="http://www.w3.org/2000/svg" width="24" height="24" viewBox="0 0 24 24" fill="none" stroke="currentColor" stroke-width="2" stroke-linecap="round" stroke-linejoin="round"><path d="M5.477 2.073 C 4.806 2.249,4.238 2.823,4.060 3.508 C 3.969 3.854,3.969 20.146,4.060 20.492 C 4.153 20.852,4.310 21.118,4.596 21.404 C 4.882 21.690,5.148 21.847,5.508 21.940 C 5.832 22.025,15.094 22.027,15.330 21.943 C 15.551 21.864,15.744 21.702,15.869 21.489 C 15.964 21.328,15.980 21.256,15.980 21.000 C 15.980 20.746,15.963 20.672,15.872 20.516 C 15.813 20.415,15.698 20.282,15.618 20.221 C 15.318 19.992,15.497 20.000,10.554 20.000 L 6.000 20.000 6.000 12.000 L 6.000 4.000 11.999 4.000 L 17.999 4.000 18.009 8.153 L 18.020 12.306 18.141 12.503 C 18.543 13.156,19.457 13.156,19.859 12.503 L 19.980 12.306 19.991 8.052 C 20.002 3.429,20.006 3.527,19.782 3.083 C 19.646 2.816,19.297 2.449,19.017 2.281 C 18.528 1.987,18.983 2.005,12.000 2.005 C 6.211 2.005,5.720 2.010,5.477 2.073 M11.477 15.073 C 10.806 15.249,10.238 15.823,10.060 16.508 C 9.941 16.962,10.003 17.492,10.225 17.930 C 10.361 18.199,10.801 18.639,11.070 18.775 C 11.659 19.073,12.341 19.073,12.930 18.775 C 13.196 18.640,13.638 18.200,13.771 17.937 C 13.994 17.498,14.052 17.007,13.940 16.529 C 13.858 16.182,13.720 15.927,13.465 15.653 C 13.074 15.232,12.560 15.005,12.000 15.005 C 11.857 15.005,11.622 15.036,11.477 15.073 M18.695 15.057 C 18.466 15.129,18.256 15.299,18.128 15.516 L 18.020 15.700 18.020 17.503 L 18.020 19.306 18.141 19.503 C 18.543 20.156,19.457 20.156,19.859 19.503 L 19.980 19.306 19.980 17.503 L 19.980 15.700 19.872 15.516 C 19.628 15.101,19.150 14.915,18.695 15.057 M18.695 21.057 C 18.466 21.129,18.256 21.299,18.128 21.516 C 18.036 21.672,18.020 21.745,18.021 22.000 C 18.022 22.332,18.101 22.533,18.306 22.728 C 18.785 23.181,19.580 23.046,19.893 22.460 C 20.025 22.211,20.015 21.760,19.872 21.516 C 19.628 21.101,19.150 20.915,18.695 21.057 " stroke="none" fill-rule="evenodd" fill="black"></path></svg>