<svg xmlns="http://www.w3.org/2000/svg" width="24" height="24" viewBox="0 0 24 24" fill="none" stroke="currentColor" stroke-width="2" stroke-linecap="round" stroke-linejoin="round"><path d="M5.499 3.043 C 4.380 3.233,3.461 4.048,3.114 5.160 L 3.020 5.460 3.020 12.000 L 3.020 18.540 3.114 18.840 C 3.422 19.827,4.173 20.578,5.160 20.886 L 5.460 20.980 12.000 20.980 L 18.540 20.980 18.840 20.886 C 19.827 20.578,20.578 19.827,20.886 18.840 L 20.980 18.540 20.980 12.000 L 20.980 5.460 20.886 5.160 C 20.581 4.182,19.832 3.428,18.861 3.121 L 18.540 3.020 12.120 3.014 C 8.589 3.011,5.609 3.024,5.499 3.043 M18.310 5.061 C 18.452 5.103,18.571 5.178,18.697 5.303 C 18.978 5.584,19.000 5.703,19.000 6.947 L 19.000 8.000 16.425 8.000 C 13.627 8.000,13.669 7.997,13.371 8.224 C 13.297 8.281,13.187 8.415,13.128 8.523 C 13.069 8.631,13.011 8.719,12.999 8.719 C 12.988 8.720,12.727 8.212,12.419 7.592 C 11.790 6.323,11.681 6.171,11.316 6.063 C 11.048 5.983,10.902 5.984,10.660 6.066 C 10.336 6.177,10.184 6.373,9.761 7.232 L 9.382 8.000 7.191 8.000 L 5.000 8.000 5.000 6.947 C 5.000 5.702,5.022 5.585,5.304 5.303 C 5.623 4.983,5.120 5.006,11.983 5.003 C 17.353 5.000,18.131 5.007,18.310 5.061 M11.581 10.408 C 12.196 11.649,12.314 11.816,12.660 11.934 C 12.906 12.018,13.094 12.018,13.340 11.934 C 13.664 11.823,13.816 11.627,14.239 10.768 L 14.618 10.000 16.809 10.000 L 19.000 10.000 19.000 11.500 L 19.000 13.000 12.000 13.000 L 5.000 13.000 5.000 11.500 L 5.000 10.000 7.575 10.000 C 10.373 10.000,10.331 10.003,10.629 9.776 C 10.703 9.719,10.813 9.585,10.872 9.477 C 10.931 9.369,10.989 9.281,11.001 9.281 C 11.012 9.280,11.273 9.788,11.581 10.408 M19.000 16.554 C 19.000 18.242,18.989 18.342,18.779 18.618 C 18.718 18.698,18.585 18.813,18.484 18.872 L 18.300 18.980 12.000 18.980 L 5.700 18.980 5.516 18.872 C 5.415 18.813,5.284 18.700,5.225 18.623 C 5.006 18.336,5.000 18.283,5.000 16.575 L 5.000 15.000 12.000 15.000 L 19.000 15.000 19.000 16.554 M13.695 16.057 C 13.466 16.129,13.256 16.299,13.128 16.516 C 13.036 16.672,13.020 16.745,13.021 17.000 C 13.022 17.332,13.101 17.533,13.306 17.728 C 13.785 18.181,14.580 18.046,14.893 17.460 C 15.025 17.211,15.015 16.760,14.872 16.516 C 14.628 16.101,14.150 15.915,13.695 16.057 M16.695 16.057 C 16.466 16.129,16.256 16.299,16.128 16.516 C 16.036 16.672,16.020 16.745,16.021 17.000 C 16.022 17.332,16.101 17.533,16.306 17.728 C 16.785 18.181,17.580 18.046,17.893 17.460 C 18.025 17.211,18.015 16.760,17.872 16.516 C 17.628 16.101,17.150 15.915,16.695 16.057 " stroke="none" fill-rule="evenodd" fill="black"></path></svg>