<svg xmlns="http://www.w3.org/2000/svg" width="24" height="24" viewBox="0 0 24 24" fill="none" stroke="currentColor" stroke-width="2" stroke-linecap="round" stroke-linejoin="round"><path d="M2.670 2.061 C 2.448 2.142,2.250 2.309,2.128 2.516 C 1.983 2.763,1.972 3.220,2.106 3.446 L 2.192 3.592 1.978 3.795 C 1.533 4.216,1.289 4.602,1.114 5.161 L 1.020 5.460 1.020 12.000 L 1.020 18.540 1.114 18.840 C 1.418 19.816,2.149 20.554,3.140 20.886 L 3.420 20.980 11.498 20.991 L 19.577 21.001 19.998 21.415 C 20.522 21.929,20.608 21.978,21.000 21.979 C 21.258 21.980,21.327 21.964,21.492 21.867 C 21.968 21.587,22.139 20.967,21.865 20.508 C 21.810 20.416,17.665 16.243,12.653 11.235 C 4.231 2.820,3.525 2.125,3.343 2.065 C 3.107 1.987,2.874 1.986,2.670 2.061 M7.695 3.057 C 7.465 3.129,7.256 3.299,7.128 3.516 C 7.037 3.672,7.020 3.746,7.020 4.000 C 7.020 4.256,7.036 4.328,7.131 4.489 C 7.256 4.702,7.449 4.864,7.670 4.943 C 7.793 4.987,8.936 4.997,13.963 4.998 C 20.829 5.000,20.367 4.981,20.679 5.283 C 21.007 5.602,20.978 4.981,21.000 12.023 L 21.020 18.306 21.141 18.503 C 21.543 19.156,22.457 19.156,22.859 18.503 L 22.980 18.306 22.980 11.883 L 22.980 5.460 22.886 5.160 C 22.581 4.182,21.832 3.428,20.861 3.121 L 20.540 3.020 14.200 3.012 C 9.082 3.006,7.828 3.015,7.695 3.057 M9.120 10.540 L 14.580 16.000 11.736 16.000 C 8.651 16.000,8.674 15.998,8.382 16.221 C 8.302 16.282,8.187 16.415,8.128 16.516 C 8.037 16.672,8.020 16.746,8.020 17.000 C 8.020 17.257,8.036 17.327,8.133 17.492 C 8.261 17.710,8.502 17.901,8.724 17.961 C 8.823 17.988,9.996 17.998,12.091 17.991 L 15.306 17.980 15.503 17.859 C 15.611 17.792,15.756 17.654,15.824 17.553 L 15.949 17.368 16.764 18.184 L 17.580 19.001 10.640 18.990 L 3.700 18.980 3.516 18.872 C 3.415 18.813,3.284 18.700,3.225 18.623 C 2.987 18.311,3.000 18.701,3.000 12.021 C 3.000 5.447,2.993 5.676,3.198 5.412 C 3.297 5.283,3.554 5.080,3.617 5.080 C 3.641 5.080,6.117 7.537,9.120 10.540 " stroke="none" fill-rule="evenodd" fill="black"></path></svg>