<svg xmlns="http://www.w3.org/2000/svg" width="24" height="24" viewBox="0 0 24 24" fill="none" stroke="currentColor" stroke-width="2" stroke-linecap="round" stroke-linejoin="round"><path d="M8.499 2.042 C 7.377 2.234,6.461 3.048,6.114 4.160 L 6.020 4.460 6.020 12.000 L 6.020 19.540 6.114 19.840 C 6.422 20.827,7.173 21.578,8.160 21.886 L 8.460 21.980 12.000 21.980 L 15.540 21.980 15.840 21.886 C 16.827 21.578,17.578 20.827,17.886 19.840 L 17.980 19.540 17.980 12.000 L 17.980 4.460 17.886 4.160 C 17.581 3.182,16.831 2.427,15.861 2.122 L 15.540 2.021 12.120 2.014 C 10.239 2.011,8.609 2.023,8.499 2.042 M11.007 4.653 C 11.020 5.300,11.021 5.308,11.141 5.503 C 11.543 6.156,12.457 6.156,12.859 5.503 C 12.979 5.308,12.980 5.300,12.993 4.653 L 13.007 4.000 14.056 4.000 C 15.297 4.000,15.416 4.022,15.697 4.303 C 16.024 4.631,16.000 4.009,16.000 12.001 C 16.000 17.907,15.991 19.138,15.945 19.290 C 15.872 19.533,15.707 19.740,15.484 19.872 L 15.300 19.980 12.000 19.980 L 8.700 19.980 8.516 19.872 C 8.415 19.813,8.284 19.700,8.225 19.623 C 7.986 19.309,8.000 19.795,8.000 12.022 C 8.000 4.005,7.975 4.631,8.304 4.303 C 8.582 4.024,8.681 4.006,9.927 4.003 L 10.993 4.000 11.007 4.653 M11.499 7.040 C 10.363 7.246,9.460 8.049,9.114 9.160 C 8.979 9.594,8.979 10.406,9.114 10.840 C 9.421 11.826,10.174 12.579,11.160 12.886 C 11.594 13.021,12.406 13.021,12.840 12.886 C 13.826 12.579,14.579 11.826,14.886 10.840 C 15.021 10.406,15.021 9.594,14.886 9.160 C 14.581 8.179,13.810 7.407,12.861 7.129 C 12.500 7.023,11.832 6.980,11.499 7.040 M12.310 9.061 C 12.688 9.173,13.000 9.598,13.000 10.001 C 13.000 10.331,12.784 10.696,12.484 10.872 C 12.328 10.963,12.254 10.980,12.000 10.980 C 11.746 10.980,11.672 10.963,11.516 10.872 C 10.935 10.530,10.833 9.774,11.304 9.303 C 11.583 9.024,11.916 8.944,12.310 9.061 M9.695 14.057 C 9.466 14.129,9.256 14.299,9.128 14.516 C 9.036 14.672,9.020 14.745,9.021 15.000 C 9.022 15.332,9.101 15.533,9.306 15.728 C 9.785 16.181,10.580 16.046,10.893 15.460 C 11.025 15.211,11.015 14.760,10.872 14.516 C 10.628 14.101,10.150 13.915,9.695 14.057 M13.695 14.057 C 13.466 14.129,13.256 14.299,13.128 14.516 C 13.036 14.672,13.020 14.745,13.021 15.000 C 13.022 15.332,13.101 15.533,13.306 15.728 C 13.785 16.181,14.580 16.046,14.893 15.460 C 15.025 15.211,15.015 14.760,14.872 14.516 C 14.628 14.101,14.150 13.915,13.695 14.057 M9.695 17.057 C 9.466 17.129,9.256 17.299,9.128 17.516 C 9.036 17.672,9.020 17.745,9.021 18.000 C 9.022 18.332,9.101 18.533,9.306 18.728 C 9.785 19.181,10.580 19.046,10.893 18.460 C 11.025 18.211,11.015 17.760,10.872 17.516 C 10.628 17.101,10.150 16.915,9.695 17.057 M13.695 17.057 C 13.466 17.129,13.256 17.299,13.128 17.516 C 13.036 17.672,13.020 17.745,13.021 18.000 C 13.022 18.332,13.101 18.533,13.306 18.728 C 13.785 19.181,14.580 19.046,14.893 18.460 C 15.025 18.211,15.015 17.760,14.872 17.516 C 14.628 17.101,14.150 16.915,13.695 17.057 " stroke="none" fill-rule="evenodd" fill="black"></path></svg>