<svg xmlns="http://www.w3.org/2000/svg" width="24" height="24" viewBox="0 0 24 24" fill="none" stroke="currentColor" stroke-width="2" stroke-linecap="round" stroke-linejoin="round"><path d="M3.477 3.073 C 2.806 3.249,2.238 3.823,2.060 4.508 C 2.008 4.705,2.000 5.464,2.000 10.000 C 2.000 15.733,1.990 15.466,2.225 15.930 C 2.361 16.199,2.801 16.639,3.070 16.775 C 3.506 16.996,3.557 17.000,5.868 17.000 L 8.000 17.000 8.000 18.000 L 8.000 19.000 7.446 19.000 C 6.648 19.000,6.367 19.110,6.128 19.516 C 6.037 19.672,6.020 19.746,6.020 20.000 C 6.020 20.256,6.036 20.328,6.131 20.489 C 6.256 20.702,6.449 20.864,6.670 20.943 C 6.787 20.985,7.243 20.997,8.760 20.998 L 10.700 20.999 10.900 20.905 C 11.281 20.724,11.488 20.405,11.488 20.000 C 11.488 19.732,11.401 19.507,11.228 19.326 C 11.006 19.095,10.826 19.027,10.390 19.008 L 10.000 18.991 10.000 18.000 L 10.000 17.009 10.179 16.982 C 10.422 16.946,10.712 16.742,10.859 16.503 C 10.966 16.329,10.980 16.271,10.980 16.003 C 10.980 15.746,10.964 15.672,10.872 15.516 C 10.813 15.415,10.698 15.282,10.618 15.221 C 10.325 14.997,10.367 15.000,7.054 15.000 L 4.000 15.000 4.000 10.000 L 4.000 5.000 12.000 5.000 L 20.000 5.000 20.000 8.350 L 20.001 11.700 20.095 11.900 C 20.276 12.281,20.595 12.488,21.000 12.488 C 21.405 12.488,21.724 12.281,21.905 11.900 L 21.999 11.700 21.999 8.240 C 21.999 4.495,22.000 4.514,21.781 4.083 C 21.646 3.816,21.297 3.449,21.017 3.281 C 20.523 2.983,21.217 3.005,12.000 3.005 C 4.321 3.005,3.721 3.009,3.477 3.073 M17.372 13.072 C 17.112 13.165,16.870 13.331,16.723 13.517 C 16.661 13.596,16.403 14.074,16.150 14.580 L 15.689 15.501 14.657 15.651 C 13.546 15.812,13.351 15.870,13.063 16.122 C 12.745 16.402,12.575 16.831,12.611 17.267 C 12.646 17.710,12.753 17.864,13.623 18.726 C 14.233 19.330,14.399 19.517,14.384 19.580 C 14.373 19.624,14.289 20.107,14.197 20.653 L 14.030 21.645 14.095 21.913 C 14.262 22.595,14.870 23.044,15.552 22.989 C 15.821 22.968,16.039 22.871,17.330 22.198 L 17.800 21.953 18.270 22.198 C 19.561 22.871,19.779 22.968,20.048 22.989 C 20.724 23.043,21.333 22.598,21.503 21.925 C 21.576 21.635,21.580 21.680,21.357 20.400 L 21.200 19.500 21.979 18.726 C 22.844 17.867,22.944 17.722,22.986 17.276 C 23.027 16.835,22.860 16.406,22.537 16.122 C 22.249 15.870,22.054 15.812,20.943 15.651 L 19.911 15.501 19.434 14.548 C 18.905 13.491,18.773 13.315,18.370 13.130 C 18.069 12.992,17.662 12.969,17.372 13.072 M18.109 16.376 C 18.267 16.693,18.451 17.015,18.518 17.091 C 18.699 17.298,18.948 17.384,19.653 17.484 L 20.285 17.574 19.787 18.077 C 19.512 18.354,19.261 18.634,19.228 18.701 C 19.111 18.935,19.109 19.155,19.217 19.773 C 19.274 20.098,19.320 20.391,19.320 20.424 C 19.320 20.466,19.137 20.389,18.699 20.162 C 18.097 19.850,18.070 19.840,17.800 19.840 C 17.530 19.840,17.503 19.850,16.901 20.162 C 16.413 20.415,16.280 20.469,16.280 20.415 C 16.280 20.378,16.326 20.085,16.383 19.765 C 16.492 19.156,16.489 18.935,16.372 18.701 C 16.339 18.634,16.088 18.354,15.813 18.077 L 15.315 17.574 15.947 17.484 C 16.652 17.384,16.901 17.298,17.082 17.091 C 17.149 17.015,17.333 16.693,17.491 16.376 C 17.649 16.059,17.788 15.800,17.800 15.800 C 17.812 15.800,17.951 16.059,18.109 16.376 " stroke="none" fill-rule="evenodd" fill="black"></path></svg>