<svg xmlns="http://www.w3.org/2000/svg" width="24" height="24" viewBox="0 0 24 24" fill="none" stroke="currentColor" stroke-width="2" stroke-linecap="round" stroke-linejoin="round"><path d="M8.695 2.057 C 8.466 2.129,8.256 2.299,8.128 2.516 L 8.020 2.700 8.000 3.913 L 7.980 5.126 7.720 5.217 C 6.350 5.697,5.370 6.816,5.083 8.227 C 5.003 8.618,5.000 8.755,5.000 12.000 C 5.000 15.243,5.003 15.382,5.082 15.772 C 5.359 17.128,6.281 18.231,7.540 18.711 C 7.716 18.778,7.891 18.843,7.928 18.854 C 7.989 18.874,7.997 18.990,8.008 20.088 L 8.020 21.300 8.131 21.489 C 8.256 21.702,8.449 21.864,8.670 21.943 C 8.888 22.021,12.112 22.021,12.330 21.943 C 12.551 21.864,12.744 21.702,12.869 21.489 C 12.964 21.328,12.980 21.256,12.980 21.000 C 12.980 20.746,12.963 20.672,12.872 20.516 C 12.813 20.415,12.698 20.282,12.618 20.221 C 12.356 20.022,12.203 20.000,11.054 20.000 L 10.000 20.000 10.000 19.500 L 10.000 19.000 10.590 18.998 C 10.977 18.997,11.232 18.978,11.330 18.943 C 11.551 18.864,11.744 18.702,11.869 18.489 C 11.964 18.328,11.980 18.256,11.980 18.000 C 11.980 17.746,11.963 17.672,11.872 17.516 C 11.813 17.415,11.698 17.282,11.618 17.221 C 11.352 17.018,11.213 17.000,9.922 17.000 C 8.646 17.000,8.474 16.980,8.083 16.781 C 7.816 16.646,7.449 16.297,7.281 16.017 C 6.999 15.548,7.005 15.636,7.005 12.000 C 7.005 9.047,7.011 8.715,7.073 8.477 C 7.250 7.801,7.850 7.215,8.522 7.062 C 8.933 6.969,15.067 6.969,15.478 7.062 C 15.956 7.171,16.389 7.485,16.686 7.937 C 16.961 8.357,16.971 8.420,16.997 9.943 L 17.020 11.307 17.141 11.503 C 17.543 12.156,18.457 12.156,18.859 11.503 L 18.980 11.306 18.992 9.979 C 19.003 8.773,18.997 8.616,18.923 8.252 C 18.630 6.816,17.658 5.700,16.280 5.217 L 16.020 5.126 16.000 3.913 L 15.980 2.700 15.872 2.516 C 15.740 2.293,15.533 2.128,15.290 2.055 C 15.030 1.977,8.945 1.979,8.695 2.057 M14.000 4.500 L 14.000 5.000 12.000 5.000 L 10.000 5.000 10.000 4.500 L 10.000 4.000 12.000 4.000 L 14.000 4.000 14.000 4.500 M17.358 14.061 C 16.230 14.237,15.143 14.974,14.569 15.953 C 13.320 18.083,14.233 20.785,16.512 21.704 C 17.473 22.091,18.529 22.090,19.494 21.701 C 19.684 21.625,19.881 21.535,19.932 21.502 C 20.020 21.444,20.041 21.460,20.681 22.104 C 21.044 22.468,21.416 22.810,21.508 22.865 C 21.967 23.139,22.587 22.968,22.867 22.492 C 22.964 22.327,22.980 22.257,22.980 22.000 C 22.980 21.589,22.910 21.484,22.104 20.681 C 21.460 20.041,21.444 20.020,21.502 19.932 C 21.627 19.740,21.844 19.132,21.921 18.757 C 22.070 18.024,21.994 17.230,21.705 16.516 C 21.172 15.197,20.001 14.269,18.605 14.058 C 18.144 13.989,17.816 13.990,17.358 14.061 M18.523 16.073 C 19.262 16.266,19.850 16.924,19.967 17.690 C 20.067 18.343,19.873 18.933,19.403 19.404 C 19.002 19.807,18.547 20.000,18.000 20.000 C 17.485 20.000,17.038 19.822,16.653 19.465 C 15.323 18.229,16.189 16.005,18.000 16.005 C 18.143 16.005,18.378 16.036,18.523 16.073 " stroke="none" fill-rule="evenodd" fill="black"></path></svg>