<svg xmlns="http://www.w3.org/2000/svg" width="24" height="24" viewBox="0 0 24 24" fill="none" stroke="currentColor" stroke-width="2" stroke-linecap="round" stroke-linejoin="round"><path d="M8.695 2.057 C 8.466 2.129,8.256 2.299,8.128 2.516 L 8.020 2.700 8.000 3.913 L 7.980 5.126 7.720 5.217 C 6.350 5.697,5.370 6.816,5.083 8.227 C 5.003 8.618,5.000 8.755,5.000 12.000 C 5.000 15.243,5.003 15.382,5.082 15.772 C 5.359 17.128,6.281 18.231,7.540 18.711 C 7.716 18.778,7.891 18.843,7.928 18.854 C 7.989 18.874,7.997 18.990,8.008 20.088 L 8.020 21.300 8.131 21.489 C 8.256 21.702,8.449 21.864,8.670 21.943 C 8.889 22.021,13.111 22.021,13.330 21.943 C 13.551 21.864,13.744 21.702,13.869 21.489 C 13.964 21.328,13.980 21.256,13.980 21.000 C 13.980 20.746,13.963 20.672,13.872 20.516 C 13.813 20.415,13.698 20.282,13.618 20.221 C 13.342 20.011,13.242 20.000,11.554 20.000 L 10.000 20.000 10.000 19.500 L 10.000 19.000 11.590 18.998 C 13.300 18.996,13.346 18.991,13.619 18.783 C 13.696 18.725,13.808 18.592,13.869 18.489 C 13.964 18.328,13.980 18.256,13.980 18.000 C 13.980 17.746,13.963 17.672,13.872 17.516 C 13.813 17.415,13.698 17.282,13.618 17.221 C 13.332 17.003,13.294 17.000,10.922 17.000 C 8.562 17.000,8.505 16.996,8.083 16.781 C 7.816 16.646,7.449 16.297,7.281 16.017 C 6.999 15.548,7.005 15.636,7.005 12.000 C 7.005 9.047,7.011 8.715,7.073 8.477 C 7.250 7.801,7.850 7.215,8.522 7.062 C 8.933 6.969,15.067 6.969,15.478 7.062 C 15.956 7.171,16.389 7.485,16.686 7.937 C 16.983 8.390,16.974 8.306,16.998 10.943 L 17.020 13.306 17.141 13.503 C 17.543 14.156,18.457 14.156,18.859 13.503 L 18.980 13.306 18.991 10.975 C 19.002 8.770,18.998 8.623,18.922 8.249 C 18.630 6.816,17.657 5.700,16.280 5.217 L 16.020 5.126 16.000 3.913 L 15.980 2.700 15.872 2.516 C 15.740 2.293,15.533 2.128,15.290 2.055 C 15.030 1.977,8.945 1.979,8.695 2.057 M14.000 4.500 L 14.000 5.000 12.000 5.000 L 10.000 5.000 10.000 4.500 L 10.000 4.000 12.000 4.000 L 14.000 4.000 14.000 4.500 M16.695 16.057 C 16.466 16.129,16.256 16.299,16.128 16.516 L 16.020 16.700 16.020 19.503 L 16.020 22.306 16.141 22.503 C 16.543 23.156,17.457 23.156,17.859 22.503 L 17.980 22.306 17.980 19.503 L 17.980 16.700 17.872 16.516 C 17.628 16.101,17.150 15.915,16.695 16.057 M20.695 16.057 C 20.466 16.129,20.256 16.299,20.128 16.516 L 20.020 16.700 20.020 19.503 L 20.020 22.306 20.141 22.503 C 20.543 23.156,21.457 23.156,21.859 22.503 L 21.980 22.306 21.980 19.503 L 21.980 16.700 21.872 16.516 C 21.628 16.101,21.150 15.915,20.695 16.057 " stroke="none" fill-rule="evenodd" fill="black"></path></svg>