<svg xmlns="http://www.w3.org/2000/svg" width="24" height="24" viewBox="0 0 24 24" fill="none" stroke="currentColor" stroke-width="2" stroke-linecap="round" stroke-linejoin="round"><path d="M8.695 2.057 C 8.466 2.129,8.256 2.299,8.128 2.516 L 8.020 2.700 8.000 3.913 L 7.980 5.126 7.720 5.217 C 6.350 5.697,5.370 6.816,5.083 8.227 C 5.003 8.618,5.000 8.755,5.000 12.000 C 5.000 15.243,5.003 15.382,5.082 15.772 C 5.359 17.128,6.281 18.231,7.540 18.711 C 7.716 18.778,7.891 18.843,7.928 18.854 C 7.989 18.874,7.997 18.990,8.008 20.088 L 8.020 21.300 8.131 21.489 C 8.256 21.702,8.449 21.864,8.670 21.943 C 8.888 22.021,12.112 22.021,12.330 21.943 C 12.551 21.864,12.744 21.702,12.869 21.489 C 12.964 21.328,12.980 21.256,12.980 21.000 C 12.980 20.746,12.963 20.672,12.872 20.516 C 12.813 20.415,12.698 20.282,12.618 20.221 C 12.356 20.022,12.203 20.000,11.054 20.000 L 10.000 20.000 10.000 19.500 L 10.000 19.000 10.590 18.998 C 10.977 18.997,11.232 18.978,11.330 18.943 C 11.551 18.864,11.744 18.702,11.869 18.489 C 11.964 18.328,11.980 18.256,11.980 18.000 C 11.980 17.746,11.963 17.672,11.872 17.516 C 11.813 17.415,11.698 17.282,11.618 17.221 C 11.352 17.018,11.213 17.000,9.922 17.000 C 8.646 17.000,8.474 16.980,8.083 16.781 C 7.816 16.646,7.449 16.297,7.281 16.017 C 6.999 15.548,7.005 15.636,7.005 12.000 C 7.005 9.047,7.011 8.715,7.073 8.477 C 7.250 7.801,7.850 7.215,8.522 7.062 C 8.933 6.969,15.067 6.969,15.478 7.062 C 15.956 7.171,16.389 7.485,16.686 7.937 C 16.983 8.390,16.974 8.306,16.998 10.943 L 17.020 13.306 17.141 13.503 C 17.543 14.156,18.457 14.156,18.859 13.503 L 18.980 13.306 18.991 10.975 C 19.002 8.770,18.998 8.623,18.922 8.249 C 18.630 6.816,17.657 5.700,16.280 5.217 L 16.020 5.126 16.000 3.913 L 15.980 2.700 15.872 2.516 C 15.740 2.293,15.533 2.128,15.290 2.055 C 15.030 1.977,8.945 1.979,8.695 2.057 M14.000 4.500 L 14.000 5.000 12.000 5.000 L 10.000 5.000 10.000 4.500 L 10.000 4.000 12.000 4.000 L 14.000 4.000 14.000 4.500 M16.640 16.069 C 16.492 16.121,16.265 16.325,15.347 17.236 C 14.734 17.843,14.185 18.421,14.127 18.520 C 14.037 18.672,14.020 18.747,14.020 19.000 C 14.020 19.254,14.036 19.328,14.127 19.480 C 14.260 19.703,16.367 21.803,16.560 21.905 C 16.659 21.957,16.787 21.979,17.000 21.979 C 17.258 21.980,17.327 21.964,17.492 21.867 C 17.714 21.737,17.901 21.498,17.965 21.264 C 18.019 21.061,17.989 20.733,17.899 20.555 C 17.861 20.481,17.514 20.101,17.127 19.710 L 16.423 19.000 17.127 18.290 C 17.514 17.899,17.864 17.517,17.904 17.440 C 17.957 17.340,17.979 17.213,17.979 17.000 C 17.980 16.745,17.964 16.672,17.872 16.516 C 17.617 16.083,17.120 15.902,16.640 16.069 M19.670 16.061 C 19.448 16.142,19.250 16.309,19.128 16.516 C 19.036 16.672,19.020 16.745,19.021 17.000 C 19.021 17.213,19.043 17.340,19.096 17.440 C 19.136 17.517,19.486 17.899,19.873 18.290 L 20.577 19.000 19.873 19.710 C 19.486 20.101,19.139 20.481,19.101 20.555 C 18.872 21.008,19.056 21.601,19.508 21.867 C 19.673 21.964,19.742 21.980,20.000 21.979 C 20.213 21.979,20.341 21.957,20.440 21.905 C 20.633 21.803,22.740 19.703,22.873 19.480 C 22.964 19.328,22.980 19.254,22.980 19.000 C 22.980 18.747,22.963 18.672,22.873 18.520 C 22.815 18.421,22.266 17.843,21.653 17.236 C 20.680 16.271,20.515 16.124,20.343 16.066 C 20.108 15.987,19.875 15.985,19.670 16.061 " stroke="none" fill-rule="evenodd" fill="black"></path></svg>