<svg xmlns="http://www.w3.org/2000/svg" width="24" height="24" viewBox="0 0 24 24" fill="none" stroke="currentColor" stroke-width="2" stroke-linecap="round" stroke-linejoin="round"><path d="M2.670 2.061 C 2.448 2.142,2.250 2.309,2.128 2.516 C 2.036 2.672,2.020 2.745,2.021 3.000 C 2.021 3.214,2.043 3.340,2.096 3.440 C 2.137 3.517,2.413 3.826,2.710 4.127 L 3.250 4.674 2.988 5.023 C 2.681 5.433,2.411 5.957,2.247 6.461 C 2.012 7.189,2.020 6.982,2.020 12.000 C 2.020 16.316,2.025 16.642,2.093 16.960 C 2.526 18.984,4.016 20.474,6.040 20.907 C 6.343 20.972,6.596 20.980,8.340 20.980 L 10.300 20.980 10.489 20.869 C 10.702 20.744,10.864 20.551,10.943 20.330 C 10.986 20.209,10.997 19.437,10.998 16.300 L 11.000 12.421 12.000 13.420 L 13.000 14.419 13.002 17.300 C 13.003 19.601,13.014 20.210,13.057 20.330 C 13.136 20.551,13.298 20.744,13.511 20.869 L 13.700 20.980 15.680 20.980 C 17.962 20.980,18.048 20.970,18.990 20.594 L 19.119 20.543 19.770 21.186 C 20.127 21.541,20.483 21.864,20.560 21.904 C 20.660 21.957,20.786 21.979,21.000 21.979 C 21.258 21.980,21.327 21.964,21.492 21.867 C 21.968 21.587,22.139 20.967,21.865 20.508 C 21.810 20.416,17.665 16.243,12.653 11.235 C 4.231 2.820,3.525 2.125,3.343 2.065 C 3.107 1.987,2.874 1.986,2.670 2.061 M7.695 3.057 C 7.466 3.129,7.256 3.299,7.128 3.516 C 7.037 3.672,7.020 3.746,7.020 4.000 C 7.020 4.256,7.036 4.328,7.131 4.489 C 7.256 4.702,7.449 4.864,7.670 4.943 C 7.768 4.978,8.022 4.997,8.407 4.998 L 8.993 5.000 9.007 5.653 C 9.020 6.300,9.021 6.308,9.141 6.503 C 9.543 7.156,10.457 7.156,10.859 6.503 L 10.980 6.306 10.980 5.003 L 10.980 3.700 10.872 3.516 C 10.740 3.293,10.533 3.128,10.290 3.055 C 10.039 2.979,7.937 2.981,7.695 3.057 M13.695 3.057 C 13.466 3.129,13.256 3.299,13.128 3.516 L 13.020 3.700 13.020 7.003 L 13.020 10.306 13.141 10.503 C 13.543 11.156,14.457 11.156,14.859 10.503 L 14.980 10.306 14.991 7.650 L 15.002 4.993 16.271 5.009 C 17.482 5.025,17.555 5.030,17.861 5.124 C 18.815 5.418,19.574 6.176,19.879 7.139 L 19.980 7.460 19.991 11.802 C 20.000 15.415,19.993 16.209,19.945 16.527 C 19.876 16.987,19.909 17.195,20.093 17.470 C 20.265 17.725,20.575 17.886,20.897 17.886 C 21.350 17.886,21.725 17.602,21.857 17.158 C 21.995 16.693,22.005 16.289,21.991 11.760 C 21.978 7.652,21.971 7.276,21.905 7.000 C 21.589 5.667,20.847 4.566,19.800 3.874 C 19.046 3.375,18.396 3.135,17.552 3.043 C 16.976 2.980,13.905 2.991,13.695 3.057 M5.048 6.468 L 5.397 6.815 5.163 7.027 C 4.710 7.437,4.512 7.884,4.512 8.500 C 4.512 9.100,4.701 9.541,5.131 9.948 C 5.539 10.334,5.951 10.494,6.520 10.490 C 7.116 10.485,7.560 10.287,7.973 9.840 L 8.189 9.607 8.594 10.014 L 9.000 10.421 9.000 14.714 L 9.000 19.007 7.710 18.991 C 6.498 18.976,6.403 18.969,6.140 18.884 C 5.154 18.562,4.387 17.782,4.112 16.822 L 4.020 16.500 4.020 12.020 C 4.020 7.754,4.024 7.527,4.096 7.260 C 4.137 7.106,4.223 6.872,4.287 6.740 C 4.402 6.501,4.643 6.120,4.679 6.120 C 4.690 6.120,4.856 6.276,5.048 6.468 M17.411 18.965 C 17.350 18.979,16.782 18.993,16.150 18.995 L 15.000 19.000 15.000 17.710 L 15.000 16.420 16.261 17.680 C 17.464 18.882,17.516 18.941,17.411 18.965 " stroke="none" fill-rule="evenodd" fill="black"></path></svg>