<svg xmlns="http://www.w3.org/2000/svg" width="24" height="24" viewBox="0 0 24 24" fill="none" stroke="currentColor" stroke-width="2" stroke-linecap="round" stroke-linejoin="round"><path d="M4.499 3.043 C 3.380 3.232,2.461 4.048,2.114 5.160 L 2.020 5.460 2.020 12.000 L 2.020 18.540 2.114 18.840 C 2.418 19.816,3.150 20.554,4.140 20.886 L 4.420 20.980 8.040 20.991 C 12.081 21.004,11.845 21.020,12.173 20.724 C 12.381 20.536,12.488 20.292,12.488 20.003 C 12.488 19.615,12.294 19.298,11.940 19.106 C 11.780 19.020,11.774 19.020,8.240 19.000 L 4.700 18.980 4.516 18.872 C 4.415 18.813,4.284 18.700,4.225 18.623 C 3.987 18.311,4.000 18.701,4.000 12.022 C 4.000 5.123,3.977 5.629,4.303 5.303 C 4.631 4.976,4.009 5.000,12.000 5.000 C 19.991 5.000,19.369 4.976,19.697 5.303 C 20.010 5.617,20.000 5.498,20.000 8.797 L 20.001 11.700 20.095 11.900 C 20.276 12.282,20.595 12.488,21.003 12.488 C 21.292 12.488,21.536 12.381,21.724 12.173 C 22.018 11.847,22.005 12.024,21.991 8.540 L 21.979 5.420 21.886 5.140 C 21.558 4.159,20.821 3.425,19.861 3.121 L 19.540 3.020 12.120 3.014 C 8.039 3.011,4.609 3.024,4.499 3.043 M17.358 14.061 C 16.230 14.237,15.143 14.974,14.569 15.953 C 13.320 18.083,14.233 20.785,16.512 21.704 C 17.473 22.091,18.529 22.090,19.494 21.701 C 19.684 21.625,19.881 21.535,19.932 21.502 C 20.020 21.444,20.041 21.460,20.681 22.104 C 21.044 22.468,21.416 22.810,21.508 22.865 C 21.967 23.139,22.587 22.968,22.867 22.492 C 22.964 22.327,22.980 22.257,22.980 22.000 C 22.980 21.589,22.910 21.484,22.104 20.681 C 21.460 20.041,21.444 20.020,21.502 19.932 C 21.627 19.740,21.844 19.132,21.921 18.757 C 22.070 18.024,21.994 17.230,21.705 16.516 C 21.172 15.197,20.001 14.269,18.605 14.058 C 18.144 13.989,17.816 13.990,17.358 14.061 M8.695 16.057 C 8.466 16.129,8.256 16.299,8.128 16.516 C 8.037 16.672,8.020 16.746,8.020 17.000 C 8.020 17.256,8.036 17.328,8.131 17.489 C 8.256 17.702,8.449 17.864,8.670 17.943 C 8.885 18.020,11.115 18.020,11.330 17.943 C 11.551 17.864,11.744 17.702,11.869 17.489 C 11.964 17.328,11.980 17.256,11.980 17.000 C 11.980 16.746,11.963 16.672,11.872 16.516 C 11.740 16.293,11.533 16.128,11.290 16.055 C 11.039 15.979,8.937 15.981,8.695 16.057 M18.523 16.073 C 19.262 16.266,19.850 16.924,19.967 17.690 C 20.067 18.343,19.873 18.933,19.403 19.404 C 19.002 19.807,18.547 20.000,18.000 20.000 C 17.485 20.000,17.038 19.822,16.653 19.465 C 15.323 18.229,16.189 16.005,18.000 16.005 C 18.143 16.005,18.378 16.036,18.523 16.073 " stroke="none" fill-rule="evenodd" fill="black"></path></svg>