<svg xmlns="http://www.w3.org/2000/svg" width="24" height="24" viewBox="0 0 24 24" fill="none" stroke="currentColor" stroke-width="2" stroke-linecap="round" stroke-linejoin="round"><path d="M2.670 2.061 C 2.448 2.142,2.250 2.309,2.128 2.516 C 2.037 2.672,2.020 2.746,2.020 3.000 C 2.020 3.254,2.036 3.327,2.127 3.480 C 2.187 3.579,2.983 4.406,3.896 5.319 C 5.519 6.939,5.556 6.980,5.498 7.069 C 5.373 7.260,5.156 7.868,5.079 8.243 C 5.004 8.613,5.000 8.798,5.000 12.000 C 5.000 15.243,5.003 15.382,5.082 15.772 C 5.359 17.128,6.281 18.231,7.540 18.711 C 7.716 18.778,7.891 18.843,7.928 18.854 C 7.989 18.874,7.997 18.990,8.008 20.088 L 8.020 21.300 8.131 21.489 C 8.256 21.702,8.449 21.864,8.670 21.943 C 8.891 22.022,15.109 22.022,15.330 21.943 C 15.551 21.864,15.744 21.702,15.869 21.489 L 15.980 21.300 16.000 20.087 L 16.020 18.874 16.295 18.778 C 16.446 18.725,16.673 18.630,16.800 18.566 L 17.031 18.451 18.686 20.108 C 19.596 21.019,20.421 21.813,20.520 21.873 C 20.673 21.964,20.746 21.980,21.000 21.980 C 21.257 21.980,21.327 21.964,21.492 21.867 C 21.968 21.587,22.139 20.967,21.865 20.508 C 21.810 20.416,17.665 16.243,12.653 11.235 C 4.231 2.820,3.525 2.125,3.343 2.065 C 3.107 1.987,2.874 1.986,2.670 2.061 M8.695 2.057 C 8.466 2.129,8.256 2.299,8.128 2.516 L 8.020 2.700 8.020 4.003 L 8.020 5.306 8.141 5.503 C 8.287 5.740,8.577 5.946,8.817 5.982 C 8.988 6.007,8.993 6.012,9.018 6.183 C 9.054 6.423,9.260 6.713,9.497 6.859 L 9.694 6.980 12.557 7.001 C 15.060 7.019,15.444 7.030,15.610 7.087 C 16.041 7.235,16.431 7.542,16.687 7.937 C 16.989 8.401,16.975 8.248,16.999 11.443 L 17.020 14.306 17.141 14.503 C 17.543 15.156,18.457 15.156,18.859 14.503 L 18.980 14.306 18.991 11.475 C 19.002 8.770,18.998 8.625,18.922 8.248 C 18.630 6.816,17.656 5.699,16.280 5.217 L 16.020 5.126 16.000 3.913 L 15.980 2.700 15.872 2.516 C 15.740 2.293,15.533 2.128,15.290 2.055 C 15.030 1.977,8.945 1.979,8.695 2.057 M14.000 4.500 L 14.000 5.000 12.000 5.000 L 10.000 5.000 10.000 4.500 L 10.000 4.000 12.000 4.000 L 14.000 4.000 14.000 4.500 M11.298 12.718 C 13.607 15.027,15.482 16.931,15.465 16.948 C 15.415 16.999,8.818 17.009,8.578 16.960 C 7.886 16.816,7.253 16.212,7.073 15.523 C 7.011 15.285,7.004 14.952,7.002 12.076 C 7.000 9.111,7.012 8.520,7.076 8.520 C 7.089 8.520,8.989 10.409,11.298 12.718 M14.000 19.500 L 14.000 20.000 12.000 20.000 L 10.000 20.000 10.000 19.500 L 10.000 19.000 12.000 19.000 L 14.000 19.000 14.000 19.500 " stroke="none" fill-rule="evenodd" fill="black"></path></svg>