<svg xmlns="http://www.w3.org/2000/svg" width="24" height="24" viewBox="0 0 24 24" fill="none" stroke="currentColor" stroke-width="2" stroke-linecap="round" stroke-linejoin="round"><path d="M3.477 3.073 C 2.806 3.249,2.238 3.823,2.060 4.508 C 2.008 4.705,2.000 5.464,2.000 10.000 C 2.000 15.733,1.990 15.466,2.225 15.930 C 2.361 16.199,2.801 16.639,3.070 16.775 C 3.506 16.996,3.557 17.000,5.868 17.000 L 8.000 17.000 8.000 18.000 L 8.000 19.000 7.446 19.000 C 6.648 19.000,6.367 19.110,6.128 19.516 C 6.037 19.672,6.020 19.746,6.020 20.000 C 6.020 20.256,6.036 20.328,6.131 20.489 C 6.256 20.702,6.449 20.864,6.670 20.943 C 6.889 21.021,11.111 21.021,11.330 20.943 C 11.551 20.864,11.744 20.702,11.869 20.489 C 11.964 20.328,11.980 20.256,11.980 20.000 C 11.980 19.746,11.963 19.672,11.872 19.516 C 11.633 19.110,11.352 19.000,10.554 19.000 L 10.000 19.000 10.000 18.000 L 10.000 17.000 11.090 16.998 C 12.262 16.996,12.357 16.983,12.619 16.783 C 12.696 16.725,12.808 16.592,12.869 16.489 C 12.964 16.328,12.980 16.256,12.980 16.000 C 12.980 15.746,12.963 15.672,12.872 15.516 C 12.813 15.415,12.698 15.282,12.618 15.221 C 12.320 14.994,12.453 15.000,8.054 15.000 L 4.000 15.000 4.000 10.000 L 4.000 5.000 11.999 5.000 L 19.999 5.000 20.009 9.153 L 20.020 13.306 20.141 13.503 C 20.543 14.156,21.457 14.156,21.859 13.503 L 21.980 13.306 21.991 9.052 C 22.002 4.429,22.006 4.527,21.782 4.083 C 21.646 3.816,21.297 3.449,21.017 3.281 C 20.523 2.983,21.217 3.005,12.000 3.005 C 4.321 3.005,3.721 3.009,3.477 3.073 M20.640 16.068 C 20.488 16.121,20.196 16.394,18.731 17.853 L 17.002 19.575 16.271 18.855 C 15.655 18.247,15.509 18.123,15.343 18.067 C 14.865 17.905,14.383 18.083,14.128 18.516 C 14.036 18.672,14.020 18.745,14.021 19.000 C 14.021 19.213,14.043 19.341,14.095 19.440 C 14.197 19.633,16.297 21.740,16.520 21.873 C 16.673 21.964,16.745 21.980,17.000 21.979 C 17.212 21.979,17.341 21.957,17.440 21.905 C 17.632 21.805,21.739 17.705,21.873 17.480 C 21.964 17.328,21.980 17.254,21.980 17.000 C 21.980 16.746,21.963 16.672,21.872 16.516 C 21.617 16.083,21.121 15.903,20.640 16.068 " stroke="none" fill-rule="evenodd" fill="black"></path></svg>