<svg xmlns="http://www.w3.org/2000/svg" width="24" height="24" viewBox="0 0 24 24" fill="none" stroke="currentColor" stroke-width="2" stroke-linecap="round" stroke-linejoin="round"><path d="M3.477 3.073 C 2.806 3.249,2.238 3.823,2.060 4.508 C 2.008 4.705,2.000 5.464,2.000 10.000 C 2.000 15.733,1.990 15.466,2.225 15.930 C 2.361 16.199,2.801 16.639,3.070 16.775 C 3.506 16.996,3.557 17.000,5.868 17.000 L 8.000 17.000 8.000 18.000 L 8.000 19.000 7.446 19.000 C 6.648 19.000,6.367 19.110,6.128 19.516 C 6.037 19.672,6.020 19.746,6.020 20.000 C 6.020 20.256,6.036 20.328,6.131 20.489 C 6.256 20.702,6.449 20.864,6.670 20.943 C 6.891 21.022,13.109 21.022,13.330 20.943 C 13.551 20.864,13.744 20.702,13.869 20.489 C 13.964 20.328,13.980 20.256,13.980 20.000 C 13.980 19.746,13.963 19.672,13.872 19.516 C 13.813 19.415,13.698 19.282,13.618 19.221 C 13.342 19.011,13.242 19.000,11.554 19.000 L 10.000 19.000 10.000 18.000 L 10.000 17.000 12.350 17.000 L 14.700 16.999 14.900 16.905 C 15.281 16.724,15.488 16.405,15.488 16.000 C 15.488 15.615,15.293 15.297,14.940 15.106 L 14.780 15.020 9.390 15.009 L 4.000 14.999 4.000 9.999 L 4.000 5.000 12.000 5.000 L 20.000 5.000 20.000 8.850 L 20.001 12.700 20.095 12.900 C 20.276 13.281,20.595 13.488,21.000 13.488 C 21.405 13.488,21.724 13.281,21.905 12.900 L 21.999 12.700 21.999 8.740 C 21.999 4.451,22.002 4.518,21.781 4.083 C 21.646 3.816,21.297 3.449,21.017 3.281 C 20.523 2.983,21.217 3.005,12.000 3.005 C 4.321 3.005,3.721 3.009,3.477 3.073 M18.668 15.061 C 18.585 15.092,18.462 15.156,18.395 15.203 C 18.260 15.300,16.136 18.454,16.054 18.680 C 15.893 19.127,16.117 19.673,16.550 19.886 C 16.733 19.977,16.784 19.981,17.930 20.000 L 19.120 20.020 18.600 20.800 C 17.971 21.741,17.914 21.905,18.061 22.322 C 18.284 22.955,18.992 23.187,19.570 22.815 C 19.686 22.741,19.972 22.342,20.805 21.093 C 21.401 20.198,21.917 19.387,21.950 19.289 C 22.074 18.926,21.931 18.460,21.625 18.226 C 21.365 18.028,21.326 18.023,20.070 18.001 L 18.880 17.980 19.383 17.225 C 19.660 16.810,19.912 16.399,19.943 16.310 C 20.212 15.550,19.428 14.782,18.668 15.061 " stroke="none" fill-rule="evenodd" fill="black"></path></svg>