<svg xmlns="http://www.w3.org/2000/svg" width="24" height="24" viewBox="0 0 24 24" fill="none" stroke="currentColor" stroke-width="2" stroke-linecap="round" stroke-linejoin="round"><path d="M4.499 3.043 C 3.380 3.232,2.461 4.048,2.114 5.160 L 2.020 5.460 2.020 12.000 L 2.020 18.540 2.114 18.840 C 2.418 19.816,3.149 20.554,4.140 20.886 L 4.420 20.980 9.040 20.991 C 14.197 21.004,13.841 21.023,14.173 20.724 C 14.381 20.536,14.488 20.292,14.488 20.003 C 14.488 19.615,14.294 19.298,13.940 19.106 L 13.780 19.020 9.240 19.000 L 4.700 18.980 4.516 18.872 C 4.415 18.813,4.284 18.700,4.225 18.623 C 3.987 18.311,4.000 18.701,4.000 12.022 C 4.000 5.123,3.977 5.629,4.303 5.303 C 4.631 4.976,4.009 5.000,12.000 5.000 C 19.938 5.000,19.365 4.979,19.679 5.283 C 20.001 5.596,19.978 5.284,20.000 9.523 L 20.020 13.306 20.141 13.503 C 20.543 14.156,21.457 14.156,21.859 13.503 L 21.980 13.306 21.980 9.383 L 21.980 5.460 21.886 5.160 C 21.581 4.182,20.832 3.428,19.861 3.121 L 19.540 3.020 12.120 3.014 C 8.039 3.011,4.609 3.024,4.499 3.043 M8.695 16.057 C 8.466 16.129,8.256 16.299,8.128 16.516 C 8.037 16.672,8.020 16.746,8.020 17.000 C 8.020 17.256,8.036 17.328,8.131 17.489 C 8.256 17.702,8.449 17.864,8.670 17.943 C 8.889 18.021,13.111 18.021,13.330 17.943 C 13.551 17.864,13.744 17.702,13.869 17.489 C 13.964 17.328,13.980 17.256,13.980 17.000 C 13.980 16.746,13.963 16.672,13.872 16.516 C 13.740 16.293,13.533 16.128,13.290 16.055 C 13.033 15.978,8.943 15.979,8.695 16.057 M16.670 16.061 C 16.448 16.142,16.250 16.309,16.128 16.516 C 16.037 16.672,16.020 16.746,16.020 17.000 C 16.020 17.254,16.036 17.328,16.127 17.480 C 16.186 17.579,16.650 18.074,17.157 18.579 L 18.079 19.499 17.124 20.459 C 16.599 20.988,16.138 21.481,16.101 21.555 C 15.872 22.009,16.056 22.601,16.508 22.867 C 16.673 22.964,16.743 22.980,17.000 22.980 C 17.254 22.980,17.328 22.964,17.480 22.873 C 17.579 22.814,18.074 22.350,18.579 21.843 L 19.499 20.921 20.459 21.876 C 20.988 22.401,21.483 22.864,21.560 22.905 C 21.659 22.957,21.787 22.979,22.000 22.979 C 22.258 22.980,22.327 22.964,22.492 22.867 C 22.714 22.737,22.901 22.498,22.965 22.264 C 23.019 22.061,22.989 21.733,22.899 21.555 C 22.862 21.481,22.401 20.988,21.876 20.459 L 20.921 19.499 21.843 18.579 C 22.350 18.074,22.814 17.579,22.873 17.480 C 22.964 17.328,22.980 17.254,22.980 17.000 C 22.980 16.746,22.963 16.672,22.872 16.516 C 22.618 16.084,22.136 15.905,21.657 16.066 C 21.486 16.124,21.330 16.262,20.480 17.104 L 19.500 18.076 18.520 17.104 C 17.671 16.262,17.514 16.124,17.343 16.066 C 17.108 15.987,16.875 15.985,16.670 16.061 " stroke="none" fill-rule="evenodd" fill="black"></path></svg>