<svg xmlns="http://www.w3.org/2000/svg" width="24" height="24" viewBox="0 0 24 24" fill="none" stroke="currentColor" stroke-width="2" stroke-linecap="round" stroke-linejoin="round"><path d="M3.477 2.073 C 2.806 2.249,2.238 2.823,2.060 3.508 C 2.008 3.706,2.000 4.577,2.000 10.000 C 2.000 16.828,1.988 16.462,2.225 16.930 C 2.361 17.199,2.801 17.639,3.070 17.775 C 3.514 18.000,3.518 18.000,6.301 18.000 L 8.864 18.000 8.742 18.990 L 8.619 19.980 8.179 20.004 C 7.938 20.017,7.689 20.049,7.627 20.074 C 7.435 20.153,7.241 20.325,7.128 20.516 C 7.037 20.672,7.020 20.746,7.020 21.000 C 7.020 21.256,7.036 21.328,7.131 21.489 C 7.256 21.702,7.449 21.864,7.670 21.943 C 7.789 21.985,8.326 21.997,10.260 21.998 L 12.700 21.999 12.900 21.905 C 13.281 21.724,13.488 21.405,13.488 21.000 C 13.488 20.615,13.293 20.297,12.940 20.106 C 12.789 20.025,12.718 20.019,11.710 20.008 C 11.122 20.001,10.640 19.983,10.640 19.968 C 10.640 19.952,10.694 19.517,10.760 19.000 C 10.826 18.483,10.880 18.047,10.880 18.030 C 10.880 18.014,11.172 17.999,11.530 17.998 C 12.231 17.996,12.378 17.967,12.619 17.783 C 12.696 17.725,12.808 17.592,12.869 17.489 C 12.964 17.328,12.980 17.256,12.980 17.000 C 12.980 16.746,12.963 16.672,12.872 16.516 C 12.813 16.415,12.698 16.282,12.618 16.221 C 12.320 15.994,12.453 16.000,8.054 16.000 L 4.000 16.000 4.000 15.000 L 4.000 14.000 9.090 13.998 C 13.238 13.997,14.208 13.987,14.330 13.943 C 14.551 13.864,14.744 13.702,14.869 13.489 C 14.964 13.328,14.980 13.256,14.980 13.000 C 14.980 12.746,14.963 12.672,14.872 12.516 C 14.740 12.293,14.533 12.128,14.290 12.055 C 14.139 12.010,13.220 12.000,9.054 12.000 L 4.000 12.000 4.000 8.000 L 4.000 4.000 12.000 4.000 L 20.000 4.000 20.000 7.850 L 20.001 11.700 20.095 11.900 C 20.276 12.281,20.595 12.488,21.000 12.488 C 21.405 12.488,21.724 12.281,21.905 11.900 L 21.999 11.700 21.999 7.740 C 21.999 3.451,22.002 3.518,21.781 3.083 C 21.646 2.816,21.297 2.449,21.017 2.281 C 20.523 1.983,21.217 2.005,12.000 2.005 C 4.321 2.005,3.721 2.009,3.477 2.073 M18.340 14.060 C 17.913 14.130,17.642 14.217,17.275 14.399 C 16.236 14.915,15.537 15.720,15.185 16.807 C 14.791 18.021,15.052 19.450,15.851 20.460 C 16.124 20.805,16.714 21.363,17.729 22.233 C 18.558 22.945,18.617 22.980,19.000 22.979 C 19.211 22.979,19.339 22.957,19.433 22.907 C 19.586 22.824,20.750 21.830,21.465 21.171 C 22.256 20.443,22.645 19.845,22.868 19.015 C 22.962 18.669,22.975 18.543,22.976 18.000 C 22.977 17.486,22.962 17.325,22.890 17.059 C 22.555 15.825,21.863 14.972,20.736 14.406 C 20.015 14.045,19.175 13.924,18.340 14.060 M19.383 16.043 C 19.962 16.149,20.496 16.556,20.760 17.093 C 20.848 17.273,20.941 17.528,20.964 17.660 C 21.049 18.125,20.934 18.671,20.660 19.101 C 20.538 19.293,19.979 19.839,19.309 20.421 L 18.997 20.691 18.909 20.614 C 17.924 19.754,17.524 19.372,17.355 19.130 C 17.082 18.739,16.949 18.129,17.035 17.660 C 17.107 17.269,17.361 16.802,17.640 16.550 C 18.143 16.095,18.729 15.924,19.383 16.043 M18.695 17.057 C 18.466 17.129,18.256 17.299,18.128 17.516 C 18.036 17.672,18.020 17.745,18.021 18.000 C 18.022 18.332,18.101 18.533,18.306 18.728 C 18.785 19.181,19.580 19.046,19.893 18.460 C 20.025 18.211,20.015 17.760,19.872 17.516 C 19.628 17.101,19.150 16.915,18.695 17.057 " stroke="none" fill-rule="evenodd" fill="black"></path></svg>