<svg xmlns="http://www.w3.org/2000/svg" width="24" height="24" viewBox="0 0 24 24" fill="none" stroke="currentColor" stroke-width="2" stroke-linecap="round" stroke-linejoin="round"><path d="M3.477 3.073 C 2.806 3.249,2.238 3.823,2.060 4.508 C 2.008 4.705,2.000 5.464,2.000 10.000 C 2.000 15.733,1.990 15.466,2.225 15.930 C 2.361 16.199,2.801 16.639,3.070 16.775 C 3.506 16.996,3.557 17.000,5.868 17.000 L 8.000 17.000 8.000 18.000 L 8.000 19.000 7.446 19.000 C 6.648 19.000,6.367 19.110,6.128 19.516 C 6.037 19.672,6.020 19.746,6.020 20.000 C 6.020 20.256,6.036 20.328,6.131 20.489 C 6.256 20.702,6.449 20.864,6.670 20.943 C 6.787 20.985,7.243 20.997,8.760 20.998 L 10.700 20.999 10.900 20.905 C 11.281 20.724,11.488 20.405,11.488 20.000 C 11.488 19.732,11.401 19.507,11.228 19.326 C 11.006 19.095,10.826 19.027,10.390 19.008 L 10.000 18.991 10.000 18.000 L 10.000 17.009 10.179 16.982 C 10.422 16.946,10.712 16.742,10.859 16.503 C 10.966 16.329,10.980 16.271,10.980 16.003 C 10.980 15.746,10.964 15.672,10.872 15.516 C 10.813 15.415,10.698 15.282,10.618 15.221 C 10.325 14.997,10.367 15.000,7.054 15.000 L 4.000 15.000 4.000 10.000 L 4.000 5.000 11.999 5.000 L 19.998 5.000 20.009 8.153 L 20.020 11.306 20.141 11.503 C 20.543 12.156,21.457 12.156,21.859 11.503 L 21.980 11.306 21.991 8.053 C 22.003 4.520,22.003 4.520,21.782 4.083 C 21.646 3.816,21.297 3.449,21.017 3.281 C 20.523 2.983,21.217 3.005,12.000 3.005 C 4.321 3.005,3.721 3.009,3.477 3.073 M15.699 14.037 C 14.670 14.202,13.737 14.905,13.305 15.840 C 13.072 16.345,13.021 16.592,13.024 17.200 C 13.026 17.692,13.037 17.773,13.149 18.111 C 13.392 18.843,13.413 18.869,15.473 20.912 C 16.500 21.930,17.421 22.812,17.520 22.872 C 17.673 22.964,17.745 22.980,18.000 22.980 C 18.254 22.980,18.327 22.964,18.480 22.873 C 18.579 22.814,19.509 21.923,20.547 20.893 C 22.582 18.874,22.591 18.863,22.818 18.213 C 23.020 17.636,23.050 16.947,22.900 16.380 C 22.746 15.802,22.353 15.189,21.871 14.775 C 20.903 13.943,19.453 13.773,18.325 14.360 L 18.013 14.522 17.697 14.363 C 17.245 14.135,16.862 14.039,16.340 14.020 C 16.098 14.012,15.810 14.019,15.699 14.037 M16.756 16.138 C 16.867 16.194,17.072 16.348,17.213 16.480 C 17.512 16.759,17.693 16.846,17.980 16.849 C 18.293 16.851,18.459 16.777,18.773 16.492 C 19.235 16.074,19.562 15.956,20.020 16.041 C 20.841 16.193,21.259 17.127,20.806 17.797 C 20.748 17.883,20.101 18.542,19.368 19.262 C 18.242 20.369,18.025 20.565,17.961 20.535 C 17.919 20.516,17.278 19.898,16.537 19.163 C 15.024 17.661,15.020 17.657,15.023 17.160 C 15.025 16.915,15.045 16.822,15.133 16.651 C 15.292 16.341,15.584 16.126,15.980 16.025 C 16.158 15.979,16.559 16.038,16.756 16.138 " stroke="none" fill-rule="evenodd" fill="black"></path></svg>