<svg xmlns="http://www.w3.org/2000/svg" width="24" height="24" viewBox="0 0 24 24" fill="none" stroke="currentColor" stroke-width="2" stroke-linecap="round" stroke-linejoin="round"><path d="M3.477 3.073 C 2.806 3.249,2.238 3.823,2.060 4.508 C 1.970 4.853,1.970 17.147,2.060 17.492 C 2.245 18.205,2.875 18.814,3.577 18.959 C 3.714 18.988,5.178 18.998,8.043 18.991 L 12.306 18.980 12.503 18.859 C 12.943 18.588,13.114 18.035,12.905 17.559 C 12.883 17.509,12.913 17.496,13.058 17.490 C 13.427 17.474,13.734 17.259,13.905 16.900 L 13.999 16.700 14.000 12.850 L 14.000 9.000 14.495 9.000 L 14.991 9.000 15.018 9.179 C 15.054 9.422,15.258 9.712,15.497 9.859 L 15.694 9.980 17.000 9.980 L 18.306 9.980 18.503 9.859 C 18.742 9.712,18.946 9.422,18.982 9.179 L 19.009 9.000 19.505 9.000 L 20.000 9.000 20.000 10.850 L 20.001 12.700 20.095 12.900 C 20.276 13.281,20.595 13.488,21.000 13.488 C 21.405 13.488,21.724 13.281,21.905 12.900 L 21.999 12.700 21.999 10.740 C 21.999 8.624,21.988 8.490,21.781 8.083 C 21.646 7.816,21.297 7.449,21.017 7.281 C 20.658 7.065,20.361 7.005,19.630 7.002 L 19.000 7.000 18.999 5.890 C 18.999 4.691,18.970 4.456,18.781 4.083 C 18.646 3.816,18.297 3.449,18.017 3.281 C 17.527 2.986,18.042 3.005,10.500 3.005 C 4.239 3.005,3.721 3.010,3.477 3.073 M17.000 6.000 L 17.000 7.000 15.370 7.002 C 13.963 7.004,13.704 7.014,13.477 7.073 C 12.806 7.249,12.238 7.823,12.060 8.508 C 11.970 8.853,11.970 16.611,12.060 16.826 C 12.093 16.905,12.120 16.977,12.120 16.985 C 12.120 16.993,10.293 17.000,8.060 17.000 L 4.000 17.000 4.000 11.000 L 4.000 5.000 10.500 5.000 L 17.000 5.000 17.000 6.000 M18.580 15.096 C 18.424 15.171,18.029 15.545,16.774 16.806 C 15.891 17.694,15.135 18.483,15.095 18.560 C 15.043 18.659,15.021 18.788,15.021 19.000 C 15.020 19.258,15.036 19.327,15.133 19.492 C 15.263 19.714,15.502 19.901,15.736 19.965 C 15.939 20.019,16.267 19.989,16.445 19.899 C 16.519 19.861,16.899 19.514,17.289 19.128 L 17.997 18.426 18.009 20.366 L 18.020 22.306 18.141 22.503 C 18.543 23.156,19.457 23.156,19.859 22.503 L 19.980 22.306 19.991 20.366 L 20.003 18.426 20.711 19.128 C 21.101 19.514,21.483 19.864,21.560 19.904 C 21.660 19.957,21.787 19.979,22.000 19.979 C 22.258 19.980,22.327 19.964,22.492 19.867 C 22.714 19.737,22.901 19.498,22.965 19.264 C 23.019 19.061,22.989 18.733,22.899 18.555 C 22.862 18.481,22.109 17.694,21.226 16.806 C 19.472 15.043,19.420 15.001,19.000 15.001 C 18.851 15.001,18.716 15.031,18.580 15.096 " stroke="none" fill-rule="evenodd" fill="black"></path></svg>