<svg xmlns="http://www.w3.org/2000/svg" width="24" height="24" viewBox="0 0 24 24" fill="none" stroke="currentColor" stroke-width="2" stroke-linecap="round" stroke-linejoin="round"><path d="M3.477 3.073 C 2.806 3.249,2.238 3.823,2.060 4.508 C 2.008 4.706,2.000 5.577,2.000 11.000 C 2.000 17.828,1.988 17.462,2.225 17.930 C 2.361 18.199,2.801 18.639,3.070 18.775 C 3.519 19.003,3.479 19.000,6.718 19.000 L 9.700 18.999 9.900 18.905 C 10.281 18.724,10.488 18.405,10.488 18.000 C 10.488 17.615,10.293 17.297,9.940 17.106 C 9.781 17.020,9.766 17.020,6.890 17.009 L 4.000 16.998 4.000 10.999 L 4.000 5.000 10.500 5.000 L 17.000 5.000 17.000 6.000 L 17.000 7.000 15.370 7.002 C 13.963 7.004,13.704 7.014,13.477 7.073 C 12.788 7.253,12.184 7.886,12.040 8.580 C 12.012 8.715,12.001 9.558,12.009 11.046 L 12.020 13.306 12.141 13.503 C 12.543 14.156,13.457 14.156,13.859 13.503 L 13.980 13.306 13.991 11.153 L 14.003 9.000 14.497 9.000 L 14.991 9.000 15.018 9.179 C 15.054 9.422,15.258 9.712,15.497 9.859 L 15.694 9.980 17.000 9.980 L 18.306 9.980 18.503 9.859 C 18.742 9.712,18.946 9.422,18.982 9.179 L 19.009 9.000 19.505 9.000 L 20.000 9.000 20.000 10.350 C 20.001 11.687,20.002 11.702,20.095 11.900 C 20.276 12.281,20.595 12.488,21.000 12.488 C 21.405 12.488,21.724 12.281,21.905 11.900 C 21.999 11.701,21.999 11.693,21.999 10.240 C 21.999 8.664,21.980 8.474,21.781 8.083 C 21.646 7.816,21.297 7.449,21.017 7.281 C 20.658 7.065,20.361 7.005,19.630 7.002 L 19.000 7.000 18.999 5.890 C 18.999 4.691,18.970 4.456,18.781 4.083 C 18.646 3.816,18.297 3.449,18.017 3.281 C 17.527 2.986,18.042 3.005,10.500 3.005 C 4.239 3.005,3.721 3.010,3.477 3.073 M17.372 13.072 C 17.112 13.165,16.870 13.331,16.723 13.517 C 16.661 13.596,16.403 14.074,16.150 14.580 L 15.689 15.501 14.657 15.651 C 13.546 15.812,13.351 15.870,13.063 16.122 C 12.745 16.402,12.575 16.831,12.611 17.267 C 12.646 17.710,12.753 17.864,13.623 18.726 C 14.233 19.330,14.399 19.517,14.384 19.580 C 14.373 19.624,14.289 20.107,14.197 20.653 L 14.030 21.645 14.095 21.913 C 14.262 22.595,14.870 23.044,15.552 22.989 C 15.821 22.968,16.039 22.871,17.330 22.198 L 17.800 21.953 18.270 22.198 C 19.561 22.871,19.779 22.968,20.048 22.989 C 20.724 23.043,21.333 22.598,21.503 21.925 C 21.576 21.635,21.580 21.680,21.357 20.400 L 21.200 19.500 21.979 18.726 C 22.844 17.867,22.944 17.722,22.986 17.276 C 23.027 16.835,22.860 16.406,22.537 16.122 C 22.249 15.870,22.054 15.812,20.943 15.651 L 19.911 15.501 19.434 14.548 C 18.905 13.491,18.773 13.315,18.370 13.130 C 18.069 12.992,17.662 12.969,17.372 13.072 M18.109 16.376 C 18.267 16.693,18.451 17.015,18.518 17.091 C 18.699 17.298,18.948 17.384,19.653 17.484 L 20.285 17.574 19.787 18.077 C 19.512 18.354,19.261 18.634,19.228 18.701 C 19.111 18.935,19.109 19.155,19.217 19.773 C 19.274 20.098,19.320 20.391,19.320 20.424 C 19.320 20.466,19.137 20.389,18.699 20.162 C 18.097 19.850,18.070 19.840,17.800 19.840 C 17.530 19.840,17.503 19.850,16.901 20.162 C 16.413 20.415,16.280 20.469,16.280 20.415 C 16.280 20.378,16.326 20.085,16.383 19.765 C 16.492 19.156,16.489 18.935,16.372 18.701 C 16.339 18.634,16.088 18.354,15.813 18.077 L 15.315 17.574 15.947 17.484 C 16.652 17.384,16.901 17.298,17.082 17.091 C 17.149 17.015,17.333 16.693,17.491 16.376 C 17.649 16.059,17.788 15.800,17.800 15.800 C 17.812 15.800,17.951 16.059,18.109 16.376 " stroke="none" fill-rule="evenodd" fill="black"></path></svg>