<svg xmlns="http://www.w3.org/2000/svg" width="24" height="24" viewBox="0 0 24 24" fill="none" stroke="currentColor" stroke-width="2" stroke-linecap="round" stroke-linejoin="round"><path d="M17.499 2.042 C 17.170 2.099,16.822 2.221,16.553 2.372 C 16.302 2.513,15.889 2.839,15.828 2.945 C 15.801 2.991,14.924 3.000,10.288 3.000 C 4.375 3.000,4.347 3.001,3.755 3.204 C 2.368 3.679,1.372 4.805,1.083 6.227 C 1.002 6.625,1.000 6.734,1.000 12.000 C 1.000 17.266,1.002 17.375,1.083 17.773 C 1.311 18.892,1.985 19.851,2.956 20.436 C 3.285 20.635,3.810 20.832,4.243 20.921 C 4.621 20.998,4.803 21.000,10.199 21.000 L 15.766 21.000 15.893 21.127 C 16.257 21.491,16.649 21.725,17.161 21.886 C 17.453 21.978,17.496 21.980,19.000 21.980 C 20.503 21.980,20.547 21.978,20.840 21.886 C 21.827 21.578,22.578 20.827,22.886 19.840 L 22.980 19.540 22.980 12.000 L 22.980 4.460 22.886 4.160 C 22.581 3.181,21.825 2.421,20.861 2.124 C 20.548 2.027,20.504 2.024,19.120 2.015 C 18.339 2.010,17.609 2.022,17.499 2.042 M20.310 4.061 C 20.589 4.144,20.856 4.411,20.939 4.690 C 20.993 4.870,21.000 5.755,21.000 12.001 C 21.000 17.907,20.991 19.138,20.945 19.290 C 20.872 19.533,20.707 19.740,20.484 19.872 L 20.300 19.980 19.000 19.980 L 17.700 19.980 17.516 19.872 C 17.415 19.813,17.284 19.700,17.225 19.623 C 16.986 19.309,17.000 19.795,17.000 12.022 C 17.000 4.005,16.975 4.631,17.304 4.303 C 17.584 4.022,17.675 4.006,18.983 4.003 C 19.878 4.001,20.147 4.012,20.310 4.061 M15.000 12.000 L 15.000 19.000 9.868 19.000 C 4.298 19.000,4.532 19.009,4.083 18.781 C 3.816 18.646,3.449 18.297,3.281 18.017 C 2.990 17.533,3.005 17.862,3.002 12.028 C 3.000 6.217,2.988 6.475,3.265 6.014 C 3.546 5.543,3.988 5.201,4.477 5.073 C 4.719 5.010,5.154 5.004,9.870 5.002 L 15.000 5.000 15.000 12.000 M5.695 7.057 C 5.466 7.129,5.256 7.299,5.128 7.516 L 5.020 7.700 5.020 9.500 L 5.020 11.300 5.131 11.489 C 5.256 11.702,5.449 11.864,5.670 11.943 C 5.891 12.022,12.109 12.022,12.330 11.943 C 12.551 11.864,12.744 11.702,12.869 11.489 L 12.980 11.300 12.980 9.500 L 12.980 7.700 12.872 7.516 C 12.740 7.293,12.533 7.128,12.290 7.055 C 12.030 6.977,5.945 6.979,5.695 7.057 M11.000 9.500 L 11.000 10.000 9.000 10.000 L 7.000 10.000 7.000 9.500 L 7.000 9.000 9.000 9.000 L 11.000 9.000 11.000 9.500 M5.695 13.057 C 5.466 13.129,5.256 13.299,5.128 13.516 C 5.036 13.672,5.020 13.745,5.021 14.000 C 5.022 14.332,5.101 14.533,5.306 14.728 C 5.785 15.181,6.580 15.046,6.893 14.460 C 7.025 14.211,7.015 13.760,6.872 13.516 C 6.628 13.101,6.150 12.915,5.695 13.057 M8.695 13.057 C 8.466 13.129,8.256 13.299,8.128 13.516 C 8.036 13.672,8.020 13.745,8.021 14.000 C 8.022 14.332,8.101 14.533,8.306 14.728 C 8.785 15.181,9.580 15.046,9.893 14.460 C 10.025 14.211,10.015 13.760,9.872 13.516 C 9.628 13.101,9.150 12.915,8.695 13.057 M11.695 13.057 C 11.466 13.129,11.256 13.299,11.128 13.516 C 11.036 13.672,11.020 13.745,11.021 14.000 C 11.022 14.332,11.101 14.533,11.306 14.728 C 11.785 15.181,12.580 15.046,12.893 14.460 C 13.025 14.211,13.015 13.760,12.872 13.516 C 12.628 13.101,12.150 12.915,11.695 13.057 M5.695 16.057 C 5.466 16.129,5.256 16.299,5.128 16.516 C 5.036 16.672,5.020 16.745,5.021 17.000 C 5.022 17.332,5.101 17.533,5.306 17.728 C 5.785 18.181,6.580 18.046,6.893 17.460 C 7.025 17.211,7.015 16.760,6.872 16.516 C 6.628 16.101,6.150 15.915,5.695 16.057 M8.695 16.057 C 8.466 16.129,8.256 16.299,8.128 16.516 C 8.036 16.672,8.020 16.745,8.021 17.000 C 8.022 17.332,8.101 17.533,8.306 17.728 C 8.785 18.181,9.580 18.046,9.893 17.460 C 10.025 17.211,10.015 16.760,9.872 16.516 C 9.628 16.101,9.150 15.915,8.695 16.057 M11.695 16.057 C 11.466 16.129,11.256 16.299,11.128 16.516 C 11.036 16.672,11.020 16.745,11.021 17.000 C 11.022 17.332,11.101 17.533,11.306 17.728 C 11.785 18.181,12.580 18.046,12.893 17.460 C 13.025 17.211,13.015 16.760,12.872 16.516 C 12.628 16.101,12.150 15.915,11.695 16.057 " stroke="none" fill-rule="evenodd" fill="black"></path></svg>