<svg xmlns="http://www.w3.org/2000/svg" width="24" height="24" viewBox="0 0 24 24" fill="none" stroke="currentColor" stroke-width="2" stroke-linecap="round" stroke-linejoin="round"><path d="M8.695 2.057 C 8.466 2.129,8.256 2.299,8.128 2.516 L 8.020 2.700 8.000 3.913 L 7.980 5.126 7.720 5.217 C 6.350 5.697,5.370 6.816,5.083 8.227 C 5.003 8.618,5.000 8.755,5.000 12.000 C 5.000 15.243,5.003 15.382,5.082 15.772 C 5.359 17.128,6.281 18.231,7.540 18.711 C 7.716 18.778,7.891 18.843,7.928 18.854 C 7.989 18.874,7.997 18.990,8.008 20.088 L 8.020 21.300 8.131 21.489 C 8.192 21.592,8.304 21.725,8.381 21.783 C 8.651 21.990,8.711 21.996,10.260 21.998 C 11.693 21.999,11.701 21.999,11.900 21.905 C 12.281 21.724,12.488 21.405,12.488 21.000 C 12.488 20.615,12.293 20.297,11.940 20.106 C 11.792 20.027,11.713 20.019,10.890 20.007 L 10.000 19.995 10.000 19.497 L 10.000 19.000 10.590 18.998 C 10.977 18.997,11.232 18.978,11.330 18.943 C 11.551 18.864,11.744 18.702,11.869 18.489 C 11.964 18.328,11.980 18.256,11.980 18.000 C 11.980 17.746,11.963 17.672,11.872 17.516 C 11.813 17.415,11.698 17.282,11.618 17.221 C 11.352 17.018,11.213 17.000,9.922 17.000 C 8.646 17.000,8.474 16.980,8.083 16.781 C 7.816 16.646,7.449 16.297,7.281 16.017 C 6.999 15.548,7.005 15.636,7.005 12.000 C 7.005 9.047,7.011 8.715,7.073 8.477 C 7.201 7.988,7.543 7.546,8.014 7.265 C 8.459 6.998,8.431 7.000,12.028 7.002 C 15.632 7.005,15.549 6.999,16.017 7.281 C 16.294 7.448,16.618 7.787,16.772 8.071 C 16.994 8.481,16.999 8.555,17.000 11.760 L 17.001 14.700 17.095 14.900 C 17.276 15.281,17.595 15.488,18.000 15.488 C 18.405 15.488,18.724 15.281,18.905 14.900 L 18.999 14.700 19.000 11.666 C 19.000 8.796,18.996 8.612,18.921 8.243 C 18.630 6.816,17.654 5.699,16.280 5.217 L 16.020 5.126 16.000 3.913 L 15.980 2.700 15.872 2.516 C 15.740 2.293,15.533 2.128,15.290 2.055 C 15.030 1.977,8.945 1.979,8.695 2.057 M14.000 4.500 L 14.000 5.000 12.000 5.000 L 10.000 5.000 10.000 4.500 L 10.000 4.000 12.000 4.000 L 14.000 4.000 14.000 4.500 M20.640 16.068 C 20.488 16.121,20.196 16.394,18.731 17.853 L 17.002 19.575 16.271 18.855 C 15.655 18.247,15.509 18.123,15.343 18.067 C 14.865 17.905,14.383 18.083,14.128 18.516 C 14.036 18.672,14.020 18.745,14.021 19.000 C 14.021 19.213,14.043 19.341,14.095 19.440 C 14.197 19.633,16.297 21.740,16.520 21.873 C 16.673 21.964,16.745 21.980,17.000 21.979 C 17.212 21.979,17.341 21.957,17.440 21.905 C 17.632 21.805,21.739 17.705,21.873 17.480 C 21.964 17.328,21.980 17.254,21.980 17.000 C 21.980 16.746,21.963 16.672,21.872 16.516 C 21.617 16.083,21.121 15.903,20.640 16.068 " stroke="none" fill-rule="evenodd" fill="black"></path></svg>