<svg xmlns="http://www.w3.org/2000/svg" width="24" height="24" viewBox="0 0 24 24" fill="none" stroke="currentColor" stroke-width="2" stroke-linecap="round" stroke-linejoin="round"><path d="M2.670 2.061 C 2.448 2.142,2.250 2.309,2.128 2.516 C 2.037 2.672,2.020 2.746,2.020 3.000 C 2.020 3.254,2.036 3.328,2.127 3.480 C 2.186 3.579,2.632 4.056,3.117 4.540 L 4.000 5.419 4.000 12.841 C 4.000 20.937,3.987 20.460,4.225 20.930 C 4.361 21.199,4.801 21.639,5.070 21.775 C 5.538 22.012,5.172 22.000,12.000 22.000 C 18.828 22.000,18.462 22.012,18.930 21.775 C 19.045 21.716,19.264 21.545,19.416 21.393 L 19.692 21.117 20.056 21.473 C 20.520 21.927,20.616 21.978,21.000 21.979 C 21.258 21.980,21.327 21.964,21.492 21.867 C 21.968 21.587,22.139 20.967,21.865 20.508 C 21.810 20.416,17.665 16.243,12.653 11.235 C 4.231 2.820,3.525 2.125,3.343 2.065 C 3.107 1.987,2.874 1.986,2.670 2.061 M6.695 2.057 C 6.466 2.129,6.256 2.299,6.128 2.516 C 6.037 2.672,6.020 2.746,6.020 3.000 C 6.020 3.256,6.036 3.328,6.131 3.489 C 6.256 3.702,6.449 3.864,6.670 3.943 C 6.792 3.987,7.845 3.997,12.409 3.998 L 17.999 4.000 18.009 9.653 L 18.020 15.306 18.141 15.503 C 18.543 16.156,19.457 16.156,19.859 15.503 L 19.980 15.306 19.991 9.552 C 20.002 3.291,20.010 3.534,19.782 3.083 C 19.646 2.816,19.297 2.449,19.017 2.281 C 18.531 1.988,18.918 2.005,12.560 2.005 C 8.011 2.005,6.827 2.016,6.695 2.057 M18.000 19.710 L 18.000 20.000 12.000 20.000 L 6.000 20.000 6.000 13.710 L 6.000 7.420 12.000 13.420 L 18.000 19.420 18.000 19.710 M11.477 15.073 C 10.806 15.249,10.238 15.823,10.060 16.508 C 9.941 16.962,10.003 17.492,10.225 17.930 C 10.361 18.199,10.801 18.639,11.070 18.775 C 11.659 19.073,12.341 19.073,12.930 18.775 C 13.196 18.640,13.638 18.200,13.771 17.937 C 13.994 17.498,14.052 17.007,13.940 16.529 C 13.858 16.182,13.720 15.927,13.465 15.653 C 13.074 15.232,12.560 15.005,12.000 15.005 C 11.857 15.005,11.622 15.036,11.477 15.073 " stroke="none" fill-rule="evenodd" fill="black"></path></svg>