<svg xmlns="http://www.w3.org/2000/svg" width="24" height="24" viewBox="0 0 24 24" fill="none" stroke="currentColor" stroke-width="2" stroke-linecap="round" stroke-linejoin="round"><path d="M5.477 2.073 C 4.806 2.249,4.238 2.823,4.060 3.508 C 4.008 3.707,4.000 4.805,4.000 12.000 C 4.000 21.017,3.986 20.458,4.225 20.930 C 4.361 21.199,4.801 21.639,5.070 21.775 C 5.524 22.005,5.433 22.000,9.218 22.000 L 12.700 21.999 12.900 21.905 C 13.281 21.724,13.488 21.405,13.488 21.000 C 13.488 20.615,13.293 20.297,12.940 20.106 C 12.780 20.020,12.779 20.020,9.390 20.009 L 6.000 19.998 6.000 11.999 L 6.000 4.000 11.999 4.000 L 17.999 4.000 18.009 9.653 L 18.020 15.306 18.141 15.503 C 18.543 16.156,19.457 16.156,19.859 15.503 L 19.980 15.306 19.991 9.552 C 20.002 3.291,20.010 3.534,19.782 3.083 C 19.646 2.816,19.297 2.449,19.017 2.281 C 18.528 1.987,18.983 2.005,12.000 2.005 C 6.211 2.005,5.720 2.010,5.477 2.073 M11.556 15.061 C 11.051 15.184,10.586 15.505,10.327 15.910 C 10.146 16.192,10.000 16.667,10.000 16.969 C 10.000 17.521,10.207 18.015,10.602 18.406 C 11.218 19.015,12.099 19.180,12.619 18.783 C 12.928 18.548,13.077 18.058,12.950 17.695 L 12.893 17.530 13.126 17.465 C 13.397 17.389,13.642 17.191,13.770 16.943 C 13.892 16.706,13.890 16.321,13.765 16.067 C 13.603 15.738,13.273 15.420,12.905 15.239 C 12.419 15.000,12.022 14.948,11.556 15.061 M15.695 18.057 C 15.466 18.129,15.256 18.299,15.128 18.516 C 15.037 18.672,15.020 18.746,15.020 19.000 C 15.020 19.256,15.036 19.328,15.131 19.489 C 15.256 19.702,15.449 19.864,15.670 19.943 C 15.891 20.022,22.109 20.022,22.330 19.943 C 22.551 19.864,22.744 19.702,22.869 19.489 C 22.964 19.328,22.980 19.256,22.980 19.000 C 22.980 18.746,22.963 18.672,22.872 18.516 C 22.740 18.293,22.533 18.128,22.290 18.055 C 22.030 17.977,15.945 17.979,15.695 18.057 " stroke="none" fill-rule="evenodd" fill="black"></path></svg>