<svg xmlns="http://www.w3.org/2000/svg" width="24" height="24" viewBox="0 0 24 24" fill="none" stroke="currentColor" stroke-width="2" stroke-linecap="round" stroke-linejoin="round"><path d="M2.670 2.061 C 2.448 2.142,2.250 2.309,2.128 2.516 C 2.037 2.672,2.020 2.746,2.020 3.000 C 2.020 3.354,2.109 3.538,2.434 3.855 L 2.633 4.051 2.447 4.179 C 2.344 4.249,2.206 4.394,2.140 4.500 L 2.020 4.694 2.010 11.911 C 2.003 16.667,2.013 19.179,2.039 19.278 C 2.099 19.498,2.291 19.739,2.508 19.867 L 2.700 19.980 6.000 19.980 L 9.300 19.980 9.489 19.869 C 9.702 19.744,9.864 19.551,9.943 19.330 C 9.986 19.209,9.997 18.437,9.998 15.301 L 10.000 11.421 10.500 11.920 L 11.000 12.419 11.002 14.299 C 11.003 15.766,11.015 16.213,11.057 16.330 C 11.136 16.551,11.298 16.744,11.511 16.869 L 11.700 16.980 13.640 16.991 L 15.580 17.003 15.790 17.210 L 16.000 17.417 16.000 17.709 L 16.000 18.000 14.946 18.000 C 13.797 18.000,13.644 18.022,13.382 18.221 C 13.302 18.282,13.187 18.415,13.128 18.516 C 13.037 18.672,13.020 18.746,13.020 19.000 C 13.020 19.256,13.036 19.328,13.131 19.489 C 13.256 19.702,13.449 19.864,13.670 19.943 C 13.789 19.985,14.317 19.997,16.200 19.998 L 18.581 20.000 19.460 20.883 C 19.944 21.368,20.421 21.814,20.520 21.873 C 20.672 21.964,20.746 21.980,21.000 21.980 C 21.257 21.980,21.327 21.964,21.492 21.867 C 21.968 21.587,22.139 20.967,21.865 20.508 C 21.810 20.416,17.665 16.243,12.653 11.235 C 4.231 2.820,3.525 2.125,3.343 2.065 C 3.107 1.987,2.874 1.986,2.670 2.061 M6.290 7.710 L 8.000 9.420 8.000 13.710 L 8.000 18.000 6.000 18.000 L 4.000 18.000 4.000 12.000 L 4.000 6.000 4.290 6.000 L 4.580 6.000 6.290 7.710 M12.695 8.057 C 12.466 8.129,12.256 8.299,12.128 8.516 C 12.037 8.672,12.020 8.746,12.020 9.000 C 12.020 9.256,12.036 9.328,12.131 9.489 C 12.256 9.702,12.449 9.864,12.670 9.943 C 12.791 9.986,13.598 9.997,16.910 9.998 L 21.000 10.000 21.000 12.500 L 21.000 15.000 20.446 15.000 C 19.648 15.000,19.367 15.110,19.128 15.516 C 19.037 15.672,19.020 15.746,19.020 16.000 C 19.020 16.257,19.036 16.327,19.133 16.492 C 19.262 16.712,19.502 16.901,19.728 16.962 C 19.826 16.989,20.334 17.000,21.092 16.992 L 22.300 16.980 22.492 16.867 C 22.710 16.739,22.901 16.498,22.961 16.277 C 22.988 16.178,22.998 14.838,22.991 12.413 L 22.980 8.700 22.872 8.516 C 22.740 8.293,22.533 8.128,22.290 8.055 C 22.029 7.976,12.946 7.978,12.695 8.057 M5.695 12.057 C 5.466 12.129,5.256 12.299,5.128 12.516 C 5.036 12.672,5.020 12.745,5.021 13.000 C 5.022 13.332,5.101 13.533,5.306 13.728 C 5.785 14.181,6.580 14.046,6.893 13.460 C 7.025 13.211,7.015 12.760,6.872 12.516 C 6.628 12.101,6.150 11.915,5.695 12.057 M13.300 14.720 L 13.578 15.000 13.289 15.000 L 13.000 15.000 13.000 14.720 C 13.000 14.566,13.005 14.440,13.011 14.440 C 13.017 14.440,13.147 14.566,13.300 14.720 M5.695 15.057 C 5.466 15.129,5.256 15.299,5.128 15.516 C 5.036 15.672,5.020 15.745,5.021 16.000 C 5.022 16.332,5.101 16.533,5.306 16.728 C 5.785 17.181,6.580 17.046,6.893 16.460 C 7.025 16.211,7.015 15.760,6.872 15.516 C 6.628 15.101,6.150 14.915,5.695 15.057 " stroke="none" fill-rule="evenodd" fill="black"></path></svg>