<svg xmlns="http://www.w3.org/2000/svg" width="24" height="24" viewBox="0 0 24 24" fill="none" stroke="currentColor" stroke-width="2" stroke-linecap="round" stroke-linejoin="round"><path d="M8.695 2.057 C 8.466 2.129,8.256 2.299,8.128 2.516 L 8.020 2.700 8.000 3.913 L 7.980 5.126 7.720 5.217 C 6.350 5.697,5.370 6.816,5.083 8.227 C 5.003 8.618,5.000 8.755,5.000 12.000 C 5.000 15.243,5.003 15.382,5.082 15.772 C 5.359 17.128,6.281 18.231,7.540 18.711 C 7.716 18.778,7.891 18.843,7.928 18.854 C 7.989 18.874,7.997 18.990,8.008 20.088 L 8.020 21.300 8.131 21.489 C 8.256 21.702,8.449 21.864,8.670 21.943 C 8.789 21.985,9.326 21.997,11.260 21.998 L 13.700 21.999 13.900 21.905 C 14.281 21.724,14.488 21.405,14.488 21.000 C 14.488 20.615,14.293 20.297,13.940 20.106 C 13.783 20.022,13.740 20.020,11.890 20.009 L 10.000 19.997 10.000 19.499 L 10.000 19.000 11.590 18.998 C 13.300 18.996,13.346 18.991,13.619 18.783 C 13.696 18.725,13.808 18.592,13.869 18.489 C 13.964 18.328,13.980 18.256,13.980 18.000 C 13.980 17.746,13.963 17.672,13.872 17.516 C 13.813 17.415,13.698 17.282,13.618 17.221 C 13.332 17.003,13.294 17.000,10.922 17.000 C 8.562 17.000,8.505 16.996,8.083 16.781 C 7.816 16.646,7.449 16.297,7.281 16.017 C 6.999 15.548,7.005 15.636,7.005 12.000 C 7.005 9.047,7.011 8.715,7.073 8.477 C 7.250 7.801,7.850 7.215,8.522 7.062 C 8.933 6.969,15.067 6.969,15.478 7.062 C 15.956 7.171,16.389 7.485,16.686 7.937 C 16.975 8.378,16.973 8.364,16.998 10.443 L 17.020 12.306 17.141 12.503 C 17.543 13.156,18.457 13.156,18.859 12.503 L 18.980 12.306 18.992 10.477 C 19.002 8.771,18.998 8.621,18.922 8.250 C 18.630 6.816,17.657 5.700,16.280 5.217 L 16.020 5.126 16.000 3.913 L 15.980 2.700 15.872 2.516 C 15.740 2.293,15.533 2.128,15.290 2.055 C 15.030 1.977,8.945 1.979,8.695 2.057 M14.000 4.500 L 14.000 5.000 12.000 5.000 L 10.000 5.000 10.000 4.500 L 10.000 4.000 12.000 4.000 L 14.000 4.000 14.000 4.500 M18.668 15.061 C 18.585 15.092,18.462 15.156,18.395 15.203 C 18.260 15.300,16.136 18.454,16.054 18.680 C 15.893 19.127,16.117 19.673,16.550 19.886 C 16.733 19.977,16.784 19.981,17.930 20.000 L 19.120 20.020 18.600 20.800 C 17.971 21.741,17.914 21.905,18.061 22.322 C 18.284 22.955,18.992 23.187,19.570 22.815 C 19.686 22.741,19.972 22.342,20.805 21.093 C 21.401 20.198,21.917 19.387,21.950 19.289 C 22.074 18.926,21.931 18.460,21.625 18.226 C 21.365 18.028,21.326 18.023,20.070 18.001 L 18.880 17.980 19.383 17.225 C 19.660 16.810,19.912 16.399,19.943 16.310 C 20.212 15.550,19.428 14.782,18.668 15.061 " stroke="none" fill-rule="evenodd" fill="black"></path></svg>