<svg xmlns="http://www.w3.org/2000/svg" width="24" height="24" viewBox="0 0 24 24" fill="none" stroke="currentColor" stroke-width="2" stroke-linecap="round" stroke-linejoin="round"><path d="M2.670 2.061 C 2.448 2.142,2.250 2.309,2.128 2.516 C 2.037 2.672,2.020 2.746,2.020 3.000 C 2.020 3.254,2.036 3.328,2.127 3.480 C 2.186 3.579,2.720 4.144,3.313 4.735 L 4.391 5.810 4.297 5.948 C 4.246 6.024,4.162 6.188,4.112 6.313 L 4.020 6.540 4.009 10.879 C 4.002 13.808,4.012 15.285,4.040 15.422 C 4.148 15.941,4.602 16.538,5.070 16.775 C 5.533 17.009,5.299 17.000,10.659 17.000 L 15.581 17.000 16.080 17.500 L 16.579 18.000 9.736 18.000 C 4.053 18.000,2.862 18.009,2.710 18.055 C 2.467 18.128,2.260 18.293,2.128 18.516 C 2.037 18.672,2.020 18.746,2.020 19.000 C 2.020 19.256,2.036 19.328,2.131 19.489 C 2.256 19.702,2.449 19.864,2.670 19.943 C 2.793 19.987,4.222 19.997,10.700 19.998 L 18.581 20.000 19.460 20.883 C 19.944 21.368,20.421 21.814,20.520 21.873 C 20.672 21.964,20.746 21.980,21.000 21.980 C 21.257 21.980,21.327 21.964,21.492 21.867 C 21.968 21.587,22.139 20.967,21.865 20.508 C 21.810 20.416,17.665 16.243,12.653 11.235 C 4.231 2.820,3.525 2.125,3.343 2.065 C 3.107 1.987,2.874 1.986,2.670 2.061 M9.695 5.057 C 9.466 5.129,9.256 5.299,9.128 5.516 C 9.037 5.672,9.020 5.746,9.020 6.000 C 9.020 6.256,9.036 6.328,9.131 6.489 C 9.256 6.702,9.449 6.864,9.670 6.943 C 9.791 6.986,10.598 6.997,13.909 6.998 L 17.999 7.000 18.009 11.153 L 18.020 15.306 18.141 15.503 C 18.543 16.156,19.457 16.156,19.859 15.503 L 19.980 15.306 19.991 11.052 C 20.002 6.429,20.006 6.527,19.782 6.083 C 19.646 5.816,19.297 5.449,19.017 5.281 C 18.539 4.993,18.744 5.005,14.060 5.005 C 10.738 5.005,9.825 5.016,9.695 5.057 M9.800 11.220 L 13.580 15.000 9.790 15.000 L 6.000 15.000 6.000 11.220 C 6.000 9.141,6.005 7.440,6.010 7.440 C 6.016 7.440,7.721 9.141,9.800 11.220 " stroke="none" fill-rule="evenodd" fill="black"></path></svg>