<svg xmlns="http://www.w3.org/2000/svg" width="24" height="24" viewBox="0 0 24 24" fill="none" stroke="currentColor" stroke-width="2" stroke-linecap="round" stroke-linejoin="round"><path d="M5.477 2.073 C 4.805 2.249,4.238 2.823,4.060 3.508 C 4.008 3.707,4.000 4.805,4.000 12.000 C 4.000 21.017,3.986 20.458,4.225 20.930 C 4.361 21.199,4.801 21.639,5.070 21.775 C 5.538 22.012,5.172 22.000,12.000 22.000 C 18.828 22.000,18.462 22.012,18.930 21.775 C 19.196 21.640,19.638 21.200,19.771 20.937 C 20.014 20.458,20.002 20.864,19.990 13.732 C 19.980 7.489,19.977 7.214,19.906 7.080 C 19.804 6.887,15.140 2.216,14.940 2.107 L 14.780 2.020 10.260 2.012 C 6.091 2.005,5.720 2.009,5.477 2.073 M16.050 5.950 L 18.000 7.900 18.000 13.950 L 18.000 20.000 12.000 20.000 L 6.000 20.000 6.000 12.000 L 6.000 4.000 10.050 4.000 L 14.100 4.000 16.050 5.950 M8.695 10.057 C 8.466 10.129,8.256 10.299,8.128 10.516 C 8.037 10.672,8.020 10.746,8.020 11.000 C 8.020 11.256,8.036 11.328,8.131 11.489 C 8.192 11.592,8.304 11.725,8.381 11.783 C 8.642 11.983,8.738 11.996,9.909 11.998 L 10.998 12.000 11.009 14.653 L 11.020 17.306 11.141 17.503 C 11.543 18.156,12.457 18.156,12.859 17.503 L 12.980 17.306 12.980 14.003 L 12.980 10.700 12.872 10.516 C 12.740 10.293,12.533 10.128,12.290 10.055 C 12.035 9.978,8.941 9.980,8.695 10.057 M14.695 10.057 C 14.466 10.129,14.256 10.299,14.128 10.516 C 14.036 10.672,14.020 10.745,14.021 11.000 C 14.022 11.332,14.101 11.533,14.306 11.728 C 14.785 12.181,15.580 12.046,15.893 11.460 C 16.025 11.211,16.015 10.760,15.872 10.516 C 15.628 10.101,15.150 9.915,14.695 10.057 M8.695 13.057 C 8.466 13.129,8.256 13.299,8.128 13.516 C 8.036 13.672,8.020 13.745,8.021 14.000 C 8.022 14.332,8.101 14.533,8.306 14.728 C 8.785 15.181,9.580 15.046,9.893 14.460 C 10.025 14.211,10.015 13.760,9.872 13.516 C 9.628 13.101,9.150 12.915,8.695 13.057 M14.695 13.057 C 14.466 13.129,14.256 13.299,14.128 13.516 C 14.036 13.672,14.020 13.745,14.021 14.000 C 14.022 14.332,14.101 14.533,14.306 14.728 C 14.785 15.181,15.580 15.046,15.893 14.460 C 16.025 14.211,16.015 13.760,15.872 13.516 C 15.628 13.101,15.150 12.915,14.695 13.057 M8.695 16.057 C 8.466 16.129,8.256 16.299,8.128 16.516 C 8.036 16.672,8.020 16.745,8.021 17.000 C 8.022 17.332,8.101 17.533,8.306 17.728 C 8.785 18.181,9.580 18.046,9.893 17.460 C 10.025 17.211,10.015 16.760,9.872 16.516 C 9.628 16.101,9.150 15.915,8.695 16.057 M14.695 16.057 C 14.466 16.129,14.256 16.299,14.128 16.516 C 14.036 16.672,14.020 16.745,14.021 17.000 C 14.022 17.332,14.101 17.533,14.306 17.728 C 14.785 18.181,15.580 18.046,15.893 17.460 C 16.025 17.211,16.015 16.760,15.872 16.516 C 15.628 16.101,15.150 15.915,14.695 16.057 " stroke="none" fill-rule="evenodd" fill="black"></path></svg>