<svg xmlns="http://www.w3.org/2000/svg" width="24" height="24" viewBox="0 0 24 24" fill="none" stroke="currentColor" stroke-width="2" stroke-linecap="round" stroke-linejoin="round"><path d="M5.477 2.073 C 4.806 2.249,4.238 2.823,4.060 3.508 C 3.969 3.854,3.969 20.146,4.060 20.492 C 4.153 20.852,4.310 21.118,4.596 21.404 C 4.882 21.690,5.148 21.847,5.508 21.940 C 5.830 22.024,12.095 22.027,12.330 21.943 C 12.551 21.864,12.744 21.702,12.869 21.489 C 12.964 21.328,12.980 21.256,12.980 21.000 C 12.980 20.746,12.963 20.672,12.872 20.516 C 12.813 20.415,12.698 20.282,12.618 20.221 C 12.325 19.997,12.367 20.000,9.054 20.000 L 6.000 20.000 6.000 12.000 L 6.000 4.000 11.999 4.000 L 17.999 4.000 18.009 8.653 L 18.020 13.306 18.141 13.503 C 18.543 14.156,19.457 14.156,19.859 13.503 L 19.980 13.306 19.991 8.552 C 20.002 3.383,20.008 3.530,19.782 3.083 C 19.646 2.816,19.297 2.449,19.017 2.281 C 18.528 1.987,18.983 2.005,12.000 2.005 C 6.211 2.005,5.720 2.010,5.477 2.073 M11.560 15.055 C 11.026 15.180,10.523 15.558,10.247 16.040 C 9.903 16.642,9.936 17.495,10.325 18.078 C 10.958 19.025,12.199 19.281,13.113 18.653 C 13.642 18.288,13.737 17.623,13.325 17.155 L 13.169 16.978 13.290 16.859 C 13.608 16.545,13.652 16.002,13.391 15.613 C 13.276 15.441,12.941 15.215,12.651 15.114 C 12.370 15.015,11.849 14.987,11.560 15.055 M16.240 16.037 C 15.794 16.173,15.512 16.546,15.512 17.000 C 15.512 17.405,15.719 17.724,16.100 17.905 C 16.296 17.997,16.324 17.999,17.439 18.000 L 18.579 18.000 16.874 19.710 C 15.936 20.651,15.138 21.481,15.101 21.555 C 14.872 22.010,15.056 22.601,15.508 22.867 C 15.673 22.964,15.742 22.980,16.000 22.979 C 16.212 22.979,16.341 22.957,16.440 22.905 C 16.517 22.865,17.350 22.064,18.290 21.126 L 20.000 19.421 20.000 20.561 C 20.001 21.676,20.003 21.704,20.095 21.900 C 20.276 22.281,20.595 22.488,21.000 22.488 C 21.405 22.488,21.724 22.281,21.905 21.900 L 21.999 21.700 21.999 19.240 L 21.999 16.780 21.905 16.580 C 21.791 16.340,21.642 16.193,21.400 16.083 C 21.225 16.004,21.152 16.002,18.780 16.004 C 17.438 16.006,16.295 16.021,16.240 16.037 " stroke="none" fill-rule="evenodd" fill="black"></path></svg>