<svg xmlns="http://www.w3.org/2000/svg" width="24" height="24" viewBox="0 0 24 24" fill="none" stroke="currentColor" stroke-width="2" stroke-linecap="round" stroke-linejoin="round"><path d="M3.477 3.073 C 2.806 3.249,2.238 3.823,2.060 4.508 C 2.008 4.705,2.000 5.464,2.000 10.000 C 2.000 15.733,1.990 15.466,2.225 15.930 C 2.361 16.199,2.801 16.639,3.070 16.775 C 3.506 16.996,3.557 17.000,5.868 17.000 L 8.000 17.000 8.000 18.000 L 8.000 19.000 7.446 19.000 C 6.648 19.000,6.367 19.110,6.128 19.516 C 6.037 19.672,6.020 19.746,6.020 20.000 C 6.020 20.256,6.036 20.328,6.131 20.489 C 6.256 20.702,6.449 20.864,6.670 20.943 C 6.890 21.021,12.110 21.021,12.330 20.943 C 12.551 20.864,12.744 20.702,12.869 20.489 C 12.964 20.328,12.980 20.256,12.980 20.000 C 12.980 19.746,12.963 19.672,12.872 19.516 C 12.813 19.415,12.698 19.282,12.618 19.221 C 12.356 19.022,12.203 19.000,11.054 19.000 L 10.000 19.000 10.000 18.000 L 10.000 17.000 11.350 17.000 C 12.687 16.999,12.702 16.998,12.900 16.905 C 13.281 16.724,13.488 16.405,13.488 16.000 C 13.488 15.615,13.293 15.297,12.940 15.106 L 12.780 15.020 8.390 15.009 L 4.000 14.999 4.000 9.999 L 4.000 5.000 12.000 5.000 L 20.000 5.000 20.000 8.850 L 20.001 12.700 20.095 12.900 C 20.276 13.281,20.595 13.488,21.000 13.488 C 21.405 13.488,21.724 13.281,21.905 12.900 L 21.999 12.700 21.999 8.740 C 21.999 4.451,22.002 4.518,21.781 4.083 C 21.646 3.816,21.297 3.449,21.017 3.281 C 20.523 2.983,21.217 3.005,12.000 3.005 C 4.321 3.005,3.721 3.009,3.477 3.073 M18.358 15.061 C 17.230 15.237,16.143 15.974,15.569 16.953 C 14.320 19.083,15.233 21.785,17.512 22.704 C 19.558 23.528,21.877 22.538,22.704 20.488 C 23.090 19.530,23.090 18.469,22.705 17.516 C 22.172 16.197,21.001 15.269,19.605 15.058 C 19.144 14.989,18.816 14.990,18.358 15.061 M19.470 17.057 C 19.485 17.071,18.954 17.626,18.290 18.290 C 17.626 18.954,17.072 19.486,17.059 19.472 C 17.045 19.459,17.024 19.314,17.012 19.150 C 16.940 18.202,17.563 17.318,18.477 17.071 C 18.735 17.001,19.405 16.991,19.470 17.057 M20.982 18.784 C 21.047 19.396,20.844 19.961,20.398 20.410 C 20.104 20.705,19.779 20.885,19.404 20.963 C 19.181 21.010,18.584 20.997,18.532 20.945 C 18.504 20.918,20.872 18.520,20.927 18.520 C 20.941 18.520,20.966 18.639,20.982 18.784 " stroke="none" fill-rule="evenodd" fill="black"></path></svg>