<svg xmlns="http://www.w3.org/2000/svg" width="24" height="24" viewBox="0 0 24 24" fill="none" stroke="currentColor" stroke-width="2" stroke-linecap="round" stroke-linejoin="round"><path d="M7.499 2.043 C 6.379 2.234,5.461 3.048,5.114 4.160 L 5.020 4.460 5.020 12.000 L 5.020 19.540 5.114 19.840 C 5.419 20.816,6.153 21.558,7.140 21.885 C 7.416 21.976,7.448 21.978,9.538 21.991 C 11.907 22.006,11.854 22.012,12.173 21.724 C 12.381 21.536,12.488 21.292,12.488 21.003 C 12.488 20.615,12.294 20.298,11.940 20.106 C 11.783 20.022,11.736 20.020,9.740 20.000 L 7.700 19.980 7.516 19.872 C 7.415 19.813,7.284 19.700,7.225 19.623 C 6.986 19.309,7.000 19.795,7.000 12.022 C 7.000 4.006,6.975 4.631,7.303 4.303 C 7.584 4.022,7.703 4.000,8.943 4.000 L 9.991 4.000 10.018 4.179 C 10.054 4.422,10.258 4.712,10.497 4.859 L 10.694 4.980 12.000 4.980 L 13.306 4.980 13.503 4.859 C 13.742 4.712,13.946 4.422,13.982 4.179 L 14.009 4.000 15.057 4.000 C 16.275 4.000,16.411 4.024,16.679 4.283 C 17.003 4.598,16.978 4.224,17.000 9.023 L 17.020 13.306 17.141 13.503 C 17.543 14.156,18.457 14.156,18.859 13.503 L 18.980 13.306 18.980 8.883 L 18.980 4.460 18.886 4.160 C 18.581 3.182,17.832 2.428,16.861 2.121 L 16.540 2.020 12.120 2.014 C 9.689 2.011,7.609 2.024,7.499 2.043 M11.695 16.057 C 11.466 16.129,11.256 16.299,11.128 16.516 C 11.036 16.672,11.020 16.745,11.021 17.000 C 11.022 17.332,11.101 17.533,11.306 17.728 C 11.785 18.181,12.580 18.046,12.893 17.460 C 13.025 17.211,13.015 16.760,12.872 16.516 C 12.628 16.101,12.150 15.915,11.695 16.057 M16.640 16.069 C 16.492 16.121,16.265 16.325,15.347 17.236 C 14.734 17.843,14.185 18.421,14.127 18.520 C 14.037 18.672,14.020 18.747,14.020 19.000 C 14.020 19.254,14.036 19.328,14.127 19.480 C 14.260 19.703,16.367 21.803,16.560 21.905 C 16.659 21.957,16.787 21.979,17.000 21.979 C 17.258 21.980,17.327 21.964,17.492 21.867 C 17.714 21.737,17.901 21.498,17.965 21.264 C 18.019 21.061,17.989 20.733,17.899 20.555 C 17.861 20.481,17.514 20.101,17.127 19.710 L 16.423 19.000 17.127 18.290 C 17.514 17.899,17.864 17.517,17.904 17.440 C 17.957 17.340,17.979 17.213,17.979 17.000 C 17.980 16.745,17.964 16.672,17.872 16.516 C 17.617 16.083,17.120 15.902,16.640 16.069 M19.670 16.061 C 19.448 16.142,19.250 16.309,19.128 16.516 C 19.036 16.672,19.020 16.745,19.021 17.000 C 19.021 17.213,19.043 17.340,19.096 17.440 C 19.136 17.517,19.486 17.899,19.873 18.290 L 20.577 19.000 19.873 19.710 C 19.486 20.101,19.139 20.481,19.101 20.555 C 18.872 21.008,19.056 21.601,19.508 21.867 C 19.673 21.964,19.742 21.980,20.000 21.979 C 20.213 21.979,20.341 21.957,20.440 21.905 C 20.633 21.803,22.740 19.703,22.873 19.480 C 22.964 19.328,22.980 19.254,22.980 19.000 C 22.980 18.747,22.963 18.672,22.873 18.520 C 22.815 18.421,22.266 17.843,21.653 17.236 C 20.680 16.271,20.515 16.124,20.343 16.066 C 20.108 15.987,19.875 15.985,19.670 16.061 " stroke="none" fill-rule="evenodd" fill="black"></path></svg>