<svg xmlns="http://www.w3.org/2000/svg" width="24" height="24" viewBox="0 0 24 24" fill="none" stroke="currentColor" stroke-width="2" stroke-linecap="round" stroke-linejoin="round"><path d="M2.670 2.061 C 2.448 2.142,2.250 2.309,2.128 2.516 C 2.037 2.672,2.020 2.746,2.020 3.000 C 2.020 3.403,2.095 3.521,2.793 4.215 L 3.351 4.770 3.237 5.015 C 2.979 5.570,2.929 6.150,3.092 6.705 C 3.143 6.878,3.575 8.128,4.052 9.482 C 4.530 10.837,4.920 11.972,4.920 12.005 C 4.920 12.037,4.495 13.287,3.976 14.782 C 3.075 17.375,3.030 17.517,3.011 17.860 C 2.986 18.293,3.053 18.602,3.268 19.040 C 3.533 19.583,4.306 20.270,5.104 20.672 C 6.077 21.161,7.592 21.600,9.000 21.801 C 10.725 22.046,12.919 22.060,14.680 21.837 C 16.238 21.639,17.853 21.198,18.835 20.703 L 19.131 20.554 19.775 21.192 C 20.130 21.543,20.483 21.864,20.560 21.904 C 20.660 21.957,20.786 21.979,21.000 21.979 C 21.258 21.980,21.327 21.964,21.492 21.867 C 21.968 21.587,22.139 20.967,21.865 20.508 C 21.810 20.416,17.665 16.243,12.653 11.235 C 4.231 2.820,3.525 2.125,3.343 2.065 C 3.107 1.987,2.874 1.986,2.670 2.061 M10.700 2.040 C 9.223 2.136,7.462 2.425,7.040 2.640 C 6.626 2.851,6.426 3.376,6.580 3.841 C 6.702 4.208,7.118 4.520,7.486 4.520 C 7.547 4.520,7.836 4.467,8.128 4.402 C 9.382 4.125,10.419 4.024,12.020 4.023 C 13.657 4.022,14.872 4.148,16.063 4.441 C 17.471 4.787,18.687 5.384,18.939 5.853 C 19.018 5.999,19.018 6.001,18.940 6.146 C 18.781 6.441,18.187 6.832,17.463 7.119 C 16.300 7.580,15.011 7.841,13.309 7.959 C 12.667 8.004,12.532 8.041,12.305 8.241 C 11.775 8.707,11.901 9.571,12.545 9.882 C 12.765 9.989,13.174 9.993,14.116 9.899 C 15.497 9.761,16.616 9.533,17.701 9.166 C 17.832 9.122,17.944 9.090,17.949 9.096 C 17.955 9.101,17.742 9.726,17.476 10.483 C 17.211 11.240,16.986 11.882,16.978 11.910 C 16.970 11.937,16.859 12.025,16.731 12.105 C 16.290 12.383,16.131 12.601,16.092 12.979 C 16.051 13.374,16.269 13.771,16.617 13.938 C 16.953 14.100,17.062 14.102,17.554 13.956 C 17.591 13.945,17.673 14.126,17.824 14.560 C 18.157 15.512,18.162 15.524,18.330 15.706 C 18.500 15.891,18.824 16.040,19.054 16.040 C 19.420 16.040,19.811 15.778,19.959 15.435 C 20.109 15.085,20.075 14.917,19.547 13.403 C 19.290 12.668,19.080 12.038,19.080 12.003 C 19.080 11.968,19.486 10.788,19.981 9.380 C 20.477 7.972,20.909 6.718,20.941 6.594 C 21.017 6.302,21.016 5.801,20.939 5.498 C 20.819 5.026,20.618 4.692,20.203 4.277 C 19.992 4.067,19.712 3.825,19.581 3.739 C 18.442 2.998,16.843 2.464,14.980 2.202 C 13.855 2.044,11.822 1.967,10.700 2.040 M6.620 9.270 C 6.862 9.345,7.330 9.468,7.659 9.543 L 8.258 9.679 9.919 11.343 L 11.580 13.008 11.120 12.982 C 9.777 12.906,8.605 12.683,7.738 12.339 C 7.429 12.216,7.045 11.986,7.022 11.910 C 7.005 11.856,6.083 9.218,6.047 9.123 C 6.031 9.080,6.045 9.074,6.103 9.099 C 6.145 9.117,6.378 9.194,6.620 9.270 M7.440 14.359 C 8.193 14.610,9.181 14.812,10.180 14.920 C 10.738 14.981,12.573 15.013,13.089 14.972 L 13.518 14.938 15.580 17.000 L 17.642 19.063 17.231 19.210 C 13.862 20.422,8.348 20.211,5.807 18.772 C 5.434 18.561,5.058 18.225,5.018 18.067 C 4.999 17.989,5.165 17.462,5.661 16.031 C 6.030 14.969,6.346 14.060,6.364 14.012 C 6.397 13.924,6.397 13.924,6.728 14.078 C 6.911 14.163,7.231 14.289,7.440 14.359 " stroke="none" fill-rule="evenodd" fill="black"></path></svg>