<svg xmlns="http://www.w3.org/2000/svg" width="24" height="24" viewBox="0 0 24 24" fill="none" stroke="currentColor" stroke-width="2" stroke-linecap="round" stroke-linejoin="round"><path d="M2.580 2.095 C 2.340 2.209,2.193 2.358,2.083 2.600 C 2.004 2.774,2.002 2.851,2.003 4.980 C 2.003 6.715,2.015 7.212,2.057 7.330 C 2.136 7.551,2.298 7.744,2.511 7.869 L 2.700 7.980 4.640 7.991 L 6.580 8.002 7.790 9.211 L 9.000 10.420 9.002 12.300 C 9.003 13.766,9.015 14.213,9.057 14.330 C 9.136 14.551,9.298 14.744,9.511 14.869 L 9.700 14.980 11.640 14.991 L 13.580 15.002 17.000 18.417 C 18.881 20.295,20.483 21.865,20.560 21.905 C 20.659 21.957,20.788 21.979,21.000 21.979 C 21.258 21.980,21.327 21.964,21.492 21.867 C 21.714 21.737,21.901 21.498,21.965 21.264 C 22.019 21.062,21.989 20.734,21.899 20.555 C 21.863 20.481,17.734 16.319,12.726 11.306 C 5.303 3.877,3.583 2.174,3.420 2.096 C 3.152 1.968,2.849 1.968,2.580 2.095 M9.695 2.057 C 9.466 2.129,9.256 2.299,9.128 2.516 L 9.020 2.700 9.020 4.503 L 9.020 6.306 9.141 6.503 C 9.287 6.740,9.577 6.946,9.817 6.982 C 9.988 7.007,9.993 7.012,10.018 7.183 C 10.054 7.423,10.260 7.713,10.497 7.859 L 10.694 7.980 12.497 7.980 L 14.300 7.980 14.492 7.867 C 14.711 7.739,14.901 7.498,14.961 7.275 C 14.988 7.176,14.999 6.337,14.991 4.911 L 14.980 2.700 14.872 2.516 C 14.740 2.293,14.533 2.128,14.290 2.055 C 14.033 1.978,9.943 1.979,9.695 2.057 M16.695 2.057 C 16.466 2.129,16.256 2.299,16.128 2.516 L 16.020 2.700 16.020 5.000 L 16.020 7.300 16.131 7.489 C 16.256 7.702,16.449 7.864,16.670 7.943 C 16.889 8.021,21.111 8.021,21.330 7.943 C 21.551 7.864,21.744 7.702,21.869 7.489 L 21.980 7.300 21.980 5.000 L 21.980 2.700 21.872 2.516 C 21.740 2.293,21.533 2.128,21.290 2.055 C 21.033 1.978,16.943 1.979,16.695 2.057 M13.000 5.000 L 13.000 6.000 12.000 6.000 L 11.000 6.000 11.000 5.000 L 11.000 4.000 12.000 4.000 L 13.000 4.000 13.000 5.000 M20.000 5.000 L 20.000 6.000 19.000 6.000 L 18.000 6.000 18.000 5.000 L 18.000 4.000 19.000 4.000 L 20.000 4.000 20.000 5.000 M4.300 5.720 L 4.578 6.000 4.289 6.000 L 4.000 6.000 4.000 5.720 C 4.000 5.566,4.005 5.440,4.011 5.440 C 4.017 5.440,4.147 5.566,4.300 5.720 M2.695 9.057 C 2.466 9.129,2.256 9.299,2.128 9.516 L 2.020 9.700 2.020 12.000 L 2.020 14.300 2.131 14.489 C 2.256 14.702,2.449 14.864,2.670 14.943 C 2.889 15.021,7.111 15.021,7.330 14.943 C 7.551 14.864,7.744 14.702,7.869 14.489 L 7.980 14.300 7.980 12.000 L 7.980 9.700 7.872 9.516 C 7.740 9.293,7.533 9.128,7.290 9.055 C 7.033 8.978,2.943 8.979,2.695 9.057 M16.695 9.057 C 16.466 9.129,16.256 9.299,16.128 9.516 L 16.020 9.700 16.020 11.503 L 16.020 13.306 16.141 13.503 C 16.287 13.740,16.577 13.946,16.817 13.982 C 16.988 14.007,16.993 14.012,17.018 14.183 C 17.054 14.423,17.260 14.713,17.497 14.859 L 17.694 14.980 19.497 14.980 L 21.300 14.980 21.492 14.867 C 21.711 14.739,21.901 14.498,21.961 14.275 C 21.988 14.176,21.999 13.337,21.991 11.911 L 21.980 9.700 21.872 9.516 C 21.740 9.293,21.533 9.128,21.290 9.055 C 21.033 8.978,16.943 8.979,16.695 9.057 M6.000 12.000 L 6.000 13.000 5.000 13.000 L 4.000 13.000 4.000 12.000 L 4.000 11.000 5.000 11.000 L 6.000 11.000 6.000 12.000 M20.000 12.000 L 20.000 13.000 19.000 13.000 L 18.000 13.000 18.000 12.000 L 18.000 11.000 19.000 11.000 L 20.000 11.000 20.000 12.000 M11.300 12.720 L 11.578 13.000 11.289 13.000 L 11.000 13.000 11.000 12.720 C 11.000 12.566,11.005 12.440,11.011 12.440 C 11.017 12.440,11.147 12.566,11.300 12.720 M9.695 16.057 C 9.466 16.129,9.256 16.299,9.128 16.516 L 9.020 16.700 9.020 19.000 L 9.020 21.300 9.131 21.489 C 9.256 21.702,9.449 21.864,9.670 21.943 C 9.889 22.021,14.111 22.021,14.330 21.943 C 14.551 21.864,14.744 21.702,14.869 21.489 L 14.980 21.300 14.980 19.000 L 14.980 16.700 14.872 16.516 C 14.740 16.293,14.533 16.128,14.290 16.055 C 14.033 15.978,9.943 15.979,9.695 16.057 M13.000 19.000 L 13.000 20.000 12.000 20.000 L 11.000 20.000 11.000 19.000 L 11.000 18.000 12.000 18.000 L 13.000 18.000 13.000 19.000 " stroke="none" fill-rule="evenodd" fill="black"></path></svg>