<svg xmlns="http://www.w3.org/2000/svg" width="24" height="24" viewBox="0 0 24 24" fill="none" stroke="currentColor" stroke-width="2" stroke-linecap="round" stroke-linejoin="round"><path d="M2.670 2.061 C 2.448 2.142,2.250 2.309,2.128 2.516 C 2.036 2.672,2.020 2.745,2.021 3.000 C 2.021 3.213,2.043 3.341,2.095 3.440 C 2.136 3.517,2.662 4.075,3.264 4.681 L 4.359 5.781 3.254 7.621 C 2.645 8.632,2.113 9.550,2.070 9.660 C 1.971 9.914,1.991 10.208,2.123 10.455 C 2.208 10.613,10.339 19.748,10.788 20.190 C 11.149 20.545,11.508 20.694,12.000 20.694 C 12.470 20.694,12.811 20.560,13.167 20.235 C 13.248 20.161,13.867 19.479,14.542 18.720 C 15.218 17.961,15.786 17.323,15.806 17.301 C 15.828 17.277,16.717 18.136,18.131 19.547 C 19.390 20.804,20.483 21.865,20.560 21.905 C 20.659 21.957,20.788 21.979,21.000 21.979 C 21.258 21.980,21.327 21.964,21.492 21.867 C 21.968 21.587,22.139 20.967,21.865 20.508 C 21.810 20.416,17.665 16.243,12.653 11.235 C 4.231 2.820,3.525 2.125,3.343 2.065 C 3.107 1.987,2.874 1.986,2.670 2.061 M8.695 4.057 C 8.465 4.129,8.256 4.299,8.128 4.516 C 8.037 4.672,8.020 4.746,8.020 5.000 C 8.020 5.256,8.036 5.328,8.131 5.489 C 8.256 5.702,8.449 5.864,8.670 5.943 C 8.792 5.986,9.633 5.997,13.124 5.998 L 17.428 6.000 18.595 7.944 L 19.761 9.888 19.306 10.394 C 17.586 12.310,16.974 12.999,16.878 13.131 C 16.718 13.349,16.662 13.621,16.720 13.898 C 16.874 14.642,17.826 14.946,18.368 14.424 C 18.715 14.090,21.796 10.605,21.876 10.457 C 21.993 10.239,22.027 9.943,21.959 9.735 C 21.887 9.511,18.845 4.449,18.689 4.292 C 18.397 3.999,18.793 4.021,13.560 4.012 C 9.791 4.006,8.827 4.015,8.695 4.057 M7.249 9.105 C 7.161 9.256,7.066 9.450,7.040 9.535 C 6.973 9.744,7.008 10.040,7.124 10.257 C 7.177 10.355,7.704 10.967,8.296 11.617 C 9.513 12.953,9.546 12.980,10.023 12.980 C 10.268 12.980,10.333 12.964,10.503 12.859 C 10.611 12.792,10.756 12.655,10.824 12.553 L 10.949 12.368 12.679 14.099 C 13.930 15.350,14.401 15.846,14.377 15.885 C 14.310 15.996,12.032 18.520,11.999 18.520 C 11.981 18.520,10.295 16.652,8.253 14.370 C 6.211 12.088,4.472 10.144,4.387 10.052 L 4.233 9.884 5.027 8.562 L 5.820 7.240 6.615 8.035 L 7.410 8.830 7.249 9.105 " stroke="none" fill-rule="evenodd" fill="black"></path></svg>