<svg xmlns="http://www.w3.org/2000/svg" width="24" height="24" viewBox="0 0 24 24" fill="none" stroke="currentColor" stroke-width="2" stroke-linecap="round" stroke-linejoin="round"><path d="M5.240 4.042 C 3.957 4.179,2.763 5.087,2.280 6.293 C 2.015 6.955,2.020 6.896,2.020 9.540 C 2.020 12.186,2.029 12.322,2.285 13.359 C 2.734 15.180,3.614 16.740,4.938 18.061 C 6.189 19.310,7.585 20.132,9.281 20.620 C 10.866 21.077,12.649 21.120,14.260 20.740 C 16.114 20.304,17.709 19.414,19.062 18.062 C 20.620 16.504,21.553 14.647,21.907 12.400 C 21.972 11.992,21.980 11.664,21.979 9.520 C 21.979 7.145,21.977 7.094,21.890 6.787 C 21.644 5.914,21.095 5.132,20.387 4.645 C 20.109 4.453,19.581 4.213,19.220 4.112 L 18.900 4.023 12.220 4.017 C 8.546 4.013,5.405 4.024,5.240 4.042 M18.623 6.043 C 19.431 6.191,20.000 6.921,20.000 7.807 L 20.000 8.000 18.446 8.000 C 16.758 8.000,16.658 8.011,16.382 8.221 C 16.302 8.282,16.187 8.415,16.128 8.516 C 16.037 8.672,16.020 8.746,16.020 9.000 C 16.020 9.256,16.036 9.328,16.131 9.489 C 16.192 9.592,16.304 9.725,16.381 9.783 C 16.654 9.991,16.700 9.996,18.410 9.998 L 20.000 10.000 20.000 10.514 L 20.000 11.029 19.712 11.055 C 18.967 11.125,18.161 11.361,17.380 11.741 C 16.560 12.139,15.905 12.613,15.299 13.245 C 13.936 14.668,13.240 16.439,13.240 18.484 L 13.240 18.914 12.970 18.947 C 12.822 18.965,12.385 18.980,12.000 18.980 C 11.615 18.980,11.178 18.965,11.030 18.947 L 10.760 18.914 10.760 18.484 C 10.760 15.866,9.574 13.620,7.440 12.194 C 6.572 11.614,5.280 11.147,4.288 11.055 L 4.000 11.029 4.000 10.514 L 4.000 10.000 5.590 9.998 C 7.300 9.996,7.346 9.991,7.619 9.783 C 7.696 9.725,7.808 9.592,7.869 9.489 C 7.964 9.328,7.980 9.256,7.980 9.000 C 7.980 8.746,7.963 8.672,7.872 8.516 C 7.813 8.415,7.698 8.282,7.618 8.221 C 7.342 8.011,7.242 8.000,5.554 8.000 L 4.000 8.000 4.000 7.807 C 4.000 6.943,4.541 6.225,5.320 6.055 C 5.620 5.989,18.269 5.979,18.623 6.043 M4.944 13.222 C 6.740 13.741,8.162 15.246,8.600 17.091 C 8.676 17.409,8.767 18.235,8.732 18.278 C 8.681 18.341,7.613 17.717,7.100 17.326 C 6.761 17.066,6.075 16.394,5.789 16.040 C 5.148 15.247,4.502 14.005,4.304 13.185 C 4.276 13.070,4.276 13.069,4.432 13.094 C 4.517 13.108,4.748 13.165,4.944 13.222 M19.695 13.190 C 19.625 13.481,19.409 14.030,19.179 14.506 C 18.550 15.804,17.547 16.936,16.320 17.731 C 15.966 17.960,15.294 18.310,15.268 18.278 C 15.260 18.268,15.268 18.075,15.285 17.850 C 15.441 15.851,16.747 14.107,18.651 13.356 C 18.909 13.254,19.508 13.087,19.631 13.083 C 19.710 13.080,19.718 13.094,19.695 13.190 " stroke="none" fill-rule="evenodd" fill="black"></path></svg>