<svg xmlns="http://www.w3.org/2000/svg" width="24" height="24" viewBox="0 0 24 24" fill="none" stroke="currentColor" stroke-width="2" stroke-linecap="round" stroke-linejoin="round"><path d="M4.640 2.069 C 4.491 2.121,4.262 2.328,3.325 3.256 C 2.078 4.491,2.001 4.593,2.001 5.000 C 2.001 5.405,2.080 5.510,3.306 6.726 C 3.919 7.334,4.483 7.864,4.560 7.905 C 4.659 7.957,4.787 7.979,5.000 7.979 C 5.258 7.980,5.327 7.964,5.492 7.867 C 5.842 7.662,6.029 7.295,5.988 6.895 C 5.961 6.632,5.879 6.477,5.629 6.212 L 5.428 6.000 8.500 6.000 L 11.572 6.000 11.371 6.212 C 11.076 6.524,11.022 6.646,11.021 7.000 C 11.020 7.258,11.036 7.327,11.133 7.492 C 11.263 7.714,11.502 7.901,11.736 7.965 C 11.939 8.019,12.267 7.989,12.445 7.899 C 12.519 7.862,13.081 7.334,13.694 6.726 C 14.920 5.510,14.999 5.405,14.999 5.000 C 14.999 4.593,14.922 4.491,13.675 3.256 C 12.683 2.273,12.515 2.124,12.343 2.066 C 11.864 1.905,11.382 2.084,11.128 2.516 C 11.036 2.672,11.020 2.745,11.021 3.000 C 11.022 3.354,11.076 3.476,11.371 3.788 L 11.572 4.000 8.500 4.000 L 5.428 4.000 5.629 3.788 C 5.924 3.476,5.978 3.354,5.979 3.000 C 5.980 2.745,5.964 2.672,5.872 2.516 C 5.617 2.083,5.120 1.902,4.640 2.069 M4.499 9.042 C 3.378 9.234,2.461 10.048,2.114 11.160 L 2.020 11.460 2.020 15.500 L 2.020 19.540 2.114 19.840 C 2.422 20.827,3.173 21.578,4.160 21.886 L 4.460 21.980 8.500 21.980 L 12.540 21.980 12.840 21.886 C 13.827 21.578,14.578 20.827,14.886 19.840 L 14.980 19.540 14.980 15.500 L 14.980 11.460 14.886 11.160 C 14.581 10.182,13.831 9.427,12.861 9.121 L 12.540 9.020 8.620 9.014 C 6.464 9.011,4.609 9.024,4.499 9.042 M18.580 9.096 C 18.427 9.169,18.118 9.455,17.274 10.306 C 16.666 10.919,16.136 11.483,16.095 11.560 C 16.043 11.659,16.021 11.787,16.021 12.000 C 16.020 12.258,16.036 12.327,16.133 12.492 C 16.338 12.842,16.705 13.029,17.105 12.988 C 17.368 12.961,17.523 12.879,17.788 12.629 L 18.000 12.428 18.000 15.498 L 18.000 18.567 17.756 18.346 C 17.395 18.019,17.054 17.928,16.684 18.058 C 16.450 18.141,16.253 18.303,16.128 18.516 C 16.036 18.672,16.020 18.745,16.021 19.000 C 16.021 19.213,16.043 19.341,16.095 19.440 C 16.136 19.517,16.666 20.081,17.274 20.694 C 18.490 21.920,18.595 21.999,19.000 21.999 C 19.405 21.999,19.510 21.920,20.726 20.694 C 21.334 20.081,21.864 19.517,21.905 19.440 C 21.957 19.341,21.979 19.213,21.979 19.000 C 21.980 18.745,21.964 18.672,21.872 18.516 C 21.747 18.303,21.550 18.141,21.316 18.058 C 20.946 17.928,20.605 18.019,20.244 18.346 L 20.000 18.567 20.000 15.498 L 20.000 12.428 20.212 12.629 C 20.477 12.879,20.632 12.961,20.895 12.988 C 21.295 13.029,21.662 12.842,21.867 12.492 C 21.964 12.327,21.980 12.258,21.979 12.000 C 21.979 11.787,21.957 11.659,21.905 11.560 C 21.864 11.483,21.334 10.919,20.726 10.306 C 19.510 9.080,19.405 9.001,19.000 9.001 C 18.851 9.001,18.715 9.031,18.580 9.096 M12.310 11.061 C 12.589 11.144,12.856 11.411,12.939 11.690 C 12.992 11.866,13.000 12.389,13.000 15.501 C 13.000 19.415,13.005 19.321,12.779 19.618 C 12.718 19.698,12.585 19.813,12.484 19.872 L 12.300 19.980 8.500 19.980 L 4.700 19.980 4.516 19.872 C 4.303 19.747,4.141 19.550,4.058 19.316 C 3.969 19.062,3.971 11.991,4.061 11.690 C 4.140 11.421,4.412 11.143,4.673 11.063 C 4.961 10.974,12.012 10.972,12.310 11.061 " stroke="none" fill-rule="evenodd" fill="black"></path></svg>