<svg xmlns="http://www.w3.org/2000/svg" width="24" height="24" viewBox="0 0 24 24" fill="none" stroke="currentColor" stroke-width="2" stroke-linecap="round" stroke-linejoin="round"><path d="M2.670 2.061 C 2.448 2.142,2.250 2.309,2.128 2.516 C 2.036 2.672,2.020 2.745,2.021 3.000 C 2.021 3.212,2.043 3.341,2.095 3.440 C 2.135 3.517,3.254 4.669,4.581 6.000 L 6.993 8.420 7.007 8.860 C 7.019 9.255,7.032 9.319,7.131 9.489 C 7.350 9.861,7.631 9.996,8.200 9.998 L 8.581 10.000 9.579 10.999 L 10.577 11.998 8.158 12.009 C 5.867 12.019,5.732 12.024,5.580 12.097 C 5.377 12.195,3.275 14.271,3.127 14.520 C 3.037 14.672,3.020 14.746,3.020 15.000 C 3.020 15.253,3.037 15.328,3.127 15.480 C 3.185 15.579,3.734 16.157,4.347 16.764 C 5.320 17.729,5.485 17.876,5.657 17.934 C 5.832 17.993,6.140 18.000,8.427 18.000 L 11.000 18.000 11.000 19.000 L 11.000 20.000 10.446 20.000 C 9.648 20.000,9.367 20.110,9.128 20.516 C 9.037 20.672,9.020 20.746,9.020 21.000 C 9.020 21.256,9.036 21.328,9.131 21.489 C 9.256 21.702,9.449 21.864,9.670 21.943 C 9.889 22.021,14.111 22.021,14.330 21.943 C 14.551 21.864,14.744 21.702,14.869 21.489 C 14.964 21.328,14.980 21.256,14.980 21.000 C 14.980 20.746,14.963 20.672,14.872 20.516 C 14.633 20.110,14.352 20.000,13.554 20.000 L 13.000 20.000 13.000 19.000 L 13.000 18.000 13.590 17.998 C 13.977 17.997,14.232 17.978,14.330 17.943 C 14.551 17.864,14.744 17.702,14.869 17.489 C 14.967 17.320,14.981 17.253,14.994 16.865 L 15.009 16.430 17.715 19.131 C 19.203 20.616,20.483 21.865,20.560 21.905 C 20.659 21.957,20.788 21.979,21.000 21.979 C 21.258 21.980,21.327 21.964,21.492 21.867 C 21.968 21.587,22.139 20.967,21.865 20.508 C 21.810 20.416,17.665 16.243,12.653 11.235 C 4.231 2.820,3.525 2.125,3.343 2.065 C 3.107 1.987,2.874 1.986,2.670 2.061 M11.695 2.057 C 11.466 2.129,11.256 2.299,11.128 2.516 C 11.025 2.692,11.019 2.728,11.007 3.350 L 10.993 4.000 9.943 4.000 C 8.797 4.000,8.643 4.022,8.382 4.221 C 8.302 4.282,8.187 4.415,8.128 4.516 C 8.037 4.672,8.020 4.746,8.020 5.000 C 8.020 5.256,8.036 5.328,8.131 5.489 C 8.256 5.702,8.449 5.864,8.670 5.943 C 8.792 5.987,9.728 5.997,13.701 5.998 L 18.581 6.000 19.080 6.500 L 19.579 7.000 19.080 7.500 L 18.581 8.000 15.737 8.000 C 12.651 8.000,12.674 7.998,12.382 8.221 C 12.302 8.282,12.187 8.415,12.128 8.516 C 12.037 8.672,12.020 8.746,12.020 9.000 C 12.020 9.256,12.036 9.328,12.131 9.489 C 12.256 9.702,12.449 9.864,12.670 9.943 C 12.790 9.986,13.445 9.997,15.983 9.998 C 18.821 10.000,19.166 9.993,19.343 9.934 C 19.515 9.876,19.680 9.729,20.653 8.764 C 21.266 8.157,21.815 7.579,21.873 7.480 C 21.963 7.328,21.980 7.253,21.980 7.000 C 21.980 6.746,21.963 6.672,21.873 6.520 C 21.725 6.271,19.623 4.195,19.420 4.097 C 19.267 4.023,19.124 4.020,16.133 4.009 L 13.007 3.998 12.993 3.349 C 12.981 2.728,12.975 2.692,12.872 2.516 C 12.628 2.101,12.150 1.915,11.695 2.057 M12.789 14.209 L 13.000 14.417 13.000 15.209 L 13.000 16.000 9.709 16.000 L 6.419 16.000 5.920 15.500 L 5.421 15.000 5.920 14.500 L 6.419 14.000 9.498 14.000 L 12.577 14.000 12.789 14.209 " stroke="none" fill-rule="evenodd" fill="black"></path></svg>