<svg xmlns="http://www.w3.org/2000/svg" width="24" height="24" viewBox="0 0 24 24" fill="none" stroke="currentColor" stroke-width="2" stroke-linecap="round" stroke-linejoin="round"><path d="M11.695 2.057 C 11.466 2.129,11.256 2.299,11.128 2.516 C 11.025 2.692,11.019 2.728,11.007 3.350 L 10.993 4.000 9.443 4.000 C 7.759 4.000,7.658 4.011,7.382 4.221 C 7.302 4.282,7.187 4.415,7.128 4.516 L 7.020 4.700 7.009 6.911 C 7.001 8.337,7.012 9.176,7.039 9.275 C 7.099 9.498,7.289 9.739,7.508 9.867 L 7.700 9.980 9.350 9.992 L 11.000 10.003 11.000 11.001 L 11.000 11.998 8.370 12.009 C 5.870 12.019,5.732 12.024,5.580 12.097 C 5.377 12.195,3.275 14.271,3.127 14.520 C 3.037 14.672,3.020 14.746,3.020 15.000 C 3.020 15.253,3.037 15.328,3.127 15.480 C 3.185 15.579,3.734 16.157,4.347 16.764 C 5.320 17.729,5.485 17.876,5.657 17.934 C 5.832 17.993,6.140 18.000,8.427 18.000 L 11.000 18.000 11.000 19.000 L 11.000 20.000 10.446 20.000 C 9.648 20.000,9.367 20.110,9.128 20.516 C 9.037 20.672,9.020 20.746,9.020 21.000 C 9.020 21.256,9.036 21.328,9.131 21.489 C 9.256 21.702,9.449 21.864,9.670 21.943 C 9.788 21.985,10.280 21.996,12.000 21.996 C 13.720 21.996,14.212 21.985,14.330 21.943 C 14.551 21.864,14.744 21.702,14.869 21.489 C 14.964 21.328,14.980 21.256,14.980 21.000 C 14.980 20.746,14.963 20.672,14.872 20.516 C 14.633 20.110,14.352 20.000,13.554 20.000 L 13.000 20.000 13.000 19.003 L 13.000 18.007 13.650 17.993 C 14.279 17.980,14.306 17.976,14.492 17.867 C 14.711 17.739,14.901 17.498,14.961 17.275 C 14.988 17.176,14.999 16.337,14.991 14.911 L 14.980 12.700 14.872 12.516 C 14.633 12.110,14.352 12.000,13.554 12.000 L 13.000 12.000 13.000 11.000 L 13.000 10.000 16.073 10.000 C 18.825 10.000,19.166 9.993,19.343 9.934 C 19.515 9.876,19.680 9.729,20.653 8.764 C 21.266 8.157,21.815 7.579,21.873 7.480 C 21.963 7.328,21.980 7.253,21.980 7.000 C 21.980 6.746,21.963 6.672,21.873 6.520 C 21.725 6.271,19.623 4.195,19.420 4.097 C 19.267 4.023,19.124 4.020,16.133 4.009 L 13.007 3.998 12.993 3.349 C 12.981 2.728,12.975 2.692,12.872 2.516 C 12.628 2.101,12.150 1.915,11.695 2.057 M19.080 6.500 L 19.579 7.000 19.080 7.500 L 18.581 8.000 13.791 8.000 L 9.000 8.000 9.000 7.000 L 9.000 6.000 13.791 6.000 L 18.581 6.000 19.080 6.500 M13.000 15.000 L 13.000 16.000 9.709 16.000 L 6.419 16.000 5.920 15.500 L 5.421 15.000 5.920 14.500 L 6.419 14.000 9.709 14.000 L 13.000 14.000 13.000 15.000 " stroke="none" fill-rule="evenodd" fill="black"></path></svg>