<svg xmlns="http://www.w3.org/2000/svg" width="24" height="24" viewBox="0 0 24 24" fill="none" stroke="currentColor" stroke-width="2" stroke-linecap="round" stroke-linejoin="round"><path d="M11.660 6.067 C 11.477 6.122,11.326 6.261,9.847 7.734 C 8.960 8.617,8.186 9.421,8.127 9.520 C 8.037 9.672,8.020 9.746,8.020 10.000 C 8.020 10.257,8.036 10.327,8.133 10.492 C 8.263 10.714,8.502 10.901,8.736 10.965 C 8.939 11.019,9.267 10.989,9.445 10.899 C 9.519 10.862,10.125 10.289,10.790 9.626 L 12.000 8.422 13.210 9.626 C 13.876 10.289,14.483 10.864,14.560 10.905 C 14.659 10.957,14.787 10.979,15.000 10.979 C 15.258 10.980,15.327 10.964,15.492 10.867 C 15.968 10.587,16.138 9.968,15.866 9.508 C 15.811 9.416,15.040 8.617,14.153 7.734 C 12.615 6.203,12.530 6.125,12.323 6.064 C 12.059 5.986,11.921 5.987,11.660 6.067 M8.670 13.061 C 8.448 13.142,8.250 13.309,8.128 13.516 C 8.036 13.672,8.020 13.745,8.021 14.000 C 8.021 14.212,8.043 14.341,8.095 14.440 C 8.196 14.632,11.296 17.739,11.520 17.873 C 11.672 17.964,11.746 17.980,12.000 17.980 C 12.254 17.980,12.328 17.964,12.480 17.873 C 12.704 17.739,15.804 14.632,15.905 14.440 C 15.957 14.341,15.979 14.212,15.979 14.000 C 15.980 13.745,15.964 13.672,15.872 13.516 C 15.618 13.084,15.137 12.905,14.657 13.066 C 14.484 13.124,14.312 13.279,13.230 14.354 L 12.000 15.576 10.770 14.354 C 9.688 13.279,9.516 13.124,9.343 13.066 C 9.108 12.987,8.875 12.985,8.670 13.061 " stroke="none" fill-rule="evenodd" fill="black"></path></svg>