<svg xmlns="http://www.w3.org/2000/svg" width="24" height="24" viewBox="0 0 24 24" fill="none" stroke="currentColor" stroke-width="2" stroke-linecap="round" stroke-linejoin="round"><path d="M11.080 2.045 C 9.507 2.184,7.883 2.751,6.540 3.630 C 5.905 4.045,5.499 4.378,4.919 4.958 C 2.953 6.926,1.919 9.544,2.013 12.320 C 2.084 14.439,2.752 16.328,4.033 18.040 C 4.430 18.570,5.305 19.464,5.800 19.847 C 7.242 20.961,8.787 21.624,10.600 21.907 C 11.247 22.008,12.753 22.008,13.400 21.907 C 15.638 21.557,17.504 20.620,19.062 19.062 C 20.620 17.504,21.557 15.638,21.907 13.400 C 22.008 12.753,22.008 11.247,21.907 10.600 C 21.624 8.786,20.959 7.238,19.847 5.800 C 19.510 5.365,18.639 4.494,18.200 4.154 C 16.133 2.555,13.646 1.818,11.080 2.045 M12.734 4.041 C 14.574 4.216,16.228 4.976,17.554 6.256 C 20.043 8.658,20.702 12.394,19.183 15.499 C 18.749 16.387,18.223 17.105,17.496 17.801 C 16.876 18.394,16.262 18.819,15.471 19.200 C 13.267 20.265,10.733 20.265,8.529 19.200 C 7.477 18.693,6.612 18.015,5.847 17.100 C 3.848 14.711,3.440 11.302,4.816 8.500 C 6.162 5.760,8.867 4.049,11.920 4.005 C 12.129 4.003,12.495 4.019,12.734 4.041 M11.665 6.066 C 11.499 6.116,11.376 6.217,10.851 6.733 C 10.510 7.067,10.188 7.416,10.133 7.508 C 9.862 7.970,10.033 8.588,10.508 8.867 C 10.673 8.964,10.742 8.980,11.000 8.979 C 11.354 8.978,11.476 8.924,11.788 8.629 L 12.000 8.428 12.212 8.629 C 12.524 8.924,12.646 8.978,13.000 8.979 C 13.258 8.980,13.327 8.964,13.492 8.867 C 13.967 8.588,14.138 7.970,13.867 7.508 C 13.812 7.416,13.490 7.067,13.150 6.733 C 12.600 6.194,12.508 6.120,12.319 6.063 C 12.060 5.987,11.921 5.987,11.665 6.066 M7.641 10.069 C 7.503 10.118,7.321 10.271,6.847 10.736 C 6.095 11.475,6.020 11.589,6.021 12.000 C 6.021 12.214,6.043 12.340,6.096 12.440 C 6.196 12.629,7.298 13.741,7.508 13.866 C 7.968 14.138,8.587 13.968,8.867 13.492 C 8.964 13.327,8.980 13.258,8.979 13.000 C 8.978 12.646,8.924 12.524,8.629 12.212 L 8.428 12.000 8.629 11.788 C 8.924 11.476,8.978 11.354,8.979 11.000 C 8.980 10.745,8.964 10.672,8.872 10.516 C 8.617 10.083,8.117 9.901,7.641 10.069 M15.670 10.061 C 15.448 10.142,15.250 10.309,15.128 10.516 C 15.036 10.672,15.020 10.745,15.021 11.000 C 15.022 11.354,15.076 11.476,15.371 11.788 L 15.572 12.000 15.371 12.212 C 15.076 12.524,15.022 12.646,15.021 13.000 C 15.020 13.258,15.036 13.327,15.133 13.492 C 15.413 13.968,16.032 14.138,16.492 13.866 C 16.702 13.741,17.804 12.629,17.904 12.440 C 17.957 12.340,17.979 12.214,17.979 12.000 C 17.980 11.590,17.905 11.475,17.154 10.737 C 16.648 10.240,16.505 10.122,16.343 10.067 C 16.109 9.987,15.876 9.985,15.670 10.061 M10.670 15.061 C 10.448 15.142,10.250 15.309,10.128 15.516 C 10.037 15.672,10.020 15.746,10.020 16.000 C 10.020 16.253,10.037 16.328,10.127 16.480 C 10.257 16.700,11.366 17.801,11.560 17.904 C 11.660 17.957,11.786 17.979,12.000 17.979 C 12.254 17.980,12.327 17.964,12.480 17.873 C 12.700 17.743,13.801 16.634,13.904 16.440 C 13.957 16.340,13.979 16.214,13.979 16.000 C 13.980 15.745,13.964 15.672,13.872 15.516 C 13.747 15.303,13.550 15.141,13.316 15.058 C 12.946 14.928,12.605 15.019,12.244 15.346 L 12.000 15.567 11.756 15.346 C 11.396 15.020,11.037 14.926,10.670 15.061 " stroke="none" fill-rule="evenodd" fill="black"></path></svg>