<svg xmlns="http://www.w3.org/2000/svg" width="24" height="24" viewBox="0 0 24 24" fill="none" stroke="currentColor" stroke-width="2" stroke-linecap="round" stroke-linejoin="round"><path d="M2.670 2.061 C 2.448 2.142,2.250 2.309,2.128 2.516 C 2.036 2.672,2.020 2.745,2.021 3.000 C 2.021 3.212,2.043 3.341,2.095 3.440 C 2.135 3.517,2.999 4.412,4.013 5.430 L 5.858 7.279 4.095 9.050 C 2.196 10.957,2.200 10.951,2.056 11.520 C 1.925 12.036,2.043 12.710,2.339 13.140 C 2.415 13.250,4.354 15.214,6.649 17.505 C 10.212 21.063,10.852 21.685,11.040 21.773 C 11.673 22.073,12.330 22.073,12.960 21.773 C 13.142 21.686,13.489 21.360,14.950 19.905 L 16.721 18.142 18.570 19.987 C 19.588 21.001,20.483 21.865,20.560 21.905 C 20.659 21.957,20.788 21.979,21.000 21.979 C 21.258 21.980,21.327 21.964,21.492 21.867 C 21.968 21.587,22.139 20.967,21.865 20.508 C 21.810 20.416,17.665 16.243,12.653 11.235 C 4.231 2.820,3.525 2.125,3.343 2.065 C 3.107 1.987,2.874 1.986,2.670 2.061 M11.511 2.062 C 10.989 2.189,10.865 2.285,9.612 3.531 C 8.296 4.840,8.254 4.897,8.290 5.340 C 8.312 5.620,8.386 5.783,8.575 5.972 C 8.779 6.176,8.980 6.258,9.280 6.257 C 9.474 6.257,9.586 6.233,9.720 6.164 C 9.833 6.105,10.288 5.684,10.951 5.026 L 12.002 3.982 16.010 7.990 L 20.018 11.998 18.974 13.049 C 18.316 13.712,17.895 14.167,17.836 14.280 C 17.767 14.414,17.743 14.526,17.743 14.720 C 17.742 15.020,17.824 15.221,18.028 15.425 C 18.217 15.614,18.380 15.688,18.660 15.710 C 19.105 15.746,19.160 15.706,20.488 14.367 C 21.754 13.092,21.805 13.026,21.944 12.480 C 22.075 11.964,21.957 11.290,21.661 10.860 C 21.585 10.750,19.655 8.794,17.371 6.514 C 13.684 2.831,13.192 2.354,12.970 2.243 C 12.502 2.010,11.988 1.947,11.511 2.062 M8.440 9.860 L 9.579 11.000 8.736 11.000 C 7.812 11.000,7.634 11.029,7.382 11.221 C 7.302 11.282,7.187 11.415,7.128 11.516 C 7.037 11.672,7.020 11.746,7.020 12.000 C 7.020 12.256,7.036 12.328,7.131 12.489 C 7.256 12.702,7.449 12.864,7.670 12.943 C 7.787 12.985,8.234 12.997,9.701 12.998 L 11.582 13.000 11.960 13.380 L 12.339 13.760 11.751 14.350 C 11.356 14.747,11.137 14.999,11.083 15.120 C 10.972 15.366,10.977 15.650,11.095 15.900 C 11.272 16.273,11.590 16.485,11.980 16.489 C 12.365 16.492,12.451 16.439,13.121 15.775 L 13.742 15.161 14.521 15.941 L 15.300 16.720 13.650 18.370 L 12.000 20.020 7.990 16.010 L 3.980 12.000 5.620 10.360 C 6.522 9.458,7.269 8.720,7.280 8.720 C 7.291 8.720,7.813 9.233,8.440 9.860 " stroke="none" fill-rule="evenodd" fill="black"></path></svg>