<svg xmlns="http://www.w3.org/2000/svg" width="24" height="24" viewBox="0 0 24 24" fill="none" stroke="currentColor" stroke-width="2" stroke-linecap="round" stroke-linejoin="round"><path d="M11.511 2.062 C 10.926 2.204,11.131 2.017,6.666 6.474 C 4.403 8.732,2.474 10.683,2.379 10.810 C 2.120 11.155,2.020 11.487,2.020 12.000 C 2.020 12.513,2.120 12.845,2.379 13.190 C 2.474 13.317,4.412 15.276,6.686 17.545 C 11.162 22.011,10.922 21.792,11.520 21.944 C 12.036 22.075,12.710 21.957,13.140 21.661 C 13.250 21.585,15.214 19.646,17.505 17.351 C 22.015 12.834,21.792 13.078,21.944 12.480 C 22.075 11.964,21.957 11.290,21.661 10.860 C 21.585 10.750,19.655 8.794,17.371 6.514 C 13.684 2.831,13.192 2.354,12.970 2.243 C 12.502 2.010,11.988 1.947,11.511 2.062 M16.020 8.000 L 20.020 12.000 16.010 16.010 L 12.000 20.020 7.990 16.010 L 3.980 12.000 7.980 8.000 C 10.180 5.800,11.989 4.000,12.000 4.000 C 12.011 4.000,13.820 5.800,16.020 8.000 M11.600 7.584 C 11.267 7.728,11.000 8.136,11.001 8.500 C 11.002 8.868,11.089 8.986,12.131 10.030 L 13.099 11.000 10.496 11.000 C 7.671 11.000,7.672 11.000,7.382 11.221 C 7.302 11.282,7.187 11.415,7.128 11.516 C 7.037 11.672,7.020 11.746,7.020 12.000 C 7.020 12.256,7.036 12.328,7.131 12.489 C 7.256 12.702,7.449 12.864,7.670 12.943 C 7.789 12.986,8.359 12.997,10.460 12.998 L 13.099 13.000 12.131 13.970 C 11.089 15.014,11.002 15.132,11.001 15.500 C 11.000 15.874,11.270 16.277,11.618 16.422 C 11.830 16.510,12.187 16.507,12.395 16.414 C 12.607 16.319,16.285 12.660,16.409 12.420 C 16.468 12.307,16.492 12.184,16.492 12.000 C 16.492 11.816,16.468 11.693,16.409 11.580 C 16.295 11.359,12.609 7.682,12.410 7.591 C 12.222 7.505,11.792 7.501,11.600 7.584 " stroke="none" fill-rule="evenodd" fill="black"></path></svg>