<svg xmlns="http://www.w3.org/2000/svg" width="24" height="24" viewBox="0 0 24 24" fill="none" stroke="currentColor" stroke-width="2" stroke-linecap="round" stroke-linejoin="round"><path d="M9.640 8.069 C 9.488 8.121,9.208 8.381,7.847 9.735 C 6.960 10.618,6.186 11.421,6.127 11.520 C 6.037 11.672,6.020 11.746,6.020 12.000 C 6.020 12.254,6.036 12.328,6.127 12.480 C 6.261 12.704,9.371 15.807,9.555 15.899 C 10.009 16.128,10.601 15.944,10.867 15.492 C 10.964 15.327,10.980 15.258,10.979 15.000 C 10.979 14.787,10.957 14.659,10.905 14.560 C 10.864 14.483,10.289 13.876,9.626 13.210 L 8.422 12.000 9.626 10.790 C 10.289 10.125,10.864 9.517,10.905 9.440 C 10.957 9.341,10.979 9.213,10.979 9.000 C 10.980 8.745,10.964 8.672,10.872 8.516 C 10.617 8.083,10.121 7.902,9.640 8.069 M13.670 8.061 C 13.448 8.142,13.250 8.309,13.128 8.516 C 13.036 8.672,13.020 8.745,13.021 9.000 C 13.021 9.213,13.043 9.341,13.095 9.440 C 13.136 9.517,13.711 10.125,14.374 10.790 L 15.578 12.000 14.374 13.210 C 13.711 13.876,13.138 14.481,13.101 14.555 C 12.872 15.009,13.056 15.601,13.508 15.867 C 13.673 15.964,13.742 15.980,14.000 15.979 C 14.212 15.979,14.341 15.957,14.440 15.905 C 14.632 15.804,17.739 12.704,17.873 12.480 C 17.964 12.328,17.980 12.254,17.980 12.000 C 17.980 11.746,17.963 11.672,17.873 11.520 C 17.814 11.421,17.040 10.618,16.153 9.736 C 14.714 8.305,14.519 8.124,14.343 8.066 C 14.108 7.987,13.875 7.986,13.670 8.061 " stroke="none" fill-rule="evenodd" fill="black"></path></svg>