<svg xmlns="http://www.w3.org/2000/svg" width="24" height="24" viewBox="0 0 24 24" fill="none" stroke="currentColor" stroke-width="2" stroke-linecap="round" stroke-linejoin="round"><path d="M10.499 2.040 C 9.363 2.246,8.460 3.049,8.114 4.160 C 7.979 4.594,7.979 5.406,8.114 5.840 C 8.365 6.645,8.931 7.318,9.670 7.688 L 10.000 7.853 10.002 11.517 C 10.003 14.472,10.014 15.209,10.057 15.330 C 10.136 15.551,10.298 15.744,10.511 15.869 L 10.700 15.980 12.611 15.991 L 14.522 16.003 16.434 18.391 C 18.497 20.968,18.475 20.945,18.891 20.987 C 19.614 21.061,20.172 20.378,19.945 19.695 C 19.894 19.543,19.415 18.919,17.767 16.860 C 15.869 14.488,15.635 14.210,15.457 14.120 L 15.260 14.020 13.630 14.008 L 12.000 13.997 12.000 12.998 L 12.000 12.000 14.090 11.998 C 15.731 11.997,16.212 11.985,16.330 11.943 C 16.551 11.864,16.744 11.702,16.869 11.489 C 16.964 11.328,16.980 11.256,16.980 11.000 C 16.980 10.746,16.963 10.672,16.872 10.516 C 16.813 10.415,16.698 10.282,16.618 10.221 C 16.334 10.004,16.283 10.000,14.054 10.000 L 12.000 10.000 12.000 8.927 L 12.000 7.853 12.330 7.688 C 13.069 7.318,13.635 6.645,13.886 5.840 C 14.021 5.406,14.021 4.594,13.886 4.160 C 13.581 3.179,12.810 2.407,11.861 2.129 C 11.500 2.023,10.832 1.980,10.499 2.040 M11.310 4.061 C 11.688 4.173,12.000 4.598,12.000 5.001 C 12.000 5.331,11.784 5.696,11.484 5.872 C 11.328 5.963,11.254 5.980,11.000 5.980 C 10.746 5.980,10.672 5.963,10.516 5.872 C 9.935 5.530,9.833 4.774,10.304 4.303 C 10.583 4.024,10.916 3.944,11.310 4.061 M6.680 10.549 C 6.447 10.635,5.769 11.004,5.484 11.200 C 4.174 12.099,3.269 13.531,2.993 15.140 C 2.827 16.110,2.948 17.330,3.304 18.254 C 3.688 19.252,4.441 20.264,5.271 20.895 C 6.828 22.080,8.868 22.422,10.780 21.818 C 11.243 21.672,12.089 21.240,12.458 20.963 C 13.138 20.451,13.853 19.641,13.959 19.265 C 14.132 18.644,13.645 18.000,13.002 18.000 C 12.620 18.000,12.410 18.144,11.917 18.743 C 11.175 19.645,9.933 20.173,8.708 20.108 C 7.685 20.053,6.815 19.665,6.099 18.944 C 5.360 18.200,4.983 17.344,4.933 16.300 C 4.879 15.162,5.265 14.147,6.060 13.339 C 6.473 12.919,6.658 12.785,7.195 12.518 C 7.618 12.308,7.794 12.153,7.917 11.880 C 8.133 11.403,7.875 10.784,7.374 10.575 C 7.246 10.521,6.799 10.504,6.680 10.549 " stroke="none" fill-rule="evenodd" fill="black"></path></svg>