<svg xmlns="http://www.w3.org/2000/svg" width="24" height="24" viewBox="0 0 24 24" fill="none" stroke="currentColor" stroke-width="2" stroke-linecap="round" stroke-linejoin="round"><path d="M2.670 2.061 C 2.448 2.142,2.250 2.309,2.128 2.516 C 2.037 2.672,2.020 2.746,2.020 3.000 C 2.020 3.254,2.036 3.327,2.127 3.480 C 2.189 3.583,3.898 5.322,6.117 7.540 L 10.000 11.420 10.002 13.300 C 10.003 14.766,10.015 15.213,10.057 15.330 C 10.136 15.551,10.298 15.744,10.511 15.869 L 10.700 15.980 12.611 15.991 L 14.522 16.003 16.434 18.391 C 17.949 20.283,18.382 20.800,18.516 20.874 C 18.733 20.994,19.083 21.028,19.307 20.950 L 19.473 20.892 19.907 21.329 C 20.474 21.900,20.608 21.980,21.000 21.980 C 21.257 21.980,21.327 21.964,21.492 21.867 C 21.968 21.587,22.139 20.967,21.865 20.508 C 21.810 20.416,17.665 16.243,12.653 11.235 C 4.231 2.820,3.525 2.125,3.343 2.065 C 3.107 1.987,2.874 1.986,2.670 2.061 M10.499 2.040 C 9.373 2.244,8.454 3.055,8.123 4.137 C 8.018 4.481,7.974 5.040,8.035 5.264 C 8.099 5.498,8.286 5.737,8.508 5.867 C 8.673 5.964,8.743 5.980,9.003 5.980 C 9.271 5.980,9.329 5.966,9.503 5.859 C 9.751 5.706,9.948 5.421,9.979 5.169 C 10.027 4.781,10.086 4.567,10.183 4.436 C 10.698 3.732,11.776 3.944,11.965 4.786 C 12.058 5.201,11.865 5.648,11.502 5.861 C 11.394 5.925,11.225 5.974,11.034 5.998 C 10.870 6.019,10.686 6.055,10.625 6.078 C 10.439 6.149,10.242 6.323,10.128 6.516 C 10.037 6.672,10.020 6.746,10.020 7.000 C 10.020 7.257,10.036 7.327,10.133 7.492 C 10.263 7.714,10.502 7.901,10.736 7.965 C 10.960 8.026,11.519 7.982,11.863 7.877 C 12.820 7.584,13.582 6.817,13.886 5.840 C 14.021 5.406,14.021 4.594,13.886 4.160 C 13.581 3.179,12.810 2.407,11.861 2.129 C 11.500 2.023,10.832 1.980,10.499 2.040 M14.695 10.057 C 14.466 10.129,14.256 10.299,14.128 10.516 C 14.037 10.672,14.020 10.746,14.020 11.000 C 14.020 11.256,14.036 11.328,14.131 11.489 C 14.256 11.702,14.449 11.864,14.670 11.943 C 14.878 12.017,16.122 12.017,16.330 11.943 C 16.551 11.864,16.744 11.702,16.869 11.489 C 16.964 11.328,16.980 11.256,16.980 11.000 C 16.980 10.746,16.963 10.672,16.872 10.516 C 16.740 10.293,16.533 10.128,16.290 10.055 C 16.050 9.983,14.928 9.984,14.695 10.057 M6.680 10.549 C 6.447 10.635,5.769 11.004,5.484 11.200 C 4.174 12.099,3.269 13.531,2.993 15.140 C 2.827 16.110,2.948 17.330,3.304 18.254 C 3.688 19.252,4.441 20.264,5.271 20.895 C 6.828 22.080,8.868 22.422,10.780 21.818 C 11.243 21.672,12.089 21.240,12.458 20.963 C 13.138 20.451,13.853 19.641,13.959 19.265 C 14.132 18.644,13.645 18.000,13.002 18.000 C 12.620 18.000,12.410 18.144,11.917 18.743 C 11.175 19.645,9.933 20.173,8.708 20.108 C 7.685 20.053,6.815 19.665,6.099 18.944 C 5.360 18.200,4.983 17.344,4.933 16.300 C 4.879 15.162,5.265 14.147,6.060 13.339 C 6.473 12.919,6.658 12.785,7.195 12.518 C 7.618 12.308,7.794 12.153,7.917 11.880 C 8.133 11.403,7.875 10.784,7.374 10.575 C 7.246 10.521,6.799 10.504,6.680 10.549 M12.300 13.720 L 12.578 14.000 12.289 14.000 L 12.000 14.000 12.000 13.720 C 12.000 13.566,12.005 13.440,12.011 13.440 C 12.017 13.440,12.147 13.566,12.300 13.720 " stroke="none" fill-rule="evenodd" fill="black"></path></svg>