<svg xmlns="http://www.w3.org/2000/svg" width="24" height="24" viewBox="0 0 24 24" fill="none" stroke="currentColor" stroke-width="2" stroke-linecap="round" stroke-linejoin="round"><path d="M16.499 3.040 C 15.363 3.246,14.460 4.049,14.114 5.160 C 13.979 5.594,13.979 6.406,14.114 6.840 C 14.421 7.826,15.174 8.579,16.160 8.886 C 16.594 9.021,17.406 9.021,17.840 8.886 C 18.826 8.579,19.579 7.826,19.886 6.840 C 20.021 6.406,20.021 5.594,19.886 5.160 C 19.581 4.179,18.810 3.407,17.861 3.129 C 17.500 3.023,16.832 2.980,16.499 3.040 M17.310 5.061 C 17.688 5.173,18.000 5.598,18.000 6.001 C 18.000 6.331,17.784 6.696,17.484 6.872 C 17.328 6.963,17.254 6.980,17.000 6.980 C 16.746 6.980,16.672 6.963,16.516 6.872 C 15.932 6.528,15.831 5.775,16.307 5.299 C 16.582 5.024,16.918 4.944,17.310 5.061 M7.723 6.536 C 5.375 7.128,5.368 7.130,5.149 7.486 C 4.861 7.950,5.023 8.582,5.499 8.862 C 5.844 9.064,5.905 9.056,7.939 8.546 L 9.779 8.085 11.228 9.171 C 12.592 10.193,12.675 10.262,12.626 10.339 C 12.198 11.008,10.098 14.571,10.052 14.705 C 9.926 15.075,10.069 15.546,10.381 15.783 C 10.657 15.994,10.679 15.996,12.670 15.998 L 14.519 16.000 16.433 18.390 C 18.497 20.968,18.475 20.945,18.891 20.987 C 19.614 21.061,20.172 20.378,19.945 19.695 C 19.894 19.543,19.415 18.919,17.767 16.860 C 15.869 14.488,15.635 14.210,15.457 14.120 C 15.261 14.021,15.253 14.020,14.013 14.008 L 12.766 13.996 13.873 12.151 L 14.980 10.306 14.980 10.022 C 14.980 9.798,14.959 9.696,14.879 9.539 C 14.786 9.355,14.617 9.219,12.699 7.774 C 11.556 6.913,10.539 6.167,10.441 6.117 C 10.102 5.943,10.042 5.953,7.723 6.536 M8.400 10.027 C 6.434 10.222,4.738 11.290,3.746 12.958 C 2.883 14.409,2.687 16.255,3.222 17.891 C 3.354 18.295,3.683 18.968,3.927 19.331 C 4.821 20.664,6.226 21.584,7.860 21.908 C 8.351 22.005,9.478 22.005,9.963 21.908 C 11.296 21.643,12.345 21.072,13.261 20.113 C 13.701 19.653,13.861 19.418,13.923 19.141 C 14.098 18.359,13.272 17.713,12.534 18.057 C 12.378 18.130,12.253 18.241,12.016 18.519 C 11.328 19.329,10.589 19.754,9.546 19.940 C 8.281 20.167,6.909 19.702,6.013 18.744 C 4.723 17.364,4.558 15.311,5.612 13.740 C 5.837 13.404,6.362 12.895,6.737 12.650 C 7.348 12.249,7.949 12.060,8.784 12.005 C 9.251 11.975,9.336 11.958,9.496 11.865 C 10.247 11.424,10.119 10.305,9.290 10.055 C 9.122 10.004,8.745 9.992,8.400 10.027 " stroke="none" fill-rule="evenodd" fill="black"></path></svg>