<svg xmlns="http://www.w3.org/2000/svg" width="24" height="24" viewBox="0 0 24 24" fill="none" stroke="currentColor" stroke-width="2" stroke-linecap="round" stroke-linejoin="round"><path d="M11.080 2.045 C 9.507 2.184,7.883 2.751,6.540 3.630 C 5.905 4.045,5.499 4.378,4.919 4.958 C 2.953 6.926,1.919 9.544,2.013 12.320 C 2.084 14.439,2.752 16.328,4.033 18.040 C 4.430 18.570,5.305 19.464,5.800 19.847 C 7.242 20.961,8.787 21.624,10.600 21.907 C 11.247 22.008,12.753 22.008,13.400 21.907 C 15.638 21.557,17.504 20.620,19.062 19.062 C 20.620 17.504,21.557 15.638,21.907 13.400 C 22.008 12.753,22.008 11.247,21.907 10.600 C 21.624 8.786,20.959 7.238,19.847 5.800 C 19.510 5.365,18.639 4.494,18.200 4.154 C 16.133 2.555,13.646 1.818,11.080 2.045 M12.734 4.041 C 14.574 4.216,16.228 4.976,17.554 6.256 C 20.043 8.658,20.702 12.394,19.183 15.499 C 18.749 16.387,18.223 17.105,17.496 17.801 C 16.876 18.394,16.262 18.819,15.471 19.200 C 13.267 20.265,10.733 20.265,8.529 19.200 C 7.477 18.693,6.612 18.015,5.847 17.100 C 3.848 14.711,3.440 11.302,4.816 8.500 C 6.162 5.760,8.867 4.049,11.920 4.005 C 12.129 4.003,12.495 4.019,12.734 4.041 M11.380 6.043 C 8.430 6.334,6.051 8.883,6.025 11.783 C 6.020 12.298,6.022 12.308,6.141 12.503 C 6.539 13.150,7.457 13.157,7.852 12.514 C 7.949 12.356,7.972 12.264,8.004 11.894 C 8.073 11.090,8.164 10.746,8.464 10.160 C 8.829 9.446,9.446 8.829,10.160 8.464 C 10.745 8.164,11.091 8.073,11.890 8.004 C 12.242 7.974,12.354 7.948,12.502 7.861 C 13.248 7.424,13.116 6.304,12.290 6.055 C 12.093 5.996,11.882 5.993,11.380 6.043 M11.477 10.073 C 10.806 10.249,10.238 10.823,10.060 11.508 C 9.941 11.962,10.003 12.492,10.225 12.930 C 10.361 13.199,10.801 13.639,11.070 13.775 C 11.659 14.073,12.341 14.073,12.930 13.775 C 13.196 13.640,13.638 13.200,13.771 12.937 C 13.994 12.498,14.052 12.007,13.940 11.529 C 13.858 11.182,13.720 10.927,13.465 10.653 C 13.074 10.232,12.560 10.005,12.000 10.005 C 11.857 10.005,11.622 10.036,11.477 10.073 M16.695 11.057 C 16.469 11.128,16.256 11.298,16.134 11.506 C 16.053 11.645,16.026 11.764,15.996 12.110 C 15.929 12.890,15.838 13.242,15.557 13.804 C 15.131 14.657,14.390 15.337,13.479 15.711 C 13.120 15.859,12.460 16.000,12.130 16.000 C 11.667 16.000,11.329 16.174,11.128 16.516 C 11.037 16.672,11.020 16.746,11.020 17.000 C 11.020 17.257,11.036 17.327,11.133 17.492 C 11.263 17.714,11.502 17.901,11.736 17.965 C 11.958 18.026,12.651 17.984,13.169 17.878 C 14.788 17.550,16.175 16.593,17.088 15.176 C 17.624 14.342,17.966 13.204,17.975 12.220 C 17.980 11.723,17.975 11.692,17.872 11.516 C 17.628 11.101,17.150 10.915,16.695 11.057 " stroke="none" fill-rule="evenodd" fill="black"></path></svg>