<svg xmlns="http://www.w3.org/2000/svg" width="24" height="24" viewBox="0 0 24 24" fill="none" stroke="currentColor" stroke-width="2" stroke-linecap="round" stroke-linejoin="round"><path d="M2.670 2.061 C 2.448 2.142,2.250 2.309,2.128 2.516 C 2.036 2.672,2.020 2.745,2.021 3.000 C 2.021 3.213,2.043 3.341,2.095 3.440 C 2.136 3.517,2.638 4.052,3.212 4.629 L 4.256 5.678 4.130 5.829 C 3.853 6.160,3.347 6.956,3.085 7.473 C 2.618 8.397,2.311 9.353,2.113 10.501 C 1.994 11.194,1.982 12.742,2.090 13.409 C 2.377 15.182,3.079 16.831,4.107 18.147 C 5.606 20.067,7.870 21.426,10.280 21.854 C 11.548 22.079,13.015 22.035,14.300 21.733 C 15.590 21.429,16.988 20.773,18.015 19.991 L 18.329 19.751 19.375 20.791 C 19.950 21.363,20.483 21.864,20.560 21.905 C 20.659 21.957,20.787 21.979,21.000 21.979 C 21.258 21.980,21.327 21.964,21.492 21.867 C 21.968 21.587,22.139 20.967,21.865 20.508 C 21.776 20.358,3.856 2.404,3.593 2.201 C 3.346 2.011,2.964 1.953,2.670 2.061 M11.100 2.043 C 9.933 2.153,8.750 2.478,7.713 2.974 C 7.279 3.182,7.121 3.336,7.016 3.653 C 6.934 3.900,6.957 4.165,7.082 4.416 C 7.199 4.650,7.394 4.810,7.673 4.901 C 7.959 4.995,8.163 4.961,8.651 4.737 C 10.014 4.112,11.443 3.884,12.900 4.058 C 14.827 4.288,16.386 5.054,17.723 6.427 C 18.177 6.892,18.346 7.098,18.671 7.580 C 19.369 8.614,19.791 9.789,19.942 11.120 C 20.108 12.579,19.902 13.894,19.291 15.274 C 19.035 15.854,19.005 16.018,19.097 16.337 C 19.272 16.936,19.997 17.220,20.541 16.902 C 20.767 16.769,20.876 16.624,21.081 16.180 C 22.662 12.759,22.168 8.735,19.800 5.740 C 19.465 5.316,18.625 4.485,18.195 4.151 C 16.975 3.205,15.526 2.526,14.071 2.218 C 13.253 2.045,11.916 1.966,11.100 2.043 M11.320 6.046 C 11.133 6.065,10.890 6.107,10.780 6.139 C 10.049 6.352,9.834 7.304,10.401 7.814 C 10.726 8.105,10.934 8.124,12.189 7.975 C 12.420 7.948,12.711 7.743,12.859 7.503 C 12.966 7.329,12.980 7.271,12.980 7.003 C 12.980 6.746,12.964 6.672,12.872 6.516 C 12.602 6.057,12.249 5.950,11.320 6.046 M6.404 7.824 L 7.109 8.528 6.970 8.734 C 6.402 9.577,6.034 10.762,6.025 11.783 C 6.020 12.298,6.022 12.308,6.141 12.503 C 6.539 13.150,7.457 13.157,7.852 12.514 C 7.949 12.356,7.972 12.264,8.004 11.894 C 8.050 11.350,8.105 11.046,8.209 10.740 C 8.281 10.531,8.499 10.053,8.546 10.002 C 8.555 9.992,8.894 10.315,9.299 10.719 L 10.036 11.455 10.013 11.837 C 9.973 12.493,10.145 12.953,10.596 13.404 C 11.047 13.855,11.507 14.027,12.163 13.987 L 12.545 13.964 13.281 14.701 C 14.129 15.550,14.109 15.456,13.498 15.699 C 13.064 15.871,12.478 15.999,12.115 15.999 C 11.659 16.000,11.330 16.173,11.128 16.516 C 11.037 16.672,11.020 16.746,11.020 17.000 C 11.020 17.257,11.036 17.327,11.133 17.492 C 11.263 17.714,11.502 17.901,11.736 17.965 C 12.114 18.068,13.208 17.923,13.940 17.672 C 14.349 17.531,14.962 17.235,15.266 17.030 L 15.472 16.891 16.181 17.601 C 16.571 17.992,16.879 18.329,16.866 18.350 C 16.790 18.473,15.726 19.107,15.231 19.324 C 12.240 20.637,8.776 20.007,6.425 17.723 C 5.717 17.035,5.250 16.388,4.819 15.500 C 4.230 14.287,3.959 13.016,4.014 11.720 C 4.079 10.182,4.527 8.791,5.359 7.546 C 5.516 7.312,5.657 7.120,5.672 7.120 C 5.687 7.120,6.016 7.437,6.404 7.824 M16.695 11.057 C 16.469 11.128,16.256 11.298,16.134 11.506 C 16.055 11.641,16.025 11.767,15.997 12.070 C 15.978 12.284,15.950 12.590,15.935 12.748 C 15.897 13.158,15.964 13.365,16.218 13.625 C 16.352 13.762,16.474 13.847,16.580 13.876 C 17.145 14.030,17.692 13.758,17.857 13.241 C 17.943 12.973,18.013 12.319,17.991 11.983 C 17.961 11.509,17.714 11.183,17.290 11.055 C 17.068 10.988,16.913 10.989,16.695 11.057 " stroke="none" fill-rule="evenodd" fill="black"></path></svg>