<svg xmlns="http://www.w3.org/2000/svg" width="24" height="24" viewBox="0 0 24 24" fill="none" stroke="currentColor" stroke-width="2" stroke-linecap="round" stroke-linejoin="round"><path d="M6.460 5.057 C 6.093 5.129,5.830 5.220,5.560 5.368 C 4.982 5.687,4.491 6.232,4.235 6.839 C 4.175 6.982,4.101 7.112,4.073 7.128 C 4.044 7.143,3.885 7.219,3.720 7.296 C 3.099 7.588,2.608 8.066,2.320 8.660 C 2.076 9.164,2.022 9.417,2.023 10.040 C 2.025 10.537,2.035 10.608,2.147 10.928 C 2.516 11.983,3.341 12.717,4.413 12.943 C 4.925 13.051,5.593 12.992,6.093 12.795 L 6.295 12.715 6.928 13.348 L 7.561 13.980 6.151 14.000 C 4.774 14.020,4.735 14.022,4.550 14.113 C 4.297 14.238,3.619 14.889,3.303 15.309 C 2.490 16.392,2.032 17.936,2.024 19.620 C 2.020 20.297,2.021 20.301,2.133 20.492 C 2.261 20.709,2.502 20.901,2.722 20.960 C 2.820 20.987,6.002 20.997,12.086 20.990 L 21.300 20.980 21.492 20.867 C 21.714 20.737,21.901 20.498,21.965 20.264 C 22.014 20.085,21.932 18.895,21.818 18.130 C 21.605 16.704,21.065 15.626,20.068 14.635 C 19.419 13.989,19.541 14.024,17.849 14.000 L 16.439 13.980 17.072 13.348 L 17.705 12.715 17.907 12.795 C 19.352 13.364,21.025 12.706,21.700 11.304 C 22.254 10.151,22.015 8.766,21.108 7.872 C 20.858 7.625,20.409 7.328,20.120 7.217 C 19.886 7.127,19.887 7.128,19.761 6.829 C 19.407 5.990,18.622 5.315,17.754 5.103 C 16.190 4.721,14.675 5.547,14.151 7.068 C 13.939 7.682,13.959 8.455,14.202 9.096 L 14.280 9.300 13.140 10.440 L 12.000 11.580 10.858 10.437 L 9.715 9.295 9.795 9.093 C 9.839 8.982,9.903 8.754,9.937 8.587 C 10.257 7.039,9.304 5.524,7.740 5.093 C 7.441 5.011,6.789 4.992,6.460 5.057 M7.316 7.063 C 7.691 7.174,8.000 7.588,8.000 7.980 C 8.000 8.215,7.886 8.498,7.704 8.711 C 7.499 8.951,7.425 9.139,7.425 9.420 C 7.425 9.836,7.415 9.824,9.054 11.471 L 10.578 13.001 10.289 13.290 L 10.000 13.579 8.510 12.094 C 7.525 11.111,6.961 10.579,6.847 10.522 C 6.641 10.419,6.242 10.404,6.035 10.492 C 5.961 10.523,5.811 10.623,5.702 10.713 C 5.244 11.094,4.687 11.089,4.299 10.701 C 3.932 10.334,3.907 9.756,4.241 9.351 C 4.402 9.156,4.665 9.037,5.026 8.997 C 5.613 8.931,5.993 8.548,5.998 8.017 C 6.003 7.595,6.295 7.179,6.667 7.065 C 6.920 6.987,7.061 6.987,7.316 7.063 M17.316 7.063 C 17.706 7.178,17.997 7.584,18.002 8.017 C 18.007 8.548,18.387 8.931,18.974 8.997 C 19.503 9.056,19.818 9.284,19.941 9.697 C 20.017 9.952,20.015 10.101,19.934 10.340 C 19.808 10.709,19.396 11.000,19.000 11.000 C 18.775 11.000,18.515 10.894,18.298 10.713 C 18.189 10.623,18.039 10.523,17.965 10.492 C 17.758 10.404,17.359 10.419,17.153 10.522 C 17.037 10.579,16.417 11.170,15.279 12.304 L 13.579 14.000 13.001 14.000 L 12.423 14.000 14.446 11.970 C 16.625 9.784,16.575 9.844,16.575 9.420 C 16.575 9.139,16.501 8.951,16.296 8.711 C 16.114 8.498,16.000 8.215,16.000 7.980 C 16.000 7.599,16.309 7.175,16.667 7.065 C 16.920 6.987,17.061 6.987,17.316 7.063 M18.848 16.250 C 19.489 16.995,19.746 17.612,19.872 18.710 L 19.906 19.000 11.975 19.000 L 4.045 19.000 4.067 18.850 C 4.227 17.738,4.544 16.940,5.085 16.290 L 5.326 16.000 11.980 16.000 L 18.633 16.000 18.848 16.250 " stroke="none" fill-rule="evenodd" fill="black"></path></svg>