<svg xmlns="http://www.w3.org/2000/svg" width="24" height="24" viewBox="0 0 24 24" fill="none" stroke="currentColor" stroke-width="2" stroke-linecap="round" stroke-linejoin="round"><path d="M7.499 2.043 C 6.389 2.232,5.488 3.024,5.114 4.140 L 5.020 4.420 5.009 12.210 L 4.999 20.000 3.946 20.000 C 2.797 20.000,2.644 20.022,2.382 20.221 C 2.302 20.282,2.187 20.415,2.128 20.516 C 2.037 20.672,2.020 20.746,2.020 21.000 C 2.020 21.256,2.036 21.328,2.131 21.489 C 2.256 21.702,2.449 21.864,2.670 21.943 C 2.893 22.023,21.107 22.023,21.330 21.943 C 21.551 21.864,21.744 21.702,21.869 21.489 C 21.964 21.328,21.980 21.256,21.980 21.000 C 21.980 20.746,21.963 20.672,21.872 20.516 C 21.813 20.415,21.698 20.282,21.618 20.221 C 21.356 20.022,21.203 20.000,20.054 20.000 L 19.001 20.000 18.991 12.210 L 18.980 4.420 18.886 4.140 C 18.556 3.158,17.821 2.424,16.861 2.121 L 16.540 2.020 12.120 2.014 C 9.689 2.011,7.609 2.024,7.499 2.043 M16.310 4.061 C 16.589 4.144,16.856 4.411,16.939 4.690 C 16.993 4.870,17.000 5.802,17.000 12.447 L 17.000 20.000 12.000 20.000 L 7.000 20.000 7.000 12.447 C 7.000 3.955,6.975 4.632,7.304 4.303 C 7.618 3.989,7.346 4.006,11.983 4.003 C 15.563 4.000,16.132 4.008,16.310 4.061 M13.695 11.057 C 13.466 11.129,13.256 11.299,13.128 11.516 C 13.036 11.672,13.020 11.745,13.021 12.000 C 13.022 12.332,13.101 12.533,13.306 12.728 C 13.785 13.181,14.580 13.046,14.893 12.460 C 15.025 12.211,15.015 11.760,14.872 11.516 C 14.628 11.101,14.150 10.915,13.695 11.057 " stroke="none" fill-rule="evenodd" fill="black"></path></svg>