<svg xmlns="http://www.w3.org/2000/svg" width="24" height="24" viewBox="0 0 24 24" fill="none" stroke="currentColor" stroke-width="2" stroke-linecap="round" stroke-linejoin="round"><path d="M6.499 2.043 C 5.393 2.228,4.488 3.024,4.114 4.140 L 4.020 4.420 4.009 12.210 L 3.999 20.000 3.446 20.000 C 2.648 20.000,2.367 20.110,2.128 20.516 C 2.037 20.672,2.020 20.746,2.020 21.000 C 2.020 21.256,2.036 21.328,2.131 21.489 C 2.256 21.702,2.449 21.864,2.670 21.943 C 2.893 22.023,21.107 22.023,21.330 21.943 C 21.551 21.864,21.744 21.702,21.869 21.489 C 21.964 21.328,21.980 21.256,21.980 21.000 C 21.980 20.746,21.963 20.672,21.872 20.516 C 21.813 20.415,21.698 20.282,21.618 20.221 C 21.342 20.011,21.242 20.000,19.554 20.000 L 18.000 20.000 18.000 16.650 L 17.999 13.300 17.905 13.100 C 17.722 12.714,17.419 12.520,17.000 12.520 C 16.581 12.520,16.278 12.714,16.095 13.100 L 16.001 13.300 16.000 16.650 L 16.000 20.000 11.000 20.000 L 6.000 20.000 6.000 12.447 C 6.000 3.956,5.975 4.631,6.303 4.303 C 6.618 3.988,6.471 4.000,10.037 3.998 C 12.558 3.997,13.210 3.986,13.330 3.943 C 13.551 3.864,13.744 3.702,13.869 3.489 C 13.964 3.328,13.980 3.256,13.980 3.000 C 13.980 2.746,13.963 2.672,13.872 2.516 C 13.813 2.415,13.698 2.282,13.618 2.221 C 13.323 1.996,13.382 2.000,9.904 2.005 C 8.142 2.007,6.609 2.025,6.499 2.043 M16.640 3.069 C 16.488 3.121,16.208 3.381,14.847 4.735 C 13.960 5.618,13.186 6.421,13.127 6.520 C 13.037 6.672,13.020 6.746,13.020 7.000 C 13.020 7.254,13.036 7.328,13.127 7.480 C 13.261 7.704,16.371 10.807,16.555 10.899 C 17.009 11.128,17.601 10.944,17.867 10.492 C 17.964 10.327,17.980 10.258,17.979 10.000 C 17.979 9.787,17.957 9.660,17.904 9.560 C 17.864 9.483,17.514 9.101,17.127 8.710 L 16.423 8.000 18.801 7.998 C 20.684 7.997,21.211 7.985,21.330 7.943 C 21.551 7.864,21.744 7.702,21.869 7.489 C 21.964 7.328,21.980 7.256,21.980 7.000 C 21.980 6.746,21.963 6.672,21.872 6.516 C 21.813 6.415,21.698 6.282,21.618 6.221 C 21.330 6.002,21.307 6.000,18.765 6.000 L 16.423 6.000 17.127 5.290 C 17.514 4.899,17.864 4.517,17.904 4.440 C 17.957 4.340,17.979 4.213,17.979 4.000 C 17.980 3.745,17.964 3.672,17.872 3.516 C 17.617 3.083,17.121 2.902,16.640 3.069 M12.695 11.057 C 12.466 11.129,12.256 11.299,12.128 11.516 C 12.036 11.672,12.020 11.745,12.021 12.000 C 12.022 12.332,12.101 12.533,12.306 12.728 C 12.785 13.181,13.580 13.046,13.893 12.460 C 14.025 12.211,14.015 11.760,13.872 11.516 C 13.628 11.101,13.150 10.915,12.695 11.057 " stroke="none" fill-rule="evenodd" fill="black"></path></svg>