<svg xmlns="http://www.w3.org/2000/svg" width="24" height="24" viewBox="0 0 24 24" fill="none" stroke="currentColor" stroke-width="2" stroke-linecap="round" stroke-linejoin="round"><path d="M2.670 2.061 C 2.448 2.142,2.250 2.309,2.128 2.516 C 2.037 2.672,2.020 2.746,2.020 3.000 C 2.020 3.254,2.036 3.327,2.127 3.480 C 2.189 3.583,4.099 5.523,6.617 8.040 L 11.000 12.420 11.000 12.998 L 11.000 13.577 9.270 11.854 C 7.721 10.312,7.519 10.124,7.343 10.066 C 6.863 9.906,6.382 10.084,6.128 10.516 C 6.036 10.672,6.020 10.745,6.021 11.000 C 6.021 11.212,6.043 11.341,6.095 11.440 C 6.135 11.517,7.341 12.756,8.774 14.194 C 11.608 17.037,11.565 17.000,12.000 16.999 C 12.374 16.998,12.510 16.906,13.290 16.129 L 14.000 15.421 16.220 17.640 C 17.441 18.861,18.440 19.871,18.440 19.885 C 18.440 19.995,17.965 20.003,11.900 19.991 L 5.700 19.980 5.516 19.872 C 5.327 19.761,5.157 19.570,5.071 19.373 C 5.037 19.295,5.015 18.865,5.001 17.980 L 4.980 16.700 4.871 16.514 C 4.479 15.848,3.521 15.848,3.129 16.514 L 3.020 16.700 3.020 18.120 C 3.020 19.497,3.023 19.549,3.114 19.840 C 3.418 20.816,4.149 21.554,5.140 21.886 L 5.420 21.980 11.820 21.992 C 16.357 22.000,18.295 21.990,18.478 21.959 C 18.942 21.880,19.463 21.657,19.796 21.395 L 19.892 21.319 20.156 21.573 C 20.519 21.923,20.633 21.978,21.000 21.979 C 21.258 21.980,21.327 21.964,21.492 21.867 C 21.968 21.587,22.139 20.967,21.865 20.508 C 21.810 20.416,17.665 16.243,12.653 11.235 C 4.231 2.820,3.525 2.125,3.343 2.065 C 3.107 1.987,2.874 1.986,2.670 2.061 M11.695 3.057 C 11.466 3.129,11.256 3.299,11.128 3.516 L 11.020 3.700 11.020 6.003 L 11.020 8.306 11.141 8.503 C 11.543 9.156,12.457 9.156,12.859 8.503 L 12.980 8.306 12.980 6.003 L 12.980 3.700 12.872 3.516 C 12.628 3.101,12.150 2.915,11.695 3.057 M16.641 10.069 C 16.503 10.118,16.321 10.271,15.847 10.736 C 15.509 11.068,15.188 11.416,15.133 11.508 C 14.862 11.970,15.033 12.588,15.508 12.867 C 15.673 12.964,15.742 12.980,16.000 12.979 C 16.214 12.979,16.340 12.957,16.440 12.904 C 16.634 12.801,17.743 11.700,17.873 11.480 C 17.963 11.328,17.980 11.253,17.980 11.000 C 17.980 10.746,17.963 10.672,17.872 10.516 C 17.617 10.083,17.117 9.901,16.641 10.069 " stroke="none" fill-rule="evenodd" fill="black"></path></svg>