<svg xmlns="http://www.w3.org/2000/svg" width="24" height="24" viewBox="0 0 24 24" fill="none" stroke="currentColor" stroke-width="2" stroke-linecap="round" stroke-linejoin="round"><path d="M3.695 3.057 C 3.466 3.129,3.256 3.299,3.128 3.516 C 2.985 3.760,2.975 4.211,3.107 4.460 C 3.490 5.177,4.510 5.177,4.893 4.460 C 5.025 4.211,5.015 3.760,4.872 3.516 C 4.628 3.101,4.150 2.915,3.695 3.057 M7.695 3.057 C 7.466 3.129,7.256 3.299,7.128 3.516 C 6.985 3.760,6.975 4.211,7.107 4.460 C 7.490 5.177,8.510 5.177,8.893 4.460 C 9.025 4.211,9.015 3.760,8.872 3.516 C 8.628 3.101,8.150 2.915,7.695 3.057 M11.695 3.057 C 11.466 3.129,11.256 3.299,11.128 3.516 C 10.985 3.760,10.975 4.211,11.107 4.460 C 11.490 5.177,12.510 5.177,12.893 4.460 C 13.025 4.211,13.015 3.760,12.872 3.516 C 12.628 3.101,12.150 2.915,11.695 3.057 M15.695 3.057 C 15.466 3.129,15.256 3.299,15.128 3.516 C 14.985 3.760,14.975 4.211,15.107 4.460 C 15.490 5.177,16.510 5.177,16.893 4.460 C 17.025 4.211,17.015 3.760,16.872 3.516 C 16.628 3.101,16.150 2.915,15.695 3.057 M3.695 7.057 C 3.466 7.129,3.256 7.299,3.128 7.516 C 3.036 7.672,3.020 7.745,3.021 8.000 C 3.022 8.332,3.101 8.533,3.306 8.728 C 3.785 9.181,4.580 9.046,4.893 8.460 C 5.025 8.211,5.015 7.760,4.872 7.516 C 4.628 7.101,4.150 6.915,3.695 7.057 M9.499 7.043 C 8.379 7.234,7.461 8.048,7.114 9.160 L 7.020 9.460 7.020 14.000 L 7.020 18.540 7.114 18.840 C 7.422 19.827,8.173 20.578,9.160 20.886 L 9.460 20.980 14.000 20.980 L 18.540 20.980 18.840 20.886 C 19.827 20.578,20.578 19.827,20.886 18.840 L 20.980 18.540 20.980 14.000 L 20.980 9.460 20.886 9.160 C 20.581 8.182,19.832 7.428,18.861 7.121 L 18.540 7.020 14.120 7.014 C 11.689 7.011,9.609 7.024,9.499 7.043 M18.310 9.061 C 18.589 9.144,18.856 9.411,18.939 9.690 C 18.992 9.867,19.000 10.441,19.000 14.001 C 19.000 18.458,19.007 18.319,18.779 18.618 C 18.718 18.698,18.585 18.813,18.484 18.872 L 18.300 18.980 14.000 18.980 L 9.700 18.980 9.516 18.872 C 9.303 18.747,9.141 18.550,9.058 18.316 C 8.969 18.062,8.971 9.992,9.061 9.690 C 9.140 9.421,9.412 9.143,9.673 9.063 C 9.962 8.974,18.011 8.972,18.310 9.061 M3.695 11.057 C 3.466 11.129,3.256 11.299,3.128 11.516 C 3.036 11.672,3.020 11.745,3.021 12.000 C 3.022 12.332,3.101 12.533,3.306 12.728 C 3.785 13.181,4.580 13.046,4.893 12.460 C 5.025 12.211,5.015 11.760,4.872 11.516 C 4.628 11.101,4.150 10.915,3.695 11.057 M3.695 15.057 C 3.466 15.129,3.256 15.299,3.128 15.516 C 3.036 15.672,3.020 15.745,3.021 16.000 C 3.022 16.332,3.101 16.533,3.306 16.728 C 3.785 17.181,4.580 17.046,4.893 16.460 C 5.025 16.211,5.015 15.760,4.872 15.516 C 4.628 15.101,4.150 14.915,3.695 15.057 " stroke="none" fill-rule="evenodd" fill="black"></path></svg>