<svg xmlns="http://www.w3.org/2000/svg" width="24" height="24" viewBox="0 0 24 24" fill="none" stroke="currentColor" stroke-width="2" stroke-linecap="round" stroke-linejoin="round"><path d="M11.491 2.060 C 10.998 2.168,10.492 2.465,10.176 2.833 C 10.103 2.920,8.915 4.662,7.537 6.705 C 5.491 9.740,4.986 10.515,4.779 10.940 C 4.004 12.530,3.807 14.240,4.202 15.952 C 4.846 18.747,7.101 21.019,9.940 21.734 C 10.756 21.940,11.049 21.975,11.960 21.978 C 13.130 21.981,13.429 21.922,13.717 21.633 C 14.199 21.151,14.062 20.333,13.450 20.034 C 13.283 19.953,13.217 19.944,12.900 19.960 C 12.122 20.000,11.266 19.977,10.900 19.905 C 10.068 19.741,9.213 19.391,8.531 18.934 C 8.094 18.641,7.469 18.045,7.144 17.612 C 5.859 15.900,5.651 13.648,6.604 11.753 C 6.828 11.307,11.656 4.155,11.790 4.070 C 11.850 4.032,11.945 4.000,12.000 4.000 C 12.055 4.000,12.150 4.032,12.211 4.070 C 12.372 4.172,17.113 11.216,17.400 11.780 C 17.660 12.292,17.775 12.637,17.905 13.288 C 18.019 13.861,18.067 13.978,18.265 14.168 C 18.667 14.552,19.257 14.547,19.648 14.156 C 19.915 13.888,19.987 13.629,19.923 13.166 C 19.814 12.390,19.527 11.509,19.146 10.780 C 18.827 10.168,13.955 2.952,13.673 2.673 C 13.139 2.144,12.253 1.895,11.491 2.060 M16.695 16.057 C 16.466 16.129,16.256 16.299,16.128 16.516 L 16.020 16.700 16.020 19.503 L 16.020 22.306 16.141 22.503 C 16.543 23.156,17.457 23.156,17.859 22.503 L 17.980 22.306 17.980 19.503 L 17.980 16.700 17.872 16.516 C 17.628 16.101,17.150 15.915,16.695 16.057 M20.695 16.057 C 20.466 16.129,20.256 16.299,20.128 16.516 L 20.020 16.700 20.020 19.503 L 20.020 22.306 20.141 22.503 C 20.543 23.156,21.457 23.156,21.859 22.503 L 21.980 22.306 21.980 19.503 L 21.980 16.700 21.872 16.516 C 21.628 16.101,21.150 15.915,20.695 16.057 " stroke="none" fill-rule="evenodd" fill="black"></path></svg>