<svg xmlns="http://www.w3.org/2000/svg" width="24" height="24" viewBox="0 0 24 24" fill="none" stroke="currentColor" stroke-width="2" stroke-linecap="round" stroke-linejoin="round"><path d="M11.491 2.060 C 10.998 2.168,10.492 2.465,10.176 2.833 C 10.103 2.920,8.915 4.662,7.537 6.705 C 5.491 9.740,4.986 10.515,4.779 10.940 C 4.004 12.530,3.807 14.240,4.202 15.952 C 4.831 18.683,6.997 20.920,9.760 21.692 C 10.995 22.038,12.481 22.091,13.680 21.834 C 14.456 21.668,15.460 21.291,15.831 21.027 C 16.012 20.898,16.175 20.617,16.222 20.353 C 16.283 20.005,16.024 19.538,15.663 19.349 C 15.380 19.200,15.063 19.228,14.559 19.448 C 13.606 19.862,13.058 19.978,12.040 19.979 C 11.183 19.980,10.768 19.918,10.039 19.680 C 8.383 19.140,7.026 17.869,6.387 16.260 C 5.821 14.835,5.902 13.149,6.604 11.753 C 6.828 11.307,11.656 4.155,11.790 4.070 C 11.850 4.032,11.945 4.000,12.000 4.000 C 12.055 4.000,12.150 4.032,12.211 4.070 C 12.279 4.113,13.270 5.550,14.784 7.800 C 16.139 9.813,17.295 11.511,17.354 11.574 C 17.542 11.774,17.749 11.858,18.060 11.858 C 18.269 11.858,18.381 11.836,18.500 11.772 C 18.950 11.532,19.163 11.042,19.012 10.596 C 18.906 10.284,13.986 2.983,13.673 2.673 C 13.139 2.144,12.253 1.895,11.491 2.060 M18.440 14.058 C 17.838 14.187,17.375 14.431,16.957 14.839 C 16.601 15.186,16.510 15.362,16.510 15.700 C 16.510 16.008,16.633 16.278,16.855 16.455 C 17.079 16.633,17.247 16.694,17.514 16.691 C 17.804 16.689,18.001 16.601,18.255 16.362 C 18.613 16.027,18.899 15.941,19.284 16.054 C 19.720 16.182,19.978 16.533,19.979 17.000 C 19.980 17.218,19.960 17.295,19.856 17.479 C 19.701 17.752,19.434 17.946,19.169 17.979 C 18.764 18.029,18.565 18.088,18.405 18.205 C 17.835 18.625,17.886 19.502,18.501 19.863 C 18.958 20.131,19.923 19.974,20.622 19.519 C 20.911 19.331,21.369 18.866,21.553 18.575 C 21.851 18.102,22.030 17.365,21.987 16.788 C 21.893 15.520,21.004 14.438,19.780 14.102 C 19.448 14.010,18.765 13.988,18.440 14.058 M18.695 21.057 C 18.466 21.129,18.256 21.299,18.128 21.516 C 18.036 21.672,18.020 21.745,18.021 22.000 C 18.022 22.332,18.101 22.533,18.306 22.728 C 18.785 23.181,19.580 23.046,19.893 22.460 C 20.025 22.211,20.015 21.760,19.872 21.516 C 19.628 21.101,19.150 20.915,18.695 21.057 " stroke="none" fill-rule="evenodd" fill="black"></path></svg>