<svg xmlns="http://www.w3.org/2000/svg" width="24" height="24" viewBox="0 0 24 24" fill="none" stroke="currentColor" stroke-width="2" stroke-linecap="round" stroke-linejoin="round"><path d="M11.491 2.060 C 10.998 2.168,10.492 2.465,10.176 2.833 C 10.103 2.920,8.915 4.662,7.537 6.705 C 5.491 9.740,4.986 10.515,4.779 10.940 C 4.004 12.530,3.807 14.240,4.202 15.952 C 4.720 18.200,6.287 20.143,8.420 21.181 C 9.310 21.614,10.175 21.858,11.190 21.961 C 11.536 21.996,11.643 21.993,11.815 21.943 C 12.422 21.767,12.717 21.073,12.419 20.525 C 12.229 20.176,11.968 20.026,11.480 19.982 C 10.729 19.916,9.871 19.677,9.241 19.361 C 8.216 18.845,7.254 17.928,6.713 16.950 C 5.819 15.335,5.778 13.395,6.604 11.753 C 6.828 11.307,11.656 4.155,11.790 4.070 C 11.850 4.032,11.945 4.000,12.000 4.000 C 12.055 4.000,12.150 4.032,12.211 4.070 C 12.328 4.144,17.048 11.113,17.324 11.621 C 17.640 12.200,17.822 12.755,17.939 13.493 C 18.008 13.930,18.089 14.120,18.286 14.306 C 18.567 14.570,18.888 14.650,19.244 14.546 C 19.527 14.463,19.730 14.290,19.863 14.017 C 19.964 13.811,19.970 13.771,19.947 13.448 C 19.892 12.671,19.611 11.711,19.204 10.903 C 18.851 10.204,14.024 3.020,13.673 2.673 C 13.139 2.144,12.253 1.895,11.491 2.060 M20.640 16.068 C 20.488 16.121,20.196 16.394,18.731 17.853 L 17.002 19.575 16.271 18.855 C 15.655 18.247,15.509 18.123,15.343 18.067 C 14.865 17.905,14.383 18.083,14.128 18.516 C 14.036 18.672,14.020 18.745,14.021 19.000 C 14.021 19.213,14.043 19.341,14.095 19.440 C 14.197 19.633,16.297 21.740,16.520 21.873 C 16.673 21.964,16.745 21.980,17.000 21.979 C 17.212 21.979,17.341 21.957,17.440 21.905 C 17.632 21.805,21.739 17.705,21.873 17.480 C 21.964 17.328,21.980 17.254,21.980 17.000 C 21.980 16.746,21.963 16.672,21.872 16.516 C 21.617 16.083,21.121 15.903,20.640 16.068 " stroke="none" fill-rule="evenodd" fill="black"></path></svg>