<svg xmlns="http://www.w3.org/2000/svg" width="24" height="24" viewBox="0 0 24 24" fill="none" stroke="currentColor" stroke-width="2" stroke-linecap="round" stroke-linejoin="round"><path d="M11.491 2.060 C 10.998 2.168,10.492 2.465,10.176 2.833 C 10.103 2.920,8.915 4.662,7.537 6.705 C 5.491 9.740,4.986 10.515,4.779 10.940 C 4.004 12.530,3.807 14.240,4.202 15.952 C 4.537 17.406,5.300 18.729,6.408 19.777 C 7.621 20.924,8.959 21.585,10.720 21.908 C 11.009 21.961,11.317 21.977,12.000 21.977 C 13.030 21.977,13.554 21.909,13.916 21.728 C 14.591 21.391,14.635 20.421,13.995 20.017 C 13.739 19.855,13.537 19.838,12.944 19.927 C 11.726 20.111,10.448 19.924,9.324 19.397 C 8.289 18.912,7.270 17.957,6.713 16.950 C 5.819 15.335,5.778 13.395,6.604 11.753 C 6.828 11.307,11.656 4.155,11.790 4.070 C 11.850 4.032,11.945 4.000,12.000 4.000 C 12.055 4.000,12.150 4.032,12.211 4.070 C 12.313 4.134,16.991 11.025,17.287 11.548 C 17.352 11.662,17.494 11.959,17.602 12.208 C 17.752 12.552,17.837 12.695,17.962 12.808 C 18.382 13.188,18.984 13.153,19.371 12.725 C 19.542 12.535,19.660 12.183,19.625 11.965 C 19.592 11.753,19.362 11.188,19.134 10.755 C 18.816 10.152,13.945 2.943,13.673 2.673 C 13.139 2.144,12.253 1.895,11.491 2.060 M18.668 15.061 C 18.585 15.092,18.462 15.156,18.395 15.203 C 18.260 15.300,16.136 18.454,16.054 18.680 C 15.893 19.127,16.117 19.673,16.550 19.886 C 16.733 19.977,16.784 19.981,17.930 20.000 L 19.120 20.020 18.600 20.800 C 17.971 21.741,17.914 21.905,18.061 22.322 C 18.284 22.955,18.992 23.187,19.570 22.815 C 19.686 22.741,19.972 22.342,20.805 21.093 C 21.401 20.198,21.917 19.387,21.950 19.289 C 22.074 18.926,21.931 18.460,21.625 18.226 C 21.365 18.028,21.326 18.023,20.070 18.001 L 18.880 17.980 19.383 17.225 C 19.660 16.810,19.912 16.399,19.943 16.310 C 20.212 15.550,19.428 14.782,18.668 15.061 " stroke="none" fill-rule="evenodd" fill="black"></path></svg>