<svg xmlns="http://www.w3.org/2000/svg" width="24" height="24" viewBox="0 0 24 24" fill="none" stroke="currentColor" stroke-width="2" stroke-linecap="round" stroke-linejoin="round"><path d="M11.491 2.060 C 10.998 2.168,10.492 2.465,10.176 2.833 C 10.103 2.920,8.915 4.662,7.537 6.705 C 5.491 9.740,4.986 10.515,4.779 10.940 C 4.004 12.530,3.807 14.240,4.202 15.952 C 4.717 18.188,6.240 20.084,8.368 21.140 C 8.960 21.433,9.724 21.705,10.280 21.821 C 11.099 21.992,12.037 22.048,12.330 21.943 C 13.002 21.703,13.215 20.835,12.726 20.331 C 12.487 20.085,12.331 20.032,11.741 19.996 C 10.165 19.899,8.852 19.344,7.793 18.328 C 7.146 17.707,6.702 17.054,6.387 16.260 C 5.821 14.835,5.902 13.149,6.604 11.753 C 6.828 11.307,11.656 4.155,11.790 4.070 C 11.850 4.032,11.945 4.000,12.000 4.000 C 12.055 4.000,12.150 4.032,12.211 4.070 C 12.336 4.149,17.065 11.141,17.344 11.660 C 17.559 12.061,17.696 12.421,17.838 12.962 C 17.899 13.194,17.978 13.438,18.012 13.505 C 18.113 13.700,18.374 13.908,18.615 13.984 C 18.805 14.044,18.867 14.047,19.053 14.005 C 19.538 13.897,19.880 13.496,19.880 13.037 C 19.880 12.637,19.531 11.549,19.184 10.864 C 18.845 10.197,14.003 3.000,13.673 2.673 C 13.139 2.144,12.253 1.895,11.491 2.060 M16.240 16.037 C 15.794 16.173,15.512 16.546,15.512 17.000 C 15.512 17.405,15.719 17.724,16.100 17.905 C 16.296 17.997,16.324 17.999,17.439 18.000 L 18.579 18.000 16.874 19.710 C 15.936 20.651,15.138 21.481,15.101 21.555 C 14.872 22.010,15.056 22.601,15.508 22.867 C 15.673 22.964,15.742 22.980,16.000 22.979 C 16.212 22.979,16.341 22.957,16.440 22.905 C 16.517 22.865,17.350 22.064,18.290 21.126 L 20.000 19.421 20.000 20.561 C 20.001 21.676,20.003 21.704,20.095 21.900 C 20.276 22.281,20.595 22.488,21.000 22.488 C 21.405 22.488,21.724 22.281,21.905 21.900 L 21.999 21.700 21.999 19.240 L 21.999 16.780 21.905 16.580 C 21.791 16.340,21.642 16.193,21.400 16.083 C 21.225 16.004,21.152 16.002,18.780 16.004 C 17.438 16.006,16.295 16.021,16.240 16.037 " stroke="none" fill-rule="evenodd" fill="black"></path></svg>