<svg xmlns="http://www.w3.org/2000/svg" width="24" height="24" viewBox="0 0 24 24" fill="none" stroke="currentColor" stroke-width="2" stroke-linecap="round" stroke-linejoin="round"><path d="M11.491 2.060 C 10.998 2.168,10.492 2.465,10.176 2.833 C 10.103 2.920,8.915 4.662,7.537 6.705 C 5.491 9.740,4.986 10.515,4.779 10.940 C 4.004 12.530,3.807 14.240,4.202 15.952 C 4.584 17.610,5.574 19.165,6.936 20.250 C 8.383 21.402,10.292 22.041,12.146 21.994 C 12.668 21.980,12.763 21.967,12.930 21.886 C 13.306 21.702,13.561 21.245,13.498 20.869 C 13.434 20.485,13.160 20.148,12.827 20.045 C 12.757 20.024,12.358 19.998,11.940 19.988 C 11.105 19.969,10.553 19.873,9.912 19.637 C 8.270 19.032,7.007 17.822,6.387 16.260 C 5.821 14.835,5.902 13.149,6.604 11.753 C 6.828 11.307,11.656 4.155,11.790 4.070 C 11.850 4.032,11.945 4.000,12.000 4.000 C 12.055 4.000,12.150 4.032,12.211 4.070 C 12.337 4.150,17.070 11.149,17.343 11.660 C 17.437 11.836,17.564 12.105,17.625 12.259 C 17.864 12.861,18.379 13.125,18.940 12.934 C 19.352 12.794,19.636 12.342,19.588 11.905 C 19.563 11.680,19.336 11.122,19.075 10.645 C 18.983 10.477,17.781 8.666,16.404 6.621 C 14.695 4.082,13.828 2.829,13.674 2.674 C 13.146 2.146,12.254 1.895,11.491 2.060 M18.580 15.096 C 18.424 15.171,18.029 15.545,16.774 16.806 C 15.891 17.694,15.135 18.483,15.095 18.560 C 15.043 18.659,15.021 18.788,15.021 19.000 C 15.020 19.258,15.036 19.327,15.133 19.492 C 15.263 19.714,15.502 19.901,15.736 19.965 C 15.939 20.019,16.267 19.989,16.445 19.899 C 16.519 19.861,16.899 19.514,17.289 19.128 L 17.997 18.426 18.009 20.366 L 18.020 22.306 18.141 22.503 C 18.543 23.156,19.457 23.156,19.859 22.503 L 19.980 22.306 19.991 20.366 L 20.003 18.426 20.711 19.128 C 21.101 19.514,21.483 19.864,21.560 19.904 C 21.660 19.957,21.787 19.979,22.000 19.979 C 22.258 19.980,22.327 19.964,22.492 19.867 C 22.714 19.737,22.901 19.498,22.965 19.264 C 23.019 19.061,22.989 18.733,22.899 18.555 C 22.862 18.481,22.109 17.694,21.226 16.806 C 19.472 15.043,19.420 15.001,19.000 15.001 C 18.851 15.001,18.716 15.031,18.580 15.096 " stroke="none" fill-rule="evenodd" fill="black"></path></svg>