<svg xmlns="http://www.w3.org/2000/svg" width="24" height="24" viewBox="0 0 24 24" fill="none" stroke="currentColor" stroke-width="2" stroke-linecap="round" stroke-linejoin="round"><path d="M11.491 2.060 C 10.998 2.168,10.492 2.465,10.176 2.833 C 10.103 2.920,8.915 4.662,7.537 6.705 C 5.491 9.740,4.986 10.515,4.779 10.940 C 4.004 12.530,3.807 14.240,4.202 15.952 C 4.858 18.799,7.181 21.093,10.102 21.780 C 11.184 22.034,12.678 22.070,13.420 21.860 C 13.949 21.709,14.233 21.155,14.076 20.580 C 14.014 20.352,13.677 20.032,13.425 19.961 C 13.265 19.917,13.147 19.916,12.720 19.960 C 10.853 20.150,9.083 19.562,7.788 18.322 C 7.147 17.708,6.702 17.052,6.387 16.260 C 5.821 14.835,5.902 13.149,6.604 11.753 C 6.828 11.307,11.656 4.155,11.790 4.070 C 11.930 3.982,12.070 3.982,12.211 4.070 C 12.372 4.172,17.113 11.216,17.400 11.780 C 17.664 12.300,17.771 12.623,17.916 13.339 C 18.043 13.968,18.136 14.139,18.450 14.318 C 18.727 14.477,18.935 14.505,19.218 14.422 C 19.478 14.347,19.722 14.147,19.853 13.903 C 20.088 13.461,19.784 12.053,19.204 10.903 C 18.851 10.204,14.024 3.020,13.673 2.673 C 13.139 2.144,12.253 1.895,11.491 2.060 M16.670 16.061 C 16.448 16.142,16.250 16.309,16.128 16.516 C 16.037 16.672,16.020 16.746,16.020 17.000 C 16.020 17.254,16.036 17.328,16.127 17.480 C 16.186 17.579,16.650 18.074,17.157 18.579 L 18.079 19.499 17.124 20.459 C 16.599 20.988,16.138 21.481,16.101 21.555 C 15.872 22.009,16.056 22.601,16.508 22.867 C 16.673 22.964,16.743 22.980,17.000 22.980 C 17.254 22.980,17.328 22.964,17.480 22.873 C 17.579 22.814,18.074 22.350,18.579 21.843 L 19.499 20.921 20.459 21.876 C 20.988 22.401,21.483 22.864,21.560 22.905 C 21.659 22.957,21.787 22.979,22.000 22.979 C 22.258 22.980,22.327 22.964,22.492 22.867 C 22.714 22.737,22.901 22.498,22.965 22.264 C 23.019 22.061,22.989 21.733,22.899 21.555 C 22.862 21.481,22.401 20.988,21.876 20.459 L 20.921 19.499 21.843 18.579 C 22.350 18.074,22.814 17.579,22.873 17.480 C 22.964 17.328,22.980 17.254,22.980 17.000 C 22.980 16.746,22.963 16.672,22.872 16.516 C 22.618 16.084,22.136 15.905,21.657 16.066 C 21.486 16.124,21.330 16.262,20.480 17.104 L 19.500 18.076 18.520 17.104 C 17.671 16.262,17.514 16.124,17.343 16.066 C 17.108 15.987,16.875 15.985,16.670 16.061 " stroke="none" fill-rule="evenodd" fill="black"></path></svg>