<svg xmlns="http://www.w3.org/2000/svg" width="24" height="24" viewBox="0 0 24 24" fill="none" stroke="currentColor" stroke-width="2" stroke-linecap="round" stroke-linejoin="round"><path d="M2.670 2.061 C 2.448 2.142,2.250 2.309,2.128 2.516 C 2.037 2.672,2.020 2.746,2.020 3.000 C 2.020 3.254,2.036 3.327,2.127 3.480 C 2.187 3.579,3.220 4.644,4.434 5.856 L 6.632 8.052 5.810 9.274 C 5.235 10.127,4.918 10.641,4.757 10.978 C 4.001 12.563,3.812 14.260,4.202 15.952 C 4.717 18.188,6.240 20.084,8.368 21.140 C 9.519 21.710,10.741 22.000,12.000 22.000 C 13.284 22.000,14.500 21.707,15.677 21.114 C 16.410 20.745,17.033 20.311,17.590 19.782 L 17.986 19.405 19.163 20.585 C 19.810 21.234,20.421 21.814,20.520 21.873 C 20.672 21.964,20.746 21.980,21.000 21.980 C 21.257 21.980,21.327 21.964,21.492 21.867 C 21.968 21.587,22.139 20.967,21.865 20.508 C 21.810 20.416,17.665 16.243,12.653 11.235 C 4.231 2.820,3.525 2.125,3.343 2.065 C 3.107 1.987,2.874 1.986,2.670 2.061 M11.491 2.060 C 10.980 2.171,10.473 2.477,10.150 2.867 C 10.066 2.968,9.682 3.523,9.296 4.099 C 8.613 5.118,8.593 5.154,8.571 5.392 C 8.543 5.709,8.612 5.952,8.789 6.160 C 8.999 6.405,9.204 6.498,9.540 6.498 C 9.860 6.498,10.058 6.414,10.265 6.194 C 10.334 6.120,10.688 5.618,11.052 5.078 C 11.489 4.430,11.750 4.079,11.819 4.048 C 11.964 3.982,12.081 3.988,12.211 4.070 C 12.345 4.155,17.082 11.169,17.368 11.708 C 17.617 12.176,17.774 12.606,17.886 13.128 C 17.960 13.474,17.975 13.675,17.979 14.380 C 17.984 15.327,18.006 15.417,18.305 15.679 C 18.509 15.858,18.695 15.928,18.967 15.928 C 19.406 15.928,19.818 15.611,19.926 15.188 C 20.010 14.865,19.997 13.562,19.906 13.060 C 19.755 12.226,19.539 11.571,19.181 10.860 C 18.858 10.217,14.009 3.010,13.674 2.674 C 13.146 2.146,12.254 1.895,11.491 2.060 M12.333 13.753 L 16.565 17.985 16.184 18.350 C 15.354 19.143,14.289 19.680,13.099 19.905 C 12.543 20.010,11.457 20.010,10.901 19.905 C 10.407 19.811,9.779 19.610,9.341 19.405 C 8.291 18.913,7.272 17.961,6.713 16.950 C 5.826 15.347,5.779 13.409,6.588 11.780 C 6.723 11.509,8.034 9.520,8.078 9.520 C 8.090 9.520,10.005 11.425,12.333 13.753 " stroke="none" fill-rule="evenodd" fill="black"></path></svg>