<svg xmlns="http://www.w3.org/2000/svg" width="24" height="24" viewBox="0 0 24 24" fill="none" stroke="currentColor" stroke-width="2" stroke-linecap="round" stroke-linejoin="round"><path d="M11.491 2.060 C 10.998 2.168,10.492 2.465,10.176 2.833 C 10.103 2.920,8.915 4.662,7.537 6.705 C 5.491 9.740,4.986 10.515,4.779 10.940 C 4.004 12.530,3.807 14.240,4.202 15.952 C 4.584 17.610,5.574 19.165,6.936 20.250 C 8.088 21.167,9.618 21.788,11.154 21.962 C 11.713 22.026,12.770 21.994,12.965 21.907 C 13.719 21.574,13.801 20.586,13.113 20.131 C 12.947 20.020,12.942 20.020,12.063 19.995 C 11.092 19.968,10.600 19.886,9.919 19.637 C 8.540 19.134,7.386 18.167,6.713 16.950 C 5.819 15.335,5.778 13.395,6.604 11.753 C 6.828 11.307,11.656 4.155,11.790 4.070 C 11.850 4.032,11.945 4.000,12.000 4.000 C 12.055 4.000,12.150 4.032,12.211 4.070 C 12.346 4.155,17.081 11.168,17.368 11.708 C 17.616 12.174,17.773 12.604,17.887 13.128 C 17.965 13.485,17.977 13.663,17.979 14.460 C 17.982 15.453,17.989 15.494,18.204 15.738 C 18.657 16.254,19.488 16.159,19.819 15.554 C 19.955 15.306,20.018 14.691,19.986 13.940 C 19.938 12.839,19.680 11.848,19.182 10.860 C 18.850 10.202,14.007 3.004,13.673 2.673 C 13.139 2.144,12.253 1.895,11.491 2.060 M15.695 18.057 C 15.466 18.129,15.256 18.299,15.128 18.516 C 15.037 18.672,15.020 18.746,15.020 19.000 C 15.020 19.256,15.036 19.328,15.131 19.489 C 15.256 19.702,15.449 19.864,15.670 19.943 C 15.891 20.022,22.109 20.022,22.330 19.943 C 22.551 19.864,22.744 19.702,22.869 19.489 C 22.964 19.328,22.980 19.256,22.980 19.000 C 22.980 18.746,22.963 18.672,22.872 18.516 C 22.740 18.293,22.533 18.128,22.290 18.055 C 22.030 17.977,15.945 17.979,15.695 18.057 " stroke="none" fill-rule="evenodd" fill="black"></path></svg>