<svg xmlns="http://www.w3.org/2000/svg" width="24" height="24" viewBox="0 0 24 24" fill="none" stroke="currentColor" stroke-width="2" stroke-linecap="round" stroke-linejoin="round"><path d="M11.491 2.060 C 10.998 2.168,10.492 2.465,10.176 2.833 C 10.103 2.920,8.915 4.662,7.537 6.705 C 5.491 9.740,4.986 10.515,4.779 10.940 C 4.004 12.530,3.807 14.240,4.202 15.952 C 4.584 17.610,5.574 19.165,6.936 20.250 C 7.782 20.923,8.876 21.463,9.950 21.739 C 10.732 21.939,11.049 21.977,11.940 21.978 C 12.779 21.980,12.780 21.980,12.988 21.871 C 13.332 21.689,13.521 21.370,13.519 20.971 C 13.518 20.699,13.427 20.477,13.237 20.287 C 12.987 20.036,12.939 20.025,12.020 19.996 C 11.100 19.968,10.557 19.875,9.912 19.637 C 8.270 19.032,7.007 17.822,6.387 16.260 C 5.821 14.835,5.902 13.149,6.604 11.753 C 6.828 11.307,11.656 4.155,11.790 4.070 C 11.850 4.032,11.945 4.000,12.000 4.000 C 12.055 4.000,12.150 4.032,12.211 4.070 C 12.337 4.150,17.069 11.147,17.343 11.660 C 17.437 11.836,17.564 12.105,17.625 12.259 C 17.828 12.770,18.225 13.038,18.707 12.988 C 18.934 12.964,19.197 12.835,19.347 12.674 C 19.478 12.534,19.600 12.216,19.600 12.018 C 19.600 11.793,19.423 11.310,19.151 10.789 C 18.828 10.171,13.957 2.954,13.673 2.673 C 13.139 2.144,12.253 1.895,11.491 2.060 M18.695 15.057 C 18.466 15.129,18.256 15.299,18.128 15.516 L 18.020 15.700 18.008 16.850 L 17.995 18.000 16.944 18.000 C 15.797 18.000,15.643 18.022,15.382 18.221 C 15.302 18.282,15.187 18.415,15.128 18.516 C 15.037 18.672,15.020 18.746,15.020 19.000 C 15.020 19.256,15.036 19.328,15.131 19.489 C 15.192 19.592,15.304 19.725,15.381 19.783 C 15.642 19.983,15.738 19.996,16.908 19.998 L 17.995 20.000 18.008 21.153 L 18.020 22.307 18.141 22.503 C 18.543 23.156,19.457 23.156,19.859 22.503 L 19.980 22.307 19.992 21.153 L 20.005 20.000 21.092 19.998 C 22.262 19.996,22.358 19.983,22.619 19.783 C 22.696 19.725,22.808 19.592,22.869 19.489 C 22.964 19.328,22.980 19.256,22.980 19.000 C 22.980 18.746,22.963 18.672,22.872 18.516 C 22.813 18.415,22.698 18.282,22.618 18.221 C 22.357 18.022,22.203 18.000,21.056 18.000 L 20.005 18.000 19.992 16.850 L 19.980 15.700 19.872 15.516 C 19.628 15.101,19.150 14.915,18.695 15.057 " stroke="none" fill-rule="evenodd" fill="black"></path></svg>