<svg xmlns="http://www.w3.org/2000/svg" width="24" height="24" viewBox="0 0 24 24" fill="none" stroke="currentColor" stroke-width="2" stroke-linecap="round" stroke-linejoin="round"><path d="M4.580 3.094 C 4.343 3.205,4.155 3.405,4.064 3.646 C 4.003 3.806,3.999 4.454,4.009 11.563 L 4.020 19.306 4.141 19.502 C 4.207 19.609,4.333 19.747,4.421 19.807 C 4.510 19.868,6.371 20.589,8.660 21.448 C 12.605 22.929,12.749 22.980,13.020 22.980 C 13.254 22.980,13.331 22.962,13.489 22.869 C 13.592 22.808,13.725 22.696,13.783 22.619 C 13.983 22.358,13.996 22.262,13.998 21.091 L 14.000 20.002 16.650 19.991 L 19.300 19.980 19.492 19.867 C 19.709 19.739,19.901 19.498,19.961 19.278 C 19.987 19.179,19.997 16.501,19.990 11.414 L 19.980 3.700 19.872 3.516 C 19.740 3.293,19.533 3.128,19.290 3.055 C 19.138 3.009,17.899 3.000,11.944 3.000 L 4.780 3.001 4.580 3.094 M18.000 11.500 L 18.000 18.000 16.000 18.000 L 14.000 18.000 14.000 12.427 C 14.000 6.171,14.022 6.620,13.704 6.301 C 13.553 6.151,13.419 6.092,12.060 5.583 C 11.246 5.279,10.572 5.023,10.563 5.015 C 10.554 5.007,12.224 5.000,14.273 5.000 L 18.000 5.000 18.000 11.500 M9.190 6.642 L 12.000 7.695 12.000 14.127 L 12.000 20.559 11.750 20.466 C 11.613 20.414,10.263 19.908,8.750 19.341 L 6.000 18.310 6.000 11.876 L 6.000 5.441 6.190 5.515 C 6.295 5.556,7.645 6.063,9.190 6.642 " stroke="none" fill-rule="evenodd" fill="black"></path></svg>