<svg xmlns="http://www.w3.org/2000/svg" width="24" height="24" viewBox="0 0 24 24" fill="none" stroke="currentColor" stroke-width="2" stroke-linecap="round" stroke-linejoin="round"><path d="M20.668 2.061 C 20.585 2.092,20.464 2.155,20.400 2.200 C 20.335 2.246,20.005 2.701,19.666 3.212 C 17.860 5.931,15.726 8.695,13.624 11.040 C 12.956 11.785,11.200 13.541,10.580 14.084 C 8.452 15.948,6.714 17.063,5.076 17.616 C 4.416 17.838,3.878 17.949,3.233 17.996 C 2.962 18.015,2.689 18.051,2.627 18.076 C 2.437 18.150,2.241 18.323,2.128 18.516 C 2.037 18.672,2.020 18.746,2.020 19.000 C 2.020 19.257,2.036 19.327,2.133 19.492 C 2.263 19.714,2.502 19.901,2.736 19.965 C 2.954 20.025,3.691 19.986,4.280 19.884 C 8.849 19.094,14.449 14.143,20.507 5.540 C 21.110 4.684,21.920 3.427,21.959 3.287 C 22.175 2.508,21.416 1.787,20.668 2.061 M18.499 16.040 C 17.549 16.212,16.740 16.816,16.312 17.670 L 16.147 18.000 15.520 18.000 C 14.641 18.000,14.373 18.099,14.128 18.516 C 14.037 18.672,14.020 18.746,14.020 19.000 C 14.020 19.256,14.036 19.328,14.131 19.489 C 14.192 19.592,14.304 19.725,14.381 19.783 C 14.623 19.968,14.768 19.996,15.483 19.998 L 16.147 20.000 16.312 20.330 C 16.682 21.069,17.355 21.635,18.160 21.886 C 18.412 21.964,18.547 21.979,19.000 21.979 C 19.453 21.979,19.588 21.964,19.840 21.886 C 20.826 21.579,21.579 20.826,21.886 19.840 C 22.021 19.406,22.021 18.594,21.886 18.160 C 21.581 17.179,20.810 16.407,19.861 16.129 C 19.500 16.023,18.832 15.980,18.499 16.040 M9.695 18.057 C 9.466 18.129,9.256 18.299,9.128 18.516 C 9.037 18.672,9.020 18.746,9.020 19.000 C 9.020 19.256,9.036 19.328,9.131 19.489 C 9.256 19.702,9.449 19.864,9.670 19.943 C 9.885 20.020,12.115 20.020,12.330 19.943 C 12.551 19.864,12.744 19.702,12.869 19.489 C 12.964 19.328,12.980 19.256,12.980 19.000 C 12.980 18.746,12.963 18.672,12.872 18.516 C 12.740 18.293,12.533 18.128,12.290 18.055 C 12.039 17.979,9.937 17.981,9.695 18.057 M19.310 18.061 C 19.688 18.173,20.000 18.598,20.000 19.001 C 20.000 19.331,19.784 19.696,19.484 19.872 C 19.328 19.963,19.254 19.980,19.000 19.980 C 18.746 19.980,18.672 19.963,18.516 19.872 C 17.935 19.530,17.833 18.774,18.304 18.303 C 18.583 18.024,18.916 17.944,19.310 18.061 " stroke="none" fill-rule="evenodd" fill="black"></path></svg>