<svg xmlns="http://www.w3.org/2000/svg" width="24" height="24" viewBox="0 0 24 24" fill="none" stroke="currentColor" stroke-width="2" stroke-linecap="round" stroke-linejoin="round"><path d="M20.668 3.061 C 20.585 3.092,20.464 3.155,20.400 3.200 C 20.335 3.246,20.005 3.701,19.666 4.212 C 17.860 6.931,15.726 9.695,13.624 12.040 C 12.956 12.785,11.200 14.541,10.580 15.084 C 8.452 16.948,6.714 18.063,5.076 18.616 C 4.416 18.838,3.878 18.949,3.233 18.996 C 2.962 19.015,2.689 19.051,2.627 19.076 C 2.437 19.150,2.241 19.323,2.128 19.516 C 2.037 19.672,2.020 19.746,2.020 20.000 C 2.020 20.257,2.036 20.327,2.133 20.492 C 2.263 20.714,2.502 20.901,2.736 20.965 C 2.954 21.025,3.691 20.986,4.280 20.884 C 8.849 20.094,14.449 15.143,20.507 6.540 C 21.110 5.684,21.920 4.427,21.959 4.287 C 22.175 3.508,21.416 2.787,20.668 3.061 " stroke="none" fill-rule="evenodd" fill="black"></path></svg>