<svg xmlns="http://www.w3.org/2000/svg" width="24" height="24" viewBox="0 0 24 24" fill="none" stroke="currentColor" stroke-width="2" stroke-linecap="round" stroke-linejoin="round"><path d="M4.499 1.040 C 3.363 1.246,2.460 2.049,2.114 3.160 C 1.979 3.594,1.979 4.406,2.114 4.840 C 2.421 5.826,3.174 6.579,4.160 6.886 C 4.594 7.021,5.406 7.021,5.840 6.886 C 6.645 6.635,7.318 6.069,7.688 5.330 L 7.853 5.000 8.517 4.998 C 9.232 4.996,9.377 4.968,9.619 4.783 C 9.696 4.725,9.808 4.592,9.869 4.489 C 9.964 4.328,9.980 4.256,9.980 4.000 C 9.980 3.746,9.963 3.672,9.872 3.516 C 9.627 3.099,9.359 3.000,8.480 3.000 L 7.853 3.000 7.688 2.670 C 7.320 1.935,6.631 1.354,5.861 1.129 C 5.500 1.023,4.832 0.980,4.499 1.040 M5.310 3.061 C 5.688 3.173,6.000 3.598,6.000 4.001 C 6.000 4.331,5.784 4.696,5.484 4.872 C 5.328 4.963,5.254 4.980,5.000 4.980 C 4.746 4.980,4.672 4.963,4.516 4.872 C 3.935 4.530,3.833 3.774,4.304 3.303 C 4.583 3.024,4.916 2.944,5.310 3.061 M11.695 3.057 C 11.466 3.129,11.256 3.299,11.128 3.516 C 11.037 3.672,11.020 3.746,11.020 4.000 C 11.020 4.256,11.036 4.328,11.131 4.489 C 11.256 4.702,11.449 4.864,11.670 4.943 C 11.885 5.020,14.115 5.020,14.330 4.943 C 14.551 4.864,14.744 4.702,14.869 4.489 C 14.964 4.328,14.980 4.256,14.980 4.000 C 14.980 3.746,14.963 3.672,14.872 3.516 C 14.740 3.293,14.533 3.128,14.290 3.055 C 14.039 2.979,11.937 2.981,11.695 3.057 M20.280 3.044 C 18.554 3.240,16.931 4.098,15.418 5.616 C 14.176 6.862,13.230 8.161,11.091 11.560 C 9.066 14.777,8.336 15.783,7.180 16.943 C 6.243 17.884,5.460 18.413,4.531 18.735 C 4.118 18.878,3.455 19.000,3.091 19.000 C 2.668 19.000,2.323 19.185,2.128 19.516 C 2.037 19.672,2.020 19.746,2.020 20.000 C 2.020 20.257,2.036 20.327,2.133 20.492 C 2.263 20.714,2.502 20.901,2.736 20.965 C 2.940 21.021,3.635 20.988,4.160 20.897 C 4.369 20.861,4.782 20.752,5.078 20.655 C 6.343 20.241,7.437 19.532,8.582 18.383 C 9.825 17.135,10.769 15.839,12.909 12.440 C 14.936 9.220,15.672 8.207,16.819 7.058 C 17.674 6.202,18.370 5.705,19.167 5.380 C 19.674 5.173,20.067 5.083,20.731 5.021 C 21.240 4.974,21.347 4.952,21.503 4.860 C 22.248 4.424,22.116 3.303,21.290 3.055 C 21.091 2.995,20.747 2.991,20.280 3.044 M18.499 17.040 C 17.549 17.212,16.740 17.816,16.312 18.670 L 16.147 19.000 15.520 19.000 C 14.641 19.000,14.373 19.099,14.128 19.516 C 14.037 19.672,14.020 19.746,14.020 20.000 C 14.020 20.256,14.036 20.328,14.131 20.489 C 14.192 20.592,14.304 20.725,14.381 20.783 C 14.623 20.968,14.768 20.996,15.483 20.998 L 16.147 21.000 16.312 21.330 C 16.682 22.069,17.355 22.635,18.160 22.886 C 18.412 22.964,18.547 22.979,19.000 22.979 C 19.453 22.979,19.588 22.964,19.840 22.886 C 20.826 22.579,21.579 21.826,21.886 20.840 C 22.021 20.406,22.021 19.594,21.886 19.160 C 21.581 18.179,20.810 17.407,19.861 17.129 C 19.500 17.023,18.832 16.980,18.499 17.040 M9.695 19.057 C 9.466 19.129,9.256 19.299,9.128 19.516 C 9.037 19.672,9.020 19.746,9.020 20.000 C 9.020 20.256,9.036 20.328,9.131 20.489 C 9.256 20.702,9.449 20.864,9.670 20.943 C 9.885 21.020,12.115 21.020,12.330 20.943 C 12.551 20.864,12.744 20.702,12.869 20.489 C 12.964 20.328,12.980 20.256,12.980 20.000 C 12.980 19.746,12.963 19.672,12.872 19.516 C 12.740 19.293,12.533 19.128,12.290 19.055 C 12.039 18.979,9.937 18.981,9.695 19.057 M19.310 19.061 C 19.688 19.173,20.000 19.598,20.000 20.001 C 20.000 20.331,19.784 20.696,19.484 20.872 C 19.328 20.963,19.254 20.980,19.000 20.980 C 18.746 20.980,18.672 20.963,18.516 20.872 C 17.935 20.530,17.833 19.774,18.304 19.303 C 18.583 19.024,18.916 18.944,19.310 19.061 " stroke="none" fill-rule="evenodd" fill="black"></path></svg>