<svg xmlns="http://www.w3.org/2000/svg" width="24" height="24" viewBox="0 0 24 24" fill="none" stroke="currentColor" stroke-width="2" stroke-linecap="round" stroke-linejoin="round"><path d="M2.670 2.061 C 2.448 2.142,2.250 2.309,2.128 2.516 C 2.037 2.672,2.020 2.746,2.020 3.000 C 2.020 3.254,2.036 3.327,2.127 3.480 C 2.187 3.579,3.028 4.452,3.997 5.420 C 4.967 6.388,5.760 7.191,5.760 7.204 C 5.760 7.217,5.630 7.315,5.470 7.421 C 4.616 7.988,3.778 8.866,3.197 9.802 C 2.074 11.609,1.718 13.888,2.241 15.920 C 2.628 17.425,3.377 18.722,4.452 19.747 C 5.058 20.325,5.703 20.790,6.349 21.114 C 9.233 22.562,12.549 22.215,15.050 20.203 C 15.472 19.863,16.183 19.114,16.489 18.686 C 16.636 18.481,16.763 18.293,16.773 18.267 C 16.783 18.241,17.608 19.033,18.606 20.026 C 19.603 21.019,20.483 21.865,20.560 21.905 C 20.659 21.957,20.788 21.979,21.000 21.979 C 21.258 21.980,21.327 21.964,21.492 21.867 C 21.968 21.587,22.139 20.967,21.865 20.508 C 21.810 20.416,17.665 16.243,12.653 11.235 C 4.231 2.820,3.525 2.125,3.343 2.065 C 3.107 1.987,2.874 1.986,2.670 2.061 M18.393 2.038 C 17.904 2.128,17.482 2.303,17.110 2.570 C 17.005 2.645,15.739 3.879,14.298 5.313 C 12.213 7.385,11.659 7.957,11.594 8.104 C 11.353 8.649,11.643 9.291,12.205 9.458 C 12.467 9.536,12.533 9.535,12.803 9.457 C 13.010 9.396,13.090 9.324,14.510 7.907 L 16.001 6.421 16.790 7.210 L 17.579 7.999 16.093 9.490 C 14.632 10.954,14.605 10.984,14.539 11.215 C 14.407 11.676,14.611 12.145,15.042 12.373 C 15.236 12.475,15.290 12.486,15.540 12.470 C 15.694 12.461,15.870 12.427,15.932 12.395 C 16.098 12.307,21.220 7.179,21.419 6.900 C 21.782 6.392,21.951 5.903,21.988 5.258 C 22.058 4.021,21.384 2.873,20.254 2.306 C 19.781 2.069,18.910 1.943,18.393 2.038 M19.237 4.063 C 19.671 4.192,19.975 4.609,19.977 5.079 C 19.978 5.495,19.918 5.607,19.426 6.111 L 18.984 6.563 18.212 5.792 C 17.787 5.368,17.444 5.011,17.450 5.000 C 17.455 4.989,17.653 4.793,17.890 4.564 C 18.460 4.012,18.729 3.912,19.237 4.063 M8.168 9.588 L 9.076 10.496 8.604 10.980 C 8.232 11.363,8.119 11.506,8.066 11.660 C 8.009 11.829,8.000 12.071,8.002 13.517 C 8.004 15.306,8.008 15.345,8.217 15.619 C 8.275 15.696,8.408 15.808,8.511 15.869 L 8.700 15.980 10.415 15.992 C 11.932 16.002,12.153 15.996,12.331 15.936 C 12.495 15.882,12.624 15.781,13.019 15.397 L 13.504 14.924 14.418 15.838 L 15.331 16.752 15.188 17.009 C 14.373 18.466,12.822 19.568,11.120 19.899 C 10.589 20.003,9.744 20.023,9.212 19.944 C 7.187 19.645,5.536 18.460,4.638 16.661 C 3.995 15.371,3.841 13.928,4.198 12.516 C 4.513 11.266,5.301 10.053,6.300 9.281 C 6.506 9.122,7.194 8.680,7.236 8.680 C 7.249 8.680,7.668 9.088,8.168 9.588 M11.831 13.749 L 11.582 14.000 10.791 14.000 L 10.000 14.000 10.000 13.211 L 10.000 12.422 10.249 12.171 L 10.498 11.919 11.289 12.709 L 12.079 13.499 11.831 13.749 " stroke="none" fill-rule="evenodd" fill="black"></path></svg>