<svg xmlns="http://www.w3.org/2000/svg" width="24" height="24" viewBox="0 0 24 24" fill="none" stroke="currentColor" stroke-width="2" stroke-linecap="round" stroke-linejoin="round"><path d="M2.670 2.061 C 2.448 2.142,2.250 2.309,2.128 2.516 C 2.036 2.672,2.020 2.745,2.021 3.000 C 2.021 3.212,2.043 3.341,2.095 3.440 C 2.135 3.517,2.962 4.375,3.931 5.348 C 5.276 6.696,5.684 7.128,5.653 7.168 C 5.587 7.251,5.186 8.177,5.006 8.660 C 4.548 9.892,4.212 11.314,4.072 12.620 C 4.004 13.263,4.004 14.876,4.074 15.340 C 4.424 17.677,5.513 19.479,7.300 20.676 C 8.611 21.554,10.482 22.061,12.140 21.988 C 14.306 21.891,16.277 21.101,17.694 19.759 L 18.026 19.445 19.183 20.605 C 19.819 21.243,20.421 21.814,20.520 21.873 C 20.672 21.964,20.746 21.980,21.000 21.980 C 21.257 21.980,21.327 21.964,21.492 21.867 C 21.968 21.587,22.139 20.967,21.865 20.508 C 21.810 20.416,17.665 16.243,12.653 11.235 C 4.231 2.820,3.525 2.125,3.343 2.065 C 3.107 1.987,2.874 1.986,2.670 2.061 M11.440 2.045 C 10.521 2.151,9.575 2.568,8.700 3.252 C 8.290 3.572,7.835 4.014,7.756 4.167 C 7.647 4.382,7.617 4.676,7.682 4.908 C 7.762 5.192,8.070 5.493,8.371 5.580 C 8.794 5.702,9.040 5.611,9.560 5.142 C 11.275 3.595,12.858 3.640,14.578 5.285 C 16.079 6.719,17.270 9.106,17.757 11.650 C 17.916 12.482,17.969 13.099,17.976 14.201 L 17.982 15.262 18.094 15.453 C 18.495 16.138,19.478 16.102,19.846 15.387 C 20.087 14.919,20.031 12.844,19.736 11.300 C 19.125 8.110,17.542 5.135,15.580 3.488 C 14.235 2.358,12.864 1.880,11.440 2.045 M11.913 13.333 L 16.606 18.026 16.271 18.343 C 15.366 19.199,14.126 19.747,12.658 19.939 C 12.075 20.016,11.665 20.016,11.059 19.940 C 9.020 19.684,7.507 18.688,6.676 17.054 C 6.416 16.543,6.274 16.140,6.163 15.600 C 5.854 14.099,6.031 12.021,6.635 10.080 C 6.836 9.433,7.144 8.640,7.195 8.640 C 7.209 8.640,9.332 10.752,11.913 13.333 " stroke="none" fill-rule="evenodd" fill="black"></path></svg>