<svg xmlns="http://www.w3.org/2000/svg" width="24" height="24" viewBox="0 0 24 24" fill="none" stroke="currentColor" stroke-width="2" stroke-linecap="round" stroke-linejoin="round"><path d="M5.477 3.073 C 4.806 3.249,4.238 3.823,4.060 4.508 C 4.008 4.707,4.000 5.691,4.000 12.000 C 4.000 19.922,3.987 19.460,4.225 19.930 C 4.361 20.199,4.801 20.639,5.070 20.775 C 5.538 21.012,5.172 21.000,12.000 21.000 C 18.828 21.000,18.462 21.012,18.930 20.775 C 19.196 20.640,19.638 20.200,19.771 19.937 C 20.014 19.459,20.000 19.929,19.999 12.014 C 19.999 4.156,20.009 4.532,19.781 4.083 C 19.646 3.816,19.297 3.449,19.017 3.281 C 18.528 2.987,18.983 3.005,12.000 3.005 C 6.211 3.005,5.720 3.010,5.477 3.073 M18.000 12.000 L 18.000 19.000 12.000 19.000 L 6.000 19.000 6.000 12.000 L 6.000 5.000 12.000 5.000 L 18.000 5.000 18.000 12.000 M11.640 7.069 C 11.492 7.121,11.265 7.325,10.347 8.236 C 9.734 8.843,9.185 9.421,9.127 9.520 C 9.037 9.672,9.020 9.747,9.020 10.000 C 9.020 10.257,9.036 10.327,9.133 10.492 C 9.263 10.714,9.502 10.901,9.736 10.965 C 9.939 11.019,10.267 10.989,10.445 10.899 C 10.519 10.861,10.900 10.514,11.290 10.127 L 12.000 9.423 12.710 10.127 C 13.101 10.514,13.481 10.861,13.555 10.899 C 14.008 11.128,14.601 10.944,14.867 10.492 C 14.964 10.327,14.980 10.257,14.980 10.000 C 14.980 9.747,14.963 9.672,14.873 9.520 C 14.815 9.421,14.266 8.843,13.653 8.236 C 12.680 7.271,12.515 7.124,12.343 7.066 C 12.102 6.985,11.878 6.986,11.640 7.069 M9.670 13.061 C 9.448 13.142,9.250 13.309,9.128 13.516 C 9.036 13.672,9.020 13.745,9.021 14.000 C 9.021 14.213,9.043 14.341,9.095 14.440 C 9.197 14.633,11.297 16.740,11.520 16.873 C 11.672 16.964,11.746 16.980,12.000 16.980 C 12.254 16.980,12.328 16.964,12.480 16.873 C 12.703 16.740,14.803 14.633,14.905 14.440 C 14.957 14.341,14.979 14.213,14.979 14.000 C 14.980 13.745,14.964 13.672,14.872 13.516 C 14.617 13.083,14.135 12.905,13.657 13.067 C 13.491 13.123,13.345 13.247,12.730 13.854 L 12.000 14.574 11.270 13.854 C 10.655 13.247,10.509 13.123,10.343 13.067 C 10.108 12.987,9.876 12.985,9.670 13.061 " stroke="none" fill-rule="evenodd" fill="black"></path></svg>