<svg xmlns="http://www.w3.org/2000/svg" width="24" height="24" viewBox="0 0 24 24" fill="none" stroke="currentColor" stroke-width="2" stroke-linecap="round" stroke-linejoin="round"><path d="M2.670 2.061 C 2.448 2.142,2.250 2.309,2.128 2.516 C 2.037 2.672,2.020 2.746,2.020 3.000 C 2.020 3.254,2.036 3.328,2.127 3.480 C 2.186 3.579,2.632 4.056,3.117 4.540 L 4.000 5.419 4.000 12.341 C 4.000 18.348,4.008 19.293,4.060 19.492 C 4.245 20.205,4.875 20.814,5.577 20.959 C 5.715 20.988,7.809 20.998,12.120 20.991 L 18.460 20.980 18.687 20.888 C 18.812 20.838,18.976 20.754,19.052 20.703 L 19.190 20.609 19.765 21.187 C 20.480 21.906,20.595 21.980,21.000 21.980 C 21.257 21.980,21.327 21.964,21.492 21.867 C 21.968 21.587,22.139 20.967,21.865 20.508 C 21.810 20.416,17.665 16.243,12.653 11.235 C 4.231 2.820,3.525 2.125,3.343 2.065 C 3.107 1.987,2.874 1.986,2.670 2.061 M7.695 3.057 C 7.466 3.129,7.256 3.299,7.128 3.516 C 7.037 3.672,7.020 3.746,7.020 4.000 C 7.020 4.256,7.036 4.328,7.131 4.489 C 7.256 4.702,7.449 4.864,7.670 4.943 C 7.792 4.987,8.762 4.997,12.909 4.998 L 17.999 5.000 18.009 10.153 L 18.020 15.306 18.141 15.503 C 18.543 16.156,19.457 16.156,19.859 15.503 L 19.980 15.306 19.991 10.052 C 20.002 4.337,20.009 4.532,19.782 4.083 C 19.646 3.816,19.297 3.449,19.017 3.281 C 18.533 2.989,18.860 3.005,13.060 3.005 C 8.920 3.005,7.826 3.016,7.695 3.057 M11.670 7.061 C 11.448 7.142,11.250 7.309,11.128 7.516 C 11.036 7.672,11.020 7.745,11.021 8.000 C 11.021 8.213,11.043 8.341,11.095 8.440 C 11.194 8.627,13.294 10.739,13.508 10.866 C 13.968 11.138,14.587 10.968,14.867 10.492 C 14.964 10.327,14.980 10.257,14.980 10.000 C 14.980 9.747,14.963 9.672,14.873 9.520 C 14.815 9.421,14.266 8.843,13.653 8.236 C 12.680 7.271,12.515 7.124,12.343 7.066 C 12.108 6.987,11.875 6.985,11.670 7.061 M12.291 14.288 L 12.003 14.576 11.271 13.855 C 10.655 13.247,10.509 13.123,10.343 13.067 C 9.865 12.905,9.383 13.083,9.128 13.516 C 9.036 13.672,9.020 13.745,9.021 14.000 C 9.021 14.213,9.043 14.341,9.095 14.440 C 9.197 14.633,11.297 16.740,11.520 16.873 C 11.673 16.964,11.745 16.980,12.000 16.979 C 12.213 16.979,12.340 16.957,12.440 16.904 C 12.517 16.864,12.900 16.513,13.291 16.126 L 14.001 15.422 15.791 17.211 L 17.580 19.000 11.790 19.000 L 6.000 19.000 6.000 13.210 L 6.000 7.420 9.290 10.710 L 12.580 14.000 12.291 14.288 " stroke="none" fill-rule="evenodd" fill="black"></path></svg>