<svg xmlns="http://www.w3.org/2000/svg" width="24" height="24" viewBox="0 0 24 24" fill="none" stroke="currentColor" stroke-width="2" stroke-linecap="round" stroke-linejoin="round"><path d="M11.405 2.058 C 10.796 2.174,10.256 2.422,9.781 2.805 C 8.626 3.736,8.196 5.372,8.742 6.764 C 9.266 8.102,10.575 9.000,12.000 9.000 C 13.425 9.000,14.734 8.102,15.258 6.764 C 15.569 5.972,15.569 5.028,15.258 4.236 C 15.035 3.665,14.647 3.142,14.165 2.759 C 13.842 2.502,13.187 2.186,12.800 2.099 C 12.388 2.007,11.768 1.989,11.405 2.058 M12.344 4.053 C 13.388 4.272,13.837 5.579,13.161 6.433 C 12.987 6.655,12.699 6.859,12.462 6.930 C 12.253 6.992,11.747 6.992,11.538 6.930 C 11.301 6.859,11.013 6.655,10.839 6.433 C 10.290 5.740,10.460 4.715,11.202 4.239 C 11.407 4.107,11.732 4.009,11.980 4.004 C 12.046 4.003,12.210 4.025,12.344 4.053 M8.260 10.079 C 7.471 10.239,6.865 10.554,6.272 11.113 C 5.431 11.906,5.003 12.900,5.001 14.062 C 4.999 14.958,5.246 15.745,5.752 16.460 C 5.830 16.570,7.128 17.899,8.637 19.414 C 11.619 22.408,11.563 22.359,12.000 22.359 C 12.437 22.359,12.381 22.408,15.363 19.414 C 16.872 17.899,18.170 16.570,18.248 16.460 C 18.750 15.751,19.000 14.952,19.000 14.058 C 19.000 12.931,18.570 11.918,17.763 11.148 C 17.136 10.549,16.540 10.238,15.709 10.076 C 14.482 9.837,13.240 10.159,12.283 10.963 L 12.000 11.201 11.717 10.963 C 10.757 10.157,9.486 9.832,8.260 10.079 M9.528 12.044 C 9.976 12.138,10.215 12.293,10.838 12.896 C 11.159 13.208,11.493 13.497,11.581 13.540 C 11.797 13.645,12.203 13.645,12.419 13.540 C 12.507 13.497,12.841 13.208,13.162 12.896 C 13.800 12.278,14.031 12.131,14.512 12.038 C 15.371 11.871,16.204 12.228,16.683 12.970 C 16.926 13.346,16.980 13.551,16.977 14.080 C 16.974 14.589,16.904 14.852,16.681 15.197 C 16.616 15.298,15.536 16.406,14.281 17.660 L 12.000 19.940 9.719 17.660 C 8.464 16.406,7.383 15.296,7.317 15.194 C 7.051 14.782,6.932 14.126,7.036 13.643 C 7.197 12.892,7.794 12.260,8.530 12.062 C 8.787 11.993,9.243 11.985,9.528 12.044 " stroke="none" fill-rule="evenodd" fill="black"></path></svg>