<svg xmlns="http://www.w3.org/2000/svg" width="24" height="24" viewBox="0 0 24 24" fill="none" stroke="currentColor" stroke-width="2" stroke-linecap="round" stroke-linejoin="round"><path d="M9.695 4.057 C 9.466 4.129,9.256 4.299,9.128 4.516 C 9.037 4.672,9.020 4.746,9.020 5.000 C 9.020 5.256,9.036 5.328,9.131 5.489 C 9.256 5.702,9.449 5.864,9.670 5.943 C 9.768 5.978,10.023 5.997,10.410 5.998 L 11.000 6.000 11.000 6.496 L 11.000 6.993 10.370 7.007 C 9.850 7.018,9.712 7.034,9.580 7.097 C 9.484 7.143,9.051 7.540,8.498 8.087 L 7.576 9.000 6.735 9.000 C 5.812 9.000,5.634 9.029,5.382 9.221 C 5.302 9.282,5.187 9.415,5.128 9.516 L 5.020 9.700 5.008 10.850 L 4.995 12.000 4.500 12.000 L 4.005 12.000 3.992 10.850 L 3.980 9.700 3.871 9.514 C 3.479 8.848,2.521 8.848,2.129 9.514 L 2.020 9.700 2.020 13.003 L 2.020 16.306 2.141 16.503 C 2.543 17.156,3.457 17.156,3.859 16.503 L 3.980 16.307 3.992 15.153 L 4.005 14.000 4.502 14.000 L 5.000 14.000 5.002 15.090 C 5.004 16.262,5.017 16.357,5.217 16.619 C 5.275 16.696,5.408 16.808,5.511 16.869 C 5.700 16.980,5.700 16.980,6.585 16.993 L 7.470 17.005 8.252 18.177 C 9.075 19.408,9.208 19.562,9.629 19.775 C 10.064 19.994,10.130 20.000,12.280 20.000 C 14.430 20.000,14.497 19.994,14.930 19.775 C 15.196 19.640,15.638 19.200,15.771 18.937 C 15.952 18.581,16.000 18.305,16.000 17.624 L 16.000 17.000 16.497 17.000 L 16.993 17.000 17.007 17.650 C 17.020 18.277,17.024 18.307,17.131 18.489 C 17.192 18.592,17.304 18.725,17.381 18.783 C 17.646 18.986,17.728 18.996,19.042 18.998 C 20.366 19.000,20.522 18.982,20.930 18.775 C 21.196 18.640,21.638 18.200,21.771 17.937 C 22.003 17.479,22.000 17.537,21.999 14.014 C 21.999 10.515,21.999 10.511,21.781 10.083 C 21.551 9.628,21.022 9.203,20.523 9.073 C 20.171 8.981,18.002 8.967,17.710 9.055 C 17.467 9.128,17.260 9.293,17.128 9.516 C 17.025 9.692,17.019 9.728,17.007 10.350 L 16.993 11.000 16.807 11.000 L 16.620 11.000 15.830 9.423 C 15.110 7.987,15.019 7.826,14.809 7.613 C 14.412 7.211,13.894 7.002,13.290 7.001 L 13.000 7.000 13.000 6.500 L 13.000 6.000 13.590 5.998 C 13.977 5.997,14.232 5.978,14.330 5.943 C 14.551 5.864,14.744 5.702,14.869 5.489 C 14.964 5.328,14.980 5.256,14.980 5.000 C 14.980 4.746,14.963 4.672,14.872 4.516 C 14.740 4.293,14.533 4.128,14.290 4.055 C 14.033 3.978,9.943 3.979,9.695 4.057 M14.170 10.577 C 14.890 12.013,14.981 12.174,15.191 12.387 C 15.449 12.649,15.792 12.848,16.142 12.939 C 16.456 13.021,18.103 13.024,18.330 12.943 C 18.551 12.864,18.744 12.702,18.869 12.489 C 18.976 12.307,18.980 12.277,18.993 11.650 L 19.007 11.000 19.503 11.000 L 20.000 11.000 20.000 14.000 L 20.000 17.000 19.503 17.000 L 19.007 17.000 18.993 16.350 C 18.981 15.728,18.975 15.692,18.872 15.516 C 18.740 15.293,18.533 15.128,18.290 15.055 C 18.026 14.975,14.974 14.975,14.710 15.055 C 14.467 15.128,14.260 15.293,14.128 15.516 L 14.020 15.700 14.008 16.850 L 13.995 18.000 12.265 18.000 L 10.534 18.000 9.632 16.649 C 8.672 15.212,8.596 15.124,8.240 15.043 C 8.141 15.020,7.822 15.002,7.530 15.001 L 7.000 15.000 7.000 13.000 L 7.000 11.000 7.573 11.000 C 8.440 11.000,8.363 11.043,9.480 9.934 L 10.420 9.001 11.900 9.001 L 13.380 9.000 14.170 10.577 " stroke="none" fill-rule="evenodd" fill="black"></path></svg>