<svg xmlns="http://www.w3.org/2000/svg" width="24" height="24" viewBox="0 0 24 24" fill="none" stroke="currentColor" stroke-width="2" stroke-linecap="round" stroke-linejoin="round"><path d="M18.640 4.068 C 18.485 4.121,18.114 4.475,16.019 6.565 L 13.578 9.000 9.235 9.000 C 4.521 9.000,4.682 8.993,4.382 9.221 C 4.302 9.282,4.187 9.415,4.128 9.516 C 4.037 9.672,4.020 9.746,4.020 10.000 C 4.020 10.256,4.036 10.328,4.131 10.489 C 4.256 10.702,4.449 10.864,4.670 10.943 C 4.791 10.986,5.481 10.997,8.200 10.998 L 11.579 11.000 10.580 12.000 L 9.581 13.000 7.237 13.000 C 4.693 13.000,4.670 13.002,4.382 13.221 C 4.302 13.282,4.187 13.415,4.128 13.516 C 4.037 13.672,4.020 13.746,4.020 14.000 C 4.020 14.256,4.036 14.328,4.131 14.489 C 4.192 14.592,4.304 14.725,4.381 14.783 C 4.650 14.989,4.716 14.996,6.199 14.998 L 7.579 15.000 5.874 16.710 C 4.936 17.651,4.135 18.483,4.095 18.560 C 4.043 18.659,4.021 18.788,4.021 19.000 C 4.020 19.258,4.036 19.327,4.133 19.492 C 4.413 19.968,5.033 20.139,5.492 19.865 C 5.584 19.810,6.731 18.693,8.040 17.383 L 10.420 15.000 14.800 14.998 C 18.354 14.997,19.208 14.986,19.330 14.943 C 19.551 14.864,19.744 14.702,19.869 14.489 C 19.964 14.328,19.980 14.256,19.980 14.000 C 19.980 13.746,19.963 13.672,19.872 13.516 C 19.813 13.415,19.698 13.282,19.618 13.221 C 19.323 12.996,19.392 13.000,15.764 13.000 L 12.421 13.000 13.420 12.000 L 14.419 11.000 16.800 10.998 C 18.683 10.997,19.211 10.985,19.330 10.943 C 19.551 10.864,19.744 10.702,19.869 10.489 C 19.964 10.328,19.980 10.256,19.980 10.000 C 19.980 9.746,19.963 9.672,19.872 9.516 C 19.813 9.415,19.698 9.282,19.618 9.221 C 19.347 9.015,19.225 9.000,17.764 9.000 L 16.421 9.000 18.126 7.290 C 19.064 6.350,19.865 5.517,19.905 5.440 C 19.957 5.341,19.979 5.212,19.979 5.000 C 19.980 4.745,19.964 4.672,19.872 4.516 C 19.617 4.083,19.121 3.903,18.640 4.068 " stroke="none" fill-rule="evenodd" fill="black"></path></svg>