<svg xmlns="http://www.w3.org/2000/svg" width="24" height="24" viewBox="0 0 24 24" fill="none" stroke="currentColor" stroke-width="2" stroke-linecap="round" stroke-linejoin="round"><path d="M2.695 9.057 C 2.466 9.129,2.256 9.299,2.128 9.516 C 2.037 9.672,2.020 9.746,2.020 10.000 C 2.020 10.256,2.036 10.328,2.131 10.489 C 2.256 10.702,2.449 10.864,2.670 10.943 C 2.891 11.022,10.109 11.022,10.330 10.943 C 10.551 10.864,10.744 10.702,10.869 10.489 C 10.964 10.328,10.980 10.256,10.980 10.000 C 10.980 9.746,10.963 9.672,10.872 9.516 C 10.740 9.293,10.533 9.128,10.290 9.055 C 10.030 8.977,2.945 8.979,2.695 9.057 M13.695 9.057 C 13.466 9.129,13.256 9.299,13.128 9.516 C 13.037 9.672,13.020 9.746,13.020 10.000 C 13.020 10.256,13.036 10.328,13.131 10.489 C 13.256 10.702,13.449 10.864,13.670 10.943 C 13.891 11.022,21.109 11.022,21.330 10.943 C 21.551 10.864,21.744 10.702,21.869 10.489 C 21.964 10.328,21.980 10.256,21.980 10.000 C 21.980 9.746,21.963 9.672,21.872 9.516 C 21.740 9.293,21.533 9.128,21.290 9.055 C 21.030 8.977,13.945 8.979,13.695 9.057 M2.695 13.057 C 2.466 13.129,2.256 13.299,2.128 13.516 C 2.037 13.672,2.020 13.746,2.020 14.000 C 2.020 14.256,2.036 14.328,2.131 14.489 C 2.256 14.702,2.449 14.864,2.670 14.943 C 2.891 15.022,10.109 15.022,10.330 14.943 C 10.551 14.864,10.744 14.702,10.869 14.489 C 10.964 14.328,10.980 14.256,10.980 14.000 C 10.980 13.746,10.963 13.672,10.872 13.516 C 10.740 13.293,10.533 13.128,10.290 13.055 C 10.030 12.977,2.945 12.979,2.695 13.057 M13.695 13.057 C 13.466 13.129,13.256 13.299,13.128 13.516 C 13.037 13.672,13.020 13.746,13.020 14.000 C 13.020 14.256,13.036 14.328,13.131 14.489 C 13.256 14.702,13.449 14.864,13.670 14.943 C 13.891 15.022,21.109 15.022,21.330 14.943 C 21.551 14.864,21.744 14.702,21.869 14.489 C 21.964 14.328,21.980 14.256,21.980 14.000 C 21.980 13.746,21.963 13.672,21.872 13.516 C 21.740 13.293,21.533 13.128,21.290 13.055 C 21.030 12.977,13.945 12.979,13.695 13.057 " stroke="none" fill-rule="evenodd" fill="black"></path></svg>