<svg xmlns="http://www.w3.org/2000/svg" width="24" height="24" viewBox="0 0 24 24" fill="none" stroke="currentColor" stroke-width="2" stroke-linecap="round" stroke-linejoin="round"><path d="M2.670 2.061 C 2.448 2.142,2.250 2.309,2.128 2.516 C 2.037 2.672,2.020 2.746,2.020 3.000 C 2.020 3.254,2.036 3.327,2.127 3.480 C 2.188 3.581,3.471 4.895,5.057 6.480 L 7.880 9.299 5.604 11.580 C 3.799 13.387,3.306 13.904,3.223 14.071 C 2.899 14.722,2.936 15.505,3.318 16.078 C 3.384 16.177,4.440 17.281,5.666 18.534 C 7.500 20.407,7.931 20.827,8.098 20.905 L 8.300 20.999 13.740 20.998 C 18.118 20.997,19.209 20.986,19.327 20.944 L 19.473 20.892 19.907 21.329 C 20.474 21.900,20.608 21.980,21.000 21.980 C 21.257 21.980,21.327 21.964,21.492 21.867 C 21.968 21.587,22.139 20.967,21.865 20.508 C 21.810 20.416,17.665 16.243,12.653 11.235 C 4.231 2.820,3.525 2.125,3.343 2.065 C 3.107 1.987,2.874 1.986,2.670 2.061 M14.560 3.044 C 14.461 3.063,14.263 3.136,14.120 3.205 C 13.889 3.316,13.668 3.522,12.165 5.015 C 10.917 6.257,10.450 6.746,10.391 6.875 C 10.227 7.237,10.317 7.713,10.604 7.993 C 10.808 8.193,10.949 8.251,11.280 8.270 L 11.580 8.288 14.172 10.874 C 16.605 13.301,16.763 13.467,16.746 13.580 C 16.716 13.787,16.801 14.094,16.941 14.288 C 17.118 14.531,17.426 14.686,17.734 14.686 C 18.168 14.686,18.193 14.665,19.940 12.894 C 20.820 12.002,21.607 11.174,21.689 11.053 C 21.872 10.785,21.958 10.515,21.988 10.120 C 22.016 9.743,21.954 9.438,21.779 9.089 C 21.656 8.845,21.389 8.567,18.872 6.057 C 16.316 3.508,16.081 3.285,15.855 3.187 C 15.445 3.008,14.997 2.959,14.560 3.044 M19.161 10.837 C 18.703 11.312,18.267 11.758,18.193 11.829 L 18.058 11.958 15.559 9.459 L 13.060 6.960 14.040 5.980 L 15.020 5.000 17.507 7.487 L 19.995 9.975 19.161 10.837 M11.807 13.230 L 14.315 15.740 12.700 17.370 L 11.085 19.000 10.006 19.000 L 8.927 19.000 6.959 16.995 L 4.990 14.991 7.125 12.855 C 8.299 11.681,9.269 10.720,9.280 10.720 C 9.291 10.720,10.428 11.850,11.807 13.230 M16.660 18.080 L 17.579 19.000 15.740 19.000 L 13.901 19.000 14.820 18.080 C 15.326 17.574,15.740 17.160,15.740 17.160 C 15.740 17.160,16.154 17.574,16.660 18.080 " stroke="none" fill-rule="evenodd" fill="black"></path></svg>