<svg xmlns="http://www.w3.org/2000/svg" width="24" height="24" viewBox="0 0 24 24" fill="none" stroke="currentColor" stroke-width="2" stroke-linecap="round" stroke-linejoin="round"><path d="M14.511 3.062 C 13.982 3.190,14.219 2.969,8.608 8.574 C 3.775 13.403,3.346 13.841,3.221 14.089 C 3.045 14.439,2.985 14.741,3.011 15.140 C 3.034 15.493,3.136 15.804,3.318 16.078 C 3.384 16.177,4.440 17.281,5.666 18.534 C 7.500 20.407,7.931 20.827,8.098 20.905 L 8.300 20.999 13.740 20.998 C 18.181 20.997,19.208 20.987,19.330 20.943 C 19.551 20.864,19.744 20.702,19.869 20.489 C 19.964 20.328,19.980 20.256,19.980 20.000 C 19.980 19.746,19.963 19.672,19.872 19.516 C 19.761 19.328,19.572 19.158,19.373 19.070 C 19.288 19.032,18.604 19.015,16.589 19.000 L 13.919 18.980 17.729 15.126 C 19.825 13.006,21.597 11.188,21.667 11.085 C 21.887 10.760,21.977 10.436,21.974 9.980 C 21.971 9.535,21.892 9.250,21.681 8.923 C 21.616 8.822,20.343 7.524,18.852 6.038 C 16.823 4.016,16.089 3.308,15.937 3.229 C 15.526 3.014,14.976 2.949,14.511 3.062 M19.037 10.956 C 18.521 11.486,18.082 11.920,18.060 11.920 C 18.008 11.920,13.080 6.993,13.080 6.940 C 13.080 6.919,13.507 6.473,14.030 5.950 L 14.980 5.000 17.476 7.496 L 19.973 9.993 19.037 10.956 M14.159 10.859 L 16.659 13.359 15.799 14.229 C 15.327 14.708,14.069 15.977,13.005 17.050 L 11.070 19.000 9.999 19.000 L 8.927 19.000 6.959 16.995 L 4.990 14.991 8.305 11.675 C 10.128 9.852,11.629 8.360,11.640 8.360 C 11.651 8.360,12.785 9.485,14.159 10.859 " stroke="none" fill-rule="evenodd" fill="black"></path></svg>