<svg xmlns="http://www.w3.org/2000/svg" width="24" height="24" viewBox="0 0 24 24" fill="none" stroke="currentColor" stroke-width="2" stroke-linecap="round" stroke-linejoin="round"><path d="M2.695 6.057 C 2.466 6.129,2.256 6.299,2.128 6.516 L 2.020 6.700 2.009 8.957 C 2.001 10.442,2.012 11.285,2.040 11.420 C 2.148 11.941,2.601 12.537,3.070 12.775 C 3.472 12.979,3.643 13.000,4.867 13.000 L 5.997 13.000 6.009 15.153 L 6.020 17.306 6.141 17.503 C 6.543 18.156,7.457 18.156,7.859 17.503 L 7.980 17.306 7.980 12.003 L 7.980 6.700 7.871 6.514 C 7.479 5.848,6.521 5.848,6.129 6.514 L 6.020 6.700 6.009 8.850 L 5.997 11.000 5.000 11.000 L 4.003 11.000 3.991 8.850 L 3.980 6.700 3.872 6.516 C 3.628 6.101,3.150 5.915,2.695 6.057 M10.477 6.073 C 9.806 6.249,9.238 6.823,9.060 7.508 C 9.009 7.704,9.000 8.350,9.000 12.000 C 9.000 16.640,8.992 16.471,9.225 16.930 C 9.361 17.199,9.801 17.639,10.070 17.775 C 10.479 17.982,10.632 18.000,12.000 18.000 C 13.368 18.000,13.521 17.982,13.930 17.775 C 14.196 17.640,14.638 17.200,14.771 16.937 C 15.008 16.471,15.000 16.634,14.999 12.014 C 14.999 7.426,15.003 7.520,14.781 7.083 C 14.551 6.628,14.022 6.203,13.523 6.073 C 13.134 5.972,10.866 5.972,10.477 6.073 M16.695 6.057 C 16.466 6.129,16.256 6.299,16.128 6.516 L 16.020 6.700 16.009 8.957 C 16.001 10.442,16.012 11.285,16.040 11.420 C 16.148 11.941,16.601 12.537,17.070 12.775 C 17.472 12.979,17.643 13.000,18.867 13.000 L 19.997 13.000 20.009 15.153 L 20.020 17.306 20.141 17.503 C 20.543 18.156,21.457 18.156,21.859 17.503 L 21.980 17.306 21.980 12.003 L 21.980 6.700 21.871 6.514 C 21.479 5.848,20.521 5.848,20.129 6.514 L 20.020 6.700 20.009 8.850 L 19.997 11.000 19.000 11.000 L 18.003 11.000 17.991 8.850 L 17.980 6.700 17.872 6.516 C 17.628 6.101,17.150 5.915,16.695 6.057 M13.000 12.000 L 13.000 16.000 12.000 16.000 L 11.000 16.000 11.000 12.000 L 11.000 8.000 12.000 8.000 L 13.000 8.000 13.000 12.000 " stroke="none" fill-rule="evenodd" fill="black"></path></svg>