<svg xmlns="http://www.w3.org/2000/svg" width="24" height="24" viewBox="0 0 24 24" fill="none" stroke="currentColor" stroke-width="2" stroke-linecap="round" stroke-linejoin="round"><path d="M5.580 2.096 C 5.424 2.171,5.029 2.545,3.774 3.806 C 2.891 4.694,2.135 5.483,2.095 5.560 C 2.043 5.659,2.021 5.788,2.021 6.000 C 2.020 6.258,2.036 6.327,2.133 6.492 C 2.263 6.714,2.502 6.901,2.736 6.965 C 2.939 7.019,3.267 6.989,3.445 6.899 C 3.519 6.861,3.899 6.514,4.289 6.128 L 4.998 5.425 5.009 7.866 L 5.020 10.306 5.141 10.503 C 5.543 11.156,6.457 11.156,6.859 10.503 L 6.980 10.306 6.991 7.866 L 7.002 5.425 7.711 6.128 C 8.101 6.514,8.483 6.864,8.560 6.904 C 8.660 6.957,8.787 6.979,9.000 6.979 C 9.258 6.980,9.327 6.964,9.492 6.867 C 9.714 6.737,9.901 6.498,9.965 6.264 C 10.019 6.061,9.989 5.733,9.899 5.555 C 9.862 5.481,9.109 4.694,8.226 3.806 C 6.971 2.545,6.576 2.171,6.420 2.096 C 6.151 1.968,5.849 1.968,5.580 2.096 M16.311 6.040 C 15.918 6.109,15.486 6.287,15.120 6.531 C 15.021 6.597,13.059 8.528,10.760 10.823 L 6.580 14.995 5.260 15.011 C 4.072 15.024,3.910 15.034,3.636 15.110 C 2.401 15.450,1.507 16.321,1.133 17.548 C 1.038 17.863,1.026 17.963,1.026 18.500 C 1.026 19.037,1.038 19.137,1.133 19.452 C 1.500 20.655,2.337 21.492,3.548 21.869 L 3.900 21.978 6.183 21.991 C 8.653 22.005,8.754 21.999,9.278 21.787 C 9.846 21.557,9.807 21.594,14.201 17.211 L 18.422 13.000 19.101 13.000 C 20.110 12.999,20.593 12.893,21.240 12.531 C 21.709 12.268,22.268 11.709,22.531 11.240 C 23.666 9.214,22.625 6.737,20.378 6.112 C 20.075 6.028,19.979 6.024,18.280 6.015 C 17.301 6.011,16.415 6.022,16.311 6.040 M20.104 8.133 C 20.414 8.276,20.722 8.586,20.866 8.900 C 20.961 9.106,20.977 9.192,20.977 9.500 C 20.977 9.808,20.961 9.894,20.866 10.100 C 20.722 10.414,20.414 10.724,20.104 10.867 C 19.860 10.980,19.859 10.980,18.800 11.000 C 17.867 11.018,17.721 11.029,17.580 11.096 C 17.471 11.148,16.024 12.564,13.080 15.502 C 10.693 17.884,8.677 19.865,8.600 19.906 C 8.469 19.975,8.324 19.980,6.300 19.980 L 4.140 19.980 3.900 19.868 C 3.583 19.720,3.275 19.413,3.135 19.104 C 3.040 18.895,3.024 18.808,3.024 18.500 C 3.024 18.192,3.040 18.105,3.135 17.896 C 3.275 17.587,3.583 17.280,3.900 17.132 L 4.140 17.020 5.700 17.000 C 7.086 16.982,7.278 16.972,7.420 16.908 C 7.534 16.857,8.833 15.585,11.941 12.478 C 14.339 10.081,16.310 8.120,16.321 8.119 C 16.331 8.119,16.412 8.092,16.500 8.060 C 16.633 8.011,16.933 8.003,18.260 8.010 L 19.860 8.020 20.104 8.133 " stroke="none" fill-rule="evenodd" fill="black"></path></svg>