<svg xmlns="http://www.w3.org/2000/svg" width="24" height="24" viewBox="0 0 24 24" fill="none" stroke="currentColor" stroke-width="2" stroke-linecap="round" stroke-linejoin="round"><path d="M2.670 2.061 C 2.448 2.142,2.250 2.309,2.128 2.516 C 2.037 2.672,2.020 2.746,2.020 3.000 C 2.020 3.254,2.036 3.327,2.127 3.480 C 2.187 3.579,2.982 4.406,3.894 5.317 L 5.554 6.973 5.361 7.197 C 4.801 7.846,4.336 8.820,4.108 9.820 C 4.031 10.158,4.025 10.335,4.011 12.664 L 3.995 15.148 3.668 15.314 C 2.922 15.693,2.364 16.356,2.114 17.160 C 1.979 17.594,1.979 18.406,2.114 18.840 C 2.421 19.826,3.174 20.579,4.160 20.886 C 4.594 21.021,5.406 21.021,5.840 20.886 C 6.826 20.579,7.579 19.826,7.886 18.840 C 8.021 18.406,8.021 17.594,7.886 17.160 C 7.635 16.354,7.078 15.693,6.327 15.312 L 5.995 15.143 6.011 12.781 C 6.027 10.295,6.030 10.264,6.221 9.700 C 6.347 9.329,6.688 8.720,6.948 8.402 C 6.957 8.392,8.339 9.760,10.022 11.442 L 13.080 14.500 11.622 15.960 C 10.042 17.541,10.002 17.592,10.001 18.000 C 10.000 18.420,10.042 18.471,11.806 20.226 C 12.694 21.109,13.481 21.862,13.555 21.899 C 14.010 22.128,14.601 21.944,14.867 21.492 C 14.964 21.327,14.980 21.258,14.979 21.000 C 14.979 20.787,14.957 20.660,14.904 20.560 C 14.864 20.483,14.516 20.103,14.133 19.716 L 13.435 19.012 14.127 18.988 C 15.095 18.955,15.750 18.806,16.545 18.440 L 16.870 18.290 18.605 20.027 C 19.559 20.983,20.421 21.813,20.520 21.873 C 20.673 21.964,20.746 21.980,21.000 21.980 C 21.257 21.980,21.327 21.964,21.492 21.867 C 21.968 21.587,22.139 20.967,21.865 20.508 C 21.810 20.416,17.665 16.243,12.653 11.235 C 4.231 2.820,3.525 2.125,3.343 2.065 C 3.107 1.987,2.874 1.986,2.670 2.061 M9.670 2.061 C 9.448 2.142,9.250 2.309,9.128 2.516 C 9.036 2.672,9.020 2.745,9.021 3.000 C 9.021 3.213,9.043 3.340,9.096 3.440 C 9.136 3.517,9.486 3.900,9.873 4.290 L 10.577 5.000 10.235 5.000 C 9.664 5.000,9.344 5.149,9.128 5.516 C 9.037 5.672,9.020 5.746,9.020 6.000 C 9.020 6.256,9.036 6.328,9.131 6.489 C 9.355 6.869,9.629 6.996,10.235 6.998 C 10.561 7.000,10.641 7.011,10.610 7.050 C 10.553 7.120,10.510 7.345,10.514 7.546 C 10.524 8.060,10.968 8.486,11.494 8.486 C 11.892 8.486,12.015 8.400,12.954 7.468 C 13.901 6.529,13.999 6.391,13.999 6.000 C 13.999 5.578,13.960 5.530,12.175 3.756 C 10.716 2.307,10.519 2.124,10.343 2.066 C 10.108 1.987,9.875 1.986,9.670 2.061 M18.499 3.040 C 17.363 3.246,16.460 4.049,16.114 5.160 C 15.979 5.594,15.979 6.406,16.114 6.840 C 16.365 7.646,16.931 8.318,17.672 8.689 L 18.005 8.855 17.991 11.238 L 17.977 13.620 17.861 14.020 C 17.654 14.735,17.684 15.062,17.987 15.374 C 18.217 15.610,18.336 15.658,18.703 15.659 C 18.994 15.660,19.046 15.648,19.223 15.539 C 19.481 15.380,19.638 15.115,19.774 14.609 C 19.986 13.819,20.000 13.610,20.000 11.137 L 20.000 8.853 20.330 8.688 C 21.069 8.318,21.635 7.645,21.886 6.840 C 22.021 6.406,22.021 5.594,21.886 5.160 C 21.581 4.179,20.810 3.407,19.861 3.129 C 19.500 3.023,18.832 2.980,18.499 3.040 M19.310 5.061 C 19.688 5.173,20.000 5.598,20.000 6.001 C 20.000 6.331,19.784 6.696,19.484 6.872 C 19.328 6.963,19.254 6.980,19.000 6.980 C 18.746 6.980,18.672 6.963,18.516 6.872 C 17.935 6.530,17.833 5.774,18.304 5.303 C 18.583 5.024,18.916 4.944,19.310 5.061 M15.315 16.778 C 15.303 16.790,15.151 16.838,14.977 16.884 C 14.746 16.945,14.491 16.973,14.040 16.988 L 13.420 17.008 13.960 16.464 L 14.499 15.920 14.918 16.338 C 15.148 16.569,15.327 16.767,15.315 16.778 M5.310 17.061 C 5.688 17.173,6.000 17.598,6.000 18.001 C 6.000 18.331,5.784 18.696,5.484 18.872 C 5.328 18.963,5.254 18.980,5.000 18.980 C 4.746 18.980,4.672 18.963,4.516 18.872 C 3.935 18.530,3.833 17.774,4.304 17.303 C 4.583 17.024,4.916 16.944,5.310 17.061 " stroke="none" fill-rule="evenodd" fill="black"></path></svg>