<svg xmlns="http://www.w3.org/2000/svg" width="24" height="24" viewBox="0 0 24 24" fill="none" stroke="currentColor" stroke-width="2" stroke-linecap="round" stroke-linejoin="round"><path d="M11.080 2.045 C 9.507 2.184,7.883 2.751,6.540 3.630 C 5.905 4.045,5.499 4.378,4.919 4.958 C 2.953 6.926,1.919 9.544,2.013 12.320 C 2.084 14.439,2.752 16.328,4.033 18.040 C 4.430 18.570,5.305 19.464,5.800 19.847 C 7.242 20.961,8.787 21.624,10.600 21.907 C 11.247 22.008,12.753 22.008,13.400 21.907 C 15.638 21.557,17.504 20.620,19.062 19.062 C 20.620 17.504,21.557 15.638,21.907 13.400 C 22.008 12.753,22.008 11.247,21.907 10.600 C 21.624 8.786,20.959 7.238,19.847 5.800 C 19.510 5.365,18.639 4.494,18.200 4.154 C 16.133 2.555,13.646 1.818,11.080 2.045 M12.734 4.041 C 14.574 4.216,16.228 4.976,17.554 6.256 C 20.043 8.658,20.702 12.394,19.183 15.499 C 18.749 16.387,18.223 17.105,17.496 17.801 C 16.876 18.394,16.262 18.819,15.471 19.200 C 13.267 20.265,10.733 20.265,8.529 19.200 C 7.477 18.693,6.612 18.015,5.847 17.100 C 3.848 14.711,3.440 11.302,4.816 8.500 C 6.162 5.760,8.867 4.049,11.920 4.005 C 12.129 4.003,12.495 4.019,12.734 4.041 M11.695 8.057 C 11.466 8.129,11.256 8.299,11.128 8.516 L 11.020 8.700 11.020 11.003 L 11.020 13.306 11.141 13.503 C 11.209 13.613,11.346 13.756,11.452 13.828 C 11.923 14.144,12.554 13.999,12.859 13.503 L 12.980 13.306 12.980 11.003 L 12.980 8.700 12.872 8.516 C 12.628 8.101,12.150 7.915,11.695 8.057 M11.695 15.057 C 11.466 15.129,11.256 15.299,11.128 15.516 C 11.036 15.672,11.020 15.745,11.021 16.000 C 11.022 16.332,11.101 16.533,11.306 16.728 C 11.785 17.181,12.580 17.046,12.893 16.460 C 13.025 16.211,13.015 15.760,12.872 15.516 C 12.628 15.101,12.150 14.915,11.695 15.057 " stroke="none" fill-rule="evenodd" fill="black"></path></svg>