<svg xmlns="http://www.w3.org/2000/svg" width="24" height="24" viewBox="0 0 24 24" fill="none" stroke="currentColor" stroke-width="2" stroke-linecap="round" stroke-linejoin="round"><path d="M11.695 4.057 C 11.466 4.129,11.256 4.299,11.128 4.516 L 11.020 4.700 11.020 10.003 L 11.020 15.306 11.141 15.503 C 11.543 16.156,12.457 16.156,12.859 15.503 L 12.980 15.306 12.980 10.003 L 12.980 4.700 12.872 4.516 C 12.628 4.101,12.150 3.915,11.695 4.057 M11.695 18.057 C 11.466 18.129,11.256 18.299,11.128 18.516 C 11.036 18.672,11.020 18.745,11.021 19.000 C 11.022 19.332,11.101 19.533,11.306 19.728 C 11.785 20.181,12.580 20.046,12.893 19.460 C 13.025 19.211,13.015 18.760,12.872 18.516 C 12.628 18.101,12.150 17.915,11.695 18.057 " stroke="none" fill-rule="evenodd" fill="black"></path></svg>