<svg xmlns="http://www.w3.org/2000/svg" width="24" height="24" viewBox="0 0 24 24" fill="none" stroke="currentColor" stroke-width="2" stroke-linecap="round" stroke-linejoin="round"><path d="M4.477 3.073 C 3.806 3.249,3.238 3.823,3.060 4.508 C 3.008 4.707,3.000 5.691,3.000 12.000 C 3.000 19.922,2.987 19.460,3.225 19.930 C 3.361 20.199,3.801 20.639,4.070 20.775 C 4.540 21.013,4.078 21.000,12.000 21.000 C 19.922 21.000,19.460 21.013,19.930 20.775 C 20.196 20.640,20.638 20.200,20.771 19.937 C 21.014 19.459,21.000 19.929,20.999 12.014 C 20.999 4.156,21.009 4.532,20.781 4.083 C 20.646 3.816,20.297 3.449,20.017 3.281 C 19.525 2.985,20.100 3.005,12.000 3.005 C 5.266 3.005,4.721 3.010,4.477 3.073 M19.000 12.000 L 19.000 19.000 12.000 19.000 L 5.000 19.000 5.000 12.000 L 5.000 5.000 12.000 5.000 L 19.000 5.000 19.000 12.000 M9.695 7.057 C 9.466 7.129,9.256 7.299,9.128 7.516 L 9.020 7.700 9.009 11.913 C 9.002 14.672,9.013 16.178,9.039 16.277 C 9.099 16.498,9.290 16.739,9.508 16.867 L 9.700 16.980 11.911 16.991 C 13.337 16.999,14.176 16.988,14.275 16.961 C 14.498 16.901,14.739 16.711,14.867 16.492 C 14.964 16.327,14.980 16.257,14.980 16.000 C 14.980 15.746,14.963 15.672,14.872 15.516 C 14.813 15.415,14.698 15.282,14.618 15.221 C 14.342 15.011,14.242 15.000,12.554 15.000 L 11.000 15.000 11.000 14.000 L 11.000 13.000 12.590 12.998 C 14.300 12.996,14.346 12.991,14.619 12.783 C 14.696 12.725,14.808 12.592,14.869 12.489 C 14.964 12.328,14.980 12.256,14.980 12.000 C 14.980 11.746,14.963 11.672,14.872 11.516 C 14.813 11.415,14.698 11.282,14.618 11.221 C 14.342 11.011,14.242 11.000,12.554 11.000 L 11.000 11.000 11.000 10.000 L 11.000 9.000 12.590 8.998 C 14.300 8.996,14.346 8.991,14.619 8.783 C 14.696 8.725,14.808 8.592,14.869 8.489 C 14.964 8.328,14.980 8.256,14.980 8.000 C 14.980 7.746,14.963 7.672,14.872 7.516 C 14.740 7.293,14.533 7.128,14.290 7.055 C 14.033 6.978,9.943 6.979,9.695 7.057 " stroke="none" fill-rule="evenodd" fill="black"></path></svg>