<svg xmlns="http://www.w3.org/2000/svg" width="24" height="24" viewBox="0 0 24 24" fill="none" stroke="currentColor" stroke-width="2" stroke-linecap="round" stroke-linejoin="round"><path d="M5.499 3.043 C 4.380 3.233,3.461 4.048,3.114 5.160 L 3.020 5.460 3.020 12.000 L 3.020 18.540 3.114 18.840 C 3.422 19.827,4.173 20.578,5.160 20.886 L 5.460 20.980 12.000 20.980 L 18.540 20.980 18.840 20.886 C 19.827 20.578,20.578 19.827,20.886 18.840 L 20.980 18.540 20.980 12.000 L 20.980 5.460 20.886 5.160 C 20.581 4.182,19.832 3.428,18.861 3.121 L 18.540 3.020 12.120 3.014 C 8.589 3.011,5.609 3.024,5.499 3.043 M11.300 11.280 L 5.020 17.560 5.010 11.731 C 4.998 5.159,4.977 5.629,5.303 5.303 C 5.623 4.984,5.149 5.006,11.720 5.003 L 17.580 5.000 11.300 11.280 M8.695 6.057 C 8.466 6.129,8.256 6.299,8.128 6.516 C 8.025 6.692,8.019 6.728,8.007 7.350 L 7.993 8.000 7.443 8.000 C 6.648 8.000,6.366 8.111,6.128 8.516 C 6.037 8.672,6.020 8.746,6.020 9.000 C 6.020 9.256,6.036 9.328,6.131 9.489 C 6.256 9.702,6.449 9.864,6.670 9.943 C 6.768 9.978,7.022 9.997,7.407 9.998 L 7.993 10.000 8.007 10.653 C 8.020 11.300,8.021 11.308,8.141 11.503 C 8.209 11.613,8.346 11.756,8.452 11.828 C 8.923 12.144,9.554 11.999,9.859 11.503 C 9.979 11.308,9.980 11.300,9.993 10.653 L 10.007 10.000 10.593 9.998 C 10.978 9.997,11.232 9.978,11.330 9.943 C 11.551 9.864,11.744 9.702,11.869 9.489 C 11.964 9.328,11.980 9.256,11.980 9.000 C 11.980 8.746,11.963 8.672,11.872 8.516 C 11.634 8.111,11.352 8.000,10.557 8.000 L 10.007 8.000 9.993 7.350 C 9.981 6.728,9.975 6.692,9.872 6.516 C 9.628 6.101,9.150 5.915,8.695 6.057 M18.960 18.224 C 18.905 18.484,18.724 18.731,18.486 18.871 L 18.300 18.980 12.360 18.990 L 6.420 19.001 12.700 12.720 L 18.980 6.440 18.992 12.230 C 19.001 16.306,18.991 18.080,18.960 18.224 M12.695 15.057 C 12.466 15.129,12.256 15.299,12.128 15.516 C 12.037 15.672,12.020 15.746,12.020 16.000 C 12.020 16.256,12.036 16.328,12.131 16.489 C 12.256 16.702,12.449 16.864,12.670 16.943 C 12.889 17.021,17.111 17.021,17.330 16.943 C 17.551 16.864,17.744 16.702,17.869 16.489 C 17.964 16.328,17.980 16.256,17.980 16.000 C 17.980 15.746,17.963 15.672,17.872 15.516 C 17.740 15.293,17.533 15.128,17.290 15.055 C 17.033 14.978,12.943 14.979,12.695 15.057 " stroke="none" fill-rule="evenodd" fill="black"></path></svg>