<svg xmlns="http://www.w3.org/2000/svg" width="24" height="24" viewBox="0 0 24 24" fill="none" stroke="currentColor" stroke-width="2" stroke-linecap="round" stroke-linejoin="round"><path d="M11.160 5.043 C 7.817 5.297,4.962 7.200,2.624 10.731 C 2.082 11.550,2.020 11.680,2.020 12.000 C 2.020 12.211,2.043 12.307,2.133 12.482 C 2.330 12.862,3.137 14.040,3.585 14.600 C 4.098 15.243,5.186 16.346,5.728 16.774 C 7.483 18.160,9.417 18.893,11.560 18.987 C 11.908 19.002,12.158 18.994,12.264 18.965 C 12.498 18.901,12.737 18.714,12.867 18.492 C 12.964 18.327,12.980 18.257,12.980 18.000 C 12.980 17.746,12.963 17.672,12.872 17.516 C 12.665 17.165,12.334 17.000,11.832 17.000 C 11.183 17.000,10.266 16.845,9.571 16.618 C 8.258 16.188,7.135 15.461,6.018 14.314 C 5.354 13.633,5.037 13.245,4.423 12.367 C 4.210 12.063,4.194 12.025,4.237 11.931 C 4.298 11.796,4.847 11.028,5.188 10.600 C 5.576 10.114,6.435 9.243,6.885 8.881 C 7.870 8.087,8.990 7.510,10.071 7.240 C 10.869 7.041,11.849 6.964,12.660 7.037 C 15.390 7.283,17.625 8.779,19.603 11.685 C 20.012 12.286,20.145 12.417,20.456 12.519 C 20.641 12.580,20.980 12.553,21.151 12.465 C 21.507 12.281,21.720 11.942,21.719 11.560 C 21.718 11.291,21.646 11.125,21.316 10.634 C 20.037 8.728,18.586 7.292,16.976 6.339 C 15.264 5.325,13.278 4.883,11.160 5.043 M11.499 9.040 C 10.363 9.246,9.460 10.049,9.114 11.160 C 8.979 11.594,8.979 12.406,9.114 12.840 C 9.421 13.826,10.174 14.579,11.160 14.886 C 11.594 15.021,12.406 15.021,12.840 14.886 C 13.826 14.579,14.579 13.826,14.886 12.840 C 15.021 12.406,15.021 11.594,14.886 11.160 C 14.581 10.179,13.810 9.407,12.861 9.129 C 12.500 9.023,11.832 8.980,11.499 9.040 M12.310 11.061 C 12.688 11.173,13.000 11.598,13.000 12.001 C 13.000 12.331,12.784 12.696,12.484 12.872 C 12.328 12.963,12.254 12.980,12.000 12.980 C 11.746 12.980,11.672 12.963,11.516 12.872 C 10.935 12.530,10.833 11.774,11.304 11.303 C 11.583 11.024,11.916 10.944,12.310 11.061 M17.358 14.061 C 16.230 14.237,15.143 14.974,14.569 15.953 C 13.320 18.083,14.233 20.785,16.512 21.704 C 17.473 22.091,18.529 22.090,19.494 21.701 C 19.684 21.625,19.881 21.535,19.932 21.502 C 20.020 21.444,20.041 21.460,20.681 22.104 C 21.044 22.468,21.416 22.810,21.508 22.865 C 21.967 23.139,22.587 22.968,22.867 22.492 C 22.964 22.327,22.980 22.257,22.980 22.000 C 22.980 21.589,22.910 21.484,22.104 20.681 C 21.460 20.041,21.444 20.020,21.502 19.932 C 21.627 19.740,21.844 19.132,21.921 18.757 C 22.070 18.024,21.994 17.230,21.705 16.516 C 21.172 15.197,20.001 14.269,18.605 14.058 C 18.144 13.989,17.816 13.990,17.358 14.061 M18.523 16.073 C 19.262 16.266,19.850 16.924,19.967 17.690 C 20.067 18.343,19.873 18.933,19.403 19.404 C 19.002 19.807,18.547 20.000,18.000 20.000 C 17.485 20.000,17.038 19.822,16.653 19.465 C 15.323 18.229,16.189 16.005,18.000 16.005 C 18.143 16.005,18.378 16.036,18.523 16.073 " stroke="none" fill-rule="evenodd" fill="black"></path></svg>