<svg xmlns="http://www.w3.org/2000/svg" width="24" height="24" viewBox="0 0 24 24" fill="none" stroke="currentColor" stroke-width="2" stroke-linecap="round" stroke-linejoin="round"><path d="M11.160 5.043 C 7.817 5.297,4.962 7.200,2.624 10.731 C 2.082 11.550,2.020 11.680,2.020 12.000 C 2.020 12.320,2.082 12.450,2.624 13.269 C 4.372 15.910,6.421 17.653,8.699 18.438 C 9.496 18.713,10.075 18.844,10.920 18.941 C 11.786 19.040,13.089 19.001,13.414 18.865 C 13.761 18.720,14.009 18.347,14.015 17.960 C 14.021 17.567,13.817 17.233,13.464 17.060 L 13.252 16.957 12.416 16.982 C 11.481 17.011,10.911 16.960,10.160 16.780 C 8.069 16.277,6.221 14.894,4.605 12.620 C 4.198 12.048,4.185 12.023,4.244 11.910 C 4.320 11.765,4.894 10.970,5.188 10.600 C 5.576 10.114,6.435 9.243,6.885 8.881 C 7.448 8.426,8.021 8.063,8.615 7.781 C 9.786 7.225,10.690 7.023,12.000 7.023 C 13.310 7.023,14.214 7.225,15.385 7.781 C 16.918 8.508,18.342 9.818,19.573 11.635 C 19.698 11.819,19.800 11.987,19.800 12.008 C 19.800 12.029,19.745 12.125,19.678 12.223 C 19.389 12.643,19.339 12.914,19.482 13.295 C 19.623 13.673,19.977 13.920,20.375 13.920 C 20.860 13.919,21.038 13.789,21.487 13.104 C 21.927 12.433,21.980 12.313,21.980 11.998 C 21.980 11.680,21.918 11.549,21.376 10.731 C 19.612 8.066,17.562 6.336,15.220 5.534 C 13.942 5.097,12.596 4.934,11.160 5.043 M11.499 9.040 C 10.363 9.246,9.460 10.049,9.114 11.160 C 8.979 11.594,8.979 12.406,9.114 12.840 C 9.421 13.826,10.174 14.579,11.160 14.886 C 11.594 15.021,12.406 15.021,12.840 14.886 C 13.826 14.579,14.579 13.826,14.886 12.840 C 15.021 12.406,15.021 11.594,14.886 11.160 C 14.581 10.179,13.810 9.407,12.861 9.129 C 12.500 9.023,11.832 8.980,11.499 9.040 M12.310 11.061 C 12.688 11.173,13.000 11.598,13.000 12.001 C 13.000 12.331,12.784 12.696,12.484 12.872 C 12.328 12.963,12.254 12.980,12.000 12.980 C 11.746 12.980,11.672 12.963,11.516 12.872 C 10.935 12.530,10.833 11.774,11.304 11.303 C 11.583 11.024,11.916 10.944,12.310 11.061 M16.695 16.057 C 16.466 16.129,16.256 16.299,16.128 16.516 L 16.020 16.700 16.020 19.503 L 16.020 22.306 16.141 22.503 C 16.543 23.156,17.457 23.156,17.859 22.503 L 17.980 22.306 17.980 19.503 L 17.980 16.700 17.872 16.516 C 17.628 16.101,17.150 15.915,16.695 16.057 M20.695 16.057 C 20.466 16.129,20.256 16.299,20.128 16.516 L 20.020 16.700 20.020 19.503 L 20.020 22.306 20.141 22.503 C 20.543 23.156,21.457 23.156,21.859 22.503 L 21.980 22.306 21.980 19.503 L 21.980 16.700 21.872 16.516 C 21.628 16.101,21.150 15.915,20.695 16.057 " stroke="none" fill-rule="evenodd" fill="black"></path></svg>