<svg xmlns="http://www.w3.org/2000/svg" width="24" height="24" viewBox="0 0 24 24" fill="none" stroke="currentColor" stroke-width="2" stroke-linecap="round" stroke-linejoin="round"><path d="M11.695 5.055 C 11.464 5.130,11.255 5.300,11.128 5.516 C 11.037 5.672,11.020 5.746,11.020 6.000 C 11.020 6.257,11.036 6.327,11.133 6.492 C 11.651 7.374,12.998 7.018,12.998 6.000 C 12.998 5.623,12.792 5.281,12.463 5.112 C 12.265 5.010,11.911 4.984,11.695 5.055 M7.695 6.055 C 7.464 6.130,7.255 6.300,7.128 6.516 C 7.037 6.672,7.020 6.746,7.020 7.000 C 7.020 7.257,7.036 7.327,7.133 7.492 C 7.651 8.374,8.998 8.018,8.998 7.000 C 8.998 6.623,8.792 6.281,8.463 6.112 C 8.265 6.010,7.911 5.984,7.695 6.055 M15.695 6.055 C 15.464 6.130,15.255 6.300,15.128 6.516 C 15.037 6.672,15.020 6.746,15.020 7.000 C 15.020 7.257,15.036 7.327,15.133 7.492 C 15.651 8.374,16.998 8.018,16.998 7.000 C 16.998 6.623,16.792 6.281,16.463 6.112 C 16.265 6.010,15.911 5.984,15.695 6.055 M4.695 8.055 C 4.464 8.130,4.255 8.300,4.128 8.516 C 4.037 8.672,4.020 8.746,4.020 9.000 C 4.020 9.257,4.036 9.327,4.133 9.492 C 4.651 10.374,5.998 10.018,5.998 9.000 C 5.998 8.623,5.792 8.281,5.463 8.112 C 5.265 8.010,4.911 7.984,4.695 8.055 M18.695 8.055 C 18.464 8.130,18.255 8.300,18.128 8.516 C 18.037 8.672,18.020 8.746,18.020 9.000 C 18.020 9.257,18.036 9.327,18.133 9.492 C 18.651 10.374,19.998 10.018,19.998 9.000 C 19.998 8.623,19.792 8.281,19.463 8.112 C 19.265 8.010,18.911 7.984,18.695 8.055 M11.499 9.040 C 10.363 9.246,9.460 10.049,9.114 11.160 C 8.979 11.594,8.979 12.406,9.114 12.840 C 9.421 13.826,10.174 14.579,11.160 14.886 C 11.594 15.021,12.406 15.021,12.840 14.886 C 13.826 14.579,14.579 13.826,14.886 12.840 C 15.021 12.406,15.021 11.594,14.886 11.160 C 14.581 10.179,13.810 9.407,12.861 9.129 C 12.500 9.023,11.832 8.980,11.499 9.040 M2.695 11.055 C 2.464 11.130,2.255 11.300,2.128 11.516 C 2.037 11.672,2.020 11.746,2.020 12.000 C 2.020 12.257,2.036 12.327,2.133 12.492 C 2.651 13.374,3.998 13.018,3.998 12.000 C 3.998 11.623,3.792 11.281,3.463 11.112 C 3.265 11.010,2.911 10.984,2.695 11.055 M12.310 11.061 C 12.688 11.173,13.000 11.598,13.000 12.001 C 13.000 12.331,12.784 12.696,12.484 12.872 C 12.328 12.963,12.254 12.980,12.000 12.980 C 11.746 12.980,11.672 12.963,11.516 12.872 C 10.935 12.530,10.833 11.774,11.304 11.303 C 11.583 11.024,11.916 10.944,12.310 11.061 M20.695 11.055 C 20.464 11.130,20.255 11.300,20.128 11.516 C 20.037 11.672,20.020 11.746,20.020 12.000 C 20.020 12.257,20.036 12.327,20.133 12.492 C 20.651 13.374,21.998 13.018,21.998 12.000 C 21.998 11.623,21.792 11.281,21.463 11.112 C 21.265 11.010,20.911 10.984,20.695 11.055 M4.695 14.055 C 4.464 14.130,4.255 14.300,4.128 14.516 C 4.037 14.672,4.020 14.746,4.020 15.000 C 4.020 15.257,4.036 15.327,4.133 15.492 C 4.651 16.374,5.998 16.018,5.998 15.000 C 5.998 14.623,5.792 14.281,5.463 14.112 C 5.265 14.010,4.911 13.984,4.695 14.055 M18.695 14.055 C 18.464 14.130,18.255 14.300,18.128 14.516 C 18.037 14.672,18.020 14.746,18.020 15.000 C 18.020 15.257,18.036 15.327,18.133 15.492 C 18.651 16.374,19.998 16.018,19.998 15.000 C 19.998 14.623,19.792 14.281,19.463 14.112 C 19.265 14.010,18.911 13.984,18.695 14.055 M7.695 16.055 C 7.464 16.130,7.255 16.300,7.128 16.516 C 7.037 16.672,7.020 16.746,7.020 17.000 C 7.020 17.257,7.036 17.327,7.133 17.492 C 7.651 18.374,8.998 18.018,8.998 17.000 C 8.998 16.623,8.792 16.281,8.463 16.112 C 8.265 16.010,7.911 15.984,7.695 16.055 M15.695 16.055 C 15.464 16.130,15.255 16.300,15.128 16.516 C 15.037 16.672,15.020 16.746,15.020 17.000 C 15.020 17.257,15.036 17.327,15.133 17.492 C 15.651 18.374,16.998 18.018,16.998 17.000 C 16.998 16.623,16.792 16.281,16.463 16.112 C 16.265 16.010,15.911 15.984,15.695 16.055 M11.695 17.055 C 11.464 17.130,11.255 17.300,11.128 17.516 C 11.037 17.672,11.020 17.746,11.020 18.000 C 11.020 18.257,11.036 18.327,11.133 18.492 C 11.651 19.374,12.998 19.018,12.998 18.000 C 12.998 17.623,12.792 17.281,12.463 17.112 C 12.265 17.010,11.911 16.984,11.695 17.055 " stroke="none" fill-rule="evenodd" fill="black"></path></svg>