<svg xmlns="http://www.w3.org/2000/svg" width="24" height="24" viewBox="0 0 24 24" fill="none" stroke="currentColor" stroke-width="2" stroke-linecap="round" stroke-linejoin="round"><path d="M11.160 5.043 C 7.817 5.297,4.962 7.200,2.624 10.731 C 2.082 11.550,2.020 11.680,2.020 12.000 C 2.020 12.320,2.082 12.450,2.624 13.269 C 4.375 15.914,6.418 17.652,8.699 18.438 C 9.942 18.866,11.017 19.029,12.320 18.987 C 13.382 18.953,14.199 18.809,15.132 18.493 C 15.643 18.319,15.826 18.169,15.962 17.807 C 16.158 17.288,15.872 16.713,15.324 16.526 C 15.105 16.452,14.919 16.471,14.421 16.622 C 11.726 17.439,9.120 16.923,6.900 15.132 C 6.437 14.758,5.580 13.892,5.188 13.400 C 4.894 13.030,4.320 12.235,4.244 12.090 C 4.185 11.977,4.198 11.952,4.605 11.380 C 5.092 10.695,5.417 10.304,5.980 9.725 C 6.846 8.835,7.662 8.233,8.615 7.781 C 9.786 7.225,10.690 7.023,12.000 7.023 C 13.310 7.023,14.214 7.225,15.385 7.781 C 16.941 8.519,18.355 9.830,19.631 11.718 C 19.805 11.977,19.827 12.030,19.793 12.118 C 19.732 12.277,19.743 12.604,19.816 12.778 C 20.049 13.332,20.624 13.560,21.164 13.312 C 21.399 13.205,21.528 13.065,21.768 12.660 C 22.039 12.202,22.064 11.899,21.864 11.513 C 21.708 11.213,21.050 10.229,20.671 9.729 C 19.313 7.937,17.629 6.540,15.960 5.818 C 14.465 5.172,12.866 4.914,11.160 5.043 M11.499 9.040 C 10.363 9.246,9.460 10.049,9.114 11.160 C 8.979 11.594,8.979 12.406,9.114 12.840 C 9.421 13.826,10.174 14.579,11.160 14.886 C 11.594 15.021,12.406 15.021,12.840 14.886 C 13.826 14.579,14.579 13.826,14.886 12.840 C 15.021 12.406,15.021 11.594,14.886 11.160 C 14.581 10.179,13.810 9.407,12.861 9.129 C 12.500 9.023,11.832 8.980,11.499 9.040 M12.310 11.061 C 12.688 11.173,13.000 11.598,13.000 12.001 C 13.000 12.331,12.784 12.696,12.484 12.872 C 12.328 12.963,12.254 12.980,12.000 12.980 C 11.746 12.980,11.672 12.963,11.516 12.872 C 10.935 12.530,10.833 11.774,11.304 11.303 C 11.583 11.024,11.916 10.944,12.310 11.061 M18.695 15.057 C 18.466 15.129,18.256 15.299,18.128 15.516 L 18.020 15.700 18.020 17.503 L 18.020 19.306 18.141 19.503 C 18.543 20.156,19.457 20.156,19.859 19.503 L 19.980 19.306 19.980 17.503 L 19.980 15.700 19.872 15.516 C 19.628 15.101,19.150 14.915,18.695 15.057 M18.695 21.057 C 18.466 21.129,18.256 21.299,18.128 21.516 C 18.036 21.672,18.020 21.745,18.021 22.000 C 18.022 22.332,18.101 22.533,18.306 22.728 C 18.785 23.181,19.580 23.046,19.893 22.460 C 20.025 22.211,20.015 21.760,19.872 21.516 C 19.628 21.101,19.150 20.915,18.695 21.057 " stroke="none" fill-rule="evenodd" fill="black"></path></svg>