<svg xmlns="http://www.w3.org/2000/svg" width="24" height="24" viewBox="0 0 24 24" fill="none" stroke="currentColor" stroke-width="2" stroke-linecap="round" stroke-linejoin="round"><path d="M2.673 8.056 C 2.448 8.136,2.216 8.341,2.113 8.551 C 1.993 8.794,1.985 9.229,2.097 9.438 C 2.226 9.681,3.258 10.713,3.847 11.188 C 3.997 11.310,4.120 11.424,4.120 11.442 C 4.120 11.460,3.666 12.165,3.112 13.008 C 2.557 13.850,2.081 14.603,2.054 14.680 C 1.901 15.107,2.096 15.626,2.499 15.862 C 2.838 16.060,3.299 16.028,3.620 15.783 C 3.696 15.725,4.174 15.036,4.781 14.112 C 5.348 13.247,5.815 12.536,5.819 12.530 C 5.823 12.525,6.008 12.610,6.230 12.719 C 6.453 12.828,6.749 12.965,6.888 13.022 C 7.200 13.152,8.094 13.460,8.270 13.498 C 8.352 13.516,8.401 13.551,8.402 13.593 C 8.403 13.630,8.309 14.425,8.194 15.360 C 8.001 16.921,7.988 17.076,8.038 17.252 C 8.229 17.936,9.019 18.216,9.591 17.802 C 9.681 17.737,9.803 17.602,9.861 17.502 C 9.959 17.334,9.985 17.184,10.180 15.637 C 10.297 14.712,10.400 13.947,10.409 13.937 C 10.419 13.928,10.641 13.938,10.903 13.959 C 11.513 14.010,12.487 14.010,13.097 13.959 C 13.359 13.938,13.581 13.928,13.591 13.937 C 13.600 13.947,13.703 14.712,13.820 15.637 C 14.015 17.184,14.041 17.334,14.139 17.502 C 14.586 18.264,15.722 18.109,15.962 17.252 C 16.012 17.076,15.999 16.921,15.806 15.360 C 15.691 14.425,15.597 13.630,15.598 13.593 C 15.599 13.551,15.648 13.516,15.730 13.498 C 16.129 13.412,17.153 13.021,17.761 12.723 C 17.988 12.612,18.178 12.525,18.183 12.530 C 18.188 12.536,18.649 13.233,19.209 14.080 C 19.768 14.927,20.292 15.678,20.373 15.748 C 20.540 15.895,20.777 15.972,21.046 15.968 C 21.703 15.957,22.188 15.216,21.925 14.622 C 21.878 14.517,21.407 13.774,20.877 12.971 C 20.347 12.168,19.906 11.489,19.895 11.462 C 19.885 11.434,20.000 11.312,20.151 11.190 C 20.741 10.713,21.777 9.677,21.898 9.443 C 22.077 9.098,21.996 8.596,21.717 8.317 C 21.423 8.023,21.104 7.941,20.704 8.057 C 20.493 8.118,20.430 8.169,19.887 8.712 C 18.034 10.567,16.133 11.529,13.580 11.906 C 12.899 12.007,11.101 12.007,10.420 11.906 C 7.842 11.525,5.934 10.554,4.076 8.676 C 3.591 8.186,3.510 8.120,3.319 8.063 C 3.063 7.987,2.871 7.985,2.673 8.056 " stroke="none" fill-rule="evenodd" fill="black"></path></svg>