<svg xmlns="http://www.w3.org/2000/svg" width="24" height="24" viewBox="0 0 24 24" fill="none" stroke="currentColor" stroke-width="2" stroke-linecap="round" stroke-linejoin="round"><path d="M11.160 5.043 C 7.817 5.297,4.962 7.200,2.624 10.731 C 2.082 11.550,2.020 11.680,2.020 12.000 C 2.020 12.320,2.082 12.450,2.624 13.269 C 4.585 16.231,6.878 18.026,9.559 18.699 C 12.386 19.408,15.362 18.856,17.720 17.186 C 19.200 16.137,20.624 14.545,21.764 12.664 C 21.976 12.315,21.980 12.301,21.980 12.000 C 21.980 11.699,21.976 11.685,21.764 11.336 C 20.344 8.992,18.554 7.181,16.640 6.148 C 15.019 5.274,13.131 4.894,11.160 5.043 M13.209 7.098 C 14.011 7.221,14.582 7.400,15.385 7.781 C 16.918 8.508,18.342 9.818,19.573 11.635 C 19.698 11.819,19.800 11.984,19.800 12.000 C 19.800 12.041,19.401 12.627,19.106 13.020 C 18.287 14.110,17.246 15.107,16.272 15.734 C 14.552 16.841,12.497 17.240,10.500 16.854 C 8.266 16.423,6.309 15.017,4.605 12.620 C 4.198 12.048,4.185 12.023,4.244 11.910 C 4.320 11.765,4.894 10.970,5.188 10.600 C 5.576 10.114,6.435 9.243,6.885 8.881 C 7.448 8.426,8.021 8.063,8.615 7.781 C 9.453 7.383,10.146 7.174,10.927 7.083 C 11.132 7.059,11.363 7.032,11.440 7.023 C 11.707 6.992,12.822 7.039,13.209 7.098 M11.499 9.040 C 10.363 9.246,9.460 10.049,9.114 11.160 C 8.979 11.594,8.979 12.406,9.114 12.840 C 9.421 13.826,10.174 14.579,11.160 14.886 C 11.594 15.021,12.406 15.021,12.840 14.886 C 13.826 14.579,14.579 13.826,14.886 12.840 C 15.021 12.406,15.021 11.594,14.886 11.160 C 14.581 10.179,13.810 9.407,12.861 9.129 C 12.500 9.023,11.832 8.980,11.499 9.040 M12.310 11.061 C 12.688 11.173,13.000 11.598,13.000 12.001 C 13.000 12.331,12.784 12.696,12.484 12.872 C 12.328 12.963,12.254 12.980,12.000 12.980 C 11.746 12.980,11.672 12.963,11.516 12.872 C 10.935 12.530,10.833 11.774,11.304 11.303 C 11.583 11.024,11.916 10.944,12.310 11.061 " stroke="none" fill-rule="evenodd" fill="black"></path></svg>