<svg xmlns="http://www.w3.org/2000/svg" width="24" height="24" viewBox="0 0 24 24" fill="none" stroke="currentColor" stroke-width="2" stroke-linecap="round" stroke-linejoin="round"><path d="M2.670 2.061 C 2.448 2.142,2.250 2.309,2.128 2.516 C 2.036 2.672,2.020 2.745,2.021 3.000 C 2.021 3.212,2.043 3.341,2.095 3.440 C 2.135 3.517,2.980 4.394,3.972 5.388 L 5.775 7.196 5.658 7.288 C 5.389 7.498,4.791 8.058,4.403 8.464 C 3.838 9.056,3.245 9.807,2.701 10.620 C 2.083 11.542,2.020 11.671,2.020 12.000 C 2.020 12.320,2.082 12.450,2.624 13.269 C 4.135 15.552,5.854 17.151,7.771 18.059 C 9.966 19.098,12.570 19.288,14.890 18.579 C 15.343 18.440,16.011 18.178,16.345 18.008 L 16.506 17.926 18.423 19.845 C 19.477 20.901,20.421 21.813,20.520 21.873 C 20.673 21.964,20.746 21.980,21.000 21.980 C 21.257 21.980,21.327 21.964,21.492 21.867 C 21.968 21.587,22.139 20.967,21.865 20.508 C 21.810 20.416,17.665 16.243,12.653 11.235 C 4.231 2.820,3.525 2.125,3.343 2.065 C 3.107 1.987,2.874 1.986,2.670 2.061 M11.087 5.044 C 10.441 5.102,9.953 5.198,9.720 5.313 C 9.460 5.442,9.269 5.694,9.205 5.995 C 9.123 6.375,9.323 6.824,9.660 7.022 C 9.942 7.187,10.120 7.213,10.496 7.141 C 11.123 7.022,11.901 6.980,12.547 7.032 C 13.679 7.122,14.405 7.313,15.380 7.778 C 16.886 8.495,18.236 9.720,19.472 11.488 C 19.804 11.963,19.813 11.982,19.755 12.090 C 19.590 12.404,18.794 13.445,18.279 14.020 C 17.987 14.347,17.880 14.560,17.875 14.827 C 17.868 15.149,17.945 15.349,18.159 15.562 C 18.473 15.876,18.850 15.947,19.283 15.774 C 19.628 15.636,20.772 14.229,21.599 12.925 C 21.939 12.391,22.017 12.190,21.991 11.917 C 21.967 11.671,21.854 11.453,21.376 10.731 C 19.572 8.005,17.485 6.267,15.080 5.487 C 13.836 5.083,12.417 4.926,11.087 5.044 M8.247 9.670 L 9.274 10.700 9.149 11.060 C 9.033 11.395,9.024 11.459,9.022 11.980 C 9.020 12.459,9.034 12.583,9.114 12.840 C 9.422 13.827,10.173 14.578,11.160 14.886 C 11.417 14.966,11.541 14.980,12.020 14.978 C 12.541 14.976,12.605 14.967,12.940 14.851 L 13.300 14.726 14.153 15.576 L 15.005 16.426 14.573 16.571 C 13.720 16.859,13.204 16.954,12.315 16.988 C 10.370 17.062,8.582 16.461,6.972 15.193 C 6.344 14.698,5.465 13.779,4.894 13.020 C 4.577 12.598,4.200 12.044,4.200 12.000 C 4.200 11.948,4.604 11.364,5.004 10.840 C 5.352 10.382,6.021 9.644,6.440 9.256 C 6.684 9.029,7.164 8.640,7.198 8.640 C 7.211 8.640,7.683 9.104,8.247 9.670 " stroke="none" fill-rule="evenodd" fill="black"></path></svg>