<svg xmlns="http://www.w3.org/2000/svg" width="24" height="24" viewBox="0 0 24 24" fill="none" stroke="currentColor" stroke-width="2" stroke-linecap="round" stroke-linejoin="round"><path d="M11.160 5.040 C 7.779 5.320,4.962 7.198,2.624 10.731 C 2.082 11.550,2.020 11.680,2.020 12.000 C 2.020 12.320,2.082 12.450,2.624 13.269 C 4.243 15.715,6.132 17.402,8.200 18.250 C 9.693 18.862,11.380 19.114,12.926 18.958 C 13.464 18.904,13.602 18.865,13.804 18.709 C 14.386 18.260,14.289 17.378,13.620 17.029 C 13.438 16.934,13.321 16.929,12.320 16.979 C 10.356 17.076,8.545 16.459,6.900 15.132 C 6.437 14.758,5.580 13.892,5.188 13.400 C 4.894 13.030,4.320 12.235,4.244 12.090 C 4.185 11.977,4.198 11.952,4.605 11.380 C 5.092 10.695,5.417 10.304,5.980 9.725 C 6.846 8.835,7.662 8.233,8.615 7.781 C 9.805 7.216,10.696 7.021,12.060 7.024 C 13.380 7.028,14.412 7.275,15.563 7.863 C 16.732 8.461,17.621 9.203,18.747 10.520 C 19.205 11.056,19.387 11.174,19.755 11.172 C 20.273 11.170,20.686 10.798,20.748 10.278 C 20.786 9.955,20.706 9.767,20.327 9.291 C 19.913 8.771,18.790 7.637,18.320 7.265 C 16.786 6.050,15.154 5.335,13.380 5.100 C 12.791 5.022,11.724 4.994,11.160 5.040 M11.499 9.040 C 10.363 9.246,9.460 10.049,9.114 11.160 C 8.979 11.594,8.979 12.406,9.114 12.840 C 9.421 13.826,10.174 14.579,11.160 14.886 C 11.594 15.021,12.406 15.021,12.840 14.886 C 13.826 14.579,14.579 13.826,14.886 12.840 C 15.021 12.406,15.021 11.594,14.886 11.160 C 14.581 10.179,13.810 9.407,12.861 9.129 C 12.500 9.023,11.832 8.980,11.499 9.040 M12.310 11.061 C 12.688 11.173,13.000 11.598,13.000 12.001 C 13.000 12.331,12.784 12.696,12.484 12.872 C 12.328 12.963,12.254 12.980,12.000 12.980 C 11.746 12.980,11.672 12.963,11.516 12.872 C 10.935 12.530,10.833 11.774,11.304 11.303 C 11.583 11.024,11.916 10.944,12.310 11.061 M18.600 12.584 C 18.399 12.671,18.205 12.869,18.095 13.100 C 18.018 13.263,18.001 13.365,18.000 13.650 L 18.000 14.000 16.946 14.000 C 15.797 14.000,15.644 14.022,15.382 14.221 C 15.302 14.282,15.187 14.415,15.128 14.516 C 15.036 14.672,15.020 14.746,15.020 15.003 C 15.020 15.271,15.034 15.329,15.141 15.503 C 15.288 15.742,15.578 15.946,15.821 15.982 L 16.000 16.009 16.000 17.998 L 16.000 19.987 15.786 20.035 C 15.515 20.096,15.270 20.275,15.129 20.514 C 15.036 20.672,15.020 20.745,15.020 21.000 C 15.020 21.256,15.036 21.328,15.131 21.489 C 15.192 21.592,15.304 21.725,15.381 21.783 C 15.643 21.983,15.738 21.996,16.910 21.998 L 18.000 22.000 18.000 22.350 C 18.001 22.635,18.018 22.737,18.095 22.900 C 18.276 23.281,18.595 23.488,19.000 23.488 C 19.405 23.488,19.724 23.281,19.905 22.900 C 19.982 22.735,19.999 22.635,20.000 22.334 L 20.000 21.969 20.289 21.874 C 21.001 21.642,21.604 21.048,21.868 20.320 C 21.965 20.052,21.976 19.965,21.976 19.500 C 21.976 19.035,21.965 18.949,21.868 18.684 C 21.809 18.521,21.705 18.301,21.636 18.194 L 21.512 18.000 21.636 17.806 C 21.705 17.699,21.809 17.479,21.868 17.316 C 21.965 17.051,21.976 16.965,21.976 16.500 C 21.976 16.035,21.965 15.948,21.868 15.680 C 21.599 14.937,20.984 14.347,20.241 14.118 L 20.020 14.049 19.999 13.635 C 19.982 13.318,19.957 13.182,19.892 13.060 C 19.783 12.854,19.580 12.661,19.391 12.582 C 19.203 12.503,18.783 12.504,18.600 12.584 M19.724 16.062 C 19.872 16.139,20.000 16.341,20.000 16.500 C 20.000 16.566,19.965 16.678,19.922 16.748 C 19.780 16.980,19.693 17.000,18.802 17.000 L 18.000 17.000 18.000 16.500 L 18.000 16.000 18.802 16.000 C 19.448 16.000,19.627 16.012,19.724 16.062 M19.724 19.062 C 19.872 19.139,20.000 19.341,20.000 19.500 C 20.000 19.566,19.965 19.678,19.922 19.748 C 19.780 19.980,19.693 20.000,18.802 20.000 L 18.000 20.000 18.000 19.500 L 18.000 19.000 18.802 19.000 C 19.448 19.000,19.627 19.012,19.724 19.062 " stroke="none" fill-rule="evenodd" fill="black"></path></svg>