<svg xmlns="http://www.w3.org/2000/svg" width="24" height="24" viewBox="0 0 24 24" fill="none" stroke="currentColor" stroke-width="2" stroke-linecap="round" stroke-linejoin="round"><path d="M11.160 5.043 C 7.817 5.297,4.962 7.200,2.624 10.731 C 2.082 11.550,2.020 11.680,2.020 12.000 C 2.020 12.320,2.082 12.450,2.624 13.269 C 4.372 15.910,6.421 17.653,8.699 18.438 C 9.189 18.607,9.752 18.759,10.180 18.839 C 11.307 19.048,13.069 19.050,13.477 18.842 C 14.084 18.532,14.229 17.747,13.768 17.265 C 13.487 16.971,13.398 16.952,12.430 16.982 C 11.480 17.011,10.913 16.961,10.160 16.780 C 8.069 16.277,6.221 14.894,4.605 12.620 C 4.198 12.048,4.185 12.023,4.244 11.910 C 4.320 11.765,4.894 10.970,5.188 10.600 C 5.576 10.114,6.435 9.243,6.885 8.881 C 7.448 8.426,8.021 8.063,8.615 7.781 C 9.786 7.225,10.690 7.023,12.000 7.023 C 13.310 7.023,14.214 7.225,15.385 7.781 C 16.918 8.508,18.342 9.818,19.573 11.635 C 19.698 11.819,19.800 11.988,19.800 12.009 C 19.800 12.052,19.446 12.564,19.006 13.158 C 18.850 13.368,18.705 13.612,18.678 13.708 C 18.579 14.061,18.704 14.473,18.985 14.719 C 19.185 14.895,19.355 14.960,19.613 14.960 C 20.038 14.960,20.225 14.844,20.626 14.332 C 20.964 13.900,21.750 12.728,21.882 12.459 C 22.024 12.170,22.019 11.812,21.868 11.521 C 21.709 11.214,21.055 10.234,20.671 9.729 C 19.313 7.937,17.629 6.540,15.960 5.818 C 14.465 5.172,12.866 4.914,11.160 5.043 M11.499 9.040 C 10.363 9.246,9.460 10.049,9.114 11.160 C 8.979 11.594,8.979 12.406,9.114 12.840 C 9.421 13.826,10.174 14.579,11.160 14.886 C 11.594 15.021,12.406 15.021,12.840 14.886 C 13.826 14.579,14.579 13.826,14.886 12.840 C 15.021 12.406,15.021 11.594,14.886 11.160 C 14.581 10.179,13.810 9.407,12.861 9.129 C 12.500 9.023,11.832 8.980,11.499 9.040 M12.310 11.061 C 12.688 11.173,13.000 11.598,13.000 12.001 C 13.000 12.331,12.784 12.696,12.484 12.872 C 12.328 12.963,12.254 12.980,12.000 12.980 C 11.746 12.980,11.672 12.963,11.516 12.872 C 10.935 12.530,10.833 11.774,11.304 11.303 C 11.583 11.024,11.916 10.944,12.310 11.061 M16.670 16.061 C 16.448 16.142,16.250 16.309,16.128 16.516 C 16.037 16.672,16.020 16.746,16.020 17.000 C 16.020 17.254,16.036 17.328,16.127 17.480 C 16.186 17.579,16.650 18.074,17.157 18.579 L 18.079 19.499 17.124 20.459 C 16.599 20.988,16.138 21.481,16.101 21.555 C 15.872 22.009,16.056 22.601,16.508 22.867 C 16.673 22.964,16.743 22.980,17.000 22.980 C 17.254 22.980,17.328 22.964,17.480 22.873 C 17.579 22.814,18.074 22.350,18.579 21.843 L 19.499 20.921 20.459 21.876 C 20.988 22.401,21.483 22.864,21.560 22.905 C 21.659 22.957,21.787 22.979,22.000 22.979 C 22.258 22.980,22.327 22.964,22.492 22.867 C 22.714 22.737,22.901 22.498,22.965 22.264 C 23.019 22.061,22.989 21.733,22.899 21.555 C 22.862 21.481,22.401 20.988,21.876 20.459 L 20.921 19.499 21.843 18.579 C 22.350 18.074,22.814 17.579,22.873 17.480 C 22.964 17.328,22.980 17.254,22.980 17.000 C 22.980 16.746,22.963 16.672,22.872 16.516 C 22.618 16.084,22.136 15.905,21.657 16.066 C 21.486 16.124,21.330 16.262,20.480 17.104 L 19.500 18.076 18.520 17.104 C 17.671 16.262,17.514 16.124,17.343 16.066 C 17.108 15.987,16.875 15.985,16.670 16.061 " stroke="none" fill-rule="evenodd" fill="black"></path></svg>