<svg xmlns="http://www.w3.org/2000/svg" width="24" height="24" viewBox="0 0 24 24" fill="none" stroke="currentColor" stroke-width="2" stroke-linecap="round" stroke-linejoin="round"><path d="M11.160 5.043 C 7.817 5.297,4.962 7.200,2.624 10.731 C 2.082 11.549,2.020 11.680,2.020 11.998 C 2.020 12.330,2.076 12.445,2.656 13.312 C 4.459 16.010,6.493 17.709,8.860 18.493 C 9.641 18.751,10.689 18.960,11.207 18.960 C 12.091 18.960,12.520 17.862,11.874 17.254 C 11.677 17.070,11.534 17.011,11.158 16.961 C 10.278 16.844,9.664 16.684,8.960 16.389 C 7.336 15.708,5.838 14.389,4.481 12.445 C 4.141 11.958,4.131 12.042,4.600 11.384 C 5.096 10.690,5.418 10.303,5.980 9.725 C 6.846 8.835,7.662 8.233,8.615 7.781 C 9.785 7.226,10.685 7.024,12.000 7.023 C 13.300 7.021,14.330 7.255,15.437 7.803 C 16.420 8.290,17.161 8.841,18.020 9.726 C 18.601 10.324,18.820 10.586,19.369 11.340 C 19.850 12.001,19.990 12.100,20.440 12.100 C 20.711 12.100,20.769 12.086,20.943 11.979 C 21.305 11.756,21.485 11.363,21.422 10.938 C 21.341 10.400,19.452 8.161,18.320 7.263 C 16.196 5.577,13.823 4.841,11.160 5.043 M11.499 9.040 C 10.363 9.246,9.460 10.049,9.114 11.160 C 8.979 11.594,8.979 12.406,9.114 12.840 C 9.421 13.826,10.174 14.579,11.160 14.886 C 11.594 15.021,12.406 15.021,12.840 14.886 C 13.826 14.579,14.579 13.826,14.886 12.840 C 15.021 12.406,15.021 11.594,14.886 11.160 C 14.581 10.179,13.810 9.407,12.861 9.129 C 12.500 9.023,11.832 8.980,11.499 9.040 M12.310 11.061 C 12.688 11.173,13.000 11.598,13.000 12.001 C 13.000 12.331,12.784 12.696,12.484 12.872 C 12.328 12.963,12.254 12.980,12.000 12.980 C 11.746 12.980,11.672 12.963,11.516 12.872 C 10.935 12.530,10.833 11.774,11.304 11.303 C 11.583 11.024,11.916 10.944,12.310 11.061 M19.351 14.039 C 18.895 14.122,18.443 14.323,18.060 14.613 C 17.928 14.713,16.989 15.620,15.974 16.627 C 14.261 18.327,14.122 18.475,14.062 18.665 C 14.005 18.844,13.998 19.090,14.008 20.585 L 14.020 22.300 14.131 22.489 C 14.192 22.592,14.304 22.725,14.381 22.783 C 14.655 22.992,14.694 22.996,16.483 22.998 C 17.902 23.000,18.175 22.991,18.343 22.936 C 18.522 22.878,18.710 22.701,20.372 21.026 C 21.380 20.011,22.287 19.072,22.387 18.940 C 22.775 18.428,22.957 17.919,22.989 17.258 C 23.036 16.280,22.720 15.505,21.996 14.824 C 21.652 14.500,21.154 14.216,20.720 14.097 C 20.460 14.025,19.620 13.989,19.351 14.039 M20.385 16.112 C 20.594 16.219,20.778 16.402,20.891 16.615 C 21.016 16.850,21.016 17.350,20.891 17.586 C 20.840 17.682,20.129 18.433,19.197 19.376 L 17.591 21.000 16.795 21.000 L 16.000 21.000 16.000 20.205 L 16.000 19.410 17.602 17.825 C 18.483 16.953,19.248 16.211,19.302 16.175 C 19.599 15.980,20.073 15.953,20.385 16.112 " stroke="none" fill-rule="evenodd" fill="black"></path></svg>