<svg xmlns="http://www.w3.org/2000/svg" width="24" height="24" viewBox="0 0 24 24" fill="none" stroke="currentColor" stroke-width="2" stroke-linecap="round" stroke-linejoin="round"><path d="M2.670 2.061 C 2.448 2.142,2.250 2.309,2.128 2.516 C 2.036 2.672,2.020 2.745,2.021 3.000 C 2.021 3.213,2.043 3.341,2.095 3.440 C 2.136 3.517,2.673 4.086,3.288 4.705 L 4.408 5.829 3.202 9.845 L 1.996 13.860 2.010 15.520 C 2.024 17.160,2.025 17.185,2.128 17.563 C 2.453 18.761,3.145 19.713,4.136 20.323 C 5.921 21.421,8.192 21.155,9.674 19.674 C 10.342 19.006,10.831 18.053,10.944 17.201 L 10.970 17.000 11.997 17.000 L 13.024 17.000 13.075 17.300 C 13.268 18.448,13.994 19.565,14.971 20.215 C 16.163 21.008,17.563 21.206,18.911 20.772 L 19.242 20.665 19.831 21.248 C 20.155 21.568,20.483 21.863,20.560 21.904 C 20.660 21.957,20.786 21.979,21.000 21.979 C 21.258 21.980,21.327 21.964,21.492 21.867 C 21.968 21.587,22.139 20.967,21.865 20.508 C 21.810 20.416,17.665 16.243,12.653 11.235 C 4.231 2.820,3.525 2.125,3.343 2.065 C 3.107 1.987,2.874 1.986,2.670 2.061 M15.695 3.057 C 15.466 3.129,15.256 3.299,15.128 3.516 C 15.037 3.672,15.020 3.746,15.020 4.000 C 15.020 4.256,15.036 4.328,15.131 4.489 C 15.192 4.592,15.304 4.725,15.381 4.783 C 15.626 4.971,15.765 4.996,16.540 4.999 L 17.260 5.001 18.433 8.917 C 19.078 11.071,19.616 12.871,19.628 12.917 C 19.649 12.999,19.640 13.000,18.771 13.000 C 17.810 13.000,17.636 13.028,17.382 13.221 C 17.302 13.282,17.187 13.415,17.128 13.516 C 17.037 13.672,17.020 13.746,17.020 14.000 C 17.020 14.256,17.036 14.328,17.131 14.489 C 17.192 14.592,17.304 14.725,17.381 14.783 C 17.643 14.983,17.738 14.996,18.914 14.998 L 20.007 15.000 19.995 16.110 C 19.982 17.313,19.979 17.292,20.216 17.614 C 20.444 17.924,20.966 18.046,21.353 17.879 C 21.593 17.776,21.837 17.523,21.919 17.293 C 21.961 17.176,21.978 16.754,21.989 15.500 L 22.004 13.860 20.462 8.725 C 19.614 5.900,18.882 3.528,18.836 3.454 C 18.730 3.282,18.542 3.138,18.322 3.061 C 18.092 2.979,15.952 2.976,15.695 3.057 M13.000 14.710 L 13.000 15.000 12.003 15.000 L 11.007 15.000 10.993 14.350 C 10.981 13.728,10.975 13.692,10.872 13.516 C 10.813 13.415,10.698 13.282,10.618 13.221 C 10.326 12.998,10.352 13.000,7.234 13.000 C 5.653 13.000,4.360 12.988,4.360 12.973 C 4.360 12.959,4.732 11.706,5.187 10.190 L 6.014 7.434 9.507 10.927 L 13.000 14.420 13.000 14.710 M8.999 15.870 C 8.998 16.885,8.957 17.147,8.723 17.620 C 8.439 18.195,7.932 18.646,7.320 18.868 C 7.052 18.965,6.965 18.976,6.500 18.976 C 6.035 18.976,5.948 18.965,5.680 18.868 C 5.068 18.646,4.561 18.195,4.277 17.620 C 4.043 17.147,4.002 16.885,4.001 15.870 L 4.000 15.000 6.500 15.000 L 9.000 15.000 8.999 15.870 M17.415 18.993 C 17.182 19.013,16.694 18.885,16.374 18.720 C 15.671 18.356,15.204 17.738,15.059 16.980 C 14.932 16.320,14.851 16.272,16.281 17.700 L 17.561 18.980 17.415 18.993 " stroke="none" fill-rule="evenodd" fill="black"></path></svg>