<svg xmlns="http://www.w3.org/2000/svg" width="24" height="24" viewBox="0 0 24 24" fill="none" stroke="currentColor" stroke-width="2" stroke-linecap="round" stroke-linejoin="round"><path d="M15.880 3.042 C 15.229 3.122,14.501 3.397,13.906 3.788 C 13.689 3.930,12.604 4.989,9.427 8.158 C 6.994 10.585,5.189 12.416,5.127 12.520 L 5.020 12.700 5.009 15.140 L 4.998 17.580 4.083 18.500 C 3.581 19.006,3.136 19.483,3.095 19.560 C 3.043 19.659,3.021 19.787,3.021 20.000 C 3.020 20.258,3.036 20.327,3.133 20.492 C 3.413 20.968,4.033 21.139,4.492 20.865 C 4.584 20.810,5.056 20.368,5.540 19.883 L 6.419 19.000 8.820 19.000 L 11.220 18.999 11.420 18.904 C 11.703 18.770,19.932 10.525,20.213 10.095 C 21.130 8.692,21.250 7.028,20.541 5.548 C 20.332 5.110,20.096 4.775,19.728 4.393 C 19.088 3.727,18.293 3.290,17.383 3.102 C 16.990 3.021,16.279 2.993,15.880 3.042 M17.240 5.116 C 17.987 5.352,18.652 6.017,18.882 6.757 C 19.072 7.369,19.012 8.116,18.729 8.678 L 18.576 8.980 16.788 8.990 L 14.999 9.001 15.010 7.212 L 15.020 5.424 15.324 5.271 C 15.491 5.186,15.752 5.091,15.904 5.060 C 16.277 4.982,16.900 5.008,17.240 5.116 M12.001 10.579 L 11.000 11.580 11.000 10.500 L 11.000 9.421 11.990 8.430 L 12.980 7.439 12.991 8.509 L 13.001 9.578 12.001 10.579 M15.580 12.000 L 14.581 13.000 13.501 13.000 L 12.421 13.000 13.420 12.000 L 14.419 11.000 15.499 11.000 L 16.579 11.000 15.580 12.000 M8.001 14.579 L 7.000 15.580 7.000 14.500 L 7.000 13.421 7.990 12.430 L 8.980 11.439 8.991 12.509 L 9.001 13.578 8.001 14.579 M11.580 16.000 L 10.581 17.000 9.501 17.000 L 8.421 17.000 9.420 16.000 L 10.419 15.000 11.499 15.000 L 12.579 15.000 11.580 16.000 " stroke="none" fill-rule="evenodd" fill="black"></path></svg>