<svg xmlns="http://www.w3.org/2000/svg" width="24" height="24" viewBox="0 0 24 24" fill="none" stroke="currentColor" stroke-width="2" stroke-linecap="round" stroke-linejoin="round"><path d="M2.670 2.061 C 2.448 2.142,2.250 2.309,2.128 2.516 C 2.036 2.672,2.020 2.745,2.021 3.000 C 2.021 3.212,2.043 3.341,2.095 3.440 C 2.135 3.517,3.498 4.912,5.124 6.540 L 8.080 9.501 6.636 10.940 C 5.520 12.053,5.170 12.425,5.096 12.580 L 5.001 12.780 5.000 15.180 L 5.000 17.581 4.117 18.460 C 3.632 18.944,3.186 19.421,3.127 19.520 C 3.036 19.672,3.020 19.746,3.020 20.000 C 3.020 20.257,3.036 20.327,3.133 20.492 C 3.413 20.968,4.033 21.139,4.492 20.865 C 4.584 20.810,5.056 20.368,5.540 19.883 L 6.419 19.000 8.820 19.000 L 11.220 18.999 11.420 18.904 C 11.575 18.830,11.947 18.480,13.060 17.364 L 14.499 15.920 17.460 18.876 C 19.088 20.502,20.483 21.865,20.560 21.905 C 20.659 21.957,20.788 21.979,21.000 21.979 C 21.258 21.980,21.327 21.964,21.492 21.867 C 21.968 21.587,22.139 20.967,21.865 20.508 C 21.810 20.416,17.665 16.243,12.653 11.235 C 4.231 2.820,3.525 2.125,3.343 2.065 C 3.107 1.987,2.874 1.986,2.670 2.061 M15.880 3.042 C 15.228 3.123,14.500 3.398,13.906 3.788 C 13.706 3.920,13.174 4.421,12.135 5.458 C 10.751 6.838,10.645 6.955,10.580 7.154 C 10.326 7.939,11.063 8.678,11.842 8.419 C 12.015 8.362,12.135 8.269,12.524 7.891 L 12.996 7.433 13.008 8.866 L 13.020 10.300 13.131 10.489 C 13.192 10.592,13.304 10.725,13.381 10.783 C 13.650 10.989,13.716 10.996,15.198 10.998 L 16.576 11.000 16.129 11.452 C 15.625 11.964,15.522 12.139,15.521 12.491 C 15.520 12.775,15.598 12.972,15.792 13.175 C 16.097 13.494,16.554 13.575,16.945 13.380 C 17.220 13.243,19.940 10.509,20.212 10.095 C 21.251 8.516,21.259 6.563,20.233 5.000 C 19.998 4.643,19.455 4.088,19.098 3.841 C 18.569 3.476,17.995 3.228,17.383 3.102 C 16.990 3.021,16.279 2.993,15.880 3.042 M17.240 5.116 C 17.987 5.352,18.652 6.017,18.882 6.757 C 19.072 7.369,19.012 8.116,18.729 8.678 L 18.576 8.980 16.788 8.990 L 14.999 9.001 15.010 7.212 L 15.020 5.424 15.324 5.271 C 15.491 5.186,15.752 5.091,15.904 5.060 C 16.277 4.982,16.900 5.008,17.240 5.116 M10.290 12.290 L 10.000 12.579 10.000 12.000 L 10.000 11.421 10.290 11.710 L 10.579 12.000 10.290 12.290 M7.501 15.079 L 7.000 15.580 7.000 14.500 L 7.000 13.421 7.490 12.930 L 7.980 12.439 7.991 13.508 L 8.001 14.578 7.501 15.079 M12.300 13.720 L 12.578 14.000 12.000 14.000 L 11.422 14.000 11.700 13.720 C 11.853 13.566,11.988 13.440,12.000 13.440 C 12.012 13.440,12.147 13.566,12.300 13.720 M11.080 16.500 L 10.581 17.000 9.501 17.000 L 8.421 17.000 8.920 16.500 L 9.419 16.000 10.499 16.000 L 11.579 16.000 11.080 16.500 " stroke="none" fill-rule="evenodd" fill="black"></path></svg>