<svg xmlns="http://www.w3.org/2000/svg" width="24" height="24" viewBox="0 0 24 24" fill="none" stroke="currentColor" stroke-width="2" stroke-linecap="round" stroke-linejoin="round"><path d="M7.640 3.068 C 7.490 3.120,7.268 3.322,6.295 4.295 C 5.267 5.324,5.123 5.483,5.065 5.657 C 5.008 5.831,5.000 6.154,5.000 8.427 L 5.000 11.000 4.446 11.000 C 3.648 11.000,3.367 11.110,3.128 11.516 L 3.020 11.700 3.009 13.911 C 3.001 15.337,3.012 16.176,3.039 16.275 C 3.099 16.498,3.289 16.739,3.508 16.867 C 3.694 16.976,3.721 16.980,4.348 16.993 L 4.997 17.007 5.008 18.653 L 5.020 20.300 5.131 20.489 C 5.256 20.702,5.449 20.864,5.670 20.943 C 5.889 21.021,10.111 21.021,10.330 20.943 C 10.551 20.864,10.744 20.702,10.869 20.489 L 10.980 20.300 10.992 18.650 L 11.003 17.000 12.000 17.000 L 12.997 17.000 13.008 18.650 L 13.020 20.300 13.131 20.489 C 13.256 20.702,13.449 20.864,13.670 20.943 C 13.889 21.021,18.111 21.021,18.330 20.943 C 18.551 20.864,18.744 20.702,18.869 20.489 L 18.980 20.300 18.992 18.653 L 19.003 17.007 19.652 16.993 C 20.279 16.980,20.306 16.976,20.492 16.867 C 20.711 16.739,20.901 16.498,20.961 16.275 C 20.988 16.176,20.999 15.337,20.991 13.911 L 20.980 11.700 20.872 11.516 C 20.633 11.110,20.352 11.000,19.554 11.000 L 19.000 11.000 19.000 8.427 C 19.000 6.154,18.992 5.831,18.935 5.657 C 18.877 5.483,18.733 5.324,17.705 4.295 C 16.676 3.267,16.517 3.123,16.343 3.065 C 16.094 2.983,15.906 2.983,15.657 3.065 C 15.483 3.123,15.324 3.267,14.295 4.295 C 13.267 5.324,13.123 5.483,13.065 5.657 C 13.008 5.831,13.000 6.154,13.000 8.427 L 13.000 11.000 12.000 11.000 L 11.000 11.000 11.000 8.427 C 11.000 6.154,10.992 5.831,10.935 5.657 C 10.877 5.483,10.733 5.324,9.705 4.295 C 8.676 3.267,8.517 3.123,8.343 3.065 C 8.102 2.985,7.878 2.986,7.640 3.068 M8.509 5.929 L 9.000 6.419 9.000 8.709 L 9.000 11.000 8.000 11.000 L 7.000 11.000 7.000 8.711 L 7.000 6.421 7.489 5.931 C 7.759 5.661,7.988 5.440,7.999 5.440 C 8.010 5.440,8.240 5.660,8.509 5.929 M16.509 5.929 L 17.000 6.419 17.000 8.709 L 17.000 11.000 16.000 11.000 L 15.000 11.000 15.000 8.711 L 15.000 6.421 15.489 5.931 C 15.759 5.661,15.988 5.440,15.999 5.440 C 16.010 5.440,16.240 5.660,16.509 5.929 M19.000 14.000 L 19.000 15.000 12.000 15.000 L 5.000 15.000 5.000 14.000 L 5.000 13.000 12.000 13.000 L 19.000 13.000 19.000 14.000 M9.000 18.000 L 9.000 19.000 8.000 19.000 L 7.000 19.000 7.000 18.000 L 7.000 17.000 8.000 17.000 L 9.000 17.000 9.000 18.000 M17.000 18.000 L 17.000 19.000 16.000 19.000 L 15.000 19.000 15.000 18.000 L 15.000 17.000 16.000 17.000 L 17.000 17.000 17.000 18.000 " stroke="none" fill-rule="evenodd" fill="black"></path></svg>