<svg xmlns="http://www.w3.org/2000/svg" width="24" height="24" viewBox="0 0 24 24" fill="none" stroke="currentColor" stroke-width="2" stroke-linecap="round" stroke-linejoin="round"><path d="M6.499 2.043 C 5.393 2.228,4.487 3.025,4.114 4.140 L 4.021 4.420 4.009 7.710 L 3.997 11.000 3.445 11.000 C 2.648 11.000,2.367 11.110,2.128 11.516 C 2.037 11.672,2.020 11.746,2.020 12.000 C 2.020 12.256,2.036 12.328,2.131 12.489 C 2.256 12.702,2.449 12.864,2.670 12.943 C 2.893 13.023,21.107 13.023,21.330 12.943 C 21.551 12.864,21.744 12.702,21.869 12.489 C 21.964 12.328,21.980 12.256,21.980 12.000 C 21.980 11.746,21.963 11.672,21.872 11.516 C 21.633 11.110,21.352 11.000,20.554 11.000 L 20.000 11.000 19.999 9.390 C 19.998 7.862,19.994 7.771,19.918 7.600 C 19.797 7.330,14.704 2.232,14.420 2.096 L 14.220 2.001 10.460 2.005 C 8.392 2.007,6.609 2.025,6.499 2.043 M13.000 5.632 C 13.000 7.399,13.010 7.507,13.225 7.930 C 13.361 8.199,13.801 8.639,14.070 8.775 C 14.493 8.990,14.601 9.000,16.368 9.000 L 18.000 9.000 18.000 10.000 L 18.000 11.000 12.000 11.000 L 6.000 11.000 6.000 7.947 C 6.000 4.480,5.989 4.618,6.304 4.303 C 6.613 3.994,6.464 4.006,9.930 4.003 L 13.000 4.000 13.000 5.632 M15.800 6.220 L 16.579 7.000 15.790 7.000 L 15.000 7.000 15.000 6.220 C 15.000 5.791,15.005 5.440,15.010 5.440 C 15.016 5.440,15.371 5.791,15.800 6.220 M5.695 15.057 C 5.466 15.129,5.256 15.299,5.128 15.516 L 5.020 15.700 5.020 17.003 L 5.020 18.306 5.141 18.503 C 5.543 19.156,6.457 19.156,6.859 18.503 L 6.980 18.306 6.980 17.003 L 6.980 15.700 6.872 15.516 C 6.628 15.101,6.150 14.915,5.695 15.057 M9.695 15.057 C 9.466 15.129,9.256 15.299,9.128 15.516 L 9.020 15.700 9.020 19.003 L 9.020 22.306 9.141 22.503 C 9.543 23.156,10.457 23.156,10.859 22.503 L 10.980 22.306 10.980 19.003 L 10.980 15.700 10.872 15.516 C 10.628 15.101,10.150 14.915,9.695 15.057 M13.695 15.057 C 13.466 15.129,13.256 15.299,13.128 15.516 L 13.020 15.700 13.020 17.003 L 13.020 18.306 13.141 18.503 C 13.543 19.156,14.457 19.156,14.859 18.503 L 14.980 18.306 14.980 17.003 L 14.980 15.700 14.872 15.516 C 14.628 15.101,14.150 14.915,13.695 15.057 M17.695 15.057 C 17.466 15.129,17.256 15.299,17.128 15.516 L 17.020 15.700 17.020 18.003 L 17.020 20.306 17.141 20.503 C 17.209 20.613,17.346 20.756,17.452 20.828 C 17.923 21.144,18.554 20.999,18.859 20.503 L 18.980 20.306 18.980 18.003 L 18.980 15.700 18.872 15.516 C 18.628 15.101,18.150 14.915,17.695 15.057 " stroke="none" fill-rule="evenodd" fill="black"></path></svg>