<svg xmlns="http://www.w3.org/2000/svg" width="24" height="24" viewBox="0 0 24 24" fill="none" stroke="currentColor" stroke-width="2" stroke-linecap="round" stroke-linejoin="round"><path d="M6.499 2.043 C 5.383 2.230,4.461 3.048,4.114 4.160 L 4.020 4.460 4.020 8.383 L 4.020 12.306 4.141 12.503 C 4.543 13.156,5.457 13.156,5.859 12.503 L 5.980 12.306 6.000 8.523 C 6.022 4.284,5.999 4.596,6.321 4.283 C 6.622 3.992,6.514 4.000,9.947 4.000 L 13.000 4.000 13.000 5.632 C 13.000 7.399,13.010 7.507,13.225 7.930 C 13.361 8.199,13.801 8.639,14.070 8.775 C 14.493 8.989,14.601 9.000,16.367 9.000 L 17.997 9.000 18.008 10.653 L 18.020 12.306 18.141 12.503 C 18.543 13.156,19.457 13.156,19.859 12.503 L 19.980 12.306 19.991 10.063 C 20.002 8.056,19.996 7.801,19.937 7.640 C 19.881 7.489,19.452 7.041,17.245 4.826 C 15.152 2.726,14.579 2.172,14.420 2.096 L 14.220 2.001 10.460 2.005 C 8.392 2.007,6.609 2.025,6.499 2.043 M15.800 6.220 L 16.579 7.000 15.790 7.000 L 15.000 7.000 15.000 6.220 C 15.000 5.791,15.005 5.440,15.010 5.440 C 15.016 5.440,15.371 5.791,15.800 6.220 M4.695 14.057 C 4.466 14.129,4.256 14.299,4.128 14.516 C 4.037 14.672,4.020 14.746,4.020 15.000 C 4.020 15.256,4.036 15.328,4.131 15.489 C 4.256 15.702,4.449 15.864,4.670 15.943 C 4.893 16.022,19.107 16.022,19.330 15.943 C 19.551 15.864,19.744 15.702,19.869 15.489 C 19.964 15.328,19.980 15.256,19.980 15.000 C 19.980 14.746,19.963 14.672,19.872 14.516 C 19.740 14.293,19.533 14.128,19.290 14.055 C 19.027 13.976,4.947 13.978,4.695 14.057 M4.695 17.057 C 4.466 17.129,4.256 17.299,4.128 17.516 C 4.037 17.672,4.020 17.746,4.020 18.000 C 4.020 18.256,4.036 18.328,4.131 18.489 C 4.256 18.702,4.449 18.864,4.670 18.943 C 4.893 19.022,19.107 19.022,19.330 18.943 C 19.551 18.864,19.744 18.702,19.869 18.489 C 19.964 18.328,19.980 18.256,19.980 18.000 C 19.980 17.746,19.963 17.672,19.872 17.516 C 19.740 17.293,19.533 17.128,19.290 17.055 C 19.027 16.976,4.947 16.978,4.695 17.057 M4.695 20.057 C 4.466 20.129,4.256 20.299,4.128 20.516 C 4.037 20.672,4.020 20.746,4.020 21.000 C 4.020 21.256,4.036 21.328,4.131 21.489 C 4.256 21.702,4.449 21.864,4.670 21.943 C 4.893 22.022,19.107 22.022,19.330 21.943 C 19.551 21.864,19.744 21.702,19.869 21.489 C 19.964 21.328,19.980 21.256,19.980 21.000 C 19.980 20.746,19.963 20.672,19.872 20.516 C 19.740 20.293,19.533 20.128,19.290 20.055 C 19.027 19.976,4.947 19.978,4.695 20.057 " stroke="none" fill-rule="evenodd" fill="black"></path></svg>