<svg xmlns="http://www.w3.org/2000/svg" width="24" height="24" viewBox="0 0 24 24" fill="none" stroke="currentColor" stroke-width="2" stroke-linecap="round" stroke-linejoin="round"><path d="M6.499 2.043 C 5.383 2.230,4.461 3.048,4.114 4.160 L 4.020 4.460 4.020 12.000 L 4.020 19.540 4.114 19.840 C 4.422 20.827,5.173 21.578,6.160 21.886 L 6.460 21.980 12.000 21.980 L 17.540 21.980 17.840 21.886 C 18.816 21.582,19.554 20.851,19.886 19.860 L 19.980 19.580 19.991 13.700 C 20.002 8.317,19.997 7.805,19.936 7.640 C 19.881 7.488,19.455 7.043,17.245 4.826 C 15.152 2.726,14.579 2.172,14.420 2.096 L 14.220 2.001 10.460 2.005 C 8.392 2.007,6.609 2.025,6.499 2.043 M13.000 5.632 C 13.000 7.399,13.010 7.507,13.225 7.930 C 13.361 8.199,13.801 8.639,14.070 8.775 C 14.493 8.990,14.601 9.000,16.368 9.000 L 18.000 9.000 18.000 14.054 C 18.000 18.220,17.990 19.139,17.945 19.290 C 17.872 19.533,17.707 19.740,17.484 19.872 L 17.300 19.980 12.000 19.980 L 6.700 19.980 6.516 19.872 C 6.415 19.813,6.284 19.700,6.225 19.623 C 5.986 19.309,6.000 19.795,6.000 12.022 C 6.000 4.005,5.975 4.631,6.304 4.303 C 6.613 3.994,6.464 4.006,9.930 4.003 L 13.000 4.000 13.000 5.632 M15.800 6.220 L 16.579 7.000 15.790 7.000 L 15.000 7.000 15.000 6.220 C 15.000 5.791,15.005 5.440,15.010 5.440 C 15.016 5.440,15.371 5.791,15.800 6.220 M9.643 12.066 C 9.313 12.188,9.186 12.369,8.580 13.595 C 8.026 14.716,8.020 14.731,8.020 15.000 C 8.020 15.269,8.026 15.284,8.580 16.405 C 9.196 17.651,9.312 17.815,9.660 17.934 C 9.767 17.970,9.920 18.000,10.000 18.000 C 10.406 18.000,10.811 17.707,10.939 17.322 C 11.060 16.958,11.021 16.812,10.546 15.855 L 10.122 15.000 10.546 14.145 C 11.017 13.198,11.060 13.040,10.944 12.693 C 10.909 12.586,10.828 12.435,10.765 12.358 C 10.523 12.065,10.011 11.931,9.643 12.066 M13.667 12.065 C 13.406 12.145,13.153 12.401,13.061 12.678 C 12.940 13.042,12.979 13.188,13.454 14.145 L 13.878 15.000 13.454 15.855 C 12.979 16.812,12.940 16.958,13.061 17.322 C 13.189 17.707,13.594 18.000,14.000 18.000 C 14.080 18.000,14.233 17.970,14.340 17.934 C 14.688 17.815,14.804 17.651,15.420 16.405 C 15.974 15.284,15.980 15.269,15.980 15.000 C 15.980 14.731,15.974 14.716,15.420 13.595 C 14.804 12.349,14.688 12.185,14.340 12.066 C 14.106 11.986,13.924 11.986,13.667 12.065 " stroke="none" fill-rule="evenodd" fill="black"></path></svg>