<svg xmlns="http://www.w3.org/2000/svg" width="24" height="24" viewBox="0 0 24 24" fill="none" stroke="currentColor" stroke-width="2" stroke-linecap="round" stroke-linejoin="round"><path d="M6.499 2.043 C 5.383 2.230,4.461 3.048,4.114 4.160 L 4.020 4.460 4.020 8.383 L 4.020 12.306 4.141 12.503 C 4.543 13.156,5.457 13.156,5.859 12.503 L 5.980 12.306 6.000 8.523 C 6.022 4.284,5.999 4.596,6.321 4.283 C 6.622 3.992,6.514 4.000,9.947 4.000 L 13.000 4.000 13.000 5.632 C 13.000 7.399,13.010 7.507,13.225 7.930 C 13.361 8.199,13.801 8.639,14.070 8.775 C 14.493 8.989,14.601 9.000,16.367 9.000 L 17.997 9.000 18.008 10.653 L 18.020 12.306 18.141 12.503 C 18.543 13.156,19.457 13.156,19.859 12.503 L 19.980 12.306 19.991 10.063 C 20.002 8.056,19.996 7.801,19.937 7.640 C 19.881 7.489,19.452 7.041,17.245 4.826 C 15.152 2.726,14.579 2.172,14.420 2.096 L 14.220 2.001 10.460 2.005 C 8.392 2.007,6.609 2.025,6.499 2.043 M15.800 6.220 L 16.579 7.000 15.790 7.000 L 15.000 7.000 15.000 6.220 C 15.000 5.791,15.005 5.440,15.010 5.440 C 15.016 5.440,15.371 5.791,15.800 6.220 M4.695 14.057 C 4.466 14.129,4.256 14.299,4.128 14.516 L 4.020 14.700 4.020 18.003 L 4.020 21.306 4.141 21.503 C 4.543 22.156,5.457 22.156,5.859 21.503 L 5.980 21.307 5.992 20.158 L 6.004 19.010 6.512 18.991 C 6.925 18.975,7.076 18.951,7.320 18.865 C 8.031 18.614,8.605 18.041,8.867 17.320 C 8.965 17.051,8.976 16.966,8.976 16.500 C 8.976 16.035,8.965 15.948,8.868 15.680 C 8.732 15.306,8.458 14.898,8.165 14.636 C 7.887 14.387,7.390 14.137,7.020 14.060 C 6.650 13.982,4.940 13.980,4.695 14.057 M10.695 14.057 C 10.466 14.129,10.256 14.299,10.128 14.516 L 10.020 14.700 10.020 18.003 L 10.020 21.306 10.141 21.503 C 10.543 22.156,11.457 22.156,11.859 21.503 L 11.980 21.307 11.993 20.283 L 12.007 19.260 12.600 20.440 C 13.241 21.715,13.312 21.815,13.671 21.938 C 14.043 22.064,14.426 21.976,14.702 21.700 C 15.016 21.386,15.003 21.549,14.991 17.917 L 14.980 14.700 14.871 14.514 C 14.479 13.848,13.521 13.848,13.129 14.514 L 13.020 14.700 13.007 15.720 L 12.993 16.740 12.400 15.560 C 11.759 14.285,11.688 14.185,11.329 14.062 C 11.111 13.988,10.920 13.987,10.695 14.057 M18.499 14.043 C 17.383 14.230,16.461 15.048,16.114 16.160 C 16.022 16.453,16.020 16.497,16.020 18.000 C 16.020 19.503,16.022 19.547,16.114 19.840 C 16.422 20.827,17.173 21.578,18.160 21.886 C 18.438 21.973,18.527 21.980,19.380 21.980 L 20.300 21.980 20.492 21.867 C 20.711 21.738,20.901 21.498,20.962 21.274 C 20.988 21.175,20.999 20.502,20.992 19.410 L 20.980 17.700 20.871 17.514 C 20.479 16.848,19.521 16.848,19.129 17.514 L 19.020 17.700 19.008 18.855 L 18.995 20.009 18.828 19.983 C 18.608 19.948,18.359 19.799,18.225 19.623 C 18.014 19.347,18.000 19.245,18.000 18.022 C 18.000 16.695,18.019 16.587,18.303 16.303 C 18.561 16.045,18.743 16.000,19.537 15.998 C 20.230 15.996,20.378 15.967,20.619 15.783 C 20.696 15.725,20.808 15.592,20.869 15.489 C 20.964 15.328,20.980 15.256,20.980 15.000 C 20.980 14.746,20.963 14.672,20.872 14.516 C 20.740 14.293,20.533 14.128,20.290 14.055 C 20.084 13.993,18.845 13.985,18.499 14.043 M6.748 16.078 C 7.076 16.278,7.076 16.722,6.748 16.922 C 6.650 16.981,6.547 17.000,6.310 17.000 L 6.000 17.000 6.000 16.500 L 6.000 16.000 6.310 16.000 C 6.547 16.000,6.650 16.019,6.748 16.078 " stroke="none" fill-rule="evenodd" fill="black"></path></svg>