<svg xmlns="http://www.w3.org/2000/svg" width="24" height="24" viewBox="0 0 24 24" fill="none" stroke="currentColor" stroke-width="2" stroke-linecap="round" stroke-linejoin="round"><path d="M6.499 2.043 C 5.383 2.230,4.461 3.048,4.114 4.160 L 4.020 4.460 4.020 12.000 L 4.020 19.540 4.114 19.840 C 4.422 20.827,5.173 21.578,6.160 21.886 L 6.460 21.980 12.000 21.980 L 17.540 21.980 17.840 21.886 C 18.816 21.582,19.554 20.851,19.886 19.860 L 19.980 19.580 19.991 13.700 C 20.002 8.317,19.997 7.805,19.936 7.640 C 19.881 7.488,19.455 7.043,17.245 4.826 C 15.152 2.726,14.579 2.172,14.420 2.096 L 14.220 2.001 10.460 2.005 C 8.392 2.007,6.609 2.025,6.499 2.043 M13.000 5.632 C 13.000 7.399,13.010 7.507,13.225 7.930 C 13.361 8.199,13.801 8.639,14.070 8.775 C 14.493 8.990,14.601 9.000,16.368 9.000 L 18.000 9.000 18.000 14.054 C 18.000 18.220,17.990 19.139,17.945 19.290 C 17.872 19.533,17.707 19.740,17.484 19.872 L 17.300 19.980 12.000 19.980 L 6.700 19.980 6.516 19.872 C 6.415 19.813,6.284 19.700,6.225 19.623 C 5.986 19.309,6.000 19.795,6.000 12.022 C 6.000 4.005,5.975 4.631,6.304 4.303 C 6.613 3.994,6.464 4.006,9.930 4.003 L 13.000 4.000 13.000 5.632 M15.800 6.220 L 16.579 7.000 15.790 7.000 L 15.000 7.000 15.000 6.220 C 15.000 5.791,15.005 5.440,15.010 5.440 C 15.016 5.440,15.371 5.791,15.800 6.220 M11.087 10.044 C 9.322 10.201,7.929 10.823,7.315 11.728 C 6.981 12.219,7.002 12.044,7.001 14.382 C 7.000 16.650,7.006 16.718,7.231 17.135 C 8.029 18.609,11.057 19.378,13.862 18.819 C 15.536 18.485,16.678 17.698,16.939 16.699 C 16.990 16.501,17.000 16.125,16.999 14.382 C 16.998 12.044,17.019 12.219,16.685 11.728 C 15.855 10.505,13.584 9.822,11.087 10.044 M13.280 12.103 C 14.020 12.231,14.920 12.592,14.920 12.761 C 14.920 12.884,14.068 13.241,13.500 13.356 C 12.014 13.658,10.077 13.449,9.244 12.898 C 9.059 12.776,9.052 12.757,9.150 12.671 C 9.448 12.409,10.352 12.126,11.170 12.040 C 11.645 11.990,12.833 12.025,13.280 12.103 M10.104 15.316 C 10.767 15.450,11.185 15.488,12.000 15.488 C 13.059 15.488,13.846 15.379,14.646 15.122 L 15.000 15.008 15.000 15.620 L 15.000 16.232 14.790 16.370 C 13.514 17.210,10.486 17.210,9.210 16.370 L 9.000 16.232 9.000 15.620 L 9.000 15.008 9.354 15.122 C 9.548 15.185,9.886 15.272,10.104 15.316 " stroke="none" fill-rule="evenodd" fill="black"></path></svg>