<svg xmlns="http://www.w3.org/2000/svg" width="24" height="24" viewBox="0 0 24 24" fill="none" stroke="currentColor" stroke-width="2" stroke-linecap="round" stroke-linejoin="round"><path d="M6.499 2.043 C 5.383 2.230,4.461 3.048,4.114 4.160 L 4.020 4.460 4.020 12.000 L 4.020 19.540 4.114 19.840 C 4.418 20.816,5.151 21.556,6.140 21.885 L 6.420 21.979 9.269 21.991 C 11.156 21.999,12.171 21.989,12.273 21.962 C 12.498 21.901,12.738 21.711,12.867 21.492 C 12.964 21.327,12.980 21.257,12.980 21.000 C 12.980 20.746,12.963 20.672,12.872 20.516 C 12.761 20.328,12.572 20.158,12.373 20.070 C 12.287 20.032,11.582 20.015,9.480 20.000 L 6.700 19.980 6.516 19.872 C 6.415 19.813,6.284 19.700,6.225 19.623 C 5.986 19.309,6.000 19.795,6.000 12.022 C 6.000 4.006,5.975 4.631,6.303 4.303 C 6.618 3.989,6.481 4.000,9.947 4.000 L 13.000 4.000 13.000 5.632 C 13.000 7.399,13.010 7.507,13.225 7.930 C 13.361 8.199,13.801 8.639,14.070 8.775 C 14.493 8.990,14.601 9.000,16.368 9.000 L 18.000 9.000 18.000 10.850 L 18.001 12.700 18.095 12.900 C 18.276 13.281,18.595 13.488,19.000 13.488 C 19.405 13.488,19.724 13.281,19.905 12.900 L 19.999 12.700 19.999 10.240 C 19.998 7.859,19.996 7.774,19.918 7.600 C 19.797 7.330,14.704 2.232,14.420 2.096 L 14.220 2.001 10.460 2.005 C 8.392 2.007,6.609 2.025,6.499 2.043 M15.800 6.220 L 16.579 7.000 15.790 7.000 L 15.000 7.000 15.000 6.220 C 15.000 5.791,15.005 5.440,15.010 5.440 C 15.016 5.440,15.371 5.791,15.800 6.220 M15.873 14.060 C 15.136 14.200,14.468 14.565,13.958 15.105 C 13.559 15.527,13.314 15.957,13.133 16.548 C 13.038 16.863,13.026 16.963,13.026 17.500 C 13.026 18.037,13.038 18.137,13.133 18.452 C 13.501 19.656,14.345 20.501,15.548 20.866 C 15.857 20.960,15.971 20.973,16.480 20.976 C 17.108 20.979,17.431 20.916,17.932 20.691 L 18.165 20.587 19.292 21.709 C 19.913 22.326,20.481 22.862,20.555 22.899 C 21.009 23.128,21.601 22.944,21.867 22.492 C 21.964 22.327,21.980 22.258,21.979 22.000 C 21.979 21.787,21.957 21.659,21.905 21.560 C 21.864 21.483,21.326 20.913,20.709 20.292 L 19.587 19.165 19.691 18.932 C 20.354 17.449,19.903 15.699,18.602 14.712 C 18.268 14.459,17.784 14.224,17.378 14.118 C 16.959 14.009,16.280 13.983,15.873 14.060 M17.119 16.143 C 17.417 16.279,17.727 16.592,17.865 16.896 C 17.960 17.105,17.976 17.192,17.976 17.500 C 17.976 17.808,17.960 17.895,17.865 18.104 C 17.725 18.413,17.417 18.720,17.100 18.868 C 16.893 18.965,16.810 18.980,16.500 18.980 C 16.190 18.980,16.107 18.965,15.900 18.868 C 15.583 18.720,15.275 18.413,15.135 18.104 C 15.040 17.896,15.024 17.808,15.024 17.500 C 15.023 17.191,15.039 17.106,15.134 16.900 C 15.327 16.478,15.749 16.129,16.174 16.039 C 16.441 15.982,16.870 16.030,17.119 16.143 " stroke="none" fill-rule="evenodd" fill="black"></path></svg>