<svg xmlns="http://www.w3.org/2000/svg" width="24" height="24" viewBox="0 0 24 24" fill="none" stroke="currentColor" stroke-width="2" stroke-linecap="round" stroke-linejoin="round"><path d="M6.499 2.043 C 5.383 2.230,4.461 3.048,4.114 4.160 L 4.020 4.460 4.020 12.000 L 4.020 19.540 4.114 19.840 C 4.422 20.827,5.173 21.578,6.160 21.886 L 6.460 21.980 12.000 21.980 L 17.540 21.980 17.840 21.886 C 18.816 21.582,19.554 20.851,19.886 19.860 L 19.980 19.580 19.991 13.700 C 20.002 8.317,19.997 7.805,19.936 7.640 C 19.881 7.488,19.455 7.043,17.245 4.826 C 15.152 2.726,14.579 2.172,14.420 2.096 L 14.220 2.001 10.460 2.005 C 8.392 2.007,6.609 2.025,6.499 2.043 M13.000 5.632 C 13.000 7.399,13.010 7.507,13.225 7.930 C 13.361 8.199,13.801 8.639,14.070 8.775 C 14.493 8.990,14.601 9.000,16.368 9.000 L 18.000 9.000 18.000 14.054 C 18.000 18.220,17.990 19.139,17.945 19.290 C 17.872 19.533,17.707 19.740,17.484 19.872 L 17.300 19.980 12.000 19.980 L 6.700 19.980 6.516 19.872 C 6.415 19.813,6.284 19.700,6.225 19.623 C 5.986 19.309,6.000 19.795,6.000 12.022 C 6.000 4.005,5.975 4.631,6.304 4.303 C 6.613 3.994,6.464 4.006,9.930 4.003 L 13.000 4.000 13.000 5.632 M15.800 6.220 L 16.579 7.000 15.790 7.000 L 15.000 7.000 15.000 6.220 C 15.000 5.791,15.005 5.440,15.010 5.440 C 15.016 5.440,15.371 5.791,15.800 6.220 M9.695 11.057 C 9.466 11.129,9.256 11.299,9.128 11.516 C 9.036 11.672,9.020 11.745,9.021 12.000 C 9.021 12.213,9.043 12.340,9.096 12.440 C 9.136 12.517,9.486 12.900,9.873 13.290 L 10.577 14.000 9.873 14.710 C 9.486 15.101,9.139 15.481,9.101 15.555 C 8.872 16.008,9.056 16.601,9.508 16.867 C 9.673 16.964,9.742 16.980,10.000 16.979 C 10.213 16.979,10.340 16.957,10.440 16.904 C 10.517 16.864,10.900 16.514,11.290 16.127 L 12.000 15.423 12.710 16.127 C 13.101 16.514,13.483 16.864,13.560 16.904 C 13.660 16.957,13.787 16.979,14.000 16.979 C 14.258 16.980,14.327 16.964,14.492 16.867 C 14.714 16.737,14.901 16.498,14.965 16.264 C 15.019 16.061,14.989 15.733,14.899 15.555 C 14.861 15.481,14.514 15.101,14.127 14.710 L 13.423 14.000 14.127 13.290 C 14.514 12.900,14.864 12.517,14.904 12.440 C 14.957 12.340,14.979 12.213,14.979 12.000 C 14.980 11.745,14.964 11.672,14.872 11.516 C 14.740 11.293,14.533 11.128,14.290 11.055 C 14.054 10.984,13.943 10.986,13.680 11.064 C 13.485 11.122,13.397 11.195,12.733 11.851 L 12.000 12.574 11.267 11.851 C 10.603 11.195,10.515 11.122,10.320 11.064 C 10.066 10.988,9.919 10.987,9.695 11.057 " stroke="none" fill-rule="evenodd" fill="black"></path></svg>