<svg xmlns="http://www.w3.org/2000/svg" width="24" height="24" viewBox="0 0 24 24" fill="none" stroke="currentColor" stroke-width="2" stroke-linecap="round" stroke-linejoin="round"><path d="M6.499 2.043 C 5.383 2.230,4.461 3.048,4.114 4.160 L 4.020 4.460 4.020 8.383 L 4.020 12.306 4.141 12.503 C 4.543 13.156,5.457 13.156,5.859 12.503 L 5.980 12.306 6.000 8.523 C 6.022 4.284,5.999 4.596,6.321 4.283 C 6.622 3.992,6.514 4.000,9.947 4.000 L 13.000 4.000 13.000 5.632 C 13.000 7.399,13.010 7.507,13.225 7.930 C 13.361 8.199,13.801 8.639,14.070 8.775 C 14.493 8.989,14.601 9.000,16.367 9.000 L 17.997 9.000 18.008 10.653 L 18.020 12.306 18.141 12.503 C 18.543 13.156,19.457 13.156,19.859 12.503 L 19.980 12.306 19.991 10.063 C 20.002 8.056,19.996 7.801,19.937 7.640 C 19.881 7.489,19.452 7.041,17.245 4.826 C 15.152 2.726,14.579 2.172,14.420 2.096 L 14.220 2.001 10.460 2.005 C 8.392 2.007,6.609 2.025,6.499 2.043 M15.800 6.220 L 16.579 7.000 15.790 7.000 L 15.000 7.000 15.000 6.220 C 15.000 5.791,15.005 5.440,15.010 5.440 C 15.016 5.440,15.371 5.791,15.800 6.220 M3.650 14.066 C 3.171 14.236,2.882 14.844,3.054 15.320 C 3.082 15.397,3.486 16.032,3.953 16.730 L 4.801 18.000 3.953 19.270 C 3.486 19.968,3.082 20.603,3.054 20.680 C 2.900 21.106,3.096 21.625,3.499 21.862 C 3.836 22.059,4.299 22.028,4.616 21.786 C 4.685 21.733,5.018 21.274,5.356 20.765 C 5.695 20.256,5.985 19.840,6.000 19.840 C 6.015 19.840,6.305 20.256,6.644 20.765 C 6.982 21.274,7.315 21.733,7.384 21.786 C 7.701 22.028,8.164 22.059,8.501 21.862 C 8.907 21.624,9.096 21.123,8.943 20.690 C 8.912 20.601,8.507 19.960,8.043 19.265 L 7.199 18.000 8.043 16.735 C 8.507 16.040,8.912 15.399,8.943 15.310 C 9.211 14.551,8.442 13.791,7.678 14.061 C 7.583 14.094,7.450 14.164,7.382 14.216 C 7.315 14.267,6.982 14.726,6.644 15.235 C 6.305 15.744,6.015 16.160,6.000 16.160 C 5.985 16.160,5.695 15.744,5.356 15.235 C 5.018 14.726,4.685 14.267,4.618 14.216 C 4.346 14.008,3.976 13.951,3.650 14.066 M10.695 14.055 C 10.464 14.130,10.255 14.300,10.128 14.516 L 10.020 14.700 10.020 18.003 L 10.020 21.306 10.141 21.503 C 10.543 22.156,11.457 22.156,11.859 21.503 L 11.980 21.306 12.000 19.546 L 12.020 17.786 12.316 18.143 C 12.900 18.846,13.035 18.949,13.425 18.989 C 13.670 19.014,13.930 18.934,14.120 18.774 C 14.185 18.720,14.404 18.475,14.609 18.230 L 14.980 17.784 15.000 19.545 L 15.020 21.306 15.141 21.503 C 15.543 22.156,16.457 22.156,16.859 21.503 L 16.980 21.306 16.992 18.103 C 17.000 15.727,16.991 14.856,16.956 14.728 C 16.889 14.487,16.716 14.265,16.492 14.133 C 16.331 14.038,16.255 14.020,16.020 14.020 C 15.530 14.020,15.489 14.053,14.476 15.273 C 13.988 15.860,13.569 16.362,13.544 16.390 C 13.509 16.428,13.286 16.184,12.574 15.329 C 11.816 14.419,11.616 14.202,11.465 14.127 C 11.237 14.013,10.915 13.983,10.695 14.055 M18.695 14.057 C 18.466 14.129,18.256 14.299,18.128 14.516 L 18.020 14.700 18.009 17.912 C 18.002 20.005,18.012 21.177,18.039 21.276 C 18.099 21.498,18.290 21.739,18.508 21.867 L 18.700 21.980 20.410 21.992 C 21.502 21.999,22.175 21.988,22.274 21.962 C 22.498 21.901,22.738 21.711,22.867 21.492 C 22.964 21.327,22.980 21.257,22.980 21.000 C 22.980 20.746,22.963 20.672,22.872 20.516 C 22.813 20.415,22.698 20.282,22.618 20.221 C 22.356 20.022,22.203 20.000,21.055 20.000 L 20.002 20.000 19.991 17.350 L 19.980 14.700 19.872 14.516 C 19.628 14.101,19.150 13.915,18.695 14.057 " stroke="none" fill-rule="evenodd" fill="black"></path></svg>