<svg xmlns="http://www.w3.org/2000/svg" width="24" height="24" viewBox="0 0 24 24" fill="none" stroke="currentColor" stroke-width="2" stroke-linecap="round" stroke-linejoin="round"><path d="M6.499 2.043 C 5.383 2.230,4.461 3.048,4.114 4.160 L 4.020 4.460 4.020 8.383 L 4.020 12.306 4.141 12.503 C 4.543 13.156,5.457 13.156,5.859 12.503 L 5.980 12.306 6.000 8.523 C 6.022 4.284,5.999 4.596,6.321 4.283 C 6.622 3.992,6.514 4.000,9.947 4.000 L 13.000 4.000 13.000 5.632 C 13.000 7.399,13.010 7.507,13.225 7.930 C 13.361 8.199,13.801 8.639,14.070 8.775 C 14.493 8.989,14.601 9.000,16.367 9.000 L 17.997 9.000 18.008 10.653 L 18.020 12.306 18.141 12.503 C 18.543 13.156,19.457 13.156,19.859 12.503 L 19.980 12.306 19.991 10.063 C 20.002 8.056,19.996 7.801,19.937 7.640 C 19.881 7.489,19.452 7.041,17.245 4.826 C 15.152 2.726,14.579 2.172,14.420 2.096 L 14.220 2.001 10.460 2.005 C 8.392 2.007,6.609 2.025,6.499 2.043 M15.800 6.220 L 16.579 7.000 15.790 7.000 L 15.000 7.000 15.000 6.220 C 15.000 5.791,15.005 5.440,15.010 5.440 C 15.016 5.440,15.371 5.791,15.800 6.220 M1.695 14.055 C 1.464 14.130,1.255 14.300,1.128 14.516 L 1.020 14.700 1.009 17.912 C 1.002 20.005,1.012 21.177,1.039 21.276 C 1.099 21.498,1.290 21.739,1.508 21.867 L 1.700 21.980 2.620 21.980 C 3.473 21.980,3.562 21.973,3.840 21.886 C 4.827 21.578,5.578 20.827,5.886 19.840 C 5.978 19.547,5.980 19.503,5.980 18.000 C 5.980 16.497,5.978 16.453,5.886 16.160 C 5.580 15.180,4.820 14.416,3.861 14.125 C 3.574 14.039,3.451 14.027,2.700 14.015 C 2.072 14.004,1.818 14.015,1.695 14.055 M8.960 14.062 C 8.605 14.138,8.107 14.393,7.832 14.639 C 7.532 14.907,7.239 15.352,7.118 15.722 L 7.020 16.020 7.020 18.020 L 7.020 20.020 7.131 20.320 C 7.399 21.044,7.964 21.608,8.680 21.868 C 8.948 21.965,9.035 21.976,9.500 21.976 C 9.965 21.976,10.052 21.965,10.320 21.868 C 11.036 21.608,11.601 21.044,11.869 20.320 L 11.980 20.020 11.980 18.000 L 11.980 15.980 11.869 15.680 C 11.430 14.486,10.192 13.798,8.960 14.062 M14.960 14.062 C 14.605 14.138,14.107 14.393,13.832 14.639 C 13.532 14.907,13.239 15.352,13.118 15.722 L 13.020 16.020 13.020 18.020 L 13.020 20.020 13.131 20.320 C 13.399 21.044,13.964 21.608,14.680 21.868 C 14.948 21.965,15.035 21.976,15.500 21.976 C 15.965 21.976,16.052 21.965,16.320 21.868 C 17.264 21.526,17.919 20.672,17.988 19.695 C 18.007 19.430,17.997 19.324,17.940 19.175 C 17.850 18.938,17.626 18.689,17.420 18.595 C 17.220 18.503,16.812 18.497,16.609 18.582 C 16.289 18.715,16.001 19.130,16.000 19.460 C 15.998 19.990,15.349 20.193,15.078 19.748 C 15.004 19.627,15.000 19.536,15.000 18.008 C 15.000 16.228,14.999 16.232,15.252 16.078 C 15.590 15.872,15.999 16.129,16.000 16.548 C 16.001 16.874,16.293 17.286,16.618 17.422 C 16.834 17.512,17.188 17.507,17.405 17.410 C 17.624 17.313,17.847 17.069,17.940 16.825 C 17.997 16.676,18.007 16.570,17.988 16.305 C 17.883 14.809,16.444 13.744,14.960 14.062 M19.240 14.035 C 18.782 14.185,18.509 14.550,18.508 15.014 C 18.507 15.237,18.538 15.310,19.193 16.624 L 19.879 18.000 19.193 19.376 C 18.539 20.687,18.507 20.763,18.507 20.986 C 18.507 21.416,18.764 21.783,19.174 21.940 C 19.527 22.075,19.974 21.956,20.236 21.659 C 20.306 21.578,20.502 21.235,20.671 20.896 C 20.840 20.557,20.988 20.280,21.000 20.280 C 21.012 20.280,21.160 20.557,21.329 20.896 C 21.498 21.235,21.694 21.578,21.764 21.659 C 22.365 22.343,23.492 21.905,23.493 20.986 C 23.493 20.763,23.461 20.687,22.807 19.376 L 22.121 18.000 22.807 16.624 C 23.462 15.310,23.493 15.237,23.492 15.014 C 23.491 14.619,23.295 14.297,22.940 14.108 C 22.715 13.988,22.284 13.989,22.056 14.109 C 21.803 14.242,21.662 14.436,21.329 15.104 C 21.160 15.443,21.012 15.720,21.000 15.720 C 20.988 15.720,20.840 15.443,20.671 15.104 C 20.338 14.436,20.195 14.240,19.947 14.113 C 19.771 14.024,19.399 13.983,19.240 14.035 M3.334 16.064 C 3.596 16.153,3.861 16.427,3.939 16.690 C 4.023 16.972,4.028 19.015,3.945 19.290 C 3.837 19.648,3.527 19.926,3.170 19.983 L 3.000 20.010 3.000 18.005 C 3.000 15.736,2.965 15.938,3.334 16.064 M9.724 16.062 C 9.790 16.096,9.879 16.182,9.922 16.252 C 9.996 16.373,10.000 16.464,10.000 18.000 C 10.000 19.536,9.996 19.627,9.922 19.748 C 9.722 20.076,9.278 20.076,9.078 19.748 C 9.004 19.627,9.000 19.536,9.000 18.008 C 9.000 16.228,8.999 16.232,9.252 16.078 C 9.406 15.984,9.563 15.979,9.724 16.062 " stroke="none" fill-rule="evenodd" fill="black"></path></svg>