<svg xmlns="http://www.w3.org/2000/svg" width="24" height="24" viewBox="0 0 24 24" fill="none" stroke="currentColor" stroke-width="2" stroke-linecap="round" stroke-linejoin="round"><path d="M6.499 2.043 C 5.383 2.230,4.461 3.048,4.114 4.160 L 4.020 4.460 4.020 12.000 L 4.020 19.540 4.114 19.840 C 4.422 20.827,5.173 21.578,6.160 21.886 L 6.460 21.980 12.000 21.980 L 17.540 21.980 17.840 21.886 C 18.816 21.582,19.554 20.851,19.886 19.860 L 19.980 19.580 19.991 13.700 C 20.002 8.317,19.997 7.805,19.936 7.640 C 19.881 7.488,19.455 7.043,17.245 4.826 C 15.152 2.726,14.579 2.172,14.420 2.096 L 14.220 2.001 10.460 2.005 C 8.392 2.007,6.609 2.025,6.499 2.043 M13.000 5.632 C 13.000 7.399,13.010 7.507,13.225 7.930 C 13.361 8.199,13.801 8.639,14.070 8.775 C 14.493 8.990,14.601 9.000,16.368 9.000 L 18.000 9.000 18.000 14.054 C 18.000 18.220,17.990 19.139,17.945 19.290 C 17.872 19.533,17.707 19.740,17.484 19.872 L 17.300 19.980 12.000 19.980 L 6.700 19.980 6.516 19.872 C 6.415 19.813,6.284 19.700,6.225 19.623 C 5.986 19.309,6.000 19.795,6.000 12.022 C 6.000 4.005,5.975 4.631,6.304 4.303 C 6.613 3.994,6.464 4.006,9.930 4.003 L 13.000 4.000 13.000 5.632 M15.800 6.220 L 16.579 7.000 15.790 7.000 L 15.000 7.000 15.000 6.220 C 15.000 5.791,15.005 5.440,15.010 5.440 C 15.016 5.440,15.371 5.791,15.800 6.220 M11.668 10.061 C 11.585 10.092,11.462 10.156,11.395 10.203 C 11.260 10.300,9.136 13.454,9.054 13.680 C 8.893 14.127,9.117 14.673,9.550 14.886 C 9.733 14.977,9.784 14.981,10.930 15.000 L 12.120 15.020 11.600 15.800 C 10.971 16.741,10.914 16.905,11.061 17.322 C 11.284 17.955,11.992 18.187,12.570 17.815 C 12.686 17.741,12.972 17.342,13.805 16.093 C 14.401 15.198,14.917 14.387,14.950 14.289 C 15.074 13.926,14.931 13.460,14.625 13.226 C 14.365 13.028,14.326 13.023,13.070 13.001 L 11.880 12.980 12.383 12.225 C 12.660 11.810,12.912 11.399,12.943 11.310 C 13.212 10.550,12.428 9.782,11.668 10.061 " stroke="none" fill-rule="evenodd" fill="black"></path></svg>