<svg xmlns="http://www.w3.org/2000/svg" width="24" height="24" viewBox="0 0 24 24" fill="none" stroke="currentColor" stroke-width="2" stroke-linecap="round" stroke-linejoin="round"><path d="M6.499 2.043 C 5.383 2.230,4.461 3.048,4.114 4.160 L 4.020 4.460 4.020 12.000 L 4.020 19.540 4.114 19.840 C 4.418 20.816,5.152 21.556,6.140 21.885 L 6.420 21.979 9.039 21.991 C 11.966 22.005,11.850 22.015,12.173 21.724 C 12.381 21.536,12.488 21.292,12.488 21.003 C 12.488 20.615,12.294 20.298,11.940 20.106 C 11.782 20.021,11.749 20.020,9.240 20.000 L 6.700 19.980 6.516 19.872 C 6.415 19.813,6.284 19.700,6.225 19.623 C 5.986 19.309,6.000 19.795,6.000 12.022 C 6.000 4.006,5.975 4.631,6.303 4.303 C 6.618 3.989,6.481 4.000,9.947 4.000 L 13.000 4.000 13.000 5.632 C 13.000 7.399,13.010 7.507,13.225 7.930 C 13.361 8.199,13.801 8.639,14.070 8.775 C 14.493 8.989,14.601 9.000,16.367 9.000 L 17.997 9.000 18.009 11.153 L 18.020 13.306 18.141 13.503 C 18.543 14.156,19.457 14.156,19.859 13.503 L 19.980 13.306 19.991 10.563 C 20.002 8.093,19.996 7.802,19.937 7.640 C 19.881 7.489,19.454 7.042,17.245 4.826 C 15.152 2.726,14.579 2.172,14.420 2.096 L 14.220 2.001 10.460 2.005 C 8.392 2.007,6.609 2.025,6.499 2.043 M15.800 6.220 L 16.579 7.000 15.790 7.000 L 15.000 7.000 15.000 6.220 C 15.000 5.791,15.005 5.440,15.010 5.440 C 15.016 5.440,15.371 5.791,15.800 6.220 M17.670 15.061 C 17.448 15.142,17.250 15.309,17.128 15.516 C 17.036 15.672,17.020 15.745,17.021 16.000 C 17.021 16.213,17.043 16.340,17.096 16.440 C 17.136 16.517,17.486 16.899,17.873 17.290 L 18.577 18.000 16.235 18.000 C 13.693 18.000,13.670 18.002,13.382 18.221 C 13.302 18.282,13.187 18.415,13.128 18.516 C 13.037 18.672,13.020 18.746,13.020 19.000 C 13.020 19.256,13.036 19.328,13.131 19.489 C 13.256 19.702,13.449 19.864,13.670 19.943 C 13.789 19.985,14.316 19.997,16.199 19.998 L 18.577 20.000 17.873 20.710 C 17.486 21.101,17.139 21.481,17.101 21.555 C 16.872 22.008,17.056 22.601,17.508 22.867 C 17.673 22.964,17.742 22.980,18.000 22.979 C 18.212 22.979,18.341 22.957,18.440 22.905 C 18.632 22.804,21.739 19.704,21.873 19.480 C 21.964 19.328,21.980 19.254,21.980 19.000 C 21.980 18.746,21.963 18.672,21.873 18.520 C 21.814 18.421,21.040 17.618,20.153 16.736 C 18.714 15.305,18.519 15.124,18.343 15.066 C 18.108 14.987,17.875 14.986,17.670 15.061 " stroke="none" fill-rule="evenodd" fill="black"></path></svg>