<svg xmlns="http://www.w3.org/2000/svg" width="24" height="24" viewBox="0 0 24 24" fill="none" stroke="currentColor" stroke-width="2" stroke-linecap="round" stroke-linejoin="round"><path d="M6.499 2.043 C 5.383 2.230,4.461 3.048,4.114 4.160 L 4.020 4.460 4.020 8.383 L 4.020 12.306 4.141 12.503 C 4.543 13.156,5.457 13.156,5.859 12.503 L 5.980 12.306 6.000 8.523 C 6.022 4.284,5.999 4.596,6.321 4.283 C 6.622 3.992,6.514 4.000,9.947 4.000 L 13.000 4.000 13.000 5.618 C 13.000 6.649,13.016 7.313,13.044 7.448 C 13.189 8.140,13.857 8.807,14.552 8.955 C 14.689 8.984,15.335 9.000,16.382 9.000 L 18.000 9.000 18.000 14.054 C 18.000 18.220,17.990 19.139,17.945 19.290 C 17.872 19.533,17.707 19.740,17.484 19.872 C 17.306 19.977,17.276 19.981,16.520 20.003 C 16.066 20.016,15.693 20.045,15.627 20.073 C 15.433 20.154,15.240 20.325,15.128 20.516 C 15.037 20.672,15.020 20.746,15.020 21.000 C 15.020 21.257,15.036 21.327,15.133 21.492 C 15.263 21.714,15.503 21.901,15.736 21.964 C 15.842 21.993,16.195 22.002,16.740 21.990 C 17.469 21.974,17.617 21.960,17.860 21.882 C 18.825 21.572,19.557 20.842,19.886 19.860 L 19.980 19.580 19.991 13.700 C 20.002 8.317,19.997 7.805,19.936 7.640 C 19.881 7.488,19.455 7.043,17.245 4.826 C 15.152 2.726,14.579 2.172,14.420 2.096 L 14.220 2.001 10.460 2.005 C 8.392 2.007,6.609 2.025,6.499 2.043 M15.800 6.220 L 16.579 7.000 15.790 7.000 L 15.000 7.000 15.000 6.220 C 15.000 5.791,15.005 5.440,15.010 5.440 C 15.016 5.440,15.371 5.791,15.800 6.220 M2.695 14.057 C 2.466 14.129,2.256 14.299,2.128 14.516 L 2.020 14.700 2.020 18.003 L 2.020 21.306 2.141 21.503 C 2.543 22.156,3.457 22.156,3.859 21.503 C 3.980 21.307,3.980 21.305,4.000 20.567 L 4.020 19.828 4.640 20.759 C 4.980 21.271,5.315 21.733,5.384 21.786 C 6.039 22.285,7.000 21.817,7.000 21.000 C 7.000 20.740,6.902 20.552,6.285 19.627 L 5.683 18.725 5.933 18.546 C 6.373 18.233,6.684 17.824,6.867 17.320 C 6.965 17.051,6.976 16.966,6.976 16.500 C 6.976 16.035,6.965 15.948,6.868 15.680 C 6.732 15.306,6.458 14.898,6.165 14.636 C 5.887 14.387,5.390 14.137,5.020 14.060 C 4.650 13.982,2.940 13.980,2.695 14.057 M9.477 14.073 C 8.806 14.249,8.238 14.823,8.060 15.508 C 7.976 15.828,7.976 17.172,8.060 17.492 C 8.153 17.852,8.310 18.118,8.596 18.404 C 9.073 18.881,9.426 19.000,10.368 19.000 L 11.000 19.000 11.000 19.500 L 11.000 20.000 10.483 20.000 L 9.966 20.000 9.923 19.869 C 9.868 19.701,9.632 19.458,9.423 19.351 C 9.199 19.237,8.801 19.237,8.577 19.351 C 8.086 19.602,7.904 20.077,8.063 20.693 C 8.143 21.001,8.281 21.237,8.522 21.478 C 8.967 21.923,9.245 22.000,10.407 22.000 C 11.598 22.000,11.898 21.910,12.404 21.404 C 12.895 20.913,13.000 20.579,12.999 19.514 C 12.999 18.459,12.903 18.124,12.465 17.653 C 11.998 17.150,11.590 17.006,10.630 17.002 L 10.000 17.000 10.000 16.500 L 10.000 16.000 10.517 16.000 L 11.034 16.000 11.077 16.131 C 11.132 16.297,11.366 16.540,11.577 16.652 C 11.802 16.770,12.198 16.770,12.423 16.652 C 12.917 16.391,13.096 15.923,12.937 15.307 C 12.772 14.673,12.224 14.162,11.581 14.044 C 11.192 13.972,9.790 13.992,9.477 14.073 M4.748 16.078 C 5.076 16.278,5.076 16.722,4.748 16.922 C 4.650 16.981,4.547 17.000,4.310 17.000 L 4.000 17.000 4.000 16.500 L 4.000 16.000 4.310 16.000 C 4.547 16.000,4.650 16.019,4.748 16.078 " stroke="none" fill-rule="evenodd" fill="black"></path></svg>