<svg xmlns="http://www.w3.org/2000/svg" width="24" height="24" viewBox="0 0 24 24" fill="none" stroke="currentColor" stroke-width="2" stroke-linecap="round" stroke-linejoin="round"><path d="M6.499 2.043 C 5.393 2.228,4.488 3.024,4.114 4.140 L 4.020 4.420 4.009 8.340 C 3.996 12.716,3.979 12.444,4.276 12.773 C 4.464 12.981,4.708 13.088,4.997 13.088 C 5.405 13.088,5.724 12.882,5.905 12.500 L 5.999 12.300 6.000 8.597 C 6.000 4.406,5.985 4.621,6.303 4.303 C 6.618 3.989,6.481 4.000,9.947 4.000 L 13.000 4.000 13.000 5.632 C 13.000 7.399,13.010 7.507,13.225 7.930 C 13.361 8.199,13.801 8.639,14.070 8.775 C 14.493 8.990,14.601 9.000,16.368 9.000 L 18.000 9.000 18.000 14.054 C 18.000 18.220,17.990 19.139,17.945 19.290 C 17.872 19.533,17.707 19.740,17.484 19.872 L 17.300 19.980 15.860 20.000 C 14.480 20.019,14.413 20.024,14.260 20.106 C 13.906 20.298,13.712 20.615,13.712 21.003 C 13.712 21.292,13.819 21.536,14.027 21.724 C 14.339 22.005,14.363 22.008,16.064 21.991 C 17.516 21.977,17.592 21.972,17.860 21.884 C 18.832 21.565,19.557 20.841,19.886 19.860 L 19.980 19.580 19.991 13.700 C 20.002 8.317,19.997 7.805,19.936 7.640 C 19.881 7.488,19.455 7.043,17.245 4.826 C 15.152 2.726,14.579 2.172,14.420 2.096 L 14.220 2.001 10.460 2.005 C 8.392 2.007,6.609 2.025,6.499 2.043 M15.800 6.220 L 16.579 7.000 15.790 7.000 L 15.000 7.000 15.000 6.220 C 15.000 5.791,15.005 5.440,15.010 5.440 C 15.016 5.440,15.371 5.791,15.800 6.220 M8.411 11.497 C 8.064 11.581,7.679 11.796,7.439 12.037 C 7.293 12.184,6.916 12.728,6.331 13.637 L 5.444 15.015 4.632 15.004 C 3.998 14.996,3.758 15.008,3.536 15.059 C 2.839 15.218,2.243 15.802,2.060 16.508 C 1.972 16.844,1.972 20.156,2.060 20.492 C 2.247 21.211,2.874 21.813,3.590 21.962 C 3.724 21.990,4.120 22.001,4.633 21.993 C 5.431 21.979,5.469 21.974,5.730 21.866 L 6.000 21.755 6.270 21.867 L 6.540 21.980 8.740 21.993 C 10.336 22.002,11.000 21.993,11.160 21.958 C 11.649 21.852,12.143 21.517,12.409 21.111 C 12.485 20.995,12.857 20.125,13.234 19.177 C 13.998 17.260,14.059 17.042,13.968 16.553 C 13.866 16.003,13.512 15.532,12.999 15.262 C 12.605 15.055,12.319 15.001,11.610 15.001 L 11.000 15.000 11.000 14.162 C 11.000 13.222,10.971 13.025,10.776 12.612 C 10.367 11.751,9.347 11.271,8.411 11.497 M9.000 14.881 L 9.020 16.300 9.131 16.489 C 9.192 16.592,9.304 16.725,9.381 16.783 C 9.642 16.982,9.740 16.996,10.886 16.998 L 11.953 17.000 11.352 18.500 L 10.752 20.000 8.876 20.000 L 7.000 20.000 7.000 18.148 L 7.000 16.297 7.825 15.018 C 8.279 14.315,8.694 13.671,8.747 13.587 C 8.809 13.491,8.869 13.440,8.912 13.448 C 8.974 13.460,8.982 13.587,9.000 14.881 M5.000 18.500 L 5.000 20.000 4.500 20.000 L 4.000 20.000 4.000 18.500 L 4.000 17.000 4.500 17.000 L 5.000 17.000 5.000 18.500 " stroke="none" fill-rule="evenodd" fill="black"></path></svg>