<svg xmlns="http://www.w3.org/2000/svg" width="24" height="24" viewBox="0 0 24 24" fill="none" stroke="currentColor" stroke-width="2" stroke-linecap="round" stroke-linejoin="round"><path d="M6.499 2.043 C 5.383 2.230,4.461 3.048,4.114 4.160 L 4.020 4.460 4.020 12.000 L 4.020 19.540 4.114 19.840 C 4.422 20.827,5.173 21.578,6.160 21.886 L 6.460 21.980 12.000 21.980 L 17.540 21.980 17.840 21.886 C 18.816 21.582,19.554 20.851,19.886 19.860 L 19.980 19.580 19.991 13.700 C 20.002 8.317,19.997 7.805,19.936 7.640 C 19.881 7.488,19.455 7.043,17.245 4.826 C 15.152 2.726,14.579 2.172,14.420 2.096 L 14.220 2.001 10.460 2.005 C 8.392 2.007,6.609 2.025,6.499 2.043 M13.000 5.632 C 13.000 7.399,13.010 7.507,13.225 7.930 C 13.361 8.199,13.801 8.639,14.070 8.775 C 14.493 8.990,14.601 9.000,16.368 9.000 L 18.000 9.000 18.000 14.054 C 18.000 18.220,17.990 19.139,17.945 19.290 C 17.872 19.533,17.707 19.740,17.484 19.872 L 17.300 19.980 12.000 19.980 L 6.700 19.980 6.516 19.872 C 6.415 19.813,6.284 19.700,6.225 19.623 C 5.986 19.309,6.000 19.795,6.000 12.022 C 6.000 4.005,5.975 4.631,6.304 4.303 C 6.613 3.994,6.464 4.006,9.930 4.003 L 13.000 4.000 13.000 5.632 M15.800 6.220 L 16.579 7.000 15.790 7.000 L 15.000 7.000 15.000 6.220 C 15.000 5.791,15.005 5.440,15.010 5.440 C 15.016 5.440,15.371 5.791,15.800 6.220 M11.400 9.044 C 9.761 9.229,8.261 10.290,7.526 11.785 C 7.158 12.533,7.020 13.136,7.020 14.000 C 7.020 14.670,7.078 15.044,7.268 15.600 C 7.846 17.291,9.253 18.525,11.040 18.907 C 11.511 19.008,12.489 19.008,12.960 18.907 C 14.488 18.580,15.748 17.630,16.433 16.288 C 16.838 15.494,16.980 14.899,16.980 14.000 C 16.980 13.101,16.838 12.506,16.433 11.713 C 15.794 10.461,14.604 9.510,13.240 9.162 C 12.669 9.016,12.019 8.974,11.400 9.044 M11.075 14.400 C 11.194 14.615,11.331 14.763,11.511 14.869 L 11.700 14.980 13.274 15.000 L 14.847 15.020 14.683 15.340 C 14.302 16.081,13.640 16.637,12.840 16.886 C 12.588 16.964,12.453 16.979,12.000 16.979 C 11.547 16.979,11.412 16.964,11.160 16.886 C 10.181 16.581,9.418 15.822,9.125 14.861 C 9.042 14.588,9.027 14.458,9.027 14.000 C 9.027 13.542,9.042 13.412,9.125 13.139 C 9.361 12.363,9.925 11.695,10.660 11.317 L 10.980 11.153 11.000 12.726 C 11.016 13.957,11.032 14.322,11.075 14.400 M13.460 11.380 C 14.022 11.695,14.586 12.332,14.797 12.890 L 14.838 13.000 13.919 13.000 L 13.000 13.000 13.000 12.081 L 13.000 11.162 13.110 11.203 C 13.171 11.226,13.328 11.306,13.460 11.380 " stroke="none" fill-rule="evenodd" fill="black"></path></svg>