<svg xmlns="http://www.w3.org/2000/svg" width="24" height="24" viewBox="0 0 24 24" fill="none" stroke="currentColor" stroke-width="2" stroke-linecap="round" stroke-linejoin="round"><path d="M6.499 2.043 C 5.383 2.230,4.461 3.048,4.114 4.160 L 4.020 4.460 4.020 12.000 L 4.020 19.540 4.114 19.840 C 4.422 20.827,5.173 21.578,6.160 21.886 L 6.460 21.980 12.000 21.980 L 17.540 21.980 17.840 21.886 C 18.816 21.582,19.554 20.851,19.886 19.860 L 19.980 19.580 19.991 13.700 C 20.002 8.317,19.997 7.805,19.936 7.640 C 19.881 7.488,19.455 7.043,17.245 4.826 C 15.152 2.726,14.579 2.172,14.420 2.096 L 14.220 2.001 10.460 2.005 C 8.392 2.007,6.609 2.025,6.499 2.043 M13.000 5.632 C 13.000 7.399,13.010 7.507,13.225 7.930 C 13.361 8.199,13.801 8.639,14.070 8.775 C 14.493 8.990,14.601 9.000,16.368 9.000 L 18.000 9.000 18.000 14.054 C 18.000 18.220,17.990 19.139,17.945 19.290 C 17.872 19.533,17.707 19.740,17.484 19.872 L 17.300 19.980 12.000 19.980 L 6.700 19.980 6.516 19.872 C 6.415 19.813,6.284 19.700,6.225 19.623 C 5.986 19.309,6.000 19.795,6.000 12.022 C 6.000 4.005,5.975 4.631,6.304 4.303 C 6.613 3.994,6.464 4.006,9.930 4.003 L 13.000 4.000 13.000 5.632 M15.800 6.220 L 16.579 7.000 15.790 7.000 L 15.000 7.000 15.000 6.220 C 15.000 5.791,15.005 5.440,15.010 5.440 C 15.016 5.440,15.371 5.791,15.800 6.220 M11.660 9.072 C 11.418 9.161,7.874 10.797,7.551 10.969 C 7.425 11.036,7.276 11.151,7.219 11.224 C 6.999 11.514,7.000 11.498,7.000 14.018 C 7.000 16.646,6.995 16.598,7.297 16.897 C 7.437 17.036,7.776 17.201,9.633 18.034 L 11.805 19.009 12.053 18.991 C 12.273 18.974,12.511 18.875,14.200 18.092 C 15.245 17.608,16.206 17.162,16.335 17.101 C 16.465 17.039,16.639 16.919,16.722 16.833 C 17.004 16.543,17.000 16.579,17.000 13.998 C 17.000 11.498,17.001 11.514,16.779 11.223 C 16.647 11.049,16.473 10.961,14.174 9.903 C 12.098 8.948,12.044 8.930,11.660 9.072 M12.815 11.480 C 13.223 11.667,13.543 11.832,13.528 11.847 C 13.482 11.891,12.100 12.400,12.026 12.400 C 11.968 12.400,11.319 12.146,10.702 11.881 L 10.503 11.796 11.222 11.460 C 11.617 11.275,11.970 11.128,12.007 11.132 C 12.044 11.136,12.407 11.293,12.815 11.480 M10.022 13.765 L 11.000 14.170 11.000 15.305 C 11.000 15.929,10.992 16.440,10.983 16.440 C 10.973 16.440,10.528 16.243,9.993 16.002 L 9.020 15.565 9.009 14.462 C 9.004 13.856,9.009 13.360,9.022 13.360 C 9.034 13.360,9.484 13.542,10.022 13.765 M14.971 15.522 C 14.944 15.546,14.625 15.694,13.289 16.306 L 12.999 16.439 13.009 15.313 L 13.020 14.188 14.000 13.820 L 14.980 13.452 14.991 14.473 C 14.997 15.035,14.988 15.507,14.971 15.522 " stroke="none" fill-rule="evenodd" fill="black"></path></svg>