<svg xmlns="http://www.w3.org/2000/svg" width="24" height="24" viewBox="0 0 24 24" fill="none" stroke="currentColor" stroke-width="2" stroke-linecap="round" stroke-linejoin="round"><path d="M6.499 2.043 C 5.383 2.230,4.461 3.048,4.114 4.160 L 4.020 4.460 4.020 8.383 L 4.020 12.306 4.141 12.503 C 4.543 13.156,5.457 13.156,5.859 12.503 L 5.980 12.306 6.000 8.523 C 6.022 4.284,5.999 4.596,6.321 4.283 C 6.622 3.992,6.514 4.000,9.947 4.000 L 13.000 4.000 13.000 5.632 C 13.000 7.399,13.010 7.507,13.225 7.930 C 13.361 8.199,13.801 8.639,14.070 8.775 C 14.493 8.989,14.601 9.000,16.367 9.000 L 17.997 9.000 18.008 10.653 L 18.020 12.306 18.141 12.503 C 18.543 13.156,19.457 13.156,19.859 12.503 L 19.980 12.306 19.991 10.063 C 20.002 8.056,19.996 7.801,19.937 7.640 C 19.881 7.489,19.452 7.041,17.245 4.826 C 15.152 2.726,14.579 2.172,14.420 2.096 L 14.220 2.001 10.460 2.005 C 8.392 2.007,6.609 2.025,6.499 2.043 M15.800 6.220 L 16.579 7.000 15.790 7.000 L 15.000 7.000 15.000 6.220 C 15.000 5.791,15.005 5.440,15.010 5.440 C 15.016 5.440,15.371 5.791,15.800 6.220 M4.960 14.062 C 4.605 14.138,4.107 14.393,3.832 14.639 C 3.532 14.907,3.239 15.352,3.118 15.722 L 3.020 16.020 3.020 18.020 L 3.020 20.020 3.131 20.320 C 3.399 21.044,3.964 21.608,4.680 21.868 C 4.948 21.965,5.035 21.976,5.500 21.976 C 5.965 21.976,6.052 21.965,6.320 21.868 C 7.264 21.526,7.919 20.672,7.988 19.695 C 8.007 19.430,7.997 19.324,7.940 19.175 C 7.850 18.938,7.626 18.689,7.420 18.595 C 7.220 18.503,6.812 18.497,6.609 18.582 C 6.289 18.715,6.001 19.130,6.000 19.460 C 5.998 19.990,5.349 20.193,5.078 19.748 C 5.004 19.627,5.000 19.536,5.000 18.008 C 5.000 16.228,4.999 16.232,5.252 16.078 C 5.590 15.872,5.999 16.129,6.000 16.548 C 6.001 16.874,6.293 17.286,6.618 17.422 C 6.834 17.512,7.188 17.507,7.405 17.410 C 7.624 17.313,7.847 17.069,7.940 16.825 C 7.997 16.676,8.007 16.570,7.988 16.305 C 7.883 14.809,6.444 13.744,4.960 14.062 M10.477 14.073 C 9.806 14.249,9.238 14.823,9.060 15.508 C 8.976 15.828,8.976 17.172,9.060 17.492 C 9.153 17.852,9.310 18.118,9.596 18.404 C 10.073 18.881,10.426 19.000,11.368 19.000 L 12.000 19.000 12.000 19.500 L 12.000 20.000 11.483 20.000 L 10.966 20.000 10.923 19.869 C 10.868 19.701,10.632 19.458,10.423 19.351 C 10.199 19.237,9.801 19.237,9.577 19.351 C 9.086 19.602,8.904 20.077,9.063 20.693 C 9.143 21.001,9.281 21.237,9.522 21.478 C 9.967 21.923,10.245 22.000,11.407 22.000 C 12.598 22.000,12.898 21.910,13.404 21.404 C 13.895 20.913,14.000 20.579,13.999 19.514 C 13.999 18.459,13.903 18.124,13.465 17.653 C 12.998 17.150,12.590 17.006,11.630 17.002 L 11.000 17.000 11.000 16.500 L 11.000 16.000 11.517 16.000 L 12.034 16.000 12.077 16.131 C 12.132 16.297,12.366 16.540,12.577 16.652 C 12.802 16.770,13.198 16.770,13.423 16.652 C 13.917 16.391,14.096 15.923,13.937 15.307 C 13.772 14.673,13.224 14.162,12.581 14.044 C 12.192 13.972,10.790 13.992,10.477 14.073 M15.643 14.066 C 15.282 14.199,15.000 14.615,15.000 15.016 C 15.000 15.122,15.366 16.276,16.045 18.312 C 17.182 21.724,17.166 21.686,17.531 21.874 C 18.052 22.142,18.690 21.918,18.916 21.388 C 18.956 21.295,19.441 19.860,19.994 18.198 C 20.643 16.249,21.000 15.120,21.000 15.016 C 21.000 14.254,20.206 13.779,19.521 14.131 C 19.190 14.302,19.138 14.410,18.555 16.156 C 18.261 17.038,18.011 17.760,18.000 17.760 C 17.989 17.760,17.739 17.038,17.445 16.156 C 16.860 14.404,16.814 14.309,16.471 14.131 C 16.229 14.005,15.884 13.978,15.643 14.066 " stroke="none" fill-rule="evenodd" fill="black"></path></svg>