<svg xmlns="http://www.w3.org/2000/svg" width="24" height="24" viewBox="0 0 24 24" fill="none" stroke="currentColor" stroke-width="2" stroke-linecap="round" stroke-linejoin="round"><path d="M6.499 2.043 C 5.383 2.230,4.461 3.048,4.114 4.160 L 4.020 4.460 4.020 8.383 L 4.020 12.306 4.141 12.503 C 4.543 13.156,5.457 13.156,5.859 12.503 L 5.980 12.306 6.000 8.523 C 6.022 4.284,5.999 4.596,6.321 4.283 C 6.622 3.992,6.514 4.000,9.947 4.000 L 13.000 4.000 13.000 5.632 C 13.000 7.399,13.010 7.507,13.225 7.930 C 13.361 8.199,13.801 8.639,14.070 8.775 C 14.493 8.989,14.601 9.000,16.367 9.000 L 17.997 9.000 18.008 10.653 L 18.020 12.306 18.141 12.503 C 18.543 13.156,19.457 13.156,19.859 12.503 L 19.980 12.306 19.991 10.063 C 20.002 8.056,19.996 7.801,19.937 7.640 C 19.881 7.489,19.452 7.041,17.245 4.826 C 15.152 2.726,14.579 2.172,14.420 2.096 L 14.220 2.001 10.460 2.005 C 8.392 2.007,6.609 2.025,6.499 2.043 M15.800 6.220 L 16.579 7.000 15.790 7.000 L 15.000 7.000 15.000 6.220 C 15.000 5.791,15.005 5.440,15.010 5.440 C 15.016 5.440,15.371 5.791,15.800 6.220 M4.695 14.055 C 4.464 14.130,4.255 14.300,4.128 14.516 L 4.020 14.700 4.009 17.912 C 4.002 20.005,4.012 21.177,4.039 21.276 C 4.099 21.498,4.290 21.739,4.508 21.867 L 4.700 21.980 5.620 21.980 C 6.473 21.980,6.562 21.973,6.840 21.886 C 7.827 21.578,8.578 20.827,8.886 19.840 C 8.978 19.547,8.980 19.503,8.980 18.000 C 8.980 16.497,8.978 16.453,8.886 16.160 C 8.580 15.180,7.820 14.416,6.861 14.125 C 6.574 14.039,6.451 14.027,5.700 14.015 C 5.072 14.004,4.818 14.015,4.695 14.055 M11.960 14.062 C 11.605 14.138,11.107 14.393,10.832 14.639 C 10.532 14.907,10.239 15.352,10.118 15.722 L 10.020 16.020 10.020 18.020 L 10.020 20.020 10.131 20.320 C 10.399 21.044,10.964 21.608,11.680 21.868 C 11.948 21.965,12.035 21.976,12.500 21.976 C 12.965 21.976,13.052 21.965,13.320 21.868 C 14.036 21.608,14.601 21.044,14.869 20.320 L 14.980 20.020 14.980 18.000 L 14.980 15.980 14.869 15.680 C 14.430 14.486,13.192 13.798,11.960 14.062 M17.960 14.062 C 17.605 14.138,17.107 14.393,16.832 14.639 C 16.532 14.907,16.239 15.352,16.118 15.722 L 16.020 16.020 16.020 18.020 L 16.020 20.020 16.131 20.320 C 16.399 21.044,16.964 21.608,17.680 21.868 C 17.948 21.965,18.035 21.976,18.500 21.976 C 18.965 21.976,19.052 21.965,19.320 21.868 C 20.264 21.526,20.919 20.672,20.988 19.695 C 21.007 19.430,20.997 19.324,20.940 19.175 C 20.850 18.938,20.626 18.689,20.420 18.595 C 20.220 18.503,19.812 18.497,19.609 18.582 C 19.289 18.715,19.001 19.130,19.000 19.460 C 18.998 19.990,18.349 20.193,18.078 19.748 C 18.004 19.627,18.000 19.536,18.000 18.008 C 18.000 16.228,17.999 16.232,18.252 16.078 C 18.590 15.872,18.999 16.129,19.000 16.548 C 19.001 16.874,19.293 17.286,19.618 17.422 C 19.834 17.512,20.188 17.507,20.405 17.410 C 20.624 17.313,20.847 17.069,20.940 16.825 C 20.997 16.676,21.007 16.570,20.988 16.305 C 20.883 14.809,19.444 13.744,17.960 14.062 M6.334 16.064 C 6.596 16.153,6.861 16.427,6.939 16.690 C 7.023 16.972,7.028 19.015,6.945 19.290 C 6.837 19.648,6.527 19.926,6.170 19.983 L 6.000 20.010 6.000 18.005 C 6.000 15.736,5.965 15.938,6.334 16.064 M12.724 16.062 C 12.790 16.096,12.879 16.182,12.922 16.252 C 12.996 16.373,13.000 16.464,13.000 18.000 C 13.000 19.536,12.996 19.627,12.922 19.748 C 12.722 20.076,12.278 20.076,12.078 19.748 C 12.004 19.627,12.000 19.536,12.000 18.008 C 12.000 16.228,11.999 16.232,12.252 16.078 C 12.406 15.984,12.563 15.979,12.724 16.062 " stroke="none" fill-rule="evenodd" fill="black"></path></svg>