<svg xmlns="http://www.w3.org/2000/svg" width="24" height="24" viewBox="0 0 24 24" fill="none" stroke="currentColor" stroke-width="2" stroke-linecap="round" stroke-linejoin="round"><path d="M4.499 4.043 C 3.383 4.230,2.461 5.048,2.114 6.160 L 2.020 6.460 2.020 12.000 L 2.020 17.540 2.114 17.840 C 2.422 18.827,3.173 19.578,4.160 19.886 L 4.460 19.980 12.000 19.980 L 19.540 19.980 19.840 19.886 C 20.816 19.582,21.554 18.851,21.886 17.860 L 21.980 17.580 21.991 13.700 C 22.002 10.169,21.997 9.804,21.937 9.640 C 21.881 9.489,21.452 9.040,19.245 6.826 C 17.152 4.726,16.579 4.172,16.420 4.096 L 16.220 4.001 10.460 4.005 C 7.292 4.007,4.609 4.025,4.499 4.043 M15.000 7.632 C 15.000 9.399,15.010 9.507,15.225 9.930 C 15.361 10.199,15.801 10.639,16.070 10.775 C 16.493 10.990,16.601 11.000,18.368 11.000 L 20.000 11.000 20.000 14.054 C 20.000 17.367,20.003 17.325,19.779 17.618 C 19.718 17.698,19.585 17.813,19.484 17.872 L 19.300 17.980 12.000 17.980 L 4.700 17.980 4.516 17.872 C 4.415 17.813,4.284 17.700,4.225 17.623 C 3.988 17.312,4.000 17.608,4.000 12.022 C 4.000 6.240,3.979 6.627,4.304 6.303 C 4.621 5.986,4.240 6.006,9.930 6.003 L 15.000 6.000 15.000 7.632 M17.800 8.220 L 18.579 9.000 17.790 9.000 L 17.000 9.000 17.000 8.220 C 17.000 7.791,17.005 7.440,17.010 7.440 C 17.016 7.440,17.371 7.791,17.800 8.220 " stroke="none" fill-rule="evenodd" fill="black"></path></svg>