<svg xmlns="http://www.w3.org/2000/svg" width="24" height="24" viewBox="0 0 24 24" fill="none" stroke="currentColor" stroke-width="2" stroke-linecap="round" stroke-linejoin="round"><path d="M6.499 2.043 C 5.383 2.230,4.461 3.048,4.114 4.160 L 4.020 4.460 4.020 12.000 L 4.020 19.540 4.114 19.840 C 4.419 20.817,5.156 21.561,6.140 21.884 C 6.410 21.973,6.478 21.977,8.037 21.991 C 9.849 22.007,9.860 22.006,10.173 21.724 C 10.381 21.536,10.488 21.292,10.488 21.003 C 10.488 20.615,10.294 20.298,9.940 20.106 C 9.786 20.023,9.723 20.019,8.240 20.000 L 6.700 19.980 6.516 19.872 C 6.415 19.813,6.284 19.700,6.225 19.623 C 5.986 19.309,6.000 19.795,6.000 12.022 C 6.000 4.006,5.975 4.631,6.303 4.303 C 6.618 3.989,6.481 4.000,9.947 4.000 L 13.000 4.000 13.000 5.632 C 13.000 7.399,13.010 7.507,13.225 7.930 C 13.361 8.199,13.801 8.639,14.070 8.775 C 14.493 8.989,14.601 9.000,16.367 9.000 L 17.998 9.000 18.009 11.653 L 18.020 14.306 18.141 14.503 C 18.543 15.156,19.457 15.156,19.859 14.503 L 19.980 14.306 19.991 11.063 C 20.001 8.130,19.996 7.803,19.936 7.640 C 19.881 7.489,19.455 7.043,17.245 4.826 C 15.152 2.726,14.579 2.172,14.420 2.096 L 14.220 2.001 10.460 2.005 C 8.392 2.007,6.609 2.025,6.499 2.043 M15.800 6.220 L 16.579 7.000 15.790 7.000 L 15.000 7.000 15.000 6.220 C 15.000 5.791,15.005 5.440,15.010 5.440 C 15.016 5.440,15.371 5.791,15.800 6.220 M13.530 16.044 C 12.630 16.194,11.800 16.791,11.367 17.600 C 11.094 18.110,11.020 18.417,11.023 19.020 C 11.025 19.473,11.039 19.581,11.133 19.860 C 11.429 20.745,12.077 21.447,12.909 21.781 C 13.556 22.041,14.371 22.066,15.028 21.846 C 15.616 21.649,15.866 21.486,16.462 20.911 L 17.001 20.391 17.534 20.908 C 18.126 21.483,18.368 21.642,18.965 21.847 C 19.317 21.968,19.374 21.976,19.900 21.976 C 20.733 21.977,21.247 21.804,21.858 21.319 C 22.357 20.923,22.688 20.430,22.888 19.785 C 23.017 19.372,23.015 18.624,22.884 18.200 C 22.627 17.363,22.070 16.704,21.300 16.323 C 20.819 16.085,20.546 16.025,19.940 16.022 C 18.933 16.018,18.364 16.278,17.473 17.151 L 17.000 17.613 16.530 17.155 C 16.012 16.650,15.645 16.388,15.221 16.220 C 14.722 16.023,14.066 15.955,13.530 16.044 M14.602 18.149 C 14.707 18.210,14.965 18.425,15.174 18.626 L 15.555 18.992 15.127 19.408 C 14.657 19.865,14.502 19.958,14.161 19.989 C 13.539 20.046,13.023 19.596,13.023 19.000 C 13.023 18.683,13.121 18.474,13.367 18.263 C 13.703 17.976,14.220 17.928,14.602 18.149 M20.264 18.059 C 20.694 18.187,20.974 18.558,20.974 19.000 C 20.974 19.318,20.877 19.528,20.633 19.737 C 20.274 20.044,19.714 20.082,19.333 19.823 C 19.262 19.774,19.031 19.568,18.820 19.364 L 18.437 18.994 18.824 18.627 C 19.037 18.425,19.263 18.226,19.328 18.184 C 19.617 17.999,19.923 17.958,20.264 18.059 " stroke="none" fill-rule="evenodd" fill="black"></path></svg>