<svg xmlns="http://www.w3.org/2000/svg" width="24" height="24" viewBox="0 0 24 24" fill="none" stroke="currentColor" stroke-width="2" stroke-linecap="round" stroke-linejoin="round"><path d="M6.499 2.043 C 5.383 2.230,4.461 3.048,4.114 4.160 L 4.020 4.460 4.020 12.000 L 4.020 19.540 4.114 19.840 C 4.422 20.827,5.173 21.578,6.160 21.886 L 6.460 21.980 12.000 21.980 L 17.540 21.980 17.840 21.886 C 18.816 21.582,19.554 20.851,19.886 19.860 L 19.980 19.580 19.991 13.700 C 20.002 8.317,19.997 7.805,19.936 7.640 C 19.881 7.488,19.455 7.043,17.245 4.826 C 15.152 2.726,14.579 2.172,14.420 2.096 L 14.220 2.001 10.460 2.005 C 8.392 2.007,6.609 2.025,6.499 2.043 M13.000 5.632 C 13.000 7.399,13.010 7.507,13.225 7.930 C 13.361 8.199,13.801 8.639,14.070 8.775 C 14.493 8.990,14.601 9.000,16.368 9.000 L 18.000 9.000 18.000 14.054 C 18.000 18.220,17.990 19.139,17.945 19.290 C 17.872 19.533,17.707 19.740,17.484 19.872 L 17.300 19.980 12.000 19.980 L 6.700 19.980 6.516 19.872 C 6.415 19.813,6.284 19.700,6.225 19.623 C 5.986 19.309,6.000 19.795,6.000 12.022 C 6.000 4.005,5.975 4.631,6.304 4.303 C 6.613 3.994,6.464 4.006,9.930 4.003 L 13.000 4.000 13.000 5.632 M15.800 6.220 L 16.579 7.000 15.790 7.000 L 15.000 7.000 15.000 6.220 C 15.000 5.791,15.005 5.440,15.010 5.440 C 15.016 5.440,15.371 5.791,15.800 6.220 M11.695 9.057 C 11.466 9.129,11.256 9.299,11.128 9.516 C 11.025 9.692,11.019 9.728,11.007 10.350 L 10.993 11.000 10.443 11.000 C 9.648 11.000,9.366 11.111,9.128 11.516 C 9.037 11.672,9.020 11.746,9.020 12.000 C 9.020 12.256,9.036 12.328,9.131 12.489 C 9.256 12.702,9.449 12.864,9.670 12.943 C 9.768 12.978,10.022 12.997,10.407 12.998 L 10.993 13.000 11.007 13.653 C 11.020 14.300,11.021 14.308,11.141 14.503 C 11.209 14.613,11.346 14.756,11.452 14.828 C 11.923 15.144,12.554 14.999,12.859 14.503 C 12.979 14.308,12.980 14.300,12.993 13.653 L 13.007 13.000 13.593 12.998 C 13.978 12.997,14.232 12.978,14.330 12.943 C 14.551 12.864,14.744 12.702,14.869 12.489 C 14.964 12.328,14.980 12.256,14.980 12.000 C 14.980 11.746,14.963 11.672,14.872 11.516 C 14.634 11.111,14.352 11.000,13.557 11.000 L 13.007 11.000 12.993 10.350 C 12.981 9.728,12.975 9.692,12.872 9.516 C 12.628 9.101,12.150 8.915,11.695 9.057 M9.695 16.057 C 9.466 16.129,9.256 16.299,9.128 16.516 C 9.037 16.672,9.020 16.746,9.020 17.000 C 9.020 17.256,9.036 17.328,9.131 17.489 C 9.256 17.702,9.449 17.864,9.670 17.943 C 9.889 18.021,14.111 18.021,14.330 17.943 C 14.551 17.864,14.744 17.702,14.869 17.489 C 14.964 17.328,14.980 17.256,14.980 17.000 C 14.980 16.746,14.963 16.672,14.872 16.516 C 14.740 16.293,14.533 16.128,14.290 16.055 C 14.033 15.978,9.943 15.979,9.695 16.057 " stroke="none" fill-rule="evenodd" fill="black"></path></svg>