<svg xmlns="http://www.w3.org/2000/svg" width="24" height="24" viewBox="0 0 24 24" fill="none" stroke="currentColor" stroke-width="2" stroke-linecap="round" stroke-linejoin="round"><path d="M6.499 2.043 C 5.383 2.230,4.461 3.048,4.114 4.160 L 4.020 4.460 4.020 12.000 L 4.020 19.540 4.114 19.840 C 4.422 20.827,5.173 21.578,6.160 21.886 L 6.460 21.980 12.000 21.980 L 17.540 21.980 17.840 21.886 C 18.816 21.582,19.554 20.851,19.886 19.860 L 19.980 19.580 19.991 13.700 C 20.002 8.317,19.997 7.805,19.936 7.640 C 19.881 7.488,19.455 7.043,17.245 4.826 C 15.152 2.726,14.579 2.172,14.420 2.096 L 14.220 2.001 10.460 2.005 C 8.392 2.007,6.609 2.025,6.499 2.043 M13.000 5.632 C 13.000 7.399,13.010 7.507,13.225 7.930 C 13.361 8.199,13.801 8.639,14.070 8.775 C 14.493 8.990,14.601 9.000,16.368 9.000 L 18.000 9.000 18.000 14.054 C 18.000 18.220,17.990 19.139,17.945 19.290 C 17.872 19.533,17.707 19.740,17.484 19.872 L 17.300 19.980 12.000 19.980 L 6.700 19.980 6.516 19.872 C 6.415 19.813,6.284 19.700,6.225 19.623 C 5.986 19.309,6.000 19.795,6.000 12.022 C 6.000 4.005,5.975 4.631,6.304 4.303 C 6.613 3.994,6.464 4.006,9.930 4.003 L 13.000 4.000 13.000 5.632 M15.800 6.220 L 16.579 7.000 15.790 7.000 L 15.000 7.000 15.000 6.220 C 15.000 5.791,15.005 5.440,15.010 5.440 C 15.016 5.440,15.371 5.791,15.800 6.220 M12.310 10.061 C 10.856 10.336,9.698 11.321,9.218 12.690 C 9.119 12.974,9.100 13.000,9.001 13.000 C 8.674 13.000,8.305 13.215,8.135 13.504 C 7.777 14.116,8.186 14.915,8.895 14.988 L 9.113 15.011 9.220 15.315 C 9.692 16.661,10.811 17.626,12.245 17.922 C 12.987 18.076,14.001 17.967,14.513 17.679 C 14.825 17.504,15.026 17.106,14.988 16.739 C 14.950 16.363,14.745 16.080,14.400 15.923 C 14.172 15.820,13.905 15.819,13.523 15.921 C 13.025 16.053,12.598 16.014,12.130 15.794 C 11.864 15.668,11.467 15.329,11.348 15.124 L 11.275 15.000 11.728 14.998 C 12.374 14.996,12.641 14.877,12.869 14.489 C 12.964 14.328,12.980 14.256,12.980 14.000 C 12.980 13.746,12.963 13.672,12.872 13.516 C 12.648 13.135,12.340 13.000,11.692 13.000 C 11.280 13.000,11.278 12.999,11.323 12.914 C 11.408 12.756,11.698 12.469,11.913 12.330 C 12.366 12.040,12.888 11.945,13.400 12.060 C 14.065 12.211,14.363 12.175,14.667 11.909 C 15.167 11.469,15.072 10.623,14.486 10.309 C 14.013 10.054,12.970 9.935,12.310 10.061 " stroke="none" fill-rule="evenodd" fill="black"></path></svg>