<svg xmlns="http://www.w3.org/2000/svg" width="24" height="24" viewBox="0 0 24 24" fill="none" stroke="currentColor" stroke-width="2" stroke-linecap="round" stroke-linejoin="round"><path d="M6.499 2.043 C 5.383 2.230,4.461 3.048,4.114 4.160 L 4.020 4.460 4.020 8.383 L 4.020 12.306 4.141 12.503 C 4.543 13.156,5.457 13.156,5.859 12.503 L 5.980 12.306 6.000 8.523 C 6.022 4.284,5.999 4.596,6.321 4.283 C 6.622 3.992,6.514 4.000,9.947 4.000 L 13.000 4.000 13.000 5.618 C 13.000 6.649,13.016 7.313,13.044 7.448 C 13.189 8.140,13.857 8.807,14.552 8.955 C 14.689 8.984,15.335 9.000,16.380 9.000 L 17.997 9.000 18.008 10.653 L 18.020 12.306 18.141 12.503 C 18.543 13.156,19.457 13.156,19.859 12.503 L 19.980 12.306 19.991 10.063 C 20.002 8.056,19.996 7.801,19.937 7.640 C 19.881 7.489,19.452 7.041,17.245 4.826 C 15.152 2.726,14.579 2.172,14.420 2.096 L 14.220 2.001 10.460 2.005 C 8.392 2.007,6.609 2.025,6.499 2.043 M15.800 6.220 L 16.579 7.000 15.790 7.000 L 15.000 7.000 15.000 6.220 C 15.000 5.791,15.005 5.440,15.010 5.440 C 15.016 5.440,15.371 5.791,15.800 6.220 M4.240 14.037 C 3.791 14.177,3.512 14.546,3.512 15.000 C 3.512 15.405,3.719 15.724,4.100 15.905 C 4.262 15.981,4.365 15.999,4.649 16.000 L 4.998 16.000 5.009 18.653 L 5.020 21.306 5.141 21.503 C 5.543 22.156,6.457 22.156,6.859 21.503 L 6.980 21.306 6.991 18.653 L 7.002 16.000 7.351 16.000 C 7.635 15.999,7.738 15.981,7.900 15.905 C 8.281 15.724,8.488 15.405,8.488 15.000 C 8.488 14.615,8.293 14.297,7.940 14.106 C 7.784 14.022,7.740 14.020,6.060 14.013 C 5.114 14.009,4.295 14.019,4.240 14.037 M9.650 14.066 C 9.171 14.236,8.882 14.844,9.054 15.320 C 9.082 15.397,9.486 16.032,9.953 16.730 L 10.801 18.000 9.953 19.270 C 9.486 19.968,9.082 20.603,9.054 20.680 C 8.900 21.106,9.096 21.625,9.499 21.862 C 9.836 22.059,10.299 22.028,10.616 21.786 C 10.685 21.733,11.018 21.274,11.356 20.765 C 11.695 20.256,11.985 19.840,12.000 19.840 C 12.015 19.840,12.305 20.256,12.644 20.765 C 12.982 21.274,13.315 21.733,13.384 21.786 C 13.701 22.028,14.164 22.059,14.501 21.862 C 14.907 21.624,15.096 21.123,14.943 20.690 C 14.912 20.601,14.507 19.960,14.043 19.265 L 13.199 18.000 14.043 16.735 C 14.507 16.040,14.912 15.399,14.943 15.310 C 15.211 14.551,14.442 13.791,13.678 14.061 C 13.583 14.094,13.450 14.164,13.382 14.216 C 13.315 14.267,12.982 14.726,12.644 15.235 C 12.305 15.744,12.015 16.160,12.000 16.160 C 11.985 16.160,11.695 15.744,11.356 15.235 C 11.018 14.726,10.685 14.267,10.618 14.216 C 10.346 14.008,9.976 13.951,9.650 14.066 M16.240 14.037 C 15.791 14.177,15.512 14.546,15.512 15.000 C 15.512 15.405,15.719 15.724,16.100 15.905 C 16.262 15.981,16.365 15.999,16.649 16.000 L 16.998 16.000 17.009 18.653 L 17.020 21.306 17.141 21.503 C 17.543 22.156,18.457 22.156,18.859 21.503 L 18.980 21.306 18.991 18.653 L 19.002 16.000 19.351 16.000 C 19.635 15.999,19.738 15.981,19.900 15.905 C 20.281 15.724,20.488 15.405,20.488 15.000 C 20.488 14.615,20.293 14.297,19.940 14.106 C 19.784 14.022,19.740 14.020,18.060 14.013 C 17.114 14.009,16.295 14.019,16.240 14.037 " stroke="none" fill-rule="evenodd" fill="black"></path></svg>