<svg xmlns="http://www.w3.org/2000/svg" width="24" height="24" viewBox="0 0 24 24" fill="none" stroke="currentColor" stroke-width="2" stroke-linecap="round" stroke-linejoin="round"><path d="M6.499 2.043 C 5.383 2.230,4.461 3.048,4.114 4.160 L 4.020 4.460 4.020 7.883 L 4.020 11.306 4.141 11.503 C 4.543 12.156,5.457 12.156,5.859 11.503 L 5.980 11.306 6.000 8.023 C 6.022 4.344,6.001 4.594,6.321 4.283 C 6.622 3.992,6.514 4.000,9.947 4.000 L 13.000 4.000 13.000 5.632 C 13.000 7.399,13.010 7.507,13.225 7.930 C 13.361 8.199,13.801 8.639,14.070 8.775 C 14.493 8.990,14.601 9.000,16.368 9.000 L 18.000 9.000 18.000 14.054 C 18.000 18.220,17.990 19.139,17.945 19.290 C 17.872 19.533,17.707 19.740,17.484 19.872 L 17.300 19.980 15.760 20.000 C 14.277 20.019,14.214 20.023,14.060 20.106 C 13.706 20.298,13.512 20.615,13.512 21.003 C 13.512 21.292,13.619 21.536,13.827 21.724 C 14.140 22.006,14.151 22.007,15.963 21.991 C 17.522 21.977,17.590 21.973,17.860 21.884 C 18.833 21.564,19.557 20.841,19.886 19.860 L 19.980 19.580 19.991 13.700 C 20.002 8.317,19.997 7.805,19.936 7.640 C 19.881 7.488,19.455 7.043,17.245 4.826 C 15.152 2.726,14.579 2.172,14.420 2.096 L 14.220 2.001 10.460 2.005 C 8.392 2.007,6.609 2.025,6.499 2.043 M15.800 6.220 L 16.579 7.000 15.790 7.000 L 15.000 7.000 15.000 6.220 C 15.000 5.791,15.005 5.440,15.010 5.440 C 15.016 5.440,15.371 5.791,15.800 6.220 M3.477 13.072 C 2.802 13.252,2.238 13.824,2.060 14.508 C 1.972 14.844,1.972 18.156,2.060 18.492 C 2.153 18.852,2.310 19.118,2.596 19.404 C 3.107 19.915,3.412 20.006,4.593 19.996 L 5.446 19.988 6.332 21.364 C 6.927 22.289,7.290 22.812,7.439 22.961 C 8.436 23.955,10.174 23.657,10.776 22.388 C 10.971 21.976,11.000 21.778,11.000 20.842 L 11.000 20.008 11.710 19.992 C 12.317 19.978,12.457 19.962,12.675 19.885 C 13.370 19.641,13.844 19.113,13.968 18.447 C 14.059 17.958,13.998 17.740,13.234 15.823 C 12.856 14.875,12.505 14.034,12.455 13.953 C 12.304 13.712,12.120 13.522,11.883 13.366 C 11.329 12.999,11.262 12.992,8.680 13.007 C 6.581 13.020,6.580 13.020,6.340 13.115 C 6.041 13.232,5.960 13.232,5.660 13.116 C 5.441 13.031,5.348 13.022,4.580 13.012 C 3.880 13.003,3.696 13.013,3.477 13.072 M5.000 16.500 L 5.000 18.000 4.500 18.000 L 4.000 18.000 4.000 16.500 L 4.000 15.000 4.500 15.000 L 5.000 15.000 5.000 16.500 M11.352 16.500 L 11.953 18.000 10.923 18.000 C 9.799 18.000,9.643 18.022,9.382 18.221 C 9.302 18.282,9.187 18.415,9.128 18.516 L 9.020 18.700 9.000 20.120 C 8.981 21.476,8.977 21.540,8.905 21.540 C 8.850 21.540,8.584 21.159,7.915 20.121 L 7.000 18.701 7.000 16.851 L 7.000 15.000 8.876 15.000 L 10.752 15.000 11.352 16.500 " stroke="none" fill-rule="evenodd" fill="black"></path></svg>