<svg xmlns="http://www.w3.org/2000/svg" width="24" height="24" viewBox="0 0 24 24" fill="none" stroke="currentColor" stroke-width="2" stroke-linecap="round" stroke-linejoin="round"><path d="M6.499 2.043 C 5.383 2.230,4.461 3.048,4.114 4.160 L 4.020 4.460 4.020 12.000 L 4.020 19.540 4.114 19.840 C 4.418 20.816,5.151 21.556,6.140 21.885 L 6.420 21.979 9.269 21.991 C 11.156 21.999,12.171 21.989,12.273 21.962 C 12.498 21.901,12.738 21.711,12.867 21.492 C 12.964 21.327,12.980 21.257,12.980 21.000 C 12.980 20.746,12.963 20.672,12.872 20.516 C 12.761 20.328,12.572 20.158,12.373 20.070 C 12.287 20.032,11.582 20.015,9.480 20.000 L 6.700 19.980 6.516 19.872 C 6.415 19.813,6.284 19.700,6.225 19.623 C 5.986 19.309,6.000 19.795,6.000 12.022 C 6.000 4.006,5.975 4.631,6.303 4.303 C 6.618 3.989,6.481 4.000,9.947 4.000 L 13.000 4.000 13.000 5.632 C 13.000 7.399,13.010 7.507,13.225 7.930 C 13.361 8.199,13.801 8.639,14.070 8.775 C 14.493 8.990,14.601 9.000,16.368 9.000 L 18.000 9.000 18.000 10.350 C 18.001 11.687,18.002 11.702,18.095 11.900 C 18.276 12.281,18.595 12.488,19.000 12.488 C 19.405 12.488,19.724 12.281,19.905 11.900 L 19.999 11.700 19.999 9.740 C 19.998 7.861,19.995 7.773,19.918 7.600 C 19.797 7.330,14.704 2.232,14.420 2.096 L 14.220 2.001 10.460 2.005 C 8.392 2.007,6.609 2.025,6.499 2.043 M15.800 6.220 L 16.579 7.000 15.790 7.000 L 15.000 7.000 15.000 6.220 C 15.000 5.791,15.005 5.440,15.010 5.440 C 15.016 5.440,15.371 5.791,15.800 6.220 M8.695 8.057 C 8.466 8.129,8.256 8.299,8.128 8.516 C 8.037 8.672,8.020 8.746,8.020 9.000 C 8.020 9.256,8.036 9.328,8.131 9.489 C 8.256 9.702,8.449 9.864,8.670 9.943 C 8.878 10.017,10.122 10.017,10.330 9.943 C 10.551 9.864,10.744 9.702,10.869 9.489 C 10.964 9.328,10.980 9.256,10.980 9.000 C 10.980 8.746,10.963 8.672,10.872 8.516 C 10.740 8.293,10.533 8.128,10.290 8.055 C 10.050 7.983,8.928 7.984,8.695 8.057 M8.695 12.057 C 8.466 12.129,8.256 12.299,8.128 12.516 C 8.037 12.672,8.020 12.746,8.020 13.000 C 8.020 13.256,8.036 13.328,8.131 13.489 C 8.256 13.702,8.449 13.864,8.670 13.943 C 8.891 14.022,15.109 14.022,15.330 13.943 C 15.551 13.864,15.744 13.702,15.869 13.489 C 15.964 13.328,15.980 13.256,15.980 13.000 C 15.980 12.746,15.963 12.672,15.872 12.516 C 15.740 12.293,15.533 12.128,15.290 12.055 C 15.030 11.977,8.945 11.979,8.695 12.057 M18.617 14.577 C 18.438 14.655,18.206 14.870,18.123 15.036 C 18.084 15.115,18.011 15.314,17.962 15.478 C 17.609 16.656,16.655 17.611,15.480 17.962 C 15.075 18.083,14.921 18.165,14.752 18.352 C 14.420 18.720,14.420 19.280,14.752 19.648 C 14.920 19.834,15.074 19.917,15.478 20.038 C 16.687 20.400,17.610 21.343,17.987 22.600 C 18.076 22.898,18.131 23.008,18.270 23.163 C 18.672 23.610,19.328 23.610,19.730 23.163 C 19.869 23.008,19.924 22.898,20.013 22.600 C 20.399 21.311,21.311 20.399,22.600 20.013 C 22.898 19.924,23.008 19.869,23.163 19.730 C 23.574 19.360,23.612 18.754,23.248 18.352 C 23.079 18.165,22.925 18.083,22.520 17.962 C 21.314 17.602,20.390 16.658,20.014 15.402 C 19.832 14.793,19.515 14.518,18.997 14.522 C 18.856 14.522,18.685 14.547,18.617 14.577 M8.695 16.057 C 8.466 16.129,8.256 16.299,8.128 16.516 C 8.037 16.672,8.020 16.746,8.020 17.000 C 8.020 17.256,8.036 17.328,8.131 17.489 C 8.256 17.702,8.449 17.864,8.670 17.943 C 8.888 18.021,12.112 18.021,12.330 17.943 C 12.551 17.864,12.744 17.702,12.869 17.489 C 12.964 17.328,12.980 17.256,12.980 17.000 C 12.980 16.746,12.963 16.672,12.872 16.516 C 12.740 16.293,12.533 16.128,12.290 16.055 C 12.035 15.978,8.941 15.980,8.695 16.057 M19.194 18.057 C 19.373 18.282,19.740 18.644,20.020 18.873 L 20.180 19.004 20.020 19.130 C 19.818 19.288,19.295 19.809,19.127 20.019 L 19.000 20.178 18.873 20.019 C 18.705 19.809,18.182 19.288,17.980 19.130 L 17.820 19.004 17.980 18.873 C 18.260 18.644,18.627 18.282,18.806 18.057 C 18.901 17.938,18.989 17.840,19.000 17.840 C 19.011 17.840,19.099 17.938,19.194 18.057 " stroke="none" fill-rule="evenodd" fill="black"></path></svg>