<svg xmlns="http://www.w3.org/2000/svg" width="24" height="24" viewBox="0 0 24 24" fill="none" stroke="currentColor" stroke-width="2" stroke-linecap="round" stroke-linejoin="round"><path d="M2.670 2.061 C 2.448 2.142,2.250 2.309,2.128 2.516 C 2.036 2.672,2.020 2.745,2.021 3.000 C 2.021 3.213,2.043 3.341,2.095 3.440 C 2.136 3.517,2.581 3.994,3.084 4.500 L 3.998 5.421 4.009 12.500 L 4.020 19.580 4.114 19.860 C 4.446 20.851,5.184 21.582,6.160 21.886 L 6.460 21.980 12.000 21.980 L 17.540 21.980 17.839 21.886 C 18.394 21.712,18.773 21.473,19.197 21.032 L 19.398 20.822 19.909 21.326 C 20.190 21.603,20.483 21.863,20.560 21.904 C 20.660 21.957,20.786 21.979,21.000 21.979 C 21.258 21.980,21.327 21.964,21.492 21.867 C 21.968 21.587,22.139 20.967,21.865 20.508 C 21.810 20.416,17.665 16.243,12.653 11.235 C 4.231 2.820,3.525 2.125,3.343 2.065 C 3.107 1.987,2.874 1.986,2.670 2.061 M6.695 2.057 C 6.465 2.129,6.256 2.299,6.128 2.516 C 6.037 2.672,6.020 2.746,6.020 3.000 C 6.020 3.256,6.036 3.328,6.131 3.489 C 6.256 3.702,6.449 3.864,6.670 3.943 C 6.791 3.986,7.481 3.997,10.200 3.998 L 13.580 4.000 15.790 6.210 L 17.999 8.420 18.009 11.863 L 18.020 15.306 18.141 15.503 C 18.543 16.156,19.457 16.156,19.859 15.503 L 19.980 15.306 19.991 11.586 C 20.001 8.232,19.995 7.846,19.936 7.663 C 19.876 7.475,19.673 7.263,17.225 4.816 C 15.452 3.043,14.527 2.147,14.420 2.096 C 14.267 2.023,14.102 2.020,10.560 2.012 C 7.613 2.006,6.826 2.015,6.695 2.057 M17.920 19.382 C 17.920 19.476,17.661 19.768,17.486 19.871 L 17.300 19.980 12.000 19.980 L 6.700 19.980 6.516 19.872 C 6.415 19.813,6.284 19.700,6.225 19.623 C 5.987 19.311,6.000 19.677,6.000 13.285 L 6.000 7.420 11.960 13.380 C 15.238 16.658,17.920 19.359,17.920 19.382 " stroke="none" fill-rule="evenodd" fill="black"></path></svg>