<svg xmlns="http://www.w3.org/2000/svg" width="24" height="24" viewBox="0 0 24 24" fill="none" stroke="currentColor" stroke-width="2" stroke-linecap="round" stroke-linejoin="round"><path d="M6.499 2.043 C 5.383 2.230,4.461 3.048,4.114 4.160 L 4.020 4.460 4.020 7.883 L 4.020 11.306 4.141 11.503 C 4.543 12.156,5.457 12.156,5.859 11.503 L 5.980 11.306 6.000 8.023 C 6.022 4.344,6.001 4.594,6.321 4.283 C 6.622 3.992,6.514 4.000,9.947 4.000 L 13.000 4.000 13.000 5.632 C 13.000 7.399,13.010 7.507,13.225 7.930 C 13.361 8.199,13.801 8.639,14.070 8.775 C 14.493 8.990,14.601 9.000,16.368 9.000 L 18.000 9.000 18.000 14.054 C 18.000 18.220,17.990 19.139,17.945 19.290 C 17.872 19.533,17.707 19.740,17.484 19.872 L 17.300 19.980 12.260 20.000 L 7.220 20.020 7.060 20.106 C 6.706 20.298,6.512 20.615,6.512 21.003 C 6.512 21.292,6.619 21.536,6.827 21.724 C 7.160 22.024,6.745 22.004,12.460 21.991 L 17.580 21.980 17.860 21.886 C 18.840 21.557,19.557 20.840,19.886 19.860 L 19.980 19.580 19.991 13.700 C 20.002 8.317,19.997 7.805,19.936 7.640 C 19.881 7.488,19.455 7.043,17.245 4.826 C 15.152 2.726,14.579 2.172,14.420 2.096 L 14.220 2.001 10.460 2.005 C 8.392 2.007,6.609 2.025,6.499 2.043 M15.800 6.220 L 16.579 7.000 15.790 7.000 L 15.000 7.000 15.000 6.220 C 15.000 5.791,15.005 5.440,15.010 5.440 C 15.016 5.440,15.371 5.791,15.800 6.220 M8.670 10.061 C 8.448 10.142,8.250 10.309,8.128 10.516 C 8.036 10.672,8.020 10.745,8.021 11.000 C 8.021 11.213,8.043 11.340,8.096 11.440 C 8.136 11.517,8.486 11.900,8.873 12.290 L 9.577 13.000 8.179 13.000 C 6.680 13.000,6.242 13.037,5.755 13.204 C 4.366 13.680,3.372 14.805,3.081 16.233 C 3.001 16.627,2.998 16.742,3.009 18.975 L 3.020 21.306 3.141 21.503 C 3.543 22.156,4.457 22.156,4.859 21.503 L 4.980 21.306 5.001 18.943 C 5.025 16.305,5.016 16.392,5.314 15.937 C 5.508 15.642,5.712 15.446,6.014 15.265 C 6.414 15.025,6.617 15.000,8.186 15.000 L 9.577 15.000 8.873 15.710 C 8.486 16.101,8.139 16.481,8.101 16.555 C 7.872 17.008,8.056 17.601,8.508 17.867 C 8.673 17.964,8.742 17.980,9.000 17.979 C 9.212 17.979,9.341 17.957,9.440 17.905 C 9.517 17.865,10.306 17.109,11.194 16.226 C 12.957 14.472,12.999 14.420,12.999 14.000 C 12.999 13.578,12.960 13.530,11.175 11.756 C 9.716 10.307,9.519 10.124,9.343 10.066 C 9.108 9.987,8.875 9.986,8.670 10.061 " stroke="none" fill-rule="evenodd" fill="black"></path></svg>