<svg xmlns="http://www.w3.org/2000/svg" width="24" height="24" viewBox="0 0 24 24" fill="none" stroke="currentColor" stroke-width="2" stroke-linecap="round" stroke-linejoin="round"><path d="M6.499 2.043 C 5.383 2.230,4.461 3.048,4.114 4.160 L 4.020 4.460 4.020 12.000 L 4.020 19.540 4.114 19.840 C 4.422 20.827,5.173 21.578,6.160 21.886 L 6.460 21.980 12.000 21.980 L 17.540 21.980 17.840 21.886 C 18.816 21.582,19.554 20.851,19.886 19.860 L 19.980 19.580 19.991 13.700 C 20.002 8.317,19.997 7.805,19.936 7.640 C 19.881 7.488,19.455 7.043,17.245 4.826 C 15.152 2.726,14.579 2.172,14.420 2.096 L 14.220 2.001 10.460 2.005 C 8.392 2.007,6.609 2.025,6.499 2.043 M13.000 5.632 C 13.000 7.399,13.010 7.507,13.225 7.930 C 13.361 8.199,13.801 8.639,14.070 8.775 C 14.493 8.990,14.601 9.000,16.368 9.000 L 18.000 9.000 18.000 14.054 C 18.000 18.220,17.990 19.139,17.945 19.290 C 17.872 19.533,17.707 19.740,17.484 19.872 L 17.300 19.980 12.000 19.980 L 6.700 19.980 6.516 19.872 C 6.415 19.813,6.284 19.700,6.225 19.623 C 5.986 19.309,6.000 19.795,6.000 12.022 C 6.000 4.005,5.975 4.631,6.304 4.303 C 6.613 3.994,6.464 4.006,9.930 4.003 L 13.000 4.000 13.000 5.632 M15.800 6.220 L 16.579 7.000 15.790 7.000 L 15.000 7.000 15.000 6.220 C 15.000 5.791,15.005 5.440,15.010 5.440 C 15.016 5.440,15.371 5.791,15.800 6.220 M11.372 9.072 C 11.112 9.165,10.870 9.331,10.723 9.517 C 10.661 9.596,10.403 10.074,10.150 10.580 L 9.689 11.501 8.657 11.651 C 7.546 11.812,7.351 11.870,7.063 12.122 C 6.745 12.402,6.575 12.831,6.611 13.267 C 6.646 13.710,6.753 13.864,7.623 14.726 C 8.233 15.330,8.399 15.517,8.384 15.580 C 8.373 15.624,8.289 16.107,8.197 16.653 L 8.030 17.645 8.095 17.913 C 8.262 18.595,8.870 19.044,9.552 18.989 C 9.821 18.968,10.039 18.871,11.330 18.198 L 11.800 17.953 12.270 18.198 C 13.561 18.871,13.779 18.968,14.048 18.989 C 14.724 19.043,15.333 18.598,15.503 17.925 C 15.576 17.635,15.580 17.680,15.357 16.400 L 15.200 15.500 15.979 14.726 C 16.844 13.867,16.944 13.722,16.986 13.276 C 17.027 12.835,16.860 12.406,16.537 12.122 C 16.249 11.870,16.054 11.812,14.943 11.651 L 13.911 11.501 13.434 10.548 C 12.905 9.491,12.773 9.315,12.370 9.130 C 12.069 8.992,11.662 8.969,11.372 9.072 M12.109 12.376 C 12.267 12.693,12.451 13.015,12.518 13.091 C 12.699 13.298,12.948 13.384,13.653 13.484 L 14.285 13.574 13.787 14.077 C 13.512 14.354,13.261 14.634,13.228 14.701 C 13.111 14.935,13.109 15.155,13.217 15.773 C 13.274 16.098,13.320 16.391,13.320 16.424 C 13.320 16.466,13.137 16.389,12.699 16.162 C 12.097 15.850,12.070 15.840,11.800 15.840 C 11.530 15.840,11.503 15.850,10.901 16.162 C 10.413 16.415,10.280 16.469,10.280 16.415 C 10.280 16.378,10.326 16.085,10.383 15.765 C 10.492 15.156,10.489 14.935,10.372 14.701 C 10.339 14.634,10.088 14.354,9.813 14.077 L 9.315 13.574 9.947 13.484 C 10.652 13.384,10.901 13.298,11.082 13.091 C 11.149 13.015,11.333 12.693,11.491 12.376 C 11.649 12.059,11.788 11.800,11.800 11.800 C 11.812 11.800,11.951 12.059,12.109 12.376 " stroke="none" fill-rule="evenodd" fill="black"></path></svg>