<svg xmlns="http://www.w3.org/2000/svg" width="24" height="24" viewBox="0 0 24 24" fill="none" stroke="currentColor" stroke-width="2" stroke-linecap="round" stroke-linejoin="round"><path d="M6.499 2.043 C 5.383 2.230,4.461 3.048,4.114 4.160 L 4.020 4.460 4.020 12.000 L 4.020 19.540 4.114 19.840 C 4.422 20.827,5.173 21.578,6.160 21.886 L 6.460 21.980 12.000 21.980 L 17.540 21.980 17.840 21.886 C 18.816 21.582,19.554 20.851,19.886 19.860 L 19.980 19.580 19.991 13.700 C 20.002 8.317,19.997 7.805,19.936 7.640 C 19.881 7.488,19.455 7.043,17.245 4.826 C 15.152 2.726,14.579 2.172,14.420 2.096 L 14.220 2.001 10.460 2.005 C 8.392 2.007,6.609 2.025,6.499 2.043 M13.000 5.632 C 13.000 7.399,13.010 7.507,13.225 7.930 C 13.361 8.199,13.801 8.639,14.070 8.775 C 14.493 8.990,14.601 9.000,16.368 9.000 L 18.000 9.000 18.000 14.054 C 18.000 18.220,17.990 19.139,17.945 19.290 C 17.872 19.533,17.707 19.740,17.484 19.872 L 17.300 19.980 12.000 19.980 L 6.700 19.980 6.516 19.872 C 6.415 19.813,6.284 19.700,6.225 19.623 C 5.986 19.309,6.000 19.795,6.000 12.022 C 6.000 4.005,5.975 4.631,6.304 4.303 C 6.613 3.994,6.464 4.006,9.930 4.003 L 13.000 4.000 13.000 5.632 M15.800 6.220 L 16.579 7.000 15.790 7.000 L 15.000 7.000 15.000 6.220 C 15.000 5.791,15.005 5.440,15.010 5.440 C 15.016 5.440,15.371 5.791,15.800 6.220 M8.695 10.057 C 8.466 10.129,8.256 10.299,8.128 10.516 C 8.023 10.694,8.020 10.723,8.007 11.404 C 7.999 11.825,8.011 12.172,8.037 12.268 C 8.099 12.498,8.287 12.737,8.508 12.867 C 8.673 12.964,8.743 12.980,9.003 12.980 C 9.271 12.980,9.329 12.966,9.503 12.859 C 9.742 12.712,9.946 12.422,9.982 12.179 L 10.009 12.000 10.505 12.000 L 11.000 12.000 11.000 14.494 L 11.000 16.987 10.786 17.035 C 10.515 17.096,10.270 17.275,10.129 17.514 C 10.036 17.672,10.020 17.745,10.020 18.000 C 10.020 18.256,10.036 18.328,10.131 18.489 C 10.256 18.702,10.449 18.864,10.670 18.943 C 10.885 19.020,13.115 19.020,13.330 18.943 C 13.551 18.864,13.744 18.702,13.869 18.489 C 13.964 18.328,13.980 18.256,13.980 18.000 C 13.980 17.745,13.964 17.672,13.871 17.514 C 13.730 17.275,13.485 17.096,13.214 17.035 L 13.000 16.987 13.000 14.494 L 13.000 12.000 13.495 12.000 L 13.991 12.000 14.018 12.179 C 14.054 12.422,14.258 12.712,14.497 12.859 C 14.671 12.966,14.729 12.980,14.997 12.980 C 15.257 12.980,15.327 12.964,15.492 12.867 C 15.713 12.737,15.901 12.498,15.963 12.268 C 15.989 12.172,16.001 11.825,15.993 11.404 C 15.980 10.723,15.977 10.694,15.872 10.516 C 15.740 10.293,15.533 10.128,15.290 10.055 C 15.030 9.977,8.945 9.979,8.695 10.057 " stroke="none" fill-rule="evenodd" fill="black"></path></svg>