<svg xmlns="http://www.w3.org/2000/svg" width="24" height="24" viewBox="0 0 24 24" fill="none" stroke="currentColor" stroke-width="2" stroke-linecap="round" stroke-linejoin="round"><path d="M6.499 2.043 C 5.383 2.230,4.461 3.048,4.114 4.160 L 4.020 4.460 4.020 12.000 L 4.020 19.540 4.114 19.840 C 4.419 20.817,5.155 21.559,6.140 21.885 C 6.413 21.975,6.464 21.977,8.266 21.991 C 9.485 22.000,10.166 21.991,10.270 21.963 C 10.498 21.901,10.738 21.712,10.867 21.492 C 10.964 21.327,10.980 21.257,10.980 21.000 C 10.980 20.746,10.963 20.672,10.872 20.516 C 10.761 20.327,10.571 20.158,10.373 20.071 C 10.291 20.035,9.768 20.015,8.480 20.001 L 6.700 19.980 6.516 19.872 C 6.415 19.813,6.284 19.700,6.225 19.623 C 5.986 19.309,6.000 19.795,6.000 12.022 C 6.000 4.006,5.975 4.631,6.303 4.303 C 6.618 3.989,6.481 4.000,9.947 4.000 L 13.000 4.000 13.000 5.632 C 13.000 7.399,13.010 7.507,13.225 7.930 C 13.361 8.199,13.801 8.639,14.070 8.775 C 14.493 8.989,14.601 9.000,16.365 9.000 L 17.993 9.000 18.007 9.653 C 18.020 10.300,18.021 10.308,18.141 10.503 C 18.543 11.156,19.457 11.156,19.859 10.503 L 19.980 10.306 19.992 9.065 C 20.003 7.982,19.996 7.800,19.937 7.641 C 19.881 7.488,19.460 7.048,17.245 4.826 C 15.152 2.726,14.579 2.172,14.420 2.096 L 14.220 2.001 10.460 2.005 C 8.392 2.007,6.609 2.025,6.499 2.043 M15.800 6.220 L 16.579 7.000 15.790 7.000 L 15.000 7.000 15.000 6.220 C 15.000 5.791,15.005 5.440,15.010 5.440 C 15.016 5.440,15.371 5.791,15.800 6.220 M19.580 12.096 C 19.427 12.169,19.118 12.455,18.274 13.306 C 17.666 13.919,17.136 14.483,17.095 14.560 C 17.043 14.659,17.021 14.787,17.021 15.000 C 17.020 15.258,17.036 15.327,17.133 15.492 C 17.338 15.842,17.705 16.029,18.105 15.988 C 18.368 15.961,18.523 15.879,18.788 15.629 L 19.000 15.428 19.000 16.768 C 19.000 18.225,18.985 18.347,18.779 18.618 C 18.718 18.698,18.585 18.813,18.484 18.872 L 18.300 18.980 16.862 18.992 L 15.425 19.004 15.627 18.790 C 15.924 18.476,15.978 18.354,15.979 18.000 C 15.980 17.745,15.964 17.672,15.872 17.516 C 15.618 17.084,15.136 16.905,14.657 17.066 C 14.485 17.124,14.317 17.273,13.325 18.256 C 12.078 19.491,12.001 19.593,12.001 20.000 C 12.001 20.405,12.080 20.510,13.306 21.726 C 13.919 22.334,14.481 22.862,14.555 22.899 C 15.009 23.128,15.601 22.944,15.867 22.492 C 15.964 22.327,15.980 22.258,15.979 22.000 C 15.978 21.647,15.924 21.524,15.632 21.215 L 15.434 21.006 17.007 20.991 C 18.520 20.977,18.591 20.973,18.860 20.884 C 19.834 20.564,20.564 19.834,20.884 18.860 C 20.973 18.591,20.977 18.520,20.991 17.007 L 21.006 15.434 21.215 15.632 C 21.477 15.879,21.633 15.961,21.895 15.988 C 22.295 16.029,22.662 15.842,22.867 15.492 C 22.964 15.327,22.980 15.258,22.979 15.000 C 22.979 14.787,22.957 14.659,22.905 14.560 C 22.864 14.483,22.334 13.919,21.726 13.306 C 20.510 12.080,20.405 12.001,20.000 12.001 C 19.851 12.001,19.715 12.031,19.580 12.096 " stroke="none" fill-rule="evenodd" fill="black"></path></svg>