<svg xmlns="http://www.w3.org/2000/svg" width="24" height="24" viewBox="0 0 24 24" fill="none" stroke="currentColor" stroke-width="2" stroke-linecap="round" stroke-linejoin="round"><path d="M6.499 2.043 C 5.383 2.230,4.461 3.048,4.114 4.160 L 4.020 4.460 4.020 12.000 L 4.020 19.540 4.114 19.840 C 4.422 20.827,5.173 21.578,6.160 21.886 L 6.460 21.980 12.000 21.980 L 17.540 21.980 17.840 21.886 C 18.816 21.582,19.554 20.851,19.886 19.860 L 19.980 19.580 19.991 13.700 C 20.002 8.317,19.997 7.805,19.936 7.640 C 19.881 7.488,19.455 7.043,17.245 4.826 C 15.152 2.726,14.579 2.172,14.420 2.096 L 14.220 2.001 10.460 2.005 C 8.392 2.007,6.609 2.025,6.499 2.043 M13.000 5.632 C 13.000 7.399,13.010 7.507,13.225 7.930 C 13.361 8.199,13.801 8.639,14.070 8.775 C 14.493 8.990,14.601 9.000,16.368 9.000 L 18.000 9.000 18.000 14.054 C 18.000 18.220,17.990 19.139,17.945 19.290 C 17.872 19.533,17.707 19.740,17.484 19.872 L 17.300 19.980 12.000 19.980 L 6.700 19.980 6.516 19.872 C 6.415 19.813,6.284 19.700,6.225 19.623 C 5.986 19.309,6.000 19.795,6.000 12.022 C 6.000 4.005,5.975 4.631,6.304 4.303 C 6.613 3.994,6.464 4.006,9.930 4.003 L 13.000 4.000 13.000 5.632 M15.800 6.220 L 16.579 7.000 15.790 7.000 L 15.000 7.000 15.000 6.220 C 15.000 5.791,15.005 5.440,15.010 5.440 C 15.016 5.440,15.371 5.791,15.800 6.220 M8.695 11.057 C 8.466 11.129,8.256 11.299,8.128 11.516 L 8.020 11.700 8.009 14.412 C 8.002 16.172,8.012 17.177,8.039 17.276 C 8.099 17.498,8.290 17.739,8.508 17.867 C 8.696 17.978,8.715 17.980,9.404 17.993 C 9.825 18.001,10.172 17.989,10.268 17.963 C 10.498 17.901,10.737 17.713,10.867 17.492 C 10.964 17.327,10.980 17.257,10.980 17.000 C 10.980 16.745,10.964 16.672,10.871 16.514 C 10.730 16.275,10.485 16.096,10.214 16.035 L 10.000 15.987 10.000 14.498 L 10.000 13.009 10.179 12.982 C 10.422 12.946,10.712 12.742,10.859 12.503 C 10.966 12.329,10.980 12.271,10.980 12.003 C 10.980 11.746,10.964 11.672,10.872 11.516 C 10.740 11.293,10.533 11.128,10.290 11.055 C 10.050 10.983,8.928 10.984,8.695 11.057 M13.695 11.057 C 13.466 11.129,13.256 11.299,13.128 11.516 C 13.036 11.672,13.020 11.746,13.020 12.003 C 13.020 12.271,13.034 12.329,13.141 12.503 C 13.288 12.742,13.578 12.946,13.821 12.982 L 14.000 13.009 14.000 14.498 L 14.000 15.987 13.786 16.035 C 13.515 16.096,13.270 16.275,13.129 16.514 C 13.036 16.672,13.020 16.745,13.020 17.000 C 13.020 17.257,13.036 17.327,13.133 17.492 C 13.263 17.713,13.502 17.901,13.732 17.963 C 13.828 17.989,14.175 18.001,14.596 17.993 C 15.285 17.980,15.304 17.978,15.492 17.867 C 15.710 17.739,15.901 17.498,15.961 17.276 C 15.988 17.177,15.998 16.172,15.991 14.412 L 15.980 11.700 15.872 11.516 C 15.740 11.293,15.533 11.128,15.290 11.055 C 15.050 10.983,13.928 10.984,13.695 11.057 " stroke="none" fill-rule="evenodd" fill="black"></path></svg>