<svg xmlns="http://www.w3.org/2000/svg" width="24" height="24" viewBox="0 0 24 24" fill="none" stroke="currentColor" stroke-width="2" stroke-linecap="round" stroke-linejoin="round"><path d="M6.499 2.043 C 5.383 2.230,4.461 3.048,4.114 4.160 C 4.023 4.451,4.020 4.503,4.020 5.883 L 4.020 7.306 4.141 7.503 C 4.543 8.156,5.457 8.156,5.859 7.503 L 5.980 7.307 6.000 6.023 C 6.023 4.581,6.025 4.571,6.321 4.283 C 6.622 3.992,6.514 4.000,9.947 4.000 L 13.000 4.000 13.000 5.632 C 13.000 7.399,13.010 7.507,13.225 7.930 C 13.361 8.199,13.801 8.639,14.070 8.775 C 14.493 8.989,14.601 9.000,16.365 9.000 L 17.993 9.000 18.007 9.653 C 18.020 10.300,18.021 10.308,18.141 10.503 C 18.543 11.156,19.457 11.156,19.859 10.503 L 19.980 10.306 19.992 9.065 C 20.003 7.982,19.996 7.800,19.937 7.641 C 19.881 7.488,19.460 7.048,17.245 4.826 C 15.152 2.726,14.579 2.172,14.420 2.096 L 14.220 2.001 10.460 2.005 C 8.392 2.007,6.609 2.025,6.499 2.043 M15.800 6.220 L 16.579 7.000 15.790 7.000 L 15.000 7.000 15.000 6.220 C 15.000 5.791,15.005 5.440,15.010 5.440 C 15.016 5.440,15.371 5.791,15.800 6.220 M4.695 9.055 C 4.464 9.130,4.255 9.300,4.128 9.516 C 4.037 9.672,4.020 9.746,4.020 10.000 C 4.020 10.257,4.036 10.327,4.133 10.492 C 4.651 11.374,5.998 11.018,5.998 10.000 C 5.998 9.623,5.792 9.281,5.463 9.112 C 5.265 9.010,4.911 8.984,4.695 9.055 M4.695 12.055 C 4.464 12.130,4.255 12.300,4.128 12.516 C 4.037 12.672,4.020 12.746,4.020 13.000 C 4.020 13.257,4.036 13.327,4.133 13.492 C 4.651 14.374,5.998 14.018,5.998 13.000 C 5.998 12.623,5.792 12.281,5.463 12.112 C 5.265 12.010,4.911 11.984,4.695 12.055 M18.695 12.055 C 18.464 12.130,18.255 12.300,18.128 12.516 C 18.037 12.672,18.020 12.746,18.020 13.000 C 18.020 13.257,18.036 13.327,18.133 13.492 C 18.651 14.374,19.998 14.018,19.998 13.000 C 19.998 12.623,19.792 12.281,19.463 12.112 C 19.265 12.010,18.911 11.984,18.695 12.055 M4.695 15.055 C 4.464 15.130,4.255 15.300,4.128 15.516 C 4.037 15.672,4.020 15.746,4.020 16.000 C 4.020 16.257,4.036 16.327,4.133 16.492 C 4.651 17.374,5.998 17.018,5.998 16.000 C 5.998 15.623,5.792 15.281,5.463 15.112 C 5.265 15.010,4.911 14.984,4.695 15.055 M18.695 15.055 C 18.464 15.130,18.255 15.300,18.128 15.516 C 18.037 15.672,18.020 15.746,18.020 16.000 C 18.020 16.257,18.036 16.327,18.133 16.492 C 18.651 17.374,19.998 17.018,19.998 16.000 C 19.998 15.623,19.792 15.281,19.463 15.112 C 19.265 15.010,18.911 14.984,18.695 15.055 M4.695 18.057 C 4.466 18.129,4.256 18.299,4.128 18.516 C 4.029 18.685,4.020 18.734,4.022 19.120 C 4.023 19.440,4.045 19.611,4.115 19.840 C 4.416 20.821,5.172 21.578,6.160 21.886 L 6.460 21.980 12.000 21.980 L 17.540 21.980 17.840 21.886 C 18.828 21.578,19.584 20.821,19.885 19.840 C 19.955 19.611,19.977 19.440,19.978 19.120 C 19.980 18.733,19.971 18.686,19.871 18.514 C 19.568 17.998,18.883 17.854,18.405 18.205 C 18.169 18.379,18.047 18.609,18.002 18.966 C 17.981 19.130,17.945 19.314,17.922 19.375 C 17.851 19.561,17.677 19.758,17.484 19.872 L 17.300 19.980 12.000 19.980 L 6.700 19.980 6.516 19.872 C 6.323 19.759,6.150 19.563,6.076 19.373 C 6.051 19.311,6.016 19.128,5.997 18.966 C 5.942 18.488,5.701 18.179,5.290 18.055 C 5.068 17.988,4.913 17.989,4.695 18.057 " stroke="none" fill-rule="evenodd" fill="black"></path></svg>