<svg xmlns="http://www.w3.org/2000/svg" width="24" height="24" viewBox="0 0 24 24" fill="none" stroke="currentColor" stroke-width="2" stroke-linecap="round" stroke-linejoin="round"><path d="M6.499 2.043 C 5.383 2.230,4.461 3.048,4.114 4.160 L 4.020 4.460 4.020 8.383 L 4.020 12.306 4.141 12.503 C 4.543 13.156,5.457 13.156,5.859 12.503 L 5.980 12.306 6.000 8.523 C 6.022 4.284,5.999 4.596,6.321 4.283 C 6.622 3.992,6.514 4.000,9.947 4.000 L 13.000 4.000 13.000 5.632 C 13.000 7.399,13.010 7.507,13.225 7.930 C 13.361 8.199,13.801 8.639,14.070 8.775 C 14.493 8.989,14.601 9.000,16.367 9.000 L 17.997 9.000 18.008 10.653 L 18.020 12.306 18.141 12.503 C 18.543 13.156,19.457 13.156,19.859 12.503 L 19.980 12.306 19.991 10.063 C 20.002 8.056,19.996 7.801,19.937 7.640 C 19.881 7.489,19.452 7.041,17.245 4.826 C 15.152 2.726,14.579 2.172,14.420 2.096 L 14.220 2.001 10.460 2.005 C 8.392 2.007,6.609 2.025,6.499 2.043 M15.800 6.220 L 16.579 7.000 15.790 7.000 L 15.000 7.000 15.000 6.220 C 15.000 5.791,15.005 5.440,15.010 5.440 C 15.016 5.440,15.371 5.791,15.800 6.220 M4.240 14.037 C 3.791 14.177,3.512 14.546,3.512 15.000 C 3.512 15.405,3.719 15.724,4.100 15.905 C 4.262 15.981,4.365 15.999,4.649 16.000 L 4.998 16.000 5.009 18.653 L 5.020 21.306 5.141 21.503 C 5.543 22.156,6.457 22.156,6.859 21.503 L 6.980 21.306 6.991 18.653 L 7.002 16.000 7.351 16.000 C 7.635 15.999,7.738 15.981,7.900 15.905 C 8.281 15.724,8.488 15.405,8.488 15.000 C 8.488 14.615,8.293 14.297,7.940 14.106 C 7.784 14.022,7.740 14.020,6.060 14.013 C 5.114 14.009,4.295 14.019,4.240 14.037 M10.477 14.073 C 9.806 14.249,9.238 14.823,9.060 15.508 C 8.976 15.828,8.976 17.172,9.060 17.492 C 9.153 17.852,9.310 18.118,9.596 18.404 C 10.073 18.881,10.426 19.000,11.368 19.000 L 12.000 19.000 12.000 19.500 L 12.000 20.000 11.483 20.000 L 10.966 20.000 10.923 19.869 C 10.868 19.701,10.632 19.458,10.423 19.351 C 10.199 19.237,9.801 19.237,9.577 19.351 C 9.086 19.602,8.904 20.077,9.063 20.693 C 9.143 21.001,9.281 21.237,9.522 21.478 C 9.967 21.923,10.245 22.000,11.407 22.000 C 12.598 22.000,12.898 21.910,13.404 21.404 C 13.895 20.913,14.000 20.579,13.999 19.514 C 13.999 18.459,13.903 18.124,13.465 17.653 C 12.998 17.150,12.590 17.006,11.630 17.002 L 11.000 17.000 11.000 16.500 L 11.000 16.000 11.517 16.000 L 12.034 16.000 12.077 16.131 C 12.132 16.297,12.366 16.540,12.577 16.652 C 12.802 16.770,13.198 16.770,13.423 16.652 C 13.917 16.391,14.096 15.923,13.937 15.307 C 13.772 14.673,13.224 14.162,12.581 14.044 C 12.192 13.972,10.790 13.992,10.477 14.073 M15.650 14.066 C 15.171 14.236,14.882 14.844,15.054 15.320 C 15.082 15.397,15.486 16.032,15.953 16.730 L 16.801 18.000 15.953 19.270 C 15.486 19.968,15.082 20.603,15.054 20.680 C 14.900 21.106,15.096 21.625,15.499 21.862 C 15.836 22.059,16.299 22.028,16.616 21.786 C 16.685 21.733,17.018 21.274,17.356 20.765 C 17.695 20.256,17.985 19.840,18.000 19.840 C 18.015 19.840,18.305 20.256,18.644 20.765 C 18.982 21.274,19.315 21.733,19.384 21.786 C 19.701 22.028,20.164 22.059,20.501 21.862 C 20.907 21.624,21.096 21.123,20.943 20.690 C 20.912 20.601,20.507 19.960,20.043 19.265 L 19.199 18.000 20.043 16.735 C 20.507 16.040,20.912 15.399,20.943 15.310 C 21.211 14.551,20.442 13.791,19.678 14.061 C 19.583 14.094,19.450 14.164,19.382 14.216 C 19.315 14.267,18.982 14.726,18.644 15.235 C 18.305 15.744,18.015 16.160,18.000 16.160 C 17.985 16.160,17.695 15.744,17.356 15.235 C 17.018 14.726,16.685 14.267,16.618 14.216 C 16.346 14.008,15.976 13.951,15.650 14.066 " stroke="none" fill-rule="evenodd" fill="black"></path></svg>