<svg xmlns="http://www.w3.org/2000/svg" width="24" height="24" viewBox="0 0 24 24" fill="none" stroke="currentColor" stroke-width="2" stroke-linecap="round" stroke-linejoin="round"><path d="M7.499 2.043 C 6.383 2.230,5.461 3.048,5.114 4.160 C 5.021 4.457,5.020 4.478,5.020 6.383 L 5.020 8.306 5.141 8.503 C 5.543 9.156,6.457 9.156,6.859 8.503 L 6.980 8.306 7.000 6.523 C 7.022 4.523,7.014 4.582,7.321 4.283 C 7.622 3.992,7.514 4.000,10.947 4.000 L 14.000 4.000 14.000 5.618 C 14.000 6.649,14.016 7.313,14.044 7.448 C 14.189 8.140,14.857 8.807,15.552 8.955 C 15.689 8.984,16.335 9.000,17.382 9.000 L 19.000 9.000 19.000 14.054 C 19.000 18.220,18.990 19.139,18.945 19.290 C 18.872 19.533,18.707 19.740,18.484 19.872 L 18.300 19.980 13.000 19.980 L 7.700 19.980 7.516 19.872 C 7.415 19.813,7.284 19.700,7.225 19.623 C 6.998 19.325,7.000 19.354,7.000 16.786 L 7.000 14.423 7.710 15.127 C 8.101 15.514,8.481 15.861,8.555 15.899 C 9.008 16.128,9.601 15.944,9.867 15.492 C 9.964 15.327,9.980 15.258,9.979 15.000 C 9.979 14.788,9.957 14.659,9.905 14.560 C 9.865 14.483,9.109 13.694,8.226 12.806 C 6.472 11.043,6.420 11.001,6.000 11.001 C 5.580 11.001,5.528 11.043,3.774 12.806 C 2.891 13.694,2.135 14.483,2.095 14.560 C 2.043 14.659,2.021 14.788,2.021 15.000 C 2.020 15.258,2.036 15.327,2.133 15.492 C 2.263 15.714,2.502 15.901,2.736 15.965 C 2.939 16.019,3.267 15.989,3.445 15.899 C 3.519 15.861,3.899 15.515,4.288 15.129 L 4.996 14.427 5.009 17.003 C 5.022 19.578,5.022 19.580,5.115 19.860 C 5.444 20.848,6.184 21.582,7.160 21.886 L 7.460 21.980 13.000 21.980 L 18.540 21.980 18.840 21.886 C 19.816 21.582,20.554 20.851,20.886 19.860 L 20.980 19.580 20.991 13.700 C 21.002 8.317,20.997 7.805,20.936 7.640 C 20.881 7.488,20.455 7.043,18.245 4.826 C 16.152 2.726,15.579 2.172,15.420 2.096 L 15.220 2.001 11.460 2.005 C 9.392 2.007,7.609 2.025,7.499 2.043 M16.800 6.220 L 17.579 7.000 16.790 7.000 L 16.000 7.000 16.000 6.220 C 16.000 5.791,16.005 5.440,16.010 5.440 C 16.016 5.440,16.371 5.791,16.800 6.220 " stroke="none" fill-rule="evenodd" fill="black"></path></svg>