<svg xmlns="http://www.w3.org/2000/svg" width="24" height="24" viewBox="0 0 24 24" fill="none" stroke="currentColor" stroke-width="2" stroke-linecap="round" stroke-linejoin="round"><path d="M6.499 2.043 C 5.383 2.230,4.461 3.048,4.114 4.160 L 4.020 4.460 4.020 8.383 L 4.020 12.306 4.141 12.503 C 4.543 13.156,5.457 13.156,5.859 12.503 L 5.980 12.306 6.000 8.523 C 6.022 4.284,5.999 4.596,6.321 4.283 C 6.622 3.992,6.514 4.000,9.947 4.000 L 13.000 4.000 13.000 5.632 C 13.000 7.399,13.010 7.507,13.225 7.930 C 13.361 8.199,13.801 8.639,14.070 8.775 C 14.493 8.989,14.601 9.000,16.367 9.000 L 17.997 9.000 18.008 10.653 L 18.020 12.306 18.141 12.503 C 18.543 13.156,19.457 13.156,19.859 12.503 L 19.980 12.306 19.991 10.063 C 20.002 8.056,19.996 7.801,19.937 7.640 C 19.881 7.489,19.452 7.041,17.245 4.826 C 15.152 2.726,14.579 2.172,14.420 2.096 L 14.220 2.001 10.460 2.005 C 8.392 2.007,6.609 2.025,6.499 2.043 M15.800 6.220 L 16.579 7.000 15.790 7.000 L 15.000 7.000 15.000 6.220 C 15.000 5.791,15.005 5.440,15.010 5.440 C 15.016 5.440,15.371 5.791,15.800 6.220 M3.695 14.057 C 3.466 14.129,3.256 14.299,3.128 14.516 L 3.020 14.700 3.009 17.912 C 3.002 20.005,3.012 21.177,3.039 21.276 C 3.099 21.498,3.290 21.739,3.508 21.867 L 3.700 21.980 4.860 21.980 L 6.020 21.980 6.320 21.869 C 7.041 21.604,7.606 21.039,7.867 20.320 C 7.965 20.051,7.976 19.966,7.976 19.500 C 7.976 19.035,7.965 18.949,7.868 18.684 C 7.809 18.521,7.705 18.301,7.636 18.194 L 7.512 18.000 7.636 17.806 C 7.705 17.699,7.809 17.479,7.868 17.316 C 7.965 17.051,7.976 16.965,7.976 16.500 C 7.976 16.035,7.965 15.948,7.868 15.680 C 7.732 15.306,7.458 14.898,7.165 14.636 C 6.887 14.387,6.390 14.137,6.020 14.060 C 5.650 13.982,3.940 13.980,3.695 14.057 M9.695 14.055 C 9.464 14.130,9.255 14.300,9.128 14.516 L 9.020 14.700 9.020 18.003 L 9.020 21.306 9.141 21.503 C 9.543 22.156,10.457 22.156,10.859 21.503 L 10.980 21.306 11.000 19.546 L 11.020 17.786 11.316 18.143 C 11.900 18.846,12.035 18.949,12.425 18.989 C 12.670 19.014,12.930 18.934,13.120 18.774 C 13.185 18.720,13.404 18.475,13.609 18.230 L 13.980 17.784 14.000 19.545 L 14.020 21.306 14.141 21.503 C 14.543 22.156,15.457 22.156,15.859 21.503 L 15.980 21.306 15.992 18.103 C 16.000 15.727,15.991 14.856,15.956 14.728 C 15.889 14.487,15.716 14.265,15.492 14.133 C 15.331 14.038,15.255 14.020,15.020 14.020 C 14.530 14.020,14.489 14.053,13.476 15.273 C 12.988 15.860,12.569 16.362,12.544 16.390 C 12.509 16.428,12.286 16.184,11.574 15.329 C 10.816 14.419,10.616 14.202,10.465 14.127 C 10.237 14.013,9.915 13.983,9.695 14.055 M17.695 14.057 C 17.466 14.129,17.256 14.299,17.128 14.516 L 17.020 14.700 17.020 18.003 L 17.020 21.306 17.141 21.503 C 17.543 22.156,18.457 22.156,18.859 21.503 L 18.980 21.307 18.992 20.158 L 19.004 19.010 19.512 18.991 C 19.925 18.975,20.076 18.951,20.320 18.865 C 21.031 18.614,21.605 18.041,21.867 17.320 C 21.965 17.051,21.976 16.966,21.976 16.500 C 21.976 16.035,21.965 15.948,21.868 15.680 C 21.732 15.306,21.458 14.898,21.165 14.636 C 20.887 14.387,20.390 14.137,20.020 14.060 C 19.650 13.982,17.940 13.980,17.695 14.057 M5.748 16.078 C 6.076 16.278,6.076 16.722,5.748 16.922 C 5.650 16.981,5.547 17.000,5.310 17.000 L 5.000 17.000 5.000 16.500 L 5.000 16.000 5.310 16.000 C 5.547 16.000,5.650 16.019,5.748 16.078 M19.748 16.078 C 19.893 16.167,20.000 16.346,20.000 16.500 C 20.000 16.654,19.893 16.833,19.748 16.922 C 19.650 16.981,19.547 17.000,19.310 17.000 L 19.000 17.000 19.000 16.500 L 19.000 16.000 19.310 16.000 C 19.547 16.000,19.650 16.019,19.748 16.078 M5.748 19.078 C 6.076 19.278,6.076 19.722,5.748 19.922 C 5.650 19.981,5.547 20.000,5.310 20.000 L 5.000 20.000 5.000 19.500 L 5.000 19.000 5.310 19.000 C 5.547 19.000,5.650 19.019,5.748 19.078 " stroke="none" fill-rule="evenodd" fill="black"></path></svg>