<svg xmlns="http://www.w3.org/2000/svg" width="24" height="24" viewBox="0 0 24 24" fill="none" stroke="currentColor" stroke-width="2" stroke-linecap="round" stroke-linejoin="round"><path d="M6.499 2.043 C 5.383 2.230,4.461 3.048,4.114 4.160 L 4.020 4.460 4.020 12.000 L 4.020 19.540 4.114 19.840 C 4.422 20.827,5.173 21.578,6.160 21.886 L 6.460 21.980 12.000 21.980 L 17.540 21.980 17.840 21.886 C 18.816 21.582,19.554 20.851,19.886 19.860 L 19.980 19.580 19.991 13.700 C 20.002 8.317,19.997 7.805,19.936 7.640 C 19.881 7.488,19.455 7.043,17.245 4.826 C 15.152 2.726,14.579 2.172,14.420 2.096 L 14.220 2.001 10.460 2.005 C 8.392 2.007,6.609 2.025,6.499 2.043 M13.000 5.632 C 13.000 7.399,13.010 7.507,13.225 7.930 C 13.361 8.199,13.801 8.639,14.070 8.775 C 14.493 8.990,14.601 9.000,16.368 9.000 L 18.000 9.000 18.000 14.054 C 18.000 18.220,17.990 19.139,17.945 19.290 C 17.872 19.533,17.707 19.740,17.484 19.872 L 17.300 19.980 12.000 19.980 L 6.700 19.980 6.516 19.872 C 6.415 19.813,6.284 19.700,6.225 19.623 C 5.986 19.309,6.000 19.795,6.000 12.022 C 6.000 4.005,5.975 4.631,6.304 4.303 C 6.613 3.994,6.464 4.006,9.930 4.003 L 13.000 4.000 13.000 5.632 M15.800 6.220 L 16.579 7.000 15.790 7.000 L 15.000 7.000 15.000 6.220 C 15.000 5.791,15.005 5.440,15.010 5.440 C 15.016 5.440,15.371 5.791,15.800 6.220 M9.670 11.055 C 9.446 11.138,9.255 11.300,9.131 11.511 C 9.036 11.673,9.020 11.743,9.021 12.000 C 9.021 12.200,9.043 12.340,9.087 12.420 C 9.123 12.486,9.504 12.980,9.934 13.518 C 10.402 14.103,10.704 14.513,10.684 14.538 C 10.667 14.561,10.324 14.990,9.924 15.492 C 9.523 15.994,9.159 16.465,9.115 16.540 C 9.014 16.710,8.977 17.049,9.035 17.264 C 9.099 17.498,9.286 17.737,9.508 17.867 C 9.673 17.964,9.743 17.980,10.000 17.980 C 10.466 17.980,10.537 17.925,11.311 16.960 C 11.673 16.509,11.983 16.140,12.000 16.140 C 12.017 16.140,12.327 16.509,12.689 16.960 C 13.404 17.852,13.518 17.949,13.891 17.987 C 14.447 18.044,14.931 17.656,14.988 17.107 C 15.028 16.722,14.957 16.597,14.097 15.521 C 13.666 14.982,13.307 14.531,13.299 14.518 C 13.291 14.505,13.643 14.046,14.082 13.497 C 14.958 12.402,15.028 12.279,14.988 11.893 C 14.932 11.350,14.441 10.951,13.905 11.014 C 13.503 11.062,13.408 11.142,12.692 12.035 C 12.329 12.489,12.017 12.860,12.000 12.860 C 11.983 12.860,11.671 12.489,11.308 12.035 C 10.760 11.352,10.616 11.195,10.463 11.121 C 10.232 11.010,9.872 10.979,9.670 11.055 " stroke="none" fill-rule="evenodd" fill="black"></path></svg>