<svg xmlns="http://www.w3.org/2000/svg" width="24" height="24" viewBox="0 0 24 24" fill="none" stroke="currentColor" stroke-width="2" stroke-linecap="round" stroke-linejoin="round"><path d="M6.499 2.043 C 5.383 2.230,4.461 3.048,4.114 4.160 L 4.020 4.460 4.020 8.383 L 4.020 12.306 4.141 12.503 C 4.543 13.156,5.457 13.156,5.859 12.503 L 5.980 12.306 6.000 8.523 C 6.022 4.284,5.999 4.596,6.321 4.283 C 6.622 3.992,6.514 4.000,9.947 4.000 L 13.000 4.000 13.000 5.632 C 13.000 7.399,13.010 7.507,13.225 7.930 C 13.361 8.199,13.801 8.639,14.070 8.775 C 14.493 8.989,14.601 9.000,16.367 9.000 L 17.997 9.000 18.008 10.653 L 18.020 12.306 18.141 12.503 C 18.543 13.156,19.457 13.156,19.859 12.503 L 19.980 12.306 19.991 10.063 C 20.002 8.056,19.996 7.801,19.937 7.640 C 19.881 7.489,19.452 7.041,17.245 4.826 C 15.152 2.726,14.579 2.172,14.420 2.096 L 14.220 2.001 10.460 2.005 C 8.392 2.007,6.609 2.025,6.499 2.043 M15.800 6.220 L 16.579 7.000 15.790 7.000 L 15.000 7.000 15.000 6.220 C 15.000 5.791,15.005 5.440,15.010 5.440 C 15.016 5.440,15.371 5.791,15.800 6.220 M3.650 14.066 C 3.171 14.236,2.882 14.844,3.054 15.320 C 3.082 15.397,3.486 16.032,3.953 16.730 L 4.801 18.000 3.953 19.270 C 3.486 19.968,3.082 20.603,3.054 20.680 C 2.900 21.106,3.096 21.625,3.499 21.862 C 3.836 22.059,4.299 22.028,4.616 21.786 C 4.685 21.733,5.018 21.274,5.356 20.765 C 5.695 20.256,5.985 19.840,6.000 19.840 C 6.015 19.840,6.305 20.256,6.644 20.765 C 6.982 21.274,7.315 21.733,7.384 21.786 C 7.701 22.028,8.164 22.059,8.501 21.862 C 8.907 21.624,9.096 21.123,8.943 20.690 C 8.912 20.601,8.507 19.960,8.043 19.265 L 7.199 18.000 8.043 16.735 C 8.507 16.040,8.912 15.399,8.943 15.310 C 9.211 14.551,8.442 13.791,7.678 14.061 C 7.583 14.094,7.450 14.164,7.382 14.216 C 7.315 14.267,6.982 14.726,6.644 15.235 C 6.305 15.744,6.015 16.160,6.000 16.160 C 5.985 16.160,5.695 15.744,5.356 15.235 C 5.018 14.726,4.685 14.267,4.618 14.216 C 4.346 14.008,3.976 13.951,3.650 14.066 M10.695 14.057 C 10.466 14.129,10.256 14.299,10.128 14.516 L 10.020 14.700 10.009 17.912 C 10.002 20.005,10.012 21.177,10.039 21.276 C 10.099 21.498,10.290 21.739,10.508 21.867 L 10.700 21.980 12.410 21.992 C 13.502 21.999,14.175 21.988,14.274 21.962 C 14.498 21.901,14.738 21.711,14.867 21.492 C 14.964 21.327,14.980 21.257,14.980 21.000 C 14.980 20.746,14.963 20.672,14.872 20.516 C 14.813 20.415,14.698 20.282,14.618 20.221 C 14.356 20.022,14.203 20.000,13.055 20.000 L 12.002 20.000 11.991 17.350 L 11.980 14.700 11.872 14.516 C 11.628 14.101,11.150 13.915,10.695 14.057 M17.477 14.073 C 16.806 14.249,16.238 14.823,16.060 15.508 C 15.976 15.828,15.976 17.172,16.060 17.492 C 16.153 17.852,16.310 18.118,16.596 18.404 C 17.073 18.881,17.426 19.000,18.368 19.000 L 19.000 19.000 19.000 19.500 L 19.000 20.000 18.483 20.000 L 17.966 20.000 17.923 19.869 C 17.868 19.701,17.632 19.458,17.423 19.351 C 17.199 19.237,16.801 19.237,16.577 19.351 C 16.086 19.602,15.904 20.077,16.063 20.693 C 16.143 21.001,16.281 21.237,16.522 21.478 C 16.967 21.923,17.245 22.000,18.407 22.000 C 19.598 22.000,19.898 21.910,20.404 21.404 C 20.895 20.913,21.000 20.579,20.999 19.514 C 20.999 18.459,20.903 18.124,20.465 17.653 C 19.998 17.150,19.590 17.006,18.630 17.002 L 18.000 17.000 18.000 16.500 L 18.000 16.000 18.517 16.000 L 19.034 16.000 19.077 16.131 C 19.132 16.297,19.366 16.540,19.577 16.652 C 19.802 16.770,20.198 16.770,20.423 16.652 C 20.917 16.391,21.096 15.923,20.937 15.307 C 20.772 14.673,20.224 14.162,19.581 14.044 C 19.192 13.972,17.790 13.992,17.477 14.073 " stroke="none" fill-rule="evenodd" fill="black"></path></svg>