<svg xmlns="http://www.w3.org/2000/svg" width="24" height="24" viewBox="0 0 24 24" fill="none" stroke="currentColor" stroke-width="2" stroke-linecap="round" stroke-linejoin="round"><path d="M3.695 3.057 C 3.466 3.129,3.256 3.299,3.128 3.516 L 3.020 3.700 3.008 5.098 C 2.998 6.263,3.007 6.550,3.061 6.816 C 3.145 7.230,3.272 7.538,3.496 7.871 C 3.596 8.019,4.650 9.208,5.839 10.514 L 8.000 12.888 8.000 17.017 C 8.000 21.661,7.982 21.384,8.299 21.701 C 8.483 21.885,8.759 22.000,9.017 22.000 C 9.116 22.000,9.609 21.856,10.280 21.631 C 11.373 21.265,11.381 21.261,11.581 21.061 C 11.800 20.843,11.881 20.649,11.878 20.355 C 11.873 19.808,11.449 19.389,10.901 19.390 C 10.701 19.391,10.363 19.469,10.056 19.587 C 10.010 19.605,10.000 19.012,9.991 15.914 C 9.980 12.220,9.980 12.220,9.894 12.060 C 9.847 11.972,8.770 10.758,7.501 9.363 C 6.232 7.968,5.155 6.753,5.107 6.663 C 5.028 6.515,5.019 6.430,5.007 5.750 L 4.994 5.000 12.000 5.000 L 19.006 5.000 18.993 5.730 C 18.982 6.346,18.968 6.482,18.906 6.600 C 18.865 6.677,17.989 7.586,16.958 8.620 C 14.956 10.629,14.923 10.668,14.921 11.055 C 14.919 11.371,14.997 11.560,15.219 11.781 C 15.440 12.003,15.628 12.080,15.947 12.080 C 16.336 12.080,16.392 12.032,18.481 9.931 C 20.482 7.918,20.569 7.818,20.787 7.278 C 20.985 6.787,21.005 6.580,20.992 5.083 L 20.980 3.700 20.872 3.516 C 20.740 3.293,20.533 3.128,20.290 3.055 C 20.027 2.976,3.947 2.978,3.695 3.057 M15.699 14.037 C 14.670 14.202,13.737 14.905,13.305 15.840 C 13.072 16.345,13.021 16.592,13.024 17.200 C 13.026 17.692,13.037 17.773,13.149 18.111 C 13.392 18.843,13.413 18.869,15.473 20.912 C 16.500 21.930,17.421 22.812,17.520 22.872 C 17.673 22.964,17.745 22.980,18.000 22.980 C 18.254 22.980,18.327 22.964,18.480 22.873 C 18.579 22.814,19.509 21.923,20.547 20.893 C 22.582 18.874,22.591 18.863,22.818 18.213 C 23.020 17.636,23.050 16.947,22.900 16.380 C 22.746 15.802,22.353 15.189,21.871 14.775 C 20.903 13.943,19.453 13.773,18.325 14.360 L 18.013 14.522 17.697 14.363 C 17.245 14.135,16.862 14.039,16.340 14.020 C 16.098 14.012,15.810 14.019,15.699 14.037 M16.756 16.138 C 16.867 16.194,17.072 16.348,17.213 16.480 C 17.512 16.759,17.693 16.846,17.980 16.849 C 18.293 16.851,18.459 16.777,18.773 16.492 C 19.235 16.074,19.562 15.956,20.020 16.041 C 20.841 16.193,21.259 17.127,20.806 17.797 C 20.748 17.883,20.101 18.542,19.368 19.262 C 18.242 20.369,18.025 20.565,17.961 20.535 C 17.919 20.516,17.278 19.898,16.537 19.163 C 15.024 17.661,15.020 17.657,15.023 17.160 C 15.025 16.915,15.045 16.822,15.133 16.651 C 15.292 16.341,15.584 16.126,15.980 16.025 C 16.158 15.979,16.559 16.038,16.756 16.138 " stroke="none" fill-rule="evenodd" fill="black"></path></svg>