<svg xmlns="http://www.w3.org/2000/svg" width="24" height="24" viewBox="0 0 24 24" fill="none" stroke="currentColor" stroke-width="2" stroke-linecap="round" stroke-linejoin="round"><path d="M3.695 3.057 C 3.466 3.129,3.256 3.299,3.128 3.516 L 3.020 3.700 3.008 5.098 C 2.998 6.263,3.007 6.550,3.061 6.816 C 3.145 7.230,3.272 7.538,3.496 7.871 C 3.596 8.019,4.650 9.208,5.839 10.514 L 8.000 12.888 8.000 17.017 C 8.000 21.661,7.982 21.384,8.299 21.701 C 8.482 21.884,8.759 22.000,9.015 22.000 C 9.175 22.000,13.148 20.706,13.443 20.558 C 13.666 20.445,13.868 20.193,13.944 19.932 C 14.120 19.328,13.695 18.728,13.062 18.687 C 12.831 18.673,12.713 18.704,11.456 19.121 C 10.710 19.369,10.078 19.579,10.051 19.590 C 10.012 19.604,9.999 18.816,9.991 15.914 C 9.980 12.220,9.980 12.220,9.894 12.060 C 9.847 11.972,8.770 10.758,7.501 9.363 C 6.232 7.968,5.155 6.753,5.107 6.663 C 5.028 6.515,5.019 6.430,5.007 5.750 L 4.994 5.000 12.000 5.000 L 19.006 5.000 18.993 5.730 C 18.982 6.347,18.969 6.482,18.906 6.600 C 18.865 6.677,17.774 7.802,16.481 9.100 C 14.306 11.283,14.125 11.475,14.063 11.665 C 14.005 11.846,13.998 12.074,14.008 13.588 L 14.020 15.306 14.141 15.503 C 14.543 16.156,15.457 16.156,15.859 15.503 L 15.980 15.306 15.992 13.863 L 16.004 12.420 18.212 10.200 C 20.495 7.905,20.567 7.824,20.787 7.278 C 20.985 6.787,21.005 6.580,20.992 5.083 L 20.980 3.700 20.872 3.516 C 20.740 3.293,20.533 3.128,20.290 3.055 C 20.027 2.976,3.947 2.978,3.695 3.057 M18.668 15.061 C 18.585 15.092,18.462 15.156,18.395 15.203 C 18.260 15.300,16.136 18.454,16.054 18.680 C 15.893 19.127,16.117 19.673,16.550 19.886 C 16.733 19.977,16.784 19.981,17.930 20.000 L 19.120 20.020 18.600 20.800 C 17.971 21.741,17.914 21.905,18.061 22.322 C 18.284 22.955,18.992 23.187,19.570 22.815 C 19.686 22.741,19.972 22.342,20.805 21.093 C 21.401 20.198,21.917 19.387,21.950 19.289 C 22.074 18.926,21.931 18.460,21.625 18.226 C 21.365 18.028,21.326 18.023,20.070 18.001 L 18.880 17.980 19.383 17.225 C 19.660 16.810,19.912 16.399,19.943 16.310 C 20.212 15.550,19.428 14.782,18.668 15.061 " stroke="none" fill-rule="evenodd" fill="black"></path></svg>