<svg xmlns="http://www.w3.org/2000/svg" width="24" height="24" viewBox="0 0 24 24" fill="none" stroke="currentColor" stroke-width="2" stroke-linecap="round" stroke-linejoin="round"><path d="M3.695 3.057 C 3.466 3.129,3.256 3.299,3.128 3.516 L 3.020 3.700 3.008 5.098 C 2.998 6.263,3.007 6.550,3.061 6.816 C 3.145 7.230,3.272 7.538,3.496 7.871 C 3.596 8.019,4.650 9.208,5.839 10.514 L 8.000 12.888 8.000 17.017 C 8.000 21.661,7.982 21.384,8.299 21.701 C 8.482 21.884,8.759 22.000,9.013 22.000 C 9.249 22.000,11.312 21.306,11.548 21.148 C 12.180 20.722,12.058 19.723,11.338 19.422 C 11.072 19.311,10.626 19.368,10.054 19.588 C 10.011 19.604,10.000 18.927,9.991 15.914 C 9.980 12.220,9.980 12.220,9.894 12.060 C 9.847 11.972,8.770 10.758,7.501 9.363 C 6.232 7.968,5.155 6.753,5.107 6.663 C 5.028 6.515,5.019 6.430,5.007 5.750 L 4.994 5.000 12.000 5.000 L 19.006 5.000 18.993 5.730 C 18.982 6.347,18.969 6.482,18.906 6.600 C 18.865 6.677,17.774 7.802,16.481 9.100 C 14.356 11.234,14.124 11.479,14.065 11.657 C 14.012 11.817,14.000 12.030,14.000 12.777 C 14.001 13.664,14.004 13.708,14.095 13.900 C 14.276 14.281,14.595 14.488,15.000 14.488 C 15.405 14.488,15.724 14.281,15.905 13.900 C 15.992 13.716,15.999 13.650,16.000 13.061 L 16.000 12.423 18.210 10.201 C 20.495 7.905,20.567 7.824,20.787 7.278 C 20.985 6.787,21.005 6.580,20.992 5.083 L 20.980 3.700 20.872 3.516 C 20.740 3.293,20.533 3.128,20.290 3.055 C 20.027 2.976,3.947 2.978,3.695 3.057 M19.351 14.039 C 18.895 14.122,18.443 14.323,18.060 14.613 C 17.928 14.713,16.989 15.620,15.974 16.627 C 14.261 18.327,14.122 18.475,14.062 18.665 C 14.005 18.844,13.998 19.090,14.008 20.585 L 14.020 22.300 14.131 22.489 C 14.192 22.592,14.304 22.725,14.381 22.783 C 14.655 22.992,14.694 22.996,16.483 22.998 C 17.902 23.000,18.175 22.991,18.343 22.936 C 18.522 22.878,18.710 22.701,20.372 21.026 C 21.380 20.011,22.287 19.072,22.387 18.940 C 22.775 18.428,22.957 17.919,22.989 17.258 C 23.036 16.280,22.720 15.505,21.996 14.824 C 21.652 14.500,21.154 14.216,20.720 14.097 C 20.460 14.025,19.620 13.989,19.351 14.039 M20.385 16.112 C 20.594 16.219,20.778 16.402,20.891 16.615 C 21.016 16.850,21.016 17.350,20.891 17.586 C 20.840 17.682,20.129 18.433,19.197 19.376 L 17.591 21.000 16.795 21.000 L 16.000 21.000 16.000 20.205 L 16.000 19.410 17.602 17.825 C 18.483 16.953,19.248 16.211,19.302 16.175 C 19.599 15.980,20.073 15.953,20.385 16.112 " stroke="none" fill-rule="evenodd" fill="black"></path></svg>