<svg xmlns="http://www.w3.org/2000/svg" width="24" height="24" viewBox="0 0 24 24" fill="none" stroke="currentColor" stroke-width="2" stroke-linecap="round" stroke-linejoin="round"><path d="M3.695 3.057 C 3.466 3.129,3.256 3.299,3.128 3.516 L 3.020 3.700 3.008 5.098 C 2.998 6.263,3.007 6.550,3.061 6.816 C 3.145 7.230,3.272 7.538,3.496 7.871 C 3.596 8.019,4.650 9.208,5.839 10.514 L 8.000 12.888 8.000 17.017 C 8.000 21.661,7.982 21.384,8.299 21.701 C 8.482 21.884,8.759 22.000,9.015 22.000 C 9.260 22.000,13.586 20.550,13.828 20.387 C 14.460 19.962,14.338 18.962,13.618 18.662 C 13.303 18.530,13.128 18.566,11.563 19.086 C 10.758 19.353,10.078 19.580,10.051 19.590 C 10.012 19.604,9.999 18.816,9.991 15.914 C 9.980 12.220,9.980 12.220,9.894 12.060 C 9.847 11.972,8.770 10.758,7.501 9.363 C 6.232 7.968,5.155 6.753,5.107 6.663 C 5.028 6.515,5.019 6.430,5.007 5.750 L 4.994 5.000 12.000 5.000 L 19.006 5.000 18.993 5.730 C 18.982 6.346,18.968 6.482,18.906 6.600 C 18.865 6.677,17.783 7.793,16.500 9.080 C 15.218 10.367,14.138 11.481,14.101 11.555 C 13.872 12.010,14.056 12.601,14.508 12.867 C 14.673 12.964,14.743 12.980,15.000 12.980 C 15.254 12.980,15.328 12.963,15.480 12.873 C 15.582 12.812,16.690 11.731,18.040 10.373 C 20.503 7.897,20.565 7.827,20.787 7.278 C 20.985 6.787,21.005 6.580,20.992 5.083 L 20.980 3.700 20.872 3.516 C 20.740 3.293,20.533 3.128,20.290 3.055 C 20.027 2.976,3.947 2.978,3.695 3.057 M18.695 13.057 C 18.342 13.168,18.095 13.451,18.019 13.835 L 17.976 14.050 17.757 14.118 C 17.003 14.351,16.361 14.980,16.118 15.722 C 16.034 15.976,16.020 16.094,16.022 16.520 C 16.024 16.960,16.038 17.056,16.133 17.320 C 16.394 18.039,16.964 18.609,17.680 18.867 C 17.961 18.968,18.033 18.976,18.800 18.992 C 19.702 19.010,19.786 19.030,19.922 19.252 C 20.021 19.415,20.021 19.585,19.922 19.748 C 19.770 19.996,19.746 20.000,18.248 20.000 C 16.774 20.000,16.653 20.014,16.382 20.221 C 16.302 20.282,16.187 20.415,16.128 20.516 C 16.037 20.672,16.020 20.746,16.020 21.000 C 16.020 21.256,16.036 21.328,16.131 21.489 C 16.256 21.702,16.449 21.864,16.670 21.943 C 16.768 21.978,17.022 21.997,17.405 21.998 L 17.991 22.000 18.018 22.179 C 18.054 22.422,18.258 22.712,18.497 22.859 C 18.671 22.966,18.729 22.980,19.000 22.980 C 19.271 22.980,19.329 22.966,19.503 22.859 C 19.752 22.706,19.949 22.419,19.984 22.160 L 20.010 21.966 20.294 21.873 C 21.001 21.642,21.605 21.046,21.868 20.320 C 21.965 20.052,21.976 19.965,21.976 19.500 C 21.976 19.035,21.965 18.948,21.868 18.680 C 21.646 18.068,21.195 17.561,20.620 17.277 C 20.172 17.055,19.869 17.002,19.068 17.001 C 18.319 17.000,18.216 16.974,18.078 16.748 C 17.932 16.508,18.023 16.193,18.276 16.062 C 18.377 16.010,18.612 16.000,19.788 15.998 C 21.285 15.996,21.350 15.989,21.619 15.783 C 21.696 15.725,21.808 15.592,21.869 15.489 C 21.964 15.328,21.980 15.256,21.980 15.000 C 21.980 14.746,21.963 14.672,21.872 14.516 C 21.634 14.111,21.351 14.000,20.559 14.000 L 20.010 14.000 19.983 13.830 C 19.926 13.473,19.648 13.163,19.290 13.055 C 19.068 12.988,18.913 12.989,18.695 13.057 " stroke="none" fill-rule="evenodd" fill="black"></path></svg>