<svg xmlns="http://www.w3.org/2000/svg" width="24" height="24" viewBox="0 0 24 24" fill="none" stroke="currentColor" stroke-width="2" stroke-linecap="round" stroke-linejoin="round"><path d="M3.695 3.057 C 3.466 3.129,3.256 3.299,3.128 3.516 L 3.020 3.700 3.008 5.098 C 2.998 6.263,3.007 6.550,3.061 6.816 C 3.145 7.230,3.272 7.538,3.496 7.871 C 3.596 8.019,4.650 9.208,5.839 10.514 L 8.000 12.888 8.000 17.017 C 8.000 21.661,7.982 21.384,8.299 21.701 C 8.483 21.885,8.759 22.000,9.016 22.000 C 9.122 22.000,10.276 21.634,12.312 20.955 C 15.724 19.818,15.686 19.834,15.874 19.469 C 16.209 18.816,15.806 18.088,15.066 18.012 C 14.869 17.992,14.681 18.047,12.477 18.781 C 11.170 19.216,10.078 19.580,10.051 19.590 C 10.012 19.604,9.999 18.816,9.991 15.914 C 9.980 12.220,9.980 12.220,9.894 12.060 C 9.847 11.972,8.770 10.758,7.501 9.363 C 6.232 7.968,5.155 6.753,5.107 6.663 C 5.028 6.515,5.019 6.430,5.007 5.750 L 4.994 5.000 12.000 5.000 L 19.006 5.000 18.993 5.730 C 18.982 6.346,18.968 6.482,18.906 6.600 C 18.865 6.677,17.783 7.793,16.500 9.080 C 15.218 10.367,14.138 11.481,14.101 11.555 C 13.872 12.010,14.056 12.601,14.508 12.867 C 14.673 12.964,14.743 12.980,15.000 12.980 C 15.254 12.980,15.328 12.963,15.480 12.873 C 15.582 12.812,16.690 11.731,18.040 10.373 C 20.503 7.897,20.565 7.827,20.787 7.278 C 20.985 6.787,21.005 6.580,20.992 5.083 L 20.980 3.700 20.872 3.516 C 20.740 3.293,20.533 3.128,20.290 3.055 C 20.027 2.976,3.947 2.978,3.695 3.057 M18.440 14.058 C 17.838 14.187,17.375 14.431,16.957 14.839 C 16.601 15.186,16.510 15.362,16.510 15.700 C 16.510 16.008,16.633 16.278,16.855 16.455 C 17.079 16.633,17.247 16.694,17.514 16.691 C 17.804 16.689,18.001 16.601,18.255 16.362 C 18.613 16.027,18.899 15.941,19.284 16.054 C 19.720 16.182,19.978 16.533,19.979 17.000 C 19.980 17.218,19.960 17.295,19.856 17.479 C 19.701 17.752,19.434 17.946,19.169 17.979 C 18.764 18.029,18.565 18.088,18.405 18.205 C 17.835 18.625,17.886 19.502,18.501 19.863 C 18.958 20.131,19.923 19.974,20.622 19.519 C 20.911 19.331,21.369 18.866,21.553 18.575 C 21.851 18.102,22.030 17.365,21.987 16.788 C 21.893 15.520,21.004 14.438,19.780 14.102 C 19.448 14.010,18.765 13.988,18.440 14.058 M18.695 21.057 C 18.466 21.129,18.256 21.299,18.128 21.516 C 18.036 21.672,18.020 21.745,18.021 22.000 C 18.022 22.332,18.101 22.533,18.306 22.728 C 18.785 23.181,19.580 23.046,19.893 22.460 C 20.025 22.211,20.015 21.760,19.872 21.516 C 19.628 21.101,19.150 20.915,18.695 21.057 " stroke="none" fill-rule="evenodd" fill="black"></path></svg>