<svg xmlns="http://www.w3.org/2000/svg" width="24" height="24" viewBox="0 0 24 24" fill="none" stroke="currentColor" stroke-width="2" stroke-linecap="round" stroke-linejoin="round"><path d="M2.670 2.061 C 2.448 2.142,2.250 2.309,2.128 2.516 C 2.037 2.672,2.020 2.746,2.020 3.000 C 2.020 3.386,2.102 3.529,2.617 4.039 L 3.000 4.418 3.000 5.471 C 3.000 6.874,3.078 7.250,3.496 7.871 C 3.596 8.019,4.650 9.208,5.839 10.514 L 8.000 12.888 8.000 17.017 C 8.000 21.661,7.982 21.384,8.299 21.701 C 8.483 21.885,8.759 22.000,9.016 22.000 C 9.260 22.000,15.386 19.950,15.595 19.799 C 15.683 19.735,15.805 19.597,15.867 19.492 L 15.980 19.300 15.993 18.363 L 16.005 17.426 18.213 19.629 C 19.427 20.841,20.483 21.865,20.560 21.905 C 20.659 21.957,20.788 21.979,21.000 21.979 C 21.258 21.980,21.327 21.964,21.492 21.867 C 21.968 21.587,22.139 20.967,21.865 20.508 C 21.810 20.416,17.665 16.243,12.653 11.235 C 4.231 2.820,3.525 2.125,3.343 2.065 C 3.107 1.987,2.874 1.986,2.670 2.061 M7.695 3.057 C 7.466 3.129,7.256 3.299,7.128 3.516 C 7.037 3.672,7.020 3.746,7.020 4.000 C 7.020 4.256,7.036 4.328,7.131 4.489 C 7.256 4.702,7.449 4.864,7.670 4.943 C 7.792 4.987,8.845 4.997,13.413 4.998 L 19.006 5.000 18.993 5.730 C 18.981 6.390,18.971 6.475,18.893 6.620 C 18.844 6.709,17.921 7.662,16.800 8.780 C 15.697 9.880,14.744 10.852,14.682 10.940 C 14.279 11.517,14.617 12.347,15.305 12.469 C 15.570 12.516,15.858 12.460,16.055 12.322 C 16.146 12.259,17.165 11.256,18.320 10.094 C 20.489 7.911,20.568 7.821,20.787 7.278 C 20.985 6.787,21.005 6.580,20.992 5.083 L 20.980 3.700 20.872 3.516 C 20.740 3.293,20.533 3.128,20.290 3.055 C 20.028 2.976,7.947 2.978,7.695 3.057 M14.000 16.847 L 14.000 18.273 12.050 18.923 C 10.978 19.280,10.078 19.580,10.051 19.590 C 10.012 19.604,9.999 18.816,9.991 15.914 C 9.980 12.220,9.980 12.220,9.894 12.060 C 9.847 11.972,8.770 10.758,7.501 9.363 C 5.479 7.138,5.040 6.627,5.040 6.492 C 5.040 6.474,7.056 8.476,9.520 10.940 L 14.000 15.420 14.000 16.847 " stroke="none" fill-rule="evenodd" fill="black"></path></svg>