<svg xmlns="http://www.w3.org/2000/svg" width="24" height="24" viewBox="0 0 24 24" fill="none" stroke="currentColor" stroke-width="2" stroke-linecap="round" stroke-linejoin="round"><path d="M3.695 3.057 C 3.466 3.129,3.256 3.299,3.128 3.516 L 3.020 3.700 3.008 5.098 C 2.998 6.263,3.007 6.550,3.061 6.816 C 3.145 7.230,3.272 7.538,3.496 7.871 C 3.596 8.019,4.650 9.208,5.839 10.514 L 8.000 12.888 8.000 17.017 C 8.000 21.661,7.982 21.384,8.299 21.701 C 8.483 21.885,8.759 22.000,9.016 22.000 C 9.257 22.000,13.109 20.708,13.318 20.557 C 13.633 20.329,13.785 19.851,13.662 19.475 C 13.571 19.196,13.441 19.035,13.199 18.903 C 12.806 18.689,12.729 18.700,11.338 19.161 C 10.657 19.387,10.078 19.579,10.051 19.590 C 10.012 19.604,9.999 18.816,9.991 15.914 C 9.980 12.220,9.980 12.220,9.894 12.060 C 9.847 11.972,8.770 10.758,7.501 9.363 C 6.232 7.968,5.155 6.753,5.107 6.663 C 5.028 6.515,5.019 6.430,5.007 5.750 L 4.994 5.000 12.000 5.000 L 19.006 5.000 18.993 5.730 C 18.982 6.347,18.969 6.482,18.906 6.600 C 18.865 6.677,17.774 7.802,16.481 9.100 C 14.286 11.304,14.125 11.474,14.062 11.670 C 14.005 11.844,13.996 12.004,14.007 12.593 L 14.020 13.307 14.141 13.503 C 14.543 14.156,15.457 14.156,15.858 13.504 C 15.970 13.322,15.980 13.275,15.993 12.864 L 16.007 12.420 18.214 10.200 C 20.494 7.906,20.567 7.823,20.787 7.278 C 20.985 6.787,21.005 6.580,20.992 5.083 L 20.980 3.700 20.872 3.516 C 20.740 3.293,20.533 3.128,20.290 3.055 C 20.027 2.976,3.947 2.978,3.695 3.057 M16.240 16.037 C 15.794 16.173,15.512 16.546,15.512 17.000 C 15.512 17.405,15.719 17.724,16.100 17.905 C 16.296 17.997,16.324 17.999,17.439 18.000 L 18.579 18.000 16.874 19.710 C 15.936 20.651,15.138 21.481,15.101 21.555 C 14.872 22.010,15.056 22.601,15.508 22.867 C 15.673 22.964,15.742 22.980,16.000 22.979 C 16.212 22.979,16.341 22.957,16.440 22.905 C 16.517 22.865,17.350 22.064,18.290 21.126 L 20.000 19.421 20.000 20.561 C 20.001 21.676,20.003 21.704,20.095 21.900 C 20.276 22.281,20.595 22.488,21.000 22.488 C 21.405 22.488,21.724 22.281,21.905 21.900 L 21.999 21.700 21.999 19.240 L 21.999 16.780 21.905 16.580 C 21.791 16.340,21.642 16.193,21.400 16.083 C 21.225 16.004,21.152 16.002,18.780 16.004 C 17.438 16.006,16.295 16.021,16.240 16.037 " stroke="none" fill-rule="evenodd" fill="black"></path></svg>