<svg xmlns="http://www.w3.org/2000/svg" width="24" height="24" viewBox="0 0 24 24" fill="none" stroke="currentColor" stroke-width="2" stroke-linecap="round" stroke-linejoin="round"><path d="M5.499 3.043 C 4.383 3.230,3.461 4.048,3.114 5.160 C 3.023 5.451,3.020 5.503,3.020 6.883 L 3.020 8.306 3.141 8.503 C 3.543 9.156,4.457 9.156,4.859 8.503 L 4.980 8.307 5.000 7.023 C 5.023 5.581,5.025 5.571,5.321 5.283 C 5.592 5.021,5.716 5.000,7.037 4.998 C 8.266 4.996,8.356 4.984,8.619 4.783 C 8.696 4.725,8.808 4.592,8.869 4.489 C 8.964 4.328,8.980 4.256,8.980 4.000 C 8.980 3.746,8.963 3.672,8.872 3.516 C 8.813 3.415,8.698 3.282,8.618 3.221 C 8.350 3.016,8.216 3.000,6.904 3.005 C 6.242 3.007,5.609 3.025,5.499 3.043 M15.695 3.055 C 15.464 3.130,15.255 3.300,15.128 3.516 C 15.037 3.672,15.020 3.746,15.020 4.000 C 15.020 4.256,15.036 4.328,15.131 4.489 C 15.192 4.592,15.304 4.725,15.381 4.783 C 15.644 4.984,15.734 4.996,16.963 4.998 C 18.284 5.000,18.408 5.021,18.679 5.283 C 18.975 5.571,18.977 5.581,19.000 7.023 L 19.020 8.307 19.141 8.503 C 19.543 9.156,20.457 9.156,20.859 8.503 L 20.980 8.306 20.980 6.883 C 20.980 5.503,20.977 5.451,20.886 5.160 C 20.581 4.181,19.825 3.421,18.861 3.124 C 18.551 3.028,18.495 3.025,17.200 3.014 C 16.166 3.005,15.822 3.014,15.695 3.055 M11.358 7.061 C 9.725 7.316,8.421 8.580,8.079 10.241 C 7.959 10.826,7.980 11.241,8.144 11.508 C 8.539 12.150,9.458 12.154,9.851 11.515 C 9.943 11.366,9.972 11.258,10.001 10.955 C 10.047 10.473,10.122 10.230,10.314 9.937 C 11.046 8.822,12.562 8.679,13.454 9.642 C 13.839 10.057,13.998 10.495,13.999 11.142 C 14.002 12.171,14.311 13.494,14.881 14.906 C 15.147 15.564,15.262 15.735,15.535 15.876 C 16.204 16.220,17.000 15.739,17.000 14.991 C 17.000 14.894,16.896 14.569,16.725 14.128 C 16.573 13.739,16.404 13.276,16.349 13.100 C 16.138 12.429,16.000 11.573,16.000 10.938 C 16.000 10.328,15.762 9.502,15.421 8.932 C 14.834 7.949,13.756 7.232,12.605 7.058 C 12.144 6.989,11.816 6.990,11.358 7.061 M11.695 10.057 C 11.466 10.129,11.256 10.299,11.128 10.516 L 11.020 10.700 11.008 11.869 C 10.991 13.522,11.022 13.681,11.733 15.500 C 12.088 16.406,12.161 16.560,12.303 16.703 C 12.479 16.881,12.759 17.000,13.000 17.000 C 13.531 17.000,14.000 16.527,14.000 15.993 C 14.000 15.812,13.868 15.423,13.502 14.520 C 13.024 13.343,13.030 13.373,13.003 11.940 L 12.980 10.700 12.872 10.516 C 12.628 10.101,12.150 9.915,11.695 10.057 M8.777 13.276 C 8.460 13.355,8.150 13.643,8.046 13.956 C 7.944 14.258,8.018 14.645,8.403 15.839 C 8.643 16.582,8.747 16.741,9.100 16.906 C 9.586 17.133,10.160 16.915,10.403 16.413 C 10.546 16.118,10.524 15.881,10.287 15.160 C 10.175 14.819,10.045 14.378,10.000 14.180 C 9.911 13.798,9.867 13.707,9.690 13.539 C 9.457 13.318,9.064 13.205,8.777 13.276 M3.695 15.057 C 3.466 15.129,3.256 15.299,3.128 15.516 L 3.020 15.700 3.020 17.120 C 3.020 18.497,3.023 18.549,3.114 18.840 C 3.419 19.817,4.158 20.563,5.140 20.884 C 5.404 20.970,5.495 20.976,6.764 20.991 C 7.647 21.001,8.163 20.992,8.268 20.963 C 8.498 20.901,8.737 20.713,8.867 20.492 C 8.964 20.327,8.980 20.257,8.980 20.000 C 8.980 19.746,8.963 19.672,8.872 19.516 C 8.761 19.327,8.569 19.156,8.373 19.071 C 8.296 19.038,7.854 19.016,6.980 19.001 L 5.700 18.980 5.516 18.872 C 5.327 18.761,5.157 18.570,5.071 18.373 C 5.037 18.295,5.015 17.865,5.001 16.980 L 4.980 15.700 4.872 15.516 C 4.628 15.101,4.150 14.915,3.695 15.057 M19.695 15.057 C 19.466 15.129,19.256 15.299,19.128 15.516 L 19.020 15.700 18.999 16.980 C 18.984 17.854,18.962 18.296,18.929 18.373 C 18.844 18.569,18.673 18.761,18.484 18.872 L 18.300 18.980 17.020 19.001 C 16.146 19.016,15.704 19.038,15.627 19.071 C 15.431 19.156,15.239 19.327,15.128 19.516 C 15.037 19.672,15.020 19.746,15.020 20.000 C 15.020 20.257,15.036 20.327,15.133 20.492 C 15.263 20.713,15.502 20.901,15.732 20.963 C 15.837 20.992,16.353 21.001,17.236 20.991 C 18.505 20.976,18.596 20.970,18.860 20.884 C 19.842 20.563,20.581 19.817,20.886 18.840 C 20.977 18.549,20.980 18.497,20.980 17.120 L 20.980 15.700 20.872 15.516 C 20.628 15.101,20.150 14.915,19.695 15.057 " stroke="none" fill-rule="evenodd" fill="black"></path></svg>