<svg xmlns="http://www.w3.org/2000/svg" width="24" height="24" viewBox="0 0 24 24" fill="none" stroke="currentColor" stroke-width="2" stroke-linecap="round" stroke-linejoin="round"><path d="M2.670 2.061 C 2.448 2.142,2.250 2.309,2.128 2.516 C 2.036 2.672,2.020 2.745,2.021 3.000 C 2.021 3.213,2.043 3.341,2.095 3.440 C 2.136 3.517,2.701 4.114,3.350 4.767 L 4.532 5.954 4.350 6.247 C 3.628 7.412,3.167 8.800,3.038 10.201 C 2.969 10.941,3.010 14.277,3.097 15.040 C 3.247 16.358,3.485 17.622,3.802 18.778 C 3.993 19.473,4.022 19.539,4.231 19.727 C 4.791 20.233,5.653 19.978,5.867 19.242 C 5.930 19.025,5.929 19.016,5.800 18.521 C 5.431 17.107,5.230 16.060,5.098 14.860 C 5.011 14.076,4.971 11.147,5.036 10.410 C 5.127 9.392,5.372 8.552,5.830 7.691 L 5.983 7.403 6.717 8.137 C 7.278 8.699,7.446 8.890,7.428 8.946 C 7.416 8.987,7.358 9.146,7.299 9.300 C 7.070 9.905,6.936 10.902,7.035 11.264 C 7.099 11.498,7.286 11.737,7.508 11.867 C 7.673 11.964,7.743 11.980,8.003 11.980 C 8.271 11.980,8.329 11.966,8.503 11.859 C 8.612 11.792,8.756 11.654,8.826 11.550 C 8.956 11.356,8.978 11.270,9.023 10.765 L 9.049 10.470 10.019 11.439 L 10.989 12.408 11.012 13.314 C 11.059 15.188,11.372 16.779,12.026 18.459 C 12.486 19.639,13.337 21.203,13.776 21.674 C 14.145 22.070,14.741 22.103,15.142 21.750 C 15.352 21.565,15.429 21.432,15.478 21.169 C 15.533 20.878,15.464 20.645,15.204 20.249 C 14.711 19.498,14.356 18.844,14.047 18.118 C 13.670 17.229,13.313 16.003,13.181 15.140 C 13.148 14.920,13.111 14.686,13.099 14.620 C 13.083 14.523,13.791 15.211,16.749 18.166 C 18.768 20.182,20.483 21.865,20.560 21.905 C 20.659 21.957,20.788 21.979,21.000 21.979 C 21.258 21.980,21.327 21.964,21.492 21.867 C 21.968 21.587,22.139 20.967,21.865 20.508 C 21.810 20.416,17.665 16.243,12.653 11.235 C 4.231 2.820,3.525 2.125,3.343 2.065 C 3.107 1.987,2.874 1.986,2.670 2.061 M11.120 2.023 C 11.065 2.032,10.867 2.059,10.680 2.083 C 10.221 2.142,9.431 2.336,8.963 2.504 C 8.752 2.580,8.325 2.768,8.013 2.922 C 7.570 3.140,7.412 3.240,7.290 3.378 C 6.806 3.928,7.053 4.780,7.755 4.986 C 8.059 5.075,8.213 5.039,8.880 4.722 C 9.563 4.398,10.026 4.238,10.647 4.112 C 11.040 4.032,11.220 4.020,12.000 4.020 C 12.774 4.020,12.962 4.033,13.342 4.110 C 13.974 4.238,14.451 4.404,15.160 4.743 C 15.823 5.061,15.985 5.096,16.323 4.994 C 16.791 4.854,17.111 4.241,16.959 3.776 C 16.861 3.474,16.697 3.302,16.296 3.080 C 15.490 2.634,14.610 2.320,13.640 2.134 C 13.173 2.044,12.973 2.029,12.160 2.018 C 11.643 2.012,11.175 2.014,11.120 2.023 M11.434 6.042 C 10.785 6.117,10.512 6.232,10.301 6.519 C 10.030 6.886,10.069 7.447,10.388 7.775 C 10.676 8.071,10.953 8.146,11.445 8.059 C 11.865 7.985,12.152 7.984,12.526 8.056 C 13.721 8.286,14.619 9.140,14.923 10.332 C 14.947 10.425,14.978 10.906,14.993 11.403 L 15.020 12.306 15.141 12.503 C 15.543 13.156,16.457 13.156,16.859 12.503 L 16.980 12.307 16.993 11.543 C 17.013 10.451,16.911 9.793,16.613 9.085 C 15.752 7.035,13.625 5.786,11.434 6.042 M18.640 6.035 C 18.183 6.185,17.909 6.550,17.908 7.012 C 17.907 7.221,17.933 7.295,18.170 7.752 C 18.591 8.565,18.789 9.128,18.947 9.960 C 19.010 10.292,19.017 10.531,19.007 11.860 C 18.993 13.801,19.039 14.240,19.362 15.211 C 19.569 15.835,19.897 16.495,20.103 16.703 C 20.489 17.093,21.111 17.091,21.502 16.700 C 21.839 16.364,21.885 15.894,21.628 15.427 C 21.418 15.044,21.208 14.489,21.110 14.054 C 21.026 13.680,21.021 13.571,21.020 11.920 C 21.019 10.286,21.013 10.149,20.927 9.671 C 20.749 8.680,20.440 7.767,19.994 6.920 C 19.730 6.418,19.583 6.236,19.343 6.112 C 19.171 6.024,18.799 5.983,18.640 6.035 M7.667 14.065 C 7.233 14.198,6.967 14.647,7.015 15.163 C 7.079 15.857,7.328 17.111,7.582 18.020 C 7.986 19.466,8.773 21.375,9.102 21.704 C 9.279 21.881,9.560 22.000,9.800 22.000 C 10.361 22.000,10.844 21.476,10.791 20.925 C 10.780 20.810,10.667 20.506,10.490 20.120 C 9.721 18.437,9.301 17.016,9.042 15.225 C 8.953 14.610,8.868 14.406,8.619 14.217 C 8.339 14.003,8.029 13.954,7.667 14.065 " stroke="none" fill-rule="evenodd" fill="black"></path></svg>