<svg xmlns="http://www.w3.org/2000/svg" width="24" height="24" viewBox="0 0 24 24" fill="none" stroke="currentColor" stroke-width="2" stroke-linecap="round" stroke-linejoin="round"><path d="M11.080 2.025 C 10.214 2.131,9.431 2.320,8.760 2.585 C 6.219 3.591,4.315 5.589,3.457 8.151 C 3.298 8.626,3.155 9.232,3.074 9.780 C 2.986 10.367,2.999 14.147,3.092 14.980 C 3.242 16.332,3.478 17.596,3.802 18.778 C 3.993 19.473,4.022 19.539,4.231 19.727 C 4.791 20.233,5.653 19.978,5.867 19.242 C 5.930 19.025,5.929 19.016,5.800 18.521 C 5.431 17.108,5.230 16.062,5.097 14.860 C 5.011 14.075,4.970 11.023,5.037 10.335 C 5.154 9.139,5.535 8.066,6.193 7.082 C 7.213 5.556,8.828 4.481,10.658 4.110 C 11.038 4.033,11.226 4.020,12.000 4.020 C 12.774 4.020,12.962 4.033,13.342 4.110 C 13.974 4.238,14.451 4.404,15.160 4.743 C 15.822 5.060,16.008 5.100,16.324 4.994 C 16.792 4.838,17.078 4.318,16.965 3.830 C 16.890 3.504,16.723 3.316,16.296 3.080 C 15.432 2.601,14.508 2.282,13.440 2.093 C 13.111 2.035,11.402 1.986,11.080 2.025 M11.400 6.044 C 9.761 6.229,8.261 7.290,7.526 8.785 C 7.186 9.475,7.023 10.142,7.021 10.843 C 7.020 11.289,7.024 11.313,7.141 11.503 C 7.539 12.151,8.457 12.156,8.852 11.514 C 8.950 11.354,8.972 11.264,9.005 10.883 C 9.026 10.638,9.084 10.299,9.133 10.129 C 9.402 9.199,10.187 8.415,11.139 8.125 C 11.412 8.042,11.542 8.027,12.000 8.027 C 12.458 8.027,12.588 8.042,12.861 8.125 C 13.816 8.416,14.588 9.189,14.874 10.139 C 14.963 10.435,14.972 10.557,15.002 11.720 C 15.044 13.388,15.140 14.063,15.500 15.248 C 15.854 16.410,16.395 17.495,17.106 18.467 C 17.354 18.806,17.579 18.955,17.888 18.987 C 18.447 19.044,18.931 18.657,18.988 18.106 C 19.018 17.815,18.938 17.594,18.662 17.199 C 17.802 15.973,17.289 14.656,17.079 13.140 C 17.054 12.964,17.019 12.253,17.000 11.560 C 16.976 10.641,16.948 10.219,16.900 10.000 C 16.564 8.477,15.585 7.211,14.213 6.525 C 13.352 6.095,12.397 5.932,11.400 6.044 M18.640 6.035 C 18.183 6.185,17.909 6.550,17.908 7.012 C 17.907 7.221,17.933 7.295,18.170 7.752 C 18.591 8.565,18.789 9.128,18.947 9.960 C 19.010 10.292,19.017 10.531,19.007 11.860 C 18.993 13.801,19.039 14.240,19.362 15.211 C 19.569 15.835,19.897 16.495,20.103 16.703 C 20.489 17.093,21.111 17.091,21.502 16.700 C 21.839 16.364,21.885 15.894,21.628 15.427 C 21.418 15.044,21.208 14.489,21.110 14.054 C 21.026 13.680,21.021 13.571,21.020 11.920 C 21.019 10.286,21.013 10.149,20.927 9.671 C 20.749 8.680,20.440 7.767,19.994 6.920 C 19.730 6.418,19.583 6.236,19.343 6.112 C 19.171 6.024,18.799 5.983,18.640 6.035 M11.695 10.057 C 11.466 10.129,11.256 10.299,11.128 10.516 L 11.020 10.700 11.021 12.420 C 11.021 13.828,11.035 14.245,11.093 14.720 C 11.305 16.437,11.770 18.033,12.500 19.550 C 12.883 20.347,13.507 21.385,13.776 21.674 C 14.145 22.070,14.741 22.103,15.142 21.750 C 15.352 21.565,15.429 21.432,15.478 21.169 C 15.533 20.878,15.464 20.645,15.204 20.249 C 14.008 18.427,13.356 16.640,13.077 14.420 C 13.052 14.222,13.020 13.304,13.006 12.380 L 12.980 10.700 12.872 10.516 C 12.628 10.101,12.150 9.915,11.695 10.057 M7.667 14.065 C 7.233 14.198,6.967 14.647,7.015 15.163 C 7.079 15.857,7.328 17.111,7.582 18.020 C 7.986 19.466,8.773 21.375,9.102 21.704 C 9.279 21.881,9.560 22.000,9.800 22.000 C 10.361 22.000,10.844 21.476,10.791 20.925 C 10.780 20.810,10.667 20.506,10.490 20.120 C 9.721 18.437,9.301 17.016,9.042 15.225 C 8.953 14.610,8.868 14.406,8.619 14.217 C 8.339 14.003,8.029 13.954,7.667 14.065 " stroke="none" fill-rule="evenodd" fill="black"></path></svg>