<svg xmlns="http://www.w3.org/2000/svg" width="24" height="24" viewBox="0 0 24 24" fill="none" stroke="currentColor" stroke-width="2" stroke-linecap="round" stroke-linejoin="round"><path d="M11.380 2.043 C 8.864 2.291,6.748 4.153,6.163 6.635 C 6.119 6.819,6.078 6.973,6.072 6.977 C 6.065 6.981,5.952 7.006,5.820 7.032 C 5.525 7.091,5.300 7.246,5.140 7.502 C 5.034 7.672,5.020 7.729,5.020 8.000 C 5.020 8.271,5.034 8.329,5.141 8.503 C 5.288 8.742,5.578 8.946,5.821 8.982 L 6.000 9.009 6.000 9.996 L 6.000 10.982 5.690 11.031 C 5.258 11.099,4.920 11.274,4.596 11.597 C 4.310 11.882,4.154 12.147,4.060 12.508 C 3.973 12.839,3.973 15.161,4.060 15.492 C 4.153 15.852,4.310 16.118,4.596 16.404 C 4.958 16.767,5.457 17.000,5.868 17.000 L 6.000 17.000 6.000 18.500 L 6.000 20.000 5.446 20.000 C 4.648 20.000,4.367 20.110,4.128 20.516 C 4.037 20.672,4.020 20.746,4.020 21.000 C 4.020 21.256,4.036 21.328,4.131 21.489 C 4.256 21.702,4.449 21.864,4.670 21.943 C 4.793 21.987,6.103 21.996,12.000 21.996 C 17.897 21.996,19.207 21.987,19.330 21.943 C 19.551 21.864,19.744 21.702,19.869 21.489 C 19.964 21.328,19.980 21.256,19.980 21.000 C 19.980 20.746,19.963 20.672,19.872 20.516 C 19.633 20.110,19.352 20.000,18.554 20.000 L 18.000 20.000 18.000 18.500 L 18.000 17.000 18.132 17.000 C 18.543 17.000,19.042 16.767,19.404 16.404 C 19.694 16.114,19.841 15.863,19.937 15.491 C 20.026 15.149,20.028 12.903,19.940 12.529 C 19.852 12.156,19.699 11.891,19.404 11.597 C 19.080 11.274,18.742 11.099,18.310 11.031 L 18.000 10.982 18.000 9.996 L 18.000 9.009 18.179 8.982 C 18.422 8.946,18.712 8.742,18.859 8.503 C 18.966 8.329,18.980 8.271,18.980 8.000 C 18.980 7.729,18.966 7.672,18.860 7.502 C 18.700 7.246,18.475 7.091,18.180 7.032 C 18.048 7.006,17.935 6.981,17.928 6.977 C 17.922 6.973,17.881 6.819,17.837 6.635 C 17.581 5.548,17.063 4.613,16.269 3.805 C 14.978 2.490,13.230 1.860,11.380 2.043 M12.605 4.058 C 14.062 4.278,15.287 5.302,15.780 6.712 L 15.874 6.980 13.937 6.990 C 12.872 6.996,11.128 6.996,10.063 6.990 L 8.126 6.980 8.220 6.712 C 8.707 5.320,9.934 4.283,11.358 4.061 C 11.816 3.990,12.144 3.989,12.605 4.058 M16.002 10.590 C 16.004 12.300,16.009 12.346,16.217 12.619 C 16.275 12.696,16.408 12.808,16.511 12.869 C 16.693 12.976,16.723 12.980,17.350 12.993 L 18.000 13.007 18.000 14.003 L 18.000 15.000 17.446 15.000 C 16.648 15.000,16.367 15.110,16.128 15.516 L 16.020 15.700 16.009 17.850 L 15.997 20.000 12.000 20.000 L 8.003 20.000 7.991 17.850 L 7.980 15.700 7.872 15.516 C 7.633 15.110,7.352 15.000,6.554 15.000 L 6.000 15.000 6.000 14.003 L 6.000 13.007 6.650 12.993 C 7.277 12.980,7.307 12.976,7.489 12.869 C 7.592 12.808,7.725 12.696,7.783 12.619 C 7.991 12.346,7.996 12.300,7.998 10.590 L 8.000 9.000 12.000 9.000 L 16.000 9.000 16.002 10.590 M11.499 11.040 C 10.363 11.246,9.460 12.049,9.114 13.160 C 8.979 13.594,8.979 14.406,9.114 14.840 C 9.421 15.826,10.174 16.579,11.160 16.886 C 11.594 17.021,12.406 17.021,12.840 16.886 C 13.826 16.579,14.579 15.826,14.886 14.840 C 15.021 14.406,15.021 13.594,14.886 13.160 C 14.581 12.179,13.810 11.407,12.861 11.129 C 12.500 11.023,11.832 10.980,11.499 11.040 M12.310 13.061 C 12.688 13.173,13.000 13.598,13.000 14.001 C 13.000 14.331,12.784 14.696,12.484 14.872 C 12.328 14.963,12.254 14.980,12.000 14.980 C 11.746 14.980,11.672 14.963,11.516 14.872 C 10.935 14.530,10.833 13.774,11.304 13.303 C 11.583 13.024,11.916 12.944,12.310 13.061 " stroke="none" fill-rule="evenodd" fill="black"></path></svg>