<svg xmlns="http://www.w3.org/2000/svg" width="24" height="24" viewBox="0 0 24 24" fill="none" stroke="currentColor" stroke-width="2" stroke-linecap="round" stroke-linejoin="round"><path d="M2.670 2.061 C 2.448 2.142,2.250 2.309,2.128 2.516 C 2.037 2.672,2.020 2.746,2.020 3.000 C 2.020 3.254,2.036 3.327,2.127 3.480 C 2.187 3.579,2.999 4.423,3.933 5.356 L 5.632 7.052 5.446 7.179 C 5.344 7.250,5.206 7.394,5.140 7.500 C 5.034 7.671,5.020 7.729,5.020 8.000 C 5.020 8.271,5.034 8.329,5.141 8.503 C 5.288 8.742,5.578 8.946,5.821 8.982 L 6.000 9.009 6.000 9.996 L 6.000 10.982 5.690 11.031 C 5.258 11.099,4.920 11.274,4.596 11.597 C 4.310 11.882,4.154 12.147,4.060 12.508 C 3.973 12.839,3.973 15.161,4.060 15.492 C 4.153 15.852,4.310 16.118,4.596 16.404 C 4.958 16.767,5.457 17.000,5.868 17.000 L 6.000 17.000 6.000 18.500 L 6.000 20.000 5.446 20.000 C 4.648 20.000,4.367 20.110,4.128 20.516 C 4.037 20.672,4.020 20.746,4.020 21.000 C 4.020 21.257,4.036 21.327,4.133 21.492 C 4.261 21.709,4.502 21.901,4.722 21.961 C 4.821 21.987,7.333 21.997,12.089 21.990 L 19.306 21.980 19.503 21.859 C 19.612 21.792,19.756 21.654,19.825 21.552 L 19.950 21.367 20.145 21.566 C 20.462 21.891,20.646 21.980,21.000 21.980 C 21.257 21.980,21.327 21.964,21.492 21.867 C 21.968 21.587,22.139 20.967,21.865 20.508 C 21.810 20.416,17.665 16.243,12.653 11.235 C 4.231 2.820,3.525 2.125,3.343 2.065 C 3.107 1.987,2.874 1.986,2.670 2.061 M11.347 2.042 C 10.030 2.195,8.833 2.747,7.898 3.633 C 7.582 3.932,7.482 4.131,7.482 4.460 C 7.482 5.021,7.920 5.456,8.481 5.451 C 8.765 5.448,8.952 5.368,9.189 5.147 C 10.487 3.942,12.241 3.666,13.776 4.427 C 14.199 4.637,14.471 4.831,14.803 5.160 C 15.251 5.602,15.658 6.259,15.814 6.790 L 15.876 7.000 13.884 7.000 C 11.723 7.000,11.665 7.005,11.382 7.221 C 11.302 7.282,11.187 7.415,11.128 7.516 C 11.037 7.672,11.020 7.746,11.020 8.000 C 11.020 8.256,11.036 8.328,11.131 8.489 C 11.256 8.702,11.449 8.864,11.670 8.943 C 11.788 8.985,12.269 8.997,13.910 8.998 L 16.000 9.000 16.002 10.590 C 16.004 12.300,16.009 12.346,16.217 12.619 C 16.275 12.696,16.408 12.808,16.511 12.869 C 16.693 12.976,16.724 12.980,17.348 12.993 L 17.996 13.007 18.008 14.157 L 18.020 15.307 18.141 15.503 C 18.543 16.156,19.457 16.156,19.859 15.503 L 19.980 15.306 19.992 14.058 C 20.005 12.692,19.982 12.479,19.775 12.070 C 19.625 11.774,19.198 11.362,18.880 11.207 C 18.728 11.132,18.492 11.060,18.310 11.031 L 18.000 10.982 18.000 9.996 L 18.000 9.009 18.179 8.982 C 18.422 8.946,18.712 8.742,18.859 8.503 C 18.966 8.329,18.980 8.271,18.980 8.000 C 18.980 7.729,18.966 7.672,18.860 7.502 C 18.698 7.243,18.469 7.086,18.172 7.030 L 17.930 6.984 17.830 6.579 C 17.566 5.513,17.003 4.521,16.217 3.741 C 14.948 2.478,13.110 1.837,11.347 2.042 M9.969 11.803 C 9.526 12.227,9.288 12.606,9.114 13.161 C 8.979 13.593,8.979 14.406,9.114 14.840 C 9.421 15.826,10.174 16.579,11.160 16.886 C 11.594 17.021,12.407 17.021,12.839 16.886 C 13.394 16.712,13.773 16.474,14.197 16.031 L 14.400 15.820 15.200 16.620 L 16.000 17.419 16.000 18.710 L 16.000 20.000 12.001 20.000 L 8.003 20.000 7.991 17.850 L 7.980 15.700 7.872 15.516 C 7.633 15.110,7.352 15.000,6.554 15.000 L 6.000 15.000 6.000 14.003 L 6.000 13.007 6.650 12.993 C 7.277 12.980,7.307 12.976,7.489 12.869 C 7.592 12.808,7.725 12.696,7.783 12.619 C 7.989 12.350,7.996 12.284,7.998 10.800 L 8.000 9.420 9.090 10.510 L 10.180 11.600 9.969 11.803 M12.290 13.710 C 12.636 14.056,12.920 14.358,12.920 14.382 C 12.920 14.476,12.661 14.768,12.486 14.871 C 12.328 14.964,12.255 14.980,11.997 14.980 C 11.729 14.980,11.671 14.966,11.502 14.860 C 10.877 14.469,10.841 13.605,11.432 13.185 C 11.513 13.127,11.597 13.080,11.619 13.080 C 11.641 13.080,11.943 13.363,12.290 13.710 M18.300 19.720 L 18.578 20.000 18.289 20.000 L 18.000 20.000 18.000 19.720 C 18.000 19.566,18.005 19.440,18.011 19.440 C 18.017 19.440,18.147 19.566,18.300 19.720 " stroke="none" fill-rule="evenodd" fill="black"></path></svg>