<svg xmlns="http://www.w3.org/2000/svg" width="24" height="24" viewBox="0 0 24 24" fill="none" stroke="currentColor" stroke-width="2" stroke-linecap="round" stroke-linejoin="round"><path d="M2.670 2.061 C 2.448 2.142,2.250 2.309,2.128 2.516 C 2.037 2.672,2.020 2.746,2.020 3.000 C 2.020 3.254,2.036 3.327,2.127 3.480 C 2.187 3.579,2.991 4.415,3.915 5.337 L 5.595 7.014 5.236 7.105 C 4.241 7.357,3.432 8.140,3.114 9.160 L 3.020 9.460 3.020 14.000 L 3.020 18.540 3.114 18.840 C 3.422 19.827,4.173 20.578,5.160 20.886 L 5.460 20.980 12.020 20.980 L 18.580 20.980 18.940 20.853 L 19.300 20.727 19.860 21.278 C 20.168 21.582,20.483 21.863,20.560 21.904 C 20.660 21.957,20.786 21.979,21.000 21.979 C 21.258 21.980,21.327 21.964,21.492 21.867 C 21.968 21.587,22.139 20.967,21.865 20.508 C 21.810 20.416,17.665 16.243,12.653 11.235 C 4.231 2.820,3.525 2.125,3.343 2.065 C 3.107 1.987,2.874 1.986,2.670 2.061 M9.513 3.040 C 9.054 3.120,8.547 3.329,8.241 3.567 C 8.038 3.723,7.752 4.019,7.693 4.133 C 7.606 4.302,7.581 4.648,7.640 4.859 C 7.703 5.085,7.963 5.387,8.178 5.485 C 8.357 5.566,8.702 5.583,8.916 5.521 C 8.991 5.500,9.157 5.400,9.284 5.300 C 9.679 4.990,9.585 5.000,11.978 5.000 C 14.414 5.000,14.391 4.997,14.697 5.303 C 14.948 5.554,15.000 5.751,15.000 6.447 L 15.000 7.000 13.446 7.000 C 11.758 7.000,11.658 7.011,11.382 7.221 C 11.302 7.282,11.187 7.415,11.128 7.516 C 11.037 7.672,11.020 7.746,11.020 8.000 C 11.020 8.256,11.036 8.328,11.131 8.489 C 11.256 8.702,11.449 8.864,11.670 8.943 C 11.790 8.986,12.442 8.997,14.963 8.998 C 18.496 9.000,18.378 8.991,18.679 9.283 C 18.999 9.594,18.978 9.344,19.000 13.023 L 19.020 16.306 19.141 16.503 C 19.543 17.156,20.457 17.156,20.859 16.503 L 20.980 16.306 20.980 12.883 L 20.980 9.460 20.886 9.160 C 20.580 8.179,19.819 7.415,18.861 7.126 C 18.585 7.043,18.433 7.027,17.775 7.010 L 17.009 6.991 16.990 6.205 C 16.974 5.536,16.958 5.379,16.882 5.140 C 16.573 4.174,15.820 3.422,14.861 3.122 L 14.540 3.022 12.120 3.015 C 10.789 3.011,9.616 3.022,9.513 3.040 M9.290 10.710 L 11.000 12.420 11.000 12.710 L 11.000 13.000 10.446 13.000 C 9.648 13.000,9.367 13.110,9.128 13.516 C 9.037 13.672,9.020 13.746,9.020 14.000 C 9.020 14.256,9.036 14.328,9.131 14.489 C 9.256 14.702,9.449 14.864,9.670 14.943 C 9.768 14.978,10.022 14.997,10.407 14.998 L 10.993 15.000 11.007 15.653 C 11.020 16.300,11.021 16.308,11.141 16.503 C 11.543 17.156,12.457 17.156,12.859 16.503 C 12.979 16.308,12.980 16.300,12.993 15.653 L 13.007 15.000 13.294 15.000 L 13.580 15.000 15.580 17.000 L 17.580 19.001 11.640 18.990 L 5.700 18.980 5.516 18.872 C 5.415 18.813,5.284 18.700,5.225 18.623 C 4.990 18.315,5.000 18.515,5.000 14.022 C 5.000 9.356,4.983 9.624,5.304 9.303 C 5.573 9.033,5.701 9.006,6.720 9.003 L 7.580 9.000 9.290 10.710 " stroke="none" fill-rule="evenodd" fill="black"></path></svg>