<svg xmlns="http://www.w3.org/2000/svg" width="24" height="24" viewBox="0 0 24 24" fill="none" stroke="currentColor" stroke-width="2" stroke-linecap="round" stroke-linejoin="round"><path d="M9.499 3.042 C 8.385 3.234,7.470 4.041,7.118 5.140 C 7.042 5.379,7.026 5.536,7.010 6.205 L 6.991 6.991 6.225 7.010 C 5.567 7.027,5.415 7.043,5.139 7.126 C 4.181 7.415,3.420 8.179,3.114 9.160 L 3.020 9.460 3.020 14.000 L 3.020 18.540 3.114 18.840 C 3.422 19.827,4.173 20.578,5.160 20.886 L 5.460 20.980 12.000 20.980 L 18.540 20.980 18.840 20.886 C 19.827 20.578,20.578 19.827,20.886 18.840 L 20.980 18.540 20.980 14.000 L 20.980 9.460 20.886 9.160 C 20.580 8.179,19.819 7.415,18.861 7.126 C 18.585 7.043,18.433 7.027,17.775 7.010 L 17.009 6.991 16.990 6.205 C 16.974 5.536,16.958 5.379,16.882 5.140 C 16.573 4.174,15.820 3.422,14.861 3.122 L 14.540 3.022 12.120 3.015 C 10.789 3.011,9.609 3.023,9.499 3.042 M14.310 5.061 C 14.452 5.103,14.571 5.178,14.697 5.303 C 14.948 5.554,15.000 5.751,15.000 6.447 L 15.000 7.000 12.000 7.000 L 9.000 7.000 9.000 6.447 C 9.000 5.750,9.052 5.554,9.304 5.303 C 9.604 5.002,9.569 5.006,11.983 5.003 C 13.772 5.000,14.138 5.010,14.310 5.061 M18.310 9.061 C 18.589 9.144,18.856 9.411,18.939 9.690 C 18.992 9.867,19.000 10.441,19.000 14.001 C 19.000 18.458,19.007 18.319,18.779 18.618 C 18.718 18.698,18.585 18.813,18.484 18.872 L 18.300 18.980 12.000 18.980 L 5.700 18.980 5.516 18.872 C 5.303 18.747,5.141 18.550,5.058 18.316 C 4.969 18.062,4.971 9.992,5.061 9.690 C 5.140 9.421,5.412 9.143,5.673 9.063 C 5.963 8.974,18.010 8.972,18.310 9.061 M11.695 11.057 C 11.466 11.129,11.256 11.299,11.128 11.516 C 11.025 11.692,11.019 11.728,11.007 12.350 L 10.993 13.000 10.443 13.000 C 9.648 13.000,9.366 13.111,9.128 13.516 C 9.037 13.672,9.020 13.746,9.020 14.000 C 9.020 14.256,9.036 14.328,9.131 14.489 C 9.256 14.702,9.449 14.864,9.670 14.943 C 9.768 14.978,10.022 14.997,10.407 14.998 L 10.993 15.000 11.007 15.653 C 11.020 16.300,11.021 16.308,11.141 16.503 C 11.209 16.613,11.346 16.756,11.452 16.828 C 11.923 17.144,12.554 16.999,12.859 16.503 C 12.979 16.308,12.980 16.300,12.993 15.653 L 13.007 15.000 13.593 14.998 C 13.978 14.997,14.232 14.978,14.330 14.943 C 14.551 14.864,14.744 14.702,14.869 14.489 C 14.964 14.328,14.980 14.256,14.980 14.000 C 14.980 13.746,14.963 13.672,14.872 13.516 C 14.634 13.111,14.352 13.000,13.557 13.000 L 13.007 13.000 12.993 12.350 C 12.981 11.728,12.975 11.692,12.872 11.516 C 12.628 11.101,12.150 10.915,11.695 11.057 " stroke="none" fill-rule="evenodd" fill="black"></path></svg>