<svg xmlns="http://www.w3.org/2000/svg" width="24" height="24" viewBox="0 0 24 24" fill="none" stroke="currentColor" stroke-width="2" stroke-linecap="round" stroke-linejoin="round"><path d="M13.480 6.042 C 10.899 6.229,8.054 7.586,5.181 10.000 C 4.880 10.253,4.590 10.495,4.536 10.538 L 4.439 10.617 4.155 10.338 C 4.000 10.185,3.587 9.752,3.239 9.376 C 2.528 8.608,2.401 8.520,2.010 8.520 C 1.277 8.522,0.793 9.254,1.096 9.904 C 1.187 10.100,1.682 10.663,2.595 11.609 L 2.971 11.999 2.495 12.501 C 1.149 13.924,1.055 14.046,1.012 14.402 C 0.976 14.708,1.062 14.943,1.298 15.185 C 1.531 15.425,1.852 15.549,2.113 15.501 C 2.458 15.437,2.566 15.350,3.407 14.456 C 3.859 13.974,4.276 13.537,4.333 13.485 L 4.435 13.390 4.551 13.485 C 4.615 13.537,4.899 13.775,5.183 14.014 C 7.998 16.381,10.682 17.684,13.314 17.963 C 13.866 18.022,14.986 17.991,15.505 17.903 C 18.198 17.447,20.530 15.798,22.598 12.887 C 22.917 12.438,22.996 12.267,22.998 12.015 C 23.001 11.760,22.905 11.544,22.592 11.104 C 21.812 10.008,20.637 8.733,19.792 8.066 C 18.586 7.114,17.206 6.451,15.869 6.181 C 15.068 6.020,14.356 5.978,13.480 6.042 M14.971 8.077 C 14.988 8.093,14.901 8.316,14.779 8.573 C 13.746 10.746,13.749 13.250,14.787 15.444 C 14.911 15.706,14.999 15.934,14.983 15.950 C 14.967 15.967,14.599 15.980,14.167 15.979 C 13.286 15.978,12.912 15.928,12.093 15.700 C 10.574 15.276,9.077 14.492,7.440 13.263 C 6.910 12.865,5.920 12.047,5.920 12.006 C 5.920 11.967,6.875 11.173,7.380 10.792 C 9.598 9.121,11.648 8.208,13.558 8.041 C 13.966 8.006,14.920 8.030,14.971 8.077 M17.360 8.844 C 18.302 9.357,19.304 10.204,20.123 11.180 C 20.597 11.744,20.771 11.990,20.736 12.048 C 20.602 12.276,19.842 13.159,19.400 13.600 C 18.711 14.288,17.799 14.973,17.174 15.271 C 17.036 15.337,17.032 15.336,16.955 15.239 C 16.788 15.029,16.361 14.087,16.246 13.676 C 16.073 13.056,16.025 12.694,16.025 12.000 C 16.025 11.302,16.074 10.933,16.248 10.322 C 16.411 9.751,16.925 8.678,17.034 8.681 C 17.048 8.681,17.195 8.755,17.360 8.844 M11.046 9.624 C 10.791 9.752,10.615 9.972,10.378 10.460 C 10.098 11.038,10.022 11.365,10.022 12.000 C 10.022 12.635,10.098 12.962,10.378 13.540 C 10.623 14.044,10.790 14.250,11.069 14.386 C 11.739 14.714,12.489 14.240,12.491 13.489 C 12.491 13.314,12.456 13.208,12.285 12.869 C 11.924 12.152,11.919 11.846,12.259 11.189 C 12.481 10.759,12.529 10.566,12.475 10.315 C 12.334 9.659,11.645 9.326,11.046 9.624 M17.695 10.057 C 17.466 10.129,17.256 10.299,17.128 10.516 C 17.036 10.672,17.020 10.745,17.021 11.000 C 17.022 11.332,17.101 11.533,17.306 11.728 C 17.785 12.181,18.580 12.046,18.893 11.460 C 19.025 11.211,19.015 10.760,18.872 10.516 C 18.628 10.101,18.150 9.915,17.695 10.057 " stroke="none" fill-rule="evenodd" fill="black"></path></svg>