<svg xmlns="http://www.w3.org/2000/svg" width="24" height="24" viewBox="0 0 24 24" fill="none" stroke="currentColor" stroke-width="2" stroke-linecap="round" stroke-linejoin="round"><path d="M2.670 2.061 C 2.448 2.142,2.250 2.309,2.128 2.516 C 2.036 2.672,2.020 2.745,2.021 3.000 C 2.021 3.212,2.043 3.341,2.095 3.440 C 2.135 3.517,5.013 6.427,8.491 9.907 L 14.815 16.235 14.706 16.512 C 14.263 17.641,13.223 18.553,11.997 18.888 C 11.703 18.968,11.573 18.980,10.980 18.976 C 10.365 18.973,10.266 18.962,9.940 18.865 C 8.649 18.479,7.685 17.587,7.238 16.362 C 7.051 15.849,7.000 15.423,7.000 14.361 L 7.000 13.423 7.710 14.127 C 8.101 14.514,8.481 14.861,8.555 14.899 C 9.008 15.128,9.601 14.944,9.867 14.492 C 9.964 14.327,9.980 14.257,9.980 14.000 C 9.980 13.746,9.963 13.672,9.873 13.520 C 9.729 13.278,6.622 10.192,6.437 10.108 C 5.952 9.887,5.396 10.060,5.129 10.514 L 5.020 10.700 5.007 13.020 C 4.994 15.482,5.007 15.739,5.182 16.441 C 5.749 18.717,7.497 20.388,9.833 20.889 C 10.401 21.010,11.589 21.019,12.120 20.905 C 13.844 20.535,15.285 19.529,16.127 18.108 L 16.335 17.756 18.378 19.794 C 19.501 20.915,20.483 21.865,20.560 21.905 C 20.659 21.957,20.788 21.979,21.000 21.979 C 21.258 21.980,21.327 21.964,21.492 21.867 C 21.968 21.587,22.139 20.967,21.865 20.508 C 21.810 20.416,17.665 16.243,12.653 11.235 C 4.231 2.820,3.525 2.125,3.343 2.065 C 3.107 1.987,2.874 1.986,2.670 2.061 M15.695 2.057 C 15.466 2.129,15.256 2.299,15.128 2.516 C 15.023 2.695,15.020 2.721,15.007 3.424 L 14.994 4.148 14.667 4.315 C 13.922 4.693,13.364 5.356,13.114 6.160 C 12.979 6.594,12.979 7.406,13.114 7.840 C 13.363 8.640,13.928 9.314,14.660 9.684 L 14.980 9.845 15.000 11.076 L 15.020 12.307 15.141 12.503 C 15.543 13.156,16.457 13.156,16.859 12.503 L 16.980 12.307 17.000 11.076 L 17.020 9.845 17.340 9.684 C 18.072 9.314,18.637 8.640,18.886 7.840 C 19.021 7.406,19.021 6.594,18.886 6.160 C 18.636 5.356,18.078 4.693,17.333 4.315 L 17.006 4.148 16.993 3.424 C 16.980 2.721,16.977 2.695,16.872 2.516 C 16.628 2.101,16.150 1.915,15.695 2.057 M16.310 6.061 C 16.688 6.173,17.000 6.598,17.000 7.001 C 17.000 7.331,16.784 7.696,16.484 7.872 C 16.328 7.963,16.254 7.980,16.000 7.980 C 15.746 7.980,15.672 7.963,15.516 7.872 C 14.932 7.528,14.831 6.775,15.307 6.299 C 15.582 6.024,15.918 5.944,16.310 6.061 " stroke="none" fill-rule="evenodd" fill="black"></path></svg>