<svg xmlns="http://www.w3.org/2000/svg" width="24" height="24" viewBox="0 0 24 24" fill="none" stroke="currentColor" stroke-width="2" stroke-linecap="round" stroke-linejoin="round"><path d="M16.400 6.485 C 16.185 6.550,15.984 6.718,15.719 7.054 C 14.968 8.008,14.446 9.123,14.178 10.349 C 14.124 10.596,14.080 10.844,14.080 10.899 L 14.080 11.000 13.042 11.000 L 12.003 11.000 11.992 9.350 L 11.980 7.700 11.871 7.514 C 11.479 6.848,10.521 6.848,10.129 7.514 L 10.020 7.700 10.008 9.350 L 9.997 11.000 9.002 11.000 L 8.007 11.000 7.993 10.350 C 7.981 9.726,7.976 9.693,7.871 9.514 C 7.479 8.848,6.521 8.848,6.129 9.514 C 6.024 9.693,6.019 9.726,6.007 10.350 L 5.993 11.000 5.406 11.000 L 4.819 11.000 4.157 10.330 C 3.793 9.961,3.293 9.441,3.047 9.174 C 2.546 8.631,2.374 8.520,2.035 8.520 C 1.708 8.520,1.522 8.595,1.297 8.819 C 0.991 9.124,0.916 9.519,1.094 9.900 C 1.194 10.114,1.381 10.330,2.350 11.351 L 2.968 12.002 2.414 12.585 C 1.164 13.902,1.055 14.044,1.012 14.402 C 0.980 14.675,1.061 14.927,1.250 15.142 C 1.537 15.468,1.875 15.573,2.269 15.460 C 2.528 15.385,2.448 15.460,3.973 13.869 L 4.806 13.000 5.400 13.000 L 5.993 13.000 6.007 13.653 C 6.020 14.300,6.021 14.308,6.141 14.503 C 6.543 15.156,7.457 15.156,7.859 14.503 C 7.979 14.308,7.980 14.300,7.993 13.653 L 8.007 13.000 9.002 13.000 L 9.997 13.000 10.008 14.653 L 10.020 16.306 10.141 16.503 C 10.543 17.156,11.457 17.156,11.859 16.503 L 11.980 16.306 11.992 14.653 L 12.003 13.000 13.042 13.000 L 14.080 13.000 14.080 13.101 C 14.080 13.275,14.270 14.082,14.418 14.533 C 14.798 15.698,15.741 17.204,16.248 17.457 C 16.652 17.658,16.978 17.591,17.980 17.099 C 19.539 16.334,20.980 15.069,22.306 13.300 C 22.919 12.483,23.025 12.269,22.991 11.916 C 22.965 11.648,22.854 11.451,22.345 10.770 C 20.833 8.748,19.255 7.432,17.419 6.658 C 16.949 6.460,16.651 6.409,16.400 6.485 M17.357 8.846 C 18.083 9.243,18.756 9.762,19.452 10.461 C 19.879 10.889,20.760 11.931,20.760 12.007 C 20.760 12.085,19.891 13.109,19.440 13.562 C 18.707 14.299,18.015 14.831,17.306 15.200 L 17.038 15.340 16.957 15.240 C 16.913 15.185,16.761 14.906,16.620 14.620 C 16.355 14.081,16.168 13.503,16.076 12.936 C 16.010 12.528,16.010 11.471,16.076 11.062 C 16.157 10.564,16.351 9.938,16.565 9.482 C 16.757 9.074,16.986 8.680,17.031 8.680 C 17.043 8.680,17.190 8.755,17.357 8.846 M17.695 10.057 C 17.466 10.129,17.256 10.299,17.128 10.516 C 17.036 10.672,17.020 10.745,17.021 11.000 C 17.022 11.332,17.101 11.533,17.306 11.728 C 17.785 12.181,18.580 12.046,18.893 11.460 C 19.025 11.211,19.015 10.760,18.872 10.516 C 18.628 10.101,18.150 9.915,17.695 10.057 " stroke="none" fill-rule="evenodd" fill="black"></path></svg>