<svg xmlns="http://www.w3.org/2000/svg" width="24" height="24" viewBox="0 0 24 24" fill="none" stroke="currentColor" stroke-width="2" stroke-linecap="round" stroke-linejoin="round"><path d="M8.020 2.603 C 6.680 2.706,5.317 3.310,4.395 4.209 C 3.955 4.639,3.998 3.666,4.010 13.085 L 4.020 21.306 4.141 21.503 C 4.543 22.156,5.457 22.156,5.859 21.503 L 5.980 21.306 5.991 17.877 L 6.002 14.448 6.145 14.339 C 6.224 14.279,6.453 14.143,6.654 14.037 C 7.792 13.439,9.185 13.436,10.332 14.028 C 10.723 14.230,10.913 14.370,11.474 14.868 C 12.502 15.781,13.639 16.272,15.031 16.404 C 16.635 16.556,18.437 15.924,19.592 14.802 C 20.038 14.369,20.000 14.865,20.000 9.500 C 20.000 4.268,20.021 4.627,19.694 4.300 C 19.571 4.177,19.451 4.103,19.310 4.061 C 18.878 3.933,18.638 4.007,18.140 4.425 C 17.738 4.762,17.389 4.978,16.995 5.134 C 15.882 5.574,14.733 5.519,13.660 4.976 C 13.327 4.807,13.094 4.635,12.593 4.191 C 12.133 3.783,11.801 3.545,11.360 3.308 C 10.331 2.754,9.192 2.514,8.020 2.603 M9.070 4.624 C 9.623 4.682,10.443 5.020,10.894 5.374 C 11.007 5.463,11.268 5.685,11.474 5.868 C 12.959 7.187,14.901 7.703,16.796 7.281 C 17.121 7.208,17.772 6.998,17.930 6.914 C 17.996 6.879,18.000 7.049,18.000 10.215 L 18.000 13.553 17.805 13.697 C 17.417 13.981,16.794 14.244,16.220 14.366 C 15.911 14.431,15.089 14.431,14.780 14.366 C 14.398 14.285,14.044 14.163,13.700 13.993 C 13.332 13.811,13.113 13.652,12.593 13.191 C 12.085 12.741,11.742 12.503,11.207 12.232 C 10.474 11.860,9.772 11.665,8.944 11.604 C 8.005 11.535,6.956 11.704,6.150 12.056 L 6.000 12.121 6.000 8.785 L 6.000 5.449 6.144 5.340 C 6.402 5.143,7.012 4.847,7.380 4.741 C 7.937 4.580,8.366 4.550,9.070 4.624 " stroke="none" fill-rule="evenodd" fill="black"></path></svg>