<svg xmlns="http://www.w3.org/2000/svg" width="24" height="24" viewBox="0 0 24 24" fill="none" stroke="currentColor" stroke-width="2" stroke-linecap="round" stroke-linejoin="round"><path d="M8.020 2.603 C 6.680 2.706,5.317 3.310,4.395 4.209 C 3.955 4.639,3.998 3.666,4.010 13.085 L 4.020 21.306 4.141 21.503 C 4.543 22.156,5.457 22.156,5.859 21.503 L 5.980 21.306 5.991 17.877 L 6.002 14.448 6.145 14.339 C 6.224 14.279,6.453 14.143,6.654 14.037 C 7.790 13.440,9.185 13.436,10.329 14.027 C 10.708 14.222,10.942 14.396,11.505 14.896 C 12.119 15.443,12.804 15.848,13.535 16.098 C 13.915 16.228,14.487 16.358,14.683 16.359 C 15.093 16.362,15.509 16.049,15.624 15.651 C 15.732 15.280,15.647 14.943,15.374 14.662 C 15.208 14.491,15.096 14.441,14.605 14.323 C 13.835 14.137,13.357 13.874,12.660 13.252 C 12.088 12.743,11.762 12.513,11.207 12.232 C 10.474 11.860,9.772 11.665,8.944 11.604 C 8.005 11.535,6.956 11.704,6.150 12.056 L 6.000 12.121 6.000 8.785 L 6.000 5.449 6.144 5.340 C 6.224 5.279,6.453 5.143,6.654 5.037 C 7.792 4.439,9.185 4.436,10.332 5.028 C 10.723 5.230,10.913 5.370,11.474 5.868 C 12.961 7.188,14.901 7.703,16.799 7.280 C 17.121 7.209,17.772 6.998,17.929 6.915 C 17.994 6.880,17.998 7.038,18.009 9.592 L 18.020 12.306 18.141 12.503 C 18.543 13.156,19.457 13.156,19.859 12.503 L 19.980 12.306 19.991 8.586 C 20.003 4.382,20.020 4.626,19.694 4.301 C 19.571 4.178,19.452 4.103,19.310 4.061 C 18.878 3.933,18.638 4.007,18.140 4.425 C 17.738 4.762,17.389 4.978,16.995 5.134 C 15.882 5.574,14.733 5.519,13.660 4.976 C 13.327 4.807,13.094 4.635,12.593 4.191 C 12.133 3.783,11.801 3.545,11.360 3.308 C 10.331 2.754,9.192 2.514,8.020 2.603 M18.668 15.061 C 18.585 15.092,18.462 15.156,18.395 15.203 C 18.260 15.300,16.136 18.454,16.054 18.680 C 15.893 19.127,16.117 19.673,16.550 19.886 C 16.733 19.977,16.784 19.981,17.930 20.000 L 19.120 20.020 18.600 20.800 C 17.971 21.741,17.914 21.905,18.061 22.322 C 18.284 22.955,18.992 23.187,19.570 22.815 C 19.686 22.741,19.972 22.342,20.805 21.093 C 21.401 20.198,21.917 19.387,21.950 19.289 C 22.074 18.926,21.931 18.460,21.625 18.226 C 21.365 18.028,21.326 18.023,20.070 18.001 L 18.880 17.980 19.383 17.225 C 19.660 16.810,19.912 16.399,19.943 16.310 C 20.212 15.550,19.428 14.782,18.668 15.061 " stroke="none" fill-rule="evenodd" fill="black"></path></svg>