<svg xmlns="http://www.w3.org/2000/svg" width="24" height="24" viewBox="0 0 24 24" fill="none" stroke="currentColor" stroke-width="2" stroke-linecap="round" stroke-linejoin="round"><path d="M8.020 2.603 C 6.680 2.706,5.317 3.310,4.395 4.209 C 3.955 4.639,3.998 3.666,4.010 13.085 L 4.020 21.306 4.141 21.503 C 4.543 22.156,5.457 22.156,5.859 21.503 L 5.980 21.306 5.991 17.877 L 6.002 14.448 6.145 14.339 C 6.224 14.279,6.453 14.143,6.654 14.037 C 7.790 13.440,9.185 13.436,10.329 14.027 C 10.708 14.223,10.943 14.396,11.505 14.896 C 12.213 15.526,12.970 15.943,13.875 16.200 C 14.512 16.382,14.809 16.338,15.133 16.013 C 15.529 15.618,15.534 15.027,15.145 14.627 C 14.992 14.470,14.921 14.436,14.388 14.263 C 13.665 14.029,13.284 13.809,12.689 13.277 C 12.110 12.760,11.757 12.511,11.212 12.234 C 10.473 11.860,9.774 11.665,8.944 11.604 C 8.005 11.535,6.956 11.704,6.150 12.056 L 6.000 12.121 6.000 8.785 L 6.000 5.449 6.144 5.340 C 6.224 5.279,6.453 5.143,6.654 5.037 C 7.792 4.439,9.185 4.436,10.332 5.028 C 10.723 5.230,10.913 5.370,11.474 5.868 C 12.961 7.188,14.901 7.703,16.799 7.280 C 17.121 7.209,17.772 6.998,17.929 6.915 C 17.994 6.880,17.998 7.038,18.009 9.592 L 18.020 12.306 18.141 12.503 C 18.543 13.156,19.457 13.156,19.859 12.503 L 19.980 12.306 19.991 8.586 C 20.003 4.382,20.020 4.626,19.694 4.301 C 19.571 4.178,19.452 4.103,19.310 4.061 C 18.878 3.933,18.638 4.007,18.140 4.425 C 17.738 4.762,17.389 4.978,16.995 5.134 C 15.882 5.574,14.733 5.519,13.660 4.976 C 13.327 4.807,13.094 4.635,12.593 4.191 C 12.133 3.783,11.801 3.545,11.360 3.308 C 10.331 2.754,9.192 2.514,8.020 2.603 M18.695 15.057 C 18.466 15.129,18.256 15.299,18.128 15.516 L 18.020 15.700 18.008 16.850 L 17.995 18.000 16.944 18.000 C 15.797 18.000,15.643 18.022,15.382 18.221 C 15.302 18.282,15.187 18.415,15.128 18.516 C 15.037 18.672,15.020 18.746,15.020 19.000 C 15.020 19.256,15.036 19.328,15.131 19.489 C 15.192 19.592,15.304 19.725,15.381 19.783 C 15.642 19.983,15.738 19.996,16.908 19.998 L 17.995 20.000 18.008 21.153 L 18.020 22.307 18.141 22.503 C 18.543 23.156,19.457 23.156,19.859 22.503 L 19.980 22.307 19.992 21.153 L 20.005 20.000 21.092 19.998 C 22.262 19.996,22.358 19.983,22.619 19.783 C 22.696 19.725,22.808 19.592,22.869 19.489 C 22.964 19.328,22.980 19.256,22.980 19.000 C 22.980 18.746,22.963 18.672,22.872 18.516 C 22.813 18.415,22.698 18.282,22.618 18.221 C 22.357 18.022,22.203 18.000,21.056 18.000 L 20.005 18.000 19.992 16.850 L 19.980 15.700 19.872 15.516 C 19.628 15.101,19.150 14.915,18.695 15.057 " stroke="none" fill-rule="evenodd" fill="black"></path></svg>