<svg xmlns="http://www.w3.org/2000/svg" width="24" height="24" viewBox="0 0 24 24" fill="none" stroke="currentColor" stroke-width="2" stroke-linecap="round" stroke-linejoin="round"><path d="M4.695 4.057 C 4.466 4.129,4.256 4.299,4.128 4.516 L 4.020 4.700 4.020 13.003 L 4.020 21.306 4.141 21.503 C 4.543 22.156,5.457 22.156,5.859 21.503 L 5.980 21.306 5.991 18.153 L 6.002 15.000 12.591 14.998 C 17.991 14.997,19.207 14.987,19.330 14.943 C 19.845 14.759,20.112 14.204,19.940 13.675 C 19.874 13.473,19.749 13.339,17.895 11.479 L 15.921 9.499 17.843 7.579 C 18.900 6.524,19.813 5.579,19.873 5.480 C 19.964 5.327,19.980 5.254,19.980 5.000 C 19.980 4.744,19.964 4.672,19.869 4.511 C 19.745 4.300,19.498 4.111,19.259 4.045 C 19.010 3.975,4.917 3.987,4.695 4.057 M15.155 7.430 C 14.372 8.216,13.695 8.914,13.651 8.980 C 13.469 9.250,13.468 9.752,13.649 10.019 C 13.694 10.085,14.372 10.784,15.155 11.570 L 16.580 13.000 11.290 13.000 L 6.000 13.000 6.000 9.500 L 6.000 6.000 11.290 6.000 L 16.580 6.000 15.155 7.430 " stroke="none" fill-rule="evenodd" fill="black"></path></svg>