<svg xmlns="http://www.w3.org/2000/svg" width="24" height="24" viewBox="0 0 24 24" fill="none" stroke="currentColor" stroke-width="2" stroke-linecap="round" stroke-linejoin="round"><path d="M8.020 2.603 C 6.680 2.706,5.317 3.310,4.395 4.209 C 3.955 4.639,3.998 3.666,4.010 13.085 L 4.020 21.306 4.141 21.503 C 4.543 22.156,5.457 22.156,5.859 21.503 L 5.980 21.306 5.991 17.877 L 6.002 14.448 6.145 14.339 C 6.224 14.279,6.453 14.143,6.654 14.037 C 7.792 13.439,9.185 13.436,10.332 14.028 C 10.720 14.229,10.930 14.382,11.420 14.822 C 12.013 15.354,12.631 15.741,13.327 16.015 C 13.646 16.141,13.845 16.147,14.131 16.040 C 14.498 15.902,14.716 15.600,14.750 15.180 C 14.788 14.707,14.542 14.361,14.010 14.139 C 13.477 13.917,13.199 13.731,12.580 13.178 C 11.510 12.223,10.314 11.705,8.944 11.604 C 8.005 11.535,6.956 11.704,6.150 12.056 L 6.000 12.121 6.000 8.785 L 6.000 5.449 6.144 5.340 C 6.224 5.279,6.453 5.143,6.654 5.037 C 7.792 4.439,9.185 4.436,10.332 5.028 C 10.723 5.230,10.913 5.370,11.474 5.868 C 12.961 7.188,14.901 7.703,16.799 7.280 C 17.122 7.208,17.772 6.998,17.930 6.914 C 17.996 6.879,18.000 7.052,18.000 10.289 L 18.001 13.700 18.095 13.900 C 18.276 14.281,18.595 14.488,19.000 14.488 C 19.405 14.488,19.724 14.281,19.905 13.900 L 19.999 13.700 20.000 9.277 C 20.000 4.295,20.020 4.627,19.694 4.300 C 19.571 4.177,19.451 4.103,19.310 4.061 C 18.878 3.933,18.638 4.007,18.140 4.425 C 17.738 4.762,17.389 4.978,16.995 5.134 C 15.882 5.574,14.733 5.519,13.660 4.976 C 13.327 4.807,13.094 4.635,12.593 4.191 C 12.133 3.783,11.801 3.545,11.360 3.308 C 10.331 2.754,9.192 2.514,8.020 2.603 M20.640 16.068 C 20.488 16.121,20.196 16.394,18.731 17.853 L 17.002 19.575 16.271 18.855 C 15.655 18.247,15.509 18.123,15.343 18.067 C 14.865 17.905,14.383 18.083,14.128 18.516 C 14.036 18.672,14.020 18.745,14.021 19.000 C 14.021 19.213,14.043 19.341,14.095 19.440 C 14.197 19.633,16.297 21.740,16.520 21.873 C 16.673 21.964,16.745 21.980,17.000 21.979 C 17.212 21.979,17.341 21.957,17.440 21.905 C 17.632 21.805,21.739 17.705,21.873 17.480 C 21.964 17.328,21.980 17.254,21.980 17.000 C 21.980 16.746,21.963 16.672,21.872 16.516 C 21.617 16.083,21.121 15.903,20.640 16.068 " stroke="none" fill-rule="evenodd" fill="black"></path></svg>