<svg xmlns="http://www.w3.org/2000/svg" width="24" height="24" viewBox="0 0 24 24" fill="none" stroke="currentColor" stroke-width="2" stroke-linecap="round" stroke-linejoin="round"><path d="M2.670 2.061 C 2.448 2.142,2.250 2.309,2.128 2.516 C 2.036 2.672,2.020 2.745,2.021 3.000 C 2.021 3.213,2.043 3.341,2.095 3.440 C 2.136 3.517,2.581 3.994,3.084 4.501 L 3.999 5.421 4.010 13.364 L 4.020 21.306 4.141 21.503 C 4.543 22.156,5.457 22.156,5.859 21.503 L 5.980 21.306 5.991 17.877 L 6.002 14.448 6.145 14.339 C 6.224 14.279,6.453 14.143,6.654 14.037 C 7.792 13.439,9.185 13.436,10.332 14.028 C 10.723 14.230,10.913 14.370,11.474 14.868 C 11.679 15.051,11.996 15.299,12.177 15.419 C 12.861 15.875,13.842 16.252,14.620 16.361 L 14.980 16.411 17.700 19.121 C 19.196 20.612,20.483 21.865,20.560 21.905 C 20.659 21.957,20.788 21.979,21.000 21.979 C 21.258 21.980,21.327 21.964,21.492 21.867 C 21.968 21.587,22.139 20.967,21.865 20.508 C 21.810 20.416,17.665 16.243,12.653 11.235 C 4.231 2.820,3.525 2.125,3.343 2.065 C 3.107 1.987,2.874 1.986,2.670 2.061 M8.180 2.586 C 7.656 2.622,7.345 2.683,7.152 2.788 C 6.811 2.974,6.612 3.356,6.652 3.748 C 6.680 4.019,6.833 4.285,7.049 4.442 C 7.318 4.637,7.453 4.659,8.051 4.609 C 8.888 4.538,9.503 4.638,10.184 4.957 C 10.607 5.155,10.881 5.347,11.420 5.821 C 11.662 6.033,12.004 6.303,12.180 6.419 C 13.542 7.322,15.213 7.633,16.799 7.280 C 17.122 7.208,17.772 6.998,17.930 6.914 C 17.996 6.879,18.000 7.049,18.000 10.214 L 18.000 13.550 17.825 13.694 C 17.591 13.885,17.467 14.151,17.467 14.460 C 17.468 15.030,17.892 15.456,18.458 15.454 C 18.776 15.453,18.994 15.339,19.463 14.928 C 19.742 14.684,19.846 14.563,19.913 14.408 L 20.000 14.205 19.999 9.493 C 19.998 4.838,19.997 4.778,19.917 4.600 C 19.807 4.358,19.660 4.209,19.420 4.095 C 19.026 3.909,18.606 3.994,18.243 4.333 C 17.677 4.860,17.018 5.197,16.220 5.366 C 16.088 5.394,15.764 5.416,15.500 5.416 C 14.835 5.416,14.334 5.301,13.720 5.005 C 13.379 4.841,13.046 4.599,12.591 4.187 C 11.502 3.199,10.191 2.652,8.760 2.589 C 8.551 2.580,8.290 2.579,8.180 2.586 M8.258 9.678 L 10.496 11.917 10.253 11.841 C 8.971 11.442,7.365 11.526,6.150 12.056 L 6.000 12.121 6.000 9.781 C 6.000 8.493,6.005 7.440,6.010 7.440 C 6.016 7.440,7.027 8.447,8.258 9.678 " stroke="none" fill-rule="evenodd" fill="black"></path></svg>