<svg xmlns="http://www.w3.org/2000/svg" width="24" height="24" viewBox="0 0 24 24" fill="none" stroke="currentColor" stroke-width="2" stroke-linecap="round" stroke-linejoin="round"><path d="M11.643 2.069 C 11.277 2.198,11.250 2.244,9.700 5.356 L 8.260 8.248 5.340 9.709 C 2.186 11.286,2.195 11.281,2.065 11.664 C 1.982 11.906,1.983 12.095,2.066 12.340 C 2.198 12.725,2.217 12.737,5.356 14.300 L 8.248 15.740 9.709 18.660 C 11.286 21.814,11.281 21.805,11.664 21.935 C 11.905 22.017,12.095 22.017,12.336 21.935 C 12.719 21.805,12.714 21.814,14.291 18.660 L 15.752 15.740 18.644 14.300 C 21.783 12.737,21.802 12.725,21.934 12.340 C 22.017 12.095,22.018 11.906,21.935 11.664 C 21.805 11.281,21.813 11.286,18.666 9.715 L 15.752 8.260 14.291 5.340 C 12.695 2.149,12.714 2.181,12.313 2.062 C 12.057 1.986,11.873 1.988,11.643 2.069 M13.086 7.412 C 13.673 8.585,14.201 9.603,14.261 9.674 C 14.344 9.773,14.889 10.064,16.545 10.892 C 17.741 11.490,18.720 11.989,18.720 12.000 C 18.720 12.011,17.741 12.510,16.545 13.108 C 14.889 13.936,14.344 14.227,14.261 14.326 C 14.201 14.397,13.673 15.415,13.086 16.588 C 12.500 17.760,12.011 18.720,12.000 18.720 C 11.989 18.720,11.500 17.760,10.914 16.588 C 10.327 15.415,9.799 14.397,9.739 14.326 C 9.656 14.227,9.111 13.936,7.455 13.108 C 6.259 12.510,5.280 12.011,5.280 12.000 C 5.280 11.989,6.240 11.500,7.412 10.914 C 8.585 10.327,9.603 9.799,9.674 9.739 C 9.773 9.656,10.064 9.111,10.892 7.455 C 11.490 6.259,11.989 5.280,12.000 5.280 C 12.011 5.280,12.500 6.240,13.086 7.412 " stroke="none" fill-rule="evenodd" fill="black"></path></svg>