<svg xmlns="http://www.w3.org/2000/svg" width="24" height="24" viewBox="0 0 24 24" fill="none" stroke="currentColor" stroke-width="2" stroke-linecap="round" stroke-linejoin="round"><path d="M11.695 2.057 C 11.466 2.129,11.256 2.299,11.128 2.516 L 11.020 2.700 11.020 12.003 L 11.020 21.306 11.141 21.503 C 11.543 22.156,12.457 22.156,12.859 21.503 L 12.980 21.306 12.980 12.003 L 12.980 2.700 12.872 2.516 C 12.628 2.101,12.150 1.915,11.695 2.057 M7.647 6.065 C 7.269 6.204,7.357 6.045,4.596 11.560 L 2.023 16.700 2.021 17.000 C 2.020 17.258,2.036 17.327,2.133 17.492 C 2.261 17.710,2.502 17.901,2.724 17.961 C 2.823 17.988,3.828 17.998,5.588 17.991 L 8.300 17.980 8.489 17.869 C 8.702 17.744,8.864 17.551,8.943 17.330 C 8.987 17.208,8.997 16.226,8.998 12.020 C 8.999 8.583,8.986 6.810,8.958 6.711 C 8.897 6.493,8.685 6.238,8.473 6.129 C 8.235 6.006,7.882 5.979,7.647 6.065 M15.689 6.059 C 15.454 6.132,15.263 6.287,15.131 6.511 L 15.020 6.700 15.009 11.914 C 15.002 15.337,15.013 17.179,15.039 17.277 C 15.099 17.498,15.290 17.739,15.508 17.867 L 15.700 17.980 18.412 17.991 C 20.172 17.998,21.177 17.988,21.276 17.961 C 21.498 17.901,21.739 17.710,21.867 17.492 C 21.963 17.329,21.980 17.256,21.980 17.011 L 21.980 16.722 19.420 11.593 C 17.341 7.427,16.829 6.433,16.697 6.298 C 16.433 6.029,16.064 5.942,15.689 6.059 M7.000 13.640 L 7.000 16.000 5.820 16.000 C 5.171 16.000,4.640 15.991,4.640 15.980 C 4.640 15.954,6.977 11.280,6.990 11.280 C 6.995 11.280,7.000 12.342,7.000 13.640 M19.358 15.970 C 19.359 15.987,18.829 16.000,18.180 16.000 L 17.000 16.000 17.002 13.630 L 17.004 11.260 18.180 13.600 C 18.827 14.887,19.357 15.954,19.358 15.970 " stroke="none" fill-rule="evenodd" fill="black"></path></svg>