<svg xmlns="http://www.w3.org/2000/svg" width="24" height="24" viewBox="0 0 24 24" fill="none" stroke="currentColor" stroke-width="2" stroke-linecap="round" stroke-linejoin="round"><path d="M14.477 4.073 C 13.806 4.249,13.238 4.823,13.060 5.508 C 13.010 5.698,13.000 6.123,13.000 8.000 C 13.000 10.455,13.003 10.491,13.225 10.930 C 13.361 11.199,13.801 11.639,14.070 11.775 C 14.509 11.997,14.545 12.000,17.000 12.000 C 19.455 12.000,19.491 11.997,19.930 11.775 C 20.196 11.640,20.638 11.200,20.771 10.937 C 20.996 10.494,21.000 10.442,20.999 8.014 C 20.999 5.601,20.991 5.496,20.781 5.083 C 20.646 4.816,20.297 4.449,20.017 4.281 C 19.564 4.008,19.524 4.005,17.000 4.005 C 14.992 4.005,14.711 4.012,14.477 4.073 M3.695 6.057 C 3.466 6.129,3.256 6.299,3.128 6.516 C 3.037 6.672,3.020 6.746,3.020 7.000 C 3.020 7.256,3.036 7.328,3.131 7.489 C 3.256 7.702,3.449 7.864,3.670 7.943 C 3.891 8.022,10.109 8.022,10.330 7.943 C 10.551 7.864,10.744 7.702,10.869 7.489 C 10.964 7.328,10.980 7.256,10.980 7.000 C 10.980 6.746,10.963 6.672,10.872 6.516 C 10.740 6.293,10.533 6.128,10.290 6.055 C 10.030 5.977,3.945 5.979,3.695 6.057 M19.000 8.000 L 19.000 10.000 17.000 10.000 L 15.000 10.000 15.000 8.000 L 15.000 6.000 17.000 6.000 L 19.000 6.000 19.000 8.000 M3.695 10.057 C 3.466 10.129,3.256 10.299,3.128 10.516 C 3.037 10.672,3.020 10.746,3.020 11.000 C 3.020 11.256,3.036 11.328,3.131 11.489 C 3.256 11.702,3.449 11.864,3.670 11.943 C 3.891 12.022,10.109 12.022,10.330 11.943 C 10.551 11.864,10.744 11.702,10.869 11.489 C 10.964 11.328,10.980 11.256,10.980 11.000 C 10.980 10.746,10.963 10.672,10.872 10.516 C 10.740 10.293,10.533 10.128,10.290 10.055 C 10.030 9.977,3.945 9.979,3.695 10.057 M3.695 14.057 C 3.466 14.129,3.256 14.299,3.128 14.516 C 3.037 14.672,3.020 14.746,3.020 15.000 C 3.020 15.256,3.036 15.328,3.131 15.489 C 3.256 15.702,3.449 15.864,3.670 15.943 C 3.893 16.022,20.107 16.022,20.330 15.943 C 20.551 15.864,20.744 15.702,20.869 15.489 C 20.964 15.328,20.980 15.256,20.980 15.000 C 20.980 14.746,20.963 14.672,20.872 14.516 C 20.740 14.293,20.533 14.128,20.290 14.055 C 20.027 13.976,3.947 13.978,3.695 14.057 M3.695 18.057 C 3.466 18.129,3.256 18.299,3.128 18.516 C 3.037 18.672,3.020 18.746,3.020 19.000 C 3.020 19.256,3.036 19.328,3.131 19.489 C 3.256 19.702,3.449 19.864,3.670 19.943 C 3.893 20.022,20.107 20.022,20.330 19.943 C 20.551 19.864,20.744 19.702,20.869 19.489 C 20.964 19.328,20.980 19.256,20.980 19.000 C 20.980 18.746,20.963 18.672,20.872 18.516 C 20.740 18.293,20.533 18.128,20.290 18.055 C 20.027 17.976,3.947 17.978,3.695 18.057 " stroke="none" fill-rule="evenodd" fill="black"></path></svg>