<svg xmlns="http://www.w3.org/2000/svg" width="24" height="24" viewBox="0 0 24 24" fill="none" stroke="currentColor" stroke-width="2" stroke-linecap="round" stroke-linejoin="round"><path d="M9.477 4.073 C 8.806 4.249,8.238 4.823,8.060 5.508 C 8.010 5.698,8.000 6.123,8.000 8.000 C 8.000 10.455,8.003 10.491,8.225 10.930 C 8.361 11.199,8.801 11.639,9.070 11.775 C 9.509 11.997,9.545 12.000,12.000 12.000 C 14.455 12.000,14.491 11.997,14.930 11.775 C 15.196 11.640,15.638 11.200,15.771 10.937 C 15.996 10.494,16.000 10.442,15.999 8.014 C 15.999 5.601,15.991 5.496,15.781 5.083 C 15.646 4.816,15.297 4.449,15.017 4.281 C 14.564 4.008,14.524 4.005,12.000 4.005 C 9.992 4.005,9.711 4.012,9.477 4.073 M3.695 6.057 C 3.466 6.129,3.256 6.299,3.128 6.516 C 3.037 6.672,3.020 6.746,3.020 7.000 C 3.020 7.256,3.036 7.328,3.131 7.489 C 3.256 7.702,3.449 7.864,3.670 7.943 C 3.878 8.017,5.122 8.017,5.330 7.943 C 5.551 7.864,5.744 7.702,5.869 7.489 C 5.964 7.328,5.980 7.256,5.980 7.000 C 5.980 6.746,5.963 6.672,5.872 6.516 C 5.740 6.293,5.533 6.128,5.290 6.055 C 5.050 5.983,3.928 5.984,3.695 6.057 M14.000 8.000 L 14.000 10.000 12.000 10.000 L 10.000 10.000 10.000 8.000 L 10.000 6.000 12.000 6.000 L 14.000 6.000 14.000 8.000 M18.695 6.057 C 18.466 6.129,18.256 6.299,18.128 6.516 C 18.037 6.672,18.020 6.746,18.020 7.000 C 18.020 7.256,18.036 7.328,18.131 7.489 C 18.256 7.702,18.449 7.864,18.670 7.943 C 18.878 8.017,20.122 8.017,20.330 7.943 C 20.551 7.864,20.744 7.702,20.869 7.489 C 20.964 7.328,20.980 7.256,20.980 7.000 C 20.980 6.746,20.963 6.672,20.872 6.516 C 20.740 6.293,20.533 6.128,20.290 6.055 C 20.050 5.983,18.928 5.984,18.695 6.057 M3.695 10.057 C 3.466 10.129,3.256 10.299,3.128 10.516 C 3.037 10.672,3.020 10.746,3.020 11.000 C 3.020 11.256,3.036 11.328,3.131 11.489 C 3.256 11.702,3.449 11.864,3.670 11.943 C 3.878 12.017,5.122 12.017,5.330 11.943 C 5.551 11.864,5.744 11.702,5.869 11.489 C 5.964 11.328,5.980 11.256,5.980 11.000 C 5.980 10.746,5.963 10.672,5.872 10.516 C 5.740 10.293,5.533 10.128,5.290 10.055 C 5.050 9.983,3.928 9.984,3.695 10.057 M18.695 10.057 C 18.466 10.129,18.256 10.299,18.128 10.516 C 18.037 10.672,18.020 10.746,18.020 11.000 C 18.020 11.256,18.036 11.328,18.131 11.489 C 18.256 11.702,18.449 11.864,18.670 11.943 C 18.878 12.017,20.122 12.017,20.330 11.943 C 20.551 11.864,20.744 11.702,20.869 11.489 C 20.964 11.328,20.980 11.256,20.980 11.000 C 20.980 10.746,20.963 10.672,20.872 10.516 C 20.740 10.293,20.533 10.128,20.290 10.055 C 20.050 9.983,18.928 9.984,18.695 10.057 M3.695 14.057 C 3.466 14.129,3.256 14.299,3.128 14.516 C 3.037 14.672,3.020 14.746,3.020 15.000 C 3.020 15.256,3.036 15.328,3.131 15.489 C 3.256 15.702,3.449 15.864,3.670 15.943 C 3.893 16.022,20.107 16.022,20.330 15.943 C 20.551 15.864,20.744 15.702,20.869 15.489 C 20.964 15.328,20.980 15.256,20.980 15.000 C 20.980 14.746,20.963 14.672,20.872 14.516 C 20.740 14.293,20.533 14.128,20.290 14.055 C 20.027 13.976,3.947 13.978,3.695 14.057 M3.695 18.057 C 3.466 18.129,3.256 18.299,3.128 18.516 C 3.037 18.672,3.020 18.746,3.020 19.000 C 3.020 19.256,3.036 19.328,3.131 19.489 C 3.256 19.702,3.449 19.864,3.670 19.943 C 3.893 20.022,20.107 20.022,20.330 19.943 C 20.551 19.864,20.744 19.702,20.869 19.489 C 20.964 19.328,20.980 19.256,20.980 19.000 C 20.980 18.746,20.963 18.672,20.872 18.516 C 20.740 18.293,20.533 18.128,20.290 18.055 C 20.027 17.976,3.947 17.978,3.695 18.057 " stroke="none" fill-rule="evenodd" fill="black"></path></svg>