<svg xmlns="http://www.w3.org/2000/svg" width="24" height="24" viewBox="0 0 24 24" fill="none" stroke="currentColor" stroke-width="2" stroke-linecap="round" stroke-linejoin="round"><path d="M11.358 1.061 C 9.725 1.316,8.421 2.580,8.079 4.241 C 7.959 4.826,7.980 5.241,8.144 5.508 C 8.539 6.150,9.458 6.154,9.851 5.515 C 9.943 5.366,9.972 5.258,10.001 4.955 C 10.047 4.473,10.122 4.230,10.314 3.937 C 10.708 3.336,11.333 2.995,12.028 3.002 C 13.217 3.014,14.157 4.118,13.966 5.277 C 13.911 5.611,13.736 6.175,13.512 6.740 C 13.344 7.166,12.715 8.372,12.495 8.693 C 12.277 9.010,12.231 9.282,12.341 9.605 C 12.429 9.864,12.602 10.052,12.910 10.224 C 13.280 10.431,13.527 10.675,13.763 11.065 C 14.033 11.513,14.286 11.683,14.684 11.686 L 14.880 11.688 14.880 11.837 C 14.880 12.170,14.983 12.378,15.303 12.688 C 15.468 12.849,15.667 13.013,15.745 13.053 C 15.835 13.099,16.237 13.175,16.853 13.264 C 18.338 13.477,18.789 13.602,19.221 13.921 C 19.585 14.190,19.857 14.637,19.960 15.139 C 20.022 15.438,19.985 15.895,19.876 16.169 C 19.731 16.537,19.707 16.734,19.776 16.972 C 19.913 17.443,20.270 17.721,20.738 17.719 C 21.316 17.717,21.601 17.415,21.866 16.526 C 21.990 16.106,22.036 15.363,21.963 14.936 C 21.765 13.772,21.168 12.812,20.264 12.208 L 19.959 12.004 20.209 11.835 C 20.717 11.492,21.291 10.857,21.540 10.361 C 22.117 9.214,22.146 7.952,21.622 6.820 C 21.096 5.683,20.084 4.872,18.848 4.599 C 18.007 4.413,16.829 4.571,16.200 4.954 C 16.123 5.001,16.047 5.040,16.030 5.040 C 16.014 5.040,16.000 4.948,16.000 4.836 C 16.000 4.530,15.858 3.895,15.705 3.516 C 15.172 2.197,14.001 1.269,12.605 1.058 C 12.144 0.989,11.816 0.990,11.358 1.061 M2.670 2.061 C 2.448 2.142,2.250 2.309,2.128 2.516 C 2.036 2.672,2.020 2.745,2.021 3.000 C 2.021 3.213,2.043 3.340,2.095 3.440 C 2.136 3.517,2.528 3.942,2.967 4.384 L 3.765 5.188 3.658 5.258 C 3.311 5.485,2.840 6.003,2.567 6.457 C 2.235 7.010,2.052 7.613,2.013 8.283 C 1.961 9.193,2.233 10.124,2.761 10.840 C 3.005 11.170,3.467 11.616,3.792 11.836 L 4.044 12.006 3.792 12.168 C 3.129 12.597,2.549 13.329,2.257 14.105 C 1.607 15.830,2.258 17.828,3.796 18.833 C 4.976 19.604,6.405 19.702,7.706 19.101 L 8.000 18.965 8.000 19.166 C 8.000 19.464,8.148 20.136,8.289 20.479 C 8.714 21.516,9.490 22.292,10.512 22.704 C 12.558 23.528,14.877 22.538,15.704 20.488 C 15.858 20.105,16.000 19.471,16.000 19.163 L 16.000 18.959 16.230 19.074 C 16.676 19.297,17.241 19.448,17.820 19.499 L 18.100 19.523 19.260 20.677 C 19.898 21.312,20.483 21.864,20.560 21.905 C 20.659 21.957,20.787 21.979,21.000 21.979 C 21.258 21.980,21.327 21.964,21.492 21.867 C 21.968 21.587,22.139 20.967,21.865 20.508 C 21.810 20.416,17.665 16.243,12.653 11.235 C 4.231 2.820,3.525 2.125,3.343 2.065 C 3.107 1.987,2.874 1.986,2.670 2.061 M18.563 6.584 C 19.248 6.788,19.755 7.318,19.939 8.022 C 20.158 8.862,19.732 9.841,18.968 10.253 C 18.664 10.417,17.957 10.582,16.968 10.720 C 16.490 10.787,16.010 10.855,15.900 10.873 L 15.699 10.905 15.696 10.677 C 15.693 10.498,15.661 10.388,15.543 10.156 C 15.381 9.837,15.079 9.409,14.885 9.224 L 14.763 9.108 15.211 8.628 C 15.458 8.364,15.862 7.923,16.110 7.648 C 16.357 7.373,16.654 7.066,16.770 6.967 C 16.976 6.791,17.362 6.586,17.560 6.550 C 17.804 6.504,18.357 6.523,18.563 6.584 M8.423 10.237 C 8.350 10.382,8.268 10.572,8.241 10.660 C 8.213 10.748,8.178 10.834,8.163 10.850 C 8.120 10.898,6.233 10.617,5.711 10.485 C 5.148 10.342,4.894 10.214,4.594 9.918 C 4.107 9.437,3.892 8.672,4.061 8.022 C 4.195 7.506,4.560 7.019,5.000 6.767 L 5.220 6.641 6.887 8.307 L 8.554 9.974 8.423 10.237 M12.457 13.924 C 12.415 13.994,11.933 14.005,11.641 13.943 C 11.244 13.860,10.966 13.719,10.682 13.455 C 10.218 13.026,10.040 12.611,10.040 11.963 C 10.040 11.749,10.053 11.561,10.068 11.545 C 10.102 11.511,12.483 13.882,12.457 13.924 M8.238 13.290 C 8.359 13.692,8.719 14.301,9.051 14.664 L 9.249 14.881 8.774 15.386 C 8.514 15.664,8.108 16.107,7.874 16.369 C 7.639 16.632,7.351 16.929,7.234 17.030 C 6.581 17.589,5.695 17.648,4.905 17.185 C 4.547 16.975,4.187 16.460,4.061 15.978 C 3.891 15.323,4.108 14.558,4.603 14.074 C 5.030 13.656,5.534 13.492,7.040 13.283 C 7.513 13.218,7.945 13.156,8.000 13.147 C 8.055 13.138,8.120 13.128,8.144 13.125 C 8.168 13.122,8.210 13.197,8.238 13.290 M11.880 15.971 C 12.067 15.976,12.364 15.966,12.541 15.948 L 12.861 15.916 13.169 16.528 C 13.607 17.400,13.930 18.319,13.983 18.851 C 14.040 19.418,13.833 19.973,13.403 20.404 C 13.002 20.807,12.547 21.000,12.000 21.000 C 11.486 21.000,11.038 20.823,10.653 20.466 C 10.201 20.046,9.961 19.453,10.014 18.881 C 10.067 18.318,10.458 17.214,10.901 16.379 L 11.161 15.890 11.350 15.926 C 11.454 15.945,11.693 15.965,11.880 15.971 " stroke="none" fill-rule="evenodd" fill="black"></path></svg>