<svg xmlns="http://www.w3.org/2000/svg" width="24" height="24" viewBox="0 0 24 24" fill="none" stroke="currentColor" stroke-width="2" stroke-linecap="round" stroke-linejoin="round"><path d="M11.695 2.057 C 11.466 2.129,11.256 2.299,11.128 2.516 C 11.024 2.693,11.020 2.725,11.007 3.380 L 10.994 4.060 10.504 4.148 C 8.405 4.525,6.476 5.829,5.264 7.689 C 4.953 8.166,4.594 8.924,4.405 9.500 C 4.249 9.979,4.080 10.703,4.080 10.898 L 4.080 11.000 3.486 11.000 C 2.644 11.000,2.370 11.104,2.128 11.516 C 2.037 11.672,2.020 11.746,2.020 12.000 C 2.020 12.256,2.036 12.328,2.131 12.489 C 2.256 12.702,2.449 12.864,2.670 12.943 C 2.770 12.979,3.029 12.997,3.450 12.998 L 4.080 13.000 4.080 13.102 C 4.080 13.297,4.249 14.021,4.405 14.500 C 4.693 15.380,5.201 16.313,5.789 17.040 C 6.075 17.394,6.761 18.067,7.100 18.326 C 7.804 18.863,8.680 19.327,9.500 19.595 C 9.975 19.750,10.703 19.920,10.894 19.920 L 10.993 19.920 11.007 20.613 C 11.020 21.305,11.020 21.307,11.141 21.503 C 11.209 21.613,11.346 21.756,11.452 21.828 C 11.923 22.144,12.554 21.999,12.859 21.503 C 12.980 21.307,12.980 21.305,12.993 20.613 L 13.007 19.920 13.106 19.920 C 13.297 19.920,14.025 19.750,14.500 19.595 C 15.728 19.193,16.820 18.506,17.741 17.554 C 18.389 16.886,18.803 16.294,19.200 15.471 C 19.549 14.751,19.920 13.528,19.920 13.102 L 19.920 13.000 20.550 12.998 C 20.971 12.997,21.230 12.979,21.330 12.943 C 21.551 12.864,21.744 12.702,21.869 12.489 C 21.964 12.328,21.980 12.256,21.980 12.000 C 21.980 11.746,21.963 11.672,21.872 11.516 C 21.630 11.104,21.356 11.000,20.514 11.000 L 19.920 11.000 19.920 10.898 C 19.920 10.703,19.751 9.979,19.595 9.500 C 19.229 8.382,18.612 7.352,17.801 6.504 C 16.657 5.309,15.223 4.506,13.648 4.178 C 13.391 4.124,13.141 4.080,13.093 4.080 C 13.008 4.080,13.006 4.067,12.993 3.390 C 12.980 2.724,12.976 2.694,12.872 2.516 C 12.628 2.101,12.150 1.915,11.695 2.057 M12.564 6.039 C 14.921 6.269,16.913 7.837,17.671 10.060 C 18.168 11.517,18.068 13.251,17.410 14.580 C 16.550 16.316,15.056 17.478,13.160 17.885 C 12.554 18.015,11.446 18.015,10.840 17.885 C 8.941 17.478,7.451 16.319,6.590 14.580 C 5.932 13.251,5.832 11.517,6.329 10.060 C 6.618 9.212,7.080 8.470,7.731 7.805 C 9.008 6.503,10.757 5.864,12.564 6.039 M11.516 10.577 C 10.466 10.979,10.167 12.277,10.945 13.055 C 11.807 13.918,13.314 13.420,13.477 12.218 C 13.566 11.564,13.245 10.958,12.650 10.657 C 12.455 10.558,12.370 10.541,12.042 10.532 C 11.789 10.525,11.611 10.540,11.516 10.577 " stroke="none" fill-rule="evenodd" fill="black"></path></svg>