<svg xmlns="http://www.w3.org/2000/svg" width="24" height="24" viewBox="0 0 24 24" fill="none" stroke="currentColor" stroke-width="2" stroke-linecap="round" stroke-linejoin="round"><path d="M4.499 3.042 C 3.378 3.234,2.461 4.048,2.114 5.160 L 2.020 5.460 2.020 11.500 L 2.020 17.540 2.114 17.840 C 2.418 18.816,3.149 19.554,4.140 19.886 L 4.420 19.980 8.771 19.991 C 11.657 19.999,13.174 19.989,13.275 19.961 C 13.498 19.901,13.739 19.710,13.867 19.492 C 13.964 19.327,13.980 19.257,13.980 19.000 C 13.980 18.746,13.963 18.672,13.872 18.516 C 13.761 18.328,13.572 18.158,13.373 18.070 C 13.286 18.031,12.284 18.015,8.980 18.000 L 4.700 17.980 4.516 17.872 C 4.415 17.813,4.284 17.700,4.225 17.623 C 3.987 17.311,4.000 17.655,4.000 11.522 C 4.000 5.182,3.978 5.628,4.303 5.303 C 4.605 5.002,4.618 5.000,6.736 5.000 L 8.577 5.000 10.018 6.434 C 11.298 7.707,11.482 7.876,11.657 7.934 C 11.834 7.993,12.222 8.000,15.480 8.000 C 19.585 8.000,19.379 7.985,19.697 8.303 C 19.999 8.606,20.000 8.611,20.000 10.797 L 20.001 12.700 20.095 12.900 C 20.276 13.282,20.595 13.488,21.003 13.488 C 21.292 13.488,21.536 13.381,21.724 13.173 C 22.012 12.854,22.006 12.907,21.991 10.538 C 21.978 8.448,21.976 8.416,21.885 8.140 C 21.561 7.162,20.820 6.424,19.861 6.122 L 19.540 6.021 15.980 6.009 L 12.420 5.997 11.000 4.585 C 10.099 3.690,9.521 3.145,9.420 3.097 C 9.269 3.024,9.138 3.020,6.980 3.014 C 5.726 3.011,4.609 3.024,4.499 3.042 M18.668 15.061 C 18.585 15.092,18.462 15.156,18.395 15.203 C 18.260 15.300,16.136 18.454,16.054 18.680 C 15.893 19.127,16.117 19.673,16.550 19.886 C 16.733 19.977,16.784 19.981,17.930 20.000 L 19.120 20.020 18.600 20.800 C 17.971 21.741,17.914 21.905,18.061 22.322 C 18.284 22.955,18.992 23.187,19.570 22.815 C 19.686 22.741,19.972 22.342,20.805 21.093 C 21.401 20.198,21.917 19.387,21.950 19.289 C 22.074 18.926,21.931 18.460,21.625 18.226 C 21.365 18.028,21.326 18.023,20.070 18.001 L 18.880 17.980 19.383 17.225 C 19.660 16.810,19.912 16.399,19.943 16.310 C 20.212 15.550,19.428 14.782,18.668 15.061 " stroke="none" fill-rule="evenodd" fill="black"></path></svg>