<svg xmlns="http://www.w3.org/2000/svg" width="24" height="24" viewBox="0 0 24 24" fill="none" stroke="currentColor" stroke-width="2" stroke-linecap="round" stroke-linejoin="round"><path d="M4.499 3.042 C 3.378 3.234,2.461 4.048,2.114 5.160 L 2.020 5.460 2.020 11.500 L 2.020 17.540 2.114 17.840 C 2.418 18.816,3.149 19.554,4.140 19.886 L 4.420 19.980 8.271 19.991 C 10.824 19.999,12.173 19.989,12.275 19.961 C 12.498 19.901,12.739 19.711,12.867 19.492 C 12.964 19.327,12.980 19.257,12.980 19.000 C 12.980 18.746,12.963 18.672,12.872 18.516 C 12.761 18.328,12.572 18.158,12.373 18.070 C 12.286 18.032,11.383 18.015,8.480 18.000 L 4.700 17.980 4.516 17.872 C 4.415 17.813,4.284 17.700,4.225 17.623 C 3.987 17.311,4.000 17.655,4.000 11.522 C 4.000 5.182,3.978 5.628,4.303 5.303 C 4.605 5.002,4.618 5.000,6.736 5.000 L 8.577 5.000 10.018 6.434 C 11.298 7.707,11.482 7.876,11.657 7.934 C 11.834 7.993,12.222 8.000,15.480 8.000 C 19.585 8.000,19.379 7.985,19.697 8.303 C 19.999 8.606,20.000 8.611,20.000 10.797 L 20.001 12.700 20.095 12.900 C 20.276 13.282,20.595 13.488,21.003 13.488 C 21.292 13.488,21.536 13.381,21.724 13.173 C 22.012 12.854,22.006 12.907,21.991 10.538 C 21.978 8.448,21.976 8.416,21.885 8.140 C 21.561 7.162,20.820 6.424,19.861 6.122 L 19.540 6.021 15.980 6.009 L 12.420 5.997 11.000 4.585 C 10.099 3.690,9.521 3.145,9.420 3.097 C 9.269 3.024,9.138 3.020,6.980 3.014 C 5.726 3.011,4.609 3.024,4.499 3.042 M18.695 15.057 C 18.466 15.129,18.256 15.299,18.128 15.516 L 18.020 15.700 18.009 17.635 L 17.997 19.571 17.269 18.852 C 16.655 18.247,16.509 18.123,16.343 18.067 C 15.865 17.905,15.383 18.083,15.128 18.516 C 15.036 18.672,15.020 18.745,15.021 19.000 C 15.021 19.212,15.043 19.341,15.095 19.440 C 15.135 19.517,15.891 20.306,16.774 21.194 C 18.528 22.957,18.580 22.999,19.000 22.999 C 19.420 22.999,19.472 22.957,21.226 21.194 C 22.109 20.306,22.865 19.517,22.905 19.440 C 22.957 19.341,22.979 19.212,22.979 19.000 C 22.980 18.745,22.964 18.672,22.872 18.516 C 22.617 18.083,22.135 17.905,21.657 18.067 C 21.491 18.123,21.345 18.247,20.731 18.852 L 20.003 19.571 19.991 17.635 L 19.980 15.700 19.872 15.516 C 19.628 15.101,19.150 14.915,18.695 15.057 " stroke="none" fill-rule="evenodd" fill="black"></path></svg>