<svg xmlns="http://www.w3.org/2000/svg" width="24" height="24" viewBox="0 0 24 24" fill="none" stroke="currentColor" stroke-width="2" stroke-linecap="round" stroke-linejoin="round"><path d="M4.499 3.042 C 3.378 3.234,2.461 4.048,2.114 5.160 L 2.020 5.460 2.020 8.383 L 2.020 11.306 2.141 11.503 C 2.543 12.156,3.457 12.156,3.859 11.503 L 3.980 11.306 4.000 8.523 C 4.022 5.404,4.004 5.591,4.321 5.283 C 4.609 5.004,4.645 5.000,6.736 5.000 L 8.577 5.000 10.018 6.434 C 11.298 7.707,11.482 7.876,11.657 7.934 C 11.834 7.993,12.222 8.000,15.480 8.000 C 19.585 8.000,19.379 7.985,19.697 8.303 C 20.017 8.623,20.000 8.359,20.000 13.001 C 20.000 17.458,20.007 17.319,19.779 17.618 C 19.718 17.698,19.585 17.813,19.484 17.872 L 19.300 17.980 15.020 18.000 C 11.716 18.015,10.714 18.031,10.627 18.070 C 10.428 18.158,10.239 18.328,10.128 18.516 C 10.037 18.672,10.020 18.746,10.020 19.000 C 10.020 19.257,10.036 19.327,10.133 19.492 C 10.261 19.710,10.502 19.901,10.725 19.961 C 10.826 19.989,12.343 19.999,15.229 19.991 L 19.580 19.980 19.860 19.886 C 20.851 19.554,21.582 18.816,21.886 17.840 L 21.980 17.540 21.980 13.000 L 21.980 8.460 21.886 8.160 C 21.581 7.182,20.831 6.427,19.861 6.122 L 19.540 6.021 15.980 6.009 L 12.420 5.997 11.000 4.585 C 10.099 3.690,9.521 3.145,9.420 3.097 C 9.269 3.024,9.138 3.020,6.980 3.014 C 5.726 3.011,4.609 3.024,4.499 3.042 M7.670 10.061 C 7.448 10.142,7.250 10.309,7.128 10.516 C 7.036 10.672,7.020 10.745,7.021 11.000 C 7.021 11.213,7.043 11.340,7.096 11.440 C 7.136 11.517,7.486 11.900,7.873 12.290 L 8.577 13.000 7.179 13.000 C 5.680 13.000,5.242 13.037,4.755 13.204 C 3.366 13.680,2.372 14.805,2.081 16.233 C 2.001 16.627,1.998 16.742,2.009 18.975 L 2.020 21.306 2.141 21.503 C 2.543 22.156,3.457 22.156,3.859 21.503 L 3.980 21.306 4.001 18.943 C 4.025 16.305,4.016 16.392,4.314 15.937 C 4.508 15.642,4.712 15.446,5.014 15.265 C 5.414 15.025,5.617 15.000,7.186 15.000 L 8.577 15.000 7.873 15.710 C 7.486 16.101,7.139 16.481,7.101 16.555 C 6.872 17.008,7.056 17.601,7.508 17.867 C 7.673 17.964,7.742 17.980,8.000 17.979 C 8.212 17.979,8.341 17.957,8.440 17.905 C 8.517 17.865,9.306 17.109,10.194 16.226 C 11.957 14.472,11.999 14.420,11.999 14.000 C 11.999 13.578,11.960 13.530,10.175 11.756 C 8.716 10.307,8.519 10.124,8.343 10.066 C 8.108 9.987,7.875 9.986,7.670 10.061 " stroke="none" fill-rule="evenodd" fill="black"></path></svg>