<svg xmlns="http://www.w3.org/2000/svg" width="24" height="24" viewBox="0 0 24 24" fill="none" stroke="currentColor" stroke-width="2" stroke-linecap="round" stroke-linejoin="round"><path d="M4.499 3.042 C 3.378 3.234,2.461 4.048,2.114 5.160 L 2.020 5.460 2.020 11.500 L 2.020 17.540 2.114 17.840 C 2.418 18.816,3.149 19.554,4.140 19.886 L 4.420 19.980 8.271 19.991 C 10.824 19.999,12.173 19.989,12.275 19.961 C 12.498 19.901,12.739 19.711,12.867 19.492 C 12.964 19.327,12.980 19.257,12.980 19.000 C 12.980 18.746,12.963 18.672,12.872 18.516 C 12.761 18.328,12.572 18.158,12.373 18.070 C 12.286 18.032,11.383 18.015,8.480 18.000 L 4.700 17.980 4.516 17.872 C 4.415 17.813,4.284 17.700,4.225 17.623 C 3.987 17.311,4.000 17.655,4.000 11.522 C 4.000 5.182,3.978 5.628,4.303 5.303 C 4.605 5.002,4.618 5.000,6.736 5.000 L 8.577 5.000 10.018 6.434 C 11.298 7.707,11.482 7.876,11.657 7.934 C 11.834 7.993,12.222 8.000,15.480 8.000 C 19.585 8.000,19.379 7.985,19.697 8.303 C 19.999 8.606,20.000 8.611,20.000 10.797 L 20.001 12.700 20.095 12.900 C 20.276 13.282,20.595 13.488,21.003 13.488 C 21.292 13.488,21.536 13.381,21.724 13.173 C 22.012 12.854,22.006 12.907,21.991 10.538 C 21.978 8.448,21.976 8.416,21.885 8.140 C 21.561 7.162,20.820 6.424,19.861 6.122 L 19.540 6.021 15.980 6.009 L 12.420 5.997 11.000 4.585 C 10.099 3.690,9.521 3.145,9.420 3.097 C 9.269 3.024,9.138 3.020,6.980 3.014 C 5.726 3.011,4.609 3.024,4.499 3.042 M18.580 15.096 C 18.424 15.171,18.029 15.545,16.774 16.806 C 15.891 17.694,15.135 18.483,15.095 18.560 C 15.043 18.659,15.021 18.788,15.021 19.000 C 15.020 19.258,15.036 19.327,15.133 19.492 C 15.263 19.714,15.502 19.901,15.736 19.965 C 15.939 20.019,16.267 19.989,16.445 19.899 C 16.519 19.861,16.899 19.514,17.289 19.128 L 17.997 18.426 18.009 20.366 L 18.020 22.306 18.141 22.503 C 18.543 23.156,19.457 23.156,19.859 22.503 L 19.980 22.306 19.991 20.366 L 20.003 18.426 20.711 19.128 C 21.101 19.514,21.483 19.864,21.560 19.904 C 21.660 19.957,21.787 19.979,22.000 19.979 C 22.258 19.980,22.327 19.964,22.492 19.867 C 22.714 19.737,22.901 19.498,22.965 19.264 C 23.019 19.061,22.989 18.733,22.899 18.555 C 22.862 18.481,22.109 17.694,21.226 16.806 C 19.472 15.043,19.420 15.001,19.000 15.001 C 18.851 15.001,18.716 15.031,18.580 15.096 " stroke="none" fill-rule="evenodd" fill="black"></path></svg>