<svg xmlns="http://www.w3.org/2000/svg" width="24" height="24" viewBox="0 0 24 24" fill="none" stroke="currentColor" stroke-width="2" stroke-linecap="round" stroke-linejoin="round"><path d="M2.670 2.061 C 2.448 2.142,2.250 2.309,2.128 2.516 C 2.036 2.672,2.020 2.745,2.021 3.000 C 2.022 3.367,2.077 3.481,2.427 3.844 L 2.681 4.108 2.605 4.204 C 2.343 4.537,2.121 5.057,2.041 5.522 C 2.010 5.705,2.000 7.504,2.008 11.680 L 2.020 17.580 2.114 17.860 C 2.443 18.840,3.160 19.557,4.140 19.886 L 4.420 19.980 11.500 19.991 L 18.579 20.002 19.500 20.916 C 20.006 21.419,20.483 21.864,20.560 21.905 C 20.659 21.957,20.787 21.979,21.000 21.979 C 21.258 21.980,21.327 21.964,21.492 21.867 C 21.968 21.587,22.139 20.967,21.865 20.508 C 21.810 20.416,17.665 16.243,12.653 11.235 C 4.231 2.820,3.525 2.125,3.343 2.065 C 3.107 1.987,2.874 1.986,2.670 2.061 M7.695 3.055 C 7.464 3.130,7.255 3.300,7.128 3.516 C 7.037 3.672,7.020 3.746,7.020 4.000 C 7.020 4.256,7.036 4.328,7.131 4.489 C 7.350 4.861,7.632 4.996,8.198 4.998 L 8.577 5.000 10.018 6.434 C 11.298 7.707,11.482 7.876,11.657 7.934 C 11.834 7.993,12.222 8.000,15.480 8.000 C 19.549 8.000,19.375 7.988,19.679 8.283 C 20.003 8.598,19.978 8.224,20.000 13.023 L 20.020 17.306 20.141 17.503 C 20.543 18.156,21.457 18.156,21.859 17.503 L 21.980 17.306 21.980 12.883 L 21.980 8.460 21.886 8.160 C 21.581 7.182,20.831 6.427,19.861 6.122 L 19.540 6.021 15.980 6.009 L 12.420 5.997 11.000 4.585 C 10.099 3.690,9.521 3.145,9.420 3.097 C 9.284 3.031,9.155 3.019,8.560 3.011 C 8.064 3.005,7.812 3.018,7.695 3.055 M10.360 11.780 L 16.580 18.001 10.640 17.990 L 4.700 17.980 4.516 17.872 C 4.415 17.813,4.284 17.700,4.225 17.623 C 3.987 17.311,4.000 17.656,4.000 11.510 C 4.000 6.025,4.009 5.560,4.116 5.560 C 4.129 5.560,6.939 8.359,10.360 11.780 " stroke="none" fill-rule="evenodd" fill="black"></path></svg>