<svg xmlns="http://www.w3.org/2000/svg" width="24" height="24" viewBox="0 0 24 24" fill="none" stroke="currentColor" stroke-width="2" stroke-linecap="round" stroke-linejoin="round"><path d="M4.499 3.042 C 3.378 3.234,2.461 4.048,2.114 5.160 L 2.020 5.460 2.020 11.500 L 2.020 17.540 2.114 17.840 C 2.422 18.827,3.173 19.578,4.160 19.886 L 4.460 19.980 12.000 19.980 L 19.540 19.980 19.840 19.886 C 20.827 19.578,21.578 18.827,21.886 17.840 L 21.980 17.540 21.980 13.000 L 21.980 8.460 21.886 8.160 C 21.581 7.182,20.831 6.427,19.861 6.122 L 19.540 6.021 15.980 6.009 L 12.420 5.997 11.000 4.585 C 10.099 3.690,9.521 3.145,9.420 3.097 C 9.269 3.024,9.138 3.020,6.980 3.014 C 5.726 3.011,4.609 3.024,4.499 3.042 M10.018 6.434 C 11.298 7.707,11.482 7.876,11.657 7.934 C 11.834 7.993,12.222 8.000,15.480 8.000 C 19.585 8.000,19.379 7.985,19.697 8.303 C 20.017 8.623,20.000 8.359,20.000 13.001 C 20.000 17.458,20.007 17.319,19.779 17.618 C 19.718 17.698,19.585 17.813,19.484 17.872 L 19.300 17.980 16.150 17.991 L 13.000 18.002 13.000 16.927 L 13.000 15.853 13.330 15.688 C 14.069 15.318,14.635 14.645,14.886 13.840 C 15.021 13.406,15.021 12.594,14.886 12.160 C 14.581 11.181,13.822 10.418,12.861 10.125 C 12.588 10.042,12.458 10.027,12.000 10.027 C 11.542 10.027,11.412 10.042,11.139 10.125 C 10.178 10.418,9.419 11.181,9.114 12.160 C 8.979 12.594,8.979 13.406,9.114 13.840 C 9.365 14.645,9.931 15.318,10.670 15.688 L 11.000 15.853 11.000 16.927 L 11.000 18.002 7.850 17.991 L 4.700 17.980 4.516 17.872 C 4.415 17.813,4.284 17.700,4.225 17.623 C 3.987 17.311,4.000 17.655,4.000 11.522 C 4.000 5.181,3.978 5.628,4.304 5.303 C 4.601 5.006,4.598 5.006,6.718 5.003 L 8.577 5.000 10.018 6.434 M12.310 12.061 C 12.688 12.173,13.000 12.598,13.000 13.001 C 13.000 13.331,12.784 13.696,12.484 13.872 C 12.328 13.963,12.254 13.980,12.000 13.980 C 11.746 13.980,11.672 13.963,11.516 13.872 C 10.935 13.530,10.833 12.774,11.304 12.303 C 11.583 12.024,11.916 11.944,12.310 12.061 " stroke="none" fill-rule="evenodd" fill="black"></path></svg>