<svg xmlns="http://www.w3.org/2000/svg" width="24" height="24" viewBox="0 0 24 24" fill="none" stroke="currentColor" stroke-width="2" stroke-linecap="round" stroke-linejoin="round"><path d="M8.695 4.057 C 8.466 4.129,8.256 4.299,8.128 4.516 C 8.025 4.692,8.019 4.728,8.007 5.350 L 7.993 6.000 6.443 6.000 C 4.759 6.000,4.658 6.011,4.382 6.221 C 4.302 6.282,4.187 6.415,4.128 6.516 L 4.020 6.700 4.008 8.350 L 3.997 10.000 3.445 10.000 C 2.648 10.000,2.367 10.110,2.128 10.516 L 2.020 10.700 2.020 14.120 L 2.020 17.540 2.114 17.840 C 2.422 18.827,3.174 19.579,4.160 19.886 C 4.594 20.021,5.406 20.021,5.840 19.886 C 6.645 19.635,7.318 19.069,7.688 18.330 L 7.853 18.000 9.500 18.000 L 11.147 18.000 11.312 18.330 C 11.682 19.069,12.355 19.635,13.160 19.886 C 13.594 20.021,14.406 20.021,14.840 19.886 C 15.816 19.582,16.559 18.845,16.884 17.860 C 16.974 17.587,16.977 17.533,16.991 15.790 L 17.005 14.000 17.499 14.000 L 17.993 14.000 18.007 14.650 C 18.020 15.277,18.024 15.307,18.131 15.489 C 18.256 15.702,18.449 15.864,18.670 15.943 C 18.888 16.021,22.112 16.021,22.330 15.943 C 22.551 15.864,22.744 15.702,22.869 15.489 C 22.964 15.328,22.980 15.256,22.980 15.000 C 22.980 14.746,22.963 14.672,22.872 14.516 C 22.813 14.415,22.698 14.282,22.618 14.221 C 22.356 14.022,22.203 14.000,21.054 14.000 L 20.001 14.000 19.991 9.350 L 19.980 4.700 19.871 4.514 C 19.479 3.848,18.521 3.848,18.129 4.514 L 18.020 4.700 18.009 8.350 L 17.998 12.000 17.499 12.000 L 17.000 12.000 17.000 11.381 L 17.000 10.762 15.415 7.591 C 14.150 5.058,13.800 4.391,13.679 4.275 C 13.390 3.999,13.398 4.000,11.003 4.003 C 9.369 4.005,8.821 4.018,8.695 4.057 M13.370 7.980 C 13.915 9.069,14.360 9.969,14.360 9.980 C 14.360 9.991,13.379 10.000,12.180 10.000 L 10.000 10.000 10.000 8.000 L 10.000 6.000 11.190 6.000 L 12.380 6.000 13.370 7.980 M8.000 9.000 L 8.000 10.000 7.000 10.000 L 6.000 10.000 6.000 9.000 L 6.000 8.000 7.000 8.000 L 8.000 8.000 8.000 9.000 M15.000 13.083 C 15.000 14.095,14.995 14.164,14.930 14.145 C 14.892 14.134,14.779 14.102,14.680 14.074 C 14.574 14.044,14.287 14.024,13.980 14.025 C 13.548 14.027,13.406 14.044,13.139 14.125 C 12.359 14.362,11.679 14.937,11.312 15.670 L 11.147 16.000 9.500 16.000 L 7.853 16.000 7.688 15.670 C 7.321 14.937,6.641 14.362,5.861 14.125 C 5.594 14.044,5.452 14.027,5.020 14.025 C 4.713 14.024,4.426 14.044,4.320 14.074 C 4.221 14.102,4.109 14.134,4.070 14.145 C 4.005 14.164,4.000 14.095,4.000 13.083 L 4.000 12.000 9.500 12.000 L 15.000 12.000 15.000 13.083 M5.334 16.064 C 5.698 16.188,6.000 16.613,6.000 17.001 C 6.000 17.331,5.784 17.696,5.484 17.872 C 5.328 17.963,5.254 17.980,5.000 17.980 C 4.746 17.980,4.672 17.963,4.516 17.872 C 3.937 17.531,3.833 16.774,4.301 16.306 C 4.587 16.019,4.952 15.934,5.334 16.064 M14.334 16.064 C 14.698 16.188,15.000 16.613,15.000 17.001 C 15.000 17.331,14.784 17.696,14.484 17.872 C 14.328 17.963,14.254 17.980,14.000 17.980 C 13.746 17.980,13.672 17.963,13.516 17.872 C 12.937 17.531,12.833 16.774,13.301 16.306 C 13.587 16.019,13.952 15.934,14.334 16.064 " stroke="none" fill-rule="evenodd" fill="black"></path></svg>