<svg xmlns="http://www.w3.org/2000/svg" width="24" height="24" viewBox="0 0 24 24" fill="none" stroke="currentColor" stroke-width="2" stroke-linecap="round" stroke-linejoin="round"><path d="M8.358 2.061 C 6.725 2.316,5.421 3.580,5.079 5.241 C 4.959 5.826,4.980 6.241,5.144 6.508 C 5.539 7.150,6.458 7.154,6.851 6.515 C 6.943 6.366,6.972 6.258,7.001 5.955 C 7.047 5.473,7.122 5.230,7.314 4.937 C 7.810 4.181,8.661 3.848,9.523 4.073 C 10.022 4.203,10.516 4.599,10.772 5.071 C 11.002 5.497,10.999 5.407,10.999 10.410 L 11.000 15.000 10.502 15.000 L 10.004 15.000 9.991 12.710 C 9.978 10.438,9.977 10.418,9.885 10.140 C 9.560 9.160,8.811 8.415,7.861 8.125 C 7.588 8.042,7.458 8.027,7.000 8.027 C 6.542 8.027,6.412 8.042,6.139 8.125 C 5.178 8.418,4.414 9.186,4.115 10.160 C 4.045 10.390,4.023 10.559,4.022 10.883 C 4.020 11.285,4.026 11.315,4.141 11.503 C 4.446 11.998,5.077 12.144,5.548 11.828 C 5.816 11.647,5.951 11.410,5.999 11.031 C 6.049 10.636,6.114 10.485,6.321 10.283 C 6.490 10.120,6.777 10.000,7.000 10.000 C 7.237 10.000,7.514 10.120,7.697 10.303 C 8.002 10.608,8.000 10.595,8.000 12.947 L 8.000 15.000 5.446 15.000 C 2.675 15.000,2.672 15.000,2.382 15.221 C 2.302 15.282,2.187 15.415,2.128 15.516 L 2.020 15.700 2.008 17.024 C 1.997 18.242,2.003 18.381,2.081 18.763 C 2.222 19.457,2.508 20.054,2.954 20.584 C 3.529 21.266,4.331 21.735,5.243 21.921 C 5.622 21.998,5.805 22.000,12.000 22.000 C 18.195 22.000,18.378 21.998,18.757 21.921 C 20.117 21.643,21.193 20.755,21.704 19.488 C 21.970 18.828,22.006 18.522,21.992 17.024 L 21.980 15.700 21.872 15.516 C 21.813 15.415,21.698 15.282,21.618 15.221 C 21.328 15.000,21.325 15.000,18.554 15.000 L 16.000 15.000 16.000 12.947 C 16.000 10.595,15.998 10.608,16.303 10.303 C 16.486 10.120,16.763 10.000,17.000 10.000 C 17.223 10.000,17.510 10.120,17.679 10.283 C 17.886 10.485,17.951 10.636,18.001 11.031 C 18.049 11.410,18.184 11.647,18.452 11.828 C 18.923 12.144,19.554 11.998,19.859 11.503 C 19.974 11.315,19.980 11.285,19.978 10.883 C 19.977 10.559,19.955 10.390,19.885 10.160 C 19.586 9.186,18.822 8.418,17.861 8.125 C 17.588 8.042,17.458 8.027,17.000 8.027 C 16.542 8.027,16.412 8.042,16.139 8.125 C 15.189 8.415,14.440 9.160,14.115 10.140 C 14.023 10.418,14.022 10.438,14.009 12.710 L 13.996 15.000 13.498 15.000 L 13.000 15.000 13.000 10.398 C 13.000 5.286,12.991 5.471,13.265 5.014 C 13.972 3.833,15.537 3.654,16.461 4.649 C 16.826 5.042,16.918 5.290,17.021 6.165 C 17.051 6.412,17.236 6.694,17.465 6.839 C 17.938 7.139,18.558 6.992,18.856 6.508 C 18.956 6.345,18.977 6.264,18.991 5.988 C 19.021 5.393,18.784 4.540,18.421 3.932 C 17.834 2.949,16.756 2.232,15.605 2.058 C 15.121 1.986,14.879 1.986,14.395 2.058 C 13.581 2.181,12.832 2.552,12.192 3.151 L 12.000 3.331 11.808 3.151 C 11.168 2.552,10.419 2.181,9.605 2.058 C 9.144 1.989,8.816 1.990,8.358 2.061 M19.999 17.590 C 19.998 18.558,19.879 18.919,19.400 19.404 C 19.119 19.690,18.854 19.846,18.492 19.940 C 18.147 20.030,5.853 20.030,5.508 19.940 C 4.823 19.762,4.249 19.194,4.073 18.523 C 4.023 18.331,4.004 18.090,4.002 17.630 L 4.000 17.000 12.000 17.000 L 20.000 17.000 19.999 17.590 " stroke="none" fill-rule="evenodd" fill="black"></path></svg>