<svg xmlns="http://www.w3.org/2000/svg" width="24" height="24" viewBox="0 0 24 24" fill="none" stroke="currentColor" stroke-width="2" stroke-linecap="round" stroke-linejoin="round"><path d="M6.695 3.057 C 6.466 3.129,6.256 3.299,6.128 3.516 L 6.020 3.700 6.008 4.850 L 5.995 6.000 4.944 6.000 C 3.797 6.000,3.643 6.022,3.382 6.221 C 3.302 6.282,3.187 6.415,3.128 6.516 C 3.037 6.672,3.020 6.746,3.020 7.000 C 3.020 7.256,3.036 7.328,3.131 7.489 C 3.192 7.592,3.304 7.725,3.381 7.783 C 3.643 7.983,3.738 7.996,4.910 7.998 L 6.000 8.000 6.000 12.000 L 6.000 16.000 4.946 16.000 C 3.797 16.000,3.644 16.022,3.382 16.221 C 3.302 16.282,3.187 16.415,3.128 16.516 C 3.037 16.672,3.020 16.746,3.020 17.000 C 3.020 17.256,3.036 17.328,3.131 17.489 C 3.192 17.592,3.304 17.725,3.381 17.783 C 3.642 17.983,3.738 17.996,4.908 17.998 L 5.995 18.000 6.008 19.153 L 6.020 20.307 6.141 20.503 C 6.543 21.156,7.457 21.156,7.859 20.503 L 7.980 20.307 7.992 19.153 L 8.005 18.000 12.000 18.000 L 15.995 18.000 16.008 19.153 L 16.020 20.307 16.141 20.503 C 16.543 21.156,17.457 21.156,17.859 20.503 L 17.980 20.307 17.992 19.153 L 18.005 18.000 19.092 17.998 C 20.262 17.996,20.358 17.983,20.619 17.783 C 20.696 17.725,20.808 17.592,20.869 17.489 C 20.964 17.328,20.980 17.256,20.980 17.000 C 20.980 16.746,20.963 16.672,20.872 16.516 C 20.813 16.415,20.698 16.282,20.618 16.221 C 20.356 16.022,20.203 16.000,19.054 16.000 L 18.000 16.000 18.000 12.000 L 18.000 8.000 19.090 7.998 C 20.262 7.996,20.357 7.983,20.619 7.783 C 20.696 7.725,20.808 7.592,20.869 7.489 C 20.964 7.328,20.980 7.256,20.980 7.000 C 20.980 6.746,20.963 6.672,20.872 6.516 C 20.813 6.415,20.698 6.282,20.618 6.221 C 20.357 6.022,20.203 6.000,19.056 6.000 L 18.005 6.000 17.992 4.850 L 17.980 3.700 17.871 3.514 C 17.479 2.848,16.521 2.848,16.129 3.514 L 16.020 3.700 16.008 4.850 L 15.995 6.000 12.000 6.000 L 8.005 6.000 7.992 4.850 L 7.980 3.700 7.872 3.516 C 7.628 3.101,7.150 2.915,6.695 3.057 M16.000 12.000 L 16.000 16.000 12.000 16.000 L 8.000 16.000 8.000 12.000 L 8.000 8.000 12.000 8.000 L 16.000 8.000 16.000 12.000 " stroke="none" fill-rule="evenodd" fill="black"></path></svg>