<svg xmlns="http://www.w3.org/2000/svg" width="24" height="24" viewBox="0 0 24 24" fill="none" stroke="currentColor" stroke-width="2" stroke-linecap="round" stroke-linejoin="round"><path d="M2.670 2.061 C 2.448 2.142,2.250 2.309,2.128 2.516 C 2.036 2.672,2.020 2.745,2.021 3.000 C 2.021 3.213,2.043 3.341,2.095 3.440 C 2.136 3.517,2.711 4.124,3.374 4.790 L 4.578 6.000 4.235 6.000 C 3.664 6.000,3.344 6.149,3.128 6.516 C 3.037 6.672,3.020 6.746,3.020 7.000 C 3.020 7.256,3.036 7.328,3.131 7.489 C 3.192 7.592,3.304 7.725,3.381 7.783 C 3.643 7.983,3.738 7.996,4.910 7.998 L 6.000 8.000 6.000 12.000 L 6.000 16.000 4.946 16.000 C 3.797 16.000,3.644 16.022,3.382 16.221 C 3.302 16.282,3.187 16.415,3.128 16.516 C 3.037 16.672,3.020 16.746,3.020 17.000 C 3.020 17.256,3.036 17.328,3.131 17.489 C 3.192 17.592,3.304 17.725,3.381 17.783 C 3.642 17.983,3.738 17.996,4.908 17.998 L 5.995 18.000 6.008 19.153 L 6.020 20.307 6.141 20.503 C 6.543 21.156,7.457 21.156,7.859 20.503 L 7.980 20.307 7.992 19.153 L 8.005 18.000 12.000 18.000 L 15.995 18.000 16.008 19.153 L 16.020 20.307 16.141 20.503 C 16.543 21.156,17.457 21.156,17.858 20.504 C 17.970 20.323,17.980 20.274,17.994 19.869 L 18.009 19.431 19.215 20.631 C 19.878 21.291,20.483 21.864,20.560 21.905 C 20.659 21.957,20.787 21.979,21.000 21.979 C 21.258 21.980,21.327 21.964,21.492 21.867 C 21.968 21.587,22.139 20.967,21.865 20.508 C 21.810 20.416,17.665 16.243,12.653 11.235 C 4.231 2.820,3.525 2.125,3.343 2.065 C 3.107 1.987,2.874 1.986,2.670 2.061 M16.695 3.057 C 16.466 3.129,16.256 3.299,16.128 3.516 L 16.020 3.700 16.008 4.850 L 15.995 6.000 13.444 6.000 C 10.676 6.000,10.672 6.000,10.382 6.221 C 10.302 6.282,10.187 6.415,10.128 6.516 C 10.037 6.672,10.020 6.746,10.020 7.000 C 10.020 7.256,10.036 7.328,10.131 7.489 C 10.256 7.702,10.449 7.864,10.670 7.943 C 10.789 7.986,11.351 7.997,13.409 7.998 L 15.998 8.000 16.009 10.653 L 16.020 13.306 16.141 13.503 C 16.543 14.156,17.457 14.156,17.859 13.503 L 17.980 13.306 17.991 10.653 L 18.002 8.000 19.091 7.998 C 20.262 7.996,20.358 7.983,20.619 7.783 C 20.696 7.725,20.808 7.592,20.869 7.489 C 20.964 7.328,20.980 7.256,20.980 7.000 C 20.980 6.746,20.963 6.672,20.872 6.516 C 20.813 6.415,20.698 6.282,20.618 6.221 C 20.357 6.022,20.203 6.000,19.056 6.000 L 18.005 6.000 17.992 4.850 L 17.980 3.700 17.872 3.516 C 17.628 3.101,17.150 2.915,16.695 3.057 M11.300 12.720 L 14.580 16.000 11.290 16.000 L 8.000 16.000 8.000 12.720 C 8.000 10.916,8.005 9.440,8.010 9.440 C 8.016 9.440,9.496 10.916,11.300 12.720 " stroke="none" fill-rule="evenodd" fill="black"></path></svg>