<svg xmlns="http://www.w3.org/2000/svg" width="24" height="24" viewBox="0 0 24 24" fill="none" stroke="currentColor" stroke-width="2" stroke-linecap="round" stroke-linejoin="round"><path d="M11.080 2.045 C 9.507 2.184,7.883 2.751,6.540 3.630 C 5.905 4.045,5.499 4.378,4.919 4.958 C 2.953 6.926,1.919 9.544,2.013 12.320 C 2.084 14.439,2.752 16.328,4.033 18.040 C 4.430 18.570,5.305 19.464,5.800 19.847 C 7.242 20.961,8.787 21.624,10.600 21.907 C 11.247 22.008,12.753 22.008,13.400 21.907 C 15.638 21.557,17.504 20.620,19.062 19.062 C 20.620 17.504,21.557 15.638,21.907 13.400 C 22.008 12.753,22.008 11.247,21.907 10.600 C 21.624 8.786,20.959 7.238,19.847 5.800 C 19.510 5.365,18.639 4.494,18.200 4.154 C 16.133 2.555,13.646 1.818,11.080 2.045 M12.734 4.041 C 14.574 4.216,16.228 4.976,17.554 6.256 C 20.044 8.659,20.701 12.389,19.183 15.501 C 18.951 15.977,18.392 16.880,18.329 16.880 C 18.315 16.880,18.032 16.611,17.701 16.282 C 17.026 15.612,16.884 15.522,16.498 15.521 C 15.700 15.518,15.227 16.409,15.682 17.060 C 15.744 17.148,16.038 17.463,16.337 17.759 C 16.636 18.056,16.880 18.312,16.880 18.328 C 16.880 18.392,15.946 18.971,15.480 19.197 C 13.265 20.265,10.737 20.267,8.529 19.200 C 7.477 18.693,6.612 18.015,5.847 17.100 C 3.847 14.709,3.440 11.305,4.818 8.496 C 5.057 8.008,5.609 7.120,5.673 7.120 C 5.688 7.120,5.944 7.364,6.241 7.663 C 6.869 8.296,7.038 8.424,7.305 8.470 C 8.017 8.593,8.595 8.013,8.469 7.303 C 8.421 7.034,8.296 6.869,7.663 6.241 C 7.364 5.944,7.120 5.688,7.120 5.673 C 7.120 5.609,8.008 5.057,8.496 4.818 C 9.815 4.171,11.277 3.903,12.734 4.041 M11.695 6.057 C 11.466 6.129,11.256 6.299,11.128 6.516 C 11.024 6.693,11.019 6.727,11.007 7.361 L 10.994 8.023 10.787 8.071 C 10.060 8.242,9.411 8.869,9.132 9.669 C 9.035 9.946,9.023 10.038,9.023 10.500 C 9.023 10.965,9.035 11.054,9.134 11.338 C 9.389 12.069,9.930 12.632,10.623 12.887 C 10.835 12.964,10.959 12.975,11.800 12.990 C 12.688 13.006,12.745 13.011,12.831 13.091 C 13.032 13.278,13.044 13.654,12.855 13.879 L 12.753 14.000 11.984 14.000 C 11.136 14.000,11.153 14.005,10.986 13.733 C 10.534 13.000,9.419 13.152,9.178 13.980 C 9.054 14.407,9.224 14.829,9.718 15.320 C 10.043 15.643,10.323 15.808,10.734 15.921 L 10.980 15.988 11.000 16.647 C 11.020 17.295,11.022 17.310,11.141 17.503 C 11.543 18.156,12.457 18.156,12.859 17.503 C 12.979 17.308,12.980 17.302,12.993 16.642 L 13.006 15.977 13.213 15.929 C 13.931 15.760,14.593 15.123,14.866 14.338 C 14.965 14.054,14.977 13.965,14.977 13.500 C 14.977 13.038,14.965 12.946,14.868 12.669 C 14.576 11.832,13.871 11.182,13.103 11.043 C 12.972 11.019,12.501 11.000,12.056 11.000 L 11.247 11.000 11.145 10.879 C 10.959 10.658,10.960 10.341,11.147 10.119 L 11.247 10.000 12.016 10.000 C 12.571 10.000,12.802 10.014,12.847 10.050 C 12.881 10.078,12.967 10.186,13.037 10.291 C 13.400 10.831,14.089 10.903,14.558 10.448 C 14.790 10.224,14.905 9.910,14.859 9.629 C 14.756 8.998,13.946 8.222,13.233 8.072 L 13.006 8.025 12.993 7.362 C 12.981 6.726,12.976 6.693,12.872 6.516 C 12.628 6.101,12.150 5.915,11.695 6.057 " stroke="none" fill-rule="evenodd" fill="black"></path></svg>