<svg xmlns="http://www.w3.org/2000/svg" width="24" height="24" viewBox="0 0 24 24" fill="none" stroke="currentColor" stroke-width="2" stroke-linecap="round" stroke-linejoin="round"><path d="M4.499 2.043 C 3.380 2.232,2.461 3.048,2.114 4.160 L 2.020 4.460 2.020 12.000 L 2.020 19.540 2.114 19.840 C 2.422 20.827,3.173 21.578,4.160 21.886 L 4.460 21.980 12.000 21.980 L 19.540 21.980 19.840 21.886 C 20.827 21.578,21.578 20.827,21.886 19.840 L 21.980 19.540 21.980 12.000 L 21.980 4.460 21.886 4.160 C 21.581 3.182,20.832 2.428,19.861 2.121 L 19.540 2.020 12.120 2.014 C 8.039 2.011,4.609 2.024,4.499 2.043 M5.560 5.540 L 4.020 7.080 4.009 5.993 C 3.997 4.703,4.016 4.590,4.303 4.303 C 4.584 4.022,4.675 4.006,5.980 4.003 L 7.100 4.000 5.560 5.540 M10.580 6.000 L 8.580 8.000 7.240 8.000 L 5.900 8.000 7.900 6.000 L 9.900 4.000 11.240 4.000 L 12.580 4.000 10.580 6.000 M16.100 6.000 L 14.100 8.000 12.760 8.000 L 11.420 8.000 13.420 6.000 L 15.420 4.000 16.760 4.000 L 18.100 4.000 16.100 6.000 M20.000 6.460 L 20.000 8.000 18.450 8.000 L 16.900 8.000 18.440 6.460 C 19.287 5.613,19.984 4.920,19.990 4.920 C 19.995 4.920,20.000 5.613,20.000 6.460 M20.000 14.554 C 20.000 19.497,20.008 19.318,19.779 19.618 C 19.718 19.698,19.585 19.813,19.484 19.872 L 19.300 19.980 12.000 19.980 L 4.700 19.980 4.516 19.872 C 4.415 19.813,4.284 19.700,4.225 19.623 C 3.989 19.314,4.000 19.557,4.000 14.575 L 4.000 10.000 12.000 10.000 L 20.000 10.000 20.000 14.554 " stroke="none" fill-rule="evenodd" fill="black"></path></svg>