<svg xmlns="http://www.w3.org/2000/svg" width="24" height="24" viewBox="0 0 24 24" fill="none" stroke="currentColor" stroke-width="2" stroke-linecap="round" stroke-linejoin="round"><path d="M6.499 2.043 C 5.379 2.233,4.461 3.048,4.114 4.160 L 4.020 4.460 4.020 12.000 L 4.020 19.540 4.114 19.840 C 4.422 20.827,5.173 21.578,6.160 21.886 L 6.460 21.980 12.000 21.980 L 17.540 21.980 17.840 21.886 C 18.827 21.578,19.578 20.827,19.886 19.840 L 19.980 19.540 19.980 12.000 L 19.980 4.460 19.886 4.160 C 19.581 3.182,18.832 2.428,17.861 2.121 L 17.540 2.020 12.120 2.014 C 9.139 2.011,6.609 2.024,6.499 2.043 M17.310 4.061 C 17.452 4.103,17.571 4.178,17.697 4.303 C 18.002 4.608,18.000 4.595,18.000 6.947 L 18.000 9.000 12.000 9.000 L 6.000 9.000 6.000 6.947 C 6.000 4.594,5.998 4.608,6.304 4.303 C 6.621 3.985,6.234 4.006,11.983 4.003 C 16.458 4.000,17.131 4.008,17.310 4.061 M8.695 5.057 C 8.466 5.129,8.256 5.299,8.128 5.516 C 8.020 5.699,8.020 5.703,8.020 6.503 L 8.020 7.306 8.141 7.503 C 8.543 8.156,9.457 8.156,9.859 7.503 L 9.980 7.306 9.980 6.503 C 9.980 5.703,9.980 5.699,9.872 5.516 C 9.628 5.101,9.150 4.915,8.695 5.057 M18.000 15.054 C 18.000 19.453,18.006 19.320,17.779 19.618 C 17.718 19.698,17.585 19.813,17.484 19.872 L 17.300 19.980 12.000 19.980 L 6.700 19.980 6.516 19.872 C 6.415 19.813,6.284 19.700,6.225 19.623 C 5.990 19.315,6.000 19.511,6.000 15.075 L 6.000 11.000 12.000 11.000 L 18.000 11.000 18.000 15.054 M8.695 12.057 C 8.466 12.129,8.256 12.299,8.128 12.516 L 8.020 12.700 8.020 14.503 L 8.020 16.306 8.141 16.503 C 8.543 17.156,9.457 17.156,9.859 16.503 L 9.980 16.306 9.980 14.503 L 9.980 12.700 9.872 12.516 C 9.628 12.101,9.150 11.915,8.695 12.057 " stroke="none" fill-rule="evenodd" fill="black"></path></svg>