<svg xmlns="http://www.w3.org/2000/svg" width="24" height="24" viewBox="0 0 24 24" fill="none" stroke="currentColor" stroke-width="2" stroke-linecap="round" stroke-linejoin="round"><path d="M6.499 2.040 C 5.363 2.246,4.460 3.049,4.114 4.160 C 3.979 4.594,3.979 5.406,4.114 5.840 C 4.421 6.826,5.174 7.579,6.160 7.886 C 6.594 8.021,7.406 8.021,7.840 7.886 C 8.826 7.579,9.579 6.826,9.886 5.840 C 10.021 5.406,10.021 4.594,9.886 4.160 C 9.581 3.179,8.810 2.407,7.861 2.129 C 7.500 2.023,6.832 1.980,6.499 2.040 M16.499 2.040 C 15.363 2.246,14.460 3.049,14.114 4.160 C 13.979 4.594,13.979 5.406,14.114 5.840 C 14.421 6.826,15.174 7.579,16.160 7.886 C 16.594 8.021,17.406 8.021,17.840 7.886 C 18.826 7.579,19.579 6.826,19.886 5.840 C 20.021 5.406,20.021 4.594,19.886 4.160 C 19.581 3.179,18.810 2.407,17.861 2.129 C 17.500 2.023,16.832 1.980,16.499 2.040 M7.310 4.061 C 7.688 4.173,8.000 4.598,8.000 5.001 C 8.000 5.331,7.784 5.696,7.484 5.872 C 7.328 5.963,7.254 5.980,7.000 5.980 C 6.746 5.980,6.672 5.963,6.516 5.872 C 5.935 5.530,5.833 4.774,6.304 4.303 C 6.583 4.024,6.916 3.944,7.310 4.061 M17.310 4.061 C 17.688 4.173,18.000 4.598,18.000 5.001 C 18.000 5.331,17.784 5.696,17.484 5.872 C 17.328 5.963,17.254 5.980,17.000 5.980 C 16.746 5.980,16.672 5.963,16.516 5.872 C 15.932 5.528,15.831 4.775,16.307 4.299 C 16.582 4.024,16.918 3.944,17.310 4.061 M4.477 10.073 C 3.806 10.249,3.238 10.823,3.060 11.508 C 3.010 11.697,3.000 12.116,3.000 13.941 C 3.000 15.884,3.008 16.169,3.066 16.339 C 3.117 16.489,3.230 16.634,3.565 16.980 L 3.998 17.426 4.009 19.866 L 4.020 22.306 4.141 22.503 C 4.543 23.156,5.457 23.156,5.859 22.503 L 5.980 22.306 5.991 19.587 C 6.001 17.146,5.995 16.847,5.936 16.668 C 5.884 16.510,5.781 16.377,5.435 16.020 L 5.000 15.571 5.000 13.786 L 5.000 12.000 7.000 12.000 L 9.000 12.000 9.000 13.786 L 9.000 15.571 8.565 16.020 C 8.219 16.377,8.116 16.510,8.064 16.668 C 8.005 16.847,7.999 17.146,8.009 19.587 L 8.020 22.306 8.141 22.503 C 8.543 23.156,9.457 23.156,9.859 22.503 L 9.980 22.306 9.991 19.866 L 10.002 17.426 10.435 16.980 C 10.770 16.634,10.883 16.489,10.934 16.339 C 10.992 16.169,11.000 15.887,10.999 13.963 C 10.999 11.605,10.990 11.495,10.781 11.083 C 10.646 10.816,10.297 10.449,10.017 10.281 C 9.564 10.008,9.524 10.005,7.000 10.005 C 4.992 10.005,4.711 10.012,4.477 10.073 M15.477 10.073 C 14.779 10.256,14.178 10.892,14.039 11.597 C 14.014 11.720,13.544 13.177,12.992 14.836 C 12.035 17.716,11.991 17.864,12.011 18.086 C 12.047 18.481,12.301 18.811,12.670 18.943 C 12.768 18.978,13.022 18.997,13.408 18.998 L 13.997 19.000 14.008 20.653 L 14.020 22.306 14.141 22.503 C 14.543 23.156,15.457 23.156,15.859 22.503 L 15.980 22.306 15.980 20.003 L 15.980 17.700 15.872 17.516 C 15.654 17.146,15.337 17.000,14.749 17.000 C 14.480 17.000,14.396 16.988,14.410 16.950 C 14.584 16.480,16.000 12.151,16.000 12.088 L 16.000 12.000 17.000 12.000 L 18.000 12.000 18.000 12.088 C 18.000 12.151,19.416 16.480,19.590 16.950 C 19.604 16.988,19.520 17.000,19.251 17.000 C 18.663 17.000,18.346 17.146,18.128 17.516 L 18.020 17.700 18.020 20.003 L 18.020 22.306 18.141 22.503 C 18.543 23.156,19.457 23.156,19.859 22.503 L 19.980 22.306 19.992 20.653 L 20.003 19.000 20.575 19.000 C 21.259 19.000,21.454 18.948,21.701 18.701 C 21.885 18.518,22.000 18.241,22.000 17.984 C 22.000 17.880,21.645 16.755,21.002 14.822 C 20.453 13.171,19.976 11.698,19.942 11.550 C 19.860 11.186,19.725 10.933,19.465 10.653 C 19.198 10.366,18.870 10.164,18.523 10.073 C 18.134 9.972,15.866 9.972,15.477 10.073 " stroke="none" fill-rule="evenodd" fill="black"></path></svg>