<svg xmlns="http://www.w3.org/2000/svg" width="24" height="24" viewBox="0 0 24 24" fill="none" stroke="currentColor" stroke-width="2" stroke-linecap="round" stroke-linejoin="round"><path d="M2.670 2.061 C 2.448 2.142,2.250 2.309,2.128 2.516 C 2.036 2.672,2.020 2.745,2.021 3.000 C 2.021 3.214,2.043 3.340,2.096 3.440 C 2.137 3.517,2.418 3.832,2.722 4.140 L 3.273 4.700 3.147 5.060 L 3.020 5.420 3.020 11.980 L 3.020 18.540 3.114 18.840 C 3.422 19.827,4.173 20.578,5.160 20.886 L 5.460 20.980 12.020 20.980 L 18.580 20.980 18.940 20.853 L 19.300 20.727 19.860 21.278 C 20.168 21.582,20.483 21.863,20.560 21.904 C 20.660 21.957,20.786 21.979,21.000 21.979 C 21.258 21.980,21.327 21.964,21.492 21.867 C 21.968 21.587,22.139 20.967,21.865 20.508 C 21.810 20.416,17.665 16.243,12.653 11.235 C 4.231 2.820,3.525 2.125,3.343 2.065 C 3.107 1.987,2.874 1.986,2.670 2.061 M7.695 3.057 C 7.465 3.129,7.256 3.299,7.128 3.516 C 7.037 3.672,7.020 3.746,7.020 4.000 C 7.020 4.256,7.036 4.328,7.131 4.489 C 7.256 4.702,7.449 4.864,7.670 4.943 C 7.792 4.987,8.771 4.997,12.963 4.998 C 18.717 5.000,18.369 4.983,18.679 5.283 C 19.005 5.600,18.978 5.102,19.000 11.023 L 19.020 16.306 19.141 16.503 C 19.543 17.156,20.457 17.156,20.859 16.503 L 20.980 16.306 20.980 10.883 L 20.980 5.460 20.886 5.160 C 20.581 4.182,19.832 3.428,18.861 3.121 L 18.540 3.020 13.200 3.012 C 8.900 3.006,7.828 3.015,7.695 3.057 M13.280 6.045 C 12.751 6.131,12.079 6.591,11.744 7.097 C 11.466 7.516,11.297 8.261,11.397 8.628 C 11.465 8.881,11.668 9.124,11.917 9.250 C 12.527 9.559,13.243 9.190,13.344 8.514 C 13.395 8.172,13.535 8.000,13.762 8.000 C 13.923 8.000,14.000 8.139,14.000 8.430 C 14.001 9.042,14.422 9.488,15.000 9.488 C 15.405 9.488,15.724 9.281,15.905 8.900 C 16.090 8.507,16.014 7.726,15.739 7.204 C 15.271 6.319,14.329 5.874,13.280 6.045 M9.150 11.004 C 8.925 11.017,8.689 11.049,8.627 11.074 C 8.435 11.152,8.241 11.325,8.128 11.516 C 8.037 11.672,8.020 11.746,8.020 12.000 C 8.020 12.256,8.036 12.328,8.131 12.489 C 8.192 12.592,8.304 12.725,8.381 12.783 C 8.641 12.981,8.742 12.996,9.850 12.998 C 10.646 13.000,10.880 13.011,10.881 13.050 C 10.884 13.318,10.617 15.688,10.573 15.784 C 10.477 15.994,10.224 16.064,10.080 15.920 C 10.016 15.856,10.000 15.786,10.000 15.570 C 9.999 15.126,9.758 14.735,9.391 14.582 C 9.200 14.502,8.800 14.502,8.609 14.582 C 8.401 14.669,8.207 14.865,8.095 15.100 C 7.909 15.493,7.986 16.273,8.262 16.799 C 8.637 17.513,9.439 17.999,10.240 17.999 C 10.899 17.998,11.417 17.781,11.908 17.299 C 12.458 16.758,12.577 16.422,12.702 15.060 C 12.740 14.642,12.783 14.287,12.797 14.271 C 12.811 14.255,13.893 15.313,15.201 16.621 L 17.580 19.001 11.640 18.990 L 5.700 18.980 5.516 18.872 C 5.415 18.813,5.284 18.700,5.225 18.623 C 4.987 18.311,5.000 18.677,5.000 12.285 L 5.000 6.420 7.280 8.700 L 9.561 10.980 9.150 11.004 " stroke="none" fill-rule="evenodd" fill="black"></path></svg>