<svg xmlns="http://www.w3.org/2000/svg" width="24" height="24" viewBox="0 0 24 24" fill="none" stroke="currentColor" stroke-width="2" stroke-linecap="round" stroke-linejoin="round"><path d="M6.280 3.025 C 5.436 3.157,4.946 3.361,4.359 3.829 C 3.889 4.204,3.444 4.814,3.245 5.360 C 3.003 6.022,3.020 5.530,3.020 12.000 C 3.020 18.470,3.003 17.978,3.245 18.640 C 3.581 19.559,4.441 20.419,5.360 20.755 C 6.022 20.997,5.530 20.980,12.000 20.980 C 18.470 20.980,17.978 20.997,18.640 20.755 C 19.559 20.419,20.419 19.559,20.755 18.640 C 20.997 17.978,20.980 18.470,20.980 12.000 C 20.980 5.530,20.997 6.022,20.755 5.360 C 20.419 4.442,19.564 3.586,18.640 3.244 C 18.002 3.008,18.431 3.023,12.140 3.016 C 8.972 3.013,6.335 3.017,6.280 3.025 M17.926 5.111 C 18.365 5.289,18.711 5.635,18.889 6.074 L 18.980 6.300 18.991 11.857 C 18.998 15.485,18.988 17.489,18.961 17.632 C 18.843 18.269,18.371 18.777,17.740 18.946 C 17.578 18.989,16.495 18.999,12.000 18.999 C 7.505 18.999,6.422 18.989,6.260 18.946 C 5.632 18.778,5.160 18.273,5.040 17.642 C 4.985 17.351,4.985 6.649,5.040 6.358 C 5.164 5.707,5.690 5.169,6.327 5.042 C 6.422 5.023,9.020 5.011,12.100 5.014 L 17.700 5.020 17.926 5.111 M13.280 6.045 C 13.159 6.064,12.907 6.155,12.720 6.246 C 12.120 6.540,11.651 7.090,11.464 7.719 C 11.428 7.839,11.336 8.586,11.258 9.379 C 11.180 10.171,11.108 10.861,11.097 10.910 L 11.078 11.000 9.986 11.000 C 8.794 11.000,8.645 11.021,8.382 11.221 C 8.302 11.282,8.187 11.415,8.128 11.516 C 8.037 11.672,8.020 11.746,8.020 12.000 C 8.020 12.256,8.036 12.328,8.131 12.489 C 8.192 12.592,8.304 12.725,8.381 12.783 C 8.641 12.981,8.742 12.996,9.850 12.998 C 10.646 13.000,10.880 13.011,10.881 13.050 C 10.884 13.318,10.617 15.688,10.573 15.784 C 10.477 15.994,10.224 16.064,10.080 15.920 C 10.016 15.856,10.000 15.786,10.000 15.570 C 9.999 15.126,9.758 14.735,9.391 14.582 C 9.200 14.502,8.800 14.502,8.609 14.582 C 8.401 14.669,8.207 14.865,8.095 15.100 C 8.018 15.264,8.001 15.364,8.001 15.660 C 8.001 16.354,8.208 16.872,8.668 17.332 C 9.370 18.034,10.401 18.198,11.311 17.752 C 11.665 17.579,12.182 17.075,12.351 16.740 C 12.555 16.333,12.596 16.109,12.742 14.621 C 12.820 13.829,12.892 13.139,12.903 13.090 L 12.922 13.000 14.051 12.998 C 15.265 12.996,15.356 12.984,15.619 12.783 C 15.696 12.725,15.808 12.592,15.869 12.489 C 15.964 12.328,15.980 12.256,15.980 12.000 C 15.980 11.746,15.963 11.672,15.872 11.516 C 15.813 11.415,15.698 11.282,15.618 11.221 C 15.359 11.024,15.199 11.000,14.114 11.000 C 13.346 11.000,13.120 10.989,13.119 10.950 C 13.116 10.682,13.383 8.312,13.427 8.216 C 13.523 8.006,13.776 7.936,13.920 8.080 C 13.984 8.144,14.000 8.214,14.000 8.430 C 14.001 9.042,14.422 9.488,15.000 9.488 C 15.405 9.488,15.724 9.281,15.905 8.900 C 16.090 8.507,16.014 7.726,15.739 7.204 C 15.271 6.319,14.333 5.876,13.280 6.045 " stroke="none" fill-rule="evenodd" fill="black"></path></svg>