<svg xmlns="http://www.w3.org/2000/svg" width="24" height="24" viewBox="0 0 24 24" fill="none" stroke="currentColor" stroke-width="2" stroke-linecap="round" stroke-linejoin="round"><path d="M11.670 2.055 C 11.153 2.248,10.233 3.238,9.750 4.120 C 9.420 4.722,9.158 5.621,9.056 6.500 C 8.914 7.719,9.069 9.071,9.465 10.072 C 9.593 10.395,9.901 11.019,10.005 11.166 C 10.105 11.308,10.101 11.320,9.950 11.320 C 9.393 11.319,8.478 11.065,7.840 10.735 C 6.405 9.992,5.486 8.899,5.256 7.660 C 5.162 7.156,5.095 6.991,4.909 6.810 C 4.700 6.604,4.504 6.520,4.236 6.520 C 3.822 6.520,3.536 6.682,3.330 7.033 C 3.231 7.201,3.221 7.255,3.226 7.560 C 3.237 8.158,3.530 9.089,3.934 9.812 C 4.405 10.654,5.313 11.555,6.318 12.177 C 7.485 12.899,8.591 13.247,9.925 13.314 L 10.446 13.340 10.236 13.640 C 9.776 14.297,9.004 14.936,8.185 15.337 C 6.963 15.935,5.829 16.034,4.754 15.638 C 4.064 15.383,3.492 15.581,3.280 16.149 C 3.179 16.420,3.179 16.581,3.282 16.857 C 3.404 17.182,3.624 17.358,4.131 17.535 C 4.971 17.828,5.426 17.899,6.291 17.868 C 7.271 17.834,8.105 17.609,9.096 17.114 C 10.466 16.429,11.509 15.478,12.193 14.290 C 12.272 14.153,12.349 14.040,12.363 14.040 C 12.377 14.040,12.465 14.204,12.558 14.404 C 12.906 15.154,13.046 16.045,12.967 17.011 C 12.854 18.408,12.406 19.359,11.507 20.108 C 11.180 20.380,11.043 20.599,11.012 20.894 C 10.956 21.441,11.349 21.932,11.888 21.987 C 12.183 22.017,12.393 21.950,12.686 21.729 C 13.316 21.256,13.989 20.432,14.336 19.710 C 14.802 18.741,15.035 17.498,14.988 16.240 C 14.945 15.123,14.730 14.265,14.249 13.300 C 14.151 13.102,14.036 12.892,13.995 12.834 C 13.954 12.775,13.920 12.715,13.920 12.699 C 13.920 12.663,14.359 12.706,14.791 12.783 C 16.078 13.015,17.546 13.981,18.219 15.040 C 18.480 15.450,18.636 15.838,18.743 16.340 C 18.867 16.930,18.908 17.023,19.127 17.225 C 19.618 17.676,20.323 17.557,20.671 16.966 C 20.766 16.803,20.780 16.740,20.776 16.460 C 20.772 16.099,20.621 15.436,20.435 14.968 C 19.953 13.754,19.176 12.834,17.924 11.997 C 16.641 11.139,15.562 10.775,14.047 10.688 L 13.554 10.660 13.764 10.360 C 14.052 9.948,14.630 9.387,15.055 9.105 C 15.515 8.801,16.289 8.430,16.724 8.305 C 17.629 8.045,18.377 8.062,19.240 8.363 C 19.825 8.566,20.167 8.524,20.490 8.210 C 20.655 8.049,20.800 7.717,20.800 7.500 C 20.800 7.179,20.581 6.815,20.280 6.634 C 20.001 6.467,19.227 6.243,18.633 6.158 C 18.167 6.091,17.220 6.131,16.714 6.238 C 15.565 6.482,14.197 7.165,13.254 7.965 C 12.718 8.420,12.168 9.083,11.807 9.710 C 11.728 9.848,11.651 9.960,11.637 9.960 C 11.581 9.960,11.268 9.210,11.181 8.866 C 10.858 7.596,11.003 6.067,11.543 5.039 C 11.736 4.673,12.136 4.186,12.479 3.903 C 12.636 3.772,12.810 3.588,12.865 3.494 C 13.134 3.037,12.967 2.411,12.503 2.140 C 12.286 2.012,11.891 1.972,11.670 2.055 " stroke="none" fill-rule="evenodd" fill="black"></path></svg>