<svg xmlns="http://www.w3.org/2000/svg" width="24" height="24" viewBox="0 0 24 24" fill="none" stroke="currentColor" stroke-width="2" stroke-linecap="round" stroke-linejoin="round"><path d="M2.670 2.061 C 2.334 2.184,2.071 2.492,2.018 2.824 C 1.993 2.982,1.984 2.990,1.796 3.033 C 1.024 3.212,0.743 4.122,1.287 4.682 C 1.552 4.956,1.636 4.977,2.538 5.000 L 3.336 5.020 4.168 7.099 L 5.000 9.179 5.000 14.219 C 5.001 19.687,4.991 19.436,5.221 19.905 C 5.610 20.701,6.603 21.161,7.455 20.940 C 7.796 20.851,8.090 20.699,8.317 20.495 C 8.442 20.383,9.179 19.404,10.237 17.947 C 11.182 16.645,11.979 15.548,12.008 15.508 C 12.060 15.439,12.105 15.440,13.153 15.551 C 14.124 15.653,14.252 15.675,14.328 15.750 L 14.413 15.835 14.306 16.074 C 14.091 16.552,14.025 16.890,14.025 17.500 C 14.025 17.954,14.042 18.121,14.113 18.380 C 14.395 19.402,15.073 20.217,16.010 20.661 C 16.519 20.902,16.864 20.975,17.500 20.975 C 18.110 20.975,18.448 20.909,18.925 20.694 L 19.164 20.587 19.792 21.209 C 20.137 21.551,20.483 21.864,20.560 21.904 C 20.660 21.957,20.786 21.979,21.000 21.979 C 21.258 21.980,21.327 21.964,21.492 21.867 C 21.968 21.587,22.139 20.967,21.865 20.508 C 21.810 20.416,17.665 16.243,12.653 11.235 C 4.231 2.820,3.525 2.125,3.343 2.065 C 3.107 1.987,2.874 1.986,2.670 2.061 M11.695 7.057 C 11.466 7.129,11.256 7.299,11.128 7.516 C 11.037 7.672,11.020 7.746,11.020 8.000 C 11.020 8.256,11.036 8.328,11.131 8.489 C 11.256 8.702,11.449 8.864,11.670 8.943 C 11.791 8.986,12.545 8.997,15.590 8.998 C 17.663 8.999,19.360 9.009,19.360 9.019 C 19.360 9.030,18.834 10.093,18.190 11.381 L 17.020 13.724 17.022 14.012 C 17.024 14.451,17.209 14.740,17.600 14.917 C 17.972 15.085,18.484 14.977,18.736 14.677 C 18.798 14.604,19.553 13.133,20.414 11.410 L 21.980 8.277 21.980 7.989 C 21.980 7.747,21.962 7.670,21.872 7.516 C 21.740 7.293,21.533 7.128,21.290 7.055 C 21.029 6.976,11.946 6.978,11.695 7.057 M9.780 11.200 C 11.561 12.981,11.961 13.400,11.880 13.400 C 11.704 13.399,10.376 13.244,10.195 13.203 C 9.298 13.000,8.556 12.425,8.147 11.615 C 8.063 11.449,7.656 10.452,7.156 9.190 L 7.081 9.000 7.331 9.000 L 7.580 9.000 9.780 11.200 M7.640 14.125 C 8.135 14.542,8.741 14.867,9.388 15.063 C 9.582 15.121,9.745 15.174,9.752 15.180 C 9.763 15.190,7.112 18.857,7.036 18.938 C 7.015 18.961,7.000 17.866,7.000 16.240 L 7.000 13.504 7.210 13.722 C 7.325 13.842,7.519 14.024,7.640 14.125 M16.800 18.225 L 17.580 19.009 17.348 18.987 C 16.852 18.940,16.370 18.598,16.155 18.140 C 16.060 17.938,15.953 17.440,16.005 17.440 C 16.014 17.440,16.372 17.793,16.800 18.225 " stroke="none" fill-rule="evenodd" fill="black"></path></svg>