<svg xmlns="http://www.w3.org/2000/svg" width="24" height="24" viewBox="0 0 24 24" fill="none" stroke="currentColor" stroke-width="2" stroke-linecap="round" stroke-linejoin="round"><path d="M5.499 3.042 C 4.388 3.233,3.488 4.024,3.114 5.140 L 3.020 5.420 3.009 12.204 L 2.998 18.988 2.785 19.035 C 2.515 19.096,2.270 19.275,2.129 19.514 C 2.036 19.672,2.020 19.745,2.020 20.000 C 2.020 20.256,2.036 20.328,2.131 20.489 C 2.256 20.702,2.449 20.864,2.670 20.943 C 2.892 21.022,15.108 21.022,15.330 20.943 C 15.551 20.864,15.744 20.702,15.869 20.489 C 15.964 20.328,15.980 20.256,15.980 20.000 C 15.980 19.745,15.964 19.672,15.871 19.514 C 15.730 19.275,15.485 19.096,15.214 19.035 L 15.000 18.987 15.000 15.494 C 15.000 12.629,15.009 12.000,15.053 12.000 C 15.240 12.000,15.531 12.137,15.697 12.303 C 15.995 12.602,16.000 12.636,16.001 14.577 C 16.001 16.465,16.017 16.610,16.265 17.120 C 16.378 17.351,16.491 17.499,16.756 17.761 C 17.280 18.279,17.785 18.490,18.500 18.490 C 19.215 18.490,19.720 18.279,20.244 17.761 C 20.509 17.499,20.622 17.351,20.735 17.120 C 21.005 16.567,20.999 16.672,20.999 12.520 L 20.999 8.780 20.904 8.580 C 20.830 8.423,20.457 8.030,19.175 6.756 C 17.716 5.307,17.519 5.124,17.343 5.066 C 16.863 4.906,16.382 5.084,16.128 5.516 C 16.037 5.672,16.020 5.746,16.020 6.000 C 16.020 6.386,16.102 6.529,16.617 7.039 L 17.000 7.418 17.000 7.841 C 17.000 8.554,17.156 8.965,17.596 9.404 C 17.958 9.767,18.457 10.000,18.868 10.000 L 19.000 10.000 19.000 13.044 C 19.000 16.366,19.007 16.268,18.773 16.421 C 18.648 16.503,18.351 16.506,18.238 16.427 C 18.015 16.271,18.022 16.331,17.998 14.300 C 17.977 12.477,17.973 12.412,17.884 12.140 C 17.695 11.565,17.381 11.098,16.911 10.695 C 16.474 10.320,15.893 10.078,15.288 10.018 L 15.004 9.990 14.991 7.705 C 14.978 5.438,14.977 5.418,14.885 5.140 C 14.560 4.161,13.820 3.424,12.861 3.122 L 12.540 3.021 9.120 3.014 C 7.239 3.011,5.609 3.023,5.499 3.042 M12.310 5.061 C 12.452 5.103,12.571 5.178,12.697 5.303 C 13.002 5.608,13.000 5.595,13.000 7.947 L 13.000 10.000 9.000 10.000 L 5.000 10.000 5.000 7.947 C 5.000 5.594,4.998 5.608,5.304 5.303 C 5.613 4.993,5.459 5.006,8.983 5.003 C 11.668 5.000,12.134 5.009,12.310 5.061 M13.000 15.500 L 13.000 19.000 9.000 19.000 L 5.000 19.000 5.000 15.500 L 5.000 12.000 9.000 12.000 L 13.000 12.000 13.000 15.500 " stroke="none" fill-rule="evenodd" fill="black"></path></svg>