<svg xmlns="http://www.w3.org/2000/svg" width="24" height="24" viewBox="0 0 24 24" fill="none" stroke="currentColor" stroke-width="2" stroke-linecap="round" stroke-linejoin="round"><path d="M7.640 3.068 C 7.486 3.121,7.151 3.438,5.347 5.235 C 4.185 6.393,3.189 7.416,3.134 7.508 C 2.862 7.968,3.032 8.587,3.508 8.867 C 3.673 8.964,3.742 8.980,4.000 8.979 C 4.213 8.979,4.340 8.957,4.440 8.904 C 4.517 8.864,4.900 8.513,5.291 8.126 L 6.001 7.422 8.055 9.475 L 10.109 11.529 9.970 11.734 C 9.608 12.271,9.276 13.088,9.115 13.840 C 8.984 14.450,8.984 15.558,9.114 16.160 C 9.639 18.588,11.417 20.365,13.840 20.885 C 14.446 21.015,15.554 21.015,16.160 20.885 C 17.397 20.620,18.412 20.068,19.269 19.195 C 20.109 18.340,20.626 17.369,20.885 16.160 C 20.960 15.810,20.975 15.617,20.975 15.000 C 20.975 14.383,20.960 14.190,20.885 13.840 C 20.477 11.936,19.323 10.453,17.580 9.590 C 16.252 8.932,14.521 8.832,13.060 9.328 C 12.671 9.460,12.064 9.756,11.735 9.974 L 11.529 10.109 9.475 8.055 L 7.422 6.001 8.126 5.291 C 8.513 4.900,8.864 4.517,8.904 4.440 C 8.957 4.340,8.979 4.213,8.979 4.000 C 8.980 3.745,8.964 3.672,8.872 3.516 C 8.617 3.083,8.121 2.903,7.640 3.068 M15.605 11.058 C 16.855 11.247,17.964 12.042,18.536 13.160 C 18.767 13.611,18.871 13.930,18.942 14.395 C 19.014 14.879,19.014 15.121,18.942 15.605 C 18.691 17.265,17.434 18.579,15.773 18.917 C 13.563 19.368,11.396 17.845,11.058 15.605 C 10.986 15.121,10.986 14.879,11.058 14.395 C 11.314 12.698,12.675 11.324,14.358 11.061 C 14.816 10.990,15.144 10.989,15.605 11.058 " stroke="none" fill-rule="evenodd" fill="black"></path></svg>