<svg xmlns="http://www.w3.org/2000/svg" width="24" height="24" viewBox="0 0 24 24" fill="none" stroke="currentColor" stroke-width="2" stroke-linecap="round" stroke-linejoin="round"><path d="M11.695 2.057 C 11.466 2.129,11.256 2.299,11.128 2.516 C 11.022 2.696,11.020 2.717,11.007 3.467 L 10.994 4.234 10.534 3.956 C 9.845 3.540,9.797 3.520,9.512 3.520 C 8.758 3.522,8.295 4.241,8.608 4.926 C 8.726 5.182,8.845 5.283,9.480 5.660 C 9.733 5.810,9.963 5.950,9.990 5.971 C 10.027 6.000,9.878 6.109,9.452 6.366 C 9.128 6.562,8.823 6.760,8.774 6.805 C 8.639 6.932,8.509 7.273,8.509 7.500 C 8.510 8.053,8.965 8.501,9.520 8.495 C 9.769 8.492,9.853 8.455,10.538 8.041 L 11.001 7.761 10.991 8.927 L 10.980 10.093 10.700 10.149 C 10.333 10.223,9.770 10.417,9.420 10.590 C 7.681 11.451,6.521 12.942,6.115 14.840 C 5.984 15.450,5.984 16.558,6.114 17.160 C 6.639 19.588,8.417 21.365,10.840 21.885 C 11.190 21.960,11.383 21.975,12.000 21.975 C 12.822 21.975,13.248 21.909,13.940 21.672 C 15.954 20.982,17.426 19.298,17.885 17.160 C 18.015 16.554,18.015 15.446,17.885 14.840 C 17.477 12.936,16.323 11.453,14.580 10.590 C 14.230 10.417,13.667 10.223,13.300 10.149 L 13.020 10.093 13.009 8.947 C 13.004 8.316,13.010 7.800,13.024 7.800 C 13.037 7.800,13.240 7.915,13.474 8.055 C 14.124 8.445,14.232 8.492,14.480 8.495 C 15.223 8.503,15.702 7.752,15.389 7.069 C 15.271 6.811,15.188 6.743,14.462 6.315 C 14.187 6.153,13.962 6.011,13.962 6.000 C 13.962 5.989,14.187 5.847,14.462 5.685 C 15.188 5.257,15.271 5.189,15.389 4.931 C 15.705 4.241,15.246 3.522,14.488 3.520 C 14.203 3.520,14.155 3.540,13.466 3.956 L 13.006 4.234 12.993 3.467 C 12.980 2.717,12.978 2.696,12.872 2.516 C 12.628 2.101,12.150 1.915,11.695 2.057 M12.605 12.058 C 13.855 12.247,14.964 13.042,15.536 14.160 C 15.767 14.611,15.871 14.930,15.942 15.395 C 16.014 15.879,16.014 16.121,15.942 16.605 C 15.691 18.265,14.434 19.579,12.773 19.917 C 10.563 20.368,8.396 18.845,8.058 16.605 C 7.986 16.121,7.986 15.879,8.058 15.395 C 8.314 13.698,9.675 12.324,11.358 12.061 C 11.816 11.990,12.144 11.989,12.605 12.058 " stroke="none" fill-rule="evenodd" fill="black"></path></svg>