<svg xmlns="http://www.w3.org/2000/svg" width="24" height="24" viewBox="0 0 24 24" fill="none" stroke="currentColor" stroke-width="2" stroke-linecap="round" stroke-linejoin="round"><path d="M11.380 3.043 C 8.784 3.299,6.676 5.219,6.115 7.840 C 5.984 8.450,5.984 9.558,6.114 10.160 C 6.441 11.670,7.235 12.918,8.443 13.820 C 9.146 14.344,9.882 14.668,10.890 14.897 L 11.000 14.922 11.000 15.961 L 11.000 17.000 9.946 17.000 C 8.797 17.000,8.644 17.022,8.382 17.221 C 8.302 17.282,8.187 17.415,8.128 17.516 C 8.037 17.672,8.020 17.746,8.020 18.000 C 8.020 18.256,8.036 18.328,8.131 18.489 C 8.192 18.592,8.304 18.725,8.381 18.783 C 8.642 18.983,8.738 18.996,9.908 18.998 L 10.995 19.000 11.008 20.153 L 11.020 21.307 11.141 21.503 C 11.543 22.156,12.457 22.156,12.859 21.503 L 12.980 21.307 12.992 20.153 L 13.005 19.000 14.092 18.998 C 15.262 18.996,15.358 18.983,15.619 18.783 C 15.696 18.725,15.808 18.592,15.869 18.489 C 15.964 18.328,15.980 18.256,15.980 18.000 C 15.980 17.746,15.963 17.672,15.872 17.516 C 15.813 17.415,15.698 17.282,15.618 17.221 C 15.356 17.022,15.203 17.000,14.054 17.000 L 13.000 17.000 13.000 15.961 L 13.000 14.922 13.110 14.897 C 14.457 14.591,15.393 14.087,16.269 13.195 C 17.109 12.340,17.626 11.369,17.885 10.160 C 18.015 9.554,18.015 8.446,17.885 7.840 C 17.626 6.631,17.109 5.660,16.269 4.805 C 14.978 3.490,13.230 2.860,11.380 3.043 M12.605 5.058 C 14.074 5.280,15.310 6.324,15.797 7.755 C 15.897 8.050,16.000 8.680,16.000 9.000 C 16.000 9.322,15.897 9.951,15.796 10.245 C 15.321 11.632,14.195 12.628,12.773 12.917 C 10.563 13.368,8.396 11.845,8.058 9.605 C 7.986 9.121,7.986 8.879,8.058 8.395 C 8.314 6.698,9.675 5.324,11.358 5.061 C 11.816 4.990,12.144 4.989,12.605 5.058 " stroke="none" fill-rule="evenodd" fill="black"></path></svg>