<svg xmlns="http://www.w3.org/2000/svg" width="24" height="24" viewBox="0 0 24 24" fill="none" stroke="currentColor" stroke-width="2" stroke-linecap="round" stroke-linejoin="round"><path d="M13.695 4.057 C 13.466 4.129,13.256 4.299,13.128 4.516 C 13.037 4.672,13.020 4.746,13.020 5.000 C 13.020 5.256,13.036 5.328,13.131 5.489 C 13.192 5.592,13.304 5.725,13.381 5.783 C 13.650 5.989,13.716 5.996,15.200 5.998 L 16.580 6.000 15.025 7.555 L 13.471 9.109 13.265 8.974 C 11.776 7.990,9.780 7.742,8.060 8.329 C 6.054 9.013,4.575 10.703,4.114 12.840 C 3.984 13.446,3.984 14.554,4.114 15.160 C 4.638 17.587,6.417 19.365,8.840 19.885 C 9.446 20.015,10.554 20.015,11.160 19.885 C 12.369 19.626,13.340 19.109,14.195 18.269 C 15.068 17.412,15.620 16.397,15.885 15.160 C 16.015 14.554,16.015 13.446,15.885 12.840 C 15.723 12.084,15.410 11.313,15.040 10.755 L 14.890 10.530 17.349 8.075 C 19.300 6.127,19.828 5.579,19.904 5.420 C 20.145 4.915,19.921 4.319,19.400 4.083 C 19.225 4.004,19.153 4.002,16.540 4.004 C 14.464 4.005,13.823 4.017,13.695 4.057 M10.605 10.058 C 12.074 10.280,13.310 11.324,13.797 12.755 C 13.897 13.050,14.000 13.680,14.000 14.000 C 14.000 14.322,13.897 14.951,13.796 15.245 C 13.321 16.632,12.195 17.628,10.773 17.917 C 8.563 18.368,6.396 16.845,6.058 14.605 C 5.986 14.121,5.986 13.879,6.058 13.395 C 6.314 11.698,7.675 10.324,9.358 10.061 C 9.816 9.990,10.144 9.989,10.605 10.058 " stroke="none" fill-rule="evenodd" fill="black"></path></svg>