<svg xmlns="http://www.w3.org/2000/svg" width="24" height="24" viewBox="0 0 24 24" fill="none" stroke="currentColor" stroke-width="2" stroke-linecap="round" stroke-linejoin="round"><path d="M8.380 3.043 C 5.784 3.299,3.681 5.215,3.114 7.840 C 2.984 8.446,2.984 9.554,3.114 10.160 C 3.638 12.587,5.417 14.365,7.840 14.885 C 8.190 14.960,8.383 14.975,9.000 14.975 C 9.803 14.975,10.253 14.907,10.876 14.693 L 11.171 14.591 12.875 16.295 L 14.578 17.999 13.874 18.709 C 13.487 19.100,13.136 19.483,13.096 19.560 C 13.043 19.660,13.021 19.787,13.021 20.000 C 13.020 20.258,13.036 20.327,13.133 20.492 C 13.263 20.714,13.502 20.901,13.736 20.965 C 13.939 21.019,14.267 20.989,14.445 20.899 C 14.519 20.861,14.900 20.514,15.290 20.127 L 16.000 19.423 16.710 20.127 C 17.101 20.514,17.481 20.861,17.555 20.899 C 18.008 21.128,18.601 20.944,18.867 20.492 C 18.964 20.327,18.980 20.258,18.979 20.000 C 18.979 19.788,18.957 19.659,18.905 19.560 C 18.865 19.483,17.507 18.093,15.888 16.471 L 12.943 13.523 13.233 13.233 L 13.523 12.943 16.471 15.888 C 18.093 17.507,19.483 18.865,19.560 18.905 C 19.659 18.957,19.788 18.979,20.000 18.979 C 20.255 18.980,20.328 18.964,20.484 18.872 C 20.585 18.813,20.717 18.700,20.776 18.621 C 21.004 18.322,21.004 18.333,20.991 15.917 L 20.980 13.700 20.871 13.514 C 20.479 12.848,19.521 12.848,19.129 13.514 C 19.021 13.699,19.020 13.705,19.000 14.630 L 18.980 15.561 16.786 13.366 L 14.591 11.171 14.693 10.876 C 14.907 10.253,14.975 9.803,14.975 9.000 C 14.975 8.383,14.960 8.190,14.885 7.840 C 14.626 6.631,14.109 5.660,13.269 4.805 C 11.978 3.490,10.230 2.860,8.380 3.043 M9.605 5.058 C 11.074 5.280,12.310 6.324,12.797 7.755 C 12.897 8.050,13.000 8.680,13.000 9.000 C 13.000 9.322,12.897 9.951,12.796 10.245 C 12.321 11.632,11.195 12.628,9.773 12.917 C 7.563 13.368,5.396 11.845,5.058 9.605 C 4.986 9.121,4.986 8.879,5.058 8.395 C 5.314 6.698,6.675 5.324,8.358 5.061 C 8.816 4.990,9.144 4.989,9.605 5.058 " stroke="none" fill-rule="evenodd" fill="black"></path></svg>