<svg xmlns="http://www.w3.org/2000/svg" width="24" height="24" viewBox="0 0 24 24" fill="none" stroke="currentColor" stroke-width="2" stroke-linecap="round" stroke-linejoin="round"><path d="M14.695 4.057 C 14.466 4.129,14.256 4.299,14.128 4.516 C 14.037 4.672,14.020 4.746,14.020 5.000 C 14.020 5.256,14.036 5.328,14.131 5.489 C 14.192 5.592,14.304 5.725,14.381 5.783 C 14.635 5.977,14.753 5.996,15.700 5.998 L 16.580 6.000 15.791 6.789 L 15.002 7.578 14.549 7.130 C 14.032 6.620,13.863 6.522,13.498 6.521 C 12.864 6.519,12.398 7.086,12.528 7.702 C 12.583 7.963,12.654 8.061,13.155 8.570 L 13.579 9.000 13.025 9.555 L 12.471 10.110 12.266 9.974 C 10.776 8.990,8.780 8.742,7.060 9.329 C 5.054 10.013,3.575 11.703,3.114 13.840 C 3.039 14.191,3.024 14.381,3.024 15.000 C 3.024 15.619,3.039 15.809,3.114 16.160 C 3.638 18.587,5.417 20.365,7.840 20.885 C 8.190 20.960,8.383 20.975,9.000 20.975 C 9.617 20.975,9.810 20.960,10.160 20.885 C 11.369 20.626,12.340 20.109,13.195 19.269 C 14.068 18.412,14.620 17.397,14.885 16.160 C 14.960 15.810,14.975 15.617,14.975 15.000 C 14.975 14.383,14.960 14.190,14.885 13.840 C 14.723 13.083,14.410 12.313,14.040 11.755 L 13.890 11.529 14.445 10.975 L 15.000 10.421 15.430 10.845 C 15.946 11.353,16.044 11.423,16.301 11.468 C 17.017 11.595,17.593 11.021,17.470 10.303 C 17.426 10.048,17.353 9.946,16.845 9.430 L 16.421 9.000 17.201 8.219 L 17.980 7.439 18.000 8.373 L 18.020 9.307 18.141 9.503 C 18.543 10.156,19.457 10.156,19.859 9.503 L 19.980 9.306 19.991 7.063 C 20.002 5.053,19.996 4.802,19.937 4.646 C 19.845 4.405,19.657 4.204,19.420 4.094 L 19.220 4.001 17.040 4.003 C 15.374 4.005,14.821 4.018,14.695 4.057 M9.605 11.058 C 10.855 11.247,11.964 12.042,12.536 13.160 C 12.767 13.611,12.871 13.930,12.942 14.395 C 13.014 14.879,13.014 15.121,12.942 15.605 C 12.691 17.265,11.434 18.579,9.773 18.917 C 7.563 19.368,5.396 17.845,5.058 15.605 C 4.986 15.121,4.986 14.879,5.058 14.395 C 5.314 12.698,6.675 11.324,8.358 11.061 C 8.816 10.990,9.144 10.989,9.605 11.058 " stroke="none" fill-rule="evenodd" fill="black"></path></svg>