<svg xmlns="http://www.w3.org/2000/svg" width="24" height="24" viewBox="0 0 24 24" fill="none" stroke="currentColor" stroke-width="2" stroke-linecap="round" stroke-linejoin="round"><path d="M8.695 2.057 C 8.467 2.128,8.256 2.299,8.131 2.513 C 7.981 2.768,7.963 3.196,8.079 3.759 C 8.223 4.461,8.508 5.053,8.958 5.588 L 9.194 5.869 8.942 6.054 C 8.404 6.449,7.849 7.127,7.526 7.785 C 7.158 8.533,7.020 9.136,7.020 10.000 C 7.020 10.670,7.078 11.044,7.268 11.600 C 7.681 12.808,8.542 13.819,9.653 14.402 C 10.073 14.622,10.446 14.769,10.773 14.842 L 11.000 14.893 11.000 15.946 L 11.000 17.000 9.946 17.000 C 8.797 17.000,8.644 17.022,8.382 17.221 C 8.302 17.282,8.187 17.415,8.128 17.516 C 8.037 17.672,8.020 17.746,8.020 18.000 C 8.020 18.256,8.036 18.328,8.131 18.489 C 8.192 18.592,8.304 18.725,8.381 18.783 C 8.642 18.983,8.738 18.996,9.908 18.998 L 10.995 19.000 11.008 20.153 L 11.020 21.307 11.141 21.503 C 11.209 21.613,11.346 21.756,11.452 21.828 C 11.923 22.144,12.554 21.999,12.859 21.503 L 12.980 21.307 12.992 20.153 L 13.005 19.000 14.092 18.998 C 15.262 18.996,15.358 18.983,15.619 18.783 C 15.696 18.725,15.808 18.592,15.869 18.489 C 15.964 18.328,15.980 18.256,15.980 18.000 C 15.980 17.746,15.963 17.672,15.872 17.516 C 15.813 17.415,15.698 17.282,15.618 17.221 C 15.356 17.022,15.203 17.000,14.054 17.000 L 13.000 17.000 13.000 15.946 L 13.000 14.893 13.227 14.842 C 14.016 14.665,14.963 14.116,15.586 13.474 C 16.243 12.796,16.700 11.927,16.907 10.960 C 16.960 10.714,16.980 10.448,16.980 10.000 C 16.980 9.131,16.840 8.522,16.470 7.780 C 16.137 7.112,15.592 6.446,15.058 6.054 L 14.806 5.869 15.042 5.588 C 15.172 5.434,15.344 5.198,15.424 5.064 C 15.937 4.205,16.148 2.988,15.868 2.510 C 15.568 1.998,14.881 1.855,14.405 2.205 C 14.146 2.396,14.042 2.610,13.997 3.047 C 13.947 3.537,13.875 3.773,13.688 4.062 C 13.006 5.117,11.599 5.318,10.681 4.493 C 10.423 4.262,10.181 3.901,10.098 3.623 C 10.065 3.511,10.021 3.253,10.001 3.048 C 9.975 2.768,9.941 2.635,9.865 2.505 C 9.628 2.101,9.145 1.916,8.695 2.057 M12.861 7.129 C 13.804 7.405,14.584 8.183,14.875 9.139 C 14.958 9.412,14.973 9.542,14.973 10.000 C 14.973 10.458,14.958 10.588,14.875 10.861 C 14.582 11.822,13.819 12.581,12.840 12.886 C 12.406 13.021,11.594 13.021,11.160 12.886 C 10.181 12.581,9.418 11.822,9.125 10.861 C 9.042 10.588,9.027 10.458,9.027 10.000 C 9.027 9.542,9.042 9.412,9.125 9.139 C 9.456 8.054,10.371 7.245,11.499 7.040 C 11.832 6.980,12.500 7.023,12.861 7.129 " stroke="none" fill-rule="evenodd" fill="black"></path></svg>