<svg xmlns="http://www.w3.org/2000/svg" width="24" height="24" viewBox="0 0 24 24" fill="none" stroke="currentColor" stroke-width="2" stroke-linecap="round" stroke-linejoin="round"><path d="M11.380 3.043 C 8.784 3.299,6.676 5.219,6.115 7.840 C 5.984 8.450,5.984 9.558,6.114 10.160 C 6.441 11.670,7.235 12.918,8.443 13.820 C 9.146 14.344,9.882 14.668,10.890 14.897 L 11.000 14.922 11.000 15.961 L 11.000 17.000 8.946 17.000 C 6.717 17.000,6.666 17.004,6.382 17.221 C 6.302 17.282,6.187 17.415,6.128 17.516 C 6.037 17.672,6.020 17.746,6.020 18.000 C 6.020 18.256,6.036 18.328,6.131 18.489 C 6.256 18.702,6.449 18.864,6.670 18.943 C 6.788 18.985,7.269 18.997,8.908 18.998 L 10.995 19.000 11.008 20.153 L 11.020 21.307 11.141 21.503 C 11.543 22.156,12.457 22.156,12.859 21.503 L 12.980 21.307 12.992 20.153 L 13.005 19.000 15.092 18.998 C 16.731 18.997,17.212 18.985,17.330 18.943 C 17.551 18.864,17.744 18.702,17.869 18.489 C 17.964 18.328,17.980 18.256,17.980 18.000 C 17.980 17.746,17.963 17.672,17.872 17.516 C 17.813 17.415,17.698 17.282,17.618 17.221 C 17.334 17.004,17.283 17.000,15.054 17.000 L 13.000 17.000 13.000 15.961 L 13.000 14.922 13.110 14.897 C 14.457 14.591,15.393 14.087,16.269 13.195 C 17.109 12.340,17.626 11.369,17.885 10.160 C 18.015 9.554,18.015 8.446,17.885 7.840 C 17.626 6.631,17.109 5.660,16.269 4.805 C 14.978 3.490,13.230 2.860,11.380 3.043 M12.605 5.058 C 14.074 5.280,15.310 6.324,15.797 7.755 C 15.897 8.050,16.000 8.680,16.000 9.000 C 16.000 9.322,15.897 9.951,15.796 10.245 C 15.321 11.632,14.195 12.628,12.773 12.917 C 10.563 13.368,8.396 11.845,8.058 9.605 C 7.986 9.121,7.986 8.879,8.058 8.395 C 8.314 6.698,9.675 5.324,11.358 5.061 C 11.816 4.990,12.144 4.989,12.605 5.058 " stroke="none" fill-rule="evenodd" fill="black"></path></svg>