<svg xmlns="http://www.w3.org/2000/svg" width="24" height="24" viewBox="0 0 24 24" fill="none" stroke="currentColor" stroke-width="2" stroke-linecap="round" stroke-linejoin="round"><path d="M2.580 2.094 C 2.343 2.204,2.155 2.405,2.063 2.646 C 2.004 2.802,1.998 3.053,2.009 5.063 L 2.020 7.306 2.141 7.503 C 2.543 8.156,3.457 8.156,3.859 7.503 L 3.980 7.307 4.000 6.373 L 4.020 5.439 4.799 6.219 L 5.579 7.000 5.155 7.430 C 4.657 7.936,4.583 8.037,4.530 8.288 C 4.382 8.989,4.979 9.593,5.697 9.470 C 5.952 9.426,6.054 9.353,6.570 8.845 L 7.000 8.421 7.410 8.831 L 7.820 9.241 7.744 9.371 C 7.441 9.890,7.215 10.470,7.093 11.040 C 6.992 11.511,6.992 12.489,7.093 12.960 C 7.417 14.473,8.339 15.712,9.653 16.402 C 10.073 16.622,10.446 16.769,10.773 16.842 L 11.000 16.893 11.000 17.444 L 11.000 17.995 10.110 18.007 C 9.287 18.019,9.208 18.027,9.060 18.106 C 8.707 18.297,8.512 18.615,8.512 19.000 C 8.512 19.405,8.719 19.724,9.100 19.905 C 9.291 19.995,9.340 19.999,10.147 20.000 L 10.993 20.000 11.007 20.653 C 11.020 21.300,11.021 21.308,11.141 21.503 C 11.543 22.156,12.457 22.156,12.859 21.503 C 12.979 21.308,12.980 21.300,12.993 20.653 L 13.007 20.000 13.853 20.000 C 14.660 19.999,14.709 19.995,14.900 19.905 C 15.281 19.724,15.488 19.405,15.488 19.000 C 15.488 18.615,15.293 18.297,14.940 18.106 C 14.792 18.027,14.713 18.019,13.890 18.007 L 13.000 17.995 13.000 17.444 L 13.000 16.893 13.227 16.842 C 14.016 16.665,14.963 16.116,15.586 15.474 C 16.243 14.796,16.700 13.927,16.907 12.960 C 17.008 12.489,17.008 11.511,16.907 11.040 C 16.801 10.543,16.660 10.155,16.408 9.668 L 16.185 9.235 18.083 7.337 L 19.980 5.439 20.000 6.373 L 20.020 7.307 20.141 7.503 C 20.543 8.156,21.457 8.156,21.859 7.503 L 21.980 7.306 21.991 5.063 C 22.002 3.053,21.996 2.802,21.937 2.646 C 21.845 2.405,21.657 2.204,21.420 2.094 L 21.220 2.001 19.056 2.000 C 16.708 2.000,16.668 2.003,16.382 2.221 C 16.302 2.282,16.187 2.415,16.128 2.516 C 16.037 2.672,16.020 2.746,16.020 3.000 C 16.020 3.256,16.036 3.328,16.131 3.489 C 16.192 3.592,16.304 3.725,16.381 3.783 C 16.635 3.977,16.753 3.996,17.700 3.998 L 18.580 4.000 16.671 5.909 L 14.761 7.818 14.371 7.612 C 13.689 7.253,13.228 7.113,12.470 7.036 C 12.107 6.999,11.893 6.999,11.530 7.036 C 10.776 7.112,10.319 7.250,9.628 7.611 L 9.236 7.815 8.829 7.409 L 8.422 7.002 8.870 6.548 C 9.160 6.255,9.347 6.029,9.399 5.911 C 9.695 5.242,9.229 4.518,8.502 4.521 C 8.137 4.522,7.968 4.620,7.451 5.130 L 6.998 5.578 6.209 4.789 L 5.420 4.000 6.300 3.998 C 7.247 3.996,7.365 3.977,7.619 3.783 C 7.696 3.725,7.808 3.592,7.869 3.489 C 7.964 3.328,7.980 3.256,7.980 3.000 C 7.980 2.746,7.963 2.672,7.872 2.516 C 7.813 2.415,7.698 2.282,7.618 2.221 C 7.332 2.003,7.292 2.000,4.944 2.000 L 2.780 2.001 2.580 2.094 M12.861 9.129 C 13.804 9.405,14.584 10.183,14.875 11.139 C 14.958 11.412,14.973 11.542,14.973 12.000 C 14.973 12.458,14.958 12.588,14.875 12.861 C 14.582 13.822,13.819 14.581,12.840 14.886 C 12.406 15.021,11.594 15.021,11.160 14.886 C 10.181 14.581,9.418 13.822,9.125 12.861 C 9.042 12.588,9.027 12.458,9.027 12.000 C 9.027 11.542,9.042 11.412,9.125 11.139 C 9.456 10.054,10.371 9.245,11.499 9.040 C 11.832 8.980,12.500 9.023,12.861 9.129 " stroke="none" fill-rule="evenodd" fill="black"></path></svg>