<svg xmlns="http://www.w3.org/2000/svg" width="24" height="24" viewBox="0 0 24 24" fill="none" stroke="currentColor" stroke-width="2" stroke-linecap="round" stroke-linejoin="round"><path d="M14.695 2.057 C 14.466 2.129,14.256 2.299,14.128 2.516 C 14.037 2.672,14.020 2.746,14.020 3.000 C 14.020 3.256,14.036 3.328,14.131 3.489 C 14.192 3.592,14.304 3.725,14.381 3.783 C 14.635 3.977,14.753 3.996,15.700 3.998 L 16.580 4.000 15.171 5.409 L 13.761 6.818 13.371 6.612 C 12.689 6.253,12.228 6.113,11.470 6.036 C 10.261 5.913,9.094 6.231,8.068 6.963 C 7.067 7.677,6.364 8.771,6.093 10.040 C 5.992 10.511,5.992 11.489,6.093 11.960 C 6.417 13.473,7.339 14.712,8.653 15.402 C 9.073 15.622,9.446 15.769,9.773 15.842 L 10.000 15.893 10.000 16.946 L 10.000 18.000 8.946 18.000 C 7.797 18.000,7.644 18.022,7.382 18.221 C 7.302 18.282,7.187 18.415,7.128 18.516 C 7.037 18.672,7.020 18.746,7.020 19.000 C 7.020 19.256,7.036 19.328,7.131 19.489 C 7.192 19.592,7.304 19.725,7.381 19.783 C 7.642 19.983,7.738 19.996,8.908 19.998 L 9.995 20.000 10.008 21.153 L 10.020 22.307 10.141 22.503 C 10.543 23.156,11.457 23.156,11.859 22.503 L 11.980 22.307 11.992 21.153 L 12.005 20.000 13.092 19.998 C 14.262 19.996,14.358 19.983,14.619 19.783 C 14.696 19.725,14.808 19.592,14.869 19.489 C 14.964 19.328,14.980 19.256,14.980 19.000 C 14.980 18.746,14.963 18.672,14.872 18.516 C 14.813 18.415,14.698 18.282,14.618 18.221 C 14.356 18.022,14.203 18.000,13.054 18.000 L 12.000 18.000 12.000 16.946 L 12.000 15.893 12.227 15.842 C 13.016 15.665,13.963 15.116,14.586 14.474 C 15.243 13.796,15.700 12.927,15.907 11.960 C 16.008 11.489,16.008 10.511,15.907 10.040 C 15.801 9.543,15.660 9.155,15.408 8.668 L 15.185 8.235 16.583 6.837 L 17.980 5.439 18.000 6.373 L 18.020 7.307 18.141 7.503 C 18.543 8.156,19.457 8.156,19.859 7.503 L 19.980 7.306 19.991 5.063 C 20.002 3.053,19.996 2.802,19.937 2.646 C 19.845 2.405,19.657 2.204,19.420 2.094 L 19.220 2.001 17.040 2.003 C 15.374 2.005,14.821 2.018,14.695 2.057 M11.861 8.129 C 12.804 8.405,13.584 9.183,13.875 10.139 C 13.958 10.412,13.973 10.542,13.973 11.000 C 13.973 11.458,13.958 11.588,13.875 11.861 C 13.582 12.822,12.819 13.581,11.840 13.886 C 11.406 14.021,10.594 14.021,10.160 13.886 C 9.181 13.581,8.418 12.822,8.125 11.861 C 8.042 11.588,8.027 11.458,8.027 11.000 C 8.027 10.542,8.042 10.412,8.125 10.139 C 8.456 9.054,9.371 8.245,10.499 8.040 C 10.832 7.980,11.500 8.023,11.861 8.129 " stroke="none" fill-rule="evenodd" fill="black"></path></svg>