<svg xmlns="http://www.w3.org/2000/svg" width="24" height="24" viewBox="0 0 24 24" fill="none" stroke="currentColor" stroke-width="2" stroke-linecap="round" stroke-linejoin="round"><path d="M11.695 2.057 C 11.466 2.129,11.256 2.299,11.128 2.516 C 11.023 2.695,11.020 2.721,11.007 3.424 L 10.994 4.148 10.667 4.315 C 9.922 4.693,9.364 5.356,9.114 6.160 C 8.979 6.594,8.979 7.407,9.114 7.839 C 9.237 8.230,9.393 8.535,9.607 8.797 C 9.702 8.915,9.804 9.043,9.834 9.084 C 9.881 9.148,9.771 9.508,8.940 12.001 C 8.183 14.271,7.980 14.841,7.932 14.822 C 7.815 14.778,7.280 14.389,6.910 14.080 C 6.196 13.484,5.554 12.709,5.076 11.865 C 4.937 11.620,4.757 11.355,4.675 11.275 C 4.302 10.910,3.678 10.920,3.302 11.296 C 2.947 11.650,2.915 12.069,3.200 12.614 C 4.020 14.182,5.393 15.633,6.916 16.540 C 7.137 16.672,7.318 16.797,7.319 16.819 C 7.319 16.840,7.023 17.750,6.660 18.841 C 6.246 20.086,6.000 20.884,6.000 20.985 C 6.000 21.741,6.793 22.221,7.469 21.874 C 7.818 21.694,7.851 21.622,8.540 19.554 C 8.887 18.512,9.184 17.645,9.201 17.627 C 9.217 17.608,9.363 17.630,9.525 17.676 C 11.043 18.100,12.915 18.101,14.455 17.679 C 14.627 17.632,14.782 17.608,14.799 17.626 C 14.816 17.645,15.113 18.512,15.460 19.554 C 16.149 21.622,16.182 21.694,16.531 21.874 C 17.207 22.221,18.000 21.741,18.000 20.985 C 18.000 20.884,17.754 20.086,17.340 18.841 C 16.977 17.750,16.681 16.840,16.681 16.819 C 16.682 16.797,16.857 16.676,17.071 16.548 C 18.364 15.778,19.501 14.671,20.374 13.334 C 20.757 12.748,20.968 12.321,20.990 12.088 C 21.065 11.308,20.236 10.763,19.529 11.127 C 19.314 11.238,19.196 11.386,18.861 11.966 C 18.520 12.557,18.090 13.113,17.581 13.621 C 15.974 15.225,13.875 16.072,11.720 15.986 C 10.867 15.952,9.855 15.760,9.864 15.633 C 9.867 15.600,10.287 14.319,10.798 12.787 L 11.727 10.000 12.000 10.000 L 12.273 10.000 12.922 11.944 C 13.630 14.066,13.661 14.134,14.011 14.314 C 14.687 14.661,15.480 14.181,15.480 13.425 C 15.480 13.324,15.227 12.503,14.796 11.210 C 14.199 9.416,14.120 9.147,14.166 9.083 C 14.196 9.043,14.298 8.915,14.393 8.797 C 14.607 8.535,14.763 8.230,14.886 7.839 C 15.021 7.407,15.021 6.594,14.886 6.160 C 14.636 5.356,14.078 4.693,13.333 4.315 L 13.006 4.148 12.993 3.424 C 12.980 2.721,12.977 2.695,12.872 2.516 C 12.628 2.101,12.150 1.915,11.695 2.057 M12.310 6.061 C 12.688 6.173,13.000 6.598,13.000 7.001 C 13.000 7.331,12.784 7.696,12.484 7.872 C 12.328 7.963,12.254 7.980,12.000 7.980 C 11.746 7.980,11.672 7.963,11.516 7.872 C 10.935 7.530,10.833 6.774,11.304 6.303 C 11.583 6.024,11.916 5.944,12.310 6.061 " stroke="none" fill-rule="evenodd" fill="black"></path></svg>