<svg xmlns="http://www.w3.org/2000/svg" width="24" height="24" viewBox="0 0 24 24" fill="none" stroke="currentColor" stroke-width="2" stroke-linecap="round" stroke-linejoin="round"><path d="M11.180 2.044 C 9.656 2.205,8.151 2.827,6.960 3.789 C 6.606 4.075,5.934 4.761,5.674 5.100 C 4.772 6.281,4.202 7.703,4.042 9.168 C 4.019 9.382,4.000 9.653,4.000 9.770 L 4.000 9.984 3.630 10.031 C 2.834 10.131,2.230 10.464,1.679 11.108 C 1.437 11.391,1.239 11.760,1.114 12.160 C 1.033 12.418,1.020 12.539,1.023 13.020 C 1.026 13.508,1.039 13.620,1.128 13.887 C 1.517 15.060,2.553 15.894,3.734 15.985 L 4.067 16.011 4.135 16.369 C 4.173 16.566,4.267 16.919,4.343 17.153 C 5.095 19.448,6.950 21.186,9.280 21.780 C 10.143 21.999,10.162 22.000,15.875 22.000 C 21.798 22.000,21.381 22.021,21.701 21.701 C 21.970 21.432,22.065 21.036,21.944 20.690 C 21.913 20.602,21.463 19.893,20.944 19.115 L 20.000 17.700 20.000 16.856 L 20.000 16.011 20.305 15.983 C 21.487 15.876,22.519 15.019,22.886 13.840 C 22.964 13.588,22.979 13.453,22.979 13.000 C 22.979 12.547,22.964 12.412,22.886 12.160 C 22.705 11.579,22.391 11.107,21.911 10.695 C 21.473 10.320,20.893 10.078,20.286 10.018 L 20.000 9.990 20.000 9.773 C 20.000 8.819,19.681 7.523,19.200 6.529 C 18.693 5.477,18.015 4.612,17.100 3.847 C 15.481 2.492,13.283 1.823,11.180 2.044 M12.564 4.039 C 14.670 4.244,16.435 5.469,17.397 7.392 C 17.816 8.229,17.957 8.922,17.994 10.320 C 18.020 11.297,18.021 11.301,18.131 11.489 C 18.192 11.592,18.304 11.725,18.381 11.783 C 18.622 11.967,18.770 11.996,19.463 11.998 C 20.257 12.000,20.439 12.045,20.697 12.303 C 20.970 12.577,21.057 12.919,20.945 13.290 C 20.872 13.533,20.707 13.740,20.484 13.872 C 20.306 13.977,20.276 13.981,19.520 14.003 C 19.066 14.016,18.693 14.045,18.627 14.073 C 18.433 14.154,18.240 14.325,18.128 14.516 L 18.020 14.700 18.008 16.416 C 17.999 17.823,18.007 18.163,18.054 18.300 C 18.085 18.393,18.326 18.791,18.588 19.184 C 18.851 19.578,19.079 19.923,19.096 19.951 C 19.120 19.993,18.290 20.000,14.713 19.989 C 10.648 19.977,10.276 19.971,10.000 19.905 C 9.019 19.672,8.251 19.268,7.577 18.630 C 7.147 18.223,6.831 17.804,6.568 17.291 C 6.208 16.592,6.070 16.069,6.003 15.151 C 5.965 14.620,5.883 14.423,5.616 14.219 C 5.367 14.030,5.235 14.004,4.517 14.002 C 3.727 14.000,3.565 13.959,3.300 13.694 C 3.115 13.509,3.000 13.235,3.000 12.980 C 3.000 12.768,3.119 12.491,3.281 12.324 C 3.559 12.038,3.608 12.024,4.480 12.000 C 5.362 11.975,5.452 11.952,5.713 11.682 C 5.958 11.430,6.000 11.256,6.001 10.483 C 6.003 9.404,6.090 8.761,6.329 8.060 C 7.222 5.442,9.813 3.772,12.564 4.039 M9.695 8.055 C 9.464 8.130,9.255 8.300,9.128 8.516 C 9.037 8.672,9.020 8.746,9.020 9.000 C 9.020 9.257,9.036 9.327,9.133 9.492 C 9.651 10.374,10.998 10.018,10.998 9.000 C 10.998 8.623,10.792 8.281,10.463 8.112 C 10.265 8.010,9.911 7.984,9.695 8.055 M13.695 8.055 C 13.464 8.130,13.255 8.300,13.128 8.516 C 13.037 8.672,13.020 8.746,13.020 9.000 C 13.020 9.257,13.036 9.327,13.133 9.492 C 13.651 10.374,14.998 10.018,14.998 9.000 C 14.998 8.623,14.792 8.281,14.463 8.112 C 14.265 8.010,13.911 7.984,13.695 8.055 M11.477 12.073 C 10.603 12.301,9.948 13.183,10.010 14.046 C 10.040 14.476,10.283 14.805,10.670 14.943 C 10.885 15.020,13.115 15.020,13.330 14.943 C 13.866 14.752,14.101 14.218,13.944 13.550 C 13.859 13.184,13.724 12.932,13.465 12.653 C 13.074 12.232,12.560 12.005,12.000 12.005 C 11.857 12.005,11.622 12.036,11.477 12.073 " stroke="none" fill-rule="evenodd" fill="black"></path></svg>