<svg xmlns="http://www.w3.org/2000/svg" width="24" height="24" viewBox="0 0 24 24" fill="none" stroke="currentColor" stroke-width="2" stroke-linecap="round" stroke-linejoin="round"><path d="M2.670 2.061 C 2.448 2.142,2.250 2.309,2.128 2.516 C 2.036 2.672,2.020 2.745,2.021 3.000 C 2.021 3.212,2.043 3.341,2.095 3.440 C 2.135 3.517,2.864 4.278,3.714 5.131 L 5.260 6.682 5.168 6.831 C 4.788 7.447,4.370 8.491,4.195 9.260 C 4.011 10.073,4.003 10.303,4.002 14.560 C 4.001 18.021,4.010 18.616,4.062 18.838 C 4.293 19.819,4.981 20.553,5.980 20.887 C 6.348 21.009,7.126 21.020,7.500 20.906 C 7.992 20.758,8.289 20.581,8.711 20.186 C 9.141 19.784,9.255 19.730,9.550 19.784 C 9.664 19.805,9.762 19.875,9.960 20.078 C 10.103 20.224,10.302 20.410,10.402 20.490 C 10.784 20.798,11.489 21.040,12.000 21.040 C 12.511 21.040,13.216 20.798,13.598 20.490 C 13.698 20.410,13.897 20.224,14.040 20.078 C 14.238 19.875,14.336 19.805,14.450 19.784 C 14.743 19.730,14.859 19.785,15.277 20.175 C 15.859 20.719,16.362 20.945,17.084 20.988 C 17.686 21.024,18.391 20.825,18.820 20.497 L 18.964 20.387 19.692 21.109 C 20.092 21.506,20.483 21.864,20.560 21.904 C 20.660 21.957,20.787 21.979,21.000 21.979 C 21.258 21.980,21.327 21.964,21.492 21.867 C 21.968 21.587,22.139 20.967,21.865 20.508 C 21.810 20.416,17.665 16.243,12.653 11.235 C 4.231 2.820,3.525 2.125,3.343 2.065 C 3.107 1.987,2.874 1.986,2.670 2.061 M11.300 3.028 C 10.377 3.110,9.298 3.410,8.512 3.805 C 8.138 3.992,7.951 4.171,7.865 4.423 C 7.734 4.807,7.802 5.144,8.067 5.440 C 8.375 5.782,8.780 5.857,9.247 5.658 C 9.991 5.342,10.174 5.275,10.540 5.184 C 11.906 4.842,13.412 5.004,14.648 5.624 C 16.344 6.475,17.466 7.930,17.884 9.820 C 17.968 10.202,17.974 10.334,17.996 12.763 L 18.020 15.306 18.141 15.503 C 18.543 16.156,19.457 16.156,19.859 15.503 L 19.980 15.306 19.992 12.963 C 19.998 11.575,19.987 10.454,19.963 10.212 C 19.811 8.695,19.156 7.107,18.201 5.942 C 17.920 5.599,17.227 4.924,16.900 4.674 C 15.940 3.941,14.711 3.380,13.592 3.164 C 12.863 3.024,11.955 2.969,11.300 3.028 M12.160 13.615 C 12.160 13.657,11.717 13.620,11.404 13.551 C 11.213 13.510,11.042 13.433,10.426 13.109 C 9.754 12.755,8.933 13.336,9.012 14.107 C 9.055 14.525,9.291 14.787,9.920 15.115 C 10.599 15.469,11.209 15.616,12.000 15.616 C 12.598 15.616,13.014 15.546,13.525 15.360 L 13.830 15.249 15.679 17.099 C 17.333 18.754,17.518 18.951,17.434 18.974 C 17.132 19.055,16.804 18.940,16.595 18.680 C 16.311 18.327,15.696 17.956,15.200 17.838 C 14.917 17.771,14.282 17.771,14.000 17.838 C 13.481 17.962,13.059 18.217,12.594 18.686 C 12.266 19.018,12.139 19.075,11.854 19.022 C 11.744 19.001,11.635 18.920,11.401 18.684 C 10.935 18.213,10.519 17.962,10.000 17.838 C 9.718 17.771,9.083 17.771,8.800 17.838 C 8.310 17.954,7.671 18.338,7.401 18.679 C 7.253 18.866,6.991 19.000,6.777 18.999 C 6.481 18.997,6.142 18.771,6.043 18.507 C 5.985 18.355,5.984 10.909,6.041 10.368 C 6.123 9.599,6.374 8.739,6.650 8.286 L 6.732 8.152 9.446 10.866 C 10.939 12.358,12.160 13.596,12.160 13.615 M13.695 9.055 C 13.464 9.130,13.255 9.300,13.128 9.516 C 13.037 9.672,13.020 9.746,13.020 10.000 C 13.020 10.257,13.036 10.327,13.133 10.492 C 13.651 11.374,14.998 11.018,14.998 10.000 C 14.998 9.623,14.792 9.281,14.463 9.112 C 14.265 9.010,13.911 8.984,13.695 9.055 " stroke="none" fill-rule="evenodd" fill="black"></path></svg>