<svg xmlns="http://www.w3.org/2000/svg" width="24" height="24" viewBox="0 0 24 24" fill="none" stroke="currentColor" stroke-width="2" stroke-linecap="round" stroke-linejoin="round"><path d="M5.499 7.043 C 4.383 7.230,3.461 8.048,3.114 9.160 L 3.020 9.460 3.020 12.000 L 3.020 14.540 3.114 14.840 C 3.422 15.827,4.173 16.578,5.160 16.886 C 5.451 16.977,5.503 16.980,6.880 16.980 L 8.300 16.980 8.492 16.867 C 8.711 16.739,8.901 16.498,8.961 16.275 C 8.988 16.176,8.999 15.337,8.991 13.911 L 8.980 11.700 8.872 11.516 C 8.629 11.102,8.357 11.000,7.500 11.000 C 6.643 11.000,6.371 11.102,6.128 11.516 C 6.036 11.672,6.020 11.746,6.020 12.003 C 6.020 12.271,6.034 12.329,6.141 12.503 C 6.288 12.742,6.578 12.946,6.821 12.982 L 7.000 13.009 7.000 14.008 L 7.000 15.007 6.350 14.993 C 5.728 14.981,5.692 14.975,5.516 14.872 C 5.415 14.813,5.284 14.700,5.225 14.623 C 5.000 14.327,5.000 14.332,5.000 12.022 C 5.000 9.586,4.997 9.609,5.303 9.303 C 5.587 9.019,5.694 9.000,7.037 8.998 C 8.266 8.996,8.356 8.984,8.619 8.783 C 8.696 8.725,8.808 8.592,8.869 8.489 C 8.964 8.328,8.980 8.256,8.980 8.000 C 8.980 7.746,8.963 7.672,8.872 7.516 C 8.813 7.415,8.698 7.282,8.618 7.221 C 8.350 7.016,8.216 7.000,6.904 7.005 C 6.242 7.007,5.609 7.025,5.499 7.043 M11.695 7.057 C 11.466 7.129,11.256 7.299,11.128 7.516 L 11.020 7.700 11.020 12.003 L 11.020 16.306 11.141 16.503 C 11.209 16.613,11.346 16.756,11.452 16.828 C 11.923 17.144,12.554 16.999,12.859 16.503 L 12.980 16.306 12.980 12.003 L 12.980 7.700 12.872 7.516 C 12.628 7.101,12.150 6.915,11.695 7.057 M15.695 7.057 C 15.466 7.129,15.256 7.299,15.128 7.516 L 15.020 7.700 15.020 12.003 L 15.020 16.306 15.141 16.503 C 15.543 17.156,16.457 17.156,16.859 16.503 L 16.980 16.306 16.992 14.653 L 17.003 13.000 18.092 12.998 C 19.262 12.996,19.358 12.983,19.619 12.783 C 19.696 12.725,19.808 12.592,19.869 12.489 C 19.964 12.328,19.980 12.256,19.980 12.000 C 19.980 11.746,19.963 11.672,19.872 11.516 C 19.813 11.415,19.698 11.282,19.618 11.221 C 19.356 11.022,19.203 11.000,18.054 11.000 L 17.000 11.000 17.000 10.000 L 17.000 9.000 18.590 8.998 C 20.300 8.996,20.346 8.991,20.619 8.783 C 20.696 8.725,20.808 8.592,20.869 8.489 C 20.964 8.328,20.980 8.256,20.980 8.000 C 20.980 7.746,20.963 7.672,20.872 7.516 C 20.740 7.293,20.533 7.128,20.290 7.055 C 20.033 6.978,15.943 6.979,15.695 7.057 " stroke="none" fill-rule="evenodd" fill="black"></path></svg>