<svg xmlns="http://www.w3.org/2000/svg" width="24" height="24" viewBox="0 0 24 24" fill="none" stroke="currentColor" stroke-width="2" stroke-linecap="round" stroke-linejoin="round"><path d="M2.670 2.061 C 2.448 2.142,2.250 2.309,2.128 2.516 C 2.037 2.672,2.020 2.746,2.020 3.000 C 2.020 3.254,2.036 3.328,2.127 3.480 C 2.186 3.579,2.632 4.056,3.117 4.540 L 4.000 5.419 4.000 5.605 C 4.000 5.932,4.132 6.516,4.300 6.930 C 4.326 6.993,4.298 7.000,4.034 7.002 C 3.088 7.010,2.292 7.617,2.060 8.508 C 1.973 8.839,1.973 11.161,2.060 11.492 C 2.153 11.852,2.310 12.118,2.596 12.404 C 2.958 12.766,3.457 13.000,3.867 13.000 L 3.997 13.000 4.009 16.290 L 4.021 19.580 4.114 19.860 C 4.445 20.850,5.184 21.582,6.160 21.886 L 6.460 21.980 12.000 21.980 L 17.540 21.980 17.839 21.886 C 18.394 21.712,18.773 21.473,19.197 21.032 L 19.398 20.822 19.909 21.326 C 20.190 21.603,20.483 21.863,20.560 21.904 C 20.660 21.957,20.786 21.979,21.000 21.979 C 21.258 21.980,21.327 21.964,21.492 21.867 C 21.968 21.587,22.139 20.967,21.865 20.508 C 21.810 20.416,17.665 16.243,12.653 11.235 C 4.231 2.820,3.525 2.125,3.343 2.065 C 3.107 1.987,2.874 1.986,2.670 2.061 M6.969 2.042 C 6.431 2.138,6.080 2.521,6.080 3.010 C 6.080 3.416,6.273 3.749,6.614 3.931 C 6.762 4.011,6.831 4.019,7.257 4.011 C 7.811 4.000,8.121 4.059,8.490 4.245 C 9.511 4.760,10.439 6.122,10.898 7.780 C 11.117 8.574,11.215 8.736,11.580 8.906 L 11.780 8.999 15.890 9.000 L 20.000 9.000 20.000 10.000 L 20.000 11.000 17.946 11.000 C 15.717 11.000,15.666 11.004,15.382 11.221 C 15.302 11.282,15.187 11.415,15.128 11.516 C 15.037 11.672,15.020 11.746,15.020 12.000 C 15.020 12.256,15.036 12.328,15.131 12.489 C 15.192 12.592,15.304 12.725,15.381 12.783 C 15.642 12.983,15.738 12.996,16.908 12.998 L 17.995 13.000 18.008 14.153 L 18.020 15.307 18.141 15.503 C 18.446 15.999,19.077 16.144,19.548 15.828 C 19.654 15.756,19.791 15.613,19.859 15.503 L 19.980 15.307 19.992 14.153 L 20.005 13.000 20.134 13.000 C 20.543 13.000,21.042 12.766,21.404 12.404 C 21.694 12.114,21.841 11.863,21.937 11.491 C 22.026 11.149,22.028 8.903,21.940 8.529 C 21.858 8.182,21.720 7.927,21.465 7.653 C 21.066 7.224,20.566 7.007,19.966 7.002 C 19.701 7.000,19.674 6.993,19.701 6.930 C 20.548 4.909,19.477 2.689,17.378 2.114 C 17.115 2.041,16.956 2.027,16.460 2.028 C 15.728 2.030,15.293 2.129,14.667 2.437 C 13.731 2.896,12.890 3.701,12.247 4.750 C 12.122 4.953,12.011 5.119,12.000 5.119 C 11.989 5.120,11.878 4.953,11.753 4.750 C 10.919 3.395,9.749 2.446,8.533 2.137 C 8.090 2.025,7.323 1.978,6.969 2.042 M16.808 4.045 C 17.270 4.143,17.665 4.462,17.866 4.900 C 17.961 5.106,17.977 5.192,17.977 5.500 C 17.977 5.808,17.961 5.894,17.866 6.100 C 17.722 6.414,17.414 6.724,17.104 6.867 L 16.860 6.980 15.110 6.992 L 13.360 7.003 13.439 6.803 C 13.710 6.116,14.194 5.363,14.679 4.878 C 15.393 4.162,16.084 3.891,16.808 4.045 M8.580 10.000 L 9.579 11.000 6.790 11.000 L 4.000 11.000 4.000 10.000 L 4.000 9.000 5.790 9.000 L 7.581 9.000 8.580 10.000 M11.000 16.501 L 11.000 20.003 8.850 19.991 L 6.700 19.980 6.516 19.872 C 6.415 19.813,6.284 19.700,6.225 19.623 C 5.994 19.320,6.000 19.418,6.000 16.075 L 6.000 13.000 8.500 13.000 L 11.000 13.000 11.000 16.501 M17.920 19.382 C 17.920 19.476,17.661 19.768,17.486 19.871 L 17.300 19.980 15.150 19.991 L 13.000 20.003 13.000 17.211 L 13.000 14.420 15.460 16.880 C 16.813 18.233,17.920 19.359,17.920 19.382 " stroke="none" fill-rule="evenodd" fill="black"></path></svg>