<svg xmlns="http://www.w3.org/2000/svg" width="24" height="24" viewBox="0 0 24 24" fill="none" stroke="currentColor" stroke-width="2" stroke-linecap="round" stroke-linejoin="round"><path d="M13.640 2.069 C 13.488 2.121,13.205 2.384,11.825 3.755 C 10.040 5.530,10.001 5.578,10.001 6.000 C 10.001 6.420,10.043 6.472,11.806 8.226 C 12.694 9.109,13.481 9.862,13.555 9.899 C 14.010 10.128,14.601 9.944,14.867 9.492 C 14.964 9.327,14.980 9.258,14.979 9.000 C 14.979 8.787,14.957 8.660,14.904 8.560 C 14.864 8.483,14.514 8.101,14.127 7.710 L 13.423 7.000 14.764 7.000 C 16.327 7.000,16.406 7.012,16.697 7.303 C 17.015 7.621,17.000 7.415,17.000 11.520 L 17.000 15.145 16.670 15.313 C 15.922 15.693,15.365 16.355,15.114 17.160 C 14.979 17.594,14.979 18.406,15.114 18.840 C 15.421 19.826,16.174 20.579,17.160 20.886 C 17.594 21.021,18.406 21.021,18.840 20.886 C 19.826 20.579,20.579 19.826,20.886 18.840 C 21.021 18.406,21.021 17.594,20.886 17.160 C 20.637 16.360,20.081 15.698,19.340 15.317 L 19.020 15.153 19.000 11.286 L 18.980 7.420 18.886 7.140 C 18.557 6.157,17.815 5.419,16.861 5.123 C 16.547 5.026,16.506 5.024,14.984 5.009 L 13.429 4.994 14.130 4.287 C 14.515 3.898,14.864 3.517,14.904 3.440 C 14.957 3.340,14.979 3.213,14.979 3.000 C 14.980 2.745,14.964 2.672,14.872 2.516 C 14.617 2.083,14.121 1.902,13.640 2.069 M5.499 3.040 C 4.363 3.246,3.460 4.049,3.114 5.160 C 2.979 5.594,2.979 6.406,3.114 6.840 C 3.365 7.645,3.931 8.318,4.670 8.688 L 5.000 8.853 5.000 11.999 L 5.000 15.145 4.670 15.313 C 3.922 15.693,3.365 16.355,3.114 17.160 C 2.979 17.594,2.979 18.406,3.114 18.840 C 3.421 19.826,4.174 20.579,5.160 20.886 C 5.594 21.021,6.406 21.021,6.840 20.886 C 7.826 20.579,8.579 19.826,8.886 18.840 C 9.021 18.406,9.021 17.594,8.886 17.160 C 8.635 16.355,8.078 15.693,7.330 15.313 L 7.000 15.145 7.000 11.999 L 7.000 8.853 7.330 8.688 C 8.069 8.318,8.635 7.645,8.886 6.840 C 9.021 6.406,9.021 5.594,8.886 5.160 C 8.581 4.179,7.810 3.407,6.861 3.129 C 6.500 3.023,5.832 2.980,5.499 3.040 M6.310 5.061 C 6.688 5.173,7.000 5.598,7.000 6.001 C 7.000 6.331,6.784 6.696,6.484 6.872 C 6.328 6.963,6.254 6.980,6.000 6.980 C 5.746 6.980,5.672 6.963,5.516 6.872 C 4.935 6.530,4.833 5.774,5.304 5.303 C 5.583 5.024,5.916 4.944,6.310 5.061 M6.310 17.061 C 6.688 17.173,7.000 17.598,7.000 18.001 C 7.000 18.331,6.784 18.696,6.484 18.872 C 6.328 18.963,6.254 18.980,6.000 18.980 C 5.746 18.980,5.672 18.963,5.516 18.872 C 4.935 18.530,4.833 17.774,5.304 17.303 C 5.583 17.024,5.916 16.944,6.310 17.061 M18.310 17.061 C 18.688 17.173,19.000 17.598,19.000 18.001 C 19.000 18.331,18.784 18.696,18.484 18.872 C 18.328 18.963,18.254 18.980,18.000 18.980 C 17.746 18.980,17.672 18.963,17.516 18.872 C 16.935 18.530,16.833 17.774,17.304 17.303 C 17.583 17.024,17.916 16.944,18.310 17.061 " stroke="none" fill-rule="evenodd" fill="black"></path></svg>