<svg xmlns="http://www.w3.org/2000/svg" width="24" height="24" viewBox="0 0 24 24" fill="none" stroke="currentColor" stroke-width="2" stroke-linecap="round" stroke-linejoin="round"><path d="M5.499 3.040 C 4.363 3.246,3.460 4.049,3.114 5.160 C 2.979 5.594,2.979 6.406,3.114 6.840 C 3.365 7.645,3.931 8.318,4.670 8.688 L 5.000 8.853 5.000 11.999 L 5.000 15.145 4.670 15.313 C 3.922 15.693,3.365 16.355,3.114 17.160 C 2.979 17.594,2.979 18.406,3.114 18.840 C 3.421 19.826,4.174 20.579,5.160 20.886 C 5.594 21.021,6.406 21.021,6.840 20.886 C 7.826 20.579,8.579 19.826,8.886 18.840 C 9.021 18.406,9.021 17.594,8.886 17.160 C 8.635 16.355,8.078 15.693,7.330 15.313 L 7.000 15.145 7.000 11.999 L 7.000 8.853 7.330 8.688 C 8.069 8.318,8.635 7.645,8.886 6.840 C 9.021 6.406,9.021 5.594,8.886 5.160 C 8.581 4.179,7.810 3.407,6.861 3.129 C 6.500 3.023,5.832 2.980,5.499 3.040 M15.670 3.061 C 15.448 3.142,15.250 3.309,15.128 3.516 C 15.036 3.672,15.020 3.745,15.021 4.000 C 15.021 4.213,15.043 4.340,15.096 4.440 C 15.136 4.517,15.486 4.899,15.873 5.290 L 16.577 6.000 15.873 6.710 C 15.486 7.100,15.139 7.481,15.101 7.555 C 14.872 8.008,15.056 8.601,15.508 8.867 C 15.673 8.964,15.742 8.980,16.000 8.979 C 16.213 8.979,16.340 8.957,16.440 8.904 C 16.517 8.864,16.899 8.514,17.290 8.127 L 18.000 7.423 18.710 8.127 C 19.101 8.514,19.483 8.864,19.560 8.904 C 19.660 8.957,19.787 8.979,20.000 8.979 C 20.258 8.980,20.327 8.964,20.492 8.867 C 20.714 8.737,20.901 8.498,20.965 8.264 C 21.019 8.061,20.989 7.733,20.899 7.555 C 20.861 7.481,20.514 7.100,20.127 6.710 L 19.423 6.000 20.127 5.290 C 20.514 4.899,20.864 4.517,20.904 4.440 C 20.957 4.340,20.979 4.213,20.979 4.000 C 20.980 3.745,20.964 3.672,20.872 3.516 C 20.617 3.083,20.135 2.905,19.657 3.067 C 19.491 3.123,19.345 3.247,18.730 3.854 L 18.000 4.574 17.270 3.854 C 16.655 3.247,16.509 3.123,16.343 3.067 C 16.108 2.987,15.876 2.985,15.670 3.061 M6.310 5.061 C 6.688 5.173,7.000 5.598,7.000 6.001 C 7.000 6.331,6.784 6.696,6.484 6.872 C 6.328 6.963,6.254 6.980,6.000 6.980 C 5.746 6.980,5.672 6.963,5.516 6.872 C 4.935 6.530,4.833 5.774,5.304 5.303 C 5.583 5.024,5.916 4.944,6.310 5.061 M17.695 10.057 C 17.466 10.129,17.256 10.299,17.128 10.516 L 17.020 10.700 17.000 12.926 L 16.980 15.153 16.660 15.317 C 15.919 15.698,15.363 16.360,15.114 17.160 C 14.979 17.594,14.979 18.406,15.114 18.840 C 15.421 19.826,16.174 20.579,17.160 20.886 C 17.412 20.964,17.547 20.979,18.000 20.979 C 18.453 20.979,18.588 20.964,18.840 20.886 C 19.826 20.579,20.579 19.826,20.886 18.840 C 21.021 18.406,21.021 17.594,20.886 17.160 C 20.637 16.360,20.081 15.698,19.340 15.317 L 19.020 15.153 19.000 12.926 L 18.980 10.700 18.872 10.516 C 18.628 10.101,18.150 9.915,17.695 10.057 M6.310 17.061 C 6.688 17.173,7.000 17.598,7.000 18.001 C 7.000 18.331,6.784 18.696,6.484 18.872 C 6.328 18.963,6.254 18.980,6.000 18.980 C 5.746 18.980,5.672 18.963,5.516 18.872 C 4.935 18.530,4.833 17.774,5.304 17.303 C 5.583 17.024,5.916 16.944,6.310 17.061 M18.310 17.061 C 18.688 17.173,19.000 17.598,19.000 18.001 C 19.000 18.331,18.784 18.696,18.484 18.872 C 18.328 18.963,18.254 18.980,18.000 18.980 C 17.746 18.980,17.672 18.963,17.516 18.872 C 16.935 18.530,16.833 17.774,17.304 17.303 C 17.583 17.024,17.916 16.944,18.310 17.061 " stroke="none" fill-rule="evenodd" fill="black"></path></svg>