<svg xmlns="http://www.w3.org/2000/svg" width="24" height="24" viewBox="0 0 24 24" fill="none" stroke="currentColor" stroke-width="2" stroke-linecap="round" stroke-linejoin="round"><path d="M6.499 3.040 C 5.363 3.246,4.460 4.049,4.114 5.160 C 3.979 5.594,3.979 6.406,4.114 6.840 C 4.365 7.645,4.931 8.318,5.670 8.688 L 6.000 8.853 6.000 11.999 L 6.000 15.145 5.670 15.313 C 4.922 15.693,4.365 16.355,4.114 17.160 C 3.979 17.594,3.979 18.406,4.114 18.840 C 4.421 19.826,5.174 20.579,6.160 20.886 C 6.594 21.021,7.406 21.021,7.840 20.886 C 8.640 20.637,9.314 20.072,9.684 19.340 L 9.845 19.020 12.713 18.999 L 15.580 18.979 15.860 18.885 C 16.838 18.560,17.564 17.833,17.884 16.860 C 17.973 16.591,17.977 16.520,17.991 15.004 L 18.006 13.429 18.713 14.130 C 19.102 14.515,19.483 14.864,19.560 14.904 C 19.660 14.957,19.787 14.979,20.000 14.979 C 20.258 14.980,20.327 14.964,20.492 14.867 C 20.714 14.737,20.901 14.498,20.965 14.264 C 21.019 14.061,20.989 13.733,20.899 13.555 C 20.862 13.481,20.109 12.694,19.226 11.806 C 17.472 10.043,17.420 10.001,17.000 10.001 C 16.580 10.001,16.528 10.043,14.774 11.806 C 13.891 12.694,13.135 13.483,13.095 13.560 C 13.043 13.659,13.021 13.788,13.021 14.000 C 13.020 14.258,13.036 14.327,13.133 14.492 C 13.263 14.714,13.502 14.901,13.736 14.965 C 13.939 15.019,14.267 14.989,14.445 14.899 C 14.519 14.861,14.900 14.514,15.290 14.127 L 16.000 13.423 16.000 14.765 C 16.000 16.225,15.985 16.347,15.779 16.618 C 15.718 16.698,15.585 16.813,15.484 16.872 L 15.300 16.980 12.577 16.991 L 9.854 17.002 9.688 16.671 C 9.403 16.102,8.909 15.607,8.330 15.313 L 8.000 15.145 8.000 11.999 L 8.000 8.853 8.330 8.688 C 9.069 8.318,9.635 7.645,9.886 6.840 C 10.021 6.406,10.021 5.594,9.886 5.160 C 9.581 4.179,8.810 3.407,7.861 3.129 C 7.500 3.023,6.832 2.980,6.499 3.040 M14.670 3.061 C 14.448 3.142,14.250 3.309,14.128 3.516 C 14.036 3.672,14.020 3.745,14.021 4.000 C 14.021 4.213,14.043 4.340,14.096 4.440 C 14.136 4.517,14.486 4.899,14.873 5.290 L 15.577 6.000 14.873 6.710 C 14.486 7.100,14.139 7.481,14.101 7.555 C 13.872 8.008,14.056 8.601,14.508 8.867 C 14.673 8.964,14.742 8.980,15.000 8.979 C 15.213 8.979,15.340 8.957,15.440 8.904 C 15.517 8.864,15.900 8.514,16.290 8.127 L 17.000 7.423 17.710 8.127 C 18.101 8.514,18.483 8.864,18.560 8.904 C 18.660 8.957,18.787 8.979,19.000 8.979 C 19.258 8.980,19.327 8.964,19.492 8.867 C 19.714 8.737,19.901 8.498,19.965 8.264 C 20.019 8.061,19.989 7.733,19.899 7.555 C 19.861 7.481,19.514 7.100,19.127 6.710 L 18.423 6.000 19.127 5.290 C 19.514 4.899,19.864 4.517,19.904 4.440 C 19.957 4.340,19.979 4.213,19.979 4.000 C 19.980 3.745,19.964 3.672,19.872 3.516 C 19.617 3.083,19.135 2.905,18.657 3.067 C 18.491 3.123,18.345 3.247,17.730 3.854 L 17.000 4.574 16.270 3.854 C 15.655 3.247,15.509 3.123,15.343 3.067 C 15.108 2.987,14.876 2.985,14.670 3.061 M7.310 5.061 C 7.688 5.173,8.000 5.598,8.000 6.001 C 8.000 6.331,7.784 6.696,7.484 6.872 C 7.328 6.963,7.254 6.980,7.000 6.980 C 6.746 6.980,6.672 6.963,6.516 6.872 C 5.935 6.530,5.833 5.774,6.304 5.303 C 6.583 5.024,6.916 4.944,7.310 5.061 M7.310 17.061 C 7.688 17.173,8.000 17.598,8.000 18.001 C 8.000 18.331,7.784 18.696,7.484 18.872 C 7.328 18.963,7.254 18.980,7.000 18.980 C 6.746 18.980,6.672 18.963,6.516 18.872 C 5.935 18.530,5.833 17.774,6.304 17.303 C 6.583 17.024,6.916 16.944,7.310 17.061 " stroke="none" fill-rule="evenodd" fill="black"></path></svg>