<svg xmlns="http://www.w3.org/2000/svg" width="24" height="24" viewBox="0 0 24 24" fill="none" stroke="currentColor" stroke-width="2" stroke-linecap="round" stroke-linejoin="round"><path d="M11.121 2.045 C 9.125 2.222,7.532 3.138,7.108 4.352 C 6.882 5.000,7.040 7.827,7.423 10.000 C 8.037 13.478,9.273 15.925,10.810 16.705 L 11.000 16.801 11.000 18.401 L 11.000 20.000 9.946 20.000 C 8.797 20.000,8.644 20.022,8.382 20.221 C 8.302 20.282,8.187 20.415,8.128 20.516 C 8.037 20.672,8.020 20.746,8.020 21.000 C 8.020 21.256,8.036 21.328,8.131 21.489 C 8.256 21.702,8.449 21.864,8.670 21.943 C 8.891 22.022,15.109 22.022,15.330 21.943 C 15.551 21.864,15.744 21.702,15.869 21.489 C 15.964 21.328,15.980 21.256,15.980 21.000 C 15.980 20.746,15.963 20.672,15.872 20.516 C 15.813 20.415,15.698 20.282,15.618 20.221 C 15.356 20.022,15.203 20.000,14.054 20.000 L 13.000 20.000 13.000 18.401 L 13.000 16.801 13.190 16.705 C 15.237 15.667,16.670 11.802,16.962 6.533 C 17.023 5.432,16.998 4.658,16.892 4.352 C 16.336 2.760,13.925 1.796,11.121 2.045 M13.180 4.101 C 13.618 4.179,14.031 4.314,14.399 4.499 C 14.683 4.643,15.000 4.907,15.000 5.001 C 15.000 5.101,14.658 5.381,14.355 5.529 C 13.680 5.858,13.044 5.980,12.000 5.980 C 10.956 5.980,10.320 5.858,9.645 5.529 C 9.342 5.381,9.000 5.101,9.000 5.001 C 9.000 4.907,9.317 4.643,9.601 4.499 C 10.091 4.253,10.671 4.098,11.380 4.024 C 11.703 3.991,12.830 4.039,13.180 4.101 M10.300 7.836 C 11.684 8.114,13.260 8.035,14.493 7.625 L 14.886 7.494 14.859 7.797 C 14.710 9.510,14.259 11.521,13.725 12.851 C 13.228 14.090,12.498 14.998,12.000 14.998 C 11.422 14.998,10.609 13.861,10.066 12.293 C 9.643 11.070,9.267 9.240,9.141 7.797 L 9.114 7.494 9.507 7.625 C 9.723 7.697,10.080 7.792,10.300 7.836 " stroke="none" fill-rule="evenodd" fill="black"></path></svg>