<svg xmlns="http://www.w3.org/2000/svg" width="24" height="24" viewBox="0 0 24 24" fill="none" stroke="currentColor" stroke-width="2" stroke-linecap="round" stroke-linejoin="round"><path d="M10.620 2.045 C 8.445 2.176,6.570 2.654,5.536 3.342 C 5.048 3.666,4.810 3.946,4.585 4.459 C 4.261 5.199,4.119 5.805,4.041 6.776 C 3.892 8.640,4.124 10.072,4.801 11.474 C 5.225 12.352,5.730 13.049,6.446 13.741 C 7.114 14.389,7.706 14.803,8.529 15.200 C 9.249 15.549,10.472 15.920,10.898 15.920 L 11.000 15.920 11.000 17.960 L 11.000 20.000 9.446 20.000 C 7.758 20.000,7.658 20.011,7.382 20.221 C 7.302 20.282,7.187 20.415,7.128 20.516 C 7.037 20.672,7.020 20.746,7.020 21.000 C 7.020 21.256,7.036 21.328,7.131 21.489 C 7.256 21.702,7.449 21.864,7.670 21.943 C 7.892 22.022,16.108 22.022,16.330 21.943 C 16.551 21.864,16.744 21.702,16.869 21.489 C 16.964 21.328,16.980 21.256,16.980 21.000 C 16.980 20.746,16.963 20.672,16.872 20.516 C 16.813 20.415,16.698 20.282,16.618 20.221 C 16.342 20.011,16.242 20.000,14.554 20.000 L 13.000 20.000 13.000 17.960 L 13.000 15.920 13.102 15.920 C 13.528 15.920,14.751 15.549,15.471 15.200 C 16.294 14.803,16.886 14.389,17.554 13.741 C 18.270 13.049,18.775 12.352,19.199 11.474 C 19.759 10.316,20.001 9.201,19.999 7.792 C 19.998 6.191,19.809 5.193,19.336 4.276 C 19.034 3.691,18.491 3.260,17.584 2.883 C 15.957 2.208,13.279 1.886,10.620 2.045 M13.200 4.041 C 14.432 4.117,15.497 4.293,16.340 4.560 C 16.783 4.701,17.320 4.942,17.320 5.001 C 17.320 5.121,16.164 5.530,15.360 5.695 C 13.360 6.104,10.640 6.104,8.640 5.695 C 7.836 5.530,6.680 5.121,6.680 5.001 C 6.680 4.942,7.217 4.701,7.660 4.560 C 9.067 4.114,11.174 3.916,13.200 4.041 M7.297 7.421 C 8.121 7.657,9.043 7.823,10.100 7.928 C 10.788 7.995,13.212 7.995,13.900 7.928 C 15.354 7.784,16.653 7.501,17.568 7.127 L 17.951 6.971 17.975 7.151 C 18.011 7.412,18.004 8.120,17.961 8.564 C 17.702 11.217,15.808 13.317,13.160 13.885 C 12.554 14.015,11.446 14.015,10.840 13.885 C 8.706 13.427,7.013 11.947,6.329 9.940 C 6.060 9.151,5.943 8.110,6.026 7.236 L 6.051 6.971 6.432 7.127 C 6.642 7.213,7.032 7.345,7.297 7.421 " stroke="none" fill-rule="evenodd" fill="black"></path></svg>