<svg xmlns="http://www.w3.org/2000/svg" width="24" height="24" viewBox="0 0 24 24" fill="none" stroke="currentColor" stroke-width="2" stroke-linecap="round" stroke-linejoin="round"><path d="M10.880 2.024 C 9.287 2.112,8.260 2.254,7.114 2.541 C 5.617 2.918,4.629 3.472,4.229 4.163 C 4.033 4.501,3.987 4.757,4.011 5.378 C 4.035 5.985,4.114 6.346,4.311 6.756 C 4.477 7.101,9.639 14.830,9.876 15.089 C 10.112 15.346,10.540 15.647,10.816 15.749 L 11.000 15.817 11.000 17.909 L 11.000 20.000 9.446 20.000 C 7.758 20.000,7.658 20.011,7.382 20.221 C 7.302 20.282,7.187 20.415,7.128 20.516 C 7.037 20.672,7.020 20.746,7.020 21.000 C 7.020 21.256,7.036 21.328,7.131 21.489 C 7.256 21.702,7.449 21.864,7.670 21.943 C 7.892 22.022,16.108 22.022,16.330 21.943 C 16.551 21.864,16.744 21.702,16.869 21.489 C 16.964 21.328,16.980 21.256,16.980 21.000 C 16.980 20.746,16.963 20.672,16.872 20.516 C 16.813 20.415,16.698 20.282,16.618 20.221 C 16.342 20.011,16.242 20.000,14.554 20.000 L 13.000 20.000 13.000 17.921 L 13.000 15.841 13.270 15.705 C 13.625 15.526,13.997 15.243,14.214 14.987 C 14.453 14.705,19.554 7.036,19.689 6.756 C 19.886 6.346,19.965 5.985,19.989 5.378 C 20.013 4.757,19.967 4.501,19.771 4.163 C 19.150 3.093,17.102 2.351,14.020 2.080 C 13.528 2.037,11.346 1.998,10.880 2.024 M13.920 4.078 C 14.563 4.134,14.978 4.190,15.582 4.302 C 16.667 4.504,17.829 4.896,17.745 5.032 C 17.697 5.109,16.903 5.395,16.339 5.538 C 15.739 5.691,14.806 5.844,13.980 5.927 C 13.285 5.996,10.715 5.996,10.020 5.927 C 9.194 5.844,8.261 5.691,7.661 5.538 C 7.097 5.395,6.303 5.109,6.255 5.032 C 6.176 4.904,7.303 4.512,8.299 4.321 C 9.085 4.171,9.741 4.097,10.940 4.024 C 11.358 3.998,13.441 4.036,13.920 4.078 M7.780 7.617 C 9.130 7.895,10.136 7.980,12.040 7.978 C 13.974 7.976,15.108 7.870,16.480 7.564 C 16.667 7.522,16.822 7.491,16.825 7.494 C 16.837 7.511,12.766 13.609,12.680 13.702 C 12.536 13.858,12.213 13.999,12.000 13.999 C 11.747 13.999,11.444 13.847,11.272 13.635 C 11.194 13.539,10.747 12.884,10.278 12.180 C 8.031 8.806,7.165 7.476,7.230 7.497 C 7.268 7.509,7.516 7.563,7.780 7.617 " stroke="none" fill-rule="evenodd" fill="black"></path></svg>