<svg xmlns="http://www.w3.org/2000/svg" width="24" height="24" viewBox="0 0 24 24" fill="none" stroke="currentColor" stroke-width="2" stroke-linecap="round" stroke-linejoin="round"><path d="M14.664 1.063 C 14.044 1.290,13.818 1.999,14.184 2.569 C 14.248 2.668,14.449 2.829,14.790 3.054 C 15.950 3.820,16.649 4.602,17.260 5.814 C 17.581 6.451,17.743 6.906,17.887 7.565 C 17.966 7.931,17.977 8.093,17.977 8.940 C 17.977 9.788,17.966 9.949,17.886 10.320 C 17.594 11.673,16.987 12.828,16.060 13.795 C 14.125 15.813,11.250 16.484,8.600 15.538 C 7.918 15.295,7.187 14.879,6.600 14.402 C 6.213 14.086,5.968 13.984,5.674 14.014 C 5.544 14.028,5.387 14.066,5.324 14.098 C 4.764 14.388,4.583 15.098,4.945 15.587 C 5.059 15.740,5.581 16.163,6.020 16.458 C 7.076 17.166,8.392 17.675,9.632 17.854 L 9.980 17.904 9.991 18.952 L 10.001 20.000 8.447 20.000 C 6.758 20.000,6.658 20.011,6.382 20.221 C 6.302 20.282,6.187 20.415,6.128 20.516 C 6.037 20.672,6.020 20.746,6.020 21.000 C 6.020 21.256,6.036 21.328,6.131 21.489 C 6.256 21.702,6.449 21.864,6.670 21.943 C 6.892 22.022,15.108 22.022,15.330 21.943 C 15.551 21.864,15.744 21.702,15.869 21.489 C 15.964 21.328,15.980 21.256,15.980 21.000 C 15.980 20.746,15.963 20.672,15.872 20.516 C 15.813 20.415,15.698 20.282,15.618 20.221 C 15.342 20.011,15.242 20.000,13.554 20.000 L 12.000 20.000 12.000 18.962 L 12.000 17.924 12.150 17.900 C 13.621 17.663,14.892 17.185,15.994 16.452 C 17.038 15.759,17.862 14.921,18.587 13.816 C 19.941 11.755,20.366 9.056,19.718 6.640 C 19.551 6.016,19.383 5.580,19.058 4.927 C 18.395 3.591,17.508 2.538,16.320 1.675 C 15.456 1.047,15.084 0.909,14.664 1.063 M10.400 4.044 C 8.761 4.229,7.261 5.290,6.526 6.785 C 6.158 7.533,6.020 8.136,6.020 9.000 C 6.020 9.670,6.078 10.044,6.268 10.600 C 6.846 12.291,8.253 13.525,10.040 13.907 C 10.511 14.008,11.489 14.008,11.960 13.907 C 13.488 13.580,14.748 12.630,15.433 11.288 C 15.838 10.494,15.980 9.899,15.980 9.000 C 15.980 8.101,15.838 7.506,15.433 6.713 C 14.794 5.461,13.604 4.510,12.240 4.162 C 11.669 4.016,11.019 3.974,10.400 4.044 M11.861 6.129 C 12.804 6.405,13.584 7.183,13.875 8.139 C 13.958 8.412,13.973 8.542,13.973 9.000 C 13.973 9.458,13.958 9.588,13.875 9.861 C 13.582 10.822,12.819 11.581,11.840 11.886 C 11.406 12.021,10.594 12.021,10.160 11.886 C 9.181 11.581,8.418 10.822,8.125 9.861 C 8.042 9.588,8.027 9.458,8.027 9.000 C 8.027 8.542,8.042 8.412,8.125 8.139 C 8.456 7.054,9.371 6.245,10.499 6.040 C 10.832 5.980,11.500 6.023,11.861 6.129 " stroke="none" fill-rule="evenodd" fill="black"></path></svg>