<svg xmlns="http://www.w3.org/2000/svg" width="24" height="24" viewBox="0 0 24 24" fill="none" stroke="currentColor" stroke-width="2" stroke-linecap="round" stroke-linejoin="round"><path d="M14.664 1.063 C 14.042 1.291,13.818 1.999,14.185 2.571 C 14.250 2.672,14.433 2.820,14.731 3.014 C 15.771 3.691,16.466 4.408,17.057 5.413 C 17.669 6.455,17.946 7.448,17.986 8.740 C 18.034 10.254,17.712 11.437,16.900 12.740 C 16.608 13.209,16.544 13.381,16.569 13.639 C 16.645 14.427,17.518 14.817,18.169 14.354 C 18.341 14.231,18.798 13.518,19.102 12.900 C 19.709 11.663,20.011 10.351,20.010 8.960 C 20.008 6.022,18.633 3.333,16.266 1.638 C 15.409 1.025,15.085 0.908,14.664 1.063 M2.670 2.061 C 2.448 2.142,2.250 2.309,2.128 2.516 C 2.037 2.672,2.020 2.746,2.020 3.000 C 2.020 3.254,2.036 3.327,2.127 3.480 C 2.187 3.579,3.125 4.549,4.213 5.635 C 6.181 7.600,6.191 7.612,6.155 7.735 C 6.072 8.019,6.000 8.607,6.000 9.005 C 6.000 9.699,6.170 10.478,6.461 11.110 C 6.922 12.111,7.889 13.078,8.890 13.539 C 9.913 14.010,11.270 14.133,12.240 13.842 L 12.379 13.800 13.130 14.550 C 13.542 14.962,13.880 15.312,13.880 15.327 C 13.880 15.406,12.793 15.753,12.189 15.868 C 11.665 15.966,10.325 15.966,9.820 15.866 C 8.562 15.617,7.505 15.136,6.600 14.400 C 6.457 14.284,6.243 14.144,6.125 14.089 C 5.942 14.004,5.875 13.993,5.668 14.015 C 5.104 14.074,4.727 14.516,4.767 15.071 C 4.791 15.396,4.900 15.580,5.243 15.872 C 6.394 16.851,8.094 17.626,9.560 17.839 C 9.747 17.867,9.922 17.895,9.950 17.903 C 9.988 17.914,10.000 18.160,10.000 18.959 L 10.000 20.000 8.446 20.000 C 6.758 20.000,6.658 20.011,6.382 20.221 C 6.302 20.282,6.187 20.415,6.128 20.516 C 6.037 20.672,6.020 20.746,6.020 21.000 C 6.020 21.256,6.036 21.328,6.131 21.489 C 6.256 21.702,6.449 21.864,6.670 21.943 C 6.892 22.022,15.108 22.022,15.330 21.943 C 15.551 21.864,15.744 21.702,15.869 21.489 C 15.964 21.328,15.980 21.256,15.980 21.000 C 15.980 20.746,15.963 20.672,15.872 20.516 C 15.813 20.415,15.698 20.282,15.618 20.221 C 15.342 20.011,15.242 20.000,13.554 20.000 L 12.000 20.000 12.000 18.961 L 12.000 17.922 12.090 17.903 C 12.139 17.892,12.315 17.863,12.480 17.838 C 13.231 17.725,14.106 17.446,14.892 17.070 L 15.404 16.825 17.912 19.328 C 19.291 20.705,20.483 21.865,20.560 21.905 C 20.659 21.957,20.788 21.979,21.000 21.979 C 21.258 21.980,21.327 21.964,21.492 21.867 C 21.968 21.587,22.139 20.967,21.865 20.508 C 21.810 20.416,17.665 16.243,12.653 11.235 C 4.231 2.820,3.525 2.125,3.343 2.065 C 3.107 1.987,2.874 1.986,2.670 2.061 M10.260 4.056 C 9.804 4.133,9.491 4.221,9.114 4.380 C 8.730 4.542,8.585 4.665,8.455 4.940 C 8.203 5.473,8.474 6.108,9.035 6.299 C 9.297 6.388,9.477 6.375,9.827 6.239 C 11.026 5.777,12.247 6.017,13.115 6.885 C 13.638 7.408,13.927 8.045,13.984 8.798 C 14.016 9.225,13.957 9.602,13.771 10.138 C 13.660 10.459,13.637 10.578,13.654 10.731 C 13.717 11.273,14.213 11.683,14.741 11.628 C 15.146 11.587,15.400 11.387,15.594 10.960 C 16.062 9.924,16.127 8.688,15.775 7.520 C 15.550 6.776,15.165 6.129,14.600 5.545 C 13.861 4.781,13.025 4.319,11.980 4.099 C 11.554 4.009,10.671 3.987,10.260 4.056 M10.503 11.950 C 10.477 11.977,10.014 11.842,9.791 11.743 C 9.140 11.455,8.530 10.848,8.261 10.220 C 8.188 10.051,8.040 9.568,8.040 9.500 C 8.040 9.478,8.597 10.018,9.278 10.698 C 9.960 11.379,10.511 11.943,10.503 11.950 " stroke="none" fill-rule="evenodd" fill="black"></path></svg>