<svg xmlns="http://www.w3.org/2000/svg" width="24" height="24" viewBox="0 0 24 24" fill="none" stroke="currentColor" stroke-width="2" stroke-linecap="round" stroke-linejoin="round"><path d="M2.670 2.061 C 2.448 2.142,2.250 2.309,2.128 2.516 C 2.036 2.672,2.020 2.745,2.021 3.000 C 2.021 3.212,2.043 3.341,2.095 3.440 C 2.135 3.517,4.155 5.569,6.583 8.000 L 10.998 12.420 11.009 15.363 L 11.020 18.306 11.141 18.503 C 11.543 19.156,12.457 19.156,12.859 18.503 L 12.980 18.306 13.000 16.373 L 13.020 14.439 14.150 15.570 L 15.280 16.700 15.056 16.686 C 14.521 16.653,14.067 17.038,14.012 17.572 C 13.971 17.975,14.148 18.304,14.545 18.563 C 14.799 18.729,15.000 18.926,15.000 19.009 C 15.000 19.108,14.638 19.385,14.301 19.544 C 13.007 20.157,10.993 20.157,9.699 19.544 C 9.365 19.386,9.000 19.108,9.000 19.012 C 9.000 18.928,9.177 18.750,9.427 18.583 C 9.848 18.300,10.029 17.976,9.988 17.579 C 9.915 16.864,9.186 16.473,8.536 16.799 C 7.828 17.154,7.216 17.870,7.062 18.524 C 6.664 20.210,8.403 21.684,11.114 21.958 C 13.595 22.209,15.927 21.400,16.730 20.010 C 17.001 19.540,17.069 18.873,16.897 18.380 C 16.882 18.336,17.668 19.095,18.645 20.066 C 19.621 21.037,20.483 21.865,20.560 21.905 C 20.659 21.957,20.788 21.979,21.000 21.979 C 21.258 21.980,21.327 21.964,21.492 21.867 C 21.968 21.587,22.139 20.967,21.865 20.508 C 21.810 20.416,17.665 16.243,12.653 11.235 C 4.231 2.820,3.525 2.125,3.343 2.065 C 3.107 1.987,2.874 1.986,2.670 2.061 M11.695 2.057 C 11.466 2.129,11.256 2.299,11.128 2.516 L 11.020 2.700 11.020 5.503 L 11.020 8.306 11.141 8.503 C 11.543 9.156,12.457 9.156,12.859 8.503 L 12.980 8.306 12.992 6.517 L 13.003 4.728 14.980 5.854 C 16.068 6.473,16.958 6.989,16.958 7.000 C 16.959 7.011,16.139 7.488,15.136 8.060 C 13.881 8.776,13.270 9.146,13.178 9.248 C 13.050 9.389,12.920 9.718,12.920 9.900 C 12.920 9.947,12.948 10.081,12.983 10.198 C 13.142 10.734,13.779 11.035,14.297 10.819 C 14.495 10.736,19.460 7.901,19.629 7.774 C 20.066 7.447,20.114 6.713,19.724 6.325 C 19.554 6.156,12.500 2.111,12.256 2.044 C 12.057 1.988,11.902 1.992,11.695 2.057 " stroke="none" fill-rule="evenodd" fill="black"></path></svg>