<svg xmlns="http://www.w3.org/2000/svg" width="24" height="24" viewBox="0 0 24 24" fill="none" stroke="currentColor" stroke-width="2" stroke-linecap="round" stroke-linejoin="round"><path d="M11.080 2.045 C 9.507 2.184,7.883 2.751,6.540 3.630 C 5.905 4.045,5.499 4.378,4.919 4.958 C 2.953 6.926,1.919 9.544,2.013 12.320 C 2.084 14.439,2.752 16.328,4.033 18.040 C 4.430 18.570,5.305 19.464,5.800 19.847 C 7.242 20.961,8.787 21.624,10.600 21.907 C 11.247 22.008,12.753 22.008,13.400 21.907 C 15.638 21.557,17.504 20.620,19.062 19.062 C 20.620 17.504,21.557 15.638,21.907 13.400 C 22.008 12.753,22.008 11.247,21.907 10.600 C 21.624 8.786,20.959 7.238,19.847 5.800 C 19.510 5.365,18.639 4.494,18.200 4.154 C 16.133 2.555,13.646 1.818,11.080 2.045 M12.734 4.041 C 14.574 4.216,16.228 4.976,17.554 6.256 C 20.043 8.658,20.702 12.394,19.183 15.499 C 18.749 16.387,18.223 17.105,17.496 17.801 C 16.876 18.394,16.262 18.819,15.471 19.200 C 13.267 20.265,10.733 20.265,8.529 19.200 C 7.477 18.693,6.612 18.015,5.847 17.100 C 3.848 14.711,3.440 11.302,4.816 8.500 C 6.162 5.760,8.867 4.049,11.920 4.005 C 12.129 4.003,12.495 4.019,12.734 4.041 M15.640 7.075 C 15.180 7.256,6.562 11.104,6.430 11.187 C 6.014 11.448,5.880 12.079,6.149 12.514 C 6.365 12.864,6.406 12.879,8.380 13.374 L 10.175 13.825 10.623 15.610 C 10.912 16.763,11.103 17.447,11.161 17.542 C 11.500 18.089,12.360 18.142,12.764 17.640 C 12.862 17.518,16.650 9.072,16.904 8.409 C 16.957 8.271,17.000 8.090,17.000 8.006 C 17.000 7.312,16.283 6.821,15.640 7.075 M13.989 10.050 C 13.978 10.078,13.586 10.962,13.117 12.016 L 12.265 13.933 12.094 13.260 C 11.830 12.227,11.773 12.170,10.740 11.906 L 10.067 11.735 12.004 10.870 C 13.069 10.395,13.955 10.005,13.974 10.003 C 13.993 10.001,14.000 10.023,13.989 10.050 " stroke="none" fill-rule="evenodd" fill="black"></path></svg>