<svg xmlns="http://www.w3.org/2000/svg" width="24" height="24" viewBox="0 0 24 24" fill="none" stroke="currentColor" stroke-width="2" stroke-linecap="round" stroke-linejoin="round"><path d="M5.499 3.043 C 4.380 3.233,3.461 4.048,3.114 5.160 L 3.020 5.460 3.020 12.000 L 3.020 18.540 3.114 18.840 C 3.422 19.827,4.173 20.578,5.160 20.886 L 5.460 20.980 12.000 20.980 L 18.540 20.980 18.840 20.886 C 19.827 20.578,20.578 19.827,20.886 18.840 L 20.980 18.540 20.980 12.000 L 20.980 5.460 20.886 5.160 C 20.581 4.182,19.832 3.428,18.861 3.121 L 18.540 3.020 12.120 3.014 C 8.589 3.011,5.609 3.024,5.499 3.043 M18.310 5.061 C 18.589 5.144,18.856 5.411,18.939 5.690 C 18.992 5.869,19.000 6.651,19.000 12.001 C 19.000 17.059,18.991 18.139,18.945 18.290 C 18.872 18.533,18.707 18.740,18.484 18.872 L 18.300 18.980 12.000 18.980 L 5.700 18.980 5.516 18.872 C 5.303 18.747,5.141 18.550,5.058 18.316 C 4.968 18.060,4.971 5.993,5.061 5.690 C 5.140 5.421,5.412 5.143,5.673 5.063 C 5.963 4.974,18.010 4.972,18.310 5.061 M14.640 9.069 C 14.490 9.121,14.252 9.338,13.231 10.353 L 12.001 11.575 11.271 10.854 C 10.655 10.247,10.509 10.123,10.343 10.067 C 10.094 9.983,9.907 9.982,9.657 10.066 C 9.481 10.124,9.286 10.305,7.847 11.736 C 6.960 12.618,6.189 13.416,6.134 13.508 C 5.862 13.968,6.032 14.587,6.508 14.867 C 6.673 14.964,6.742 14.980,7.000 14.979 C 7.213 14.979,7.341 14.957,7.440 14.905 C 7.517 14.864,8.124 14.289,8.790 13.627 L 9.999 12.422 10.710 13.126 C 11.100 13.514,11.483 13.864,11.560 13.904 C 11.754 14.007,12.246 14.007,12.440 13.905 C 12.517 13.864,13.124 13.289,13.790 12.627 L 14.999 11.422 15.710 12.126 C 16.100 12.514,16.481 12.861,16.555 12.899 C 17.008 13.128,17.601 12.944,17.867 12.492 C 17.964 12.327,17.980 12.257,17.980 12.000 C 17.980 11.747,17.963 11.672,17.873 11.520 C 17.815 11.421,17.266 10.843,16.653 10.236 C 15.680 9.271,15.515 9.124,15.343 9.066 C 15.102 8.985,14.878 8.986,14.640 9.069 " stroke="none" fill-rule="evenodd" fill="black"></path></svg>