<svg xmlns="http://www.w3.org/2000/svg" width="24" height="24" viewBox="0 0 24 24" fill="none" stroke="currentColor" stroke-width="2" stroke-linecap="round" stroke-linejoin="round"><path d="M2.670 2.061 C 2.448 2.142,2.250 2.309,2.128 2.516 C 2.036 2.672,2.020 2.745,2.021 3.000 C 2.021 3.214,2.043 3.340,2.096 3.440 C 2.137 3.517,2.418 3.832,2.722 4.140 L 3.273 4.700 3.147 5.060 L 3.020 5.420 3.020 11.980 L 3.020 18.540 3.114 18.840 C 3.422 19.827,4.173 20.578,5.160 20.886 L 5.460 20.980 12.020 20.980 L 18.580 20.980 18.940 20.853 L 19.300 20.727 19.860 21.278 C 20.168 21.582,20.483 21.863,20.560 21.904 C 20.660 21.957,20.786 21.979,21.000 21.979 C 21.258 21.980,21.327 21.964,21.492 21.867 C 21.968 21.587,22.139 20.967,21.865 20.508 C 21.810 20.416,17.665 16.243,12.653 11.235 C 4.231 2.820,3.525 2.125,3.343 2.065 C 3.107 1.987,2.874 1.986,2.670 2.061 M7.695 3.057 C 7.465 3.129,7.256 3.299,7.128 3.516 C 7.037 3.672,7.020 3.746,7.020 4.000 C 7.020 4.256,7.036 4.328,7.131 4.489 C 7.256 4.702,7.449 4.864,7.670 4.943 C 7.792 4.987,8.771 4.997,12.963 4.998 C 18.717 5.000,18.369 4.983,18.679 5.283 C 19.005 5.600,18.978 5.102,19.000 11.023 L 19.020 16.306 19.141 16.503 C 19.543 17.156,20.457 17.156,20.859 16.503 L 20.980 16.306 20.980 10.883 L 20.980 5.460 20.886 5.160 C 20.581 4.182,19.832 3.428,18.861 3.121 L 18.540 3.020 13.200 3.012 C 8.900 3.006,7.828 3.015,7.695 3.057 M7.624 11.960 C 6.824 12.763,6.138 13.481,6.101 13.555 C 5.872 14.009,6.056 14.601,6.508 14.867 C 6.673 14.964,6.742 14.980,7.000 14.979 C 7.213 14.979,7.341 14.957,7.440 14.905 C 7.517 14.864,8.124 14.289,8.790 13.627 L 9.999 12.422 10.710 13.126 C 11.100 13.514,11.481 13.862,11.556 13.900 C 11.749 13.997,12.103 14.021,12.306 13.950 L 12.472 13.892 15.026 16.446 L 17.580 19.001 11.640 18.990 L 5.700 18.980 5.516 18.872 C 5.415 18.813,5.284 18.700,5.225 18.623 C 4.987 18.311,5.000 18.677,5.000 12.285 L 5.000 6.420 7.040 8.460 L 9.079 10.499 7.624 11.960 M14.649 9.067 C 14.458 9.134,13.869 9.665,13.682 9.937 C 13.373 10.388,13.488 11.009,13.940 11.320 C 14.162 11.472,14.436 11.519,14.741 11.457 L 14.980 11.408 15.700 12.119 C 16.096 12.510,16.481 12.861,16.555 12.899 C 17.008 13.128,17.601 12.944,17.867 12.492 C 17.964 12.327,17.980 12.257,17.980 12.000 C 17.980 11.747,17.963 11.672,17.873 11.520 C 17.815 11.421,17.266 10.843,16.653 10.236 C 15.680 9.271,15.515 9.124,15.343 9.066 C 15.104 8.986,14.877 8.986,14.649 9.067 " stroke="none" fill-rule="evenodd" fill="black"></path></svg>