<svg xmlns="http://www.w3.org/2000/svg" width="24" height="24" viewBox="0 0 24 24" fill="none" stroke="currentColor" stroke-width="2" stroke-linecap="round" stroke-linejoin="round"><path d="M9.358 3.061 C 7.731 3.315,6.417 4.584,6.083 6.227 C 6.002 6.622,6.000 6.743,6.000 11.092 C 6.000 14.696,5.990 15.555,5.948 15.571 C 5.920 15.582,5.747 15.704,5.565 15.841 C 4.803 16.416,4.280 17.260,4.081 18.237 C 4.003 18.619,3.997 18.758,4.008 19.976 L 4.020 21.300 4.131 21.489 C 4.256 21.702,4.449 21.864,4.670 21.943 C 4.893 22.022,19.107 22.022,19.330 21.943 C 19.551 21.864,19.744 21.702,19.869 21.489 L 19.980 21.300 19.992 19.976 C 20.003 18.773,19.997 18.615,19.923 18.252 C 19.721 17.262,19.200 16.417,18.435 15.841 C 18.253 15.704,18.080 15.582,18.052 15.571 C 18.010 15.555,18.000 14.696,18.000 11.092 C 18.000 6.800,17.997 6.618,17.921 6.243 C 17.628 4.806,16.637 3.680,15.245 3.204 C 14.709 3.020,14.378 3.000,11.960 3.004 C 10.291 3.007,9.611 3.022,9.358 3.061 M14.523 5.073 C 15.022 5.203,15.516 5.599,15.772 6.071 C 16.000 6.493,15.999 6.452,15.999 10.910 L 16.000 15.000 12.000 15.000 L 8.000 15.000 8.000 10.898 C 8.000 6.340,7.993 6.467,8.265 6.014 C 8.546 5.543,8.988 5.201,9.477 5.073 C 9.711 5.012,9.992 5.005,12.000 5.005 C 14.008 5.005,14.289 5.012,14.523 5.073 M11.695 6.057 C 11.466 6.129,11.256 6.299,11.128 6.516 C 11.025 6.692,11.019 6.728,11.007 7.350 L 10.993 8.000 10.443 8.000 C 9.648 8.000,9.366 8.111,9.128 8.516 C 9.037 8.672,9.020 8.746,9.020 9.000 C 9.020 9.256,9.036 9.328,9.131 9.489 C 9.256 9.702,9.449 9.864,9.670 9.943 C 9.768 9.978,10.022 9.997,10.408 9.998 L 10.995 10.000 11.008 11.153 L 11.020 12.307 11.141 12.503 C 11.543 13.156,12.457 13.156,12.859 12.503 L 12.980 12.307 12.992 11.153 L 13.005 10.000 13.592 9.998 C 13.978 9.997,14.232 9.978,14.330 9.943 C 14.551 9.864,14.744 9.702,14.869 9.489 C 14.964 9.328,14.980 9.256,14.980 9.000 C 14.980 8.746,14.963 8.672,14.872 8.516 C 14.634 8.111,14.352 8.000,13.557 8.000 L 13.007 8.000 12.993 7.350 C 12.981 6.728,12.975 6.692,12.872 6.516 C 12.628 6.101,12.150 5.915,11.695 6.057 M16.462 17.061 C 16.853 17.162,17.121 17.315,17.401 17.597 C 17.878 18.079,17.998 18.442,17.999 19.410 L 18.000 20.000 12.000 20.000 L 6.000 20.000 6.002 19.370 C 6.004 18.910,6.023 18.669,6.073 18.477 C 6.250 17.801,6.812 17.252,7.520 17.064 C 7.859 16.974,16.112 16.972,16.462 17.061 " stroke="none" fill-rule="evenodd" fill="black"></path></svg>