<svg xmlns="http://www.w3.org/2000/svg" width="24" height="24" viewBox="0 0 24 24" fill="none" stroke="currentColor" stroke-width="2" stroke-linecap="round" stroke-linejoin="round"><path d="M7.695 2.057 C 7.466 2.129,7.256 2.299,7.128 2.516 L 7.020 2.700 7.009 4.850 L 6.997 7.000 4.945 7.000 C 2.718 7.000,2.666 7.004,2.382 7.221 C 2.302 7.282,2.187 7.415,2.128 7.516 C 2.037 7.672,2.020 7.746,2.020 8.000 C 2.020 8.256,2.036 8.328,2.131 8.489 C 2.256 8.702,2.449 8.864,2.670 8.943 C 2.788 8.985,3.269 8.997,4.910 8.998 L 7.000 9.000 7.000 12.000 L 7.000 15.000 4.946 15.000 C 2.717 15.000,2.666 15.004,2.382 15.221 C 2.302 15.282,2.187 15.415,2.128 15.516 C 2.037 15.672,2.020 15.746,2.020 16.000 C 2.020 16.256,2.036 16.328,2.131 16.489 C 2.256 16.702,2.449 16.864,2.670 16.943 C 2.788 16.985,3.269 16.997,4.909 16.998 L 6.997 17.000 7.009 19.153 L 7.020 21.306 7.141 21.503 C 7.209 21.613,7.346 21.756,7.452 21.828 C 7.923 22.144,8.554 21.999,8.859 21.503 L 8.980 21.306 8.991 19.153 L 9.003 17.000 12.000 17.000 L 14.997 17.000 15.009 19.153 L 15.020 21.306 15.141 21.503 C 15.543 22.156,16.457 22.156,16.859 21.503 L 16.980 21.306 16.991 19.153 L 17.003 17.000 19.091 16.998 C 20.731 16.997,21.212 16.985,21.330 16.943 C 21.551 16.864,21.744 16.702,21.869 16.489 C 21.964 16.328,21.980 16.256,21.980 16.000 C 21.980 15.746,21.963 15.672,21.872 15.516 C 21.813 15.415,21.698 15.282,21.618 15.221 C 21.334 15.004,21.283 15.000,19.054 15.000 L 17.000 15.000 17.000 12.000 L 17.000 9.000 19.090 8.998 C 20.731 8.997,21.212 8.985,21.330 8.943 C 21.551 8.864,21.744 8.702,21.869 8.489 C 21.964 8.328,21.980 8.256,21.980 8.000 C 21.980 7.746,21.963 7.672,21.872 7.516 C 21.813 7.415,21.698 7.282,21.618 7.221 C 21.334 7.004,21.282 7.000,19.055 7.000 L 17.003 7.000 16.991 4.850 L 16.980 2.700 16.871 2.514 C 16.479 1.848,15.521 1.848,15.129 2.514 L 15.020 2.700 15.009 4.850 L 14.997 7.000 12.000 7.000 L 9.003 7.000 8.991 4.850 L 8.980 2.700 8.872 2.516 C 8.628 2.101,8.150 1.915,7.695 2.057 M15.000 12.000 L 15.000 15.000 12.000 15.000 L 9.000 15.000 9.000 12.000 L 9.000 9.000 12.000 9.000 L 15.000 9.000 15.000 12.000 " stroke="none" fill-rule="evenodd" fill="black"></path></svg>