<svg xmlns="http://www.w3.org/2000/svg" width="24" height="24" viewBox="0 0 24 24" fill="none" stroke="currentColor" stroke-width="2" stroke-linecap="round" stroke-linejoin="round"><path d="M6.695 2.057 C 6.466 2.129,6.256 2.299,6.128 2.516 C 5.978 2.772,5.974 3.175,6.120 3.452 C 6.192 3.589,6.670 4.076,7.840 5.207 C 8.731 6.068,9.525 6.864,9.604 6.976 C 9.865 7.348,9.980 7.794,9.932 8.253 L 9.908 8.486 7.724 6.308 C 5.752 4.343,5.521 4.124,5.343 4.065 C 4.862 3.906,4.382 4.084,4.128 4.516 C 4.036 4.672,4.020 4.745,4.021 5.000 C 4.021 5.212,4.043 5.341,4.095 5.440 C 4.135 5.517,5.141 6.555,6.330 7.746 L 8.492 9.913 8.271 9.940 C 7.827 9.996,7.231 9.823,6.878 9.535 C 6.801 9.472,6.129 8.790,5.385 8.020 C 3.595 6.166,3.562 6.134,3.288 6.055 C 2.896 5.941,2.575 6.025,2.283 6.317 C 1.989 6.611,1.919 7.132,2.127 7.480 C 2.268 7.715,5.409 10.935,5.736 11.179 C 6.864 12.022,8.308 12.178,9.645 11.602 L 10.020 11.440 12.642 14.062 L 15.264 16.683 15.144 17.032 C 15.031 17.357,15.024 17.418,15.025 17.960 C 15.025 18.479,15.037 18.574,15.132 18.860 C 15.324 19.440,15.462 19.624,16.419 20.581 C 17.376 21.538,17.560 21.676,18.140 21.868 C 18.427 21.964,18.519 21.974,19.040 21.974 C 19.561 21.974,19.653 21.964,19.940 21.868 C 20.406 21.714,20.735 21.505,21.120 21.120 C 21.505 20.735,21.714 20.406,21.868 19.940 C 21.964 19.653,21.974 19.561,21.974 19.040 C 21.974 18.519,21.964 18.427,21.868 18.140 C 21.678 17.566,21.536 17.375,20.601 16.435 C 19.939 15.770,19.675 15.533,19.460 15.408 C 18.715 14.975,17.786 14.887,16.970 15.171 L 16.689 15.269 14.065 12.644 L 11.440 10.020 11.602 9.645 C 11.848 9.075,11.932 8.675,11.936 8.060 C 11.941 7.198,11.696 6.434,11.195 5.755 C 11.025 5.524,9.860 4.366,8.056 2.635 C 7.399 2.004,7.172 1.908,6.695 2.057 M18.385 17.113 C 18.470 17.157,18.847 17.505,19.222 17.886 C 19.934 18.610,20.000 18.708,20.000 19.040 C 20.000 19.542,19.542 20.000,19.040 20.000 C 18.691 20.000,18.573 19.918,17.813 19.148 C 17.181 18.508,17.087 18.397,17.041 18.229 C 16.824 17.434,17.659 16.740,18.385 17.113 " stroke="none" fill-rule="evenodd" fill="black"></path></svg>