<svg xmlns="http://www.w3.org/2000/svg" width="24" height="24" viewBox="0 0 24 24" fill="none" stroke="currentColor" stroke-width="2" stroke-linecap="round" stroke-linejoin="round"><path d="M8.695 3.057 C 8.466 3.129,8.256 3.299,8.128 3.516 C 8.020 3.699,8.020 3.703,8.020 4.503 L 8.020 5.306 8.141 5.503 C 8.543 6.156,9.457 6.156,9.859 5.503 L 9.980 5.306 9.980 4.503 C 9.980 3.703,9.980 3.699,9.872 3.516 C 9.628 3.101,9.150 2.915,8.695 3.057 M11.695 3.057 C 11.466 3.129,11.256 3.299,11.128 3.516 C 11.020 3.699,11.020 3.703,11.020 4.503 L 11.020 5.306 11.141 5.503 C 11.543 6.156,12.457 6.156,12.859 5.503 L 12.980 5.306 12.980 4.503 C 12.980 3.703,12.980 3.699,12.872 3.516 C 12.628 3.101,12.150 2.915,11.695 3.057 M14.695 3.057 C 14.466 3.129,14.256 3.299,14.128 3.516 C 14.020 3.699,14.020 3.703,14.020 4.503 L 14.020 5.306 14.141 5.503 C 14.543 6.156,15.457 6.156,15.859 5.503 L 15.980 5.306 15.980 4.503 C 15.980 3.703,15.980 3.699,15.872 3.516 C 15.628 3.101,15.150 2.915,14.695 3.057 M4.695 7.057 C 4.466 7.129,4.256 7.299,4.128 7.516 C 4.026 7.691,4.020 7.726,4.023 8.200 C 4.039 10.535,5.387 12.819,7.470 14.039 C 7.630 14.133,7.760 14.216,7.760 14.224 C 7.760 14.232,7.146 15.468,6.395 16.971 C 4.899 19.965,4.923 19.906,5.061 20.322 C 5.189 20.707,5.594 21.000,6.000 21.000 C 6.243 21.000,6.521 20.881,6.697 20.702 C 6.812 20.586,6.973 20.308,7.239 19.768 L 7.618 19.000 10.883 19.000 L 14.147 19.000 14.312 19.330 C 14.682 20.069,15.355 20.635,16.160 20.886 C 16.594 21.021,17.406 21.021,17.840 20.886 C 18.826 20.579,19.579 19.826,19.886 18.840 C 19.964 18.588,19.979 18.453,19.979 18.000 C 19.979 17.547,19.964 17.412,19.886 17.160 C 19.762 16.761,19.563 16.391,19.321 16.108 C 18.702 15.385,18.011 15.049,17.080 15.016 L 16.621 14.999 16.432 14.630 C 16.329 14.426,16.243 14.248,16.242 14.233 C 16.241 14.218,16.343 14.148,16.470 14.076 C 18.549 12.905,19.955 10.573,19.975 8.260 C 19.980 7.719,19.976 7.694,19.872 7.516 C 19.740 7.293,19.533 7.128,19.290 7.055 C 19.027 6.976,4.947 6.978,4.695 7.057 M17.880 9.076 C 17.880 9.215,17.648 9.866,17.478 10.204 C 17.203 10.751,16.966 11.077,16.522 11.522 C 15.786 12.258,14.996 12.685,13.960 12.907 C 13.663 12.971,13.415 12.980,12.000 12.980 C 10.585 12.980,10.337 12.971,10.040 12.907 C 8.492 12.576,7.231 11.614,6.541 10.240 C 6.362 9.883,6.185 9.404,6.139 9.150 L 6.111 9.000 11.996 9.000 C 17.761 9.000,17.880 9.002,17.880 9.076 M10.300 14.959 C 10.870 15.023,13.336 15.010,13.860 14.940 C 14.102 14.907,14.304 14.881,14.310 14.880 C 14.315 14.880,14.437 15.115,14.581 15.402 L 14.843 15.924 14.659 16.132 C 14.558 16.246,14.402 16.488,14.311 16.670 L 14.147 17.000 11.393 17.000 C 9.879 17.000,8.640 16.991,8.640 16.980 C 8.640 16.969,8.875 16.490,9.162 15.916 L 9.684 14.872 9.812 14.895 C 9.882 14.908,10.102 14.937,10.300 14.959 M17.310 17.061 C 17.688 17.173,18.000 17.598,18.000 18.001 C 18.000 18.331,17.784 18.696,17.484 18.872 C 17.328 18.963,17.254 18.980,17.000 18.980 C 16.746 18.980,16.672 18.963,16.516 18.872 C 15.932 18.528,15.831 17.775,16.307 17.299 C 16.582 17.024,16.918 16.944,17.310 17.061 " stroke="none" fill-rule="evenodd" fill="black"></path></svg>