<svg xmlns="http://www.w3.org/2000/svg" width="24" height="24" viewBox="0 0 24 24" fill="none" stroke="currentColor" stroke-width="2" stroke-linecap="round" stroke-linejoin="round"><path d="M11.695 3.057 C 11.466 3.129,11.256 3.299,11.128 3.516 L 11.020 3.700 11.000 5.391 L 10.980 7.083 10.740 6.909 C 10.037 6.401,9.317 6.128,8.431 6.035 C 7.904 5.980,7.655 6.021,7.405 6.205 C 6.837 6.624,6.886 7.502,7.498 7.861 C 7.643 7.946,7.759 7.974,8.079 8.002 C 8.299 8.021,8.555 8.056,8.649 8.080 C 9.754 8.363,10.697 9.454,10.921 10.711 C 10.950 10.870,10.962 11.011,10.950 11.024 C 10.937 11.037,10.830 10.977,10.713 10.891 C 10.052 10.407,9.306 10.127,8.431 10.035 C 7.904 9.980,7.655 10.021,7.405 10.205 C 6.837 10.624,6.886 11.502,7.498 11.861 C 7.643 11.946,7.759 11.974,8.079 12.002 C 8.299 12.021,8.555 12.056,8.649 12.080 C 9.754 12.363,10.697 13.454,10.921 14.711 C 10.950 14.870,10.962 15.011,10.950 15.024 C 10.937 15.037,10.830 14.977,10.713 14.891 C 10.052 14.407,9.306 14.127,8.431 14.035 C 7.904 13.980,7.655 14.021,7.405 14.205 C 6.837 14.624,6.886 15.502,7.498 15.861 C 7.643 15.946,7.759 15.974,8.079 16.002 C 8.523 16.040,8.724 16.084,9.020 16.207 C 9.484 16.398,10.029 16.859,10.358 17.337 C 10.751 17.909,10.996 18.719,11.000 19.460 C 11.002 20.042,11.436 20.488,12.000 20.488 C 12.276 20.488,12.495 20.400,12.688 20.212 C 12.902 20.003,12.986 19.769,13.015 19.298 C 13.071 18.379,13.430 17.602,14.085 16.978 C 14.720 16.373,15.420 16.069,16.298 16.015 C 16.769 15.986,17.003 15.902,17.212 15.688 C 17.400 15.495,17.488 15.276,17.488 15.000 C 17.488 14.615,17.293 14.297,16.940 14.106 C 16.801 14.032,16.721 14.021,16.340 14.025 C 15.183 14.038,14.200 14.389,13.092 15.184 C 13.005 15.246,13.004 15.246,13.025 15.094 C 13.138 14.246,13.491 13.544,14.085 12.978 C 14.720 12.373,15.420 12.069,16.298 12.015 C 16.769 11.986,17.003 11.902,17.212 11.688 C 17.400 11.495,17.488 11.276,17.488 11.000 C 17.488 10.615,17.293 10.297,16.940 10.106 C 16.801 10.032,16.721 10.021,16.340 10.025 C 15.183 10.038,14.200 10.389,13.092 11.184 C 13.005 11.246,13.004 11.246,13.025 11.094 C 13.103 10.510,13.302 9.976,13.607 9.528 C 13.795 9.253,14.185 8.855,14.460 8.660 C 15.026 8.258,15.594 8.058,16.298 8.015 C 16.769 7.986,17.003 7.902,17.212 7.688 C 17.400 7.495,17.488 7.276,17.488 7.000 C 17.488 6.495,17.127 6.083,16.624 6.014 C 16.377 5.980,15.569 6.070,15.139 6.179 C 14.483 6.346,13.772 6.683,13.240 7.080 L 13.020 7.244 13.000 5.472 L 12.980 3.700 12.872 3.516 C 12.628 3.101,12.150 2.915,11.695 3.057 " stroke="none" fill-rule="evenodd" fill="black"></path></svg>