<svg xmlns="http://www.w3.org/2000/svg" width="24" height="24" viewBox="0 0 24 24" fill="none" stroke="currentColor" stroke-width="2" stroke-linecap="round" stroke-linejoin="round"><path d="M2.695 5.057 C 2.466 5.129,2.256 5.299,2.128 5.516 C 2.036 5.672,2.020 5.746,2.020 6.003 C 2.020 6.271,2.034 6.329,2.141 6.503 C 2.288 6.742,2.578 6.946,2.821 6.982 L 3.000 7.009 3.000 11.998 L 3.000 16.987 2.786 17.035 C 2.515 17.096,2.270 17.275,2.129 17.514 C 2.036 17.672,2.020 17.745,2.020 18.000 C 2.020 18.256,2.036 18.328,2.131 18.489 C 2.256 18.702,2.449 18.864,2.670 18.943 C 2.885 19.020,5.115 19.020,5.330 18.943 C 5.551 18.864,5.744 18.702,5.869 18.489 C 5.964 18.328,5.980 18.256,5.980 18.000 C 5.980 17.745,5.964 17.672,5.871 17.514 C 5.730 17.275,5.485 17.096,5.214 17.035 L 5.000 16.987 5.000 14.994 L 5.000 13.000 8.000 13.000 L 11.000 13.000 11.000 14.994 L 11.000 16.987 10.786 17.035 C 10.515 17.096,10.270 17.275,10.129 17.514 C 10.036 17.672,10.020 17.745,10.020 18.000 C 10.020 18.256,10.036 18.328,10.131 18.489 C 10.256 18.702,10.449 18.864,10.670 18.943 C 10.885 19.020,13.115 19.020,13.330 18.943 C 13.551 18.864,13.744 18.702,13.869 18.489 C 13.964 18.328,13.980 18.256,13.980 18.000 C 13.980 17.745,13.964 17.672,13.871 17.514 C 13.730 17.275,13.485 17.096,13.214 17.035 L 13.000 16.987 13.000 11.998 L 13.000 7.009 13.179 6.982 C 13.422 6.946,13.712 6.742,13.859 6.503 C 13.966 6.329,13.980 6.271,13.980 6.003 C 13.980 5.746,13.964 5.672,13.872 5.516 C 13.740 5.293,13.533 5.128,13.290 5.055 C 13.030 4.977,10.970 4.977,10.710 5.055 C 10.467 5.128,10.260 5.293,10.128 5.516 C 10.036 5.672,10.020 5.746,10.020 6.003 C 10.020 6.271,10.034 6.329,10.141 6.503 C 10.288 6.742,10.578 6.946,10.821 6.982 L 11.000 7.009 11.000 9.005 L 11.000 11.000 8.000 11.000 L 5.000 11.000 5.000 9.005 L 5.000 7.009 5.179 6.982 C 5.422 6.946,5.712 6.742,5.859 6.503 C 5.966 6.329,5.980 6.271,5.980 6.003 C 5.980 5.746,5.964 5.672,5.872 5.516 C 5.740 5.293,5.533 5.128,5.290 5.055 C 5.039 4.979,2.937 4.981,2.695 5.057 M18.723 9.047 C 18.647 9.068,18.512 9.137,18.423 9.200 C 18.182 9.368,16.181 11.397,16.095 11.560 C 16.043 11.659,16.021 11.787,16.021 12.000 C 16.020 12.258,16.036 12.327,16.133 12.492 C 16.340 12.844,16.705 13.029,17.112 12.987 C 17.360 12.962,17.595 12.834,17.820 12.601 L 17.980 12.436 18.000 15.371 L 18.020 18.306 18.141 18.503 C 18.543 19.156,19.457 19.156,19.859 18.503 L 19.980 18.306 19.980 14.003 L 19.980 9.700 19.872 9.516 C 19.635 9.113,19.163 8.920,18.723 9.047 " stroke="none" fill-rule="evenodd" fill="black"></path></svg>