<svg xmlns="http://www.w3.org/2000/svg" width="24" height="24" viewBox="0 0 24 24" fill="none" stroke="currentColor" stroke-width="2" stroke-linecap="round" stroke-linejoin="round"><path d="M2.695 5.057 C 2.466 5.129,2.256 5.299,2.128 5.516 C 2.036 5.672,2.020 5.746,2.020 6.003 C 2.020 6.271,2.034 6.329,2.141 6.503 C 2.288 6.742,2.578 6.946,2.821 6.982 L 3.000 7.009 3.000 11.998 L 3.000 16.987 2.786 17.035 C 2.515 17.096,2.270 17.275,2.129 17.514 C 2.036 17.672,2.020 17.745,2.020 18.000 C 2.020 18.256,2.036 18.328,2.131 18.489 C 2.256 18.702,2.449 18.864,2.670 18.943 C 2.885 19.020,5.115 19.020,5.330 18.943 C 5.551 18.864,5.744 18.702,5.869 18.489 C 5.964 18.328,5.980 18.256,5.980 18.000 C 5.980 17.745,5.964 17.672,5.871 17.514 C 5.730 17.275,5.485 17.096,5.214 17.035 L 5.000 16.987 5.000 14.994 L 5.000 13.000 8.000 13.000 L 11.000 13.000 11.000 14.994 L 11.000 16.987 10.786 17.035 C 10.515 17.096,10.270 17.275,10.129 17.514 C 10.036 17.672,10.020 17.745,10.020 18.000 C 10.020 18.256,10.036 18.328,10.131 18.489 C 10.256 18.702,10.449 18.864,10.670 18.943 C 10.885 19.020,13.115 19.020,13.330 18.943 C 13.551 18.864,13.744 18.702,13.869 18.489 C 13.964 18.328,13.980 18.256,13.980 18.000 C 13.980 17.745,13.964 17.672,13.871 17.514 C 13.730 17.275,13.485 17.096,13.214 17.035 L 13.000 16.987 13.000 11.998 L 13.000 7.009 13.179 6.982 C 13.422 6.946,13.712 6.742,13.859 6.503 C 13.966 6.329,13.980 6.271,13.980 6.003 C 13.980 5.746,13.964 5.672,13.872 5.516 C 13.740 5.293,13.533 5.128,13.290 5.055 C 13.030 4.977,10.970 4.977,10.710 5.055 C 10.467 5.128,10.260 5.293,10.128 5.516 C 10.036 5.672,10.020 5.746,10.020 6.003 C 10.020 6.271,10.034 6.329,10.141 6.503 C 10.288 6.742,10.578 6.946,10.821 6.982 L 11.000 7.009 11.000 9.005 L 11.000 11.000 8.000 11.000 L 5.000 11.000 5.000 9.005 L 5.000 7.009 5.179 6.982 C 5.422 6.946,5.712 6.742,5.859 6.503 C 5.966 6.329,5.980 6.271,5.980 6.003 C 5.980 5.746,5.964 5.672,5.872 5.516 C 5.740 5.293,5.533 5.128,5.290 5.055 C 5.039 4.979,2.937 4.981,2.695 5.057 M18.499 9.040 C 17.363 9.246,16.454 10.055,16.115 11.160 C 16.045 11.390,16.023 11.559,16.022 11.883 C 16.020 12.285,16.026 12.315,16.141 12.503 C 16.537 13.147,17.457 13.156,17.849 12.520 C 17.927 12.392,17.971 12.249,17.999 12.031 C 18.049 11.636,18.114 11.485,18.321 11.283 C 18.490 11.120,18.777 11.000,19.000 11.000 C 19.412 11.000,19.829 11.313,19.944 11.709 C 20.022 11.978,20.003 12.159,19.862 12.467 C 19.689 12.847,19.520 13.079,17.782 15.340 C 16.556 16.934,16.104 17.551,16.056 17.695 C 15.886 18.200,16.163 18.762,16.670 18.943 C 16.889 19.021,21.111 19.021,21.330 18.943 C 21.551 18.864,21.744 18.702,21.869 18.489 C 21.964 18.327,21.980 18.257,21.979 18.000 C 21.978 17.661,21.924 17.527,21.694 17.296 C 21.428 17.031,21.383 17.022,20.153 17.000 L 19.046 16.980 20.046 15.680 C 21.395 13.927,21.594 13.618,21.845 12.880 C 21.964 12.531,21.975 12.458,21.977 11.980 C 21.979 11.544,21.964 11.412,21.886 11.160 C 21.581 10.179,20.811 9.407,19.861 9.129 C 19.500 9.023,18.832 8.980,18.499 9.040 " stroke="none" fill-rule="evenodd" fill="black"></path></svg>