<svg xmlns="http://www.w3.org/2000/svg" width="24" height="24" viewBox="0 0 24 24" fill="none" stroke="currentColor" stroke-width="2" stroke-linecap="round" stroke-linejoin="round"><path d="M2.695 5.057 C 2.466 5.129,2.256 5.299,2.128 5.516 C 2.036 5.672,2.020 5.746,2.020 6.003 C 2.020 6.271,2.034 6.329,2.141 6.503 C 2.288 6.742,2.578 6.946,2.821 6.982 L 3.000 7.009 3.000 11.998 L 3.000 16.987 2.786 17.035 C 2.515 17.096,2.270 17.275,2.129 17.514 C 2.036 17.672,2.020 17.745,2.020 18.000 C 2.020 18.256,2.036 18.328,2.131 18.489 C 2.256 18.702,2.449 18.864,2.670 18.943 C 2.885 19.020,5.115 19.020,5.330 18.943 C 5.551 18.864,5.744 18.702,5.869 18.489 C 5.964 18.328,5.980 18.256,5.980 18.000 C 5.980 17.745,5.964 17.672,5.871 17.514 C 5.730 17.275,5.485 17.096,5.214 17.035 L 5.000 16.987 5.000 14.994 L 5.000 13.000 8.000 13.000 L 11.000 13.000 11.000 14.994 L 11.000 16.987 10.786 17.035 C 10.515 17.096,10.270 17.275,10.129 17.514 C 10.036 17.672,10.020 17.745,10.020 18.000 C 10.020 18.256,10.036 18.328,10.131 18.489 C 10.256 18.702,10.449 18.864,10.670 18.943 C 10.885 19.020,13.115 19.020,13.330 18.943 C 13.551 18.864,13.744 18.702,13.869 18.489 C 13.964 18.328,13.980 18.256,13.980 18.000 C 13.980 17.745,13.964 17.672,13.871 17.514 C 13.730 17.275,13.485 17.096,13.214 17.035 L 13.000 16.987 13.000 11.998 L 13.000 7.009 13.179 6.982 C 13.422 6.946,13.712 6.742,13.859 6.503 C 13.966 6.329,13.980 6.271,13.980 6.003 C 13.980 5.746,13.964 5.672,13.872 5.516 C 13.740 5.293,13.533 5.128,13.290 5.055 C 13.030 4.977,10.970 4.977,10.710 5.055 C 10.467 5.128,10.260 5.293,10.128 5.516 C 10.036 5.672,10.020 5.746,10.020 6.003 C 10.020 6.271,10.034 6.329,10.141 6.503 C 10.288 6.742,10.578 6.946,10.821 6.982 L 11.000 7.009 11.000 9.005 L 11.000 11.000 8.000 11.000 L 5.000 11.000 5.000 9.005 L 5.000 7.009 5.179 6.982 C 5.422 6.946,5.712 6.742,5.859 6.503 C 5.966 6.329,5.980 6.271,5.980 6.003 C 5.980 5.746,5.964 5.672,5.872 5.516 C 5.740 5.293,5.533 5.128,5.290 5.055 C 5.039 4.979,2.937 4.981,2.695 5.057 M18.499 9.040 C 17.373 9.244,16.454 10.055,16.123 11.137 C 16.018 11.481,15.974 12.040,16.035 12.264 C 16.099 12.498,16.286 12.737,16.508 12.867 C 16.673 12.964,16.743 12.980,17.003 12.980 C 17.271 12.980,17.329 12.966,17.503 12.859 C 17.751 12.706,17.948 12.421,17.979 12.169 C 18.027 11.781,18.086 11.567,18.183 11.436 C 18.698 10.732,19.776 10.944,19.965 11.786 C 20.058 12.203,19.865 12.648,19.498 12.863 C 19.376 12.935,19.233 12.974,19.012 12.997 C 18.528 13.045,18.254 13.224,18.083 13.600 C 17.926 13.948,18.005 14.410,18.272 14.695 C 18.425 14.858,18.744 14.999,18.963 15.000 C 19.521 15.001,20.000 15.464,20.000 16.001 C 20.000 16.331,19.784 16.696,19.484 16.872 C 19.328 16.963,19.254 16.980,19.000 16.980 C 18.746 16.980,18.672 16.963,18.516 16.872 C 18.323 16.759,18.150 16.563,18.076 16.373 C 18.051 16.311,18.016 16.128,17.997 15.966 C 17.956 15.614,17.833 15.381,17.595 15.205 C 17.117 14.854,16.432 14.998,16.129 15.514 C 16.029 15.686,16.020 15.733,16.022 16.120 C 16.023 16.440,16.045 16.611,16.115 16.840 C 16.416 17.821,17.173 18.579,18.160 18.886 C 18.594 19.021,19.406 19.021,19.840 18.886 C 20.826 18.579,21.579 17.826,21.886 16.840 C 22.021 16.406,22.021 15.593,21.886 15.161 C 21.766 14.779,21.609 14.470,21.402 14.208 L 21.238 14.000 21.402 13.792 C 21.609 13.530,21.766 13.221,21.886 12.839 C 22.021 12.407,22.021 11.594,21.886 11.160 C 21.581 10.179,20.810 9.407,19.861 9.129 C 19.500 9.023,18.832 8.980,18.499 9.040 " stroke="none" fill-rule="evenodd" fill="black"></path></svg>