<svg xmlns="http://www.w3.org/2000/svg" width="24" height="24" viewBox="0 0 24 24" fill="none" stroke="currentColor" stroke-width="2" stroke-linecap="round" stroke-linejoin="round"><path d="M2.695 5.057 C 2.466 5.129,2.256 5.299,2.128 5.516 C 2.036 5.672,2.020 5.746,2.020 6.003 C 2.020 6.271,2.034 6.329,2.141 6.503 C 2.288 6.742,2.578 6.946,2.821 6.982 L 3.000 7.009 3.000 11.998 L 3.000 16.987 2.786 17.035 C 2.515 17.096,2.270 17.275,2.129 17.514 C 2.036 17.672,2.020 17.745,2.020 18.000 C 2.020 18.256,2.036 18.328,2.131 18.489 C 2.256 18.702,2.449 18.864,2.670 18.943 C 2.885 19.020,5.115 19.020,5.330 18.943 C 5.551 18.864,5.744 18.702,5.869 18.489 C 5.964 18.328,5.980 18.256,5.980 18.000 C 5.980 17.745,5.964 17.672,5.871 17.514 C 5.730 17.275,5.485 17.096,5.214 17.035 L 5.000 16.987 5.000 14.994 L 5.000 13.000 8.000 13.000 L 11.000 13.000 11.000 14.994 L 11.000 16.987 10.786 17.035 C 10.515 17.096,10.270 17.275,10.129 17.514 C 10.036 17.672,10.020 17.745,10.020 18.000 C 10.020 18.256,10.036 18.328,10.131 18.489 C 10.256 18.702,10.449 18.864,10.670 18.943 C 10.885 19.020,13.115 19.020,13.330 18.943 C 13.551 18.864,13.744 18.702,13.869 18.489 C 13.964 18.328,13.980 18.256,13.980 18.000 C 13.980 17.745,13.964 17.672,13.871 17.514 C 13.730 17.275,13.485 17.096,13.214 17.035 L 13.000 16.987 13.000 11.998 L 13.000 7.009 13.179 6.982 C 13.422 6.946,13.712 6.742,13.859 6.503 C 13.966 6.329,13.980 6.271,13.980 6.003 C 13.980 5.746,13.964 5.672,13.872 5.516 C 13.740 5.293,13.533 5.128,13.290 5.055 C 13.030 4.977,10.970 4.977,10.710 5.055 C 10.467 5.128,10.260 5.293,10.128 5.516 C 10.036 5.672,10.020 5.746,10.020 6.003 C 10.020 6.271,10.034 6.329,10.141 6.503 C 10.288 6.742,10.578 6.946,10.821 6.982 L 11.000 7.009 11.000 9.005 L 11.000 11.000 8.000 11.000 L 5.000 11.000 5.000 9.005 L 5.000 7.009 5.179 6.982 C 5.422 6.946,5.712 6.742,5.859 6.503 C 5.966 6.329,5.980 6.271,5.980 6.003 C 5.980 5.746,5.964 5.672,5.872 5.516 C 5.740 5.293,5.533 5.128,5.290 5.055 C 5.039 4.979,2.937 4.981,2.695 5.057 M18.499 9.040 C 17.363 9.246,16.461 10.048,16.114 11.160 L 16.020 11.460 16.020 14.000 L 16.020 16.540 16.114 16.840 C 16.422 17.827,17.174 18.579,18.160 18.886 C 18.594 19.021,19.406 19.021,19.840 18.886 C 20.826 18.579,21.579 17.826,21.886 16.840 C 22.021 16.406,22.021 15.594,21.886 15.160 C 21.581 14.181,20.821 13.417,19.861 13.125 C 19.594 13.044,19.452 13.027,19.020 13.025 C 18.713 13.024,18.426 13.044,18.320 13.074 C 18.221 13.102,18.108 13.134,18.070 13.145 C 18.005 13.164,18.000 13.116,18.000 12.530 C 18.000 11.743,18.045 11.561,18.303 11.303 C 18.486 11.120,18.763 11.000,19.000 11.000 C 19.223 11.000,19.510 11.120,19.679 11.283 C 19.886 11.485,19.951 11.636,20.001 12.031 C 20.049 12.410,20.184 12.647,20.452 12.828 C 20.923 13.144,21.554 12.998,21.859 12.503 C 21.974 12.315,21.980 12.285,21.978 11.883 C 21.977 11.559,21.955 11.390,21.885 11.160 C 21.586 10.184,20.811 9.407,19.861 9.129 C 19.500 9.023,18.832 8.980,18.499 9.040 M19.334 15.064 C 19.698 15.188,20.000 15.613,20.000 16.001 C 20.000 16.331,19.784 16.696,19.484 16.872 C 19.328 16.963,19.254 16.980,19.000 16.980 C 18.746 16.980,18.672 16.963,18.516 16.872 C 17.935 16.530,17.833 15.774,18.304 15.303 C 18.584 15.022,18.957 14.936,19.334 15.064 " stroke="none" fill-rule="evenodd" fill="black"></path></svg>