<svg xmlns="http://www.w3.org/2000/svg" width="24" height="24" viewBox="0 0 24 24" fill="none" stroke="currentColor" stroke-width="2" stroke-linecap="round" stroke-linejoin="round"><path d="M2.670 2.061 C 2.448 2.142,2.250 2.309,2.128 2.516 C 2.036 2.672,2.020 2.745,2.021 3.000 C 2.021 3.212,2.043 3.341,2.095 3.440 C 2.135 3.517,3.772 5.186,5.733 7.150 L 9.299 10.719 6.194 13.830 C 2.822 17.207,2.799 17.233,2.584 17.882 C 2.198 19.050,2.479 20.250,3.336 21.095 C 3.969 21.718,4.614 21.980,5.520 21.980 C 6.223 21.980,6.706 21.840,7.240 21.483 C 7.413 21.367,8.536 20.275,10.601 18.215 L 13.701 15.121 17.021 18.443 C 18.904 20.328,20.418 21.812,20.520 21.873 C 20.673 21.964,20.746 21.980,21.000 21.980 C 21.257 21.980,21.327 21.964,21.492 21.867 C 21.968 21.587,22.139 20.967,21.865 20.508 C 21.810 20.416,17.665 16.243,12.653 11.235 C 4.231 2.820,3.525 2.125,3.343 2.065 C 3.107 1.987,2.874 1.986,2.670 2.061 M12.060 2.445 C 11.545 2.519,11.414 2.618,10.087 3.936 C 9.420 4.598,8.844 5.194,8.807 5.260 C 8.716 5.425,8.716 5.974,8.807 6.140 C 8.988 6.468,9.349 6.691,9.701 6.691 C 10.113 6.691,10.136 6.674,11.321 5.496 L 12.421 4.401 16.220 8.200 L 20.019 11.999 18.913 13.110 C 17.690 14.338,17.689 14.338,17.731 14.804 C 17.755 15.063,17.821 15.207,18.007 15.396 C 18.290 15.685,18.759 15.775,19.125 15.609 C 19.382 15.492,21.630 13.221,21.776 12.931 C 22.100 12.284,22.061 11.448,21.682 10.905 C 21.618 10.814,19.760 8.938,17.553 6.735 C 13.862 3.051,13.519 2.720,13.280 2.605 C 13.132 2.535,12.899 2.464,12.740 2.441 C 12.423 2.396,12.392 2.396,12.060 2.445 M9.210 16.764 C 7.126 18.844,6.089 19.852,5.980 19.903 C 5.733 20.019,5.276 20.008,5.026 19.881 C 4.653 19.691,4.430 19.323,4.430 18.900 C 4.430 18.426,4.316 18.558,7.649 15.200 L 10.700 12.128 11.490 12.914 L 12.281 13.700 9.210 16.764 " stroke="none" fill-rule="evenodd" fill="black"></path></svg>