<svg xmlns="http://www.w3.org/2000/svg" width="24" height="24" viewBox="0 0 24 24" fill="none" stroke="currentColor" stroke-width="2" stroke-linecap="round" stroke-linejoin="round"><path d="M8.499 2.043 C 7.382 2.230,6.454 3.054,6.115 4.160 C 6.045 4.390,6.023 4.559,6.022 4.883 C 6.020 5.285,6.026 5.315,6.141 5.503 C 6.537 6.147,7.457 6.156,7.849 5.520 C 7.927 5.392,7.971 5.249,7.999 5.031 C 8.049 4.636,8.114 4.485,8.321 4.283 C 8.589 4.024,8.725 4.000,9.947 4.000 L 11.000 4.000 11.000 5.500 L 11.000 7.000 10.390 7.000 C 9.713 7.000,9.141 7.072,8.755 7.204 C 7.368 7.679,6.372 8.805,6.083 10.227 C 6.002 10.625,6.000 10.731,6.002 15.906 C 6.003 20.207,6.013 21.208,6.057 21.330 C 6.136 21.551,6.298 21.744,6.511 21.869 L 6.700 21.980 12.000 21.980 L 17.300 21.980 17.489 21.869 C 17.702 21.744,17.864 21.551,17.943 21.330 C 17.987 21.208,17.997 20.207,17.998 15.906 C 18.000 10.798,17.998 10.620,17.921 10.243 C 17.628 8.806,16.637 7.680,15.245 7.204 C 14.859 7.072,14.287 7.000,13.610 7.000 L 13.000 7.000 13.000 5.500 L 13.000 4.000 14.090 3.998 C 15.262 3.996,15.357 3.983,15.619 3.783 C 15.696 3.725,15.808 3.592,15.869 3.489 C 15.964 3.328,15.980 3.256,15.980 3.000 C 15.980 2.746,15.963 2.672,15.872 2.516 C 15.813 2.415,15.698 2.282,15.618 2.221 C 15.323 1.996,15.382 2.000,11.904 2.005 C 10.142 2.007,8.609 2.025,8.499 2.043 M14.523 9.073 C 15.022 9.203,15.516 9.599,15.772 10.071 C 16.002 10.497,15.999 10.407,15.999 15.410 L 16.000 20.000 12.000 20.000 L 8.000 20.000 8.000 15.398 C 8.000 10.286,7.991 10.471,8.265 10.014 C 8.546 9.543,8.988 9.201,9.477 9.073 C 9.711 9.012,9.992 9.005,12.000 9.005 C 14.008 9.005,14.289 9.012,14.523 9.073 M11.695 10.057 C 11.466 10.129,11.256 10.299,11.128 10.516 C 11.025 10.692,11.019 10.728,11.007 11.350 L 10.993 12.000 10.443 12.000 C 9.648 12.000,9.366 12.111,9.128 12.516 C 9.037 12.672,9.020 12.746,9.020 13.000 C 9.020 13.256,9.036 13.328,9.131 13.489 C 9.256 13.702,9.449 13.864,9.670 13.943 C 9.768 13.978,10.022 13.997,10.407 13.998 L 10.993 14.000 11.007 14.653 C 11.020 15.300,11.021 15.308,11.141 15.503 C 11.209 15.613,11.346 15.756,11.452 15.828 C 11.923 16.144,12.554 15.999,12.859 15.503 C 12.979 15.308,12.980 15.300,12.993 14.653 L 13.007 14.000 13.593 13.998 C 13.978 13.997,14.232 13.978,14.330 13.943 C 14.551 13.864,14.744 13.702,14.869 13.489 C 14.964 13.328,14.980 13.256,14.980 13.000 C 14.980 12.746,14.963 12.672,14.872 12.516 C 14.634 12.111,14.352 12.000,13.557 12.000 L 13.007 12.000 12.993 11.350 C 12.981 10.728,12.975 10.692,12.872 10.516 C 12.628 10.101,12.150 9.915,11.695 10.057 " stroke="none" fill-rule="evenodd" fill="black"></path></svg>