<svg xmlns="http://www.w3.org/2000/svg" width="24" height="24" viewBox="0 0 24 24" fill="none" stroke="currentColor" stroke-width="2" stroke-linecap="round" stroke-linejoin="round"><path d="M11.960 1.062 C 11.415 1.179,10.767 1.605,10.456 2.050 L 10.380 2.159 10.180 2.097 C 9.866 2.000,9.348 1.982,9.000 2.055 C 8.611 2.137,8.118 2.383,7.835 2.636 C 7.542 2.898,7.265 3.308,7.129 3.681 L 7.020 3.980 7.009 7.291 L 6.997 10.602 6.816 10.477 C 5.978 9.901,4.810 9.838,3.883 10.321 C 3.066 10.746,2.577 11.512,2.530 12.440 C 2.493 13.152,2.511 13.192,4.047 15.900 C 5.955 19.262,6.321 19.861,6.880 20.531 C 7.986 21.855,9.563 22.709,11.340 22.944 C 11.971 23.027,14.633 23.002,15.140 22.908 C 18.209 22.338,20.455 20.045,20.927 17.000 C 20.967 16.743,20.980 15.971,20.980 13.820 L 20.980 10.980 20.869 10.680 C 20.481 9.625,19.454 8.944,18.360 9.014 C 18.173 9.026,17.930 9.063,17.820 9.097 L 17.620 9.159 17.544 9.050 C 17.501 8.989,17.353 8.828,17.213 8.692 C 16.737 8.225,16.039 7.971,15.352 8.013 L 15.003 8.035 14.992 5.507 L 14.980 2.980 14.869 2.680 C 14.430 1.486,13.192 0.798,11.960 1.062 M12.747 3.078 C 12.818 3.121,12.899 3.197,12.927 3.248 C 12.970 3.322,12.984 4.223,13.000 7.823 L 13.020 12.306 13.141 12.503 C 13.543 13.156,14.457 13.156,14.859 12.503 L 14.980 12.307 15.000 11.323 C 15.022 10.255,15.030 10.214,15.253 10.078 C 15.415 9.979,15.585 9.979,15.747 10.078 C 15.970 10.214,15.978 10.255,16.000 11.323 L 16.020 12.307 16.141 12.503 C 16.543 13.155,17.457 13.156,17.857 12.505 C 17.968 12.325,17.979 12.275,17.999 11.825 C 18.023 11.295,18.056 11.198,18.253 11.078 C 18.415 10.979,18.585 10.979,18.748 11.078 C 19.008 11.237,19.000 11.149,19.000 13.780 C 19.000 16.225,18.978 16.690,18.839 17.240 C 18.430 18.850,17.186 20.191,15.600 20.732 C 14.946 20.955,14.802 20.971,13.288 20.989 C 12.103 21.004,11.808 20.996,11.449 20.939 C 10.029 20.716,8.813 19.922,7.992 18.680 C 7.301 17.634,4.520 12.718,4.520 12.543 C 4.521 12.122,5.117 11.860,5.580 12.077 C 5.680 12.124,6.046 12.461,6.560 12.980 C 7.470 13.899,7.612 14.000,8.000 13.999 C 8.399 13.998,8.732 13.785,8.905 13.420 L 8.999 13.220 9.000 8.808 C 9.000 3.937,8.984 4.242,9.252 4.078 C 9.322 4.035,9.434 4.000,9.500 4.000 C 9.645 4.000,9.856 4.122,9.927 4.248 C 9.970 4.322,9.984 5.136,10.000 8.323 L 10.020 12.306 10.141 12.503 C 10.543 13.156,11.457 13.156,11.859 12.503 L 11.980 12.306 12.000 7.823 C 12.016 4.223,12.030 3.322,12.073 3.248 C 12.144 3.122,12.355 3.000,12.500 3.000 C 12.566 3.000,12.677 3.035,12.747 3.078 " stroke="none" fill-rule="evenodd" fill="black"></path></svg>