<svg xmlns="http://www.w3.org/2000/svg" width="24" height="24" viewBox="0 0 24 24" fill="none" stroke="currentColor" stroke-width="2" stroke-linecap="round" stroke-linejoin="round"><path d="M11.854 2.599 C 11.493 2.694,11.566 2.656,9.380 3.893 C 5.811 5.912,5.122 6.332,4.436 6.908 C 3.386 7.789,2.579 9.084,2.220 10.462 C 2.024 11.219,1.991 11.672,2.013 13.320 C 2.033 14.874,2.051 15.069,2.236 15.786 C 2.857 18.200,4.844 20.167,7.275 20.778 C 8.060 20.975,8.158 20.980,11.180 20.980 L 14.020 20.980 14.320 20.869 C 15.041 20.604,15.606 20.039,15.867 19.320 C 15.965 19.051,15.976 18.967,15.976 18.500 C 15.976 18.112,15.959 17.934,15.909 17.800 L 15.841 17.620 15.951 17.540 C 16.356 17.245,16.697 16.792,16.868 16.320 C 16.965 16.051,16.976 15.966,16.976 15.500 C 16.976 15.112,16.959 14.934,16.909 14.800 L 16.841 14.620 16.951 14.540 C 17.357 14.245,17.697 13.791,17.867 13.320 C 17.963 13.055,17.976 12.960,17.978 12.513 L 17.980 12.005 19.500 11.992 L 21.020 11.979 21.320 11.868 C 22.043 11.602,22.608 11.036,22.868 10.320 C 22.965 10.052,22.976 9.965,22.976 9.500 C 22.976 9.035,22.965 8.948,22.868 8.680 C 22.646 8.068,22.195 7.561,21.620 7.277 C 21.055 6.998,21.113 7.001,17.568 7.001 L 14.396 7.000 14.513 6.830 C 14.852 6.335,15.000 5.841,15.000 5.203 C 15.000 4.441,14.733 3.775,14.221 3.256 C 13.617 2.645,12.676 2.384,11.854 2.599 M12.708 4.599 C 12.980 4.764,13.084 5.237,12.923 5.580 C 12.876 5.680,12.539 6.046,12.020 6.560 C 11.101 7.470,11.000 7.612,11.001 8.000 C 11.002 8.399,11.215 8.732,11.580 8.905 L 11.780 8.999 16.192 9.000 C 21.063 9.000,20.758 8.984,20.922 9.252 C 21.021 9.415,21.021 9.585,20.922 9.748 C 20.759 10.015,21.005 10.000,16.748 10.000 C 12.564 10.000,12.680 9.994,12.382 10.221 C 12.302 10.282,12.187 10.415,12.128 10.516 C 12.037 10.672,12.020 10.746,12.020 11.000 C 12.020 11.256,12.036 11.328,12.131 11.489 C 12.192 11.592,12.304 11.725,12.381 11.783 C 12.650 11.989,12.714 11.996,14.220 11.998 C 15.536 12.000,15.628 12.005,15.748 12.078 C 15.893 12.167,16.000 12.346,16.000 12.500 C 16.000 12.654,15.893 12.833,15.748 12.922 C 15.628 12.995,15.538 13.000,14.256 13.000 C 12.773 13.000,12.653 13.014,12.382 13.221 C 12.302 13.282,12.187 13.415,12.128 13.516 C 12.037 13.672,12.020 13.746,12.020 14.000 C 12.020 14.256,12.036 14.328,12.131 14.489 C 12.192 14.592,12.304 14.725,12.381 14.783 C 12.635 14.977,12.752 14.996,13.712 14.998 C 14.701 15.000,14.778 15.016,14.922 15.252 C 15.021 15.415,15.021 15.585,14.922 15.748 C 14.779 15.983,14.698 16.000,13.748 16.000 C 12.811 16.000,12.634 16.029,12.382 16.221 C 12.302 16.282,12.187 16.415,12.128 16.516 C 12.037 16.672,12.020 16.746,12.020 17.000 C 12.020 17.256,12.036 17.328,12.131 17.489 C 12.352 17.864,12.630 17.996,13.212 17.998 C 13.658 18.000,13.799 18.051,13.922 18.252 C 14.021 18.415,14.021 18.585,13.922 18.748 C 13.759 19.015,13.881 19.005,10.948 18.989 C 8.065 18.974,8.122 18.978,7.400 18.732 C 5.810 18.189,4.578 16.862,4.161 15.240 C 4.025 14.712,3.990 14.136,4.011 12.776 C 4.027 11.774,4.045 11.435,4.099 11.200 C 4.403 9.858,5.169 8.751,6.320 7.991 C 7.380 7.292,12.281 4.520,12.457 4.520 C 12.525 4.520,12.638 4.556,12.708 4.599 " stroke="none" fill-rule="evenodd" fill="black"></path></svg>