<svg xmlns="http://www.w3.org/2000/svg" width="24" height="24" viewBox="0 0 24 24" fill="none" stroke="currentColor" stroke-width="2" stroke-linecap="round" stroke-linejoin="round"><path d="M8.960 2.062 C 8.606 2.138,8.107 2.393,7.835 2.636 C 7.542 2.898,7.265 3.308,7.129 3.681 L 7.020 3.980 7.009 7.291 L 6.997 10.602 6.816 10.477 C 5.978 9.901,4.810 9.838,3.883 10.321 C 3.066 10.746,2.577 11.512,2.530 12.440 C 2.493 13.152,2.511 13.192,4.047 15.900 C 5.955 19.262,6.321 19.861,6.880 20.531 C 7.986 21.855,9.563 22.709,11.340 22.944 C 11.971 23.027,14.633 23.002,15.140 22.908 C 18.209 22.338,20.455 20.045,20.927 17.000 C 20.967 16.743,20.980 15.971,20.980 13.820 L 20.980 10.980 20.869 10.680 C 20.481 9.625,19.454 8.944,18.360 9.014 C 18.173 9.026,17.930 9.063,17.820 9.097 L 17.620 9.159 17.544 9.050 C 17.223 8.591,16.582 8.178,16.000 8.055 C 15.652 7.982,15.134 8.000,14.820 8.097 L 14.620 8.159 14.544 8.050 C 14.501 7.989,14.353 7.828,14.213 7.692 C 13.737 7.226,13.039 6.971,12.353 7.013 L 12.005 7.034 11.992 5.507 L 11.979 3.980 11.869 3.680 C 11.432 2.487,10.192 1.798,8.960 2.062 M13.569 2.564 C 12.923 2.887,12.814 3.744,13.361 4.211 C 13.483 4.316,13.644 4.389,13.992 4.498 C 15.086 4.841,15.926 5.210,16.999 5.821 C 17.394 6.047,17.432 6.060,17.679 6.059 C 18.071 6.057,18.407 5.854,18.584 5.513 C 18.751 5.188,18.684 4.704,18.432 4.417 C 18.098 4.036,16.375 3.179,15.040 2.730 C 14.243 2.462,13.861 2.419,13.569 2.564 M4.800 3.188 C 4.366 3.276,2.372 4.421,1.879 4.865 C 1.661 5.061,1.552 5.304,1.550 5.595 C 1.547 6.103,1.925 6.527,2.433 6.587 C 2.718 6.620,2.917 6.545,3.389 6.225 C 3.959 5.839,4.413 5.574,5.079 5.240 C 5.772 4.893,5.942 4.710,5.989 4.260 C 6.029 3.868,5.834 3.497,5.490 3.309 C 5.298 3.205,4.986 3.150,4.800 3.188 M9.747 4.078 C 9.818 4.121,9.899 4.197,9.927 4.248 C 9.970 4.322,9.984 5.136,10.000 8.323 L 10.020 12.306 10.141 12.503 C 10.543 13.156,11.457 13.156,11.859 12.503 L 11.980 12.306 12.000 10.823 C 12.022 9.212,12.021 9.219,12.253 9.078 C 12.415 8.979,12.585 8.979,12.747 9.078 C 12.979 9.219,12.978 9.212,13.000 10.823 L 13.020 12.306 13.141 12.503 C 13.543 13.156,14.457 13.156,14.859 12.503 L 14.980 12.307 15.000 11.323 C 15.022 10.255,15.030 10.214,15.253 10.078 C 15.415 9.979,15.585 9.979,15.747 10.078 C 15.970 10.214,15.978 10.255,16.000 11.323 L 16.020 12.307 16.141 12.503 C 16.543 13.155,17.457 13.156,17.857 12.505 C 17.968 12.325,17.979 12.275,17.999 11.825 C 18.023 11.295,18.056 11.198,18.253 11.078 C 18.487 10.935,18.774 11.009,18.922 11.252 C 18.997 11.375,19.000 11.470,19.000 13.772 C 19.000 16.225,18.978 16.690,18.839 17.240 C 18.430 18.850,17.186 20.191,15.600 20.732 C 14.946 20.955,14.802 20.971,13.288 20.989 C 12.103 21.004,11.808 20.996,11.449 20.939 C 10.029 20.716,8.813 19.922,7.992 18.680 C 7.301 17.634,4.520 12.718,4.520 12.543 C 4.521 12.122,5.117 11.860,5.580 12.077 C 5.680 12.124,6.046 12.461,6.560 12.980 C 7.469 13.899,7.611 13.999,8.000 13.999 C 8.400 13.999,8.749 13.771,8.917 13.400 C 8.997 13.222,8.998 13.160,8.999 8.808 C 9.000 3.937,8.984 4.242,9.252 4.078 C 9.415 3.979,9.585 3.979,9.747 4.078 " stroke="none" fill-rule="evenodd" fill="black"></path></svg>