<svg xmlns="http://www.w3.org/2000/svg" width="24" height="24" viewBox="0 0 24 24" fill="none" stroke="currentColor" stroke-width="2" stroke-linecap="round" stroke-linejoin="round"><path d="M11.960 4.062 C 11.415 4.179,10.767 4.605,10.456 5.050 L 10.380 5.159 10.180 5.097 C 9.866 5.000,9.348 4.982,9.000 5.055 C 8.611 5.137,8.118 5.383,7.835 5.636 C 7.540 5.900,7.264 6.310,7.131 6.681 C 7.031 6.960,7.023 7.035,7.008 7.789 L 6.992 8.598 6.813 8.475 C 5.978 7.901,4.809 7.839,3.883 8.321 C 3.066 8.746,2.577 9.512,2.530 10.440 C 2.493 11.152,2.511 11.192,4.047 13.900 C 5.955 17.262,6.321 17.861,6.880 18.531 C 7.986 19.855,9.563 20.709,11.340 20.944 C 11.971 21.027,14.633 21.002,15.140 20.908 C 18.209 20.338,20.455 18.045,20.927 15.000 C 20.967 14.743,20.980 13.971,20.980 11.820 L 20.980 8.980 20.869 8.680 C 20.478 7.616,19.458 6.945,18.338 7.014 L 17.977 7.037 17.879 6.728 C 17.545 5.672,16.474 4.943,15.360 5.014 C 15.173 5.026,14.930 5.063,14.820 5.097 L 14.620 5.159 14.544 5.050 C 14.501 4.989,14.353 4.828,14.213 4.692 C 13.642 4.133,12.767 3.889,11.960 4.062 M12.747 6.078 C 12.984 6.222,12.978 6.168,13.000 8.323 L 13.020 10.306 13.141 10.503 C 13.543 11.156,14.457 11.156,14.859 10.503 L 14.980 10.306 15.000 8.823 C 15.015 7.702,15.033 7.318,15.073 7.248 C 15.144 7.122,15.355 7.000,15.500 7.000 C 15.645 7.000,15.856 7.122,15.927 7.248 C 15.967 7.318,15.985 7.702,16.000 8.823 L 16.020 10.306 16.141 10.503 C 16.543 11.155,17.457 11.156,17.857 10.505 C 17.968 10.325,17.979 10.275,17.999 9.825 C 18.023 9.295,18.056 9.198,18.253 9.078 C 18.415 8.979,18.585 8.979,18.748 9.078 C 19.008 9.237,19.000 9.149,19.000 11.780 C 19.000 14.225,18.978 14.690,18.839 15.240 C 18.430 16.850,17.186 18.191,15.600 18.732 C 14.946 18.955,14.802 18.971,13.288 18.989 C 12.103 19.004,11.808 18.996,11.449 18.939 C 10.029 18.716,8.813 17.922,7.992 16.680 C 7.301 15.634,4.520 10.718,4.520 10.543 C 4.521 10.122,5.117 9.860,5.580 10.077 C 5.680 10.124,6.046 10.461,6.560 10.980 C 7.469 11.899,7.611 11.999,8.000 11.999 C 8.400 11.999,8.749 11.771,8.917 11.400 C 8.995 11.227,8.998 11.145,8.999 9.308 C 9.000 7.198,8.996 7.234,9.252 7.078 C 9.415 6.979,9.585 6.979,9.747 7.078 C 9.979 7.219,9.978 7.212,10.000 8.823 L 10.020 10.306 10.141 10.503 C 10.543 11.156,11.457 11.156,11.859 10.503 L 11.980 10.306 12.000 8.323 C 12.015 6.788,12.032 6.319,12.073 6.248 C 12.144 6.122,12.355 6.000,12.500 6.000 C 12.566 6.000,12.677 6.035,12.747 6.078 " stroke="none" fill-rule="evenodd" fill="black"></path></svg>