<svg xmlns="http://www.w3.org/2000/svg" width="24" height="24" viewBox="0 0 24 24" fill="none" stroke="currentColor" stroke-width="2" stroke-linecap="round" stroke-linejoin="round"><path d="M11.499 2.040 C 10.372 2.245,9.460 3.050,9.121 4.140 C 8.961 4.655,8.970 5.622,9.143 6.472 C 9.294 7.216,9.654 8.059,10.041 8.577 L 10.234 8.836 10.067 8.933 C 9.975 8.986,8.496 9.808,6.780 10.760 C 5.064 11.711,3.552 12.555,3.420 12.635 C 3.112 12.821,2.618 13.315,2.446 13.609 C 2.069 14.251,1.985 14.666,2.010 15.757 C 2.026 16.467,2.041 16.618,2.118 16.860 C 2.493 18.030,3.520 18.877,4.693 18.983 L 4.990 19.010 5.017 19.307 C 5.124 20.489,5.978 21.517,7.160 21.886 L 7.460 21.980 12.000 21.980 L 16.540 21.980 16.840 21.886 C 18.022 21.517,18.876 20.489,18.983 19.307 L 19.010 19.010 19.307 18.983 C 20.480 18.877,21.507 18.030,21.882 16.860 C 21.959 16.618,21.974 16.467,21.990 15.757 C 22.015 14.666,21.931 14.251,21.554 13.609 C 21.382 13.315,20.887 12.821,20.580 12.635 C 20.448 12.556,18.612 11.532,16.500 10.359 C 14.388 9.187,12.520 8.139,12.349 8.030 C 11.945 7.772,11.644 7.431,11.421 6.980 C 11.190 6.513,11.099 6.166,11.038 5.532 C 10.979 4.917,11.004 4.708,11.162 4.469 C 11.557 3.872,12.393 3.855,12.817 4.436 C 12.914 4.567,12.973 4.781,13.021 5.169 C 13.052 5.421,13.249 5.706,13.497 5.859 C 13.671 5.966,13.729 5.980,13.997 5.980 C 14.257 5.980,14.327 5.964,14.492 5.867 C 14.714 5.737,14.901 5.498,14.965 5.264 C 15.026 5.040,14.982 4.481,14.877 4.137 C 14.585 3.184,13.802 2.404,12.861 2.129 C 12.500 2.023,11.832 1.980,11.499 2.040 M15.784 12.245 C 17.850 13.391,19.600 14.386,19.674 14.455 C 19.932 14.697,19.976 14.837,19.993 15.460 C 20.002 15.793,19.990 16.103,19.963 16.224 C 19.869 16.643,19.519 16.950,19.089 16.989 L 18.858 17.009 18.690 16.675 C 18.316 15.927,17.612 15.338,16.822 15.112 L 16.500 15.020 12.000 15.020 L 7.500 15.020 7.178 15.112 C 6.388 15.338,5.684 15.927,5.310 16.675 L 5.142 17.009 4.911 16.989 C 4.507 16.952,4.189 16.696,4.054 16.300 C 4.007 16.162,3.996 15.982,4.007 15.510 C 4.023 14.837,4.062 14.704,4.317 14.462 C 4.433 14.351,11.888 10.172,11.984 10.164 C 12.008 10.162,13.718 11.098,15.784 12.245 M16.310 17.061 C 16.589 17.144,16.856 17.411,16.939 17.690 C 17.020 17.961,17.024 19.028,16.945 19.290 C 16.872 19.533,16.707 19.740,16.484 19.872 L 16.300 19.980 12.000 19.980 L 7.700 19.980 7.516 19.872 C 7.303 19.747,7.141 19.550,7.058 19.316 C 6.976 19.081,6.977 17.971,7.061 17.690 C 7.140 17.421,7.412 17.143,7.673 17.063 C 7.962 16.974,16.011 16.972,16.310 17.061 " stroke="none" fill-rule="evenodd" fill="black"></path></svg>