<svg xmlns="http://www.w3.org/2000/svg" width="24" height="24" viewBox="0 0 24 24" fill="none" stroke="currentColor" stroke-width="2" stroke-linecap="round" stroke-linejoin="round"><path d="M10.670 3.061 C 10.467 3.135,10.259 3.300,10.156 3.467 C 10.102 3.553,9.864 4.428,9.522 5.793 L 8.974 7.980 6.857 8.000 C 5.286 8.015,4.711 8.033,4.627 8.070 C 4.428 8.158,4.239 8.328,4.128 8.516 C 4.037 8.672,4.020 8.746,4.020 9.000 C 4.020 9.256,4.036 9.328,4.131 9.489 C 4.192 9.592,4.304 9.725,4.381 9.783 C 4.657 9.994,4.681 9.996,6.645 9.998 L 8.470 10.000 7.970 12.000 L 7.470 14.000 6.181 14.000 C 4.779 14.000,4.651 14.016,4.382 14.221 C 4.302 14.282,4.187 14.415,4.128 14.516 C 4.037 14.672,4.020 14.746,4.020 15.000 C 4.020 15.256,4.036 15.328,4.131 15.489 C 4.192 15.592,4.304 15.725,4.381 15.783 C 4.642 15.982,4.739 15.996,5.890 15.998 C 6.479 15.999,6.960 16.009,6.960 16.021 C 6.960 16.032,6.742 16.909,6.476 17.971 C 5.942 20.103,5.935 20.154,6.138 20.501 C 6.261 20.709,6.440 20.855,6.678 20.939 C 7.105 21.090,7.607 20.917,7.841 20.538 C 7.899 20.445,8.123 19.623,8.478 18.207 L 9.026 16.020 10.993 16.010 C 12.075 16.004,12.960 16.009,12.960 16.020 C 12.960 16.032,12.742 16.909,12.476 17.971 C 12.067 19.605,11.996 19.932,12.014 20.112 C 12.076 20.740,12.725 21.150,13.322 20.939 C 13.545 20.860,13.730 20.718,13.841 20.538 C 13.899 20.445,14.123 19.623,14.478 18.207 L 15.026 16.020 17.163 16.000 L 19.300 15.980 19.492 15.867 C 20.248 15.423,20.123 14.306,19.290 14.055 C 19.147 14.012,18.719 14.000,17.319 14.000 L 15.530 14.000 16.030 12.000 L 16.530 10.000 17.855 9.998 C 19.280 9.996,19.351 9.988,19.619 9.783 C 19.696 9.725,19.808 9.592,19.869 9.489 C 19.964 9.328,19.980 9.256,19.980 9.000 C 19.980 8.746,19.963 8.672,19.872 8.516 C 19.813 8.415,19.698 8.282,19.618 8.221 C 19.357 8.022,19.202 8.000,18.074 8.000 C 17.505 8.000,17.040 7.991,17.040 7.979 C 17.040 7.968,17.258 7.091,17.524 6.029 C 18.063 3.877,18.068 3.837,17.851 3.486 C 17.548 2.995,16.902 2.862,16.424 3.191 C 16.127 3.396,16.111 3.443,15.524 5.787 L 14.974 7.980 13.007 7.990 C 11.925 7.996,11.040 7.991,11.040 7.980 C 11.040 7.968,11.258 7.091,11.524 6.029 C 12.058 3.897,12.065 3.846,11.862 3.499 C 11.624 3.094,11.102 2.902,10.670 3.061 M13.970 12.000 L 13.470 14.000 11.500 14.000 L 9.530 14.000 10.030 12.000 L 10.530 10.000 12.500 10.000 L 14.470 10.000 13.970 12.000 " stroke="none" fill-rule="evenodd" fill="black"></path></svg>