<svg xmlns="http://www.w3.org/2000/svg" width="24" height="24" viewBox="0 0 24 24" fill="none" stroke="currentColor" stroke-width="2" stroke-linecap="round" stroke-linejoin="round"><path d="M11.260 2.026 C 10.050 2.122,8.998 2.440,8.000 3.013 C 6.153 4.072,4.808 5.849,4.269 7.940 C 4.069 8.719,4.022 9.116,4.022 10.040 C 4.022 10.952,4.057 11.251,4.261 12.047 C 4.471 12.868,4.910 13.844,5.392 14.560 L 5.675 14.980 4.207 15.000 C 3.164 15.015,2.707 15.035,2.627 15.070 C 2.429 15.158,2.239 15.327,2.128 15.516 C 2.037 15.672,2.020 15.746,2.020 16.000 C 2.020 16.256,2.036 16.328,2.131 16.489 C 2.256 16.702,2.449 16.864,2.670 16.943 C 2.794 16.987,4.432 16.996,12.000 16.996 C 19.568 16.996,21.206 16.987,21.330 16.943 C 21.551 16.864,21.744 16.702,21.869 16.489 C 21.964 16.328,21.980 16.256,21.980 16.000 C 21.980 15.746,21.963 15.672,21.872 15.516 C 21.813 15.415,21.698 15.282,21.618 15.221 C 21.340 15.010,21.248 15.000,19.474 15.000 C 18.575 15.000,17.840 14.989,17.840 14.976 C 17.840 14.962,17.892 14.886,17.955 14.806 C 18.427 14.205,19.000 13.042,19.000 12.684 C 19.000 12.328,18.798 11.997,18.472 11.819 C 18.169 11.655,17.902 11.662,17.360 11.851 C 16.749 12.063,16.286 12.135,15.700 12.106 C 13.600 12.003,11.872 10.509,11.376 8.370 C 11.294 8.016,11.276 7.836,11.276 7.354 C 11.276 5.938,11.644 4.967,12.588 3.891 C 12.814 3.633,12.964 3.425,12.993 3.327 C 13.164 2.756,12.834 2.163,12.280 2.044 C 12.092 2.003,11.645 1.996,11.260 2.026 M9.859 4.430 C 9.255 5.855,9.107 7.235,9.401 8.688 C 9.829 10.803,11.260 12.628,13.181 13.509 C 13.913 13.845,14.541 14.009,15.391 14.087 L 15.921 14.136 15.711 14.351 C 15.595 14.469,15.373 14.663,15.217 14.783 L 14.934 15.000 11.762 15.000 L 8.590 15.000 8.319 14.799 C 8.170 14.689,7.881 14.424,7.678 14.212 C 6.548 13.030,5.931 11.371,6.013 9.740 C 6.094 8.153,6.680 6.804,7.760 5.717 C 8.281 5.193,8.693 4.889,9.265 4.605 C 9.820 4.331,9.913 4.303,9.859 4.430 M2.695 19.057 C 2.466 19.129,2.256 19.299,2.128 19.516 C 2.037 19.672,2.020 19.746,2.020 20.000 C 2.020 20.256,2.036 20.328,2.131 20.489 C 2.256 20.702,2.449 20.864,2.670 20.943 C 2.893 21.023,21.107 21.023,21.330 20.943 C 21.551 20.864,21.744 20.702,21.869 20.489 C 21.964 20.328,21.980 20.256,21.980 20.000 C 21.980 19.746,21.963 19.672,21.872 19.516 C 21.740 19.293,21.533 19.128,21.290 19.055 C 21.027 18.976,2.947 18.978,2.695 19.057 " stroke="none" fill-rule="evenodd" fill="black"></path></svg>