<svg xmlns="http://www.w3.org/2000/svg" width="24" height="24" viewBox="0 0 24 24" fill="none" stroke="currentColor" stroke-width="2" stroke-linecap="round" stroke-linejoin="round"><path d="M2.695 7.057 C 2.466 7.129,2.256 7.299,2.128 7.516 L 2.020 7.700 2.020 12.003 L 2.020 16.306 2.141 16.503 C 2.543 17.156,3.457 17.156,3.859 16.503 L 3.980 16.306 3.992 14.653 L 4.003 13.000 5.000 13.000 L 5.997 13.000 6.008 14.653 L 6.020 16.306 6.141 16.503 C 6.543 17.156,7.457 17.156,7.859 16.503 L 7.980 16.306 7.980 12.003 L 7.980 7.700 7.871 7.514 C 7.479 6.848,6.521 6.848,6.129 7.514 L 6.020 7.700 6.008 9.350 L 5.997 11.000 5.000 11.000 L 4.003 11.000 3.992 9.350 L 3.980 7.700 3.872 7.516 C 3.628 7.101,3.150 6.915,2.695 7.057 M9.695 7.055 C 9.464 7.130,9.255 7.300,9.128 7.516 L 9.020 7.700 9.009 11.913 C 9.002 14.672,9.013 16.178,9.039 16.277 C 9.099 16.498,9.290 16.739,9.508 16.867 L 9.700 16.980 11.120 16.980 C 12.497 16.980,12.549 16.977,12.840 16.886 C 13.827 16.578,14.578 15.827,14.886 14.840 L 14.980 14.540 14.980 12.000 L 14.980 9.460 14.886 9.160 C 14.581 8.181,13.825 7.421,12.861 7.124 C 12.551 7.028,12.495 7.025,11.200 7.014 C 10.166 7.005,9.822 7.014,9.695 7.055 M16.695 7.055 C 16.464 7.130,16.255 7.300,16.128 7.516 L 16.020 7.700 16.020 12.003 L 16.020 16.306 16.141 16.503 C 16.543 17.156,17.457 17.156,17.859 16.503 L 17.980 16.306 17.992 14.989 L 18.004 13.672 19.160 15.213 C 20.425 16.900,20.469 16.944,20.888 16.987 C 21.447 17.044,21.931 16.657,21.988 16.106 C 22.027 15.730,21.961 15.616,20.895 14.193 C 20.353 13.470,19.916 12.872,19.924 12.865 C 19.933 12.858,20.001 12.831,20.076 12.806 C 20.648 12.613,21.345 11.992,21.656 11.400 C 21.907 10.922,21.979 10.609,21.979 10.000 C 21.979 9.547,21.964 9.412,21.886 9.160 C 21.581 8.182,20.825 7.421,19.861 7.124 C 19.551 7.028,19.495 7.025,18.200 7.014 C 17.166 7.005,16.822 7.014,16.695 7.055 M12.310 9.061 C 12.589 9.144,12.856 9.411,12.939 9.690 C 13.025 9.978,13.030 14.007,12.945 14.290 C 12.872 14.533,12.707 14.740,12.484 14.872 C 12.308 14.975,12.272 14.981,11.650 14.993 L 11.000 15.007 11.000 12.003 L 11.000 9.000 11.553 9.000 C 11.931 9.000,12.170 9.019,12.310 9.061 M19.310 9.061 C 19.688 9.173,20.000 9.598,20.000 10.001 C 20.000 10.331,19.784 10.696,19.484 10.872 C 19.308 10.975,19.272 10.981,18.650 10.993 L 18.000 11.007 18.000 10.003 L 18.000 9.000 18.553 9.000 C 18.931 9.000,19.170 9.019,19.310 9.061 " stroke="none" fill-rule="evenodd" fill="black"></path></svg>