<svg xmlns="http://www.w3.org/2000/svg" width="24" height="24" viewBox="0 0 24 24" fill="none" stroke="currentColor" stroke-width="2" stroke-linecap="round" stroke-linejoin="round"><path d="M2.670 2.061 C 2.448 2.142,2.250 2.309,2.128 2.516 C 2.037 2.672,2.020 2.746,2.020 3.000 C 2.020 3.254,2.036 3.328,2.127 3.480 C 2.186 3.579,2.749 4.173,3.377 4.800 C 4.006 5.427,4.520 5.952,4.520 5.967 C 4.520 5.981,4.432 6.135,4.325 6.309 C 3.691 7.330,3.253 8.570,3.071 9.860 C 3.033 10.130,3.020 11.131,3.020 13.880 L 3.020 17.540 3.114 17.840 C 3.422 18.827,4.173 19.578,5.160 19.886 C 5.442 19.974,5.521 19.980,6.500 19.980 C 7.479 19.980,7.558 19.974,7.840 19.886 C 8.827 19.578,9.578 18.827,9.886 17.840 C 9.979 17.542,9.980 17.527,9.980 15.500 C 9.980 13.473,9.979 13.458,9.886 13.160 C 9.577 12.169,8.792 11.390,7.822 11.112 C 7.524 11.027,7.424 11.020,6.500 11.020 C 5.677 11.020,5.458 11.032,5.262 11.088 C 5.131 11.126,5.015 11.148,5.004 11.138 C 4.994 11.127,5.007 10.844,5.033 10.509 C 5.083 9.877,5.198 9.290,5.380 8.740 C 5.500 8.376,5.938 7.440,5.987 7.440 C 6.005 7.440,7.814 9.235,10.007 11.430 L 13.995 15.420 14.011 16.500 C 14.025 17.489,14.034 17.604,14.117 17.860 C 14.423 18.804,15.170 19.566,16.077 19.861 C 16.280 19.926,16.289 19.935,16.217 19.989 C 16.037 20.124,15.394 20.418,14.964 20.561 C 14.168 20.827,13.081 21.000,12.209 21.000 C 11.665 21.000,11.340 21.155,11.128 21.516 C 11.037 21.672,11.020 21.746,11.020 22.000 C 11.020 22.257,11.036 22.327,11.133 22.492 C 11.263 22.714,11.502 22.901,11.736 22.965 C 12.043 23.049,13.429 22.959,14.300 22.799 C 15.387 22.598,16.552 22.154,17.340 21.639 C 17.743 21.376,18.426 20.697,18.600 20.387 L 18.731 20.154 19.576 20.992 C 20.040 21.453,20.483 21.864,20.560 21.905 C 20.659 21.957,20.787 21.979,21.000 21.979 C 21.258 21.980,21.327 21.964,21.492 21.867 C 21.968 21.587,22.139 20.967,21.865 20.508 C 21.810 20.416,17.665 16.243,12.653 11.235 C 4.231 2.820,3.525 2.125,3.343 2.065 C 3.107 1.987,2.874 1.986,2.670 2.061 M11.300 2.024 C 10.420 2.117,9.750 2.258,9.080 2.489 C 8.478 2.697,7.515 3.168,7.347 3.336 C 6.734 3.949,7.112 4.960,7.980 5.030 C 8.233 5.050,8.246 5.046,8.828 4.767 C 9.154 4.612,9.586 4.429,9.790 4.361 C 12.232 3.546,14.953 4.153,16.826 5.931 C 18.162 7.198,18.994 9.108,18.999 10.913 C 19.000 11.135,18.991 11.163,18.930 11.145 C 18.892 11.134,18.779 11.101,18.680 11.073 C 18.554 11.036,18.207 11.020,17.520 11.020 C 16.701 11.020,16.497 11.032,16.280 11.092 C 15.916 11.192,15.603 11.342,15.450 11.490 C 15.311 11.624,15.160 11.971,15.160 12.154 C 15.160 12.364,15.283 12.684,15.425 12.840 C 15.719 13.165,16.108 13.246,16.614 13.086 C 16.845 13.014,16.985 13.000,17.497 13.000 C 18.235 13.000,18.436 13.048,18.679 13.283 C 18.975 13.571,18.977 13.581,19.000 15.023 L 19.020 16.307 19.141 16.503 C 19.543 17.156,20.457 17.156,20.859 16.503 L 20.980 16.306 20.992 13.463 C 21.000 11.629,20.989 10.457,20.961 10.160 C 20.745 7.874,19.624 5.694,17.904 4.214 C 16.592 3.085,15.012 2.357,13.320 2.101 C 12.912 2.039,11.623 1.990,11.300 2.024 M7.310 13.061 C 7.589 13.144,7.856 13.411,7.939 13.690 C 8.024 13.976,8.029 17.010,7.945 17.290 C 7.872 17.533,7.707 17.740,7.484 17.872 C 7.301 17.980,7.297 17.980,6.500 17.980 C 5.703 17.980,5.699 17.980,5.516 17.872 C 5.303 17.747,5.141 17.550,5.058 17.316 C 4.971 17.067,4.973 13.986,5.061 13.690 C 5.140 13.421,5.412 13.143,5.673 13.063 C 5.941 12.981,7.035 12.979,7.310 13.061 " stroke="none" fill-rule="evenodd" fill="black"></path></svg>