<svg xmlns="http://www.w3.org/2000/svg" width="24" height="24" viewBox="0 0 24 24" fill="none" stroke="currentColor" stroke-width="2" stroke-linecap="round" stroke-linejoin="round"><path d="M4.695 4.057 C 4.466 4.129,4.256 4.299,4.128 4.516 C 4.037 4.672,4.020 4.746,4.020 5.000 C 4.020 5.256,4.036 5.328,4.131 5.489 C 4.256 5.702,4.449 5.864,4.670 5.943 C 4.768 5.978,5.023 5.997,5.410 5.998 L 6.000 6.000 6.000 12.000 L 6.000 18.000 5.446 18.000 C 4.648 18.000,4.367 18.110,4.128 18.516 C 4.037 18.672,4.020 18.746,4.020 19.000 C 4.020 19.256,4.036 19.328,4.131 19.489 C 4.256 19.702,4.449 19.864,4.670 19.943 C 4.889 20.021,9.111 20.021,9.330 19.943 C 9.551 19.864,9.744 19.702,9.869 19.489 C 9.964 19.328,9.980 19.256,9.980 19.000 C 9.980 18.746,9.963 18.672,9.872 18.516 C 9.633 18.110,9.352 18.000,8.554 18.000 L 8.000 18.000 8.000 15.500 L 8.000 13.000 12.000 13.000 L 16.000 13.000 16.000 15.500 L 16.000 18.000 15.446 18.000 C 14.648 18.000,14.367 18.110,14.128 18.516 C 14.037 18.672,14.020 18.746,14.020 19.000 C 14.020 19.256,14.036 19.328,14.131 19.489 C 14.256 19.702,14.449 19.864,14.670 19.943 C 14.788 19.985,15.280 19.996,17.000 19.996 C 18.720 19.996,19.212 19.985,19.330 19.943 C 19.551 19.864,19.744 19.702,19.869 19.489 C 19.964 19.328,19.980 19.256,19.980 19.000 C 19.980 18.746,19.963 18.672,19.872 18.516 C 19.633 18.110,19.352 18.000,18.554 18.000 L 18.000 18.000 18.000 12.000 L 18.000 6.000 18.590 5.998 C 18.977 5.997,19.232 5.978,19.330 5.943 C 19.551 5.864,19.744 5.702,19.869 5.489 C 19.964 5.328,19.980 5.256,19.980 5.000 C 19.980 4.746,19.963 4.672,19.872 4.516 C 19.740 4.293,19.533 4.128,19.290 4.055 C 19.023 3.975,14.977 3.975,14.710 4.055 C 14.467 4.128,14.260 4.293,14.128 4.516 C 14.037 4.672,14.020 4.746,14.020 5.000 C 14.020 5.256,14.036 5.328,14.131 5.489 C 14.256 5.702,14.449 5.864,14.670 5.943 C 14.768 5.978,15.023 5.997,15.410 5.998 L 16.000 6.000 16.000 8.500 L 16.000 11.000 12.000 11.000 L 8.000 11.000 8.000 8.500 L 8.000 6.000 8.590 5.998 C 8.977 5.997,9.232 5.978,9.330 5.943 C 9.551 5.864,9.744 5.702,9.869 5.489 C 9.964 5.328,9.980 5.256,9.980 5.000 C 9.980 4.746,9.963 4.672,9.872 4.516 C 9.740 4.293,9.533 4.128,9.290 4.055 C 9.033 3.978,4.943 3.979,4.695 4.057 " stroke="none" fill-rule="evenodd" fill="black"></path></svg>