<svg xmlns="http://www.w3.org/2000/svg" width="24" height="24" viewBox="0 0 24 24" fill="none" stroke="currentColor" stroke-width="2" stroke-linecap="round" stroke-linejoin="round"><path d="M7.360 3.026 C 6.162 3.208,5.471 3.463,4.598 4.045 C 4.166 4.333,3.397 5.077,3.113 5.480 C 2.372 6.534,1.996 7.723,1.998 9.000 C 2.002 10.533,2.521 11.876,3.549 13.010 C 4.141 13.662,11.355 20.773,11.533 20.880 C 11.672 20.963,11.750 20.980,12.000 20.979 C 12.213 20.979,12.340 20.957,12.440 20.904 C 12.517 20.864,12.900 20.514,13.291 20.126 L 14.001 19.422 14.711 20.127 C 15.101 20.515,15.483 20.865,15.560 20.905 C 15.759 21.008,16.208 21.006,16.419 20.901 C 16.588 20.817,20.850 16.560,21.193 16.132 C 21.388 15.890,21.637 15.448,21.745 15.152 C 22.135 14.090,22.063 13.005,21.537 12.007 L 21.362 11.674 21.455 11.487 C 21.604 11.190,21.788 10.616,21.881 10.160 C 22.262 8.289,21.685 6.307,20.348 4.894 C 19.338 3.827,17.996 3.176,16.531 3.041 C 15.069 2.906,13.545 3.347,12.360 4.246 L 11.999 4.520 11.770 4.333 C 10.964 3.676,9.924 3.220,8.860 3.057 C 8.535 3.007,7.611 2.988,7.360 3.026 M8.781 5.076 C 9.688 5.263,10.481 5.737,11.062 6.440 C 11.389 6.834,11.592 6.962,11.937 6.990 C 12.331 7.021,12.545 6.905,12.933 6.448 C 14.273 4.869,16.570 4.554,18.255 5.719 C 19.658 6.689,20.277 8.372,19.853 10.070 C 19.818 10.207,19.775 10.320,19.757 10.320 C 19.738 10.320,19.628 10.285,19.512 10.243 C 18.447 9.853,17.189 9.984,16.256 10.581 C 16.136 10.658,16.020 10.720,15.996 10.720 C 15.973 10.720,15.879 10.668,15.787 10.605 C 15.216 10.214,14.554 10.024,13.760 10.023 C 12.665 10.021,11.763 10.410,11.019 11.207 C 10.589 11.666,10.336 12.117,10.135 12.780 C 10.035 13.109,10.026 13.196,10.026 13.800 C 10.026 14.406,10.035 14.490,10.135 14.820 C 10.267 15.250,10.504 15.737,10.729 16.040 C 10.819 16.161,11.277 16.648,11.746 17.121 L 12.599 17.983 12.301 18.279 L 12.004 18.574 11.552 18.139 C 9.994 16.639,4.999 11.652,4.822 11.420 C 4.228 10.641,3.965 9.792,4.013 8.802 C 4.051 8.007,4.301 7.268,4.736 6.660 C 5.331 5.831,6.324 5.211,7.321 5.046 C 7.710 4.981,8.392 4.995,8.781 5.076 M14.055 12.039 C 14.433 12.101,14.742 12.273,15.100 12.620 C 15.460 12.970,15.684 13.090,15.979 13.093 C 16.306 13.096,16.460 13.018,16.855 12.650 C 17.486 12.062,17.999 11.907,18.719 12.090 C 19.630 12.321,20.200 13.407,19.904 14.352 C 19.791 14.713,19.639 14.888,17.851 16.708 C 16.850 17.727,16.020 18.560,16.005 18.560 C 15.976 18.560,13.865 16.439,12.918 15.460 C 12.234 14.752,12.115 14.568,12.034 14.092 C 11.935 13.515,12.105 12.976,12.521 12.542 C 12.935 12.111,13.455 11.941,14.055 12.039 " stroke="none" fill-rule="evenodd" fill="black"></path></svg>