<svg xmlns="http://www.w3.org/2000/svg" width="24" height="24" viewBox="0 0 24 24" fill="none" stroke="currentColor" stroke-width="2" stroke-linecap="round" stroke-linejoin="round"><path d="M7.360 3.026 C 6.162 3.208,5.471 3.463,4.598 4.045 C 4.166 4.333,3.397 5.077,3.113 5.480 C 2.372 6.534,1.996 7.723,1.998 9.000 C 2.002 10.533,2.521 11.876,3.549 13.010 C 4.116 13.635,11.351 20.771,11.520 20.873 C 11.965 21.139,12.592 20.960,12.869 20.489 C 13.017 20.238,13.026 19.833,12.891 19.560 C 12.825 19.427,11.787 18.378,8.956 15.580 C 6.840 13.490,5.005 11.649,4.877 11.489 C 4.250 10.709,3.964 9.818,4.013 8.802 C 4.042 8.189,4.163 7.711,4.415 7.212 C 4.639 6.769,4.809 6.532,5.150 6.186 C 5.926 5.398,6.890 5.000,8.020 5.001 C 9.190 5.001,10.311 5.532,11.062 6.440 C 11.389 6.834,11.592 6.962,11.937 6.990 C 12.323 7.021,12.555 6.899,12.894 6.491 C 13.599 5.638,14.457 5.175,15.582 5.039 C 16.320 4.950,17.028 5.070,17.700 5.397 C 18.337 5.707,18.801 6.078,19.176 6.576 C 20.038 7.722,20.238 9.289,19.683 10.553 C 19.518 10.929,19.476 11.142,19.523 11.354 C 19.629 11.826,19.916 12.098,20.395 12.179 C 20.611 12.216,20.941 12.113,21.143 11.947 C 21.334 11.790,21.594 11.245,21.759 10.657 C 22.098 9.451,22.072 8.286,21.681 7.116 C 21.367 6.174,20.938 5.486,20.225 4.780 C 19.958 4.516,19.603 4.206,19.436 4.092 C 17.255 2.598,14.429 2.667,12.335 4.265 L 12.000 4.521 11.770 4.333 C 10.964 3.676,9.924 3.220,8.860 3.057 C 8.535 3.007,7.611 2.988,7.360 3.026 M18.340 14.060 C 17.913 14.130,17.642 14.217,17.275 14.399 C 16.236 14.915,15.537 15.720,15.185 16.807 C 14.791 18.021,15.052 19.450,15.851 20.460 C 16.124 20.805,16.714 21.363,17.729 22.233 C 18.558 22.945,18.617 22.980,19.000 22.979 C 19.211 22.979,19.339 22.957,19.433 22.907 C 19.586 22.824,20.750 21.830,21.465 21.171 C 22.256 20.443,22.645 19.845,22.868 19.015 C 22.962 18.669,22.975 18.543,22.976 18.000 C 22.977 17.486,22.962 17.325,22.890 17.059 C 22.555 15.825,21.863 14.972,20.736 14.406 C 20.015 14.045,19.175 13.924,18.340 14.060 M19.383 16.043 C 19.962 16.149,20.496 16.556,20.760 17.093 C 20.848 17.273,20.941 17.528,20.964 17.660 C 21.049 18.125,20.934 18.671,20.660 19.101 C 20.538 19.293,19.979 19.839,19.309 20.421 L 18.997 20.691 18.909 20.614 C 17.924 19.754,17.524 19.372,17.355 19.130 C 17.082 18.739,16.949 18.129,17.035 17.660 C 17.107 17.269,17.361 16.802,17.640 16.550 C 18.143 16.095,18.729 15.924,19.383 16.043 M18.695 17.057 C 18.466 17.129,18.256 17.299,18.128 17.516 C 18.036 17.672,18.020 17.745,18.021 18.000 C 18.022 18.332,18.101 18.533,18.306 18.728 C 18.785 19.181,19.580 19.046,19.893 18.460 C 20.025 18.211,20.015 17.760,19.872 17.516 C 19.628 17.101,19.150 16.915,18.695 17.057 " stroke="none" fill-rule="evenodd" fill="black"></path></svg>