<svg xmlns="http://www.w3.org/2000/svg" width="24" height="24" viewBox="0 0 24 24" fill="none" stroke="currentColor" stroke-width="2" stroke-linecap="round" stroke-linejoin="round"><path d="M7.360 3.026 C 6.162 3.208,5.471 3.463,4.598 4.045 C 4.166 4.333,3.397 5.077,3.113 5.480 C 2.372 6.534,1.996 7.723,1.998 9.000 C 2.002 10.533,2.521 11.876,3.549 13.010 C 4.116 13.635,11.351 20.771,11.520 20.873 C 11.965 21.139,12.592 20.960,12.869 20.489 C 13.017 20.238,13.026 19.833,12.891 19.560 C 12.825 19.427,11.787 18.378,8.956 15.580 C 6.840 13.490,5.005 11.649,4.877 11.489 C 4.250 10.709,3.964 9.818,4.013 8.802 C 4.042 8.189,4.163 7.711,4.415 7.212 C 4.639 6.769,4.809 6.532,5.150 6.186 C 5.926 5.398,6.890 5.000,8.020 5.001 C 9.190 5.001,10.311 5.532,11.062 6.440 C 11.388 6.833,11.592 6.962,11.933 6.990 C 12.301 7.019,12.540 6.905,12.838 6.559 C 13.476 5.817,14.182 5.364,15.025 5.152 C 15.538 5.023,16.428 5.025,16.940 5.155 C 18.457 5.543,19.585 6.734,19.900 8.280 C 19.993 8.735,19.966 9.600,19.846 10.051 C 19.741 10.445,19.509 10.942,19.252 11.323 C 19.005 11.690,18.944 11.869,18.972 12.141 C 19.010 12.514,19.255 12.847,19.596 12.989 C 19.938 13.132,20.413 13.028,20.665 12.755 C 21.036 12.353,21.514 11.451,21.713 10.780 C 22.097 9.481,22.043 8.049,21.565 6.851 C 20.651 4.560,18.434 3.039,16.007 3.040 C 14.676 3.041,13.414 3.463,12.348 4.266 L 12.005 4.525 11.772 4.335 C 10.964 3.676,9.926 3.220,8.860 3.057 C 8.535 3.007,7.611 2.988,7.360 3.026 M18.695 15.057 C 18.466 15.129,18.256 15.299,18.128 15.516 L 18.020 15.700 18.008 16.850 L 17.995 18.000 16.944 18.000 C 15.797 18.000,15.643 18.022,15.382 18.221 C 15.302 18.282,15.187 18.415,15.128 18.516 C 15.037 18.672,15.020 18.746,15.020 19.000 C 15.020 19.256,15.036 19.328,15.131 19.489 C 15.192 19.592,15.304 19.725,15.381 19.783 C 15.642 19.983,15.738 19.996,16.908 19.998 L 17.995 20.000 18.008 21.153 L 18.020 22.307 18.141 22.503 C 18.543 23.156,19.457 23.156,19.859 22.503 L 19.980 22.307 19.992 21.153 L 20.005 20.000 21.092 19.998 C 22.262 19.996,22.358 19.983,22.619 19.783 C 22.696 19.725,22.808 19.592,22.869 19.489 C 22.964 19.328,22.980 19.256,22.980 19.000 C 22.980 18.746,22.963 18.672,22.872 18.516 C 22.813 18.415,22.698 18.282,22.618 18.221 C 22.357 18.022,22.203 18.000,21.056 18.000 L 20.005 18.000 19.992 16.850 L 19.980 15.700 19.872 15.516 C 19.628 15.101,19.150 14.915,18.695 15.057 " stroke="none" fill-rule="evenodd" fill="black"></path></svg>