<svg xmlns="http://www.w3.org/2000/svg" width="24" height="24" viewBox="0 0 24 24" fill="none" stroke="currentColor" stroke-width="2" stroke-linecap="round" stroke-linejoin="round"><path d="M7.360 3.026 C 6.162 3.208,5.471 3.463,4.598 4.045 C 4.166 4.333,3.397 5.077,3.113 5.480 C 2.372 6.534,1.996 7.723,1.998 9.000 C 2.002 10.533,2.521 11.876,3.549 13.010 C 3.742 13.222,5.588 15.067,7.652 17.108 C 10.515 19.941,11.449 20.841,11.592 20.909 C 11.716 20.968,11.855 20.999,12.000 20.999 C 12.145 20.999,12.284 20.969,12.408 20.909 C 12.551 20.841,13.505 19.921,16.408 17.049 C 18.504 14.975,20.344 13.139,20.496 12.969 C 21.409 11.945,21.932 10.627,21.989 9.200 C 22.102 6.363,20.086 3.764,17.308 3.164 C 15.509 2.775,13.677 3.197,12.252 4.327 L 12.004 4.524 11.772 4.335 C 10.964 3.676,9.925 3.220,8.860 3.057 C 8.535 3.007,7.611 2.988,7.360 3.026 M8.971 5.114 C 9.578 5.276,10.183 5.594,10.634 5.989 L 10.809 6.141 9.914 7.933 L 9.020 9.724 9.020 9.993 C 9.020 10.201,9.043 10.307,9.121 10.461 C 9.213 10.643,9.368 10.770,10.949 11.960 C 11.899 12.675,12.687 13.272,12.700 13.286 C 12.714 13.300,12.342 14.074,11.874 15.006 L 11.024 16.700 11.008 17.149 L 10.991 17.598 8.014 14.649 C 6.376 13.027,4.940 11.574,4.822 11.420 C 4.228 10.641,3.965 9.792,4.013 8.802 C 4.051 8.007,4.301 7.268,4.736 6.660 C 5.330 5.832,6.304 5.223,7.321 5.043 C 7.686 4.979,8.613 5.019,8.971 5.114 M16.820 5.107 C 18.030 5.342,19.092 6.188,19.626 7.344 C 20.025 8.208,20.089 9.298,19.796 10.240 C 19.675 10.628,19.449 11.063,19.193 11.400 C 19.066 11.567,17.644 13.008,15.983 14.653 L 13.000 17.607 13.000 17.424 C 13.000 17.266,13.131 16.979,13.990 15.259 L 14.980 13.276 14.980 13.007 C 14.980 12.799,14.957 12.693,14.879 12.539 C 14.787 12.357,14.632 12.230,13.051 11.040 C 12.101 10.325,11.313 9.728,11.300 9.714 C 11.286 9.700,11.635 8.971,12.075 8.094 C 12.954 6.341,13.005 6.263,13.565 5.841 C 14.510 5.129,15.632 4.876,16.820 5.107 " stroke="none" fill-rule="evenodd" fill="black"></path></svg>