<svg xmlns="http://www.w3.org/2000/svg" width="24" height="24" viewBox="0 0 24 24" fill="none" stroke="currentColor" stroke-width="2" stroke-linecap="round" stroke-linejoin="round"><path d="M7.360 3.026 C 6.162 3.208,5.471 3.463,4.598 4.045 C 4.166 4.333,3.397 5.077,3.113 5.480 C 2.372 6.534,1.996 7.723,1.998 9.000 C 2.002 10.533,2.521 11.876,3.549 13.010 C 4.141 13.662,11.355 20.773,11.533 20.880 C 11.671 20.963,11.751 20.980,12.000 20.980 C 12.409 20.980,12.522 20.906,13.266 20.153 C 13.812 19.601,13.878 19.518,13.936 19.323 C 14.019 19.039,14.017 18.928,13.920 18.669 C 13.773 18.276,13.426 18.039,13.001 18.041 C 12.681 18.042,12.494 18.122,12.209 18.379 L 11.998 18.569 11.549 18.136 C 9.995 16.639,4.999 11.652,4.822 11.420 C 4.549 11.062,4.387 10.770,4.243 10.374 C 3.870 9.352,3.935 8.162,4.415 7.212 C 4.639 6.769,4.809 6.532,5.150 6.186 C 5.926 5.398,6.890 5.000,8.020 5.001 C 9.190 5.001,10.311 5.532,11.062 6.440 C 11.389 6.834,11.592 6.962,11.937 6.990 C 12.327 7.021,12.555 6.900,12.905 6.477 C 13.406 5.871,14.193 5.357,14.920 5.162 C 16.828 4.648,18.803 5.565,19.626 7.344 C 19.859 7.849,19.971 8.373,19.972 8.960 C 19.973 9.691,19.861 10.201,19.569 10.796 C 19.355 11.234,19.136 11.511,18.460 12.200 C 17.768 12.906,17.694 13.031,17.730 13.434 C 17.755 13.710,17.829 13.867,18.023 14.055 C 18.235 14.261,18.419 14.335,18.720 14.335 C 18.913 14.334,19.026 14.311,19.158 14.242 C 19.375 14.130,20.502 13.012,20.788 12.625 C 21.744 11.331,22.165 9.700,21.937 8.169 C 21.570 5.694,19.710 3.683,17.308 3.164 C 15.509 2.775,13.677 3.197,12.252 4.327 L 12.004 4.524 11.772 4.335 C 10.964 3.676,9.925 3.220,8.860 3.057 C 8.535 3.007,7.611 2.988,7.360 3.026 M16.695 16.057 C 16.466 16.129,16.256 16.299,16.128 16.516 L 16.020 16.700 16.020 19.503 L 16.020 22.306 16.141 22.503 C 16.543 23.156,17.457 23.156,17.859 22.503 L 17.980 22.306 17.980 19.503 L 17.980 16.700 17.872 16.516 C 17.628 16.101,17.150 15.915,16.695 16.057 M20.695 16.057 C 20.466 16.129,20.256 16.299,20.128 16.516 L 20.020 16.700 20.020 19.503 L 20.020 22.306 20.141 22.503 C 20.543 23.156,21.457 23.156,21.859 22.503 L 21.980 22.306 21.980 19.503 L 21.980 16.700 21.872 16.516 C 21.628 16.101,21.150 15.915,20.695 16.057 " stroke="none" fill-rule="evenodd" fill="black"></path></svg>