<svg xmlns="http://www.w3.org/2000/svg" width="24" height="24" viewBox="0 0 24 24" fill="none" stroke="currentColor" stroke-width="2" stroke-linecap="round" stroke-linejoin="round"><path d="M7.360 3.026 C 6.162 3.208,5.471 3.463,4.598 4.045 C 4.166 4.333,3.397 5.077,3.113 5.480 C 2.372 6.534,1.996 7.723,1.998 9.000 C 2.002 10.533,2.521 11.876,3.549 13.010 C 4.141 13.662,11.355 20.773,11.533 20.880 C 11.671 20.963,11.751 20.980,12.000 20.980 C 12.249 20.980,12.328 20.963,12.467 20.880 C 12.639 20.777,20.003 13.520,20.496 12.969 C 21.409 11.945,21.932 10.627,21.989 9.200 C 22.102 6.363,20.086 3.764,17.308 3.164 C 15.509 2.775,13.677 3.197,12.252 4.327 L 12.004 4.524 11.772 4.335 C 10.964 3.676,9.925 3.220,8.860 3.057 C 8.535 3.007,7.611 2.988,7.360 3.026 M8.781 5.076 C 9.688 5.263,10.481 5.737,11.062 6.440 C 11.389 6.834,11.592 6.962,11.937 6.990 C 12.327 7.021,12.555 6.900,12.905 6.477 C 13.406 5.871,14.193 5.357,14.920 5.162 C 16.828 4.648,18.803 5.565,19.626 7.344 C 20.025 8.208,20.089 9.298,19.796 10.240 C 19.678 10.616,19.452 11.059,19.211 11.380 C 19.014 11.643,12.067 18.560,12.000 18.560 C 11.942 18.560,5.003 11.663,4.818 11.422 C 3.901 10.229,3.740 8.547,4.415 7.212 C 4.639 6.769,4.809 6.532,5.150 6.186 C 5.743 5.584,6.514 5.179,7.321 5.046 C 7.710 4.981,8.392 4.995,8.781 5.076 " stroke="none" fill-rule="evenodd" fill="black"></path></svg>