<svg xmlns="http://www.w3.org/2000/svg" width="24" height="24" viewBox="0 0 24 24" fill="none" stroke="currentColor" stroke-width="2" stroke-linecap="round" stroke-linejoin="round"><path d="M7.360 3.026 C 6.162 3.208,5.471 3.463,4.598 4.045 C 4.166 4.333,3.397 5.077,3.113 5.480 C 2.372 6.534,1.996 7.723,1.998 9.000 C 2.002 10.533,2.521 11.876,3.549 13.010 C 4.116 13.635,11.351 20.771,11.520 20.873 C 11.965 21.139,12.592 20.960,12.869 20.489 C 13.017 20.238,13.026 19.833,12.891 19.560 C 12.825 19.427,11.787 18.378,8.956 15.580 C 6.840 13.490,5.005 11.649,4.877 11.489 C 4.250 10.709,3.964 9.818,4.013 8.802 C 4.042 8.189,4.163 7.711,4.415 7.212 C 4.639 6.769,4.809 6.532,5.150 6.186 C 5.926 5.398,6.890 5.000,8.020 5.001 C 9.190 5.001,10.311 5.532,11.062 6.440 C 11.389 6.834,11.592 6.962,11.937 6.990 C 12.331 7.021,12.545 6.905,12.933 6.448 C 14.831 4.212,18.360 4.673,19.618 7.323 C 19.862 7.835,19.968 8.332,19.975 8.980 C 19.978 9.398,19.961 9.621,19.906 9.860 C 19.820 10.233,19.614 10.750,19.442 11.031 C 19.299 11.263,19.200 11.528,19.200 11.678 C 19.200 12.291,19.812 12.814,20.376 12.684 C 20.678 12.614,20.893 12.469,21.054 12.226 C 21.409 11.692,21.723 10.909,21.886 10.154 C 22.004 9.611,22.014 8.540,21.907 7.960 C 21.546 6.004,20.217 4.315,18.416 3.526 C 16.414 2.649,14.100 2.925,12.357 4.248 L 11.999 4.520 11.770 4.333 C 10.964 3.676,9.924 3.220,8.860 3.057 C 8.535 3.007,7.611 2.988,7.360 3.026 M18.617 14.577 C 18.415 14.665,18.193 14.886,18.094 15.100 C 18.015 15.270,18.001 15.364,18.000 15.724 L 18.000 16.148 17.708 16.292 C 17.548 16.371,17.334 16.499,17.233 16.576 L 17.050 16.716 16.664 16.503 C 16.211 16.253,15.998 16.209,15.686 16.302 C 15.161 16.458,14.862 17.002,15.014 17.526 C 15.098 17.815,15.269 17.998,15.677 18.238 L 16.014 18.436 16.017 19.002 L 16.020 19.567 15.649 19.786 C 15.230 20.032,15.075 20.208,14.999 20.524 C 14.876 21.035,15.183 21.552,15.700 21.702 C 16.043 21.802,16.254 21.745,16.876 21.388 L 17.053 21.286 17.235 21.425 C 17.335 21.501,17.548 21.629,17.708 21.708 L 18.000 21.852 18.000 22.276 C 18.001 22.638,18.015 22.729,18.095 22.900 C 18.276 23.281,18.595 23.488,19.000 23.488 C 19.405 23.488,19.724 23.281,19.905 22.900 C 19.986 22.729,19.999 22.639,20.000 22.274 L 20.000 21.848 20.269 21.721 C 20.418 21.652,20.633 21.524,20.749 21.437 L 20.959 21.278 21.120 21.380 C 21.666 21.725,21.988 21.810,22.323 21.699 C 22.828 21.531,23.121 21.024,23.001 20.524 C 22.926 20.210,22.771 20.034,22.352 19.784 L 21.980 19.562 21.983 18.999 L 21.986 18.436 22.323 18.238 C 22.731 17.998,22.902 17.815,22.986 17.526 C 23.138 17.002,22.839 16.458,22.314 16.302 C 22.002 16.209,21.789 16.253,21.336 16.503 L 20.950 16.716 20.767 16.576 C 20.666 16.499,20.452 16.371,20.292 16.292 L 20.000 16.148 20.000 15.724 C 19.999 15.362,19.985 15.271,19.905 15.100 C 19.793 14.865,19.599 14.669,19.391 14.582 C 19.210 14.506,18.785 14.503,18.617 14.577 M19.260 18.044 C 19.497 18.107,19.701 18.263,19.849 18.494 C 19.968 18.679,19.980 18.727,19.980 19.003 C 19.980 19.287,19.970 19.322,19.831 19.531 C 19.613 19.859,19.389 19.980,19.000 19.979 C 18.665 19.978,18.526 19.923,18.308 19.705 C 18.104 19.501,18.022 19.300,18.022 19.000 C 18.022 18.334,18.621 17.871,19.260 18.044 " stroke="none" fill-rule="evenodd" fill="black"></path></svg>