<svg xmlns="http://www.w3.org/2000/svg" width="24" height="24" viewBox="0 0 24 24" fill="none" stroke="currentColor" stroke-width="2" stroke-linecap="round" stroke-linejoin="round"><path d="M7.360 3.026 C 6.162 3.208,5.471 3.463,4.598 4.045 C 4.166 4.333,3.397 5.077,3.113 5.480 C 2.372 6.534,1.996 7.723,1.998 9.000 C 2.002 10.533,2.521 11.876,3.549 13.010 C 4.141 13.662,11.355 20.773,11.533 20.880 C 11.671 20.963,11.751 20.980,12.000 20.980 C 12.253 20.980,12.328 20.963,12.480 20.873 C 12.700 20.743,13.801 19.634,13.904 19.440 C 13.957 19.340,13.979 19.214,13.979 19.000 C 13.980 18.745,13.964 18.672,13.872 18.516 C 13.747 18.303,13.550 18.141,13.316 18.058 C 12.945 17.928,12.605 18.019,12.243 18.347 L 11.998 18.569 11.549 18.136 C 9.995 16.639,4.999 11.652,4.822 11.420 C 4.549 11.062,4.387 10.770,4.243 10.374 C 3.870 9.352,3.935 8.162,4.415 7.212 C 4.639 6.769,4.809 6.532,5.150 6.186 C 5.926 5.398,6.890 5.000,8.020 5.001 C 9.190 5.001,10.311 5.532,11.062 6.440 C 11.389 6.834,11.592 6.962,11.937 6.990 C 12.327 7.021,12.555 6.900,12.905 6.477 C 13.406 5.871,14.193 5.357,14.920 5.162 C 16.828 4.648,18.803 5.565,19.626 7.344 C 20.025 8.208,20.089 9.296,19.796 10.240 C 19.667 10.655,19.410 11.131,19.124 11.481 C 18.586 12.141,18.569 12.167,18.530 12.367 C 18.366 13.192,19.191 13.828,19.946 13.459 C 20.105 13.381,20.246 13.259,20.468 13.006 C 21.419 11.924,21.931 10.642,21.989 9.200 C 22.102 6.363,20.086 3.764,17.308 3.164 C 15.509 2.775,13.677 3.197,12.252 4.327 L 12.004 4.524 11.772 4.335 C 10.964 3.676,9.925 3.220,8.860 3.057 C 8.535 3.007,7.611 2.988,7.360 3.026 M15.695 15.057 C 15.466 15.129,15.256 15.299,15.128 15.516 C 15.036 15.672,15.020 15.745,15.021 16.000 C 15.022 16.332,15.101 16.533,15.306 16.728 C 15.785 17.181,16.580 17.046,16.893 16.460 C 17.025 16.211,17.015 15.760,16.872 15.516 C 16.628 15.101,16.150 14.915,15.695 15.057 M20.640 15.068 C 20.485 15.121,20.093 15.495,17.847 17.735 C 16.368 19.209,15.188 20.418,15.127 20.520 C 15.036 20.672,15.020 20.746,15.020 21.000 C 15.020 21.257,15.036 21.327,15.133 21.492 C 15.263 21.714,15.502 21.901,15.736 21.965 C 15.938 22.019,16.266 21.989,16.445 21.899 C 16.630 21.807,21.738 16.706,21.873 16.480 C 21.964 16.328,21.980 16.254,21.980 16.000 C 21.980 15.746,21.963 15.672,21.872 15.516 C 21.617 15.083,21.122 14.903,20.640 15.068 M20.695 20.057 C 20.466 20.129,20.256 20.299,20.128 20.516 C 20.036 20.672,20.020 20.745,20.021 21.000 C 20.022 21.332,20.101 21.533,20.306 21.728 C 20.785 22.181,21.580 22.046,21.893 21.460 C 22.025 21.211,22.015 20.760,21.872 20.516 C 21.628 20.101,21.150 19.915,20.695 20.057 " stroke="none" fill-rule="evenodd" fill="black"></path></svg>