<svg xmlns="http://www.w3.org/2000/svg" width="24" height="24" viewBox="0 0 24 24" fill="none" stroke="currentColor" stroke-width="2" stroke-linecap="round" stroke-linejoin="round"><path d="M2.670 2.061 C 2.448 2.142,2.250 2.309,2.128 2.516 C 2.036 2.672,2.020 2.745,2.021 3.000 C 2.021 3.214,2.043 3.340,2.096 3.440 C 2.136 3.517,2.476 3.889,2.851 4.267 L 3.532 4.955 3.324 5.218 C 2.719 5.988,2.333 6.801,2.116 7.760 C 2.033 8.126,2.021 8.283,2.021 8.980 C 2.020 9.860,2.060 10.139,2.289 10.840 C 2.556 11.662,2.989 12.398,3.586 13.048 C 4.229 13.748,11.362 20.778,11.533 20.880 C 11.672 20.963,11.750 20.980,12.000 20.979 C 12.213 20.979,12.340 20.957,12.440 20.904 C 12.517 20.864,12.900 20.514,13.291 20.126 L 14.001 19.422 14.711 20.127 C 15.101 20.515,15.481 20.862,15.555 20.899 C 15.765 21.005,16.075 21.021,16.325 20.940 C 16.519 20.876,16.610 20.797,17.260 20.134 L 17.980 19.399 19.160 20.582 C 19.809 21.233,20.421 21.814,20.520 21.873 C 20.672 21.964,20.746 21.980,21.000 21.980 C 21.257 21.980,21.327 21.964,21.492 21.867 C 21.968 21.587,22.139 20.967,21.865 20.508 C 21.810 20.416,17.665 16.243,12.653 11.235 C 4.231 2.820,3.525 2.125,3.343 2.065 C 3.107 1.987,2.874 1.986,2.670 2.061 M7.580 3.095 C 7.115 3.315,6.901 3.799,7.049 4.295 C 7.079 4.396,7.176 4.540,7.299 4.666 C 7.531 4.904,7.781 5.000,8.177 5.001 C 8.508 5.001,9.076 5.124,9.459 5.277 C 10.088 5.529,10.610 5.906,11.048 6.427 C 11.395 6.838,11.590 6.962,11.940 6.990 C 12.322 7.021,12.561 6.892,12.912 6.468 C 13.480 5.782,14.290 5.290,15.175 5.093 C 15.568 5.006,16.404 5.009,16.820 5.098 C 18.312 5.419,19.487 6.545,19.858 8.010 C 19.987 8.519,20.022 9.006,19.962 9.468 C 19.909 9.872,19.824 10.232,19.768 10.288 C 19.747 10.309,19.644 10.291,19.516 10.244 C 18.584 9.903,17.524 9.953,16.620 10.382 C 16.370 10.500,16.126 10.661,15.620 11.041 C 15.240 11.326,15.187 11.381,15.096 11.575 C 14.853 12.097,15.098 12.721,15.624 12.918 C 16.091 13.093,16.444 12.982,17.046 12.471 C 17.538 12.053,18.084 11.929,18.719 12.090 C 19.630 12.321,20.200 13.407,19.904 14.352 C 19.822 14.614,19.689 14.823,19.417 15.120 C 19.100 15.466,18.987 15.696,18.987 16.000 C 18.987 16.433,19.272 16.815,19.685 16.938 C 19.945 17.015,20.014 17.015,20.270 16.939 C 20.726 16.804,21.469 15.905,21.743 15.159 C 22.135 14.088,22.065 13.007,21.537 12.007 L 21.362 11.674 21.455 11.487 C 21.507 11.384,21.604 11.138,21.672 10.940 C 22.589 8.258,21.506 5.332,19.050 3.857 C 16.973 2.609,14.313 2.764,12.361 4.246 L 11.999 4.520 11.770 4.333 C 10.745 3.498,9.372 2.999,8.101 3.000 C 7.847 3.001,7.738 3.021,7.580 3.095 M7.731 9.151 L 10.482 11.902 10.339 12.230 C 10.087 12.813,10.028 13.105,10.025 13.780 C 10.023 14.399,10.056 14.604,10.242 15.111 C 10.481 15.762,10.725 16.088,11.747 17.122 L 12.598 17.984 12.301 18.279 L 12.004 18.574 11.552 18.139 C 10.066 16.709,5.073 11.729,4.862 11.467 C 4.253 10.714,3.959 9.775,4.014 8.762 C 4.045 8.177,4.150 7.765,4.397 7.260 C 4.573 6.898,4.898 6.400,4.957 6.400 C 4.970 6.400,6.218 7.638,7.731 9.151 M16.290 18.289 L 16.001 18.578 15.757 18.339 C 15.622 18.208,14.793 17.366,13.914 16.469 C 12.496 15.023,12.302 14.810,12.195 14.581 C 12.059 14.292,11.977 13.838,12.018 13.614 L 12.046 13.466 14.313 15.733 L 16.580 18.000 16.290 18.289 " stroke="none" fill-rule="evenodd" fill="black"></path></svg>