<svg xmlns="http://www.w3.org/2000/svg" width="24" height="24" viewBox="0 0 24 24" fill="none" stroke="currentColor" stroke-width="2" stroke-linecap="round" stroke-linejoin="round"><path d="M7.360 3.026 C 6.162 3.208,5.471 3.463,4.598 4.045 C 4.166 4.333,3.397 5.077,3.113 5.480 C 2.372 6.534,1.996 7.723,1.998 9.000 C 2.002 10.533,2.521 11.876,3.549 13.010 C 4.116 13.635,11.351 20.771,11.520 20.873 C 11.965 21.139,12.592 20.960,12.869 20.489 C 13.017 20.238,13.026 19.833,12.891 19.560 C 12.825 19.427,11.787 18.378,8.956 15.580 C 6.840 13.490,5.005 11.649,4.877 11.489 C 4.250 10.709,3.964 9.818,4.013 8.802 C 4.042 8.189,4.163 7.711,4.415 7.212 C 4.639 6.769,4.809 6.532,5.150 6.186 C 5.926 5.398,6.890 5.000,8.020 5.001 C 9.190 5.001,10.311 5.532,11.062 6.440 C 11.388 6.833,11.592 6.962,11.933 6.990 C 12.305 7.019,12.533 6.909,12.846 6.545 C 13.642 5.621,14.495 5.155,15.609 5.034 C 16.798 4.905,17.964 5.327,18.841 6.203 C 20.204 7.567,20.374 9.800,19.233 11.352 C 18.983 11.691,18.920 11.840,18.920 12.090 C 18.920 12.412,18.996 12.599,19.219 12.822 C 19.457 13.062,19.685 13.143,20.020 13.108 C 20.340 13.075,20.534 12.947,20.803 12.590 C 21.350 11.864,21.695 11.094,21.889 10.168 C 22.017 9.556,22.017 8.401,21.889 7.826 C 21.631 6.670,21.078 5.621,20.311 4.836 C 18.681 3.167,16.307 2.589,14.101 3.326 C 13.395 3.562,12.711 3.935,12.192 4.367 L 12.004 4.524 11.772 4.335 C 10.964 3.676,9.925 3.220,8.860 3.057 C 8.535 3.007,7.611 2.988,7.360 3.026 M18.695 15.057 C 18.466 15.129,18.256 15.299,18.128 15.516 L 18.020 15.700 18.009 17.635 L 17.997 19.571 17.269 18.852 C 16.655 18.247,16.509 18.123,16.343 18.067 C 15.865 17.905,15.383 18.083,15.128 18.516 C 15.036 18.672,15.020 18.745,15.021 19.000 C 15.021 19.212,15.043 19.341,15.095 19.440 C 15.135 19.517,15.891 20.306,16.774 21.194 C 18.528 22.957,18.580 22.999,19.000 22.999 C 19.420 22.999,19.472 22.957,21.226 21.194 C 22.109 20.306,22.865 19.517,22.905 19.440 C 22.957 19.341,22.979 19.212,22.979 19.000 C 22.980 18.745,22.964 18.672,22.872 18.516 C 22.617 18.083,22.135 17.905,21.657 18.067 C 21.491 18.123,21.345 18.247,20.731 18.852 L 20.003 19.571 19.991 17.635 L 19.980 15.700 19.872 15.516 C 19.628 15.101,19.150 14.915,18.695 15.057 " stroke="none" fill-rule="evenodd" fill="black"></path></svg>