<svg xmlns="http://www.w3.org/2000/svg" width="24" height="24" viewBox="0 0 24 24" fill="none" stroke="currentColor" stroke-width="2" stroke-linecap="round" stroke-linejoin="round"><path d="M7.100 3.065 C 6.061 3.227,5.201 3.591,4.361 4.223 C 3.214 5.087,2.418 6.358,2.095 7.840 C 1.989 8.327,1.988 9.635,2.094 10.120 C 2.332 11.211,2.779 12.140,3.424 12.880 C 3.549 13.023,5.183 14.657,7.055 16.510 C 9.402 18.833,10.513 19.906,10.631 19.964 C 11.126 20.207,11.760 19.952,11.982 19.421 C 12.064 19.226,12.054 18.855,11.963 18.653 C 11.891 18.497,10.585 17.182,6.125 12.781 C 5.567 12.231,5.006 11.649,4.877 11.489 C 4.264 10.727,3.968 9.827,4.012 8.860 C 4.063 7.722,4.463 6.836,5.265 6.080 C 5.761 5.612,6.374 5.275,7.025 5.112 C 7.540 4.982,8.474 4.984,8.958 5.115 C 9.823 5.348,10.526 5.792,11.065 6.443 C 11.389 6.835,11.592 6.962,11.937 6.990 C 12.327 7.021,12.555 6.900,12.905 6.477 C 13.406 5.871,14.193 5.357,14.920 5.162 C 16.828 4.648,18.803 5.565,19.626 7.344 C 19.859 7.849,19.971 8.373,19.972 8.960 C 19.973 9.691,19.861 10.201,19.569 10.796 C 19.365 11.214,19.138 11.509,18.599 12.060 C 18.340 12.324,18.096 12.603,18.056 12.680 C 17.949 12.884,17.955 13.328,18.068 13.540 C 18.327 14.026,18.884 14.224,19.377 14.006 C 19.606 13.904,20.451 13.076,20.787 12.625 C 21.741 11.339,22.165 9.700,21.937 8.169 C 21.570 5.694,19.710 3.683,17.308 3.164 C 15.508 2.775,13.677 3.197,12.251 4.328 L 12.002 4.525 11.731 4.307 C 10.457 3.284,8.708 2.815,7.100 3.065 M16.640 16.069 C 16.492 16.121,16.265 16.325,15.347 17.236 C 14.734 17.843,14.185 18.421,14.127 18.520 C 14.037 18.672,14.020 18.747,14.020 19.000 C 14.020 19.254,14.036 19.328,14.127 19.480 C 14.260 19.703,16.367 21.803,16.560 21.905 C 16.659 21.957,16.787 21.979,17.000 21.979 C 17.258 21.980,17.327 21.964,17.492 21.867 C 17.714 21.737,17.901 21.498,17.965 21.264 C 18.019 21.061,17.989 20.733,17.899 20.555 C 17.861 20.481,17.514 20.101,17.127 19.710 L 16.423 19.000 17.127 18.290 C 17.514 17.899,17.864 17.517,17.904 17.440 C 17.957 17.340,17.979 17.213,17.979 17.000 C 17.980 16.745,17.964 16.672,17.872 16.516 C 17.617 16.083,17.120 15.902,16.640 16.069 M19.670 16.061 C 19.448 16.142,19.250 16.309,19.128 16.516 C 19.036 16.672,19.020 16.745,19.021 17.000 C 19.021 17.213,19.043 17.340,19.096 17.440 C 19.136 17.517,19.486 17.899,19.873 18.290 L 20.577 19.000 19.873 19.710 C 19.486 20.101,19.139 20.481,19.101 20.555 C 18.872 21.008,19.056 21.601,19.508 21.867 C 19.673 21.964,19.742 21.980,20.000 21.979 C 20.213 21.979,20.341 21.957,20.440 21.905 C 20.633 21.803,22.740 19.703,22.873 19.480 C 22.964 19.328,22.980 19.254,22.980 19.000 C 22.980 18.747,22.963 18.672,22.873 18.520 C 22.815 18.421,22.266 17.843,21.653 17.236 C 20.680 16.271,20.515 16.124,20.343 16.066 C 20.108 15.987,19.875 15.985,19.670 16.061 " stroke="none" fill-rule="evenodd" fill="black"></path></svg>