<svg xmlns="http://www.w3.org/2000/svg" width="24" height="24" viewBox="0 0 24 24" fill="none" stroke="currentColor" stroke-width="2" stroke-linecap="round" stroke-linejoin="round"><path d="M7.360 3.026 C 6.162 3.208,5.471 3.463,4.598 4.045 C 4.166 4.333,3.397 5.077,3.113 5.480 C 2.372 6.534,1.996 7.723,1.998 9.000 C 2.002 10.533,2.521 11.876,3.549 13.010 C 4.141 13.662,11.355 20.773,11.533 20.880 C 11.671 20.963,11.751 20.980,12.000 20.980 C 12.253 20.980,12.328 20.963,12.480 20.873 C 12.700 20.743,13.801 19.634,13.904 19.440 C 13.957 19.340,13.979 19.214,13.979 19.000 C 13.980 18.745,13.964 18.672,13.872 18.516 C 13.747 18.303,13.550 18.141,13.316 18.058 C 12.945 17.928,12.605 18.019,12.243 18.347 L 11.998 18.569 11.549 18.136 C 9.995 16.639,4.999 11.652,4.822 11.420 C 4.549 11.062,4.387 10.770,4.243 10.374 C 3.870 9.352,3.935 8.162,4.415 7.212 C 4.639 6.769,4.809 6.532,5.150 6.186 C 5.926 5.398,6.890 5.000,8.020 5.001 C 9.190 5.001,10.311 5.532,11.062 6.440 C 11.389 6.834,11.592 6.962,11.937 6.990 C 12.327 7.021,12.551 6.902,12.910 6.472 C 13.707 5.517,14.755 5.032,16.020 5.030 C 16.847 5.029,17.505 5.229,18.218 5.697 C 18.643 5.976,18.863 6.176,19.132 6.529 C 19.875 7.503,20.159 8.729,19.899 9.840 C 19.737 10.534,19.783 10.849,20.090 11.150 C 20.639 11.688,21.548 11.436,21.759 10.687 C 21.929 10.084,21.974 9.732,21.973 9.000 C 21.973 8.390,21.957 8.190,21.885 7.860 C 21.611 6.604,21.096 5.651,20.222 4.779 C 18.955 3.514,17.279 2.897,15.502 3.041 C 14.274 3.141,13.201 3.580,12.148 4.413 L 12.005 4.525 11.773 4.336 C 10.964 3.676,9.926 3.220,8.860 3.057 C 8.535 3.007,7.611 2.988,7.360 3.026 M18.600 12.584 C 18.399 12.671,18.205 12.869,18.095 13.100 C 18.018 13.263,18.001 13.365,18.000 13.650 L 18.000 14.000 16.946 14.000 C 15.797 14.000,15.644 14.022,15.382 14.221 C 15.302 14.282,15.187 14.415,15.128 14.516 C 15.036 14.672,15.020 14.746,15.020 15.003 C 15.020 15.271,15.034 15.329,15.141 15.503 C 15.288 15.742,15.578 15.946,15.821 15.982 L 16.000 16.009 16.000 17.998 L 16.000 19.987 15.786 20.035 C 15.515 20.096,15.270 20.275,15.129 20.514 C 15.036 20.672,15.020 20.745,15.020 21.000 C 15.020 21.256,15.036 21.328,15.131 21.489 C 15.192 21.592,15.304 21.725,15.381 21.783 C 15.643 21.983,15.738 21.996,16.910 21.998 L 18.000 22.000 18.000 22.350 C 18.001 22.635,18.018 22.737,18.095 22.900 C 18.276 23.281,18.595 23.488,19.000 23.488 C 19.405 23.488,19.724 23.281,19.905 22.900 C 19.982 22.735,19.999 22.635,20.000 22.334 L 20.000 21.969 20.289 21.874 C 21.001 21.642,21.604 21.048,21.868 20.320 C 21.965 20.052,21.976 19.965,21.976 19.500 C 21.976 19.035,21.965 18.949,21.868 18.684 C 21.809 18.521,21.705 18.301,21.636 18.194 L 21.512 18.000 21.636 17.806 C 21.705 17.699,21.809 17.479,21.868 17.316 C 21.965 17.051,21.976 16.965,21.976 16.500 C 21.976 16.035,21.965 15.948,21.868 15.680 C 21.599 14.937,20.984 14.347,20.241 14.118 L 20.020 14.049 19.999 13.635 C 19.982 13.318,19.957 13.182,19.892 13.060 C 19.783 12.854,19.580 12.661,19.391 12.582 C 19.203 12.503,18.783 12.504,18.600 12.584 M19.724 16.062 C 19.872 16.139,20.000 16.341,20.000 16.500 C 20.000 16.566,19.965 16.678,19.922 16.748 C 19.780 16.980,19.693 17.000,18.802 17.000 L 18.000 17.000 18.000 16.500 L 18.000 16.000 18.802 16.000 C 19.448 16.000,19.627 16.012,19.724 16.062 M19.724 19.062 C 19.872 19.139,20.000 19.341,20.000 19.500 C 20.000 19.566,19.965 19.678,19.922 19.748 C 19.780 19.980,19.693 20.000,18.802 20.000 L 18.000 20.000 18.000 19.500 L 18.000 19.000 18.802 19.000 C 19.448 19.000,19.627 19.012,19.724 19.062 " stroke="none" fill-rule="evenodd" fill="black"></path></svg>