<svg xmlns="http://www.w3.org/2000/svg" width="24" height="24" viewBox="0 0 24 24" fill="none" stroke="currentColor" stroke-width="2" stroke-linecap="round" stroke-linejoin="round"><path d="M2.670 2.061 C 2.448 2.142,2.250 2.309,2.128 2.516 C 2.037 2.672,2.020 2.746,2.020 3.000 C 2.020 3.409,2.091 3.517,2.877 4.300 C 3.231 4.651,3.520 4.951,3.520 4.966 C 3.520 4.981,3.433 5.098,3.327 5.227 C 2.124 6.680,1.695 8.709,2.201 10.560 C 2.464 11.520,2.873 12.265,3.549 13.010 C 4.141 13.662,11.355 20.773,11.533 20.880 C 11.672 20.963,11.750 20.980,12.000 20.979 C 12.212 20.979,12.341 20.957,12.440 20.905 C 12.517 20.865,13.350 20.064,14.290 19.126 L 16.000 17.421 18.210 19.626 C 19.426 20.839,20.483 21.865,20.560 21.905 C 20.659 21.957,20.788 21.979,21.000 21.979 C 21.258 21.980,21.327 21.964,21.492 21.867 C 21.968 21.587,22.139 20.967,21.865 20.508 C 21.810 20.416,17.665 16.243,12.653 11.235 C 4.231 2.820,3.525 2.125,3.343 2.065 C 3.107 1.987,2.874 1.986,2.670 2.061 M7.695 3.054 C 7.048 3.268,6.799 4.040,7.198 4.591 C 7.393 4.860,7.610 4.960,8.089 5.003 C 8.315 5.023,8.610 5.058,8.744 5.080 C 9.585 5.219,10.461 5.730,11.055 6.429 C 11.446 6.888,11.603 6.980,12.000 6.980 C 12.382 6.980,12.586 6.869,12.878 6.503 C 14.096 4.972,16.288 4.563,17.990 5.549 C 19.720 6.552,20.437 8.645,19.693 10.515 C 19.427 11.183,19.155 11.525,18.077 12.546 C 17.077 13.492,17.020 13.572,17.020 14.020 C 17.020 14.254,17.038 14.331,17.131 14.489 C 17.408 14.960,18.036 15.139,18.479 14.873 C 18.670 14.758,20.074 13.429,20.473 12.985 C 21.184 12.194,21.647 11.266,21.887 10.150 C 22.014 9.557,22.015 8.437,21.888 7.854 C 21.713 7.045,21.400 6.295,20.966 5.640 C 20.653 5.168,19.846 4.364,19.362 4.044 C 18.636 3.562,17.847 3.243,17.020 3.098 C 16.473 3.002,15.475 3.002,14.960 3.098 C 13.950 3.287,12.924 3.758,12.192 4.368 L 12.004 4.524 11.772 4.335 C 11.050 3.747,10.128 3.316,9.176 3.123 C 8.643 3.015,7.916 2.981,7.695 3.054 M9.780 11.200 L 14.580 16.000 13.300 17.280 C 12.596 17.984,12.009 18.560,11.994 18.560 C 11.941 18.560,4.993 11.649,4.818 11.422 C 4.245 10.676,3.968 9.784,4.010 8.823 C 4.037 8.220,4.144 7.787,4.397 7.260 C 4.568 6.902,4.895 6.400,4.957 6.400 C 4.970 6.400,7.140 8.560,9.780 11.200 " stroke="none" fill-rule="evenodd" fill="black"></path></svg>