<svg xmlns="http://www.w3.org/2000/svg" width="24" height="24" viewBox="0 0 24 24" fill="none" stroke="currentColor" stroke-width="2" stroke-linecap="round" stroke-linejoin="round"><path d="M7.360 3.026 C 6.162 3.208,5.471 3.463,4.598 4.045 C 4.166 4.333,3.397 5.077,3.113 5.480 C 2.372 6.534,1.996 7.723,1.998 9.000 C 2.002 10.533,2.521 11.876,3.549 13.010 C 4.089 13.605,11.347 20.768,11.512 20.869 C 11.801 21.045,12.235 21.036,12.514 20.848 C 12.785 20.664,15.830 17.616,15.928 17.429 C 16.049 17.199,16.051 16.805,15.933 16.579 C 15.825 16.376,15.665 16.215,15.461 16.107 C 15.246 15.994,14.802 15.989,14.600 16.097 C 14.523 16.138,13.912 16.709,13.243 17.366 C 12.573 18.023,12.012 18.560,11.996 18.560 C 11.941 18.560,4.997 11.655,4.818 11.422 C 3.901 10.229,3.740 8.547,4.415 7.212 C 4.639 6.769,4.809 6.532,5.150 6.186 C 5.926 5.398,6.890 5.000,8.020 5.001 C 9.190 5.001,10.311 5.532,11.062 6.440 C 11.388 6.833,11.592 6.962,11.933 6.990 C 12.312 7.020,12.535 6.909,12.868 6.524 C 13.330 5.991,13.654 5.734,14.229 5.445 C 14.754 5.182,15.171 5.077,15.793 5.051 C 16.989 5.001,17.991 5.387,18.822 6.218 C 19.815 7.212,20.200 8.661,19.841 10.060 C 19.739 10.460,19.524 10.911,19.209 11.391 C 18.950 11.784,18.887 11.990,18.939 12.268 C 19.091 13.079,20.079 13.383,20.638 12.790 C 20.999 12.408,21.456 11.586,21.676 10.922 C 21.892 10.269,21.975 9.743,21.976 9.020 C 21.977 8.277,21.889 7.746,21.656 7.071 C 20.968 5.083,19.305 3.613,17.228 3.156 C 16.697 3.039,15.635 3.009,15.094 3.095 C 14.073 3.259,13.127 3.662,12.320 4.277 L 12.000 4.521 11.770 4.334 C 10.964 3.676,9.924 3.220,8.860 3.057 C 8.535 3.007,7.611 2.988,7.360 3.026 M18.695 15.057 C 18.466 15.129,18.256 15.299,18.128 15.516 L 18.020 15.700 18.020 17.503 L 18.020 19.306 18.141 19.503 C 18.543 20.156,19.457 20.156,19.859 19.503 L 19.980 19.306 19.980 17.503 L 19.980 15.700 19.872 15.516 C 19.628 15.101,19.150 14.915,18.695 15.057 M18.695 21.057 C 18.466 21.129,18.256 21.299,18.128 21.516 C 18.036 21.672,18.020 21.745,18.021 22.000 C 18.022 22.332,18.101 22.533,18.306 22.728 C 18.785 23.181,19.580 23.046,19.893 22.460 C 20.025 22.211,20.015 21.760,19.872 21.516 C 19.628 21.101,19.150 20.915,18.695 21.057 " stroke="none" fill-rule="evenodd" fill="black"></path></svg>