<svg xmlns="http://www.w3.org/2000/svg" width="24" height="24" viewBox="0 0 24 24" fill="none" stroke="currentColor" stroke-width="2" stroke-linecap="round" stroke-linejoin="round"><path d="M7.360 3.026 C 6.162 3.208,5.471 3.463,4.598 4.045 C 4.166 4.333,3.397 5.077,3.113 5.480 C 2.065 6.971,1.730 8.837,2.201 10.560 C 2.461 11.509,2.870 12.258,3.528 12.988 C 4.056 13.573,10.350 19.770,10.521 19.873 C 10.964 20.139,11.592 19.960,11.869 19.489 C 12.017 19.238,12.026 18.833,11.891 18.560 C 11.826 18.428,10.908 17.497,8.418 15.040 C 6.557 13.203,4.938 11.574,4.821 11.420 C 4.548 11.061,4.387 10.769,4.243 10.374 C 3.870 9.352,3.935 8.162,4.415 7.212 C 4.639 6.769,4.809 6.532,5.150 6.186 C 5.926 5.398,6.890 5.000,8.020 5.001 C 9.190 5.001,10.311 5.532,11.062 6.440 C 11.389 6.834,11.592 6.962,11.937 6.990 C 12.327 7.021,12.555 6.900,12.905 6.477 C 13.406 5.871,14.193 5.357,14.920 5.162 C 16.828 4.648,18.803 5.565,19.626 7.344 C 20.025 8.208,20.089 9.298,19.796 10.240 C 19.675 10.626,19.449 11.062,19.194 11.400 C 19.066 11.570,18.271 12.377,17.363 13.260 C 16.480 14.118,15.716 14.884,15.664 14.962 C 15.537 15.153,15.482 15.433,15.525 15.666 C 15.655 16.360,16.416 16.710,17.008 16.349 C 17.178 16.245,20.092 13.421,20.496 12.969 C 21.409 11.946,21.932 10.627,21.989 9.200 C 22.102 6.363,20.086 3.764,17.308 3.164 C 15.509 2.775,13.677 3.197,12.252 4.327 L 12.004 4.524 11.772 4.335 C 10.964 3.676,9.925 3.220,8.860 3.057 C 8.535 3.007,7.611 2.988,7.360 3.026 M20.640 16.068 C 20.488 16.121,20.196 16.394,18.731 17.853 L 17.002 19.575 16.271 18.855 C 15.655 18.247,15.509 18.123,15.343 18.067 C 14.865 17.905,14.383 18.083,14.128 18.516 C 14.036 18.672,14.020 18.745,14.021 19.000 C 14.021 19.213,14.043 19.341,14.095 19.440 C 14.197 19.633,16.297 21.740,16.520 21.873 C 16.673 21.964,16.745 21.980,17.000 21.979 C 17.212 21.979,17.341 21.957,17.440 21.905 C 17.632 21.805,21.739 17.705,21.873 17.480 C 21.964 17.328,21.980 17.254,21.980 17.000 C 21.980 16.746,21.963 16.672,21.872 16.516 C 21.617 16.083,21.121 15.903,20.640 16.068 " stroke="none" fill-rule="evenodd" fill="black"></path></svg>