<svg xmlns="http://www.w3.org/2000/svg" width="24" height="24" viewBox="0 0 24 24" fill="none" stroke="currentColor" stroke-width="2" stroke-linecap="round" stroke-linejoin="round"><path d="M11.080 2.045 C 9.507 2.184,7.883 2.751,6.540 3.630 C 5.905 4.045,5.499 4.378,4.919 4.958 C 2.953 6.926,1.919 9.544,2.013 12.320 C 2.084 14.439,2.752 16.328,4.033 18.040 C 4.430 18.570,5.305 19.464,5.800 19.847 C 7.242 20.961,8.787 21.624,10.600 21.907 C 11.247 22.008,12.753 22.008,13.400 21.907 C 15.638 21.557,17.504 20.620,19.062 19.062 C 20.620 17.504,21.557 15.638,21.907 13.400 C 22.008 12.753,22.008 11.247,21.907 10.600 C 21.624 8.786,20.959 7.238,19.847 5.800 C 19.510 5.365,18.639 4.494,18.200 4.154 C 16.133 2.555,13.646 1.818,11.080 2.045 M12.734 4.041 C 14.574 4.216,16.228 4.976,17.554 6.256 C 20.043 8.658,20.702 12.394,19.183 15.499 C 18.749 16.387,18.223 17.105,17.496 17.801 C 16.876 18.394,16.262 18.819,15.471 19.200 C 13.267 20.265,10.733 20.265,8.529 19.200 C 7.477 18.693,6.612 18.015,5.847 17.100 C 3.848 14.711,3.440 11.302,4.816 8.500 C 6.162 5.760,8.867 4.049,11.920 4.005 C 12.129 4.003,12.495 4.019,12.734 4.041 M11.440 8.058 C 10.838 8.187,10.375 8.431,9.957 8.839 C 9.601 9.186,9.510 9.362,9.510 9.700 C 9.510 10.008,9.633 10.278,9.855 10.455 C 10.079 10.633,10.247 10.694,10.514 10.691 C 10.804 10.689,11.001 10.601,11.255 10.362 C 11.598 10.041,11.870 9.951,12.236 10.039 C 12.926 10.205,13.220 11.013,12.802 11.591 C 12.631 11.827,12.387 11.956,12.034 11.997 C 11.872 12.016,11.689 12.051,11.627 12.076 C 11.437 12.150,11.241 12.323,11.128 12.516 C 11.037 12.672,11.020 12.746,11.020 13.000 C 11.020 13.257,11.036 13.327,11.133 13.492 C 11.263 13.714,11.502 13.901,11.736 13.965 C 11.935 14.019,12.445 13.988,12.780 13.901 C 13.554 13.701,14.315 13.083,14.680 12.360 C 14.988 11.750,15.084 10.950,14.925 10.322 C 14.755 9.648,14.355 9.016,13.863 8.646 C 13.575 8.428,13.095 8.187,12.780 8.101 C 12.447 8.010,11.765 7.988,11.440 8.058 M11.695 15.057 C 11.466 15.129,11.256 15.299,11.128 15.516 C 11.036 15.672,11.020 15.745,11.021 16.000 C 11.022 16.332,11.101 16.533,11.306 16.728 C 11.785 17.181,12.580 17.046,12.893 16.460 C 13.025 16.211,13.015 15.760,12.872 15.516 C 12.628 15.101,12.150 14.915,11.695 15.057 " stroke="none" fill-rule="evenodd" fill="black"></path></svg>