<svg xmlns="http://www.w3.org/2000/svg" width="24" height="24" viewBox="0 0 24 24" fill="none" stroke="currentColor" stroke-width="2" stroke-linecap="round" stroke-linejoin="round"><path d="M11.360 1.743 C 10.997 1.820,10.351 2.154,10.057 2.417 C 9.924 2.536,9.724 2.765,9.614 2.927 C 9.333 3.337,1.373 16.642,1.258 16.894 C 1.083 17.275,1.021 17.588,1.021 18.080 C 1.021 18.622,1.087 18.912,1.318 19.380 C 1.603 19.956,2.045 20.398,2.620 20.682 C 3.280 21.007,2.416 20.980,12.000 20.980 C 21.583 20.980,20.719 21.007,21.380 20.682 C 21.947 20.403,22.401 19.949,22.682 19.380 C 22.913 18.912,22.979 18.622,22.979 18.080 C 22.979 17.589,22.917 17.275,22.744 16.897 C 22.629 16.647,14.665 3.334,14.386 2.927 C 14.276 2.765,14.076 2.536,13.943 2.417 C 13.633 2.140,13.002 1.820,12.607 1.739 C 12.252 1.667,11.711 1.669,11.360 1.743 M12.380 3.756 C 12.468 3.797,12.588 3.882,12.647 3.945 C 12.789 4.099,20.880 17.616,20.952 17.820 C 21.108 18.266,20.805 18.829,20.340 18.956 C 20.114 19.018,3.907 19.018,3.663 18.956 C 3.165 18.831,2.862 18.202,3.076 17.740 C 3.207 17.457,11.243 4.064,11.353 3.945 C 11.508 3.778,11.744 3.682,12.000 3.682 C 12.130 3.682,12.286 3.712,12.380 3.756 M11.440 8.058 C 10.838 8.187,10.375 8.431,9.957 8.839 C 9.601 9.186,9.510 9.362,9.510 9.700 C 9.510 10.008,9.633 10.278,9.855 10.455 C 10.079 10.633,10.247 10.694,10.514 10.691 C 10.804 10.689,11.001 10.601,11.255 10.362 C 11.598 10.041,11.870 9.951,12.236 10.039 C 12.926 10.205,13.220 11.013,12.802 11.591 C 12.631 11.827,12.387 11.956,12.034 11.997 C 11.872 12.016,11.689 12.051,11.627 12.076 C 11.437 12.150,11.241 12.323,11.128 12.516 C 11.037 12.672,11.020 12.746,11.020 13.000 C 11.020 13.257,11.036 13.327,11.133 13.492 C 11.263 13.714,11.502 13.901,11.736 13.965 C 11.935 14.019,12.445 13.988,12.780 13.901 C 13.554 13.701,14.315 13.083,14.680 12.360 C 14.988 11.750,15.084 10.950,14.925 10.322 C 14.755 9.648,14.355 9.016,13.863 8.646 C 13.575 8.428,13.095 8.187,12.780 8.101 C 12.447 8.010,11.765 7.988,11.440 8.058 M11.695 15.057 C 11.466 15.129,11.256 15.299,11.128 15.516 C 11.036 15.672,11.020 15.745,11.021 16.000 C 11.022 16.332,11.101 16.533,11.306 16.728 C 11.785 17.181,12.580 17.046,12.893 16.460 C 13.025 16.211,13.015 15.760,12.872 15.516 C 12.628 15.101,12.150 14.915,11.695 15.057 " stroke="none" fill-rule="evenodd" fill="black"></path></svg>