<svg xmlns="http://www.w3.org/2000/svg" width="24" height="24" viewBox="0 0 24 24" fill="none" stroke="currentColor" stroke-width="2" stroke-linecap="round" stroke-linejoin="round"><path d="M11.490 1.044 C 11.375 1.064,11.159 1.122,11.010 1.175 C 10.411 1.387,4.956 3.758,4.736 3.902 C 4.399 4.122,4.007 4.539,3.814 4.884 C 3.722 5.047,3.080 6.512,2.386 8.140 C 0.984 11.430,0.970 11.471,1.013 12.159 C 1.026 12.368,1.065 12.642,1.099 12.766 C 1.191 13.105,3.658 18.857,3.848 19.178 C 4.060 19.534,4.469 19.943,4.822 20.150 C 4.975 20.240,6.450 20.890,8.100 21.594 C 11.263 22.945,11.415 23.000,12.000 23.000 C 12.307 23.000,12.785 22.914,13.028 22.816 C 14.403 22.259,19.046 20.238,19.242 20.110 C 19.562 19.903,19.893 19.575,20.099 19.262 C 20.225 19.069,22.180 14.594,22.743 13.208 C 22.996 12.585,23.059 12.004,22.939 11.420 C 22.865 11.061,23.007 11.412,21.516 7.918 C 20.778 6.188,20.210 4.911,20.111 4.758 C 19.908 4.445,19.579 4.114,19.263 3.904 C 19.045 3.759,13.614 1.396,12.996 1.177 C 12.523 1.010,11.984 0.962,11.490 1.044 M15.200 4.282 C 17.804 5.396,18.158 5.558,18.300 5.700 C 18.442 5.842,18.605 6.198,19.720 8.800 C 20.943 11.653,20.980 11.748,20.980 12.000 C 20.980 12.252,20.943 12.347,19.720 15.200 C 18.606 17.799,18.441 18.159,18.299 18.302 C 18.156 18.446,17.828 18.596,15.279 19.686 C 13.707 20.359,12.359 20.930,12.284 20.955 C 12.209 20.980,12.081 21.000,12.000 21.000 C 11.919 21.000,11.791 20.980,11.716 20.955 C 11.641 20.930,10.293 20.359,8.721 19.686 C 6.172 18.596,5.844 18.446,5.701 18.302 C 5.559 18.159,5.394 17.799,4.280 15.200 C 3.057 12.347,3.020 12.252,3.020 12.000 C 3.020 11.748,3.057 11.653,4.280 8.800 C 5.395 6.198,5.558 5.842,5.700 5.700 C 5.842 5.558,6.191 5.399,8.780 4.294 C 10.386 3.608,11.727 3.037,11.760 3.025 C 11.793 3.012,11.919 3.007,12.040 3.013 C 12.227 3.022,12.698 3.211,15.200 4.282 M11.440 8.058 C 10.838 8.187,10.375 8.431,9.957 8.839 C 9.601 9.186,9.510 9.362,9.510 9.700 C 9.510 10.008,9.633 10.278,9.855 10.455 C 10.079 10.633,10.247 10.694,10.514 10.691 C 10.804 10.689,11.001 10.601,11.255 10.362 C 11.598 10.041,11.870 9.951,12.236 10.039 C 12.926 10.205,13.220 11.013,12.802 11.591 C 12.631 11.827,12.387 11.956,12.034 11.997 C 11.872 12.016,11.689 12.051,11.627 12.076 C 11.437 12.150,11.241 12.323,11.128 12.516 C 11.037 12.672,11.020 12.746,11.020 13.000 C 11.020 13.257,11.036 13.327,11.133 13.492 C 11.263 13.714,11.502 13.901,11.736 13.965 C 11.935 14.019,12.445 13.988,12.780 13.901 C 13.554 13.701,14.315 13.083,14.680 12.360 C 14.988 11.750,15.084 10.950,14.925 10.322 C 14.755 9.648,14.355 9.016,13.863 8.646 C 13.575 8.428,13.095 8.187,12.780 8.101 C 12.447 8.010,11.765 7.988,11.440 8.058 M11.695 15.057 C 11.466 15.129,11.256 15.299,11.128 15.516 C 11.036 15.672,11.020 15.745,11.021 16.000 C 11.022 16.332,11.101 16.533,11.306 16.728 C 11.785 17.181,12.580 17.046,12.893 16.460 C 13.025 16.211,13.015 15.760,12.872 15.516 C 12.628 15.101,12.150 14.915,11.695 15.057 " stroke="none" fill-rule="evenodd" fill="black"></path></svg>