<svg xmlns="http://www.w3.org/2000/svg" width="24" height="24" viewBox="0 0 24 24" fill="none" stroke="currentColor" stroke-width="2" stroke-linecap="round" stroke-linejoin="round"><path d="M10.349 2.044 C 7.535 2.178,5.738 2.713,4.406 3.814 C 3.787 4.326,3.247 5.075,2.885 5.924 C 2.566 6.671,2.342 7.527,2.205 8.520 C 2.051 9.633,2.021 10.208,2.021 12.000 C 2.021 13.792,2.051 14.367,2.205 15.480 C 2.744 19.396,4.610 21.251,8.560 21.800 C 9.623 21.948,10.220 21.979,12.000 21.979 C 13.780 21.979,14.377 21.948,15.440 21.800 C 16.241 21.689,16.753 21.574,17.401 21.361 C 20.018 20.502,21.344 18.717,21.800 15.440 C 21.948 14.377,21.979 13.780,21.979 12.000 C 21.979 10.220,21.948 9.623,21.800 8.560 C 21.494 6.357,20.759 4.778,19.594 3.814 C 18.657 3.040,17.469 2.539,15.960 2.283 C 14.520 2.039,12.378 1.947,10.349 2.044 M13.500 4.041 C 16.040 4.168,17.512 4.591,18.435 5.458 C 19.509 6.468,19.999 8.517,19.999 12.000 C 19.999 15.490,19.511 17.527,18.430 18.548 C 17.356 19.562,15.410 20.000,11.992 20.000 C 8.581 19.999,6.644 19.561,5.570 18.548 C 4.489 17.527,4.001 15.490,4.001 12.000 C 4.001 10.005,4.176 8.385,4.505 7.320 C 5.052 5.555,6.056 4.719,8.129 4.302 C 9.412 4.045,11.521 3.942,13.500 4.041 M11.440 8.058 C 10.838 8.187,10.375 8.431,9.957 8.839 C 9.601 9.186,9.510 9.362,9.510 9.700 C 9.510 10.008,9.633 10.278,9.855 10.455 C 10.079 10.633,10.247 10.694,10.514 10.691 C 10.804 10.689,11.001 10.601,11.255 10.362 C 11.598 10.041,11.870 9.951,12.236 10.039 C 12.926 10.205,13.220 11.013,12.802 11.591 C 12.631 11.827,12.387 11.956,12.034 11.997 C 11.872 12.016,11.689 12.051,11.627 12.076 C 11.437 12.150,11.241 12.323,11.128 12.516 C 11.037 12.672,11.020 12.746,11.020 13.000 C 11.020 13.257,11.036 13.327,11.133 13.492 C 11.263 13.714,11.502 13.901,11.736 13.965 C 11.935 14.019,12.445 13.988,12.780 13.901 C 13.554 13.701,14.315 13.083,14.680 12.360 C 14.988 11.750,15.084 10.950,14.925 10.322 C 14.755 9.648,14.355 9.016,13.863 8.646 C 13.575 8.428,13.095 8.187,12.780 8.101 C 12.447 8.010,11.765 7.988,11.440 8.058 M11.695 15.057 C 11.466 15.129,11.256 15.299,11.128 15.516 C 11.036 15.672,11.020 15.745,11.021 16.000 C 11.022 16.332,11.101 16.533,11.306 16.728 C 11.785 17.181,12.580 17.046,12.893 16.460 C 13.025 16.211,13.015 15.760,12.872 15.516 C 12.628 15.101,12.150 14.915,11.695 15.057 " stroke="none" fill-rule="evenodd" fill="black"></path></svg>