<svg xmlns="http://www.w3.org/2000/svg" width="24" height="24" viewBox="0 0 24 24" fill="none" stroke="currentColor" stroke-width="2" stroke-linecap="round" stroke-linejoin="round"><path d="M2.670 2.061 C 2.448 2.142,2.250 2.309,2.128 2.516 C 2.036 2.672,2.020 2.745,2.021 3.000 C 2.021 3.213,2.043 3.341,2.095 3.440 C 2.136 3.517,2.637 4.050,3.208 4.625 L 4.248 5.670 3.965 6.051 C 2.992 7.362,2.353 8.914,2.093 10.600 C 2.040 10.943,2.022 11.298,2.022 12.000 C 2.022 13.038,2.071 13.479,2.285 14.355 C 2.727 16.167,3.610 17.732,4.939 19.061 C 6.490 20.613,8.383 21.564,10.600 21.907 C 11.245 22.007,12.755 22.007,13.400 21.907 C 15.086 21.647,16.638 21.008,17.949 20.035 L 18.330 19.752 19.375 20.792 C 19.950 21.363,20.483 21.864,20.560 21.905 C 20.659 21.957,20.787 21.979,21.000 21.979 C 21.258 21.980,21.327 21.964,21.492 21.867 C 21.968 21.587,22.139 20.967,21.865 20.508 C 21.810 20.416,17.665 16.243,12.653 11.235 C 4.231 2.820,3.525 2.125,3.343 2.065 C 3.107 1.987,2.874 1.986,2.670 2.061 M11.080 2.043 C 9.896 2.162,8.747 2.480,7.713 2.974 C 7.268 3.187,7.111 3.344,7.014 3.676 C 6.827 4.316,7.292 4.936,7.960 4.938 C 8.187 4.938,8.273 4.914,8.635 4.746 C 10.401 3.929,12.306 3.781,14.226 4.313 C 16.354 4.903,18.236 6.496,19.219 8.540 C 19.970 10.102,20.191 11.987,19.824 13.704 C 19.727 14.159,19.528 14.743,19.285 15.280 C 19.079 15.737,19.060 15.804,19.062 16.060 C 19.064 16.490,19.252 16.781,19.640 16.957 C 20.001 17.120,20.499 17.022,20.768 16.735 C 20.894 16.601,21.189 15.983,21.386 15.440 C 22.211 13.171,22.205 10.794,21.369 8.500 C 21.190 8.010,20.695 7.019,20.399 6.560 C 18.850 4.157,16.203 2.483,13.340 2.096 C 12.786 2.021,11.580 1.993,11.080 2.043 M11.640 6.003 C 11.286 6.040,10.768 6.197,10.587 6.321 C 10.096 6.657,10.019 7.404,10.432 7.819 C 10.715 8.103,11.017 8.187,11.414 8.093 C 11.879 7.982,12.073 7.963,12.324 8.004 C 12.990 8.111,13.517 8.636,13.639 9.315 C 13.688 9.586,13.675 9.725,13.556 10.194 C 13.473 10.519,13.494 10.713,13.641 11.001 C 13.860 11.432,14.451 11.609,14.931 11.389 C 15.211 11.261,15.366 11.056,15.497 10.643 C 15.753 9.831,15.723 9.043,15.405 8.219 C 15.027 7.243,14.087 6.398,13.072 6.121 C 12.807 6.049,12.147 5.953,12.000 5.966 C 11.967 5.968,11.805 5.985,11.640 6.003 M8.415 9.835 L 11.129 12.549 11.064 12.832 C 10.989 13.164,10.982 13.531,11.045 13.784 C 11.103 14.014,11.382 14.328,11.610 14.420 C 11.956 14.559,12.452 14.475,12.658 14.244 L 12.736 14.156 14.808 16.228 C 15.948 17.367,16.880 18.312,16.880 18.328 C 16.880 18.392,15.945 18.972,15.480 19.197 C 13.265 20.265,10.737 20.267,8.529 19.200 C 7.738 18.819,7.124 18.394,6.504 17.801 C 5.777 17.105,5.251 16.387,4.817 15.499 C 3.736 13.290,3.736 10.714,4.817 8.499 C 5.052 8.016,5.608 7.120,5.672 7.120 C 5.688 7.120,6.922 8.342,8.415 9.835 M11.695 16.057 C 11.466 16.129,11.256 16.299,11.128 16.516 C 11.036 16.672,11.020 16.745,11.021 17.000 C 11.022 17.332,11.101 17.533,11.306 17.728 C 11.785 18.181,12.580 18.046,12.893 17.460 C 13.025 17.211,13.015 16.760,12.872 16.516 C 12.628 16.101,12.150 15.915,11.695 16.057 " stroke="none" fill-rule="evenodd" fill="black"></path></svg>