<svg xmlns="http://www.w3.org/2000/svg" width="24" height="24" viewBox="0 0 24 24" fill="none" stroke="currentColor" stroke-width="2" stroke-linecap="round" stroke-linejoin="round"><path d="M2.670 2.061 C 2.448 2.142,2.250 2.309,2.128 2.516 C 2.037 2.672,2.020 2.746,2.020 3.000 C 2.020 3.254,2.036 3.328,2.127 3.480 C 2.186 3.579,2.793 4.217,3.475 4.897 L 4.714 6.134 4.167 6.403 C 2.954 6.998,2.280 7.675,2.059 8.520 C 2.002 8.734,1.995 8.889,2.014 9.400 C 2.180 13.734,5.138 17.467,9.334 18.637 C 11.591 19.267,14.063 19.066,16.185 18.081 L 16.510 17.930 18.425 19.847 C 19.478 20.902,20.421 21.813,20.520 21.873 C 20.673 21.964,20.746 21.980,21.000 21.980 C 21.257 21.980,21.327 21.964,21.492 21.867 C 21.968 21.587,22.139 20.967,21.865 20.508 C 21.810 20.416,17.665 16.243,12.653 11.235 C 4.231 2.820,3.525 2.125,3.343 2.065 C 3.107 1.987,2.874 1.986,2.670 2.061 M10.560 5.041 C 10.219 5.061,9.859 5.099,9.760 5.126 C 9.526 5.190,9.197 5.512,9.129 5.745 C 8.965 6.298,9.240 6.847,9.767 7.022 C 9.931 7.077,10.054 7.080,10.708 7.043 C 12.940 6.917,15.351 7.112,17.100 7.560 C 17.955 7.779,18.386 7.930,18.985 8.221 C 19.391 8.418,19.565 8.529,19.755 8.709 C 19.890 8.837,20.000 8.965,20.000 8.993 C 20.000 9.021,19.921 9.128,19.824 9.232 C 19.292 9.800,17.760 10.375,15.967 10.679 C 15.696 10.725,15.404 10.791,15.317 10.826 C 15.104 10.911,14.825 11.229,14.760 11.459 C 14.660 11.818,14.781 12.230,15.059 12.474 C 15.375 12.751,15.612 12.775,16.467 12.619 C 17.646 12.403,18.489 12.166,19.449 11.780 C 19.502 11.759,19.483 11.832,19.360 12.121 C 19.075 12.786,18.704 13.406,18.232 14.004 C 17.845 14.495,17.766 14.770,17.901 15.165 C 18.115 15.794,18.900 16.046,19.427 15.655 C 19.590 15.534,20.009 15.010,20.345 14.506 C 21.365 12.980,22.000 10.928,22.000 9.161 C 22.000 8.675,21.947 8.434,21.754 8.040 C 21.021 6.550,18.246 5.446,14.360 5.100 C 13.514 5.024,11.415 4.992,10.560 5.041 M7.880 9.303 L 9.460 10.887 9.240 10.861 C 7.188 10.615,5.455 10.124,4.540 9.529 C 4.294 9.369,4.000 9.077,4.000 8.992 C 4.000 8.965,4.105 8.841,4.234 8.716 C 4.411 8.544,4.590 8.428,4.964 8.243 C 5.359 8.048,6.178 7.722,6.280 7.720 C 6.291 7.720,7.011 8.433,7.880 9.303 M4.860 11.901 C 6.385 12.500,8.563 12.890,10.906 12.983 L 11.591 13.011 13.299 14.719 L 15.008 16.428 14.514 16.592 C 12.536 17.247,10.411 17.110,8.540 16.206 C 6.986 15.455,5.760 14.280,4.947 12.760 C 4.787 12.462,4.468 11.760,4.492 11.760 C 4.497 11.760,4.662 11.824,4.860 11.901 " stroke="none" fill-rule="evenodd" fill="black"></path></svg>