<svg xmlns="http://www.w3.org/2000/svg" width="24" height="24" viewBox="0 0 24 24" fill="none" stroke="currentColor" stroke-width="2" stroke-linecap="round" stroke-linejoin="round"><path d="M10.720 5.025 C 6.326 5.241,3.050 6.407,2.246 8.040 C 2.024 8.491,1.985 8.730,2.014 9.440 C 2.099 11.474,2.783 13.369,4.033 15.040 C 4.430 15.570,5.305 16.464,5.800 16.847 C 7.231 17.953,8.815 18.635,10.560 18.898 C 11.143 18.985,12.058 19.022,12.264 18.965 C 12.498 18.901,12.737 18.714,12.867 18.492 C 12.964 18.327,12.980 18.257,12.980 18.000 C 12.980 17.746,12.963 17.672,12.872 17.516 C 12.665 17.165,12.334 17.000,11.832 17.000 C 10.817 17.000,9.549 16.693,8.529 16.200 C 7.738 15.819,7.124 15.394,6.504 14.801 C 5.846 14.171,5.345 13.514,4.941 12.750 C 4.758 12.404,4.466 11.760,4.493 11.760 C 4.497 11.760,4.662 11.824,4.860 11.901 C 6.067 12.375,7.692 12.720,9.600 12.908 C 10.595 13.005,13.405 13.005,14.400 12.908 C 16.304 12.720,17.934 12.375,19.134 11.903 C 19.476 11.769,19.487 11.767,19.462 11.852 C 19.448 11.900,19.426 12.043,19.413 12.170 C 19.334 12.934,20.151 13.483,20.841 13.130 C 21.136 12.979,21.258 12.808,21.445 12.276 C 21.761 11.380,21.945 10.418,21.986 9.440 C 22.015 8.730,21.976 8.491,21.754 8.040 C 21.020 6.550,18.252 5.449,14.360 5.099 C 13.694 5.040,11.380 4.992,10.720 5.025 M13.380 7.041 C 15.749 7.169,17.637 7.567,18.985 8.221 C 19.391 8.418,19.565 8.529,19.755 8.709 C 19.890 8.837,20.000 8.964,20.000 8.991 C 20.000 9.063,19.730 9.350,19.535 9.483 C 18.579 10.141,16.663 10.664,14.320 10.907 C 13.381 11.004,10.619 11.004,9.680 10.907 C 7.374 10.668,5.533 10.174,4.540 9.529 C 4.292 9.369,4.000 9.077,4.000 8.991 C 4.000 8.964,4.110 8.837,4.245 8.709 C 4.822 8.160,6.409 7.585,8.120 7.305 C 9.742 7.039,11.616 6.945,13.380 7.041 M18.695 15.057 C 18.466 15.129,18.256 15.299,18.128 15.516 L 18.020 15.700 18.008 16.850 L 17.995 18.000 16.944 18.000 C 15.797 18.000,15.643 18.022,15.382 18.221 C 15.302 18.282,15.187 18.415,15.128 18.516 C 15.037 18.672,15.020 18.746,15.020 19.000 C 15.020 19.256,15.036 19.328,15.131 19.489 C 15.192 19.592,15.304 19.725,15.381 19.783 C 15.642 19.983,15.738 19.996,16.908 19.998 L 17.995 20.000 18.008 21.153 L 18.020 22.307 18.141 22.503 C 18.543 23.156,19.457 23.156,19.859 22.503 L 19.980 22.307 19.992 21.153 L 20.005 20.000 21.092 19.998 C 22.262 19.996,22.358 19.983,22.619 19.783 C 22.696 19.725,22.808 19.592,22.869 19.489 C 22.964 19.328,22.980 19.256,22.980 19.000 C 22.980 18.746,22.963 18.672,22.872 18.516 C 22.813 18.415,22.698 18.282,22.618 18.221 C 22.357 18.022,22.203 18.000,21.056 18.000 L 20.005 18.000 19.992 16.850 L 19.980 15.700 19.872 15.516 C 19.628 15.101,19.150 14.915,18.695 15.057 " stroke="none" fill-rule="evenodd" fill="black"></path></svg>