<svg xmlns="http://www.w3.org/2000/svg" width="24" height="24" viewBox="0 0 24 24" fill="none" stroke="currentColor" stroke-width="2" stroke-linecap="round" stroke-linejoin="round"><path d="M11.528 1.062 C 11.142 1.166,10.872 1.322,10.600 1.598 C 10.369 1.832,9.886 2.614,6.316 8.521 C 4.103 12.183,2.255 15.270,2.210 15.380 C 2.054 15.761,1.987 16.178,2.012 16.616 C 2.051 17.320,2.247 17.838,2.670 18.360 C 2.932 18.683,5.382 21.132,5.680 21.369 C 5.927 21.565,6.325 21.775,6.660 21.886 L 6.940 21.979 9.800 21.991 C 12.994 22.005,12.848 22.016,13.173 21.724 C 13.381 21.536,13.488 21.292,13.488 21.003 C 13.488 20.615,13.294 20.298,12.940 20.106 C 12.782 20.021,12.750 20.020,10.528 20.009 C 8.421 19.998,8.277 19.993,8.295 19.929 C 8.306 19.891,9.139 16.742,10.146 12.930 C 11.153 9.118,11.987 6.000,12.000 6.000 C 12.012 6.000,12.542 7.966,13.177 10.370 C 13.812 12.773,14.356 14.803,14.388 14.880 C 14.522 15.214,14.927 15.480,15.301 15.480 C 15.847 15.480,16.291 15.050,16.294 14.520 C 16.294 14.358,16.039 13.334,15.326 10.640 C 14.793 8.627,14.347 6.953,14.336 6.920 C 14.289 6.782,14.463 7.065,16.104 9.780 C 17.048 11.341,17.885 12.685,17.965 12.765 C 18.349 13.149,19.053 13.109,19.412 12.682 C 19.644 12.406,19.700 11.906,19.533 11.591 C 19.493 11.514,18.155 9.294,16.560 6.657 C 13.996 2.417,13.630 1.832,13.400 1.600 C 12.899 1.096,12.176 0.888,11.528 1.062 M9.638 7.010 C 9.619 7.082,8.909 9.768,8.060 12.980 C 7.211 16.192,6.487 18.925,6.452 19.053 L 6.388 19.287 5.311 18.213 C 4.719 17.623,4.186 17.059,4.127 16.960 C 4.038 16.810,4.020 16.734,4.021 16.500 C 4.022 16.307,4.045 16.177,4.096 16.080 C 4.187 15.907,9.650 6.880,9.664 6.880 C 9.669 6.880,9.658 6.939,9.638 7.010 M18.695 15.057 C 18.466 15.129,18.256 15.299,18.128 15.516 L 18.020 15.700 18.008 16.850 L 17.995 18.000 16.944 18.000 C 15.797 18.000,15.643 18.022,15.382 18.221 C 15.302 18.282,15.187 18.415,15.128 18.516 C 15.037 18.672,15.020 18.746,15.020 19.000 C 15.020 19.256,15.036 19.328,15.131 19.489 C 15.192 19.592,15.304 19.725,15.381 19.783 C 15.642 19.983,15.738 19.996,16.908 19.998 L 17.995 20.000 18.008 21.153 L 18.020 22.307 18.141 22.503 C 18.543 23.156,19.457 23.156,19.859 22.503 L 19.980 22.307 19.992 21.153 L 20.005 20.000 21.092 19.998 C 22.262 19.996,22.358 19.983,22.619 19.783 C 22.696 19.725,22.808 19.592,22.869 19.489 C 22.964 19.328,22.980 19.256,22.980 19.000 C 22.980 18.746,22.963 18.672,22.872 18.516 C 22.813 18.415,22.698 18.282,22.618 18.221 C 22.357 18.022,22.203 18.000,21.056 18.000 L 20.005 18.000 19.992 16.850 L 19.980 15.700 19.872 15.516 C 19.628 15.101,19.150 14.915,18.695 15.057 " stroke="none" fill-rule="evenodd" fill="black"></path></svg>