<svg xmlns="http://www.w3.org/2000/svg" width="24" height="24" viewBox="0 0 24 24" fill="none" stroke="currentColor" stroke-width="2" stroke-linecap="round" stroke-linejoin="round"><path d="M7.980 2.024 C 7.936 2.033,7.801 2.060,7.680 2.084 C 7.230 2.174,6.845 2.405,5.017 3.685 C 4.032 4.375,3.103 5.055,2.953 5.195 C 2.497 5.620,2.190 6.169,2.058 6.794 C 1.974 7.189,1.974 16.811,2.058 17.206 C 2.190 17.830,2.497 18.378,2.951 18.805 C 3.195 19.033,6.363 21.286,6.860 21.584 C 6.970 21.650,7.204 21.766,7.380 21.842 L 7.700 21.980 10.180 21.991 C 12.950 22.004,12.852 22.013,13.173 21.724 C 13.381 21.536,13.488 21.292,13.488 21.003 C 13.488 20.615,13.294 20.298,12.940 20.106 C 12.783 20.022,12.740 20.020,10.890 20.009 L 9.000 19.997 9.000 15.499 L 9.000 11.000 12.000 11.000 L 15.000 11.000 15.000 12.350 C 15.001 13.687,15.002 13.702,15.095 13.900 C 15.276 14.281,15.595 14.488,16.000 14.488 C 16.405 14.488,16.724 14.281,16.905 13.900 C 16.999 13.701,16.999 13.693,17.000 12.233 L 17.000 10.765 17.088 10.738 C 17.239 10.689,17.545 10.489,18.769 9.632 C 19.423 9.174,19.968 8.800,19.979 8.800 C 19.991 8.800,20.000 9.678,20.000 10.750 L 20.001 12.700 20.095 12.900 C 20.276 13.281,20.595 13.488,21.000 13.488 C 21.405 13.488,21.724 13.281,21.905 12.900 L 21.999 12.700 21.999 9.880 C 21.999 6.828,21.998 6.811,21.778 6.254 C 21.622 5.860,21.359 5.483,21.028 5.180 C 20.648 4.831,17.350 2.522,16.940 2.317 C 16.323 2.009,16.614 2.027,12.100 2.017 C 9.878 2.012,8.024 2.015,7.980 2.024 M15.895 4.043 C 16.013 4.073,16.596 4.458,17.820 5.317 C 18.786 5.994,19.581 6.564,19.586 6.584 C 19.598 6.624,16.621 8.719,16.324 8.880 L 16.140 8.980 12.000 8.980 C 7.937 8.980,7.857 8.979,7.708 8.900 C 7.446 8.762,4.402 6.622,4.413 6.584 C 4.435 6.511,7.942 4.082,8.079 4.046 C 8.285 3.991,15.677 3.988,15.895 4.043 M5.294 9.678 C 5.984 10.161,6.649 10.606,6.773 10.668 L 6.999 10.780 7.000 15.013 C 7.000 17.342,6.985 19.241,6.968 19.233 C 6.857 19.188,4.396 17.433,4.274 17.312 C 3.989 17.031,4.000 17.216,4.000 12.773 C 4.000 10.588,4.009 8.800,4.021 8.800 C 4.032 8.800,4.605 9.195,5.294 9.678 M18.695 15.057 C 18.466 15.129,18.256 15.299,18.128 15.516 L 18.020 15.700 18.008 16.850 L 17.995 18.000 16.944 18.000 C 15.797 18.000,15.643 18.022,15.382 18.221 C 15.302 18.282,15.187 18.415,15.128 18.516 C 15.037 18.672,15.020 18.746,15.020 19.000 C 15.020 19.256,15.036 19.328,15.131 19.489 C 15.192 19.592,15.304 19.725,15.381 19.783 C 15.642 19.983,15.738 19.996,16.908 19.998 L 17.995 20.000 18.008 21.153 L 18.020 22.307 18.141 22.503 C 18.543 23.156,19.457 23.156,19.859 22.503 L 19.980 22.307 19.992 21.153 L 20.005 20.000 21.092 19.998 C 22.262 19.996,22.358 19.983,22.619 19.783 C 22.696 19.725,22.808 19.592,22.869 19.489 C 22.964 19.328,22.980 19.256,22.980 19.000 C 22.980 18.746,22.963 18.672,22.872 18.516 C 22.813 18.415,22.698 18.282,22.618 18.221 C 22.357 18.022,22.203 18.000,21.056 18.000 L 20.005 18.000 19.992 16.850 L 19.980 15.700 19.872 15.516 C 19.628 15.101,19.150 14.915,18.695 15.057 " stroke="none" fill-rule="evenodd" fill="black"></path></svg>