<svg xmlns="http://www.w3.org/2000/svg" width="24" height="24" viewBox="0 0 24 24" fill="none" stroke="currentColor" stroke-width="2" stroke-linecap="round" stroke-linejoin="round"><path d="M11.542 1.044 C 11.206 1.093,10.917 1.183,10.607 1.334 C 10.326 1.471,3.711 5.363,3.400 5.574 C 2.940 5.886,2.556 6.345,2.298 6.892 C 2.004 7.516,2.023 7.205,2.009 11.720 C 1.999 15.327,2.005 15.816,2.062 16.100 C 2.197 16.773,2.552 17.405,3.043 17.852 C 3.266 18.054,4.217 18.675,6.849 20.339 C 8.779 21.559,10.434 22.596,10.527 22.644 C 11.438 23.109,12.561 23.109,13.471 22.645 C 13.630 22.564,20.226 18.402,20.600 18.147 C 21.088 17.814,21.516 17.281,21.752 16.712 C 22.005 16.102,22.000 16.202,22.000 11.844 C 22.000 7.576,22.004 7.665,21.787 7.068 C 21.605 6.567,21.270 6.102,20.812 5.713 C 20.635 5.563,19.382 4.802,17.082 3.447 C 15.178 2.326,13.548 1.372,13.460 1.329 C 12.903 1.057,12.187 0.950,11.542 1.044 M12.597 3.138 C 12.893 3.289,19.211 7.019,19.433 7.175 C 19.536 7.247,19.678 7.382,19.750 7.476 C 20.011 7.818,20.003 7.658,19.991 11.943 L 19.980 15.820 19.872 16.025 C 19.812 16.138,19.709 16.284,19.643 16.351 C 19.481 16.513,12.718 20.790,12.440 20.906 C 12.151 21.027,11.850 21.027,11.560 20.907 C 11.284 20.791,4.519 16.513,4.356 16.350 C 4.290 16.284,4.188 16.138,4.128 16.025 L 4.020 15.820 4.020 11.860 L 4.020 7.900 4.129 7.693 C 4.190 7.578,4.301 7.425,4.376 7.353 C 4.561 7.174,11.452 3.117,11.680 3.052 C 11.947 2.975,12.350 3.013,12.597 3.138 M9.667 7.065 C 9.406 7.145,9.153 7.401,9.061 7.678 C 8.927 8.081,8.938 8.111,9.954 10.148 L 10.879 12.000 9.954 13.852 C 8.938 15.889,8.927 15.919,9.061 16.322 C 9.189 16.707,9.594 17.000,10.000 17.000 C 10.080 17.000,10.233 16.970,10.340 16.934 C 10.686 16.816,10.804 16.649,11.419 15.408 C 11.727 14.788,11.988 14.280,12.000 14.280 C 12.012 14.280,12.273 14.788,12.581 15.408 C 13.196 16.649,13.314 16.816,13.660 16.934 C 13.767 16.970,13.920 17.000,14.000 17.000 C 14.406 17.000,14.811 16.707,14.939 16.322 C 15.073 15.919,15.062 15.889,14.046 13.852 L 13.121 12.000 14.046 10.148 C 15.056 8.124,15.072 8.079,14.944 7.693 C 14.712 6.992,13.816 6.776,13.304 7.297 C 13.182 7.421,12.997 7.751,12.581 8.592 C 12.273 9.212,12.012 9.720,12.000 9.720 C 11.988 9.720,11.727 9.212,11.419 8.592 C 10.804 7.351,10.686 7.184,10.340 7.066 C 10.106 6.986,9.924 6.986,9.667 7.065 " stroke="none" fill-rule="evenodd" fill="black"></path></svg>