<svg xmlns="http://www.w3.org/2000/svg" width="24" height="24" viewBox="0 0 24 24" fill="none" stroke="currentColor" stroke-width="2" stroke-linecap="round" stroke-linejoin="round"><path d="M2.670 2.061 C 2.448 2.142,2.250 2.309,2.128 2.516 C 2.036 2.672,2.020 2.745,2.021 3.000 C 2.021 3.213,2.043 3.341,2.095 3.440 C 2.136 3.517,2.707 4.121,3.366 4.782 L 4.562 5.984 4.280 6.177 C 3.655 6.605,3.219 7.271,3.059 8.047 C 3.006 8.301,3.000 8.849,3.010 12.001 C 3.023 16.126,2.999 15.811,3.346 16.517 C 3.494 16.820,3.595 16.960,3.855 17.225 C 4.159 17.535,4.383 17.686,7.342 19.573 C 9.081 20.682,10.565 21.621,10.640 21.660 C 11.122 21.909,11.812 22.033,12.336 21.963 C 12.674 21.918,13.111 21.789,13.359 21.660 C 13.433 21.622,14.410 21.006,15.531 20.290 L 17.568 18.989 18.994 20.410 C 19.778 21.192,20.483 21.864,20.560 21.905 C 20.659 21.957,20.788 21.979,21.000 21.979 C 21.258 21.980,21.327 21.964,21.492 21.867 C 21.968 21.587,22.139 20.967,21.865 20.508 C 21.810 20.416,17.665 16.243,12.653 11.235 C 4.231 2.820,3.525 2.125,3.343 2.065 C 3.107 1.987,2.874 1.986,2.670 2.061 M11.480 2.098 C 10.934 2.198,10.883 2.223,9.223 3.210 C 8.627 3.565,8.065 3.928,7.974 4.018 C 7.773 4.216,7.657 4.550,7.698 4.818 C 7.737 5.081,7.947 5.397,8.177 5.539 C 8.354 5.648,8.407 5.660,8.697 5.660 L 9.021 5.660 10.291 4.905 C 10.989 4.490,11.628 4.126,11.711 4.097 C 11.911 4.025,12.119 4.027,12.340 4.102 C 12.536 4.168,18.274 7.568,18.540 7.776 C 18.785 7.967,18.874 8.082,18.940 8.297 C 19.029 8.589,19.029 15.147,18.940 15.480 C 18.908 15.601,18.881 15.786,18.880 15.891 C 18.879 16.588,19.659 17.070,20.292 16.764 C 20.570 16.629,20.738 16.416,20.867 16.033 L 20.980 15.700 20.980 11.920 C 20.980 7.652,21.000 7.947,20.658 7.249 C 20.460 6.847,20.154 6.482,19.761 6.182 C 19.482 5.969,13.682 2.515,13.302 2.336 C 13.147 2.262,12.912 2.175,12.780 2.141 C 12.435 2.052,11.837 2.032,11.480 2.098 M16.040 17.589 C 15.473 17.985,12.351 19.930,12.227 19.964 C 12.033 20.016,11.770 19.988,11.594 19.897 C 11.255 19.722,5.437 15.981,5.292 15.845 C 4.986 15.558,4.997 15.714,5.009 11.797 C 5.020 8.342,5.020 8.340,5.106 8.180 C 5.219 7.970,5.356 7.847,5.720 7.626 L 6.020 7.443 11.068 12.489 C 15.711 17.131,16.110 17.540,16.040 17.589 " stroke="none" fill-rule="evenodd" fill="black"></path></svg>