<svg xmlns="http://www.w3.org/2000/svg" width="24" height="24" viewBox="0 0 24 24" fill="none" stroke="currentColor" stroke-width="2" stroke-linecap="round" stroke-linejoin="round"><path d="M11.541 2.042 C 11.249 2.088,10.964 2.179,10.700 2.311 C 10.501 2.411,4.771 5.826,4.339 6.102 C 3.877 6.398,3.450 6.918,3.234 7.448 C 2.993 8.039,2.997 7.952,3.010 11.981 C 3.023 16.128,2.999 15.811,3.346 16.517 C 3.494 16.820,3.595 16.960,3.855 17.226 C 4.159 17.535,4.389 17.690,7.380 19.604 C 9.500 20.959,10.679 21.690,10.874 21.768 C 11.640 22.075,12.364 22.074,13.134 21.765 C 13.368 21.670,17.616 18.990,19.570 17.703 C 20.054 17.384,20.434 16.967,20.661 16.505 C 21.000 15.815,20.980 16.098,20.979 11.900 C 20.979 9.854,20.973 8.099,20.966 8.000 C 20.959 7.901,20.966 7.711,20.981 7.577 C 21.004 7.374,20.994 7.301,20.919 7.126 C 20.815 6.885,20.547 6.627,20.327 6.557 C 20.246 6.532,20.117 6.453,20.040 6.382 C 19.963 6.312,19.828 6.199,19.740 6.132 C 19.496 5.947,13.625 2.448,13.302 2.296 C 13.147 2.222,12.912 2.135,12.780 2.101 C 12.476 2.023,11.852 1.993,11.541 2.042 M12.384 4.072 C 12.561 4.145,18.117 7.447,18.119 7.480 C 18.121 7.509,16.048 8.800,15.999 8.800 C 15.977 8.800,15.171 8.308,14.209 7.706 C 13.247 7.104,12.416 6.589,12.362 6.560 C 12.308 6.532,12.145 6.508,12.000 6.508 C 11.855 6.508,11.692 6.532,11.638 6.560 C 11.584 6.589,10.752 7.105,9.789 7.707 L 8.038 8.802 7.079 8.117 C 6.551 7.740,6.112 7.419,6.102 7.403 C 6.092 7.388,6.466 7.148,6.932 6.871 C 7.399 6.594,8.643 5.853,9.697 5.223 C 10.751 4.594,11.669 4.063,11.737 4.043 C 11.932 3.986,12.206 3.999,12.384 4.072 M6.020 9.814 L 6.980 10.504 7.000 12.402 L 7.020 14.300 7.130 14.487 C 7.190 14.590,7.284 14.709,7.338 14.751 C 7.391 14.793,8.237 15.329,9.218 15.941 L 11.000 17.054 11.000 18.287 C 11.000 18.965,10.991 19.520,10.981 19.520 C 10.914 19.520,5.428 15.971,5.291 15.839 C 4.991 15.550,5.000 15.667,5.000 12.193 C 5.000 10.503,5.014 9.121,5.030 9.122 C 5.046 9.123,5.492 9.435,6.020 9.814 M11.000 10.350 L 11.000 11.381 10.020 11.870 C 9.481 12.140,9.030 12.360,9.019 12.360 C 9.008 12.360,9.003 11.951,9.009 11.451 L 9.020 10.543 9.998 9.931 C 10.536 9.595,10.981 9.320,10.988 9.320 C 10.995 9.320,11.000 9.784,11.000 10.350 M14.100 9.990 L 14.980 10.543 14.991 11.451 C 14.997 11.951,14.992 12.360,14.981 12.360 C 14.970 12.360,14.519 12.140,13.980 11.870 L 13.000 11.381 13.000 10.349 L 13.000 9.318 13.110 9.377 C 13.171 9.410,13.616 9.686,14.100 9.990 M18.981 15.300 C 18.944 15.561,18.752 15.851,18.512 16.009 C 18.006 16.343,13.034 19.520,13.018 19.520 C 13.008 19.520,13.000 18.965,13.000 18.287 L 13.000 17.054 14.782 15.941 C 15.763 15.329,16.609 14.793,16.662 14.751 C 16.716 14.709,16.810 14.590,16.870 14.487 L 16.980 14.300 17.000 12.421 L 17.020 10.543 18.000 9.930 L 18.980 9.318 18.992 12.229 C 18.998 13.830,18.993 15.212,18.981 15.300 M12.990 13.612 L 13.960 14.100 12.980 14.713 L 12.000 15.326 11.020 14.713 L 10.040 14.100 11.010 13.612 C 11.544 13.344,11.989 13.124,12.000 13.124 C 12.011 13.124,12.456 13.344,12.990 13.612 " stroke="none" fill-rule="evenodd" fill="black"></path></svg>