<svg xmlns="http://www.w3.org/2000/svg" width="24" height="24" viewBox="0 0 24 24" fill="none" stroke="currentColor" stroke-width="2" stroke-linecap="round" stroke-linejoin="round"><path d="M2.670 2.061 C 2.448 2.142,2.250 2.309,2.128 2.516 C 2.036 2.672,2.020 2.745,2.021 3.000 C 2.021 3.214,2.043 3.340,2.096 3.440 C 2.136 3.517,2.447 3.861,2.787 4.203 L 3.404 4.827 3.245 4.936 C 3.022 5.091,2.635 5.503,2.471 5.761 C 2.296 6.036,2.131 6.450,2.058 6.794 C 1.974 7.189,1.974 16.811,2.058 17.206 C 2.190 17.830,2.497 18.378,2.951 18.805 C 3.195 19.033,6.359 21.283,6.860 21.584 C 6.970 21.651,7.213 21.767,7.400 21.842 L 7.740 21.980 12.000 21.980 L 16.260 21.980 16.632 21.829 C 17.076 21.650,17.120 21.623,18.134 20.909 L 18.927 20.350 19.674 21.090 C 20.084 21.497,20.483 21.864,20.560 21.904 C 20.660 21.957,20.787 21.979,21.000 21.979 C 21.258 21.980,21.327 21.964,21.492 21.867 C 21.968 21.587,22.139 20.967,21.865 20.508 C 21.810 20.416,17.665 16.243,12.653 11.235 C 4.231 2.820,3.525 2.125,3.343 2.065 C 3.107 1.987,2.874 1.986,2.670 2.061 M7.901 2.044 C 7.431 2.114,6.834 2.372,6.599 2.607 C 6.066 3.140,6.301 4.053,7.024 4.263 C 7.312 4.347,7.491 4.322,7.831 4.154 L 8.100 4.020 11.880 4.008 C 14.485 3.999,15.722 4.009,15.860 4.038 C 16.026 4.074,16.363 4.294,17.818 5.315 C 18.785 5.993,19.581 6.564,19.586 6.584 C 19.598 6.624,16.621 8.719,16.324 8.880 C 16.142 8.979,16.125 8.980,14.940 9.001 C 14.128 9.016,13.704 9.038,13.627 9.071 C 13.430 9.157,13.239 9.327,13.128 9.516 C 13.037 9.672,13.020 9.746,13.020 10.000 C 13.020 10.256,13.036 10.328,13.131 10.489 C 13.256 10.702,13.449 10.864,13.670 10.943 C 13.768 10.978,14.022 10.997,14.407 10.998 L 14.993 11.000 15.007 11.653 C 15.020 12.300,15.021 12.308,15.141 12.503 C 15.543 13.156,16.457 13.156,16.859 12.503 L 16.980 12.307 16.993 11.535 C 17.006 10.790,17.009 10.763,17.091 10.737 C 17.239 10.690,17.551 10.484,18.769 9.632 C 19.423 9.174,19.968 8.800,19.980 8.800 C 19.993 8.800,20.001 10.694,19.999 13.010 C 19.996 15.325,20.008 17.256,20.024 17.300 C 20.091 17.482,20.294 17.725,20.459 17.822 C 20.680 17.951,21.009 17.990,21.268 17.918 C 21.508 17.851,21.849 17.530,21.926 17.300 C 22.008 17.051,22.026 7.198,21.944 6.806 C 21.810 6.162,21.500 5.612,21.028 5.180 C 20.648 4.831,17.350 2.522,16.940 2.317 C 16.323 2.009,16.609 2.027,12.140 2.017 C 9.940 2.012,8.033 2.024,7.901 2.044 M5.920 7.345 C 6.951 8.382,6.971 8.404,6.638 8.175 C 5.436 7.347,4.402 6.616,4.401 6.594 C 4.400 6.560,4.768 6.287,4.820 6.283 C 4.842 6.281,5.337 6.759,5.920 7.345 M5.294 9.678 C 5.984 10.161,6.649 10.606,6.773 10.668 L 6.999 10.780 7.000 15.013 C 7.000 17.342,6.985 19.241,6.968 19.233 C 6.857 19.188,4.396 17.433,4.274 17.312 C 3.989 17.031,4.000 17.216,4.000 12.773 C 4.000 10.588,4.009 8.800,4.021 8.800 C 4.032 8.800,4.605 9.195,5.294 9.678 M12.290 13.710 L 15.000 16.420 15.000 18.210 L 15.000 20.000 12.000 20.000 L 9.000 20.000 9.000 15.500 L 9.000 11.000 9.290 11.000 L 9.580 11.000 12.290 13.710 M17.365 19.000 C 17.300 19.055,17.191 19.133,17.123 19.172 L 17.000 19.245 17.000 18.834 L 17.000 18.423 17.242 18.661 L 17.484 18.900 17.365 19.000 " stroke="none" fill-rule="evenodd" fill="black"></path></svg>