<svg xmlns="http://www.w3.org/2000/svg" width="24" height="24" viewBox="0 0 24 24" fill="none" stroke="currentColor" stroke-width="2" stroke-linecap="round" stroke-linejoin="round"><path d="M11.542 1.044 C 11.206 1.093,10.917 1.183,10.607 1.334 C 10.326 1.471,3.711 5.363,3.400 5.574 C 2.940 5.886,2.556 6.345,2.298 6.892 C 2.004 7.516,2.023 7.205,2.009 11.720 C 1.999 15.327,2.005 15.816,2.062 16.100 C 2.197 16.773,2.552 17.405,3.043 17.852 C 3.266 18.054,4.217 18.675,6.849 20.339 C 8.779 21.559,10.434 22.596,10.527 22.644 C 11.438 23.109,12.561 23.109,13.471 22.645 C 13.630 22.564,20.226 18.402,20.600 18.147 C 21.088 17.814,21.516 17.281,21.752 16.712 C 22.005 16.102,22.000 16.202,22.000 11.844 C 22.000 7.576,22.004 7.665,21.787 7.068 C 21.605 6.567,21.270 6.102,20.812 5.713 C 20.635 5.563,19.382 4.802,17.082 3.447 C 15.178 2.326,13.548 1.372,13.460 1.329 C 12.903 1.057,12.187 0.950,11.542 1.044 M12.597 3.138 C 12.893 3.289,19.211 7.019,19.433 7.175 C 19.536 7.247,19.678 7.382,19.750 7.476 C 20.011 7.818,20.003 7.658,19.991 11.943 L 19.980 15.820 19.872 16.025 C 19.812 16.138,19.709 16.284,19.643 16.351 C 19.481 16.513,12.718 20.790,12.440 20.906 C 12.151 21.027,11.850 21.027,11.560 20.907 C 11.284 20.791,4.519 16.513,4.356 16.350 C 4.290 16.284,4.188 16.138,4.128 16.025 L 4.020 15.820 4.020 11.860 L 4.020 7.900 4.129 7.693 C 4.190 7.578,4.301 7.425,4.376 7.353 C 4.561 7.174,11.452 3.117,11.680 3.052 C 11.947 2.975,12.350 3.013,12.597 3.138 M8.667 7.063 C 8.394 7.150,8.147 7.407,8.054 7.701 L 7.982 7.931 8.497 12.055 C 8.780 14.324,9.028 16.236,9.046 16.304 C 9.100 16.499,9.299 16.744,9.496 16.860 C 9.880 17.085,10.383 17.019,10.699 16.703 C 10.848 16.554,10.923 16.392,11.420 15.148 C 11.726 14.385,11.986 13.760,12.000 13.760 C 12.014 13.760,12.274 14.385,12.580 15.148 C 13.075 16.389,13.152 16.554,13.300 16.702 C 13.479 16.881,13.759 17.000,14.000 17.000 C 14.413 17.000,14.821 16.701,14.938 16.315 C 15.024 16.030,16.011 8.109,15.988 7.889 C 15.911 7.163,15.058 6.765,14.452 7.172 C 14.348 7.243,14.211 7.384,14.147 7.487 C 14.037 7.667,14.023 7.747,13.773 9.767 C 13.630 10.918,13.504 11.887,13.493 11.920 C 13.482 11.953,13.338 11.643,13.173 11.231 C 12.939 10.647,12.840 10.448,12.725 10.330 C 12.507 10.105,12.308 10.020,12.000 10.020 C 11.692 10.020,11.407 10.148,11.230 10.367 C 11.169 10.442,10.986 10.836,10.823 11.242 C 10.660 11.648,10.517 11.953,10.506 11.920 C 10.495 11.887,10.376 10.960,10.241 9.860 C 10.105 8.760,9.978 7.795,9.958 7.716 C 9.822 7.194,9.216 6.887,8.667 7.063 " stroke="none" fill-rule="evenodd" fill="black"></path></svg>