<svg xmlns="http://www.w3.org/2000/svg" width="24" height="24" viewBox="0 0 24 24" fill="none" stroke="currentColor" stroke-width="2" stroke-linecap="round" stroke-linejoin="round"><path d="M11.542 1.044 C 11.206 1.093,10.917 1.183,10.607 1.334 C 10.326 1.471,3.711 5.363,3.400 5.574 C 2.940 5.886,2.556 6.345,2.298 6.892 C 2.004 7.516,2.023 7.205,2.009 11.720 C 1.999 15.327,2.005 15.816,2.062 16.100 C 2.197 16.773,2.552 17.405,3.043 17.852 C 3.266 18.054,4.217 18.675,6.849 20.339 C 8.779 21.559,10.434 22.596,10.527 22.644 C 11.438 23.109,12.561 23.109,13.471 22.645 C 13.630 22.564,20.226 18.402,20.600 18.147 C 21.088 17.814,21.516 17.281,21.752 16.712 C 22.005 16.102,22.000 16.202,22.000 11.844 C 22.000 7.576,22.004 7.665,21.787 7.068 C 21.605 6.567,21.270 6.102,20.812 5.713 C 20.635 5.563,19.382 4.802,17.082 3.447 C 15.178 2.326,13.548 1.372,13.460 1.329 C 12.903 1.057,12.187 0.950,11.542 1.044 M12.597 3.138 C 12.893 3.289,19.211 7.019,19.433 7.175 C 19.536 7.247,19.678 7.382,19.750 7.476 C 20.011 7.818,20.003 7.658,19.991 11.943 L 19.980 15.820 19.872 16.025 C 19.812 16.138,19.709 16.284,19.643 16.351 C 19.481 16.513,12.718 20.790,12.440 20.906 C 12.151 21.027,11.850 21.027,11.560 20.907 C 11.284 20.791,4.519 16.513,4.356 16.350 C 4.290 16.284,4.188 16.138,4.128 16.025 L 4.020 15.820 4.020 11.860 L 4.020 7.900 4.129 7.693 C 4.190 7.578,4.301 7.425,4.376 7.353 C 4.561 7.174,11.452 3.117,11.680 3.052 C 11.947 2.975,12.350 3.013,12.597 3.138 M8.695 7.055 C 8.464 7.130,8.255 7.300,8.128 7.516 L 8.020 7.700 8.020 12.003 L 8.020 16.306 8.141 16.503 C 8.543 17.156,9.457 17.156,9.859 16.503 L 9.980 16.306 9.991 13.966 L 10.002 11.626 10.601 12.623 C 10.958 13.219,11.257 13.671,11.343 13.748 C 11.700 14.062,12.236 14.075,12.626 13.778 C 12.711 13.713,12.972 13.320,13.368 12.659 L 13.980 11.639 14.000 13.973 L 14.020 16.306 14.141 16.503 C 14.543 17.156,15.457 17.156,15.859 16.503 L 15.980 16.306 15.991 12.086 C 16.003 7.327,16.021 7.628,15.698 7.304 C 15.514 7.121,15.245 7.000,15.020 7.000 C 14.786 7.000,14.486 7.117,14.327 7.272 C 14.234 7.361,13.757 8.116,13.120 9.180 C 12.542 10.148,12.050 10.963,12.028 10.991 C 12.000 11.028,11.696 10.553,10.916 9.251 C 10.326 8.266,9.781 7.393,9.704 7.311 C 9.463 7.055,9.030 6.945,8.695 7.055 " stroke="none" fill-rule="evenodd" fill="black"></path></svg>