<svg xmlns="http://www.w3.org/2000/svg" width="24" height="24" viewBox="0 0 24 24" fill="none" stroke="currentColor" stroke-width="2" stroke-linecap="round" stroke-linejoin="round"><path d="M11.528 1.062 C 10.814 1.255,10.563 1.504,9.780 2.800 C 9.455 3.339,9.019 4.060,8.812 4.403 C 8.490 4.936,8.432 5.058,8.413 5.249 C 8.382 5.550,8.418 5.713,8.566 5.936 C 8.798 6.288,9.249 6.462,9.632 6.350 L 9.831 6.291 9.796 6.415 C 9.741 6.607,9.753 6.947,9.821 7.109 C 10.054 7.666,10.684 7.896,11.206 7.614 C 11.540 7.434,11.643 7.262,11.822 6.586 C 11.907 6.263,11.987 6.000,12.000 6.000 C 12.013 6.000,12.263 6.913,12.557 8.030 C 13.236 10.609,13.240 10.621,13.429 10.816 C 13.911 11.314,14.673 11.214,15.031 10.606 C 15.214 10.293,15.191 10.115,14.745 8.440 C 14.531 7.637,14.347 6.953,14.336 6.920 C 14.323 6.882,14.329 6.875,14.351 6.900 C 14.395 6.949,19.800 15.883,19.905 16.080 C 19.966 16.196,19.979 16.311,19.980 16.743 C 19.980 17.254,19.983 17.270,20.101 17.462 C 20.255 17.711,20.479 17.868,20.768 17.928 C 21.090 17.995,21.375 17.903,21.640 17.647 C 21.909 17.386,21.980 17.142,21.979 16.480 C 21.978 15.941,21.904 15.606,21.692 15.181 C 21.636 15.070,19.807 12.028,17.626 8.421 C 14.088 2.571,13.632 1.834,13.400 1.600 C 12.899 1.096,12.176 0.888,11.528 1.062 M2.670 2.061 C 2.448 2.142,2.250 2.309,2.128 2.516 C 2.036 2.672,2.020 2.745,2.021 3.000 C 2.021 3.212,2.043 3.341,2.095 3.440 C 2.135 3.517,3.168 4.582,4.390 5.806 L 6.612 8.033 4.452 11.606 C 3.264 13.572,2.256 15.270,2.210 15.380 C 2.054 15.760,1.987 16.178,2.012 16.616 C 2.051 17.320,2.247 17.838,2.670 18.360 C 2.932 18.683,5.382 21.132,5.680 21.369 C 5.940 21.575,6.335 21.780,6.680 21.887 L 6.980 21.980 12.000 21.980 L 17.020 21.980 17.320 21.887 C 17.875 21.715,18.213 21.495,18.831 20.903 L 19.163 20.586 19.791 21.208 C 20.137 21.550,20.483 21.864,20.560 21.904 C 20.660 21.957,20.786 21.979,21.000 21.979 C 21.258 21.980,21.327 21.964,21.492 21.867 C 21.968 21.587,22.139 20.967,21.865 20.508 C 21.810 20.416,17.665 16.243,12.653 11.235 C 4.231 2.820,3.525 2.125,3.343 2.065 C 3.107 1.987,2.874 1.986,2.670 2.061 M8.447 9.870 L 8.793 10.220 7.638 14.580 C 7.003 16.978,6.462 19.018,6.436 19.114 L 6.388 19.287 5.311 18.214 C 4.719 17.623,4.187 17.060,4.129 16.962 C 3.994 16.735,3.978 16.303,4.096 16.080 C 4.247 15.793,8.056 9.520,8.078 9.520 C 8.091 9.520,8.257 9.678,8.447 9.870 M12.585 14.010 L 14.710 16.140 15.198 18.000 C 15.466 19.023,15.694 19.892,15.705 19.930 C 15.724 19.996,15.529 20.000,12.000 20.000 C 8.839 20.000,8.276 19.992,8.287 19.944 C 8.385 19.523,10.426 11.880,10.440 11.880 C 10.451 11.880,11.417 12.838,12.585 14.010 M17.678 19.222 C 17.629 19.282,17.619 19.275,17.575 19.154 C 17.501 18.951,17.510 18.932,17.627 19.049 C 17.720 19.142,17.727 19.164,17.678 19.222 " stroke="none" fill-rule="evenodd" fill="black"></path></svg>