<svg xmlns="http://www.w3.org/2000/svg" width="24" height="24" viewBox="0 0 24 24" fill="none" stroke="currentColor" stroke-width="2" stroke-linecap="round" stroke-linejoin="round"><path d="M11.542 1.044 C 11.206 1.093,10.917 1.183,10.607 1.334 C 10.326 1.471,3.711 5.363,3.400 5.574 C 2.940 5.886,2.556 6.345,2.298 6.892 C 2.004 7.516,2.023 7.205,2.009 11.720 C 1.999 15.327,2.005 15.816,2.062 16.100 C 2.197 16.773,2.552 17.405,3.043 17.852 C 3.266 18.054,4.217 18.675,6.849 20.339 C 8.779 21.559,10.434 22.596,10.527 22.644 C 11.438 23.109,12.561 23.109,13.471 22.645 C 13.630 22.564,20.226 18.402,20.600 18.147 C 21.088 17.814,21.516 17.281,21.752 16.712 C 22.005 16.102,22.000 16.202,22.000 11.844 C 22.000 7.576,22.004 7.665,21.787 7.068 C 21.605 6.567,21.270 6.102,20.812 5.713 C 20.635 5.563,19.382 4.802,17.082 3.447 C 15.178 2.326,13.548 1.372,13.460 1.329 C 12.903 1.057,12.187 0.950,11.542 1.044 M12.597 3.138 C 12.893 3.289,19.211 7.019,19.433 7.175 C 19.536 7.247,19.678 7.382,19.750 7.476 C 20.011 7.818,20.003 7.658,19.991 11.943 L 19.980 15.820 19.872 16.025 C 19.812 16.138,19.709 16.284,19.643 16.351 C 19.481 16.513,12.718 20.790,12.440 20.906 C 12.151 21.027,11.850 21.027,11.560 20.907 C 11.284 20.791,4.519 16.513,4.356 16.350 C 4.290 16.284,4.188 16.138,4.128 16.025 L 4.020 15.820 4.020 11.860 L 4.020 7.900 4.129 7.693 C 4.190 7.578,4.301 7.425,4.376 7.353 C 4.561 7.174,11.452 3.117,11.680 3.052 C 11.947 2.975,12.350 3.013,12.597 3.138 M11.499 7.040 C 10.363 7.246,9.461 8.048,9.114 9.160 L 9.020 9.460 9.020 12.000 L 9.020 14.540 9.114 14.840 C 9.422 15.827,10.174 16.579,11.160 16.886 C 11.594 17.021,12.406 17.021,12.840 16.886 C 13.827 16.579,14.584 15.821,14.885 14.840 C 14.955 14.611,14.977 14.440,14.978 14.120 C 14.980 13.733,14.971 13.686,14.871 13.514 C 14.568 12.998,13.883 12.854,13.405 13.205 C 13.169 13.379,13.047 13.609,13.002 13.966 C 12.981 14.130,12.945 14.314,12.922 14.375 C 12.851 14.561,12.677 14.758,12.484 14.872 C 12.328 14.963,12.254 14.980,12.000 14.980 C 11.746 14.980,11.672 14.963,11.516 14.872 C 11.303 14.747,11.141 14.550,11.058 14.316 C 10.970 14.065,10.972 9.988,11.061 9.690 C 11.173 9.312,11.598 9.000,12.000 9.000 C 12.223 9.000,12.510 9.120,12.679 9.283 C 12.886 9.485,12.951 9.636,13.001 10.031 C 13.049 10.410,13.184 10.647,13.452 10.828 C 13.923 11.144,14.554 10.998,14.859 10.503 C 14.974 10.315,14.980 10.285,14.978 9.883 C 14.977 9.559,14.955 9.390,14.885 9.160 C 14.586 8.184,13.811 7.407,12.861 7.129 C 12.500 7.023,11.832 6.980,11.499 7.040 " stroke="none" fill-rule="evenodd" fill="black"></path></svg>