<svg xmlns="http://www.w3.org/2000/svg" width="24" height="24" viewBox="0 0 24 24" fill="none" stroke="currentColor" stroke-width="2" stroke-linecap="round" stroke-linejoin="round"><path d="M14.814 2.737 C 14.279 2.839,13.796 3.041,13.300 3.370 C 13.145 3.473,11.125 5.465,7.594 8.995 C 2.462 14.127,2.125 14.472,2.063 14.664 C 2.005 14.845,1.999 15.119,2.009 17.084 L 2.020 19.300 2.131 19.489 C 2.256 19.702,2.449 19.864,2.670 19.943 C 2.788 19.985,3.281 19.997,4.983 19.998 C 6.871 20.000,7.171 19.992,7.343 19.935 C 7.524 19.876,7.973 19.438,13.024 14.385 C 16.620 10.788,18.558 8.821,18.656 8.670 C 18.882 8.320,19.068 7.921,19.187 7.532 C 19.284 7.213,19.294 7.118,19.297 6.520 C 19.300 5.804,19.246 5.517,19.009 4.980 C 18.543 3.923,17.559 3.080,16.460 2.796 C 16.046 2.689,15.219 2.659,14.814 2.737 M15.982 4.742 C 16.940 4.992,17.514 5.999,17.258 6.982 C 17.176 7.297,17.037 7.526,16.745 7.832 L 16.504 8.084 15.212 6.792 L 13.921 5.501 14.141 5.279 C 14.660 4.754,15.306 4.566,15.982 4.742 M11.790 12.790 L 8.500 16.080 7.210 14.790 L 5.920 13.500 9.210 10.210 L 12.500 6.920 13.790 8.210 L 15.080 9.500 11.790 12.790 M16.723 14.047 C 16.647 14.068,16.512 14.137,16.423 14.200 C 16.333 14.262,15.331 15.246,14.195 16.387 C 12.255 18.335,12.126 18.473,12.060 18.675 C 11.888 19.205,12.155 19.759,12.670 19.943 C 12.892 20.022,21.108 20.022,21.330 19.943 C 21.551 19.864,21.744 19.702,21.869 19.489 L 21.980 19.300 21.980 17.000 L 21.980 14.700 21.872 14.516 C 21.813 14.415,21.698 14.282,21.618 14.221 C 21.332 14.003,21.290 14.000,18.984 14.004 C 17.721 14.006,16.804 14.023,16.723 14.047 M6.831 17.749 L 6.582 18.000 5.291 18.000 L 4.000 18.000 4.000 16.711 L 4.000 15.422 4.249 15.171 L 4.499 14.919 5.789 16.209 L 7.079 17.499 6.831 17.749 M20.000 17.000 L 20.000 18.000 17.710 18.000 L 15.421 18.000 16.420 17.000 L 17.419 16.000 18.710 16.000 L 20.000 16.000 20.000 17.000 " stroke="none" fill-rule="evenodd" fill="black"></path></svg>