<svg xmlns="http://www.w3.org/2000/svg" width="24" height="24" viewBox="0 0 24 24" fill="none" stroke="currentColor" stroke-width="2" stroke-linecap="round" stroke-linejoin="round"><path d="M9.600 2.285 C 8.421 2.605,7.385 3.061,6.542 3.631 C 6.202 3.861,6.128 3.931,6.032 4.115 C 5.686 4.777,6.159 5.571,6.900 5.571 C 7.162 5.571,7.292 5.521,7.680 5.268 C 8.342 4.837,9.141 4.496,10.193 4.198 C 10.683 4.059,10.999 3.676,10.999 3.220 C 10.999 2.848,10.725 2.441,10.374 2.295 C 10.226 2.233,9.811 2.228,9.600 2.285 M13.617 2.297 C 13.415 2.385,13.193 2.606,13.094 2.820 C 12.829 3.389,13.150 4.011,13.808 4.201 C 15.569 4.708,16.713 5.366,17.773 6.479 C 19.089 7.862,19.810 9.495,19.963 11.438 C 20.186 14.279,18.827 17.047,16.416 18.662 C 15.693 19.146,14.902 19.492,13.807 19.802 C 12.890 20.062,12.711 21.152,13.505 21.643 C 13.830 21.844,14.168 21.810,15.180 21.475 C 16.827 20.930,18.401 19.878,19.516 18.580 C 20.850 17.025,21.629 15.314,21.910 13.320 C 21.997 12.695,21.997 11.305,21.910 10.680 C 21.629 8.686,20.850 6.975,19.516 5.420 C 18.296 3.999,16.591 2.918,14.727 2.382 C 14.194 2.229,13.836 2.201,13.617 2.297 M3.843 6.589 C 3.585 6.680,3.366 6.925,3.128 7.389 C 2.716 8.191,2.374 9.159,2.200 10.019 C 2.071 10.655,2.135 10.944,2.472 11.248 C 2.851 11.590,3.406 11.580,3.793 11.225 C 4.011 11.024,4.051 10.933,4.177 10.351 C 4.325 9.666,4.530 9.088,4.870 8.400 C 5.156 7.821,5.176 7.763,5.176 7.520 C 5.177 7.168,5.033 6.885,4.770 6.718 C 4.445 6.512,4.170 6.473,3.843 6.589 M11.695 7.057 C 11.466 7.129,11.256 7.299,11.128 7.516 L 11.020 7.700 11.009 9.916 C 10.999 11.894,11.005 12.153,11.064 12.336 C 11.125 12.522,11.273 12.683,12.735 14.153 C 13.618 15.040,14.421 15.814,14.520 15.873 C 14.672 15.963,14.746 15.980,15.000 15.980 C 15.257 15.980,15.327 15.964,15.492 15.867 C 15.714 15.737,15.901 15.498,15.965 15.264 C 16.019 15.061,15.989 14.733,15.899 14.555 C 15.862 14.481,15.195 13.781,14.417 13.000 L 13.002 11.580 12.991 9.640 L 12.980 7.700 12.872 7.516 C 12.628 7.101,12.150 6.915,11.695 7.057 M2.938 13.595 C 2.735 13.688,2.469 13.987,2.407 14.192 C 2.330 14.448,2.352 14.656,2.502 15.122 C 2.765 15.934,3.196 16.817,3.672 17.518 C 3.860 17.797,3.939 17.876,4.115 17.968 C 4.720 18.284,5.430 17.935,5.556 17.259 C 5.609 16.976,5.536 16.746,5.248 16.281 C 4.909 15.735,4.608 15.100,4.400 14.495 C 4.212 13.946,4.088 13.766,3.797 13.619 C 3.554 13.495,3.181 13.485,2.938 13.595 M7.235 18.853 C 6.889 18.981,6.688 19.175,6.578 19.487 C 6.452 19.843,6.567 20.297,6.843 20.533 C 7.351 20.968,9.383 21.762,10.002 21.766 C 10.394 21.769,10.735 21.548,10.906 21.180 C 11.172 20.610,10.850 19.988,10.193 19.802 C 9.447 19.590,8.974 19.415,8.411 19.142 C 7.745 18.818,7.496 18.757,7.235 18.853 " stroke="none" fill-rule="evenodd" fill="black"></path></svg>