<svg xmlns="http://www.w3.org/2000/svg" width="24" height="24" viewBox="0 0 24 24" fill="none" stroke="currentColor" stroke-width="2" stroke-linecap="round" stroke-linejoin="round"><path d="M10.900 1.982 C 9.886 2.094,8.717 2.419,7.821 2.839 C 7.271 3.097,7.154 3.185,7.024 3.447 C 6.728 4.041,7.065 4.736,7.716 4.875 C 7.968 4.929,8.199 4.871,8.740 4.618 C 9.823 4.110,10.934 3.891,12.219 3.931 C 14.628 4.007,16.719 5.037,18.238 6.898 C 19.826 8.842,20.401 11.632,19.714 14.060 C 19.600 14.461,19.535 14.633,19.267 15.240 C 18.974 15.904,18.951 16.126,19.141 16.476 C 19.332 16.825,19.629 17.001,20.029 16.999 C 20.495 16.997,20.747 16.796,21.030 16.200 C 22.289 13.550,22.325 10.533,21.130 7.840 C 20.265 5.892,18.755 4.237,16.900 3.200 C 15.080 2.183,12.965 1.754,10.900 1.982 M2.670 2.061 C 2.448 2.142,2.250 2.309,2.128 2.516 C 2.036 2.672,2.020 2.745,2.021 3.000 C 2.021 3.213,2.043 3.341,2.095 3.440 C 2.136 3.517,2.629 4.042,3.190 4.607 L 4.212 5.634 3.981 5.941 C 2.977 7.274,2.306 8.945,2.078 10.678 C 2.010 11.198,2.088 11.450,2.411 11.748 C 2.724 12.036,3.203 12.075,3.570 11.843 C 3.896 11.635,4.000 11.435,4.079 10.860 C 4.211 9.905,4.505 8.988,4.945 8.161 C 5.132 7.807,5.599 7.080,5.638 7.080 C 5.699 7.080,16.855 18.286,16.818 18.311 C 16.420 18.589,15.911 18.904,15.650 19.035 C 14.764 19.480,13.788 19.767,12.780 19.879 C 11.192 20.056,9.342 19.642,7.924 18.794 C 6.893 18.177,5.910 17.231,5.283 16.252 L 5.124 16.003 6.732 15.992 C 8.292 15.980,8.345 15.977,8.500 15.894 C 9.218 15.506,9.218 14.494,8.500 14.106 C 8.340 14.020,8.332 14.020,5.560 14.020 C 2.792 14.020,2.779 14.020,2.619 14.106 C 2.415 14.215,2.255 14.375,2.146 14.579 C 2.060 14.739,2.060 14.752,2.060 17.500 C 2.060 20.258,2.060 20.260,2.147 20.423 C 2.546 21.168,3.540 21.189,3.934 20.460 C 4.015 20.310,4.021 20.231,4.040 19.146 L 4.060 17.992 4.280 18.266 C 4.821 18.937,5.753 19.770,6.545 20.288 C 8.635 21.656,11.209 22.194,13.660 21.774 C 15.182 21.513,16.735 20.861,17.880 20.002 C 18.045 19.878,18.204 19.762,18.234 19.744 C 18.273 19.720,18.589 20.010,19.354 20.771 C 19.940 21.354,20.483 21.864,20.560 21.905 C 20.659 21.957,20.787 21.979,21.000 21.979 C 21.258 21.980,21.327 21.964,21.492 21.867 C 21.968 21.587,22.139 20.967,21.865 20.508 C 21.810 20.416,17.665 16.243,12.653 11.235 C 4.231 2.820,3.525 2.125,3.343 2.065 C 3.107 1.987,2.874 1.986,2.670 2.061 " stroke="none" fill-rule="evenodd" fill="black"></path></svg>