<svg xmlns="http://www.w3.org/2000/svg" width="24" height="24" viewBox="0 0 24 24" fill="none" stroke="currentColor" stroke-width="2" stroke-linecap="round" stroke-linejoin="round"><path d="M11.200 1.944 C 10.545 2.022,10.329 2.054,9.980 2.124 C 8.087 2.503,6.352 3.444,4.938 4.858 C 3.343 6.453,2.382 8.408,2.079 10.678 C 2.010 11.198,2.088 11.450,2.411 11.748 C 2.724 12.036,3.203 12.075,3.570 11.843 C 3.908 11.628,3.994 11.453,4.099 10.760 C 4.449 8.468,5.652 6.566,7.576 5.262 C 8.275 4.788,9.339 4.321,10.140 4.138 C 11.830 3.750,13.580 3.898,15.140 4.562 C 16.075 4.960,16.832 5.468,17.593 6.211 C 18.811 7.399,19.591 8.890,19.881 10.585 C 20.255 12.773,19.692 15.026,18.332 16.788 C 17.086 18.401,15.388 19.420,13.300 19.807 C 12.605 19.935,11.429 19.935,10.720 19.806 C 8.432 19.391,6.597 18.202,5.327 16.312 L 5.120 16.003 6.730 15.992 C 8.292 15.980,8.345 15.977,8.500 15.894 C 9.218 15.506,9.218 14.494,8.500 14.106 C 8.340 14.020,8.332 14.020,5.560 14.020 C 2.792 14.020,2.779 14.020,2.619 14.106 C 2.415 14.215,2.255 14.375,2.146 14.579 C 2.060 14.739,2.060 14.752,2.060 17.500 C 2.060 20.258,2.060 20.260,2.147 20.423 C 2.546 21.168,3.540 21.189,3.934 20.460 C 4.015 20.310,4.021 20.231,4.040 19.146 L 4.060 17.992 4.280 18.266 C 4.812 18.927,5.677 19.708,6.440 20.217 C 9.821 22.473,14.229 22.471,17.573 20.213 C 19.655 18.807,21.127 16.697,21.715 14.275 C 21.938 13.357,21.979 12.993,21.979 11.920 C 21.979 10.819,21.932 10.418,21.693 9.465 C 20.994 6.680,19.113 4.322,16.549 3.016 C 15.522 2.493,14.572 2.189,13.420 2.016 C 13.039 1.958,11.498 1.909,11.200 1.944 M11.695 7.057 C 11.466 7.129,11.256 7.299,11.128 7.516 L 11.020 7.700 11.009 9.916 C 10.999 11.900,11.004 12.153,11.064 12.336 C 11.124 12.518,11.249 12.659,12.236 13.653 C 12.843 14.266,13.416 14.811,13.508 14.866 C 13.969 15.138,14.588 14.968,14.867 14.492 C 14.964 14.327,14.980 14.258,14.979 14.000 C 14.979 13.787,14.957 13.659,14.905 13.560 C 14.864 13.483,14.420 13.006,13.917 12.500 L 13.003 11.580 12.991 9.640 L 12.980 7.700 12.872 7.516 C 12.628 7.101,12.150 6.915,11.695 7.057 " stroke="none" fill-rule="evenodd" fill="black"></path></svg>