<svg xmlns="http://www.w3.org/2000/svg" width="24" height="24" viewBox="0 0 24 24" fill="none" stroke="currentColor" stroke-width="2" stroke-linecap="round" stroke-linejoin="round"><path d="M11.640 2.068 C 11.483 2.121,10.863 2.725,6.847 6.735 C 4.174 9.404,2.189 11.416,2.127 11.520 C 2.036 11.672,2.020 11.746,2.020 12.000 C 2.020 12.254,2.037 12.328,2.128 12.484 C 2.187 12.585,2.300 12.716,2.377 12.775 C 2.623 12.962,2.798 13.000,3.423 13.000 L 3.997 13.000 4.009 16.290 L 4.021 19.580 4.114 19.860 C 4.442 20.839,5.161 21.559,6.140 21.886 L 6.420 21.979 9.540 21.991 C 13.024 22.005,12.847 22.018,13.173 21.724 C 13.381 21.536,13.488 21.292,13.488 21.003 C 13.488 20.615,13.294 20.298,12.940 20.106 C 12.786 20.023,12.727 20.020,11.390 20.008 L 10.000 19.996 10.000 17.445 C 10.000 14.538,9.993 14.614,10.303 14.303 C 10.586 14.020,10.697 14.000,12.000 14.000 C 13.280 14.000,13.409 14.022,13.679 14.283 C 13.886 14.485,13.951 14.636,14.001 15.031 C 14.049 15.410,14.184 15.647,14.452 15.828 C 14.923 16.144,15.554 15.998,15.859 15.503 C 15.974 15.315,15.980 15.285,15.978 14.883 C 15.977 14.559,15.955 14.390,15.885 14.160 C 15.583 13.175,14.792 12.390,13.822 12.112 C 13.512 12.023,13.446 12.020,12.000 12.020 C 10.554 12.020,10.488 12.023,10.178 12.112 C 9.219 12.387,8.446 13.147,8.115 14.140 L 8.021 14.420 8.009 17.213 L 7.996 20.007 7.348 19.993 C 6.728 19.981,6.692 19.975,6.516 19.872 C 6.328 19.761,6.158 19.572,6.070 19.373 C 6.032 19.286,6.015 18.382,6.000 15.477 L 5.980 11.694 5.860 11.500 C 5.794 11.394,5.656 11.250,5.554 11.179 L 5.368 11.052 8.684 7.736 L 12.000 4.420 15.316 7.736 L 18.632 11.052 18.446 11.179 C 18.344 11.250,18.206 11.394,18.140 11.500 C 18.034 11.671,18.020 11.730,18.020 11.997 C 18.020 12.256,18.036 12.327,18.131 12.489 C 18.256 12.702,18.449 12.864,18.670 12.943 C 18.885 13.020,21.115 13.020,21.330 12.943 C 21.845 12.759,22.111 12.206,21.941 11.675 C 21.874 11.469,21.671 11.260,17.206 6.795 C 12.918 2.508,12.524 2.124,12.343 2.065 C 12.102 1.986,11.878 1.987,11.640 2.068 M18.670 15.061 C 18.448 15.142,18.250 15.309,18.128 15.516 C 18.036 15.672,18.020 15.745,18.021 16.000 C 18.021 16.213,18.043 16.340,18.096 16.440 C 18.136 16.517,18.486 16.899,18.873 17.290 L 19.577 18.000 17.735 18.000 C 15.735 18.000,15.663 18.007,15.382 18.221 C 15.302 18.282,15.187 18.415,15.128 18.516 C 15.037 18.672,15.020 18.746,15.020 19.000 C 15.020 19.256,15.036 19.328,15.131 19.489 C 15.256 19.702,15.449 19.864,15.670 19.943 C 15.787 19.985,16.234 19.997,17.699 19.998 L 19.577 20.000 18.873 20.710 C 18.486 21.101,18.139 21.481,18.101 21.555 C 17.872 22.008,18.056 22.601,18.508 22.867 C 18.673 22.964,18.742 22.980,19.000 22.979 C 19.212 22.979,19.341 22.957,19.440 22.905 C 19.517 22.865,20.306 22.109,21.194 21.226 C 22.957 19.472,22.999 19.420,22.999 19.000 C 22.999 18.578,22.960 18.530,21.175 16.756 C 19.716 15.307,19.519 15.124,19.343 15.066 C 19.108 14.987,18.875 14.986,18.670 15.061 " stroke="none" fill-rule="evenodd" fill="black"></path></svg>