<svg xmlns="http://www.w3.org/2000/svg" width="24" height="24" viewBox="0 0 24 24" fill="none" stroke="currentColor" stroke-width="2" stroke-linecap="round" stroke-linejoin="round"><path d="M11.640 2.068 C 11.483 2.121,10.864 2.725,6.794 6.794 C 2.329 11.259,2.126 11.469,2.059 11.675 C 1.889 12.206,2.155 12.759,2.670 12.943 C 2.768 12.978,3.022 12.997,3.408 12.998 L 3.997 13.000 4.009 16.290 L 4.021 19.580 4.114 19.860 C 4.445 20.850,5.184 21.582,6.160 21.886 L 6.460 21.980 12.000 21.980 L 17.540 21.980 17.840 21.886 C 18.816 21.582,19.555 20.850,19.886 19.860 L 19.979 19.580 19.991 16.290 L 20.003 13.000 20.577 13.000 C 21.202 13.000,21.377 12.962,21.623 12.775 C 21.700 12.716,21.813 12.585,21.872 12.484 C 21.963 12.328,21.980 12.254,21.980 12.000 C 21.980 11.746,21.964 11.672,21.873 11.520 C 21.811 11.416,19.826 9.404,17.153 6.735 C 12.920 2.510,12.524 2.125,12.343 2.065 C 12.102 1.986,11.878 1.986,11.640 2.068 M15.336 7.756 C 18.246 10.667,18.640 11.075,18.563 11.099 C 18.410 11.148,18.191 11.372,18.094 11.580 L 18.001 11.780 18.000 15.444 C 18.000 19.419,18.005 19.321,17.779 19.618 C 17.718 19.698,17.585 19.813,17.484 19.872 L 17.300 19.980 12.000 19.980 L 6.700 19.980 6.516 19.872 C 6.415 19.813,6.284 19.700,6.225 19.623 C 5.992 19.317,6.000 19.474,6.000 15.465 L 5.999 11.780 5.906 11.580 C 5.809 11.372,5.590 11.148,5.437 11.099 C 5.360 11.075,5.754 10.667,8.664 7.756 C 10.488 5.932,11.989 4.440,12.000 4.440 C 12.011 4.440,13.512 5.932,15.336 7.756 M9.695 11.057 C 9.466 11.129,9.256 11.299,9.128 11.516 L 9.020 11.700 9.020 14.000 L 9.020 16.300 9.131 16.489 C 9.256 16.702,9.449 16.864,9.670 16.943 C 9.889 17.021,14.111 17.021,14.330 16.943 C 14.551 16.864,14.744 16.702,14.869 16.489 L 14.980 16.300 14.980 14.000 L 14.980 11.700 14.872 11.516 C 14.740 11.293,14.533 11.128,14.290 11.055 C 14.033 10.978,9.943 10.979,9.695 11.057 M13.000 14.000 L 13.000 15.000 12.000 15.000 L 11.000 15.000 11.000 14.000 L 11.000 13.000 12.000 13.000 L 13.000 13.000 13.000 14.000 " stroke="none" fill-rule="evenodd" fill="black"></path></svg>