<svg xmlns="http://www.w3.org/2000/svg" width="24" height="24" viewBox="0 0 24 24" fill="none" stroke="currentColor" stroke-width="2" stroke-linecap="round" stroke-linejoin="round"><path d="M11.640 2.068 C 11.483 2.121,10.863 2.725,6.847 6.735 C 4.174 9.404,2.189 11.416,2.127 11.520 C 2.036 11.672,2.020 11.746,2.020 12.000 C 2.020 12.254,2.037 12.328,2.128 12.484 C 2.187 12.585,2.300 12.716,2.377 12.775 C 2.623 12.962,2.798 13.000,3.423 13.000 L 3.997 13.000 4.009 16.290 L 4.021 19.580 4.114 19.860 C 4.442 20.839,5.163 21.561,6.140 21.885 C 6.418 21.978,6.435 21.978,8.768 21.991 C 10.321 22.000,11.169 21.990,11.272 21.962 C 11.498 21.901,11.738 21.711,11.867 21.492 C 11.964 21.327,11.980 21.257,11.980 21.000 C 11.980 20.746,11.963 20.672,11.872 20.516 C 11.633 20.110,11.352 20.000,10.554 20.000 L 10.000 20.000 10.000 17.447 C 10.000 14.538,9.993 14.614,10.303 14.303 C 10.586 14.020,10.697 14.000,12.000 14.000 C 13.303 14.000,13.414 14.020,13.697 14.303 C 13.931 14.537,14.000 14.763,14.000 15.297 C 14.001 15.637,14.016 15.731,14.095 15.900 C 14.276 16.282,14.595 16.488,15.003 16.488 C 15.422 16.488,15.785 16.232,15.940 15.826 C 16.043 15.555,16.008 14.543,15.880 14.140 C 15.573 13.165,14.783 12.388,13.822 12.112 C 13.512 12.023,13.446 12.020,12.000 12.020 C 10.554 12.020,10.488 12.023,10.178 12.112 C 9.219 12.387,8.446 13.147,8.115 14.140 L 8.021 14.420 8.009 17.213 L 7.996 20.007 7.348 19.993 C 6.728 19.981,6.692 19.975,6.516 19.872 C 6.328 19.761,6.158 19.572,6.070 19.373 C 6.032 19.286,6.015 18.382,6.000 15.477 L 5.980 11.694 5.860 11.500 C 5.794 11.394,5.656 11.250,5.554 11.179 L 5.368 11.052 8.684 7.736 L 12.000 4.420 15.316 7.736 L 18.632 11.052 18.446 11.179 C 18.344 11.250,18.206 11.394,18.140 11.500 C 18.027 11.683,18.019 11.721,18.006 12.180 C 17.994 12.614,18.002 12.690,18.082 12.875 C 18.186 13.118,18.462 13.380,18.675 13.439 C 19.067 13.548,19.412 13.466,19.691 13.197 L 19.895 13.000 20.538 12.998 C 20.969 12.997,21.229 12.979,21.330 12.943 C 21.845 12.759,22.111 12.206,21.941 11.675 C 21.874 11.469,21.671 11.260,17.206 6.795 C 12.918 2.508,12.524 2.124,12.343 2.065 C 12.102 1.986,11.878 1.987,11.640 2.068 M20.695 15.057 C 20.466 15.129,20.256 15.299,20.128 15.516 L 20.020 15.700 20.020 19.003 L 20.020 22.306 20.141 22.503 C 20.543 23.156,21.457 23.156,21.859 22.503 L 21.980 22.306 21.980 19.003 L 21.980 15.700 21.872 15.516 C 21.628 15.101,21.150 14.915,20.695 15.057 M17.695 17.057 C 17.466 17.129,17.256 17.299,17.128 17.516 L 17.020 17.700 17.020 20.003 L 17.020 22.306 17.141 22.503 C 17.209 22.613,17.346 22.756,17.452 22.828 C 17.923 23.144,18.554 22.999,18.859 22.503 L 18.980 22.306 18.980 20.003 L 18.980 17.700 18.872 17.516 C 18.628 17.101,18.150 16.915,17.695 17.057 M14.695 19.057 C 14.466 19.129,14.256 19.299,14.128 19.516 L 14.020 19.700 14.020 21.003 L 14.020 22.306 14.141 22.503 C 14.543 23.156,15.457 23.156,15.859 22.503 L 15.980 22.306 15.980 21.003 L 15.980 19.700 15.872 19.516 C 15.628 19.101,15.150 18.915,14.695 19.057 " stroke="none" fill-rule="evenodd" fill="black"></path></svg>