<svg xmlns="http://www.w3.org/2000/svg" width="24" height="24" viewBox="0 0 24 24" fill="none" stroke="currentColor" stroke-width="2" stroke-linecap="round" stroke-linejoin="round"><path d="M11.640 2.068 C 11.483 2.121,10.863 2.725,6.847 6.735 C 4.174 9.404,2.189 11.416,2.127 11.520 C 2.036 11.672,2.020 11.746,2.020 12.000 C 2.020 12.254,2.037 12.328,2.128 12.484 C 2.187 12.585,2.300 12.716,2.377 12.775 C 2.623 12.962,2.798 13.000,3.423 13.000 L 3.997 13.000 4.009 16.290 L 4.021 19.580 4.114 19.860 C 4.442 20.839,5.163 21.560,6.140 21.885 L 6.420 21.979 9.029 21.991 C 10.801 22.000,11.689 21.990,11.797 21.961 C 12.199 21.853,12.520 21.426,12.520 21.000 C 12.520 20.580,12.202 20.151,11.809 20.042 C 11.727 20.019,11.287 20.000,10.830 20.000 L 10.000 20.000 10.000 17.447 C 10.000 14.538,9.993 14.614,10.303 14.303 C 10.586 14.020,10.697 14.000,12.000 14.000 C 13.280 14.000,13.409 14.022,13.679 14.283 C 13.886 14.485,13.951 14.636,14.001 15.031 C 14.049 15.410,14.184 15.647,14.452 15.828 C 14.923 16.144,15.554 15.998,15.859 15.503 C 15.974 15.315,15.980 15.285,15.978 14.883 C 15.977 14.559,15.955 14.390,15.885 14.160 C 15.583 13.175,14.792 12.390,13.822 12.112 C 13.512 12.023,13.446 12.020,12.000 12.020 C 10.554 12.020,10.488 12.023,10.178 12.112 C 9.219 12.387,8.446 13.147,8.115 14.140 L 8.021 14.420 8.009 17.213 L 7.996 20.007 7.348 19.993 C 6.728 19.981,6.692 19.975,6.516 19.872 C 6.328 19.761,6.158 19.572,6.070 19.373 C 6.032 19.286,6.015 18.382,6.000 15.477 L 5.980 11.694 5.860 11.500 C 5.794 11.394,5.656 11.250,5.554 11.179 L 5.368 11.052 8.684 7.736 L 12.000 4.420 15.316 7.736 L 18.632 11.052 18.446 11.179 C 18.344 11.250,18.206 11.394,18.140 11.500 L 18.020 11.694 18.020 12.737 C 18.020 13.729,18.024 13.788,18.106 13.940 C 18.455 14.586,19.354 14.666,19.788 14.089 C 19.952 13.871,19.999 13.696,20.000 13.310 L 20.000 13.000 20.590 12.998 C 20.977 12.997,21.232 12.978,21.330 12.943 C 21.845 12.759,22.111 12.206,21.941 11.675 C 21.874 11.469,21.671 11.260,17.206 6.795 C 12.918 2.508,12.524 2.124,12.343 2.065 C 12.102 1.986,11.878 1.987,11.640 2.068 M20.640 16.068 C 20.488 16.121,20.196 16.394,18.731 17.853 L 17.002 19.575 16.271 18.855 C 15.655 18.247,15.509 18.123,15.343 18.067 C 14.865 17.905,14.383 18.083,14.128 18.516 C 14.036 18.672,14.020 18.745,14.021 19.000 C 14.021 19.213,14.043 19.341,14.095 19.440 C 14.197 19.633,16.297 21.740,16.520 21.873 C 16.673 21.964,16.745 21.980,17.000 21.979 C 17.212 21.979,17.341 21.957,17.440 21.905 C 17.632 21.805,21.739 17.705,21.873 17.480 C 21.964 17.328,21.980 17.254,21.980 17.000 C 21.980 16.746,21.963 16.672,21.872 16.516 C 21.617 16.083,21.121 15.903,20.640 16.068 " stroke="none" fill-rule="evenodd" fill="black"></path></svg>