<svg xmlns="http://www.w3.org/2000/svg" width="24" height="24" viewBox="0 0 24 24" fill="none" stroke="currentColor" stroke-width="2" stroke-linecap="round" stroke-linejoin="round"><path d="M2.670 2.061 C 2.448 2.142,2.250 2.309,2.128 2.516 C 2.037 2.672,2.020 2.746,2.020 3.000 C 2.020 3.254,2.036 3.327,2.127 3.480 C 2.187 3.579,3.100 4.524,4.157 5.579 L 6.079 7.499 4.105 9.479 C 2.251 11.339,2.126 11.473,2.060 11.675 C 1.888 12.204,2.155 12.759,2.670 12.943 C 2.768 12.978,3.022 12.997,3.408 12.998 L 3.997 13.000 4.009 16.290 L 4.021 19.580 4.114 19.860 C 4.445 20.850,5.184 21.582,6.160 21.886 L 6.460 21.980 12.000 21.980 L 17.540 21.980 17.839 21.886 C 18.394 21.712,18.773 21.473,19.197 21.032 L 19.398 20.822 19.909 21.326 C 20.190 21.603,20.483 21.863,20.560 21.904 C 20.660 21.957,20.786 21.979,21.000 21.979 C 21.258 21.980,21.327 21.964,21.492 21.867 C 21.968 21.587,22.139 20.967,21.865 20.508 C 21.810 20.416,17.665 16.243,12.653 11.235 C 4.231 2.820,3.525 2.125,3.343 2.065 C 3.107 1.987,2.874 1.986,2.670 2.061 M11.673 2.054 C 11.446 2.139,11.310 2.263,9.937 3.647 C 9.113 4.477,8.628 4.996,8.582 5.097 C 8.479 5.321,8.486 5.705,8.598 5.935 C 8.698 6.142,8.908 6.342,9.117 6.430 C 9.315 6.513,9.710 6.507,9.903 6.418 C 10.000 6.373,10.430 5.979,11.031 5.384 L 12.002 4.422 15.320 7.740 L 18.639 11.059 18.505 11.127 C 18.327 11.219,18.145 11.433,18.063 11.646 C 18.004 11.801,17.998 12.016,18.008 13.563 L 18.020 15.306 18.141 15.503 C 18.543 16.156,19.457 16.156,19.859 15.503 L 19.980 15.307 19.992 14.153 L 20.005 13.000 20.577 13.000 C 21.202 13.000,21.377 12.962,21.623 12.775 C 21.700 12.716,21.813 12.585,21.872 12.484 C 21.964 12.328,21.980 12.255,21.979 12.000 C 21.979 11.788,21.957 11.659,21.905 11.560 C 21.808 11.373,12.708 2.263,12.488 2.133 C 12.279 2.008,11.895 1.971,11.673 2.054 M10.236 12.105 C 9.252 12.354,8.455 13.118,8.115 14.140 L 8.021 14.420 8.009 17.213 L 7.996 20.007 7.348 19.993 C 6.728 19.981,6.692 19.975,6.516 19.872 C 6.415 19.813,6.284 19.700,6.225 19.623 C 5.992 19.317,6.000 19.474,6.000 15.465 L 5.999 11.780 5.906 11.580 C 5.809 11.372,5.590 11.148,5.437 11.099 C 5.359 11.074,5.472 10.949,6.424 9.996 L 7.500 8.920 9.047 10.467 L 10.595 12.014 10.236 12.105 M13.290 14.710 L 14.000 15.421 14.000 17.710 L 14.000 20.000 12.000 20.000 L 10.000 20.000 10.000 17.447 C 10.000 14.538,9.993 14.614,10.304 14.303 C 10.573 14.033,10.701 14.006,11.720 14.003 L 12.581 14.000 13.290 14.710 M17.920 19.382 C 17.920 19.476,17.661 19.768,17.486 19.871 C 17.307 19.976,17.274 19.981,16.650 19.993 L 16.000 20.007 16.000 18.714 L 16.000 17.421 16.960 18.380 C 17.488 18.908,17.920 19.358,17.920 19.382 " stroke="none" fill-rule="evenodd" fill="black"></path></svg>