<svg xmlns="http://www.w3.org/2000/svg" width="24" height="24" viewBox="0 0 24 24" fill="none" stroke="currentColor" stroke-width="2" stroke-linecap="round" stroke-linejoin="round"><path d="M11.640 2.068 C 11.483 2.121,10.863 2.725,6.847 6.735 C 4.174 9.404,2.189 11.416,2.127 11.520 C 2.036 11.672,2.020 11.746,2.020 12.000 C 2.020 12.254,2.037 12.328,2.128 12.484 C 2.187 12.585,2.300 12.716,2.377 12.775 C 2.623 12.962,2.798 13.000,3.423 13.000 L 3.997 13.000 4.009 16.290 L 4.021 19.580 4.114 19.860 C 4.442 20.839,5.162 21.559,6.140 21.885 L 6.420 21.979 9.269 21.991 C 11.156 21.999,12.171 21.989,12.273 21.962 C 12.498 21.901,12.738 21.711,12.867 21.492 C 12.964 21.327,12.980 21.257,12.980 21.000 C 12.980 20.746,12.963 20.672,12.872 20.516 C 12.813 20.415,12.698 20.282,12.618 20.221 C 12.356 20.022,12.203 20.000,11.054 20.000 L 10.000 20.000 10.000 17.447 C 10.000 14.538,9.993 14.614,10.303 14.303 C 10.574 14.033,10.726 14.000,11.717 14.000 C 12.499 13.999,12.550 13.995,12.740 13.905 C 13.121 13.724,13.328 13.405,13.328 13.000 C 13.328 12.615,13.133 12.297,12.780 12.106 C 12.627 12.024,12.571 12.020,11.560 12.020 C 10.574 12.020,10.478 12.026,10.178 12.112 C 9.219 12.387,8.446 13.147,8.115 14.140 L 8.021 14.420 8.009 17.213 L 7.996 20.007 7.348 19.993 C 6.728 19.981,6.692 19.975,6.516 19.872 C 6.328 19.761,6.158 19.572,6.070 19.373 C 6.032 19.286,6.015 18.382,6.000 15.477 L 5.980 11.694 5.860 11.500 C 5.794 11.394,5.656 11.250,5.554 11.179 L 5.368 11.052 8.684 7.736 L 12.000 4.420 15.550 7.966 C 17.502 9.916,19.163 11.545,19.240 11.585 C 19.339 11.637,19.468 11.659,19.680 11.659 C 19.938 11.660,20.007 11.644,20.172 11.547 C 20.648 11.267,20.818 10.647,20.545 10.188 C 20.490 10.096,18.667 8.245,16.493 6.075 C 12.875 2.464,12.523 2.125,12.343 2.065 C 12.102 1.986,11.878 1.986,11.640 2.068 M18.099 13.595 C 18.011 13.635,17.831 13.762,17.699 13.878 C 17.038 14.460,16.173 14.862,15.372 14.960 C 14.540 15.062,14.368 15.138,14.142 15.498 C 14.040 15.661,14.022 15.735,14.007 16.041 C 13.964 16.954,14.215 18.322,14.617 19.360 C 15.297 21.116,16.689 22.590,17.979 22.920 C 18.544 23.064,18.993 22.999,19.614 22.683 C 21.423 21.762,22.719 19.497,22.963 16.830 C 23.031 16.087,23.003 15.730,22.857 15.497 C 22.632 15.138,22.459 15.062,21.628 14.960 C 20.827 14.862,19.962 14.460,19.301 13.878 C 18.991 13.606,18.802 13.522,18.500 13.522 C 18.353 13.522,18.198 13.550,18.099 13.595 M18.975 16.102 C 19.484 16.402,20.120 16.668,20.687 16.819 L 20.953 16.890 20.933 17.035 C 20.782 18.088,20.471 18.939,19.954 19.712 C 19.674 20.131,19.087 20.706,18.767 20.874 C 18.535 20.997,18.504 21.003,18.387 20.957 C 18.009 20.807,17.412 20.251,17.043 19.704 C 16.533 18.948,16.218 18.088,16.067 17.034 L 16.046 16.887 16.365 16.801 C 16.987 16.633,17.774 16.285,18.260 15.964 C 18.477 15.820,18.508 15.810,18.580 15.861 C 18.624 15.892,18.802 16.001,18.975 16.102 " stroke="none" fill-rule="evenodd" fill="black"></path></svg>