<svg xmlns="http://www.w3.org/2000/svg" width="24" height="24" viewBox="0 0 24 24" fill="none" stroke="currentColor" stroke-width="2" stroke-linecap="round" stroke-linejoin="round"><path d="M11.640 2.068 C 11.483 2.121,10.863 2.725,6.847 6.735 C 4.174 9.404,2.189 11.416,2.127 11.520 C 2.036 11.672,2.020 11.746,2.020 12.000 C 2.020 12.254,2.037 12.328,2.128 12.484 C 2.187 12.585,2.300 12.716,2.377 12.775 C 2.623 12.962,2.798 13.000,3.423 13.000 L 3.997 13.000 4.009 16.290 L 4.021 19.580 4.114 19.860 C 4.442 20.840,5.167 21.564,6.140 21.884 C 6.410 21.973,6.478 21.977,8.037 21.991 C 9.489 22.004,9.672 21.999,9.833 21.937 C 10.539 21.668,10.719 20.768,10.166 20.270 L 10.000 20.120 10.000 17.507 C 10.000 14.531,9.992 14.614,10.303 14.303 C 10.586 14.020,10.697 14.000,12.000 14.000 C 13.280 14.000,13.409 14.022,13.679 14.283 C 13.886 14.485,13.951 14.636,14.001 15.031 C 14.049 15.410,14.184 15.647,14.452 15.828 C 14.923 16.144,15.554 15.998,15.859 15.503 C 15.974 15.315,15.980 15.285,15.978 14.883 C 15.977 14.559,15.955 14.390,15.885 14.160 C 15.583 13.175,14.792 12.390,13.822 12.112 C 13.512 12.023,13.446 12.020,12.000 12.020 C 10.554 12.020,10.488 12.023,10.178 12.112 C 9.219 12.387,8.446 13.147,8.115 14.140 L 8.021 14.420 8.009 17.213 L 7.996 20.007 7.348 19.993 C 6.728 19.981,6.692 19.975,6.516 19.872 C 6.328 19.761,6.158 19.572,6.070 19.373 C 6.032 19.286,6.015 18.382,6.000 15.477 L 5.980 11.694 5.860 11.500 C 5.794 11.394,5.656 11.250,5.554 11.179 L 5.368 11.052 8.684 7.736 L 12.000 4.420 15.316 7.736 L 18.632 11.052 18.446 11.179 C 18.344 11.250,18.206 11.394,18.140 11.500 C 18.020 11.693,18.020 11.694,18.007 12.401 C 17.999 12.824,18.011 13.172,18.037 13.268 C 18.099 13.498,18.287 13.737,18.508 13.867 C 18.673 13.964,18.743 13.980,19.003 13.980 C 19.271 13.980,19.329 13.966,19.503 13.859 C 19.742 13.712,19.946 13.422,19.982 13.179 L 20.009 13.000 20.595 12.998 C 20.978 12.997,21.232 12.978,21.330 12.943 C 21.845 12.759,22.111 12.206,21.941 11.675 C 21.874 11.469,21.671 11.260,17.206 6.795 C 12.918 2.508,12.524 2.124,12.343 2.065 C 12.102 1.986,11.878 1.987,11.640 2.068 M18.695 16.057 C 18.051 16.258,17.799 17.040,18.198 17.591 C 18.263 17.681,18.402 17.805,18.507 17.866 C 18.674 17.964,18.750 17.980,19.129 17.999 L 19.561 18.020 18.782 18.798 L 18.003 19.576 17.271 18.855 C 16.655 18.247,16.509 18.123,16.343 18.067 C 16.094 17.983,15.907 17.982,15.657 18.066 C 15.481 18.124,15.286 18.305,13.847 19.736 C 12.960 20.618,12.186 21.421,12.127 21.520 C 12.037 21.672,12.020 21.746,12.020 22.000 C 12.020 22.257,12.036 22.327,12.133 22.492 C 12.263 22.714,12.502 22.901,12.736 22.965 C 12.939 23.019,13.267 22.989,13.445 22.899 C 13.519 22.862,14.124 22.289,14.790 21.627 L 15.999 20.422 16.710 21.126 C 17.100 21.514,17.483 21.864,17.560 21.904 C 17.754 22.007,18.246 22.007,18.440 21.905 C 18.517 21.864,19.122 21.291,19.785 20.631 L 20.991 19.431 21.006 19.869 C 21.020 20.274,21.030 20.323,21.142 20.504 C 21.543 21.156,22.457 21.156,22.859 20.503 L 22.980 20.306 22.992 18.563 C 23.002 17.016,22.996 16.801,22.937 16.646 C 22.845 16.405,22.657 16.204,22.420 16.094 C 22.220 16.001,22.218 16.001,20.540 16.003 C 19.283 16.005,18.818 16.018,18.695 16.057 " stroke="none" fill-rule="evenodd" fill="black"></path></svg>