<svg xmlns="http://www.w3.org/2000/svg" width="24" height="24" viewBox="0 0 24 24" fill="none" stroke="currentColor" stroke-width="2" stroke-linecap="round" stroke-linejoin="round"><path d="M11.640 2.068 C 11.483 2.121,10.863 2.725,6.847 6.735 C 4.174 9.404,2.189 11.416,2.127 11.520 C 2.036 11.672,2.020 11.746,2.020 12.000 C 2.020 12.254,2.037 12.328,2.128 12.484 C 2.187 12.585,2.300 12.716,2.377 12.775 C 2.623 12.962,2.798 13.000,3.423 13.000 L 3.997 13.000 4.009 16.290 L 4.021 19.580 4.114 19.860 C 4.442 20.839,5.161 21.558,6.140 21.886 L 6.420 21.979 9.770 21.991 C 11.990 21.999,13.172 21.989,13.274 21.962 C 13.498 21.901,13.739 21.711,13.867 21.492 C 13.964 21.327,13.980 21.257,13.980 21.000 C 13.980 20.746,13.963 20.672,13.872 20.516 C 13.813 20.415,13.698 20.282,13.618 20.221 C 13.342 20.011,13.242 20.000,11.554 20.000 L 10.000 20.000 10.000 17.447 C 10.000 14.537,9.993 14.614,10.304 14.303 C 10.595 14.012,10.700 13.994,12.086 14.008 L 13.260 14.020 13.536 14.156 C 13.902 14.337,14.165 14.346,14.486 14.188 C 14.989 13.943,15.188 13.353,14.938 12.851 C 14.819 12.612,14.668 12.487,14.270 12.299 C 13.698 12.029,13.625 12.020,11.980 12.020 C 10.555 12.020,10.488 12.023,10.178 12.112 C 9.219 12.387,8.446 13.147,8.115 14.140 L 8.021 14.420 8.009 17.213 L 7.996 20.007 7.348 19.993 C 6.728 19.981,6.692 19.975,6.516 19.872 C 6.328 19.761,6.158 19.572,6.070 19.373 C 6.032 19.286,6.015 18.382,6.000 15.477 L 5.980 11.694 5.860 11.500 C 5.794 11.394,5.656 11.250,5.554 11.179 L 5.368 11.052 8.684 7.736 L 12.000 4.420 15.210 7.626 C 16.975 9.389,18.483 10.865,18.560 10.905 C 18.659 10.957,18.788 10.979,19.000 10.979 C 19.258 10.980,19.327 10.964,19.492 10.867 C 19.968 10.587,20.138 9.967,19.865 9.508 C 19.811 9.416,18.140 7.718,16.153 5.735 C 12.851 2.441,12.523 2.125,12.343 2.065 C 12.102 1.986,11.878 1.986,11.640 2.068 M18.695 13.057 C 18.342 13.168,18.095 13.451,18.019 13.835 L 17.976 14.050 17.757 14.118 C 17.003 14.351,16.361 14.980,16.118 15.722 C 16.034 15.976,16.020 16.094,16.022 16.520 C 16.024 16.960,16.038 17.056,16.133 17.320 C 16.394 18.039,16.964 18.609,17.680 18.867 C 17.961 18.968,18.033 18.976,18.800 18.992 C 19.702 19.010,19.786 19.030,19.922 19.252 C 20.021 19.415,20.021 19.585,19.922 19.748 C 19.770 19.996,19.746 20.000,18.248 20.000 C 16.774 20.000,16.653 20.014,16.382 20.221 C 16.302 20.282,16.187 20.415,16.128 20.516 C 16.037 20.672,16.020 20.746,16.020 21.000 C 16.020 21.256,16.036 21.328,16.131 21.489 C 16.256 21.702,16.449 21.864,16.670 21.943 C 16.768 21.978,17.022 21.997,17.405 21.998 L 17.991 22.000 18.018 22.179 C 18.054 22.422,18.258 22.712,18.497 22.859 C 18.671 22.966,18.729 22.980,19.000 22.980 C 19.271 22.980,19.329 22.966,19.503 22.859 C 19.752 22.706,19.949 22.419,19.984 22.160 L 20.010 21.966 20.294 21.873 C 21.001 21.642,21.605 21.046,21.868 20.320 C 21.965 20.052,21.976 19.965,21.976 19.500 C 21.976 19.035,21.965 18.948,21.868 18.680 C 21.646 18.068,21.195 17.561,20.620 17.277 C 20.172 17.055,19.869 17.002,19.068 17.001 C 18.319 17.000,18.216 16.974,18.078 16.748 C 17.932 16.508,18.023 16.193,18.276 16.062 C 18.377 16.010,18.612 16.000,19.788 15.998 C 21.285 15.996,21.350 15.989,21.619 15.783 C 21.696 15.725,21.808 15.592,21.869 15.489 C 21.964 15.328,21.980 15.256,21.980 15.000 C 21.980 14.746,21.963 14.672,21.872 14.516 C 21.634 14.111,21.351 14.000,20.559 14.000 L 20.010 14.000 19.983 13.830 C 19.926 13.473,19.648 13.163,19.290 13.055 C 19.068 12.988,18.913 12.989,18.695 13.057 " stroke="none" fill-rule="evenodd" fill="black"></path></svg>