<svg xmlns="http://www.w3.org/2000/svg" width="24" height="24" viewBox="0 0 24 24" fill="none" stroke="currentColor" stroke-width="2" stroke-linecap="round" stroke-linejoin="round"><path d="M11.640 2.068 C 11.483 2.121,10.863 2.725,6.847 6.735 C 4.174 9.404,2.189 11.416,2.127 11.520 C 2.036 11.672,2.020 11.746,2.020 12.000 C 2.020 12.254,2.037 12.328,2.128 12.484 C 2.187 12.585,2.300 12.716,2.377 12.775 C 2.623 12.962,2.798 13.000,3.423 13.000 L 3.997 13.000 4.009 16.290 L 4.021 19.580 4.114 19.860 C 4.442 20.839,5.163 21.561,6.140 21.885 C 6.418 21.978,6.435 21.978,8.768 21.991 C 10.321 22.000,11.169 21.990,11.272 21.962 C 11.498 21.901,11.738 21.711,11.867 21.492 C 11.964 21.327,11.980 21.257,11.980 21.000 C 11.980 20.746,11.963 20.672,11.872 20.516 C 11.633 20.110,11.352 20.000,10.554 20.000 L 10.000 20.000 10.000 17.447 C 10.000 14.538,9.993 14.614,10.303 14.303 C 10.586 14.020,10.697 14.000,12.000 14.000 C 13.355 14.000,13.417 14.013,13.766 14.366 C 14.052 14.655,14.296 14.773,14.601 14.771 C 15.153 14.765,15.568 14.342,15.571 13.780 C 15.573 13.460,15.462 13.236,15.148 12.926 C 14.828 12.611,14.687 12.507,14.320 12.322 C 13.748 12.033,13.646 12.020,11.980 12.020 C 10.555 12.020,10.488 12.023,10.178 12.112 C 9.219 12.387,8.446 13.147,8.115 14.140 L 8.021 14.420 8.009 17.213 L 7.996 20.007 7.348 19.993 C 6.728 19.981,6.692 19.975,6.516 19.872 C 6.328 19.761,6.158 19.572,6.070 19.373 C 6.032 19.286,6.015 18.382,6.000 15.477 L 5.980 11.694 5.860 11.500 C 5.794 11.394,5.656 11.250,5.554 11.179 L 5.368 11.052 8.684 7.736 L 12.000 4.420 15.710 8.126 C 17.750 10.164,19.483 11.865,19.560 11.905 C 19.659 11.957,19.788 11.979,20.000 11.979 C 20.258 11.980,20.327 11.964,20.492 11.867 C 20.968 11.587,21.139 10.967,20.865 10.508 C 20.810 10.416,18.915 8.493,16.653 6.235 C 12.886 2.475,12.523 2.125,12.343 2.065 C 12.102 1.986,11.878 1.986,11.640 2.068 M19.351 14.039 C 18.895 14.122,18.443 14.323,18.060 14.613 C 17.928 14.713,16.989 15.620,15.974 16.627 C 14.261 18.327,14.122 18.475,14.062 18.665 C 14.005 18.844,13.998 19.090,14.008 20.585 L 14.020 22.300 14.131 22.489 C 14.192 22.592,14.304 22.725,14.381 22.783 C 14.655 22.992,14.694 22.996,16.483 22.998 C 17.902 23.000,18.175 22.991,18.343 22.936 C 18.522 22.878,18.710 22.701,20.372 21.026 C 21.380 20.011,22.287 19.072,22.387 18.940 C 22.775 18.428,22.957 17.919,22.989 17.258 C 23.036 16.280,22.720 15.505,21.996 14.824 C 21.652 14.500,21.154 14.216,20.720 14.097 C 20.460 14.025,19.620 13.989,19.351 14.039 M20.385 16.112 C 20.594 16.219,20.778 16.402,20.891 16.615 C 21.016 16.850,21.016 17.350,20.891 17.586 C 20.840 17.682,20.129 18.433,19.197 19.376 L 17.591 21.000 16.795 21.000 L 16.000 21.000 16.000 20.205 L 16.000 19.410 17.602 17.825 C 18.483 16.953,19.248 16.211,19.302 16.175 C 19.599 15.980,20.073 15.953,20.385 16.112 " stroke="none" fill-rule="evenodd" fill="black"></path></svg>