<svg xmlns="http://www.w3.org/2000/svg" width="24" height="24" viewBox="0 0 24 24" fill="none" stroke="currentColor" stroke-width="2" stroke-linecap="round" stroke-linejoin="round"><path d="M11.640 2.068 C 11.483 2.121,10.863 2.725,6.847 6.735 C 4.174 9.404,2.189 11.416,2.127 11.520 C 2.036 11.672,2.020 11.746,2.020 12.000 C 2.020 12.254,2.037 12.328,2.128 12.484 C 2.187 12.585,2.300 12.716,2.377 12.775 C 2.623 12.962,2.798 13.000,3.423 13.000 L 3.997 13.000 4.009 16.290 L 4.021 19.580 4.114 19.860 C 4.441 20.839,5.160 21.557,6.140 21.886 L 6.420 21.980 10.771 21.991 C 13.657 21.999,15.174 21.989,15.275 21.961 C 15.498 21.901,15.739 21.710,15.867 21.492 C 15.964 21.327,15.980 21.257,15.980 21.000 C 15.980 20.746,15.963 20.672,15.872 20.516 C 15.813 20.415,15.698 20.282,15.618 20.221 C 15.328 20.000,15.325 20.000,12.554 20.000 L 10.000 20.000 10.000 17.447 C 10.000 14.538,9.993 14.614,10.303 14.303 C 10.587 14.019,10.695 14.000,12.020 14.000 C 13.254 14.000,13.378 14.018,13.643 14.236 C 13.719 14.299,13.853 14.481,13.940 14.641 C 14.170 15.060,14.452 15.246,14.860 15.246 C 15.415 15.246,15.846 14.813,15.846 14.256 C 15.846 14.061,15.817 13.965,15.665 13.659 C 15.380 13.086,14.907 12.610,14.340 12.327 C 13.740 12.028,13.419 11.989,11.753 12.009 C 10.516 12.025,10.446 12.030,10.139 12.124 C 9.186 12.417,8.442 13.159,8.115 14.140 L 8.021 14.420 8.009 17.213 L 7.996 20.007 7.348 19.993 C 6.728 19.981,6.692 19.975,6.516 19.872 C 6.328 19.761,6.158 19.572,6.070 19.373 C 6.032 19.286,6.015 18.382,6.000 15.477 L 5.980 11.694 5.860 11.500 C 5.794 11.394,5.656 11.250,5.554 11.179 L 5.368 11.052 8.684 7.736 L 12.000 4.420 16.210 8.626 C 18.525 10.939,20.481 12.862,20.555 12.899 C 21.010 13.128,21.601 12.944,21.867 12.492 C 21.964 12.327,21.980 12.257,21.980 12.000 C 21.980 11.746,21.964 11.672,21.873 11.520 C 21.811 11.416,19.826 9.404,17.153 6.735 C 12.920 2.510,12.524 2.125,12.343 2.065 C 12.102 1.986,11.878 1.987,11.640 2.068 M18.695 15.057 C 18.466 15.129,18.256 15.299,18.128 15.516 L 18.020 15.700 18.020 17.503 L 18.020 19.306 18.141 19.503 C 18.543 20.156,19.457 20.156,19.859 19.503 L 19.980 19.306 19.980 17.503 L 19.980 15.700 19.872 15.516 C 19.628 15.101,19.150 14.915,18.695 15.057 M18.695 21.057 C 18.466 21.129,18.256 21.299,18.128 21.516 C 18.036 21.672,18.020 21.745,18.021 22.000 C 18.022 22.332,18.101 22.533,18.306 22.728 C 18.785 23.181,19.580 23.046,19.893 22.460 C 20.025 22.211,20.015 21.760,19.872 21.516 C 19.628 21.101,19.150 20.915,18.695 21.057 " stroke="none" fill-rule="evenodd" fill="black"></path></svg>