<svg xmlns="http://www.w3.org/2000/svg" width="24" height="24" viewBox="0 0 24 24" fill="none" stroke="currentColor" stroke-width="2" stroke-linecap="round" stroke-linejoin="round"><path d="M11.640 2.068 C 11.483 2.121,10.863 2.725,6.847 6.735 C 4.174 9.404,2.189 11.416,2.127 11.520 C 2.036 11.672,2.020 11.746,2.020 12.000 C 2.020 12.254,2.037 12.328,2.128 12.484 C 2.187 12.585,2.300 12.716,2.377 12.775 C 2.623 12.962,2.798 13.000,3.423 13.000 L 3.997 13.000 4.009 16.290 L 4.021 19.580 4.114 19.860 C 4.442 20.839,5.161 21.558,6.140 21.886 L 6.420 21.979 9.770 21.991 C 11.990 21.999,13.172 21.989,13.274 21.962 C 13.498 21.901,13.739 21.711,13.867 21.492 C 13.964 21.327,13.980 21.257,13.980 21.000 C 13.980 20.746,13.963 20.672,13.872 20.516 C 13.813 20.415,13.698 20.282,13.618 20.221 C 13.342 20.011,13.242 20.000,11.554 20.000 L 10.000 20.000 10.000 17.447 C 10.000 14.537,9.993 14.614,10.304 14.303 C 10.595 14.012,10.700 13.994,12.086 14.008 L 13.260 14.020 13.520 14.146 C 13.860 14.312,13.992 14.336,14.260 14.280 C 14.894 14.148,15.232 13.452,14.945 12.868 C 14.821 12.614,14.674 12.490,14.270 12.299 C 13.698 12.029,13.625 12.020,11.980 12.020 C 10.555 12.020,10.488 12.023,10.178 12.112 C 9.219 12.387,8.446 13.147,8.115 14.140 L 8.021 14.420 8.009 17.213 L 7.996 20.007 7.348 19.993 C 6.728 19.981,6.692 19.975,6.516 19.872 C 6.328 19.761,6.158 19.572,6.070 19.373 C 6.032 19.286,6.015 18.382,6.000 15.477 L 5.980 11.694 5.860 11.500 C 5.794 11.394,5.656 11.250,5.554 11.179 L 5.368 11.052 8.684 7.736 L 12.000 4.420 16.210 8.626 C 18.525 10.939,20.481 12.862,20.555 12.899 C 21.010 13.128,21.601 12.944,21.867 12.492 C 21.964 12.327,21.980 12.257,21.980 12.000 C 21.980 11.746,21.964 11.672,21.873 11.520 C 21.811 11.416,19.826 9.404,17.153 6.735 C 12.920 2.510,12.524 2.125,12.343 2.065 C 12.102 1.986,11.878 1.987,11.640 2.068 M17.279 15.037 C 16.919 15.087,16.533 15.235,16.220 15.445 C 15.202 16.126,14.766 17.372,15.136 18.540 C 15.302 19.063,15.475 19.306,16.258 20.117 C 17.827 21.743,18.419 22.328,18.577 22.410 C 18.805 22.527,19.201 22.529,19.420 22.412 C 19.667 22.281,22.329 19.562,22.565 19.200 C 23.149 18.304,23.147 17.123,22.559 16.223 C 22.305 15.834,21.911 15.483,21.507 15.287 C 21.074 15.076,20.828 15.023,20.300 15.028 C 19.846 15.032,19.493 15.111,19.153 15.284 L 19.007 15.358 18.753 15.245 C 18.614 15.183,18.419 15.112,18.320 15.089 C 18.063 15.027,17.537 15.001,17.279 15.037 M17.831 17.038 C 17.903 17.058,18.080 17.183,18.224 17.315 C 18.764 17.809,19.236 17.805,19.799 17.301 C 20.108 17.023,20.257 16.969,20.516 17.039 C 20.680 17.083,20.895 17.289,20.963 17.467 C 21.021 17.621,21.005 17.846,20.922 18.020 C 20.877 18.116,20.478 18.555,19.923 19.120 L 19.000 20.060 18.118 19.160 C 17.633 18.665,17.192 18.196,17.138 18.119 C 16.926 17.811,16.993 17.370,17.285 17.150 C 17.478 17.004,17.616 16.976,17.831 17.038 " stroke="none" fill-rule="evenodd" fill="black"></path></svg>