<svg xmlns="http://www.w3.org/2000/svg" width="24" height="24" viewBox="0 0 24 24" fill="none" stroke="currentColor" stroke-width="2" stroke-linecap="round" stroke-linejoin="round"><path d="M11.640 2.068 C 11.483 2.121,10.863 2.725,6.847 6.735 C 4.174 9.404,2.189 11.416,2.127 11.520 C 2.036 11.672,2.020 11.746,2.020 12.000 C 2.020 12.254,2.037 12.328,2.128 12.484 C 2.187 12.585,2.300 12.716,2.377 12.775 C 2.623 12.962,2.798 13.000,3.423 13.000 L 3.997 13.000 4.009 16.290 L 4.021 19.580 4.114 19.860 C 4.442 20.840,5.167 21.564,6.140 21.884 C 6.410 21.973,6.478 21.977,8.037 21.991 C 9.489 22.004,9.672 21.999,9.833 21.937 C 10.539 21.668,10.719 20.768,10.166 20.270 L 10.000 20.120 10.000 17.507 C 10.000 14.531,9.992 14.614,10.303 14.303 C 10.587 14.019,10.695 14.000,12.022 14.000 C 13.447 14.000,13.546 14.028,13.883 14.524 C 14.075 14.808,14.269 14.945,14.563 15.007 C 15.041 15.106,15.555 14.796,15.696 14.323 C 15.776 14.051,15.776 13.970,15.695 13.732 C 15.571 13.365,15.139 12.839,14.730 12.554 C 14.490 12.388,14.026 12.175,13.720 12.091 C 13.493 12.029,13.274 12.020,11.980 12.020 C 10.555 12.020,10.488 12.023,10.178 12.112 C 9.219 12.387,8.446 13.147,8.115 14.140 L 8.021 14.420 8.009 17.213 L 7.996 20.007 7.348 19.993 C 6.728 19.981,6.692 19.975,6.516 19.872 C 6.328 19.761,6.158 19.572,6.070 19.373 C 6.032 19.286,6.015 18.382,6.000 15.477 L 5.980 11.694 5.860 11.500 C 5.794 11.394,5.656 11.250,5.554 11.179 L 5.368 11.052 8.684 7.736 L 12.000 4.420 15.316 7.736 L 18.632 11.052 18.446 11.179 C 18.344 11.250,18.206 11.394,18.140 11.500 L 18.020 11.694 18.020 13.000 L 18.020 14.306 18.141 14.503 C 18.543 15.156,19.457 15.156,19.859 14.503 C 19.979 14.308,19.980 14.300,19.993 13.653 L 20.007 13.000 20.593 12.998 C 20.978 12.997,21.232 12.978,21.330 12.943 C 21.845 12.759,22.111 12.206,21.941 11.675 C 21.874 11.469,21.671 11.260,17.206 6.795 C 12.918 2.508,12.524 2.124,12.343 2.065 C 12.102 1.986,11.878 1.987,11.640 2.068 M13.530 16.044 C 12.630 16.194,11.800 16.791,11.367 17.600 C 11.094 18.110,11.020 18.417,11.023 19.020 C 11.025 19.473,11.039 19.581,11.133 19.860 C 11.429 20.745,12.077 21.447,12.909 21.781 C 13.556 22.041,14.371 22.066,15.028 21.846 C 15.616 21.649,15.866 21.486,16.462 20.911 L 17.001 20.391 17.534 20.908 C 18.126 21.483,18.368 21.642,18.965 21.847 C 19.317 21.968,19.374 21.976,19.900 21.976 C 20.733 21.977,21.247 21.804,21.858 21.319 C 22.357 20.923,22.688 20.430,22.888 19.785 C 23.017 19.372,23.015 18.624,22.884 18.200 C 22.627 17.363,22.070 16.704,21.300 16.323 C 20.819 16.085,20.546 16.025,19.940 16.022 C 18.933 16.018,18.364 16.278,17.473 17.151 L 17.000 17.613 16.530 17.155 C 16.012 16.650,15.645 16.388,15.221 16.220 C 14.722 16.023,14.066 15.955,13.530 16.044 M14.602 18.149 C 14.707 18.210,14.965 18.425,15.174 18.626 L 15.555 18.992 15.127 19.408 C 14.657 19.865,14.502 19.958,14.161 19.989 C 13.539 20.046,13.023 19.596,13.023 19.000 C 13.023 18.683,13.121 18.474,13.367 18.263 C 13.703 17.976,14.220 17.928,14.602 18.149 M20.264 18.059 C 20.694 18.187,20.974 18.558,20.974 19.000 C 20.974 19.318,20.877 19.528,20.633 19.737 C 20.274 20.044,19.714 20.082,19.333 19.823 C 19.262 19.774,19.031 19.568,18.820 19.364 L 18.437 18.994 18.824 18.627 C 19.037 18.425,19.263 18.226,19.328 18.184 C 19.617 17.999,19.923 17.958,20.264 18.059 " stroke="none" fill-rule="evenodd" fill="black"></path></svg>