<svg xmlns="http://www.w3.org/2000/svg" width="24" height="24" viewBox="0 0 24 24" fill="none" stroke="currentColor" stroke-width="2" stroke-linecap="round" stroke-linejoin="round"><path d="M11.640 2.068 C 11.483 2.121,10.863 2.725,6.847 6.735 C 4.174 9.404,2.189 11.416,2.127 11.520 C 2.036 11.672,2.020 11.746,2.020 12.000 C 2.020 12.254,2.037 12.328,2.128 12.484 C 2.187 12.585,2.300 12.716,2.377 12.775 C 2.623 12.962,2.798 13.000,3.423 13.000 L 3.997 13.000 4.009 16.290 L 4.021 19.580 4.114 19.860 C 4.442 20.839,5.163 21.560,6.140 21.885 L 6.420 21.979 9.039 21.991 C 11.966 22.005,11.850 22.015,12.173 21.724 C 12.574 21.362,12.600 20.715,12.228 20.326 C 11.952 20.039,11.880 20.021,10.890 20.007 L 10.000 19.995 10.000 17.445 C 10.000 14.539,9.993 14.614,10.303 14.303 C 10.587 14.019,10.695 14.000,12.022 14.000 C 13.242 14.000,13.356 14.016,13.629 14.224 C 13.702 14.280,13.816 14.420,13.880 14.534 C 14.109 14.940,14.403 15.131,14.800 15.132 C 15.065 15.133,15.328 15.026,15.512 14.842 C 15.724 14.629,15.778 14.494,15.779 14.160 C 15.781 13.725,15.623 13.427,15.120 12.918 C 14.792 12.585,14.688 12.507,14.360 12.346 C 13.705 12.025,13.667 12.020,11.980 12.020 C 10.555 12.020,10.488 12.023,10.178 12.112 C 9.219 12.387,8.446 13.147,8.115 14.140 L 8.021 14.420 8.009 17.213 L 7.996 20.007 7.348 19.993 C 6.728 19.981,6.692 19.975,6.516 19.872 C 6.328 19.761,6.158 19.572,6.070 19.373 C 6.032 19.286,6.015 18.382,6.000 15.477 L 5.980 11.694 5.860 11.500 C 5.794 11.394,5.656 11.250,5.554 11.179 L 5.368 11.052 8.684 7.736 L 12.000 4.420 15.750 8.166 C 17.812 10.226,19.562 11.943,19.638 11.981 C 19.869 12.097,20.227 12.105,20.471 12.000 C 21.017 11.765,21.244 11.091,20.947 10.590 C 20.891 10.496,18.977 8.555,16.693 6.275 C 12.889 2.478,12.523 2.125,12.343 2.065 C 12.102 1.986,11.878 1.986,11.640 2.068 M20.477 14.073 C 19.806 14.249,19.238 14.823,19.060 15.508 C 19.027 15.634,19.000 15.804,19.000 15.886 L 19.000 16.035 17.994 16.640 L 16.987 17.244 16.804 17.167 C 16.009 16.830,15.123 17.020,14.535 17.653 C 13.954 18.279,13.834 19.159,14.225 19.930 C 14.362 20.200,14.801 20.639,15.071 20.775 C 15.700 21.094,16.522 21.062,17.059 20.698 C 17.138 20.644,17.225 20.600,17.252 20.600 C 17.311 20.600,18.922 21.239,18.985 21.287 C 19.010 21.306,19.041 21.389,19.054 21.471 C 19.127 21.913,19.621 22.547,20.070 22.775 C 20.659 23.073,21.341 23.073,21.930 22.775 C 22.196 22.640,22.638 22.200,22.771 21.937 C 23.065 21.358,23.068 20.649,22.781 20.083 C 22.646 19.816,22.297 19.449,22.017 19.281 C 21.424 18.924,20.594 18.916,20.019 19.262 C 19.893 19.338,19.770 19.400,19.745 19.400 C 19.720 19.400,19.379 19.272,18.987 19.115 C 18.414 18.885,18.284 18.819,18.327 18.780 C 18.356 18.753,18.746 18.512,19.194 18.245 L 20.009 17.758 20.274 17.864 C 20.785 18.069,21.416 18.035,21.929 17.775 C 22.196 17.640,22.638 17.200,22.771 16.937 C 22.994 16.498,23.052 16.007,22.940 15.529 C 22.858 15.182,22.720 14.927,22.465 14.653 C 22.074 14.232,21.560 14.005,21.000 14.005 C 20.857 14.005,20.622 14.036,20.477 14.073 " stroke="none" fill-rule="evenodd" fill="black"></path></svg>