<svg xmlns="http://www.w3.org/2000/svg" width="24" height="24" viewBox="0 0 24 24" fill="none" stroke="currentColor" stroke-width="2" stroke-linecap="round" stroke-linejoin="round"><path d="M11.640 2.068 C 11.483 2.121,10.863 2.725,6.847 6.735 C 4.174 9.404,2.189 11.416,2.127 11.520 C 2.036 11.672,2.020 11.746,2.020 12.000 C 2.020 12.254,2.037 12.328,2.128 12.484 C 2.187 12.585,2.300 12.716,2.377 12.775 C 2.623 12.962,2.798 13.000,3.423 13.000 L 3.997 13.000 4.009 16.290 L 4.021 19.580 4.114 19.860 C 4.441 20.839,5.160 21.557,6.140 21.886 L 6.420 21.980 10.540 21.991 C 15.139 22.004,14.843 22.021,15.173 21.724 C 15.381 21.536,15.488 21.292,15.488 21.003 C 15.488 20.615,15.294 20.298,14.940 20.106 C 14.782 20.021,14.753 20.020,12.390 20.009 L 10.000 19.998 10.000 17.446 C 10.000 14.538,9.993 14.614,10.303 14.303 C 10.586 14.020,10.697 14.000,12.000 14.000 C 13.368 14.000,13.416 14.010,13.783 14.384 C 13.926 14.530,14.117 14.678,14.220 14.724 C 14.586 14.886,15.027 14.802,15.313 14.517 C 15.505 14.326,15.570 14.176,15.591 13.872 C 15.608 13.639,15.596 13.573,15.506 13.389 C 15.400 13.172,15.036 12.781,14.735 12.561 C 14.493 12.384,14.059 12.181,13.740 12.095 C 13.490 12.028,13.302 12.020,11.980 12.020 C 10.555 12.020,10.488 12.023,10.178 12.112 C 9.219 12.387,8.446 13.147,8.115 14.140 L 8.021 14.420 8.009 17.213 L 7.996 20.007 7.348 19.993 C 6.728 19.981,6.692 19.975,6.516 19.872 C 6.328 19.761,6.158 19.572,6.070 19.373 C 6.032 19.286,6.015 18.382,6.000 15.477 L 5.980 11.694 5.860 11.500 C 5.794 11.394,5.656 11.250,5.554 11.179 L 5.368 11.052 8.684 7.736 L 12.000 4.420 15.210 7.626 C 16.975 9.389,18.483 10.865,18.560 10.905 C 18.659 10.957,18.788 10.979,19.000 10.979 C 19.258 10.980,19.327 10.964,19.492 10.867 C 19.968 10.587,20.138 9.967,19.865 9.508 C 19.811 9.416,18.140 7.718,16.153 5.735 C 12.851 2.441,12.523 2.125,12.343 2.065 C 12.102 1.986,11.878 1.986,11.640 2.068 M18.643 13.066 C 18.285 13.198,18.220 13.303,17.085 15.584 C 15.927 17.911,15.926 17.915,16.061 18.322 C 16.150 18.592,16.397 18.844,16.660 18.934 C 16.825 18.990,17.046 19.000,18.107 19.000 C 18.796 19.000,19.360 19.008,19.360 19.019 C 19.360 19.029,19.061 19.638,18.695 20.372 C 17.960 21.847,17.932 21.933,18.061 22.322 C 18.189 22.707,18.594 23.000,19.000 23.000 C 19.080 23.000,19.233 22.970,19.340 22.934 C 19.716 22.806,19.767 22.724,20.920 20.406 L 21.980 18.275 21.980 17.988 C 21.980 17.747,21.962 17.670,21.872 17.516 C 21.813 17.415,21.698 17.282,21.618 17.221 C 21.350 17.017,21.217 17.000,19.874 17.000 C 19.195 17.000,18.640 16.992,18.640 16.981 C 18.640 16.971,18.939 16.362,19.305 15.628 C 20.035 14.165,20.068 14.065,19.944 13.693 C 19.909 13.586,19.828 13.435,19.765 13.358 C 19.523 13.065,19.011 12.931,18.643 13.066 " stroke="none" fill-rule="evenodd" fill="black"></path></svg>