<svg xmlns="http://www.w3.org/2000/svg" width="24" height="24" viewBox="0 0 24 24" fill="none" stroke="currentColor" stroke-width="2" stroke-linecap="round" stroke-linejoin="round"><path d="M11.640 2.068 C 11.483 2.121,10.863 2.725,6.847 6.735 C 4.174 9.404,2.189 11.416,2.127 11.520 C 2.036 11.672,2.020 11.746,2.020 12.000 C 2.020 12.254,2.037 12.328,2.128 12.484 C 2.187 12.585,2.300 12.716,2.377 12.775 C 2.623 12.962,2.798 13.000,3.423 13.000 L 3.997 13.000 4.009 16.290 L 4.021 19.580 4.114 19.860 C 4.442 20.839,5.162 21.559,6.140 21.885 L 6.420 21.979 9.269 21.991 C 11.156 21.999,12.171 21.989,12.273 21.962 C 12.498 21.901,12.738 21.711,12.867 21.492 C 12.964 21.327,12.980 21.257,12.980 21.000 C 12.980 20.746,12.963 20.672,12.872 20.516 C 12.813 20.415,12.698 20.282,12.618 20.221 C 12.356 20.022,12.203 20.000,11.054 20.000 L 10.000 20.000 10.000 17.447 C 10.000 14.538,9.993 14.614,10.303 14.303 C 10.587 14.019,10.696 14.000,12.011 14.000 C 12.920 14.000,13.169 14.012,13.350 14.064 C 14.049 14.268,14.695 13.813,14.692 13.120 C 14.691 12.859,14.618 12.669,14.439 12.465 C 14.282 12.286,14.114 12.197,13.740 12.096 C 13.489 12.028,13.308 12.020,11.980 12.020 C 10.555 12.020,10.488 12.023,10.178 12.112 C 9.219 12.387,8.446 13.147,8.115 14.140 L 8.021 14.420 8.009 17.213 L 7.996 20.007 7.348 19.993 C 6.728 19.981,6.692 19.975,6.516 19.872 C 6.328 19.761,6.158 19.572,6.070 19.373 C 6.032 19.286,6.015 18.382,6.000 15.477 L 5.980 11.694 5.860 11.500 C 5.794 11.394,5.656 11.250,5.554 11.179 L 5.368 11.052 8.684 7.736 L 12.000 4.420 15.316 7.736 L 18.632 11.052 18.446 11.179 C 18.344 11.250,18.206 11.394,18.140 11.500 C 18.034 11.671,18.020 11.730,18.020 11.997 C 18.020 12.256,18.036 12.327,18.131 12.489 C 18.256 12.702,18.449 12.864,18.670 12.943 C 18.885 13.020,21.115 13.020,21.330 12.943 C 21.845 12.759,22.111 12.206,21.941 11.675 C 21.874 11.469,21.671 11.260,17.206 6.795 C 12.918 2.508,12.524 2.124,12.343 2.065 C 12.102 1.986,11.878 1.987,11.640 2.068 M16.240 16.037 C 15.794 16.173,15.512 16.546,15.512 17.000 C 15.512 17.405,15.719 17.724,16.100 17.905 C 16.296 17.997,16.324 17.999,17.439 18.000 L 18.579 18.000 16.874 19.710 C 15.936 20.651,15.138 21.481,15.101 21.555 C 14.872 22.010,15.056 22.601,15.508 22.867 C 15.673 22.964,15.742 22.980,16.000 22.979 C 16.212 22.979,16.341 22.957,16.440 22.905 C 16.517 22.865,17.350 22.064,18.290 21.126 L 20.000 19.421 20.000 20.561 C 20.001 21.676,20.003 21.704,20.095 21.900 C 20.276 22.281,20.595 22.488,21.000 22.488 C 21.405 22.488,21.724 22.281,21.905 21.900 L 21.999 21.700 21.999 19.240 L 21.999 16.780 21.905 16.580 C 21.791 16.340,21.642 16.193,21.400 16.083 C 21.225 16.004,21.152 16.002,18.780 16.004 C 17.438 16.006,16.295 16.021,16.240 16.037 " stroke="none" fill-rule="evenodd" fill="black"></path></svg>