<svg xmlns="http://www.w3.org/2000/svg" width="24" height="24" viewBox="0 0 24 24" fill="none" stroke="currentColor" stroke-width="2" stroke-linecap="round" stroke-linejoin="round"><path d="M11.640 2.068 C 11.483 2.121,10.863 2.725,6.847 6.735 C 4.174 9.404,2.189 11.416,2.127 11.520 C 2.036 11.672,2.020 11.746,2.020 12.000 C 2.020 12.254,2.037 12.328,2.128 12.484 C 2.187 12.585,2.300 12.716,2.377 12.775 C 2.623 12.962,2.798 13.000,3.423 13.000 L 3.997 13.000 4.009 16.290 L 4.021 19.580 4.114 19.860 C 4.442 20.839,5.161 21.559,6.140 21.886 L 6.420 21.979 9.540 21.991 C 13.024 22.005,12.847 22.018,13.173 21.724 C 13.381 21.536,13.488 21.292,13.488 21.003 C 13.488 20.615,13.294 20.298,12.940 20.106 C 12.786 20.023,12.727 20.020,11.390 20.008 L 10.000 19.996 10.000 17.445 C 10.000 14.538,9.993 14.614,10.303 14.303 C 10.586 14.020,10.697 14.000,12.000 14.000 C 13.299 14.000,13.389 14.016,13.731 14.315 C 14.023 14.571,14.249 14.658,14.554 14.630 C 14.826 14.605,14.974 14.537,15.156 14.353 C 15.369 14.137,15.454 13.935,15.456 13.640 C 15.458 13.301,15.369 13.134,15.003 12.789 C 14.790 12.587,14.619 12.472,14.310 12.323 C 13.677 12.016,13.477 11.990,11.826 12.009 C 10.510 12.024,10.448 12.028,10.139 12.124 C 9.186 12.418,8.442 13.159,8.115 14.140 L 8.021 14.420 8.009 17.213 L 7.996 20.007 7.348 19.993 C 6.728 19.981,6.692 19.975,6.516 19.872 C 6.328 19.761,6.158 19.572,6.070 19.373 C 6.032 19.286,6.015 18.382,6.000 15.477 L 5.980 11.694 5.860 11.500 C 5.794 11.394,5.656 11.250,5.554 11.179 L 5.368 11.052 8.684 7.736 L 12.000 4.420 15.316 7.736 L 18.632 11.052 18.446 11.179 C 18.344 11.250,18.206 11.394,18.140 11.500 C 18.034 11.671,18.020 11.730,18.020 11.997 C 18.020 12.256,18.036 12.327,18.131 12.489 C 18.256 12.702,18.449 12.864,18.670 12.943 C 18.885 13.020,21.115 13.020,21.330 12.943 C 21.845 12.759,22.111 12.206,21.941 11.675 C 21.874 11.469,21.671 11.260,17.206 6.795 C 12.918 2.508,12.524 2.124,12.343 2.065 C 12.102 1.986,11.878 1.987,11.640 2.068 M18.358 15.061 C 17.230 15.237,16.143 15.974,15.569 16.953 C 14.320 19.083,15.233 21.785,17.512 22.704 C 19.558 23.528,21.877 22.538,22.704 20.488 C 23.090 19.530,23.090 18.469,22.705 17.516 C 22.172 16.197,21.001 15.269,19.605 15.058 C 19.144 14.989,18.816 14.990,18.358 15.061 M19.470 17.057 C 19.485 17.071,18.954 17.626,18.290 18.290 C 17.626 18.954,17.072 19.486,17.059 19.472 C 17.045 19.459,17.024 19.314,17.012 19.150 C 16.940 18.202,17.563 17.318,18.477 17.071 C 18.735 17.001,19.405 16.991,19.470 17.057 M20.982 18.784 C 21.047 19.396,20.844 19.961,20.398 20.410 C 20.104 20.705,19.779 20.885,19.404 20.963 C 19.181 21.010,18.584 20.997,18.532 20.945 C 18.504 20.918,20.872 18.520,20.927 18.520 C 20.941 18.520,20.966 18.639,20.982 18.784 " stroke="none" fill-rule="evenodd" fill="black"></path></svg>