<svg xmlns="http://www.w3.org/2000/svg" width="24" height="24" viewBox="0 0 24 24" fill="none" stroke="currentColor" stroke-width="2" stroke-linecap="round" stroke-linejoin="round"><path d="M4.643 3.069 C 4.274 3.199,4.259 3.226,2.580 6.594 L 1.020 9.723 1.020 10.012 C 1.020 10.253,1.038 10.330,1.127 10.480 C 1.186 10.579,1.735 11.157,2.347 11.764 C 3.322 12.732,3.484 12.877,3.657 12.934 C 4.094 13.080,4.264 13.024,5.115 12.457 C 5.470 12.221,5.767 12.034,5.774 12.044 C 5.782 12.053,5.647 13.455,5.474 15.160 C 5.301 16.865,5.158 18.440,5.157 18.660 C 5.154 19.132,5.237 19.444,5.469 19.834 C 5.648 20.136,6.098 20.575,6.388 20.731 C 7.117 21.123,8.264 21.079,9.080 20.629 C 9.488 20.404,9.753 20.167,10.077 19.739 C 10.294 19.453,10.333 19.366,10.934 17.865 C 11.231 17.122,11.521 16.453,11.579 16.378 C 11.636 16.303,11.768 16.192,11.871 16.131 L 12.060 16.020 13.000 16.020 L 13.940 16.020 14.129 16.131 C 14.232 16.192,14.364 16.303,14.421 16.378 C 14.479 16.453,14.769 17.122,15.066 17.865 C 15.667 19.366,15.706 19.453,15.923 19.739 C 16.247 20.167,16.512 20.404,16.920 20.629 C 17.736 21.079,18.883 21.123,19.612 20.731 C 19.889 20.582,20.369 20.122,20.537 19.844 C 20.721 19.540,20.839 19.160,20.862 18.800 C 20.875 18.598,20.759 17.172,20.507 14.440 C 20.301 12.207,20.137 10.374,20.143 10.366 C 20.172 10.330,20.551 10.727,20.687 10.937 C 20.961 11.359,20.971 11.422,20.997 12.943 L 21.020 14.307 21.141 14.503 C 21.543 15.156,22.457 15.156,22.859 14.503 L 22.980 14.306 22.992 12.979 C 23.006 11.479,22.970 11.171,22.705 10.516 C 22.263 9.421,21.381 8.593,20.245 8.204 C 19.676 8.009,19.478 8.000,15.569 8.000 C 12.682 8.000,11.915 7.990,11.904 7.950 C 11.896 7.923,11.841 7.729,11.782 7.520 C 11.097 5.114,8.633 3.306,5.680 3.041 C 5.076 2.987,4.857 2.993,4.643 3.069 M6.127 5.119 C 7.286 5.344,8.280 5.870,9.023 6.650 C 9.592 7.248,9.876 7.841,9.959 8.602 C 9.984 8.832,10.013 9.096,10.024 9.189 C 10.052 9.420,10.257 9.711,10.497 9.859 L 10.694 9.980 14.387 9.991 C 16.418 9.997,18.081 10.015,18.082 10.031 C 18.083 10.047,18.260 11.986,18.475 14.340 C 18.750 17.347,18.856 18.659,18.831 18.750 C 18.726 19.140,17.910 19.057,17.579 18.622 C 17.521 18.547,17.231 17.878,16.934 17.135 C 16.333 15.634,16.294 15.547,16.077 15.261 C 15.737 14.811,15.435 14.555,14.980 14.328 C 14.447 14.061,14.077 14.000,13.000 14.000 C 11.953 14.000,11.580 14.059,11.053 14.306 C 10.549 14.543,9.981 15.078,9.724 15.560 C 9.660 15.681,9.364 16.389,9.066 17.133 C 8.769 17.877,8.479 18.547,8.421 18.622 C 8.216 18.891,7.741 19.064,7.425 18.985 C 7.278 18.948,7.160 18.805,7.159 18.662 C 7.158 18.595,7.350 16.601,7.586 14.231 L 8.015 9.922 7.944 9.697 C 7.779 9.173,7.199 8.877,6.690 9.057 C 6.601 9.088,5.990 9.473,5.330 9.913 L 4.132 10.713 3.676 10.256 L 3.221 9.799 4.410 7.420 C 5.171 5.897,5.621 5.040,5.659 5.040 C 5.691 5.040,5.901 5.076,6.127 5.119 " stroke="none" fill-rule="evenodd" fill="black"></path></svg>