<svg xmlns="http://www.w3.org/2000/svg" width="24" height="24" viewBox="0 0 24 24" fill="none" stroke="currentColor" stroke-width="2" stroke-linecap="round" stroke-linejoin="round"><path d="M11.140 2.024 C 9.265 2.168,8.120 2.447,6.820 3.078 C 4.355 4.275,2.746 6.562,2.204 9.640 C 2.053 10.499,2.020 10.919,2.023 11.940 C 2.025 12.789,2.039 13.012,2.113 13.417 C 2.291 14.384,2.615 15.155,3.229 16.074 C 3.411 16.347,3.560 16.577,3.560 16.585 C 3.560 16.593,3.304 16.728,2.990 16.885 C 2.356 17.202,2.169 17.359,2.065 17.664 C 1.985 17.898,1.982 18.100,2.057 18.310 C 2.140 18.545,4.251 21.694,4.394 21.796 C 4.668 21.991,5.017 22.048,5.305 21.945 C 5.683 21.810,7.891 20.730,8.184 20.537 C 8.572 20.281,9.119 19.717,9.331 19.357 C 9.665 18.788,9.840 18.149,9.840 17.506 C 9.839 17.068,9.746 16.648,9.527 16.096 C 9.289 15.498,9.169 15.089,9.061 14.499 C 8.878 13.512,8.854 12.368,9.000 11.600 C 9.259 10.230,9.924 9.414,11.028 9.113 C 11.288 9.042,11.451 9.027,12.000 9.027 C 12.549 9.027,12.712 9.042,12.972 9.113 C 14.143 9.432,14.809 10.316,15.042 11.860 C 15.102 12.254,15.102 13.328,15.042 13.840 C 14.964 14.509,14.804 15.194,14.594 15.755 C 14.247 16.685,14.192 16.896,14.171 17.380 C 14.139 18.081,14.304 18.734,14.669 19.357 C 14.881 19.718,15.428 20.281,15.816 20.536 C 16.111 20.731,18.325 21.814,18.695 21.945 C 18.984 22.047,19.333 21.990,19.606 21.796 C 19.749 21.694,21.860 18.545,21.943 18.310 C 22.063 17.972,21.971 17.571,21.715 17.315 C 21.619 17.219,21.349 17.055,21.001 16.880 C 20.692 16.726,20.440 16.593,20.440 16.585 C 20.440 16.577,20.589 16.347,20.771 16.074 C 21.385 15.155,21.709 14.384,21.887 13.417 C 21.961 13.012,21.975 12.789,21.977 11.940 C 21.982 10.355,21.792 9.176,21.315 7.815 C 20.564 5.673,19.139 4.040,17.186 3.083 C 16.093 2.547,15.098 2.266,13.700 2.099 C 13.203 2.040,11.561 1.991,11.140 2.024 M13.600 4.101 C 16.463 4.470,18.361 5.822,19.318 8.176 C 19.966 9.768,20.180 12.044,19.817 13.476 C 19.659 14.098,19.499 14.400,18.769 15.457 C 18.069 16.471,17.913 16.879,18.059 17.318 C 18.165 17.636,18.348 17.794,18.960 18.100 C 19.257 18.248,19.507 18.376,19.516 18.384 C 19.525 18.392,19.345 18.681,19.116 19.025 C 18.887 19.369,18.689 19.667,18.676 19.688 C 18.648 19.731,17.184 19.049,16.942 18.880 C 16.559 18.612,16.329 18.309,16.217 17.924 C 16.122 17.599,16.163 17.271,16.363 16.759 C 16.759 15.746,16.984 14.768,17.080 13.640 C 17.154 12.771,17.118 12.043,16.957 11.183 C 16.537 8.943,15.141 7.464,13.100 7.097 C 12.549 6.998,11.451 6.998,10.900 7.097 C 9.132 7.415,7.841 8.564,7.260 10.337 C 6.650 12.198,6.791 14.594,7.636 16.757 C 7.832 17.257,7.873 17.566,7.788 17.890 C 7.682 18.292,7.447 18.612,7.058 18.881 C 6.812 19.051,5.351 19.731,5.324 19.688 C 5.311 19.667,5.113 19.369,4.884 19.025 C 4.655 18.681,4.475 18.392,4.484 18.384 C 4.493 18.376,4.743 18.248,5.040 18.100 C 5.652 17.794,5.835 17.636,5.941 17.318 C 6.087 16.879,5.931 16.471,5.231 15.457 C 5.004 15.129,4.761 14.770,4.692 14.660 C 4.074 13.684,3.887 12.440,4.084 10.600 C 4.338 8.215,5.399 6.302,7.060 5.231 C 8.117 4.549,9.501 4.141,11.160 4.024 C 11.620 3.992,13.121 4.039,13.600 4.101 " stroke="none" fill-rule="evenodd" fill="black"></path></svg>