<svg xmlns="http://www.w3.org/2000/svg" width="24" height="24" viewBox="0 0 24 24" fill="none" stroke="currentColor" stroke-width="2" stroke-linecap="round" stroke-linejoin="round"><path d="M2.670 2.061 C 2.448 2.142,2.250 2.309,2.128 2.516 C 2.036 2.672,2.020 2.745,2.021 3.000 C 2.021 3.213,2.043 3.341,2.095 3.440 C 2.136 3.517,2.815 4.229,3.604 5.022 C 4.982 6.406,5.040 6.470,5.040 6.614 C 5.040 7.019,5.236 7.892,5.456 8.469 C 5.997 9.887,6.964 11.069,8.304 11.950 C 8.379 11.999,8.379 12.001,8.304 12.050 C 6.550 13.203,5.472 14.818,5.092 16.860 C 5.013 17.284,4.970 20.083,5.037 20.407 C 5.148 20.941,5.596 21.535,6.070 21.775 C 6.534 22.010,6.267 22.000,12.000 22.000 C 17.733 22.000,17.466 22.010,17.930 21.775 C 18.045 21.716,18.259 21.550,18.404 21.404 C 18.676 21.132,18.836 20.871,18.919 20.564 L 18.966 20.389 19.693 21.110 C 20.093 21.506,20.483 21.864,20.560 21.904 C 20.660 21.957,20.787 21.979,21.000 21.979 C 21.258 21.980,21.327 21.964,21.492 21.867 C 21.968 21.587,22.139 20.967,21.865 20.508 C 21.810 20.416,17.665 16.243,12.653 11.235 C 4.231 2.820,3.525 2.125,3.343 2.065 C 3.107 1.987,2.874 1.986,2.670 2.061 M6.695 2.057 C 6.466 2.129,6.256 2.299,6.128 2.516 C 6.037 2.672,6.020 2.746,6.020 3.000 C 6.020 3.256,6.036 3.328,6.131 3.489 C 6.256 3.702,6.449 3.864,6.670 3.943 C 6.792 3.987,7.762 3.997,11.910 3.998 L 17.000 4.000 17.000 5.131 C 17.000 6.364,16.968 6.742,16.818 7.320 C 16.692 7.801,16.322 8.561,16.008 8.980 C 15.705 9.386,15.191 9.878,14.780 10.156 C 14.604 10.275,14.428 10.410,14.389 10.456 C 14.112 10.781,14.059 11.232,14.255 11.586 C 14.529 12.083,15.135 12.257,15.628 11.982 C 16.274 11.621,17.206 10.762,17.690 10.080 C 18.230 9.321,18.688 8.254,18.884 7.295 C 18.965 6.901,18.975 6.717,18.990 5.340 C 19.008 3.684,18.991 3.496,18.782 3.083 C 18.646 2.816,18.297 2.449,18.017 2.281 C 17.533 1.989,17.860 2.005,12.060 2.005 C 7.920 2.005,6.826 2.016,6.695 2.057 M14.310 15.730 L 17.000 18.420 17.000 19.210 L 17.000 20.000 12.000 20.000 L 7.000 20.000 7.000 18.918 C 7.000 17.763,7.039 17.240,7.162 16.760 C 7.563 15.187,8.743 13.884,10.289 13.306 C 10.666 13.165,11.158 13.056,11.460 13.045 L 11.620 13.040 14.310 15.730 " stroke="none" fill-rule="evenodd" fill="black"></path></svg>