<svg xmlns="http://www.w3.org/2000/svg" width="24" height="24" viewBox="0 0 24 24" fill="none" stroke="currentColor" stroke-width="2" stroke-linecap="round" stroke-linejoin="round"><path d="M2.695 7.055 C 2.464 7.130,2.255 7.300,2.128 7.516 L 2.020 7.700 2.009 11.913 C 2.002 14.672,2.013 16.178,2.039 16.277 C 2.099 16.498,2.290 16.739,2.508 16.867 L 2.700 16.980 4.120 16.980 C 5.497 16.980,5.549 16.977,5.840 16.886 C 6.827 16.578,7.578 15.827,7.886 14.840 L 7.980 14.540 7.980 12.000 L 7.980 9.460 7.886 9.160 C 7.581 8.181,6.825 7.421,5.861 7.124 C 5.551 7.028,5.495 7.025,4.200 7.014 C 3.166 7.005,2.822 7.014,2.695 7.055 M9.695 7.057 C 9.466 7.129,9.256 7.299,9.128 7.516 L 9.020 7.700 9.009 11.913 C 9.002 14.672,9.013 16.178,9.039 16.277 C 9.099 16.498,9.290 16.739,9.508 16.867 L 9.700 16.980 11.911 16.991 C 13.337 16.999,14.176 16.988,14.275 16.961 C 14.498 16.901,14.739 16.711,14.867 16.492 C 14.964 16.327,14.980 16.257,14.980 16.000 C 14.980 15.746,14.963 15.672,14.872 15.516 C 14.813 15.415,14.698 15.282,14.618 15.221 C 14.342 15.011,14.242 15.000,12.554 15.000 L 11.000 15.000 11.000 14.000 L 11.000 13.000 11.850 13.000 C 12.661 12.999,12.709 12.995,12.900 12.905 C 13.281 12.724,13.488 12.405,13.488 12.000 C 13.488 11.615,13.293 11.297,12.940 11.106 C 12.792 11.027,12.713 11.019,11.890 11.007 L 11.000 10.995 11.000 9.997 L 11.000 9.000 12.590 8.998 C 14.300 8.996,14.346 8.991,14.619 8.783 C 14.696 8.725,14.808 8.592,14.869 8.489 C 14.964 8.328,14.980 8.256,14.980 8.000 C 14.980 7.746,14.963 7.672,14.872 7.516 C 14.740 7.293,14.533 7.128,14.290 7.055 C 14.033 6.978,9.943 6.979,9.695 7.057 M16.695 7.057 C 16.466 7.129,16.256 7.299,16.128 7.516 L 16.020 7.700 16.009 11.913 C 16.002 14.672,16.013 16.178,16.039 16.277 C 16.099 16.498,16.290 16.739,16.508 16.867 L 16.700 16.980 18.911 16.991 C 20.337 16.999,21.176 16.988,21.275 16.961 C 21.498 16.901,21.739 16.711,21.867 16.492 C 21.964 16.327,21.980 16.257,21.980 16.000 C 21.980 15.746,21.963 15.672,21.872 15.516 C 21.813 15.415,21.698 15.282,21.618 15.221 C 21.342 15.011,21.242 15.000,19.554 15.000 L 18.002 15.000 17.991 11.350 L 17.980 7.700 17.872 7.516 C 17.628 7.101,17.150 6.915,16.695 7.057 M5.310 9.061 C 5.589 9.144,5.856 9.411,5.939 9.690 C 6.025 9.978,6.030 14.007,5.945 14.290 C 5.872 14.533,5.707 14.740,5.484 14.872 C 5.308 14.975,5.272 14.981,4.650 14.993 L 4.000 15.007 4.000 12.003 L 4.000 9.000 4.553 9.000 C 4.931 9.000,5.170 9.019,5.310 9.061 " stroke="none" fill-rule="evenodd" fill="black"></path></svg>