<svg xmlns="http://www.w3.org/2000/svg" width="24" height="24" viewBox="0 0 24 24" fill="none" stroke="currentColor" stroke-width="2" stroke-linecap="round" stroke-linejoin="round"><path d="M2.695 7.057 C 2.466 7.129,2.256 7.299,2.128 7.516 C 2.037 7.672,2.020 7.746,2.020 8.000 C 2.020 8.256,2.036 8.328,2.131 8.489 C 2.256 8.702,2.449 8.864,2.670 8.943 C 2.768 8.978,3.023 8.997,3.409 8.998 L 3.998 9.000 4.009 12.653 L 4.020 16.306 4.141 16.503 C 4.543 17.156,5.457 17.156,5.859 16.503 L 5.980 16.306 5.991 12.653 L 6.002 9.000 6.591 8.998 C 6.977 8.997,7.232 8.978,7.330 8.943 C 7.551 8.864,7.744 8.702,7.869 8.489 C 7.964 8.328,7.980 8.256,7.980 8.000 C 7.980 7.746,7.963 7.672,7.872 7.516 C 7.740 7.293,7.533 7.128,7.290 7.055 C 7.033 6.978,2.943 6.979,2.695 7.057 M9.695 7.055 C 9.464 7.130,9.255 7.300,9.128 7.516 L 9.020 7.700 9.020 12.003 L 9.020 16.306 9.141 16.503 C 9.543 17.156,10.457 17.156,10.859 16.503 L 10.980 16.306 10.992 14.989 L 11.004 13.672 12.160 15.213 C 13.425 16.900,13.469 16.944,13.888 16.987 C 14.447 17.044,14.931 16.657,14.988 16.106 C 15.027 15.731,14.961 15.615,13.901 14.201 C 13.361 13.481,12.920 12.881,12.920 12.866 C 12.920 12.852,12.945 12.840,12.975 12.840 C 13.092 12.840,13.670 12.513,13.891 12.323 C 14.394 11.890,14.703 11.429,14.886 10.840 C 15.021 10.406,15.021 9.594,14.886 9.160 C 14.581 8.182,13.825 7.421,12.861 7.124 C 12.551 7.028,12.495 7.025,11.200 7.014 C 10.166 7.005,9.822 7.014,9.695 7.055 M18.499 7.040 C 17.363 7.246,16.461 8.048,16.114 9.160 L 16.020 9.460 16.020 12.883 L 16.020 16.306 16.141 16.503 C 16.543 17.156,17.457 17.156,17.859 16.503 L 17.980 16.307 17.992 15.153 L 18.005 14.000 19.000 14.000 L 19.995 14.000 20.008 15.153 L 20.020 16.307 20.141 16.503 C 20.543 17.156,21.457 17.156,21.859 16.503 L 21.980 16.306 21.980 12.883 L 21.980 9.460 21.886 9.160 C 21.580 8.178,20.810 7.407,19.861 7.129 C 19.500 7.023,18.832 6.980,18.499 7.040 M12.310 9.061 C 12.688 9.173,13.000 9.598,13.000 10.001 C 13.000 10.331,12.784 10.696,12.484 10.872 C 12.308 10.975,12.272 10.981,11.650 10.993 L 11.000 11.007 11.000 10.003 L 11.000 9.000 11.553 9.000 C 11.931 9.000,12.170 9.019,12.310 9.061 M19.310 9.061 C 19.452 9.103,19.571 9.178,19.697 9.303 C 19.978 9.584,20.000 9.703,20.000 10.947 L 20.000 12.000 19.000 12.000 L 18.000 12.000 18.000 10.947 C 18.000 9.702,18.022 9.585,18.304 9.303 C 18.583 9.024,18.916 8.944,19.310 9.061 " stroke="none" fill-rule="evenodd" fill="black"></path></svg>