<svg xmlns="http://www.w3.org/2000/svg" width="24" height="24" viewBox="0 0 24 24" fill="none" stroke="currentColor" stroke-width="2" stroke-linecap="round" stroke-linejoin="round"><path d="M4.499 7.040 C 3.363 7.246,2.461 8.048,2.114 9.160 L 2.020 9.460 2.020 12.000 L 2.020 14.540 2.114 14.840 C 2.422 15.827,3.174 16.579,4.160 16.886 C 4.594 17.021,5.406 17.021,5.840 16.886 C 6.827 16.579,7.584 15.821,7.885 14.840 C 7.955 14.611,7.977 14.440,7.978 14.120 C 7.980 13.733,7.971 13.686,7.871 13.514 C 7.568 12.998,6.883 12.854,6.405 13.205 C 6.169 13.379,6.047 13.609,6.002 13.966 C 5.981 14.130,5.945 14.314,5.922 14.375 C 5.851 14.561,5.677 14.758,5.484 14.872 C 5.328 14.963,5.254 14.980,5.000 14.980 C 4.746 14.980,4.672 14.963,4.516 14.872 C 4.303 14.747,4.141 14.550,4.058 14.316 C 3.970 14.065,3.972 9.988,4.061 9.690 C 4.173 9.312,4.598 9.000,5.000 9.000 C 5.223 9.000,5.510 9.120,5.679 9.283 C 5.886 9.485,5.951 9.636,6.001 10.031 C 6.049 10.410,6.184 10.647,6.452 10.828 C 6.923 11.144,7.554 10.998,7.859 10.503 C 7.974 10.315,7.980 10.285,7.978 9.883 C 7.977 9.559,7.955 9.390,7.885 9.160 C 7.586 8.184,6.811 7.407,5.861 7.129 C 5.500 7.023,4.832 6.980,4.499 7.040 M11.499 7.040 C 10.363 7.246,9.461 8.048,9.114 9.160 L 9.020 9.460 9.020 12.000 L 9.020 14.540 9.114 14.840 C 9.422 15.827,10.174 16.579,11.160 16.886 C 11.594 17.021,12.406 17.021,12.840 16.886 C 13.826 16.579,14.578 15.827,14.886 14.840 L 14.980 14.540 14.980 12.000 L 14.980 9.460 14.886 9.160 C 14.580 8.178,13.810 7.407,12.861 7.129 C 12.500 7.023,11.832 6.980,11.499 7.040 M16.695 7.057 C 16.466 7.129,16.256 7.299,16.128 7.516 L 16.020 7.700 16.020 12.003 L 16.020 16.306 16.141 16.503 C 16.543 17.156,17.457 17.156,17.859 16.503 L 17.980 16.306 17.993 14.283 L 18.006 12.260 19.098 14.439 C 20.279 16.795,20.287 16.807,20.671 16.938 C 21.043 17.064,21.426 16.976,21.702 16.700 C 22.020 16.382,22.003 16.669,21.991 11.918 L 21.980 7.700 21.871 7.514 C 21.479 6.848,20.521 6.848,20.129 7.514 L 20.020 7.700 20.007 9.720 L 19.994 11.740 18.902 9.561 C 17.721 7.205,17.713 7.193,17.329 7.062 C 17.111 6.988,16.920 6.987,16.695 7.057 M12.310 9.061 C 12.589 9.144,12.856 9.411,12.939 9.690 C 13.025 9.978,13.030 14.007,12.945 14.290 C 12.872 14.533,12.707 14.740,12.484 14.872 C 12.328 14.963,12.254 14.980,12.000 14.980 C 11.746 14.980,11.672 14.963,11.516 14.872 C 11.415 14.813,11.282 14.698,11.221 14.618 C 11.004 14.333,11.000 14.287,11.000 12.001 C 11.000 9.588,10.998 9.609,11.304 9.303 C 11.583 9.024,11.916 8.944,12.310 9.061 " stroke="none" fill-rule="evenodd" fill="black"></path></svg>