<svg xmlns="http://www.w3.org/2000/svg" width="24" height="24" viewBox="0 0 24 24" fill="none" stroke="currentColor" stroke-width="2" stroke-linecap="round" stroke-linejoin="round"><path d="M4.499 7.043 C 3.383 7.230,2.461 8.048,2.114 9.160 L 2.020 9.460 2.020 12.000 L 2.020 14.540 2.114 14.840 C 2.422 15.827,3.173 16.578,4.160 16.886 C 4.451 16.977,4.503 16.980,5.880 16.980 L 7.300 16.980 7.492 16.867 C 7.711 16.739,7.901 16.498,7.961 16.275 C 7.988 16.176,7.999 15.337,7.991 13.911 L 7.980 11.700 7.872 11.516 C 7.629 11.102,7.357 11.000,6.500 11.000 C 5.643 11.000,5.371 11.102,5.128 11.516 C 5.036 11.672,5.020 11.746,5.020 12.003 C 5.020 12.271,5.034 12.329,5.141 12.503 C 5.288 12.742,5.578 12.946,5.821 12.982 L 6.000 13.009 6.000 14.008 L 6.000 15.007 5.350 14.993 C 4.728 14.981,4.692 14.975,4.516 14.872 C 4.415 14.813,4.284 14.700,4.225 14.623 C 4.000 14.327,4.000 14.332,4.000 12.022 C 4.000 9.586,3.997 9.609,4.303 9.303 C 4.587 9.019,4.694 9.000,6.037 8.998 C 7.266 8.996,7.356 8.984,7.619 8.783 C 7.696 8.725,7.808 8.592,7.869 8.489 C 7.964 8.328,7.980 8.256,7.980 8.000 C 7.980 7.746,7.963 7.672,7.872 7.516 C 7.813 7.415,7.698 7.282,7.618 7.221 C 7.350 7.016,7.216 7.000,5.904 7.005 C 5.242 7.007,4.609 7.025,4.499 7.043 M9.695 7.057 C 9.466 7.129,9.256 7.299,9.128 7.516 L 9.020 7.700 9.009 11.913 C 9.002 14.672,9.013 16.178,9.039 16.277 C 9.099 16.498,9.290 16.739,9.508 16.867 L 9.700 16.980 11.911 16.991 C 13.337 16.999,14.176 16.988,14.275 16.961 C 14.498 16.901,14.739 16.711,14.867 16.492 C 14.964 16.327,14.980 16.257,14.980 16.000 C 14.980 15.746,14.963 15.672,14.872 15.516 C 14.813 15.415,14.698 15.282,14.618 15.221 C 14.342 15.011,14.242 15.000,12.554 15.000 L 11.000 15.000 11.000 14.000 L 11.000 13.000 11.850 13.000 C 12.661 12.999,12.709 12.995,12.900 12.905 C 13.281 12.724,13.488 12.405,13.488 12.000 C 13.488 11.615,13.293 11.297,12.940 11.106 C 12.792 11.027,12.713 11.019,11.890 11.007 L 11.000 10.995 11.000 9.997 L 11.000 9.000 12.590 8.998 C 14.300 8.996,14.346 8.991,14.619 8.783 C 14.696 8.725,14.808 8.592,14.869 8.489 C 14.964 8.328,14.980 8.256,14.980 8.000 C 14.980 7.746,14.963 7.672,14.872 7.516 C 14.740 7.293,14.533 7.128,14.290 7.055 C 14.033 6.978,9.943 6.979,9.695 7.057 M16.695 7.057 C 16.466 7.129,16.256 7.299,16.128 7.516 C 16.037 7.672,16.020 7.746,16.020 8.000 C 16.020 8.256,16.036 8.328,16.131 8.489 C 16.256 8.702,16.449 8.864,16.670 8.943 C 16.768 8.978,17.023 8.997,17.409 8.998 L 17.998 9.000 18.009 12.653 L 18.020 16.306 18.141 16.503 C 18.543 17.156,19.457 17.156,19.859 16.503 L 19.980 16.306 19.991 12.653 L 20.002 9.000 20.591 8.998 C 20.977 8.997,21.232 8.978,21.330 8.943 C 21.551 8.864,21.744 8.702,21.869 8.489 C 21.964 8.328,21.980 8.256,21.980 8.000 C 21.980 7.746,21.963 7.672,21.872 7.516 C 21.740 7.293,21.533 7.128,21.290 7.055 C 21.033 6.978,16.943 6.979,16.695 7.057 " stroke="none" fill-rule="evenodd" fill="black"></path></svg>