<svg xmlns="http://www.w3.org/2000/svg" width="24" height="24" viewBox="0 0 24 24" fill="none" stroke="currentColor" stroke-width="2" stroke-linecap="round" stroke-linejoin="round"><path d="M2.695 7.055 C 2.464 7.130,2.255 7.300,2.128 7.516 L 2.020 7.700 2.020 12.003 L 2.020 16.306 2.141 16.503 C 2.543 17.156,3.457 17.156,3.859 16.503 L 3.980 16.306 3.992 14.658 L 4.003 13.009 4.792 12.990 C 5.464 12.974,5.621 12.958,5.860 12.882 C 6.835 12.570,7.582 11.817,7.886 10.840 C 8.021 10.406,8.021 9.594,7.886 9.160 C 7.581 8.182,6.825 7.421,5.861 7.124 C 5.551 7.028,5.495 7.025,4.200 7.014 C 3.166 7.005,2.822 7.014,2.695 7.055 M11.499 7.040 C 10.363 7.246,9.461 8.048,9.114 9.160 L 9.020 9.460 9.020 12.883 L 9.020 16.306 9.141 16.503 C 9.543 17.156,10.457 17.156,10.859 16.503 L 10.980 16.307 10.992 15.153 L 11.005 14.000 12.000 14.000 L 12.995 14.000 13.008 15.153 L 13.020 16.307 13.141 16.503 C 13.543 17.156,14.457 17.156,14.859 16.503 L 14.980 16.306 14.980 12.883 L 14.980 9.460 14.886 9.160 C 14.580 8.178,13.810 7.407,12.861 7.129 C 12.500 7.023,11.832 6.980,11.499 7.040 M16.695 7.057 C 16.466 7.129,16.256 7.299,16.128 7.516 C 16.037 7.672,16.020 7.746,16.020 8.000 C 16.020 8.256,16.036 8.328,16.131 8.489 C 16.256 8.702,16.449 8.864,16.670 8.943 C 16.768 8.978,17.023 8.997,17.409 8.998 L 17.998 9.000 18.009 12.653 L 18.020 16.306 18.141 16.503 C 18.543 17.156,19.457 17.156,19.859 16.503 L 19.980 16.306 19.991 12.653 L 20.002 9.000 20.591 8.998 C 20.977 8.997,21.232 8.978,21.330 8.943 C 21.551 8.864,21.744 8.702,21.869 8.489 C 21.964 8.328,21.980 8.256,21.980 8.000 C 21.980 7.746,21.963 7.672,21.872 7.516 C 21.740 7.293,21.533 7.128,21.290 7.055 C 21.033 6.978,16.943 6.979,16.695 7.057 M5.310 9.061 C 5.688 9.173,6.000 9.598,6.000 10.001 C 6.000 10.331,5.784 10.696,5.484 10.872 C 5.308 10.975,5.272 10.981,4.650 10.993 L 4.000 11.007 4.000 10.003 L 4.000 9.000 4.553 9.000 C 4.931 9.000,5.170 9.019,5.310 9.061 M12.310 9.061 C 12.452 9.103,12.571 9.178,12.697 9.303 C 12.978 9.584,13.000 9.703,13.000 10.947 L 13.000 12.000 12.000 12.000 L 11.000 12.000 11.000 10.947 C 11.000 9.702,11.022 9.585,11.304 9.303 C 11.583 9.024,11.916 8.944,12.310 9.061 " stroke="none" fill-rule="evenodd" fill="black"></path></svg>