<svg xmlns="http://www.w3.org/2000/svg" width="24" height="24" viewBox="0 0 24 24" fill="none" stroke="currentColor" stroke-width="2" stroke-linecap="round" stroke-linejoin="round"><path d="M11.400 2.044 C 9.761 2.229,8.261 3.290,7.526 4.785 C 7.347 5.149,7.197 5.572,7.095 6.000 C 7.028 6.279,7.022 6.681,7.011 11.712 C 7.002 15.309,7.012 17.175,7.039 17.276 C 7.099 17.498,7.290 17.739,7.508 17.867 L 7.700 17.980 9.350 17.992 L 11.000 18.003 11.000 19.852 L 11.001 21.700 11.095 21.900 C 11.276 22.281,11.595 22.488,12.000 22.488 C 12.405 22.488,12.724 22.281,12.905 21.900 L 12.999 21.700 13.000 19.852 L 13.000 18.003 14.650 17.992 L 16.300 17.980 16.492 17.867 C 16.710 17.739,16.901 17.498,16.961 17.276 C 16.988 17.175,16.998 15.309,16.989 11.712 C 16.978 6.681,16.972 6.279,16.905 6.000 C 16.533 4.435,15.584 3.211,14.213 2.525 C 13.352 2.095,12.397 1.932,11.400 2.044 M12.861 4.129 C 13.596 4.344,14.252 4.878,14.641 5.578 C 14.781 5.830,14.956 6.338,14.916 6.377 C 14.902 6.390,9.202 8.889,9.047 8.950 C 9.002 8.968,8.996 8.752,9.009 7.716 C 9.025 6.519,9.030 6.445,9.124 6.139 C 9.458 5.052,10.371 4.245,11.499 4.040 C 11.832 3.980,12.500 4.023,12.861 4.129 M15.000 9.434 L 15.000 10.348 12.050 11.639 C 10.428 12.348,9.077 12.938,9.049 12.949 C 9.009 12.965,9.001 12.781,9.009 12.058 L 9.020 11.146 12.000 9.837 C 13.639 9.117,14.985 8.527,14.990 8.524 C 14.995 8.522,15.000 8.931,15.000 9.434 M15.000 14.260 L 15.000 16.000 11.999 16.000 L 8.997 16.000 9.009 15.573 L 9.020 15.146 12.000 13.837 C 13.639 13.117,14.985 12.527,14.990 12.524 C 14.995 12.522,15.000 13.303,15.000 14.260 " stroke="none" fill-rule="evenodd" fill="black"></path></svg>