<svg xmlns="http://www.w3.org/2000/svg" width="24" height="24" viewBox="0 0 24 24" fill="none" stroke="currentColor" stroke-width="2" stroke-linecap="round" stroke-linejoin="round"><path d="M5.900 2.045 C 4.431 2.229,3.051 3.245,2.421 4.609 C 1.787 5.981,1.883 7.574,2.677 8.864 C 3.287 9.855,4.242 10.550,5.437 10.871 C 5.778 10.963,5.895 10.974,6.500 10.974 C 7.105 10.974,7.222 10.963,7.563 10.871 C 9.550 10.337,10.890 8.711,10.988 6.717 C 11.126 3.921,8.702 1.695,5.900 2.045 M13.670 2.061 C 13.448 2.142,13.250 2.309,13.128 2.516 C 13.036 2.672,13.020 2.745,13.021 3.000 C 13.021 3.212,13.043 3.341,13.095 3.440 C 13.135 3.517,13.824 4.237,14.624 5.040 L 16.079 6.501 14.657 7.920 C 13.875 8.701,13.190 9.416,13.135 9.508 C 12.861 9.967,13.032 10.587,13.508 10.867 C 13.673 10.964,13.742 10.980,14.000 10.979 C 14.212 10.979,14.341 10.957,14.440 10.905 C 14.517 10.865,15.237 10.176,16.040 9.376 L 17.501 7.921 18.920 9.343 C 19.701 10.125,20.421 10.814,20.520 10.873 C 20.673 10.964,20.746 10.980,21.000 10.980 C 21.257 10.980,21.327 10.964,21.492 10.867 C 21.968 10.587,22.139 9.967,21.865 9.508 C 21.810 9.416,21.125 8.701,20.343 7.920 L 18.921 6.501 20.376 5.040 C 21.176 4.237,21.865 3.517,21.905 3.440 C 21.957 3.341,21.979 3.212,21.979 3.000 C 21.980 2.745,21.964 2.672,21.872 2.516 C 21.618 2.084,21.137 1.906,20.657 2.066 C 20.482 2.124,20.296 2.295,18.980 3.604 L 17.500 5.077 16.020 3.604 C 14.704 2.295,14.518 2.124,14.343 2.066 C 14.108 1.987,13.875 1.986,13.670 2.061 M7.020 4.060 C 7.741 4.211,8.395 4.713,8.715 5.362 C 9.087 6.118,9.090 6.878,8.723 7.620 C 8.439 8.195,7.932 8.646,7.320 8.868 C 7.052 8.965,6.965 8.976,6.500 8.976 C 6.035 8.976,5.948 8.965,5.680 8.868 C 4.495 8.438,3.803 7.206,4.060 5.980 C 4.339 4.644,5.674 3.778,7.020 4.060 M6.260 13.035 C 6.072 13.084,5.911 13.182,5.776 13.327 C 5.606 13.509,1.579 20.577,1.521 20.794 C 1.471 20.983,1.512 21.271,1.617 21.472 C 1.690 21.612,1.903 21.811,2.080 21.906 C 2.214 21.977,2.413 21.981,6.440 21.991 C 11.145 22.004,10.844 22.020,11.169 21.727 C 11.432 21.490,11.541 21.166,11.475 20.816 C 11.450 20.683,10.867 19.626,9.394 17.050 C 8.269 15.081,7.294 13.408,7.228 13.332 C 7.005 13.078,6.586 12.950,6.260 13.035 M13.695 13.057 C 13.466 13.129,13.256 13.299,13.128 13.516 L 13.020 13.700 13.020 17.500 L 13.020 21.300 13.131 21.489 C 13.256 21.702,13.449 21.864,13.670 21.943 C 13.891 22.022,21.109 22.022,21.330 21.943 C 21.551 21.864,21.744 21.702,21.869 21.489 L 21.980 21.300 21.980 17.500 L 21.980 13.700 21.872 13.516 C 21.740 13.293,21.533 13.128,21.290 13.055 C 21.030 12.977,13.945 12.979,13.695 13.057 M20.000 17.500 L 20.000 20.000 17.500 20.000 L 15.000 20.000 15.000 17.500 L 15.000 15.000 17.500 15.000 L 20.000 15.000 20.000 17.500 M7.656 18.035 C 8.263 19.099,8.760 19.976,8.760 19.985 C 8.760 19.993,7.743 20.000,6.500 20.000 C 5.257 20.000,4.240 19.993,4.240 19.985 C 4.240 19.918,6.497 16.041,6.520 16.067 C 6.537 16.085,7.048 16.971,7.656 18.035 " stroke="none" fill-rule="evenodd" fill="black"></path></svg>