<svg xmlns="http://www.w3.org/2000/svg" width="24" height="24" viewBox="0 0 24 24" fill="none" stroke="currentColor" stroke-width="2" stroke-linecap="round" stroke-linejoin="round"><path d="M2.670 2.061 C 2.448 2.142,2.250 2.309,2.128 2.516 C 2.036 2.672,2.020 2.745,2.021 3.000 C 2.022 3.367,2.077 3.481,2.425 3.842 L 2.678 4.104 2.521 4.403 C 1.837 5.710,1.833 7.246,2.511 8.581 C 2.911 9.368,3.679 10.121,4.500 10.531 C 5.753 11.157,7.291 11.148,8.592 10.507 L 8.923 10.344 10.961 12.381 L 12.998 14.418 13.009 17.859 L 13.020 21.300 13.131 21.489 C 13.256 21.702,13.449 21.864,13.670 21.943 C 13.791 21.986,14.533 21.997,17.520 21.998 L 21.220 21.999 21.420 21.905 C 21.929 21.664,22.142 21.080,21.904 20.580 C 21.826 20.417,20.124 18.697,12.674 11.255 C 4.233 2.822,3.525 2.125,3.343 2.065 C 3.107 1.987,2.874 1.986,2.670 2.061 M13.670 2.061 C 13.448 2.142,13.250 2.309,13.128 2.516 C 13.036 2.672,13.020 2.745,13.021 3.000 C 13.021 3.212,13.043 3.341,13.095 3.440 C 13.135 3.517,13.824 4.237,14.624 5.040 L 16.079 6.501 14.657 7.920 C 13.875 8.701,13.190 9.416,13.135 9.508 C 12.861 9.967,13.032 10.587,13.508 10.867 C 13.673 10.964,13.742 10.980,14.000 10.979 C 14.212 10.979,14.341 10.957,14.440 10.905 C 14.517 10.865,15.237 10.176,16.040 9.376 L 17.501 7.921 18.920 9.343 C 19.701 10.125,20.421 10.814,20.520 10.873 C 20.673 10.964,20.746 10.980,21.000 10.980 C 21.257 10.980,21.327 10.964,21.492 10.867 C 21.968 10.587,22.139 9.967,21.865 9.508 C 21.810 9.416,21.125 8.701,20.343 7.920 L 18.921 6.501 20.376 5.040 C 21.176 4.237,21.865 3.517,21.905 3.440 C 21.957 3.341,21.979 3.212,21.979 3.000 C 21.980 2.745,21.964 2.672,21.872 2.516 C 21.618 2.084,21.137 1.906,20.657 2.066 C 20.482 2.124,20.296 2.295,18.980 3.604 L 17.500 5.077 16.020 3.604 C 14.704 2.295,14.518 2.124,14.343 2.066 C 14.108 1.987,13.875 1.986,13.670 2.061 M6.800 2.077 C 6.462 2.180,6.195 2.447,6.098 2.780 C 5.995 3.135,6.090 3.484,6.363 3.757 C 6.528 3.922,6.640 3.975,7.000 4.058 C 7.999 4.290,8.677 4.967,8.938 5.993 C 9.046 6.415,9.160 6.614,9.384 6.769 C 9.955 7.162,10.697 6.899,10.919 6.224 C 11.060 5.794,10.709 4.681,10.200 3.943 C 9.970 3.611,9.492 3.122,9.143 2.863 C 8.437 2.338,7.251 1.940,6.800 2.077 M7.400 8.847 C 7.400 8.892,7.000 8.966,6.635 8.989 C 6.025 9.027,5.429 8.831,4.912 8.422 C 4.166 7.832,3.832 6.748,4.106 5.805 L 4.169 5.589 5.784 7.204 C 6.673 8.093,7.400 8.832,7.400 8.847 M6.260 13.035 C 6.072 13.084,5.911 13.182,5.776 13.327 C 5.606 13.509,1.579 20.577,1.521 20.794 C 1.471 20.983,1.512 21.271,1.617 21.472 C 1.690 21.612,1.903 21.811,2.080 21.906 C 2.214 21.977,2.413 21.981,6.440 21.991 C 11.145 22.004,10.844 22.020,11.169 21.727 C 11.432 21.490,11.541 21.166,11.475 20.816 C 11.450 20.683,10.867 19.626,9.394 17.050 C 8.269 15.081,7.294 13.408,7.228 13.332 C 7.005 13.078,6.586 12.950,6.260 13.035 M17.695 13.057 C 17.466 13.129,17.256 13.299,17.128 13.516 C 17.037 13.672,17.020 13.746,17.020 14.000 C 17.020 14.256,17.036 14.328,17.131 14.489 C 17.192 14.592,17.304 14.725,17.381 14.783 C 17.642 14.983,17.738 14.996,18.908 14.998 L 19.995 15.000 20.008 16.153 L 20.020 17.307 20.141 17.503 C 20.543 18.156,21.457 18.156,21.859 17.503 L 21.980 17.306 21.980 15.503 L 21.980 13.700 21.872 13.516 C 21.740 13.293,21.533 13.128,21.290 13.055 C 21.035 12.978,17.941 12.980,17.695 13.057 M7.656 18.035 C 8.263 19.099,8.760 19.976,8.760 19.985 C 8.760 19.993,7.743 20.000,6.500 20.000 C 5.257 20.000,4.240 19.993,4.240 19.985 C 4.240 19.918,6.497 16.041,6.520 16.067 C 6.537 16.085,7.048 16.971,7.656 18.035 M16.800 18.220 L 18.580 20.000 16.790 20.000 L 15.000 20.000 15.000 18.220 C 15.000 17.241,15.005 16.440,15.010 16.440 C 15.016 16.440,15.821 17.241,16.800 18.220 " stroke="none" fill-rule="evenodd" fill="black"></path></svg>