<svg xmlns="http://www.w3.org/2000/svg" width="24" height="24" viewBox="0 0 24 24" fill="none" stroke="currentColor" stroke-width="2" stroke-linecap="round" stroke-linejoin="round"><path d="M2.670 2.061 C 2.448 2.142,2.250 2.309,2.128 2.516 C 2.036 2.672,2.020 2.745,2.021 3.000 C 2.022 3.390,2.071 3.479,2.568 3.985 L 2.966 4.391 2.803 4.605 C 2.593 4.881,2.341 5.366,2.216 5.732 C 1.996 6.377,2.000 6.252,2.000 12.029 C 2.000 17.266,2.002 17.375,2.083 17.773 C 2.311 18.892,2.985 19.851,3.956 20.436 C 4.286 20.636,4.810 20.832,5.247 20.921 C 5.633 21.000,5.766 21.001,12.150 20.990 L 18.660 20.978 18.973 20.889 C 19.145 20.841,19.299 20.793,19.316 20.783 C 19.332 20.773,19.569 20.990,19.843 21.265 C 20.476 21.903,20.601 21.980,21.000 21.980 C 21.257 21.980,21.327 21.964,21.492 21.867 C 21.968 21.587,22.139 20.967,21.865 20.508 C 21.810 20.416,17.665 16.243,12.653 11.235 C 4.231 2.820,3.525 2.125,3.343 2.065 C 3.107 1.987,2.874 1.986,2.670 2.061 M7.695 3.057 C 7.466 3.129,7.256 3.299,7.128 3.516 C 7.037 3.672,7.020 3.746,7.020 4.000 C 7.020 4.256,7.036 4.328,7.131 4.489 C 7.256 4.702,7.449 4.864,7.670 4.943 C 7.792 4.987,8.779 4.997,13.012 4.998 C 18.777 5.000,18.526 4.989,18.986 5.265 C 19.288 5.446,19.492 5.642,19.686 5.937 C 20.002 6.419,19.977 5.943,20.000 11.943 L 20.020 17.306 20.141 17.503 C 20.543 18.156,21.457 18.156,21.859 17.503 L 21.980 17.306 21.991 11.972 C 22.001 6.773,21.999 6.628,21.921 6.245 C 21.628 4.806,20.638 3.681,19.245 3.204 C 18.655 3.002,18.601 3.000,13.040 3.003 C 8.921 3.005,7.826 3.016,7.695 3.057 M5.545 6.965 L 6.671 8.091 6.496 8.353 C 6.143 8.879,5.973 9.513,6.013 10.155 C 6.042 10.632,6.120 10.928,6.322 11.340 C 6.685 12.076,7.427 12.687,8.220 12.900 C 8.593 13.000,9.246 13.021,9.575 12.944 C 9.962 12.853,10.418 12.662,10.682 12.482 L 10.908 12.328 12.244 13.664 L 13.580 15.000 10.236 15.000 C 6.608 15.000,6.677 14.996,6.382 15.221 C 6.302 15.282,6.187 15.415,6.128 15.516 C 6.037 15.672,6.020 15.746,6.020 16.000 C 6.020 16.256,6.036 16.328,6.131 16.489 C 6.256 16.702,6.449 16.864,6.670 16.943 C 6.792 16.986,7.646 16.997,11.200 16.998 L 15.581 17.000 16.580 18.000 L 17.579 19.000 11.658 19.000 C 5.225 19.000,5.534 19.010,5.083 18.781 C 4.806 18.641,4.446 18.293,4.271 17.998 C 3.984 17.511,3.996 17.796,4.009 11.880 L 4.020 6.580 4.127 6.313 C 4.237 6.040,4.350 5.840,4.394 5.840 C 4.408 5.840,4.926 6.346,5.545 6.965 M14.695 7.057 C 14.466 7.129,14.256 7.299,14.128 7.516 C 14.037 7.672,14.020 7.746,14.020 8.000 C 14.020 8.256,14.036 8.328,14.131 8.489 C 14.256 8.702,14.449 8.864,14.670 8.943 C 14.885 9.020,17.115 9.020,17.330 8.943 C 17.551 8.864,17.744 8.702,17.869 8.489 C 17.964 8.328,17.980 8.256,17.980 8.000 C 17.980 7.746,17.963 7.672,17.872 7.516 C 17.740 7.293,17.533 7.128,17.290 7.055 C 17.039 6.979,14.937 6.981,14.695 7.057 M8.799 10.219 C 9.160 10.581,9.448 10.884,9.438 10.893 C 9.386 10.937,9.130 11.000,9.001 11.000 C 8.348 11.000,7.859 10.341,8.046 9.715 C 8.072 9.630,8.104 9.560,8.117 9.560 C 8.130 9.560,8.437 9.856,8.799 10.219 M15.695 11.057 C 15.466 11.129,15.256 11.299,15.128 11.516 C 15.037 11.672,15.020 11.746,15.020 12.000 C 15.020 12.256,15.036 12.328,15.131 12.489 C 15.256 12.702,15.449 12.864,15.670 12.943 C 15.878 13.017,17.122 13.017,17.330 12.943 C 17.551 12.864,17.744 12.702,17.869 12.489 C 17.964 12.328,17.980 12.256,17.980 12.000 C 17.980 11.746,17.963 11.672,17.872 11.516 C 17.740 11.293,17.533 11.128,17.290 11.055 C 17.050 10.983,15.928 10.984,15.695 11.057 " stroke="none" fill-rule="evenodd" fill="black"></path></svg>