<svg xmlns="http://www.w3.org/2000/svg" width="24" height="24" viewBox="0 0 24 24" fill="none" stroke="currentColor" stroke-width="2" stroke-linecap="round" stroke-linejoin="round"><path d="M4.477 3.073 C 3.786 3.254,3.184 3.886,3.039 4.584 C 3.012 4.717,3.000 5.253,3.008 6.050 L 3.020 7.306 3.141 7.503 C 3.543 8.156,4.457 8.156,4.859 7.503 L 4.980 7.307 4.992 6.153 L 5.005 5.000 6.092 4.998 C 7.262 4.996,7.358 4.983,7.619 4.783 C 7.696 4.725,7.808 4.592,7.869 4.489 C 7.964 4.328,7.980 4.256,7.980 4.000 C 7.980 3.746,7.963 3.672,7.872 3.516 C 7.740 3.293,7.533 3.128,7.290 3.055 C 6.998 2.967,4.829 2.981,4.477 3.073 M10.695 3.057 C 10.466 3.129,10.256 3.299,10.128 3.516 C 10.037 3.672,10.020 3.746,10.020 4.000 C 10.020 4.256,10.036 4.328,10.131 4.489 C 10.256 4.702,10.449 4.864,10.670 4.943 C 10.885 5.020,13.115 5.020,13.330 4.943 C 13.551 4.864,13.744 4.702,13.869 4.489 C 13.964 4.328,13.980 4.256,13.980 4.000 C 13.980 3.746,13.963 3.672,13.872 3.516 C 13.740 3.293,13.533 3.128,13.290 3.055 C 13.039 2.979,10.937 2.981,10.695 3.057 M16.695 3.057 C 16.466 3.129,16.256 3.299,16.128 3.516 C 16.037 3.672,16.020 3.746,16.020 4.000 C 16.020 4.256,16.036 4.328,16.131 4.489 C 16.192 4.592,16.304 4.725,16.381 4.783 C 16.642 4.983,16.738 4.996,17.908 4.998 L 18.995 5.000 19.008 6.153 L 19.020 7.307 19.141 7.503 C 19.543 8.156,20.457 8.156,20.859 7.503 L 20.980 7.306 20.992 6.058 C 21.005 4.700,20.981 4.478,20.782 4.083 C 20.646 3.816,20.297 3.449,20.017 3.281 C 19.603 3.031,19.412 3.005,18.060 3.005 C 17.191 3.005,16.814 3.020,16.695 3.057 M5.499 10.042 C 4.377 10.235,3.461 11.048,3.114 12.160 L 3.020 12.460 3.020 15.500 L 3.020 18.540 3.114 18.840 C 3.422 19.827,4.173 20.578,5.160 20.886 L 5.460 20.980 8.500 20.980 L 11.540 20.980 11.840 20.886 C 12.827 20.578,13.578 19.827,13.886 18.840 L 13.980 18.540 13.980 15.500 L 13.980 12.460 13.886 12.160 C 13.581 11.182,12.830 10.426,11.861 10.122 L 11.540 10.021 8.620 10.014 C 7.014 10.011,5.609 10.023,5.499 10.042 M19.695 10.057 C 19.466 10.129,19.256 10.299,19.128 10.516 L 19.020 10.700 19.020 12.003 L 19.020 13.306 19.141 13.503 C 19.543 14.156,20.457 14.156,20.859 13.503 L 20.980 13.306 20.980 12.003 L 20.980 10.700 20.872 10.516 C 20.628 10.101,20.150 9.915,19.695 10.057 M11.310 12.061 C 11.452 12.103,11.571 12.178,11.697 12.303 C 11.951 12.557,12.000 12.748,12.000 13.481 L 12.000 14.068 11.630 14.138 C 9.979 14.449,8.590 15.385,7.796 16.721 C 7.487 17.242,7.163 18.190,7.095 18.773 L 7.068 19.006 6.384 18.993 C 5.724 18.980,5.693 18.976,5.516 18.872 C 5.303 18.747,5.141 18.550,5.058 18.316 C 4.970 18.064,4.972 12.990,5.061 12.690 C 5.140 12.421,5.412 12.143,5.673 12.063 C 5.960 11.975,11.014 11.973,11.310 12.061 M19.695 16.057 C 19.466 16.129,19.256 16.299,19.128 16.516 L 19.020 16.700 19.008 17.850 L 18.995 19.000 17.944 19.000 C 16.797 19.000,16.643 19.022,16.382 19.221 C 16.302 19.282,16.187 19.415,16.128 19.516 C 16.037 19.672,16.020 19.746,16.020 20.000 C 16.020 20.256,16.036 20.328,16.131 20.489 C 16.192 20.592,16.304 20.725,16.381 20.783 C 16.646 20.986,16.728 20.996,18.042 20.998 C 19.366 21.000,19.522 20.982,19.930 20.775 C 20.196 20.640,20.638 20.200,20.771 19.937 C 20.987 19.512,21.005 19.346,20.992 17.966 L 20.980 16.700 20.872 16.516 C 20.628 16.101,20.150 15.915,19.695 16.057 M12.000 17.114 C 12.000 18.199,11.976 18.359,11.779 18.618 C 11.718 18.698,11.585 18.813,11.484 18.872 L 11.300 18.980 10.187 18.992 C 9.128 19.004,9.074 19.001,9.094 18.932 C 9.105 18.893,9.143 18.743,9.178 18.600 C 9.250 18.307,9.495 17.769,9.679 17.502 C 10.095 16.897,10.837 16.402,11.660 16.179 C 12.032 16.079,12.000 15.991,12.000 17.114 " stroke="none" fill-rule="evenodd" fill="black"></path></svg>