<svg xmlns="http://www.w3.org/2000/svg" width="24" height="24" viewBox="0 0 24 24" fill="none" stroke="currentColor" stroke-width="2" stroke-linecap="round" stroke-linejoin="round"><path d="M2.670 2.061 C 2.448 2.142,2.250 2.309,2.128 2.516 C 2.036 2.672,2.020 2.745,2.021 3.000 C 2.021 3.212,2.043 3.341,2.095 3.440 C 2.135 3.517,2.971 4.385,3.952 5.368 C 5.107 6.526,5.715 7.163,5.678 7.176 C 4.747 7.485,4.182 7.805,3.586 8.362 C 2.174 9.681,1.649 11.719,2.246 13.560 C 2.609 14.680,3.461 15.725,4.509 16.337 C 4.843 16.533,5.457 16.770,5.920 16.884 C 6.425 17.007,7.437 17.019,7.960 16.907 C 8.725 16.743,9.402 16.444,9.964 16.021 C 10.512 15.609,11.590 14.498,11.927 13.999 L 11.994 13.900 12.065 13.998 C 12.449 14.529,13.380 15.501,13.912 15.925 C 14.254 16.199,14.675 16.452,15.016 16.588 C 15.246 16.680,15.405 16.831,17.840 19.259 C 19.259 20.674,20.483 21.865,20.560 21.905 C 20.659 21.957,20.788 21.979,21.000 21.979 C 21.258 21.980,21.327 21.964,21.492 21.867 C 21.968 21.587,22.139 20.967,21.865 20.508 C 21.810 20.416,17.665 16.243,12.653 11.235 C 4.231 2.820,3.525 2.125,3.343 2.065 C 3.107 1.987,2.874 1.986,2.670 2.061 M16.400 7.044 C 15.494 7.160,14.693 7.484,13.980 8.023 C 13.596 8.314,12.864 9.030,12.779 9.198 C 12.741 9.274,12.701 9.446,12.690 9.580 C 12.630 10.320,13.400 10.865,14.073 10.560 C 14.169 10.516,14.439 10.299,14.673 10.076 C 15.144 9.629,15.418 9.429,15.781 9.270 C 16.997 8.734,18.373 9.033,19.237 10.020 C 19.900 10.776,20.145 11.782,19.901 12.740 C 19.757 13.303,19.328 13.977,18.900 14.310 C 18.461 14.652,18.312 14.896,18.312 15.277 C 18.312 15.697,18.557 16.053,18.945 16.198 C 19.448 16.387,19.756 16.264,20.458 15.595 C 21.508 14.594,22.044 13.268,21.986 11.820 C 21.931 10.465,21.441 9.358,20.486 8.430 C 20.069 8.025,19.739 7.787,19.260 7.546 C 18.374 7.099,17.358 6.921,16.400 7.044 M7.398 9.039 L 7.656 9.076 9.205 10.625 L 10.755 12.174 10.518 12.520 C 9.840 13.510,8.867 14.457,8.250 14.726 C 7.389 15.101,6.534 15.086,5.697 14.681 C 5.085 14.384,4.627 13.935,4.328 13.340 C 4.004 12.693,3.924 11.953,4.103 11.249 C 4.475 9.791,5.916 8.825,7.398 9.039 " stroke="none" fill-rule="evenodd" fill="black"></path></svg>