<svg xmlns="http://www.w3.org/2000/svg" width="24" height="24" viewBox="0 0 24 24" fill="none" stroke="currentColor" stroke-width="2" stroke-linecap="round" stroke-linejoin="round"><path d="M11.080 2.045 C 9.508 2.184,7.887 2.749,6.540 3.629 C 5.905 4.044,5.499 4.376,4.919 4.958 C 3.608 6.272,2.724 7.844,2.285 9.645 C 2.071 10.521,2.022 10.962,2.022 12.000 C 2.022 13.038,2.071 13.479,2.285 14.355 C 2.727 16.167,3.610 17.732,4.939 19.061 C 6.490 20.613,8.383 21.564,10.600 21.907 C 11.245 22.007,12.755 22.007,13.400 21.907 C 15.616 21.565,17.511 20.612,19.061 19.061 C 20.389 17.734,21.274 16.165,21.715 14.355 C 21.930 13.475,21.979 13.038,21.978 12.000 C 21.977 10.961,21.927 10.513,21.715 9.645 C 20.539 4.825,16.035 1.606,11.080 2.045 M12.734 4.041 C 14.572 4.216,16.230 4.977,17.554 6.256 C 19.754 8.379,20.550 11.592,19.596 14.497 C 19.294 15.417,18.770 16.363,18.153 17.100 C 17.388 18.015,16.523 18.693,15.471 19.200 C 13.267 20.265,10.733 20.265,8.529 19.200 C 7.477 18.693,6.612 18.015,5.847 17.100 C 4.102 15.014,3.550 12.104,4.404 9.503 C 4.800 8.296,5.523 7.146,6.446 6.256 C 8.133 4.627,10.420 3.822,12.734 4.041 M7.455 15.295 C 7.059 15.424,6.804 15.754,6.770 16.180 C 6.752 16.403,6.764 16.467,6.856 16.656 C 7.007 16.965,7.677 17.555,8.330 17.954 C 10.597 19.340,13.403 19.340,15.670 17.954 C 16.247 17.601,16.948 17.003,17.112 16.723 C 17.203 16.568,17.220 16.494,17.220 16.240 C 17.220 15.985,17.204 15.912,17.111 15.754 C 16.846 15.303,16.279 15.125,15.813 15.346 C 15.741 15.380,15.542 15.533,15.372 15.685 C 14.670 16.312,13.891 16.706,12.959 16.907 C 12.489 17.008,11.512 17.008,11.040 16.907 C 10.112 16.708,9.350 16.322,8.621 15.681 C 8.445 15.527,8.241 15.372,8.168 15.337 C 7.984 15.250,7.653 15.230,7.455 15.295 " stroke="none" fill-rule="evenodd" fill="black"></path></svg>