<svg xmlns="http://www.w3.org/2000/svg" width="24" height="24" viewBox="0 0 24 24" fill="none" stroke="currentColor" stroke-width="2" stroke-linecap="round" stroke-linejoin="round"><path d="M11.080 2.045 C 9.507 2.184,7.883 2.751,6.540 3.630 C 5.905 4.045,5.499 4.378,4.919 4.958 C 2.953 6.926,1.919 9.544,2.013 12.320 C 2.084 14.439,2.752 16.328,4.033 18.040 C 4.430 18.570,5.305 19.464,5.800 19.847 C 7.242 20.961,8.787 21.624,10.600 21.907 C 11.247 22.008,12.753 22.008,13.400 21.907 C 15.638 21.557,17.504 20.620,19.062 19.062 C 20.620 17.504,21.557 15.638,21.907 13.400 C 22.008 12.753,22.008 11.247,21.907 10.600 C 21.624 8.786,20.959 7.238,19.847 5.800 C 19.510 5.365,18.639 4.494,18.200 4.154 C 16.133 2.555,13.646 1.818,11.080 2.045 M12.734 4.041 C 14.574 4.216,16.228 4.976,17.554 6.256 C 20.043 8.658,20.702 12.394,19.183 15.499 C 18.749 16.387,18.223 17.105,17.496 17.801 C 16.876 18.394,16.262 18.819,15.471 19.200 C 13.267 20.265,10.733 20.265,8.529 19.200 C 7.477 18.693,6.612 18.015,5.847 17.100 C 3.848 14.711,3.440 11.302,4.816 8.500 C 6.162 5.760,8.867 4.049,11.920 4.005 C 12.129 4.003,12.495 4.019,12.734 4.041 M5.695 11.057 C 5.466 11.129,5.256 11.299,5.128 11.516 C 5.026 11.691,5.020 11.726,5.023 12.200 C 5.044 15.243,7.266 18.026,10.275 18.777 C 11.003 18.959,11.956 19.049,12.264 18.965 C 12.498 18.901,12.737 18.714,12.867 18.492 C 12.964 18.327,12.980 18.257,12.980 18.000 C 12.980 17.746,12.963 17.672,12.872 17.516 C 12.759 17.323,12.563 17.150,12.373 17.076 C 12.311 17.051,12.053 17.016,11.800 16.998 C 10.488 16.903,9.449 16.460,8.563 15.616 C 7.682 14.778,7.158 13.704,7.042 12.500 C 7.019 12.258,6.991 11.973,6.981 11.866 C 6.946 11.497,6.665 11.168,6.290 11.055 C 6.068 10.988,5.913 10.989,5.695 11.057 " stroke="none" fill-rule="evenodd" fill="black"></path></svg>