<svg xmlns="http://www.w3.org/2000/svg" width="24" height="24" viewBox="0 0 24 24" fill="none" stroke="currentColor" stroke-width="2" stroke-linecap="round" stroke-linejoin="round"><path d="M11.080 2.045 C 9.508 2.184,7.887 2.749,6.540 3.629 C 5.905 4.044,5.499 4.376,4.919 4.958 C 3.608 6.272,2.724 7.844,2.285 9.645 C 2.071 10.521,2.022 10.962,2.022 12.000 C 2.022 13.038,2.071 13.479,2.285 14.355 C 2.727 16.167,3.610 17.732,4.939 19.061 C 6.490 20.613,8.383 21.564,10.600 21.907 C 11.245 22.007,12.755 22.007,13.400 21.907 C 15.616 21.565,17.511 20.612,19.061 19.061 C 20.389 17.734,21.274 16.165,21.715 14.355 C 21.930 13.475,21.979 13.038,21.978 12.000 C 21.977 10.961,21.927 10.513,21.715 9.645 C 20.539 4.825,16.035 1.606,11.080 2.045 M12.734 4.041 C 14.572 4.216,16.230 4.977,17.554 6.256 C 19.754 8.379,20.550 11.592,19.596 14.497 C 19.294 15.417,18.770 16.363,18.153 17.100 C 17.388 18.015,16.523 18.693,15.471 19.200 C 13.267 20.265,10.733 20.265,8.529 19.200 C 7.477 18.693,6.612 18.015,5.847 17.100 C 4.102 15.014,3.550 12.104,4.404 9.503 C 4.800 8.296,5.523 7.146,6.446 6.256 C 8.133 4.627,10.420 3.822,12.734 4.041 M15.913 6.814 C 15.406 7.003,15.129 7.566,15.296 8.068 C 15.340 8.202,15.453 8.368,15.645 8.583 C 16.434 9.466,16.849 10.394,16.964 11.530 C 17.107 12.941,16.648 14.295,15.646 15.417 C 15.253 15.857,15.160 16.164,15.301 16.562 C 15.386 16.803,15.531 16.980,15.751 17.109 C 15.912 17.204,15.984 17.220,16.240 17.220 C 16.494 17.220,16.568 17.203,16.723 17.112 C 17.003 16.948,17.601 16.247,17.954 15.670 C 19.340 13.403,19.340 10.597,17.954 8.330 C 17.605 7.760,17.003 7.052,16.731 6.893 C 16.518 6.768,16.134 6.731,15.913 6.814 " stroke="none" fill-rule="evenodd" fill="black"></path></svg>