<svg xmlns="http://www.w3.org/2000/svg" width="24" height="24" viewBox="0 0 24 24" fill="none" stroke="currentColor" stroke-width="2" stroke-linecap="round" stroke-linejoin="round"><path d="M5.499 6.043 C 4.380 6.233,3.461 7.048,3.114 8.160 L 3.020 8.460 3.020 11.500 L 3.020 14.540 3.114 14.840 C 3.419 15.816,4.153 16.557,5.140 16.885 C 5.418 16.978,5.435 16.978,7.768 16.991 C 9.321 17.000,10.169 16.990,10.272 16.962 C 10.498 16.901,10.738 16.711,10.867 16.492 C 10.964 16.327,10.980 16.257,10.980 16.000 C 10.980 15.746,10.963 15.672,10.872 15.516 C 10.761 15.328,10.572 15.158,10.373 15.070 C 10.289 15.033,9.681 15.015,7.980 15.000 L 5.700 14.980 5.516 14.872 C 5.415 14.813,5.284 14.700,5.225 14.623 C 4.996 14.323,5.000 14.378,5.000 11.522 C 5.000 8.530,4.992 8.614,5.303 8.303 C 5.629 7.977,5.126 8.000,12.000 8.000 C 18.826 8.000,18.367 7.981,18.679 8.283 C 18.975 8.571,18.977 8.581,19.000 10.023 L 19.020 11.307 19.141 11.503 C 19.543 12.156,20.457 12.156,20.859 11.503 L 20.980 11.306 20.980 9.883 C 20.980 8.503,20.977 8.451,20.886 8.160 C 20.581 7.182,19.832 6.428,18.861 6.121 L 18.540 6.020 12.120 6.014 C 8.589 6.011,5.609 6.024,5.499 6.043 M15.499 14.040 C 14.363 14.246,13.461 15.048,13.114 16.160 L 13.020 16.460 13.020 18.883 L 13.020 21.306 13.141 21.503 C 13.543 22.156,14.457 22.156,14.859 21.503 C 14.979 21.308,14.980 21.300,14.993 20.653 L 15.007 20.000 16.000 20.000 L 16.993 20.000 17.007 20.653 C 17.020 21.300,17.021 21.308,17.141 21.503 C 17.543 22.156,18.457 22.156,18.859 21.503 L 18.980 21.306 18.980 18.883 L 18.980 16.460 18.886 16.160 C 18.580 15.178,17.810 14.407,16.861 14.129 C 16.500 14.023,15.832 13.980,15.499 14.040 M20.695 14.057 C 20.466 14.129,20.256 14.299,20.128 14.516 L 20.020 14.700 20.020 18.003 L 20.020 21.306 20.141 21.503 C 20.543 22.156,21.457 22.156,21.859 21.503 L 21.980 21.306 21.980 18.003 L 21.980 14.700 21.872 14.516 C 21.628 14.101,21.150 13.915,20.695 14.057 M16.334 16.064 C 16.446 16.102,16.593 16.200,16.700 16.306 C 16.948 16.554,17.000 16.753,17.000 17.447 L 17.000 18.000 16.000 18.000 L 15.000 18.000 15.000 17.447 C 15.000 16.753,15.052 16.554,15.301 16.306 C 15.587 16.019,15.952 15.934,16.334 16.064 " stroke="none" fill-rule="evenodd" fill="black"></path></svg>