<svg xmlns="http://www.w3.org/2000/svg" width="24" height="24" viewBox="0 0 24 24" fill="none" stroke="currentColor" stroke-width="2" stroke-linecap="round" stroke-linejoin="round"><path d="M5.499 6.043 C 4.380 6.233,3.461 7.048,3.114 8.160 L 3.020 8.460 3.020 11.500 L 3.020 14.540 3.114 14.840 C 3.418 15.816,4.149 16.554,5.140 16.886 L 5.420 16.980 9.271 16.991 C 11.824 16.999,13.173 16.989,13.275 16.961 C 13.498 16.901,13.739 16.711,13.867 16.492 C 13.964 16.327,13.980 16.257,13.980 16.000 C 13.980 15.746,13.963 15.672,13.872 15.516 C 13.761 15.328,13.572 15.158,13.373 15.070 C 13.286 15.032,12.383 15.015,9.480 15.000 L 5.700 14.980 5.516 14.872 C 5.415 14.813,5.284 14.700,5.225 14.623 C 4.996 14.323,5.000 14.378,5.000 11.522 C 5.000 8.530,4.992 8.614,5.303 8.303 C 5.629 7.977,5.126 8.000,12.000 8.000 C 18.874 8.000,18.371 7.977,18.697 8.303 C 18.989 8.595,19.000 8.666,19.000 10.297 C 19.001 11.689,19.002 11.702,19.095 11.900 C 19.276 12.282,19.595 12.488,20.003 12.488 C 20.292 12.488,20.536 12.381,20.724 12.173 C 21.006 11.860,21.007 11.849,20.991 10.037 C 20.977 8.478,20.973 8.410,20.884 8.140 C 20.563 7.165,19.822 6.425,18.861 6.121 L 18.540 6.020 12.120 6.014 C 8.589 6.011,5.609 6.024,5.499 6.043 M18.617 14.577 C 18.438 14.655,18.206 14.870,18.123 15.036 C 18.084 15.115,18.011 15.314,17.962 15.478 C 17.609 16.656,16.655 17.611,15.480 17.962 C 15.075 18.083,14.921 18.165,14.752 18.352 C 14.420 18.720,14.420 19.280,14.752 19.648 C 14.920 19.834,15.074 19.917,15.478 20.038 C 16.687 20.400,17.610 21.343,17.987 22.600 C 18.076 22.898,18.131 23.008,18.270 23.163 C 18.672 23.610,19.328 23.610,19.730 23.163 C 19.869 23.008,19.924 22.898,20.013 22.600 C 20.399 21.311,21.311 20.399,22.600 20.013 C 22.898 19.924,23.008 19.869,23.163 19.730 C 23.574 19.360,23.612 18.754,23.248 18.352 C 23.079 18.165,22.925 18.083,22.520 17.962 C 21.314 17.602,20.390 16.658,20.014 15.402 C 19.832 14.793,19.515 14.518,18.997 14.522 C 18.856 14.522,18.685 14.547,18.617 14.577 M19.194 18.057 C 19.373 18.282,19.740 18.644,20.020 18.873 L 20.180 19.004 20.020 19.130 C 19.818 19.288,19.295 19.809,19.127 20.019 L 19.000 20.178 18.873 20.019 C 18.705 19.809,18.182 19.288,17.980 19.130 L 17.820 19.004 17.980 18.873 C 18.260 18.644,18.627 18.282,18.806 18.057 C 18.901 17.938,18.989 17.840,19.000 17.840 C 19.011 17.840,19.099 17.938,19.194 18.057 " stroke="none" fill-rule="evenodd" fill="black"></path></svg>