<svg xmlns="http://www.w3.org/2000/svg" width="24" height="24" viewBox="0 0 24 24" fill="none" stroke="currentColor" stroke-width="2" stroke-linecap="round" stroke-linejoin="round"><path d="M5.499 6.043 C 4.380 6.233,3.461 7.048,3.114 8.160 L 3.020 8.460 3.020 11.500 L 3.020 14.540 3.114 14.840 C 3.418 15.816,4.149 16.554,5.140 16.886 L 5.420 16.980 9.271 16.991 C 11.824 16.999,13.173 16.989,13.275 16.961 C 13.498 16.901,13.739 16.711,13.867 16.492 C 13.964 16.327,13.980 16.257,13.980 16.000 C 13.980 15.746,13.963 15.672,13.872 15.516 C 13.761 15.328,13.572 15.158,13.373 15.070 C 13.286 15.032,12.383 15.015,9.480 15.000 L 5.700 14.980 5.516 14.872 C 5.415 14.813,5.284 14.700,5.225 14.623 C 4.996 14.323,5.000 14.378,5.000 11.522 C 5.000 8.530,4.992 8.614,5.303 8.303 C 5.629 7.977,5.126 8.000,12.000 8.000 C 18.826 8.000,18.367 7.981,18.679 8.283 C 18.992 8.587,18.978 8.464,19.000 11.023 L 19.020 13.306 19.141 13.503 C 19.543 14.156,20.457 14.156,20.859 13.503 L 20.980 13.306 20.980 10.883 L 20.980 8.460 20.886 8.160 C 20.581 7.182,19.832 6.428,18.861 6.121 L 18.540 6.020 12.120 6.014 C 8.589 6.011,5.609 6.024,5.499 6.043 M16.670 16.061 C 16.448 16.142,16.250 16.309,16.128 16.516 C 16.037 16.672,16.020 16.746,16.020 17.000 C 16.020 17.254,16.036 17.328,16.127 17.480 C 16.186 17.579,16.650 18.074,17.157 18.579 L 18.079 19.499 17.124 20.459 C 16.599 20.988,16.138 21.481,16.101 21.555 C 15.872 22.009,16.056 22.601,16.508 22.867 C 16.673 22.964,16.743 22.980,17.000 22.980 C 17.254 22.980,17.328 22.964,17.480 22.873 C 17.579 22.814,18.074 22.350,18.579 21.843 L 19.499 20.921 20.459 21.876 C 20.988 22.401,21.483 22.864,21.560 22.905 C 21.659 22.957,21.787 22.979,22.000 22.979 C 22.258 22.980,22.327 22.964,22.492 22.867 C 22.714 22.737,22.901 22.498,22.965 22.264 C 23.019 22.061,22.989 21.733,22.899 21.555 C 22.862 21.481,22.401 20.988,21.876 20.459 L 20.921 19.499 21.843 18.579 C 22.350 18.074,22.814 17.579,22.873 17.480 C 22.964 17.328,22.980 17.254,22.980 17.000 C 22.980 16.746,22.963 16.672,22.872 16.516 C 22.618 16.084,22.136 15.905,21.657 16.066 C 21.486 16.124,21.330 16.262,20.480 17.104 L 19.500 18.076 18.520 17.104 C 17.671 16.262,17.514 16.124,17.343 16.066 C 17.108 15.987,16.875 15.985,16.670 16.061 " stroke="none" fill-rule="evenodd" fill="black"></path></svg>