<svg xmlns="http://www.w3.org/2000/svg" width="24" height="24" viewBox="0 0 24 24" fill="none" stroke="currentColor" stroke-width="2" stroke-linecap="round" stroke-linejoin="round"><path d="M2.670 2.061 C 2.448 2.142,2.250 2.309,2.128 2.516 C 2.036 2.672,2.020 2.745,2.021 3.000 C 2.021 3.212,2.043 3.341,2.095 3.440 C 2.135 3.517,3.285 4.698,4.649 6.065 L 7.130 8.551 6.975 8.601 C 6.575 8.731,5.754 9.196,5.198 9.608 C 4.779 9.918,4.095 10.580,3.766 10.994 C 2.791 12.218,2.202 13.677,2.037 15.273 C 1.947 16.134,2.035 16.520,2.381 16.783 C 2.675 17.008,2.306 16.996,9.200 16.998 L 15.580 17.000 17.960 19.383 C 19.282 20.706,20.420 21.813,20.520 21.873 C 20.673 21.964,20.746 21.980,21.000 21.980 C 21.257 21.980,21.327 21.964,21.492 21.867 C 21.968 21.587,22.139 20.967,21.865 20.508 C 21.810 20.416,17.665 16.243,12.653 11.235 C 4.231 2.820,3.525 2.125,3.343 2.065 C 3.107 1.987,2.874 1.986,2.670 2.061 M8.695 3.056 C 8.465 3.129,8.256 3.299,8.128 3.516 C 8.037 3.672,8.020 3.746,8.020 4.000 C 8.020 4.256,8.036 4.328,8.131 4.489 C 8.256 4.702,8.449 4.864,8.670 4.943 C 8.791 4.986,9.561 4.997,12.680 4.999 C 15.140 5.000,16.634 5.016,16.800 5.042 C 17.497 5.153,18.162 5.738,18.367 6.420 C 18.404 6.546,18.640 7.864,18.640 7.950 C 18.640 7.990,18.039 8.000,15.766 8.000 C 12.648 8.000,12.674 7.998,12.382 8.221 C 12.302 8.282,12.187 8.415,12.128 8.516 C 12.037 8.672,12.020 8.746,12.020 9.000 C 12.020 9.256,12.036 9.328,12.131 9.489 C 12.256 9.702,12.449 9.864,12.670 9.943 C 12.790 9.986,13.432 9.997,15.900 9.998 L 18.981 10.000 19.393 12.479 C 19.620 13.842,19.795 14.976,19.781 14.999 C 19.767 15.022,19.723 15.040,19.684 15.040 C 19.644 15.040,19.539 15.089,19.449 15.150 C 19.140 15.359,19.000 15.622,19.000 15.994 C 19.000 16.457,19.325 16.862,19.778 16.963 C 19.963 17.004,20.038 17.002,20.257 16.948 C 21.116 16.736,21.713 16.058,21.817 15.175 C 21.836 15.016,21.679 13.995,21.102 10.535 C 20.696 8.095,20.325 5.973,20.277 5.820 C 20.082 5.185,19.809 4.730,19.327 4.231 C 18.810 3.697,18.160 3.313,17.440 3.115 L 17.100 3.022 12.980 3.013 C 9.672 3.006,8.827 3.014,8.695 3.056 M11.160 12.580 L 13.580 15.000 8.829 15.000 L 4.078 15.000 4.103 14.890 C 4.504 13.109,5.468 11.724,6.900 10.872 C 7.483 10.525,8.332 10.184,8.660 10.165 C 8.716 10.161,9.480 10.900,11.160 12.580 M7.643 18.066 C 7.313 18.187,7.186 18.370,6.585 19.586 C 5.969 20.831,5.935 20.944,6.061 21.322 C 6.189 21.707,6.594 22.000,7.000 22.000 C 7.242 22.000,7.521 21.881,7.697 21.702 C 7.929 21.467,8.962 19.380,8.990 19.090 C 9.014 18.843,8.924 18.552,8.765 18.358 C 8.523 18.065,8.011 17.931,7.643 18.066 M11.695 18.057 C 11.466 18.129,11.256 18.299,11.128 18.516 L 11.020 18.700 11.020 20.003 L 11.020 21.306 11.141 21.503 C 11.543 22.156,12.457 22.156,12.859 21.503 L 12.980 21.306 12.980 20.003 L 12.980 18.700 12.872 18.516 C 12.628 18.101,12.150 17.915,11.695 18.057 M15.667 18.065 C 15.262 18.189,14.968 18.649,15.010 19.090 C 15.038 19.380,16.071 21.467,16.303 21.702 C 16.687 22.093,17.310 22.092,17.702 21.700 C 17.910 21.492,18.018 21.197,17.990 20.910 C 17.962 20.620,16.929 18.533,16.697 18.298 C 16.427 18.023,16.067 17.942,15.667 18.065 " stroke="none" fill-rule="evenodd" fill="black"></path></svg>