<svg xmlns="http://www.w3.org/2000/svg" width="24" height="24" viewBox="0 0 24 24" fill="none" stroke="currentColor" stroke-width="2" stroke-linecap="round" stroke-linejoin="round"><path d="M11.473 1.038 C 11.371 1.057,11.185 1.102,11.061 1.138 C 10.751 1.228,7.257 2.619,7.062 2.730 C 6.403 3.106,6.439 4.103,7.123 4.452 C 7.542 4.666,7.535 4.667,9.725 3.795 L 11.660 3.024 12.000 3.022 L 12.340 3.021 14.948 4.060 C 16.382 4.632,17.543 5.111,17.528 5.124 C 17.505 5.144,12.765 6.812,12.324 6.956 C 12.249 6.980,12.122 7.000,12.040 7.000 C 11.959 7.000,11.811 7.025,11.710 7.055 C 10.876 7.306,10.753 8.424,11.511 8.869 C 11.684 8.971,11.734 8.980,12.100 8.979 C 12.320 8.978,12.599 8.953,12.720 8.923 C 12.841 8.893,14.162 8.438,15.655 7.913 C 17.149 7.387,18.376 6.963,18.383 6.969 C 18.413 7.000,17.189 11.186,17.138 11.225 C 17.106 11.249,16.886 11.337,16.650 11.420 C 16.086 11.618,15.879 11.725,15.728 11.897 C 15.600 12.042,15.480 12.367,15.480 12.566 C 15.480 12.772,15.636 13.107,15.801 13.256 C 16.132 13.555,16.461 13.601,16.993 13.423 C 17.175 13.362,17.330 13.318,17.335 13.326 C 17.341 13.334,17.466 13.763,17.613 14.280 C 17.910 15.319,17.981 15.463,18.294 15.657 C 18.906 16.035,19.713 15.630,19.788 14.909 C 19.807 14.720,19.763 14.529,19.425 13.347 L 19.040 12.000 19.876 9.070 C 20.336 7.459,20.734 6.032,20.761 5.901 C 20.921 5.113,20.462 4.216,19.703 3.832 C 19.348 3.652,13.216 1.216,12.875 1.119 C 12.544 1.025,11.783 0.981,11.473 1.038 M2.670 2.061 C 2.448 2.142,2.250 2.309,2.128 2.516 C 2.036 2.672,2.020 2.745,2.021 3.000 C 2.021 3.214,2.043 3.340,2.096 3.440 C 2.136 3.517,2.439 3.852,2.768 4.184 L 3.365 4.789 3.295 5.024 C 3.252 5.167,3.224 5.395,3.223 5.600 C 3.221 5.925,3.259 6.071,4.091 8.970 L 4.960 12.000 4.092 15.030 C 3.246 17.981,3.223 18.069,3.224 18.420 C 3.225 18.831,3.321 19.156,3.544 19.504 C 3.684 19.722,4.019 20.043,4.218 20.148 C 4.353 20.219,9.893 22.435,10.617 22.707 C 11.637 23.091,12.338 23.099,13.303 22.738 C 13.521 22.657,14.870 22.122,16.300 21.550 C 17.730 20.978,18.933 20.501,18.973 20.489 C 19.027 20.474,19.225 20.647,19.733 21.150 C 20.111 21.524,20.483 21.864,20.560 21.904 C 20.660 21.957,20.786 21.979,21.000 21.979 C 21.258 21.980,21.327 21.964,21.492 21.867 C 21.968 21.587,22.139 20.967,21.865 20.508 C 21.810 20.416,17.665 16.243,12.653 11.235 C 4.231 2.820,3.525 2.125,3.343 2.065 C 3.107 1.987,2.874 1.986,2.670 2.061 M11.000 12.574 C 11.000 12.687,10.986 12.723,10.946 12.708 C 10.916 12.696,9.994 12.368,8.896 11.977 C 7.798 11.587,6.879 11.248,6.853 11.224 C 6.818 11.191,6.038 8.536,5.654 7.140 C 5.642 7.096,6.840 8.266,8.316 9.740 C 10.942 12.361,11.000 12.423,11.000 12.574 M8.846 14.079 C 10.015 14.497,10.979 14.845,10.986 14.853 C 10.994 14.861,10.996 16.181,10.990 17.786 L 10.980 20.706 8.112 19.563 C 6.534 18.934,5.240 18.406,5.234 18.388 C 5.218 18.334,6.658 13.321,6.690 13.320 C 6.706 13.320,7.676 13.662,8.846 14.079 M15.415 16.835 C 16.556 17.976,17.471 18.921,17.449 18.934 C 17.427 18.948,16.430 19.348,15.234 19.824 C 14.039 20.299,13.047 20.696,13.030 20.706 C 13.013 20.716,13.000 19.402,13.000 17.786 L 13.000 14.847 13.110 14.806 C 13.171 14.784,13.247 14.765,13.280 14.763 C 13.313 14.761,14.274 15.694,15.415 16.835 " stroke="none" fill-rule="evenodd" fill="black"></path></svg>