<svg xmlns="http://www.w3.org/2000/svg" width="24" height="24" viewBox="0 0 24 24" fill="none" stroke="currentColor" stroke-width="2" stroke-linecap="round" stroke-linejoin="round"><path d="M10.695 4.057 C 10.051 4.258,9.799 5.040,10.198 5.591 C 10.263 5.681,10.403 5.805,10.508 5.867 L 10.700 5.980 11.684 6.000 L 12.669 6.020 10.960 12.000 L 9.252 17.980 7.996 18.001 C 7.128 18.015,6.705 18.037,6.627 18.071 C 6.429 18.157,6.239 18.327,6.128 18.516 C 6.037 18.672,6.020 18.746,6.020 19.000 C 6.020 19.256,6.036 19.328,6.131 19.489 C 6.256 19.702,6.449 19.864,6.670 19.943 C 6.891 20.022,13.109 20.022,13.330 19.943 C 13.551 19.864,13.744 19.702,13.869 19.489 C 13.964 19.328,13.980 19.256,13.980 19.000 C 13.980 18.746,13.963 18.672,13.872 18.516 C 13.761 18.327,13.570 18.157,13.373 18.071 C 13.300 18.040,12.921 18.015,12.296 18.001 L 11.331 17.980 13.040 12.000 L 14.748 6.020 16.024 6.000 L 17.300 5.980 17.492 5.867 C 18.248 5.423,18.123 4.306,17.290 4.055 C 17.030 3.977,10.945 3.979,10.695 4.057 " stroke="none" fill-rule="evenodd" fill="black"></path></svg>