<svg xmlns="http://www.w3.org/2000/svg" width="24" height="24" viewBox="0 0 24 24" fill="none" stroke="currentColor" stroke-width="2" stroke-linecap="round" stroke-linejoin="round"><path d="M6.358 2.061 C 4.731 2.315,3.417 3.584,3.083 5.227 C 3.003 5.620,3.000 5.747,3.002 9.406 C 3.003 12.454,3.014 13.209,3.057 13.330 C 3.136 13.551,3.298 13.744,3.511 13.869 L 3.700 13.980 6.912 13.991 C 9.005 13.998,10.177 13.988,10.276 13.961 C 10.498 13.901,10.739 13.710,10.867 13.492 C 10.976 13.306,10.980 13.279,10.993 12.650 L 11.007 12.000 12.000 12.000 L 12.993 12.000 13.007 12.650 C 13.020 13.279,13.024 13.306,13.133 13.492 C 13.261 13.710,13.502 13.901,13.724 13.961 C 13.823 13.988,14.995 13.998,17.088 13.991 L 20.300 13.980 20.489 13.869 C 20.702 13.744,20.864 13.551,20.943 13.330 C 20.986 13.209,20.997 12.454,20.998 9.406 C 21.000 5.795,20.997 5.616,20.921 5.243 C 20.628 3.806,19.637 2.680,18.245 2.204 C 17.951 2.103,17.322 2.000,17.000 2.000 C 15.635 2.000,14.253 2.787,13.569 3.953 C 13.151 4.665,13.000 5.293,13.000 6.316 L 13.000 7.000 12.000 7.000 L 11.000 7.000 11.000 6.316 C 11.000 5.522,10.924 5.058,10.705 4.516 C 10.172 3.197,9.001 2.269,7.605 2.058 C 7.144 1.989,6.816 1.990,6.358 2.061 M7.523 4.073 C 8.022 4.203,8.516 4.599,8.772 5.071 C 8.995 5.484,8.999 5.541,8.999 8.910 L 9.000 12.000 7.000 12.000 L 5.000 12.000 5.000 8.898 C 5.000 5.445,4.999 5.457,5.265 5.014 C 5.745 4.212,6.635 3.841,7.523 4.073 M17.523 4.073 C 18.022 4.203,18.516 4.599,18.772 5.071 C 18.995 5.484,18.999 5.541,18.999 8.910 L 19.000 12.000 17.000 12.000 L 15.000 12.000 15.000 8.898 C 15.000 5.445,14.999 5.457,15.265 5.014 C 15.745 4.212,16.635 3.841,17.523 4.073 M13.000 9.500 L 13.000 10.000 12.000 10.000 L 11.000 10.000 11.000 9.500 L 11.000 9.000 12.000 9.000 L 13.000 9.000 13.000 9.500 M4.695 15.057 C 4.466 15.129,4.256 15.299,4.128 15.516 C 4.022 15.697,4.020 15.710,4.024 16.380 C 4.033 18.064,4.491 19.609,5.303 20.690 C 5.598 21.084,6.238 21.709,6.509 21.868 C 6.672 21.964,6.743 21.980,7.000 21.980 C 7.382 21.980,7.536 21.894,8.064 21.390 C 8.565 20.911,8.908 20.450,9.201 19.860 C 9.721 18.813,9.970 17.684,9.977 16.340 C 9.980 15.712,9.978 15.697,9.871 15.514 C 9.481 14.851,8.520 14.847,8.133 15.508 C 8.036 15.674,8.024 15.742,7.992 16.334 C 7.916 17.752,7.615 18.793,7.070 19.524 L 7.000 19.618 6.930 19.524 C 6.385 18.793,6.084 17.752,6.008 16.334 C 5.976 15.744,5.964 15.674,5.868 15.511 C 5.628 15.101,5.148 14.915,4.695 15.057 M14.695 15.057 C 14.466 15.129,14.256 15.299,14.128 15.516 C 14.022 15.697,14.020 15.710,14.024 16.380 C 14.033 18.064,14.491 19.609,15.303 20.690 C 15.598 21.084,16.238 21.709,16.509 21.868 C 16.672 21.964,16.743 21.980,17.000 21.980 C 17.382 21.980,17.536 21.894,18.064 21.390 C 18.565 20.911,18.908 20.450,19.201 19.860 C 19.721 18.813,19.970 17.684,19.977 16.340 C 19.980 15.712,19.978 15.697,19.871 15.514 C 19.481 14.851,18.520 14.847,18.133 15.508 C 18.036 15.674,18.024 15.742,17.992 16.334 C 17.916 17.752,17.615 18.793,17.070 19.524 L 17.000 19.618 16.930 19.524 C 16.385 18.793,16.084 17.752,16.008 16.334 C 15.976 15.744,15.964 15.674,15.868 15.511 C 15.628 15.101,15.148 14.915,14.695 15.057 " stroke="none" fill-rule="evenodd" fill="black"></path></svg>