<svg xmlns="http://www.w3.org/2000/svg" width="24" height="24" viewBox="0 0 24 24" fill="none" stroke="currentColor" stroke-width="2" stroke-linecap="round" stroke-linejoin="round"><path d="M11.671 1.064 C 11.563 1.097,11.415 1.186,11.327 1.271 C 11.231 1.364,10.654 2.286,9.801 3.710 L 8.428 6.000 5.661 6.000 C 2.531 6.000,2.619 5.992,2.309 6.293 C 2.033 6.561,1.930 6.975,2.054 7.320 C 2.081 7.397,2.710 8.471,3.452 9.706 C 4.193 10.942,4.800 11.974,4.800 12.000 C 4.800 12.026,4.196 13.054,3.457 14.285 C 2.719 15.515,2.086 16.605,2.052 16.705 C 1.926 17.075,2.069 17.546,2.381 17.783 C 2.666 18.001,2.602 17.996,5.624 17.998 L 8.428 18.000 9.790 20.270 C 10.539 21.518,11.191 22.590,11.239 22.650 C 11.548 23.042,12.200 23.103,12.624 22.780 C 12.717 22.708,13.172 21.986,14.160 20.339 L 15.564 18.000 18.355 18.000 C 21.504 18.000,21.392 18.010,21.702 17.700 C 21.917 17.485,22.019 17.196,21.987 16.889 C 21.966 16.686,21.850 16.478,20.564 14.334 L 19.164 12.000 20.527 9.730 C 21.277 8.481,21.917 7.382,21.950 7.286 C 22.075 6.923,21.930 6.460,21.618 6.221 C 21.327 5.999,21.343 6.000,18.336 6.000 L 15.564 6.000 14.160 3.661 C 13.183 2.033,12.717 1.291,12.626 1.222 C 12.347 1.009,12.023 0.955,11.671 1.064 M13.120 5.815 C 13.761 6.887,14.231 7.629,14.327 7.722 C 14.615 8.002,14.595 8.000,17.027 8.000 C 18.222 8.000,19.200 8.011,19.200 8.024 C 19.200 8.037,18.731 8.828,18.159 9.782 C 17.586 10.736,17.091 11.592,17.059 11.683 C 16.984 11.895,16.984 12.105,17.059 12.317 C 17.091 12.408,17.586 13.264,18.159 14.218 C 18.731 15.172,19.200 15.963,19.200 15.975 C 19.200 15.987,18.197 16.002,16.970 16.008 C 14.490 16.021,14.593 16.010,14.305 16.298 C 14.229 16.374,13.695 17.224,13.117 18.188 C 12.540 19.152,12.050 19.963,12.028 19.991 C 12.000 20.028,11.696 19.553,10.916 18.251 C 10.326 17.266,9.781 16.393,9.704 16.311 C 9.419 16.009,9.526 16.021,7.013 16.008 L 4.765 15.997 5.828 14.228 C 6.412 13.256,6.914 12.390,6.945 12.305 C 6.975 12.220,7.000 12.082,7.000 12.000 C 7.000 11.918,6.975 11.780,6.945 11.695 C 6.914 11.610,6.411 10.743,5.827 9.770 L 4.764 8.000 6.955 8.000 C 9.403 8.000,9.386 8.002,9.669 7.726 C 9.758 7.639,10.265 6.833,10.900 5.772 C 11.707 4.422,11.991 3.978,12.025 4.013 C 12.049 4.039,12.542 4.850,13.120 5.815 " stroke="none" fill-rule="evenodd" fill="black"></path></svg>