<svg xmlns="http://www.w3.org/2000/svg" width="24" height="24" viewBox="0 0 24 24" fill="none" stroke="currentColor" stroke-width="2" stroke-linecap="round" stroke-linejoin="round"><path d="M5.499 3.042 C 4.374 3.237,3.461 4.048,3.114 5.160 L 3.020 5.460 3.020 12.000 L 3.020 18.540 3.114 18.840 C 3.422 19.827,4.173 20.578,5.160 20.886 L 5.460 20.980 12.000 20.980 L 18.540 20.980 18.840 20.886 C 19.827 20.578,20.578 19.827,20.886 18.840 C 20.979 18.542,20.980 18.527,20.980 16.500 C 20.980 14.473,20.979 14.458,20.886 14.160 C 20.581 13.182,19.830 12.427,18.861 12.122 L 18.540 12.021 15.272 12.009 L 12.003 11.997 11.991 8.708 L 11.979 5.420 11.886 5.140 C 11.557 4.158,10.817 3.420,9.861 3.123 L 9.540 3.023 7.620 3.015 C 6.564 3.011,5.609 3.023,5.499 3.042 M9.310 5.061 C 9.589 5.144,9.856 5.411,9.939 5.690 C 9.991 5.866,10.000 6.345,10.000 9.079 C 10.000 12.539,9.996 12.479,10.225 12.930 C 10.361 13.199,10.801 13.639,11.070 13.775 C 11.521 14.004,11.461 14.000,14.921 14.000 C 18.534 14.000,18.381 13.988,18.697 14.303 C 18.994 14.600,19.000 14.644,19.000 16.501 C 19.000 18.246,18.990 18.341,18.779 18.618 C 18.718 18.698,18.585 18.813,18.484 18.872 L 18.300 18.980 12.000 18.980 L 5.700 18.980 5.516 18.872 C 5.303 18.747,5.141 18.550,5.058 18.316 C 4.968 18.060,4.971 5.993,5.061 5.690 C 5.140 5.421,5.412 5.143,5.673 5.063 C 5.956 4.976,9.018 4.974,9.310 5.061 " stroke="none" fill-rule="evenodd" fill="black"></path></svg>