<svg xmlns="http://www.w3.org/2000/svg" width="24" height="24" viewBox="0 0 24 24" fill="none" stroke="currentColor" stroke-width="2" stroke-linecap="round" stroke-linejoin="round"><path d="M0.695 7.057 C 0.466 7.129,0.256 7.299,0.128 7.516 C 0.037 7.672,0.020 7.746,0.020 8.000 C 0.020 8.256,0.036 8.328,0.131 8.489 C 0.192 8.592,0.304 8.725,0.381 8.783 C 0.643 8.983,0.738 8.996,1.910 8.998 L 3.000 9.000 3.000 11.802 C 3.000 14.894,3.011 14.761,2.748 14.922 C 2.585 15.021,2.415 15.021,2.253 14.922 C 2.056 14.802,2.023 14.705,1.999 14.178 C 1.980 13.749,1.966 13.677,1.869 13.512 C 1.480 12.848,0.521 12.848,0.129 13.514 C 0.022 13.697,0.020 13.712,0.022 14.360 C 0.023 14.977,0.030 15.040,0.133 15.320 C 0.395 16.040,0.963 16.608,1.680 16.868 C 1.948 16.965,2.035 16.976,2.500 16.976 C 2.965 16.976,3.052 16.965,3.320 16.868 C 4.036 16.608,4.601 16.044,4.869 15.320 L 4.980 15.020 4.980 11.360 L 4.980 7.700 4.872 7.516 C 4.740 7.293,4.533 7.128,4.290 7.055 C 4.035 6.978,0.941 6.980,0.695 7.057 M7.477 7.073 C 6.806 7.249,6.238 7.823,6.060 8.508 C 5.973 8.839,5.973 11.161,6.060 11.492 C 6.153 11.852,6.310 12.118,6.596 12.404 C 7.073 12.881,7.426 13.000,8.368 13.000 L 9.000 13.000 9.000 14.000 L 9.000 15.000 8.505 15.000 L 8.010 15.000 7.983 14.830 C 7.896 14.285,7.334 13.913,6.786 14.035 C 6.337 14.136,6.043 14.483,6.010 14.954 C 5.972 15.480,6.175 15.984,6.596 16.404 C 7.091 16.899,7.413 17.000,8.500 17.000 C 9.587 17.000,9.909 16.899,10.404 16.404 C 10.694 16.114,10.841 15.863,10.937 15.491 C 11.026 15.149,11.028 12.903,10.940 12.529 C 10.858 12.182,10.720 11.927,10.465 11.653 C 9.998 11.150,9.590 11.006,8.630 11.002 L 8.000 11.000 8.000 10.000 L 8.000 9.000 8.495 9.000 L 8.991 9.000 9.017 9.175 C 9.053 9.417,9.243 9.699,9.465 9.839 C 10.102 10.243,10.930 9.826,10.988 9.072 C 11.027 8.569,10.837 8.054,10.465 7.653 C 9.978 7.129,9.602 7.005,8.500 7.005 C 7.910 7.005,7.681 7.020,7.477 7.073 M14.499 7.040 C 13.363 7.246,12.461 8.048,12.114 9.160 L 12.020 9.460 12.020 12.000 L 12.020 14.540 12.114 14.840 C 12.422 15.827,13.174 16.579,14.160 16.886 C 14.594 17.021,15.406 17.021,15.840 16.886 C 16.826 16.579,17.578 15.827,17.886 14.840 L 17.980 14.540 17.980 12.000 L 17.980 9.460 17.886 9.160 C 17.580 8.178,16.810 7.407,15.861 7.129 C 15.500 7.023,14.832 6.980,14.499 7.040 M19.695 7.055 C 19.464 7.130,19.255 7.300,19.128 7.516 L 19.020 7.700 19.020 12.003 L 19.020 16.306 19.141 16.503 C 19.543 17.156,20.457 17.156,20.859 16.503 L 20.980 16.306 20.993 14.923 L 21.006 13.540 21.560 15.015 C 21.933 16.009,22.152 16.537,22.231 16.635 C 22.591 17.079,23.292 17.110,23.701 16.701 C 24.020 16.382,24.003 16.670,23.991 11.918 L 23.980 7.700 23.871 7.514 C 23.479 6.848,22.521 6.848,22.129 7.514 L 22.020 7.700 22.007 9.080 L 21.994 10.460 21.440 8.985 C 21.067 7.991,20.848 7.463,20.769 7.365 C 20.531 7.072,20.061 6.936,19.695 7.055 M15.310 9.061 C 15.589 9.144,15.856 9.411,15.939 9.690 C 16.025 9.978,16.030 14.007,15.945 14.290 C 15.872 14.533,15.707 14.740,15.484 14.872 C 15.328 14.963,15.254 14.980,15.000 14.980 C 14.746 14.980,14.672 14.963,14.516 14.872 C 14.415 14.813,14.282 14.698,14.221 14.618 C 14.004 14.333,14.000 14.287,14.000 12.001 C 14.000 9.588,13.998 9.609,14.304 9.303 C 14.583 9.024,14.916 8.944,15.310 9.061 " stroke="none" fill-rule="evenodd" fill="black"></path></svg>