<svg xmlns="http://www.w3.org/2000/svg" width="24" height="24" viewBox="0 0 24 24" fill="none" stroke="currentColor" stroke-width="2" stroke-linecap="round" stroke-linejoin="round"><path d="M17.477 2.073 C 16.806 2.249,16.238 2.823,16.060 3.508 C 15.941 3.962,16.003 4.492,16.225 4.930 C 16.361 5.199,16.801 5.639,17.070 5.775 C 17.659 6.073,18.341 6.073,18.930 5.775 C 19.196 5.640,19.638 5.200,19.771 4.937 C 19.994 4.498,20.052 4.007,19.940 3.529 C 19.858 3.182,19.720 2.927,19.465 2.653 C 19.074 2.232,18.560 2.005,18.000 2.005 C 17.857 2.005,17.622 2.036,17.477 2.073 M7.581 3.603 C 6.931 3.927,6.808 4.767,7.341 5.235 C 7.421 5.305,8.420 5.830,9.562 6.401 L 11.639 7.439 13.029 7.785 C 13.794 7.976,14.434 8.144,14.452 8.159 C 14.469 8.175,13.949 9.167,13.296 10.364 C 12.643 11.561,12.084 12.612,12.053 12.701 C 12.008 12.834,12.000 13.589,12.009 17.084 L 12.020 21.306 12.141 21.503 C 12.543 22.156,13.457 22.156,13.859 21.503 L 13.980 21.306 13.991 17.282 L 14.001 13.258 15.132 11.184 C 15.754 10.044,16.277 9.112,16.294 9.113 C 16.311 9.114,16.863 9.586,17.521 10.161 L 18.718 11.208 18.662 11.314 C 18.632 11.372,18.263 12.022,17.843 12.757 C 17.423 13.493,17.059 14.168,17.035 14.257 C 17.011 14.347,17.001 14.504,17.013 14.607 C 17.112 15.446,18.165 15.797,18.720 15.176 C 18.797 15.090,19.337 14.184,19.920 13.162 L 20.980 11.303 20.980 11.002 C 20.980 10.754,20.962 10.669,20.881 10.527 C 20.811 10.405,20.189 9.833,18.747 8.567 C 17.628 7.584,16.637 6.731,16.546 6.672 C 16.417 6.587,15.939 6.453,14.372 6.062 L 12.364 5.561 10.319 4.540 L 8.274 3.520 8.007 3.522 C 7.823 3.523,7.690 3.548,7.581 3.603 M2.650 8.066 C 2.557 8.099,2.402 8.203,2.306 8.296 C 1.773 8.814,1.978 9.704,2.685 9.940 C 2.781 9.972,3.802 10.207,4.954 10.462 L 7.048 10.927 8.483 12.122 C 9.272 12.779,9.994 13.356,10.087 13.403 C 10.320 13.522,10.674 13.521,10.930 13.400 C 11.420 13.170,11.632 12.563,11.398 12.065 C 11.317 11.892,11.115 11.710,9.703 10.531 C 8.821 9.796,8.037 9.161,7.960 9.121 C 7.792 9.034,3.160 7.998,2.960 8.003 C 2.883 8.005,2.744 8.033,2.650 8.066 " stroke="none" fill-rule="evenodd" fill="black"></path></svg>