<svg xmlns="http://www.w3.org/2000/svg" width="24" height="24" viewBox="0 0 24 24" fill="none" stroke="currentColor" stroke-width="2" stroke-linecap="round" stroke-linejoin="round"><path d="M2.670 2.061 C 2.448 2.142,2.250 2.309,2.128 2.516 C 2.036 2.672,2.020 2.745,2.021 3.000 C 2.021 3.212,2.043 3.341,2.095 3.440 C 2.135 3.517,3.514 4.930,5.160 6.580 C 8.031 9.459,8.154 9.589,8.221 9.800 C 8.302 10.053,8.509 10.476,8.653 10.680 L 8.752 10.820 7.943 11.640 C 6.973 12.622,7.000 12.571,7.000 13.427 L 7.000 14.000 6.446 14.000 C 5.648 14.000,5.367 14.110,5.128 14.516 C 5.025 14.692,5.019 14.728,5.007 15.347 L 4.993 15.993 4.367 16.007 C 3.614 16.023,3.562 16.043,3.108 16.477 C 2.584 16.977,2.307 17.397,2.118 17.980 C 2.037 18.230,2.025 18.361,2.009 19.195 C 1.989 20.243,2.016 20.472,2.210 20.880 C 2.351 21.177,2.711 21.563,3.012 21.738 C 3.375 21.950,3.682 22.000,4.604 22.000 C 5.506 22.000,5.864 21.954,6.280 21.786 C 6.837 21.561,6.864 21.537,10.080 18.334 L 13.180 15.246 13.320 15.346 C 13.522 15.490,13.945 15.698,14.200 15.779 C 14.411 15.846,14.541 15.969,17.420 18.840 C 19.070 20.486,20.483 21.865,20.560 21.905 C 20.659 21.957,20.788 21.979,21.000 21.979 C 21.258 21.980,21.327 21.964,21.492 21.867 C 21.968 21.587,22.139 20.967,21.865 20.508 C 21.810 20.416,17.665 16.243,12.653 11.235 C 4.231 2.820,3.525 2.125,3.343 2.065 C 3.107 1.987,2.874 1.986,2.670 2.061 M13.993 2.040 C 13.374 2.139,12.886 2.327,12.360 2.672 C 12.093 2.846,11.730 3.184,10.676 4.237 C 9.800 5.113,9.306 5.636,9.257 5.740 C 9.151 5.967,9.156 6.369,9.268 6.582 C 9.374 6.782,9.565 6.973,9.756 7.068 C 9.952 7.166,10.408 7.164,10.600 7.064 C 10.677 7.024,11.343 6.393,12.080 5.661 C 13.259 4.491,13.452 4.316,13.685 4.203 C 14.214 3.946,14.824 3.945,15.355 4.202 C 15.595 4.318,15.810 4.520,17.645 6.355 C 19.480 8.190,19.682 8.405,19.798 8.645 C 20.055 9.176,20.054 9.786,19.797 10.315 C 19.684 10.548,19.510 10.739,18.337 11.920 C 16.908 13.357,16.842 13.440,16.841 13.820 C 16.840 14.118,16.908 14.309,17.084 14.500 C 17.306 14.741,17.588 14.855,17.900 14.830 C 18.034 14.819,18.206 14.779,18.282 14.741 C 18.450 14.657,20.953 12.157,21.210 11.817 C 22.205 10.500,22.257 8.712,21.340 7.318 C 21.194 7.096,20.620 6.496,19.082 4.956 C 16.885 2.757,16.721 2.615,16.054 2.325 C 15.473 2.073,14.572 1.948,13.993 2.040 M14.695 8.055 C 14.464 8.130,14.255 8.300,14.128 8.516 C 14.037 8.672,14.020 8.746,14.020 9.000 C 14.020 9.257,14.036 9.327,14.133 9.492 C 14.651 10.374,15.998 10.018,15.998 9.000 C 15.998 8.623,15.792 8.281,15.463 8.112 C 15.265 8.010,14.911 7.984,14.695 8.055 M8.930 16.652 C 7.126 18.458,5.712 19.843,5.620 19.893 C 5.475 19.972,5.390 19.981,4.727 19.993 L 3.994 20.006 4.007 19.273 C 4.021 18.474,4.033 18.428,4.285 18.141 L 4.408 18.000 5.294 17.998 C 6.247 17.996,6.365 17.977,6.619 17.783 C 6.696 17.725,6.808 17.592,6.869 17.489 C 6.976 17.307,6.980 17.276,6.993 16.653 L 7.007 16.007 7.653 15.993 C 8.276 15.980,8.307 15.976,8.489 15.869 C 8.592 15.808,8.725 15.696,8.783 15.619 C 8.977 15.365,8.996 15.247,8.998 14.300 L 9.000 13.421 9.750 12.670 L 10.499 11.920 11.290 12.710 L 12.080 13.500 8.930 16.652 " stroke="none" fill-rule="evenodd" fill="black"></path></svg>