<svg xmlns="http://www.w3.org/2000/svg" width="24" height="24" viewBox="0 0 24 24" fill="none" stroke="currentColor" stroke-width="2" stroke-linecap="round" stroke-linejoin="round"><path d="M3.499 5.043 C 2.380 5.232,1.461 6.048,1.114 7.160 L 1.020 7.460 1.020 12.000 L 1.020 16.540 1.114 16.840 C 1.422 17.827,2.173 18.578,3.160 18.886 L 3.460 18.980 12.000 18.980 L 20.540 18.980 20.840 18.886 C 21.827 18.578,22.578 17.827,22.886 16.840 L 22.980 16.540 22.980 12.000 L 22.980 7.460 22.886 7.160 C 22.581 6.182,21.832 5.428,20.861 5.121 L 20.540 5.020 12.120 5.014 C 7.489 5.011,3.609 5.024,3.499 5.043 M20.310 7.061 C 20.589 7.144,20.856 7.411,20.939 7.690 C 20.992 7.867,21.000 8.441,21.000 12.001 C 21.000 16.458,21.007 16.319,20.779 16.618 C 20.718 16.698,20.585 16.813,20.484 16.872 L 20.300 16.980 12.000 16.980 L 3.700 16.980 3.516 16.872 C 3.303 16.747,3.141 16.550,3.058 16.316 C 2.969 16.062,2.971 7.992,3.061 7.690 C 3.140 7.421,3.412 7.143,3.673 7.063 C 3.833 7.014,5.030 7.005,11.983 7.003 C 19.144 7.000,20.130 7.007,20.310 7.061 M5.695 9.057 C 5.466 9.129,5.256 9.299,5.128 9.516 C 5.036 9.672,5.020 9.745,5.021 10.000 C 5.022 10.332,5.101 10.533,5.306 10.728 C 5.785 11.181,6.580 11.046,6.893 10.460 C 7.025 10.211,7.015 9.760,6.872 9.516 C 6.628 9.101,6.150 8.915,5.695 9.057 M9.695 9.057 C 9.466 9.129,9.256 9.299,9.128 9.516 C 9.036 9.672,9.020 9.745,9.021 10.000 C 9.022 10.332,9.101 10.533,9.306 10.728 C 9.785 11.181,10.580 11.046,10.893 10.460 C 11.025 10.211,11.015 9.760,10.872 9.516 C 10.628 9.101,10.150 8.915,9.695 9.057 M13.695 9.057 C 13.466 9.129,13.256 9.299,13.128 9.516 C 13.036 9.672,13.020 9.745,13.021 10.000 C 13.022 10.332,13.101 10.533,13.306 10.728 C 13.785 11.181,14.580 11.046,14.893 10.460 C 15.025 10.211,15.015 9.760,14.872 9.516 C 14.628 9.101,14.150 8.915,13.695 9.057 M17.695 9.057 C 17.466 9.129,17.256 9.299,17.128 9.516 C 17.036 9.672,17.020 9.745,17.021 10.000 C 17.022 10.332,17.101 10.533,17.306 10.728 C 17.785 11.181,18.580 11.046,18.893 10.460 C 19.025 10.211,19.015 9.760,18.872 9.516 C 18.628 9.101,18.150 8.915,17.695 9.057 M5.695 13.057 C 5.466 13.129,5.256 13.299,5.128 13.516 C 5.036 13.672,5.020 13.745,5.021 14.000 C 5.022 14.332,5.101 14.533,5.306 14.728 C 5.785 15.181,6.580 15.046,6.893 14.460 C 7.025 14.211,7.015 13.760,6.872 13.516 C 6.628 13.101,6.150 12.915,5.695 13.057 M9.670 13.060 C 9.447 13.143,9.249 13.310,9.128 13.516 C 9.037 13.672,9.020 13.746,9.020 14.000 C 9.020 14.256,9.036 14.328,9.131 14.489 C 9.256 14.702,9.449 14.864,9.670 14.943 C 9.788 14.985,10.285 14.997,12.020 14.997 C 14.149 14.998,14.226 14.996,14.400 14.917 C 14.746 14.760,14.950 14.477,14.988 14.100 C 15.030 13.698,14.812 13.316,14.423 13.107 C 14.262 13.021,14.235 13.020,12.040 13.012 C 10.220 13.005,9.793 13.014,9.670 13.060 M17.695 13.057 C 17.466 13.129,17.256 13.299,17.128 13.516 C 17.036 13.672,17.020 13.745,17.021 14.000 C 17.022 14.332,17.101 14.533,17.306 14.728 C 17.785 15.181,18.580 15.046,18.893 14.460 C 19.025 14.211,19.015 13.760,18.872 13.516 C 18.628 13.101,18.150 12.915,17.695 13.057 " stroke="none" fill-rule="evenodd" fill="black"></path></svg>