<svg xmlns="http://www.w3.org/2000/svg" width="24" height="24" viewBox="0 0 24 24" fill="none" stroke="currentColor" stroke-width="2" stroke-linecap="round" stroke-linejoin="round"><path d="M2.670 2.061 C 2.448 2.142,2.250 2.309,2.128 2.516 C 2.037 2.672,2.020 2.746,2.020 3.000 C 2.020 3.412,2.089 3.515,2.915 4.337 L 3.595 5.014 3.236 5.105 C 2.241 5.357,1.432 6.140,1.114 7.160 L 1.020 7.460 1.020 12.000 L 1.020 16.540 1.114 16.840 C 1.418 17.816,2.149 18.554,3.140 18.886 L 3.420 18.980 10.500 18.991 L 17.580 19.001 19.000 20.416 C 19.781 21.195,20.483 21.864,20.560 21.905 C 20.659 21.957,20.788 21.979,21.000 21.979 C 21.258 21.980,21.327 21.964,21.492 21.867 C 21.968 21.587,22.139 20.967,21.865 20.508 C 21.810 20.416,17.665 16.243,12.653 11.235 C 4.231 2.820,3.525 2.125,3.343 2.065 C 3.107 1.987,2.874 1.986,2.670 2.061 M9.695 5.057 C 9.465 5.129,9.256 5.299,9.128 5.516 C 9.037 5.672,9.020 5.746,9.020 6.000 C 9.020 6.256,9.036 6.328,9.131 6.489 C 9.256 6.702,9.449 6.864,9.670 6.943 C 9.792 6.987,10.771 6.997,14.963 6.998 C 20.761 7.000,20.373 6.980,20.697 7.303 C 21.017 7.623,21.000 7.359,21.000 12.001 C 21.000 15.428,20.991 16.138,20.943 16.296 C 20.912 16.399,20.804 16.584,20.704 16.706 C 20.530 16.917,20.400 17.222,20.400 17.420 C 20.400 17.647,20.530 17.934,20.718 18.122 C 21.068 18.472,21.636 18.509,22.020 18.207 C 22.338 17.957,22.701 17.397,22.875 16.887 L 22.980 16.580 22.980 12.020 L 22.980 7.460 22.886 7.160 C 22.581 6.182,21.832 5.428,20.861 5.121 L 20.540 5.020 15.200 5.012 C 10.900 5.006,9.828 5.015,9.695 5.057 M8.580 10.000 L 11.580 13.000 10.736 13.000 C 9.812 13.000,9.634 13.029,9.382 13.221 C 9.302 13.282,9.187 13.415,9.128 13.516 C 9.037 13.672,9.020 13.746,9.020 14.000 C 9.020 14.256,9.036 14.328,9.131 14.489 C 9.256 14.702,9.449 14.864,9.670 14.943 C 9.787 14.985,10.234 14.997,11.700 14.998 L 13.581 15.000 14.580 16.000 L 15.580 17.001 9.640 16.990 L 3.700 16.980 3.516 16.872 C 3.415 16.813,3.284 16.700,3.225 16.623 C 2.990 16.315,3.000 16.515,3.000 12.022 C 3.000 7.356,2.983 7.624,3.304 7.303 C 3.573 7.033,3.701 7.006,4.720 7.003 L 5.580 7.000 8.580 10.000 M5.695 9.057 C 5.466 9.129,5.256 9.299,5.128 9.516 C 5.036 9.672,5.020 9.745,5.021 10.000 C 5.022 10.332,5.101 10.533,5.306 10.728 C 5.785 11.181,6.580 11.046,6.893 10.460 C 7.025 10.211,7.015 9.760,6.872 9.516 C 6.628 9.101,6.150 8.915,5.695 9.057 M13.695 9.057 C 13.466 9.129,13.256 9.299,13.128 9.516 C 13.036 9.672,13.020 9.745,13.021 10.000 C 13.022 10.332,13.101 10.533,13.306 10.728 C 13.785 11.181,14.580 11.046,14.893 10.460 C 15.025 10.211,15.015 9.760,14.872 9.516 C 14.628 9.101,14.150 8.915,13.695 9.057 M17.695 9.057 C 17.466 9.129,17.256 9.299,17.128 9.516 C 17.036 9.672,17.020 9.745,17.021 10.000 C 17.022 10.332,17.101 10.533,17.306 10.728 C 17.785 11.181,18.580 11.046,18.893 10.460 C 19.025 10.211,19.015 9.760,18.872 9.516 C 18.628 9.101,18.150 8.915,17.695 9.057 M5.695 13.057 C 5.466 13.129,5.256 13.299,5.128 13.516 C 5.036 13.672,5.020 13.745,5.021 14.000 C 5.022 14.332,5.101 14.533,5.306 14.728 C 5.785 15.181,6.580 15.046,6.893 14.460 C 7.025 14.211,7.015 13.760,6.872 13.516 C 6.628 13.101,6.150 12.915,5.695 13.057 M17.695 13.057 C 17.466 13.129,17.256 13.299,17.128 13.516 C 17.036 13.672,17.020 13.745,17.021 14.000 C 17.022 14.332,17.101 14.533,17.306 14.728 C 17.785 15.181,18.580 15.046,18.893 14.460 C 19.025 14.211,19.015 13.760,18.872 13.516 C 18.628 13.101,18.150 12.915,17.695 13.057 " stroke="none" fill-rule="evenodd" fill="black"></path></svg>