<svg xmlns="http://www.w3.org/2000/svg" width="24" height="24" viewBox="0 0 24 24" fill="none" stroke="currentColor" stroke-width="2" stroke-linecap="round" stroke-linejoin="round"><path d="M3.499 2.043 C 2.380 2.232,1.461 3.048,1.114 4.160 L 1.020 4.460 1.020 9.000 L 1.020 13.540 1.114 13.840 C 1.422 14.827,2.173 15.578,3.160 15.886 L 3.460 15.980 12.020 15.980 L 20.580 15.980 20.887 15.875 C 21.861 15.543,22.585 14.807,22.886 13.840 L 22.980 13.540 22.980 9.000 L 22.980 4.460 22.886 4.160 C 22.581 3.182,21.832 2.428,20.861 2.121 L 20.540 2.020 12.120 2.014 C 7.489 2.011,3.609 2.024,3.499 2.043 M20.310 4.061 C 20.589 4.144,20.856 4.411,20.939 4.690 C 20.992 4.867,21.000 5.441,21.000 9.001 C 21.000 13.458,21.007 13.319,20.779 13.618 C 20.718 13.698,20.585 13.813,20.484 13.872 L 20.300 13.980 12.000 13.980 L 3.700 13.980 3.516 13.872 C 3.303 13.747,3.141 13.550,3.058 13.316 C 2.969 13.062,2.971 4.992,3.061 4.690 C 3.140 4.421,3.412 4.143,3.673 4.063 C 3.833 4.014,5.030 4.005,11.983 4.003 C 19.144 4.000,20.130 4.007,20.310 4.061 M5.695 6.057 C 5.466 6.129,5.256 6.299,5.128 6.516 C 5.036 6.672,5.020 6.745,5.021 7.000 C 5.022 7.332,5.101 7.533,5.306 7.728 C 5.785 8.181,6.580 8.046,6.893 7.460 C 7.025 7.211,7.015 6.760,6.872 6.516 C 6.628 6.101,6.150 5.915,5.695 6.057 M9.695 6.057 C 9.466 6.129,9.256 6.299,9.128 6.516 C 9.036 6.672,9.020 6.745,9.021 7.000 C 9.022 7.332,9.101 7.533,9.306 7.728 C 9.785 8.181,10.580 8.046,10.893 7.460 C 11.025 7.211,11.015 6.760,10.872 6.516 C 10.628 6.101,10.150 5.915,9.695 6.057 M13.695 6.057 C 13.466 6.129,13.256 6.299,13.128 6.516 C 13.036 6.672,13.020 6.745,13.021 7.000 C 13.022 7.332,13.101 7.533,13.306 7.728 C 13.785 8.181,14.580 8.046,14.893 7.460 C 15.025 7.211,15.015 6.760,14.872 6.516 C 14.628 6.101,14.150 5.915,13.695 6.057 M17.695 6.057 C 17.466 6.129,17.256 6.299,17.128 6.516 C 17.036 6.672,17.020 6.745,17.021 7.000 C 17.022 7.332,17.101 7.533,17.306 7.728 C 17.785 8.181,18.580 8.046,18.893 7.460 C 19.025 7.211,19.015 6.760,18.872 6.516 C 18.628 6.101,18.150 5.915,17.695 6.057 M5.695 10.057 C 5.466 10.129,5.256 10.299,5.128 10.516 C 5.036 10.672,5.020 10.745,5.021 11.000 C 5.022 11.332,5.101 11.533,5.306 11.728 C 5.785 12.181,6.580 12.046,6.893 11.460 C 7.025 11.211,7.015 10.760,6.872 10.516 C 6.628 10.101,6.150 9.915,5.695 10.057 M9.695 10.057 C 9.466 10.129,9.256 10.299,9.128 10.516 C 9.037 10.672,9.020 10.746,9.020 11.000 C 9.020 11.256,9.036 11.328,9.131 11.489 C 9.256 11.702,9.449 11.864,9.670 11.943 C 9.889 12.021,14.111 12.021,14.330 11.943 C 14.551 11.864,14.744 11.702,14.869 11.489 C 14.964 11.328,14.980 11.256,14.980 11.000 C 14.980 10.746,14.963 10.672,14.872 10.516 C 14.740 10.293,14.533 10.128,14.290 10.055 C 14.033 9.978,9.943 9.979,9.695 10.057 M17.695 10.057 C 17.466 10.129,17.256 10.299,17.128 10.516 C 17.036 10.672,17.020 10.745,17.021 11.000 C 17.022 11.332,17.101 11.533,17.306 11.728 C 17.785 12.181,18.580 12.046,18.893 11.460 C 19.025 11.211,19.015 10.760,18.872 10.516 C 18.628 10.101,18.150 9.915,17.695 10.057 M9.670 18.061 C 9.448 18.142,9.250 18.309,9.128 18.516 C 9.036 18.672,9.020 18.745,9.021 19.000 C 9.021 19.213,9.043 19.341,9.095 19.440 C 9.197 19.633,11.297 21.740,11.520 21.873 C 11.672 21.964,11.746 21.980,12.000 21.980 C 12.254 21.980,12.328 21.964,12.480 21.873 C 12.703 21.740,14.803 19.633,14.905 19.440 C 14.957 19.341,14.979 19.213,14.979 19.000 C 14.980 18.745,14.964 18.672,14.872 18.516 C 14.617 18.083,14.135 17.905,13.657 18.067 C 13.491 18.123,13.345 18.247,12.730 18.854 L 12.000 19.574 11.270 18.854 C 10.655 18.247,10.509 18.123,10.343 18.067 C 10.108 17.987,9.876 17.985,9.670 18.061 " stroke="none" fill-rule="evenodd" fill="black"></path></svg>