<svg xmlns="http://www.w3.org/2000/svg" width="24" height="24" viewBox="0 0 24 24" fill="none" stroke="currentColor" stroke-width="2" stroke-linecap="round" stroke-linejoin="round"><path d="M7.467 4.065 C 6.960 4.174,6.460 4.456,6.120 4.825 C 5.672 5.311,1.524 10.348,1.389 10.570 C 1.306 10.706,1.190 10.963,1.131 11.139 C 1.037 11.423,1.025 11.522,1.025 12.000 C 1.025 12.478,1.037 12.577,1.131 12.860 C 1.190 13.036,1.302 13.288,1.381 13.420 C 1.604 13.795,6.103 19.186,6.383 19.413 C 6.662 19.641,6.885 19.761,7.263 19.887 C 7.659 20.019,8.341 20.019,8.737 19.887 C 9.228 19.723,9.595 19.492,9.900 19.155 C 10.391 18.613,14.484 13.639,14.611 13.430 C 14.694 13.294,14.810 13.037,14.869 12.861 C 14.963 12.577,14.975 12.478,14.975 12.000 C 14.975 11.522,14.963 11.423,14.869 11.140 C 14.810 10.964,14.698 10.712,14.619 10.580 C 14.395 10.203,9.896 4.814,9.617 4.587 C 9.013 4.097,8.217 3.904,7.467 4.065 M12.670 4.055 C 12.160 4.245,11.887 4.799,12.055 5.305 C 12.105 5.455,12.660 6.187,14.463 8.480 C 15.751 10.119,16.845 11.523,16.893 11.600 C 17.015 11.797,17.016 12.203,16.893 12.400 C 16.845 12.477,15.751 13.881,14.463 15.519 C 12.652 17.822,12.106 18.543,12.055 18.695 C 11.828 19.379,12.386 20.061,13.112 19.987 C 13.538 19.943,13.474 20.014,16.079 16.702 C 17.402 15.020,18.547 13.539,18.623 13.412 C 18.700 13.284,18.810 13.036,18.869 12.860 C 18.960 12.583,18.975 12.470,18.977 12.020 C 18.980 11.441,18.906 11.114,18.671 10.670 C 18.604 10.543,17.449 9.041,16.104 7.332 C 13.945 4.586,13.638 4.213,13.474 4.128 C 13.243 4.010,12.879 3.977,12.670 4.055 M16.670 4.055 C 16.160 4.245,15.887 4.799,16.055 5.305 C 16.105 5.455,16.660 6.187,18.463 8.480 C 19.751 10.119,20.845 11.523,20.893 11.600 C 21.015 11.797,21.016 12.203,20.893 12.400 C 20.845 12.477,19.751 13.881,18.463 15.519 C 16.652 17.822,16.106 18.543,16.055 18.695 C 15.828 19.379,16.386 20.061,17.112 19.987 C 17.538 19.943,17.474 20.014,20.079 16.702 C 21.402 15.020,22.547 13.539,22.623 13.412 C 22.700 13.284,22.810 13.036,22.869 12.860 C 22.960 12.583,22.975 12.470,22.977 12.020 C 22.980 11.441,22.906 11.114,22.671 10.670 C 22.604 10.543,21.449 9.041,20.104 7.332 C 17.945 4.586,17.638 4.213,17.474 4.128 C 17.243 4.010,16.879 3.977,16.670 4.055 M8.283 6.091 C 8.415 6.180,12.720 11.325,12.892 11.600 C 12.959 11.707,12.980 11.801,12.980 12.000 C 12.980 12.199,12.959 12.293,12.892 12.400 C 12.720 12.675,8.415 17.820,8.283 17.909 C 8.108 18.027,7.892 18.027,7.717 17.909 C 7.584 17.819,3.280 12.675,3.108 12.400 C 3.041 12.293,3.020 12.198,3.020 12.000 C 3.020 11.802,3.041 11.707,3.108 11.600 C 3.280 11.325,7.584 6.181,7.717 6.091 C 7.892 5.973,8.108 5.973,8.283 6.091 " stroke="none" fill-rule="evenodd" fill="black"></path></svg>