<svg xmlns="http://www.w3.org/2000/svg" width="24" height="24" viewBox="0 0 24 24" fill="none" stroke="currentColor" stroke-width="2" stroke-linecap="round" stroke-linejoin="round"><path d="M3.695 6.057 C 3.466 6.129,3.256 6.299,3.128 6.516 C 2.983 6.762,2.972 7.220,3.106 7.445 C 3.153 7.525,3.986 8.583,4.956 9.795 L 6.721 12.000 4.956 14.205 C 3.986 15.417,3.153 16.475,3.106 16.555 C 2.971 16.783,2.983 17.238,3.131 17.489 C 3.256 17.702,3.449 17.864,3.670 17.943 C 3.869 18.014,16.589 18.026,16.928 17.956 C 17.215 17.896,17.582 17.717,17.797 17.534 C 17.978 17.378,21.739 12.707,21.894 12.445 C 22.016 12.239,22.016 11.761,21.894 11.555 C 21.781 11.363,18.005 6.651,17.855 6.515 C 17.688 6.362,17.421 6.204,17.164 6.106 L 16.940 6.020 10.400 6.012 C 5.123 6.006,3.828 6.015,3.695 6.057 M18.120 10.000 L 19.721 12.000 18.120 14.000 L 16.519 16.000 11.299 16.000 L 6.079 16.000 7.443 14.296 C 8.194 13.359,8.846 12.526,8.894 12.446 C 9.017 12.238,9.017 11.762,8.894 11.554 C 8.846 11.474,8.194 10.641,7.443 9.704 L 6.079 8.000 11.299 8.000 L 16.519 8.000 18.120 10.000 " stroke="none" fill-rule="evenodd" fill="black"></path></svg>