<svg xmlns="http://www.w3.org/2000/svg" width="24" height="24" viewBox="0 0 24 24" fill="none" stroke="currentColor" stroke-width="2" stroke-linecap="round" stroke-linejoin="round"><path d="M5.499 6.043 C 4.380 6.232,3.461 7.048,3.114 8.160 L 3.020 8.460 3.020 12.000 L 3.020 15.540 3.114 15.840 C 3.418 16.816,4.149 17.554,5.140 17.886 L 5.420 17.980 11.040 17.992 C 15.116 18.001,16.726 17.992,16.900 17.959 C 17.205 17.901,17.570 17.728,17.797 17.534 C 17.978 17.378,21.739 12.707,21.894 12.445 C 22.016 12.239,22.016 11.761,21.894 11.555 C 21.781 11.363,18.005 6.651,17.855 6.515 C 17.688 6.362,17.421 6.204,17.164 6.106 L 16.940 6.020 11.320 6.014 C 8.229 6.011,5.609 6.024,5.499 6.043 M18.120 10.000 L 19.721 12.000 18.120 14.001 L 16.518 16.001 11.109 15.991 L 5.700 15.980 5.516 15.872 C 5.415 15.813,5.284 15.700,5.225 15.623 C 4.994 15.320,5.000 15.423,5.000 12.022 C 5.000 8.472,4.988 8.618,5.304 8.303 C 5.621 7.985,5.210 8.006,11.190 8.003 L 16.519 8.000 18.120 10.000 " stroke="none" fill-rule="evenodd" fill="black"></path></svg>