<svg xmlns="http://www.w3.org/2000/svg" width="24" height="24" viewBox="0 0 24 24" fill="none" stroke="currentColor" stroke-width="2" stroke-linecap="round" stroke-linejoin="round"><path d="M2.670 2.061 C 2.448 2.142,2.250 2.309,2.128 2.516 C 2.036 2.672,2.020 2.745,2.021 3.000 C 2.021 3.213,2.043 3.341,2.095 3.440 C 2.136 3.517,2.762 4.176,3.488 4.904 L 4.807 6.229 4.554 6.372 C 3.871 6.755,3.351 7.401,3.114 8.160 L 3.020 8.460 3.020 12.000 L 3.020 15.540 3.114 15.840 C 3.418 16.816,4.149 17.554,5.140 17.886 L 5.420 17.980 11.000 17.991 L 16.580 18.002 18.500 19.917 C 19.556 20.970,20.483 21.865,20.560 21.905 C 20.659 21.957,20.788 21.979,21.000 21.979 C 21.258 21.980,21.327 21.964,21.492 21.867 C 21.968 21.587,22.139 20.967,21.865 20.508 C 21.810 20.416,17.665 16.243,12.653 11.235 C 4.231 2.820,3.525 2.125,3.343 2.065 C 3.107 1.987,2.874 1.986,2.670 2.061 M10.695 6.056 C 10.465 6.129,10.256 6.299,10.128 6.516 C 10.037 6.672,10.020 6.746,10.020 7.000 C 10.020 7.256,10.036 7.328,10.131 7.489 C 10.256 7.702,10.449 7.864,10.670 7.943 C 10.790 7.986,11.394 7.997,13.670 7.998 L 16.519 8.000 18.120 10.000 L 19.721 12.000 18.799 13.150 C 17.759 14.448,17.707 14.542,17.793 14.957 C 17.955 15.729,18.852 16.045,19.426 15.533 C 19.578 15.397,21.770 12.655,21.893 12.446 C 22.016 12.239,22.017 11.762,21.894 11.555 C 21.781 11.363,18.005 6.651,17.855 6.515 C 17.687 6.362,17.420 6.204,17.164 6.106 C 16.943 6.022,16.898 6.021,13.900 6.012 C 11.484 6.006,10.826 6.015,10.695 6.056 M10.580 12.000 L 14.580 16.001 10.140 15.990 L 5.700 15.980 5.516 15.872 C 5.415 15.813,5.284 15.700,5.225 15.623 C 4.994 15.320,5.000 15.423,5.000 12.022 C 5.000 8.472,4.988 8.618,5.304 8.303 C 5.531 8.076,5.742 8.006,6.220 8.003 L 6.580 8.000 10.580 12.000 " stroke="none" fill-rule="evenodd" fill="black"></path></svg>