<svg xmlns="http://www.w3.org/2000/svg" width="24" height="24" viewBox="0 0 24 24" fill="none" stroke="currentColor" stroke-width="2" stroke-linecap="round" stroke-linejoin="round"><path d="M2.670 2.061 C 2.448 2.142,2.250 2.309,2.128 2.516 C 2.036 2.672,2.020 2.745,2.021 3.000 C 2.021 3.212,2.043 3.341,2.095 3.440 C 2.135 3.517,3.255 4.669,4.584 6.000 L 6.999 8.420 7.010 14.863 L 7.020 21.306 7.141 21.503 C 7.543 22.156,8.457 22.156,8.859 21.503 L 8.980 21.307 8.992 20.153 L 9.005 19.000 12.000 19.000 L 14.995 19.000 15.008 20.153 L 15.020 21.307 15.141 21.503 C 15.543 22.156,16.457 22.156,16.859 21.503 L 16.980 21.306 16.992 19.866 L 17.004 18.425 18.712 20.128 C 19.651 21.065,20.483 21.865,20.560 21.905 C 20.659 21.957,20.788 21.979,21.000 21.979 C 21.258 21.980,21.327 21.964,21.492 21.867 C 21.968 21.587,22.139 20.967,21.865 20.508 C 21.810 20.416,17.665 16.243,12.653 11.235 C 4.231 2.820,3.525 2.125,3.343 2.065 C 3.107 1.987,2.874 1.986,2.670 2.061 M7.695 2.057 C 7.466 2.129,7.256 2.299,7.128 2.516 C 7.020 2.699,7.020 2.703,7.020 3.503 L 7.020 4.306 7.141 4.503 C 7.543 5.156,8.457 5.156,8.859 4.503 L 8.980 4.306 8.980 3.503 C 8.980 2.703,8.980 2.699,8.872 2.516 C 8.628 2.101,8.150 1.915,7.695 2.057 M15.695 2.057 C 15.466 2.129,15.256 2.299,15.128 2.516 L 15.020 2.700 15.008 3.850 L 14.995 5.000 12.444 5.000 C 9.676 5.000,9.672 5.000,9.382 5.221 C 9.302 5.282,9.187 5.415,9.128 5.516 C 9.037 5.672,9.020 5.746,9.020 6.000 C 9.020 6.256,9.036 6.328,9.131 6.489 C 9.256 6.702,9.449 6.864,9.670 6.943 C 9.789 6.986,10.351 6.997,12.410 6.998 L 15.000 7.000 15.000 8.000 L 15.000 9.000 14.446 9.000 C 13.648 9.000,13.367 9.110,13.128 9.516 C 13.037 9.672,13.020 9.746,13.020 10.000 C 13.020 10.256,13.036 10.328,13.131 10.489 C 13.256 10.702,13.449 10.864,13.670 10.943 C 13.768 10.978,14.022 10.997,14.407 10.998 L 14.993 11.000 15.007 11.653 C 15.020 12.300,15.021 12.308,15.141 12.503 C 15.543 13.156,16.457 13.156,16.859 12.503 L 16.980 12.306 16.980 7.503 L 16.980 2.700 16.872 2.516 C 16.628 2.101,16.150 1.915,15.695 2.057 M10.580 12.000 L 11.579 13.000 10.290 13.000 L 9.000 13.000 9.000 12.000 L 9.000 11.000 9.290 11.000 L 9.581 11.000 10.580 12.000 M14.290 15.710 L 15.000 16.419 15.000 16.710 L 15.000 17.000 12.000 17.000 L 9.000 17.000 9.000 16.000 L 9.000 15.000 11.290 15.000 L 13.579 15.000 14.290 15.710 " stroke="none" fill-rule="evenodd" fill="black"></path></svg>