<svg xmlns="http://www.w3.org/2000/svg" width="24" height="24" viewBox="0 0 24 24" fill="none" stroke="currentColor" stroke-width="2" stroke-linecap="round" stroke-linejoin="round"><path d="M6.695 3.054 C 6.463 3.131,6.255 3.301,6.128 3.516 C 6.037 3.672,6.020 3.746,6.020 4.000 C 6.020 4.257,6.036 4.327,6.133 4.492 C 6.261 4.710,6.505 4.904,6.716 4.955 C 6.795 4.974,7.024 5.008,7.225 5.031 C 7.950 5.115,8.555 5.502,9.182 6.284 C 9.817 7.075,10.544 8.461,11.218 10.163 L 11.449 10.746 8.315 15.083 C 6.591 17.468,5.138 19.509,5.085 19.617 C 5.006 19.782,4.994 19.856,5.011 20.069 C 5.071 20.823,5.897 21.244,6.529 20.843 C 6.680 20.747,7.146 20.124,9.461 16.914 C 10.974 14.816,12.233 13.077,12.259 13.049 C 12.295 13.009,12.374 13.177,12.618 13.809 C 13.772 16.806,14.675 18.439,15.799 19.560 C 16.607 20.366,17.459 20.819,18.434 20.962 C 19.123 21.062,19.543 20.949,19.802 20.591 C 20.114 20.160,20.034 19.538,19.625 19.226 C 19.429 19.077,19.310 19.039,18.906 18.997 C 17.926 18.894,17.183 18.339,16.387 17.116 C 15.671 16.013,15.144 14.833,13.882 11.505 C 13.155 9.586,12.883 8.910,12.491 8.040 C 11.745 6.386,11.054 5.296,10.221 4.457 C 9.491 3.723,8.724 3.280,7.860 3.096 C 7.448 3.009,6.894 2.989,6.695 3.054 " stroke="none" fill-rule="evenodd" fill="black"></path></svg>