<svg xmlns="http://www.w3.org/2000/svg" width="24" height="24" viewBox="0 0 24 24" fill="none" stroke="currentColor" stroke-width="2" stroke-linecap="round" stroke-linejoin="round"><path d="M11.520 2.043 C 10.883 2.137,10.402 2.390,9.896 2.896 C 9.494 3.299,9.292 3.619,9.128 4.113 C 9.039 4.380,9.026 4.492,9.023 4.980 C 9.020 5.461,9.033 5.582,9.114 5.840 C 9.246 6.263,9.439 6.611,9.742 6.970 L 10.003 7.280 9.672 7.494 C 3.874 11.237,2.359 12.228,2.252 12.347 C 2.001 12.626,1.932 13.115,2.099 13.438 C 2.135 13.508,3.424 15.004,4.962 16.763 C 6.501 18.521,7.760 19.969,7.760 19.980 C 7.760 19.991,7.115 20.000,6.326 20.000 C 4.768 20.000,4.655 20.013,4.382 20.221 C 4.302 20.282,4.187 20.415,4.128 20.516 C 4.037 20.672,4.020 20.746,4.020 21.000 C 4.020 21.256,4.036 21.328,4.131 21.489 C 4.256 21.702,4.449 21.864,4.670 21.943 C 4.892 22.022,14.108 22.022,14.330 21.943 C 14.551 21.864,14.744 21.702,14.869 21.489 C 14.964 21.328,14.980 21.256,14.980 21.000 C 14.980 20.746,14.963 20.672,14.872 20.516 C 14.813 20.415,14.698 20.282,14.618 20.221 C 14.337 20.007,14.264 20.000,12.281 20.000 L 10.454 20.000 7.497 16.620 C 5.871 14.760,4.543 13.228,4.546 13.213 C 4.549 13.199,5.863 12.339,7.466 11.302 L 10.380 9.416 10.406 10.138 C 10.446 11.289,10.613 12.003,11.061 12.941 C 11.434 13.722,12.144 14.662,12.527 14.881 C 12.750 15.009,13.220 15.021,13.440 14.905 C 13.517 14.864,13.952 14.462,14.406 14.011 L 15.232 13.190 15.426 13.339 C 15.685 13.536,16.186 13.775,16.580 13.887 C 16.851 13.964,16.992 13.978,17.500 13.977 C 18.035 13.975,18.138 13.963,18.452 13.867 C 20.061 13.374,21.072 11.968,20.987 10.340 C 20.974 10.098,20.934 9.783,20.898 9.640 C 20.815 9.310,20.531 8.721,20.327 8.455 L 20.169 8.250 20.967 7.455 C 21.406 7.018,21.814 6.579,21.873 6.480 C 21.962 6.331,21.980 6.252,21.980 6.020 C 21.980 5.623,21.876 5.430,21.487 5.106 C 19.837 3.732,17.607 3.199,15.391 3.649 L 14.963 3.736 14.351 3.138 C 13.956 2.751,13.648 2.487,13.480 2.389 C 12.927 2.068,12.206 1.940,11.520 2.043 M12.425 4.105 C 12.508 4.144,12.684 4.281,12.818 4.409 L 13.060 4.643 12.944 4.731 C 12.547 5.033,11.991 5.589,11.732 5.941 L 11.645 6.060 11.439 5.860 C 11.326 5.750,11.190 5.587,11.137 5.497 C 10.818 4.959,11.113 4.230,11.726 4.044 C 11.907 3.988,12.241 4.018,12.425 4.105 M17.640 5.538 C 18.162 5.609,18.677 5.757,19.118 5.964 L 19.457 6.123 16.281 9.299 C 14.534 11.046,13.090 12.466,13.071 12.455 C 13.053 12.443,12.975 12.309,12.898 12.155 C 11.900 10.175,12.443 7.613,14.126 6.359 C 15.075 5.652,16.324 5.360,17.640 5.538 M18.834 9.830 C 19.210 10.579,18.890 11.488,18.120 11.856 C 17.885 11.968,17.824 11.980,17.480 11.979 C 17.168 11.978,17.062 11.961,16.890 11.884 C 16.774 11.832,16.680 11.779,16.680 11.765 C 16.680 11.743,18.727 9.680,18.749 9.680 C 18.754 9.680,18.792 9.748,18.834 9.830 " stroke="none" fill-rule="evenodd" fill="black"></path></svg>