<svg xmlns="http://www.w3.org/2000/svg" width="24" height="24" viewBox="0 0 24 24" fill="none" stroke="currentColor" stroke-width="2" stroke-linecap="round" stroke-linejoin="round"><path d="M2.670 2.061 C 2.448 2.142,2.250 2.309,2.128 2.516 C 2.037 2.672,2.020 2.746,2.020 3.000 C 2.020 3.254,2.036 3.327,2.127 3.480 C 2.187 3.579,3.107 4.531,4.174 5.596 L 6.113 7.533 5.071 9.618 C 3.928 11.909,3.925 11.915,4.061 12.322 C 4.150 12.592,4.397 12.844,4.660 12.934 C 4.834 12.993,5.172 13.000,7.927 13.000 L 11.000 13.000 11.000 16.000 L 11.000 19.000 9.946 19.000 C 8.797 19.000,8.644 19.022,8.382 19.221 C 8.302 19.282,8.187 19.415,8.128 19.516 C 8.037 19.672,8.020 19.746,8.020 20.000 C 8.020 20.256,8.036 20.328,8.131 20.489 C 8.256 20.702,8.449 20.864,8.670 20.943 C 8.891 21.022,15.109 21.022,15.330 20.943 C 15.551 20.864,15.744 20.702,15.869 20.489 C 15.964 20.328,15.980 20.256,15.980 20.000 C 15.980 19.746,15.963 19.672,15.872 19.516 C 15.813 19.415,15.698 19.282,15.618 19.221 C 15.356 19.022,15.203 19.000,14.054 19.000 L 13.000 19.000 13.000 16.710 L 13.000 14.421 16.710 18.126 C 18.751 20.164,20.483 21.865,20.560 21.905 C 20.659 21.957,20.788 21.979,21.000 21.979 C 21.258 21.980,21.327 21.964,21.492 21.867 C 21.968 21.587,22.139 20.967,21.865 20.508 C 21.810 20.416,17.665 16.243,12.653 11.235 C 4.231 2.820,3.525 2.125,3.343 2.065 C 3.107 1.987,2.874 1.986,2.670 2.061 M8.647 3.067 C 8.362 3.168,8.191 3.370,7.917 3.931 C 7.696 4.382,7.667 4.467,7.669 4.671 C 7.678 5.585,8.800 6.017,9.397 5.337 C 9.468 5.256,9.546 5.147,9.570 5.095 L 9.613 5.000 11.997 5.000 L 14.380 5.000 15.870 7.980 C 16.690 9.619,17.360 10.969,17.360 10.980 C 17.360 10.991,17.030 11.000,16.626 11.000 C 15.819 11.000,15.627 11.034,15.382 11.221 C 15.302 11.282,15.187 11.415,15.128 11.516 C 15.037 11.672,15.020 11.746,15.020 12.000 C 15.020 12.256,15.036 12.328,15.131 12.489 C 15.256 12.702,15.449 12.864,15.670 12.943 C 15.888 13.021,19.112 13.021,19.330 12.943 C 19.551 12.864,19.744 12.702,19.869 12.489 C 19.963 12.330,19.980 12.255,19.980 12.011 L 19.980 11.723 17.920 7.593 C 16.256 4.258,15.829 3.432,15.697 3.298 C 15.392 2.987,15.548 3.000,11.983 3.003 C 9.254 3.006,8.796 3.015,8.647 3.067 M8.114 10.991 C 7.319 10.996,6.660 10.994,6.652 10.985 C 6.643 10.976,6.854 10.532,7.121 9.998 L 7.607 9.027 8.584 10.004 L 9.561 10.980 8.114 10.991 " stroke="none" fill-rule="evenodd" fill="black"></path></svg>