<svg xmlns="http://www.w3.org/2000/svg" width="24" height="24" viewBox="0 0 24 24" fill="none" stroke="currentColor" stroke-width="2" stroke-linecap="round" stroke-linejoin="round"><path d="M8.643 3.069 C 8.267 3.201,8.296 3.151,6.085 7.583 C 4.378 11.004,4.027 11.737,4.010 11.907 C 3.982 12.197,4.089 12.491,4.298 12.700 C 4.610 13.012,4.463 13.000,7.927 13.000 L 11.000 13.000 11.000 16.000 L 11.000 19.000 9.946 19.000 C 8.797 19.000,8.644 19.022,8.382 19.221 C 8.302 19.282,8.187 19.415,8.128 19.516 C 8.037 19.672,8.020 19.746,8.020 20.000 C 8.020 20.256,8.036 20.328,8.131 20.489 C 8.256 20.702,8.449 20.864,8.670 20.943 C 8.891 21.022,15.109 21.022,15.330 20.943 C 15.551 20.864,15.744 20.702,15.869 20.489 C 15.964 20.328,15.980 20.256,15.980 20.000 C 15.980 19.746,15.963 19.672,15.872 19.516 C 15.813 19.415,15.698 19.282,15.618 19.221 C 15.356 19.022,15.203 19.000,14.054 19.000 L 13.000 19.000 13.000 16.000 L 13.000 13.000 16.090 12.998 C 18.567 12.997,19.210 12.986,19.330 12.943 C 19.551 12.864,19.744 12.702,19.869 12.489 C 19.963 12.330,19.980 12.255,19.980 12.011 L 19.980 11.723 17.920 7.593 C 16.256 4.258,15.829 3.432,15.697 3.298 C 15.392 2.987,15.548 3.000,11.983 3.003 C 9.226 3.006,8.797 3.014,8.643 3.069 M15.870 7.980 C 16.690 9.619,17.360 10.969,17.360 10.980 C 17.360 10.991,14.948 11.000,12.000 11.000 C 9.052 11.000,6.640 10.991,6.640 10.980 C 6.640 10.969,7.310 9.619,8.130 7.980 L 9.620 5.000 12.000 5.000 L 14.380 5.000 15.870 7.980 " stroke="none" fill-rule="evenodd" fill="black"></path></svg>