<svg xmlns="http://www.w3.org/2000/svg" width="24" height="24" viewBox="0 0 24 24" fill="none" stroke="currentColor" stroke-width="2" stroke-linecap="round" stroke-linejoin="round"><path d="M2.670 2.061 C 2.448 2.142,2.250 2.309,2.128 2.516 C 2.037 2.672,2.020 2.746,2.020 3.000 C 2.020 3.392,2.100 3.526,2.671 4.093 L 3.108 4.527 3.050 4.693 C 2.923 5.058,3.071 5.547,3.381 5.783 C 3.595 5.946,3.785 5.996,4.200 5.998 L 4.580 6.000 5.965 7.385 L 7.350 8.770 7.252 9.015 C 7.143 9.286,6.750 10.055,6.658 10.178 C 6.601 10.254,6.596 10.252,6.480 10.118 C 6.328 9.942,6.126 9.599,6.076 9.431 C 6.054 9.359,6.020 9.159,6.000 8.986 C 5.955 8.611,5.837 8.384,5.595 8.205 C 4.969 7.745,4.081 8.144,4.011 8.916 C 3.970 9.372,4.122 10.049,4.380 10.560 C 4.529 10.855,4.690 11.091,4.947 11.386 C 5.064 11.522,5.160 11.643,5.160 11.655 C 5.160 11.703,4.771 11.872,4.517 11.935 C 4.373 11.971,4.173 12.000,4.074 12.000 C 3.669 12.000,3.320 12.191,3.128 12.516 C 3.037 12.672,3.020 12.746,3.020 13.000 C 3.020 13.257,3.036 13.327,3.133 13.492 C 3.263 13.714,3.502 13.901,3.736 13.965 C 3.972 14.029,4.588 13.982,5.051 13.864 C 5.637 13.714,6.195 13.430,6.863 12.941 C 6.900 12.915,7.006 12.944,7.208 13.036 C 8.220 13.497,9.593 13.838,10.920 13.958 C 11.686 14.027,11.876 14.016,12.132 13.887 L 12.356 13.775 12.804 14.224 C 13.134 14.555,13.246 14.692,13.230 14.746 C 13.218 14.787,12.755 15.837,12.200 17.080 C 11.063 19.629,11.000 19.782,11.000 19.994 C 11.000 20.527,11.470 21.000,12.000 21.000 C 12.241 21.000,12.521 20.881,12.698 20.704 C 12.825 20.575,12.934 20.374,13.200 19.770 L 13.540 19.000 15.560 19.000 L 17.580 19.000 18.960 20.383 C 19.719 21.143,20.421 21.814,20.520 21.873 C 20.673 21.964,20.746 21.980,21.000 21.980 C 21.257 21.980,21.327 21.964,21.492 21.867 C 21.968 21.587,22.139 20.967,21.865 20.508 C 21.810 20.416,17.665 16.243,12.653 11.235 C 4.231 2.820,3.525 2.125,3.343 2.065 C 3.107 1.987,2.874 1.986,2.670 2.061 M8.695 2.057 C 8.466 2.129,8.256 2.299,8.128 2.516 L 8.020 2.700 8.008 3.939 C 7.997 5.021,8.004 5.199,8.063 5.353 C 8.155 5.595,8.342 5.795,8.580 5.906 C 8.776 5.997,8.806 5.999,9.980 5.998 C 11.270 5.996,11.354 5.985,11.619 5.783 C 11.696 5.725,11.808 5.592,11.869 5.489 C 11.964 5.328,11.980 5.256,11.980 5.000 C 11.980 4.746,11.963 4.672,11.872 4.516 C 11.634 4.111,11.352 4.000,10.557 4.000 L 10.007 4.000 9.993 3.350 C 9.981 2.728,9.975 2.692,9.872 2.516 C 9.628 2.101,9.150 1.915,8.695 2.057 M15.643 10.067 C 15.358 10.171,15.165 10.402,14.946 10.900 C 14.687 11.488,14.649 11.676,14.733 11.960 C 14.768 12.081,14.855 12.250,14.926 12.335 C 15.058 12.495,15.391 12.679,15.550 12.680 C 15.624 12.680,15.672 12.747,15.819 13.057 C 16.018 13.473,16.175 13.637,16.475 13.739 C 17.255 14.005,18.013 13.253,17.741 12.483 C 17.709 12.391,17.497 11.899,17.271 11.388 C 16.834 10.403,16.735 10.253,16.419 10.101 C 16.209 10.000,15.866 9.985,15.643 10.067 M9.680 11.100 C 10.192 11.612,10.433 11.880,10.384 11.880 C 10.115 11.880,8.423 11.435,8.325 11.338 C 8.317 11.330,8.392 11.183,8.492 11.012 C 8.592 10.840,8.715 10.615,8.765 10.510 C 8.815 10.405,8.866 10.320,8.878 10.320 C 8.891 10.320,9.251 10.671,9.680 11.100 M15.015 16.991 C 14.715 16.997,14.463 16.996,14.455 16.988 C 14.447 16.980,14.517 16.801,14.610 16.589 L 14.780 16.205 15.171 16.592 L 15.562 16.980 15.015 16.991 " stroke="none" fill-rule="evenodd" fill="black"></path></svg>