<svg xmlns="http://www.w3.org/2000/svg" width="24" height="24" viewBox="0 0 24 24" fill="none" stroke="currentColor" stroke-width="2" stroke-linecap="round" stroke-linejoin="round"><path d="M4.695 4.057 C 4.466 4.129,4.256 4.299,4.128 4.516 C 4.037 4.672,4.020 4.746,4.020 5.000 C 4.020 5.256,4.036 5.328,4.131 5.489 C 4.256 5.702,4.449 5.864,4.670 5.943 C 4.791 5.986,5.481 5.997,8.199 5.998 L 11.577 6.000 10.873 6.710 C 10.486 7.101,10.136 7.483,10.096 7.560 C 10.043 7.660,10.021 7.787,10.021 8.000 C 10.020 8.258,10.036 8.327,10.133 8.492 C 10.412 8.967,11.030 9.138,11.492 8.867 C 11.584 8.812,12.011 8.411,12.440 7.974 C 13.315 7.084,13.430 6.916,13.541 6.365 C 13.754 5.315,13.067 4.283,12.005 4.058 C 11.631 3.978,4.948 3.978,4.695 4.057 M7.695 7.057 C 7.466 7.129,7.256 7.299,7.128 7.516 L 7.020 7.700 7.018 8.800 C 7.017 9.983,7.003 10.088,6.795 10.554 C 6.580 11.036,6.078 11.644,5.516 12.104 C 5.185 12.374,5.043 12.596,5.013 12.888 C 4.971 13.295,5.156 13.660,5.508 13.867 C 5.673 13.964,5.743 13.980,6.000 13.980 C 6.249 13.980,6.328 13.963,6.467 13.880 C 6.736 13.719,7.370 13.141,7.712 12.746 C 8.848 11.433,9.143 10.393,9.004 8.194 C 8.976 7.755,8.958 7.664,8.868 7.510 C 8.628 7.101,8.147 6.915,7.695 7.057 M15.643 10.067 C 15.237 10.215,15.327 10.038,13.130 14.986 C 12.024 17.475,11.093 19.588,11.060 19.681 C 10.934 20.036,11.027 20.429,11.299 20.701 C 11.689 21.091,12.311 21.092,12.698 20.704 C 12.825 20.575,12.934 20.374,13.200 19.770 L 13.540 19.000 16.000 19.000 L 18.460 19.000 18.800 19.770 C 19.066 20.374,19.175 20.575,19.302 20.704 C 19.689 21.092,20.311 21.091,20.701 20.701 C 20.973 20.429,21.066 20.036,20.940 19.681 C 20.907 19.588,19.976 17.475,18.870 14.986 C 16.720 10.147,16.786 10.277,16.419 10.101 C 16.209 10.000,15.866 9.985,15.643 10.067 M16.782 15.225 C 17.199 16.163,17.546 16.946,17.553 16.965 C 17.561 16.985,16.871 17.000,16.000 17.000 C 15.129 17.000,14.439 16.985,14.447 16.965 C 14.543 16.715,15.983 13.520,16.000 13.520 C 16.013 13.520,16.365 14.287,16.782 15.225 " stroke="none" fill-rule="evenodd" fill="black"></path></svg>