<svg xmlns="http://www.w3.org/2000/svg" width="24" height="24" viewBox="0 0 24 24" fill="none" stroke="currentColor" stroke-width="2" stroke-linecap="round" stroke-linejoin="round"><path d="M8.695 2.057 C 8.466 2.129,8.256 2.299,8.128 2.516 C 8.025 2.692,8.019 2.728,8.007 3.350 L 7.993 4.000 5.943 4.000 C 3.718 4.000,3.666 4.004,3.382 4.221 C 3.302 4.282,3.187 4.415,3.128 4.516 C 3.037 4.672,3.020 4.746,3.020 5.000 C 3.020 5.256,3.036 5.328,3.131 5.489 C 3.256 5.702,3.449 5.864,3.670 5.943 C 3.788 5.985,4.265 5.997,5.889 5.998 L 7.958 6.000 7.937 6.190 C 7.844 6.998,7.649 7.893,7.416 8.571 C 7.286 8.952,6.790 10.002,6.658 10.178 C 6.601 10.254,6.596 10.252,6.480 10.118 C 6.328 9.942,6.126 9.599,6.076 9.431 C 6.054 9.359,6.020 9.159,6.000 8.986 C 5.955 8.611,5.837 8.384,5.595 8.205 C 4.969 7.745,4.081 8.144,4.011 8.916 C 3.970 9.372,4.122 10.049,4.380 10.560 C 4.530 10.857,4.691 11.091,4.954 11.395 C 5.163 11.636,5.171 11.653,5.100 11.705 C 4.968 11.801,4.603 11.920,4.307 11.963 C 3.697 12.050,3.578 12.081,3.420 12.195 C 2.835 12.615,2.879 13.498,3.504 13.864 C 3.745 14.006,4.151 14.034,4.661 13.946 C 5.450 13.809,6.055 13.533,6.863 12.941 C 6.900 12.915,7.006 12.944,7.208 13.036 C 7.630 13.228,8.566 13.544,9.058 13.660 C 9.847 13.847,11.014 14.000,11.640 13.999 C 12.242 13.999,12.688 13.573,12.688 13.000 C 12.688 12.732,12.601 12.507,12.428 12.326 C 12.200 12.088,12.037 12.032,11.461 11.994 C 10.813 11.952,10.190 11.865,9.626 11.738 C 9.149 11.631,8.320 11.363,8.320 11.316 C 8.320 11.300,8.404 11.146,8.506 10.973 C 9.240 9.739,9.788 7.951,9.941 6.290 L 9.968 6.000 10.574 5.998 C 10.975 5.997,11.231 5.978,11.330 5.943 C 11.551 5.864,11.744 5.702,11.869 5.489 C 11.964 5.328,11.980 5.256,11.980 5.000 C 11.980 4.746,11.963 4.672,11.872 4.516 C 11.634 4.111,11.352 4.000,10.557 4.000 L 10.007 4.000 9.993 3.350 C 9.981 2.728,9.975 2.692,9.872 2.516 C 9.628 2.101,9.150 1.915,8.695 2.057 M15.643 10.067 C 15.237 10.215,15.327 10.038,13.130 14.986 C 12.024 17.475,11.093 19.588,11.060 19.681 C 10.934 20.036,11.027 20.429,11.299 20.701 C 11.689 21.091,12.311 21.092,12.698 20.704 C 12.825 20.575,12.934 20.374,13.200 19.770 L 13.540 19.000 16.000 19.000 L 18.460 19.000 18.800 19.770 C 19.066 20.374,19.175 20.575,19.302 20.704 C 19.689 21.092,20.311 21.091,20.701 20.701 C 20.973 20.429,21.066 20.036,20.940 19.681 C 20.907 19.588,19.976 17.475,18.870 14.986 C 16.720 10.147,16.786 10.277,16.419 10.101 C 16.209 10.000,15.866 9.985,15.643 10.067 M16.782 15.225 C 17.199 16.163,17.546 16.946,17.553 16.965 C 17.561 16.985,16.871 17.000,16.000 17.000 C 15.129 17.000,14.439 16.985,14.447 16.965 C 14.543 16.715,15.983 13.520,16.000 13.520 C 16.013 13.520,16.365 14.287,16.782 15.225 " stroke="none" fill-rule="evenodd" fill="black"></path></svg>