<svg xmlns="http://www.w3.org/2000/svg" width="24" height="24" viewBox="0 0 24 24" fill="none" stroke="currentColor" stroke-width="2" stroke-linecap="round" stroke-linejoin="round"><path d="M6.695 3.057 C 6.350 3.165,6.073 3.481,6.017 3.830 L 5.990 4.000 4.941 4.000 C 3.797 4.000,3.643 4.022,3.382 4.221 C 3.302 4.282,3.187 4.415,3.128 4.516 C 3.037 4.672,3.020 4.746,3.020 5.000 C 3.020 5.256,3.036 5.328,3.131 5.489 C 3.192 5.592,3.304 5.725,3.381 5.783 C 3.643 5.983,3.738 5.996,4.910 5.998 L 6.000 6.000 6.000 6.539 L 6.000 7.078 5.890 7.101 C 5.557 7.170,4.981 7.386,4.708 7.544 C 3.662 8.151,3.085 9.227,3.015 10.700 C 2.995 11.119,3.003 11.275,3.058 11.500 C 3.274 12.380,3.953 13.180,4.860 13.624 C 5.407 13.891,5.756 13.971,6.400 13.975 C 7.028 13.979,7.262 13.928,7.820 13.664 C 9.013 13.099,10.124 11.814,10.641 10.402 L 10.750 10.104 10.855 10.309 C 10.990 10.576,11.021 10.861,10.962 11.303 C 10.853 12.127,10.503 12.610,9.715 13.025 C 9.335 13.225,9.153 13.406,9.062 13.671 C 8.883 14.197,9.160 14.767,9.678 14.939 C 9.974 15.038,10.207 15.005,10.620 14.807 C 11.271 14.494,11.904 13.967,12.276 13.426 C 12.762 12.719,13.039 11.659,12.987 10.700 C 12.957 10.156,12.888 9.886,12.651 9.400 C 12.487 9.064,12.416 8.971,12.041 8.600 C 11.555 8.120,11.199 7.888,10.534 7.619 C 9.831 7.335,9.160 7.174,8.190 7.058 L 8.000 7.035 8.000 6.518 L 8.000 6.000 9.590 5.998 C 11.300 5.996,11.346 5.991,11.619 5.783 C 11.696 5.725,11.808 5.592,11.869 5.489 C 11.964 5.328,11.980 5.256,11.980 5.000 C 11.980 4.746,11.963 4.672,11.872 4.516 C 11.813 4.415,11.698 4.282,11.618 4.221 C 11.342 4.011,11.241 4.000,9.559 4.000 L 8.010 4.000 7.983 3.830 C 7.926 3.473,7.648 3.163,7.290 3.055 C 7.068 2.988,6.913 2.989,6.695 3.057 M8.610 9.135 C 8.759 9.164,8.890 9.197,8.901 9.208 C 8.942 9.249,8.745 9.793,8.556 10.160 C 8.355 10.550,8.220 10.754,8.187 10.719 C 8.170 10.702,8.116 10.120,8.059 9.350 L 8.039 9.080 8.190 9.081 C 8.272 9.082,8.462 9.106,8.610 9.135 M6.078 9.780 C 6.132 10.532,6.213 11.123,6.326 11.613 C 6.371 11.807,6.397 11.976,6.384 11.989 C 6.345 12.028,5.914 11.917,5.720 11.819 C 5.468 11.690,5.218 11.465,5.094 11.254 C 4.995 11.084,4.990 11.055,5.016 10.721 C 5.077 9.910,5.310 9.472,5.815 9.220 C 5.925 9.165,6.018 9.125,6.023 9.130 C 6.027 9.136,6.052 9.428,6.078 9.780 M15.643 10.067 C 15.237 10.215,15.327 10.038,13.130 14.986 C 12.024 17.475,11.093 19.588,11.060 19.681 C 10.934 20.036,11.027 20.429,11.299 20.701 C 11.689 21.091,12.311 21.092,12.698 20.704 C 12.825 20.575,12.934 20.374,13.200 19.770 L 13.540 19.000 16.000 19.000 L 18.460 19.000 18.800 19.770 C 19.066 20.374,19.175 20.575,19.302 20.704 C 19.689 21.092,20.311 21.091,20.701 20.701 C 20.973 20.429,21.066 20.036,20.940 19.681 C 20.907 19.588,19.976 17.475,18.870 14.986 C 16.720 10.147,16.786 10.277,16.419 10.101 C 16.209 10.000,15.866 9.985,15.643 10.067 M16.782 15.225 C 17.199 16.163,17.546 16.946,17.553 16.965 C 17.561 16.985,16.871 17.000,16.000 17.000 C 15.129 17.000,14.439 16.985,14.447 16.965 C 14.543 16.715,15.983 13.520,16.000 13.520 C 16.013 13.520,16.365 14.287,16.782 15.225 " stroke="none" fill-rule="evenodd" fill="black"></path></svg>