<svg xmlns="http://www.w3.org/2000/svg" width="24" height="24" viewBox="0 0 24 24" fill="none" stroke="currentColor" stroke-width="2" stroke-linecap="round" stroke-linejoin="round"><path d="M2.670 2.061 C 2.448 2.142,2.250 2.309,2.128 2.516 C 2.036 2.672,2.020 2.745,2.021 3.000 C 2.021 3.213,2.043 3.341,2.095 3.440 C 2.136 3.517,2.556 3.969,3.029 4.445 L 3.888 5.311 3.640 5.605 C 1.946 7.620,1.537 10.309,2.568 12.666 L 2.728 13.033 2.568 13.246 C 2.364 13.520,2.231 13.787,2.114 14.161 C 1.979 14.593,1.979 15.406,2.114 15.840 C 2.367 16.652,2.938 17.326,3.682 17.692 L 4.024 17.860 4.091 18.362 C 4.173 18.977,4.352 19.700,4.561 20.263 C 4.793 20.888,5.114 21.512,5.303 21.703 C 5.479 21.881,5.758 22.000,6.000 22.000 C 6.407 22.000,6.811 21.708,6.940 21.321 C 7.047 20.998,7.007 20.772,6.749 20.257 C 6.497 19.752,6.357 19.391,6.241 18.940 C 6.158 18.616,6.022 17.840,6.047 17.825 C 6.054 17.821,6.158 17.773,6.278 17.718 C 6.505 17.616,6.842 17.381,7.076 17.161 L 7.212 17.034 7.616 17.194 C 10.062 18.165,13.054 18.263,15.618 17.456 L 15.935 17.356 18.178 19.594 C 19.411 20.825,20.483 21.865,20.560 21.905 C 20.659 21.957,20.788 21.979,21.000 21.979 C 21.258 21.980,21.327 21.964,21.492 21.867 C 21.968 21.587,22.139 20.967,21.865 20.508 C 21.810 20.416,17.665 16.243,12.653 11.235 C 4.231 2.820,3.525 2.125,3.343 2.065 C 3.107 1.987,2.874 1.986,2.670 2.061 M10.980 2.038 C 10.026 2.125,8.996 2.336,8.140 2.622 C 7.258 2.916,7.030 3.070,6.876 3.478 C 6.685 3.985,6.960 4.557,7.484 4.742 C 7.735 4.830,7.961 4.813,8.327 4.676 C 9.783 4.135,11.169 3.931,12.670 4.036 C 14.300 4.150,15.687 4.560,16.928 5.293 C 19.385 6.744,20.492 9.110,19.775 11.380 C 19.524 12.176,19.086 12.863,18.341 13.633 C 18.072 13.912,17.818 14.203,17.778 14.280 C 17.673 14.482,17.679 14.890,17.791 15.105 C 18.054 15.613,18.663 15.814,19.164 15.558 C 19.394 15.441,20.205 14.618,20.566 14.135 C 22.724 11.254,22.419 7.607,19.802 4.999 C 18.232 3.434,16.050 2.424,13.540 2.098 C 12.980 2.026,11.500 1.991,10.980 2.038 M9.835 11.255 L 14.330 15.750 13.975 15.815 C 13.780 15.850,13.476 15.901,13.300 15.928 C 12.869 15.994,11.162 15.995,10.700 15.929 C 9.821 15.804,8.912 15.572,8.296 15.316 L 8.012 15.198 7.988 14.809 C 7.925 13.785,7.352 12.880,6.441 12.368 C 5.999 12.120,5.623 12.029,5.002 12.021 L 4.464 12.013 4.355 11.755 C 3.853 10.570,3.901 9.195,4.485 7.970 C 4.705 7.508,5.220 6.760,5.318 6.760 C 5.330 6.760,7.363 8.783,9.835 11.255 M5.310 14.061 C 5.688 14.173,6.000 14.598,6.000 15.001 C 6.000 15.331,5.784 15.696,5.484 15.872 C 5.328 15.964,5.254 15.980,4.997 15.980 C 4.729 15.980,4.671 15.966,4.502 15.860 C 3.875 15.468,3.842 14.581,4.439 14.185 C 4.721 13.999,4.978 13.962,5.310 14.061 " stroke="none" fill-rule="evenodd" fill="black"></path></svg>