<svg xmlns="http://www.w3.org/2000/svg" width="24" height="24" viewBox="0 0 24 24" fill="none" stroke="currentColor" stroke-width="2" stroke-linecap="round" stroke-linejoin="round"><path d="M9.499 3.043 C 8.388 3.232,7.470 4.041,7.118 5.140 C 7.042 5.379,7.026 5.536,7.010 6.205 L 6.991 6.991 6.225 7.010 C 5.567 7.027,5.415 7.043,5.139 7.126 C 4.181 7.415,3.420 8.179,3.114 9.160 L 3.020 9.460 3.020 14.000 L 3.020 18.540 3.114 18.840 C 3.422 19.827,4.173 20.578,5.160 20.886 L 5.460 20.980 10.000 20.980 L 14.540 20.980 14.840 20.886 C 15.818 20.581,16.570 19.834,16.882 18.860 C 16.958 18.621,16.974 18.464,16.990 17.795 L 17.009 17.009 17.795 16.990 C 18.464 16.974,18.621 16.958,18.860 16.882 C 19.834 16.570,20.581 15.818,20.886 14.840 L 20.980 14.540 20.980 10.000 L 20.980 5.460 20.886 5.160 C 20.581 4.182,19.832 3.428,18.861 3.121 L 18.540 3.020 14.120 3.014 C 11.689 3.011,9.609 3.024,9.499 3.043 M18.310 5.061 C 18.589 5.144,18.856 5.411,18.939 5.690 C 18.992 5.867,19.000 6.441,19.000 10.001 C 19.000 14.458,19.007 14.319,18.779 14.618 C 18.718 14.698,18.585 14.813,18.484 14.872 L 18.300 14.980 17.020 15.001 C 16.146 15.016,15.704 15.038,15.627 15.071 C 15.431 15.156,15.239 15.327,15.128 15.516 L 15.020 15.700 14.999 16.980 C 14.984 17.854,14.962 18.296,14.929 18.373 C 14.844 18.569,14.673 18.761,14.484 18.872 L 14.300 18.980 10.000 18.980 L 5.700 18.980 5.516 18.872 C 5.415 18.813,5.284 18.700,5.225 18.623 C 4.990 18.315,5.000 18.515,5.000 14.022 C 5.000 9.395,4.986 9.628,5.283 9.321 C 5.571 9.025,5.582 9.023,7.020 9.000 L 8.300 8.980 8.489 8.869 C 8.592 8.808,8.725 8.696,8.783 8.619 C 8.984 8.356,8.996 8.266,8.998 7.037 C 9.000 5.693,9.019 5.587,9.304 5.303 C 9.618 4.989,9.346 5.006,13.983 5.003 C 17.563 5.000,18.132 5.008,18.310 5.061 " stroke="none" fill-rule="evenodd" fill="black"></path></svg>