<svg xmlns="http://www.w3.org/2000/svg" width="24" height="24" viewBox="0 0 24 24" fill="none" stroke="currentColor" stroke-width="2" stroke-linecap="round" stroke-linejoin="round"><path d="M2.670 2.061 C 2.448 2.142,2.250 2.309,2.128 2.516 C 2.037 2.672,2.020 2.746,2.020 3.000 C 2.020 3.254,2.036 3.327,2.127 3.480 C 2.187 3.579,2.991 4.415,3.915 5.337 L 5.595 7.014 5.236 7.105 C 4.241 7.357,3.432 8.140,3.114 9.160 L 3.020 9.460 3.020 14.000 L 3.020 18.540 3.114 18.840 C 3.422 19.827,4.173 20.578,5.160 20.886 L 5.460 20.980 10.000 20.980 L 14.540 20.980 14.840 20.886 C 15.817 20.581,16.584 19.820,16.876 18.866 C 16.922 18.715,16.960 18.544,16.960 18.486 C 16.960 18.398,17.233 18.653,18.690 20.106 C 19.642 21.055,20.483 21.865,20.560 21.905 C 20.659 21.957,20.788 21.979,21.000 21.979 C 21.258 21.980,21.327 21.964,21.492 21.867 C 21.968 21.587,22.139 20.967,21.865 20.508 C 21.810 20.416,17.665 16.243,12.653 11.235 C 4.231 2.820,3.525 2.125,3.343 2.065 C 3.107 1.987,2.874 1.986,2.670 2.061 M9.513 3.040 C 9.056 3.119,8.548 3.329,8.241 3.567 C 8.000 3.753,7.743 4.032,7.675 4.180 C 7.578 4.391,7.578 4.769,7.675 4.981 C 7.824 5.310,8.190 5.561,8.533 5.571 C 8.829 5.580,8.992 5.522,9.266 5.312 C 9.412 5.200,9.613 5.084,9.712 5.054 C 9.859 5.010,10.657 5.000,13.999 5.000 C 18.641 5.000,18.377 4.983,18.697 5.303 C 19.017 5.623,19.000 5.359,19.000 10.001 C 19.000 14.598,19.017 14.325,18.706 14.703 C 18.303 15.192,18.311 15.750,18.726 16.148 C 19.001 16.411,19.449 16.488,19.800 16.333 C 20.214 16.149,20.673 15.518,20.886 14.839 L 20.980 14.540 20.980 10.000 L 20.980 5.460 20.886 5.160 C 20.581 4.182,19.832 3.428,18.861 3.121 L 18.540 3.020 14.120 3.014 C 11.689 3.011,9.616 3.023,9.513 3.040 M7.009 11.790 L 7.021 14.580 7.115 14.860 C 7.441 15.838,8.162 16.559,9.140 16.885 L 9.420 16.979 12.210 16.991 L 15.000 17.004 15.000 17.555 C 15.000 18.352,14.890 18.633,14.484 18.872 L 14.300 18.980 10.000 18.980 L 5.700 18.980 5.516 18.872 C 5.415 18.813,5.284 18.700,5.225 18.623 C 4.990 18.315,5.000 18.515,5.000 14.022 C 5.000 9.356,4.983 9.624,5.304 9.303 C 5.554 9.053,5.728 9.006,6.428 9.003 L 6.996 9.000 7.009 11.790 M13.130 14.992 C 12.894 14.998,12.025 14.998,11.200 14.992 L 9.700 14.980 9.516 14.872 C 9.415 14.813,9.282 14.698,9.221 14.618 C 9.007 14.337,9.000 14.265,9.000 12.264 L 9.000 10.420 11.280 12.700 L 13.561 14.980 13.130 14.992 " stroke="none" fill-rule="evenodd" fill="black"></path></svg>