<svg xmlns="http://www.w3.org/2000/svg" width="24" height="24" viewBox="0 0 24 24" fill="none" stroke="currentColor" stroke-width="2" stroke-linecap="round" stroke-linejoin="round"><path d="M3.695 3.057 C 3.466 3.129,3.256 3.299,3.128 3.516 L 3.020 3.700 3.020 12.003 L 3.020 20.306 3.141 20.503 C 3.543 21.156,4.457 21.156,4.859 20.503 L 4.980 20.306 4.980 12.003 L 4.980 3.700 4.872 3.516 C 4.628 3.101,4.150 2.915,3.695 3.057 M9.499 8.043 C 8.379 8.234,7.461 9.048,7.114 10.160 C 7.022 10.453,7.020 10.497,7.020 12.000 C 7.020 13.503,7.022 13.547,7.114 13.840 C 7.422 14.827,8.173 15.578,9.160 15.886 L 9.460 15.980 14.020 15.980 L 18.580 15.980 18.887 15.875 C 19.861 15.543,20.585 14.807,20.886 13.840 C 20.978 13.547,20.980 13.503,20.980 12.000 C 20.980 10.497,20.978 10.453,20.886 10.160 C 20.581 9.182,19.832 8.428,18.861 8.121 L 18.540 8.020 14.120 8.014 C 11.689 8.011,9.609 8.024,9.499 8.043 M18.310 10.061 C 18.589 10.144,18.856 10.411,18.939 10.690 C 19.023 10.972,19.028 13.015,18.945 13.290 C 18.872 13.533,18.707 13.740,18.484 13.872 L 18.300 13.980 14.000 13.980 L 9.700 13.980 9.516 13.872 C 9.303 13.747,9.141 13.550,9.058 13.316 C 8.972 13.071,8.974 10.982,9.061 10.690 C 9.140 10.421,9.412 10.143,9.673 10.063 C 9.962 9.974,18.011 9.972,18.310 10.061 " stroke="none" fill-rule="evenodd" fill="black"></path></svg>