<svg xmlns="http://www.w3.org/2000/svg" width="24" height="24" viewBox="0 0 24 24" fill="none" stroke="currentColor" stroke-width="2" stroke-linecap="round" stroke-linejoin="round"><path d="M5.499 3.043 C 4.380 3.233,3.461 4.048,3.114 5.160 L 3.020 5.460 3.020 12.000 L 3.020 18.540 3.114 18.840 C 3.422 19.827,4.173 20.578,5.160 20.886 L 5.460 20.980 12.000 20.980 L 18.540 20.980 18.840 20.886 C 19.827 20.578,20.578 19.827,20.886 18.840 L 20.980 18.540 20.980 12.000 L 20.980 5.460 20.886 5.160 C 20.581 4.182,19.832 3.428,18.861 3.121 L 18.540 3.020 12.120 3.014 C 8.589 3.011,5.609 3.024,5.499 3.043 M14.000 12.001 L 14.000 19.001 9.850 18.991 L 5.700 18.980 5.516 18.872 C 5.415 18.813,5.284 18.700,5.225 18.623 C 4.987 18.311,5.000 18.701,5.000 12.022 C 5.000 5.123,4.977 5.629,5.304 5.303 C 5.618 4.989,5.352 5.006,9.930 5.003 L 14.000 5.000 14.000 12.001 M18.310 5.061 C 18.589 5.144,18.856 5.411,18.939 5.690 C 18.992 5.869,19.000 6.651,19.000 12.001 C 19.000 17.059,18.991 18.139,18.945 18.290 C 18.872 18.533,18.707 18.740,18.484 18.872 L 18.300 18.980 17.150 18.992 L 16.000 19.005 16.000 12.002 L 16.000 5.000 17.053 5.000 C 17.879 5.000,18.150 5.013,18.310 5.061 M8.670 9.061 C 8.448 9.142,8.250 9.309,8.128 9.516 C 8.036 9.672,8.020 9.745,8.021 10.000 C 8.021 10.213,8.043 10.340,8.096 10.440 C 8.136 10.517,8.486 10.900,8.873 11.290 L 9.577 12.000 8.873 12.710 C 8.486 13.101,8.139 13.481,8.101 13.555 C 7.872 14.008,8.056 14.601,8.508 14.867 C 8.673 14.964,8.742 14.980,9.000 14.979 C 9.213 14.979,9.341 14.957,9.440 14.905 C 9.633 14.803,11.740 12.703,11.873 12.480 C 11.964 12.328,11.980 12.254,11.980 12.000 C 11.980 11.747,11.963 11.672,11.873 11.520 C 11.815 11.421,11.266 10.843,10.653 10.236 C 9.680 9.271,9.515 9.124,9.343 9.066 C 9.108 8.987,8.875 8.985,8.670 9.061 " stroke="none" fill-rule="evenodd" fill="black"></path></svg>