<svg xmlns="http://www.w3.org/2000/svg" width="24" height="24" viewBox="0 0 24 24" fill="none" stroke="currentColor" stroke-width="2" stroke-linecap="round" stroke-linejoin="round"><path d="M3.695 3.057 C 3.466 3.129,3.256 3.299,3.128 3.516 C 3.037 3.672,3.020 3.746,3.020 4.000 C 3.020 4.256,3.036 4.328,3.131 4.489 C 3.256 4.702,3.449 4.864,3.670 4.943 C 3.891 5.022,10.109 5.022,10.330 4.943 C 10.551 4.864,10.744 4.702,10.869 4.489 C 10.964 4.328,10.980 4.256,10.980 4.000 C 10.980 3.746,10.963 3.672,10.872 3.516 C 10.740 3.293,10.533 3.128,10.290 3.055 C 10.030 2.977,3.945 2.979,3.695 3.057 M13.695 3.057 C 13.466 3.129,13.256 3.299,13.128 3.516 C 13.037 3.672,13.020 3.746,13.020 4.000 C 13.020 4.256,13.036 4.328,13.131 4.489 C 13.256 4.702,13.449 4.864,13.670 4.943 C 13.891 5.022,20.109 5.022,20.330 4.943 C 20.551 4.864,20.744 4.702,20.869 4.489 C 20.964 4.328,20.980 4.256,20.980 4.000 C 20.980 3.746,20.963 3.672,20.872 3.516 C 20.740 3.293,20.533 3.128,20.290 3.055 C 20.030 2.977,13.945 2.979,13.695 3.057 M5.499 7.042 C 4.372 7.239,3.461 8.048,3.114 9.160 L 3.020 9.460 3.020 14.000 L 3.020 18.540 3.114 18.840 C 3.422 19.827,4.173 20.578,5.160 20.886 C 5.453 20.978,5.497 20.980,7.000 20.980 C 8.503 20.980,8.547 20.978,8.840 20.886 C 9.827 20.578,10.578 19.827,10.886 18.840 L 10.980 18.540 10.980 14.000 L 10.980 9.460 10.886 9.160 C 10.581 8.181,9.825 7.421,8.861 7.124 C 8.548 7.027,8.504 7.024,7.120 7.015 C 6.339 7.010,5.609 7.022,5.499 7.042 M15.499 7.042 C 14.372 7.239,13.461 8.048,13.114 9.160 C 13.022 9.453,13.020 9.497,13.020 11.000 C 13.020 12.503,13.022 12.547,13.114 12.840 C 13.422 13.827,14.173 14.578,15.160 14.886 C 15.453 14.978,15.497 14.980,17.000 14.980 C 18.503 14.980,18.547 14.978,18.840 14.886 C 19.240 14.762,19.609 14.563,19.891 14.321 C 20.391 13.893,20.702 13.430,20.886 12.840 C 20.978 12.547,20.980 12.503,20.980 11.000 C 20.980 9.497,20.978 9.453,20.886 9.160 C 20.581 8.181,19.825 7.421,18.861 7.124 C 18.548 7.027,18.504 7.024,17.120 7.015 C 16.339 7.010,15.609 7.022,15.499 7.042 M8.310 9.061 C 8.589 9.144,8.856 9.411,8.939 9.690 C 8.992 9.867,9.000 10.441,9.000 14.001 C 9.000 18.458,9.007 18.319,8.779 18.618 C 8.718 18.698,8.585 18.813,8.484 18.872 L 8.300 18.980 7.000 18.980 L 5.700 18.980 5.516 18.872 C 5.303 18.747,5.141 18.550,5.058 18.316 C 4.969 18.062,4.971 9.992,5.061 9.690 C 5.140 9.421,5.412 9.143,5.673 9.063 C 5.952 8.977,8.023 8.975,8.310 9.061 M18.310 9.061 C 18.589 9.144,18.856 9.411,18.939 9.690 C 19.023 9.972,19.028 12.015,18.945 12.290 C 18.872 12.533,18.707 12.740,18.484 12.872 L 18.300 12.980 17.000 12.980 L 15.700 12.980 15.516 12.872 C 15.303 12.747,15.141 12.550,15.058 12.316 C 14.972 12.071,14.974 9.982,15.061 9.690 C 15.140 9.421,15.412 9.143,15.673 9.063 C 15.952 8.977,18.023 8.975,18.310 9.061 " stroke="none" fill-rule="evenodd" fill="black"></path></svg>