<svg xmlns="http://www.w3.org/2000/svg" width="24" height="24" viewBox="0 0 24 24" fill="none" stroke="currentColor" stroke-width="2" stroke-linecap="round" stroke-linejoin="round"><path d="M5.499 3.043 C 4.380 3.233,3.461 4.048,3.114 5.160 L 3.020 5.460 3.020 12.000 L 3.020 18.540 3.114 18.840 C 3.422 19.827,4.173 20.578,5.160 20.886 L 5.460 20.980 12.000 20.980 L 18.540 20.980 18.840 20.886 C 19.827 20.578,20.578 19.827,20.886 18.840 L 20.980 18.540 20.980 12.000 L 20.980 5.460 20.886 5.160 C 20.581 4.182,19.832 3.428,18.861 3.121 L 18.540 3.020 12.120 3.014 C 8.589 3.011,5.609 3.024,5.499 3.043 M18.310 5.061 C 18.452 5.103,18.571 5.178,18.697 5.303 C 18.978 5.584,19.000 5.703,19.000 6.947 L 19.000 8.000 12.000 8.000 L 5.000 8.000 5.000 6.947 C 5.000 5.702,5.022 5.585,5.304 5.303 C 5.623 4.983,5.120 5.006,11.983 5.003 C 17.353 5.000,18.131 5.007,18.310 5.061 M19.000 14.054 C 19.000 18.453,19.006 18.320,18.779 18.618 C 18.718 18.698,18.585 18.813,18.484 18.872 L 18.300 18.980 12.000 18.980 L 5.700 18.980 5.516 18.872 C 5.415 18.813,5.284 18.700,5.225 18.623 C 4.990 18.315,5.000 18.511,5.000 14.075 L 5.000 10.000 12.000 10.000 L 19.000 10.000 19.000 14.054 M9.670 13.061 C 9.448 13.142,9.250 13.309,9.128 13.516 C 9.036 13.672,9.020 13.745,9.021 14.000 C 9.021 14.213,9.043 14.341,9.095 14.440 C 9.197 14.633,11.297 16.740,11.520 16.873 C 11.672 16.964,11.746 16.980,12.000 16.980 C 12.254 16.980,12.328 16.964,12.480 16.873 C 12.703 16.740,14.803 14.633,14.905 14.440 C 14.957 14.341,14.979 14.213,14.979 14.000 C 14.980 13.745,14.964 13.672,14.872 13.516 C 14.617 13.083,14.135 12.905,13.657 13.067 C 13.491 13.123,13.345 13.247,12.730 13.854 L 12.000 14.574 11.270 13.854 C 10.655 13.247,10.509 13.123,10.343 13.067 C 10.108 12.987,9.876 12.985,9.670 13.061 " stroke="none" fill-rule="evenodd" fill="black"></path></svg>