<svg xmlns="http://www.w3.org/2000/svg" width="24" height="24" viewBox="0 0 24 24" fill="none" stroke="currentColor" stroke-width="2" stroke-linecap="round" stroke-linejoin="round"><path d="M5.499 3.043 C 4.380 3.233,3.461 4.048,3.114 5.160 L 3.020 5.460 3.020 12.000 L 3.020 18.540 3.114 18.840 C 3.422 19.827,4.173 20.578,5.160 20.886 L 5.460 20.980 12.000 20.980 L 18.540 20.980 18.840 20.886 C 19.827 20.578,20.578 19.827,20.886 18.840 L 20.980 18.540 20.980 12.000 L 20.980 5.460 20.886 5.160 C 20.581 4.182,19.832 3.428,18.861 3.121 L 18.540 3.020 12.120 3.014 C 8.589 3.011,5.609 3.024,5.499 3.043 M10.004 8.136 L 10.788 11.273 7.964 11.978 C 6.411 12.366,5.109 12.693,5.070 12.704 C 5.004 12.724,5.000 12.544,5.000 9.310 C 5.000 5.439,4.986 5.620,5.304 5.303 C 5.598 5.009,5.617 5.006,7.540 5.003 L 9.220 5.000 10.004 8.136 M18.310 5.061 C 18.589 5.144,18.856 5.411,18.939 5.690 C 18.992 5.869,19.000 6.651,19.000 12.001 C 19.000 17.059,18.991 18.139,18.945 18.290 C 18.872 18.533,18.707 18.740,18.484 18.872 L 18.300 18.980 16.540 18.991 L 14.780 19.003 13.044 12.051 C 12.089 8.228,11.299 5.077,11.289 5.050 C 11.275 5.010,11.972 5.000,14.688 5.000 C 17.631 5.000,18.134 5.008,18.310 5.061 M11.979 16.041 C 12.366 17.591,12.693 18.892,12.705 18.931 C 12.725 18.998,12.559 19.001,9.213 18.991 L 5.700 18.980 5.516 18.872 C 5.415 18.813,5.284 18.700,5.225 18.623 C 5.004 18.334,5.000 18.293,5.000 16.465 L 5.000 14.779 8.130 13.996 C 9.852 13.565,11.263 13.214,11.268 13.217 C 11.272 13.220,11.592 14.490,11.979 16.041 " stroke="none" fill-rule="evenodd" fill="black"></path></svg>