<svg xmlns="http://www.w3.org/2000/svg" width="24" height="24" viewBox="0 0 24 24" fill="none" stroke="currentColor" stroke-width="2" stroke-linecap="round" stroke-linejoin="round"><path d="M5.499 3.043 C 4.380 3.233,3.461 4.048,3.114 5.160 L 3.020 5.460 3.020 12.000 L 3.020 18.540 3.114 18.840 C 3.422 19.827,4.173 20.578,5.160 20.886 L 5.460 20.980 12.000 20.980 L 18.540 20.980 18.840 20.886 C 19.827 20.578,20.578 19.827,20.886 18.840 L 20.980 18.540 20.980 12.000 L 20.980 5.460 20.886 5.160 C 20.581 4.182,19.832 3.428,18.861 3.121 L 18.540 3.020 12.120 3.014 C 8.589 3.011,5.609 3.024,5.499 3.043 M14.018 5.179 C 14.054 5.422,14.258 5.712,14.497 5.859 C 14.671 5.966,14.729 5.980,15.000 5.980 C 15.271 5.980,15.329 5.966,15.503 5.859 C 15.742 5.712,15.946 5.422,15.982 5.179 L 16.009 5.000 17.057 5.000 C 18.297 5.000,18.416 5.022,18.697 5.303 C 19.023 5.629,19.000 5.126,19.000 12.001 C 19.000 17.059,18.991 18.139,18.945 18.290 C 18.872 18.533,18.707 18.740,18.484 18.872 L 18.300 18.980 17.155 18.992 L 16.011 19.004 15.983 18.832 C 15.896 18.285,15.335 17.912,14.786 18.035 C 14.392 18.123,14.078 18.448,14.017 18.831 L 13.990 19.001 9.845 18.991 L 5.700 18.980 5.516 18.872 C 5.415 18.813,5.284 18.700,5.225 18.623 C 4.987 18.311,5.000 18.701,5.000 12.022 C 5.000 5.123,4.977 5.629,5.304 5.303 C 5.618 4.989,5.353 5.006,9.925 5.003 L 13.991 5.000 14.018 5.179 M14.695 8.057 C 14.466 8.129,14.256 8.299,14.128 8.516 C 14.020 8.699,14.020 8.703,14.020 9.503 L 14.020 10.306 14.141 10.503 C 14.543 11.156,15.457 11.156,15.859 10.503 L 15.980 10.306 15.980 9.503 C 15.980 8.703,15.980 8.699,15.872 8.516 C 15.628 8.101,15.150 7.915,14.695 8.057 M14.695 13.057 C 14.466 13.129,14.256 13.299,14.128 13.516 C 14.020 13.699,14.020 13.703,14.020 14.503 L 14.020 15.306 14.141 15.503 C 14.543 16.156,15.457 16.156,15.859 15.503 L 15.980 15.306 15.980 14.503 C 15.980 13.703,15.980 13.699,15.872 13.516 C 15.628 13.101,15.150 12.915,14.695 13.057 " stroke="none" fill-rule="evenodd" fill="black"></path></svg>