<svg xmlns="http://www.w3.org/2000/svg" width="24" height="24" viewBox="0 0 24 24" fill="none" stroke="currentColor" stroke-width="2" stroke-linecap="round" stroke-linejoin="round"><path d="M5.499 3.043 C 4.380 3.233,3.461 4.048,3.114 5.160 L 3.020 5.460 3.020 12.000 L 3.020 18.540 3.114 18.840 C 3.422 19.827,4.173 20.578,5.160 20.886 L 5.460 20.980 12.000 20.980 L 18.540 20.980 18.840 20.886 C 19.827 20.578,20.578 19.827,20.886 18.840 L 20.980 18.540 20.980 12.000 L 20.980 5.460 20.886 5.160 C 20.581 4.182,19.832 3.428,18.861 3.121 L 18.540 3.020 12.120 3.014 C 8.589 3.011,5.609 3.024,5.499 3.043 M8.000 12.002 L 8.000 19.005 6.850 18.992 L 5.700 18.980 5.516 18.872 C 5.415 18.813,5.284 18.700,5.225 18.623 C 4.987 18.311,5.000 18.701,5.000 12.022 C 5.000 5.123,4.977 5.629,5.304 5.303 C 5.582 5.024,5.680 5.006,6.930 5.003 L 8.000 5.000 8.000 12.002 M18.310 5.061 C 18.589 5.144,18.856 5.411,18.939 5.690 C 18.992 5.869,19.000 6.651,19.000 12.001 C 19.000 17.059,18.991 18.139,18.945 18.290 C 18.872 18.533,18.707 18.740,18.484 18.872 L 18.300 18.980 14.150 18.991 L 10.000 19.001 10.000 12.001 L 10.000 5.000 14.053 5.000 C 17.564 5.000,18.133 5.008,18.310 5.061 M14.640 9.069 C 14.492 9.121,14.265 9.325,13.347 10.236 C 12.734 10.843,12.185 11.421,12.127 11.520 C 12.037 11.672,12.020 11.747,12.020 12.000 C 12.020 12.254,12.036 12.328,12.127 12.480 C 12.260 12.703,14.367 14.803,14.560 14.905 C 14.659 14.957,14.787 14.979,15.000 14.979 C 15.258 14.980,15.327 14.964,15.492 14.867 C 15.714 14.737,15.901 14.498,15.965 14.264 C 16.019 14.061,15.989 13.733,15.899 13.555 C 15.861 13.481,15.514 13.101,15.127 12.710 L 14.423 12.000 15.127 11.290 C 15.514 10.900,15.864 10.517,15.904 10.440 C 15.957 10.340,15.979 10.213,15.979 10.000 C 15.980 9.745,15.964 9.672,15.872 9.516 C 15.617 9.083,15.120 8.902,14.640 9.069 " stroke="none" fill-rule="evenodd" fill="black"></path></svg>