<svg xmlns="http://www.w3.org/2000/svg" width="24" height="24" viewBox="0 0 24 24" fill="none" stroke="currentColor" stroke-width="2" stroke-linecap="round" stroke-linejoin="round"><path d="M5.499 3.043 C 4.380 3.233,3.461 4.048,3.114 5.160 L 3.020 5.460 3.020 12.000 L 3.020 18.540 3.114 18.840 C 3.422 19.827,4.173 20.578,5.160 20.886 L 5.460 20.980 12.000 20.980 L 18.540 20.980 18.840 20.886 C 19.827 20.578,20.578 19.827,20.886 18.840 L 20.980 18.540 20.980 12.000 L 20.980 5.460 20.886 5.160 C 20.581 4.182,19.832 3.428,18.861 3.121 L 18.540 3.020 12.120 3.014 C 8.589 3.011,5.609 3.024,5.499 3.043 M14.000 12.001 L 14.000 19.001 9.850 18.991 L 5.700 18.980 5.516 18.872 C 5.415 18.813,5.284 18.700,5.225 18.623 C 4.987 18.311,5.000 18.701,5.000 12.022 C 5.000 5.123,4.977 5.629,5.304 5.303 C 5.618 4.989,5.352 5.006,9.930 5.003 L 14.000 5.000 14.000 12.001 M18.310 5.061 C 18.589 5.144,18.856 5.411,18.939 5.690 C 18.992 5.869,19.000 6.651,19.000 12.001 C 19.000 17.059,18.991 18.139,18.945 18.290 C 18.872 18.533,18.707 18.740,18.484 18.872 L 18.300 18.980 17.150 18.992 L 16.000 19.005 16.000 12.002 L 16.000 5.000 17.053 5.000 C 17.879 5.000,18.150 5.013,18.310 5.061 M9.640 9.069 C 9.492 9.121,9.265 9.325,8.347 10.236 C 7.734 10.843,7.185 11.421,7.127 11.520 C 7.037 11.672,7.020 11.747,7.020 12.000 C 7.020 12.254,7.036 12.328,7.127 12.480 C 7.260 12.703,9.367 14.803,9.560 14.905 C 9.659 14.957,9.787 14.979,10.000 14.979 C 10.258 14.980,10.327 14.964,10.492 14.867 C 10.714 14.737,10.901 14.498,10.965 14.264 C 11.019 14.061,10.989 13.733,10.899 13.555 C 10.861 13.481,10.514 13.101,10.127 12.710 L 9.423 12.000 10.127 11.290 C 10.514 10.900,10.864 10.517,10.904 10.440 C 10.957 10.340,10.979 10.213,10.979 10.000 C 10.980 9.745,10.964 9.672,10.872 9.516 C 10.617 9.083,10.120 8.902,9.640 9.069 " stroke="none" fill-rule="evenodd" fill="black"></path></svg>