<svg xmlns="http://www.w3.org/2000/svg" width="24" height="24" viewBox="0 0 24 24" fill="none" stroke="currentColor" stroke-width="2" stroke-linecap="round" stroke-linejoin="round"><path d="M5.499 3.043 C 4.380 3.233,3.461 4.048,3.114 5.160 L 3.020 5.460 3.020 12.000 L 3.020 18.540 3.114 18.840 C 3.422 19.827,4.173 20.578,5.160 20.886 L 5.460 20.980 12.000 20.980 L 18.540 20.980 18.840 20.886 C 19.827 20.578,20.578 19.827,20.886 18.840 L 20.980 18.540 20.980 12.000 L 20.980 5.460 20.886 5.160 C 20.581 4.182,19.832 3.428,18.861 3.121 L 18.540 3.020 12.120 3.014 C 8.589 3.011,5.609 3.024,5.499 3.043 M18.310 5.061 C 18.452 5.103,18.571 5.178,18.697 5.303 C 18.978 5.584,19.000 5.704,19.000 6.941 L 19.000 7.987 18.786 8.035 C 18.515 8.096,18.270 8.275,18.129 8.514 C 18.036 8.672,18.020 8.745,18.020 9.003 C 18.020 9.271,18.034 9.329,18.141 9.503 C 18.288 9.742,18.578 9.946,18.821 9.982 L 19.000 10.009 19.000 14.058 C 19.000 18.453,19.006 18.320,18.779 18.618 C 18.718 18.698,18.585 18.813,18.484 18.872 L 18.300 18.980 12.000 18.980 L 5.700 18.980 5.516 18.872 C 5.415 18.813,5.284 18.700,5.225 18.623 C 4.990 18.315,5.000 18.510,5.000 14.080 L 5.000 10.009 5.179 9.982 C 5.422 9.946,5.712 9.742,5.859 9.503 C 5.966 9.329,5.980 9.271,5.980 9.003 C 5.980 8.745,5.964 8.672,5.871 8.514 C 5.730 8.275,5.485 8.096,5.214 8.035 L 5.000 7.987 5.000 6.941 C 5.000 5.703,5.022 5.584,5.304 5.303 C 5.623 4.983,5.120 5.006,11.983 5.003 C 17.353 5.000,18.131 5.007,18.310 5.061 M8.695 8.057 C 8.466 8.129,8.256 8.299,8.128 8.516 C 8.037 8.672,8.020 8.746,8.020 9.000 C 8.020 9.256,8.036 9.328,8.131 9.489 C 8.256 9.702,8.449 9.864,8.670 9.943 C 8.878 10.017,10.122 10.017,10.330 9.943 C 10.551 9.864,10.744 9.702,10.869 9.489 C 10.964 9.328,10.980 9.256,10.980 9.000 C 10.980 8.746,10.963 8.672,10.872 8.516 C 10.740 8.293,10.533 8.128,10.290 8.055 C 10.050 7.983,8.928 7.984,8.695 8.057 M13.695 8.057 C 13.466 8.129,13.256 8.299,13.128 8.516 C 13.037 8.672,13.020 8.746,13.020 9.000 C 13.020 9.256,13.036 9.328,13.131 9.489 C 13.256 9.702,13.449 9.864,13.670 9.943 C 13.878 10.017,15.122 10.017,15.330 9.943 C 15.551 9.864,15.744 9.702,15.869 9.489 C 15.964 9.328,15.980 9.256,15.980 9.000 C 15.980 8.746,15.963 8.672,15.872 8.516 C 15.740 8.293,15.533 8.128,15.290 8.055 C 15.050 7.983,13.928 7.984,13.695 8.057 " stroke="none" fill-rule="evenodd" fill="black"></path></svg>