<svg xmlns="http://www.w3.org/2000/svg" width="24" height="24" viewBox="0 0 24 24" fill="none" stroke="currentColor" stroke-width="2" stroke-linecap="round" stroke-linejoin="round"><path d="M5.499 3.043 C 4.380 3.233,3.461 4.048,3.114 5.160 L 3.020 5.460 3.020 12.000 L 3.020 18.540 3.114 18.840 C 3.422 19.827,4.173 20.578,5.160 20.886 L 5.460 20.980 12.000 20.980 L 18.540 20.980 18.840 20.886 C 19.827 20.578,20.578 19.827,20.886 18.840 L 20.980 18.540 20.980 12.000 L 20.980 5.460 20.886 5.160 C 20.581 4.182,19.832 3.428,18.861 3.121 L 18.540 3.020 12.120 3.014 C 8.589 3.011,5.609 3.024,5.499 3.043 M8.018 5.179 C 8.054 5.422,8.258 5.712,8.497 5.859 C 8.671 5.966,8.729 5.980,9.000 5.980 C 9.271 5.980,9.329 5.966,9.503 5.859 C 9.742 5.712,9.946 5.422,9.982 5.179 L 10.009 5.000 14.057 5.000 C 18.634 5.000,18.377 4.983,18.697 5.303 C 19.023 5.629,19.000 5.126,19.000 12.001 C 19.000 17.059,18.991 18.139,18.945 18.290 C 18.872 18.533,18.707 18.740,18.484 18.872 L 18.300 18.980 14.155 18.991 L 10.010 19.001 9.983 18.831 C 9.922 18.448,9.608 18.123,9.214 18.035 C 8.665 17.912,8.104 18.285,8.017 18.832 L 7.989 19.004 6.845 18.992 L 5.700 18.980 5.516 18.872 C 5.415 18.813,5.284 18.700,5.225 18.623 C 4.987 18.311,5.000 18.701,5.000 12.022 C 5.000 5.123,4.977 5.629,5.304 5.303 C 5.582 5.024,5.681 5.006,6.925 5.003 L 7.991 5.000 8.018 5.179 M8.695 8.057 C 8.466 8.129,8.256 8.299,8.128 8.516 C 8.020 8.699,8.020 8.703,8.020 9.503 L 8.020 10.306 8.141 10.503 C 8.543 11.156,9.457 11.156,9.859 10.503 L 9.980 10.306 9.980 9.503 C 9.980 8.703,9.980 8.699,9.872 8.516 C 9.628 8.101,9.150 7.915,8.695 8.057 M8.695 13.057 C 8.466 13.129,8.256 13.299,8.128 13.516 C 8.020 13.699,8.020 13.703,8.020 14.503 L 8.020 15.306 8.141 15.503 C 8.543 16.156,9.457 16.156,9.859 15.503 L 9.980 15.306 9.980 14.503 C 9.980 13.703,9.980 13.699,9.872 13.516 C 9.628 13.101,9.150 12.915,8.695 13.057 " stroke="none" fill-rule="evenodd" fill="black"></path></svg>