<svg xmlns="http://www.w3.org/2000/svg" width="24" height="24" viewBox="0 0 24 24" fill="none" stroke="currentColor" stroke-width="2" stroke-linecap="round" stroke-linejoin="round"><path d="M2.670 2.061 C 2.448 2.142,2.250 2.309,2.128 2.516 C 2.036 2.672,2.020 2.745,2.021 3.000 C 2.021 3.214,2.043 3.340,2.096 3.440 C 2.137 3.517,2.418 3.832,2.722 4.140 L 3.273 4.700 3.147 5.060 L 3.020 5.420 3.020 6.480 C 3.020 7.480,3.025 7.557,3.114 7.840 C 3.418 8.816,4.152 9.556,5.140 9.885 C 5.412 9.976,5.463 9.979,6.997 9.987 L 8.575 9.995 10.785 12.205 L 12.995 14.415 13.009 16.498 C 13.022 18.550,13.024 18.584,13.115 18.860 C 13.442 19.846,14.184 20.581,15.160 20.886 C 15.453 20.978,15.496 20.980,17.020 20.980 L 18.580 20.980 18.940 20.853 L 19.300 20.727 19.860 21.278 C 20.168 21.582,20.483 21.863,20.560 21.904 C 20.660 21.957,20.786 21.979,21.000 21.979 C 21.258 21.980,21.327 21.964,21.492 21.867 C 21.968 21.587,22.139 20.967,21.865 20.508 C 21.810 20.416,17.665 16.243,12.653 11.235 C 4.231 2.820,3.525 2.125,3.343 2.065 C 3.107 1.987,2.874 1.986,2.670 2.061 M7.695 3.054 C 7.048 3.267,6.799 4.040,7.198 4.591 C 7.369 4.827,7.608 4.953,7.972 4.999 C 8.355 5.048,8.509 5.112,8.699 5.301 C 8.889 5.491,8.952 5.645,9.001 6.031 C 9.049 6.410,9.184 6.647,9.452 6.828 C 9.923 7.144,10.554 6.998,10.859 6.503 C 10.974 6.315,10.980 6.285,10.978 5.883 C 10.977 5.559,10.955 5.390,10.885 5.160 C 10.586 4.184,9.809 3.404,8.863 3.130 C 8.463 3.015,7.922 2.979,7.695 3.054 M15.499 3.042 C 14.372 3.239,13.461 4.048,13.114 5.160 L 13.020 5.460 13.020 7.883 L 13.020 10.306 13.141 10.503 C 13.543 11.156,14.457 11.156,14.859 10.503 L 14.980 10.306 15.000 8.023 C 15.022 5.464,15.008 5.587,15.321 5.283 C 15.591 5.022,15.720 5.000,17.000 5.000 C 18.280 5.000,18.409 5.022,18.679 5.283 C 19.005 5.600,18.978 5.102,19.000 11.023 L 19.020 16.306 19.141 16.503 C 19.543 17.156,20.457 17.156,20.859 16.503 L 20.980 16.306 20.980 10.883 L 20.980 5.460 20.886 5.160 C 20.581 4.181,19.825 3.421,18.861 3.124 C 18.548 3.027,18.504 3.024,17.120 3.015 C 16.339 3.010,15.609 3.022,15.499 3.042 M6.493 7.994 C 6.455 8.002,6.261 8.002,6.060 7.993 C 5.755 7.980,5.666 7.960,5.514 7.870 C 5.147 7.655,5.000 7.344,5.000 6.785 L 5.000 6.421 5.781 7.200 C 6.338 7.756,6.542 7.984,6.493 7.994 M5.499 12.042 C 4.372 12.239,3.461 13.048,3.114 14.160 C 3.021 14.458,3.020 14.473,3.020 16.500 C 3.020 18.527,3.021 18.542,3.114 18.840 C 3.422 19.827,4.173 20.578,5.160 20.886 C 5.453 20.978,5.497 20.980,7.000 20.980 C 8.503 20.980,8.547 20.978,8.840 20.886 C 9.240 20.762,9.609 20.563,9.891 20.321 C 10.391 19.893,10.702 19.430,10.886 18.840 C 10.979 18.542,10.980 18.527,10.980 16.500 C 10.980 14.473,10.979 14.458,10.886 14.160 C 10.581 13.181,9.825 12.421,8.861 12.124 C 8.548 12.027,8.504 12.024,7.120 12.015 C 6.339 12.010,5.609 12.022,5.499 12.042 M8.310 14.061 C 8.589 14.144,8.856 14.411,8.939 14.690 C 9.024 14.976,9.029 18.010,8.945 18.290 C 8.872 18.533,8.707 18.740,8.484 18.872 L 8.300 18.980 7.000 18.980 L 5.700 18.980 5.516 18.872 C 5.303 18.747,5.141 18.550,5.058 18.316 C 4.971 18.067,4.973 14.986,5.061 14.690 C 5.140 14.421,5.412 14.143,5.673 14.063 C 5.952 13.977,8.023 13.975,8.310 14.061 M17.371 18.993 C 17.266 19.000,16.847 19.000,16.440 18.993 C 15.719 18.980,15.695 18.977,15.516 18.872 C 15.415 18.813,15.284 18.700,15.225 18.623 C 15.022 18.357,15.000 18.224,15.000 17.285 L 15.000 16.420 16.281 17.700 L 17.561 18.980 17.371 18.993 " stroke="none" fill-rule="evenodd" fill="black"></path></svg>