<svg xmlns="http://www.w3.org/2000/svg" width="24" height="24" viewBox="0 0 24 24" fill="none" stroke="currentColor" stroke-width="2" stroke-linecap="round" stroke-linejoin="round"><path d="M5.499 3.043 C 4.380 3.233,3.461 4.048,3.114 5.160 L 3.020 5.460 3.020 12.000 L 3.020 18.540 3.114 18.840 C 3.422 19.827,4.173 20.578,5.160 20.886 L 5.460 20.980 12.000 20.980 L 18.540 20.980 18.840 20.886 C 19.827 20.578,20.578 19.827,20.886 18.840 L 20.980 18.540 20.980 12.000 L 20.980 5.460 20.886 5.160 C 20.581 4.182,19.832 3.428,18.861 3.121 L 18.540 3.020 12.120 3.014 C 8.589 3.011,5.609 3.024,5.499 3.043 M18.310 5.061 C 18.452 5.103,18.571 5.178,18.697 5.303 C 18.978 5.584,19.000 5.703,19.000 6.947 L 19.000 8.000 12.000 8.000 L 5.000 8.000 5.000 6.947 C 5.000 5.702,5.022 5.585,5.304 5.303 C 5.623 4.983,5.120 5.006,11.983 5.003 C 17.353 5.000,18.131 5.007,18.310 5.061 M19.000 14.054 C 19.000 18.453,19.006 18.320,18.779 18.618 C 18.718 18.698,18.585 18.813,18.484 18.872 L 18.300 18.980 12.000 18.980 L 5.700 18.980 5.516 18.872 C 5.415 18.813,5.284 18.700,5.225 18.623 C 4.990 18.315,5.000 18.511,5.000 14.075 L 5.000 10.000 12.000 10.000 L 19.000 10.000 19.000 14.054 M11.640 13.069 C 11.492 13.121,11.265 13.325,10.347 14.236 C 9.734 14.843,9.185 15.421,9.127 15.520 C 9.037 15.672,9.020 15.747,9.020 16.000 C 9.020 16.257,9.036 16.327,9.133 16.492 C 9.263 16.714,9.502 16.901,9.736 16.965 C 9.939 17.019,10.267 16.989,10.445 16.899 C 10.519 16.861,10.900 16.514,11.290 16.127 L 12.000 15.423 12.710 16.127 C 13.101 16.514,13.481 16.861,13.555 16.899 C 14.008 17.128,14.601 16.944,14.867 16.492 C 14.964 16.327,14.980 16.257,14.980 16.000 C 14.980 15.747,14.963 15.672,14.873 15.520 C 14.815 15.421,14.266 14.843,13.653 14.236 C 12.680 13.271,12.515 13.124,12.343 13.066 C 12.102 12.985,11.878 12.986,11.640 13.069 " stroke="none" fill-rule="evenodd" fill="black"></path></svg>