<svg xmlns="http://www.w3.org/2000/svg" width="24" height="24" viewBox="0 0 24 24" fill="none" stroke="currentColor" stroke-width="2" stroke-linecap="round" stroke-linejoin="round"><path d="M9.264 2.057 C 9.049 2.137,8.751 2.349,8.249 2.779 C 6.681 4.122,5.684 5.880,5.441 7.731 C 5.398 8.058,5.379 8.119,5.325 8.104 C 5.092 8.038,4.384 7.986,3.700 7.985 C 3.028 7.984,2.865 7.996,2.684 8.057 C 2.236 8.209,1.964 8.644,2.014 9.126 C 2.078 9.734,2.460 11.262,2.741 12.029 C 2.947 12.593,3.397 13.485,3.676 13.885 C 4.115 14.514,4.697 15.073,5.273 15.418 C 5.411 15.501,5.516 15.589,5.505 15.614 C 5.495 15.640,5.383 15.884,5.258 16.158 C 4.828 17.099,4.491 18.161,4.263 19.290 C 4.081 20.190,3.983 20.945,4.017 21.176 C 4.054 21.422,4.257 21.711,4.497 21.859 C 4.671 21.966,4.729 21.980,4.997 21.980 C 5.257 21.980,5.327 21.964,5.492 21.867 C 5.710 21.739,5.904 21.495,5.956 21.284 C 5.975 21.205,6.038 20.825,6.096 20.440 C 6.222 19.597,6.388 18.879,6.618 18.180 C 6.807 17.605,7.033 17.040,7.074 17.040 C 7.088 17.040,7.162 17.162,7.239 17.310 C 8.189 19.156,9.890 20.349,12.212 20.797 C 13.103 20.969,14.507 21.054,14.804 20.954 C 15.122 20.848,15.406 20.527,15.477 20.194 C 15.517 20.009,15.503 19.917,15.299 19.046 C 15.178 18.526,15.071 18.068,15.063 18.030 C 15.045 17.951,15.023 17.957,15.671 17.861 C 16.783 17.698,18.118 17.263,19.240 16.700 C 20.165 16.235,21.231 15.553,21.674 15.144 C 21.957 14.881,22.066 14.459,21.945 14.095 C 21.735 13.469,20.280 11.992,19.250 11.360 L 18.891 11.140 19.002 10.917 C 19.328 10.266,19.646 9.360,19.815 8.600 C 19.997 7.783,20.054 7.218,20.053 6.240 C 20.052 4.850,19.975 4.497,19.610 4.219 C 19.318 3.995,19.222 3.983,18.148 4.035 C 17.625 4.060,16.986 4.108,16.728 4.141 C 15.432 4.306,14.095 4.652,13.189 5.057 C 13.062 5.114,12.943 5.160,12.925 5.160 C 12.907 5.160,12.815 5.029,12.721 4.870 C 12.406 4.340,11.991 3.826,11.402 3.238 C 10.821 2.656,10.431 2.335,10.067 2.137 C 9.830 2.008,9.487 1.974,9.264 2.057 M9.768 4.410 C 10.023 4.612,10.580 5.261,10.860 5.680 C 11.090 6.023,11.294 6.417,11.505 6.920 C 11.612 7.177,11.864 7.415,12.119 7.500 C 12.418 7.599,12.667 7.561,13.040 7.359 C 14.462 6.589,15.888 6.186,17.645 6.059 L 18.030 6.031 18.046 6.166 C 18.072 6.392,18.010 7.328,17.942 7.725 C 17.753 8.835,17.403 9.754,16.810 10.700 C 16.658 10.942,16.513 11.201,16.487 11.276 C 16.329 11.733,16.603 12.296,17.080 12.495 C 17.926 12.849,18.479 13.194,19.117 13.766 C 19.346 13.972,19.540 14.158,19.547 14.180 C 19.564 14.236,19.195 14.466,18.558 14.797 C 17.142 15.532,15.790 15.921,14.440 15.982 C 14.165 15.995,13.856 16.023,13.754 16.046 C 13.510 16.099,13.266 16.282,13.129 16.514 C 13.021 16.698,13.020 16.706,13.024 17.400 C 13.028 17.954,13.047 18.183,13.114 18.496 C 13.161 18.714,13.200 18.901,13.200 18.910 C 13.200 18.970,12.171 18.762,11.694 18.605 C 10.982 18.371,10.401 18.035,9.923 17.578 C 9.419 17.097,9.145 16.698,8.854 16.024 C 8.665 15.585,8.465 14.823,8.514 14.731 C 8.583 14.601,9.613 13.623,9.940 13.376 C 10.650 12.839,11.341 12.420,12.136 12.045 C 12.633 11.811,12.834 11.632,12.935 11.336 C 13.018 11.094,13.017 10.905,12.934 10.660 C 12.796 10.255,12.347 9.968,11.916 10.009 C 11.450 10.054,9.811 10.966,8.752 11.769 C 8.079 12.280,7.100 13.243,6.650 13.839 C 6.609 13.892,6.081 13.556,5.818 13.311 C 5.354 12.877,4.943 12.203,4.627 11.356 C 4.479 10.961,4.240 10.152,4.240 10.048 C 4.240 9.934,5.152 10.068,5.944 10.298 C 6.138 10.354,6.362 10.400,6.441 10.400 C 6.837 10.400,7.248 10.109,7.374 9.740 C 7.430 9.576,7.436 9.440,7.416 8.882 C 7.388 8.141,7.440 7.703,7.623 7.114 C 7.766 6.650,8.112 5.971,8.431 5.522 C 8.678 5.175,9.502 4.280,9.574 4.280 C 9.591 4.280,9.678 4.339,9.768 4.410 " stroke="none" fill-rule="evenodd" fill="black"></path></svg>