<svg xmlns="http://www.w3.org/2000/svg" width="24" height="24" viewBox="0 0 24 24" fill="none" stroke="currentColor" stroke-width="2" stroke-linecap="round" stroke-linejoin="round"><path d="M17.192 2.456 C 17.111 2.485,16.958 2.582,16.852 2.672 C 16.442 3.020,2.564 16.948,2.500 17.076 C 2.409 17.258,2.380 17.617,2.438 17.840 C 2.477 17.990,2.557 18.091,2.913 18.440 C 5.468 20.954,9.383 22.021,12.957 21.177 C 15.726 20.523,18.093 18.872,19.660 16.500 C 21.141 14.258,21.752 11.442,21.336 8.780 C 21.094 7.232,20.480 5.649,19.629 4.380 C 19.044 3.508,18.278 2.652,17.940 2.494 C 17.713 2.388,17.424 2.373,17.192 2.456 M17.617 5.004 C 17.674 5.072,17.835 5.302,17.974 5.514 C 18.749 6.695,19.224 7.992,19.398 9.399 C 19.458 9.882,19.449 11.145,19.382 11.640 C 18.914 15.102,16.560 17.933,13.251 19.017 C 12.269 19.339,11.538 19.453,10.460 19.452 C 9.013 19.451,7.774 19.166,6.499 18.540 C 5.978 18.284,5.089 17.727,4.942 17.563 L 4.864 17.476 5.385 16.956 L 5.905 16.435 6.303 16.702 C 8.252 18.009,10.760 18.313,13.000 17.514 C 15.969 16.454,17.960 13.623,17.960 10.460 C 17.960 9.017,17.498 7.489,16.702 6.303 L 16.435 5.906 16.947 5.393 C 17.229 5.111,17.471 4.880,17.486 4.880 C 17.501 4.880,17.560 4.936,17.617 5.004 M15.276 7.813 C 15.363 7.971,15.490 8.238,15.557 8.406 C 15.699 8.760,15.883 9.423,15.850 9.457 C 15.815 9.491,12.920 9.485,12.920 9.450 C 12.920 9.434,13.383 8.956,13.950 8.389 C 15.129 7.209,14.979 7.274,15.276 7.813 M15.775 11.850 C 15.721 12.053,15.618 12.366,15.546 12.544 C 15.422 12.853,15.042 13.560,15.000 13.560 C 14.989 13.560,14.512 13.092,13.940 12.520 L 12.901 11.480 14.387 11.480 L 15.874 11.480 15.775 11.850 M9.440 14.397 L 9.440 15.874 9.090 15.781 C 8.479 15.617,8.017 15.420,7.564 15.131 L 7.348 14.993 8.383 13.957 C 8.953 13.386,9.424 12.920,9.430 12.920 C 9.435 12.920,9.440 13.585,9.440 14.397 M13.499 15.057 C 13.175 15.298,12.242 15.698,11.730 15.816 L 11.480 15.873 11.480 14.387 L 11.480 12.900 12.529 13.949 C 13.525 14.945,13.574 15.001,13.499 15.057 " stroke="none" fill-rule="evenodd" fill="black"></path></svg>