<svg xmlns="http://www.w3.org/2000/svg" width="24" height="24" viewBox="0 0 24 24" fill="none" stroke="currentColor" stroke-width="2" stroke-linecap="round" stroke-linejoin="round"><path d="M6.650 3.066 C 6.171 3.236,5.882 3.845,6.054 4.320 C 6.082 4.397,7.162 6.149,8.453 8.214 C 9.744 10.278,10.800 11.982,10.800 12.000 C 10.800 12.018,9.744 13.722,8.453 15.786 C 7.162 17.851,6.082 19.603,6.054 19.680 C 5.900 20.105,6.096 20.625,6.499 20.862 C 6.867 21.077,7.375 21.019,7.674 20.726 C 7.756 20.646,8.759 19.082,9.902 17.250 C 11.045 15.418,11.989 13.920,12.000 13.920 C 12.011 13.920,12.955 15.418,14.098 17.250 C 15.241 19.082,16.244 20.646,16.326 20.726 C 16.625 21.019,17.133 21.077,17.501 20.862 C 17.904 20.625,18.100 20.105,17.946 19.680 C 17.918 19.603,16.838 17.851,15.547 15.786 C 14.256 13.722,13.200 12.018,13.200 12.000 C 13.200 11.982,14.256 10.278,15.547 8.214 C 16.838 6.149,17.918 4.397,17.946 4.320 C 18.070 3.979,17.967 3.562,17.694 3.296 C 17.326 2.939,16.785 2.908,16.375 3.221 C 16.288 3.288,15.550 4.433,14.133 6.700 C 12.971 8.559,12.011 10.080,12.000 10.080 C 11.989 10.080,11.045 8.582,9.902 6.750 C 8.737 4.884,7.757 3.355,7.672 3.272 C 7.419 3.025,7.004 2.941,6.650 3.066 " stroke="none" fill-rule="evenodd" fill="black"></path></svg>