<svg xmlns="http://www.w3.org/2000/svg" width="24" height="24" viewBox="0 0 24 24" fill="none" stroke="currentColor" stroke-width="2" stroke-linecap="round" stroke-linejoin="round"><path d="M9.695 7.055 C 9.464 7.130,9.255 7.300,9.128 7.516 L 9.020 7.700 9.009 11.913 C 9.002 14.672,9.013 16.178,9.039 16.277 C 9.099 16.498,9.290 16.739,9.508 16.867 L 9.700 16.980 11.120 16.980 C 12.497 16.980,12.549 16.977,12.840 16.886 C 13.827 16.578,14.579 15.826,14.886 14.840 C 15.021 14.406,15.021 13.593,14.886 13.161 C 14.766 12.779,14.609 12.470,14.402 12.208 L 14.238 12.000 14.402 11.792 C 14.609 11.530,14.766 11.221,14.886 10.839 C 15.021 10.407,15.021 9.594,14.886 9.160 C 14.581 8.182,13.825 7.421,12.861 7.124 C 12.551 7.028,12.495 7.025,11.200 7.014 C 10.166 7.005,9.822 7.014,9.695 7.055 M12.310 9.061 C 12.688 9.173,13.000 9.598,13.000 10.001 C 13.000 10.331,12.784 10.696,12.484 10.872 C 12.308 10.975,12.272 10.981,11.650 10.993 L 11.000 11.007 11.000 10.003 L 11.000 9.000 11.553 9.000 C 11.931 9.000,12.170 9.019,12.310 9.061 M12.310 13.061 C 12.688 13.173,13.000 13.598,13.000 14.001 C 13.000 14.331,12.784 14.696,12.484 14.872 C 12.308 14.975,12.272 14.981,11.650 14.993 L 11.000 15.007 11.000 14.003 L 11.000 13.000 11.553 13.000 C 11.931 13.000,12.170 13.019,12.310 13.061 " stroke="none" fill-rule="evenodd" fill="black"></path></svg>