<svg xmlns="http://www.w3.org/2000/svg" width="24" height="24" viewBox="0 0 24 24" fill="none" stroke="currentColor" stroke-width="2" stroke-linecap="round" stroke-linejoin="round"><path d="M11.499 7.040 C 10.363 7.246,9.461 8.048,9.114 9.160 L 9.020 9.460 9.020 12.000 L 9.020 14.540 9.114 14.840 C 9.422 15.827,10.173 16.578,11.160 16.886 C 11.417 16.966,11.541 16.980,12.020 16.978 C 12.537 16.976,12.607 16.967,12.936 16.853 L 13.292 16.731 13.493 16.856 C 13.671 16.966,13.726 16.980,13.996 16.980 C 14.257 16.980,14.327 16.964,14.492 16.867 C 14.982 16.579,15.142 15.954,14.848 15.480 L 14.731 15.292 14.856 14.936 L 14.980 14.580 14.980 12.020 L 14.980 9.460 14.886 9.160 C 14.580 8.178,13.810 7.407,12.861 7.129 C 12.500 7.023,11.832 6.980,11.499 7.040 M12.310 9.061 C 12.452 9.103,12.571 9.178,12.697 9.303 C 13.001 9.608,13.000 9.596,13.000 11.938 L 13.000 13.981 12.792 14.030 C 12.391 14.126,12.073 14.454,12.016 14.829 L 11.990 15.009 11.825 14.982 C 11.606 14.947,11.358 14.798,11.221 14.618 C 11.004 14.333,11.000 14.287,11.000 12.001 C 11.000 9.588,10.998 9.609,11.304 9.303 C 11.583 9.024,11.916 8.944,12.310 9.061 " stroke="none" fill-rule="evenodd" fill="black"></path></svg>