<svg xmlns="http://www.w3.org/2000/svg" width="24" height="24" viewBox="0 0 24 24" fill="none" stroke="currentColor" stroke-width="2" stroke-linecap="round" stroke-linejoin="round"><path d="M5.695 3.057 C 5.466 3.129,5.256 3.299,5.128 3.516 L 5.020 3.700 5.020 9.720 L 5.020 15.740 5.113 16.160 C 5.650 18.599,7.402 20.352,9.840 20.887 C 10.243 20.976,10.331 20.980,12.000 20.980 C 13.669 20.980,13.757 20.976,14.160 20.887 C 15.410 20.613,16.414 20.066,17.269 19.195 C 18.107 18.342,18.618 17.384,18.887 16.160 L 18.980 15.740 18.980 9.720 L 18.980 3.700 18.871 3.514 C 18.479 2.848,17.521 2.848,17.129 3.514 L 17.020 3.700 16.998 9.640 C 16.978 15.017,16.970 15.606,16.909 15.855 C 16.522 17.442,15.337 18.599,13.773 18.917 C 13.410 18.991,13.224 19.000,12.000 19.000 C 10.776 19.000,10.590 18.991,10.227 18.917 C 8.663 18.599,7.478 17.442,7.091 15.855 C 7.030 15.606,7.022 15.017,7.002 9.640 L 6.980 3.700 6.872 3.516 C 6.628 3.101,6.150 2.915,5.695 3.057 " stroke="none" fill-rule="evenodd" fill="black"></path></svg>