<svg xmlns="http://www.w3.org/2000/svg" width="24" height="24" viewBox="0 0 24 24" fill="none" stroke="currentColor" stroke-width="2" stroke-linecap="round" stroke-linejoin="round"><path d="M10.400 3.044 C 8.761 3.229,7.261 4.290,6.526 5.785 C 6.158 6.533,6.020 7.136,6.020 8.000 C 6.020 8.670,6.078 9.044,6.268 9.600 C 6.841 11.275,8.224 12.499,10.000 12.902 C 10.242 12.957,10.616 12.976,11.920 12.998 C 13.483 13.026,13.551 13.030,13.861 13.125 C 14.815 13.416,15.584 14.185,15.875 15.139 C 15.958 15.412,15.973 15.542,15.973 16.000 C 15.973 16.458,15.958 16.588,15.875 16.861 C 15.582 17.822,14.820 18.580,13.840 18.886 C 13.547 18.978,13.503 18.980,12.000 18.980 C 10.497 18.980,10.453 18.978,10.160 18.886 C 9.760 18.761,9.391 18.563,9.108 18.321 C 8.410 17.723,8.088 17.081,8.005 16.121 C 7.974 15.762,7.948 15.647,7.864 15.504 C 7.480 14.847,6.518 14.853,6.129 15.514 C 6.027 15.688,6.020 15.730,6.021 16.160 C 6.022 16.660,6.098 17.103,6.268 17.600 C 6.846 19.291,8.253 20.525,10.040 20.907 C 10.337 20.971,10.585 20.980,12.000 20.980 C 13.415 20.980,13.663 20.971,13.960 20.907 C 15.488 20.580,16.748 19.630,17.433 18.288 C 17.662 17.839,17.805 17.439,17.907 16.960 C 18.008 16.489,18.008 15.511,17.907 15.040 C 17.467 12.984,15.923 11.472,13.860 11.074 C 13.750 11.053,12.931 11.021,12.040 11.004 C 10.515 10.974,10.404 10.967,10.140 10.882 C 9.170 10.570,8.415 9.812,8.125 8.861 C 8.042 8.588,8.027 8.458,8.027 8.000 C 8.027 7.542,8.042 7.412,8.125 7.139 C 8.419 6.174,9.215 5.388,10.178 5.112 C 10.488 5.023,10.554 5.020,12.000 5.020 C 13.446 5.020,13.512 5.023,13.822 5.112 C 14.782 5.387,15.595 6.188,15.867 7.129 C 15.916 7.299,15.974 7.638,15.995 7.883 C 16.028 8.264,16.050 8.354,16.148 8.514 C 16.543 9.156,17.461 9.151,17.859 8.503 C 17.976 8.313,17.980 8.289,17.979 7.843 C 17.975 6.311,17.114 4.742,15.800 3.874 C 15.046 3.375,14.396 3.135,13.552 3.043 C 13.101 2.993,10.841 2.994,10.400 3.044 " stroke="none" fill-rule="evenodd" fill="black"></path></svg>