<svg xmlns="http://www.w3.org/2000/svg" width="24" height="24" viewBox="0 0 24 24" fill="none" stroke="currentColor" stroke-width="2" stroke-linecap="round" stroke-linejoin="round"><path d="M8.667 7.063 C 8.394 7.150,8.147 7.407,8.054 7.701 L 7.982 7.931 8.497 12.055 C 8.780 14.324,9.028 16.236,9.046 16.304 C 9.100 16.499,9.299 16.744,9.496 16.860 C 9.880 17.085,10.383 17.019,10.699 16.703 C 10.848 16.554,10.923 16.392,11.420 15.148 C 11.726 14.385,11.986 13.760,12.000 13.760 C 12.014 13.760,12.274 14.385,12.580 15.148 C 13.075 16.389,13.152 16.554,13.300 16.702 C 13.479 16.881,13.759 17.000,14.000 17.000 C 14.413 17.000,14.821 16.701,14.938 16.315 C 15.024 16.030,16.011 8.109,15.988 7.889 C 15.911 7.163,15.058 6.765,14.452 7.172 C 14.348 7.243,14.211 7.384,14.147 7.487 C 14.037 7.667,14.023 7.747,13.773 9.767 C 13.630 10.918,13.504 11.887,13.493 11.920 C 13.482 11.953,13.338 11.643,13.173 11.231 C 12.939 10.647,12.840 10.448,12.725 10.330 C 12.507 10.105,12.308 10.020,12.000 10.020 C 11.692 10.020,11.407 10.148,11.230 10.367 C 11.169 10.442,10.986 10.836,10.823 11.242 C 10.660 11.648,10.517 11.953,10.506 11.920 C 10.495 11.887,10.376 10.960,10.241 9.860 C 10.105 8.760,9.978 7.795,9.958 7.716 C 9.822 7.194,9.216 6.887,8.667 7.063 " stroke="none" fill-rule="evenodd" fill="black"></path></svg>