<svg xmlns="http://www.w3.org/2000/svg" width="24" height="24" viewBox="0 0 24 24" fill="none" stroke="currentColor" stroke-width="2" stroke-linecap="round" stroke-linejoin="round"><path d="M9.695 7.057 C 9.466 7.129,9.256 7.299,9.128 7.516 C 9.037 7.672,9.020 7.746,9.020 8.000 C 9.020 8.256,9.036 8.328,9.131 8.489 C 9.256 8.702,9.449 8.864,9.670 8.943 C 9.768 8.978,10.023 8.997,10.409 8.998 L 10.998 9.000 11.009 12.653 L 11.020 16.306 11.141 16.503 C 11.543 17.156,12.457 17.156,12.859 16.503 L 12.980 16.306 12.991 12.653 L 13.002 9.000 13.591 8.998 C 13.977 8.997,14.232 8.978,14.330 8.943 C 14.551 8.864,14.744 8.702,14.869 8.489 C 14.964 8.328,14.980 8.256,14.980 8.000 C 14.980 7.746,14.963 7.672,14.872 7.516 C 14.740 7.293,14.533 7.128,14.290 7.055 C 14.033 6.978,9.943 6.979,9.695 7.057 " stroke="none" fill-rule="evenodd" fill="black"></path></svg>