<svg xmlns="http://www.w3.org/2000/svg" width="24" height="24" viewBox="0 0 24 24" fill="none" stroke="currentColor" stroke-width="2" stroke-linecap="round" stroke-linejoin="round"><path d="M6.695 3.057 C 6.466 3.129,6.256 3.299,6.128 3.516 L 6.020 3.700 6.010 11.914 C 6.003 17.333,6.013 20.180,6.040 20.278 C 6.099 20.498,6.291 20.739,6.508 20.867 L 6.700 20.980 10.160 20.980 C 13.355 20.980,13.646 20.974,13.960 20.907 C 15.488 20.580,16.748 19.630,17.433 18.288 C 17.662 17.839,17.805 17.439,17.907 16.960 C 18.008 16.489,18.008 15.511,17.907 15.040 C 17.689 14.021,17.186 13.101,16.474 12.418 C 16.312 12.262,16.135 12.105,16.081 12.068 L 15.982 12.000 16.081 11.932 C 16.287 11.792,16.777 11.288,17.002 10.987 C 17.274 10.622,17.587 10.028,17.733 9.600 C 17.922 9.041,17.980 8.669,17.980 8.000 C 17.980 7.552,17.960 7.286,17.907 7.040 C 17.625 5.721,16.863 4.576,15.800 3.874 C 15.046 3.375,14.396 3.135,13.552 3.043 C 12.954 2.977,6.909 2.990,6.695 3.057 M13.861 5.122 C 14.823 5.424,15.585 6.187,15.875 7.139 C 15.958 7.412,15.973 7.542,15.973 8.000 C 15.973 8.458,15.958 8.588,15.875 8.861 C 15.585 9.811,14.842 10.558,13.860 10.885 L 13.580 10.979 10.790 10.991 L 8.000 11.004 8.000 8.000 L 8.000 4.996 10.770 5.009 L 13.540 5.022 13.861 5.122 M13.861 13.122 C 14.823 13.424,15.585 14.187,15.875 15.139 C 15.958 15.412,15.973 15.542,15.973 16.000 C 15.973 16.458,15.958 16.588,15.875 16.861 C 15.585 17.811,14.842 18.558,13.860 18.885 L 13.580 18.979 10.790 18.991 L 8.000 19.004 8.000 16.000 L 8.000 12.996 10.770 13.009 L 13.540 13.022 13.861 13.122 " stroke="none" fill-rule="evenodd" fill="black"></path></svg>