<svg xmlns="http://www.w3.org/2000/svg" width="24" height="24" viewBox="0 0 24 24" fill="none" stroke="currentColor" stroke-width="2" stroke-linecap="round" stroke-linejoin="round"><path d="M6.695 3.057 C 6.466 3.129,6.256 3.299,6.128 3.516 L 6.020 3.700 6.020 12.003 L 6.020 20.306 6.141 20.503 C 6.543 21.156,7.457 21.156,7.859 20.503 L 7.980 20.306 7.991 16.653 L 8.002 13.000 8.291 13.000 L 8.580 13.000 12.460 16.883 C 14.594 19.018,16.416 20.810,16.508 20.865 C 16.967 21.139,17.587 20.968,17.867 20.492 C 17.964 20.327,17.980 20.258,17.979 20.000 C 17.979 19.788,17.957 19.659,17.905 19.560 C 17.865 19.483,16.164 17.750,14.126 15.710 L 10.421 12.000 14.126 8.290 C 16.164 6.249,17.865 4.517,17.905 4.440 C 17.957 4.341,17.979 4.212,17.979 4.000 C 17.980 3.745,17.964 3.672,17.872 3.516 C 17.618 3.084,17.139 2.906,16.657 3.065 C 16.477 3.125,16.127 3.463,12.519 7.065 L 8.579 11.000 8.290 11.000 L 8.002 11.000 7.991 7.350 L 7.980 3.700 7.872 3.516 C 7.628 3.101,7.150 2.915,6.695 3.057 " stroke="none" fill-rule="evenodd" fill="black"></path></svg>