<svg xmlns="http://www.w3.org/2000/svg" width="24" height="24" viewBox="0 0 24 24" fill="none" stroke="currentColor" stroke-width="2" stroke-linecap="round" stroke-linejoin="round"><path d="M10.380 3.043 C 7.783 3.299,5.694 5.202,5.113 7.840 L 5.020 8.260 5.020 12.000 L 5.020 15.740 5.113 16.160 C 5.650 18.599,7.402 20.352,9.840 20.887 C 10.243 20.976,10.331 20.980,12.000 20.980 C 13.669 20.980,13.757 20.976,14.160 20.887 C 15.382 20.619,16.341 20.107,17.195 19.269 C 18.067 18.413,18.616 17.404,18.886 16.160 C 18.972 15.765,18.978 15.651,18.979 14.220 L 18.980 12.700 18.872 12.516 C 18.740 12.293,18.533 12.128,18.290 12.055 C 18.023 11.975,13.977 11.975,13.710 12.055 C 13.467 12.128,13.260 12.293,13.128 12.516 C 13.037 12.672,13.020 12.746,13.020 13.000 C 13.020 13.256,13.036 13.328,13.131 13.489 C 13.192 13.592,13.304 13.725,13.381 13.783 C 13.654 13.991,13.700 13.996,15.410 13.998 L 17.000 14.000 17.000 14.610 C 17.000 15.287,16.928 15.859,16.796 16.245 C 16.321 17.632,15.195 18.628,13.773 18.917 C 13.410 18.991,13.224 19.000,12.000 19.000 C 10.776 19.000,10.590 18.991,10.227 18.917 C 8.566 18.579,7.309 17.265,7.058 15.605 C 6.973 15.040,6.973 8.960,7.058 8.395 C 7.247 7.145,8.042 6.036,9.160 5.464 C 9.942 5.064,10.330 5.000,12.000 5.000 C 13.670 5.000,14.058 5.064,14.840 5.464 C 15.554 5.829,16.171 6.446,16.536 7.160 C 16.836 7.746,16.927 8.090,16.996 8.894 C 17.028 9.264,17.051 9.356,17.148 9.514 C 17.543 10.157,18.461 10.150,18.859 9.503 C 18.978 9.308,18.980 9.298,18.975 8.783 C 18.953 6.386,17.282 4.127,14.940 3.329 C 14.501 3.179,14.072 3.089,13.564 3.039 C 13.109 2.995,10.838 2.997,10.380 3.043 " stroke="none" fill-rule="evenodd" fill="black"></path></svg>