<svg xmlns="http://www.w3.org/2000/svg" width="24" height="24" viewBox="0 0 24 24" fill="none" stroke="currentColor" stroke-width="2" stroke-linecap="round" stroke-linejoin="round"><path d="M8.695 7.055 C 8.464 7.130,8.255 7.300,8.128 7.516 L 8.020 7.700 8.020 12.003 L 8.020 16.306 8.141 16.503 C 8.543 17.156,9.457 17.156,9.859 16.503 L 9.980 16.306 9.991 13.966 L 10.002 11.626 10.601 12.623 C 10.958 13.219,11.257 13.671,11.343 13.748 C 11.700 14.062,12.236 14.075,12.626 13.778 C 12.711 13.713,12.972 13.320,13.368 12.659 L 13.980 11.639 14.000 13.973 L 14.020 16.306 14.141 16.503 C 14.543 17.156,15.457 17.156,15.859 16.503 L 15.980 16.306 15.991 12.086 C 16.003 7.327,16.021 7.628,15.698 7.304 C 15.514 7.121,15.245 7.000,15.020 7.000 C 14.786 7.000,14.486 7.117,14.327 7.272 C 14.234 7.361,13.757 8.116,13.120 9.180 C 12.542 10.148,12.050 10.963,12.028 10.991 C 12.000 11.028,11.696 10.553,10.916 9.251 C 10.326 8.266,9.781 7.393,9.704 7.311 C 9.463 7.055,9.030 6.945,8.695 7.055 " stroke="none" fill-rule="evenodd" fill="black"></path></svg>