<svg xmlns="http://www.w3.org/2000/svg" width="24" height="24" viewBox="0 0 24 24" fill="none" stroke="currentColor" stroke-width="2" stroke-linecap="round" stroke-linejoin="round"><path d="M3.689 3.059 C 3.457 3.131,3.263 3.287,3.138 3.499 C 2.917 3.877,2.791 3.294,5.033 12.256 C 7.276 21.220,7.103 20.615,7.486 20.851 C 7.869 21.089,8.377 21.025,8.703 20.699 C 8.838 20.564,8.895 20.461,8.972 20.214 C 9.026 20.041,9.724 17.610,10.524 14.810 C 11.323 12.010,11.987 9.720,12.000 9.720 C 12.013 9.720,12.677 12.011,13.476 14.810 C 14.276 17.610,14.974 20.041,15.028 20.214 C 15.105 20.461,15.162 20.565,15.296 20.698 C 15.479 20.881,15.757 21.000,16.000 21.000 C 16.352 21.000,16.730 20.771,16.874 20.470 C 16.919 20.377,17.868 16.655,18.982 12.200 C 21.219 3.252,21.087 3.867,20.851 3.486 C 20.627 3.123,20.163 2.929,19.770 3.034 C 19.527 3.098,19.296 3.258,19.170 3.448 C 19.094 3.563,18.717 5.012,17.509 9.846 C 16.401 14.276,15.936 16.073,15.912 16.018 C 15.894 15.975,15.213 13.610,14.400 10.763 C 13.314 6.961,12.894 5.547,12.820 5.440 C 12.698 5.264,12.558 5.158,12.329 5.067 C 11.921 4.906,11.393 5.083,11.162 5.457 C 11.113 5.535,10.433 7.847,9.599 10.768 C 8.786 13.613,8.106 15.975,8.088 16.018 C 8.064 16.073,7.605 14.300,6.505 9.898 C 5.653 6.489,4.920 3.624,4.875 3.531 C 4.734 3.236,4.338 2.997,4.005 3.003 C 3.925 3.004,3.783 3.029,3.689 3.059 " stroke="none" fill-rule="evenodd" fill="black"></path></svg>