<svg xmlns="http://www.w3.org/2000/svg" width="24" height="24" viewBox="0 0 24 24" fill="none" stroke="currentColor" stroke-width="2" stroke-linecap="round" stroke-linejoin="round"><path d="M6.667 3.065 C 6.406 3.145,6.153 3.401,6.060 3.679 C 5.909 4.135,5.771 3.849,8.507 8.771 L 10.980 13.220 11.000 16.763 L 11.020 20.306 11.141 20.503 C 11.543 21.156,12.457 21.156,12.859 20.503 L 12.980 20.306 13.000 16.763 L 13.020 13.220 15.464 8.820 C 16.808 6.400,17.929 4.359,17.954 4.284 C 18.117 3.802,17.820 3.229,17.325 3.069 C 17.061 2.984,16.907 2.982,16.675 3.061 C 16.301 3.189,16.348 3.114,14.117 7.135 C 12.964 9.215,12.011 10.917,12.000 10.917 C 11.989 10.917,11.036 9.215,9.883 7.135 C 8.277 4.241,7.752 3.326,7.645 3.238 C 7.371 3.012,7.033 2.952,6.667 3.065 " stroke="none" fill-rule="evenodd" fill="black"></path></svg>