<svg xmlns="http://www.w3.org/2000/svg" width="24" height="24" viewBox="0 0 24 24" fill="none" stroke="currentColor" stroke-width="2" stroke-linecap="round" stroke-linejoin="round"><path d="M6.695 3.057 C 6.466 3.129,6.256 3.299,6.128 3.516 L 6.020 3.700 6.020 12.003 L 6.020 20.306 6.141 20.503 C 6.543 21.156,7.457 21.156,7.859 20.503 L 7.980 20.306 7.991 16.653 L 8.002 13.000 12.000 13.000 L 15.998 13.000 16.009 16.653 L 16.020 20.306 16.141 20.503 C 16.543 21.156,17.457 21.156,17.859 20.503 L 17.980 20.306 17.980 12.003 L 17.980 3.700 17.871 3.514 C 17.479 2.848,16.521 2.848,16.129 3.514 L 16.020 3.700 16.009 7.350 L 15.998 11.000 12.000 11.000 L 8.002 11.000 7.991 7.350 L 7.980 3.700 7.872 3.516 C 7.628 3.101,7.150 2.915,6.695 3.057 " stroke="none" fill-rule="evenodd" fill="black"></path></svg>