<svg xmlns="http://www.w3.org/2000/svg" width="24" height="24" viewBox="0 0 24 24" fill="none" stroke="currentColor" stroke-width="2" stroke-linecap="round" stroke-linejoin="round"><path d="M9.695 7.057 C 9.466 7.129,9.256 7.299,9.128 7.516 L 9.020 7.700 9.020 12.003 L 9.020 16.306 9.141 16.503 C 9.543 17.156,10.457 17.156,10.859 16.503 L 10.980 16.306 10.993 14.283 L 11.006 12.260 12.098 14.439 C 13.279 16.795,13.287 16.807,13.671 16.938 C 14.043 17.064,14.426 16.976,14.702 16.700 C 15.020 16.382,15.003 16.669,14.991 11.918 L 14.980 7.700 14.871 7.514 C 14.479 6.848,13.521 6.848,13.129 7.514 L 13.020 7.700 13.007 9.720 L 12.994 11.740 11.902 9.561 C 10.721 7.205,10.713 7.193,10.329 7.062 C 10.111 6.988,9.920 6.987,9.695 7.057 " stroke="none" fill-rule="evenodd" fill="black"></path></svg>