<svg xmlns="http://www.w3.org/2000/svg" width="24" height="24" viewBox="0 0 24 24" fill="none" stroke="currentColor" stroke-width="2" stroke-linecap="round" stroke-linejoin="round"><path d="M9.695 7.055 C 9.464 7.130,9.255 7.300,9.128 7.516 L 9.020 7.700 9.020 12.003 L 9.020 16.306 9.141 16.503 C 9.543 17.156,10.457 17.156,10.859 16.503 L 10.980 16.306 10.992 14.989 L 11.004 13.672 12.160 15.213 C 13.425 16.900,13.469 16.944,13.888 16.987 C 14.447 17.044,14.931 16.657,14.988 16.106 C 15.027 15.731,14.961 15.615,13.901 14.201 C 13.361 13.481,12.920 12.881,12.920 12.866 C 12.920 12.852,12.945 12.840,12.975 12.840 C 13.092 12.840,13.670 12.513,13.891 12.323 C 14.394 11.890,14.703 11.429,14.886 10.840 C 15.021 10.406,15.021 9.594,14.886 9.160 C 14.581 8.182,13.825 7.421,12.861 7.124 C 12.551 7.028,12.495 7.025,11.200 7.014 C 10.166 7.005,9.822 7.014,9.695 7.055 M12.310 9.061 C 12.688 9.173,13.000 9.598,13.000 10.001 C 13.000 10.331,12.784 10.696,12.484 10.872 C 12.308 10.975,12.272 10.981,11.650 10.993 L 11.000 11.007 11.000 10.003 L 11.000 9.000 11.553 9.000 C 11.931 9.000,12.170 9.019,12.310 9.061 " stroke="none" fill-rule="evenodd" fill="black"></path></svg>