<svg xmlns="http://www.w3.org/2000/svg" width="24" height="24" viewBox="0 0 24 24" fill="none" stroke="currentColor" stroke-width="2" stroke-linecap="round" stroke-linejoin="round"><path d="M5.643 3.066 C 5.256 3.208,4.969 3.665,5.009 4.074 C 5.036 4.355,11.066 20.414,11.220 20.617 C 11.612 21.132,12.445 21.106,12.814 20.567 C 12.956 20.359,18.968 4.307,18.991 4.074 C 19.049 3.480,18.502 2.944,17.909 3.014 C 17.642 3.045,17.367 3.194,17.220 3.385 C 17.134 3.497,16.386 5.446,14.563 10.311 C 13.167 14.034,12.014 17.080,12.000 17.080 C 11.986 17.080,10.833 14.034,9.437 10.311 C 7.614 5.446,6.866 3.497,6.780 3.385 C 6.537 3.069,6.026 2.926,5.643 3.066 " stroke="none" fill-rule="evenodd" fill="black"></path></svg>