<svg xmlns="http://www.w3.org/2000/svg" width="24" height="24" viewBox="0 0 24 24" fill="none" stroke="currentColor" stroke-width="2" stroke-linecap="round" stroke-linejoin="round"><path d="M5.900 4.045 C 4.179 4.260,2.675 5.557,2.185 7.248 C 1.996 7.900,1.996 7.897,2.008 13.763 L 2.020 19.306 2.141 19.503 C 2.543 20.156,3.457 20.156,3.859 19.503 L 3.980 19.306 3.991 16.653 L 4.002 14.000 6.500 14.000 L 8.998 14.000 9.009 16.653 L 9.020 19.306 9.141 19.503 C 9.543 20.156,10.457 20.156,10.859 19.503 L 10.980 19.306 10.992 13.763 C 11.000 9.818,10.991 8.129,10.959 7.904 C 10.608 5.436,8.378 3.736,5.900 4.045 M16.900 4.045 C 15.179 4.260,13.675 5.557,13.185 7.248 C 12.996 7.900,12.996 7.897,13.008 13.763 L 13.020 19.306 13.141 19.503 C 13.543 20.156,14.457 20.156,14.859 19.503 L 14.980 19.306 14.991 16.653 L 15.002 14.000 17.500 14.000 L 19.998 14.000 20.009 16.653 L 20.020 19.306 20.141 19.503 C 20.543 20.156,21.457 20.156,21.859 19.503 L 21.980 19.306 21.992 13.763 C 22.000 9.818,21.991 8.129,21.959 7.904 C 21.608 5.436,19.378 3.736,16.900 4.045 M7.020 6.060 C 7.741 6.211,8.395 6.713,8.715 7.362 C 8.989 7.918,8.999 8.012,8.999 10.130 L 9.000 12.000 6.500 12.000 L 4.000 12.000 4.001 10.130 C 4.001 8.012,4.011 7.918,4.285 7.362 C 4.774 6.371,5.914 5.828,7.020 6.060 M18.020 6.060 C 18.741 6.211,19.395 6.713,19.715 7.362 C 19.989 7.918,19.999 8.012,19.999 10.130 L 20.000 12.000 17.500 12.000 L 15.000 12.000 15.001 10.130 C 15.001 8.012,15.011 7.918,15.285 7.362 C 15.774 6.371,16.914 5.828,18.020 6.060 " stroke="none" fill-rule="evenodd" fill="black"></path></svg>