<svg xmlns="http://www.w3.org/2000/svg" width="24" height="24" viewBox="0 0 24 24" fill="none" stroke="currentColor" stroke-width="2" stroke-linecap="round" stroke-linejoin="round"><path d="M6.695 3.057 C 6.466 3.129,6.256 3.299,6.128 3.516 L 6.020 3.700 6.020 12.003 L 6.020 20.306 6.141 20.503 C 6.543 21.156,7.457 21.156,7.859 20.503 L 7.980 20.306 7.991 17.153 L 8.002 14.000 10.441 14.000 C 13.070 14.000,13.308 13.986,14.001 13.784 C 14.694 13.583,15.199 13.333,15.763 12.915 C 18.210 11.101,18.724 7.676,16.915 5.237 C 15.993 3.994,14.621 3.210,13.072 3.042 C 12.474 2.977,6.908 2.990,6.695 3.057 M13.405 5.109 C 14.178 5.325,14.948 5.876,15.396 6.533 C 15.595 6.824,15.826 7.344,15.906 7.680 C 16.004 8.091,16.004 8.909,15.906 9.320 C 15.760 9.933,15.388 10.571,14.915 11.023 C 14.465 11.451,14.030 11.704,13.420 11.891 C 13.148 11.974,13.066 11.977,10.570 11.990 L 8.000 12.004 8.000 8.500 L 8.000 4.996 10.550 5.009 C 13.011 5.023,13.111 5.026,13.405 5.109 " stroke="none" fill-rule="evenodd" fill="black"></path></svg>