<svg xmlns="http://www.w3.org/2000/svg" width="24" height="24" viewBox="0 0 24 24" fill="none" stroke="currentColor" stroke-width="2" stroke-linecap="round" stroke-linejoin="round"><path d="M9.695 7.057 C 9.466 7.129,9.256 7.299,9.128 7.516 L 9.020 7.700 9.009 11.913 C 9.002 14.672,9.013 16.178,9.039 16.277 C 9.099 16.498,9.290 16.739,9.508 16.867 L 9.700 16.980 11.911 16.991 C 13.337 16.999,14.176 16.988,14.275 16.961 C 14.498 16.901,14.739 16.711,14.867 16.492 C 14.964 16.327,14.980 16.257,14.980 16.000 C 14.980 15.746,14.963 15.672,14.872 15.516 C 14.813 15.415,14.698 15.282,14.618 15.221 C 14.342 15.011,14.242 15.000,12.554 15.000 L 11.002 15.000 10.991 11.350 L 10.980 7.700 10.872 7.516 C 10.628 7.101,10.150 6.915,9.695 7.057 " stroke="none" fill-rule="evenodd" fill="black"></path></svg>