<svg xmlns="http://www.w3.org/2000/svg" width="24" height="24" viewBox="0 0 24 24" fill="none" stroke="currentColor" stroke-width="2" stroke-linecap="round" stroke-linejoin="round"><path d="M16.695 3.057 C 16.466 3.129,16.256 3.299,16.128 3.516 L 16.020 3.700 16.000 10.120 L 15.980 16.540 15.879 16.861 C 15.572 17.832,14.818 18.581,13.840 18.886 C 13.547 18.978,13.503 18.980,12.000 18.980 C 10.497 18.980,10.453 18.978,10.160 18.886 C 9.760 18.761,9.391 18.563,9.108 18.321 C 8.410 17.723,8.088 17.081,8.005 16.121 C 7.974 15.762,7.948 15.647,7.864 15.504 C 7.480 14.847,6.518 14.853,6.129 15.514 C 6.027 15.688,6.020 15.730,6.021 16.160 C 6.022 16.660,6.098 17.103,6.268 17.600 C 6.846 19.291,8.253 20.525,10.040 20.907 C 10.337 20.971,10.585 20.980,12.000 20.980 C 13.415 20.980,13.663 20.971,13.960 20.907 C 15.488 20.580,16.748 19.630,17.433 18.288 C 17.662 17.839,17.805 17.439,17.907 16.960 C 17.976 16.639,17.980 16.256,17.980 10.160 L 17.980 3.700 17.872 3.516 C 17.628 3.101,17.150 2.915,16.695 3.057 " stroke="none" fill-rule="evenodd" fill="black"></path></svg>