<svg xmlns="http://www.w3.org/2000/svg" width="24" height="24" viewBox="0 0 24 24" fill="none" stroke="currentColor" stroke-width="2" stroke-linecap="round" stroke-linejoin="round"><path d="M6.695 3.057 C 6.466 3.129,6.256 3.299,6.128 3.516 L 6.020 3.700 6.010 11.914 C 6.003 17.333,6.013 20.180,6.040 20.278 C 6.099 20.498,6.291 20.739,6.508 20.867 L 6.700 20.980 10.220 20.980 L 13.740 20.980 14.160 20.887 C 15.411 20.612,16.414 20.066,17.269 19.195 C 18.107 18.342,18.618 17.384,18.887 16.160 L 18.980 15.740 18.980 12.000 L 18.980 8.260 18.887 7.840 C 18.618 6.616,18.107 5.658,17.269 4.805 C 16.258 3.775,15.009 3.180,13.564 3.039 C 13.353 3.019,11.758 3.003,10.020 3.004 C 7.551 3.005,6.824 3.017,6.695 3.057 M13.605 5.058 C 15.074 5.280,16.310 6.324,16.797 7.755 C 16.988 8.318,17.000 8.557,17.000 12.000 C 17.000 15.445,16.988 15.684,16.796 16.245 C 16.321 17.632,15.195 18.628,13.773 18.917 C 13.387 18.996,13.238 19.000,10.684 19.000 L 8.000 19.000 8.000 12.000 L 8.000 5.000 10.610 5.000 C 12.685 5.000,13.299 5.012,13.605 5.058 " stroke="none" fill-rule="evenodd" fill="black"></path></svg>