<svg xmlns="http://www.w3.org/2000/svg" width="24" height="24" viewBox="0 0 24 24" fill="none" stroke="currentColor" stroke-width="2" stroke-linecap="round" stroke-linejoin="round"><path d="M5.695 3.057 C 5.466 3.129,5.256 3.299,5.128 3.516 L 5.020 3.700 5.020 12.003 L 5.020 20.306 5.141 20.503 C 5.543 21.156,6.457 21.156,6.859 20.503 L 6.980 20.306 7.000 14.613 L 7.020 8.919 9.080 13.730 C 10.939 18.070,11.156 18.556,11.303 18.704 C 11.689 19.093,12.302 19.092,12.691 18.703 C 12.847 18.547,13.025 18.149,14.920 13.726 L 16.980 8.919 17.000 14.613 L 17.020 20.306 17.141 20.503 C 17.543 21.156,18.457 21.156,18.859 20.503 L 18.980 20.306 18.990 12.085 C 19.002 2.851,19.027 3.625,18.702 3.300 C 18.311 2.909,17.689 2.907,17.303 3.296 C 17.155 3.445,16.900 4.021,14.583 9.430 C 13.177 12.714,12.014 15.400,12.000 15.400 C 11.986 15.400,10.823 12.714,9.417 9.430 C 7.100 4.021,6.845 3.445,6.697 3.296 C 6.433 3.031,6.062 2.942,5.695 3.057 " stroke="none" fill-rule="evenodd" fill="black"></path></svg>