<svg xmlns="http://www.w3.org/2000/svg" width="24" height="24" viewBox="0 0 24 24" fill="none" stroke="currentColor" stroke-width="2" stroke-linecap="round" stroke-linejoin="round"><path d="M10.240 7.035 C 9.929 7.137,9.651 7.393,9.555 7.665 C 9.474 7.895,9.474 16.105,9.555 16.335 C 9.682 16.696,10.114 16.999,10.500 16.999 C 10.873 16.999,11.269 16.735,11.427 16.380 C 11.489 16.241,11.501 16.053,11.519 14.969 L 11.540 13.719 12.580 15.109 C 13.758 16.683,13.834 16.775,14.052 16.886 C 14.705 17.219,15.485 16.740,15.490 16.005 C 15.491 15.881,15.464 15.716,15.431 15.638 C 15.398 15.560,14.782 14.710,14.061 13.748 L 12.751 12.000 14.061 10.252 C 14.782 9.290,15.398 8.440,15.431 8.362 C 15.510 8.176,15.506 7.819,15.422 7.619 C 15.340 7.421,15.149 7.219,14.940 7.108 C 14.716 6.988,14.284 6.989,14.057 7.108 C 13.833 7.227,13.759 7.316,12.580 8.891 L 11.540 10.281 11.519 9.031 C 11.501 7.947,11.489 7.759,11.427 7.620 C 11.337 7.418,11.145 7.216,10.943 7.112 C 10.771 7.024,10.399 6.983,10.240 7.035 " stroke="none" fill-rule="evenodd" fill="black"></path></svg>