<svg xmlns="http://www.w3.org/2000/svg" width="24" height="24" viewBox="0 0 24 24" fill="none" stroke="currentColor" stroke-width="2" stroke-linecap="round" stroke-linejoin="round"><path d="M9.280 2.025 C 8.674 2.120,8.289 2.241,7.898 2.460 C 7.160 2.872,6.519 3.609,6.245 4.360 C 6.005 5.018,6.020 4.636,6.020 10.000 C 6.020 15.364,6.005 14.982,6.245 15.640 C 6.581 16.559,7.441 17.419,8.360 17.755 C 9.018 17.995,8.636 17.980,14.000 17.980 C 19.364 17.980,18.982 17.995,19.640 17.755 C 20.559 17.419,21.419 16.559,21.755 15.640 C 21.995 14.982,21.980 15.364,21.980 10.000 C 21.980 4.636,21.995 5.018,21.755 4.360 C 21.419 3.442,20.564 2.586,19.640 2.244 C 19.009 2.011,19.326 2.024,14.140 2.016 C 11.522 2.013,9.335 2.017,9.280 2.025 M18.926 4.111 C 19.365 4.289,19.711 4.635,19.889 5.074 L 19.980 5.300 19.991 9.856 C 19.998 12.822,19.988 14.488,19.961 14.631 C 19.843 15.269,19.372 15.777,18.740 15.946 C 18.445 16.024,9.555 16.024,9.260 15.946 C 8.632 15.778,8.160 15.273,8.040 14.642 C 7.985 14.352,7.985 5.648,8.040 5.358 C 8.164 4.707,8.689 4.170,9.327 4.042 C 9.422 4.023,11.570 4.011,14.100 4.014 L 18.700 4.020 18.926 4.111 M13.695 6.057 C 13.466 6.129,13.256 6.299,13.128 6.516 L 13.020 6.700 13.008 7.850 L 12.995 9.000 11.944 9.000 C 10.797 9.000,10.643 9.022,10.382 9.221 C 10.302 9.282,10.187 9.415,10.128 9.516 C 10.037 9.672,10.020 9.746,10.020 10.000 C 10.020 10.256,10.036 10.328,10.131 10.489 C 10.192 10.592,10.304 10.725,10.381 10.783 C 10.642 10.983,10.738 10.996,11.908 10.998 L 12.995 11.000 13.008 12.153 L 13.020 13.307 13.141 13.503 C 13.543 14.156,14.457 14.156,14.859 13.503 L 14.980 13.307 14.992 12.153 L 15.005 11.000 16.092 10.998 C 17.262 10.996,17.358 10.983,17.619 10.783 C 17.696 10.725,17.808 10.592,17.869 10.489 C 17.964 10.328,17.980 10.256,17.980 10.000 C 17.980 9.746,17.963 9.672,17.872 9.516 C 17.813 9.415,17.698 9.282,17.618 9.221 C 17.357 9.022,17.203 9.000,16.056 9.000 L 15.005 9.000 14.992 7.850 L 14.980 6.700 14.872 6.516 C 14.628 6.101,14.150 5.915,13.695 6.057 M3.512 6.404 C 2.865 6.761,2.361 7.408,2.114 8.200 L 2.020 8.500 2.020 14.040 L 2.020 19.580 2.125 19.887 C 2.297 20.391,2.495 20.704,2.897 21.104 C 3.318 21.523,3.683 21.746,4.178 21.888 L 4.500 21.980 9.980 21.980 L 15.460 21.980 15.750 21.889 C 16.345 21.702,16.841 21.307,17.231 20.710 C 17.474 20.338,17.542 20.096,17.481 19.824 C 17.425 19.574,17.357 19.448,17.193 19.294 C 16.971 19.085,16.811 19.022,16.500 19.022 C 16.071 19.022,15.847 19.170,15.518 19.670 C 15.442 19.786,15.323 19.907,15.254 19.940 C 15.144 19.992,14.473 20.000,9.991 20.000 C 4.253 20.000,4.628 20.019,4.326 19.716 C 4.240 19.630,4.135 19.492,4.094 19.410 C 4.023 19.266,4.019 19.037,4.008 14.080 C 3.999 10.313,4.009 8.856,4.041 8.740 C 4.111 8.493,4.237 8.332,4.526 8.120 C 4.887 7.855,5.016 7.603,4.994 7.206 C 4.974 6.853,4.826 6.596,4.542 6.421 C 4.376 6.319,4.300 6.298,4.043 6.289 C 3.767 6.279,3.719 6.289,3.512 6.404 " stroke="none" fill-rule="evenodd" fill="black"></path></svg>