<svg xmlns="http://www.w3.org/2000/svg" width="24" height="24" viewBox="0 0 24 24" fill="none" stroke="currentColor" stroke-width="2" stroke-linecap="round" stroke-linejoin="round"><path d="M9.280 2.025 C 8.674 2.120,8.289 2.241,7.898 2.460 C 7.160 2.872,6.519 3.609,6.245 4.360 C 6.005 5.018,6.020 4.636,6.020 10.000 C 6.020 15.364,6.005 14.982,6.245 15.640 C 6.581 16.559,7.441 17.419,8.360 17.755 C 9.018 17.995,8.636 17.980,14.000 17.980 C 19.364 17.980,18.982 17.995,19.640 17.755 C 20.559 17.419,21.419 16.559,21.755 15.640 C 21.995 14.982,21.980 15.364,21.980 10.000 C 21.980 4.636,21.995 5.018,21.755 4.360 C 21.419 3.442,20.564 2.586,19.640 2.244 C 19.009 2.011,19.326 2.024,14.140 2.016 C 11.522 2.013,9.335 2.017,9.280 2.025 M18.926 4.111 C 19.365 4.289,19.711 4.635,19.889 5.074 L 19.980 5.300 19.992 7.937 L 20.003 10.574 19.392 9.977 C 18.718 9.320,18.482 9.167,17.971 9.059 C 17.627 8.986,17.372 8.986,17.020 9.060 C 16.517 9.166,16.285 9.317,15.609 9.976 L 14.998 10.573 13.889 9.475 C 12.923 8.519,12.745 8.360,12.511 8.247 C 11.856 7.929,11.122 7.929,10.480 8.249 C 10.260 8.358,10.049 8.548,9.110 9.476 L 8.000 10.574 8.000 8.073 C 8.000 6.559,8.016 5.487,8.040 5.358 C 8.164 4.707,8.689 4.170,9.327 4.042 C 9.422 4.023,11.570 4.011,14.100 4.014 L 18.700 4.020 18.926 4.111 M16.695 6.055 C 16.464 6.130,16.255 6.300,16.128 6.516 C 16.037 6.672,16.020 6.746,16.020 7.000 C 16.020 7.257,16.036 7.327,16.133 7.492 C 16.651 8.374,17.998 8.018,17.998 7.000 C 17.998 6.623,17.792 6.281,17.463 6.112 C 17.265 6.010,16.911 5.984,16.695 6.055 M3.512 6.404 C 2.865 6.761,2.361 7.408,2.114 8.200 L 2.020 8.500 2.020 14.040 L 2.020 19.580 2.125 19.887 C 2.297 20.391,2.495 20.704,2.897 21.104 C 3.318 21.523,3.683 21.746,4.178 21.888 L 4.500 21.980 9.980 21.980 L 15.460 21.980 15.750 21.889 C 16.345 21.702,16.841 21.307,17.231 20.710 C 17.474 20.338,17.542 20.096,17.481 19.824 C 17.425 19.574,17.357 19.448,17.193 19.294 C 16.971 19.085,16.811 19.022,16.500 19.022 C 16.071 19.022,15.847 19.170,15.518 19.670 C 15.442 19.786,15.323 19.907,15.254 19.940 C 15.144 19.992,14.473 20.000,9.991 20.000 C 4.253 20.000,4.628 20.019,4.326 19.716 C 4.240 19.630,4.135 19.492,4.094 19.410 C 4.023 19.266,4.019 19.037,4.008 14.080 C 3.999 10.313,4.009 8.856,4.041 8.740 C 4.111 8.493,4.237 8.332,4.526 8.120 C 4.887 7.855,5.016 7.603,4.994 7.206 C 4.974 6.853,4.826 6.596,4.542 6.421 C 4.376 6.319,4.300 6.298,4.043 6.289 C 3.767 6.279,3.719 6.289,3.512 6.404 M13.499 11.916 C 14.555 12.969,15.481 13.862,15.555 13.899 C 16.009 14.128,16.601 13.944,16.867 13.492 C 16.964 13.327,16.980 13.258,16.979 13.000 C 16.978 12.646,16.924 12.524,16.627 12.210 L 16.423 11.994 16.925 11.497 C 17.210 11.214,17.459 11.000,17.502 11.000 C 17.547 11.000,18.058 11.480,18.788 12.209 L 20.000 13.418 20.000 13.924 C 20.000 14.505,19.959 14.767,19.822 15.068 C 19.706 15.320,19.366 15.674,19.117 15.802 C 18.721 16.004,18.851 15.999,14.000 15.999 C 9.149 15.999,9.279 16.004,8.883 15.802 C 8.634 15.674,8.294 15.320,8.178 15.068 C 8.041 14.767,8.000 14.505,8.000 13.924 L 8.000 13.419 9.711 11.709 C 10.789 10.633,11.451 10.000,11.500 10.000 C 11.549 10.000,12.287 10.707,13.499 11.916 " stroke="none" fill-rule="evenodd" fill="black"></path></svg>