<svg xmlns="http://www.w3.org/2000/svg" width="24" height="24" viewBox="0 0 24 24" fill="none" stroke="currentColor" stroke-width="2" stroke-linecap="round" stroke-linejoin="round"><path d="M6.499 2.043 C 5.383 2.230,4.461 3.048,4.114 4.160 L 4.020 4.460 4.020 7.500 L 4.020 10.540 4.114 10.840 C 4.419 11.817,5.159 12.563,6.140 12.884 C 6.403 12.969,6.498 12.976,7.708 12.991 L 8.997 13.007 9.009 16.293 L 9.021 19.580 9.114 19.860 C 9.445 20.850,10.184 21.582,11.160 21.886 L 11.460 21.980 14.500 21.980 L 17.540 21.980 17.840 21.886 C 18.827 21.578,19.578 20.827,19.886 19.840 L 19.980 19.540 19.980 15.620 L 19.980 11.700 19.872 11.516 C 19.813 11.415,19.698 11.282,19.618 11.221 C 19.320 10.994,19.453 11.000,15.054 11.000 L 11.001 11.000 10.991 6.850 L 10.980 2.700 10.872 2.516 C 10.813 2.415,10.698 2.282,10.618 2.221 C 10.338 2.008,10.256 2.000,8.404 2.005 C 7.467 2.007,6.609 2.025,6.499 2.043 M15.700 3.056 C 15.443 3.137,15.385 3.187,14.782 3.862 C 13.414 5.392,13.329 5.507,13.127 6.113 C 13.039 6.379,13.025 6.491,13.023 6.960 C 13.020 7.588,13.076 7.849,13.318 8.340 C 13.676 9.065,14.358 9.638,15.160 9.885 C 15.552 10.006,16.357 10.019,16.760 9.910 C 17.757 9.641,18.573 8.846,18.886 7.840 C 19.021 7.406,19.021 6.593,18.886 6.161 C 18.766 5.779,18.609 5.470,18.403 5.209 C 18.088 4.810,16.756 3.339,16.594 3.211 C 16.333 3.004,16.031 2.952,15.700 3.056 M9.000 7.502 L 9.000 11.005 7.850 10.992 L 6.700 10.980 6.516 10.872 C 6.415 10.813,6.284 10.700,6.225 10.623 C 5.996 10.323,6.000 10.378,6.000 7.522 C 6.000 4.529,5.992 4.614,6.304 4.303 C 6.582 4.024,6.680 4.006,7.930 4.003 L 9.000 4.000 9.000 7.502 M16.368 5.911 C 16.835 6.438,16.873 6.489,16.941 6.682 C 17.063 7.030,16.973 7.417,16.706 7.692 C 16.179 8.234,15.274 8.016,15.057 7.295 C 14.921 6.845,15.007 6.620,15.549 6.007 C 15.785 5.739,15.988 5.520,16.000 5.520 C 16.012 5.520,16.178 5.696,16.368 5.911 M18.000 16.054 C 18.000 19.367,18.003 19.325,17.779 19.618 C 17.718 19.698,17.585 19.813,17.484 19.872 L 17.300 19.980 14.500 19.980 L 11.700 19.980 11.516 19.872 C 11.415 19.813,11.284 19.700,11.225 19.623 C 10.994 19.320,11.000 19.418,11.000 16.075 L 11.000 13.000 14.500 13.000 L 18.000 13.000 18.000 16.054 " stroke="none" fill-rule="evenodd" fill="black"></path></svg>