<svg xmlns="http://www.w3.org/2000/svg" width="24" height="24" viewBox="0 0 24 24" fill="none" stroke="currentColor" stroke-width="2" stroke-linecap="round" stroke-linejoin="round"><path d="M5.580 4.096 C 5.424 4.171,5.029 4.545,3.774 5.806 C 2.891 6.694,2.135 7.483,2.095 7.560 C 2.043 7.659,2.021 7.788,2.021 8.000 C 2.020 8.258,2.036 8.327,2.133 8.492 C 2.263 8.714,2.502 8.901,2.736 8.965 C 2.939 9.019,3.267 8.989,3.445 8.899 C 3.519 8.861,3.900 8.514,4.290 8.127 L 5.000 7.423 5.000 11.998 L 5.000 16.574 4.270 15.854 C 3.655 15.247,3.509 15.123,3.343 15.067 C 2.865 14.905,2.383 15.083,2.128 15.516 C 2.036 15.672,2.020 15.745,2.021 16.000 C 2.021 16.212,2.043 16.341,2.095 16.440 C 2.135 16.517,2.891 17.306,3.774 18.194 C 5.528 19.957,5.580 19.999,6.000 19.999 C 6.420 19.999,6.472 19.957,8.226 18.194 C 9.109 17.306,9.865 16.517,9.905 16.440 C 9.957 16.341,9.979 16.212,9.979 16.000 C 9.980 15.745,9.964 15.672,9.872 15.516 C 9.617 15.083,9.135 14.905,8.657 15.067 C 8.491 15.123,8.345 15.247,7.730 15.854 L 7.000 16.574 7.000 11.998 L 7.000 7.423 7.710 8.127 C 8.101 8.514,8.483 8.864,8.560 8.904 C 8.660 8.957,8.787 8.979,9.000 8.979 C 9.258 8.980,9.327 8.964,9.492 8.867 C 9.714 8.737,9.901 8.498,9.965 8.264 C 10.019 8.061,9.989 7.733,9.899 7.555 C 9.862 7.481,9.109 6.694,8.226 5.806 C 6.971 4.545,6.576 4.171,6.420 4.096 C 6.151 3.968,5.849 3.968,5.580 4.096 M12.695 5.057 C 12.466 5.129,12.256 5.299,12.128 5.516 C 12.037 5.672,12.020 5.746,12.020 6.000 C 12.020 6.256,12.036 6.328,12.131 6.489 C 12.256 6.702,12.449 6.864,12.670 6.943 C 12.891 7.022,20.109 7.022,20.330 6.943 C 20.551 6.864,20.744 6.702,20.869 6.489 C 20.964 6.328,20.980 6.256,20.980 6.000 C 20.980 5.746,20.963 5.672,20.872 5.516 C 20.740 5.293,20.533 5.128,20.290 5.055 C 20.030 4.977,12.945 4.979,12.695 5.057 M12.695 11.057 C 12.466 11.129,12.256 11.299,12.128 11.516 C 12.037 11.672,12.020 11.746,12.020 12.000 C 12.020 12.256,12.036 12.328,12.131 12.489 C 12.256 12.702,12.449 12.864,12.670 12.943 C 12.891 13.022,20.109 13.022,20.330 12.943 C 20.551 12.864,20.744 12.702,20.869 12.489 C 20.964 12.328,20.980 12.256,20.980 12.000 C 20.980 11.746,20.963 11.672,20.872 11.516 C 20.740 11.293,20.533 11.128,20.290 11.055 C 20.030 10.977,12.945 10.979,12.695 11.057 M12.695 17.057 C 12.466 17.129,12.256 17.299,12.128 17.516 C 12.037 17.672,12.020 17.746,12.020 18.000 C 12.020 18.256,12.036 18.328,12.131 18.489 C 12.256 18.702,12.449 18.864,12.670 18.943 C 12.891 19.022,20.109 19.022,20.330 18.943 C 20.551 18.864,20.744 18.702,20.869 18.489 C 20.964 18.328,20.980 18.256,20.980 18.000 C 20.980 17.746,20.963 17.672,20.872 17.516 C 20.740 17.293,20.533 17.128,20.290 17.055 C 20.030 16.977,12.945 16.979,12.695 17.057 " stroke="none" fill-rule="evenodd" fill="black"></path></svg>