<svg xmlns="http://www.w3.org/2000/svg" width="24" height="24" viewBox="0 0 24 24" fill="none" stroke="currentColor" stroke-width="2" stroke-linecap="round" stroke-linejoin="round"><path d="M14.340 3.044 C 12.850 3.197,11.453 3.939,10.445 5.113 C 10.101 5.514,10.040 5.625,10.011 5.900 C 9.937 6.622,10.627 7.168,11.325 6.939 C 11.500 6.882,11.588 6.816,11.800 6.585 C 12.510 5.812,12.925 5.510,13.650 5.241 C 14.436 4.949,15.454 4.935,16.250 5.205 C 17.229 5.538,18.077 6.263,18.536 7.160 C 18.873 7.819,18.977 8.253,18.977 9.000 C 18.977 9.300,18.954 9.647,18.924 9.780 C 18.760 10.524,18.391 11.224,17.860 11.798 C 17.657 12.017,17.616 12.092,17.560 12.341 C 17.425 12.943,17.905 13.521,18.538 13.519 C 18.867 13.518,19.058 13.422,19.358 13.109 C 21.566 10.800,21.535 7.114,19.289 4.824 C 17.973 3.483,16.216 2.851,14.340 3.044 M14.640 8.068 C 14.485 8.121,14.036 8.553,11.347 11.235 C 9.570 13.008,8.188 14.417,8.127 14.520 C 8.036 14.672,8.020 14.746,8.020 15.000 C 8.020 15.257,8.036 15.327,8.133 15.492 C 8.263 15.714,8.502 15.901,8.736 15.965 C 8.938 16.019,9.266 15.989,9.445 15.899 C 9.630 15.807,15.737 9.707,15.873 9.480 C 15.964 9.328,15.980 9.254,15.980 9.000 C 15.980 8.746,15.963 8.672,15.872 8.516 C 15.617 8.083,15.122 7.903,14.640 8.068 M5.670 10.057 C 5.493 10.120,5.266 10.300,4.805 10.740 C 3.951 11.555,3.384 12.595,3.113 13.846 C 2.984 14.444,2.984 15.557,3.114 16.154 C 3.385 17.406,3.959 18.456,4.825 19.280 C 5.519 19.942,6.135 20.324,7.020 20.642 C 9.134 21.400,11.495 20.914,13.157 19.377 C 13.314 19.232,13.449 19.063,13.506 18.940 C 13.810 18.289,13.328 17.552,12.600 17.552 C 12.309 17.552,12.088 17.650,11.800 17.907 C 11.461 18.209,11.286 18.335,10.960 18.510 C 8.733 19.710,5.945 18.584,5.189 16.180 C 4.926 15.344,4.960 14.340,5.278 13.559 C 5.544 12.905,5.878 12.447,6.475 11.917 C 6.879 11.559,6.980 11.371,6.980 10.980 C 6.980 10.746,6.962 10.669,6.869 10.511 C 6.625 10.096,6.109 9.900,5.670 10.057 M18.695 15.057 C 18.466 15.129,18.256 15.299,18.128 15.516 L 18.020 15.700 18.008 16.850 L 17.995 18.000 16.944 18.000 C 15.797 18.000,15.643 18.022,15.382 18.221 C 15.302 18.282,15.187 18.415,15.128 18.516 C 15.037 18.672,15.020 18.746,15.020 19.000 C 15.020 19.256,15.036 19.328,15.131 19.489 C 15.192 19.592,15.304 19.725,15.381 19.783 C 15.642 19.983,15.738 19.996,16.908 19.998 L 17.995 20.000 18.008 21.153 L 18.020 22.307 18.141 22.503 C 18.543 23.156,19.457 23.156,19.859 22.503 L 19.980 22.307 19.992 21.153 L 20.005 20.000 21.092 19.998 C 22.262 19.996,22.358 19.983,22.619 19.783 C 22.696 19.725,22.808 19.592,22.869 19.489 C 22.964 19.328,22.980 19.256,22.980 19.000 C 22.980 18.746,22.963 18.672,22.872 18.516 C 22.813 18.415,22.698 18.282,22.618 18.221 C 22.357 18.022,22.203 18.000,21.056 18.000 L 20.005 18.000 19.992 16.850 L 19.980 15.700 19.872 15.516 C 19.628 15.101,19.150 14.915,18.695 15.057 " stroke="none" fill-rule="evenodd" fill="black"></path></svg>