<svg xmlns="http://www.w3.org/2000/svg" width="24" height="24" viewBox="0 0 24 24" fill="none" stroke="currentColor" stroke-width="2" stroke-linecap="round" stroke-linejoin="round"><path d="M7.080 3.603 C 6.951 3.661,6.629 3.954,5.951 4.631 L 5.001 5.577 4.548 5.130 C 4.032 4.620,3.863 4.522,3.498 4.521 C 2.700 4.518,2.228 5.408,2.682 6.060 C 2.845 6.295,4.396 7.818,4.560 7.905 C 4.660 7.957,4.787 7.979,5.000 7.979 C 5.255 7.980,5.327 7.964,5.480 7.873 C 5.579 7.814,6.258 7.166,6.988 6.433 C 8.006 5.411,8.335 5.057,8.398 4.914 C 8.695 4.241,8.230 3.518,7.502 3.521 C 7.346 3.521,7.196 3.551,7.080 3.603 M10.695 5.057 C 10.466 5.129,10.256 5.299,10.128 5.516 C 10.037 5.672,10.020 5.746,10.020 6.000 C 10.020 6.256,10.036 6.328,10.131 6.489 C 10.256 6.702,10.449 6.864,10.670 6.943 C 10.892 7.022,20.108 7.022,20.330 6.943 C 20.551 6.864,20.744 6.702,20.869 6.489 C 20.964 6.328,20.980 6.256,20.980 6.000 C 20.980 5.746,20.963 5.672,20.872 5.516 C 20.740 5.293,20.533 5.128,20.290 5.055 C 20.029 4.976,10.946 4.978,10.695 5.057 M7.080 9.603 C 6.951 9.661,6.629 9.954,5.951 10.631 L 5.001 11.577 4.548 11.130 C 4.032 10.620,3.863 10.522,3.498 10.521 C 2.700 10.518,2.228 11.408,2.682 12.060 C 2.845 12.295,4.396 13.818,4.560 13.905 C 4.660 13.957,4.787 13.979,5.000 13.979 C 5.255 13.980,5.327 13.964,5.480 13.873 C 5.579 13.814,6.258 13.166,6.988 12.433 C 8.006 11.411,8.335 11.057,8.398 10.914 C 8.695 10.241,8.230 9.518,7.502 9.521 C 7.346 9.521,7.196 9.551,7.080 9.603 M10.695 11.057 C 10.466 11.129,10.256 11.299,10.128 11.516 C 10.037 11.672,10.020 11.746,10.020 12.000 C 10.020 12.256,10.036 12.328,10.131 12.489 C 10.256 12.702,10.449 12.864,10.670 12.943 C 10.892 13.022,20.108 13.022,20.330 12.943 C 20.551 12.864,20.744 12.702,20.869 12.489 C 20.964 12.328,20.980 12.256,20.980 12.000 C 20.980 11.746,20.963 11.672,20.872 11.516 C 20.740 11.293,20.533 11.128,20.290 11.055 C 20.029 10.976,10.946 10.978,10.695 11.057 M7.080 15.603 C 6.951 15.661,6.629 15.954,5.951 16.631 L 5.001 17.577 4.548 17.130 C 4.032 16.620,3.863 16.522,3.498 16.521 C 2.700 16.518,2.228 17.408,2.682 18.060 C 2.845 18.295,4.396 19.818,4.560 19.905 C 4.660 19.957,4.787 19.979,5.000 19.979 C 5.255 19.980,5.327 19.964,5.480 19.873 C 5.579 19.814,6.258 19.166,6.988 18.433 C 8.006 17.411,8.335 17.057,8.398 16.914 C 8.695 16.241,8.230 15.518,7.502 15.521 C 7.346 15.521,7.196 15.551,7.080 15.603 M10.695 17.057 C 10.466 17.129,10.256 17.299,10.128 17.516 C 10.037 17.672,10.020 17.746,10.020 18.000 C 10.020 18.256,10.036 18.328,10.131 18.489 C 10.256 18.702,10.449 18.864,10.670 18.943 C 10.892 19.022,20.108 19.022,20.330 18.943 C 20.551 18.864,20.744 18.702,20.869 18.489 C 20.964 18.328,20.980 18.256,20.980 18.000 C 20.980 17.746,20.963 17.672,20.872 17.516 C 20.740 17.293,20.533 17.128,20.290 17.055 C 20.029 16.976,10.946 16.978,10.695 17.057 " stroke="none" fill-rule="evenodd" fill="black"></path></svg>