<svg xmlns="http://www.w3.org/2000/svg" width="24" height="24" viewBox="0 0 24 24" fill="none" stroke="currentColor" stroke-width="2" stroke-linecap="round" stroke-linejoin="round"><path d="M4.695 5.057 C 4.466 5.129,4.256 5.299,4.128 5.516 C 4.036 5.672,4.020 5.745,4.021 6.000 C 4.022 6.332,4.101 6.533,4.306 6.728 C 4.785 7.181,5.580 7.046,5.893 6.460 C 6.025 6.211,6.015 5.760,5.872 5.516 C 5.628 5.101,5.150 4.915,4.695 5.057 M8.695 5.057 C 8.466 5.129,8.256 5.299,8.128 5.516 C 8.037 5.672,8.020 5.746,8.020 6.000 C 8.020 6.256,8.036 6.328,8.131 6.489 C 8.256 6.702,8.449 6.864,8.670 6.943 C 8.793 6.987,9.856 6.996,14.500 6.996 C 19.144 6.996,20.207 6.987,20.330 6.943 C 20.551 6.864,20.744 6.702,20.869 6.489 C 20.964 6.328,20.980 6.256,20.980 6.000 C 20.980 5.746,20.963 5.672,20.872 5.516 C 20.740 5.293,20.533 5.128,20.290 5.055 C 20.028 4.976,8.947 4.978,8.695 5.057 M4.695 11.057 C 4.466 11.129,4.256 11.299,4.128 11.516 C 4.036 11.672,4.020 11.745,4.021 12.000 C 4.022 12.332,4.101 12.533,4.306 12.728 C 4.785 13.181,5.580 13.046,5.893 12.460 C 6.025 12.211,6.015 11.760,5.872 11.516 C 5.628 11.101,5.150 10.915,4.695 11.057 M8.695 11.057 C 8.466 11.129,8.256 11.299,8.128 11.516 C 8.037 11.672,8.020 11.746,8.020 12.000 C 8.020 12.256,8.036 12.328,8.131 12.489 C 8.256 12.702,8.449 12.864,8.670 12.943 C 8.793 12.987,9.856 12.996,14.500 12.996 C 19.144 12.996,20.207 12.987,20.330 12.943 C 20.551 12.864,20.744 12.702,20.869 12.489 C 20.964 12.328,20.980 12.256,20.980 12.000 C 20.980 11.746,20.963 11.672,20.872 11.516 C 20.740 11.293,20.533 11.128,20.290 11.055 C 20.028 10.976,8.947 10.978,8.695 11.057 M4.695 17.057 C 4.466 17.129,4.256 17.299,4.128 17.516 C 4.036 17.672,4.020 17.745,4.021 18.000 C 4.022 18.332,4.101 18.533,4.306 18.728 C 4.785 19.181,5.580 19.046,5.893 18.460 C 6.025 18.211,6.015 17.760,5.872 17.516 C 5.628 17.101,5.150 16.915,4.695 17.057 M8.695 17.057 C 8.466 17.129,8.256 17.299,8.128 17.516 C 8.037 17.672,8.020 17.746,8.020 18.000 C 8.020 18.256,8.036 18.328,8.131 18.489 C 8.256 18.702,8.449 18.864,8.670 18.943 C 8.793 18.987,9.856 18.996,14.500 18.996 C 19.144 18.996,20.207 18.987,20.330 18.943 C 20.551 18.864,20.744 18.702,20.869 18.489 C 20.964 18.328,20.980 18.256,20.980 18.000 C 20.980 17.746,20.963 17.672,20.872 17.516 C 20.740 17.293,20.533 17.128,20.290 17.055 C 20.028 16.976,8.947 16.978,8.695 17.057 " stroke="none" fill-rule="evenodd" fill="black"></path></svg>