<svg xmlns="http://www.w3.org/2000/svg" width="24" height="24" viewBox="0 0 24 24" fill="none" stroke="currentColor" stroke-width="2" stroke-linecap="round" stroke-linejoin="round"><path d="M4.960 3.062 C 4.605 3.138,4.107 3.393,3.832 3.639 C 3.532 3.907,3.239 4.352,3.118 4.722 L 3.020 5.020 3.020 7.663 L 3.020 10.306 3.141 10.503 C 3.543 11.156,4.457 11.156,4.859 10.503 C 4.979 10.308,4.980 10.300,4.993 9.653 L 5.007 9.000 5.500 9.000 L 5.993 9.000 6.007 9.653 C 6.020 10.300,6.021 10.308,6.141 10.503 C 6.543 11.156,7.457 11.156,7.859 10.503 L 7.980 10.306 7.980 7.643 L 7.980 4.980 7.869 4.680 C 7.430 3.486,6.192 2.798,4.960 3.062 M5.724 5.062 C 5.790 5.096,5.879 5.182,5.922 5.252 C 5.992 5.368,6.000 5.457,6.000 6.190 L 6.000 7.000 5.500 7.000 L 5.000 7.000 5.000 6.198 C 5.000 5.307,5.020 5.220,5.252 5.078 C 5.406 4.984,5.563 4.979,5.724 5.062 M10.695 5.057 C 10.466 5.129,10.256 5.299,10.128 5.516 C 10.037 5.672,10.020 5.746,10.020 6.000 C 10.020 6.256,10.036 6.328,10.131 6.489 C 10.256 6.702,10.449 6.864,10.670 6.943 C 10.892 7.022,20.108 7.022,20.330 6.943 C 20.551 6.864,20.744 6.702,20.869 6.489 C 20.964 6.328,20.980 6.256,20.980 6.000 C 20.980 5.746,20.963 5.672,20.872 5.516 C 20.740 5.293,20.533 5.128,20.290 5.055 C 20.029 4.976,10.946 4.978,10.695 5.057 M10.695 11.057 C 10.466 11.129,10.256 11.299,10.128 11.516 C 10.037 11.672,10.020 11.746,10.020 12.000 C 10.020 12.256,10.036 12.328,10.131 12.489 C 10.256 12.702,10.449 12.864,10.670 12.943 C 10.892 13.022,20.108 13.022,20.330 12.943 C 20.551 12.864,20.744 12.702,20.869 12.489 C 20.964 12.328,20.980 12.256,20.980 12.000 C 20.980 11.746,20.963 11.672,20.872 11.516 C 20.740 11.293,20.533 11.128,20.290 11.055 C 20.029 10.976,10.946 10.978,10.695 11.057 M3.695 13.057 C 3.466 13.129,3.256 13.299,3.128 13.516 L 3.020 13.700 3.009 16.912 C 3.002 19.005,3.012 20.177,3.039 20.276 C 3.099 20.498,3.290 20.739,3.508 20.867 L 3.700 20.980 4.860 20.980 L 6.020 20.980 6.320 20.869 C 7.041 20.604,7.606 20.039,7.867 19.320 C 7.965 19.051,7.976 18.966,7.976 18.500 C 7.976 18.035,7.965 17.949,7.868 17.684 C 7.809 17.521,7.705 17.301,7.636 17.194 L 7.512 17.000 7.636 16.806 C 7.705 16.699,7.809 16.479,7.868 16.316 C 7.965 16.051,7.976 15.965,7.976 15.500 C 7.976 15.035,7.965 14.948,7.868 14.680 C 7.732 14.306,7.458 13.898,7.165 13.636 C 6.887 13.387,6.390 13.137,6.020 13.060 C 5.650 12.982,3.940 12.980,3.695 13.057 M5.748 15.078 C 6.076 15.278,6.076 15.722,5.748 15.922 C 5.650 15.981,5.547 16.000,5.310 16.000 L 5.000 16.000 5.000 15.500 L 5.000 15.000 5.310 15.000 C 5.547 15.000,5.650 15.019,5.748 15.078 M10.695 17.057 C 10.466 17.129,10.256 17.299,10.128 17.516 C 10.037 17.672,10.020 17.746,10.020 18.000 C 10.020 18.256,10.036 18.328,10.131 18.489 C 10.256 18.702,10.449 18.864,10.670 18.943 C 10.892 19.022,20.108 19.022,20.330 18.943 C 20.551 18.864,20.744 18.702,20.869 18.489 C 20.964 18.328,20.980 18.256,20.980 18.000 C 20.980 17.746,20.963 17.672,20.872 17.516 C 20.740 17.293,20.533 17.128,20.290 17.055 C 20.029 16.976,10.946 16.978,10.695 17.057 M5.748 18.078 C 6.076 18.278,6.076 18.722,5.748 18.922 C 5.650 18.981,5.547 19.000,5.310 19.000 L 5.000 19.000 5.000 18.500 L 5.000 18.000 5.310 18.000 C 5.547 18.000,5.650 18.019,5.748 18.078 " stroke="none" fill-rule="evenodd" fill="black"></path></svg>