<svg xmlns="http://www.w3.org/2000/svg" width="24" height="24" viewBox="0 0 24 24" fill="none" stroke="currentColor" stroke-width="2" stroke-linecap="round" stroke-linejoin="round"><path d="M2.670 2.061 C 2.448 2.142,2.250 2.309,2.128 2.516 C 2.036 2.672,2.020 2.745,2.021 3.000 C 2.021 3.213,2.043 3.341,2.095 3.440 C 2.136 3.517,2.636 4.050,3.207 4.624 L 4.246 5.668 4.143 5.819 C 3.838 6.268,3.940 6.891,4.369 7.202 C 4.705 7.445,5.139 7.460,5.493 7.240 L 5.694 7.114 6.397 7.817 C 7.075 8.495,7.097 8.523,7.042 8.610 C 6.480 9.485,6.163 10.334,6.037 11.300 C 5.978 11.751,6.009 12.662,6.100 13.120 C 6.581 15.558,8.442 17.419,10.880 17.900 C 11.338 17.991,12.249 18.022,12.700 17.963 C 13.666 17.837,14.515 17.520,15.390 16.959 C 15.477 16.903,15.555 16.975,17.950 19.366 C 19.308 20.722,20.483 21.865,20.560 21.905 C 20.659 21.957,20.788 21.979,21.000 21.979 C 21.258 21.980,21.327 21.964,21.492 21.867 C 21.714 21.737,21.901 21.498,21.965 21.264 C 22.019 21.061,21.989 20.733,21.899 20.555 C 21.862 20.481,21.362 19.948,20.788 19.371 C 19.803 18.381,19.749 18.319,19.810 18.251 C 19.927 18.121,20.038 17.824,20.039 17.637 C 20.042 17.069,19.606 16.628,19.040 16.628 C 18.789 16.628,18.625 16.684,18.390 16.850 C 18.328 16.894,17.473 16.053,10.930 9.515 C 4.111 2.700,3.525 2.125,3.343 2.065 C 3.107 1.987,2.874 1.986,2.670 2.061 M11.695 2.057 C 11.466 2.129,11.256 2.299,11.128 2.516 C 10.985 2.760,10.975 3.211,11.107 3.460 C 11.490 4.177,12.510 4.177,12.893 3.460 C 13.025 3.211,13.015 2.760,12.872 2.516 C 12.628 2.101,12.150 1.915,11.695 2.057 M7.880 2.925 C 7.367 3.023,7.016 3.571,7.128 4.099 C 7.279 4.806,8.098 5.118,8.693 4.694 C 9.031 4.454,9.189 3.899,9.029 3.515 C 8.846 3.077,8.367 2.831,7.880 2.925 M15.680 2.925 C 15.167 3.023,14.816 3.571,14.928 4.099 C 15.079 4.806,15.898 5.118,16.493 4.694 C 16.831 4.454,16.989 3.899,16.829 3.515 C 16.646 3.077,16.167 2.831,15.680 2.925 M18.640 5.483 C 18.243 5.663,18.062 5.949,18.061 6.403 C 18.060 6.671,18.074 6.729,18.181 6.903 C 18.583 7.556,19.497 7.556,19.899 6.903 C 20.006 6.729,20.020 6.671,20.019 6.403 C 20.018 6.172,19.998 6.062,19.933 5.940 C 19.754 5.605,19.417 5.402,19.040 5.402 C 18.904 5.402,18.751 5.433,18.640 5.483 M11.480 6.025 C 11.006 6.083,10.776 6.131,10.647 6.197 C 10.229 6.412,10.026 6.921,10.163 7.413 C 10.221 7.622,10.530 7.930,10.773 8.021 C 10.951 8.088,11.005 8.089,11.465 8.041 C 12.794 7.902,13.924 8.286,14.819 9.181 C 15.378 9.739,15.760 10.447,15.922 11.220 C 15.982 11.509,15.993 12.246,15.945 12.740 C 15.913 13.068,15.917 13.119,15.997 13.305 C 16.230 13.846,16.835 14.074,17.352 13.816 C 17.741 13.622,17.879 13.363,17.963 12.664 C 18.096 11.569,17.876 10.352,17.357 9.304 C 16.543 7.660,14.944 6.464,13.072 6.099 C 12.749 6.036,11.762 5.990,11.480 6.025 M2.960 9.035 C 2.403 9.218,2.125 9.755,2.284 10.340 C 2.341 10.549,2.693 10.898,2.906 10.957 C 3.333 11.075,3.768 10.941,4.018 10.615 C 4.405 10.108,4.239 9.405,3.663 9.112 C 3.491 9.024,3.118 8.983,2.960 9.035 M20.469 9.055 C 20.144 9.176,19.931 9.389,19.817 9.709 C 19.747 9.905,19.747 10.064,19.816 10.293 C 19.976 10.826,20.531 11.113,21.096 10.956 C 21.306 10.898,21.658 10.546,21.716 10.336 C 21.855 9.836,21.653 9.333,21.223 9.112 C 21.021 9.008,20.666 8.981,20.469 9.055 M9.324 10.744 L 10.070 11.489 10.036 11.634 C 9.942 12.037,10.047 12.629,10.279 13.013 C 10.714 13.731,11.611 14.140,12.366 13.964 L 12.511 13.930 13.264 14.684 C 13.678 15.098,14.008 15.445,13.998 15.454 C 13.941 15.506,13.501 15.705,13.264 15.785 C 12.604 16.010,11.890 16.058,11.234 15.922 C 10.389 15.747,9.781 15.425,9.198 14.842 C 7.983 13.627,7.668 11.868,8.389 10.310 C 8.468 10.139,8.543 10.000,8.556 10.000 C 8.569 10.000,8.915 10.335,9.324 10.744 M2.960 13.035 C 2.403 13.218,2.125 13.755,2.284 14.340 C 2.341 14.549,2.693 14.898,2.906 14.957 C 3.333 15.075,3.768 14.941,4.018 14.615 C 4.405 14.108,4.239 13.405,3.663 13.112 C 3.491 13.024,3.118 12.983,2.960 13.035 M20.469 13.055 C 20.144 13.176,19.931 13.389,19.817 13.709 C 19.747 13.905,19.747 14.064,19.816 14.293 C 19.976 14.826,20.531 15.113,21.096 14.956 C 21.306 14.898,21.658 14.546,21.716 14.336 C 21.855 13.836,21.653 13.333,21.223 13.112 C 21.021 13.008,20.666 12.981,20.469 13.055 M4.760 16.637 C 4.138 16.764,3.787 17.454,4.055 18.020 C 4.236 18.401,4.555 18.608,4.960 18.608 C 5.365 18.608,5.684 18.401,5.865 18.020 C 6.148 17.422,5.745 16.707,5.080 16.629 C 4.981 16.618,4.837 16.621,4.760 16.637 M7.746 19.176 C 7.243 19.363,6.969 20.002,7.178 20.502 C 7.323 20.850,7.726 21.119,8.100 21.119 C 8.474 21.119,8.877 20.850,9.022 20.502 C 9.112 20.286,9.107 19.932,9.010 19.715 C 8.924 19.521,8.724 19.307,8.540 19.211 C 8.374 19.124,7.937 19.105,7.746 19.176 M15.546 19.176 C 15.043 19.363,14.769 20.002,14.978 20.502 C 15.123 20.850,15.526 21.119,15.900 21.119 C 16.274 21.119,16.677 20.850,16.822 20.502 C 16.912 20.286,16.907 19.932,16.810 19.715 C 16.724 19.521,16.524 19.307,16.340 19.211 C 16.174 19.124,15.737 19.105,15.546 19.176 M11.695 20.057 C 11.466 20.129,11.256 20.299,11.128 20.516 C 11.036 20.672,11.020 20.745,11.021 21.000 C 11.022 21.332,11.101 21.533,11.306 21.728 C 11.785 22.181,12.580 22.046,12.893 21.460 C 13.025 21.211,13.015 20.760,12.872 20.516 C 12.628 20.101,12.150 19.915,11.695 20.057 " stroke="none" fill-rule="evenodd" fill="black"></path></svg>