<svg xmlns="http://www.w3.org/2000/svg" width="24" height="24" viewBox="0 0 24 24" fill="none" stroke="currentColor" stroke-width="2" stroke-linecap="round" stroke-linejoin="round"><path d="M11.695 2.057 C 11.466 2.129,11.256 2.299,11.128 2.516 C 10.985 2.760,10.975 3.211,11.107 3.460 C 11.490 4.177,12.510 4.177,12.893 3.460 C 13.025 3.211,13.015 2.760,12.872 2.516 C 12.628 2.101,12.150 1.915,11.695 2.057 M7.880 2.925 C 7.367 3.023,7.016 3.571,7.128 4.099 C 7.279 4.806,8.098 5.118,8.693 4.694 C 9.031 4.454,9.189 3.899,9.029 3.515 C 8.846 3.077,8.367 2.831,7.880 2.925 M15.680 2.925 C 15.167 3.023,14.816 3.571,14.928 4.099 C 15.079 4.806,15.898 5.118,16.493 4.694 C 16.831 4.454,16.989 3.899,16.829 3.515 C 16.646 3.077,16.167 2.831,15.680 2.925 M4.560 5.483 C 4.163 5.663,3.982 5.949,3.981 6.403 C 3.980 6.671,3.994 6.729,4.101 6.903 C 4.503 7.556,5.417 7.556,5.819 6.903 C 5.926 6.729,5.940 6.671,5.939 6.403 C 5.938 6.172,5.918 6.062,5.853 5.940 C 5.674 5.605,5.337 5.402,4.960 5.402 C 4.824 5.402,4.671 5.433,4.560 5.483 M18.640 5.483 C 18.243 5.663,18.062 5.949,18.061 6.403 C 18.060 6.671,18.074 6.729,18.181 6.903 C 18.583 7.556,19.497 7.556,19.899 6.903 C 20.006 6.729,20.020 6.671,20.019 6.403 C 20.018 6.172,19.998 6.062,19.933 5.940 C 19.754 5.605,19.417 5.402,19.040 5.402 C 18.904 5.402,18.751 5.433,18.640 5.483 M11.380 6.043 C 8.784 6.299,6.676 8.219,6.115 10.840 C 5.984 11.450,5.984 12.558,6.114 13.160 C 6.639 15.588,8.417 17.365,10.840 17.885 C 11.446 18.015,12.554 18.015,13.160 17.885 C 14.397 17.620,15.412 17.068,16.269 16.195 C 17.109 15.340,17.626 14.369,17.885 13.160 C 18.015 12.554,18.015 11.446,17.885 10.840 C 17.626 9.631,17.109 8.660,16.269 7.805 C 14.978 6.490,13.230 5.860,11.380 6.043 M12.605 8.058 C 14.074 8.280,15.310 9.324,15.797 10.755 C 15.897 11.050,16.000 11.680,16.000 12.000 C 16.000 12.322,15.897 12.951,15.796 13.245 C 15.321 14.632,14.195 15.628,12.773 15.917 C 10.563 16.368,8.396 14.845,8.058 12.605 C 7.986 12.121,7.986 11.879,8.058 11.395 C 8.314 9.698,9.675 8.324,11.358 8.061 C 11.816 7.990,12.144 7.989,12.605 8.058 M2.960 9.035 C 2.403 9.218,2.125 9.755,2.284 10.340 C 2.341 10.549,2.693 10.898,2.906 10.957 C 3.333 11.075,3.768 10.941,4.018 10.615 C 4.405 10.108,4.239 9.405,3.663 9.112 C 3.491 9.024,3.118 8.983,2.960 9.035 M20.469 9.055 C 20.144 9.176,19.931 9.389,19.817 9.709 C 19.747 9.905,19.747 10.064,19.816 10.293 C 19.976 10.826,20.531 11.113,21.096 10.956 C 21.306 10.898,21.658 10.546,21.716 10.336 C 21.855 9.836,21.653 9.333,21.223 9.112 C 21.021 9.008,20.666 8.981,20.469 9.055 M11.477 10.073 C 10.806 10.249,10.238 10.823,10.060 11.508 C 9.941 11.962,10.003 12.492,10.225 12.930 C 10.361 13.199,10.801 13.639,11.070 13.775 C 11.659 14.073,12.341 14.073,12.930 13.775 C 13.196 13.640,13.638 13.200,13.771 12.937 C 13.994 12.498,14.052 12.007,13.940 11.529 C 13.858 11.182,13.720 10.927,13.465 10.653 C 13.074 10.232,12.560 10.005,12.000 10.005 C 11.857 10.005,11.622 10.036,11.477 10.073 M2.960 13.035 C 2.403 13.218,2.125 13.755,2.284 14.340 C 2.341 14.549,2.693 14.898,2.906 14.957 C 3.333 15.075,3.768 14.941,4.018 14.615 C 4.405 14.108,4.239 13.405,3.663 13.112 C 3.491 13.024,3.118 12.983,2.960 13.035 M20.469 13.055 C 20.144 13.176,19.931 13.389,19.817 13.709 C 19.747 13.905,19.747 14.064,19.816 14.293 C 19.976 14.826,20.531 15.113,21.096 14.956 C 21.306 14.898,21.658 14.546,21.716 14.336 C 21.855 13.836,21.653 13.333,21.223 13.112 C 21.021 13.008,20.666 12.981,20.469 13.055 M4.760 16.637 C 4.138 16.764,3.787 17.454,4.055 18.020 C 4.236 18.401,4.555 18.608,4.960 18.608 C 5.365 18.608,5.684 18.401,5.865 18.020 C 6.148 17.422,5.745 16.707,5.080 16.629 C 4.981 16.618,4.837 16.621,4.760 16.637 M18.840 16.637 C 18.218 16.764,17.867 17.454,18.135 18.020 C 18.316 18.401,18.635 18.608,19.040 18.608 C 19.445 18.608,19.764 18.401,19.945 18.020 C 20.228 17.422,19.825 16.707,19.160 16.629 C 19.061 16.618,18.917 16.621,18.840 16.637 M7.746 19.176 C 7.243 19.363,6.969 20.002,7.178 20.502 C 7.323 20.850,7.726 21.119,8.100 21.119 C 8.474 21.119,8.877 20.850,9.022 20.502 C 9.112 20.286,9.107 19.932,9.010 19.715 C 8.924 19.521,8.724 19.307,8.540 19.211 C 8.374 19.124,7.937 19.105,7.746 19.176 M15.546 19.176 C 15.043 19.363,14.769 20.002,14.978 20.502 C 15.123 20.850,15.526 21.119,15.900 21.119 C 16.274 21.119,16.677 20.850,16.822 20.502 C 16.912 20.286,16.907 19.932,16.810 19.715 C 16.724 19.521,16.524 19.307,16.340 19.211 C 16.174 19.124,15.737 19.105,15.546 19.176 M11.695 20.057 C 11.466 20.129,11.256 20.299,11.128 20.516 C 11.036 20.672,11.020 20.745,11.021 21.000 C 11.022 21.332,11.101 21.533,11.306 21.728 C 11.785 22.181,12.580 22.046,12.893 21.460 C 13.025 21.211,13.015 20.760,12.872 20.516 C 12.628 20.101,12.150 19.915,11.695 20.057 " stroke="none" fill-rule="evenodd" fill="black"></path></svg>