<svg xmlns="http://www.w3.org/2000/svg" width="24" height="24" viewBox="0 0 24 24" fill="none" stroke="currentColor" stroke-width="2" stroke-linecap="round" stroke-linejoin="round"><path d="M11.695 2.057 C 11.466 2.129,11.256 2.299,11.128 2.516 L 11.020 2.700 11.020 4.503 L 11.020 6.306 11.141 6.503 C 11.209 6.613,11.346 6.756,11.452 6.828 C 11.923 7.144,12.554 6.999,12.859 6.503 L 12.980 6.306 12.980 4.503 L 12.980 2.700 12.872 2.516 C 12.628 2.101,12.150 1.915,11.695 2.057 M5.295 4.657 C 5.066 4.729,4.856 4.899,4.728 5.116 C 4.637 5.272,4.620 5.346,4.620 5.600 C 4.620 5.853,4.637 5.928,4.727 6.080 C 4.785 6.179,5.370 6.794,6.027 7.446 C 7.150 8.561,7.233 8.635,7.437 8.696 C 7.708 8.776,7.772 8.776,8.043 8.696 C 8.516 8.555,8.826 8.041,8.727 7.563 C 8.702 7.444,8.636 7.281,8.581 7.201 C 8.525 7.121,7.954 6.532,7.310 5.892 C 6.210 4.798,6.127 4.725,5.923 4.664 C 5.666 4.588,5.520 4.587,5.295 4.657 M2.695 11.057 C 2.466 11.129,2.256 11.299,2.128 11.516 C 2.037 11.672,2.020 11.746,2.020 12.000 C 2.020 12.256,2.036 12.328,2.131 12.489 C 2.256 12.702,2.449 12.864,2.670 12.943 C 2.888 13.021,6.112 13.021,6.330 12.943 C 6.551 12.864,6.744 12.702,6.869 12.489 C 6.964 12.328,6.980 12.256,6.980 12.000 C 6.980 11.746,6.963 11.672,6.872 11.516 C 6.740 11.293,6.533 11.128,6.290 11.055 C 6.035 10.978,2.941 10.980,2.695 11.057 " stroke="none" fill-rule="evenodd" fill="black"></path></svg>