<svg xmlns="http://www.w3.org/2000/svg" width="24" height="24" viewBox="0 0 24 24" fill="none" stroke="currentColor" stroke-width="2" stroke-linecap="round" stroke-linejoin="round"><path d="M11.080 2.045 C 9.507 2.184,7.883 2.751,6.540 3.630 C 5.905 4.045,5.499 4.378,4.919 4.958 C 2.953 6.926,1.919 9.544,2.013 12.320 C 2.084 14.439,2.752 16.328,4.033 18.040 C 4.430 18.570,5.305 19.464,5.800 19.847 C 7.242 20.961,8.787 21.624,10.600 21.907 C 11.247 22.008,12.753 22.008,13.400 21.907 C 15.214 21.624,16.762 20.959,18.200 19.847 C 18.637 19.509,19.509 18.637,19.847 18.200 C 21.206 16.443,21.966 14.343,21.977 12.320 C 21.980 11.714,21.978 11.696,21.871 11.514 C 21.481 10.851,20.520 10.847,20.134 11.507 C 20.039 11.668,20.025 11.748,19.993 12.273 C 19.876 14.196,19.284 15.748,18.145 17.110 C 17.389 18.015,16.519 18.695,15.471 19.200 C 13.267 20.265,10.733 20.265,8.529 19.200 C 7.738 18.819,7.124 18.394,6.504 17.801 C 4.495 15.878,3.630 13.155,4.161 10.422 C 4.403 9.176,5.023 7.881,5.848 6.900 C 6.622 5.980,7.440 5.337,8.500 4.816 C 9.441 4.354,10.356 4.111,11.440 4.035 C 11.759 4.013,12.096 3.986,12.189 3.975 C 12.420 3.948,12.711 3.743,12.859 3.503 C 12.966 3.329,12.980 3.271,12.980 3.003 C 12.980 2.746,12.964 2.672,12.872 2.516 C 12.593 2.041,12.222 1.944,11.080 2.045 " stroke="none" fill-rule="evenodd" fill="black"></path></svg>