<svg xmlns="http://www.w3.org/2000/svg" width="24" height="24" viewBox="0 0 24 24" fill="none" stroke="currentColor" stroke-width="2" stroke-linecap="round" stroke-linejoin="round"><path d="M20.760 2.025 C 20.727 2.039,16.659 3.507,11.720 5.288 C 6.781 7.069,2.645 8.573,2.529 8.630 C 2.261 8.762,1.946 9.094,1.808 9.390 C 1.715 9.589,1.701 9.672,1.700 10.001 C 1.700 10.350,1.711 10.404,1.829 10.644 C 2.090 11.173,2.005 11.122,5.825 13.033 L 9.260 14.751 9.700 15.644 C 10.018 16.288,10.185 16.583,10.303 16.702 C 10.479 16.881,10.757 17.000,11.000 17.000 C 11.406 17.000,11.811 16.707,11.939 16.322 C 12.066 15.942,12.032 15.831,11.411 14.583 C 11.103 13.965,10.801 13.400,10.740 13.327 C 10.654 13.225,9.947 12.854,7.505 11.633 C 4.745 10.252,4.392 10.065,4.480 10.032 C 5.269 9.734,19.297 4.684,19.307 4.693 C 19.314 4.701,18.821 6.082,18.212 7.763 C 17.195 10.567,17.103 10.842,17.102 11.080 C 17.099 11.529,17.358 11.885,17.782 12.019 C 18.182 12.145,18.618 12.015,18.860 11.698 C 19.006 11.506,21.960 3.369,21.990 3.074 C 22.029 2.695,21.809 2.298,21.463 2.126 C 21.278 2.033,20.882 1.977,20.760 2.025 M17.358 14.061 C 16.230 14.237,15.143 14.974,14.569 15.953 C 13.320 18.083,14.233 20.785,16.512 21.704 C 17.473 22.091,18.529 22.090,19.494 21.701 C 19.684 21.625,19.881 21.535,19.932 21.502 C 20.020 21.444,20.041 21.460,20.681 22.104 C 21.044 22.468,21.416 22.810,21.508 22.865 C 21.967 23.139,22.587 22.968,22.867 22.492 C 22.964 22.327,22.980 22.257,22.980 22.000 C 22.980 21.589,22.910 21.484,22.104 20.681 C 21.460 20.041,21.444 20.020,21.502 19.932 C 21.627 19.740,21.844 19.132,21.921 18.757 C 22.070 18.024,21.994 17.230,21.705 16.516 C 21.172 15.197,20.001 14.269,18.605 14.058 C 18.144 13.989,17.816 13.990,17.358 14.061 M18.523 16.073 C 19.262 16.266,19.850 16.924,19.967 17.690 C 20.067 18.343,19.873 18.933,19.403 19.404 C 19.002 19.807,18.547 20.000,18.000 20.000 C 17.485 20.000,17.038 19.822,16.653 19.465 C 15.323 18.229,16.189 16.005,18.000 16.005 C 18.143 16.005,18.378 16.036,18.523 16.073 " stroke="none" fill-rule="evenodd" fill="black"></path></svg>