<svg xmlns="http://www.w3.org/2000/svg" width="24" height="24" viewBox="0 0 24 24" fill="none" stroke="currentColor" stroke-width="2" stroke-linecap="round" stroke-linejoin="round"><path d="M20.760 2.025 C 20.727 2.039,16.659 3.507,11.720 5.288 C 6.781 7.069,2.645 8.573,2.529 8.630 C 2.261 8.762,1.946 9.094,1.808 9.390 C 1.715 9.589,1.701 9.672,1.700 10.001 C 1.700 10.350,1.711 10.404,1.829 10.644 C 2.090 11.173,2.005 11.122,5.825 13.033 L 9.260 14.751 9.385 15.007 C 9.553 15.350,9.682 15.494,9.929 15.617 C 10.284 15.794,10.704 15.744,11.002 15.489 C 11.244 15.282,11.337 15.075,11.338 14.738 C 11.340 14.472,11.326 14.426,11.096 13.958 C 10.962 13.684,10.802 13.401,10.741 13.328 C 10.654 13.225,9.949 12.855,7.505 11.633 C 4.745 10.252,4.392 10.065,4.480 10.032 C 5.259 9.738,19.297 4.683,19.306 4.693 C 19.314 4.700,18.795 6.154,18.154 7.923 C 16.859 11.497,16.891 11.381,17.087 11.804 C 17.434 12.556,18.551 12.541,18.883 11.780 C 19.101 11.280,21.975 3.229,21.990 3.074 C 22.029 2.695,21.808 2.298,21.463 2.126 C 21.278 2.033,20.882 1.977,20.760 2.025 M15.699 14.037 C 14.670 14.202,13.737 14.905,13.305 15.840 C 13.072 16.345,13.021 16.592,13.024 17.200 C 13.026 17.692,13.037 17.773,13.149 18.111 C 13.392 18.843,13.413 18.869,15.473 20.912 C 16.500 21.930,17.421 22.812,17.520 22.872 C 17.673 22.964,17.745 22.980,18.000 22.980 C 18.254 22.980,18.327 22.964,18.480 22.873 C 18.579 22.814,19.509 21.923,20.547 20.893 C 22.582 18.874,22.591 18.863,22.818 18.213 C 23.020 17.636,23.050 16.947,22.900 16.380 C 22.746 15.802,22.353 15.189,21.871 14.775 C 20.903 13.943,19.453 13.773,18.325 14.360 L 18.013 14.522 17.697 14.363 C 17.245 14.135,16.862 14.039,16.340 14.020 C 16.098 14.012,15.810 14.019,15.699 14.037 M16.756 16.138 C 16.867 16.194,17.072 16.348,17.213 16.480 C 17.512 16.759,17.693 16.846,17.980 16.849 C 18.293 16.851,18.459 16.777,18.773 16.492 C 19.235 16.074,19.562 15.956,20.020 16.041 C 20.841 16.193,21.259 17.127,20.806 17.797 C 20.748 17.883,20.101 18.542,19.368 19.262 C 18.242 20.369,18.025 20.565,17.961 20.535 C 17.919 20.516,17.278 19.898,16.537 19.163 C 15.024 17.661,15.020 17.657,15.023 17.160 C 15.025 16.915,15.045 16.822,15.133 16.651 C 15.292 16.341,15.584 16.126,15.980 16.025 C 16.158 15.979,16.559 16.038,16.756 16.138 " stroke="none" fill-rule="evenodd" fill="black"></path></svg>