<svg xmlns="http://www.w3.org/2000/svg" width="24" height="24" viewBox="0 0 24 24" fill="none" stroke="currentColor" stroke-width="2" stroke-linecap="round" stroke-linejoin="round"><path d="M20.760 2.025 C 20.727 2.039,16.659 3.507,11.720 5.288 C 6.781 7.069,2.645 8.573,2.529 8.630 C 2.261 8.762,1.946 9.094,1.808 9.390 C 1.715 9.589,1.701 9.672,1.700 10.001 C 1.700 10.350,1.711 10.404,1.829 10.644 C 2.089 11.173,2.005 11.122,5.825 13.033 L 9.260 14.752 9.954 16.143 C 10.335 16.909,10.692 17.594,10.748 17.666 C 10.896 17.861,11.248 18.020,11.520 18.015 C 12.110 18.005,12.586 17.459,12.501 16.890 C 12.459 16.614,10.844 13.404,10.675 13.262 C 10.603 13.202,9.158 12.459,7.463 11.611 C 4.738 10.248,4.392 10.065,4.480 10.032 C 5.222 9.751,19.297 4.684,19.307 4.693 C 19.314 4.701,18.474 7.050,17.440 9.914 C 15.376 15.629,15.465 15.338,15.655 15.740 C 15.936 16.333,16.651 16.500,17.180 16.097 C 17.261 16.035,17.369 15.889,17.437 15.745 C 17.639 15.327,21.970 3.272,21.990 3.074 C 22.029 2.695,21.808 2.298,21.463 2.126 C 21.278 2.033,20.882 1.977,20.760 2.025 M20.640 16.068 C 20.488 16.121,20.196 16.394,18.731 17.853 L 17.002 19.575 16.271 18.855 C 15.655 18.247,15.509 18.123,15.343 18.067 C 14.865 17.905,14.383 18.083,14.128 18.516 C 14.036 18.672,14.020 18.745,14.021 19.000 C 14.021 19.213,14.043 19.341,14.095 19.440 C 14.197 19.633,16.297 21.740,16.520 21.873 C 16.673 21.964,16.745 21.980,17.000 21.979 C 17.212 21.979,17.341 21.957,17.440 21.905 C 17.632 21.805,21.739 17.705,21.873 17.480 C 21.964 17.328,21.980 17.254,21.980 17.000 C 21.980 16.746,21.963 16.672,21.872 16.516 C 21.617 16.083,21.121 15.903,20.640 16.068 " stroke="none" fill-rule="evenodd" fill="black"></path></svg>