<svg xmlns="http://www.w3.org/2000/svg" width="24" height="24" viewBox="0 0 24 24" fill="none" stroke="currentColor" stroke-width="2" stroke-linecap="round" stroke-linejoin="round"><path d="M20.760 2.025 C 20.727 2.039,16.659 3.507,11.720 5.288 C 6.781 7.069,2.645 8.573,2.529 8.630 C 2.261 8.762,1.946 9.094,1.808 9.390 C 1.715 9.589,1.701 9.672,1.700 10.001 C 1.700 10.350,1.711 10.404,1.829 10.644 C 2.090 11.173,2.004 11.122,5.825 13.033 L 9.260 14.751 9.369 14.974 C 9.528 15.299,9.728 15.502,9.985 15.598 C 10.245 15.696,10.360 15.700,10.624 15.621 C 11.039 15.498,11.320 15.110,11.326 14.655 C 11.328 14.460,11.298 14.369,11.090 13.945 C 10.959 13.678,10.802 13.401,10.741 13.328 C 10.654 13.225,9.949 12.855,7.505 11.633 C 4.745 10.252,4.392 10.065,4.480 10.032 C 5.264 9.736,19.297 4.684,19.307 4.693 C 19.314 4.701,18.897 5.879,18.380 7.311 C 17.691 9.222,17.440 9.963,17.440 10.092 C 17.440 10.781,18.119 11.264,18.775 11.043 C 18.955 10.982,19.219 10.757,19.304 10.592 C 19.443 10.323,21.973 3.243,21.990 3.074 C 22.029 2.695,21.808 2.298,21.463 2.126 C 21.278 2.033,20.882 1.977,20.760 2.025 M17.372 13.072 C 17.112 13.165,16.870 13.331,16.723 13.517 C 16.661 13.596,16.403 14.074,16.150 14.580 L 15.689 15.501 14.657 15.651 C 13.546 15.812,13.351 15.870,13.063 16.122 C 12.745 16.402,12.575 16.831,12.611 17.267 C 12.646 17.710,12.753 17.864,13.623 18.726 C 14.233 19.330,14.399 19.517,14.384 19.580 C 14.373 19.624,14.289 20.107,14.197 20.653 L 14.030 21.645 14.095 21.913 C 14.262 22.595,14.870 23.044,15.552 22.989 C 15.821 22.968,16.039 22.871,17.330 22.198 L 17.800 21.953 18.270 22.198 C 19.561 22.871,19.779 22.968,20.048 22.989 C 20.724 23.043,21.333 22.598,21.503 21.925 C 21.576 21.635,21.580 21.680,21.357 20.400 L 21.200 19.500 21.979 18.726 C 22.844 17.867,22.944 17.722,22.986 17.276 C 23.027 16.835,22.860 16.406,22.537 16.122 C 22.249 15.870,22.054 15.812,20.943 15.651 L 19.911 15.501 19.434 14.548 C 18.905 13.491,18.773 13.315,18.370 13.130 C 18.069 12.992,17.662 12.969,17.372 13.072 M18.109 16.376 C 18.267 16.693,18.451 17.015,18.518 17.091 C 18.699 17.298,18.948 17.384,19.653 17.484 L 20.285 17.574 19.787 18.077 C 19.512 18.354,19.261 18.634,19.228 18.701 C 19.111 18.935,19.109 19.155,19.217 19.773 C 19.274 20.098,19.320 20.391,19.320 20.424 C 19.320 20.466,19.137 20.389,18.699 20.162 C 18.097 19.850,18.070 19.840,17.800 19.840 C 17.530 19.840,17.503 19.850,16.901 20.162 C 16.413 20.415,16.280 20.469,16.280 20.415 C 16.280 20.378,16.326 20.085,16.383 19.765 C 16.492 19.156,16.489 18.935,16.372 18.701 C 16.339 18.634,16.088 18.354,15.813 18.077 L 15.315 17.574 15.947 17.484 C 16.652 17.384,16.901 17.298,17.082 17.091 C 17.149 17.015,17.333 16.693,17.491 16.376 C 17.649 16.059,17.788 15.800,17.800 15.800 C 17.812 15.800,17.951 16.059,18.109 16.376 " stroke="none" fill-rule="evenodd" fill="black"></path></svg>