<svg xmlns="http://www.w3.org/2000/svg" width="24" height="24" viewBox="0 0 24 24" fill="none" stroke="currentColor" stroke-width="2" stroke-linecap="round" stroke-linejoin="round"><path d="M20.760 2.025 C 20.727 2.039,16.659 3.507,11.720 5.288 C 6.781 7.069,2.645 8.573,2.529 8.630 C 2.261 8.762,1.946 9.094,1.808 9.390 C 1.715 9.589,1.701 9.672,1.700 10.001 C 1.700 10.350,1.711 10.404,1.829 10.644 C 2.089 11.173,2.005 11.122,5.825 13.033 L 9.260 14.752 10.948 18.133 C 11.909 20.057,12.692 21.576,12.765 21.659 C 13.366 22.344,14.493 21.905,14.493 20.984 C 14.493 20.754,14.456 20.674,12.671 17.103 C 11.669 15.097,10.799 13.398,10.739 13.326 C 10.654 13.225,9.930 12.846,7.505 11.633 C 4.745 10.252,4.392 10.065,4.480 10.032 C 5.266 9.735,19.297 4.684,19.307 4.693 C 19.314 4.701,18.660 6.532,17.853 8.763 C 16.237 13.231,16.287 13.061,16.477 13.454 C 16.631 13.771,17.035 14.040,17.360 14.040 C 17.697 14.040,18.096 13.803,18.243 13.514 C 18.402 13.203,21.972 3.257,21.990 3.074 C 22.029 2.695,21.808 2.298,21.463 2.126 C 21.278 2.033,20.882 1.977,20.760 2.025 M16.670 16.061 C 16.448 16.142,16.250 16.309,16.128 16.516 C 16.037 16.672,16.020 16.746,16.020 17.000 C 16.020 17.254,16.036 17.328,16.127 17.480 C 16.186 17.579,16.650 18.074,17.157 18.579 L 18.079 19.499 17.124 20.459 C 16.599 20.988,16.138 21.481,16.101 21.555 C 15.872 22.009,16.056 22.601,16.508 22.867 C 16.673 22.964,16.743 22.980,17.000 22.980 C 17.254 22.980,17.328 22.964,17.480 22.873 C 17.579 22.814,18.074 22.350,18.579 21.843 L 19.499 20.921 20.459 21.876 C 20.988 22.401,21.483 22.864,21.560 22.905 C 21.659 22.957,21.787 22.979,22.000 22.979 C 22.258 22.980,22.327 22.964,22.492 22.867 C 22.714 22.737,22.901 22.498,22.965 22.264 C 23.019 22.061,22.989 21.733,22.899 21.555 C 22.862 21.481,22.401 20.988,21.876 20.459 L 20.921 19.499 21.843 18.579 C 22.350 18.074,22.814 17.579,22.873 17.480 C 22.964 17.328,22.980 17.254,22.980 17.000 C 22.980 16.746,22.963 16.672,22.872 16.516 C 22.618 16.084,22.136 15.905,21.657 16.066 C 21.486 16.124,21.330 16.262,20.480 17.104 L 19.500 18.076 18.520 17.104 C 17.671 16.262,17.514 16.124,17.343 16.066 C 17.108 15.987,16.875 15.985,16.670 16.061 " stroke="none" fill-rule="evenodd" fill="black"></path></svg>