<svg xmlns="http://www.w3.org/2000/svg" width="24" height="24" viewBox="0 0 24 24" fill="none" stroke="currentColor" stroke-width="2" stroke-linecap="round" stroke-linejoin="round"><path d="M20.760 2.025 C 20.727 2.039,16.659 3.507,11.720 5.288 C 6.781 7.069,2.645 8.573,2.529 8.630 C 2.261 8.762,1.946 9.094,1.808 9.390 C 1.715 9.589,1.701 9.672,1.700 10.001 C 1.700 10.350,1.711 10.404,1.829 10.644 C 2.089 11.173,2.005 11.122,5.825 13.033 L 9.260 14.752 10.972 18.181 C 12.877 21.995,12.827 21.910,13.356 22.171 C 13.596 22.289,13.650 22.300,13.999 22.300 C 14.328 22.299,14.412 22.284,14.609 22.192 C 14.856 22.077,15.192 21.787,15.321 21.579 C 15.365 21.508,15.538 21.074,15.706 20.615 C 16.065 19.634,16.086 19.477,15.907 19.112 C 15.722 18.733,15.365 18.533,14.940 18.569 C 14.514 18.605,14.225 18.846,14.047 19.315 L 13.931 19.620 12.367 16.495 C 11.159 14.081,10.775 13.346,10.675 13.262 C 10.603 13.202,9.158 12.459,7.463 11.611 C 4.738 10.248,4.392 10.065,4.480 10.032 C 5.224 9.750,19.297 4.684,19.307 4.693 C 19.314 4.701,18.731 6.334,18.010 8.324 C 16.785 11.705,16.700 11.957,16.702 12.200 C 16.703 12.385,16.728 12.507,16.789 12.623 C 16.998 13.022,17.458 13.253,17.863 13.163 C 18.115 13.107,18.388 12.932,18.506 12.752 C 18.632 12.560,21.968 3.295,21.990 3.074 C 22.029 2.695,21.808 2.298,21.463 2.126 C 21.278 2.033,20.882 1.977,20.760 2.025 M18.695 15.057 C 18.466 15.129,18.256 15.299,18.128 15.516 L 18.020 15.700 18.020 17.503 L 18.020 19.306 18.141 19.503 C 18.543 20.156,19.457 20.156,19.859 19.503 L 19.980 19.306 19.980 17.503 L 19.980 15.700 19.872 15.516 C 19.628 15.101,19.150 14.915,18.695 15.057 M18.695 21.057 C 18.466 21.129,18.256 21.299,18.128 21.516 C 18.036 21.672,18.020 21.745,18.021 22.000 C 18.022 22.332,18.101 22.533,18.306 22.728 C 18.785 23.181,19.580 23.046,19.893 22.460 C 20.025 22.211,20.015 21.760,19.872 21.516 C 19.628 21.101,19.150 20.915,18.695 21.057 " stroke="none" fill-rule="evenodd" fill="black"></path></svg>