<svg xmlns="http://www.w3.org/2000/svg" width="24" height="24" viewBox="0 0 24 24" fill="none" stroke="currentColor" stroke-width="2" stroke-linecap="round" stroke-linejoin="round"><path d="M20.760 2.025 C 20.727 2.039,16.659 3.507,11.720 5.288 C 6.781 7.069,2.645 8.573,2.529 8.630 C 2.261 8.762,1.946 9.094,1.808 9.390 C 1.715 9.589,1.701 9.672,1.700 10.001 C 1.700 10.350,1.711 10.404,1.829 10.644 C 2.089 11.173,2.005 11.122,5.825 13.033 L 9.260 14.752 10.200 16.644 C 11.224 18.705,11.289 18.807,11.660 18.934 C 11.767 18.970,11.920 19.000,12.000 19.000 C 12.406 19.000,12.811 18.707,12.939 18.322 C 13.075 17.914,13.074 17.912,11.910 15.581 C 11.327 14.413,10.800 13.399,10.739 13.327 C 10.654 13.225,9.936 12.849,7.505 11.633 C 4.745 10.252,4.392 10.065,4.480 10.032 C 5.256 9.739,19.297 4.683,19.306 4.693 C 19.314 4.700,18.751 6.280,18.056 8.203 C 16.726 11.883,16.681 12.011,16.680 12.143 C 16.679 12.332,16.807 12.637,16.961 12.812 C 17.130 13.003,17.451 13.160,17.674 13.160 C 18.014 13.160,18.415 12.925,18.560 12.640 C 18.716 12.334,21.972 3.255,21.990 3.074 C 22.029 2.695,21.809 2.298,21.463 2.126 C 21.278 2.033,20.882 1.977,20.760 2.025 M18.358 15.061 C 17.230 15.237,16.143 15.974,15.569 16.953 C 14.320 19.083,15.233 21.785,17.512 22.704 C 19.558 23.528,21.877 22.538,22.704 20.488 C 23.090 19.530,23.090 18.469,22.705 17.516 C 22.172 16.197,21.001 15.269,19.605 15.058 C 19.144 14.989,18.816 14.990,18.358 15.061 M19.470 17.057 C 19.485 17.071,18.954 17.626,18.290 18.290 C 17.626 18.954,17.072 19.486,17.059 19.472 C 17.045 19.459,17.024 19.314,17.012 19.150 C 16.940 18.202,17.563 17.318,18.477 17.071 C 18.735 17.001,19.405 16.991,19.470 17.057 M20.982 18.784 C 21.047 19.396,20.844 19.961,20.398 20.410 C 20.104 20.705,19.779 20.885,19.404 20.963 C 19.181 21.010,18.584 20.997,18.532 20.945 C 18.504 20.918,20.872 18.520,20.927 18.520 C 20.941 18.520,20.966 18.639,20.982 18.784 " stroke="none" fill-rule="evenodd" fill="black"></path></svg>