<svg xmlns="http://www.w3.org/2000/svg" width="24" height="24" viewBox="0 0 24 24" fill="none" stroke="currentColor" stroke-width="2" stroke-linecap="round" stroke-linejoin="round"><path d="M20.760 2.025 C 20.727 2.039,16.659 3.507,11.720 5.288 C 6.781 7.069,2.645 8.573,2.529 8.630 C 2.261 8.762,1.946 9.094,1.808 9.390 C 1.715 9.589,1.701 9.672,1.700 10.001 C 1.700 10.350,1.711 10.404,1.829 10.644 C 2.089 11.173,2.005 11.122,5.825 13.033 L 9.260 14.752 10.200 16.644 C 11.224 18.705,11.289 18.807,11.660 18.934 C 11.767 18.970,11.920 19.000,12.000 19.000 C 12.406 19.000,12.811 18.707,12.939 18.322 C 13.075 17.914,13.074 17.912,11.910 15.581 C 11.327 14.413,10.800 13.399,10.739 13.327 C 10.654 13.225,9.936 12.849,7.505 11.633 C 4.745 10.252,4.392 10.065,4.480 10.032 C 5.269 9.734,19.297 4.684,19.307 4.693 C 19.314 4.701,18.823 6.082,18.215 7.763 C 17.277 10.358,17.110 10.853,17.109 11.040 C 17.107 11.735,17.795 12.208,18.449 11.962 C 18.733 11.854,18.946 11.624,19.066 11.296 C 20.720 6.747,21.976 3.219,21.990 3.074 C 22.029 2.695,21.809 2.298,21.463 2.126 C 21.278 2.033,20.882 1.977,20.760 2.025 M18.340 14.060 C 17.913 14.130,17.642 14.217,17.275 14.399 C 16.236 14.915,15.537 15.720,15.185 16.807 C 14.791 18.021,15.052 19.450,15.851 20.460 C 16.124 20.805,16.714 21.363,17.729 22.233 C 18.558 22.945,18.617 22.980,19.000 22.979 C 19.211 22.979,19.339 22.957,19.433 22.907 C 19.586 22.824,20.750 21.830,21.465 21.171 C 22.256 20.443,22.645 19.845,22.868 19.015 C 22.962 18.669,22.975 18.543,22.976 18.000 C 22.977 17.486,22.962 17.325,22.890 17.059 C 22.555 15.825,21.863 14.972,20.736 14.406 C 20.015 14.045,19.175 13.924,18.340 14.060 M19.383 16.043 C 19.962 16.149,20.496 16.556,20.760 17.093 C 20.848 17.273,20.941 17.528,20.964 17.660 C 21.049 18.125,20.934 18.671,20.660 19.101 C 20.538 19.293,19.979 19.839,19.309 20.421 L 18.997 20.691 18.909 20.614 C 17.924 19.754,17.524 19.372,17.355 19.130 C 17.082 18.739,16.949 18.129,17.035 17.660 C 17.107 17.269,17.361 16.802,17.640 16.550 C 18.143 16.095,18.729 15.924,19.383 16.043 M18.695 17.057 C 18.466 17.129,18.256 17.299,18.128 17.516 C 18.036 17.672,18.020 17.745,18.021 18.000 C 18.022 18.332,18.101 18.533,18.306 18.728 C 18.785 19.181,19.580 19.046,19.893 18.460 C 20.025 18.211,20.015 17.760,19.872 17.516 C 19.628 17.101,19.150 16.915,18.695 17.057 " stroke="none" fill-rule="evenodd" fill="black"></path></svg>