<svg xmlns="http://www.w3.org/2000/svg" width="24" height="24" viewBox="0 0 24 24" fill="none" stroke="currentColor" stroke-width="2" stroke-linecap="round" stroke-linejoin="round"><path d="M20.760 2.025 C 20.727 2.039,16.659 3.507,11.720 5.288 C 6.781 7.069,2.645 8.573,2.529 8.630 C 2.261 8.762,1.946 9.094,1.808 9.390 C 1.715 9.589,1.701 9.672,1.700 10.001 C 1.700 10.350,1.711 10.404,1.829 10.644 C 2.089 11.173,2.005 11.122,5.825 13.033 L 9.260 14.752 10.728 17.693 C 11.536 19.310,12.252 20.696,12.319 20.772 C 12.641 21.139,13.187 21.198,13.618 20.913 C 13.880 20.739,14.008 20.501,14.031 20.146 L 14.049 19.860 12.427 16.616 C 11.166 14.093,10.777 13.348,10.676 13.262 C 10.604 13.202,9.158 12.459,7.463 11.611 C 4.738 10.248,4.392 10.065,4.480 10.032 C 5.224 9.750,19.297 4.684,19.307 4.693 C 19.314 4.701,18.733 6.333,18.015 8.320 C 17.298 10.308,16.702 12.000,16.691 12.081 C 16.663 12.287,16.773 12.631,16.926 12.815 C 17.170 13.110,17.613 13.231,18.011 13.112 C 18.100 13.085,18.260 12.982,18.368 12.882 L 18.563 12.700 20.267 7.980 C 21.210 5.368,21.980 3.177,21.990 3.074 C 22.029 2.695,21.809 2.298,21.463 2.126 C 21.278 2.033,20.882 1.977,20.760 2.025 M18.668 15.061 C 18.585 15.092,18.462 15.156,18.395 15.203 C 18.260 15.300,16.136 18.454,16.054 18.680 C 15.893 19.127,16.117 19.673,16.550 19.886 C 16.733 19.977,16.784 19.981,17.930 20.000 L 19.120 20.020 18.600 20.800 C 17.971 21.741,17.914 21.905,18.061 22.322 C 18.284 22.955,18.992 23.187,19.570 22.815 C 19.686 22.741,19.972 22.342,20.805 21.093 C 21.401 20.198,21.917 19.387,21.950 19.289 C 22.074 18.926,21.931 18.460,21.625 18.226 C 21.365 18.028,21.326 18.023,20.070 18.001 L 18.880 17.980 19.383 17.225 C 19.660 16.810,19.912 16.399,19.943 16.310 C 20.212 15.550,19.428 14.782,18.668 15.061 " stroke="none" fill-rule="evenodd" fill="black"></path></svg>