<svg xmlns="http://www.w3.org/2000/svg" width="24" height="24" viewBox="0 0 24 24" fill="none" stroke="currentColor" stroke-width="2" stroke-linecap="round" stroke-linejoin="round"><path d="M20.760 2.025 C 20.727 2.039,16.659 3.507,11.720 5.288 C 6.781 7.069,2.645 8.573,2.529 8.630 C 2.261 8.762,1.946 9.094,1.808 9.390 C 1.715 9.589,1.701 9.672,1.700 10.001 C 1.700 10.350,1.711 10.404,1.829 10.644 C 2.089 11.173,2.005 11.122,5.825 13.033 L 9.260 14.752 10.650 17.536 C 11.574 19.386,12.088 20.372,12.183 20.478 C 12.333 20.644,12.668 20.800,12.874 20.800 C 13.077 20.800,13.381 20.684,13.546 20.543 C 13.754 20.365,13.882 20.072,13.886 19.769 C 13.889 19.546,13.851 19.465,12.369 16.498 C 11.533 14.826,10.800 13.398,10.739 13.326 C 10.654 13.225,9.932 12.847,7.505 11.633 C 4.745 10.252,4.392 10.065,4.480 10.032 C 5.272 9.733,19.297 4.684,19.307 4.693 C 19.314 4.701,18.697 6.433,17.934 8.543 C 17.138 10.747,16.540 12.461,16.529 12.570 C 16.501 12.850,16.585 13.095,16.785 13.318 C 17.099 13.666,17.528 13.747,17.948 13.535 C 18.074 13.472,18.228 13.355,18.291 13.276 C 18.430 13.099,21.961 3.365,21.990 3.074 C 22.029 2.695,21.808 2.298,21.463 2.126 C 21.278 2.033,20.882 1.977,20.760 2.025 M16.044 15.625 C 15.540 15.876,15.346 16.567,15.651 17.020 C 15.695 17.086,16.147 17.558,16.655 18.070 L 17.579 19.000 16.655 19.930 C 16.147 20.442,15.695 20.914,15.651 20.980 C 15.373 21.392,15.510 22.024,15.940 22.320 C 16.238 22.525,16.740 22.540,17.017 22.352 C 17.085 22.306,17.558 21.853,18.070 21.345 L 19.000 20.421 19.930 21.345 C 20.442 21.853,20.915 22.306,20.981 22.351 C 21.384 22.624,22.047 22.475,22.330 22.048 C 22.525 21.753,22.536 21.254,22.352 20.983 C 22.306 20.915,21.853 20.442,21.345 19.930 L 20.421 19.000 21.345 18.070 C 21.853 17.558,22.306 17.085,22.351 17.019 C 22.468 16.846,22.514 16.545,22.462 16.291 C 22.369 15.831,21.980 15.519,21.502 15.521 C 21.089 15.522,20.997 15.588,19.950 16.631 L 19.000 17.578 18.050 16.631 C 17.371 15.954,17.049 15.661,16.920 15.603 C 16.654 15.483,16.313 15.492,16.044 15.625 " stroke="none" fill-rule="evenodd" fill="black"></path></svg>