<svg xmlns="http://www.w3.org/2000/svg" width="24" height="24" viewBox="0 0 24 24" fill="none" stroke="currentColor" stroke-width="2" stroke-linecap="round" stroke-linejoin="round"><path d="M20.760 2.025 C 20.727 2.039,16.659 3.507,11.720 5.288 C 6.781 7.069,2.645 8.573,2.529 8.630 C 2.261 8.762,1.946 9.094,1.808 9.390 C 1.715 9.589,1.701 9.672,1.700 10.001 C 1.700 10.350,1.711 10.404,1.829 10.644 C 2.089 11.173,2.005 11.122,5.825 13.033 L 9.260 14.752 10.200 16.644 C 11.224 18.705,11.289 18.807,11.660 18.934 C 11.767 18.970,11.920 19.000,12.000 19.000 C 12.406 19.000,12.811 18.707,12.939 18.322 C 13.075 17.914,13.074 17.912,11.910 15.581 C 11.327 14.413,10.800 13.399,10.739 13.327 C 10.654 13.225,9.936 12.849,7.505 11.633 C 4.745 10.252,4.392 10.065,4.480 10.032 C 5.266 9.735,19.297 4.684,19.307 4.693 C 19.314 4.701,18.662 6.531,17.857 8.760 C 16.674 12.037,16.393 12.853,16.392 13.017 C 16.386 13.747,17.139 14.217,17.817 13.906 C 18.068 13.792,18.232 13.592,18.362 13.246 C 19.097 11.282,21.976 3.211,21.990 3.074 C 22.029 2.695,21.809 2.298,21.463 2.126 C 21.278 2.033,20.882 1.977,20.760 2.025 M16.240 16.037 C 15.794 16.173,15.512 16.546,15.512 17.000 C 15.512 17.405,15.719 17.724,16.100 17.905 C 16.296 17.997,16.324 17.999,17.439 18.000 L 18.579 18.000 16.874 19.710 C 15.936 20.651,15.138 21.481,15.101 21.555 C 14.872 22.010,15.056 22.601,15.508 22.867 C 15.673 22.964,15.742 22.980,16.000 22.979 C 16.212 22.979,16.341 22.957,16.440 22.905 C 16.517 22.865,17.350 22.064,18.290 21.126 L 20.000 19.421 20.000 20.561 C 20.001 21.676,20.003 21.704,20.095 21.900 C 20.276 22.281,20.595 22.488,21.000 22.488 C 21.405 22.488,21.724 22.281,21.905 21.900 L 21.999 21.700 21.999 19.240 L 21.999 16.780 21.905 16.580 C 21.791 16.340,21.642 16.193,21.400 16.083 C 21.225 16.004,21.152 16.002,18.780 16.004 C 17.438 16.006,16.295 16.021,16.240 16.037 " stroke="none" fill-rule="evenodd" fill="black"></path></svg>