<svg xmlns="http://www.w3.org/2000/svg" width="24" height="24" viewBox="0 0 24 24" fill="none" stroke="currentColor" stroke-width="2" stroke-linecap="round" stroke-linejoin="round"><path d="M2.670 2.061 C 2.448 2.142,2.250 2.309,2.128 2.516 C 2.036 2.672,2.020 2.745,2.021 3.000 C 2.021 3.212,2.043 3.341,2.095 3.440 C 2.135 3.517,3.016 4.430,4.052 5.469 C 5.088 6.507,5.928 7.365,5.918 7.374 C 5.908 7.384,5.151 7.661,4.236 7.991 C 3.321 8.321,2.502 8.636,2.416 8.690 C 2.187 8.835,1.928 9.134,1.807 9.393 C 1.716 9.588,1.701 9.673,1.700 10.001 C 1.700 10.350,1.711 10.404,1.829 10.644 C 2.089 11.173,2.005 11.122,5.825 13.033 L 9.260 14.752 10.972 18.181 C 12.877 21.995,12.827 21.910,13.356 22.171 C 13.596 22.289,13.650 22.300,13.999 22.300 C 14.328 22.299,14.412 22.284,14.609 22.192 C 14.875 22.068,15.208 21.772,15.339 21.541 C 15.389 21.453,15.696 20.642,16.020 19.740 C 16.344 18.838,16.617 18.092,16.626 18.082 C 16.635 18.072,17.493 18.912,18.531 19.948 C 19.570 20.984,20.483 21.865,20.560 21.905 C 20.659 21.957,20.788 21.979,21.000 21.979 C 21.258 21.980,21.327 21.964,21.492 21.867 C 21.968 21.587,22.139 20.967,21.865 20.508 C 21.810 20.416,17.665 16.243,12.653 11.235 C 4.231 2.820,3.525 2.125,3.343 2.065 C 3.107 1.987,2.874 1.986,2.670 2.061 M20.760 2.025 C 20.727 2.039,18.405 2.877,15.600 3.888 C 12.795 4.899,10.428 5.758,10.340 5.797 C 10.093 5.906,9.917 6.077,9.814 6.310 C 9.598 6.797,9.778 7.323,10.250 7.583 C 10.424 7.679,10.504 7.698,10.720 7.696 C 10.958 7.692,11.333 7.564,15.136 6.186 C 17.422 5.357,19.299 4.686,19.307 4.693 C 19.314 4.701,18.644 6.578,17.817 8.864 C 16.676 12.016,16.308 13.078,16.292 13.262 C 16.273 13.469,16.286 13.538,16.377 13.731 C 16.593 14.187,17.122 14.423,17.572 14.262 C 17.855 14.161,18.033 14.004,18.158 13.744 C 18.358 13.332,21.970 3.273,21.990 3.074 C 22.029 2.695,21.808 2.298,21.463 2.126 C 21.278 2.033,20.881 1.977,20.760 2.025 M14.552 17.913 C 14.270 18.698,14.014 19.403,13.984 19.479 L 13.929 19.619 12.388 16.537 C 11.541 14.842,10.798 13.397,10.738 13.325 C 10.654 13.225,9.919 12.840,7.505 11.632 C 5.786 10.772,4.398 10.061,4.420 10.053 C 4.442 10.045,5.144 9.789,5.980 9.485 L 7.500 8.932 11.283 12.709 L 15.067 16.486 14.552 17.913 " stroke="none" fill-rule="evenodd" fill="black"></path></svg>