<svg xmlns="http://www.w3.org/2000/svg" width="24" height="24" viewBox="0 0 24 24" fill="none" stroke="currentColor" stroke-width="2" stroke-linecap="round" stroke-linejoin="round"><path d="M11.400 2.044 C 9.761 2.229,8.261 3.290,7.526 4.785 C 7.345 5.153,7.194 5.578,7.096 6.000 C 7.037 6.256,7.024 6.571,7.011 8.145 L 6.995 9.990 6.712 10.018 C 5.496 10.138,4.485 10.971,4.114 12.160 L 4.020 12.460 4.020 16.000 L 4.020 19.540 4.114 19.840 C 4.418 20.816,5.151 21.555,6.140 21.886 L 6.420 21.979 9.540 21.991 C 13.024 22.005,12.847 22.018,13.173 21.724 C 13.381 21.536,13.488 21.292,13.488 21.003 C 13.488 20.615,13.294 20.298,12.940 20.106 C 12.781 20.021,12.761 20.020,9.740 20.000 L 6.700 19.980 6.516 19.872 C 6.303 19.747,6.141 19.550,6.058 19.316 C 5.969 19.063,5.971 12.991,6.061 12.690 C 6.144 12.411,6.411 12.144,6.690 12.061 C 6.992 11.971,17.061 11.969,17.315 12.058 C 17.556 12.143,17.659 12.229,17.878 12.525 C 18.125 12.859,18.378 13.000,18.730 13.000 C 19.293 13.000,19.725 12.578,19.734 12.019 C 19.738 11.791,19.678 11.619,19.506 11.360 C 19.014 10.620,18.252 10.150,17.357 10.035 L 17.005 9.990 16.989 8.145 C 16.976 6.571,16.963 6.256,16.904 6.000 C 16.543 4.449,15.584 3.211,14.213 2.525 C 13.352 2.095,12.397 1.932,11.400 2.044 M12.861 4.129 C 13.803 4.404,14.578 5.178,14.877 6.139 C 14.976 6.457,14.977 6.477,14.991 8.230 L 15.005 10.000 12.000 10.000 L 8.995 10.000 9.009 8.230 C 9.023 6.477,9.024 6.457,9.123 6.139 C 9.462 5.049,10.371 4.245,11.499 4.040 C 11.832 3.980,12.500 4.023,12.861 4.129 M11.477 14.073 C 10.806 14.249,10.238 14.823,10.060 15.508 C 9.941 15.962,10.003 16.492,10.225 16.930 C 10.361 17.199,10.801 17.639,11.070 17.775 C 11.659 18.073,12.341 18.073,12.930 17.775 C 13.196 17.640,13.638 17.200,13.771 16.937 C 13.994 16.498,14.052 16.007,13.940 15.529 C 13.858 15.182,13.720 14.927,13.465 14.653 C 13.074 14.232,12.560 14.005,12.000 14.005 C 11.857 14.005,11.622 14.036,11.477 14.073 M18.695 15.057 C 18.466 15.129,18.256 15.299,18.128 15.516 L 18.020 15.700 18.008 16.850 L 17.995 18.000 16.944 18.000 C 15.797 18.000,15.643 18.022,15.382 18.221 C 15.302 18.282,15.187 18.415,15.128 18.516 C 15.037 18.672,15.020 18.746,15.020 19.000 C 15.020 19.256,15.036 19.328,15.131 19.489 C 15.192 19.592,15.304 19.725,15.381 19.783 C 15.642 19.983,15.738 19.996,16.908 19.998 L 17.995 20.000 18.008 21.153 L 18.020 22.307 18.141 22.503 C 18.543 23.156,19.457 23.156,19.859 22.503 L 19.980 22.307 19.992 21.153 L 20.005 20.000 21.092 19.998 C 22.262 19.996,22.358 19.983,22.619 19.783 C 22.696 19.725,22.808 19.592,22.869 19.489 C 22.964 19.328,22.980 19.256,22.980 19.000 C 22.980 18.746,22.963 18.672,22.872 18.516 C 22.813 18.415,22.698 18.282,22.618 18.221 C 22.357 18.022,22.203 18.000,21.056 18.000 L 20.005 18.000 19.992 16.850 L 19.980 15.700 19.872 15.516 C 19.628 15.101,19.150 14.915,18.695 15.057 " stroke="none" fill-rule="evenodd" fill="black"></path></svg>