<svg xmlns="http://www.w3.org/2000/svg" width="24" height="24" viewBox="0 0 24 24" fill="none" stroke="currentColor" stroke-width="2" stroke-linecap="round" stroke-linejoin="round"><path d="M11.400 2.044 C 9.761 2.229,8.261 3.290,7.526 4.785 C 7.345 5.153,7.194 5.578,7.096 6.000 C 7.037 6.256,7.024 6.571,7.011 8.145 L 6.995 9.990 6.712 10.018 C 5.496 10.138,4.485 10.971,4.114 12.160 L 4.020 12.460 4.020 16.000 L 4.020 19.540 4.114 19.840 C 4.418 20.816,5.150 21.555,6.140 21.886 L 6.420 21.979 9.770 21.991 C 11.990 21.999,13.172 21.989,13.274 21.962 C 13.498 21.901,13.739 21.711,13.867 21.492 C 13.964 21.327,13.980 21.257,13.980 21.000 C 13.980 20.746,13.963 20.672,13.872 20.516 C 13.761 20.328,13.572 20.158,13.373 20.070 C 13.287 20.032,12.483 20.015,9.980 20.000 L 6.700 19.980 6.516 19.872 C 6.415 19.813,6.284 19.700,6.225 19.623 C 5.994 19.320,6.000 19.423,6.000 16.022 C 6.000 12.472,5.988 12.618,6.303 12.303 C 6.627 11.980,6.239 12.000,12.037 11.998 C 16.229 11.997,17.208 11.987,17.330 11.943 C 17.551 11.864,17.744 11.702,17.869 11.489 C 17.964 11.328,17.980 11.256,17.980 11.000 C 17.980 10.745,17.964 10.672,17.871 10.514 C 17.730 10.275,17.485 10.096,17.217 10.036 L 17.005 9.988 16.989 8.144 C 16.976 6.571,16.963 6.256,16.904 6.000 C 16.543 4.449,15.584 3.211,14.213 2.525 C 13.352 2.095,12.397 1.932,11.400 2.044 M12.861 4.129 C 13.803 4.404,14.578 5.178,14.877 6.139 C 14.976 6.457,14.977 6.477,14.991 8.230 L 15.005 10.000 12.000 10.000 L 8.995 10.000 9.009 8.230 C 9.023 6.477,9.024 6.457,9.123 6.139 C 9.462 5.049,10.371 4.245,11.499 4.040 C 11.832 3.980,12.500 4.023,12.861 4.129 M18.600 12.584 C 18.399 12.671,18.205 12.869,18.095 13.100 C 18.018 13.263,18.001 13.365,18.000 13.650 L 18.000 14.000 16.946 14.000 C 15.797 14.000,15.644 14.022,15.382 14.221 C 15.302 14.282,15.187 14.415,15.128 14.516 C 15.036 14.672,15.020 14.746,15.020 15.003 C 15.020 15.271,15.034 15.329,15.141 15.503 C 15.288 15.742,15.578 15.946,15.821 15.982 L 16.000 16.009 16.000 17.998 L 16.000 19.987 15.786 20.035 C 15.515 20.096,15.270 20.275,15.129 20.514 C 15.036 20.672,15.020 20.745,15.020 21.000 C 15.020 21.256,15.036 21.328,15.131 21.489 C 15.192 21.592,15.304 21.725,15.381 21.783 C 15.643 21.983,15.738 21.996,16.910 21.998 L 18.000 22.000 18.000 22.350 C 18.001 22.635,18.018 22.737,18.095 22.900 C 18.276 23.281,18.595 23.488,19.000 23.488 C 19.405 23.488,19.724 23.281,19.905 22.900 C 19.982 22.735,19.999 22.635,20.000 22.334 L 20.000 21.969 20.289 21.874 C 21.001 21.642,21.604 21.048,21.868 20.320 C 21.965 20.052,21.976 19.965,21.976 19.500 C 21.976 19.035,21.965 18.949,21.868 18.684 C 21.809 18.521,21.705 18.301,21.636 18.194 L 21.512 18.000 21.636 17.806 C 21.705 17.699,21.809 17.479,21.868 17.316 C 21.965 17.051,21.976 16.965,21.976 16.500 C 21.976 16.035,21.965 15.948,21.868 15.680 C 21.599 14.937,20.984 14.347,20.241 14.118 L 20.020 14.049 19.999 13.635 C 19.982 13.318,19.957 13.182,19.892 13.060 C 19.783 12.854,19.580 12.661,19.391 12.582 C 19.203 12.503,18.783 12.504,18.600 12.584 M11.477 14.073 C 10.806 14.249,10.238 14.823,10.060 15.508 C 9.941 15.962,10.003 16.492,10.225 16.930 C 10.361 17.199,10.801 17.639,11.070 17.775 C 11.659 18.073,12.341 18.073,12.930 17.775 C 13.196 17.640,13.638 17.200,13.771 16.937 C 13.994 16.498,14.052 16.007,13.940 15.529 C 13.858 15.182,13.720 14.927,13.465 14.653 C 13.074 14.232,12.560 14.005,12.000 14.005 C 11.857 14.005,11.622 14.036,11.477 14.073 M19.724 16.062 C 19.872 16.139,20.000 16.341,20.000 16.500 C 20.000 16.566,19.965 16.678,19.922 16.748 C 19.780 16.980,19.693 17.000,18.802 17.000 L 18.000 17.000 18.000 16.500 L 18.000 16.000 18.802 16.000 C 19.448 16.000,19.627 16.012,19.724 16.062 M19.724 19.062 C 19.872 19.139,20.000 19.341,20.000 19.500 C 20.000 19.566,19.965 19.678,19.922 19.748 C 19.780 19.980,19.693 20.000,18.802 20.000 L 18.000 20.000 18.000 19.500 L 18.000 19.000 18.802 19.000 C 19.448 19.000,19.627 19.012,19.724 19.062 " stroke="none" fill-rule="evenodd" fill="black"></path></svg>