<svg xmlns="http://www.w3.org/2000/svg" width="24" height="24" viewBox="0 0 24 24" fill="none" stroke="currentColor" stroke-width="2" stroke-linecap="round" stroke-linejoin="round"><path d="M5.499 3.043 C 4.383 3.230,3.461 4.048,3.114 5.160 C 3.023 5.451,3.020 5.503,3.020 6.883 L 3.020 8.306 3.141 8.503 C 3.543 9.156,4.457 9.156,4.859 8.503 L 4.980 8.307 5.000 7.023 C 5.023 5.581,5.025 5.571,5.321 5.283 C 5.592 5.021,5.716 5.000,7.037 4.998 C 8.266 4.996,8.356 4.984,8.619 4.783 C 8.696 4.725,8.808 4.592,8.869 4.489 C 8.964 4.328,8.980 4.256,8.980 4.000 C 8.980 3.746,8.963 3.672,8.872 3.516 C 8.813 3.415,8.698 3.282,8.618 3.221 C 8.350 3.016,8.216 3.000,6.904 3.005 C 6.242 3.007,5.609 3.025,5.499 3.043 M15.695 3.055 C 15.464 3.130,15.255 3.300,15.128 3.516 C 15.037 3.672,15.020 3.746,15.020 4.000 C 15.020 4.256,15.036 4.328,15.131 4.489 C 15.192 4.592,15.304 4.725,15.381 4.783 C 15.644 4.984,15.734 4.996,16.963 4.998 C 18.284 5.000,18.408 5.021,18.679 5.283 C 18.975 5.571,18.977 5.581,19.000 7.023 L 19.020 8.307 19.141 8.503 C 19.543 9.156,20.457 9.156,20.859 8.503 L 20.980 8.306 20.980 6.883 C 20.980 5.503,20.977 5.451,20.886 5.160 C 20.581 4.181,19.825 3.421,18.861 3.124 C 18.551 3.028,18.495 3.025,17.200 3.014 C 16.166 3.005,15.822 3.014,15.695 3.055 M11.499 6.040 C 10.373 6.244,9.470 7.041,9.118 8.140 C 9.042 8.378,9.026 8.536,9.010 9.202 L 8.991 9.983 8.685 10.032 C 8.259 10.099,7.918 10.275,7.596 10.597 C 7.310 10.882,7.154 11.147,7.060 11.508 C 6.972 11.844,6.972 15.156,7.060 15.492 C 7.153 15.852,7.310 16.118,7.596 16.404 C 7.882 16.690,8.148 16.847,8.508 16.940 C 8.860 17.032,15.136 17.029,15.491 16.937 C 15.863 16.841,16.114 16.694,16.404 16.404 C 16.694 16.114,16.841 15.863,16.937 15.491 C 17.027 15.144,17.029 11.909,16.940 11.529 C 16.852 11.156,16.699 10.891,16.404 10.597 C 16.082 10.275,15.741 10.099,15.315 10.032 L 15.009 9.983 14.990 9.202 C 14.974 8.536,14.958 8.378,14.882 8.140 C 14.571 7.170,13.801 6.404,12.861 6.129 C 12.500 6.023,11.832 5.980,11.499 6.040 M12.310 8.061 C 12.452 8.103,12.571 8.178,12.697 8.303 C 12.948 8.554,13.000 8.751,13.000 9.447 L 13.000 10.000 12.000 10.000 L 11.000 10.000 11.000 9.447 C 11.000 8.750,11.052 8.554,11.304 8.303 C 11.583 8.024,11.916 7.944,12.310 8.061 M15.000 13.500 L 15.000 15.000 12.000 15.000 L 9.000 15.000 9.000 13.500 L 9.000 12.000 12.000 12.000 L 15.000 12.000 15.000 13.500 M3.695 15.057 C 3.466 15.129,3.256 15.299,3.128 15.516 L 3.020 15.700 3.020 17.120 C 3.020 18.497,3.023 18.549,3.114 18.840 C 3.419 19.817,4.158 20.563,5.140 20.884 C 5.404 20.970,5.495 20.976,6.764 20.991 C 7.647 21.001,8.163 20.992,8.268 20.963 C 8.498 20.901,8.737 20.713,8.867 20.492 C 8.964 20.327,8.980 20.257,8.980 20.000 C 8.980 19.746,8.963 19.672,8.872 19.516 C 8.761 19.327,8.569 19.156,8.373 19.071 C 8.296 19.038,7.854 19.016,6.980 19.001 L 5.700 18.980 5.516 18.872 C 5.327 18.761,5.157 18.570,5.071 18.373 C 5.037 18.295,5.015 17.865,5.001 16.980 L 4.980 15.700 4.872 15.516 C 4.628 15.101,4.150 14.915,3.695 15.057 M19.695 15.057 C 19.466 15.129,19.256 15.299,19.128 15.516 L 19.020 15.700 18.999 16.980 C 18.984 17.854,18.962 18.296,18.929 18.373 C 18.844 18.569,18.673 18.761,18.484 18.872 L 18.300 18.980 17.020 19.001 C 16.146 19.016,15.704 19.038,15.627 19.071 C 15.431 19.156,15.239 19.327,15.128 19.516 C 15.037 19.672,15.020 19.746,15.020 20.000 C 15.020 20.257,15.036 20.327,15.133 20.492 C 15.263 20.713,15.502 20.901,15.732 20.963 C 15.837 20.992,16.353 21.001,17.236 20.991 C 18.505 20.976,18.596 20.970,18.860 20.884 C 19.842 20.563,20.581 19.817,20.886 18.840 C 20.977 18.549,20.980 18.497,20.980 17.120 L 20.980 15.700 20.872 15.516 C 20.628 15.101,20.150 14.915,19.695 15.057 " stroke="none" fill-rule="evenodd" fill="black"></path></svg>