<svg xmlns="http://www.w3.org/2000/svg" width="24" height="24" viewBox="0 0 24 24" fill="none" stroke="currentColor" stroke-width="2" stroke-linecap="round" stroke-linejoin="round"><path d="M11.400 2.044 C 9.761 2.229,8.261 3.290,7.526 4.785 C 7.345 5.153,7.194 5.578,7.096 6.000 C 7.037 6.256,7.024 6.571,7.011 8.145 L 6.995 9.990 6.712 10.018 C 5.496 10.138,4.485 10.971,4.114 12.160 L 4.020 12.460 4.020 16.000 L 4.020 19.540 4.114 19.840 C 4.418 20.816,5.150 21.554,6.140 21.886 L 6.420 21.980 10.040 21.991 C 14.081 22.004,13.845 22.020,14.173 21.724 C 14.381 21.536,14.488 21.292,14.488 21.003 C 14.488 20.615,14.294 20.298,13.940 20.106 C 13.780 20.020,13.774 20.020,10.240 20.000 L 6.700 19.980 6.516 19.872 C 6.303 19.747,6.141 19.550,6.058 19.316 C 5.969 19.063,5.971 12.991,6.061 12.690 C 6.144 12.411,6.411 12.144,6.690 12.061 C 6.992 11.971,17.061 11.969,17.315 12.058 C 17.556 12.143,17.659 12.229,17.878 12.525 C 18.125 12.859,18.378 13.000,18.730 13.000 C 19.293 13.000,19.725 12.578,19.734 12.019 C 19.738 11.791,19.678 11.619,19.506 11.360 C 19.014 10.620,18.252 10.150,17.357 10.035 L 17.005 9.990 16.989 8.145 C 16.976 6.571,16.963 6.256,16.904 6.000 C 16.543 4.449,15.584 3.211,14.213 2.525 C 13.352 2.095,12.397 1.932,11.400 2.044 M12.861 4.129 C 13.803 4.404,14.578 5.178,14.877 6.139 C 14.976 6.457,14.977 6.477,14.991 8.230 L 15.005 10.000 12.000 10.000 L 8.995 10.000 9.009 8.230 C 9.023 6.477,9.024 6.457,9.123 6.139 C 9.462 5.049,10.371 4.245,11.499 4.040 C 11.832 3.980,12.500 4.023,12.861 4.129 M11.477 14.073 C 10.806 14.249,10.238 14.823,10.060 15.508 C 9.941 15.962,10.003 16.492,10.225 16.930 C 10.361 17.199,10.801 17.639,11.070 17.775 C 11.659 18.073,12.341 18.073,12.930 17.775 C 13.196 17.640,13.638 17.200,13.771 16.937 C 13.994 16.498,14.052 16.007,13.940 15.529 C 13.858 15.182,13.720 14.927,13.465 14.653 C 13.074 14.232,12.560 14.005,12.000 14.005 C 11.857 14.005,11.622 14.036,11.477 14.073 M18.668 15.061 C 18.585 15.092,18.462 15.156,18.395 15.203 C 18.260 15.300,16.136 18.454,16.054 18.680 C 15.893 19.127,16.117 19.673,16.550 19.886 C 16.733 19.977,16.784 19.981,17.930 20.000 L 19.120 20.020 18.600 20.800 C 17.971 21.741,17.914 21.905,18.061 22.322 C 18.284 22.955,18.992 23.187,19.570 22.815 C 19.686 22.741,19.972 22.342,20.805 21.093 C 21.401 20.198,21.917 19.387,21.950 19.289 C 22.074 18.926,21.931 18.460,21.625 18.226 C 21.365 18.028,21.326 18.023,20.070 18.001 L 18.880 17.980 19.383 17.225 C 19.660 16.810,19.912 16.399,19.943 16.310 C 20.212 15.550,19.428 14.782,18.668 15.061 " stroke="none" fill-rule="evenodd" fill="black"></path></svg>