<svg xmlns="http://www.w3.org/2000/svg" width="24" height="24" viewBox="0 0 24 24" fill="none" stroke="currentColor" stroke-width="2" stroke-linecap="round" stroke-linejoin="round"><path d="M6.643 4.069 C 6.292 4.193,6.000 4.614,6.000 4.997 C 6.000 5.076,6.126 5.514,6.281 5.970 C 6.435 6.427,6.631 7.071,6.718 7.400 L 6.874 8.000 4.383 8.000 C 1.681 8.000,1.671 8.001,1.382 8.221 C 1.302 8.282,1.187 8.415,1.128 8.516 C 1.037 8.672,1.020 8.746,1.020 9.000 C 1.020 9.256,1.036 9.328,1.131 9.489 C 1.256 9.702,1.449 9.864,1.670 9.943 C 1.789 9.986,2.367 9.997,4.509 9.998 L 7.198 10.000 7.218 10.090 C 7.264 10.300,7.320 11.356,7.320 12.000 C 7.320 12.644,7.264 13.700,7.218 13.910 L 7.198 14.000 4.546 14.000 C 1.667 14.000,1.672 14.000,1.382 14.221 C 1.302 14.282,1.187 14.415,1.128 14.516 C 1.037 14.672,1.020 14.746,1.020 15.000 C 1.020 15.256,1.036 15.328,1.131 15.489 C 1.256 15.702,1.449 15.864,1.670 15.943 C 1.789 15.985,2.341 15.997,4.347 15.998 L 6.874 16.000 6.718 16.600 C 6.631 16.929,6.435 17.573,6.281 18.030 C 6.126 18.486,6.000 18.924,6.000 19.003 C 6.000 19.242,6.120 19.522,6.299 19.701 C 6.758 20.160,7.535 20.064,7.856 19.509 C 8.073 19.133,8.658 17.215,8.895 16.100 C 9.223 14.562,9.299 13.787,9.299 12.000 C 9.298 10.215,9.221 9.429,8.895 7.900 C 8.645 6.725,8.037 4.761,7.824 4.439 C 7.579 4.069,7.083 3.913,6.643 4.069 M9.667 4.065 C 9.303 4.177,9.000 4.599,9.000 4.995 C 9.000 5.072,9.143 5.559,9.318 6.077 C 10.107 8.416,10.428 10.571,10.318 12.790 C 10.228 14.598,9.938 16.086,9.313 17.937 C 9.020 18.804,8.992 18.914,9.013 19.113 C 9.042 19.396,9.205 19.662,9.452 19.828 C 9.781 20.049,10.047 20.045,11.280 19.799 C 15.541 18.953,18.407 16.465,18.940 13.150 L 18.964 13.000 20.572 12.998 C 22.302 12.996,22.346 12.992,22.619 12.783 C 22.696 12.725,22.808 12.592,22.869 12.489 C 22.964 12.328,22.980 12.256,22.980 12.000 C 22.980 11.746,22.963 11.672,22.872 11.516 C 22.813 11.415,22.698 11.282,22.618 11.221 C 22.341 11.010,22.246 11.000,20.496 11.000 L 18.886 11.000 18.821 10.770 C 18.416 9.321,17.830 8.309,16.801 7.279 C 15.275 5.753,13.236 4.707,10.646 4.121 C 10.049 3.986,9.944 3.980,9.667 4.065 M12.068 6.618 C 13.412 7.110,14.773 7.995,15.612 8.922 C 16.237 9.613,16.716 10.524,16.903 11.380 C 16.998 11.816,16.998 12.703,16.903 13.140 C 16.561 14.708,15.365 16.067,13.541 16.961 C 13.044 17.204,12.020 17.582,11.644 17.660 C 11.516 17.687,11.510 17.684,11.535 17.594 C 12.569 13.932,12.626 10.635,11.717 7.089 C 11.538 6.394,11.544 6.425,11.610 6.450 C 11.638 6.460,11.844 6.536,12.068 6.618 " stroke="none" fill-rule="evenodd" fill="black"></path></svg>