<svg xmlns="http://www.w3.org/2000/svg" width="24" height="24" viewBox="0 0 24 24" fill="none" stroke="currentColor" stroke-width="2" stroke-linecap="round" stroke-linejoin="round"><path d="M10.499 3.042 C 9.378 3.234,8.461 4.048,8.114 5.160 C 8.023 5.451,8.020 5.503,8.020 6.883 L 8.020 8.306 8.141 8.503 C 8.543 9.156,9.457 9.156,9.859 8.503 L 9.980 8.307 10.000 7.023 C 10.023 5.581,10.025 5.571,10.321 5.283 C 10.625 4.988,10.453 5.000,14.500 5.000 C 18.583 5.000,18.379 4.985,18.697 5.303 C 19.023 5.629,19.000 5.126,19.000 12.001 C 19.000 17.059,18.991 18.139,18.945 18.290 C 18.872 18.533,18.707 18.740,18.484 18.872 L 18.300 18.980 14.500 18.980 L 10.700 18.980 10.516 18.872 C 10.327 18.761,10.157 18.570,10.071 18.373 C 10.037 18.295,10.015 17.865,10.001 16.980 L 9.980 15.700 9.871 15.514 C 9.479 14.848,8.521 14.848,8.129 15.514 L 8.020 15.700 8.020 17.120 C 8.020 18.497,8.023 18.549,8.114 18.840 C 8.422 19.827,9.173 20.578,10.160 20.886 L 10.460 20.980 14.500 20.980 L 18.540 20.980 18.840 20.886 C 19.827 20.578,20.578 19.827,20.886 18.840 L 20.980 18.540 20.980 12.000 L 20.980 5.460 20.886 5.160 C 20.581 4.182,19.831 3.427,18.861 3.121 L 18.540 3.020 14.620 3.014 C 12.464 3.011,10.609 3.024,10.499 3.042 M12.670 8.061 C 12.448 8.142,12.250 8.309,12.128 8.516 C 12.036 8.672,12.020 8.745,12.021 9.000 C 12.021 9.213,12.043 9.340,12.096 9.440 C 12.136 9.517,12.486 9.900,12.873 10.290 L 13.577 11.000 8.235 11.000 C 3.824 11.000,2.861 11.010,2.710 11.055 C 2.467 11.128,2.260 11.293,2.128 11.516 C 2.037 11.672,2.020 11.746,2.020 12.000 C 2.020 12.256,2.036 12.328,2.131 12.489 C 2.256 12.702,2.449 12.864,2.670 12.943 C 2.792 12.987,3.810 12.997,8.199 12.998 L 13.577 13.000 12.873 13.710 C 12.486 14.101,12.139 14.481,12.101 14.555 C 11.872 15.008,12.056 15.601,12.508 15.867 C 12.673 15.964,12.742 15.980,13.000 15.979 C 13.212 15.979,13.341 15.957,13.440 15.905 C 13.517 15.865,14.306 15.109,15.194 14.226 C 16.957 12.472,16.999 12.420,16.999 12.000 C 16.999 11.578,16.960 11.530,15.175 9.756 C 13.716 8.307,13.519 8.124,13.343 8.066 C 13.108 7.987,12.875 7.986,12.670 8.061 " stroke="none" fill-rule="evenodd" fill="black"></path></svg>