<svg xmlns="http://www.w3.org/2000/svg" width="24" height="24" viewBox="0 0 24 24" fill="none" stroke="currentColor" stroke-width="2" stroke-linecap="round" stroke-linejoin="round"><path d="M6.695 4.057 C 6.466 4.129,6.256 4.299,6.128 4.516 L 6.020 4.700 6.008 6.350 L 5.997 8.000 3.945 8.000 C 1.718 8.000,1.666 8.004,1.382 8.221 C 1.302 8.282,1.187 8.415,1.128 8.516 C 1.037 8.672,1.020 8.746,1.020 9.000 C 1.020 9.256,1.036 9.328,1.131 9.489 C 1.256 9.702,1.449 9.864,1.670 9.943 C 1.788 9.985,2.269 9.997,3.910 9.998 L 6.000 10.000 6.000 12.000 L 6.000 14.000 3.946 14.000 C 1.717 14.000,1.666 14.004,1.382 14.221 C 1.302 14.282,1.187 14.415,1.128 14.516 C 1.037 14.672,1.020 14.746,1.020 15.000 C 1.020 15.256,1.036 15.328,1.131 15.489 C 1.256 15.702,1.449 15.864,1.670 15.943 C 1.788 15.985,2.269 15.997,3.910 15.998 L 6.000 16.000 6.000 17.575 C 6.000 19.279,6.007 19.344,6.222 19.626 C 6.443 19.916,6.900 20.063,7.268 19.963 C 7.385 19.932,8.963 18.849,12.378 16.459 L 17.320 13.000 19.750 12.998 C 21.675 12.997,22.211 12.985,22.330 12.943 C 22.551 12.864,22.744 12.702,22.869 12.489 C 22.964 12.328,22.980 12.256,22.980 12.000 C 22.980 11.746,22.963 11.672,22.872 11.516 C 22.813 11.415,22.698 11.282,22.618 11.221 C 22.330 11.001,22.311 11.000,19.711 11.000 L 17.314 11.000 12.398 7.559 C 9.694 5.666,7.407 4.091,7.316 4.059 C 7.116 3.988,6.917 3.988,6.695 4.057 M15.237 12.000 C 15.237 12.011,13.705 13.091,11.832 14.400 C 9.959 15.709,8.331 16.848,8.213 16.932 L 8.000 17.084 8.000 12.004 L 8.000 6.924 11.618 9.452 C 13.608 10.842,15.236 11.989,15.237 12.000 " stroke="none" fill-rule="evenodd" fill="black"></path></svg>