<svg xmlns="http://www.w3.org/2000/svg" width="24" height="24" viewBox="0 0 24 24" fill="none" stroke="currentColor" stroke-width="2" stroke-linecap="round" stroke-linejoin="round"><path d="M4.695 4.057 C 4.466 4.129,4.256 4.299,4.128 4.516 L 4.020 4.700 4.008 6.350 L 3.997 8.000 2.945 8.000 C 1.797 8.000,1.643 8.022,1.382 8.221 C 1.302 8.282,1.187 8.415,1.128 8.516 C 1.037 8.672,1.020 8.746,1.020 9.000 C 1.020 9.256,1.036 9.328,1.131 9.489 C 1.192 9.592,1.304 9.725,1.381 9.783 C 1.643 9.983,1.738 9.996,2.910 9.998 L 4.000 10.000 4.000 12.000 L 4.000 14.000 2.946 14.000 C 1.797 14.000,1.644 14.022,1.382 14.221 C 1.302 14.282,1.187 14.415,1.128 14.516 C 1.037 14.672,1.020 14.746,1.020 15.000 C 1.020 15.256,1.036 15.328,1.131 15.489 C 1.192 15.592,1.304 15.725,1.381 15.783 C 1.643 15.983,1.738 15.996,2.910 15.998 L 4.000 16.000 4.002 17.590 C 4.004 19.300,4.009 19.346,4.217 19.619 C 4.275 19.696,4.408 19.808,4.511 19.869 L 4.700 19.980 6.100 19.993 C 7.957 20.010,8.802 19.944,9.920 19.695 C 10.972 19.461,12.145 18.959,12.920 18.411 C 13.483 18.013,14.318 17.163,14.679 16.620 C 15.014 16.116,15.295 15.563,15.482 15.039 C 15.588 14.745,15.624 14.682,15.676 14.705 C 15.711 14.721,15.893 14.788,16.080 14.855 C 16.395 14.967,16.461 14.976,16.980 14.978 C 17.459 14.980,17.583 14.966,17.840 14.886 C 18.646 14.635,19.318 14.068,19.688 13.330 L 19.853 13.000 21.017 12.998 C 22.268 12.996,22.355 12.985,22.619 12.783 C 22.696 12.725,22.808 12.592,22.869 12.489 C 22.964 12.328,22.980 12.256,22.980 12.000 C 22.980 11.746,22.963 11.672,22.872 11.516 C 22.813 11.415,22.698 11.282,22.618 11.221 C 22.354 11.020,22.208 11.000,20.980 11.000 L 19.853 11.000 19.688 10.670 C 19.509 10.313,19.246 9.982,18.911 9.695 C 18.053 8.959,16.783 8.802,15.676 9.295 C 15.625 9.318,15.588 9.255,15.482 8.961 C 14.880 7.277,13.604 5.845,11.978 5.030 C 10.887 4.482,9.561 4.150,8.040 4.042 C 7.189 3.982,4.903 3.992,4.695 4.057 M8.600 6.100 C 11.077 6.441,12.705 7.534,13.513 9.400 C 14.061 10.667,14.143 12.578,13.712 14.060 C 13.585 14.495,13.199 15.265,12.920 15.639 C 12.122 16.709,10.925 17.434,9.420 17.757 C 8.645 17.924,8.229 17.966,7.110 17.988 L 6.000 18.011 6.000 11.999 L 6.000 5.988 7.070 6.013 C 7.678 6.027,8.339 6.064,8.600 6.100 M17.310 11.061 C 17.688 11.173,18.000 11.598,18.000 12.001 C 18.000 12.331,17.784 12.696,17.484 12.872 C 17.328 12.963,17.254 12.980,17.000 12.980 C 16.746 12.980,16.672 12.963,16.516 12.872 C 15.932 12.528,15.831 11.775,16.307 11.299 C 16.582 11.024,16.918 10.944,17.310 11.061 " stroke="none" fill-rule="evenodd" fill="black"></path></svg>