<svg xmlns="http://www.w3.org/2000/svg" width="24" height="24" viewBox="0 0 24 24" fill="none" stroke="currentColor" stroke-width="2" stroke-linecap="round" stroke-linejoin="round"><path d="M5.667 4.065 C 5.300 4.178,5.000 4.599,5.000 5.002 C 5.000 5.084,5.117 5.487,5.260 5.899 C 5.476 6.521,5.729 7.368,5.855 7.890 L 5.882 8.000 3.887 8.000 C 1.722 8.000,1.665 8.005,1.382 8.221 C 1.302 8.282,1.187 8.415,1.128 8.516 C 1.037 8.672,1.020 8.746,1.020 9.000 C 1.020 9.256,1.036 9.328,1.131 9.489 C 1.256 9.702,1.449 9.864,1.670 9.943 C 1.788 9.985,2.288 9.997,4.025 9.998 L 6.230 10.000 6.255 10.230 C 6.356 11.133,6.356 12.867,6.255 13.770 L 6.230 14.000 4.061 14.000 C 1.708 14.000,1.668 14.003,1.382 14.221 C 1.302 14.282,1.187 14.415,1.128 14.516 C 1.037 14.672,1.020 14.746,1.020 15.000 C 1.020 15.256,1.036 15.328,1.131 15.489 C 1.256 15.702,1.449 15.864,1.670 15.943 C 1.788 15.985,2.259 15.997,3.851 15.998 L 5.882 16.000 5.855 16.110 C 5.728 16.639,5.476 17.480,5.257 18.106 C 5.019 18.788,4.995 18.882,5.013 19.094 C 5.050 19.527,5.409 19.921,5.826 19.983 C 6.329 20.058,8.280 19.627,9.460 19.180 C 11.731 18.318,13.489 16.832,14.347 15.047 C 14.450 14.834,14.538 14.654,14.543 14.647 C 14.548 14.640,14.622 14.670,14.707 14.713 C 15.090 14.909,15.433 14.979,16.000 14.979 C 16.453 14.979,16.588 14.964,16.840 14.886 C 17.645 14.635,18.318 14.069,18.688 13.330 L 18.853 13.000 20.517 12.998 C 22.306 12.996,22.345 12.992,22.619 12.783 C 22.696 12.725,22.808 12.592,22.869 12.489 C 22.964 12.328,22.980 12.256,22.980 12.000 C 22.980 11.746,22.963 11.672,22.872 11.516 C 22.813 11.415,22.698 11.282,22.618 11.221 C 22.341 11.010,22.248 11.000,20.480 11.000 L 18.853 11.000 18.688 10.670 C 18.321 9.937,17.641 9.362,16.861 9.125 C 16.595 9.044,16.451 9.027,16.020 9.025 C 15.421 9.022,15.027 9.110,14.619 9.336 L 14.382 9.467 14.166 9.084 C 13.567 8.019,12.879 7.237,11.810 6.407 C 10.484 5.377,8.694 4.584,6.646 4.121 C 6.049 3.986,5.944 3.980,5.667 4.065 M8.068 6.618 C 9.412 7.110,10.773 7.995,11.612 8.922 C 12.237 9.613,12.716 10.524,12.903 11.380 C 12.998 11.816,12.998 12.703,12.903 13.140 C 12.561 14.708,11.365 16.067,9.541 16.961 C 9.044 17.204,8.020 17.582,7.644 17.660 C 7.516 17.687,7.510 17.684,7.535 17.594 C 8.569 13.932,8.626 10.635,7.717 7.089 C 7.538 6.394,7.544 6.425,7.610 6.450 C 7.638 6.460,7.844 6.536,8.068 6.618 M16.310 11.061 C 16.688 11.173,17.000 11.598,17.000 12.001 C 17.000 12.331,16.784 12.696,16.484 12.872 C 16.328 12.963,16.254 12.980,16.000 12.980 C 15.746 12.980,15.672 12.963,15.516 12.872 C 14.932 12.528,14.831 11.775,15.307 11.299 C 15.582 11.024,15.918 10.944,16.310 11.061 " stroke="none" fill-rule="evenodd" fill="black"></path></svg>