<svg xmlns="http://www.w3.org/2000/svg" width="24" height="24" viewBox="0 0 24 24" fill="none" stroke="currentColor" stroke-width="2" stroke-linecap="round" stroke-linejoin="round"><path d="M6.695 4.057 C 6.466 4.129,6.256 4.299,6.128 4.516 L 6.020 4.700 6.008 6.350 L 5.997 8.000 3.945 8.000 C 1.718 8.000,1.666 8.004,1.382 8.221 C 1.302 8.282,1.187 8.415,1.128 8.516 C 1.037 8.672,1.020 8.746,1.020 9.000 C 1.020 9.256,1.036 9.328,1.131 9.489 C 1.256 9.702,1.449 9.864,1.670 9.943 C 1.788 9.985,2.269 9.997,3.910 9.998 L 6.000 10.000 6.000 12.000 L 6.000 14.000 3.946 14.000 C 1.717 14.000,1.666 14.004,1.382 14.221 C 1.302 14.282,1.187 14.415,1.128 14.516 C 1.037 14.672,1.020 14.746,1.020 15.000 C 1.020 15.256,1.036 15.328,1.131 15.489 C 1.256 15.702,1.449 15.864,1.670 15.943 C 1.788 15.985,2.269 15.997,3.910 15.998 L 6.000 16.000 6.002 17.590 C 6.004 19.300,6.009 19.346,6.217 19.619 C 6.275 19.696,6.408 19.808,6.511 19.869 L 6.700 19.980 8.100 19.993 C 9.957 20.010,10.802 19.944,11.920 19.695 C 12.630 19.537,13.283 19.305,13.940 18.978 C 14.734 18.583,15.185 18.256,15.843 17.601 C 16.457 16.990,16.852 16.440,17.197 15.717 C 17.535 15.009,17.833 13.993,17.911 13.280 L 17.940 13.020 20.120 13.000 L 22.300 12.980 22.492 12.867 C 23.211 12.444,23.143 11.412,22.373 11.070 C 22.289 11.033,21.705 11.015,20.100 11.000 L 17.940 10.980 17.911 10.720 C 17.833 10.007,17.535 8.991,17.197 8.283 C 16.645 7.126,15.679 6.052,14.576 5.368 C 13.347 4.605,11.861 4.171,10.040 4.042 C 9.189 3.982,6.903 3.992,6.695 4.057 M10.600 6.100 C 13.077 6.441,14.705 7.534,15.513 9.400 C 16.061 10.667,16.143 12.578,15.712 14.060 C 15.585 14.495,15.199 15.265,14.920 15.639 C 14.122 16.709,12.925 17.434,11.420 17.757 C 10.645 17.924,10.229 17.966,9.110 17.988 L 8.000 18.011 8.000 11.999 L 8.000 5.988 9.070 6.013 C 9.678 6.027,10.339 6.064,10.600 6.100 " stroke="none" fill-rule="evenodd" fill="black"></path></svg>