<svg xmlns="http://www.w3.org/2000/svg" width="24" height="24" viewBox="0 0 24 24" fill="none" stroke="currentColor" stroke-width="2" stroke-linecap="round" stroke-linejoin="round"><path d="M4.643 4.069 C 4.292 4.193,4.000 4.614,4.000 4.997 C 4.000 5.076,4.126 5.514,4.281 5.970 C 4.435 6.427,4.631 7.071,4.718 7.400 L 4.874 8.000 3.383 8.000 C 1.763 8.000,1.657 8.012,1.382 8.221 C 1.302 8.282,1.187 8.415,1.128 8.516 C 1.037 8.672,1.020 8.746,1.020 9.000 C 1.020 9.256,1.036 9.328,1.131 9.489 C 1.192 9.592,1.304 9.725,1.381 9.783 C 1.655 9.993,1.692 9.996,3.509 9.998 L 5.198 10.000 5.218 10.090 C 5.264 10.300,5.320 11.356,5.320 12.000 C 5.320 12.644,5.264 13.700,5.218 13.910 L 5.198 14.000 3.546 14.000 C 1.750 14.000,1.660 14.009,1.382 14.221 C 1.302 14.282,1.187 14.415,1.128 14.516 C 1.037 14.672,1.020 14.746,1.020 15.000 C 1.020 15.256,1.036 15.328,1.131 15.489 C 1.192 15.592,1.304 15.725,1.381 15.783 C 1.653 15.991,1.705 15.996,3.347 15.998 L 4.874 16.000 4.718 16.600 C 4.631 16.929,4.435 17.573,4.281 18.030 C 4.126 18.486,4.000 18.924,4.000 19.003 C 4.000 19.242,4.120 19.522,4.299 19.701 C 4.758 20.160,5.535 20.064,5.856 19.509 C 6.073 19.133,6.658 17.215,6.895 16.100 C 7.223 14.562,7.299 13.787,7.299 12.000 C 7.298 10.215,7.221 9.429,6.895 7.900 C 6.645 6.725,6.037 4.761,5.824 4.439 C 5.579 4.069,5.083 3.913,4.643 4.069 M7.667 4.065 C 7.303 4.177,7.000 4.599,7.000 4.995 C 7.000 5.072,7.143 5.559,7.318 6.077 C 8.107 8.416,8.428 10.571,8.318 12.790 C 8.228 14.598,7.938 16.086,7.313 17.937 C 7.020 18.804,6.992 18.914,7.013 19.113 C 7.056 19.533,7.420 19.922,7.826 19.983 C 8.329 20.058,10.280 19.627,11.460 19.180 C 13.731 18.318,15.489 16.832,16.347 15.047 C 16.450 14.834,16.538 14.654,16.543 14.647 C 16.548 14.640,16.622 14.670,16.707 14.713 C 17.090 14.909,17.433 14.979,18.000 14.979 C 18.453 14.979,18.588 14.964,18.840 14.886 C 19.645 14.635,20.318 14.069,20.688 13.330 L 20.853 13.000 21.517 12.998 C 22.232 12.996,22.377 12.968,22.619 12.783 C 22.696 12.725,22.808 12.592,22.869 12.489 C 22.964 12.328,22.980 12.256,22.980 12.000 C 22.980 11.746,22.963 11.672,22.872 11.516 C 22.627 11.099,22.359 11.000,21.480 11.000 L 20.853 11.000 20.688 10.670 C 20.321 9.937,19.641 9.362,18.861 9.125 C 18.595 9.044,18.451 9.027,18.020 9.025 C 17.421 9.022,17.027 9.110,16.619 9.336 L 16.382 9.467 16.166 9.084 C 15.567 8.019,14.879 7.237,13.810 6.407 C 12.484 5.377,10.694 4.584,8.646 4.121 C 8.049 3.986,7.944 3.980,7.667 4.065 M10.068 6.618 C 11.412 7.110,12.773 7.995,13.612 8.922 C 14.237 9.613,14.716 10.524,14.903 11.380 C 14.998 11.816,14.998 12.703,14.903 13.140 C 14.561 14.708,13.365 16.067,11.541 16.961 C 11.044 17.204,10.020 17.582,9.644 17.660 C 9.516 17.687,9.510 17.684,9.535 17.594 C 10.569 13.932,10.626 10.635,9.717 7.089 C 9.538 6.394,9.544 6.425,9.610 6.450 C 9.638 6.460,9.844 6.536,10.068 6.618 M18.310 11.061 C 18.688 11.173,19.000 11.598,19.000 12.001 C 19.000 12.331,18.784 12.696,18.484 12.872 C 18.328 12.963,18.254 12.980,18.000 12.980 C 17.746 12.980,17.672 12.963,17.516 12.872 C 16.935 12.530,16.833 11.774,17.304 11.303 C 17.583 11.024,17.916 10.944,18.310 11.061 " stroke="none" fill-rule="evenodd" fill="black"></path></svg>