<svg xmlns="http://www.w3.org/2000/svg" width="24" height="24" viewBox="0 0 24 24" fill="none" stroke="currentColor" stroke-width="2" stroke-linecap="round" stroke-linejoin="round"><path d="M4.499 3.042 C 3.378 3.234,2.461 4.048,2.114 5.160 L 2.020 5.460 2.020 12.000 L 2.020 18.540 2.114 18.840 C 2.422 19.827,3.173 20.578,4.160 20.886 L 4.460 20.980 8.500 20.980 L 12.540 20.980 12.840 20.886 C 13.827 20.578,14.578 19.827,14.886 18.840 C 14.977 18.549,14.980 18.497,14.980 17.120 L 14.980 15.700 14.871 15.514 C 14.479 14.848,13.521 14.848,13.129 15.514 L 13.020 15.700 12.999 16.980 C 12.984 17.854,12.962 18.296,12.929 18.373 C 12.844 18.569,12.673 18.761,12.484 18.872 L 12.300 18.980 8.500 18.980 L 4.700 18.980 4.516 18.872 C 4.415 18.813,4.284 18.700,4.225 18.623 C 3.987 18.311,4.000 18.701,4.000 12.022 C 4.000 5.123,3.977 5.629,4.303 5.303 C 4.621 4.985,4.417 5.000,8.500 5.000 C 12.547 5.000,12.375 4.988,12.679 5.283 C 12.975 5.571,12.977 5.581,13.000 7.023 L 13.020 8.307 13.141 8.503 C 13.543 9.156,14.457 9.156,14.859 8.503 L 14.980 8.306 14.980 6.883 C 14.980 5.503,14.977 5.451,14.886 5.160 C 14.581 4.182,13.831 3.427,12.861 3.121 L 12.540 3.020 8.620 3.014 C 6.464 3.011,4.609 3.024,4.499 3.042 M17.670 8.061 C 17.448 8.142,17.250 8.309,17.128 8.516 C 17.036 8.672,17.020 8.745,17.021 9.000 C 17.021 9.213,17.043 9.340,17.096 9.440 C 17.136 9.517,17.486 9.900,17.873 10.290 L 18.577 11.000 13.735 11.000 C 9.748 11.000,8.861 11.010,8.710 11.055 C 8.467 11.128,8.260 11.293,8.128 11.516 C 8.037 11.672,8.020 11.746,8.020 12.000 C 8.020 12.256,8.036 12.328,8.131 12.489 C 8.256 12.702,8.449 12.864,8.670 12.943 C 8.792 12.987,9.728 12.997,13.699 12.998 L 18.577 13.000 17.873 13.710 C 17.486 14.101,17.139 14.481,17.101 14.555 C 16.872 15.008,17.056 15.601,17.508 15.867 C 17.673 15.964,17.742 15.980,18.000 15.979 C 18.212 15.979,18.341 15.957,18.440 15.905 C 18.517 15.865,19.306 15.109,20.194 14.226 C 21.957 12.472,21.999 12.420,21.999 12.000 C 21.999 11.578,21.960 11.530,20.175 9.756 C 18.716 8.307,18.519 8.124,18.343 8.066 C 18.108 7.987,17.875 7.986,17.670 8.061 " stroke="none" fill-rule="evenodd" fill="black"></path></svg>