<svg xmlns="http://www.w3.org/2000/svg" width="24" height="24" viewBox="0 0 24 24" fill="none" stroke="currentColor" stroke-width="2" stroke-linecap="round" stroke-linejoin="round"><path d="M11.499 3.042 C 10.378 3.234,9.461 4.048,9.114 5.160 C 9.023 5.451,9.020 5.503,9.020 6.883 L 9.020 8.306 9.141 8.503 C 9.543 9.156,10.457 9.156,10.859 8.503 L 10.980 8.307 11.000 7.023 C 11.023 5.581,11.025 5.571,11.321 5.283 C 11.625 4.988,11.453 5.000,15.500 5.000 C 19.583 5.000,19.379 4.985,19.697 5.303 C 20.023 5.629,20.000 5.126,20.000 12.001 C 20.000 17.059,19.991 18.139,19.945 18.290 C 19.872 18.533,19.707 18.740,19.484 18.872 L 19.300 18.980 15.500 18.980 L 11.700 18.980 11.516 18.872 C 11.327 18.761,11.157 18.570,11.071 18.373 C 11.037 18.295,11.015 17.865,11.001 16.980 L 10.980 15.700 10.871 15.514 C 10.479 14.848,9.521 14.848,9.129 15.514 L 9.020 15.700 9.020 17.120 C 9.020 18.497,9.023 18.549,9.114 18.840 C 9.422 19.827,10.173 20.578,11.160 20.886 L 11.460 20.980 15.500 20.980 L 19.540 20.980 19.840 20.886 C 20.827 20.578,21.578 19.827,21.886 18.840 L 21.980 18.540 21.980 12.000 L 21.980 5.460 21.886 5.160 C 21.581 4.182,20.831 3.427,19.861 3.121 L 19.540 3.020 15.620 3.014 C 13.464 3.011,11.609 3.024,11.499 3.042 M5.640 8.069 C 5.488 8.121,5.205 8.384,3.825 9.755 C 2.040 11.530,2.001 11.578,2.001 12.000 C 2.001 12.420,2.043 12.472,3.806 14.226 C 4.694 15.109,5.481 15.862,5.555 15.899 C 6.010 16.128,6.601 15.944,6.867 15.492 C 6.964 15.327,6.980 15.258,6.979 15.000 C 6.979 14.787,6.957 14.660,6.904 14.560 C 6.864 14.483,6.514 14.101,6.127 13.710 L 5.423 13.000 10.301 12.998 C 14.272 12.997,15.208 12.987,15.330 12.943 C 15.551 12.864,15.744 12.702,15.869 12.489 C 15.964 12.328,15.980 12.256,15.980 12.000 C 15.980 11.746,15.963 11.672,15.872 11.516 C 15.740 11.293,15.533 11.128,15.290 11.055 C 15.139 11.010,14.252 11.000,10.265 11.000 L 5.423 11.000 6.127 10.290 C 6.514 9.900,6.864 9.517,6.904 9.440 C 6.957 9.340,6.979 9.213,6.979 9.000 C 6.980 8.745,6.964 8.672,6.872 8.516 C 6.617 8.083,6.121 7.902,5.640 8.069 " stroke="none" fill-rule="evenodd" fill="black"></path></svg>