<svg xmlns="http://www.w3.org/2000/svg" width="24" height="24" viewBox="0 0 24 24" fill="none" stroke="currentColor" stroke-width="2" stroke-linecap="round" stroke-linejoin="round"><path d="M2.670 2.061 C 2.448 2.142,2.250 2.309,2.128 2.516 C 2.036 2.672,2.020 2.745,2.021 3.000 C 2.021 3.212,2.043 3.341,2.095 3.440 C 2.135 3.517,3.102 4.516,4.244 5.661 L 6.320 7.741 6.222 8.128 C 5.669 10.307,6.153 12.810,7.481 14.644 L 7.672 14.908 4.954 17.624 C 3.429 19.147,2.188 20.419,2.127 20.520 C 2.036 20.673,2.020 20.746,2.020 21.000 C 2.020 21.257,2.036 21.327,2.133 21.492 C 2.413 21.968,3.033 22.139,3.492 21.865 C 3.584 21.810,4.882 20.542,6.376 19.046 L 9.092 16.328 9.356 16.519 C 10.011 16.993,10.627 17.306,11.443 17.577 C 12.923 18.069,14.354 18.135,15.860 17.778 L 16.260 17.683 18.340 19.758 C 19.484 20.898,20.483 21.865,20.560 21.905 C 20.659 21.957,20.788 21.979,21.000 21.979 C 21.258 21.980,21.327 21.964,21.492 21.867 C 21.968 21.587,22.139 20.967,21.865 20.508 C 21.810 20.416,17.665 16.243,12.653 11.235 C 4.231 2.820,3.525 2.125,3.343 2.065 C 3.107 1.987,2.874 1.986,2.670 2.061 M13.020 2.065 C 11.544 2.253,10.140 2.846,9.003 3.762 C 8.505 4.163,8.186 4.502,8.118 4.700 C 7.956 5.177,8.168 5.712,8.614 5.949 C 8.754 6.024,9.222 6.044,9.415 5.984 L 9.530 5.949 9.510 6.224 C 9.473 6.742,9.610 7.093,9.940 7.320 C 10.258 7.539,10.741 7.539,11.058 7.321 C 11.314 7.145,11.434 6.933,11.483 6.570 C 11.580 5.841,11.611 5.713,11.767 5.391 C 11.894 5.128,11.992 4.997,12.253 4.741 C 12.820 4.184,13.240 4.020,14.080 4.027 C 15.391 4.037,16.512 4.420,17.618 5.236 L 17.977 5.500 17.378 5.525 C 17.046 5.538,16.656 5.579,16.500 5.616 C 14.693 6.050,13.355 7.482,13.059 9.300 C 12.971 9.842,12.982 10.179,13.095 10.420 C 13.281 10.813,13.568 10.976,14.140 11.014 C 14.824 11.059,15.251 11.253,15.744 11.740 C 16.142 12.132,16.376 12.566,16.440 13.030 C 16.555 13.862,16.561 13.887,16.677 14.056 C 17.080 14.642,17.988 14.625,18.339 14.025 C 18.481 13.783,18.515 13.546,18.473 13.093 C 18.353 11.789,17.710 10.651,16.651 9.871 C 16.349 9.649,15.788 9.359,15.430 9.239 C 15.282 9.190,15.160 9.132,15.160 9.110 C 15.160 8.982,15.460 8.539,15.740 8.255 C 16.249 7.738,16.769 7.521,17.500 7.521 C 18.170 7.521,18.717 7.733,19.188 8.174 C 19.838 8.782,20.052 9.416,19.962 10.469 C 19.840 11.898,19.339 13.039,18.367 14.100 C 18.226 14.254,18.074 14.461,18.029 14.560 C 17.927 14.783,17.923 15.116,18.019 15.350 C 18.106 15.561,18.419 15.849,18.631 15.912 C 19.070 16.044,19.399 15.920,19.840 15.456 C 20.900 14.341,21.591 12.949,21.888 11.329 C 22.011 10.657,22.011 9.344,21.889 8.680 C 21.567 6.940,20.858 5.575,19.642 4.356 C 17.902 2.611,15.435 1.758,13.020 2.065 M9.536 10.956 C 11.195 12.616,11.120 12.495,10.498 12.493 C 10.081 12.492,9.818 12.429,9.400 12.230 C 8.693 11.894,8.164 11.180,8.043 10.399 C 7.994 10.083,7.985 9.480,8.030 9.480 C 8.047 9.480,8.724 10.144,9.536 10.956 M13.554 14.974 L 14.527 15.948 14.338 15.974 C 13.770 16.052,12.867 15.940,12.122 15.699 C 11.427 15.474,10.649 15.045,10.200 14.638 L 10.020 14.475 10.287 14.498 C 10.830 14.546,11.755 14.373,12.286 14.126 C 12.426 14.060,12.549 14.005,12.560 14.003 C 12.571 14.002,13.019 14.438,13.554 14.974 " stroke="none" fill-rule="evenodd" fill="black"></path></svg>