<svg xmlns="http://www.w3.org/2000/svg" width="24" height="24" viewBox="0 0 24 24" fill="none" stroke="currentColor" stroke-width="2" stroke-linecap="round" stroke-linejoin="round"><path d="M2.670 2.061 C 2.448 2.142,2.250 2.309,2.128 2.516 C 2.036 2.672,2.020 2.745,2.021 3.000 C 2.021 3.212,2.043 3.341,2.095 3.440 C 2.135 3.517,2.867 4.282,3.721 5.140 L 5.274 6.700 5.147 7.060 L 5.020 7.420 5.020 12.980 L 5.020 18.540 5.114 18.840 C 5.483 20.022,6.511 20.876,7.695 20.983 L 7.992 21.010 8.019 21.184 C 8.054 21.423,8.260 21.713,8.497 21.859 C 8.671 21.966,8.729 21.980,9.000 21.980 C 9.271 21.980,9.329 21.966,9.503 21.859 C 9.742 21.712,9.946 21.422,9.982 21.179 L 10.009 21.000 12.000 21.000 L 13.991 21.000 14.018 21.179 C 14.054 21.422,14.258 21.712,14.497 21.859 C 14.671 21.966,14.729 21.980,15.000 21.980 C 15.271 21.980,15.329 21.966,15.503 21.859 C 15.740 21.713,15.946 21.423,15.981 21.184 L 16.008 21.010 16.305 20.983 C 17.030 20.918,17.643 20.609,18.197 20.031 L 18.399 19.821 19.409 20.826 C 19.965 21.379,20.483 21.864,20.560 21.905 C 20.659 21.957,20.787 21.979,21.000 21.979 C 21.258 21.980,21.327 21.964,21.492 21.867 C 21.968 21.587,22.139 20.967,21.865 20.508 C 21.810 20.416,17.665 16.243,12.653 11.235 C 4.231 2.820,3.525 2.125,3.343 2.065 C 3.107 1.987,2.874 1.986,2.670 2.061 M10.499 2.042 C 9.371 2.239,8.454 3.055,8.115 4.160 C 8.045 4.390,8.023 4.559,8.022 4.883 C 8.020 5.285,8.026 5.315,8.141 5.503 C 8.287 5.740,8.577 5.946,8.817 5.982 C 8.988 6.007,8.993 6.012,9.018 6.183 C 9.054 6.423,9.260 6.713,9.497 6.859 L 9.694 6.980 12.977 7.000 C 16.656 7.022,16.406 7.001,16.717 7.321 C 16.947 7.559,17.000 7.769,17.000 8.447 L 17.000 9.000 15.446 9.000 C 13.758 9.000,13.658 9.011,13.382 9.221 C 13.302 9.282,13.187 9.415,13.128 9.516 C 13.037 9.672,13.020 9.746,13.020 10.000 C 13.020 10.256,13.036 10.328,13.131 10.489 C 13.192 10.592,13.304 10.725,13.381 10.783 C 13.654 10.991,13.700 10.996,15.408 10.998 L 16.997 11.000 17.008 12.653 L 17.020 14.306 17.141 14.503 C 17.543 15.156,18.457 15.156,18.859 14.503 L 18.980 14.306 18.980 10.883 L 18.980 7.460 18.886 7.160 C 18.705 6.578,18.391 6.107,17.911 5.695 C 17.475 5.321,16.893 5.078,16.291 5.018 L 16.010 4.991 15.983 4.694 C 15.877 3.519,15.020 2.481,13.861 2.124 C 13.548 2.027,13.504 2.024,12.120 2.015 C 11.339 2.010,10.609 2.022,10.499 2.042 M13.310 4.061 C 13.589 4.144,13.856 4.411,13.939 4.690 C 13.973 4.802,14.000 4.918,14.000 4.947 C 14.000 4.990,13.629 5.000,12.000 5.000 C 10.371 5.000,10.000 4.990,10.000 4.947 C 10.000 4.918,10.027 4.802,10.061 4.690 C 10.140 4.421,10.412 4.143,10.673 4.063 C 10.952 3.977,13.023 3.975,13.310 4.061 M7.300 8.720 L 7.578 9.000 7.289 9.000 L 7.000 9.000 7.000 8.720 C 7.000 8.566,7.005 8.440,7.011 8.440 C 7.017 8.440,7.147 8.566,7.300 8.720 M11.580 13.000 L 13.580 15.000 10.290 15.000 L 7.000 15.000 7.000 13.000 L 7.000 11.000 8.290 11.000 L 9.580 11.000 11.580 13.000 M16.250 17.670 C 16.618 18.038,16.920 18.358,16.920 18.382 C 16.920 18.476,16.661 18.768,16.486 18.871 L 16.300 18.980 12.000 18.980 L 7.700 18.980 7.516 18.872 C 7.415 18.813,7.284 18.700,7.225 18.623 C 7.038 18.377,7.000 18.202,7.000 17.575 L 7.000 17.000 11.290 17.000 L 15.579 17.000 16.250 17.670 " stroke="none" fill-rule="evenodd" fill="black"></path></svg>