<svg xmlns="http://www.w3.org/2000/svg" width="24" height="24" viewBox="0 0 24 24" fill="none" stroke="currentColor" stroke-width="2" stroke-linecap="round" stroke-linejoin="round"><path d="M2.670 2.061 C 2.448 2.142,2.250 2.309,2.128 2.516 C 2.036 2.672,2.020 2.745,2.021 3.000 C 2.021 3.214,2.043 3.340,2.096 3.440 C 2.137 3.517,2.397 3.810,2.674 4.091 L 3.178 4.602 2.968 4.803 C 2.527 5.227,2.288 5.606,2.114 6.161 L 2.020 6.460 2.020 12.000 L 2.020 17.540 2.114 17.840 C 2.418 18.816,3.149 19.554,4.140 19.886 L 4.420 19.980 11.500 19.991 L 18.579 20.002 19.500 20.916 C 20.006 21.419,20.483 21.864,20.560 21.905 C 20.659 21.957,20.787 21.979,21.000 21.979 C 21.258 21.980,21.327 21.964,21.492 21.867 C 21.968 21.587,22.139 20.967,21.865 20.508 C 21.810 20.416,17.665 16.243,12.653 11.235 C 4.231 2.820,3.525 2.125,3.343 2.065 C 3.107 1.987,2.874 1.986,2.670 2.061 M8.695 4.057 C 8.465 4.129,8.256 4.299,8.128 4.516 C 8.037 4.672,8.020 4.746,8.020 5.000 C 8.020 5.256,8.036 5.328,8.131 5.489 C 8.256 5.702,8.449 5.864,8.670 5.943 C 8.792 5.987,9.771 5.997,13.963 5.998 C 19.762 6.000,19.373 5.979,19.698 6.304 C 19.798 6.404,19.880 6.500,19.880 6.516 C 19.880 6.533,18.620 7.387,17.080 8.414 C 14.137 10.377,14.158 10.361,14.039 10.736 C 13.970 10.955,14.013 11.287,14.138 11.501 C 14.368 11.892,14.842 12.083,15.280 11.960 C 15.357 11.939,16.446 11.237,17.700 10.401 L 19.980 8.880 20.000 13.093 L 20.020 17.306 20.141 17.503 C 20.543 18.156,21.457 18.156,21.859 17.503 L 21.980 17.306 21.980 11.883 L 21.980 6.460 21.886 6.160 C 21.581 5.182,20.832 4.428,19.861 4.121 L 19.540 4.020 14.200 4.012 C 9.900 4.006,8.828 4.015,8.695 4.057 M5.880 7.304 L 7.100 8.528 5.640 7.559 C 4.837 7.026,4.164 6.576,4.145 6.558 C 4.078 6.497,4.490 6.080,4.617 6.080 C 4.641 6.080,5.209 6.631,5.880 7.304 M7.815 11.411 C 9.859 12.773,11.602 13.913,11.690 13.944 C 11.893 14.015,12.107 14.015,12.309 13.944 L 12.468 13.888 14.524 15.944 L 16.580 18.001 10.640 17.990 L 4.700 17.980 4.516 17.872 C 4.415 17.813,4.284 17.700,4.225 17.623 C 3.990 17.315,4.000 17.516,4.000 13.013 C 4.000 9.713,4.010 8.881,4.050 8.905 C 4.077 8.922,5.772 10.049,7.815 11.411 " stroke="none" fill-rule="evenodd" fill="black"></path></svg>