<svg xmlns="http://www.w3.org/2000/svg" width="24" height="24" viewBox="0 0 24 24" fill="none" stroke="currentColor" stroke-width="2" stroke-linecap="round" stroke-linejoin="round"><path d="M4.499 4.043 C 3.380 4.232,2.461 5.048,2.114 6.160 L 2.020 6.460 2.020 12.000 L 2.020 17.540 2.114 17.840 C 2.422 18.827,3.173 19.578,4.160 19.886 L 4.460 19.980 12.000 19.980 L 19.540 19.980 19.840 19.886 C 20.827 19.578,21.578 18.827,21.886 17.840 L 21.980 17.540 21.980 12.000 L 21.980 6.460 21.886 6.160 C 21.581 5.182,20.832 4.428,19.861 4.121 L 19.540 4.020 12.120 4.014 C 8.039 4.011,4.609 4.024,4.499 4.043 M19.310 6.061 C 19.453 6.103,19.571 6.178,19.698 6.304 C 19.798 6.404,19.880 6.500,19.880 6.517 C 19.880 6.533,18.107 7.729,15.940 9.173 L 12.000 11.800 8.060 9.173 C 5.893 7.729,4.120 6.533,4.120 6.517 C 4.120 6.429,4.502 6.116,4.673 6.063 C 4.964 5.974,19.009 5.971,19.310 6.061 M7.815 11.411 C 9.859 12.773,11.602 13.913,11.690 13.944 C 11.893 14.015,12.107 14.015,12.310 13.944 C 12.397 13.913,14.159 12.761,16.225 11.384 L 19.980 8.880 19.992 12.950 C 20.001 15.785,19.991 17.082,19.961 17.224 C 19.905 17.484,19.724 17.731,19.486 17.871 L 19.300 17.980 12.000 17.980 L 4.700 17.980 4.516 17.872 C 4.415 17.813,4.284 17.700,4.225 17.623 C 3.990 17.315,4.000 17.516,4.000 13.013 C 4.000 9.713,4.010 8.881,4.050 8.905 C 4.077 8.922,5.772 10.049,7.815 11.411 " stroke="none" fill-rule="evenodd" fill="black"></path></svg>