<svg xmlns="http://www.w3.org/2000/svg" width="24" height="24" viewBox="0 0 24 24" fill="none" stroke="currentColor" stroke-width="2" stroke-linecap="round" stroke-linejoin="round"><path d="M4.499 4.043 C 3.380 4.232,2.461 5.048,2.114 6.160 L 2.020 6.460 2.020 12.000 L 2.020 17.540 2.114 17.840 C 2.418 18.816,3.149 19.554,4.140 19.886 L 4.420 19.980 9.040 19.991 C 14.197 20.004,13.841 20.023,14.173 19.724 C 14.381 19.536,14.488 19.292,14.488 19.003 C 14.488 18.615,14.294 18.298,13.940 18.106 L 13.780 18.020 9.240 18.000 L 4.700 17.980 4.516 17.872 C 4.415 17.813,4.283 17.700,4.224 17.621 C 3.990 17.314,3.999 17.508,4.010 13.010 L 4.020 8.880 7.775 11.384 C 9.841 12.761,11.603 13.913,11.690 13.944 C 11.893 14.015,12.107 14.015,12.310 13.944 C 12.397 13.913,14.159 12.761,16.225 11.384 L 19.980 8.880 20.000 10.093 L 20.020 11.307 20.141 11.503 C 20.543 12.156,21.457 12.156,21.859 11.503 L 21.980 11.306 21.980 8.883 L 21.980 6.460 21.886 6.160 C 21.581 5.182,20.832 4.428,19.861 4.121 L 19.540 4.020 12.120 4.014 C 8.039 4.011,4.609 4.024,4.499 4.043 M19.310 6.061 C 19.453 6.103,19.571 6.178,19.698 6.304 C 19.798 6.404,19.880 6.500,19.880 6.517 C 19.880 6.533,18.107 7.729,15.940 9.173 L 12.000 11.800 8.060 9.173 C 5.893 7.729,4.120 6.533,4.120 6.517 C 4.120 6.429,4.502 6.116,4.673 6.063 C 4.964 5.974,19.009 5.971,19.310 6.061 M18.600 12.584 C 18.399 12.671,18.205 12.869,18.095 13.100 C 18.018 13.263,18.001 13.365,18.000 13.650 L 18.000 14.000 16.946 14.000 C 15.797 14.000,15.644 14.022,15.382 14.221 C 15.302 14.282,15.187 14.415,15.128 14.516 C 15.036 14.672,15.020 14.746,15.020 15.003 C 15.020 15.271,15.034 15.329,15.141 15.503 C 15.288 15.742,15.578 15.946,15.821 15.982 L 16.000 16.009 16.000 17.998 L 16.000 19.987 15.786 20.035 C 15.515 20.096,15.270 20.275,15.129 20.514 C 15.036 20.672,15.020 20.745,15.020 21.000 C 15.020 21.256,15.036 21.328,15.131 21.489 C 15.192 21.592,15.304 21.725,15.381 21.783 C 15.643 21.983,15.738 21.996,16.910 21.998 L 18.000 22.000 18.000 22.350 C 18.001 22.635,18.018 22.737,18.095 22.900 C 18.276 23.281,18.595 23.488,19.000 23.488 C 19.405 23.488,19.724 23.281,19.905 22.900 C 19.982 22.735,19.999 22.635,20.000 22.334 L 20.000 21.969 20.289 21.874 C 21.001 21.642,21.604 21.048,21.868 20.320 C 21.965 20.052,21.976 19.965,21.976 19.500 C 21.976 19.035,21.965 18.949,21.868 18.684 C 21.809 18.521,21.705 18.301,21.636 18.194 L 21.512 18.000 21.636 17.806 C 21.705 17.699,21.809 17.479,21.868 17.316 C 21.965 17.051,21.976 16.965,21.976 16.500 C 21.976 16.035,21.965 15.948,21.868 15.680 C 21.599 14.937,20.984 14.347,20.241 14.118 L 20.020 14.049 19.999 13.635 C 19.982 13.318,19.957 13.182,19.892 13.060 C 19.783 12.854,19.580 12.661,19.391 12.582 C 19.203 12.503,18.783 12.504,18.600 12.584 M19.724 16.062 C 19.872 16.139,20.000 16.341,20.000 16.500 C 20.000 16.566,19.965 16.678,19.922 16.748 C 19.780 16.980,19.693 17.000,18.802 17.000 L 18.000 17.000 18.000 16.500 L 18.000 16.000 18.802 16.000 C 19.448 16.000,19.627 16.012,19.724 16.062 M19.724 19.062 C 19.872 19.139,20.000 19.341,20.000 19.500 C 20.000 19.566,19.965 19.678,19.922 19.748 C 19.780 19.980,19.693 20.000,18.802 20.000 L 18.000 20.000 18.000 19.500 L 18.000 19.000 18.802 19.000 C 19.448 19.000,19.627 19.012,19.724 19.062 " stroke="none" fill-rule="evenodd" fill="black"></path></svg>