<svg xmlns="http://www.w3.org/2000/svg" width="24" height="24" viewBox="0 0 24 24" fill="none" stroke="currentColor" stroke-width="2" stroke-linecap="round" stroke-linejoin="round"><path d="M11.677 2.058 C 11.520 2.116,2.444 8.148,2.273 8.309 C 2.214 8.364,2.128 8.497,2.082 8.604 L 1.998 8.799 2.009 14.190 L 2.020 19.580 2.114 19.860 C 2.446 20.851,3.184 21.582,4.160 21.886 L 4.460 21.980 12.000 21.980 L 19.540 21.980 19.840 21.886 C 20.816 21.582,21.554 20.851,21.886 19.860 L 21.980 19.580 21.991 14.190 L 22.002 8.799 21.918 8.604 C 21.872 8.497,21.786 8.364,21.727 8.309 C 21.539 8.133,12.474 2.114,12.309 2.056 C 12.114 1.987,11.867 1.988,11.677 2.058 M15.580 6.587 C 17.549 7.899,19.160 8.985,19.160 9.000 C 19.160 9.015,17.549 10.101,15.580 11.413 L 12.000 13.799 8.430 11.420 C 6.466 10.111,4.860 9.022,4.860 9.000 C 4.860 8.971,11.919 4.222,11.990 4.203 C 11.996 4.201,13.611 5.274,15.580 6.587 M5.810 12.074 C 6.685 12.656,7.400 13.144,7.400 13.157 C 7.400 13.170,6.635 13.945,5.700 14.880 L 4.000 16.580 4.000 13.725 L 4.000 10.871 4.110 10.942 C 4.171 10.982,4.935 11.491,5.810 12.074 M20.000 13.730 L 20.000 16.580 18.300 14.880 C 17.365 13.945,16.604 13.167,16.610 13.150 C 16.618 13.125,19.961 10.880,19.990 10.880 C 19.995 10.880,20.000 12.162,20.000 13.730 M11.690 15.943 C 11.778 15.975,11.918 16.000,12.000 16.000 C 12.082 16.000,12.222 15.975,12.310 15.943 C 12.399 15.912,13.010 15.527,13.669 15.087 L 14.868 14.288 17.394 16.814 C 18.783 18.203,19.920 19.359,19.920 19.382 C 19.920 19.476,19.660 19.768,19.486 19.871 L 19.300 19.980 12.000 19.980 L 4.700 19.980 4.514 19.871 C 4.340 19.768,4.080 19.476,4.080 19.382 C 4.080 19.359,5.217 18.203,6.606 16.814 L 9.132 14.288 10.331 15.087 C 10.990 15.527,11.601 15.912,11.690 15.943 " stroke="none" fill-rule="evenodd" fill="black"></path></svg>