<svg xmlns="http://www.w3.org/2000/svg" width="24" height="24" viewBox="0 0 24 24" fill="none" stroke="currentColor" stroke-width="2" stroke-linecap="round" stroke-linejoin="round"><path d="M4.499 3.043 C 3.380 3.232,2.461 4.048,2.114 5.160 L 2.020 5.460 2.020 11.000 L 2.020 16.540 2.114 16.840 C 2.418 17.816,3.149 18.554,4.140 18.886 L 4.420 18.980 8.271 18.991 C 10.824 18.999,12.173 18.989,12.275 18.961 C 12.498 18.901,12.739 18.711,12.867 18.492 C 12.964 18.327,12.980 18.257,12.980 18.000 C 12.980 17.746,12.963 17.672,12.872 17.516 C 12.761 17.328,12.572 17.158,12.373 17.070 C 12.286 17.032,11.383 17.015,8.480 17.000 L 4.700 16.980 4.516 16.872 C 4.415 16.813,4.283 16.700,4.224 16.621 C 3.990 16.314,3.999 16.508,4.010 12.010 L 4.020 7.880 7.775 10.384 C 9.841 11.761,11.603 12.913,11.690 12.944 C 11.893 13.015,12.107 13.015,12.310 12.944 C 12.397 12.913,14.159 11.761,16.225 10.384 L 19.980 7.880 20.000 10.830 C 20.020 13.759,20.021 13.781,20.106 13.940 C 20.298 14.294,20.615 14.488,21.003 14.488 C 21.292 14.488,21.536 14.381,21.724 14.173 C 22.021 13.843,22.004 14.139,21.991 9.540 L 21.980 5.420 21.886 5.140 C 21.557 4.158,20.821 3.425,19.861 3.121 L 19.540 3.020 12.120 3.014 C 8.039 3.011,4.609 3.024,4.499 3.043 M19.310 5.061 C 19.453 5.103,19.571 5.178,19.698 5.304 C 19.798 5.404,19.880 5.500,19.880 5.517 C 19.880 5.533,18.107 6.729,15.940 8.173 L 12.000 10.800 8.060 8.173 C 5.893 6.729,4.120 5.533,4.120 5.517 C 4.120 5.429,4.502 5.116,4.673 5.063 C 4.964 4.974,19.009 4.971,19.310 5.061 M17.670 14.061 C 17.448 14.142,17.250 14.309,17.128 14.516 C 17.036 14.672,17.020 14.745,17.021 15.000 C 17.021 15.213,17.043 15.340,17.096 15.440 C 17.136 15.517,17.486 15.900,17.873 16.290 L 18.577 17.000 16.735 17.000 C 14.735 17.000,14.663 17.007,14.382 17.221 C 14.302 17.282,14.187 17.415,14.128 17.516 C 14.037 17.672,14.020 17.746,14.020 18.000 C 14.020 18.256,14.036 18.328,14.131 18.489 C 14.256 18.702,14.449 18.864,14.670 18.943 C 14.787 18.985,15.234 18.997,16.699 18.998 L 18.577 19.000 17.873 19.710 C 17.486 20.101,17.139 20.481,17.101 20.555 C 16.872 21.008,17.056 21.601,17.508 21.867 C 17.673 21.964,17.742 21.980,18.000 21.979 C 18.212 21.979,18.341 21.957,18.440 21.905 C 18.517 21.865,19.306 21.109,20.194 20.226 C 21.957 18.472,21.999 18.420,21.999 18.000 C 21.999 17.578,21.960 17.530,20.175 15.756 C 18.716 14.307,18.519 14.124,18.343 14.066 C 18.108 13.987,17.875 13.986,17.670 14.061 " stroke="none" fill-rule="evenodd" fill="black"></path></svg>