<svg xmlns="http://www.w3.org/2000/svg" width="24" height="24" viewBox="0 0 24 24" fill="none" stroke="currentColor" stroke-width="2" stroke-linecap="round" stroke-linejoin="round"><path d="M4.499 4.043 C 3.380 4.232,2.461 5.048,2.114 6.160 L 2.020 6.460 2.020 12.000 L 2.020 17.540 2.114 17.840 C 2.418 18.816,3.151 19.556,4.140 19.885 L 4.420 19.979 7.269 19.991 C 9.156 19.999,10.171 19.989,10.273 19.962 C 10.498 19.901,10.738 19.711,10.867 19.492 C 10.964 19.327,10.980 19.257,10.980 19.000 C 10.980 18.746,10.963 18.672,10.872 18.516 C 10.761 18.328,10.572 18.158,10.373 18.070 C 10.287 18.032,9.582 18.015,7.480 18.000 L 4.700 17.980 4.516 17.872 C 4.415 17.813,4.283 17.700,4.224 17.621 C 3.990 17.314,3.999 17.507,4.010 13.014 L 4.020 8.889 7.220 11.027 C 8.980 12.203,10.486 13.200,10.566 13.242 C 11.059 13.498,11.687 13.252,11.920 12.711 C 12.069 12.364,11.977 11.898,11.710 11.648 C 11.656 11.598,9.930 10.432,7.876 9.057 C 5.821 7.682,4.135 6.542,4.128 6.523 C 4.122 6.505,4.199 6.407,4.301 6.306 C 4.631 5.975,4.003 6.000,12.000 6.000 C 19.993 6.000,19.369 5.975,19.698 6.304 C 19.798 6.404,19.880 6.500,19.880 6.516 C 19.880 6.533,18.620 7.387,17.080 8.414 C 14.137 10.377,14.158 10.361,14.039 10.736 C 13.970 10.955,14.013 11.287,14.138 11.501 C 14.368 11.892,14.842 12.083,15.280 11.960 C 15.357 11.939,16.446 11.237,17.700 10.400 L 19.980 8.880 20.000 10.093 L 20.020 11.307 20.141 11.503 C 20.543 12.156,21.457 12.156,21.859 11.503 L 21.980 11.306 21.980 8.883 L 21.980 6.460 21.886 6.160 C 21.581 5.182,20.832 4.428,19.861 4.121 L 19.540 4.020 12.120 4.014 C 8.039 4.011,4.609 4.024,4.499 4.043 M15.499 14.040 C 14.363 14.246,13.461 15.048,13.114 16.160 L 13.020 16.460 13.020 18.883 L 13.020 21.306 13.141 21.503 C 13.543 22.156,14.457 22.156,14.859 21.503 C 14.979 21.308,14.980 21.300,14.993 20.653 L 15.007 20.000 16.000 20.000 L 16.993 20.000 17.007 20.653 C 17.020 21.300,17.021 21.308,17.141 21.503 C 17.543 22.156,18.457 22.156,18.859 21.503 L 18.980 21.306 18.980 18.883 L 18.980 16.460 18.886 16.160 C 18.580 15.178,17.810 14.407,16.861 14.129 C 16.500 14.023,15.832 13.980,15.499 14.040 M20.695 14.057 C 20.466 14.129,20.256 14.299,20.128 14.516 L 20.020 14.700 20.020 18.003 L 20.020 21.306 20.141 21.503 C 20.543 22.156,21.457 22.156,21.859 21.503 L 21.980 21.306 21.980 18.003 L 21.980 14.700 21.872 14.516 C 21.628 14.101,21.150 13.915,20.695 14.057 M16.334 16.064 C 16.446 16.102,16.593 16.200,16.700 16.306 C 16.948 16.554,17.000 16.753,17.000 17.447 L 17.000 18.000 16.000 18.000 L 15.000 18.000 15.000 17.447 C 15.000 16.753,15.052 16.554,15.301 16.306 C 15.587 16.019,15.952 15.934,16.334 16.064 " stroke="none" fill-rule="evenodd" fill="black"></path></svg>