<svg xmlns="http://www.w3.org/2000/svg" width="24" height="24" viewBox="0 0 24 24" fill="none" stroke="currentColor" stroke-width="2" stroke-linecap="round" stroke-linejoin="round"><path d="M4.499 4.043 C 3.380 4.232,2.461 5.048,2.114 6.160 L 2.020 6.460 2.020 12.000 L 2.020 17.540 2.114 17.840 C 2.418 18.816,3.150 19.555,4.140 19.886 L 4.420 19.979 7.770 19.991 C 9.990 19.999,11.172 19.989,11.274 19.962 C 11.498 19.901,11.739 19.711,11.867 19.492 C 11.964 19.327,11.980 19.257,11.980 19.000 C 11.980 18.746,11.963 18.672,11.872 18.516 C 11.761 18.328,11.572 18.158,11.373 18.070 C 11.287 18.032,10.483 18.015,7.980 18.000 L 4.700 17.980 4.516 17.872 C 4.415 17.813,4.283 17.700,4.224 17.621 C 3.990 17.314,3.999 17.508,4.010 13.010 L 4.020 8.880 7.775 11.384 C 9.841 12.761,11.603 13.913,11.690 13.944 C 11.893 14.015,12.107 14.015,12.310 13.944 C 12.397 13.913,14.159 12.761,16.225 11.384 L 19.980 8.880 20.000 11.093 L 20.020 13.306 20.141 13.503 C 20.543 14.156,21.457 14.156,21.859 13.503 L 21.980 13.306 21.980 9.883 L 21.980 6.460 21.886 6.160 C 21.581 5.182,20.832 4.428,19.861 4.121 L 19.540 4.020 12.120 4.014 C 8.039 4.011,4.609 4.024,4.499 4.043 M19.310 6.061 C 19.453 6.103,19.571 6.178,19.698 6.304 C 19.798 6.404,19.880 6.500,19.880 6.517 C 19.880 6.533,18.107 7.729,15.940 9.173 L 12.000 11.800 8.060 9.173 C 5.893 7.729,4.120 6.533,4.120 6.517 C 4.120 6.429,4.502 6.116,4.673 6.063 C 4.964 5.974,19.009 5.971,19.310 6.061 M16.640 16.069 C 16.492 16.121,16.265 16.325,15.347 17.236 C 14.734 17.843,14.185 18.421,14.127 18.520 C 14.037 18.672,14.020 18.747,14.020 19.000 C 14.020 19.254,14.036 19.328,14.127 19.480 C 14.260 19.703,16.367 21.803,16.560 21.905 C 16.659 21.957,16.787 21.979,17.000 21.979 C 17.258 21.980,17.327 21.964,17.492 21.867 C 17.714 21.737,17.901 21.498,17.965 21.264 C 18.019 21.061,17.989 20.733,17.899 20.555 C 17.861 20.481,17.514 20.101,17.127 19.710 L 16.423 19.000 17.127 18.290 C 17.514 17.899,17.864 17.517,17.904 17.440 C 17.957 17.340,17.979 17.213,17.979 17.000 C 17.980 16.745,17.964 16.672,17.872 16.516 C 17.617 16.083,17.120 15.902,16.640 16.069 M19.670 16.061 C 19.448 16.142,19.250 16.309,19.128 16.516 C 19.036 16.672,19.020 16.745,19.021 17.000 C 19.021 17.213,19.043 17.340,19.096 17.440 C 19.136 17.517,19.486 17.899,19.873 18.290 L 20.577 19.000 19.873 19.710 C 19.486 20.101,19.139 20.481,19.101 20.555 C 18.872 21.008,19.056 21.601,19.508 21.867 C 19.673 21.964,19.742 21.980,20.000 21.979 C 20.213 21.979,20.341 21.957,20.440 21.905 C 20.633 21.803,22.740 19.703,22.873 19.480 C 22.964 19.328,22.980 19.254,22.980 19.000 C 22.980 18.747,22.963 18.672,22.873 18.520 C 22.815 18.421,22.266 17.843,21.653 17.236 C 20.680 16.271,20.515 16.124,20.343 16.066 C 20.108 15.987,19.875 15.985,19.670 16.061 " stroke="none" fill-rule="evenodd" fill="black"></path></svg>