<svg xmlns="http://www.w3.org/2000/svg" width="24" height="24" viewBox="0 0 24 24" fill="none" stroke="currentColor" stroke-width="2" stroke-linecap="round" stroke-linejoin="round"><path d="M4.499 4.043 C 3.380 4.232,2.461 5.048,2.114 6.160 L 2.020 6.460 2.020 12.000 L 2.020 17.540 2.114 17.840 C 2.418 18.816,3.150 19.554,4.140 19.886 L 4.420 19.980 8.040 19.991 C 12.081 20.004,11.845 20.020,12.173 19.724 C 12.381 19.536,12.488 19.292,12.488 19.003 C 12.488 18.615,12.294 18.298,11.940 18.106 C 11.780 18.020,11.774 18.020,8.240 18.000 L 4.700 17.980 4.516 17.872 C 4.415 17.813,4.283 17.700,4.224 17.621 C 3.990 17.314,3.999 17.508,4.010 13.010 L 4.020 8.880 7.775 11.384 C 9.841 12.761,11.603 13.913,11.690 13.944 C 11.893 14.015,12.107 14.015,12.310 13.944 C 12.397 13.913,14.159 12.761,16.225 11.384 L 19.980 8.880 20.000 10.593 L 20.020 12.306 20.141 12.503 C 20.543 13.156,21.457 13.156,21.859 12.503 L 21.980 12.306 21.980 9.383 L 21.980 6.460 21.886 6.160 C 21.581 5.182,20.832 4.428,19.861 4.121 L 19.540 4.020 12.120 4.014 C 8.039 4.011,4.609 4.024,4.499 4.043 M19.310 6.061 C 19.453 6.103,19.571 6.178,19.698 6.304 C 19.798 6.404,19.880 6.500,19.880 6.517 C 19.880 6.533,18.107 7.729,15.940 9.173 L 12.000 11.800 8.060 9.173 C 5.893 7.729,4.120 6.533,4.120 6.517 C 4.120 6.429,4.502 6.116,4.673 6.063 C 4.964 5.974,19.009 5.971,19.310 6.061 M18.617 14.577 C 18.438 14.655,18.206 14.870,18.123 15.036 C 18.084 15.115,18.011 15.314,17.962 15.478 C 17.609 16.656,16.655 17.611,15.480 17.962 C 15.075 18.083,14.921 18.165,14.752 18.352 C 14.420 18.720,14.420 19.280,14.752 19.648 C 14.920 19.834,15.074 19.917,15.478 20.038 C 16.687 20.400,17.610 21.343,17.987 22.600 C 18.076 22.898,18.131 23.008,18.270 23.163 C 18.672 23.610,19.328 23.610,19.730 23.163 C 19.869 23.008,19.924 22.898,20.013 22.600 C 20.399 21.311,21.311 20.399,22.600 20.013 C 22.898 19.924,23.008 19.869,23.163 19.730 C 23.574 19.360,23.612 18.754,23.248 18.352 C 23.079 18.165,22.925 18.083,22.520 17.962 C 21.314 17.602,20.390 16.658,20.014 15.402 C 19.832 14.793,19.515 14.518,18.997 14.522 C 18.856 14.522,18.685 14.547,18.617 14.577 M19.194 18.057 C 19.373 18.282,19.740 18.644,20.020 18.873 L 20.180 19.004 20.020 19.130 C 19.818 19.288,19.295 19.809,19.127 20.019 L 19.000 20.178 18.873 20.019 C 18.705 19.809,18.182 19.288,17.980 19.130 L 17.820 19.004 17.980 18.873 C 18.260 18.644,18.627 18.282,18.806 18.057 C 18.901 17.938,18.989 17.840,19.000 17.840 C 19.011 17.840,19.099 17.938,19.194 18.057 " stroke="none" fill-rule="evenodd" fill="black"></path></svg>