<svg xmlns="http://www.w3.org/2000/svg" width="24" height="24" viewBox="0 0 24 24" fill="none" stroke="currentColor" stroke-width="2" stroke-linecap="round" stroke-linejoin="round"><path d="M2.670 2.061 C 2.448 2.142,2.250 2.309,2.128 2.516 C 2.037 2.672,2.020 2.746,2.020 3.000 C 2.020 3.254,2.036 3.328,2.127 3.480 C 2.186 3.579,2.749 4.173,3.377 4.800 C 4.006 5.427,4.520 5.953,4.520 5.968 C 4.520 5.984,4.438 6.124,4.338 6.279 C 3.856 7.024,3.377 8.238,3.182 9.210 C 2.652 11.846,3.309 14.532,5.001 16.660 C 5.282 17.013,9.458 21.232,9.999 21.708 C 11.054 22.639,12.552 22.740,13.707 21.957 C 13.813 21.885,14.634 21.097,15.531 20.205 L 17.161 18.583 18.791 20.207 C 19.687 21.101,20.483 21.865,20.560 21.905 C 20.659 21.957,20.788 21.979,21.000 21.979 C 21.258 21.980,21.327 21.964,21.492 21.867 C 21.968 21.587,22.139 20.967,21.865 20.508 C 21.810 20.416,17.665 16.243,12.653 11.235 C 4.231 2.820,3.525 2.125,3.343 2.065 C 3.107 1.987,2.874 1.986,2.670 2.061 M11.140 2.042 C 9.963 2.163,8.702 2.550,7.723 3.092 C 7.422 3.258,7.323 3.336,7.232 3.479 C 7.030 3.797,6.998 4.022,7.107 4.359 C 7.238 4.764,7.633 5.040,8.082 5.040 C 8.233 5.040,8.375 4.988,8.805 4.776 C 10.347 4.014,11.784 3.825,13.460 4.164 C 16.124 4.702,18.297 6.877,18.838 9.546 C 19.170 11.186,18.987 12.628,18.257 14.120 C 17.952 14.745,17.910 14.949,18.020 15.281 C 18.204 15.833,18.857 16.106,19.389 15.853 C 19.620 15.744,19.788 15.542,19.996 15.128 C 20.474 14.174,20.772 13.228,20.926 12.180 C 21.006 11.633,20.995 10.243,20.906 9.700 C 20.580 7.706,19.726 6.014,18.356 4.644 C 16.982 3.270,15.232 2.393,13.280 2.101 C 12.763 2.024,11.624 1.992,11.140 2.042 M11.695 7.057 C 11.051 7.258,10.799 8.040,11.198 8.591 C 11.386 8.850,11.613 8.960,12.048 9.001 C 12.253 9.021,12.511 9.065,12.623 9.098 C 13.079 9.235,13.572 9.669,13.799 10.133 C 13.910 10.362,13.946 10.525,14.021 11.165 C 14.051 11.412,14.236 11.694,14.465 11.839 C 14.938 12.139,15.558 11.992,15.856 11.508 C 15.956 11.345,15.977 11.264,15.991 10.988 C 16.021 10.393,15.784 9.540,15.421 8.932 C 14.834 7.949,13.756 7.232,12.605 7.058 C 12.141 6.989,11.915 6.988,11.695 7.057 M7.126 8.546 L 8.232 9.652 8.177 9.809 C 7.978 10.372,7.951 11.335,8.117 11.969 C 8.491 13.408,9.571 14.496,10.992 14.867 C 11.694 15.050,12.599 15.032,13.191 14.823 L 13.348 14.768 14.544 15.964 L 15.740 17.160 14.180 18.721 C 12.476 20.426,12.409 20.480,12.000 20.480 C 11.575 20.480,11.583 20.486,9.036 17.931 C 7.692 16.583,6.590 15.443,6.452 15.259 C 5.606 14.135,5.159 12.961,5.032 11.530 C 4.954 10.650,5.081 9.624,5.379 8.738 C 5.496 8.390,5.943 7.440,5.990 7.440 C 6.006 7.440,6.517 7.938,7.126 8.546 M11.442 12.913 C 11.336 12.948,10.845 12.652,10.599 12.404 C 10.356 12.159,10.080 11.707,10.080 11.556 C 10.080 11.525,10.395 11.816,10.780 12.200 C 11.165 12.585,11.463 12.906,11.442 12.913 " stroke="none" fill-rule="evenodd" fill="black"></path></svg>