<svg xmlns="http://www.w3.org/2000/svg" width="24" height="24" viewBox="0 0 24 24" fill="none" stroke="currentColor" stroke-width="2" stroke-linecap="round" stroke-linejoin="round"><path d="M5.591 4.585 C 3.058 5.850,2.391 6.200,2.275 6.321 C 1.980 6.631,2.000 6.095,2.000 13.500 C 2.000 20.965,1.976 20.378,2.300 20.702 C 2.509 20.911,2.803 21.018,3.093 20.990 C 3.261 20.974,3.803 20.717,6.149 19.545 L 9.000 18.121 11.881 19.560 C 14.666 20.952,14.770 21.000,14.991 21.000 C 15.404 20.999,15.747 20.772,15.925 20.380 C 15.995 20.227,15.998 19.930,15.999 13.920 L 16.000 7.620 17.980 6.630 C 19.069 6.085,19.969 5.640,19.980 5.640 C 19.991 5.640,20.000 7.229,20.000 9.170 L 20.001 12.700 20.095 12.900 C 20.276 13.281,20.595 13.488,21.000 13.488 C 21.405 13.488,21.724 13.281,21.905 12.900 L 21.999 12.700 22.000 8.277 C 22.000 3.302,22.019 3.617,21.700 3.298 C 21.488 3.086,21.194 2.981,20.905 3.013 C 20.740 3.031,20.142 3.314,17.850 4.457 L 15.000 5.879 12.119 4.440 C 9.299 3.031,9.233 3.000,9.000 3.000 C 8.766 3.000,8.700 3.031,5.591 4.585 M8.000 11.010 L 8.000 16.380 6.020 17.370 C 4.931 17.915,4.031 18.360,4.020 18.360 C 4.009 18.360,4.000 15.943,4.000 12.990 L 4.000 7.620 5.970 6.632 C 7.054 6.089,7.954 5.643,7.970 5.642 C 7.987 5.641,8.000 8.057,8.000 11.010 M12.020 6.630 L 14.000 7.620 14.000 12.990 C 14.000 15.943,13.991 18.360,13.980 18.360 C 13.969 18.360,13.069 17.915,11.980 17.370 L 10.000 16.380 10.000 11.010 C 10.000 8.057,10.009 5.640,10.020 5.640 C 10.031 5.640,10.931 6.085,12.020 6.630 M18.695 15.057 C 18.466 15.129,18.256 15.299,18.128 15.516 L 18.020 15.700 18.020 17.503 L 18.020 19.306 18.141 19.503 C 18.543 20.156,19.457 20.156,19.859 19.503 L 19.980 19.306 19.980 17.503 L 19.980 15.700 19.872 15.516 C 19.628 15.101,19.150 14.915,18.695 15.057 M18.695 21.057 C 18.466 21.129,18.256 21.299,18.128 21.516 C 18.036 21.672,18.020 21.745,18.021 22.000 C 18.022 22.332,18.101 22.533,18.306 22.728 C 18.785 23.181,19.580 23.046,19.893 22.460 C 20.025 22.211,20.015 21.760,19.872 21.516 C 19.628 21.101,19.150 20.915,18.695 21.057 " stroke="none" fill-rule="evenodd" fill="black"></path></svg>