<svg xmlns="http://www.w3.org/2000/svg" width="24" height="24" viewBox="0 0 24 24" fill="none" stroke="currentColor" stroke-width="2" stroke-linecap="round" stroke-linejoin="round"><path d="M11.380 2.024 C 11.292 2.033,11.067 2.059,10.880 2.082 C 7.842 2.455,5.183 4.383,3.861 7.171 C 2.789 9.431,2.725 12.120,3.689 14.436 C 4.020 15.232,4.387 15.855,4.961 16.600 C 5.261 16.988,9.358 21.145,9.988 21.699 C 10.550 22.194,11.174 22.456,11.800 22.459 C 12.100 22.460,12.162 22.447,12.327 22.350 C 12.799 22.073,12.971 21.542,12.745 21.058 C 12.599 20.744,12.333 20.550,11.979 20.499 C 11.525 20.434,11.567 20.471,9.053 17.948 C 6.370 15.256,6.164 15.014,5.682 13.992 C 4.429 11.335,4.965 8.177,7.020 6.101 C 8.525 4.580,10.608 3.821,12.672 4.041 C 14.895 4.278,16.730 5.418,17.949 7.320 C 18.699 8.489,19.091 10.122,18.965 11.549 C 18.938 11.851,18.871 12.305,18.815 12.559 C 18.705 13.064,18.709 13.265,18.836 13.510 C 19.063 13.951,19.559 14.168,20.008 14.022 C 20.455 13.877,20.624 13.646,20.774 12.980 C 21.181 11.171,21.018 9.262,20.311 7.563 C 19.852 6.461,19.212 5.503,18.368 4.658 C 16.958 3.244,15.174 2.362,13.160 2.080 C 12.836 2.035,11.641 1.997,11.380 2.024 M11.358 7.061 C 10.230 7.237,9.143 7.974,8.569 8.953 C 7.320 11.083,8.233 13.785,10.512 14.704 C 12.558 15.528,14.877 14.538,15.704 12.488 C 16.090 11.530,16.090 10.469,15.705 9.516 C 15.172 8.197,14.001 7.269,12.605 7.058 C 12.144 6.989,11.816 6.990,11.358 7.061 M12.523 9.073 C 13.262 9.266,13.850 9.924,13.967 10.690 C 14.067 11.343,13.873 11.933,13.403 12.404 C 13.002 12.807,12.547 13.000,12.000 13.000 C 11.485 13.000,11.038 12.822,10.653 12.465 C 9.323 11.229,10.189 9.005,12.000 9.005 C 12.143 9.005,12.378 9.036,12.523 9.073 M16.640 16.069 C 16.492 16.121,16.265 16.325,15.347 17.236 C 14.734 17.843,14.185 18.421,14.127 18.520 C 14.037 18.672,14.020 18.747,14.020 19.000 C 14.020 19.254,14.036 19.328,14.127 19.480 C 14.260 19.703,16.367 21.803,16.560 21.905 C 16.659 21.957,16.787 21.979,17.000 21.979 C 17.258 21.980,17.327 21.964,17.492 21.867 C 17.714 21.737,17.901 21.498,17.965 21.264 C 18.019 21.061,17.989 20.733,17.899 20.555 C 17.861 20.481,17.514 20.101,17.127 19.710 L 16.423 19.000 17.127 18.290 C 17.514 17.899,17.864 17.517,17.904 17.440 C 17.957 17.340,17.979 17.213,17.979 17.000 C 17.980 16.745,17.964 16.672,17.872 16.516 C 17.617 16.083,17.120 15.902,16.640 16.069 M19.670 16.061 C 19.448 16.142,19.250 16.309,19.128 16.516 C 19.036 16.672,19.020 16.745,19.021 17.000 C 19.021 17.213,19.043 17.340,19.096 17.440 C 19.136 17.517,19.486 17.899,19.873 18.290 L 20.577 19.000 19.873 19.710 C 19.486 20.101,19.139 20.481,19.101 20.555 C 18.872 21.008,19.056 21.601,19.508 21.867 C 19.673 21.964,19.742 21.980,20.000 21.979 C 20.213 21.979,20.341 21.957,20.440 21.905 C 20.633 21.803,22.740 19.703,22.873 19.480 C 22.964 19.328,22.980 19.254,22.980 19.000 C 22.980 18.747,22.963 18.672,22.873 18.520 C 22.815 18.421,22.266 17.843,21.653 17.236 C 20.680 16.271,20.515 16.124,20.343 16.066 C 20.108 15.987,19.875 15.985,19.670 16.061 " stroke="none" fill-rule="evenodd" fill="black"></path></svg>