<svg xmlns="http://www.w3.org/2000/svg" width="24" height="24" viewBox="0 0 24 24" fill="none" stroke="currentColor" stroke-width="2" stroke-linecap="round" stroke-linejoin="round"><path d="M5.591 4.585 C 3.058 5.850,2.391 6.200,2.275 6.321 C 1.980 6.631,2.000 6.095,2.000 13.500 C 2.000 20.965,1.976 20.378,2.300 20.702 C 2.509 20.911,2.803 21.018,3.093 20.990 C 3.261 20.974,3.803 20.717,6.148 19.545 L 9.000 18.121 10.852 19.046 C 12.889 20.062,12.919 20.073,13.322 19.939 C 13.707 19.811,14.000 19.406,14.000 19.000 C 14.000 18.773,13.884 18.488,13.725 18.322 C 13.613 18.205,13.168 17.964,11.790 17.275 L 10.000 16.380 10.000 11.010 C 10.000 8.056,10.009 5.640,10.020 5.640 C 10.031 5.640,10.931 6.085,12.020 6.630 L 14.000 7.620 14.000 11.160 L 14.001 14.700 14.095 14.900 C 14.276 15.281,14.595 15.488,15.000 15.488 C 15.405 15.488,15.724 15.281,15.905 14.900 L 15.999 14.700 16.000 11.160 L 16.000 7.620 17.980 6.630 C 19.069 6.085,19.969 5.640,19.980 5.640 C 19.991 5.640,20.000 7.229,20.000 9.170 L 20.001 12.700 20.095 12.900 C 20.276 13.281,20.595 13.488,21.000 13.488 C 21.405 13.488,21.724 13.281,21.905 12.900 L 21.999 12.700 22.000 8.277 C 22.000 3.302,22.019 3.617,21.700 3.298 C 21.488 3.086,21.194 2.981,20.905 3.013 C 20.740 3.031,20.142 3.314,17.850 4.457 L 15.000 5.879 12.119 4.440 C 9.299 3.031,9.233 3.000,9.000 3.000 C 8.766 3.000,8.700 3.031,5.591 4.585 M8.000 11.010 L 8.000 16.380 6.020 17.370 C 4.931 17.915,4.031 18.360,4.020 18.360 C 4.009 18.360,4.000 15.943,4.000 12.990 L 4.000 7.620 5.970 6.632 C 7.054 6.089,7.954 5.643,7.970 5.642 C 7.987 5.641,8.000 8.057,8.000 11.010 M18.668 15.061 C 18.585 15.092,18.462 15.156,18.395 15.203 C 18.260 15.300,16.136 18.454,16.054 18.680 C 15.893 19.127,16.117 19.673,16.550 19.886 C 16.733 19.977,16.784 19.981,17.930 20.000 L 19.120 20.020 18.600 20.800 C 17.971 21.741,17.914 21.905,18.061 22.322 C 18.284 22.955,18.992 23.187,19.570 22.815 C 19.686 22.741,19.972 22.342,20.805 21.093 C 21.401 20.198,21.917 19.387,21.950 19.289 C 22.074 18.926,21.931 18.460,21.625 18.226 C 21.365 18.028,21.326 18.023,20.070 18.001 L 18.880 17.980 19.383 17.225 C 19.660 16.810,19.912 16.399,19.943 16.310 C 20.212 15.550,19.428 14.782,18.668 15.061 " stroke="none" fill-rule="evenodd" fill="black"></path></svg>