<svg xmlns="http://www.w3.org/2000/svg" width="24" height="24" viewBox="0 0 24 24" fill="none" stroke="currentColor" stroke-width="2" stroke-linecap="round" stroke-linejoin="round"><path d="M11.040 2.062 C 8.964 2.299,7.134 3.171,5.667 4.623 C 4.283 5.992,3.420 7.696,3.094 9.700 C 2.994 10.320,2.993 11.689,3.094 12.300 C 3.365 13.949,3.982 15.362,4.987 16.632 C 5.303 17.032,9.393 21.175,9.999 21.708 C 11.173 22.743,12.826 22.743,14.001 21.709 C 14.188 21.545,14.683 21.062,15.103 20.635 C 15.913 19.813,16.000 19.685,16.000 19.320 C 16.000 18.976,15.758 18.589,15.432 18.413 C 15.247 18.313,14.751 18.314,14.560 18.416 C 14.483 18.456,14.006 18.900,13.500 19.402 C 12.496 20.398,12.384 20.478,12.000 20.478 C 11.580 20.478,11.598 20.493,9.187 18.088 C 6.938 15.844,6.532 15.411,6.160 14.861 C 5.324 13.621,4.902 11.963,5.033 10.427 C 5.111 9.502,5.284 8.847,5.657 8.060 C 6.387 6.521,7.457 5.433,8.940 4.721 C 9.644 4.383,10.178 4.212,10.960 4.074 C 11.402 3.996,12.683 4.007,13.146 4.093 C 15.483 4.528,17.283 5.884,18.300 7.976 C 18.440 8.264,18.600 8.638,18.655 8.807 C 18.853 9.414,19.000 10.339,19.000 10.977 C 19.000 11.309,19.093 11.563,19.284 11.754 C 19.508 11.979,19.692 12.057,20.000 12.058 C 20.428 12.061,20.804 11.801,20.937 11.411 C 21.050 11.078,20.997 10.098,20.818 9.220 C 20.278 6.575,18.595 4.327,16.200 3.050 C 14.647 2.222,12.775 1.864,11.040 2.062 M11.358 7.061 C 10.230 7.237,9.143 7.974,8.569 8.953 C 7.320 11.083,8.233 13.785,10.512 14.704 C 12.558 15.528,14.877 14.538,15.704 12.488 C 16.090 11.530,16.090 10.469,15.705 9.516 C 15.172 8.197,14.001 7.269,12.605 7.058 C 12.144 6.989,11.816 6.990,11.358 7.061 M12.523 9.073 C 13.262 9.266,13.850 9.924,13.967 10.690 C 14.067 11.343,13.873 11.933,13.403 12.404 C 13.002 12.807,12.547 13.000,12.000 13.000 C 11.485 13.000,11.038 12.822,10.653 12.465 C 9.323 11.229,10.189 9.005,12.000 9.005 C 12.143 9.005,12.378 9.036,12.523 9.073 M18.440 14.058 C 17.838 14.187,17.375 14.431,16.957 14.839 C 16.601 15.186,16.510 15.362,16.510 15.700 C 16.510 16.008,16.633 16.278,16.855 16.455 C 17.079 16.633,17.247 16.694,17.514 16.691 C 17.804 16.689,18.001 16.601,18.255 16.362 C 18.613 16.027,18.899 15.941,19.284 16.054 C 19.720 16.182,19.978 16.533,19.979 17.000 C 19.980 17.218,19.960 17.295,19.856 17.479 C 19.701 17.752,19.434 17.946,19.169 17.979 C 18.764 18.029,18.565 18.088,18.405 18.205 C 17.835 18.625,17.886 19.502,18.501 19.863 C 18.958 20.131,19.923 19.974,20.622 19.519 C 20.911 19.331,21.369 18.866,21.553 18.575 C 21.851 18.102,22.030 17.365,21.987 16.788 C 21.893 15.520,21.004 14.438,19.780 14.102 C 19.448 14.010,18.765 13.988,18.440 14.058 M18.695 21.057 C 18.466 21.129,18.256 21.299,18.128 21.516 C 18.036 21.672,18.020 21.745,18.021 22.000 C 18.022 22.332,18.101 22.533,18.306 22.728 C 18.785 23.181,19.580 23.046,19.893 22.460 C 20.025 22.211,20.015 21.760,19.872 21.516 C 19.628 21.101,19.150 20.915,18.695 21.057 " stroke="none" fill-rule="evenodd" fill="black"></path></svg>