<svg xmlns="http://www.w3.org/2000/svg" width="24" height="24" viewBox="0 0 24 24" fill="none" stroke="currentColor" stroke-width="2" stroke-linecap="round" stroke-linejoin="round"><path d="M11.080 2.045 C 9.507 2.184,7.883 2.751,6.540 3.630 C 5.905 4.045,5.499 4.378,4.919 4.958 C 2.953 6.926,1.919 9.544,2.013 12.320 C 2.084 14.439,2.752 16.328,4.033 18.040 C 4.430 18.570,5.305 19.464,5.800 19.847 C 7.242 20.961,8.787 21.624,10.600 21.907 C 11.247 22.008,12.753 22.008,13.400 21.907 C 15.638 21.557,17.504 20.620,19.062 19.062 C 20.620 17.504,21.557 15.638,21.907 13.400 C 22.008 12.753,22.008 11.247,21.907 10.600 C 21.624 8.786,20.959 7.238,19.847 5.800 C 19.510 5.365,18.639 4.494,18.200 4.154 C 16.133 2.555,13.646 1.818,11.080 2.045 M12.734 4.041 C 14.574 4.216,16.228 4.976,17.554 6.256 C 20.043 8.658,20.702 12.394,19.183 15.499 C 18.749 16.387,18.223 17.105,17.496 17.801 C 16.876 18.394,16.262 18.819,15.471 19.200 C 13.267 20.265,10.733 20.265,8.529 19.200 C 7.477 18.693,6.612 18.015,5.847 17.100 C 3.848 14.711,3.440 11.302,4.816 8.500 C 6.162 5.760,8.867 4.049,11.920 4.005 C 12.129 4.003,12.495 4.019,12.734 4.041 M8.643 8.069 C 8.304 8.189,8.000 8.614,8.000 8.968 C 8.000 9.031,8.235 10.490,8.522 12.210 C 9.090 15.619,9.073 15.549,9.381 15.783 C 9.663 15.998,9.995 16.052,10.333 15.936 C 10.669 15.822,10.809 15.633,11.420 14.469 C 11.728 13.882,11.989 13.402,12.000 13.402 C 12.011 13.402,12.272 13.882,12.580 14.469 C 12.964 15.200,13.191 15.587,13.303 15.701 C 13.479 15.881,13.757 16.000,14.000 16.000 C 14.411 16.000,14.823 15.696,14.940 15.308 C 15.009 15.079,16.000 9.150,16.000 8.968 C 16.000 8.757,15.872 8.470,15.701 8.299 C 15.340 7.937,14.794 7.907,14.377 8.225 C 14.089 8.444,14.067 8.522,13.775 10.269 C 13.628 11.153,13.494 11.869,13.478 11.859 C 13.462 11.849,13.311 11.582,13.143 11.266 C 12.975 10.950,12.779 10.633,12.708 10.560 C 12.405 10.247,11.909 10.172,11.525 10.381 C 11.276 10.517,11.191 10.631,10.822 11.330 C 10.675 11.610,10.540 11.848,10.523 11.858 C 10.506 11.868,10.372 11.153,10.225 10.269 C 9.933 8.522,9.911 8.444,9.623 8.225 C 9.333 8.004,8.984 7.948,8.643 8.069 " stroke="none" fill-rule="evenodd" fill="black"></path></svg>