<svg xmlns="http://www.w3.org/2000/svg" width="24" height="24" viewBox="0 0 24 24" fill="none" stroke="currentColor" stroke-width="2" stroke-linecap="round" stroke-linejoin="round"><path d="M11.040 2.062 C 8.966 2.298,7.133 3.172,5.669 4.619 C 4.285 5.989,3.420 7.696,3.094 9.700 C 2.994 10.320,2.993 11.689,3.094 12.300 C 3.365 13.949,3.982 15.362,4.987 16.632 C 5.302 17.030,9.506 21.288,10.031 21.740 C 10.715 22.330,11.710 22.623,12.180 22.373 C 12.576 22.162,12.796 21.768,12.747 21.355 C 12.692 20.896,12.400 20.600,11.880 20.480 C 11.759 20.452,11.597 20.397,11.520 20.358 C 11.351 20.271,6.778 15.688,6.494 15.320 C 5.617 14.185,5.163 13.006,5.032 11.527 C 4.927 10.342,5.142 9.145,5.657 8.060 C 6.387 6.521,7.457 5.433,8.940 4.721 C 9.644 4.383,10.178 4.212,10.960 4.074 C 11.402 3.996,12.683 4.007,13.146 4.093 C 15.483 4.528,17.283 5.884,18.300 7.976 C 18.440 8.264,18.600 8.638,18.655 8.807 C 18.853 9.414,19.000 10.339,19.000 10.977 C 19.000 11.435,19.196 11.773,19.577 11.970 C 19.801 12.086,20.199 12.086,20.422 11.970 C 20.622 11.867,20.813 11.675,20.907 11.484 C 21.050 11.194,21.019 10.280,20.834 9.320 C 20.314 6.623,18.628 4.341,16.200 3.049 C 14.646 2.222,12.773 1.864,11.040 2.062 M11.380 7.044 C 10.567 7.162,9.646 7.657,9.054 8.296 C 7.995 9.439,7.706 11.156,8.332 12.596 C 8.729 13.511,9.503 14.283,10.410 14.668 C 10.862 14.859,11.125 14.881,11.405 14.749 C 11.671 14.625,11.829 14.477,11.922 14.264 C 12.038 13.999,12.054 13.828,11.985 13.591 C 11.882 13.237,11.753 13.105,11.280 12.871 C 10.951 12.708,10.804 12.607,10.600 12.402 C 10.171 11.970,9.964 11.425,10.016 10.860 C 10.064 10.329,10.242 9.951,10.618 9.580 C 11.393 8.816,12.613 8.819,13.390 9.586 C 13.728 9.919,13.917 10.313,13.971 10.794 C 13.993 10.984,14.026 11.205,14.045 11.284 C 14.096 11.495,14.290 11.739,14.508 11.867 C 14.673 11.964,14.743 11.980,15.000 11.980 C 15.257 11.980,15.327 11.964,15.492 11.867 C 15.714 11.737,15.901 11.498,15.965 11.264 C 16.067 10.889,15.936 10.042,15.681 9.428 C 15.258 8.413,14.238 7.489,13.200 7.182 C 12.663 7.023,11.919 6.967,11.380 7.044 M15.699 14.037 C 14.670 14.202,13.737 14.905,13.305 15.840 C 13.072 16.345,13.021 16.592,13.024 17.200 C 13.026 17.692,13.037 17.773,13.149 18.111 C 13.392 18.843,13.413 18.869,15.473 20.912 C 16.500 21.930,17.421 22.812,17.520 22.872 C 17.673 22.964,17.745 22.980,18.000 22.980 C 18.254 22.980,18.327 22.964,18.480 22.873 C 18.579 22.814,19.509 21.923,20.547 20.893 C 22.582 18.874,22.591 18.863,22.818 18.213 C 23.020 17.636,23.050 16.947,22.900 16.380 C 22.746 15.802,22.353 15.189,21.871 14.775 C 20.903 13.943,19.453 13.773,18.325 14.360 L 18.013 14.522 17.697 14.363 C 17.245 14.135,16.862 14.039,16.340 14.020 C 16.098 14.012,15.810 14.019,15.699 14.037 M16.756 16.138 C 16.867 16.194,17.072 16.348,17.213 16.480 C 17.512 16.759,17.693 16.846,17.980 16.849 C 18.293 16.851,18.459 16.777,18.773 16.492 C 19.235 16.074,19.562 15.956,20.020 16.041 C 20.841 16.193,21.259 17.127,20.806 17.797 C 20.748 17.883,20.101 18.542,19.368 19.262 C 18.242 20.369,18.025 20.565,17.961 20.535 C 17.919 20.516,17.278 19.898,16.537 19.163 C 15.024 17.661,15.020 17.657,15.023 17.160 C 15.025 16.915,15.045 16.822,15.133 16.651 C 15.292 16.341,15.584 16.126,15.980 16.025 C 16.158 15.979,16.559 16.038,16.756 16.138 " stroke="none" fill-rule="evenodd" fill="black"></path></svg>