<svg xmlns="http://www.w3.org/2000/svg" width="24" height="24" viewBox="0 0 24 24" fill="none" stroke="currentColor" stroke-width="2" stroke-linecap="round" stroke-linejoin="round"><path d="M11.360 2.023 C 10.731 2.094,10.440 2.139,10.054 2.224 C 7.164 2.860,4.723 4.934,3.646 7.669 C 3.248 8.680,3.060 9.576,3.014 10.680 C 2.926 12.811,3.618 14.898,4.990 16.637 C 5.408 17.168,10.027 21.784,10.330 21.974 C 10.652 22.177,10.821 22.240,11.038 22.240 C 11.598 22.240,12.053 21.802,12.056 21.259 C 12.058 20.898,11.885 20.600,11.545 20.380 C 11.303 20.223,6.786 15.698,6.494 15.320 C 5.658 14.238,5.201 13.099,5.042 11.700 C 4.759 9.227,5.969 6.619,8.040 5.233 C 9.933 3.967,12.132 3.669,14.280 4.389 C 15.999 4.965,17.441 6.236,18.283 7.919 C 18.651 8.652,18.871 9.449,18.962 10.367 C 18.987 10.623,19.038 10.890,19.078 10.980 C 19.374 11.640,20.274 11.774,20.743 11.226 C 20.932 11.005,21.013 10.713,20.981 10.369 C 20.865 9.118,20.576 8.069,20.058 7.014 C 18.766 4.384,16.241 2.548,13.300 2.100 C 12.884 2.037,11.664 1.989,11.360 2.023 M11.382 7.044 C 10.120 7.228,8.914 8.137,8.371 9.310 C 8.035 10.039,7.916 11.011,8.071 11.761 C 8.346 13.090,9.246 14.197,10.449 14.686 C 10.865 14.856,11.041 14.887,11.279 14.836 C 11.935 14.696,12.273 14.003,11.976 13.407 C 11.851 13.155,11.713 13.045,11.319 12.877 C 10.764 12.641,10.450 12.351,10.212 11.855 C 9.840 11.078,9.997 10.186,10.611 9.585 C 11.399 8.815,12.609 8.815,13.390 9.586 C 13.728 9.919,13.917 10.313,13.971 10.794 C 14.026 11.275,14.062 11.403,14.198 11.591 C 14.515 12.029,15.146 12.124,15.591 11.802 C 15.846 11.617,15.970 11.369,15.991 11.005 C 16.040 10.152,15.667 9.142,15.030 8.398 C 14.139 7.357,12.756 6.844,11.382 7.044 M17.372 13.072 C 17.112 13.165,16.870 13.331,16.723 13.517 C 16.661 13.596,16.403 14.074,16.150 14.580 L 15.689 15.501 14.657 15.651 C 13.546 15.812,13.351 15.870,13.063 16.122 C 12.745 16.402,12.575 16.831,12.611 17.267 C 12.646 17.710,12.753 17.864,13.623 18.726 C 14.233 19.330,14.399 19.517,14.384 19.580 C 14.373 19.624,14.289 20.107,14.197 20.653 L 14.030 21.645 14.095 21.913 C 14.262 22.595,14.870 23.044,15.552 22.989 C 15.821 22.968,16.039 22.871,17.330 22.198 L 17.800 21.953 18.270 22.198 C 19.561 22.871,19.779 22.968,20.048 22.989 C 20.724 23.043,21.333 22.598,21.503 21.925 C 21.576 21.635,21.580 21.680,21.357 20.400 L 21.200 19.500 21.979 18.726 C 22.844 17.867,22.944 17.722,22.986 17.276 C 23.027 16.835,22.860 16.406,22.537 16.122 C 22.249 15.870,22.054 15.812,20.943 15.651 L 19.911 15.501 19.434 14.548 C 18.905 13.491,18.773 13.315,18.370 13.130 C 18.069 12.992,17.662 12.969,17.372 13.072 M18.109 16.376 C 18.267 16.693,18.451 17.015,18.518 17.091 C 18.699 17.298,18.948 17.384,19.653 17.484 L 20.285 17.574 19.787 18.077 C 19.512 18.354,19.261 18.634,19.228 18.701 C 19.111 18.935,19.109 19.155,19.217 19.773 C 19.274 20.098,19.320 20.391,19.320 20.424 C 19.320 20.466,19.137 20.389,18.699 20.162 C 18.097 19.850,18.070 19.840,17.800 19.840 C 17.530 19.840,17.503 19.850,16.901 20.162 C 16.413 20.415,16.280 20.469,16.280 20.415 C 16.280 20.378,16.326 20.085,16.383 19.765 C 16.492 19.156,16.489 18.935,16.372 18.701 C 16.339 18.634,16.088 18.354,15.813 18.077 L 15.315 17.574 15.947 17.484 C 16.652 17.384,16.901 17.298,17.082 17.091 C 17.149 17.015,17.333 16.693,17.491 16.376 C 17.649 16.059,17.788 15.800,17.800 15.800 C 17.812 15.800,17.951 16.059,18.109 16.376 " stroke="none" fill-rule="evenodd" fill="black"></path></svg>