<svg xmlns="http://www.w3.org/2000/svg" width="24" height="24" viewBox="0 0 24 24" fill="none" stroke="currentColor" stroke-width="2" stroke-linecap="round" stroke-linejoin="round"><path d="M11.040 2.062 C 8.968 2.298,7.124 3.176,5.669 4.618 C 4.281 5.994,3.420 7.694,3.094 9.700 C 2.994 10.318,2.993 11.689,3.093 12.300 C 3.361 13.941,3.980 15.357,4.989 16.636 C 5.418 17.180,10.026 21.784,10.340 21.981 C 11.007 22.402,11.813 22.571,12.525 22.440 C 12.904 22.371,13.303 22.204,13.462 22.050 C 14.011 21.517,13.798 20.597,13.075 20.382 C 12.805 20.302,12.764 20.303,12.403 20.405 C 12.053 20.503,11.775 20.491,11.535 20.366 C 11.352 20.272,6.794 15.709,6.494 15.320 C 5.615 14.182,5.163 13.010,5.032 11.527 C 4.927 10.342,5.142 9.145,5.657 8.060 C 6.387 6.521,7.457 5.433,8.940 4.721 C 9.644 4.383,10.178 4.212,10.960 4.074 C 11.402 3.996,12.683 4.007,13.146 4.093 C 15.442 4.520,17.222 5.839,18.255 7.878 C 18.736 8.826,18.914 9.537,18.995 10.821 C 19.032 11.403,19.071 11.513,19.324 11.759 C 19.712 12.136,20.307 12.126,20.697 11.737 C 20.923 11.510,21.000 11.284,21.000 10.843 C 20.998 9.320,20.442 7.490,19.572 6.143 C 17.721 3.279,14.380 1.680,11.040 2.062 M11.358 7.061 C 10.230 7.237,9.143 7.974,8.569 8.953 C 7.320 11.083,8.233 13.785,10.512 14.704 C 12.558 15.528,14.877 14.538,15.704 12.488 C 16.090 11.530,16.090 10.469,15.705 9.516 C 15.172 8.197,14.001 7.269,12.605 7.058 C 12.144 6.989,11.816 6.990,11.358 7.061 M12.523 9.073 C 13.262 9.266,13.850 9.924,13.967 10.690 C 14.067 11.343,13.873 11.933,13.403 12.404 C 13.002 12.807,12.547 13.000,12.000 13.000 C 11.485 13.000,11.038 12.822,10.653 12.465 C 9.323 11.229,10.189 9.005,12.000 9.005 C 12.143 9.005,12.378 9.036,12.523 9.073 M18.340 14.060 C 17.913 14.130,17.642 14.217,17.275 14.399 C 16.236 14.915,15.537 15.720,15.185 16.807 C 14.791 18.021,15.052 19.450,15.851 20.460 C 16.124 20.805,16.714 21.363,17.729 22.233 C 18.558 22.945,18.617 22.980,19.000 22.979 C 19.211 22.979,19.339 22.957,19.433 22.907 C 19.586 22.824,20.750 21.830,21.465 21.171 C 22.256 20.443,22.645 19.845,22.868 19.015 C 22.962 18.669,22.975 18.543,22.976 18.000 C 22.977 17.486,22.962 17.325,22.890 17.059 C 22.555 15.825,21.863 14.972,20.736 14.406 C 20.015 14.045,19.175 13.924,18.340 14.060 M19.383 16.043 C 19.962 16.149,20.496 16.556,20.760 17.093 C 20.848 17.273,20.941 17.528,20.964 17.660 C 21.049 18.125,20.934 18.671,20.660 19.101 C 20.538 19.293,19.979 19.839,19.309 20.421 L 18.997 20.691 18.909 20.614 C 17.924 19.754,17.524 19.372,17.355 19.130 C 17.082 18.739,16.949 18.129,17.035 17.660 C 17.107 17.269,17.361 16.802,17.640 16.550 C 18.143 16.095,18.729 15.924,19.383 16.043 M18.695 17.057 C 18.466 17.129,18.256 17.299,18.128 17.516 C 18.036 17.672,18.020 17.745,18.021 18.000 C 18.022 18.332,18.101 18.533,18.306 18.728 C 18.785 19.181,19.580 19.046,19.893 18.460 C 20.025 18.211,20.015 17.760,19.872 17.516 C 19.628 17.101,19.150 16.915,18.695 17.057 " stroke="none" fill-rule="evenodd" fill="black"></path></svg>