<svg xmlns="http://www.w3.org/2000/svg" width="24" height="24" viewBox="0 0 24 24" fill="none" stroke="currentColor" stroke-width="2" stroke-linecap="round" stroke-linejoin="round"><path d="M5.591 4.585 C 3.058 5.850,2.391 6.200,2.275 6.321 C 1.980 6.631,2.000 6.095,2.000 13.500 C 2.000 20.965,1.976 20.378,2.300 20.702 C 2.509 20.911,2.803 21.018,3.093 20.990 C 3.261 20.974,3.803 20.717,6.148 19.546 L 8.998 18.121 10.372 18.805 C 11.675 19.453,11.759 19.488,11.983 19.490 C 12.414 19.494,12.782 19.239,12.940 18.826 C 13.075 18.473,12.956 18.026,12.659 17.764 C 12.579 17.694,11.948 17.354,11.257 17.008 L 10.000 16.381 10.000 11.010 C 10.000 8.057,10.009 5.640,10.020 5.640 C 10.031 5.640,10.931 6.085,12.020 6.630 L 14.000 7.620 14.000 11.160 L 14.001 14.700 14.095 14.900 C 14.276 15.281,14.595 15.488,15.000 15.488 C 15.405 15.488,15.724 15.281,15.905 14.900 L 15.999 14.700 16.000 11.160 L 16.000 7.620 17.980 6.630 C 19.069 6.085,19.969 5.640,19.980 5.640 C 19.991 5.640,20.000 7.229,20.000 9.170 L 20.001 12.700 20.095 12.900 C 20.276 13.281,20.595 13.488,21.000 13.488 C 21.405 13.488,21.724 13.281,21.905 12.900 L 21.999 12.700 22.000 8.277 C 22.000 3.302,22.019 3.617,21.700 3.298 C 21.488 3.086,21.194 2.981,20.905 3.013 C 20.740 3.031,20.142 3.314,17.850 4.457 L 15.000 5.879 12.119 4.440 C 9.299 3.031,9.233 3.000,9.000 3.000 C 8.766 3.000,8.700 3.031,5.591 4.585 M8.000 11.010 L 8.000 16.380 6.020 17.370 C 4.931 17.915,4.031 18.360,4.020 18.360 C 4.009 18.360,4.000 15.943,4.000 12.990 L 4.000 7.620 5.970 6.632 C 7.054 6.089,7.954 5.643,7.970 5.642 C 7.987 5.641,8.000 8.057,8.000 11.010 M18.580 15.096 C 18.424 15.171,18.029 15.545,16.774 16.806 C 15.891 17.694,15.135 18.483,15.095 18.560 C 15.043 18.659,15.021 18.788,15.021 19.000 C 15.020 19.258,15.036 19.327,15.133 19.492 C 15.263 19.714,15.502 19.901,15.736 19.965 C 15.939 20.019,16.267 19.989,16.445 19.899 C 16.519 19.861,16.899 19.514,17.289 19.128 L 17.997 18.426 18.009 20.366 L 18.020 22.306 18.141 22.503 C 18.543 23.156,19.457 23.156,19.859 22.503 L 19.980 22.306 19.991 20.366 L 20.003 18.426 20.711 19.128 C 21.101 19.514,21.483 19.864,21.560 19.904 C 21.660 19.957,21.787 19.979,22.000 19.979 C 22.258 19.980,22.327 19.964,22.492 19.867 C 22.714 19.737,22.901 19.498,22.965 19.264 C 23.019 19.061,22.989 18.733,22.899 18.555 C 22.862 18.481,22.109 17.694,21.226 16.806 C 19.472 15.043,19.420 15.001,19.000 15.001 C 18.851 15.001,18.716 15.031,18.580 15.096 " stroke="none" fill-rule="evenodd" fill="black"></path></svg>