<svg xmlns="http://www.w3.org/2000/svg" width="24" height="24" viewBox="0 0 24 24" fill="none" stroke="currentColor" stroke-width="2" stroke-linecap="round" stroke-linejoin="round"><path d="M5.591 4.585 C 3.058 5.850,2.391 6.200,2.275 6.321 C 1.980 6.631,2.000 6.095,2.000 13.500 C 2.000 20.965,1.976 20.378,2.300 20.702 C 2.509 20.911,2.803 21.018,3.093 20.990 C 3.261 20.974,3.803 20.717,6.148 19.546 L 8.999 18.121 11.371 19.305 C 13.668 20.451,13.750 20.488,13.981 20.490 C 14.414 20.494,14.782 20.240,14.940 19.826 C 15.075 19.473,14.956 19.026,14.659 18.764 C 14.579 18.694,13.498 18.129,12.257 17.508 L 10.000 16.380 10.000 11.010 C 10.000 8.057,10.009 5.640,10.020 5.640 C 10.031 5.640,10.931 6.085,12.020 6.630 L 14.000 7.620 14.000 10.660 L 14.001 13.700 14.095 13.900 C 14.276 14.281,14.595 14.488,15.000 14.488 C 15.405 14.488,15.724 14.281,15.905 13.900 L 15.999 13.700 16.000 10.660 L 16.000 7.620 17.980 6.630 C 19.069 6.085,19.969 5.640,19.979 5.640 C 19.990 5.640,20.003 7.365,20.009 9.473 L 20.020 13.306 20.141 13.503 C 20.543 14.156,21.457 14.156,21.859 13.503 L 21.980 13.306 21.991 8.585 C 22.003 3.269,22.022 3.620,21.701 3.299 C 21.488 3.086,21.195 2.981,20.905 3.013 C 20.740 3.031,20.142 3.314,17.850 4.457 L 15.000 5.879 12.119 4.440 C 9.299 3.031,9.233 3.000,9.000 3.000 C 8.766 3.000,8.700 3.031,5.591 4.585 M8.000 11.010 L 8.000 16.380 6.020 17.370 C 4.931 17.915,4.031 18.360,4.020 18.360 C 4.009 18.360,4.000 15.943,4.000 12.990 L 4.000 7.620 5.970 6.632 C 7.054 6.089,7.954 5.643,7.970 5.642 C 7.987 5.641,8.000 8.057,8.000 11.010 M16.670 16.061 C 16.448 16.142,16.250 16.309,16.128 16.516 C 16.037 16.672,16.020 16.746,16.020 17.000 C 16.020 17.254,16.036 17.328,16.127 17.480 C 16.186 17.579,16.650 18.074,17.157 18.579 L 18.079 19.499 17.124 20.459 C 16.599 20.988,16.138 21.481,16.101 21.555 C 15.872 22.009,16.056 22.601,16.508 22.867 C 16.673 22.964,16.743 22.980,17.000 22.980 C 17.254 22.980,17.328 22.964,17.480 22.873 C 17.579 22.814,18.074 22.350,18.579 21.843 L 19.499 20.921 20.459 21.876 C 20.988 22.401,21.483 22.864,21.560 22.905 C 21.659 22.957,21.787 22.979,22.000 22.979 C 22.258 22.980,22.327 22.964,22.492 22.867 C 22.714 22.737,22.901 22.498,22.965 22.264 C 23.019 22.061,22.989 21.733,22.899 21.555 C 22.862 21.481,22.401 20.988,21.876 20.459 L 20.921 19.499 21.843 18.579 C 22.350 18.074,22.814 17.579,22.873 17.480 C 22.964 17.328,22.980 17.254,22.980 17.000 C 22.980 16.746,22.963 16.672,22.872 16.516 C 22.618 16.084,22.136 15.905,21.657 16.066 C 21.486 16.124,21.330 16.262,20.480 17.104 L 19.500 18.076 18.520 17.104 C 17.671 16.262,17.514 16.124,17.343 16.066 C 17.108 15.987,16.875 15.985,16.670 16.061 " stroke="none" fill-rule="evenodd" fill="black"></path></svg>