<svg xmlns="http://www.w3.org/2000/svg" width="24" height="24" viewBox="0 0 24 24" fill="none" stroke="currentColor" stroke-width="2" stroke-linecap="round" stroke-linejoin="round"><path d="M11.080 2.045 C 9.507 2.184,7.883 2.751,6.540 3.630 C 5.905 4.045,5.499 4.378,4.919 4.958 C 2.953 6.926,1.919 9.544,2.013 12.320 C 2.084 14.439,2.752 16.328,4.033 18.040 C 4.430 18.570,5.305 19.464,5.800 19.847 C 7.242 20.961,8.787 21.624,10.600 21.907 C 11.247 22.008,12.753 22.008,13.400 21.907 C 15.638 21.557,17.504 20.620,19.062 19.062 C 20.620 17.504,21.557 15.638,21.907 13.400 C 22.008 12.753,22.008 11.247,21.907 10.600 C 21.624 8.786,20.959 7.238,19.847 5.800 C 19.510 5.365,18.639 4.494,18.200 4.154 C 16.133 2.555,13.646 1.818,11.080 2.045 M12.734 4.041 C 14.574 4.216,16.228 4.976,17.554 6.256 C 20.043 8.658,20.702 12.394,19.183 15.499 C 18.749 16.387,18.223 17.105,17.496 17.801 C 16.876 18.394,16.262 18.819,15.471 19.200 C 13.267 20.265,10.733 20.265,8.529 19.200 C 7.477 18.693,6.612 18.015,5.847 17.100 C 3.848 14.711,3.440 11.302,4.816 8.500 C 6.162 5.760,8.867 4.049,11.920 4.005 C 12.129 4.003,12.495 4.019,12.734 4.041 M9.695 8.057 C 9.466 8.129,9.256 8.299,9.128 8.516 L 9.020 8.700 9.009 11.912 C 9.002 14.005,9.012 15.177,9.039 15.276 C 9.099 15.498,9.290 15.739,9.508 15.867 L 9.700 15.980 11.911 15.991 C 13.337 15.999,14.176 15.988,14.275 15.961 C 14.498 15.901,14.739 15.711,14.867 15.492 C 14.964 15.327,14.980 15.257,14.980 15.000 C 14.980 14.746,14.963 14.672,14.872 14.516 C 14.813 14.415,14.698 14.282,14.618 14.221 C 14.342 14.011,14.242 14.000,12.554 14.000 L 11.000 14.000 11.000 13.500 L 11.000 13.000 11.850 13.000 C 12.661 12.999,12.709 12.995,12.900 12.905 C 13.281 12.724,13.488 12.405,13.488 12.000 C 13.488 11.615,13.293 11.297,12.940 11.106 C 12.792 11.027,12.713 11.019,11.890 11.007 L 11.000 10.995 11.000 10.497 L 11.000 10.000 12.590 9.998 C 14.300 9.996,14.346 9.991,14.619 9.783 C 14.696 9.725,14.808 9.592,14.869 9.489 C 14.964 9.328,14.980 9.256,14.980 9.000 C 14.980 8.746,14.963 8.672,14.872 8.516 C 14.740 8.293,14.533 8.128,14.290 8.055 C 14.033 7.978,9.943 7.979,9.695 8.057 " stroke="none" fill-rule="evenodd" fill="black"></path></svg>