<svg xmlns="http://www.w3.org/2000/svg" width="24" height="24" viewBox="0 0 24 24" fill="none" stroke="currentColor" stroke-width="2" stroke-linecap="round" stroke-linejoin="round"><path d="M11.080 2.045 C 9.507 2.184,7.883 2.751,6.540 3.630 C 5.905 4.045,5.499 4.378,4.919 4.958 C 2.953 6.926,1.919 9.544,2.013 12.320 C 2.084 14.439,2.752 16.328,4.033 18.040 C 4.430 18.570,5.305 19.464,5.800 19.847 C 7.242 20.961,8.787 21.624,10.600 21.907 C 11.247 22.008,12.753 22.008,13.400 21.907 C 15.638 21.557,17.504 20.620,19.062 19.062 C 20.620 17.504,21.557 15.638,21.907 13.400 C 22.008 12.753,22.008 11.247,21.907 10.600 C 21.624 8.786,20.959 7.238,19.847 5.800 C 19.510 5.365,18.639 4.494,18.200 4.154 C 16.133 2.555,13.646 1.818,11.080 2.045 M12.734 4.041 C 14.574 4.216,16.228 4.976,17.554 6.256 C 20.043 8.658,20.702 12.394,19.183 15.499 C 18.749 16.387,18.223 17.105,17.496 17.801 C 16.876 18.394,16.262 18.819,15.471 19.200 C 13.267 20.265,10.733 20.265,8.529 19.200 C 7.477 18.693,6.612 18.015,5.847 17.100 C 3.848 14.711,3.440 11.302,4.816 8.500 C 6.162 5.760,8.867 4.049,11.920 4.005 C 12.129 4.003,12.495 4.019,12.734 4.041 M9.695 8.057 C 9.466 8.129,9.256 8.299,9.128 8.516 L 9.020 8.700 9.020 12.003 L 9.020 15.306 9.141 15.503 C 9.543 16.156,10.457 16.156,10.859 15.503 L 10.980 15.306 10.992 13.806 L 11.004 12.306 12.141 14.012 C 13.333 15.799,13.371 15.846,13.736 15.961 C 13.924 16.020,14.263 15.992,14.438 15.901 C 14.507 15.865,14.634 15.764,14.720 15.676 C 15.014 15.373,15.003 15.519,14.991 11.917 L 14.980 8.700 14.871 8.514 C 14.479 7.848,13.521 7.848,13.129 8.514 L 13.020 8.700 13.008 10.197 L 12.996 11.693 11.863 9.995 C 10.658 8.190,10.605 8.126,10.240 8.043 C 10.009 7.990,9.899 7.993,9.695 8.057 " stroke="none" fill-rule="evenodd" fill="black"></path></svg>