<svg xmlns="http://www.w3.org/2000/svg" width="24" height="24" viewBox="0 0 24 24" fill="none" stroke="currentColor" stroke-width="2" stroke-linecap="round" stroke-linejoin="round"><path d="M5.591 4.585 C 3.058 5.850,2.391 6.200,2.275 6.321 C 1.980 6.631,2.000 6.095,2.000 13.500 C 2.000 20.965,1.976 20.378,2.300 20.702 C 2.509 20.911,2.803 21.018,3.093 20.990 C 3.261 20.974,3.803 20.717,6.148 19.546 L 8.998 18.121 10.372 18.805 C 11.675 19.453,11.759 19.488,11.983 19.490 C 12.414 19.494,12.782 19.239,12.940 18.826 C 13.075 18.473,12.956 18.026,12.659 17.764 C 12.579 17.694,11.948 17.354,11.257 17.008 L 10.000 16.381 10.000 11.010 C 10.000 8.057,10.009 5.640,10.020 5.640 C 10.031 5.640,10.930 6.085,12.019 6.629 L 13.998 7.619 14.009 10.462 L 14.020 13.306 14.141 13.503 C 14.543 14.156,15.457 14.156,15.859 13.503 L 15.980 13.306 15.991 10.462 L 16.002 7.619 17.981 6.629 C 19.070 6.085,19.969 5.640,19.979 5.640 C 19.990 5.640,20.003 7.140,20.009 8.973 L 20.020 12.306 20.141 12.503 C 20.543 13.156,21.457 13.156,21.859 12.503 L 21.980 12.306 21.991 8.086 C 22.003 3.329,22.020 3.618,21.701 3.299 C 21.488 3.086,21.195 2.981,20.905 3.013 C 20.740 3.031,20.142 3.314,17.850 4.457 L 15.000 5.879 12.119 4.440 C 9.299 3.031,9.233 3.000,9.000 3.000 C 8.766 3.000,8.700 3.031,5.591 4.585 M8.000 11.010 L 8.000 16.380 6.020 17.370 C 4.931 17.915,4.031 18.360,4.020 18.360 C 4.009 18.360,4.000 15.943,4.000 12.990 L 4.000 7.620 5.970 6.632 C 7.054 6.089,7.954 5.643,7.970 5.642 C 7.987 5.641,8.000 8.057,8.000 11.010 M18.358 15.061 C 17.230 15.237,16.143 15.974,15.569 16.953 C 14.320 19.083,15.233 21.785,17.512 22.704 C 19.558 23.528,21.877 22.538,22.704 20.488 C 23.090 19.530,23.090 18.469,22.705 17.516 C 22.172 16.197,21.001 15.269,19.605 15.058 C 19.144 14.989,18.816 14.990,18.358 15.061 M19.470 17.057 C 19.485 17.071,18.954 17.626,18.290 18.290 C 17.626 18.954,17.072 19.486,17.059 19.472 C 17.045 19.459,17.024 19.314,17.012 19.150 C 16.940 18.202,17.563 17.318,18.477 17.071 C 18.735 17.001,19.405 16.991,19.470 17.057 M20.982 18.784 C 21.047 19.396,20.844 19.961,20.398 20.410 C 20.104 20.705,19.779 20.885,19.404 20.963 C 19.181 21.010,18.584 20.997,18.532 20.945 C 18.504 20.918,20.872 18.520,20.927 18.520 C 20.941 18.520,20.966 18.639,20.982 18.784 " stroke="none" fill-rule="evenodd" fill="black"></path></svg>