<svg xmlns="http://www.w3.org/2000/svg" width="24" height="24" viewBox="0 0 24 24" fill="none" stroke="currentColor" stroke-width="2" stroke-linecap="round" stroke-linejoin="round"><path d="M11.380 2.027 C 9.504 2.186,7.918 2.797,6.460 3.922 C 5.663 4.537,4.819 5.487,4.285 6.371 C 3.126 8.291,2.729 10.686,3.205 12.880 C 3.505 14.260,4.055 15.427,4.961 16.600 C 5.264 16.992,9.362 21.148,9.999 21.708 C 10.678 22.307,11.695 22.623,12.329 22.432 C 12.543 22.368,12.855 22.081,12.939 21.870 C 13.082 21.514,13.003 21.073,12.748 20.806 C 12.560 20.610,12.364 20.525,12.004 20.485 C 11.780 20.460,11.631 20.419,11.511 20.348 C 11.269 20.204,6.750 15.657,6.455 15.260 C 6.094 14.773,5.903 14.462,5.682 13.992 C 4.945 12.430,4.812 10.675,5.302 8.996 C 5.654 7.791,6.425 6.585,7.372 5.758 C 10.158 3.327,14.319 3.449,16.921 6.039 C 18.618 7.727,19.334 10.130,18.837 12.458 C 18.692 13.136,18.756 13.448,19.101 13.753 C 19.588 14.181,20.339 14.040,20.618 13.466 C 20.734 13.228,20.849 12.701,20.944 11.972 C 21.021 11.378,21.002 10.319,20.902 9.676 C 20.323 5.963,17.596 3.044,13.936 2.222 C 13.163 2.049,12.090 1.967,11.380 2.027 M11.358 7.061 C 10.230 7.237,9.143 7.974,8.569 8.953 C 7.320 11.083,8.233 13.785,10.512 14.704 C 12.558 15.528,14.877 14.538,15.704 12.488 C 16.090 11.530,16.090 10.469,15.705 9.516 C 15.172 8.197,14.001 7.269,12.605 7.058 C 12.144 6.989,11.816 6.990,11.358 7.061 M12.523 9.073 C 13.262 9.266,13.850 9.924,13.967 10.690 C 14.067 11.343,13.873 11.933,13.403 12.404 C 13.002 12.807,12.547 13.000,12.000 13.000 C 11.485 13.000,11.038 12.822,10.653 12.465 C 9.323 11.229,10.189 9.005,12.000 9.005 C 12.143 9.005,12.378 9.036,12.523 9.073 M16.240 16.037 C 15.794 16.173,15.512 16.546,15.512 17.000 C 15.512 17.405,15.719 17.724,16.100 17.905 C 16.296 17.997,16.324 17.999,17.439 18.000 L 18.579 18.000 16.874 19.710 C 15.936 20.651,15.138 21.481,15.101 21.555 C 14.872 22.010,15.056 22.601,15.508 22.867 C 15.673 22.964,15.742 22.980,16.000 22.979 C 16.212 22.979,16.341 22.957,16.440 22.905 C 16.517 22.865,17.350 22.064,18.290 21.126 L 20.000 19.421 20.000 20.561 C 20.001 21.676,20.003 21.704,20.095 21.900 C 20.276 22.281,20.595 22.488,21.000 22.488 C 21.405 22.488,21.724 22.281,21.905 21.900 L 21.999 21.700 21.999 19.240 L 21.999 16.780 21.905 16.580 C 21.791 16.340,21.642 16.193,21.400 16.083 C 21.225 16.004,21.152 16.002,18.780 16.004 C 17.438 16.006,16.295 16.021,16.240 16.037 " stroke="none" fill-rule="evenodd" fill="black"></path></svg>