<svg xmlns="http://www.w3.org/2000/svg" width="24" height="24" viewBox="0 0 24 24" fill="none" stroke="currentColor" stroke-width="2" stroke-linecap="round" stroke-linejoin="round"><path d="M5.591 4.585 C 3.058 5.850,2.391 6.200,2.275 6.321 C 1.980 6.631,2.000 6.095,2.000 13.500 C 2.000 20.965,1.976 20.378,2.300 20.702 C 2.509 20.911,2.803 21.018,3.093 20.990 C 3.261 20.974,3.803 20.717,6.148 19.545 L 9.000 18.121 10.852 19.046 C 12.889 20.062,12.919 20.073,13.322 19.939 C 13.707 19.811,14.000 19.406,14.000 19.000 C 14.000 18.773,13.884 18.488,13.725 18.322 C 13.613 18.205,13.168 17.964,11.790 17.275 L 10.000 16.380 10.000 11.010 C 10.000 8.056,10.009 5.640,10.020 5.640 C 10.031 5.640,10.931 6.085,12.020 6.630 L 14.000 7.620 14.000 10.160 L 14.001 12.700 14.095 12.900 C 14.276 13.281,14.595 13.488,15.000 13.488 C 15.405 13.488,15.724 13.281,15.905 12.900 L 15.999 12.700 16.000 10.160 L 16.000 7.620 17.980 6.630 C 19.069 6.085,19.969 5.640,19.980 5.640 C 19.991 5.640,20.000 7.229,20.000 9.170 L 20.001 12.700 20.095 12.900 C 20.276 13.281,20.595 13.488,21.000 13.488 C 21.405 13.488,21.724 13.281,21.905 12.900 L 21.999 12.700 22.000 8.277 C 22.000 3.302,22.019 3.617,21.700 3.298 C 21.488 3.086,21.194 2.981,20.905 3.013 C 20.740 3.031,20.142 3.314,17.850 4.457 L 15.000 5.879 12.119 4.440 C 9.299 3.031,9.233 3.000,9.000 3.000 C 8.766 3.000,8.700 3.031,5.591 4.585 M8.000 11.010 L 8.000 16.380 6.020 17.370 C 4.931 17.915,4.031 18.360,4.020 18.360 C 4.009 18.360,4.000 15.943,4.000 12.990 L 4.000 7.620 5.970 6.632 C 7.054 6.089,7.954 5.643,7.970 5.642 C 7.987 5.641,8.000 8.057,8.000 11.010 M15.695 15.057 C 15.466 15.129,15.256 15.299,15.128 15.516 C 15.036 15.672,15.020 15.745,15.021 16.000 C 15.022 16.332,15.101 16.533,15.306 16.728 C 15.785 17.181,16.580 17.046,16.893 16.460 C 17.025 16.211,17.015 15.760,16.872 15.516 C 16.628 15.101,16.150 14.915,15.695 15.057 M20.640 15.068 C 20.485 15.121,20.093 15.495,17.847 17.735 C 16.368 19.209,15.188 20.418,15.127 20.520 C 15.036 20.672,15.020 20.746,15.020 21.000 C 15.020 21.257,15.036 21.327,15.133 21.492 C 15.263 21.714,15.502 21.901,15.736 21.965 C 15.938 22.019,16.266 21.989,16.445 21.899 C 16.630 21.807,21.738 16.706,21.873 16.480 C 21.964 16.328,21.980 16.254,21.980 16.000 C 21.980 15.746,21.963 15.672,21.872 15.516 C 21.617 15.083,21.122 14.903,20.640 15.068 M20.695 20.057 C 20.466 20.129,20.256 20.299,20.128 20.516 C 20.036 20.672,20.020 20.745,20.021 21.000 C 20.022 21.332,20.101 21.533,20.306 21.728 C 20.785 22.181,21.580 22.046,21.893 21.460 C 22.025 21.211,22.015 20.760,21.872 20.516 C 21.628 20.101,21.150 19.915,20.695 20.057 " stroke="none" fill-rule="evenodd" fill="black"></path></svg>