<svg xmlns="http://www.w3.org/2000/svg" width="24" height="24" viewBox="0 0 24 24" fill="none" stroke="currentColor" stroke-width="2" stroke-linecap="round" stroke-linejoin="round"><path d="M5.591 4.585 C 3.058 5.850,2.391 6.200,2.275 6.321 C 1.980 6.631,2.000 6.095,2.000 13.500 C 2.000 20.965,1.976 20.378,2.300 20.702 C 2.509 20.911,2.803 21.018,3.093 20.990 C 3.261 20.974,3.803 20.717,6.148 19.546 L 8.998 18.121 10.372 18.805 C 11.675 19.453,11.759 19.488,11.983 19.490 C 12.414 19.494,12.782 19.239,12.940 18.826 C 13.075 18.473,12.956 18.026,12.659 17.764 C 12.579 17.694,11.948 17.354,11.257 17.008 L 10.000 16.381 10.000 11.010 C 10.000 8.057,10.009 5.640,10.020 5.640 C 10.031 5.640,10.930 6.085,12.019 6.629 L 13.998 7.619 14.009 11.463 L 14.020 15.306 14.141 15.503 C 14.543 16.156,15.457 16.156,15.859 15.503 L 15.980 15.306 15.991 11.463 L 16.002 7.619 17.981 6.629 C 19.070 6.085,19.969 5.640,19.979 5.640 C 19.990 5.640,20.004 7.815,20.009 10.473 L 20.020 15.306 20.141 15.503 C 20.543 16.156,21.457 16.156,21.859 15.503 L 21.980 15.306 21.991 9.585 C 22.002 3.149,22.024 3.622,21.701 3.299 C 21.488 3.086,21.195 2.981,20.905 3.013 C 20.740 3.031,20.142 3.314,17.850 4.457 L 15.000 5.879 12.119 4.440 C 9.299 3.031,9.233 3.000,9.000 3.000 C 8.766 3.000,8.700 3.031,5.591 4.585 M8.000 11.010 L 8.000 16.380 6.020 17.370 C 4.931 17.915,4.031 18.360,4.020 18.360 C 4.009 18.360,4.000 15.943,4.000 12.990 L 4.000 7.620 5.970 6.632 C 7.054 6.089,7.954 5.643,7.970 5.642 C 7.987 5.641,8.000 8.057,8.000 11.010 M15.695 18.057 C 15.466 18.129,15.256 18.299,15.128 18.516 C 15.037 18.672,15.020 18.746,15.020 19.000 C 15.020 19.256,15.036 19.328,15.131 19.489 C 15.256 19.702,15.449 19.864,15.670 19.943 C 15.891 20.022,22.109 20.022,22.330 19.943 C 22.551 19.864,22.744 19.702,22.869 19.489 C 22.964 19.328,22.980 19.256,22.980 19.000 C 22.980 18.746,22.963 18.672,22.872 18.516 C 22.740 18.293,22.533 18.128,22.290 18.055 C 22.030 17.977,15.945 17.979,15.695 18.057 " stroke="none" fill-rule="evenodd" fill="black"></path></svg>