<svg xmlns="http://www.w3.org/2000/svg" width="24" height="24" viewBox="0 0 24 24" fill="none" stroke="currentColor" stroke-width="2" stroke-linecap="round" stroke-linejoin="round"><path d="M11.440 2.024 C 10.915 2.069,10.453 2.136,10.048 2.225 C 7.384 2.813,5.115 4.603,3.919 7.060 C 3.266 8.400,2.961 9.812,3.012 11.260 C 3.082 13.244,3.704 14.960,4.940 16.580 C 5.326 17.086,10.017 21.778,10.340 21.981 C 10.923 22.349,11.476 22.499,12.140 22.470 C 12.490 22.455,12.650 22.427,12.923 22.333 C 13.343 22.188,13.512 22.064,13.663 21.790 C 13.929 21.306,13.733 20.691,13.231 20.435 C 12.986 20.310,12.764 20.299,12.447 20.395 C 12.293 20.442,12.080 20.480,11.974 20.480 C 11.571 20.479,11.559 20.468,9.056 17.954 C 7.778 16.671,6.634 15.494,6.514 15.340 C 5.214 13.677,4.726 11.568,5.167 9.520 C 5.475 8.087,6.282 6.709,7.368 5.761 C 9.204 4.157,11.659 3.618,14.004 4.302 C 15.548 4.753,16.889 5.745,17.807 7.117 C 18.685 8.427,19.093 9.983,18.967 11.534 C 18.912 12.209,18.948 12.398,19.183 12.673 C 19.656 13.225,20.500 13.120,20.817 12.469 C 21.088 11.912,21.048 10.130,20.735 8.860 C 20.507 7.933,20.015 6.798,19.521 6.059 C 18.072 3.890,15.805 2.458,13.255 2.099 C 12.841 2.040,11.764 1.996,11.440 2.024 M11.358 7.061 C 10.230 7.237,9.143 7.974,8.569 8.953 C 7.320 11.083,8.233 13.785,10.512 14.704 C 12.558 15.528,14.877 14.538,15.704 12.488 C 16.090 11.530,16.090 10.469,15.705 9.516 C 15.172 8.197,14.001 7.269,12.605 7.058 C 12.144 6.989,11.816 6.990,11.358 7.061 M12.523 9.073 C 13.262 9.266,13.850 9.924,13.967 10.690 C 14.067 11.343,13.873 11.933,13.403 12.404 C 13.002 12.807,12.547 13.000,12.000 13.000 C 11.485 13.000,11.038 12.822,10.653 12.465 C 9.323 11.229,10.189 9.005,12.000 9.005 C 12.143 9.005,12.378 9.036,12.523 9.073 M18.580 15.096 C 18.424 15.171,18.029 15.545,16.774 16.806 C 15.891 17.694,15.135 18.483,15.095 18.560 C 15.043 18.659,15.021 18.788,15.021 19.000 C 15.020 19.258,15.036 19.327,15.133 19.492 C 15.263 19.714,15.502 19.901,15.736 19.965 C 15.939 20.019,16.267 19.989,16.445 19.899 C 16.519 19.861,16.899 19.514,17.289 19.128 L 17.997 18.426 18.009 20.366 L 18.020 22.306 18.141 22.503 C 18.543 23.156,19.457 23.156,19.859 22.503 L 19.980 22.306 19.991 20.366 L 20.003 18.426 20.711 19.128 C 21.101 19.514,21.483 19.864,21.560 19.904 C 21.660 19.957,21.787 19.979,22.000 19.979 C 22.258 19.980,22.327 19.964,22.492 19.867 C 22.714 19.737,22.901 19.498,22.965 19.264 C 23.019 19.061,22.989 18.733,22.899 18.555 C 22.862 18.481,22.109 17.694,21.226 16.806 C 19.472 15.043,19.420 15.001,19.000 15.001 C 18.851 15.001,18.716 15.031,18.580 15.096 " stroke="none" fill-rule="evenodd" fill="black"></path></svg>