<svg xmlns="http://www.w3.org/2000/svg" width="24" height="24" viewBox="0 0 24 24" fill="none" stroke="currentColor" stroke-width="2" stroke-linecap="round" stroke-linejoin="round"><path d="M11.440 2.024 C 10.657 2.091,10.033 2.203,9.430 2.383 C 7.424 2.983,5.678 4.275,4.514 6.021 C 3.477 7.575,2.940 9.460,3.012 11.300 C 3.088 13.260,3.717 14.982,4.941 16.580 C 5.226 16.953,9.374 21.158,9.999 21.708 C 11.174 22.743,12.827 22.743,14.001 21.708 C 14.514 21.257,15.820 19.918,15.899 19.764 C 16.006 19.554,16.025 19.197,15.941 18.976 C 15.789 18.580,15.417 18.320,15.000 18.321 C 14.615 18.322,14.504 18.402,13.500 19.400 C 12.496 20.399,12.385 20.478,11.998 20.479 C 11.577 20.481,11.581 20.484,9.056 17.951 C 7.778 16.669,6.629 15.488,6.503 15.327 C 4.644 12.964,4.514 9.607,6.184 7.120 C 7.602 5.007,10.031 3.827,12.531 4.035 C 14.738 4.220,16.593 5.303,17.807 7.117 C 18.679 8.419,19.093 9.985,18.969 11.511 C 18.919 12.125,18.945 12.330,19.100 12.567 C 19.315 12.894,19.750 13.076,20.124 12.995 C 20.417 12.932,20.679 12.735,20.810 12.476 C 21.090 11.925,21.053 10.152,20.735 8.860 C 20.507 7.933,20.015 6.798,19.521 6.059 C 18.072 3.890,15.805 2.458,13.255 2.099 C 12.841 2.040,11.764 1.996,11.440 2.024 M11.358 7.061 C 10.230 7.237,9.143 7.974,8.569 8.953 C 7.320 11.083,8.233 13.785,10.512 14.704 C 12.558 15.528,14.877 14.538,15.704 12.488 C 16.090 11.530,16.090 10.469,15.705 9.516 C 15.172 8.197,14.001 7.269,12.605 7.058 C 12.144 6.989,11.816 6.990,11.358 7.061 M12.523 9.073 C 13.262 9.266,13.850 9.924,13.967 10.690 C 14.067 11.343,13.873 11.933,13.403 12.404 C 13.002 12.807,12.547 13.000,12.000 13.000 C 11.485 13.000,11.038 12.822,10.653 12.465 C 9.323 11.229,10.189 9.005,12.000 9.005 C 12.143 9.005,12.378 9.036,12.523 9.073 M18.695 15.057 C 18.466 15.129,18.256 15.299,18.128 15.516 L 18.020 15.700 18.020 17.503 L 18.020 19.306 18.141 19.503 C 18.543 20.156,19.457 20.156,19.859 19.503 L 19.980 19.306 19.980 17.503 L 19.980 15.700 19.872 15.516 C 19.628 15.101,19.150 14.915,18.695 15.057 M18.695 21.057 C 18.466 21.129,18.256 21.299,18.128 21.516 C 18.036 21.672,18.020 21.745,18.021 22.000 C 18.022 22.332,18.101 22.533,18.306 22.728 C 18.785 23.181,19.580 23.046,19.893 22.460 C 20.025 22.211,20.015 21.760,19.872 21.516 C 19.628 21.101,19.150 20.915,18.695 21.057 " stroke="none" fill-rule="evenodd" fill="black"></path></svg>