<svg xmlns="http://www.w3.org/2000/svg" width="24" height="24" viewBox="0 0 24 24" fill="none" stroke="currentColor" stroke-width="2" stroke-linecap="round" stroke-linejoin="round"><path d="M4.499 4.043 C 3.380 4.232,2.461 5.048,2.114 6.160 L 2.020 6.460 2.020 12.000 L 2.020 17.540 2.114 17.840 C 2.422 18.827,3.173 19.578,4.160 19.886 L 4.460 19.980 12.000 19.980 L 19.540 19.980 19.840 19.886 C 20.827 19.578,21.578 18.827,21.886 17.840 L 21.980 17.540 21.980 12.000 L 21.980 6.460 21.886 6.160 C 21.581 5.182,20.832 4.428,19.861 4.121 L 19.540 4.020 12.120 4.014 C 8.039 4.011,4.609 4.024,4.499 4.043 M19.310 6.061 C 19.589 6.144,19.856 6.411,19.939 6.690 C 19.992 6.868,20.000 7.546,20.000 12.001 C 20.000 16.212,19.990 17.139,19.945 17.290 C 19.872 17.533,19.707 17.740,19.484 17.872 L 19.300 17.980 12.000 17.980 L 4.700 17.980 4.516 17.872 C 4.303 17.747,4.141 17.550,4.058 17.316 C 3.969 17.061,3.971 6.993,4.061 6.690 C 4.140 6.421,4.412 6.143,4.673 6.063 C 4.964 5.974,19.009 5.971,19.310 6.061 M6.695 8.055 C 6.464 8.130,6.255 8.300,6.128 8.516 L 6.020 8.700 6.020 12.003 L 6.020 15.306 6.141 15.503 C 6.543 16.156,7.457 16.156,7.859 15.503 L 7.980 15.306 7.991 13.369 L 8.003 11.431 8.214 11.631 C 8.525 11.924,8.646 11.978,9.000 11.978 C 9.354 11.978,9.475 11.924,9.786 11.631 L 9.997 11.431 10.009 13.369 L 10.020 15.306 10.141 15.503 C 10.543 16.156,11.457 16.156,11.859 15.503 L 11.980 15.306 11.991 12.086 C 12.003 8.446,12.017 8.623,11.698 8.304 C 11.411 8.017,11.048 7.934,10.657 8.067 C 10.491 8.123,10.345 8.247,9.730 8.854 L 8.999 9.574 8.290 8.875 C 7.888 8.479,7.514 8.144,7.427 8.104 C 7.224 8.010,6.898 7.988,6.695 8.055 M15.695 8.057 C 15.466 8.129,15.256 8.299,15.128 8.516 L 15.020 8.700 15.009 10.632 L 14.997 12.564 14.754 12.344 C 14.395 12.019,14.054 11.928,13.684 12.058 C 13.450 12.141,13.253 12.303,13.128 12.516 C 13.037 12.672,13.020 12.746,13.020 13.000 C 13.020 13.254,13.036 13.328,13.127 13.480 C 13.260 13.703,15.367 15.803,15.560 15.905 C 15.754 16.007,16.246 16.007,16.440 15.905 C 16.633 15.803,18.740 13.703,18.873 13.480 C 18.964 13.328,18.980 13.254,18.980 13.000 C 18.980 12.746,18.963 12.672,18.872 12.516 C 18.747 12.303,18.550 12.141,18.316 12.058 C 17.946 11.928,17.605 12.019,17.246 12.344 L 17.003 12.564 16.991 10.632 L 16.980 8.700 16.872 8.516 C 16.628 8.101,16.150 7.915,15.695 8.057 " stroke="none" fill-rule="evenodd" fill="black"></path></svg>