<svg xmlns="http://www.w3.org/2000/svg" width="24" height="24" viewBox="0 0 24 24" fill="none" stroke="currentColor" stroke-width="2" stroke-linecap="round" stroke-linejoin="round"><path d="M5.499 3.043 C 4.382 3.230,3.454 4.054,3.115 5.160 C 3.045 5.390,3.023 5.559,3.022 5.883 C 3.020 6.285,3.026 6.315,3.141 6.503 C 3.537 7.147,4.457 7.156,4.849 6.520 C 4.927 6.392,4.971 6.249,4.999 6.031 C 5.048 5.645,5.111 5.491,5.301 5.301 C 5.491 5.112,5.645 5.048,6.028 4.999 C 6.392 4.953,6.631 4.827,6.802 4.591 C 7.207 4.032,6.947 3.253,6.290 3.055 C 6.090 2.995,5.811 2.991,5.499 3.043 M8.695 3.056 C 8.465 3.130,8.255 3.300,8.128 3.516 C 8.037 3.672,8.020 3.746,8.020 4.000 C 8.020 4.256,8.036 4.328,8.131 4.489 C 8.192 4.592,8.304 4.725,8.381 4.783 C 8.637 4.979,8.749 4.996,9.760 4.998 C 10.667 4.999,10.707 4.996,10.900 4.905 C 11.281 4.724,11.488 4.405,11.488 4.000 C 11.488 3.615,11.293 3.297,10.940 3.106 C 10.790 3.025,10.719 3.019,9.820 3.011 C 9.112 3.005,8.817 3.017,8.695 3.056 M13.240 3.037 C 12.794 3.173,12.512 3.546,12.512 4.000 C 12.512 4.405,12.719 4.724,13.100 4.905 C 13.293 4.996,13.333 4.999,14.240 4.998 C 15.251 4.996,15.363 4.979,15.619 4.783 C 15.696 4.725,15.808 4.592,15.869 4.489 C 15.964 4.328,15.980 4.256,15.980 4.000 C 15.980 3.746,15.963 3.672,15.872 3.516 C 15.740 3.293,15.533 3.128,15.290 3.055 C 15.090 2.995,13.427 2.981,13.240 3.037 M17.695 3.054 C 17.048 3.267,16.799 4.040,17.198 4.591 C 17.369 4.827,17.608 4.953,17.972 4.999 C 18.355 5.048,18.509 5.112,18.699 5.301 C 18.889 5.491,18.952 5.645,19.001 6.031 C 19.049 6.410,19.184 6.647,19.452 6.828 C 19.923 7.144,20.554 6.998,20.859 6.503 C 20.974 6.315,20.980 6.285,20.978 5.883 C 20.977 5.559,20.955 5.390,20.885 5.160 C 20.586 4.184,19.809 3.404,18.863 3.130 C 18.463 3.015,17.922 2.979,17.695 3.054 M3.695 8.057 C 3.466 8.129,3.256 8.299,3.128 8.516 L 3.020 8.700 3.007 9.677 C 2.993 10.779,3.011 10.879,3.276 11.173 C 3.464 11.382,3.708 11.488,4.000 11.488 C 4.292 11.488,4.536 11.382,4.724 11.173 C 4.989 10.879,5.007 10.779,4.993 9.677 L 4.980 8.700 4.872 8.516 C 4.628 8.101,4.150 7.915,3.695 8.057 M19.695 8.057 C 19.466 8.129,19.256 8.299,19.128 8.516 L 19.020 8.700 19.007 9.677 C 18.993 10.779,19.011 10.879,19.276 11.173 C 19.464 11.382,19.708 11.488,20.000 11.488 C 20.292 11.488,20.536 11.382,20.724 11.173 C 20.989 10.879,21.007 10.779,20.993 9.677 L 20.980 8.700 20.872 8.516 C 20.628 8.101,20.150 7.915,19.695 8.057 M3.580 12.595 C 3.376 12.687,3.151 12.937,3.063 13.167 C 3.004 13.321,2.996 13.477,3.007 14.326 L 3.020 15.307 3.141 15.503 C 3.543 16.156,4.457 16.156,4.859 15.503 L 4.980 15.307 4.993 14.326 C 5.007 13.220,4.989 13.121,4.724 12.828 C 4.528 12.609,4.320 12.522,4.000 12.522 C 3.834 12.522,3.682 12.548,3.580 12.595 M19.580 12.595 C 19.376 12.687,19.151 12.937,19.063 13.167 C 19.004 13.321,18.996 13.477,19.007 14.326 L 19.020 15.307 19.141 15.503 C 19.543 16.156,20.457 16.156,20.859 15.503 L 20.980 15.307 20.993 14.326 C 21.007 13.220,20.989 13.121,20.724 12.828 C 20.528 12.609,20.320 12.522,20.000 12.522 C 19.834 12.522,19.682 12.548,19.580 12.595 M3.695 17.057 C 3.466 17.129,3.256 17.299,3.128 17.516 C 3.029 17.685,3.020 17.734,3.022 18.120 C 3.023 18.440,3.045 18.611,3.115 18.840 C 3.413 19.812,4.179 20.584,5.137 20.877 C 5.481 20.982,6.040 21.026,6.264 20.965 C 6.498 20.901,6.737 20.714,6.867 20.492 C 6.964 20.327,6.980 20.257,6.980 20.000 C 6.980 19.746,6.963 19.672,6.872 19.516 C 6.758 19.323,6.561 19.149,6.375 19.078 C 6.314 19.055,6.130 19.019,5.966 18.998 C 5.623 18.955,5.387 18.835,5.226 18.625 C 5.081 18.434,5.037 18.309,4.997 17.966 C 4.942 17.488,4.701 17.179,4.290 17.055 C 4.068 16.988,3.913 16.989,3.695 17.057 M19.695 17.057 C 19.298 17.181,19.062 17.491,19.002 17.966 C 18.957 18.320,18.916 18.438,18.774 18.625 C 18.613 18.835,18.377 18.955,18.034 18.998 C 17.870 19.019,17.686 19.055,17.625 19.078 C 17.439 19.149,17.242 19.323,17.128 19.516 C 17.037 19.672,17.020 19.746,17.020 20.000 C 17.020 20.257,17.036 20.327,17.133 20.492 C 17.263 20.714,17.502 20.901,17.736 20.965 C 17.960 21.026,18.519 20.982,18.863 20.877 C 19.821 20.584,20.587 19.812,20.885 18.840 C 20.955 18.611,20.977 18.440,20.978 18.120 C 20.980 17.734,20.971 17.685,20.872 17.516 C 20.628 17.101,20.150 16.915,19.695 17.057 M8.695 19.056 C 8.465 19.130,8.255 19.300,8.128 19.516 C 8.037 19.672,8.020 19.746,8.020 20.000 C 8.020 20.256,8.036 20.328,8.131 20.489 C 8.192 20.592,8.304 20.725,8.381 20.783 C 8.637 20.979,8.749 20.996,9.760 20.998 C 10.667 20.999,10.707 20.996,10.900 20.905 C 11.281 20.724,11.488 20.405,11.488 20.000 C 11.488 19.615,11.293 19.297,10.940 19.106 C 10.790 19.025,10.719 19.019,9.820 19.011 C 9.112 19.005,8.817 19.017,8.695 19.056 M13.240 19.037 C 12.794 19.173,12.512 19.546,12.512 20.000 C 12.512 20.405,12.719 20.724,13.100 20.905 C 13.293 20.996,13.333 20.999,14.240 20.998 C 15.251 20.996,15.363 20.979,15.619 20.783 C 15.696 20.725,15.808 20.592,15.869 20.489 C 15.964 20.328,15.980 20.256,15.980 20.000 C 15.980 19.746,15.963 19.672,15.872 19.516 C 15.740 19.293,15.533 19.128,15.290 19.055 C 15.090 18.995,13.427 18.981,13.240 19.037 " stroke="none" fill-rule="evenodd" fill="black"></path></svg>