<svg xmlns="http://www.w3.org/2000/svg" width="24" height="24" viewBox="0 0 24 24" fill="none" stroke="currentColor" stroke-width="2" stroke-linecap="round" stroke-linejoin="round"><path d="M4.477 3.073 C 3.784 3.254,3.184 3.886,3.038 4.589 C 3.012 4.717,2.999 5.104,3.007 5.555 L 3.020 6.307 3.141 6.503 C 3.543 7.156,4.457 7.156,4.859 6.503 C 4.979 6.308,4.980 6.300,4.993 5.653 L 5.007 5.000 5.593 4.998 C 5.978 4.997,6.232 4.978,6.330 4.943 C 6.551 4.864,6.744 4.702,6.869 4.489 C 6.964 4.328,6.980 4.256,6.980 4.000 C 6.980 3.746,6.963 3.672,6.872 3.516 C 6.740 3.293,6.533 3.128,6.290 3.055 C 6.013 2.972,4.819 2.984,4.477 3.073 M10.695 3.057 C 10.466 3.129,10.256 3.299,10.128 3.516 C 10.037 3.672,10.020 3.746,10.020 4.000 C 10.020 4.256,10.036 4.328,10.131 4.489 C 10.256 4.702,10.449 4.864,10.670 4.943 C 10.885 5.020,13.115 5.020,13.330 4.943 C 13.551 4.864,13.744 4.702,13.869 4.489 C 13.964 4.328,13.980 4.256,13.980 4.000 C 13.980 3.746,13.963 3.672,13.872 3.516 C 13.740 3.293,13.533 3.128,13.290 3.055 C 13.039 2.979,10.937 2.981,10.695 3.057 M17.695 3.057 C 17.466 3.129,17.256 3.299,17.128 3.516 C 17.037 3.672,17.020 3.746,17.020 4.000 C 17.020 4.256,17.036 4.328,17.131 4.489 C 17.256 4.702,17.449 4.864,17.670 4.943 C 17.768 4.978,18.022 4.997,18.407 4.998 L 18.993 5.000 19.007 5.653 C 19.020 6.300,19.021 6.308,19.141 6.503 C 19.543 7.156,20.457 7.156,20.859 6.503 L 20.980 6.307 20.993 5.562 C 21.012 4.491,20.914 4.136,20.465 3.653 C 20.198 3.366,19.870 3.164,19.523 3.073 C 19.191 2.987,17.955 2.976,17.695 3.057 M3.695 10.057 C 3.466 10.129,3.256 10.299,3.128 10.516 L 3.020 10.700 3.020 12.003 L 3.020 13.306 3.141 13.503 C 3.543 14.156,4.457 14.156,4.859 13.503 L 4.980 13.306 4.980 12.003 L 4.980 10.700 4.872 10.516 C 4.628 10.101,4.150 9.915,3.695 10.057 M19.695 10.057 C 19.466 10.129,19.256 10.299,19.128 10.516 L 19.020 10.700 19.020 12.003 L 19.020 13.306 19.141 13.503 C 19.543 14.156,20.457 14.156,20.859 13.503 L 20.980 13.306 20.980 12.003 L 20.980 10.700 20.872 10.516 C 20.628 10.101,20.150 9.915,19.695 10.057 M3.695 17.057 C 3.466 17.129,3.256 17.299,3.128 17.516 C 3.023 17.695,3.020 17.719,3.007 18.449 C 2.999 18.896,3.012 19.283,3.038 19.411 C 3.114 19.779,3.297 20.106,3.591 20.399 C 3.882 20.690,4.146 20.846,4.508 20.940 C 4.812 21.020,6.110 21.021,6.330 20.943 C 6.551 20.864,6.744 20.702,6.869 20.489 C 6.964 20.328,6.980 20.256,6.980 20.000 C 6.980 19.746,6.963 19.672,6.872 19.516 C 6.634 19.111,6.352 19.000,5.557 19.000 L 5.007 19.000 4.993 18.350 C 4.981 17.728,4.975 17.692,4.872 17.516 C 4.628 17.101,4.150 16.915,3.695 17.057 M19.695 17.057 C 19.466 17.129,19.256 17.299,19.128 17.516 C 19.025 17.692,19.019 17.728,19.007 18.350 L 18.993 19.000 18.443 19.000 C 17.648 19.000,17.366 19.111,17.128 19.516 C 17.037 19.672,17.020 19.746,17.020 20.000 C 17.020 20.256,17.036 20.328,17.131 20.489 C 17.256 20.702,17.449 20.864,17.670 20.943 C 17.890 21.021,19.188 21.020,19.492 20.940 C 19.852 20.847,20.118 20.690,20.404 20.404 C 20.907 19.901,21.012 19.557,20.993 18.463 C 20.980 17.717,20.978 17.696,20.872 17.516 C 20.628 17.101,20.150 16.915,19.695 17.057 M10.695 19.057 C 10.466 19.129,10.256 19.299,10.128 19.516 C 10.037 19.672,10.020 19.746,10.020 20.000 C 10.020 20.256,10.036 20.328,10.131 20.489 C 10.256 20.702,10.449 20.864,10.670 20.943 C 10.885 21.020,13.115 21.020,13.330 20.943 C 13.551 20.864,13.744 20.702,13.869 20.489 C 13.964 20.328,13.980 20.256,13.980 20.000 C 13.980 19.746,13.963 19.672,13.872 19.516 C 13.740 19.293,13.533 19.128,13.290 19.055 C 13.039 18.979,10.937 18.981,10.695 19.057 " stroke="none" fill-rule="evenodd" fill="black"></path></svg>