<svg xmlns="http://www.w3.org/2000/svg" width="24" height="24" viewBox="0 0 24 24" fill="none" stroke="currentColor" stroke-width="2" stroke-linecap="round" stroke-linejoin="round"><path d="M2.670 2.061 C 2.448 2.142,2.250 2.309,2.128 2.516 C 2.036 2.672,2.020 2.746,2.020 3.003 C 2.020 3.271,2.034 3.328,2.140 3.496 L 2.260 3.686 2.020 3.939 C 1.493 4.494,1.202 5.216,1.201 5.971 C 1.200 6.143,1.335 7.746,1.500 9.535 C 1.737 12.114,1.819 12.865,1.895 13.163 C 2.152 14.173,2.570 14.892,3.320 15.616 C 4.065 16.334,4.948 16.767,6.019 16.941 C 6.457 17.012,8.524 17.024,8.836 16.957 C 9.226 16.873,9.566 16.510,9.620 16.120 C 9.674 15.726,9.456 15.296,9.106 15.109 C 8.946 15.023,8.886 15.019,7.560 14.997 C 6.268 14.976,6.162 14.968,5.900 14.883 C 4.742 14.507,3.938 13.563,3.784 12.400 C 3.737 12.047,3.200 6.106,3.200 5.942 C 3.200 5.729,3.362 5.402,3.549 5.238 L 3.692 5.112 4.662 6.082 L 5.632 7.051 5.446 7.179 C 4.833 7.601,4.866 8.490,5.508 8.867 C 5.673 8.964,5.742 8.980,6.000 8.979 C 6.228 8.978,6.338 8.958,6.460 8.893 C 6.639 8.797,6.803 8.635,6.886 8.471 L 6.942 8.361 8.589 10.011 L 10.236 11.660 10.518 14.724 C 10.740 17.142,10.820 17.867,10.895 18.164 C 11.152 19.173,11.570 19.892,12.320 20.616 C 13.073 21.342,13.956 21.772,15.049 21.945 C 15.360 21.994,15.689 22.003,16.689 21.989 C 17.774 21.974,17.988 21.960,18.300 21.888 C 18.779 21.777,19.061 21.676,19.493 21.460 L 19.854 21.280 20.137 21.554 C 20.519 21.924,20.629 21.978,21.000 21.979 C 21.258 21.980,21.327 21.964,21.492 21.867 C 21.968 21.587,22.139 20.967,21.865 20.508 C 21.810 20.416,17.665 16.243,12.653 11.235 C 4.231 2.820,3.525 2.125,3.343 2.065 C 3.107 1.987,2.874 1.986,2.670 2.061 M7.695 3.056 C 7.465 3.130,7.255 3.300,7.128 3.516 C 7.037 3.672,7.020 3.746,7.020 4.000 C 7.020 4.256,7.036 4.328,7.131 4.489 C 7.192 4.592,7.304 4.725,7.381 4.783 C 7.653 4.991,7.701 4.996,9.400 5.000 C 11.099 5.004,11.147 5.009,11.419 5.217 C 11.636 5.382,11.764 5.637,11.803 5.981 C 11.843 6.339,11.917 6.507,12.127 6.717 C 12.600 7.190,13.419 7.037,13.705 6.422 C 13.776 6.269,13.799 6.150,13.800 5.933 C 13.801 5.038,13.368 4.188,12.622 3.623 C 12.295 3.374,12.051 3.246,11.660 3.117 C 11.387 3.026,11.337 3.024,9.620 3.013 C 8.241 3.005,7.824 3.014,7.695 3.056 M12.695 8.056 C 12.051 8.261,11.799 9.040,12.198 9.591 C 12.263 9.681,12.403 9.805,12.508 9.867 L 12.700 9.980 16.403 10.000 L 20.106 10.020 20.303 10.141 C 20.542 10.288,20.746 10.578,20.782 10.821 C 20.799 10.934,20.703 12.159,20.522 14.130 C 20.363 15.867,20.246 17.321,20.261 17.398 C 20.322 17.725,20.605 18.061,20.905 18.163 C 21.122 18.237,21.472 18.227,21.640 18.142 C 21.867 18.027,22.113 17.763,22.179 17.562 C 22.277 17.266,22.811 11.360,22.787 10.840 C 22.736 9.735,22.107 8.789,21.100 8.302 C 20.492 8.007,20.761 8.024,16.600 8.014 C 13.605 8.006,12.827 8.014,12.695 8.056 M7.154 10.525 C 6.986 10.538,6.716 10.590,6.554 10.638 C 6.157 10.758,5.505 11.103,5.300 11.302 C 5.119 11.478,5.000 11.755,5.000 12.000 C 5.000 12.406,5.293 12.811,5.678 12.939 C 5.998 13.046,6.212 13.008,6.696 12.760 C 7.059 12.574,7.145 12.546,7.408 12.530 C 7.615 12.516,7.775 12.530,7.929 12.575 C 8.227 12.662,8.434 12.657,8.667 12.557 C 8.919 12.450,9.068 12.306,9.185 12.060 C 9.416 11.570,9.213 10.995,8.716 10.738 C 8.556 10.655,7.986 10.529,7.700 10.513 C 7.568 10.505,7.322 10.511,7.154 10.525 M17.695 12.055 C 17.464 12.130,17.255 12.300,17.128 12.516 C 17.037 12.672,17.020 12.746,17.020 13.000 C 17.020 13.257,17.036 13.327,17.133 13.492 C 17.651 14.374,18.998 14.018,18.998 13.000 C 18.998 12.623,18.792 12.281,18.463 12.112 C 18.265 12.010,17.911 11.984,17.695 12.055 M14.251 15.848 C 13.999 16.117,13.934 16.558,14.095 16.900 C 14.209 17.139,14.376 17.301,14.700 17.487 C 15.222 17.785,15.730 17.948,16.266 17.987 L 16.592 18.011 17.483 18.903 L 18.373 19.794 18.077 19.887 C 17.792 19.976,17.729 19.980,16.500 19.980 C 15.270 19.980,15.208 19.976,14.920 19.886 C 14.089 19.627,13.444 19.083,13.058 18.317 C 12.820 17.843,12.805 17.745,12.565 15.088 L 12.456 13.876 13.396 14.817 L 14.337 15.757 14.251 15.848 " stroke="none" fill-rule="evenodd" fill="black"></path></svg>