<svg xmlns="http://www.w3.org/2000/svg" width="24" height="24" viewBox="0 0 24 24" fill="none" stroke="currentColor" stroke-width="2" stroke-linecap="round" stroke-linejoin="round"><path d="M16.659 2.061 C 16.265 2.207,16.340 2.077,14.374 6.035 C 13.373 8.051,12.484 9.862,12.399 10.060 C 11.939 11.131,11.877 12.329,12.225 13.452 C 12.285 13.643,12.326 13.807,12.317 13.816 C 12.308 13.825,10.086 15.256,7.380 16.995 C 4.674 18.734,2.386 20.226,2.296 20.311 C 1.983 20.605,1.915 21.119,2.138 21.501 C 2.374 21.904,2.893 22.099,3.320 21.946 C 3.397 21.919,5.678 20.470,8.389 18.727 C 11.100 16.984,13.346 15.548,13.379 15.535 C 13.417 15.520,13.520 15.585,13.652 15.706 C 14.611 16.581,15.876 17.040,17.180 16.986 C 18.462 16.933,19.510 16.494,20.422 15.631 C 21.186 14.908,21.677 14.033,21.904 12.994 C 22.001 12.547,22.021 11.697,21.945 11.240 C 21.819 10.476,21.729 10.274,19.759 6.300 C 18.723 4.210,17.825 2.437,17.763 2.360 C 17.530 2.069,17.015 1.929,16.659 2.061 M18.408 8.091 C 19.172 9.636,19.826 10.990,19.861 11.100 C 20.118 11.892,19.973 12.928,19.509 13.626 C 18.896 14.548,17.903 15.055,16.841 14.986 C 16.433 14.960,16.266 14.925,15.920 14.790 C 15.668 14.693,15.232 14.439,15.213 14.380 C 15.207 14.358,15.313 14.270,15.450 14.184 C 15.588 14.098,15.784 13.975,15.887 13.910 L 16.074 13.792 16.307 13.880 C 16.450 13.935,16.671 13.977,16.880 13.989 C 17.490 14.026,17.964 13.844,18.404 13.404 C 18.920 12.889,19.106 12.236,18.940 11.529 C 18.858 11.182,18.720 10.927,18.465 10.653 C 17.659 9.786,16.341 9.786,15.535 10.653 C 15.200 11.014,15.000 11.486,15.000 11.918 L 14.999 12.100 14.550 12.388 C 14.028 12.721,14.051 12.730,14.013 12.180 C 13.987 11.818,14.044 11.380,14.161 11.046 C 14.244 10.808,16.965 5.284,17.000 5.283 C 17.011 5.283,17.645 6.547,18.408 8.091 " stroke="none" fill-rule="evenodd" fill="black"></path></svg>