<svg xmlns="http://www.w3.org/2000/svg" width="24" height="24" viewBox="0 0 24 24" fill="none" stroke="currentColor" stroke-width="2" stroke-linecap="round" stroke-linejoin="round"><path d="M4.695 11.057 C 4.466 11.129,4.256 11.299,4.128 11.516 C 4.037 11.672,4.020 11.746,4.020 12.000 C 4.020 12.256,4.036 12.328,4.131 12.489 C 4.256 12.702,4.449 12.864,4.670 12.943 C 4.793 12.987,6.009 12.997,11.408 12.998 L 17.997 13.000 18.008 14.653 L 18.020 16.306 18.141 16.503 C 18.543 17.156,19.457 17.156,19.859 16.503 L 19.980 16.306 19.980 14.003 L 19.980 11.700 19.872 11.516 C 19.740 11.293,19.533 11.128,19.290 11.055 C 19.027 10.976,4.947 10.978,4.695 11.057 " stroke="none" fill-rule="evenodd" fill="black"></path></svg>