<svg xmlns="http://www.w3.org/2000/svg" width="24" height="24" viewBox="0 0 24 24" fill="none" stroke="currentColor" stroke-width="2" stroke-linecap="round" stroke-linejoin="round"><path d="M11.640 2.069 C 11.492 2.121,11.265 2.325,10.347 3.236 C 9.734 3.843,9.185 4.421,9.127 4.520 C 9.037 4.672,9.020 4.747,9.020 5.000 C 9.020 5.257,9.036 5.327,9.133 5.492 C 9.338 5.842,9.705 6.029,10.105 5.988 C 10.368 5.961,10.523 5.879,10.786 5.631 L 10.997 5.431 11.009 7.369 L 11.020 9.306 11.141 9.503 C 11.543 10.156,12.457 10.156,12.859 9.503 L 12.980 9.306 12.991 6.086 C 13.003 2.446,13.017 2.623,12.698 2.304 C 12.412 2.018,12.030 1.933,11.640 2.069 M4.695 11.057 C 4.466 11.129,4.256 11.299,4.128 11.516 C 4.037 11.672,4.020 11.746,4.020 12.000 C 4.020 12.256,4.036 12.328,4.131 12.489 C 4.256 12.702,4.449 12.864,4.670 12.943 C 4.893 13.022,19.107 13.022,19.330 12.943 C 19.551 12.864,19.744 12.702,19.869 12.489 C 19.964 12.328,19.980 12.256,19.980 12.000 C 19.980 11.746,19.963 11.672,19.872 11.516 C 19.740 11.293,19.533 11.128,19.290 11.055 C 19.027 10.976,4.947 10.978,4.695 11.057 M10.174 14.042 C 9.573 14.161,9.060 14.752,9.010 15.384 C 8.932 16.352,10.089 16.878,10.730 16.166 L 10.880 16.000 11.750 16.000 C 12.542 16.000,12.631 16.007,12.748 16.078 C 12.991 16.226,13.065 16.513,12.922 16.747 C 12.790 16.964,12.730 16.978,11.860 17.001 C 10.956 17.024,10.866 17.049,10.589 17.355 C 10.221 17.762,10.261 18.356,10.680 18.733 C 10.786 18.827,10.943 18.926,11.031 18.952 C 11.127 18.981,11.466 19.000,11.897 19.000 C 12.684 19.000,12.783 19.024,12.922 19.252 C 13.068 19.492,12.977 19.807,12.724 19.938 C 12.626 19.988,12.442 20.000,11.742 20.000 L 10.880 20.000 10.730 19.834 C 10.528 19.610,10.322 19.522,10.000 19.522 C 9.680 19.522,9.472 19.609,9.276 19.828 C 9.067 20.060,8.984 20.303,9.010 20.616 C 9.051 21.137,9.409 21.642,9.896 21.867 L 10.140 21.980 11.580 21.980 L 13.020 21.980 13.320 21.869 C 14.041 21.604,14.606 21.039,14.867 20.320 C 14.965 20.051,14.976 19.966,14.976 19.500 C 14.976 19.035,14.965 18.949,14.868 18.684 C 14.809 18.521,14.705 18.301,14.636 18.194 L 14.512 18.000 14.636 17.806 C 14.705 17.699,14.809 17.479,14.868 17.316 C 14.965 17.051,14.976 16.965,14.976 16.500 C 14.976 16.035,14.965 15.948,14.868 15.680 C 14.646 15.068,14.195 14.561,13.620 14.277 C 13.115 14.027,12.915 14.001,11.540 14.005 C 10.880 14.007,10.265 14.024,10.174 14.042 " stroke="none" fill-rule="evenodd" fill="black"></path></svg>