<svg xmlns="http://www.w3.org/2000/svg" width="24" height="24" viewBox="0 0 24 24" fill="none" stroke="currentColor" stroke-width="2" stroke-linecap="round" stroke-linejoin="round"><path d="M10.480 2.060 C 10.070 2.153,9.738 2.343,9.396 2.680 C 8.607 3.460,8.232 4.586,7.720 7.720 C 7.607 8.413,7.439 9.430,7.346 9.980 L 7.178 10.980 5.959 11.001 C 5.122 11.015,4.705 11.037,4.627 11.071 C 4.429 11.157,4.239 11.327,4.128 11.516 C 4.037 11.672,4.020 11.746,4.020 12.000 C 4.020 12.256,4.036 12.328,4.131 12.489 C 4.192 12.592,4.304 12.725,4.381 12.783 C 4.639 12.980,4.745 12.996,5.813 12.998 C 6.739 13.000,6.804 13.005,6.784 13.070 C 6.772 13.108,6.654 13.806,6.521 14.620 C 6.389 15.434,6.234 16.370,6.178 16.700 C 5.858 18.564,5.533 19.614,5.185 19.907 C 5.079 19.996,5.038 20.006,4.867 19.986 C 4.529 19.946,4.201 19.692,4.076 19.373 C 4.051 19.311,4.016 19.128,3.997 18.966 C 3.956 18.614,3.833 18.381,3.595 18.205 C 3.117 17.854,2.432 17.998,2.129 18.514 C 2.029 18.686,2.020 18.733,2.022 19.120 C 2.023 19.440,2.045 19.611,2.115 19.840 C 2.416 20.821,3.175 21.581,4.160 21.886 C 4.595 22.020,5.343 22.020,5.731 21.887 C 6.621 21.579,7.244 20.751,7.657 19.324 C 7.883 18.545,7.998 17.955,8.417 15.440 L 8.820 13.020 10.060 13.000 L 11.300 12.980 11.492 12.867 C 12.248 12.423,12.123 11.306,11.290 11.055 C 11.157 11.015,10.846 11.000,10.153 11.000 L 9.198 11.000 9.219 10.910 C 9.263 10.709,9.372 10.065,9.601 8.640 C 10.038 5.914,10.293 4.854,10.639 4.308 C 10.818 4.026,10.920 3.975,11.191 4.032 C 11.314 4.058,11.481 4.125,11.564 4.183 C 11.846 4.378,11.953 4.609,12.021 5.169 C 12.052 5.421,12.248 5.706,12.497 5.859 C 12.671 5.966,12.729 5.980,12.997 5.980 C 13.257 5.980,13.327 5.964,13.492 5.867 C 13.714 5.737,13.901 5.498,13.965 5.264 C 14.026 5.040,13.982 4.481,13.877 4.137 C 13.585 3.184,12.801 2.403,11.861 2.129 C 11.447 2.008,10.841 1.978,10.480 2.060 M14.650 11.066 C 14.171 11.236,13.882 11.845,14.054 12.320 C 14.082 12.397,14.708 13.477,15.446 14.720 C 16.183 15.963,16.836 17.065,16.896 17.169 L 17.007 17.358 16.159 18.947 C 15.693 19.820,15.286 20.606,15.256 20.693 C 15.025 21.346,15.588 22.057,16.283 21.991 C 16.533 21.967,16.821 21.818,16.962 21.640 C 17.091 21.477,21.863 12.538,21.945 12.306 C 22.178 11.646,21.597 10.931,20.893 11.011 C 20.658 11.037,20.373 11.189,20.238 11.360 C 20.177 11.437,19.683 12.337,19.139 13.360 C 18.595 14.383,18.139 15.232,18.125 15.246 C 18.111 15.261,17.578 14.390,16.940 13.312 C 16.150 11.976,15.736 11.314,15.642 11.236 C 15.372 11.012,14.988 10.947,14.650 11.066 " stroke="none" fill-rule="evenodd" fill="black"></path></svg>