<svg xmlns="http://www.w3.org/2000/svg" width="24" height="24" viewBox="0 0 24 24" fill="none" stroke="currentColor" stroke-width="2" stroke-linecap="round" stroke-linejoin="round"><path d="M1.670 8.061 C 1.448 8.142,1.250 8.309,1.128 8.516 C 1.036 8.672,1.020 8.745,1.021 9.000 C 1.021 9.213,1.043 9.341,1.095 9.440 C 1.136 9.517,1.711 10.125,2.374 10.790 L 3.578 12.000 2.374 13.210 C 1.711 13.876,1.138 14.481,1.101 14.555 C 0.872 15.009,1.056 15.601,1.508 15.867 C 1.673 15.964,1.742 15.980,2.000 15.979 C 2.213 15.979,2.341 15.957,2.440 15.905 C 2.517 15.864,3.124 15.289,3.790 14.626 L 5.000 13.422 6.210 14.626 C 6.875 15.289,7.481 15.862,7.555 15.899 C 8.009 16.128,8.601 15.944,8.867 15.492 C 8.964 15.327,8.980 15.258,8.979 15.000 C 8.979 14.787,8.957 14.659,8.905 14.560 C 8.864 14.483,8.289 13.876,7.626 13.210 L 6.422 12.000 7.626 10.790 C 8.289 10.125,8.864 9.517,8.905 9.440 C 8.957 9.341,8.979 9.213,8.979 9.000 C 8.980 8.745,8.964 8.672,8.872 8.516 C 8.618 8.084,8.137 7.905,7.657 8.066 C 7.484 8.124,7.312 8.279,6.230 9.354 L 5.000 10.576 3.770 9.354 C 2.688 8.279,2.516 8.124,2.343 8.066 C 2.108 7.987,1.875 7.985,1.670 8.061 M15.670 8.061 C 15.448 8.142,15.250 8.309,15.128 8.516 C 15.036 8.672,15.020 8.745,15.021 9.000 C 15.021 9.213,15.043 9.341,15.095 9.440 C 15.136 9.517,15.711 10.125,16.374 10.790 L 17.578 12.000 16.374 13.210 C 15.711 13.876,15.138 14.481,15.101 14.555 C 14.872 15.009,15.056 15.601,15.508 15.867 C 15.673 15.964,15.742 15.980,16.000 15.979 C 16.213 15.979,16.341 15.957,16.440 15.905 C 16.517 15.864,17.125 15.289,17.790 14.626 L 19.000 13.422 20.210 14.626 C 20.876 15.289,21.481 15.862,21.555 15.899 C 22.009 16.128,22.601 15.944,22.867 15.492 C 22.964 15.327,22.980 15.258,22.979 15.000 C 22.979 14.787,22.957 14.659,22.905 14.560 C 22.864 14.483,22.289 13.876,21.626 13.210 L 20.422 12.000 21.626 10.790 C 22.289 10.125,22.864 9.517,22.905 9.440 C 22.957 9.341,22.979 9.213,22.979 9.000 C 22.980 8.745,22.964 8.672,22.872 8.516 C 22.618 8.084,22.137 7.905,21.657 8.066 C 21.484 8.124,21.312 8.279,20.230 9.354 L 19.000 10.576 17.770 9.354 C 16.688 8.279,16.516 8.124,16.343 8.066 C 16.108 7.987,15.875 7.985,15.670 8.061 M11.695 9.057 C 11.466 9.129,11.256 9.299,11.128 9.516 C 11.025 9.692,11.019 9.728,11.007 10.350 L 10.993 11.000 10.443 11.000 C 9.648 11.000,9.366 11.111,9.128 11.516 C 9.037 11.672,9.020 11.746,9.020 12.000 C 9.020 12.256,9.036 12.328,9.131 12.489 C 9.256 12.702,9.449 12.864,9.670 12.943 C 9.768 12.978,10.022 12.997,10.407 12.998 L 10.993 13.000 11.007 13.653 C 11.020 14.300,11.021 14.308,11.141 14.503 C 11.209 14.613,11.346 14.756,11.452 14.828 C 11.923 15.144,12.554 14.999,12.859 14.503 C 12.979 14.308,12.980 14.300,12.993 13.653 L 13.007 13.000 13.593 12.998 C 13.978 12.997,14.232 12.978,14.330 12.943 C 14.551 12.864,14.744 12.702,14.869 12.489 C 14.964 12.328,14.980 12.256,14.980 12.000 C 14.980 11.746,14.963 11.672,14.872 11.516 C 14.634 11.111,14.352 11.000,13.557 11.000 L 13.007 11.000 12.993 10.350 C 12.981 9.728,12.975 9.692,12.872 9.516 C 12.628 9.101,12.150 8.915,11.695 9.057 " stroke="none" fill-rule="evenodd" fill="black"></path></svg>