<svg xmlns="http://www.w3.org/2000/svg" width="24" height="24" viewBox="0 0 24 24" fill="none" stroke="currentColor" stroke-width="2" stroke-linecap="round" stroke-linejoin="round"><path d="M4.667 5.065 C 4.406 5.145,4.153 5.401,4.060 5.679 C 3.921 6.099,4.068 6.562,4.421 6.809 C 4.547 6.897,5.690 7.237,9.930 8.449 C 12.873 9.289,15.280 9.987,15.280 10.000 C 15.280 10.013,12.873 10.711,9.930 11.551 C 5.690 12.763,4.547 13.103,4.421 13.191 C 3.925 13.538,3.866 14.268,4.298 14.700 C 4.478 14.880,4.758 15.000,4.998 15.000 C 5.198 15.000,19.370 10.945,19.543 10.838 C 19.804 10.677,20.000 10.318,20.000 10.002 C 20.000 9.640,19.736 9.235,19.411 9.098 C 19.107 8.971,5.136 5.000,5.000 5.003 C 4.923 5.004,4.773 5.032,4.667 5.065 M11.700 15.043 C 6.025 16.666,4.548 17.102,4.421 17.191 C 3.925 17.538,3.866 18.268,4.298 18.700 C 4.478 18.880,4.758 19.000,4.998 19.000 C 5.198 19.000,19.370 14.945,19.543 14.838 C 19.804 14.677,20.000 14.318,20.000 14.002 C 20.000 13.462,19.514 12.993,18.965 13.003 C 18.885 13.004,15.616 13.922,11.700 15.043 " stroke="none" fill-rule="evenodd" fill="black"></path></svg>