<svg xmlns="http://www.w3.org/2000/svg" width="24" height="24" viewBox="0 0 24 24" fill="none" stroke="currentColor" stroke-width="2" stroke-linecap="round" stroke-linejoin="round"><path d="M2.670 2.061 C 2.448 2.142,2.250 2.309,2.128 2.516 C 2.036 2.672,2.020 2.745,2.021 3.000 C 2.021 3.212,2.043 3.341,2.095 3.440 C 2.135 3.517,3.382 4.796,4.865 6.281 L 7.562 8.983 7.369 9.981 L 7.177 10.980 5.958 11.001 C 5.122 11.015,4.705 11.037,4.627 11.071 C 4.429 11.157,4.239 11.327,4.128 11.516 C 4.037 11.672,4.020 11.746,4.020 12.000 C 4.020 12.256,4.036 12.328,4.131 12.489 C 4.192 12.592,4.304 12.725,4.381 12.783 C 4.638 12.980,4.747 12.996,5.790 12.998 C 6.650 13.000,6.760 13.007,6.760 13.064 C 6.760 13.154,6.221 15.935,6.057 16.693 C 5.736 18.172,5.424 19.198,5.146 19.686 L 4.979 19.980 4.676 19.976 C 4.334 19.971,4.163 19.907,4.091 19.756 C 4.064 19.699,4.025 19.434,4.005 19.167 C 3.975 18.757,3.953 18.656,3.865 18.505 C 3.568 17.999,2.879 17.857,2.405 18.205 C 2.041 18.473,1.942 18.858,2.039 19.626 C 2.189 20.824,2.727 21.528,3.721 21.832 C 4.086 21.944,4.707 22.015,5.094 21.990 C 6.137 21.922,6.831 21.159,7.399 19.453 C 7.735 18.446,7.963 17.457,8.493 14.720 L 8.822 13.020 10.061 13.000 C 10.911 12.986,11.326 12.965,11.383 12.932 C 11.459 12.889,11.571 12.991,12.763 14.184 L 14.060 15.483 13.920 15.600 C 13.677 15.802,13.313 15.963,13.014 16.001 C 12.682 16.043,12.560 16.086,12.375 16.226 C 11.666 16.768,12.031 17.917,12.935 17.990 C 13.572 18.041,14.396 17.731,15.164 17.152 L 15.488 16.908 17.954 19.370 C 19.310 20.724,20.483 21.865,20.560 21.905 C 20.659 21.957,20.788 21.979,21.000 21.979 C 21.258 21.980,21.327 21.964,21.492 21.867 C 21.968 21.587,22.139 20.967,21.865 20.508 C 21.810 20.416,17.665 16.243,12.653 11.235 C 4.231 2.820,3.525 2.125,3.343 2.065 C 3.107 1.987,2.874 1.986,2.670 2.061 M10.510 2.072 C 10.009 2.208,9.528 2.617,9.166 3.215 C 8.830 3.771,8.382 5.035,8.384 5.421 C 8.388 6.128,9.141 6.603,9.782 6.305 C 10.108 6.153,10.240 5.961,10.437 5.351 C 10.620 4.785,10.819 4.318,10.964 4.115 L 11.052 3.990 11.356 4.018 C 11.713 4.050,11.841 4.103,11.909 4.244 C 11.936 4.301,11.975 4.568,11.995 4.836 C 12.027 5.270,12.044 5.346,12.147 5.512 C 12.541 6.152,13.460 6.151,13.854 5.511 C 14.000 5.274,14.032 4.933,13.961 4.374 C 13.766 2.825,12.922 2.089,11.260 2.019 C 10.873 2.003,10.728 2.013,10.510 2.072 M13.695 9.055 C 13.464 9.130,13.255 9.300,13.128 9.516 C 13.037 9.672,13.020 9.746,13.020 10.000 C 13.020 10.256,13.036 10.328,13.131 10.489 C 13.256 10.702,13.449 10.864,13.670 10.943 C 13.768 10.978,14.022 10.997,14.405 10.998 L 14.989 11.000 15.078 11.210 C 15.128 11.325,15.302 11.789,15.466 12.240 C 15.815 13.200,15.906 13.370,16.143 13.514 C 16.239 13.572,16.328 13.650,16.341 13.686 C 16.390 13.831,16.713 14.076,16.944 14.143 C 17.141 14.200,17.206 14.203,17.395 14.160 C 17.732 14.085,17.892 13.953,18.241 13.463 C 18.751 12.749,19.066 12.368,19.537 11.898 C 20.190 11.247,20.526 11.057,21.169 10.979 C 21.421 10.948,21.706 10.752,21.859 10.503 C 21.966 10.329,21.980 10.271,21.980 10.003 C 21.980 9.745,21.964 9.672,21.871 9.514 C 21.654 9.146,21.261 8.965,20.787 9.018 C 19.709 9.136,18.682 9.777,17.644 10.980 L 17.288 11.392 17.199 11.146 C 16.755 9.912,16.358 9.377,15.693 9.117 C 15.483 9.035,15.381 9.024,14.660 9.013 C 14.070 9.004,13.817 9.015,13.695 9.055 M9.440 10.860 L 9.576 11.000 9.392 11.000 C 9.198 11.000,9.194 10.994,9.262 10.770 C 9.283 10.701,9.288 10.703,9.440 10.860 " stroke="none" fill-rule="evenodd" fill="black"></path></svg>