<svg xmlns="http://www.w3.org/2000/svg" width="24" height="24" viewBox="0 0 24 24" fill="none" stroke="currentColor" stroke-width="2" stroke-linecap="round" stroke-linejoin="round"><path d="M4.499 7.040 C 3.363 7.246,2.461 8.048,2.114 9.160 L 2.020 9.460 2.020 12.000 L 2.020 14.540 2.114 14.840 C 2.422 15.827,3.174 16.579,4.160 16.886 C 4.594 17.021,5.406 17.021,5.840 16.886 C 6.827 16.579,7.584 15.821,7.885 14.840 C 7.955 14.611,7.977 14.440,7.978 14.120 C 7.980 13.733,7.971 13.686,7.871 13.514 C 7.568 12.998,6.883 12.854,6.405 13.205 C 6.169 13.379,6.047 13.609,6.002 13.966 C 5.981 14.130,5.945 14.314,5.922 14.375 C 5.851 14.561,5.677 14.758,5.484 14.872 C 5.328 14.963,5.254 14.980,5.000 14.980 C 4.746 14.980,4.672 14.963,4.516 14.872 C 4.303 14.747,4.141 14.550,4.058 14.316 C 3.970 14.065,3.972 9.988,4.061 9.690 C 4.173 9.312,4.598 9.000,5.000 9.000 C 5.223 9.000,5.510 9.120,5.679 9.283 C 5.886 9.485,5.951 9.636,6.001 10.031 C 6.049 10.410,6.184 10.647,6.452 10.828 C 6.923 11.144,7.554 10.998,7.859 10.503 C 7.974 10.315,7.980 10.285,7.978 9.883 C 7.977 9.559,7.955 9.390,7.885 9.160 C 7.586 8.184,6.811 7.407,5.861 7.129 C 5.500 7.023,4.832 6.980,4.499 7.040 M9.695 7.057 C 9.466 7.129,9.256 7.299,9.128 7.516 C 9.037 7.672,9.020 7.746,9.020 8.000 C 9.020 8.256,9.036 8.328,9.131 8.489 C 9.256 8.702,9.449 8.864,9.670 8.943 C 9.768 8.978,10.023 8.997,10.409 8.998 L 10.998 9.000 11.009 12.653 L 11.020 16.306 11.141 16.503 C 11.543 17.156,12.457 17.156,12.859 16.503 L 12.980 16.306 12.991 12.653 L 13.002 9.000 13.591 8.998 C 13.977 8.997,14.232 8.978,14.330 8.943 C 14.551 8.864,14.744 8.702,14.869 8.489 C 14.964 8.328,14.980 8.256,14.980 8.000 C 14.980 7.746,14.963 7.672,14.872 7.516 C 14.740 7.293,14.533 7.128,14.290 7.055 C 14.033 6.978,9.943 6.979,9.695 7.057 M18.499 7.043 C 17.383 7.230,16.461 8.048,16.114 9.160 L 16.020 9.460 16.020 12.000 L 16.020 14.540 16.114 14.840 C 16.422 15.827,17.173 16.578,18.160 16.886 C 18.451 16.977,18.503 16.980,19.880 16.980 L 21.300 16.980 21.492 16.867 C 21.711 16.739,21.901 16.498,21.961 16.275 C 21.988 16.176,21.999 15.337,21.991 13.911 L 21.980 11.700 21.872 11.516 C 21.629 11.102,21.357 11.000,20.500 11.000 C 19.643 11.000,19.371 11.102,19.128 11.516 C 19.036 11.672,19.020 11.746,19.020 12.003 C 19.020 12.271,19.034 12.329,19.141 12.503 C 19.288 12.742,19.578 12.946,19.821 12.982 L 20.000 13.009 20.000 14.008 L 20.000 15.007 19.350 14.993 C 18.728 14.981,18.692 14.975,18.516 14.872 C 18.415 14.813,18.284 14.700,18.225 14.623 C 18.000 14.327,18.000 14.332,18.000 12.022 C 18.000 9.586,17.997 9.609,18.303 9.303 C 18.587 9.019,18.694 9.000,20.037 8.998 C 21.266 8.996,21.356 8.984,21.619 8.783 C 21.696 8.725,21.808 8.592,21.869 8.489 C 21.964 8.328,21.980 8.256,21.980 8.000 C 21.980 7.746,21.963 7.672,21.872 7.516 C 21.813 7.415,21.698 7.282,21.618 7.221 C 21.350 7.016,21.216 7.000,19.904 7.005 C 19.242 7.007,18.609 7.025,18.499 7.043 " stroke="none" fill-rule="evenodd" fill="black"></path></svg>