<svg xmlns="http://www.w3.org/2000/svg" width="24" height="24" viewBox="0 0 24 24" fill="none" stroke="currentColor" stroke-width="2" stroke-linecap="round" stroke-linejoin="round"><path d="M11.695 2.057 C 11.466 2.129,11.256 2.299,11.128 2.516 L 11.020 2.700 11.009 6.850 L 10.999 11.000 6.946 11.000 C 2.547 11.000,2.680 10.994,2.382 11.221 C 2.302 11.282,2.187 11.415,2.128 11.516 C 2.037 11.672,2.020 11.746,2.020 12.000 C 2.020 12.256,2.036 12.328,2.131 12.489 C 2.256 12.702,2.449 12.864,2.670 12.943 C 2.791 12.986,3.598 12.997,6.909 12.998 L 10.999 13.000 11.009 17.153 L 11.020 21.306 11.141 21.503 C 11.209 21.613,11.346 21.756,11.452 21.828 C 11.923 22.144,12.554 21.999,12.859 21.503 L 12.980 21.306 12.991 17.153 L 13.001 13.000 17.091 12.998 C 20.402 12.997,21.209 12.986,21.330 12.943 C 21.551 12.864,21.744 12.702,21.869 12.489 C 21.964 12.328,21.980 12.256,21.980 12.000 C 21.980 11.746,21.963 11.672,21.872 11.516 C 21.813 11.415,21.698 11.282,21.618 11.221 C 21.320 10.994,21.453 11.000,17.054 11.000 L 13.001 11.000 12.991 6.850 L 12.980 2.700 12.872 2.516 C 12.628 2.101,12.150 1.915,11.695 2.057 M5.695 3.057 C 5.466 3.129,5.256 3.299,5.128 3.516 C 5.025 3.692,5.019 3.728,5.007 4.350 L 4.993 5.000 4.443 5.000 C 3.648 5.000,3.366 5.111,3.128 5.516 C 3.037 5.672,3.020 5.746,3.020 6.000 C 3.020 6.256,3.036 6.328,3.131 6.489 C 3.256 6.702,3.449 6.864,3.670 6.943 C 3.768 6.978,4.022 6.997,4.407 6.998 L 4.993 7.000 5.007 7.653 C 5.020 8.300,5.021 8.308,5.141 8.503 C 5.543 9.156,6.457 9.156,6.859 8.503 C 6.979 8.308,6.980 8.300,6.993 7.653 L 7.007 7.000 7.593 6.998 C 7.978 6.997,8.232 6.978,8.330 6.943 C 8.551 6.864,8.744 6.702,8.869 6.489 C 8.964 6.328,8.980 6.256,8.980 6.000 C 8.980 5.746,8.963 5.672,8.872 5.516 C 8.634 5.111,8.352 5.000,7.557 5.000 L 7.007 5.000 6.993 4.350 C 6.981 3.728,6.975 3.692,6.872 3.516 C 6.628 3.101,6.150 2.915,5.695 3.057 M16.044 3.625 C 15.650 3.822,15.436 4.268,15.528 4.702 C 15.583 4.963,15.654 5.061,16.155 5.570 L 16.579 6.000 16.155 6.430 C 15.653 6.940,15.584 7.036,15.528 7.300 C 15.381 7.992,15.982 8.593,16.697 8.470 C 16.952 8.426,17.054 8.353,17.570 7.845 L 18.000 7.421 18.430 7.845 C 18.946 8.353,19.044 8.423,19.301 8.468 C 20.016 8.595,20.595 8.015,20.469 7.301 C 20.423 7.044,20.353 6.946,19.846 6.431 L 19.423 6.002 19.871 5.548 C 20.160 5.255,20.347 5.029,20.399 4.911 C 20.695 4.242,20.229 3.518,19.502 3.521 C 19.138 3.522,18.968 3.620,18.452 4.129 L 18.000 4.576 17.548 4.129 C 17.270 3.856,17.026 3.652,16.918 3.602 C 16.655 3.483,16.312 3.492,16.044 3.625 M17.695 15.055 C 17.464 15.130,17.255 15.300,17.128 15.516 C 17.037 15.672,17.020 15.746,17.020 16.000 C 17.020 16.257,17.036 16.327,17.133 16.492 C 17.651 17.374,18.998 17.018,18.998 16.000 C 18.998 15.623,18.792 15.281,18.463 15.112 C 18.265 15.010,17.911 14.984,17.695 15.055 M3.695 17.057 C 3.466 17.129,3.256 17.299,3.128 17.516 C 3.037 17.672,3.020 17.746,3.020 18.000 C 3.020 18.256,3.036 18.328,3.131 18.489 C 3.256 18.702,3.449 18.864,3.670 18.943 C 3.889 19.021,8.111 19.021,8.330 18.943 C 8.551 18.864,8.744 18.702,8.869 18.489 C 8.964 18.328,8.980 18.256,8.980 18.000 C 8.980 17.746,8.963 17.672,8.872 17.516 C 8.740 17.293,8.533 17.128,8.290 17.055 C 8.033 16.978,3.943 16.979,3.695 17.057 M17.695 19.055 C 17.464 19.130,17.255 19.300,17.128 19.516 C 17.037 19.672,17.020 19.746,17.020 20.000 C 17.020 20.257,17.036 20.327,17.133 20.492 C 17.651 21.374,18.998 21.018,18.998 20.000 C 18.998 19.623,18.792 19.281,18.463 19.112 C 18.265 19.010,17.911 18.984,17.695 19.055 " stroke="none" fill-rule="evenodd" fill="black"></path></svg>