<svg xmlns="http://www.w3.org/2000/svg" width="24" height="24" viewBox="0 0 24 24" fill="none" stroke="currentColor" stroke-width="2" stroke-linecap="round" stroke-linejoin="round"><path d="M20.640 2.068 C 20.482 2.121,19.345 3.243,11.347 11.234 C 5.985 16.592,2.191 20.414,2.127 20.520 C 2.036 20.672,2.020 20.746,2.020 21.000 C 2.020 21.257,2.036 21.327,2.133 21.492 C 2.263 21.714,2.502 21.901,2.736 21.965 C 2.938 22.019,3.266 21.989,3.445 21.899 C 3.630 21.807,21.736 3.709,21.873 3.480 C 21.964 3.327,21.980 3.254,21.980 3.000 C 21.980 2.746,21.963 2.672,21.872 2.516 C 21.618 2.083,21.123 1.903,20.640 2.068 M2.670 3.061 C 2.448 3.142,2.250 3.309,2.128 3.516 C 2.036 3.672,2.020 3.745,2.021 4.000 C 2.021 4.213,2.043 4.341,2.095 4.440 C 2.136 4.517,2.711 5.125,3.374 5.790 L 4.578 7.000 3.374 8.210 C 2.711 8.876,2.138 9.481,2.101 9.555 C 1.872 10.009,2.056 10.601,2.508 10.867 C 2.673 10.964,2.742 10.980,3.000 10.979 C 3.213 10.979,3.341 10.957,3.440 10.905 C 3.517 10.864,4.125 10.289,4.790 9.626 L 6.000 8.422 7.210 9.626 C 7.875 10.289,8.481 10.862,8.555 10.899 C 9.009 11.128,9.601 10.944,9.867 10.492 C 9.964 10.327,9.980 10.258,9.979 10.000 C 9.979 9.787,9.957 9.659,9.905 9.560 C 9.864 9.483,9.289 8.876,8.626 8.210 L 7.422 7.000 8.626 5.790 C 9.289 5.125,9.864 4.517,9.905 4.440 C 9.957 4.341,9.979 4.213,9.979 4.000 C 9.980 3.745,9.964 3.672,9.872 3.516 C 9.618 3.084,9.137 2.905,8.657 3.066 C 8.484 3.124,8.312 3.279,7.230 4.354 L 6.000 5.576 4.770 4.354 C 3.688 3.279,3.516 3.124,3.343 3.066 C 3.108 2.987,2.875 2.985,2.670 3.061 M14.650 13.066 C 14.171 13.236,13.882 13.844,14.054 14.320 C 14.082 14.397,14.721 15.384,15.475 16.514 C 16.229 17.644,16.837 18.590,16.827 18.617 C 16.816 18.645,16.528 19.102,16.187 19.634 C 15.517 20.678,15.456 20.820,15.522 21.169 C 15.567 21.411,15.640 21.548,15.807 21.708 C 16.216 22.099,16.846 22.085,17.225 21.675 C 17.391 21.495,21.882 14.499,21.946 14.320 C 22.069 13.977,21.967 13.561,21.694 13.296 C 21.327 12.940,20.785 12.908,20.377 13.220 C 20.298 13.280,19.823 13.978,19.154 15.019 C 18.552 15.954,18.049 16.720,18.036 16.720 C 18.023 16.720,17.501 15.952,16.876 15.014 C 16.251 14.076,15.685 13.267,15.617 13.215 C 15.346 13.008,14.976 12.951,14.650 13.066 " stroke="none" fill-rule="evenodd" fill="black"></path></svg>