<svg xmlns="http://www.w3.org/2000/svg" width="24" height="24" viewBox="0 0 24 24" fill="none" stroke="currentColor" stroke-width="2" stroke-linecap="round" stroke-linejoin="round"><path d="M6.695 7.057 C 6.466 7.129,6.256 7.299,6.128 7.516 C 6.037 7.672,6.020 7.746,6.020 8.000 C 6.020 8.256,6.036 8.328,6.131 8.489 C 6.256 8.702,6.449 8.864,6.670 8.943 C 6.768 8.978,7.023 8.997,7.409 8.998 L 7.998 9.000 8.009 12.653 L 8.020 16.306 8.141 16.503 C 8.543 17.156,9.457 17.156,9.859 16.503 L 9.980 16.306 9.991 12.653 L 10.002 9.000 10.591 8.998 C 10.977 8.997,11.232 8.978,11.330 8.943 C 11.551 8.864,11.744 8.702,11.869 8.489 C 11.964 8.328,11.980 8.256,11.980 8.000 C 11.980 7.746,11.963 7.672,11.872 7.516 C 11.740 7.293,11.533 7.128,11.290 7.055 C 11.033 6.978,6.943 6.979,6.695 7.057 M15.499 7.043 C 14.383 7.230,13.461 8.048,13.114 9.160 L 13.020 9.460 13.020 12.000 L 13.020 14.540 13.114 14.840 C 13.422 15.827,14.173 16.578,15.160 16.886 C 15.451 16.977,15.503 16.980,16.880 16.980 L 18.300 16.980 18.492 16.867 C 18.711 16.739,18.901 16.498,18.961 16.275 C 18.988 16.176,18.999 15.337,18.991 13.911 L 18.980 11.700 18.872 11.516 C 18.629 11.102,18.357 11.000,17.500 11.000 C 16.643 11.000,16.371 11.102,16.128 11.516 C 16.036 11.672,16.020 11.746,16.020 12.003 C 16.020 12.271,16.034 12.329,16.141 12.503 C 16.288 12.742,16.578 12.946,16.821 12.982 L 17.000 13.009 17.000 14.008 L 17.000 15.007 16.350 14.993 C 15.728 14.981,15.692 14.975,15.516 14.872 C 15.415 14.813,15.284 14.700,15.225 14.623 C 14.999 14.327,15.000 14.334,15.000 12.002 C 15.000 9.564,14.995 9.612,15.306 9.300 C 15.587 9.019,15.697 9.000,17.037 8.998 C 18.266 8.996,18.356 8.984,18.619 8.783 C 18.696 8.725,18.808 8.592,18.869 8.489 C 18.964 8.328,18.980 8.256,18.980 8.000 C 18.980 7.746,18.963 7.672,18.872 7.516 C 18.813 7.415,18.698 7.282,18.618 7.221 C 18.350 7.016,18.216 7.000,16.904 7.005 C 16.242 7.007,15.609 7.025,15.499 7.043 " stroke="none" fill-rule="evenodd" fill="black"></path></svg>