<svg xmlns="http://www.w3.org/2000/svg" width="24" height="24" viewBox="0 0 24 24" fill="none" stroke="currentColor" stroke-width="2" stroke-linecap="round" stroke-linejoin="round"><path d="M6.499 3.040 C 5.363 3.246,4.460 4.049,4.114 5.160 C 3.991 5.555,3.980 6.405,4.094 6.776 L 4.166 7.012 3.926 7.496 C 3.297 8.763,2.801 10.376,2.385 12.500 C 2.085 14.037,1.962 15.004,2.034 15.264 C 2.219 15.930,3.028 16.210,3.591 15.802 C 3.879 15.593,3.945 15.426,4.060 14.618 C 4.369 12.432,4.890 10.299,5.428 9.014 C 5.539 8.750,5.585 8.678,5.635 8.696 C 5.671 8.708,5.862 8.776,6.060 8.847 C 6.399 8.968,6.453 8.976,6.980 8.978 C 7.567 8.980,7.902 8.913,8.288 8.716 C 8.370 8.674,8.455 8.640,8.477 8.640 C 8.531 8.640,9.186 9.744,9.679 10.667 C 9.901 11.081,10.489 12.230,10.986 13.220 C 12.591 16.414,13.198 17.525,13.954 18.651 C 15.033 20.260,16.000 20.997,17.032 20.999 C 17.527 21.001,18.040 20.853,18.540 20.566 C 18.851 20.387,19.528 19.707,19.781 19.320 C 20.711 17.894,21.360 15.726,21.816 12.520 C 22.005 11.192,22.023 10.930,21.941 10.684 C 21.726 10.036,20.930 9.798,20.381 10.217 C 20.099 10.432,20.048 10.581,19.917 11.587 C 19.488 14.883,18.934 16.935,18.142 18.160 C 17.830 18.642,17.375 18.999,17.069 19.000 C 16.715 19.001,15.983 18.173,15.200 16.886 C 14.669 16.012,14.243 15.210,12.880 12.520 C 11.248 9.300,10.771 8.428,10.078 7.396 L 9.832 7.031 9.905 6.786 C 10.019 6.400,10.009 5.555,9.886 5.160 C 9.581 4.179,8.810 3.407,7.861 3.129 C 7.500 3.023,6.832 2.980,6.499 3.040 M7.310 5.061 C 7.687 5.173,8.001 5.599,8.000 5.997 C 7.999 6.313,7.757 6.718,7.473 6.881 C 7.331 6.962,7.246 6.980,7.000 6.980 C 6.745 6.980,6.672 6.964,6.513 6.870 C 6.231 6.704,6.000 6.322,6.000 6.021 C 6.000 5.485,6.454 5.015,6.983 5.003 C 7.050 5.001,7.198 5.027,7.310 5.061 " stroke="none" fill-rule="evenodd" fill="black"></path></svg>