<svg xmlns="http://www.w3.org/2000/svg" width="24" height="24" viewBox="0 0 24 24" fill="none" stroke="currentColor" stroke-width="2" stroke-linecap="round" stroke-linejoin="round"><path d="M4.643 5.067 C 4.289 5.196,4.000 5.615,4.000 6.000 C 4.000 6.241,4.119 6.521,4.296 6.697 C 4.445 6.845,5.021 7.100,10.430 9.417 C 13.713 10.823,16.400 11.986,16.400 12.000 C 16.400 12.014,13.759 13.157,10.530 14.539 C 7.301 15.922,4.583 17.097,4.488 17.151 C 3.934 17.469,3.840 18.242,4.300 18.702 C 4.504 18.906,4.804 19.018,5.079 18.991 C 5.216 18.978,7.279 18.112,12.405 15.916 C 18.888 13.139,19.555 12.845,19.704 12.697 C 20.143 12.261,20.074 11.525,19.561 11.185 C 19.481 11.133,16.231 9.725,12.339 8.057 C 4.639 4.757,5.052 4.917,4.643 5.067 " stroke="none" fill-rule="evenodd" fill="black"></path></svg>