<svg xmlns="http://www.w3.org/2000/svg" width="24" height="24" viewBox="0 0 24 24" fill="none" stroke="currentColor" stroke-width="2" stroke-linecap="round" stroke-linejoin="round"><path d="M1.670 8.061 C 1.448 8.142,1.250 8.309,1.128 8.516 C 1.036 8.672,1.020 8.745,1.021 9.000 C 1.021 9.213,1.043 9.341,1.095 9.440 C 1.136 9.517,1.711 10.125,2.374 10.790 L 3.578 12.000 2.374 13.210 C 1.711 13.876,1.138 14.481,1.101 14.555 C 0.872 15.009,1.056 15.601,1.508 15.867 C 1.673 15.964,1.742 15.980,2.000 15.979 C 2.213 15.979,2.341 15.957,2.440 15.905 C 2.517 15.864,3.124 15.289,3.790 14.626 L 5.000 13.422 6.210 14.626 C 6.875 15.289,7.481 15.862,7.555 15.899 C 8.009 16.128,8.601 15.944,8.867 15.492 C 8.964 15.327,8.980 15.258,8.979 15.000 C 8.979 14.787,8.957 14.659,8.905 14.560 C 8.864 14.483,8.289 13.876,7.626 13.210 L 6.422 12.000 7.626 10.790 C 8.289 10.125,8.864 9.517,8.905 9.440 C 8.957 9.341,8.979 9.213,8.979 9.000 C 8.980 8.745,8.964 8.672,8.872 8.516 C 8.618 8.084,8.137 7.905,7.657 8.066 C 7.484 8.124,7.312 8.279,6.230 9.354 L 5.000 10.576 3.770 9.354 C 2.688 8.279,2.516 8.124,2.343 8.066 C 2.108 7.987,1.875 7.985,1.670 8.061 M15.650 8.066 C 15.171 8.236,14.882 8.845,15.054 9.320 C 15.082 9.397,15.708 10.477,16.446 11.720 C 17.183 12.963,17.836 14.065,17.896 14.169 L 18.007 14.358 17.159 15.947 C 16.693 16.820,16.286 17.606,16.256 17.693 C 16.025 18.346,16.588 19.057,17.283 18.991 C 17.533 18.967,17.821 18.818,17.962 18.640 C 18.091 18.477,22.863 9.538,22.945 9.306 C 23.178 8.646,22.597 7.931,21.893 8.011 C 21.658 8.037,21.373 8.189,21.238 8.360 C 21.177 8.437,20.683 9.337,20.139 10.360 C 19.595 11.383,19.139 12.232,19.125 12.246 C 19.111 12.261,18.578 11.390,17.940 10.312 C 17.150 8.976,16.736 8.314,16.642 8.236 C 16.372 8.012,15.988 7.947,15.650 8.066 M11.695 9.057 C 11.466 9.129,11.256 9.299,11.128 9.516 C 11.025 9.692,11.019 9.728,11.007 10.350 L 10.993 11.000 10.443 11.000 C 9.648 11.000,9.366 11.111,9.128 11.516 C 9.037 11.672,9.020 11.746,9.020 12.000 C 9.020 12.256,9.036 12.328,9.131 12.489 C 9.256 12.702,9.449 12.864,9.670 12.943 C 9.768 12.978,10.022 12.997,10.407 12.998 L 10.993 13.000 11.007 13.653 C 11.020 14.300,11.021 14.308,11.141 14.503 C 11.209 14.613,11.346 14.756,11.452 14.828 C 11.923 15.144,12.554 14.999,12.859 14.503 C 12.979 14.308,12.980 14.300,12.993 13.653 L 13.007 13.000 13.593 12.998 C 13.978 12.997,14.232 12.978,14.330 12.943 C 14.551 12.864,14.744 12.702,14.869 12.489 C 14.964 12.328,14.980 12.256,14.980 12.000 C 14.980 11.746,14.963 11.672,14.872 11.516 C 14.634 11.111,14.352 11.000,13.557 11.000 L 13.007 11.000 12.993 10.350 C 12.981 9.728,12.975 9.692,12.872 9.516 C 12.628 9.101,12.150 8.915,11.695 9.057 " stroke="none" fill-rule="evenodd" fill="black"></path></svg>