<svg xmlns="http://www.w3.org/2000/svg" width="24" height="24" viewBox="0 0 24 24" fill="none" stroke="currentColor" stroke-width="2" stroke-linecap="round" stroke-linejoin="round"><path d="M11.643 4.069 C 11.355 4.170,11.143 4.418,11.028 4.786 C 10.974 4.959,10.213 7.609,9.338 10.675 L 7.746 16.250 6.777 14.315 C 5.731 12.225,5.709 12.192,5.329 12.062 C 5.078 11.977,2.990 11.971,2.710 12.055 C 2.467 12.128,2.260 12.293,2.128 12.516 C 2.037 12.672,2.020 12.746,2.020 13.000 C 2.020 13.256,2.036 13.328,2.131 13.489 C 2.192 13.592,2.304 13.725,2.381 13.783 C 2.630 13.973,2.760 13.996,3.600 13.998 L 4.380 14.000 5.760 16.768 C 7.258 19.773,7.276 19.803,7.660 19.934 C 7.902 20.016,8.100 20.018,8.322 19.939 C 8.544 19.861,8.730 19.718,8.838 19.543 C 8.887 19.463,9.744 16.535,10.836 12.712 L 12.749 6.020 16.024 6.000 L 19.300 5.980 19.492 5.867 C 20.248 5.423,20.123 4.306,19.290 4.055 C 19.141 4.010,18.442 4.001,15.464 4.003 C 12.271 4.006,11.798 4.014,11.643 4.069 M13.670 12.061 C 13.448 12.142,13.250 12.309,13.128 12.516 C 13.036 12.672,13.020 12.745,13.021 13.000 C 13.021 13.213,13.043 13.341,13.095 13.440 C 13.136 13.517,13.711 14.125,14.374 14.790 L 15.578 16.000 14.374 17.210 C 13.711 17.875,13.138 18.481,13.101 18.555 C 12.872 19.009,13.056 19.601,13.508 19.867 C 13.673 19.964,13.742 19.980,14.000 19.979 C 14.213 19.979,14.341 19.957,14.440 19.905 C 14.517 19.864,15.125 19.289,15.790 18.626 L 17.000 17.422 18.210 18.626 C 18.875 19.289,19.481 19.862,19.555 19.899 C 20.009 20.128,20.601 19.944,20.867 19.492 C 20.964 19.327,20.980 19.258,20.979 19.000 C 20.979 18.787,20.957 18.659,20.905 18.560 C 20.864 18.483,20.289 17.875,19.626 17.210 L 18.422 16.000 19.626 14.790 C 20.289 14.125,20.864 13.517,20.905 13.440 C 20.957 13.341,20.979 13.213,20.979 13.000 C 20.980 12.745,20.964 12.672,20.872 12.516 C 20.618 12.084,20.137 11.905,19.657 12.066 C 19.484 12.124,19.312 12.279,18.230 13.354 L 17.000 14.576 15.770 13.354 C 14.688 12.279,14.516 12.124,14.343 12.066 C 14.108 11.987,13.875 11.985,13.670 12.061 " stroke="none" fill-rule="evenodd" fill="black"></path></svg>