<svg xmlns="http://www.w3.org/2000/svg" width="24" height="24" viewBox="0 0 24 24" fill="none" stroke="currentColor" stroke-width="2" stroke-linecap="round" stroke-linejoin="round"><path d="M4.499 7.040 C 3.363 7.246,2.461 8.048,2.114 9.160 L 2.020 9.460 2.020 12.000 L 2.020 14.540 2.114 14.840 C 2.422 15.827,3.174 16.579,4.160 16.886 C 4.594 17.021,5.406 17.021,5.840 16.886 C 6.827 16.579,7.584 15.821,7.885 14.840 C 7.955 14.611,7.977 14.440,7.978 14.120 C 7.980 13.733,7.971 13.686,7.871 13.514 C 7.568 12.998,6.883 12.854,6.405 13.205 C 6.169 13.379,6.047 13.609,6.002 13.966 C 5.981 14.130,5.945 14.314,5.922 14.375 C 5.851 14.561,5.677 14.758,5.484 14.872 C 5.328 14.963,5.254 14.980,5.000 14.980 C 4.746 14.980,4.672 14.963,4.516 14.872 C 4.303 14.747,4.141 14.550,4.058 14.316 C 3.970 14.065,3.972 9.988,4.061 9.690 C 4.173 9.312,4.598 9.000,5.000 9.000 C 5.223 9.000,5.510 9.120,5.679 9.283 C 5.886 9.485,5.951 9.636,6.001 10.031 C 6.049 10.410,6.184 10.647,6.452 10.828 C 6.923 11.144,7.554 10.998,7.859 10.503 C 7.974 10.315,7.980 10.285,7.978 9.883 C 7.977 9.559,7.955 9.390,7.885 9.160 C 7.586 8.184,6.811 7.407,5.861 7.129 C 5.500 7.023,4.832 6.980,4.499 7.040 M11.499 7.040 C 10.363 7.246,9.461 8.048,9.114 9.160 L 9.020 9.460 9.020 12.000 L 9.020 14.540 9.114 14.840 C 9.422 15.827,10.174 16.579,11.160 16.886 C 11.594 17.021,12.406 17.021,12.840 16.886 C 13.826 16.579,14.578 15.827,14.886 14.840 L 14.980 14.540 14.980 12.000 L 14.980 9.460 14.886 9.160 C 14.580 8.178,13.810 7.407,12.861 7.129 C 12.500 7.023,11.832 6.980,11.499 7.040 M18.499 7.043 C 17.382 7.230,16.460 8.049,16.114 9.160 C 15.979 9.594,15.979 10.406,16.114 10.840 C 16.490 12.048,17.542 12.902,18.755 12.984 C 19.276 13.019,19.482 13.089,19.696 13.303 C 19.970 13.577,20.057 13.919,19.945 14.290 C 19.773 14.862,19.212 15.122,18.574 14.926 C 18.205 14.812,18.013 14.687,17.820 14.435 C 17.533 14.060,17.129 13.927,16.694 14.064 C 16.068 14.261,15.817 14.966,16.168 15.548 C 16.341 15.835,16.799 16.268,17.151 16.478 C 18.396 17.217,19.920 17.154,20.891 16.321 C 21.391 15.893,21.702 15.430,21.886 14.840 C 22.021 14.406,22.021 13.594,21.886 13.160 C 21.762 12.761,21.563 12.391,21.321 12.108 C 20.722 11.409,20.081 11.088,19.117 11.005 C 18.736 10.972,18.646 10.951,18.491 10.853 C 18.125 10.624,17.946 10.220,18.031 9.813 C 18.151 9.242,18.652 8.921,19.250 9.032 C 19.651 9.107,19.968 9.286,20.169 9.550 C 20.278 9.693,20.410 9.811,20.531 9.874 C 21.450 10.346,22.369 9.342,21.832 8.452 C 21.656 8.160,21.197 7.729,20.840 7.520 C 20.132 7.106,19.224 6.921,18.499 7.043 M12.310 9.061 C 12.589 9.144,12.856 9.411,12.939 9.690 C 13.025 9.978,13.030 14.007,12.945 14.290 C 12.872 14.533,12.707 14.740,12.484 14.872 C 12.328 14.963,12.254 14.980,12.000 14.980 C 11.746 14.980,11.672 14.963,11.516 14.872 C 11.415 14.813,11.282 14.698,11.221 14.618 C 11.004 14.333,11.000 14.287,11.000 12.001 C 11.000 9.588,10.998 9.609,11.304 9.303 C 11.583 9.024,11.916 8.944,12.310 9.061 " stroke="none" fill-rule="evenodd" fill="black"></path></svg>