<svg xmlns="http://www.w3.org/2000/svg" width="24" height="24" viewBox="0 0 24 24" fill="none" stroke="currentColor" stroke-width="2" stroke-linecap="round" stroke-linejoin="round"><path d="M2.670 2.061 C 2.448 2.142,2.250 2.309,2.128 2.516 C 2.036 2.672,2.020 2.745,2.021 3.000 C 2.021 3.212,2.043 3.341,2.095 3.440 C 2.135 3.517,3.139 4.552,4.325 5.741 L 6.481 7.902 6.170 8.054 C 4.961 8.648,3.896 9.403,2.666 10.537 C 1.875 11.267,1.596 11.934,1.653 12.957 C 1.759 14.869,3.153 17.306,5.385 19.482 C 8.012 22.041,10.918 23.313,12.742 22.701 C 13.189 22.551,13.524 22.311,13.984 21.811 C 15.110 20.591,15.754 19.689,16.349 18.500 C 16.470 18.258,16.577 18.052,16.586 18.042 C 16.595 18.032,17.462 18.881,18.511 19.928 C 19.561 20.975,20.483 21.865,20.560 21.905 C 20.659 21.957,20.788 21.979,21.000 21.979 C 21.258 21.980,21.327 21.964,21.492 21.867 C 21.968 21.587,22.139 20.967,21.865 20.508 C 21.810 20.416,17.665 16.243,12.653 11.235 C 4.231 2.820,3.525 2.125,3.343 2.065 C 3.107 1.987,2.874 1.986,2.670 2.061 M16.503 2.040 C 15.120 2.290,14.080 3.450,14.010 4.820 C 13.988 5.255,14.057 5.713,14.202 6.096 L 14.280 6.300 13.828 6.752 L 13.376 7.204 13.078 7.124 C 12.639 7.006,12.141 6.920,11.894 6.920 C 11.511 6.920,11.189 7.116,11.022 7.451 C 10.763 7.971,11.011 8.632,11.540 8.831 C 11.606 8.856,11.822 8.905,12.020 8.940 C 12.543 9.034,12.854 9.134,13.302 9.354 C 14.575 9.979,15.347 11.092,15.601 12.671 C 15.659 13.033,15.820 13.288,16.097 13.459 C 16.271 13.566,16.329 13.580,16.597 13.580 C 16.857 13.580,16.927 13.564,17.092 13.467 C 17.320 13.333,17.489 13.113,17.561 12.855 C 17.604 12.703,17.605 12.603,17.565 12.329 C 17.478 11.724,17.302 11.085,17.088 10.595 L 17.008 10.411 17.357 10.063 L 17.706 9.716 17.907 9.795 C 19.351 10.364,21.025 9.706,21.700 8.304 C 22.254 7.151,22.015 5.766,21.108 4.872 C 20.858 4.625,20.409 4.328,20.120 4.217 C 19.886 4.127,19.887 4.128,19.761 3.829 C 19.409 2.994,18.630 2.322,17.760 2.103 C 17.447 2.024,16.776 1.990,16.503 2.040 M17.316 4.063 C 17.706 4.178,17.997 4.584,18.002 5.017 C 18.007 5.548,18.387 5.931,18.974 5.997 C 19.503 6.056,19.818 6.284,19.941 6.697 C 20.017 6.952,20.015 7.101,19.934 7.340 C 19.808 7.709,19.396 8.000,19.000 8.000 C 18.775 8.000,18.515 7.894,18.298 7.713 C 18.035 7.495,17.881 7.435,17.579 7.435 C 17.211 7.435,17.061 7.529,16.411 8.172 L 15.843 8.734 15.651 8.556 C 15.546 8.459,15.408 8.338,15.344 8.289 L 15.228 8.199 15.848 7.568 C 16.514 6.891,16.575 6.794,16.575 6.420 C 16.575 6.139,16.501 5.951,16.296 5.711 C 16.114 5.498,16.000 5.215,16.000 4.980 C 16.000 4.599,16.309 4.175,16.667 4.065 C 16.920 3.987,17.061 3.987,17.316 4.063 M11.546 12.966 L 15.072 16.492 14.942 16.796 C 14.771 17.194,14.405 17.921,14.226 18.219 C 14.107 18.415,14.079 18.442,14.057 18.378 C 13.692 17.323,12.881 15.963,11.959 14.860 C 10.292 12.867,8.293 11.318,6.412 10.561 L 6.044 10.413 6.432 10.190 C 6.645 10.068,6.919 9.918,7.040 9.858 C 7.257 9.749,7.961 9.443,8.000 9.441 C 8.011 9.441,9.607 11.027,11.546 12.966 M4.625 12.123 C 5.069 12.185,5.502 12.330,6.110 12.621 C 7.303 13.192,8.273 13.907,9.441 15.078 C 10.613 16.251,11.413 17.350,11.945 18.516 C 12.410 19.535,12.537 20.472,12.245 20.735 C 12.050 20.912,11.430 20.886,10.764 20.673 C 9.745 20.347,8.602 19.659,7.500 18.710 C 6.924 18.213,5.951 17.213,5.506 16.660 C 4.336 15.205,3.569 13.538,3.652 12.628 C 3.679 12.324,3.771 12.195,4.004 12.133 C 4.233 12.072,4.257 12.072,4.625 12.123 M7.240 15.035 C 6.793 15.181,6.515 15.542,6.511 15.980 C 6.508 16.367,6.560 16.449,7.255 17.155 C 7.967 17.877,8.147 17.999,8.500 17.999 C 8.874 17.999,9.277 17.730,9.421 17.383 C 9.457 17.297,9.488 17.133,9.489 17.020 C 9.492 16.633,9.441 16.551,8.745 15.847 C 8.390 15.487,8.029 15.157,7.943 15.112 C 7.772 15.024,7.399 14.983,7.240 15.035 " stroke="none" fill-rule="evenodd" fill="black"></path></svg>