<svg xmlns="http://www.w3.org/2000/svg" width="24" height="24" viewBox="0 0 24 24" fill="none" stroke="currentColor" stroke-width="2" stroke-linecap="round" stroke-linejoin="round"><path d="M7.695 3.057 C 7.466 3.129,7.256 3.299,7.128 3.516 L 7.020 3.700 7.020 7.003 L 7.020 10.306 7.141 10.503 C 7.543 11.156,8.457 11.156,8.859 10.503 L 8.980 10.306 8.980 7.003 L 8.980 3.700 8.872 3.516 C 8.628 3.101,8.150 2.915,7.695 3.057 M11.695 3.057 C 11.466 3.129,11.256 3.299,11.128 3.516 L 11.020 3.700 11.020 5.503 L 11.020 7.306 11.141 7.503 C 11.543 8.156,12.457 8.156,12.859 7.503 L 12.980 7.306 12.980 5.503 L 12.980 3.700 12.872 3.516 C 12.628 3.101,12.150 2.915,11.695 3.057 M15.695 3.057 C 15.466 3.129,15.256 3.299,15.128 3.516 L 15.020 3.700 15.020 7.003 L 15.020 10.306 15.141 10.503 C 15.543 11.156,16.457 11.156,16.859 10.503 L 16.980 10.306 16.980 7.003 L 16.980 3.700 16.872 3.516 C 16.628 3.101,16.150 2.915,15.695 3.057 M11.655 10.065 C 11.308 10.188,11.241 10.285,10.507 11.740 L 9.820 13.100 8.494 13.324 C 7.017 13.574,6.906 13.611,6.687 13.931 C 6.465 14.253,6.450 14.722,6.651 15.020 C 6.695 15.086,7.115 15.527,7.584 16.000 L 8.436 16.860 8.218 18.377 C 8.098 19.212,8.000 19.951,8.000 20.020 C 8.000 20.406,8.301 20.814,8.678 20.939 C 9.067 21.068,9.151 21.041,10.646 20.296 L 12.000 19.622 13.363 20.301 L 14.727 20.980 15.017 20.980 C 15.269 20.980,15.331 20.965,15.502 20.859 C 15.734 20.716,15.899 20.492,15.968 20.227 C 16.013 20.052,15.998 19.893,15.791 18.447 L 15.565 16.860 16.438 15.980 C 16.918 15.496,17.340 15.041,17.377 14.969 C 17.614 14.499,17.454 13.912,17.017 13.656 C 16.860 13.564,16.636 13.515,15.506 13.324 L 14.180 13.100 13.493 11.740 C 12.743 10.254,12.686 10.172,12.305 10.059 C 12.060 9.987,11.871 9.988,11.655 10.065 M12.329 13.896 C 12.659 14.558,12.805 14.760,13.044 14.882 C 13.164 14.943,14.203 15.160,14.376 15.160 C 14.397 15.160,14.250 15.328,14.048 15.534 C 13.461 16.133,13.442 16.217,13.620 17.441 C 13.675 17.818,13.720 18.152,13.720 18.182 C 13.720 18.217,13.460 18.109,12.992 17.878 C 12.298 17.537,12.253 17.520,12.000 17.520 C 11.747 17.520,11.702 17.537,11.008 17.878 C 10.540 18.109,10.280 18.217,10.280 18.182 C 10.280 18.152,10.325 17.818,10.380 17.441 C 10.558 16.217,10.539 16.133,9.952 15.534 C 9.750 15.328,9.603 15.160,9.624 15.160 C 9.797 15.160,10.836 14.943,10.956 14.882 C 11.195 14.760,11.341 14.558,11.671 13.896 C 11.840 13.557,11.988 13.280,12.000 13.280 C 12.012 13.280,12.160 13.557,12.329 13.896 " stroke="none" fill-rule="evenodd" fill="black"></path></svg>