<svg xmlns="http://www.w3.org/2000/svg" width="24" height="24" viewBox="0 0 24 24" fill="none" stroke="currentColor" stroke-width="2" stroke-linecap="round" stroke-linejoin="round"><path d="M2.670 2.061 C 2.448 2.142,2.250 2.309,2.128 2.516 C 2.036 2.672,2.020 2.745,2.021 3.000 C 2.021 3.213,2.043 3.341,2.095 3.440 C 2.136 3.517,2.628 4.042,3.190 4.607 L 4.211 5.633 4.069 5.807 C 3.874 6.047,2.771 7.960,2.670 8.235 C 2.548 8.565,2.550 9.128,2.674 9.491 C 2.793 9.838,3.033 10.196,3.276 10.388 C 3.381 10.472,4.028 10.864,4.713 11.260 C 5.399 11.655,5.960 11.989,5.960 12.002 C 5.960 12.014,5.416 12.339,4.751 12.722 C 4.086 13.106,3.441 13.494,3.318 13.585 C 3.047 13.784,2.801 14.138,2.675 14.509 C 2.555 14.863,2.546 15.399,2.655 15.720 C 2.696 15.841,3.002 16.416,3.335 16.997 C 4.014 18.183,4.201 18.417,4.646 18.636 C 4.787 18.705,5.049 18.793,5.229 18.830 C 5.509 18.888,5.596 18.890,5.847 18.848 C 6.222 18.785,6.514 18.641,7.880 17.848 L 8.980 17.209 9.000 18.835 C 9.020 20.405,9.024 20.468,9.111 20.684 C 9.363 21.311,9.883 21.777,10.508 21.940 C 10.839 22.027,13.161 22.027,13.492 21.940 C 14.146 21.770,14.708 21.237,14.924 20.580 C 14.962 20.464,14.982 19.983,14.998 18.815 L 15.020 17.210 15.932 17.738 L 16.844 18.266 18.632 20.049 C 19.615 21.029,20.483 21.865,20.560 21.905 C 20.659 21.957,20.788 21.979,21.000 21.979 C 21.258 21.980,21.327 21.964,21.492 21.867 C 21.714 21.737,21.901 21.498,21.965 21.264 C 22.019 21.061,21.989 20.733,21.899 20.555 C 21.862 20.481,21.175 19.761,20.372 18.956 C 19.222 17.802,18.890 17.445,18.806 17.276 C 18.716 17.094,18.650 17.027,18.380 16.849 C 18.116 16.675,16.783 15.362,10.800 9.384 C 4.102 2.692,3.525 2.125,3.343 2.065 C 3.107 1.987,2.874 1.986,2.670 2.061 M10.477 2.073 C 9.786 2.254,9.184 2.886,9.039 3.584 C 9.012 3.717,9.000 4.253,9.008 5.050 L 9.020 6.306 9.141 6.503 C 9.543 7.156,10.457 7.156,10.859 6.503 L 10.980 6.307 10.992 5.153 L 11.005 4.000 12.002 4.000 L 13.000 4.000 13.000 6.370 L 13.001 8.740 13.095 8.942 C 13.204 9.176,13.471 9.423,13.677 9.480 C 13.929 9.550,14.232 9.528,14.435 9.426 C 14.537 9.375,15.474 8.841,16.515 8.240 L 18.410 7.147 18.475 7.234 C 18.511 7.283,18.736 7.665,18.976 8.084 C 19.343 8.726,19.403 8.853,19.356 8.897 C 19.325 8.925,18.427 9.450,17.361 10.064 C 16.232 10.713,15.360 11.241,15.276 11.325 C 14.886 11.713,14.934 12.447,15.371 12.774 C 15.442 12.827,16.364 13.369,17.420 13.978 C 18.476 14.587,19.355 15.100,19.373 15.118 C 19.391 15.135,19.328 15.298,19.233 15.480 C 19.081 15.769,19.060 15.840,19.063 16.055 C 19.071 16.620,19.495 17.040,20.055 17.040 C 20.490 17.040,20.771 16.828,21.091 16.260 C 21.348 15.804,21.419 15.564,21.419 15.160 C 21.420 14.524,21.135 13.918,20.682 13.585 C 20.558 13.494,19.913 13.106,19.248 12.723 C 18.584 12.339,18.040 12.015,18.040 12.002 C 18.040 11.990,18.618 11.646,19.324 11.240 C 20.747 10.420,20.969 10.250,21.191 9.805 C 21.455 9.278,21.499 8.712,21.317 8.217 C 21.179 7.846,20.050 5.928,19.852 5.730 C 19.467 5.345,19.004 5.155,18.440 5.150 C 18.236 5.149,18.011 5.174,17.877 5.213 C 17.697 5.266,16.466 5.945,15.190 6.696 L 15.000 6.808 14.999 5.294 C 14.999 3.660,14.981 3.476,14.781 3.083 C 14.551 2.628,14.022 2.203,13.523 2.073 C 13.134 1.972,10.866 1.972,10.477 2.073 M5.732 7.224 C 5.802 7.259,7.538 8.964,9.589 11.013 C 13.282 14.701,13.317 14.738,13.244 14.819 C 13.203 14.863,13.136 14.963,13.095 15.040 C 13.025 15.172,13.019 15.326,13.009 17.590 L 12.998 20.000 11.999 20.000 L 11.000 20.000 10.999 17.630 C 10.998 15.331,10.996 15.255,10.917 15.080 C 10.751 14.714,10.472 14.517,10.078 14.489 C 9.867 14.474,9.775 14.487,9.623 14.555 C 9.518 14.601,8.587 15.127,7.553 15.724 C 6.520 16.321,5.646 16.812,5.612 16.815 C 5.548 16.820,4.588 15.216,4.612 15.143 C 4.619 15.123,5.506 14.599,6.582 13.979 C 7.786 13.285,8.603 12.790,8.705 12.692 C 9.115 12.295,9.077 11.558,8.629 11.227 C 8.558 11.175,7.645 10.640,6.600 10.040 C 5.555 9.439,4.675 8.925,4.644 8.896 C 4.596 8.853,4.633 8.766,4.882 8.332 C 5.377 7.469,5.562 7.160,5.584 7.160 C 5.595 7.160,5.662 7.189,5.732 7.224 " stroke="none" fill-rule="evenodd" fill="black"></path></svg>