<svg xmlns="http://www.w3.org/2000/svg" width="24" height="24" viewBox="0 0 24 24" fill="none" stroke="currentColor" stroke-width="2" stroke-linecap="round" stroke-linejoin="round"><path d="M10.477 2.073 C 9.857 2.235,9.349 2.712,9.088 3.376 C 9.035 3.510,9.019 3.776,9.002 4.833 L 8.980 6.126 8.720 6.217 C 7.350 6.697,6.370 7.816,6.083 9.227 C 6.002 9.625,6.000 9.734,6.000 14.948 C 6.000 20.738,5.990 20.466,6.225 20.930 C 6.361 21.199,6.801 21.639,7.070 21.775 C 7.529 22.008,7.360 22.000,12.000 22.000 C 16.640 22.000,16.471 22.008,16.930 21.775 C 17.196 21.640,17.638 21.200,17.771 20.937 C 18.010 20.465,18.000 20.739,18.000 14.941 C 18.000 9.802,17.997 9.620,17.921 9.243 C 17.630 7.816,16.654 6.699,15.280 6.217 L 15.020 6.126 14.997 4.853 C 14.981 3.980,14.958 3.530,14.923 3.420 C 14.777 2.969,14.426 2.527,14.017 2.281 C 13.599 2.029,13.418 2.005,12.000 2.005 C 10.938 2.005,10.699 2.015,10.477 2.073 M13.000 5.000 L 13.000 6.000 12.000 6.000 L 11.000 6.000 11.000 5.000 L 11.000 4.000 12.000 4.000 L 13.000 4.000 13.000 5.000 M14.523 8.073 C 15.022 8.203,15.516 8.599,15.772 9.071 C 16.004 9.500,15.999 9.362,15.999 14.910 L 16.000 20.000 12.000 20.000 L 8.000 20.000 8.000 14.898 C 8.000 9.232,7.989 9.474,8.265 9.014 C 8.546 8.543,8.988 8.201,9.477 8.073 C 9.711 8.012,9.992 8.005,12.000 8.005 C 14.008 8.005,14.289 8.012,14.523 8.073 M11.695 11.057 C 11.466 11.129,11.256 11.299,11.128 11.516 C 11.025 11.692,11.019 11.728,11.007 12.350 L 10.993 13.000 10.443 13.000 C 9.648 13.000,9.366 13.111,9.128 13.516 C 9.037 13.672,9.020 13.746,9.020 14.000 C 9.020 14.256,9.036 14.328,9.131 14.489 C 9.256 14.702,9.449 14.864,9.670 14.943 C 9.768 14.978,10.022 14.997,10.407 14.998 L 10.993 15.000 11.007 15.653 C 11.020 16.300,11.021 16.308,11.141 16.503 C 11.209 16.613,11.346 16.756,11.452 16.828 C 11.923 17.144,12.554 16.999,12.859 16.503 C 12.979 16.308,12.980 16.300,12.993 15.653 L 13.007 15.000 13.593 14.998 C 13.978 14.997,14.232 14.978,14.330 14.943 C 14.551 14.864,14.744 14.702,14.869 14.489 C 14.964 14.328,14.980 14.256,14.980 14.000 C 14.980 13.746,14.963 13.672,14.872 13.516 C 14.634 13.111,14.352 13.000,13.557 13.000 L 13.007 13.000 12.993 12.350 C 12.981 11.728,12.975 11.692,12.872 11.516 C 12.628 11.101,12.150 10.915,11.695 11.057 " stroke="none" fill-rule="evenodd" fill="black"></path></svg>