<svg xmlns="http://www.w3.org/2000/svg" width="24" height="24" viewBox="0 0 24 24" fill="none" stroke="currentColor" stroke-width="2" stroke-linecap="round" stroke-linejoin="round"><path d="M10.477 2.073 C 9.806 2.249,9.238 2.823,9.060 3.508 C 9.012 3.692,9.000 4.040,9.000 5.272 L 9.000 6.808 8.810 6.696 C 7.534 5.945,6.303 5.266,6.123 5.213 C 5.808 5.121,5.289 5.131,4.954 5.237 C 4.633 5.338,4.249 5.587,4.064 5.813 C 3.872 6.048,2.769 7.964,2.670 8.235 C 2.548 8.565,2.550 9.128,2.674 9.491 C 2.793 9.838,3.033 10.196,3.276 10.388 C 3.381 10.472,4.028 10.864,4.713 11.260 C 5.399 11.655,5.960 11.989,5.960 12.002 C 5.960 12.014,5.416 12.339,4.751 12.722 C 4.086 13.106,3.441 13.494,3.318 13.585 C 3.047 13.784,2.801 14.138,2.675 14.509 C 2.555 14.863,2.546 15.399,2.655 15.720 C 2.696 15.841,3.002 16.416,3.335 16.997 C 4.014 18.183,4.201 18.417,4.646 18.636 C 4.787 18.705,5.049 18.793,5.229 18.830 C 5.509 18.888,5.596 18.890,5.847 18.848 C 6.222 18.785,6.514 18.641,7.880 17.848 L 8.980 17.209 9.000 18.835 C 9.020 20.405,9.024 20.468,9.111 20.684 C 9.363 21.311,9.883 21.777,10.508 21.940 C 10.839 22.027,13.161 22.027,13.492 21.940 C 14.146 21.770,14.708 21.237,14.924 20.580 C 14.962 20.464,14.982 19.983,14.998 18.814 L 15.020 17.209 16.120 17.847 C 17.455 18.622,17.692 18.744,18.011 18.826 C 18.637 18.986,19.522 18.692,19.937 18.187 C 20.128 17.953,21.231 16.036,21.330 15.765 C 21.520 15.245,21.413 14.508,21.074 14.000 C 20.853 13.670,20.684 13.552,19.248 12.723 C 18.584 12.339,18.040 12.015,18.040 12.002 C 18.040 11.990,18.618 11.646,19.324 11.240 C 20.747 10.420,20.969 10.250,21.191 9.805 C 21.455 9.278,21.499 8.712,21.317 8.217 C 21.179 7.846,20.050 5.928,19.852 5.730 C 19.467 5.345,19.004 5.155,18.440 5.150 C 18.236 5.149,18.011 5.174,17.877 5.213 C 17.697 5.266,16.466 5.945,15.190 6.696 L 15.000 6.808 14.999 5.294 C 14.999 3.660,14.981 3.476,14.781 3.083 C 14.551 2.628,14.022 2.203,13.523 2.073 C 13.134 1.972,10.866 1.972,10.477 2.073 M13.000 6.370 L 13.001 8.740 13.095 8.942 C 13.204 9.176,13.471 9.423,13.677 9.480 C 13.929 9.550,14.232 9.528,14.435 9.426 C 14.537 9.375,15.474 8.841,16.515 8.240 L 18.410 7.147 18.475 7.234 C 18.511 7.283,18.736 7.665,18.976 8.084 C 19.343 8.726,19.403 8.853,19.356 8.897 C 19.325 8.925,18.427 9.450,17.361 10.064 C 16.232 10.713,15.360 11.241,15.276 11.325 C 14.890 11.709,14.935 12.452,15.364 12.769 C 15.430 12.818,16.360 13.364,17.430 13.983 C 18.500 14.601,19.381 15.124,19.388 15.144 C 19.394 15.164,19.186 15.549,18.925 16.000 C 18.609 16.544,18.429 16.818,18.387 16.815 C 18.353 16.812,17.482 16.324,16.452 15.729 C 15.422 15.135,14.504 14.611,14.412 14.565 C 14.221 14.469,13.918 14.453,13.674 14.526 C 13.474 14.587,13.221 14.805,13.109 15.014 C 13.020 15.179,13.020 15.189,13.009 17.590 L 12.998 20.000 11.999 20.000 L 11.000 20.000 10.999 17.630 C 10.998 15.331,10.996 15.255,10.917 15.080 C 10.751 14.714,10.472 14.517,10.078 14.489 C 9.867 14.474,9.775 14.487,9.623 14.555 C 9.518 14.601,8.587 15.127,7.553 15.724 C 6.520 16.321,5.646 16.812,5.612 16.815 C 5.548 16.820,4.588 15.216,4.612 15.143 C 4.619 15.123,5.506 14.599,6.582 13.979 C 7.786 13.285,8.603 12.790,8.705 12.692 C 9.115 12.295,9.077 11.558,8.629 11.227 C 8.558 11.175,7.645 10.640,6.600 10.040 C 5.555 9.439,4.675 8.925,4.644 8.897 C 4.597 8.853,4.657 8.726,5.024 8.084 C 5.264 7.665,5.489 7.283,5.525 7.234 L 5.590 7.147 7.485 8.241 C 8.527 8.843,9.465 9.377,9.570 9.428 C 10.042 9.657,10.639 9.458,10.891 8.986 C 10.980 8.821,10.980 8.811,10.991 6.410 L 11.002 4.000 12.001 4.000 L 13.000 4.000 13.000 6.370 " stroke="none" fill-rule="evenodd" fill="black"></path></svg>