<svg xmlns="http://www.w3.org/2000/svg" width="24" height="24" viewBox="0 0 24 24" fill="none" stroke="currentColor" stroke-width="2" stroke-linecap="round" stroke-linejoin="round"><path d="M11.640 2.069 C 11.488 2.121,11.208 2.381,9.847 3.735 C 8.960 4.618,8.186 5.421,8.127 5.520 C 8.037 5.672,8.020 5.746,8.020 6.000 C 8.020 6.257,8.036 6.327,8.133 6.492 C 8.263 6.714,8.502 6.901,8.736 6.965 C 8.939 7.019,9.267 6.989,9.445 6.899 C 9.519 6.862,10.125 6.289,10.790 5.626 L 12.000 4.422 13.210 5.626 C 13.876 6.289,14.483 6.864,14.560 6.905 C 14.659 6.957,14.787 6.979,15.000 6.979 C 15.258 6.980,15.327 6.964,15.492 6.867 C 15.968 6.587,16.138 5.968,15.866 5.508 C 15.811 5.416,15.040 4.618,14.153 3.736 C 12.714 2.305,12.519 2.124,12.343 2.066 C 12.102 1.985,11.878 1.986,11.640 2.069 M3.695 9.057 C 3.466 9.129,3.256 9.299,3.128 9.516 C 3.037 9.672,3.020 9.746,3.020 10.000 C 3.020 10.256,3.036 10.328,3.131 10.489 C 3.256 10.702,3.449 10.864,3.670 10.943 C 3.893 11.022,20.107 11.022,20.330 10.943 C 20.551 10.864,20.744 10.702,20.869 10.489 C 20.964 10.328,20.980 10.256,20.980 10.000 C 20.980 9.746,20.963 9.672,20.872 9.516 C 20.740 9.293,20.533 9.128,20.290 9.055 C 20.027 8.976,3.947 8.978,3.695 9.057 M3.695 13.057 C 3.466 13.129,3.256 13.299,3.128 13.516 C 3.037 13.672,3.020 13.746,3.020 14.000 C 3.020 14.256,3.036 14.328,3.131 14.489 C 3.256 14.702,3.449 14.864,3.670 14.943 C 3.893 15.022,20.107 15.022,20.330 14.943 C 20.551 14.864,20.744 14.702,20.869 14.489 C 20.964 14.328,20.980 14.256,20.980 14.000 C 20.980 13.746,20.963 13.672,20.872 13.516 C 20.740 13.293,20.533 13.128,20.290 13.055 C 20.027 12.976,3.947 12.978,3.695 13.057 M8.670 17.061 C 8.448 17.142,8.250 17.309,8.128 17.516 C 8.036 17.672,8.020 17.745,8.021 18.000 C 8.021 18.212,8.043 18.341,8.095 18.440 C 8.196 18.632,11.296 21.739,11.520 21.873 C 11.672 21.964,11.746 21.980,12.000 21.980 C 12.254 21.980,12.328 21.964,12.480 21.873 C 12.704 21.739,15.804 18.632,15.905 18.440 C 15.957 18.341,15.979 18.212,15.979 18.000 C 15.980 17.745,15.964 17.672,15.872 17.516 C 15.618 17.084,15.137 16.905,14.657 17.066 C 14.484 17.124,14.312 17.279,13.230 18.354 L 12.000 19.576 10.770 18.354 C 9.688 17.279,9.516 17.124,9.343 17.066 C 9.108 16.987,8.875 16.985,8.670 17.061 " stroke="none" fill-rule="evenodd" fill="black"></path></svg>