<svg xmlns="http://www.w3.org/2000/svg" width="24" height="24" viewBox="0 0 24 24" fill="none" stroke="currentColor" stroke-width="2" stroke-linecap="round" stroke-linejoin="round"><path d="M10.720 3.058 C 8.206 3.382,6.036 4.438,4.419 6.125 C 4.024 6.537,3.591 7.094,3.303 7.558 C 1.713 10.129,1.587 13.147,2.958 15.789 L 3.192 16.241 2.597 18.030 C 2.217 19.171,2.001 19.880,2.000 19.985 C 2.000 20.339,2.197 20.685,2.501 20.863 C 2.838 21.060,2.907 21.052,5.357 20.526 L 7.574 20.050 7.855 20.166 C 9.129 20.692,10.567 20.970,12.000 20.969 C 13.077 20.968,13.838 20.868,14.880 20.593 C 15.429 20.448,15.585 20.374,15.759 20.175 C 15.938 19.971,16.012 19.781,16.012 19.520 C 16.012 19.142,15.807 18.810,15.467 18.634 C 15.195 18.494,14.995 18.498,14.380 18.656 C 13.631 18.847,13.215 18.915,12.507 18.960 C 11.099 19.051,9.594 18.768,8.262 18.163 C 8.109 18.093,7.909 18.026,7.818 18.013 C 7.695 17.997,7.242 18.077,6.103 18.319 C 5.251 18.500,4.548 18.641,4.539 18.632 C 4.530 18.623,4.695 18.095,4.906 17.459 C 5.397 15.981,5.397 15.985,4.965 15.267 C 4.581 14.627,4.365 14.114,4.205 13.460 C 4.078 12.941,4.036 12.574,4.036 11.980 C 4.036 11.386,4.078 11.019,4.205 10.500 C 4.820 7.992,6.978 5.977,9.820 5.259 C 10.651 5.048,11.273 4.986,12.260 5.012 C 13.683 5.050,14.651 5.277,15.860 5.856 C 18.129 6.943,19.669 8.954,19.958 11.207 C 20.031 11.782,20.140 11.993,20.470 12.203 C 21.058 12.575,21.849 12.209,21.977 11.507 C 22.012 11.312,21.905 10.555,21.760 9.980 C 21.026 7.062,18.720 4.668,15.596 3.580 C 15.055 3.392,14.517 3.258,13.804 3.134 C 13.303 3.046,13.073 3.030,12.180 3.018 C 11.461 3.008,11.010 3.020,10.720 3.058 M18.440 14.058 C 17.838 14.187,17.375 14.431,16.957 14.839 C 16.601 15.186,16.510 15.362,16.510 15.700 C 16.510 16.008,16.633 16.278,16.855 16.455 C 17.079 16.633,17.247 16.694,17.514 16.691 C 17.804 16.689,18.001 16.601,18.255 16.362 C 18.613 16.027,18.899 15.941,19.284 16.054 C 19.720 16.182,19.978 16.533,19.979 17.000 C 19.980 17.218,19.960 17.295,19.856 17.479 C 19.701 17.752,19.434 17.946,19.169 17.979 C 18.764 18.029,18.565 18.088,18.405 18.205 C 17.835 18.625,17.886 19.502,18.501 19.863 C 18.958 20.131,19.923 19.974,20.622 19.519 C 20.911 19.331,21.369 18.866,21.553 18.575 C 21.851 18.102,22.030 17.365,21.987 16.788 C 21.893 15.520,21.004 14.438,19.780 14.102 C 19.448 14.010,18.765 13.988,18.440 14.058 M18.695 21.057 C 18.466 21.129,18.256 21.299,18.128 21.516 C 18.036 21.672,18.020 21.745,18.021 22.000 C 18.022 22.332,18.101 22.533,18.306 22.728 C 18.785 23.181,19.580 23.046,19.893 22.460 C 20.025 22.211,20.015 21.760,19.872 21.516 C 19.628 21.101,19.150 20.915,18.695 21.057 " stroke="none" fill-rule="evenodd" fill="black"></path></svg>