<svg xmlns="http://www.w3.org/2000/svg" width="24" height="24" viewBox="0 0 24 24" fill="none" stroke="currentColor" stroke-width="2" stroke-linecap="round" stroke-linejoin="round"><path d="M10.720 3.058 C 8.206 3.382,6.036 4.438,4.419 6.125 C 4.024 6.537,3.591 7.094,3.303 7.558 C 1.713 10.129,1.587 13.147,2.958 15.789 L 3.192 16.241 2.597 18.030 C 2.217 19.171,2.001 19.880,2.000 19.985 C 2.000 20.339,2.197 20.685,2.501 20.863 C 2.838 21.060,2.907 21.052,5.357 20.526 L 7.574 20.050 7.855 20.166 C 8.697 20.513,9.934 20.825,10.856 20.922 C 11.505 20.991,11.764 20.923,12.048 20.608 C 12.223 20.415,12.297 20.208,12.294 19.920 C 12.292 19.649,12.187 19.430,11.961 19.225 C 11.745 19.030,11.669 19.005,11.100 18.936 C 10.099 18.815,9.325 18.611,8.445 18.236 C 8.189 18.127,7.906 18.027,7.815 18.014 C 7.694 17.997,7.247 18.076,6.103 18.319 C 5.251 18.500,4.548 18.641,4.539 18.632 C 4.530 18.623,4.695 18.095,4.906 17.459 C 5.397 15.981,5.397 15.985,4.965 15.267 C 4.581 14.627,4.365 14.114,4.205 13.460 C 4.078 12.941,4.036 12.574,4.036 11.980 C 4.036 11.386,4.078 11.019,4.205 10.500 C 4.820 7.992,6.978 5.977,9.820 5.259 C 10.651 5.048,11.273 4.986,12.260 5.012 C 13.684 5.050,14.654 5.278,15.860 5.857 C 18.247 7.004,19.768 9.072,19.980 11.460 C 20.020 11.920,20.098 12.132,20.299 12.333 C 20.772 12.806,21.528 12.710,21.865 12.136 C 22.008 11.890,22.030 11.543,21.941 10.912 C 21.552 8.147,19.864 5.771,17.264 4.325 C 16.189 3.728,15.140 3.367,13.804 3.134 C 13.303 3.046,13.073 3.030,12.180 3.018 C 11.461 3.008,11.010 3.020,10.720 3.058 M17.358 14.061 C 16.230 14.237,15.143 14.974,14.569 15.953 C 13.320 18.083,14.233 20.785,16.512 21.704 C 17.473 22.091,18.529 22.090,19.494 21.701 C 19.684 21.625,19.881 21.535,19.932 21.502 C 20.020 21.444,20.041 21.460,20.681 22.104 C 21.044 22.468,21.416 22.810,21.508 22.865 C 21.967 23.139,22.587 22.968,22.867 22.492 C 22.964 22.327,22.980 22.257,22.980 22.000 C 22.980 21.589,22.910 21.484,22.104 20.681 C 21.460 20.041,21.444 20.020,21.502 19.932 C 21.627 19.740,21.844 19.132,21.921 18.757 C 22.070 18.024,21.994 17.230,21.705 16.516 C 21.172 15.197,20.001 14.269,18.605 14.058 C 18.144 13.989,17.816 13.990,17.358 14.061 M18.523 16.073 C 19.262 16.266,19.850 16.924,19.967 17.690 C 20.067 18.343,19.873 18.933,19.403 19.404 C 19.002 19.807,18.547 20.000,18.000 20.000 C 17.485 20.000,17.038 19.822,16.653 19.465 C 15.323 18.229,16.189 16.005,18.000 16.005 C 18.143 16.005,18.378 16.036,18.523 16.073 " stroke="none" fill-rule="evenodd" fill="black"></path></svg>