<svg xmlns="http://www.w3.org/2000/svg" width="24" height="24" viewBox="0 0 24 24" fill="none" stroke="currentColor" stroke-width="2" stroke-linecap="round" stroke-linejoin="round"><path d="M10.477 2.073 C 9.806 2.249,9.238 2.823,9.060 3.508 C 9.009 3.702,9.000 4.237,9.000 7.000 C 9.000 10.547,8.996 10.478,9.225 10.930 C 9.361 11.199,9.801 11.639,10.070 11.775 C 10.523 12.005,10.439 12.000,14.159 12.000 L 17.580 12.000 18.960 13.383 C 19.719 14.143,20.421 14.814,20.520 14.873 C 20.673 14.964,20.746 14.980,21.000 14.980 C 21.256 14.980,21.328 14.964,21.489 14.869 C 21.702 14.744,21.864 14.551,21.943 14.330 C 21.987 14.208,21.997 13.221,21.998 8.980 C 21.999 3.339,22.006 3.526,21.781 3.083 C 21.646 2.816,21.297 2.449,21.017 2.281 C 20.535 1.991,20.809 2.005,15.500 2.005 C 11.129 2.005,10.718 2.010,10.477 2.073 M20.000 7.788 L 20.000 11.575 19.290 10.875 C 18.890 10.481,18.510 10.141,18.420 10.097 C 18.266 10.023,18.127 10.020,14.630 10.009 L 11.000 9.998 11.000 6.999 L 11.000 4.000 15.500 4.000 L 20.000 4.000 20.000 7.788 M3.477 9.073 C 2.806 9.249,2.238 9.823,2.060 10.508 C 1.971 10.849,1.970 21.064,2.058 21.316 C 2.141 21.550,2.303 21.747,2.516 21.872 C 2.672 21.963,2.746 21.980,3.000 21.980 C 3.254 21.980,3.327 21.964,3.480 21.873 C 3.579 21.814,4.281 21.143,5.040 20.383 L 6.420 19.000 9.841 19.000 C 13.561 19.000,13.477 19.005,13.930 18.775 C 14.196 18.640,14.638 18.200,14.771 17.937 C 14.987 17.512,15.005 17.346,14.992 15.966 L 14.980 14.700 14.871 14.514 C 14.479 13.848,13.521 13.848,13.129 14.514 L 13.020 14.700 13.008 15.849 L 12.996 16.998 9.368 17.009 C 5.873 17.020,5.734 17.023,5.580 17.097 C 5.490 17.141,5.110 17.481,4.710 17.875 L 4.000 18.575 4.000 14.788 L 4.000 11.000 5.090 10.998 C 6.262 10.996,6.357 10.983,6.619 10.783 C 6.696 10.725,6.808 10.592,6.869 10.489 C 6.964 10.328,6.980 10.256,6.980 10.000 C 6.980 9.746,6.963 9.672,6.872 9.516 C 6.740 9.293,6.533 9.128,6.290 9.055 C 5.998 8.967,3.829 8.981,3.477 9.073 " stroke="none" fill-rule="evenodd" fill="black"></path></svg>