<svg xmlns="http://www.w3.org/2000/svg" width="24" height="24" viewBox="0 0 24 24" fill="none" stroke="currentColor" stroke-width="2" stroke-linecap="round" stroke-linejoin="round"><path d="M5.358 3.061 C 3.731 3.315,2.417 4.584,2.083 6.227 C 2.002 6.622,2.000 6.744,2.000 11.000 C 2.000 15.256,2.002 15.378,2.083 15.773 C 2.357 17.118,3.249 18.195,4.512 18.704 C 5.168 18.968,5.447 19.000,7.107 19.000 L 8.580 19.000 9.960 20.383 C 10.719 21.143,11.421 21.814,11.520 21.873 C 11.673 21.964,11.746 21.980,12.000 21.980 C 12.254 21.980,12.327 21.964,12.480 21.873 C 12.579 21.814,13.281 21.143,14.040 20.383 L 15.420 19.000 16.893 19.000 C 18.207 19.000,18.410 18.991,18.757 18.921 C 20.117 18.643,21.193 17.755,21.704 16.488 C 21.779 16.300,21.877 15.972,21.921 15.757 C 21.997 15.382,22.000 15.200,22.000 11.000 C 22.000 6.800,21.997 6.618,21.921 6.243 C 21.628 4.806,20.637 3.680,19.245 3.204 C 18.646 2.999,18.690 3.000,11.960 3.004 C 6.959 3.007,5.631 3.018,5.358 3.061 M18.523 5.073 C 19.212 5.253,19.795 5.860,19.941 6.549 C 20.027 6.952,20.027 15.048,19.941 15.451 C 19.808 16.081,19.327 16.630,18.684 16.889 C 18.466 16.976,18.412 16.979,16.600 16.999 C 14.873 17.019,14.729 17.025,14.580 17.097 C 14.480 17.145,13.963 17.627,13.210 18.375 L 12.000 19.577 10.790 18.375 C 10.037 17.627,9.520 17.145,9.420 17.097 C 9.271 17.025,9.127 17.019,7.400 16.999 C 5.588 16.979,5.534 16.976,5.316 16.889 C 4.870 16.709,4.516 16.406,4.265 15.986 C 3.993 15.532,4.000 15.671,4.000 11.000 C 4.000 6.329,3.993 6.468,4.265 6.014 C 4.546 5.543,4.988 5.201,5.477 5.073 C 5.720 5.010,6.211 5.005,12.000 5.005 C 17.789 5.005,18.280 5.010,18.523 5.073 M7.695 8.057 C 7.466 8.129,7.256 8.299,7.128 8.516 C 7.037 8.672,7.020 8.746,7.020 9.000 C 7.020 9.256,7.036 9.328,7.131 9.489 C 7.256 9.702,7.449 9.864,7.670 9.943 C 7.892 10.022,16.108 10.022,16.330 9.943 C 16.551 9.864,16.744 9.702,16.869 9.489 C 16.964 9.328,16.980 9.256,16.980 9.000 C 16.980 8.746,16.963 8.672,16.872 8.516 C 16.740 8.293,16.533 8.128,16.290 8.055 C 16.029 7.976,7.946 7.979,7.695 8.057 M7.695 12.057 C 7.466 12.129,7.256 12.299,7.128 12.516 C 7.037 12.672,7.020 12.746,7.020 13.000 C 7.020 13.256,7.036 13.328,7.131 13.489 C 7.256 13.702,7.449 13.864,7.670 13.943 C 7.891 14.022,14.109 14.022,14.330 13.943 C 14.551 13.864,14.744 13.702,14.869 13.489 C 14.964 13.328,14.980 13.256,14.980 13.000 C 14.980 12.746,14.963 12.672,14.872 12.516 C 14.740 12.293,14.533 12.128,14.290 12.055 C 14.030 11.977,7.945 11.979,7.695 12.057 " stroke="none" fill-rule="evenodd" fill="black"></path></svg>