<svg xmlns="http://www.w3.org/2000/svg" width="24" height="24" viewBox="0 0 24 24" fill="none" stroke="currentColor" stroke-width="2" stroke-linecap="round" stroke-linejoin="round"><path d="M10.720 3.058 C 8.206 3.382,6.036 4.438,4.419 6.125 C 4.024 6.537,3.591 7.094,3.303 7.558 C 1.713 10.129,1.587 13.147,2.958 15.789 L 3.192 16.241 2.597 18.030 C 2.217 19.171,2.001 19.880,2.000 19.985 C 2.000 20.339,2.197 20.685,2.501 20.863 C 2.838 21.060,2.907 21.052,5.360 20.525 L 7.580 20.048 7.806 20.143 C 8.221 20.317,9.055 20.588,9.500 20.693 C 10.639 20.964,12.258 21.069,12.872 20.912 C 13.095 20.855,13.410 20.574,13.500 20.350 C 13.585 20.138,13.590 19.785,13.511 19.597 C 13.426 19.397,13.217 19.170,13.024 19.070 C 12.875 18.993,12.789 18.984,12.100 18.977 C 11.682 18.973,11.160 18.948,10.940 18.922 C 10.111 18.824,9.145 18.554,8.347 18.196 C 8.154 18.109,7.918 18.027,7.823 18.014 C 7.693 17.996,7.269 18.072,6.103 18.319 C 5.251 18.500,4.548 18.641,4.539 18.632 C 4.530 18.623,4.695 18.095,4.906 17.459 C 5.397 15.981,5.397 15.985,4.965 15.267 C 4.581 14.627,4.365 14.114,4.205 13.460 C 4.078 12.941,4.036 12.574,4.036 11.980 C 4.036 11.386,4.078 11.019,4.205 10.500 C 4.820 7.992,6.978 5.977,9.820 5.259 C 10.651 5.048,11.273 4.986,12.260 5.012 C 13.684 5.050,14.654 5.278,15.860 5.857 C 17.992 6.881,19.422 8.618,19.888 10.750 C 19.956 11.062,19.974 11.283,19.977 11.860 C 19.978 12.256,19.972 12.733,19.961 12.920 C 19.945 13.216,19.955 13.285,20.035 13.450 C 20.232 13.856,20.695 14.095,21.117 14.007 C 21.521 13.922,21.792 13.657,21.910 13.229 C 22.004 12.887,22.024 11.486,21.942 10.904 C 21.438 7.300,18.606 4.305,14.787 3.337 C 13.861 3.102,13.295 3.033,12.180 3.018 C 11.461 3.008,11.010 3.020,10.720 3.058 M16.240 16.037 C 15.794 16.173,15.512 16.546,15.512 17.000 C 15.512 17.405,15.719 17.724,16.100 17.905 C 16.296 17.997,16.324 17.999,17.439 18.000 L 18.579 18.000 16.874 19.710 C 15.936 20.651,15.138 21.481,15.101 21.555 C 14.872 22.010,15.056 22.601,15.508 22.867 C 15.673 22.964,15.742 22.980,16.000 22.979 C 16.212 22.979,16.341 22.957,16.440 22.905 C 16.517 22.865,17.350 22.064,18.290 21.126 L 20.000 19.421 20.000 20.561 C 20.001 21.676,20.003 21.704,20.095 21.900 C 20.276 22.281,20.595 22.488,21.000 22.488 C 21.405 22.488,21.724 22.281,21.905 21.900 L 21.999 21.700 21.999 19.240 L 21.999 16.780 21.905 16.580 C 21.791 16.340,21.642 16.193,21.400 16.083 C 21.225 16.004,21.152 16.002,18.780 16.004 C 17.438 16.006,16.295 16.021,16.240 16.037 " stroke="none" fill-rule="evenodd" fill="black"></path></svg>