<svg xmlns="http://www.w3.org/2000/svg" width="24" height="24" viewBox="0 0 24 24" fill="none" stroke="currentColor" stroke-width="2" stroke-linecap="round" stroke-linejoin="round"><path d="M10.720 3.058 C 8.206 3.382,6.036 4.438,4.419 6.125 C 4.024 6.537,3.591 7.094,3.303 7.558 C 1.713 10.129,1.587 13.147,2.958 15.789 L 3.192 16.241 2.597 18.030 C 2.217 19.171,2.001 19.880,2.000 19.985 C 2.000 20.338,2.197 20.685,2.499 20.862 C 2.834 21.058,2.886 21.052,5.280 20.539 C 6.479 20.283,7.496 20.072,7.540 20.071 C 7.584 20.069,7.818 20.145,8.060 20.239 C 9.356 20.743,10.609 20.972,12.060 20.969 C 17.078 20.960,21.310 17.582,21.937 13.086 C 22.066 12.164,22.006 11.006,21.781 10.060 C 21.021 6.864,18.270 4.220,14.787 3.337 C 13.861 3.102,13.295 3.033,12.180 3.018 C 11.461 3.008,11.010 3.020,10.720 3.058 M13.540 5.113 C 14.455 5.279,15.056 5.471,15.860 5.856 C 17.658 6.717,19.033 8.186,19.640 9.894 C 19.918 10.673,20.017 11.324,19.988 12.180 C 19.954 13.197,19.766 13.917,19.295 14.840 C 18.218 16.949,16.052 18.431,13.395 18.876 C 12.896 18.960,12.038 18.996,11.463 18.957 C 10.350 18.883,9.448 18.666,8.445 18.234 C 8.195 18.125,7.914 18.027,7.820 18.014 C 7.694 17.997,7.257 18.074,6.103 18.319 C 5.251 18.500,4.548 18.641,4.539 18.632 C 4.530 18.623,4.695 18.095,4.906 17.459 C 5.397 15.981,5.397 15.985,4.965 15.267 C 4.481 14.461,4.216 13.733,4.081 12.840 C 4.023 12.454,4.023 11.506,4.081 11.120 C 4.293 9.721,4.896 8.527,5.939 7.446 C 7.145 6.195,8.910 5.327,10.782 5.065 C 11.411 4.977,12.934 5.003,13.540 5.113 " stroke="none" fill-rule="evenodd" fill="black"></path></svg>