<svg xmlns="http://www.w3.org/2000/svg" width="24" height="24" viewBox="0 0 24 24" fill="none" stroke="currentColor" stroke-width="2" stroke-linecap="round" stroke-linejoin="round"><path d="M2.670 2.061 C 2.448 2.142,2.250 2.309,2.128 2.516 C 2.036 2.672,2.020 2.745,2.021 3.000 C 2.022 3.390,2.071 3.479,2.568 3.985 L 2.966 4.391 2.803 4.605 C 2.593 4.881,2.341 5.366,2.216 5.732 C 1.999 6.368,2.000 6.340,2.000 11.029 C 2.000 15.255,2.002 15.378,2.083 15.773 C 2.357 17.118,3.249 18.195,4.512 18.704 C 5.059 18.924,5.521 19.000,6.316 19.000 L 7.000 19.000 7.000 20.073 C 7.000 20.967,7.011 21.178,7.066 21.340 C 7.229 21.819,7.813 22.113,8.284 21.954 C 8.359 21.929,9.512 21.254,10.846 20.454 L 13.273 19.000 15.427 19.000 L 17.580 19.000 18.960 20.383 C 19.719 21.143,20.421 21.814,20.520 21.873 C 20.673 21.964,20.746 21.980,21.000 21.980 C 21.257 21.980,21.327 21.964,21.492 21.867 C 21.968 21.587,22.139 20.967,21.865 20.508 C 21.810 20.416,17.665 16.243,12.653 11.235 C 4.231 2.820,3.525 2.125,3.343 2.065 C 3.107 1.987,2.874 1.986,2.670 2.061 M7.695 3.057 C 7.466 3.129,7.256 3.299,7.128 3.516 C 7.037 3.672,7.020 3.746,7.020 4.000 C 7.020 4.256,7.036 4.328,7.131 4.489 C 7.256 4.702,7.449 4.864,7.670 4.943 C 7.792 4.987,8.788 4.997,13.040 5.001 C 17.838 5.004,18.281 5.010,18.523 5.073 C 19.239 5.260,19.840 5.915,19.960 6.640 C 19.990 6.817,20.000 8.254,19.992 11.160 C 19.979 15.883,20.002 15.470,19.716 16.011 C 19.486 16.446,19.519 16.892,19.806 17.217 C 20.014 17.454,20.243 17.560,20.543 17.560 C 21.172 17.559,21.575 17.082,21.892 15.960 C 21.976 15.664,21.977 15.606,21.990 11.152 C 22.002 6.763,22.000 6.633,21.922 6.248 C 21.721 5.264,21.198 4.416,20.438 3.843 C 19.866 3.412,19.276 3.160,18.605 3.058 C 18.066 2.977,7.954 2.976,7.695 3.057 M5.764 7.184 L 7.108 8.528 7.050 8.694 C 6.923 9.058,7.071 9.547,7.381 9.783 C 7.595 9.946,7.785 9.996,8.200 9.998 L 8.581 10.000 9.580 11.000 L 10.579 12.000 9.236 12.000 C 7.775 12.000,7.653 12.015,7.382 12.221 C 7.302 12.282,7.187 12.415,7.128 12.516 C 7.037 12.672,7.020 12.746,7.020 13.000 C 7.020 13.256,7.036 13.328,7.131 13.489 C 7.256 13.702,7.449 13.864,7.670 13.943 C 7.789 13.985,8.317 13.997,10.200 13.998 L 12.580 14.000 14.080 15.500 L 15.580 17.000 14.236 17.000 C 13.218 17.000,12.850 17.013,12.716 17.054 C 12.619 17.084,11.745 17.587,10.773 18.171 L 9.006 19.233 8.993 18.466 C 8.980 17.717,8.978 17.696,8.872 17.516 C 8.813 17.415,8.698 17.282,8.618 17.221 C 8.352 17.018,8.213 17.000,6.922 17.000 C 5.646 17.000,5.474 16.980,5.083 16.781 C 4.806 16.641,4.446 16.293,4.271 15.998 C 3.987 15.517,3.996 15.686,4.009 10.880 L 4.020 6.580 4.127 6.313 C 4.237 6.040,4.350 5.840,4.394 5.840 C 4.408 5.840,5.024 6.445,5.764 7.184 M12.695 8.057 C 12.466 8.129,12.256 8.299,12.128 8.516 C 12.037 8.672,12.020 8.746,12.020 9.000 C 12.020 9.256,12.036 9.328,12.131 9.489 C 12.256 9.702,12.449 9.864,12.670 9.943 C 12.888 10.021,16.112 10.021,16.330 9.943 C 16.551 9.864,16.744 9.702,16.869 9.489 C 16.964 9.328,16.980 9.256,16.980 9.000 C 16.980 8.746,16.963 8.672,16.872 8.516 C 16.740 8.293,16.533 8.128,16.290 8.055 C 16.035 7.978,12.941 7.980,12.695 8.057 " stroke="none" fill-rule="evenodd" fill="black"></path></svg>