<svg xmlns="http://www.w3.org/2000/svg" width="24" height="24" viewBox="0 0 24 24" fill="none" stroke="currentColor" stroke-width="2" stroke-linecap="round" stroke-linejoin="round"><path d="M5.358 3.061 C 3.731 3.315,2.417 4.584,2.083 6.227 C 2.002 6.622,2.000 6.744,2.000 11.000 C 2.000 15.256,2.002 15.378,2.083 15.773 C 2.357 17.118,3.249 18.195,4.512 18.704 C 5.059 18.924,5.521 19.000,6.316 19.000 L 7.000 19.000 7.000 20.073 C 7.000 20.967,7.011 21.178,7.066 21.340 C 7.229 21.819,7.813 22.113,8.284 21.954 C 8.359 21.929,9.512 21.254,10.846 20.454 L 13.273 19.000 15.820 19.000 C 18.204 19.000,18.392 18.995,18.757 18.921 C 20.117 18.643,21.193 17.755,21.704 16.488 C 21.779 16.300,21.877 15.972,21.921 15.757 C 21.997 15.382,22.000 15.200,22.000 11.000 C 22.000 6.800,21.997 6.618,21.921 6.243 C 21.628 4.806,20.637 3.680,19.245 3.204 C 18.646 2.999,18.690 3.000,11.960 3.004 C 6.959 3.007,5.631 3.018,5.358 3.061 M18.523 5.073 C 19.022 5.203,19.516 5.599,19.772 6.071 C 20.001 6.494,19.999 6.444,19.999 11.000 C 19.999 15.554,20.001 15.502,19.772 15.931 C 19.625 16.208,19.191 16.643,18.930 16.775 C 18.485 17.001,18.494 17.000,15.578 17.000 C 13.430 17.000,12.857 17.011,12.716 17.054 C 12.619 17.084,11.745 17.587,10.773 18.171 L 9.006 19.233 8.993 18.466 C 8.980 17.717,8.978 17.696,8.872 17.516 C 8.813 17.415,8.698 17.282,8.618 17.221 C 8.352 17.018,8.213 17.000,6.922 17.000 C 5.646 17.000,5.474 16.980,5.083 16.781 C 4.816 16.646,4.449 16.297,4.281 16.017 C 3.993 15.539,4.005 15.747,4.002 11.028 C 4.000 6.325,3.992 6.469,4.265 6.014 C 4.546 5.543,4.988 5.201,5.477 5.073 C 5.720 5.010,6.211 5.005,12.000 5.005 C 17.789 5.005,18.280 5.010,18.523 5.073 M12.670 7.061 C 12.448 7.142,12.250 7.309,12.128 7.516 C 12.036 7.672,12.020 7.745,12.021 8.000 C 12.021 8.213,12.043 8.340,12.096 8.440 C 12.136 8.517,12.486 8.900,12.873 9.290 L 13.577 10.000 10.735 10.000 C 7.651 10.000,7.674 9.998,7.382 10.221 C 7.302 10.282,7.187 10.415,7.128 10.516 C 7.037 10.672,7.020 10.746,7.020 11.000 C 7.020 11.256,7.036 11.328,7.131 11.489 C 7.256 11.702,7.449 11.864,7.670 11.943 C 7.790 11.986,8.399 11.997,10.699 11.998 L 13.577 12.000 12.873 12.710 C 12.486 13.101,12.139 13.481,12.101 13.555 C 11.872 14.008,12.056 14.601,12.508 14.867 C 12.673 14.964,12.742 14.980,13.000 14.979 C 13.212 14.979,13.341 14.957,13.440 14.905 C 13.517 14.865,14.306 14.109,15.194 13.226 C 16.957 11.472,16.999 11.420,16.999 11.000 C 16.999 10.578,16.960 10.530,15.175 8.756 C 13.716 7.307,13.519 7.124,13.343 7.066 C 13.108 6.987,12.875 6.986,12.670 7.061 " stroke="none" fill-rule="evenodd" fill="black"></path></svg>