<svg xmlns="http://www.w3.org/2000/svg" width="24" height="24" viewBox="0 0 24 24" fill="none" stroke="currentColor" stroke-width="2" stroke-linecap="round" stroke-linejoin="round"><path d="M2.670 2.061 C 2.448 2.142,2.250 2.309,2.128 2.516 C 2.036 2.672,2.020 2.745,2.021 3.000 C 2.021 3.212,2.043 3.341,2.095 3.440 C 2.135 3.517,3.723 5.137,5.624 7.041 C 7.525 8.944,9.080 10.528,9.080 10.561 C 9.080 10.692,9.319 11.113,9.515 11.327 C 9.762 11.597,10.009 11.768,10.316 11.881 C 10.520 11.957,10.655 12.079,11.824 13.246 L 13.108 14.528 13.056 14.674 C 13.018 14.780,13.003 15.118,13.002 15.909 L 13.000 16.998 9.370 17.009 C 5.873 17.020,5.734 17.023,5.580 17.097 C 5.490 17.141,5.110 17.481,4.710 17.875 L 4.000 18.575 4.000 14.788 L 4.000 11.000 5.090 10.998 C 6.262 10.996,6.357 10.983,6.619 10.783 C 6.696 10.725,6.808 10.592,6.869 10.489 C 6.964 10.328,6.980 10.256,6.980 10.000 C 6.980 9.746,6.963 9.672,6.872 9.516 C 6.740 9.293,6.533 9.128,6.290 9.055 C 5.998 8.967,3.829 8.981,3.477 9.073 C 2.806 9.249,2.238 9.823,2.060 10.508 C 1.971 10.849,1.970 21.064,2.058 21.316 C 2.141 21.550,2.303 21.747,2.516 21.872 C 2.672 21.963,2.746 21.980,3.000 21.980 C 3.254 21.980,3.327 21.964,3.480 21.873 C 3.579 21.814,4.281 21.143,5.040 20.383 L 6.420 19.000 9.841 19.000 C 13.561 19.000,13.477 19.005,13.930 18.775 C 14.045 18.716,14.259 18.550,14.404 18.404 C 14.841 17.968,15.000 17.548,15.000 16.835 L 15.000 16.421 17.710 19.126 C 19.201 20.614,20.483 21.865,20.560 21.905 C 20.659 21.957,20.788 21.979,21.000 21.979 C 21.258 21.980,21.327 21.964,21.492 21.867 C 21.968 21.587,22.139 20.967,21.865 20.508 C 21.810 20.416,17.665 16.243,12.653 11.235 C 4.231 2.820,3.525 2.125,3.343 2.065 C 3.107 1.987,2.874 1.986,2.670 2.061 M10.477 2.073 C 9.806 2.249,9.238 2.823,9.060 3.508 C 9.013 3.687,9.000 4.005,9.000 4.961 C 9.000 6.350,9.016 6.446,9.284 6.714 C 9.510 6.940,9.692 7.018,10.000 7.018 C 10.308 7.018,10.490 6.940,10.716 6.714 C 10.980 6.451,11.000 6.337,11.000 5.093 L 11.000 4.000 15.500 4.000 L 20.000 4.000 20.000 7.788 L 20.000 11.575 19.290 10.875 C 18.890 10.481,18.510 10.141,18.420 10.097 C 18.271 10.025,18.145 10.019,16.620 10.007 C 15.519 9.998,14.913 10.009,14.776 10.039 C 14.515 10.095,14.269 10.277,14.129 10.514 C 14.036 10.672,14.020 10.745,14.020 11.000 C 14.020 11.256,14.036 11.328,14.131 11.489 C 14.192 11.592,14.304 11.725,14.381 11.783 C 14.650 11.989,14.716 11.996,16.198 11.998 L 17.577 12.000 19.018 13.435 C 20.355 14.765,20.476 14.874,20.675 14.940 C 21.204 15.112,21.759 14.845,21.943 14.330 C 21.987 14.208,21.997 13.221,21.998 8.980 C 21.999 3.339,22.006 3.526,21.781 3.083 C 21.646 2.816,21.297 2.449,21.017 2.281 C 20.535 1.991,20.809 2.005,15.500 2.005 C 11.129 2.005,10.718 2.010,10.477 2.073 " stroke="none" fill-rule="evenodd" fill="black"></path></svg>