<svg xmlns="http://www.w3.org/2000/svg" width="24" height="24" viewBox="0 0 24 24" fill="none" stroke="currentColor" stroke-width="2" stroke-linecap="round" stroke-linejoin="round"><path d="M5.358 3.061 C 3.731 3.315,2.417 4.584,2.083 6.227 C 2.002 6.622,2.000 6.744,2.000 11.000 C 2.000 15.256,2.002 15.378,2.083 15.773 C 2.357 17.118,3.249 18.195,4.512 18.704 C 5.059 18.924,5.521 19.000,6.316 19.000 L 7.000 19.000 7.000 20.073 C 7.000 20.967,7.011 21.178,7.066 21.340 C 7.229 21.819,7.814 22.114,8.284 21.954 C 8.537 21.867,12.574 19.433,12.728 19.273 C 12.878 19.119,13.000 18.815,13.000 18.597 C 13.000 18.395,12.869 18.078,12.722 17.926 C 12.451 17.647,12.044 17.536,11.714 17.650 C 11.618 17.683,10.970 18.052,10.273 18.471 L 9.006 19.233 8.993 18.467 C 8.980 17.717,8.978 17.696,8.872 17.516 C 8.813 17.415,8.698 17.282,8.618 17.221 C 8.352 17.018,8.213 17.000,6.922 17.000 C 5.646 17.000,5.474 16.980,5.083 16.781 C 4.816 16.646,4.449 16.297,4.281 16.017 C 3.993 15.539,4.005 15.751,4.005 11.000 C 4.005 7.102,4.010 6.718,4.073 6.477 C 4.201 5.988,4.543 5.546,5.014 5.265 C 5.479 4.986,5.109 5.000,12.028 5.002 C 18.979 5.005,18.529 4.987,19.017 5.281 C 19.294 5.448,19.618 5.787,19.772 6.071 C 19.994 6.481,19.999 6.555,20.000 9.760 L 20.001 12.700 20.095 12.900 C 20.276 13.281,20.595 13.488,21.000 13.488 C 21.405 13.488,21.724 13.281,21.905 12.900 L 21.999 12.700 22.000 9.666 C 22.000 6.796,21.996 6.612,21.921 6.243 C 21.628 4.806,20.637 3.680,19.245 3.204 C 18.646 2.999,18.690 3.000,11.960 3.004 C 6.959 3.007,5.631 3.018,5.358 3.061 M7.695 8.057 C 7.466 8.129,7.256 8.299,7.128 8.516 C 7.037 8.672,7.020 8.746,7.020 9.000 C 7.020 9.256,7.036 9.328,7.131 9.489 C 7.256 9.702,7.449 9.864,7.670 9.943 C 7.892 10.022,16.108 10.022,16.330 9.943 C 16.551 9.864,16.744 9.702,16.869 9.489 C 16.964 9.328,16.980 9.256,16.980 9.000 C 16.980 8.746,16.963 8.672,16.872 8.516 C 16.740 8.293,16.533 8.128,16.290 8.055 C 16.029 7.976,7.946 7.979,7.695 8.057 M7.695 12.057 C 7.466 12.129,7.256 12.299,7.128 12.516 C 7.037 12.672,7.020 12.746,7.020 13.000 C 7.020 13.256,7.036 13.328,7.131 13.489 C 7.256 13.702,7.449 13.864,7.670 13.943 C 7.891 14.022,14.109 14.022,14.330 13.943 C 14.551 13.864,14.744 13.702,14.869 13.489 C 14.964 13.328,14.980 13.256,14.980 13.000 C 14.980 12.746,14.963 12.672,14.872 12.516 C 14.740 12.293,14.533 12.128,14.290 12.055 C 14.030 11.977,7.945 11.979,7.695 12.057 M18.358 15.061 C 17.230 15.237,16.143 15.974,15.569 16.953 C 14.320 19.083,15.233 21.785,17.512 22.704 C 19.558 23.528,21.877 22.538,22.704 20.488 C 23.090 19.530,23.090 18.469,22.705 17.516 C 22.172 16.197,21.001 15.269,19.605 15.058 C 19.144 14.989,18.816 14.990,18.358 15.061 M19.470 17.057 C 19.485 17.071,18.954 17.626,18.290 18.290 C 17.626 18.954,17.072 19.486,17.059 19.472 C 17.045 19.459,17.024 19.314,17.012 19.150 C 16.940 18.202,17.563 17.318,18.477 17.071 C 18.735 17.001,19.405 16.991,19.470 17.057 M20.982 18.784 C 21.047 19.396,20.844 19.961,20.398 20.410 C 20.104 20.705,19.779 20.885,19.404 20.963 C 19.181 21.010,18.584 20.997,18.532 20.945 C 18.504 20.918,20.872 18.520,20.927 18.520 C 20.941 18.520,20.966 18.639,20.982 18.784 " stroke="none" fill-rule="evenodd" fill="black"></path></svg>