<svg xmlns="http://www.w3.org/2000/svg" width="24" height="24" viewBox="0 0 24 24" fill="none" stroke="currentColor" stroke-width="2" stroke-linecap="round" stroke-linejoin="round"><path d="M10.720 3.058 C 8.206 3.382,6.036 4.438,4.419 6.125 C 4.024 6.537,3.591 7.094,3.303 7.558 C 1.713 10.129,1.587 13.147,2.958 15.789 L 3.192 16.241 2.597 18.030 C 2.217 19.171,2.001 19.880,2.000 19.985 C 2.000 20.338,2.197 20.685,2.499 20.862 C 2.835 21.058,2.881 21.053,5.343 20.527 L 7.587 20.047 8.036 20.225 C 8.868 20.555,9.772 20.780,10.756 20.904 C 11.793 21.034,13.544 20.952,14.009 20.752 C 14.655 20.474,14.789 19.590,14.255 19.121 C 13.964 18.865,13.715 18.824,13.040 18.922 C 12.532 18.995,11.267 18.985,10.760 18.904 C 9.904 18.768,9.089 18.528,8.347 18.196 C 8.154 18.109,7.918 18.027,7.823 18.014 C 7.693 17.996,7.269 18.072,6.103 18.319 C 5.251 18.500,4.548 18.641,4.539 18.632 C 4.530 18.623,4.695 18.095,4.906 17.459 C 5.397 15.981,5.397 15.985,4.965 15.267 C 4.581 14.627,4.365 14.114,4.205 13.460 C 4.078 12.941,4.036 12.574,4.036 11.980 C 4.036 11.386,4.078 11.019,4.205 10.500 C 4.820 7.992,6.978 5.977,9.820 5.259 C 10.651 5.048,11.273 4.986,12.260 5.012 C 13.684 5.050,14.654 5.278,15.860 5.857 C 17.992 6.881,19.422 8.618,19.888 10.750 C 19.956 11.062,19.974 11.283,19.977 11.860 C 19.978 12.256,19.972 12.733,19.962 12.920 C 19.945 13.238,19.951 13.274,20.062 13.480 C 20.142 13.630,20.241 13.741,20.369 13.827 C 20.978 14.233,21.712 13.948,21.910 13.229 C 22.004 12.887,22.024 11.486,21.942 10.904 C 21.438 7.300,18.606 4.305,14.787 3.337 C 13.861 3.102,13.295 3.033,12.180 3.018 C 11.461 3.008,11.010 3.020,10.720 3.058 M16.670 16.061 C 16.448 16.142,16.250 16.309,16.128 16.516 C 16.037 16.672,16.020 16.746,16.020 17.000 C 16.020 17.254,16.036 17.328,16.127 17.480 C 16.186 17.579,16.650 18.074,17.157 18.579 L 18.079 19.499 17.124 20.459 C 16.599 20.988,16.138 21.481,16.101 21.555 C 15.872 22.009,16.056 22.601,16.508 22.867 C 16.673 22.964,16.743 22.980,17.000 22.980 C 17.254 22.980,17.328 22.964,17.480 22.873 C 17.579 22.814,18.074 22.350,18.579 21.843 L 19.499 20.921 20.459 21.876 C 20.988 22.401,21.483 22.864,21.560 22.905 C 21.659 22.957,21.787 22.979,22.000 22.979 C 22.258 22.980,22.327 22.964,22.492 22.867 C 22.714 22.737,22.901 22.498,22.965 22.264 C 23.019 22.061,22.989 21.733,22.899 21.555 C 22.862 21.481,22.401 20.988,21.876 20.459 L 20.921 19.499 21.843 18.579 C 22.350 18.074,22.814 17.579,22.873 17.480 C 22.964 17.328,22.980 17.254,22.980 17.000 C 22.980 16.746,22.963 16.672,22.872 16.516 C 22.618 16.084,22.136 15.905,21.657 16.066 C 21.486 16.124,21.330 16.262,20.480 17.104 L 19.500 18.076 18.520 17.104 C 17.671 16.262,17.514 16.124,17.343 16.066 C 17.108 15.987,16.875 15.985,16.670 16.061 " stroke="none" fill-rule="evenodd" fill="black"></path></svg>