<svg xmlns="http://www.w3.org/2000/svg" width="24" height="24" viewBox="0 0 24 24" fill="none" stroke="currentColor" stroke-width="2" stroke-linecap="round" stroke-linejoin="round"><path d="M5.358 3.061 C 3.731 3.315,2.417 4.584,2.083 6.227 C 2.002 6.622,2.000 6.744,2.000 11.000 C 2.000 15.256,2.002 15.378,2.083 15.773 C 2.357 17.118,3.249 18.195,4.512 18.704 C 5.168 18.968,5.447 19.000,7.107 19.000 L 8.580 19.000 9.960 20.383 C 10.719 21.143,11.421 21.814,11.520 21.873 C 11.673 21.964,11.746 21.980,12.000 21.980 C 12.382 21.980,12.536 21.894,12.990 21.428 C 13.440 20.967,13.542 20.713,13.464 20.260 C 13.373 19.738,12.699 19.378,12.163 19.565 L 12.033 19.610 10.807 18.392 C 10.042 17.632,9.520 17.145,9.420 17.097 C 9.271 17.025,9.127 17.019,7.400 16.999 C 5.588 16.979,5.534 16.976,5.316 16.889 C 4.870 16.709,4.516 16.406,4.265 15.986 C 3.992 15.531,4.000 15.676,4.002 10.972 C 4.004 7.105,4.011 6.717,4.073 6.477 C 4.201 5.988,4.543 5.546,5.014 5.265 C 5.479 4.986,5.109 5.000,12.028 5.002 C 18.979 5.005,18.529 4.987,19.017 5.281 C 19.294 5.448,19.618 5.787,19.772 6.071 C 19.994 6.481,19.999 6.555,20.000 9.760 L 20.001 12.700 20.095 12.900 C 20.276 13.281,20.595 13.488,21.000 13.488 C 21.405 13.488,21.724 13.281,21.905 12.900 L 21.999 12.700 22.000 9.666 C 22.000 6.796,21.996 6.612,21.921 6.243 C 21.628 4.806,20.637 3.680,19.245 3.204 C 18.646 2.999,18.690 3.000,11.960 3.004 C 6.959 3.007,5.631 3.018,5.358 3.061 M7.695 8.057 C 7.466 8.129,7.256 8.299,7.128 8.516 C 7.037 8.672,7.020 8.746,7.020 9.000 C 7.020 9.256,7.036 9.328,7.131 9.489 C 7.256 9.702,7.449 9.864,7.670 9.943 C 7.892 10.022,16.108 10.022,16.330 9.943 C 16.551 9.864,16.744 9.702,16.869 9.489 C 16.964 9.328,16.980 9.256,16.980 9.000 C 16.980 8.746,16.963 8.672,16.872 8.516 C 16.740 8.293,16.533 8.128,16.290 8.055 C 16.029 7.976,7.946 7.979,7.695 8.057 M7.695 12.057 C 7.466 12.129,7.256 12.299,7.128 12.516 C 7.037 12.672,7.020 12.746,7.020 13.000 C 7.020 13.256,7.036 13.328,7.131 13.489 C 7.256 13.702,7.449 13.864,7.670 13.943 C 7.891 14.022,14.109 14.022,14.330 13.943 C 14.551 13.864,14.744 13.702,14.869 13.489 C 14.964 13.328,14.980 13.256,14.980 13.000 C 14.980 12.746,14.963 12.672,14.872 12.516 C 14.740 12.293,14.533 12.128,14.290 12.055 C 14.030 11.977,7.945 11.979,7.695 12.057 M18.695 15.057 C 18.466 15.129,18.256 15.299,18.128 15.516 L 18.020 15.700 18.009 17.635 L 17.997 19.571 17.269 18.852 C 16.655 18.247,16.509 18.123,16.343 18.067 C 15.865 17.905,15.383 18.083,15.128 18.516 C 15.036 18.672,15.020 18.745,15.021 19.000 C 15.021 19.212,15.043 19.341,15.095 19.440 C 15.135 19.517,15.891 20.306,16.774 21.194 C 18.528 22.957,18.580 22.999,19.000 22.999 C 19.420 22.999,19.472 22.957,21.226 21.194 C 22.109 20.306,22.865 19.517,22.905 19.440 C 22.957 19.341,22.979 19.212,22.979 19.000 C 22.980 18.745,22.964 18.672,22.872 18.516 C 22.617 18.083,22.135 17.905,21.657 18.067 C 21.491 18.123,21.345 18.247,20.731 18.852 L 20.003 19.571 19.991 17.635 L 19.980 15.700 19.872 15.516 C 19.628 15.101,19.150 14.915,18.695 15.057 " stroke="none" fill-rule="evenodd" fill="black"></path></svg>