<svg xmlns="http://www.w3.org/2000/svg" width="24" height="24" viewBox="0 0 24 24" fill="none" stroke="currentColor" stroke-width="2" stroke-linecap="round" stroke-linejoin="round"><path d="M10.720 3.058 C 8.206 3.382,6.036 4.438,4.419 6.125 C 4.024 6.537,3.591 7.094,3.303 7.558 C 1.713 10.129,1.587 13.147,2.958 15.789 L 3.192 16.241 2.597 18.030 C 2.217 19.171,2.001 19.880,2.000 19.985 C 2.000 20.338,2.197 20.685,2.499 20.862 C 2.835 21.058,2.880 21.053,5.350 20.525 L 7.600 20.045 7.819 20.141 C 8.450 20.420,9.589 20.741,10.307 20.843 C 10.729 20.902,10.916 20.868,11.169 20.682 C 11.375 20.531,11.462 20.411,11.542 20.166 C 11.657 19.815,11.561 19.456,11.276 19.168 C 11.111 19.000,10.960 18.937,10.527 18.858 C 9.738 18.713,9.031 18.499,8.365 18.203 C 8.159 18.112,7.913 18.027,7.820 18.014 C 7.694 17.997,7.256 18.075,6.103 18.319 C 5.251 18.500,4.548 18.641,4.539 18.632 C 4.530 18.623,4.695 18.095,4.906 17.459 C 5.397 15.981,5.397 15.985,4.965 15.267 C 4.581 14.627,4.365 14.114,4.205 13.460 C 4.078 12.941,4.036 12.574,4.036 11.980 C 4.036 11.386,4.078 11.019,4.205 10.500 C 4.820 7.992,6.978 5.977,9.820 5.259 C 10.651 5.048,11.273 4.986,12.260 5.012 C 13.683 5.050,14.651 5.277,15.860 5.856 C 17.191 6.494,18.382 7.541,19.048 8.660 C 19.489 9.400,19.741 10.058,19.905 10.896 C 19.968 11.220,20.044 11.483,20.103 11.586 C 20.210 11.772,20.496 11.980,20.735 12.044 C 21.152 12.156,21.634 11.916,21.865 11.480 C 22.122 10.997,21.658 9.199,20.953 7.942 C 19.702 5.710,17.417 4.003,14.787 3.337 C 13.861 3.102,13.295 3.033,12.180 3.018 C 11.461 3.008,11.010 3.020,10.720 3.058 M15.699 14.037 C 14.670 14.202,13.737 14.905,13.305 15.840 C 13.072 16.345,13.021 16.592,13.024 17.200 C 13.026 17.692,13.037 17.773,13.149 18.111 C 13.392 18.843,13.413 18.869,15.473 20.912 C 16.500 21.930,17.421 22.812,17.520 22.872 C 17.673 22.964,17.745 22.980,18.000 22.980 C 18.254 22.980,18.327 22.964,18.480 22.873 C 18.579 22.814,19.509 21.923,20.547 20.893 C 22.582 18.874,22.591 18.863,22.818 18.213 C 23.020 17.636,23.050 16.947,22.900 16.380 C 22.746 15.802,22.353 15.189,21.871 14.775 C 20.903 13.943,19.453 13.773,18.325 14.360 L 18.013 14.522 17.697 14.363 C 17.245 14.135,16.862 14.039,16.340 14.020 C 16.098 14.012,15.810 14.019,15.699 14.037 M16.756 16.138 C 16.867 16.194,17.072 16.348,17.213 16.480 C 17.512 16.759,17.693 16.846,17.980 16.849 C 18.293 16.851,18.459 16.777,18.773 16.492 C 19.235 16.074,19.562 15.956,20.020 16.041 C 20.841 16.193,21.259 17.127,20.806 17.797 C 20.748 17.883,20.101 18.542,19.368 19.262 C 18.242 20.369,18.025 20.565,17.961 20.535 C 17.919 20.516,17.278 19.898,16.537 19.163 C 15.024 17.661,15.020 17.657,15.023 17.160 C 15.025 16.915,15.045 16.822,15.133 16.651 C 15.292 16.341,15.584 16.126,15.980 16.025 C 16.158 15.979,16.559 16.038,16.756 16.138 " stroke="none" fill-rule="evenodd" fill="black"></path></svg>