<svg xmlns="http://www.w3.org/2000/svg" width="24" height="24" viewBox="0 0 24 24" fill="none" stroke="currentColor" stroke-width="2" stroke-linecap="round" stroke-linejoin="round"><path d="M5.358 3.061 C 3.731 3.315,2.417 4.584,2.083 6.227 C 2.002 6.622,2.000 6.744,2.000 11.000 C 2.000 15.256,2.002 15.378,2.083 15.773 C 2.357 17.118,3.249 18.195,4.512 18.704 C 5.168 18.968,5.447 19.000,7.107 19.000 L 8.580 19.000 9.960 20.383 C 10.719 21.143,11.416 21.810,11.508 21.865 C 11.967 22.139,12.587 21.968,12.867 21.492 C 12.964 21.327,12.980 21.257,12.980 21.000 C 12.980 20.746,12.963 20.672,12.873 20.520 C 12.722 20.266,9.623 17.194,9.420 17.097 C 9.272 17.026,9.125 17.019,7.400 16.999 C 5.588 16.979,5.534 16.976,5.316 16.889 C 4.870 16.709,4.516 16.406,4.265 15.986 C 3.992 15.531,4.000 15.676,4.002 10.972 C 4.004 7.105,4.011 6.717,4.073 6.477 C 4.201 5.988,4.543 5.546,5.014 5.265 C 5.479 4.986,5.113 5.000,12.000 5.000 C 18.887 5.000,18.521 4.986,18.986 5.265 C 19.288 5.446,19.492 5.642,19.686 5.937 C 19.998 6.414,19.976 6.065,19.999 10.943 L 20.020 15.306 20.141 15.503 C 20.543 16.156,21.457 16.156,21.859 15.503 L 21.980 15.306 21.991 10.973 C 22.001 6.771,21.999 6.627,21.921 6.246 C 21.628 4.806,20.638 3.681,19.245 3.204 C 18.646 2.999,18.690 3.000,11.960 3.004 C 6.959 3.007,5.631 3.018,5.358 3.061 M7.695 8.057 C 7.466 8.129,7.256 8.299,7.128 8.516 C 7.037 8.672,7.020 8.746,7.020 9.000 C 7.020 9.256,7.036 9.328,7.131 9.489 C 7.256 9.702,7.449 9.864,7.670 9.943 C 7.892 10.022,16.108 10.022,16.330 9.943 C 16.551 9.864,16.744 9.702,16.869 9.489 C 16.964 9.328,16.980 9.256,16.980 9.000 C 16.980 8.746,16.963 8.672,16.872 8.516 C 16.740 8.293,16.533 8.128,16.290 8.055 C 16.029 7.976,7.946 7.979,7.695 8.057 M7.695 12.057 C 7.466 12.129,7.256 12.299,7.128 12.516 C 7.037 12.672,7.020 12.746,7.020 13.000 C 7.020 13.256,7.036 13.328,7.131 13.489 C 7.256 13.702,7.449 13.864,7.670 13.943 C 7.891 14.022,14.109 14.022,14.330 13.943 C 14.551 13.864,14.744 13.702,14.869 13.489 C 14.964 13.328,14.980 13.256,14.980 13.000 C 14.980 12.746,14.963 12.672,14.872 12.516 C 14.740 12.293,14.533 12.128,14.290 12.055 C 14.030 11.977,7.945 11.979,7.695 12.057 M15.695 18.057 C 15.466 18.129,15.256 18.299,15.128 18.516 C 15.037 18.672,15.020 18.746,15.020 19.000 C 15.020 19.256,15.036 19.328,15.131 19.489 C 15.256 19.702,15.449 19.864,15.670 19.943 C 15.891 20.022,22.109 20.022,22.330 19.943 C 22.551 19.864,22.744 19.702,22.869 19.489 C 22.964 19.328,22.980 19.256,22.980 19.000 C 22.980 18.746,22.963 18.672,22.872 18.516 C 22.740 18.293,22.533 18.128,22.290 18.055 C 22.030 17.977,15.945 17.979,15.695 18.057 " stroke="none" fill-rule="evenodd" fill="black"></path></svg>