<svg xmlns="http://www.w3.org/2000/svg" width="24" height="24" viewBox="0 0 24 24" fill="none" stroke="currentColor" stroke-width="2" stroke-linecap="round" stroke-linejoin="round"><path d="M10.720 3.058 C 8.206 3.382,6.036 4.438,4.419 6.125 C 4.024 6.537,3.591 7.094,3.303 7.558 C 1.713 10.129,1.587 13.147,2.958 15.789 L 3.192 16.241 2.597 18.030 C 2.217 19.171,2.001 19.880,2.000 19.985 C 2.000 20.339,2.197 20.685,2.501 20.863 C 2.838 21.060,2.907 21.052,5.357 20.526 L 7.574 20.050 7.848 20.163 C 9.047 20.658,10.825 21.024,11.333 20.882 C 11.559 20.819,11.770 20.645,11.908 20.409 C 11.998 20.256,12.017 20.176,12.017 19.942 C 12.018 19.621,11.937 19.426,11.714 19.212 C 11.528 19.034,11.370 18.978,10.840 18.901 C 9.925 18.769,9.260 18.582,8.422 18.224 C 8.180 18.121,7.908 18.026,7.817 18.013 C 7.695 17.997,7.239 18.078,6.103 18.319 C 5.251 18.500,4.548 18.641,4.539 18.632 C 4.530 18.623,4.695 18.095,4.906 17.459 C 5.397 15.981,5.397 15.985,4.965 15.267 C 4.581 14.627,4.365 14.114,4.205 13.460 C 4.078 12.941,4.036 12.574,4.036 11.980 C 4.036 11.386,4.078 11.019,4.205 10.500 C 4.820 7.992,6.978 5.977,9.820 5.259 C 10.651 5.048,11.273 4.986,12.260 5.012 C 13.684 5.050,14.654 5.278,15.860 5.857 C 18.154 6.959,19.662 8.930,19.963 11.220 C 19.996 11.466,20.001 11.796,19.980 12.260 C 19.937 13.210,19.940 13.253,20.067 13.486 C 20.450 14.190,21.472 14.178,21.818 13.466 C 21.885 13.328,21.933 13.130,21.964 12.867 C 22.025 12.344,21.990 11.092,21.900 10.600 C 21.468 8.214,20.080 6.161,17.940 4.739 C 16.697 3.913,15.413 3.414,13.804 3.134 C 13.303 3.046,13.073 3.030,12.180 3.018 C 11.461 3.008,11.010 3.020,10.720 3.058 M16.640 16.069 C 16.492 16.121,16.265 16.325,15.347 17.236 C 14.734 17.843,14.185 18.421,14.127 18.520 C 14.037 18.672,14.020 18.747,14.020 19.000 C 14.020 19.254,14.036 19.328,14.127 19.480 C 14.260 19.703,16.367 21.803,16.560 21.905 C 16.659 21.957,16.787 21.979,17.000 21.979 C 17.258 21.980,17.327 21.964,17.492 21.867 C 17.714 21.737,17.901 21.498,17.965 21.264 C 18.019 21.061,17.989 20.733,17.899 20.555 C 17.861 20.481,17.514 20.101,17.127 19.710 L 16.423 19.000 17.127 18.290 C 17.514 17.899,17.864 17.517,17.904 17.440 C 17.957 17.340,17.979 17.213,17.979 17.000 C 17.980 16.745,17.964 16.672,17.872 16.516 C 17.617 16.083,17.120 15.902,16.640 16.069 M19.670 16.061 C 19.448 16.142,19.250 16.309,19.128 16.516 C 19.036 16.672,19.020 16.745,19.021 17.000 C 19.021 17.213,19.043 17.340,19.096 17.440 C 19.136 17.517,19.486 17.899,19.873 18.290 L 20.577 19.000 19.873 19.710 C 19.486 20.101,19.139 20.481,19.101 20.555 C 18.872 21.008,19.056 21.601,19.508 21.867 C 19.673 21.964,19.742 21.980,20.000 21.979 C 20.213 21.979,20.341 21.957,20.440 21.905 C 20.633 21.803,22.740 19.703,22.873 19.480 C 22.964 19.328,22.980 19.254,22.980 19.000 C 22.980 18.747,22.963 18.672,22.873 18.520 C 22.815 18.421,22.266 17.843,21.653 17.236 C 20.680 16.271,20.515 16.124,20.343 16.066 C 20.108 15.987,19.875 15.985,19.670 16.061 " stroke="none" fill-rule="evenodd" fill="black"></path></svg>