<svg xmlns="http://www.w3.org/2000/svg" width="24" height="24" viewBox="0 0 24 24" fill="none" stroke="currentColor" stroke-width="2" stroke-linecap="round" stroke-linejoin="round"><path d="M5.358 3.061 C 3.731 3.315,2.417 4.584,2.083 6.227 C 2.002 6.622,2.000 6.744,2.000 11.000 C 2.000 15.256,2.002 15.378,2.083 15.773 C 2.357 17.118,3.249 18.195,4.512 18.704 C 5.059 18.924,5.521 19.000,6.316 19.000 L 7.000 19.000 7.000 20.073 C 7.000 20.967,7.011 21.178,7.066 21.340 C 7.229 21.819,7.813 22.113,8.284 21.954 C 8.359 21.929,9.512 21.254,10.846 20.454 L 13.273 19.000 15.820 19.000 C 18.204 19.000,18.392 18.995,18.757 18.921 C 20.117 18.643,21.193 17.755,21.704 16.488 C 21.779 16.300,21.877 15.972,21.921 15.757 C 21.997 15.382,22.000 15.200,22.000 11.000 C 22.000 6.800,21.997 6.618,21.921 6.243 C 21.628 4.806,20.637 3.680,19.245 3.204 C 18.646 2.999,18.690 3.000,11.960 3.004 C 6.959 3.007,5.631 3.018,5.358 3.061 M18.523 5.073 C 19.022 5.203,19.516 5.599,19.772 6.071 C 20.001 6.494,19.999 6.444,19.999 11.000 C 19.999 15.554,20.001 15.502,19.772 15.931 C 19.625 16.208,19.191 16.643,18.930 16.775 C 18.485 17.001,18.494 17.000,15.578 17.000 C 13.430 17.000,12.857 17.011,12.716 17.054 C 12.619 17.084,11.745 17.587,10.773 18.171 L 9.006 19.233 8.993 18.466 C 8.980 17.717,8.978 17.696,8.872 17.516 C 8.813 17.415,8.698 17.282,8.618 17.221 C 8.352 17.018,8.213 17.000,6.922 17.000 C 5.646 17.000,5.474 16.980,5.083 16.781 C 4.816 16.646,4.449 16.297,4.281 16.017 C 3.993 15.539,4.005 15.747,4.002 11.028 C 4.000 6.325,3.992 6.469,4.265 6.014 C 4.546 5.543,4.988 5.201,5.477 5.073 C 5.720 5.010,6.211 5.005,12.000 5.005 C 17.789 5.005,18.280 5.010,18.523 5.073 M9.240 8.035 C 8.785 8.184,8.512 8.547,8.512 9.000 C 8.512 9.405,8.719 9.724,9.100 9.905 C 9.583 10.133,10.146 9.926,10.412 9.423 C 10.529 9.199,10.530 8.802,10.413 8.579 C 10.305 8.375,10.143 8.213,9.943 8.112 C 9.771 8.024,9.398 7.983,9.240 8.035 M14.240 8.035 C 13.785 8.184,13.512 8.547,13.512 9.000 C 13.512 9.405,13.719 9.724,14.100 9.905 C 14.583 10.133,15.146 9.926,15.412 9.423 C 15.529 9.199,15.530 8.802,15.413 8.579 C 15.305 8.375,15.143 8.213,14.943 8.112 C 14.771 8.024,14.398 7.983,14.240 8.035 M9.240 12.035 C 8.784 12.184,8.512 12.546,8.512 13.003 C 8.512 13.328,8.619 13.534,8.945 13.841 C 9.445 14.312,9.995 14.630,10.661 14.835 C 11.174 14.993,11.481 15.039,12.000 15.039 C 12.519 15.039,12.826 14.993,13.339 14.835 C 14.005 14.630,14.555 14.312,15.055 13.841 C 15.381 13.534,15.488 13.328,15.488 13.003 C 15.488 12.732,15.402 12.508,15.228 12.326 C 15.015 12.105,14.819 12.022,14.500 12.022 C 14.164 12.022,14.056 12.072,13.651 12.419 C 13.287 12.730,13.047 12.861,12.657 12.961 C 12.066 13.112,11.314 13.034,10.833 12.772 C 10.723 12.712,10.502 12.552,10.343 12.416 C 10.184 12.280,9.993 12.138,9.920 12.100 C 9.769 12.022,9.390 11.986,9.240 12.035 " stroke="none" fill-rule="evenodd" fill="black"></path></svg>