<svg xmlns="http://www.w3.org/2000/svg" width="24" height="24" viewBox="0 0 24 24" fill="none" stroke="currentColor" stroke-width="2" stroke-linecap="round" stroke-linejoin="round"><path d="M5.358 3.061 C 3.731 3.315,2.417 4.584,2.083 6.227 C 2.002 6.622,2.000 6.744,2.000 11.000 C 2.000 15.256,2.002 15.378,2.083 15.773 C 2.357 17.118,3.249 18.195,4.512 18.704 C 5.059 18.924,5.521 19.000,6.316 19.000 L 7.000 19.000 7.000 20.073 C 7.000 20.967,7.011 21.178,7.066 21.340 C 7.229 21.819,7.813 22.113,8.284 21.954 C 8.359 21.929,9.603 21.199,11.049 20.333 C 12.914 19.215,13.708 18.718,13.780 18.624 C 14.127 18.168,14.035 17.511,13.579 17.191 C 13.357 17.035,13.016 16.968,12.774 17.033 C 12.665 17.062,11.849 17.527,10.797 18.158 L 9.006 19.233 8.993 18.466 C 8.980 17.717,8.978 17.696,8.872 17.516 C 8.813 17.415,8.698 17.282,8.618 17.221 C 8.352 17.018,8.213 17.000,6.922 17.000 C 5.646 17.000,5.474 16.980,5.083 16.781 C 4.816 16.646,4.449 16.297,4.281 16.017 C 3.993 15.539,4.005 15.751,4.005 11.000 C 4.005 7.102,4.010 6.718,4.073 6.477 C 4.201 5.988,4.543 5.546,5.014 5.265 C 5.479 4.986,5.113 5.000,12.000 5.000 C 18.887 5.000,18.521 4.986,18.986 5.265 C 19.288 5.446,19.492 5.642,19.686 5.937 C 19.993 6.405,19.976 6.186,19.999 9.943 L 20.020 13.306 20.141 13.503 C 20.543 14.156,21.457 14.156,21.859 13.503 L 21.980 13.306 21.991 9.974 C 22.001 6.770,21.999 6.626,21.921 6.247 C 21.721 5.264,21.198 4.416,20.438 3.843 C 19.866 3.412,19.276 3.160,18.605 3.058 C 18.059 2.976,5.887 2.979,5.358 3.061 M7.695 8.057 C 7.466 8.129,7.256 8.299,7.128 8.516 C 7.037 8.672,7.020 8.746,7.020 9.000 C 7.020 9.256,7.036 9.328,7.131 9.489 C 7.256 9.702,7.449 9.864,7.670 9.943 C 7.892 10.022,16.108 10.022,16.330 9.943 C 16.551 9.864,16.744 9.702,16.869 9.489 C 16.964 9.328,16.980 9.256,16.980 9.000 C 16.980 8.746,16.963 8.672,16.872 8.516 C 16.740 8.293,16.533 8.128,16.290 8.055 C 16.029 7.976,7.946 7.979,7.695 8.057 M7.695 12.057 C 7.466 12.129,7.256 12.299,7.128 12.516 C 7.037 12.672,7.020 12.746,7.020 13.000 C 7.020 13.256,7.036 13.328,7.131 13.489 C 7.256 13.702,7.449 13.864,7.670 13.943 C 7.891 14.022,14.109 14.022,14.330 13.943 C 14.551 13.864,14.744 13.702,14.869 13.489 C 14.964 13.328,14.980 13.256,14.980 13.000 C 14.980 12.746,14.963 12.672,14.872 12.516 C 14.740 12.293,14.533 12.128,14.290 12.055 C 14.030 11.977,7.945 11.979,7.695 12.057 M16.670 16.061 C 16.448 16.142,16.250 16.309,16.128 16.516 C 16.037 16.672,16.020 16.746,16.020 17.000 C 16.020 17.254,16.036 17.328,16.127 17.480 C 16.186 17.579,16.650 18.074,17.157 18.579 L 18.079 19.499 17.124 20.459 C 16.599 20.988,16.138 21.481,16.101 21.555 C 15.872 22.009,16.056 22.601,16.508 22.867 C 16.673 22.964,16.743 22.980,17.000 22.980 C 17.254 22.980,17.328 22.964,17.480 22.873 C 17.579 22.814,18.074 22.350,18.579 21.843 L 19.499 20.921 20.459 21.876 C 20.988 22.401,21.483 22.864,21.560 22.905 C 21.659 22.957,21.787 22.979,22.000 22.979 C 22.258 22.980,22.327 22.964,22.492 22.867 C 22.714 22.737,22.901 22.498,22.965 22.264 C 23.019 22.061,22.989 21.733,22.899 21.555 C 22.862 21.481,22.401 20.988,21.876 20.459 L 20.921 19.499 21.843 18.579 C 22.350 18.074,22.814 17.579,22.873 17.480 C 22.964 17.328,22.980 17.254,22.980 17.000 C 22.980 16.746,22.963 16.672,22.872 16.516 C 22.618 16.084,22.136 15.905,21.657 16.066 C 21.486 16.124,21.330 16.262,20.480 17.104 L 19.500 18.076 18.520 17.104 C 17.671 16.262,17.514 16.124,17.343 16.066 C 17.108 15.987,16.875 15.985,16.670 16.061 " stroke="none" fill-rule="evenodd" fill="black"></path></svg>