<svg xmlns="http://www.w3.org/2000/svg" width="24" height="24" viewBox="0 0 24 24" fill="none" stroke="currentColor" stroke-width="2" stroke-linecap="round" stroke-linejoin="round"><path d="M2.670 2.061 C 2.448 2.142,2.250 2.309,2.128 2.516 C 2.037 2.672,2.020 2.746,2.020 3.000 C 2.020 3.254,2.036 3.328,2.127 3.480 C 2.186 3.579,2.757 4.181,3.395 4.817 L 4.555 5.975 4.318 6.228 C 2.129 8.568,1.443 11.906,2.542 14.867 C 2.623 15.083,2.802 15.481,2.940 15.751 L 3.192 16.242 2.596 18.031 C 2.217 19.171,2.001 19.880,2.000 19.985 C 2.000 20.339,2.197 20.685,2.501 20.863 C 2.838 21.060,2.907 21.052,5.360 20.525 L 7.580 20.049 7.906 20.184 C 8.318 20.354,8.868 20.534,9.370 20.662 C 12.104 21.360,15.318 20.881,17.620 19.433 L 17.860 19.282 19.140 20.557 C 19.844 21.258,20.483 21.864,20.560 21.905 C 20.659 21.957,20.787 21.979,21.000 21.979 C 21.258 21.980,21.327 21.964,21.492 21.867 C 21.968 21.587,22.139 20.967,21.865 20.508 C 21.810 20.416,17.665 16.243,12.653 11.235 C 4.231 2.820,3.525 2.125,3.343 2.065 C 3.107 1.987,2.874 1.986,2.670 2.061 M11.340 3.003 C 10.425 3.051,9.423 3.243,8.567 3.534 C 8.099 3.693,7.943 3.786,7.795 3.994 C 7.509 4.399,7.540 4.898,7.875 5.251 C 8.211 5.606,8.533 5.646,9.240 5.422 C 10.211 5.114,10.958 4.998,11.980 4.998 C 13.427 4.998,14.675 5.275,15.880 5.862 C 17.872 6.833,19.306 8.499,19.797 10.411 C 19.964 11.061,20.015 11.551,19.988 12.235 C 19.943 13.329,19.705 14.129,19.100 15.220 C 18.914 15.555,18.901 15.599,18.900 15.860 C 18.900 16.175,18.968 16.351,19.170 16.558 C 19.560 16.957,20.193 16.961,20.587 16.567 C 20.931 16.223,21.518 14.922,21.756 13.973 C 22.225 12.106,22.027 10.169,21.188 8.428 C 20.593 7.193,19.779 6.170,18.686 5.285 C 17.082 3.986,14.870 3.131,12.825 3.018 C 12.061 2.976,11.884 2.975,11.340 3.003 M16.379 17.842 C 16.369 17.857,16.159 17.969,15.911 18.091 C 14.728 18.673,13.432 18.966,12.020 18.971 C 10.654 18.975,9.503 18.727,8.269 18.162 C 7.816 17.955,7.820 17.955,6.103 18.319 C 5.251 18.500,4.548 18.641,4.539 18.632 C 4.530 18.623,4.695 18.095,4.906 17.459 C 5.397 15.981,5.397 15.985,4.965 15.267 C 4.318 14.188,4.033 13.191,4.036 12.019 C 4.038 11.444,4.071 11.117,4.176 10.620 C 4.400 9.567,5.025 8.397,5.796 7.589 L 5.978 7.399 11.187 12.607 C 14.052 15.471,16.388 17.827,16.379 17.842 " stroke="none" fill-rule="evenodd" fill="black"></path></svg>