<svg xmlns="http://www.w3.org/2000/svg" width="24" height="24" viewBox="0 0 24 24" fill="none" stroke="currentColor" stroke-width="2" stroke-linecap="round" stroke-linejoin="round"><path d="M2.670 2.061 C 2.448 2.142,2.250 2.309,2.128 2.516 C 2.036 2.672,2.020 2.745,2.021 3.000 C 2.021 3.212,2.043 3.341,2.095 3.440 C 2.135 3.517,3.057 4.471,4.142 5.560 L 6.117 7.540 5.335 8.200 C 4.484 8.918,4.012 9.369,3.670 9.789 C 2.451 11.289,1.837 13.342,2.042 15.232 C 2.229 16.954,2.925 18.450,4.118 19.692 C 5.251 20.873,6.620 21.594,8.320 21.906 C 8.903 22.013,10.152 22.005,10.760 21.890 C 11.681 21.716,12.583 21.390,13.276 20.980 C 13.970 20.570,14.379 20.222,15.498 19.089 L 16.577 17.998 18.498 19.915 C 19.555 20.969,20.483 21.865,20.560 21.905 C 20.659 21.957,20.788 21.979,21.000 21.979 C 21.258 21.980,21.327 21.964,21.492 21.867 C 21.968 21.587,22.139 20.967,21.865 20.508 C 21.810 20.416,17.665 16.243,12.653 11.235 C 4.231 2.820,3.525 2.125,3.343 2.065 C 3.107 1.987,2.874 1.986,2.670 2.061 M12.670 2.057 C 12.485 2.123,12.693 1.956,10.692 3.652 C 9.763 4.439,8.969 5.132,8.928 5.192 C 8.593 5.672,8.771 6.371,9.300 6.653 C 9.504 6.762,9.996 6.773,10.180 6.673 C 10.246 6.637,10.552 6.392,10.860 6.129 C 11.168 5.865,11.426 5.655,11.433 5.661 C 11.440 5.667,11.344 6.183,11.219 6.806 C 10.968 8.057,10.961 8.199,11.139 8.503 C 11.336 8.838,11.715 9.028,12.105 8.988 C 12.298 8.968,12.652 8.783,15.271 7.328 C 16.893 6.428,18.262 5.669,18.313 5.643 C 18.428 5.582,18.645 5.174,16.672 8.729 C 15.222 11.341,15.032 11.702,15.012 11.893 C 14.969 12.307,15.186 12.707,15.550 12.886 C 15.736 12.978,15.772 12.980,17.169 13.000 L 18.599 13.020 18.120 13.532 C 17.703 13.978,17.633 14.073,17.576 14.267 C 17.400 14.874,17.827 15.472,18.466 15.513 C 18.910 15.541,18.969 15.502,19.909 14.548 C 21.694 12.736,21.863 12.551,21.940 12.321 C 22.074 11.917,21.943 11.469,21.618 11.221 C 21.339 11.009,21.253 11.000,19.414 11.000 C 18.482 11.000,17.720 10.992,17.720 10.982 C 17.720 10.972,18.658 9.275,19.805 7.212 C 20.952 5.148,21.915 3.390,21.945 3.305 C 22.117 2.821,21.830 2.233,21.340 2.066 C 21.115 1.989,20.961 1.983,20.747 2.043 C 20.662 2.066,18.992 2.975,17.035 4.063 C 15.078 5.150,13.462 6.040,13.444 6.040 C 13.426 6.040,13.544 5.379,13.706 4.571 C 13.868 3.764,14.000 3.047,14.000 2.978 C 14.000 2.755,13.875 2.473,13.697 2.295 C 13.434 2.032,13.013 1.935,12.670 2.057 M9.271 11.009 C 8.382 11.098,7.661 11.420,7.067 11.995 C 6.626 12.420,6.324 12.922,6.133 13.548 C 6.038 13.863,6.026 13.963,6.026 14.500 C 6.026 15.037,6.038 15.137,6.133 15.452 C 6.581 16.920,7.808 17.902,9.300 17.987 C 10.710 18.068,12.006 17.304,12.655 16.012 C 12.810 15.702,12.957 15.154,12.986 14.771 L 13.012 14.433 14.083 15.503 L 15.155 16.574 14.187 17.572 C 12.846 18.957,12.355 19.320,11.348 19.675 C 10.027 20.141,8.611 20.089,7.288 19.526 C 5.727 18.862,4.537 17.407,4.143 15.680 C 3.805 14.202,4.139 12.560,5.034 11.300 C 5.343 10.865,5.618 10.591,6.557 9.789 L 7.533 8.954 8.547 9.967 L 9.561 10.980 9.271 11.009 M10.119 13.143 C 10.417 13.279,10.727 13.592,10.865 13.896 C 10.960 14.105,10.976 14.192,10.976 14.500 C 10.976 14.808,10.960 14.895,10.865 15.104 C 10.725 15.413,10.417 15.720,10.100 15.868 C 9.893 15.965,9.810 15.980,9.500 15.980 C 9.190 15.980,9.107 15.965,8.900 15.868 C 8.583 15.720,8.275 15.413,8.135 15.104 C 8.040 14.896,8.024 14.808,8.024 14.500 C 8.023 14.191,8.039 14.106,8.134 13.900 C 8.327 13.478,8.749 13.129,9.174 13.039 C 9.441 12.982,9.870 13.030,10.119 13.143 " stroke="none" fill-rule="evenodd" fill="black"></path></svg>