<svg xmlns="http://www.w3.org/2000/svg" width="24" height="24" viewBox="0 0 24 24" fill="none" stroke="currentColor" stroke-width="2" stroke-linecap="round" stroke-linejoin="round"><path d="M16.695 4.057 C 16.466 4.129,16.256 4.299,16.128 4.516 C 16.037 4.672,16.020 4.746,16.020 5.000 C 16.020 5.256,16.036 5.328,16.131 5.489 C 16.192 5.592,16.304 5.725,16.381 5.783 C 16.643 5.983,16.738 5.996,17.910 5.998 L 19.000 6.000 19.000 6.500 L 19.000 7.000 18.370 7.002 C 17.410 7.006,17.002 7.150,16.535 7.653 C 16.091 8.131,16.000 8.446,16.000 9.500 C 16.000 10.587,16.101 10.909,16.596 11.404 C 16.882 11.690,17.148 11.847,17.508 11.940 C 17.822 12.022,20.102 12.024,20.330 11.943 C 20.551 11.864,20.744 11.702,20.869 11.489 C 20.964 11.328,20.980 11.256,20.980 11.000 C 20.980 10.746,20.963 10.672,20.872 10.516 C 20.813 10.415,20.698 10.282,20.618 10.221 C 20.356 10.022,20.203 10.000,19.054 10.000 L 18.000 10.000 18.000 9.500 L 18.000 9.000 18.632 9.000 C 19.574 9.000,19.927 8.881,20.404 8.404 C 20.895 7.913,21.000 7.579,20.999 6.514 C 20.999 5.716,20.954 5.424,20.781 5.083 C 20.646 4.816,20.297 4.449,20.017 4.281 C 19.603 4.031,19.412 4.005,18.060 4.005 C 17.191 4.005,16.814 4.020,16.695 4.057 M3.695 11.057 C 3.466 11.129,3.256 11.299,3.128 11.516 L 3.020 11.700 3.020 15.003 L 3.020 18.306 3.141 18.503 C 3.543 19.156,4.457 19.156,4.859 18.503 L 4.980 18.306 5.000 16.023 C 5.022 13.463,5.008 13.588,5.322 13.283 C 5.565 13.047,5.810 12.984,6.399 13.009 C 6.793 13.025,6.900 13.044,7.106 13.137 C 7.413 13.274,7.720 13.582,7.868 13.900 L 7.980 14.140 8.000 16.223 L 8.020 18.306 8.141 18.503 C 8.543 19.156,9.457 19.156,9.859 18.503 L 9.980 18.306 10.000 16.223 L 10.020 14.140 10.132 13.900 C 10.280 13.583,10.587 13.275,10.896 13.135 C 11.104 13.040,11.192 13.024,11.500 13.024 C 11.809 13.023,11.894 13.039,12.100 13.134 C 12.414 13.278,12.724 13.586,12.867 13.896 L 12.980 14.140 13.000 16.223 L 13.020 18.306 13.141 18.503 C 13.543 19.156,14.457 19.156,14.859 18.503 L 14.980 18.306 14.991 16.283 C 14.999 15.023,14.987 14.159,14.961 13.992 C 14.747 12.609,13.736 11.483,12.378 11.114 C 11.960 11.001,11.117 10.990,10.707 11.092 C 10.141 11.233,9.513 11.564,9.153 11.910 L 9.005 12.051 8.818 11.886 C 8.150 11.298,7.471 11.046,6.460 11.011 C 5.792 10.988,5.422 11.030,4.983 11.179 L 4.700 11.274 4.560 11.181 C 4.299 11.005,3.997 10.962,3.695 11.057 " stroke="none" fill-rule="evenodd" fill="black"></path></svg>