<svg xmlns="http://www.w3.org/2000/svg" width="24" height="24" viewBox="0 0 24 24" fill="none" stroke="currentColor" stroke-width="2" stroke-linecap="round" stroke-linejoin="round"><path d="M10.353 2.063 C 9.121 2.286,8.076 3.201,7.687 4.400 C 7.640 4.543,6.906 7.792,6.055 11.620 C 4.558 18.349,4.507 18.594,4.507 19.000 C 4.507 20.359,5.340 21.465,6.681 21.886 L 6.980 21.980 11.000 21.980 L 15.020 21.980 15.319 21.886 C 16.660 21.465,17.494 20.358,17.493 19.000 C 17.493 18.626,17.461 18.439,17.203 17.280 C 17.043 16.565,16.876 15.894,16.831 15.788 C 16.728 15.549,16.485 15.336,16.224 15.259 C 15.974 15.185,15.904 15.185,15.645 15.262 C 15.283 15.370,15.014 15.683,14.940 16.083 C 14.921 16.187,14.992 16.577,15.202 17.523 C 15.360 18.236,15.490 18.910,15.490 19.020 C 15.490 19.130,15.458 19.297,15.420 19.390 C 15.335 19.601,15.022 19.889,14.809 19.952 C 14.582 20.021,7.418 20.021,7.191 19.952 C 6.978 19.889,6.665 19.601,6.580 19.390 C 6.542 19.297,6.510 19.130,6.510 19.020 C 6.510 18.742,9.538 5.124,9.661 4.851 C 9.916 4.283,10.620 3.915,11.232 4.029 C 11.727 4.121,12.153 4.437,12.339 4.851 C 12.391 4.966,12.607 5.842,12.819 6.800 C 13.101 8.070,13.232 8.586,13.304 8.709 C 13.429 8.924,13.702 9.112,13.970 9.168 C 14.505 9.280,15.069 8.868,15.145 8.310 C 15.162 8.181,15.079 7.739,14.801 6.480 C 14.294 4.180,14.226 3.975,13.771 3.370 C 13.000 2.345,11.650 1.828,10.353 2.063 M19.477 3.073 C 18.978 3.204,18.449 3.628,18.218 4.084 C 17.982 4.550,17.936 5.214,18.108 5.661 L 18.186 5.863 14.141 11.705 C 11.698 15.234,10.077 17.611,10.048 17.708 C 9.868 18.311,10.273 18.924,10.894 18.988 C 11.144 19.014,11.418 18.937,11.615 18.786 C 11.684 18.733,13.558 16.061,15.780 12.847 L 19.820 7.004 20.042 7.002 C 20.551 6.997,21.014 6.794,21.404 6.404 C 21.920 5.889,22.106 5.236,21.940 4.529 C 21.858 4.182,21.720 3.927,21.465 3.653 C 20.948 3.097,20.211 2.882,19.477 3.073 " stroke="none" fill-rule="evenodd" fill="black"></path></svg>