<svg xmlns="http://www.w3.org/2000/svg" width="24" height="24" viewBox="0 0 24 24" fill="none" stroke="currentColor" stroke-width="2" stroke-linecap="round" stroke-linejoin="round"><path d="M8.503 2.042 C 7.343 2.224,6.236 2.918,5.588 3.871 C 4.990 4.750,4.808 5.999,5.126 7.029 C 5.170 7.171,5.197 7.296,5.187 7.307 C 5.176 7.317,5.026 7.361,4.854 7.403 C 4.255 7.552,3.616 7.917,3.146 8.379 C 2.595 8.921,2.281 9.501,2.073 10.360 C 1.993 10.690,2.003 11.786,2.089 12.140 C 2.285 12.947,2.561 13.454,3.111 14.014 C 3.600 14.513,4.117 14.818,4.805 15.016 C 5.250 15.143,5.947 15.211,6.218 15.152 C 6.907 15.005,7.223 14.248,6.848 13.641 C 6.672 13.356,6.439 13.237,5.971 13.193 C 5.281 13.128,4.883 12.970,4.543 12.626 C 4.289 12.368,4.133 12.080,4.059 11.731 C 3.874 10.860,4.162 10.018,4.786 9.605 C 5.224 9.314,5.736 9.222,6.552 9.286 C 6.977 9.320,7.072 9.316,7.248 9.257 C 7.659 9.121,7.933 8.746,7.933 8.320 C 7.933 8.065,7.849 7.865,7.578 7.480 C 6.960 6.600,6.822 5.858,7.148 5.165 C 7.363 4.709,7.976 4.234,8.556 4.073 C 8.877 3.984,9.148 3.980,9.462 4.062 C 10.022 4.208,10.302 4.484,10.765 5.346 C 10.949 5.690,11.161 6.034,11.236 6.110 C 11.534 6.415,12.002 6.491,12.392 6.297 C 12.633 6.176,12.690 6.103,13.040 5.471 C 13.365 4.883,13.555 4.640,13.860 4.420 C 14.184 4.187,14.515 4.080,14.909 4.081 C 15.304 4.082,15.507 4.130,15.872 4.305 C 16.259 4.491,16.636 4.857,16.799 5.205 C 17.074 5.795,17.038 6.420,16.691 7.094 C 16.590 7.288,16.434 7.549,16.342 7.674 C 16.120 7.977,16.061 8.136,16.067 8.409 C 16.076 8.801,16.266 9.089,16.641 9.281 C 16.818 9.371,16.927 9.377,17.620 9.338 C 18.488 9.290,18.980 9.428,19.421 9.845 C 20.338 10.712,20.114 12.486,19.020 13.020 C 18.615 13.218,18.368 13.253,17.591 13.225 C 16.921 13.200,16.872 13.203,16.700 13.284 C 16.093 13.570,15.938 14.315,16.374 14.852 C 16.556 15.076,16.900 15.683,16.989 15.936 C 17.040 16.084,17.060 16.262,17.060 16.582 C 17.060 17.012,17.056 17.032,16.910 17.328 C 16.578 17.999,15.741 18.498,14.960 18.490 C 14.365 18.484,13.829 18.210,13.499 17.741 C 13.133 17.224,13.094 17.181,12.885 17.072 C 12.025 16.623,11.108 17.560,11.562 18.423 C 12.239 19.710,13.509 20.483,14.960 20.491 C 15.458 20.493,15.725 20.451,16.220 20.292 C 17.389 19.915,18.369 19.049,18.802 18.010 C 19.139 17.199,19.179 16.144,18.902 15.365 C 18.868 15.269,18.840 15.185,18.840 15.178 C 18.840 15.172,18.917 15.154,19.010 15.139 C 19.262 15.097,19.705 14.931,20.000 14.770 C 20.945 14.251,21.620 13.365,21.889 12.291 C 22.014 11.789,22.015 10.774,21.891 10.280 C 21.520 8.809,20.416 7.734,18.948 7.413 C 18.864 7.395,18.795 7.366,18.794 7.349 C 18.794 7.332,18.834 7.152,18.884 6.949 C 19.011 6.434,19.012 5.650,18.888 5.148 C 18.551 3.790,17.667 2.831,16.266 2.304 C 15.239 1.917,13.941 2.028,13.002 2.583 C 12.680 2.773,12.533 2.889,12.233 3.186 L 11.965 3.450 11.733 3.199 C 11.263 2.691,10.573 2.276,9.940 2.121 C 9.565 2.029,8.840 1.989,8.503 2.042 M11.655 11.065 C 11.358 11.170,11.225 11.335,10.756 12.180 C 9.325 14.762,8.388 16.060,6.934 17.481 C 6.036 18.358,4.956 19.220,3.780 19.999 C 3.351 20.284,3.285 20.346,3.175 20.580 C 2.932 21.095,3.180 21.722,3.704 21.918 C 4.149 22.084,4.347 22.027,5.110 21.512 C 7.707 19.758,9.508 17.959,11.089 15.540 C 11.714 14.584,12.821 12.657,12.941 12.316 C 13.215 11.541,12.439 10.787,11.655 11.065 " stroke="none" fill-rule="evenodd" fill="black"></path></svg>