<svg xmlns="http://www.w3.org/2000/svg" width="24" height="24" viewBox="0 0 24 24" fill="none" stroke="currentColor" stroke-width="2" stroke-linecap="round" stroke-linejoin="round"><path d="M11.660 2.023 C 11.140 2.095,10.919 2.139,10.687 2.218 C 10.007 2.449,9.391 2.857,9.011 3.328 C 8.886 3.483,8.760 3.600,8.719 3.600 C 8.595 3.600,7.957 3.841,7.582 4.029 C 6.372 4.636,5.139 5.763,4.274 7.050 C 3.439 8.291,2.924 9.862,2.921 11.175 L 2.920 11.530 2.549 11.895 C 1.559 12.869,1.069 13.880,1.014 15.060 C 0.932 16.836,1.965 18.726,3.960 20.450 C 4.547 20.957,4.587 20.978,4.960 20.978 C 5.317 20.978,5.516 20.891,5.731 20.640 C 5.900 20.442,5.976 20.192,5.952 19.911 C 5.926 19.604,5.822 19.424,5.524 19.169 C 5.075 18.785,4.228 17.916,3.976 17.580 C 3.651 17.146,3.512 16.919,3.325 16.519 C 3.101 16.040,3.028 15.733,3.026 15.260 C 3.023 14.414,3.396 13.761,4.322 12.995 C 4.946 12.478,4.958 12.447,4.951 11.460 C 4.944 10.617,4.988 10.307,5.201 9.670 C 5.730 8.092,7.072 6.521,8.501 5.809 C 8.895 5.613,9.145 5.534,9.474 5.504 C 9.940 5.461,10.250 5.249,10.424 4.854 C 10.554 4.561,10.719 4.391,11.017 4.244 C 11.630 3.943,12.324 3.924,12.902 4.195 C 13.237 4.352,13.417 4.523,13.556 4.817 C 13.765 5.261,14.046 5.460,14.526 5.504 C 15.300 5.575,16.281 6.156,17.163 7.066 C 17.754 7.675,18.154 8.236,18.492 8.926 C 18.923 9.806,19.052 10.395,19.057 11.500 C 19.060 12.299,19.060 12.300,19.171 12.488 C 19.241 12.608,19.419 12.787,19.658 12.979 C 20.288 13.486,20.681 13.991,20.871 14.537 C 20.996 14.897,21.011 15.519,20.903 15.920 C 20.649 16.870,19.879 17.926,18.656 19.003 C 18.173 19.429,18.077 19.572,18.048 19.911 C 18.024 20.192,18.100 20.442,18.269 20.640 C 18.484 20.891,18.683 20.978,19.040 20.978 C 19.413 20.978,19.453 20.957,20.040 20.450 C 22.585 18.251,23.541 15.803,22.686 13.669 C 22.438 13.049,22.034 12.469,21.451 11.895 L 21.080 11.530 21.080 11.194 C 21.080 9.627,20.397 7.841,19.240 6.380 C 18.926 5.985,18.156 5.211,17.777 4.911 C 17.378 4.596,16.799 4.221,16.400 4.020 C 16.038 3.838,15.403 3.600,15.279 3.600 C 15.236 3.600,15.131 3.504,15.028 3.370 C 14.539 2.736,13.794 2.287,12.920 2.101 C 12.648 2.043,11.867 1.995,11.660 2.023 M8.620 8.053 C 8.252 8.149,7.923 8.379,7.665 8.722 C 6.604 10.133,6.854 12.868,8.122 13.715 C 8.689 14.093,9.311 14.093,9.878 13.715 C 11.370 12.718,11.369 9.281,9.876 8.283 C 9.743 8.195,9.568 8.103,9.487 8.080 C 9.247 8.010,8.835 7.998,8.620 8.053 M14.620 8.053 C 14.252 8.149,13.923 8.379,13.665 8.722 C 12.604 10.133,12.854 12.868,14.122 13.715 C 14.689 14.093,15.311 14.093,15.878 13.715 C 17.370 12.718,17.369 9.281,15.876 8.283 C 15.743 8.195,15.568 8.103,15.487 8.080 C 15.247 8.010,14.835 7.998,14.620 8.053 M16.668 15.061 C 16.412 15.155,16.294 15.267,15.960 15.732 C 15.783 15.978,15.578 16.250,15.505 16.334 L 15.372 16.489 15.194 16.353 C 14.866 16.102,14.627 16.023,14.198 16.021 C 13.836 16.020,13.800 16.028,13.513 16.170 C 13.012 16.417,12.490 17.053,12.229 17.734 L 12.140 17.967 11.900 17.941 C 11.582 17.905,10.797 17.640,10.366 17.422 C 9.956 17.215,9.444 16.896,8.920 16.521 C 8.711 16.372,8.482 16.220,8.411 16.184 C 7.911 15.931,7.240 16.219,7.058 16.765 C 6.905 17.225,7.065 17.630,7.542 17.991 C 8.435 18.668,9.453 19.250,10.295 19.564 C 11.131 19.876,11.700 19.980,12.560 19.978 C 13.137 19.977,13.273 19.963,13.642 19.871 C 14.074 19.763,14.533 19.596,14.878 19.421 C 15.279 19.218,15.924 18.748,16.321 18.371 C 16.999 17.727,17.803 16.708,17.941 16.318 C 18.212 15.550,17.433 14.781,16.668 15.061 " stroke="none" fill-rule="evenodd" fill="black"></path></svg>