<svg xmlns="http://www.w3.org/2000/svg" width="24" height="24" viewBox="0 0 24 24" fill="none" stroke="currentColor" stroke-width="2" stroke-linecap="round" stroke-linejoin="round"><path d="M11.358 1.061 C 9.731 1.315,8.417 2.584,8.083 4.227 C 8.004 4.615,8.000 4.760,8.000 7.500 C 8.000 10.240,8.004 10.385,8.083 10.773 C 8.357 12.118,9.249 13.195,10.512 13.704 C 11.231 13.994,12.023 14.070,12.757 13.921 C 14.384 13.589,15.589 12.384,15.921 10.757 C 15.995 10.390,16.000 10.203,16.000 7.500 C 16.000 4.797,15.995 4.610,15.921 4.243 C 15.721 3.264,15.197 2.415,14.438 1.843 C 13.866 1.412,13.276 1.160,12.605 1.058 C 12.144 0.989,11.816 0.990,11.358 1.061 M12.523 3.073 C 13.022 3.203,13.516 3.599,13.772 4.071 C 13.992 4.478,13.999 4.577,13.999 7.500 C 13.999 10.422,13.992 10.519,13.772 10.931 C 13.625 11.208,13.191 11.643,12.930 11.775 C 12.346 12.071,11.658 12.073,11.083 11.781 C 10.816 11.646,10.449 11.297,10.281 11.017 C 10.003 10.556,10.005 10.576,10.002 7.528 C 10.000 4.483,10.002 4.452,10.265 4.014 C 10.745 3.212,11.635 2.841,12.523 3.073 M4.695 9.057 C 4.467 9.128,4.256 9.299,4.131 9.512 C 3.999 9.737,3.970 10.124,4.037 10.768 C 4.200 12.341,4.811 13.830,5.789 15.040 C 6.075 15.394,6.761 16.067,7.100 16.326 C 7.804 16.863,8.680 17.327,9.500 17.595 C 9.979 17.751,10.703 17.920,10.898 17.920 L 11.000 17.920 11.000 18.960 L 11.000 20.000 9.446 20.000 C 7.758 20.000,7.658 20.011,7.382 20.221 C 7.302 20.282,7.187 20.415,7.128 20.516 C 7.037 20.672,7.020 20.746,7.020 21.000 C 7.020 21.256,7.036 21.328,7.131 21.489 C 7.256 21.702,7.449 21.864,7.670 21.943 C 7.892 22.022,16.108 22.022,16.330 21.943 C 16.551 21.864,16.744 21.702,16.869 21.489 C 16.964 21.328,16.980 21.256,16.980 21.000 C 16.980 20.746,16.963 20.672,16.872 20.516 C 16.813 20.415,16.698 20.282,16.618 20.221 C 16.342 20.011,16.242 20.000,14.554 20.000 L 13.000 20.000 13.000 18.960 L 13.000 17.920 13.102 17.920 C 13.297 17.920,14.021 17.751,14.500 17.595 C 15.380 17.307,16.313 16.799,17.040 16.211 C 17.394 15.925,18.067 15.239,18.326 14.900 C 19.243 13.700,19.806 12.277,19.963 10.768 C 20.030 10.122,20.001 9.737,19.868 9.509 C 19.483 8.853,18.519 8.850,18.136 9.504 C 18.046 9.657,18.026 9.761,17.979 10.310 C 17.917 11.041,17.842 11.439,17.671 11.940 C 16.988 13.944,15.291 15.428,13.160 15.885 C 12.554 16.015,11.446 16.015,10.840 15.885 C 8.706 15.427,7.013 13.947,6.329 11.940 C 6.158 11.439,6.083 11.041,6.021 10.310 C 5.975 9.763,5.954 9.657,5.866 9.506 C 5.628 9.101,5.146 8.916,4.695 9.057 " stroke="none" fill-rule="evenodd" fill="black"></path></svg>