<svg xmlns="http://www.w3.org/2000/svg" width="24" height="24" viewBox="0 0 24 24" fill="none" stroke="currentColor" stroke-width="2" stroke-linecap="round" stroke-linejoin="round"><path d="M2.670 2.061 C 2.448 2.142,2.250 2.309,2.128 2.516 C 2.036 2.672,2.020 2.745,2.021 3.000 C 2.021 3.213,2.043 3.340,2.096 3.440 C 2.136 3.517,2.493 3.907,2.889 4.306 L 3.609 5.032 3.393 5.095 C 2.952 5.223,2.432 5.662,2.216 6.088 C 1.991 6.531,2.000 6.293,2.000 12.000 C 2.000 17.733,1.990 17.466,2.225 17.930 C 2.361 18.199,2.801 18.639,3.070 18.775 C 3.539 19.013,3.110 19.000,10.659 19.000 L 17.580 19.000 18.960 20.383 C 19.719 21.143,20.421 21.814,20.520 21.873 C 20.673 21.964,20.746 21.980,21.000 21.980 C 21.257 21.980,21.327 21.964,21.492 21.867 C 21.968 21.587,22.139 20.967,21.865 20.508 C 21.810 20.416,17.665 16.243,12.653 11.235 C 4.231 2.820,3.525 2.125,3.343 2.065 C 3.107 1.987,2.874 1.986,2.670 2.061 M9.695 5.057 C 9.466 5.129,9.256 5.299,9.128 5.516 C 9.037 5.672,9.020 5.746,9.020 6.000 C 9.020 6.256,9.036 6.328,9.131 6.489 C 9.256 6.702,9.449 6.864,9.670 6.943 C 9.788 6.985,10.269 6.997,11.909 6.998 L 13.997 7.000 14.009 9.153 L 14.020 11.306 14.141 11.503 C 14.543 12.156,15.457 12.156,15.859 11.503 L 15.980 11.306 15.991 9.153 L 16.003 7.000 18.001 7.000 L 19.999 7.000 20.009 12.153 L 20.020 17.306 20.141 17.503 C 20.543 18.156,21.457 18.156,21.859 17.503 L 21.980 17.306 21.991 12.052 C 22.002 6.337,22.009 6.532,21.782 6.083 C 21.646 5.816,21.297 5.449,21.017 5.281 C 20.533 4.989,20.860 5.005,15.060 5.005 C 10.920 5.005,9.826 5.016,9.695 5.057 M6.576 7.996 C 7.366 8.786,7.555 8.996,7.495 9.012 C 7.454 9.024,7.321 9.054,7.200 9.080 C 6.938 9.136,6.175 9.501,5.914 9.696 C 5.670 9.878,5.509 10.198,5.509 10.500 C 5.509 10.952,5.806 11.330,6.268 11.464 C 6.557 11.548,6.749 11.502,7.200 11.242 C 7.680 10.965,7.751 10.957,8.100 11.142 C 8.734 11.479,8.919 11.567,9.315 11.723 C 9.759 11.898,10.161 11.998,10.421 11.999 C 10.567 12.000,10.608 12.026,10.861 12.281 C 11.087 12.510,11.129 12.570,11.080 12.601 C 11.047 12.622,11.007 12.639,10.991 12.639 C 10.976 12.640,10.869 12.723,10.755 12.824 C 10.575 12.984,10.530 13.006,10.415 12.987 C 10.224 12.956,9.577 12.672,9.183 12.446 C 8.512 12.062,7.880 11.931,7.296 12.057 C 6.947 12.133,6.218 12.470,5.914 12.696 C 5.670 12.878,5.509 13.198,5.509 13.500 C 5.509 13.952,5.806 14.330,6.268 14.464 C 6.557 14.548,6.749 14.502,7.200 14.242 C 7.680 13.965,7.751 13.957,8.100 14.143 C 8.947 14.593,9.422 14.798,9.908 14.922 C 10.624 15.105,11.328 14.951,11.908 14.483 C 12.120 14.312,12.366 14.034,12.411 13.912 C 12.423 13.880,12.739 14.166,13.216 14.640 L 14.000 15.419 14.000 16.210 L 14.000 17.000 9.000 17.000 L 4.000 17.000 4.000 12.000 L 4.000 7.000 4.790 7.000 L 5.581 7.000 6.576 7.996 M17.695 8.055 C 17.464 8.130,17.255 8.300,17.128 8.516 C 17.037 8.672,17.020 8.746,17.020 9.000 C 17.020 9.257,17.036 9.327,17.133 9.492 C 17.651 10.374,18.998 10.018,18.998 9.000 C 18.998 8.623,18.792 8.281,18.463 8.112 C 18.265 8.010,17.911 7.984,17.695 8.055 M17.695 11.055 C 17.464 11.130,17.255 11.300,17.128 11.516 C 17.037 11.672,17.020 11.746,17.020 12.000 C 17.020 12.257,17.036 12.327,17.133 12.492 C 17.651 13.374,18.998 13.018,18.998 12.000 C 18.998 11.623,18.792 11.281,18.463 11.112 C 18.265 11.010,17.911 10.984,17.695 11.055 " stroke="none" fill-rule="evenodd" fill="black"></path></svg>