<svg xmlns="http://www.w3.org/2000/svg" width="24" height="24" viewBox="0 0 24 24" fill="none" stroke="currentColor" stroke-width="2" stroke-linecap="round" stroke-linejoin="round"><path d="M16.670 2.061 C 16.448 2.142,16.250 2.309,16.128 2.516 C 16.036 2.672,16.020 2.745,16.021 3.000 C 16.021 3.212,16.043 3.341,16.095 3.440 C 16.196 3.632,19.296 6.739,19.520 6.873 C 19.672 6.964,19.746 6.980,20.000 6.980 C 20.257 6.980,20.327 6.964,20.492 6.867 C 20.968 6.587,21.138 5.968,20.866 5.508 C 20.811 5.416,20.040 4.618,19.153 3.736 C 17.714 2.305,17.519 2.124,17.343 2.066 C 17.108 1.987,16.875 1.986,16.670 2.061 M14.640 4.068 C 14.485 4.121,14.036 4.553,11.347 7.235 C 9.570 9.008,8.188 10.417,8.127 10.520 C 8.036 10.672,8.020 10.746,8.020 11.000 C 8.020 11.391,8.100 11.527,8.657 12.079 L 9.079 12.497 8.625 12.959 C 8.069 13.523,8.022 13.604,8.021 14.000 C 8.020 14.258,8.036 14.327,8.133 14.492 C 8.338 14.842,8.705 15.029,9.105 14.988 C 9.409 14.957,9.533 14.876,10.041 14.375 L 10.503 13.921 10.921 14.343 C 11.474 14.900,11.609 14.980,12.000 14.979 C 12.212 14.979,12.341 14.957,12.440 14.905 C 12.517 14.865,13.294 14.120,14.166 13.250 L 15.752 11.669 16.000 12.003 C 16.316 12.430,16.690 13.194,16.817 13.674 C 17.215 15.177,16.915 16.765,16.001 17.995 C 15.412 18.786,14.446 19.478,13.540 19.758 C 12.832 19.977,12.902 19.972,10.370 19.989 L 8.000 20.005 8.000 19.507 L 8.000 19.009 8.179 18.982 C 8.422 18.946,8.712 18.742,8.859 18.503 C 8.966 18.329,8.980 18.271,8.980 18.003 C 8.980 17.746,8.964 17.672,8.872 17.516 C 8.740 17.293,8.533 17.128,8.290 17.055 C 8.030 16.977,5.970 16.977,5.710 17.055 C 5.467 17.128,5.260 17.293,5.128 17.516 C 5.036 17.672,5.020 17.746,5.020 18.003 C 5.020 18.271,5.034 18.329,5.141 18.503 C 5.288 18.742,5.578 18.946,5.821 18.982 L 6.000 19.009 6.000 19.505 L 6.000 20.000 5.446 20.000 C 4.648 20.000,4.367 20.110,4.128 20.516 C 4.037 20.672,4.020 20.746,4.020 21.000 C 4.020 21.256,4.036 21.328,4.131 21.489 C 4.256 21.702,4.449 21.864,4.670 21.943 C 4.893 22.022,19.107 22.022,19.330 21.943 C 19.551 21.864,19.744 21.702,19.869 21.489 C 19.964 21.328,19.980 21.256,19.980 21.000 C 19.980 20.746,19.963 20.672,19.872 20.516 C 19.813 20.415,19.698 20.282,19.618 20.221 C 19.355 20.020,19.207 20.000,18.005 20.000 L 16.903 20.000 17.104 19.790 C 18.086 18.767,18.761 17.325,18.959 15.827 C 19.012 15.420,19.011 14.634,18.956 14.180 C 18.797 12.871,18.202 11.486,17.383 10.520 L 17.163 10.260 17.997 9.420 C 18.455 8.958,18.864 8.517,18.905 8.440 C 18.957 8.341,18.979 8.213,18.979 8.000 C 18.980 7.746,18.964 7.673,18.873 7.520 C 18.814 7.421,18.040 6.618,17.153 5.736 C 15.714 4.305,15.519 4.124,15.343 4.066 C 15.102 3.986,14.878 3.986,14.640 4.068 M15.800 7.220 L 16.580 8.000 14.290 10.290 L 12.000 12.580 11.210 11.790 L 10.420 11.000 12.700 8.720 C 13.954 7.466,14.989 6.440,15.000 6.440 C 15.012 6.440,15.371 6.791,15.800 7.220 " stroke="none" fill-rule="evenodd" fill="black"></path></svg>