<svg xmlns="http://www.w3.org/2000/svg" width="24" height="24" viewBox="0 0 24 24" fill="none" stroke="currentColor" stroke-width="2" stroke-linecap="round" stroke-linejoin="round"><path d="M2.670 2.061 C 2.448 2.142,2.250 2.309,2.128 2.516 C 2.036 2.672,2.020 2.745,2.021 3.000 C 2.021 3.212,2.043 3.341,2.095 3.440 C 2.135 3.517,3.610 5.024,5.372 6.788 L 8.575 9.996 8.373 10.210 C 8.076 10.524,8.022 10.646,8.021 11.000 C 8.020 11.391,8.100 11.526,8.657 12.079 L 9.079 12.497 8.625 12.959 C 8.069 13.523,8.022 13.604,8.021 14.000 C 8.020 14.258,8.036 14.327,8.133 14.492 C 8.338 14.842,8.705 15.029,9.105 14.988 C 9.409 14.957,9.533 14.876,10.041 14.375 L 10.503 13.921 10.921 14.343 C 11.474 14.900,11.609 14.980,12.000 14.979 C 12.354 14.978,12.476 14.924,12.790 14.627 L 13.004 14.424 14.624 16.044 L 16.244 17.664 16.038 17.942 C 15.316 18.919,14.287 19.597,13.083 19.890 C 12.759 19.969,12.609 19.975,10.370 19.989 L 8.000 20.005 8.000 19.507 L 8.000 19.009 8.179 18.982 C 8.422 18.946,8.712 18.742,8.859 18.503 C 8.966 18.329,8.980 18.271,8.980 18.003 C 8.980 17.746,8.964 17.672,8.872 17.516 C 8.740 17.293,8.533 17.128,8.290 17.055 C 8.030 16.977,5.970 16.977,5.710 17.055 C 5.467 17.128,5.260 17.293,5.128 17.516 C 5.036 17.672,5.020 17.746,5.020 18.003 C 5.020 18.271,5.034 18.329,5.141 18.503 C 5.288 18.742,5.578 18.946,5.821 18.982 L 6.000 19.009 6.000 19.505 L 6.000 20.000 5.446 20.000 C 4.648 20.000,4.367 20.110,4.128 20.516 C 4.037 20.672,4.020 20.746,4.020 21.000 C 4.020 21.257,4.036 21.327,4.133 21.492 C 4.261 21.709,4.502 21.901,4.722 21.961 C 4.821 21.987,7.333 21.997,12.089 21.990 L 19.306 21.980 19.503 21.859 C 19.612 21.792,19.756 21.654,19.825 21.552 L 19.950 21.367 20.145 21.566 C 20.462 21.891,20.646 21.980,21.000 21.980 C 21.257 21.980,21.327 21.964,21.492 21.867 C 21.968 21.587,22.139 20.967,21.865 20.508 C 21.810 20.416,17.665 16.243,12.653 11.235 C 4.231 2.820,3.525 2.125,3.343 2.065 C 3.107 1.987,2.874 1.986,2.670 2.061 M16.670 2.061 C 16.448 2.142,16.250 2.309,16.128 2.516 C 16.036 2.672,16.020 2.745,16.021 3.000 C 16.021 3.212,16.043 3.341,16.095 3.440 C 16.196 3.632,19.296 6.739,19.520 6.873 C 19.672 6.964,19.746 6.980,20.000 6.980 C 20.257 6.980,20.327 6.964,20.492 6.867 C 20.968 6.587,21.138 5.968,20.866 5.508 C 20.811 5.416,20.040 4.618,19.153 3.736 C 17.714 2.305,17.519 2.124,17.343 2.066 C 17.108 1.987,16.875 1.986,16.670 2.061 M14.640 4.069 C 14.488 4.121,14.208 4.381,12.847 5.735 C 11.960 6.618,11.186 7.421,11.127 7.520 C 11.037 7.672,11.020 7.746,11.020 8.000 C 11.020 8.257,11.036 8.327,11.133 8.492 C 11.263 8.714,11.502 8.901,11.736 8.965 C 11.939 9.019,12.267 8.989,12.445 8.899 C 12.519 8.862,13.125 8.289,13.790 7.626 L 15.001 6.421 15.790 7.210 L 16.579 7.999 15.374 9.210 C 14.711 9.875,14.136 10.483,14.095 10.560 C 14.043 10.660,14.021 10.787,14.021 11.003 C 14.020 11.271,14.034 11.329,14.141 11.503 C 14.449 12.002,15.078 12.144,15.557 11.822 L 15.754 11.689 15.870 11.835 C 16.376 12.471,16.599 12.949,16.936 14.124 C 17.028 14.443,17.192 14.651,17.453 14.778 C 18.124 15.107,18.886 14.640,18.886 13.901 C 18.886 13.488,18.579 12.524,18.224 11.823 C 17.983 11.348,17.702 10.919,17.345 10.480 L 17.165 10.260 17.998 9.420 C 18.456 8.958,18.864 8.517,18.905 8.440 C 18.957 8.341,18.979 8.213,18.979 8.000 C 18.980 7.746,18.964 7.673,18.873 7.520 C 18.814 7.421,18.040 6.618,17.153 5.736 C 15.714 4.305,15.519 4.124,15.343 4.066 C 15.102 3.985,14.878 3.986,14.640 4.069 M18.140 19.560 L 18.579 20.000 17.745 20.000 L 16.911 20.000 17.145 19.748 C 17.274 19.610,17.443 19.412,17.520 19.309 C 17.597 19.207,17.669 19.122,17.681 19.121 C 17.692 19.121,17.899 19.318,18.140 19.560 " stroke="none" fill-rule="evenodd" fill="black"></path></svg>