<svg xmlns="http://www.w3.org/2000/svg" width="24" height="24" viewBox="0 0 24 24" fill="none" stroke="currentColor" stroke-width="2" stroke-linecap="round" stroke-linejoin="round"><path d="M11.358 1.061 C 9.725 1.316,8.421 2.580,8.079 4.241 C 7.959 4.826,7.980 5.241,8.144 5.508 C 8.539 6.150,9.458 6.154,9.851 5.515 C 9.943 5.366,9.972 5.258,10.001 4.955 C 10.047 4.473,10.122 4.230,10.314 3.937 C 10.810 3.181,11.661 2.848,12.523 3.073 C 13.212 3.253,13.795 3.860,13.941 4.549 C 14.028 4.957,14.027 9.974,13.940 10.426 C 13.853 10.879,13.863 11.070,13.984 11.312 C 14.290 11.927,15.049 12.059,15.554 11.586 C 15.723 11.426,15.811 11.253,15.903 10.900 C 15.969 10.644,15.977 10.362,15.989 7.634 C 16.003 4.763,16.000 4.634,15.922 4.251 C 15.721 3.264,15.199 2.417,14.438 1.843 C 13.866 1.412,13.276 1.160,12.605 1.058 C 12.144 0.989,11.816 0.990,11.358 1.061 M2.670 2.061 C 2.448 2.142,2.250 2.309,2.128 2.516 C 2.037 2.672,2.020 2.746,2.020 3.000 C 2.020 3.254,2.036 3.327,2.127 3.480 C 2.188 3.581,3.495 4.919,5.117 6.540 L 8.000 9.420 8.000 9.880 C 8.000 10.781,8.218 11.523,8.699 12.261 C 9.058 12.810,9.872 13.468,10.482 13.701 C 11.063 13.923,11.302 13.968,11.957 13.982 L 12.574 13.995 13.366 14.786 C 13.802 15.221,14.145 15.590,14.129 15.605 C 14.092 15.640,13.619 15.785,13.304 15.857 C 12.557 16.028,11.571 16.039,10.812 15.883 C 9.267 15.566,7.875 14.632,7.022 13.340 C 6.394 12.390,6.086 11.441,6.005 10.212 C 5.975 9.752,5.957 9.662,5.866 9.506 C 5.481 8.850,4.518 8.852,4.132 9.509 C 3.999 9.737,3.970 10.121,4.037 10.768 C 4.193 12.277,4.755 13.695,5.674 14.900 C 5.950 15.261,6.659 15.977,7.020 16.260 C 8.040 17.057,9.263 17.622,10.447 17.844 C 10.696 17.891,10.922 17.935,10.950 17.943 C 10.988 17.954,11.000 18.196,11.000 18.979 L 11.000 20.000 9.446 20.000 C 7.758 20.000,7.658 20.011,7.382 20.221 C 7.302 20.282,7.187 20.415,7.128 20.516 C 7.037 20.672,7.020 20.746,7.020 21.000 C 7.020 21.256,7.036 21.328,7.131 21.489 C 7.256 21.702,7.449 21.864,7.670 21.943 C 7.892 22.022,16.108 22.022,16.330 21.943 C 16.551 21.864,16.744 21.702,16.869 21.489 C 16.964 21.328,16.980 21.256,16.980 21.000 C 16.980 20.746,16.963 20.672,16.872 20.516 C 16.813 20.415,16.698 20.282,16.618 20.221 C 16.342 20.011,16.242 20.000,14.554 20.000 L 13.000 20.000 13.000 18.960 L 13.000 17.920 13.110 17.919 C 13.488 17.917,14.679 17.573,15.290 17.290 L 15.685 17.106 18.053 19.469 C 19.355 20.769,20.483 21.865,20.560 21.905 C 20.659 21.957,20.788 21.979,21.000 21.979 C 21.258 21.980,21.327 21.964,21.492 21.867 C 21.968 21.587,22.139 20.967,21.865 20.508 C 21.810 20.416,17.665 16.243,12.653 11.235 C 4.231 2.820,3.525 2.125,3.343 2.065 C 3.107 1.987,2.874 1.986,2.670 2.061 M18.725 9.040 C 18.523 9.088,18.276 9.279,18.146 9.489 C 18.042 9.658,18.028 9.726,17.996 10.188 C 17.909 11.446,17.722 12.039,17.004 13.327 C 16.843 13.615,16.808 13.883,16.895 14.146 C 17.119 14.820,17.950 15.064,18.479 14.612 C 18.784 14.351,19.351 13.273,19.613 12.458 C 19.942 11.436,20.093 10.127,19.936 9.666 C 19.774 9.192,19.244 8.918,18.725 9.040 " stroke="none" fill-rule="evenodd" fill="black"></path></svg>