<svg xmlns="http://www.w3.org/2000/svg" width="24" height="24" viewBox="0 0 24 24" fill="none" stroke="currentColor" stroke-width="2" stroke-linecap="round" stroke-linejoin="round"><path d="M2.670 2.061 C 2.448 2.142,2.250 2.309,2.128 2.516 C 2.037 2.672,2.020 2.746,2.020 3.000 C 2.020 3.254,2.036 3.327,2.127 3.480 C 2.188 3.582,3.640 5.064,5.477 6.900 C 7.261 8.682,8.720 10.153,8.720 10.170 C 8.720 10.187,7.318 11.803,5.604 13.761 C 2.295 17.544,2.313 17.520,2.114 18.160 C 2.033 18.418,2.020 18.539,2.023 19.020 C 2.026 19.508,2.039 19.620,2.128 19.887 C 2.448 20.852,3.193 21.585,4.160 21.886 C 4.594 22.021,5.406 22.021,5.840 21.886 C 6.479 21.687,6.456 21.706,10.239 18.396 C 12.197 16.682,13.813 15.280,13.830 15.280 C 13.847 15.280,15.318 16.739,17.100 18.523 C 18.936 20.360,20.418 21.812,20.520 21.873 C 20.673 21.964,20.746 21.980,21.000 21.980 C 21.257 21.980,21.327 21.964,21.492 21.867 C 21.968 21.587,22.139 20.967,21.865 20.508 C 21.810 20.416,17.665 16.243,12.653 11.235 C 4.231 2.820,3.525 2.125,3.343 2.065 C 3.107 1.987,2.874 1.986,2.670 2.061 M15.320 2.041 C 13.977 2.206,12.724 2.811,11.787 3.747 C 10.986 4.546,10.490 5.403,10.203 6.480 C 10.055 7.033,10.050 7.233,10.174 7.500 C 10.466 8.125,11.270 8.292,11.753 7.828 C 11.936 7.653,11.993 7.531,12.123 7.037 C 12.184 6.802,12.288 6.493,12.353 6.348 C 12.852 5.247,13.893 4.395,15.111 4.091 C 15.308 4.042,15.545 4.025,16.000 4.027 C 16.529 4.029,16.676 4.044,17.000 4.130 C 17.723 4.321,18.286 4.646,18.820 5.180 C 19.525 5.885,19.909 6.726,19.982 7.724 C 20.066 8.885,19.651 9.988,18.810 10.835 C 18.278 11.371,17.744 11.673,16.967 11.876 C 16.479 12.004,16.346 12.065,16.192 12.226 C 15.743 12.700,15.875 13.509,16.450 13.804 C 16.779 13.974,17.162 13.935,17.980 13.651 C 19.407 13.156,20.593 12.135,21.298 10.793 C 21.561 10.294,21.762 9.730,21.886 9.148 C 22.003 8.601,22.014 7.481,21.907 6.940 C 21.533 5.034,20.356 3.476,18.660 2.640 C 18.116 2.372,17.709 2.233,17.136 2.119 C 16.673 2.027,15.755 1.988,15.320 2.041 M11.299 12.719 C 11.985 13.405,12.403 13.852,12.379 13.873 C 11.531 14.638,5.549 19.833,5.447 19.893 C 5.218 20.028,4.763 20.017,4.514 19.871 C 3.995 19.565,3.851 18.863,4.212 18.402 C 4.399 18.164,10.136 11.606,10.160 11.603 C 10.171 11.601,10.684 12.104,11.299 12.719 " stroke="none" fill-rule="evenodd" fill="black"></path></svg>