<svg xmlns="http://www.w3.org/2000/svg" width="24" height="24" viewBox="0 0 24 24" fill="none" stroke="currentColor" stroke-width="2" stroke-linecap="round" stroke-linejoin="round"><path d="M11.675 2.059 C 11.596 2.088,10.129 3.047,8.415 4.190 C 5.128 6.382,5.146 6.369,5.041 6.740 C 5.008 6.857,4.999 8.606,5.008 13.240 L 5.020 19.580 5.114 19.860 C 5.446 20.851,6.184 21.582,7.160 21.886 L 7.460 21.980 12.000 21.980 L 16.540 21.980 16.840 21.886 C 17.816 21.582,18.554 20.851,18.886 19.860 L 18.980 19.580 18.992 13.240 C 19.001 8.606,18.992 6.857,18.959 6.740 C 18.854 6.369,18.872 6.382,15.586 4.191 C 13.873 3.048,12.399 2.088,12.310 2.057 C 12.114 1.987,11.868 1.988,11.675 2.059 M14.500 5.867 L 17.000 7.533 17.000 13.320 C 17.000 18.108,16.991 19.139,16.945 19.290 C 16.872 19.533,16.707 19.740,16.484 19.872 L 16.300 19.980 12.000 19.980 L 7.700 19.980 7.516 19.872 C 7.415 19.813,7.284 19.700,7.225 19.623 C 6.987 19.311,7.000 19.672,7.000 13.342 L 7.000 7.533 9.490 5.869 C 10.860 4.954,11.985 4.204,11.990 4.203 C 11.996 4.201,13.125 4.950,14.500 5.867 M11.700 7.054 C 11.612 7.083,11.063 7.346,10.480 7.638 C 9.703 8.028,9.381 8.210,9.275 8.321 C 9.116 8.488,9.000 8.773,9.000 9.000 C 9.000 9.406,9.293 9.811,9.678 9.939 C 10.042 10.060,10.188 10.021,11.145 9.546 L 12.000 9.122 12.855 9.546 C 13.812 10.021,13.958 10.060,14.322 9.939 C 14.707 9.811,15.000 9.406,15.000 9.000 C 15.000 8.773,14.884 8.488,14.725 8.321 C 14.617 8.209,14.285 8.023,13.440 7.602 C 12.205 6.987,12.048 6.938,11.700 7.054 M11.700 11.054 C 11.612 11.083,11.063 11.346,10.480 11.638 C 9.703 12.028,9.381 12.210,9.275 12.321 C 9.116 12.488,9.000 12.773,9.000 13.000 C 9.000 13.406,9.293 13.811,9.678 13.939 C 10.042 14.060,10.188 14.021,11.145 13.546 L 12.000 13.122 12.855 13.546 C 13.812 14.021,13.958 14.060,14.322 13.939 C 14.707 13.811,15.000 13.406,15.000 13.000 C 15.000 12.773,14.884 12.488,14.725 12.321 C 14.617 12.209,14.285 12.023,13.440 11.602 C 12.205 10.987,12.048 10.938,11.700 11.054 M11.700 15.054 C 11.612 15.083,11.063 15.346,10.480 15.638 C 9.703 16.028,9.381 16.210,9.275 16.321 C 9.116 16.488,9.000 16.773,9.000 17.000 C 9.000 17.406,9.293 17.811,9.678 17.939 C 10.042 18.060,10.188 18.021,11.145 17.546 L 12.000 17.122 12.855 17.546 C 13.812 18.021,13.958 18.060,14.322 17.939 C 14.707 17.811,15.000 17.406,15.000 17.000 C 15.000 16.773,14.884 16.488,14.725 16.321 C 14.617 16.209,14.285 16.023,13.440 15.602 C 12.205 14.987,12.048 14.938,11.700 15.054 " stroke="none" fill-rule="evenodd" fill="black"></path></svg>