<svg xmlns="http://www.w3.org/2000/svg" width="24" height="24" viewBox="0 0 24 24" fill="none" stroke="currentColor" stroke-width="2" stroke-linecap="round" stroke-linejoin="round"><path d="M11.695 2.057 C 11.466 2.129,11.256 2.299,11.128 2.516 C 11.025 2.692,11.019 2.730,11.000 3.397 L 10.980 4.094 10.700 4.150 C 10.546 4.180,10.258 4.261,10.060 4.329 C 8.059 5.012,6.543 6.743,6.125 8.820 C 6.055 9.167,6.029 9.231,5.932 9.299 C 5.701 9.463,5.323 9.876,5.223 10.074 C 5.036 10.443,5.000 10.673,5.000 11.500 C 5.000 12.329,5.036 12.556,5.225 12.930 C 5.350 13.177,5.793 13.634,6.020 13.750 L 6.180 13.832 7.037 17.263 C 7.647 19.708,7.926 20.760,8.009 20.926 C 8.153 21.214,8.528 21.590,8.831 21.751 C 9.297 21.999,9.306 22.000,12.000 22.000 C 14.692 22.000,14.703 21.999,15.167 21.753 C 15.292 21.686,15.492 21.536,15.613 21.419 C 16.035 21.007,16.003 21.104,16.957 17.290 L 17.823 13.831 17.981 13.749 C 18.205 13.635,18.649 13.178,18.771 12.937 C 18.959 12.566,19.000 12.312,18.999 11.514 C 18.999 10.710,18.955 10.424,18.777 10.074 C 18.677 9.876,18.299 9.463,18.068 9.299 C 17.971 9.231,17.945 9.167,17.875 8.820 C 17.503 6.973,16.317 5.450,14.580 4.590 C 14.230 4.417,13.666 4.223,13.300 4.150 L 13.020 4.094 13.000 3.397 C 12.981 2.730,12.975 2.692,12.872 2.516 C 12.628 2.101,12.150 1.915,11.695 2.057 M12.605 6.058 C 14.062 6.278,15.287 7.302,15.780 8.712 L 15.874 8.980 13.937 8.990 C 12.872 8.996,11.128 8.996,10.063 8.990 L 8.126 8.980 8.220 8.712 C 8.707 7.320,9.934 6.283,11.358 6.061 C 11.816 5.990,12.144 5.989,12.605 6.058 M17.000 11.500 L 17.000 12.000 12.000 12.000 L 7.000 12.000 7.000 11.500 L 7.000 11.000 12.000 11.000 L 17.000 11.000 17.000 11.500 M15.711 14.050 C 15.701 14.078,15.361 15.428,14.957 17.050 L 14.221 20.000 12.000 20.000 L 9.779 20.000 9.043 17.050 C 8.639 15.428,8.299 14.078,8.289 14.050 C 8.275 14.010,9.034 14.000,12.000 14.000 C 14.966 14.000,15.725 14.010,15.711 14.050 " stroke="none" fill-rule="evenodd" fill="black"></path></svg>