<svg xmlns="http://www.w3.org/2000/svg" width="24" height="24" viewBox="0 0 24 24" fill="none" stroke="currentColor" stroke-width="2" stroke-linecap="round" stroke-linejoin="round"><path d="M7.700 2.049 C 7.455 2.135,2.421 5.181,2.274 5.332 C 1.977 5.636,1.998 4.985,2.010 13.585 L 2.020 21.306 2.141 21.503 C 2.543 22.156,3.457 22.156,3.859 21.503 L 3.980 21.306 3.991 18.153 L 4.002 15.000 5.500 15.000 L 6.998 15.000 7.009 18.153 L 7.020 21.306 7.141 21.503 C 7.543 22.156,8.457 22.156,8.859 21.503 L 8.980 21.306 8.991 18.153 L 9.002 15.000 10.500 15.000 L 11.998 15.000 12.009 18.153 L 12.020 21.306 12.141 21.503 C 12.543 22.156,13.457 22.156,13.859 21.503 L 13.980 21.306 13.991 17.709 L 14.002 14.112 14.111 14.137 C 14.171 14.151,14.373 14.236,14.560 14.327 C 14.820 14.454,14.966 14.559,15.180 14.776 C 15.681 15.284,15.980 15.909,16.484 17.507 C 16.886 18.780,17.120 19.398,17.367 19.834 C 17.970 20.901,18.771 21.570,19.768 21.838 C 20.518 22.039,21.181 22.049,21.497 21.864 C 22.248 21.424,22.119 20.305,21.290 20.055 C 21.189 20.025,21.016 20.000,20.904 19.999 C 20.792 19.999,20.581 19.973,20.435 19.942 C 19.554 19.756,19.132 19.188,18.562 17.420 C 17.965 15.569,17.784 15.094,17.449 14.500 C 17.184 14.030,16.947 13.713,16.599 13.361 C 15.989 12.745,15.298 12.370,14.387 12.160 L 14.000 12.070 14.000 8.982 C 14.000 5.529,14.007 5.619,13.729 5.335 C 13.570 5.172,8.534 2.130,8.284 2.046 C 8.119 1.990,7.862 1.991,7.700 2.049 M10.010 5.380 L 12.000 6.572 12.000 9.786 L 12.000 13.000 8.000 13.000 L 4.000 13.000 4.000 9.782 L 4.000 6.564 5.990 5.368 C 7.085 4.710,7.989 4.175,8.000 4.180 C 8.011 4.184,8.915 4.724,10.010 5.380 M7.499 7.040 C 6.363 7.246,5.454 8.055,5.115 9.160 C 5.045 9.390,5.023 9.559,5.022 9.883 C 5.020 10.285,5.026 10.315,5.141 10.503 C 5.537 11.147,6.457 11.156,6.849 10.520 C 6.927 10.392,6.971 10.249,6.999 10.031 C 7.049 9.636,7.114 9.485,7.321 9.283 C 7.490 9.120,7.777 9.000,8.000 9.000 C 8.223 9.000,8.510 9.120,8.679 9.283 C 8.886 9.485,8.951 9.636,9.001 10.031 C 9.049 10.410,9.184 10.647,9.452 10.828 C 9.923 11.144,10.554 10.998,10.859 10.503 C 10.974 10.315,10.980 10.285,10.978 9.883 C 10.977 9.559,10.955 9.390,10.885 9.160 C 10.586 8.184,9.811 7.407,8.861 7.129 C 8.500 7.023,7.832 6.980,7.499 7.040 " stroke="none" fill-rule="evenodd" fill="black"></path></svg>