<svg xmlns="http://www.w3.org/2000/svg" width="24" height="24" viewBox="0 0 24 24" fill="none" stroke="currentColor" stroke-width="2" stroke-linecap="round" stroke-linejoin="round"><path d="M11.080 2.045 C 9.507 2.184,7.883 2.751,6.540 3.630 C 5.905 4.045,5.499 4.378,4.919 4.958 C 2.953 6.926,1.919 9.544,2.013 12.320 C 2.084 14.439,2.752 16.328,4.033 18.040 C 4.430 18.570,5.305 19.464,5.800 19.847 C 7.242 20.961,8.787 21.624,10.600 21.907 C 11.247 22.008,12.753 22.008,13.400 21.907 C 15.638 21.557,17.504 20.620,19.062 19.062 C 20.620 17.504,21.557 15.638,21.907 13.400 C 22.008 12.753,22.008 11.247,21.907 10.600 C 21.624 8.786,20.959 7.238,19.847 5.800 C 19.510 5.365,18.639 4.494,18.200 4.154 C 16.133 2.555,13.646 1.818,11.080 2.045 M12.734 4.041 C 14.574 4.216,16.228 4.976,17.554 6.256 C 20.043 8.658,20.702 12.394,19.183 15.499 C 18.749 16.387,18.223 17.105,17.496 17.801 C 16.876 18.394,16.262 18.819,15.471 19.200 C 13.267 20.265,10.733 20.265,8.529 19.200 C 7.477 18.693,6.612 18.015,5.847 17.100 C 3.848 14.711,3.440 11.302,4.816 8.500 C 5.458 7.193,6.420 6.098,7.617 5.311 C 7.973 5.077,8.883 4.600,8.973 4.600 C 9.006 4.600,9.021 4.738,9.022 5.070 C 9.024 5.441,9.044 5.603,9.116 5.840 C 9.412 6.811,10.179 7.583,11.137 7.877 C 11.481 7.982,12.040 8.026,12.264 7.965 C 12.498 7.901,12.737 7.714,12.867 7.492 C 12.964 7.327,12.980 7.257,12.980 7.000 C 12.980 6.746,12.963 6.672,12.872 6.516 C 12.758 6.323,12.561 6.149,12.375 6.078 C 12.314 6.055,12.130 6.019,11.966 5.998 C 11.622 5.955,11.387 5.835,11.225 5.623 C 10.906 5.204,10.938 4.669,11.304 4.303 C 11.598 4.008,11.867 3.959,12.734 4.041 M8.695 9.055 C 8.464 9.130,8.255 9.300,8.128 9.516 C 8.037 9.672,8.020 9.746,8.020 10.000 C 8.020 10.257,8.036 10.327,8.133 10.492 C 8.651 11.374,9.998 11.018,9.998 10.000 C 9.998 9.623,9.792 9.281,9.463 9.112 C 9.265 9.010,8.911 8.984,8.695 9.055 M14.695 9.055 C 14.464 9.130,14.255 9.300,14.128 9.516 C 14.037 9.672,14.020 9.746,14.020 10.000 C 14.020 10.257,14.036 10.327,14.133 10.492 C 14.651 11.374,15.998 11.018,15.998 10.000 C 15.998 9.623,15.792 9.281,15.463 9.112 C 15.265 9.010,14.911 8.984,14.695 9.055 M9.240 14.035 C 8.784 14.184,8.512 14.546,8.512 15.003 C 8.512 15.328,8.619 15.534,8.945 15.841 C 9.445 16.312,9.995 16.630,10.661 16.835 C 11.174 16.993,11.481 17.039,12.000 17.039 C 12.519 17.039,12.826 16.993,13.339 16.835 C 14.005 16.630,14.555 16.312,15.055 15.841 C 15.381 15.534,15.488 15.328,15.488 15.003 C 15.488 14.732,15.402 14.508,15.228 14.326 C 15.015 14.105,14.819 14.022,14.500 14.022 C 14.164 14.022,14.056 14.072,13.651 14.419 C 13.287 14.730,13.047 14.861,12.657 14.961 C 12.066 15.112,11.314 15.034,10.833 14.772 C 10.723 14.712,10.502 14.552,10.343 14.416 C 10.184 14.280,9.993 14.138,9.920 14.100 C 9.769 14.022,9.390 13.986,9.240 14.035 " stroke="none" fill-rule="evenodd" fill="black"></path></svg>