<svg xmlns="http://www.w3.org/2000/svg" width="24" height="24" viewBox="0 0 24 24" fill="none" stroke="currentColor" stroke-width="2" stroke-linecap="round" stroke-linejoin="round"><path d="M19.440 1.058 C 18.838 1.187,18.375 1.431,17.957 1.839 C 17.601 2.186,17.510 2.362,17.510 2.700 C 17.510 3.008,17.633 3.278,17.855 3.455 C 18.079 3.633,18.247 3.694,18.514 3.691 C 18.804 3.689,19.001 3.601,19.255 3.362 C 19.613 3.027,19.899 2.941,20.284 3.054 C 20.720 3.182,20.978 3.533,20.979 4.000 C 20.980 4.218,20.960 4.295,20.856 4.479 C 20.701 4.752,20.434 4.946,20.169 4.979 C 19.764 5.029,19.565 5.088,19.405 5.205 C 18.835 5.625,18.886 6.502,19.501 6.863 C 19.958 7.131,20.923 6.974,21.622 6.519 C 21.911 6.331,22.369 5.866,22.553 5.575 C 22.851 5.102,23.030 4.365,22.987 3.788 C 22.893 2.520,22.004 1.438,20.780 1.102 C 20.448 1.010,19.765 0.988,19.440 1.058 M11.420 2.024 C 9.089 2.202,7.175 2.982,5.440 4.463 C 4.317 5.420,3.325 6.798,2.749 8.200 C 1.880 10.313,1.770 12.752,2.446 14.932 C 3.176 17.287,4.720 19.270,6.822 20.553 C 8.323 21.468,10.222 22.000,11.991 22.000 C 15.828 22.000,19.350 19.785,21.063 16.295 C 21.504 15.396,21.904 14.042,21.984 13.176 C 22.035 12.624,21.772 12.195,21.296 12.057 C 20.661 11.873,20.110 12.243,20.001 12.929 C 19.835 13.979,19.605 14.737,19.221 15.497 C 17.856 18.200,15.248 19.877,12.240 19.988 C 10.332 20.058,8.377 19.387,6.900 18.154 C 3.025 14.920,3.054 9.003,6.960 5.792 C 7.713 5.173,8.756 4.623,9.701 4.346 C 11.267 3.887,12.826 3.900,14.432 4.384 C 14.950 4.540,14.988 4.543,15.283 4.456 C 15.724 4.325,16.051 3.823,15.978 3.389 C 15.935 3.129,15.776 2.852,15.596 2.722 C 15.323 2.524,14.255 2.229,13.359 2.103 C 12.930 2.043,11.782 1.996,11.420 2.024 M13.695 7.055 C 13.464 7.130,13.255 7.300,13.128 7.516 C 13.037 7.672,13.020 7.746,13.020 8.000 C 13.020 8.257,13.036 8.327,13.133 8.492 C 13.651 9.374,14.998 9.018,14.998 8.000 C 14.998 7.623,14.792 7.281,14.463 7.112 C 14.265 7.010,13.911 6.984,13.695 7.055 M19.695 8.057 C 19.466 8.129,19.256 8.299,19.128 8.516 C 19.036 8.672,19.020 8.745,19.021 9.000 C 19.022 9.332,19.101 9.533,19.306 9.728 C 19.785 10.181,20.580 10.046,20.893 9.460 C 21.025 9.211,21.015 8.760,20.872 8.516 C 20.628 8.101,20.150 7.915,19.695 8.057 M9.695 9.055 C 9.464 9.130,9.255 9.300,9.128 9.516 C 9.037 9.672,9.020 9.746,9.020 10.000 C 9.020 10.257,9.036 10.327,9.133 10.492 C 9.651 11.374,10.998 11.018,10.998 10.000 C 10.998 9.623,10.792 9.281,10.463 9.112 C 10.265 9.010,9.911 8.984,9.695 9.055 M14.580 12.040 C 13.732 12.142,12.885 12.602,12.082 13.396 C 11.564 13.909,11.136 14.450,11.055 14.695 C 10.828 15.379,11.386 16.061,12.112 15.987 C 12.424 15.955,12.631 15.813,12.956 15.405 C 13.472 14.758,14.081 14.247,14.514 14.097 C 14.600 14.068,14.819 14.025,15.001 14.002 C 15.393 13.953,15.627 13.833,15.802 13.591 C 16.207 13.032,15.947 12.253,15.290 12.055 C 15.096 11.996,14.964 11.994,14.580 12.040 " stroke="none" fill-rule="evenodd" fill="black"></path></svg>