<svg xmlns="http://www.w3.org/2000/svg" width="24" height="24" viewBox="0 0 24 24" fill="none" stroke="currentColor" stroke-width="2" stroke-linecap="round" stroke-linejoin="round"><path d="M11.064 2.041 C 9.037 2.272,7.255 2.992,5.760 4.184 C 5.329 4.528,4.540 5.318,4.186 5.760 C 2.768 7.530,2.000 9.737,2.000 12.040 C 2.000 14.548,3.015 17.073,4.754 18.887 C 6.108 20.300,7.879 21.314,9.763 21.755 C 10.504 21.928,10.983 21.978,11.920 21.979 C 12.986 21.980,13.088 21.956,13.378 21.634 C 13.742 21.228,13.733 20.665,13.355 20.284 C 13.105 20.032,12.984 20.002,12.200 20.001 C 11.110 19.999,10.385 19.890,9.500 19.596 C 7.401 18.900,5.696 17.383,4.757 15.376 C 3.931 13.613,3.782 11.667,4.325 9.761 C 4.921 7.671,6.439 5.842,8.382 4.870 C 9.565 4.278,10.651 4.022,11.980 4.021 C 12.761 4.021,13.214 4.067,13.780 4.205 C 16.250 4.808,18.165 6.356,19.243 8.621 C 19.661 9.500,19.886 10.371,19.960 11.404 C 19.985 11.743,20.014 12.096,20.025 12.189 C 20.052 12.420,20.257 12.711,20.497 12.859 C 20.671 12.966,20.729 12.980,20.997 12.980 C 21.256 12.980,21.327 12.964,21.489 12.869 C 21.702 12.744,21.864 12.551,21.943 12.330 C 22.044 12.047,21.985 10.951,21.823 10.108 C 21.435 8.084,20.375 6.164,18.850 4.718 C 17.399 3.343,15.478 2.413,13.440 2.100 C 12.946 2.023,11.526 1.989,11.064 2.041 M8.695 9.055 C 8.464 9.130,8.255 9.300,8.128 9.516 C 8.037 9.672,8.020 9.746,8.020 10.000 C 8.020 10.257,8.036 10.327,8.133 10.492 C 8.651 11.374,9.998 11.018,9.998 10.000 C 9.998 9.623,9.792 9.281,9.463 9.112 C 9.265 9.010,8.911 8.984,8.695 9.055 M14.695 9.055 C 14.464 9.130,14.255 9.300,14.128 9.516 C 14.037 9.672,14.020 9.746,14.020 10.000 C 14.020 10.257,14.036 10.327,14.133 10.492 C 14.651 11.374,15.998 11.018,15.998 10.000 C 15.998 9.623,15.792 9.281,15.463 9.112 C 15.265 9.010,14.911 8.984,14.695 9.055 M9.240 14.035 C 8.786 14.184,8.512 14.547,8.512 14.998 C 8.512 15.339,8.607 15.521,8.958 15.850 C 9.699 16.546,10.682 16.936,11.821 16.987 C 12.502 17.018,12.723 16.961,13.002 16.682 C 13.502 16.182,13.368 15.422,12.720 15.077 C 12.658 15.044,12.397 15.013,12.040 14.997 C 11.195 14.958,10.820 14.822,10.280 14.360 C 10.159 14.256,9.999 14.140,9.924 14.101 C 9.769 14.022,9.391 13.985,9.240 14.035 M18.340 14.060 C 17.913 14.130,17.642 14.217,17.275 14.399 C 16.236 14.915,15.537 15.720,15.185 16.807 C 14.791 18.021,15.052 19.450,15.851 20.460 C 16.124 20.805,16.714 21.363,17.729 22.233 C 18.558 22.945,18.617 22.980,19.000 22.979 C 19.211 22.979,19.339 22.957,19.433 22.907 C 19.586 22.824,20.750 21.830,21.465 21.171 C 22.256 20.443,22.645 19.845,22.868 19.015 C 22.962 18.669,22.975 18.543,22.976 18.000 C 22.977 17.486,22.962 17.325,22.890 17.059 C 22.555 15.825,21.863 14.972,20.736 14.406 C 20.015 14.045,19.175 13.924,18.340 14.060 M19.383 16.043 C 19.962 16.149,20.496 16.556,20.760 17.093 C 20.848 17.273,20.941 17.528,20.964 17.660 C 21.049 18.125,20.934 18.671,20.660 19.101 C 20.538 19.293,19.979 19.839,19.309 20.421 L 18.997 20.691 18.909 20.614 C 17.924 19.754,17.524 19.372,17.355 19.130 C 17.082 18.739,16.949 18.129,17.035 17.660 C 17.107 17.269,17.361 16.802,17.640 16.550 C 18.143 16.095,18.729 15.924,19.383 16.043 M18.695 17.057 C 18.466 17.129,18.256 17.299,18.128 17.516 C 18.036 17.672,18.020 17.745,18.021 18.000 C 18.022 18.332,18.101 18.533,18.306 18.728 C 18.785 19.181,19.580 19.046,19.893 18.460 C 20.025 18.211,20.015 17.760,19.872 17.516 C 19.628 17.101,19.150 16.915,18.695 17.057 " stroke="none" fill-rule="evenodd" fill="black"></path></svg>