<svg xmlns="http://www.w3.org/2000/svg" width="24" height="24" viewBox="0 0 24 24" fill="none" stroke="currentColor" stroke-width="2" stroke-linecap="round" stroke-linejoin="round"><path d="M11.320 2.024 C 11.243 2.033,11.009 2.059,10.800 2.082 C 9.576 2.215,8.173 2.676,7.064 3.310 C 4.634 4.698,2.856 7.085,2.260 9.759 C 2.060 10.653,2.023 11.009,2.023 12.000 C 2.023 12.982,2.066 13.404,2.245 14.180 C 3.144 18.061,6.122 20.984,10.000 21.793 C 10.702 21.940,11.093 21.978,11.900 21.979 C 12.580 21.980,12.728 21.969,12.889 21.907 C 13.118 21.819,13.405 21.515,13.472 21.289 C 13.618 20.804,13.397 20.307,12.942 20.095 C 12.758 20.009,12.686 20.001,12.120 20.000 C 10.756 19.998,9.629 19.743,8.484 19.177 C 6.124 18.010,4.549 15.882,4.091 13.240 C 3.998 12.702,3.999 11.367,4.093 10.809 C 4.401 8.981,5.160 7.507,6.426 6.278 C 7.107 5.618,7.706 5.197,8.529 4.800 C 10.699 3.752,13.248 3.741,15.406 4.770 C 17.107 5.580,18.364 6.829,19.203 8.543 C 19.752 9.664,19.997 10.807,20.001 12.260 C 20.002 12.846,20.047 13.000,20.284 13.237 C 20.757 13.711,21.555 13.586,21.871 12.988 C 21.980 12.781,21.980 12.778,21.978 11.960 C 21.976 11.120,21.934 10.668,21.794 10.000 C 20.926 5.861,17.648 2.756,13.473 2.118 C 12.966 2.041,11.660 1.983,11.320 2.024 M8.695 9.055 C 8.464 9.130,8.255 9.300,8.128 9.516 C 8.037 9.672,8.020 9.746,8.020 10.000 C 8.020 10.257,8.036 10.327,8.133 10.492 C 8.651 11.374,9.998 11.018,9.998 10.000 C 9.998 9.623,9.792 9.281,9.463 9.112 C 9.265 9.010,8.911 8.984,8.695 9.055 M14.695 9.055 C 14.464 9.130,14.255 9.300,14.128 9.516 C 14.037 9.672,14.020 9.746,14.020 10.000 C 14.020 10.257,14.036 10.327,14.133 10.492 C 14.651 11.374,15.998 11.018,15.998 10.000 C 15.998 9.623,15.792 9.281,15.463 9.112 C 15.265 9.010,14.911 8.984,14.695 9.055 M9.240 14.035 C 8.786 14.184,8.512 14.547,8.512 14.998 C 8.512 15.324,8.610 15.523,8.904 15.797 C 10.257 17.063,12.360 17.357,14.051 16.517 C 14.682 16.202,15.296 15.697,15.420 15.389 C 15.562 15.034,15.483 14.592,15.228 14.326 C 15.015 14.105,14.819 14.022,14.500 14.022 C 14.171 14.022,14.060 14.072,13.680 14.388 C 13.192 14.794,12.629 14.999,12.000 14.999 C 11.371 14.999,10.808 14.794,10.320 14.388 C 10.177 14.269,9.999 14.140,9.924 14.101 C 9.769 14.022,9.391 13.985,9.240 14.035 M18.580 15.096 C 18.424 15.171,18.029 15.545,16.774 16.806 C 15.891 17.694,15.135 18.483,15.095 18.560 C 15.043 18.659,15.021 18.788,15.021 19.000 C 15.020 19.258,15.036 19.327,15.133 19.492 C 15.263 19.714,15.502 19.901,15.736 19.965 C 15.939 20.019,16.267 19.989,16.445 19.899 C 16.519 19.861,16.899 19.514,17.289 19.128 L 17.997 18.426 18.009 20.366 L 18.020 22.306 18.141 22.503 C 18.543 23.156,19.457 23.156,19.859 22.503 L 19.980 22.306 19.991 20.366 L 20.003 18.426 20.711 19.128 C 21.101 19.514,21.483 19.864,21.560 19.904 C 21.660 19.957,21.787 19.979,22.000 19.979 C 22.258 19.980,22.327 19.964,22.492 19.867 C 22.714 19.737,22.901 19.498,22.965 19.264 C 23.019 19.061,22.989 18.733,22.899 18.555 C 22.862 18.481,22.109 17.694,21.226 16.806 C 19.472 15.043,19.420 15.001,19.000 15.001 C 18.851 15.001,18.716 15.031,18.580 15.096 " stroke="none" fill-rule="evenodd" fill="black"></path></svg>