<svg xmlns="http://www.w3.org/2000/svg" width="24" height="24" viewBox="0 0 24 24" fill="none" stroke="currentColor" stroke-width="2" stroke-linecap="round" stroke-linejoin="round"><path d="M11.400 2.027 C 9.517 2.162,7.966 2.685,6.440 3.699 C 5.504 4.322,4.678 5.101,4.023 5.980 C 3.556 6.606,3.353 6.937,3.019 7.620 C 2.381 8.923,2.059 10.215,2.013 11.660 C 1.985 12.515,2.037 13.140,2.203 13.980 C 3.149 18.741,7.452 22.148,12.318 21.988 C 13.176 21.959,13.404 21.908,13.645 21.690 C 13.892 21.468,13.978 21.272,13.977 20.940 C 13.974 20.544,13.799 20.246,13.465 20.069 C 13.307 19.986,13.251 19.982,12.200 19.979 C 11.255 19.977,11.038 19.964,10.660 19.892 C 9.298 19.631,8.146 19.124,7.100 18.326 C 6.761 18.066,6.075 17.394,5.789 17.040 C 3.831 14.617,3.453 11.278,4.820 8.492 C 5.247 7.621,5.758 6.921,6.465 6.239 C 7.118 5.609,7.665 5.227,8.500 4.817 C 11.216 3.484,14.483 3.817,16.874 5.669 C 18.388 6.843,19.401 8.447,19.820 10.337 C 19.936 10.860,20.014 11.046,20.186 11.205 C 20.776 11.753,21.735 11.413,21.863 10.611 C 21.912 10.303,21.617 9.127,21.277 8.272 C 20.943 7.433,20.384 6.475,19.800 5.740 C 19.445 5.294,18.695 4.551,18.225 4.180 C 16.274 2.640,13.787 1.856,11.400 2.027 M8.695 9.055 C 8.464 9.130,8.255 9.300,8.128 9.516 C 8.037 9.672,8.020 9.746,8.020 10.000 C 8.020 10.257,8.036 10.327,8.133 10.492 C 8.651 11.374,9.998 11.018,9.998 10.000 C 9.998 9.623,9.792 9.281,9.463 9.112 C 9.265 9.010,8.911 8.984,8.695 9.055 M14.695 9.055 C 14.464 9.130,14.255 9.300,14.128 9.516 C 14.037 9.672,14.020 9.746,14.020 10.000 C 14.020 10.257,14.036 10.327,14.133 10.492 C 14.651 11.374,15.998 11.018,15.998 10.000 C 15.998 9.623,15.792 9.281,15.463 9.112 C 15.265 9.010,14.911 8.984,14.695 9.055 M18.695 13.057 C 18.342 13.168,18.095 13.451,18.019 13.835 L 17.976 14.050 17.757 14.118 C 17.003 14.351,16.361 14.980,16.118 15.722 C 16.034 15.976,16.020 16.094,16.022 16.520 C 16.024 16.960,16.038 17.056,16.133 17.320 C 16.394 18.039,16.964 18.609,17.680 18.867 C 17.961 18.968,18.033 18.976,18.800 18.992 C 19.702 19.010,19.786 19.030,19.922 19.252 C 20.021 19.415,20.021 19.585,19.922 19.748 C 19.770 19.996,19.746 20.000,18.248 20.000 C 16.774 20.000,16.653 20.014,16.382 20.221 C 16.302 20.282,16.187 20.415,16.128 20.516 C 16.037 20.672,16.020 20.746,16.020 21.000 C 16.020 21.256,16.036 21.328,16.131 21.489 C 16.256 21.702,16.449 21.864,16.670 21.943 C 16.768 21.978,17.022 21.997,17.405 21.998 L 17.991 22.000 18.018 22.179 C 18.054 22.422,18.258 22.712,18.497 22.859 C 18.671 22.966,18.729 22.980,19.000 22.980 C 19.271 22.980,19.329 22.966,19.503 22.859 C 19.752 22.706,19.949 22.419,19.984 22.160 L 20.010 21.966 20.294 21.873 C 21.001 21.642,21.605 21.046,21.868 20.320 C 21.965 20.052,21.976 19.965,21.976 19.500 C 21.976 19.035,21.965 18.948,21.868 18.680 C 21.646 18.068,21.195 17.561,20.620 17.277 C 20.172 17.055,19.869 17.002,19.068 17.001 C 18.319 17.000,18.216 16.974,18.078 16.748 C 17.932 16.508,18.023 16.193,18.276 16.062 C 18.377 16.010,18.612 16.000,19.788 15.998 C 21.285 15.996,21.350 15.989,21.619 15.783 C 21.696 15.725,21.808 15.592,21.869 15.489 C 21.964 15.328,21.980 15.256,21.980 15.000 C 21.980 14.746,21.963 14.672,21.872 14.516 C 21.634 14.111,21.351 14.000,20.559 14.000 L 20.010 14.000 19.983 13.830 C 19.926 13.473,19.648 13.163,19.290 13.055 C 19.068 12.988,18.913 12.989,18.695 13.057 M9.240 14.035 C 8.786 14.184,8.512 14.547,8.512 14.998 C 8.512 15.324,8.610 15.523,8.904 15.797 C 9.548 16.400,10.363 16.788,11.314 16.945 C 12.009 17.059,13.066 16.953,13.511 16.724 C 14.048 16.448,14.201 15.717,13.825 15.223 C 13.708 15.070,13.397 14.899,13.174 14.865 C 13.070 14.850,12.862 14.870,12.619 14.920 C 11.715 15.106,10.979 14.936,10.320 14.388 C 10.177 14.269,9.999 14.140,9.924 14.101 C 9.769 14.022,9.391 13.985,9.240 14.035 " stroke="none" fill-rule="evenodd" fill="black"></path></svg>