<svg xmlns="http://www.w3.org/2000/svg" width="24" height="24" viewBox="0 0 24 24" fill="none" stroke="currentColor" stroke-width="2" stroke-linecap="round" stroke-linejoin="round"><path d="M11.060 2.045 C 8.741 2.267,6.628 3.262,4.957 4.920 C 3.410 6.454,2.503 8.235,2.113 10.501 C 1.994 11.194,1.982 12.742,2.090 13.409 C 2.330 14.894,2.850 16.267,3.632 17.479 C 5.058 19.693,7.537 21.344,10.180 21.839 C 10.909 21.976,12.003 22.038,12.289 21.958 C 12.682 21.849,13.000 21.420,13.000 21.000 C 13.000 20.580,12.682 20.151,12.289 20.042 C 12.207 20.019,11.992 20.000,11.812 20.000 C 11.413 20.000,10.661 19.905,10.200 19.798 C 8.783 19.467,7.486 18.754,6.425 17.723 C 5.717 17.035,5.250 16.388,4.819 15.500 C 3.946 13.702,3.772 11.725,4.317 9.795 C 4.918 7.666,6.431 5.843,8.420 4.850 C 10.313 3.905,12.508 3.745,14.500 4.407 C 16.603 5.106,18.279 6.595,19.243 8.621 C 19.661 9.500,19.886 10.371,19.960 11.404 C 19.985 11.743,20.014 12.096,20.025 12.189 C 20.052 12.420,20.257 12.711,20.497 12.859 C 20.671 12.966,20.729 12.980,20.997 12.980 C 21.256 12.980,21.327 12.964,21.489 12.869 C 21.858 12.652,21.996 12.367,21.997 11.820 C 21.998 11.443,21.916 10.590,21.839 10.180 C 21.458 8.144,20.386 6.178,18.877 4.744 C 17.269 3.217,15.172 2.264,12.926 2.041 C 12.447 1.994,11.580 1.995,11.060 2.045 M8.695 9.055 C 8.464 9.130,8.255 9.300,8.128 9.516 C 8.037 9.672,8.020 9.746,8.020 10.000 C 8.020 10.257,8.036 10.327,8.133 10.492 C 8.651 11.374,9.998 11.018,9.998 10.000 C 9.998 9.623,9.792 9.281,9.463 9.112 C 9.265 9.010,8.911 8.984,8.695 9.055 M14.695 9.055 C 14.464 9.130,14.255 9.300,14.128 9.516 C 14.037 9.672,14.020 9.746,14.020 10.000 C 14.020 10.257,14.036 10.327,14.133 10.492 C 14.651 11.374,15.998 11.018,15.998 10.000 C 15.998 9.623,15.792 9.281,15.463 9.112 C 15.265 9.010,14.911 8.984,14.695 9.055 M9.240 14.035 C 8.784 14.184,8.512 14.546,8.512 15.003 C 8.512 15.328,8.619 15.534,8.945 15.841 C 9.445 16.312,9.995 16.630,10.661 16.835 C 11.174 16.993,11.481 17.039,12.000 17.039 C 12.519 17.039,12.826 16.993,13.339 16.835 C 14.005 16.630,14.555 16.312,15.055 15.841 C 15.381 15.534,15.488 15.328,15.488 15.003 C 15.488 14.732,15.402 14.508,15.228 14.326 C 15.015 14.105,14.819 14.022,14.500 14.022 C 14.164 14.022,14.056 14.072,13.651 14.419 C 13.287 14.730,13.047 14.861,12.657 14.961 C 12.066 15.112,11.314 15.034,10.833 14.772 C 10.723 14.712,10.502 14.552,10.343 14.416 C 10.184 14.280,9.993 14.138,9.920 14.100 C 9.769 14.022,9.390 13.986,9.240 14.035 M18.617 14.577 C 18.438 14.655,18.206 14.870,18.123 15.036 C 18.084 15.115,18.011 15.314,17.962 15.478 C 17.609 16.656,16.655 17.611,15.480 17.962 C 15.075 18.083,14.921 18.165,14.752 18.352 C 14.420 18.720,14.420 19.280,14.752 19.648 C 14.920 19.834,15.074 19.917,15.478 20.038 C 16.687 20.400,17.610 21.343,17.987 22.600 C 18.076 22.898,18.131 23.008,18.270 23.163 C 18.672 23.610,19.328 23.610,19.730 23.163 C 19.869 23.008,19.924 22.898,20.013 22.600 C 20.399 21.311,21.311 20.399,22.600 20.013 C 22.898 19.924,23.008 19.869,23.163 19.730 C 23.574 19.360,23.612 18.754,23.248 18.352 C 23.079 18.165,22.925 18.083,22.520 17.962 C 21.314 17.602,20.390 16.658,20.014 15.402 C 19.832 14.793,19.515 14.518,18.997 14.522 C 18.856 14.522,18.685 14.547,18.617 14.577 M19.194 18.057 C 19.373 18.282,19.740 18.644,20.020 18.873 L 20.180 19.004 20.020 19.130 C 19.818 19.288,19.295 19.809,19.127 20.019 L 19.000 20.178 18.873 20.019 C 18.705 19.809,18.182 19.288,17.980 19.130 L 17.820 19.004 17.980 18.873 C 18.260 18.644,18.627 18.282,18.806 18.057 C 18.901 17.938,18.989 17.840,19.000 17.840 C 19.011 17.840,19.099 17.938,19.194 18.057 " stroke="none" fill-rule="evenodd" fill="black"></path></svg>