<svg xmlns="http://www.w3.org/2000/svg" width="24" height="24" viewBox="0 0 24 24" fill="none" stroke="currentColor" stroke-width="2" stroke-linecap="round" stroke-linejoin="round"><path d="M10.980 2.045 C 9.794 2.156,8.591 2.516,7.427 3.108 C 4.726 4.481,2.764 7.087,2.183 10.071 C 1.982 11.106,1.949 12.466,2.101 13.480 C 2.514 16.243,4.116 18.762,6.451 20.321 C 8.367 21.599,10.642 22.171,12.960 21.957 C 15.920 21.684,18.654 20.046,20.321 17.549 C 21.599 15.633,22.171 13.358,21.957 11.040 C 21.521 6.311,17.689 2.479,12.960 2.043 C 12.434 1.994,11.508 1.995,10.980 2.045 M12.743 4.043 C 16.646 4.428,19.644 7.487,19.965 11.410 C 20.227 14.609,18.447 17.726,15.540 19.160 C 13.939 19.950,12.094 20.184,10.360 19.818 C 7.256 19.163,4.837 16.743,4.181 13.638 C 3.813 11.896,4.045 10.079,4.841 8.460 C 6.292 5.507,9.486 3.722,12.743 4.043 M15.114 8.283 C 14.494 8.349,13.886 8.630,13.485 9.038 C 12.926 9.606,12.854 10.256,13.299 10.701 C 13.732 11.134,14.433 11.077,14.809 10.578 C 14.991 10.336,15.137 10.271,15.500 10.271 C 15.863 10.271,16.009 10.336,16.191 10.578 C 16.567 11.077,17.268 11.134,17.701 10.701 C 18.147 10.255,18.076 9.616,17.517 9.043 C 17.099 8.615,16.521 8.353,15.833 8.281 C 15.628 8.259,15.451 8.243,15.440 8.246 C 15.429 8.249,15.282 8.265,15.114 8.283 M8.695 9.055 C 8.464 9.130,8.255 9.300,8.128 9.516 C 8.037 9.672,8.020 9.746,8.020 10.000 C 8.020 10.257,8.036 10.327,8.133 10.492 C 8.651 11.374,9.998 11.018,9.998 10.000 C 9.998 9.623,9.792 9.281,9.463 9.112 C 9.265 9.010,8.911 8.984,8.695 9.055 M8.240 13.037 C 7.793 13.175,7.512 13.546,7.512 14.000 C 7.512 14.405,7.719 14.724,8.100 14.905 C 8.262 14.981,8.366 14.999,8.645 15.000 L 8.991 15.000 9.010 15.790 C 9.026 16.464,9.042 16.621,9.118 16.860 C 9.430 17.835,10.183 18.582,11.160 18.886 C 11.594 19.021,12.406 19.021,12.840 18.886 C 13.817 18.582,14.570 17.835,14.882 16.860 C 14.958 16.621,14.974 16.464,14.990 15.790 L 15.009 15.000 15.355 15.000 C 15.634 14.999,15.738 14.981,15.900 14.905 C 16.281 14.724,16.488 14.405,16.488 14.000 C 16.488 13.615,16.293 13.297,15.940 13.106 L 15.780 13.020 12.060 13.013 C 10.014 13.009,8.295 13.020,8.240 13.037 M13.000 15.554 C 13.000 16.352,12.890 16.633,12.484 16.872 C 12.328 16.963,12.254 16.980,12.000 16.980 C 11.746 16.980,11.672 16.963,11.516 16.872 C 11.415 16.813,11.284 16.700,11.225 16.623 C 11.038 16.377,11.000 16.202,11.000 15.575 L 11.000 15.000 12.000 15.000 L 13.000 15.000 13.000 15.554 " stroke="none" fill-rule="evenodd" fill="black"></path></svg>