<svg xmlns="http://www.w3.org/2000/svg" width="24" height="24" viewBox="0 0 24 24" fill="none" stroke="currentColor" stroke-width="2" stroke-linecap="round" stroke-linejoin="round"><path d="M2.670 2.061 C 2.448 2.142,2.250 2.309,2.128 2.516 C 2.036 2.672,2.020 2.745,2.021 3.000 C 2.021 3.213,2.043 3.341,2.095 3.440 C 2.136 3.517,2.637 4.050,3.208 4.625 L 4.248 5.670 3.965 6.051 C 2.992 7.362,2.353 8.914,2.093 10.600 C 2.040 10.943,2.022 11.298,2.022 12.000 C 2.022 13.038,2.071 13.479,2.285 14.355 C 2.727 16.167,3.610 17.732,4.939 19.061 C 6.490 20.613,8.383 21.564,10.600 21.907 C 11.245 22.007,12.755 22.007,13.400 21.907 C 15.083 21.647,16.640 21.006,17.949 20.035 L 18.330 19.752 19.375 20.792 C 19.950 21.363,20.483 21.864,20.560 21.905 C 20.659 21.957,20.787 21.979,21.000 21.979 C 21.258 21.980,21.327 21.964,21.492 21.867 C 21.968 21.587,22.139 20.967,21.865 20.508 C 21.810 20.416,17.665 16.243,12.653 11.235 C 4.231 2.820,3.525 2.125,3.343 2.065 C 3.107 1.987,2.874 1.986,2.670 2.061 M11.100 2.043 C 9.933 2.153,8.750 2.478,7.713 2.974 C 7.275 3.184,7.112 3.343,7.019 3.657 C 6.947 3.898,6.947 4.053,7.018 4.252 C 7.172 4.685,7.521 4.939,7.960 4.939 C 8.184 4.938,8.275 4.913,8.620 4.753 C 10.404 3.928,12.304 3.781,14.243 4.318 C 15.205 4.585,16.245 5.131,17.051 5.794 C 17.390 6.073,17.995 6.682,18.261 7.012 C 19.916 9.068,20.437 11.940,19.614 14.460 C 19.556 14.636,19.412 15.000,19.294 15.269 C 19.034 15.860,19.004 16.029,19.104 16.346 C 19.292 16.946,19.999 17.219,20.541 16.902 C 20.767 16.769,20.876 16.624,21.081 16.180 C 22.663 12.757,22.169 8.737,19.800 5.740 C 19.465 5.316,18.625 4.485,18.195 4.151 C 16.975 3.205,15.526 2.526,14.071 2.218 C 13.253 2.045,11.916 1.966,11.100 2.043 M6.904 8.324 L 8.108 9.528 8.056 9.674 C 7.899 10.112,8.090 10.622,8.501 10.863 C 8.726 10.995,9.071 11.032,9.306 10.950 L 9.472 10.892 11.382 12.802 L 13.292 14.712 13.123 14.799 C 12.653 15.038,11.910 15.106,11.343 14.961 C 10.953 14.861,10.708 14.728,10.343 14.416 C 9.937 14.070,9.835 14.022,9.500 14.022 C 9.181 14.022,8.985 14.105,8.772 14.326 C 8.511 14.599,8.434 15.054,8.590 15.405 C 8.731 15.724,9.408 16.284,10.021 16.591 C 10.314 16.738,10.967 16.943,11.320 16.998 C 11.654 17.051,12.346 17.051,12.680 16.998 C 13.278 16.904,13.997 16.626,14.474 16.304 C 14.592 16.225,14.700 16.160,14.714 16.160 C 14.749 16.160,16.880 18.292,16.880 18.328 C 16.880 18.392,15.945 18.972,15.480 19.197 C 13.265 20.265,10.737 20.267,8.529 19.200 C 7.738 18.819,7.124 18.394,6.504 17.801 C 5.777 17.105,5.251 16.387,4.817 15.499 C 3.736 13.290,3.736 10.714,4.817 8.499 C 5.052 8.017,5.608 7.120,5.672 7.120 C 5.687 7.120,6.241 7.662,6.904 8.324 M14.695 9.055 C 14.464 9.130,14.255 9.300,14.128 9.516 C 14.037 9.672,14.020 9.746,14.020 10.000 C 14.020 10.257,14.036 10.327,14.133 10.492 C 14.651 11.374,15.998 11.018,15.998 10.000 C 15.998 9.623,15.792 9.281,15.463 9.112 C 15.265 9.010,14.911 8.984,14.695 9.055 " stroke="none" fill-rule="evenodd" fill="black"></path></svg>