<svg xmlns="http://www.w3.org/2000/svg" width="24" height="24" viewBox="0 0 24 24" fill="none" stroke="currentColor" stroke-width="2" stroke-linecap="round" stroke-linejoin="round"><path d="M11.100 2.045 C 9.211 2.208,7.367 2.942,5.800 4.154 C 5.343 4.508,4.483 5.372,4.122 5.840 C 3.035 7.249,2.374 8.799,2.093 10.600 C 1.993 11.240,1.993 12.750,2.092 13.400 C 2.255 14.470,2.562 15.447,3.041 16.420 C 3.557 17.470,4.095 18.216,4.959 19.081 C 6.070 20.192,7.346 20.983,8.825 21.476 C 9.562 21.722,10.533 21.927,11.000 21.934 C 11.304 21.939,11.360 21.928,11.526 21.831 C 12.125 21.479,12.237 20.772,11.772 20.276 C 11.563 20.052,11.423 20.000,10.760 19.897 C 8.263 19.510,6.128 17.976,4.917 15.700 C 3.611 13.245,3.721 10.158,5.199 7.800 C 5.544 7.250,5.865 6.850,6.358 6.358 C 7.054 5.661,7.712 5.192,8.580 4.774 C 10.563 3.819,12.980 3.757,15.038 4.609 C 17.668 5.696,19.563 8.146,19.920 10.920 C 19.944 11.107,19.990 11.342,20.022 11.442 C 20.087 11.643,20.332 11.907,20.560 12.022 C 20.728 12.107,21.078 12.117,21.295 12.043 C 21.492 11.976,21.740 11.753,21.853 11.543 C 21.980 11.306,21.964 10.829,21.804 10.045 C 20.777 5.016,16.214 1.606,11.100 2.045 M8.695 9.055 C 8.464 9.130,8.255 9.300,8.128 9.516 C 8.037 9.672,8.020 9.746,8.020 10.000 C 8.020 10.257,8.036 10.327,8.133 10.492 C 8.651 11.374,9.998 11.018,9.998 10.000 C 9.998 9.623,9.792 9.281,9.463 9.112 C 9.265 9.010,8.911 8.984,8.695 9.055 M14.695 9.055 C 14.464 9.130,14.255 9.300,14.128 9.516 C 14.037 9.672,14.020 9.746,14.020 10.000 C 14.020 10.257,14.036 10.327,14.133 10.492 C 14.651 11.374,15.998 11.018,15.998 10.000 C 15.998 9.623,15.792 9.281,15.463 9.112 C 15.265 9.010,14.911 8.984,14.695 9.055 M9.240 14.035 C 8.786 14.184,8.512 14.547,8.512 14.998 C 8.512 15.339,8.607 15.521,8.958 15.850 C 9.485 16.345,10.191 16.709,10.978 16.891 C 11.433 16.996,12.492 17.016,12.720 16.923 C 12.947 16.830,13.137 16.660,13.256 16.440 C 13.356 16.257,13.367 16.201,13.354 15.943 C 13.335 15.574,13.192 15.320,12.902 15.141 C 12.713 15.024,12.687 15.020,12.083 14.996 C 11.194 14.960,10.833 14.833,10.280 14.360 C 10.159 14.256,9.999 14.140,9.924 14.101 C 9.769 14.022,9.391 13.985,9.240 14.035 M19.351 14.039 C 18.895 14.122,18.443 14.323,18.060 14.613 C 17.928 14.713,16.989 15.620,15.974 16.627 C 14.261 18.327,14.122 18.475,14.062 18.665 C 14.005 18.844,13.998 19.090,14.008 20.585 L 14.020 22.300 14.131 22.489 C 14.192 22.592,14.304 22.725,14.381 22.783 C 14.655 22.992,14.694 22.996,16.483 22.998 C 17.902 23.000,18.175 22.991,18.343 22.936 C 18.522 22.878,18.710 22.701,20.372 21.026 C 21.380 20.011,22.287 19.072,22.387 18.940 C 22.775 18.428,22.957 17.919,22.989 17.258 C 23.036 16.280,22.720 15.505,21.996 14.824 C 21.652 14.500,21.154 14.216,20.720 14.097 C 20.460 14.025,19.620 13.989,19.351 14.039 M20.385 16.112 C 20.594 16.219,20.778 16.402,20.891 16.615 C 21.016 16.850,21.016 17.350,20.891 17.586 C 20.840 17.682,20.129 18.433,19.197 19.376 L 17.591 21.000 16.795 21.000 L 16.000 21.000 16.000 20.205 L 16.000 19.410 17.602 17.825 C 18.483 16.953,19.248 16.211,19.302 16.175 C 19.599 15.980,20.073 15.953,20.385 16.112 " stroke="none" fill-rule="evenodd" fill="black"></path></svg>