<svg xmlns="http://www.w3.org/2000/svg" width="24" height="24" viewBox="0 0 24 24" fill="none" stroke="currentColor" stroke-width="2" stroke-linecap="round" stroke-linejoin="round"><path d="M11.080 2.045 C 9.507 2.184,7.883 2.751,6.540 3.630 C 5.905 4.045,5.499 4.378,4.919 4.958 C 2.953 6.926,1.919 9.544,2.013 12.320 C 2.084 14.439,2.752 16.328,4.033 18.040 C 4.430 18.570,5.305 19.464,5.800 19.847 C 7.242 20.961,8.787 21.624,10.600 21.907 C 11.247 22.008,12.753 22.008,13.400 21.907 C 15.638 21.557,17.504 20.620,19.062 19.062 C 20.620 17.504,21.557 15.638,21.907 13.400 C 22.008 12.753,22.008 11.247,21.907 10.600 C 21.624 8.786,20.959 7.238,19.847 5.800 C 19.510 5.365,18.639 4.494,18.200 4.154 C 16.133 2.555,13.646 1.818,11.080 2.045 M12.734 4.041 C 14.574 4.216,16.228 4.976,17.554 6.256 C 19.568 8.199,20.398 10.992,19.797 13.795 L 19.753 14.000 17.823 14.000 C 15.728 14.000,15.664 14.006,15.382 14.221 C 15.083 14.449,14.935 14.893,15.035 15.264 C 15.099 15.498,15.286 15.737,15.508 15.867 L 15.700 15.980 17.314 16.000 L 18.927 16.020 18.691 16.380 C 18.249 17.053,17.501 17.865,16.900 18.325 C 15.492 19.404,13.747 20.000,12.000 20.000 C 10.253 20.000,8.508 19.404,7.100 18.325 C 6.747 18.055,6.190 17.510,5.847 17.100 C 3.848 14.711,3.440 11.302,4.816 8.500 C 6.162 5.760,8.867 4.049,11.920 4.005 C 12.129 4.003,12.495 4.019,12.734 4.041 M14.720 8.037 C 13.860 8.299,13.742 9.479,14.535 9.887 C 15.006 10.129,15.596 9.954,15.867 9.492 C 15.964 9.327,15.980 9.257,15.980 9.000 C 15.980 8.746,15.963 8.672,15.872 8.516 C 15.641 8.123,15.133 7.912,14.720 8.037 " stroke="none" fill-rule="evenodd" fill="black"></path></svg>