<svg xmlns="http://www.w3.org/2000/svg" width="24" height="24" viewBox="0 0 24 24" fill="none" stroke="currentColor" stroke-width="2" stroke-linecap="round" stroke-linejoin="round"><path d="M11.360 2.025 C 6.958 2.336,3.304 5.411,2.288 9.660 C 2.069 10.574,2.021 11.002,2.022 12.020 C 2.024 13.219,2.122 13.872,2.471 15.000 C 3.190 17.324,4.740 19.287,6.873 20.577 C 8.401 21.500,10.104 21.975,11.900 21.978 C 12.844 21.980,12.966 21.950,13.253 21.643 C 13.693 21.173,13.581 20.468,13.009 20.113 C 12.869 20.026,12.806 20.018,11.980 19.993 C 11.023 19.964,10.545 19.896,9.799 19.682 C 7.216 18.941,5.177 16.954,4.379 14.400 C 4.110 13.539,4.026 12.978,4.024 12.020 C 4.021 10.997,4.161 10.154,4.478 9.291 C 5.834 5.590,9.597 3.438,13.480 4.144 C 14.736 4.372,16.068 4.996,17.100 5.841 C 18.171 6.717,19.097 8.054,19.551 9.380 C 20.124 11.055,20.140 12.669,19.601 14.482 C 19.456 14.972,19.451 15.155,19.575 15.422 C 19.853 16.019,20.627 16.193,21.121 15.770 C 21.321 15.599,21.374 15.497,21.540 14.965 C 22.308 12.502,22.104 9.917,20.958 7.580 C 20.196 6.028,19.061 4.729,17.580 3.712 C 16.365 2.878,14.837 2.299,13.321 2.098 C 12.886 2.040,11.746 1.997,11.360 2.025 M8.695 9.055 C 8.464 9.130,8.255 9.300,8.128 9.516 C 8.037 9.672,8.020 9.746,8.020 10.000 C 8.020 10.257,8.036 10.327,8.133 10.492 C 8.651 11.374,9.998 11.018,9.998 10.000 C 9.998 9.623,9.792 9.281,9.463 9.112 C 9.265 9.010,8.911 8.984,8.695 9.055 M14.695 9.055 C 14.464 9.130,14.255 9.300,14.128 9.516 C 14.037 9.672,14.020 9.746,14.020 10.000 C 14.020 10.257,14.036 10.327,14.133 10.492 C 14.651 11.374,15.998 11.018,15.998 10.000 C 15.998 9.623,15.792 9.281,15.463 9.112 C 15.265 9.010,14.911 8.984,14.695 9.055 M9.240 14.035 C 8.786 14.184,8.512 14.547,8.512 14.998 C 8.512 15.324,8.610 15.523,8.904 15.797 C 10.257 17.063,12.360 17.357,14.051 16.517 C 14.682 16.202,15.296 15.697,15.420 15.389 C 15.562 15.034,15.483 14.592,15.228 14.326 C 15.015 14.105,14.819 14.022,14.500 14.022 C 14.171 14.022,14.060 14.072,13.680 14.388 C 13.192 14.794,12.629 14.999,12.000 14.999 C 11.371 14.999,10.808 14.794,10.320 14.388 C 10.177 14.269,9.999 14.140,9.924 14.101 C 9.769 14.022,9.391 13.985,9.240 14.035 M15.695 18.057 C 15.466 18.129,15.256 18.299,15.128 18.516 C 15.037 18.672,15.020 18.746,15.020 19.000 C 15.020 19.256,15.036 19.328,15.131 19.489 C 15.256 19.702,15.449 19.864,15.670 19.943 C 15.891 20.022,22.109 20.022,22.330 19.943 C 22.551 19.864,22.744 19.702,22.869 19.489 C 22.964 19.328,22.980 19.256,22.980 19.000 C 22.980 18.746,22.963 18.672,22.872 18.516 C 22.740 18.293,22.533 18.128,22.290 18.055 C 22.030 17.977,15.945 17.979,15.695 18.057 " stroke="none" fill-rule="evenodd" fill="black"></path></svg>