<svg xmlns="http://www.w3.org/2000/svg" width="24" height="24" viewBox="0 0 24 24" fill="none" stroke="currentColor" stroke-width="2" stroke-linecap="round" stroke-linejoin="round"><path d="M8.240 1.037 C 7.793 1.173,7.507 1.552,7.510 2.005 C 7.512 2.322,7.624 2.549,7.885 2.763 C 8.549 3.309,8.952 3.823,9.341 4.620 C 9.746 5.451,9.927 6.077,9.995 6.874 C 10.028 7.265,10.049 7.353,10.148 7.514 C 10.541 8.152,11.460 8.151,11.854 7.511 C 11.999 7.275,12.031 6.937,11.963 6.372 C 11.754 4.647,10.710 2.549,9.577 1.576 C 8.978 1.062,8.626 0.920,8.240 1.037 M12.240 1.035 C 12.055 1.096,11.901 1.192,11.775 1.327 C 11.614 1.498,11.567 1.592,11.521 1.836 C 11.463 2.140,11.541 2.364,11.862 2.822 C 12.318 3.472,12.633 3.992,12.879 4.500 C 13.259 5.286,13.420 5.880,13.480 6.723 C 13.501 7.019,13.544 7.299,13.580 7.387 C 13.723 7.730,14.128 7.999,14.500 7.999 C 14.875 7.999,15.275 7.731,15.424 7.380 C 15.502 7.195,15.509 6.580,15.439 6.080 C 15.247 4.714,14.723 3.458,13.747 2.027 C 13.344 1.435,13.155 1.219,12.948 1.114 C 12.772 1.024,12.400 0.983,12.240 1.035 M16.600 3.584 C 16.119 3.792,15.871 4.413,16.083 4.880 C 16.193 5.121,16.263 5.192,16.798 5.590 C 18.275 6.691,19.312 8.264,19.767 10.094 C 19.855 10.449,19.971 10.816,20.024 10.908 C 20.078 11.001,20.229 11.159,20.360 11.260 C 20.803 11.601,20.980 11.954,20.980 12.500 C 20.980 12.811,20.965 12.893,20.868 13.100 C 20.747 13.359,20.504 13.635,20.280 13.768 C 19.795 14.056,19.740 14.128,19.488 14.802 C 19.085 15.879,18.530 16.757,17.748 17.556 C 16.385 18.947,14.724 19.753,12.792 19.959 C 9.873 20.270,6.911 18.843,5.284 16.343 C 5.031 15.954,4.661 15.195,4.464 14.658 C 4.383 14.437,4.275 14.204,4.224 14.140 C 4.173 14.077,3.980 13.924,3.796 13.802 C 3.236 13.431,3.022 13.059,3.024 12.458 C 3.025 11.938,3.204 11.621,3.752 11.168 C 3.867 11.073,3.986 10.945,4.018 10.885 C 4.049 10.824,4.138 10.511,4.215 10.190 C 4.674 8.287,5.692 6.730,7.231 5.573 C 7.758 5.178,7.878 4.993,7.878 4.580 C 7.878 4.012,7.464 3.603,6.888 3.601 C 6.623 3.600,6.439 3.669,6.160 3.875 C 4.267 5.268,2.949 7.182,2.338 9.424 C 2.234 9.807,2.221 9.829,1.945 10.123 C 1.034 11.095,0.764 12.504,1.248 13.760 C 1.462 14.313,1.907 14.910,2.361 15.249 C 2.565 15.402,2.652 15.496,2.685 15.599 C 2.710 15.676,2.816 15.929,2.921 16.160 C 4.232 19.048,6.927 21.177,10.054 21.797 C 10.783 21.942,11.167 21.977,12.000 21.977 C 12.854 21.977,13.264 21.937,14.040 21.778 C 16.633 21.248,18.910 19.688,20.397 17.424 C 20.688 16.980,21.236 15.911,21.320 15.620 C 21.356 15.496,21.417 15.424,21.588 15.300 C 22.183 14.869,22.662 14.164,22.892 13.380 C 23.018 12.953,23.014 12.022,22.885 11.580 C 22.711 10.978,22.363 10.387,21.968 10.019 C 21.800 9.862,21.783 9.825,21.619 9.257 C 21.089 7.421,20.169 5.928,18.761 4.624 C 18.366 4.258,17.653 3.714,17.417 3.599 C 17.219 3.503,16.806 3.495,16.600 3.584 M8.695 11.055 C 8.464 11.130,8.255 11.300,8.128 11.516 C 8.037 11.672,8.020 11.746,8.020 12.000 C 8.020 12.257,8.036 12.327,8.133 12.492 C 8.651 13.374,9.998 13.018,9.998 12.000 C 9.998 11.623,9.792 11.281,9.463 11.112 C 9.265 11.010,8.911 10.984,8.695 11.055 M14.695 11.055 C 14.464 11.130,14.255 11.300,14.128 11.516 C 14.037 11.672,14.020 11.746,14.020 12.000 C 14.020 12.257,14.036 12.327,14.133 12.492 C 14.651 13.374,15.998 13.018,15.998 12.000 C 15.998 11.623,15.792 11.281,15.463 11.112 C 15.265 11.010,14.911 10.984,14.695 11.055 M9.240 15.035 C 8.784 15.184,8.512 15.546,8.512 16.003 C 8.512 16.328,8.619 16.534,8.945 16.841 C 9.445 17.312,9.995 17.630,10.661 17.835 C 11.174 17.993,11.481 18.039,12.000 18.039 C 12.519 18.039,12.826 17.993,13.339 17.835 C 14.005 17.630,14.555 17.312,15.055 16.841 C 15.381 16.534,15.488 16.328,15.488 16.003 C 15.488 15.732,15.402 15.508,15.228 15.326 C 15.015 15.105,14.819 15.022,14.500 15.022 C 14.164 15.022,14.056 15.072,13.651 15.419 C 13.287 15.730,13.047 15.861,12.657 15.961 C 12.066 16.112,11.314 16.034,10.833 15.772 C 10.723 15.712,10.502 15.552,10.343 15.416 C 10.184 15.280,9.993 15.138,9.920 15.100 C 9.769 15.022,9.390 14.986,9.240 15.035 " stroke="none" fill-rule="evenodd" fill="black"></path></svg>