<svg xmlns="http://www.w3.org/2000/svg" width="24" height="24" viewBox="0 0 24 24" fill="none" stroke="currentColor" stroke-width="2" stroke-linecap="round" stroke-linejoin="round"><path d="M11.080 2.045 C 9.507 2.184,7.883 2.751,6.540 3.630 C 5.905 4.045,5.499 4.378,4.919 4.958 C 2.953 6.926,1.919 9.544,2.013 12.320 C 2.084 14.439,2.752 16.328,4.033 18.040 C 4.430 18.570,5.305 19.464,5.800 19.847 C 7.242 20.961,8.787 21.624,10.600 21.907 C 11.247 22.008,12.753 22.008,13.400 21.907 C 15.638 21.557,17.504 20.620,19.062 19.062 C 20.620 17.504,21.557 15.638,21.907 13.400 C 22.008 12.753,22.008 11.247,21.907 10.600 C 21.624 8.786,20.959 7.238,19.847 5.800 C 19.510 5.365,18.639 4.494,18.200 4.154 C 16.133 2.555,13.646 1.818,11.080 2.045 M12.734 4.041 C 14.574 4.216,16.228 4.976,17.554 6.256 C 20.043 8.658,20.702 12.394,19.183 15.499 C 18.749 16.387,18.223 17.105,17.496 17.801 C 16.876 18.394,16.262 18.819,15.471 19.200 C 13.267 20.265,10.733 20.265,8.529 19.200 C 7.477 18.693,6.612 18.015,5.847 17.100 C 3.848 14.711,3.440 11.302,4.816 8.500 C 6.162 5.760,8.867 4.049,11.920 4.005 C 12.129 4.003,12.495 4.019,12.734 4.041 M8.720 9.037 C 7.860 9.299,7.742 10.479,8.535 10.887 C 9.006 11.129,9.596 10.954,9.867 10.492 C 9.964 10.327,9.980 10.257,9.980 10.000 C 9.980 9.746,9.963 9.672,9.872 9.516 C 9.641 9.123,9.133 8.912,8.720 9.037 M14.720 9.037 C 13.860 9.299,13.742 10.479,14.535 10.887 C 15.006 11.129,15.596 10.954,15.867 10.492 C 15.964 10.327,15.980 10.257,15.980 10.000 C 15.980 9.746,15.963 9.672,15.872 9.516 C 15.641 9.123,15.133 8.912,14.720 9.037 M8.662 14.066 C 8.491 14.119,8.375 14.214,7.848 14.734 C 7.510 15.067,7.188 15.416,7.134 15.508 C 6.862 15.969,7.033 16.588,7.508 16.867 C 7.673 16.964,7.743 16.980,8.000 16.980 C 8.363 16.980,8.535 16.893,8.895 16.527 L 9.130 16.288 9.606 16.602 C 10.427 17.145,10.580 17.141,11.460 16.559 L 12.000 16.201 12.540 16.559 C 13.420 17.141,13.573 17.145,14.394 16.602 L 14.870 16.288 15.105 16.527 C 15.465 16.893,15.637 16.980,16.000 16.980 C 16.257 16.980,16.327 16.964,16.492 16.867 C 16.967 16.588,17.138 15.969,16.866 15.508 C 16.812 15.416,16.491 15.067,16.153 14.734 C 15.602 14.191,15.516 14.122,15.322 14.064 C 14.887 13.935,14.721 13.984,14.034 14.444 C 13.764 14.625,13.523 14.773,13.500 14.773 C 13.477 14.773,13.236 14.625,12.966 14.444 C 12.077 13.849,11.923 13.849,11.034 14.444 C 10.764 14.625,10.523 14.773,10.500 14.773 C 10.477 14.773,10.236 14.625,9.966 14.444 C 9.282 13.986,9.098 13.933,8.662 14.066 " stroke="none" fill-rule="evenodd" fill="black"></path></svg>