<svg xmlns="http://www.w3.org/2000/svg" width="24" height="24" viewBox="0 0 24 24" fill="none" stroke="currentColor" stroke-width="2" stroke-linecap="round" stroke-linejoin="round"><path d="M11.080 2.045 C 9.507 2.184,7.883 2.751,6.540 3.630 C 5.905 4.045,5.499 4.378,4.919 4.958 C 2.953 6.926,1.919 9.544,2.013 12.320 C 2.084 14.439,2.752 16.328,4.033 18.040 C 4.430 18.570,5.305 19.464,5.800 19.847 C 7.242 20.961,8.787 21.624,10.600 21.907 C 11.247 22.008,12.753 22.008,13.400 21.907 C 15.638 21.557,17.504 20.620,19.062 19.062 C 20.620 17.504,21.557 15.638,21.907 13.400 C 22.008 12.753,22.008 11.247,21.907 10.600 C 21.624 8.786,20.959 7.238,19.847 5.800 C 19.510 5.365,18.639 4.494,18.200 4.154 C 16.133 2.555,13.646 1.818,11.080 2.045 M12.734 4.041 C 14.574 4.216,16.228 4.976,17.554 6.256 C 20.043 8.658,20.702 12.394,19.183 15.499 C 18.749 16.387,18.223 17.105,17.496 17.801 C 16.876 18.394,16.262 18.819,15.471 19.200 C 13.267 20.265,10.733 20.265,8.529 19.200 C 7.477 18.693,6.612 18.015,5.847 17.100 C 3.848 14.711,3.440 11.302,4.816 8.500 C 6.162 5.760,8.867 4.049,11.920 4.005 C 12.129 4.003,12.495 4.019,12.734 4.041 M8.044 7.625 C 7.650 7.822,7.436 8.268,7.528 8.702 C 7.583 8.963,7.654 9.061,8.155 9.570 L 8.579 10.000 8.155 10.430 C 7.653 10.940,7.584 11.036,7.528 11.300 C 7.446 11.688,7.619 12.110,7.952 12.330 C 8.268 12.539,8.749 12.535,9.055 12.322 C 9.294 12.155,10.817 10.605,10.905 10.440 C 10.957 10.340,10.979 10.213,10.979 10.000 C 10.980 9.745,10.964 9.673,10.873 9.520 C 10.708 9.243,9.138 7.702,8.920 7.603 C 8.654 7.483,8.313 7.492,8.044 7.625 M15.080 7.603 C 14.862 7.702,13.292 9.243,13.127 9.520 C 13.036 9.673,13.020 9.745,13.021 10.000 C 13.021 10.213,13.043 10.340,13.095 10.440 C 13.182 10.604,14.705 12.155,14.943 12.320 C 15.032 12.383,15.194 12.449,15.303 12.469 C 16.017 12.595,16.593 12.020,16.470 11.303 C 16.426 11.048,16.353 10.946,15.845 10.430 L 15.421 10.000 15.845 9.570 C 16.078 9.334,16.305 9.085,16.351 9.019 C 16.547 8.730,16.522 8.226,16.295 7.908 C 16.041 7.551,15.497 7.414,15.080 7.603 M11.560 14.024 C 11.268 14.060,10.775 14.169,10.542 14.248 C 9.734 14.522,8.758 15.227,8.573 15.671 C 8.488 15.875,8.495 16.233,8.590 16.446 C 8.754 16.818,9.093 17.038,9.500 17.038 C 9.806 17.038,9.980 16.956,10.340 16.642 C 11.322 15.785,12.678 15.785,13.660 16.642 C 14.020 16.956,14.194 17.038,14.500 17.038 C 14.907 17.038,15.246 16.818,15.410 16.446 C 15.505 16.233,15.512 15.875,15.427 15.671 C 15.242 15.228,14.265 14.522,13.460 14.249 C 12.940 14.072,12.037 13.966,11.560 14.024 " stroke="none" fill-rule="evenodd" fill="black"></path></svg>