<svg xmlns="http://www.w3.org/2000/svg" width="24" height="24" viewBox="0 0 24 24" fill="none" stroke="currentColor" stroke-width="2" stroke-linecap="round" stroke-linejoin="round"><path d="M11.140 2.044 C 9.039 2.241,7.189 3.009,5.560 4.362 C 3.699 5.908,2.459 8.149,2.097 10.620 C 2.010 11.219,1.980 12.298,2.037 12.860 C 2.223 14.729,2.874 16.467,3.917 17.880 C 5.648 20.227,8.191 21.668,11.114 21.959 C 12.206 22.067,12.589 21.965,12.869 21.489 C 12.964 21.328,12.980 21.256,12.980 21.000 C 12.980 20.746,12.963 20.672,12.872 20.516 C 12.660 20.156,12.335 20.000,11.796 20.000 C 10.802 20.000,9.598 19.708,8.570 19.218 C 6.449 18.207,4.891 16.342,4.283 14.086 C 3.772 12.194,3.979 10.159,4.861 8.398 C 5.607 6.906,6.903 5.610,8.392 4.864 C 9.597 4.261,10.660 4.019,12.080 4.024 C 13.015 4.028,13.491 4.095,14.291 4.338 C 17.246 5.234,19.363 7.652,19.907 10.752 C 19.959 11.051,19.975 11.394,19.977 12.240 L 19.980 13.340 20.094 13.533 C 20.503 14.230,21.543 14.142,21.874 13.382 C 22.024 13.039,22.028 11.391,21.882 10.500 C 21.521 8.299,20.594 6.471,19.062 4.938 C 16.975 2.849,14.031 1.774,11.140 2.044 M8.695 9.055 C 8.464 9.130,8.255 9.300,8.128 9.516 C 8.037 9.672,8.020 9.746,8.020 10.000 C 8.020 10.257,8.036 10.327,8.133 10.492 C 8.651 11.374,9.998 11.018,9.998 10.000 C 9.998 9.623,9.792 9.281,9.463 9.112 C 9.265 9.010,8.911 8.984,8.695 9.055 M14.695 9.055 C 14.464 9.130,14.255 9.300,14.128 9.516 C 14.037 9.672,14.020 9.746,14.020 10.000 C 14.020 10.257,14.036 10.327,14.133 10.492 C 14.651 11.374,15.998 11.018,15.998 10.000 C 15.998 9.623,15.792 9.281,15.463 9.112 C 15.265 9.010,14.911 8.984,14.695 9.055 M9.240 14.035 C 8.786 14.184,8.512 14.547,8.512 14.998 C 8.512 15.339,8.607 15.521,8.958 15.850 C 9.484 16.344,10.185 16.705,10.978 16.892 C 11.278 16.963,11.459 16.977,12.040 16.976 C 12.875 16.973,13.082 16.917,13.354 16.622 C 13.788 16.151,13.689 15.439,13.142 15.101 L 12.946 14.980 12.203 14.979 C 11.494 14.978,11.445 14.973,11.140 14.867 C 10.783 14.743,10.604 14.637,10.280 14.360 C 10.159 14.256,9.999 14.140,9.924 14.101 C 9.769 14.022,9.391 13.985,9.240 14.035 M16.240 16.037 C 15.794 16.173,15.512 16.546,15.512 17.000 C 15.512 17.405,15.719 17.724,16.100 17.905 C 16.296 17.997,16.324 17.999,17.439 18.000 L 18.579 18.000 16.874 19.710 C 15.936 20.651,15.138 21.481,15.101 21.555 C 14.872 22.010,15.056 22.601,15.508 22.867 C 15.673 22.964,15.742 22.980,16.000 22.979 C 16.212 22.979,16.341 22.957,16.440 22.905 C 16.517 22.865,17.350 22.064,18.290 21.126 L 20.000 19.421 20.000 20.561 C 20.001 21.676,20.003 21.704,20.095 21.900 C 20.276 22.281,20.595 22.488,21.000 22.488 C 21.405 22.488,21.724 22.281,21.905 21.900 L 21.999 21.700 21.999 19.240 L 21.999 16.780 21.905 16.580 C 21.791 16.340,21.642 16.193,21.400 16.083 C 21.225 16.004,21.152 16.002,18.780 16.004 C 17.438 16.006,16.295 16.021,16.240 16.037 " stroke="none" fill-rule="evenodd" fill="black"></path></svg>