<svg xmlns="http://www.w3.org/2000/svg" width="24" height="24" viewBox="0 0 24 24" fill="none" stroke="currentColor" stroke-width="2" stroke-linecap="round" stroke-linejoin="round"><path d="M11.120 2.040 C 8.734 2.283,6.625 3.264,4.982 4.896 C 3.389 6.479,2.472 8.297,2.094 10.620 C 1.995 11.233,1.994 12.756,2.092 13.380 C 2.309 14.745,2.737 15.970,3.380 17.060 C 4.821 19.502,7.211 21.211,10.000 21.793 C 10.718 21.943,11.090 21.979,11.940 21.979 C 12.779 21.980,12.780 21.980,12.988 21.871 C 13.332 21.689,13.521 21.370,13.519 20.971 C 13.518 20.698,13.427 20.477,13.235 20.284 C 12.989 20.036,12.858 20.002,12.140 20.001 C 11.107 19.999,10.372 19.885,9.484 19.591 C 6.893 18.732,4.891 16.570,4.244 13.934 C 4.061 13.186,4.020 12.841,4.021 12.040 C 4.021 11.224,4.067 10.828,4.247 10.080 C 4.925 7.262,7.147 5.000,9.947 4.278 C 11.831 3.792,13.710 3.961,15.406 4.770 C 17.131 5.591,18.430 6.898,19.252 8.638 C 19.764 9.722,19.998 10.849,20.001 12.240 C 20.002 12.866,20.046 13.008,20.313 13.249 C 20.555 13.468,20.730 13.530,21.040 13.510 C 21.434 13.483,21.697 13.308,21.892 12.945 C 21.975 12.790,21.980 12.732,21.978 11.960 C 21.976 11.120,21.934 10.668,21.794 10.000 C 20.925 5.859,17.649 2.756,13.473 2.118 C 12.867 2.026,11.654 1.985,11.120 2.040 M8.695 9.055 C 8.464 9.130,8.255 9.300,8.128 9.516 C 8.037 9.672,8.020 9.746,8.020 10.000 C 8.020 10.257,8.036 10.327,8.133 10.492 C 8.651 11.374,9.998 11.018,9.998 10.000 C 9.998 9.623,9.792 9.281,9.463 9.112 C 9.265 9.010,8.911 8.984,8.695 9.055 M14.695 9.055 C 14.464 9.130,14.255 9.300,14.128 9.516 C 14.037 9.672,14.020 9.746,14.020 10.000 C 14.020 10.257,14.036 10.327,14.133 10.492 C 14.651 11.374,15.998 11.018,15.998 10.000 C 15.998 9.623,15.792 9.281,15.463 9.112 C 15.265 9.010,14.911 8.984,14.695 9.055 M9.240 14.035 C 8.786 14.184,8.512 14.547,8.512 14.998 C 8.512 15.324,8.610 15.523,8.904 15.797 C 10.257 17.063,12.360 17.357,14.051 16.517 C 14.682 16.202,15.296 15.697,15.420 15.389 C 15.562 15.034,15.483 14.592,15.228 14.326 C 15.015 14.105,14.819 14.022,14.500 14.022 C 14.171 14.022,14.060 14.072,13.680 14.388 C 13.192 14.794,12.629 14.999,12.000 14.999 C 11.371 14.999,10.808 14.794,10.320 14.388 C 10.177 14.269,9.999 14.140,9.924 14.101 C 9.769 14.022,9.391 13.985,9.240 14.035 M18.695 15.057 C 18.466 15.129,18.256 15.299,18.128 15.516 L 18.020 15.700 18.008 16.850 L 17.995 18.000 16.944 18.000 C 15.797 18.000,15.643 18.022,15.382 18.221 C 15.302 18.282,15.187 18.415,15.128 18.516 C 15.037 18.672,15.020 18.746,15.020 19.000 C 15.020 19.256,15.036 19.328,15.131 19.489 C 15.192 19.592,15.304 19.725,15.381 19.783 C 15.642 19.983,15.738 19.996,16.908 19.998 L 17.995 20.000 18.008 21.153 L 18.020 22.307 18.141 22.503 C 18.543 23.156,19.457 23.156,19.859 22.503 L 19.980 22.307 19.992 21.153 L 20.005 20.000 21.092 19.998 C 22.262 19.996,22.358 19.983,22.619 19.783 C 22.696 19.725,22.808 19.592,22.869 19.489 C 22.964 19.328,22.980 19.256,22.980 19.000 C 22.980 18.746,22.963 18.672,22.872 18.516 C 22.813 18.415,22.698 18.282,22.618 18.221 C 22.357 18.022,22.203 18.000,21.056 18.000 L 20.005 18.000 19.992 16.850 L 19.980 15.700 19.872 15.516 C 19.628 15.101,19.150 14.915,18.695 15.057 " stroke="none" fill-rule="evenodd" fill="black"></path></svg>