<svg xmlns="http://www.w3.org/2000/svg" width="24" height="24" viewBox="0 0 24 24" fill="none" stroke="currentColor" stroke-width="2" stroke-linecap="round" stroke-linejoin="round"><path d="M11.080 2.045 C 9.507 2.184,7.883 2.751,6.540 3.630 C 5.905 4.045,5.499 4.378,4.919 4.958 C 2.953 6.926,1.919 9.544,2.013 12.320 C 2.084 14.439,2.752 16.328,4.033 18.040 C 4.430 18.570,5.305 19.464,5.800 19.847 C 7.242 20.961,8.787 21.624,10.600 21.907 C 11.247 22.008,12.753 22.008,13.400 21.907 C 15.638 21.557,17.504 20.620,19.062 19.062 C 20.620 17.504,21.557 15.638,21.907 13.400 C 22.008 12.753,22.008 11.247,21.907 10.600 C 21.624 8.786,20.959 7.238,19.847 5.800 C 19.510 5.365,18.639 4.494,18.200 4.154 C 16.133 2.555,13.646 1.818,11.080 2.045 M12.734 4.041 C 14.574 4.216,16.228 4.976,17.554 6.256 C 20.043 8.658,20.702 12.394,19.183 15.499 C 18.749 16.387,18.223 17.105,17.496 17.801 C 16.876 18.394,16.262 18.819,15.471 19.200 C 13.267 20.265,10.733 20.265,8.529 19.200 C 7.477 18.693,6.612 18.015,5.847 17.100 C 3.848 14.711,3.440 11.302,4.816 8.500 C 6.162 5.760,8.867 4.049,11.920 4.005 C 12.129 4.003,12.495 4.019,12.734 4.041 M6.600 7.584 C 6.267 7.728,6.000 8.136,6.001 8.500 C 6.002 8.825,6.117 9.013,6.631 9.530 L 7.099 10.000 6.631 10.470 C 6.117 10.987,6.002 11.175,6.001 11.500 C 6.000 11.874,6.270 12.277,6.618 12.422 C 6.836 12.513,7.189 12.507,7.405 12.408 C 7.514 12.359,7.746 12.161,8.019 11.884 C 8.261 11.640,8.477 11.440,8.500 11.440 C 8.523 11.440,8.739 11.640,8.981 11.884 C 9.254 12.161,9.486 12.359,9.595 12.408 C 9.811 12.507,10.164 12.513,10.382 12.422 C 10.730 12.277,11.000 11.874,10.999 11.500 C 10.998 11.175,10.883 10.987,10.369 10.470 L 9.901 10.000 10.369 9.530 C 10.883 9.013,10.998 8.825,10.999 8.500 C 11.000 8.131,10.730 7.723,10.391 7.582 C 10.185 7.496,9.779 7.503,9.580 7.597 C 9.492 7.638,9.223 7.870,8.981 8.116 C 8.739 8.360,8.523 8.560,8.500 8.560 C 8.477 8.560,8.261 8.360,8.019 8.116 C 7.777 7.870,7.508 7.638,7.420 7.597 C 7.222 7.504,6.799 7.498,6.600 7.584 M13.600 7.584 C 13.267 7.728,13.000 8.136,13.001 8.500 C 13.002 8.825,13.117 9.013,13.631 9.530 L 14.099 10.000 13.631 10.470 C 13.117 10.987,13.002 11.175,13.001 11.500 C 13.000 11.874,13.270 12.277,13.618 12.422 C 13.836 12.513,14.189 12.507,14.405 12.408 C 14.514 12.359,14.746 12.161,15.019 11.884 C 15.261 11.640,15.477 11.440,15.500 11.440 C 15.523 11.440,15.739 11.640,15.981 11.884 C 16.254 12.161,16.486 12.359,16.595 12.408 C 16.811 12.507,17.164 12.513,17.382 12.422 C 17.730 12.277,18.000 11.874,17.999 11.500 C 17.998 11.175,17.883 10.987,17.369 10.470 L 16.901 10.000 17.369 9.530 C 17.883 9.013,17.998 8.825,17.999 8.500 C 18.000 8.131,17.730 7.723,17.391 7.582 C 17.185 7.496,16.779 7.503,16.580 7.597 C 16.492 7.638,16.223 7.870,15.981 8.116 C 15.739 8.360,15.523 8.560,15.500 8.560 C 15.477 8.560,15.261 8.360,15.019 8.116 C 14.777 7.870,14.508 7.638,14.420 7.597 C 14.222 7.504,13.799 7.498,13.600 7.584 M9.240 14.035 C 8.784 14.184,8.512 14.546,8.512 15.003 C 8.512 15.328,8.619 15.534,8.945 15.841 C 9.445 16.312,9.995 16.630,10.661 16.835 C 11.174 16.993,11.481 17.039,12.000 17.039 C 12.519 17.039,12.826 16.993,13.339 16.835 C 14.005 16.630,14.555 16.312,15.055 15.841 C 15.381 15.534,15.488 15.328,15.488 15.003 C 15.488 14.732,15.402 14.508,15.228 14.326 C 15.015 14.105,14.819 14.022,14.500 14.022 C 14.164 14.022,14.056 14.072,13.651 14.419 C 13.287 14.730,13.047 14.861,12.657 14.961 C 12.066 15.112,11.314 15.034,10.833 14.772 C 10.723 14.712,10.502 14.552,10.343 14.416 C 10.184 14.280,9.993 14.138,9.920 14.100 C 9.769 14.022,9.390 13.986,9.240 14.035 " stroke="none" fill-rule="evenodd" fill="black"></path></svg>