<svg xmlns="http://www.w3.org/2000/svg" width="24" height="24" viewBox="0 0 24 24" fill="none" stroke="currentColor" stroke-width="2" stroke-linecap="round" stroke-linejoin="round"><path d="M11.300 2.028 C 10.836 2.060,10.142 2.173,9.608 2.303 C 6.120 3.157,3.323 5.865,2.380 9.300 C 1.792 11.447,1.895 13.579,2.689 15.633 C 3.768 18.428,6.176 20.674,9.020 21.540 C 10.167 21.889,10.796 21.980,12.040 21.978 C 13.227 21.976,13.378 21.945,13.682 21.642 C 14.153 21.171,14.068 20.450,13.501 20.101 L 13.305 19.980 12.421 19.994 C 11.490 20.008,11.006 19.971,10.360 19.833 C 9.443 19.639,8.416 19.209,7.604 18.680 C 6.117 17.711,4.977 16.221,4.407 14.500 C 3.647 12.207,3.984 9.640,5.309 7.626 C 6.407 5.959,8.029 4.786,9.937 4.280 C 10.703 4.076,11.106 4.025,11.960 4.023 C 13.032 4.020,13.669 4.124,14.643 4.463 C 15.762 4.852,16.672 5.408,17.510 6.215 C 18.245 6.923,18.747 7.613,19.199 8.540 C 19.656 9.474,19.883 10.328,19.960 11.404 C 20.024 12.291,20.031 12.331,20.161 12.535 C 20.555 13.156,21.466 13.142,21.856 12.508 C 22.003 12.268,22.032 11.911,21.962 11.173 C 21.672 8.085,20.077 5.377,17.560 3.701 C 15.702 2.464,13.507 1.877,11.300 2.028 M8.695 9.055 C 8.464 9.130,8.255 9.300,8.128 9.516 C 8.037 9.672,8.020 9.746,8.020 10.000 C 8.020 10.257,8.036 10.327,8.133 10.492 C 8.651 11.374,9.998 11.018,9.998 10.000 C 9.998 9.623,9.792 9.281,9.463 9.112 C 9.265 9.010,8.911 8.984,8.695 9.055 M14.695 9.055 C 14.464 9.130,14.255 9.300,14.128 9.516 C 14.037 9.672,14.020 9.746,14.020 10.000 C 14.020 10.257,14.036 10.327,14.133 10.492 C 14.651 11.374,15.998 11.018,15.998 10.000 C 15.998 9.623,15.792 9.281,15.463 9.112 C 15.265 9.010,14.911 8.984,14.695 9.055 M9.240 14.035 C 8.786 14.184,8.512 14.547,8.512 14.998 C 8.512 15.324,8.610 15.523,8.904 15.797 C 9.342 16.208,9.863 16.519,10.473 16.736 C 11.025 16.933,11.299 16.978,11.940 16.979 C 12.480 16.980,12.556 16.971,12.700 16.894 C 13.152 16.649,13.362 16.180,13.226 15.716 C 13.145 15.438,12.973 15.234,12.712 15.104 C 12.530 15.013,12.455 15.000,12.099 15.000 C 11.401 15.000,10.816 14.798,10.315 14.383 C 10.175 14.267,9.999 14.140,9.924 14.101 C 9.769 14.022,9.391 13.985,9.240 14.035 M17.260 15.025 C 16.544 15.136,15.851 15.595,15.433 16.235 C 14.801 17.202,14.882 18.572,15.622 19.440 C 15.726 19.561,16.397 20.261,17.115 20.996 C 18.534 22.450,18.583 22.488,18.995 22.488 C 19.423 22.488,19.438 22.475,20.971 20.906 C 21.748 20.110,22.442 19.374,22.514 19.269 C 22.997 18.566,23.126 17.675,22.862 16.851 C 22.654 16.200,22.119 15.584,21.500 15.283 C 21.083 15.081,20.828 15.024,20.340 15.024 C 19.889 15.024,19.616 15.079,19.247 15.244 L 18.993 15.358 18.807 15.263 C 18.704 15.211,18.521 15.139,18.400 15.103 C 18.181 15.037,17.489 14.990,17.260 15.025 M17.863 17.041 C 17.923 17.064,18.075 17.178,18.201 17.294 C 18.752 17.804,19.230 17.808,19.788 17.305 C 20.088 17.035,20.231 16.974,20.462 17.018 C 20.738 17.070,20.998 17.410,20.998 17.720 C 20.998 17.984,20.858 18.165,19.922 19.120 L 19.000 20.060 18.081 19.120 C 17.519 18.545,17.129 18.113,17.076 18.007 C 16.815 17.483,17.339 16.842,17.863 17.041 " stroke="none" fill-rule="evenodd" fill="black"></path></svg>