<svg xmlns="http://www.w3.org/2000/svg" width="24" height="24" viewBox="0 0 24 24" fill="none" stroke="currentColor" stroke-width="2" stroke-linecap="round" stroke-linejoin="round"><path d="M11.080 2.045 C 9.206 2.210,7.361 2.947,5.800 4.154 C 5.005 4.769,4.015 5.884,3.470 6.780 C 2.106 9.020,1.666 11.743,2.260 14.260 C 2.697 16.112,3.581 17.701,4.919 19.042 C 6.094 20.220,7.404 21.026,8.947 21.520 C 10.013 21.862,10.777 21.978,11.980 21.979 C 12.907 21.980,13.226 21.951,13.990 21.797 C 14.417 21.710,14.531 21.658,14.706 21.473 C 15.078 21.077,15.095 20.530,14.746 20.134 C 14.441 19.787,14.171 19.737,13.380 19.881 C 12.144 20.105,10.744 20.002,9.500 19.595 C 8.382 19.229,7.352 18.612,6.504 17.801 C 4.495 15.878,3.630 13.155,4.161 10.422 C 4.403 9.176,5.023 7.881,5.848 6.900 C 6.839 5.721,8.096 4.863,9.502 4.403 C 11.478 3.758,13.651 3.908,15.500 4.816 C 18.047 6.067,19.693 8.462,19.963 11.308 C 20.009 11.792,19.988 12.570,19.916 13.035 C 19.806 13.752,19.957 14.166,20.420 14.412 C 20.644 14.532,21.076 14.531,21.303 14.412 C 21.833 14.132,21.981 13.594,21.978 11.960 C 21.977 11.306,21.957 10.934,21.906 10.600 C 21.628 8.796,20.960 7.239,19.847 5.800 C 19.510 5.365,18.639 4.494,18.200 4.154 C 16.133 2.555,13.646 1.818,11.080 2.045 M8.695 9.055 C 8.464 9.130,8.255 9.300,8.128 9.516 C 8.037 9.672,8.020 9.746,8.020 10.000 C 8.020 10.257,8.036 10.327,8.133 10.492 C 8.651 11.374,9.998 11.018,9.998 10.000 C 9.998 9.623,9.792 9.281,9.463 9.112 C 9.265 9.010,8.911 8.984,8.695 9.055 M14.695 9.055 C 14.464 9.130,14.255 9.300,14.128 9.516 C 14.037 9.672,14.020 9.746,14.020 10.000 C 14.020 10.257,14.036 10.327,14.133 10.492 C 14.651 11.374,15.998 11.018,15.998 10.000 C 15.998 9.623,15.792 9.281,15.463 9.112 C 15.265 9.010,14.911 8.984,14.695 9.055 M11.560 13.224 C 11.268 13.260,10.775 13.369,10.542 13.448 C 9.734 13.722,8.758 14.427,8.573 14.871 C 8.488 15.075,8.495 15.433,8.590 15.646 C 8.754 16.018,9.093 16.238,9.500 16.238 C 9.806 16.238,9.980 16.156,10.340 15.842 C 11.322 14.985,12.678 14.985,13.660 15.842 C 14.020 16.156,14.194 16.238,14.500 16.238 C 14.907 16.238,15.246 16.018,15.410 15.646 C 15.505 15.433,15.512 15.075,15.427 14.871 C 15.242 14.428,14.265 13.722,13.460 13.449 C 12.940 13.272,12.037 13.166,11.560 13.224 M18.672 15.054 C 18.443 15.139,18.301 15.276,17.495 16.180 C 16.390 17.420,16.311 17.533,16.114 18.161 C 16.033 18.418,16.020 18.539,16.023 19.020 C 16.026 19.508,16.039 19.620,16.128 19.887 C 16.441 20.833,17.166 21.558,18.113 21.873 C 18.386 21.963,18.485 21.975,19.000 21.975 C 19.522 21.974,19.612 21.964,19.900 21.867 C 20.835 21.555,21.555 20.835,21.868 19.900 C 21.962 19.618,21.975 19.516,21.977 19.040 C 21.979 18.431,21.926 18.165,21.705 17.700 C 21.545 17.361,21.401 17.181,20.404 16.068 C 19.829 15.426,19.583 15.179,19.453 15.117 C 19.232 15.010,18.868 14.981,18.672 15.054 M19.381 17.924 C 19.842 18.443,19.950 18.605,19.983 18.828 C 20.068 19.395,19.664 19.930,19.107 19.988 C 18.373 20.063,17.805 19.327,18.072 18.647 C 18.131 18.497,18.934 17.520,18.999 17.520 C 19.011 17.520,19.183 17.702,19.381 17.924 " stroke="none" fill-rule="evenodd" fill="black"></path></svg>