<svg xmlns="http://www.w3.org/2000/svg" width="24" height="24" viewBox="0 0 24 24" fill="none" stroke="currentColor" stroke-width="2" stroke-linecap="round" stroke-linejoin="round"><path d="M11.080 2.045 C 9.507 2.184,7.883 2.751,6.540 3.630 C 5.905 4.045,5.499 4.378,4.919 4.958 C 2.953 6.926,1.919 9.544,2.013 12.320 C 2.084 14.439,2.752 16.328,4.033 18.040 C 4.430 18.570,5.305 19.464,5.800 19.847 C 7.242 20.961,8.787 21.624,10.600 21.907 C 11.247 22.008,12.753 22.008,13.400 21.907 C 15.638 21.557,17.504 20.620,19.062 19.062 C 20.620 17.504,21.557 15.638,21.907 13.400 C 22.008 12.753,22.008 11.247,21.907 10.600 C 21.624 8.786,20.959 7.238,19.847 5.800 C 19.510 5.365,18.639 4.494,18.200 4.154 C 16.133 2.555,13.646 1.818,11.080 2.045 M12.734 4.041 C 14.574 4.216,16.228 4.976,17.554 6.256 C 20.043 8.658,20.702 12.394,19.183 15.499 C 18.749 16.387,18.223 17.105,17.496 17.801 C 16.876 18.394,16.262 18.819,15.471 19.200 C 13.267 20.265,10.733 20.265,8.529 19.200 C 7.477 18.693,6.612 18.015,5.847 17.100 C 3.848 14.711,3.440 11.302,4.816 8.500 C 6.162 5.760,8.867 4.049,11.920 4.005 C 12.129 4.003,12.495 4.019,12.734 4.041 M8.695 9.055 C 8.464 9.130,8.255 9.300,8.128 9.516 C 8.037 9.672,8.020 9.746,8.020 10.000 C 8.020 10.257,8.036 10.327,8.133 10.492 C 8.651 11.374,9.998 11.018,9.998 10.000 C 9.998 9.623,9.792 9.281,9.463 9.112 C 9.265 9.010,8.911 8.984,8.695 9.055 M14.695 9.055 C 14.464 9.130,14.255 9.300,14.128 9.516 C 14.037 9.672,14.020 9.746,14.020 10.000 C 14.020 10.257,14.036 10.327,14.133 10.492 C 14.651 11.374,15.998 11.018,15.998 10.000 C 15.998 9.623,15.792 9.281,15.463 9.112 C 15.265 9.010,14.911 8.984,14.695 9.055 M9.640 13.069 C 9.492 13.121,9.265 13.325,8.347 14.236 C 7.734 14.843,7.185 15.421,7.127 15.520 C 7.037 15.672,7.020 15.747,7.020 16.000 C 7.020 16.257,7.036 16.327,7.133 16.492 C 7.263 16.714,7.502 16.901,7.736 16.965 C 7.939 17.019,8.267 16.989,8.445 16.899 C 8.519 16.861,8.900 16.514,9.290 16.127 L 10.000 15.423 10.710 16.127 C 11.101 16.514,11.483 16.864,11.560 16.904 C 11.660 16.957,11.785 16.978,12.000 16.978 C 12.215 16.978,12.340 16.957,12.440 16.904 C 12.517 16.864,12.900 16.514,13.290 16.127 L 14.000 15.423 14.710 16.127 C 15.101 16.514,15.481 16.861,15.555 16.899 C 16.008 17.128,16.601 16.944,16.867 16.492 C 16.964 16.327,16.980 16.257,16.980 16.000 C 16.980 15.747,16.963 15.672,16.873 15.520 C 16.815 15.421,16.266 14.843,15.653 14.236 C 14.680 13.271,14.515 13.124,14.343 13.066 C 14.093 12.982,13.906 12.982,13.657 13.067 C 13.491 13.123,13.345 13.247,12.730 13.854 L 12.000 14.574 11.270 13.854 C 10.655 13.247,10.509 13.123,10.343 13.067 C 10.102 12.985,9.878 12.986,9.640 13.069 " stroke="none" fill-rule="evenodd" fill="black"></path></svg>