<svg xmlns="http://www.w3.org/2000/svg" width="24" height="24" viewBox="0 0 24 24" fill="none" stroke="currentColor" stroke-width="2" stroke-linecap="round" stroke-linejoin="round"><path d="M11.400 2.027 C 9.517 2.162,7.966 2.685,6.440 3.699 C 5.504 4.322,4.678 5.101,4.023 5.980 C 3.556 6.606,3.353 6.937,3.019 7.620 C 2.381 8.923,2.059 10.215,2.013 11.660 C 1.985 12.515,2.037 13.140,2.203 13.980 C 3.149 18.741,7.452 22.148,12.318 21.988 C 13.176 21.959,13.404 21.908,13.645 21.690 C 13.892 21.468,13.978 21.272,13.977 20.940 C 13.974 20.544,13.799 20.246,13.465 20.069 C 13.307 19.986,13.251 19.982,12.200 19.979 C 11.255 19.977,11.038 19.964,10.660 19.892 C 9.298 19.631,8.146 19.124,7.100 18.326 C 6.761 18.066,6.075 17.394,5.789 17.040 C 3.831 14.617,3.453 11.278,4.820 8.492 C 5.247 7.621,5.758 6.921,6.465 6.239 C 7.118 5.609,7.665 5.227,8.500 4.817 C 11.216 3.484,14.483 3.817,16.874 5.669 C 18.388 6.843,19.401 8.447,19.820 10.337 C 19.936 10.860,20.014 11.046,20.186 11.205 C 20.776 11.753,21.735 11.413,21.863 10.611 C 21.912 10.303,21.617 9.127,21.277 8.272 C 20.943 7.433,20.384 6.475,19.800 5.740 C 19.445 5.294,18.695 4.551,18.225 4.180 C 16.274 2.640,13.787 1.856,11.400 2.027 M8.695 9.055 C 8.464 9.130,8.255 9.300,8.128 9.516 C 8.037 9.672,8.020 9.746,8.020 10.000 C 8.020 10.257,8.036 10.327,8.133 10.492 C 8.651 11.374,9.998 11.018,9.998 10.000 C 9.998 9.623,9.792 9.281,9.463 9.112 C 9.265 9.010,8.911 8.984,8.695 9.055 M14.695 9.055 C 14.464 9.130,14.255 9.300,14.128 9.516 C 14.037 9.672,14.020 9.746,14.020 10.000 C 14.020 10.257,14.036 10.327,14.133 10.492 C 14.651 11.374,15.998 11.018,15.998 10.000 C 15.998 9.623,15.792 9.281,15.463 9.112 C 15.265 9.010,14.911 8.984,14.695 9.055 M18.600 12.584 C 18.399 12.671,18.205 12.869,18.095 13.100 C 18.018 13.263,18.001 13.365,18.000 13.650 L 18.000 14.000 16.946 14.000 C 15.797 14.000,15.644 14.022,15.382 14.221 C 15.302 14.282,15.187 14.415,15.128 14.516 C 15.036 14.672,15.020 14.746,15.020 15.003 C 15.020 15.271,15.034 15.329,15.141 15.503 C 15.288 15.742,15.578 15.946,15.821 15.982 L 16.000 16.009 16.000 17.998 L 16.000 19.987 15.786 20.035 C 15.515 20.096,15.270 20.275,15.129 20.514 C 15.036 20.672,15.020 20.745,15.020 21.000 C 15.020 21.256,15.036 21.328,15.131 21.489 C 15.192 21.592,15.304 21.725,15.381 21.783 C 15.643 21.983,15.738 21.996,16.910 21.998 L 18.000 22.000 18.000 22.350 C 18.001 22.635,18.018 22.737,18.095 22.900 C 18.276 23.281,18.595 23.488,19.000 23.488 C 19.405 23.488,19.724 23.281,19.905 22.900 C 19.982 22.735,19.999 22.635,20.000 22.334 L 20.000 21.969 20.289 21.874 C 21.001 21.642,21.604 21.048,21.868 20.320 C 21.965 20.052,21.976 19.965,21.976 19.500 C 21.976 19.035,21.965 18.949,21.868 18.684 C 21.809 18.521,21.705 18.301,21.636 18.194 L 21.512 18.000 21.636 17.806 C 21.705 17.699,21.809 17.479,21.868 17.316 C 21.965 17.051,21.976 16.965,21.976 16.500 C 21.976 16.035,21.965 15.948,21.868 15.680 C 21.599 14.937,20.984 14.347,20.241 14.118 L 20.020 14.049 19.999 13.635 C 19.982 13.318,19.957 13.182,19.892 13.060 C 19.783 12.854,19.580 12.661,19.391 12.582 C 19.203 12.503,18.783 12.504,18.600 12.584 M9.240 14.035 C 8.786 14.184,8.512 14.547,8.512 14.998 C 8.512 15.324,8.610 15.523,8.904 15.797 C 9.548 16.400,10.363 16.788,11.314 16.945 C 12.009 17.059,13.066 16.953,13.511 16.724 C 14.048 16.448,14.201 15.717,13.825 15.223 C 13.708 15.070,13.397 14.899,13.174 14.865 C 13.070 14.850,12.862 14.870,12.619 14.920 C 11.715 15.106,10.979 14.936,10.320 14.388 C 10.177 14.269,9.999 14.140,9.924 14.101 C 9.769 14.022,9.391 13.985,9.240 14.035 M19.724 16.062 C 19.872 16.139,20.000 16.341,20.000 16.500 C 20.000 16.566,19.965 16.678,19.922 16.748 C 19.780 16.980,19.693 17.000,18.802 17.000 L 18.000 17.000 18.000 16.500 L 18.000 16.000 18.802 16.000 C 19.448 16.000,19.627 16.012,19.724 16.062 M19.724 19.062 C 19.872 19.139,20.000 19.341,20.000 19.500 C 20.000 19.566,19.965 19.678,19.922 19.748 C 19.780 19.980,19.693 20.000,18.802 20.000 L 18.000 20.000 18.000 19.500 L 18.000 19.000 18.802 19.000 C 19.448 19.000,19.627 19.012,19.724 19.062 " stroke="none" fill-rule="evenodd" fill="black"></path></svg>