<svg xmlns="http://www.w3.org/2000/svg" width="24" height="24" viewBox="0 0 24 24" fill="none" stroke="currentColor" stroke-width="2" stroke-linecap="round" stroke-linejoin="round"><path d="M11.080 2.045 C 9.507 2.184,7.883 2.751,6.540 3.630 C 5.905 4.045,5.499 4.378,4.919 4.958 C 2.953 6.926,1.919 9.544,2.013 12.320 C 2.084 14.439,2.752 16.328,4.033 18.040 C 4.430 18.570,5.305 19.464,5.800 19.847 C 7.242 20.961,8.787 21.624,10.600 21.907 C 11.247 22.008,12.753 22.008,13.400 21.907 C 15.638 21.557,17.504 20.620,19.062 19.062 C 20.620 17.504,21.557 15.638,21.907 13.400 C 22.008 12.753,22.008 11.247,21.907 10.600 C 21.624 8.786,20.959 7.238,19.847 5.800 C 19.510 5.365,18.639 4.494,18.200 4.154 C 16.133 2.555,13.646 1.818,11.080 2.045 M12.734 4.041 C 14.574 4.216,16.228 4.976,17.554 6.256 C 20.043 8.658,20.702 12.394,19.183 15.499 C 18.749 16.387,18.223 17.105,17.496 17.801 C 16.876 18.394,16.262 18.819,15.471 19.200 C 13.267 20.265,10.733 20.265,8.529 19.200 C 7.477 18.693,6.612 18.015,5.847 17.100 C 3.848 14.711,3.440 11.302,4.816 8.500 C 6.162 5.760,8.867 4.049,11.920 4.005 C 12.129 4.003,12.495 4.019,12.734 4.041 M8.114 8.283 C 7.494 8.349,6.886 8.630,6.485 9.038 C 5.926 9.606,5.854 10.256,6.299 10.701 C 6.732 11.134,7.433 11.077,7.809 10.578 C 7.991 10.336,8.137 10.271,8.500 10.271 C 8.863 10.271,9.009 10.336,9.191 10.578 C 9.567 11.077,10.268 11.134,10.701 10.701 C 11.147 10.255,11.076 9.616,10.517 9.043 C 10.099 8.615,9.521 8.353,8.833 8.281 C 8.628 8.259,8.451 8.243,8.440 8.246 C 8.429 8.249,8.282 8.265,8.114 8.283 M15.114 8.283 C 14.494 8.349,13.886 8.630,13.485 9.038 C 12.926 9.606,12.854 10.256,13.299 10.701 C 13.732 11.134,14.433 11.077,14.809 10.578 C 14.991 10.336,15.137 10.271,15.500 10.271 C 15.863 10.271,16.009 10.336,16.191 10.578 C 16.567 11.077,17.268 11.134,17.701 10.701 C 18.147 10.255,18.076 9.616,17.517 9.043 C 17.099 8.615,16.521 8.353,15.833 8.281 C 15.628 8.259,15.451 8.243,15.440 8.246 C 15.429 8.249,15.282 8.265,15.114 8.283 M9.240 14.035 C 8.784 14.184,8.512 14.546,8.512 15.003 C 8.512 15.328,8.619 15.534,8.945 15.841 C 9.445 16.312,9.995 16.630,10.661 16.835 C 11.174 16.993,11.481 17.039,12.000 17.039 C 12.519 17.039,12.826 16.993,13.339 16.835 C 14.005 16.630,14.555 16.312,15.055 15.841 C 15.381 15.534,15.488 15.328,15.488 15.003 C 15.488 14.732,15.402 14.508,15.228 14.326 C 15.015 14.105,14.819 14.022,14.500 14.022 C 14.164 14.022,14.056 14.072,13.651 14.419 C 13.287 14.730,13.047 14.861,12.657 14.961 C 12.066 15.112,11.314 15.034,10.833 14.772 C 10.723 14.712,10.502 14.552,10.343 14.416 C 10.184 14.280,9.993 14.138,9.920 14.100 C 9.769 14.022,9.390 13.986,9.240 14.035 " stroke="none" fill-rule="evenodd" fill="black"></path></svg>