<svg xmlns="http://www.w3.org/2000/svg" width="24" height="24" viewBox="0 0 24 24" fill="none" stroke="currentColor" stroke-width="2" stroke-linecap="round" stroke-linejoin="round"><path d="M11.080 2.045 C 9.507 2.184,7.883 2.751,6.540 3.630 C 5.905 4.045,5.499 4.378,4.919 4.958 C 2.953 6.926,1.919 9.544,2.013 12.320 C 2.084 14.439,2.752 16.328,4.033 18.040 C 4.430 18.570,5.305 19.464,5.800 19.847 C 7.242 20.961,8.787 21.624,10.600 21.907 C 11.247 22.008,12.753 22.008,13.400 21.907 C 15.638 21.557,17.504 20.620,19.062 19.062 C 20.620 17.504,21.557 15.638,21.907 13.400 C 22.008 12.753,22.008 11.247,21.907 10.600 C 21.624 8.786,20.959 7.238,19.847 5.800 C 19.510 5.365,18.639 4.494,18.200 4.154 C 16.133 2.555,13.646 1.818,11.080 2.045 M12.734 4.041 C 14.574 4.216,16.228 4.976,17.554 6.256 C 20.043 8.658,20.702 12.394,19.183 15.499 C 18.749 16.387,18.223 17.105,17.496 17.801 C 16.876 18.394,16.262 18.819,15.471 19.200 C 13.267 20.265,10.733 20.265,8.529 19.200 C 7.477 18.693,6.612 18.015,5.847 17.100 C 3.848 14.711,3.440 11.302,4.816 8.500 C 6.162 5.760,8.867 4.049,11.920 4.005 C 12.129 4.003,12.495 4.019,12.734 4.041 M8.720 9.037 C 7.860 9.299,7.742 10.479,8.535 10.887 C 9.006 11.129,9.596 10.954,9.867 10.492 C 9.964 10.327,9.980 10.257,9.980 10.000 C 9.980 9.746,9.963 9.672,9.872 9.516 C 9.641 9.123,9.133 8.912,8.720 9.037 M14.720 9.037 C 13.860 9.299,13.742 10.479,14.535 10.887 C 15.006 11.129,15.596 10.954,15.867 10.492 C 15.964 10.327,15.980 10.257,15.980 10.000 C 15.980 9.746,15.963 9.672,15.872 9.516 C 15.641 9.123,15.133 8.912,14.720 9.037 M8.695 13.057 C 8.352 13.164,8.073 13.481,8.018 13.825 C 7.992 13.985,7.986 13.990,7.781 14.036 C 7.515 14.096,7.269 14.276,7.129 14.514 C 7.036 14.672,7.020 14.745,7.020 15.003 C 7.020 15.271,7.034 15.329,7.141 15.503 C 7.287 15.740,7.577 15.946,7.817 15.982 C 7.988 16.007,7.993 16.012,8.018 16.183 C 8.054 16.423,8.260 16.713,8.497 16.859 C 8.671 16.966,8.729 16.980,9.000 16.980 C 9.271 16.980,9.329 16.966,9.503 16.859 C 9.742 16.712,9.946 16.422,9.982 16.179 L 10.009 16.000 10.500 16.000 L 10.991 16.000 11.018 16.179 C 11.054 16.422,11.258 16.712,11.497 16.859 C 11.671 16.966,11.729 16.980,12.000 16.980 C 12.271 16.980,12.329 16.966,12.503 16.859 C 12.742 16.712,12.946 16.422,12.982 16.179 L 13.009 16.000 13.500 16.000 L 13.991 16.000 14.018 16.179 C 14.054 16.422,14.258 16.712,14.497 16.859 C 14.671 16.966,14.729 16.980,15.000 16.980 C 15.271 16.980,15.329 16.966,15.503 16.859 C 15.740 16.713,15.946 16.423,15.982 16.183 C 16.007 16.012,16.012 16.007,16.183 15.982 C 16.423 15.946,16.713 15.740,16.859 15.503 C 16.966 15.329,16.980 15.271,16.980 15.003 C 16.980 14.745,16.964 14.672,16.871 14.514 C 16.731 14.276,16.485 14.096,16.219 14.036 C 16.014 13.990,16.008 13.985,15.982 13.825 C 15.922 13.448,15.605 13.123,15.214 13.035 C 14.666 12.913,14.104 13.285,14.017 13.830 L 13.990 14.000 13.500 14.000 L 13.010 14.000 12.983 13.830 C 12.922 13.448,12.608 13.123,12.214 13.035 C 11.666 12.913,11.104 13.285,11.017 13.830 L 10.990 14.000 10.500 14.000 L 10.010 14.000 9.983 13.830 C 9.926 13.473,9.648 13.163,9.290 13.055 C 9.068 12.988,8.913 12.989,8.695 13.057 " stroke="none" fill-rule="evenodd" fill="black"></path></svg>