<svg xmlns="http://www.w3.org/2000/svg" width="24" height="24" viewBox="0 0 24 24" fill="none" stroke="currentColor" stroke-width="2" stroke-linecap="round" stroke-linejoin="round"><path d="M11.000 2.044 C 8.741 2.287,6.702 3.233,5.072 4.795 C 3.433 6.366,2.402 8.417,2.074 10.760 C 1.993 11.336,2.005 12.786,2.096 13.380 C 2.509 16.097,3.894 18.420,6.060 20.030 C 8.123 21.564,10.822 22.255,13.360 21.900 C 16.211 21.500,18.742 19.910,20.327 17.522 C 20.697 16.964,21.201 15.993,21.282 15.680 C 21.429 15.111,21.022 14.539,20.412 14.458 C 20.245 14.436,20.144 14.455,19.796 14.572 C 18.920 14.867,18.518 14.948,17.740 14.986 C 15.940 15.072,14.073 14.315,12.809 12.984 C 11.244 11.336,10.653 9.054,11.219 6.839 C 11.478 5.825,12.032 4.842,12.813 4.008 C 13.308 3.479,13.378 3.354,13.378 3.000 C 13.378 2.698,13.303 2.516,13.093 2.307 C 12.833 2.047,12.737 2.021,12.000 2.014 C 11.637 2.010,11.187 2.024,11.000 2.044 M10.113 4.270 C 10.106 4.287,9.997 4.509,9.871 4.765 C 9.508 5.499,9.286 6.189,9.111 7.115 C 9.038 7.508,9.024 7.723,9.024 8.500 C 9.024 9.472,9.052 9.713,9.264 10.566 C 9.852 12.936,11.444 14.935,13.639 16.058 C 14.908 16.707,16.446 17.053,17.770 16.987 C 18.029 16.974,18.240 16.977,18.240 16.992 C 18.240 17.008,18.051 17.221,17.820 17.467 C 15.924 19.481,13.149 20.374,10.460 19.836 C 7.701 19.284,5.500 17.399,4.486 14.720 C 4.122 13.756,3.947 12.494,4.033 11.450 C 4.196 9.471,4.922 7.834,6.247 6.459 C 6.942 5.737,7.604 5.256,8.514 4.811 C 9.191 4.479,10.167 4.149,10.113 4.270 " stroke="none" fill-rule="evenodd" fill="black"></path></svg>