<svg xmlns="http://www.w3.org/2000/svg" width="24" height="24" viewBox="0 0 24 24" fill="none" stroke="currentColor" stroke-width="2" stroke-linecap="round" stroke-linejoin="round"><path d="M14.695 4.055 C 14.464 4.130,14.255 4.300,14.128 4.516 C 14.037 4.672,14.020 4.746,14.020 5.000 C 14.020 5.256,14.036 5.328,14.131 5.489 C 14.192 5.592,14.304 5.725,14.381 5.783 C 14.622 5.967,14.770 5.996,15.463 5.998 C 16.257 6.000,16.439 6.045,16.697 6.303 C 17.003 6.609,17.000 6.586,17.000 9.022 L 17.000 11.149 16.507 11.310 C 14.814 11.862,13.350 13.079,12.513 14.630 L 12.313 15.000 11.158 15.000 L 10.003 15.000 9.992 13.350 L 9.980 11.700 9.872 11.516 C 9.740 11.293,9.533 11.128,9.290 11.055 C 9.021 10.974,5.935 10.977,5.395 11.058 C 3.735 11.309,2.421 12.566,2.083 14.227 C 2.015 14.557,2.000 14.777,2.002 15.406 C 2.004 16.239,2.027 16.370,2.217 16.619 C 2.275 16.696,2.408 16.808,2.511 16.869 C 2.693 16.976,2.724 16.980,3.345 16.993 L 3.990 17.007 4.017 17.305 C 4.124 18.489,4.979 19.518,6.160 19.886 C 6.412 19.964,6.547 19.979,7.000 19.979 C 7.453 19.979,7.588 19.964,7.840 19.886 C 9.023 19.518,9.876 18.489,9.984 17.302 L 10.011 17.000 11.576 17.000 C 12.530 17.000,13.198 16.983,13.289 16.958 C 13.639 16.861,13.816 16.643,14.096 15.968 C 14.303 15.467,14.619 14.990,15.034 14.554 C 15.870 13.676,16.750 13.214,17.955 13.019 C 18.141 12.989,18.376 12.922,18.476 12.870 C 18.690 12.760,18.900 12.503,18.961 12.278 C 18.990 12.169,19.000 11.206,18.991 9.269 L 18.979 6.420 18.885 6.140 C 18.558 5.158,17.809 4.413,16.861 4.125 C 16.574 4.039,16.451 4.027,15.700 4.015 C 15.072 4.004,14.818 4.015,14.695 4.055 M5.695 8.057 C 5.466 8.129,5.256 8.299,5.128 8.516 C 5.037 8.672,5.020 8.746,5.020 9.000 C 5.020 9.256,5.036 9.328,5.131 9.489 C 5.256 9.702,5.449 9.864,5.670 9.943 C 5.888 10.021,9.112 10.021,9.330 9.943 C 9.551 9.864,9.744 9.702,9.869 9.489 C 9.964 9.328,9.980 9.256,9.980 9.000 C 9.980 8.746,9.963 8.672,9.872 8.516 C 9.740 8.293,9.533 8.128,9.290 8.055 C 9.035 7.978,5.941 7.980,5.695 8.057 M8.000 14.000 L 8.000 15.000 6.000 15.000 L 4.000 15.000 4.000 14.898 C 4.000 14.676,4.132 14.235,4.265 14.014 C 4.546 13.543,4.988 13.201,5.477 13.073 C 5.694 13.017,5.936 13.004,6.870 13.002 L 8.000 13.000 8.000 14.000 M17.499 14.040 C 16.363 14.246,15.460 15.049,15.114 16.160 C 14.979 16.594,14.979 17.406,15.114 17.840 C 15.421 18.826,16.174 19.579,17.160 19.886 C 17.594 20.021,18.406 20.021,18.840 19.886 C 19.826 19.579,20.579 18.826,20.886 17.840 C 21.021 17.406,21.021 16.594,20.886 16.160 C 20.581 15.179,19.810 14.407,18.861 14.129 C 18.500 14.023,17.832 13.980,17.499 14.040 M18.334 16.064 C 18.698 16.188,19.000 16.613,19.000 17.001 C 19.000 17.331,18.784 17.696,18.484 17.872 C 18.328 17.963,18.254 17.980,18.000 17.980 C 17.746 17.980,17.672 17.963,17.516 17.872 C 16.937 17.531,16.833 16.774,17.301 16.306 C 17.587 16.019,17.952 15.934,18.334 16.064 M8.000 17.054 C 8.000 17.181,7.882 17.483,7.779 17.618 C 7.718 17.698,7.585 17.813,7.484 17.872 C 7.328 17.963,7.254 17.980,7.000 17.980 C 6.746 17.980,6.672 17.963,6.516 17.872 C 6.303 17.747,6.141 17.550,6.058 17.316 C 5.939 16.978,5.872 17.000,7.000 17.000 C 7.810 17.000,8.000 17.010,8.000 17.054 " stroke="none" fill-rule="evenodd" fill="black"></path></svg>