<svg xmlns="http://www.w3.org/2000/svg" width="24" height="24" viewBox="0 0 24 24" fill="none" stroke="currentColor" stroke-width="2" stroke-linecap="round" stroke-linejoin="round"><path d="M2.670 2.061 C 2.448 2.142,2.250 2.309,2.128 2.516 C 2.036 2.672,2.020 2.745,2.021 3.000 C 2.021 3.212,2.043 3.341,2.095 3.440 C 2.135 3.517,3.313 4.727,4.711 6.128 C 7.086 8.507,7.252 8.682,7.212 8.768 C 7.189 8.819,6.027 11.272,4.631 14.220 C 3.234 17.168,2.069 19.650,2.041 19.735 C 1.887 20.207,2.224 20.823,2.711 20.958 C 2.811 20.986,5.585 21.000,11.221 21.000 L 19.582 21.000 19.961 21.383 C 20.471 21.898,20.614 21.980,21.000 21.980 C 21.257 21.980,21.327 21.964,21.492 21.867 C 21.968 21.587,22.139 20.967,21.865 20.508 C 21.810 20.416,17.665 16.243,12.653 11.235 C 4.231 2.820,3.525 2.125,3.343 2.065 C 3.107 1.987,2.874 1.986,2.670 2.061 M11.473 3.121 C 10.781 3.238,10.016 3.644,9.585 4.122 C 9.180 4.574,8.795 5.306,8.768 5.679 C 8.730 6.208,9.171 6.707,9.698 6.729 C 10.158 6.749,10.476 6.526,10.743 5.994 C 10.963 5.556,11.140 5.355,11.434 5.211 C 11.627 5.116,11.709 5.100,12.000 5.100 C 12.292 5.100,12.373 5.116,12.569 5.212 C 12.694 5.274,12.867 5.403,12.951 5.500 C 13.068 5.632,13.635 6.792,15.262 10.227 C 16.805 13.484,17.459 14.825,17.560 14.936 C 17.919 15.336,18.565 15.360,18.954 14.988 C 19.174 14.777,19.257 14.579,19.258 14.260 L 19.260 13.980 17.089 9.398 C 15.894 6.877,14.845 4.705,14.758 4.571 C 14.254 3.800,13.428 3.265,12.520 3.122 C 12.224 3.075,11.748 3.075,11.473 3.121 M9.832 11.748 C 9.696 11.885,9.581 11.994,9.576 11.989 C 9.571 11.984,9.332 11.686,9.045 11.327 L 8.522 10.673 8.645 10.431 L 8.767 10.188 9.423 10.843 L 10.079 11.498 9.832 11.748 M8.192 13.470 C 8.941 14.406,9.069 14.504,9.520 14.492 C 9.892 14.482,10.004 14.406,10.781 13.636 L 11.502 12.922 14.541 15.961 L 17.580 19.000 11.090 19.000 C 7.520 19.000,4.600 18.992,4.600 18.982 C 4.600 18.964,7.510 12.810,7.546 12.750 C 7.556 12.733,7.571 12.720,7.579 12.720 C 7.586 12.720,7.862 13.058,8.192 13.470 " stroke="none" fill-rule="evenodd" fill="black"></path></svg>