<svg xmlns="http://www.w3.org/2000/svg" width="24" height="24" viewBox="0 0 24 24" fill="none" stroke="currentColor" stroke-width="2" stroke-linecap="round" stroke-linejoin="round"><path d="M3.723 7.047 C 3.647 7.068,3.512 7.137,3.423 7.200 C 3.182 7.368,1.181 9.397,1.095 9.560 C 1.043 9.659,1.021 9.787,1.021 10.000 C 1.020 10.258,1.036 10.327,1.133 10.492 C 1.340 10.844,1.705 11.029,2.112 10.987 C 2.360 10.962,2.595 10.834,2.820 10.601 L 2.980 10.436 3.000 13.371 L 3.020 16.306 3.141 16.503 C 3.543 17.156,4.457 17.156,4.859 16.503 L 4.980 16.306 4.980 12.003 L 4.980 7.700 4.872 7.516 C 4.635 7.113,4.163 6.920,3.723 7.047 M9.695 7.057 C 9.466 7.129,9.256 7.299,9.128 7.516 L 9.020 7.700 9.009 9.911 C 9.001 11.337,9.012 12.176,9.039 12.275 C 9.099 12.498,9.289 12.739,9.508 12.867 L 9.700 12.980 10.980 13.000 C 12.418 13.023,12.429 13.025,12.717 13.321 C 12.880 13.490,13.000 13.777,13.000 14.001 C 13.000 14.331,12.784 14.696,12.484 14.872 L 12.300 14.980 11.020 15.001 C 10.146 15.016,9.704 15.038,9.627 15.071 C 9.431 15.156,9.239 15.327,9.128 15.516 C 9.037 15.672,9.020 15.746,9.020 16.000 C 9.020 16.257,9.036 16.327,9.133 16.492 C 9.263 16.713,9.502 16.901,9.732 16.963 C 9.837 16.992,10.353 17.001,11.236 16.991 C 12.505 16.976,12.596 16.970,12.860 16.884 C 13.842 16.562,14.582 15.816,14.886 14.840 C 15.021 14.406,15.021 13.594,14.886 13.160 C 14.581 12.180,13.819 11.415,12.861 11.126 C 12.584 11.043,12.433 11.027,11.770 11.010 L 11.000 10.991 11.000 9.995 L 11.000 9.000 12.590 8.998 C 14.300 8.996,14.346 8.991,14.619 8.783 C 14.696 8.725,14.808 8.592,14.869 8.489 C 14.964 8.328,14.980 8.256,14.980 8.000 C 14.980 7.746,14.963 7.672,14.872 7.516 C 14.740 7.293,14.533 7.128,14.290 7.055 C 14.033 6.978,9.943 6.979,9.695 7.057 M16.695 11.057 C 16.466 11.129,16.256 11.299,16.128 11.516 C 16.036 11.672,16.020 11.745,16.021 12.000 C 16.021 12.213,16.043 12.340,16.096 12.440 C 16.136 12.517,16.486 12.900,16.873 13.290 L 17.577 14.000 16.873 14.710 C 16.486 15.101,16.139 15.481,16.101 15.555 C 15.872 16.008,16.056 16.601,16.508 16.867 C 16.673 16.964,16.742 16.980,17.000 16.979 C 17.213 16.979,17.340 16.957,17.440 16.904 C 17.517 16.864,17.899 16.514,18.290 16.127 L 19.000 15.423 19.710 16.127 C 20.101 16.514,20.483 16.864,20.560 16.904 C 20.660 16.957,20.787 16.979,21.000 16.979 C 21.258 16.980,21.327 16.964,21.492 16.867 C 21.714 16.737,21.901 16.498,21.965 16.264 C 22.019 16.061,21.989 15.733,21.899 15.555 C 21.861 15.481,21.514 15.101,21.127 14.710 L 20.423 14.000 21.127 13.290 C 21.514 12.900,21.864 12.517,21.904 12.440 C 21.957 12.340,21.979 12.213,21.979 12.000 C 21.980 11.745,21.964 11.672,21.872 11.516 C 21.740 11.293,21.533 11.128,21.290 11.055 C 21.054 10.984,20.943 10.986,20.680 11.064 C 20.485 11.122,20.397 11.195,19.733 11.851 L 19.000 12.574 18.267 11.851 C 17.603 11.195,17.515 11.122,17.320 11.064 C 17.066 10.988,16.919 10.987,16.695 11.057 M6.695 15.057 C 6.466 15.129,6.256 15.299,6.128 15.516 C 6.036 15.672,6.020 15.745,6.021 16.000 C 6.022 16.332,6.101 16.533,6.306 16.728 C 6.785 17.181,7.580 17.046,7.893 16.460 C 8.025 16.211,8.015 15.760,7.872 15.516 C 7.628 15.101,7.150 14.915,6.695 15.057 " stroke="none" fill-rule="evenodd" fill="black"></path></svg>