<svg xmlns="http://www.w3.org/2000/svg" width="24" height="24" viewBox="0 0 24 24" fill="none" stroke="currentColor" stroke-width="2" stroke-linecap="round" stroke-linejoin="round"><path d="M2.670 2.061 C 2.448 2.142,2.250 2.309,2.128 2.516 C 2.037 2.672,2.020 2.746,2.020 3.000 C 2.020 3.254,2.036 3.327,2.127 3.480 C 2.188 3.581,3.495 4.919,5.117 6.540 L 8.000 9.420 8.000 11.470 C 8.000 12.597,7.990 13.520,7.979 13.520 C 7.967 13.520,7.855 13.469,7.729 13.406 C 7.245 13.164,6.548 13.000,6.000 13.000 C 4.635 13.000,3.253 13.787,2.569 14.953 C 1.320 17.083,2.233 19.785,4.512 20.704 C 6.567 21.532,8.908 20.522,9.714 18.460 C 9.986 17.764,9.974 17.931,9.998 14.530 L 10.020 11.440 11.492 12.912 L 12.964 14.384 12.823 14.567 C 11.698 16.041,11.739 18.117,12.922 19.549 C 13.532 20.289,14.373 20.770,15.350 20.941 C 16.405 21.125,17.568 20.837,18.431 20.178 L 18.615 20.037 19.518 20.934 C 20.014 21.427,20.483 21.864,20.560 21.905 C 20.659 21.957,20.787 21.979,21.000 21.979 C 21.258 21.980,21.327 21.964,21.492 21.867 C 21.968 21.587,22.139 20.967,21.865 20.508 C 21.810 20.416,17.665 16.243,12.653 11.235 C 4.231 2.820,3.525 2.125,3.343 2.065 C 3.107 1.987,2.874 1.986,2.670 2.061 M8.695 3.057 C 8.466 3.129,8.256 3.299,8.128 3.516 C 8.023 3.694,8.020 3.723,8.007 4.404 C 7.999 4.825,8.011 5.172,8.037 5.268 C 8.099 5.498,8.287 5.737,8.508 5.867 C 8.673 5.964,8.743 5.980,9.003 5.980 C 9.271 5.980,9.329 5.966,9.503 5.859 C 9.742 5.712,9.946 5.422,9.982 5.179 L 10.009 5.000 14.005 5.000 L 18.000 5.000 18.000 6.000 L 18.000 7.000 14.946 7.000 C 11.633 7.000,11.675 6.997,11.382 7.221 C 11.302 7.282,11.187 7.415,11.128 7.516 C 11.037 7.672,11.020 7.746,11.020 8.000 C 11.020 8.256,11.036 8.328,11.131 8.489 C 11.256 8.702,11.449 8.864,11.670 8.943 C 11.790 8.986,12.433 8.997,14.909 8.998 L 17.998 9.000 18.009 12.153 L 18.020 15.306 18.141 15.503 C 18.543 16.156,19.457 16.156,19.859 15.503 L 19.980 15.306 19.980 9.503 L 19.980 3.700 19.872 3.516 C 19.740 3.293,19.533 3.128,19.290 3.055 C 19.028 2.976,8.946 2.978,8.695 3.057 M6.523 15.073 C 7.262 15.266,7.850 15.924,7.967 16.690 C 8.067 17.343,7.873 17.933,7.403 18.404 C 7.002 18.807,6.547 19.000,6.000 19.000 C 5.485 19.000,5.038 18.822,4.653 18.465 C 3.323 17.229,4.189 15.005,6.000 15.005 C 6.143 15.005,6.378 15.036,6.523 15.073 M15.800 17.222 C 17.352 18.776,17.254 18.623,16.820 18.819 C 16.056 19.164,15.191 19.002,14.600 18.403 C 13.989 17.782,13.842 16.923,14.213 16.141 C 14.292 15.975,14.371 15.840,14.388 15.840 C 14.406 15.840,15.041 16.462,15.800 17.222 " stroke="none" fill-rule="evenodd" fill="black"></path></svg>