<svg xmlns="http://www.w3.org/2000/svg" width="24" height="24" viewBox="0 0 24 24" fill="none" stroke="currentColor" stroke-width="2" stroke-linecap="round" stroke-linejoin="round"><path d="M8.695 3.057 C 8.466 3.129,8.256 3.299,8.128 3.516 L 8.020 3.700 8.009 8.610 C 8.004 11.310,7.990 13.520,7.978 13.520 C 7.967 13.520,7.855 13.469,7.729 13.406 C 7.245 13.164,6.548 13.000,6.000 13.000 C 4.635 13.000,3.253 13.787,2.569 14.953 C 1.320 17.083,2.233 19.785,4.512 20.704 C 6.558 21.528,8.877 20.538,9.704 18.488 C 9.779 18.300,9.877 17.972,9.921 17.757 C 9.997 17.383,10.000 17.200,10.000 13.184 L 10.000 9.000 13.999 9.000 L 17.997 9.000 18.009 11.153 L 18.020 13.306 18.141 13.503 C 18.543 14.156,19.457 14.156,19.859 13.503 L 19.980 13.306 19.980 8.503 L 19.980 3.700 19.872 3.516 C 19.740 3.293,19.533 3.128,19.290 3.055 C 19.028 2.976,8.946 2.978,8.695 3.057 M18.000 6.000 L 18.000 7.000 14.000 7.000 L 10.000 7.000 10.000 6.000 L 10.000 5.000 14.000 5.000 L 18.000 5.000 18.000 6.000 M6.523 15.073 C 7.262 15.266,7.850 15.924,7.967 16.690 C 8.067 17.343,7.873 17.933,7.403 18.404 C 7.002 18.807,6.547 19.000,6.000 19.000 C 5.485 19.000,5.038 18.822,4.653 18.465 C 3.323 17.229,4.189 15.005,6.000 15.005 C 6.143 15.005,6.378 15.036,6.523 15.073 M16.695 16.057 C 16.466 16.129,16.256 16.299,16.128 16.516 L 16.020 16.700 16.020 19.503 L 16.020 22.306 16.141 22.503 C 16.543 23.156,17.457 23.156,17.859 22.503 L 17.980 22.306 17.980 19.503 L 17.980 16.700 17.872 16.516 C 17.628 16.101,17.150 15.915,16.695 16.057 M20.695 16.057 C 20.466 16.129,20.256 16.299,20.128 16.516 L 20.020 16.700 20.020 19.503 L 20.020 22.306 20.141 22.503 C 20.543 23.156,21.457 23.156,21.859 22.503 L 21.980 22.306 21.980 19.503 L 21.980 16.700 21.872 16.516 C 21.628 16.101,21.150 15.915,20.695 16.057 " stroke="none" fill-rule="evenodd" fill="black"></path></svg>