<svg xmlns="http://www.w3.org/2000/svg" width="24" height="24" viewBox="0 0 24 24" fill="none" stroke="currentColor" stroke-width="2" stroke-linecap="round" stroke-linejoin="round"><path d="M8.695 3.057 C 8.466 3.129,8.256 3.299,8.128 3.516 L 8.020 3.700 8.009 8.610 C 8.004 11.310,7.990 13.520,7.978 13.520 C 7.967 13.520,7.855 13.469,7.729 13.406 C 7.245 13.164,6.548 13.000,6.000 13.000 C 4.635 13.000,3.253 13.787,2.569 14.953 C 1.320 17.083,2.233 19.785,4.512 20.704 C 6.558 21.528,8.877 20.538,9.704 18.488 C 9.779 18.300,9.877 17.972,9.921 17.757 C 9.997 17.383,10.000 17.200,10.000 13.184 L 10.000 9.000 13.999 9.000 L 17.997 9.000 18.009 11.153 L 18.020 13.306 18.141 13.503 C 18.543 14.156,19.457 14.156,19.859 13.503 L 19.980 13.306 19.980 8.503 L 19.980 3.700 19.872 3.516 C 19.740 3.293,19.533 3.128,19.290 3.055 C 19.028 2.976,8.946 2.978,8.695 3.057 M18.000 6.000 L 18.000 7.000 14.000 7.000 L 10.000 7.000 10.000 6.000 L 10.000 5.000 14.000 5.000 L 18.000 5.000 18.000 6.000 M6.523 15.073 C 7.262 15.266,7.850 15.924,7.967 16.690 C 8.067 17.343,7.873 17.933,7.403 18.404 C 7.002 18.807,6.547 19.000,6.000 19.000 C 5.485 19.000,5.038 18.822,4.653 18.465 C 3.323 17.229,4.189 15.005,6.000 15.005 C 6.143 15.005,6.378 15.036,6.523 15.073 M16.640 16.069 C 16.492 16.121,16.265 16.325,15.347 17.236 C 14.734 17.843,14.185 18.421,14.127 18.520 C 14.037 18.672,14.020 18.747,14.020 19.000 C 14.020 19.254,14.036 19.328,14.127 19.480 C 14.260 19.703,16.367 21.803,16.560 21.905 C 16.659 21.957,16.787 21.979,17.000 21.979 C 17.258 21.980,17.327 21.964,17.492 21.867 C 17.714 21.737,17.901 21.498,17.965 21.264 C 18.019 21.061,17.989 20.733,17.899 20.555 C 17.861 20.481,17.514 20.101,17.127 19.710 L 16.423 19.000 17.127 18.290 C 17.514 17.899,17.864 17.517,17.904 17.440 C 17.957 17.340,17.979 17.213,17.979 17.000 C 17.980 16.745,17.964 16.672,17.872 16.516 C 17.617 16.083,17.120 15.902,16.640 16.069 M19.670 16.061 C 19.448 16.142,19.250 16.309,19.128 16.516 C 19.036 16.672,19.020 16.745,19.021 17.000 C 19.021 17.213,19.043 17.340,19.096 17.440 C 19.136 17.517,19.486 17.899,19.873 18.290 L 20.577 19.000 19.873 19.710 C 19.486 20.101,19.139 20.481,19.101 20.555 C 18.872 21.008,19.056 21.601,19.508 21.867 C 19.673 21.964,19.742 21.980,20.000 21.979 C 20.213 21.979,20.341 21.957,20.440 21.905 C 20.633 21.803,22.740 19.703,22.873 19.480 C 22.964 19.328,22.980 19.254,22.980 19.000 C 22.980 18.747,22.963 18.672,22.873 18.520 C 22.815 18.421,22.266 17.843,21.653 17.236 C 20.680 16.271,20.515 16.124,20.343 16.066 C 20.108 15.987,19.875 15.985,19.670 16.061 " stroke="none" fill-rule="evenodd" fill="black"></path></svg>