<svg xmlns="http://www.w3.org/2000/svg" width="24" height="24" viewBox="0 0 24 24" fill="none" stroke="currentColor" stroke-width="2" stroke-linecap="round" stroke-linejoin="round"><path d="M8.695 3.057 C 8.466 3.129,8.256 3.299,8.128 3.516 L 8.020 3.700 8.009 8.610 C 8.004 11.310,7.990 13.520,7.978 13.520 C 7.967 13.520,7.855 13.469,7.729 13.406 C 7.245 13.164,6.548 13.000,6.000 13.000 C 4.635 13.000,3.253 13.787,2.569 14.953 C 1.320 17.083,2.233 19.785,4.512 20.704 C 6.558 21.528,8.877 20.538,9.704 18.488 C 9.779 18.300,9.877 17.972,9.921 17.757 C 9.997 17.383,10.000 17.200,10.000 13.184 L 10.000 9.000 14.000 9.000 L 18.000 9.000 18.000 10.350 C 18.001 11.687,18.002 11.702,18.095 11.900 C 18.276 12.282,18.595 12.488,19.003 12.488 C 19.292 12.488,19.536 12.381,19.724 12.173 C 20.020 11.844,20.004 12.122,19.991 7.680 L 19.980 3.700 19.872 3.516 C 19.740 3.293,19.533 3.128,19.290 3.055 C 19.028 2.976,8.946 2.978,8.695 3.057 M18.000 6.000 L 18.000 7.000 14.000 7.000 L 10.000 7.000 10.000 6.000 L 10.000 5.000 14.000 5.000 L 18.000 5.000 18.000 6.000 M18.617 14.577 C 18.415 14.665,18.193 14.886,18.094 15.100 C 18.015 15.270,18.001 15.364,18.000 15.724 L 18.000 16.148 17.708 16.292 C 17.548 16.371,17.334 16.499,17.233 16.576 L 17.050 16.716 16.664 16.503 C 16.211 16.253,15.998 16.209,15.686 16.302 C 15.161 16.458,14.862 17.002,15.014 17.526 C 15.098 17.815,15.269 17.998,15.677 18.238 L 16.014 18.436 16.017 19.002 L 16.020 19.567 15.649 19.786 C 15.230 20.032,15.075 20.208,14.999 20.524 C 14.876 21.035,15.183 21.552,15.700 21.702 C 16.043 21.802,16.254 21.745,16.876 21.388 L 17.053 21.286 17.235 21.425 C 17.335 21.501,17.548 21.629,17.708 21.708 L 18.000 21.852 18.000 22.276 C 18.001 22.638,18.015 22.729,18.095 22.900 C 18.276 23.281,18.595 23.488,19.000 23.488 C 19.405 23.488,19.724 23.281,19.905 22.900 C 19.986 22.729,19.999 22.639,20.000 22.274 L 20.000 21.848 20.269 21.721 C 20.418 21.652,20.633 21.524,20.749 21.437 L 20.959 21.278 21.120 21.380 C 21.666 21.725,21.988 21.810,22.323 21.699 C 22.828 21.531,23.121 21.024,23.001 20.524 C 22.926 20.210,22.771 20.034,22.352 19.784 L 21.980 19.562 21.983 18.999 L 21.986 18.436 22.323 18.238 C 22.731 17.998,22.902 17.815,22.986 17.526 C 23.138 17.002,22.839 16.458,22.314 16.302 C 22.002 16.209,21.789 16.253,21.336 16.503 L 20.950 16.716 20.767 16.576 C 20.666 16.499,20.452 16.371,20.292 16.292 L 20.000 16.148 20.000 15.724 C 19.999 15.362,19.985 15.271,19.905 15.100 C 19.793 14.865,19.599 14.669,19.391 14.582 C 19.210 14.506,18.785 14.503,18.617 14.577 M6.523 15.073 C 7.262 15.266,7.850 15.924,7.967 16.690 C 8.067 17.343,7.873 17.933,7.403 18.404 C 7.002 18.807,6.547 19.000,6.000 19.000 C 5.485 19.000,5.038 18.822,4.653 18.465 C 3.323 17.229,4.189 15.005,6.000 15.005 C 6.143 15.005,6.378 15.036,6.523 15.073 M19.260 18.044 C 19.497 18.107,19.701 18.263,19.849 18.494 C 19.968 18.679,19.980 18.727,19.980 19.003 C 19.980 19.287,19.970 19.322,19.831 19.531 C 19.613 19.859,19.389 19.980,19.000 19.979 C 18.665 19.978,18.526 19.923,18.308 19.705 C 18.104 19.501,18.022 19.300,18.022 19.000 C 18.022 18.334,18.621 17.871,19.260 18.044 " stroke="none" fill-rule="evenodd" fill="black"></path></svg>