<svg xmlns="http://www.w3.org/2000/svg" width="24" height="24" viewBox="0 0 24 24" fill="none" stroke="currentColor" stroke-width="2" stroke-linecap="round" stroke-linejoin="round"><path d="M8.695 3.057 C 8.466 3.129,8.256 3.299,8.128 3.516 L 8.020 3.700 8.009 8.610 C 8.004 11.310,7.990 13.520,7.978 13.520 C 7.967 13.520,7.855 13.469,7.729 13.406 C 7.245 13.164,6.548 13.000,6.000 13.000 C 4.635 13.000,3.253 13.787,2.569 14.953 C 1.320 17.083,2.233 19.785,4.512 20.704 C 6.558 21.528,8.877 20.538,9.704 18.488 C 9.779 18.300,9.877 17.972,9.921 17.757 C 9.997 17.383,10.000 17.200,10.000 13.184 L 10.000 9.000 13.997 9.000 L 17.993 9.000 18.007 9.653 C 18.020 10.300,18.021 10.308,18.141 10.503 C 18.543 11.156,19.457 11.156,19.859 10.503 L 19.980 10.306 19.980 7.003 L 19.980 3.700 19.872 3.516 C 19.740 3.293,19.533 3.128,19.290 3.055 C 19.028 2.976,8.946 2.978,8.695 3.057 M18.000 6.000 L 18.000 7.000 14.000 7.000 L 10.000 7.000 10.000 6.000 L 10.000 5.000 14.000 5.000 L 18.000 5.000 18.000 6.000 M17.372 13.072 C 17.112 13.165,16.870 13.331,16.723 13.517 C 16.661 13.596,16.403 14.074,16.150 14.580 L 15.689 15.501 14.657 15.651 C 13.546 15.812,13.351 15.870,13.063 16.122 C 12.745 16.402,12.575 16.831,12.611 17.267 C 12.646 17.710,12.753 17.864,13.623 18.726 C 14.233 19.330,14.399 19.517,14.384 19.580 C 14.373 19.624,14.289 20.107,14.197 20.653 L 14.030 21.645 14.095 21.913 C 14.262 22.595,14.870 23.044,15.552 22.989 C 15.821 22.968,16.039 22.871,17.330 22.198 L 17.800 21.953 18.270 22.198 C 19.561 22.871,19.779 22.968,20.048 22.989 C 20.724 23.043,21.333 22.598,21.503 21.925 C 21.576 21.635,21.580 21.680,21.357 20.400 L 21.200 19.500 21.979 18.726 C 22.844 17.867,22.944 17.722,22.986 17.276 C 23.027 16.835,22.860 16.406,22.537 16.122 C 22.249 15.870,22.054 15.812,20.943 15.651 L 19.911 15.501 19.434 14.548 C 18.905 13.491,18.773 13.315,18.370 13.130 C 18.069 12.992,17.662 12.969,17.372 13.072 M6.523 15.073 C 7.262 15.266,7.850 15.924,7.967 16.690 C 8.067 17.343,7.873 17.933,7.403 18.404 C 7.002 18.807,6.547 19.000,6.000 19.000 C 5.485 19.000,5.038 18.822,4.653 18.465 C 3.323 17.229,4.189 15.005,6.000 15.005 C 6.143 15.005,6.378 15.036,6.523 15.073 M18.109 16.376 C 18.267 16.693,18.451 17.015,18.518 17.091 C 18.699 17.298,18.948 17.384,19.653 17.484 L 20.285 17.574 19.787 18.077 C 19.512 18.354,19.261 18.634,19.228 18.701 C 19.111 18.935,19.109 19.155,19.217 19.773 C 19.274 20.098,19.320 20.391,19.320 20.424 C 19.320 20.466,19.137 20.389,18.699 20.162 C 18.097 19.850,18.070 19.840,17.800 19.840 C 17.530 19.840,17.503 19.850,16.901 20.162 C 16.413 20.415,16.280 20.469,16.280 20.415 C 16.280 20.378,16.326 20.085,16.383 19.765 C 16.492 19.156,16.489 18.935,16.372 18.701 C 16.339 18.634,16.088 18.354,15.813 18.077 L 15.315 17.574 15.947 17.484 C 16.652 17.384,16.901 17.298,17.082 17.091 C 17.149 17.015,17.333 16.693,17.491 16.376 C 17.649 16.059,17.788 15.800,17.800 15.800 C 17.812 15.800,17.951 16.059,18.109 16.376 " stroke="none" fill-rule="evenodd" fill="black"></path></svg>