<svg xmlns="http://www.w3.org/2000/svg" width="24" height="24" viewBox="0 0 24 24" fill="none" stroke="currentColor" stroke-width="2" stroke-linecap="round" stroke-linejoin="round"><path d="M11.723 2.044 C 11.544 2.099,11.270 2.289,11.186 2.417 C 11.072 2.590,3.191 19.684,3.088 19.980 C 2.808 20.787,3.255 21.654,4.091 21.923 C 4.583 22.082,4.492 22.107,8.662 20.690 C 10.732 19.986,12.461 19.391,12.506 19.368 C 12.647 19.292,12.866 19.019,12.940 18.826 C 13.118 18.359,12.855 17.781,12.374 17.580 C 12.022 17.433,11.978 17.445,8.600 18.594 C 6.873 19.182,5.455 19.651,5.449 19.638 C 5.434 19.606,11.971 5.440,12.000 5.440 C 12.012 5.440,12.856 7.247,13.875 9.456 C 15.838 13.710,15.803 13.642,16.152 13.818 C 16.620 14.053,17.238 13.830,17.465 13.343 C 17.574 13.109,17.589 12.812,17.505 12.575 C 17.369 12.193,12.862 2.485,12.763 2.360 C 12.542 2.083,12.069 1.940,11.723 2.044 M18.695 15.057 C 18.466 15.129,18.256 15.299,18.128 15.516 L 18.020 15.700 18.008 16.850 L 17.995 18.000 16.944 18.000 C 15.797 18.000,15.643 18.022,15.382 18.221 C 15.302 18.282,15.187 18.415,15.128 18.516 C 15.037 18.672,15.020 18.746,15.020 19.000 C 15.020 19.256,15.036 19.328,15.131 19.489 C 15.192 19.592,15.304 19.725,15.381 19.783 C 15.642 19.983,15.738 19.996,16.908 19.998 L 17.995 20.000 18.008 21.153 L 18.020 22.307 18.141 22.503 C 18.543 23.156,19.457 23.156,19.859 22.503 L 19.980 22.307 19.992 21.153 L 20.005 20.000 21.092 19.998 C 22.262 19.996,22.358 19.983,22.619 19.783 C 22.696 19.725,22.808 19.592,22.869 19.489 C 22.964 19.328,22.980 19.256,22.980 19.000 C 22.980 18.746,22.963 18.672,22.872 18.516 C 22.813 18.415,22.698 18.282,22.618 18.221 C 22.357 18.022,22.203 18.000,21.056 18.000 L 20.005 18.000 19.992 16.850 L 19.980 15.700 19.872 15.516 C 19.628 15.101,19.150 14.915,18.695 15.057 " stroke="none" fill-rule="evenodd" fill="black"></path></svg>