<svg xmlns="http://www.w3.org/2000/svg" width="24" height="24" viewBox="0 0 24 24" fill="none" stroke="currentColor" stroke-width="2" stroke-linecap="round" stroke-linejoin="round"><path d="M11.723 2.044 C 11.544 2.099,11.270 2.289,11.186 2.417 C 11.072 2.590,3.191 19.684,3.088 19.980 C 2.808 20.787,3.255 21.654,4.091 21.923 C 4.581 22.081,4.511 22.100,8.450 20.762 L 12.000 19.555 15.550 20.762 C 19.501 22.105,19.430 22.086,19.920 21.921 C 20.547 21.710,20.939 21.204,20.988 20.540 C 21.006 20.310,20.992 20.210,20.912 19.980 C 20.754 19.528,12.885 2.514,12.763 2.360 C 12.542 2.083,12.069 1.940,11.723 2.044 M15.292 12.528 C 17.090 16.426,18.557 19.627,18.551 19.640 C 18.545 19.653,17.127 19.182,15.400 18.594 C 12.558 17.627,12.235 17.525,12.000 17.526 C 11.765 17.526,11.438 17.628,8.600 18.594 C 6.873 19.182,5.455 19.651,5.449 19.638 C 5.434 19.606,11.971 5.440,12.000 5.440 C 12.013 5.440,13.494 8.630,15.292 12.528 " stroke="none" fill-rule="evenodd" fill="black"></path></svg>