<svg xmlns="http://www.w3.org/2000/svg" width="24" height="24" viewBox="0 0 24 24" fill="none" stroke="currentColor" stroke-width="2" stroke-linecap="round" stroke-linejoin="round"><path d="M11.723 2.044 C 11.544 2.099,11.270 2.289,11.186 2.417 C 11.072 2.590,3.191 19.684,3.088 19.980 C 2.808 20.787,3.255 21.654,4.091 21.923 C 4.577 22.080,4.538 22.090,8.153 20.863 C 9.941 20.256,11.456 19.733,11.519 19.701 C 11.699 19.608,11.917 19.322,11.984 19.092 C 12.130 18.589,11.865 18.098,11.329 17.882 C 11.057 17.773,10.811 17.840,8.080 18.770 C 6.639 19.260,5.455 19.651,5.449 19.637 C 5.434 19.606,11.971 5.440,12.000 5.440 C 12.012 5.440,12.703 6.916,13.536 8.720 C 15.130 12.175,15.104 12.126,15.445 12.303 C 15.513 12.338,15.664 12.376,15.779 12.388 C 16.390 12.451,16.929 11.924,16.871 11.320 C 16.857 11.176,16.367 10.076,14.863 6.815 C 13.769 4.442,12.824 2.437,12.763 2.360 C 12.542 2.083,12.069 1.940,11.723 2.044 M17.358 14.061 C 16.230 14.237,15.143 14.974,14.569 15.953 C 13.320 18.083,14.233 20.785,16.512 21.704 C 17.473 22.091,18.529 22.090,19.494 21.701 C 19.684 21.625,19.881 21.535,19.932 21.502 C 20.020 21.444,20.041 21.460,20.681 22.104 C 21.044 22.468,21.416 22.810,21.508 22.865 C 21.967 23.139,22.587 22.968,22.867 22.492 C 22.964 22.327,22.980 22.257,22.980 22.000 C 22.980 21.589,22.910 21.484,22.104 20.681 C 21.460 20.041,21.444 20.020,21.502 19.932 C 21.627 19.740,21.844 19.132,21.921 18.757 C 22.070 18.024,21.994 17.230,21.705 16.516 C 21.172 15.197,20.001 14.269,18.605 14.058 C 18.144 13.989,17.816 13.990,17.358 14.061 M18.523 16.073 C 19.262 16.266,19.850 16.924,19.967 17.690 C 20.067 18.343,19.873 18.933,19.403 19.404 C 19.002 19.807,18.547 20.000,18.000 20.000 C 17.485 20.000,17.038 19.822,16.653 19.465 C 15.323 18.229,16.189 16.005,18.000 16.005 C 18.143 16.005,18.378 16.036,18.523 16.073 " stroke="none" fill-rule="evenodd" fill="black"></path></svg>