<svg xmlns="http://www.w3.org/2000/svg" width="24" height="24" viewBox="0 0 24 24" fill="none" stroke="currentColor" stroke-width="2" stroke-linecap="round" stroke-linejoin="round"><path d="M11.723 2.044 C 11.544 2.099,11.270 2.289,11.186 2.417 C 11.072 2.590,3.191 19.684,3.088 19.980 C 2.811 20.777,3.253 21.649,4.071 21.918 C 4.552 22.076,4.576 22.070,6.782 21.324 C 11.326 19.786,10.970 19.925,11.182 19.604 C 11.619 18.944,11.138 18.076,10.340 18.083 C 10.136 18.084,9.752 18.203,7.780 18.873 C 6.504 19.307,5.455 19.650,5.449 19.637 C 5.434 19.606,11.971 5.440,12.000 5.440 C 12.012 5.440,12.650 6.803,13.417 8.470 C 14.185 10.137,14.859 11.563,14.916 11.640 C 15.062 11.840,15.151 11.907,15.400 12.003 C 16.050 12.253,16.772 11.694,16.712 10.988 C 16.697 10.818,16.340 10.014,14.784 6.640 C 13.733 4.363,12.824 2.437,12.763 2.360 C 12.542 2.083,12.069 1.940,11.723 2.044 M15.699 14.037 C 14.670 14.202,13.737 14.905,13.305 15.840 C 13.072 16.345,13.021 16.592,13.024 17.200 C 13.026 17.692,13.037 17.773,13.149 18.111 C 13.392 18.843,13.413 18.869,15.473 20.912 C 16.500 21.930,17.421 22.812,17.520 22.872 C 17.673 22.964,17.745 22.980,18.000 22.980 C 18.254 22.980,18.327 22.964,18.480 22.873 C 18.579 22.814,19.509 21.923,20.547 20.893 C 22.582 18.874,22.591 18.863,22.818 18.213 C 23.020 17.636,23.050 16.947,22.900 16.380 C 22.746 15.802,22.353 15.189,21.871 14.775 C 20.903 13.943,19.453 13.773,18.325 14.360 L 18.013 14.522 17.697 14.363 C 17.245 14.135,16.862 14.039,16.340 14.020 C 16.098 14.012,15.810 14.019,15.699 14.037 M16.756 16.138 C 16.867 16.194,17.072 16.348,17.213 16.480 C 17.512 16.759,17.693 16.846,17.980 16.849 C 18.293 16.851,18.459 16.777,18.773 16.492 C 19.235 16.074,19.562 15.956,20.020 16.041 C 20.841 16.193,21.259 17.127,20.806 17.797 C 20.748 17.883,20.101 18.542,19.368 19.262 C 18.242 20.369,18.025 20.565,17.961 20.535 C 17.919 20.516,17.278 19.898,16.537 19.163 C 15.024 17.661,15.020 17.657,15.023 17.160 C 15.025 16.915,15.045 16.822,15.133 16.651 C 15.292 16.341,15.584 16.126,15.980 16.025 C 16.158 15.979,16.559 16.038,16.756 16.138 " stroke="none" fill-rule="evenodd" fill="black"></path></svg>