<svg xmlns="http://www.w3.org/2000/svg" width="24" height="24" viewBox="0 0 24 24" fill="none" stroke="currentColor" stroke-width="2" stroke-linecap="round" stroke-linejoin="round"><path d="M2.670 2.061 C 2.448 2.142,2.250 2.309,2.128 2.516 C 2.036 2.672,2.020 2.745,2.021 3.000 C 2.021 3.212,2.043 3.341,2.095 3.440 C 2.135 3.517,3.470 4.885,5.062 6.480 L 7.956 9.380 5.536 14.620 C 4.205 17.502,3.088 19.958,3.053 20.078 C 3.010 20.227,2.997 20.378,3.012 20.558 C 3.067 21.220,3.463 21.721,4.091 21.923 C 4.581 22.081,4.511 22.100,8.450 20.762 L 12.000 19.555 15.550 20.761 C 18.140 21.641,19.167 21.973,19.348 21.989 C 19.616 22.012,19.868 21.964,20.141 21.835 L 20.315 21.754 20.507 21.867 C 20.673 21.964,20.743 21.980,21.000 21.980 C 21.257 21.980,21.327 21.964,21.492 21.867 C 21.968 21.587,22.139 20.967,21.865 20.508 C 21.810 20.416,17.665 16.243,12.653 11.235 C 4.231 2.820,3.525 2.125,3.343 2.065 C 3.107 1.987,2.874 1.986,2.670 2.061 M11.723 2.044 C 11.526 2.104,11.260 2.298,11.167 2.449 C 11.123 2.521,10.722 3.372,10.277 4.340 C 9.404 6.234,9.374 6.324,9.479 6.720 C 9.541 6.950,9.867 7.280,10.105 7.351 C 10.538 7.480,10.983 7.340,11.221 6.999 C 11.290 6.901,11.488 6.510,11.662 6.130 C 11.835 5.750,11.987 5.440,12.000 5.440 C 12.013 5.440,12.787 7.100,13.721 9.129 C 15.582 13.171,15.530 13.074,15.940 13.214 C 16.186 13.298,16.374 13.298,16.620 13.214 C 17.099 13.051,17.393 12.467,17.234 11.996 C 17.121 11.664,12.862 2.485,12.763 2.360 C 12.542 2.083,12.069 1.940,11.723 2.044 M18.024 19.469 C 18.017 19.476,16.710 19.040,15.119 18.501 C 12.549 17.630,12.199 17.520,11.983 17.523 C 11.774 17.525,11.299 17.676,8.600 18.594 C 6.873 19.182,5.455 19.651,5.449 19.637 C 5.443 19.624,6.343 17.649,7.449 15.248 L 9.460 10.884 13.748 15.170 C 16.107 17.528,18.031 19.462,18.024 19.469 " stroke="none" fill-rule="evenodd" fill="black"></path></svg>