<svg xmlns="http://www.w3.org/2000/svg" width="24" height="24" viewBox="0 0 24 24" fill="none" stroke="currentColor" stroke-width="2" stroke-linecap="round" stroke-linejoin="round"><path d="M11.723 2.044 C 11.544 2.099,11.270 2.289,11.186 2.417 C 11.072 2.590,3.191 19.684,3.088 19.980 C 2.808 20.787,3.255 21.654,4.091 21.923 C 4.581 22.081,4.511 22.100,8.451 20.761 L 12.003 19.554 12.451 19.704 C 12.735 19.798,12.968 19.852,13.085 19.849 C 13.621 19.837,14.039 19.408,14.046 18.862 C 14.049 18.541,13.888 18.227,13.630 18.054 C 13.343 17.861,12.281 17.519,11.980 17.523 C 11.775 17.525,11.281 17.682,8.600 18.594 C 6.873 19.182,5.455 19.651,5.449 19.638 C 5.434 19.606,11.971 5.440,12.000 5.440 C 12.012 5.440,12.758 7.038,13.658 8.990 C 15.887 13.824,15.835 13.717,16.021 13.870 C 16.195 14.014,16.469 14.120,16.666 14.120 C 16.738 14.120,16.895 14.083,17.015 14.039 C 17.461 13.871,17.744 13.379,17.644 12.943 C 17.582 12.678,12.908 2.542,12.763 2.360 C 12.542 2.083,12.069 1.940,11.723 2.044 M16.695 16.057 C 16.466 16.129,16.256 16.299,16.128 16.516 L 16.020 16.700 16.020 19.503 L 16.020 22.306 16.141 22.503 C 16.543 23.156,17.457 23.156,17.859 22.503 L 17.980 22.306 17.980 19.503 L 17.980 16.700 17.872 16.516 C 17.628 16.101,17.150 15.915,16.695 16.057 M20.695 16.057 C 20.466 16.129,20.256 16.299,20.128 16.516 L 20.020 16.700 20.020 19.503 L 20.020 22.306 20.141 22.503 C 20.543 23.156,21.457 23.156,21.859 22.503 L 21.980 22.306 21.980 19.503 L 21.980 16.700 21.872 16.516 C 21.628 16.101,21.150 15.915,20.695 16.057 " stroke="none" fill-rule="evenodd" fill="black"></path></svg>