<svg xmlns="http://www.w3.org/2000/svg" width="24" height="24" viewBox="0 0 24 24" fill="none" stroke="currentColor" stroke-width="2" stroke-linecap="round" stroke-linejoin="round"><path d="M11.723 2.044 C 11.544 2.099,11.270 2.289,11.186 2.417 C 11.072 2.590,3.191 19.684,3.088 19.980 C 2.808 20.787,3.255 21.654,4.091 21.923 C 4.583 22.082,4.492 22.107,8.662 20.690 C 10.732 19.986,12.461 19.391,12.506 19.368 C 12.647 19.292,12.866 19.019,12.940 18.826 C 13.118 18.359,12.855 17.781,12.374 17.580 C 12.022 17.433,11.978 17.445,8.600 18.594 C 6.873 19.182,5.455 19.651,5.449 19.638 C 5.435 19.606,11.971 5.440,11.999 5.440 C 12.011 5.441,13.062 7.717,14.336 10.499 C 16.265 14.709,16.677 15.579,16.796 15.694 C 17.204 16.084,17.759 16.098,18.169 15.727 C 18.447 15.476,18.558 15.118,18.465 14.773 C 18.387 14.484,12.893 2.522,12.763 2.360 C 12.542 2.083,12.069 1.940,11.723 2.044 M15.695 18.057 C 15.466 18.129,15.256 18.299,15.128 18.516 C 15.037 18.672,15.020 18.746,15.020 19.000 C 15.020 19.256,15.036 19.328,15.131 19.489 C 15.256 19.702,15.449 19.864,15.670 19.943 C 15.891 20.022,22.109 20.022,22.330 19.943 C 22.551 19.864,22.744 19.702,22.869 19.489 C 22.964 19.328,22.980 19.256,22.980 19.000 C 22.980 18.746,22.963 18.672,22.872 18.516 C 22.740 18.293,22.533 18.128,22.290 18.055 C 22.030 17.977,15.945 17.979,15.695 18.057 " stroke="none" fill-rule="evenodd" fill="black"></path></svg>