<svg xmlns="http://www.w3.org/2000/svg" width="24" height="24" viewBox="0 0 24 24" fill="none" stroke="currentColor" stroke-width="2" stroke-linecap="round" stroke-linejoin="round"><path d="M8.643 2.069 C 8.304 2.189,8.000 2.614,8.000 2.968 C 8.000 3.031,8.235 4.490,8.522 6.210 C 9.090 9.619,9.073 9.549,9.381 9.783 C 9.663 9.998,9.995 10.052,10.333 9.936 C 10.669 9.822,10.809 9.633,11.420 8.469 C 11.728 7.882,11.989 7.402,12.000 7.402 C 12.011 7.402,12.272 7.882,12.580 8.469 C 12.964 9.200,13.191 9.587,13.303 9.701 C 13.479 9.881,13.757 10.000,14.000 10.000 C 14.411 10.000,14.823 9.696,14.940 9.308 C 15.009 9.079,16.000 3.150,16.000 2.968 C 16.000 2.757,15.872 2.470,15.701 2.299 C 15.340 1.937,14.794 1.907,14.377 2.225 C 14.089 2.444,14.067 2.522,13.775 4.269 C 13.628 5.153,13.494 5.869,13.478 5.859 C 13.462 5.849,13.311 5.582,13.143 5.266 C 12.975 4.950,12.779 4.633,12.708 4.560 C 12.405 4.247,11.909 4.172,11.525 4.381 C 11.276 4.517,11.191 4.631,10.822 5.330 C 10.675 5.610,10.540 5.848,10.523 5.858 C 10.506 5.868,10.372 5.153,10.225 4.269 C 9.933 2.522,9.911 2.444,9.623 2.225 C 9.333 2.004,8.984 1.948,8.643 2.069 M11.667 12.065 C 11.272 12.186,11.322 12.099,9.085 16.583 C 7.378 20.004,7.027 20.737,7.010 20.907 C 6.951 21.520,7.480 22.049,8.092 21.990 C 8.256 21.974,8.654 21.791,10.148 21.046 L 12.000 20.121 13.852 21.046 C 15.346 21.791,15.744 21.974,15.908 21.990 C 16.520 22.049,17.049 21.520,16.990 20.907 C 16.973 20.737,16.622 20.004,14.915 16.583 C 12.687 12.118,12.735 12.201,12.340 12.066 C 12.106 11.986,11.924 11.986,11.667 12.065 M12.872 16.984 C 13.341 17.922,13.717 18.697,13.707 18.706 C 13.698 18.715,13.371 18.565,12.980 18.371 C 12.299 18.035,12.258 18.020,12.000 18.020 C 11.742 18.020,11.701 18.035,11.020 18.371 C 10.629 18.565,10.302 18.715,10.293 18.706 C 10.273 18.686,11.970 15.280,12.000 15.280 C 12.011 15.280,12.404 16.047,12.872 16.984 " stroke="none" fill-rule="evenodd" fill="black"></path></svg>