<svg xmlns="http://www.w3.org/2000/svg" width="24" height="24" viewBox="0 0 24 24" fill="none" stroke="currentColor" stroke-width="2" stroke-linecap="round" stroke-linejoin="round"><path d="M11.695 2.057 C 11.466 2.129,11.256 2.299,11.128 2.516 L 11.020 2.700 11.020 4.003 L 11.020 5.306 11.141 5.503 C 11.543 6.156,12.457 6.156,12.859 5.503 L 12.980 5.306 12.980 4.003 L 12.980 2.700 12.872 2.516 C 12.628 2.101,12.150 1.915,11.695 2.057 M11.723 8.044 C 11.526 8.104,11.260 8.298,11.168 8.449 C 11.063 8.621,6.106 19.139,6.046 19.316 C 5.943 19.622,6.030 20.134,6.233 20.418 C 6.500 20.791,6.985 21.028,7.408 20.993 C 7.537 20.982,8.500 20.690,9.811 20.264 L 12.000 19.553 14.189 20.264 C 15.500 20.690,16.463 20.982,16.592 20.993 C 16.867 21.015,17.204 20.915,17.449 20.738 C 17.879 20.426,18.093 19.836,17.955 19.340 C 17.884 19.084,12.886 8.514,12.763 8.360 C 12.542 8.083,12.069 7.940,11.723 8.044 M13.679 14.910 C 14.588 16.841,15.349 18.454,15.370 18.495 C 15.391 18.536,15.393 18.561,15.374 18.550 C 15.355 18.539,14.637 18.303,13.777 18.025 C 12.574 17.637,12.164 17.520,12.000 17.520 C 11.836 17.520,11.426 17.637,10.223 18.025 C 9.363 18.303,8.645 18.539,8.626 18.550 C 8.607 18.561,8.609 18.536,8.630 18.495 C 8.650 18.454,9.411 16.841,10.321 14.910 C 11.230 12.979,11.986 11.400,12.000 11.400 C 12.013 11.400,12.769 12.979,13.679 14.910 " stroke="none" fill-rule="evenodd" fill="black"></path></svg>