<svg xmlns="http://www.w3.org/2000/svg" width="24" height="24" viewBox="0 0 24 24" fill="none" stroke="currentColor" stroke-width="2" stroke-linecap="round" stroke-linejoin="round"><path d="M11.723 2.044 C 11.544 2.099,11.270 2.289,11.186 2.417 C 11.072 2.590,3.191 19.684,3.088 19.980 C 2.808 20.787,3.255 21.654,4.091 21.923 C 4.583 22.082,4.492 22.107,8.662 20.690 C 10.732 19.986,12.461 19.391,12.506 19.368 C 12.647 19.292,12.866 19.019,12.940 18.826 C 13.118 18.359,12.855 17.781,12.374 17.580 C 12.022 17.433,11.978 17.445,8.600 18.594 C 6.873 19.182,5.455 19.651,5.449 19.638 C 5.434 19.606,11.971 5.440,12.000 5.440 C 12.012 5.440,12.704 6.920,13.537 8.730 C 14.370 10.540,15.103 12.102,15.165 12.202 C 15.507 12.753,16.243 12.839,16.701 12.381 C 17.024 12.058,17.077 11.667,16.866 11.173 C 16.436 10.166,12.855 2.476,12.763 2.360 C 12.542 2.083,12.069 1.940,11.723 2.044 M18.340 14.060 C 17.913 14.130,17.642 14.217,17.275 14.399 C 16.236 14.915,15.537 15.720,15.185 16.807 C 14.791 18.021,15.052 19.450,15.851 20.460 C 16.124 20.805,16.714 21.363,17.729 22.233 C 18.558 22.945,18.617 22.980,19.000 22.979 C 19.211 22.979,19.339 22.957,19.433 22.907 C 19.586 22.824,20.750 21.830,21.465 21.171 C 22.256 20.443,22.645 19.845,22.868 19.015 C 22.962 18.669,22.975 18.543,22.976 18.000 C 22.977 17.486,22.962 17.325,22.890 17.059 C 22.555 15.825,21.863 14.972,20.736 14.406 C 20.015 14.045,19.175 13.924,18.340 14.060 M19.383 16.043 C 19.962 16.149,20.496 16.556,20.760 17.093 C 20.848 17.273,20.941 17.528,20.964 17.660 C 21.049 18.125,20.934 18.671,20.660 19.101 C 20.538 19.293,19.979 19.839,19.309 20.421 L 18.997 20.691 18.909 20.614 C 17.924 19.754,17.524 19.372,17.355 19.130 C 17.082 18.739,16.949 18.129,17.035 17.660 C 17.107 17.269,17.361 16.802,17.640 16.550 C 18.143 16.095,18.729 15.924,19.383 16.043 M18.695 17.057 C 18.466 17.129,18.256 17.299,18.128 17.516 C 18.036 17.672,18.020 17.745,18.021 18.000 C 18.022 18.332,18.101 18.533,18.306 18.728 C 18.785 19.181,19.580 19.046,19.893 18.460 C 20.025 18.211,20.015 17.760,19.872 17.516 C 19.628 17.101,19.150 16.915,18.695 17.057 " stroke="none" fill-rule="evenodd" fill="black"></path></svg>