<svg xmlns="http://www.w3.org/2000/svg" width="24" height="24" viewBox="0 0 24 24" fill="none" stroke="currentColor" stroke-width="2" stroke-linecap="round" stroke-linejoin="round"><path d="M11.723 2.044 C 11.544 2.099,11.270 2.289,11.186 2.417 C 11.072 2.590,3.191 19.684,3.088 19.980 C 2.808 20.787,3.255 21.654,4.091 21.923 C 4.578 22.080,4.534 22.092,8.191 20.850 C 10.729 19.988,11.517 19.705,11.631 19.614 C 12.185 19.175,12.093 18.285,11.460 17.947 C 11.334 17.880,11.236 17.863,11.000 17.866 C 10.719 17.871,10.534 17.928,8.080 18.766 C 6.639 19.259,5.455 19.651,5.449 19.637 C 5.434 19.606,11.971 5.440,12.000 5.440 C 12.012 5.440,13.057 7.682,14.321 10.423 C 15.585 13.163,16.673 15.470,16.737 15.548 C 16.969 15.830,17.420 15.949,17.809 15.832 C 18.042 15.763,18.326 15.490,18.410 15.255 C 18.521 14.947,18.501 14.733,18.326 14.332 C 17.723 12.955,12.852 2.472,12.763 2.360 C 12.542 2.083,12.069 1.940,11.723 2.044 M20.640 16.068 C 20.488 16.121,20.196 16.394,18.731 17.853 L 17.002 19.575 16.271 18.855 C 15.655 18.247,15.509 18.123,15.343 18.067 C 14.865 17.905,14.383 18.083,14.128 18.516 C 14.036 18.672,14.020 18.745,14.021 19.000 C 14.021 19.213,14.043 19.341,14.095 19.440 C 14.197 19.633,16.297 21.740,16.520 21.873 C 16.673 21.964,16.745 21.980,17.000 21.979 C 17.212 21.979,17.341 21.957,17.440 21.905 C 17.632 21.805,21.739 17.705,21.873 17.480 C 21.964 17.328,21.980 17.254,21.980 17.000 C 21.980 16.746,21.963 16.672,21.872 16.516 C 21.617 16.083,21.121 15.903,20.640 16.068 " stroke="none" fill-rule="evenodd" fill="black"></path></svg>