<svg xmlns="http://www.w3.org/2000/svg" width="24" height="24" viewBox="0 0 24 24" fill="none" stroke="currentColor" stroke-width="2" stroke-linecap="round" stroke-linejoin="round"><path d="M11.723 2.044 C 11.544 2.099,11.270 2.289,11.186 2.417 C 11.072 2.590,3.191 19.684,3.088 19.980 C 2.808 20.787,3.255 21.654,4.091 21.923 C 4.581 22.081,4.511 22.100,8.450 20.762 L 11.999 19.556 13.483 20.058 C 14.299 20.334,15.028 20.560,15.102 20.560 C 15.669 20.560,16.181 19.977,16.099 19.426 C 16.063 19.184,15.879 18.877,15.694 18.751 C 15.604 18.689,14.854 18.412,13.885 18.082 C 12.440 17.591,12.199 17.520,11.985 17.523 C 11.773 17.525,11.312 17.671,8.600 18.594 C 6.873 19.182,5.455 19.651,5.449 19.638 C 5.434 19.606,11.971 5.440,12.000 5.440 C 12.012 5.440,12.848 7.230,13.857 9.418 C 15.858 13.755,15.776 13.603,16.193 13.761 C 16.441 13.855,16.561 13.859,16.823 13.781 C 17.239 13.657,17.519 13.276,17.520 12.832 C 17.520 12.654,17.486 12.526,17.366 12.252 C 16.780 10.913,12.852 2.472,12.763 2.360 C 12.542 2.083,12.069 1.940,11.723 2.044 M18.695 15.057 C 18.466 15.129,18.256 15.299,18.128 15.516 L 18.020 15.700 18.020 17.503 L 18.020 19.306 18.141 19.503 C 18.543 20.156,19.457 20.156,19.859 19.503 L 19.980 19.306 19.980 17.503 L 19.980 15.700 19.872 15.516 C 19.628 15.101,19.150 14.915,18.695 15.057 M18.695 21.057 C 18.466 21.129,18.256 21.299,18.128 21.516 C 18.036 21.672,18.020 21.745,18.021 22.000 C 18.022 22.332,18.101 22.533,18.306 22.728 C 18.785 23.181,19.580 23.046,19.893 22.460 C 20.025 22.211,20.015 21.760,19.872 21.516 C 19.628 21.101,19.150 20.915,18.695 21.057 " stroke="none" fill-rule="evenodd" fill="black"></path></svg>