<svg xmlns="http://www.w3.org/2000/svg" width="24" height="24" viewBox="0 0 24 24" fill="none" stroke="currentColor" stroke-width="2" stroke-linecap="round" stroke-linejoin="round"><path d="M9.695 2.057 C 9.466 2.129,9.256 2.299,9.128 2.516 L 9.020 2.700 9.009 5.912 C 9.002 8.005,9.012 9.177,9.039 9.276 C 9.099 9.498,9.290 9.739,9.508 9.867 L 9.700 9.980 11.911 9.991 C 13.337 9.999,14.176 9.988,14.275 9.961 C 14.498 9.901,14.739 9.711,14.867 9.492 C 14.964 9.327,14.980 9.257,14.980 9.000 C 14.980 8.746,14.963 8.672,14.872 8.516 C 14.813 8.415,14.698 8.282,14.618 8.221 C 14.342 8.011,14.242 8.000,12.554 8.000 L 11.000 8.000 11.000 7.500 L 11.000 7.000 11.850 7.000 C 12.661 6.999,12.709 6.995,12.900 6.905 C 13.281 6.724,13.488 6.405,13.488 6.000 C 13.488 5.615,13.293 5.297,12.940 5.106 C 12.792 5.027,12.713 5.019,11.890 5.007 L 11.000 4.995 11.000 4.497 L 11.000 4.000 12.590 3.998 C 14.300 3.996,14.346 3.991,14.619 3.783 C 14.696 3.725,14.808 3.592,14.869 3.489 C 14.964 3.328,14.980 3.256,14.980 3.000 C 14.980 2.746,14.963 2.672,14.872 2.516 C 14.740 2.293,14.533 2.128,14.290 2.055 C 14.033 1.978,9.943 1.979,9.695 2.057 M11.667 12.065 C 11.272 12.186,11.322 12.099,9.085 16.583 C 7.378 20.004,7.027 20.737,7.010 20.907 C 6.951 21.520,7.480 22.049,8.092 21.990 C 8.256 21.974,8.654 21.791,10.148 21.046 L 12.000 20.121 13.852 21.046 C 15.346 21.791,15.744 21.974,15.908 21.990 C 16.520 22.049,17.049 21.520,16.990 20.907 C 16.973 20.737,16.622 20.004,14.915 16.583 C 12.687 12.118,12.735 12.201,12.340 12.066 C 12.106 11.986,11.924 11.986,11.667 12.065 M12.872 16.984 C 13.341 17.922,13.717 18.697,13.707 18.706 C 13.698 18.715,13.371 18.565,12.980 18.371 C 12.299 18.035,12.258 18.020,12.000 18.020 C 11.742 18.020,11.701 18.035,11.020 18.371 C 10.629 18.565,10.302 18.715,10.293 18.706 C 10.273 18.686,11.970 15.280,12.000 15.280 C 12.011 15.280,12.404 16.047,12.872 16.984 " stroke="none" fill-rule="evenodd" fill="black"></path></svg>