<svg xmlns="http://www.w3.org/2000/svg" width="24" height="24" viewBox="0 0 24 24" fill="none" stroke="currentColor" stroke-width="2" stroke-linecap="round" stroke-linejoin="round"><path d="M11.723 2.044 C 11.544 2.099,11.270 2.289,11.186 2.417 C 11.072 2.590,3.191 19.684,3.088 19.980 C 2.808 20.787,3.255 21.654,4.091 21.923 C 4.581 22.081,4.511 22.100,8.453 20.761 L 12.006 19.553 12.541 19.737 C 12.915 19.865,13.140 19.920,13.288 19.920 C 13.715 19.919,14.099 19.632,14.221 19.223 C 14.299 18.961,14.295 18.844,14.200 18.590 C 14.121 18.377,13.912 18.137,13.722 18.039 C 13.669 18.012,13.309 17.884,12.924 17.755 C 12.364 17.567,12.174 17.521,11.981 17.523 C 11.775 17.525,11.289 17.679,8.600 18.594 C 6.873 19.182,5.455 19.651,5.449 19.638 C 5.434 19.606,11.971 5.440,12.000 5.440 C 12.012 5.440,12.651 6.803,13.419 8.470 C 15.436 12.843,15.587 13.162,15.709 13.291 C 16.166 13.772,16.978 13.665,17.295 13.082 C 17.454 12.790,17.469 12.557,17.350 12.240 C 17.155 11.724,12.871 2.497,12.763 2.360 C 12.542 2.083,12.069 1.940,11.723 2.044 M15.695 15.057 C 15.466 15.129,15.256 15.299,15.128 15.516 C 15.036 15.672,15.020 15.745,15.021 16.000 C 15.022 16.332,15.101 16.533,15.306 16.728 C 15.785 17.181,16.580 17.046,16.893 16.460 C 17.025 16.211,17.015 15.760,16.872 15.516 C 16.628 15.101,16.150 14.915,15.695 15.057 M20.640 15.068 C 20.485 15.121,20.093 15.495,17.847 17.735 C 16.368 19.209,15.188 20.418,15.127 20.520 C 15.036 20.672,15.020 20.746,15.020 21.000 C 15.020 21.257,15.036 21.327,15.133 21.492 C 15.263 21.714,15.502 21.901,15.736 21.965 C 15.938 22.019,16.266 21.989,16.445 21.899 C 16.630 21.807,21.738 16.706,21.873 16.480 C 21.964 16.328,21.980 16.254,21.980 16.000 C 21.980 15.746,21.963 15.672,21.872 15.516 C 21.617 15.083,21.122 14.903,20.640 15.068 M20.695 20.057 C 20.466 20.129,20.256 20.299,20.128 20.516 C 20.036 20.672,20.020 20.745,20.021 21.000 C 20.022 21.332,20.101 21.533,20.306 21.728 C 20.785 22.181,21.580 22.046,21.893 21.460 C 22.025 21.211,22.015 20.760,21.872 20.516 C 21.628 20.101,21.150 19.915,20.695 20.057 " stroke="none" fill-rule="evenodd" fill="black"></path></svg>