<svg xmlns="http://www.w3.org/2000/svg" width="24" height="24" viewBox="0 0 24 24" fill="none" stroke="currentColor" stroke-width="2" stroke-linecap="round" stroke-linejoin="round"><path d="M16.789 2.060 C 15.873 2.214,15.008 2.647,14.377 3.268 C 14.099 3.541,12.532 5.461,10.588 7.911 C 7.164 12.226,4.685 15.552,3.413 17.540 C 2.244 19.366,1.816 20.383,1.950 21.019 C 2.012 21.319,2.109 21.509,2.293 21.693 C 2.687 22.087,3.252 22.167,3.948 21.929 C 5.719 21.322,9.734 18.478,16.920 12.739 C 20.537 9.850,20.796 9.629,21.169 9.100 C 22.261 7.555,22.270 5.498,21.192 3.933 C 20.816 3.388,20.106 2.775,19.489 2.464 C 18.729 2.081,17.638 1.918,16.789 2.060 M18.240 4.121 C 19.174 4.428,19.815 5.182,19.963 6.148 C 20.058 6.769,19.884 7.464,19.501 7.990 C 19.312 8.249,18.683 8.773,15.620 11.219 C 11.140 14.796,7.902 17.234,5.740 18.659 C 5.300 18.949,4.869 19.229,4.781 19.282 L 4.623 19.377 4.718 19.219 C 5.211 18.392,6.581 16.425,7.852 14.720 C 10.159 11.625,15.464 4.939,15.889 4.592 C 16.542 4.058,17.478 3.870,18.240 4.121 M17.081 5.603 C 16.889 5.690,15.881 6.653,15.682 6.940 C 15.372 7.385,15.489 8.010,15.940 8.320 C 16.238 8.525,16.741 8.540,17.017 8.352 C 17.199 8.228,18.188 7.245,18.320 7.057 C 18.547 6.733,18.536 6.246,18.295 5.908 C 18.041 5.551,17.497 5.414,17.081 5.603 " stroke="none" fill-rule="evenodd" fill="black"></path></svg>