<svg xmlns="http://www.w3.org/2000/svg" width="24" height="24" viewBox="0 0 24 24" fill="none" stroke="currentColor" stroke-width="2" stroke-linecap="round" stroke-linejoin="round"><path d="M11.540 2.023 C 10.478 2.125,9.692 2.335,8.910 2.726 C 6.838 3.762,5.448 5.666,5.074 7.980 C 5.008 8.393,5.008 9.607,5.074 10.020 C 5.446 12.323,6.831 14.228,8.886 15.263 C 9.441 15.542,10.251 15.808,10.830 15.900 L 11.000 15.927 11.000 16.536 L 11.000 17.145 10.670 17.313 C 10.091 17.607,9.597 18.102,9.312 18.670 L 9.147 19.000 6.020 19.000 C 2.627 19.000,2.676 18.997,2.382 19.221 C 2.302 19.282,2.187 19.415,2.128 19.516 C 2.037 19.672,2.020 19.746,2.020 20.000 C 2.020 20.256,2.036 20.328,2.131 20.489 C 2.256 20.702,2.449 20.864,2.670 20.943 C 2.790 20.986,3.445 20.997,5.983 20.998 L 9.147 21.000 9.312 21.330 C 9.682 22.069,10.355 22.635,11.160 22.886 C 11.594 23.021,12.406 23.021,12.840 22.886 C 13.645 22.635,14.318 22.069,14.688 21.330 L 14.853 21.000 18.017 20.998 C 20.555 20.997,21.210 20.986,21.330 20.943 C 21.551 20.864,21.744 20.702,21.869 20.489 C 21.964 20.328,21.980 20.256,21.980 20.000 C 21.980 19.746,21.963 19.672,21.872 19.516 C 21.813 19.415,21.698 19.282,21.618 19.221 C 21.324 18.997,21.373 19.000,17.980 19.000 L 14.853 19.000 14.688 18.670 C 14.403 18.102,13.909 17.607,13.330 17.313 L 13.000 17.145 13.000 16.536 L 13.000 15.927 13.170 15.900 C 13.492 15.849,13.981 15.717,14.380 15.573 C 16.325 14.873,17.873 13.325,18.573 11.380 C 18.876 10.538,18.977 9.944,18.977 9.000 C 18.977 8.056,18.876 7.462,18.573 6.620 C 17.715 4.237,15.581 2.473,13.102 2.098 C 12.726 2.041,11.813 1.997,11.540 2.023 M12.143 4.250 C 12.292 4.426,12.491 4.866,12.614 5.291 C 12.788 5.891,12.959 7.123,12.960 7.770 L 12.960 8.000 12.000 8.000 L 11.040 8.000 11.040 7.770 C 11.041 7.128,11.215 5.875,11.385 5.286 C 11.546 4.732,11.868 4.120,12.000 4.120 C 12.018 4.120,12.082 4.179,12.143 4.250 M9.344 5.206 C 9.200 5.849,9.128 6.363,9.077 7.100 C 9.053 7.452,9.025 7.799,9.015 7.870 L 8.996 8.000 8.054 8.000 L 7.111 8.000 7.139 7.850 C 7.272 7.121,7.826 6.127,8.453 5.489 C 8.722 5.215,9.392 4.698,9.429 4.736 C 9.438 4.745,9.400 4.957,9.344 5.206 M15.024 5.034 C 15.616 5.478,16.121 6.085,16.459 6.760 C 16.638 7.117,16.815 7.597,16.861 7.850 L 16.889 8.000 15.949 8.000 L 15.009 8.000 14.985 7.910 C 14.972 7.861,14.961 7.719,14.961 7.596 C 14.959 7.033,14.800 5.809,14.639 5.127 C 14.595 4.944,14.560 4.776,14.560 4.755 C 14.560 4.700,14.661 4.761,15.024 5.034 M9.015 10.130 C 9.025 10.201,9.053 10.548,9.077 10.900 C 9.128 11.637,9.200 12.151,9.344 12.794 C 9.400 13.043,9.438 13.255,9.429 13.265 C 9.391 13.303,8.889 12.927,8.562 12.616 C 7.882 11.968,7.281 10.927,7.139 10.150 L 7.111 10.000 8.054 10.000 L 8.996 10.000 9.015 10.130 M12.960 10.230 C 12.959 10.874,12.788 12.105,12.615 12.709 C 12.493 13.136,12.244 13.665,12.104 13.797 L 12.000 13.894 11.896 13.797 C 11.756 13.665,11.507 13.136,11.385 12.709 C 11.212 12.105,11.041 10.874,11.040 10.230 L 11.040 10.000 12.000 10.000 L 12.960 10.000 12.960 10.230 M16.861 10.150 C 16.772 10.637,16.406 11.421,16.010 11.970 C 15.742 12.343,15.204 12.867,14.841 13.110 C 14.701 13.204,14.580 13.273,14.571 13.264 C 14.562 13.255,14.600 13.043,14.655 12.794 C 14.818 12.063,14.957 10.984,14.960 10.420 C 14.960 10.288,14.972 10.139,14.985 10.090 L 15.009 10.000 15.949 10.000 L 16.889 10.000 16.861 10.150 M12.310 19.061 C 12.688 19.173,13.000 19.598,13.000 20.001 C 13.000 20.331,12.784 20.696,12.484 20.872 C 12.328 20.963,12.254 20.980,12.000 20.980 C 11.746 20.980,11.672 20.963,11.516 20.872 C 10.935 20.530,10.833 19.774,11.304 19.303 C 11.583 19.024,11.916 18.944,12.310 19.061 " stroke="none" fill-rule="evenodd" fill="black"></path></svg>