<svg xmlns="http://www.w3.org/2000/svg" width="24" height="24" viewBox="0 0 24 24" fill="none" stroke="currentColor" stroke-width="2" stroke-linecap="round" stroke-linejoin="round"><path d="M4.477 3.073 C 3.806 3.249,3.238 3.823,3.060 4.508 C 3.008 4.706,3.000 5.583,3.000 11.052 C 3.000 17.276,3.001 17.373,3.083 17.773 C 3.311 18.892,3.985 19.851,4.956 20.436 C 5.286 20.636,5.810 20.832,6.247 20.921 C 6.633 21.000,6.768 21.002,12.611 20.991 L 18.580 20.980 18.860 20.886 C 19.840 20.557,20.557 19.840,20.886 18.860 L 20.980 18.580 20.991 12.690 C 21.003 6.278,21.011 6.536,20.782 6.083 C 20.646 5.816,20.297 5.449,20.017 5.281 C 19.609 5.035,19.404 5.005,18.139 5.002 L 17.018 5.000 16.969 4.692 C 16.905 4.287,16.743 3.953,16.471 3.659 C 16.198 3.366,15.872 3.164,15.523 3.073 C 15.281 3.010,14.843 3.005,10.000 3.005 C 5.157 3.005,4.719 3.010,4.477 3.073 M15.009 11.790 C 15.019 18.121,15.025 18.594,15.090 18.780 C 15.128 18.890,15.159 18.985,15.160 18.990 C 15.160 18.995,13.265 19.000,10.948 19.000 C 6.381 19.000,6.527 19.007,6.083 18.781 C 5.816 18.646,5.449 18.297,5.281 18.017 C 4.987 17.529,5.005 17.967,5.002 11.130 L 5.000 5.000 9.999 5.000 L 14.998 5.000 15.009 11.790 M7.695 7.057 C 7.466 7.129,7.256 7.299,7.128 7.516 C 7.037 7.672,7.020 7.746,7.020 8.000 C 7.020 8.256,7.036 8.328,7.131 8.489 C 7.256 8.702,7.449 8.864,7.670 8.943 C 7.889 9.021,12.111 9.021,12.330 8.943 C 12.551 8.864,12.744 8.702,12.869 8.489 C 12.964 8.328,12.980 8.256,12.980 8.000 C 12.980 7.746,12.963 7.672,12.872 7.516 C 12.740 7.293,12.533 7.128,12.290 7.055 C 12.033 6.978,7.943 6.979,7.695 7.057 M19.000 12.554 C 19.000 17.144,18.990 18.139,18.945 18.290 C 18.872 18.533,18.707 18.740,18.484 18.872 C 18.328 18.963,18.254 18.980,18.000 18.980 C 17.746 18.980,17.672 18.963,17.516 18.872 C 17.415 18.813,17.284 18.700,17.225 18.623 C 16.987 18.312,17.000 18.650,17.000 12.575 L 17.000 7.000 18.000 7.000 L 19.000 7.000 19.000 12.554 M7.695 11.057 C 7.466 11.129,7.256 11.299,7.128 11.516 C 7.037 11.672,7.020 11.746,7.020 12.000 C 7.020 12.256,7.036 12.328,7.131 12.489 C 7.256 12.702,7.449 12.864,7.670 12.943 C 7.889 13.021,12.111 13.021,12.330 12.943 C 12.551 12.864,12.744 12.702,12.869 12.489 C 12.964 12.328,12.980 12.256,12.980 12.000 C 12.980 11.746,12.963 11.672,12.872 11.516 C 12.740 11.293,12.533 11.128,12.290 11.055 C 12.033 10.978,7.943 10.979,7.695 11.057 M7.695 15.057 C 7.466 15.129,7.256 15.299,7.128 15.516 C 7.037 15.672,7.020 15.746,7.020 16.000 C 7.020 16.256,7.036 16.328,7.131 16.489 C 7.256 16.702,7.449 16.864,7.670 16.943 C 7.889 17.021,12.111 17.021,12.330 16.943 C 12.551 16.864,12.744 16.702,12.869 16.489 C 12.964 16.328,12.980 16.256,12.980 16.000 C 12.980 15.746,12.963 15.672,12.872 15.516 C 12.740 15.293,12.533 15.128,12.290 15.055 C 12.033 14.978,7.943 14.979,7.695 15.057 " stroke="none" fill-rule="evenodd" fill="black"></path></svg>