<svg xmlns="http://www.w3.org/2000/svg" width="24" height="24" viewBox="0 0 24 24" fill="none" stroke="currentColor" stroke-width="2" stroke-linecap="round" stroke-linejoin="round"><path d="M2.670 2.061 C 2.448 2.142,2.250 2.309,2.128 2.516 C 2.036 2.672,2.020 2.745,2.021 3.000 C 2.022 3.392,2.070 3.478,2.587 4.004 L 3.003 4.428 3.001 10.894 C 2.998 17.295,2.999 17.364,3.082 17.769 C 3.357 19.118,4.247 20.194,5.512 20.704 C 5.700 20.779,6.030 20.877,6.246 20.921 C 6.632 21.000,6.769 21.001,12.590 20.990 C 18.530 20.979,18.540 20.979,18.800 20.894 C 18.943 20.848,19.110 20.786,19.171 20.758 C 19.281 20.707,19.289 20.713,19.851 21.268 C 20.164 21.577,20.483 21.863,20.560 21.904 C 20.660 21.957,20.786 21.979,21.000 21.979 C 21.258 21.980,21.327 21.964,21.492 21.867 C 21.968 21.587,22.139 20.967,21.865 20.508 C 21.810 20.416,17.665 16.243,12.653 11.235 C 4.231 2.820,3.525 2.125,3.343 2.065 C 3.107 1.987,2.874 1.986,2.670 2.061 M7.695 3.057 C 7.466 3.129,7.256 3.299,7.128 3.516 C 7.037 3.672,7.020 3.746,7.020 4.000 C 7.020 4.256,7.036 4.328,7.131 4.489 C 7.256 4.702,7.449 4.864,7.670 4.943 C 7.791 4.986,8.516 4.997,11.409 4.998 L 14.998 5.000 15.009 8.653 L 15.020 12.306 15.141 12.503 C 15.543 13.156,16.457 13.156,16.859 12.503 L 16.980 12.306 16.991 9.653 L 17.002 7.000 18.000 7.000 L 18.999 7.000 19.009 11.653 L 19.020 16.306 19.141 16.503 C 19.543 17.156,20.457 17.156,20.859 16.503 L 20.980 16.306 20.991 11.552 C 21.002 6.383,21.008 6.530,20.782 6.083 C 20.646 5.816,20.297 5.449,20.017 5.281 C 19.609 5.035,19.404 5.005,18.139 5.002 L 17.018 5.000 16.969 4.692 C 16.942 4.523,16.869 4.275,16.806 4.141 C 16.665 3.839,16.321 3.464,16.017 3.281 C 15.543 2.996,15.686 3.005,11.560 3.005 C 8.647 3.005,7.825 3.016,7.695 3.057 M8.650 11.001 C 8.070 11.015,7.699 11.040,7.627 11.071 C 7.431 11.156,7.240 11.327,7.128 11.516 C 7.037 11.672,7.020 11.746,7.020 12.000 C 7.020 12.256,7.036 12.328,7.131 12.489 C 7.256 12.702,7.449 12.864,7.670 12.943 C 7.787 12.985,8.234 12.997,9.700 12.998 L 11.580 13.000 13.290 14.710 L 15.000 16.420 15.001 17.360 C 15.001 18.238,15.032 18.580,15.142 18.926 C 15.165 18.998,15.041 19.000,10.951 19.000 C 6.381 19.000,6.527 19.007,6.083 18.781 C 5.816 18.646,5.449 18.297,5.281 18.017 C 4.989 17.532,5.005 17.884,5.002 11.840 L 5.000 6.420 7.280 8.700 L 9.561 10.980 8.650 11.001 M7.695 15.057 C 7.466 15.129,7.256 15.299,7.128 15.516 C 7.037 15.672,7.020 15.746,7.020 16.000 C 7.020 16.256,7.036 16.328,7.131 16.489 C 7.256 16.702,7.449 16.864,7.670 16.943 C 7.889 17.021,12.111 17.021,12.330 16.943 C 12.551 16.864,12.744 16.702,12.869 16.489 C 12.964 16.328,12.980 16.256,12.980 16.000 C 12.980 15.746,12.963 15.672,12.872 15.516 C 12.740 15.293,12.533 15.128,12.290 15.055 C 12.033 14.978,7.943 14.979,7.695 15.057 " stroke="none" fill-rule="evenodd" fill="black"></path></svg>