<svg xmlns="http://www.w3.org/2000/svg" width="24" height="24" viewBox="0 0 24 24" fill="none" stroke="currentColor" stroke-width="2" stroke-linecap="round" stroke-linejoin="round"><path d="M2.670 2.061 C 2.448 2.142,2.250 2.309,2.128 2.516 C 2.037 2.672,2.020 2.746,2.020 3.000 C 2.020 3.411,2.090 3.516,2.896 4.319 C 3.532 4.951,3.556 4.981,3.500 5.066 C 3.370 5.265,3.160 5.849,3.082 6.228 C 3.002 6.625,3.000 6.738,3.000 12.000 C 3.000 17.266,3.002 17.375,3.083 17.773 C 3.311 18.892,3.985 19.851,4.956 20.436 C 5.285 20.635,5.810 20.832,6.243 20.921 C 6.620 20.997,6.802 21.000,12.000 21.000 C 17.198 21.000,17.380 20.997,17.757 20.921 C 18.132 20.844,18.740 20.627,18.932 20.502 C 19.020 20.444,19.041 20.460,19.681 21.104 C 20.484 21.910,20.589 21.980,21.000 21.980 C 21.257 21.980,21.327 21.964,21.492 21.867 C 21.968 21.587,22.139 20.967,21.865 20.508 C 21.810 20.416,17.665 16.243,12.653 11.235 C 4.231 2.820,3.525 2.125,3.343 2.065 C 3.107 1.987,2.874 1.986,2.670 2.061 M7.695 3.057 C 7.466 3.129,7.256 3.299,7.128 3.516 C 7.037 3.672,7.020 3.746,7.020 4.000 C 7.020 4.256,7.036 4.328,7.131 4.489 C 7.256 4.702,7.449 4.864,7.670 4.943 C 7.789 4.986,8.368 4.997,10.512 4.998 C 13.511 5.000,13.550 5.003,13.986 5.265 C 14.288 5.446,14.492 5.642,14.686 5.937 C 14.989 6.399,14.975 6.246,14.999 9.443 L 15.020 12.306 15.141 12.503 C 15.543 13.156,16.457 13.156,16.859 12.503 L 16.980 12.306 16.991 9.475 C 17.002 6.770,16.998 6.625,16.922 6.248 C 16.847 5.881,16.603 5.189,16.517 5.102 C 16.436 5.019,16.495 5.000,16.842 5.000 C 17.682 5.000,18.266 5.297,18.686 5.937 C 19.000 6.417,18.977 6.004,19.000 11.443 L 19.020 16.306 19.141 16.503 C 19.543 17.156,20.457 17.156,20.859 16.503 L 20.980 16.306 20.991 11.473 C 21.001 6.772,20.999 6.628,20.921 6.246 C 20.628 4.806,19.638 3.681,18.245 3.204 C 17.660 3.004,17.561 3.000,12.540 3.003 C 8.830 3.005,7.826 3.016,7.695 3.057 M6.050 7.470 L 7.000 8.419 7.000 12.893 C 7.000 17.253,7.002 17.378,7.082 17.772 C 7.158 18.141,7.394 18.806,7.483 18.898 C 7.565 18.982,7.503 19.000,7.128 19.000 C 6.481 19.000,6.068 18.850,5.653 18.465 C 5.366 18.198,5.164 17.870,5.073 17.523 C 5.010 17.281,5.004 16.842,5.003 12.040 C 5.002 9.169,5.012 6.753,5.026 6.670 C 5.039 6.588,5.061 6.520,5.075 6.520 C 5.088 6.520,5.527 6.947,6.050 7.470 M10.446 12.179 C 10.344 12.250,10.206 12.394,10.140 12.500 C 10.034 12.671,10.020 12.730,10.020 12.997 C 10.020 13.254,10.036 13.327,10.127 13.480 C 10.188 13.582,11.368 14.791,12.847 16.265 C 15.093 18.505,15.485 18.879,15.640 18.932 C 15.806 18.989,15.624 18.994,13.278 18.997 C 10.529 19.000,10.512 18.999,10.083 18.781 C 9.816 18.646,9.449 18.297,9.281 18.017 C 8.998 17.547,9.005 17.653,9.002 13.840 L 9.000 10.421 9.816 11.236 L 10.632 12.051 10.446 12.179 M17.465 18.949 C 17.448 18.966,17.151 18.985,16.807 18.990 C 16.233 19.000,16.193 18.996,16.330 18.945 C 16.545 18.865,16.746 18.701,16.850 18.519 L 16.940 18.361 17.218 18.639 C 17.371 18.792,17.482 18.931,17.465 18.949 " stroke="none" fill-rule="evenodd" fill="black"></path></svg>