<svg xmlns="http://www.w3.org/2000/svg" width="24" height="24" viewBox="0 0 24 24" fill="none" stroke="currentColor" stroke-width="2" stroke-linecap="round" stroke-linejoin="round"><path d="M11.080 2.045 C 9.507 2.184,7.883 2.751,6.540 3.630 C 5.905 4.045,5.499 4.378,4.919 4.958 C 2.953 6.926,1.919 9.544,2.013 12.320 C 2.084 14.439,2.752 16.328,4.033 18.040 C 4.430 18.570,5.305 19.464,5.800 19.847 C 7.242 20.961,8.787 21.624,10.600 21.907 C 11.247 22.008,12.753 22.008,13.400 21.907 C 15.638 21.557,17.504 20.620,19.062 19.062 C 20.620 17.504,21.557 15.638,21.907 13.400 C 22.008 12.753,22.008 11.247,21.907 10.600 C 21.624 8.786,20.959 7.238,19.847 5.800 C 19.510 5.365,18.639 4.494,18.200 4.154 C 16.133 2.555,13.646 1.818,11.080 2.045 M12.734 4.041 C 14.574 4.216,16.228 4.976,17.554 6.256 C 20.044 8.659,20.701 12.389,19.183 15.501 C 18.951 15.977,18.392 16.880,18.329 16.880 C 18.315 16.880,18.032 16.611,17.701 16.282 C 17.026 15.612,16.884 15.522,16.498 15.521 C 15.700 15.518,15.227 16.409,15.682 17.060 C 15.744 17.148,16.038 17.463,16.337 17.759 C 16.636 18.056,16.880 18.312,16.880 18.328 C 16.880 18.392,15.946 18.971,15.480 19.197 C 13.265 20.265,10.737 20.267,8.529 19.200 C 7.477 18.693,6.612 18.015,5.847 17.100 C 3.847 14.709,3.440 11.305,4.818 8.496 C 5.057 8.008,5.609 7.120,5.673 7.120 C 5.688 7.120,5.944 7.364,6.241 7.663 C 6.869 8.296,7.038 8.424,7.305 8.470 C 8.017 8.593,8.595 8.013,8.469 7.303 C 8.421 7.034,8.296 6.869,7.663 6.241 C 7.364 5.944,7.120 5.688,7.120 5.673 C 7.120 5.609,8.008 5.057,8.496 4.818 C 9.815 4.171,11.277 3.903,12.734 4.041 M8.619 9.037 C 7.440 9.226,6.452 10.064,6.114 11.160 C 5.993 11.551,5.982 12.358,6.091 12.755 C 6.348 13.693,7.113 14.505,8.035 14.818 C 8.625 15.019,9.364 15.050,9.940 14.898 C 10.549 14.737,11.234 14.285,11.398 13.935 C 11.633 13.434,11.433 12.859,10.939 12.618 C 10.752 12.526,10.681 12.513,10.445 12.527 C 10.216 12.539,10.134 12.565,9.955 12.678 C 9.526 12.951,9.443 12.980,9.100 12.980 C 8.842 12.980,8.745 12.962,8.600 12.886 C 8.203 12.680,8.023 12.404,8.023 12.000 C 8.023 11.468,8.408 11.075,8.990 11.015 C 9.278 10.985,9.521 11.047,9.780 11.217 C 10.136 11.450,10.242 11.490,10.498 11.490 C 10.921 11.490,11.283 11.241,11.442 10.840 C 11.524 10.635,11.504 10.291,11.398 10.065 C 11.232 9.711,10.515 9.243,9.920 9.100 C 9.611 9.026,8.901 8.991,8.619 9.037 M14.619 9.037 C 13.440 9.226,12.452 10.064,12.114 11.160 C 11.993 11.551,11.982 12.358,12.091 12.755 C 12.348 13.693,13.113 14.505,14.035 14.818 C 14.625 15.019,15.364 15.050,15.940 14.898 C 16.549 14.737,17.234 14.285,17.398 13.935 C 17.633 13.434,17.433 12.859,16.939 12.618 C 16.752 12.526,16.681 12.513,16.445 12.527 C 16.216 12.539,16.134 12.565,15.955 12.678 C 15.526 12.951,15.443 12.980,15.100 12.980 C 14.842 12.980,14.745 12.962,14.600 12.886 C 14.203 12.680,14.023 12.404,14.023 12.000 C 14.023 11.468,14.408 11.075,14.990 11.015 C 15.278 10.985,15.521 11.047,15.780 11.217 C 16.136 11.450,16.242 11.490,16.498 11.490 C 16.921 11.490,17.283 11.241,17.442 10.840 C 17.524 10.635,17.504 10.291,17.398 10.065 C 17.232 9.711,16.515 9.243,15.920 9.100 C 15.611 9.026,14.901 8.991,14.619 9.037 " stroke="none" fill-rule="evenodd" fill="black"></path></svg>