<svg xmlns="http://www.w3.org/2000/svg" width="24" height="24" viewBox="0 0 24 24" fill="none" stroke="currentColor" stroke-width="2" stroke-linecap="round" stroke-linejoin="round"><path d="M2.670 2.061 C 2.448 2.142,2.250 2.309,2.128 2.516 C 2.037 2.672,2.020 2.746,2.020 3.000 C 2.020 3.254,2.036 3.328,2.127 3.480 C 2.186 3.579,2.632 4.056,3.117 4.540 L 4.000 5.419 4.000 12.341 C 4.000 19.890,3.987 19.461,4.225 19.930 C 4.361 20.199,4.801 20.639,5.070 20.775 C 5.472 20.979,5.643 21.000,6.865 21.000 L 7.993 21.000 8.007 21.653 C 8.020 22.300,8.021 22.308,8.141 22.503 C 8.543 23.156,9.457 23.156,9.859 22.503 C 9.979 22.308,9.980 22.300,9.993 21.653 L 10.007 21.000 13.653 20.999 C 17.533 20.999,17.539 20.998,18.057 20.804 C 18.273 20.724,18.628 20.527,18.797 20.394 L 18.894 20.317 19.657 21.074 C 20.077 21.490,20.483 21.864,20.560 21.905 C 20.660 21.957,20.787 21.979,21.000 21.979 C 21.258 21.980,21.327 21.964,21.492 21.867 C 21.968 21.587,22.139 20.967,21.865 20.508 C 21.810 20.416,17.665 16.243,12.653 11.235 C 4.231 2.820,3.525 2.125,3.343 2.065 C 3.107 1.987,2.874 1.986,2.670 2.061 M7.695 3.057 C 7.465 3.129,7.256 3.299,7.128 3.516 C 7.036 3.672,7.020 3.746,7.020 4.003 C 7.020 4.271,7.034 4.329,7.141 4.503 C 7.287 4.740,7.577 4.946,7.817 4.982 C 7.988 5.007,7.993 5.012,8.018 5.183 C 8.054 5.423,8.260 5.713,8.497 5.859 C 8.671 5.966,8.729 5.980,9.000 5.980 C 9.271 5.980,9.329 5.966,9.503 5.859 C 9.742 5.712,9.946 5.422,9.982 5.179 L 10.009 5.000 13.557 5.000 C 17.541 5.000,17.375 4.989,17.679 5.283 C 18.004 5.599,17.978 5.163,18.000 10.523 L 18.020 15.306 18.141 15.503 C 18.543 16.156,19.457 16.156,19.859 15.503 L 19.980 15.306 19.980 10.383 L 19.980 5.460 19.886 5.160 C 19.581 4.182,18.832 3.428,17.861 3.121 L 17.540 3.020 12.700 3.012 C 8.809 3.006,7.828 3.014,7.695 3.057 M12.695 7.057 C 12.466 7.129,12.256 7.299,12.128 7.516 C 12.037 7.672,12.020 7.746,12.020 8.000 C 12.020 8.256,12.036 8.328,12.131 8.489 C 12.256 8.702,12.449 8.864,12.670 8.943 C 12.885 9.020,15.115 9.020,15.330 8.943 C 15.551 8.864,15.744 8.702,15.869 8.489 C 15.964 8.328,15.980 8.256,15.980 8.000 C 15.980 7.746,15.963 7.672,15.872 7.516 C 15.740 7.293,15.533 7.128,15.290 7.055 C 15.039 6.979,12.937 6.981,12.695 7.057 M8.000 14.210 L 8.000 19.000 7.000 19.000 L 6.000 19.000 6.000 13.210 L 6.000 7.421 7.000 8.420 L 8.000 9.419 8.000 14.210 M17.440 18.884 C 17.440 18.987,16.998 19.000,13.565 19.000 L 10.000 19.000 10.000 15.210 L 10.000 11.420 13.720 15.140 C 15.766 17.186,17.440 18.871,17.440 18.884 " stroke="none" fill-rule="evenodd" fill="black"></path></svg>