<svg xmlns="http://www.w3.org/2000/svg" width="24" height="24" viewBox="0 0 24 24" fill="none" stroke="currentColor" stroke-width="2" stroke-linecap="round" stroke-linejoin="round"><path d="M2.670 2.061 C 2.448 2.142,2.250 2.309,2.128 2.516 C 2.036 2.672,2.020 2.745,2.021 3.000 C 2.021 3.214,2.043 3.340,2.096 3.440 C 2.137 3.517,2.418 3.832,2.722 4.140 L 3.273 4.700 3.147 5.060 L 3.020 5.420 3.020 11.980 L 3.020 18.540 3.114 18.840 C 3.418 19.816,4.149 20.554,5.140 20.886 L 5.420 20.980 9.300 20.991 C 12.835 21.002,13.196 20.997,13.360 20.936 C 13.508 20.882,13.803 20.608,15.020 19.395 L 16.501 17.921 18.420 19.843 C 19.476 20.900,20.421 21.813,20.520 21.873 C 20.673 21.964,20.746 21.980,21.000 21.980 C 21.257 21.980,21.327 21.964,21.492 21.867 C 21.968 21.587,22.139 20.967,21.865 20.508 C 21.810 20.416,17.665 16.243,12.653 11.235 C 4.231 2.820,3.525 2.125,3.343 2.065 C 3.107 1.987,2.874 1.986,2.670 2.061 M7.695 3.057 C 7.465 3.129,7.256 3.299,7.128 3.516 C 7.037 3.672,7.020 3.746,7.020 4.000 C 7.020 4.256,7.036 4.328,7.131 4.489 C 7.256 4.702,7.449 4.864,7.670 4.943 C 7.792 4.987,8.771 4.997,12.963 4.998 C 18.761 5.000,18.373 4.980,18.697 5.303 C 19.011 5.618,19.000 5.481,19.000 8.947 L 19.000 12.000 17.946 12.000 C 16.797 12.000,16.644 12.022,16.382 12.221 C 16.302 12.282,16.187 12.415,16.128 12.516 C 16.037 12.672,16.020 12.746,16.020 13.000 C 16.020 13.256,16.036 13.328,16.131 13.489 C 16.354 13.868,16.629 13.996,17.228 13.998 L 17.636 14.000 17.578 14.139 C 17.498 14.331,17.506 14.705,17.595 14.901 C 17.758 15.260,18.100 15.478,18.500 15.478 C 18.906 15.478,19.009 15.406,19.968 14.451 C 20.641 13.780,20.855 13.543,20.919 13.393 C 21.002 13.200,21.003 13.175,20.991 9.310 L 20.980 5.420 20.886 5.140 C 20.557 4.158,19.821 3.425,18.861 3.121 L 18.540 3.020 13.200 3.012 C 8.900 3.006,7.828 3.015,7.695 3.057 M12.008 16.231 L 11.997 19.002 8.848 18.991 L 5.700 18.980 5.516 18.872 C 5.415 18.813,5.284 18.700,5.225 18.623 C 4.987 18.311,5.000 18.677,5.000 12.285 L 5.000 6.420 8.510 9.940 L 12.020 13.460 12.008 16.231 M14.551 17.029 C 14.259 17.321,14.016 17.560,14.011 17.560 C 14.005 17.560,14.000 17.079,14.000 16.491 L 14.000 15.421 14.540 15.960 L 15.080 16.499 14.551 17.029 " stroke="none" fill-rule="evenodd" fill="black"></path></svg>