<svg xmlns="http://www.w3.org/2000/svg" width="24" height="24" viewBox="0 0 24 24" fill="none" stroke="currentColor" stroke-width="2" stroke-linecap="round" stroke-linejoin="round"><path d="M5.477 3.073 C 4.805 3.249,4.238 3.823,4.060 4.508 C 4.008 4.707,4.000 5.691,4.000 12.000 C 4.000 19.922,3.987 19.460,4.225 19.930 C 4.361 20.199,4.801 20.639,5.070 20.775 C 5.472 20.979,5.643 21.000,6.865 21.000 L 7.993 21.000 8.007 21.653 C 8.020 22.300,8.021 22.308,8.141 22.503 C 8.543 23.156,9.457 23.156,9.859 22.503 C 9.979 22.309,9.980 22.300,9.993 21.655 L 10.007 21.003 13.793 20.991 L 17.580 20.980 17.860 20.886 C 18.851 20.554,19.582 19.816,19.886 18.840 L 19.980 18.540 19.980 12.000 L 19.980 5.460 19.886 5.160 C 19.581 4.182,18.832 3.428,17.861 3.121 L 17.540 3.020 11.640 3.012 C 6.160 3.004,5.721 3.009,5.477 3.073 M8.000 12.000 L 8.000 19.000 7.000 19.000 L 6.000 19.000 6.000 12.000 L 6.000 5.000 7.000 5.000 L 8.000 5.000 8.000 12.000 M17.310 5.061 C 17.589 5.144,17.856 5.411,17.939 5.690 C 17.992 5.869,18.000 6.651,18.000 12.001 C 18.000 17.059,17.991 18.139,17.945 18.290 C 17.872 18.533,17.707 18.740,17.484 18.872 L 17.300 18.980 13.650 18.991 L 10.000 19.002 10.000 12.001 L 10.000 5.000 13.553 5.000 C 16.617 5.000,17.134 5.008,17.310 5.061 M12.695 7.057 C 12.466 7.129,12.256 7.299,12.128 7.516 C 12.037 7.672,12.020 7.746,12.020 8.000 C 12.020 8.256,12.036 8.328,12.131 8.489 C 12.256 8.702,12.449 8.864,12.670 8.943 C 12.885 9.020,15.115 9.020,15.330 8.943 C 15.551 8.864,15.744 8.702,15.869 8.489 C 15.964 8.328,15.980 8.256,15.980 8.000 C 15.980 7.746,15.963 7.672,15.872 7.516 C 15.740 7.293,15.533 7.128,15.290 7.055 C 15.039 6.979,12.937 6.981,12.695 7.057 M12.695 11.057 C 12.466 11.129,12.256 11.299,12.128 11.516 C 12.037 11.672,12.020 11.746,12.020 12.000 C 12.020 12.256,12.036 12.328,12.131 12.489 C 12.256 12.702,12.449 12.864,12.670 12.943 C 12.885 13.020,15.115 13.020,15.330 12.943 C 15.551 12.864,15.744 12.702,15.869 12.489 C 15.964 12.328,15.980 12.256,15.980 12.000 C 15.980 11.746,15.963 11.672,15.872 11.516 C 15.740 11.293,15.533 11.128,15.290 11.055 C 15.039 10.979,12.937 10.981,12.695 11.057 " stroke="none" fill-rule="evenodd" fill="black"></path></svg>