<svg xmlns="http://www.w3.org/2000/svg" width="24" height="24" viewBox="0 0 24 24" fill="none" stroke="currentColor" stroke-width="2" stroke-linecap="round" stroke-linejoin="round"><path d="M2.670 2.061 C 2.448 2.142,2.250 2.309,2.128 2.516 C 2.036 2.672,2.020 2.745,2.021 3.000 C 2.021 3.213,2.043 3.341,2.095 3.440 C 2.136 3.517,2.581 3.994,3.084 4.500 L 3.998 5.421 4.009 12.500 L 4.020 19.580 4.114 19.860 C 4.446 20.851,5.184 21.582,6.160 21.886 L 6.460 21.980 12.000 21.980 L 17.540 21.980 17.839 21.886 C 18.394 21.712,18.773 21.473,19.197 21.032 L 19.398 20.822 19.909 21.326 C 20.190 21.603,20.483 21.863,20.560 21.904 C 20.660 21.957,20.786 21.979,21.000 21.979 C 21.258 21.980,21.327 21.964,21.492 21.867 C 21.968 21.587,22.139 20.967,21.865 20.508 C 21.810 20.416,17.665 16.243,12.653 11.235 C 4.231 2.820,3.525 2.125,3.343 2.065 C 3.107 1.987,2.874 1.986,2.670 2.061 M6.695 2.057 C 6.465 2.129,6.256 2.299,6.128 2.516 C 6.037 2.672,6.020 2.746,6.020 3.000 C 6.020 3.256,6.036 3.328,6.131 3.489 C 6.256 3.702,6.449 3.864,6.670 3.943 C 6.792 3.987,7.771 3.997,11.963 3.998 C 17.717 4.000,17.369 3.983,17.679 4.283 C 18.005 4.600,17.978 4.102,18.000 10.023 L 18.020 15.306 18.141 15.503 C 18.543 16.156,19.457 16.156,19.859 15.503 L 19.980 15.306 19.980 9.883 L 19.980 4.460 19.886 4.160 C 19.581 3.182,18.832 2.428,17.861 2.121 L 17.540 2.020 12.200 2.012 C 7.900 2.006,6.828 2.015,6.695 2.057 M10.695 6.057 C 10.466 6.129,10.256 6.299,10.128 6.516 C 10.037 6.672,10.020 6.746,10.020 7.000 C 10.020 7.256,10.036 7.328,10.131 7.489 C 10.256 7.702,10.449 7.864,10.670 7.943 C 10.889 8.021,15.111 8.021,15.330 7.943 C 15.551 7.864,15.744 7.702,15.869 7.489 C 15.964 7.328,15.980 7.256,15.980 7.000 C 15.980 6.746,15.963 6.672,15.872 6.516 C 15.740 6.293,15.533 6.128,15.290 6.055 C 15.033 5.978,10.943 5.979,10.695 6.057 M8.446 10.179 C 8.344 10.250,8.206 10.394,8.140 10.500 C 8.034 10.671,8.020 10.730,8.020 10.997 C 8.020 11.256,8.036 11.327,8.131 11.489 C 8.192 11.592,8.304 11.725,8.381 11.783 C 8.635 11.977,8.753 11.996,9.700 11.998 L 10.581 12.000 11.580 13.000 L 12.579 14.000 10.736 14.000 C 8.735 14.000,8.663 14.007,8.382 14.221 C 8.302 14.282,8.187 14.415,8.128 14.516 C 8.037 14.672,8.020 14.746,8.020 15.000 C 8.020 15.257,8.036 15.327,8.133 15.492 C 8.261 15.711,8.502 15.901,8.725 15.961 C 8.824 15.988,9.664 15.999,11.092 15.991 L 13.306 15.980 13.503 15.859 C 13.611 15.792,13.756 15.655,13.824 15.553 L 13.948 15.368 15.934 17.354 C 17.026 18.447,17.920 19.359,17.920 19.382 C 17.920 19.476,17.660 19.768,17.486 19.871 L 17.300 19.980 12.000 19.980 L 6.700 19.980 6.516 19.872 C 6.415 19.813,6.284 19.700,6.225 19.623 C 5.987 19.311,6.000 19.677,6.000 13.285 L 6.000 7.420 7.316 8.736 L 8.632 10.052 8.446 10.179 " stroke="none" fill-rule="evenodd" fill="black"></path></svg>