<svg xmlns="http://www.w3.org/2000/svg" width="24" height="24" viewBox="0 0 24 24" fill="none" stroke="currentColor" stroke-width="2" stroke-linecap="round" stroke-linejoin="round"><path d="M2.670 2.061 C 2.448 2.142,2.250 2.309,2.128 2.516 C 2.036 2.672,2.020 2.745,2.021 3.000 C 2.021 3.213,2.043 3.341,2.095 3.440 C 2.136 3.517,2.734 4.148,3.426 4.842 L 4.683 6.105 4.606 6.203 C 4.343 6.537,4.121 7.056,4.041 7.522 C 4.010 7.704,4.000 9.228,4.008 12.680 L 4.020 17.580 4.114 17.860 C 4.443 18.840,5.160 19.557,6.140 19.886 L 6.420 19.980 11.300 19.993 C 14.917 20.002,16.252 19.993,16.460 19.958 C 16.950 19.876,17.456 19.662,17.797 19.394 L 17.895 19.317 19.158 20.574 C 19.852 21.266,20.483 21.864,20.560 21.905 C 20.659 21.957,20.787 21.979,21.000 21.979 C 21.258 21.980,21.327 21.964,21.492 21.867 C 21.968 21.587,22.139 20.967,21.865 20.508 C 21.810 20.416,17.665 16.243,12.653 11.235 C 4.231 2.820,3.525 2.125,3.343 2.065 C 3.107 1.987,2.874 1.986,2.670 2.061 M16.358 3.061 C 15.230 3.237,14.143 3.974,13.569 4.953 C 12.320 7.083,13.233 9.785,15.512 10.704 C 17.558 11.528,19.877 10.538,20.704 8.488 C 21.090 7.530,21.090 6.469,20.705 5.516 C 20.172 4.197,19.001 3.269,17.605 3.058 C 17.144 2.989,16.816 2.990,16.358 3.061 M17.523 5.073 C 18.262 5.266,18.850 5.924,18.967 6.690 C 19.067 7.343,18.873 7.933,18.403 8.404 C 18.002 8.807,17.547 9.000,17.000 9.000 C 16.485 9.000,16.038 8.822,15.653 8.465 C 14.323 7.229,15.189 5.005,17.000 5.005 C 17.143 5.005,17.378 5.036,17.523 5.073 M11.290 12.710 C 14.122 15.542,16.440 17.871,16.440 17.885 C 16.440 17.993,15.977 18.003,11.400 17.991 L 6.700 17.980 6.516 17.872 C 6.415 17.813,6.284 17.700,6.225 17.623 C 5.989 17.314,6.000 17.563,6.000 12.510 C 6.000 8.016,6.011 7.560,6.116 7.560 C 6.129 7.560,8.457 9.877,11.290 12.710 " stroke="none" fill-rule="evenodd" fill="black"></path></svg>