<svg xmlns="http://www.w3.org/2000/svg" width="24" height="24" viewBox="0 0 24 24" fill="none" stroke="currentColor" stroke-width="2" stroke-linecap="round" stroke-linejoin="round"><path d="M5.695 7.057 C 5.466 7.129,5.256 7.299,5.128 7.516 C 5.037 7.672,5.020 7.746,5.020 8.000 C 5.020 8.256,5.036 8.328,5.131 8.489 C 5.192 8.592,5.304 8.725,5.381 8.783 C 5.651 8.990,5.710 8.996,7.273 8.998 C 8.637 9.000,8.724 9.004,8.704 9.070 C 8.693 9.109,8.303 10.661,7.838 12.520 C 6.908 16.240,6.926 16.138,7.138 16.501 C 7.261 16.709,7.440 16.855,7.678 16.939 C 8.135 17.100,8.673 16.889,8.874 16.470 C 8.919 16.377,9.418 14.455,9.982 12.200 C 10.869 8.652,11.004 8.071,10.986 7.888 C 10.948 7.499,10.673 7.170,10.290 7.055 C 10.033 6.978,5.943 6.979,5.695 7.057 M13.695 7.057 C 13.466 7.129,13.256 7.299,13.128 7.516 C 13.037 7.672,13.020 7.746,13.020 8.000 C 13.020 8.256,13.036 8.328,13.131 8.489 C 13.192 8.592,13.304 8.725,13.381 8.783 C 13.651 8.990,13.710 8.996,15.273 8.998 C 16.637 9.000,16.724 9.004,16.704 9.070 C 16.693 9.109,16.303 10.661,15.838 12.520 C 14.908 16.240,14.926 16.138,15.138 16.501 C 15.261 16.709,15.440 16.855,15.678 16.939 C 16.135 17.100,16.673 16.889,16.874 16.470 C 16.919 16.377,17.418 14.455,17.982 12.200 C 18.869 8.652,19.004 8.071,18.986 7.888 C 18.948 7.499,18.673 7.170,18.290 7.055 C 18.033 6.978,13.943 6.979,13.695 7.057 " stroke="none" fill-rule="evenodd" fill="black"></path></svg>