<svg xmlns="http://www.w3.org/2000/svg" width="24" height="24" viewBox="0 0 24 24" fill="none" stroke="currentColor" stroke-width="2" stroke-linecap="round" stroke-linejoin="round"><path d="M5.695 7.057 C 5.466 7.129,5.256 7.299,5.128 7.516 C 5.037 7.672,5.020 7.746,5.020 8.000 C 5.020 8.256,5.036 8.328,5.131 8.489 C 5.192 8.592,5.304 8.725,5.381 8.783 C 5.651 8.990,5.710 8.996,7.273 8.998 C 8.637 9.000,8.724 9.004,8.704 9.070 C 8.693 9.109,8.303 10.661,7.838 12.520 C 6.908 16.240,6.926 16.138,7.138 16.501 C 7.261 16.709,7.440 16.855,7.678 16.939 C 8.135 17.100,8.673 16.889,8.874 16.470 C 8.919 16.377,9.418 14.455,9.982 12.200 C 10.869 8.652,11.004 8.071,10.986 7.888 C 10.948 7.499,10.673 7.170,10.290 7.055 C 10.033 6.978,5.943 6.979,5.695 7.057 M13.695 7.057 C 13.466 7.129,13.256 7.299,13.128 7.516 L 13.020 7.700 13.008 9.456 C 12.996 11.350,13.005 11.460,13.202 11.877 C 13.348 12.186,13.771 12.623,14.070 12.775 C 14.472 12.979,14.643 13.000,15.867 13.000 L 16.997 13.000 17.008 14.653 L 17.020 16.306 17.141 16.503 C 17.543 17.156,18.457 17.156,18.859 16.503 L 18.980 16.306 18.980 12.003 L 18.980 7.700 18.871 7.514 C 18.479 6.848,17.521 6.848,17.129 7.514 L 17.020 7.700 17.008 9.350 L 16.997 11.000 16.000 11.000 L 15.003 11.000 14.992 9.350 L 14.980 7.700 14.872 7.516 C 14.628 7.101,14.150 6.915,13.695 7.057 " stroke="none" fill-rule="evenodd" fill="black"></path></svg>