<svg xmlns="http://www.w3.org/2000/svg" width="24" height="24" viewBox="0 0 24 24" fill="none" stroke="currentColor" stroke-width="2" stroke-linecap="round" stroke-linejoin="round"><path d="M6.477 7.073 C 5.806 7.249,5.238 7.823,5.060 8.508 C 5.009 8.702,5.000 9.237,5.000 12.000 C 5.000 15.547,4.996 15.478,5.225 15.930 C 5.361 16.199,5.801 16.639,6.070 16.775 C 6.479 16.982,6.632 17.000,8.000 17.000 C 9.368 17.000,9.521 16.982,9.930 16.775 C 10.196 16.640,10.638 16.200,10.771 15.937 C 10.979 15.527,11.000 15.352,10.999 14.014 C 10.999 12.682,10.974 12.463,10.781 12.083 C 10.646 11.816,10.297 11.449,10.017 11.281 C 9.609 11.035,9.405 11.005,8.130 11.002 L 7.000 11.000 7.000 10.000 L 7.000 9.000 7.995 9.000 L 8.991 9.000 9.017 9.175 C 9.053 9.417,9.243 9.699,9.465 9.839 C 10.102 10.243,10.930 9.826,10.988 9.072 C 11.011 8.775,10.927 8.370,10.782 8.083 C 10.551 7.628,10.022 7.203,9.523 7.073 C 9.134 6.972,6.866 6.972,6.477 7.073 M13.695 7.057 C 13.466 7.129,13.256 7.299,13.128 7.516 C 13.037 7.672,13.020 7.746,13.020 8.000 C 13.020 8.256,13.036 8.328,13.131 8.489 C 13.192 8.592,13.304 8.725,13.381 8.783 C 13.651 8.990,13.710 8.996,15.273 8.998 C 16.637 9.000,16.724 9.004,16.704 9.070 C 16.693 9.109,16.303 10.661,15.838 12.520 C 14.908 16.240,14.926 16.138,15.138 16.501 C 15.261 16.709,15.440 16.855,15.678 16.939 C 16.135 17.100,16.673 16.889,16.874 16.470 C 16.919 16.377,17.418 14.455,17.982 12.200 C 18.869 8.652,19.004 8.071,18.986 7.888 C 18.948 7.499,18.673 7.170,18.290 7.055 C 18.033 6.978,13.943 6.979,13.695 7.057 M9.000 14.000 L 9.000 15.000 8.000 15.000 L 7.000 15.000 7.000 14.000 L 7.000 13.000 8.000 13.000 L 9.000 13.000 9.000 14.000 " stroke="none" fill-rule="evenodd" fill="black"></path></svg>