<svg xmlns="http://www.w3.org/2000/svg" width="24" height="24" viewBox="0 0 24 24" fill="none" stroke="currentColor" stroke-width="2" stroke-linecap="round" stroke-linejoin="round"><path d="M7.695 7.057 C 7.466 7.129,7.256 7.299,7.128 7.516 C 7.036 7.672,7.020 7.746,7.020 8.003 C 7.020 8.271,7.034 8.329,7.141 8.503 C 7.288 8.741,7.577 8.946,7.820 8.982 L 7.998 9.009 8.009 12.658 L 8.020 16.306 8.141 16.503 C 8.543 17.156,9.457 17.156,9.859 16.503 L 9.980 16.306 9.980 12.003 L 9.980 7.700 9.872 7.516 C 9.740 7.293,9.533 7.128,9.290 7.055 C 9.050 6.983,7.928 6.984,7.695 7.057 M12.695 7.057 C 12.466 7.129,12.256 7.299,12.128 7.516 C 12.037 7.672,12.020 7.746,12.020 8.000 C 12.020 8.256,12.036 8.328,12.131 8.489 C 12.192 8.592,12.304 8.725,12.381 8.783 C 12.651 8.990,12.710 8.996,14.273 8.998 C 15.637 9.000,15.724 9.004,15.704 9.070 C 15.693 9.109,15.303 10.661,14.838 12.520 C 13.908 16.240,13.926 16.138,14.138 16.501 C 14.261 16.709,14.440 16.855,14.678 16.939 C 15.135 17.100,15.673 16.889,15.874 16.470 C 15.919 16.377,16.418 14.455,16.982 12.200 C 17.869 8.652,18.004 8.071,17.986 7.888 C 17.948 7.499,17.673 7.170,17.290 7.055 C 17.033 6.978,12.943 6.979,12.695 7.057 " stroke="none" fill-rule="evenodd" fill="black"></path></svg>