<svg xmlns="http://www.w3.org/2000/svg" width="24" height="24" viewBox="0 0 24 24" fill="none" stroke="currentColor" stroke-width="2" stroke-linecap="round" stroke-linejoin="round"><path d="M11.400 3.044 C 9.761 3.229,8.261 4.290,7.526 5.785 C 7.186 6.475,7.023 7.142,7.021 7.843 C 7.020 8.289,7.024 8.313,7.141 8.503 C 7.539 9.151,8.457 9.156,8.852 8.514 C 8.950 8.354,8.972 8.264,9.005 7.883 C 9.026 7.638,9.084 7.299,9.133 7.129 C 9.402 6.199,10.187 5.415,11.139 5.125 C 11.412 5.042,11.542 5.027,12.000 5.027 C 12.458 5.027,12.588 5.042,12.861 5.125 C 13.815 5.416,14.598 6.199,14.869 7.135 C 15.123 8.012,14.977 8.802,14.392 9.706 C 14.294 9.857,12.632 12.104,10.698 14.700 C 8.764 17.296,7.145 19.492,7.101 19.580 C 6.974 19.831,6.988 20.245,7.131 20.489 C 7.192 20.592,7.301 20.723,7.374 20.778 C 7.677 21.009,7.482 21.000,12.015 20.998 C 15.390 20.997,16.208 20.986,16.330 20.943 C 16.551 20.864,16.744 20.702,16.869 20.489 C 16.964 20.328,16.980 20.256,16.980 20.000 C 16.980 19.746,16.963 19.672,16.872 19.516 C 16.761 19.328,16.572 19.158,16.373 19.070 C 16.287 19.032,15.513 19.015,13.134 19.000 L 10.007 18.980 12.869 15.140 C 14.443 13.028,15.857 11.111,16.011 10.880 C 16.332 10.400,16.628 9.805,16.779 9.340 C 17.327 7.654,16.798 5.682,15.454 4.399 C 14.365 3.358,12.914 2.873,11.400 3.044 " stroke="none" fill-rule="evenodd" fill="black"></path></svg>