<svg xmlns="http://www.w3.org/2000/svg" width="24" height="24" viewBox="0 0 24 24" fill="none" stroke="currentColor" stroke-width="2" stroke-linecap="round" stroke-linejoin="round"><path d="M5.695 7.057 C 5.466 7.129,5.256 7.299,5.128 7.516 C 5.037 7.672,5.020 7.746,5.020 8.000 C 5.020 8.256,5.036 8.328,5.131 8.489 C 5.192 8.592,5.304 8.725,5.381 8.783 C 5.651 8.990,5.710 8.996,7.273 8.998 C 8.637 9.000,8.724 9.004,8.704 9.070 C 8.693 9.109,8.303 10.661,7.838 12.520 C 6.908 16.240,6.926 16.138,7.138 16.501 C 7.261 16.709,7.440 16.855,7.678 16.939 C 8.135 17.100,8.673 16.889,8.874 16.470 C 8.919 16.377,9.418 14.455,9.982 12.200 C 10.869 8.652,11.004 8.071,10.986 7.888 C 10.948 7.499,10.673 7.170,10.290 7.055 C 10.033 6.978,5.943 6.979,5.695 7.057 M15.499 7.040 C 14.363 7.246,13.461 8.048,13.114 9.160 L 13.020 9.460 13.020 12.000 L 13.020 14.540 13.114 14.840 C 13.422 15.827,14.174 16.579,15.160 16.886 C 15.594 17.021,16.406 17.021,16.840 16.886 C 17.826 16.579,18.578 15.827,18.886 14.840 L 18.980 14.540 18.980 12.000 L 18.980 9.460 18.886 9.160 C 18.580 8.178,17.810 7.407,16.861 7.129 C 16.500 7.023,15.832 6.980,15.499 7.040 M16.310 9.061 C 16.589 9.144,16.856 9.411,16.939 9.690 C 17.025 9.978,17.030 14.007,16.945 14.290 C 16.872 14.533,16.707 14.740,16.484 14.872 C 16.328 14.963,16.254 14.980,16.000 14.980 C 15.746 14.980,15.672 14.963,15.516 14.872 C 15.415 14.813,15.284 14.700,15.225 14.623 C 14.999 14.327,15.000 14.334,15.000 12.002 C 15.000 9.564,14.995 9.612,15.307 9.299 C 15.582 9.024,15.918 8.944,16.310 9.061 " stroke="none" fill-rule="evenodd" fill="black"></path></svg>