<svg xmlns="http://www.w3.org/2000/svg" width="24" height="24" viewBox="0 0 24 24" fill="none" stroke="currentColor" stroke-width="2" stroke-linecap="round" stroke-linejoin="round"><path d="M5.695 7.057 C 5.466 7.129,5.256 7.299,5.128 7.516 C 5.037 7.672,5.020 7.746,5.020 8.000 C 5.020 8.256,5.036 8.328,5.131 8.489 C 5.192 8.592,5.304 8.725,5.381 8.783 C 5.654 8.991,5.700 8.996,7.410 8.998 L 9.000 9.000 9.000 10.000 L 9.000 11.000 7.870 11.002 C 6.936 11.004,6.694 11.017,6.477 11.073 C 5.806 11.249,5.238 11.823,5.060 12.508 C 4.973 12.839,4.973 15.161,5.060 15.492 C 5.153 15.852,5.310 16.118,5.596 16.404 C 5.882 16.690,6.148 16.847,6.508 16.940 C 6.826 17.023,10.099 17.025,10.330 16.943 C 10.551 16.864,10.744 16.702,10.869 16.489 C 10.964 16.328,10.980 16.256,10.980 16.000 C 10.980 15.746,10.963 15.672,10.872 15.516 C 10.813 15.415,10.698 15.282,10.618 15.221 C 10.342 15.011,10.242 15.000,8.554 15.000 L 7.000 15.000 7.000 14.000 L 7.000 13.000 8.132 13.000 C 9.358 13.000,9.528 12.979,9.930 12.775 C 10.196 12.640,10.638 12.200,10.771 11.937 C 10.979 11.527,11.000 11.352,10.999 10.014 C 10.999 8.682,10.974 8.463,10.781 8.083 C 10.646 7.816,10.297 7.449,10.017 7.281 C 9.580 7.018,9.463 7.005,7.560 7.005 C 6.283 7.005,5.819 7.018,5.695 7.057 M15.499 7.040 C 14.363 7.246,13.461 8.048,13.114 9.160 L 13.020 9.460 13.020 12.000 L 13.020 14.540 13.114 14.840 C 13.422 15.827,14.174 16.579,15.160 16.886 C 15.594 17.021,16.406 17.021,16.840 16.886 C 17.826 16.579,18.578 15.827,18.886 14.840 L 18.980 14.540 18.980 12.000 L 18.980 9.460 18.886 9.160 C 18.580 8.178,17.810 7.407,16.861 7.129 C 16.500 7.023,15.832 6.980,15.499 7.040 M16.310 9.061 C 16.589 9.144,16.856 9.411,16.939 9.690 C 17.025 9.978,17.030 14.007,16.945 14.290 C 16.872 14.533,16.707 14.740,16.484 14.872 C 16.328 14.963,16.254 14.980,16.000 14.980 C 15.746 14.980,15.672 14.963,15.516 14.872 C 15.415 14.813,15.284 14.700,15.225 14.623 C 14.999 14.327,15.000 14.334,15.000 12.002 C 15.000 9.564,14.995 9.612,15.307 9.299 C 15.582 9.024,15.918 8.944,16.310 9.061 " stroke="none" fill-rule="evenodd" fill="black"></path></svg>