<svg xmlns="http://www.w3.org/2000/svg" width="24" height="24" viewBox="0 0 24 24" fill="none" stroke="currentColor" stroke-width="2" stroke-linecap="round" stroke-linejoin="round"><path d="M5.695 7.057 C 5.466 7.129,5.256 7.299,5.128 7.516 C 5.037 7.672,5.020 7.746,5.020 8.000 C 5.020 8.256,5.036 8.328,5.131 8.489 C 5.192 8.592,5.304 8.725,5.381 8.783 C 5.654 8.991,5.700 8.996,7.410 8.998 L 9.000 9.000 9.000 10.000 L 9.000 11.000 7.870 11.002 C 6.936 11.004,6.694 11.017,6.477 11.073 C 5.806 11.249,5.238 11.823,5.060 12.508 C 4.973 12.839,4.973 15.161,5.060 15.492 C 5.153 15.852,5.310 16.118,5.596 16.404 C 5.882 16.690,6.148 16.847,6.508 16.940 C 6.826 17.023,10.099 17.025,10.330 16.943 C 10.551 16.864,10.744 16.702,10.869 16.489 C 10.964 16.328,10.980 16.256,10.980 16.000 C 10.980 15.746,10.963 15.672,10.872 15.516 C 10.813 15.415,10.698 15.282,10.618 15.221 C 10.342 15.011,10.242 15.000,8.554 15.000 L 7.000 15.000 7.000 14.000 L 7.000 13.000 8.132 13.000 C 9.358 13.000,9.528 12.979,9.930 12.775 C 10.196 12.640,10.638 12.200,10.771 11.937 C 10.979 11.527,11.000 11.352,10.999 10.014 C 10.999 8.682,10.974 8.463,10.781 8.083 C 10.646 7.816,10.297 7.449,10.017 7.281 C 9.580 7.018,9.463 7.005,7.560 7.005 C 6.283 7.005,5.819 7.018,5.695 7.057 M13.695 7.057 C 13.466 7.129,13.256 7.299,13.128 7.516 L 13.020 7.700 13.008 9.456 C 12.996 11.350,13.005 11.460,13.202 11.877 C 13.348 12.186,13.771 12.623,14.070 12.775 C 14.472 12.979,14.643 13.000,15.867 13.000 L 16.997 13.000 17.008 14.653 L 17.020 16.306 17.141 16.503 C 17.543 17.156,18.457 17.156,18.859 16.503 L 18.980 16.306 18.980 12.003 L 18.980 7.700 18.871 7.514 C 18.479 6.848,17.521 6.848,17.129 7.514 L 17.020 7.700 17.008 9.350 L 16.997 11.000 16.000 11.000 L 15.003 11.000 14.992 9.350 L 14.980 7.700 14.872 7.516 C 14.628 7.101,14.150 6.915,13.695 7.057 " stroke="none" fill-rule="evenodd" fill="black"></path></svg>