<svg xmlns="http://www.w3.org/2000/svg" width="24" height="24" viewBox="0 0 24 24" fill="none" stroke="currentColor" stroke-width="2" stroke-linecap="round" stroke-linejoin="round"><path d="M9.695 7.057 C 9.466 7.129,9.256 7.299,9.128 7.516 C 9.037 7.672,9.020 7.746,9.020 8.000 C 9.020 8.256,9.036 8.328,9.131 8.489 C 9.192 8.592,9.304 8.725,9.381 8.783 C 9.650 8.989,9.714 8.996,11.220 8.998 C 12.536 9.000,12.628 9.005,12.748 9.078 C 12.970 9.214,13.000 9.324,13.000 10.008 C 13.000 10.544,12.990 10.636,12.922 10.748 C 12.779 10.983,12.698 11.000,11.748 11.000 C 10.811 11.000,10.634 11.029,10.382 11.221 C 10.302 11.282,10.187 11.415,10.128 11.516 C 10.037 11.672,10.020 11.746,10.020 12.000 C 10.020 12.256,10.036 12.328,10.131 12.489 C 10.192 12.592,10.304 12.725,10.381 12.783 C 10.635 12.977,10.752 12.996,11.712 12.998 C 12.701 13.000,12.778 13.016,12.922 13.252 C 12.990 13.364,13.000 13.456,13.000 13.992 C 13.000 14.676,12.970 14.786,12.748 14.922 C 12.628 14.995,12.538 15.000,11.256 15.000 C 9.773 15.000,9.653 15.014,9.382 15.221 C 9.302 15.282,9.187 15.415,9.128 15.516 C 9.037 15.672,9.020 15.746,9.020 16.000 C 9.020 16.257,9.036 16.327,9.133 16.492 C 9.262 16.712,9.502 16.901,9.730 16.963 C 9.832 16.990,10.435 17.000,11.454 16.992 L 13.020 16.979 13.320 16.869 C 14.039 16.605,14.601 16.043,14.869 15.320 C 14.980 15.021,14.980 15.016,14.980 14.000 C 14.980 12.987,14.979 12.978,14.870 12.684 C 14.810 12.521,14.705 12.301,14.636 12.194 L 14.512 12.000 14.636 11.806 C 14.705 11.699,14.810 11.479,14.870 11.316 C 14.979 11.022,14.980 11.013,14.980 10.000 C 14.980 8.985,14.979 8.978,14.869 8.680 C 14.643 8.064,14.194 7.561,13.620 7.277 C 13.102 7.021,12.937 7.001,11.300 7.003 C 10.239 7.005,9.816 7.019,9.695 7.057 " stroke="none" fill-rule="evenodd" fill="black"></path></svg>