<svg xmlns="http://www.w3.org/2000/svg" width="24" height="24" viewBox="0 0 24 24" fill="none" stroke="currentColor" stroke-width="2" stroke-linecap="round" stroke-linejoin="round"><path d="M6.477 7.073 C 5.806 7.249,5.238 7.823,5.060 8.508 C 5.009 8.702,5.000 9.237,5.000 12.000 C 5.000 15.547,4.996 15.478,5.225 15.930 C 5.361 16.199,5.801 16.639,6.070 16.775 C 6.479 16.982,6.632 17.000,8.000 17.000 C 9.368 17.000,9.521 16.982,9.930 16.775 C 10.196 16.640,10.638 16.200,10.771 15.937 C 10.979 15.527,11.000 15.352,10.999 14.014 C 10.999 12.682,10.974 12.463,10.781 12.083 C 10.646 11.816,10.297 11.449,10.017 11.281 C 9.609 11.035,9.405 11.005,8.130 11.002 L 7.000 11.000 7.000 10.000 L 7.000 9.000 7.995 9.000 L 8.991 9.000 9.017 9.175 C 9.053 9.417,9.243 9.699,9.465 9.839 C 10.102 10.243,10.930 9.826,10.988 9.072 C 11.011 8.775,10.927 8.370,10.782 8.083 C 10.551 7.628,10.022 7.203,9.523 7.073 C 9.134 6.972,6.866 6.972,6.477 7.073 M13.695 7.057 C 13.466 7.129,13.256 7.299,13.128 7.516 L 13.020 7.700 13.009 9.911 C 13.001 11.337,13.012 12.176,13.039 12.275 C 13.099 12.498,13.289 12.739,13.508 12.867 L 13.700 12.980 15.350 12.992 L 17.000 13.003 17.000 14.002 L 17.000 15.000 16.005 15.000 L 15.010 15.000 14.983 14.830 C 14.869 14.117,13.995 13.771,13.405 14.205 C 12.945 14.544,12.873 15.235,13.225 15.929 C 13.361 16.199,13.800 16.638,14.070 16.775 C 14.479 16.982,14.632 17.000,16.000 17.000 C 17.368 17.000,17.521 16.982,17.930 16.775 C 18.196 16.640,18.638 16.200,18.771 15.937 C 18.979 15.527,19.000 15.352,18.999 14.014 C 18.999 12.682,18.974 12.463,18.781 12.083 C 18.646 11.816,18.297 11.449,18.017 11.281 C 17.609 11.035,17.405 11.005,16.130 11.002 L 15.000 11.000 15.000 10.000 L 15.000 9.000 16.590 8.998 C 18.300 8.996,18.346 8.991,18.619 8.783 C 18.696 8.725,18.808 8.592,18.869 8.489 C 18.964 8.328,18.980 8.256,18.980 8.000 C 18.980 7.746,18.963 7.672,18.872 7.516 C 18.740 7.293,18.533 7.128,18.290 7.055 C 18.033 6.978,13.943 6.979,13.695 7.057 M9.000 14.000 L 9.000 15.000 8.000 15.000 L 7.000 15.000 7.000 14.000 L 7.000 13.000 8.000 13.000 L 9.000 13.000 9.000 14.000 " stroke="none" fill-rule="evenodd" fill="black"></path></svg>