<svg xmlns="http://www.w3.org/2000/svg" width="24" height="24" viewBox="0 0 24 24" fill="none" stroke="currentColor" stroke-width="2" stroke-linecap="round" stroke-linejoin="round"><path d="M7.695 7.057 C 7.466 7.129,7.256 7.299,7.128 7.516 C 7.036 7.672,7.020 7.746,7.020 8.003 C 7.020 8.271,7.034 8.329,7.141 8.503 C 7.288 8.741,7.577 8.946,7.820 8.982 L 7.998 9.009 8.009 12.658 L 8.020 16.306 8.141 16.503 C 8.543 17.156,9.457 17.156,9.859 16.503 L 9.980 16.306 9.980 12.003 L 9.980 7.700 9.872 7.516 C 9.740 7.293,9.533 7.128,9.290 7.055 C 9.050 6.983,7.928 6.984,7.695 7.057 M15.499 7.040 C 14.363 7.246,13.461 8.048,13.114 9.160 L 13.020 9.460 13.020 12.000 L 13.020 14.540 13.114 14.840 C 13.422 15.827,14.174 16.579,15.160 16.886 C 15.594 17.021,16.406 17.021,16.840 16.886 C 17.826 16.579,18.578 15.827,18.886 14.840 L 18.980 14.540 18.980 12.000 L 18.980 9.460 18.886 9.160 C 18.580 8.178,17.810 7.407,16.861 7.129 C 16.500 7.023,15.832 6.980,15.499 7.040 M16.310 9.061 C 16.589 9.144,16.856 9.411,16.939 9.690 C 17.025 9.978,17.030 14.007,16.945 14.290 C 16.872 14.533,16.707 14.740,16.484 14.872 C 16.328 14.963,16.254 14.980,16.000 14.980 C 15.746 14.980,15.672 14.963,15.516 14.872 C 15.415 14.813,15.284 14.700,15.225 14.623 C 14.999 14.327,15.000 14.334,15.000 12.002 C 15.000 9.564,14.995 9.612,15.307 9.299 C 15.582 9.024,15.918 8.944,16.310 9.061 " stroke="none" fill-rule="evenodd" fill="black"></path></svg>