<svg xmlns="http://www.w3.org/2000/svg" width="24" height="24" viewBox="0 0 24 24" fill="none" stroke="currentColor" stroke-width="2" stroke-linecap="round" stroke-linejoin="round"><path d="M3.695 7.057 C 3.466 7.129,3.256 7.299,3.128 7.516 C 3.036 7.672,3.020 7.746,3.020 8.003 C 3.020 8.271,3.034 8.329,3.141 8.503 C 3.288 8.741,3.577 8.946,3.820 8.982 L 3.998 9.009 4.009 12.658 L 4.020 16.306 4.141 16.503 C 4.543 17.156,5.457 17.156,5.859 16.503 L 5.980 16.306 5.980 12.003 L 5.980 7.700 5.872 7.516 C 5.740 7.293,5.533 7.128,5.290 7.055 C 5.050 6.983,3.928 6.984,3.695 7.057 M10.499 7.040 C 9.363 7.246,8.461 8.048,8.114 9.160 L 8.020 9.460 8.020 12.000 L 8.020 14.540 8.114 14.840 C 8.422 15.827,9.174 16.579,10.160 16.886 C 10.594 17.021,11.406 17.021,11.840 16.886 C 12.826 16.579,13.578 15.827,13.886 14.840 L 13.980 14.540 13.980 12.000 L 13.980 9.460 13.886 9.160 C 13.580 8.178,12.810 7.407,11.861 7.129 C 11.500 7.023,10.832 6.980,10.499 7.040 M17.499 7.040 C 16.363 7.246,15.461 8.048,15.114 9.160 L 15.020 9.460 15.020 12.000 L 15.020 14.540 15.114 14.840 C 15.422 15.827,16.174 16.579,17.160 16.886 C 17.594 17.021,18.406 17.021,18.840 16.886 C 19.826 16.579,20.578 15.827,20.886 14.840 L 20.980 14.540 20.980 12.000 L 20.980 9.460 20.886 9.160 C 20.580 8.178,19.810 7.407,18.861 7.129 C 18.500 7.023,17.832 6.980,17.499 7.040 M11.310 9.061 C 11.589 9.144,11.856 9.411,11.939 9.690 C 12.025 9.978,12.030 14.007,11.945 14.290 C 11.872 14.533,11.707 14.740,11.484 14.872 C 11.328 14.963,11.254 14.980,11.000 14.980 C 10.746 14.980,10.672 14.963,10.516 14.872 C 10.415 14.813,10.284 14.700,10.225 14.623 C 10.000 14.327,10.000 14.332,10.000 12.022 C 10.000 9.586,9.997 9.609,10.304 9.303 C 10.583 9.024,10.916 8.944,11.310 9.061 M18.310 9.061 C 18.589 9.144,18.856 9.411,18.939 9.690 C 19.025 9.978,19.030 14.007,18.945 14.290 C 18.872 14.533,18.707 14.740,18.484 14.872 C 18.328 14.963,18.254 14.980,18.000 14.980 C 17.746 14.980,17.672 14.963,17.516 14.872 C 17.415 14.813,17.284 14.700,17.225 14.623 C 17.000 14.327,17.000 14.332,17.000 12.022 C 17.000 9.586,16.997 9.609,17.304 9.303 C 17.583 9.024,17.916 8.944,18.310 9.061 " stroke="none" fill-rule="evenodd" fill="black"></path></svg>