<svg xmlns="http://www.w3.org/2000/svg" width="24" height="24" viewBox="0 0 24 24" fill="none" stroke="currentColor" stroke-width="2" stroke-linecap="round" stroke-linejoin="round"><path d="M10.695 7.057 C 10.466 7.129,10.256 7.299,10.128 7.516 C 10.036 7.672,10.020 7.746,10.020 8.003 C 10.020 8.271,10.034 8.329,10.141 8.503 C 10.288 8.741,10.577 8.946,10.820 8.982 L 10.998 9.009 11.009 12.658 L 11.020 16.306 11.141 16.503 C 11.543 17.156,12.457 17.156,12.859 16.503 L 12.980 16.306 12.980 12.003 L 12.980 7.700 12.872 7.516 C 12.740 7.293,12.533 7.128,12.290 7.055 C 12.050 6.983,10.928 6.984,10.695 7.057 " stroke="none" fill-rule="evenodd" fill="black"></path></svg>