<svg xmlns="http://www.w3.org/2000/svg" width="24" height="24" viewBox="0 0 24 24" fill="none" stroke="currentColor" stroke-width="2" stroke-linecap="round" stroke-linejoin="round"><path d="M14.726 4.046 C 14.501 4.111,14.303 4.269,14.093 4.551 C 12.762 6.342,6.158 15.470,6.086 15.617 C 5.905 15.990,6.036 16.521,6.374 16.778 C 6.675 17.007,6.538 17.000,10.423 17.000 L 13.997 17.000 14.008 18.653 L 14.020 20.306 14.141 20.503 C 14.543 21.156,15.457 21.156,15.859 20.503 L 15.980 20.306 15.992 18.653 L 16.003 17.000 16.592 16.998 C 16.978 16.997,17.232 16.978,17.330 16.943 C 17.551 16.864,17.744 16.702,17.869 16.489 C 17.964 16.328,17.980 16.256,17.980 16.000 C 17.980 15.746,17.963 15.672,17.872 15.516 C 17.633 15.110,17.352 15.000,16.554 15.000 L 16.001 15.000 15.991 9.850 L 15.980 4.700 15.872 4.516 C 15.636 4.114,15.162 3.920,14.726 4.046 M14.000 11.560 L 14.000 15.000 11.482 15.000 L 8.963 15.000 11.465 11.560 C 12.841 9.668,13.975 8.120,13.984 8.120 C 13.993 8.120,14.000 9.668,14.000 11.560 " stroke="none" fill-rule="evenodd" fill="black"></path></svg>