<svg xmlns="http://www.w3.org/2000/svg" width="24" height="24" viewBox="0 0 24 24" fill="none" stroke="currentColor" stroke-width="2" stroke-linecap="round" stroke-linejoin="round"><path d="M7.695 7.057 C 7.466 7.129,7.256 7.299,7.128 7.516 C 7.036 7.672,7.020 7.746,7.020 8.003 C 7.020 8.271,7.034 8.329,7.141 8.503 C 7.288 8.741,7.577 8.946,7.820 8.982 L 7.998 9.009 8.009 12.658 L 8.020 16.306 8.141 16.503 C 8.543 17.156,9.457 17.156,9.859 16.503 L 9.980 16.306 9.980 12.003 L 9.980 7.700 9.872 7.516 C 9.740 7.293,9.533 7.128,9.290 7.055 C 9.050 6.983,7.928 6.984,7.695 7.057 M12.695 7.057 C 12.466 7.129,12.256 7.299,12.128 7.516 C 12.037 7.672,12.020 7.746,12.020 8.000 C 12.020 8.256,12.036 8.328,12.131 8.489 C 12.192 8.592,12.304 8.725,12.381 8.783 C 12.650 8.989,12.714 8.996,14.220 8.998 C 15.536 9.000,15.628 9.005,15.748 9.078 C 15.970 9.214,16.000 9.324,16.000 10.008 C 16.000 10.544,15.990 10.636,15.922 10.748 C 15.779 10.983,15.698 11.000,14.748 11.000 C 13.811 11.000,13.634 11.029,13.382 11.221 C 13.302 11.282,13.187 11.415,13.128 11.516 C 13.037 11.672,13.020 11.746,13.020 12.000 C 13.020 12.256,13.036 12.328,13.131 12.489 C 13.192 12.592,13.304 12.725,13.381 12.783 C 13.635 12.977,13.752 12.996,14.712 12.998 C 15.701 13.000,15.778 13.016,15.922 13.252 C 15.990 13.364,16.000 13.456,16.000 13.992 C 16.000 14.676,15.970 14.786,15.748 14.922 C 15.628 14.995,15.538 15.000,14.256 15.000 C 12.773 15.000,12.653 15.014,12.382 15.221 C 12.302 15.282,12.187 15.415,12.128 15.516 C 12.037 15.672,12.020 15.746,12.020 16.000 C 12.020 16.257,12.036 16.327,12.133 16.492 C 12.262 16.712,12.502 16.901,12.730 16.963 C 12.832 16.990,13.435 17.000,14.454 16.992 L 16.020 16.979 16.320 16.869 C 17.039 16.605,17.601 16.043,17.869 15.320 C 17.980 15.021,17.980 15.016,17.980 14.000 C 17.980 12.987,17.979 12.978,17.870 12.684 C 17.810 12.521,17.705 12.301,17.636 12.194 L 17.512 12.000 17.636 11.806 C 17.705 11.699,17.810 11.479,17.870 11.316 C 17.979 11.022,17.980 11.013,17.980 10.000 C 17.980 8.985,17.979 8.978,17.869 8.680 C 17.643 8.064,17.194 7.561,16.620 7.277 C 16.102 7.021,15.937 7.001,14.300 7.003 C 13.239 7.005,12.816 7.019,12.695 7.057 " stroke="none" fill-rule="evenodd" fill="black"></path></svg>