<svg xmlns="http://www.w3.org/2000/svg" width="24" height="24" viewBox="0 0 24 24" fill="none" stroke="currentColor" stroke-width="2" stroke-linecap="round" stroke-linejoin="round"><path d="M5.695 7.057 C 5.466 7.129,5.256 7.299,5.128 7.516 C 5.037 7.672,5.020 7.746,5.020 8.000 C 5.020 8.256,5.036 8.328,5.131 8.489 C 5.192 8.592,5.304 8.725,5.381 8.783 C 5.651 8.990,5.710 8.996,7.273 8.998 C 8.637 9.000,8.724 9.004,8.704 9.070 C 8.693 9.109,8.303 10.661,7.838 12.520 C 6.908 16.240,6.926 16.138,7.138 16.501 C 7.261 16.709,7.440 16.855,7.678 16.939 C 8.135 17.100,8.673 16.889,8.874 16.470 C 8.919 16.377,9.418 14.455,9.982 12.200 C 10.869 8.652,11.004 8.071,10.986 7.888 C 10.948 7.499,10.673 7.170,10.290 7.055 C 10.033 6.978,5.943 6.979,5.695 7.057 M14.477 7.073 C 13.785 7.254,13.184 7.886,13.039 8.586 C 13.011 8.721,13.000 9.270,13.008 10.128 L 13.020 11.460 13.133 11.730 L 13.245 12.000 13.133 12.270 L 13.020 12.540 13.008 13.872 C 12.994 15.320,13.008 15.468,13.202 15.877 C 13.348 16.186,13.771 16.623,14.070 16.775 C 14.479 16.982,14.632 17.000,16.000 17.000 C 17.368 17.000,17.521 16.982,17.930 16.775 C 18.196 16.640,18.638 16.200,18.771 15.937 C 18.989 15.508,19.006 15.349,18.992 13.905 C 18.980 12.624,18.976 12.572,18.885 12.340 C 18.768 12.040,18.768 11.959,18.885 11.660 C 18.977 11.428,18.980 11.378,18.992 10.115 C 19.005 8.695,18.983 8.480,18.782 8.083 C 18.551 7.628,18.022 7.203,17.523 7.073 C 17.134 6.972,14.866 6.972,14.477 7.073 M17.000 10.000 L 17.000 11.000 16.000 11.000 L 15.000 11.000 15.000 10.000 L 15.000 9.000 16.000 9.000 L 17.000 9.000 17.000 10.000 M17.000 14.000 L 17.000 15.000 16.000 15.000 L 15.000 15.000 15.000 14.000 L 15.000 13.000 16.000 13.000 L 17.000 13.000 17.000 14.000 " stroke="none" fill-rule="evenodd" fill="black"></path></svg>