<svg xmlns="http://www.w3.org/2000/svg" width="24" height="24" viewBox="0 0 24 24" fill="none" stroke="currentColor" stroke-width="2" stroke-linecap="round" stroke-linejoin="round"><path d="M7.695 7.057 C 7.466 7.129,7.256 7.299,7.128 7.516 C 7.036 7.672,7.020 7.746,7.020 8.003 C 7.020 8.271,7.034 8.329,7.141 8.503 C 7.288 8.741,7.577 8.946,7.820 8.982 L 7.998 9.009 8.009 12.658 L 8.020 16.306 8.141 16.503 C 8.543 17.156,9.457 17.156,9.859 16.503 L 9.980 16.306 9.980 12.003 L 9.980 7.700 9.872 7.516 C 9.740 7.293,9.533 7.128,9.290 7.055 C 9.050 6.983,7.928 6.984,7.695 7.057 M13.477 7.073 C 12.806 7.249,12.238 7.823,12.060 8.508 C 12.009 8.702,12.000 9.237,12.000 12.000 C 12.000 15.547,11.996 15.478,12.225 15.930 C 12.361 16.199,12.801 16.639,13.070 16.775 C 13.479 16.982,13.632 17.000,15.000 17.000 C 16.368 17.000,16.521 16.982,16.930 16.775 C 17.196 16.640,17.638 16.200,17.771 15.937 C 17.979 15.527,18.000 15.352,17.999 14.014 C 17.999 12.682,17.974 12.463,17.781 12.083 C 17.646 11.816,17.297 11.449,17.017 11.281 C 16.609 11.035,16.405 11.005,15.130 11.002 L 14.000 11.000 14.000 10.000 L 14.000 9.000 14.995 9.000 L 15.991 9.000 16.017 9.175 C 16.053 9.417,16.243 9.699,16.465 9.839 C 17.102 10.243,17.930 9.826,17.988 9.072 C 18.011 8.775,17.927 8.370,17.782 8.083 C 17.551 7.628,17.022 7.203,16.523 7.073 C 16.134 6.972,13.866 6.972,13.477 7.073 M16.000 14.000 L 16.000 15.000 15.000 15.000 L 14.000 15.000 14.000 14.000 L 14.000 13.000 15.000 13.000 L 16.000 13.000 16.000 14.000 " stroke="none" fill-rule="evenodd" fill="black"></path></svg>