<svg xmlns="http://www.w3.org/2000/svg" width="24" height="24" viewBox="0 0 24 24" fill="none" stroke="currentColor" stroke-width="2" stroke-linecap="round" stroke-linejoin="round"><path d="M6.695 7.057 C 6.466 7.129,6.256 7.299,6.128 7.516 C 6.037 7.672,6.020 7.746,6.020 8.000 C 6.020 8.256,6.036 8.328,6.131 8.489 C 6.192 8.592,6.304 8.725,6.381 8.783 C 6.654 8.991,6.700 8.996,8.410 8.998 L 10.000 9.000 10.000 10.000 L 10.000 11.000 8.870 11.002 C 7.936 11.004,7.694 11.017,7.477 11.073 C 6.806 11.249,6.238 11.823,6.060 12.508 C 5.973 12.839,5.973 15.161,6.060 15.492 C 6.153 15.852,6.310 16.118,6.596 16.404 C 6.882 16.690,7.148 16.847,7.508 16.940 C 7.826 17.023,11.099 17.025,11.330 16.943 C 11.551 16.864,11.744 16.702,11.869 16.489 C 11.964 16.328,11.980 16.256,11.980 16.000 C 11.980 15.746,11.963 15.672,11.872 15.516 C 11.813 15.415,11.698 15.282,11.618 15.221 C 11.342 15.011,11.242 15.000,9.554 15.000 L 8.000 15.000 8.000 14.000 L 8.000 13.000 9.132 13.000 C 10.358 13.000,10.528 12.979,10.930 12.775 C 11.196 12.640,11.638 12.200,11.771 11.937 C 11.979 11.527,12.000 11.352,11.999 10.014 C 11.999 8.682,11.974 8.463,11.781 8.083 C 11.646 7.816,11.297 7.449,11.017 7.281 C 10.580 7.018,10.463 7.005,8.560 7.005 C 7.283 7.005,6.819 7.018,6.695 7.057 M14.695 7.057 C 14.466 7.129,14.256 7.299,14.128 7.516 C 14.036 7.672,14.020 7.746,14.020 8.003 C 14.020 8.271,14.034 8.329,14.141 8.503 C 14.288 8.741,14.577 8.946,14.820 8.982 L 14.998 9.009 15.009 12.658 L 15.020 16.306 15.141 16.503 C 15.543 17.156,16.457 17.156,16.859 16.503 L 16.980 16.306 16.980 12.003 L 16.980 7.700 16.872 7.516 C 16.740 7.293,16.533 7.128,16.290 7.055 C 16.050 6.983,14.928 6.984,14.695 7.057 " stroke="none" fill-rule="evenodd" fill="black"></path></svg>