<svg xmlns="http://www.w3.org/2000/svg" width="24" height="24" viewBox="0 0 24 24" fill="none" stroke="currentColor" stroke-width="2" stroke-linecap="round" stroke-linejoin="round"><path d="M6.477 7.073 C 5.785 7.254,5.184 7.886,5.039 8.586 C 5.011 8.721,5.000 9.270,5.008 10.128 L 5.020 11.460 5.133 11.730 L 5.245 12.000 5.133 12.270 L 5.020 12.540 5.008 13.872 C 4.994 15.320,5.008 15.468,5.202 15.877 C 5.348 16.186,5.771 16.623,6.070 16.775 C 6.479 16.982,6.632 17.000,8.000 17.000 C 9.368 17.000,9.521 16.982,9.930 16.775 C 10.196 16.640,10.638 16.200,10.771 15.937 C 10.989 15.508,11.006 15.349,10.992 13.905 C 10.980 12.624,10.976 12.572,10.885 12.340 C 10.768 12.040,10.768 11.959,10.885 11.660 C 10.977 11.428,10.980 11.378,10.992 10.115 C 11.005 8.695,10.983 8.480,10.782 8.083 C 10.551 7.628,10.022 7.203,9.523 7.073 C 9.134 6.972,6.866 6.972,6.477 7.073 M13.695 7.057 C 13.466 7.129,13.256 7.299,13.128 7.516 C 13.037 7.672,13.020 7.746,13.020 8.000 C 13.020 8.256,13.036 8.328,13.131 8.489 C 13.192 8.592,13.304 8.725,13.381 8.783 C 13.650 8.989,13.714 8.996,15.220 8.998 C 16.536 9.000,16.628 9.005,16.748 9.078 C 16.970 9.214,17.000 9.324,17.000 10.008 C 17.000 10.544,16.990 10.636,16.922 10.748 C 16.779 10.983,16.698 11.000,15.748 11.000 C 14.811 11.000,14.634 11.029,14.382 11.221 C 14.302 11.282,14.187 11.415,14.128 11.516 C 14.037 11.672,14.020 11.746,14.020 12.000 C 14.020 12.256,14.036 12.328,14.131 12.489 C 14.192 12.592,14.304 12.725,14.381 12.783 C 14.635 12.977,14.752 12.996,15.712 12.998 C 16.701 13.000,16.778 13.016,16.922 13.252 C 16.990 13.364,17.000 13.456,17.000 13.992 C 17.000 14.676,16.970 14.786,16.748 14.922 C 16.628 14.995,16.538 15.000,15.256 15.000 C 13.773 15.000,13.653 15.014,13.382 15.221 C 13.302 15.282,13.187 15.415,13.128 15.516 C 13.037 15.672,13.020 15.746,13.020 16.000 C 13.020 16.257,13.036 16.327,13.133 16.492 C 13.262 16.712,13.502 16.901,13.730 16.963 C 13.832 16.990,14.435 17.000,15.454 16.992 L 17.020 16.979 17.320 16.869 C 18.039 16.605,18.601 16.043,18.869 15.320 C 18.980 15.021,18.980 15.016,18.980 14.000 C 18.980 12.987,18.979 12.978,18.870 12.684 C 18.810 12.521,18.705 12.301,18.636 12.194 L 18.512 12.000 18.636 11.806 C 18.705 11.699,18.810 11.479,18.870 11.316 C 18.979 11.022,18.980 11.013,18.980 10.000 C 18.980 8.985,18.979 8.978,18.869 8.680 C 18.643 8.064,18.194 7.561,17.620 7.277 C 17.102 7.021,16.937 7.001,15.300 7.003 C 14.239 7.005,13.816 7.019,13.695 7.057 M9.000 10.000 L 9.000 11.000 8.000 11.000 L 7.000 11.000 7.000 10.000 L 7.000 9.000 8.000 9.000 L 9.000 9.000 9.000 10.000 M9.000 14.000 L 9.000 15.000 8.000 15.000 L 7.000 15.000 7.000 14.000 L 7.000 13.000 8.000 13.000 L 9.000 13.000 9.000 14.000 " stroke="none" fill-rule="evenodd" fill="black"></path></svg>