<svg xmlns="http://www.w3.org/2000/svg" width="24" height="24" viewBox="0 0 24 24" fill="none" stroke="currentColor" stroke-width="2" stroke-linecap="round" stroke-linejoin="round"><path d="M5.695 7.057 C 5.466 7.129,5.256 7.299,5.128 7.516 C 5.037 7.672,5.020 7.746,5.020 8.000 C 5.020 8.256,5.036 8.328,5.131 8.489 C 5.192 8.592,5.304 8.725,5.381 8.783 C 5.651 8.990,5.710 8.996,7.273 8.998 C 8.637 9.000,8.724 9.004,8.704 9.070 C 8.693 9.109,8.303 10.661,7.838 12.520 C 6.908 16.240,6.926 16.138,7.138 16.501 C 7.261 16.709,7.440 16.855,7.678 16.939 C 8.135 17.100,8.673 16.889,8.874 16.470 C 8.919 16.377,9.418 14.455,9.982 12.200 C 10.869 8.652,11.004 8.071,10.986 7.888 C 10.948 7.499,10.673 7.170,10.290 7.055 C 10.033 6.978,5.943 6.979,5.695 7.057 M13.695 7.057 C 13.466 7.129,13.256 7.299,13.128 7.516 L 13.020 7.700 13.009 9.911 C 13.001 11.337,13.012 12.176,13.039 12.275 C 13.099 12.498,13.289 12.739,13.508 12.867 L 13.700 12.980 15.350 12.992 L 17.000 13.003 17.000 14.002 L 17.000 15.000 16.005 15.000 L 15.010 15.000 14.983 14.830 C 14.869 14.117,13.995 13.771,13.405 14.205 C 12.945 14.544,12.873 15.235,13.225 15.929 C 13.361 16.199,13.800 16.638,14.070 16.775 C 14.479 16.982,14.632 17.000,16.000 17.000 C 17.368 17.000,17.521 16.982,17.930 16.775 C 18.196 16.640,18.638 16.200,18.771 15.937 C 18.979 15.527,19.000 15.352,18.999 14.014 C 18.999 12.682,18.974 12.463,18.781 12.083 C 18.646 11.816,18.297 11.449,18.017 11.281 C 17.609 11.035,17.405 11.005,16.130 11.002 L 15.000 11.000 15.000 10.000 L 15.000 9.000 16.590 8.998 C 18.300 8.996,18.346 8.991,18.619 8.783 C 18.696 8.725,18.808 8.592,18.869 8.489 C 18.964 8.328,18.980 8.256,18.980 8.000 C 18.980 7.746,18.963 7.672,18.872 7.516 C 18.740 7.293,18.533 7.128,18.290 7.055 C 18.033 6.978,13.943 6.979,13.695 7.057 " stroke="none" fill-rule="evenodd" fill="black"></path></svg>