<svg xmlns="http://www.w3.org/2000/svg" width="24" height="24" viewBox="0 0 24 24" fill="none" stroke="currentColor" stroke-width="2" stroke-linecap="round" stroke-linejoin="round"><path d="M7.695 3.057 C 7.466 3.129,7.256 3.299,7.128 3.516 C 7.037 3.672,7.020 3.746,7.020 4.000 C 7.020 4.256,7.036 4.328,7.131 4.489 C 7.256 4.702,7.449 4.864,7.670 4.943 C 7.791 4.986,8.493 4.997,11.273 4.998 C 14.542 5.000,14.724 5.004,14.704 5.070 C 14.693 5.109,13.853 8.461,12.838 12.520 C 10.811 20.629,10.918 20.125,11.138 20.501 C 11.261 20.709,11.440 20.855,11.678 20.939 C 12.135 21.100,12.673 20.889,12.874 20.470 C 12.919 20.377,13.868 16.655,14.982 12.200 C 17.204 3.313,17.082 3.875,16.865 3.504 C 16.740 3.292,16.529 3.127,16.290 3.055 C 16.029 2.976,7.946 2.979,7.695 3.057 " stroke="none" fill-rule="evenodd" fill="black"></path></svg>