<svg xmlns="http://www.w3.org/2000/svg" width="24" height="24" viewBox="0 0 24 24" fill="none" stroke="currentColor" stroke-width="2" stroke-linecap="round" stroke-linejoin="round"><path d="M7.723 2.047 C 7.647 2.068,7.512 2.137,7.423 2.200 C 7.182 2.368,5.181 4.397,5.095 4.560 C 5.043 4.659,5.021 4.787,5.021 5.000 C 5.020 5.258,5.036 5.327,5.133 5.492 C 5.338 5.842,5.705 6.029,6.105 5.988 C 6.368 5.961,6.523 5.879,6.788 5.629 L 7.000 5.428 7.000 7.210 L 7.000 8.991 6.610 9.008 C 6.174 9.027,5.994 9.095,5.772 9.326 C 5.599 9.507,5.512 9.732,5.512 10.000 C 5.512 10.405,5.719 10.724,6.100 10.905 L 6.300 10.999 8.000 10.999 L 9.700 10.999 9.900 10.905 C 10.281 10.724,10.488 10.405,10.488 10.000 C 10.488 9.732,10.401 9.507,10.228 9.326 C 10.006 9.095,9.826 9.027,9.391 9.008 L 9.002 8.991 8.991 5.845 L 8.980 2.700 8.872 2.516 C 8.635 2.113,8.163 1.920,7.723 2.047 M16.499 7.040 C 15.363 7.246,14.454 8.055,14.115 9.160 C 14.045 9.390,14.023 9.559,14.022 9.883 C 14.020 10.285,14.026 10.315,14.141 10.503 C 14.538 11.149,15.457 11.156,15.850 10.518 C 15.931 10.386,15.972 10.252,15.996 10.038 C 16.039 9.656,16.113 9.486,16.321 9.283 C 16.490 9.120,16.777 9.000,17.000 9.000 C 17.518 9.000,18.000 9.483,18.000 10.001 C 18.000 10.176,17.897 10.462,17.779 10.618 C 17.613 10.835,17.380 10.954,17.034 10.998 C 16.870 11.019,16.686 11.055,16.625 11.078 C 16.439 11.149,16.242 11.323,16.128 11.516 C 16.036 11.672,16.020 11.746,16.020 12.003 C 16.020 12.271,16.034 12.329,16.141 12.503 C 16.294 12.751,16.579 12.948,16.831 12.979 C 17.227 13.028,17.436 13.087,17.574 13.192 C 18.162 13.634,18.117 14.500,17.486 14.871 C 17.328 14.964,17.255 14.980,17.000 14.980 C 16.746 14.980,16.672 14.963,16.516 14.872 C 16.323 14.759,16.150 14.563,16.076 14.373 C 16.051 14.311,16.016 14.128,15.997 13.966 C 15.956 13.614,15.833 13.381,15.595 13.205 C 15.117 12.854,14.432 12.998,14.129 13.514 C 14.029 13.686,14.020 13.733,14.022 14.120 C 14.023 14.440,14.045 14.611,14.115 14.840 C 14.416 15.821,15.173 16.579,16.160 16.886 C 16.594 17.021,17.406 17.021,17.840 16.886 C 18.826 16.579,19.579 15.826,19.886 14.840 C 20.021 14.406,20.021 13.593,19.886 13.161 C 19.766 12.779,19.609 12.470,19.402 12.208 L 19.238 12.000 19.402 11.792 C 19.609 11.530,19.766 11.221,19.886 10.839 C 20.021 10.407,20.021 9.594,19.886 9.160 C 19.581 8.179,18.810 7.407,17.861 7.129 C 17.500 7.023,16.832 6.980,16.499 7.040 M7.499 13.040 C 6.363 13.246,5.454 14.055,5.115 15.160 C 5.045 15.390,5.023 15.559,5.022 15.883 C 5.020 16.285,5.026 16.315,5.141 16.503 C 5.537 17.147,6.457 17.156,6.849 16.520 C 6.927 16.392,6.971 16.249,6.999 16.031 C 7.049 15.637,7.114 15.485,7.318 15.287 C 7.714 14.903,8.305 14.911,8.700 15.306 C 8.879 15.485,9.000 15.766,9.000 15.997 C 8.999 16.141,8.853 16.435,8.561 16.880 C 8.352 17.198,8.056 17.517,6.740 18.840 C 5.876 19.709,5.136 20.483,5.095 20.560 C 5.043 20.659,5.021 20.787,5.021 21.000 C 5.020 21.255,5.036 21.328,5.128 21.484 C 5.253 21.697,5.450 21.859,5.684 21.942 C 5.918 22.024,10.099 22.025,10.330 21.943 C 10.551 21.864,10.744 21.702,10.869 21.489 C 10.964 21.328,10.980 21.256,10.980 21.000 C 10.980 20.746,10.963 20.672,10.872 20.516 C 10.813 20.415,10.698 20.282,10.618 20.221 C 10.366 20.029,10.188 20.000,9.266 20.000 L 8.425 20.000 9.144 19.270 C 9.697 18.708,9.930 18.438,10.155 18.100 C 10.532 17.532,10.817 16.947,10.925 16.520 C 11.276 15.131,10.316 13.554,8.861 13.129 C 8.500 13.023,7.832 12.980,7.499 13.040 " stroke="none" fill-rule="evenodd" fill="black"></path></svg>