<svg xmlns="http://www.w3.org/2000/svg" width="24" height="24" viewBox="0 0 24 24" fill="none" stroke="currentColor" stroke-width="2" stroke-linecap="round" stroke-linejoin="round"><path d="M12.723 3.047 C 12.647 3.068,12.512 3.137,12.423 3.200 C 12.175 3.373,7.179 8.400,7.095 8.560 C 7.043 8.659,7.021 8.788,7.021 9.000 C 7.020 9.258,7.036 9.327,7.133 9.492 C 7.263 9.714,7.502 9.901,7.736 9.965 C 7.939 10.019,8.267 9.989,8.445 9.899 C 8.519 9.862,9.349 9.064,10.290 8.127 L 11.999 6.422 12.010 13.364 L 12.020 20.306 12.141 20.503 C 12.543 21.156,13.457 21.156,13.859 20.503 L 13.980 20.306 13.980 12.003 L 13.980 3.700 13.872 3.516 C 13.635 3.113,13.163 2.920,12.723 3.047 " stroke="none" fill-rule="evenodd" fill="black"></path></svg>