<svg xmlns="http://www.w3.org/2000/svg" width="24" height="24" viewBox="0 0 24 24" fill="none" stroke="currentColor" stroke-width="2" stroke-linecap="round" stroke-linejoin="round"><path d="M9.695 7.057 C 9.466 7.129,9.256 7.299,9.128 7.516 L 9.020 7.700 9.008 9.456 C 8.996 11.350,9.005 11.460,9.202 11.877 C 9.348 12.186,9.771 12.623,10.070 12.775 C 10.472 12.979,10.643 13.000,11.867 13.000 L 12.997 13.000 13.008 14.653 L 13.020 16.306 13.141 16.503 C 13.543 17.156,14.457 17.156,14.859 16.503 L 14.980 16.306 14.980 12.003 L 14.980 7.700 14.871 7.514 C 14.479 6.848,13.521 6.848,13.129 7.514 L 13.020 7.700 13.008 9.350 L 12.997 11.000 12.000 11.000 L 11.003 11.000 10.992 9.350 L 10.980 7.700 10.872 7.516 C 10.628 7.101,10.150 6.915,9.695 7.057 " stroke="none" fill-rule="evenodd" fill="black"></path></svg>