<svg xmlns="http://www.w3.org/2000/svg" width="24" height="24" viewBox="0 0 24 24" fill="none" stroke="currentColor" stroke-width="2" stroke-linecap="round" stroke-linejoin="round"><path d="M4.640 7.069 C 4.492 7.121,4.265 7.325,3.347 8.236 C 2.734 8.843,2.185 9.421,2.127 9.520 C 2.037 9.672,2.020 9.747,2.020 10.000 C 2.020 10.257,2.036 10.327,2.133 10.492 C 2.340 10.844,2.705 11.029,3.112 10.987 C 3.360 10.962,3.595 10.834,3.820 10.601 L 3.980 10.436 4.000 13.371 L 4.020 16.306 4.141 16.503 C 4.543 17.156,5.457 17.156,5.859 16.503 L 5.980 16.306 5.991 12.086 C 6.003 7.327,6.021 7.628,5.698 7.304 C 5.412 7.018,5.030 6.933,4.640 7.069 M8.695 7.057 C 8.466 7.129,8.256 7.299,8.128 7.516 C 8.037 7.672,8.020 7.746,8.020 8.000 C 8.020 8.256,8.036 8.328,8.131 8.489 C 8.192 8.592,8.304 8.725,8.381 8.783 C 8.654 8.991,8.700 8.996,10.410 8.998 L 12.000 9.000 12.000 10.000 L 12.000 11.000 10.870 11.002 C 9.936 11.004,9.694 11.017,9.477 11.073 C 8.806 11.249,8.238 11.823,8.060 12.508 C 7.973 12.839,7.973 15.161,8.060 15.492 C 8.153 15.852,8.310 16.118,8.596 16.404 C 8.882 16.690,9.148 16.847,9.508 16.940 C 9.826 17.023,13.099 17.025,13.330 16.943 C 13.551 16.864,13.744 16.702,13.869 16.489 C 13.964 16.328,13.980 16.256,13.980 16.000 C 13.980 15.746,13.963 15.672,13.872 15.516 C 13.813 15.415,13.698 15.282,13.618 15.221 C 13.342 15.011,13.242 15.000,11.554 15.000 L 10.000 15.000 10.000 14.000 L 10.000 13.000 11.132 13.000 C 12.358 13.000,12.528 12.979,12.930 12.775 C 13.196 12.640,13.638 12.200,13.771 11.937 C 13.979 11.527,14.000 11.352,13.999 10.014 C 13.999 8.682,13.974 8.463,13.781 8.083 C 13.646 7.816,13.297 7.449,13.017 7.281 C 12.580 7.018,12.463 7.005,10.560 7.005 C 9.283 7.005,8.819 7.018,8.695 7.057 M16.695 7.057 C 16.466 7.129,16.256 7.299,16.128 7.516 C 16.037 7.672,16.020 7.746,16.020 8.000 C 16.020 8.256,16.036 8.328,16.131 8.489 C 16.192 8.592,16.304 8.725,16.381 8.783 C 16.650 8.989,16.714 8.996,18.220 8.998 C 19.536 9.000,19.628 9.005,19.748 9.078 C 19.970 9.214,20.000 9.324,20.000 10.008 C 20.000 10.544,19.990 10.636,19.922 10.748 C 19.779 10.983,19.698 11.000,18.748 11.000 C 17.811 11.000,17.634 11.029,17.382 11.221 C 17.302 11.282,17.187 11.415,17.128 11.516 C 17.037 11.672,17.020 11.746,17.020 12.000 C 17.020 12.256,17.036 12.328,17.131 12.489 C 17.192 12.592,17.304 12.725,17.381 12.783 C 17.635 12.977,17.752 12.996,18.712 12.998 C 19.701 13.000,19.778 13.016,19.922 13.252 C 19.990 13.364,20.000 13.456,20.000 13.992 C 20.000 14.676,19.970 14.786,19.748 14.922 C 19.628 14.995,19.538 15.000,18.256 15.000 C 16.773 15.000,16.653 15.014,16.382 15.221 C 16.302 15.282,16.187 15.415,16.128 15.516 C 16.037 15.672,16.020 15.746,16.020 16.000 C 16.020 16.257,16.036 16.327,16.133 16.492 C 16.262 16.712,16.502 16.901,16.730 16.963 C 16.832 16.990,17.435 17.000,18.454 16.992 L 20.020 16.979 20.320 16.869 C 21.039 16.605,21.601 16.043,21.869 15.320 C 21.980 15.021,21.980 15.016,21.980 14.000 C 21.980 12.987,21.979 12.978,21.870 12.684 C 21.810 12.521,21.705 12.301,21.636 12.194 L 21.512 12.000 21.636 11.806 C 21.705 11.699,21.810 11.479,21.870 11.316 C 21.979 11.022,21.980 11.013,21.980 10.000 C 21.980 8.985,21.979 8.978,21.869 8.680 C 21.643 8.064,21.194 7.561,20.620 7.277 C 20.102 7.021,19.937 7.001,18.300 7.003 C 17.239 7.005,16.816 7.019,16.695 7.057 " stroke="none" fill-rule="evenodd" fill="black"></path></svg>