<svg xmlns="http://www.w3.org/2000/svg" width="24" height="24" viewBox="0 0 24 24" fill="none" stroke="currentColor" stroke-width="2" stroke-linecap="round" stroke-linejoin="round"><path d="M6.477 7.073 C 5.785 7.254,5.184 7.886,5.039 8.586 C 5.011 8.721,5.000 9.270,5.008 10.128 L 5.020 11.460 5.133 11.730 L 5.245 12.000 5.133 12.270 L 5.020 12.540 5.008 13.872 C 4.994 15.320,5.008 15.468,5.202 15.877 C 5.348 16.186,5.771 16.623,6.070 16.775 C 6.479 16.982,6.632 17.000,8.000 17.000 C 9.368 17.000,9.521 16.982,9.930 16.775 C 10.196 16.640,10.638 16.200,10.771 15.937 C 10.989 15.508,11.006 15.349,10.992 13.905 C 10.980 12.624,10.976 12.572,10.885 12.340 C 10.768 12.040,10.768 11.959,10.885 11.660 C 10.977 11.428,10.980 11.378,10.992 10.115 C 11.005 8.695,10.983 8.480,10.782 8.083 C 10.551 7.628,10.022 7.203,9.523 7.073 C 9.134 6.972,6.866 6.972,6.477 7.073 M13.695 7.057 C 13.466 7.129,13.256 7.299,13.128 7.516 C 13.037 7.672,13.020 7.746,13.020 8.000 C 13.020 8.256,13.036 8.328,13.131 8.489 C 13.192 8.592,13.304 8.725,13.381 8.783 C 13.654 8.991,13.700 8.996,15.410 8.998 L 17.000 9.000 17.000 10.000 L 17.000 11.000 15.870 11.002 C 14.936 11.004,14.694 11.017,14.477 11.073 C 13.806 11.249,13.238 11.823,13.060 12.508 C 12.973 12.839,12.973 15.161,13.060 15.492 C 13.153 15.852,13.310 16.118,13.596 16.404 C 13.882 16.690,14.148 16.847,14.508 16.940 C 14.826 17.023,18.099 17.025,18.330 16.943 C 18.551 16.864,18.744 16.702,18.869 16.489 C 18.964 16.328,18.980 16.256,18.980 16.000 C 18.980 15.746,18.963 15.672,18.872 15.516 C 18.813 15.415,18.698 15.282,18.618 15.221 C 18.342 15.011,18.242 15.000,16.554 15.000 L 15.000 15.000 15.000 14.000 L 15.000 13.000 16.132 13.000 C 17.358 13.000,17.528 12.979,17.930 12.775 C 18.196 12.640,18.638 12.200,18.771 11.937 C 18.979 11.527,19.000 11.352,18.999 10.014 C 18.999 8.682,18.974 8.463,18.781 8.083 C 18.646 7.816,18.297 7.449,18.017 7.281 C 17.580 7.018,17.463 7.005,15.560 7.005 C 14.283 7.005,13.819 7.018,13.695 7.057 M9.000 10.000 L 9.000 11.000 8.000 11.000 L 7.000 11.000 7.000 10.000 L 7.000 9.000 8.000 9.000 L 9.000 9.000 9.000 10.000 M9.000 14.000 L 9.000 15.000 8.000 15.000 L 7.000 15.000 7.000 14.000 L 7.000 13.000 8.000 13.000 L 9.000 13.000 9.000 14.000 " stroke="none" fill-rule="evenodd" fill="black"></path></svg>