<svg xmlns="http://www.w3.org/2000/svg" width="24" height="24" viewBox="0 0 24 24" fill="none" stroke="currentColor" stroke-width="2" stroke-linecap="round" stroke-linejoin="round"><path d="M5.695 7.057 C 5.466 7.129,5.256 7.299,5.128 7.516 L 5.020 7.700 5.008 9.456 C 4.996 11.350,5.005 11.460,5.202 11.877 C 5.348 12.186,5.771 12.623,6.070 12.775 C 6.472 12.979,6.643 13.000,7.867 13.000 L 8.997 13.000 9.008 14.653 L 9.020 16.306 9.141 16.503 C 9.543 17.156,10.457 17.156,10.859 16.503 L 10.980 16.306 10.980 12.003 L 10.980 7.700 10.871 7.514 C 10.479 6.848,9.521 6.848,9.129 7.514 L 9.020 7.700 9.008 9.350 L 8.997 11.000 8.000 11.000 L 7.003 11.000 6.992 9.350 L 6.980 7.700 6.872 7.516 C 6.628 7.101,6.150 6.915,5.695 7.057 M14.477 7.073 C 13.806 7.249,13.238 7.823,13.060 8.508 C 13.009 8.702,13.000 9.237,13.000 12.000 C 13.000 15.547,12.996 15.478,13.225 15.930 C 13.361 16.199,13.801 16.639,14.070 16.775 C 14.479 16.982,14.632 17.000,16.000 17.000 C 17.368 17.000,17.521 16.982,17.930 16.775 C 18.196 16.640,18.638 16.200,18.771 15.937 C 18.979 15.527,19.000 15.352,18.999 14.014 C 18.999 12.682,18.974 12.463,18.781 12.083 C 18.646 11.816,18.297 11.449,18.017 11.281 C 17.609 11.035,17.405 11.005,16.130 11.002 L 15.000 11.000 15.000 10.000 L 15.000 9.000 15.995 9.000 L 16.991 9.000 17.017 9.175 C 17.053 9.417,17.243 9.699,17.465 9.839 C 18.102 10.243,18.930 9.826,18.988 9.072 C 19.011 8.775,18.927 8.370,18.782 8.083 C 18.551 7.628,18.022 7.203,17.523 7.073 C 17.134 6.972,14.866 6.972,14.477 7.073 M17.000 14.000 L 17.000 15.000 16.000 15.000 L 15.000 15.000 15.000 14.000 L 15.000 13.000 16.000 13.000 L 17.000 13.000 17.000 14.000 " stroke="none" fill-rule="evenodd" fill="black"></path></svg>