<svg xmlns="http://www.w3.org/2000/svg" width="24" height="24" viewBox="0 0 24 24" fill="none" stroke="currentColor" stroke-width="2" stroke-linecap="round" stroke-linejoin="round"><path d="M5.695 7.057 C 5.466 7.129,5.256 7.299,5.128 7.516 L 5.020 7.700 5.008 9.456 C 4.996 11.350,5.005 11.460,5.202 11.877 C 5.348 12.186,5.771 12.623,6.070 12.775 C 6.472 12.979,6.643 13.000,7.867 13.000 L 8.997 13.000 9.008 14.653 L 9.020 16.306 9.141 16.503 C 9.543 17.156,10.457 17.156,10.859 16.503 L 10.980 16.306 10.980 12.003 L 10.980 7.700 10.871 7.514 C 10.479 6.848,9.521 6.848,9.129 7.514 L 9.020 7.700 9.008 9.350 L 8.997 11.000 8.000 11.000 L 7.003 11.000 6.992 9.350 L 6.980 7.700 6.872 7.516 C 6.628 7.101,6.150 6.915,5.695 7.057 M14.477 7.073 C 13.785 7.254,13.184 7.886,13.039 8.586 C 13.011 8.721,13.000 9.270,13.008 10.128 L 13.020 11.460 13.133 11.730 L 13.245 12.000 13.133 12.270 L 13.020 12.540 13.008 13.872 C 12.994 15.320,13.008 15.468,13.202 15.877 C 13.348 16.186,13.771 16.623,14.070 16.775 C 14.479 16.982,14.632 17.000,16.000 17.000 C 17.368 17.000,17.521 16.982,17.930 16.775 C 18.196 16.640,18.638 16.200,18.771 15.937 C 18.989 15.508,19.006 15.349,18.992 13.905 C 18.980 12.624,18.976 12.572,18.885 12.340 C 18.768 12.040,18.768 11.959,18.885 11.660 C 18.977 11.428,18.980 11.378,18.992 10.115 C 19.005 8.695,18.983 8.480,18.782 8.083 C 18.551 7.628,18.022 7.203,17.523 7.073 C 17.134 6.972,14.866 6.972,14.477 7.073 M17.000 10.000 L 17.000 11.000 16.000 11.000 L 15.000 11.000 15.000 10.000 L 15.000 9.000 16.000 9.000 L 17.000 9.000 17.000 10.000 M17.000 14.000 L 17.000 15.000 16.000 15.000 L 15.000 15.000 15.000 14.000 L 15.000 13.000 16.000 13.000 L 17.000 13.000 17.000 14.000 " stroke="none" fill-rule="evenodd" fill="black"></path></svg>