<svg xmlns="http://www.w3.org/2000/svg" width="24" height="24" viewBox="0 0 24 24" fill="none" stroke="currentColor" stroke-width="2" stroke-linecap="round" stroke-linejoin="round"><path d="M7.695 7.057 C 7.466 7.129,7.256 7.299,7.128 7.516 C 7.036 7.672,7.020 7.746,7.020 8.003 C 7.020 8.271,7.034 8.329,7.141 8.503 C 7.288 8.741,7.577 8.946,7.820 8.982 L 7.998 9.009 8.009 12.658 L 8.020 16.306 8.141 16.503 C 8.543 17.156,9.457 17.156,9.859 16.503 L 9.980 16.306 9.980 12.003 L 9.980 7.700 9.872 7.516 C 9.740 7.293,9.533 7.128,9.290 7.055 C 9.050 6.983,7.928 6.984,7.695 7.057 M13.695 7.057 C 13.466 7.129,13.256 7.299,13.128 7.516 C 13.036 7.672,13.020 7.746,13.020 8.003 C 13.020 8.271,13.034 8.329,13.141 8.503 C 13.288 8.741,13.577 8.946,13.820 8.982 L 13.998 9.009 14.009 12.658 L 14.020 16.306 14.141 16.503 C 14.543 17.156,15.457 17.156,15.859 16.503 L 15.980 16.306 15.980 12.003 L 15.980 7.700 15.872 7.516 C 15.740 7.293,15.533 7.128,15.290 7.055 C 15.050 6.983,13.928 6.984,13.695 7.057 " stroke="none" fill-rule="evenodd" fill="black"></path></svg>