<svg xmlns="http://www.w3.org/2000/svg" width="24" height="24" viewBox="0 0 24 24" fill="none" stroke="currentColor" stroke-width="2" stroke-linecap="round" stroke-linejoin="round"><path d="M5.695 7.057 C 5.466 7.129,5.256 7.299,5.128 7.516 L 5.020 7.700 5.008 9.456 C 4.996 11.350,5.005 11.460,5.202 11.877 C 5.348 12.186,5.771 12.623,6.070 12.775 C 6.472 12.979,6.643 13.000,7.867 13.000 L 8.997 13.000 9.008 14.653 L 9.020 16.306 9.141 16.503 C 9.543 17.156,10.457 17.156,10.859 16.503 L 10.980 16.306 10.980 12.003 L 10.980 7.700 10.871 7.514 C 10.479 6.848,9.521 6.848,9.129 7.514 L 9.020 7.700 9.008 9.350 L 8.997 11.000 8.000 11.000 L 7.003 11.000 6.992 9.350 L 6.980 7.700 6.872 7.516 C 6.628 7.101,6.150 6.915,5.695 7.057 M13.695 7.057 C 13.466 7.129,13.256 7.299,13.128 7.516 C 13.037 7.672,13.020 7.746,13.020 8.000 C 13.020 8.256,13.036 8.328,13.131 8.489 C 13.192 8.592,13.304 8.725,13.381 8.783 C 13.651 8.990,13.710 8.996,15.273 8.998 C 16.637 9.000,16.724 9.004,16.704 9.070 C 16.693 9.109,16.303 10.661,15.838 12.520 C 14.908 16.240,14.926 16.138,15.138 16.501 C 15.261 16.709,15.440 16.855,15.678 16.939 C 16.135 17.100,16.673 16.889,16.874 16.470 C 16.919 16.377,17.418 14.455,17.982 12.200 C 18.869 8.652,19.004 8.071,18.986 7.888 C 18.948 7.499,18.673 7.170,18.290 7.055 C 18.033 6.978,13.943 6.979,13.695 7.057 " stroke="none" fill-rule="evenodd" fill="black"></path></svg>