<svg xmlns="http://www.w3.org/2000/svg" width="24" height="24" viewBox="0 0 24 24" fill="none" stroke="currentColor" stroke-width="2" stroke-linecap="round" stroke-linejoin="round"><path d="M6.477 7.073 C 5.785 7.254,5.184 7.886,5.039 8.586 C 5.011 8.721,5.000 9.270,5.008 10.128 L 5.020 11.460 5.133 11.730 L 5.245 12.000 5.133 12.270 L 5.020 12.540 5.008 13.872 C 4.994 15.320,5.008 15.468,5.202 15.877 C 5.348 16.186,5.771 16.623,6.070 16.775 C 6.479 16.982,6.632 17.000,8.000 17.000 C 9.368 17.000,9.521 16.982,9.930 16.775 C 10.196 16.640,10.638 16.200,10.771 15.937 C 10.989 15.508,11.006 15.349,10.992 13.905 C 10.980 12.624,10.976 12.572,10.885 12.340 C 10.768 12.040,10.768 11.959,10.885 11.660 C 10.977 11.428,10.980 11.378,10.992 10.115 C 11.005 8.695,10.983 8.480,10.782 8.083 C 10.551 7.628,10.022 7.203,9.523 7.073 C 9.134 6.972,6.866 6.972,6.477 7.073 M15.499 7.040 C 14.363 7.246,13.461 8.048,13.114 9.160 L 13.020 9.460 13.020 12.000 L 13.020 14.540 13.114 14.840 C 13.422 15.827,14.174 16.579,15.160 16.886 C 15.594 17.021,16.406 17.021,16.840 16.886 C 17.826 16.579,18.578 15.827,18.886 14.840 L 18.980 14.540 18.980 12.000 L 18.980 9.460 18.886 9.160 C 18.580 8.178,17.810 7.407,16.861 7.129 C 16.500 7.023,15.832 6.980,15.499 7.040 M9.000 10.000 L 9.000 11.000 8.000 11.000 L 7.000 11.000 7.000 10.000 L 7.000 9.000 8.000 9.000 L 9.000 9.000 9.000 10.000 M16.310 9.061 C 16.589 9.144,16.856 9.411,16.939 9.690 C 17.025 9.978,17.030 14.007,16.945 14.290 C 16.872 14.533,16.707 14.740,16.484 14.872 C 16.328 14.963,16.254 14.980,16.000 14.980 C 15.746 14.980,15.672 14.963,15.516 14.872 C 15.415 14.813,15.284 14.700,15.225 14.623 C 14.999 14.327,15.000 14.334,15.000 12.002 C 15.000 9.564,14.995 9.612,15.307 9.299 C 15.582 9.024,15.918 8.944,16.310 9.061 M9.000 14.000 L 9.000 15.000 8.000 15.000 L 7.000 15.000 7.000 14.000 L 7.000 13.000 8.000 13.000 L 9.000 13.000 9.000 14.000 " stroke="none" fill-rule="evenodd" fill="black"></path></svg>