<svg xmlns="http://www.w3.org/2000/svg" width="24" height="24" viewBox="0 0 24 24" fill="none" stroke="currentColor" stroke-width="2" stroke-linecap="round" stroke-linejoin="round"><path d="M9.695 7.057 C 9.466 7.129,9.256 7.299,9.128 7.516 C 9.037 7.672,9.020 7.746,9.020 8.000 C 9.020 8.256,9.036 8.328,9.131 8.489 C 9.192 8.592,9.304 8.725,9.381 8.783 C 9.651 8.990,9.710 8.996,11.273 8.998 C 12.637 9.000,12.724 9.004,12.704 9.070 C 12.693 9.109,12.303 10.661,11.838 12.520 C 10.908 16.240,10.926 16.138,11.138 16.501 C 11.261 16.709,11.440 16.855,11.678 16.939 C 12.135 17.100,12.673 16.889,12.874 16.470 C 12.919 16.377,13.418 14.455,13.982 12.200 C 14.869 8.652,15.004 8.071,14.986 7.888 C 14.948 7.499,14.673 7.170,14.290 7.055 C 14.033 6.978,9.943 6.979,9.695 7.057 " stroke="none" fill-rule="evenodd" fill="black"></path></svg>