<svg xmlns="http://www.w3.org/2000/svg" width="24" height="24" viewBox="0 0 24 24" fill="none" stroke="currentColor" stroke-width="2" stroke-linecap="round" stroke-linejoin="round"><path d="M6.477 7.073 C 5.785 7.254,5.184 7.886,5.039 8.586 C 5.011 8.721,5.000 9.270,5.008 10.128 L 5.020 11.460 5.133 11.730 L 5.245 12.000 5.133 12.270 L 5.020 12.540 5.008 13.872 C 4.994 15.320,5.008 15.468,5.202 15.877 C 5.348 16.186,5.771 16.623,6.070 16.775 C 6.479 16.982,6.632 17.000,8.000 17.000 C 9.368 17.000,9.521 16.982,9.930 16.775 C 10.196 16.640,10.638 16.200,10.771 15.937 C 10.989 15.508,11.006 15.349,10.992 13.905 C 10.980 12.624,10.976 12.572,10.885 12.340 C 10.768 12.040,10.768 11.959,10.885 11.660 C 10.977 11.428,10.980 11.378,10.992 10.115 C 11.005 8.695,10.983 8.480,10.782 8.083 C 10.551 7.628,10.022 7.203,9.523 7.073 C 9.134 6.972,6.866 6.972,6.477 7.073 M14.477 7.073 C 13.806 7.249,13.238 7.823,13.060 8.508 C 13.013 8.687,13.000 9.009,13.000 10.000 C 13.000 11.368,13.018 11.521,13.225 11.930 C 13.361 12.199,13.801 12.639,14.070 12.775 C 14.472 12.979,14.642 13.000,15.868 13.000 L 17.000 13.000 17.000 14.000 L 17.000 15.000 16.005 15.000 L 15.010 15.000 14.983 14.830 C 14.869 14.117,13.995 13.771,13.405 14.205 C 12.945 14.544,12.873 15.235,13.225 15.929 C 13.361 16.199,13.800 16.638,14.070 16.775 C 14.479 16.982,14.632 17.000,16.000 17.000 C 17.368 17.000,17.521 16.982,17.930 16.775 C 18.196 16.640,18.638 16.200,18.771 15.937 C 19.003 15.479,19.000 15.537,18.999 12.014 C 18.999 8.515,18.999 8.511,18.781 8.083 C 18.551 7.628,18.022 7.203,17.523 7.073 C 17.134 6.972,14.866 6.972,14.477 7.073 M9.000 10.000 L 9.000 11.000 8.000 11.000 L 7.000 11.000 7.000 10.000 L 7.000 9.000 8.000 9.000 L 9.000 9.000 9.000 10.000 M17.000 10.000 L 17.000 11.000 16.000 11.000 L 15.000 11.000 15.000 10.000 L 15.000 9.000 16.000 9.000 L 17.000 9.000 17.000 10.000 M9.000 14.000 L 9.000 15.000 8.000 15.000 L 7.000 15.000 7.000 14.000 L 7.000 13.000 8.000 13.000 L 9.000 13.000 9.000 14.000 " stroke="none" fill-rule="evenodd" fill="black"></path></svg>