<svg xmlns="http://www.w3.org/2000/svg" width="24" height="24" viewBox="0 0 24 24" fill="none" stroke="currentColor" stroke-width="2" stroke-linecap="round" stroke-linejoin="round"><path d="M5.695 7.057 C 5.466 7.129,5.256 7.299,5.128 7.516 C 5.037 7.672,5.020 7.746,5.020 8.000 C 5.020 8.256,5.036 8.328,5.131 8.489 C 5.192 8.592,5.304 8.725,5.381 8.783 C 5.654 8.991,5.700 8.996,7.410 8.998 L 9.000 9.000 9.000 10.000 L 9.000 11.000 7.870 11.002 C 6.936 11.004,6.694 11.017,6.477 11.073 C 5.806 11.249,5.238 11.823,5.060 12.508 C 4.973 12.839,4.973 15.161,5.060 15.492 C 5.153 15.852,5.310 16.118,5.596 16.404 C 5.882 16.690,6.148 16.847,6.508 16.940 C 6.826 17.023,10.099 17.025,10.330 16.943 C 10.551 16.864,10.744 16.702,10.869 16.489 C 10.964 16.328,10.980 16.256,10.980 16.000 C 10.980 15.746,10.963 15.672,10.872 15.516 C 10.813 15.415,10.698 15.282,10.618 15.221 C 10.342 15.011,10.242 15.000,8.554 15.000 L 7.000 15.000 7.000 14.000 L 7.000 13.000 8.132 13.000 C 9.358 13.000,9.528 12.979,9.930 12.775 C 10.196 12.640,10.638 12.200,10.771 11.937 C 10.979 11.527,11.000 11.352,10.999 10.014 C 10.999 8.682,10.974 8.463,10.781 8.083 C 10.646 7.816,10.297 7.449,10.017 7.281 C 9.580 7.018,9.463 7.005,7.560 7.005 C 6.283 7.005,5.819 7.018,5.695 7.057 M14.477 7.073 C 13.806 7.249,13.238 7.823,13.060 8.508 C 13.009 8.702,13.000 9.237,13.000 12.000 C 13.000 15.547,12.996 15.478,13.225 15.930 C 13.361 16.199,13.801 16.639,14.070 16.775 C 14.479 16.982,14.632 17.000,16.000 17.000 C 17.368 17.000,17.521 16.982,17.930 16.775 C 18.196 16.640,18.638 16.200,18.771 15.937 C 18.979 15.527,19.000 15.352,18.999 14.014 C 18.999 12.682,18.974 12.463,18.781 12.083 C 18.646 11.816,18.297 11.449,18.017 11.281 C 17.609 11.035,17.405 11.005,16.130 11.002 L 15.000 11.000 15.000 10.000 L 15.000 9.000 15.995 9.000 L 16.991 9.000 17.017 9.175 C 17.053 9.417,17.243 9.699,17.465 9.839 C 18.102 10.243,18.930 9.826,18.988 9.072 C 19.011 8.775,18.927 8.370,18.782 8.083 C 18.551 7.628,18.022 7.203,17.523 7.073 C 17.134 6.972,14.866 6.972,14.477 7.073 M17.000 14.000 L 17.000 15.000 16.000 15.000 L 15.000 15.000 15.000 14.000 L 15.000 13.000 16.000 13.000 L 17.000 13.000 17.000 14.000 " stroke="none" fill-rule="evenodd" fill="black"></path></svg>