<svg xmlns="http://www.w3.org/2000/svg" width="24" height="24" viewBox="0 0 24 24" fill="none" stroke="currentColor" stroke-width="2" stroke-linecap="round" stroke-linejoin="round"><path d="M5.695 7.057 C 5.466 7.129,5.256 7.299,5.128 7.516 C 5.037 7.672,5.020 7.746,5.020 8.000 C 5.020 8.256,5.036 8.328,5.131 8.489 C 5.192 8.592,5.304 8.725,5.381 8.783 C 5.650 8.989,5.714 8.996,7.220 8.998 C 8.536 9.000,8.628 9.005,8.748 9.078 C 8.970 9.214,9.000 9.324,9.000 10.008 C 9.000 10.544,8.990 10.636,8.922 10.748 C 8.779 10.983,8.698 11.000,7.748 11.000 C 6.811 11.000,6.634 11.029,6.382 11.221 C 6.302 11.282,6.187 11.415,6.128 11.516 C 6.037 11.672,6.020 11.746,6.020 12.000 C 6.020 12.256,6.036 12.328,6.131 12.489 C 6.192 12.592,6.304 12.725,6.381 12.783 C 6.635 12.977,6.752 12.996,7.712 12.998 C 8.701 13.000,8.778 13.016,8.922 13.252 C 8.990 13.364,9.000 13.456,9.000 13.992 C 9.000 14.676,8.970 14.786,8.748 14.922 C 8.628 14.995,8.538 15.000,7.256 15.000 C 5.773 15.000,5.653 15.014,5.382 15.221 C 5.302 15.282,5.187 15.415,5.128 15.516 C 5.037 15.672,5.020 15.746,5.020 16.000 C 5.020 16.257,5.036 16.327,5.133 16.492 C 5.262 16.712,5.502 16.901,5.730 16.963 C 5.832 16.990,6.435 17.000,7.454 16.992 L 9.020 16.979 9.320 16.869 C 10.039 16.605,10.601 16.043,10.869 15.320 C 10.980 15.021,10.980 15.016,10.980 14.000 C 10.980 12.987,10.979 12.978,10.870 12.684 C 10.810 12.521,10.705 12.301,10.636 12.194 L 10.512 12.000 10.636 11.806 C 10.705 11.699,10.810 11.479,10.870 11.316 C 10.979 11.022,10.980 11.013,10.980 10.000 C 10.980 8.985,10.979 8.978,10.869 8.680 C 10.643 8.064,10.194 7.561,9.620 7.277 C 9.102 7.021,8.937 7.001,7.300 7.003 C 6.239 7.005,5.816 7.019,5.695 7.057 M14.477 7.073 C 13.785 7.254,13.184 7.886,13.039 8.586 C 13.011 8.721,13.000 9.270,13.008 10.128 L 13.020 11.460 13.133 11.730 L 13.245 12.000 13.133 12.270 L 13.020 12.540 13.008 13.872 C 12.994 15.320,13.008 15.468,13.202 15.877 C 13.348 16.186,13.771 16.623,14.070 16.775 C 14.479 16.982,14.632 17.000,16.000 17.000 C 17.368 17.000,17.521 16.982,17.930 16.775 C 18.196 16.640,18.638 16.200,18.771 15.937 C 18.989 15.508,19.006 15.349,18.992 13.905 C 18.980 12.624,18.976 12.572,18.885 12.340 C 18.768 12.040,18.768 11.959,18.885 11.660 C 18.977 11.428,18.980 11.378,18.992 10.115 C 19.005 8.695,18.983 8.480,18.782 8.083 C 18.551 7.628,18.022 7.203,17.523 7.073 C 17.134 6.972,14.866 6.972,14.477 7.073 M17.000 10.000 L 17.000 11.000 16.000 11.000 L 15.000 11.000 15.000 10.000 L 15.000 9.000 16.000 9.000 L 17.000 9.000 17.000 10.000 M17.000 14.000 L 17.000 15.000 16.000 15.000 L 15.000 15.000 15.000 14.000 L 15.000 13.000 16.000 13.000 L 17.000 13.000 17.000 14.000 " stroke="none" fill-rule="evenodd" fill="black"></path></svg>