<svg xmlns="http://www.w3.org/2000/svg" width="24" height="24" viewBox="0 0 24 24" fill="none" stroke="currentColor" stroke-width="2" stroke-linecap="round" stroke-linejoin="round"><path d="M7.695 7.057 C 7.466 7.129,7.256 7.299,7.128 7.516 C 7.036 7.672,7.020 7.746,7.020 8.003 C 7.020 8.271,7.034 8.329,7.141 8.503 C 7.288 8.741,7.577 8.946,7.820 8.982 L 7.998 9.009 8.009 12.658 L 8.020 16.306 8.141 16.503 C 8.543 17.156,9.457 17.156,9.859 16.503 L 9.980 16.306 9.980 12.003 L 9.980 7.700 9.872 7.516 C 9.740 7.293,9.533 7.128,9.290 7.055 C 9.050 6.983,7.928 6.984,7.695 7.057 M13.477 7.073 C 12.806 7.249,12.238 7.823,12.060 8.508 C 12.013 8.687,12.000 9.009,12.000 10.000 C 12.000 11.368,12.018 11.521,12.225 11.930 C 12.361 12.199,12.801 12.639,13.070 12.775 C 13.472 12.979,13.642 13.000,14.868 13.000 L 16.000 13.000 16.000 14.000 L 16.000 15.000 15.005 15.000 L 14.010 15.000 13.983 14.830 C 13.869 14.117,12.995 13.771,12.405 14.205 C 11.945 14.544,11.873 15.235,12.225 15.929 C 12.361 16.199,12.800 16.638,13.070 16.775 C 13.479 16.982,13.632 17.000,15.000 17.000 C 16.368 17.000,16.521 16.982,16.930 16.775 C 17.196 16.640,17.638 16.200,17.771 15.937 C 18.003 15.479,18.000 15.537,17.999 12.014 C 17.999 8.515,17.999 8.511,17.781 8.083 C 17.551 7.628,17.022 7.203,16.523 7.073 C 16.134 6.972,13.866 6.972,13.477 7.073 M16.000 10.000 L 16.000 11.000 15.000 11.000 L 14.000 11.000 14.000 10.000 L 14.000 9.000 15.000 9.000 L 16.000 9.000 16.000 10.000 " stroke="none" fill-rule="evenodd" fill="black"></path></svg>