<svg xmlns="http://www.w3.org/2000/svg" width="24" height="24" viewBox="0 0 24 24" fill="none" stroke="currentColor" stroke-width="2" stroke-linecap="round" stroke-linejoin="round"><path d="M5.695 7.057 C 5.466 7.129,5.256 7.299,5.128 7.516 L 5.020 7.700 5.009 9.911 C 5.001 11.337,5.012 12.176,5.039 12.275 C 5.099 12.498,5.289 12.739,5.508 12.867 L 5.700 12.980 7.350 12.992 L 9.000 13.003 9.000 14.002 L 9.000 15.000 8.005 15.000 L 7.010 15.000 6.983 14.830 C 6.869 14.117,5.995 13.771,5.405 14.205 C 4.945 14.544,4.873 15.235,5.225 15.929 C 5.361 16.199,5.800 16.638,6.070 16.775 C 6.479 16.982,6.632 17.000,8.000 17.000 C 9.368 17.000,9.521 16.982,9.930 16.775 C 10.196 16.640,10.638 16.200,10.771 15.937 C 10.979 15.527,11.000 15.352,10.999 14.014 C 10.999 12.682,10.974 12.463,10.781 12.083 C 10.646 11.816,10.297 11.449,10.017 11.281 C 9.609 11.035,9.405 11.005,8.130 11.002 L 7.000 11.000 7.000 10.000 L 7.000 9.000 8.590 8.998 C 10.300 8.996,10.346 8.991,10.619 8.783 C 10.696 8.725,10.808 8.592,10.869 8.489 C 10.964 8.328,10.980 8.256,10.980 8.000 C 10.980 7.746,10.963 7.672,10.872 7.516 C 10.740 7.293,10.533 7.128,10.290 7.055 C 10.033 6.978,5.943 6.979,5.695 7.057 M13.695 7.057 C 13.466 7.129,13.256 7.299,13.128 7.516 L 13.020 7.700 13.008 9.456 C 12.996 11.350,13.005 11.460,13.202 11.877 C 13.348 12.186,13.771 12.623,14.070 12.775 C 14.472 12.979,14.643 13.000,15.867 13.000 L 16.997 13.000 17.008 14.653 L 17.020 16.306 17.141 16.503 C 17.543 17.156,18.457 17.156,18.859 16.503 L 18.980 16.306 18.980 12.003 L 18.980 7.700 18.871 7.514 C 18.479 6.848,17.521 6.848,17.129 7.514 L 17.020 7.700 17.008 9.350 L 16.997 11.000 16.000 11.000 L 15.003 11.000 14.992 9.350 L 14.980 7.700 14.872 7.516 C 14.628 7.101,14.150 6.915,13.695 7.057 " stroke="none" fill-rule="evenodd" fill="black"></path></svg>