<svg xmlns="http://www.w3.org/2000/svg" width="24" height="24" viewBox="0 0 24 24" fill="none" stroke="currentColor" stroke-width="2" stroke-linecap="round" stroke-linejoin="round"><path d="M6.695 7.057 C 6.466 7.129,6.256 7.299,6.128 7.516 L 6.020 7.700 6.009 9.911 C 6.001 11.337,6.012 12.176,6.039 12.275 C 6.099 12.498,6.289 12.739,6.508 12.867 L 6.700 12.980 8.350 12.992 L 10.000 13.003 10.000 14.002 L 10.000 15.000 9.005 15.000 L 8.010 15.000 7.983 14.830 C 7.869 14.117,6.995 13.771,6.405 14.205 C 5.945 14.544,5.873 15.235,6.225 15.929 C 6.361 16.199,6.800 16.638,7.070 16.775 C 7.479 16.982,7.632 17.000,9.000 17.000 C 10.368 17.000,10.521 16.982,10.930 16.775 C 11.196 16.640,11.638 16.200,11.771 15.937 C 11.979 15.527,12.000 15.352,11.999 14.014 C 11.999 12.682,11.974 12.463,11.781 12.083 C 11.646 11.816,11.297 11.449,11.017 11.281 C 10.609 11.035,10.405 11.005,9.130 11.002 L 8.000 11.000 8.000 10.000 L 8.000 9.000 9.590 8.998 C 11.300 8.996,11.346 8.991,11.619 8.783 C 11.696 8.725,11.808 8.592,11.869 8.489 C 11.964 8.328,11.980 8.256,11.980 8.000 C 11.980 7.746,11.963 7.672,11.872 7.516 C 11.740 7.293,11.533 7.128,11.290 7.055 C 11.033 6.978,6.943 6.979,6.695 7.057 M14.695 7.057 C 14.466 7.129,14.256 7.299,14.128 7.516 C 14.036 7.672,14.020 7.746,14.020 8.003 C 14.020 8.271,14.034 8.329,14.141 8.503 C 14.288 8.741,14.577 8.946,14.820 8.982 L 14.998 9.009 15.009 12.658 L 15.020 16.306 15.141 16.503 C 15.543 17.156,16.457 17.156,16.859 16.503 L 16.980 16.306 16.980 12.003 L 16.980 7.700 16.872 7.516 C 16.740 7.293,16.533 7.128,16.290 7.055 C 16.050 6.983,14.928 6.984,14.695 7.057 " stroke="none" fill-rule="evenodd" fill="black"></path></svg>