<svg xmlns="http://www.w3.org/2000/svg" width="24" height="24" viewBox="0 0 24 24" fill="none" stroke="currentColor" stroke-width="2" stroke-linecap="round" stroke-linejoin="round"><path d="M5.695 7.057 C 5.466 7.129,5.256 7.299,5.128 7.516 C 5.037 7.672,5.020 7.746,5.020 8.000 C 5.020 8.256,5.036 8.328,5.131 8.489 C 5.192 8.592,5.304 8.725,5.381 8.783 C 5.654 8.991,5.700 8.996,7.410 8.998 L 9.000 9.000 9.000 10.000 L 9.000 11.000 7.870 11.002 C 6.936 11.004,6.694 11.017,6.477 11.073 C 5.806 11.249,5.238 11.823,5.060 12.508 C 4.973 12.839,4.973 15.161,5.060 15.492 C 5.153 15.852,5.310 16.118,5.596 16.404 C 5.882 16.690,6.148 16.847,6.508 16.940 C 6.826 17.023,10.099 17.025,10.330 16.943 C 10.551 16.864,10.744 16.702,10.869 16.489 C 10.964 16.328,10.980 16.256,10.980 16.000 C 10.980 15.746,10.963 15.672,10.872 15.516 C 10.813 15.415,10.698 15.282,10.618 15.221 C 10.342 15.011,10.242 15.000,8.554 15.000 L 7.000 15.000 7.000 14.000 L 7.000 13.000 8.132 13.000 C 9.358 13.000,9.528 12.979,9.930 12.775 C 10.196 12.640,10.638 12.200,10.771 11.937 C 10.979 11.527,11.000 11.352,10.999 10.014 C 10.999 8.682,10.974 8.463,10.781 8.083 C 10.646 7.816,10.297 7.449,10.017 7.281 C 9.580 7.018,9.463 7.005,7.560 7.005 C 6.283 7.005,5.819 7.018,5.695 7.057 M13.695 7.057 C 13.466 7.129,13.256 7.299,13.128 7.516 C 13.037 7.672,13.020 7.746,13.020 8.000 C 13.020 8.256,13.036 8.328,13.131 8.489 C 13.192 8.592,13.304 8.725,13.381 8.783 C 13.650 8.989,13.714 8.996,15.220 8.998 C 16.536 9.000,16.628 9.005,16.748 9.078 C 16.970 9.214,17.000 9.324,17.000 10.008 C 17.000 10.544,16.990 10.636,16.922 10.748 C 16.779 10.983,16.698 11.000,15.748 11.000 C 14.811 11.000,14.634 11.029,14.382 11.221 C 14.302 11.282,14.187 11.415,14.128 11.516 C 14.037 11.672,14.020 11.746,14.020 12.000 C 14.020 12.256,14.036 12.328,14.131 12.489 C 14.192 12.592,14.304 12.725,14.381 12.783 C 14.635 12.977,14.752 12.996,15.712 12.998 C 16.701 13.000,16.778 13.016,16.922 13.252 C 16.990 13.364,17.000 13.456,17.000 13.992 C 17.000 14.676,16.970 14.786,16.748 14.922 C 16.628 14.995,16.538 15.000,15.256 15.000 C 13.773 15.000,13.653 15.014,13.382 15.221 C 13.302 15.282,13.187 15.415,13.128 15.516 C 13.037 15.672,13.020 15.746,13.020 16.000 C 13.020 16.257,13.036 16.327,13.133 16.492 C 13.262 16.712,13.502 16.901,13.730 16.963 C 13.832 16.990,14.435 17.000,15.454 16.992 L 17.020 16.979 17.320 16.869 C 18.039 16.605,18.601 16.043,18.869 15.320 C 18.980 15.021,18.980 15.016,18.980 14.000 C 18.980 12.987,18.979 12.978,18.870 12.684 C 18.810 12.521,18.705 12.301,18.636 12.194 L 18.512 12.000 18.636 11.806 C 18.705 11.699,18.810 11.479,18.870 11.316 C 18.979 11.022,18.980 11.013,18.980 10.000 C 18.980 8.985,18.979 8.978,18.869 8.680 C 18.643 8.064,18.194 7.561,17.620 7.277 C 17.102 7.021,16.937 7.001,15.300 7.003 C 14.239 7.005,13.816 7.019,13.695 7.057 " stroke="none" fill-rule="evenodd" fill="black"></path></svg>