<svg xmlns="http://www.w3.org/2000/svg" width="24" height="24" viewBox="0 0 24 24" fill="none" stroke="currentColor" stroke-width="2" stroke-linecap="round" stroke-linejoin="round"><path d="M7.695 7.057 C 7.466 7.129,7.256 7.299,7.128 7.516 C 7.036 7.672,7.020 7.746,7.020 8.003 C 7.020 8.271,7.034 8.329,7.141 8.503 C 7.288 8.741,7.577 8.946,7.820 8.982 L 7.998 9.009 8.009 12.658 L 8.020 16.306 8.141 16.503 C 8.543 17.156,9.457 17.156,9.859 16.503 L 9.980 16.306 9.980 12.003 L 9.980 7.700 9.872 7.516 C 9.740 7.293,9.533 7.128,9.290 7.055 C 9.050 6.983,7.928 6.984,7.695 7.057 M12.695 7.057 C 12.466 7.129,12.256 7.299,12.128 7.516 L 12.020 7.700 12.009 9.911 C 12.001 11.337,12.012 12.176,12.039 12.275 C 12.099 12.498,12.289 12.739,12.508 12.867 L 12.700 12.980 14.350 12.992 L 16.000 13.003 16.000 14.002 L 16.000 15.000 15.005 15.000 L 14.010 15.000 13.983 14.830 C 13.869 14.117,12.995 13.771,12.405 14.205 C 11.945 14.544,11.873 15.235,12.225 15.929 C 12.361 16.199,12.800 16.638,13.070 16.775 C 13.479 16.982,13.632 17.000,15.000 17.000 C 16.368 17.000,16.521 16.982,16.930 16.775 C 17.196 16.640,17.638 16.200,17.771 15.937 C 17.979 15.527,18.000 15.352,17.999 14.014 C 17.999 12.682,17.974 12.463,17.781 12.083 C 17.646 11.816,17.297 11.449,17.017 11.281 C 16.609 11.035,16.405 11.005,15.130 11.002 L 14.000 11.000 14.000 10.000 L 14.000 9.000 15.590 8.998 C 17.300 8.996,17.346 8.991,17.619 8.783 C 17.696 8.725,17.808 8.592,17.869 8.489 C 17.964 8.328,17.980 8.256,17.980 8.000 C 17.980 7.746,17.963 7.672,17.872 7.516 C 17.740 7.293,17.533 7.128,17.290 7.055 C 17.033 6.978,12.943 6.979,12.695 7.057 " stroke="none" fill-rule="evenodd" fill="black"></path></svg>