<svg xmlns="http://www.w3.org/2000/svg" width="24" height="24" viewBox="0 0 24 24" fill="none" stroke="currentColor" stroke-width="2" stroke-linecap="round" stroke-linejoin="round"><path d="M11.080 5.027 C 9.387 5.123,7.586 5.528,6.000 6.169 C 5.074 6.543,3.600 7.323,3.306 7.595 C 3.146 7.743,3.036 7.976,3.014 8.215 C 2.988 8.498,4.990 18.205,5.132 18.479 C 5.238 18.686,5.494 18.898,5.711 18.958 C 5.918 19.016,18.082 19.016,18.289 18.958 C 18.506 18.898,18.762 18.686,18.868 18.479 C 19.010 18.205,21.012 8.498,20.986 8.215 C 20.964 7.976,20.854 7.743,20.694 7.595 C 20.408 7.330,18.899 6.532,18.000 6.169 C 15.831 5.294,13.412 4.895,11.080 5.027 M13.620 7.101 C 14.832 7.236,16.013 7.528,17.110 7.964 C 17.780 8.231,18.891 8.792,18.870 8.852 C 18.860 8.878,18.477 10.723,18.018 12.950 L 17.184 17.000 12.000 17.000 L 6.815 17.000 5.981 12.950 C 5.523 10.723,5.140 8.878,5.130 8.852 C 5.120 8.823,5.353 8.684,5.717 8.502 C 7.489 7.614,9.240 7.150,11.300 7.024 C 11.735 6.997,13.090 7.042,13.620 7.101 M11.695 9.057 C 11.466 9.129,11.256 9.299,11.128 9.516 C 11.025 9.692,11.019 9.728,11.007 10.350 L 10.993 11.000 10.443 11.000 C 9.648 11.000,9.366 11.111,9.128 11.516 C 9.037 11.672,9.020 11.746,9.020 12.000 C 9.020 12.256,9.036 12.328,9.131 12.489 C 9.256 12.702,9.449 12.864,9.670 12.943 C 9.768 12.978,10.022 12.997,10.407 12.998 L 10.993 13.000 11.007 13.653 C 11.020 14.300,11.021 14.308,11.141 14.503 C 11.209 14.613,11.346 14.756,11.452 14.828 C 11.923 15.144,12.554 14.999,12.859 14.503 C 12.979 14.308,12.980 14.300,12.993 13.653 L 13.007 13.000 13.593 12.998 C 13.978 12.997,14.232 12.978,14.330 12.943 C 14.551 12.864,14.744 12.702,14.869 12.489 C 14.964 12.328,14.980 12.256,14.980 12.000 C 14.980 11.746,14.963 11.672,14.872 11.516 C 14.634 11.111,14.352 11.000,13.557 11.000 L 13.007 11.000 12.993 10.350 C 12.981 9.728,12.975 9.692,12.872 9.516 C 12.628 9.101,12.150 8.915,11.695 9.057 " stroke="none" fill-rule="evenodd" fill="black"></path></svg>