<svg xmlns="http://www.w3.org/2000/svg" width="24" height="24" viewBox="0 0 24 24" fill="none" stroke="currentColor" stroke-width="2" stroke-linecap="round" stroke-linejoin="round"><path d="M11.490 1.044 C 11.375 1.064,11.159 1.122,11.010 1.175 C 10.411 1.387,4.956 3.758,4.736 3.902 C 4.399 4.122,4.007 4.539,3.814 4.884 C 3.722 5.047,3.080 6.512,2.386 8.140 C 0.984 11.430,0.970 11.471,1.013 12.159 C 1.026 12.368,1.065 12.642,1.099 12.766 C 1.191 13.105,3.658 18.857,3.848 19.178 C 4.060 19.534,4.469 19.943,4.822 20.150 C 4.975 20.240,6.450 20.890,8.100 21.594 C 10.316 22.541,11.181 22.892,11.408 22.938 C 12.084 23.074,12.783 22.971,13.452 22.635 C 13.805 22.459,13.995 22.183,14.030 21.798 C 14.047 21.611,14.032 21.531,13.951 21.355 C 13.685 20.779,13.191 20.618,12.489 20.877 C 12.137 21.008,11.936 21.028,11.716 20.955 C 11.641 20.930,10.293 20.359,8.721 19.686 C 6.172 18.596,5.844 18.446,5.701 18.302 C 5.559 18.159,5.394 17.799,4.280 15.200 C 3.057 12.347,3.020 12.252,3.020 12.000 C 3.020 11.748,3.057 11.653,4.280 8.800 C 5.395 6.198,5.558 5.842,5.700 5.700 C 5.842 5.558,6.198 5.395,8.800 4.280 C 11.653 3.057,11.748 3.020,12.000 3.020 C 12.252 3.020,12.347 3.057,15.200 4.280 C 17.802 5.395,18.158 5.558,18.300 5.700 C 18.442 5.842,18.605 6.198,19.720 8.800 C 20.943 11.653,20.980 11.748,20.980 12.000 C 20.980 12.244,20.949 12.332,20.474 13.440 C 19.919 14.734,19.861 14.904,19.900 15.116 C 19.970 15.496,20.166 15.750,20.515 15.911 C 20.691 15.992,20.771 16.007,20.958 15.990 C 21.356 15.953,21.624 15.762,21.813 15.380 C 21.899 15.207,22.703 13.315,22.834 12.980 C 22.997 12.561,23.041 11.914,22.939 11.420 C 22.865 11.061,23.007 11.412,21.516 7.918 C 20.778 6.188,20.210 4.911,20.111 4.758 C 19.908 4.445,19.579 4.114,19.263 3.904 C 19.045 3.759,13.614 1.396,12.996 1.177 C 12.523 1.010,11.984 0.962,11.490 1.044 M15.695 18.057 C 15.466 18.129,15.256 18.299,15.128 18.516 C 15.037 18.672,15.020 18.746,15.020 19.000 C 15.020 19.256,15.036 19.328,15.131 19.489 C 15.256 19.702,15.449 19.864,15.670 19.943 C 15.891 20.022,22.109 20.022,22.330 19.943 C 22.551 19.864,22.744 19.702,22.869 19.489 C 22.964 19.328,22.980 19.256,22.980 19.000 C 22.980 18.746,22.963 18.672,22.872 18.516 C 22.740 18.293,22.533 18.128,22.290 18.055 C 22.030 17.977,15.945 17.979,15.695 18.057 " stroke="none" fill-rule="evenodd" fill="black"></path></svg>