<svg xmlns="http://www.w3.org/2000/svg" width="24" height="24" viewBox="0 0 24 24" fill="none" stroke="currentColor" stroke-width="2" stroke-linecap="round" stroke-linejoin="round"><path d="M11.503 1.042 C 11.174 1.098,10.969 1.177,9.023 2.011 C 7.773 2.546,7.099 2.856,7.007 2.937 C 6.826 3.096,6.681 3.409,6.680 3.643 C 6.679 4.238,7.190 4.727,7.754 4.671 C 7.878 4.658,8.579 4.378,9.840 3.836 C 11.663 3.053,11.751 3.020,12.000 3.020 C 12.252 3.020,12.347 3.057,15.200 4.280 C 17.802 5.395,18.158 5.558,18.300 5.700 C 18.442 5.842,18.605 6.198,19.720 8.800 C 20.943 11.653,20.980 11.748,20.980 12.000 C 20.980 12.249,20.947 12.337,20.164 14.160 C 19.622 15.421,19.342 16.122,19.329 16.246 C 19.273 16.813,19.759 17.321,20.357 17.320 C 20.591 17.319,20.904 17.175,21.063 16.993 C 21.144 16.901,21.441 16.258,21.939 15.097 C 22.857 12.957,22.865 12.936,22.940 12.574 C 23.045 12.067,22.994 11.411,22.816 10.972 C 22.262 9.605,20.237 4.953,20.111 4.758 C 19.908 4.445,19.579 4.114,19.263 3.904 C 19.045 3.759,13.614 1.396,12.996 1.177 C 12.528 1.011,11.983 0.962,11.503 1.042 M2.670 2.061 C 2.448 2.142,2.250 2.309,2.128 2.516 C 2.036 2.672,2.020 2.745,2.021 3.000 C 2.021 3.213,2.043 3.340,2.095 3.440 C 2.136 3.517,2.510 3.923,2.926 4.343 L 3.683 5.106 2.404 8.103 C 0.982 11.434,0.970 11.469,1.013 12.159 C 1.026 12.368,1.065 12.642,1.099 12.766 C 1.191 13.105,3.658 18.857,3.848 19.178 C 4.059 19.534,4.469 19.943,4.822 20.150 C 5.168 20.353,10.885 22.807,11.240 22.905 C 11.600 23.005,12.400 23.005,12.760 22.905 C 12.903 22.866,14.341 22.266,15.955 21.573 L 18.890 20.312 19.655 21.071 C 20.076 21.489,20.483 21.864,20.560 21.905 C 20.660 21.957,20.787 21.979,21.000 21.979 C 21.258 21.980,21.327 21.964,21.492 21.867 C 21.968 21.587,22.139 20.967,21.865 20.508 C 21.810 20.416,17.665 16.243,12.653 11.235 C 4.231 2.820,3.525 2.125,3.343 2.065 C 3.107 1.987,2.874 1.986,2.670 2.061 M17.329 18.803 C 17.291 18.836,12.459 20.897,12.284 20.955 C 12.111 21.012,11.889 21.012,11.716 20.955 C 11.641 20.930,10.293 20.359,8.721 19.686 C 6.172 18.596,5.844 18.446,5.701 18.302 C 5.559 18.159,5.394 17.799,4.280 15.200 C 3.057 12.347,3.020 12.252,3.020 12.000 C 3.020 11.748,3.056 11.657,4.116 9.186 L 5.212 6.632 11.285 12.705 C 14.625 16.045,17.345 18.789,17.329 18.803 " stroke="none" fill-rule="evenodd" fill="black"></path></svg>