<svg xmlns="http://www.w3.org/2000/svg" width="24" height="24" viewBox="0 0 24 24" fill="none" stroke="currentColor" stroke-width="2" stroke-linecap="round" stroke-linejoin="round"><path d="M2.670 2.061 C 2.448 2.142,2.250 2.309,2.128 2.516 C 2.037 2.672,2.020 2.746,2.020 3.000 C 2.020 3.254,2.036 3.328,2.127 3.480 C 2.186 3.579,2.648 4.072,3.154 4.576 L 4.073 5.492 3.847 5.639 C 2.916 6.242,2.304 7.140,2.082 8.228 C 1.647 10.366,3.057 12.478,5.211 12.914 C 5.546 12.982,5.557 12.987,5.502 13.065 C 5.378 13.242,5.160 13.846,5.082 14.228 C 4.702 16.095,5.727 17.984,7.512 18.704 C 8.471 19.090,9.529 19.090,10.488 18.704 C 11.004 18.496,11.351 18.271,11.810 17.846 L 11.999 17.670 12.256 17.910 C 12.760 18.381,13.357 18.707,14.051 18.890 C 14.503 19.008,15.438 19.016,15.880 18.904 C 16.221 18.818,16.721 18.629,16.902 18.518 L 17.024 18.443 18.682 20.104 C 19.594 21.018,20.421 21.813,20.520 21.873 C 20.673 21.964,20.746 21.980,21.000 21.980 C 21.257 21.980,21.327 21.964,21.492 21.867 C 21.968 21.587,22.139 20.967,21.865 20.508 C 21.810 20.416,17.665 16.243,12.653 11.235 C 4.231 2.820,3.525 2.125,3.343 2.065 C 3.107 1.987,2.874 1.986,2.670 2.061 M11.380 5.042 C 10.846 5.125,10.100 5.427,9.782 5.688 C 9.339 6.054,9.333 6.802,9.769 7.185 C 10.121 7.494,10.503 7.514,11.044 7.252 C 11.408 7.075,11.693 7.000,12.000 7.000 C 12.957 7.000,13.804 7.720,13.967 8.673 C 14.038 9.088,13.977 9.451,13.756 9.924 C 13.603 10.250,13.580 10.335,13.582 10.560 C 13.583 10.857,13.658 11.044,13.859 11.250 C 14.070 11.468,14.256 11.540,14.605 11.540 L 14.910 11.540 15.104 11.756 C 15.298 11.972,15.299 11.973,15.286 12.223 C 15.263 12.668,15.451 12.967,15.918 13.229 C 16.280 13.431,16.529 13.677,16.763 14.065 C 17.038 14.520,17.289 14.686,17.706 14.686 C 18.164 14.686,18.528 14.400,18.663 13.935 C 18.735 13.688,18.713 13.512,18.571 13.207 C 18.516 13.091,18.478 12.990,18.486 12.984 C 18.494 12.979,18.648 12.943,18.830 12.905 C 20.127 12.634,21.204 11.729,21.704 10.488 C 22.090 9.530,22.090 8.469,21.705 7.516 C 21.172 6.197,20.001 5.269,18.605 5.058 C 18.121 4.986,17.879 4.986,17.395 5.058 C 16.581 5.181,15.832 5.552,15.193 6.151 L 15.001 6.330 14.747 6.092 C 14.010 5.403,13.150 5.052,12.120 5.020 C 11.845 5.011,11.512 5.021,11.380 5.042 M18.523 7.073 C 19.262 7.266,19.850 7.924,19.967 8.690 C 20.067 9.343,19.873 9.933,19.403 10.404 C 19.002 10.807,18.547 11.000,18.000 11.000 C 17.485 11.000,17.038 10.822,16.653 10.465 C 15.323 9.229,16.189 7.005,18.000 7.005 C 18.143 7.005,18.378 7.036,18.523 7.073 M6.795 8.215 L 7.969 9.389 7.906 9.607 C 7.777 10.048,7.339 10.568,6.912 10.784 C 6.347 11.070,5.651 11.069,5.083 10.781 C 4.816 10.646,4.449 10.297,4.281 10.017 C 3.732 9.106,4.026 7.895,4.937 7.310 C 5.113 7.196,5.476 7.045,5.580 7.041 C 5.602 7.041,6.149 7.569,6.795 8.215 M9.523 13.073 C 10.262 13.266,10.850 13.924,10.967 14.690 C 11.067 15.343,10.873 15.933,10.403 16.404 C 10.002 16.807,9.547 17.000,9.000 17.000 C 8.485 17.000,8.038 16.822,7.653 16.465 C 6.323 15.229,7.189 13.005,9.000 13.005 C 9.143 13.005,9.378 13.036,9.523 13.073 M14.314 15.734 L 15.528 16.948 15.374 16.974 C 14.682 17.088,14.022 16.868,13.553 16.366 C 13.189 15.977,12.999 15.510,13.000 15.005 C 13.001 14.780,13.041 14.520,13.075 14.520 C 13.089 14.520,13.647 15.066,14.314 15.734 " stroke="none" fill-rule="evenodd" fill="black"></path></svg>