<svg xmlns="http://www.w3.org/2000/svg" width="24" height="24" viewBox="0 0 24 24" fill="none" stroke="currentColor" stroke-width="2" stroke-linecap="round" stroke-linejoin="round"><path d="M11.726 2.046 C 11.271 2.177,10.965 2.621,11.010 3.085 C 11.022 3.214,11.106 3.440,11.253 3.741 C 11.814 4.891,12.464 5.796,13.302 6.596 C 15.090 8.304,17.410 9.108,20.320 9.029 C 20.925 9.012,21.186 8.990,21.317 8.942 C 22.133 8.648,22.237 7.570,21.493 7.134 L 21.309 7.026 20.084 7.020 C 19.014 7.014,18.800 7.003,18.380 6.926 C 17.057 6.684,16.157 6.314,15.260 5.642 C 14.385 4.987,13.707 4.138,13.075 2.909 C 12.768 2.313,12.640 2.169,12.325 2.061 C 12.125 1.993,11.927 1.988,11.726 2.046 M16.670 2.061 C 16.448 2.142,16.250 2.309,16.128 2.516 C 16.036 2.672,16.020 2.745,16.021 3.000 C 16.021 3.213,16.043 3.341,16.095 3.440 C 16.194 3.627,18.294 5.739,18.508 5.866 C 18.968 6.138,19.587 5.968,19.867 5.492 C 19.964 5.327,19.980 5.257,19.980 5.000 C 19.980 4.747,19.963 4.672,19.873 4.520 C 19.815 4.421,19.266 3.843,18.653 3.236 C 17.680 2.271,17.515 2.124,17.343 2.066 C 17.108 1.987,16.875 1.985,16.670 2.061 M6.344 4.042 C 5.171 4.179,4.106 4.687,3.297 5.496 C 2.931 5.863,2.678 6.198,2.498 6.557 C 2.324 6.903,2.379 7.347,2.631 7.642 C 2.799 7.839,3.022 7.957,3.282 7.988 C 3.692 8.036,4.035 7.838,4.328 7.381 C 4.506 7.103,4.828 6.760,5.060 6.601 C 5.933 6.000,7.122 5.843,8.140 6.193 C 8.621 6.359,8.889 6.529,9.283 6.920 C 9.688 7.321,9.884 7.669,9.961 8.125 C 10.082 8.846,9.863 9.512,9.320 10.066 C 8.769 10.630,8.060 10.939,7.220 10.984 C 6.580 11.018,6.282 11.176,6.094 11.580 C 5.784 12.246,6.270 12.998,7.012 13.000 C 7.302 13.000,7.775 13.096,8.027 13.206 C 8.500 13.412,9.034 13.866,9.358 14.337 C 9.535 14.595,9.787 15.138,9.858 15.415 C 10.082 16.289,10.023 17.271,9.702 18.013 C 9.485 18.513,9.324 18.752,8.940 19.138 C 8.545 19.535,8.279 19.711,7.833 19.870 C 7.572 19.963,7.481 19.975,7.000 19.975 C 6.519 19.975,6.428 19.963,6.167 19.870 C 5.787 19.735,5.493 19.556,5.178 19.269 C 4.076 18.263,3.722 16.690,4.248 15.145 C 4.482 14.458,4.464 14.159,4.168 13.832 C 3.953 13.594,3.752 13.506,3.420 13.504 C 2.793 13.500,2.512 13.848,2.181 15.040 C 2.004 15.680,1.956 16.622,2.064 17.348 C 2.423 19.768,4.106 21.585,6.320 21.944 C 8.236 22.255,10.224 21.223,11.254 19.383 C 11.867 18.288,12.126 16.889,11.940 15.680 C 11.908 15.471,11.881 15.280,11.881 15.256 C 11.880 15.228,12.032 15.203,12.290 15.188 C 13.644 15.109,14.765 14.450,15.772 13.142 C 16.293 12.464,16.722 12.143,17.251 12.032 C 17.540 11.971,17.912 12.028,18.233 12.183 C 18.526 12.325,19.043 12.843,19.274 13.229 C 20.390 15.085,20.198 17.866,18.855 19.317 C 18.537 19.660,18.300 19.820,17.947 19.927 C 17.437 20.082,16.904 19.968,16.460 19.610 C 15.787 19.068,15.319 18.211,15.117 17.152 C 15.021 16.648,14.949 16.478,14.754 16.294 C 14.551 16.104,14.374 16.031,14.103 16.026 C 13.692 16.017,13.360 16.213,13.183 16.569 C 13.055 16.826,13.050 17.059,13.162 17.614 C 13.596 19.759,14.955 21.439,16.620 21.888 C 17.071 22.010,17.923 22.009,18.371 21.887 C 20.163 21.400,21.465 19.694,21.905 17.260 C 22.007 16.695,22.007 15.305,21.905 14.740 C 21.464 12.296,20.139 10.571,18.353 10.113 C 17.888 9.994,17.113 9.996,16.660 10.116 C 15.738 10.361,14.953 10.931,14.199 11.902 C 13.762 12.466,13.430 12.764,13.029 12.955 C 12.102 13.398,11.259 13.243,10.414 12.473 C 10.213 12.290,10.046 12.126,10.043 12.108 C 10.040 12.091,10.143 11.997,10.272 11.900 C 10.401 11.802,10.634 11.590,10.789 11.427 C 12.747 9.365,12.263 6.255,9.748 4.746 C 8.793 4.173,7.509 3.907,6.344 4.042 " stroke="none" fill-rule="evenodd" fill="black"></path></svg>