<svg xmlns="http://www.w3.org/2000/svg" width="24" height="24" viewBox="0 0 24 24" fill="none" stroke="currentColor" stroke-width="2" stroke-linecap="round" stroke-linejoin="round"><path d="M10.900 3.019 C 9.445 3.220,8.109 3.772,6.940 4.654 C 6.507 4.981,5.631 5.862,5.315 6.289 C 2.989 9.431,3.121 13.701,5.636 16.689 C 5.933 17.042,6.525 17.612,6.881 17.888 L 7.020 17.996 5.456 17.998 C 3.758 18.000,3.658 18.011,3.382 18.221 C 3.302 18.282,3.187 18.415,3.128 18.516 C 3.037 18.672,3.020 18.746,3.020 19.000 C 3.020 19.256,3.036 19.328,3.131 19.489 C 3.256 19.702,3.449 19.864,3.670 19.943 C 3.890 20.021,9.110 20.021,9.330 19.943 C 9.551 19.864,9.744 19.702,9.869 19.489 C 9.977 19.305,9.980 19.283,9.993 18.590 C 10.014 17.499,9.945 17.368,9.125 16.939 C 8.453 16.588,8.066 16.304,7.518 15.760 C 6.540 14.790,5.924 13.565,5.718 12.180 C 5.639 11.644,5.655 10.730,5.754 10.193 C 6.231 7.598,8.135 5.642,10.740 5.071 C 11.083 4.995,11.263 4.983,12.000 4.983 C 12.737 4.983,12.917 4.995,13.260 5.071 C 13.816 5.193,14.230 5.333,14.719 5.565 C 17.067 6.679,18.485 9.085,18.320 11.674 C 18.219 13.267,17.596 14.651,16.482 15.760 C 15.937 16.303,15.550 16.586,14.875 16.939 C 14.055 17.368,13.986 17.499,14.007 18.590 C 14.020 19.283,14.023 19.305,14.131 19.489 C 14.256 19.702,14.449 19.864,14.670 19.943 C 14.890 20.021,20.110 20.021,20.330 19.943 C 20.551 19.864,20.744 19.702,20.869 19.489 C 20.964 19.328,20.980 19.256,20.980 19.000 C 20.980 18.746,20.963 18.672,20.872 18.516 C 20.813 18.415,20.698 18.282,20.618 18.221 C 20.342 18.011,20.242 18.000,18.544 17.998 L 16.980 17.996 17.119 17.888 C 17.477 17.610,18.067 17.041,18.362 16.689 C 19.949 14.795,20.632 12.348,20.238 9.965 C 20.017 8.626,19.520 7.446,18.701 6.311 C 18.405 5.902,17.490 4.977,17.060 4.653 C 15.869 3.756,14.549 3.216,13.063 3.018 C 12.538 2.948,11.410 2.949,10.900 3.019 " stroke="none" fill-rule="evenodd" fill="black"></path></svg>