<svg xmlns="http://www.w3.org/2000/svg" width="24" height="24" viewBox="0 0 24 24" fill="none" stroke="currentColor" stroke-width="2" stroke-linecap="round" stroke-linejoin="round"><path d="M11.700 1.049 C 11.634 1.072,10.397 1.800,8.951 2.667 C 7.026 3.821,6.293 4.280,6.216 4.382 C 6.001 4.664,6.004 4.623,6.000 7.380 L 5.997 9.940 3.697 11.317 C 2.431 12.074,1.341 12.749,1.275 12.817 C 1.004 13.091,1.021 12.872,1.009 16.157 C 0.997 19.487,0.988 19.374,1.277 19.673 C 1.423 19.822,6.334 22.807,6.658 22.942 C 6.833 23.015,7.163 23.017,7.331 22.946 C 7.402 22.916,8.480 22.278,9.726 21.529 L 11.992 20.168 14.226 21.509 C 15.455 22.247,16.532 22.884,16.620 22.924 C 16.797 23.006,17.135 23.023,17.305 22.958 C 17.565 22.859,22.587 19.810,22.729 19.665 C 23.008 19.379,23.003 19.453,22.991 16.157 C 22.981 13.365,22.976 13.212,22.904 13.067 C 22.862 12.983,22.780 12.866,22.721 12.807 C 22.661 12.748,21.576 12.078,20.308 11.320 L 18.003 9.940 18.001 7.400 C 18.000 5.778,17.985 4.806,17.958 4.711 C 17.858 4.352,17.824 4.328,15.060 2.670 C 13.630 1.812,12.390 1.086,12.305 1.055 C 12.125 0.991,11.871 0.988,11.700 1.049 M13.486 4.062 C 14.242 4.516,14.902 4.914,14.954 4.947 C 15.046 5.006,15.008 5.032,13.524 5.922 L 12.000 6.836 10.481 5.928 C 9.646 5.429,8.963 5.011,8.963 5.000 C 8.963 4.989,9.642 4.573,10.471 4.076 C 11.584 3.409,11.997 3.181,12.046 3.205 C 12.082 3.223,12.730 3.609,13.486 4.062 M15.999 8.350 L 15.998 9.940 14.693 10.720 C 13.976 11.149,13.301 11.551,13.194 11.613 L 13.000 11.727 13.000 10.145 L 13.000 8.564 14.490 7.665 C 15.309 7.171,15.985 6.765,15.990 6.763 C 15.995 6.761,15.999 7.475,15.999 8.350 M9.523 7.686 L 11.000 8.571 11.000 10.149 L 11.000 11.727 10.806 11.613 C 10.699 11.551,10.024 11.149,9.307 10.720 L 8.002 9.940 8.001 8.370 C 8.001 7.506,8.010 6.800,8.023 6.800 C 8.036 6.800,8.711 7.199,9.523 7.686 M8.563 12.606 C 9.375 13.093,10.040 13.502,10.040 13.516 C 10.039 13.529,9.364 13.948,8.538 14.447 L 7.036 15.354 5.525 14.447 C 4.693 13.948,4.009 13.524,4.004 13.505 C 3.990 13.454,6.972 11.677,7.033 11.700 C 7.063 11.711,7.751 12.119,8.563 12.606 M18.534 12.586 C 19.329 13.062,19.994 13.464,20.012 13.479 C 20.029 13.495,19.358 13.917,18.522 14.419 L 17.000 15.331 15.479 14.420 C 14.643 13.918,13.967 13.499,13.978 13.489 C 14.074 13.393,16.993 11.685,17.034 11.700 C 17.064 11.712,17.739 12.110,18.534 12.586 M4.693 16.280 L 5.998 17.060 5.999 18.648 L 6.000 20.236 4.500 19.336 L 3.000 18.436 3.000 16.854 L 3.000 15.273 3.194 15.387 C 3.301 15.449,3.976 15.851,4.693 16.280 M14.693 16.280 L 15.998 17.060 15.999 18.648 L 16.000 20.236 14.500 19.336 L 13.000 18.436 13.000 16.854 L 13.000 15.273 13.194 15.387 C 13.301 15.449,13.976 15.851,14.693 16.280 M21.000 16.858 L 21.000 18.436 19.500 19.336 L 18.000 20.236 18.001 18.648 L 18.002 17.060 19.491 16.170 C 20.310 15.681,20.984 15.280,20.990 15.280 C 20.996 15.280,21.000 15.990,21.000 16.858 M11.000 16.878 L 11.000 18.436 9.500 19.336 L 8.000 20.236 8.002 18.668 L 8.004 17.100 9.472 16.212 C 10.279 15.723,10.954 15.323,10.970 15.322 C 10.987 15.321,11.000 16.021,11.000 16.878 " stroke="none" fill-rule="evenodd" fill="black"></path></svg>