<svg xmlns="http://www.w3.org/2000/svg" width="24" height="24" viewBox="0 0 24 24" fill="none" stroke="currentColor" stroke-width="2" stroke-linecap="round" stroke-linejoin="round"><path d="M11.820 2.025 C 11.776 2.036,11.686 2.065,11.620 2.091 C 11.375 2.186,3.415 6.683,3.297 6.793 C 3.230 6.856,3.140 6.978,3.097 7.064 C 3.022 7.215,3.020 7.365,3.009 11.940 C 2.997 17.195,2.979 16.844,3.268 17.164 C 3.371 17.278,4.441 17.898,7.549 19.646 C 11.612 21.931,11.698 21.977,11.939 21.993 C 12.373 22.020,12.737 21.794,12.924 21.383 C 12.995 21.228,12.998 21.012,13.000 16.900 L 13.002 12.580 15.977 10.910 C 17.613 9.992,18.962 9.240,18.974 9.240 C 18.986 9.240,19.002 9.930,19.008 10.773 L 19.020 12.306 19.141 12.503 C 19.543 13.156,20.457 13.156,20.859 12.503 L 20.980 12.306 20.980 9.763 C 20.980 7.329,20.977 7.213,20.903 7.064 C 20.860 6.978,20.770 6.856,20.703 6.793 C 20.599 6.696,12.706 2.230,12.392 2.091 C 12.265 2.035,11.935 1.997,11.820 2.025 M15.017 5.846 C 16.625 6.750,17.944 7.493,17.949 7.497 C 17.971 7.515,12.054 10.820,12.000 10.820 C 11.893 10.820,6.037 7.505,6.090 7.475 C 9.751 5.406,11.993 4.165,12.037 4.182 C 12.068 4.193,13.409 4.942,15.017 5.846 M8.023 10.910 L 10.998 12.580 10.999 15.931 L 11.000 19.282 10.850 19.204 C 10.768 19.161,9.422 18.407,7.860 17.527 L 5.020 15.928 5.010 12.584 C 5.004 10.745,5.011 9.240,5.024 9.240 C 5.037 9.240,6.387 9.992,8.023 10.910 M18.670 14.061 C 18.448 14.142,18.250 14.309,18.128 14.516 C 18.036 14.672,18.020 14.745,18.021 15.000 C 18.021 15.213,18.043 15.340,18.096 15.440 C 18.136 15.517,18.486 15.900,18.873 16.290 L 19.577 17.000 17.235 17.000 C 14.693 17.000,14.670 17.002,14.382 17.221 C 14.302 17.282,14.187 17.415,14.128 17.516 C 14.037 17.672,14.020 17.746,14.020 18.000 C 14.020 18.256,14.036 18.328,14.131 18.489 C 14.256 18.702,14.449 18.864,14.670 18.943 C 14.789 18.985,15.316 18.997,17.199 18.998 L 19.577 19.000 18.873 19.710 C 18.486 20.101,18.139 20.481,18.101 20.555 C 17.872 21.008,18.056 21.601,18.508 21.867 C 18.673 21.964,18.742 21.980,19.000 21.979 C 19.212 21.979,19.341 21.957,19.440 21.905 C 19.517 21.865,20.306 21.109,21.194 20.226 C 22.957 18.472,22.999 18.420,22.999 18.000 C 22.999 17.578,22.960 17.530,21.175 15.756 C 19.716 14.307,19.519 14.124,19.343 14.066 C 19.108 13.987,18.875 13.986,18.670 14.061 " stroke="none" fill-rule="evenodd" fill="black"></path></svg>