<svg xmlns="http://www.w3.org/2000/svg" width="24" height="24" viewBox="0 0 24 24" fill="none" stroke="currentColor" stroke-width="2" stroke-linecap="round" stroke-linejoin="round"><path d="M6.499 2.043 C 5.383 2.230,4.461 3.048,4.114 4.160 L 4.020 4.460 4.020 7.383 L 4.020 10.306 4.141 10.503 C 4.543 11.156,5.457 11.156,5.859 10.503 L 5.980 10.306 6.000 7.523 C 6.022 4.404,6.004 4.591,6.321 4.283 C 6.622 3.992,6.514 4.000,9.947 4.000 L 13.000 4.000 13.000 5.632 C 13.000 7.399,13.010 7.507,13.225 7.930 C 13.361 8.199,13.801 8.639,14.070 8.775 C 14.493 8.989,14.601 9.000,16.365 9.000 L 17.993 9.000 18.007 9.653 C 18.020 10.300,18.021 10.308,18.141 10.503 C 18.543 11.156,19.457 11.156,19.859 10.503 L 19.980 10.306 19.992 9.065 C 20.003 7.982,19.996 7.800,19.937 7.641 C 19.881 7.488,19.460 7.048,17.245 4.826 C 15.152 2.726,14.579 2.172,14.420 2.096 L 14.220 2.001 10.460 2.005 C 8.392 2.007,6.609 2.025,6.499 2.043 M15.800 6.220 L 16.579 7.000 15.790 7.000 L 15.000 7.000 15.000 6.220 C 15.000 5.791,15.005 5.440,15.010 5.440 C 15.016 5.440,15.371 5.791,15.800 6.220 M2.695 13.057 C 2.466 13.129,2.256 13.299,2.128 13.516 C 2.037 13.672,2.020 13.746,2.020 14.000 C 2.020 14.256,2.036 14.328,2.131 14.489 C 2.256 14.702,2.449 14.864,2.670 14.943 C 2.888 15.021,6.112 15.021,6.330 14.943 C 6.551 14.864,6.744 14.702,6.869 14.489 C 6.964 14.328,6.980 14.256,6.980 14.000 C 6.980 13.746,6.963 13.672,6.872 13.516 C 6.740 13.293,6.533 13.128,6.290 13.055 C 6.035 12.978,2.941 12.980,2.695 13.057 M10.240 13.037 C 9.791 13.177,9.512 13.546,9.512 14.000 C 9.512 14.405,9.719 14.724,10.100 14.905 L 10.300 14.999 12.000 14.999 L 13.700 14.999 13.900 14.905 C 14.281 14.724,14.488 14.405,14.488 14.000 C 14.488 13.615,14.293 13.297,13.940 13.106 C 13.784 13.022,13.740 13.020,12.060 13.013 C 11.114 13.009,10.295 13.019,10.240 13.037 M17.695 13.057 C 17.466 13.129,17.256 13.299,17.128 13.516 C 17.037 13.672,17.020 13.746,17.020 14.000 C 17.020 14.256,17.036 14.328,17.131 14.489 C 17.256 14.702,17.449 14.864,17.670 14.943 C 17.888 15.021,21.112 15.021,21.330 14.943 C 21.551 14.864,21.744 14.702,21.869 14.489 C 21.964 14.328,21.980 14.256,21.980 14.000 C 21.980 13.746,21.963 13.672,21.872 13.516 C 21.740 13.293,21.533 13.128,21.290 13.055 C 21.035 12.978,17.941 12.980,17.695 13.057 M4.695 17.057 C 4.466 17.129,4.256 17.299,4.128 17.516 L 4.020 17.700 4.020 18.620 C 4.020 19.473,4.027 19.562,4.114 19.840 C 4.422 20.827,5.173 21.578,6.160 21.886 L 6.460 21.980 12.000 21.980 L 17.540 21.980 17.840 21.886 C 18.827 21.578,19.578 20.827,19.886 19.840 C 19.973 19.562,19.980 19.473,19.980 18.620 L 19.980 17.700 19.871 17.514 C 19.479 16.848,18.521 16.848,18.129 17.514 C 18.023 17.695,18.019 17.722,17.997 18.480 C 17.984 18.934,17.955 19.307,17.927 19.373 C 17.846 19.567,17.675 19.760,17.484 19.872 L 17.300 19.980 12.000 19.980 L 6.700 19.980 6.516 19.872 C 6.326 19.760,6.155 19.568,6.072 19.373 C 6.043 19.305,6.015 18.947,6.002 18.480 C 5.981 17.724,5.977 17.694,5.872 17.516 C 5.628 17.101,5.150 16.915,4.695 17.057 " stroke="none" fill-rule="evenodd" fill="black"></path></svg>