<svg xmlns="http://www.w3.org/2000/svg" width="24" height="24" viewBox="0 0 24 24" fill="none" stroke="currentColor" stroke-width="2" stroke-linecap="round" stroke-linejoin="round"><path d="M2.670 2.061 C 2.448 2.142,2.250 2.309,2.128 2.516 C 2.036 2.672,2.020 2.745,2.021 3.000 C 2.021 3.213,2.043 3.341,2.095 3.440 C 2.136 3.517,2.638 4.052,3.212 4.629 L 4.256 5.678 4.130 5.829 C 3.853 6.160,3.347 6.956,3.085 7.473 C 2.618 8.397,2.311 9.353,2.113 10.501 C 1.994 11.194,1.982 12.742,2.090 13.409 C 2.565 16.341,4.074 18.720,6.480 20.327 C 8.095 21.405,10.024 21.996,11.942 21.999 C 12.706 22.000,13.173 21.838,13.645 21.405 C 13.960 21.116,14.092 20.931,14.237 20.574 C 14.376 20.231,14.405 20.075,14.406 19.666 C 14.407 18.915,14.037 18.244,13.373 17.793 C 12.991 17.533,12.866 16.955,13.100 16.526 C 13.309 16.144,13.613 16.001,14.220 16.000 L 14.580 16.000 17.460 18.883 C 19.081 20.505,20.419 21.812,20.520 21.873 C 20.673 21.964,20.746 21.980,21.000 21.980 C 21.257 21.980,21.327 21.964,21.492 21.867 C 21.968 21.587,22.139 20.967,21.865 20.508 C 21.810 20.416,17.665 16.243,12.653 11.235 C 4.231 2.820,3.525 2.125,3.343 2.065 C 3.107 1.987,2.874 1.986,2.670 2.061 M11.340 2.024 C 10.057 2.152,9.099 2.408,7.900 2.944 C 7.388 3.172,7.168 3.361,7.066 3.660 C 6.982 3.906,6.982 4.094,7.066 4.340 C 7.203 4.741,7.655 5.033,8.074 4.991 C 8.180 4.980,8.485 4.873,8.780 4.741 C 10.312 4.061,11.681 3.867,13.315 4.100 C 16.646 4.575,19.316 6.906,19.880 9.831 C 20.166 11.314,19.922 12.244,19.032 13.057 C 18.877 13.198,18.607 13.392,18.431 13.487 C 17.778 13.842,17.607 14.042,17.570 14.495 C 17.522 15.103,18.039 15.609,18.649 15.550 C 19.070 15.510,20.149 14.828,20.641 14.292 C 21.355 13.513,21.785 12.652,21.946 11.680 C 21.992 11.399,22.003 11.144,21.987 10.700 C 21.940 9.428,21.641 8.319,21.024 7.137 C 19.618 4.444,16.748 2.533,13.460 2.100 C 12.996 2.039,11.666 1.991,11.340 2.024 M11.940 5.574 C 11.489 5.723,11.042 6.063,10.800 6.441 C 10.412 7.045,10.410 7.953,10.797 8.555 C 11.179 9.151,11.799 9.492,12.500 9.492 C 13.052 9.492,13.469 9.326,13.869 8.948 C 14.299 8.541,14.488 8.100,14.488 7.500 C 14.488 6.690,14.071 6.043,13.320 5.684 C 13.036 5.548,12.996 5.540,12.560 5.531 C 12.262 5.525,12.044 5.540,11.940 5.574 M6.548 7.968 L 7.396 8.816 7.163 9.027 C 6.710 9.437,6.512 9.884,6.512 10.500 C 6.512 11.100,6.701 11.541,7.131 11.948 C 7.539 12.334,7.951 12.494,8.520 12.490 C 9.116 12.485,9.560 12.287,9.973 11.841 L 10.188 11.608 11.502 12.922 L 12.815 14.235 12.697 14.286 C 12.279 14.467,11.715 14.957,11.441 15.379 C 11.241 15.686,11.064 16.161,10.999 16.572 C 10.861 17.427,11.164 18.387,11.773 19.028 C 11.930 19.194,12.136 19.382,12.229 19.446 C 12.375 19.546,12.400 19.584,12.400 19.702 C 12.400 19.945,12.300 20.000,11.862 20.000 C 10.803 20.000,9.622 19.720,8.580 19.222 C 7.722 18.812,7.103 18.381,6.425 17.723 C 5.717 17.035,5.250 16.388,4.819 15.500 C 3.719 13.234,3.734 10.649,4.862 8.397 C 5.068 7.985,5.617 7.120,5.672 7.120 C 5.687 7.120,6.081 7.502,6.548 7.968 M15.940 8.574 C 15.489 8.723,15.042 9.063,14.800 9.441 C 14.412 10.045,14.410 10.953,14.797 11.555 C 15.179 12.151,15.799 12.492,16.500 12.492 C 17.052 12.492,17.469 12.326,17.869 11.948 C 18.299 11.541,18.488 11.100,18.488 10.500 C 18.488 9.690,18.071 9.043,17.320 8.684 C 17.036 8.548,16.996 8.540,16.560 8.531 C 16.262 8.525,16.044 8.540,15.940 8.574 " stroke="none" fill-rule="evenodd" fill="black"></path></svg>