<svg xmlns="http://www.w3.org/2000/svg" width="24" height="24" viewBox="0 0 24 24" fill="none" stroke="currentColor" stroke-width="2" stroke-linecap="round" stroke-linejoin="round"><path d="M2.670 2.061 C 2.448 2.142,2.250 2.309,2.128 2.516 C 2.036 2.672,2.020 2.745,2.021 3.000 C 2.021 3.214,2.043 3.340,2.096 3.440 C 2.137 3.517,2.403 3.816,2.687 4.103 L 3.203 4.627 2.972 4.770 C 2.682 4.950,2.446 5.192,2.265 5.494 C 1.987 5.957,2.000 5.644,2.000 12.009 C 2.000 18.253,1.989 17.945,2.224 18.407 C 2.343 18.642,2.661 18.995,2.905 19.163 C 3.176 19.350,3.624 19.480,3.994 19.480 C 4.289 19.480,4.396 19.453,5.327 19.144 C 7.708 18.354,9.332 18.059,11.563 18.013 C 13.436 17.974,14.896 18.126,16.657 18.545 L 17.260 18.689 18.840 20.260 C 19.709 21.124,20.483 21.864,20.560 21.905 C 20.659 21.957,20.787 21.979,21.000 21.979 C 21.258 21.980,21.327 21.964,21.492 21.867 C 21.968 21.587,22.139 20.967,21.865 20.508 C 21.810 20.416,17.665 16.243,12.653 11.235 C 4.231 2.820,3.525 2.125,3.343 2.065 C 3.107 1.987,2.874 1.986,2.670 2.061 M19.583 4.525 C 19.497 4.545,19.029 4.695,18.543 4.857 C 16.947 5.392,15.743 5.665,14.120 5.859 C 13.460 5.939,12.085 5.993,11.359 5.970 C 10.820 5.952,10.762 5.957,10.567 6.041 C 10.320 6.147,10.075 6.406,10.007 6.632 C 9.860 7.123,10.071 7.632,10.511 7.845 C 10.761 7.966,11.518 8.003,12.778 7.955 C 14.959 7.872,16.904 7.513,19.040 6.800 C 19.491 6.649,19.891 6.514,19.929 6.499 C 19.995 6.473,19.999 6.765,20.009 11.889 L 20.020 17.306 20.141 17.503 C 20.543 18.156,21.457 18.156,21.859 17.503 L 21.980 17.306 21.991 11.792 C 22.000 6.927,21.994 6.246,21.939 6.010 C 21.700 4.977,20.603 4.286,19.583 4.525 M4.834 6.760 L 5.599 7.020 10.170 11.594 C 14.217 15.645,14.724 16.166,14.600 16.145 C 13.708 15.998,10.944 15.967,9.840 16.092 C 7.935 16.307,6.180 16.708,4.483 17.316 C 4.232 17.406,4.021 17.480,4.013 17.480 C 4.006 17.480,4.000 15.003,4.000 11.977 C 4.000 8.892,4.015 6.479,4.035 6.487 C 4.054 6.494,4.414 6.617,4.834 6.760 " stroke="none" fill-rule="evenodd" fill="black"></path></svg>