<svg xmlns="http://www.w3.org/2000/svg" width="24" height="24" viewBox="0 0 24 24" fill="none" stroke="currentColor" stroke-width="2" stroke-linecap="round" stroke-linejoin="round"><path d="M2.670 2.061 C 2.448 2.142,2.250 2.309,2.128 2.516 C 2.037 2.672,2.020 2.746,2.020 3.000 C 2.020 3.254,2.036 3.327,2.127 3.480 C 2.186 3.579,2.857 4.281,3.617 5.040 L 5.000 6.420 5.000 7.090 L 5.000 7.760 4.242 9.276 C 3.463 10.833,3.266 11.311,3.110 12.014 C 3.020 12.418,3.020 12.436,3.020 15.980 L 3.020 19.540 3.114 19.840 C 3.418 20.816,4.149 21.554,5.140 21.886 L 5.420 21.980 11.820 21.992 C 16.357 22.000,18.295 21.990,18.478 21.959 C 18.942 21.880,19.463 21.657,19.796 21.395 L 19.892 21.319 20.156 21.573 C 20.519 21.923,20.633 21.978,21.000 21.979 C 21.258 21.980,21.327 21.964,21.492 21.867 C 21.968 21.587,22.139 20.967,21.865 20.508 C 21.810 20.416,17.665 16.243,12.653 11.235 C 4.231 2.820,3.525 2.125,3.343 2.065 C 3.107 1.987,2.874 1.986,2.670 2.061 M7.460 2.059 C 6.626 2.218,6.229 2.538,6.172 3.099 C 6.130 3.502,6.347 3.889,6.715 4.069 C 6.988 4.203,7.233 4.207,7.614 4.087 C 7.888 4.000,7.893 4.000,11.997 4.000 C 16.603 4.000,16.372 3.986,16.679 4.283 C 16.976 4.572,16.975 4.567,17.003 6.160 C 17.039 8.213,17.073 8.345,18.082 10.400 C 19.021 12.311,18.966 12.069,18.996 14.443 L 19.020 16.306 19.141 16.503 C 19.543 17.156,20.457 17.156,20.859 16.503 L 20.980 16.306 20.980 14.383 C 20.980 11.757,20.982 11.767,19.918 9.600 C 19.003 7.737,19.038 7.879,19.001 5.920 C 18.974 4.517,18.967 4.402,18.882 4.140 C 18.571 3.172,17.822 2.425,16.861 2.121 L 16.540 2.020 12.140 2.013 C 8.619 2.007,7.684 2.017,7.460 2.059 M10.695 6.057 C 10.466 6.129,10.256 6.299,10.128 6.516 C 10.037 6.672,10.020 6.746,10.020 7.000 C 10.020 7.256,10.036 7.328,10.131 7.489 C 10.256 7.702,10.449 7.864,10.670 7.943 C 10.885 8.020,13.115 8.020,13.330 7.943 C 13.551 7.864,13.744 7.702,13.869 7.489 C 13.964 7.328,13.980 7.256,13.980 7.000 C 13.980 6.746,13.963 6.672,13.872 6.516 C 13.740 6.293,13.533 6.128,13.290 6.055 C 13.039 5.979,10.937 5.981,10.695 6.057 M11.512 13.327 C 10.847 14.301,10.835 15.630,11.481 16.622 C 11.669 16.910,12.134 17.369,12.424 17.552 C 12.868 17.832,13.470 18.000,14.032 18.000 C 14.557 18.000,15.230 17.788,15.684 17.480 L 15.908 17.328 17.182 18.602 C 17.883 19.303,18.448 19.884,18.438 19.893 C 18.322 19.992,17.946 20.000,13.490 20.000 C 9.202 20.000,8.833 19.995,8.856 19.935 C 8.974 19.628,8.980 19.446,8.980 15.980 C 8.980 12.729,8.974 12.432,8.907 12.100 C 8.779 11.468,8.572 10.916,8.118 9.997 L 7.675 9.100 9.674 11.096 L 11.672 13.092 11.512 13.327 M6.394 11.034 C 6.637 11.531,6.798 11.922,6.869 12.184 L 6.977 12.580 6.992 15.800 C 7.002 18.076,6.993 19.080,6.962 19.224 C 6.905 19.485,6.723 19.731,6.486 19.871 C 6.328 19.964,6.255 19.980,6.000 19.980 C 5.746 19.980,5.672 19.963,5.516 19.872 C 5.415 19.813,5.283 19.700,5.224 19.621 C 4.988 19.313,4.995 19.430,5.009 15.855 L 5.022 12.580 5.130 12.184 C 5.202 11.923,5.364 11.530,5.606 11.034 C 5.808 10.619,5.986 10.280,6.000 10.280 C 6.014 10.280,6.192 10.619,6.394 11.034 M13.799 15.219 C 14.160 15.581,14.448 15.884,14.438 15.893 C 14.386 15.937,14.130 16.000,14.001 16.000 C 13.366 16.000,12.869 15.349,13.040 14.741 C 13.068 14.641,13.102 14.560,13.116 14.560 C 13.130 14.560,13.437 14.856,13.799 15.219 " stroke="none" fill-rule="evenodd" fill="black"></path></svg>