<svg xmlns="http://www.w3.org/2000/svg" width="24" height="24" viewBox="0 0 24 24" fill="none" stroke="currentColor" stroke-width="2" stroke-linecap="round" stroke-linejoin="round"><path d="M11.080 1.042 C 9.620 1.170,8.238 1.567,6.952 2.227 C 6.530 2.444,6.348 2.632,6.257 2.944 C 6.144 3.332,6.248 3.698,6.545 3.959 C 6.749 4.138,6.939 4.211,7.204 4.212 C 7.401 4.213,7.504 4.178,8.024 3.930 C 8.968 3.482,9.732 3.245,10.720 3.094 C 11.354 2.997,12.646 2.997,13.280 3.094 C 15.863 3.489,18.072 4.891,19.515 7.050 C 19.699 7.325,20.160 8.153,20.160 8.208 C 20.160 8.220,20.038 8.196,19.890 8.154 C 19.436 8.028,18.784 7.978,18.290 8.031 C 18.053 8.057,17.743 8.108,17.600 8.144 C 16.974 8.305,16.251 8.707,15.720 9.192 L 15.461 9.429 15.200 9.202 C 14.686 8.753,14.213 8.478,13.582 8.261 C 13.220 8.137,13.000 8.143,12.695 8.287 C 12.231 8.505,12.028 9.100,12.255 9.580 C 12.389 9.863,12.523 9.971,12.990 10.174 C 13.877 10.559,14.221 10.911,14.480 11.697 C 14.709 12.394,15.434 12.732,16.010 12.410 C 16.273 12.263,16.446 12.017,16.535 11.660 C 16.670 11.124,16.942 10.724,17.369 10.434 C 17.710 10.202,18.021 10.087,18.456 10.032 C 19.179 9.941,19.849 10.146,20.346 10.612 C 20.626 10.873,20.811 11.140,20.905 11.418 L 20.970 11.607 19.550 13.033 C 18.238 14.353,18.126 14.476,18.061 14.674 C 17.804 15.459,18.541 16.196,19.326 15.939 C 19.525 15.874,19.654 15.756,21.154 14.265 C 22.042 13.382,22.815 12.588,22.871 12.500 C 23.004 12.295,23.029 11.903,22.962 11.108 C 22.785 9.009,22.047 7.074,20.774 5.367 C 20.316 4.755,19.249 3.688,18.640 3.235 C 17.045 2.049,15.362 1.359,13.423 1.096 C 12.873 1.022,11.639 0.993,11.080 1.042 M2.670 2.061 C 2.448 2.142,2.250 2.309,2.128 2.516 C 2.036 2.672,2.020 2.745,2.021 3.000 C 2.021 3.214,2.043 3.340,2.096 3.440 C 2.136 3.517,2.476 3.890,2.851 4.268 C 3.485 4.907,3.529 4.961,3.476 5.034 C 3.445 5.077,3.282 5.298,3.114 5.526 C 1.961 7.088,1.225 9.032,1.043 11.000 C 0.975 11.735,0.988 12.188,1.082 12.400 C 1.146 12.541,2.279 13.697,6.272 17.694 C 11.811 23.239,11.552 23.000,12.000 22.999 C 12.421 22.998,12.404 23.013,14.790 20.629 L 17.000 18.421 18.710 20.126 C 19.650 21.064,20.483 21.865,20.560 21.905 C 20.659 21.957,20.788 21.979,21.000 21.979 C 21.258 21.980,21.327 21.964,21.492 21.867 C 21.968 21.587,22.139 20.967,21.865 20.508 C 21.810 20.416,17.665 16.243,12.653 11.235 C 4.231 2.820,3.525 2.125,3.343 2.065 C 3.107 1.987,2.874 1.986,2.670 2.061 M5.920 7.345 C 6.437 7.865,6.824 8.278,6.780 8.262 C 6.535 8.174,6.049 8.072,5.687 8.032 C 5.209 7.979,4.559 8.030,4.110 8.154 C 3.962 8.196,3.840 8.220,3.840 8.208 C 3.840 8.069,4.871 6.407,4.960 6.401 C 4.971 6.401,5.403 6.825,5.920 7.345 M5.780 10.060 C 6.209 10.150,6.610 10.367,6.920 10.677 C 7.311 11.068,7.405 11.290,7.514 12.080 C 7.536 12.244,7.885 13.294,8.457 14.920 C 8.957 16.339,9.419 17.653,9.484 17.840 L 9.603 18.180 6.320 14.900 C 3.374 11.956,3.040 11.610,3.061 11.520 C 3.187 10.991,3.751 10.400,4.361 10.160 C 4.766 10.000,5.311 9.962,5.780 10.060 M12.730 16.890 C 12.339 18.006,12.011 18.919,12.000 18.919 C 11.989 18.919,11.425 17.331,10.746 15.390 C 9.390 11.515,9.454 11.750,9.641 11.328 L 9.723 11.143 11.581 13.002 L 13.440 14.860 12.730 16.890 M14.989 17.590 L 14.398 18.180 14.643 17.480 C 14.778 17.095,14.916 16.702,14.949 16.606 L 15.011 16.431 15.295 16.716 L 15.579 17.000 14.989 17.590 " stroke="none" fill-rule="evenodd" fill="black"></path></svg>