<svg xmlns="http://www.w3.org/2000/svg" width="24" height="24" viewBox="0 0 24 24" fill="none" stroke="currentColor" stroke-width="2" stroke-linecap="round" stroke-linejoin="round"><path d="M6.665 3.063 C 6.418 3.142,6.209 3.353,5.684 4.053 C 4.443 5.709,3.633 7.550,3.243 9.605 C 2.973 11.032,2.973 12.968,3.243 14.395 C 3.633 16.450,4.443 18.291,5.684 19.947 C 6.217 20.658,6.410 20.850,6.677 20.939 C 7.371 21.170,8.063 20.622,7.989 19.900 C 7.960 19.628,7.912 19.539,7.540 19.080 C 6.256 17.493,5.440 15.615,5.133 13.540 C 5.033 12.861,5.033 11.139,5.133 10.460 C 5.440 8.385,6.256 6.507,7.540 4.920 C 7.911 4.461,7.960 4.372,7.988 4.101 C 8.030 3.700,7.802 3.287,7.436 3.098 C 7.254 3.004,6.900 2.988,6.665 3.063 M16.665 3.059 C 16.439 3.139,16.234 3.321,16.120 3.543 C 16.041 3.698,16.020 3.796,16.021 4.019 C 16.023 4.357,16.052 4.416,16.460 4.920 C 17.700 6.451,18.539 8.352,18.846 10.326 C 18.923 10.817,18.936 11.060,18.936 12.000 C 18.936 12.940,18.923 13.183,18.846 13.674 C 18.539 15.648,17.700 17.549,16.460 19.080 C 16.088 19.539,16.040 19.628,16.011 19.900 C 15.937 20.622,16.629 21.170,17.323 20.939 C 17.590 20.850,17.783 20.658,18.316 19.947 C 19.775 18.001,20.639 15.800,20.901 13.360 C 21.013 12.315,20.963 10.796,20.781 9.740 C 20.501 8.115,19.827 6.354,18.951 4.961 C 18.645 4.476,17.978 3.585,17.726 3.326 C 17.438 3.031,17.031 2.928,16.665 3.059 " stroke="none" fill-rule="evenodd" fill="black"></path></svg>