<svg xmlns="http://www.w3.org/2000/svg" width="24" height="24" viewBox="0 0 24 24" fill="none" stroke="currentColor" stroke-width="2" stroke-linecap="round" stroke-linejoin="round"><path d="M2.670 2.061 C 2.448 2.142,2.250 2.309,2.128 2.516 C 2.036 2.672,2.020 2.745,2.021 3.000 C 2.021 3.214,2.043 3.340,2.096 3.440 C 2.137 3.517,2.418 3.832,2.722 4.140 L 3.273 4.700 3.147 5.060 L 3.020 5.420 3.020 11.980 L 3.020 18.540 3.114 18.840 C 3.422 19.827,4.173 20.578,5.160 20.886 L 5.460 20.980 12.020 20.980 L 18.580 20.980 18.940 20.853 L 19.300 20.727 19.860 21.278 C 20.168 21.582,20.483 21.863,20.560 21.904 C 20.660 21.957,20.786 21.979,21.000 21.979 C 21.258 21.980,21.327 21.964,21.492 21.867 C 21.968 21.587,22.139 20.967,21.865 20.508 C 21.810 20.416,17.665 16.243,12.653 11.235 C 4.231 2.820,3.525 2.125,3.343 2.065 C 3.107 1.987,2.874 1.986,2.670 2.061 M7.695 3.057 C 7.465 3.129,7.256 3.299,7.128 3.516 C 7.037 3.672,7.020 3.746,7.020 4.000 C 7.020 4.256,7.036 4.328,7.131 4.489 C 7.256 4.702,7.449 4.864,7.670 4.943 C 7.792 4.987,8.771 4.997,12.963 4.998 C 18.717 5.000,18.369 4.983,18.679 5.283 C 19.005 5.600,18.978 5.102,19.000 11.023 L 19.020 16.306 19.141 16.503 C 19.543 17.156,20.457 17.156,20.859 16.503 L 20.980 16.306 20.980 10.883 L 20.980 5.460 20.886 5.160 C 20.581 4.182,19.832 3.428,18.861 3.121 L 18.540 3.020 13.200 3.012 C 8.900 3.006,7.828 3.015,7.695 3.057 M8.009 12.862 L 8.020 16.306 8.141 16.503 C 8.543 17.156,9.457 17.156,9.859 16.503 L 9.980 16.306 9.992 14.653 L 10.003 13.000 10.792 13.000 L 11.580 13.000 14.580 16.000 L 17.580 19.001 11.640 18.990 L 5.700 18.980 5.516 18.872 C 5.415 18.813,5.284 18.700,5.225 18.623 C 4.987 18.311,5.000 18.677,5.000 12.285 L 5.000 6.420 6.499 7.919 L 7.998 9.418 8.009 12.862 M11.695 7.055 C 11.464 7.130,11.255 7.300,11.128 7.516 C 11.037 7.672,11.020 7.746,11.020 8.000 C 11.020 8.256,11.036 8.328,11.131 8.489 C 11.192 8.592,11.304 8.725,11.381 8.783 C 11.622 8.967,11.770 8.996,12.464 8.998 C 13.405 9.001,13.642 9.096,13.877 9.566 C 14.028 9.869,14.032 10.036,13.899 10.452 C 13.782 10.818,13.781 10.842,13.863 11.117 C 13.993 11.556,14.456 11.874,14.897 11.829 C 15.423 11.774,15.709 11.456,15.925 10.680 C 15.994 10.433,15.994 9.593,15.924 9.323 C 15.744 8.619,15.280 7.932,14.730 7.553 C 14.495 7.391,14.028 7.176,13.740 7.096 C 13.411 7.005,11.938 6.975,11.695 7.055 " stroke="none" fill-rule="evenodd" fill="black"></path></svg>