<svg xmlns="http://www.w3.org/2000/svg" width="24" height="24" viewBox="0 0 24 24" fill="none" stroke="currentColor" stroke-width="2" stroke-linecap="round" stroke-linejoin="round"><path d="M11.358 2.061 C 10.230 2.237,9.143 2.974,8.569 3.953 C 7.320 6.083,8.233 8.785,10.512 9.704 C 12.558 10.528,14.877 9.538,15.704 7.488 C 16.090 6.530,16.090 5.469,15.705 4.516 C 15.172 3.197,14.001 2.269,12.605 2.058 C 12.144 1.989,11.816 1.990,11.358 2.061 M12.523 4.073 C 13.262 4.266,13.850 4.924,13.967 5.690 C 14.029 6.098,13.967 6.522,13.793 6.880 C 13.638 7.198,13.227 7.625,12.930 7.775 C 12.492 7.997,11.962 8.059,11.508 7.940 C 10.823 7.762,10.249 7.194,10.073 6.523 C 9.683 5.028,11.028 3.683,12.523 4.073 M8.499 11.042 C 7.377 11.235,6.454 12.055,6.115 13.160 C 6.045 13.390,6.023 13.559,6.022 13.883 C 6.020 14.285,6.026 14.315,6.141 14.503 C 6.537 15.147,7.457 15.156,7.849 14.520 C 7.927 14.392,7.971 14.249,7.999 14.031 C 8.049 13.636,8.114 13.485,8.321 13.283 C 8.622 12.991,8.508 13.000,12.000 13.000 C 15.492 13.000,15.378 12.991,15.679 13.283 C 15.886 13.485,15.951 13.636,16.001 14.031 C 16.049 14.410,16.184 14.647,16.452 14.828 C 16.923 15.144,17.554 14.998,17.859 14.503 C 17.974 14.315,17.980 14.285,17.978 13.883 C 17.977 13.559,17.955 13.390,17.885 13.160 C 17.587 12.188,16.832 11.427,15.861 11.122 L 15.540 11.021 12.120 11.014 C 10.239 11.011,8.609 11.023,8.499 11.042 M4.695 16.057 C 4.467 16.128,4.256 16.299,4.131 16.513 C 4.046 16.657,4.022 16.758,4.007 17.026 C 3.998 17.210,3.985 17.360,3.979 17.360 C 3.973 17.360,3.817 17.288,3.632 17.199 C 3.448 17.111,3.206 17.027,3.094 17.014 C 2.807 16.980,2.513 17.085,2.300 17.298 C 1.828 17.770,1.938 18.550,2.523 18.872 C 2.631 18.931,2.719 18.989,2.719 19.000 C 2.719 19.011,2.631 19.069,2.523 19.128 C 1.938 19.450,1.828 20.230,2.300 20.702 C 2.505 20.907,2.804 21.018,3.082 20.991 C 3.194 20.980,3.420 20.903,3.622 20.806 C 3.812 20.715,3.973 20.640,3.979 20.640 C 3.985 20.640,3.998 20.792,4.008 20.978 C 4.023 21.264,4.043 21.344,4.144 21.508 C 4.209 21.614,4.348 21.757,4.452 21.828 C 4.921 22.143,5.554 21.998,5.856 21.508 C 5.957 21.344,5.977 21.264,5.992 20.978 C 6.002 20.792,6.015 20.640,6.021 20.640 C 6.027 20.640,6.188 20.715,6.378 20.806 C 6.580 20.903,6.806 20.980,6.918 20.991 C 7.196 21.018,7.495 20.907,7.700 20.702 C 8.172 20.230,8.064 19.460,7.480 19.132 C 7.370 19.070,7.280 19.011,7.281 19.000 C 7.281 18.989,7.369 18.931,7.477 18.872 C 8.062 18.550,8.172 17.770,7.700 17.298 C 7.487 17.085,7.193 16.980,6.906 17.014 C 6.794 17.027,6.552 17.111,6.368 17.199 C 6.183 17.288,6.027 17.360,6.021 17.360 C 6.015 17.360,6.002 17.210,5.993 17.026 C 5.978 16.758,5.954 16.657,5.869 16.513 C 5.628 16.101,5.149 15.915,4.695 16.057 M11.695 16.057 C 11.467 16.128,11.256 16.299,11.131 16.513 C 11.046 16.657,11.022 16.758,11.007 17.026 C 10.998 17.210,10.985 17.360,10.979 17.360 C 10.973 17.360,10.817 17.288,10.632 17.199 C 10.448 17.111,10.206 17.027,10.094 17.014 C 9.807 16.980,9.513 17.085,9.300 17.298 C 8.828 17.770,8.938 18.550,9.523 18.872 C 9.631 18.931,9.719 18.989,9.719 19.000 C 9.719 19.011,9.631 19.069,9.523 19.128 C 8.938 19.450,8.828 20.230,9.300 20.702 C 9.505 20.907,9.804 21.018,10.082 20.991 C 10.194 20.980,10.420 20.903,10.622 20.806 C 10.812 20.715,10.973 20.640,10.979 20.640 C 10.985 20.640,10.998 20.792,11.008 20.978 C 11.023 21.264,11.043 21.344,11.144 21.508 C 11.209 21.614,11.348 21.757,11.452 21.828 C 11.921 22.143,12.554 21.998,12.856 21.508 C 12.957 21.344,12.977 21.264,12.992 20.978 C 13.002 20.792,13.015 20.640,13.021 20.640 C 13.027 20.640,13.188 20.715,13.378 20.806 C 13.580 20.903,13.806 20.980,13.918 20.991 C 14.196 21.018,14.495 20.907,14.700 20.702 C 15.172 20.230,15.064 19.460,14.480 19.132 C 14.370 19.070,14.280 19.011,14.281 19.000 C 14.281 18.989,14.369 18.931,14.477 18.872 C 15.062 18.550,15.172 17.770,14.700 17.298 C 14.487 17.085,14.193 16.980,13.906 17.014 C 13.794 17.027,13.552 17.111,13.368 17.199 C 13.183 17.288,13.027 17.360,13.021 17.360 C 13.015 17.360,13.002 17.210,12.993 17.026 C 12.978 16.758,12.954 16.657,12.869 16.513 C 12.628 16.101,12.149 15.915,11.695 16.057 M18.695 16.057 C 18.467 16.128,18.256 16.299,18.131 16.513 C 18.046 16.657,18.022 16.758,18.007 17.026 C 17.998 17.210,17.985 17.360,17.979 17.360 C 17.973 17.360,17.817 17.288,17.632 17.199 C 17.448 17.111,17.206 17.027,17.094 17.014 C 16.807 16.980,16.513 17.085,16.300 17.298 C 15.828 17.770,15.938 18.550,16.523 18.872 C 16.631 18.931,16.719 18.989,16.719 19.000 C 16.719 19.011,16.631 19.069,16.523 19.128 C 15.938 19.450,15.828 20.230,16.300 20.702 C 16.505 20.907,16.804 21.018,17.082 20.991 C 17.194 20.980,17.420 20.903,17.622 20.806 C 17.812 20.715,17.973 20.640,17.979 20.640 C 17.985 20.640,17.998 20.792,18.008 20.978 C 18.023 21.264,18.043 21.344,18.144 21.508 C 18.209 21.614,18.348 21.757,18.452 21.828 C 18.921 22.143,19.554 21.998,19.856 21.508 C 19.957 21.344,19.977 21.264,19.992 20.978 C 20.002 20.792,20.015 20.640,20.021 20.640 C 20.027 20.640,20.188 20.715,20.378 20.806 C 20.580 20.903,20.806 20.980,20.918 20.991 C 21.196 21.018,21.495 20.907,21.700 20.702 C 22.172 20.230,22.064 19.460,21.480 19.132 C 21.370 19.070,21.280 19.011,21.281 19.000 C 21.281 18.989,21.369 18.931,21.477 18.872 C 22.062 18.550,22.172 17.770,21.700 17.298 C 21.487 17.085,21.193 16.980,20.906 17.014 C 20.794 17.027,20.552 17.111,20.368 17.199 C 20.183 17.288,20.027 17.360,20.021 17.360 C 20.015 17.360,20.002 17.210,19.993 17.026 C 19.978 16.758,19.954 16.657,19.869 16.513 C 19.628 16.101,19.149 15.915,18.695 16.057 " stroke="none" fill-rule="evenodd" fill="black"></path></svg>