<svg xmlns="http://www.w3.org/2000/svg" width="24" height="24" viewBox="0 0 24 24" fill="none" stroke="currentColor" stroke-width="2" stroke-linecap="round" stroke-linejoin="round"><path d="M15.814 3.737 C 15.279 3.839,14.796 4.041,14.300 4.370 C 14.145 4.473,12.125 6.465,8.594 9.995 C 3.462 15.127,3.125 15.472,3.063 15.664 C 3.005 15.845,2.999 16.119,3.009 18.084 L 3.020 20.300 3.131 20.489 C 3.256 20.702,3.449 20.864,3.670 20.943 C 3.788 20.985,4.281 20.997,5.983 20.998 C 7.871 21.000,8.171 20.992,8.343 20.935 C 8.524 20.876,8.973 20.438,14.024 15.385 C 17.620 11.788,19.558 9.821,19.656 9.670 C 19.882 9.320,20.068 8.921,20.187 8.532 C 20.284 8.213,20.294 8.118,20.297 7.520 C 20.300 6.804,20.246 6.517,20.009 5.980 C 19.543 4.923,18.559 4.080,17.460 3.796 C 17.046 3.689,16.219 3.659,15.814 3.737 M16.982 5.742 C 17.940 5.992,18.514 6.999,18.258 7.982 C 18.176 8.297,18.037 8.526,17.745 8.832 L 17.504 9.084 16.212 7.792 L 14.921 6.501 15.141 6.279 C 15.660 5.754,16.306 5.566,16.982 5.742 M11.830 14.750 L 7.580 19.000 6.290 19.000 L 5.000 19.000 5.000 17.710 L 5.000 16.420 9.250 12.170 L 13.500 7.920 14.790 9.210 L 16.080 10.500 11.830 14.750 M20.640 16.068 C 20.488 16.121,20.196 16.394,18.731 17.853 L 17.002 19.575 16.271 18.855 C 15.655 18.247,15.509 18.123,15.343 18.067 C 14.865 17.905,14.383 18.083,14.128 18.516 C 14.036 18.672,14.020 18.745,14.021 19.000 C 14.021 19.213,14.043 19.341,14.095 19.440 C 14.197 19.633,16.297 21.740,16.520 21.873 C 16.673 21.964,16.745 21.980,17.000 21.979 C 17.212 21.979,17.341 21.957,17.440 21.905 C 17.632 21.805,21.739 17.705,21.873 17.480 C 21.964 17.328,21.980 17.254,21.980 17.000 C 21.980 16.746,21.963 16.672,21.872 16.516 C 21.617 16.083,21.121 15.903,20.640 16.068 " stroke="none" fill-rule="evenodd" fill="black"></path></svg>