<svg xmlns="http://www.w3.org/2000/svg" width="24" height="24" viewBox="0 0 24 24" fill="none" stroke="currentColor" stroke-width="2" stroke-linecap="round" stroke-linejoin="round"><path d="M15.814 3.737 C 15.279 3.839,14.796 4.041,14.300 4.370 C 14.145 4.473,12.125 6.465,8.594 9.995 C 3.462 15.127,3.125 15.472,3.063 15.664 C 3.005 15.845,2.999 16.119,3.009 18.084 L 3.020 20.300 3.131 20.489 C 3.256 20.702,3.449 20.864,3.670 20.943 C 3.788 20.985,4.281 20.997,5.983 20.998 C 7.871 21.000,8.171 20.992,8.343 20.935 C 8.524 20.876,8.973 20.438,14.024 15.385 C 17.620 11.788,19.558 9.821,19.656 9.670 C 19.882 9.320,20.068 8.921,20.187 8.532 C 20.284 8.213,20.294 8.118,20.297 7.520 C 20.300 6.804,20.246 6.517,20.009 5.980 C 19.543 4.923,18.559 4.080,17.460 3.796 C 17.046 3.689,16.219 3.659,15.814 3.737 M16.982 5.742 C 17.940 5.992,18.514 6.999,18.258 7.982 C 18.176 8.297,18.037 8.526,17.745 8.832 L 17.504 9.084 16.212 7.792 L 14.921 6.501 15.141 6.279 C 15.660 5.754,16.306 5.566,16.982 5.742 M11.830 14.750 L 7.580 19.000 6.290 19.000 L 5.000 19.000 5.000 17.710 L 5.000 16.420 9.250 12.170 L 13.500 7.920 14.790 9.210 L 16.080 10.500 11.830 14.750 M15.695 15.057 C 15.466 15.129,15.256 15.299,15.128 15.516 C 15.036 15.672,15.020 15.745,15.021 16.000 C 15.022 16.332,15.101 16.533,15.306 16.728 C 15.785 17.181,16.580 17.046,16.893 16.460 C 17.025 16.211,17.015 15.760,16.872 15.516 C 16.628 15.101,16.150 14.915,15.695 15.057 M20.640 15.068 C 20.485 15.121,20.093 15.495,17.847 17.735 C 16.368 19.209,15.188 20.418,15.127 20.520 C 15.036 20.672,15.020 20.746,15.020 21.000 C 15.020 21.257,15.036 21.327,15.133 21.492 C 15.263 21.714,15.502 21.901,15.736 21.965 C 15.938 22.019,16.266 21.989,16.445 21.899 C 16.630 21.807,21.738 16.706,21.873 16.480 C 21.964 16.328,21.980 16.254,21.980 16.000 C 21.980 15.746,21.963 15.672,21.872 15.516 C 21.617 15.083,21.122 14.903,20.640 15.068 M20.695 20.057 C 20.466 20.129,20.256 20.299,20.128 20.516 C 20.036 20.672,20.020 20.745,20.021 21.000 C 20.022 21.332,20.101 21.533,20.306 21.728 C 20.785 22.181,21.580 22.046,21.893 21.460 C 22.025 21.211,22.015 20.760,21.872 20.516 C 21.628 20.101,21.150 19.915,20.695 20.057 " stroke="none" fill-rule="evenodd" fill="black"></path></svg>