<svg xmlns="http://www.w3.org/2000/svg" width="24" height="24" viewBox="0 0 24 24" fill="none" stroke="currentColor" stroke-width="2" stroke-linecap="round" stroke-linejoin="round"><path d="M2.670 2.061 C 2.448 2.142,2.250 2.309,2.128 2.516 C 2.036 2.672,2.020 2.745,2.021 3.000 C 2.021 3.212,2.043 3.341,2.095 3.440 C 2.135 3.517,3.610 5.024,5.373 6.790 L 8.579 9.999 5.854 12.730 C 3.328 15.261,3.125 15.475,3.064 15.664 C 3.005 15.846,2.999 16.112,3.009 18.084 L 3.020 20.300 3.131 20.489 C 3.256 20.702,3.449 20.864,3.670 20.943 C 3.788 20.985,4.281 20.997,5.983 20.998 C 7.879 21.000,8.170 20.992,8.343 20.935 C 8.522 20.875,8.790 20.620,11.270 18.145 L 14.001 15.421 17.210 18.627 C 18.976 20.390,20.483 21.865,20.560 21.905 C 20.659 21.957,20.788 21.979,21.000 21.979 C 21.258 21.980,21.327 21.964,21.492 21.867 C 21.968 21.587,22.139 20.967,21.865 20.508 C 21.810 20.416,17.665 16.243,12.653 11.235 C 4.231 2.820,3.525 2.125,3.343 2.065 C 3.107 1.987,2.874 1.986,2.670 2.061 M16.020 3.706 C 15.384 3.806,14.764 4.050,14.286 4.386 C 14.140 4.489,13.385 5.205,12.609 5.976 C 11.064 7.511,11.000 7.593,11.000 7.998 C 11.001 8.555,11.445 8.998,12.000 8.998 C 12.341 8.998,12.520 8.892,13.039 8.379 L 13.502 7.922 14.791 9.211 L 16.080 10.501 15.639 10.940 C 15.138 11.440,15.000 11.663,15.000 11.978 C 15.001 12.318,15.067 12.480,15.300 12.707 C 15.623 13.022,16.036 13.094,16.423 12.901 C 16.676 12.775,19.379 10.071,19.639 9.685 C 20.742 8.041,20.467 5.887,18.993 4.621 C 18.295 4.021,17.537 3.727,16.620 3.700 C 16.356 3.693,16.086 3.695,16.020 3.706 M16.888 5.725 C 17.813 5.921,18.430 6.825,18.293 7.779 C 18.235 8.180,18.083 8.476,17.764 8.809 L 17.500 9.084 16.207 7.789 L 14.915 6.494 15.193 6.233 C 15.698 5.756,16.252 5.590,16.888 5.725 M11.300 12.720 L 12.580 14.000 10.080 16.500 L 7.580 19.000 6.290 19.000 L 5.000 19.000 5.000 17.710 L 5.000 16.420 7.490 13.930 C 8.859 12.561,9.989 11.440,10.000 11.440 C 10.011 11.440,10.596 12.016,11.300 12.720 " stroke="none" fill-rule="evenodd" fill="black"></path></svg>