<svg xmlns="http://www.w3.org/2000/svg" width="24" height="24" viewBox="0 0 24 24" fill="none" stroke="currentColor" stroke-width="2" stroke-linecap="round" stroke-linejoin="round"><path d="M15.814 3.737 C 15.279 3.839,14.796 4.041,14.300 4.370 C 14.145 4.473,12.125 6.465,8.594 9.995 C 3.462 15.127,3.125 15.472,3.063 15.664 C 3.005 15.845,2.999 16.119,3.009 18.084 L 3.020 20.300 3.131 20.489 C 3.256 20.702,3.449 20.864,3.670 20.943 C 3.788 20.985,4.281 20.997,5.983 20.998 C 7.871 21.000,8.171 20.992,8.343 20.935 C 8.524 20.876,8.973 20.438,14.024 15.385 C 17.620 11.788,19.558 9.821,19.656 9.670 C 19.882 9.320,20.068 8.921,20.187 8.532 C 20.284 8.213,20.294 8.118,20.297 7.520 C 20.300 6.804,20.246 6.517,20.009 5.980 C 19.543 4.923,18.559 4.080,17.460 3.796 C 17.046 3.689,16.219 3.659,15.814 3.737 M16.982 5.742 C 17.940 5.992,18.514 6.999,18.258 7.982 C 18.176 8.297,18.037 8.526,17.745 8.832 L 17.504 9.084 16.212 7.792 L 14.921 6.501 15.141 6.279 C 15.660 5.754,16.306 5.566,16.982 5.742 M11.830 14.750 L 7.580 19.000 6.290 19.000 L 5.000 19.000 5.000 17.710 L 5.000 16.420 9.250 12.170 L 13.500 7.920 14.790 9.210 L 16.080 10.500 11.830 14.750 M18.695 15.057 C 18.466 15.129,18.256 15.299,18.128 15.516 L 18.020 15.700 18.009 17.635 L 17.997 19.571 17.269 18.852 C 16.655 18.247,16.509 18.123,16.343 18.067 C 15.865 17.905,15.383 18.083,15.128 18.516 C 15.036 18.672,15.020 18.745,15.021 19.000 C 15.021 19.212,15.043 19.341,15.095 19.440 C 15.135 19.517,15.891 20.306,16.774 21.194 C 18.528 22.957,18.580 22.999,19.000 22.999 C 19.420 22.999,19.472 22.957,21.226 21.194 C 22.109 20.306,22.865 19.517,22.905 19.440 C 22.957 19.341,22.979 19.212,22.979 19.000 C 22.980 18.745,22.964 18.672,22.872 18.516 C 22.617 18.083,22.135 17.905,21.657 18.067 C 21.491 18.123,21.345 18.247,20.731 18.852 L 20.003 19.571 19.991 17.635 L 19.980 15.700 19.872 15.516 C 19.628 15.101,19.150 14.915,18.695 15.057 " stroke="none" fill-rule="evenodd" fill="black"></path></svg>