<svg xmlns="http://www.w3.org/2000/svg" width="24" height="24" viewBox="0 0 24 24" fill="none" stroke="currentColor" stroke-width="2" stroke-linecap="round" stroke-linejoin="round"><path d="M2.670 2.061 C 2.448 2.142,2.250 2.309,2.128 2.516 C 2.037 2.672,2.020 2.746,2.020 3.000 C 2.020 3.254,2.036 3.327,2.127 3.480 C 2.189 3.582,3.696 5.120,5.617 7.040 L 9.000 10.420 9.000 15.210 L 9.000 20.000 8.446 20.000 C 7.648 20.000,7.367 20.110,7.128 20.516 C 7.037 20.672,7.020 20.746,7.020 21.000 C 7.020 21.256,7.036 21.328,7.131 21.489 C 7.256 21.702,7.449 21.864,7.670 21.943 C 7.889 22.021,12.111 22.021,12.330 21.943 C 12.551 21.864,12.744 21.702,12.869 21.489 C 12.964 21.328,12.980 21.256,12.980 21.000 C 12.980 20.746,12.963 20.672,12.872 20.516 C 12.633 20.110,12.352 20.000,11.554 20.000 L 11.000 20.000 11.000 16.323 L 11.000 12.645 11.085 12.618 C 11.158 12.595,11.837 13.257,15.795 17.212 C 18.339 19.753,20.483 21.865,20.560 21.905 C 20.659 21.957,20.788 21.979,21.000 21.979 C 21.258 21.980,21.327 21.964,21.492 21.867 C 21.968 21.587,22.139 20.967,21.865 20.508 C 21.810 20.416,17.665 16.243,12.653 11.235 C 4.231 2.820,3.525 2.125,3.343 2.065 C 3.107 1.987,2.874 1.986,2.670 2.061 M9.695 2.057 C 9.466 2.129,9.256 2.299,9.128 2.516 L 9.020 2.700 9.020 4.503 L 9.020 6.306 9.141 6.503 C 9.542 7.155,10.457 7.156,10.857 6.506 C 10.963 6.334,10.979 6.268,10.993 5.933 C 11.008 5.604,11.018 5.558,11.075 5.580 C 11.366 5.691,16.480 7.983,16.480 8.002 C 16.480 8.016,15.837 8.313,15.050 8.662 C 13.519 9.343,13.374 9.430,13.230 9.755 C 13.136 9.965,13.127 10.325,13.211 10.525 C 13.294 10.722,13.503 10.949,13.696 11.051 C 13.817 11.114,13.933 11.137,14.140 11.138 L 14.420 11.140 16.980 10.000 C 19.197 9.013,19.562 8.838,19.704 8.697 C 19.973 8.430,20.065 8.035,19.941 7.682 C 19.860 7.454,19.739 7.293,19.566 7.184 C 19.486 7.134,17.528 6.252,15.215 5.224 L 11.010 3.355 10.992 3.024 C 10.978 2.758,10.954 2.657,10.869 2.513 C 10.628 2.101,10.149 1.915,9.695 2.057 " stroke="none" fill-rule="evenodd" fill="black"></path></svg>