<svg xmlns="http://www.w3.org/2000/svg" width="24" height="24" viewBox="0 0 24 24" fill="none" stroke="currentColor" stroke-width="2" stroke-linecap="round" stroke-linejoin="round"><path d="M9.695 2.057 C 9.466 2.129,9.256 2.299,9.128 2.516 L 9.020 2.700 9.010 11.350 L 8.999 20.000 8.446 20.000 C 7.648 20.000,7.367 20.110,7.128 20.516 C 7.037 20.672,7.020 20.746,7.020 21.000 C 7.020 21.256,7.036 21.328,7.131 21.489 C 7.256 21.702,7.449 21.864,7.670 21.943 C 7.788 21.985,8.280 21.996,10.000 21.996 C 11.720 21.996,12.212 21.985,12.330 21.943 C 12.551 21.864,12.744 21.702,12.869 21.489 C 12.964 21.328,12.980 21.256,12.980 21.000 C 12.980 20.746,12.963 20.672,12.872 20.516 C 12.633 20.110,12.352 20.000,11.554 20.000 L 11.000 20.000 11.000 16.327 L 11.000 12.653 15.270 10.757 C 19.039 9.083,19.559 8.841,19.704 8.697 C 19.973 8.430,20.065 8.035,19.941 7.682 C 19.860 7.454,19.739 7.293,19.566 7.184 C 19.486 7.134,17.528 6.252,15.215 5.224 L 11.010 3.355 10.992 3.024 C 10.978 2.758,10.954 2.657,10.869 2.513 C 10.628 2.101,10.149 1.915,9.695 2.057 M13.810 6.791 C 15.278 7.443,16.480 7.988,16.480 8.002 C 16.480 8.026,11.077 10.440,11.025 10.440 C 11.011 10.440,11.000 9.340,11.000 7.996 C 11.000 5.684,11.004 5.553,11.070 5.578 C 11.108 5.593,12.342 6.139,13.810 6.791 " stroke="none" fill-rule="evenodd" fill="black"></path></svg>