<svg xmlns="http://www.w3.org/2000/svg" width="24" height="24" viewBox="0 0 24 24" fill="none" stroke="currentColor" stroke-width="2" stroke-linecap="round" stroke-linejoin="round"><path d="M11.340 0.866 C 11.186 0.898,10.916 0.995,10.740 1.080 C 10.387 1.251,7.642 3.217,7.392 3.478 C 6.816 4.080,7.280 5.120,8.126 5.120 C 8.256 5.120,8.425 5.094,8.502 5.062 C 8.579 5.030,9.267 4.548,10.031 3.992 C 10.795 3.435,11.500 2.939,11.597 2.890 C 11.836 2.768,12.164 2.768,12.403 2.890 C 12.660 3.021,20.640 8.824,20.769 8.974 C 20.922 9.152,21.015 9.449,20.988 9.675 C 20.975 9.777,20.528 11.201,19.993 12.840 C 18.915 16.146,18.932 16.071,19.134 16.468 C 19.306 16.807,19.638 17.006,20.032 17.006 C 20.325 17.006,20.653 16.842,20.811 16.617 C 20.892 16.501,21.201 15.605,21.899 13.457 C 22.434 11.809,22.901 10.321,22.936 10.152 C 23.135 9.187,22.816 8.173,22.094 7.474 C 21.717 7.110,13.682 1.293,13.280 1.093 C 12.714 0.812,11.995 0.727,11.340 0.866 M2.670 2.061 C 2.448 2.142,2.250 2.309,2.128 2.516 C 2.036 2.672,2.020 2.745,2.021 3.000 C 2.021 3.213,2.043 3.341,2.095 3.440 C 2.136 3.517,2.644 4.057,3.224 4.641 L 4.279 5.701 3.176 6.500 C 2.018 7.338,1.644 7.673,1.410 8.083 C 1.047 8.718,0.922 9.465,1.063 10.152 C 1.168 10.662,4.267 20.142,4.432 20.460 C 4.535 20.656,4.686 20.848,4.939 21.101 C 5.342 21.504,5.660 21.708,6.140 21.871 L 6.460 21.980 12.000 21.980 L 17.540 21.980 17.860 21.871 C 18.322 21.714,18.653 21.505,19.039 21.130 L 19.377 20.801 19.899 21.315 C 20.185 21.598,20.483 21.863,20.560 21.904 C 20.660 21.957,20.786 21.979,21.000 21.979 C 21.258 21.980,21.327 21.964,21.492 21.867 C 21.968 21.587,22.139 20.967,21.865 20.508 C 21.810 20.416,17.665 16.243,12.653 11.235 C 4.231 2.820,3.525 2.125,3.343 2.065 C 3.107 1.987,2.874 1.986,2.670 2.061 M17.842 19.434 C 17.780 19.585,17.559 19.817,17.388 19.910 C 17.268 19.975,16.929 19.981,12.140 19.992 C 9.324 19.998,6.945 19.993,6.854 19.980 C 6.631 19.948,6.340 19.748,6.222 19.546 C 6.112 19.354,3.048 9.948,3.013 9.692 C 2.984 9.484,3.057 9.208,3.186 9.031 C 3.238 8.959,3.826 8.502,4.491 8.015 L 5.700 7.130 11.796 13.221 L 17.893 19.313 17.842 19.434 " stroke="none" fill-rule="evenodd" fill="black"></path></svg>