<svg xmlns="http://www.w3.org/2000/svg" width="24" height="24" viewBox="0 0 24 24" fill="none" stroke="currentColor" stroke-width="2" stroke-linecap="round" stroke-linejoin="round"><path d="M11.340 0.865 C 11.186 0.897,10.907 1.000,10.720 1.093 C 10.300 1.302,2.269 7.122,1.888 7.494 C 1.447 7.924,1.193 8.393,1.064 9.018 C 0.983 9.411,0.983 9.760,1.063 10.152 C 1.168 10.662,4.267 20.142,4.432 20.460 C 4.535 20.656,4.686 20.848,4.939 21.101 C 5.342 21.504,5.660 21.708,6.140 21.871 L 6.460 21.980 12.000 21.980 L 17.540 21.980 17.860 21.871 C 18.340 21.708,18.658 21.504,19.061 21.101 C 19.314 20.848,19.465 20.656,19.568 20.460 C 19.733 20.143,22.831 10.663,22.936 10.152 C 23.135 9.187,22.816 8.173,22.094 7.474 C 21.717 7.110,13.682 1.293,13.280 1.093 C 12.715 0.812,11.997 0.728,11.340 0.865 M12.403 2.890 C 12.660 3.021,20.640 8.824,20.769 8.974 C 20.922 9.152,21.015 9.449,20.988 9.675 C 20.954 9.956,17.867 19.415,17.755 19.580 C 17.642 19.748,17.426 19.907,17.237 19.961 C 17.051 20.014,6.949 20.014,6.763 19.961 C 6.556 19.901,6.326 19.724,6.221 19.543 C 6.103 19.339,3.043 9.928,3.012 9.675 C 2.985 9.449,3.078 9.152,3.231 8.974 C 3.360 8.824,11.340 3.021,11.597 2.890 C 11.836 2.768,12.164 2.768,12.403 2.890 M9.695 7.057 C 9.466 7.129,9.256 7.299,9.128 7.516 C 9.037 7.672,9.020 7.746,9.020 8.000 C 9.020 8.256,9.036 8.328,9.131 8.489 C 9.192 8.592,9.304 8.725,9.381 8.783 C 9.650 8.989,9.714 8.996,11.220 8.998 C 12.536 9.000,12.628 9.005,12.748 9.078 C 12.970 9.214,13.000 9.324,13.000 10.008 C 13.000 10.544,12.990 10.636,12.922 10.748 C 12.779 10.983,12.698 11.000,11.748 11.000 C 10.811 11.000,10.634 11.029,10.382 11.221 C 10.302 11.282,10.187 11.415,10.128 11.516 C 10.037 11.672,10.020 11.746,10.020 12.000 C 10.020 12.256,10.036 12.328,10.131 12.489 C 10.192 12.592,10.304 12.725,10.381 12.783 C 10.635 12.977,10.752 12.996,11.712 12.998 C 12.701 13.000,12.778 13.016,12.922 13.252 C 12.990 13.364,13.000 13.456,13.000 13.992 C 13.000 14.676,12.970 14.786,12.748 14.922 C 12.628 14.995,12.538 15.000,11.256 15.000 C 9.773 15.000,9.653 15.014,9.382 15.221 C 9.302 15.282,9.187 15.415,9.128 15.516 C 9.037 15.672,9.020 15.746,9.020 16.000 C 9.020 16.257,9.036 16.327,9.133 16.492 C 9.262 16.712,9.502 16.901,9.730 16.963 C 9.832 16.990,10.435 17.000,11.454 16.992 L 13.020 16.979 13.320 16.869 C 14.039 16.605,14.601 16.043,14.869 15.320 C 14.980 15.021,14.980 15.016,14.980 14.000 C 14.980 12.987,14.979 12.978,14.870 12.684 C 14.810 12.521,14.705 12.301,14.636 12.194 L 14.512 12.000 14.636 11.806 C 14.705 11.699,14.810 11.479,14.870 11.316 C 14.979 11.022,14.980 11.013,14.980 10.000 C 14.980 8.985,14.979 8.978,14.869 8.680 C 14.643 8.064,14.194 7.561,13.620 7.277 C 13.102 7.021,12.937 7.001,11.300 7.003 C 10.239 7.005,9.816 7.019,9.695 7.057 " stroke="none" fill-rule="evenodd" fill="black"></path></svg>