<svg xmlns="http://www.w3.org/2000/svg" width="24" height="24" viewBox="0 0 24 24" fill="none" stroke="currentColor" stroke-width="2" stroke-linecap="round" stroke-linejoin="round"><path d="M11.340 0.865 C 11.186 0.897,10.907 1.000,10.720 1.093 C 10.300 1.302,2.269 7.122,1.888 7.494 C 1.447 7.924,1.193 8.393,1.064 9.018 C 0.983 9.411,0.983 9.760,1.063 10.152 C 1.168 10.662,4.267 20.142,4.432 20.460 C 4.535 20.656,4.686 20.848,4.939 21.101 C 5.342 21.504,5.660 21.708,6.140 21.871 L 6.460 21.980 12.000 21.980 L 17.540 21.980 17.860 21.871 C 18.340 21.708,18.658 21.504,19.061 21.101 C 19.314 20.848,19.465 20.656,19.568 20.460 C 19.733 20.143,22.831 10.663,22.936 10.152 C 23.135 9.187,22.816 8.173,22.094 7.474 C 21.717 7.110,13.682 1.293,13.280 1.093 C 12.715 0.812,11.997 0.728,11.340 0.865 M12.403 2.890 C 12.660 3.021,20.640 8.824,20.769 8.974 C 20.922 9.152,21.015 9.449,20.988 9.675 C 20.954 9.956,17.867 19.415,17.755 19.580 C 17.642 19.748,17.426 19.907,17.237 19.961 C 17.051 20.014,6.949 20.014,6.763 19.961 C 6.556 19.901,6.326 19.724,6.221 19.543 C 6.103 19.339,3.043 9.928,3.012 9.675 C 2.985 9.449,3.078 9.152,3.231 8.974 C 3.360 8.824,11.340 3.021,11.597 2.890 C 11.836 2.768,12.164 2.768,12.403 2.890 M9.695 7.057 C 9.466 7.129,9.256 7.299,9.128 7.516 C 9.037 7.672,9.020 7.746,9.020 8.000 C 9.020 8.256,9.036 8.328,9.131 8.489 C 9.192 8.592,9.304 8.725,9.381 8.783 C 9.654 8.991,9.700 8.996,11.410 8.998 L 13.000 9.000 13.000 10.000 L 13.000 11.000 11.870 11.002 C 10.936 11.004,10.694 11.017,10.477 11.073 C 9.806 11.249,9.238 11.823,9.060 12.508 C 8.973 12.839,8.973 15.161,9.060 15.492 C 9.153 15.852,9.310 16.118,9.596 16.404 C 9.882 16.690,10.148 16.847,10.508 16.940 C 10.826 17.023,14.099 17.025,14.330 16.943 C 14.551 16.864,14.744 16.702,14.869 16.489 C 14.964 16.328,14.980 16.256,14.980 16.000 C 14.980 15.746,14.963 15.672,14.872 15.516 C 14.813 15.415,14.698 15.282,14.618 15.221 C 14.342 15.011,14.242 15.000,12.554 15.000 L 11.000 15.000 11.000 14.000 L 11.000 13.000 12.132 13.000 C 13.358 13.000,13.528 12.979,13.930 12.775 C 14.196 12.640,14.638 12.200,14.771 11.937 C 14.979 11.527,15.000 11.352,14.999 10.014 C 14.999 8.682,14.974 8.463,14.781 8.083 C 14.646 7.816,14.297 7.449,14.017 7.281 C 13.580 7.018,13.463 7.005,11.560 7.005 C 10.283 7.005,9.819 7.018,9.695 7.057 " stroke="none" fill-rule="evenodd" fill="black"></path></svg>