<svg xmlns="http://www.w3.org/2000/svg" width="24" height="24" viewBox="0 0 24 24" fill="none" stroke="currentColor" stroke-width="2" stroke-linecap="round" stroke-linejoin="round"><path d="M11.340 0.865 C 11.186 0.897,10.907 1.000,10.720 1.093 C 10.300 1.302,2.269 7.122,1.888 7.494 C 1.447 7.924,1.193 8.393,1.064 9.018 C 0.983 9.411,0.983 9.760,1.063 10.152 C 1.168 10.662,4.267 20.142,4.432 20.460 C 4.535 20.656,4.686 20.848,4.939 21.101 C 5.342 21.504,5.660 21.708,6.140 21.871 L 6.460 21.980 12.000 21.980 L 17.540 21.980 17.860 21.871 C 18.340 21.708,18.658 21.504,19.061 21.101 C 19.314 20.848,19.465 20.656,19.568 20.460 C 19.733 20.143,22.831 10.663,22.936 10.152 C 23.135 9.187,22.816 8.173,22.094 7.474 C 21.717 7.110,13.682 1.293,13.280 1.093 C 12.715 0.812,11.997 0.728,11.340 0.865 M12.403 2.890 C 12.660 3.021,20.640 8.824,20.769 8.974 C 20.922 9.152,21.015 9.449,20.988 9.675 C 20.954 9.956,17.867 19.415,17.755 19.580 C 17.642 19.748,17.426 19.907,17.237 19.961 C 17.051 20.014,6.949 20.014,6.763 19.961 C 6.556 19.901,6.326 19.724,6.221 19.543 C 6.103 19.339,3.043 9.928,3.012 9.675 C 2.985 9.449,3.078 9.152,3.231 8.974 C 3.360 8.824,11.340 3.021,11.597 2.890 C 11.836 2.768,12.164 2.768,12.403 2.890 M11.640 7.069 C 11.492 7.121,11.265 7.325,10.347 8.236 C 9.734 8.843,9.185 9.421,9.127 9.520 C 9.037 9.672,9.020 9.747,9.020 10.000 C 9.020 10.257,9.036 10.327,9.133 10.492 C 9.340 10.844,9.705 11.029,10.112 10.987 C 10.360 10.962,10.595 10.834,10.820 10.601 L 10.980 10.436 11.000 13.371 L 11.020 16.306 11.141 16.503 C 11.543 17.156,12.457 17.156,12.859 16.503 L 12.980 16.306 12.991 12.086 C 13.003 7.327,13.021 7.628,12.698 7.304 C 12.412 7.018,12.030 6.933,11.640 7.069 " stroke="none" fill-rule="evenodd" fill="black"></path></svg>