<svg xmlns="http://www.w3.org/2000/svg" width="24" height="24" viewBox="0 0 24 24" fill="none" stroke="currentColor" stroke-width="2" stroke-linecap="round" stroke-linejoin="round"><path d="M11.080 2.045 C 9.508 2.184,7.887 2.749,6.540 3.629 C 5.905 4.044,5.499 4.376,4.919 4.958 C 3.385 6.495,2.432 8.397,2.093 10.600 C 2.005 11.171,1.993 12.712,2.072 13.260 C 2.407 15.571,3.343 17.466,4.939 19.061 C 6.490 20.613,8.383 21.564,10.600 21.907 C 11.245 22.007,12.755 22.007,13.400 21.907 C 15.616 21.565,17.511 20.612,19.061 19.061 C 20.481 17.642,21.394 15.954,21.797 14.000 C 21.948 13.269,21.980 12.915,21.978 11.980 C 21.977 10.963,21.925 10.503,21.715 9.645 C 20.539 4.825,16.035 1.606,11.080 2.045 M13.357 4.122 C 13.630 4.169,14.035 4.261,14.257 4.327 C 14.688 4.455,15.441 4.753,15.438 4.795 C 15.433 4.847,12.070 7.220,12.000 7.220 C 11.930 7.220,8.566 4.847,8.562 4.795 C 8.559 4.753,9.313 4.455,9.745 4.326 C 10.138 4.210,10.934 4.059,11.340 4.025 C 11.795 3.987,12.870 4.039,13.357 4.122 M6.933 8.580 C 7.560 10.502,7.594 10.623,7.529 10.685 C 7.317 10.884,4.118 13.270,4.101 13.241 C 4.089 13.223,4.059 12.936,4.032 12.604 C 3.977 11.902,4.022 11.135,4.161 10.422 C 4.407 9.154,5.065 7.804,5.922 6.806 C 6.079 6.623,6.222 6.488,6.238 6.506 C 6.255 6.525,6.567 7.458,6.933 8.580 M18.149 6.894 C 19.405 8.402,20.082 10.401,19.985 12.320 C 19.953 12.961,19.918 13.240,19.872 13.240 C 19.851 13.240,19.063 12.654,18.121 11.937 L 16.407 10.635 16.482 10.407 C 16.523 10.282,16.819 9.370,17.140 8.380 C 17.462 7.390,17.732 6.556,17.742 6.527 C 17.768 6.450,17.815 6.492,18.149 6.894 M14.815 9.048 C 14.313 10.580,14.261 10.766,14.262 11.020 C 14.264 11.393,14.360 11.573,14.710 11.852 C 14.858 11.970,15.553 12.502,16.253 13.032 L 17.526 13.998 15.632 14.009 L 13.738 14.020 13.539 14.122 C 13.186 14.304,13.140 14.398,12.554 16.158 C 12.261 17.039,12.012 17.760,12.000 17.760 C 11.989 17.760,11.739 17.038,11.445 16.156 C 10.857 14.395,10.812 14.303,10.461 14.122 L 10.262 14.020 8.382 14.000 L 6.502 13.980 7.901 12.920 C 9.524 11.691,9.565 11.656,9.676 11.419 C 9.839 11.072,9.815 10.951,9.201 9.081 C 8.895 8.147,8.651 7.376,8.659 7.368 C 8.667 7.359,9.310 7.807,10.087 8.362 C 10.864 8.918,11.562 9.398,11.638 9.430 C 11.840 9.515,12.197 9.504,12.405 9.407 C 12.501 9.362,13.201 8.877,13.960 8.330 C 14.719 7.783,15.347 7.340,15.355 7.346 C 15.363 7.351,15.120 8.118,14.815 9.048 M9.916 17.927 C 10.269 18.988,10.553 19.860,10.547 19.867 C 10.540 19.873,10.326 19.826,10.071 19.761 C 8.399 19.339,6.964 18.437,5.855 17.110 C 5.582 16.784,5.235 16.299,5.125 16.090 L 5.077 16.000 7.175 16.000 L 9.273 16.000 9.916 17.927 M18.875 16.090 C 18.765 16.299,18.418 16.784,18.145 17.110 C 17.036 18.437,15.601 19.339,13.929 19.761 C 13.674 19.826,13.460 19.873,13.453 19.867 C 13.447 19.860,13.731 18.988,14.084 17.927 L 14.727 16.000 16.825 16.000 L 18.923 16.000 18.875 16.090 " stroke="none" fill-rule="evenodd" fill="black"></path></svg>