<svg xmlns="http://www.w3.org/2000/svg" width="24" height="24" viewBox="0 0 24 24" fill="none" stroke="currentColor" stroke-width="2" stroke-linecap="round" stroke-linejoin="round"><path d="M11.340 0.865 C 10.783 0.981,10.574 1.121,6.260 4.255 C 3.994 5.901,2.034 7.350,1.905 7.474 C 1.190 8.162,0.866 9.192,1.063 10.152 C 1.168 10.662,4.267 20.142,4.432 20.460 C 4.535 20.656,4.686 20.848,4.939 21.101 C 5.342 21.504,5.660 21.708,6.140 21.871 L 6.460 21.980 9.560 21.992 C 13.021 22.004,12.847 22.017,13.173 21.724 C 13.381 21.536,13.488 21.292,13.488 21.003 C 13.488 20.615,13.294 20.298,12.940 20.106 C 12.781 20.021,12.761 20.020,9.760 20.000 C 7.002 19.982,6.729 19.974,6.614 19.911 C 6.458 19.826,6.255 19.626,6.183 19.486 C 6.082 19.290,3.035 9.862,3.012 9.675 C 2.985 9.449,3.078 9.152,3.231 8.974 C 3.360 8.824,11.340 3.021,11.597 2.890 C 11.836 2.768,12.164 2.768,12.403 2.890 C 12.660 3.021,20.640 8.824,20.769 8.974 C 20.922 9.151,21.015 9.449,20.988 9.676 C 20.976 9.778,20.813 10.329,20.626 10.901 C 19.474 14.428,19.357 14.807,19.355 15.012 C 19.350 15.675,20.054 16.174,20.666 15.940 C 20.872 15.861,21.136 15.643,21.218 15.483 C 21.316 15.294,22.872 10.465,22.937 10.152 C 23.135 9.186,22.816 8.173,22.094 7.474 C 21.717 7.110,13.682 1.293,13.280 1.093 C 12.715 0.812,11.997 0.728,11.340 0.865 M15.695 18.057 C 15.466 18.129,15.256 18.299,15.128 18.516 C 15.037 18.672,15.020 18.746,15.020 19.000 C 15.020 19.256,15.036 19.328,15.131 19.489 C 15.256 19.702,15.449 19.864,15.670 19.943 C 15.891 20.022,22.109 20.022,22.330 19.943 C 22.551 19.864,22.744 19.702,22.869 19.489 C 22.964 19.328,22.980 19.256,22.980 19.000 C 22.980 18.746,22.963 18.672,22.872 18.516 C 22.740 18.293,22.533 18.128,22.290 18.055 C 22.030 17.977,15.945 17.979,15.695 18.057 " stroke="none" fill-rule="evenodd" fill="black"></path></svg>