<svg xmlns="http://www.w3.org/2000/svg" width="24" height="24" viewBox="0 0 24 24" fill="none" stroke="currentColor" stroke-width="2" stroke-linecap="round" stroke-linejoin="round"><path d="M11.340 0.865 C 11.186 0.897,10.907 1.000,10.720 1.093 C 10.300 1.302,2.269 7.122,1.888 7.494 C 1.447 7.924,1.193 8.393,1.064 9.018 C 0.983 9.411,0.983 9.760,1.063 10.152 C 1.168 10.662,4.267 20.142,4.432 20.460 C 4.535 20.656,4.686 20.848,4.939 21.101 C 5.342 21.504,5.660 21.708,6.140 21.871 L 6.460 21.980 12.000 21.980 L 17.540 21.980 17.860 21.871 C 18.340 21.708,18.658 21.504,19.061 21.101 C 19.314 20.848,19.465 20.656,19.568 20.460 C 19.733 20.143,22.831 10.663,22.936 10.152 C 23.135 9.187,22.816 8.173,22.094 7.474 C 21.717 7.110,13.682 1.293,13.280 1.093 C 12.715 0.812,11.997 0.728,11.340 0.865 M12.403 2.890 C 12.660 3.021,20.640 8.824,20.769 8.974 C 20.922 9.152,21.015 9.449,20.988 9.675 C 20.954 9.956,17.867 19.415,17.755 19.580 C 17.642 19.748,17.426 19.907,17.237 19.961 C 17.051 20.014,6.949 20.014,6.763 19.961 C 6.556 19.901,6.326 19.724,6.221 19.543 C 6.103 19.339,3.043 9.928,3.012 9.675 C 2.985 9.449,3.078 9.152,3.231 8.974 C 3.360 8.824,11.340 3.021,11.597 2.890 C 11.836 2.768,12.164 2.768,12.403 2.890 M9.670 9.061 C 9.448 9.142,9.250 9.309,9.128 9.516 C 9.036 9.672,9.020 9.745,9.021 10.000 C 9.021 10.213,9.043 10.340,9.096 10.440 C 9.136 10.517,9.486 10.900,9.873 11.290 L 10.577 12.000 9.873 12.710 C 9.486 13.101,9.139 13.481,9.101 13.555 C 8.872 14.008,9.056 14.601,9.508 14.867 C 9.673 14.964,9.742 14.980,10.000 14.979 C 10.213 14.979,10.340 14.957,10.440 14.904 C 10.517 14.864,10.900 14.514,11.290 14.127 L 12.000 13.423 12.710 14.127 C 13.101 14.514,13.483 14.864,13.560 14.904 C 13.660 14.957,13.787 14.979,14.000 14.979 C 14.258 14.980,14.327 14.964,14.492 14.867 C 14.714 14.737,14.901 14.498,14.965 14.264 C 15.019 14.061,14.989 13.733,14.899 13.555 C 14.861 13.481,14.514 13.101,14.127 12.710 L 13.423 12.000 14.127 11.290 C 14.514 10.900,14.864 10.517,14.904 10.440 C 14.957 10.340,14.979 10.213,14.979 10.000 C 14.980 9.745,14.964 9.672,14.872 9.516 C 14.617 9.083,14.135 8.905,13.657 9.067 C 13.491 9.123,13.345 9.247,12.730 9.854 L 12.000 10.574 11.270 9.854 C 10.655 9.247,10.509 9.123,10.343 9.067 C 10.108 8.987,9.876 8.985,9.670 9.061 " stroke="none" fill-rule="evenodd" fill="black"></path></svg>