<svg xmlns="http://www.w3.org/2000/svg" width="24" height="24" viewBox="0 0 24 24" fill="none" stroke="currentColor" stroke-width="2" stroke-linecap="round" stroke-linejoin="round"><path d="M19.460 3.045 C 18.494 3.166,17.454 3.687,16.653 4.453 C 15.970 5.106,15.501 5.838,15.224 6.686 L 15.091 7.092 14.775 7.200 C 13.424 7.661,12.447 8.712,12.116 10.060 C 12.073 10.236,12.021 10.626,12.001 10.927 C 11.960 11.555,11.858 11.909,11.615 12.275 C 11.079 13.083,10.168 13.651,9.000 13.905 C 8.524 14.008,7.476 14.008,7.000 13.905 C 6.049 13.698,5.286 13.297,4.737 12.714 C 4.274 12.224,4.068 11.767,4.004 11.087 C 3.960 10.610,3.863 10.403,3.595 10.205 C 3.119 9.855,2.432 9.998,2.132 10.510 C 1.998 10.739,1.969 11.142,2.038 11.827 C 2.314 14.590,3.769 17.002,6.080 18.531 C 8.691 20.259,12.107 20.472,14.940 19.084 C 17.718 17.723,19.580 15.088,19.941 12.008 C 20.062 10.971,19.992 10.225,19.705 9.516 C 19.266 8.430,18.498 7.701,17.271 7.207 C 17.170 7.166,17.166 7.155,17.211 7.051 C 17.322 6.796,17.567 6.405,17.754 6.186 C 18.342 5.494,19.106 5.081,19.942 5.002 C 20.238 4.974,20.363 4.942,20.503 4.860 C 21.248 4.424,21.115 3.303,20.290 3.055 C 20.089 2.995,19.884 2.992,19.460 3.045 M16.523 9.073 C 16.866 9.163,17.198 9.366,17.454 9.642 C 17.976 10.205,18.083 10.757,17.915 12.020 C 17.552 14.747,15.431 17.100,12.725 17.777 C 12.092 17.936,11.736 17.977,11.000 17.977 C 10.615 17.977,10.156 17.954,9.980 17.926 C 8.796 17.734,7.709 17.279,6.804 16.594 C 6.477 16.347,5.892 15.817,5.842 15.723 C 5.808 15.660,5.832 15.661,6.112 15.742 C 6.742 15.924,7.173 15.978,8.000 15.978 C 9.073 15.978,9.789 15.840,10.720 15.452 C 11.953 14.938,13.000 14.002,13.531 12.940 C 13.802 12.398,13.999 11.600,14.000 11.048 C 14.001 9.909,14.886 9.005,16.000 9.005 C 16.143 9.005,16.378 9.036,16.523 9.073 " stroke="none" fill-rule="evenodd" fill="black"></path></svg>