<svg xmlns="http://www.w3.org/2000/svg" width="24" height="24" viewBox="0 0 24 24" fill="none" stroke="currentColor" stroke-width="2" stroke-linecap="round" stroke-linejoin="round"><path d="M14.695 2.055 C 14.464 2.130,14.255 2.300,14.128 2.516 C 14.037 2.672,14.020 2.746,14.020 3.000 C 14.020 3.257,14.036 3.327,14.133 3.492 C 14.261 3.710,14.505 3.904,14.716 3.955 C 14.795 3.974,15.103 4.010,15.400 4.035 C 15.697 4.061,16.066 4.114,16.220 4.154 C 18.001 4.617,19.383 5.999,19.846 7.780 C 19.886 7.934,19.939 8.303,19.965 8.600 C 19.990 8.897,20.026 9.205,20.045 9.284 C 20.096 9.495,20.290 9.739,20.508 9.867 C 20.673 9.964,20.743 9.980,21.000 9.980 C 21.257 9.980,21.327 9.964,21.492 9.867 C 21.714 9.737,21.901 9.498,21.965 9.264 C 22.014 9.083,21.991 8.444,21.918 7.956 C 21.500 5.173,19.391 2.866,16.660 2.205 C 15.982 2.041,14.972 1.964,14.695 2.055 M4.499 3.043 C 3.383 3.230,2.461 4.048,2.114 5.160 C 2.032 5.421,2.021 5.536,2.025 6.040 C 2.036 7.459,2.448 9.403,3.102 11.122 C 4.798 15.580,8.420 19.202,12.878 20.898 C 14.597 21.552,16.541 21.964,17.960 21.975 C 18.464 21.979,18.579 21.968,18.840 21.886 C 19.816 21.581,20.557 20.847,20.885 19.860 C 20.978 19.582,20.978 19.566,20.991 17.227 C 21.006 14.557,21.011 14.609,20.703 14.301 C 20.548 14.146,20.342 14.056,17.900 13.080 C 16.208 12.404,15.197 12.020,15.076 12.009 C 14.834 11.985,14.532 12.085,14.344 12.252 C 14.259 12.327,13.980 12.746,13.666 13.268 L 13.133 14.156 12.797 13.931 C 11.752 13.234,10.772 12.253,10.069 11.203 C 9.865 10.898,9.850 10.861,9.912 10.819 C 9.949 10.794,10.364 10.544,10.833 10.263 C 11.493 9.868,11.712 9.716,11.803 9.590 C 11.949 9.389,12.014 9.156,11.991 8.918 C 11.980 8.805,11.576 7.742,10.920 6.100 C 9.946 3.663,9.853 3.451,9.700 3.298 C 9.397 2.995,9.437 2.999,6.923 3.005 C 5.700 3.007,4.609 3.025,4.499 3.043 M9.040 6.800 C 9.432 7.779,9.750 8.583,9.746 8.586 C 9.743 8.589,9.344 8.829,8.860 9.120 C 8.376 9.410,7.919 9.693,7.845 9.749 C 7.655 9.894,7.502 10.240,7.505 10.524 C 7.507 10.720,7.540 10.811,7.773 11.257 C 8.073 11.833,8.582 12.616,8.984 13.120 C 9.332 13.558,10.441 14.667,10.880 15.017 C 11.393 15.425,12.238 15.971,12.783 16.246 C 13.202 16.458,13.299 16.491,13.488 16.491 C 13.768 16.491,14.110 16.341,14.251 16.155 C 14.307 16.081,14.590 15.624,14.880 15.140 C 15.171 14.656,15.411 14.257,15.414 14.254 C 15.417 14.250,16.221 14.568,17.200 14.960 L 18.980 15.672 18.992 17.346 C 19.000 18.454,18.990 19.089,18.961 19.224 C 18.905 19.484,18.724 19.731,18.486 19.871 C 18.317 19.970,18.266 19.980,17.920 19.976 C 17.711 19.973,17.369 19.949,17.160 19.923 C 14.143 19.536,11.371 18.301,9.120 16.340 C 6.378 13.952,4.546 10.533,4.106 6.980 C 3.960 5.804,3.981 5.625,4.303 5.303 C 4.601 5.005,4.608 5.004,6.594 5.013 L 8.328 5.020 9.040 6.800 M14.695 6.054 C 14.048 6.267,13.799 7.040,14.198 7.591 C 14.369 7.827,14.608 7.953,14.972 7.999 C 15.355 8.048,15.509 8.112,15.699 8.301 C 15.889 8.491,15.952 8.645,16.001 9.031 C 16.049 9.410,16.184 9.647,16.452 9.828 C 16.923 10.144,17.554 9.998,17.859 9.503 C 17.974 9.315,17.980 9.285,17.978 8.883 C 17.977 8.559,17.955 8.390,17.885 8.160 C 17.586 7.184,16.809 6.404,15.863 6.130 C 15.463 6.015,14.922 5.979,14.695 6.054 " stroke="none" fill-rule="evenodd" fill="black"></path></svg>