<svg xmlns="http://www.w3.org/2000/svg" width="24" height="24" viewBox="0 0 24 24" fill="none" stroke="currentColor" stroke-width="2" stroke-linecap="round" stroke-linejoin="round"><path d="M13.240 1.035 C 12.785 1.184,12.505 1.555,12.512 2.000 C 12.517 2.307,13.018 4.759,13.115 4.950 C 13.410 5.529,14.174 5.676,14.652 5.245 C 14.846 5.070,14.999 4.759,15.000 4.538 C 15.000 4.373,14.515 1.889,14.435 1.645 C 14.376 1.466,14.144 1.214,13.946 1.113 C 13.771 1.024,13.399 0.983,13.240 1.035 M4.499 3.043 C 3.383 3.230,2.461 4.048,2.114 5.160 C 1.953 5.674,1.999 6.689,2.244 8.071 C 2.721 10.753,3.950 13.464,5.657 15.600 C 7.796 18.278,10.599 20.203,13.872 21.244 C 15.247 21.681,16.841 21.966,17.960 21.975 C 18.464 21.979,18.579 21.968,18.840 21.886 C 19.816 21.581,20.557 20.847,20.885 19.860 C 20.978 19.582,20.978 19.566,20.991 17.227 C 21.006 14.557,21.011 14.609,20.703 14.301 C 20.548 14.146,20.342 14.056,17.900 13.080 C 16.208 12.404,15.197 12.020,15.076 12.009 C 14.834 11.985,14.532 12.085,14.344 12.252 C 14.259 12.327,13.980 12.746,13.666 13.268 L 13.133 14.156 12.797 13.931 C 11.752 13.234,10.772 12.253,10.069 11.203 C 9.865 10.898,9.850 10.861,9.912 10.819 C 9.949 10.794,10.364 10.544,10.833 10.263 C 11.493 9.868,11.712 9.716,11.803 9.590 C 11.949 9.389,12.014 9.156,11.991 8.918 C 11.980 8.805,11.576 7.742,10.920 6.100 C 9.946 3.663,9.853 3.451,9.700 3.298 C 9.397 2.995,9.437 2.999,6.923 3.005 C 5.700 3.007,4.609 3.025,4.499 3.043 M19.640 3.069 C 19.492 3.121,19.265 3.325,18.347 4.236 C 17.734 4.843,17.185 5.421,17.127 5.520 C 17.037 5.672,17.020 5.747,17.020 6.000 C 17.020 6.257,17.036 6.327,17.133 6.492 C 17.413 6.968,18.032 7.138,18.492 6.866 C 18.706 6.739,20.806 4.627,20.905 4.440 C 20.957 4.341,20.979 4.213,20.979 4.000 C 20.980 3.745,20.964 3.672,20.872 3.516 C 20.617 3.083,20.120 2.902,19.640 3.069 M9.040 6.800 C 9.432 7.779,9.750 8.583,9.746 8.586 C 9.743 8.589,9.344 8.829,8.860 9.120 C 8.376 9.410,7.919 9.693,7.845 9.749 C 7.655 9.894,7.502 10.240,7.505 10.524 C 7.507 10.720,7.540 10.811,7.773 11.257 C 8.073 11.833,8.582 12.616,8.984 13.120 C 9.332 13.558,10.441 14.667,10.880 15.017 C 11.393 15.425,12.238 15.971,12.783 16.246 C 13.202 16.458,13.299 16.491,13.488 16.491 C 13.768 16.491,14.110 16.341,14.251 16.155 C 14.307 16.081,14.590 15.624,14.880 15.140 C 15.171 14.656,15.411 14.257,15.414 14.254 C 15.417 14.250,16.221 14.568,17.200 14.960 L 18.980 15.672 18.992 17.346 C 19.000 18.454,18.990 19.089,18.961 19.224 C 18.905 19.484,18.724 19.731,18.486 19.871 C 18.317 19.970,18.266 19.980,17.920 19.976 C 16.247 19.957,13.694 19.230,11.920 18.267 C 10.478 17.484,9.541 16.786,8.376 15.623 C 7.161 14.410,6.262 13.165,5.547 11.708 C 4.664 9.908,4.198 8.229,4.021 6.209 C 3.984 5.799,4.065 5.542,4.303 5.303 C 4.601 5.005,4.608 5.004,6.594 5.013 L 8.328 5.020 9.040 6.800 M19.240 9.037 C 18.796 9.172,18.513 9.545,18.510 9.999 C 18.508 10.377,18.711 10.710,19.051 10.885 C 19.137 10.929,19.803 11.083,20.598 11.242 C 21.848 11.493,22.012 11.518,22.181 11.480 C 22.426 11.425,22.553 11.356,22.706 11.193 C 23.084 10.791,23.093 10.236,22.727 9.831 C 22.650 9.745,22.534 9.648,22.471 9.615 C 22.337 9.546,19.643 8.998,19.462 9.003 C 19.395 9.005,19.295 9.021,19.240 9.037 " stroke="none" fill-rule="evenodd" fill="black"></path></svg>