<svg xmlns="http://www.w3.org/2000/svg" width="24" height="24" viewBox="0 0 24 24" fill="none" stroke="currentColor" stroke-width="2" stroke-linecap="round" stroke-linejoin="round"><path d="M18.044 1.625 C 17.650 1.822,17.436 2.268,17.528 2.702 C 17.583 2.963,17.654 3.061,18.155 3.570 L 18.579 4.000 16.736 4.000 C 14.735 4.000,14.663 4.007,14.382 4.221 C 14.302 4.282,14.187 4.415,14.128 4.516 C 14.037 4.672,14.020 4.746,14.020 5.000 C 14.020 5.256,14.036 5.328,14.131 5.489 C 14.256 5.702,14.449 5.864,14.670 5.943 C 14.787 5.985,15.234 5.997,16.699 5.998 L 18.579 6.000 18.155 6.430 C 17.653 6.940,17.584 7.036,17.528 7.300 C 17.415 7.832,17.775 8.375,18.303 8.469 C 18.549 8.512,18.854 8.462,19.017 8.352 C 19.085 8.306,19.740 7.673,20.474 6.944 C 21.936 5.493,21.999 5.412,21.999 5.000 C 21.999 4.587,21.937 4.508,20.454 3.032 C 19.455 2.038,19.053 1.663,18.920 1.603 C 18.654 1.483,18.312 1.492,18.044 1.625 M4.499 3.043 C 3.383 3.230,2.461 4.048,2.114 5.160 C 1.953 5.674,1.999 6.689,2.244 8.071 C 2.721 10.753,3.950 13.464,5.657 15.600 C 7.796 18.278,10.599 20.203,13.872 21.244 C 15.247 21.681,16.841 21.966,17.960 21.975 C 18.464 21.979,18.579 21.968,18.840 21.886 C 19.816 21.581,20.557 20.847,20.885 19.860 C 20.978 19.582,20.978 19.566,20.991 17.227 C 21.006 14.557,21.011 14.609,20.703 14.301 C 20.548 14.146,20.342 14.056,17.900 13.080 C 16.208 12.404,15.197 12.020,15.076 12.009 C 14.834 11.985,14.532 12.085,14.344 12.252 C 14.259 12.327,13.980 12.746,13.666 13.268 L 13.133 14.156 12.797 13.931 C 11.752 13.234,10.772 12.253,10.069 11.203 C 9.865 10.898,9.850 10.861,9.912 10.819 C 9.949 10.794,10.364 10.544,10.833 10.263 C 11.493 9.868,11.712 9.716,11.803 9.590 C 11.949 9.389,12.014 9.156,11.991 8.918 C 11.980 8.805,11.576 7.742,10.920 6.100 C 9.946 3.663,9.853 3.451,9.700 3.298 C 9.397 2.995,9.437 2.999,6.923 3.005 C 5.700 3.007,4.609 3.025,4.499 3.043 M9.040 6.800 C 9.432 7.779,9.750 8.583,9.746 8.586 C 9.743 8.589,9.344 8.829,8.860 9.120 C 8.376 9.410,7.919 9.693,7.845 9.749 C 7.655 9.894,7.502 10.240,7.505 10.524 C 7.507 10.720,7.540 10.811,7.773 11.257 C 8.073 11.833,8.582 12.616,8.984 13.120 C 9.332 13.558,10.441 14.667,10.880 15.017 C 11.393 15.425,12.238 15.971,12.783 16.246 C 13.202 16.458,13.299 16.491,13.488 16.491 C 13.768 16.491,14.110 16.341,14.251 16.155 C 14.307 16.081,14.590 15.624,14.880 15.140 C 15.171 14.656,15.411 14.257,15.414 14.254 C 15.417 14.250,16.221 14.568,17.200 14.960 L 18.980 15.672 18.992 17.346 C 19.000 18.454,18.990 19.089,18.961 19.224 C 18.905 19.484,18.724 19.731,18.486 19.871 C 18.317 19.970,18.266 19.980,17.920 19.976 C 16.247 19.957,13.694 19.230,11.920 18.267 C 10.478 17.484,9.541 16.786,8.376 15.623 C 7.161 14.410,6.262 13.165,5.547 11.708 C 4.664 9.908,4.198 8.229,4.021 6.209 C 3.984 5.799,4.065 5.542,4.303 5.303 C 4.601 5.005,4.608 5.004,6.594 5.013 L 8.328 5.020 9.040 6.800 " stroke="none" fill-rule="evenodd" fill="black"></path></svg>