<svg xmlns="http://www.w3.org/2000/svg" width="24" height="24" viewBox="0 0 24 24" fill="none" stroke="currentColor" stroke-width="2" stroke-linecap="round" stroke-linejoin="round"><path d="M5.358 2.061 C 3.731 2.315,2.417 3.584,2.083 5.227 C 2.001 5.627,2.000 5.723,2.000 12.000 C 2.000 18.277,2.001 18.373,2.083 18.773 C 2.311 19.892,2.985 20.851,3.956 21.436 C 4.285 21.635,4.810 21.832,5.243 21.921 C 5.612 21.996,5.796 22.000,8.666 22.000 L 11.700 21.999 11.900 21.905 C 12.281 21.724,12.488 21.405,12.488 21.000 C 12.488 20.615,12.293 20.297,11.940 20.106 C 11.781 20.020,11.763 20.020,8.660 20.000 L 5.540 19.980 5.316 19.889 C 4.868 19.708,4.516 19.406,4.265 18.986 C 4.044 18.618,4.000 18.340,4.000 17.312 L 4.000 16.419 6.450 13.971 C 9.109 11.315,9.069 11.349,9.504 11.349 C 9.887 11.349,10.000 11.434,11.260 12.682 C 11.898 13.313,12.481 13.861,12.555 13.898 C 13.008 14.128,13.601 13.944,13.867 13.492 C 13.964 13.327,13.980 13.257,13.980 13.000 C 13.980 12.746,13.963 12.672,13.873 12.520 C 13.732 12.282,11.575 10.146,11.234 9.906 C 10.687 9.521,10.157 9.352,9.500 9.352 C 9.058 9.352,8.690 9.423,8.341 9.578 C 7.812 9.812,7.582 10.012,5.770 11.815 L 4.000 13.577 4.002 9.659 C 4.004 6.088,4.011 5.717,4.073 5.477 C 4.201 4.988,4.543 4.546,5.014 4.265 C 5.479 3.986,5.109 4.000,12.028 4.002 C 18.979 4.005,18.529 3.987,19.017 4.281 C 19.294 4.448,19.618 4.787,19.772 5.071 C 19.994 5.481,19.999 5.555,20.000 8.760 L 20.001 11.700 20.095 11.900 C 20.276 12.281,20.595 12.488,21.000 12.488 C 21.405 12.488,21.724 12.281,21.905 11.900 L 21.999 11.700 22.000 8.666 C 22.000 5.796,21.996 5.612,21.921 5.243 C 21.628 3.806,20.637 2.680,19.245 2.204 C 18.646 1.999,18.690 2.000,11.960 2.004 C 6.959 2.007,5.631 2.018,5.358 2.061 M14.695 7.055 C 14.464 7.130,14.255 7.300,14.128 7.516 C 14.037 7.672,14.020 7.746,14.020 8.000 C 14.020 8.257,14.036 8.327,14.133 8.492 C 14.651 9.374,15.998 9.018,15.998 8.000 C 15.998 7.623,15.792 7.281,15.463 7.112 C 15.265 7.010,14.911 6.984,14.695 7.055 M17.358 14.061 C 16.230 14.237,15.143 14.974,14.569 15.953 C 13.320 18.083,14.233 20.785,16.512 21.704 C 17.473 22.091,18.529 22.090,19.494 21.701 C 19.684 21.625,19.881 21.535,19.932 21.502 C 20.020 21.444,20.041 21.460,20.681 22.104 C 21.044 22.468,21.416 22.810,21.508 22.865 C 21.967 23.139,22.587 22.968,22.867 22.492 C 22.964 22.327,22.980 22.257,22.980 22.000 C 22.980 21.589,22.910 21.484,22.104 20.681 C 21.460 20.041,21.444 20.020,21.502 19.932 C 21.627 19.740,21.844 19.132,21.921 18.757 C 22.070 18.024,21.994 17.230,21.705 16.516 C 21.172 15.197,20.001 14.269,18.605 14.058 C 18.144 13.989,17.816 13.990,17.358 14.061 M18.523 16.073 C 19.262 16.266,19.850 16.924,19.967 17.690 C 20.067 18.343,19.873 18.933,19.403 19.404 C 19.002 19.807,18.547 20.000,18.000 20.000 C 17.485 20.000,17.038 19.822,16.653 19.465 C 15.323 18.229,16.189 16.005,18.000 16.005 C 18.143 16.005,18.378 16.036,18.523 16.073 " stroke="none" fill-rule="evenodd" fill="black"></path></svg>