<svg xmlns="http://www.w3.org/2000/svg" width="24" height="24" viewBox="0 0 24 24" fill="none" stroke="currentColor" stroke-width="2" stroke-linecap="round" stroke-linejoin="round"><path d="M5.358 2.061 C 3.731 2.315,2.417 3.584,2.083 5.227 C 2.001 5.627,2.000 5.723,2.000 12.000 C 2.000 18.277,2.001 18.373,2.083 18.773 C 2.311 19.892,2.985 20.851,3.956 21.436 C 4.285 21.635,4.810 21.832,5.243 21.921 C 5.612 21.996,5.796 22.000,8.666 22.000 L 11.700 21.999 11.900 21.905 C 12.281 21.724,12.488 21.405,12.488 21.000 C 12.488 20.615,12.293 20.297,11.940 20.106 C 11.781 20.020,11.763 20.020,8.660 20.000 L 5.540 19.980 5.316 19.889 C 4.868 19.708,4.516 19.406,4.265 18.986 C 4.044 18.618,4.000 18.340,4.000 17.312 L 4.000 16.419 6.450 13.971 C 9.109 11.315,9.069 11.349,9.504 11.349 C 9.914 11.349,9.928 11.361,12.260 13.682 C 13.448 14.864,14.483 15.864,14.560 15.905 C 14.659 15.957,14.787 15.979,15.000 15.979 C 15.258 15.980,15.327 15.964,15.492 15.867 C 15.842 15.662,16.029 15.295,15.988 14.895 C 15.961 14.632,15.879 14.477,15.628 14.211 L 15.426 13.997 15.643 13.777 C 16.054 13.360,16.493 13.244,16.906 13.442 C 17.013 13.494,17.270 13.699,17.480 13.901 C 17.954 14.356,18.053 14.424,18.301 14.468 C 19.015 14.595,19.595 14.015,19.469 13.303 C 19.423 13.046,19.288 12.855,18.855 12.439 C 18.031 11.646,17.393 11.352,16.500 11.352 C 15.663 11.352,15.009 11.633,14.283 12.305 L 13.995 12.572 12.747 11.332 C 11.477 10.070,11.172 9.811,10.703 9.598 C 9.983 9.272,9.051 9.264,8.341 9.578 C 7.812 9.812,7.582 10.012,5.770 11.815 L 4.000 13.577 4.002 9.659 C 4.004 6.088,4.011 5.717,4.073 5.477 C 4.201 4.988,4.543 4.546,5.014 4.265 C 5.479 3.986,5.113 4.000,12.000 4.000 C 18.887 4.000,18.521 3.986,18.986 4.265 C 19.288 4.446,19.492 4.642,19.686 4.937 C 19.996 5.410,19.976 5.125,19.999 9.443 L 20.020 13.306 20.141 13.503 C 20.543 14.156,21.457 14.156,21.859 13.503 L 21.980 13.306 21.991 9.473 C 22.001 5.771,21.999 5.627,21.921 5.246 C 21.628 3.806,20.638 2.681,19.245 2.204 C 18.646 1.999,18.690 2.000,11.960 2.004 C 6.959 2.007,5.631 2.018,5.358 2.061 M14.695 7.055 C 14.464 7.130,14.255 7.300,14.128 7.516 C 14.037 7.672,14.020 7.746,14.020 8.000 C 14.020 8.257,14.036 8.327,14.133 8.492 C 14.651 9.374,15.998 9.018,15.998 8.000 C 15.998 7.623,15.792 7.281,15.463 7.112 C 15.265 7.010,14.911 6.984,14.695 7.055 M20.640 16.068 C 20.488 16.121,20.196 16.394,18.731 17.853 L 17.002 19.575 16.271 18.855 C 15.655 18.247,15.509 18.123,15.343 18.067 C 14.865 17.905,14.383 18.083,14.128 18.516 C 14.036 18.672,14.020 18.745,14.021 19.000 C 14.021 19.213,14.043 19.341,14.095 19.440 C 14.197 19.633,16.297 21.740,16.520 21.873 C 16.673 21.964,16.745 21.980,17.000 21.979 C 17.212 21.979,17.341 21.957,17.440 21.905 C 17.632 21.805,21.739 17.705,21.873 17.480 C 21.964 17.328,21.980 17.254,21.980 17.000 C 21.980 16.746,21.963 16.672,21.872 16.516 C 21.617 16.083,21.121 15.903,20.640 16.068 " stroke="none" fill-rule="evenodd" fill="black"></path></svg>