<svg xmlns="http://www.w3.org/2000/svg" width="24" height="24" viewBox="0 0 24 24" fill="none" stroke="currentColor" stroke-width="2" stroke-linecap="round" stroke-linejoin="round"><path d="M10.349 2.044 C 7.535 2.178,5.738 2.713,4.406 3.814 C 3.787 4.326,3.247 5.075,2.885 5.924 C 2.566 6.671,2.342 7.527,2.205 8.520 C 2.051 9.633,2.021 10.208,2.021 12.000 C 2.021 13.792,2.051 14.367,2.205 15.480 C 2.744 19.396,4.610 21.251,8.560 21.800 C 9.623 21.948,10.220 21.979,12.000 21.979 C 13.780 21.979,14.377 21.948,15.440 21.800 C 16.241 21.689,16.753 21.574,17.401 21.361 C 20.018 20.502,21.344 18.717,21.800 15.440 C 21.948 14.377,21.979 13.780,21.979 12.000 C 21.979 10.220,21.948 9.623,21.800 8.560 C 21.494 6.357,20.759 4.778,19.594 3.814 C 18.657 3.040,17.469 2.539,15.960 2.283 C 14.520 2.039,12.378 1.947,10.349 2.044 M13.500 4.041 C 16.040 4.168,17.512 4.591,18.435 5.458 C 19.182 6.161,19.657 7.396,19.858 9.160 C 19.978 10.222,20.036 12.193,19.974 13.132 L 19.948 13.523 19.224 12.809 C 18.826 12.416,18.380 12.010,18.234 11.906 C 17.689 11.521,17.158 11.352,16.500 11.352 C 15.663 11.352,15.009 11.633,14.283 12.305 L 13.995 12.572 12.747 11.332 C 11.477 10.070,11.172 9.811,10.703 9.598 C 9.983 9.272,9.051 9.264,8.341 9.578 C 7.813 9.811,7.581 10.013,5.796 11.789 L 4.052 13.525 4.026 13.132 C 3.964 12.190,4.022 10.215,4.143 9.160 C 4.310 7.707,4.647 6.644,5.174 5.906 C 5.872 4.931,7.142 4.371,9.188 4.139 C 10.323 4.010,12.084 3.970,13.500 4.041 M14.695 7.055 C 14.464 7.130,14.255 7.300,14.128 7.516 C 14.037 7.672,14.020 7.746,14.020 8.000 C 14.020 8.257,14.036 8.327,14.133 8.492 C 14.651 9.374,15.998 9.018,15.998 8.000 C 15.998 7.623,15.792 7.281,15.463 7.112 C 15.265 7.010,14.911 6.984,14.695 7.055 M9.920 11.450 C 10.057 11.512,10.737 12.166,12.760 14.182 C 14.223 15.639,15.483 16.864,15.560 16.905 C 15.659 16.957,15.788 16.979,16.000 16.979 C 16.258 16.980,16.327 16.964,16.492 16.867 C 16.714 16.737,16.901 16.498,16.965 16.264 C 17.019 16.061,16.989 15.733,16.899 15.555 C 16.861 15.481,16.514 15.100,16.127 14.710 L 15.423 14.000 15.641 13.778 C 15.921 13.494,16.212 13.349,16.498 13.349 C 16.894 13.349,16.988 13.421,18.373 14.796 L 19.646 16.060 19.622 16.212 C 19.544 16.713,19.155 17.633,18.826 18.094 C 17.864 19.440,15.853 20.001,11.992 20.000 C 8.139 19.999,6.136 19.439,5.174 18.094 C 4.849 17.639,4.481 16.774,4.378 16.225 L 4.349 16.071 6.585 13.834 C 7.814 12.603,8.882 11.558,8.958 11.510 C 9.270 11.315,9.580 11.295,9.920 11.450 " stroke="none" fill-rule="evenodd" fill="black"></path></svg>