<svg xmlns="http://www.w3.org/2000/svg" width="24" height="24" viewBox="0 0 24 24" fill="none" stroke="currentColor" stroke-width="2" stroke-linecap="round" stroke-linejoin="round"><path d="M4.499 4.043 C 3.383 4.230,2.461 5.048,2.114 6.160 L 2.020 6.460 2.020 12.000 L 2.020 17.540 2.114 17.840 C 2.419 18.817,3.158 19.563,4.140 19.884 C 4.404 19.970,4.495 19.976,5.764 19.991 C 6.647 20.001,7.163 19.992,7.268 19.963 C 7.498 19.901,7.737 19.713,7.867 19.492 C 7.964 19.327,7.980 19.257,7.980 19.000 C 7.980 18.746,7.963 18.672,7.872 18.516 C 7.761 18.327,7.569 18.156,7.373 18.071 C 7.296 18.038,6.854 18.016,5.980 18.001 L 4.700 17.980 4.516 17.872 C 4.415 17.813,4.284 17.700,4.225 17.623 C 3.988 17.312,4.000 17.608,4.000 12.022 C 4.000 6.240,3.980 6.627,4.303 6.303 C 4.587 6.019,4.694 6.000,6.037 5.998 C 7.266 5.996,7.356 5.984,7.619 5.783 C 7.696 5.725,7.808 5.592,7.869 5.489 C 7.964 5.328,7.980 5.256,7.980 5.000 C 7.980 4.746,7.963 4.672,7.872 4.516 C 7.813 4.415,7.698 4.282,7.618 4.221 C 7.350 4.016,7.216 4.000,5.904 4.005 C 5.242 4.007,4.609 4.025,4.499 4.043 M16.695 4.055 C 16.464 4.130,16.255 4.300,16.128 4.516 C 16.037 4.672,16.020 4.746,16.020 5.000 C 16.020 5.256,16.036 5.328,16.131 5.489 C 16.192 5.592,16.304 5.725,16.381 5.783 C 16.644 5.984,16.734 5.996,17.963 5.998 C 19.306 6.000,19.413 6.019,19.697 6.303 C 20.020 6.627,20.000 6.243,20.000 12.001 C 20.000 16.212,19.990 17.139,19.945 17.290 C 19.872 17.533,19.707 17.740,19.484 17.872 L 19.300 17.980 18.020 18.001 C 17.146 18.016,16.704 18.038,16.627 18.071 C 16.431 18.156,16.239 18.327,16.128 18.516 C 16.037 18.672,16.020 18.746,16.020 19.000 C 16.020 19.257,16.036 19.327,16.133 19.492 C 16.263 19.713,16.502 19.901,16.732 19.963 C 16.837 19.992,17.353 20.001,18.236 19.991 C 19.505 19.976,19.596 19.970,19.860 19.884 C 20.842 19.563,21.581 18.817,21.886 17.840 L 21.980 17.540 21.980 12.000 L 21.980 6.460 21.886 6.160 C 21.581 5.181,20.825 4.421,19.861 4.124 C 19.551 4.028,19.495 4.025,18.200 4.014 C 17.166 4.005,16.822 4.014,16.695 4.055 M11.400 7.044 C 9.761 7.229,8.261 8.290,7.526 9.785 C 7.158 10.533,7.020 11.136,7.020 12.000 C 7.020 12.670,7.078 13.044,7.268 13.600 C 7.846 15.291,9.253 16.525,11.040 16.907 C 11.511 17.008,12.489 17.008,12.960 16.907 C 14.488 16.580,15.748 15.630,16.433 14.288 C 16.838 13.494,16.980 12.899,16.980 12.000 C 16.980 11.101,16.838 10.506,16.433 9.713 C 15.794 8.461,14.604 7.510,13.240 7.162 C 12.669 7.016,12.019 6.974,11.400 7.044 M12.861 9.129 C 13.804 9.405,14.584 10.183,14.875 11.139 C 14.958 11.412,14.973 11.542,14.973 12.000 C 14.973 12.458,14.958 12.588,14.875 12.861 C 14.582 13.822,13.819 14.581,12.840 14.886 C 12.406 15.021,11.594 15.021,11.160 14.886 C 10.181 14.581,9.418 13.822,9.125 12.861 C 9.042 12.588,9.027 12.458,9.027 12.000 C 9.027 11.542,9.042 11.412,9.125 11.139 C 9.456 10.054,10.371 9.245,11.499 9.040 C 11.832 8.980,12.500 9.023,12.861 9.129 " stroke="none" fill-rule="evenodd" fill="black"></path></svg>