<svg xmlns="http://www.w3.org/2000/svg" width="24" height="24" viewBox="0 0 24 24" fill="none" stroke="currentColor" stroke-width="2" stroke-linecap="round" stroke-linejoin="round"><path d="M11.080 2.045 C 9.206 2.210,7.361 2.947,5.800 4.154 C 5.005 4.769,4.015 5.884,3.470 6.780 C 2.106 9.020,1.666 11.739,2.260 14.260 C 2.875 16.877,4.496 19.122,6.784 20.529 C 8.382 21.512,10.338 22.043,12.180 21.993 C 12.807 21.976,12.988 21.922,13.233 21.677 C 13.413 21.498,13.483 21.351,13.509 21.097 C 13.539 20.805,13.461 20.555,13.274 20.343 C 13.009 20.041,12.874 20.000,12.156 20.000 C 10.823 20.000,9.649 19.741,8.526 19.199 C 7.067 18.495,5.863 17.370,5.051 15.952 L 4.839 15.581 6.850 13.569 C 9.042 11.376,9.074 11.349,9.498 11.349 C 9.915 11.349,9.922 11.355,12.260 13.682 C 13.448 14.864,14.481 15.862,14.555 15.899 C 15.009 16.128,15.601 15.944,15.867 15.492 C 15.964 15.327,15.980 15.258,15.979 15.000 C 15.978 14.646,15.924 14.524,15.628 14.211 L 15.426 13.997 15.643 13.777 C 15.921 13.494,16.212 13.349,16.498 13.349 C 16.888 13.349,16.996 13.430,18.260 14.682 C 18.898 15.313,19.481 15.861,19.556 15.899 C 19.750 15.998,20.523 16.064,20.737 16.000 C 20.919 15.946,21.159 15.783,21.274 15.636 C 21.446 15.417,21.775 14.273,21.905 13.440 C 22.007 12.789,22.009 11.246,21.908 10.600 C 21.741 9.527,21.436 8.547,20.981 7.620 C 20.179 5.982,19.004 4.646,17.494 3.652 C 15.608 2.411,13.347 1.844,11.080 2.045 M13.360 4.122 C 14.926 4.391,16.367 5.119,17.509 6.216 C 18.274 6.951,18.738 7.588,19.202 8.540 C 19.909 9.993,20.156 11.679,19.896 13.293 L 19.872 13.447 19.186 12.771 C 18.809 12.399,18.380 12.010,18.234 11.906 C 17.689 11.522,17.158 11.352,16.500 11.352 C 15.663 11.352,15.009 11.633,14.283 12.305 L 13.995 12.572 12.747 11.332 C 11.477 10.070,11.172 9.811,10.703 9.598 C 9.983 9.272,9.051 9.264,8.341 9.578 C 7.815 9.811,7.579 10.015,5.835 11.750 L 4.131 13.446 4.085 13.142 C 3.856 11.598,4.120 9.917,4.816 8.500 C 6.047 5.996,8.430 4.332,11.207 4.040 C 11.739 3.984,12.792 4.024,13.360 4.122 M14.695 7.055 C 14.464 7.130,14.255 7.300,14.128 7.516 C 14.037 7.672,14.020 7.746,14.020 8.000 C 14.020 8.257,14.036 8.327,14.133 8.492 C 14.651 9.374,15.998 9.018,15.998 8.000 C 15.998 7.623,15.792 7.281,15.463 7.112 C 15.265 7.010,14.911 6.984,14.695 7.055 M15.695 18.057 C 15.466 18.129,15.256 18.299,15.128 18.516 C 15.037 18.672,15.020 18.746,15.020 19.000 C 15.020 19.256,15.036 19.328,15.131 19.489 C 15.256 19.702,15.449 19.864,15.670 19.943 C 15.891 20.022,22.109 20.022,22.330 19.943 C 22.551 19.864,22.744 19.702,22.869 19.489 C 22.964 19.328,22.980 19.256,22.980 19.000 C 22.980 18.746,22.963 18.672,22.872 18.516 C 22.740 18.293,22.533 18.128,22.290 18.055 C 22.030 17.977,15.945 17.979,15.695 18.057 " stroke="none" fill-rule="evenodd" fill="black"></path></svg>