<svg xmlns="http://www.w3.org/2000/svg" width="24" height="24" viewBox="0 0 24 24" fill="none" stroke="currentColor" stroke-width="2" stroke-linecap="round" stroke-linejoin="round"><path d="M5.358 2.061 C 3.731 2.315,2.417 3.584,2.083 5.227 C 2.001 5.627,2.000 5.723,2.000 12.000 C 2.000 18.277,2.001 18.373,2.083 18.773 C 2.357 20.118,3.249 21.195,4.512 21.704 C 5.218 21.988,5.357 22.000,7.906 21.998 C 9.701 21.997,10.212 21.985,10.330 21.943 C 10.551 21.864,10.744 21.702,10.869 21.489 C 10.964 21.328,10.980 21.256,10.980 21.000 C 10.980 20.746,10.963 20.672,10.872 20.516 C 10.813 20.415,10.698 20.282,10.618 20.221 C 10.332 20.003,10.294 20.000,7.922 20.000 C 5.562 20.000,5.505 19.996,5.083 19.781 C 4.816 19.646,4.449 19.297,4.281 19.017 C 4.045 18.625,4.005 18.385,4.002 17.340 L 4.000 16.419 6.450 13.971 C 9.109 11.315,9.069 11.349,9.504 11.349 C 9.852 11.349,10.032 11.468,10.760 12.182 C 11.123 12.538,11.481 12.860,11.555 12.898 C 12.005 13.129,12.601 12.945,12.867 12.492 C 12.964 12.327,12.980 12.257,12.980 12.000 C 12.980 11.589,12.906 11.476,12.134 10.717 C 11.452 10.047,11.119 9.787,10.703 9.598 C 9.983 9.272,9.051 9.264,8.341 9.578 C 7.812 9.812,7.582 10.012,5.770 11.815 L 4.000 13.577 4.002 9.659 C 4.004 6.088,4.011 5.717,4.073 5.477 C 4.201 4.988,4.543 4.546,5.014 4.265 C 5.479 3.986,5.113 4.000,12.000 4.000 C 18.887 4.000,18.521 3.986,18.986 4.265 C 19.288 4.446,19.492 4.642,19.686 4.937 C 19.989 5.399,19.975 5.246,19.999 8.443 L 20.020 11.306 20.141 11.503 C 20.543 12.156,21.457 12.156,21.859 11.503 L 21.980 11.306 21.991 8.475 C 22.002 5.770,21.998 5.625,21.922 5.248 C 21.721 4.264,21.198 3.416,20.438 2.843 C 19.866 2.412,19.276 2.160,18.605 2.058 C 18.059 1.976,5.887 1.979,5.358 2.061 M14.695 7.055 C 14.464 7.130,14.255 7.300,14.128 7.516 C 14.037 7.672,14.020 7.746,14.020 8.000 C 14.020 8.257,14.036 8.327,14.133 8.492 C 14.651 9.374,15.998 9.018,15.998 8.000 C 15.998 7.623,15.792 7.281,15.463 7.112 C 15.265 7.010,14.911 6.984,14.695 7.055 M15.499 14.040 C 14.363 14.246,13.461 15.048,13.114 16.160 L 13.020 16.460 13.020 18.883 L 13.020 21.306 13.141 21.503 C 13.543 22.156,14.457 22.156,14.859 21.503 C 14.979 21.308,14.980 21.300,14.993 20.653 L 15.007 20.000 16.000 20.000 L 16.993 20.000 17.007 20.653 C 17.020 21.300,17.021 21.308,17.141 21.503 C 17.543 22.156,18.457 22.156,18.859 21.503 L 18.980 21.306 18.980 18.883 L 18.980 16.460 18.886 16.160 C 18.580 15.178,17.810 14.407,16.861 14.129 C 16.500 14.023,15.832 13.980,15.499 14.040 M20.695 14.057 C 20.466 14.129,20.256 14.299,20.128 14.516 L 20.020 14.700 20.020 18.003 L 20.020 21.306 20.141 21.503 C 20.543 22.156,21.457 22.156,21.859 21.503 L 21.980 21.306 21.980 18.003 L 21.980 14.700 21.872 14.516 C 21.628 14.101,21.150 13.915,20.695 14.057 M16.334 16.064 C 16.446 16.102,16.593 16.200,16.700 16.306 C 16.948 16.554,17.000 16.753,17.000 17.447 L 17.000 18.000 16.000 18.000 L 15.000 18.000 15.000 17.447 C 15.000 16.753,15.052 16.554,15.301 16.306 C 15.587 16.019,15.952 15.934,16.334 16.064 " stroke="none" fill-rule="evenodd" fill="black"></path></svg>