<svg xmlns="http://www.w3.org/2000/svg" width="24" height="24" viewBox="0 0 24 24" fill="none" stroke="currentColor" stroke-width="2" stroke-linecap="round" stroke-linejoin="round"><path d="M2.670 2.061 C 2.448 2.142,2.250 2.309,2.128 2.516 C 2.037 2.672,2.020 2.746,2.020 3.000 C 2.020 3.344,2.110 3.541,2.394 3.815 C 2.541 3.958,2.550 3.978,2.500 4.055 C 2.372 4.255,2.159 4.854,2.082 5.228 C 2.001 5.626,2.000 5.728,2.000 12.000 C 2.000 18.277,2.001 18.373,2.083 18.773 C 2.311 19.892,2.985 20.851,3.956 21.436 C 4.285 21.635,4.810 21.832,5.243 21.921 C 5.622 21.998,5.805 22.000,12.000 22.000 C 18.195 22.000,18.378 21.998,18.757 21.921 C 19.132 21.844,19.740 21.627,19.932 21.501 C 20.020 21.444,20.032 21.449,20.182 21.604 C 20.459 21.890,20.655 21.980,21.000 21.980 C 21.257 21.980,21.327 21.964,21.492 21.867 C 21.963 21.590,22.138 20.968,21.871 20.516 C 21.782 20.365,3.943 2.485,3.634 2.237 C 3.354 2.012,2.985 1.945,2.670 2.061 M6.695 2.057 C 6.466 2.129,6.256 2.299,6.128 2.516 C 6.037 2.672,6.020 2.746,6.020 3.000 C 6.020 3.256,6.036 3.328,6.131 3.489 C 6.256 3.702,6.449 3.864,6.670 3.943 C 6.792 3.987,7.871 3.997,12.540 4.001 C 18.918 4.005,18.531 3.988,19.017 4.281 C 19.294 4.448,19.618 4.787,19.772 5.071 C 20.000 5.492,19.999 5.471,19.999 9.697 L 20.000 13.574 19.230 12.814 C 18.259 11.857,17.919 11.619,17.252 11.434 C 16.857 11.325,16.179 11.313,15.955 11.413 C 15.321 11.694,15.136 12.470,15.579 12.988 C 15.780 13.223,15.997 13.316,16.395 13.338 C 16.623 13.350,16.784 13.383,16.913 13.444 C 17.051 13.509,17.479 13.909,18.546 14.971 L 19.992 16.409 20.006 16.858 C 20.019 17.275,20.029 17.320,20.141 17.503 C 20.543 18.156,21.457 18.156,21.859 17.503 L 21.980 17.306 21.991 11.472 C 22.001 5.774,21.999 5.629,21.921 5.245 C 21.628 3.806,20.638 2.681,19.245 2.204 C 18.651 2.001,18.642 2.000,12.540 2.003 C 8.012 2.005,6.826 2.016,6.695 2.057 M6.152 7.572 L 8.204 9.624 7.872 9.838 C 7.604 10.011,7.198 10.393,5.770 11.815 L 4.000 13.577 4.000 9.699 C 4.001 6.081,4.011 5.520,4.075 5.520 C 4.089 5.520,5.024 6.443,6.152 7.572 M14.695 7.055 C 14.464 7.130,14.255 7.300,14.128 7.516 C 14.037 7.672,14.020 7.746,14.020 8.000 C 14.020 8.257,14.036 8.327,14.133 8.492 C 14.651 9.374,15.998 9.018,15.998 8.000 C 15.998 7.623,15.792 7.281,15.463 7.112 C 15.265 7.010,14.911 6.984,14.695 7.055 M9.920 11.450 C 10.059 11.513,11.048 12.478,14.299 15.724 C 16.608 18.030,18.483 19.931,18.465 19.948 C 18.415 19.998,5.819 20.009,5.577 19.959 C 4.887 19.816,4.253 19.211,4.073 18.523 C 4.018 18.313,4.004 18.075,4.002 17.340 L 4.000 16.419 6.450 13.974 C 7.798 12.629,8.958 11.499,9.029 11.464 C 9.337 11.310,9.601 11.305,9.920 11.450 " stroke="none" fill-rule="evenodd" fill="black"></path></svg>