<svg xmlns="http://www.w3.org/2000/svg" width="24" height="24" viewBox="0 0 24 24" fill="none" stroke="currentColor" stroke-width="2" stroke-linecap="round" stroke-linejoin="round"><path d="M5.358 2.061 C 3.731 2.315,2.417 3.584,2.083 5.227 C 2.001 5.627,2.000 5.723,2.000 12.000 C 2.000 18.277,2.001 18.373,2.083 18.773 C 2.311 19.892,2.985 20.851,3.956 21.436 C 4.285 21.635,4.810 21.832,5.243 21.921 C 5.612 21.996,5.796 22.000,8.666 22.000 L 11.700 21.999 11.900 21.905 C 12.281 21.724,12.488 21.405,12.488 21.000 C 12.488 20.615,12.293 20.297,11.940 20.106 C 11.781 20.020,11.763 20.020,8.660 20.000 L 5.540 19.980 5.316 19.889 C 4.868 19.708,4.516 19.406,4.265 18.986 C 4.044 18.618,4.000 18.340,4.000 17.312 L 4.000 16.419 6.450 13.971 C 9.109 11.315,9.069 11.349,9.504 11.349 C 9.872 11.349,10.019 11.453,10.980 12.400 C 11.464 12.877,11.915 13.305,11.981 13.350 C 12.142 13.460,12.452 13.512,12.695 13.470 C 13.369 13.354,13.715 12.509,13.321 11.943 C 13.145 11.691,11.532 10.116,11.234 9.906 C 10.688 9.521,10.158 9.352,9.500 9.352 C 9.058 9.352,8.690 9.423,8.341 9.578 C 7.812 9.812,7.582 10.012,5.770 11.815 L 4.000 13.577 4.002 9.659 C 4.004 6.088,4.011 5.717,4.073 5.477 C 4.201 4.988,4.543 4.546,5.014 4.265 C 5.479 3.986,5.113 4.000,12.000 4.000 C 18.887 4.000,18.521 3.986,18.986 4.265 C 19.288 4.446,19.492 4.642,19.686 4.937 C 19.989 5.399,19.975 5.246,19.999 8.443 L 20.020 11.306 20.141 11.503 C 20.543 12.156,21.457 12.156,21.859 11.503 L 21.980 11.306 21.991 8.475 C 22.002 5.770,21.998 5.625,21.922 5.248 C 21.721 4.264,21.198 3.416,20.438 2.843 C 19.866 2.412,19.276 2.160,18.605 2.058 C 18.059 1.976,5.887 1.979,5.358 2.061 M14.695 7.055 C 14.464 7.130,14.255 7.300,14.128 7.516 C 14.037 7.672,14.020 7.746,14.020 8.000 C 14.020 8.257,14.036 8.327,14.133 8.492 C 14.651 9.374,15.998 9.018,15.998 8.000 C 15.998 7.623,15.792 7.281,15.463 7.112 C 15.265 7.010,14.911 6.984,14.695 7.055 M15.699 14.037 C 14.670 14.202,13.737 14.905,13.305 15.840 C 13.072 16.345,13.021 16.592,13.024 17.200 C 13.026 17.692,13.037 17.773,13.149 18.111 C 13.392 18.843,13.413 18.869,15.473 20.912 C 16.500 21.930,17.421 22.812,17.520 22.872 C 17.673 22.964,17.745 22.980,18.000 22.980 C 18.254 22.980,18.327 22.964,18.480 22.873 C 18.579 22.814,19.509 21.923,20.547 20.893 C 22.582 18.874,22.591 18.863,22.818 18.213 C 23.020 17.636,23.050 16.947,22.900 16.380 C 22.746 15.802,22.353 15.189,21.871 14.775 C 20.903 13.943,19.453 13.773,18.325 14.360 L 18.013 14.522 17.697 14.363 C 17.245 14.135,16.862 14.039,16.340 14.020 C 16.098 14.012,15.810 14.019,15.699 14.037 M16.756 16.138 C 16.867 16.194,17.072 16.348,17.213 16.480 C 17.512 16.759,17.693 16.846,17.980 16.849 C 18.293 16.851,18.459 16.777,18.773 16.492 C 19.235 16.074,19.562 15.956,20.020 16.041 C 20.841 16.193,21.259 17.127,20.806 17.797 C 20.748 17.883,20.101 18.542,19.368 19.262 C 18.242 20.369,18.025 20.565,17.961 20.535 C 17.919 20.516,17.278 19.898,16.537 19.163 C 15.024 17.661,15.020 17.657,15.023 17.160 C 15.025 16.915,15.045 16.822,15.133 16.651 C 15.292 16.341,15.584 16.126,15.980 16.025 C 16.158 15.979,16.559 16.038,16.756 16.138 " stroke="none" fill-rule="evenodd" fill="black"></path></svg>