<svg xmlns="http://www.w3.org/2000/svg" width="24" height="24" viewBox="0 0 24 24" fill="none" stroke="currentColor" stroke-width="2" stroke-linecap="round" stroke-linejoin="round"><path d="M11.477 4.073 C 10.806 4.249,10.238 4.823,10.060 5.508 C 9.941 5.962,10.003 6.492,10.225 6.930 C 10.361 7.199,10.801 7.639,11.070 7.775 C 11.659 8.073,12.341 8.073,12.930 7.775 C 13.196 7.640,13.638 7.200,13.771 6.937 C 13.994 6.498,14.052 6.007,13.940 5.529 C 13.858 5.182,13.720 4.927,13.465 4.653 C 12.948 4.097,12.211 3.882,11.477 4.073 M9.591 10.084 C 7.887 10.936,7.389 11.202,7.275 11.321 C 7.112 11.492,7.000 11.775,7.000 12.016 C 7.000 12.116,7.205 12.793,7.545 13.812 C 8.141 15.601,8.187 15.697,8.531 15.874 C 9.206 16.221,10.000 15.741,10.000 14.987 C 10.000 14.893,9.843 14.354,9.616 13.671 C 9.405 13.035,9.239 12.508,9.246 12.502 C 9.270 12.480,10.958 11.640,10.979 11.640 C 10.989 11.640,11.003 12.915,11.009 14.473 L 11.020 17.306 11.141 17.503 C 11.543 18.156,12.457 18.156,12.859 17.503 L 12.980 17.306 12.991 14.291 C 13.001 11.457,13.006 11.276,13.071 11.296 C 13.109 11.307,13.756 11.470,14.509 11.658 L 15.878 12.000 17.789 12.000 L 19.700 11.999 19.900 11.905 C 20.281 11.724,20.488 11.405,20.488 11.000 C 20.488 10.615,20.293 10.297,19.940 10.106 C 19.784 10.022,19.732 10.019,17.880 10.000 L 15.980 9.980 14.054 9.490 C 12.979 9.216,12.047 9.000,11.945 9.000 C 11.786 9.000,11.480 9.141,9.591 10.084 M19.700 13.056 C 19.612 13.084,18.613 13.571,17.480 14.139 C 15.186 15.288,15.181 15.291,15.047 15.730 C 15.006 15.867,14.803 16.660,14.596 17.490 L 14.221 19.000 11.057 19.000 C 7.623 19.000,7.676 18.997,7.382 19.221 C 7.302 19.282,7.187 19.415,7.128 19.516 C 7.037 19.672,7.020 19.746,7.020 20.000 C 7.020 20.257,7.036 20.327,7.133 20.492 C 7.261 20.710,7.502 20.901,7.723 20.961 C 7.822 20.988,9.163 20.998,11.590 20.991 L 15.306 20.980 15.502 20.859 C 15.867 20.633,15.876 20.610,16.391 18.553 L 16.857 16.691 18.697 15.775 C 20.125 15.065,20.573 14.824,20.702 14.697 C 21.092 14.314,21.092 13.690,20.701 13.299 C 20.434 13.031,20.061 12.941,19.700 13.056 M3.477 17.073 C 3.130 17.164,2.802 17.366,2.535 17.653 C 2.178 18.038,2.000 18.485,2.000 19.000 C 2.000 19.546,2.193 20.001,2.596 20.404 C 2.999 20.807,3.454 21.000,4.000 21.000 C 4.546 21.000,5.001 20.807,5.404 20.404 C 5.920 19.889,6.106 19.236,5.940 18.529 C 5.858 18.182,5.720 17.927,5.465 17.653 C 5.074 17.232,4.560 17.005,4.000 17.005 C 3.857 17.005,3.622 17.036,3.477 17.073 M17.695 19.057 C 17.466 19.129,17.256 19.299,17.128 19.516 C 17.037 19.672,17.020 19.746,17.020 20.000 C 17.020 20.256,17.036 20.328,17.131 20.489 C 17.192 20.592,17.304 20.725,17.381 20.783 C 17.656 20.993,17.692 20.996,19.500 20.996 C 21.308 20.996,21.344 20.993,21.619 20.783 C 21.696 20.725,21.808 20.592,21.869 20.489 C 21.964 20.328,21.980 20.256,21.980 20.000 C 21.980 19.746,21.963 19.672,21.872 19.516 C 21.740 19.293,21.533 19.128,21.290 19.055 C 21.035 18.978,17.941 18.980,17.695 19.057 " stroke="none" fill-rule="evenodd" fill="black"></path></svg>