<svg xmlns="http://www.w3.org/2000/svg" width="24" height="24" viewBox="0 0 24 24" fill="none" stroke="currentColor" stroke-width="2" stroke-linecap="round" stroke-linejoin="round"><path d="M4.499 4.043 C 3.380 4.232,2.461 5.048,2.114 6.160 L 2.020 6.460 2.020 12.000 L 2.020 17.540 2.114 17.840 C 2.422 18.827,3.173 19.578,4.160 19.886 L 4.460 19.980 12.000 19.980 L 19.540 19.980 19.840 19.886 C 20.827 19.578,21.578 18.827,21.886 17.840 L 21.980 17.540 21.980 12.000 L 21.980 6.460 21.886 6.160 C 21.581 5.182,20.832 4.428,19.861 4.121 L 19.540 4.020 12.120 4.014 C 8.039 4.011,4.609 4.024,4.499 4.043 M7.009 9.653 L 7.020 13.306 7.141 13.503 C 7.288 13.742,7.578 13.946,7.821 13.982 L 8.000 14.009 8.000 16.006 L 8.000 18.003 6.350 17.992 L 4.700 17.980 4.516 17.872 C 4.415 17.813,4.284 17.700,4.225 17.623 C 3.988 17.312,4.000 17.608,4.000 12.022 C 4.000 6.240,3.979 6.627,4.304 6.303 C 4.582 6.024,4.681 6.006,5.929 6.003 L 6.998 6.000 7.009 9.653 M13.009 9.653 L 13.020 13.306 13.141 13.503 C 13.288 13.742,13.578 13.946,13.821 13.982 L 14.000 14.009 14.000 16.005 L 14.000 18.000 12.000 18.000 L 10.000 18.000 10.000 16.005 L 10.000 14.009 10.179 13.982 C 10.422 13.946,10.712 13.742,10.859 13.503 L 10.980 13.306 10.991 9.653 L 11.002 6.000 12.000 6.000 L 12.998 6.000 13.009 9.653 M19.310 6.061 C 19.589 6.144,19.856 6.411,19.939 6.690 C 19.992 6.868,20.000 7.546,20.000 12.001 C 20.000 16.212,19.990 17.139,19.945 17.290 C 19.872 17.533,19.707 17.740,19.484 17.872 L 19.300 17.980 17.650 17.992 L 16.000 18.003 16.000 16.006 L 16.000 14.009 16.179 13.982 C 16.422 13.946,16.712 13.742,16.859 13.503 L 16.980 13.306 16.991 9.653 L 17.002 6.000 18.054 6.000 C 18.879 6.000,19.150 6.013,19.310 6.061 " stroke="none" fill-rule="evenodd" fill="black"></path></svg>