<svg xmlns="http://www.w3.org/2000/svg" width="24" height="24" viewBox="0 0 24 24" fill="none" stroke="currentColor" stroke-width="2" stroke-linecap="round" stroke-linejoin="round"><path d="M4.499 4.043 C 3.380 4.232,2.461 5.048,2.114 6.160 L 2.020 6.460 2.020 12.000 L 2.020 17.540 2.114 17.840 C 2.418 18.816,3.150 19.555,4.140 19.886 L 4.420 19.979 7.770 19.991 C 9.990 19.999,11.172 19.989,11.274 19.962 C 11.498 19.901,11.739 19.711,11.867 19.492 C 11.964 19.327,11.980 19.257,11.980 19.000 C 11.980 18.746,11.963 18.672,11.872 18.516 C 11.761 18.328,11.572 18.158,11.373 18.070 C 11.287 18.032,10.483 18.015,7.980 18.000 L 4.700 17.980 4.516 17.872 C 4.415 17.813,4.284 17.700,4.225 17.623 C 3.988 17.312,4.000 17.608,4.000 12.022 C 4.000 6.240,3.980 6.627,4.303 6.303 C 4.631 5.976,4.009 6.000,12.000 6.000 C 19.938 6.000,19.365 5.979,19.679 6.283 C 19.992 6.587,19.978 6.464,20.000 9.023 L 20.020 11.306 20.141 11.503 C 20.543 12.156,21.457 12.156,21.859 11.503 L 21.980 11.306 21.980 8.883 L 21.980 6.460 21.886 6.160 C 21.581 5.182,20.832 4.428,19.861 4.121 L 19.540 4.020 12.120 4.014 C 8.039 4.011,4.609 4.024,4.499 4.043 M6.580 8.094 C 6.343 8.204,6.155 8.405,6.063 8.646 C 6.004 8.801,5.998 9.016,6.008 10.563 L 6.020 12.306 6.141 12.503 C 6.543 13.156,7.457 13.156,7.858 12.504 C 7.970 12.323,7.980 12.274,7.994 11.869 L 8.009 11.431 9.215 12.631 C 9.878 13.291,10.483 13.864,10.560 13.905 C 10.659 13.957,10.787 13.979,11.000 13.979 C 11.258 13.980,11.327 13.964,11.492 13.867 C 11.714 13.737,11.901 13.498,11.965 13.264 C 12.019 13.061,11.989 12.733,11.899 12.555 C 11.862 12.481,11.289 11.876,10.626 11.210 L 9.422 10.000 9.801 9.998 C 10.369 9.996,10.650 9.861,10.869 9.489 C 10.964 9.328,10.980 9.256,10.980 9.000 C 10.980 8.746,10.963 8.672,10.872 8.516 C 10.813 8.415,10.698 8.282,10.618 8.221 C 10.340 8.009,10.251 8.000,8.444 8.000 C 6.785 8.001,6.779 8.001,6.580 8.094 M14.477 13.073 C 13.806 13.249,13.238 13.823,13.060 14.508 C 13.011 14.694,13.000 15.066,13.000 16.500 C 13.000 18.411,13.009 18.503,13.225 18.930 C 13.361 19.199,13.801 19.639,14.070 19.775 C 14.516 20.001,14.499 20.000,17.500 20.000 C 20.501 20.000,20.484 20.001,20.930 19.775 C 21.196 19.640,21.638 19.200,21.771 18.937 C 21.990 18.506,22.000 18.396,21.999 16.514 C 21.999 14.642,21.985 14.484,21.781 14.083 C 21.646 13.816,21.297 13.449,21.017 13.281 C 20.555 13.003,20.580 13.005,17.500 13.005 C 15.020 13.005,14.713 13.012,14.477 13.073 M20.000 16.500 L 20.000 18.000 17.500 18.000 L 15.000 18.000 15.000 16.500 L 15.000 15.000 17.500 15.000 L 20.000 15.000 20.000 16.500 " stroke="none" fill-rule="evenodd" fill="black"></path></svg>