<svg xmlns="http://www.w3.org/2000/svg" width="24" height="24" viewBox="0 0 24 24" fill="none" stroke="currentColor" stroke-width="2" stroke-linecap="round" stroke-linejoin="round"><path d="M4.499 4.043 C 3.380 4.232,2.461 5.048,2.114 6.160 L 2.020 6.460 2.020 12.000 L 2.020 17.540 2.114 17.840 C 2.418 18.816,3.150 19.555,4.140 19.886 L 4.420 19.979 7.770 19.991 C 9.990 19.999,11.172 19.989,11.274 19.962 C 11.498 19.901,11.739 19.711,11.867 19.492 C 11.964 19.327,11.980 19.257,11.980 19.000 C 11.980 18.746,11.963 18.672,11.872 18.516 C 11.761 18.328,11.572 18.158,11.373 18.070 C 11.287 18.032,10.483 18.015,7.980 18.000 L 4.700 17.980 4.516 17.872 C 4.415 17.813,4.284 17.700,4.225 17.623 C 3.988 17.312,4.000 17.608,4.000 12.022 C 4.000 6.240,3.980 6.627,4.303 6.303 C 4.631 5.976,4.009 6.000,12.000 6.000 C 19.938 6.000,19.365 5.979,19.679 6.283 C 19.992 6.587,19.978 6.464,20.000 9.023 L 20.020 11.306 20.141 11.503 C 20.543 12.156,21.457 12.156,21.859 11.503 L 21.980 11.306 21.980 8.883 L 21.980 6.460 21.886 6.160 C 21.581 5.182,20.832 4.428,19.861 4.121 L 19.540 4.020 12.120 4.014 C 8.039 4.011,4.609 4.024,4.499 4.043 M6.670 8.061 C 6.448 8.142,6.250 8.309,6.128 8.516 C 6.036 8.672,6.020 8.745,6.021 9.000 C 6.021 9.213,6.043 9.341,6.095 9.440 C 6.136 9.517,6.711 10.125,7.374 10.790 L 8.578 12.000 8.235 12.000 C 7.664 12.000,7.344 12.149,7.128 12.516 C 7.037 12.672,7.020 12.746,7.020 13.000 C 7.020 13.256,7.036 13.328,7.131 13.489 C 7.192 13.592,7.304 13.725,7.381 13.783 C 7.656 13.993,7.691 13.996,9.520 13.998 C 11.218 13.999,11.220 13.999,11.420 13.906 C 11.657 13.796,11.845 13.595,11.937 13.354 C 11.996 13.199,12.002 12.984,11.992 11.440 L 11.980 9.700 11.871 9.514 C 11.479 8.848,10.520 8.848,10.130 9.514 C 10.033 9.679,10.019 9.749,10.006 10.133 L 9.991 10.567 8.765 9.349 C 7.687 8.278,7.516 8.124,7.343 8.066 C 7.108 7.987,6.875 7.985,6.670 8.061 M14.477 13.073 C 13.806 13.249,13.238 13.823,13.060 14.508 C 13.011 14.694,13.000 15.066,13.000 16.500 C 13.000 18.411,13.009 18.503,13.225 18.930 C 13.361 19.199,13.801 19.639,14.070 19.775 C 14.516 20.001,14.499 20.000,17.500 20.000 C 20.501 20.000,20.484 20.001,20.930 19.775 C 21.196 19.640,21.638 19.200,21.771 18.937 C 21.990 18.506,22.000 18.396,21.999 16.514 C 21.999 14.642,21.985 14.484,21.781 14.083 C 21.646 13.816,21.297 13.449,21.017 13.281 C 20.555 13.003,20.580 13.005,17.500 13.005 C 15.020 13.005,14.713 13.012,14.477 13.073 M20.000 16.500 L 20.000 18.000 17.500 18.000 L 15.000 18.000 15.000 16.500 L 15.000 15.000 17.500 15.000 L 20.000 15.000 20.000 16.500 " stroke="none" fill-rule="evenodd" fill="black"></path></svg>