<svg xmlns="http://www.w3.org/2000/svg" width="24" height="24" viewBox="0 0 24 24" fill="none" stroke="currentColor" stroke-width="2" stroke-linecap="round" stroke-linejoin="round"><path d="M15.676 2.059 C 15.597 2.088,14.560 2.760,13.373 3.552 L 11.214 4.991 9.697 5.012 C 8.397 5.029,8.117 5.044,7.737 5.114 C 6.209 5.397,4.767 6.219,3.721 7.404 C 2.951 8.276,2.380 9.445,2.116 10.688 C 1.998 11.245,1.971 12.325,2.059 12.920 C 2.278 14.391,2.807 15.545,3.765 16.641 L 3.993 16.903 4.008 17.961 C 4.022 18.993,4.025 19.028,4.130 19.319 C 4.393 20.047,5.007 20.648,5.727 20.884 C 5.975 20.965,6.096 20.980,6.520 20.978 C 6.960 20.976,7.056 20.962,7.320 20.867 C 8.104 20.583,8.755 19.878,8.917 19.140 L 8.943 19.020 10.987 19.010 L 13.030 18.999 13.122 19.288 C 13.353 20.004,13.997 20.645,14.727 20.884 C 14.975 20.965,15.096 20.980,15.520 20.978 C 15.960 20.976,16.056 20.962,16.320 20.867 C 17.156 20.564,17.751 19.887,17.944 19.020 C 17.980 18.859,17.998 18.473,17.999 17.848 L 18.000 16.915 18.284 16.588 C 18.615 16.205,18.989 15.658,19.184 15.272 L 19.321 15.000 19.791 14.998 C 20.099 14.996,20.350 14.972,20.523 14.927 C 21.199 14.750,21.785 14.150,21.938 13.478 C 22.032 13.064,22.024 10.849,21.927 10.477 C 21.837 10.134,21.634 9.802,21.358 9.546 C 20.922 9.142,20.509 9.002,19.751 9.001 L 19.321 9.000 19.200 8.759 C 18.798 7.964,18.014 7.026,17.300 6.486 L 17.020 6.274 17.000 4.487 L 16.980 2.700 16.872 2.516 C 16.627 2.100,16.105 1.901,15.676 2.059 M15.077 7.200 C 15.207 7.430,15.317 7.535,15.717 7.810 C 16.663 8.459,17.233 9.173,17.700 10.293 C 17.832 10.609,18.096 10.876,18.351 10.952 C 18.449 10.982,18.794 11.000,19.255 11.000 L 20.000 11.000 20.000 11.997 L 20.000 12.994 19.190 13.007 C 18.450 13.019,18.366 13.027,18.220 13.106 C 17.981 13.235,17.814 13.432,17.697 13.720 C 17.394 14.467,17.084 14.947,16.547 15.507 C 15.987 16.090,16.000 16.043,16.000 17.470 C 16.000 18.540,15.994 18.629,15.922 18.748 C 15.720 19.078,15.258 19.074,15.066 18.740 C 15.041 18.696,15.011 18.426,15.000 18.140 C 14.980 17.661,14.970 17.604,14.867 17.428 C 14.805 17.323,14.681 17.183,14.591 17.118 C 14.337 16.934,14.165 16.902,13.700 16.955 C 13.447 16.984,12.454 17.000,11.000 17.000 C 9.546 17.000,8.553 16.984,8.300 16.955 C 7.835 16.902,7.663 16.934,7.409 17.118 C 7.319 17.183,7.195 17.323,7.133 17.428 C 7.030 17.604,7.020 17.661,7.000 18.140 C 6.978 18.708,6.948 18.800,6.747 18.922 C 6.511 19.066,6.253 19.004,6.091 18.764 C 6.002 18.630,6.000 18.609,6.000 17.481 C 6.000 16.051,6.010 16.090,5.498 15.561 C 4.728 14.766,4.316 14.003,4.093 12.960 C 4.037 12.700,4.021 12.460,4.024 11.940 C 4.029 11.315,4.039 11.221,4.154 10.780 C 4.306 10.198,4.647 9.478,4.989 9.018 C 5.722 8.033,6.848 7.330,8.100 7.076 C 8.253 7.045,8.961 7.019,10.060 7.004 C 11.733 6.981,11.784 6.978,11.940 6.892 C 12.028 6.844,12.748 6.372,13.540 5.842 L 14.980 4.880 15.000 5.990 C 15.015 6.843,15.033 7.123,15.077 7.200 M14.695 10.057 C 14.466 10.129,14.256 10.299,14.128 10.516 C 14.036 10.672,14.020 10.745,14.021 11.000 C 14.022 11.332,14.101 11.533,14.306 11.728 C 14.785 12.181,15.580 12.046,15.893 11.460 C 16.025 11.211,16.015 10.760,15.872 10.516 C 15.628 10.101,15.150 9.915,14.695 10.057 " stroke="none" fill-rule="evenodd" fill="black"></path></svg>