<svg xmlns="http://www.w3.org/2000/svg" width="24" height="24" viewBox="0 0 24 24" fill="none" stroke="currentColor" stroke-width="2" stroke-linecap="round" stroke-linejoin="round"><path d="M6.311 2.063 C 4.752 2.345,3.567 3.442,3.112 5.025 C 2.983 5.475,2.982 6.418,3.111 6.932 C 3.222 7.375,3.401 7.808,3.602 8.118 L 3.757 8.357 3.577 8.568 C 2.926 9.330,2.359 10.541,2.116 11.688 C 1.998 12.245,1.971 13.325,2.059 13.920 C 2.278 15.391,2.807 16.545,3.765 17.641 L 3.993 17.903 4.008 18.961 C 4.022 19.993,4.025 20.028,4.130 20.319 C 4.393 21.047,5.007 21.648,5.727 21.884 C 5.975 21.965,6.096 21.980,6.520 21.978 C 6.960 21.976,7.056 21.962,7.320 21.867 C 8.104 21.583,8.755 20.878,8.917 20.140 L 8.943 20.020 10.987 20.010 L 13.030 19.999 13.122 20.288 C 13.353 21.004,13.997 21.645,14.727 21.884 C 14.975 21.965,15.096 21.980,15.520 21.978 C 15.960 21.976,16.056 21.962,16.320 21.867 C 17.156 21.564,17.751 20.887,17.944 20.020 C 17.980 19.859,17.998 19.473,17.999 18.850 L 18.000 17.921 18.325 17.534 C 18.680 17.112,19.000 16.639,19.196 16.250 L 19.321 16.000 19.791 15.998 C 20.099 15.996,20.351 15.972,20.523 15.927 C 21.199 15.750,21.785 15.150,21.938 14.478 C 22.032 14.064,22.024 11.849,21.927 11.477 C 21.837 11.134,21.634 10.802,21.358 10.546 C 20.922 10.142,20.509 10.002,19.751 10.001 L 19.321 10.000 19.200 9.759 C 18.798 8.964,18.014 8.026,17.300 7.486 L 17.020 7.274 17.000 5.484 L 16.980 3.694 16.860 3.502 C 16.624 3.125,16.169 2.929,15.770 3.033 C 15.634 3.069,14.959 3.497,13.390 4.541 C 12.062 5.426,11.163 6.000,11.106 6.000 C 11.017 6.000,11.011 5.983,10.988 5.670 C 10.920 4.748,10.454 3.765,9.780 3.126 C 8.844 2.237,7.548 1.839,6.311 2.063 M7.408 4.044 C 8.161 4.201,8.816 4.872,8.959 5.635 C 9.029 6.007,9.049 5.986,8.610 6.016 C 7.395 6.102,6.784 6.290,5.316 7.031 C 5.264 7.057,5.079 6.556,5.037 6.272 C 4.837 4.928,6.073 3.766,7.408 4.044 M15.077 8.200 C 15.207 8.430,15.317 8.535,15.717 8.810 C 16.663 9.459,17.233 10.173,17.700 11.293 C 17.832 11.609,18.096 11.876,18.351 11.952 C 18.449 11.982,18.794 12.000,19.255 12.000 L 20.000 12.000 20.000 12.997 L 20.000 13.994 19.190 14.007 C 18.450 14.019,18.366 14.027,18.220 14.106 C 17.981 14.235,17.814 14.432,17.697 14.720 C 17.394 15.467,17.084 15.947,16.547 16.507 C 15.987 17.090,16.000 17.043,16.000 18.470 C 16.000 19.540,15.994 19.629,15.922 19.748 C 15.720 20.078,15.258 20.074,15.066 19.740 C 15.041 19.696,15.011 19.426,15.000 19.140 C 14.980 18.661,14.970 18.604,14.867 18.428 C 14.805 18.323,14.681 18.183,14.591 18.118 C 14.337 17.934,14.165 17.902,13.700 17.955 C 13.447 17.984,12.454 18.000,11.000 18.000 C 9.546 18.000,8.553 17.984,8.300 17.955 C 7.835 17.902,7.663 17.934,7.409 18.118 C 7.319 18.183,7.195 18.323,7.133 18.428 C 7.030 18.604,7.020 18.661,7.000 19.140 C 6.978 19.708,6.948 19.800,6.747 19.922 C 6.511 20.066,6.253 20.004,6.091 19.764 C 6.002 19.630,6.000 19.609,6.000 18.481 C 6.000 17.051,6.010 17.090,5.498 16.561 C 4.728 15.766,4.316 15.003,4.093 13.960 C 4.037 13.700,4.021 13.460,4.024 12.940 C 4.029 12.315,4.039 12.221,4.154 11.780 C 4.306 11.199,4.647 10.479,4.989 10.018 C 5.717 9.038,6.852 8.329,8.100 8.076 C 8.253 8.045,8.961 8.019,10.060 8.004 C 11.733 7.981,11.784 7.978,11.940 7.892 C 12.028 7.844,12.748 7.372,13.540 6.842 L 14.980 5.880 15.000 6.990 C 15.015 7.843,15.033 8.123,15.077 8.200 M14.695 10.057 C 14.466 10.129,14.256 10.299,14.128 10.516 C 14.036 10.672,14.020 10.745,14.021 11.000 C 14.022 11.332,14.101 11.533,14.306 11.728 C 14.785 12.181,15.580 12.046,15.893 11.460 C 16.025 11.211,16.015 10.760,15.872 10.516 C 15.628 10.101,15.150 9.915,14.695 10.057 " stroke="none" fill-rule="evenodd" fill="black"></path></svg>