<svg xmlns="http://www.w3.org/2000/svg" width="24" height="24" viewBox="0 0 24 24" fill="none" stroke="currentColor" stroke-width="2" stroke-linecap="round" stroke-linejoin="round"><path d="M2.670 2.061 C 2.448 2.142,2.250 2.309,2.128 2.516 C 2.036 2.672,2.020 2.745,2.021 3.000 C 2.021 3.213,2.043 3.341,2.095 3.440 C 2.136 3.517,2.783 4.196,3.533 4.949 C 4.335 5.754,4.881 6.332,4.859 6.352 C 4.837 6.370,4.692 6.487,4.534 6.613 C 3.767 7.228,3.011 8.224,2.601 9.160 C 1.751 11.101,1.803 13.229,2.747 15.140 C 3.027 15.707,3.306 16.120,3.763 16.643 L 3.993 16.905 4.008 17.963 C 4.022 18.993,4.025 19.028,4.130 19.319 C 4.393 20.047,5.007 20.648,5.727 20.884 C 5.975 20.965,6.096 20.980,6.520 20.978 C 6.960 20.976,7.056 20.962,7.320 20.867 C 8.104 20.583,8.755 19.878,8.917 19.140 L 8.943 19.020 10.987 19.010 L 13.030 18.999 13.122 19.288 C 13.353 20.004,13.997 20.645,14.727 20.884 C 14.975 20.965,15.096 20.980,15.520 20.978 C 15.960 20.976,16.056 20.962,16.320 20.867 C 16.967 20.632,17.563 20.083,17.783 19.520 C 17.821 19.421,17.860 19.332,17.868 19.322 C 17.876 19.312,18.453 19.873,19.151 20.568 C 19.849 21.263,20.483 21.864,20.560 21.905 C 20.659 21.957,20.787 21.979,21.000 21.979 C 21.258 21.980,21.327 21.964,21.492 21.867 C 21.968 21.587,22.139 20.967,21.865 20.508 C 21.810 20.416,17.665 16.243,12.653 11.235 C 4.231 2.820,3.525 2.125,3.343 2.065 C 3.107 1.987,2.874 1.986,2.670 2.061 M15.676 2.059 C 15.597 2.088,14.557 2.762,13.366 3.556 L 11.201 5.000 10.547 5.000 C 9.639 5.000,9.375 5.096,9.128 5.516 C 9.037 5.672,9.020 5.746,9.020 6.000 C 9.020 6.256,9.036 6.328,9.131 6.489 C 9.256 6.702,9.449 6.864,9.670 6.943 C 9.857 7.010,11.542 7.021,11.773 6.957 C 11.857 6.934,12.613 6.457,13.453 5.898 L 14.980 4.881 15.000 5.990 C 15.021 7.151,15.020 7.147,15.214 7.410 C 15.259 7.471,15.485 7.651,15.717 7.810 C 16.658 8.456,17.229 9.166,17.679 10.249 C 17.826 10.604,18.082 10.872,18.351 10.952 C 18.449 10.982,18.794 11.000,19.255 11.000 L 20.000 11.000 20.000 11.997 L 20.000 12.994 19.190 13.007 C 18.287 13.021,18.204 13.043,17.927 13.331 C 17.736 13.531,17.480 14.187,17.480 14.477 C 17.481 14.763,17.617 15.062,17.825 15.234 C 17.985 15.366,18.290 15.480,18.486 15.480 C 18.685 15.480,19.017 15.327,19.180 15.160 L 19.336 15.000 19.798 14.998 C 20.099 14.996,20.352 14.971,20.523 14.927 C 21.199 14.750,21.785 14.150,21.938 13.478 C 22.032 13.064,22.024 10.849,21.927 10.477 C 21.837 10.134,21.634 9.802,21.358 9.546 C 20.922 9.142,20.509 9.002,19.751 9.001 L 19.321 9.000 19.200 8.759 C 18.795 7.957,17.972 6.978,17.269 6.462 L 17.000 6.265 17.000 4.559 C 17.000 2.628,16.997 2.608,16.704 2.306 C 16.436 2.031,16.022 1.931,15.676 2.059 M16.000 18.020 C 16.000 18.545,15.990 18.636,15.922 18.748 C 15.720 19.078,15.258 19.074,15.066 18.740 C 15.041 18.696,15.011 18.426,15.000 18.140 C 14.980 17.661,14.970 17.604,14.867 17.428 C 14.805 17.323,14.681 17.183,14.591 17.118 C 14.337 16.934,14.165 16.902,13.700 16.955 C 13.447 16.984,12.454 17.000,11.000 17.000 C 9.546 17.000,8.553 16.984,8.300 16.955 C 7.835 16.902,7.663 16.934,7.409 17.118 C 7.319 17.183,7.195 17.323,7.133 17.428 C 7.030 17.604,7.020 17.661,7.000 18.140 C 6.978 18.708,6.948 18.800,6.747 18.922 C 6.511 19.066,6.253 19.004,6.091 18.764 C 6.002 18.630,6.000 18.609,6.000 17.481 C 6.000 16.045,6.017 16.108,5.458 15.516 C 4.709 14.724,4.309 13.974,4.093 12.960 C 3.993 12.489,3.993 11.511,4.093 11.040 C 4.357 9.799,5.040 8.717,6.017 7.990 L 6.334 7.754 11.167 12.587 L 16.000 17.420 16.000 18.020 M14.695 10.057 C 14.466 10.129,14.256 10.299,14.128 10.516 C 14.036 10.672,14.020 10.745,14.021 11.000 C 14.022 11.332,14.101 11.533,14.306 11.728 C 14.785 12.181,15.580 12.046,15.893 11.460 C 16.025 11.211,16.015 10.760,15.872 10.516 C 15.628 10.101,15.150 9.915,14.695 10.057 " stroke="none" fill-rule="evenodd" fill="black"></path></svg>