<svg xmlns="http://www.w3.org/2000/svg" width="24" height="24" viewBox="0 0 24 24" fill="none" stroke="currentColor" stroke-width="2" stroke-linecap="round" stroke-linejoin="round"><path d="M8.358 2.061 C 7.230 2.237,6.143 2.974,5.569 3.953 C 4.320 6.083,5.233 8.785,7.512 9.704 C 8.058 9.924,8.521 10.000,9.315 10.000 L 9.997 10.000 10.009 12.153 L 10.020 14.306 10.141 14.503 C 10.543 15.156,11.457 15.156,11.859 14.503 L 11.980 14.306 11.991 9.153 L 12.001 4.000 13.000 4.000 L 13.999 4.000 14.009 9.153 L 14.020 14.306 14.141 14.503 C 14.543 15.156,15.457 15.156,15.859 14.503 L 15.980 14.306 15.991 9.158 L 16.001 4.009 16.179 3.982 C 16.423 3.946,16.712 3.741,16.859 3.503 C 16.966 3.329,16.980 3.271,16.980 3.003 C 16.980 2.746,16.964 2.672,16.872 2.516 C 16.740 2.293,16.533 2.128,16.290 2.055 C 16.027 1.976,8.868 1.982,8.358 2.061 M10.000 6.000 L 10.000 8.000 9.368 8.000 C 8.460 8.000,8.112 7.892,7.653 7.465 C 6.665 6.547,6.829 4.981,7.987 4.279 C 8.341 4.065,8.640 4.005,9.370 4.002 L 10.000 4.000 10.000 6.000 M17.670 14.061 C 17.448 14.142,17.250 14.309,17.128 14.516 C 17.036 14.672,17.020 14.745,17.021 15.000 C 17.021 15.213,17.043 15.340,17.096 15.440 C 17.136 15.517,17.486 15.900,17.873 16.290 L 18.577 17.000 10.735 17.000 C 4.206 17.000,2.862 17.009,2.710 17.055 C 2.467 17.128,2.260 17.293,2.128 17.516 C 2.037 17.672,2.020 17.746,2.020 18.000 C 2.020 18.256,2.036 18.328,2.131 18.489 C 2.256 18.702,2.449 18.864,2.670 18.943 C 2.793 18.987,4.221 18.997,10.699 18.998 L 18.577 19.000 17.873 19.710 C 17.486 20.101,17.139 20.481,17.101 20.555 C 16.872 21.008,17.056 21.601,17.508 21.867 C 17.673 21.964,17.742 21.980,18.000 21.979 C 18.212 21.979,18.341 21.957,18.440 21.905 C 18.517 21.865,19.306 21.109,20.194 20.226 C 21.957 18.472,21.999 18.420,21.999 18.000 C 21.999 17.578,21.960 17.530,20.175 15.756 C 18.716 14.307,18.519 14.124,18.343 14.066 C 18.108 13.987,17.875 13.986,17.670 14.061 " stroke="none" fill-rule="evenodd" fill="black"></path></svg>