<svg xmlns="http://www.w3.org/2000/svg" width="24" height="24" viewBox="0 0 24 24" fill="none" stroke="currentColor" stroke-width="2" stroke-linecap="round" stroke-linejoin="round"><path d="M2.670 2.061 C 2.448 2.142,2.250 2.309,2.128 2.516 C 2.037 2.672,2.020 2.746,2.020 3.000 C 2.020 3.254,2.036 3.327,2.127 3.480 C 2.187 3.580,3.310 4.733,4.656 6.079 L 7.078 8.498 5.286 10.299 C 3.268 12.327,3.019 12.626,2.624 13.493 C 1.480 16.007,2.206 18.969,4.380 20.658 C 6.302 22.150,8.927 22.329,11.019 21.109 C 11.600 20.770,11.937 20.470,13.701 18.714 L 15.502 16.922 17.921 19.344 C 19.267 20.690,20.420 21.813,20.520 21.873 C 20.673 21.964,20.746 21.980,21.000 21.980 C 21.257 21.980,21.327 21.964,21.492 21.867 C 21.968 21.587,22.139 20.967,21.865 20.508 C 21.810 20.416,17.665 16.243,12.653 11.235 C 4.231 2.820,3.525 2.125,3.343 2.065 C 3.107 1.987,2.874 1.986,2.670 2.061 M15.460 2.123 C 14.162 2.225,12.966 2.748,11.954 3.655 C 11.283 4.257,9.659 5.930,9.580 6.100 C 9.489 6.297,9.483 6.683,9.569 6.883 C 9.785 7.388,10.417 7.643,10.900 7.420 C 11.003 7.373,11.484 6.928,12.240 6.180 C 12.889 5.539,13.492 4.959,13.580 4.892 C 13.997 4.573,14.621 4.289,15.140 4.180 C 15.560 4.092,16.355 4.091,16.768 4.178 C 18.289 4.498,19.502 5.711,19.822 7.232 C 19.908 7.639,19.908 8.441,19.822 8.848 C 19.712 9.375,19.425 10.005,19.108 10.420 C 19.041 10.508,18.461 11.111,17.820 11.760 C 17.072 12.516,16.627 12.997,16.580 13.100 C 16.489 13.297,16.483 13.683,16.569 13.883 C 16.785 14.387,17.414 14.642,17.900 14.422 C 18.007 14.373,18.475 13.932,19.321 13.085 C 20.666 11.735,20.920 11.424,21.285 10.680 C 22.476 8.250,21.909 5.367,19.890 3.586 C 19.137 2.922,18.133 2.415,17.185 2.222 C 16.929 2.169,15.955 2.069,15.880 2.087 C 15.869 2.089,15.680 2.106,15.460 2.123 M12.370 17.212 C 11.429 18.154,10.543 19.014,10.400 19.122 C 8.661 20.441,6.157 20.071,4.849 18.300 C 4.091 17.275,3.881 15.856,4.309 14.660 C 4.594 13.865,4.709 13.725,6.716 11.710 L 8.499 9.919 11.289 12.709 L 14.080 15.500 12.370 17.212 " stroke="none" fill-rule="evenodd" fill="black"></path></svg>