<svg xmlns="http://www.w3.org/2000/svg" width="24" height="24" viewBox="0 0 24 24" fill="none" stroke="currentColor" stroke-width="2" stroke-linecap="round" stroke-linejoin="round"><path d="M3.477 4.073 C 2.806 4.249,2.238 4.823,2.060 5.508 C 2.008 5.706,2.000 6.577,2.000 12.000 C 2.000 18.828,1.988 18.462,2.225 18.930 C 2.361 19.199,2.801 19.639,3.070 19.775 C 3.542 20.014,2.983 20.000,12.000 20.000 C 21.017 20.000,20.458 20.014,20.930 19.775 C 21.196 19.640,21.638 19.200,21.771 18.937 C 22.004 18.478,22.003 18.493,21.991 15.470 L 21.980 12.700 21.871 12.514 C 21.479 11.848,20.521 11.848,20.129 12.514 L 20.020 12.700 20.009 15.350 L 19.998 18.000 11.999 18.000 L 4.000 18.000 4.000 12.000 L 4.000 6.000 8.590 5.998 C 12.320 5.997,13.208 5.986,13.330 5.943 C 13.551 5.864,13.744 5.702,13.869 5.489 C 13.964 5.328,13.980 5.256,13.980 5.000 C 13.980 4.746,13.963 4.672,13.872 4.516 C 13.813 4.415,13.698 4.282,13.618 4.221 C 13.317 3.992,13.509 4.000,8.424 4.002 C 4.130 4.004,3.718 4.010,3.477 4.073 M18.499 4.040 C 17.363 4.246,16.460 5.049,16.114 6.160 C 15.979 6.594,15.979 7.406,16.114 7.840 C 16.421 8.826,17.174 9.579,18.160 9.886 C 18.594 10.021,19.406 10.021,19.840 9.886 C 20.826 9.579,21.579 8.826,21.886 7.840 C 22.021 7.406,22.021 6.594,21.886 6.160 C 21.581 5.179,20.810 4.407,19.861 4.129 C 19.500 4.023,18.832 3.980,18.499 4.040 M19.310 6.061 C 19.688 6.173,20.000 6.598,20.000 7.001 C 20.000 7.331,19.784 7.696,19.484 7.872 C 19.328 7.963,19.254 7.980,19.000 7.980 C 18.746 7.980,18.672 7.963,18.516 7.872 C 17.935 7.530,17.833 6.774,18.304 6.303 C 18.583 6.024,18.916 5.944,19.310 6.061 M9.695 10.057 C 9.466 10.129,9.256 10.299,9.128 10.516 C 9.037 10.672,9.020 10.746,9.020 11.000 C 9.020 11.256,9.036 11.328,9.131 11.489 C 9.192 11.592,9.304 11.725,9.381 11.783 C 9.635 11.977,9.753 11.996,10.699 11.998 L 11.578 12.000 10.374 13.210 C 9.711 13.876,9.138 14.481,9.101 14.555 C 8.872 15.009,9.056 15.601,9.508 15.867 C 9.673 15.964,9.742 15.980,10.000 15.979 C 10.213 15.979,10.341 15.957,10.440 15.905 C 10.517 15.864,11.123 15.290,11.787 14.629 L 12.995 13.427 13.007 14.367 L 13.020 15.307 13.141 15.503 C 13.543 16.156,14.457 16.156,14.859 15.503 L 14.980 15.306 14.991 13.063 C 15.002 11.053,14.996 10.802,14.937 10.646 C 14.845 10.405,14.657 10.204,14.420 10.094 L 14.220 10.001 12.040 10.003 C 10.374 10.005,9.821 10.018,9.695 10.057 " stroke="none" fill-rule="evenodd" fill="black"></path></svg>