<svg xmlns="http://www.w3.org/2000/svg" width="24" height="24" viewBox="0 0 24 24" fill="none" stroke="currentColor" stroke-width="2" stroke-linecap="round" stroke-linejoin="round"><path d="M14.240 3.035 C 13.940 3.133,13.688 3.355,13.579 3.617 C 13.500 3.806,13.491 4.132,13.560 4.339 L 13.610 4.490 12.037 6.063 L 10.465 7.636 8.462 8.385 L 6.460 9.134 5.626 9.957 C 5.168 10.410,4.743 10.852,4.681 10.940 C 4.465 11.252,4.452 11.724,4.651 12.020 C 4.695 12.086,5.372 12.784,6.156 13.570 L 7.580 15.000 5.655 16.930 C 4.597 17.992,3.695 18.914,3.651 18.980 C 3.373 19.393,3.510 20.024,3.940 20.320 C 4.238 20.525,4.740 20.540,5.017 20.352 C 5.085 20.306,6.008 19.403,7.070 18.345 L 9.000 16.420 10.430 17.844 C 11.216 18.628,11.915 19.306,11.981 19.351 C 12.259 19.539,12.763 19.525,13.055 19.322 C 13.287 19.160,14.819 17.605,14.889 17.460 C 14.921 17.394,15.267 16.482,15.659 15.434 L 16.371 13.528 17.941 11.959 L 19.510 10.390 19.661 10.440 C 19.868 10.509,20.194 10.500,20.383 10.421 C 20.730 10.277,20.999 9.874,20.999 9.500 C 20.999 9.086,21.034 9.125,17.947 6.042 C 16.316 4.414,15.021 3.152,14.936 3.108 C 14.771 3.023,14.396 2.984,14.240 3.035 M16.560 7.460 L 18.099 9.000 16.356 10.750 L 14.612 12.500 13.882 14.460 L 13.152 16.420 12.826 16.750 L 12.500 17.080 9.709 14.289 L 6.919 11.499 7.250 11.174 L 7.580 10.849 9.540 10.118 L 11.500 9.388 13.240 7.654 C 14.197 6.701,14.989 5.920,15.000 5.920 C 15.011 5.920,15.713 6.613,16.560 7.460 " stroke="none" fill-rule="evenodd" fill="black"></path></svg>