<svg xmlns="http://www.w3.org/2000/svg" width="24" height="24" viewBox="0 0 24 24" fill="none" stroke="currentColor" stroke-width="2" stroke-linecap="round" stroke-linejoin="round"><path d="M18.482 2.041 C 17.832 2.131,17.288 2.401,16.764 2.892 C 16.575 3.070,16.073 3.559,15.650 3.978 L 14.880 4.739 14.690 4.666 C 13.897 4.362,13.291 4.197,12.600 4.099 C 10.210 3.760,7.871 4.400,5.939 5.921 C 5.513 6.256,4.165 7.614,3.836 8.040 C 2.928 9.213,2.363 10.525,2.095 12.080 C 1.994 12.663,1.994 14.044,2.094 14.640 C 2.415 16.552,3.221 18.141,4.540 19.460 C 6.252 21.172,8.530 22.072,10.940 21.988 C 11.338 21.974,11.761 21.932,12.060 21.877 C 12.640 21.769,12.658 21.769,13.060 21.879 C 13.548 22.012,14.231 22.030,14.744 21.924 C 16.125 21.639,17.188 20.763,17.705 19.484 C 17.840 19.150,18.000 18.479,18.000 18.246 C 18.000 18.179,18.018 18.114,18.040 18.100 C 18.108 18.058,18.502 17.509,18.732 17.135 C 19.317 16.185,19.704 15.125,19.906 13.920 C 20.005 13.332,20.005 11.947,19.906 11.360 C 19.806 10.766,19.673 10.253,19.480 9.720 C 19.389 9.467,19.304 9.227,19.291 9.186 C 19.274 9.130,19.458 8.921,20.067 8.306 C 21.302 7.060,21.441 6.899,21.654 6.474 C 21.916 5.949,21.979 5.681,21.976 5.100 C 21.974 4.527,21.901 4.193,21.681 3.740 C 21.298 2.953,20.483 2.286,19.680 2.103 C 19.334 2.025,18.800 1.997,18.482 2.041 M19.346 4.101 C 19.537 4.179,19.785 4.423,19.886 4.633 C 20.013 4.894,20.012 5.309,19.883 5.557 C 19.826 5.668,19.308 6.227,18.511 7.037 C 17.807 7.754,17.194 8.412,17.147 8.500 C 17.083 8.620,17.063 8.729,17.064 8.940 C 17.066 9.200,17.083 9.256,17.311 9.721 C 17.712 10.543,17.921 11.312,17.980 12.180 L 18.007 12.580 14.723 9.300 C 11.020 5.602,11.303 5.954,12.100 6.040 C 12.562 6.090,13.269 6.255,13.641 6.399 C 13.761 6.446,14.076 6.586,14.340 6.712 C 14.774 6.918,14.845 6.940,15.080 6.938 C 15.266 6.937,15.386 6.913,15.502 6.852 C 15.591 6.805,16.249 6.191,16.965 5.488 C 17.681 4.784,18.324 4.180,18.392 4.144 C 18.673 3.999,19.056 3.981,19.346 4.101 M13.296 10.716 L 17.572 14.992 17.484 15.206 C 17.435 15.324,17.365 15.478,17.328 15.548 L 17.260 15.676 17.043 15.413 C 16.636 14.918,15.910 14.429,15.245 14.203 C 14.950 14.103,14.320 14.000,14.000 14.000 C 13.678 14.000,13.049 14.103,12.755 14.204 C 10.825 14.865,9.684 16.815,10.082 18.772 C 10.158 19.141,10.394 19.806,10.483 19.898 C 10.503 19.919,10.520 19.950,10.520 19.968 C 10.520 20.050,9.669 19.961,9.120 19.822 C 7.424 19.392,6.073 18.460,5.154 17.086 C 4.828 16.597,4.453 15.842,4.308 15.379 C 3.672 13.353,4.056 11.069,5.312 9.402 C 5.453 9.214,5.878 8.748,6.255 8.367 C 7.183 7.429,7.638 7.078,8.440 6.679 C 8.839 6.481,8.915 6.448,8.980 6.443 C 9.002 6.441,10.944 8.364,13.296 10.716 M14.523 16.073 C 15.262 16.266,15.850 16.924,15.967 17.690 C 16.067 18.343,15.873 18.933,15.403 19.404 C 15.002 19.807,14.547 20.000,14.000 20.000 C 13.485 20.000,13.038 19.822,12.653 19.465 C 11.323 18.229,12.189 16.005,14.000 16.005 C 14.143 16.005,14.378 16.036,14.523 16.073 " stroke="none" fill-rule="evenodd" fill="black"></path></svg>