<svg xmlns="http://www.w3.org/2000/svg" width="24" height="24" viewBox="0 0 24 24" fill="none" stroke="currentColor" stroke-width="2" stroke-linecap="round" stroke-linejoin="round"><path d="M7.695 3.057 C 7.466 3.129,7.256 3.299,7.128 3.516 C 7.036 3.672,7.020 3.746,7.020 4.003 C 7.020 4.271,7.034 4.329,7.141 4.503 C 7.288 4.742,7.578 4.946,7.821 4.982 L 8.000 5.009 8.000 7.385 L 8.000 9.760 7.010 11.730 L 6.020 13.700 6.020 15.000 L 6.020 16.300 6.131 16.489 C 6.256 16.702,6.449 16.864,6.670 16.943 C 6.788 16.985,7.269 16.997,8.909 16.998 L 10.997 17.000 11.009 19.153 L 11.020 21.306 11.141 21.503 C 11.209 21.613,11.346 21.756,11.452 21.828 C 11.923 22.144,12.554 21.999,12.859 21.503 L 12.980 21.306 12.991 19.153 L 13.003 17.000 15.091 16.998 C 16.731 16.997,17.212 16.985,17.330 16.943 C 17.551 16.864,17.744 16.702,17.869 16.489 L 17.980 16.300 17.980 15.012 L 17.980 13.724 16.990 11.741 L 16.000 9.758 16.000 7.384 L 16.000 5.009 16.179 4.982 C 16.422 4.946,16.712 4.742,16.859 4.503 C 16.966 4.329,16.980 4.271,16.980 4.003 C 16.980 3.746,16.964 3.672,16.872 3.516 C 16.740 3.293,16.533 3.128,16.290 3.055 C 16.029 2.976,7.946 2.979,7.695 3.057 M14.009 7.638 L 14.020 10.276 15.010 12.259 L 16.000 14.242 16.000 14.621 L 16.000 15.000 12.000 15.000 L 8.000 15.000 8.000 14.621 L 8.000 14.242 8.990 12.259 L 9.980 10.276 9.991 7.638 L 10.002 5.000 12.000 5.000 L 13.998 5.000 14.009 7.638 " stroke="none" fill-rule="evenodd" fill="black"></path></svg>