<svg xmlns="http://www.w3.org/2000/svg" width="24" height="24" viewBox="0 0 24 24" fill="none" stroke="currentColor" stroke-width="2" stroke-linecap="round" stroke-linejoin="round"><path d="M11.644 2.066 C 11.547 2.102,11.395 2.205,11.306 2.295 C 11.148 2.458,10.944 2.850,4.130 16.100 C 2.360 19.542,2.507 19.235,2.508 19.503 C 2.509 20.013,2.705 20.242,3.440 20.591 C 5.575 21.607,7.959 22.239,10.417 22.441 C 11.137 22.500,12.863 22.500,13.580 22.441 C 15.163 22.311,16.760 21.996,18.180 21.532 C 19.345 21.152,20.944 20.466,21.173 20.248 C 21.434 19.998,21.550 19.652,21.479 19.334 C 21.431 19.123,12.936 2.580,12.762 2.360 C 12.528 2.064,12.016 1.929,11.644 2.066 M14.659 10.357 C 16.107 13.171,17.292 15.489,17.293 15.507 C 17.295 15.587,16.053 15.984,15.200 16.175 C 13.349 16.589,11.146 16.598,9.280 16.198 C 8.294 15.986,6.728 15.467,6.767 15.365 C 6.823 15.217,11.979 5.240,11.999 5.240 C 12.014 5.240,13.210 7.543,14.659 10.357 M12.695 10.057 C 12.466 10.129,12.256 10.299,12.128 10.516 C 12.036 10.672,12.020 10.745,12.021 11.000 C 12.022 11.332,12.101 11.533,12.306 11.728 C 12.785 12.181,13.580 12.046,13.893 11.460 C 14.025 11.211,14.015 10.760,13.872 10.516 C 13.628 10.101,13.150 9.915,12.695 10.057 M10.600 13.083 C 10.203 13.263,10.022 13.549,10.021 14.003 C 10.020 14.271,10.034 14.329,10.141 14.503 C 10.543 15.156,11.457 15.156,11.859 14.503 C 11.966 14.329,11.980 14.271,11.979 14.003 C 11.978 13.772,11.958 13.662,11.893 13.540 C 11.714 13.205,11.377 13.002,11.000 13.002 C 10.864 13.002,10.711 13.033,10.600 13.083 M6.164 17.323 C 6.604 17.506,7.540 17.820,8.050 17.957 C 8.831 18.166,9.468 18.284,10.540 18.421 C 10.628 18.432,11.038 18.457,11.450 18.477 C 13.577 18.575,15.677 18.260,17.622 17.548 C 17.951 17.428,18.232 17.340,18.247 17.355 C 18.290 17.396,19.130 19.043,19.114 19.056 C 19.107 19.062,18.883 19.151,18.617 19.254 C 16.921 19.910,15.309 20.285,13.500 20.442 C 12.833 20.499,11.171 20.499,10.500 20.441 C 8.695 20.285,7.086 19.914,5.420 19.270 C 5.134 19.159,4.894 19.063,4.886 19.057 C 4.865 19.039,5.815 17.200,5.844 17.200 C 5.858 17.200,6.002 17.255,6.164 17.323 " stroke="none" fill-rule="evenodd" fill="black"></path></svg>