<svg xmlns="http://www.w3.org/2000/svg" width="24" height="24" viewBox="0 0 24 24" fill="none" stroke="currentColor" stroke-width="2" stroke-linecap="round" stroke-linejoin="round"><path d="M12.640 1.069 C 12.488 1.121,12.205 1.384,10.825 2.755 C 9.040 4.530,9.001 4.578,9.001 5.000 C 9.001 5.420,9.043 5.472,10.806 7.226 C 11.694 8.109,12.481 8.862,12.555 8.899 C 13.010 9.128,13.601 8.944,13.867 8.492 C 13.964 8.327,13.980 8.258,13.979 8.000 C 13.979 7.787,13.957 7.660,13.904 7.560 C 13.864 7.483,13.513 7.098,13.125 6.705 L 12.420 5.990 13.100 6.013 C 14.258 6.051,15.052 6.235,15.987 6.680 C 17.643 7.468,18.878 8.800,19.538 10.509 C 20.046 11.824,20.133 13.328,19.782 14.721 C 19.230 16.907,17.579 18.772,15.520 19.533 C 13.874 20.142,12.282 20.155,10.620 19.574 C 10.349 19.479,10.147 19.433,9.995 19.433 C 9.077 19.429,8.658 20.570,9.357 21.168 C 9.627 21.399,10.693 21.746,11.615 21.904 C 12.197 22.003,13.359 22.022,14.000 21.944 C 15.092 21.810,16.011 21.538,16.980 21.062 C 17.643 20.737,18.203 20.377,18.720 19.945 C 20.775 18.227,21.903 15.912,21.988 13.240 C 22.023 12.114,21.896 11.243,21.539 10.174 C 20.759 7.837,19.158 6.008,16.940 4.918 C 15.683 4.301,14.335 4.000,12.823 4.000 L 12.423 4.000 13.127 3.290 C 13.514 2.899,13.864 2.517,13.904 2.440 C 13.957 2.340,13.979 2.213,13.979 2.000 C 13.980 1.745,13.964 1.672,13.872 1.516 C 13.617 1.083,13.121 0.902,12.640 1.069 M6.640 8.068 C 6.486 8.121,6.151 8.438,4.347 10.235 C 3.166 11.411,2.187 12.419,2.127 12.520 C 2.037 12.672,2.020 12.746,2.020 13.000 C 2.020 13.254,2.036 13.328,2.127 13.480 C 2.261 13.705,6.368 17.805,6.560 17.905 C 6.659 17.957,6.788 17.979,7.000 17.979 C 7.255 17.980,7.327 17.964,7.480 17.873 C 7.705 17.739,11.805 13.632,11.905 13.440 C 11.957 13.341,11.979 13.212,11.979 13.000 C 11.980 12.745,11.964 12.673,11.873 12.520 C 11.813 12.419,10.834 11.412,9.653 10.235 C 7.748 8.338,7.521 8.124,7.343 8.065 C 7.102 7.985,6.878 7.986,6.640 8.068 M8.300 11.720 L 9.580 13.000 8.290 14.290 L 7.000 15.580 5.710 14.290 L 4.420 13.000 5.700 11.720 C 6.404 11.016,6.989 10.440,7.000 10.440 C 7.011 10.440,7.596 11.016,8.300 11.720 " stroke="none" fill-rule="evenodd" fill="black"></path></svg>