<svg xmlns="http://www.w3.org/2000/svg" width="24" height="24" viewBox="0 0 24 24" fill="none" stroke="currentColor" stroke-width="2" stroke-linecap="round" stroke-linejoin="round"><path d="M18.500 2.026 C 18.019 2.103,17.545 2.299,17.171 2.575 C 17.044 2.669,16.335 3.334,15.595 4.051 L 14.249 5.356 10.715 4.178 C 8.734 3.518,7.117 3.000,7.037 3.000 C 6.959 3.000,6.797 3.029,6.677 3.064 C 6.471 3.124,6.389 3.198,5.087 4.494 C 3.694 5.879,3.565 6.032,3.504 6.371 C 3.459 6.617,3.584 6.986,3.778 7.179 C 3.897 7.297,4.652 7.722,6.611 8.775 C 8.080 9.565,9.290 10.223,9.299 10.238 C 9.308 10.253,8.925 10.655,8.448 11.131 L 7.580 11.997 6.160 12.009 C 4.855 12.019,4.727 12.026,4.580 12.097 C 4.377 12.195,2.275 14.271,2.127 14.520 C 1.977 14.773,1.975 15.174,2.122 15.460 C 2.308 15.822,2.356 15.844,4.629 16.603 L 6.706 17.295 7.395 19.365 C 7.884 20.833,8.118 21.481,8.201 21.594 C 8.264 21.683,8.403 21.805,8.508 21.867 C 8.673 21.964,8.743 21.980,9.000 21.980 C 9.253 21.980,9.328 21.963,9.480 21.873 C 9.579 21.815,10.157 21.266,10.764 20.653 C 11.729 19.680,11.876 19.515,11.934 19.343 C 11.990 19.175,12.000 18.944,12.000 17.783 L 12.000 16.419 12.876 15.544 C 13.735 14.686,13.752 14.671,13.804 14.765 C 13.832 14.817,14.480 16.030,15.242 17.460 C 16.780 20.345,16.803 20.380,17.221 20.502 C 17.469 20.574,17.654 20.562,17.920 20.455 C 18.039 20.408,18.433 20.030,19.473 18.965 C 20.971 17.431,21.000 17.393,21.000 16.983 C 21.000 16.876,20.592 15.595,19.822 13.285 L 18.644 9.751 19.985 8.365 C 21.338 6.969,21.598 6.656,21.780 6.209 C 22.108 5.401,22.060 4.414,21.656 3.639 C 21.284 2.927,20.560 2.334,19.800 2.120 C 19.503 2.037,18.765 1.983,18.500 2.026 M19.278 4.063 C 19.867 4.238,20.165 4.962,19.878 5.523 C 19.803 5.671,19.176 6.337,17.131 8.442 C 16.630 8.959,16.504 9.172,16.507 9.502 C 16.508 9.656,16.783 10.527,17.678 13.213 L 18.847 16.722 18.566 17.031 C 18.412 17.201,18.163 17.461,18.013 17.608 L 17.740 17.877 16.300 15.171 C 15.234 13.168,14.818 12.422,14.696 12.298 C 14.400 11.995,13.946 11.923,13.545 12.118 C 13.434 12.171,12.839 12.740,11.755 13.829 C 10.305 15.285,10.124 15.481,10.066 15.657 C 10.010 15.824,10.000 16.060,10.000 17.218 L 10.000 18.582 9.722 18.858 C 9.526 19.053,9.437 19.118,9.421 19.077 C 9.410 19.046,9.185 18.375,8.922 17.587 C 8.659 16.799,8.399 16.077,8.343 15.982 C 8.171 15.688,7.987 15.602,6.406 15.077 C 5.600 14.809,4.925 14.580,4.906 14.570 C 4.887 14.559,4.995 14.426,5.145 14.275 L 5.418 14.000 6.782 14.000 C 7.940 14.000,8.175 13.990,8.343 13.934 C 8.519 13.876,8.714 13.695,10.153 12.264 C 11.040 11.382,11.814 10.579,11.873 10.480 C 11.963 10.328,11.980 10.254,11.980 10.000 C 11.980 9.745,11.964 9.672,11.870 9.513 C 11.810 9.410,11.714 9.290,11.658 9.246 C 11.602 9.201,10.342 8.512,8.858 7.713 L 6.160 6.260 6.715 5.705 L 7.270 5.150 10.783 6.321 C 13.491 7.223,14.344 7.492,14.504 7.494 C 14.887 7.500,15.016 7.399,16.686 5.780 C 17.525 4.966,18.270 4.258,18.341 4.207 C 18.626 4.002,18.920 3.957,19.278 4.063 " stroke="none" fill-rule="evenodd" fill="black"></path></svg>