<svg xmlns="http://www.w3.org/2000/svg" width="24" height="24" viewBox="0 0 24 24" fill="none" stroke="currentColor" stroke-width="2" stroke-linecap="round" stroke-linejoin="round"><path d="M9.850 2.307 C 9.756 2.340,9.600 2.446,9.504 2.543 C 9.181 2.865,9.193 2.691,9.248 6.126 C 9.274 7.794,9.287 9.166,9.277 9.177 C 9.260 9.193,9.033 9.137,8.253 8.924 C 8.088 8.879,8.084 8.874,7.496 7.849 C 6.824 6.680,6.762 6.587,6.550 6.453 C 6.355 6.331,3.340 5.520,3.080 5.520 C 2.864 5.521,2.544 5.663,2.392 5.825 C 2.241 5.986,2.122 6.270,2.121 6.469 C 2.120 6.633,3.437 13.162,3.526 13.437 C 3.583 13.612,3.862 13.916,4.030 13.987 C 4.164 14.043,18.235 17.822,18.832 17.962 C 20.180 18.279,21.646 17.565,22.220 16.311 C 22.477 15.749,22.560 14.967,22.423 14.384 C 22.194 13.409,21.439 12.551,20.533 12.237 C 20.405 12.193,19.329 11.896,18.142 11.577 C 16.955 11.258,15.981 10.993,15.977 10.988 C 15.974 10.984,15.536 9.324,15.004 7.300 C 14.220 4.312,14.017 3.590,13.928 3.461 C 13.714 3.152,13.620 3.115,11.922 2.661 C 11.053 2.430,10.270 2.241,10.182 2.243 C 10.093 2.245,9.943 2.273,9.850 2.307 M11.777 4.693 C 12.040 4.766,12.269 4.851,12.287 4.882 C 12.305 4.914,12.744 6.560,13.264 8.540 C 13.783 10.520,14.236 12.194,14.269 12.260 C 14.355 12.432,14.517 12.596,14.689 12.684 C 14.770 12.726,15.947 13.058,17.304 13.422 C 18.661 13.786,19.829 14.108,19.899 14.137 C 20.089 14.217,20.304 14.422,20.397 14.614 C 20.505 14.836,20.508 15.234,20.405 15.462 C 20.256 15.789,19.860 16.041,19.495 16.040 C 19.352 16.039,5.387 12.320,5.335 12.269 C 5.301 12.235,4.430 7.957,4.452 7.934 C 4.463 7.924,4.664 7.965,4.899 8.026 C 5.242 8.115,5.341 8.157,5.397 8.239 C 5.435 8.294,5.723 8.784,6.035 9.327 C 6.592 10.294,6.746 10.507,6.972 10.626 C 7.118 10.702,10.179 11.520,10.319 11.520 C 10.694 11.520,11.090 11.259,11.240 10.912 L 11.332 10.700 11.306 8.940 C 11.291 7.972,11.268 6.590,11.254 5.870 C 11.238 5.095,11.242 4.560,11.264 4.560 C 11.284 4.561,11.515 4.620,11.777 4.693 M2.695 20.057 C 2.466 20.129,2.256 20.299,2.128 20.516 C 2.037 20.672,2.020 20.746,2.020 21.000 C 2.020 21.256,2.036 21.328,2.131 21.489 C 2.256 21.702,2.449 21.864,2.670 21.943 C 2.893 22.023,21.107 22.023,21.330 21.943 C 21.551 21.864,21.744 21.702,21.869 21.489 C 21.964 21.328,21.980 21.256,21.980 21.000 C 21.980 20.746,21.963 20.672,21.872 20.516 C 21.740 20.293,21.533 20.128,21.290 20.055 C 21.027 19.976,2.947 19.978,2.695 20.057 " stroke="none" fill-rule="evenodd" fill="black"></path></svg>