<svg xmlns="http://www.w3.org/2000/svg" width="24" height="24" viewBox="0 0 24 24" fill="none" stroke="currentColor" stroke-width="2" stroke-linecap="round" stroke-linejoin="round"><path d="M2.670 2.061 C 2.448 2.142,2.250 2.309,2.128 2.516 C 2.036 2.672,2.020 2.745,2.021 3.000 C 2.022 3.364,2.077 3.480,2.413 3.830 C 2.545 3.968,2.646 4.086,2.637 4.092 C 2.627 4.098,2.530 4.126,2.420 4.153 C 1.454 4.391,0.883 5.245,1.030 6.233 C 1.196 7.347,2.011 8.627,3.572 10.226 L 4.124 10.791 4.082 11.200 C 3.842 13.536,4.699 15.906,6.396 17.604 C 8.200 19.408,10.723 20.243,13.220 19.862 C 14.063 19.734,14.890 19.470,15.668 19.081 L 16.207 18.810 16.533 18.948 C 16.713 19.024,17.139 19.185,17.480 19.305 L 18.100 19.525 19.260 20.678 C 19.898 21.312,20.483 21.864,20.560 21.905 C 20.659 21.957,20.787 21.979,21.000 21.979 C 21.258 21.980,21.327 21.964,21.492 21.867 C 21.968 21.587,22.139 20.967,21.865 20.508 C 21.810 20.416,17.665 16.243,12.653 11.235 C 4.231 2.820,3.525 2.125,3.343 2.065 C 3.107 1.987,2.874 1.986,2.670 2.061 M11.360 4.025 C 11.305 4.033,11.098 4.060,10.900 4.084 C 10.441 4.140,9.825 4.287,9.403 4.441 C 8.962 4.602,8.874 4.651,8.731 4.814 C 8.246 5.366,8.510 6.238,9.221 6.435 C 9.454 6.500,9.560 6.491,9.886 6.379 C 10.720 6.094,11.477 5.975,12.217 6.014 C 13.850 6.099,15.155 6.671,16.259 7.783 C 17.044 8.574,17.559 9.492,17.818 10.558 C 18.103 11.737,18.046 12.841,17.636 14.066 C 17.489 14.505,17.495 14.689,17.666 15.004 C 17.916 15.463,18.470 15.645,18.945 15.424 L 19.151 15.328 19.351 15.534 C 19.670 15.863,20.210 16.530,20.455 16.897 C 20.787 17.396,20.954 17.752,20.996 18.053 C 21.044 18.389,21.127 18.560,21.341 18.756 C 21.652 19.043,22.094 19.100,22.477 18.901 C 22.656 18.809,22.904 18.499,22.960 18.299 C 23.031 18.047,22.985 17.627,22.840 17.195 C 22.506 16.196,21.770 15.147,20.466 13.812 L 19.912 13.244 19.956 12.916 C 20.011 12.505,20.012 11.614,19.958 11.140 C 19.795 9.713,19.266 8.359,18.435 7.240 C 18.136 6.837,17.453 6.123,17.060 5.801 C 15.903 4.856,14.437 4.238,12.920 4.059 C 12.471 4.006,11.621 3.988,11.360 4.025 M3.840 6.099 C 4.071 6.130,4.395 6.186,4.560 6.223 C 4.859 6.291,4.861 6.293,5.269 6.696 L 5.679 7.100 5.433 7.455 C 5.298 7.651,5.094 7.990,4.979 8.209 L 4.771 8.607 4.440 8.233 C 3.850 7.567,3.390 6.920,3.159 6.431 C 2.991 6.076,2.997 6.040,3.230 6.041 C 3.334 6.041,3.609 6.067,3.840 6.099 M10.640 12.065 C 12.565 13.993,14.122 15.561,14.100 15.550 C 13.298 15.144,11.039 13.727,9.760 12.827 C 8.756 12.121,7.624 11.240,6.727 10.465 C 6.293 10.090,6.301 10.133,6.561 9.543 C 6.717 9.189,7.074 8.560,7.118 8.560 C 7.130 8.560,8.715 10.137,10.640 12.065 M6.660 13.007 C 8.621 14.553,10.749 15.967,13.032 17.242 C 13.457 17.479,13.787 17.683,13.766 17.696 C 13.745 17.709,13.578 17.755,13.394 17.798 C 11.470 18.249,9.377 17.682,7.946 16.320 C 7.031 15.450,6.422 14.368,6.187 13.199 C 6.073 12.633,6.064 12.537,6.125 12.585 C 6.155 12.609,6.396 12.799,6.660 13.007 " stroke="none" fill-rule="evenodd" fill="black"></path></svg>