<svg xmlns="http://www.w3.org/2000/svg" width="24" height="24" viewBox="0 0 24 24" fill="none" stroke="currentColor" stroke-width="2" stroke-linecap="round" stroke-linejoin="round"><path d="M2.580 2.094 C 2.341 2.205,2.155 2.405,2.061 2.652 C 1.999 2.815,1.994 2.978,2.012 4.326 C 2.033 5.873,2.051 6.070,2.236 6.786 C 2.850 9.173,4.827 11.150,7.214 11.764 C 7.888 11.938,8.152 11.965,9.380 11.986 L 10.580 12.007 10.790 12.212 L 11.000 12.417 11.000 13.209 L 11.000 14.000 8.946 14.000 C 6.717 14.000,6.666 14.004,6.382 14.221 C 6.302 14.282,6.187 14.415,6.128 14.516 L 6.020 14.700 6.020 17.120 L 6.020 19.540 6.114 19.840 C 6.422 20.827,7.173 21.578,8.160 21.886 L 8.460 21.980 12.000 21.980 L 15.540 21.980 15.840 21.886 C 16.817 21.581,17.584 20.820,17.876 19.866 C 17.922 19.715,17.960 19.544,17.960 19.487 C 17.960 19.398,18.147 19.568,19.190 20.606 C 19.867 21.280,20.483 21.864,20.560 21.905 C 20.659 21.957,20.787 21.979,21.000 21.979 C 21.258 21.980,21.327 21.964,21.492 21.867 C 21.714 21.737,21.901 21.498,21.965 21.264 C 22.019 21.062,21.989 20.734,21.899 20.555 C 21.863 20.481,17.734 16.319,12.726 11.306 C 5.303 3.877,3.583 2.174,3.420 2.096 C 3.154 1.969,2.850 1.968,2.580 2.094 M6.700 2.196 C 6.516 2.281,6.301 2.483,6.214 2.652 C 6.140 2.794,6.100 3.142,6.136 3.330 C 6.174 3.535,6.386 3.828,6.574 3.938 C 6.665 3.991,6.929 4.082,7.160 4.141 C 8.149 4.390,8.948 4.852,9.622 5.564 C 10.253 6.230,10.614 6.898,10.859 7.850 C 11.006 8.421,11.097 8.577,11.395 8.765 C 11.497 8.830,11.643 8.976,11.720 9.090 C 12.058 9.591,12.767 9.666,13.208 9.248 C 13.290 9.171,13.452 8.926,13.568 8.704 C 13.846 8.175,14.149 7.773,14.566 7.380 C 15.351 6.640,16.343 6.171,17.399 6.042 C 17.585 6.019,18.247 6.000,18.869 6.000 L 20.000 6.000 20.000 6.102 C 20.000 6.334,19.910 6.988,19.840 7.262 C 19.497 8.601,18.491 9.848,17.248 10.476 C 16.934 10.634,16.382 10.821,15.980 10.904 C 15.578 10.987,15.432 11.051,15.269 11.214 C 14.674 11.809,15.021 12.822,15.848 12.907 C 16.258 12.949,17.255 12.673,18.020 12.305 C 19.980 11.362,21.340 9.643,21.836 7.480 C 21.963 6.926,22.009 6.354,21.994 5.500 C 21.980 4.712,21.978 4.697,21.871 4.514 C 21.731 4.277,21.485 4.096,21.224 4.038 C 21.081 4.006,20.448 3.998,19.100 4.011 C 17.370 4.028,17.136 4.038,16.736 4.113 C 15.288 4.385,13.910 5.139,12.888 6.218 C 12.618 6.504,12.555 6.553,12.534 6.493 C 12.447 6.242,12.206 5.735,12.049 5.470 C 11.080 3.839,9.493 2.652,7.700 2.217 C 7.221 2.101,6.919 2.094,6.700 2.196 M8.438 9.953 C 8.197 9.991,7.318 9.736,6.785 9.474 C 5.328 8.758,4.231 7.239,4.059 5.700 L 4.032 5.460 6.277 7.700 C 8.045 9.465,8.504 9.943,8.438 9.953 M15.290 16.710 L 16.000 17.421 16.000 18.264 C 16.000 19.188,15.971 19.366,15.779 19.618 C 15.718 19.698,15.585 19.813,15.484 19.872 L 15.300 19.980 12.000 19.980 L 8.700 19.980 8.516 19.872 C 8.415 19.813,8.284 19.700,8.225 19.623 C 8.006 19.336,8.000 19.283,8.000 17.575 L 8.000 16.000 11.290 16.000 L 14.581 16.000 15.290 16.710 " stroke="none" fill-rule="evenodd" fill="black"></path></svg>