<svg xmlns="http://www.w3.org/2000/svg" width="24" height="24" viewBox="0 0 24 24" fill="none" stroke="currentColor" stroke-width="2" stroke-linecap="round" stroke-linejoin="round"><path d="M2.670 2.061 C 2.448 2.142,2.250 2.309,2.128 2.516 C 2.036 2.672,2.020 2.745,2.021 3.000 C 2.021 3.212,2.043 3.341,2.095 3.440 C 2.135 3.517,3.386 4.800,4.874 6.290 C 6.654 8.073,7.553 9.000,7.501 9.000 C 7.454 9.000,7.069 8.648,6.502 8.087 C 5.952 7.542,5.515 7.143,5.420 7.097 C 5.271 7.025,5.143 7.019,3.586 7.008 C 2.149 6.998,1.881 7.006,1.693 7.060 C 1.262 7.185,0.966 7.633,1.010 8.092 C 1.026 8.256,1.209 8.654,1.955 10.148 L 2.880 12.001 1.951 13.851 L 1.023 15.700 1.021 16.000 C 1.020 16.257,1.036 16.327,1.131 16.489 C 1.192 16.592,1.304 16.725,1.381 16.783 C 1.655 16.992,1.694 16.996,3.483 16.998 C 4.929 17.000,5.171 16.991,5.343 16.934 C 5.513 16.876,5.668 16.740,6.483 15.933 L 7.426 14.999 8.547 15.009 L 9.668 15.020 8.832 17.940 C 8.075 20.581,7.997 20.882,8.014 21.090 C 8.045 21.480,8.300 21.811,8.670 21.943 C 8.786 21.984,9.199 21.997,10.483 21.998 C 12.349 22.000,12.392 21.995,12.672 21.723 C 12.777 21.622,13.259 20.816,14.159 19.242 L 15.491 16.912 17.955 19.372 C 19.311 20.725,20.483 21.865,20.560 21.905 C 20.659 21.957,20.788 21.979,21.000 21.979 C 21.258 21.980,21.327 21.964,21.492 21.867 C 21.968 21.587,22.139 20.967,21.865 20.508 C 21.810 20.416,17.665 16.243,12.653 11.235 C 4.231 2.820,3.525 2.125,3.343 2.065 C 3.107 1.987,2.874 1.986,2.670 2.061 M8.664 2.063 C 8.291 2.199,8.046 2.519,8.014 2.910 C 7.997 3.114,8.045 3.314,8.437 4.676 C 8.907 6.306,8.942 6.390,9.233 6.577 C 9.758 6.914,10.400 6.739,10.690 6.180 C 10.829 5.914,10.804 5.642,10.565 4.820 C 10.451 4.424,10.349 4.077,10.340 4.050 C 10.326 4.012,10.450 4.000,10.871 4.000 L 11.420 4.001 13.296 7.287 C 14.593 9.558,15.221 10.619,15.328 10.723 C 15.615 11.001,15.602 11.000,17.980 11.000 C 20.414 11.000,20.391 10.998,20.697 11.303 C 20.970 11.577,21.057 11.919,20.945 12.290 C 20.872 12.533,20.707 12.740,20.484 12.872 L 20.300 12.980 19.020 13.001 C 18.146 13.016,17.704 13.038,17.627 13.071 C 17.431 13.156,17.239 13.327,17.128 13.516 C 17.037 13.672,17.020 13.746,17.020 14.000 C 17.020 14.257,17.036 14.327,17.133 14.492 C 17.263 14.713,17.502 14.901,17.732 14.963 C 17.837 14.992,18.353 15.001,19.236 14.991 C 20.505 14.976,20.596 14.970,20.860 14.884 C 21.842 14.562,22.582 13.816,22.886 12.840 C 23.021 12.406,23.021 11.594,22.886 11.160 C 22.582 10.182,21.828 9.424,20.861 9.123 L 20.540 9.023 18.560 9.009 L 16.580 8.995 14.704 5.711 C 13.408 3.443,12.779 2.381,12.672 2.277 C 12.392 2.005,12.350 2.000,10.483 2.003 C 9.145 2.005,8.789 2.017,8.664 2.063 M5.518 9.934 C 6.332 10.740,6.487 10.876,6.657 10.934 C 6.825 10.990,7.053 11.000,8.217 11.000 L 9.580 11.000 11.797 13.217 C 13.719 15.140,14.010 15.445,13.977 15.513 C 13.957 15.556,13.373 16.583,12.680 17.795 L 11.420 19.999 10.872 20.000 L 10.324 20.000 10.380 19.810 C 11.004 17.678,12.000 14.105,12.000 13.997 C 12.000 13.599,11.706 13.188,11.332 13.064 C 11.153 13.004,10.897 12.999,8.936 13.009 C 6.863 13.019,6.731 13.024,6.580 13.097 C 6.485 13.143,6.048 13.542,5.498 14.087 L 4.576 15.000 4.108 15.000 C 3.851 15.000,3.640 14.992,3.640 14.981 C 3.640 14.971,3.942 14.358,4.310 13.618 L 4.980 12.274 4.980 12.000 L 4.980 11.726 4.310 10.382 C 3.942 9.642,3.640 9.029,3.640 9.019 C 3.640 9.008,3.850 9.000,4.108 9.000 L 4.575 9.000 5.518 9.934 " stroke="none" fill-rule="evenodd" fill="black"></path></svg>