<svg xmlns="http://www.w3.org/2000/svg" width="24" height="24" viewBox="0 0 24 24" fill="none" stroke="currentColor" stroke-width="2" stroke-linecap="round" stroke-linejoin="round"><path d="M11.580 3.096 C 11.301 3.229,10.667 3.892,10.118 4.626 C 9.393 5.595,8.827 6.719,8.455 7.931 C 8.307 8.412,8.140 9.170,8.098 9.550 C 8.082 9.688,8.062 9.800,8.053 9.800 C 8.045 9.800,7.853 9.689,7.629 9.553 C 6.089 8.621,4.307 8.097,2.399 8.014 C 1.857 7.990,1.805 7.994,1.619 8.076 C 1.181 8.270,1.001 8.580,1.001 9.140 C 1.001 11.380,1.806 13.730,3.226 15.633 C 3.686 16.248,4.752 17.314,5.367 17.774 C 8.697 20.259,13.015 20.696,16.740 18.923 C 17.881 18.380,18.805 17.719,19.762 16.762 C 20.719 15.805,21.380 14.881,21.923 13.740 C 22.604 12.309,23.001 10.615,22.999 9.140 C 22.999 8.580,22.819 8.270,22.381 8.076 C 22.195 7.994,22.143 7.990,21.601 8.014 C 19.693 8.097,17.911 8.621,16.371 9.553 C 16.147 9.689,15.955 9.800,15.947 9.800 C 15.938 9.800,15.918 9.688,15.902 9.550 C 15.765 8.319,15.191 6.698,14.468 5.500 C 13.856 4.487,12.835 3.287,12.420 3.094 C 12.151 2.968,11.846 2.969,11.580 3.096 M12.268 5.811 C 13.336 7.230,13.925 8.934,13.989 10.786 L 14.012 11.432 13.720 11.762 C 13.145 12.416,12.539 13.313,12.175 14.050 C 12.091 14.220,12.012 14.360,12.000 14.360 C 11.988 14.360,11.909 14.221,11.825 14.052 C 11.460 13.315,10.846 12.405,10.276 11.758 L 9.988 11.431 10.012 10.766 C 10.065 9.331,10.407 8.055,11.065 6.848 C 11.333 6.357,11.926 5.491,12.000 5.484 C 12.011 5.483,12.131 5.630,12.268 5.811 M3.900 10.206 C 4.832 10.396,6.069 10.908,6.880 11.440 C 7.947 12.140,8.860 13.053,9.560 14.120 C 10.215 15.119,10.753 16.557,10.903 17.710 C 10.930 17.919,10.930 17.920,10.820 17.920 C 10.593 17.920,9.701 17.713,9.150 17.533 C 8.513 17.324,7.578 16.871,7.040 16.511 C 6.019 15.826,5.122 14.919,4.440 13.880 C 3.783 12.879,3.247 11.444,3.096 10.284 L 3.068 10.068 3.284 10.096 C 3.403 10.112,3.680 10.161,3.900 10.206 M20.903 10.290 C 20.753 11.443,20.215 12.881,19.560 13.880 C 18.869 14.932,17.981 15.827,16.927 16.532 C 16.419 16.872,15.459 17.333,14.831 17.539 C 14.299 17.713,13.404 17.920,13.180 17.920 C 13.070 17.920,13.070 17.919,13.097 17.710 C 13.247 16.557,13.785 15.119,14.440 14.120 C 15.140 13.053,16.053 12.140,17.120 11.440 C 17.944 10.900,19.191 10.386,20.120 10.205 C 20.351 10.160,20.576 10.115,20.620 10.106 C 20.664 10.097,20.752 10.087,20.815 10.085 L 20.930 10.080 20.903 10.290 " stroke="none" fill-rule="evenodd" fill="black"></path></svg>