<svg xmlns="http://www.w3.org/2000/svg" width="24" height="24" viewBox="0 0 24 24" fill="none" stroke="currentColor" stroke-width="2" stroke-linecap="round" stroke-linejoin="round"><path d="M9.174 3.039 C 8.750 3.129,8.329 3.477,8.132 3.900 C 8.035 4.107,8.020 4.190,8.020 4.500 C 8.020 4.811,8.035 4.894,8.133 5.104 C 8.276 5.413,8.585 5.721,8.900 5.868 C 9.107 5.965,9.190 5.980,9.500 5.980 C 9.810 5.980,9.893 5.965,10.100 5.868 C 10.415 5.721,10.724 5.413,10.867 5.104 C 10.965 4.894,10.980 4.811,10.980 4.500 C 10.980 4.189,10.965 4.106,10.867 3.896 C 10.727 3.592,10.415 3.278,10.119 3.143 C 9.870 3.030,9.441 2.982,9.174 3.039 M6.667 5.065 C 6.406 5.145,6.153 5.401,6.061 5.678 C 5.925 6.088,5.924 6.085,7.114 8.466 C 8.136 10.510,8.209 10.643,8.380 10.774 C 8.480 10.850,8.647 10.933,8.751 10.957 C 8.855 10.982,9.739 11.082,10.716 11.180 C 11.692 11.278,12.496 11.363,12.502 11.369 C 12.507 11.375,12.207 12.064,11.835 12.900 C 11.010 14.753,10.984 14.821,11.008 15.073 C 11.048 15.487,11.075 15.516,12.929 17.164 C 13.879 18.009,14.690 18.727,14.731 18.760 C 14.800 18.817,14.720 18.869,13.613 19.499 C 12.894 19.907,12.362 20.236,12.274 20.326 C 11.981 20.625,11.923 21.133,12.138 21.501 C 12.376 21.906,12.877 22.096,13.308 21.944 C 13.559 21.856,17.046 19.848,17.193 19.707 C 17.584 19.335,17.605 18.739,17.241 18.347 C 17.156 18.255,16.222 17.415,15.166 16.480 C 14.109 15.545,13.244 14.758,13.243 14.730 C 13.241 14.703,13.512 14.068,13.844 13.321 C 14.364 12.153,14.458 11.967,14.514 11.999 C 14.550 12.020,15.204 12.429,15.966 12.909 L 17.353 13.780 18.482 15.140 C 19.103 15.888,19.676 16.569,19.756 16.653 C 20.158 17.080,20.745 17.110,21.173 16.724 C 21.494 16.435,21.590 15.948,21.397 15.581 C 21.343 15.480,20.709 14.688,19.986 13.821 L 18.672 12.245 16.546 10.914 C 14.851 9.854,14.375 9.573,14.200 9.533 C 14.079 9.505,13.017 9.390,11.840 9.277 C 10.663 9.164,9.686 9.063,9.668 9.052 C 9.651 9.042,9.230 8.220,8.734 7.227 C 7.757 5.272,7.704 5.190,7.336 5.065 C 7.105 4.986,6.923 4.986,6.667 5.065 M15.477 5.073 C 14.806 5.249,14.238 5.823,14.060 6.508 C 13.941 6.962,14.003 7.492,14.225 7.930 C 14.361 8.199,14.801 8.639,15.070 8.775 C 15.659 9.073,16.341 9.073,16.930 8.775 C 17.196 8.640,17.638 8.200,17.771 7.937 C 18.161 7.168,18.043 6.275,17.471 5.659 C 17.074 5.232,16.563 5.005,16.000 5.005 C 15.857 5.005,15.622 5.036,15.477 5.073 M10.240 16.035 C 10.064 16.092,9.903 16.189,9.800 16.298 C 9.745 16.357,9.412 16.785,9.060 17.251 L 8.420 18.098 6.100 18.561 C 4.824 18.816,3.719 19.046,3.644 19.072 C 2.873 19.343,2.784 20.443,3.499 20.862 C 3.832 21.057,3.858 21.053,6.700 20.482 C 8.519 20.117,9.354 19.933,9.480 19.869 C 9.634 19.791,9.782 19.617,10.490 18.679 C 10.946 18.075,11.359 17.501,11.406 17.404 C 11.631 16.948,11.419 16.357,10.943 16.112 C 10.771 16.024,10.399 15.983,10.240 16.035 " stroke="none" fill-rule="evenodd" fill="black"></path></svg>