<svg xmlns="http://www.w3.org/2000/svg" width="24" height="24" viewBox="0 0 24 24" fill="none" stroke="currentColor" stroke-width="2" stroke-linecap="round" stroke-linejoin="round"><path d="M2.667 4.065 C 2.415 4.142,2.155 4.400,2.066 4.660 C 2.006 4.838,2.000 5.452,2.002 12.017 C 2.003 17.896,2.013 19.207,2.057 19.330 C 2.240 19.842,2.798 20.113,3.315 19.942 C 3.495 19.882,4.056 19.405,7.659 16.254 C 12.258 12.230,11.980 12.504,11.979 11.980 C 11.979 11.757,11.959 11.665,11.880 11.527 C 11.808 11.400,10.741 10.443,7.844 7.907 C 5.678 6.011,3.800 4.375,3.672 4.272 C 3.333 3.998,3.065 3.943,2.667 4.065 M13.667 4.065 C 13.415 4.142,13.155 4.400,13.066 4.660 C 13.006 4.838,13.000 5.452,13.002 12.017 C 13.003 17.896,13.013 19.207,13.057 19.330 C 13.240 19.842,13.798 20.113,14.315 19.942 C 14.495 19.882,15.056 19.405,18.659 16.254 C 23.258 12.230,22.980 12.504,22.979 11.980 C 22.979 11.757,22.959 11.665,22.880 11.527 C 22.808 11.400,21.741 10.443,18.844 7.907 C 16.678 6.011,14.800 4.375,14.672 4.272 C 14.333 3.998,14.065 3.943,13.667 4.065 M6.740 9.603 C 8.225 10.902,9.440 11.981,9.440 12.000 C 9.440 12.034,4.059 16.760,4.020 16.760 C 4.009 16.760,4.000 14.618,4.000 12.000 C 4.000 9.382,4.009 7.240,4.020 7.240 C 4.032 7.240,5.256 8.303,6.740 9.603 M17.740 9.603 C 19.225 10.902,20.440 11.981,20.440 12.000 C 20.440 12.034,15.059 16.760,15.020 16.760 C 15.009 16.760,15.000 14.618,15.000 12.000 C 15.000 9.382,15.009 7.240,15.020 7.240 C 15.032 7.240,16.256 8.303,17.740 9.603 " stroke="none" fill-rule="evenodd" fill="black"></path></svg>