<svg xmlns="http://www.w3.org/2000/svg" width="24" height="24" viewBox="0 0 24 24" fill="none" stroke="currentColor" stroke-width="2" stroke-linecap="round" stroke-linejoin="round"><path d="M3.695 4.057 C 3.466 4.129,3.256 4.299,3.128 4.516 L 3.020 4.700 3.020 12.003 L 3.020 19.306 3.141 19.503 C 3.543 20.156,4.457 20.156,4.859 19.503 L 4.980 19.306 4.980 12.003 L 4.980 4.700 4.872 4.516 C 4.628 4.101,4.150 3.915,3.695 4.057 M19.691 4.063 C 19.521 4.123,7.613 11.047,7.371 11.227 C 6.935 11.551,6.887 12.276,7.274 12.675 C 7.436 12.842,19.465 19.874,19.736 19.960 C 20.083 20.071,20.557 19.917,20.783 19.619 C 21.009 19.324,20.996 19.759,20.998 12.017 C 21.000 3.966,21.026 4.624,20.697 4.295 C 20.431 4.029,20.044 3.939,19.691 4.063 M19.000 12.000 C 19.000 14.882,18.992 17.240,18.983 17.240 C 18.973 17.240,16.946 16.062,14.478 14.622 L 9.990 12.004 10.165 11.899 C 10.803 11.516,18.946 6.767,18.970 6.764 C 18.987 6.762,19.000 9.118,19.000 12.000 " stroke="none" fill-rule="evenodd" fill="black"></path></svg>