<svg xmlns="http://www.w3.org/2000/svg" width="24" height="24" viewBox="0 0 24 24" fill="none" stroke="currentColor" stroke-width="2" stroke-linecap="round" stroke-linejoin="round"><path d="M2.670 2.061 C 2.448 2.142,2.250 2.309,2.128 2.516 C 2.037 2.672,2.020 2.746,2.020 3.000 C 2.020 3.354,2.109 3.538,2.434 3.855 L 2.633 4.051 2.447 4.179 C 2.344 4.249,2.206 4.394,2.140 4.500 C 2.034 4.671,2.020 4.730,2.020 4.997 C 2.020 5.256,2.036 5.327,2.131 5.489 C 2.192 5.592,2.304 5.725,2.381 5.783 C 2.635 5.977,2.753 5.996,3.700 5.998 L 4.581 6.000 5.580 7.000 L 6.579 8.000 4.736 8.000 C 2.735 8.000,2.663 8.007,2.382 8.221 C 2.302 8.282,2.187 8.415,2.128 8.516 C 2.037 8.672,2.020 8.746,2.020 9.000 C 2.020 9.256,2.036 9.328,2.131 9.489 C 2.256 9.702,2.449 9.864,2.670 9.943 C 2.790 9.986,3.399 9.997,5.700 9.998 L 8.580 10.000 10.326 11.746 L 12.073 13.493 11.846 13.639 C 10.916 14.242,10.304 15.141,10.082 16.228 C 9.749 17.862,10.506 19.562,11.956 20.436 C 12.512 20.771,13.341 21.000,14.000 21.000 C 14.659 21.000,15.488 20.771,16.044 20.436 C 16.564 20.123,17.142 19.555,17.393 19.111 L 17.500 18.921 18.960 20.376 C 19.763 21.177,20.483 21.865,20.560 21.905 C 20.659 21.957,20.788 21.979,21.000 21.979 C 21.258 21.980,21.327 21.964,21.492 21.867 C 21.968 21.587,22.139 20.967,21.865 20.508 C 21.810 20.416,17.665 16.243,12.653 11.235 C 4.231 2.820,3.525 2.125,3.343 2.065 C 3.107 1.987,2.874 1.986,2.670 2.061 M16.695 3.057 C 16.466 3.129,16.256 3.299,16.128 3.516 L 16.020 3.700 16.020 8.503 L 16.020 13.306 16.141 13.503 C 16.543 14.156,17.457 14.156,17.859 13.503 L 17.980 13.306 17.991 9.153 L 18.001 5.000 19.591 4.998 C 21.300 4.996,21.346 4.991,21.619 4.783 C 21.696 4.725,21.808 4.592,21.869 4.489 C 21.964 4.328,21.980 4.256,21.980 4.000 C 21.980 3.746,21.963 3.672,21.872 3.516 C 21.740 3.293,21.533 3.128,21.290 3.055 C 21.033 2.978,16.943 2.979,16.695 3.057 M8.695 4.057 C 8.466 4.129,8.256 4.299,8.128 4.516 C 8.037 4.672,8.020 4.746,8.020 5.000 C 8.020 5.256,8.036 5.328,8.131 5.489 C 8.256 5.702,8.449 5.864,8.670 5.943 C 8.889 6.021,13.111 6.021,13.330 5.943 C 13.551 5.864,13.744 5.702,13.869 5.489 C 13.964 5.328,13.980 5.256,13.980 5.000 C 13.980 4.746,13.963 4.672,13.872 4.516 C 13.740 4.293,13.533 4.128,13.290 4.055 C 13.033 3.978,8.943 3.979,8.695 4.057 M2.695 12.057 C 2.466 12.129,2.256 12.299,2.128 12.516 C 2.037 12.672,2.020 12.746,2.020 13.000 C 2.020 13.256,2.036 13.328,2.131 13.489 C 2.256 13.702,2.449 13.864,2.670 13.943 C 2.891 14.022,9.109 14.022,9.330 13.943 C 9.551 13.864,9.744 13.702,9.869 13.489 C 9.964 13.328,9.980 13.256,9.980 13.000 C 9.980 12.746,9.963 12.672,9.872 12.516 C 9.740 12.293,9.533 12.128,9.290 12.055 C 9.030 11.977,2.945 11.979,2.695 12.057 M14.795 16.215 L 15.969 17.389 15.906 17.607 C 15.777 18.048,15.339 18.568,14.912 18.784 C 14.347 19.070,13.651 19.069,13.083 18.781 C 12.816 18.646,12.449 18.297,12.281 18.017 C 11.732 17.106,12.026 15.895,12.937 15.310 C 13.113 15.196,13.476 15.045,13.580 15.041 C 13.602 15.041,14.149 15.569,14.795 16.215 " stroke="none" fill-rule="evenodd" fill="black"></path></svg>