<svg xmlns="http://www.w3.org/2000/svg" width="24" height="24" viewBox="0 0 24 24" fill="none" stroke="currentColor" stroke-width="2" stroke-linecap="round" stroke-linejoin="round"><path d="M2.670 2.061 C 2.448 2.142,2.250 2.309,2.128 2.516 C 2.036 2.672,2.020 2.745,2.021 3.000 C 2.021 3.213,2.043 3.341,2.095 3.440 C 2.136 3.517,2.581 3.994,3.084 4.500 L 3.998 5.421 4.009 12.500 L 4.020 19.580 4.114 19.860 C 4.446 20.851,5.184 21.582,6.160 21.886 L 6.460 21.980 12.000 21.980 L 17.540 21.980 17.839 21.886 C 18.394 21.712,18.773 21.473,19.197 21.032 L 19.398 20.822 19.909 21.326 C 20.190 21.603,20.483 21.863,20.560 21.904 C 20.660 21.957,20.786 21.979,21.000 21.979 C 21.258 21.980,21.327 21.964,21.492 21.867 C 21.968 21.587,22.139 20.967,21.865 20.508 C 21.810 20.416,17.665 16.243,12.653 11.235 C 4.231 2.820,3.525 2.125,3.343 2.065 C 3.107 1.987,2.874 1.986,2.670 2.061 M6.695 2.057 C 6.465 2.129,6.256 2.299,6.128 2.516 C 6.037 2.672,6.020 2.746,6.020 3.000 C 6.020 3.256,6.036 3.328,6.131 3.489 C 6.256 3.702,6.449 3.864,6.670 3.943 C 6.792 3.987,7.771 3.997,11.963 3.998 C 17.717 4.000,17.369 3.983,17.679 4.283 C 18.005 4.600,17.978 4.102,18.000 10.023 L 18.020 15.306 18.141 15.503 C 18.543 16.156,19.457 16.156,19.859 15.503 L 19.980 15.306 19.980 9.883 L 19.980 4.460 19.886 4.160 C 19.581 3.182,18.832 2.428,17.861 2.121 L 17.540 2.020 12.200 2.012 C 7.900 2.006,6.828 2.015,6.695 2.057 M8.930 10.418 C 8.915 10.441,8.719 10.707,8.494 11.009 C 8.001 11.670,7.928 11.879,8.043 12.293 C 8.071 12.393,8.644 13.191,9.700 14.600 C 11.544 17.059,11.468 16.980,12.000 16.980 C 12.477 16.980,12.569 16.907,13.252 15.997 L 13.819 15.240 14.726 16.146 L 15.632 17.051 15.446 17.179 C 14.833 17.601,14.866 18.490,15.508 18.867 C 15.673 18.964,15.742 18.980,16.000 18.979 C 16.229 18.978,16.339 18.958,16.464 18.891 C 16.644 18.796,16.857 18.574,16.901 18.438 C 16.926 18.359,16.978 18.399,17.424 18.844 C 17.697 19.116,17.920 19.358,17.920 19.382 C 17.920 19.476,17.661 19.768,17.486 19.871 L 17.300 19.980 12.000 19.980 L 6.700 19.980 6.516 19.872 C 6.415 19.813,6.284 19.700,6.225 19.623 C 5.987 19.311,6.000 19.677,6.000 13.285 L 6.000 7.420 7.478 8.898 C 8.290 9.710,8.944 10.394,8.930 10.418 M11.406 12.826 L 12.393 13.812 12.206 14.064 C 12.104 14.203,12.011 14.317,12.000 14.317 C 11.968 14.317,10.302 12.075,10.287 12.012 C 10.274 11.957,10.347 11.840,10.395 11.840 C 10.408 11.840,10.863 12.284,11.406 12.826 " stroke="none" fill-rule="evenodd" fill="black"></path></svg>