<svg xmlns="http://www.w3.org/2000/svg" width="24" height="24" viewBox="0 0 24 24" fill="none" stroke="currentColor" stroke-width="2" stroke-linecap="round" stroke-linejoin="round"><path d="M6.499 2.043 C 5.379 2.233,4.461 3.048,4.114 4.160 L 4.020 4.460 4.020 12.000 L 4.020 19.540 4.114 19.840 C 4.422 20.827,5.173 21.578,6.160 21.886 L 6.460 21.980 12.000 21.980 L 17.540 21.980 17.840 21.886 C 18.827 21.578,19.578 20.827,19.886 19.840 L 19.980 19.540 19.980 12.000 L 19.980 4.460 19.886 4.160 C 19.581 3.182,18.832 2.428,17.861 2.121 L 17.540 2.020 12.120 2.014 C 9.139 2.011,6.609 2.024,6.499 2.043 M17.310 4.061 C 17.589 4.144,17.856 4.411,17.939 4.690 C 17.993 4.870,18.000 5.755,18.000 12.001 C 18.000 17.907,17.991 19.138,17.945 19.290 C 17.872 19.533,17.707 19.740,17.484 19.872 L 17.300 19.980 12.000 19.980 L 6.700 19.980 6.516 19.872 C 6.415 19.813,6.284 19.700,6.225 19.623 C 5.986 19.309,6.000 19.795,6.000 12.022 C 6.000 4.005,5.975 4.631,6.304 4.303 C 6.621 3.985,6.234 4.006,11.983 4.003 C 16.458 4.000,17.131 4.008,17.310 4.061 M7.695 5.055 C 7.464 5.130,7.255 5.300,7.128 5.516 C 7.037 5.672,7.020 5.746,7.020 6.000 C 7.020 6.257,7.036 6.327,7.133 6.492 C 7.651 7.374,8.998 7.018,8.998 6.000 C 8.998 5.623,8.792 5.281,8.463 5.112 C 8.265 5.010,7.911 4.984,7.695 5.055 M11.734 7.036 C 11.424 7.116,11.337 7.217,9.698 9.403 C 8.643 10.810,8.071 11.607,8.043 11.707 C 7.989 11.901,7.989 12.099,8.043 12.293 C 8.071 12.393,8.644 13.191,9.700 14.600 C 11.544 17.059,11.468 16.980,12.000 16.980 C 12.532 16.980,12.456 17.059,14.300 14.600 C 15.356 13.191,15.929 12.393,15.957 12.293 C 15.980 12.209,16.000 12.077,16.000 12.000 C 16.000 11.923,15.980 11.791,15.957 11.707 C 15.929 11.607,15.356 10.809,14.300 9.400 C 12.513 7.017,12.540 7.046,12.090 7.018 C 11.964 7.010,11.803 7.018,11.734 7.036 M12.860 10.809 C 13.322 11.428,13.700 11.964,13.700 12.000 C 13.700 12.061,12.045 14.317,12.000 14.317 C 11.955 14.317,10.300 12.061,10.300 12.000 C 10.300 11.939,11.955 9.683,12.000 9.683 C 12.011 9.683,12.398 10.190,12.860 10.809 M15.695 17.055 C 15.464 17.130,15.255 17.300,15.128 17.516 C 15.037 17.672,15.020 17.746,15.020 18.000 C 15.020 18.257,15.036 18.327,15.133 18.492 C 15.651 19.374,16.998 19.018,16.998 18.000 C 16.998 17.623,16.792 17.281,16.463 17.112 C 16.265 17.010,15.911 16.984,15.695 17.055 " stroke="none" fill-rule="evenodd" fill="black"></path></svg>