<svg xmlns="http://www.w3.org/2000/svg" width="24" height="24" viewBox="0 0 24 24" fill="none" stroke="currentColor" stroke-width="2" stroke-linecap="round" stroke-linejoin="round"><path d="M9.670 4.057 C 9.471 4.128,9.658 3.969,5.157 7.907 C 2.259 10.443,1.192 11.400,1.120 11.527 C 1.041 11.665,1.021 11.757,1.021 11.980 C 1.020 12.504,0.742 12.230,5.341 16.254 C 8.944 19.405,9.505 19.882,9.685 19.942 C 10.202 20.113,10.760 19.842,10.943 19.330 C 10.987 19.207,10.997 17.896,10.998 12.017 C 11.000 3.966,11.026 4.624,10.697 4.295 C 10.434 4.032,10.013 3.935,9.670 4.057 M20.670 4.057 C 20.471 4.128,20.658 3.969,16.157 7.907 C 13.259 10.443,12.192 11.400,12.120 11.527 C 12.041 11.665,12.021 11.757,12.021 11.980 C 12.020 12.504,11.742 12.230,16.341 16.254 C 19.944 19.405,20.505 19.882,20.685 19.942 C 21.202 20.113,21.760 19.842,21.943 19.330 C 21.987 19.207,21.997 17.896,21.998 12.017 C 22.000 3.966,22.026 4.624,21.697 4.295 C 21.434 4.032,21.013 3.935,20.670 4.057 M9.000 12.000 C 9.000 14.618,8.991 16.760,8.980 16.760 C 8.924 16.760,3.558 12.025,3.571 11.987 C 3.588 11.937,8.924 7.248,8.970 7.243 C 8.986 7.241,9.000 9.382,9.000 12.000 M20.000 12.000 C 20.000 14.618,19.991 16.760,19.980 16.760 C 19.924 16.760,14.558 12.025,14.571 11.987 C 14.588 11.937,19.924 7.248,19.970 7.243 C 19.987 7.241,20.000 9.382,20.000 12.000 " stroke="none" fill-rule="evenodd" fill="black"></path></svg>