<svg xmlns="http://www.w3.org/2000/svg" width="24" height="24" viewBox="0 0 24 24" fill="none" stroke="currentColor" stroke-width="2" stroke-linecap="round" stroke-linejoin="round"><path d="M11.669 3.055 C 11.586 3.086,11.447 3.172,11.361 3.246 C 11.141 3.434,4.179 11.406,4.099 11.562 C 3.919 11.911,4.006 12.408,4.298 12.700 C 4.623 13.025,3.972 13.000,12.017 12.998 C 17.896 12.997,19.207 12.987,19.330 12.943 C 19.842 12.760,20.113 12.202,19.942 11.685 C 19.882 11.505,19.405 10.944,16.254 7.341 C 13.254 3.913,12.604 3.190,12.457 3.118 C 12.231 3.009,11.870 2.980,11.669 3.055 M14.397 8.260 C 15.697 9.744,16.760 10.968,16.760 10.980 C 16.760 10.991,14.618 11.000,12.000 11.000 C 9.382 11.000,7.240 10.991,7.240 10.980 C 7.240 10.941,11.966 5.560,12.000 5.560 C 12.019 5.560,13.098 6.775,14.397 8.260 M5.477 15.073 C 4.806 15.249,4.238 15.823,4.060 16.508 C 4.013 16.687,4.000 17.009,4.000 18.000 C 4.000 19.368,4.018 19.521,4.225 19.930 C 4.361 20.199,4.801 20.639,5.070 20.775 C 5.538 21.012,5.172 21.000,12.000 21.000 C 18.828 21.000,18.462 21.012,18.930 20.775 C 19.196 20.640,19.638 20.200,19.771 19.937 C 19.979 19.527,20.000 19.352,19.999 18.014 C 19.999 16.682,19.974 16.463,19.781 16.083 C 19.646 15.816,19.297 15.449,19.017 15.281 C 18.528 14.987,18.983 15.005,12.000 15.005 C 6.211 15.005,5.720 15.010,5.477 15.073 M18.000 18.000 L 18.000 19.000 12.000 19.000 L 6.000 19.000 6.000 18.000 L 6.000 17.000 12.000 17.000 L 18.000 17.000 18.000 18.000 " stroke="none" fill-rule="evenodd" fill="black"></path></svg>