<svg xmlns="http://www.w3.org/2000/svg" width="24" height="24" viewBox="0 0 24 24" fill="none" stroke="currentColor" stroke-width="2" stroke-linecap="round" stroke-linejoin="round"><path d="M14.640 3.069 C 14.488 3.121,14.217 3.373,12.919 4.665 L 11.378 6.199 10.879 5.697 C 10.605 5.420,10.308 5.156,10.220 5.108 C 9.997 4.988,9.564 4.988,9.340 5.108 C 9.249 5.156,8.591 5.787,7.819 6.566 C 6.321 8.078,6.096 8.354,5.681 9.180 C 4.595 11.343,4.739 13.965,6.053 15.960 L 6.277 16.300 4.723 17.860 C 3.868 18.718,3.135 19.483,3.095 19.560 C 3.043 19.659,3.021 19.788,3.021 20.000 C 3.020 20.258,3.036 20.327,3.133 20.492 C 3.263 20.714,3.502 20.901,3.736 20.965 C 3.939 21.019,4.267 20.989,4.445 20.899 C 4.519 20.862,5.282 20.132,6.140 19.277 L 7.700 17.723 8.040 17.947 C 10.031 19.258,12.686 19.404,14.823 18.320 C 15.658 17.897,15.935 17.670,17.435 16.183 C 18.905 14.725,18.999 14.610,19.000 14.245 C 19.000 13.876,18.940 13.777,18.353 13.179 L 17.803 12.617 19.284 11.139 C 20.099 10.325,20.813 9.579,20.873 9.480 C 20.964 9.327,20.980 9.254,20.980 9.000 C 20.980 8.746,20.963 8.672,20.872 8.516 C 20.618 8.084,20.137 7.906,19.657 8.066 C 19.482 8.124,19.292 8.299,17.919 9.665 L 16.378 11.199 14.589 9.409 L 12.800 7.620 14.283 6.140 C 15.098 5.326,15.813 4.579,15.873 4.480 C 15.964 4.327,15.980 4.254,15.980 4.000 C 15.980 3.746,15.963 3.672,15.872 3.516 C 15.617 3.083,15.120 2.902,14.640 3.069 M13.190 10.810 C 15.043 12.663,16.560 14.200,16.560 14.225 C 16.560 14.299,14.928 15.874,14.601 16.117 C 12.931 17.355,10.560 17.352,8.902 16.110 C 7.674 15.190,6.960 13.769,6.960 12.245 C 6.961 11.155,7.293 10.173,7.956 9.302 C 8.177 9.012,9.713 7.440,9.775 7.440 C 9.800 7.440,11.336 8.956,13.190 10.810 " stroke="none" fill-rule="evenodd" fill="black"></path></svg>