<svg xmlns="http://www.w3.org/2000/svg" width="24" height="24" viewBox="0 0 24 24" fill="none" stroke="currentColor" stroke-width="2" stroke-linecap="round" stroke-linejoin="round"><path d="M20.640 2.069 C 20.493 2.120,20.278 2.313,19.460 3.122 L 18.460 4.112 18.120 3.935 C 16.591 3.140,14.629 3.314,13.275 4.364 C 12.927 4.635,11.244 6.324,11.127 6.520 C 11.036 6.673,11.020 6.745,11.021 7.000 C 11.021 7.212,11.043 7.341,11.095 7.440 C 11.195 7.632,16.294 12.738,16.520 12.873 C 16.672 12.964,16.746 12.980,17.000 12.980 C 17.253 12.980,17.328 12.963,17.480 12.874 C 17.773 12.701,19.544 10.880,19.810 10.479 C 20.321 9.706,20.567 8.888,20.567 7.960 C 20.567 7.206,20.408 6.544,20.063 5.868 L 19.890 5.529 20.828 4.595 C 21.343 4.081,21.814 3.579,21.873 3.480 C 21.964 3.328,21.980 3.254,21.980 3.000 C 21.980 2.746,21.963 2.672,21.872 2.516 C 21.617 2.083,21.119 1.902,20.640 2.069 M16.625 5.499 C 17.091 5.609,17.386 5.784,17.801 6.199 C 18.093 6.491,18.212 6.644,18.313 6.855 C 18.486 7.220,18.559 7.547,18.559 7.960 C 18.559 8.402,18.477 8.735,18.271 9.135 C 18.132 9.405,18.011 9.554,17.553 10.020 L 17.002 10.580 15.211 8.789 L 13.420 6.998 13.980 6.447 C 14.447 5.988,14.594 5.868,14.866 5.728 C 15.046 5.635,15.298 5.534,15.426 5.503 C 15.734 5.429,16.318 5.427,16.625 5.499 M9.640 10.070 C 9.498 10.120,9.308 10.283,8.732 10.852 L 8.004 11.570 7.754 11.344 C 7.391 11.015,7.101 10.940,6.677 11.064 C 6.473 11.123,6.399 11.189,5.437 12.154 C 4.673 12.920,4.357 13.267,4.188 13.523 C 3.674 14.304,3.428 15.127,3.432 16.060 C 3.435 16.811,3.593 17.458,3.937 18.132 L 4.110 18.471 3.172 19.405 C 2.657 19.919,2.186 20.421,2.127 20.520 C 2.036 20.672,2.020 20.746,2.020 21.000 C 2.020 21.257,2.036 21.327,2.133 21.492 C 2.413 21.968,3.033 22.139,3.492 21.865 C 3.584 21.810,4.081 21.343,4.595 20.828 L 5.529 19.890 5.868 20.063 C 6.963 20.622,8.211 20.725,9.360 20.352 C 10.224 20.071,10.596 19.806,11.794 18.623 C 12.329 18.093,12.815 17.579,12.874 17.480 C 12.964 17.328,12.980 17.254,12.979 17.000 C 12.978 16.646,12.924 16.524,12.628 16.211 L 12.426 15.997 13.128 15.289 C 13.514 14.899,13.864 14.517,13.904 14.440 C 13.957 14.340,13.979 14.213,13.979 14.000 C 13.980 13.745,13.964 13.672,13.872 13.516 C 13.617 13.083,13.135 12.905,12.657 13.067 C 12.491 13.123,12.345 13.247,11.728 13.855 L 10.997 14.577 10.209 13.789 L 9.422 13.001 10.126 12.291 C 10.513 11.900,10.864 11.517,10.904 11.440 C 10.957 11.340,10.979 11.213,10.979 11.000 C 10.980 10.745,10.964 10.672,10.872 10.516 C 10.617 10.082,10.118 9.901,9.640 10.070 M8.800 15.220 L 10.579 17.000 10.100 17.484 C 9.836 17.751,9.492 18.054,9.335 18.158 C 8.705 18.575,7.875 18.681,7.136 18.438 C 6.784 18.322,6.546 18.158,6.159 17.764 C 5.646 17.241,5.441 16.750,5.441 16.040 C 5.441 15.598,5.523 15.265,5.729 14.865 C 5.867 14.597,5.991 14.444,6.435 13.990 C 6.732 13.688,6.984 13.440,6.997 13.440 C 7.010 13.440,7.821 14.241,8.800 15.220 M15.670 15.061 C 15.448 15.142,15.250 15.309,15.128 15.516 C 15.036 15.672,15.020 15.745,15.021 16.000 C 15.021 16.213,15.043 16.340,15.096 16.440 C 15.136 16.517,15.486 16.899,15.873 17.290 L 16.577 18.000 15.873 18.710 C 15.486 19.101,15.139 19.481,15.101 19.555 C 14.872 20.008,15.056 20.601,15.508 20.867 C 15.673 20.964,15.742 20.980,16.000 20.979 C 16.213 20.979,16.340 20.957,16.440 20.904 C 16.517 20.864,16.899 20.514,17.290 20.127 L 18.000 19.423 18.710 20.127 C 19.101 20.514,19.483 20.864,19.560 20.904 C 19.660 20.957,19.787 20.979,20.000 20.979 C 20.258 20.980,20.327 20.964,20.492 20.867 C 20.714 20.737,20.901 20.498,20.965 20.264 C 21.019 20.061,20.989 19.733,20.899 19.555 C 20.861 19.481,20.514 19.101,20.127 18.710 L 19.423 18.000 20.127 17.290 C 20.514 16.899,20.864 16.517,20.904 16.440 C 20.957 16.340,20.979 16.213,20.979 16.000 C 20.980 15.745,20.964 15.672,20.872 15.516 C 20.617 15.083,20.135 14.905,19.657 15.067 C 19.491 15.123,19.345 15.247,18.730 15.854 L 18.000 16.574 17.270 15.854 C 16.655 15.247,16.509 15.123,16.343 15.067 C 16.108 14.987,15.876 14.985,15.670 15.061 " stroke="none" fill-rule="evenodd" fill="black"></path></svg>