<svg xmlns="http://www.w3.org/2000/svg" width="24" height="24" viewBox="0 0 24 24" fill="none" stroke="currentColor" stroke-width="2" stroke-linecap="round" stroke-linejoin="round"><path d="M2.670 2.061 C 2.448 2.142,2.250 2.309,2.128 2.516 C 2.036 2.672,2.020 2.745,2.021 3.000 C 2.021 3.212,2.043 3.341,2.095 3.440 C 2.135 3.517,3.141 4.554,4.329 5.745 L 6.489 7.910 6.205 8.305 C 4.602 10.533,4.540 13.663,6.053 15.960 L 6.277 16.300 4.723 17.860 C 3.868 18.718,3.135 19.483,3.095 19.560 C 3.043 19.659,3.021 19.788,3.021 20.000 C 3.020 20.258,3.036 20.327,3.133 20.492 C 3.263 20.714,3.502 20.901,3.736 20.965 C 3.939 21.019,4.267 20.989,4.445 20.899 C 4.519 20.862,5.282 20.132,6.140 19.277 L 7.700 17.723 8.040 17.947 C 10.331 19.455,13.398 19.403,15.666 17.815 L 16.094 17.515 18.257 19.673 C 19.447 20.861,20.483 21.865,20.560 21.905 C 20.659 21.957,20.788 21.979,21.000 21.979 C 21.258 21.980,21.327 21.964,21.492 21.867 C 21.968 21.587,22.139 20.967,21.865 20.508 C 21.776 20.358,3.856 2.404,3.593 2.201 C 3.346 2.011,2.964 1.953,2.670 2.061 M14.640 3.068 C 14.487 3.121,14.183 3.406,12.627 4.955 C 11.618 5.959,10.743 6.852,10.682 6.940 C 10.374 7.382,10.492 8.012,10.940 8.320 C 11.258 8.539,11.744 8.539,12.055 8.321 C 12.302 8.149,15.820 4.602,15.905 4.440 C 15.957 4.341,15.979 4.212,15.979 4.000 C 15.980 3.745,15.964 3.672,15.872 3.516 C 15.617 3.083,15.121 2.903,14.640 3.068 M19.640 8.068 C 19.487 8.121,19.183 8.406,17.627 9.955 C 16.618 10.959,15.743 11.852,15.682 11.940 C 15.372 12.385,15.489 13.010,15.940 13.320 C 16.258 13.539,16.744 13.539,17.055 13.321 C 17.302 13.149,20.820 9.602,20.905 9.440 C 20.957 9.341,20.979 9.212,20.979 9.000 C 20.980 8.745,20.964 8.672,20.872 8.516 C 20.617 8.083,20.121 7.903,19.640 8.068 M11.298 12.718 L 14.655 16.075 14.557 16.155 C 14.235 16.420,13.524 16.748,12.920 16.909 C 12.404 17.046,11.472 17.081,10.940 16.982 C 8.609 16.548,6.959 14.585,6.960 12.245 C 6.961 11.274,7.228 10.385,7.767 9.561 C 7.840 9.450,7.908 9.360,7.919 9.360 C 7.931 9.360,9.451 10.871,11.298 12.718 " stroke="none" fill-rule="evenodd" fill="black"></path></svg>