<svg xmlns="http://www.w3.org/2000/svg" width="24" height="24" viewBox="0 0 24 24" fill="none" stroke="currentColor" stroke-width="2" stroke-linecap="round" stroke-linejoin="round"><path d="M6.695 3.057 C 6.466 3.129,6.256 3.299,6.128 3.516 L 6.020 3.700 6.008 4.850 L 5.995 6.000 4.944 6.000 C 3.797 6.000,3.643 6.022,3.382 6.221 C 3.302 6.282,3.187 6.415,3.128 6.516 C 3.037 6.672,3.020 6.746,3.020 7.000 C 3.020 7.256,3.036 7.328,3.131 7.489 C 3.192 7.592,3.304 7.725,3.381 7.783 C 3.642 7.983,3.738 7.996,4.908 7.998 L 5.995 8.000 6.008 9.153 L 6.020 10.307 6.141 10.503 C 6.543 11.156,7.457 11.156,7.859 10.503 L 7.980 10.307 7.992 9.153 L 8.005 8.000 9.092 7.998 C 10.262 7.996,10.358 7.983,10.619 7.783 C 10.696 7.725,10.808 7.592,10.869 7.489 C 10.964 7.328,10.980 7.256,10.980 7.000 C 10.980 6.746,10.963 6.672,10.872 6.516 C 10.813 6.415,10.698 6.282,10.618 6.221 C 10.357 6.022,10.203 6.000,9.056 6.000 L 8.005 6.000 7.992 4.850 L 7.980 3.700 7.872 3.516 C 7.628 3.101,7.150 2.915,6.695 3.057 M18.640 4.068 C 18.482 4.121,17.575 5.013,11.347 11.235 C 7.180 15.397,4.190 18.415,4.127 18.520 C 4.036 18.672,4.020 18.746,4.020 19.000 C 4.020 19.257,4.036 19.327,4.133 19.492 C 4.413 19.968,5.033 20.139,5.492 19.865 C 5.710 19.736,19.809 5.625,19.905 5.440 C 19.957 5.341,19.979 5.212,19.979 5.000 C 19.980 4.745,19.964 4.672,19.872 4.516 C 19.618 4.083,19.123 3.903,18.640 4.068 M13.695 15.057 C 13.466 15.129,13.256 15.299,13.128 15.516 C 13.037 15.672,13.020 15.746,13.020 16.000 C 13.020 16.256,13.036 16.328,13.131 16.489 C 13.256 16.702,13.449 16.864,13.670 16.943 C 13.891 17.022,20.109 17.022,20.330 16.943 C 20.551 16.864,20.744 16.702,20.869 16.489 C 20.964 16.328,20.980 16.256,20.980 16.000 C 20.980 15.746,20.963 15.672,20.872 15.516 C 20.740 15.293,20.533 15.128,20.290 15.055 C 20.030 14.977,13.945 14.979,13.695 15.057 M13.695 18.057 C 13.466 18.129,13.256 18.299,13.128 18.516 C 13.037 18.672,13.020 18.746,13.020 19.000 C 13.020 19.256,13.036 19.328,13.131 19.489 C 13.256 19.702,13.449 19.864,13.670 19.943 C 13.891 20.022,20.109 20.022,20.330 19.943 C 20.551 19.864,20.744 19.702,20.869 19.489 C 20.964 19.328,20.980 19.256,20.980 19.000 C 20.980 18.746,20.963 18.672,20.872 18.516 C 20.740 18.293,20.533 18.128,20.290 18.055 C 20.030 17.977,13.945 17.979,13.695 18.057 " stroke="none" fill-rule="evenodd" fill="black"></path></svg>