<svg xmlns="http://www.w3.org/2000/svg" width="24" height="24" viewBox="0 0 24 24" fill="none" stroke="currentColor" stroke-width="2" stroke-linecap="round" stroke-linejoin="round"><path d="M2.695 7.055 C 2.464 7.130,2.255 7.300,2.128 7.516 L 2.020 7.700 2.020 12.003 L 2.020 16.306 2.141 16.503 C 2.543 17.156,3.457 17.156,3.859 16.503 L 3.980 16.306 3.992 14.658 L 4.003 13.009 4.792 12.990 C 5.464 12.974,5.621 12.958,5.860 12.882 C 6.835 12.570,7.582 11.817,7.886 10.840 C 8.021 10.406,8.021 9.594,7.886 9.160 C 7.581 8.182,6.825 7.421,5.861 7.124 C 5.551 7.028,5.495 7.025,4.200 7.014 C 3.166 7.005,2.822 7.014,2.695 7.055 M9.695 7.057 C 9.466 7.129,9.256 7.299,9.128 7.516 L 9.020 7.700 9.020 12.003 L 9.020 16.306 9.141 16.503 C 9.543 17.156,10.457 17.156,10.859 16.503 L 10.980 16.306 10.993 14.283 L 11.006 12.260 12.098 14.439 C 13.279 16.795,13.287 16.807,13.671 16.938 C 14.043 17.064,14.426 16.976,14.702 16.700 C 15.020 16.382,15.003 16.669,14.991 11.918 L 14.980 7.700 14.871 7.514 C 14.479 6.848,13.521 6.848,13.129 7.514 L 13.020 7.700 13.007 9.720 L 12.994 11.740 11.902 9.561 C 10.721 7.205,10.713 7.193,10.329 7.062 C 10.111 6.988,9.920 6.987,9.695 7.057 M18.499 7.043 C 17.383 7.230,16.461 8.048,16.114 9.160 L 16.020 9.460 16.020 12.000 L 16.020 14.540 16.114 14.840 C 16.422 15.827,17.173 16.578,18.160 16.886 C 18.451 16.977,18.503 16.980,19.880 16.980 L 21.300 16.980 21.492 16.867 C 21.711 16.739,21.901 16.498,21.961 16.275 C 21.988 16.176,21.999 15.337,21.991 13.911 L 21.980 11.700 21.872 11.516 C 21.629 11.102,21.357 11.000,20.500 11.000 C 19.643 11.000,19.371 11.102,19.128 11.516 C 19.036 11.672,19.020 11.746,19.020 12.003 C 19.020 12.271,19.034 12.329,19.141 12.503 C 19.288 12.742,19.578 12.946,19.821 12.982 L 20.000 13.009 20.000 14.008 L 20.000 15.007 19.350 14.993 C 18.728 14.981,18.692 14.975,18.516 14.872 C 18.415 14.813,18.284 14.700,18.225 14.623 C 18.000 14.327,18.000 14.332,18.000 12.022 C 18.000 9.586,17.997 9.609,18.303 9.303 C 18.587 9.019,18.694 9.000,20.037 8.998 C 21.266 8.996,21.356 8.984,21.619 8.783 C 21.696 8.725,21.808 8.592,21.869 8.489 C 21.964 8.328,21.980 8.256,21.980 8.000 C 21.980 7.746,21.963 7.672,21.872 7.516 C 21.813 7.415,21.698 7.282,21.618 7.221 C 21.350 7.016,21.216 7.000,19.904 7.005 C 19.242 7.007,18.609 7.025,18.499 7.043 M5.310 9.061 C 5.688 9.173,6.000 9.598,6.000 10.001 C 6.000 10.331,5.784 10.696,5.484 10.872 C 5.308 10.975,5.272 10.981,4.650 10.993 L 4.000 11.007 4.000 10.003 L 4.000 9.000 4.553 9.000 C 4.931 9.000,5.170 9.019,5.310 9.061 " stroke="none" fill-rule="evenodd" fill="black"></path></svg>