<svg xmlns="http://www.w3.org/2000/svg" width="24" height="24" viewBox="0 0 24 24" fill="none" stroke="currentColor" stroke-width="2" stroke-linecap="round" stroke-linejoin="round"><path d="M3.667 3.065 C 3.301 3.177,3.000 3.599,3.000 4.000 C 3.000 4.215,6.975 18.003,7.128 18.318 C 7.208 18.483,7.348 18.670,7.519 18.842 C 8.372 19.695,9.745 19.716,10.590 18.889 C 10.696 18.785,11.122 18.196,11.536 17.580 C 11.951 16.964,12.312 16.436,12.339 16.408 C 12.379 16.365,12.414 16.371,12.533 16.441 C 12.741 16.564,13.108 16.591,13.344 16.501 C 13.883 16.295,14.149 15.673,13.917 15.162 C 13.810 14.925,12.925 14.026,12.671 13.896 C 12.277 13.695,11.712 13.814,11.448 14.153 C 11.385 14.234,10.851 15.014,10.262 15.886 C 9.627 16.827,9.161 17.481,9.116 17.493 C 9.074 17.504,9.005 17.483,8.964 17.446 C 8.909 17.399,8.411 15.721,7.182 11.445 C 6.244 8.181,5.484 5.503,5.494 5.493 C 5.509 5.478,16.768 8.696,17.288 8.864 C 17.481 8.927,17.548 9.016,17.501 9.150 C 17.488 9.189,16.827 9.652,16.032 10.180 C 14.128 11.445,14.055 11.497,13.945 11.672 C 13.893 11.754,13.830 11.916,13.805 12.032 C 13.635 12.826,14.484 13.482,15.207 13.116 C 15.288 13.075,16.119 12.528,17.052 11.902 C 18.907 10.657,19.041 10.545,19.288 10.035 C 19.597 9.398,19.601 8.791,19.302 8.138 C 19.085 7.665,18.561 7.181,18.091 7.019 C 17.521 6.823,4.111 3.001,4.000 3.003 C 3.923 3.004,3.773 3.032,3.667 3.065 M18.695 13.057 C 18.342 13.168,18.095 13.451,18.019 13.835 L 17.976 14.050 17.757 14.118 C 17.003 14.351,16.361 14.980,16.118 15.722 C 16.034 15.976,16.020 16.094,16.022 16.520 C 16.024 16.960,16.038 17.056,16.133 17.320 C 16.394 18.039,16.964 18.609,17.680 18.867 C 17.961 18.968,18.033 18.976,18.800 18.992 C 19.702 19.010,19.786 19.030,19.922 19.252 C 20.021 19.415,20.021 19.585,19.922 19.748 C 19.770 19.996,19.746 20.000,18.248 20.000 C 16.774 20.000,16.653 20.014,16.382 20.221 C 16.302 20.282,16.187 20.415,16.128 20.516 C 16.037 20.672,16.020 20.746,16.020 21.000 C 16.020 21.256,16.036 21.328,16.131 21.489 C 16.256 21.702,16.449 21.864,16.670 21.943 C 16.768 21.978,17.022 21.997,17.405 21.998 L 17.991 22.000 18.018 22.179 C 18.054 22.422,18.258 22.712,18.497 22.859 C 18.671 22.966,18.729 22.980,19.000 22.980 C 19.271 22.980,19.329 22.966,19.503 22.859 C 19.752 22.706,19.949 22.419,19.984 22.160 L 20.010 21.966 20.294 21.873 C 21.001 21.642,21.605 21.046,21.868 20.320 C 21.965 20.052,21.976 19.965,21.976 19.500 C 21.976 19.035,21.965 18.948,21.868 18.680 C 21.646 18.068,21.195 17.561,20.620 17.277 C 20.172 17.055,19.869 17.002,19.068 17.001 C 18.319 17.000,18.216 16.974,18.078 16.748 C 17.932 16.508,18.023 16.193,18.276 16.062 C 18.377 16.010,18.612 16.000,19.788 15.998 C 21.285 15.996,21.350 15.989,21.619 15.783 C 21.696 15.725,21.808 15.592,21.869 15.489 C 21.964 15.328,21.980 15.256,21.980 15.000 C 21.980 14.746,21.963 14.672,21.872 14.516 C 21.634 14.111,21.351 14.000,20.559 14.000 L 20.010 14.000 19.983 13.830 C 19.926 13.473,19.648 13.163,19.290 13.055 C 19.068 12.988,18.913 12.989,18.695 13.057 " stroke="none" fill-rule="evenodd" fill="black"></path></svg>