<svg xmlns="http://www.w3.org/2000/svg" width="24" height="24" viewBox="0 0 24 24" fill="none" stroke="currentColor" stroke-width="2" stroke-linecap="round" stroke-linejoin="round"><path d="M3.667 3.065 C 3.301 3.177,3.000 3.599,3.000 4.000 C 3.000 4.215,6.975 18.003,7.128 18.318 C 7.302 18.677,7.698 19.065,8.083 19.255 C 8.769 19.593,9.494 19.579,10.148 19.216 C 10.480 19.031,10.733 18.778,11.039 18.320 C 11.179 18.111,11.535 17.584,11.830 17.149 L 12.367 16.358 12.606 16.579 C 12.911 16.861,13.039 16.926,13.340 16.950 C 14.080 17.009,14.623 16.237,14.317 15.560 C 14.207 15.318,12.935 14.032,12.671 13.897 C 12.278 13.695,11.712 13.813,11.448 14.153 C 11.385 14.234,10.851 15.014,10.262 15.886 C 9.627 16.827,9.161 17.481,9.116 17.493 C 9.074 17.504,9.005 17.483,8.964 17.446 C 8.909 17.399,8.411 15.721,7.182 11.445 C 6.244 8.181,5.484 5.503,5.494 5.493 C 5.509 5.478,16.768 8.696,17.288 8.864 C 17.481 8.927,17.548 9.016,17.501 9.150 C 17.488 9.189,16.745 9.706,15.851 10.300 C 14.956 10.894,14.160 11.444,14.081 11.521 C 13.883 11.716,13.792 11.926,13.789 12.195 C 13.785 12.642,13.759 12.609,15.415 14.273 C 16.254 15.116,17.016 15.851,17.108 15.906 C 17.204 15.962,17.368 16.015,17.488 16.027 C 18.224 16.103,18.771 15.421,18.539 14.715 C 18.475 14.519,18.375 14.406,17.410 13.433 L 16.351 12.367 17.546 11.569 C 18.866 10.688,19.050 10.527,19.288 10.035 C 19.597 9.398,19.601 8.791,19.302 8.138 C 19.085 7.665,18.561 7.181,18.091 7.019 C 17.521 6.823,4.111 3.001,4.000 3.003 C 3.923 3.004,3.773 3.032,3.667 3.065 M15.695 18.057 C 15.466 18.129,15.256 18.299,15.128 18.516 C 15.037 18.672,15.020 18.746,15.020 19.000 C 15.020 19.256,15.036 19.328,15.131 19.489 C 15.256 19.702,15.449 19.864,15.670 19.943 C 15.891 20.022,22.109 20.022,22.330 19.943 C 22.551 19.864,22.744 19.702,22.869 19.489 C 22.964 19.328,22.980 19.256,22.980 19.000 C 22.980 18.746,22.963 18.672,22.872 18.516 C 22.740 18.293,22.533 18.128,22.290 18.055 C 22.030 17.977,15.945 17.979,15.695 18.057 " stroke="none" fill-rule="evenodd" fill="black"></path></svg>