<svg xmlns="http://www.w3.org/2000/svg" width="24" height="24" viewBox="0 0 24 24" fill="none" stroke="currentColor" stroke-width="2" stroke-linecap="round" stroke-linejoin="round"><path d="M3.667 3.065 C 3.301 3.177,3.000 3.599,3.000 4.000 C 3.000 4.215,6.975 18.003,7.128 18.318 C 7.208 18.483,7.348 18.670,7.519 18.842 C 8.372 19.695,9.745 19.716,10.590 18.889 C 10.696 18.785,11.173 18.122,11.650 17.415 L 12.516 16.131 12.715 16.104 C 13.314 16.025,13.717 15.341,13.499 14.773 C 13.409 14.536,12.927 14.025,12.673 13.896 C 12.276 13.695,11.712 13.814,11.448 14.153 C 11.385 14.234,10.851 15.014,10.262 15.886 C 9.627 16.827,9.161 17.481,9.116 17.493 C 9.074 17.504,9.005 17.483,8.964 17.446 C 8.909 17.399,8.411 15.721,7.182 11.445 C 6.244 8.181,5.484 5.503,5.494 5.493 C 5.509 5.478,16.768 8.696,17.288 8.864 C 17.482 8.927,17.546 9.014,17.502 9.154 C 17.489 9.195,17.446 9.245,17.407 9.264 C 17.368 9.284,16.604 9.791,15.709 10.391 C 13.951 11.570,13.893 11.619,13.808 12.020 C 13.764 12.229,13.797 12.523,13.884 12.691 C 13.951 12.819,15.073 13.951,15.241 14.059 C 15.621 14.303,16.151 14.242,16.476 13.917 C 16.666 13.728,16.758 13.504,16.759 13.229 C 16.760 12.956,16.690 12.769,16.498 12.534 L 16.357 12.363 17.549 11.567 C 18.866 10.689,19.050 10.527,19.288 10.035 C 19.597 9.398,19.601 8.791,19.302 8.138 C 19.085 7.665,18.561 7.181,18.091 7.019 C 17.521 6.823,4.111 3.001,4.000 3.003 C 3.923 3.004,3.773 3.032,3.667 3.065 M18.617 14.577 C 18.415 14.665,18.193 14.886,18.094 15.100 C 18.015 15.270,18.001 15.364,18.000 15.724 L 18.000 16.148 17.708 16.292 C 17.548 16.371,17.334 16.499,17.233 16.576 L 17.050 16.716 16.664 16.503 C 16.211 16.253,15.998 16.209,15.686 16.302 C 15.161 16.458,14.862 17.002,15.014 17.526 C 15.098 17.815,15.269 17.998,15.677 18.238 L 16.014 18.436 16.017 19.002 L 16.020 19.567 15.649 19.786 C 15.230 20.032,15.075 20.208,14.999 20.524 C 14.876 21.035,15.183 21.552,15.700 21.702 C 16.043 21.802,16.254 21.745,16.876 21.388 L 17.053 21.286 17.235 21.425 C 17.335 21.501,17.548 21.629,17.708 21.708 L 18.000 21.852 18.000 22.276 C 18.001 22.638,18.015 22.729,18.095 22.900 C 18.276 23.281,18.595 23.488,19.000 23.488 C 19.405 23.488,19.724 23.281,19.905 22.900 C 19.986 22.729,19.999 22.639,20.000 22.274 L 20.000 21.848 20.269 21.721 C 20.418 21.652,20.633 21.524,20.749 21.437 L 20.959 21.278 21.120 21.380 C 21.666 21.725,21.988 21.810,22.323 21.699 C 22.828 21.531,23.121 21.024,23.001 20.524 C 22.926 20.210,22.771 20.034,22.352 19.784 L 21.980 19.562 21.983 18.999 L 21.986 18.436 22.323 18.238 C 22.731 17.998,22.902 17.815,22.986 17.526 C 23.138 17.002,22.839 16.458,22.314 16.302 C 22.002 16.209,21.789 16.253,21.336 16.503 L 20.950 16.716 20.767 16.576 C 20.666 16.499,20.452 16.371,20.292 16.292 L 20.000 16.148 20.000 15.724 C 19.999 15.362,19.985 15.271,19.905 15.100 C 19.793 14.865,19.599 14.669,19.391 14.582 C 19.210 14.506,18.785 14.503,18.617 14.577 M19.260 18.044 C 19.497 18.107,19.701 18.263,19.849 18.494 C 19.968 18.679,19.980 18.727,19.980 19.003 C 19.980 19.287,19.970 19.322,19.831 19.531 C 19.613 19.859,19.389 19.980,19.000 19.979 C 18.665 19.978,18.526 19.923,18.308 19.705 C 18.104 19.501,18.022 19.300,18.022 19.000 C 18.022 18.334,18.621 17.871,19.260 18.044 " stroke="none" fill-rule="evenodd" fill="black"></path></svg>