<svg xmlns="http://www.w3.org/2000/svg" width="24" height="24" viewBox="0 0 24 24" fill="none" stroke="currentColor" stroke-width="2" stroke-linecap="round" stroke-linejoin="round"><path d="M2.670 2.061 C 2.448 2.142,2.250 2.309,2.128 2.516 C 2.036 2.672,2.020 2.745,2.021 3.000 C 2.021 3.214,2.043 3.340,2.096 3.440 C 2.137 3.517,2.383 3.796,2.642 4.060 L 3.114 4.540 5.059 11.300 C 6.279 15.542,7.049 18.156,7.128 18.318 C 7.302 18.677,7.698 19.065,8.083 19.255 C 8.769 19.593,9.494 19.579,10.148 19.216 C 10.480 19.031,10.733 18.778,11.039 18.320 C 11.179 18.111,11.535 17.583,11.832 17.146 L 12.370 16.352 14.515 18.489 C 16.845 20.810,16.841 20.806,17.424 20.943 C 17.936 21.064,18.567 20.957,18.985 20.679 L 19.150 20.569 19.745 21.167 C 20.481 21.907,20.594 21.980,21.000 21.980 C 21.257 21.980,21.327 21.964,21.492 21.867 C 21.968 21.587,22.139 20.967,21.865 20.508 C 21.810 20.416,17.665 16.243,12.653 11.235 C 4.231 2.820,3.525 2.125,3.343 2.065 C 3.107 1.987,2.874 1.986,2.670 2.061 M9.268 4.658 C 8.889 4.793,8.628 5.105,8.576 5.486 C 8.526 5.851,8.760 6.307,9.080 6.467 C 9.179 6.516,11.024 7.062,13.180 7.680 C 15.336 8.298,17.185 8.831,17.288 8.864 C 17.481 8.927,17.548 9.016,17.501 9.150 C 17.487 9.188,16.934 9.580,16.272 10.020 C 15.610 10.460,15.017 10.871,14.953 10.934 C 14.401 11.481,14.691 12.431,15.463 12.604 C 15.840 12.689,15.951 12.635,17.420 11.654 C 18.875 10.683,19.046 10.534,19.288 10.035 C 19.597 9.398,19.601 8.791,19.302 8.138 C 19.065 7.621,18.505 7.135,17.962 6.976 C 14.986 6.104,9.668 4.600,9.562 4.602 C 9.484 4.603,9.352 4.628,9.268 4.658 M12.125 13.803 C 11.849 13.831,11.580 13.973,11.433 14.168 C 11.379 14.241,10.852 15.014,10.263 15.886 C 9.628 16.827,9.161 17.481,9.116 17.493 C 9.074 17.504,9.005 17.483,8.964 17.446 C 8.909 17.399,8.493 16.006,7.482 12.480 C 6.709 9.785,6.067 7.553,6.056 7.520 C 6.046 7.487,7.460 8.882,9.199 10.620 L 12.361 13.780 12.125 13.803 " stroke="none" fill-rule="evenodd" fill="black"></path></svg>