<svg xmlns="http://www.w3.org/2000/svg" width="24" height="24" viewBox="0 0 24 24" fill="none" stroke="currentColor" stroke-width="2" stroke-linecap="round" stroke-linejoin="round"><path d="M3.667 3.065 C 3.301 3.177,3.000 3.599,3.000 4.000 C 3.000 4.215,6.975 18.003,7.128 18.318 C 7.302 18.677,7.698 19.065,8.083 19.255 C 8.769 19.593,9.494 19.579,10.148 19.216 C 10.480 19.031,10.733 18.778,11.039 18.320 C 11.179 18.111,11.535 17.583,11.831 17.147 L 12.369 16.354 13.415 17.391 C 14.325 18.293,14.486 18.436,14.657 18.494 C 15.049 18.625,15.411 18.543,15.698 18.256 C 15.998 17.955,16.082 17.479,15.899 17.115 C 15.790 16.898,12.895 14.012,12.671 13.897 C 12.278 13.695,11.712 13.813,11.448 14.153 C 11.385 14.234,10.851 15.014,10.262 15.886 C 9.627 16.827,9.161 17.481,9.116 17.493 C 9.074 17.504,9.005 17.483,8.964 17.446 C 8.909 17.399,8.411 15.721,7.182 11.445 C 6.244 8.181,5.484 5.503,5.494 5.493 C 5.509 5.478,16.768 8.696,17.288 8.864 C 17.482 8.927,17.546 9.014,17.502 9.154 C 17.489 9.195,17.446 9.245,17.407 9.264 C 17.368 9.284,16.604 9.791,15.709 10.391 C 13.951 11.570,13.893 11.619,13.808 12.020 C 13.758 12.257,13.803 12.551,13.917 12.735 C 13.960 12.804,14.307 13.169,14.688 13.548 C 15.459 14.314,15.588 14.398,15.980 14.398 C 16.285 14.398,16.491 14.305,16.707 14.070 C 16.891 13.869,16.960 13.682,16.959 13.380 C 16.958 13.113,16.858 12.907,16.583 12.610 L 16.355 12.364 17.548 11.568 C 18.866 10.689,19.050 10.527,19.288 10.035 C 19.597 9.398,19.601 8.791,19.302 8.138 C 19.085 7.665,18.561 7.181,18.091 7.019 C 17.521 6.823,4.111 3.001,4.000 3.003 C 3.923 3.004,3.773 3.032,3.667 3.065 M18.695 15.057 C 18.466 15.129,18.256 15.299,18.128 15.516 L 18.020 15.700 18.020 17.503 L 18.020 19.306 18.141 19.503 C 18.543 20.156,19.457 20.156,19.859 19.503 L 19.980 19.306 19.980 17.503 L 19.980 15.700 19.872 15.516 C 19.628 15.101,19.150 14.915,18.695 15.057 M18.695 21.057 C 18.466 21.129,18.256 21.299,18.128 21.516 C 18.036 21.672,18.020 21.745,18.021 22.000 C 18.022 22.332,18.101 22.533,18.306 22.728 C 18.785 23.181,19.580 23.046,19.893 22.460 C 20.025 22.211,20.015 21.760,19.872 21.516 C 19.628 21.101,19.150 20.915,18.695 21.057 " stroke="none" fill-rule="evenodd" fill="black"></path></svg>