<svg xmlns="http://www.w3.org/2000/svg" width="24" height="24" viewBox="0 0 24 24" fill="none" stroke="currentColor" stroke-width="2" stroke-linecap="round" stroke-linejoin="round"><path d="M3.667 3.065 C 3.301 3.177,3.000 3.599,3.000 4.000 C 3.000 4.215,6.975 18.003,7.128 18.318 C 7.208 18.483,7.348 18.670,7.519 18.842 C 8.383 19.706,9.771 19.715,10.612 18.863 C 10.727 18.748,11.171 18.131,11.600 17.493 L 12.379 16.333 12.540 16.405 C 12.753 16.502,13.130 16.502,13.340 16.404 C 13.539 16.311,13.776 16.067,13.858 15.871 C 13.945 15.662,13.936 15.299,13.838 15.082 C 13.731 14.847,12.922 14.025,12.671 13.896 C 12.277 13.695,11.712 13.814,11.448 14.153 C 11.385 14.234,10.851 15.014,10.262 15.886 C 9.627 16.827,9.161 17.481,9.116 17.493 C 9.074 17.504,9.005 17.483,8.964 17.446 C 8.909 17.399,8.411 15.721,7.182 11.445 C 6.244 8.181,5.484 5.503,5.494 5.493 C 5.509 5.478,16.768 8.696,17.288 8.864 C 17.482 8.927,17.546 9.014,17.502 9.154 C 17.489 9.195,17.446 9.245,17.407 9.264 C 17.368 9.284,16.604 9.791,15.709 10.391 C 13.951 11.570,13.893 11.619,13.808 12.020 C 13.758 12.257,13.803 12.550,13.917 12.735 C 14.058 12.961,14.934 13.792,15.122 13.878 C 15.607 14.098,16.196 13.874,16.425 13.382 C 16.562 13.087,16.551 12.829,16.382 12.433 C 16.359 12.378,16.580 12.214,17.547 11.569 C 18.866 10.689,19.050 10.527,19.288 10.035 C 19.597 9.398,19.601 8.791,19.302 8.138 C 19.085 7.665,18.561 7.181,18.091 7.019 C 17.521 6.823,4.111 3.001,4.000 3.003 C 3.923 3.004,3.773 3.032,3.667 3.065 M18.358 15.061 C 17.230 15.237,16.143 15.974,15.569 16.953 C 14.320 19.083,15.233 21.785,17.512 22.704 C 19.558 23.528,21.877 22.538,22.704 20.488 C 23.090 19.530,23.090 18.469,22.705 17.516 C 22.172 16.197,21.001 15.269,19.605 15.058 C 19.144 14.989,18.816 14.990,18.358 15.061 M19.470 17.057 C 19.485 17.071,18.954 17.626,18.290 18.290 C 17.626 18.954,17.072 19.486,17.059 19.472 C 17.045 19.459,17.024 19.314,17.012 19.150 C 16.940 18.202,17.563 17.318,18.477 17.071 C 18.735 17.001,19.405 16.991,19.470 17.057 M20.982 18.784 C 21.047 19.396,20.844 19.961,20.398 20.410 C 20.104 20.705,19.779 20.885,19.404 20.963 C 19.181 21.010,18.584 20.997,18.532 20.945 C 18.504 20.918,20.872 18.520,20.927 18.520 C 20.941 18.520,20.966 18.639,20.982 18.784 " stroke="none" fill-rule="evenodd" fill="black"></path></svg>