<svg xmlns="http://www.w3.org/2000/svg" width="24" height="24" viewBox="0 0 24 24" fill="none" stroke="currentColor" stroke-width="2" stroke-linecap="round" stroke-linejoin="round"><path d="M3.667 3.065 C 3.301 3.177,3.000 3.599,3.000 4.000 C 3.000 4.215,6.975 18.003,7.128 18.318 C 7.302 18.677,7.698 19.065,8.083 19.255 C 8.769 19.593,9.494 19.579,10.148 19.216 C 10.480 19.031,10.733 18.778,11.039 18.320 C 11.179 18.111,11.535 17.584,11.830 17.148 L 12.368 16.356 12.510 16.465 C 12.941 16.793,13.537 16.733,13.886 16.326 C 14.129 16.041,14.191 15.619,14.037 15.281 C 13.929 15.042,12.929 14.028,12.671 13.897 C 12.277 13.695,11.712 13.814,11.448 14.153 C 11.385 14.234,10.851 15.014,10.262 15.886 C 9.627 16.827,9.161 17.481,9.116 17.493 C 9.074 17.504,9.005 17.483,8.964 17.446 C 8.909 17.399,8.411 15.721,7.182 11.445 C 6.244 8.181,5.484 5.503,5.494 5.493 C 5.509 5.478,16.768 8.696,17.288 8.864 C 17.482 8.927,17.546 9.014,17.502 9.154 C 17.489 9.195,17.446 9.245,17.407 9.264 C 17.368 9.284,16.604 9.791,15.709 10.391 C 13.951 11.570,13.893 11.619,13.808 12.020 C 13.758 12.257,13.803 12.551,13.917 12.735 C 14.064 12.971,15.171 14.031,15.361 14.117 C 15.742 14.290,16.166 14.209,16.461 13.906 C 16.855 13.501,16.869 12.988,16.498 12.534 L 16.357 12.363 17.549 11.567 C 18.866 10.689,19.050 10.527,19.288 10.035 C 19.597 9.398,19.601 8.791,19.302 8.138 C 19.085 7.665,18.561 7.181,18.091 7.019 C 17.521 6.823,4.111 3.001,4.000 3.003 C 3.923 3.004,3.773 3.032,3.667 3.065 M16.670 16.061 C 16.448 16.142,16.250 16.309,16.128 16.516 C 16.037 16.672,16.020 16.746,16.020 17.000 C 16.020 17.254,16.036 17.328,16.127 17.480 C 16.186 17.579,16.650 18.074,17.157 18.579 L 18.079 19.499 17.124 20.459 C 16.599 20.988,16.138 21.481,16.101 21.555 C 15.872 22.009,16.056 22.601,16.508 22.867 C 16.673 22.964,16.743 22.980,17.000 22.980 C 17.254 22.980,17.328 22.964,17.480 22.873 C 17.579 22.814,18.074 22.350,18.579 21.843 L 19.499 20.921 20.459 21.876 C 20.988 22.401,21.483 22.864,21.560 22.905 C 21.659 22.957,21.787 22.979,22.000 22.979 C 22.258 22.980,22.327 22.964,22.492 22.867 C 22.714 22.737,22.901 22.498,22.965 22.264 C 23.019 22.061,22.989 21.733,22.899 21.555 C 22.862 21.481,22.401 20.988,21.876 20.459 L 20.921 19.499 21.843 18.579 C 22.350 18.074,22.814 17.579,22.873 17.480 C 22.964 17.328,22.980 17.254,22.980 17.000 C 22.980 16.746,22.963 16.672,22.872 16.516 C 22.618 16.084,22.136 15.905,21.657 16.066 C 21.486 16.124,21.330 16.262,20.480 17.104 L 19.500 18.076 18.520 17.104 C 17.671 16.262,17.514 16.124,17.343 16.066 C 17.108 15.987,16.875 15.985,16.670 16.061 " stroke="none" fill-rule="evenodd" fill="black"></path></svg>