<svg xmlns="http://www.w3.org/2000/svg" width="24" height="24" viewBox="0 0 24 24" fill="none" stroke="currentColor" stroke-width="2" stroke-linecap="round" stroke-linejoin="round"><path d="M3.667 3.065 C 3.301 3.177,3.000 3.599,3.000 4.000 C 3.000 4.215,6.975 18.003,7.128 18.318 C 7.208 18.483,7.348 18.670,7.519 18.842 C 8.372 19.695,9.745 19.716,10.590 18.889 C 10.696 18.785,11.122 18.196,11.536 17.580 C 11.951 16.964,12.312 16.436,12.339 16.408 C 12.379 16.365,12.414 16.371,12.533 16.441 C 12.741 16.564,13.108 16.591,13.344 16.501 C 13.883 16.295,14.149 15.673,13.917 15.162 C 13.810 14.925,12.925 14.026,12.671 13.896 C 12.277 13.695,11.712 13.814,11.448 14.153 C 11.385 14.234,10.851 15.014,10.262 15.886 C 9.627 16.827,9.161 17.481,9.116 17.493 C 9.074 17.504,9.005 17.483,8.964 17.446 C 8.909 17.399,8.411 15.721,7.182 11.445 C 6.244 8.181,5.484 5.503,5.494 5.493 C 5.509 5.478,16.768 8.696,17.288 8.864 C 17.481 8.927,17.548 9.016,17.501 9.150 C 17.488 9.189,16.745 9.706,15.851 10.300 C 14.956 10.894,14.160 11.444,14.081 11.521 C 13.883 11.716,13.792 11.926,13.789 12.195 C 13.785 12.641,13.762 12.612,15.375 14.231 C 16.977 15.841,17.075 15.920,17.453 15.920 C 17.772 15.920,17.960 15.843,18.182 15.621 C 18.327 15.478,18.400 15.365,18.438 15.229 C 18.501 15.001,18.475 14.664,18.378 14.475 C 18.341 14.401,17.869 13.896,17.330 13.353 L 16.351 12.367 17.546 11.570 C 18.866 10.688,19.050 10.527,19.288 10.035 C 19.597 9.398,19.601 8.791,19.302 8.138 C 19.085 7.665,18.561 7.181,18.091 7.019 C 17.521 6.823,4.111 3.001,4.000 3.003 C 3.923 3.004,3.773 3.032,3.667 3.065 M20.640 16.068 C 20.488 16.121,20.196 16.394,18.731 17.853 L 17.002 19.575 16.271 18.855 C 15.655 18.247,15.509 18.123,15.343 18.067 C 14.865 17.905,14.383 18.083,14.128 18.516 C 14.036 18.672,14.020 18.745,14.021 19.000 C 14.021 19.213,14.043 19.341,14.095 19.440 C 14.197 19.633,16.297 21.740,16.520 21.873 C 16.673 21.964,16.745 21.980,17.000 21.979 C 17.212 21.979,17.341 21.957,17.440 21.905 C 17.632 21.805,21.739 17.705,21.873 17.480 C 21.964 17.328,21.980 17.254,21.980 17.000 C 21.980 16.746,21.963 16.672,21.872 16.516 C 21.617 16.083,21.121 15.903,20.640 16.068 " stroke="none" fill-rule="evenodd" fill="black"></path></svg>