<svg xmlns="http://www.w3.org/2000/svg" width="24" height="24" viewBox="0 0 24 24" fill="none" stroke="currentColor" stroke-width="2" stroke-linecap="round" stroke-linejoin="round"><path d="M3.667 3.065 C 3.301 3.177,3.000 3.599,3.000 4.000 C 3.000 4.215,6.975 18.003,7.128 18.318 C 7.208 18.483,7.348 18.670,7.519 18.842 C 8.372 19.695,9.744 19.716,10.590 18.889 C 10.696 18.785,11.167 18.131,11.636 17.435 L 12.488 16.170 12.706 16.148 C 13.105 16.107,13.461 15.807,13.565 15.424 C 13.620 15.220,13.589 14.892,13.497 14.715 C 13.391 14.507,12.882 14.003,12.671 13.896 C 12.277 13.695,11.711 13.814,11.448 14.153 C 11.385 14.234,10.851 15.014,10.262 15.886 C 9.627 16.827,9.161 17.481,9.116 17.493 C 9.074 17.504,9.005 17.483,8.964 17.446 C 8.909 17.399,8.411 15.721,7.182 11.445 C 6.244 8.181,5.484 5.503,5.494 5.493 C 5.509 5.478,16.768 8.696,17.288 8.864 C 17.481 8.927,17.548 9.016,17.501 9.150 C 17.488 9.189,16.827 9.652,16.032 10.180 C 14.128 11.445,14.055 11.497,13.945 11.672 C 13.893 11.754,13.830 11.916,13.805 12.032 C 13.635 12.826,14.484 13.482,15.207 13.116 C 15.288 13.075,16.119 12.528,17.052 11.902 C 18.907 10.657,19.041 10.545,19.288 10.035 C 19.597 9.398,19.601 8.791,19.302 8.138 C 19.085 7.665,18.561 7.181,18.091 7.019 C 17.521 6.823,4.111 3.001,4.000 3.003 C 3.923 3.004,3.773 3.032,3.667 3.065 M18.340 14.060 C 17.913 14.130,17.642 14.217,17.275 14.399 C 16.236 14.915,15.537 15.720,15.185 16.807 C 14.791 18.021,15.052 19.450,15.851 20.460 C 16.124 20.805,16.714 21.363,17.729 22.233 C 18.558 22.945,18.617 22.980,19.000 22.979 C 19.211 22.979,19.339 22.957,19.433 22.907 C 19.586 22.824,20.750 21.830,21.465 21.171 C 22.256 20.443,22.645 19.845,22.868 19.015 C 22.962 18.669,22.975 18.543,22.976 18.000 C 22.977 17.486,22.962 17.325,22.890 17.059 C 22.555 15.825,21.863 14.972,20.736 14.406 C 20.015 14.045,19.175 13.924,18.340 14.060 M19.383 16.043 C 19.962 16.149,20.496 16.556,20.760 17.093 C 20.848 17.273,20.941 17.528,20.964 17.660 C 21.049 18.125,20.934 18.671,20.660 19.101 C 20.538 19.293,19.979 19.839,19.309 20.421 L 18.997 20.691 18.909 20.614 C 17.924 19.754,17.524 19.372,17.355 19.130 C 17.082 18.739,16.949 18.129,17.035 17.660 C 17.107 17.269,17.361 16.802,17.640 16.550 C 18.143 16.095,18.729 15.924,19.383 16.043 M18.695 17.057 C 18.466 17.129,18.256 17.299,18.128 17.516 C 18.036 17.672,18.020 17.745,18.021 18.000 C 18.022 18.332,18.101 18.533,18.306 18.728 C 18.785 19.181,19.580 19.046,19.893 18.460 C 20.025 18.211,20.015 17.760,19.872 17.516 C 19.628 17.101,19.150 16.915,18.695 17.057 " stroke="none" fill-rule="evenodd" fill="black"></path></svg>