<svg xmlns="http://www.w3.org/2000/svg" width="24" height="24" viewBox="0 0 24 24" fill="none" stroke="currentColor" stroke-width="2" stroke-linecap="round" stroke-linejoin="round"><path d="M2.670 2.061 C 2.448 2.142,2.250 2.309,2.128 2.516 C 2.036 2.672,2.020 2.745,2.021 3.000 C 2.021 3.213,2.043 3.341,2.095 3.440 C 2.136 3.517,2.637 4.051,3.210 4.626 L 4.250 5.672 4.072 5.906 C 2.665 7.747,1.927 10.057,2.014 12.340 C 2.113 14.916,3.129 17.249,4.940 19.060 C 8.445 22.565,13.980 22.980,17.949 20.035 L 18.330 19.752 19.375 20.792 C 19.950 21.363,20.483 21.864,20.560 21.905 C 20.659 21.957,20.787 21.979,21.000 21.979 C 21.258 21.980,21.327 21.964,21.492 21.867 C 21.968 21.587,22.139 20.967,21.865 20.508 C 21.810 20.416,17.665 16.243,12.653 11.235 C 4.231 2.820,3.525 2.125,3.343 2.065 C 3.107 1.987,2.874 1.986,2.670 2.061 M11.100 2.043 C 9.970 2.150,8.820 2.460,7.780 2.939 C 7.375 3.126,7.228 3.238,7.098 3.459 C 6.787 3.991,7.055 4.706,7.638 4.899 C 7.935 4.998,8.154 4.965,8.621 4.751 C 8.840 4.650,9.202 4.505,9.425 4.427 C 11.988 3.536,14.946 4.069,17.060 5.803 C 17.372 6.060,18.021 6.714,18.267 7.020 C 18.801 7.686,19.291 8.584,19.562 9.396 C 19.724 9.881,19.920 10.703,19.920 10.899 L 19.920 10.997 17.830 11.009 C 16.680 11.015,15.708 11.036,15.669 11.055 C 15.606 11.085,15.603 11.077,15.639 10.982 C 15.662 10.923,15.680 10.772,15.680 10.647 C 15.680 10.465,15.651 10.364,15.536 10.140 C 15.161 9.408,14.574 8.833,13.800 8.438 C 13.189 8.127,12.561 8.363,12.338 8.988 C 12.171 9.456,12.390 9.936,12.901 10.222 C 13.251 10.418,13.529 10.677,13.705 10.972 C 14.005 11.478,14.256 11.654,14.680 11.658 C 14.823 11.659,14.969 11.646,15.003 11.628 C 15.059 11.600,15.062 11.619,15.027 11.789 C 14.941 12.211,15.125 12.630,15.497 12.859 L 15.694 12.980 17.807 12.991 L 19.920 13.003 19.920 13.131 C 19.919 13.508,19.604 14.568,19.271 15.320 C 18.978 15.980,18.974 16.279,19.251 16.648 C 19.616 17.133,20.396 17.167,20.778 16.716 C 20.915 16.554,21.193 15.969,21.386 15.440 C 22.580 12.157,22.010 8.593,19.845 5.800 C 19.501 5.357,18.719 4.573,18.240 4.191 C 16.829 3.068,15.111 2.333,13.345 2.097 C 12.779 2.022,11.619 1.994,11.100 2.043 M7.125 8.545 L 8.551 9.970 8.430 10.215 C 8.363 10.349,8.269 10.576,8.220 10.720 L 8.133 10.980 6.106 10.990 C 4.195 11.000,4.080 10.997,4.080 10.930 C 4.080 10.892,4.107 10.716,4.141 10.540 C 4.351 9.434,4.758 8.446,5.386 7.510 C 5.531 7.296,5.660 7.120,5.674 7.120 C 5.688 7.120,6.341 7.761,7.125 8.545 M11.298 12.718 C 11.957 13.378,12.486 13.927,12.473 13.940 C 12.419 13.994,11.870 14.008,11.632 13.962 C 10.825 13.805,10.169 13.136,10.037 12.333 C 9.991 12.057,10.015 11.520,10.073 11.520 C 10.088 11.520,10.640 12.059,11.298 12.718 M8.221 13.280 C 8.689 14.666,9.888 15.684,11.355 15.941 C 12.155 16.081,13.042 15.945,13.800 15.566 L 14.031 15.451 15.456 16.876 C 16.239 17.659,16.880 18.313,16.880 18.328 C 16.880 18.343,16.688 18.484,16.454 18.641 C 15.488 19.286,14.434 19.699,13.220 19.907 C 12.616 20.010,11.294 20.000,10.680 19.888 C 9.023 19.584,7.665 18.901,6.482 17.775 C 5.322 16.671,4.495 15.177,4.178 13.616 C 4.124 13.349,4.080 13.101,4.080 13.065 C 4.080 13.005,4.254 13.000,6.106 13.010 L 8.133 13.020 8.221 13.280 " stroke="none" fill-rule="evenodd" fill="black"></path></svg>