<svg xmlns="http://www.w3.org/2000/svg" width="24" height="24" viewBox="0 0 24 24" fill="none" stroke="currentColor" stroke-width="2" stroke-linecap="round" stroke-linejoin="round"><path d="M5.499 3.043 C 4.380 3.233,3.461 4.048,3.114 5.160 L 3.020 5.460 3.020 12.000 L 3.020 18.540 3.114 18.840 C 3.422 19.827,4.173 20.578,5.160 20.886 L 5.460 20.980 12.000 20.980 L 18.540 20.980 18.840 20.886 C 19.827 20.578,20.578 19.827,20.886 18.840 L 20.980 18.540 20.980 12.000 L 20.980 5.460 20.886 5.160 C 20.581 4.182,19.832 3.428,18.861 3.121 L 18.540 3.020 12.120 3.014 C 8.589 3.011,5.609 3.024,5.499 3.043 M18.310 5.061 C 18.452 5.103,18.571 5.178,18.697 5.303 C 18.998 5.605,19.000 5.619,19.000 7.732 L 19.000 9.569 18.743 9.329 C 18.004 8.637,17.348 8.352,16.500 8.352 C 15.492 8.352,14.972 8.631,13.769 9.816 L 12.998 10.576 11.749 9.334 C 10.477 8.070,10.172 7.811,9.703 7.598 C 8.983 7.272,8.051 7.264,7.341 7.578 C 6.896 7.775,6.546 8.051,5.770 8.815 L 5.000 9.574 5.000 7.734 C 5.000 5.618,5.002 5.605,5.304 5.303 C 5.623 4.983,5.120 5.006,11.983 5.003 C 17.353 5.000,18.131 5.007,18.310 5.061 M13.695 6.055 C 13.464 6.130,13.255 6.300,13.128 6.516 C 13.037 6.672,13.020 6.746,13.020 7.000 C 13.020 7.257,13.036 7.327,13.133 7.492 C 13.651 8.374,14.998 8.018,14.998 7.000 C 14.998 6.623,14.792 6.281,14.463 6.112 C 14.265 6.010,13.911 5.984,13.695 6.055 M8.920 9.450 C 9.056 9.512,9.634 10.063,11.260 11.682 C 12.448 12.864,13.481 13.862,13.555 13.899 C 14.009 14.128,14.601 13.944,14.867 13.492 C 14.964 13.327,14.980 13.258,14.979 13.000 C 14.978 12.646,14.924 12.524,14.627 12.210 L 14.425 11.996 15.142 11.277 C 15.945 10.472,16.125 10.349,16.498 10.349 C 16.879 10.349,17.010 10.444,18.050 11.475 L 19.000 12.416 19.000 13.708 L 19.000 15.000 12.000 15.000 L 5.000 15.000 5.000 13.709 L 5.000 12.419 6.450 10.974 C 7.248 10.179,7.958 9.499,8.029 9.464 C 8.336 9.309,8.602 9.305,8.920 9.450 M19.000 17.554 C 19.000 18.352,18.890 18.633,18.484 18.872 L 18.300 18.980 12.000 18.980 L 5.700 18.980 5.516 18.872 C 5.415 18.813,5.284 18.700,5.225 18.623 C 5.038 18.377,5.000 18.202,5.000 17.575 L 5.000 17.000 12.000 17.000 L 19.000 17.000 19.000 17.554 " stroke="none" fill-rule="evenodd" fill="black"></path></svg>