<svg xmlns="http://www.w3.org/2000/svg" width="24" height="24" viewBox="0 0 24 24" fill="none" stroke="currentColor" stroke-width="2" stroke-linecap="round" stroke-linejoin="round"><path d="M2.670 2.061 C 2.448 2.142,2.250 2.309,2.128 2.516 C 2.036 2.672,2.020 2.745,2.021 3.000 C 2.021 3.212,2.043 3.341,2.095 3.440 C 2.135 3.517,3.176 4.590,4.408 5.824 L 6.647 8.068 6.497 8.192 C 6.356 8.308,6.341 8.312,6.237 8.259 C 5.745 8.004,4.748 7.940,4.139 8.125 C 3.179 8.417,2.419 9.181,2.114 10.160 C 1.979 10.594,1.979 11.406,2.114 11.840 C 2.421 12.826,3.173 13.578,4.160 13.886 C 4.417 13.966,4.541 13.980,5.020 13.978 C 5.547 13.976,5.601 13.968,5.940 13.847 C 6.138 13.776,6.327 13.708,6.361 13.697 C 6.398 13.684,7.529 14.466,9.323 15.748 L 12.224 17.820 12.125 18.120 C 12.040 18.378,12.026 18.498,12.023 18.980 C 12.020 19.461,12.033 19.582,12.114 19.840 C 12.422 20.827,13.174 21.579,14.160 21.886 C 14.412 21.964,14.547 21.979,15.000 21.979 C 15.453 21.979,15.588 21.964,15.840 21.886 C 16.816 21.582,17.584 20.820,17.876 19.866 C 17.922 19.715,17.960 19.544,17.960 19.487 C 17.960 19.398,18.147 19.568,19.190 20.606 C 19.867 21.280,20.483 21.864,20.560 21.905 C 20.659 21.957,20.787 21.979,21.000 21.979 C 21.258 21.980,21.327 21.964,21.492 21.867 C 21.968 21.587,22.139 20.967,21.865 20.508 C 21.810 20.416,17.665 16.243,12.653 11.235 C 4.231 2.820,3.525 2.125,3.343 2.065 C 3.107 1.987,2.874 1.986,2.670 2.061 M11.499 2.040 C 10.363 2.246,9.460 3.049,9.114 4.160 C 8.979 4.594,8.979 5.406,9.114 5.840 C 9.421 6.826,10.174 7.579,11.160 7.886 C 11.594 8.021,12.407 8.021,12.839 7.886 C 13.394 7.712,13.773 7.474,14.197 7.032 L 14.399 6.821 15.194 7.217 L 15.989 7.613 16.011 8.096 C 16.053 9.012,16.381 9.692,17.066 10.286 C 17.173 10.378,17.254 10.480,17.247 10.512 C 17.240 10.543,17.036 11.121,16.794 11.795 C 16.278 13.229,16.247 13.390,16.417 13.738 C 16.728 14.373,17.528 14.509,18.026 14.011 C 18.190 13.847,18.181 13.869,18.727 12.342 C 18.971 11.659,19.179 11.078,19.189 11.052 C 19.199 11.025,19.291 10.993,19.394 10.979 C 20.547 10.827,21.530 9.983,21.886 8.840 C 22.021 8.406,22.021 7.594,21.886 7.160 C 21.581 6.181,20.822 5.418,19.861 5.125 C 19.588 5.042,19.458 5.027,19.000 5.027 C 18.542 5.027,18.412 5.042,18.139 5.125 C 17.760 5.240,17.371 5.450,17.112 5.678 L 16.925 5.843 15.966 5.363 L 15.008 4.884 14.979 4.632 C 14.847 3.481,13.980 2.456,12.861 2.129 C 12.500 2.023,11.832 1.980,11.499 2.040 M12.310 4.061 C 12.688 4.173,13.000 4.598,13.000 5.001 C 13.000 5.331,12.784 5.696,12.484 5.872 C 12.328 5.963,12.254 5.980,12.000 5.980 C 11.746 5.980,11.672 5.963,11.516 5.872 C 10.935 5.530,10.833 4.774,11.304 4.303 C 11.583 4.024,11.916 3.944,12.310 4.061 M19.310 7.061 C 19.688 7.173,20.000 7.598,20.000 8.001 C 20.000 8.331,19.784 8.696,19.484 8.872 C 19.328 8.963,19.254 8.980,19.000 8.980 C 18.746 8.980,18.672 8.963,18.516 8.872 C 17.935 8.530,17.833 7.774,18.304 7.303 C 18.583 7.024,18.916 6.944,19.310 7.061 M14.243 16.104 C 14.049 16.152,13.833 16.222,13.763 16.259 C 13.692 16.295,13.612 16.319,13.584 16.312 C 13.556 16.306,12.238 15.374,10.654 14.242 L 7.774 12.184 7.874 11.882 C 7.963 11.615,7.975 11.513,7.975 11.000 C 7.974 10.474,7.964 10.389,7.863 10.083 L 7.752 9.746 7.906 9.615 L 8.060 9.484 11.327 12.749 L 14.595 16.015 14.243 16.104 M5.310 10.061 C 5.688 10.173,6.000 10.598,6.000 11.001 C 6.000 11.331,5.784 11.696,5.484 11.872 C 5.328 11.963,5.254 11.980,5.000 11.980 C 4.746 11.980,4.672 11.963,4.516 11.872 C 3.935 11.530,3.833 10.774,4.304 10.303 C 4.583 10.024,4.916 9.944,5.310 10.061 M15.310 18.061 C 15.688 18.173,16.000 18.598,16.000 19.001 C 16.000 19.331,15.784 19.696,15.484 19.872 C 15.328 19.963,15.254 19.980,15.000 19.980 C 14.746 19.980,14.672 19.963,14.516 19.872 C 13.935 19.530,13.833 18.774,14.304 18.303 C 14.583 18.024,14.916 17.944,15.310 18.061 " stroke="none" fill-rule="evenodd" fill="black"></path></svg>