<svg xmlns="http://www.w3.org/2000/svg" width="24" height="24" viewBox="0 0 24 24" fill="none" stroke="currentColor" stroke-width="2" stroke-linecap="round" stroke-linejoin="round"><path d="M6.960 2.062 C 5.904 2.289,5.088 3.227,5.012 4.301 C 4.984 4.702,5.050 4.922,5.276 5.173 C 5.638 5.574,6.283 5.600,6.675 5.228 C 6.846 5.066,6.999 4.745,7.000 4.548 C 7.001 4.130,7.410 3.872,7.747 4.078 C 7.818 4.121,7.899 4.197,7.927 4.248 C 7.970 4.322,7.984 5.136,8.000 8.323 L 8.020 12.306 8.141 12.503 C 8.543 13.156,9.457 13.156,9.859 12.503 C 9.979 12.308,9.980 12.300,9.993 11.653 L 10.007 11.000 12.000 11.000 L 13.993 11.000 14.007 11.653 C 14.020 12.300,14.021 12.308,14.141 12.503 C 14.543 13.156,15.457 13.156,15.859 12.503 L 15.980 12.306 16.000 8.323 C 16.016 5.136,16.030 4.322,16.073 4.248 C 16.143 4.125,16.354 4.000,16.492 4.000 C 16.764 4.000,16.999 4.250,17.000 4.540 C 17.001 4.874,17.289 5.285,17.618 5.422 C 17.834 5.512,18.188 5.507,18.405 5.410 C 18.624 5.313,18.847 5.069,18.940 4.825 C 18.997 4.676,19.007 4.570,18.988 4.305 C 18.927 3.437,18.407 2.666,17.620 2.277 C 16.884 1.913,16.116 1.913,15.380 2.277 C 14.796 2.565,14.314 3.115,14.123 3.712 L 14.030 4.000 11.999 4.000 L 9.969 4.000 9.875 3.710 C 9.488 2.523,8.201 1.796,6.960 2.062 M14.000 7.500 L 14.000 9.000 12.000 9.000 L 10.000 9.000 10.000 7.500 L 10.000 6.000 12.000 6.000 L 14.000 6.000 14.000 7.500 M7.360 14.060 C 6.823 14.152,6.250 14.413,5.797 14.773 C 5.675 14.870,5.440 15.109,5.276 15.304 C 5.111 15.499,4.905 15.707,4.818 15.767 C 4.493 15.988,3.972 16.059,3.560 15.936 C 3.266 15.849,3.185 15.793,2.840 15.441 C 2.430 15.021,2.100 14.912,1.684 15.058 C 1.160 15.243,0.884 15.791,1.056 16.308 C 1.138 16.554,1.476 16.971,1.810 17.238 C 2.919 18.124,4.486 18.249,5.722 17.550 C 6.110 17.331,6.400 17.084,6.721 16.698 C 7.144 16.192,7.496 16.000,8.000 16.000 C 8.504 16.000,8.856 16.192,9.278 16.697 C 9.995 17.556,10.924 18.000,12.004 18.000 C 13.073 18.000,14.008 17.552,14.721 16.698 C 15.144 16.192,15.496 16.000,16.000 16.000 C 16.504 16.000,16.856 16.192,17.278 16.697 C 17.620 17.107,17.950 17.380,18.360 17.594 C 19.621 18.250,21.093 18.108,22.209 17.222 C 22.523 16.973,22.864 16.549,22.944 16.308 C 23.116 15.791,22.840 15.243,22.316 15.058 C 21.900 14.912,21.570 15.021,21.160 15.441 C 20.815 15.793,20.734 15.849,20.440 15.936 C 20.028 16.059,19.507 15.988,19.182 15.767 C 19.095 15.707,18.889 15.499,18.724 15.304 C 18.560 15.109,18.325 14.870,18.203 14.773 C 16.912 13.748,15.088 13.748,13.797 14.773 C 13.675 14.870,13.440 15.109,13.276 15.304 C 13.111 15.499,12.905 15.707,12.818 15.767 C 12.373 16.070,11.627 16.070,11.182 15.767 C 11.095 15.707,10.889 15.499,10.724 15.304 C 10.560 15.109,10.325 14.870,10.203 14.773 C 9.405 14.140,8.385 13.884,7.360 14.060 M7.360 18.060 C 6.823 18.152,6.250 18.413,5.797 18.773 C 5.675 18.870,5.440 19.109,5.276 19.304 C 5.111 19.499,4.905 19.707,4.818 19.767 C 4.493 19.988,3.972 20.059,3.560 19.936 C 3.266 19.849,3.185 19.793,2.840 19.441 C 2.430 19.021,2.100 18.912,1.684 19.058 C 1.160 19.243,0.884 19.791,1.056 20.308 C 1.138 20.554,1.476 20.971,1.810 21.238 C 2.919 22.124,4.486 22.249,5.722 21.550 C 6.110 21.331,6.400 21.084,6.721 20.698 C 7.144 20.192,7.496 20.000,8.000 20.000 C 8.504 20.000,8.856 20.192,9.278 20.697 C 9.995 21.556,10.924 22.000,12.004 22.000 C 13.073 22.000,14.008 21.552,14.721 20.698 C 15.144 20.192,15.496 20.000,16.000 20.000 C 16.504 20.000,16.856 20.192,17.278 20.697 C 17.620 21.107,17.950 21.380,18.360 21.594 C 19.621 22.250,21.093 22.108,22.209 21.222 C 22.523 20.973,22.864 20.549,22.944 20.308 C 23.116 19.791,22.840 19.243,22.316 19.058 C 21.900 18.912,21.570 19.021,21.160 19.441 C 20.815 19.793,20.734 19.849,20.440 19.936 C 20.028 20.059,19.507 19.988,19.182 19.767 C 19.095 19.707,18.889 19.499,18.724 19.304 C 18.560 19.109,18.325 18.870,18.203 18.773 C 16.912 17.748,15.088 17.748,13.797 18.773 C 13.675 18.870,13.440 19.109,13.276 19.304 C 13.111 19.499,12.905 19.707,12.818 19.767 C 12.373 20.070,11.627 20.070,11.182 19.767 C 11.095 19.707,10.889 19.499,10.724 19.304 C 10.560 19.109,10.325 18.870,10.203 18.773 C 9.405 18.140,8.385 17.884,7.360 18.060 " stroke="none" fill-rule="evenodd" fill="black"></path></svg>