<svg xmlns="http://www.w3.org/2000/svg" width="24" height="24" viewBox="0 0 24 24" fill="none" stroke="currentColor" stroke-width="2" stroke-linecap="round" stroke-linejoin="round"><path d="M5.695 2.057 C 5.466 2.129,5.256 2.299,5.128 2.516 L 5.020 2.700 5.020 11.003 L 5.020 19.306 5.141 19.503 C 5.543 20.156,6.457 20.156,6.859 19.503 L 6.980 19.306 6.991 16.153 L 7.002 13.000 8.291 13.000 L 9.580 13.000 12.080 15.500 L 14.579 17.999 13.374 19.210 C 12.711 19.875,12.136 20.483,12.095 20.560 C 12.043 20.659,12.021 20.787,12.021 21.000 C 12.020 21.258,12.036 21.327,12.133 21.492 C 12.263 21.714,12.502 21.901,12.736 21.965 C 12.939 22.019,13.267 21.989,13.445 21.899 C 13.519 21.862,14.125 21.289,14.790 20.626 L 16.000 19.422 17.210 20.626 C 17.875 21.289,18.481 21.862,18.555 21.899 C 19.009 22.128,19.601 21.944,19.867 21.492 C 19.964 21.327,19.980 21.258,19.979 21.000 C 19.979 20.787,19.957 20.659,19.905 20.560 C 19.864 20.483,19.289 19.876,18.626 19.210 L 17.422 18.000 18.626 16.790 C 19.289 16.125,19.864 15.517,19.905 15.440 C 19.957 15.341,19.979 15.213,19.979 15.000 C 19.980 14.745,19.964 14.672,19.872 14.516 C 19.618 14.084,19.137 13.905,18.657 14.066 C 18.484 14.124,18.312 14.279,17.229 15.355 L 15.998 16.578 14.081 14.661 L 12.163 12.743 12.497 12.618 C 13.827 12.117,15.030 10.945,15.570 9.624 C 16.316 7.797,16.073 5.798,14.915 4.237 C 13.993 2.994,12.621 2.210,11.072 2.042 C 10.479 1.978,5.907 1.991,5.695 2.057 M11.405 4.109 C 12.176 4.324,12.948 4.876,13.396 5.533 C 13.595 5.824,13.826 6.344,13.906 6.680 C 14.004 7.091,14.004 7.909,13.906 8.320 C 13.760 8.933,13.388 9.571,12.915 10.023 C 12.465 10.451,12.028 10.705,11.420 10.890 C 11.152 10.972,11.048 10.977,9.070 10.990 L 7.000 11.005 7.000 7.500 L 7.000 3.995 9.050 4.009 C 10.994 4.023,11.116 4.029,11.405 4.109 " stroke="none" fill-rule="evenodd" fill="black"></path></svg>