<svg xmlns="http://www.w3.org/2000/svg" width="24" height="24" viewBox="0 0 24 24" fill="none" stroke="currentColor" stroke-width="2" stroke-linecap="round" stroke-linejoin="round"><path d="M2.670 2.061 C 2.159 2.248,1.880 2.819,2.054 3.318 C 2.110 3.480,2.110 3.514,2.053 3.690 C 1.870 4.249,2.255 4.897,2.820 4.982 L 2.998 5.009 3.009 9.794 L 3.020 14.580 3.114 14.860 C 3.443 15.840,4.162 16.560,5.140 16.885 L 5.420 16.979 8.210 16.991 L 11.000 17.004 11.000 18.002 L 11.000 19.000 9.946 19.000 C 8.797 19.000,8.644 19.022,8.382 19.221 C 8.302 19.282,8.187 19.415,8.128 19.516 C 8.037 19.672,8.020 19.746,8.020 20.000 C 8.020 20.256,8.036 20.328,8.131 20.489 C 8.256 20.702,8.449 20.864,8.670 20.943 C 8.891 21.022,15.109 21.022,15.330 20.943 C 15.551 20.864,15.744 20.702,15.869 20.489 C 15.964 20.328,15.980 20.256,15.980 20.000 C 15.980 19.746,15.963 19.672,15.872 19.516 C 15.813 19.415,15.698 19.282,15.618 19.221 C 15.356 19.022,15.203 19.000,14.054 19.000 L 13.000 19.000 13.000 18.000 L 13.000 17.000 14.290 17.000 L 15.580 17.000 17.960 19.383 C 19.282 20.706,20.420 21.813,20.520 21.873 C 20.673 21.964,20.746 21.980,21.000 21.980 C 21.257 21.980,21.327 21.964,21.492 21.867 C 21.968 21.587,22.139 20.967,21.865 20.508 C 21.810 20.416,17.665 16.243,12.653 11.235 C 4.231 2.820,3.525 2.125,3.343 2.065 C 3.107 1.987,2.874 1.986,2.670 2.061 M7.695 3.057 C 7.466 3.129,7.256 3.299,7.128 3.516 C 7.037 3.672,7.020 3.746,7.020 4.000 C 7.020 4.256,7.036 4.328,7.131 4.489 C 7.256 4.702,7.449 4.864,7.670 4.943 C 7.792 4.987,8.845 4.997,13.410 4.998 L 19.000 5.000 19.000 9.554 C 19.000 14.626,19.016 14.334,18.721 14.684 C 18.507 14.937,18.432 15.124,18.432 15.403 C 18.432 15.777,18.648 16.136,18.976 16.308 C 19.133 16.390,19.503 16.419,19.703 16.365 C 20.119 16.252,20.623 15.619,20.870 14.900 L 20.980 14.580 20.991 9.794 L 21.002 5.009 21.180 4.982 C 21.423 4.946,21.712 4.741,21.859 4.503 C 21.966 4.329,21.980 4.271,21.980 4.003 C 21.980 3.746,21.964 3.672,21.872 3.516 C 21.740 3.293,21.533 3.128,21.290 3.055 C 21.028 2.976,7.947 2.978,7.695 3.057 M7.874 10.709 C 7.487 11.100,7.139 11.481,7.101 11.555 C 6.872 12.008,7.056 12.601,7.508 12.867 C 7.673 12.964,7.742 12.980,8.000 12.979 C 8.213 12.979,8.340 12.957,8.440 12.904 C 8.517 12.864,8.900 12.513,9.291 12.126 L 10.001 11.422 11.791 13.211 L 13.580 15.001 9.640 14.991 L 5.700 14.980 5.516 14.872 C 5.415 14.813,5.284 14.700,5.225 14.623 C 4.991 14.316,5.000 14.491,5.000 10.285 L 5.000 6.420 6.789 8.209 L 8.578 9.999 7.874 10.709 M15.640 7.069 C 15.492 7.121,15.265 7.325,14.347 8.236 C 13.734 8.843,13.185 9.421,13.127 9.520 C 13.037 9.672,13.020 9.747,13.020 10.000 C 13.020 10.257,13.036 10.327,13.133 10.492 C 13.413 10.968,14.032 11.138,14.492 10.866 C 14.706 10.739,16.806 8.627,16.905 8.440 C 16.957 8.341,16.979 8.213,16.979 8.000 C 16.980 7.745,16.964 7.672,16.872 7.516 C 16.617 7.083,16.120 6.902,15.640 7.069 " stroke="none" fill-rule="evenodd" fill="black"></path></svg>