<svg xmlns="http://www.w3.org/2000/svg" width="24" height="24" viewBox="0 0 24 24" fill="none" stroke="currentColor" stroke-width="2" stroke-linecap="round" stroke-linejoin="round"><path d="M2.670 2.061 C 2.448 2.142,2.250 2.309,2.128 2.516 C 2.037 2.672,2.020 2.746,2.020 3.000 C 2.020 3.254,2.036 3.327,2.127 3.480 C 2.187 3.579,3.082 4.506,4.117 5.540 L 6.000 7.420 6.000 7.705 L 6.000 7.991 5.230 8.010 C 4.567 8.027,4.416 8.043,4.139 8.126 C 3.181 8.415,2.420 9.179,2.114 10.160 L 2.020 10.460 2.020 13.000 L 2.020 15.540 2.114 15.840 C 2.419 16.818,3.166 17.570,4.140 17.882 C 4.379 17.958,4.536 17.974,5.205 17.990 L 5.991 18.009 6.010 18.795 C 6.026 19.464,6.042 19.621,6.118 19.860 C 6.430 20.834,7.182 21.581,8.160 21.886 L 8.460 21.980 12.000 21.980 L 15.540 21.980 15.840 21.886 C 16.817 21.581,17.584 20.820,17.876 19.866 C 17.922 19.715,17.960 19.544,17.960 19.487 C 17.960 19.398,18.147 19.568,19.190 20.606 C 19.867 21.280,20.483 21.864,20.560 21.905 C 20.659 21.957,20.787 21.979,21.000 21.979 C 21.258 21.980,21.327 21.964,21.492 21.867 C 21.968 21.587,22.139 20.967,21.865 20.508 C 21.810 20.416,17.665 16.243,12.653 11.235 C 4.231 2.820,3.525 2.125,3.343 2.065 C 3.107 1.987,2.874 1.986,2.670 2.061 M8.513 2.040 C 8.055 2.119,7.548 2.329,7.241 2.567 C 7.000 2.753,6.743 3.032,6.675 3.180 C 6.593 3.359,6.576 3.731,6.642 3.907 C 6.818 4.376,7.322 4.663,7.786 4.559 C 8.017 4.507,8.094 4.466,8.326 4.271 C 8.658 3.991,8.541 4.000,11.999 4.000 C 15.525 4.000,15.382 3.988,15.697 4.303 C 15.993 4.599,16.000 4.650,16.000 6.447 L 16.000 8.000 14.446 8.000 C 12.758 8.000,12.658 8.011,12.382 8.221 C 12.302 8.282,12.187 8.415,12.128 8.516 C 12.037 8.672,12.020 8.746,12.020 9.000 C 12.020 9.256,12.036 9.328,12.131 9.489 C 12.256 9.702,12.449 9.864,12.670 9.943 C 12.790 9.986,13.442 9.997,15.963 9.998 C 19.529 10.000,19.382 9.988,19.697 10.303 C 20.002 10.609,20.000 10.589,20.000 13.001 C 20.000 15.381,20.004 15.341,19.703 15.707 C 19.363 16.120,19.321 16.594,19.591 16.979 C 19.842 17.337,20.369 17.499,20.777 17.343 C 20.937 17.282,21.235 17.017,21.434 16.759 C 21.584 16.564,21.795 16.137,21.887 15.840 L 21.980 15.540 21.980 13.000 L 21.980 10.460 21.886 10.160 C 21.580 9.179,20.819 8.415,19.861 8.126 C 19.585 8.043,19.433 8.027,18.773 8.010 L 18.005 7.991 17.991 6.205 C 17.977 4.467,17.974 4.413,17.884 4.140 C 17.562 3.163,16.820 2.424,15.861 2.122 L 15.540 2.021 12.120 2.014 C 10.239 2.011,8.616 2.022,8.513 2.040 M9.576 10.996 L 10.571 11.992 9.516 12.009 C 8.537 12.025,8.437 12.034,8.139 12.125 C 7.187 12.416,6.428 13.172,6.118 14.140 C 6.042 14.379,6.026 14.536,6.010 15.213 L 5.991 16.007 5.345 15.993 C 4.728 15.981,4.692 15.975,4.516 15.872 C 4.415 15.813,4.284 15.700,4.225 15.623 C 4.000 15.327,4.000 15.332,4.000 13.022 C 4.000 10.586,3.997 10.609,4.304 10.303 C 4.601 10.006,4.598 10.006,6.720 10.003 L 8.581 10.000 9.576 10.996 M14.290 15.710 L 16.000 17.420 16.000 18.263 C 16.000 19.188,15.971 19.366,15.779 19.618 C 15.718 19.698,15.585 19.813,15.484 19.872 L 15.300 19.980 12.000 19.980 L 8.700 19.980 8.516 19.872 C 8.415 19.813,8.284 19.700,8.225 19.623 C 8.000 19.327,8.000 19.332,8.000 17.022 C 8.000 14.586,7.997 14.609,8.304 14.303 C 8.601 14.006,8.598 14.006,10.720 14.003 L 12.580 14.000 14.290 15.710 " stroke="none" fill-rule="evenodd" fill="black"></path></svg>