<svg xmlns="http://www.w3.org/2000/svg" width="24" height="24" viewBox="0 0 24 24" fill="none" stroke="currentColor" stroke-width="2" stroke-linecap="round" stroke-linejoin="round"><path d="M17.729 4.039 C 17.428 4.111,17.325 4.233,15.439 6.753 C 14.416 8.119,13.568 9.237,13.554 9.238 C 13.539 9.239,13.215 8.698,12.834 8.035 C 12.290 7.089,12.091 6.780,11.915 6.603 C 11.419 6.103,10.724 5.901,10.049 6.060 C 9.579 6.171,9.149 6.456,8.893 6.826 C 8.809 6.948,8.099 8.158,7.316 9.514 L 5.893 11.980 3.816 12.000 C 2.278 12.015,1.711 12.033,1.627 12.070 C 1.022 12.339,0.817 13.065,1.198 13.591 C 1.263 13.681,1.403 13.805,1.508 13.867 L 1.700 13.980 3.208 14.000 L 4.716 14.020 3.894 15.440 C 2.939 17.089,2.819 17.329,2.755 17.715 C 2.607 18.615,3.152 19.517,4.068 19.887 L 4.300 19.980 10.380 19.991 C 14.552 19.998,16.524 19.988,16.665 19.959 C 17.700 19.744,18.415 18.711,18.240 17.681 C 18.181 17.332,18.052 17.070,17.309 15.790 C 17.031 15.312,16.812 14.920,16.822 14.920 C 16.831 14.920,17.978 15.165,19.370 15.463 C 22.144 16.059,22.160 16.061,22.501 15.862 C 23.203 15.450,23.132 14.366,22.384 14.082 C 22.320 14.057,20.835 13.730,19.084 13.355 C 17.333 12.980,15.895 12.668,15.889 12.663 C 15.884 12.657,17.378 12.024,19.209 11.256 C 22.223 9.994,22.556 9.845,22.704 9.698 C 23.332 9.072,22.891 8.020,22.000 8.020 C 21.748 8.020,21.631 8.066,18.300 9.466 C 16.408 10.261,14.854 10.906,14.847 10.900 C 14.840 10.893,15.750 9.666,16.869 8.174 C 19.059 5.254,19.036 5.289,18.987 4.875 C 18.916 4.274,18.343 3.894,17.729 4.039 M13.361 12.960 C 14.928 15.677,16.219 17.922,16.229 17.950 C 16.245 17.990,15.097 18.000,10.504 18.000 C 7.345 18.000,4.760 17.990,4.760 17.977 C 4.760 17.952,10.496 8.003,10.505 8.013 C 10.509 8.017,11.793 10.243,13.361 12.960 " stroke="none" fill-rule="evenodd" fill="black"></path></svg>