<svg xmlns="http://www.w3.org/2000/svg" width="24" height="24" viewBox="0 0 24 24" fill="none" stroke="currentColor" stroke-width="2" stroke-linecap="round" stroke-linejoin="round"><path d="M5.695 3.057 C 5.466 3.129,5.256 3.299,5.128 3.516 L 5.020 3.700 5.009 5.844 L 4.997 7.988 4.784 8.036 C 4.515 8.096,4.270 8.275,4.129 8.514 L 4.020 8.700 4.020 12.003 L 4.020 15.306 4.141 15.503 C 4.288 15.741,4.577 15.946,4.820 15.982 L 4.997 16.009 5.009 18.158 L 5.020 20.306 5.141 20.503 C 5.543 21.156,6.457 21.156,6.859 20.503 L 6.980 20.306 6.991 18.153 L 7.003 16.000 8.000 16.000 L 8.997 16.000 9.009 18.153 L 9.020 20.306 9.141 20.503 C 9.543 21.156,10.457 21.156,10.859 20.503 L 10.980 20.306 10.991 18.158 L 11.003 16.009 11.180 15.982 C 11.423 15.946,11.712 15.741,11.859 15.503 L 11.980 15.306 11.980 12.003 L 11.980 8.700 11.871 8.514 C 11.730 8.275,11.485 8.096,11.216 8.036 L 11.003 7.988 10.991 5.844 L 10.980 3.700 10.871 3.514 C 10.479 2.848,9.521 2.848,9.129 3.514 L 9.020 3.700 9.009 5.850 L 8.997 8.000 8.000 8.000 L 7.003 8.000 6.991 5.850 L 6.980 3.700 6.872 3.516 C 6.628 3.101,6.150 2.915,5.695 3.057 M13.695 3.057 C 13.466 3.129,13.256 3.299,13.128 3.516 L 13.020 3.700 13.020 12.003 L 13.020 20.306 13.141 20.503 C 13.543 21.156,14.457 21.156,14.859 20.503 L 14.980 20.306 14.980 12.003 L 14.980 3.700 14.872 3.516 C 14.628 3.101,14.150 2.915,13.695 3.057 M17.695 3.057 C 17.466 3.129,17.256 3.299,17.128 3.516 L 17.020 3.700 17.020 12.003 L 17.020 20.306 17.141 20.503 C 17.543 21.156,18.457 21.156,18.859 20.503 L 18.980 20.306 18.980 12.003 L 18.980 3.700 18.872 3.516 C 18.628 3.101,18.150 2.915,17.695 3.057 M10.000 12.000 L 10.000 14.000 8.000 14.000 L 6.000 14.000 6.000 12.000 L 6.000 10.000 8.000 10.000 L 10.000 10.000 10.000 12.000 M7.720 11.037 C 6.860 11.299,6.742 12.479,7.535 12.887 C 8.006 13.129,8.596 12.954,8.867 12.492 C 8.964 12.327,8.980 12.257,8.980 12.000 C 8.980 11.746,8.963 11.672,8.872 11.516 C 8.641 11.123,8.133 10.912,7.720 11.037 " stroke="none" fill-rule="evenodd" fill="black"></path></svg>