<svg xmlns="http://www.w3.org/2000/svg" width="24" height="24" viewBox="0 0 24 24" fill="none" stroke="currentColor" stroke-width="2" stroke-linecap="round" stroke-linejoin="round"><path d="M2.670 2.061 C 2.448 2.142,2.250 2.309,2.128 2.516 C 2.036 2.672,2.020 2.745,2.021 3.000 C 2.021 3.212,2.043 3.341,2.095 3.440 C 2.135 3.517,3.595 5.011,5.339 6.760 L 8.509 9.940 8.635 10.260 C 8.704 10.436,8.760 10.591,8.760 10.605 C 8.760 10.619,8.680 10.763,8.583 10.925 C 8.485 11.087,8.348 11.373,8.279 11.560 C 8.209 11.747,8.137 11.938,8.119 11.984 C 8.092 12.054,8.042 12.072,7.806 12.094 C 6.532 12.212,4.566 12.775,3.420 13.350 C 2.031 14.046,1.318 15.451,1.577 16.981 C 1.821 18.425,2.833 20.136,3.931 20.964 C 5.044 21.802,6.317 21.943,7.493 21.356 C 8.286 20.960,9.510 19.918,10.485 18.807 C 11.014 18.205,11.624 17.400,11.728 17.170 C 11.802 17.005,11.809 17.000,11.994 17.000 C 12.178 17.000,12.187 17.005,12.267 17.170 C 12.385 17.412,13.007 18.228,13.514 18.807 C 14.296 19.699,15.283 20.584,16.096 21.123 C 17.150 21.821,18.356 21.905,19.447 21.356 L 19.769 21.195 20.094 21.512 C 20.520 21.925,20.622 21.978,21.000 21.979 C 21.258 21.980,21.327 21.964,21.492 21.867 C 21.968 21.587,22.139 20.967,21.865 20.508 C 21.810 20.416,17.665 16.243,12.653 11.235 C 4.231 2.820,3.525 2.125,3.343 2.065 C 3.107 1.987,2.874 1.986,2.670 2.061 M11.210 2.043 C 9.876 2.172,8.779 2.697,8.173 3.495 C 7.936 3.808,7.683 4.344,7.653 4.595 C 7.567 5.326,8.364 5.903,9.040 5.597 C 9.291 5.483,9.426 5.343,9.583 5.032 C 9.763 4.678,9.909 4.518,10.189 4.370 C 10.705 4.097,11.453 3.970,12.290 4.015 C 13.385 4.072,14.046 4.353,14.341 4.885 C 14.458 5.096,14.460 5.110,14.456 5.660 C 14.447 6.729,14.093 8.121,13.419 9.737 C 13.285 10.057,13.272 10.120,13.291 10.349 C 13.361 11.230,14.413 11.587,15.006 10.931 C 15.306 10.598,15.945 8.844,16.222 7.592 C 16.715 5.362,16.522 4.155,15.511 3.159 C 14.621 2.280,13.029 1.867,11.210 2.043 M11.795 13.215 C 12.552 13.972,13.160 14.608,13.147 14.629 C 13.104 14.699,12.624 14.911,12.408 14.956 C 11.748 15.093,11.079 14.889,10.600 14.403 C 9.957 13.750,9.826 12.808,10.269 12.016 C 10.323 11.919,10.379 11.840,10.394 11.840 C 10.408 11.840,11.039 12.459,11.795 13.215 M16.913 12.334 C 16.299 12.563,16.065 13.272,16.422 13.820 C 16.596 14.088,16.771 14.182,17.391 14.338 C 18.091 14.514,18.507 14.644,19.012 14.845 C 19.795 15.156,20.103 15.360,20.300 15.697 C 20.479 16.003,20.504 16.550,20.361 17.040 C 20.113 17.889,20.981 18.644,21.747 18.245 C 22.159 18.031,22.335 17.668,22.443 16.816 C 22.533 16.101,22.436 15.514,22.119 14.857 C 21.811 14.217,21.282 13.701,20.567 13.342 C 19.910 13.014,18.919 12.660,18.020 12.432 C 17.446 12.287,17.116 12.258,16.913 12.334 M8.223 14.305 C 8.435 14.979,8.975 15.728,9.564 16.166 C 9.716 16.279,9.840 16.382,9.840 16.396 C 9.840 16.409,9.738 16.555,9.613 16.720 C 8.631 18.018,7.029 19.469,6.365 19.663 C 5.851 19.813,5.410 19.652,4.879 19.121 C 4.362 18.605,3.887 17.820,3.654 17.102 C 3.503 16.635,3.499 16.108,3.643 15.800 C 3.822 15.419,4.043 15.244,4.695 14.965 C 5.534 14.607,6.457 14.340,7.460 14.164 C 8.154 14.042,8.140 14.039,8.223 14.305 M18.111 19.694 C 17.968 19.730,17.666 19.682,17.438 19.586 C 17.059 19.426,16.205 18.722,15.460 17.955 C 14.843 17.320,14.116 16.430,14.171 16.376 C 14.181 16.365,14.286 16.285,14.404 16.197 L 14.617 16.038 16.429 17.849 L 18.240 19.660 18.111 19.694 " stroke="none" fill-rule="evenodd" fill="black"></path></svg>