<svg xmlns="http://www.w3.org/2000/svg" width="24" height="24" viewBox="0 0 24 24" fill="none" stroke="currentColor" stroke-width="2" stroke-linecap="round" stroke-linejoin="round"><path d="M2.670 2.061 C 2.448 2.142,2.250 2.309,2.128 2.516 C 2.036 2.672,2.020 2.745,2.021 3.000 C 2.022 3.392,2.070 3.478,2.589 4.006 L 3.008 4.433 3.003 6.846 C 2.997 9.472,2.998 9.482,3.225 9.930 C 3.361 10.199,3.801 10.639,4.070 10.775 C 4.509 10.997,4.545 11.000,6.999 11.000 C 8.243 11.000,9.316 10.984,9.385 10.964 C 9.508 10.929,9.524 10.944,11.253 12.674 L 12.997 14.420 13.009 15.863 L 13.020 17.306 13.141 17.503 C 13.543 18.156,14.457 18.156,14.858 17.504 C 14.970 17.323,14.980 17.274,14.994 16.869 L 15.009 16.430 17.715 19.131 C 19.203 20.616,20.483 21.865,20.560 21.905 C 20.659 21.957,20.788 21.979,21.000 21.979 C 21.258 21.980,21.327 21.964,21.492 21.867 C 21.968 21.587,22.139 20.967,21.865 20.508 C 21.810 20.416,17.665 16.243,12.653 11.235 C 4.231 2.820,3.525 2.125,3.343 2.065 C 3.107 1.987,2.874 1.986,2.670 2.061 M7.695 3.057 C 7.466 3.129,7.256 3.299,7.128 3.516 C 7.037 3.672,7.020 3.746,7.020 4.000 C 7.020 4.256,7.036 4.328,7.131 4.489 C 7.256 4.702,7.449 4.864,7.670 4.943 C 7.768 4.978,8.022 4.997,8.407 4.998 L 8.993 5.000 9.007 5.653 C 9.020 6.300,9.021 6.308,9.141 6.503 C 9.543 7.156,10.457 7.156,10.859 6.503 L 10.980 6.307 10.993 5.562 C 11.012 4.491,10.914 4.136,10.465 3.653 C 10.198 3.366,9.870 3.164,9.523 3.073 C 9.191 2.987,7.955 2.976,7.695 3.057 M14.477 3.073 C 13.806 3.249,13.238 3.823,13.060 4.508 C 13.010 4.698,13.000 5.123,13.000 7.000 C 13.000 9.455,13.003 9.491,13.225 9.930 C 13.361 10.199,13.801 10.639,14.070 10.775 C 14.509 10.997,14.545 11.000,17.000 11.000 C 19.455 11.000,19.491 10.997,19.930 10.775 C 20.196 10.640,20.638 10.200,20.771 9.937 C 20.996 9.494,21.000 9.442,20.999 7.014 C 20.999 4.601,20.991 4.496,20.781 4.083 C 20.646 3.816,20.297 3.449,20.017 3.281 C 19.564 3.008,19.524 3.005,17.000 3.005 C 14.992 3.005,14.711 3.012,14.477 3.073 M19.000 7.000 L 19.000 9.000 17.000 9.000 L 15.000 9.000 15.000 7.000 L 15.000 5.000 17.000 5.000 L 19.000 5.000 19.000 7.000 M16.695 6.057 C 16.466 6.129,16.256 6.299,16.128 6.516 C 16.036 6.672,16.020 6.745,16.021 7.000 C 16.022 7.332,16.101 7.533,16.306 7.728 C 16.785 8.181,17.580 8.046,17.893 7.460 C 18.025 7.211,18.015 6.760,17.872 6.516 C 17.628 6.101,17.150 5.915,16.695 6.057 M6.300 7.720 L 7.580 9.000 6.290 9.000 L 5.000 9.000 5.000 7.720 C 5.000 7.016,5.005 6.440,5.010 6.440 C 5.016 6.440,5.596 7.016,6.300 7.720 M4.477 13.073 C 3.806 13.249,3.238 13.823,3.060 14.508 C 3.010 14.698,3.000 15.123,3.000 17.000 C 3.000 19.455,3.003 19.491,3.225 19.930 C 3.361 20.199,3.801 20.639,4.070 20.775 C 4.509 20.997,4.545 21.000,7.000 21.000 C 9.455 21.000,9.491 20.997,9.930 20.775 C 10.196 20.640,10.638 20.200,10.771 19.937 C 10.996 19.494,11.000 19.442,10.999 17.014 C 10.999 14.601,10.991 14.496,10.781 14.083 C 10.646 13.816,10.297 13.449,10.017 13.281 C 9.564 13.008,9.524 13.005,7.000 13.005 C 4.992 13.005,4.711 13.012,4.477 13.073 M19.695 13.057 C 19.466 13.129,19.256 13.299,19.128 13.516 C 19.036 13.672,19.020 13.745,19.021 14.000 C 19.022 14.332,19.101 14.533,19.306 14.728 C 19.785 15.181,20.580 15.046,20.893 14.460 C 21.025 14.211,21.015 13.760,20.872 13.516 C 20.628 13.101,20.150 12.915,19.695 13.057 M9.000 17.000 L 9.000 19.000 7.000 19.000 L 5.000 19.000 5.000 17.000 L 5.000 15.000 7.000 15.000 L 9.000 15.000 9.000 17.000 M6.695 16.057 C 6.466 16.129,6.256 16.299,6.128 16.516 C 6.036 16.672,6.020 16.745,6.021 17.000 C 6.022 17.332,6.101 17.533,6.306 17.728 C 6.785 18.181,7.580 18.046,7.893 17.460 C 8.025 17.211,8.015 16.760,7.872 16.516 C 7.628 16.101,7.150 15.915,6.695 16.057 M13.695 19.057 C 13.466 19.129,13.256 19.299,13.128 19.516 C 13.037 19.672,13.020 19.746,13.020 20.000 C 13.020 20.256,13.036 20.328,13.131 20.489 C 13.192 20.592,13.304 20.725,13.381 20.783 C 13.656 20.993,13.692 20.996,15.500 20.996 C 17.308 20.996,17.344 20.993,17.619 20.783 C 17.696 20.725,17.808 20.592,17.869 20.489 C 17.964 20.328,17.980 20.256,17.980 20.000 C 17.980 19.746,17.963 19.672,17.872 19.516 C 17.740 19.293,17.533 19.128,17.290 19.055 C 17.035 18.978,13.941 18.980,13.695 19.057 " stroke="none" fill-rule="evenodd" fill="black"></path></svg>