<svg xmlns="http://www.w3.org/2000/svg" width="24" height="24" viewBox="0 0 24 24" fill="none" stroke="currentColor" stroke-width="2" stroke-linecap="round" stroke-linejoin="round"><path d="M11.000 4.025 C 9.823 4.171,8.927 4.586,8.147 5.347 C 7.650 5.832,7.298 6.434,7.121 7.100 C 7.015 7.498,6.975 8.043,7.035 8.264 C 7.099 8.498,7.286 8.737,7.508 8.867 C 7.673 8.964,7.743 8.980,8.003 8.980 C 8.271 8.980,8.329 8.966,8.503 8.859 C 8.753 8.705,8.948 8.421,8.978 8.169 C 9.069 7.389,9.166 7.155,9.560 6.759 C 9.851 6.468,10.292 6.214,10.720 6.094 C 11.104 5.985,12.896 5.985,13.280 6.094 C 13.687 6.208,14.133 6.461,14.414 6.735 C 14.871 7.182,15.026 7.586,14.989 8.240 C 14.964 8.690,14.872 8.963,14.630 9.309 C 14.400 9.636,14.175 9.815,13.700 10.043 C 13.145 10.311,12.830 10.527,12.476 10.883 C 11.828 11.536,11.336 12.488,11.119 13.509 C 11.012 14.015,10.967 15.000,11.040 15.260 C 11.279 16.113,12.417 16.259,12.866 15.493 C 12.964 15.325,12.976 15.259,13.004 14.716 C 13.042 13.970,13.142 13.552,13.412 13.003 C 13.708 12.402,13.980 12.136,14.620 11.825 C 15.217 11.535,15.497 11.337,15.880 10.935 C 16.374 10.416,16.692 9.855,16.884 9.160 C 16.966 8.865,16.978 8.729,16.979 8.140 C 16.980 7.551,16.968 7.414,16.887 7.120 C 16.473 5.602,15.233 4.488,13.540 4.112 C 13.243 4.046,13.002 4.030,12.160 4.020 C 11.599 4.014,11.077 4.016,11.000 4.025 M11.695 18.057 C 11.466 18.129,11.256 18.299,11.128 18.516 C 11.036 18.672,11.020 18.745,11.021 19.000 C 11.022 19.332,11.101 19.533,11.306 19.728 C 11.785 20.181,12.580 20.046,12.893 19.460 C 13.025 19.211,13.015 18.760,12.872 18.516 C 12.628 18.101,12.150 17.915,11.695 18.057 " stroke="none" fill-rule="evenodd" fill="black"></path></svg>