<svg xmlns="http://www.w3.org/2000/svg" width="24" height="24" viewBox="0 0 24 24" fill="none" stroke="currentColor" stroke-width="2" stroke-linecap="round" stroke-linejoin="round"><path d="M2.670 2.061 C 2.448 2.142,2.250 2.309,2.128 2.516 C 2.036 2.672,2.020 2.745,2.021 3.000 C 2.021 3.213,2.043 3.341,2.095 3.440 C 2.136 3.517,2.637 4.051,3.209 4.626 C 3.898 5.318,4.239 5.689,4.219 5.721 C 4.202 5.749,4.098 5.890,3.988 6.035 C 2.668 7.773,1.926 10.140,2.012 12.340 C 2.111 14.853,3.084 17.147,4.819 18.956 C 5.799 19.977,7.130 20.859,8.408 21.335 C 8.982 21.549,9.320 21.524,9.646 21.246 C 10.179 20.789,10.083 19.929,9.465 19.623 C 9.352 19.567,9.080 19.448,8.860 19.357 C 7.739 18.896,6.579 18.021,5.788 17.040 C 3.826 14.607,3.462 11.296,4.845 8.453 C 5.007 8.120,5.545 7.248,5.665 7.122 C 5.675 7.112,6.004 7.425,6.397 7.817 L 7.111 8.531 6.952 8.775 C 6.251 9.853,5.893 11.351,6.038 12.600 C 6.226 14.227,6.942 15.571,8.176 16.611 C 8.519 16.901,8.635 16.961,8.895 16.988 C 9.295 17.029,9.662 16.842,9.867 16.492 C 9.964 16.327,9.980 16.257,9.980 16.000 C 9.980 15.603,9.888 15.446,9.429 15.055 C 8.811 14.529,8.344 13.782,8.133 12.980 C 8.044 12.639,8.028 12.498,8.029 12.020 C 8.030 11.420,8.084 11.083,8.254 10.633 C 8.342 10.399,8.505 10.047,8.546 10.002 C 8.555 9.992,8.902 10.322,9.316 10.736 L 10.070 11.489 10.036 11.634 C 9.876 12.321,10.230 13.197,10.837 13.618 L 11.000 13.731 11.002 17.455 C 11.003 20.462,11.014 21.209,11.057 21.330 C 11.136 21.551,11.298 21.744,11.511 21.869 C 11.696 21.978,11.712 21.980,12.320 21.977 C 14.291 21.967,16.429 21.208,18.094 19.929 L 18.328 19.750 19.374 20.790 C 19.949 21.363,20.483 21.864,20.560 21.905 C 20.659 21.957,20.787 21.979,21.000 21.979 C 21.258 21.980,21.327 21.964,21.492 21.867 C 21.968 21.587,22.139 20.967,21.865 20.508 C 21.810 20.416,17.665 16.243,12.653 11.235 C 4.231 2.820,3.525 2.125,3.343 2.065 C 3.107 1.987,2.874 1.986,2.670 2.061 M11.460 2.025 C 10.931 2.064,10.415 2.133,9.960 2.226 C 8.875 2.446,7.419 3.030,7.182 3.340 C 7.058 3.504,6.960 3.785,6.960 3.979 C 6.960 4.340,7.224 4.731,7.565 4.879 C 7.882 5.015,8.155 4.981,8.680 4.742 C 10.600 3.868,12.757 3.783,14.751 4.503 C 16.905 5.280,18.636 6.989,19.483 9.175 C 19.571 9.403,19.671 9.582,19.762 9.676 C 20.253 10.185,21.050 10.068,21.373 9.440 C 21.472 9.248,21.484 9.187,21.469 8.960 C 21.439 8.513,20.955 7.439,20.397 6.580 C 18.831 4.169,16.272 2.527,13.452 2.123 C 12.914 2.047,11.862 1.994,11.460 2.025 M11.560 6.027 C 11.192 6.055,10.625 6.166,10.482 6.239 C 10.106 6.431,9.873 6.894,9.957 7.283 C 9.981 7.394,10.026 7.535,10.059 7.597 C 10.151 7.776,10.461 8.024,10.661 8.080 C 10.843 8.131,10.942 8.127,11.600 8.038 C 12.869 7.868,14.292 8.459,15.122 9.503 C 15.368 9.811,15.599 9.957,15.888 9.987 C 16.447 10.044,16.931 9.657,16.988 9.107 C 17.019 8.801,16.924 8.550,16.652 8.217 C 15.412 6.703,13.506 5.883,11.560 6.027 M15.695 11.057 C 15.466 11.129,15.256 11.299,15.128 11.516 C 15.037 11.672,15.020 11.746,15.020 12.000 C 15.020 12.256,15.036 12.328,15.131 12.489 C 15.256 12.702,15.449 12.864,15.670 12.943 C 15.788 12.985,16.262 12.997,17.870 12.998 C 19.875 13.000,19.920 13.002,19.920 13.078 C 19.920 13.121,19.883 13.349,19.837 13.586 C 19.734 14.120,19.508 14.814,19.265 15.344 C 19.039 15.837,19.005 16.040,19.099 16.327 C 19.190 16.606,19.350 16.801,19.584 16.918 C 20.075 17.163,20.631 17.002,20.904 16.537 C 21.169 16.084,21.536 15.102,21.720 14.352 C 21.898 13.625,21.971 13.050,21.976 12.340 C 21.980 11.713,21.978 11.696,21.872 11.516 C 21.740 11.293,21.533 11.128,21.290 11.055 C 21.031 10.977,15.944 10.979,15.695 11.057 M16.880 18.328 C 16.880 18.344,16.678 18.491,16.430 18.656 C 15.607 19.203,14.567 19.639,13.612 19.836 C 13.388 19.882,13.159 19.920,13.102 19.920 L 13.000 19.920 13.000 17.170 L 13.000 14.420 14.940 16.360 C 16.007 17.427,16.880 18.312,16.880 18.328 " stroke="none" fill-rule="evenodd" fill="black"></path></svg>