<svg xmlns="http://www.w3.org/2000/svg" width="24" height="24" viewBox="0 0 24 24" fill="none" stroke="currentColor" stroke-width="2" stroke-linecap="round" stroke-linejoin="round"><path d="M12.340 4.027 C 9.490 4.269,7.051 5.705,5.468 8.073 C 4.910 8.908,4.388 10.182,4.183 11.209 C 4.007 12.093,3.995 12.412,4.008 15.963 L 4.020 19.306 4.141 19.503 C 4.543 20.156,5.457 20.156,5.859 19.503 L 5.980 19.306 6.004 15.783 C 6.028 12.083,6.031 12.017,6.217 11.280 C 6.837 8.825,8.825 6.837,11.280 6.217 C 12.017 6.031,12.084 6.028,15.780 6.004 L 19.300 5.980 19.492 5.867 C 20.248 5.423,20.123 4.306,19.290 4.055 C 19.141 4.010,18.502 4.001,15.804 4.007 C 13.987 4.010,12.428 4.020,12.340 4.027 " stroke="none" fill-rule="evenodd" fill="black"></path></svg>