<svg xmlns="http://www.w3.org/2000/svg" width="24" height="24" viewBox="0 0 24 24" fill="none" stroke="currentColor" stroke-width="2" stroke-linecap="round" stroke-linejoin="round"><path d="M4.695 4.056 C 4.050 4.262,3.799 5.040,4.198 5.591 C 4.263 5.681,4.403 5.805,4.508 5.867 L 4.700 5.980 8.220 6.004 C 11.916 6.028,11.983 6.031,12.720 6.217 C 15.175 6.837,17.163 8.825,17.783 11.280 C 17.969 12.017,17.972 12.083,17.996 15.783 L 18.020 19.306 18.141 19.503 C 18.543 20.156,19.457 20.156,19.859 19.503 L 19.980 19.306 19.992 15.963 C 20.000 13.712,19.990 12.470,19.960 12.160 C 19.657 9.045,17.763 6.297,14.978 4.936 C 14.116 4.514,13.309 4.259,12.320 4.095 C 11.947 4.033,11.507 4.024,8.380 4.014 C 5.549 4.005,4.828 4.013,4.695 4.056 " stroke="none" fill-rule="evenodd" fill="black"></path></svg>