<svg xmlns="http://www.w3.org/2000/svg" width="24" height="24" viewBox="0 0 24 24" fill="none" stroke="currentColor" stroke-width="2" stroke-linecap="round" stroke-linejoin="round"><path d="M13.700 2.046 C 12.823 2.370,4.049 5.920,3.910 6.008 C 3.658 6.167,3.350 6.510,3.221 6.775 C 2.990 7.247,3.001 6.914,3.000 13.342 C 3.000 19.796,2.989 19.463,3.225 19.930 C 3.361 20.199,3.801 20.639,4.070 20.775 C 4.540 21.013,4.078 21.000,12.000 21.000 C 19.922 21.000,19.460 21.013,19.930 20.775 C 20.196 20.640,20.638 20.200,20.771 19.937 C 21.011 19.464,21.000 19.781,20.999 13.514 C 20.999 7.292,21.007 7.527,20.781 7.083 C 20.646 6.816,20.297 6.449,20.017 6.281 C 19.535 5.990,19.837 6.005,14.240 6.000 L 9.220 5.996 11.858 4.939 C 13.560 4.256,14.546 3.841,14.637 3.767 C 15.047 3.435,15.107 2.773,14.765 2.358 C 14.537 2.082,14.017 1.930,13.700 2.046 M19.000 9.500 L 19.000 11.000 13.503 11.000 L 8.007 11.000 7.993 10.350 C 7.981 9.726,7.976 9.693,7.871 9.514 C 7.479 8.848,6.521 8.848,6.129 9.514 C 6.024 9.693,6.019 9.726,6.007 10.350 L 5.993 11.000 5.497 11.000 L 5.000 11.000 5.000 9.500 L 5.000 8.000 12.000 8.000 L 19.000 8.000 19.000 9.500 M19.000 16.000 L 19.000 19.000 12.000 19.000 L 5.000 19.000 5.000 16.000 L 5.000 13.000 12.000 13.000 L 19.000 13.000 19.000 16.000 M12.695 15.057 C 12.466 15.129,12.256 15.299,12.128 15.516 C 12.036 15.672,12.020 15.745,12.021 16.000 C 12.022 16.332,12.101 16.533,12.306 16.728 C 12.785 17.181,13.580 17.046,13.893 16.460 C 14.025 16.211,14.015 15.760,13.872 15.516 C 13.628 15.101,13.150 14.915,12.695 15.057 M16.695 15.057 C 16.466 15.129,16.256 15.299,16.128 15.516 C 16.036 15.672,16.020 15.745,16.021 16.000 C 16.022 16.332,16.101 16.533,16.306 16.728 C 16.785 17.181,17.580 17.046,17.893 16.460 C 18.025 16.211,18.015 15.760,17.872 15.516 C 17.628 15.101,17.150 14.915,16.695 15.057 " stroke="none" fill-rule="evenodd" fill="black"></path></svg>