<svg xmlns="http://www.w3.org/2000/svg" width="24" height="24" viewBox="0 0 24 24" fill="none" stroke="currentColor" stroke-width="2" stroke-linecap="round" stroke-linejoin="round"><path d="M2.670 2.061 C 2.448 2.142,2.250 2.309,2.128 2.516 C 2.036 2.672,2.020 2.745,2.021 3.000 C 2.021 3.213,2.043 3.341,2.095 3.440 C 2.136 3.517,2.662 4.076,3.266 4.682 L 4.362 5.784 4.111 5.902 C 3.613 6.136,3.159 6.718,3.044 7.272 C 3.013 7.421,3.000 9.240,3.000 13.374 C 3.000 19.775,2.990 19.465,3.220 19.919 C 3.363 20.203,3.756 20.605,4.032 20.753 C 4.530 21.018,3.980 21.001,12.156 20.999 L 19.573 20.997 19.996 21.413 C 20.522 21.930,20.608 21.978,21.000 21.979 C 21.258 21.980,21.327 21.964,21.492 21.867 C 21.968 21.587,22.139 20.967,21.865 20.508 C 21.810 20.416,17.665 16.243,12.653 11.235 C 4.231 2.820,3.525 2.125,3.343 2.065 C 3.107 1.987,2.874 1.986,2.670 2.061 M11.265 3.020 C 9.860 3.583,8.645 4.077,8.565 4.118 C 7.973 4.420,7.839 5.231,8.304 5.696 C 8.495 5.887,8.812 6.012,9.055 5.992 C 9.208 5.979,9.968 5.693,11.900 4.920 C 14.334 3.946,14.550 3.852,14.702 3.700 C 15.314 3.088,14.913 2.065,14.040 2.010 C 13.832 1.997,13.683 2.051,11.265 3.020 M10.750 6.043 C 10.430 6.119,10.148 6.394,10.039 6.736 C 9.931 7.079,10.084 7.557,10.373 7.777 C 10.681 8.012,10.433 8.000,14.899 8.000 L 19.000 8.000 19.000 9.500 L 19.000 11.000 17.446 11.000 C 15.758 11.000,15.658 11.011,15.382 11.221 C 15.302 11.282,15.187 11.415,15.128 11.516 C 15.037 11.672,15.020 11.746,15.020 12.000 C 15.020 12.256,15.036 12.328,15.131 12.489 C 15.192 12.592,15.304 12.725,15.381 12.783 C 15.654 12.991,15.700 12.996,17.410 12.998 L 19.000 13.000 19.000 14.570 C 19.000 15.528,19.017 16.198,19.042 16.289 C 19.151 16.682,19.580 17.000,20.000 17.000 C 20.420 17.000,20.849 16.682,20.958 16.289 C 20.986 16.190,20.999 14.717,20.997 11.940 C 20.996 8.103,20.989 7.717,20.927 7.477 C 20.743 6.773,20.097 6.174,19.383 6.043 C 19.091 5.990,10.976 5.990,10.750 6.043 M8.080 9.500 L 9.580 11.000 8.793 11.000 L 8.007 11.000 7.993 10.350 C 7.981 9.726,7.976 9.693,7.871 9.514 C 7.479 8.848,6.521 8.848,6.129 9.514 C 6.024 9.693,6.019 9.726,6.007 10.350 L 5.993 11.000 5.497 11.000 L 5.000 11.000 5.000 9.500 L 5.000 8.000 5.790 8.000 L 6.580 8.000 8.080 9.500 M14.580 16.000 L 17.580 19.000 11.290 19.000 L 5.000 19.000 5.000 16.000 L 5.000 13.000 8.290 13.000 L 11.580 13.000 14.580 16.000 M12.695 15.057 C 12.466 15.129,12.256 15.299,12.128 15.516 C 12.036 15.672,12.020 15.745,12.021 16.000 C 12.022 16.332,12.101 16.533,12.306 16.728 C 12.785 17.181,13.580 17.046,13.893 16.460 C 14.025 16.211,14.015 15.760,13.872 15.516 C 13.628 15.101,13.150 14.915,12.695 15.057 " stroke="none" fill-rule="evenodd" fill="black"></path></svg>