<svg xmlns="http://www.w3.org/2000/svg" width="24" height="24" viewBox="0 0 24 24" fill="none" stroke="currentColor" stroke-width="2" stroke-linecap="round" stroke-linejoin="round"><path d="M2.670 2.061 C 2.448 2.142,2.250 2.309,2.128 2.516 C 2.036 2.672,2.020 2.745,2.021 3.000 C 2.021 3.212,2.043 3.341,2.095 3.440 C 2.135 3.517,4.525 5.939,7.405 8.822 L 12.643 14.063 12.586 14.202 C 12.491 14.432,12.473 14.646,12.532 14.840 C 12.562 14.940,13.277 16.218,14.121 17.680 C 15.228 19.600,15.702 20.387,15.826 20.508 C 15.994 20.673,16.290 20.800,16.506 20.800 C 16.771 20.800,17.175 20.584,17.914 20.049 L 18.327 19.749 19.374 20.790 C 19.949 21.363,20.483 21.864,20.560 21.905 C 20.659 21.957,20.787 21.979,21.000 21.979 C 21.258 21.980,21.327 21.964,21.492 21.867 C 21.968 21.587,22.139 20.967,21.865 20.508 C 21.810 20.416,17.665 16.243,12.653 11.235 C 4.231 2.820,3.525 2.125,3.343 2.065 C 3.107 1.987,2.874 1.986,2.670 2.061 M11.380 2.027 C 10.108 2.109,8.793 2.454,7.668 3.001 C 7.261 3.199,7.107 3.357,7.014 3.676 C 6.863 4.192,7.136 4.729,7.635 4.899 C 7.885 4.984,8.103 4.974,8.360 4.865 C 9.226 4.498,9.541 4.381,9.934 4.279 C 11.529 3.863,13.224 3.937,14.731 4.489 C 15.001 4.588,15.077 4.631,15.059 4.679 C 15.046 4.712,14.485 5.694,13.811 6.859 C 13.138 8.025,12.562 9.060,12.532 9.159 C 12.405 9.577,12.632 10.064,13.060 10.292 C 13.179 10.356,13.291 10.378,13.500 10.378 C 13.834 10.378,14.042 10.285,14.246 10.044 C 14.469 9.781,17.408 4.655,17.467 4.425 C 17.556 4.086,17.431 3.701,17.158 3.467 C 16.966 3.303,16.076 2.858,15.508 2.643 C 14.260 2.169,12.729 1.941,11.380 2.027 M2.695 11.057 C 2.466 11.129,2.256 11.299,2.128 11.516 C 2.023 11.695,2.020 11.716,2.023 12.320 C 2.037 15.086,3.458 17.951,5.720 19.776 C 6.449 20.364,7.204 20.800,7.492 20.800 C 7.710 20.800,8.005 20.674,8.174 20.508 C 8.404 20.283,11.415 15.070,11.478 14.790 C 11.573 14.364,11.383 13.987,10.920 13.680 C 10.373 13.318,10.080 12.800,10.004 12.061 C 9.945 11.486,9.734 11.189,9.290 11.055 C 9.030 10.977,2.945 10.979,2.695 11.057 M15.695 11.057 C 15.466 11.129,15.256 11.299,15.128 11.516 C 15.037 11.672,15.020 11.746,15.020 12.000 C 15.020 12.256,15.036 12.328,15.131 12.489 C 15.256 12.702,15.449 12.864,15.670 12.943 C 15.788 12.985,16.262 12.997,17.870 12.998 C 19.853 13.000,19.920 13.002,19.920 13.076 C 19.920 13.223,19.794 13.825,19.679 14.227 C 19.615 14.450,19.450 14.891,19.312 15.207 C 19.082 15.733,19.061 15.803,19.062 16.060 C 19.063 16.267,19.085 16.382,19.148 16.500 C 19.404 16.984,19.989 17.177,20.472 16.936 C 20.752 16.797,20.878 16.632,21.123 16.083 C 21.671 14.857,21.974 13.517,21.978 12.300 C 21.980 11.718,21.977 11.694,21.872 11.516 C 21.740 11.293,21.533 11.128,21.290 11.055 C 21.031 10.977,15.944 10.979,15.695 11.057 M8.220 13.280 C 8.387 13.774,8.646 14.224,9.003 14.640 L 9.191 14.861 8.197 16.580 C 7.650 17.526,7.196 18.318,7.188 18.339 C 7.146 18.455,6.051 17.397,5.632 16.836 C 5.125 16.158,4.692 15.338,4.421 14.547 C 4.283 14.142,4.081 13.278,4.080 13.090 L 4.080 12.999 6.106 13.010 L 8.133 13.020 8.220 13.280 M16.880 18.326 C 16.880 18.399,16.810 18.354,16.763 18.251 C 16.713 18.142,16.714 18.142,16.797 18.217 C 16.842 18.258,16.880 18.308,16.880 18.326 " stroke="none" fill-rule="evenodd" fill="black"></path></svg>