<svg xmlns="http://www.w3.org/2000/svg" width="24" height="24" viewBox="0 0 24 24" fill="none" stroke="currentColor" stroke-width="2" stroke-linecap="round" stroke-linejoin="round"><path d="M2.670 2.061 C 2.448 2.142,2.250 2.309,2.128 2.516 C 2.036 2.672,2.020 2.745,2.021 3.000 C 2.021 3.212,2.043 3.341,2.095 3.440 C 2.135 3.517,3.080 4.496,4.194 5.614 C 5.308 6.733,6.199 7.657,6.174 7.666 C 6.149 7.676,5.969 7.795,5.774 7.930 C 3.521 9.493,1.956 11.766,1.305 14.420 C 1.047 15.472,0.921 16.949,1.057 17.330 C 1.136 17.551,1.298 17.744,1.511 17.869 C 1.673 17.964,1.744 17.980,2.003 17.980 C 2.271 17.980,2.329 17.966,2.503 17.859 C 2.743 17.711,2.948 17.420,2.975 17.189 C 2.986 17.096,3.015 16.727,3.039 16.368 C 3.062 16.010,3.127 15.488,3.183 15.208 C 3.627 12.966,5.039 10.838,6.920 9.573 C 7.281 9.331,7.630 9.120,7.671 9.120 C 7.687 9.120,8.032 9.451,8.436 9.856 L 9.172 10.593 8.885 10.737 C 6.731 11.822,5.312 13.868,5.038 16.287 C 4.967 16.909,4.999 17.272,5.145 17.510 C 5.540 18.151,6.459 18.153,6.853 17.512 C 6.955 17.346,6.973 17.270,7.003 16.852 C 7.049 16.221,7.106 15.891,7.243 15.460 C 7.706 14.007,8.920 12.767,10.356 12.280 L 10.732 12.152 11.666 13.086 L 12.600 14.021 12.030 14.024 C 11.544 14.026,11.413 14.041,11.139 14.124 C 10.177 14.419,9.414 15.186,9.115 16.160 C 9.045 16.390,9.023 16.559,9.022 16.883 C 9.020 17.285,9.026 17.315,9.141 17.503 C 9.446 17.998,10.077 18.144,10.548 17.828 C 10.816 17.647,10.951 17.410,10.999 17.031 C 11.049 16.637,11.114 16.485,11.318 16.287 C 11.705 15.911,12.295 15.911,12.682 16.287 C 12.886 16.485,12.951 16.637,13.001 17.031 C 13.049 17.410,13.184 17.647,13.452 17.828 C 13.923 18.144,14.554 17.998,14.859 17.503 C 14.976 17.313,14.980 17.289,14.978 16.851 L 14.975 16.396 17.698 19.114 C 19.195 20.609,20.483 21.865,20.560 21.905 C 20.659 21.957,20.788 21.979,21.000 21.979 C 21.258 21.980,21.327 21.964,21.492 21.867 C 21.968 21.587,22.139 20.967,21.865 20.508 C 21.810 20.416,17.665 16.243,12.653 11.235 C 4.231 2.820,3.525 2.125,3.343 2.065 C 3.107 1.987,2.874 1.986,2.670 2.061 M11.139 6.037 C 10.962 6.054,10.747 6.101,10.661 6.142 C 10.424 6.254,10.210 6.498,10.140 6.732 C 10.065 6.984,10.065 7.097,10.137 7.335 C 10.212 7.585,10.361 7.774,10.591 7.909 L 10.780 8.020 11.820 8.023 C 12.938 8.026,13.345 8.068,14.160 8.267 C 14.769 8.415,15.304 8.611,15.940 8.920 C 18.109 9.971,19.779 11.877,20.534 14.160 C 20.813 15.003,20.932 15.673,20.995 16.750 C 21.027 17.281,21.037 17.334,21.146 17.510 C 21.541 18.153,22.459 18.152,22.856 17.508 C 23.004 17.266,23.031 16.921,22.962 16.109 C 22.785 14.009,22.048 12.075,20.774 10.367 C 20.316 9.755,19.249 8.688,18.640 8.235 C 17.045 7.049,15.364 6.360,13.423 6.096 C 12.906 6.026,11.602 5.992,11.139 6.037 " stroke="none" fill-rule="evenodd" fill="black"></path></svg>