<svg xmlns="http://www.w3.org/2000/svg" width="24" height="24" viewBox="0 0 24 24" fill="none" stroke="currentColor" stroke-width="2" stroke-linecap="round" stroke-linejoin="round"><path d="M11.080 2.045 C 9.507 2.184,7.883 2.751,6.540 3.630 C 5.905 4.045,5.499 4.378,4.919 4.958 C 2.953 6.926,1.919 9.544,2.013 12.320 C 2.084 14.439,2.752 16.328,4.033 18.040 C 4.430 18.570,5.305 19.464,5.800 19.847 C 7.242 20.961,8.787 21.624,10.600 21.907 C 11.247 22.008,12.753 22.008,13.400 21.907 C 15.638 21.557,17.504 20.620,19.062 19.062 C 20.620 17.504,21.557 15.638,21.907 13.400 C 22.008 12.753,22.008 11.247,21.907 10.600 C 21.624 8.786,20.959 7.238,19.847 5.800 C 19.510 5.365,18.639 4.494,18.200 4.154 C 16.133 2.555,13.646 1.818,11.080 2.045 M12.734 4.041 C 14.574 4.216,16.228 4.976,17.554 6.256 C 20.043 8.658,20.702 12.394,19.183 15.499 C 18.749 16.387,18.223 17.105,17.496 17.801 C 16.876 18.394,16.262 18.819,15.471 19.200 C 13.267 20.265,10.733 20.265,8.529 19.200 C 7.477 18.693,6.612 18.015,5.847 17.100 C 3.848 14.711,3.440 11.302,4.816 8.500 C 6.162 5.760,8.867 4.049,11.920 4.005 C 12.129 4.003,12.495 4.019,12.734 4.041 M6.695 8.057 C 6.466 8.129,6.256 8.299,6.128 8.516 L 6.020 8.700 6.020 12.003 L 6.020 15.306 6.141 15.503 C 6.543 16.156,7.457 16.156,7.859 15.503 L 7.980 15.306 7.980 12.003 L 7.980 8.700 7.872 8.516 C 7.628 8.101,7.150 7.915,6.695 8.057 M10.960 8.062 C 10.605 8.138,10.107 8.393,9.832 8.639 C 9.532 8.907,9.239 9.352,9.118 9.722 C 9.034 9.976,9.020 10.094,9.022 10.520 C 9.024 10.959,9.038 11.056,9.132 11.316 C 9.191 11.479,9.295 11.699,9.363 11.805 L 9.487 11.997 9.346 12.229 C 9.090 12.647,9.024 12.911,9.024 13.500 C 9.024 13.966,9.035 14.051,9.133 14.320 C 9.395 15.040,9.963 15.608,10.680 15.868 C 10.948 15.965,11.035 15.976,11.500 15.976 C 11.965 15.976,12.052 15.965,12.320 15.868 C 13.037 15.608,13.605 15.040,13.867 14.320 C 13.965 14.051,13.976 13.966,13.976 13.500 C 13.976 13.035,13.965 12.949,13.868 12.684 C 13.809 12.521,13.705 12.301,13.636 12.194 L 13.512 12.000 13.636 11.806 C 13.705 11.699,13.809 11.479,13.868 11.316 C 13.965 11.051,13.976 10.965,13.976 10.500 C 13.976 10.035,13.965 9.948,13.868 9.680 C 13.437 8.490,12.192 7.798,10.960 8.062 M16.600 9.584 C 16.399 9.671,16.205 9.869,16.095 10.100 C 16.019 10.262,16.001 10.366,16.000 10.645 L 16.000 10.991 15.610 11.008 C 15.174 11.027,14.994 11.095,14.772 11.326 C 14.599 11.507,14.512 11.732,14.512 12.000 C 14.512 12.405,14.719 12.724,15.100 12.905 C 15.263 12.982,15.365 12.999,15.650 13.000 L 16.000 13.000 16.000 13.350 C 16.001 13.635,16.018 13.737,16.095 13.900 C 16.276 14.281,16.595 14.488,17.000 14.488 C 17.405 14.488,17.724 14.281,17.905 13.900 C 17.982 13.737,17.999 13.635,18.000 13.350 L 18.000 13.000 18.350 13.000 C 18.635 12.999,18.737 12.982,18.900 12.905 C 19.281 12.724,19.488 12.405,19.488 12.000 C 19.488 11.732,19.401 11.507,19.228 11.326 C 19.006 11.095,18.826 11.027,18.390 11.008 L 18.000 10.991 18.000 10.645 C 17.999 10.366,17.981 10.262,17.905 10.100 C 17.793 9.865,17.599 9.669,17.391 9.582 C 17.203 9.503,16.783 9.504,16.600 9.584 M11.724 10.062 C 11.872 10.139,12.000 10.341,12.000 10.500 C 12.000 10.748,11.748 11.000,11.500 11.000 C 11.256 11.000,11.000 10.748,11.000 10.508 C 11.000 10.257,11.248 10.000,11.492 10.000 C 11.554 10.000,11.658 10.028,11.724 10.062 M11.724 13.062 C 11.872 13.139,12.000 13.341,12.000 13.500 C 12.000 13.748,11.748 14.000,11.500 14.000 C 11.256 14.000,11.000 13.748,11.000 13.508 C 11.000 13.257,11.248 13.000,11.492 13.000 C 11.554 13.000,11.658 13.028,11.724 13.062 " stroke="none" fill-rule="evenodd" fill="black"></path></svg>