<svg xmlns="http://www.w3.org/2000/svg" width="24" height="24" viewBox="0 0 24 24" fill="none" stroke="currentColor" stroke-width="2" stroke-linecap="round" stroke-linejoin="round"><path d="M6.499 2.043 C 5.379 2.233,4.461 3.048,4.114 4.160 L 4.020 4.460 4.020 12.883 L 4.020 21.306 4.141 21.503 C 4.288 21.742,4.578 21.946,4.821 21.982 C 5.218 22.042,5.277 22.013,6.617 21.121 L 7.869 20.288 8.604 21.027 C 9.488 21.914,9.585 21.980,10.000 21.979 C 10.213 21.979,10.340 21.957,10.440 21.904 C 10.517 21.864,10.900 21.514,11.290 21.127 L 12.000 20.423 12.710 21.127 C 13.101 21.514,13.483 21.864,13.560 21.904 C 13.660 21.957,13.787 21.979,14.000 21.979 C 14.415 21.980,14.512 21.914,15.396 21.026 L 16.132 20.287 17.332 21.088 C 17.993 21.529,18.613 21.916,18.711 21.950 C 19.212 22.121,19.822 21.793,19.961 21.277 C 19.988 21.177,19.998 18.322,19.991 12.773 L 19.980 4.420 19.886 4.140 C 19.556 3.158,18.821 2.425,17.861 2.121 L 17.540 2.020 12.120 2.014 C 9.139 2.011,6.609 2.024,6.499 2.043 M17.310 4.061 C 17.592 4.144,17.858 4.412,17.940 4.693 C 17.993 4.876,17.999 5.769,17.990 12.011 L 17.980 19.120 17.225 18.617 C 16.255 17.969,16.138 17.928,15.677 18.064 C 15.479 18.123,15.396 18.192,14.730 18.852 L 14.001 19.574 13.270 18.854 C 12.496 18.090,12.362 18.000,12.000 18.000 C 11.638 18.000,11.504 18.090,10.730 18.854 L 9.999 19.574 9.270 18.852 C 8.604 18.192,8.521 18.123,8.323 18.064 C 7.862 17.928,7.745 17.969,6.775 18.617 L 6.020 19.120 6.010 12.011 C 5.999 4.009,5.975 4.631,6.303 4.303 C 6.621 3.985,6.233 4.006,11.983 4.003 C 16.458 4.000,17.131 4.008,17.310 4.061 M12.499 6.040 C 11.373 6.244,10.478 7.034,10.116 8.140 C 10.031 8.403,10.024 8.498,10.009 9.710 L 9.993 11.000 9.443 11.000 C 8.648 11.000,8.366 11.111,8.128 11.516 C 8.037 11.672,8.020 11.746,8.020 12.000 C 8.020 12.256,8.036 12.328,8.131 12.489 C 8.256 12.702,8.449 12.864,8.670 12.943 C 8.768 12.978,9.023 12.997,9.410 12.998 C 10.066 13.000,10.037 12.984,9.945 13.290 C 9.822 13.700,9.517 13.937,9.034 13.998 C 8.870 14.019,8.686 14.055,8.625 14.078 C 8.439 14.149,8.242 14.323,8.128 14.516 C 8.037 14.672,8.020 14.746,8.020 15.000 C 8.020 15.256,8.036 15.328,8.131 15.489 C 8.256 15.702,8.449 15.864,8.670 15.943 C 8.891 16.022,15.109 16.022,15.330 15.943 C 15.551 15.864,15.744 15.702,15.869 15.489 C 15.964 15.328,15.980 15.256,15.980 15.000 C 15.980 14.746,15.963 14.672,15.872 14.516 C 15.813 14.415,15.698 14.282,15.618 14.221 C 15.340 14.010,15.248 14.000,13.474 14.000 C 12.575 14.000,11.840 13.995,11.840 13.990 C 11.841 13.985,11.867 13.894,11.899 13.789 C 11.931 13.684,11.969 13.463,11.984 13.299 L 12.011 13.000 12.596 12.998 C 12.978 12.997,13.232 12.978,13.330 12.943 C 13.551 12.864,13.744 12.702,13.869 12.489 C 13.964 12.328,13.980 12.256,13.980 12.000 C 13.980 11.746,13.963 11.672,13.872 11.516 C 13.633 11.110,13.352 11.000,12.554 11.000 L 12.000 11.000 12.000 9.947 C 12.000 8.703,12.022 8.584,12.303 8.303 C 12.486 8.120,12.763 8.000,13.000 8.000 C 13.223 8.000,13.510 8.120,13.679 8.283 C 13.886 8.485,13.951 8.636,14.001 9.031 C 14.049 9.410,14.184 9.647,14.452 9.828 C 14.923 10.144,15.554 9.998,15.859 9.503 C 15.974 9.315,15.980 9.285,15.978 8.883 C 15.977 8.559,15.955 8.390,15.885 8.160 C 15.586 7.184,14.811 6.407,13.861 6.129 C 13.500 6.023,12.832 5.980,12.499 6.040 " stroke="none" fill-rule="evenodd" fill="black"></path></svg>