<svg xmlns="http://www.w3.org/2000/svg" width="24" height="24" viewBox="0 0 24 24" fill="none" stroke="currentColor" stroke-width="2" stroke-linecap="round" stroke-linejoin="round"><path d="M6.499 2.043 C 5.379 2.233,4.461 3.048,4.114 4.160 L 4.020 4.460 4.020 12.883 L 4.020 21.306 4.141 21.503 C 4.288 21.742,4.578 21.946,4.821 21.982 C 5.218 22.042,5.277 22.013,6.617 21.121 L 7.869 20.288 8.604 21.027 C 9.488 21.914,9.585 21.980,10.000 21.979 C 10.213 21.979,10.340 21.957,10.440 21.904 C 10.517 21.864,10.900 21.514,11.290 21.127 L 12.000 20.423 12.710 21.127 C 13.101 21.514,13.483 21.864,13.560 21.904 C 13.660 21.957,13.787 21.979,14.000 21.979 C 14.415 21.980,14.512 21.914,15.396 21.026 L 16.132 20.287 17.332 21.088 C 17.993 21.529,18.613 21.916,18.711 21.950 C 19.212 22.121,19.822 21.793,19.961 21.277 C 19.988 21.177,19.998 18.322,19.991 12.773 L 19.980 4.420 19.886 4.140 C 19.556 3.158,18.821 2.425,17.861 2.121 L 17.540 2.020 12.120 2.014 C 9.139 2.011,6.609 2.024,6.499 2.043 M17.310 4.061 C 17.592 4.144,17.858 4.412,17.940 4.693 C 17.993 4.876,17.999 5.769,17.990 12.011 L 17.980 19.120 17.225 18.617 C 16.255 17.969,16.138 17.928,15.677 18.064 C 15.479 18.123,15.396 18.192,14.730 18.852 L 14.001 19.574 13.270 18.854 C 12.496 18.090,12.362 18.000,12.000 18.000 C 11.638 18.000,11.504 18.090,10.730 18.854 L 9.999 19.574 9.270 18.852 C 8.604 18.192,8.521 18.123,8.323 18.064 C 7.862 17.928,7.745 17.969,6.775 18.617 L 6.020 19.120 6.010 12.011 C 5.999 4.009,5.975 4.631,6.303 4.303 C 6.621 3.985,6.233 4.006,11.983 4.003 C 16.458 4.000,17.131 4.008,17.310 4.061 M9.695 5.057 C 9.352 5.164,9.073 5.481,9.018 5.825 C 8.992 5.985,8.986 5.990,8.781 6.036 C 8.515 6.096,8.269 6.276,8.129 6.514 C 8.036 6.672,8.020 6.745,8.020 7.003 C 8.020 7.271,8.034 7.329,8.141 7.503 C 8.288 7.742,8.578 7.946,8.821 7.982 L 9.000 8.009 9.000 10.998 L 9.000 13.987 8.786 14.035 C 8.515 14.096,8.270 14.275,8.129 14.514 C 8.036 14.672,8.020 14.745,8.020 15.003 C 8.020 15.271,8.034 15.329,8.141 15.503 C 8.287 15.740,8.577 15.946,8.817 15.982 C 8.988 16.007,8.993 16.012,9.018 16.183 C 9.054 16.423,9.260 16.713,9.497 16.859 C 9.671 16.966,9.729 16.980,10.000 16.980 C 10.271 16.980,10.329 16.966,10.503 16.859 C 10.742 16.712,10.946 16.422,10.982 16.179 L 11.009 16.000 11.500 16.000 L 11.991 16.000 12.017 16.175 C 12.053 16.417,12.243 16.699,12.465 16.839 C 13.092 17.236,13.917 16.833,13.990 16.094 L 14.013 15.860 14.363 15.690 C 15.034 15.363,15.587 14.721,15.843 13.969 C 15.970 13.599,15.976 13.552,15.976 13.000 C 15.976 12.447,15.970 12.402,15.842 12.027 C 15.756 11.774,15.632 11.521,15.496 11.317 L 15.283 11.000 15.496 10.683 C 15.632 10.479,15.756 10.226,15.842 9.973 C 15.970 9.598,15.976 9.553,15.976 9.000 C 15.976 8.448,15.970 8.401,15.843 8.031 C 15.586 7.278,15.042 6.645,14.366 6.314 L 14.011 6.140 13.989 5.910 C 13.948 5.477,13.642 5.131,13.214 5.035 C 12.666 4.913,12.104 5.285,12.017 5.830 L 11.990 6.000 11.500 6.000 L 11.010 6.000 10.983 5.830 C 10.926 5.473,10.648 5.163,10.290 5.055 C 10.068 4.988,9.913 4.989,9.695 5.057 M13.333 8.043 C 13.522 8.095,13.778 8.321,13.892 8.537 C 13.958 8.662,13.978 8.770,13.978 9.000 C 13.978 9.340,13.901 9.530,13.674 9.748 C 13.421 9.990,13.359 10.000,12.121 10.000 L 11.000 10.000 11.000 9.000 L 11.000 8.000 12.090 8.000 C 12.735 8.000,13.242 8.018,13.333 8.043 M13.333 12.043 C 13.522 12.095,13.778 12.321,13.892 12.537 C 13.958 12.662,13.978 12.770,13.978 13.000 C 13.978 13.340,13.901 13.530,13.674 13.748 C 13.421 13.990,13.359 14.000,12.121 14.000 L 11.000 14.000 11.000 13.000 L 11.000 12.000 12.090 12.000 C 12.735 12.000,13.242 12.018,13.333 12.043 " stroke="none" fill-rule="evenodd" fill="black"></path></svg>