<svg xmlns="http://www.w3.org/2000/svg" width="24" height="24" viewBox="0 0 24 24" fill="none" stroke="currentColor" stroke-width="2" stroke-linecap="round" stroke-linejoin="round"><path d="M6.499 2.043 C 5.379 2.233,4.461 3.048,4.114 4.160 L 4.020 4.460 4.020 12.883 L 4.020 21.306 4.141 21.503 C 4.288 21.742,4.578 21.946,4.821 21.982 C 5.218 22.042,5.277 22.013,6.617 21.121 L 7.869 20.288 8.604 21.027 C 9.488 21.914,9.585 21.980,10.000 21.979 C 10.213 21.979,10.340 21.957,10.440 21.904 C 10.517 21.864,10.900 21.514,11.290 21.127 L 12.000 20.423 12.710 21.127 C 13.101 21.514,13.483 21.864,13.560 21.904 C 13.660 21.957,13.787 21.979,14.000 21.979 C 14.415 21.980,14.512 21.914,15.396 21.026 L 16.132 20.287 17.332 21.088 C 17.993 21.529,18.613 21.916,18.711 21.950 C 19.212 22.121,19.822 21.793,19.961 21.277 C 19.988 21.177,19.998 18.322,19.991 12.773 L 19.980 4.420 19.886 4.140 C 19.556 3.158,18.821 2.425,17.861 2.121 L 17.540 2.020 12.120 2.014 C 9.139 2.011,6.609 2.024,6.499 2.043 M17.310 4.061 C 17.592 4.144,17.858 4.412,17.940 4.693 C 17.993 4.876,17.999 5.769,17.990 12.011 L 17.980 19.120 17.225 18.617 C 16.255 17.969,16.138 17.928,15.677 18.064 C 15.479 18.123,15.396 18.192,14.730 18.852 L 14.001 19.574 13.270 18.854 C 12.496 18.090,12.362 18.000,12.000 18.000 C 11.638 18.000,11.504 18.090,10.730 18.854 L 9.999 19.574 9.270 18.852 C 8.604 18.192,8.521 18.123,8.323 18.064 C 7.862 17.928,7.745 17.969,6.775 18.617 L 6.020 19.120 6.010 12.011 C 5.999 4.009,5.975 4.631,6.303 4.303 C 6.621 3.985,6.233 4.006,11.983 4.003 C 16.458 4.000,17.131 4.008,17.310 4.061 M11.600 5.584 C 11.418 5.662,11.215 5.859,11.108 6.060 C 11.043 6.182,11.018 6.318,11.001 6.635 L 10.980 7.049 10.759 7.118 C 10.004 7.351,9.361 7.979,9.118 8.722 C 9.034 8.976,9.020 9.094,9.022 9.520 C 9.024 9.960,9.038 10.056,9.133 10.320 C 9.394 11.039,9.964 11.609,10.680 11.867 C 10.961 11.968,11.033 11.976,11.800 11.992 C 12.702 12.010,12.786 12.030,12.922 12.252 C 13.065 12.487,12.991 12.774,12.748 12.922 C 12.628 12.995,12.538 13.000,11.256 13.000 C 9.773 13.000,9.653 13.014,9.382 13.221 C 9.302 13.282,9.187 13.415,9.128 13.516 C 9.037 13.672,9.020 13.746,9.020 14.000 C 9.020 14.256,9.036 14.328,9.131 14.489 C 9.256 14.702,9.449 14.864,9.670 14.943 C 9.768 14.978,10.023 14.997,10.410 14.998 L 11.000 15.000 11.000 15.350 C 11.001 15.635,11.018 15.737,11.095 15.900 C 11.276 16.281,11.595 16.488,12.000 16.488 C 12.405 16.488,12.724 16.281,12.905 15.900 C 12.982 15.735,12.999 15.635,13.000 15.334 L 13.000 14.969 13.289 14.874 C 14.001 14.642,14.604 14.048,14.868 13.320 C 14.965 13.052,14.976 12.965,14.976 12.500 C 14.976 12.035,14.965 11.948,14.868 11.680 C 14.646 11.068,14.195 10.561,13.620 10.277 C 13.172 10.055,12.869 10.002,12.068 10.001 C 11.319 10.000,11.216 9.974,11.078 9.748 C 10.979 9.585,10.979 9.415,11.078 9.252 C 11.230 9.003,11.251 9.000,12.788 8.998 C 14.285 8.996,14.350 8.989,14.619 8.783 C 14.696 8.725,14.808 8.592,14.869 8.489 C 14.964 8.328,14.980 8.256,14.980 8.000 C 14.980 7.746,14.963 7.672,14.872 7.516 C 14.633 7.110,14.352 7.000,13.554 7.000 L 13.000 7.000 13.000 6.650 C 12.999 6.365,12.982 6.263,12.905 6.100 C 12.793 5.865,12.599 5.669,12.391 5.582 C 12.203 5.503,11.783 5.504,11.600 5.584 " stroke="none" fill-rule="evenodd" fill="black"></path></svg>