<svg xmlns="http://www.w3.org/2000/svg" width="24" height="24" viewBox="0 0 24 24" fill="none" stroke="currentColor" stroke-width="2" stroke-linecap="round" stroke-linejoin="round"><path d="M6.499 2.043 C 5.379 2.233,4.461 3.048,4.114 4.160 L 4.020 4.460 4.020 12.883 L 4.020 21.306 4.141 21.503 C 4.288 21.742,4.578 21.946,4.821 21.982 C 5.218 22.042,5.277 22.013,6.617 21.121 L 7.869 20.288 8.604 21.027 C 9.488 21.914,9.585 21.980,10.000 21.979 C 10.213 21.979,10.340 21.957,10.440 21.904 C 10.517 21.864,10.900 21.514,11.290 21.127 L 12.000 20.423 12.710 21.127 C 13.101 21.514,13.483 21.864,13.560 21.904 C 13.660 21.957,13.787 21.979,14.000 21.979 C 14.415 21.980,14.512 21.914,15.396 21.026 L 16.132 20.287 17.332 21.088 C 17.993 21.529,18.613 21.916,18.711 21.950 C 19.212 22.121,19.822 21.793,19.961 21.277 C 19.988 21.177,19.998 18.322,19.991 12.773 L 19.980 4.420 19.886 4.140 C 19.556 3.158,18.821 2.425,17.861 2.121 L 17.540 2.020 12.120 2.014 C 9.139 2.011,6.609 2.024,6.499 2.043 M17.310 4.061 C 17.592 4.144,17.858 4.412,17.940 4.693 C 17.993 4.876,17.999 5.769,17.990 12.011 L 17.980 19.120 17.225 18.617 C 16.255 17.969,16.138 17.928,15.677 18.064 C 15.479 18.123,15.396 18.192,14.730 18.852 L 14.001 19.574 13.270 18.854 C 12.496 18.090,12.362 18.000,12.000 18.000 C 11.638 18.000,11.504 18.090,10.730 18.854 L 9.999 19.574 9.270 18.852 C 8.604 18.192,8.521 18.123,8.323 18.064 C 7.862 17.928,7.745 17.969,6.775 18.617 L 6.020 19.120 6.010 12.011 C 5.999 4.009,5.975 4.631,6.303 4.303 C 6.621 3.985,6.233 4.006,11.983 4.003 C 16.458 4.000,17.131 4.008,17.310 4.061 M9.174 7.039 C 8.750 7.129,8.329 7.477,8.132 7.900 C 8.035 8.107,8.020 8.190,8.020 8.500 C 8.020 8.811,8.035 8.894,8.133 9.104 C 8.276 9.413,8.585 9.721,8.900 9.868 C 9.107 9.965,9.190 9.980,9.500 9.980 C 9.810 9.980,9.893 9.965,10.100 9.868 C 10.415 9.721,10.724 9.413,10.867 9.104 C 10.965 8.894,10.980 8.811,10.980 8.500 C 10.980 8.189,10.965 8.106,10.867 7.896 C 10.727 7.592,10.415 7.278,10.119 7.143 C 9.870 7.030,9.441 6.982,9.174 7.039 M14.640 7.068 C 14.485 7.121,14.036 7.553,11.347 10.235 C 9.570 12.008,8.188 13.417,8.127 13.520 C 8.036 13.672,8.020 13.746,8.020 14.000 C 8.020 14.257,8.036 14.327,8.133 14.492 C 8.263 14.714,8.502 14.901,8.736 14.965 C 8.938 15.019,9.266 14.989,9.445 14.899 C 9.630 14.807,15.737 8.707,15.873 8.480 C 15.964 8.328,15.980 8.254,15.980 8.000 C 15.980 7.746,15.963 7.672,15.872 7.516 C 15.617 7.083,15.122 6.903,14.640 7.068 M14.174 12.039 C 13.750 12.129,13.329 12.477,13.132 12.900 C 13.035 13.107,13.020 13.190,13.020 13.500 C 13.020 13.811,13.035 13.894,13.133 14.104 C 13.276 14.413,13.585 14.721,13.900 14.868 C 14.107 14.965,14.190 14.980,14.500 14.980 C 14.810 14.980,14.893 14.965,15.100 14.868 C 15.415 14.721,15.724 14.413,15.867 14.104 C 15.965 13.894,15.980 13.811,15.980 13.500 C 15.980 13.189,15.965 13.106,15.867 12.896 C 15.727 12.592,15.415 12.278,15.119 12.143 C 14.870 12.030,14.441 11.982,14.174 12.039 " stroke="none" fill-rule="evenodd" fill="black"></path></svg>