<svg xmlns="http://www.w3.org/2000/svg" width="24" height="24" viewBox="0 0 24 24" fill="none" stroke="currentColor" stroke-width="2" stroke-linecap="round" stroke-linejoin="round"><path d="M6.499 2.043 C 5.379 2.233,4.461 3.048,4.114 4.160 L 4.020 4.460 4.020 12.883 L 4.020 21.306 4.141 21.503 C 4.288 21.742,4.578 21.946,4.821 21.982 C 5.218 22.042,5.277 22.013,6.617 21.121 L 7.869 20.288 8.604 21.027 C 9.488 21.914,9.585 21.980,10.000 21.979 C 10.213 21.979,10.340 21.957,10.440 21.904 C 10.517 21.864,10.900 21.514,11.290 21.127 L 12.000 20.423 12.710 21.127 C 13.101 21.514,13.483 21.864,13.560 21.904 C 13.660 21.957,13.787 21.979,14.000 21.979 C 14.415 21.980,14.512 21.914,15.396 21.026 L 16.132 20.287 17.332 21.088 C 17.993 21.529,18.613 21.916,18.711 21.950 C 19.212 22.121,19.822 21.793,19.961 21.277 C 19.988 21.177,19.998 18.322,19.991 12.773 L 19.980 4.420 19.886 4.140 C 19.556 3.158,18.821 2.425,17.861 2.121 L 17.540 2.020 12.120 2.014 C 9.139 2.011,6.609 2.024,6.499 2.043 M17.310 4.061 C 17.592 4.144,17.858 4.412,17.940 4.693 C 17.993 4.876,17.999 5.769,17.990 12.011 L 17.980 19.120 17.225 18.617 C 16.255 17.969,16.138 17.928,15.677 18.064 C 15.479 18.123,15.396 18.192,14.730 18.852 L 14.001 19.574 13.270 18.854 C 12.496 18.090,12.362 18.000,12.000 18.000 C 11.638 18.000,11.504 18.090,10.730 18.854 L 9.999 19.574 9.270 18.852 C 8.604 18.192,8.521 18.123,8.323 18.064 C 7.862 17.928,7.745 17.969,6.775 18.617 L 6.020 19.120 6.010 12.011 C 5.999 4.009,5.975 4.631,6.303 4.303 C 6.621 3.985,6.233 4.006,11.983 4.003 C 16.458 4.000,17.131 4.008,17.310 4.061 M12.642 6.041 C 11.392 6.216,10.242 7.113,9.588 8.423 C 9.423 8.753,9.179 9.460,9.140 9.723 C 9.125 9.824,9.101 9.924,9.086 9.944 C 9.072 9.965,8.952 10.004,8.820 10.031 C 8.089 10.180,7.765 10.993,8.198 11.591 C 8.350 11.801,8.617 11.956,8.877 11.987 C 9.042 12.007,9.085 12.027,9.099 12.096 C 9.179 12.466,9.268 12.786,9.363 13.047 C 10.047 14.912,11.619 16.081,13.316 15.988 C 14.189 15.940,15.010 15.578,15.634 14.963 C 15.918 14.683,16.022 14.429,15.988 14.099 C 15.961 13.838,15.882 13.680,15.673 13.478 C 15.420 13.232,15.003 13.138,14.680 13.254 C 14.603 13.281,14.383 13.424,14.192 13.570 C 13.672 13.967,13.236 14.078,12.729 13.943 C 12.197 13.801,11.713 13.352,11.385 12.695 C 11.269 12.461,11.120 12.082,11.120 12.019 C 11.120 12.008,11.583 11.999,12.150 11.998 C 13.258 11.996,13.359 11.981,13.619 11.783 C 13.696 11.725,13.808 11.592,13.869 11.489 C 13.964 11.328,13.980 11.256,13.980 11.000 C 13.980 10.746,13.963 10.672,13.872 10.516 C 13.813 10.415,13.698 10.282,13.618 10.221 C 13.359 10.024,13.199 10.000,12.114 10.000 C 11.567 10.000,11.120 9.992,11.120 9.981 C 11.120 9.918,11.269 9.539,11.385 9.305 C 11.843 8.388,12.581 7.906,13.337 8.031 C 13.670 8.086,13.899 8.195,14.215 8.449 C 14.535 8.708,14.646 8.762,14.900 8.789 C 15.622 8.863,16.169 8.172,15.939 7.475 C 15.777 6.986,14.853 6.333,14.020 6.120 C 13.650 6.025,13.014 5.989,12.642 6.041 " stroke="none" fill-rule="evenodd" fill="black"></path></svg>