<svg xmlns="http://www.w3.org/2000/svg" width="24" height="24" viewBox="0 0 24 24" fill="none" stroke="currentColor" stroke-width="2" stroke-linecap="round" stroke-linejoin="round"><path d="M6.499 2.043 C 5.379 2.233,4.461 3.048,4.114 4.160 L 4.020 4.460 4.020 12.883 L 4.020 21.306 4.141 21.503 C 4.288 21.742,4.578 21.946,4.821 21.982 C 5.218 22.042,5.277 22.013,6.617 21.121 L 7.869 20.288 8.604 21.027 C 9.488 21.914,9.585 21.980,10.000 21.979 C 10.213 21.979,10.340 21.957,10.440 21.904 C 10.517 21.864,10.900 21.514,11.290 21.127 L 12.000 20.423 12.710 21.127 C 13.101 21.514,13.483 21.864,13.560 21.904 C 13.660 21.957,13.787 21.979,14.000 21.979 C 14.415 21.980,14.512 21.914,15.396 21.026 L 16.132 20.287 17.332 21.088 C 17.993 21.529,18.613 21.916,18.711 21.950 C 19.212 22.121,19.822 21.793,19.961 21.277 C 19.988 21.177,19.998 18.322,19.991 12.773 L 19.980 4.420 19.886 4.140 C 19.556 3.158,18.821 2.425,17.861 2.121 L 17.540 2.020 12.120 2.014 C 9.139 2.011,6.609 2.024,6.499 2.043 M17.310 4.061 C 17.592 4.144,17.858 4.412,17.940 4.693 C 17.993 4.876,17.999 5.769,17.990 12.011 L 17.980 19.120 17.225 18.617 C 16.255 17.969,16.138 17.928,15.677 18.064 C 15.479 18.123,15.396 18.192,14.730 18.852 L 14.001 19.574 13.270 18.854 C 12.496 18.090,12.362 18.000,12.000 18.000 C 11.638 18.000,11.504 18.090,10.730 18.854 L 9.999 19.574 9.270 18.852 C 8.604 18.192,8.521 18.123,8.323 18.064 C 7.862 17.928,7.745 17.969,6.775 18.617 L 6.020 19.120 6.010 12.011 C 5.999 4.009,5.975 4.631,6.303 4.303 C 6.621 3.985,6.233 4.006,11.983 4.003 C 16.458 4.000,17.131 4.008,17.310 4.061 M8.650 6.066 C 8.171 6.236,7.882 6.844,8.054 7.320 C 8.082 7.397,8.486 8.031,8.953 8.730 L 9.801 10.000 9.347 10.000 C 8.657 10.000,8.357 10.127,8.128 10.516 C 8.037 10.672,8.020 10.746,8.020 11.000 C 8.020 11.256,8.036 11.328,8.131 11.489 C 8.192 11.592,8.304 11.725,8.381 11.783 C 8.643 11.983,8.738 11.996,9.910 11.998 L 11.000 12.000 11.000 12.500 L 11.000 13.000 9.946 13.000 C 8.797 13.000,8.644 13.022,8.382 13.221 C 8.302 13.282,8.187 13.415,8.128 13.516 C 8.037 13.672,8.020 13.746,8.020 14.000 C 8.020 14.256,8.036 14.328,8.131 14.489 C 8.192 14.592,8.304 14.725,8.381 14.783 C 8.642 14.983,8.738 14.996,9.907 14.998 L 10.993 15.000 11.007 15.653 C 11.020 16.300,11.021 16.308,11.141 16.503 C 11.543 17.156,12.457 17.156,12.859 16.503 C 12.979 16.308,12.980 16.300,12.993 15.653 L 13.007 15.000 14.093 14.998 C 15.262 14.996,15.358 14.983,15.619 14.783 C 15.696 14.725,15.808 14.592,15.869 14.489 C 15.964 14.328,15.980 14.256,15.980 14.000 C 15.980 13.746,15.963 13.672,15.872 13.516 C 15.813 13.415,15.698 13.282,15.618 13.221 C 15.356 13.022,15.203 13.000,14.054 13.000 L 13.000 13.000 13.000 12.500 L 13.000 12.000 14.090 11.998 C 15.262 11.996,15.357 11.983,15.619 11.783 C 15.696 11.725,15.808 11.592,15.869 11.489 C 15.964 11.328,15.980 11.256,15.980 11.000 C 15.980 10.746,15.963 10.672,15.872 10.516 C 15.643 10.127,15.343 10.000,14.653 10.000 L 14.199 10.000 15.043 8.735 C 15.507 8.040,15.912 7.399,15.943 7.310 C 16.211 6.551,15.442 5.791,14.678 6.061 C 14.583 6.094,14.450 6.164,14.383 6.215 C 14.315 6.267,13.756 7.067,13.140 7.993 C 12.524 8.920,12.011 9.678,12.000 9.678 C 11.989 9.678,11.476 8.920,10.860 7.993 C 10.244 7.067,9.685 6.267,9.617 6.215 C 9.346 6.008,8.976 5.951,8.650 6.066 " stroke="none" fill-rule="evenodd" fill="black"></path></svg>