<svg xmlns="http://www.w3.org/2000/svg" width="24" height="24" viewBox="0 0 24 24" fill="none" stroke="currentColor" stroke-width="2" stroke-linecap="round" stroke-linejoin="round"><path d="M6.499 2.043 C 5.379 2.233,4.461 3.048,4.114 4.160 L 4.020 4.460 4.020 12.883 L 4.020 21.306 4.141 21.503 C 4.288 21.742,4.578 21.946,4.821 21.982 C 5.218 22.042,5.277 22.013,6.617 21.121 L 7.869 20.288 8.604 21.027 C 9.488 21.914,9.585 21.980,10.000 21.979 C 10.213 21.979,10.340 21.957,10.440 21.904 C 10.517 21.864,10.900 21.514,11.290 21.127 L 12.000 20.423 12.710 21.127 C 13.101 21.514,13.483 21.864,13.560 21.904 C 13.660 21.957,13.787 21.979,14.000 21.979 C 14.415 21.980,14.512 21.914,15.396 21.026 L 16.132 20.287 17.332 21.088 C 17.993 21.529,18.613 21.916,18.711 21.950 C 19.212 22.121,19.822 21.793,19.961 21.277 C 19.988 21.177,19.998 18.322,19.991 12.773 L 19.980 4.420 19.886 4.140 C 19.556 3.158,18.821 2.425,17.861 2.121 L 17.540 2.020 12.120 2.014 C 9.139 2.011,6.609 2.024,6.499 2.043 M17.310 4.061 C 17.592 4.144,17.858 4.412,17.940 4.693 C 17.993 4.876,17.999 5.769,17.990 12.011 L 17.980 19.120 17.225 18.617 C 16.255 17.969,16.138 17.928,15.677 18.064 C 15.479 18.123,15.396 18.192,14.730 18.852 L 14.001 19.574 13.270 18.854 C 12.496 18.090,12.362 18.000,12.000 18.000 C 11.638 18.000,11.504 18.090,10.730 18.854 L 9.999 19.574 9.270 18.852 C 8.604 18.192,8.521 18.123,8.323 18.064 C 7.862 17.928,7.745 17.969,6.775 18.617 L 6.020 19.120 6.010 12.011 C 5.999 4.009,5.975 4.631,6.303 4.303 C 6.621 3.985,6.233 4.006,11.983 4.003 C 16.458 4.000,17.131 4.008,17.310 4.061 M10.640 7.069 C 10.492 7.121,10.265 7.325,9.347 8.236 C 8.734 8.843,8.185 9.421,8.127 9.520 C 8.037 9.672,8.020 9.747,8.020 10.000 C 8.020 10.254,8.036 10.328,8.127 10.480 C 8.260 10.703,10.367 12.803,10.560 12.905 C 10.659 12.957,10.787 12.979,11.000 12.979 C 11.258 12.980,11.327 12.964,11.492 12.867 C 11.842 12.662,12.029 12.295,11.988 11.895 C 11.961 11.632,11.879 11.477,11.629 11.212 L 11.428 11.000 12.267 11.000 C 13.255 11.000,13.421 11.033,13.679 11.283 C 13.975 11.571,13.977 11.581,14.000 13.023 L 14.020 14.307 14.141 14.503 C 14.543 15.156,15.457 15.156,15.859 14.503 L 15.980 14.306 15.980 12.883 C 15.980 11.503,15.977 11.451,15.886 11.160 C 15.580 10.180,14.822 9.418,13.861 9.125 C 13.564 9.034,13.462 9.025,12.488 9.009 L 11.436 8.992 11.633 8.784 C 11.924 8.476,11.978 8.353,11.979 8.000 C 11.980 7.745,11.964 7.672,11.872 7.516 C 11.617 7.083,11.120 6.902,10.640 7.069 " stroke="none" fill-rule="evenodd" fill="black"></path></svg>