<svg xmlns="http://www.w3.org/2000/svg" width="24" height="24" viewBox="0 0 24 24" fill="none" stroke="currentColor" stroke-width="2" stroke-linecap="round" stroke-linejoin="round"><path d="M6.499 2.043 C 5.379 2.233,4.461 3.048,4.114 4.160 L 4.020 4.460 4.020 12.883 L 4.020 21.306 4.141 21.503 C 4.288 21.742,4.578 21.946,4.821 21.982 C 5.218 22.042,5.277 22.013,6.617 21.121 L 7.869 20.288 8.604 21.027 C 9.488 21.914,9.585 21.980,10.000 21.979 C 10.213 21.979,10.340 21.957,10.440 21.904 C 10.517 21.864,10.900 21.514,11.290 21.127 L 12.000 20.423 12.710 21.127 C 13.101 21.514,13.483 21.864,13.560 21.904 C 13.660 21.957,13.787 21.979,14.000 21.979 C 14.415 21.980,14.512 21.914,15.396 21.026 L 16.132 20.287 17.332 21.088 C 17.993 21.529,18.613 21.916,18.711 21.950 C 19.212 22.121,19.822 21.793,19.961 21.277 C 19.988 21.177,19.998 18.322,19.991 12.773 L 19.980 4.420 19.886 4.140 C 19.556 3.158,18.821 2.425,17.861 2.121 L 17.540 2.020 12.120 2.014 C 9.139 2.011,6.609 2.024,6.499 2.043 M17.310 4.061 C 17.592 4.144,17.858 4.412,17.940 4.693 C 17.993 4.876,17.999 5.769,17.990 12.011 L 17.980 19.120 17.225 18.617 C 16.255 17.969,16.138 17.928,15.677 18.064 C 15.479 18.123,15.396 18.192,14.730 18.852 L 14.001 19.574 13.270 18.854 C 12.496 18.090,12.362 18.000,12.000 18.000 C 11.638 18.000,11.504 18.090,10.730 18.854 L 9.999 19.574 9.270 18.852 C 8.604 18.192,8.521 18.123,8.323 18.064 C 7.862 17.928,7.745 17.969,6.775 18.617 L 6.020 19.120 6.010 12.011 C 5.999 4.009,5.975 4.631,6.303 4.303 C 6.621 3.985,6.233 4.006,11.983 4.003 C 16.458 4.000,17.131 4.008,17.310 4.061 M8.695 6.057 C 8.466 6.129,8.256 6.299,8.128 6.516 C 8.037 6.672,8.020 6.746,8.020 7.000 C 8.020 7.256,8.036 7.328,8.131 7.489 C 8.192 7.592,8.304 7.725,8.381 7.783 C 8.625 7.969,8.766 7.996,9.512 7.998 C 10.324 8.000,10.640 8.057,10.986 8.265 C 11.246 8.420,11.545 8.696,11.654 8.880 L 11.725 9.000 10.309 9.000 C 8.769 9.000,8.655 9.013,8.382 9.221 C 8.302 9.282,8.187 9.415,8.128 9.516 C 8.037 9.672,8.020 9.746,8.020 10.000 C 8.020 10.256,8.036 10.328,8.131 10.489 C 8.192 10.592,8.304 10.725,8.381 10.783 C 8.651 10.990,8.710 10.996,10.272 10.998 L 11.725 11.000 11.652 11.124 C 11.546 11.306,11.143 11.667,10.917 11.781 C 10.566 11.960,10.318 12.000,9.578 12.000 C 9.113 12.000,8.834 12.018,8.710 12.055 C 8.168 12.218,7.882 12.778,8.060 13.325 C 8.126 13.525,8.241 13.651,9.735 15.153 C 10.618 16.040,11.416 16.811,11.508 16.866 C 11.968 17.138,12.587 16.968,12.867 16.492 C 12.964 16.327,12.980 16.258,12.979 16.000 C 12.979 15.787,12.957 15.660,12.905 15.560 C 12.864 15.483,12.470 15.056,12.028 14.612 C 11.354 13.932,11.238 13.799,11.303 13.776 C 12.432 13.374,13.299 12.540,13.711 11.460 C 13.778 11.284,13.843 11.108,13.855 11.070 C 13.875 11.007,13.945 11.000,14.529 10.998 C 15.231 10.996,15.378 10.967,15.619 10.783 C 15.696 10.725,15.808 10.592,15.869 10.489 C 15.964 10.328,15.980 10.256,15.980 10.000 C 15.980 9.746,15.963 9.672,15.872 9.516 C 15.760 9.326,15.568 9.155,15.373 9.072 C 15.308 9.045,14.962 9.015,14.567 9.002 L 13.873 8.980 13.781 8.720 C 13.706 8.509,13.583 8.218,13.488 8.030 C 13.480 8.014,13.857 7.999,14.327 7.998 C 15.245 7.996,15.366 7.976,15.619 7.783 C 15.696 7.725,15.808 7.592,15.869 7.489 C 15.964 7.328,15.980 7.256,15.980 7.000 C 15.980 6.746,15.963 6.672,15.872 6.516 C 15.740 6.293,15.533 6.128,15.290 6.055 C 15.030 5.977,8.945 5.979,8.695 6.057 " stroke="none" fill-rule="evenodd" fill="black"></path></svg>