<svg xmlns="http://www.w3.org/2000/svg" width="24" height="24" viewBox="0 0 24 24" fill="none" stroke="currentColor" stroke-width="2" stroke-linecap="round" stroke-linejoin="round"><path d="M2.670 2.061 C 2.448 2.142,2.250 2.309,2.128 2.516 C 2.036 2.672,2.020 2.745,2.021 3.000 C 2.021 3.213,2.043 3.341,2.095 3.440 C 2.136 3.517,2.581 3.994,3.084 4.501 L 3.999 5.421 4.010 13.364 L 4.020 21.306 4.141 21.503 C 4.288 21.742,4.578 21.946,4.821 21.982 C 5.218 22.042,5.277 22.013,6.617 21.121 L 7.869 20.288 8.604 21.027 C 9.488 21.914,9.585 21.980,10.000 21.979 C 10.213 21.979,10.340 21.957,10.440 21.904 C 10.517 21.864,10.900 21.514,11.290 21.127 L 12.000 20.423 12.710 21.127 C 13.101 21.514,13.483 21.864,13.560 21.904 C 13.660 21.957,13.787 21.979,14.000 21.979 C 14.415 21.980,14.512 21.914,15.396 21.026 L 16.132 20.287 17.332 21.088 C 17.993 21.529,18.613 21.916,18.711 21.950 C 19.107 22.085,19.580 21.916,19.825 21.552 L 19.950 21.367 20.145 21.566 C 20.462 21.891,20.646 21.980,21.000 21.980 C 21.257 21.980,21.327 21.964,21.492 21.867 C 21.968 21.587,22.139 20.967,21.865 20.508 C 21.810 20.416,17.665 16.243,12.653 11.235 C 4.231 2.820,3.525 2.125,3.343 2.065 C 3.107 1.987,2.874 1.986,2.670 2.061 M6.695 2.057 C 6.465 2.129,6.256 2.299,6.128 2.516 C 6.037 2.672,6.020 2.746,6.020 3.000 C 6.020 3.256,6.036 3.328,6.131 3.489 C 6.256 3.702,6.449 3.864,6.670 3.943 C 6.792 3.987,7.771 3.997,11.963 3.998 C 17.717 4.000,17.369 3.983,17.679 4.283 C 18.005 4.600,17.978 4.102,18.000 10.023 L 18.020 15.306 18.141 15.503 C 18.543 16.156,19.457 16.156,19.859 15.503 L 19.980 15.306 19.980 9.883 L 19.980 4.460 19.886 4.160 C 19.581 3.182,18.832 2.428,17.861 2.121 L 17.540 2.020 12.200 2.012 C 7.900 2.006,6.828 2.015,6.695 2.057 M10.695 6.057 C 10.466 6.129,10.256 6.299,10.128 6.516 C 10.037 6.672,10.020 6.746,10.020 7.000 C 10.020 7.256,10.036 7.328,10.131 7.489 C 10.256 7.702,10.449 7.864,10.670 7.943 C 10.889 8.021,15.111 8.021,15.330 7.943 C 15.551 7.864,15.744 7.702,15.869 7.489 C 15.964 7.328,15.980 7.256,15.980 7.000 C 15.980 6.746,15.963 6.672,15.872 6.516 C 15.740 6.293,15.533 6.128,15.290 6.055 C 15.033 5.978,10.943 5.979,10.695 6.057 M8.446 10.179 C 8.344 10.250,8.206 10.394,8.140 10.500 C 8.034 10.671,8.020 10.730,8.020 10.997 C 8.020 11.256,8.036 11.327,8.131 11.489 C 8.192 11.592,8.304 11.725,8.381 11.783 C 8.635 11.977,8.753 11.996,9.700 11.998 L 10.579 12.000 11.606 13.026 L 12.632 14.051 12.446 14.179 C 12.344 14.250,12.206 14.394,12.140 14.500 C 12.034 14.671,12.020 14.730,12.020 14.997 C 12.020 15.256,12.036 15.327,12.131 15.489 C 12.192 15.592,12.304 15.725,12.381 15.783 C 12.635 15.977,12.753 15.996,13.700 15.998 L 14.580 16.000 15.840 17.265 C 17.015 18.444,17.079 18.515,16.788 18.322 C 16.291 17.992,16.083 17.944,15.677 18.064 C 15.479 18.123,15.396 18.192,14.730 18.852 L 14.001 19.574 13.270 18.854 C 12.496 18.090,12.362 18.000,12.000 18.000 C 11.638 18.000,11.504 18.090,10.730 18.854 L 9.999 19.574 9.270 18.852 C 8.604 18.192,8.521 18.123,8.323 18.064 C 7.865 17.929,7.741 17.972,6.814 18.589 C 6.421 18.851,6.078 19.079,6.050 19.095 C 6.010 19.119,6.000 17.943,6.000 13.273 L 6.000 7.420 7.316 8.736 L 8.632 10.052 8.446 10.179 M14.695 10.057 C 14.466 10.129,14.256 10.299,14.128 10.516 C 14.036 10.672,14.020 10.745,14.021 11.000 C 14.022 11.332,14.101 11.533,14.306 11.728 C 14.785 12.181,15.580 12.046,15.893 11.460 C 16.025 11.211,16.015 10.760,15.872 10.516 C 15.628 10.101,15.150 9.915,14.695 10.057 " stroke="none" fill-rule="evenodd" fill="black"></path></svg>