<svg xmlns="http://www.w3.org/2000/svg" width="24" height="24" viewBox="0 0 24 24" fill="none" stroke="currentColor" stroke-width="2" stroke-linecap="round" stroke-linejoin="round"><path d="M2.670 2.061 C 2.448 2.142,2.250 2.309,2.128 2.516 C 2.037 2.672,2.020 2.746,2.020 3.000 C 2.020 3.254,2.036 3.327,2.127 3.480 C 2.187 3.579,3.205 4.629,4.397 5.820 C 5.587 7.008,6.560 7.991,6.560 8.004 C 6.560 8.017,6.433 8.049,6.278 8.075 C 5.210 8.251,4.127 9.002,3.569 9.953 C 2.696 11.441,2.848 13.269,3.954 14.584 C 4.529 15.266,5.331 15.735,6.243 15.921 C 6.616 15.997,6.799 16.000,10.606 16.000 L 14.580 16.000 17.460 18.883 C 19.081 20.505,20.419 21.812,20.520 21.873 C 20.673 21.964,20.746 21.980,21.000 21.980 C 21.257 21.980,21.327 21.964,21.492 21.867 C 21.968 21.587,22.139 20.967,21.865 20.508 C 21.810 20.416,17.665 16.243,12.653 11.235 C 4.231 2.820,3.525 2.125,3.343 2.065 C 3.107 1.987,2.874 1.986,2.670 2.061 M16.560 8.026 C 15.609 8.169,14.852 8.522,14.225 9.115 C 13.915 9.409,13.568 9.899,13.497 10.144 C 13.320 10.754,13.799 11.400,14.428 11.400 C 14.761 11.400,14.920 11.325,15.180 11.048 C 15.743 10.447,15.841 10.360,16.120 10.220 C 16.886 9.834,17.784 9.984,18.400 10.600 C 18.695 10.895,18.857 11.192,18.942 11.593 C 19.014 11.932,19.013 12.118,18.940 12.430 C 18.819 12.941,18.523 13.372,18.080 13.683 C 17.817 13.868,17.669 14.065,17.599 14.324 C 17.462 14.834,17.817 15.402,18.350 15.525 C 18.653 15.595,18.874 15.543,19.208 15.324 C 20.898 14.215,21.477 12.022,20.563 10.195 C 20.098 9.267,19.242 8.532,18.239 8.203 C 17.754 8.043,16.984 7.962,16.560 8.026 M7.523 10.073 C 8.262 10.266,8.850 10.924,8.967 11.690 C 9.067 12.343,8.873 12.933,8.403 13.404 C 8.002 13.807,7.547 14.000,7.000 14.000 C 6.485 14.000,6.038 13.822,5.653 13.465 C 4.323 12.229,5.189 10.005,7.000 10.005 C 7.143 10.005,7.378 10.036,7.523 10.073 M11.800 13.220 L 12.579 14.000 11.526 14.000 C 10.947 14.000,10.480 13.987,10.488 13.970 C 10.702 13.544,10.867 13.075,10.928 12.721 C 10.955 12.566,10.986 12.440,10.999 12.440 C 11.011 12.440,11.371 12.791,11.800 13.220 " stroke="none" fill-rule="evenodd" fill="black"></path></svg>