<svg xmlns="http://www.w3.org/2000/svg" width="24" height="24" viewBox="0 0 24 24" fill="none" stroke="currentColor" stroke-width="2" stroke-linecap="round" stroke-linejoin="round"><path d="M14.541 4.042 C 14.410 4.062,14.212 4.109,14.101 4.145 C 13.815 4.239,3.549 9.377,3.282 9.560 C 2.650 9.992,2.209 10.673,2.044 11.472 C 1.983 11.766,1.983 17.234,2.044 17.528 C 2.204 18.302,2.672 19.036,3.260 19.439 C 3.575 19.654,7.781 21.753,8.120 21.864 C 8.422 21.963,8.520 21.975,9.000 21.976 C 9.505 21.977,9.564 21.969,9.910 21.849 C 10.366 21.692,12.551 20.601,12.736 20.438 C 13.058 20.156,13.149 19.646,12.947 19.252 C 12.771 18.908,12.453 18.720,12.044 18.720 C 11.822 18.720,11.749 18.748,10.922 19.160 C 10.435 19.402,10.029 19.600,10.019 19.600 C 10.008 19.600,10.000 18.370,10.000 16.867 L 10.000 14.133 14.966 11.757 C 17.697 10.449,19.947 9.374,19.966 9.367 C 19.985 9.359,20.000 10.106,20.000 11.027 L 20.001 12.700 20.095 12.900 C 20.276 13.282,20.595 13.488,21.003 13.488 C 21.292 13.488,21.536 13.381,21.724 13.173 C 22.011 12.855,22.006 12.906,21.991 10.559 C 21.978 8.480,21.977 8.457,21.885 8.180 C 21.788 7.893,21.586 7.471,21.444 7.262 C 21.310 7.065,20.953 6.719,20.716 6.558 C 20.361 6.316,16.013 4.167,15.743 4.100 C 15.434 4.023,14.844 3.995,14.541 4.042 M16.988 6.886 C 17.917 7.356,18.664 7.752,18.648 7.767 C 18.633 7.782,16.454 8.830,13.806 10.096 L 8.992 12.398 7.175 11.572 C 6.175 11.118,5.372 10.734,5.389 10.718 C 5.455 10.658,14.540 6.105,14.696 6.054 C 15.076 5.930,15.155 5.959,16.988 6.886 M7.999 16.870 C 7.999 18.372,7.991 19.600,7.980 19.600 C 7.969 19.600,7.169 19.205,6.202 18.721 C 4.375 17.807,4.237 17.722,4.090 17.409 C 4.026 17.273,4.019 17.044,4.009 14.794 L 3.997 12.327 5.997 13.234 L 7.998 14.140 7.999 16.870 M18.695 15.057 C 18.466 15.129,18.256 15.299,18.128 15.516 L 18.020 15.700 18.008 16.850 L 17.995 18.000 16.944 18.000 C 15.797 18.000,15.643 18.022,15.382 18.221 C 15.302 18.282,15.187 18.415,15.128 18.516 C 15.037 18.672,15.020 18.746,15.020 19.000 C 15.020 19.256,15.036 19.328,15.131 19.489 C 15.192 19.592,15.304 19.725,15.381 19.783 C 15.642 19.983,15.738 19.996,16.908 19.998 L 17.995 20.000 18.008 21.153 L 18.020 22.307 18.141 22.503 C 18.543 23.156,19.457 23.156,19.859 22.503 L 19.980 22.307 19.992 21.153 L 20.005 20.000 21.092 19.998 C 22.262 19.996,22.358 19.983,22.619 19.783 C 22.696 19.725,22.808 19.592,22.869 19.489 C 22.964 19.328,22.980 19.256,22.980 19.000 C 22.980 18.746,22.963 18.672,22.872 18.516 C 22.813 18.415,22.698 18.282,22.618 18.221 C 22.357 18.022,22.203 18.000,21.056 18.000 L 20.005 18.000 19.992 16.850 L 19.980 15.700 19.872 15.516 C 19.628 15.101,19.150 14.915,18.695 15.057 " stroke="none" fill-rule="evenodd" fill="black"></path></svg>