<svg xmlns="http://www.w3.org/2000/svg" width="24" height="24" viewBox="0 0 24 24" fill="none" stroke="currentColor" stroke-width="2" stroke-linecap="round" stroke-linejoin="round"><path d="M2.670 2.061 C 2.448 2.142,2.250 2.309,2.128 2.516 C 2.036 2.672,2.020 2.745,2.021 3.000 C 2.021 3.212,2.043 3.341,2.095 3.440 C 2.135 3.517,3.079 4.493,4.192 5.609 C 5.305 6.724,6.208 7.645,6.198 7.654 C 6.188 7.664,5.928 7.737,5.620 7.818 C 4.531 8.102,4.375 8.184,4.184 8.568 C 3.918 9.101,4.186 9.745,4.755 9.939 C 4.983 10.017,5.171 10.016,5.436 9.938 C 5.551 9.903,5.659 9.881,5.676 9.888 C 5.693 9.894,4.963 11.187,4.054 12.760 C 3.145 14.333,2.358 15.729,2.304 15.863 C 2.091 16.392,2.033 16.950,2.136 17.486 C 2.325 18.466,2.902 19.232,3.774 19.660 C 4.253 19.895,4.583 19.957,5.375 19.962 C 5.755 19.964,6.128 19.955,6.203 19.940 C 6.534 19.877,6.848 19.536,6.928 19.152 C 6.969 18.955,6.966 18.892,6.905 18.699 C 6.820 18.429,6.622 18.197,6.376 18.078 C 6.222 18.004,6.098 17.988,5.489 17.964 C 4.872 17.940,4.759 17.925,4.614 17.849 C 4.389 17.732,4.211 17.505,4.133 17.240 C 4.013 16.833,3.995 16.871,5.807 13.732 L 7.455 10.876 7.559 11.198 C 7.733 11.732,8.041 11.978,8.540 11.978 C 8.868 11.978,9.074 11.888,9.276 11.658 C 9.428 11.485,9.484 11.362,9.516 11.130 L 9.540 10.959 13.060 14.480 L 16.580 18.000 14.504 18.000 L 12.428 18.000 12.629 17.788 C 12.924 17.476,12.978 17.354,12.979 17.000 C 12.980 16.745,12.964 16.672,12.872 16.516 C 12.618 16.084,12.136 15.905,11.657 16.066 C 11.485 16.124,11.320 16.271,10.347 17.236 C 9.734 17.843,9.185 18.421,9.127 18.520 C 9.036 18.672,9.020 18.746,9.021 19.000 C 9.021 19.213,9.043 19.341,9.095 19.440 C 9.194 19.627,11.294 21.739,11.508 21.866 C 11.968 22.138,12.587 21.968,12.867 21.492 C 12.964 21.327,12.980 21.258,12.979 21.000 C 12.978 20.646,12.924 20.524,12.629 20.212 L 12.428 20.000 15.505 20.000 L 18.581 20.000 19.460 20.883 C 19.944 21.368,20.421 21.814,20.520 21.873 C 20.672 21.964,20.746 21.980,21.000 21.980 C 21.257 21.980,21.327 21.964,21.492 21.867 C 21.968 21.587,22.139 20.967,21.865 20.508 C 21.810 20.416,17.665 16.243,12.653 11.235 C 4.231 2.820,3.525 2.125,3.343 2.065 C 3.107 1.987,2.874 1.986,2.670 2.061 M11.380 2.099 C 10.832 2.219,10.281 2.529,9.885 2.939 C 9.546 3.289,8.898 4.351,8.858 4.622 C 8.745 5.375,9.548 5.989,10.247 5.684 C 10.489 5.579,10.629 5.417,10.991 4.820 C 11.258 4.380,11.336 4.281,11.500 4.180 C 11.674 4.072,11.727 4.060,12.017 4.061 C 12.370 4.062,12.506 4.112,12.707 4.313 C 12.831 4.437,16.101 10.072,16.068 10.105 C 16.058 10.116,15.941 10.096,15.809 10.062 C 15.511 9.985,15.426 9.985,15.176 10.059 C 14.923 10.134,14.674 10.346,14.565 10.578 C 14.463 10.795,14.452 11.162,14.540 11.374 C 14.621 11.567,14.821 11.789,14.996 11.878 C 15.237 12.000,17.996 12.720,18.220 12.719 C 18.571 12.718,18.927 12.497,19.075 12.189 C 19.204 11.919,19.920 9.194,19.920 8.971 C 19.920 8.723,19.766 8.404,19.568 8.240 C 19.103 7.857,18.400 7.971,18.092 8.479 C 18.021 8.596,17.942 8.788,17.915 8.907 C 17.888 9.026,17.854 9.109,17.837 9.091 C 17.821 9.074,17.103 7.836,16.241 6.340 C 15.379 4.844,14.592 3.498,14.492 3.349 C 14.082 2.737,13.325 2.230,12.626 2.099 C 12.247 2.028,11.706 2.028,11.380 2.099 M19.947 14.296 C 19.478 14.426,19.220 14.767,19.220 15.259 C 19.220 15.534,19.227 15.552,19.531 16.112 C 19.774 16.558,19.854 16.748,19.899 16.979 C 19.965 17.324,20.029 17.463,20.208 17.642 C 20.576 18.010,21.194 18.013,21.575 17.648 C 21.802 17.431,21.878 17.237,21.879 16.876 C 21.880 16.402,21.763 16.023,21.414 15.381 C 21.008 14.633,20.923 14.516,20.694 14.392 C 20.450 14.260,20.196 14.227,19.947 14.296 " stroke="none" fill-rule="evenodd" fill="black"></path></svg>