<svg xmlns="http://www.w3.org/2000/svg" width="24" height="24" viewBox="0 0 24 24" fill="none" stroke="currentColor" stroke-width="2" stroke-linecap="round" stroke-linejoin="round"><path d="M2.670 2.061 C 2.448 2.142,2.250 2.309,2.128 2.516 C 2.037 2.672,2.020 2.746,2.020 3.000 C 2.020 3.392,2.100 3.526,2.671 4.093 L 3.108 4.527 3.056 4.673 C 2.979 4.889,2.980 9.114,3.057 9.330 C 3.136 9.551,3.298 9.744,3.511 9.869 L 3.700 9.980 5.926 9.991 C 7.738 10.000,8.181 9.992,8.312 9.947 L 8.472 9.892 12.341 13.761 L 16.209 17.629 15.895 17.838 C 14.655 18.659,12.987 19.089,11.517 18.965 C 9.273 18.777,7.350 17.654,6.118 15.812 C 5.582 15.011,5.254 14.199,5.052 13.179 C 4.924 12.531,4.821 12.337,4.503 12.141 C 4.329 12.034,4.272 12.020,4.002 12.021 C 3.743 12.022,3.670 12.039,3.510 12.132 C 3.157 12.339,2.978 12.689,3.014 13.103 C 3.081 13.870,3.456 15.117,3.859 15.918 C 5.132 18.445,7.432 20.215,10.200 20.797 C 10.878 20.939,11.245 20.974,12.080 20.973 C 13.016 20.971,13.660 20.880,14.551 20.623 C 15.607 20.318,16.770 19.741,17.463 19.178 L 17.626 19.046 18.983 20.406 C 19.729 21.153,20.421 21.814,20.520 21.873 C 20.673 21.964,20.746 21.980,21.000 21.980 C 21.257 21.980,21.327 21.964,21.492 21.867 C 21.968 21.587,22.139 20.967,21.865 20.508 C 21.810 20.416,17.665 16.243,12.653 11.235 C 4.231 2.820,3.525 2.125,3.343 2.065 C 3.107 1.987,2.874 1.986,2.670 2.061 M11.420 3.046 C 10.500 3.092,9.584 3.289,8.708 3.629 C 8.134 3.853,7.924 4.018,7.802 4.343 C 7.704 4.605,7.700 4.719,7.779 4.984 C 7.901 5.395,8.298 5.686,8.736 5.686 C 8.885 5.686,9.058 5.640,9.342 5.527 C 10.866 4.921,12.597 4.864,14.175 5.367 C 14.702 5.534,15.645 6.011,16.100 6.339 C 17.573 7.400,18.627 9.041,18.940 10.760 C 18.978 10.969,19.025 11.205,19.044 11.284 C 19.096 11.495,19.290 11.739,19.508 11.867 C 19.673 11.964,19.743 11.980,20.000 11.980 C 20.256 11.980,20.328 11.964,20.489 11.869 C 20.850 11.657,21.022 11.312,20.983 10.880 C 20.906 10.037,20.502 8.763,20.030 7.880 C 18.990 5.932,17.338 4.457,15.291 3.645 C 14.092 3.170,12.834 2.975,11.420 3.046 M6.480 7.900 L 6.574 8.000 6.386 8.000 L 6.198 8.000 6.264 7.900 C 6.300 7.845,6.342 7.800,6.358 7.800 C 6.373 7.800,6.428 7.845,6.480 7.900 M18.695 14.057 C 18.466 14.129,18.256 14.299,18.128 14.516 C 18.036 14.672,18.020 14.746,18.020 15.003 C 18.020 15.271,18.034 15.329,18.141 15.503 C 18.287 15.740,18.577 15.946,18.817 15.982 C 18.988 16.007,18.993 16.012,19.018 16.183 C 19.054 16.423,19.260 16.713,19.497 16.859 C 19.671 16.966,19.729 16.980,19.997 16.980 C 20.257 16.980,20.327 16.964,20.492 16.867 C 20.713 16.737,20.901 16.498,20.963 16.268 C 20.989 16.172,21.001 15.825,20.993 15.404 C 20.980 14.723,20.977 14.694,20.872 14.516 C 20.740 14.293,20.533 14.128,20.290 14.055 C 20.050 13.983,18.928 13.984,18.695 14.057 " stroke="none" fill-rule="evenodd" fill="black"></path></svg>