<svg xmlns="http://www.w3.org/2000/svg" width="24" height="24" viewBox="0 0 24 24" fill="none" stroke="currentColor" stroke-width="2" stroke-linecap="round" stroke-linejoin="round"><path d="M16.600 3.584 C 16.419 3.662,16.216 3.858,16.106 4.060 C 16.027 4.208,16.018 4.293,16.000 5.189 L 15.980 6.158 15.340 5.794 C 14.409 5.266,14.261 5.200,13.997 5.200 C 13.418 5.200,12.947 5.722,13.014 6.290 C 13.068 6.746,13.233 6.909,14.175 7.437 C 14.585 7.667,14.920 7.865,14.920 7.878 C 14.920 7.890,14.583 8.090,14.170 8.320 C 13.758 8.551,13.355 8.805,13.275 8.885 C 12.982 9.177,12.922 9.692,13.138 10.061 C 13.386 10.484,13.932 10.673,14.367 10.485 C 14.462 10.444,14.864 10.228,15.260 10.005 L 15.980 9.599 16.000 10.570 C 16.018 11.466,16.027 11.552,16.106 11.700 C 16.288 12.036,16.623 12.238,17.000 12.238 C 17.377 12.238,17.712 12.036,17.894 11.700 C 17.973 11.552,17.982 11.466,18.000 10.570 L 18.020 9.599 18.740 10.005 C 19.136 10.228,19.538 10.444,19.633 10.485 C 20.068 10.673,20.614 10.484,20.862 10.061 C 21.078 9.692,21.018 9.177,20.725 8.885 C 20.645 8.805,20.242 8.551,19.830 8.320 C 19.417 8.090,19.080 7.890,19.080 7.878 C 19.080 7.865,19.415 7.667,19.825 7.437 C 20.767 6.909,20.932 6.746,20.986 6.290 C 21.053 5.722,20.582 5.200,20.003 5.200 C 19.739 5.200,19.591 5.266,18.660 5.794 L 18.020 6.158 18.000 5.189 C 17.982 4.293,17.973 4.208,17.894 4.060 C 17.782 3.853,17.579 3.660,17.391 3.582 C 17.203 3.503,16.783 3.504,16.600 3.584 M5.873 14.060 C 5.136 14.200,4.468 14.565,3.958 15.105 C 3.559 15.527,3.314 15.957,3.133 16.548 C 3.038 16.863,3.026 16.963,3.026 17.500 C 3.026 18.037,3.038 18.137,3.133 18.452 C 3.725 20.393,5.674 21.429,7.588 20.821 C 8.604 20.498,9.497 19.606,9.820 18.591 C 9.943 18.205,9.999 17.860,9.999 17.500 C 9.999 15.928,8.904 14.515,7.378 14.118 C 6.959 14.009,6.280 13.983,5.873 14.060 M7.119 16.143 C 7.417 16.279,7.727 16.592,7.865 16.896 C 7.960 17.105,7.976 17.192,7.976 17.500 C 7.976 17.808,7.960 17.895,7.865 18.104 C 7.725 18.413,7.417 18.720,7.100 18.868 C 6.893 18.965,6.810 18.980,6.500 18.980 C 6.190 18.980,6.107 18.965,5.900 18.868 C 5.583 18.720,5.275 18.413,5.135 18.104 C 5.040 17.896,5.024 17.808,5.024 17.500 C 5.023 17.191,5.039 17.106,5.134 16.900 C 5.327 16.478,5.749 16.129,6.174 16.039 C 6.441 15.982,6.870 16.030,7.119 16.143 " stroke="none" fill-rule="evenodd" fill="black"></path></svg>