<svg xmlns="http://www.w3.org/2000/svg" width="24" height="24" viewBox="0 0 24 24" fill="none" stroke="currentColor" stroke-width="2" stroke-linecap="round" stroke-linejoin="round"><path d="M11.080 2.045 C 9.507 2.184,7.883 2.751,6.540 3.630 C 5.905 4.045,5.499 4.378,4.919 4.958 C 2.953 6.926,1.919 9.544,2.013 12.320 C 2.084 14.439,2.752 16.328,4.033 18.040 C 4.430 18.570,5.305 19.464,5.800 19.847 C 7.242 20.961,8.787 21.624,10.600 21.907 C 11.247 22.008,12.753 22.008,13.400 21.907 C 15.638 21.557,17.504 20.620,19.062 19.062 C 20.620 17.504,21.557 15.638,21.907 13.400 C 22.008 12.753,22.008 11.247,21.907 10.600 C 21.624 8.786,20.959 7.238,19.847 5.800 C 19.510 5.365,18.639 4.494,18.200 4.154 C 16.133 2.555,13.646 1.818,11.080 2.045 M12.734 4.041 C 14.574 4.216,16.228 4.976,17.554 6.256 C 20.043 8.658,20.702 12.394,19.183 15.499 C 18.749 16.387,18.223 17.105,17.496 17.801 C 16.876 18.394,16.262 18.819,15.471 19.200 C 13.267 20.265,10.733 20.265,8.529 19.200 C 7.477 18.693,6.612 18.015,5.847 17.100 C 3.848 14.711,3.440 11.302,4.816 8.500 C 6.162 5.760,8.867 4.049,11.920 4.005 C 12.129 4.003,12.495 4.019,12.734 4.041 M9.695 8.055 C 9.464 8.130,9.255 8.300,9.128 8.516 L 9.020 8.700 9.020 12.003 L 9.020 15.306 9.141 15.503 C 9.543 16.156,10.457 16.156,10.859 15.503 C 10.979 15.308,10.980 15.300,10.993 14.653 L 11.007 14.000 11.294 14.000 L 11.581 14.000 12.460 14.883 C 12.944 15.368,13.421 15.814,13.520 15.873 C 13.672 15.964,13.746 15.980,14.000 15.980 C 14.257 15.980,14.327 15.964,14.492 15.867 C 14.714 15.737,14.901 15.498,14.965 15.264 C 15.019 15.060,14.989 14.732,14.898 14.555 C 14.861 14.481,14.603 14.190,14.326 13.909 L 13.822 13.398 14.032 13.197 C 14.474 12.773,14.712 12.394,14.886 11.839 C 15.021 11.407,15.021 10.594,14.886 10.160 C 14.581 9.182,13.825 8.421,12.861 8.124 C 12.551 8.028,12.495 8.025,11.200 8.014 C 10.166 8.005,9.822 8.014,9.695 8.055 M12.310 10.061 C 12.688 10.173,13.000 10.598,13.000 11.001 C 13.000 11.331,12.784 11.696,12.484 11.872 C 12.308 11.975,12.272 11.981,11.650 11.993 L 11.000 12.007 11.000 11.003 L 11.000 10.000 11.553 10.000 C 11.931 10.000,12.170 10.019,12.310 10.061 " stroke="none" fill-rule="evenodd" fill="black"></path></svg>