<svg xmlns="http://www.w3.org/2000/svg" width="24" height="24" viewBox="0 0 24 24" fill="none" stroke="currentColor" stroke-width="2" stroke-linecap="round" stroke-linejoin="round"><path d="M4.499 4.043 C 3.380 4.232,2.461 5.048,2.114 6.160 L 2.020 6.460 2.020 12.000 L 2.020 17.540 2.114 17.840 C 2.422 18.827,3.173 19.578,4.160 19.886 L 4.460 19.980 12.000 19.980 L 19.540 19.980 19.840 19.886 C 20.827 19.578,21.578 18.827,21.886 17.840 L 21.980 17.540 21.980 12.000 L 21.980 6.460 21.886 6.160 C 21.581 5.182,20.832 4.428,19.861 4.121 L 19.540 4.020 12.120 4.014 C 8.039 4.011,4.609 4.024,4.499 4.043 M19.310 6.061 C 19.589 6.144,19.856 6.411,19.939 6.690 C 19.992 6.868,20.000 7.546,20.000 12.001 C 20.000 16.212,19.990 17.139,19.945 17.290 C 19.872 17.533,19.707 17.740,19.484 17.872 L 19.300 17.980 12.000 17.980 L 4.700 17.980 4.516 17.872 C 4.303 17.747,4.141 17.550,4.058 17.316 C 3.969 17.061,3.971 6.993,4.061 6.690 C 4.140 6.421,4.412 6.143,4.673 6.063 C 4.964 5.974,19.009 5.971,19.310 6.061 M5.695 9.057 C 5.466 9.129,5.256 9.299,5.128 9.516 L 5.020 9.700 5.020 12.003 L 5.020 14.306 5.141 14.503 C 5.543 15.156,6.457 15.156,6.859 14.503 C 6.977 14.311,6.980 14.293,7.000 13.666 L 7.020 13.026 7.668 13.890 C 8.439 14.918,8.515 14.980,9.000 14.980 C 9.257 14.980,9.327 14.964,9.492 14.867 C 9.716 14.735,9.889 14.513,9.956 14.272 C 9.991 14.146,10.001 13.510,9.992 11.900 L 9.980 9.700 9.871 9.514 C 9.479 8.848,8.521 8.848,8.129 9.514 C 8.026 9.690,8.019 9.733,8.000 10.338 L 7.980 10.975 7.349 10.132 C 6.704 9.271,6.561 9.128,6.256 9.044 C 6.057 8.988,5.902 8.992,5.695 9.057 M14.695 9.057 C 14.466 9.129,14.256 9.299,14.128 9.516 L 14.020 9.700 14.020 12.003 L 14.020 14.306 14.141 14.503 C 14.543 15.156,15.457 15.156,15.859 14.503 C 15.977 14.311,15.980 14.293,16.000 13.666 L 16.020 13.026 16.668 13.890 C 17.439 14.918,17.515 14.980,18.000 14.980 C 18.257 14.980,18.327 14.964,18.492 14.867 C 18.716 14.735,18.889 14.513,18.956 14.272 C 18.991 14.146,19.001 13.510,18.992 11.900 L 18.980 9.700 18.871 9.514 C 18.479 8.848,17.521 8.848,17.129 9.514 C 17.026 9.690,17.019 9.733,17.000 10.338 L 16.980 10.975 16.349 10.132 C 15.704 9.271,15.561 9.128,15.256 9.044 C 15.057 8.988,14.902 8.992,14.695 9.057 M11.600 9.584 C 11.399 9.671,11.205 9.869,11.095 10.100 C 10.867 10.583,11.074 11.146,11.577 11.412 C 11.802 11.530,12.198 11.530,12.423 11.412 C 12.926 11.146,13.133 10.583,12.905 10.100 C 12.793 9.865,12.599 9.669,12.391 9.582 C 12.203 9.503,11.783 9.504,11.600 9.584 M11.600 12.584 C 11.399 12.671,11.205 12.869,11.095 13.100 C 10.867 13.583,11.074 14.146,11.577 14.412 C 11.802 14.530,12.198 14.530,12.423 14.412 C 12.926 14.146,13.133 13.583,12.905 13.100 C 12.793 12.865,12.599 12.669,12.391 12.582 C 12.203 12.503,11.783 12.504,11.600 12.584 " stroke="none" fill-rule="evenodd" fill="black"></path></svg>