<svg xmlns="http://www.w3.org/2000/svg" width="24" height="24" viewBox="0 0 24 24" fill="none" stroke="currentColor" stroke-width="2" stroke-linecap="round" stroke-linejoin="round"><path d="M7.358 4.061 C 5.727 4.315,4.418 5.584,4.081 7.235 C 4.002 7.624,3.998 7.750,4.008 9.477 L 4.020 11.306 4.141 11.503 C 4.543 12.156,5.457 12.156,5.859 11.503 L 5.980 11.306 6.002 9.443 C 6.026 7.363,6.024 7.379,6.314 6.937 C 6.508 6.642,6.712 6.446,7.014 6.265 C 7.468 5.992,7.324 6.000,12.028 6.002 C 15.895 6.004,16.283 6.011,16.523 6.073 C 16.866 6.163,17.198 6.366,17.454 6.642 C 17.849 7.068,17.998 7.493,17.999 8.198 L 18.000 8.576 17.548 8.129 C 17.032 7.620,16.862 7.522,16.498 7.521 C 15.864 7.519,15.398 8.086,15.528 8.702 C 15.551 8.811,15.606 8.954,15.651 9.020 C 15.695 9.086,16.327 9.740,17.056 10.474 C 18.507 11.936,18.588 11.999,19.000 11.999 C 19.412 11.999,19.493 11.936,20.944 10.474 C 21.673 9.740,22.306 9.085,22.351 9.019 C 22.468 8.846,22.514 8.545,22.462 8.291 C 22.369 7.831,21.980 7.519,21.502 7.521 C 21.138 7.522,20.968 7.620,20.452 8.129 L 20.000 8.576 20.000 8.104 C 20.000 6.291,18.934 4.782,17.245 4.204 C 16.665 4.005,16.529 4.000,11.960 4.004 C 8.625 4.007,7.626 4.019,7.358 4.061 M3.477 14.073 C 2.806 14.249,2.238 14.823,2.060 15.508 C 2.013 15.687,2.000 16.009,2.000 17.000 C 2.000 18.368,2.018 18.521,2.225 18.930 C 2.361 19.199,2.801 19.639,3.070 19.775 C 3.479 19.982,3.632 20.000,5.000 20.000 C 6.368 20.000,6.521 19.982,6.930 19.775 C 7.196 19.640,7.638 19.200,7.771 18.937 C 7.979 18.527,8.000 18.352,7.999 17.014 C 7.999 15.682,7.974 15.463,7.781 15.083 C 7.551 14.628,7.022 14.203,6.523 14.073 C 6.134 13.972,3.866 13.972,3.477 14.073 M10.477 14.073 C 9.806 14.249,9.238 14.823,9.060 15.508 C 9.013 15.687,9.000 16.009,9.000 17.000 C 9.000 18.368,9.018 18.521,9.225 18.930 C 9.361 19.199,9.801 19.639,10.070 19.775 C 10.479 19.982,10.632 20.000,12.000 20.000 C 13.368 20.000,13.521 19.982,13.930 19.775 C 14.196 19.640,14.638 19.200,14.771 18.937 C 14.979 18.527,15.000 18.352,14.999 17.014 C 14.999 15.682,14.974 15.463,14.781 15.083 C 14.551 14.628,14.022 14.203,13.523 14.073 C 13.134 13.972,10.866 13.972,10.477 14.073 M17.477 14.073 C 16.806 14.249,16.238 14.823,16.060 15.508 C 16.013 15.687,16.000 16.009,16.000 17.000 C 16.000 18.368,16.018 18.521,16.225 18.930 C 16.361 19.199,16.801 19.639,17.070 19.775 C 17.479 19.982,17.632 20.000,19.000 20.000 C 20.368 20.000,20.521 19.982,20.930 19.775 C 21.196 19.640,21.638 19.200,21.771 18.937 C 21.979 18.527,22.000 18.352,21.999 17.014 C 21.999 15.682,21.974 15.463,21.781 15.083 C 21.551 14.628,21.022 14.203,20.523 14.073 C 20.134 13.972,17.866 13.972,17.477 14.073 M6.000 17.000 L 6.000 18.000 5.000 18.000 L 4.000 18.000 4.000 17.000 L 4.000 16.000 5.000 16.000 L 6.000 16.000 6.000 17.000 M13.000 17.000 L 13.000 18.000 12.000 18.000 L 11.000 18.000 11.000 17.000 L 11.000 16.000 12.000 16.000 L 13.000 16.000 13.000 17.000 M20.000 17.000 L 20.000 18.000 19.000 18.000 L 18.000 18.000 18.000 17.000 L 18.000 16.000 19.000 16.000 L 20.000 16.000 20.000 17.000 " stroke="none" fill-rule="evenodd" fill="black"></path></svg>