<svg xmlns="http://www.w3.org/2000/svg" width="24" height="24" viewBox="0 0 24 24" fill="none" stroke="currentColor" stroke-width="2" stroke-linecap="round" stroke-linejoin="round"><path d="M3.477 2.073 C 2.806 2.249,2.238 2.823,2.060 3.508 C 2.010 3.698,2.000 4.123,2.000 6.000 C 2.000 8.455,2.003 8.491,2.225 8.930 C 2.361 9.199,2.801 9.639,3.070 9.775 C 3.509 9.997,3.545 10.000,6.000 10.000 C 8.455 10.000,8.491 9.997,8.930 9.775 C 9.196 9.640,9.638 9.200,9.771 8.937 C 9.996 8.494,10.000 8.442,9.999 6.014 C 9.999 3.601,9.991 3.496,9.781 3.083 C 9.646 2.816,9.297 2.449,9.017 2.281 C 8.564 2.008,8.524 2.005,6.000 2.005 C 3.992 2.005,3.711 2.012,3.477 2.073 M15.640 2.069 C 15.488 2.121,15.208 2.381,13.847 3.735 C 12.960 4.618,12.186 5.421,12.127 5.520 C 12.037 5.672,12.020 5.746,12.020 6.000 C 12.020 6.254,12.036 6.328,12.127 6.480 C 12.261 6.704,15.371 9.807,15.555 9.899 C 16.009 10.128,16.601 9.944,16.867 9.492 C 16.964 9.327,16.980 9.258,16.979 9.000 C 16.979 8.787,16.957 8.660,16.904 8.560 C 16.864 8.483,16.514 8.101,16.127 7.710 L 15.423 7.000 17.264 7.000 C 19.355 7.000,19.391 7.004,19.679 7.283 C 19.986 7.582,19.978 7.523,20.000 9.523 L 20.020 11.306 20.141 11.503 C 20.543 12.156,21.457 12.156,21.859 11.503 L 21.980 11.306 21.980 9.383 C 21.980 7.478,21.979 7.457,21.886 7.160 C 21.581 6.181,20.828 5.424,19.861 5.123 L 19.540 5.023 17.484 5.009 L 15.428 4.995 16.129 4.288 C 16.515 3.898,16.864 3.517,16.904 3.440 C 16.957 3.340,16.979 3.213,16.979 3.000 C 16.980 2.745,16.964 2.672,16.872 2.516 C 16.617 2.083,16.121 1.902,15.640 2.069 M8.000 6.000 L 8.000 8.000 6.000 8.000 L 4.000 8.000 4.000 6.000 L 4.000 4.000 6.000 4.000 L 8.000 4.000 8.000 6.000 M2.695 12.057 C 2.466 12.129,2.256 12.299,2.128 12.516 L 2.020 12.700 2.020 14.620 C 2.020 16.521,2.021 16.543,2.114 16.840 C 2.419 17.816,3.154 18.558,4.140 18.885 C 4.416 18.976,4.450 18.978,6.496 18.991 L 8.572 19.005 7.871 19.712 C 7.485 20.102,7.139 20.481,7.101 20.555 C 6.872 21.008,7.056 21.601,7.508 21.867 C 7.673 21.964,7.743 21.980,8.000 21.980 C 8.254 21.980,8.328 21.964,8.480 21.873 C 8.704 21.739,11.804 18.632,11.905 18.440 C 11.957 18.341,11.979 18.212,11.979 18.000 C 11.980 17.746,11.964 17.673,11.873 17.520 C 11.814 17.421,11.040 16.618,10.153 15.736 C 8.714 14.305,8.519 14.124,8.343 14.066 C 7.863 13.906,7.382 14.084,7.128 14.516 C 7.036 14.672,7.020 14.745,7.021 15.000 C 7.021 15.213,7.043 15.340,7.096 15.440 C 7.136 15.517,7.487 15.900,7.875 16.291 L 8.580 17.003 6.640 16.991 L 4.700 16.980 4.516 16.872 C 4.328 16.761,4.158 16.572,4.070 16.373 C 4.034 16.291,4.015 15.778,4.000 14.480 L 3.980 12.700 3.872 12.516 C 3.628 12.101,3.150 11.915,2.695 12.057 M15.477 14.073 C 14.806 14.249,14.238 14.823,14.060 15.508 C 14.010 15.698,14.000 16.123,14.000 18.000 C 14.000 20.455,14.003 20.491,14.225 20.930 C 14.361 21.199,14.801 21.639,15.070 21.775 C 15.509 21.997,15.545 22.000,18.000 22.000 C 20.455 22.000,20.491 21.997,20.930 21.775 C 21.196 21.640,21.638 21.200,21.771 20.937 C 21.996 20.494,22.000 20.442,21.999 18.014 C 21.999 15.601,21.991 15.496,21.781 15.083 C 21.646 14.816,21.297 14.449,21.017 14.281 C 20.564 14.008,20.524 14.005,18.000 14.005 C 15.992 14.005,15.711 14.012,15.477 14.073 M20.000 18.000 L 20.000 20.000 18.000 20.000 L 16.000 20.000 16.000 18.000 L 16.000 16.000 18.000 16.000 L 20.000 16.000 20.000 18.000 " stroke="none" fill-rule="evenodd" fill="black"></path></svg>