<svg xmlns="http://www.w3.org/2000/svg" width="24" height="24" viewBox="0 0 24 24" fill="none" stroke="currentColor" stroke-width="2" stroke-linecap="round" stroke-linejoin="round"><path d="M10.499 2.042 C 9.560 2.206,8.740 2.816,8.314 3.666 L 8.151 3.991 7.306 4.010 C 6.558 4.026,6.423 4.040,6.139 4.125 C 5.180 4.416,4.420 5.180,4.114 6.160 L 4.020 6.460 4.020 13.000 L 4.020 19.540 4.114 19.840 C 4.422 20.827,5.173 21.578,6.160 21.886 L 6.460 21.980 12.000 21.980 L 17.540 21.980 17.840 21.886 C 18.827 21.578,19.578 20.827,19.886 19.840 L 19.980 19.540 19.980 13.000 L 19.980 6.460 19.886 6.160 C 19.580 5.180,18.820 4.416,17.861 4.125 C 17.577 4.040,17.442 4.026,16.694 4.010 L 15.849 3.991 15.686 3.666 C 15.322 2.939,14.643 2.365,13.861 2.124 C 13.548 2.027,13.504 2.024,12.120 2.015 C 11.339 2.010,10.609 2.022,10.499 2.042 M13.310 4.061 C 13.688 4.173,14.000 4.598,14.000 5.001 C 14.000 5.331,13.784 5.696,13.484 5.872 L 13.300 5.980 12.000 5.980 L 10.700 5.980 10.516 5.872 C 9.935 5.530,9.833 4.774,10.304 4.303 C 10.584 4.022,10.675 4.006,11.983 4.003 C 12.878 4.001,13.147 4.012,13.310 4.061 M8.312 6.330 C 8.682 7.068,9.354 7.635,10.160 7.886 C 10.453 7.978,10.497 7.980,12.000 7.980 C 13.503 7.980,13.547 7.978,13.840 7.886 C 14.646 7.635,15.318 7.068,15.688 6.330 L 15.853 6.000 16.479 6.000 C 17.256 6.000,17.439 6.046,17.697 6.303 C 18.023 6.629,18.000 6.126,18.000 13.001 C 18.000 18.059,17.991 19.139,17.945 19.290 C 17.872 19.533,17.707 19.740,17.484 19.872 L 17.300 19.980 12.000 19.980 L 6.700 19.980 6.516 19.872 C 6.415 19.813,6.284 19.700,6.225 19.623 C 5.987 19.311,6.000 19.701,6.000 13.022 C 6.000 6.123,5.977 6.629,6.304 6.303 C 6.560 6.046,6.721 6.006,7.503 6.003 L 8.147 6.000 8.312 6.330 M11.695 9.057 C 11.342 9.168,11.095 9.451,11.019 9.835 L 10.976 10.050 10.757 10.118 C 10.003 10.351,9.361 10.980,9.118 11.722 C 9.034 11.976,9.020 12.094,9.022 12.520 C 9.024 12.960,9.038 13.056,9.133 13.320 C 9.394 14.039,9.964 14.609,10.680 14.867 C 10.961 14.968,11.033 14.976,11.800 14.992 C 12.702 15.010,12.786 15.030,12.922 15.252 C 13.021 15.415,13.021 15.585,12.922 15.748 C 12.770 15.996,12.746 16.000,11.248 16.000 C 9.774 16.000,9.653 16.014,9.382 16.221 C 9.302 16.282,9.187 16.415,9.128 16.516 C 9.037 16.672,9.020 16.746,9.020 17.000 C 9.020 17.256,9.036 17.328,9.131 17.489 C 9.256 17.702,9.449 17.864,9.670 17.943 C 9.768 17.978,10.022 17.997,10.405 17.998 L 10.991 18.000 11.018 18.179 C 11.054 18.422,11.258 18.712,11.497 18.859 C 11.671 18.966,11.729 18.980,12.000 18.980 C 12.271 18.980,12.329 18.966,12.503 18.859 C 12.752 18.706,12.949 18.419,12.984 18.160 L 13.010 17.966 13.294 17.873 C 14.001 17.642,14.605 17.046,14.868 16.320 C 14.965 16.052,14.976 15.965,14.976 15.500 C 14.976 15.035,14.965 14.948,14.868 14.680 C 14.646 14.068,14.195 13.561,13.620 13.277 C 13.172 13.055,12.869 13.002,12.068 13.001 C 11.319 13.000,11.216 12.974,11.078 12.748 C 10.932 12.508,11.023 12.193,11.276 12.062 C 11.377 12.010,11.612 12.000,12.788 11.998 C 14.285 11.996,14.350 11.989,14.619 11.783 C 14.696 11.725,14.808 11.592,14.869 11.489 C 14.964 11.328,14.980 11.256,14.980 11.000 C 14.980 10.746,14.963 10.672,14.872 10.516 C 14.634 10.111,14.351 10.000,13.559 10.000 L 13.010 10.000 12.983 9.830 C 12.926 9.473,12.648 9.163,12.290 9.055 C 12.068 8.988,11.913 8.989,11.695 9.057 " stroke="none" fill-rule="evenodd" fill="black"></path></svg>