<svg xmlns="http://www.w3.org/2000/svg" width="24" height="24" viewBox="0 0 24 24" fill="none" stroke="currentColor" stroke-width="2" stroke-linecap="round" stroke-linejoin="round"><path d="M9.499 2.042 C 8.560 2.206,7.740 2.816,7.314 3.666 L 7.151 3.991 6.306 4.010 C 5.558 4.026,5.423 4.040,5.139 4.125 C 4.180 4.416,3.420 5.180,3.114 6.160 L 3.020 6.460 3.020 13.000 L 3.020 19.540 3.114 19.840 C 3.418 20.816,4.150 21.555,5.140 21.886 L 5.420 21.979 8.640 21.991 C 12.235 22.005,12.047 22.018,12.372 21.724 C 12.588 21.530,12.678 21.319,12.679 21.009 C 12.681 20.601,12.502 20.302,12.140 20.106 C 11.981 20.020,11.964 20.020,8.840 20.000 L 5.700 19.980 5.516 19.872 C 5.415 19.813,5.284 19.700,5.225 19.623 C 4.987 19.311,5.000 19.701,5.000 13.022 C 5.000 6.123,4.977 6.629,5.303 6.303 C 5.561 6.046,5.744 6.000,6.521 6.000 L 7.147 6.000 7.312 6.330 C 7.682 7.068,8.354 7.635,9.160 7.886 C 9.453 7.978,9.497 7.980,11.000 7.980 C 12.503 7.980,12.547 7.978,12.840 7.886 C 13.646 7.635,14.318 7.068,14.688 6.330 L 14.853 6.000 15.479 6.000 C 16.237 6.000,16.435 6.047,16.679 6.283 C 16.992 6.587,16.978 6.464,17.000 9.023 L 17.020 11.306 17.141 11.503 C 17.543 12.156,18.457 12.156,18.859 11.503 L 18.980 11.306 18.980 8.883 L 18.980 6.460 18.886 6.160 C 18.580 5.180,17.820 4.416,16.861 4.125 C 16.577 4.040,16.442 4.026,15.694 4.010 L 14.849 3.991 14.686 3.666 C 14.322 2.939,13.643 2.365,12.861 2.124 C 12.548 2.027,12.504 2.024,11.120 2.015 C 10.339 2.010,9.609 2.022,9.499 2.042 M12.310 4.061 C 12.688 4.173,13.000 4.598,13.000 5.001 C 13.000 5.331,12.784 5.696,12.484 5.872 L 12.300 5.980 11.000 5.980 L 9.700 5.980 9.516 5.872 C 8.935 5.530,8.833 4.774,9.304 4.303 C 9.584 4.022,9.675 4.006,10.983 4.003 C 11.878 4.001,12.147 4.012,12.310 4.061 M7.695 10.057 C 7.466 10.129,7.256 10.299,7.128 10.516 C 7.037 10.672,7.020 10.746,7.020 11.000 C 7.020 11.256,7.036 11.328,7.131 11.489 C 7.256 11.702,7.449 11.864,7.670 11.943 C 7.889 12.021,12.111 12.021,12.330 11.943 C 12.551 11.864,12.744 11.702,12.869 11.489 C 12.964 11.328,12.980 11.256,12.980 11.000 C 12.980 10.746,12.963 10.672,12.872 10.516 C 12.740 10.293,12.533 10.128,12.290 10.055 C 12.033 9.978,7.943 9.979,7.695 10.057 M17.400 13.044 C 15.761 13.229,14.261 14.290,13.526 15.785 C 13.158 16.533,13.020 17.136,13.020 18.000 C 13.020 18.670,13.078 19.044,13.268 19.600 C 13.846 21.291,15.253 22.525,17.040 22.907 C 17.511 23.008,18.489 23.008,18.960 22.907 C 20.488 22.580,21.748 21.630,22.433 20.288 C 22.838 19.494,22.980 18.899,22.980 18.000 C 22.980 17.101,22.838 16.506,22.433 15.713 C 21.794 14.461,20.604 13.510,19.240 13.162 C 18.669 13.016,18.019 12.974,17.400 13.044 M7.695 14.057 C 7.466 14.129,7.256 14.299,7.128 14.516 C 7.037 14.672,7.020 14.746,7.020 15.000 C 7.020 15.256,7.036 15.328,7.131 15.489 C 7.256 15.702,7.449 15.864,7.670 15.943 C 7.888 16.021,11.112 16.021,11.330 15.943 C 11.551 15.864,11.744 15.702,11.869 15.489 C 11.964 15.328,11.980 15.256,11.980 15.000 C 11.980 14.746,11.963 14.672,11.872 14.516 C 11.740 14.293,11.533 14.128,11.290 14.055 C 11.035 13.978,7.941 13.980,7.695 14.057 M17.075 18.400 C 17.194 18.615,17.331 18.763,17.511 18.869 L 17.700 18.980 19.274 19.000 L 20.847 19.020 20.683 19.340 C 20.302 20.081,19.640 20.637,18.840 20.886 C 18.588 20.964,18.453 20.979,18.000 20.979 C 17.547 20.979,17.412 20.964,17.160 20.886 C 16.181 20.581,15.418 19.822,15.125 18.861 C 15.042 18.588,15.027 18.458,15.027 18.000 C 15.027 17.542,15.042 17.412,15.125 17.139 C 15.361 16.363,15.925 15.695,16.660 15.317 L 16.980 15.153 17.000 16.726 C 17.016 17.957,17.032 18.322,17.075 18.400 M19.460 15.380 C 20.022 15.695,20.586 16.332,20.797 16.890 L 20.838 17.000 19.919 17.000 L 19.000 17.000 19.000 16.081 L 19.000 15.162 19.110 15.203 C 19.171 15.226,19.328 15.306,19.460 15.380 " stroke="none" fill-rule="evenodd" fill="black"></path></svg>