<svg xmlns="http://www.w3.org/2000/svg" width="24" height="24" viewBox="0 0 24 24" fill="none" stroke="currentColor" stroke-width="2" stroke-linecap="round" stroke-linejoin="round"><path d="M9.499 2.042 C 8.560 2.206,7.740 2.816,7.314 3.666 L 7.151 3.991 6.306 4.010 C 5.558 4.026,5.423 4.040,5.139 4.125 C 4.180 4.416,3.420 5.180,3.114 6.160 L 3.020 6.460 3.020 13.000 L 3.020 19.540 3.114 19.840 C 3.418 20.816,4.150 21.555,5.140 21.886 L 5.420 21.979 8.640 21.991 C 12.235 22.005,12.047 22.018,12.372 21.724 C 12.588 21.530,12.678 21.319,12.679 21.009 C 12.681 20.601,12.502 20.302,12.140 20.106 C 11.981 20.020,11.964 20.020,8.840 20.000 L 5.700 19.980 5.516 19.872 C 5.415 19.813,5.284 19.700,5.225 19.623 C 4.987 19.311,5.000 19.701,5.000 13.022 C 5.000 6.123,4.977 6.629,5.303 6.303 C 5.561 6.046,5.744 6.000,6.521 6.000 L 7.147 6.000 7.312 6.330 C 7.682 7.068,8.354 7.635,9.160 7.886 C 9.453 7.978,9.497 7.980,11.000 7.980 C 12.503 7.980,12.547 7.978,12.840 7.886 C 13.646 7.635,14.318 7.068,14.688 6.330 L 14.853 6.000 15.479 6.000 C 16.237 6.000,16.435 6.047,16.679 6.283 C 16.996 6.591,16.978 6.404,17.000 9.523 L 17.020 12.306 17.141 12.503 C 17.543 13.156,18.457 13.156,18.859 12.503 L 18.980 12.306 18.980 9.383 L 18.980 6.460 18.886 6.160 C 18.580 5.180,17.820 4.416,16.861 4.125 C 16.577 4.040,16.442 4.026,15.694 4.010 L 14.849 3.991 14.686 3.666 C 14.322 2.939,13.643 2.365,12.861 2.124 C 12.548 2.027,12.504 2.024,11.120 2.015 C 10.339 2.010,9.609 2.022,9.499 2.042 M12.310 4.061 C 12.688 4.173,13.000 4.598,13.000 5.001 C 13.000 5.331,12.784 5.696,12.484 5.872 L 12.300 5.980 11.000 5.980 L 9.700 5.980 9.516 5.872 C 8.935 5.530,8.833 4.774,9.304 4.303 C 9.584 4.022,9.675 4.006,10.983 4.003 C 11.878 4.001,12.147 4.012,12.310 4.061 M7.695 10.057 C 7.466 10.129,7.256 10.299,7.128 10.516 C 7.037 10.672,7.020 10.746,7.020 11.000 C 7.020 11.256,7.036 11.328,7.131 11.489 C 7.256 11.702,7.449 11.864,7.670 11.943 C 7.889 12.021,12.111 12.021,12.330 11.943 C 12.551 11.864,12.744 11.702,12.869 11.489 C 12.964 11.328,12.980 11.256,12.980 11.000 C 12.980 10.746,12.963 10.672,12.872 10.516 C 12.740 10.293,12.533 10.128,12.290 10.055 C 12.033 9.978,7.943 9.979,7.695 10.057 M7.695 14.057 C 7.466 14.129,7.256 14.299,7.128 14.516 C 7.037 14.672,7.020 14.746,7.020 15.000 C 7.020 15.256,7.036 15.328,7.131 15.489 C 7.256 15.702,7.449 15.864,7.670 15.943 C 7.888 16.021,11.112 16.021,11.330 15.943 C 11.551 15.864,11.744 15.702,11.869 15.489 C 11.964 15.328,11.980 15.256,11.980 15.000 C 11.980 14.746,11.963 14.672,11.872 14.516 C 11.740 14.293,11.533 14.128,11.290 14.055 C 11.035 13.978,7.941 13.980,7.695 14.057 M15.873 14.060 C 15.136 14.200,14.468 14.565,13.958 15.105 C 13.559 15.527,13.314 15.957,13.133 16.548 C 13.038 16.863,13.026 16.963,13.026 17.500 C 13.026 18.037,13.038 18.137,13.133 18.452 C 13.501 19.656,14.345 20.501,15.548 20.866 C 15.857 20.960,15.971 20.973,16.480 20.976 C 17.108 20.979,17.431 20.916,17.932 20.691 L 18.165 20.587 19.292 21.709 C 19.913 22.326,20.481 22.862,20.555 22.899 C 21.009 23.128,21.601 22.944,21.867 22.492 C 21.964 22.327,21.980 22.258,21.979 22.000 C 21.979 21.787,21.957 21.659,21.905 21.560 C 21.864 21.483,21.326 20.913,20.709 20.292 L 19.587 19.165 19.691 18.932 C 20.354 17.449,19.903 15.699,18.602 14.712 C 18.268 14.459,17.784 14.224,17.378 14.118 C 16.959 14.009,16.280 13.983,15.873 14.060 M17.119 16.143 C 17.417 16.279,17.727 16.592,17.865 16.896 C 17.960 17.105,17.976 17.192,17.976 17.500 C 17.976 17.808,17.960 17.895,17.865 18.104 C 17.725 18.413,17.417 18.720,17.100 18.868 C 16.893 18.965,16.810 18.980,16.500 18.980 C 16.190 18.980,16.107 18.965,15.900 18.868 C 15.583 18.720,15.275 18.413,15.135 18.104 C 15.040 17.896,15.024 17.808,15.024 17.500 C 15.023 17.191,15.039 17.106,15.134 16.900 C 15.327 16.478,15.749 16.129,16.174 16.039 C 16.441 15.982,16.870 16.030,17.119 16.143 " stroke="none" fill-rule="evenodd" fill="black"></path></svg>