<svg xmlns="http://www.w3.org/2000/svg" width="24" height="24" viewBox="0 0 24 24" fill="none" stroke="currentColor" stroke-width="2" stroke-linecap="round" stroke-linejoin="round"><path d="M6.640 2.069 C 6.488 2.121,6.205 2.384,4.825 3.755 C 3.040 5.530,3.001 5.578,3.001 6.000 C 3.001 6.420,3.043 6.472,4.806 8.226 C 5.694 9.109,6.481 9.862,6.555 9.899 C 7.010 10.128,7.601 9.944,7.867 9.492 C 7.964 9.327,7.980 9.258,7.979 9.000 C 7.979 8.787,7.957 8.660,7.904 8.560 C 7.864 8.483,7.514 8.101,7.127 7.710 L 6.423 7.000 10.793 7.000 C 15.283 7.000,15.650 7.011,16.240 7.162 C 17.795 7.559,19.095 8.725,19.680 10.248 C 20.092 11.320,20.085 12.720,19.663 13.793 C 19.206 14.955,18.310 15.936,17.212 16.476 C 16.583 16.786,15.981 16.942,15.200 16.998 C 14.947 17.016,14.689 17.051,14.627 17.076 C 14.437 17.150,14.241 17.323,14.128 17.516 C 14.037 17.672,14.020 17.746,14.020 18.000 C 14.020 18.257,14.036 18.327,14.133 18.492 C 14.263 18.714,14.502 18.901,14.736 18.965 C 14.917 19.014,15.556 18.991,16.044 18.918 C 18.563 18.539,20.710 16.777,21.573 14.380 C 21.876 13.538,21.977 12.944,21.977 12.000 C 21.977 11.056,21.876 10.462,21.573 9.620 C 20.794 7.457,18.946 5.780,16.720 5.217 C 15.966 5.027,16.054 5.030,11.103 5.012 L 6.427 4.996 7.129 4.288 C 7.515 3.899,7.864 3.517,7.904 3.440 C 7.957 3.340,7.979 3.213,7.979 3.000 C 7.980 2.745,7.964 2.672,7.872 2.516 C 7.617 2.083,7.121 1.902,6.640 2.069 M7.695 13.057 C 7.466 13.129,7.256 13.299,7.128 13.516 L 7.020 13.700 7.008 15.410 C 7.001 16.502,7.012 17.175,7.038 17.274 C 7.099 17.498,7.289 17.738,7.508 17.867 L 7.700 17.980 8.850 17.992 L 10.000 18.005 10.000 18.502 L 10.000 19.000 8.946 19.000 C 7.797 19.000,7.644 19.022,7.382 19.221 C 7.302 19.282,7.187 19.415,7.128 19.516 C 7.037 19.672,7.020 19.746,7.020 20.000 C 7.020 20.256,7.036 20.328,7.131 20.489 C 7.256 20.702,7.449 20.864,7.670 20.943 C 7.898 21.024,10.178 21.022,10.492 20.940 C 10.852 20.847,11.118 20.690,11.404 20.404 C 11.895 19.913,12.000 19.579,11.999 18.514 C 11.999 17.459,11.903 17.124,11.465 16.653 C 10.998 16.150,10.590 16.006,9.630 16.002 L 9.000 16.000 9.000 15.500 L 9.000 15.000 10.090 14.998 C 11.262 14.996,11.357 14.983,11.619 14.783 C 11.696 14.725,11.808 14.592,11.869 14.489 C 11.964 14.328,11.980 14.256,11.980 14.000 C 11.980 13.746,11.963 13.672,11.872 13.516 C 11.740 13.293,11.533 13.128,11.290 13.055 C 11.035 12.978,7.941 12.980,7.695 13.057 " stroke="none" fill-rule="evenodd" fill="black"></path></svg>