<svg xmlns="http://www.w3.org/2000/svg" width="24" height="24" viewBox="0 0 24 24" fill="none" stroke="currentColor" stroke-width="2" stroke-linecap="round" stroke-linejoin="round"><path d="M6.640 2.069 C 6.488 2.121,6.205 2.384,4.825 3.755 C 3.040 5.530,3.001 5.578,3.001 6.000 C 3.001 6.420,3.043 6.472,4.806 8.226 C 5.694 9.109,6.481 9.862,6.555 9.899 C 7.010 10.128,7.601 9.944,7.867 9.492 C 7.964 9.327,7.980 9.258,7.979 9.000 C 7.979 8.787,7.957 8.660,7.904 8.560 C 7.864 8.483,7.513 8.100,7.125 7.709 L 6.420 6.997 11.060 7.011 C 15.151 7.024,15.733 7.033,15.980 7.090 C 16.959 7.315,17.763 7.739,18.452 8.395 C 19.182 9.089,19.687 10.008,19.907 11.040 C 20.007 11.513,20.006 12.490,19.905 12.958 C 19.800 13.439,19.659 13.845,19.452 14.260 C 19.211 14.743,18.980 15.061,18.514 15.547 C 18.177 15.899,18.115 15.985,18.057 16.183 C 17.943 16.575,18.046 16.931,18.352 17.208 C 18.641 17.469,19.099 17.535,19.434 17.363 C 19.929 17.110,20.844 15.990,21.270 15.118 C 21.608 14.424,21.866 13.539,21.963 12.745 C 22.056 11.983,21.973 10.970,21.752 10.160 C 21.045 7.572,18.933 5.632,16.260 5.111 C 15.829 5.027,15.728 5.025,11.123 5.011 L 6.426 4.997 7.128 4.288 C 7.515 3.899,7.864 3.517,7.904 3.440 C 7.957 3.340,7.979 3.213,7.979 3.000 C 7.980 2.745,7.964 2.672,7.872 2.516 C 7.617 2.083,7.121 1.902,6.640 2.069 M5.695 13.057 C 5.466 13.129,5.256 13.299,5.128 13.516 L 5.020 13.700 5.008 14.953 C 5.000 15.748,5.012 16.283,5.039 16.416 C 5.114 16.779,5.299 17.107,5.591 17.399 C 6.073 17.881,6.424 18.000,7.366 18.000 L 7.995 18.000 8.008 19.153 L 8.020 20.307 8.141 20.503 C 8.543 21.156,9.457 21.156,9.859 20.503 L 9.980 20.306 9.980 17.003 L 9.980 13.700 9.871 13.514 C 9.479 12.848,8.521 12.848,8.129 13.514 L 8.020 13.700 8.008 14.850 L 7.995 16.000 7.500 16.000 L 7.005 16.000 6.992 14.850 L 6.980 13.700 6.872 13.516 C 6.628 13.101,6.150 12.915,5.695 13.057 M12.960 13.062 C 12.605 13.138,12.107 13.393,11.832 13.639 C 11.532 13.907,11.239 14.352,11.118 14.722 L 11.020 15.020 11.020 17.020 L 11.020 19.020 11.131 19.320 C 11.399 20.044,11.964 20.608,12.680 20.868 C 12.948 20.965,13.035 20.976,13.500 20.976 C 13.965 20.976,14.052 20.965,14.320 20.868 C 15.036 20.608,15.601 20.044,15.869 19.320 L 15.980 19.020 15.980 17.000 L 15.980 14.980 15.869 14.680 C 15.430 13.486,14.192 12.798,12.960 13.062 M13.724 15.062 C 13.790 15.096,13.879 15.182,13.922 15.252 C 13.996 15.373,14.000 15.464,14.000 17.000 C 14.000 18.536,13.996 18.627,13.922 18.748 C 13.722 19.076,13.278 19.076,13.078 18.748 C 13.004 18.627,13.000 18.536,13.000 17.008 C 13.000 15.228,12.999 15.232,13.252 15.078 C 13.406 14.984,13.563 14.979,13.724 15.062 " stroke="none" fill-rule="evenodd" fill="black"></path></svg>