<svg xmlns="http://www.w3.org/2000/svg" width="24" height="24" viewBox="0 0 24 24" fill="none" stroke="currentColor" stroke-width="2" stroke-linecap="round" stroke-linejoin="round"><path d="M6.640 2.069 C 6.488 2.121,6.205 2.384,4.825 3.755 C 3.040 5.530,3.001 5.578,3.001 6.000 C 3.001 6.420,3.043 6.472,4.806 8.226 C 5.694 9.109,6.481 9.862,6.555 9.899 C 7.010 10.128,7.601 9.944,7.867 9.492 C 7.964 9.327,7.980 9.258,7.979 9.000 C 7.979 8.787,7.957 8.660,7.904 8.560 C 7.864 8.483,7.513 8.100,7.125 7.709 L 6.420 6.997 11.060 7.011 C 15.151 7.024,15.733 7.033,15.980 7.090 C 16.959 7.315,17.763 7.739,18.452 8.395 C 19.182 9.089,19.687 10.008,19.907 11.040 C 20.007 11.513,20.006 12.490,19.905 12.958 C 19.800 13.439,19.659 13.845,19.452 14.260 C 19.211 14.743,18.980 15.061,18.514 15.547 C 18.177 15.899,18.115 15.985,18.057 16.183 C 17.943 16.575,18.046 16.931,18.352 17.208 C 18.641 17.469,19.099 17.535,19.434 17.363 C 19.929 17.110,20.844 15.990,21.270 15.118 C 21.608 14.424,21.866 13.539,21.963 12.745 C 22.056 11.983,21.973 10.970,21.752 10.160 C 21.045 7.572,18.933 5.632,16.260 5.111 C 15.829 5.027,15.728 5.025,11.123 5.011 L 6.426 4.997 7.128 4.288 C 7.515 3.899,7.864 3.517,7.904 3.440 C 7.957 3.340,7.979 3.213,7.979 3.000 C 7.980 2.745,7.964 2.672,7.872 2.516 C 7.617 2.083,7.121 1.902,6.640 2.069 M5.695 13.057 C 5.466 13.129,5.256 13.299,5.128 13.516 C 5.037 13.672,5.020 13.746,5.020 14.000 C 5.020 14.256,5.036 14.328,5.131 14.489 C 5.192 14.592,5.304 14.725,5.381 14.783 C 5.643 14.983,5.738 14.996,6.910 14.998 L 8.000 15.000 8.000 15.500 L 8.000 16.000 7.370 16.002 C 6.410 16.006,6.002 16.150,5.535 16.653 C 5.091 17.131,5.000 17.446,5.000 18.500 C 5.000 19.587,5.101 19.909,5.596 20.404 C 5.882 20.690,6.148 20.847,6.508 20.940 C 6.822 21.022,9.102 21.024,9.330 20.943 C 9.551 20.864,9.744 20.702,9.869 20.489 C 9.964 20.328,9.980 20.256,9.980 20.000 C 9.980 19.746,9.963 19.672,9.872 19.516 C 9.813 19.415,9.698 19.282,9.618 19.221 C 9.356 19.022,9.203 19.000,8.054 19.000 L 7.000 19.000 7.000 18.500 L 7.000 18.000 7.632 18.000 C 8.574 18.000,8.927 17.881,9.404 17.404 C 9.895 16.913,10.000 16.579,9.999 15.514 C 9.999 14.716,9.954 14.424,9.781 14.083 C 9.646 13.816,9.297 13.449,9.017 13.281 C 8.603 13.031,8.412 13.005,7.060 13.005 C 6.191 13.005,5.814 13.020,5.695 13.057 M12.960 13.062 C 12.605 13.138,12.107 13.393,11.832 13.639 C 11.532 13.907,11.239 14.352,11.118 14.722 L 11.020 15.020 11.020 17.020 L 11.020 19.020 11.131 19.320 C 11.399 20.044,11.964 20.608,12.680 20.868 C 12.948 20.965,13.035 20.976,13.500 20.976 C 13.965 20.976,14.052 20.965,14.320 20.868 C 15.036 20.608,15.601 20.044,15.869 19.320 L 15.980 19.020 15.980 17.000 L 15.980 14.980 15.869 14.680 C 15.430 13.486,14.192 12.798,12.960 13.062 M13.724 15.062 C 13.790 15.096,13.879 15.182,13.922 15.252 C 13.996 15.373,14.000 15.464,14.000 17.000 C 14.000 18.536,13.996 18.627,13.922 18.748 C 13.722 19.076,13.278 19.076,13.078 18.748 C 13.004 18.627,13.000 18.536,13.000 17.008 C 13.000 15.228,12.999 15.232,13.252 15.078 C 13.406 14.984,13.563 14.979,13.724 15.062 " stroke="none" fill-rule="evenodd" fill="black"></path></svg>