<svg xmlns="http://www.w3.org/2000/svg" width="24" height="24" viewBox="0 0 24 24" fill="none" stroke="currentColor" stroke-width="2" stroke-linecap="round" stroke-linejoin="round"><path d="M16.670 2.061 C 16.448 2.142,16.250 2.309,16.128 2.516 C 16.036 2.672,16.020 2.745,16.021 3.000 C 16.021 3.213,16.043 3.340,16.096 3.440 C 16.136 3.517,16.485 3.899,16.872 4.288 L 17.574 4.997 12.877 5.011 C 8.272 5.025,8.171 5.027,7.740 5.111 C 5.777 5.493,4.012 6.704,3.033 8.340 C 2.390 9.412,2.056 10.526,2.011 11.745 C 1.945 13.530,2.558 15.261,3.730 16.602 C 4.435 17.409,4.803 17.597,5.325 17.419 C 5.872 17.233,6.152 16.599,5.917 16.080 C 5.870 15.976,5.678 15.739,5.465 15.520 C 5.025 15.069,4.792 14.748,4.549 14.260 C 4.340 13.842,4.198 13.434,4.095 12.958 C 3.994 12.490,3.993 11.513,4.093 11.040 C 4.521 9.029,5.982 7.559,8.020 7.090 C 8.267 7.033,8.849 7.024,12.940 7.011 L 17.580 6.997 16.875 7.709 C 16.487 8.100,16.139 8.481,16.101 8.555 C 15.872 9.008,16.056 9.601,16.508 9.867 C 16.673 9.964,16.742 9.980,17.000 9.979 C 17.212 9.979,17.341 9.957,17.440 9.905 C 17.517 9.865,18.306 9.109,19.194 8.226 C 20.957 6.472,20.999 6.420,20.999 6.000 C 20.999 5.578,20.960 5.530,19.175 3.756 C 17.716 2.307,17.519 2.124,17.343 2.066 C 17.108 1.987,16.875 1.986,16.670 2.061 M8.695 13.057 C 8.466 13.129,8.256 13.299,8.128 13.516 C 8.037 13.672,8.020 13.746,8.020 14.000 C 8.020 14.256,8.036 14.328,8.131 14.489 C 8.192 14.592,8.304 14.725,8.381 14.783 C 8.643 14.983,8.738 14.996,9.910 14.998 L 11.000 15.000 11.000 15.500 L 11.000 16.000 10.370 16.002 C 9.410 16.006,9.002 16.150,8.535 16.653 C 8.091 17.131,8.000 17.446,8.000 18.500 C 8.000 19.587,8.101 19.909,8.596 20.404 C 8.882 20.690,9.148 20.847,9.508 20.940 C 9.822 21.022,12.102 21.024,12.330 20.943 C 12.551 20.864,12.744 20.702,12.869 20.489 C 12.964 20.328,12.980 20.256,12.980 20.000 C 12.980 19.746,12.963 19.672,12.872 19.516 C 12.813 19.415,12.698 19.282,12.618 19.221 C 12.356 19.022,12.203 19.000,11.054 19.000 L 10.000 19.000 10.000 18.500 L 10.000 18.000 10.632 18.000 C 11.574 18.000,11.927 17.881,12.404 17.404 C 12.895 16.913,13.000 16.579,12.999 15.514 C 12.999 14.716,12.954 14.424,12.781 14.083 C 12.646 13.816,12.297 13.449,12.017 13.281 C 11.603 13.031,11.412 13.005,10.060 13.005 C 9.191 13.005,8.814 13.020,8.695 13.057 M15.960 13.062 C 15.605 13.138,15.107 13.393,14.832 13.639 C 14.532 13.907,14.239 14.352,14.118 14.722 L 14.020 15.020 14.020 17.020 L 14.020 19.020 14.131 19.320 C 14.399 20.044,14.964 20.608,15.680 20.868 C 15.948 20.965,16.035 20.976,16.500 20.976 C 16.965 20.976,17.052 20.965,17.320 20.868 C 18.036 20.608,18.601 20.044,18.869 19.320 L 18.980 19.020 18.980 17.000 L 18.980 14.980 18.869 14.680 C 18.430 13.486,17.192 12.798,15.960 13.062 M16.724 15.062 C 16.790 15.096,16.879 15.182,16.922 15.252 C 16.996 15.373,17.000 15.464,17.000 17.000 C 17.000 18.536,16.996 18.627,16.922 18.748 C 16.722 19.076,16.278 19.076,16.078 18.748 C 16.004 18.627,16.000 18.536,16.000 17.008 C 16.000 15.228,15.999 15.232,16.252 15.078 C 16.406 14.984,16.563 14.979,16.724 15.062 " stroke="none" fill-rule="evenodd" fill="black"></path></svg>