<svg xmlns="http://www.w3.org/2000/svg" width="24" height="24" viewBox="0 0 24 24" fill="none" stroke="currentColor" stroke-width="2" stroke-linecap="round" stroke-linejoin="round"><path d="M16.670 2.061 C 16.448 2.142,16.250 2.309,16.128 2.516 C 16.036 2.672,16.020 2.745,16.021 3.000 C 16.021 3.213,16.043 3.340,16.096 3.440 C 16.136 3.517,16.485 3.899,16.871 4.288 L 17.573 4.996 12.897 5.012 C 7.946 5.030,8.034 5.027,7.280 5.217 C 4.820 5.839,2.845 7.813,2.221 10.275 C 1.652 12.519,2.221 14.877,3.754 16.626 C 4.724 17.733,6.054 18.513,7.530 18.842 C 7.948 18.935,8.096 18.939,8.316 18.862 C 8.972 18.630,9.203 17.851,8.779 17.295 C 8.634 17.105,8.388 16.977,8.026 16.904 C 7.061 16.708,6.272 16.300,5.589 15.644 C 4.614 14.707,4.108 13.635,4.016 12.310 C 3.986 11.880,4.051 11.192,4.161 10.760 C 4.609 9.013,6.015 7.607,7.760 7.162 C 8.350 7.011,8.717 7.000,13.207 7.000 L 17.577 7.000 16.873 7.710 C 16.486 8.101,16.139 8.481,16.101 8.555 C 15.872 9.008,16.056 9.601,16.508 9.867 C 16.673 9.964,16.742 9.980,17.000 9.979 C 17.212 9.979,17.341 9.957,17.440 9.905 C 17.517 9.865,18.306 9.109,19.194 8.226 C 20.957 6.472,20.999 6.420,20.999 6.000 C 20.999 5.578,20.960 5.530,19.175 3.756 C 17.716 2.307,17.519 2.124,17.343 2.066 C 17.108 1.987,16.875 1.986,16.670 2.061 M11.695 13.057 C 11.466 13.129,11.256 13.299,11.128 13.516 L 11.020 13.700 11.020 17.003 L 11.020 20.306 11.141 20.503 C 11.543 21.156,12.457 21.156,12.859 20.503 L 12.980 20.306 12.980 17.003 L 12.980 13.700 12.872 13.516 C 12.628 13.101,12.150 12.915,11.695 13.057 M15.960 13.062 C 15.605 13.138,15.107 13.393,14.832 13.639 C 14.532 13.907,14.239 14.352,14.118 14.722 L 14.020 15.020 14.020 17.020 L 14.020 19.020 14.131 19.320 C 14.399 20.044,14.964 20.608,15.680 20.868 C 15.948 20.965,16.035 20.976,16.500 20.976 C 16.965 20.976,17.052 20.965,17.320 20.868 C 18.036 20.608,18.601 20.044,18.869 19.320 L 18.980 19.020 18.980 17.000 L 18.980 14.980 18.869 14.680 C 18.430 13.486,17.192 12.798,15.960 13.062 M16.724 15.062 C 16.790 15.096,16.879 15.182,16.922 15.252 C 16.996 15.373,17.000 15.464,17.000 17.000 C 17.000 18.536,16.996 18.627,16.922 18.748 C 16.722 19.076,16.278 19.076,16.078 18.748 C 16.004 18.627,16.000 18.536,16.000 17.008 C 16.000 15.228,15.999 15.232,16.252 15.078 C 16.406 14.984,16.563 14.979,16.724 15.062 " stroke="none" fill-rule="evenodd" fill="black"></path></svg>