<svg xmlns="http://www.w3.org/2000/svg" width="24" height="24" viewBox="0 0 24 24" fill="none" stroke="currentColor" stroke-width="2" stroke-linecap="round" stroke-linejoin="round"><path d="M16.670 2.061 C 16.448 2.142,16.250 2.309,16.128 2.516 C 16.036 2.672,16.020 2.745,16.021 3.000 C 16.021 3.213,16.043 3.340,16.096 3.440 C 16.136 3.517,16.485 3.899,16.872 4.288 L 17.574 4.997 12.877 5.011 C 8.272 5.025,8.171 5.027,7.740 5.111 C 5.777 5.493,4.012 6.704,3.033 8.340 C 2.390 9.412,2.056 10.526,2.011 11.745 C 1.945 13.530,2.558 15.261,3.730 16.602 C 4.435 17.409,4.803 17.597,5.325 17.419 C 5.872 17.233,6.152 16.599,5.917 16.080 C 5.870 15.976,5.678 15.739,5.465 15.520 C 5.025 15.069,4.792 14.748,4.549 14.260 C 4.340 13.842,4.198 13.434,4.095 12.958 C 3.994 12.490,3.993 11.513,4.093 11.040 C 4.521 9.029,5.982 7.559,8.020 7.090 C 8.267 7.033,8.849 7.024,12.940 7.011 L 17.580 6.997 16.875 7.709 C 16.487 8.100,16.139 8.481,16.101 8.555 C 15.872 9.008,16.056 9.601,16.508 9.867 C 16.673 9.964,16.742 9.980,17.000 9.979 C 17.212 9.979,17.341 9.957,17.440 9.905 C 17.517 9.865,18.306 9.109,19.194 8.226 C 20.957 6.472,20.999 6.420,20.999 6.000 C 20.999 5.578,20.960 5.530,19.175 3.756 C 17.716 2.307,17.519 2.124,17.343 2.066 C 17.108 1.987,16.875 1.986,16.670 2.061 M8.695 13.057 C 8.466 13.129,8.256 13.299,8.128 13.516 C 8.037 13.672,8.020 13.746,8.020 14.000 C 8.020 14.256,8.036 14.328,8.131 14.489 C 8.192 14.592,8.304 14.725,8.381 14.783 C 8.636 14.978,8.752 14.996,9.720 14.998 C 10.540 15.000,10.631 15.007,10.748 15.078 C 10.991 15.226,11.065 15.513,10.922 15.748 C 10.801 15.946,10.656 16.000,10.248 16.000 C 9.664 16.000,9.345 16.147,9.128 16.516 C 9.037 16.672,9.020 16.746,9.020 17.000 C 9.020 17.256,9.036 17.328,9.131 17.489 C 9.353 17.866,9.630 17.996,10.220 17.998 C 10.544 18.000,10.644 18.015,10.748 18.078 C 10.991 18.226,11.065 18.513,10.922 18.748 C 10.779 18.983,10.698 19.000,9.748 19.000 C 8.811 19.000,8.634 19.029,8.382 19.221 C 8.302 19.282,8.187 19.415,8.128 19.516 C 8.037 19.672,8.020 19.746,8.020 20.000 C 8.020 20.257,8.036 20.327,8.133 20.492 C 8.263 20.713,8.502 20.901,8.733 20.963 C 8.836 20.991,9.273 21.001,9.957 20.992 C 10.996 20.977,11.027 20.974,11.320 20.868 C 12.038 20.607,12.605 20.039,12.867 19.320 C 12.965 19.051,12.976 18.966,12.976 18.500 C 12.976 18.035,12.965 17.949,12.868 17.684 C 12.809 17.521,12.705 17.301,12.636 17.194 L 12.512 17.000 12.636 16.806 C 12.705 16.699,12.809 16.479,12.868 16.316 C 12.965 16.051,12.976 15.965,12.976 15.500 C 12.976 15.035,12.965 14.948,12.868 14.680 C 12.732 14.306,12.458 13.898,12.165 13.636 C 11.887 13.387,11.390 13.137,11.020 13.060 C 10.650 12.982,8.940 12.980,8.695 13.057 M15.960 13.062 C 15.605 13.138,15.107 13.393,14.832 13.639 C 14.532 13.907,14.239 14.352,14.118 14.722 L 14.020 15.020 14.020 17.020 L 14.020 19.020 14.131 19.320 C 14.399 20.044,14.964 20.608,15.680 20.868 C 15.948 20.965,16.035 20.976,16.500 20.976 C 16.965 20.976,17.052 20.965,17.320 20.868 C 18.036 20.608,18.601 20.044,18.869 19.320 L 18.980 19.020 18.980 17.000 L 18.980 14.980 18.869 14.680 C 18.430 13.486,17.192 12.798,15.960 13.062 M16.724 15.062 C 16.790 15.096,16.879 15.182,16.922 15.252 C 16.996 15.373,17.000 15.464,17.000 17.000 C 17.000 18.536,16.996 18.627,16.922 18.748 C 16.722 19.076,16.278 19.076,16.078 18.748 C 16.004 18.627,16.000 18.536,16.000 17.008 C 16.000 15.228,15.999 15.232,16.252 15.078 C 16.406 14.984,16.563 14.979,16.724 15.062 " stroke="none" fill-rule="evenodd" fill="black"></path></svg>