<svg xmlns="http://www.w3.org/2000/svg" width="24" height="24" viewBox="0 0 24 24" fill="none" stroke="currentColor" stroke-width="2" stroke-linecap="round" stroke-linejoin="round"><path d="M11.104 2.043 C 8.882 2.350,7.150 3.990,6.781 6.135 C 6.704 6.586,6.703 7.410,6.779 7.845 C 7.077 9.541,8.328 11.853,10.652 15.008 L 10.732 15.116 10.419 15.508 C 9.348 16.848,8.081 18.329,6.771 19.770 C 6.436 20.138,6.133 20.496,6.098 20.564 C 5.998 20.757,5.979 21.081,6.054 21.301 C 6.142 21.558,6.285 21.736,6.511 21.869 C 6.669 21.962,6.746 21.980,6.980 21.980 C 7.434 21.980,7.528 21.913,8.331 21.028 C 9.476 19.764,10.405 18.689,11.398 17.480 C 11.714 17.095,11.985 16.780,11.999 16.780 C 12.014 16.780,12.284 17.095,12.600 17.480 C 13.610 18.710,14.754 20.030,15.814 21.189 C 16.465 21.901,16.585 21.980,17.020 21.980 C 17.254 21.980,17.331 21.962,17.489 21.869 C 17.836 21.665,18.029 21.291,17.989 20.900 C 17.957 20.599,17.892 20.497,17.365 19.922 C 16.255 18.712,14.793 17.014,13.825 15.810 C 13.284 15.138,13.272 15.118,13.332 15.026 C 13.366 14.974,13.578 14.681,13.802 14.376 C 14.027 14.070,14.444 13.469,14.730 13.040 C 16.047 11.061,16.767 9.631,17.127 8.280 C 17.288 7.675,17.328 6.793,17.223 6.165 C 17.123 5.567,16.897 4.938,16.611 4.462 C 15.891 3.264,14.662 2.403,13.240 2.100 C 12.878 2.023,11.511 1.986,11.104 2.043 M13.073 4.117 C 13.850 4.343,14.498 4.830,14.882 5.480 C 15.224 6.060,15.364 6.876,15.241 7.574 C 15.031 8.756,13.998 10.664,12.197 13.189 C 12.100 13.326,12.011 13.438,12.000 13.439 C 11.967 13.440,10.968 12.003,10.589 11.410 C 9.688 10.001,9.062 8.752,8.828 7.900 C 8.698 7.428,8.701 6.546,8.833 6.120 C 9.170 5.036,10.085 4.255,11.273 4.038 C 11.376 4.020,11.757 4.011,12.120 4.018 C 12.645 4.029,12.840 4.049,13.073 4.117 " stroke="none" fill-rule="evenodd" fill="black"></path></svg>