<svg xmlns="http://www.w3.org/2000/svg" width="24" height="24" viewBox="0 0 24 24" fill="none" stroke="currentColor" stroke-width="2" stroke-linecap="round" stroke-linejoin="round"><path d="M6.440 4.579 C 5.185 4.764,4.082 5.175,2.861 5.914 C 2.324 6.239,2.152 6.403,2.060 6.681 C 1.829 7.377,2.380 8.063,3.111 7.987 C 3.293 7.969,3.411 7.917,3.761 7.703 C 4.653 7.158,5.450 6.820,6.286 6.633 C 6.643 6.553,6.809 6.540,7.500 6.540 C 8.191 6.540,8.357 6.553,8.714 6.633 C 9.631 6.838,10.402 7.181,11.515 7.877 C 12.257 8.341,12.911 8.681,13.512 8.915 C 16.079 9.915,18.726 9.608,21.259 8.018 C 21.708 7.736,21.841 7.599,21.939 7.322 C 22.209 6.558,21.451 5.788,20.692 6.056 C 20.605 6.086,20.400 6.197,20.237 6.303 C 19.825 6.567,19.011 6.969,18.580 7.120 C 16.900 7.707,15.295 7.597,13.620 6.778 C 13.378 6.659,12.874 6.371,12.500 6.138 C 10.615 4.961,9.224 4.516,7.460 4.525 C 7.086 4.527,6.627 4.551,6.440 4.579 M6.440 9.579 C 5.185 9.764,4.082 10.175,2.861 10.914 C 2.324 11.239,2.152 11.403,2.060 11.681 C 1.829 12.377,2.380 13.063,3.111 12.987 C 3.293 12.969,3.411 12.917,3.761 12.703 C 4.653 12.158,5.450 11.820,6.286 11.633 C 6.643 11.553,6.809 11.540,7.500 11.540 C 8.191 11.540,8.357 11.553,8.714 11.633 C 9.631 11.838,10.402 12.181,11.515 12.877 C 12.257 13.341,12.911 13.681,13.512 13.915 C 16.079 14.915,18.726 14.608,21.259 13.018 C 21.708 12.736,21.841 12.599,21.939 12.322 C 22.209 11.558,21.451 10.788,20.692 11.056 C 20.605 11.086,20.400 11.197,20.237 11.303 C 19.825 11.567,19.011 11.969,18.580 12.120 C 16.900 12.707,15.295 12.597,13.620 11.778 C 13.378 11.659,12.874 11.371,12.500 11.138 C 10.615 9.961,9.224 9.516,7.460 9.525 C 7.086 9.527,6.627 9.551,6.440 9.579 M6.440 14.579 C 5.185 14.764,4.082 15.175,2.861 15.914 C 2.324 16.239,2.152 16.403,2.060 16.681 C 1.829 17.377,2.380 18.063,3.111 17.987 C 3.293 17.969,3.411 17.917,3.761 17.703 C 4.653 17.158,5.450 16.820,6.286 16.633 C 6.643 16.553,6.809 16.540,7.500 16.540 C 8.191 16.540,8.357 16.553,8.714 16.633 C 9.631 16.838,10.402 17.181,11.515 17.877 C 12.257 18.341,12.911 18.681,13.512 18.915 C 16.079 19.915,18.726 19.608,21.259 18.018 C 21.708 17.736,21.841 17.599,21.939 17.322 C 22.209 16.558,21.451 15.788,20.692 16.056 C 20.605 16.086,20.400 16.197,20.237 16.303 C 19.825 16.567,19.011 16.969,18.580 17.120 C 16.900 17.707,15.295 17.597,13.620 16.778 C 13.378 16.659,12.874 16.371,12.500 16.138 C 10.615 14.961,9.224 14.516,7.460 14.525 C 7.086 14.527,6.627 14.551,6.440 14.579 " stroke="none" fill-rule="evenodd" fill="black"></path></svg>