<svg xmlns="http://www.w3.org/2000/svg" width="24" height="24" viewBox="0 0 24 24" fill="none" stroke="currentColor" stroke-width="2" stroke-linecap="round" stroke-linejoin="round"><path d="M2.670 2.061 C 2.448 2.142,2.250 2.309,2.128 2.516 C 2.036 2.672,2.020 2.745,2.021 3.000 C 2.021 3.213,2.043 3.341,2.095 3.440 C 2.136 3.517,2.563 3.977,3.045 4.461 L 3.920 5.342 3.610 5.495 C 3.139 5.727,2.439 6.162,2.275 6.325 C 2.084 6.516,1.982 6.818,2.012 7.107 C 2.069 7.654,2.556 8.045,3.110 7.987 C 3.291 7.969,3.416 7.914,3.796 7.686 C 4.290 7.390,4.831 7.113,5.214 6.961 L 5.448 6.868 6.774 8.194 L 8.100 9.520 7.480 9.521 C 5.879 9.523,4.447 9.955,2.861 10.914 C 2.324 11.239,2.152 11.403,2.060 11.681 C 1.829 12.377,2.380 13.063,3.111 12.987 C 3.293 12.969,3.411 12.917,3.761 12.703 C 4.653 12.158,5.450 11.820,6.286 11.633 C 6.643 11.553,6.809 11.540,7.500 11.540 C 8.191 11.540,8.357 11.553,8.714 11.633 C 9.520 11.813,10.493 12.221,11.153 12.656 C 11.339 12.778,12.121 13.534,13.740 15.158 L 16.060 17.485 15.860 17.460 C 14.738 17.317,13.791 16.942,12.458 16.113 C 10.619 14.968,9.228 14.521,7.500 14.521 C 5.881 14.521,4.455 14.950,2.861 15.914 C 2.324 16.239,2.152 16.403,2.060 16.681 C 1.829 17.377,2.380 18.063,3.111 17.987 C 3.293 17.969,3.411 17.917,3.761 17.703 C 4.653 17.158,5.450 16.820,6.286 16.633 C 6.643 16.553,6.809 16.540,7.500 16.540 C 8.191 16.540,8.357 16.553,8.714 16.633 C 9.632 16.838,10.403 17.181,11.520 17.880 C 13.151 18.902,14.460 19.370,15.988 19.479 C 16.534 19.518,17.279 19.484,17.729 19.398 L 17.937 19.359 19.179 20.595 C 19.861 21.275,20.483 21.864,20.560 21.905 C 20.659 21.957,20.787 21.979,21.000 21.979 C 21.258 21.980,21.327 21.964,21.492 21.867 C 21.968 21.587,22.139 20.967,21.865 20.508 C 21.810 20.416,17.665 16.243,12.653 11.235 C 4.231 2.820,3.525 2.125,3.343 2.065 C 3.107 1.987,2.874 1.986,2.670 2.061 M9.560 5.043 C 9.172 5.219,8.984 5.510,8.982 5.940 C 8.979 6.425,9.185 6.703,9.706 6.919 C 10.265 7.150,10.846 7.458,11.515 7.876 C 12.257 8.341,12.911 8.681,13.512 8.915 C 16.079 9.915,18.726 9.608,21.259 8.018 C 21.708 7.736,21.841 7.599,21.939 7.322 C 22.209 6.558,21.451 5.788,20.692 6.056 C 20.605 6.086,20.400 6.197,20.237 6.303 C 19.219 6.958,17.993 7.393,16.940 7.475 C 15.505 7.587,14.169 7.188,12.540 6.160 C 11.824 5.709,11.058 5.306,10.521 5.098 C 10.098 4.935,9.833 4.920,9.560 5.043 M20.680 11.058 C 20.603 11.086,20.378 11.212,20.180 11.338 C 19.405 11.829,18.425 12.227,17.570 12.397 C 16.981 12.514,16.762 12.648,16.576 13.007 C 16.408 13.332,16.488 13.834,16.749 14.096 C 17.038 14.386,17.343 14.480,17.744 14.403 C 19.109 14.138,20.237 13.686,21.384 12.940 C 21.729 12.716,21.847 12.585,21.941 12.318 C 22.210 11.555,21.432 10.778,20.680 11.058 " stroke="none" fill-rule="evenodd" fill="black"></path></svg>