<svg xmlns="http://www.w3.org/2000/svg" width="24" height="24" viewBox="0 0 24 24" fill="none" stroke="currentColor" stroke-width="2" stroke-linecap="round" stroke-linejoin="round"><path d="M11.419 1.058 C 11.095 1.117,10.735 1.255,10.409 1.445 C 10.238 1.545,9.118 2.637,5.967 5.779 C 3.650 8.090,1.676 10.088,1.582 10.220 C 1.360 10.530,1.230 10.790,1.114 11.161 C 1.035 11.413,1.021 11.546,1.021 12.000 C 1.021 12.454,1.035 12.587,1.114 12.839 C 1.230 13.210,1.360 13.470,1.582 13.780 C 1.793 14.075,10.029 22.302,10.280 22.469 C 10.553 22.651,10.831 22.782,11.161 22.886 C 11.413 22.965,11.546 22.979,12.000 22.979 C 12.454 22.979,12.587 22.965,12.839 22.886 C 13.169 22.782,13.447 22.651,13.720 22.469 C 13.971 22.302,22.207 14.075,22.418 13.780 C 22.640 13.470,22.770 13.210,22.886 12.839 C 22.965 12.587,22.979 12.454,22.979 12.000 C 22.979 11.546,22.965 11.413,22.886 11.161 C 22.770 10.790,22.640 10.530,22.418 10.220 C 22.324 10.088,20.350 8.090,18.033 5.779 C 14.882 2.637,13.762 1.545,13.591 1.445 C 12.918 1.053,12.176 0.921,11.419 1.058 M12.451 3.103 C 12.635 3.195,20.785 11.342,20.891 11.540 C 20.956 11.662,20.976 11.771,20.976 12.000 C 20.976 12.229,20.956 12.338,20.891 12.460 C 20.784 12.661,12.637 20.803,12.440 20.905 C 12.341 20.957,12.213 20.978,12.000 20.978 C 11.787 20.978,11.659 20.957,11.560 20.905 C 11.366 20.804,3.217 12.662,3.108 12.460 C 2.994 12.248,2.986 11.768,3.095 11.560 C 3.182 11.392,11.328 3.222,11.500 3.131 C 11.566 3.095,11.674 3.052,11.740 3.035 C 11.911 2.990,12.299 3.028,12.451 3.103 M12.670 8.061 C 12.448 8.142,12.250 8.309,12.128 8.516 C 12.036 8.672,12.020 8.745,12.021 9.000 C 12.022 9.353,12.076 9.476,12.368 9.785 L 12.567 9.995 11.053 10.009 C 9.622 10.023,9.528 10.028,9.310 10.110 C 8.833 10.288,8.424 10.645,8.220 11.060 C 8.013 11.482,7.995 11.651,8.008 13.032 L 8.020 14.306 8.141 14.503 C 8.543 15.156,9.457 15.156,9.859 14.503 L 9.980 14.307 9.992 13.153 L 10.005 12.000 11.288 12.000 L 12.572 12.000 12.371 12.212 C 12.121 12.477,12.039 12.632,12.012 12.895 C 11.971 13.295,12.158 13.662,12.508 13.867 C 12.673 13.964,12.742 13.980,13.000 13.979 C 13.213 13.979,13.341 13.957,13.440 13.905 C 13.517 13.864,14.081 13.334,14.694 12.726 C 15.920 11.510,15.999 11.405,15.999 11.000 C 15.999 10.593,15.922 10.491,14.675 9.256 C 13.683 8.273,13.515 8.124,13.343 8.066 C 13.108 7.987,12.875 7.985,12.670 8.061 " stroke="none" fill-rule="evenodd" fill="black"></path></svg>