<svg xmlns="http://www.w3.org/2000/svg" width="24" height="24" viewBox="0 0 24 24" fill="none" stroke="currentColor" stroke-width="2" stroke-linecap="round" stroke-linejoin="round"><path d="M7.689 2.059 C 7.320 2.174,7.052 2.503,7.013 2.888 C 6.998 3.041,7.021 3.213,7.096 3.507 C 7.153 3.731,7.200 3.932,7.200 3.953 C 7.200 3.976,6.845 3.999,6.330 4.010 C 5.556 4.026,5.425 4.039,5.139 4.125 C 4.180 4.416,3.420 5.180,3.114 6.160 L 3.020 6.460 3.020 13.000 L 3.020 19.540 3.114 19.840 C 3.422 20.827,4.173 21.578,5.160 21.886 L 5.460 21.980 12.000 21.980 L 18.540 21.980 18.840 21.886 C 19.827 21.578,20.578 20.827,20.886 19.840 L 20.980 19.540 20.980 13.000 L 20.980 6.460 20.886 6.160 C 20.580 5.180,19.820 4.416,18.861 4.125 C 18.575 4.039,18.444 4.026,17.670 4.010 C 17.155 3.999,16.800 3.976,16.800 3.953 C 16.800 3.932,16.847 3.731,16.904 3.507 C 17.031 3.008,17.018 2.756,16.851 2.486 C 16.548 1.995,15.902 1.862,15.424 2.191 C 15.184 2.357,15.093 2.535,14.937 3.142 C 14.859 3.449,14.777 3.768,14.756 3.850 L 14.717 4.000 12.000 4.000 L 9.283 4.000 9.244 3.850 C 9.222 3.768,9.148 3.475,9.080 3.200 C 8.929 2.592,8.840 2.398,8.640 2.240 C 8.352 2.012,8.033 1.951,7.689 2.059 M7.756 6.150 C 7.777 6.232,7.859 6.552,7.937 6.860 C 8.099 7.493,8.199 7.674,8.486 7.851 C 8.950 8.139,9.582 7.977,9.862 7.501 C 10.017 7.235,10.028 6.979,9.904 6.493 C 9.847 6.269,9.800 6.066,9.800 6.043 C 9.800 6.013,10.466 6.000,12.000 6.000 C 13.534 6.000,14.200 6.013,14.200 6.043 C 14.200 6.066,14.153 6.269,14.096 6.493 C 13.972 6.979,13.983 7.235,14.138 7.501 C 14.444 8.022,15.135 8.153,15.623 7.780 C 15.827 7.625,15.912 7.446,16.064 6.854 C 16.142 6.549,16.223 6.232,16.244 6.150 L 16.283 6.000 17.194 6.000 C 18.283 6.000,18.422 6.028,18.697 6.303 C 19.023 6.629,19.000 6.126,19.000 13.001 C 19.000 18.059,18.991 19.139,18.945 19.290 C 18.872 19.533,18.707 19.740,18.484 19.872 L 18.300 19.980 12.000 19.980 L 5.700 19.980 5.516 19.872 C 5.415 19.813,5.284 19.700,5.225 19.623 C 4.987 19.311,5.000 19.701,5.000 13.022 C 5.000 6.123,4.977 6.629,5.304 6.303 C 5.576 6.030,5.694 6.006,6.788 6.003 L 7.717 6.000 7.756 6.150 M8.695 10.057 C 8.466 10.129,8.256 10.299,8.128 10.516 C 8.020 10.699,8.020 10.703,8.020 11.503 L 8.020 12.306 8.141 12.503 C 8.543 13.156,9.457 13.156,9.859 12.503 L 9.980 12.306 9.980 11.503 C 9.980 10.703,9.980 10.699,9.872 10.516 C 9.628 10.101,9.150 9.915,8.695 10.057 M14.695 10.057 C 14.466 10.129,14.256 10.299,14.128 10.516 C 14.020 10.699,14.020 10.703,14.020 11.503 L 14.020 12.306 14.141 12.503 C 14.543 13.156,15.457 13.156,15.859 12.503 L 15.980 12.306 15.980 11.503 C 15.980 10.703,15.980 10.699,15.872 10.516 C 15.628 10.101,15.150 9.915,14.695 10.057 M8.664 15.061 C 8.022 15.305,7.802 16.076,8.220 16.623 C 8.416 16.881,9.389 17.416,10.132 17.676 C 10.793 17.907,11.221 17.976,12.000 17.976 C 12.572 17.976,12.775 17.960,13.108 17.888 C 13.861 17.725,14.614 17.416,15.310 16.985 C 15.706 16.739,15.843 16.595,15.939 16.322 C 16.174 15.656,15.620 14.942,14.920 15.009 C 14.718 15.028,14.615 15.074,14.101 15.374 C 13.713 15.600,13.297 15.777,12.887 15.889 C 12.448 16.009,11.552 16.009,11.113 15.889 C 10.703 15.777,10.287 15.600,9.899 15.374 C 9.724 15.272,9.509 15.151,9.422 15.106 C 9.224 15.003,8.871 14.982,8.664 15.061 " stroke="none" fill-rule="evenodd" fill="black"></path></svg>