<svg xmlns="http://www.w3.org/2000/svg" width="24" height="24" viewBox="0 0 24 24" fill="none" stroke="currentColor" stroke-width="2" stroke-linecap="round" stroke-linejoin="round"><path d="M11.695 1.057 C 11.466 1.129,11.256 1.299,11.128 1.516 C 11.025 1.692,11.019 1.728,11.007 2.350 L 10.993 3.000 9.443 3.000 C 7.759 3.000,7.658 3.011,7.382 3.221 C 7.302 3.282,7.187 3.415,7.128 3.516 C 7.037 3.672,7.020 3.746,7.020 4.000 C 7.020 4.256,7.036 4.328,7.131 4.489 C 7.256 4.702,7.449 4.864,7.670 4.943 C 7.792 4.986,8.607 4.997,11.963 4.998 C 16.644 5.000,16.377 4.983,16.697 5.303 C 17.002 5.609,17.000 5.589,17.000 8.001 C 17.000 10.287,16.996 10.333,16.779 10.618 C 16.613 10.835,16.380 10.954,16.034 10.998 C 15.870 11.019,15.686 11.055,15.625 11.078 C 15.439 11.149,15.242 11.323,15.128 11.516 C 15.037 11.672,15.020 11.746,15.020 12.000 C 15.020 12.257,15.036 12.327,15.133 12.492 C 15.263 12.714,15.502 12.901,15.736 12.965 C 15.960 13.026,16.519 12.982,16.863 12.877 C 17.820 12.584,18.581 11.818,18.886 10.840 L 18.980 10.540 18.980 8.000 L 18.980 5.460 18.886 5.160 C 18.581 4.181,17.827 3.423,16.861 3.123 C 16.543 3.024,16.523 3.023,14.773 3.009 L 13.007 2.995 12.993 2.347 C 12.981 1.728,12.975 1.692,12.872 1.516 C 12.628 1.101,12.150 0.915,11.695 1.057 M2.670 2.061 C 2.448 2.142,2.250 2.309,2.128 2.516 C 2.036 2.672,2.020 2.745,2.021 3.000 C 2.021 3.212,2.043 3.341,2.095 3.440 C 2.136 3.517,2.805 4.219,3.582 5.000 L 4.996 6.420 5.009 8.500 C 5.022 10.551,5.024 10.584,5.115 10.860 C 5.507 12.044,6.521 12.877,7.698 12.984 L 8.000 13.011 8.000 13.196 L 8.000 13.381 6.232 14.260 C 4.304 15.219,4.191 15.292,4.066 15.660 C 4.030 15.767,4.000 15.920,4.000 16.000 C 4.000 16.406,4.293 16.811,4.678 16.939 C 5.067 17.068,5.153 17.040,6.628 16.305 C 7.362 15.939,7.970 15.640,7.980 15.640 C 7.990 15.640,8.003 16.915,8.009 18.473 L 8.020 21.306 8.141 21.503 C 8.543 22.156,9.457 22.156,9.859 21.503 L 9.980 21.307 9.992 20.153 L 10.005 19.000 12.000 19.000 L 13.995 19.000 14.008 20.153 L 14.020 21.307 14.141 21.503 C 14.543 22.156,15.457 22.156,15.859 21.503 L 15.980 21.306 15.991 19.365 L 16.003 17.424 18.211 19.628 C 19.426 20.840,20.483 21.865,20.560 21.905 C 20.659 21.957,20.788 21.979,21.000 21.979 C 21.258 21.980,21.327 21.964,21.492 21.867 C 21.968 21.587,22.139 20.967,21.865 20.508 C 21.810 20.416,17.665 16.243,12.653 11.235 C 4.231 2.820,3.525 2.125,3.343 2.065 C 3.107 1.987,2.874 1.986,2.670 2.061 M13.695 7.057 C 13.466 7.129,13.256 7.299,13.128 7.516 C 13.036 7.672,13.020 7.745,13.021 8.000 C 13.022 8.332,13.101 8.533,13.306 8.728 C 13.785 9.181,14.580 9.046,14.893 8.460 C 15.025 8.211,15.015 7.760,14.872 7.516 C 14.628 7.101,14.150 6.915,13.695 7.057 M9.371 10.993 C 9.266 11.000,8.847 11.000,8.440 10.993 C 7.719 10.980,7.695 10.977,7.516 10.872 C 7.415 10.813,7.284 10.700,7.225 10.623 C 7.022 10.357,7.000 10.224,7.000 9.285 L 7.000 8.420 8.281 9.700 L 9.561 10.980 9.371 10.993 M12.790 14.210 L 14.000 15.420 14.000 16.210 L 14.000 17.000 12.000 17.000 L 10.000 17.000 10.000 15.000 L 10.000 13.000 10.790 13.000 L 11.580 13.000 12.790 14.210 " stroke="none" fill-rule="evenodd" fill="black"></path></svg>