<svg xmlns="http://www.w3.org/2000/svg" width="24" height="24" viewBox="0 0 24 24" fill="none" stroke="currentColor" stroke-width="2" stroke-linecap="round" stroke-linejoin="round"><path d="M2.670 2.061 C 2.448 2.142,2.250 2.309,2.128 2.516 C 2.036 2.672,2.020 2.745,2.021 3.000 C 2.021 3.212,2.043 3.341,2.095 3.440 C 2.135 3.517,3.419 4.833,4.949 6.365 L 7.729 9.150 7.515 9.201 C 6.794 9.371,5.791 9.836,5.121 10.311 C 4.682 10.622,3.905 11.376,3.613 11.774 C 3.047 12.544,2.917 12.899,3.054 13.301 C 3.201 13.732,3.462 13.922,4.040 14.018 C 4.417 14.081,4.966 14.199,4.995 14.224 C 5.004 14.231,4.904 14.359,4.773 14.509 C 3.846 15.567,3.265 16.770,3.039 18.100 C 2.963 18.552,2.954 18.719,2.971 19.380 C 2.994 20.265,3.038 20.440,3.299 20.701 C 3.560 20.962,3.735 21.006,4.620 21.029 C 5.281 21.046,5.448 21.037,5.900 20.961 C 7.233 20.735,8.439 20.152,9.490 19.226 C 9.639 19.095,9.767 18.995,9.775 19.004 C 9.801 19.034,9.918 19.576,9.982 19.960 C 10.056 20.403,10.170 20.629,10.409 20.802 C 10.780 21.071,11.168 21.063,11.642 20.777 C 12.166 20.459,12.480 20.208,12.980 19.702 C 13.526 19.149,13.930 18.590,14.258 17.932 C 14.476 17.494,14.707 16.875,14.799 16.485 L 14.850 16.271 17.635 19.051 C 19.167 20.581,20.483 21.865,20.560 21.905 C 20.659 21.957,20.788 21.979,21.000 21.979 C 21.258 21.980,21.327 21.964,21.492 21.867 C 21.968 21.587,22.139 20.967,21.865 20.508 C 21.810 20.416,17.665 16.243,12.653 11.235 C 4.231 2.820,3.525 2.125,3.343 2.065 C 3.107 1.987,2.874 1.986,2.670 2.061 M16.620 3.027 C 15.841 3.095,14.782 3.328,14.088 3.583 C 13.522 3.791,12.484 4.314,12.000 4.634 C 11.414 5.022,10.805 5.523,10.372 5.971 C 10.056 6.299,9.995 6.383,9.938 6.581 C 9.695 7.416,10.562 8.138,11.340 7.748 C 11.428 7.704,11.680 7.495,11.900 7.283 C 12.592 6.617,13.060 6.279,13.849 5.877 C 14.838 5.373,15.730 5.117,16.848 5.018 C 17.457 4.964,18.036 5.189,18.455 5.642 C 18.860 6.080,19.030 6.578,18.979 7.180 C 18.824 9.028,18.052 10.717,16.741 12.077 C 16.185 12.654,16.072 12.894,16.162 13.312 C 16.283 13.875,16.865 14.223,17.418 14.062 C 17.613 14.006,17.701 13.944,18.009 13.648 C 19.413 12.298,20.430 10.414,20.817 8.450 C 21.015 7.444,21.043 6.845,20.921 6.243 C 20.721 5.264,20.197 4.415,19.438 3.843 C 18.599 3.211,17.653 2.937,16.620 3.027 M14.477 7.073 C 13.806 7.249,13.238 7.823,13.060 8.508 C 12.941 8.962,13.003 9.492,13.225 9.930 C 13.361 10.199,13.801 10.639,14.070 10.775 C 14.659 11.073,15.341 11.073,15.930 10.775 C 16.196 10.640,16.638 10.200,16.771 9.937 C 16.994 9.498,17.052 9.007,16.940 8.529 C 16.858 8.182,16.720 7.927,16.465 7.653 C 16.074 7.232,15.560 7.005,15.000 7.005 C 14.857 7.005,14.622 7.036,14.477 7.073 M13.058 14.693 C 13.030 14.785,12.988 15.060,12.964 15.305 C 12.887 16.073,12.680 16.698,12.276 17.380 C 12.084 17.704,11.733 18.163,11.660 18.187 C 11.638 18.194,11.569 18.051,11.508 17.870 C 11.349 17.404,10.894 16.488,10.599 16.040 C 9.860 14.919,8.828 13.926,7.679 13.232 C 7.233 12.962,6.412 12.577,6.029 12.457 C 5.902 12.417,5.805 12.366,5.812 12.342 C 5.837 12.266,6.293 11.918,6.635 11.715 C 7.318 11.309,7.928 11.112,8.790 11.020 C 9.082 10.989,9.352 10.946,9.390 10.924 C 9.449 10.890,9.744 11.167,11.283 12.705 L 13.107 14.527 13.058 14.693 M7.397 15.462 C 7.576 15.607,7.847 15.849,7.999 16.001 C 8.309 16.311,8.800 16.906,8.800 16.970 C 8.800 17.119,8.151 17.782,7.669 18.125 C 6.979 18.616,5.791 19.040,5.104 19.040 L 4.949 19.040 4.977 18.731 C 5.090 17.482,5.762 16.202,6.718 15.413 C 6.860 15.296,6.997 15.200,7.024 15.200 C 7.050 15.200,7.218 15.318,7.397 15.462 " stroke="none" fill-rule="evenodd" fill="black"></path></svg>