<svg xmlns="http://www.w3.org/2000/svg" width="24" height="24" viewBox="0 0 24 24" fill="none" stroke="currentColor" stroke-width="2" stroke-linecap="round" stroke-linejoin="round"><path d="M2.670 2.061 C 2.448 2.142,2.250 2.309,2.128 2.516 C 2.036 2.672,2.020 2.745,2.021 3.000 C 2.021 3.213,2.043 3.341,2.095 3.440 C 2.136 3.517,2.656 4.069,3.251 4.667 L 4.332 5.754 4.250 5.947 C 4.064 6.380,4.033 6.587,4.004 7.560 C 3.969 8.749,3.993 8.688,3.249 9.452 C 2.506 10.214,2.333 10.477,2.140 11.143 C 1.881 12.038,2.027 12.974,2.550 13.772 C 2.648 13.921,2.967 14.290,3.259 14.592 C 3.550 14.893,3.831 15.221,3.882 15.320 C 3.970 15.488,3.978 15.562,4.004 16.460 C 4.033 17.418,4.049 17.539,4.218 18.000 C 4.464 18.676,5.138 19.388,5.844 19.719 C 6.330 19.946,6.650 20.001,7.660 20.034 C 8.437 20.060,8.602 20.076,8.720 20.138 C 8.797 20.178,9.114 20.457,9.424 20.758 C 9.735 21.059,10.095 21.375,10.224 21.461 C 11.112 22.051,12.222 22.162,13.220 21.763 C 13.675 21.580,13.919 21.401,14.546 20.791 C 15.313 20.043,15.287 20.054,16.400 20.027 C 17.304 20.006,17.632 19.953,18.069 19.760 L 18.256 19.678 19.338 20.754 C 19.933 21.347,20.483 21.864,20.560 21.905 C 20.659 21.957,20.787 21.979,21.000 21.979 C 21.258 21.980,21.327 21.964,21.492 21.867 C 21.968 21.587,22.139 20.967,21.865 20.508 C 21.810 20.416,17.665 16.243,12.653 11.235 C 4.231 2.820,3.525 2.125,3.343 2.065 C 3.107 1.987,2.874 1.986,2.670 2.061 M11.640 2.043 C 10.834 2.129,10.301 2.420,9.473 3.227 C 8.976 3.711,8.839 3.822,8.611 3.924 C 8.029 4.184,7.781 4.639,7.934 5.164 C 8.015 5.442,8.187 5.646,8.448 5.776 C 8.743 5.924,9.008 5.916,9.420 5.748 C 9.875 5.563,10.171 5.346,10.794 4.742 C 11.094 4.450,11.400 4.180,11.474 4.143 C 11.787 3.982,12.308 3.995,12.600 4.171 C 12.677 4.218,12.992 4.500,13.300 4.799 C 13.894 5.376,14.191 5.597,14.580 5.755 C 15.052 5.946,15.186 5.966,16.180 5.996 C 17.253 6.028,17.329 6.046,17.653 6.354 C 17.954 6.640,17.972 6.709,18.006 7.740 C 18.038 8.747,18.094 9.070,18.318 9.549 C 18.502 9.942,18.656 10.141,19.242 10.742 C 19.914 11.431,19.978 11.540,19.979 12.000 C 19.980 12.454,19.912 12.577,19.324 13.180 C 18.592 13.930,18.342 14.296,18.179 14.857 C 17.995 15.490,18.457 16.112,19.115 16.118 C 19.552 16.123,19.862 15.902,20.093 15.420 C 20.216 15.165,20.329 15.024,20.791 14.548 C 21.402 13.917,21.581 13.672,21.763 13.220 C 22.162 12.222,22.051 11.112,21.461 10.224 C 21.375 10.095,21.059 9.735,20.758 9.424 C 20.457 9.114,20.178 8.797,20.138 8.720 C 20.076 8.602,20.060 8.437,20.034 7.660 C 20.001 6.650,19.946 6.330,19.719 5.844 C 19.389 5.139,18.754 4.534,18.031 4.236 C 17.605 4.061,17.177 4.000,16.362 4.000 C 15.359 4.000,15.362 4.001,14.705 3.366 C 13.894 2.580,13.575 2.361,12.956 2.163 C 12.749 2.097,12.042 1.985,11.960 2.006 C 11.949 2.008,11.805 2.025,11.640 2.043 M8.011 9.642 C 8.034 9.900,8.174 10.241,8.347 10.460 C 8.575 10.749,9.081 11.000,9.438 11.000 C 9.568 11.000,9.627 11.046,10.080 11.500 L 10.579 12.000 9.374 13.210 C 8.711 13.875,8.138 14.481,8.101 14.555 C 7.872 15.009,8.056 15.601,8.508 15.867 C 8.673 15.964,8.742 15.980,9.000 15.979 C 9.213 15.979,9.341 15.957,9.440 15.905 C 9.517 15.864,10.125 15.289,10.790 14.626 L 12.000 13.421 12.495 13.915 L 12.990 14.408 13.011 14.642 C 13.034 14.900,13.174 15.241,13.347 15.460 C 13.575 15.749,14.081 16.000,14.437 16.000 C 14.570 16.000,14.647 16.067,15.570 16.990 C 16.114 17.534,16.560 17.993,16.560 18.010 C 16.560 18.026,16.300 18.040,15.983 18.040 C 14.771 18.040,14.290 18.258,13.208 19.296 C 12.704 19.780,12.577 19.881,12.400 19.940 C 12.123 20.032,11.728 20.006,11.480 19.881 C 11.379 19.830,11.053 19.548,10.740 19.242 C 10.018 18.536,9.752 18.356,9.140 18.159 C 8.896 18.081,8.736 18.066,7.900 18.042 C 7.030 18.016,6.921 18.005,6.740 17.925 C 6.488 17.813,6.263 17.598,6.129 17.340 C 6.028 17.146,6.023 17.110,5.996 16.180 C 5.966 15.186,5.946 15.052,5.755 14.580 C 5.597 14.191,5.376 13.894,4.799 13.300 C 4.500 12.992,4.218 12.677,4.171 12.600 C 3.996 12.308,3.982 11.789,4.142 11.474 C 4.179 11.400,4.429 11.115,4.697 10.840 C 5.286 10.236,5.485 9.988,5.663 9.635 C 5.904 9.155,5.967 8.859,5.990 8.105 L 6.009 7.430 7.000 8.420 L 7.990 9.409 8.011 9.642 M14.641 8.069 C 14.503 8.118,14.321 8.271,13.847 8.736 C 13.509 9.068,13.188 9.416,13.133 9.508 C 12.862 9.970,13.033 10.588,13.508 10.867 C 13.673 10.964,13.742 10.980,14.000 10.979 C 14.214 10.979,14.340 10.957,14.440 10.904 C 14.634 10.801,15.743 9.700,15.873 9.480 C 15.963 9.328,15.980 9.253,15.980 9.000 C 15.980 8.746,15.963 8.672,15.872 8.516 C 15.617 8.083,15.117 7.901,14.641 8.069 " stroke="none" fill-rule="evenodd" fill="black"></path></svg>