<svg xmlns="http://www.w3.org/2000/svg" width="24" height="24" viewBox="0 0 24 24" fill="none" stroke="currentColor" stroke-width="2" stroke-linecap="round" stroke-linejoin="round"><path d="M11.720 1.945 C 10.890 2.035,10.384 2.305,9.654 3.047 C 9.250 3.457,9.201 3.523,9.138 3.740 C 9.079 3.943,9.075 4.014,9.114 4.200 C 9.205 4.635,9.567 4.961,9.994 4.992 C 10.391 5.021,10.516 4.961,10.981 4.519 C 11.211 4.301,11.476 4.083,11.569 4.035 C 11.807 3.914,12.194 3.915,12.440 4.038 C 12.696 4.165,19.835 11.304,19.962 11.560 C 20.086 11.808,20.086 12.192,19.962 12.440 C 19.839 12.687,12.653 19.874,12.420 19.983 C 12.205 20.083,11.795 20.083,11.580 19.983 C 11.347 19.874,4.161 12.687,4.038 12.440 C 3.914 12.190,3.914 11.808,4.039 11.560 C 4.097 11.444,4.469 11.039,5.075 10.428 L 6.020 9.476 6.040 10.388 C 6.058 11.226,6.067 11.313,6.147 11.462 C 6.551 12.217,7.553 12.227,7.931 11.480 L 8.042 11.261 8.031 8.980 L 8.020 6.700 7.909 6.530 C 7.763 6.304,7.521 6.135,7.267 6.079 C 7.123 6.048,6.414 6.038,4.940 6.047 L 2.820 6.060 2.630 6.154 C 2.017 6.456,1.880 7.279,2.364 7.753 C 2.631 8.015,2.648 8.019,3.670 8.033 C 4.181 8.040,4.600 8.057,4.600 8.070 C 4.600 8.084,4.119 8.583,3.530 9.178 C 2.401 10.319,2.282 10.471,2.097 11.000 C 1.811 11.819,1.899 12.778,2.330 13.520 C 2.512 13.834,10.166 21.488,10.480 21.670 C 11.020 21.983,11.736 22.130,12.350 22.052 C 12.753 22.001,13.202 21.854,13.520 21.670 C 13.834 21.488,21.488 13.834,21.670 13.520 C 21.854 13.202,22.001 12.753,22.052 12.350 C 22.130 11.736,21.983 11.019,21.670 10.480 C 21.577 10.321,20.496 9.211,17.741 6.447 C 15.650 4.351,13.857 2.573,13.756 2.498 C 13.226 2.105,12.373 1.874,11.720 1.945 " stroke="none" fill-rule="evenodd" fill="black"></path></svg>