<svg xmlns="http://www.w3.org/2000/svg" width="24" height="24" viewBox="0 0 24 24" fill="none" stroke="currentColor" stroke-width="2" stroke-linecap="round" stroke-linejoin="round"><path d="M11.420 2.987 C 10.257 3.062,8.662 3.495,8.306 3.832 C 7.779 4.332,7.973 5.219,8.664 5.478 C 8.961 5.589,9.075 5.581,9.540 5.418 C 10.849 4.958,12.122 4.859,13.400 5.119 C 16.026 5.654,18.141 7.663,18.803 10.251 C 18.922 10.717,18.957 10.948,18.999 11.545 C 19.117 13.229,18.622 14.878,17.585 16.260 C 17.290 16.653,16.624 17.324,16.277 17.576 L 16.020 17.763 16.000 16.232 L 15.980 14.700 15.871 14.514 C 15.479 13.848,14.521 13.848,14.129 14.514 L 14.020 14.700 14.020 17.500 L 14.020 20.300 14.131 20.489 C 14.256 20.702,14.449 20.864,14.670 20.943 C 14.890 21.021,20.110 21.021,20.330 20.943 C 20.551 20.864,20.744 20.702,20.869 20.489 C 20.964 20.328,20.980 20.256,20.980 20.000 C 20.980 19.746,20.963 19.672,20.872 19.516 C 20.813 19.415,20.698 19.282,20.618 19.221 C 20.351 19.018,20.214 19.000,18.913 19.000 L 17.719 19.000 18.058 18.698 C 20.121 16.863,21.252 13.980,20.998 11.200 C 20.711 8.065,18.786 5.264,15.982 3.903 C 14.533 3.200,12.975 2.887,11.420 2.987 M5.360 6.195 C 4.803 6.378,4.525 6.915,4.684 7.500 C 4.741 7.709,5.093 8.058,5.306 8.117 C 5.733 8.235,6.168 8.101,6.418 7.775 C 6.805 7.268,6.639 6.565,6.063 6.272 C 5.891 6.184,5.518 6.143,5.360 6.195 M3.800 10.035 C 3.344 10.184,3.072 10.546,3.072 11.003 C 3.072 11.416,3.331 11.801,3.705 11.944 C 3.914 12.024,4.317 12.005,4.508 11.906 C 5.088 11.606,5.233 10.790,4.788 10.326 C 4.718 10.253,4.589 10.157,4.503 10.112 C 4.331 10.024,3.959 9.983,3.800 10.035 M4.217 14.196 C 3.833 14.370,3.619 14.738,3.647 15.174 C 3.702 16.034,4.716 16.416,5.325 15.806 C 5.507 15.624,5.640 15.326,5.640 15.100 C 5.640 14.918,5.509 14.589,5.381 14.446 C 5.096 14.131,4.596 14.023,4.217 14.196 M6.960 17.397 C 6.338 17.524,5.987 18.214,6.255 18.780 C 6.436 19.161,6.755 19.368,7.160 19.368 C 7.565 19.368,7.884 19.161,8.065 18.780 C 8.348 18.182,7.945 17.467,7.280 17.389 C 7.181 17.378,7.037 17.381,6.960 17.397 M10.600 19.024 C 10.399 19.111,10.205 19.309,10.095 19.540 C 9.867 20.023,10.074 20.586,10.577 20.852 C 10.695 20.913,10.812 20.937,11.000 20.937 C 11.727 20.937,12.212 20.188,11.905 19.540 C 11.793 19.305,11.599 19.109,11.391 19.022 C 11.203 18.943,10.783 18.944,10.600 19.024 " stroke="none" fill-rule="evenodd" fill="black"></path></svg>