<svg xmlns="http://www.w3.org/2000/svg" width="24" height="24" viewBox="0 0 24 24" fill="none" stroke="currentColor" stroke-width="2" stroke-linecap="round" stroke-linejoin="round"><path d="M11.695 2.057 C 11.051 2.258,10.799 3.040,11.198 3.591 C 11.416 3.892,11.592 3.960,12.310 4.021 C 13.041 4.083,13.439 4.158,13.940 4.329 C 15.672 4.919,17.081 6.328,17.671 8.060 C 17.923 8.799,17.997 9.396,17.999 10.697 L 18.000 11.574 17.270 10.854 C 16.655 10.247,16.509 10.123,16.343 10.067 C 15.865 9.905,15.383 10.083,15.128 10.516 C 15.036 10.672,15.020 10.745,15.021 11.000 C 15.021 11.212,15.043 11.341,15.095 11.440 C 15.135 11.517,15.891 12.306,16.774 13.194 C 18.528 14.957,18.580 14.999,19.000 14.999 C 19.420 14.999,19.472 14.957,21.226 13.194 C 22.109 12.306,22.865 11.517,22.905 11.440 C 22.957 11.341,22.979 11.212,22.979 11.000 C 22.980 10.745,22.964 10.672,22.872 10.516 C 22.617 10.083,22.135 9.905,21.657 10.067 C 21.491 10.123,21.345 10.247,20.730 10.854 L 20.000 11.574 20.000 10.565 C 20.000 9.129,19.913 8.474,19.595 7.500 C 19.229 6.382,18.612 5.352,17.801 4.504 C 16.438 3.080,14.677 2.223,12.740 2.041 C 12.176 1.988,11.901 1.993,11.695 2.057 M7.647 8.560 C 7.410 8.661,2.381 11.709,2.274 11.817 C 2.004 12.091,2.021 11.873,2.009 15.157 C 1.997 18.487,1.988 18.374,2.277 18.673 C 2.423 18.822,7.334 21.807,7.658 21.942 C 7.821 22.010,8.147 22.018,8.305 21.958 C 8.564 21.859,13.587 18.810,13.728 18.665 C 14.005 18.382,14.000 18.452,14.000 15.203 L 13.999 12.300 13.905 12.100 C 13.852 11.990,13.749 11.844,13.675 11.775 C 13.601 11.707,12.371 10.951,10.943 10.095 L 8.346 8.540 8.043 8.531 C 7.876 8.525,7.698 8.539,7.647 8.560 M9.563 11.606 C 10.375 12.093,11.040 12.502,11.040 12.516 C 11.039 12.529,10.364 12.948,9.538 13.447 L 8.036 14.354 6.525 13.447 C 5.693 12.948,5.009 12.524,5.004 12.505 C 4.990 12.454,7.972 10.677,8.033 10.700 C 8.063 10.711,8.751 11.119,9.563 11.606 M5.693 15.280 L 6.998 16.060 6.999 17.648 L 7.000 19.236 5.500 18.336 L 4.000 17.436 4.000 15.854 L 4.000 14.273 4.194 14.387 C 4.301 14.449,4.976 14.851,5.693 15.280 M12.000 15.878 L 12.000 17.436 10.500 18.336 L 9.000 19.236 9.002 17.668 L 9.004 16.100 10.472 15.212 C 11.279 14.723,11.954 14.323,11.970 14.322 C 11.987 14.321,12.000 15.021,12.000 15.878 " stroke="none" fill-rule="evenodd" fill="black"></path></svg>