<svg xmlns="http://www.w3.org/2000/svg" width="24" height="24" viewBox="0 0 24 24" fill="none" stroke="currentColor" stroke-width="2" stroke-linecap="round" stroke-linejoin="round"><path d="M11.340 3.067 C 9.514 3.222,7.855 3.872,6.420 4.993 C 6.003 5.319,5.179 6.166,4.845 6.612 C 3.231 8.766,2.670 11.373,3.246 14.037 C 3.430 14.890,3.877 15.987,4.349 16.746 C 5.463 18.539,7.181 19.905,9.140 20.557 C 10.239 20.923,11.200 21.065,12.300 21.026 C 13.518 20.983,14.588 20.737,15.680 20.250 C 16.782 19.759,17.766 19.058,18.596 18.174 L 18.960 17.786 18.961 19.003 C 18.962 20.141,18.967 20.232,19.043 20.400 C 19.200 20.746,19.483 20.950,19.860 20.988 C 20.262 21.030,20.644 20.812,20.853 20.423 C 20.940 20.260,20.940 20.258,20.940 17.500 C 20.940 14.752,20.940 14.739,20.854 14.579 C 20.745 14.375,20.585 14.215,20.381 14.106 C 20.221 14.020,20.208 14.020,17.440 14.020 C 14.668 14.020,14.660 14.020,14.500 14.106 C 14.164 14.288,13.962 14.623,13.962 15.000 C 13.962 15.377,14.164 15.712,14.500 15.894 C 14.654 15.977,14.718 15.981,16.214 16.000 L 17.768 16.020 17.579 16.280 C 17.306 16.654,16.517 17.424,16.113 17.710 C 15.210 18.348,14.210 18.766,13.151 18.949 C 12.524 19.057,11.366 19.046,10.764 18.926 C 9.319 18.639,8.127 18.014,7.105 17.009 C 6.131 16.052,5.448 14.793,5.157 13.416 C 5.035 12.843,5.006 11.702,5.097 11.080 C 5.276 9.858,5.679 8.865,6.394 7.880 C 6.711 7.443,7.514 6.662,7.990 6.326 C 10.349 4.661,13.530 4.626,15.920 6.239 C 17.488 7.297,18.532 8.893,18.895 10.790 C 19.002 11.349,19.085 11.557,19.266 11.725 C 19.647 12.078,20.265 12.081,20.616 11.731 C 20.931 11.417,20.997 11.156,20.901 10.600 C 20.571 8.688,19.734 7.059,18.390 5.706 C 17.462 4.772,16.405 4.083,15.200 3.627 C 14.000 3.172,12.562 2.963,11.340 3.067 M11.477 10.073 C 10.806 10.249,10.238 10.823,10.060 11.508 C 9.941 11.962,10.003 12.492,10.225 12.930 C 10.361 13.199,10.801 13.639,11.070 13.775 C 11.659 14.073,12.341 14.073,12.930 13.775 C 13.196 13.640,13.638 13.200,13.771 12.937 C 13.994 12.498,14.052 12.007,13.940 11.529 C 13.858 11.182,13.720 10.927,13.465 10.653 C 13.074 10.232,12.560 10.005,12.000 10.005 C 11.857 10.005,11.622 10.036,11.477 10.073 " stroke="none" fill-rule="evenodd" fill="black"></path></svg>