<svg xmlns="http://www.w3.org/2000/svg" width="24" height="24" viewBox="0 0 24 24" fill="none" stroke="currentColor" stroke-width="2" stroke-linecap="round" stroke-linejoin="round"><path d="M11.120 3.082 C 9.053 3.280,7.127 4.192,5.637 5.678 C 4.299 7.012,3.445 8.646,3.117 10.499 C 3.027 11.013,3.034 11.194,3.157 11.434 C 3.535 12.170,4.569 12.178,4.937 11.448 C 4.974 11.375,5.049 11.081,5.104 10.794 C 5.376 9.376,5.965 8.224,6.939 7.205 C 8.618 5.450,11.042 4.705,13.452 5.204 C 15.750 5.681,17.741 7.410,18.543 9.627 C 18.870 10.529,18.979 11.246,18.947 12.280 C 18.921 13.116,18.849 13.542,18.621 14.226 C 17.794 16.702,15.752 18.460,13.140 18.945 C 12.594 19.046,11.430 19.048,10.849 18.949 C 9.452 18.709,8.172 18.065,7.160 17.094 C 6.824 16.771,6.288 16.152,6.247 16.039 C 6.240 16.019,6.907 15.998,7.787 15.992 C 9.290 15.980,9.345 15.977,9.500 15.894 C 10.218 15.506,10.218 14.494,9.500 14.106 C 9.340 14.020,9.332 14.020,6.560 14.020 C 3.792 14.020,3.779 14.020,3.619 14.106 C 3.415 14.215,3.255 14.375,3.146 14.579 C 3.060 14.739,3.060 14.752,3.060 17.500 C 3.060 20.258,3.060 20.260,3.147 20.423 C 3.561 21.196,4.603 21.183,4.957 20.400 C 5.033 20.232,5.038 20.141,5.039 19.003 L 5.040 17.786 5.404 18.174 C 7.057 19.934,9.277 20.940,11.700 21.026 C 14.597 21.129,17.384 19.797,19.150 17.466 C 20.066 16.258,20.633 14.918,20.881 13.380 C 21.015 12.542,20.990 11.242,20.821 10.342 C 20.578 9.043,19.987 7.721,19.154 6.612 C 18.817 6.163,17.992 5.314,17.580 4.993 C 16.314 4.005,14.877 3.383,13.296 3.139 C 12.808 3.063,11.631 3.033,11.120 3.082 " stroke="none" fill-rule="evenodd" fill="black"></path></svg>