<svg xmlns="http://www.w3.org/2000/svg" width="24" height="24" viewBox="0 0 24 24" fill="none" stroke="currentColor" stroke-width="2" stroke-linecap="round" stroke-linejoin="round"><path d="M2.695 2.057 C 2.466 2.129,2.256 2.299,2.128 2.516 L 2.020 2.700 2.020 5.503 L 2.020 8.306 2.141 8.503 C 2.543 9.156,3.457 9.156,3.859 8.503 L 3.980 8.306 3.991 6.153 L 4.003 4.000 6.091 3.998 C 7.731 3.997,8.212 3.985,8.330 3.943 C 8.551 3.864,8.744 3.702,8.869 3.489 C 8.964 3.328,8.980 3.256,8.980 3.000 C 8.980 2.746,8.963 2.672,8.872 2.516 C 8.740 2.293,8.533 2.128,8.290 2.055 C 8.031 1.977,2.944 1.979,2.695 2.057 M15.695 2.057 C 15.466 2.129,15.256 2.299,15.128 2.516 C 15.037 2.672,15.020 2.746,15.020 3.000 C 15.020 3.256,15.036 3.328,15.131 3.489 C 15.192 3.592,15.304 3.725,15.381 3.783 C 15.650 3.989,15.716 3.996,17.199 3.998 L 18.578 4.000 15.515 7.070 C 13.831 8.758,12.369 10.251,12.266 10.388 C 11.584 11.291,11.171 12.305,11.041 13.400 C 11.009 13.665,10.999 14.921,11.008 17.543 L 11.020 21.306 11.141 21.503 C 11.543 22.156,12.457 22.156,12.859 21.503 L 12.980 21.306 13.002 17.383 C 13.024 13.545,13.026 13.453,13.109 13.140 C 13.263 12.563,13.508 12.064,13.865 11.600 C 13.958 11.479,15.375 10.040,17.015 8.402 L 19.996 5.424 20.008 6.865 L 20.020 8.306 20.141 8.503 C 20.543 9.156,21.457 9.156,21.859 8.503 L 21.980 8.306 21.991 5.563 C 22.002 3.089,21.996 2.803,21.936 2.646 C 21.845 2.405,21.657 2.204,21.420 2.094 L 21.220 2.001 18.540 2.003 C 16.466 2.005,15.823 2.017,15.695 2.057 M5.695 5.057 C 5.466 5.129,5.256 5.299,5.128 5.516 C 5.036 5.672,5.020 5.745,5.021 6.000 C 5.022 6.332,5.101 6.533,5.306 6.728 C 5.785 7.181,6.580 7.046,6.893 6.460 C 7.025 6.211,7.015 5.760,6.872 5.516 C 6.628 5.101,6.150 4.915,5.695 5.057 M7.800 7.037 C 7.178 7.164,6.827 7.854,7.095 8.420 C 7.276 8.801,7.595 9.008,8.000 9.008 C 8.405 9.008,8.724 8.801,8.905 8.420 C 9.188 7.822,8.785 7.107,8.120 7.029 C 8.021 7.018,7.877 7.021,7.800 7.037 M9.695 9.057 C 9.466 9.129,9.256 9.299,9.128 9.516 C 9.036 9.672,9.020 9.745,9.021 10.000 C 9.022 10.332,9.101 10.533,9.306 10.728 C 9.785 11.181,10.580 11.046,10.893 10.460 C 11.025 10.211,11.015 9.760,10.872 9.516 C 10.628 9.101,10.150 8.915,9.695 9.057 " stroke="none" fill-rule="evenodd" fill="black"></path></svg>