<svg xmlns="http://www.w3.org/2000/svg" width="24" height="24" viewBox="0 0 24 24" fill="none" stroke="currentColor" stroke-width="2" stroke-linecap="round" stroke-linejoin="round"><path d="M16.695 2.057 C 16.466 2.129,16.256 2.299,16.128 2.516 L 16.020 2.700 16.020 5.000 L 16.020 7.300 16.131 7.489 C 16.256 7.702,16.449 7.864,16.670 7.943 C 16.889 8.021,21.111 8.021,21.330 7.943 C 21.551 7.864,21.744 7.702,21.869 7.489 L 21.980 7.300 21.980 5.000 L 21.980 2.700 21.872 2.516 C 21.740 2.293,21.533 2.128,21.290 2.055 C 21.033 1.978,16.943 1.979,16.695 2.057 M7.900 4.045 C 6.431 4.229,5.051 5.245,4.421 6.609 C 3.787 7.981,3.883 9.574,4.677 10.864 C 5.287 11.854,6.233 12.543,7.437 12.873 L 7.820 12.978 12.400 13.000 C 16.694 13.020,16.994 13.026,17.200 13.095 C 17.883 13.322,18.426 13.775,18.715 14.362 C 19.087 15.118,19.090 15.878,18.723 16.620 C 18.439 17.194,17.936 17.643,17.320 17.869 L 17.020 17.980 13.880 18.000 C 11.490 18.015,10.713 18.032,10.627 18.070 C 10.428 18.158,10.239 18.328,10.128 18.516 C 10.037 18.672,10.020 18.746,10.020 19.000 C 10.020 19.257,10.036 19.327,10.133 19.492 C 10.262 19.711,10.502 19.901,10.726 19.962 C 10.828 19.989,11.942 19.999,14.030 19.991 L 17.180 19.978 17.563 19.873 C 19.262 19.407,20.437 18.229,20.867 16.563 C 21.425 14.397,20.179 12.058,18.053 11.282 C 17.313 11.012,17.609 11.027,12.560 11.003 L 7.980 10.980 7.680 10.869 C 6.490 10.431,5.803 9.206,6.060 7.980 C 6.211 7.259,6.713 6.605,7.362 6.285 C 7.934 6.003,7.952 6.002,10.720 5.999 C 12.669 5.997,13.211 5.985,13.330 5.943 C 13.551 5.864,13.744 5.702,13.869 5.489 C 13.964 5.328,13.980 5.256,13.980 5.000 C 13.980 4.746,13.963 4.672,13.872 4.516 C 13.813 4.415,13.698 4.282,13.618 4.221 C 13.328 4.000,13.319 4.000,10.644 4.005 C 9.289 4.008,8.054 4.026,7.900 4.045 M20.000 5.000 L 20.000 6.000 19.000 6.000 L 18.000 6.000 18.000 5.000 L 18.000 4.000 19.000 4.000 L 20.000 4.000 20.000 5.000 M2.695 16.057 C 2.466 16.129,2.256 16.299,2.128 16.516 L 2.020 16.700 2.020 19.000 L 2.020 21.300 2.131 21.489 C 2.256 21.702,2.449 21.864,2.670 21.943 C 2.889 22.021,7.111 22.021,7.330 21.943 C 7.551 21.864,7.744 21.702,7.869 21.489 L 7.980 21.300 7.980 19.000 L 7.980 16.700 7.872 16.516 C 7.740 16.293,7.533 16.128,7.290 16.055 C 7.033 15.978,2.943 15.979,2.695 16.057 M6.000 19.000 L 6.000 20.000 5.000 20.000 L 4.000 20.000 4.000 19.000 L 4.000 18.000 5.000 18.000 L 6.000 18.000 6.000 19.000 " stroke="none" fill-rule="evenodd" fill="black"></path></svg>