<svg xmlns="http://www.w3.org/2000/svg" width="24" height="24" viewBox="0 0 24 24" fill="none" stroke="currentColor" stroke-width="2" stroke-linecap="round" stroke-linejoin="round"><path d="M5.499 3.043 C 4.383 3.230,3.461 4.048,3.114 5.160 C 3.023 5.451,3.020 5.503,3.020 6.883 L 3.020 8.306 3.141 8.503 C 3.543 9.156,4.457 9.156,4.859 8.503 L 4.980 8.307 5.000 7.023 C 5.023 5.581,5.025 5.571,5.321 5.283 C 5.592 5.021,5.716 5.000,7.037 4.998 C 8.266 4.996,8.356 4.984,8.619 4.783 C 8.696 4.725,8.808 4.592,8.869 4.489 C 8.964 4.328,8.980 4.256,8.980 4.000 C 8.980 3.746,8.963 3.672,8.872 3.516 C 8.813 3.415,8.698 3.282,8.618 3.221 C 8.350 3.016,8.216 3.000,6.904 3.005 C 6.242 3.007,5.609 3.025,5.499 3.043 M15.695 3.055 C 15.464 3.130,15.255 3.300,15.128 3.516 C 15.037 3.672,15.020 3.746,15.020 4.000 C 15.020 4.256,15.036 4.328,15.131 4.489 C 15.192 4.592,15.304 4.725,15.381 4.783 C 15.644 4.984,15.734 4.996,16.963 4.998 C 18.284 5.000,18.408 5.021,18.679 5.283 C 18.975 5.571,18.977 5.581,19.000 7.023 L 19.020 8.307 19.141 8.503 C 19.543 9.156,20.457 9.156,20.859 8.503 L 20.980 8.306 20.980 6.883 C 20.980 5.503,20.977 5.451,20.886 5.160 C 20.581 4.181,19.825 3.421,18.861 3.124 C 18.551 3.028,18.495 3.025,17.200 3.014 C 16.166 3.005,15.822 3.014,15.695 3.055 M6.580 8.094 C 6.343 8.204,6.155 8.405,6.063 8.646 C 6.004 8.801,5.998 9.016,6.008 10.563 L 6.020 12.306 6.141 12.503 C 6.543 13.156,7.457 13.156,7.858 12.504 C 7.970 12.323,7.980 12.274,7.994 11.869 L 8.009 11.430 9.407 12.825 C 10.176 13.592,10.845 14.292,10.893 14.380 C 10.976 14.533,10.981 14.597,11.000 15.920 C 11.019 17.237,11.024 17.307,11.106 17.460 C 11.494 18.178,12.506 18.178,12.894 17.460 C 12.976 17.307,12.981 17.237,13.000 15.920 C 13.019 14.597,13.024 14.533,13.107 14.380 C 13.155 14.292,13.824 13.592,14.593 12.825 L 15.991 11.430 16.006 11.869 C 16.020 12.274,16.030 12.323,16.142 12.504 C 16.543 13.156,17.457 13.156,17.859 12.503 L 17.980 12.306 17.992 10.563 C 18.002 9.016,17.996 8.801,17.937 8.646 C 17.845 8.405,17.657 8.204,17.420 8.094 C 17.221 8.001,17.215 8.001,15.556 8.000 C 13.749 8.000,13.660 8.009,13.382 8.221 C 13.083 8.449,12.935 8.893,13.035 9.264 C 13.099 9.497,13.286 9.737,13.507 9.866 C 13.674 9.964,13.750 9.980,14.129 9.999 L 14.561 10.020 13.281 11.300 L 12.000 12.580 10.719 11.300 L 9.439 10.020 9.871 9.999 C 10.250 9.980,10.326 9.964,10.493 9.866 C 11.248 9.424,11.122 8.305,10.290 8.055 C 10.148 8.012,9.739 8.000,8.444 8.000 C 6.785 8.001,6.779 8.001,6.580 8.094 M3.695 15.057 C 3.466 15.129,3.256 15.299,3.128 15.516 L 3.020 15.700 3.020 17.120 C 3.020 18.497,3.023 18.549,3.114 18.840 C 3.419 19.817,4.158 20.563,5.140 20.884 C 5.404 20.970,5.495 20.976,6.764 20.991 C 7.647 21.001,8.163 20.992,8.268 20.963 C 8.498 20.901,8.737 20.713,8.867 20.492 C 8.964 20.327,8.980 20.257,8.980 20.000 C 8.980 19.746,8.963 19.672,8.872 19.516 C 8.761 19.327,8.569 19.156,8.373 19.071 C 8.296 19.038,7.854 19.016,6.980 19.001 L 5.700 18.980 5.516 18.872 C 5.327 18.761,5.157 18.570,5.071 18.373 C 5.037 18.295,5.015 17.865,5.001 16.980 L 4.980 15.700 4.872 15.516 C 4.628 15.101,4.150 14.915,3.695 15.057 M19.695 15.057 C 19.466 15.129,19.256 15.299,19.128 15.516 L 19.020 15.700 18.999 16.980 C 18.984 17.854,18.962 18.296,18.929 18.373 C 18.844 18.569,18.673 18.761,18.484 18.872 L 18.300 18.980 17.020 19.001 C 16.146 19.016,15.704 19.038,15.627 19.071 C 15.431 19.156,15.239 19.327,15.128 19.516 C 15.037 19.672,15.020 19.746,15.020 20.000 C 15.020 20.257,15.036 20.327,15.133 20.492 C 15.263 20.713,15.502 20.901,15.732 20.963 C 15.837 20.992,16.353 21.001,17.236 20.991 C 18.505 20.976,18.596 20.970,18.860 20.884 C 19.842 20.563,20.581 19.817,20.886 18.840 C 20.977 18.549,20.980 18.497,20.980 17.120 L 20.980 15.700 20.872 15.516 C 20.628 15.101,20.150 14.915,19.695 15.057 " stroke="none" fill-rule="evenodd" fill="black"></path></svg>