<svg xmlns="http://www.w3.org/2000/svg" width="24" height="24" viewBox="0 0 24 24" fill="none" stroke="currentColor" stroke-width="2" stroke-linecap="round" stroke-linejoin="round"><path d="M2.580 2.094 C 2.343 2.204,2.155 2.405,2.064 2.646 C 2.004 2.803,1.998 3.089,2.009 5.563 L 2.020 8.306 2.141 8.503 C 2.543 9.156,3.457 9.156,3.859 8.503 L 3.980 8.306 3.992 6.865 L 4.004 5.424 6.985 8.402 C 8.625 10.040,10.042 11.479,10.135 11.600 C 10.375 11.911,10.524 12.169,10.690 12.560 C 10.985 13.255,10.972 13.055,10.997 17.403 L 11.020 21.306 11.141 21.503 C 11.543 22.156,12.457 22.156,12.859 21.503 L 12.980 21.306 12.992 17.543 C 13.001 14.921,12.991 13.665,12.959 13.400 C 12.829 12.305,12.416 11.291,11.734 10.388 C 11.631 10.251,10.169 8.758,8.485 7.070 L 5.422 4.000 6.801 3.998 C 8.284 3.996,8.350 3.989,8.619 3.783 C 8.696 3.725,8.808 3.592,8.869 3.489 C 8.964 3.328,8.980 3.256,8.980 3.000 C 8.980 2.746,8.963 2.672,8.872 2.516 C 8.813 2.415,8.698 2.282,8.618 2.221 C 8.327 1.999,8.334 2.000,5.444 2.000 L 2.780 2.001 2.580 2.094 M15.695 2.057 C 15.466 2.129,15.256 2.299,15.128 2.516 C 15.037 2.672,15.020 2.746,15.020 3.000 C 15.020 3.256,15.036 3.328,15.131 3.489 C 15.256 3.702,15.449 3.864,15.670 3.943 C 15.788 3.985,16.269 3.997,17.909 3.998 L 19.997 4.000 20.009 6.153 L 20.020 8.306 20.141 8.503 C 20.543 9.156,21.457 9.156,21.859 8.503 L 21.980 8.306 21.980 5.503 L 21.980 2.700 21.872 2.516 C 21.740 2.293,21.533 2.128,21.290 2.055 C 21.031 1.977,15.944 1.979,15.695 2.057 M17.695 5.057 C 17.466 5.129,17.256 5.299,17.128 5.516 C 17.036 5.672,17.020 5.745,17.021 6.000 C 17.022 6.332,17.101 6.533,17.306 6.728 C 17.785 7.181,18.580 7.046,18.893 6.460 C 19.025 6.211,19.015 5.760,18.872 5.516 C 18.628 5.101,18.150 4.915,17.695 5.057 M15.800 7.037 C 15.178 7.164,14.827 7.854,15.095 8.420 C 15.276 8.801,15.595 9.008,16.000 9.008 C 16.405 9.008,16.724 8.801,16.905 8.420 C 17.188 7.822,16.785 7.107,16.120 7.029 C 16.021 7.018,15.877 7.021,15.800 7.037 M13.695 9.057 C 13.466 9.129,13.256 9.299,13.128 9.516 C 13.036 9.672,13.020 9.745,13.021 10.000 C 13.022 10.332,13.101 10.533,13.306 10.728 C 13.785 11.181,14.580 11.046,14.893 10.460 C 15.025 10.211,15.015 9.760,14.872 9.516 C 14.628 9.101,14.150 8.915,13.695 9.057 " stroke="none" fill-rule="evenodd" fill="black"></path></svg>