<svg xmlns="http://www.w3.org/2000/svg" width="24" height="24" viewBox="0 0 24 24" fill="none" stroke="currentColor" stroke-width="2" stroke-linecap="round" stroke-linejoin="round"><path d="M14.231 2.200 C 12.103 2.392,10.132 3.309,8.642 4.801 C 8.202 5.241,7.699 5.868,7.593 6.107 C 7.310 6.746,7.784 7.484,8.480 7.491 C 8.856 7.494,9.097 7.352,9.432 6.928 C 10.182 5.978,10.906 5.387,11.940 4.882 C 12.770 4.476,13.508 4.274,14.450 4.194 C 16.274 4.040,18.121 4.639,19.550 5.849 C 19.928 6.169,20.178 6.435,20.568 6.928 C 20.787 7.205,20.888 7.297,21.065 7.384 C 21.732 7.711,22.482 7.245,22.489 6.501 C 22.491 6.216,22.380 5.989,22.019 5.540 C 20.552 3.716,18.479 2.550,16.151 2.242 C 15.700 2.182,14.679 2.160,14.231 2.200 M14.620 6.104 C 13.173 6.241,11.884 6.934,11.066 8.014 C 10.808 8.354,10.745 8.529,10.768 8.841 C 10.799 9.276,11.123 9.634,11.568 9.728 C 11.766 9.769,11.827 9.766,12.028 9.703 C 12.237 9.637,12.308 9.580,12.760 9.121 C 13.218 8.654,13.292 8.596,13.640 8.426 C 14.161 8.171,14.441 8.105,15.000 8.105 C 15.559 8.105,15.839 8.171,16.360 8.426 C 16.708 8.596,16.782 8.654,17.240 9.121 C 17.692 9.580,17.763 9.637,17.972 9.703 C 18.173 9.766,18.234 9.769,18.432 9.728 C 18.877 9.634,19.201 9.276,19.232 8.841 C 19.255 8.529,19.192 8.354,18.934 8.014 C 18.244 7.102,17.101 6.399,15.959 6.183 C 15.642 6.123,14.888 6.079,14.620 6.104 M14.695 10.057 C 14.466 10.129,14.256 10.299,14.128 10.516 C 14.025 10.692,14.019 10.728,14.007 11.349 L 13.993 11.998 9.227 12.009 L 4.460 12.020 4.139 12.121 C 3.168 12.428,2.419 13.182,2.114 14.160 L 2.020 14.460 2.020 17.000 L 2.020 19.540 2.114 19.840 C 2.422 20.827,3.173 21.578,4.160 21.886 L 4.460 21.980 12.000 21.980 L 19.540 21.980 19.840 21.886 C 20.827 21.578,21.578 20.827,21.886 19.840 L 21.980 19.540 21.980 17.000 L 21.980 14.460 21.886 14.160 C 21.581 13.181,20.827 12.423,19.861 12.123 C 19.543 12.024,19.523 12.023,17.773 12.009 L 16.007 11.995 15.993 11.347 C 15.981 10.728,15.975 10.692,15.872 10.516 C 15.628 10.101,15.150 9.915,14.695 10.057 M19.310 14.061 C 19.589 14.144,19.856 14.411,19.939 14.690 C 20.025 14.978,20.030 19.007,19.945 19.290 C 19.872 19.533,19.707 19.740,19.484 19.872 L 19.300 19.980 12.000 19.980 L 4.700 19.980 4.516 19.872 C 4.303 19.747,4.141 19.550,4.058 19.316 C 3.970 19.065,3.972 14.988,4.061 14.690 C 4.140 14.421,4.412 14.143,4.673 14.063 C 4.964 13.974,19.009 13.971,19.310 14.061 M12.695 16.057 C 12.466 16.129,12.256 16.299,12.128 16.516 C 12.036 16.672,12.020 16.745,12.021 17.000 C 12.022 17.332,12.101 17.533,12.306 17.728 C 12.785 18.181,13.580 18.046,13.893 17.460 C 14.025 17.211,14.015 16.760,13.872 16.516 C 13.628 16.101,13.150 15.915,12.695 16.057 M16.695 16.057 C 16.466 16.129,16.256 16.299,16.128 16.516 C 16.036 16.672,16.020 16.745,16.021 17.000 C 16.022 17.332,16.101 17.533,16.306 17.728 C 16.785 18.181,17.580 18.046,17.893 17.460 C 18.025 17.211,18.015 16.760,17.872 16.516 C 17.628 16.101,17.150 15.915,16.695 16.057 " stroke="none" fill-rule="evenodd" fill="black"></path></svg>