<svg xmlns="http://www.w3.org/2000/svg" width="24" height="24" viewBox="0 0 24 24" fill="none" stroke="currentColor" stroke-width="2" stroke-linecap="round" stroke-linejoin="round"><path d="M4.477 4.073 C 3.806 4.249,3.238 4.823,3.060 5.508 C 3.010 5.698,3.000 6.123,3.000 8.000 C 3.000 10.455,3.003 10.491,3.225 10.930 C 3.361 11.199,3.801 11.639,4.070 11.775 C 4.540 12.013,4.078 12.000,12.000 12.000 C 19.922 12.000,19.460 12.013,19.930 11.775 C 20.196 11.640,20.638 11.200,20.771 10.937 C 20.996 10.494,21.000 10.442,20.999 8.014 C 20.999 5.601,20.991 5.496,20.781 5.083 C 20.646 4.816,20.297 4.449,20.017 4.281 C 19.525 3.985,20.100 4.005,12.000 4.005 C 5.266 4.005,4.721 4.010,4.477 4.073 M19.000 8.000 L 19.000 10.000 12.000 10.000 L 5.000 10.000 5.000 8.000 L 5.000 6.000 12.000 6.000 L 19.000 6.000 19.000 8.000 M9.670 15.061 C 9.448 15.142,9.250 15.309,9.128 15.516 C 9.036 15.672,9.020 15.745,9.021 16.000 C 9.021 16.213,9.043 16.340,9.096 16.440 C 9.136 16.517,9.486 16.899,9.873 17.290 L 10.577 18.000 9.873 18.710 C 9.486 19.101,9.139 19.481,9.101 19.555 C 8.872 20.008,9.056 20.601,9.508 20.867 C 9.673 20.964,9.742 20.980,10.000 20.979 C 10.213 20.979,10.340 20.957,10.440 20.904 C 10.517 20.864,10.900 20.514,11.290 20.127 L 12.000 19.423 12.710 20.127 C 13.101 20.514,13.483 20.864,13.560 20.904 C 13.660 20.957,13.787 20.979,14.000 20.979 C 14.258 20.980,14.327 20.964,14.492 20.867 C 14.714 20.737,14.901 20.498,14.965 20.264 C 15.019 20.061,14.989 19.733,14.899 19.555 C 14.861 19.481,14.514 19.101,14.127 18.710 L 13.423 18.000 14.127 17.290 C 14.514 16.899,14.864 16.517,14.904 16.440 C 14.957 16.340,14.979 16.213,14.979 16.000 C 14.980 15.745,14.964 15.672,14.872 15.516 C 14.617 15.083,14.135 14.905,13.657 15.067 C 13.491 15.123,13.345 15.247,12.730 15.854 L 12.000 16.574 11.270 15.854 C 10.655 15.247,10.509 15.123,10.343 15.067 C 10.108 14.987,9.876 14.985,9.670 15.061 " stroke="none" fill-rule="evenodd" fill="black"></path></svg>