<svg xmlns="http://www.w3.org/2000/svg" width="24" height="24" viewBox="0 0 24 24" fill="none" stroke="currentColor" stroke-width="2" stroke-linecap="round" stroke-linejoin="round"><path d="M11.400 2.044 C 9.761 2.229,8.261 3.290,7.526 4.785 C 7.168 5.513,7.021 6.140,7.020 6.940 C 7.020 7.707,7.113 8.069,7.688 9.540 C 8.320 11.157,8.447 11.575,8.447 12.052 C 8.447 12.460,8.355 12.562,7.859 12.699 C 7.682 12.747,7.319 12.774,6.465 12.801 C 4.484 12.864,3.884 13.041,3.136 13.780 C 2.767 14.145,2.566 14.474,2.372 15.029 C 2.033 16.001,1.882 17.869,2.109 18.300 C 2.218 18.508,2.377 18.656,2.600 18.757 C 2.779 18.838,2.810 18.838,12.000 18.838 C 21.190 18.838,21.221 18.838,21.400 18.757 C 21.623 18.656,21.782 18.508,21.891 18.300 C 22.118 17.869,21.967 16.001,21.628 15.029 C 21.205 13.819,20.370 13.124,19.075 12.904 C 18.837 12.863,18.252 12.824,17.535 12.801 C 16.681 12.774,16.318 12.747,16.141 12.699 C 15.644 12.562,15.548 12.456,15.551 12.049 C 15.555 11.565,15.648 11.252,16.259 9.680 C 16.893 8.048,16.980 7.716,16.980 6.940 C 16.979 6.105,16.827 5.486,16.433 4.713 C 15.794 3.461,14.604 2.510,13.240 2.162 C 12.669 2.016,12.019 1.974,11.400 2.044 M12.861 4.129 C 14.290 4.547,15.251 6.088,14.927 7.443 C 14.882 7.631,14.716 8.117,14.559 8.523 C 13.791 10.500,13.644 10.968,13.564 11.686 C 13.416 13.014,13.983 14.004,15.163 14.476 C 15.721 14.699,16.142 14.759,17.420 14.800 C 18.666 14.839,18.897 14.867,19.226 15.018 C 19.577 15.178,19.781 15.591,19.899 16.380 C 19.932 16.600,19.960 16.793,19.960 16.810 C 19.960 16.827,16.377 16.840,11.999 16.840 L 4.037 16.840 4.062 16.630 C 4.130 16.042,4.258 15.593,4.442 15.303 C 4.532 15.161,4.614 15.091,4.774 15.018 C 5.103 14.867,5.334 14.839,6.580 14.800 C 8.164 14.750,8.732 14.624,9.406 14.176 C 10.484 13.460,10.733 12.157,10.135 10.366 C 10.056 10.132,9.812 9.481,9.592 8.920 C 9.085 7.631,8.985 7.263,9.016 6.798 C 9.106 5.416,10.119 4.290,11.499 4.040 C 11.832 3.980,12.500 4.023,12.861 4.129 M4.695 20.057 C 4.466 20.129,4.256 20.299,4.128 20.516 C 4.037 20.672,4.020 20.746,4.020 21.000 C 4.020 21.256,4.036 21.328,4.131 21.489 C 4.256 21.702,4.449 21.864,4.670 21.943 C 4.893 22.022,19.107 22.022,19.330 21.943 C 19.551 21.864,19.744 21.702,19.869 21.489 C 19.964 21.328,19.980 21.256,19.980 21.000 C 19.980 20.746,19.963 20.672,19.872 20.516 C 19.740 20.293,19.533 20.128,19.290 20.055 C 19.027 19.976,4.947 19.978,4.695 20.057 " stroke="none" fill-rule="evenodd" fill="black"></path></svg>