<svg xmlns="http://www.w3.org/2000/svg" width="24" height="24" viewBox="0 0 24 24" fill="none" stroke="currentColor" stroke-width="2" stroke-linecap="round" stroke-linejoin="round"><path d="M2.695 2.057 C 2.466 2.129,2.256 2.299,2.128 2.516 L 2.020 2.700 2.020 5.003 L 2.020 7.306 2.141 7.503 C 2.543 8.156,3.457 8.156,3.859 7.503 C 3.979 7.308,3.980 7.300,3.993 6.653 L 4.007 6.000 12.000 6.000 L 19.993 6.000 20.007 6.653 C 20.020 7.300,20.021 7.308,20.141 7.503 C 20.543 8.156,21.457 8.156,21.859 7.503 L 21.980 7.306 21.980 5.003 L 21.980 2.700 21.871 2.514 C 21.648 2.134,21.208 1.941,20.786 2.035 C 20.515 2.096,20.270 2.275,20.129 2.514 C 20.024 2.693,20.019 2.726,20.007 3.350 L 19.993 4.000 12.000 4.000 L 4.007 4.000 3.993 3.350 C 3.981 2.728,3.975 2.692,3.872 2.516 C 3.628 2.101,3.150 1.915,2.695 2.057 M3.631 11.062 C 3.075 11.197,2.468 11.676,2.230 12.167 C 2.000 12.644,2.001 12.616,2.001 16.082 C 2.000 19.539,1.996 19.479,2.225 19.930 C 2.361 20.199,2.801 20.639,3.070 20.775 C 3.542 21.014,2.989 21.000,11.940 21.000 C 20.908 21.000,20.337 21.015,20.838 20.772 C 21.137 20.627,21.597 20.165,21.755 19.850 C 22.002 19.360,21.999 19.405,21.999 16.000 C 21.999 13.407,21.989 12.859,21.940 12.650 C 21.758 11.878,21.122 11.242,20.350 11.060 C 19.986 10.974,3.986 10.976,3.631 11.062 M5.008 14.153 L 5.020 15.307 5.141 15.503 C 5.209 15.613,5.346 15.756,5.452 15.828 C 5.923 16.144,6.554 15.999,6.859 15.503 L 6.980 15.307 6.992 14.153 L 7.005 13.000 7.499 13.000 L 7.993 13.000 8.007 13.653 C 8.020 14.300,8.021 14.308,8.141 14.503 C 8.543 15.156,9.457 15.156,9.859 14.503 C 9.979 14.308,9.980 14.300,9.993 13.653 L 10.007 13.000 10.501 13.000 L 10.995 13.000 11.008 14.153 L 11.020 15.307 11.141 15.503 C 11.543 16.156,12.457 16.156,12.859 15.503 L 12.980 15.307 12.992 14.153 L 13.005 13.000 13.499 13.000 L 13.993 13.000 14.007 13.653 C 14.020 14.300,14.021 14.308,14.141 14.503 C 14.543 15.156,15.457 15.156,15.859 14.503 C 15.979 14.308,15.980 14.300,15.993 13.653 L 16.007 13.000 16.501 13.000 L 16.995 13.000 17.008 14.153 L 17.020 15.307 17.141 15.503 C 17.543 16.156,18.457 16.156,18.859 15.503 L 18.980 15.307 18.992 14.153 L 19.005 13.000 19.478 13.000 C 19.873 13.000,19.955 13.011,19.976 13.063 C 20.007 13.146,20.007 18.854,19.976 18.937 C 19.954 18.994,19.212 19.000,11.976 19.000 L 4.000 19.000 4.000 16.063 C 4.000 14.448,4.011 13.098,4.024 13.063 C 4.045 13.011,4.127 13.000,4.522 13.000 L 4.995 13.000 5.008 14.153 " stroke="none" fill-rule="evenodd" fill="black"></path></svg>