<svg xmlns="http://www.w3.org/2000/svg" width="24" height="24" viewBox="0 0 24 24" fill="none" stroke="currentColor" stroke-width="2" stroke-linecap="round" stroke-linejoin="round"><path d="M16.640 2.068 C 16.482 2.121,15.575 3.013,9.347 9.235 C 5.180 13.397,2.190 16.415,2.127 16.520 C 2.036 16.672,2.020 16.746,2.020 17.000 C 2.020 17.254,2.036 17.328,2.127 17.480 C 2.261 17.705,6.368 21.805,6.560 21.905 C 6.754 22.006,7.246 22.007,7.440 21.905 C 7.633 21.805,21.736 7.708,21.873 7.480 C 21.964 7.327,21.980 7.254,21.980 7.000 C 21.980 6.746,21.963 6.672,21.873 6.520 C 21.813 6.419,20.834 5.412,19.653 4.235 C 17.748 2.338,17.521 2.124,17.343 2.065 C 17.103 1.986,16.878 1.986,16.640 2.068 M18.300 5.720 L 19.580 7.000 13.290 13.290 L 7.000 19.580 5.710 18.290 L 4.421 17.000 4.959 16.461 L 5.497 15.921 5.959 16.376 C 6.467 16.876,6.591 16.957,6.895 16.988 C 7.295 17.029,7.662 16.842,7.867 16.492 C 7.964 16.327,7.980 16.258,7.979 16.000 C 7.978 15.604,7.931 15.523,7.376 14.959 L 6.922 14.498 7.711 13.709 L 8.501 12.920 8.921 13.343 C 9.406 13.833,9.593 13.957,9.888 13.987 C 10.295 14.029,10.660 13.844,10.867 13.492 C 10.964 13.327,10.980 13.257,10.980 13.000 C 10.980 12.609,10.900 12.473,10.343 11.921 L 9.920 11.501 10.709 10.711 L 11.498 9.922 11.959 10.376 C 12.523 10.931,12.604 10.978,13.000 10.979 C 13.258 10.980,13.327 10.964,13.492 10.867 C 13.844 10.660,14.029 10.295,13.987 9.888 C 13.957 9.593,13.833 9.406,13.343 8.921 L 12.920 8.501 13.709 7.711 L 14.498 6.922 14.959 7.376 C 15.523 7.931,15.604 7.978,16.000 7.979 C 16.258 7.980,16.327 7.964,16.492 7.867 C 16.844 7.660,17.029 7.295,16.987 6.888 C 16.957 6.593,16.833 6.406,16.343 5.921 L 15.920 5.501 16.449 4.971 C 16.741 4.679,16.988 4.440,17.000 4.440 C 17.011 4.440,17.596 5.016,18.300 5.720 " stroke="none" fill-rule="evenodd" fill="black"></path></svg>