<svg xmlns="http://www.w3.org/2000/svg" width="24" height="24" viewBox="0 0 24 24" fill="none" stroke="currentColor" stroke-width="2" stroke-linecap="round" stroke-linejoin="round"><path d="M2.670 2.061 C 2.448 2.142,2.250 2.309,2.128 2.516 C 2.036 2.672,2.020 2.745,2.021 3.000 C 2.021 3.212,2.043 3.341,2.095 3.440 C 2.135 3.517,3.611 5.024,5.374 6.790 L 8.579 10.000 5.374 13.210 C 3.611 14.976,2.135 16.483,2.095 16.560 C 2.043 16.659,2.021 16.788,2.021 17.000 C 2.020 17.255,2.036 17.327,2.127 17.480 C 2.261 17.705,6.368 21.805,6.560 21.905 C 6.754 22.007,7.246 22.007,7.440 21.905 C 7.517 21.865,9.025 20.389,10.790 18.626 L 14.000 15.421 17.210 18.626 C 18.976 20.389,20.483 21.865,20.560 21.905 C 20.659 21.957,20.788 21.979,21.000 21.979 C 21.258 21.980,21.327 21.964,21.492 21.867 C 21.968 21.587,22.139 20.967,21.865 20.508 C 21.810 20.416,17.665 16.243,12.653 11.235 C 4.231 2.820,3.525 2.125,3.343 2.065 C 3.107 1.987,2.874 1.986,2.670 2.061 M16.640 2.068 C 16.485 2.121,16.095 2.495,13.849 4.735 C 11.039 7.538,11.040 7.537,11.040 7.938 C 11.041 8.278,11.107 8.440,11.340 8.667 C 11.571 8.893,11.737 8.960,12.060 8.959 C 12.425 8.958,12.548 8.867,13.561 7.858 L 14.502 6.920 14.921 7.343 C 15.473 7.900,15.609 7.980,16.000 7.980 C 16.257 7.980,16.327 7.964,16.492 7.867 C 16.842 7.662,17.029 7.295,16.988 6.895 C 16.957 6.591,16.876 6.467,16.376 5.959 L 15.921 5.497 16.461 4.959 L 17.000 4.421 18.290 5.710 L 19.579 7.000 17.374 9.210 C 16.161 10.425,15.135 11.483,15.095 11.560 C 15.043 11.659,15.021 11.788,15.021 12.000 C 15.020 12.258,15.036 12.327,15.133 12.492 C 15.413 12.968,16.033 13.139,16.492 12.865 C 16.708 12.737,21.808 7.625,21.905 7.440 C 21.957 7.341,21.979 7.212,21.979 7.000 C 21.980 6.745,21.964 6.673,21.873 6.520 C 21.813 6.419,20.834 5.412,19.653 4.235 C 17.748 2.338,17.521 2.124,17.343 2.065 C 17.102 1.986,16.878 1.986,16.640 2.068 M11.300 12.720 L 12.580 14.000 9.790 16.790 L 7.000 19.580 5.710 18.290 L 4.421 17.000 4.959 16.461 L 5.497 15.921 5.959 16.376 C 6.523 16.931,6.604 16.978,7.000 16.979 C 7.258 16.980,7.327 16.964,7.492 16.867 C 7.842 16.662,8.029 16.295,7.988 15.895 C 7.957 15.591,7.876 15.467,7.376 14.959 L 6.922 14.498 7.711 13.709 L 8.501 12.920 8.921 13.343 C 9.406 13.833,9.593 13.957,9.888 13.987 C 10.295 14.029,10.660 13.844,10.867 13.492 C 10.964 13.327,10.980 13.257,10.980 13.000 C 10.980 12.609,10.900 12.473,10.345 11.923 C 9.975 11.556,9.890 11.440,9.993 11.440 C 10.008 11.440,10.596 12.016,11.300 12.720 " stroke="none" fill-rule="evenodd" fill="black"></path></svg>