<svg xmlns="http://www.w3.org/2000/svg" width="24" height="24" viewBox="0 0 24 24" fill="none" stroke="currentColor" stroke-width="2" stroke-linecap="round" stroke-linejoin="round"><path d="M4.477 3.073 C 3.806 3.249,3.238 3.823,3.060 4.508 C 3.008 4.707,3.000 5.691,3.000 12.000 C 3.000 19.922,2.987 19.460,3.225 19.930 C 3.361 20.199,3.801 20.639,4.070 20.775 C 4.516 21.001,4.499 21.000,7.500 21.000 C 10.501 21.000,10.484 21.001,10.930 20.775 C 11.196 20.640,11.638 20.200,11.771 19.937 C 12.005 19.476,12.000 19.574,12.000 15.624 L 12.000 12.000 15.632 12.000 C 19.581 12.000,19.475 12.006,19.930 11.775 C 20.196 11.640,20.638 11.200,20.771 10.937 C 21.000 10.485,21.000 10.489,20.999 7.514 C 20.999 4.558,20.995 4.505,20.781 4.083 C 20.646 3.816,20.297 3.449,20.017 3.281 C 19.525 2.985,20.100 3.005,12.000 3.005 C 5.266 3.005,4.721 3.010,4.477 3.073 M7.007 5.653 C 7.020 6.300,7.021 6.308,7.141 6.503 C 7.543 7.156,8.457 7.156,8.859 6.503 C 8.979 6.308,8.980 6.300,8.993 5.653 L 9.007 5.000 10.001 5.000 L 10.995 5.000 11.008 6.153 L 11.020 7.307 11.141 7.503 C 11.543 8.156,12.457 8.156,12.859 7.503 L 12.980 7.307 12.992 6.153 L 13.005 5.000 13.999 5.000 L 14.993 5.000 15.007 5.653 C 15.020 6.300,15.021 6.308,15.141 6.503 C 15.446 6.999,16.077 7.144,16.548 6.828 C 16.654 6.756,16.791 6.613,16.859 6.503 C 16.979 6.308,16.980 6.300,16.993 5.653 L 17.007 5.000 18.003 5.000 L 19.000 5.000 19.000 7.500 L 19.000 10.000 15.370 10.002 C 11.323 10.005,11.455 9.996,10.983 10.281 C 10.703 10.449,10.354 10.816,10.219 11.083 C 9.995 11.523,10.000 11.434,10.000 15.368 L 10.000 19.000 7.500 19.000 L 5.000 19.000 5.000 18.000 L 5.000 17.000 5.590 16.998 C 5.977 16.997,6.232 16.978,6.330 16.943 C 6.551 16.864,6.744 16.702,6.869 16.489 C 6.964 16.328,6.980 16.256,6.980 16.000 C 6.980 15.746,6.963 15.672,6.872 15.516 C 6.633 15.110,6.352 15.000,5.554 15.000 L 5.000 15.000 5.000 14.000 L 5.000 13.000 6.090 12.998 C 7.262 12.996,7.357 12.983,7.619 12.783 C 7.696 12.725,7.808 12.592,7.869 12.489 C 7.964 12.328,7.980 12.256,7.980 12.000 C 7.980 11.746,7.963 11.672,7.872 11.516 C 7.813 11.415,7.698 11.282,7.618 11.221 C 7.356 11.022,7.203 11.000,6.054 11.000 L 5.000 11.000 5.000 10.000 L 5.000 9.000 5.590 8.998 C 5.977 8.997,6.232 8.978,6.330 8.943 C 6.551 8.864,6.744 8.702,6.869 8.489 C 6.964 8.328,6.980 8.256,6.980 8.000 C 6.980 7.746,6.963 7.672,6.872 7.516 C 6.633 7.110,6.352 7.000,5.554 7.000 L 5.000 7.000 5.000 6.000 L 5.000 5.000 5.997 5.000 L 6.993 5.000 7.007 5.653 " stroke="none" fill-rule="evenodd" fill="black"></path></svg>