<svg xmlns="http://www.w3.org/2000/svg" width="24" height="24" viewBox="0 0 24 24" fill="none" stroke="currentColor" stroke-width="2" stroke-linecap="round" stroke-linejoin="round"><path d="M12.477 2.073 C 11.806 2.249,11.238 2.823,11.060 3.508 C 10.941 3.962,11.003 4.492,11.225 4.930 C 11.361 5.199,11.801 5.639,12.070 5.775 C 12.659 6.073,13.341 6.073,13.930 5.775 C 14.196 5.640,14.638 5.200,14.771 4.937 C 14.994 4.498,15.052 4.007,14.940 3.529 C 14.858 3.182,14.720 2.927,14.465 2.653 C 14.074 2.232,13.560 2.005,13.000 2.005 C 12.857 2.005,12.622 2.036,12.477 2.073 M9.240 7.526 C 7.443 7.890,6.647 8.067,6.520 8.132 C 6.310 8.240,6.100 8.498,6.039 8.722 C 6.011 8.826,6.001 9.468,6.008 10.593 L 6.020 12.306 6.141 12.503 C 6.543 13.156,7.457 13.156,7.859 12.503 L 7.980 12.306 7.992 11.062 L 8.004 9.818 9.366 9.546 C 10.115 9.397,10.737 9.284,10.748 9.294 C 10.758 9.305,10.591 10.376,10.375 11.674 C 10.005 13.894,9.985 14.045,10.033 14.226 C 10.061 14.331,10.122 14.479,10.168 14.553 C 10.222 14.641,10.910 15.182,12.116 16.087 L 13.980 17.485 14.000 19.396 L 14.020 21.306 14.141 21.503 C 14.543 22.156,15.457 22.156,15.859 21.503 L 15.980 21.306 15.980 19.022 L 15.980 16.738 15.879 16.539 C 15.786 16.356,15.627 16.226,13.939 14.955 C 12.581 13.933,12.102 13.551,12.106 13.495 C 12.118 13.353,12.653 10.140,12.668 10.122 C 12.676 10.113,13.073 10.493,13.551 10.968 C 14.029 11.442,14.474 11.858,14.540 11.890 C 14.821 12.029,17.835 13.000,17.986 13.000 C 18.741 13.000,19.221 12.206,18.874 11.531 C 18.700 11.193,18.588 11.138,16.994 10.605 L 15.538 10.118 14.079 8.658 C 12.477 7.055,12.402 6.995,12.002 7.006 C 11.880 7.009,10.637 7.243,9.240 7.526 M9.291 15.622 C 9.039 15.748,8.950 15.863,8.667 16.426 L 8.445 16.869 6.273 16.435 C 5.079 16.196,4.046 16.000,3.978 16.000 C 3.599 16.000,3.184 16.307,3.060 16.679 C 2.893 17.183,3.143 17.737,3.620 17.921 C 3.786 17.984,8.869 19.000,9.022 19.000 C 9.209 19.000,9.487 18.892,9.653 18.755 C 9.770 18.659,9.900 18.436,10.258 17.721 C 10.760 16.717,10.804 16.571,10.705 16.234 C 10.530 15.635,9.853 15.342,9.291 15.622 " stroke="none" fill-rule="evenodd" fill="black"></path></svg>