<svg xmlns="http://www.w3.org/2000/svg" width="24" height="24" viewBox="0 0 24 24" fill="none" stroke="currentColor" stroke-width="2" stroke-linecap="round" stroke-linejoin="round"><path d="M18.580 2.096 C 18.424 2.171,18.029 2.545,16.774 3.806 C 15.891 4.694,15.135 5.483,15.095 5.560 C 15.043 5.659,15.021 5.788,15.021 6.000 C 15.020 6.258,15.036 6.327,15.133 6.492 C 15.263 6.714,15.502 6.901,15.736 6.965 C 15.939 7.019,16.267 6.989,16.445 6.899 C 16.519 6.861,16.899 6.514,17.290 6.127 L 18.000 5.423 17.999 11.081 C 17.999 17.379,18.013 17.034,17.723 17.620 C 17.439 18.195,16.932 18.646,16.320 18.868 C 16.052 18.965,15.965 18.976,15.500 18.976 C 15.035 18.976,14.948 18.965,14.680 18.868 C 14.068 18.646,13.561 18.195,13.277 17.620 C 12.989 17.039,13.001 17.287,13.001 11.935 C 13.000 6.666,13.006 6.807,12.759 6.071 C 12.094 4.086,10.113 2.810,8.045 3.034 C 7.227 3.123,6.476 3.410,5.857 3.871 C 4.880 4.598,4.269 5.586,4.062 6.775 C 4.008 7.082,4.000 7.749,4.000 11.638 L 4.000 16.145 3.670 16.313 C 2.922 16.693,2.365 17.355,2.114 18.160 C 1.979 18.594,1.979 19.406,2.114 19.840 C 2.421 20.826,3.174 21.579,4.160 21.886 C 4.412 21.964,4.547 21.979,5.000 21.979 C 5.453 21.979,5.588 21.964,5.840 21.886 C 6.826 21.579,7.579 20.826,7.886 19.840 C 8.021 19.406,8.021 18.594,7.886 18.160 C 7.635 17.355,7.078 16.693,6.330 16.313 L 6.000 16.145 6.001 11.703 C 6.001 6.737,5.990 6.962,6.285 6.362 C 6.605 5.713,7.259 5.211,7.980 5.060 C 9.256 4.793,10.480 5.521,10.905 6.800 C 10.974 7.007,10.980 7.317,11.000 12.100 L 11.021 17.180 11.127 17.563 C 11.594 19.262,12.750 20.417,14.437 20.871 C 14.778 20.963,14.895 20.974,15.500 20.974 C 16.105 20.974,16.222 20.963,16.563 20.871 C 18.250 20.417,19.404 19.265,19.874 17.563 L 19.980 17.180 19.991 11.302 L 20.002 5.425 20.711 6.128 C 21.101 6.514,21.483 6.864,21.560 6.904 C 21.660 6.957,21.787 6.979,22.000 6.979 C 22.258 6.980,22.327 6.964,22.492 6.867 C 22.714 6.737,22.901 6.498,22.965 6.264 C 23.019 6.061,22.989 5.733,22.899 5.555 C 22.862 5.481,22.109 4.694,21.226 3.806 C 19.971 2.545,19.576 2.171,19.420 2.096 C 19.151 1.968,18.849 1.968,18.580 2.096 M5.310 18.061 C 5.688 18.173,6.000 18.598,6.000 19.001 C 6.000 19.331,5.784 19.696,5.484 19.872 C 5.328 19.963,5.254 19.980,5.000 19.980 C 4.746 19.980,4.672 19.963,4.516 19.872 C 3.935 19.530,3.833 18.774,4.304 18.303 C 4.583 18.024,4.916 17.944,5.310 18.061 " stroke="none" fill-rule="evenodd" fill="black"></path></svg>