<svg xmlns="http://www.w3.org/2000/svg" width="24" height="24" viewBox="0 0 24 24" fill="none" stroke="currentColor" stroke-width="2" stroke-linecap="round" stroke-linejoin="round"><path d="M4.499 2.040 C 3.363 2.246,2.460 3.049,2.114 4.160 C 1.979 4.594,1.979 5.406,2.114 5.840 C 2.363 6.640,2.928 7.314,3.660 7.684 L 3.980 7.845 4.000 12.513 L 4.021 17.180 4.126 17.563 C 4.595 19.263,5.750 20.417,7.437 20.871 C 7.778 20.963,7.895 20.974,8.500 20.974 C 9.105 20.974,9.222 20.963,9.563 20.871 C 11.250 20.417,12.406 19.262,12.873 17.563 L 12.979 17.180 13.000 12.100 C 13.020 7.317,13.026 7.007,13.095 6.800 C 13.520 5.521,14.744 4.793,16.020 5.060 C 16.741 5.211,17.395 5.713,17.715 6.362 C 18.014 6.970,17.999 6.604,17.999 12.917 L 18.000 18.574 17.270 17.854 C 16.655 17.247,16.509 17.123,16.343 17.067 C 15.865 16.905,15.383 17.083,15.128 17.516 C 15.036 17.672,15.020 17.745,15.021 18.000 C 15.021 18.212,15.043 18.341,15.095 18.440 C 15.135 18.517,15.891 19.306,16.774 20.194 C 18.528 21.957,18.580 21.999,19.000 21.999 C 19.420 21.999,19.472 21.957,21.226 20.194 C 22.109 19.306,22.865 18.517,22.905 18.440 C 22.957 18.341,22.979 18.212,22.979 18.000 C 22.980 17.745,22.964 17.672,22.872 17.516 C 22.617 17.083,22.135 16.905,21.657 17.067 C 21.491 17.123,21.345 17.247,20.730 17.854 L 20.000 18.574 20.000 12.852 C 20.000 6.573,20.009 6.816,19.759 6.071 C 19.095 4.090,17.127 2.818,15.060 3.033 C 14.237 3.119,13.480 3.407,12.857 3.871 C 11.880 4.598,11.269 5.586,11.062 6.775 C 11.008 7.082,11.000 7.780,10.999 11.935 C 10.999 17.287,11.011 17.039,10.723 17.620 C 10.439 18.195,9.932 18.646,9.320 18.868 C 9.052 18.965,8.965 18.976,8.500 18.976 C 8.035 18.976,7.948 18.965,7.680 18.868 C 7.068 18.646,6.561 18.195,6.277 17.620 C 5.991 17.042,6.001 17.248,6.001 12.297 L 6.000 7.853 6.330 7.688 C 7.069 7.318,7.635 6.645,7.886 5.840 C 8.021 5.406,8.021 4.594,7.886 4.160 C 7.581 3.179,6.810 2.407,5.861 2.129 C 5.500 2.023,4.832 1.980,4.499 2.040 M5.310 4.061 C 5.688 4.173,6.000 4.598,6.000 5.001 C 6.000 5.331,5.784 5.696,5.484 5.872 C 5.328 5.963,5.254 5.980,5.000 5.980 C 4.746 5.980,4.672 5.963,4.516 5.872 C 3.935 5.530,3.833 4.774,4.304 4.303 C 4.583 4.024,4.916 3.944,5.310 4.061 " stroke="none" fill-rule="evenodd" fill="black"></path></svg>