<svg xmlns="http://www.w3.org/2000/svg" width="24" height="24" viewBox="0 0 24 24" fill="none" stroke="currentColor" stroke-width="2" stroke-linecap="round" stroke-linejoin="round"><path d="M4.499 2.040 C 3.363 2.246,2.460 3.049,2.114 4.160 C 1.979 4.594,1.979 5.406,2.114 5.840 C 2.421 6.826,3.174 7.579,4.160 7.886 C 4.594 8.021,5.406 8.021,5.840 7.886 C 6.645 7.635,7.318 7.069,7.688 6.330 L 7.853 6.000 12.297 6.001 C 17.263 6.001,17.038 5.990,17.638 6.285 C 18.103 6.515,18.485 6.897,18.715 7.362 C 19.087 8.118,19.090 8.878,18.723 9.620 C 18.439 10.194,17.936 10.643,17.320 10.869 L 17.020 10.980 11.940 11.002 C 6.333 11.027,6.692 11.010,5.947 11.282 C 3.821 12.058,2.575 14.397,3.133 16.563 C 3.562 18.229,4.734 19.403,6.437 19.874 L 6.820 19.980 12.698 19.991 L 18.575 20.002 17.872 20.711 C 17.486 21.101,17.139 21.481,17.101 21.555 C 16.872 22.008,17.056 22.601,17.508 22.867 C 17.673 22.964,17.742 22.980,18.000 22.979 C 18.212 22.979,18.341 22.957,18.440 22.905 C 18.517 22.865,19.306 22.109,20.194 21.226 C 21.957 19.472,21.999 19.420,21.999 19.000 C 21.999 18.578,21.960 18.530,20.175 16.756 C 18.716 15.307,18.519 15.124,18.343 15.066 C 17.863 14.906,17.382 15.084,17.128 15.516 C 17.036 15.672,17.020 15.745,17.021 16.000 C 17.021 16.213,17.043 16.340,17.096 16.440 C 17.136 16.517,17.487 16.900,17.874 17.291 L 18.579 18.002 12.779 17.991 L 6.980 17.980 6.680 17.869 C 6.064 17.643,5.561 17.194,5.277 16.620 C 4.580 15.211,5.276 13.602,6.800 13.095 C 7.007 13.026,7.317 13.020,12.100 13.000 L 17.180 12.979 17.563 12.873 C 18.542 12.604,19.243 12.172,19.904 11.432 C 20.538 10.721,20.939 9.717,20.988 8.717 C 21.103 6.380,19.379 4.329,17.060 4.044 C 16.818 4.015,15.256 4.000,12.277 4.000 L 7.853 4.000 7.688 3.670 C 7.320 2.935,6.631 2.354,5.861 2.129 C 5.500 2.023,4.832 1.980,4.499 2.040 M5.310 4.061 C 5.688 4.173,6.000 4.598,6.000 5.001 C 6.000 5.331,5.784 5.696,5.484 5.872 C 5.328 5.963,5.254 5.980,5.000 5.980 C 4.746 5.980,4.672 5.963,4.516 5.872 C 3.935 5.530,3.833 4.774,4.304 4.303 C 4.583 4.024,4.916 3.944,5.310 4.061 " stroke="none" fill-rule="evenodd" fill="black"></path></svg>