<svg xmlns="http://www.w3.org/2000/svg" width="24" height="24" viewBox="0 0 24 24" fill="none" stroke="currentColor" stroke-width="2" stroke-linecap="round" stroke-linejoin="round"><path d="M8.667 3.062 C 8.447 3.143,8.220 3.336,8.129 3.521 C 8.085 3.610,7.863 4.429,7.635 5.341 L 7.221 7.000 6.057 7.000 C 4.789 7.000,4.648 7.019,4.382 7.221 C 4.302 7.282,4.187 7.415,4.128 7.516 L 4.020 7.700 4.020 8.600 C 4.020 9.095,4.033 9.613,4.049 9.750 L 4.079 10.000 3.909 10.002 C 3.059 10.014,2.216 10.731,2.037 11.596 C 1.959 11.971,2.011 12.946,2.133 13.411 C 2.396 14.411,3.139 15.919,4.001 17.200 C 4.424 17.830,4.937 18.457,5.470 18.996 L 6.000 19.533 6.000 19.898 C 6.000 20.550,6.169 20.977,6.596 21.404 C 6.882 21.690,7.148 21.847,7.508 21.940 C 7.851 22.030,16.149 22.030,16.492 21.940 C 16.852 21.847,17.118 21.690,17.404 21.404 C 17.832 20.976,18.000 20.545,18.000 19.872 L 18.000 19.495 18.215 19.309 C 18.623 18.958,19.441 17.954,20.001 17.120 C 20.651 16.152,21.313 14.926,21.621 14.120 C 21.899 13.393,21.967 13.078,21.988 12.420 C 22.018 11.517,21.901 11.122,21.465 10.653 C 21.077 10.236,20.566 10.007,20.009 10.002 C 19.771 10.000,19.759 9.996,19.778 9.910 C 19.897 9.362,19.977 8.151,19.978 6.880 L 19.980 5.700 19.872 5.516 C 19.813 5.415,19.698 5.282,19.618 5.221 C 19.346 5.013,19.230 5.000,17.704 5.000 C 15.706 5.000,14.873 5.074,13.794 5.344 L 13.249 5.481 11.354 4.295 C 10.313 3.642,9.381 3.084,9.284 3.054 C 9.064 2.987,8.865 2.989,8.667 3.062 M10.227 5.946 C 10.531 6.136,10.876 6.353,10.994 6.428 L 11.208 6.564 10.974 6.780 C 10.745 6.992,10.735 6.996,10.495 6.998 C 10.208 7.000,9.649 7.092,9.409 7.177 C 9.310 7.212,9.240 7.220,9.240 7.197 C 9.240 7.157,9.587 5.745,9.620 5.650 C 9.630 5.623,9.646 5.600,9.656 5.600 C 9.666 5.600,9.923 5.756,10.227 5.946 M17.984 7.510 C 17.929 8.552,17.809 9.751,17.740 9.950 C 17.726 9.989,17.312 10.000,15.849 10.000 L 13.975 10.000 13.906 9.710 C 13.766 9.121,13.471 8.565,13.075 8.141 L 12.835 7.885 12.928 7.824 C 13.132 7.691,13.721 7.439,14.059 7.341 C 14.894 7.099,15.661 7.014,17.075 7.006 L 18.011 7.000 17.984 7.510 M7.288 9.021 C 7.300 9.033,7.269 9.154,7.219 9.291 C 7.170 9.428,7.106 9.644,7.078 9.770 L 7.027 10.000 6.559 10.000 L 6.090 10.000 6.064 9.710 C 6.050 9.550,6.028 9.325,6.014 9.210 L 5.991 9.000 6.629 9.000 C 6.980 9.000,7.276 9.010,7.288 9.021 M10.808 9.045 C 10.925 9.070,11.101 9.131,11.200 9.182 C 11.421 9.294,11.723 9.602,11.837 9.830 L 11.922 10.000 10.500 10.000 L 9.079 10.000 9.175 9.809 C 9.289 9.586,9.597 9.284,9.838 9.161 C 10.134 9.010,10.460 8.971,10.808 9.045 M20.000 12.294 C 20.000 12.664,19.899 13.060,19.660 13.620 C 18.956 15.275,17.454 17.433,16.540 18.104 C 16.069 18.451,16.000 18.618,16.000 19.425 L 16.000 20.000 12.000 20.000 L 8.000 20.000 8.000 19.427 C 8.000 18.575,7.953 18.478,7.288 17.964 C 6.448 17.314,5.346 15.778,4.580 14.188 C 4.160 13.317,4.032 12.918,4.009 12.410 L 3.990 12.000 11.995 12.000 L 20.000 12.000 20.000 12.294 " stroke="none" fill-rule="evenodd" fill="black"></path></svg>