<svg xmlns="http://www.w3.org/2000/svg" width="24" height="24" viewBox="0 0 24 24" fill="none" stroke="currentColor" stroke-width="2" stroke-linecap="round" stroke-linejoin="round"><path d="M2.670 2.061 C 2.448 2.142,2.250 2.309,2.128 2.516 C 2.036 2.672,2.020 2.745,2.021 3.000 C 2.021 3.213,2.043 3.340,2.096 3.440 C 2.136 3.517,2.486 3.899,2.872 4.289 L 3.575 4.998 3.167 5.417 C 2.854 5.739,2.727 5.902,2.623 6.120 C 2.344 6.701,2.344 7.291,2.623 7.878 C 2.751 8.149,2.847 8.261,3.671 9.089 L 4.577 10.001 3.373 11.211 C 2.711 11.876,2.136 12.483,2.095 12.560 C 1.993 12.754,1.993 13.246,2.095 13.440 C 2.196 13.632,5.296 16.739,5.520 16.873 C 5.673 16.964,5.745 16.980,6.000 16.979 C 6.213 16.979,6.341 16.957,6.440 16.905 C 6.517 16.864,7.139 16.275,7.822 15.594 L 9.064 14.357 9.247 14.439 C 9.544 14.570,9.970 14.619,10.308 14.562 C 10.787 14.481,11.103 14.300,11.584 13.833 L 12.004 13.424 13.281 14.701 L 14.558 15.978 14.349 16.021 C 13.825 16.129,13.512 16.497,13.512 17.003 C 13.512 17.423,13.768 17.785,14.175 17.940 C 14.523 18.073,15.336 17.958,15.933 17.691 L 16.166 17.587 16.943 18.363 C 17.370 18.790,17.714 19.158,17.707 19.180 C 17.686 19.246,16.947 19.616,16.611 19.729 C 16.175 19.875,15.735 19.959,15.200 19.998 C 14.947 20.016,14.689 20.051,14.627 20.076 C 14.437 20.150,14.241 20.323,14.128 20.516 C 14.037 20.672,14.020 20.746,14.020 21.000 C 14.020 21.257,14.036 21.327,14.133 21.492 C 14.263 21.714,14.502 21.901,14.736 21.965 C 14.917 22.014,15.556 21.991,16.044 21.918 C 17.016 21.772,18.056 21.369,18.873 20.822 L 19.191 20.610 19.765 21.188 C 20.480 21.906,20.595 21.980,21.000 21.980 C 21.257 21.980,21.327 21.964,21.492 21.867 C 21.968 21.587,22.139 20.967,21.865 20.508 C 21.810 20.416,17.665 16.243,12.653 11.235 C 4.231 2.820,3.525 2.125,3.343 2.065 C 3.107 1.987,2.874 1.986,2.670 2.061 M12.640 2.069 C 12.490 2.121,12.252 2.338,11.230 3.354 L 9.999 4.577 9.150 3.731 C 8.551 3.134,8.247 2.861,8.120 2.803 C 7.887 2.698,7.519 2.694,7.300 2.796 C 7.101 2.889,6.864 3.133,6.782 3.329 C 6.695 3.538,6.704 3.901,6.803 4.120 C 6.920 4.381,12.571 10.038,12.858 10.181 C 13.092 10.298,13.441 10.314,13.671 10.218 C 13.867 10.136,14.111 9.899,14.204 9.700 C 14.245 9.612,14.279 9.450,14.279 9.340 L 14.280 9.140 15.523 7.900 C 16.206 7.218,16.814 6.579,16.873 6.480 C 16.964 6.328,16.980 6.254,16.980 6.000 C 16.980 5.746,16.963 5.672,16.873 5.520 C 16.814 5.421,16.040 4.618,15.153 3.736 C 13.714 2.305,13.519 2.124,13.343 2.066 C 13.102 1.985,12.878 1.986,12.640 2.069 M13.800 5.220 L 14.579 6.000 13.790 6.790 L 13.000 7.580 12.210 6.790 L 11.421 6.000 12.200 5.220 C 12.629 4.791,12.989 4.440,13.000 4.440 C 13.011 4.440,13.371 4.791,13.800 5.220 M7.800 9.220 L 10.580 12.000 10.290 12.290 L 10.000 12.580 7.210 9.790 L 4.421 7.001 4.699 6.721 C 4.853 6.566,4.987 6.440,4.999 6.440 C 5.011 6.440,6.271 7.691,7.800 9.220 M6.800 12.220 L 7.579 13.000 6.790 13.790 L 6.000 14.580 5.210 13.790 L 4.421 13.000 5.200 12.220 C 5.629 11.791,5.989 11.440,6.000 11.440 C 6.011 11.440,6.371 11.791,6.800 12.220 M20.695 14.057 C 20.468 14.128,20.256 14.298,20.133 14.508 C 20.046 14.658,20.025 14.758,19.994 15.192 C 19.973 15.471,19.912 15.898,19.858 16.140 C 19.730 16.714,19.731 16.927,19.865 17.196 C 20.169 17.805,21.035 17.921,21.482 17.411 C 21.620 17.255,21.656 17.176,21.761 16.800 C 21.902 16.300,21.972 15.787,21.976 15.240 C 21.980 14.722,21.976 14.693,21.872 14.516 C 21.628 14.101,21.150 13.915,20.695 14.057 " stroke="none" fill-rule="evenodd" fill="black"></path></svg>