<svg xmlns="http://www.w3.org/2000/svg" width="24" height="24" viewBox="0 0 24 24" fill="none" stroke="currentColor" stroke-width="2" stroke-linecap="round" stroke-linejoin="round"><path d="M2.670 2.061 C 2.448 2.142,2.250 2.309,2.128 2.516 C 2.036 2.672,2.020 2.745,2.021 3.000 C 2.022 3.379,2.074 3.480,2.495 3.912 L 2.819 4.245 2.744 4.372 C 2.444 4.883,2.215 5.470,2.093 6.040 C 2.024 6.360,2.020 6.717,2.020 12.000 C 2.020 17.283,2.024 17.640,2.093 17.960 C 2.526 19.984,4.016 21.474,6.040 21.907 C 6.360 21.976,6.717 21.980,12.000 21.980 C 17.283 21.980,17.640 21.976,17.960 21.907 C 18.530 21.785,19.117 21.556,19.628 21.256 L 19.755 21.181 20.088 21.505 C 20.520 21.926,20.621 21.978,21.000 21.979 C 21.258 21.980,21.327 21.964,21.492 21.867 C 21.968 21.587,22.139 20.967,21.865 20.508 C 21.810 20.416,17.665 16.243,12.653 11.235 C 4.231 2.820,3.525 2.125,3.343 2.065 C 3.107 1.987,2.874 1.986,2.670 2.061 M6.695 2.057 C 6.051 2.258,5.799 3.040,6.198 3.591 C 6.263 3.681,6.403 3.805,6.508 3.867 L 6.700 3.980 12.120 4.000 L 17.540 4.020 17.861 4.121 C 18.823 4.425,19.575 5.177,19.879 6.139 L 19.980 6.460 20.000 11.883 L 20.020 17.306 20.141 17.503 C 20.543 18.156,21.457 18.156,21.859 17.503 L 21.980 17.306 21.980 11.843 C 21.980 6.711,21.976 6.359,21.907 6.040 C 21.625 4.721,20.863 3.576,19.800 2.874 C 19.046 2.375,18.396 2.135,17.552 2.043 C 16.943 1.976,6.911 1.989,6.695 2.057 M6.404 8.299 C 6.124 8.585,6.040 8.738,6.013 9.015 C 5.998 9.166,6.015 9.280,6.078 9.447 C 6.157 9.657,6.280 9.788,7.795 11.271 C 9.288 12.734,9.445 12.875,9.639 12.940 C 10.040 13.073,10.324 12.991,10.820 12.599 L 11.020 12.441 14.648 16.068 C 16.643 18.063,18.267 19.709,18.256 19.726 C 18.245 19.743,18.089 19.808,17.908 19.869 L 17.580 19.980 12.020 19.980 L 6.460 19.980 6.160 19.886 C 5.169 19.577,4.390 18.792,4.112 17.822 L 4.020 17.500 4.020 12.000 C 4.020 6.778,4.024 6.487,4.094 6.240 C 4.134 6.097,4.193 5.918,4.225 5.842 L 4.283 5.703 5.461 6.881 L 6.639 8.059 6.404 8.299 M11.220 6.043 C 10.806 6.085,10.649 6.133,10.451 6.277 C 9.901 6.675,9.982 7.654,10.589 7.942 C 10.840 8.061,10.997 8.077,11.465 8.031 C 11.965 7.982,12.743 8.030,13.280 8.143 C 13.875 8.268,14.511 8.522,15.100 8.871 C 15.552 9.138,15.579 9.050,14.809 9.800 C 14.198 10.394,14.123 10.482,14.060 10.675 C 13.833 11.374,14.378 12.063,15.100 11.989 C 15.216 11.977,15.369 11.937,15.441 11.900 C 15.512 11.863,16.079 11.348,16.700 10.756 C 17.914 9.600,18.000 9.491,18.000 9.117 C 18.000 8.809,17.918 8.638,17.622 8.327 C 16.650 7.304,15.136 6.485,13.647 6.179 C 12.837 6.012,11.991 5.965,11.220 6.043 " stroke="none" fill-rule="evenodd" fill="black"></path></svg>