<svg xmlns="http://www.w3.org/2000/svg" width="24" height="24" viewBox="0 0 24 24" fill="none" stroke="currentColor" stroke-width="2" stroke-linecap="round" stroke-linejoin="round"><path d="M11.695 2.057 C 11.466 2.129,11.256 2.299,11.128 2.516 C 11.023 2.695,11.020 2.720,11.007 3.430 C 11.000 3.831,10.986 4.160,10.977 4.160 C 10.968 4.160,9.772 4.358,8.319 4.600 C 5.574 5.057,5.488 5.077,5.274 5.306 C 5.216 5.369,4.461 6.833,3.597 8.560 L 2.027 11.700 2.010 12.020 C 1.989 12.413,2.109 13.040,2.289 13.479 C 2.714 14.516,3.490 15.292,4.512 15.704 C 6.560 16.529,8.874 15.540,9.705 13.484 C 9.897 13.009,10.012 12.420,9.990 12.020 L 9.973 11.700 8.744 9.246 C 8.068 7.896,7.524 6.783,7.533 6.773 C 7.554 6.753,10.823 6.202,10.930 6.201 C 10.996 6.200,11.000 6.531,11.000 12.600 L 11.000 19.000 8.946 19.000 C 6.717 19.000,6.666 19.004,6.382 19.221 C 6.302 19.282,6.187 19.415,6.128 19.516 C 6.037 19.672,6.020 19.746,6.020 20.000 C 6.020 20.256,6.036 20.328,6.131 20.489 C 6.256 20.702,6.449 20.864,6.670 20.943 C 6.892 21.022,17.108 21.022,17.330 20.943 C 17.551 20.864,17.744 20.702,17.869 20.489 C 17.964 20.328,17.980 20.256,17.980 20.000 C 17.980 19.746,17.963 19.672,17.872 19.516 C 17.813 19.415,17.698 19.282,17.618 19.221 C 17.334 19.004,17.283 19.000,15.054 19.000 L 13.000 19.000 13.000 12.600 C 13.000 6.531,13.004 6.200,13.070 6.201 C 13.177 6.202,16.446 6.753,16.467 6.773 C 16.476 6.783,15.932 7.896,15.256 9.246 L 14.027 11.700 14.010 12.020 C 13.989 12.413,14.109 13.040,14.289 13.479 C 14.714 14.516,15.490 15.292,16.512 15.704 C 18.560 16.529,20.874 15.540,21.705 13.484 C 21.897 13.009,22.012 12.420,21.990 12.020 L 21.973 11.700 20.403 8.560 C 19.539 6.833,18.784 5.369,18.726 5.306 C 18.512 5.077,18.426 5.057,15.681 4.600 C 14.228 4.358,13.032 4.160,13.023 4.160 C 13.014 4.160,13.000 3.831,12.993 3.430 C 12.980 2.720,12.977 2.695,12.872 2.516 C 12.628 2.101,12.150 1.915,11.695 2.057 M7.004 10.250 L 7.988 12.220 7.937 12.470 C 7.865 12.817,7.705 13.095,7.400 13.404 C 7.004 13.806,6.548 14.000,6.000 14.000 C 5.485 14.000,5.038 13.822,4.653 13.465 C 4.361 13.194,4.163 12.868,4.073 12.511 L 4.002 12.235 4.991 10.258 C 5.535 9.170,5.989 8.280,6.000 8.280 C 6.011 8.280,6.463 9.166,7.004 10.250 M19.004 10.250 L 19.988 12.220 19.937 12.470 C 19.865 12.817,19.705 13.095,19.400 13.404 C 19.004 13.806,18.548 14.000,18.000 14.000 C 17.485 14.000,17.038 13.822,16.653 13.465 C 16.361 13.194,16.163 12.868,16.073 12.511 L 16.002 12.235 16.991 10.258 C 17.535 9.170,17.989 8.280,18.000 8.280 C 18.011 8.280,18.463 9.166,19.004 10.250 " stroke="none" fill-rule="evenodd" fill="black"></path></svg>