<svg xmlns="http://www.w3.org/2000/svg" width="24" height="24" viewBox="0 0 24 24" fill="none" stroke="currentColor" stroke-width="2" stroke-linecap="round" stroke-linejoin="round"><path d="M2.670 2.061 C 2.448 2.142,2.250 2.309,2.128 2.516 C 2.036 2.672,2.020 2.745,2.021 3.000 C 2.021 3.213,2.043 3.341,2.095 3.440 C 2.136 3.517,2.756 4.170,3.474 4.890 L 4.779 6.201 3.403 8.950 L 2.027 11.700 2.010 12.020 C 1.989 12.413,2.109 13.040,2.289 13.479 C 2.714 14.516,3.490 15.292,4.512 15.704 C 6.560 16.529,8.874 15.540,9.705 13.484 C 9.897 13.010,10.012 12.420,9.990 12.020 C 9.976 11.749,9.950 11.654,9.823 11.400 L 9.673 11.100 10.336 11.760 L 11.000 12.419 11.000 15.710 L 11.000 19.000 8.946 19.000 C 6.717 19.000,6.666 19.004,6.382 19.221 C 6.302 19.282,6.187 19.415,6.128 19.516 C 6.037 19.672,6.020 19.746,6.020 20.000 C 6.020 20.256,6.036 20.328,6.131 20.489 C 6.256 20.702,6.449 20.864,6.670 20.943 C 6.892 21.022,17.108 21.022,17.330 20.943 C 17.551 20.864,17.744 20.702,17.869 20.489 C 17.964 20.328,17.980 20.256,17.980 20.000 C 17.980 19.746,17.963 19.672,17.872 19.516 C 17.813 19.415,17.698 19.282,17.618 19.221 C 17.334 19.004,17.283 19.000,15.054 19.000 L 13.000 19.000 13.000 16.710 L 13.000 14.421 16.710 18.126 C 18.751 20.164,20.483 21.865,20.560 21.905 C 20.659 21.957,20.788 21.979,21.000 21.979 C 21.258 21.980,21.327 21.964,21.492 21.867 C 21.968 21.587,22.139 20.967,21.865 20.508 C 21.810 20.416,17.665 16.243,12.653 11.235 C 4.231 2.820,3.525 2.125,3.343 2.065 C 3.107 1.987,2.874 1.986,2.670 2.061 M11.695 2.057 C 11.466 2.129,11.256 2.299,11.128 2.516 C 11.023 2.695,11.020 2.720,11.007 3.430 C 11.000 3.831,10.982 4.160,10.967 4.160 C 10.952 4.160,10.530 4.230,10.028 4.316 C 9.249 4.449,9.089 4.488,8.929 4.587 C 8.370 4.932,8.290 5.671,8.762 6.128 C 8.903 6.265,9.018 6.335,9.180 6.382 C 9.398 6.445,9.423 6.443,10.139 6.323 C 10.543 6.256,10.901 6.200,10.935 6.200 C 10.987 6.200,10.997 6.346,11.008 7.253 L 11.020 8.307 11.141 8.503 C 11.446 8.999,12.077 9.144,12.548 8.828 C 12.654 8.756,12.791 8.613,12.859 8.503 L 12.980 8.307 12.992 7.253 C 13.004 6.296,13.011 6.200,13.072 6.201 C 13.177 6.202,16.446 6.753,16.466 6.773 C 16.476 6.783,16.004 7.751,15.418 8.925 C 14.260 11.245,14.253 11.263,14.378 11.645 C 14.469 11.923,14.599 12.085,14.836 12.214 C 15.102 12.359,15.333 12.385,15.617 12.303 C 16.025 12.184,16.073 12.111,17.080 10.088 C 17.574 9.094,17.989 8.280,18.000 8.280 C 18.011 8.280,18.460 9.159,18.997 10.233 C 19.967 12.176,19.973 12.188,19.949 12.389 C 19.897 12.823,19.505 13.410,19.090 13.672 C 18.985 13.738,18.761 13.849,18.592 13.919 C 18.084 14.128,17.847 14.480,17.891 14.960 C 17.929 15.388,18.171 15.685,18.592 15.822 C 18.866 15.911,19.061 15.883,19.535 15.688 C 20.381 15.340,21.064 14.721,21.531 13.880 C 21.825 13.351,22.027 12.518,21.993 11.977 C 21.976 11.724,21.917 11.597,20.418 8.590 C 19.561 6.872,18.808 5.405,18.744 5.331 C 18.680 5.256,18.559 5.160,18.475 5.117 C 18.369 5.063,17.519 4.906,15.681 4.600 C 14.228 4.358,13.032 4.160,13.023 4.160 C 13.014 4.160,13.000 3.831,12.993 3.430 C 12.980 2.720,12.977 2.695,12.872 2.516 C 12.628 2.101,12.150 1.915,11.695 2.057 M7.004 10.250 L 7.988 12.220 7.937 12.470 C 7.865 12.817,7.705 13.095,7.400 13.404 C 7.004 13.806,6.548 14.000,6.000 14.000 C 5.485 14.000,5.038 13.822,4.653 13.465 C 4.361 13.194,4.163 12.868,4.073 12.511 L 4.002 12.235 4.991 10.258 C 5.535 9.170,5.989 8.280,6.000 8.280 C 6.011 8.280,6.463 9.166,7.004 10.250 " stroke="none" fill-rule="evenodd" fill="black"></path></svg>