<svg xmlns="http://www.w3.org/2000/svg" width="24" height="24" viewBox="0 0 24 24" fill="none" stroke="currentColor" stroke-width="2" stroke-linecap="round" stroke-linejoin="round"><path d="M4.695 1.057 C 4.466 1.129,4.256 1.299,4.128 1.516 L 4.020 1.700 4.009 3.911 C 4.001 5.337,4.012 6.176,4.039 6.275 C 4.099 6.498,4.289 6.739,4.508 6.867 L 4.700 6.980 5.590 6.993 L 6.480 7.005 6.480 8.003 L 6.480 9.000 5.686 9.000 C 4.815 9.000,4.631 9.031,4.382 9.221 C 4.302 9.282,4.187 9.415,4.128 9.516 L 4.020 9.700 4.009 11.911 C 4.001 13.337,4.012 14.176,4.039 14.275 C 4.099 14.498,4.289 14.739,4.508 14.867 L 4.700 14.980 5.590 14.993 L 6.480 15.005 6.480 16.003 L 6.480 17.000 5.686 17.000 C 4.815 17.000,4.631 17.031,4.382 17.221 C 4.302 17.282,4.187 17.415,4.128 17.516 L 4.020 17.700 4.020 20.000 L 4.020 22.300 4.131 22.489 C 4.256 22.702,4.449 22.864,4.670 22.943 C 4.890 23.021,10.110 23.021,10.330 22.943 C 10.551 22.864,10.744 22.702,10.869 22.489 L 10.980 22.300 10.980 20.000 L 10.980 17.700 10.872 17.516 C 10.813 17.415,10.698 17.282,10.618 17.221 C 10.369 17.031,10.185 17.000,9.314 17.000 L 8.520 17.000 8.520 16.000 L 8.520 15.000 9.350 14.998 C 10.243 14.996,10.368 14.975,10.619 14.783 C 10.696 14.725,10.808 14.592,10.869 14.489 C 10.976 14.307,10.980 14.277,10.993 13.650 L 11.007 13.000 12.500 13.000 L 13.993 13.000 14.007 13.650 C 14.020 14.277,14.024 14.307,14.131 14.489 C 14.256 14.702,14.449 14.864,14.670 14.943 C 14.890 15.021,20.110 15.021,20.330 14.943 C 20.551 14.864,20.744 14.702,20.869 14.489 L 20.980 14.300 20.980 12.000 L 20.980 9.700 20.872 9.516 C 20.740 9.293,20.533 9.128,20.290 9.055 C 20.022 8.974,14.978 8.974,14.710 9.055 C 14.467 9.128,14.260 9.293,14.128 9.516 C 14.025 9.692,14.019 9.728,14.007 10.350 L 13.993 11.000 12.500 11.000 L 11.007 11.000 10.993 10.350 C 10.981 9.728,10.975 9.692,10.872 9.516 C 10.813 9.415,10.698 9.282,10.618 9.221 C 10.369 9.031,10.185 9.000,9.314 9.000 L 8.520 9.000 8.520 8.003 L 8.520 7.005 9.410 6.993 L 10.300 6.980 10.492 6.867 C 10.711 6.739,10.901 6.498,10.961 6.275 C 10.988 6.176,10.999 5.337,10.991 3.911 L 10.980 1.700 10.872 1.516 C 10.740 1.293,10.533 1.128,10.290 1.055 C 10.031 0.977,4.944 0.979,4.695 1.057 M9.000 4.000 L 9.000 5.000 7.500 5.000 L 6.000 5.000 6.000 4.000 L 6.000 3.000 7.500 3.000 L 9.000 3.000 9.000 4.000 M9.000 12.000 L 9.000 13.000 7.500 13.000 L 6.000 13.000 6.000 12.000 L 6.000 11.000 7.500 11.000 L 9.000 11.000 9.000 12.000 M19.000 12.000 L 19.000 13.000 17.500 13.000 L 16.000 13.000 16.000 12.000 L 16.000 11.000 17.500 11.000 L 19.000 11.000 19.000 12.000 M9.000 20.000 L 9.000 21.000 7.500 21.000 L 6.000 21.000 6.000 20.000 L 6.000 19.000 7.500 19.000 L 9.000 19.000 9.000 20.000 " stroke="none" fill-rule="evenodd" fill="black"></path></svg>