<svg xmlns="http://www.w3.org/2000/svg" width="24" height="24" viewBox="0 0 24 24" fill="none" stroke="currentColor" stroke-width="2" stroke-linecap="round" stroke-linejoin="round"><path d="M11.780 4.025 C 11.736 4.036,9.397 4.965,6.582 6.090 C 1.768 8.013,1.454 8.144,1.298 8.300 C 0.905 8.693,0.907 9.301,1.303 9.696 C 1.464 9.858,1.607 9.923,3.229 10.571 L 4.980 11.272 5.001 13.886 C 5.021 16.459,5.023 16.504,5.110 16.760 C 5.361 17.489,5.924 18.161,6.720 18.678 C 7.659 19.289,8.945 19.711,10.520 19.927 C 11.028 19.996,12.972 19.996,13.480 19.927 C 14.759 19.752,15.689 19.492,16.580 19.061 C 17.239 18.742,17.610 18.481,18.082 18.006 C 18.413 17.671,18.538 17.512,18.668 17.260 C 18.994 16.626,18.975 16.814,18.999 13.886 L 19.020 11.272 20.000 10.880 L 20.980 10.488 21.000 12.897 L 21.020 15.306 21.141 15.503 C 21.543 16.156,22.457 16.156,22.859 15.503 L 22.980 15.306 22.991 12.086 C 23.003 8.452,23.016 8.613,22.703 8.301 C 22.546 8.144,22.240 8.016,17.411 6.085 C 12.218 4.008,12.066 3.952,11.780 4.025 M15.670 7.549 C 17.633 8.334,19.240 8.987,19.240 9.000 C 19.240 9.013,17.611 9.676,15.620 10.472 L 12.000 11.920 8.380 10.472 C 6.389 9.676,4.760 9.013,4.760 9.000 C 4.760 8.956,11.979 6.083,12.040 6.103 C 12.073 6.114,13.707 6.765,15.670 7.549 M9.560 13.106 C 11.619 13.931,11.754 13.980,12.000 13.980 C 12.246 13.980,12.386 13.930,14.620 13.034 L 16.980 12.089 16.991 14.094 L 17.001 16.100 16.890 16.319 C 16.584 16.920,15.385 17.541,14.000 17.815 C 12.382 18.136,10.462 18.037,9.028 17.559 C 8.087 17.245,7.342 16.765,7.112 16.325 L 7.000 16.111 7.000 14.096 L 7.000 12.081 7.190 12.157 C 7.295 12.198,8.361 12.625,9.560 13.106 " stroke="none" fill-rule="evenodd" fill="black"></path></svg>