<svg xmlns="http://www.w3.org/2000/svg" width="24" height="24" viewBox="0 0 24 24" fill="none" stroke="currentColor" stroke-width="2" stroke-linecap="round" stroke-linejoin="round"><path d="M18.513 2.038 C 17.998 2.133,17.535 2.335,17.160 2.630 C 17.061 2.708,16.430 3.328,15.759 4.008 C 14.580 5.201,14.533 5.243,14.430 5.204 C 14.371 5.181,14.164 5.136,13.971 5.103 C 12.341 4.827,10.796 5.164,9.420 6.095 C 9.151 6.277,8.742 6.652,7.800 7.584 C 6.439 8.929,6.233 9.094,5.703 9.265 C 5.410 9.359,5.294 9.371,4.440 9.399 C 3.763 9.422,3.454 9.447,3.337 9.491 C 2.776 9.699,2.324 10.076,2.139 10.490 C 1.936 10.943,1.969 11.476,2.227 11.895 C 2.363 12.117,11.805 21.567,12.061 21.738 C 13.018 22.378,14.235 21.774,14.558 20.500 C 14.585 20.390,14.622 19.886,14.639 19.380 C 14.688 17.938,14.674 17.964,16.416 16.201 C 17.877 14.722,18.145 14.371,18.538 13.423 C 18.985 12.342,19.109 11.056,18.877 9.903 L 18.790 9.473 20.048 8.207 C 21.304 6.940,21.502 6.716,21.691 6.339 C 21.911 5.901,21.980 5.583,21.980 5.000 C 21.980 4.408,21.912 4.099,21.678 3.637 C 21.324 2.935,20.530 2.292,19.780 2.098 C 19.494 2.024,18.775 1.990,18.513 2.038 M19.502 4.139 C 19.968 4.412,20.136 5.037,19.865 5.492 C 19.810 5.584,19.336 6.088,18.811 6.612 L 17.856 7.563 17.719 7.372 C 17.542 7.124,16.875 6.458,16.627 6.280 L 16.434 6.142 17.447 5.135 C 18.347 4.242,18.483 4.121,18.660 4.064 C 18.941 3.975,19.272 4.004,19.502 4.139 M13.420 7.043 C 14.243 7.142,15.075 7.535,15.695 8.120 C 17.245 9.581,17.426 11.964,16.115 13.645 C 16.022 13.763,15.404 14.409,14.741 15.080 C 13.490 16.345,13.288 16.591,13.023 17.168 C 12.774 17.709,12.653 18.245,12.608 19.010 L 12.580 19.481 8.546 15.446 L 4.512 11.412 5.026 11.384 C 5.956 11.333,6.620 11.138,7.315 10.711 C 7.598 10.537,7.876 10.285,8.899 9.277 C 10.201 7.994,10.403 7.815,10.837 7.562 C 11.626 7.101,12.475 6.930,13.420 7.043 M3.695 16.057 C 3.467 16.128,3.256 16.299,3.131 16.513 C 2.981 16.768,2.963 17.196,3.079 17.759 C 3.360 19.122,4.244 20.193,5.512 20.704 C 6.286 21.016,7.122 21.084,7.495 20.865 C 8.248 20.424,8.121 19.305,7.290 19.055 C 7.189 19.025,7.024 19.000,6.922 19.000 C 6.320 19.000,5.676 18.625,5.312 18.063 C 5.122 17.769,5.047 17.525,5.001 17.048 C 4.975 16.768,4.941 16.635,4.865 16.505 C 4.628 16.101,4.145 15.916,3.695 16.057 " stroke="none" fill-rule="evenodd" fill="black"></path></svg>