<svg xmlns="http://www.w3.org/2000/svg" width="24" height="24" viewBox="0 0 24 24" fill="none" stroke="currentColor" stroke-width="2" stroke-linecap="round" stroke-linejoin="round"><path d="M14.695 4.055 C 14.464 4.130,14.255 4.300,14.128 4.516 C 14.037 4.672,14.020 4.746,14.020 5.000 C 14.020 5.256,14.036 5.328,14.131 5.489 C 14.192 5.592,14.304 5.725,14.381 5.783 C 14.622 5.967,14.770 5.996,15.463 5.998 C 16.257 6.000,16.439 6.045,16.697 6.303 C 17.003 6.609,17.000 6.584,17.000 9.044 L 17.000 11.193 16.670 11.302 C 14.712 11.946,13.011 13.624,12.337 15.576 L 12.190 16.000 10.522 16.000 L 8.853 16.000 8.688 15.670 C 8.321 14.938,7.642 14.363,6.861 14.125 C 6.588 14.042,6.458 14.027,6.000 14.027 C 5.542 14.027,5.412 14.042,5.139 14.125 C 4.178 14.418,3.419 15.181,3.114 16.160 C 2.979 16.594,2.979 17.406,3.114 17.840 C 3.421 18.826,4.174 19.579,5.160 19.886 C 5.594 20.021,6.406 20.021,6.840 19.886 C 7.640 19.637,8.314 19.072,8.684 18.340 L 8.845 18.020 11.076 18.000 L 13.306 17.980 13.502 17.859 C 13.807 17.670,13.911 17.488,14.042 16.905 C 14.240 16.026,14.545 15.393,15.086 14.740 C 15.814 13.861,16.737 13.305,17.905 13.042 C 18.488 12.911,18.670 12.807,18.859 12.502 L 18.980 12.306 18.980 9.383 L 18.980 6.460 18.886 6.160 C 18.580 5.180,17.820 4.416,16.861 4.125 C 16.574 4.039,16.451 4.027,15.700 4.015 C 15.072 4.004,14.818 4.015,14.695 4.055 M17.499 14.040 C 16.363 14.246,15.460 15.049,15.114 16.160 C 14.979 16.594,14.979 17.406,15.114 17.840 C 15.421 18.826,16.174 19.579,17.160 19.886 C 17.594 20.021,18.406 20.021,18.840 19.886 C 19.826 19.579,20.579 18.826,20.886 17.840 C 21.021 17.406,21.021 16.594,20.886 16.160 C 20.581 15.179,19.810 14.407,18.861 14.129 C 18.500 14.023,17.832 13.980,17.499 14.040 M6.334 16.064 C 6.698 16.188,7.000 16.613,7.000 17.001 C 7.000 17.331,6.784 17.696,6.484 17.872 C 6.328 17.963,6.254 17.980,6.000 17.980 C 5.746 17.980,5.672 17.963,5.516 17.872 C 4.937 17.531,4.833 16.774,5.301 16.306 C 5.587 16.019,5.952 15.934,6.334 16.064 M18.334 16.064 C 18.698 16.188,19.000 16.613,19.000 17.001 C 19.000 17.331,18.784 17.696,18.484 17.872 C 18.328 17.963,18.254 17.980,18.000 17.980 C 17.746 17.980,17.672 17.963,17.516 17.872 C 16.937 17.531,16.833 16.774,17.301 16.306 C 17.587 16.019,17.952 15.934,18.334 16.064 " stroke="none" fill-rule="evenodd" fill="black"></path></svg>