<svg xmlns="http://www.w3.org/2000/svg" width="24" height="24" viewBox="0 0 24 24" fill="none" stroke="currentColor" stroke-width="2" stroke-linecap="round" stroke-linejoin="round"><path d="M3.477 3.073 C 2.806 3.249,2.238 3.823,2.060 4.508 C 2.008 4.705,2.000 5.464,2.000 10.000 C 2.000 15.733,1.990 15.466,2.225 15.930 C 2.361 16.199,2.801 16.639,3.070 16.775 C 3.506 16.996,3.557 17.000,5.868 17.000 L 8.000 17.000 8.000 18.000 L 8.000 19.000 7.446 19.000 C 6.648 19.000,6.367 19.110,6.128 19.516 C 6.037 19.672,6.020 19.746,6.020 20.000 C 6.020 20.256,6.036 20.328,6.131 20.489 C 6.256 20.702,6.449 20.864,6.670 20.943 C 6.892 21.022,17.108 21.022,17.330 20.943 C 17.551 20.864,17.744 20.702,17.869 20.489 C 17.964 20.328,17.980 20.256,17.980 20.000 C 17.980 19.746,17.963 19.672,17.872 19.516 C 17.633 19.110,17.352 19.000,16.554 19.000 L 16.000 19.000 16.000 18.000 L 16.000 17.000 18.132 17.000 C 20.443 17.000,20.494 16.996,20.930 16.775 C 21.196 16.640,21.638 16.200,21.771 15.937 C 21.995 15.495,22.004 15.395,21.992 13.468 L 21.980 11.700 21.871 11.514 C 21.479 10.848,20.521 10.848,20.129 11.514 L 20.020 11.700 20.008 13.350 L 19.997 15.000 11.998 15.000 L 4.000 15.000 4.000 10.000 L 4.000 5.000 8.590 4.998 C 12.320 4.997,13.208 4.986,13.330 4.943 C 13.551 4.864,13.744 4.702,13.869 4.489 C 13.964 4.328,13.980 4.256,13.980 4.000 C 13.980 3.746,13.963 3.672,13.872 3.516 C 13.813 3.415,13.698 3.282,13.618 3.221 C 13.317 2.992,13.509 3.000,8.424 3.002 C 4.130 3.004,3.718 3.010,3.477 3.073 M16.695 3.057 C 16.466 3.129,16.256 3.299,16.128 3.516 C 16.037 3.672,16.020 3.746,16.020 4.000 C 16.020 4.256,16.036 4.328,16.131 4.489 C 16.192 4.592,16.304 4.725,16.381 4.783 C 16.635 4.977,16.753 4.996,17.699 4.998 L 18.579 5.000 16.874 6.710 C 15.936 7.651,15.138 8.481,15.101 8.555 C 14.872 9.010,15.056 9.601,15.508 9.867 C 15.673 9.964,15.742 9.980,16.000 9.979 C 16.212 9.979,16.341 9.957,16.440 9.905 C 16.517 9.865,17.348 9.065,18.287 8.129 L 19.995 6.427 20.007 7.367 L 20.020 8.307 20.141 8.503 C 20.543 9.156,21.457 9.156,21.859 8.503 L 21.980 8.306 21.991 6.063 C 22.002 4.053,21.996 3.802,21.937 3.646 C 21.845 3.405,21.657 3.204,21.420 3.094 L 21.220 3.001 19.040 3.003 C 17.374 3.005,16.821 3.018,16.695 3.057 M14.000 18.000 L 14.000 19.000 12.000 19.000 L 10.000 19.000 10.000 18.000 L 10.000 17.000 12.000 17.000 L 14.000 17.000 14.000 18.000 " stroke="none" fill-rule="evenodd" fill="black"></path></svg>