<svg xmlns="http://www.w3.org/2000/svg" width="24" height="24" viewBox="0 0 24 24" fill="none" stroke="currentColor" stroke-width="2" stroke-linecap="round" stroke-linejoin="round"><path d="M3.477 3.073 C 2.806 3.249,2.238 3.823,2.060 4.508 C 2.008 4.705,2.000 5.464,2.000 10.000 C 2.000 15.733,1.990 15.466,2.225 15.930 C 2.361 16.199,2.801 16.639,3.070 16.775 C 3.506 16.996,3.557 17.000,5.868 17.000 L 8.000 17.000 8.000 18.000 L 8.000 19.000 7.446 19.000 C 6.648 19.000,6.367 19.110,6.128 19.516 C 6.037 19.672,6.020 19.746,6.020 20.000 C 6.020 20.256,6.036 20.328,6.131 20.489 C 6.256 20.702,6.449 20.864,6.670 20.943 C 6.892 21.022,17.108 21.022,17.330 20.943 C 17.551 20.864,17.744 20.702,17.869 20.489 C 17.964 20.328,17.980 20.256,17.980 20.000 C 17.980 19.746,17.963 19.672,17.872 19.516 C 17.633 19.110,17.352 19.000,16.554 19.000 L 16.000 19.000 16.000 18.000 L 16.000 17.000 18.132 17.000 C 20.443 17.000,20.494 16.996,20.930 16.775 C 21.196 16.640,21.638 16.200,21.771 15.937 C 21.995 15.495,22.004 15.395,21.992 13.468 L 21.980 11.700 21.871 11.514 C 21.479 10.848,20.521 10.848,20.129 11.514 L 20.020 11.700 20.008 13.350 L 19.997 15.000 11.998 15.000 L 4.000 15.000 4.000 10.000 L 4.000 5.000 8.590 4.998 C 12.320 4.997,13.208 4.986,13.330 4.943 C 13.551 4.864,13.744 4.702,13.869 4.489 C 13.964 4.328,13.980 4.256,13.980 4.000 C 13.980 3.746,13.963 3.672,13.872 3.516 C 13.813 3.415,13.698 3.282,13.618 3.221 C 13.317 2.992,13.509 3.000,8.424 3.002 C 4.130 3.004,3.718 3.010,3.477 3.073 M16.670 3.061 C 16.448 3.142,16.250 3.309,16.128 3.516 C 16.036 3.672,16.020 3.745,16.021 4.000 C 16.021 4.213,16.043 4.340,16.096 4.440 C 16.136 4.517,16.486 4.899,16.873 5.290 L 17.577 6.000 16.873 6.710 C 16.486 7.100,16.139 7.481,16.101 7.555 C 15.872 8.008,16.056 8.601,16.508 8.867 C 16.673 8.964,16.742 8.980,17.000 8.979 C 17.213 8.979,17.340 8.957,17.440 8.904 C 17.517 8.864,17.899 8.514,18.290 8.127 L 19.000 7.423 19.710 8.127 C 20.101 8.514,20.483 8.864,20.560 8.904 C 20.660 8.957,20.787 8.979,21.000 8.979 C 21.258 8.980,21.327 8.964,21.492 8.867 C 21.714 8.737,21.901 8.498,21.965 8.264 C 22.019 8.061,21.989 7.733,21.899 7.555 C 21.861 7.481,21.514 7.100,21.127 6.710 L 20.423 6.000 21.127 5.290 C 21.514 4.899,21.864 4.517,21.904 4.440 C 21.957 4.340,21.979 4.213,21.979 4.000 C 21.980 3.745,21.964 3.672,21.872 3.516 C 21.617 3.083,21.135 2.905,20.657 3.067 C 20.491 3.123,20.345 3.247,19.730 3.854 L 19.000 4.574 18.270 3.854 C 17.655 3.247,17.509 3.123,17.343 3.067 C 17.108 2.987,16.876 2.985,16.670 3.061 M14.000 18.000 L 14.000 19.000 12.000 19.000 L 10.000 19.000 10.000 18.000 L 10.000 17.000 12.000 17.000 L 14.000 17.000 14.000 18.000 " stroke="none" fill-rule="evenodd" fill="black"></path></svg>