<svg xmlns="http://www.w3.org/2000/svg" width="24" height="24" viewBox="0 0 24 24" fill="none" stroke="currentColor" stroke-width="2" stroke-linecap="round" stroke-linejoin="round"><path d="M6.499 4.043 C 5.382 4.230,4.454 5.054,4.115 6.160 C 4.045 6.390,4.023 6.559,4.022 6.883 C 4.020 7.285,4.026 7.315,4.141 7.503 C 4.537 8.147,5.457 8.156,5.849 7.520 C 5.927 7.392,5.971 7.249,5.999 7.031 C 6.048 6.645,6.111 6.491,6.301 6.301 C 6.491 6.112,6.645 6.048,7.028 5.999 C 7.392 5.953,7.631 5.827,7.802 5.591 C 8.207 5.032,7.947 4.253,7.290 4.055 C 7.090 3.995,6.811 3.991,6.499 4.043 M10.695 4.057 C 10.466 4.129,10.256 4.299,10.128 4.516 C 10.037 4.672,10.020 4.746,10.020 5.000 C 10.020 5.256,10.036 5.328,10.131 5.489 C 10.256 5.702,10.449 5.864,10.670 5.943 C 10.885 6.020,13.115 6.020,13.330 5.943 C 13.551 5.864,13.744 5.702,13.869 5.489 C 13.964 5.328,13.980 5.256,13.980 5.000 C 13.980 4.746,13.963 4.672,13.872 4.516 C 13.740 4.293,13.533 4.128,13.290 4.055 C 13.039 3.979,10.937 3.981,10.695 4.057 M16.695 4.054 C 16.048 4.267,15.799 5.040,16.198 5.591 C 16.369 5.827,16.608 5.953,16.972 5.999 C 17.355 6.048,17.509 6.112,17.699 6.301 C 17.889 6.491,17.952 6.645,18.001 7.031 C 18.049 7.410,18.184 7.647,18.452 7.828 C 18.923 8.144,19.554 7.998,19.859 7.503 C 19.974 7.315,19.980 7.285,19.978 6.883 C 19.977 6.559,19.955 6.390,19.885 6.160 C 19.586 5.184,18.809 4.404,17.863 4.130 C 17.463 4.015,16.922 3.979,16.695 4.054 M4.695 10.057 C 4.466 10.129,4.256 10.299,4.128 10.516 L 4.020 10.700 4.020 12.003 L 4.020 13.306 4.141 13.503 C 4.543 14.156,5.457 14.156,5.859 13.503 L 5.980 13.306 5.980 12.003 L 5.980 10.700 5.872 10.516 C 5.628 10.101,5.150 9.915,4.695 10.057 M18.695 10.057 C 18.466 10.129,18.256 10.299,18.128 10.516 L 18.020 10.700 18.020 12.003 L 18.020 13.306 18.141 13.503 C 18.543 14.156,19.457 14.156,19.859 13.503 L 19.980 13.306 19.980 12.003 L 19.980 10.700 19.872 10.516 C 19.628 10.101,19.150 9.915,18.695 10.057 M4.695 16.057 C 4.466 16.129,4.256 16.299,4.128 16.516 C 4.029 16.685,4.020 16.734,4.022 17.120 C 4.023 17.440,4.045 17.611,4.115 17.840 C 4.413 18.812,5.179 19.584,6.137 19.877 C 6.481 19.982,7.040 20.026,7.264 19.965 C 7.498 19.901,7.737 19.714,7.867 19.492 C 7.964 19.327,7.980 19.257,7.980 19.000 C 7.980 18.746,7.963 18.672,7.872 18.516 C 7.758 18.323,7.561 18.149,7.375 18.078 C 7.314 18.055,7.130 18.019,6.966 17.998 C 6.623 17.955,6.387 17.835,6.226 17.625 C 6.081 17.434,6.037 17.309,5.997 16.966 C 5.942 16.488,5.701 16.179,5.290 16.055 C 5.068 15.988,4.913 15.989,4.695 16.057 M18.695 16.057 C 18.466 16.129,18.256 16.299,18.128 16.516 C 18.025 16.692,18.019 16.728,18.007 17.350 L 17.993 18.000 17.443 18.000 C 16.648 18.000,16.366 18.111,16.128 18.516 C 16.037 18.672,16.020 18.746,16.020 19.000 C 16.020 19.256,16.036 19.328,16.131 19.489 C 16.256 19.702,16.449 19.864,16.670 19.943 C 16.768 19.978,17.022 19.997,17.407 19.998 L 17.993 20.000 18.007 20.653 C 18.020 21.300,18.021 21.308,18.141 21.503 C 18.209 21.613,18.346 21.756,18.452 21.828 C 18.923 22.144,19.554 21.999,19.859 21.503 C 19.979 21.308,19.980 21.300,19.993 20.653 L 20.007 20.000 20.593 19.998 C 20.978 19.997,21.232 19.978,21.330 19.943 C 21.551 19.864,21.744 19.702,21.869 19.489 C 21.964 19.328,21.980 19.256,21.980 19.000 C 21.980 18.746,21.963 18.672,21.872 18.516 C 21.634 18.111,21.352 18.000,20.557 18.000 L 20.007 18.000 19.993 17.350 C 19.981 16.728,19.975 16.692,19.872 16.516 C 19.628 16.101,19.150 15.915,18.695 16.057 M10.695 18.057 C 10.466 18.129,10.256 18.299,10.128 18.516 C 10.037 18.672,10.020 18.746,10.020 19.000 C 10.020 19.256,10.036 19.328,10.131 19.489 C 10.256 19.702,10.449 19.864,10.670 19.943 C 10.885 20.020,13.115 20.020,13.330 19.943 C 13.551 19.864,13.744 19.702,13.869 19.489 C 13.964 19.328,13.980 19.256,13.980 19.000 C 13.980 18.746,13.963 18.672,13.872 18.516 C 13.740 18.293,13.533 18.128,13.290 18.055 C 13.039 17.979,10.937 17.981,10.695 18.057 " stroke="none" fill-rule="evenodd" fill="black"></path></svg>