<svg xmlns="http://www.w3.org/2000/svg" width="24" height="24" viewBox="0 0 24 24" fill="none" stroke="currentColor" stroke-width="2" stroke-linecap="round" stroke-linejoin="round"><path d="M8.499 3.043 C 7.390 3.231,6.488 4.024,6.114 5.140 L 6.020 5.420 6.009 9.210 L 5.997 13.000 5.889 13.000 C 5.663 13.001,5.001 13.120,4.755 13.204 C 3.847 13.515,3.028 14.170,2.569 14.953 C 1.696 16.441,1.848 18.269,2.954 19.584 C 3.529 20.266,4.331 20.735,5.243 20.921 C 5.618 20.997,5.796 21.000,9.906 20.998 C 13.372 20.997,14.208 20.986,14.330 20.943 C 14.551 20.864,14.744 20.702,14.869 20.489 C 14.964 20.328,14.980 20.256,14.980 20.000 C 14.980 19.746,14.963 19.672,14.872 19.516 C 14.813 19.415,14.698 19.282,14.618 19.221 C 14.319 18.993,14.465 19.000,9.922 19.000 C 5.384 19.000,5.527 19.006,5.083 18.781 C 4.975 18.727,4.782 18.585,4.653 18.465 C 3.665 17.547,3.829 15.981,4.987 15.279 C 5.456 14.995,5.296 15.005,9.630 15.002 C 11.770 15.001,13.520 15.014,13.520 15.032 C 13.520 15.050,13.503 15.081,13.483 15.102 C 13.394 15.195,13.157 15.861,13.079 16.242 C 12.959 16.826,12.980 17.241,13.144 17.508 C 13.446 17.998,14.079 18.143,14.548 17.828 C 14.841 17.630,14.958 17.406,15.001 16.955 C 15.047 16.474,15.122 16.231,15.313 15.937 C 15.573 15.536,15.979 15.219,16.390 15.094 C 16.495 15.063,16.747 15.021,16.952 15.001 C 17.238 14.974,17.365 14.941,17.503 14.860 C 18.248 14.424,18.115 13.303,17.290 13.055 C 17.140 13.010,16.296 13.000,12.554 13.000 L 8.000 13.000 8.000 9.447 C 8.000 5.423,7.986 5.621,8.303 5.303 C 8.627 4.980,8.243 5.000,14.000 5.000 C 19.714 5.000,19.369 4.983,19.679 5.283 C 20.004 5.599,19.978 5.163,20.000 10.523 L 20.020 15.306 20.141 15.503 C 20.543 16.156,21.457 16.156,21.859 15.503 L 21.980 15.306 21.980 10.383 L 21.980 5.460 21.886 5.160 C 21.581 4.182,20.832 3.428,19.861 3.121 L 19.540 3.020 14.120 3.014 C 11.139 3.011,8.609 3.024,8.499 3.043 M16.695 18.057 C 16.466 18.129,16.256 18.299,16.128 18.516 C 16.037 18.672,16.020 18.746,16.020 19.000 C 16.020 19.256,16.036 19.328,16.131 19.489 C 16.256 19.702,16.449 19.864,16.670 19.943 C 16.889 20.021,21.111 20.021,21.330 19.943 C 21.551 19.864,21.744 19.702,21.869 19.489 C 21.964 19.328,21.980 19.256,21.980 19.000 C 21.980 18.746,21.963 18.672,21.872 18.516 C 21.740 18.293,21.533 18.128,21.290 18.055 C 21.033 17.978,16.943 17.979,16.695 18.057 " stroke="none" fill-rule="evenodd" fill="black"></path></svg>