<svg xmlns="http://www.w3.org/2000/svg" width="24" height="24" viewBox="0 0 24 24" fill="none" stroke="currentColor" stroke-width="2" stroke-linecap="round" stroke-linejoin="round"><path d="M2.670 2.061 C 2.448 2.142,2.250 2.309,2.128 2.516 C 2.036 2.672,2.020 2.745,2.021 3.000 C 2.021 3.212,2.043 3.341,2.095 3.440 C 2.135 3.517,2.907 4.321,3.809 5.226 L 5.450 6.872 5.331 7.186 C 4.808 8.559,4.907 10.126,5.606 11.530 C 5.926 12.172,6.283 12.648,6.825 13.157 C 8.303 14.542,10.481 15.178,12.984 14.955 L 13.489 14.910 13.944 15.364 L 14.399 15.818 14.170 16.053 C 13.327 16.912,12.046 17.638,10.900 17.905 C 10.639 17.966,10.432 17.979,9.780 17.975 C 8.913 17.970,8.405 17.903,7.700 17.701 C 7.216 17.562,6.452 17.183,6.040 16.878 C 5.371 16.381,4.598 15.545,3.946 14.612 C 3.698 14.257,3.578 14.151,3.318 14.059 C 2.570 13.796,1.826 14.511,2.041 15.286 C 2.133 15.616,3.066 16.828,3.778 17.543 C 5.148 18.917,6.441 19.577,8.372 19.887 C 8.791 19.955,9.090 19.973,9.820 19.976 C 10.636 19.980,10.790 19.970,11.180 19.888 C 12.546 19.602,13.973 18.881,15.100 17.910 C 15.342 17.701,15.602 17.465,15.679 17.384 L 15.817 17.238 18.119 19.535 C 19.384 20.798,20.483 21.865,20.560 21.905 C 20.659 21.957,20.788 21.979,21.000 21.979 C 21.258 21.980,21.327 21.964,21.492 21.867 C 21.968 21.587,22.139 20.967,21.865 20.508 C 21.810 20.416,17.665 16.243,12.653 11.235 C 4.231 2.820,3.525 2.125,3.343 2.065 C 3.107 1.987,2.874 1.986,2.670 2.061 M10.300 4.024 C 9.591 4.095,8.971 4.215,8.757 4.322 C 8.191 4.607,8.049 5.379,8.475 5.852 C 8.761 6.169,9.124 6.261,9.620 6.141 C 9.752 6.109,10.107 6.061,10.409 6.034 C 11.544 5.933,12.429 6.163,13.400 6.811 C 13.810 7.085,14.569 7.855,14.868 8.302 C 15.324 8.981,15.695 9.859,15.857 10.640 C 15.969 11.181,16.021 12.041,15.967 12.475 C 15.903 12.993,15.908 13.109,16.003 13.320 C 16.176 13.701,16.518 13.919,16.945 13.920 C 17.177 13.920,17.234 13.897,18.085 13.469 C 19.411 12.801,20.384 12.152,21.320 11.311 C 21.991 10.708,22.807 9.711,22.944 9.326 C 23.120 8.833,22.830 8.233,22.333 8.064 C 22.103 7.986,21.948 7.983,21.709 8.055 C 21.433 8.138,21.314 8.243,21.008 8.670 C 20.390 9.533,19.529 10.306,18.390 11.021 L 17.981 11.277 17.915 10.809 C 17.588 8.463,16.381 6.459,14.505 5.142 C 14.142 4.887,13.262 4.442,12.860 4.310 C 12.279 4.120,11.751 4.034,11.080 4.020 C 10.739 4.014,10.388 4.015,10.300 4.024 M11.520 12.971 C 11.520 13.054,10.422 12.859,9.870 12.678 C 8.699 12.295,7.849 11.575,7.362 10.557 C 7.090 9.988,6.951 9.237,7.019 8.698 L 7.047 8.468 9.284 10.704 C 10.514 11.933,11.520 12.954,11.520 12.971 " stroke="none" fill-rule="evenodd" fill="black"></path></svg>