<svg xmlns="http://www.w3.org/2000/svg" width="24" height="24" viewBox="0 0 24 24" fill="none" stroke="currentColor" stroke-width="2" stroke-linecap="round" stroke-linejoin="round"><path d="M7.477 2.073 C 6.806 2.249,6.238 2.823,6.060 3.508 C 5.941 3.962,6.003 4.492,6.225 4.930 C 6.361 5.199,6.801 5.639,7.070 5.775 C 7.653 6.070,8.342 6.073,8.915 5.782 C 9.138 5.670,9.503 5.349,9.644 5.142 L 9.740 5.001 10.313 5.000 C 10.756 5.000,10.899 5.013,10.943 5.057 C 10.986 5.101,11.000 5.234,11.000 5.613 L 11.000 6.111 10.850 6.139 C 10.596 6.185,10.117 6.362,9.760 6.541 C 8.386 7.231,7.424 8.492,7.093 10.040 C 7.025 10.358,7.020 10.682,7.020 14.960 L 7.020 19.540 7.114 19.840 C 7.422 20.827,8.173 21.578,9.160 21.886 L 9.460 21.980 12.000 21.980 L 14.540 21.980 14.840 21.886 C 15.827 21.578,16.578 20.827,16.886 19.840 L 16.980 19.540 16.980 14.960 C 16.980 10.682,16.975 10.358,16.907 10.040 C 16.572 8.476,15.597 7.214,14.180 6.510 C 13.874 6.358,13.386 6.182,13.150 6.139 L 13.000 6.111 13.000 5.613 C 13.000 5.234,13.014 5.101,13.057 5.057 C 13.104 5.011,13.307 5.000,14.147 4.998 C 15.258 4.996,15.359 4.982,15.619 4.783 C 15.696 4.725,15.808 4.592,15.869 4.489 C 15.964 4.328,15.980 4.256,15.980 4.000 C 15.980 3.746,15.963 3.672,15.872 3.516 C 15.813 3.415,15.698 3.282,15.618 3.221 C 15.359 3.023,15.199 3.000,14.111 3.000 L 13.116 3.000 12.990 2.883 C 12.921 2.818,12.764 2.715,12.642 2.653 C 12.441 2.550,12.381 2.540,12.000 2.540 C 11.619 2.540,11.559 2.550,11.358 2.653 C 11.236 2.715,11.079 2.818,11.010 2.883 L 10.884 3.000 10.312 3.000 L 9.740 2.999 9.652 2.870 C 9.185 2.184,8.297 1.859,7.477 2.073 M12.861 8.129 C 13.802 8.404,14.577 9.176,14.878 10.139 L 14.978 10.460 14.991 12.730 L 15.004 15.000 12.000 15.000 L 8.996 15.000 9.009 12.730 L 9.022 10.460 9.122 10.139 C 9.464 9.047,10.372 8.245,11.499 8.040 C 11.832 7.980,12.500 8.023,12.861 8.129 M15.000 18.054 C 15.000 19.203,14.978 19.356,14.779 19.618 C 14.718 19.698,14.585 19.813,14.484 19.872 L 14.300 19.980 12.000 19.980 L 9.700 19.980 9.516 19.872 C 9.415 19.813,9.284 19.700,9.225 19.623 C 9.016 19.349,9.000 19.241,9.000 18.075 L 9.000 17.000 12.000 17.000 L 15.000 17.000 15.000 18.054 " stroke="none" fill-rule="evenodd" fill="black"></path></svg>