<svg xmlns="http://www.w3.org/2000/svg" width="24" height="24" viewBox="0 0 24 24" fill="none" stroke="currentColor" stroke-width="2" stroke-linecap="round" stroke-linejoin="round"><path d="M2.670 2.061 C 2.448 2.142,2.250 2.309,2.128 2.516 C 2.037 2.672,2.020 2.746,2.020 3.000 C 2.020 3.414,2.088 3.514,2.955 4.377 L 3.676 5.095 3.543 5.277 C 2.533 6.661,2.000 8.292,2.000 10.000 C 2.000 14.071,5.008 17.453,9.079 17.958 C 9.569 18.019,10.482 18.010,11.028 17.939 C 12.323 17.770,13.580 17.276,14.644 16.517 L 14.909 16.328 17.624 19.047 C 19.147 20.571,20.419 21.812,20.520 21.873 C 20.673 21.964,20.746 21.980,21.000 21.980 C 21.257 21.980,21.327 21.964,21.492 21.867 C 21.968 21.587,22.139 20.967,21.865 20.508 C 21.810 20.416,17.665 16.243,12.653 11.235 C 4.231 2.820,3.525 2.125,3.343 2.065 C 3.107 1.987,2.874 1.986,2.670 2.061 M9.024 2.061 C 8.257 2.154,7.287 2.424,6.947 2.639 C 6.724 2.781,6.571 3.013,6.514 3.296 C 6.427 3.727,6.672 4.181,7.088 4.360 C 7.365 4.479,7.622 4.474,8.000 4.342 C 8.899 4.029,9.827 3.933,10.761 4.058 C 12.145 4.242,13.266 4.792,14.237 5.763 C 15.040 6.566,15.556 7.479,15.818 8.558 C 16.102 9.732,16.045 10.855,15.640 12.052 C 15.503 12.457,15.498 12.515,15.577 12.778 C 15.668 13.080,15.820 13.264,16.091 13.399 C 16.379 13.543,16.587 13.554,16.891 13.440 C 17.283 13.293,17.450 13.032,17.694 12.180 C 17.895 11.479,17.966 11.022,17.989 10.280 C 18.021 9.243,17.904 8.424,17.583 7.460 C 17.186 6.266,16.647 5.381,15.761 4.465 C 15.037 3.717,14.454 3.289,13.541 2.836 C 12.144 2.142,10.578 1.874,9.024 2.061 M9.295 10.715 C 11.619 13.039,13.439 14.889,13.424 14.913 C 13.374 14.994,12.739 15.353,12.360 15.514 C 9.559 16.704,6.337 15.639,4.814 13.020 C 3.917 11.478,3.756 9.555,4.383 7.887 C 4.550 7.444,5.036 6.560,5.113 6.560 C 5.128 6.560,7.010 8.430,9.295 10.715 " stroke="none" fill-rule="evenodd" fill="black"></path></svg>