<svg xmlns="http://www.w3.org/2000/svg" width="24" height="24" viewBox="0 0 24 24" fill="none" stroke="currentColor" stroke-width="2" stroke-linecap="round" stroke-linejoin="round"><path d="M3.695 3.055 C 3.464 3.130,3.255 3.300,3.128 3.516 C 3.037 3.672,3.020 3.746,3.020 4.000 C 3.020 4.257,3.036 4.327,3.133 4.492 C 3.651 5.374,4.998 5.018,4.998 4.000 C 4.998 3.623,4.792 3.281,4.463 3.112 C 4.265 3.010,3.911 2.984,3.695 3.055 M7.695 3.055 C 7.464 3.130,7.255 3.300,7.128 3.516 C 7.037 3.672,7.020 3.746,7.020 4.000 C 7.020 4.257,7.036 4.327,7.133 4.492 C 7.651 5.374,8.998 5.018,8.998 4.000 C 8.998 3.623,8.792 3.281,8.463 3.112 C 8.265 3.010,7.911 2.984,7.695 3.055 M11.695 3.055 C 11.464 3.130,11.255 3.300,11.128 3.516 C 11.037 3.672,11.020 3.746,11.020 4.000 C 11.020 4.257,11.036 4.327,11.133 4.492 C 11.651 5.374,12.998 5.018,12.998 4.000 C 12.998 3.623,12.792 3.281,12.463 3.112 C 12.265 3.010,11.911 2.984,11.695 3.055 M15.695 3.057 C 15.466 3.129,15.256 3.299,15.128 3.516 C 14.985 3.760,14.975 4.211,15.107 4.460 C 15.490 5.177,16.510 5.177,16.893 4.460 C 17.025 4.211,17.015 3.760,16.872 3.516 C 16.628 3.101,16.150 2.915,15.695 3.057 M19.695 3.055 C 19.464 3.130,19.255 3.300,19.128 3.516 C 19.037 3.672,19.020 3.746,19.020 4.000 C 19.020 4.257,19.036 4.327,19.133 4.492 C 19.651 5.374,20.998 5.018,20.998 4.000 C 20.998 3.623,20.792 3.281,20.463 3.112 C 20.265 3.010,19.911 2.984,19.695 3.055 M4.477 7.073 C 3.806 7.249,3.238 7.823,3.060 8.508 C 3.009 8.702,3.000 9.237,3.000 12.000 C 3.000 15.547,2.996 15.478,3.225 15.930 C 3.361 16.199,3.801 16.639,4.070 16.775 C 4.540 17.013,4.078 17.000,12.000 17.000 C 19.922 17.000,19.460 17.013,19.930 16.775 C 20.196 16.640,20.638 16.200,20.771 15.937 C 21.003 15.479,21.000 15.537,20.999 12.014 C 20.999 8.515,20.999 8.511,20.781 8.083 C 20.646 7.816,20.297 7.449,20.017 7.281 C 19.525 6.985,20.100 7.005,12.000 7.005 C 5.266 7.005,4.721 7.010,4.477 7.073 M19.000 12.000 L 19.000 15.000 12.000 15.000 L 5.000 15.000 5.000 12.000 L 5.000 9.000 12.000 9.000 L 19.000 9.000 19.000 12.000 M3.695 19.055 C 3.464 19.130,3.255 19.300,3.128 19.516 C 3.037 19.672,3.020 19.746,3.020 20.000 C 3.020 20.257,3.036 20.327,3.133 20.492 C 3.651 21.374,4.998 21.018,4.998 20.000 C 4.998 19.623,4.792 19.281,4.463 19.112 C 4.265 19.010,3.911 18.984,3.695 19.055 M7.695 19.055 C 7.464 19.130,7.255 19.300,7.128 19.516 C 7.037 19.672,7.020 19.746,7.020 20.000 C 7.020 20.257,7.036 20.327,7.133 20.492 C 7.651 21.374,8.998 21.018,8.998 20.000 C 8.998 19.623,8.792 19.281,8.463 19.112 C 8.265 19.010,7.911 18.984,7.695 19.055 M11.695 19.055 C 11.464 19.130,11.255 19.300,11.128 19.516 C 11.037 19.672,11.020 19.746,11.020 20.000 C 11.020 20.257,11.036 20.327,11.133 20.492 C 11.651 21.374,12.998 21.018,12.998 20.000 C 12.998 19.623,12.792 19.281,12.463 19.112 C 12.265 19.010,11.911 18.984,11.695 19.055 M15.695 19.055 C 15.464 19.130,15.255 19.300,15.128 19.516 C 15.037 19.672,15.020 19.746,15.020 20.000 C 15.020 20.257,15.036 20.327,15.133 20.492 C 15.651 21.374,16.998 21.018,16.998 20.000 C 16.998 19.623,16.792 19.281,16.463 19.112 C 16.265 19.010,15.911 18.984,15.695 19.055 M19.695 19.055 C 19.464 19.130,19.255 19.300,19.128 19.516 C 19.037 19.672,19.020 19.746,19.020 20.000 C 19.020 20.257,19.036 20.327,19.133 20.492 C 19.651 21.374,20.998 21.018,20.998 20.000 C 20.998 19.623,20.792 19.281,20.463 19.112 C 20.265 19.010,19.911 18.984,19.695 19.055 " stroke="none" fill-rule="evenodd" fill="black"></path></svg>