<svg xmlns="http://www.w3.org/2000/svg" width="24" height="24" viewBox="0 0 24 24" fill="none" stroke="currentColor" stroke-width="2" stroke-linecap="round" stroke-linejoin="round"><path d="M2.670 2.061 C 2.159 2.248,1.880 2.819,2.054 3.318 C 2.110 3.479,2.110 3.515,2.054 3.687 C 2.001 3.850,1.995 4.087,2.012 5.348 C 2.034 6.871,2.052 7.073,2.236 7.786 C 2.850 10.173,4.827 12.150,7.214 12.764 C 7.919 12.946,8.135 12.966,9.589 12.988 L 10.998 13.008 11.009 16.657 L 11.020 20.306 11.141 20.503 C 11.543 21.156,12.457 21.156,12.859 20.503 L 12.980 20.306 12.991 18.153 L 13.003 16.000 13.791 16.000 L 14.580 16.000 17.460 18.883 C 19.081 20.505,20.419 21.812,20.520 21.873 C 20.673 21.964,20.746 21.980,21.000 21.980 C 21.257 21.980,21.327 21.964,21.492 21.867 C 21.968 21.587,22.139 20.967,21.865 20.508 C 21.810 20.416,17.665 16.243,12.653 11.235 C 4.231 2.820,3.525 2.125,3.343 2.065 C 3.107 1.987,2.874 1.986,2.670 2.061 M8.178 3.695 C 7.645 3.943,7.443 4.596,7.741 5.105 C 7.848 5.287,8.005 5.405,8.564 5.720 C 9.245 6.104,9.898 6.757,10.280 7.436 C 10.705 8.191,10.868 8.344,11.297 8.388 C 11.635 8.423,11.862 8.342,12.101 8.102 C 12.451 7.751,12.495 7.373,12.246 6.858 C 11.622 5.567,10.406 4.359,9.102 3.734 C 8.752 3.566,8.479 3.555,8.178 3.695 M6.800 8.224 L 9.580 11.007 8.940 10.987 C 8.059 10.958,7.495 10.824,6.785 10.474 C 5.675 9.928,4.774 8.933,4.320 7.752 C 4.118 7.228,4.000 6.506,4.000 5.802 C 4.000 5.603,4.005 5.440,4.010 5.440 C 4.016 5.440,5.271 6.693,6.800 8.224 M17.540 7.026 C 16.567 7.103,15.865 7.285,15.020 7.680 C 14.024 8.145,12.974 8.977,12.826 9.417 C 12.700 9.793,12.779 10.148,13.052 10.434 C 13.259 10.650,13.463 10.737,13.760 10.737 C 14.078 10.738,14.248 10.662,14.555 10.381 C 15.218 9.775,15.962 9.364,16.760 9.161 C 17.241 9.039,17.765 9.000,18.918 9.000 L 20.000 9.000 20.000 9.131 C 20.000 10.012,19.582 11.212,19.008 11.981 C 18.721 12.365,18.244 12.829,17.860 13.098 C 17.278 13.505,17.134 13.734,17.168 14.201 C 17.198 14.623,17.455 14.925,17.904 15.066 C 18.217 15.165,18.467 15.099,18.919 14.796 C 20.436 13.781,21.514 12.141,21.886 10.280 C 21.968 9.871,21.978 9.703,21.979 8.760 L 21.980 7.700 21.872 7.516 C 21.813 7.415,21.698 7.282,21.618 7.221 C 21.337 7.007,21.257 6.999,19.404 7.007 C 18.467 7.010,17.628 7.019,17.540 7.026 " stroke="none" fill-rule="evenodd" fill="black"></path></svg>