<svg xmlns="http://www.w3.org/2000/svg" width="24" height="24" viewBox="0 0 24 24" fill="none" stroke="currentColor" stroke-width="2" stroke-linecap="round" stroke-linejoin="round"><path d="M2.695 3.055 C 2.464 3.130,2.255 3.300,2.128 3.516 L 2.020 3.700 2.020 5.180 C 2.020 6.747,2.040 7.000,2.222 7.725 C 2.833 10.156,4.800 12.143,7.214 12.764 C 7.919 12.946,8.135 12.966,9.589 12.988 L 10.998 13.008 11.009 16.657 L 11.020 20.306 11.141 20.503 C 11.543 21.156,12.457 21.156,12.859 20.503 L 12.980 20.306 12.991 18.157 L 13.003 16.008 14.411 15.988 C 16.090 15.963,16.427 15.916,17.380 15.573 C 19.324 14.874,20.873 13.325,21.573 11.380 C 21.901 10.468,21.980 9.947,21.980 8.680 L 21.980 7.700 21.871 7.514 C 21.732 7.277,21.485 7.096,21.224 7.038 C 20.909 6.967,17.374 7.011,16.900 7.091 C 15.501 7.328,14.357 7.882,13.275 8.848 C 13.107 8.997,12.961 9.120,12.950 9.120 C 12.940 9.120,12.919 9.017,12.904 8.891 C 12.843 8.368,12.562 7.486,12.274 6.910 C 11.249 4.861,9.374 3.476,7.100 3.091 C 6.591 3.005,2.942 2.975,2.695 3.055 M6.552 5.043 C 8.413 5.246,10.001 6.479,10.680 8.248 C 10.902 8.825,11.000 9.491,11.000 10.422 L 11.000 11.006 9.650 10.989 C 8.204 10.970,8.048 10.952,7.400 10.732 C 5.810 10.189,4.575 8.858,4.162 7.240 C 4.054 6.820,4.000 6.262,4.000 5.582 L 4.000 5.000 5.082 5.000 C 5.676 5.000,6.338 5.019,6.552 5.043 M20.000 9.082 C 20.000 9.301,19.906 9.973,19.839 10.240 C 19.430 11.850,18.186 13.191,16.600 13.732 C 15.952 13.952,15.796 13.970,14.350 13.989 L 13.000 14.006 13.000 13.922 C 13.000 13.698,13.093 13.028,13.162 12.760 C 13.667 10.783,15.391 9.271,17.400 9.044 C 17.565 9.026,18.218 9.008,18.850 9.005 C 19.982 9.000,20.000 9.001,20.000 9.082 " stroke="none" fill-rule="evenodd" fill="black"></path></svg>