<svg xmlns="http://www.w3.org/2000/svg" width="24" height="24" viewBox="0 0 24 24" fill="none" stroke="currentColor" stroke-width="2" stroke-linecap="round" stroke-linejoin="round"><path d="M4.260 3.027 C 3.655 3.163,3.222 3.563,3.058 4.137 C 2.927 4.595,2.925 4.587,4.237 8.450 L 5.444 12.000 4.237 15.550 C 2.903 19.479,2.921 19.409,3.074 19.906 C 3.225 20.398,3.592 20.773,4.066 20.919 C 4.393 21.020,4.645 21.022,4.946 20.925 C 5.294 20.814,21.561 12.851,21.695 12.727 C 22.091 12.360,22.091 11.637,21.695 11.275 C 21.547 11.139,5.079 3.096,4.840 3.042 C 4.657 3.001,4.405 2.995,4.260 3.027 M10.780 8.121 C 13.442 9.424,15.854 10.604,16.140 10.742 L 16.660 10.994 11.938 10.997 L 7.216 11.000 6.288 8.264 C 5.778 6.760,5.360 5.518,5.360 5.505 C 5.360 5.469,5.632 5.600,10.780 8.121 M16.637 13.015 C 16.591 13.058,5.384 18.517,5.370 18.504 C 5.362 18.495,5.773 17.253,6.285 15.744 L 7.216 13.000 11.935 13.000 C 14.530 13.000,16.646 13.007,16.637 13.015 " stroke="none" fill-rule="evenodd" fill="black"></path></svg>