<svg xmlns="http://www.w3.org/2000/svg" width="24" height="24" viewBox="0 0 24 24" fill="none" stroke="currentColor" stroke-width="2" stroke-linecap="round" stroke-linejoin="round"><path d="M3.477 7.073 C 2.806 7.249,2.238 7.823,2.060 8.508 C 2.013 8.687,2.000 9.009,2.000 10.000 C 2.000 11.368,2.018 11.521,2.225 11.930 C 2.361 12.199,2.801 12.639,3.070 12.775 C 3.472 12.979,3.642 13.000,4.868 13.000 L 6.000 13.000 6.000 14.000 L 6.000 15.000 4.446 15.000 C 2.758 15.000,2.658 15.011,2.382 15.221 C 2.302 15.282,2.187 15.415,2.128 15.516 C 2.037 15.672,2.020 15.746,2.020 16.000 C 2.020 16.256,2.036 16.328,2.131 16.489 C 2.192 16.592,2.304 16.725,2.381 16.783 C 2.656 16.993,2.689 16.996,4.542 16.998 C 6.408 17.000,6.503 16.991,6.930 16.775 C 7.196 16.640,7.638 16.200,7.771 15.937 C 7.979 15.527,8.000 15.352,7.999 14.014 C 7.999 12.682,7.974 12.463,7.781 12.083 C 7.646 11.816,7.297 11.449,7.017 11.281 C 6.609 11.035,6.405 11.005,5.130 11.002 L 4.000 11.000 4.000 10.000 L 4.000 9.000 5.590 8.998 C 7.300 8.996,7.346 8.991,7.619 8.783 C 7.696 8.725,7.808 8.592,7.869 8.489 C 7.964 8.328,7.980 8.256,7.980 8.000 C 7.980 7.746,7.963 7.672,7.872 7.516 C 7.813 7.415,7.698 7.282,7.618 7.221 C 7.339 7.008,7.253 7.000,5.424 7.002 C 3.966 7.004,3.705 7.014,3.477 7.073 M9.695 7.057 C 9.466 7.129,9.256 7.299,9.128 7.516 L 9.020 7.700 9.009 11.913 C 9.002 14.672,9.013 16.178,9.039 16.277 C 9.099 16.498,9.290 16.739,9.508 16.867 L 9.700 16.980 11.911 16.991 C 13.337 16.999,14.176 16.988,14.275 16.961 C 14.498 16.901,14.739 16.711,14.867 16.492 C 14.964 16.327,14.980 16.257,14.980 16.000 C 14.980 15.746,14.963 15.672,14.872 15.516 C 14.813 15.415,14.698 15.282,14.618 15.221 C 14.342 15.011,14.242 15.000,12.554 15.000 L 11.000 15.000 11.000 14.000 L 11.000 13.000 12.090 12.998 C 13.262 12.996,13.357 12.983,13.619 12.783 C 13.696 12.725,13.808 12.592,13.869 12.489 C 13.964 12.328,13.980 12.256,13.980 12.000 C 13.980 11.746,13.963 11.672,13.872 11.516 C 13.813 11.415,13.698 11.282,13.618 11.221 C 13.356 11.022,13.203 11.000,12.054 11.000 L 11.000 11.000 11.000 10.000 L 11.000 9.000 12.590 8.998 C 14.300 8.996,14.346 8.991,14.619 8.783 C 14.696 8.725,14.808 8.592,14.869 8.489 C 14.964 8.328,14.980 8.256,14.980 8.000 C 14.980 7.746,14.963 7.672,14.872 7.516 C 14.740 7.293,14.533 7.128,14.290 7.055 C 14.033 6.978,9.943 6.979,9.695 7.057 M17.477 7.073 C 16.806 7.249,16.238 7.823,16.060 8.508 C 16.009 8.702,16.000 9.237,16.000 12.000 C 16.000 15.547,15.996 15.478,16.225 15.930 C 16.361 16.199,16.801 16.639,17.070 16.775 C 17.479 16.982,17.632 17.000,19.000 17.000 C 20.368 17.000,20.521 16.982,20.930 16.775 C 21.196 16.640,21.638 16.200,21.771 15.937 C 22.003 15.479,22.000 15.537,21.999 12.014 C 21.999 8.515,21.999 8.511,21.781 8.083 C 21.551 7.628,21.022 7.203,20.523 7.073 C 20.134 6.972,17.866 6.972,17.477 7.073 M20.000 12.000 L 20.000 15.000 19.000 15.000 L 18.000 15.000 18.000 12.000 L 18.000 9.000 19.000 9.000 L 20.000 9.000 20.000 12.000 " stroke="none" fill-rule="evenodd" fill="black"></path></svg>