<svg xmlns="http://www.w3.org/2000/svg" width="24" height="24" viewBox="0 0 24 24" fill="none" stroke="currentColor" stroke-width="2" stroke-linecap="round" stroke-linejoin="round"><path d="M2.670 2.061 C 2.448 2.142,2.250 2.309,2.128 2.516 C 2.036 2.672,2.020 2.745,2.021 3.000 C 2.022 3.390,2.071 3.479,2.568 3.985 L 2.966 4.391 2.803 4.605 C 2.593 4.881,2.341 5.366,2.216 5.732 C 2.029 6.280,2.000 6.587,2.000 8.029 C 2.000 9.223,2.009 9.411,2.082 9.772 C 2.243 10.562,2.566 11.174,3.155 11.810 L 3.331 12.000 3.155 12.190 C 2.566 12.826,2.243 13.438,2.082 14.228 C 2.009 14.590,2.000 14.777,2.000 16.000 C 2.000 17.224,2.009 17.410,2.083 17.773 C 2.311 18.892,2.985 19.851,3.956 20.436 C 4.285 20.635,4.810 20.832,5.243 20.921 C 5.622 20.998,5.804 21.000,11.991 21.000 C 18.688 21.000,18.690 21.000,19.186 20.825 L 19.349 20.768 19.844 21.267 C 20.476 21.903,20.601 21.980,21.000 21.980 C 21.257 21.980,21.327 21.964,21.492 21.867 C 21.968 21.587,22.139 20.967,21.865 20.508 C 21.810 20.416,17.665 16.243,12.653 11.235 C 4.231 2.820,3.525 2.125,3.343 2.065 C 3.107 1.987,2.874 1.986,2.670 2.061 M7.695 3.057 C 7.466 3.129,7.256 3.299,7.128 3.516 C 7.037 3.672,7.020 3.746,7.020 4.000 C 7.020 4.256,7.036 4.328,7.131 4.489 C 7.256 4.702,7.449 4.864,7.670 4.943 C 7.792 4.987,8.788 4.997,13.040 5.001 C 18.860 5.005,18.533 4.990,19.017 5.281 C 19.294 5.448,19.618 5.787,19.772 6.071 C 19.967 6.432,19.999 6.699,19.999 8.000 C 19.999 9.300,19.968 9.565,19.772 9.931 C 19.625 10.208,19.191 10.643,18.930 10.775 C 18.522 10.982,18.366 11.000,17.022 11.000 C 15.800 11.001,15.777 11.002,15.580 11.095 C 15.072 11.336,14.858 11.919,15.095 12.420 C 15.209 12.660,15.358 12.807,15.600 12.917 C 15.768 12.993,15.859 12.998,16.992 12.999 C 18.367 13.000,18.596 13.031,18.986 13.265 C 19.288 13.446,19.492 13.642,19.686 13.937 C 19.961 14.357,19.971 14.420,19.997 15.943 L 20.020 17.307 20.141 17.503 C 20.543 18.156,21.457 18.156,21.859 17.503 L 21.980 17.306 21.992 15.979 C 22.003 14.773,21.997 14.616,21.923 14.252 C 21.757 13.443,21.437 12.828,20.845 12.190 L 20.669 12.000 20.845 11.810 C 21.434 11.174,21.758 10.557,21.921 9.757 C 21.991 9.413,22.000 9.207,22.000 8.000 C 22.000 6.459,21.964 6.157,21.705 5.516 C 21.172 4.197,20.001 3.269,18.605 3.058 C 18.066 2.977,7.954 2.976,7.695 3.057 M5.264 6.684 L 6.108 7.527 6.050 7.694 C 5.935 8.024,6.048 8.483,6.306 8.728 C 6.566 8.973,7.032 9.071,7.336 8.944 L 7.469 8.889 8.524 9.944 L 9.579 11.000 7.658 11.000 C 5.585 11.000,5.500 10.993,5.083 10.781 C 4.806 10.641,4.446 10.293,4.271 9.998 C 4.018 9.569,3.992 9.360,4.008 7.875 C 4.022 6.584,4.023 6.579,4.128 6.313 C 4.236 6.041,4.349 5.840,4.394 5.840 C 4.408 5.840,4.799 6.220,5.264 6.684 M14.580 16.000 L 17.580 19.000 11.658 19.000 C 6.538 19.000,5.706 18.992,5.508 18.940 C 4.823 18.762,4.249 18.194,4.073 17.523 C 3.976 17.151,3.968 14.936,4.062 14.522 C 4.215 13.850,4.801 13.250,5.477 13.073 C 5.714 13.012,6.033 13.004,8.660 13.002 L 11.580 13.000 14.580 16.000 M6.695 15.057 C 6.466 15.129,6.256 15.299,6.128 15.516 C 6.036 15.672,6.020 15.745,6.021 16.000 C 6.022 16.332,6.101 16.533,6.306 16.728 C 6.785 17.181,7.580 17.046,7.893 16.460 C 8.025 16.211,8.015 15.760,7.872 15.516 C 7.628 15.101,7.150 14.915,6.695 15.057 " stroke="none" fill-rule="evenodd" fill="black"></path></svg>