<svg xmlns="http://www.w3.org/2000/svg" width="24" height="24" viewBox="0 0 24 24" fill="none" stroke="currentColor" stroke-width="2" stroke-linecap="round" stroke-linejoin="round"><path d="M5.358 3.061 C 3.731 3.315,2.417 4.584,2.083 6.227 C 2.009 6.590,2.000 6.776,2.000 8.000 C 2.000 9.223,2.009 9.410,2.082 9.772 C 2.243 10.562,2.566 11.174,3.155 11.810 L 3.331 12.000 3.155 12.190 C 2.566 12.826,2.243 13.438,2.082 14.228 C 2.009 14.590,2.000 14.777,2.000 16.000 C 2.000 17.224,2.009 17.410,2.083 17.773 C 2.311 18.892,2.985 19.851,3.956 20.436 C 4.285 20.635,4.810 20.832,5.243 20.921 C 5.613 20.996,5.794 21.000,8.906 20.998 C 11.536 20.997,12.210 20.986,12.330 20.943 C 12.551 20.864,12.744 20.702,12.869 20.489 C 12.964 20.328,12.980 20.256,12.980 20.000 C 12.980 19.746,12.963 19.672,12.872 19.516 C 12.813 19.415,12.698 19.282,12.618 19.221 C 12.324 18.997,12.378 19.000,8.922 19.000 C 6.228 19.000,5.702 18.991,5.508 18.940 C 4.823 18.762,4.249 18.194,4.073 17.523 C 3.976 17.151,3.968 14.936,4.062 14.522 C 4.215 13.850,4.801 13.250,5.477 13.073 C 5.720 13.010,6.219 13.004,12.054 13.002 C 18.191 13.000,18.378 12.998,18.757 12.921 C 20.384 12.589,21.589 11.384,21.921 9.757 C 21.991 9.413,22.000 9.207,22.000 8.000 C 22.000 6.459,21.964 6.157,21.705 5.516 C 21.172 4.197,20.001 3.269,18.605 3.058 C 18.059 2.976,5.887 2.979,5.358 3.061 M18.523 5.073 C 19.212 5.253,19.795 5.860,19.941 6.549 C 20.023 6.933,20.023 9.067,19.941 9.451 C 19.863 9.821,19.710 10.091,19.400 10.404 C 19.119 10.690,18.854 10.846,18.492 10.940 C 18.147 11.030,5.853 11.030,5.508 10.940 C 4.823 10.762,4.249 10.194,4.073 9.523 C 3.976 9.151,3.968 6.936,4.062 6.522 C 4.215 5.850,4.801 5.250,5.477 5.073 C 5.720 5.010,6.211 5.005,12.000 5.005 C 17.789 5.005,18.280 5.010,18.523 5.073 M6.695 7.057 C 6.466 7.129,6.256 7.299,6.128 7.516 C 6.036 7.672,6.020 7.745,6.021 8.000 C 6.022 8.332,6.101 8.533,6.306 8.728 C 6.785 9.181,7.580 9.046,7.893 8.460 C 8.025 8.211,8.015 7.760,7.872 7.516 C 7.628 7.101,7.150 6.915,6.695 7.057 M17.600 13.584 C 17.399 13.671,17.205 13.869,17.095 14.100 C 17.015 14.271,17.001 14.362,17.000 14.724 L 17.000 15.148 16.708 15.292 C 16.548 15.371,16.334 15.499,16.233 15.576 L 16.050 15.716 15.664 15.503 C 15.211 15.253,14.998 15.209,14.686 15.302 C 14.161 15.458,13.862 16.002,14.014 16.526 C 14.098 16.815,14.269 16.998,14.677 17.238 L 15.014 17.436 15.017 18.002 L 15.020 18.567 14.649 18.786 C 14.230 19.032,14.075 19.208,13.999 19.524 C 13.876 20.035,14.183 20.552,14.700 20.702 C 15.043 20.802,15.254 20.745,15.876 20.388 L 16.052 20.287 16.257 20.441 C 16.369 20.526,16.582 20.652,16.731 20.721 L 17.000 20.848 17.000 21.274 C 17.001 21.639,17.014 21.729,17.095 21.900 C 17.276 22.281,17.595 22.488,18.000 22.488 C 18.405 22.488,18.724 22.281,18.905 21.900 C 18.986 21.729,18.999 21.639,19.000 21.274 L 19.000 20.848 19.269 20.721 C 19.418 20.652,19.633 20.524,19.749 20.437 L 19.959 20.278 20.120 20.380 C 20.666 20.725,20.988 20.810,21.323 20.699 C 21.828 20.531,22.121 20.024,22.001 19.524 C 21.926 19.210,21.771 19.034,21.352 18.784 L 20.980 18.562 20.983 17.999 L 20.986 17.436 21.323 17.238 C 21.731 16.998,21.902 16.815,21.986 16.526 C 22.138 16.002,21.839 15.458,21.314 15.302 C 21.002 15.209,20.789 15.253,20.336 15.503 L 19.950 15.716 19.767 15.576 C 19.666 15.499,19.452 15.371,19.292 15.292 L 19.000 15.148 19.000 14.724 C 18.999 14.362,18.985 14.271,18.905 14.100 C 18.793 13.865,18.599 13.669,18.391 13.582 C 18.203 13.503,17.783 13.504,17.600 13.584 M6.695 15.057 C 6.466 15.129,6.256 15.299,6.128 15.516 C 6.036 15.672,6.020 15.745,6.021 16.000 C 6.022 16.332,6.101 16.533,6.306 16.728 C 6.785 17.181,7.580 17.046,7.893 16.460 C 8.025 16.211,8.015 15.760,7.872 15.516 C 7.628 15.101,7.150 14.915,6.695 15.057 M18.260 17.044 C 18.612 17.138,18.881 17.426,18.968 17.800 C 19.059 18.196,18.854 18.655,18.489 18.869 C 18.328 18.964,18.256 18.980,18.000 18.980 C 17.744 18.980,17.672 18.964,17.511 18.869 C 17.181 18.675,16.971 18.272,17.013 17.915 C 17.088 17.284,17.663 16.883,18.260 17.044 " stroke="none" fill-rule="evenodd" fill="black"></path></svg>