<svg xmlns="http://www.w3.org/2000/svg" width="24" height="24" viewBox="0 0 24 24" fill="none" stroke="currentColor" stroke-width="2" stroke-linecap="round" stroke-linejoin="round"><path d="M11.579 2.039 C 10.582 2.179,9.722 2.908,9.421 3.866 C 9.287 4.293,9.167 4.464,8.928 4.569 C 8.691 4.674,8.518 4.649,8.107 4.446 C 7.251 4.024,6.480 4.018,5.650 4.425 C 4.677 4.904,4.074 5.926,4.132 7.000 C 4.154 7.418,4.236 7.700,4.486 8.218 C 4.655 8.567,4.671 8.688,4.578 8.911 C 4.476 9.155,4.330 9.275,4.021 9.367 C 2.978 9.677,2.274 10.426,2.063 11.448 C 1.882 12.332,2.134 13.228,2.752 13.889 C 3.072 14.232,3.481 14.474,3.986 14.620 C 4.282 14.705,4.468 14.846,4.563 15.055 C 4.676 15.302,4.659 15.413,4.437 15.890 C 4.326 16.130,4.209 16.446,4.178 16.593 C 4.070 17.101,4.122 17.639,4.329 18.160 C 4.585 18.806,5.194 19.415,5.840 19.671 C 6.621 19.981,7.299 19.942,8.161 19.539 C 8.585 19.341,8.701 19.326,8.945 19.437 C 9.159 19.534,9.293 19.716,9.396 20.054 C 9.644 20.865,10.251 21.529,11.003 21.812 C 11.726 22.085,12.495 22.053,13.189 21.721 C 13.630 21.511,13.888 21.268,13.980 20.975 C 14.273 20.044,13.264 19.324,12.433 19.870 C 12.137 20.065,11.698 20.022,11.484 19.778 C 11.421 19.706,11.329 19.524,11.279 19.374 C 10.963 18.410,10.356 17.783,9.460 17.494 C 9.203 17.411,9.054 17.390,8.700 17.385 C 8.165 17.379,7.955 17.428,7.386 17.690 C 7.014 17.862,6.928 17.887,6.773 17.869 C 6.549 17.844,6.332 17.679,6.210 17.439 C 6.085 17.194,6.097 17.060,6.276 16.696 C 6.560 16.120,6.667 15.657,6.626 15.183 C 6.523 13.983,5.780 13.076,4.610 12.720 C 4.284 12.621,4.116 12.470,4.037 12.205 C 3.911 11.786,4.130 11.440,4.620 11.280 C 5.586 10.966,6.213 10.362,6.507 9.460 C 6.594 9.194,6.612 9.062,6.614 8.680 C 6.618 8.133,6.555 7.868,6.297 7.345 C 6.200 7.148,6.120 6.931,6.121 6.863 C 6.123 6.574,6.367 6.257,6.662 6.159 C 6.849 6.098,7.035 6.135,7.359 6.300 C 8.068 6.662,8.751 6.728,9.462 6.503 C 10.351 6.222,10.962 5.593,11.277 4.632 C 11.385 4.304,11.484 4.172,11.697 4.076 C 11.904 3.982,12.096 3.982,12.300 4.075 C 12.531 4.181,12.590 4.265,12.760 4.735 C 12.941 5.234,13.129 5.534,13.462 5.860 C 13.766 6.156,14.120 6.369,14.540 6.508 C 14.809 6.597,14.933 6.614,15.320 6.615 C 15.859 6.617,16.148 6.551,16.603 6.320 C 16.770 6.235,16.972 6.154,17.051 6.139 C 17.336 6.086,17.669 6.280,17.805 6.578 C 17.912 6.814,17.897 6.961,17.737 7.267 C 17.459 7.798,17.384 8.084,17.383 8.620 C 17.382 9.012,17.398 9.155,17.474 9.400 C 17.615 9.855,17.823 10.217,18.121 10.524 C 18.468 10.882,18.750 11.019,19.078 10.990 C 19.612 10.941,20.010 10.527,20.011 10.018 C 20.012 9.712,19.932 9.531,19.678 9.258 C 19.460 9.023,19.361 8.826,19.360 8.623 C 19.360 8.581,19.451 8.350,19.563 8.110 C 19.674 7.870,19.791 7.554,19.822 7.407 C 20.073 6.223,19.453 4.968,18.350 4.425 C 17.504 4.010,16.701 4.027,15.813 4.481 C 15.463 4.660,15.305 4.677,15.055 4.563 C 14.846 4.468,14.705 4.282,14.620 3.986 C 14.394 3.203,13.934 2.650,13.224 2.305 C 13.024 2.208,12.779 2.109,12.680 2.086 C 12.413 2.025,11.853 2.001,11.579 2.039 M11.333 8.059 C 8.886 8.503,7.431 10.942,8.216 13.284 C 8.458 14.006,8.899 14.631,9.521 15.133 C 10.527 15.944,11.971 16.213,13.186 15.817 C 13.830 15.607,14.094 15.406,14.213 15.038 C 14.296 14.781,14.297 14.620,14.219 14.398 C 14.025 13.847,13.465 13.593,12.900 13.799 C 12.287 14.023,11.970 14.051,11.486 13.924 C 10.834 13.753,10.327 13.268,10.095 12.592 C 9.995 12.302,9.995 11.698,10.095 11.408 C 10.211 11.072,10.358 10.838,10.618 10.578 C 10.891 10.306,11.201 10.141,11.600 10.057 C 11.953 9.982,12.133 9.986,12.494 10.078 C 12.884 10.178,13.119 10.315,13.421 10.618 C 13.749 10.948,13.913 11.295,13.969 11.776 C 14.027 12.278,14.062 12.403,14.198 12.591 C 14.613 13.163,15.502 13.115,15.862 12.500 C 16.198 11.927,15.890 10.546,15.225 9.640 C 14.336 8.431,12.777 7.797,11.333 8.059 M18.695 13.057 C 18.342 13.168,18.095 13.451,18.019 13.835 L 17.976 14.050 17.757 14.118 C 17.003 14.351,16.361 14.980,16.118 15.722 C 16.034 15.976,16.020 16.094,16.022 16.520 C 16.024 16.960,16.038 17.056,16.133 17.320 C 16.394 18.039,16.964 18.609,17.680 18.867 C 17.961 18.968,18.033 18.976,18.800 18.992 C 19.702 19.010,19.786 19.030,19.922 19.252 C 20.021 19.415,20.021 19.585,19.922 19.748 C 19.770 19.996,19.746 20.000,18.248 20.000 C 16.774 20.000,16.653 20.014,16.382 20.221 C 16.302 20.282,16.187 20.415,16.128 20.516 C 16.037 20.672,16.020 20.746,16.020 21.000 C 16.020 21.256,16.036 21.328,16.131 21.489 C 16.256 21.702,16.449 21.864,16.670 21.943 C 16.768 21.978,17.022 21.997,17.405 21.998 L 17.991 22.000 18.018 22.179 C 18.054 22.422,18.258 22.712,18.497 22.859 C 18.671 22.966,18.729 22.980,19.000 22.980 C 19.271 22.980,19.329 22.966,19.503 22.859 C 19.752 22.706,19.949 22.419,19.984 22.160 L 20.010 21.966 20.294 21.873 C 21.001 21.642,21.605 21.046,21.868 20.320 C 21.965 20.052,21.976 19.965,21.976 19.500 C 21.976 19.035,21.965 18.948,21.868 18.680 C 21.646 18.068,21.195 17.561,20.620 17.277 C 20.172 17.055,19.869 17.002,19.068 17.001 C 18.319 17.000,18.216 16.974,18.078 16.748 C 17.932 16.508,18.023 16.193,18.276 16.062 C 18.377 16.010,18.612 16.000,19.788 15.998 C 21.285 15.996,21.350 15.989,21.619 15.783 C 21.696 15.725,21.808 15.592,21.869 15.489 C 21.964 15.328,21.980 15.256,21.980 15.000 C 21.980 14.746,21.963 14.672,21.872 14.516 C 21.634 14.111,21.351 14.000,20.559 14.000 L 20.010 14.000 19.983 13.830 C 19.926 13.473,19.648 13.163,19.290 13.055 C 19.068 12.988,18.913 12.989,18.695 13.057 " stroke="none" fill-rule="evenodd" fill="black"></path></svg>