<svg xmlns="http://www.w3.org/2000/svg" width="24" height="24" viewBox="0 0 24 24" fill="none" stroke="currentColor" stroke-width="2" stroke-linecap="round" stroke-linejoin="round"><path d="M2.670 2.061 C 2.448 2.142,2.250 2.309,2.128 2.516 C 2.037 2.672,2.020 2.746,2.020 3.000 C 2.020 3.254,2.036 3.328,2.127 3.480 C 2.186 3.579,2.712 4.136,3.294 4.717 L 4.354 5.773 4.298 5.917 C 4.196 6.177,4.121 6.576,4.121 6.860 C 4.121 7.272,4.210 7.620,4.437 8.110 C 4.656 8.580,4.674 8.682,4.578 8.911 C 4.476 9.155,4.330 9.275,4.021 9.367 C 2.978 9.677,2.274 10.426,2.063 11.448 C 1.882 12.332,2.134 13.228,2.752 13.889 C 3.072 14.232,3.481 14.474,3.986 14.620 C 4.282 14.705,4.468 14.846,4.563 15.055 C 4.676 15.302,4.659 15.413,4.437 15.890 C 4.326 16.130,4.209 16.446,4.178 16.593 C 4.070 17.101,4.122 17.639,4.329 18.160 C 4.585 18.806,5.194 19.415,5.840 19.671 C 6.621 19.981,7.299 19.942,8.161 19.539 C 8.585 19.341,8.701 19.326,8.945 19.437 C 9.154 19.532,9.295 19.718,9.380 20.014 C 9.526 20.519,9.768 20.928,10.111 21.248 C 11.035 22.111,12.413 22.241,13.480 21.564 C 14.048 21.204,14.423 20.694,14.620 20.014 C 14.705 19.718,14.846 19.532,15.055 19.437 C 15.292 19.329,15.424 19.342,15.761 19.504 C 16.337 19.782,16.680 19.877,17.120 19.878 C 17.421 19.879,17.817 19.807,18.083 19.702 L 18.227 19.646 19.283 20.706 C 19.864 21.288,20.421 21.814,20.520 21.873 C 20.672 21.964,20.746 21.980,21.000 21.980 C 21.257 21.980,21.327 21.964,21.492 21.867 C 21.968 21.587,22.139 20.967,21.865 20.508 C 21.810 20.416,17.665 16.243,12.653 11.235 C 4.231 2.820,3.525 2.125,3.343 2.065 C 3.107 1.987,2.874 1.986,2.670 2.061 M11.579 2.039 C 10.582 2.179,9.723 2.907,9.420 3.866 C 9.283 4.300,9.216 4.399,8.926 4.596 C 8.256 5.051,8.314 5.976,9.035 6.339 C 9.397 6.522,9.807 6.437,10.290 6.080 C 10.730 5.755,11.036 5.317,11.248 4.711 C 11.393 4.294,11.476 4.176,11.697 4.076 C 11.904 3.982,12.096 3.982,12.300 4.075 C 12.531 4.181,12.590 4.265,12.760 4.735 C 12.941 5.234,13.129 5.534,13.462 5.860 C 13.766 6.156,14.120 6.369,14.540 6.508 C 14.809 6.597,14.933 6.614,15.320 6.615 C 15.859 6.617,16.148 6.551,16.603 6.320 C 16.968 6.135,17.146 6.096,17.338 6.159 C 17.633 6.257,17.877 6.574,17.879 6.863 C 17.880 6.931,17.800 7.148,17.703 7.345 C 17.445 7.868,17.382 8.133,17.386 8.680 C 17.388 9.062,17.406 9.194,17.493 9.460 C 17.785 10.357,18.411 10.964,19.368 11.277 C 19.696 11.385,19.828 11.484,19.924 11.697 C 20.018 11.904,20.018 12.097,19.924 12.300 C 19.818 12.530,19.695 12.626,19.379 12.723 C 18.725 12.925,18.186 13.310,17.847 13.818 C 17.554 14.255,17.496 14.529,17.621 14.882 C 17.708 15.129,17.842 15.286,18.071 15.411 C 18.344 15.560,18.583 15.588,18.845 15.502 C 19.113 15.414,19.291 15.277,19.419 15.058 C 19.553 14.830,19.725 14.703,20.014 14.620 C 20.842 14.381,21.459 13.838,21.788 13.060 C 21.902 12.793,22.000 12.300,22.000 12.000 C 22.000 11.866,21.971 11.618,21.937 11.448 C 21.727 10.428,21.071 9.723,20.017 9.383 C 19.665 9.269,19.525 9.158,19.422 8.911 C 19.326 8.682,19.344 8.580,19.563 8.110 C 19.674 7.870,19.791 7.554,19.822 7.407 C 20.073 6.223,19.453 4.968,18.350 4.425 C 17.504 4.010,16.701 4.027,15.813 4.481 C 15.463 4.660,15.305 4.677,15.055 4.563 C 14.846 4.468,14.705 4.282,14.620 3.986 C 14.394 3.203,13.934 2.650,13.224 2.305 C 13.024 2.208,12.779 2.109,12.680 2.086 C 12.413 2.025,11.853 2.001,11.579 2.039 M8.419 10.234 C 7.245 12.650,8.694 15.478,11.344 15.940 C 12.158 16.081,12.989 15.958,13.766 15.581 L 14.032 15.451 15.026 16.448 C 15.979 17.404,16.013 17.444,15.860 17.413 C 15.595 17.361,14.959 17.383,14.680 17.454 C 13.739 17.695,13.050 18.369,12.722 19.371 C 12.578 19.810,12.360 20.000,12.000 20.000 C 11.640 20.000,11.422 19.810,11.278 19.371 C 10.963 18.411,10.355 17.783,9.460 17.494 C 9.203 17.411,9.054 17.390,8.700 17.385 C 8.165 17.379,7.955 17.428,7.386 17.690 C 7.014 17.862,6.928 17.887,6.773 17.869 C 6.549 17.844,6.332 17.679,6.210 17.439 C 6.085 17.194,6.097 17.060,6.276 16.696 C 6.560 16.120,6.667 15.657,6.626 15.183 C 6.523 13.983,5.780 13.076,4.610 12.720 C 4.284 12.621,4.116 12.470,4.037 12.205 C 3.911 11.786,4.130 11.440,4.620 11.280 C 5.587 10.966,6.218 10.357,6.505 9.460 C 6.615 9.118,6.653 8.528,6.589 8.160 L 6.557 7.980 7.553 8.974 L 8.549 9.968 8.419 10.234 M13.140 8.307 C 12.747 8.397,12.487 8.611,12.361 8.945 C 12.265 9.204,12.260 9.320,12.339 9.583 C 12.420 9.853,12.591 10.046,12.910 10.224 C 13.280 10.431,13.527 10.675,13.763 11.065 C 13.962 11.394,14.050 11.482,14.320 11.622 C 14.524 11.727,14.894 11.719,15.132 11.604 C 15.504 11.424,15.760 10.967,15.700 10.589 C 15.639 10.206,15.200 9.517,14.748 9.093 C 14.187 8.569,13.488 8.227,13.140 8.307 M11.298 12.718 C 11.957 13.378,12.485 13.928,12.472 13.941 C 12.459 13.955,12.314 13.976,12.150 13.988 C 10.912 14.082,9.886 13.021,10.018 11.784 C 10.034 11.639,10.059 11.520,10.073 11.520 C 10.088 11.520,10.640 12.059,11.298 12.718 " stroke="none" fill-rule="evenodd" fill="black"></path></svg>