<svg xmlns="http://www.w3.org/2000/svg" width="24" height="24" viewBox="0 0 24 24" fill="none" stroke="currentColor" stroke-width="2" stroke-linecap="round" stroke-linejoin="round"><path d="M11.579 2.039 C 10.582 2.179,9.722 2.908,9.421 3.866 C 9.287 4.293,9.167 4.464,8.928 4.569 C 8.691 4.674,8.518 4.649,8.107 4.446 C 7.251 4.024,6.480 4.018,5.650 4.425 C 4.677 4.904,4.074 5.926,4.132 7.000 C 4.154 7.418,4.236 7.700,4.486 8.218 C 4.655 8.567,4.671 8.688,4.578 8.911 C 4.476 9.155,4.330 9.275,4.021 9.367 C 2.978 9.677,2.274 10.426,2.063 11.448 C 1.882 12.332,2.134 13.228,2.752 13.889 C 3.072 14.232,3.481 14.474,3.986 14.620 C 4.282 14.705,4.468 14.846,4.563 15.055 C 4.676 15.302,4.659 15.413,4.437 15.890 C 4.326 16.130,4.209 16.446,4.178 16.593 C 4.070 17.101,4.122 17.639,4.329 18.160 C 4.585 18.806,5.194 19.415,5.840 19.671 C 6.621 19.981,7.299 19.942,8.161 19.539 C 8.585 19.341,8.701 19.326,8.945 19.437 C 9.169 19.538,9.289 19.715,9.421 20.134 C 9.654 20.876,10.211 21.483,10.940 21.789 C 11.201 21.899,11.701 22.000,11.968 21.998 C 12.524 21.994,12.940 21.621,12.989 21.086 C 13.041 20.505,12.660 20.074,12.031 20.004 C 11.868 19.985,11.697 19.950,11.651 19.926 C 11.503 19.847,11.369 19.648,11.278 19.371 C 10.963 18.411,10.355 17.783,9.460 17.494 C 9.203 17.411,9.054 17.390,8.700 17.385 C 8.165 17.379,7.955 17.428,7.386 17.690 C 7.014 17.862,6.928 17.887,6.773 17.869 C 6.549 17.844,6.332 17.679,6.210 17.439 C 6.085 17.194,6.097 17.060,6.276 16.696 C 6.560 16.120,6.667 15.657,6.626 15.183 C 6.523 13.983,5.780 13.076,4.610 12.720 C 4.284 12.621,4.116 12.470,4.037 12.205 C 3.911 11.786,4.130 11.440,4.620 11.280 C 5.586 10.966,6.213 10.362,6.507 9.460 C 6.594 9.194,6.612 9.062,6.614 8.680 C 6.618 8.133,6.555 7.868,6.297 7.345 C 6.200 7.148,6.120 6.931,6.121 6.863 C 6.123 6.574,6.367 6.257,6.662 6.159 C 6.849 6.098,7.035 6.135,7.359 6.300 C 8.068 6.662,8.751 6.728,9.462 6.503 C 10.351 6.222,10.962 5.593,11.277 4.632 C 11.385 4.304,11.484 4.172,11.697 4.076 C 11.904 3.982,12.096 3.982,12.300 4.075 C 12.531 4.181,12.590 4.265,12.760 4.735 C 12.941 5.234,13.129 5.534,13.462 5.860 C 13.766 6.156,14.120 6.369,14.540 6.508 C 14.809 6.597,14.933 6.614,15.320 6.615 C 15.859 6.617,16.148 6.551,16.603 6.320 C 16.968 6.135,17.146 6.096,17.338 6.159 C 17.633 6.257,17.877 6.574,17.879 6.863 C 17.880 6.931,17.800 7.148,17.703 7.345 C 17.445 7.868,17.382 8.133,17.386 8.680 C 17.388 9.062,17.406 9.194,17.493 9.460 C 17.785 10.357,18.411 10.964,19.368 11.277 C 19.696 11.385,19.828 11.484,19.924 11.697 C 20.033 11.937,20.018 12.104,19.858 12.438 C 19.681 12.808,19.652 13.004,19.734 13.284 C 19.898 13.845,20.477 14.132,21.051 13.937 C 21.286 13.857,21.511 13.616,21.699 13.243 C 22.234 12.180,22.031 10.898,21.199 10.075 C 20.885 9.765,20.517 9.548,20.045 9.393 C 19.670 9.270,19.545 9.177,19.436 8.940 C 19.324 8.699,19.342 8.586,19.563 8.110 C 19.674 7.870,19.791 7.554,19.822 7.407 C 20.073 6.223,19.453 4.968,18.350 4.425 C 17.504 4.010,16.701 4.027,15.813 4.481 C 15.463 4.660,15.305 4.677,15.055 4.563 C 14.846 4.468,14.705 4.282,14.620 3.986 C 14.394 3.203,13.934 2.650,13.224 2.305 C 13.024 2.208,12.779 2.109,12.680 2.086 C 12.413 2.025,11.853 2.001,11.579 2.039 M11.358 8.061 C 10.230 8.237,9.143 8.974,8.569 9.953 C 7.320 12.083,8.233 14.785,10.512 15.704 C 12.558 16.528,14.877 15.538,15.704 13.488 C 16.090 12.530,16.090 11.469,15.705 10.516 C 15.172 9.197,14.001 8.269,12.605 8.058 C 12.144 7.989,11.816 7.990,11.358 8.061 M12.523 10.073 C 13.262 10.266,13.850 10.924,13.967 11.690 C 14.067 12.343,13.873 12.933,13.403 13.404 C 13.002 13.807,12.547 14.000,12.000 14.000 C 11.485 14.000,11.038 13.822,10.653 13.465 C 9.323 12.229,10.189 10.005,12.000 10.005 C 12.143 10.005,12.378 10.036,12.523 10.073 M16.240 16.037 C 15.794 16.173,15.512 16.546,15.512 17.000 C 15.512 17.405,15.719 17.724,16.100 17.905 C 16.296 17.997,16.324 17.999,17.439 18.000 L 18.579 18.000 16.874 19.710 C 15.936 20.651,15.138 21.481,15.101 21.555 C 14.872 22.010,15.056 22.601,15.508 22.867 C 15.673 22.964,15.742 22.980,16.000 22.979 C 16.212 22.979,16.341 22.957,16.440 22.905 C 16.517 22.865,17.350 22.064,18.290 21.126 L 20.000 19.421 20.000 20.561 C 20.001 21.676,20.003 21.704,20.095 21.900 C 20.276 22.281,20.595 22.488,21.000 22.488 C 21.405 22.488,21.724 22.281,21.905 21.900 L 21.999 21.700 21.999 19.240 L 21.999 16.780 21.905 16.580 C 21.791 16.340,21.642 16.193,21.400 16.083 C 21.225 16.004,21.152 16.002,18.780 16.004 C 17.438 16.006,16.295 16.021,16.240 16.037 " stroke="none" fill-rule="evenodd" fill="black"></path></svg>