<svg xmlns="http://www.w3.org/2000/svg" width="24" height="24" viewBox="0 0 24 24" fill="none" stroke="currentColor" stroke-width="2" stroke-linecap="round" stroke-linejoin="round"><path d="M2.670 2.061 C 2.448 2.142,2.250 2.309,2.128 2.516 C 2.036 2.672,2.020 2.745,2.021 3.000 C 2.021 3.212,2.043 3.341,2.095 3.440 C 2.135 3.517,3.170 4.584,4.394 5.811 L 6.620 8.041 6.220 8.017 C 4.250 7.896,2.482 9.268,2.083 11.227 C 1.749 12.862,2.506 14.562,3.956 15.436 C 4.512 15.771,5.341 16.000,6.000 16.000 C 6.659 16.000,7.488 15.771,8.044 15.436 C 8.313 15.274,8.760 14.916,8.918 14.736 L 9.037 14.600 11.549 15.896 L 14.060 17.191 14.040 17.406 C 13.991 17.933,14.030 18.572,14.135 18.977 C 14.579 20.676,16.044 21.878,17.803 21.987 C 18.438 22.027,19.192 21.867,19.784 21.568 L 20.028 21.445 20.184 21.606 C 20.459 21.890,20.656 21.980,21.000 21.980 C 21.257 21.980,21.327 21.964,21.492 21.867 C 21.968 21.587,22.139 20.967,21.865 20.508 C 21.810 20.416,17.665 16.243,12.653 11.235 C 4.231 2.820,3.525 2.125,3.343 2.065 C 3.107 1.987,2.874 1.986,2.670 2.061 M17.358 2.061 C 16.230 2.237,15.143 2.974,14.569 3.953 C 14.163 4.646,13.978 5.374,14.016 6.140 C 14.029 6.404,14.044 6.663,14.050 6.716 C 14.059 6.804,13.975 6.856,13.100 7.309 C 12.572 7.583,12.079 7.852,12.005 7.909 C 11.815 8.053,11.662 8.401,11.665 8.680 C 11.668 8.922,11.800 9.233,11.967 9.388 C 12.126 9.536,12.437 9.651,12.679 9.652 C 12.884 9.652,12.976 9.613,13.932 9.127 L 14.965 8.602 15.083 8.737 C 15.240 8.916,15.688 9.275,15.956 9.436 C 16.075 9.508,16.325 9.628,16.512 9.704 C 18.558 10.528,20.877 9.538,21.704 7.488 C 22.090 6.530,22.090 5.469,21.705 4.516 C 21.172 3.197,20.001 2.269,18.605 2.058 C 18.144 1.989,17.816 1.990,17.358 2.061 M18.523 4.073 C 19.262 4.266,19.850 4.924,19.967 5.690 C 20.067 6.343,19.873 6.933,19.403 7.404 C 19.002 7.807,18.547 8.000,18.000 8.000 C 17.453 8.000,16.997 7.806,16.598 7.404 C 15.159 5.958,16.547 3.557,18.523 4.073 M6.523 10.073 C 7.710 10.383,8.326 11.737,7.794 12.868 C 7.639 13.197,7.237 13.619,6.930 13.775 C 6.159 14.166,5.279 14.046,4.653 13.465 C 3.323 12.229,4.189 10.005,6.000 10.005 C 6.143 10.005,6.378 10.036,6.523 10.073 M11.440 12.865 L 12.900 14.330 11.660 13.700 C 10.978 13.353,10.308 13.007,10.170 12.931 L 9.920 12.793 9.950 12.627 C 9.967 12.535,9.980 12.221,9.980 11.930 C 9.980 11.638,9.980 11.400,9.980 11.400 C 9.980 11.400,10.637 12.059,11.440 12.865 M18.973 14.277 C 18.490 14.398,18.162 14.856,18.212 15.341 C 18.252 15.734,18.425 15.962,18.869 16.207 C 19.275 16.430,19.525 16.671,19.764 17.067 C 19.917 17.319,20.017 17.438,20.149 17.522 C 20.733 17.892,21.453 17.632,21.659 16.976 C 21.739 16.722,21.717 16.518,21.576 16.216 C 21.227 15.472,20.589 14.833,19.820 14.458 C 19.448 14.277,19.193 14.222,18.973 14.277 M17.298 18.718 C 17.957 19.378,18.482 19.931,18.465 19.948 C 18.448 19.966,18.241 19.978,18.007 19.976 C 17.517 19.972,17.262 19.898,16.900 19.658 C 16.301 19.261,15.954 18.532,16.020 17.810 C 16.035 17.651,16.059 17.520,16.074 17.520 C 16.088 17.520,16.640 18.059,17.298 18.718 " stroke="none" fill-rule="evenodd" fill="black"></path></svg>