<svg xmlns="http://www.w3.org/2000/svg" width="24" height="24" viewBox="0 0 24 24" fill="none" stroke="currentColor" stroke-width="2" stroke-linecap="round" stroke-linejoin="round"><path d="M5.358 3.061 C 3.731 3.315,2.417 4.584,2.083 6.227 C 2.002 6.622,2.000 6.744,2.000 11.000 C 2.000 15.256,2.002 15.378,2.083 15.773 C 2.357 17.118,3.249 18.195,4.512 18.704 C 5.286 19.016,6.122 19.084,6.495 18.865 C 7.248 18.424,7.121 17.305,6.290 17.055 C 6.189 17.025,6.024 17.000,5.922 17.000 C 5.112 17.000,4.287 16.341,4.073 15.523 C 4.010 15.282,4.005 14.898,4.005 11.000 C 4.005 7.102,4.010 6.718,4.073 6.477 C 4.201 5.988,4.543 5.546,5.014 5.265 C 5.479 4.986,5.109 5.000,12.028 5.002 C 17.786 5.004,18.280 5.010,18.523 5.073 C 19.212 5.253,19.795 5.860,19.941 6.549 C 20.027 6.952,20.027 15.048,19.941 15.451 C 19.863 15.821,19.710 16.091,19.400 16.404 C 19.026 16.783,18.546 17.000,18.078 17.000 C 17.511 17.000,17.066 17.371,17.013 17.888 C 16.971 18.293,17.156 18.661,17.505 18.865 C 17.989 19.148,19.200 18.940,20.064 18.424 C 20.582 18.114,21.113 17.580,21.436 17.044 C 21.635 16.715,21.832 16.190,21.921 15.757 C 21.997 15.382,22.000 15.200,22.000 11.000 C 22.000 6.800,21.997 6.618,21.921 6.243 C 21.628 4.806,20.637 3.680,19.245 3.204 C 18.646 2.999,18.690 3.000,11.960 3.004 C 6.959 3.007,5.631 3.018,5.358 3.061 M11.647 14.067 C 11.552 14.101,11.407 14.194,11.324 14.274 C 11.167 14.425,8.148 19.417,8.054 19.680 C 7.933 20.018,8.033 20.435,8.299 20.701 C 8.611 21.013,8.453 21.000,12.017 20.998 C 15.427 20.996,15.332 21.002,15.619 20.783 C 15.917 20.556,16.071 20.081,15.960 19.736 C 15.932 19.650,15.200 18.397,14.333 16.951 C 13.190 15.045,12.719 14.293,12.620 14.217 C 12.351 14.012,11.970 13.953,11.647 14.067 M12.634 18.006 C 12.946 18.527,13.200 18.963,13.200 18.976 C 13.200 18.989,12.652 19.000,11.982 19.000 L 10.764 19.000 11.372 17.983 C 11.826 17.223,11.991 16.978,12.024 17.013 C 12.049 17.039,12.323 17.486,12.634 18.006 " stroke="none" fill-rule="evenodd" fill="black"></path></svg>