<svg xmlns="http://www.w3.org/2000/svg" width="24" height="24" viewBox="0 0 24 24" fill="none" stroke="currentColor" stroke-width="2" stroke-linecap="round" stroke-linejoin="round"><path d="M11.672 2.056 C 11.591 2.085,11.300 2.290,11.026 2.511 C 9.664 3.608,8.303 4.285,6.632 4.697 C 5.772 4.909,5.293 4.968,4.200 4.997 C 3.304 5.020,3.206 5.030,3.057 5.108 C 2.799 5.245,2.616 5.477,2.524 5.787 C 1.664 8.678,1.901 11.936,3.174 14.745 C 3.846 16.230,4.635 17.360,5.838 18.561 C 7.486 20.206,9.255 21.252,11.460 21.885 C 11.921 22.017,12.070 22.026,12.340 21.934 C 12.906 21.741,13.168 21.022,12.863 20.501 C 12.711 20.243,12.546 20.133,12.100 19.995 C 10.822 19.600,10.116 19.289,9.200 18.717 C 6.465 17.008,4.620 14.198,4.141 11.009 C 3.971 9.878,3.996 8.433,4.203 7.360 C 4.277 6.977,4.255 7.000,4.556 7.000 C 5.546 7.000,6.988 6.731,8.218 6.316 C 9.511 5.880,10.721 5.248,11.850 4.417 L 12.000 4.307 12.150 4.417 C 13.285 5.252,14.483 5.878,15.784 6.317 C 17.012 6.731,18.454 7.000,19.446 7.000 C 19.757 7.000,19.718 6.946,19.818 7.520 C 19.924 8.126,19.963 8.645,19.963 9.440 C 19.963 10.544,19.860 11.269,19.523 12.549 C 19.396 13.027,19.395 13.042,19.456 13.249 C 19.574 13.649,19.766 13.853,20.140 13.979 C 20.481 14.093,20.917 13.971,21.162 13.691 C 21.311 13.521,21.333 13.469,21.504 12.860 C 21.827 11.708,21.972 10.653,21.972 9.440 C 21.972 8.191,21.867 7.330,21.574 6.180 C 21.414 5.548,21.380 5.470,21.193 5.294 C 20.916 5.034,20.874 5.025,19.800 4.996 C 18.685 4.967,18.183 4.903,17.300 4.680 C 15.672 4.268,14.272 3.564,12.954 2.495 C 12.693 2.283,12.412 2.086,12.330 2.057 C 12.139 1.989,11.862 1.989,11.672 2.056 M16.640 16.069 C 16.492 16.121,16.265 16.325,15.347 17.236 C 14.734 17.843,14.185 18.421,14.127 18.520 C 14.037 18.672,14.020 18.747,14.020 19.000 C 14.020 19.254,14.036 19.328,14.127 19.480 C 14.260 19.703,16.367 21.803,16.560 21.905 C 16.659 21.957,16.787 21.979,17.000 21.979 C 17.258 21.980,17.327 21.964,17.492 21.867 C 17.714 21.737,17.901 21.498,17.965 21.264 C 18.019 21.061,17.989 20.733,17.899 20.555 C 17.861 20.481,17.514 20.101,17.127 19.710 L 16.423 19.000 17.127 18.290 C 17.514 17.899,17.864 17.517,17.904 17.440 C 17.957 17.340,17.979 17.213,17.979 17.000 C 17.980 16.745,17.964 16.672,17.872 16.516 C 17.617 16.083,17.120 15.902,16.640 16.069 M19.670 16.061 C 19.448 16.142,19.250 16.309,19.128 16.516 C 19.036 16.672,19.020 16.745,19.021 17.000 C 19.021 17.213,19.043 17.340,19.096 17.440 C 19.136 17.517,19.486 17.899,19.873 18.290 L 20.577 19.000 19.873 19.710 C 19.486 20.101,19.139 20.481,19.101 20.555 C 18.872 21.008,19.056 21.601,19.508 21.867 C 19.673 21.964,19.742 21.980,20.000 21.979 C 20.213 21.979,20.341 21.957,20.440 21.905 C 20.633 21.803,22.740 19.703,22.873 19.480 C 22.964 19.328,22.980 19.254,22.980 19.000 C 22.980 18.747,22.963 18.672,22.873 18.520 C 22.815 18.421,22.266 17.843,21.653 17.236 C 20.680 16.271,20.515 16.124,20.343 16.066 C 20.108 15.987,19.875 15.985,19.670 16.061 " stroke="none" fill-rule="evenodd" fill="black"></path></svg>