<svg xmlns="http://www.w3.org/2000/svg" width="24" height="24" viewBox="0 0 24 24" fill="none" stroke="currentColor" stroke-width="2" stroke-linecap="round" stroke-linejoin="round"><path d="M11.617 2.076 C 11.528 2.116,11.267 2.306,11.038 2.498 C 9.788 3.543,8.300 4.286,6.632 4.697 C 5.772 4.909,5.293 4.968,4.200 4.997 C 3.304 5.020,3.206 5.030,3.057 5.108 C 2.799 5.245,2.616 5.477,2.524 5.787 C 1.664 8.678,1.901 11.936,3.174 14.745 C 3.846 16.230,4.635 17.360,5.838 18.561 C 7.484 20.204,9.185 21.212,11.446 21.884 C 11.934 22.029,12.066 22.029,12.554 21.884 C 14.729 21.238,16.488 20.214,18.055 18.683 C 19.283 17.482,20.192 16.177,20.874 14.635 C 22.003 12.084,22.282 9.211,21.664 6.516 C 21.493 5.768,21.407 5.528,21.250 5.354 C 20.967 5.041,20.905 5.026,19.800 4.997 C 18.685 4.967,18.183 4.903,17.300 4.680 C 15.679 4.269,14.176 3.514,12.963 2.499 C 12.733 2.307,12.472 2.116,12.383 2.076 C 12.171 1.980,11.829 1.980,11.617 2.076 M10.981 19.593 C 10.922 19.652,9.862 19.130,9.200 18.717 C 6.465 17.008,4.620 14.198,4.141 11.009 C 3.971 9.878,3.996 8.433,4.203 7.360 C 4.277 6.977,4.255 7.000,4.556 7.000 C 5.918 7.000,7.853 6.543,9.397 5.856 C 9.912 5.627,10.832 5.137,10.940 5.034 C 10.981 4.995,11.021 19.552,10.981 19.593 M13.840 5.490 C 14.626 5.917,15.886 6.395,16.860 6.637 C 17.693 6.843,18.808 7.000,19.444 7.000 C 19.668 7.000,19.718 7.012,19.734 7.070 C 19.831 7.430,19.923 8.149,19.958 8.820 C 20.108 11.735,19.143 14.478,17.176 16.727 C 16.278 17.754,14.859 18.800,13.591 19.371 C 13.312 19.497,13.064 19.600,13.041 19.600 C 13.013 19.600,13.000 17.313,13.000 12.300 L 13.000 5.001 13.250 5.153 C 13.388 5.237,13.653 5.389,13.840 5.490 " stroke="none" fill-rule="evenodd" fill="black"></path></svg>