<svg xmlns="http://www.w3.org/2000/svg" width="24" height="24" viewBox="0 0 24 24" fill="none" stroke="currentColor" stroke-width="2" stroke-linecap="round" stroke-linejoin="round"><path d="M11.718 2.036 C 11.545 2.092,11.475 2.140,11.040 2.499 C 9.755 3.559,8.297 4.286,6.632 4.697 C 5.772 4.909,5.293 4.968,4.200 4.997 C 3.304 5.020,3.206 5.030,3.057 5.108 C 2.799 5.245,2.616 5.477,2.524 5.787 C 1.664 8.678,1.901 11.936,3.174 14.745 C 3.846 16.230,4.635 17.360,5.838 18.561 C 7.486 20.206,9.255 21.252,11.460 21.885 C 11.957 22.028,12.043 22.028,12.540 21.885 C 14.659 21.277,16.486 20.216,18.055 18.683 C 19.283 17.482,20.192 16.177,20.874 14.635 C 22.003 12.084,22.282 9.211,21.664 6.516 C 21.493 5.768,21.407 5.528,21.250 5.354 C 20.967 5.041,20.905 5.026,19.800 4.997 C 18.685 4.967,18.183 4.903,17.300 4.680 C 15.682 4.270,14.206 3.529,12.960 2.499 C 12.729 2.308,12.487 2.124,12.422 2.091 C 12.285 2.020,11.867 1.987,11.718 2.036 M12.205 4.455 C 12.842 4.941,13.849 5.527,14.654 5.880 C 16.185 6.552,18.103 7.000,19.444 7.000 C 19.733 7.000,19.720 6.991,19.775 7.242 C 19.994 8.236,20.030 9.866,19.859 11.008 C 19.379 14.201,17.538 17.007,14.800 18.717 C 14.031 19.197,13.338 19.522,12.450 19.819 L 12.000 19.969 11.610 19.840 C 10.338 19.419,9.275 18.852,8.221 18.032 C 6.268 16.513,4.807 14.194,4.281 11.776 C 3.973 10.360,3.944 8.703,4.203 7.360 C 4.277 6.977,4.255 7.000,4.556 7.000 C 5.192 7.000,6.307 6.843,7.140 6.637 C 8.791 6.227,10.558 5.399,11.796 4.454 C 11.892 4.380,11.984 4.320,12.000 4.320 C 12.016 4.320,12.108 4.381,12.205 4.455 M11.477 9.073 C 10.806 9.249,10.238 9.823,10.060 10.508 C 9.943 10.956,10.003 11.492,10.218 11.915 C 10.330 12.138,10.651 12.503,10.858 12.644 L 10.999 12.740 11.000 13.720 C 11.001 14.667,11.004 14.707,11.095 14.900 C 11.276 15.281,11.595 15.488,12.000 15.488 C 12.405 15.488,12.724 15.281,12.905 14.900 C 12.996 14.707,12.999 14.667,13.000 13.720 L 13.001 12.740 13.142 12.644 C 13.347 12.504,13.669 12.139,13.779 11.922 C 13.993 11.499,14.051 11.001,13.940 10.529 C 13.858 10.182,13.720 9.927,13.465 9.653 C 13.074 9.232,12.560 9.005,12.000 9.005 C 11.857 9.005,11.622 9.036,11.477 9.073 " stroke="none" fill-rule="evenodd" fill="black"></path></svg>