<svg xmlns="http://www.w3.org/2000/svg" width="24" height="24" viewBox="0 0 24 24" fill="none" stroke="currentColor" stroke-width="2" stroke-linecap="round" stroke-linejoin="round"><path d="M11.672 2.056 C 11.591 2.085,11.300 2.290,11.026 2.511 C 9.664 3.608,8.303 4.285,6.632 4.697 C 5.772 4.909,5.293 4.968,4.200 4.997 C 3.304 5.020,3.206 5.030,3.057 5.108 C 2.799 5.245,2.616 5.477,2.524 5.787 C 1.664 8.678,1.901 11.936,3.174 14.745 C 3.846 16.230,4.635 17.360,5.838 18.561 C 7.496 20.216,9.287 21.270,11.517 21.903 C 11.955 22.027,12.128 22.021,12.622 21.864 C 13.168 21.690,13.451 21.353,13.453 20.874 C 13.455 20.203,12.815 19.737,12.145 19.923 C 12.010 19.961,11.942 19.950,11.605 19.839 C 10.338 19.419,9.274 18.851,8.221 18.032 C 6.268 16.513,4.807 14.194,4.281 11.776 C 3.973 10.360,3.944 8.703,4.203 7.360 C 4.277 6.977,4.255 7.000,4.556 7.000 C 5.546 7.000,6.988 6.731,8.218 6.316 C 9.511 5.880,10.721 5.248,11.850 4.417 L 12.000 4.307 12.150 4.417 C 13.285 5.252,14.483 5.878,15.784 6.317 C 17.012 6.731,18.454 7.000,19.446 7.000 C 19.749 7.000,19.713 6.964,19.799 7.364 C 19.968 8.159,20.017 9.707,19.904 10.664 C 19.752 11.951,19.453 12.966,18.840 14.274 C 18.630 14.721,18.600 14.816,18.600 15.025 C 18.600 15.999,19.843 16.373,20.405 15.568 C 20.700 15.146,21.254 13.793,21.504 12.885 C 21.842 11.656,21.975 10.655,21.976 9.340 C 21.976 8.427,21.949 8.105,21.797 7.200 C 21.628 6.192,21.443 5.568,21.250 5.354 C 20.967 5.041,20.905 5.026,19.800 4.997 C 18.685 4.967,18.183 4.903,17.300 4.680 C 15.672 4.268,14.272 3.564,12.954 2.495 C 12.693 2.283,12.412 2.086,12.330 2.057 C 12.139 1.989,11.862 1.989,11.672 2.056 M15.695 18.057 C 15.466 18.129,15.256 18.299,15.128 18.516 C 15.037 18.672,15.020 18.746,15.020 19.000 C 15.020 19.256,15.036 19.328,15.131 19.489 C 15.256 19.702,15.449 19.864,15.670 19.943 C 15.891 20.022,22.109 20.022,22.330 19.943 C 22.551 19.864,22.744 19.702,22.869 19.489 C 22.964 19.328,22.980 19.256,22.980 19.000 C 22.980 18.746,22.963 18.672,22.872 18.516 C 22.740 18.293,22.533 18.128,22.290 18.055 C 22.030 17.977,15.945 17.979,15.695 18.057 " stroke="none" fill-rule="evenodd" fill="black"></path></svg>