<svg xmlns="http://www.w3.org/2000/svg" width="24" height="24" viewBox="0 0 24 24" fill="none" stroke="currentColor" stroke-width="2" stroke-linecap="round" stroke-linejoin="round"><path d="M11.672 2.056 C 11.591 2.085,11.300 2.290,11.026 2.511 C 9.664 3.608,8.303 4.285,6.632 4.697 C 5.772 4.909,5.293 4.968,4.200 4.997 C 3.304 5.020,3.206 5.030,3.057 5.108 C 2.799 5.245,2.616 5.477,2.524 5.787 C 1.664 8.678,1.901 11.936,3.174 14.745 C 3.846 16.230,4.635 17.360,5.838 18.561 C 7.486 20.206,9.255 21.252,11.460 21.885 C 11.921 22.017,12.070 22.026,12.340 21.934 C 12.906 21.741,13.168 21.022,12.863 20.501 C 12.711 20.243,12.546 20.133,12.100 19.995 C 10.822 19.600,10.116 19.289,9.200 18.717 C 6.465 17.008,4.620 14.198,4.141 11.009 C 3.971 9.878,3.996 8.433,4.203 7.360 C 4.277 6.977,4.255 7.000,4.556 7.000 C 5.546 7.000,6.988 6.731,8.218 6.316 C 9.511 5.880,10.721 5.248,11.850 4.417 L 12.000 4.307 12.150 4.417 C 13.285 5.252,14.483 5.878,15.784 6.317 C 17.011 6.731,18.454 7.000,19.444 7.000 C 19.754 7.000,19.725 6.963,19.816 7.480 C 19.939 8.177,19.974 8.601,19.974 9.380 C 19.974 10.225,19.940 10.584,19.772 11.514 C 19.670 12.076,19.669 12.092,19.737 12.307 C 19.881 12.764,20.372 13.089,20.818 13.022 C 21.072 12.984,21.397 12.772,21.528 12.560 C 21.653 12.356,21.787 11.759,21.905 10.880 C 22.002 10.149,22.002 8.550,21.905 7.860 C 21.777 6.960,21.510 5.771,21.379 5.520 C 21.309 5.386,21.092 5.186,20.920 5.096 C 20.800 5.033,20.640 5.019,19.800 4.996 C 18.685 4.967,18.183 4.903,17.300 4.680 C 15.672 4.268,14.272 3.564,12.954 2.495 C 12.693 2.283,12.412 2.086,12.330 2.057 C 12.139 1.989,11.862 1.989,11.672 2.056 M16.240 16.037 C 15.794 16.173,15.512 16.546,15.512 17.000 C 15.512 17.405,15.719 17.724,16.100 17.905 C 16.296 17.997,16.324 17.999,17.439 18.000 L 18.579 18.000 16.874 19.710 C 15.936 20.651,15.138 21.481,15.101 21.555 C 14.872 22.010,15.056 22.601,15.508 22.867 C 15.673 22.964,15.742 22.980,16.000 22.979 C 16.212 22.979,16.341 22.957,16.440 22.905 C 16.517 22.865,17.350 22.064,18.290 21.126 L 20.000 19.421 20.000 20.561 C 20.001 21.676,20.003 21.704,20.095 21.900 C 20.276 22.281,20.595 22.488,21.000 22.488 C 21.405 22.488,21.724 22.281,21.905 21.900 L 21.999 21.700 21.999 19.240 L 21.999 16.780 21.905 16.580 C 21.791 16.340,21.642 16.193,21.400 16.083 C 21.225 16.004,21.152 16.002,18.780 16.004 C 17.438 16.006,16.295 16.021,16.240 16.037 " stroke="none" fill-rule="evenodd" fill="black"></path></svg>