<svg xmlns="http://www.w3.org/2000/svg" width="24" height="24" viewBox="0 0 24 24" fill="none" stroke="currentColor" stroke-width="2" stroke-linecap="round" stroke-linejoin="round"><path d="M11.672 2.056 C 11.591 2.085,11.300 2.290,11.026 2.511 C 9.664 3.608,8.303 4.285,6.632 4.697 C 5.772 4.909,5.293 4.968,4.200 4.997 C 3.304 5.020,3.206 5.030,3.057 5.108 C 2.799 5.245,2.616 5.477,2.524 5.787 C 1.664 8.678,1.901 11.936,3.174 14.745 C 3.846 16.230,4.635 17.360,5.838 18.561 C 6.977 19.698,8.147 20.530,9.480 21.151 C 10.321 21.542,11.679 22.000,12.000 22.000 C 12.224 22.000,13.433 21.630,13.749 21.465 C 14.033 21.317,14.238 20.954,14.239 20.600 C 14.240 20.177,13.968 19.799,13.565 19.661 C 13.293 19.568,13.162 19.584,12.556 19.784 L 11.997 19.968 11.609 19.840 C 10.338 19.419,9.274 18.851,8.221 18.032 C 6.268 16.513,4.807 14.194,4.281 11.776 C 3.973 10.360,3.944 8.703,4.203 7.360 C 4.277 6.977,4.255 7.000,4.556 7.000 C 5.546 7.000,6.988 6.731,8.218 6.316 C 9.511 5.880,10.721 5.248,11.850 4.417 L 12.000 4.307 12.150 4.417 C 13.285 5.252,14.483 5.878,15.784 6.317 C 17.011 6.731,18.454 7.000,19.444 7.000 C 19.760 7.000,19.719 6.934,19.847 7.660 C 19.927 8.119,19.938 8.316,19.939 9.340 C 19.940 10.278,19.926 10.588,19.866 10.960 C 19.767 11.578,19.632 12.165,19.462 12.720 C 19.379 12.988,19.320 13.264,19.321 13.380 C 19.321 14.074,20.077 14.558,20.700 14.265 C 21.065 14.093,21.188 13.922,21.375 13.329 C 21.794 11.998,21.977 10.791,21.975 9.360 C 21.974 8.135,21.858 7.226,21.556 6.084 C 21.417 5.556,21.375 5.465,21.193 5.294 C 20.916 5.034,20.874 5.025,19.800 4.996 C 18.685 4.967,18.183 4.903,17.300 4.680 C 15.672 4.268,14.272 3.564,12.954 2.495 C 12.693 2.283,12.412 2.086,12.330 2.057 C 12.139 1.989,11.862 1.989,11.672 2.056 M16.670 16.061 C 16.448 16.142,16.250 16.309,16.128 16.516 C 16.037 16.672,16.020 16.746,16.020 17.000 C 16.020 17.254,16.036 17.328,16.127 17.480 C 16.186 17.579,16.650 18.074,17.157 18.579 L 18.079 19.499 17.124 20.459 C 16.599 20.988,16.138 21.481,16.101 21.555 C 15.872 22.009,16.056 22.601,16.508 22.867 C 16.673 22.964,16.743 22.980,17.000 22.980 C 17.254 22.980,17.328 22.964,17.480 22.873 C 17.579 22.814,18.074 22.350,18.579 21.843 L 19.499 20.921 20.459 21.876 C 20.988 22.401,21.483 22.864,21.560 22.905 C 21.659 22.957,21.787 22.979,22.000 22.979 C 22.258 22.980,22.327 22.964,22.492 22.867 C 22.714 22.737,22.901 22.498,22.965 22.264 C 23.019 22.061,22.989 21.733,22.899 21.555 C 22.862 21.481,22.401 20.988,21.876 20.459 L 20.921 19.499 21.843 18.579 C 22.350 18.074,22.814 17.579,22.873 17.480 C 22.964 17.328,22.980 17.254,22.980 17.000 C 22.980 16.746,22.963 16.672,22.872 16.516 C 22.618 16.084,22.136 15.905,21.657 16.066 C 21.486 16.124,21.330 16.262,20.480 17.104 L 19.500 18.076 18.520 17.104 C 17.671 16.262,17.514 16.124,17.343 16.066 C 17.108 15.987,16.875 15.985,16.670 16.061 " stroke="none" fill-rule="evenodd" fill="black"></path></svg>