<svg xmlns="http://www.w3.org/2000/svg" width="24" height="24" viewBox="0 0 24 24" fill="none" stroke="currentColor" stroke-width="2" stroke-linecap="round" stroke-linejoin="round"><path d="M11.718 2.036 C 11.545 2.092,11.475 2.140,11.040 2.499 C 9.755 3.559,8.297 4.286,6.632 4.697 C 5.772 4.909,5.293 4.968,4.200 4.997 C 3.304 5.020,3.206 5.030,3.057 5.108 C 2.799 5.245,2.616 5.477,2.524 5.787 C 1.664 8.678,1.901 11.936,3.174 14.745 C 3.846 16.230,4.635 17.360,5.838 18.561 C 7.486 20.206,9.255 21.252,11.460 21.885 C 11.957 22.028,12.043 22.028,12.540 21.885 C 14.659 21.277,16.486 20.216,18.055 18.683 C 19.283 17.482,20.192 16.177,20.874 14.635 C 22.003 12.084,22.282 9.211,21.664 6.516 C 21.493 5.768,21.407 5.528,21.250 5.354 C 20.967 5.041,20.905 5.026,19.800 4.997 C 18.685 4.967,18.183 4.903,17.300 4.680 C 15.682 4.270,14.206 3.529,12.960 2.499 C 12.729 2.308,12.487 2.124,12.422 2.091 C 12.285 2.020,11.867 1.987,11.718 2.036 M12.205 4.455 C 12.842 4.941,13.849 5.527,14.654 5.880 C 16.185 6.552,18.103 7.000,19.444 7.000 C 19.733 7.000,19.720 6.991,19.775 7.242 C 19.983 8.185,20.030 9.822,19.879 10.880 C 19.790 11.505,19.530 12.643,19.461 12.713 C 19.453 12.721,17.809 12.113,15.809 11.364 C 13.105 10.350,12.127 10.000,12.000 10.000 C 11.873 10.000,10.895 10.350,8.191 11.364 C 6.191 12.113,4.547 12.721,4.539 12.713 C 4.470 12.643,4.210 11.505,4.121 10.880 C 3.972 9.834,4.006 8.381,4.203 7.360 C 4.277 6.977,4.255 7.000,4.556 7.000 C 5.192 7.000,6.307 6.843,7.140 6.637 C 8.791 6.227,10.558 5.399,11.796 4.454 C 11.892 4.380,11.984 4.320,12.000 4.320 C 12.016 4.320,12.108 4.381,12.205 4.455 M15.350 13.327 L 18.679 14.574 18.555 14.797 C 17.687 16.351,16.346 17.751,14.800 18.717 C 14.031 19.197,13.338 19.522,12.450 19.819 L 12.000 19.969 11.610 19.840 C 10.690 19.535,9.983 19.206,9.200 18.717 C 8.179 18.079,7.186 17.203,6.481 16.320 C 6.125 15.873,5.572 15.060,5.418 14.756 L 5.325 14.573 8.633 13.329 C 10.452 12.645,11.958 12.084,11.980 12.082 C 12.002 12.080,13.518 12.640,15.350 13.327 " stroke="none" fill-rule="evenodd" fill="black"></path></svg>