<svg xmlns="http://www.w3.org/2000/svg" width="24" height="24" viewBox="0 0 24 24" fill="none" stroke="currentColor" stroke-width="2" stroke-linecap="round" stroke-linejoin="round"><path d="M11.672 2.056 C 11.591 2.085,11.300 2.290,11.026 2.511 C 9.664 3.608,8.303 4.285,6.632 4.697 C 5.772 4.909,5.293 4.968,4.200 4.997 C 3.304 5.020,3.206 5.030,3.057 5.108 C 2.799 5.245,2.616 5.477,2.524 5.787 C 1.664 8.678,1.901 11.936,3.174 14.745 C 3.846 16.230,4.635 17.360,5.838 18.561 C 7.496 20.216,9.287 21.270,11.517 21.903 C 11.799 21.983,11.945 22.004,12.097 21.987 C 12.333 21.961,13.244 21.681,13.472 21.564 C 13.818 21.387,14.026 21.004,13.990 20.606 C 13.965 20.336,13.894 20.180,13.712 19.998 C 13.393 19.680,13.014 19.634,12.386 19.838 L 11.992 19.966 11.606 19.839 C 10.338 19.419,9.274 18.851,8.221 18.032 C 6.268 16.513,4.807 14.194,4.281 11.776 C 3.973 10.360,3.944 8.703,4.203 7.360 C 4.277 6.977,4.255 7.000,4.556 7.000 C 5.546 7.000,6.988 6.731,8.218 6.316 C 9.511 5.880,10.721 5.248,11.850 4.417 L 12.000 4.307 12.150 4.417 C 13.285 5.252,14.483 5.878,15.784 6.317 C 17.012 6.731,18.454 7.000,19.446 7.000 C 19.757 7.000,19.718 6.946,19.818 7.520 C 19.923 8.120,19.963 8.642,19.964 9.421 C 19.965 10.514,19.861 11.274,19.554 12.412 C 19.406 12.958,19.398 13.019,19.439 13.211 C 19.605 13.985,20.475 14.288,21.069 13.780 C 21.274 13.605,21.354 13.428,21.532 12.760 C 21.850 11.561,21.972 10.642,21.972 9.440 C 21.972 8.191,21.867 7.330,21.574 6.180 C 21.414 5.548,21.380 5.470,21.193 5.294 C 20.916 5.034,20.874 5.025,19.800 4.996 C 18.685 4.967,18.183 4.903,17.300 4.680 C 15.672 4.268,14.272 3.564,12.954 2.495 C 12.693 2.283,12.412 2.086,12.330 2.057 C 12.139 1.989,11.862 1.989,11.672 2.056 M16.695 16.057 C 16.466 16.129,16.256 16.299,16.128 16.516 L 16.020 16.700 16.020 19.503 L 16.020 22.306 16.141 22.503 C 16.543 23.156,17.457 23.156,17.859 22.503 L 17.980 22.306 17.980 19.503 L 17.980 16.700 17.872 16.516 C 17.628 16.101,17.150 15.915,16.695 16.057 M20.695 16.057 C 20.466 16.129,20.256 16.299,20.128 16.516 L 20.020 16.700 20.020 19.503 L 20.020 22.306 20.141 22.503 C 20.543 23.156,21.457 23.156,21.859 22.503 L 21.980 22.306 21.980 19.503 L 21.980 16.700 21.872 16.516 C 21.628 16.101,21.150 15.915,20.695 16.057 " stroke="none" fill-rule="evenodd" fill="black"></path></svg>