<svg xmlns="http://www.w3.org/2000/svg" width="24" height="24" viewBox="0 0 24 24" fill="none" stroke="currentColor" stroke-width="2" stroke-linecap="round" stroke-linejoin="round"><path d="M5.695 2.057 C 5.466 2.129,5.256 2.299,5.128 2.516 C 5.036 2.672,5.020 2.746,5.020 3.003 C 5.020 3.271,5.034 3.329,5.141 3.503 C 5.288 3.742,5.578 3.946,5.821 3.982 L 6.000 4.009 6.000 5.005 L 6.000 6.000 5.446 6.000 C 4.648 6.000,4.367 6.110,4.128 6.516 L 4.020 6.700 4.009 9.350 L 3.998 12.000 3.424 12.000 C 2.638 12.000,2.370 12.104,2.139 12.497 C 1.946 12.828,1.947 12.837,2.498 15.600 C 2.776 16.997,3.030 18.219,3.061 18.315 C 3.291 19.016,4.177 19.225,4.700 18.702 C 4.875 18.527,5.000 18.243,5.000 18.022 C 5.000 17.953,4.829 17.044,4.620 16.000 C 4.411 14.956,4.240 14.079,4.240 14.051 C 4.240 14.010,5.685 14.000,11.800 14.000 C 15.958 14.000,19.360 14.008,19.360 14.019 C 19.360 14.029,19.061 14.638,18.695 15.372 C 17.960 16.847,17.932 16.933,18.061 17.322 C 18.189 17.707,18.594 18.000,19.000 18.000 C 19.080 18.000,19.233 17.970,19.340 17.934 C 19.716 17.806,19.767 17.724,20.920 15.406 L 21.980 13.275 21.980 12.988 C 21.980 12.747,21.962 12.670,21.872 12.516 C 21.813 12.415,21.698 12.282,21.618 12.221 C 21.338 12.007,21.261 12.000,19.320 12.000 L 17.534 12.000 15.633 9.149 C 13.608 6.114,13.620 6.130,13.240 6.043 C 13.127 6.017,12.114 6.002,10.532 6.001 L 8.003 6.000 7.992 4.350 L 7.980 2.700 7.872 2.516 C 7.740 2.293,7.533 2.128,7.290 2.055 C 7.050 1.983,5.928 1.984,5.695 2.057 M13.726 9.890 C 14.419 10.930,15.018 11.830,15.058 11.890 L 15.129 12.000 10.565 12.000 L 6.000 12.000 6.000 10.000 L 6.000 8.000 9.233 8.000 L 12.467 8.000 13.726 9.890 M7.360 18.060 C 6.823 18.152,6.250 18.413,5.797 18.773 C 5.675 18.870,5.440 19.109,5.276 19.304 C 5.111 19.499,4.905 19.707,4.818 19.767 C 4.493 19.988,3.972 20.059,3.560 19.936 C 3.266 19.849,3.185 19.793,2.840 19.441 C 2.430 19.021,2.100 18.912,1.684 19.058 C 1.160 19.243,0.884 19.791,1.056 20.308 C 1.138 20.554,1.476 20.971,1.810 21.238 C 2.919 22.124,4.486 22.249,5.722 21.550 C 6.110 21.331,6.400 21.084,6.721 20.698 C 7.144 20.192,7.496 20.000,8.000 20.000 C 8.504 20.000,8.856 20.192,9.278 20.697 C 9.995 21.556,10.924 22.000,12.004 22.000 C 13.073 22.000,14.008 21.552,14.721 20.698 C 15.144 20.192,15.496 20.000,16.000 20.000 C 16.504 20.000,16.856 20.192,17.278 20.697 C 17.620 21.107,17.950 21.380,18.360 21.594 C 19.621 22.250,21.093 22.108,22.209 21.222 C 22.523 20.973,22.864 20.549,22.944 20.308 C 23.116 19.791,22.840 19.243,22.316 19.058 C 21.900 18.912,21.570 19.021,21.160 19.441 C 20.815 19.793,20.734 19.849,20.440 19.936 C 20.028 20.059,19.507 19.988,19.182 19.767 C 19.095 19.707,18.889 19.499,18.724 19.304 C 18.560 19.109,18.325 18.870,18.203 18.773 C 16.912 17.748,15.088 17.748,13.797 18.773 C 13.675 18.870,13.440 19.109,13.276 19.304 C 13.111 19.499,12.905 19.707,12.818 19.767 C 12.373 20.070,11.627 20.070,11.182 19.767 C 11.095 19.707,10.889 19.499,10.724 19.304 C 10.560 19.109,10.325 18.870,10.203 18.773 C 9.405 18.140,8.385 17.884,7.360 18.060 " stroke="none" fill-rule="evenodd" fill="black"></path></svg>