<svg xmlns="http://www.w3.org/2000/svg" width="24" height="24" viewBox="0 0 24 24" fill="none" stroke="currentColor" stroke-width="2" stroke-linecap="round" stroke-linejoin="round"><path d="M5.692 4.041 C 3.430 4.796,2.520 5.118,2.405 5.201 C 2.317 5.265,2.195 5.403,2.133 5.508 L 2.020 5.700 2.009 8.412 C 2.002 10.172,2.012 11.177,2.039 11.276 C 2.099 11.498,2.290 11.739,2.508 11.867 L 2.700 11.980 3.850 11.992 L 5.000 12.005 5.000 15.634 C 5.000 19.581,4.994 19.475,5.225 19.930 C 5.361 20.199,5.801 20.639,6.070 20.775 C 6.534 21.010,6.267 21.000,12.000 21.000 C 17.733 21.000,17.466 21.010,17.930 20.775 C 18.196 20.640,18.638 20.200,18.771 19.937 C 19.005 19.476,19.000 19.574,19.000 15.626 L 19.000 12.005 20.150 11.992 L 21.300 11.980 21.492 11.867 C 21.710 11.739,21.901 11.498,21.961 11.276 C 21.988 11.177,21.998 10.172,21.991 8.412 L 21.980 5.700 21.867 5.508 C 21.805 5.403,21.683 5.265,21.595 5.201 C 21.401 5.060,15.261 3.000,15.036 3.000 C 14.830 3.000,14.538 3.097,14.379 3.218 C 14.146 3.395,14.041 3.625,13.997 4.047 C 13.947 4.537,13.875 4.773,13.688 5.062 C 13.305 5.654,12.683 6.000,12.000 6.000 C 11.485 6.000,11.038 5.822,10.653 5.465 C 10.250 5.091,10.008 4.567,10.002 4.057 C 9.996 3.473,9.617 3.060,9.048 3.014 C 8.834 2.996,8.624 3.061,5.692 4.041 M8.319 5.550 C 8.621 6.293,9.238 7.003,9.956 7.436 C 10.512 7.771,11.341 8.000,12.000 8.000 C 12.659 8.000,13.488 7.771,14.044 7.436 C 14.763 7.003,15.379 6.293,15.682 5.549 C 15.733 5.422,15.795 5.324,15.818 5.333 C 15.841 5.341,16.792 5.658,17.930 6.037 L 20.000 6.727 20.000 8.363 L 20.000 10.000 18.946 10.000 C 17.797 10.000,17.644 10.022,17.382 10.221 C 17.302 10.282,17.187 10.415,17.128 10.516 L 17.020 10.700 17.009 14.850 L 16.999 19.000 12.000 19.000 L 7.001 19.000 6.991 14.850 L 6.980 10.700 6.872 10.516 C 6.813 10.415,6.698 10.282,6.618 10.221 C 6.356 10.022,6.203 10.000,5.054 10.000 L 4.000 10.000 4.000 8.363 L 4.000 6.727 6.090 6.026 C 7.240 5.641,8.190 5.325,8.203 5.323 C 8.215 5.321,8.267 5.424,8.319 5.550 M10.240 10.037 C 9.794 10.173,9.512 10.546,9.512 11.000 C 9.512 11.405,9.719 11.724,10.100 11.905 C 10.285 11.992,10.349 11.999,10.970 12.000 C 11.338 12.000,11.640 12.012,11.640 12.026 C 11.640 12.041,11.389 12.891,11.083 13.916 C 10.777 14.941,10.515 15.838,10.500 15.909 C 10.461 16.100,10.574 16.435,10.743 16.632 C 11.032 16.971,11.485 17.086,11.871 16.920 C 12.202 16.778,12.372 16.559,12.515 16.094 C 12.581 15.877,12.944 14.674,13.321 13.420 C 13.946 11.339,14.004 11.120,13.987 10.910 C 13.964 10.635,13.828 10.381,13.618 10.221 C 13.345 10.013,13.230 10.000,11.724 10.003 C 10.963 10.005,10.295 10.021,10.240 10.037 " stroke="none" fill-rule="evenodd" fill="black"></path></svg>