<svg xmlns="http://www.w3.org/2000/svg" width="24" height="24" viewBox="0 0 24 24" fill="none" stroke="currentColor" stroke-width="2" stroke-linecap="round" stroke-linejoin="round"><path d="M2.670 2.061 C 2.448 2.142,2.250 2.309,2.128 2.516 C 2.036 2.672,2.020 2.745,2.021 3.000 C 2.021 3.214,2.043 3.340,2.096 3.440 C 2.136 3.517,2.441 3.854,2.772 4.189 C 3.104 4.524,3.367 4.805,3.357 4.813 C 3.348 4.821,3.162 4.888,2.944 4.962 C 2.474 5.122,2.285 5.250,2.133 5.508 L 2.020 5.700 2.009 8.412 C 2.002 10.172,2.012 11.177,2.039 11.276 C 2.099 11.498,2.290 11.739,2.508 11.867 L 2.700 11.980 3.850 11.992 L 5.000 12.005 5.000 15.634 C 5.000 19.581,4.994 19.475,5.225 19.930 C 5.361 20.199,5.801 20.639,6.070 20.775 C 6.534 21.010,6.267 21.000,12.000 21.000 C 17.733 21.000,17.466 21.010,17.930 20.775 C 18.045 20.716,18.264 20.544,18.416 20.392 L 18.693 20.115 19.556 20.973 C 20.031 21.445,20.483 21.864,20.560 21.905 C 20.659 21.957,20.787 21.979,21.000 21.979 C 21.258 21.980,21.327 21.964,21.492 21.867 C 21.968 21.587,22.139 20.967,21.865 20.508 C 21.810 20.416,17.665 16.243,12.653 11.235 C 4.231 2.820,3.525 2.125,3.343 2.065 C 3.107 1.987,2.874 1.986,2.670 2.061 M8.360 3.152 C 7.808 3.337,7.698 3.392,7.534 3.567 C 7.062 4.069,7.188 4.821,7.797 5.130 C 7.917 5.190,8.052 5.240,8.097 5.240 C 8.161 5.240,8.213 5.311,8.327 5.553 C 8.484 5.886,8.646 6.048,8.916 6.145 C 9.405 6.320,10.010 6.042,10.178 5.565 C 10.266 5.315,10.255 5.056,10.140 4.729 C 10.086 4.572,10.030 4.313,10.017 4.152 C 9.971 3.592,9.814 3.301,9.463 3.126 C 9.145 2.967,8.892 2.973,8.360 3.152 M14.695 3.057 C 14.470 3.127,14.256 3.298,14.136 3.504 C 14.060 3.632,14.026 3.771,13.996 4.061 C 13.911 4.889,13.522 5.487,12.866 5.796 C 12.290 6.067,11.815 6.068,11.111 5.798 C 10.765 5.666,10.571 5.652,10.318 5.741 C 10.066 5.830,9.892 5.979,9.779 6.203 C 9.637 6.481,9.615 6.704,9.701 6.977 C 9.825 7.373,10.121 7.592,10.830 7.817 C 11.665 8.081,12.576 8.052,13.417 7.733 C 14.406 7.358,15.204 6.602,15.642 5.627 C 15.718 5.458,15.798 5.326,15.820 5.334 C 15.842 5.342,16.792 5.658,17.930 6.037 L 20.000 6.727 20.000 8.363 L 20.000 10.000 18.946 10.000 C 17.797 10.000,17.644 10.022,17.382 10.221 C 17.302 10.282,17.187 10.415,17.128 10.516 L 17.020 10.700 17.020 12.503 L 17.020 14.306 17.141 14.503 C 17.543 15.156,18.457 15.156,18.859 14.503 L 18.980 14.307 18.992 13.155 L 19.004 12.004 20.152 11.992 L 21.300 11.980 21.492 11.867 C 21.710 11.739,21.901 11.498,21.961 11.276 C 21.988 11.177,21.998 10.172,21.991 8.412 L 21.980 5.700 21.867 5.508 C 21.805 5.403,21.683 5.265,21.595 5.201 C 21.383 5.047,15.256 2.999,15.019 3.003 C 14.932 3.004,14.786 3.029,14.695 3.057 M10.990 12.410 L 17.000 18.420 17.000 18.710 L 17.000 19.000 12.001 19.000 L 7.001 19.000 6.991 14.850 L 6.980 10.700 6.872 10.516 C 6.813 10.415,6.698 10.282,6.618 10.221 C 6.356 10.022,6.203 10.000,5.054 10.000 L 4.000 10.000 4.000 8.363 L 4.000 6.727 4.470 6.566 C 4.729 6.478,4.949 6.405,4.960 6.403 C 4.971 6.401,7.684 9.104,10.990 12.410 " stroke="none" fill-rule="evenodd" fill="black"></path></svg>