<svg xmlns="http://www.w3.org/2000/svg" width="24" height="24" viewBox="0 0 24 24" fill="none" stroke="currentColor" stroke-width="2" stroke-linecap="round" stroke-linejoin="round"><path d="M2.670 2.061 C 2.448 2.142,2.250 2.309,2.128 2.516 C 2.036 2.672,2.020 2.745,2.021 3.000 C 2.021 3.213,2.043 3.340,2.096 3.440 C 2.136 3.517,2.493 3.907,2.889 4.306 L 3.609 5.032 3.393 5.095 C 2.952 5.223,2.432 5.662,2.216 6.088 C 1.991 6.531,2.000 6.293,2.000 12.000 C 2.000 17.733,1.990 17.466,2.225 17.930 C 2.361 18.199,2.801 18.639,3.070 18.775 C 3.539 19.013,3.110 19.000,10.659 19.000 L 17.580 19.000 18.960 20.383 C 19.719 21.143,20.421 21.814,20.520 21.873 C 20.673 21.964,20.746 21.980,21.000 21.980 C 21.257 21.980,21.327 21.964,21.492 21.867 C 21.968 21.587,22.139 20.967,21.865 20.508 C 21.810 20.416,17.665 16.243,12.653 11.235 C 4.231 2.820,3.525 2.125,3.343 2.065 C 3.107 1.987,2.874 1.986,2.670 2.061 M7.512 8.932 L 9.444 10.865 9.236 11.292 C 9.103 11.566,9.021 11.791,9.009 11.916 C 8.942 12.618,9.653 13.175,10.318 12.941 C 10.555 12.857,10.713 12.735,10.838 12.537 L 10.946 12.366 13.263 14.683 L 15.580 17.000 12.296 17.000 L 9.012 17.000 8.988 16.670 C 8.880 15.142,8.048 13.699,6.800 12.874 C 6.019 12.357,5.382 12.128,4.470 12.036 L 4.000 11.988 4.000 9.494 L 4.000 7.000 4.790 7.000 L 5.580 7.000 7.512 8.932 M13.410 8.983 C 13.296 9.039,13.149 9.147,13.083 9.223 C 12.929 9.398,12.823 9.754,12.855 9.986 C 12.901 10.323,13.147 10.652,13.444 10.776 C 13.524 10.809,14.577 11.072,15.784 11.359 C 18.433 11.990,18.504 12.017,19.102 12.615 C 19.408 12.921,19.497 13.041,19.655 13.360 C 19.971 13.998,19.969 13.984,19.996 15.743 L 20.020 17.307 20.141 17.503 C 20.543 18.156,21.457 18.156,21.859 17.503 L 21.980 17.306 21.980 15.703 C 21.980 13.974,21.969 13.848,21.757 13.194 C 21.283 11.730,20.099 10.514,18.668 10.023 C 18.186 9.858,14.031 8.880,13.810 8.880 C 13.682 8.880,13.546 8.915,13.410 8.983 M4.876 14.134 C 6.009 14.462,6.863 15.509,6.982 16.714 L 7.010 17.000 5.505 17.000 L 4.000 17.000 4.000 15.495 L 4.000 13.990 4.286 14.018 C 4.443 14.033,4.709 14.086,4.876 14.134 " stroke="none" fill-rule="evenodd" fill="black"></path></svg>