<svg xmlns="http://www.w3.org/2000/svg" width="24" height="24" viewBox="0 0 24 24" fill="none" stroke="currentColor" stroke-width="2" stroke-linecap="round" stroke-linejoin="round"><path d="M2.670 2.061 C 2.448 2.142,2.250 2.309,2.128 2.516 C 2.037 2.672,2.020 2.746,2.020 3.000 C 2.020 3.254,2.036 3.327,2.127 3.480 C 2.186 3.579,2.857 4.281,3.617 5.040 L 5.000 6.420 5.000 11.282 L 5.000 16.145 4.670 16.313 C 3.922 16.693,3.365 17.355,3.114 18.160 C 2.979 18.594,2.979 19.406,3.114 19.840 C 3.421 20.826,4.174 21.579,5.160 21.886 C 5.594 22.021,6.406 22.021,6.840 21.886 C 7.826 21.579,8.579 20.826,8.886 19.840 C 9.032 19.372,9.015 18.479,8.854 18.057 C 8.834 18.008,9.196 18.000,11.500 18.000 C 13.804 18.000,14.166 18.008,14.146 18.057 C 14.052 18.303,14.023 18.524,14.022 19.000 C 14.021 19.456,14.035 19.587,14.114 19.840 C 14.421 20.826,15.174 21.579,16.160 21.886 C 16.594 22.021,17.407 22.021,17.839 21.886 C 18.394 21.712,18.773 21.474,19.197 21.032 L 19.398 20.822 19.909 21.326 C 20.190 21.603,20.483 21.863,20.560 21.904 C 20.660 21.957,20.786 21.979,21.000 21.979 C 21.258 21.980,21.327 21.964,21.492 21.867 C 21.968 21.587,22.139 20.967,21.865 20.508 C 21.810 20.416,17.665 16.243,12.653 11.235 C 4.231 2.820,3.525 2.125,3.343 2.065 C 3.107 1.987,2.874 1.986,2.670 2.061 M8.860 4.315 C 8.634 4.418,8.451 4.583,8.349 4.775 C 8.237 4.988,8.226 5.474,8.330 5.666 C 8.481 5.946,8.791 6.167,9.100 6.216 C 9.188 6.229,11.410 6.394,14.037 6.581 C 16.665 6.768,18.823 6.929,18.832 6.939 C 18.848 6.954,18.186 11.699,18.139 11.910 C 18.119 11.999,18.109 12.000,17.506 12.000 C 16.643 12.000,16.372 12.101,16.128 12.516 C 16.037 12.672,16.020 12.746,16.020 13.000 C 16.020 13.256,16.036 13.328,16.131 13.489 C 16.256 13.702,16.449 13.864,16.670 13.943 C 16.885 14.020,19.115 14.020,19.330 13.943 C 19.548 13.865,19.744 13.702,19.863 13.499 C 19.959 13.335,20.009 13.033,20.486 9.710 C 20.848 7.191,20.999 6.036,20.985 5.888 C 20.946 5.474,20.636 5.127,20.227 5.041 C 20.028 4.999,9.549 4.239,9.193 4.241 C 9.098 4.241,8.948 4.275,8.860 4.315 M8.800 10.220 L 10.580 12.000 8.790 12.000 L 7.000 12.000 7.000 10.220 C 7.000 9.241,7.005 8.440,7.010 8.440 C 7.016 8.440,7.821 9.241,8.800 10.220 M13.580 15.000 L 14.579 16.000 10.790 16.000 L 7.000 16.000 7.000 15.000 L 7.000 14.000 9.790 14.000 L 12.581 14.000 13.580 15.000 M6.310 18.061 C 6.688 18.173,7.000 18.598,7.000 19.001 C 7.000 19.331,6.784 19.696,6.484 19.872 C 6.328 19.963,6.254 19.980,6.000 19.980 C 5.746 19.980,5.672 19.963,5.516 19.872 C 4.935 19.530,4.833 18.774,5.304 18.303 C 5.583 18.024,5.916 17.944,6.310 18.061 M17.290 18.710 C 17.636 19.056,17.920 19.358,17.920 19.382 C 17.920 19.476,17.661 19.768,17.486 19.871 C 17.328 19.964,17.255 19.980,17.000 19.980 C 16.746 19.980,16.672 19.963,16.516 19.872 C 15.992 19.564,15.843 18.871,16.201 18.407 C 16.298 18.283,16.555 18.080,16.617 18.080 C 16.640 18.080,16.943 18.363,17.290 18.710 " stroke="none" fill-rule="evenodd" fill="black"></path></svg>