<svg xmlns="http://www.w3.org/2000/svg" width="24" height="24" viewBox="0 0 24 24" fill="none" stroke="currentColor" stroke-width="2" stroke-linecap="round" stroke-linejoin="round"><path d="M3.695 2.057 C 3.466 2.129,3.256 2.299,3.128 2.516 C 3.037 2.672,3.020 2.746,3.020 3.000 C 3.020 3.256,3.036 3.328,3.131 3.489 C 3.256 3.702,3.449 3.864,3.670 3.943 C 3.768 3.978,4.023 3.997,4.410 3.998 L 5.000 4.000 5.000 10.073 L 5.000 16.145 4.670 16.313 C 3.922 16.693,3.365 17.355,3.114 18.160 C 2.979 18.594,2.979 19.406,3.114 19.840 C 3.421 20.826,4.174 21.579,5.160 21.886 C 5.594 22.021,6.406 22.021,6.840 21.886 C 7.826 21.579,8.579 20.826,8.886 19.840 C 9.032 19.372,9.015 18.479,8.854 18.057 C 8.835 18.008,9.100 18.000,10.766 18.000 L 12.700 17.999 12.900 17.905 C 13.281 17.724,13.488 17.405,13.488 17.000 C 13.488 16.615,13.293 16.297,12.940 16.106 C 12.781 16.020,12.766 16.020,9.890 16.009 L 7.000 15.998 7.000 14.999 L 7.000 14.000 10.090 13.998 C 12.567 13.997,13.210 13.986,13.330 13.943 C 13.551 13.864,13.744 13.702,13.869 13.489 C 13.964 13.328,13.980 13.256,13.980 13.000 C 13.980 12.746,13.963 12.672,13.872 12.516 C 13.813 12.415,13.698 12.282,13.618 12.221 C 13.325 11.997,13.367 12.000,10.054 12.000 L 7.000 12.000 7.000 9.040 C 7.000 7.412,7.010 6.080,7.023 6.080 C 7.182 6.080,18.820 6.926,18.832 6.939 C 18.842 6.948,18.693 8.050,18.501 9.388 C 18.310 10.726,18.153 11.911,18.152 12.022 C 18.148 12.368,18.379 12.745,18.696 12.908 C 18.882 13.004,19.287 13.023,19.490 12.946 C 19.716 12.859,19.946 12.641,20.043 12.422 C 20.151 12.178,21.014 6.195,20.985 5.888 C 20.947 5.474,20.636 5.127,20.227 5.041 C 20.070 5.008,7.363 4.080,7.066 4.080 C 7.016 4.080,7.004 3.968,6.993 3.390 C 6.980 2.724,6.976 2.694,6.872 2.516 C 6.740 2.293,6.533 2.128,6.290 2.055 C 6.039 1.979,3.937 1.981,3.695 2.057 M15.695 15.057 C 15.466 15.129,15.256 15.299,15.128 15.516 C 15.036 15.672,15.020 15.745,15.021 16.000 C 15.022 16.332,15.101 16.533,15.306 16.728 C 15.785 17.181,16.580 17.046,16.893 16.460 C 17.025 16.211,17.015 15.760,16.872 15.516 C 16.628 15.101,16.150 14.915,15.695 15.057 M20.640 15.068 C 20.485 15.121,20.093 15.495,17.847 17.735 C 16.368 19.209,15.188 20.418,15.127 20.520 C 15.036 20.672,15.020 20.746,15.020 21.000 C 15.020 21.257,15.036 21.327,15.133 21.492 C 15.263 21.714,15.502 21.901,15.736 21.965 C 15.938 22.019,16.266 21.989,16.445 21.899 C 16.630 21.807,21.738 16.706,21.873 16.480 C 21.964 16.328,21.980 16.254,21.980 16.000 C 21.980 15.746,21.963 15.672,21.872 15.516 C 21.617 15.083,21.122 14.903,20.640 15.068 M6.310 18.061 C 6.688 18.173,7.000 18.598,7.000 19.001 C 7.000 19.331,6.784 19.696,6.484 19.872 C 6.328 19.963,6.254 19.980,6.000 19.980 C 5.746 19.980,5.672 19.963,5.516 19.872 C 4.935 19.530,4.833 18.774,5.304 18.303 C 5.583 18.024,5.916 17.944,6.310 18.061 M20.695 20.057 C 20.466 20.129,20.256 20.299,20.128 20.516 C 20.036 20.672,20.020 20.745,20.021 21.000 C 20.022 21.332,20.101 21.533,20.306 21.728 C 20.785 22.181,21.580 22.046,21.893 21.460 C 22.025 21.211,22.015 20.760,21.872 20.516 C 21.628 20.101,21.150 19.915,20.695 20.057 " stroke="none" fill-rule="evenodd" fill="black"></path></svg>