<svg xmlns="http://www.w3.org/2000/svg" width="24" height="24" viewBox="0 0 24 24" fill="none" stroke="currentColor" stroke-width="2" stroke-linecap="round" stroke-linejoin="round"><path d="M3.695 2.057 C 3.466 2.129,3.256 2.299,3.128 2.516 C 3.037 2.672,3.020 2.746,3.020 3.000 C 3.020 3.256,3.036 3.328,3.131 3.489 C 3.256 3.702,3.449 3.864,3.670 3.943 C 3.768 3.978,4.023 3.997,4.410 3.998 L 5.000 4.000 5.000 10.073 L 5.000 16.145 4.670 16.313 C 3.922 16.693,3.365 17.355,3.114 18.160 C 2.979 18.594,2.979 19.406,3.114 19.840 C 3.421 20.826,4.174 21.579,5.160 21.886 C 5.594 22.021,6.406 22.021,6.840 21.886 C 7.826 21.579,8.579 20.826,8.886 19.840 C 9.032 19.372,9.015 18.479,8.854 18.057 C 8.835 18.008,9.002 18.000,10.006 17.998 C 11.268 17.996,11.355 17.985,11.619 17.783 C 11.696 17.725,11.808 17.592,11.869 17.489 C 11.964 17.328,11.980 17.256,11.980 17.000 C 11.980 16.746,11.963 16.672,11.872 16.516 C 11.813 16.415,11.698 16.282,11.618 16.221 C 11.334 16.004,11.283 16.000,9.054 16.000 L 7.000 16.000 7.000 15.000 L 7.000 14.000 10.090 13.998 C 12.567 13.997,13.210 13.986,13.330 13.943 C 13.551 13.864,13.744 13.702,13.869 13.489 C 13.964 13.328,13.980 13.256,13.980 13.000 C 13.980 12.746,13.963 12.672,13.872 12.516 C 13.813 12.415,13.698 12.282,13.618 12.221 C 13.325 11.997,13.367 12.000,10.054 12.000 L 7.000 12.000 7.000 9.040 C 7.000 7.412,7.010 6.080,7.023 6.080 C 7.182 6.080,18.820 6.926,18.832 6.939 C 18.842 6.948,18.721 7.852,18.565 8.948 C 18.408 10.044,18.280 10.992,18.280 11.055 C 18.280 11.445,18.613 11.865,19.011 11.980 C 19.262 12.052,19.488 12.036,19.700 11.931 C 19.909 11.827,20.155 11.557,20.218 11.362 C 20.317 11.055,21.011 6.088,20.985 5.866 C 20.939 5.466,20.625 5.125,20.227 5.041 C 20.070 5.008,7.363 4.080,7.066 4.080 C 7.016 4.080,7.004 3.968,6.993 3.390 C 6.980 2.724,6.976 2.694,6.872 2.516 C 6.740 2.293,6.533 2.128,6.290 2.055 C 6.039 1.979,3.937 1.981,3.695 2.057 M17.358 14.061 C 16.230 14.237,15.143 14.974,14.569 15.953 C 13.320 18.083,14.233 20.785,16.512 21.704 C 17.473 22.091,18.529 22.090,19.494 21.701 C 19.684 21.625,19.881 21.535,19.932 21.502 C 20.020 21.444,20.041 21.460,20.681 22.104 C 21.044 22.468,21.416 22.810,21.508 22.865 C 21.967 23.139,22.587 22.968,22.867 22.492 C 22.964 22.327,22.980 22.257,22.980 22.000 C 22.980 21.589,22.910 21.484,22.104 20.681 C 21.460 20.041,21.444 20.020,21.502 19.932 C 21.627 19.740,21.844 19.132,21.921 18.757 C 22.070 18.024,21.994 17.230,21.705 16.516 C 21.172 15.197,20.001 14.269,18.605 14.058 C 18.144 13.989,17.816 13.990,17.358 14.061 M18.523 16.073 C 19.262 16.266,19.850 16.924,19.967 17.690 C 20.067 18.343,19.873 18.933,19.403 19.404 C 19.002 19.807,18.547 20.000,18.000 20.000 C 17.485 20.000,17.038 19.822,16.653 19.465 C 15.323 18.229,16.189 16.005,18.000 16.005 C 18.143 16.005,18.378 16.036,18.523 16.073 M6.310 18.061 C 6.688 18.173,7.000 18.598,7.000 19.001 C 7.000 19.331,6.784 19.696,6.484 19.872 C 6.328 19.963,6.254 19.980,6.000 19.980 C 5.746 19.980,5.672 19.963,5.516 19.872 C 4.935 19.530,4.833 18.774,5.304 18.303 C 5.583 18.024,5.916 17.944,6.310 18.061 " stroke="none" fill-rule="evenodd" fill="black"></path></svg>