<svg xmlns="http://www.w3.org/2000/svg" width="24" height="24" viewBox="0 0 24 24" fill="none" stroke="currentColor" stroke-width="2" stroke-linecap="round" stroke-linejoin="round"><path d="M3.695 2.057 C 3.466 2.129,3.256 2.299,3.128 2.516 C 3.037 2.672,3.020 2.746,3.020 3.000 C 3.020 3.256,3.036 3.328,3.131 3.489 C 3.256 3.702,3.449 3.864,3.670 3.943 C 3.768 3.978,4.023 3.997,4.410 3.998 L 5.000 4.000 5.000 10.073 L 5.000 16.145 4.670 16.313 C 3.922 16.693,3.365 17.355,3.114 18.160 C 2.979 18.594,2.979 19.406,3.114 19.840 C 3.421 20.826,4.174 21.579,5.160 21.886 C 5.594 22.021,6.406 22.021,6.840 21.886 C 7.826 21.579,8.579 20.826,8.886 19.840 C 9.032 19.372,9.015 18.479,8.854 18.057 C 8.835 18.008,9.100 18.000,10.766 18.000 L 12.700 17.999 12.900 17.905 C 13.281 17.724,13.488 17.405,13.488 17.000 C 13.488 16.615,13.293 16.297,12.940 16.106 C 12.781 16.020,12.766 16.020,9.890 16.009 L 7.000 15.998 7.000 14.999 L 7.000 14.000 13.090 13.998 C 18.073 13.997,19.207 13.987,19.330 13.943 C 19.548 13.865,19.744 13.702,19.863 13.499 C 19.959 13.335,20.009 13.033,20.486 9.710 C 20.848 7.191,20.999 6.036,20.985 5.888 C 20.946 5.474,20.636 5.127,20.227 5.041 C 20.070 5.008,7.363 4.080,7.066 4.080 C 7.016 4.080,7.004 3.968,6.993 3.390 C 6.980 2.724,6.976 2.694,6.872 2.516 C 6.740 2.293,6.533 2.128,6.290 2.055 C 6.039 1.979,3.937 1.981,3.695 2.057 M12.930 6.501 C 16.167 6.732,18.823 6.929,18.832 6.939 C 18.848 6.954,18.186 11.698,18.139 11.910 L 18.118 12.000 12.559 12.000 L 7.000 12.000 7.000 9.040 C 7.000 7.412,7.010 6.080,7.023 6.080 C 7.036 6.080,9.694 6.269,12.930 6.501 M16.240 16.037 C 15.794 16.173,15.512 16.546,15.512 17.000 C 15.512 17.405,15.719 17.724,16.100 17.905 C 16.296 17.997,16.324 17.999,17.439 18.000 L 18.579 18.000 16.874 19.710 C 15.936 20.651,15.138 21.481,15.101 21.555 C 14.872 22.010,15.056 22.601,15.508 22.867 C 15.673 22.964,15.742 22.980,16.000 22.979 C 16.212 22.979,16.341 22.957,16.440 22.905 C 16.517 22.865,17.350 22.064,18.290 21.126 L 20.000 19.421 20.000 20.561 C 20.001 21.676,20.003 21.704,20.095 21.900 C 20.276 22.281,20.595 22.488,21.000 22.488 C 21.405 22.488,21.724 22.281,21.905 21.900 L 21.999 21.700 21.999 19.240 L 21.999 16.780 21.905 16.580 C 21.791 16.340,21.642 16.193,21.400 16.083 C 21.225 16.004,21.152 16.002,18.780 16.004 C 17.438 16.006,16.295 16.021,16.240 16.037 M6.310 18.061 C 6.688 18.173,7.000 18.598,7.000 19.001 C 7.000 19.331,6.784 19.696,6.484 19.872 C 6.328 19.963,6.254 19.980,6.000 19.980 C 5.746 19.980,5.672 19.963,5.516 19.872 C 4.935 19.530,4.833 18.774,5.304 18.303 C 5.583 18.024,5.916 17.944,6.310 18.061 " stroke="none" fill-rule="evenodd" fill="black"></path></svg>