<svg xmlns="http://www.w3.org/2000/svg" width="24" height="24" viewBox="0 0 24 24" fill="none" stroke="currentColor" stroke-width="2" stroke-linecap="round" stroke-linejoin="round"><path d="M3.695 2.057 C 3.466 2.129,3.256 2.299,3.128 2.516 C 3.037 2.672,3.020 2.746,3.020 3.000 C 3.020 3.256,3.036 3.328,3.131 3.489 C 3.256 3.702,3.449 3.864,3.670 3.943 C 3.768 3.978,4.023 3.997,4.410 3.998 L 5.000 4.000 5.000 10.073 L 5.000 16.145 4.670 16.313 C 3.922 16.693,3.365 17.355,3.114 18.160 C 2.979 18.594,2.979 19.406,3.114 19.840 C 3.421 20.826,4.174 21.579,5.160 21.886 C 5.594 22.021,6.406 22.021,6.840 21.886 C 7.826 21.579,8.579 20.826,8.886 19.840 C 9.032 19.372,9.015 18.479,8.854 18.057 C 8.834 18.008,9.166 18.000,11.266 18.000 L 13.700 17.999 13.900 17.905 C 14.281 17.724,14.488 17.405,14.488 17.000 C 14.488 16.615,14.293 16.297,13.940 16.106 C 13.780 16.020,13.779 16.020,10.390 16.009 L 7.000 15.998 7.000 14.999 L 7.000 14.000 10.850 14.000 L 14.700 13.999 14.900 13.905 C 15.281 13.724,15.488 13.405,15.488 13.000 C 15.488 12.615,15.293 12.297,14.940 12.106 L 14.780 12.020 10.890 12.009 L 7.000 11.998 7.000 9.039 C 7.000 7.412,7.010 6.080,7.023 6.080 C 7.182 6.080,18.820 6.926,18.832 6.939 C 18.841 6.948,18.719 7.869,18.559 8.985 C 18.240 11.218,18.240 11.221,18.462 11.556 C 18.917 12.243,20.021 12.074,20.239 11.284 C 20.261 11.205,20.443 9.997,20.643 8.600 C 20.894 6.849,21.001 6.000,20.985 5.866 C 20.939 5.466,20.625 5.125,20.227 5.041 C 20.070 5.008,7.363 4.080,7.066 4.080 C 7.016 4.080,7.004 3.968,6.993 3.390 C 6.980 2.724,6.976 2.694,6.872 2.516 C 6.740 2.293,6.533 2.128,6.290 2.055 C 6.039 1.979,3.937 1.981,3.695 2.057 M18.440 14.058 C 17.838 14.187,17.375 14.431,16.957 14.839 C 16.601 15.186,16.510 15.362,16.510 15.700 C 16.510 16.008,16.633 16.278,16.855 16.455 C 17.079 16.633,17.247 16.694,17.514 16.691 C 17.804 16.689,18.001 16.601,18.255 16.362 C 18.613 16.027,18.899 15.941,19.284 16.054 C 19.720 16.182,19.978 16.533,19.979 17.000 C 19.980 17.218,19.960 17.295,19.856 17.479 C 19.701 17.752,19.434 17.946,19.169 17.979 C 18.764 18.029,18.565 18.088,18.405 18.205 C 17.835 18.625,17.886 19.502,18.501 19.863 C 18.958 20.131,19.923 19.974,20.622 19.519 C 20.911 19.331,21.369 18.866,21.553 18.575 C 21.851 18.102,22.030 17.365,21.987 16.788 C 21.893 15.520,21.004 14.438,19.780 14.102 C 19.448 14.010,18.765 13.988,18.440 14.058 M6.310 18.061 C 6.688 18.173,7.000 18.598,7.000 19.001 C 7.000 19.331,6.784 19.696,6.484 19.872 C 6.328 19.963,6.254 19.980,6.000 19.980 C 5.746 19.980,5.672 19.963,5.516 19.872 C 4.935 19.530,4.833 18.774,5.304 18.303 C 5.583 18.024,5.916 17.944,6.310 18.061 M18.695 21.057 C 18.466 21.129,18.256 21.299,18.128 21.516 C 18.036 21.672,18.020 21.745,18.021 22.000 C 18.022 22.332,18.101 22.533,18.306 22.728 C 18.785 23.181,19.580 23.046,19.893 22.460 C 20.025 22.211,20.015 21.760,19.872 21.516 C 19.628 21.101,19.150 20.915,18.695 21.057 " stroke="none" fill-rule="evenodd" fill="black"></path></svg>