<svg xmlns="http://www.w3.org/2000/svg" width="24" height="24" viewBox="0 0 24 24" fill="none" stroke="currentColor" stroke-width="2" stroke-linecap="round" stroke-linejoin="round"><path d="M11.358 2.061 C 10.230 2.237,9.143 2.974,8.569 3.953 C 8.151 4.665,8.000 5.293,8.000 6.316 L 8.000 7.000 7.050 7.001 C 6.015 7.003,5.660 7.044,5.246 7.211 C 4.826 7.381,4.554 7.565,4.197 7.924 C 3.914 8.208,3.821 8.334,3.669 8.644 C 3.416 9.159,3.347 9.444,3.347 9.980 C 3.347 10.350,3.450 11.084,3.995 14.600 C 4.351 16.899,4.679 18.915,4.724 19.079 C 5.090 20.427,6.184 21.498,7.594 21.890 C 7.887 21.971,8.003 21.975,10.278 21.990 C 12.937 22.006,12.850 22.014,13.173 21.724 C 13.381 21.536,13.488 21.292,13.488 21.003 C 13.488 20.615,13.294 20.298,12.940 20.106 C 12.783 20.021,12.741 20.020,10.480 19.998 C 8.733 19.982,8.142 19.964,8.020 19.924 C 7.358 19.706,6.861 19.215,6.680 18.602 C 6.583 18.276,5.354 10.309,5.350 9.980 C 5.348 9.809,5.371 9.693,5.432 9.575 C 5.549 9.347,5.842 9.099,6.058 9.045 C 6.162 9.019,6.600 9.000,7.115 9.000 L 7.995 9.000 8.008 10.153 L 8.020 11.307 8.141 11.503 C 8.543 12.156,9.457 12.156,9.859 11.503 L 9.980 11.307 9.992 10.153 L 10.005 9.000 12.000 9.000 L 13.995 9.000 14.008 10.153 L 14.020 11.307 14.141 11.503 C 14.209 11.613,14.346 11.756,14.452 11.828 C 14.923 12.144,15.554 11.999,15.859 11.503 L 15.980 11.307 15.992 10.153 L 16.005 9.000 16.885 9.000 C 17.400 9.000,17.838 9.019,17.942 9.045 C 18.158 9.099,18.451 9.347,18.569 9.575 C 18.632 9.698,18.653 9.806,18.649 10.000 C 18.646 10.143,18.481 11.312,18.282 12.598 C 18.083 13.883,17.920 15.008,17.920 15.098 C 17.921 15.187,17.963 15.350,18.015 15.460 C 18.378 16.227,19.429 16.235,19.823 15.475 C 19.856 15.411,20.055 14.251,20.268 12.889 C 20.767 9.687,20.770 9.537,20.336 8.654 C 20.045 8.061,19.558 7.586,18.947 7.298 C 18.421 7.050,18.290 7.029,17.090 7.010 L 16.000 6.992 16.000 6.312 C 16.000 5.522,15.924 5.057,15.705 4.516 C 15.172 3.197,14.001 2.269,12.605 2.058 C 12.144 1.989,11.816 1.990,11.358 2.061 M12.523 4.073 C 12.866 4.163,13.198 4.366,13.454 4.642 C 13.883 5.105,13.998 5.479,13.999 6.410 L 14.000 7.000 12.000 7.000 L 10.000 7.000 10.000 6.398 C 10.000 5.682,10.064 5.350,10.265 5.014 C 10.745 4.212,11.635 3.841,12.523 4.073 M15.695 18.057 C 15.466 18.129,15.256 18.299,15.128 18.516 C 15.037 18.672,15.020 18.746,15.020 19.000 C 15.020 19.256,15.036 19.328,15.131 19.489 C 15.256 19.702,15.449 19.864,15.670 19.943 C 15.891 20.022,22.109 20.022,22.330 19.943 C 22.551 19.864,22.744 19.702,22.869 19.489 C 22.964 19.328,22.980 19.256,22.980 19.000 C 22.980 18.746,22.963 18.672,22.872 18.516 C 22.740 18.293,22.533 18.128,22.290 18.055 C 22.030 17.977,15.945 17.979,15.695 18.057 " stroke="none" fill-rule="evenodd" fill="black"></path></svg>