<svg xmlns="http://www.w3.org/2000/svg" width="24" height="24" viewBox="0 0 24 24" fill="none" stroke="currentColor" stroke-width="2" stroke-linecap="round" stroke-linejoin="round"><path d="M3.695 2.057 C 3.466 2.129,3.256 2.299,3.128 2.516 C 3.037 2.672,3.020 2.746,3.020 3.000 C 3.020 3.256,3.036 3.328,3.131 3.489 C 3.256 3.702,3.449 3.864,3.670 3.943 C 3.768 3.978,4.023 3.997,4.410 3.998 L 5.000 4.000 5.000 10.073 L 5.000 16.145 4.670 16.313 C 3.922 16.693,3.365 17.355,3.114 18.160 C 2.979 18.594,2.979 19.406,3.114 19.840 C 3.421 20.826,4.174 21.579,5.160 21.886 C 5.594 22.021,6.406 22.021,6.840 21.886 C 7.826 21.579,8.579 20.826,8.886 19.840 C 9.032 19.372,9.015 18.479,8.854 18.057 C 8.835 18.008,9.100 18.000,10.766 18.000 L 12.700 17.999 12.900 17.905 C 13.281 17.724,13.488 17.405,13.488 17.000 C 13.488 16.615,13.293 16.297,12.940 16.106 C 12.781 16.020,12.766 16.020,9.890 16.009 L 7.000 15.998 7.000 14.999 L 7.000 14.000 11.850 14.000 L 16.700 13.999 16.900 13.905 C 17.281 13.724,17.488 13.405,17.488 13.000 C 17.488 12.615,17.293 12.297,16.940 12.106 L 16.780 12.020 11.890 12.009 L 7.000 11.999 7.000 9.039 C 7.000 7.412,7.010 6.080,7.023 6.080 C 7.182 6.080,18.820 6.926,18.832 6.939 C 18.842 6.948,18.694 8.041,18.505 9.368 C 18.315 10.695,18.160 11.879,18.161 12.000 C 18.163 12.546,18.609 12.976,19.165 12.968 C 19.555 12.962,19.920 12.719,20.068 12.368 C 20.157 12.155,21.008 6.139,20.985 5.888 C 20.947 5.474,20.636 5.127,20.227 5.041 C 20.070 5.008,7.363 4.080,7.066 4.080 C 7.016 4.080,7.004 3.968,6.993 3.390 C 6.980 2.724,6.976 2.694,6.872 2.516 C 6.740 2.293,6.533 2.128,6.290 2.055 C 6.039 1.979,3.937 1.981,3.695 2.057 M18.580 15.096 C 18.424 15.171,18.029 15.545,16.774 16.806 C 15.891 17.694,15.135 18.483,15.095 18.560 C 15.043 18.659,15.021 18.788,15.021 19.000 C 15.020 19.258,15.036 19.327,15.133 19.492 C 15.263 19.714,15.502 19.901,15.736 19.965 C 15.939 20.019,16.267 19.989,16.445 19.899 C 16.519 19.861,16.899 19.514,17.289 19.128 L 17.997 18.426 18.009 20.366 L 18.020 22.306 18.141 22.503 C 18.543 23.156,19.457 23.156,19.859 22.503 L 19.980 22.306 19.991 20.366 L 20.003 18.426 20.711 19.128 C 21.101 19.514,21.483 19.864,21.560 19.904 C 21.660 19.957,21.787 19.979,22.000 19.979 C 22.258 19.980,22.327 19.964,22.492 19.867 C 22.714 19.737,22.901 19.498,22.965 19.264 C 23.019 19.061,22.989 18.733,22.899 18.555 C 22.862 18.481,22.109 17.694,21.226 16.806 C 19.472 15.043,19.420 15.001,19.000 15.001 C 18.851 15.001,18.716 15.031,18.580 15.096 M6.310 18.061 C 6.688 18.173,7.000 18.598,7.000 19.001 C 7.000 19.331,6.784 19.696,6.484 19.872 C 6.328 19.963,6.254 19.980,6.000 19.980 C 5.746 19.980,5.672 19.963,5.516 19.872 C 4.935 19.530,4.833 18.774,5.304 18.303 C 5.583 18.024,5.916 17.944,6.310 18.061 " stroke="none" fill-rule="evenodd" fill="black"></path></svg>