<svg xmlns="http://www.w3.org/2000/svg" width="24" height="24" viewBox="0 0 24 24" fill="none" stroke="currentColor" stroke-width="2" stroke-linecap="round" stroke-linejoin="round"><path d="M11.358 2.061 C 10.230 2.237,9.143 2.974,8.569 3.953 C 8.151 4.665,8.000 5.293,8.000 6.316 L 8.000 7.000 7.050 7.001 C 6.015 7.003,5.660 7.044,5.246 7.211 C 4.826 7.381,4.554 7.565,4.197 7.924 C 3.914 8.208,3.821 8.334,3.669 8.644 C 3.416 9.159,3.347 9.444,3.347 9.980 C 3.347 10.350,3.450 11.084,3.995 14.600 C 4.351 16.899,4.679 18.915,4.724 19.079 C 5.090 20.427,6.187 21.501,7.594 21.889 C 7.880 21.968,8.021 21.974,9.777 21.989 C 11.879 22.008,11.855 22.010,12.173 21.724 C 12.381 21.536,12.488 21.292,12.488 21.003 C 12.488 20.615,12.294 20.298,11.940 20.106 C 11.785 20.023,11.727 20.019,9.980 19.998 C 8.659 19.981,8.137 19.962,8.020 19.923 C 7.361 19.708,6.861 19.215,6.680 18.602 C 6.583 18.276,5.354 10.309,5.350 9.980 C 5.348 9.809,5.371 9.693,5.432 9.575 C 5.549 9.347,5.842 9.099,6.058 9.045 C 6.162 9.019,6.600 9.000,7.115 9.000 L 7.995 9.000 8.008 10.153 L 8.020 11.307 8.141 11.503 C 8.543 12.156,9.457 12.156,9.859 11.503 L 9.980 11.307 9.992 10.153 L 10.005 9.000 12.000 9.000 L 13.995 9.000 14.008 10.153 L 14.020 11.307 14.141 11.503 C 14.209 11.613,14.346 11.756,14.452 11.828 C 14.923 12.144,15.554 11.999,15.859 11.503 L 15.980 11.307 15.992 10.153 L 16.005 9.000 16.885 9.000 C 17.400 9.000,17.838 9.019,17.942 9.045 C 18.158 9.099,18.451 9.347,18.569 9.575 C 18.694 9.818,18.677 10.053,18.402 11.816 C 18.269 12.672,18.160 13.464,18.160 13.576 C 18.162 14.290,18.955 14.772,19.590 14.444 C 19.786 14.343,19.980 14.138,20.059 13.948 C 20.094 13.864,20.242 13.036,20.388 12.108 C 20.753 9.786,20.748 9.493,20.336 8.654 C 20.045 8.061,19.558 7.586,18.947 7.298 C 18.421 7.050,18.290 7.029,17.090 7.010 L 16.000 6.992 16.000 6.312 C 16.000 5.522,15.924 5.057,15.705 4.516 C 15.172 3.197,14.001 2.269,12.605 2.058 C 12.144 1.989,11.816 1.990,11.358 2.061 M12.523 4.073 C 12.866 4.163,13.198 4.366,13.454 4.642 C 13.883 5.105,13.998 5.479,13.999 6.410 L 14.000 7.000 12.000 7.000 L 10.000 7.000 10.000 6.398 C 10.000 5.682,10.064 5.350,10.265 5.014 C 10.745 4.212,11.635 3.841,12.523 4.073 M20.640 16.068 C 20.488 16.121,20.196 16.394,18.731 17.853 L 17.002 19.575 16.271 18.855 C 15.655 18.247,15.509 18.123,15.343 18.067 C 14.865 17.905,14.383 18.083,14.128 18.516 C 14.036 18.672,14.020 18.745,14.021 19.000 C 14.021 19.213,14.043 19.341,14.095 19.440 C 14.197 19.633,16.297 21.740,16.520 21.873 C 16.673 21.964,16.745 21.980,17.000 21.979 C 17.212 21.979,17.341 21.957,17.440 21.905 C 17.632 21.805,21.739 17.705,21.873 17.480 C 21.964 17.328,21.980 17.254,21.980 17.000 C 21.980 16.746,21.963 16.672,21.872 16.516 C 21.617 16.083,21.121 15.903,20.640 16.068 " stroke="none" fill-rule="evenodd" fill="black"></path></svg>