<svg xmlns="http://www.w3.org/2000/svg" width="24" height="24" viewBox="0 0 24 24" fill="none" stroke="currentColor" stroke-width="2" stroke-linecap="round" stroke-linejoin="round"><path d="M3.695 2.057 C 3.466 2.129,3.256 2.299,3.128 2.516 C 3.037 2.672,3.020 2.746,3.020 3.000 C 3.020 3.256,3.036 3.328,3.131 3.489 C 3.256 3.702,3.449 3.864,3.670 3.943 C 3.768 3.978,4.023 3.997,4.410 3.998 L 5.000 4.000 5.000 10.073 L 5.000 16.145 4.670 16.313 C 3.922 16.693,3.365 17.355,3.114 18.160 C 2.979 18.594,2.979 19.406,3.114 19.840 C 3.421 20.826,4.174 21.579,5.160 21.886 C 5.594 22.021,6.406 22.021,6.840 21.886 C 7.826 21.579,8.579 20.826,8.886 19.840 C 9.032 19.372,9.015 18.479,8.854 18.057 C 8.835 18.008,9.067 18.000,10.506 17.998 C 12.307 17.996,12.345 17.993,12.619 17.783 C 12.696 17.725,12.808 17.592,12.869 17.489 C 12.964 17.328,12.980 17.256,12.980 17.000 C 12.980 16.746,12.963 16.672,12.872 16.516 C 12.813 16.415,12.698 16.282,12.618 16.221 C 12.328 16.000,12.325 16.000,9.554 16.000 L 7.000 16.000 7.000 15.000 L 7.000 14.000 11.590 13.998 C 15.320 13.997,16.208 13.986,16.330 13.943 C 16.551 13.864,16.744 13.702,16.869 13.489 C 16.964 13.328,16.980 13.256,16.980 13.000 C 16.980 12.746,16.963 12.672,16.872 12.516 C 16.813 12.415,16.698 12.282,16.618 12.221 C 16.318 11.992,16.497 12.000,11.554 12.000 L 7.000 12.000 7.000 9.040 C 7.000 7.412,7.010 6.080,7.023 6.080 C 7.182 6.080,18.820 6.926,18.832 6.939 C 18.842 6.948,18.702 7.987,18.521 9.248 C 18.156 11.792,18.158 11.749,18.401 12.102 C 18.634 12.440,19.089 12.595,19.509 12.478 C 19.756 12.409,20.081 12.093,20.152 11.853 C 20.250 11.521,21.006 6.110,20.985 5.888 C 20.947 5.474,20.636 5.127,20.227 5.041 C 20.070 5.008,7.363 4.080,7.066 4.080 C 7.016 4.080,7.004 3.968,6.993 3.390 C 6.980 2.724,6.976 2.694,6.872 2.516 C 6.740 2.293,6.533 2.128,6.290 2.055 C 6.039 1.979,3.937 1.981,3.695 2.057 M18.617 14.577 C 18.415 14.665,18.193 14.886,18.094 15.100 C 18.015 15.270,18.001 15.364,18.000 15.724 L 18.000 16.148 17.708 16.292 C 17.548 16.371,17.334 16.499,17.233 16.576 L 17.050 16.716 16.664 16.503 C 16.211 16.253,15.998 16.209,15.686 16.302 C 15.161 16.458,14.862 17.002,15.014 17.526 C 15.098 17.815,15.269 17.998,15.677 18.238 L 16.014 18.436 16.017 19.002 L 16.020 19.567 15.649 19.786 C 15.230 20.032,15.075 20.208,14.999 20.524 C 14.876 21.035,15.183 21.552,15.700 21.702 C 16.043 21.802,16.254 21.745,16.876 21.388 L 17.053 21.286 17.235 21.425 C 17.335 21.501,17.548 21.629,17.708 21.708 L 18.000 21.852 18.000 22.276 C 18.001 22.638,18.015 22.729,18.095 22.900 C 18.276 23.281,18.595 23.488,19.000 23.488 C 19.405 23.488,19.724 23.281,19.905 22.900 C 19.986 22.729,19.999 22.639,20.000 22.274 L 20.000 21.848 20.269 21.721 C 20.418 21.652,20.633 21.524,20.749 21.437 L 20.959 21.278 21.120 21.380 C 21.666 21.725,21.988 21.810,22.323 21.699 C 22.828 21.531,23.121 21.024,23.001 20.524 C 22.926 20.210,22.771 20.034,22.352 19.784 L 21.980 19.562 21.983 18.999 L 21.986 18.436 22.323 18.238 C 22.731 17.998,22.902 17.815,22.986 17.526 C 23.138 17.002,22.839 16.458,22.314 16.302 C 22.002 16.209,21.789 16.253,21.336 16.503 L 20.950 16.716 20.767 16.576 C 20.666 16.499,20.452 16.371,20.292 16.292 L 20.000 16.148 20.000 15.724 C 19.999 15.362,19.985 15.271,19.905 15.100 C 19.793 14.865,19.599 14.669,19.391 14.582 C 19.210 14.506,18.785 14.503,18.617 14.577 M6.310 18.061 C 6.688 18.173,7.000 18.598,7.000 19.001 C 7.000 19.331,6.784 19.696,6.484 19.872 C 6.328 19.963,6.254 19.980,6.000 19.980 C 5.746 19.980,5.672 19.963,5.516 19.872 C 4.935 19.530,4.833 18.774,5.304 18.303 C 5.583 18.024,5.916 17.944,6.310 18.061 M19.260 18.044 C 19.497 18.107,19.701 18.263,19.849 18.494 C 19.968 18.679,19.980 18.727,19.980 19.003 C 19.980 19.287,19.970 19.322,19.831 19.531 C 19.613 19.859,19.389 19.980,19.000 19.979 C 18.665 19.978,18.526 19.923,18.308 19.705 C 18.104 19.501,18.022 19.300,18.022 19.000 C 18.022 18.334,18.621 17.871,19.260 18.044 " stroke="none" fill-rule="evenodd" fill="black"></path></svg>