<svg xmlns="http://www.w3.org/2000/svg" width="24" height="24" viewBox="0 0 24 24" fill="none" stroke="currentColor" stroke-width="2" stroke-linecap="round" stroke-linejoin="round"><path d="M11.358 2.061 C 10.230 2.237,9.143 2.974,8.569 3.953 C 8.151 4.665,8.000 5.293,8.000 6.316 L 8.000 7.000 7.050 7.001 C 6.015 7.003,5.660 7.044,5.246 7.211 C 4.826 7.381,4.554 7.565,4.197 7.924 C 3.914 8.208,3.821 8.334,3.669 8.644 C 3.416 9.159,3.347 9.444,3.347 9.980 C 3.347 10.350,3.450 11.084,3.995 14.600 C 4.351 16.899,4.679 18.915,4.724 19.079 C 5.090 20.427,6.189 21.503,7.594 21.889 C 7.875 21.965,8.031 21.974,9.504 21.989 C 10.575 22.001,11.161 21.992,11.268 21.963 C 11.498 21.901,11.737 21.713,11.867 21.492 C 11.964 21.327,11.980 21.257,11.980 21.000 C 11.980 20.746,11.963 20.672,11.872 20.516 C 11.813 20.415,11.698 20.282,11.618 20.221 C 11.346 20.014,11.228 20.000,9.729 20.000 C 8.606 20.000,8.307 19.988,8.109 19.937 C 7.409 19.756,6.873 19.255,6.680 18.602 C 6.583 18.276,5.354 10.309,5.350 9.980 C 5.348 9.809,5.371 9.693,5.432 9.575 C 5.549 9.347,5.842 9.099,6.058 9.045 C 6.162 9.019,6.600 9.000,7.115 9.000 L 7.995 9.000 8.008 10.153 L 8.020 11.307 8.141 11.503 C 8.543 12.156,9.457 12.156,9.859 11.503 L 9.980 11.307 9.992 10.153 L 10.005 9.000 12.000 9.000 L 13.995 9.000 14.008 10.153 L 14.020 11.307 14.141 11.503 C 14.209 11.613,14.346 11.756,14.452 11.828 C 14.923 12.144,15.554 11.999,15.859 11.503 L 15.980 11.307 15.992 10.153 L 16.005 9.000 16.885 9.000 C 17.400 9.000,17.838 9.019,17.942 9.045 C 18.158 9.099,18.451 9.347,18.568 9.575 C 18.672 9.775,18.676 10.039,18.584 10.644 C 18.511 11.128,18.542 11.315,18.744 11.606 C 18.974 11.938,19.502 12.094,19.891 11.946 C 20.105 11.864,20.350 11.630,20.444 11.419 C 20.556 11.167,20.692 10.157,20.661 9.800 C 20.567 8.696,19.926 7.759,18.947 7.298 C 18.421 7.050,18.290 7.029,17.090 7.010 L 16.000 6.992 16.000 6.312 C 16.000 5.522,15.924 5.057,15.705 4.516 C 15.172 3.197,14.001 2.269,12.605 2.058 C 12.144 1.989,11.816 1.990,11.358 2.061 M12.523 4.073 C 12.866 4.163,13.198 4.366,13.454 4.642 C 13.883 5.105,13.998 5.479,13.999 6.410 L 14.000 7.000 12.000 7.000 L 10.000 7.000 10.000 6.398 C 10.000 5.682,10.064 5.350,10.265 5.014 C 10.745 4.212,11.635 3.841,12.523 4.073 M19.351 14.039 C 18.895 14.122,18.443 14.323,18.060 14.613 C 17.928 14.713,16.989 15.620,15.974 16.627 C 14.261 18.327,14.122 18.475,14.062 18.665 C 14.005 18.844,13.998 19.090,14.008 20.585 L 14.020 22.300 14.131 22.489 C 14.192 22.592,14.304 22.725,14.381 22.783 C 14.655 22.992,14.694 22.996,16.483 22.998 C 17.902 23.000,18.175 22.991,18.343 22.936 C 18.522 22.878,18.710 22.701,20.372 21.026 C 21.380 20.011,22.287 19.072,22.387 18.940 C 22.775 18.428,22.957 17.919,22.989 17.258 C 23.036 16.280,22.720 15.505,21.996 14.824 C 21.652 14.500,21.154 14.216,20.720 14.097 C 20.460 14.025,19.620 13.989,19.351 14.039 M20.385 16.112 C 20.594 16.219,20.778 16.402,20.891 16.615 C 21.016 16.850,21.016 17.350,20.891 17.586 C 20.840 17.682,20.129 18.433,19.197 19.376 L 17.591 21.000 16.795 21.000 L 16.000 21.000 16.000 20.205 L 16.000 19.410 17.602 17.825 C 18.483 16.953,19.248 16.211,19.302 16.175 C 19.599 15.980,20.073 15.953,20.385 16.112 " stroke="none" fill-rule="evenodd" fill="black"></path></svg>