<svg xmlns="http://www.w3.org/2000/svg" width="24" height="24" viewBox="0 0 24 24" fill="none" stroke="currentColor" stroke-width="2" stroke-linecap="round" stroke-linejoin="round"><path d="M11.358 2.061 C 10.230 2.237,9.143 2.974,8.569 3.953 C 8.151 4.665,8.000 5.293,8.000 6.316 L 8.000 7.000 7.050 7.001 C 6.015 7.003,5.660 7.044,5.246 7.211 C 4.826 7.381,4.554 7.565,4.197 7.924 C 3.914 8.208,3.821 8.334,3.669 8.644 C 3.416 9.159,3.347 9.444,3.347 9.980 C 3.347 10.350,3.450 11.084,3.995 14.600 C 4.351 16.899,4.679 18.915,4.724 19.079 C 5.089 20.427,6.179 21.494,7.594 21.890 C 7.895 21.974,7.964 21.976,11.510 21.990 C 13.919 21.999,15.171 21.989,15.274 21.962 C 15.498 21.901,15.738 21.711,15.867 21.492 C 15.964 21.327,15.980 21.257,15.980 21.000 C 15.980 20.746,15.963 20.672,15.872 20.516 C 15.813 20.415,15.698 20.282,15.618 20.221 C 15.323 19.996,15.395 20.000,11.729 20.000 C 8.786 20.000,8.320 19.992,8.109 19.937 C 7.409 19.756,6.873 19.255,6.680 18.602 C 6.583 18.276,5.354 10.309,5.350 9.980 C 5.348 9.809,5.371 9.693,5.432 9.575 C 5.549 9.347,5.842 9.099,6.058 9.045 C 6.162 9.019,6.600 9.000,7.115 9.000 L 7.995 9.000 8.008 10.153 L 8.020 11.307 8.141 11.503 C 8.543 12.156,9.457 12.156,9.859 11.503 L 9.980 11.307 9.992 10.153 L 10.005 9.000 12.000 9.000 L 13.995 9.000 14.008 10.153 L 14.020 11.307 14.141 11.503 C 14.209 11.613,14.346 11.756,14.452 11.828 C 14.923 12.144,15.554 11.999,15.859 11.503 L 15.980 11.307 15.992 10.153 L 16.005 9.000 16.885 9.000 C 17.400 9.000,17.838 9.019,17.942 9.045 C 18.158 9.099,18.451 9.347,18.569 9.575 C 18.684 9.798,18.675 10.070,18.523 11.033 C 18.386 11.897,18.374 12.139,18.458 12.341 C 18.682 12.877,19.308 13.128,19.812 12.884 C 20.019 12.784,20.222 12.573,20.306 12.372 C 20.337 12.298,20.428 11.829,20.508 11.329 C 20.740 9.879,20.710 9.416,20.336 8.654 C 20.045 8.061,19.558 7.586,18.947 7.298 C 18.421 7.050,18.290 7.029,17.090 7.010 L 16.000 6.992 16.000 6.312 C 16.000 5.522,15.924 5.057,15.705 4.516 C 15.172 3.197,14.001 2.269,12.605 2.058 C 12.144 1.989,11.816 1.990,11.358 2.061 M12.523 4.073 C 12.866 4.163,13.198 4.366,13.454 4.642 C 13.883 5.105,13.998 5.479,13.999 6.410 L 14.000 7.000 12.000 7.000 L 10.000 7.000 10.000 6.398 C 10.000 5.682,10.064 5.350,10.265 5.014 C 10.745 4.212,11.635 3.841,12.523 4.073 M18.695 15.057 C 18.466 15.129,18.256 15.299,18.128 15.516 L 18.020 15.700 18.020 17.503 L 18.020 19.306 18.141 19.503 C 18.543 20.156,19.457 20.156,19.859 19.503 L 19.980 19.306 19.980 17.503 L 19.980 15.700 19.872 15.516 C 19.628 15.101,19.150 14.915,18.695 15.057 M18.695 21.057 C 18.466 21.129,18.256 21.299,18.128 21.516 C 18.036 21.672,18.020 21.745,18.021 22.000 C 18.022 22.332,18.101 22.533,18.306 22.728 C 18.785 23.181,19.580 23.046,19.893 22.460 C 20.025 22.211,20.015 21.760,19.872 21.516 C 19.628 21.101,19.150 20.915,18.695 21.057 " stroke="none" fill-rule="evenodd" fill="black"></path></svg>