<svg xmlns="http://www.w3.org/2000/svg" width="24" height="24" viewBox="0 0 24 24" fill="none" stroke="currentColor" stroke-width="2" stroke-linecap="round" stroke-linejoin="round"><path d="M16.670 3.061 C 16.448 3.142,16.250 3.309,16.128 3.516 C 16.037 3.672,16.020 3.746,16.020 4.000 C 16.020 4.391,16.100 4.527,16.658 5.080 L 17.081 5.499 13.791 8.789 L 10.501 12.079 9.701 11.285 C 9.260 10.848,8.820 10.433,8.721 10.363 C 8.144 9.953,7.374 9.892,6.720 10.206 C 6.489 10.317,6.284 10.506,4.908 11.875 C 3.353 13.422,2.988 13.826,2.721 14.291 C 2.242 15.126,2.032 15.906,2.030 16.860 C 2.026 18.243,2.546 19.509,3.519 20.481 C 5.056 22.019,7.445 22.417,9.368 21.457 C 10.070 21.106,10.262 20.943,11.952 19.263 C 12.839 18.381,13.619 17.575,13.686 17.471 C 14.061 16.887,14.099 16.161,13.787 15.520 C 13.682 15.303,13.518 15.115,12.792 14.378 L 11.924 13.496 15.212 10.208 L 18.501 6.919 18.920 7.342 C 19.473 7.900,19.609 7.980,20.000 7.980 C 20.257 7.980,20.327 7.964,20.492 7.867 C 20.968 7.587,21.138 6.968,20.866 6.508 C 20.811 6.416,20.040 5.618,19.153 4.736 C 17.714 3.305,17.519 3.124,17.343 3.066 C 17.108 2.987,16.875 2.986,16.670 3.061 M9.800 14.220 L 11.980 16.400 10.560 17.823 C 9.204 19.182,8.858 19.492,8.500 19.670 C 7.795 20.020,6.933 20.076,6.140 19.824 C 5.684 19.679,5.351 19.470,4.956 19.080 C 4.566 18.694,4.326 18.320,4.167 17.851 C 4.071 17.565,4.062 17.487,4.062 16.880 C 4.062 16.269,4.070 16.196,4.170 15.900 C 4.380 15.278,4.459 15.181,6.078 13.550 C 6.902 12.720,7.586 12.040,7.598 12.040 C 7.610 12.040,8.601 13.021,9.800 14.220 " stroke="none" fill-rule="evenodd" fill="black"></path></svg>