<svg xmlns="http://www.w3.org/2000/svg" width="24" height="24" viewBox="0 0 24 24" fill="none" stroke="currentColor" stroke-width="2" stroke-linecap="round" stroke-linejoin="round"><path d="M8.499 3.042 C 7.387 3.233,6.482 4.030,6.116 5.140 C 6.026 5.413,6.023 5.467,6.009 7.210 L 5.995 9.000 5.367 9.002 C 4.639 9.005,4.342 9.065,3.983 9.281 C 3.703 9.449,3.354 9.816,3.219 10.083 C 3.009 10.496,3.000 10.599,3.000 12.500 C 3.000 14.411,3.009 14.503,3.225 14.930 C 3.361 15.199,3.801 15.639,4.070 15.775 C 4.472 15.979,4.643 16.000,5.866 16.000 L 6.995 16.000 7.008 17.153 L 7.020 18.307 7.141 18.503 C 7.543 19.156,8.457 19.156,8.859 18.503 L 8.980 18.307 8.992 17.153 L 9.005 16.000 10.001 16.000 L 10.997 16.000 11.009 18.153 L 11.020 20.306 11.141 20.503 C 11.543 21.156,12.457 21.156,12.859 20.503 L 12.980 20.306 12.991 18.153 L 13.003 16.000 13.998 16.000 L 14.993 16.000 15.007 16.653 C 15.020 17.300,15.021 17.308,15.141 17.503 C 15.543 18.156,16.457 18.156,16.859 17.503 C 16.979 17.308,16.980 17.300,16.993 16.653 L 17.007 16.000 18.135 16.000 C 19.357 16.000,19.528 15.979,19.930 15.775 C 20.196 15.640,20.638 15.200,20.771 14.937 C 20.990 14.506,21.000 14.396,20.999 12.514 C 20.999 10.642,20.985 10.484,20.781 10.083 C 20.646 9.816,20.297 9.449,20.017 9.281 C 19.658 9.065,19.361 9.005,18.633 9.002 L 18.005 9.000 17.991 7.210 C 17.977 5.467,17.974 5.413,17.884 5.140 C 17.562 4.163,16.820 3.424,15.861 3.122 L 15.540 3.021 12.120 3.014 C 10.239 3.011,8.609 3.023,8.499 3.042 M15.310 5.061 C 15.452 5.103,15.571 5.178,15.697 5.303 C 15.993 5.599,16.000 5.650,16.000 7.447 L 16.000 9.000 12.000 9.000 L 8.000 9.000 8.000 7.447 C 8.000 5.649,8.007 5.599,8.304 5.303 C 8.613 4.993,8.459 5.006,11.983 5.003 C 14.668 5.000,15.134 5.009,15.310 5.061 M19.000 12.500 L 19.000 14.000 12.000 14.000 L 5.000 14.000 5.000 12.500 L 5.000 11.000 12.000 11.000 L 19.000 11.000 19.000 12.500 " stroke="none" fill-rule="evenodd" fill="black"></path></svg>