<svg xmlns="http://www.w3.org/2000/svg" width="24" height="24" viewBox="0 0 24 24" fill="none" stroke="currentColor" stroke-width="2" stroke-linecap="round" stroke-linejoin="round"><path d="M5.695 7.057 C 5.466 7.129,5.256 7.299,5.128 7.516 L 5.020 7.700 5.008 9.456 C 4.996 11.350,5.005 11.460,5.202 11.877 C 5.348 12.186,5.771 12.623,6.070 12.775 C 6.472 12.979,6.643 13.000,7.867 13.000 L 8.997 13.000 9.008 14.653 L 9.020 16.306 9.141 16.503 C 9.543 17.156,10.457 17.156,10.859 16.503 L 10.980 16.306 10.980 12.003 L 10.980 7.700 10.871 7.514 C 10.479 6.848,9.521 6.848,9.129 7.514 L 9.020 7.700 9.008 9.350 L 8.997 11.000 8.000 11.000 L 7.003 11.000 6.992 9.350 L 6.980 7.700 6.872 7.516 C 6.628 7.101,6.150 6.915,5.695 7.057 M14.499 7.043 C 13.383 7.230,12.461 8.048,12.114 9.160 L 12.020 9.460 12.020 12.000 L 12.020 14.540 12.114 14.840 C 12.422 15.827,13.173 16.578,14.160 16.886 C 14.451 16.977,14.503 16.980,15.880 16.980 L 17.300 16.980 17.492 16.867 C 17.711 16.739,17.901 16.498,17.961 16.275 C 17.988 16.176,17.999 15.337,17.991 13.911 L 17.980 11.700 17.872 11.516 C 17.629 11.102,17.357 11.000,16.500 11.000 C 15.643 11.000,15.371 11.102,15.128 11.516 C 15.036 11.672,15.020 11.746,15.020 12.003 C 15.020 12.271,15.034 12.329,15.141 12.503 C 15.288 12.742,15.578 12.946,15.821 12.982 L 16.000 13.009 16.000 14.008 L 16.000 15.007 15.350 14.993 C 14.728 14.981,14.692 14.975,14.516 14.872 C 14.415 14.813,14.284 14.700,14.225 14.623 C 14.000 14.327,14.000 14.332,14.000 12.022 C 14.000 9.586,13.997 9.609,14.303 9.303 C 14.587 9.019,14.694 9.000,16.037 8.998 C 17.266 8.996,17.356 8.984,17.619 8.783 C 17.696 8.725,17.808 8.592,17.869 8.489 C 17.964 8.328,17.980 8.256,17.980 8.000 C 17.980 7.746,17.963 7.672,17.872 7.516 C 17.813 7.415,17.698 7.282,17.618 7.221 C 17.350 7.016,17.216 7.000,15.904 7.005 C 15.242 7.007,14.609 7.025,14.499 7.043 " stroke="none" fill-rule="evenodd" fill="black"></path></svg>