<svg xmlns="http://www.w3.org/2000/svg" width="24" height="24" viewBox="0 0 24 24" fill="none" stroke="currentColor" stroke-width="2" stroke-linecap="round" stroke-linejoin="round"><path d="M6.695 7.057 C 6.466 7.129,6.256 7.299,6.128 7.516 L 6.020 7.700 6.020 12.003 L 6.020 16.306 6.141 16.503 C 6.543 17.156,7.457 17.156,7.859 16.503 L 7.980 16.306 7.992 14.653 L 8.003 13.000 9.000 13.000 L 9.997 13.000 10.008 14.653 L 10.020 16.306 10.141 16.503 C 10.543 17.156,11.457 17.156,11.859 16.503 L 11.980 16.306 11.980 12.003 L 11.980 7.700 11.871 7.514 C 11.479 6.848,10.521 6.848,10.129 7.514 L 10.020 7.700 10.008 9.350 L 9.997 11.000 9.000 11.000 L 8.003 11.000 7.992 9.350 L 7.980 7.700 7.872 7.516 C 7.628 7.101,7.150 6.915,6.695 7.057 M15.695 9.057 C 15.466 9.129,15.256 9.299,15.128 9.516 C 15.025 9.692,15.019 9.728,15.007 10.350 L 14.993 11.000 14.443 11.000 C 13.648 11.000,13.366 11.111,13.128 11.516 C 13.037 11.672,13.020 11.746,13.020 12.000 C 13.020 12.256,13.036 12.328,13.131 12.489 C 13.256 12.702,13.449 12.864,13.670 12.943 C 13.768 12.978,14.022 12.997,14.407 12.998 L 14.993 13.000 15.007 13.653 C 15.020 14.300,15.021 14.308,15.141 14.503 C 15.209 14.613,15.346 14.756,15.452 14.828 C 15.923 15.144,16.554 14.999,16.859 14.503 C 16.979 14.308,16.980 14.300,16.993 13.653 L 17.007 13.000 17.593 12.998 C 17.978 12.997,18.232 12.978,18.330 12.943 C 18.551 12.864,18.744 12.702,18.869 12.489 C 18.964 12.328,18.980 12.256,18.980 12.000 C 18.980 11.746,18.963 11.672,18.872 11.516 C 18.634 11.111,18.352 11.000,17.557 11.000 L 17.007 11.000 16.993 10.350 C 16.981 9.728,16.975 9.692,16.872 9.516 C 16.628 9.101,16.150 8.915,15.695 9.057 " stroke="none" fill-rule="evenodd" fill="black"></path></svg>