<svg xmlns="http://www.w3.org/2000/svg" width="24" height="24" viewBox="0 0 24 24" fill="none" stroke="currentColor" stroke-width="2" stroke-linecap="round" stroke-linejoin="round"><path d="M5.695 7.057 C 5.466 7.129,5.256 7.299,5.128 7.516 C 5.037 7.672,5.020 7.746,5.020 8.000 C 5.020 8.256,5.036 8.328,5.131 8.489 C 5.192 8.592,5.304 8.725,5.381 8.783 C 5.650 8.989,5.714 8.996,7.220 8.998 C 8.536 9.000,8.628 9.005,8.748 9.078 C 8.970 9.214,9.000 9.324,9.000 10.008 C 9.000 10.544,8.990 10.636,8.922 10.748 C 8.779 10.983,8.698 11.000,7.748 11.000 C 6.811 11.000,6.634 11.029,6.382 11.221 C 6.302 11.282,6.187 11.415,6.128 11.516 C 6.037 11.672,6.020 11.746,6.020 12.000 C 6.020 12.256,6.036 12.328,6.131 12.489 C 6.192 12.592,6.304 12.725,6.381 12.783 C 6.635 12.977,6.752 12.996,7.712 12.998 C 8.701 13.000,8.778 13.016,8.922 13.252 C 8.990 13.364,9.000 13.456,9.000 13.992 C 9.000 14.676,8.970 14.786,8.748 14.922 C 8.628 14.995,8.538 15.000,7.256 15.000 C 5.773 15.000,5.653 15.014,5.382 15.221 C 5.302 15.282,5.187 15.415,5.128 15.516 C 5.037 15.672,5.020 15.746,5.020 16.000 C 5.020 16.257,5.036 16.327,5.133 16.492 C 5.262 16.712,5.502 16.901,5.730 16.963 C 5.832 16.990,6.435 17.000,7.454 16.992 L 9.020 16.979 9.320 16.869 C 10.039 16.605,10.601 16.043,10.869 15.320 C 10.980 15.021,10.980 15.016,10.980 14.000 C 10.980 12.987,10.979 12.978,10.870 12.684 C 10.810 12.521,10.705 12.301,10.636 12.194 L 10.512 12.000 10.636 11.806 C 10.705 11.699,10.810 11.479,10.870 11.316 C 10.979 11.022,10.980 11.013,10.980 10.000 C 10.980 8.985,10.979 8.978,10.869 8.680 C 10.643 8.064,10.194 7.561,9.620 7.277 C 9.102 7.021,8.937 7.001,7.300 7.003 C 6.239 7.005,5.816 7.019,5.695 7.057 M14.499 7.043 C 13.383 7.230,12.461 8.048,12.114 9.160 L 12.020 9.460 12.020 12.000 L 12.020 14.540 12.114 14.840 C 12.422 15.827,13.173 16.578,14.160 16.886 C 14.451 16.977,14.503 16.980,15.880 16.980 L 17.300 16.980 17.492 16.867 C 17.711 16.739,17.901 16.498,17.961 16.275 C 17.988 16.176,17.999 15.337,17.991 13.911 L 17.980 11.700 17.872 11.516 C 17.629 11.102,17.357 11.000,16.500 11.000 C 15.643 11.000,15.371 11.102,15.128 11.516 C 15.036 11.672,15.020 11.746,15.020 12.003 C 15.020 12.271,15.034 12.329,15.141 12.503 C 15.288 12.742,15.578 12.946,15.821 12.982 L 16.000 13.009 16.000 14.008 L 16.000 15.007 15.350 14.993 C 14.728 14.981,14.692 14.975,14.516 14.872 C 14.415 14.813,14.284 14.700,14.225 14.623 C 14.000 14.327,14.000 14.332,14.000 12.022 C 14.000 9.586,13.997 9.609,14.303 9.303 C 14.587 9.019,14.694 9.000,16.037 8.998 C 17.266 8.996,17.356 8.984,17.619 8.783 C 17.696 8.725,17.808 8.592,17.869 8.489 C 17.964 8.328,17.980 8.256,17.980 8.000 C 17.980 7.746,17.963 7.672,17.872 7.516 C 17.813 7.415,17.698 7.282,17.618 7.221 C 17.350 7.016,17.216 7.000,15.904 7.005 C 15.242 7.007,14.609 7.025,14.499 7.043 " stroke="none" fill-rule="evenodd" fill="black"></path></svg>