<svg xmlns="http://www.w3.org/2000/svg" width="24" height="24" viewBox="0 0 24 24" fill="none" stroke="currentColor" stroke-width="2" stroke-linecap="round" stroke-linejoin="round"><path d="M2.695 7.057 C 2.466 7.129,2.256 7.299,2.128 7.516 L 2.020 7.700 2.008 9.456 C 1.996 11.350,2.005 11.460,2.202 11.877 C 2.348 12.186,2.771 12.623,3.070 12.775 C 3.472 12.979,3.643 13.000,4.867 13.000 L 5.997 13.000 6.008 14.653 L 6.020 16.306 6.141 16.503 C 6.543 17.156,7.457 17.156,7.859 16.503 L 7.980 16.306 7.980 12.003 L 7.980 7.700 7.871 7.514 C 7.479 6.848,6.521 6.848,6.129 7.514 L 6.020 7.700 6.008 9.350 L 5.997 11.000 5.000 11.000 L 4.003 11.000 3.992 9.350 L 3.980 7.700 3.872 7.516 C 3.628 7.101,3.150 6.915,2.695 7.057 M11.499 7.043 C 10.383 7.230,9.461 8.048,9.114 9.160 L 9.020 9.460 9.020 12.000 L 9.020 14.540 9.114 14.840 C 9.422 15.827,10.173 16.578,11.160 16.886 C 11.451 16.977,11.503 16.980,12.880 16.980 L 14.300 16.980 14.492 16.867 C 14.711 16.739,14.901 16.498,14.961 16.275 C 14.988 16.176,14.999 15.337,14.991 13.911 L 14.980 11.700 14.872 11.516 C 14.629 11.102,14.357 11.000,13.500 11.000 C 12.643 11.000,12.371 11.102,12.128 11.516 C 12.036 11.672,12.020 11.746,12.020 12.003 C 12.020 12.271,12.034 12.329,12.141 12.503 C 12.288 12.742,12.578 12.946,12.821 12.982 L 13.000 13.009 13.000 14.008 L 13.000 15.007 12.350 14.993 C 11.728 14.981,11.692 14.975,11.516 14.872 C 11.415 14.813,11.284 14.700,11.225 14.623 C 11.000 14.327,11.000 14.332,11.000 12.022 C 11.000 9.586,10.997 9.609,11.303 9.303 C 11.587 9.019,11.694 9.000,13.037 8.998 C 14.266 8.996,14.356 8.984,14.619 8.783 C 14.696 8.725,14.808 8.592,14.869 8.489 C 14.964 8.328,14.980 8.256,14.980 8.000 C 14.980 7.746,14.963 7.672,14.872 7.516 C 14.813 7.415,14.698 7.282,14.618 7.221 C 14.350 7.016,14.216 7.000,12.904 7.005 C 12.242 7.007,11.609 7.025,11.499 7.043 M18.695 9.057 C 18.466 9.129,18.256 9.299,18.128 9.516 C 18.025 9.692,18.019 9.728,18.007 10.350 L 17.993 11.000 17.443 11.000 C 16.648 11.000,16.366 11.111,16.128 11.516 C 16.037 11.672,16.020 11.746,16.020 12.000 C 16.020 12.256,16.036 12.328,16.131 12.489 C 16.256 12.702,16.449 12.864,16.670 12.943 C 16.768 12.978,17.022 12.997,17.407 12.998 L 17.993 13.000 18.007 13.653 C 18.020 14.300,18.021 14.308,18.141 14.503 C 18.209 14.613,18.346 14.756,18.452 14.828 C 18.923 15.144,19.554 14.999,19.859 14.503 C 19.979 14.308,19.980 14.300,19.993 13.653 L 20.007 13.000 20.593 12.998 C 20.978 12.997,21.232 12.978,21.330 12.943 C 21.551 12.864,21.744 12.702,21.869 12.489 C 21.964 12.328,21.980 12.256,21.980 12.000 C 21.980 11.746,21.963 11.672,21.872 11.516 C 21.634 11.111,21.352 11.000,20.557 11.000 L 20.007 11.000 19.993 10.350 C 19.981 9.728,19.975 9.692,19.872 9.516 C 19.628 9.101,19.150 8.915,18.695 9.057 " stroke="none" fill-rule="evenodd" fill="black"></path></svg>