<svg xmlns="http://www.w3.org/2000/svg" width="24" height="24" viewBox="0 0 24 24" fill="none" stroke="currentColor" stroke-width="2" stroke-linecap="round" stroke-linejoin="round"><path d="M2.670 2.061 C 2.448 2.142,2.250 2.309,2.128 2.516 C 2.036 2.672,2.020 2.745,2.021 3.000 C 2.021 3.213,2.043 3.341,2.095 3.440 C 2.136 3.517,2.638 4.051,3.211 4.627 L 4.252 5.674 4.061 5.887 C 3.044 7.017,2.747 8.655,3.220 10.521 C 3.437 11.376,3.729 12.130,4.259 13.207 C 4.512 13.720,4.551 13.824,4.507 13.877 C 4.071 14.408,3.343 15.211,2.676 15.900 C 2.399 16.186,2.138 16.483,2.097 16.560 C 2.043 16.661,2.021 16.784,2.021 17.000 C 2.020 17.258,2.036 17.327,2.133 17.492 C 2.414 17.970,3.030 18.138,3.497 17.864 C 3.667 17.764,4.549 16.863,5.282 16.040 C 5.488 15.809,5.667 15.620,5.681 15.620 C 5.695 15.620,5.854 15.804,6.036 16.030 C 6.906 17.112,7.614 17.651,8.392 17.824 C 8.932 17.944,9.475 17.822,9.972 17.468 C 10.339 17.206,10.595 16.905,11.100 16.145 C 11.342 15.781,11.550 15.482,11.563 15.481 C 11.575 15.481,11.626 15.579,11.676 15.700 C 11.805 16.010,12.166 16.572,12.427 16.870 C 13.009 17.533,13.830 17.929,14.741 17.988 C 15.173 18.015,15.436 17.952,15.863 17.720 L 16.146 17.566 18.243 19.665 C 19.396 20.820,20.421 21.813,20.520 21.873 C 20.673 21.964,20.746 21.980,21.000 21.980 C 21.257 21.980,21.327 21.964,21.492 21.867 C 21.968 21.587,22.139 20.967,21.865 20.508 C 21.810 20.416,17.665 16.243,12.653 11.235 C 4.231 2.820,3.525 2.125,3.343 2.065 C 3.107 1.987,2.874 1.986,2.670 2.061 M6.352 7.773 L 7.000 8.425 7.000 8.808 C 7.000 9.502,6.845 10.140,6.498 10.875 C 6.256 11.387,5.921 11.965,5.881 11.940 C 5.836 11.913,5.495 11.101,5.354 10.688 C 4.926 9.432,4.893 8.363,5.261 7.638 C 5.358 7.446,5.620 7.120,5.676 7.120 C 5.691 7.120,5.995 7.414,6.352 7.773 M10.081 14.076 C 9.513 14.925,8.988 15.678,8.914 15.748 C 8.780 15.876,8.780 15.876,8.643 15.810 C 8.438 15.710,8.069 15.351,7.672 14.865 C 7.322 14.438,7.000 13.992,7.000 13.936 C 7.000 13.920,7.106 13.753,7.235 13.564 C 7.848 12.668,8.409 11.589,8.656 10.833 C 8.738 10.584,8.813 10.354,8.824 10.322 C 8.837 10.284,9.232 10.652,9.978 11.398 L 11.113 12.533 10.081 14.076 M14.041 15.465 C 14.499 15.929,14.499 15.930,14.286 15.817 C 14.054 15.693,13.794 15.428,13.647 15.166 C 13.597 15.075,13.561 15.000,13.568 15.000 C 13.575 15.000,13.788 15.209,14.041 15.465 M19.689 15.056 C 19.452 15.134,19.262 15.289,19.131 15.511 C 19.036 15.673,19.020 15.743,19.021 16.000 C 19.021 16.211,19.043 16.339,19.093 16.433 C 19.195 16.620,20.306 17.747,20.508 17.866 C 20.605 17.923,20.769 17.975,20.894 17.988 C 21.622 18.063,22.170 17.375,21.939 16.675 C 21.877 16.488,21.789 16.380,21.264 15.846 C 20.932 15.509,20.584 15.188,20.490 15.133 C 20.281 15.010,19.934 14.976,19.689 15.056 " stroke="none" fill-rule="evenodd" fill="black"></path></svg>