<svg xmlns="http://www.w3.org/2000/svg" width="24" height="24" viewBox="0 0 24 24" fill="none" stroke="currentColor" stroke-width="2" stroke-linecap="round" stroke-linejoin="round"><path d="M5.574 5.041 C 4.278 5.276,3.243 6.560,3.044 8.180 C 2.868 9.622,3.229 11.115,4.259 13.207 C 4.512 13.720,4.551 13.824,4.507 13.877 C 4.071 14.408,3.343 15.211,2.676 15.900 C 2.399 16.186,2.138 16.483,2.097 16.560 C 2.043 16.661,2.021 16.784,2.021 17.000 C 2.020 17.258,2.036 17.327,2.133 17.492 C 2.414 17.970,3.030 18.138,3.497 17.864 C 3.667 17.764,4.549 16.863,5.282 16.040 C 5.488 15.809,5.667 15.620,5.681 15.620 C 5.695 15.620,5.854 15.804,6.036 16.030 C 6.906 17.112,7.614 17.651,8.392 17.824 C 8.932 17.944,9.475 17.822,9.972 17.468 C 10.339 17.206,10.595 16.905,11.100 16.145 C 11.342 15.781,11.550 15.482,11.563 15.481 C 11.575 15.481,11.626 15.579,11.676 15.700 C 11.805 16.010,12.166 16.572,12.427 16.870 C 13.009 17.533,13.830 17.929,14.741 17.988 C 15.465 18.034,15.770 17.878,17.337 16.664 C 17.752 16.343,18.111 16.080,18.135 16.080 C 18.278 16.080,19.176 16.740,19.974 17.431 C 20.523 17.906,20.611 17.959,20.900 17.989 C 21.291 18.029,21.665 17.836,21.869 17.489 C 21.962 17.331,21.980 17.254,21.980 17.020 C 21.980 16.579,21.894 16.446,21.246 15.889 C 19.649 14.514,18.621 13.935,17.921 14.017 C 17.493 14.067,17.164 14.262,16.040 15.138 C 15.655 15.438,15.233 15.756,15.101 15.845 C 14.822 16.033,14.736 16.032,14.333 15.837 C 13.711 15.537,13.296 14.702,13.055 13.264 C 12.945 12.602,12.907 12.505,12.676 12.281 C 12.331 11.946,11.801 11.914,11.395 12.203 C 11.327 12.252,10.798 13.004,10.162 13.954 C 9.549 14.870,8.988 15.678,8.914 15.748 C 8.780 15.876,8.780 15.876,8.643 15.810 C 8.438 15.710,8.069 15.351,7.672 14.865 C 7.322 14.438,7.000 13.992,7.000 13.936 C 7.000 13.920,7.106 13.753,7.235 13.564 C 8.139 12.242,8.732 10.916,8.927 9.781 C 8.998 9.370,9.007 9.198,8.987 8.600 C 8.917 6.520,8.323 5.442,7.056 5.102 C 6.773 5.026,5.863 4.989,5.574 5.041 M6.631 7.075 C 6.812 7.172,6.946 7.763,6.987 8.639 C 7.023 9.426,6.886 10.053,6.498 10.875 C 6.256 11.387,5.921 11.965,5.881 11.940 C 5.836 11.913,5.495 11.101,5.354 10.688 C 4.843 9.188,4.900 7.950,5.511 7.273 C 5.724 7.037,5.840 6.995,6.224 7.014 C 6.402 7.023,6.585 7.050,6.631 7.075 " stroke="none" fill-rule="evenodd" fill="black"></path></svg>