<svg xmlns="http://www.w3.org/2000/svg" width="24" height="24" viewBox="0 0 24 24" fill="none" stroke="currentColor" stroke-width="2" stroke-linecap="round" stroke-linejoin="round"><path d="M13.668 4.061 C 13.585 4.092,13.463 4.155,13.397 4.202 C 13.331 4.249,10.987 7.495,8.186 11.415 C 4.285 16.877,3.083 18.588,3.042 18.733 C 2.799 19.601,3.770 20.324,4.531 19.842 C 4.688 19.742,5.417 18.740,9.809 12.592 C 13.714 7.125,14.917 5.412,14.958 5.267 C 15.173 4.500,14.412 3.788,13.668 4.061 M19.668 4.061 C 19.585 4.092,19.463 4.155,19.397 4.202 C 19.331 4.249,16.987 7.495,14.186 11.415 C 10.285 16.877,9.083 18.588,9.042 18.733 C 8.799 19.601,9.770 20.324,10.531 19.842 C 10.688 19.742,11.417 18.740,15.809 12.592 C 19.714 7.125,20.917 5.412,20.958 5.267 C 21.173 4.500,20.412 3.788,19.668 4.061 " stroke="none" fill-rule="evenodd" fill="black"></path></svg>