<svg xmlns="http://www.w3.org/2000/svg" width="24" height="24" viewBox="0 0 24 24" fill="none" stroke="currentColor" stroke-width="2" stroke-linecap="round" stroke-linejoin="round"><path d="M5.358 2.061 C 3.731 2.315,2.417 3.584,2.083 5.227 C 2.002 5.622,2.000 5.744,2.000 10.000 C 2.000 14.256,2.002 14.378,2.083 14.773 C 2.311 15.892,2.985 16.851,3.956 17.436 C 4.285 17.635,4.810 17.832,5.243 17.921 C 5.622 17.998,5.805 18.000,12.000 18.000 C 18.195 18.000,18.378 17.998,18.757 17.921 C 20.117 17.643,21.193 16.755,21.704 15.488 C 21.779 15.300,21.877 14.972,21.921 14.757 C 21.997 14.382,22.000 14.200,22.000 10.000 C 22.000 5.800,21.997 5.618,21.921 5.243 C 21.628 3.806,20.637 2.680,19.245 2.204 C 18.646 1.999,18.690 2.000,11.960 2.004 C 6.959 2.007,5.631 2.018,5.358 2.061 M18.523 4.073 C 19.022 4.203,19.516 4.599,19.772 5.071 C 19.989 5.472,19.999 5.603,19.999 8.198 L 20.000 10.575 19.250 9.835 C 18.458 9.053,18.135 8.794,17.703 8.598 C 16.983 8.272,16.051 8.264,15.341 8.578 C 14.896 8.775,14.546 9.051,13.769 9.816 L 12.998 10.576 11.749 9.334 C 10.477 8.070,10.172 7.811,9.703 7.598 C 8.983 7.272,8.051 7.264,7.341 7.578 C 6.840 7.799,6.562 8.033,5.270 9.315 L 4.000 10.576 4.000 8.186 C 4.000 5.519,4.006 5.445,4.265 5.014 C 4.546 4.543,4.988 4.201,5.477 4.073 C 5.720 4.010,6.211 4.005,12.000 4.005 C 17.789 4.005,18.280 4.010,18.523 4.073 M14.695 5.055 C 14.464 5.130,14.255 5.300,14.128 5.516 C 14.037 5.672,14.020 5.746,14.020 6.000 C 14.020 6.257,14.036 6.327,14.133 6.492 C 14.651 7.374,15.998 7.018,15.998 6.000 C 15.998 5.623,15.792 5.281,15.463 5.112 C 15.265 5.010,14.911 4.984,14.695 5.055 M8.920 9.450 C 9.056 9.512,9.634 10.063,11.260 11.682 C 12.448 12.864,13.481 13.862,13.555 13.899 C 14.009 14.128,14.601 13.944,14.867 13.492 C 14.964 13.327,14.980 13.258,14.979 13.000 C 14.978 12.646,14.924 12.524,14.627 12.210 L 14.425 11.996 15.142 11.277 C 15.945 10.472,16.125 10.349,16.498 10.349 C 16.900 10.349,16.975 10.407,18.550 11.975 L 20.000 13.418 19.999 13.799 C 19.998 14.543,19.844 14.954,19.400 15.404 C 19.119 15.690,18.854 15.846,18.492 15.940 C 18.147 16.030,5.853 16.030,5.508 15.940 C 5.174 15.853,4.918 15.711,4.653 15.465 C 4.192 15.037,4.006 14.572,4.002 13.839 L 4.000 13.419 5.950 11.474 C 7.022 10.404,7.958 9.499,8.029 9.464 C 8.337 9.309,8.602 9.305,8.920 9.450 M7.695 20.055 C 7.464 20.130,7.255 20.300,7.128 20.516 C 7.037 20.672,7.020 20.746,7.020 21.000 C 7.020 21.257,7.036 21.327,7.133 21.492 C 7.651 22.374,8.998 22.018,8.998 21.000 C 8.998 20.623,8.792 20.281,8.463 20.112 C 8.265 20.010,7.911 19.984,7.695 20.055 M11.695 20.055 C 11.464 20.130,11.255 20.300,11.128 20.516 C 11.037 20.672,11.020 20.746,11.020 21.000 C 11.020 21.257,11.036 21.327,11.133 21.492 C 11.651 22.374,12.998 22.018,12.998 21.000 C 12.998 20.623,12.792 20.281,12.463 20.112 C 12.265 20.010,11.911 19.984,11.695 20.055 M15.695 20.055 C 15.464 20.130,15.255 20.300,15.128 20.516 C 15.037 20.672,15.020 20.746,15.020 21.000 C 15.020 21.257,15.036 21.327,15.133 21.492 C 15.651 22.374,16.998 22.018,16.998 21.000 C 16.998 20.623,16.792 20.281,16.463 20.112 C 16.265 20.010,15.911 19.984,15.695 20.055 " stroke="none" fill-rule="evenodd" fill="black"></path></svg>