<svg xmlns="http://www.w3.org/2000/svg" width="24" height="24" viewBox="0 0 24 24" fill="none" stroke="currentColor" stroke-width="2" stroke-linecap="round" stroke-linejoin="round"><path d="M15.695 4.057 C 15.466 4.129,15.256 4.299,15.128 4.516 C 15.028 4.686,15.019 4.739,15.006 5.229 C 14.980 6.234,15.218 6.920,15.813 7.551 C 16.368 8.138,17.015 8.433,17.900 8.501 C 18.315 8.532,18.486 8.593,18.674 8.772 C 18.923 9.011,18.972 9.160,18.999 9.767 C 19.023 10.282,19.031 10.325,19.143 10.507 C 19.543 11.156,20.458 11.154,20.859 10.503 C 20.975 10.314,20.981 10.285,20.994 9.775 C 21.015 8.975,20.885 8.437,20.542 7.901 C 20.236 7.422,19.742 6.994,19.226 6.760 C 18.893 6.609,18.720 6.569,18.188 6.519 C 17.701 6.474,17.519 6.413,17.326 6.228 C 17.078 5.990,17.028 5.839,17.001 5.237 C 16.978 4.747,16.966 4.677,16.870 4.513 C 16.628 4.101,16.149 3.915,15.695 4.057 M3.477 12.073 C 2.806 12.249,2.238 12.823,2.060 13.508 C 2.013 13.687,2.000 14.009,2.000 15.000 C 2.000 16.368,2.018 16.521,2.225 16.930 C 2.361 17.199,2.801 17.639,3.070 17.775 C 3.542 18.014,2.983 18.000,12.000 18.000 C 21.017 18.000,20.458 18.014,20.930 17.775 C 21.196 17.640,21.638 17.200,21.771 16.937 C 21.979 16.527,22.000 16.352,21.999 15.014 C 21.999 13.682,21.974 13.463,21.781 13.083 C 21.646 12.816,21.297 12.449,21.017 12.281 C 20.523 11.983,21.217 12.005,12.000 12.005 C 4.321 12.005,3.721 12.009,3.477 12.073 M7.000 15.000 L 7.000 16.000 5.500 16.000 L 4.000 16.000 4.000 15.000 L 4.000 14.000 5.500 14.000 L 7.000 14.000 7.000 15.000 M20.000 15.000 L 20.000 16.000 14.500 16.000 L 9.000 16.000 9.000 15.000 L 9.000 14.000 14.500 14.000 L 20.000 14.000 20.000 15.000 " stroke="none" fill-rule="evenodd" fill="black"></path></svg>