<svg xmlns="http://www.w3.org/2000/svg" width="24" height="24" viewBox="0 0 24 24" fill="none" stroke="currentColor" stroke-width="2" stroke-linecap="round" stroke-linejoin="round"><path d="M2.670 2.061 C 2.448 2.142,2.250 2.309,2.128 2.516 C 2.036 2.672,2.020 2.745,2.021 3.000 C 2.021 3.212,2.043 3.341,2.095 3.440 C 2.135 3.517,4.061 5.474,6.374 7.790 L 10.579 12.000 7.160 12.002 C 3.347 12.005,3.453 11.998,2.983 12.281 C 2.703 12.449,2.354 12.816,2.219 13.083 C 2.019 13.478,2.000 13.640,2.000 15.000 C 2.000 16.368,2.018 16.521,2.225 16.930 C 2.361 17.199,2.801 17.639,3.070 17.775 C 3.538 18.012,3.157 18.000,10.159 18.000 L 16.580 18.000 18.460 19.883 C 19.494 20.918,20.421 21.813,20.520 21.873 C 20.673 21.964,20.746 21.980,21.000 21.980 C 21.257 21.980,21.327 21.964,21.492 21.867 C 21.968 21.587,22.139 20.967,21.865 20.508 C 21.810 20.416,17.665 16.243,12.653 11.235 C 4.231 2.820,3.525 2.125,3.343 2.065 C 3.107 1.987,2.874 1.986,2.670 2.061 M15.695 4.057 C 15.466 4.129,15.256 4.299,15.128 4.516 C 15.028 4.686,15.019 4.739,15.006 5.229 C 14.980 6.234,15.218 6.920,15.813 7.551 C 16.368 8.138,17.015 8.433,17.900 8.501 C 18.315 8.532,18.486 8.593,18.674 8.772 C 18.923 9.011,18.972 9.160,18.999 9.767 C 19.023 10.282,19.031 10.325,19.143 10.507 C 19.543 11.156,20.458 11.154,20.859 10.503 C 20.975 10.314,20.981 10.285,20.994 9.775 C 21.015 8.975,20.885 8.437,20.542 7.901 C 20.236 7.422,19.742 6.994,19.226 6.760 C 18.893 6.609,18.720 6.569,18.188 6.519 C 17.701 6.474,17.519 6.413,17.326 6.228 C 17.078 5.990,17.028 5.839,17.001 5.237 C 16.978 4.747,16.966 4.677,16.870 4.513 C 16.628 4.101,16.149 3.915,15.695 4.057 M16.695 12.057 C 16.466 12.129,16.256 12.299,16.128 12.516 C 16.037 12.672,16.020 12.746,16.020 13.000 C 16.020 13.256,16.036 13.328,16.131 13.489 C 16.192 13.592,16.304 13.725,16.381 13.783 C 16.654 13.991,16.700 13.996,18.410 13.998 L 20.000 14.000 20.000 15.015 C 20.000 15.913,19.992 16.037,19.933 16.085 C 19.815 16.183,19.712 16.477,19.712 16.720 C 19.712 17.456,20.497 17.938,21.152 17.604 C 21.346 17.505,21.655 17.167,21.784 16.912 C 21.981 16.524,22.000 16.356,21.999 15.022 C 21.999 13.681,21.974 13.463,21.781 13.083 C 21.646 12.816,21.297 12.449,21.017 12.281 C 20.580 12.018,20.463 12.005,18.560 12.005 C 17.283 12.005,16.819 12.018,16.695 12.057 M7.000 15.000 L 7.000 16.000 5.500 16.000 L 4.000 16.000 4.000 15.000 L 4.000 14.000 5.500 14.000 L 7.000 14.000 7.000 15.000 M13.580 15.000 L 14.579 16.000 11.790 16.000 L 9.000 16.000 9.000 15.000 L 9.000 14.000 10.790 14.000 L 12.581 14.000 13.580 15.000 " stroke="none" fill-rule="evenodd" fill="black"></path></svg>