<svg xmlns="http://www.w3.org/2000/svg" width="24" height="24" viewBox="0 0 24 24" fill="none" stroke="currentColor" stroke-width="2" stroke-linecap="round" stroke-linejoin="round"><path d="M15.477 1.073 C 14.806 1.249,14.238 1.823,14.060 2.508 C 13.941 2.962,14.003 3.492,14.225 3.930 C 14.361 4.199,14.801 4.639,15.070 4.775 C 15.659 5.073,16.341 5.073,16.930 4.775 C 17.196 4.640,17.638 4.200,17.771 3.937 C 17.994 3.498,18.052 3.007,17.940 2.529 C 17.858 2.182,17.720 1.927,17.465 1.653 C 17.074 1.232,16.560 1.005,16.000 1.005 C 15.857 1.005,15.622 1.036,15.477 1.073 M8.240 5.037 C 8.048 5.096,7.893 5.196,7.757 5.349 C 7.676 5.441,7.295 6.159,6.825 7.105 C 5.949 8.868,5.929 8.926,6.061 9.322 C 6.189 9.707,6.594 10.000,7.000 10.000 C 7.080 10.000,7.232 9.971,7.336 9.935 C 7.689 9.815,7.776 9.690,8.475 8.290 L 9.120 7.000 10.680 7.000 C 11.538 7.000,12.240 7.007,12.240 7.015 C 12.240 7.023,11.642 8.053,10.912 9.305 C 10.078 10.733,9.564 11.654,9.531 11.780 C 9.444 12.111,9.549 12.463,9.807 12.705 C 9.880 12.774,10.867 13.447,12.000 14.201 C 13.133 14.954,14.066 15.575,14.072 15.581 C 14.096 15.601,14.842 20.131,14.824 20.149 C 14.795 20.178,9.285 19.044,9.073 18.965 C 9.007 18.941,9.229 18.787,10.266 18.142 C 10.967 17.705,11.600 17.292,11.674 17.224 C 11.852 17.058,11.962 16.834,11.988 16.584 C 12.007 16.403,11.971 16.263,11.701 15.445 C 11.439 14.654,11.370 14.487,11.249 14.353 C 11.029 14.110,10.831 14.022,10.500 14.022 C 10.171 14.022,9.966 14.112,9.761 14.345 C 9.462 14.685,9.437 15.000,9.656 15.638 C 9.735 15.868,9.800 16.060,9.800 16.065 C 9.800 16.070,9.058 16.538,8.150 17.105 C 7.242 17.671,6.441 18.179,6.368 18.233 C 6.218 18.346,6.277 18.353,5.220 18.097 C 4.701 17.971,4.651 17.950,4.532 17.817 C 4.383 17.647,4.134 17.176,3.985 16.779 C 3.856 16.435,3.707 16.248,3.467 16.128 C 2.905 15.847,2.252 16.103,2.060 16.679 C 1.968 16.956,1.997 17.203,2.172 17.640 C 2.469 18.384,2.818 18.936,3.244 19.338 C 3.735 19.801,3.849 19.841,6.440 20.435 C 8.316 20.865,10.646 21.361,14.460 22.141 C 15.274 22.308,16.471 22.561,17.120 22.705 C 18.056 22.913,18.395 22.971,18.760 22.988 C 19.540 23.025,20.235 22.843,20.846 22.442 C 21.240 22.183,21.718 21.675,21.884 21.339 C 21.996 21.111,22.009 21.052,21.990 20.847 C 21.964 20.562,21.853 20.335,21.655 20.161 C 21.455 19.986,21.285 19.920,21.031 19.920 C 20.633 19.921,20.534 19.973,20.120 20.402 C 19.674 20.865,19.504 20.958,19.038 20.990 C 18.766 21.008,18.616 20.987,17.842 20.815 C 17.076 20.646,16.954 20.609,16.938 20.540 C 16.928 20.496,16.713 19.209,16.461 17.680 C 16.208 16.151,15.982 14.828,15.957 14.740 C 15.859 14.383,15.801 14.336,13.781 12.989 C 12.725 12.285,11.855 11.705,11.849 11.701 C 11.844 11.696,12.237 11.010,12.724 10.176 C 13.210 9.342,13.681 8.536,13.770 8.383 L 13.931 8.107 14.576 9.383 C 15.147 10.515,15.239 10.674,15.387 10.785 C 15.596 10.942,18.728 12.000,18.984 12.000 C 19.741 12.000,20.221 11.207,19.874 10.531 C 19.701 10.195,19.581 10.135,18.080 9.636 L 16.711 9.180 15.759 7.276 C 14.754 5.268,14.734 5.236,14.380 5.075 C 14.230 5.006,14.043 5.002,11.280 5.004 C 9.663 5.006,8.295 5.021,8.240 5.037 " stroke="none" fill-rule="evenodd" fill="black"></path></svg>