<svg xmlns="http://www.w3.org/2000/svg" width="24" height="24" viewBox="0 0 24 24" fill="none" stroke="currentColor" stroke-width="2" stroke-linecap="round" stroke-linejoin="round"><path d="M11.695 1.057 C 11.466 1.129,11.256 1.299,11.128 1.516 C 11.021 1.698,11.020 1.711,11.007 2.530 C 11.000 2.986,10.988 3.360,10.981 3.360 C 10.974 3.360,10.817 3.288,10.632 3.199 C 10.219 3.001,9.968 2.964,9.679 3.060 C 9.292 3.189,9.000 3.594,9.000 4.000 C 9.000 4.243,9.119 4.521,9.298 4.697 C 9.414 4.812,9.692 4.973,10.232 5.239 L 11.000 5.618 11.002 6.899 C 11.003 7.864,11.017 8.217,11.057 8.330 C 11.193 8.712,11.521 8.956,11.942 8.990 L 12.200 9.011 12.200 9.178 C 12.200 9.427,12.308 9.698,12.473 9.865 C 12.554 9.947,12.926 10.188,13.300 10.402 L 13.980 10.790 14.007 11.056 C 14.052 11.504,14.286 11.805,14.699 11.946 C 15.322 12.158,16.000 11.664,16.000 10.998 L 16.000 10.847 16.990 10.277 C 17.535 9.964,17.993 9.701,18.009 9.692 C 18.024 9.684,18.338 9.878,18.705 10.123 C 19.487 10.646,19.632 10.718,19.900 10.719 C 20.198 10.720,20.389 10.652,20.580 10.476 C 20.823 10.252,20.935 9.972,20.910 9.653 C 20.879 9.278,20.750 9.087,20.337 8.813 C 20.152 8.689,20.000 8.576,20.000 8.562 C 20.000 8.548,20.265 8.384,20.590 8.198 C 21.406 7.730,21.547 7.594,21.639 7.185 C 21.746 6.705,21.405 6.171,20.906 6.036 C 20.587 5.950,20.377 6.015,19.696 6.406 C 19.350 6.605,19.046 6.776,19.020 6.786 C 18.986 6.798,18.964 6.700,18.945 6.454 C 18.910 6.000,18.858 5.836,18.686 5.634 C 18.174 5.036,17.197 5.236,16.977 5.984 C 16.925 6.162,16.924 6.301,16.969 7.064 L 17.021 7.940 16.680 8.141 C 16.493 8.252,16.048 8.511,15.691 8.717 L 15.041 9.090 14.364 8.704 C 13.543 8.237,13.458 8.200,13.201 8.200 L 13.000 8.200 13.000 6.909 L 13.000 5.618 13.768 5.239 C 14.308 4.973,14.586 4.812,14.702 4.697 C 14.881 4.521,15.000 4.243,15.000 4.000 C 15.000 3.594,14.708 3.189,14.321 3.060 C 14.032 2.964,13.781 3.001,13.368 3.199 C 13.183 3.288,13.026 3.360,13.019 3.360 C 13.012 3.360,13.000 2.986,12.993 2.530 C 12.980 1.711,12.979 1.698,12.872 1.516 C 12.628 1.101,12.150 0.915,11.695 1.057 M2.670 2.061 C 2.448 2.142,2.250 2.309,2.128 2.516 C 2.037 2.672,2.020 2.746,2.020 3.000 C 2.020 3.254,2.036 3.327,2.127 3.480 C 2.186 3.579,2.866 4.290,3.637 5.060 L 5.040 6.460 5.040 6.634 C 5.040 6.764,5.026 6.803,4.986 6.788 C 4.957 6.777,4.651 6.605,4.306 6.407 C 3.654 6.032,3.437 5.960,3.152 6.021 C 2.627 6.135,2.252 6.673,2.357 7.163 C 2.449 7.592,2.584 7.724,3.411 8.198 C 3.735 8.385,3.996 8.551,3.991 8.568 C 3.985 8.585,3.836 8.694,3.661 8.811 C 3.277 9.066,3.127 9.278,3.092 9.613 C 3.057 9.952,3.137 10.178,3.378 10.425 C 3.599 10.652,3.766 10.720,4.100 10.719 C 4.369 10.718,4.513 10.646,5.297 10.122 L 5.967 9.674 6.574 10.025 C 6.907 10.217,7.355 10.475,7.570 10.598 L 7.959 10.820 7.960 12.001 L 7.960 13.182 6.964 13.754 L 5.968 14.327 5.298 13.879 C 4.500 13.345,4.371 13.282,4.080 13.281 C 3.306 13.280,2.822 14.137,3.228 14.793 C 3.304 14.917,3.444 15.045,3.668 15.197 C 3.849 15.320,3.997 15.431,3.998 15.444 C 3.999 15.457,3.726 15.626,3.390 15.818 C 2.573 16.286,2.449 16.409,2.357 16.837 C 2.215 17.499,2.915 18.145,3.580 17.965 C 3.669 17.942,4.024 17.760,4.369 17.561 C 4.715 17.362,5.005 17.200,5.013 17.200 C 5.021 17.200,5.040 17.357,5.055 17.548 C 5.070 17.740,5.103 17.969,5.130 18.058 C 5.193 18.274,5.535 18.618,5.744 18.676 C 6.316 18.835,6.866 18.549,7.024 18.012 C 7.076 17.833,7.078 17.696,7.042 17.052 C 7.018 16.638,6.992 16.246,6.983 16.180 C 6.968 16.061,6.982 16.051,7.964 15.487 L 8.960 14.914 9.970 15.491 L 10.980 16.069 10.991 17.225 L 11.001 18.381 10.232 18.761 C 9.692 19.027,9.414 19.188,9.298 19.303 C 9.119 19.479,9.000 19.757,9.000 20.000 C 9.000 20.406,9.293 20.811,9.678 20.939 C 9.974 21.038,10.207 21.005,10.622 20.806 C 10.812 20.715,10.974 20.640,10.981 20.640 C 10.988 20.640,11.000 21.015,11.007 21.473 L 11.020 22.307 11.141 22.503 C 11.446 22.999,12.077 23.144,12.548 22.828 C 12.654 22.756,12.791 22.613,12.859 22.503 L 12.980 22.307 12.993 21.473 C 13.000 21.015,13.012 20.640,13.019 20.640 C 13.026 20.640,13.188 20.715,13.378 20.806 C 13.793 21.005,14.026 21.038,14.322 20.939 C 14.707 20.811,15.000 20.406,15.000 20.000 C 15.000 19.773,14.884 19.488,14.725 19.322 C 14.625 19.218,14.337 19.050,13.790 18.776 L 13.000 18.380 13.000 17.234 L 13.000 16.088 13.527 15.782 L 14.055 15.475 17.237 18.654 C 18.988 20.402,20.483 21.865,20.560 21.905 C 20.659 21.957,20.788 21.979,21.000 21.979 C 21.258 21.980,21.327 21.964,21.492 21.867 C 21.968 21.587,22.139 20.967,21.865 20.508 C 21.810 20.416,17.665 16.243,12.653 11.235 C 4.231 2.820,3.525 2.125,3.343 2.065 C 3.107 1.987,2.874 1.986,2.670 2.061 M12.560 14.006 C 12.560 14.021,12.436 14.105,12.284 14.192 L 12.007 14.352 10.984 13.768 L 9.960 13.184 9.960 12.282 L 9.960 11.380 11.260 12.680 C 11.975 13.395,12.560 13.992,12.560 14.006 M19.536 13.356 C 19.294 13.466,18.283 14.151,18.154 14.293 C 17.944 14.523,17.868 14.916,17.968 15.249 C 18.031 15.462,18.319 15.775,18.530 15.861 C 18.739 15.946,19.094 15.949,19.281 15.868 C 19.357 15.834,19.699 15.621,20.039 15.394 C 20.542 15.058,20.680 14.945,20.773 14.794 C 20.999 14.425,20.955 13.939,20.665 13.609 C 20.400 13.307,19.894 13.194,19.536 13.356 " stroke="none" fill-rule="evenodd" fill="black"></path></svg>