<svg xmlns="http://www.w3.org/2000/svg" width="24" height="24" viewBox="0 0 24 24" fill="none" stroke="currentColor" stroke-width="2" stroke-linecap="round" stroke-linejoin="round"><path d="M11.695 1.057 C 11.466 1.129,11.256 1.299,11.128 1.516 C 11.021 1.698,11.020 1.711,11.007 2.530 C 11.000 2.986,10.988 3.360,10.981 3.360 C 10.974 3.360,10.817 3.288,10.632 3.199 C 10.219 3.001,9.968 2.964,9.679 3.060 C 9.292 3.189,9.000 3.594,9.000 4.000 C 9.000 4.243,9.119 4.521,9.298 4.697 C 9.414 4.812,9.692 4.973,10.232 5.239 L 11.000 5.618 11.000 6.766 L 11.000 7.914 9.995 8.499 C 9.352 8.873,8.966 9.076,8.925 9.060 C 8.889 9.046,8.434 8.789,7.914 8.488 C 6.983 7.949,6.968 7.939,6.983 7.820 C 6.992 7.754,7.018 7.362,7.042 6.948 C 7.078 6.304,7.076 6.167,7.024 5.988 C 6.866 5.450,6.309 5.162,5.745 5.329 C 5.527 5.393,5.194 5.725,5.130 5.942 C 5.103 6.031,5.070 6.261,5.055 6.454 C 5.036 6.700,5.014 6.798,4.980 6.786 C 4.954 6.776,4.651 6.605,4.306 6.407 C 3.654 6.032,3.437 5.960,3.152 6.021 C 2.627 6.135,2.252 6.673,2.357 7.163 C 2.449 7.592,2.584 7.724,3.411 8.198 C 3.735 8.385,3.996 8.551,3.991 8.568 C 3.985 8.585,3.836 8.694,3.661 8.811 C 3.277 9.066,3.127 9.278,3.092 9.613 C 3.057 9.952,3.137 10.178,3.378 10.425 C 3.599 10.652,3.766 10.720,4.100 10.719 C 4.369 10.718,4.513 10.646,5.297 10.122 L 5.967 9.674 6.574 10.025 C 6.907 10.217,7.355 10.475,7.570 10.598 L 7.959 10.820 7.960 12.001 L 7.960 13.182 6.964 13.754 L 5.968 14.327 5.298 13.879 C 4.500 13.345,4.371 13.282,4.080 13.281 C 3.306 13.280,2.822 14.137,3.228 14.793 C 3.304 14.917,3.444 15.045,3.668 15.197 C 3.849 15.320,3.997 15.431,3.998 15.444 C 3.999 15.457,3.726 15.626,3.390 15.818 C 2.573 16.286,2.449 16.409,2.357 16.837 C 2.215 17.499,2.915 18.145,3.580 17.965 C 3.669 17.942,4.024 17.760,4.369 17.561 C 4.715 17.362,5.005 17.200,5.013 17.200 C 5.021 17.200,5.040 17.357,5.055 17.548 C 5.070 17.740,5.103 17.969,5.130 18.058 C 5.193 18.274,5.535 18.618,5.744 18.676 C 6.316 18.835,6.866 18.549,7.024 18.012 C 7.076 17.833,7.078 17.696,7.042 17.052 C 7.018 16.638,6.992 16.246,6.983 16.180 C 6.968 16.061,6.982 16.051,7.964 15.487 L 8.960 14.914 9.970 15.491 L 10.980 16.069 10.991 17.225 L 11.001 18.381 10.232 18.761 C 9.692 19.027,9.414 19.188,9.298 19.303 C 9.119 19.479,9.000 19.757,9.000 20.000 C 9.000 20.406,9.293 20.811,9.678 20.939 C 9.974 21.038,10.207 21.005,10.622 20.806 C 10.812 20.715,10.974 20.640,10.981 20.640 C 10.988 20.640,11.000 21.015,11.007 21.473 L 11.020 22.307 11.141 22.503 C 11.543 23.156,12.457 23.156,12.859 22.503 L 12.980 22.307 12.993 21.473 C 13.000 21.015,13.012 20.640,13.019 20.640 C 13.026 20.640,13.188 20.715,13.378 20.806 C 13.793 21.005,14.026 21.038,14.322 20.939 C 14.707 20.811,15.000 20.406,15.000 20.000 C 15.000 19.773,14.884 19.488,14.725 19.322 C 14.625 19.218,14.337 19.050,13.790 18.776 L 13.000 18.380 13.000 17.234 L 13.000 16.088 13.950 15.537 C 14.473 15.234,14.929 14.969,14.965 14.947 C 15.015 14.916,15.252 15.035,16.031 15.483 C 17.018 16.051,17.032 16.061,17.017 16.180 C 17.008 16.246,16.982 16.638,16.958 17.052 C 16.922 17.696,16.924 17.833,16.976 18.012 C 17.134 18.549,17.684 18.835,18.256 18.676 C 18.465 18.618,18.807 18.274,18.870 18.058 C 18.897 17.969,18.930 17.740,18.945 17.548 C 18.960 17.357,18.979 17.200,18.987 17.200 C 18.995 17.200,19.285 17.362,19.631 17.561 C 19.976 17.760,20.331 17.942,20.420 17.965 C 20.873 18.088,21.397 17.818,21.591 17.363 C 21.678 17.158,21.669 16.816,21.572 16.600 C 21.454 16.340,21.294 16.210,20.610 15.818 C 20.274 15.626,20.001 15.457,20.002 15.444 C 20.003 15.431,20.151 15.320,20.332 15.197 C 20.736 14.923,20.877 14.720,20.909 14.364 C 20.962 13.774,20.511 13.280,19.920 13.281 C 19.629 13.282,19.500 13.345,18.703 13.878 C 18.336 14.124,18.021 14.319,18.005 14.312 C 17.989 14.306,17.541 14.048,17.008 13.741 L 16.040 13.182 16.040 12.001 L 16.041 10.820 16.290 10.677 C 16.428 10.599,16.876 10.341,17.287 10.105 L 18.033 9.674 18.703 10.122 C 19.487 10.646,19.631 10.718,19.900 10.719 C 20.198 10.720,20.389 10.652,20.580 10.476 C 20.823 10.252,20.935 9.972,20.910 9.653 C 20.879 9.278,20.750 9.087,20.337 8.813 C 20.152 8.689,20.000 8.576,20.000 8.562 C 20.000 8.548,20.265 8.384,20.590 8.198 C 21.406 7.730,21.547 7.594,21.639 7.185 C 21.746 6.705,21.405 6.171,20.906 6.036 C 20.587 5.950,20.377 6.015,19.696 6.406 C 19.350 6.605,19.046 6.776,19.020 6.786 C 18.986 6.798,18.964 6.700,18.945 6.454 C 18.910 6.000,18.858 5.836,18.686 5.634 C 18.173 5.035,17.196 5.236,16.977 5.985 C 16.925 6.165,16.924 6.301,16.969 7.069 L 17.020 7.947 16.080 8.491 C 15.563 8.790,15.113 9.045,15.080 9.058 C 15.045 9.071,14.597 8.839,14.020 8.509 L 13.020 7.937 13.009 6.778 L 12.999 5.619 13.768 5.239 C 14.308 4.973,14.586 4.812,14.702 4.697 C 14.881 4.521,15.000 4.243,15.000 4.000 C 15.000 3.594,14.708 3.189,14.321 3.060 C 14.032 2.964,13.781 3.001,13.368 3.199 C 13.183 3.288,13.026 3.360,13.019 3.360 C 13.012 3.360,13.000 2.986,12.993 2.530 C 12.980 1.711,12.979 1.698,12.872 1.516 C 12.628 1.101,12.150 0.915,11.695 1.057 M13.233 10.360 L 14.039 10.820 14.038 12.000 L 14.037 13.180 13.032 13.760 C 12.478 14.079,12.006 14.334,11.983 14.327 C 11.959 14.320,11.494 14.059,10.949 13.748 L 9.959 13.183 9.969 12.002 L 9.980 10.821 10.980 10.237 L 11.980 9.653 12.203 9.776 C 12.325 9.844,12.789 10.107,13.233 10.360 " stroke="none" fill-rule="evenodd" fill="black"></path></svg>