<svg xmlns="http://www.w3.org/2000/svg" width="24" height="24" viewBox="0 0 24 24" fill="none" stroke="currentColor" stroke-width="2" stroke-linecap="round" stroke-linejoin="round"><path d="M11.340 2.046 C 10.323 2.175,9.293 2.679,8.519 3.426 C 6.975 4.914,6.566 7.232,7.503 9.187 C 7.578 9.345,7.639 9.489,7.638 9.507 C 7.637 9.525,7.536 9.621,7.415 9.720 C 7.293 9.819,7.077 10.022,6.936 10.172 L 6.678 10.443 5.545 9.763 C 4.916 9.386,4.330 9.061,4.226 9.033 C 3.984 8.968,3.643 9.035,3.421 9.191 C 2.939 9.529,2.867 10.255,3.274 10.676 C 3.354 10.759,3.897 11.111,4.480 11.459 C 5.063 11.807,5.554 12.104,5.571 12.119 C 5.588 12.134,5.541 12.309,5.465 12.507 C 4.774 14.318,4.865 16.319,5.718 18.060 C 6.421 19.494,7.503 20.577,8.940 21.282 C 11.460 22.519,14.455 22.124,16.598 20.272 C 18.096 18.978,19.003 16.989,18.999 15.007 C 18.998 14.121,18.841 13.304,18.505 12.425 C 18.447 12.274,18.400 12.145,18.400 12.137 C 18.400 12.130,18.913 11.817,19.539 11.440 C 20.296 10.986,20.713 10.712,20.780 10.624 C 21.127 10.168,21.035 9.510,20.579 9.191 C 20.357 9.035,20.016 8.968,19.774 9.033 C 19.670 9.061,19.086 9.384,18.461 9.759 L 17.335 10.435 16.844 9.961 L 16.354 9.487 16.495 9.193 C 17.175 7.779,17.165 6.170,16.466 4.764 C 16.226 4.280,16.001 3.961,15.623 3.567 C 14.505 2.403,12.930 1.843,11.340 2.046 M12.668 4.080 C 13.204 4.196,13.677 4.469,14.124 4.918 C 14.409 5.204,14.501 5.330,14.654 5.642 C 14.915 6.172,14.979 6.444,14.976 7.000 C 14.973 7.760,14.778 8.306,14.293 8.920 C 13.977 9.319,13.920 9.447,13.920 9.752 C 13.920 9.928,13.947 10.039,14.030 10.203 C 14.145 10.430,14.234 10.507,14.787 10.860 C 15.434 11.273,16.053 11.968,16.429 12.705 C 16.792 13.415,16.951 14.003,16.988 14.760 C 17.107 17.211,15.426 19.379,13.000 19.905 C 12.747 19.960,12.491 19.978,12.000 19.978 C 11.509 19.978,11.253 19.960,11.000 19.905 C 9.975 19.683,9.090 19.184,8.368 18.421 C 7.106 17.088,6.681 15.162,7.262 13.420 C 7.623 12.339,8.333 11.434,9.328 10.785 C 9.946 10.383,10.080 10.196,10.080 9.740 C 10.080 9.442,10.025 9.320,9.717 8.931 C 9.219 8.302,9.026 7.764,9.024 7.000 C 9.023 6.441,9.089 6.166,9.347 5.640 C 9.504 5.320,9.590 5.203,9.898 4.895 C 10.218 4.575,10.315 4.505,10.682 4.327 C 10.915 4.214,11.206 4.106,11.340 4.083 C 11.472 4.060,11.625 4.033,11.680 4.023 C 11.829 3.997,12.449 4.033,12.668 4.080 M11.695 12.055 C 11.464 12.130,11.255 12.300,11.128 12.516 C 11.037 12.672,11.020 12.746,11.020 13.000 C 11.020 13.257,11.036 13.327,11.133 13.492 C 11.651 14.374,12.998 14.018,12.998 13.000 C 12.998 12.623,12.792 12.281,12.463 12.112 C 12.265 12.010,11.911 11.984,11.695 12.055 M11.695 15.055 C 11.464 15.130,11.255 15.300,11.128 15.516 C 11.037 15.672,11.020 15.746,11.020 16.000 C 11.020 16.257,11.036 16.327,11.133 16.492 C 11.651 17.374,12.998 17.018,12.998 16.000 C 12.998 15.623,12.792 15.281,12.463 15.112 C 12.265 15.010,11.911 14.984,11.695 15.055 " stroke="none" fill-rule="evenodd" fill="black"></path></svg>