<svg xmlns="http://www.w3.org/2000/svg" width="24" height="24" viewBox="0 0 24 24" fill="none" stroke="currentColor" stroke-width="2" stroke-linecap="round" stroke-linejoin="round"><path d="M4.695 2.057 C 4.466 2.129,4.256 2.299,4.128 2.516 L 4.020 2.700 4.020 7.700 L 4.020 12.700 4.130 13.020 C 4.390 13.778,4.504 13.914,6.381 15.702 C 10.305 19.441,11.809 20.851,12.093 21.054 C 12.892 21.627,14.021 22.001,14.945 22.000 C 16.617 21.997,18.221 21.144,19.136 19.769 C 20.299 18.021,20.267 15.781,19.054 14.094 C 18.925 13.915,17.740 12.612,16.420 11.198 L 14.020 8.627 14.000 5.663 L 13.980 2.700 13.872 2.516 C 13.740 2.293,13.533 2.128,13.290 2.055 C 13.029 1.976,4.946 1.979,4.695 2.057 M12.009 6.631 L 12.020 9.262 12.120 9.449 C 12.180 9.561,13.245 10.733,14.797 12.395 C 16.371 14.081,17.440 15.257,17.544 15.420 C 18.062 16.224,18.124 17.437,17.691 18.300 C 17.438 18.804,16.972 19.311,16.513 19.581 C 15.539 20.153,14.280 20.123,13.355 19.505 C 13.237 19.426,12.264 18.530,11.194 17.514 L 9.248 15.665 9.346 15.511 C 9.568 15.159,9.789 14.565,9.908 14.000 C 10.008 13.525,10.008 12.510,9.907 12.040 C 9.572 10.476,8.597 9.214,7.180 8.510 C 6.874 8.358,6.386 8.182,6.150 8.139 L 6.000 8.111 6.000 6.056 L 6.000 4.000 8.999 4.000 L 11.998 4.000 12.009 6.631 M6.460 10.380 C 7.122 10.751,7.653 11.411,7.875 12.139 C 8.047 12.704,8.002 13.737,7.787 14.147 C 7.742 14.231,7.702 14.198,6.952 13.468 C 6.518 13.045,6.131 12.637,6.092 12.560 C 6.029 12.437,6.019 12.282,6.008 11.290 L 5.995 10.160 6.108 10.203 C 6.169 10.226,6.328 10.306,6.460 10.380 " stroke="none" fill-rule="evenodd" fill="black"></path></svg>