<svg xmlns="http://www.w3.org/2000/svg" width="24" height="24" viewBox="0 0 24 24" fill="none" stroke="currentColor" stroke-width="2" stroke-linecap="round" stroke-linejoin="round"><path d="M2.670 2.061 C 2.448 2.142,2.250 2.309,2.128 2.516 C 2.036 2.672,2.020 2.745,2.021 3.000 C 2.021 3.213,2.043 3.341,2.095 3.440 C 2.136 3.517,2.574 3.987,3.068 4.485 L 3.967 5.389 3.803 5.605 C 3.593 5.881,3.341 6.365,3.216 6.732 C 3.032 7.271,3.000 7.594,3.000 8.918 L 3.000 10.145 2.670 10.313 C 1.933 10.687,1.384 11.333,1.115 12.140 L 1.021 12.420 1.009 15.315 C 1.001 17.273,1.010 18.278,1.040 18.418 C 1.148 18.941,1.601 19.537,2.070 19.775 C 2.541 20.014,2.016 20.000,10.659 20.000 L 18.581 20.000 19.460 20.883 C 19.944 21.368,20.421 21.814,20.520 21.873 C 20.672 21.964,20.746 21.980,21.000 21.980 C 21.257 21.980,21.327 21.964,21.492 21.867 C 21.968 21.587,22.139 20.967,21.865 20.508 C 21.810 20.416,17.665 16.243,12.653 11.235 C 4.231 2.820,3.525 2.125,3.343 2.065 C 3.107 1.987,2.874 1.986,2.670 2.061 M8.695 4.057 C 8.466 4.129,8.256 4.299,8.128 4.516 C 8.037 4.672,8.020 4.746,8.020 5.000 C 8.020 5.256,8.036 5.328,8.131 5.489 C 8.192 5.592,8.304 5.725,8.381 5.783 C 8.642 5.983,8.738 5.996,9.908 5.998 L 10.995 6.000 11.008 7.153 L 11.020 8.307 11.141 8.503 C 11.543 9.156,12.457 9.156,12.859 8.503 L 12.980 8.307 12.992 7.153 L 13.005 6.000 15.132 6.002 C 17.509 6.005,17.568 6.011,18.017 6.281 C 18.294 6.448,18.618 6.787,18.772 7.071 C 18.966 7.431,18.999 7.700,18.999 8.983 L 19.000 10.145 18.670 10.313 C 17.922 10.693,17.365 11.354,17.114 12.160 C 17.027 12.438,17.020 12.527,17.020 13.383 L 17.020 14.306 17.141 14.503 C 17.543 15.156,18.457 15.156,18.859 14.503 L 18.980 14.306 19.002 13.523 C 19.027 12.636,19.050 12.547,19.321 12.283 C 19.490 12.120,19.777 12.000,20.000 12.000 C 20.223 12.000,20.510 12.120,20.679 12.283 C 20.996 12.591,20.978 12.404,21.000 15.523 L 21.020 18.306 21.141 18.503 C 21.543 19.156,22.457 19.156,22.859 18.503 L 22.980 18.306 22.980 15.383 L 22.980 12.460 22.886 12.160 C 22.635 11.354,22.078 10.693,21.330 10.313 L 21.000 10.145 21.000 8.889 C 21.000 7.470,20.960 7.146,20.705 6.516 C 20.172 5.197,19.001 4.269,17.605 4.058 C 17.068 3.978,8.953 3.976,8.695 4.057 M8.210 9.630 L 11.000 12.420 11.000 12.710 L 11.000 13.000 9.006 13.000 L 7.011 13.000 6.984 12.698 C 6.893 11.697,6.261 10.786,5.327 10.312 L 4.994 10.142 5.008 8.861 C 5.022 7.585,5.023 7.579,5.128 7.313 C 5.236 7.041,5.349 6.840,5.394 6.840 C 5.408 6.840,6.675 8.095,8.210 9.630 M4.308 12.060 C 4.542 12.130,4.812 12.368,4.911 12.593 C 4.961 12.705,4.981 12.927,4.998 13.520 C 5.019 14.282,5.023 14.304,5.131 14.489 C 5.256 14.702,5.449 14.864,5.670 14.943 C 5.791 14.986,6.563 14.997,9.700 14.998 L 13.580 15.000 15.080 16.500 L 16.580 18.000 9.790 18.000 L 3.000 18.000 3.000 15.447 C 3.000 12.538,2.993 12.614,3.304 12.303 C 3.582 12.024,3.916 11.944,4.308 12.060 " stroke="none" fill-rule="evenodd" fill="black"></path></svg>