<svg xmlns="http://www.w3.org/2000/svg" width="24" height="24" viewBox="0 0 24 24" fill="none" stroke="currentColor" stroke-width="2" stroke-linecap="round" stroke-linejoin="round"><path d="M7.695 1.057 C 7.466 1.129,7.256 1.299,7.128 1.516 C 7.027 1.688,7.020 1.731,7.021 2.160 C 7.025 3.905,8.099 5.610,9.713 6.433 C 10.506 6.838,11.101 6.980,12.000 6.980 C 12.898 6.980,13.494 6.838,14.286 6.433 C 15.896 5.612,16.975 3.900,16.979 2.160 C 16.980 1.730,16.973 1.688,16.871 1.514 C 16.482 0.853,15.520 0.847,15.136 1.504 C 15.052 1.647,15.026 1.762,14.995 2.121 C 14.912 3.081,14.590 3.723,13.892 4.321 C 13.609 4.563,13.239 4.762,12.840 4.886 C 12.406 5.021,11.594 5.021,11.160 4.886 C 10.761 4.762,10.391 4.563,10.108 4.321 C 9.410 3.723,9.088 3.081,9.005 2.121 C 8.975 1.764,8.948 1.646,8.866 1.506 C 8.628 1.101,8.145 0.916,7.695 1.057 M3.695 2.057 C 3.466 2.129,3.256 2.299,3.128 2.516 C 3.037 2.672,3.020 2.746,3.020 3.000 C 3.020 3.256,3.036 3.328,3.131 3.489 C 3.256 3.702,3.449 3.864,3.670 3.943 C 3.878 4.017,5.122 4.017,5.330 3.943 C 5.551 3.864,5.744 3.702,5.869 3.489 C 5.964 3.328,5.980 3.256,5.980 3.000 C 5.980 2.746,5.963 2.672,5.872 2.516 C 5.740 2.293,5.533 2.128,5.290 2.055 C 5.050 1.983,3.928 1.984,3.695 2.057 M18.695 2.057 C 18.466 2.129,18.256 2.299,18.128 2.516 C 18.037 2.672,18.020 2.746,18.020 3.000 C 18.020 3.256,18.036 3.328,18.131 3.489 C 18.256 3.702,18.449 3.864,18.670 3.943 C 18.878 4.017,20.122 4.017,20.330 3.943 C 20.551 3.864,20.744 3.702,20.869 3.489 C 20.964 3.328,20.980 3.256,20.980 3.000 C 20.980 2.746,20.963 2.672,20.872 2.516 C 20.740 2.293,20.533 2.128,20.290 2.055 C 20.050 1.983,18.928 1.984,18.695 2.057 M6.468 6.264 C 6.315 6.311,6.187 6.410,5.833 6.752 C 5.316 7.251,5.186 7.426,5.128 7.700 C 4.981 8.391,5.582 8.993,6.295 8.870 C 6.554 8.825,6.739 8.691,7.225 8.194 C 7.729 7.678,7.778 7.590,7.779 7.200 C 7.780 6.945,7.764 6.872,7.672 6.716 C 7.540 6.493,7.333 6.328,7.090 6.255 C 6.863 6.187,6.714 6.189,6.468 6.264 M16.870 6.261 C 16.648 6.342,16.450 6.509,16.328 6.716 C 16.237 6.872,16.220 6.946,16.220 7.200 C 16.220 7.453,16.237 7.528,16.326 7.680 C 16.462 7.911,17.316 8.746,17.488 8.817 C 17.734 8.918,17.943 8.931,18.188 8.859 C 18.826 8.674,19.109 7.893,18.734 7.352 C 18.677 7.269,18.428 7.005,18.181 6.766 C 17.834 6.430,17.689 6.317,17.539 6.266 C 17.308 6.187,17.075 6.185,16.870 6.261 M11.695 8.057 C 11.466 8.129,11.256 8.299,11.128 8.516 C 11.020 8.699,11.020 8.703,11.020 9.503 L 11.020 10.306 11.141 10.503 C 11.543 11.156,12.457 11.156,12.859 10.503 L 12.980 10.306 12.980 9.503 C 12.980 8.703,12.980 8.699,12.872 8.516 C 12.628 8.101,12.150 7.915,11.695 8.057 M5.331 12.061 C 4.795 12.177,4.236 12.611,4.002 13.092 C 3.861 13.384,2.325 19.463,2.290 19.869 C 2.209 20.822,2.918 21.757,3.872 21.956 C 4.172 22.018,19.828 22.018,20.128 21.956 C 21.082 21.757,21.791 20.822,21.710 19.869 C 21.698 19.732,21.335 18.207,20.903 16.480 C 20.307 14.094,20.088 13.279,19.991 13.085 C 19.742 12.588,19.204 12.176,18.651 12.059 C 18.259 11.976,5.713 11.977,5.331 12.061 M8.742 14.990 L 8.619 15.980 6.945 15.990 C 5.611 15.999,5.275 15.991,5.289 15.950 C 5.300 15.923,5.414 15.473,5.543 14.950 L 5.778 14.000 7.321 14.000 L 8.864 14.000 8.742 14.990 M13.120 14.030 C 13.120 14.047,13.174 14.483,13.240 15.000 C 13.306 15.517,13.360 15.954,13.360 15.970 C 13.360 15.987,12.748 16.000,12.000 16.000 C 11.252 16.000,10.640 15.987,10.640 15.970 C 10.640 15.954,10.694 15.517,10.760 15.000 C 10.826 14.483,10.880 14.047,10.880 14.030 C 10.880 14.013,11.384 14.000,12.000 14.000 C 12.616 14.000,13.120 14.013,13.120 14.030 M18.457 14.950 C 18.586 15.473,18.700 15.923,18.711 15.950 C 18.725 15.991,18.389 15.999,17.055 15.990 L 15.381 15.980 15.258 14.990 L 15.136 14.000 16.679 14.000 L 18.222 14.000 18.457 14.950 M8.360 18.030 C 8.360 18.047,8.306 18.483,8.240 19.000 C 8.174 19.517,8.120 19.953,8.120 19.970 C 8.120 19.987,7.254 20.000,6.196 20.000 C 4.673 20.000,4.275 19.990,4.290 19.950 C 4.300 19.922,4.414 19.473,4.543 18.950 L 4.778 18.000 6.569 18.000 C 7.554 18.000,8.360 18.014,8.360 18.030 M13.742 19.010 L 13.864 20.000 12.000 20.000 L 10.136 20.000 10.263 19.010 C 10.333 18.465,10.393 18.015,10.395 18.010 C 10.398 18.004,11.124 18.004,12.009 18.010 L 13.619 18.020 13.742 19.010 M19.457 18.950 C 19.586 19.473,19.700 19.922,19.710 19.950 C 19.725 19.990,19.327 20.000,17.804 20.000 C 16.746 20.000,15.880 19.987,15.880 19.970 C 15.880 19.953,15.826 19.517,15.760 19.000 C 15.694 18.483,15.640 18.047,15.640 18.030 C 15.640 18.014,16.446 18.000,17.431 18.000 L 19.222 18.000 19.457 18.950 " stroke="none" fill-rule="evenodd" fill="black"></path></svg>