<svg xmlns="http://www.w3.org/2000/svg" width="24" height="24" viewBox="0 0 24 24" fill="none" stroke="currentColor" stroke-width="2" stroke-linecap="round" stroke-linejoin="round"><path d="M5.174 4.041 C 4.754 4.126,4.330 4.476,4.132 4.900 L 4.020 5.140 4.020 7.500 L 4.020 9.860 4.133 10.104 C 4.276 10.413,4.585 10.721,4.900 10.868 L 5.140 10.980 7.500 10.980 L 9.860 10.980 10.100 10.868 C 10.415 10.721,10.724 10.413,10.867 10.104 L 10.980 9.860 10.980 7.500 L 10.980 5.140 10.868 4.900 C 10.721 4.585,10.413 4.276,10.104 4.133 L 9.860 4.020 7.600 4.013 C 6.357 4.010,5.265 4.022,5.174 4.041 M16.580 5.096 C 16.424 5.171,16.029 5.545,14.774 6.806 C 13.891 7.694,13.135 8.483,13.095 8.560 C 13.043 8.659,13.021 8.788,13.021 9.000 C 13.020 9.258,13.036 9.327,13.133 9.492 C 13.263 9.714,13.502 9.901,13.736 9.965 C 13.939 10.019,14.267 9.989,14.445 9.899 C 14.519 9.861,14.899 9.514,15.289 9.127 L 15.999 8.424 16.009 13.365 L 16.020 18.306 16.141 18.503 C 16.209 18.613,16.346 18.756,16.452 18.828 C 16.923 19.144,17.554 18.999,17.859 18.503 L 17.980 18.306 17.991 13.365 L 18.001 8.424 18.711 9.127 C 19.101 9.514,19.483 9.864,19.560 9.904 C 19.660 9.957,19.787 9.979,20.000 9.979 C 20.258 9.980,20.327 9.964,20.492 9.867 C 20.714 9.737,20.901 9.498,20.965 9.264 C 21.019 9.061,20.989 8.733,20.899 8.555 C 20.862 8.481,20.109 7.694,19.226 6.806 C 17.472 5.043,17.420 5.001,17.000 5.001 C 16.851 5.001,16.716 5.031,16.580 5.096 M9.000 7.500 L 9.000 9.000 7.500 9.000 L 6.000 9.000 6.000 7.500 L 6.000 6.000 7.500 6.000 L 9.000 6.000 9.000 7.500 M5.174 13.041 C 4.754 13.126,4.330 13.476,4.132 13.900 L 4.020 14.140 4.020 16.500 L 4.020 18.860 4.133 19.104 C 4.276 19.413,4.585 19.721,4.900 19.868 L 5.140 19.980 7.500 19.980 L 9.860 19.980 10.100 19.868 C 10.415 19.721,10.724 19.413,10.867 19.104 L 10.980 18.860 10.980 16.500 L 10.980 14.140 10.868 13.900 C 10.721 13.585,10.413 13.276,10.104 13.133 L 9.860 13.020 7.600 13.013 C 6.357 13.010,5.265 13.022,5.174 13.041 M9.000 16.500 L 9.000 18.000 7.500 18.000 L 6.000 18.000 6.000 16.500 L 6.000 15.000 7.500 15.000 L 9.000 15.000 9.000 16.500 " stroke="none" fill-rule="evenodd" fill="black"></path></svg>