<svg xmlns="http://www.w3.org/2000/svg" width="24" height="24" viewBox="0 0 24 24" fill="none" stroke="currentColor" stroke-width="2" stroke-linecap="round" stroke-linejoin="round"><path d="M3.695 5.057 C 3.466 5.129,3.256 5.299,3.128 5.516 C 3.037 5.672,3.020 5.746,3.020 6.000 C 3.020 6.256,3.036 6.328,3.131 6.489 C 3.256 6.702,3.449 6.864,3.670 6.943 C 3.891 7.022,11.109 7.022,11.330 6.943 C 11.551 6.864,11.744 6.702,11.869 6.489 C 11.964 6.328,11.980 6.256,11.980 6.000 C 11.980 5.746,11.963 5.672,11.872 5.516 C 11.740 5.293,11.533 5.128,11.290 5.055 C 11.030 4.977,3.945 4.979,3.695 5.057 M17.580 5.096 C 17.424 5.171,17.029 5.545,15.774 6.806 C 14.891 7.694,14.135 8.483,14.095 8.560 C 14.043 8.659,14.021 8.788,14.021 9.000 C 14.020 9.258,14.036 9.327,14.133 9.492 C 14.263 9.714,14.502 9.901,14.736 9.965 C 14.939 10.019,15.267 9.989,15.445 9.899 C 15.519 9.861,15.899 9.514,16.289 9.127 L 16.999 8.424 17.009 13.365 L 17.020 18.306 17.141 18.503 C 17.209 18.613,17.346 18.756,17.452 18.828 C 17.923 19.144,18.554 18.999,18.859 18.503 L 18.980 18.306 18.991 13.365 L 19.001 8.424 19.711 9.127 C 20.101 9.514,20.483 9.864,20.560 9.904 C 20.660 9.957,20.787 9.979,21.000 9.979 C 21.258 9.980,21.327 9.964,21.492 9.867 C 21.714 9.737,21.901 9.498,21.965 9.264 C 22.019 9.061,21.989 8.733,21.899 8.555 C 21.862 8.481,21.109 7.694,20.226 6.806 C 18.472 5.043,18.420 5.001,18.000 5.001 C 17.851 5.001,17.716 5.031,17.580 5.096 M3.695 11.057 C 3.466 11.129,3.256 11.299,3.128 11.516 C 3.037 11.672,3.020 11.746,3.020 12.000 C 3.020 12.256,3.036 12.328,3.131 12.489 C 3.256 12.702,3.449 12.864,3.670 12.943 C 3.891 13.022,11.109 13.022,11.330 12.943 C 11.551 12.864,11.744 12.702,11.869 12.489 C 11.964 12.328,11.980 12.256,11.980 12.000 C 11.980 11.746,11.963 11.672,11.872 11.516 C 11.740 11.293,11.533 11.128,11.290 11.055 C 11.030 10.977,3.945 10.979,3.695 11.057 M3.695 17.057 C 3.466 17.129,3.256 17.299,3.128 17.516 C 3.037 17.672,3.020 17.746,3.020 18.000 C 3.020 18.256,3.036 18.328,3.131 18.489 C 3.256 18.702,3.449 18.864,3.670 18.943 C 3.892 19.022,13.108 19.022,13.330 18.943 C 13.551 18.864,13.744 18.702,13.869 18.489 C 13.964 18.328,13.980 18.256,13.980 18.000 C 13.980 17.746,13.963 17.672,13.872 17.516 C 13.740 17.293,13.533 17.128,13.290 17.055 C 13.029 16.976,3.946 16.978,3.695 17.057 " stroke="none" fill-rule="evenodd" fill="black"></path></svg>