<svg xmlns="http://www.w3.org/2000/svg" width="24" height="24" viewBox="0 0 24 24" fill="none" stroke="currentColor" stroke-width="2" stroke-linecap="round" stroke-linejoin="round"><path d="M5.174 4.041 C 4.754 4.126,4.330 4.476,4.132 4.900 L 4.020 5.140 4.020 7.500 L 4.020 9.860 4.133 10.104 C 4.276 10.413,4.585 10.721,4.900 10.868 L 5.140 10.980 7.500 10.980 L 9.860 10.980 10.100 10.868 C 10.415 10.721,10.724 10.413,10.867 10.104 L 10.980 9.860 10.980 7.500 L 10.980 5.140 10.868 4.900 C 10.721 4.585,10.413 4.276,10.104 4.133 L 9.860 4.020 7.600 4.013 C 6.357 4.010,5.265 4.022,5.174 4.041 M16.695 5.057 C 16.466 5.129,16.256 5.299,16.128 5.516 L 16.020 5.700 16.009 10.636 L 15.999 15.572 15.269 14.853 C 14.655 14.247,14.509 14.123,14.343 14.067 C 13.865 13.905,13.383 14.083,13.128 14.516 C 13.036 14.672,13.020 14.745,13.021 15.000 C 13.021 15.212,13.043 15.341,13.095 15.440 C 13.135 15.517,13.891 16.306,14.774 17.194 C 16.528 18.957,16.580 18.999,17.000 18.999 C 17.420 18.999,17.472 18.957,19.226 17.194 C 20.109 16.306,20.865 15.517,20.905 15.440 C 20.957 15.341,20.979 15.212,20.979 15.000 C 20.980 14.745,20.964 14.672,20.872 14.516 C 20.617 14.083,20.135 13.905,19.657 14.067 C 19.491 14.123,19.345 14.247,18.731 14.853 L 18.001 15.572 17.991 10.636 L 17.980 5.700 17.872 5.516 C 17.628 5.101,17.150 4.915,16.695 5.057 M9.000 7.500 L 9.000 9.000 7.500 9.000 L 6.000 9.000 6.000 7.500 L 6.000 6.000 7.500 6.000 L 9.000 6.000 9.000 7.500 M5.174 13.041 C 4.754 13.126,4.330 13.476,4.132 13.900 L 4.020 14.140 4.020 16.500 L 4.020 18.860 4.133 19.104 C 4.276 19.413,4.585 19.721,4.900 19.868 L 5.140 19.980 7.500 19.980 L 9.860 19.980 10.100 19.868 C 10.415 19.721,10.724 19.413,10.867 19.104 L 10.980 18.860 10.980 16.500 L 10.980 14.140 10.868 13.900 C 10.721 13.585,10.413 13.276,10.104 13.133 L 9.860 13.020 7.600 13.013 C 6.357 13.010,5.265 13.022,5.174 13.041 M9.000 16.500 L 9.000 18.000 7.500 18.000 L 6.000 18.000 6.000 16.500 L 6.000 15.000 7.500 15.000 L 9.000 15.000 9.000 16.500 " stroke="none" fill-rule="evenodd" fill="black"></path></svg>