<svg xmlns="http://www.w3.org/2000/svg" width="24" height="24" viewBox="0 0 24 24" fill="none" stroke="currentColor" stroke-width="2" stroke-linecap="round" stroke-linejoin="round"><path d="M5.499 7.040 C 4.363 7.246,3.461 8.048,3.114 9.160 L 3.020 9.460 3.020 12.883 L 3.020 16.306 3.141 16.503 C 3.543 17.156,4.457 17.156,4.859 16.503 L 4.980 16.307 4.992 15.153 L 5.005 14.000 6.000 14.000 L 6.995 14.000 7.008 15.153 L 7.020 16.307 7.141 16.503 C 7.543 17.156,8.457 17.156,8.859 16.503 L 8.980 16.306 8.980 12.883 L 8.980 9.460 8.886 9.160 C 8.580 8.178,7.810 7.407,6.861 7.129 C 6.500 7.023,5.832 6.980,5.499 7.040 M15.695 7.057 C 15.466 7.129,15.256 7.299,15.128 7.516 C 15.037 7.672,15.020 7.746,15.020 8.000 C 15.020 8.256,15.036 8.328,15.131 8.489 C 15.192 8.592,15.304 8.725,15.381 8.783 C 15.647 8.987,15.724 8.996,17.090 8.998 C 17.788 8.999,18.360 9.009,18.360 9.019 C 18.360 9.030,17.611 10.538,16.695 12.371 C 15.318 15.126,15.027 15.738,15.010 15.907 C 14.982 16.197,15.089 16.491,15.298 16.700 C 15.602 17.004,15.569 17.000,18.017 16.998 C 19.719 16.997,20.212 16.985,20.330 16.943 C 20.551 16.864,20.744 16.702,20.869 16.489 C 20.964 16.328,20.980 16.256,20.980 16.000 C 20.980 15.746,20.963 15.672,20.872 15.516 C 20.813 15.415,20.698 15.282,20.618 15.221 C 20.350 15.017,20.217 15.000,18.874 15.000 C 18.195 15.000,17.640 14.991,17.640 14.981 C 17.640 14.970,18.392 13.457,19.310 11.619 L 20.980 8.277 20.980 7.989 C 20.980 7.747,20.962 7.670,20.872 7.516 C 20.740 7.293,20.533 7.128,20.290 7.055 C 20.033 6.978,15.943 6.979,15.695 7.057 M6.310 9.061 C 6.452 9.103,6.571 9.178,6.697 9.303 C 6.978 9.584,7.000 9.703,7.000 10.947 L 7.000 12.000 6.000 12.000 L 5.000 12.000 5.000 10.947 C 5.000 9.702,5.022 9.585,5.304 9.303 C 5.583 9.024,5.916 8.944,6.310 9.061 M10.695 11.057 C 10.466 11.129,10.256 11.299,10.128 11.516 C 10.037 11.672,10.020 11.746,10.020 12.000 C 10.020 12.256,10.036 12.328,10.131 12.489 C 10.256 12.702,10.449 12.864,10.670 12.943 C 10.885 13.020,13.115 13.020,13.330 12.943 C 13.551 12.864,13.744 12.702,13.869 12.489 C 13.964 12.328,13.980 12.256,13.980 12.000 C 13.980 11.746,13.963 11.672,13.872 11.516 C 13.740 11.293,13.533 11.128,13.290 11.055 C 13.039 10.979,10.937 10.981,10.695 11.057 " stroke="none" fill-rule="evenodd" fill="black"></path></svg>