<svg xmlns="http://www.w3.org/2000/svg" width="24" height="24" viewBox="0 0 24 24" fill="none" stroke="currentColor" stroke-width="2" stroke-linecap="round" stroke-linejoin="round"><path d="M3.695 7.057 C 3.466 7.129,3.256 7.299,3.128 7.516 C 3.037 7.672,3.020 7.746,3.020 8.000 C 3.020 8.256,3.036 8.328,3.131 8.489 C 3.192 8.592,3.304 8.725,3.381 8.783 C 3.647 8.987,3.724 8.996,5.090 8.998 C 5.788 8.999,6.360 9.009,6.360 9.019 C 6.360 9.030,5.611 10.538,4.695 12.371 C 3.318 15.126,3.027 15.738,3.010 15.907 C 2.982 16.197,3.089 16.491,3.298 16.700 C 3.602 17.004,3.569 17.000,6.017 16.998 C 7.719 16.997,8.212 16.985,8.330 16.943 C 8.551 16.864,8.744 16.702,8.869 16.489 C 8.964 16.328,8.980 16.256,8.980 16.000 C 8.980 15.746,8.963 15.672,8.872 15.516 C 8.813 15.415,8.698 15.282,8.618 15.221 C 8.350 15.017,8.217 15.000,6.874 15.000 C 6.195 15.000,5.640 14.991,5.640 14.981 C 5.640 14.970,6.391 13.457,7.310 11.619 L 8.980 8.277 8.980 7.989 C 8.980 7.747,8.962 7.670,8.872 7.516 C 8.740 7.293,8.533 7.128,8.290 7.055 C 8.033 6.978,3.943 6.979,3.695 7.057 M17.499 7.040 C 16.363 7.246,15.461 8.048,15.114 9.160 L 15.020 9.460 15.020 12.883 L 15.020 16.306 15.141 16.503 C 15.543 17.156,16.457 17.156,16.859 16.503 L 16.980 16.307 16.992 15.153 L 17.005 14.000 18.000 14.000 L 18.995 14.000 19.008 15.153 L 19.020 16.307 19.141 16.503 C 19.543 17.156,20.457 17.156,20.859 16.503 L 20.980 16.306 20.980 12.883 L 20.980 9.460 20.886 9.160 C 20.580 8.178,19.810 7.407,18.861 7.129 C 18.500 7.023,17.832 6.980,17.499 7.040 M18.310 9.061 C 18.452 9.103,18.571 9.178,18.697 9.303 C 18.978 9.584,19.000 9.703,19.000 10.947 L 19.000 12.000 18.000 12.000 L 17.000 12.000 17.000 10.947 C 17.000 9.702,17.022 9.585,17.304 9.303 C 17.583 9.024,17.916 8.944,18.310 9.061 M10.695 11.057 C 10.466 11.129,10.256 11.299,10.128 11.516 C 10.037 11.672,10.020 11.746,10.020 12.000 C 10.020 12.256,10.036 12.328,10.131 12.489 C 10.256 12.702,10.449 12.864,10.670 12.943 C 10.885 13.020,13.115 13.020,13.330 12.943 C 13.551 12.864,13.744 12.702,13.869 12.489 C 13.964 12.328,13.980 12.256,13.980 12.000 C 13.980 11.746,13.963 11.672,13.872 11.516 C 13.740 11.293,13.533 11.128,13.290 11.055 C 13.039 10.979,10.937 10.981,10.695 11.057 " stroke="none" fill-rule="evenodd" fill="black"></path></svg>