<svg xmlns="http://www.w3.org/2000/svg" width="24" height="24" viewBox="0 0 24 24" fill="none" stroke="currentColor" stroke-width="2" stroke-linecap="round" stroke-linejoin="round"><path d="M3.695 5.057 C 3.466 5.129,3.256 5.299,3.128 5.516 C 3.037 5.672,3.020 5.746,3.020 6.000 C 3.020 6.256,3.036 6.328,3.131 6.489 C 3.256 6.702,3.449 6.864,3.670 6.943 C 3.892 7.022,13.108 7.022,13.330 6.943 C 13.551 6.864,13.744 6.702,13.869 6.489 C 13.964 6.328,13.980 6.256,13.980 6.000 C 13.980 5.746,13.963 5.672,13.872 5.516 C 13.740 5.293,13.533 5.128,13.290 5.055 C 13.029 4.976,3.946 4.978,3.695 5.057 M17.695 5.057 C 17.466 5.129,17.256 5.299,17.128 5.516 L 17.020 5.700 17.009 10.636 L 16.999 15.572 16.269 14.853 C 15.655 14.247,15.509 14.123,15.343 14.067 C 14.865 13.905,14.383 14.083,14.128 14.516 C 14.036 14.672,14.020 14.745,14.021 15.000 C 14.021 15.212,14.043 15.341,14.095 15.440 C 14.135 15.517,14.891 16.306,15.774 17.194 C 17.528 18.957,17.580 18.999,18.000 18.999 C 18.420 18.999,18.472 18.957,20.226 17.194 C 21.109 16.306,21.865 15.517,21.905 15.440 C 21.957 15.341,21.979 15.212,21.979 15.000 C 21.980 14.745,21.964 14.672,21.872 14.516 C 21.617 14.083,21.135 13.905,20.657 14.067 C 20.491 14.123,20.345 14.247,19.731 14.853 L 19.001 15.572 18.991 10.636 L 18.980 5.700 18.872 5.516 C 18.628 5.101,18.150 4.915,17.695 5.057 M3.695 11.057 C 3.466 11.129,3.256 11.299,3.128 11.516 C 3.037 11.672,3.020 11.746,3.020 12.000 C 3.020 12.256,3.036 12.328,3.131 12.489 C 3.256 12.702,3.449 12.864,3.670 12.943 C 3.891 13.022,11.109 13.022,11.330 12.943 C 11.551 12.864,11.744 12.702,11.869 12.489 C 11.964 12.328,11.980 12.256,11.980 12.000 C 11.980 11.746,11.963 11.672,11.872 11.516 C 11.740 11.293,11.533 11.128,11.290 11.055 C 11.030 10.977,3.945 10.979,3.695 11.057 M3.695 17.057 C 3.466 17.129,3.256 17.299,3.128 17.516 C 3.037 17.672,3.020 17.746,3.020 18.000 C 3.020 18.256,3.036 18.328,3.131 18.489 C 3.256 18.702,3.449 18.864,3.670 18.943 C 3.891 19.022,11.109 19.022,11.330 18.943 C 11.551 18.864,11.744 18.702,11.869 18.489 C 11.964 18.328,11.980 18.256,11.980 18.000 C 11.980 17.746,11.963 17.672,11.872 17.516 C 11.740 17.293,11.533 17.128,11.290 17.055 C 11.030 16.977,3.945 16.979,3.695 17.057 " stroke="none" fill-rule="evenodd" fill="black"></path></svg>