<svg xmlns="http://www.w3.org/2000/svg" width="24" height="24" viewBox="0 0 24 24" fill="none" stroke="currentColor" stroke-width="2" stroke-linecap="round" stroke-linejoin="round"><path d="M14.477 3.073 C 13.806 3.249,13.238 3.823,13.060 4.508 C 13.010 4.698,13.000 5.123,13.000 7.000 C 13.000 9.455,13.003 9.491,13.225 9.930 C 13.361 10.199,13.801 10.639,14.070 10.775 C 14.509 10.997,14.545 11.000,17.000 11.000 C 19.455 11.000,19.491 10.997,19.930 10.775 C 20.196 10.640,20.638 10.200,20.771 9.937 C 20.996 9.494,21.000 9.442,20.999 7.014 C 20.999 4.601,20.991 4.496,20.781 4.083 C 20.646 3.816,20.297 3.449,20.017 3.281 C 19.564 3.008,19.524 3.005,17.000 3.005 C 14.992 3.005,14.711 3.012,14.477 3.073 M6.695 5.057 C 6.466 5.129,6.256 5.299,6.128 5.516 L 6.020 5.700 6.009 10.636 L 5.999 15.572 5.269 14.853 C 4.655 14.247,4.509 14.123,4.343 14.067 C 3.865 13.905,3.383 14.083,3.128 14.516 C 3.036 14.672,3.020 14.745,3.021 15.000 C 3.021 15.212,3.043 15.341,3.095 15.440 C 3.135 15.517,3.891 16.306,4.774 17.194 C 6.528 18.957,6.580 18.999,7.000 18.999 C 7.420 18.999,7.472 18.957,9.226 17.194 C 10.109 16.306,10.865 15.517,10.905 15.440 C 10.957 15.341,10.979 15.212,10.979 15.000 C 10.980 14.745,10.964 14.672,10.872 14.516 C 10.617 14.083,10.135 13.905,9.657 14.067 C 9.491 14.123,9.345 14.247,8.731 14.853 L 8.001 15.572 7.991 10.636 L 7.980 5.700 7.872 5.516 C 7.628 5.101,7.150 4.915,6.695 5.057 M19.000 7.000 L 19.000 9.000 17.000 9.000 L 15.000 9.000 15.000 7.000 L 15.000 5.000 17.000 5.000 L 19.000 5.000 19.000 7.000 M16.663 13.070 C 16.555 13.106,16.401 13.200,16.321 13.278 C 16.121 13.472,12.603 19.509,12.531 19.780 C 12.474 19.996,12.507 20.264,12.617 20.472 C 12.690 20.612,12.903 20.811,13.080 20.906 C 13.213 20.976,13.401 20.981,16.940 20.991 C 20.336 21.001,20.675 20.997,20.836 20.936 C 21.070 20.847,21.315 20.621,21.410 20.405 C 21.497 20.210,21.513 19.848,21.443 19.667 C 21.419 19.604,20.595 18.173,19.612 16.487 C 18.437 14.469,17.773 13.369,17.673 13.272 C 17.513 13.117,17.209 12.998,16.983 13.002 C 16.915 13.004,16.771 13.034,16.663 13.070 M17.894 17.520 L 18.745 18.980 17.872 18.991 C 17.393 18.997,16.607 18.997,16.128 18.991 L 15.255 18.980 16.113 17.509 C 16.585 16.699,16.987 16.042,17.007 16.049 C 17.026 16.055,17.426 16.718,17.894 17.520 " stroke="none" fill-rule="evenodd" fill="black"></path></svg>