<svg xmlns="http://www.w3.org/2000/svg" width="24" height="24" viewBox="0 0 24 24" fill="none" stroke="currentColor" stroke-width="2" stroke-linecap="round" stroke-linejoin="round"><path d="M14.695 2.057 C 14.466 2.129,14.256 2.299,14.128 2.516 C 14.037 2.672,14.020 2.746,14.020 3.000 C 14.020 3.256,14.036 3.328,14.131 3.489 C 14.192 3.592,14.304 3.725,14.381 3.783 C 14.646 3.986,14.728 3.996,16.047 3.998 L 17.275 4.000 15.692 6.770 C 14.821 8.293,14.082 9.618,14.049 9.714 C 13.885 10.196,14.173 10.765,14.670 10.943 C 14.889 11.021,19.111 11.021,19.330 10.943 C 19.551 10.864,19.744 10.702,19.869 10.489 C 19.964 10.328,19.980 10.256,19.980 10.000 C 19.980 9.746,19.963 9.672,19.872 9.516 C 19.813 9.415,19.698 9.282,19.618 9.221 C 19.352 9.018,19.213 9.000,17.917 9.000 L 16.726 9.000 18.345 6.166 C 19.810 3.602,19.967 3.310,19.987 3.111 C 20.020 2.796,19.917 2.513,19.692 2.294 C 19.387 1.998,19.400 2.000,16.983 2.003 C 15.365 2.005,14.821 2.018,14.695 2.057 M6.695 5.057 C 6.466 5.129,6.256 5.299,6.128 5.516 L 6.020 5.700 6.009 10.636 L 5.999 15.572 5.269 14.853 C 4.655 14.247,4.509 14.123,4.343 14.067 C 3.865 13.905,3.383 14.083,3.128 14.516 C 3.036 14.672,3.020 14.745,3.021 15.000 C 3.021 15.212,3.043 15.341,3.095 15.440 C 3.135 15.517,3.891 16.306,4.774 17.194 C 6.528 18.957,6.580 18.999,7.000 18.999 C 7.420 18.999,7.472 18.957,9.226 17.194 C 10.109 16.306,10.865 15.517,10.905 15.440 C 10.957 15.341,10.979 15.212,10.979 15.000 C 10.980 14.745,10.964 14.672,10.872 14.516 C 10.617 14.083,10.135 13.905,9.657 14.067 C 9.491 14.123,9.345 14.247,8.731 14.853 L 8.001 15.572 7.991 10.636 L 7.980 5.700 7.872 5.516 C 7.628 5.101,7.150 4.915,6.695 5.057 M16.393 13.040 C 15.247 13.222,14.508 13.799,14.186 14.760 C 14.008 15.290,13.996 15.552,14.008 18.523 L 14.020 21.306 14.141 21.503 C 14.543 22.156,15.457 22.156,15.859 21.503 L 15.980 21.307 15.992 20.153 L 16.005 19.000 17.000 19.000 L 17.995 19.000 18.008 20.153 L 18.020 21.307 18.141 21.503 C 18.543 22.156,19.457 22.156,19.859 21.503 L 19.980 21.306 19.992 18.523 C 20.004 15.560,19.993 15.313,19.816 14.772 C 19.541 13.928,18.892 13.339,17.995 13.119 C 17.612 13.025,16.754 12.983,16.393 13.040 M17.667 15.108 C 17.937 15.248,17.977 15.390,17.994 16.250 L 18.009 17.000 17.000 17.000 L 15.991 17.000 16.007 16.250 C 16.028 15.277,16.090 15.134,16.532 15.039 C 16.817 14.978,17.496 15.020,17.667 15.108 " stroke="none" fill-rule="evenodd" fill="black"></path></svg>