<svg xmlns="http://www.w3.org/2000/svg" width="24" height="24" viewBox="0 0 24 24" fill="none" stroke="currentColor" stroke-width="2" stroke-linecap="round" stroke-linejoin="round"><path d="M3.477 7.073 C 2.806 7.249,2.238 7.823,2.060 8.508 C 2.013 8.687,2.000 9.009,2.000 10.000 C 2.000 11.368,2.018 11.521,2.225 11.930 C 2.361 12.199,2.801 12.639,3.070 12.775 C 3.472 12.979,3.642 13.000,4.868 13.000 L 6.000 13.000 6.000 14.000 L 6.000 15.000 4.446 15.000 C 2.758 15.000,2.658 15.011,2.382 15.221 C 2.302 15.282,2.187 15.415,2.128 15.516 C 2.037 15.672,2.020 15.746,2.020 16.000 C 2.020 16.256,2.036 16.328,2.131 16.489 C 2.192 16.592,2.304 16.725,2.381 16.783 C 2.656 16.993,2.689 16.996,4.542 16.998 C 6.408 17.000,6.503 16.991,6.930 16.775 C 7.196 16.640,7.638 16.200,7.771 15.937 C 7.979 15.527,8.000 15.352,7.999 14.014 C 7.999 12.682,7.974 12.463,7.781 12.083 C 7.646 11.816,7.297 11.449,7.017 11.281 C 6.609 11.035,6.405 11.005,5.130 11.002 L 4.000 11.000 4.000 10.000 L 4.000 9.000 5.590 8.998 C 7.300 8.996,7.346 8.991,7.619 8.783 C 7.696 8.725,7.808 8.592,7.869 8.489 C 7.964 8.328,7.980 8.256,7.980 8.000 C 7.980 7.746,7.963 7.672,7.872 7.516 C 7.813 7.415,7.698 7.282,7.618 7.221 C 7.339 7.008,7.253 7.000,5.424 7.002 C 3.966 7.004,3.705 7.014,3.477 7.073 M9.695 7.057 C 9.466 7.129,9.256 7.299,9.128 7.516 L 9.020 7.700 9.009 11.913 C 9.002 14.672,9.013 16.178,9.039 16.277 C 9.099 16.498,9.290 16.739,9.508 16.867 L 9.700 16.980 12.000 16.980 L 14.300 16.980 14.492 16.867 C 14.710 16.739,14.901 16.498,14.961 16.277 C 14.987 16.178,14.998 14.672,14.991 11.913 L 14.980 7.700 14.872 7.516 C 14.740 7.293,14.533 7.128,14.290 7.055 C 14.033 6.978,9.943 6.979,9.695 7.057 M17.477 7.073 C 16.806 7.249,16.238 7.823,16.060 8.508 C 16.013 8.687,16.000 9.009,16.000 10.000 C 16.000 11.368,16.018 11.521,16.225 11.930 C 16.361 12.199,16.801 12.639,17.070 12.775 C 17.472 12.979,17.642 13.000,18.868 13.000 L 20.000 13.000 20.000 14.000 L 20.000 15.000 18.446 15.000 C 16.758 15.000,16.658 15.011,16.382 15.221 C 16.302 15.282,16.187 15.415,16.128 15.516 C 16.037 15.672,16.020 15.746,16.020 16.000 C 16.020 16.256,16.036 16.328,16.131 16.489 C 16.192 16.592,16.304 16.725,16.381 16.783 C 16.656 16.993,16.689 16.996,18.542 16.998 C 20.408 17.000,20.503 16.991,20.930 16.775 C 21.196 16.640,21.638 16.200,21.771 15.937 C 21.979 15.527,22.000 15.352,21.999 14.014 C 21.999 12.682,21.974 12.463,21.781 12.083 C 21.646 11.816,21.297 11.449,21.017 11.281 C 20.609 11.035,20.405 11.005,19.130 11.002 L 18.000 11.000 18.000 10.000 L 18.000 9.000 19.590 8.998 C 21.300 8.996,21.346 8.991,21.619 8.783 C 21.696 8.725,21.808 8.592,21.869 8.489 C 21.964 8.328,21.980 8.256,21.980 8.000 C 21.980 7.746,21.963 7.672,21.872 7.516 C 21.813 7.415,21.698 7.282,21.618 7.221 C 21.339 7.008,21.253 7.000,19.424 7.002 C 17.966 7.004,17.705 7.014,17.477 7.073 M13.000 12.000 L 13.000 15.000 12.000 15.000 L 11.000 15.000 11.000 12.000 L 11.000 9.000 12.000 9.000 L 13.000 9.000 13.000 12.000 " stroke="none" fill-rule="evenodd" fill="black"></path></svg>