<svg xmlns="http://www.w3.org/2000/svg" width="24" height="24" viewBox="0 0 24 24" fill="none" stroke="currentColor" stroke-width="2" stroke-linecap="round" stroke-linejoin="round"><path d="M2.670 2.061 C 2.448 2.142,2.250 2.309,2.128 2.516 C 2.036 2.672,2.020 2.745,2.021 3.000 C 2.021 3.212,2.043 3.341,2.095 3.440 C 2.135 3.517,3.611 5.024,5.374 6.790 L 8.579 10.000 5.736 10.000 C 2.651 10.000,2.674 9.998,2.382 10.221 C 2.136 10.409,2.028 10.641,2.008 11.023 C 1.970 11.745,2.157 12.906,2.461 13.831 C 2.667 14.459,3.128 15.419,3.468 15.927 C 3.916 16.597,4.488 17.254,5.077 17.773 L 5.334 18.000 4.113 18.000 C 2.784 18.000,2.649 18.017,2.382 18.221 C 2.302 18.282,2.187 18.415,2.128 18.516 C 2.037 18.672,2.020 18.746,2.020 19.000 C 2.020 19.256,2.036 19.328,2.131 19.489 C 2.256 19.702,2.449 19.864,2.670 19.943 C 2.793 19.987,4.222 19.997,10.700 19.998 L 18.581 20.000 19.460 20.883 C 19.944 21.368,20.421 21.814,20.520 21.873 C 20.672 21.964,20.746 21.980,21.000 21.980 C 21.257 21.980,21.327 21.964,21.492 21.867 C 21.968 21.587,22.139 20.967,21.865 20.508 C 21.810 20.416,17.665 16.243,12.653 11.235 C 4.231 2.820,3.525 2.125,3.343 2.065 C 3.107 1.987,2.874 1.986,2.670 2.061 M11.695 4.057 C 11.466 4.129,11.256 4.299,11.128 4.516 L 11.020 4.700 11.020 6.503 L 11.020 8.306 11.141 8.503 C 11.543 9.156,12.457 9.156,12.859 8.503 L 12.980 8.306 12.980 6.503 L 12.980 4.700 12.872 4.516 C 12.628 4.101,12.150 3.915,11.695 4.057 M14.695 4.057 C 14.466 4.129,14.256 4.299,14.128 4.516 L 14.020 4.700 14.020 6.503 L 14.020 8.306 14.141 8.503 C 14.543 9.156,15.457 9.156,15.859 8.503 L 15.980 8.306 15.980 6.503 L 15.980 4.700 15.872 4.516 C 15.628 4.101,15.150 3.915,14.695 4.057 M14.695 10.057 C 14.466 10.129,14.256 10.299,14.128 10.516 C 14.037 10.672,14.020 10.746,14.020 11.000 C 14.020 11.256,14.036 11.328,14.131 11.489 C 14.256 11.702,14.449 11.864,14.670 11.943 C 14.789 11.985,15.345 11.997,17.370 11.998 C 18.831 11.999,19.920 12.015,19.920 12.036 C 19.920 12.179,19.768 12.816,19.642 13.199 C 19.470 13.722,19.217 14.253,18.888 14.776 C 18.621 15.203,18.548 15.444,18.601 15.723 C 18.648 15.973,18.719 16.108,18.887 16.266 C 19.172 16.535,19.524 16.618,19.876 16.501 C 20.162 16.406,20.296 16.280,20.585 15.836 C 21.353 14.652,21.804 13.348,21.962 11.852 C 22.033 11.185,22.002 10.739,21.870 10.513 C 21.741 10.293,21.532 10.128,21.290 10.055 C 21.030 9.977,14.945 9.979,14.695 10.057 M13.256 14.676 L 15.932 17.352 15.776 17.431 C 15.363 17.640,14.450 17.880,13.753 17.963 C 13.194 18.029,10.287 17.988,9.860 17.908 C 7.563 17.479,5.745 16.127,4.726 14.090 C 4.455 13.548,4.182 12.705,4.104 12.170 L 4.079 12.000 7.330 12.000 L 10.580 12.000 13.256 14.676 " stroke="none" fill-rule="evenodd" fill="black"></path></svg>