<svg xmlns="http://www.w3.org/2000/svg" width="24" height="24" viewBox="0 0 24 24" fill="none" stroke="currentColor" stroke-width="2" stroke-linecap="round" stroke-linejoin="round"><path d="M7.654 3.065 C 7.424 3.146,6.938 3.572,6.687 3.910 C 6.442 4.240,6.199 4.747,6.095 5.140 C 5.992 5.534,5.992 6.466,6.095 6.860 C 6.310 7.676,6.894 8.502,7.520 8.873 C 7.672 8.963,7.746 8.980,8.000 8.980 C 8.256 8.980,8.328 8.964,8.489 8.869 C 8.839 8.663,9.029 8.292,8.988 7.894 C 8.959 7.611,8.851 7.433,8.538 7.148 C 8.358 6.985,8.245 6.838,8.152 6.649 C 8.031 6.403,8.020 6.351,8.020 6.000 C 8.020 5.649,8.031 5.597,8.152 5.349 C 8.247 5.157,8.353 5.021,8.525 4.870 C 8.826 4.608,8.959 4.389,8.988 4.107 C 9.063 3.375,8.351 2.818,7.654 3.065 M11.654 3.065 C 11.424 3.146,10.938 3.572,10.687 3.910 C 10.442 4.240,10.199 4.747,10.095 5.140 C 9.992 5.534,9.992 6.466,10.095 6.860 C 10.310 7.676,10.894 8.502,11.520 8.873 C 11.672 8.963,11.746 8.980,12.000 8.980 C 12.256 8.980,12.328 8.964,12.489 8.869 C 12.839 8.663,13.029 8.292,12.988 7.894 C 12.959 7.611,12.851 7.433,12.538 7.148 C 12.358 6.985,12.245 6.838,12.152 6.649 C 12.031 6.403,12.020 6.351,12.020 6.000 C 12.020 5.649,12.031 5.597,12.152 5.349 C 12.247 5.157,12.353 5.021,12.525 4.870 C 12.826 4.608,12.959 4.389,12.988 4.107 C 13.063 3.375,12.351 2.818,11.654 3.065 M15.654 3.065 C 15.424 3.146,14.938 3.572,14.687 3.910 C 14.442 4.240,14.199 4.747,14.095 5.140 C 14.040 5.350,14.021 5.564,14.021 6.000 C 14.021 6.669,14.078 6.944,14.324 7.474 C 14.591 8.051,15.061 8.601,15.520 8.873 C 15.672 8.963,15.746 8.980,16.000 8.980 C 16.256 8.980,16.328 8.964,16.489 8.869 C 16.839 8.663,17.029 8.292,16.988 7.894 C 16.959 7.611,16.851 7.433,16.538 7.148 C 16.358 6.985,16.245 6.838,16.152 6.649 C 16.031 6.403,16.020 6.351,16.020 6.000 C 16.020 5.649,16.031 5.597,16.152 5.349 C 16.247 5.157,16.353 5.021,16.525 4.870 C 16.826 4.608,16.959 4.389,16.988 4.107 C 17.063 3.375,16.351 2.818,15.654 3.065 M3.477 10.073 C 2.780 10.255,2.184 10.886,2.037 11.596 C 1.959 11.971,2.011 12.946,2.133 13.411 C 2.396 14.411,3.139 15.919,4.001 17.200 C 4.424 17.830,4.937 18.457,5.470 18.996 L 6.000 19.533 6.000 19.898 C 6.000 20.550,6.169 20.977,6.596 21.404 C 6.882 21.690,7.148 21.847,7.508 21.940 C 7.851 22.030,16.149 22.030,16.492 21.940 C 16.852 21.847,17.118 21.690,17.404 21.404 C 17.832 20.976,18.000 20.545,18.000 19.872 L 18.000 19.495 18.215 19.309 C 18.623 18.958,19.441 17.954,20.001 17.120 C 20.651 16.152,21.313 14.926,21.621 14.120 C 21.899 13.393,21.967 13.078,21.988 12.420 C 22.018 11.517,21.901 11.122,21.465 10.653 C 21.198 10.366,20.870 10.164,20.523 10.073 C 20.279 10.009,19.679 10.005,12.000 10.005 C 4.321 10.005,3.721 10.009,3.477 10.073 M20.000 12.294 C 20.000 12.664,19.899 13.060,19.660 13.620 C 18.956 15.275,17.454 17.433,16.540 18.104 C 16.069 18.451,16.000 18.618,16.000 19.425 L 16.000 20.000 12.000 20.000 L 8.000 20.000 8.000 19.427 C 8.000 18.575,7.953 18.478,7.288 17.964 C 6.448 17.314,5.346 15.778,4.580 14.188 C 4.160 13.317,4.032 12.918,4.009 12.410 L 3.990 12.000 11.995 12.000 L 20.000 12.000 20.000 12.294 " stroke="none" fill-rule="evenodd" fill="black"></path></svg>