<svg xmlns="http://www.w3.org/2000/svg" width="24" height="24" viewBox="0 0 24 24" fill="none" stroke="currentColor" stroke-width="2" stroke-linecap="round" stroke-linejoin="round"><path d="M14.240 3.037 C 13.794 3.173,13.512 3.546,13.512 4.000 C 13.512 4.405,13.719 4.724,14.100 4.905 C 14.299 4.999,14.309 4.999,15.780 5.002 C 17.044 5.004,17.298 5.015,17.523 5.073 C 18.212 5.253,18.795 5.860,18.941 6.549 C 19.027 6.953,19.027 17.047,18.941 17.451 C 18.863 17.821,18.710 18.091,18.400 18.404 C 18.119 18.690,17.854 18.846,17.492 18.940 C 17.148 19.030,6.852 19.030,6.508 18.940 C 6.022 18.814,5.596 18.501,5.312 18.063 C 5.011 17.597,5.025 17.751,5.001 14.560 L 4.980 11.700 4.871 11.514 C 4.479 10.848,3.521 10.848,3.129 11.514 L 3.020 11.700 3.009 14.529 C 2.998 17.264,3.001 17.371,3.082 17.768 C 3.357 19.119,4.247 20.194,5.512 20.704 C 5.700 20.779,6.028 20.877,6.243 20.921 C 6.620 20.997,6.802 21.000,12.000 21.000 C 17.198 21.000,17.380 20.997,17.757 20.921 C 19.384 20.589,20.589 19.384,20.921 17.757 C 20.997 17.380,21.000 17.198,21.000 12.000 C 21.000 6.802,20.997 6.620,20.921 6.243 C 20.628 4.806,19.637 3.680,18.245 3.204 C 17.751 3.035,17.325 3.000,15.780 3.004 C 14.988 3.005,14.295 3.021,14.240 3.037 M5.640 4.069 C 5.492 4.121,5.265 4.325,4.347 5.236 C 3.734 5.843,3.185 6.421,3.127 6.520 C 3.037 6.672,3.020 6.747,3.020 7.000 C 3.020 7.254,3.036 7.328,3.127 7.480 C 3.260 7.703,5.367 9.803,5.560 9.905 C 5.659 9.957,5.787 9.979,6.000 9.979 C 6.258 9.980,6.327 9.964,6.492 9.867 C 6.714 9.737,6.901 9.498,6.965 9.264 C 7.019 9.061,6.989 8.733,6.899 8.555 C 6.861 8.481,6.514 8.101,6.127 7.710 L 5.423 7.000 6.127 6.290 C 6.514 5.900,6.864 5.517,6.904 5.440 C 6.957 5.340,6.979 5.213,6.979 5.000 C 6.980 4.745,6.964 4.672,6.872 4.516 C 6.617 4.083,6.120 3.902,5.640 4.069 M9.670 4.061 C 9.448 4.142,9.250 4.309,9.128 4.516 C 9.036 4.672,9.020 4.745,9.021 5.000 C 9.021 5.213,9.043 5.340,9.096 5.440 C 9.136 5.517,9.486 5.900,9.873 6.290 L 10.577 7.000 9.873 7.710 C 9.486 8.101,9.139 8.481,9.101 8.555 C 8.872 9.008,9.056 9.601,9.508 9.867 C 9.673 9.964,9.742 9.980,10.000 9.979 C 10.213 9.979,10.341 9.957,10.440 9.905 C 10.633 9.803,12.740 7.703,12.873 7.480 C 12.964 7.328,12.980 7.254,12.980 7.000 C 12.980 6.747,12.963 6.672,12.873 6.520 C 12.815 6.421,12.266 5.843,11.653 5.236 C 10.680 4.271,10.515 4.124,10.343 4.066 C 10.108 3.987,9.875 3.985,9.670 4.061 " stroke="none" fill-rule="evenodd" fill="black"></path></svg>