<svg xmlns="http://www.w3.org/2000/svg" width="24" height="24" viewBox="0 0 24 24" fill="none" stroke="currentColor" stroke-width="2" stroke-linecap="round" stroke-linejoin="round"><path d="M3.695 3.057 C 3.466 3.129,3.256 3.299,3.128 3.516 L 3.020 3.700 3.020 5.120 C 3.020 6.497,3.023 6.549,3.114 6.840 C 3.422 7.827,4.173 8.578,5.160 8.886 L 5.460 8.980 12.000 8.980 L 18.540 8.980 18.840 8.886 C 19.827 8.578,20.578 7.827,20.886 6.840 C 20.977 6.549,20.980 6.497,20.980 5.120 L 20.980 3.700 20.871 3.514 C 20.479 2.848,19.521 2.848,19.129 3.514 L 19.020 3.700 18.999 4.980 C 18.984 5.854,18.962 6.296,18.929 6.373 C 18.844 6.569,18.673 6.761,18.484 6.872 L 18.300 6.980 12.000 6.980 L 5.700 6.980 5.516 6.872 C 5.327 6.761,5.157 6.570,5.071 6.373 C 5.037 6.295,5.015 5.865,5.001 4.980 L 4.980 3.700 4.872 3.516 C 4.628 3.101,4.150 2.915,3.695 3.057 M7.695 11.057 C 7.466 11.129,7.256 11.299,7.128 11.516 C 7.037 11.672,7.020 11.746,7.020 12.000 C 7.020 12.256,7.036 12.328,7.131 12.489 C 7.256 12.702,7.449 12.864,7.670 12.943 C 7.892 13.022,16.108 13.022,16.330 12.943 C 16.551 12.864,16.744 12.702,16.869 12.489 C 16.964 12.328,16.980 12.256,16.980 12.000 C 16.980 11.746,16.963 11.672,16.872 11.516 C 16.740 11.293,16.533 11.128,16.290 11.055 C 16.029 10.976,7.946 10.979,7.695 11.057 M5.499 15.043 C 4.380 15.233,3.461 16.048,3.114 17.160 C 3.023 17.451,3.020 17.503,3.020 18.883 L 3.020 20.306 3.141 20.503 C 3.543 21.156,4.457 21.156,4.859 20.503 L 4.980 20.307 5.000 19.023 C 5.023 17.581,5.025 17.571,5.321 17.283 C 5.633 16.981,5.174 17.000,12.000 17.000 C 18.826 17.000,18.367 16.981,18.679 17.283 C 18.975 17.571,18.977 17.581,19.000 19.023 L 19.020 20.307 19.141 20.503 C 19.543 21.156,20.457 21.156,20.859 20.503 L 20.980 20.306 20.980 18.883 C 20.980 17.503,20.977 17.451,20.886 17.160 C 20.581 16.182,19.832 15.428,18.861 15.121 L 18.540 15.020 12.120 15.014 C 8.589 15.011,5.609 15.024,5.499 15.043 " stroke="none" fill-rule="evenodd" fill="black"></path></svg>