<svg xmlns="http://www.w3.org/2000/svg" width="24" height="24" viewBox="0 0 24 24" fill="none" stroke="currentColor" stroke-width="2" stroke-linecap="round" stroke-linejoin="round"><path d="M3.695 9.057 C 3.466 9.129,3.256 9.299,3.128 9.516 L 3.020 9.700 3.008 11.456 C 2.996 13.350,3.005 13.460,3.202 13.877 C 3.348 14.186,3.771 14.623,4.070 14.775 C 4.540 15.013,4.078 15.000,12.000 15.000 C 19.922 15.000,19.460 15.013,19.930 14.775 C 20.196 14.640,20.638 14.200,20.771 13.937 C 20.995 13.495,21.004 13.395,20.992 11.468 L 20.980 9.700 20.871 9.514 C 20.479 8.848,19.521 8.848,19.129 9.514 L 19.020 9.700 19.008 11.350 L 18.997 13.000 12.000 13.000 L 5.003 13.000 4.992 11.350 L 4.980 9.700 4.872 9.516 C 4.628 9.101,4.150 8.915,3.695 9.057 " stroke="none" fill-rule="evenodd" fill="black"></path></svg>