<svg xmlns="http://www.w3.org/2000/svg" width="24" height="24" viewBox="0 0 24 24" fill="none" stroke="currentColor" stroke-width="2" stroke-linecap="round" stroke-linejoin="round"><path d="M11.420 2.023 C 11.354 2.033,11.156 2.060,10.980 2.083 C 9.814 2.238,8.495 2.820,7.540 3.600 C 6.412 4.523,5.557 5.898,5.179 7.397 C 5.082 7.781,5.002 8.451,5.001 8.882 L 5.000 9.265 4.750 9.449 C 3.918 10.063,3.208 10.932,2.721 11.933 C 1.486 14.476,1.868 17.415,3.716 19.581 C 5.202 21.323,7.633 22.252,9.886 21.937 C 10.468 21.856,11.120 21.686,11.617 21.486 L 12.014 21.325 12.158 21.399 C 12.427 21.536,13.137 21.766,13.600 21.865 C 14.175 21.988,15.118 22.033,15.700 21.964 C 17.422 21.761,18.748 21.129,19.944 19.941 C 20.623 19.266,21.131 18.513,21.462 17.688 C 22.100 16.099,22.168 14.397,21.656 12.844 C 21.469 12.276,21.021 11.386,20.690 10.923 C 20.340 10.435,19.734 9.803,19.325 9.500 L 19.000 9.260 18.999 8.880 C 18.996 7.129,18.241 5.361,16.941 4.058 C 15.900 3.014,14.658 2.372,13.146 2.095 C 12.830 2.037,11.663 1.989,11.420 2.023 M12.960 4.098 C 14.530 4.432,15.765 5.379,16.477 6.794 C 16.678 7.193,16.870 7.765,16.906 8.065 L 16.931 8.282 16.828 8.243 C 16.598 8.156,15.830 8.035,15.360 8.013 C 13.288 7.913,11.251 8.740,9.877 10.239 C 9.314 10.852,8.809 11.622,8.557 12.251 C 8.506 12.378,8.446 12.475,8.422 12.468 C 8.341 12.442,7.889 11.869,7.706 11.561 C 7.164 10.650,6.928 9.571,7.034 8.494 C 7.094 7.892,7.221 7.433,7.477 6.896 C 8.244 5.286,9.613 4.299,11.460 4.024 C 11.701 3.988,12.668 4.036,12.960 4.098 M15.960 10.098 C 17.198 10.347,18.395 11.122,19.074 12.114 C 19.711 13.047,19.981 13.901,19.977 14.980 C 19.975 15.852,19.832 16.493,19.480 17.204 C 18.908 18.364,17.847 19.311,16.660 19.722 C 15.987 19.955,15.013 20.056,14.349 19.961 L 13.999 19.912 14.210 19.672 C 15.435 18.277,16.070 16.503,15.988 14.705 C 15.938 13.627,15.681 12.681,15.178 11.728 C 14.909 11.220,14.722 10.942,14.334 10.475 C 14.168 10.276,14.039 10.108,14.046 10.100 C 14.054 10.093,14.186 10.069,14.340 10.046 C 14.701 9.993,15.575 10.021,15.960 10.098 M12.260 11.210 C 12.790 11.683,13.110 12.085,13.397 12.640 C 13.594 13.022,13.800 13.524,13.800 13.623 C 13.800 13.692,13.265 13.862,12.785 13.945 C 12.118 14.062,11.204 13.988,10.466 13.759 C 10.196 13.676,10.192 13.672,10.215 13.555 C 10.291 13.174,10.646 12.476,11.009 11.995 C 11.218 11.717,11.931 11.000,11.997 11.000 C 12.012 11.000,12.130 11.095,12.260 11.210 M5.480 11.561 C 5.480 11.640,5.876 12.423,6.067 12.721 C 6.967 14.124,8.320 15.178,9.834 15.655 C 10.670 15.919,11.069 15.977,12.040 15.976 C 12.893 15.976,13.097 15.953,13.830 15.773 C 13.901 15.756,13.920 15.768,13.920 15.831 C 13.920 16.028,13.698 16.737,13.519 17.113 C 13.256 17.665,13.007 18.032,12.623 18.432 C 11.586 19.514,10.234 20.058,8.760 19.986 C 7.505 19.925,6.466 19.474,5.532 18.587 C 4.724 17.819,4.194 16.752,4.037 15.573 C 3.981 15.154,4.009 14.426,4.098 14.006 C 4.271 13.191,4.716 12.289,5.224 11.723 C 5.402 11.526,5.480 11.476,5.480 11.561 " stroke="none" fill-rule="evenodd" fill="black"></path></svg>