<svg xmlns="http://www.w3.org/2000/svg" width="24" height="24" viewBox="0 0 24 24" fill="none" stroke="currentColor" stroke-width="2" stroke-linecap="round" stroke-linejoin="round"><path d="M11.674 2.056 C 11.483 2.124,11.441 2.158,10.481 3.033 C 6.608 6.562,5.179 7.931,4.524 8.737 C 3.050 10.550,2.622 12.830,3.348 15.000 C 3.646 15.894,4.115 16.673,4.720 17.284 C 5.440 18.011,6.228 18.412,7.274 18.585 C 7.648 18.646,8.437 18.642,8.668 18.577 C 8.748 18.554,8.724 18.645,8.376 19.686 C 8.025 20.734,7.997 20.839,8.013 21.068 C 8.042 21.476,8.290 21.807,8.670 21.943 C 8.790 21.986,9.445 21.997,11.983 21.998 C 15.547 22.000,15.389 22.013,15.701 21.701 C 15.884 21.518,16.000 21.241,16.000 20.987 C 16.000 20.869,15.506 19.268,15.294 18.700 C 15.284 18.674,15.540 18.660,16.010 18.659 C 16.629 18.658,16.789 18.645,17.064 18.572 C 17.549 18.443,17.985 18.263,18.383 18.030 C 18.836 17.763,19.559 17.057,19.892 16.555 C 21.061 14.793,21.318 12.575,20.579 10.637 C 20.308 9.928,19.968 9.343,19.473 8.734 C 18.949 8.088,17.464 6.644,15.139 4.517 C 13.790 3.283,12.627 2.230,12.555 2.176 C 12.318 2.001,11.963 1.953,11.674 2.056 M14.304 6.463 C 16.826 8.771,17.812 9.767,18.267 10.466 C 18.677 11.094,18.891 11.713,18.967 12.484 C 19.086 13.700,18.726 14.881,17.956 15.804 C 17.499 16.352,16.779 16.681,16.037 16.680 C 15.512 16.679,15.165 16.567,14.648 16.233 C 14.311 16.015,14.095 15.966,13.778 16.037 C 13.506 16.098,13.275 16.266,13.133 16.508 C 13.022 16.697,13.020 16.713,13.007 17.425 L 12.994 18.151 13.282 19.025 C 13.441 19.506,13.579 19.922,13.590 19.950 C 13.605 19.989,13.270 20.000,12.000 20.000 C 10.730 20.000,10.395 19.989,10.410 19.950 C 10.421 19.922,10.559 19.506,10.718 19.025 L 11.006 18.151 10.993 17.422 L 10.980 16.693 10.860 16.502 C 10.704 16.252,10.475 16.091,10.190 16.032 C 9.896 15.970,9.707 16.017,9.289 16.258 C 8.679 16.609,8.087 16.713,7.439 16.583 C 6.709 16.437,6.185 16.068,5.743 15.390 C 5.166 14.504,4.930 13.539,5.033 12.484 C 5.109 11.712,5.323 11.093,5.733 10.466 C 6.186 9.773,7.188 8.757,9.520 6.624 C 10.653 5.588,11.670 4.655,11.780 4.551 C 11.890 4.447,11.991 4.366,12.004 4.371 C 12.018 4.376,13.053 5.317,14.304 6.463 " stroke="none" fill-rule="evenodd" fill="black"></path></svg>