<svg xmlns="http://www.w3.org/2000/svg" width="24" height="24" viewBox="0 0 24 24" fill="none" stroke="currentColor" stroke-width="2" stroke-linecap="round" stroke-linejoin="round"><path d="M17.695 3.057 C 17.298 3.181,17.062 3.491,17.002 3.966 C 16.957 4.320,16.916 4.438,16.774 4.625 C 16.613 4.835,16.377 4.955,16.034 4.998 C 15.870 5.019,15.686 5.055,15.625 5.078 C 15.439 5.149,15.242 5.323,15.128 5.516 C 15.036 5.672,15.020 5.746,15.020 6.003 C 15.020 6.271,15.034 6.329,15.141 6.503 C 15.294 6.751,15.579 6.948,15.831 6.979 C 16.396 7.048,16.592 7.138,16.808 7.426 C 16.913 7.564,16.972 7.773,17.021 8.169 C 17.052 8.421,17.249 8.706,17.497 8.859 C 17.671 8.966,17.729 8.980,18.000 8.980 C 18.271 8.980,18.329 8.966,18.503 8.859 C 18.751 8.706,18.948 8.421,18.979 8.169 C 19.028 7.773,19.087 7.564,19.192 7.426 C 19.408 7.138,19.604 7.048,20.169 6.979 C 20.421 6.948,20.706 6.751,20.859 6.503 C 20.966 6.329,20.980 6.271,20.980 6.003 C 20.980 5.746,20.964 5.672,20.872 5.516 C 20.758 5.323,20.561 5.149,20.375 5.078 C 20.314 5.055,20.130 5.019,19.966 4.998 C 19.623 4.955,19.387 4.835,19.226 4.625 C 19.081 4.434,19.037 4.309,18.997 3.966 C 18.942 3.488,18.701 3.179,18.290 3.055 C 18.068 2.988,17.913 2.989,17.695 3.057 M8.695 5.057 C 8.333 5.170,8.053 5.505,8.019 5.866 C 8.009 5.973,7.981 6.258,7.958 6.500 C 7.842 7.702,7.315 8.781,6.438 9.615 C 5.548 10.460,4.511 10.903,3.200 10.998 C 2.947 11.016,2.689 11.051,2.627 11.076 C 2.437 11.150,2.241 11.323,2.128 11.516 C 2.037 11.672,2.020 11.746,2.020 12.000 C 2.020 12.257,2.036 12.327,2.133 12.492 C 2.261 12.710,2.505 12.904,2.716 12.955 C 2.795 12.974,3.103 13.010,3.400 13.035 C 3.697 13.061,4.066 13.114,4.220 13.154 C 6.001 13.617,7.383 14.999,7.846 16.780 C 7.886 16.934,7.939 17.303,7.965 17.600 C 7.990 17.897,8.026 18.205,8.045 18.284 C 8.096 18.495,8.290 18.739,8.508 18.867 C 8.673 18.964,8.743 18.980,9.000 18.980 C 9.257 18.980,9.327 18.964,9.492 18.867 C 9.710 18.739,9.904 18.495,9.955 18.284 C 9.974 18.205,10.010 17.897,10.035 17.600 C 10.061 17.303,10.114 16.934,10.154 16.780 C 10.617 14.999,11.999 13.617,13.780 13.154 C 13.934 13.114,14.303 13.061,14.600 13.035 C 14.897 13.010,15.205 12.974,15.284 12.955 C 15.495 12.904,15.739 12.710,15.867 12.492 C 15.964 12.327,15.980 12.257,15.980 12.000 C 15.980 11.746,15.963 11.672,15.872 11.516 C 15.759 11.323,15.563 11.150,15.373 11.076 C 15.311 11.051,15.053 11.016,14.800 10.998 C 13.488 10.903,12.449 10.460,11.563 9.616 C 10.682 8.778,10.158 7.704,10.042 6.500 C 10.019 6.258,9.991 5.973,9.981 5.866 C 9.946 5.497,9.665 5.168,9.290 5.055 C 9.068 4.988,8.913 4.989,8.695 5.057 M9.116 9.783 C 9.524 10.475,10.441 11.382,11.304 11.950 C 11.379 11.999,11.379 12.001,11.304 12.050 C 10.423 12.630,9.630 13.423,9.050 14.304 C 9.001 14.379,8.999 14.379,8.950 14.304 C 8.370 13.423,7.577 12.630,6.696 12.050 C 6.621 12.001,6.621 11.999,6.696 11.950 C 7.559 11.382,8.476 10.475,8.884 9.783 C 8.930 9.704,8.982 9.640,9.000 9.640 C 9.018 9.640,9.070 9.704,9.116 9.783 M17.695 15.057 C 17.298 15.181,17.062 15.491,17.002 15.966 C 16.957 16.320,16.916 16.438,16.774 16.625 C 16.613 16.835,16.377 16.955,16.034 16.998 C 15.870 17.019,15.686 17.055,15.625 17.078 C 15.439 17.149,15.242 17.323,15.128 17.516 C 15.036 17.672,15.020 17.746,15.020 18.003 C 15.020 18.271,15.034 18.329,15.141 18.503 C 15.294 18.751,15.579 18.948,15.831 18.979 C 16.396 19.048,16.592 19.138,16.808 19.426 C 16.913 19.564,16.972 19.773,17.021 20.169 C 17.052 20.421,17.249 20.706,17.497 20.859 C 17.671 20.966,17.729 20.980,18.000 20.980 C 18.271 20.980,18.329 20.966,18.503 20.859 C 18.751 20.706,18.948 20.421,18.979 20.169 C 19.028 19.773,19.087 19.564,19.192 19.426 C 19.408 19.138,19.604 19.048,20.169 18.979 C 20.421 18.948,20.706 18.751,20.859 18.503 C 20.966 18.329,20.980 18.271,20.980 18.003 C 20.980 17.746,20.964 17.672,20.872 17.516 C 20.758 17.323,20.561 17.149,20.375 17.078 C 20.314 17.055,20.130 17.019,19.966 16.998 C 19.623 16.955,19.387 16.835,19.226 16.625 C 19.081 16.434,19.037 16.309,18.997 15.966 C 18.942 15.488,18.701 15.179,18.290 15.055 C 18.068 14.988,17.913 14.989,17.695 15.057 " stroke="none" fill-rule="evenodd" fill="black"></path></svg>