<svg xmlns="http://www.w3.org/2000/svg" width="24" height="24" viewBox="0 0 24 24" fill="none" stroke="currentColor" stroke-width="2" stroke-linecap="round" stroke-linejoin="round"><path d="M5.695 7.057 C 5.326 7.172,5.052 7.507,5.013 7.888 C 4.955 8.455,5.337 8.925,5.912 8.992 L 6.150 9.020 5.705 10.506 L 5.260 11.992 4.740 12.007 C 4.304 12.020,4.194 12.036,4.057 12.108 C 3.696 12.299,3.679 12.334,2.822 14.621 C 2.372 15.822,2.020 16.820,2.009 16.926 C 1.982 17.196,2.095 17.497,2.298 17.700 C 2.623 18.025,2.001 18.000,9.782 18.000 C 17.280 18.000,17.015 18.007,17.662 17.786 C 18.446 17.519,19.082 17.067,19.561 16.439 C 19.945 15.935,22.886 11.473,22.945 11.305 C 23.067 10.959,22.969 10.563,22.694 10.296 C 22.378 9.990,22.497 10.000,19.340 10.000 L 16.534 10.000 15.632 8.649 C 14.672 7.212,14.596 7.124,14.240 7.043 C 13.952 6.977,5.907 6.991,5.695 7.057 M13.872 9.608 C 14.095 9.943,14.273 10.219,14.268 10.223 C 14.241 10.245,10.071 11.882,9.940 11.923 C 9.760 11.978,7.360 12.028,7.360 11.976 C 7.360 11.951,7.757 10.614,8.145 9.330 L 8.245 9.000 10.856 9.000 L 13.468 9.000 13.872 9.608 M20.095 12.050 C 20.078 12.078,19.585 12.821,18.998 13.701 C 17.872 15.391,17.721 15.576,17.308 15.777 C 16.824 16.012,17.168 16.001,10.534 15.990 L 4.452 15.980 4.820 15.000 L 5.188 14.020 7.564 13.997 C 10.067 13.973,10.089 13.972,10.699 13.776 C 10.810 13.741,11.800 13.355,12.900 12.918 C 14.000 12.482,15.026 12.098,15.180 12.066 C 15.563 11.985,20.142 11.970,20.095 12.050 " stroke="none" fill-rule="evenodd" fill="black"></path></svg>