<svg xmlns="http://www.w3.org/2000/svg" width="24" height="24" viewBox="0 0 24 24" fill="none" stroke="currentColor" stroke-width="2" stroke-linecap="round" stroke-linejoin="round"><path d="M11.320 2.024 C 11.243 2.033,11.009 2.059,10.800 2.082 C 9.492 2.224,8.038 2.724,6.827 3.447 C 5.933 3.981,4.852 4.930,4.194 5.760 C 3.066 7.181,2.404 8.712,2.094 10.620 C 2.040 10.953,2.023 11.288,2.023 12.000 C 2.023 12.977,2.063 13.365,2.246 14.180 C 3.115 18.030,6.125 20.985,10.000 21.793 C 10.718 21.943,11.090 21.979,11.940 21.979 C 12.631 21.980,12.805 21.968,12.923 21.915 C 13.744 21.542,13.735 20.406,12.909 20.061 C 12.799 20.015,12.607 20.000,12.131 20.000 C 11.111 19.999,10.371 19.885,9.484 19.591 C 7.494 18.931,5.805 17.477,4.868 15.615 C 4.724 15.331,4.520 14.850,4.520 14.797 C 4.520 14.781,4.677 14.829,4.870 14.905 C 5.758 15.254,7.071 15.576,8.340 15.758 C 10.268 16.035,12.816 16.073,14.800 15.856 C 15.472 15.783,15.601 15.744,15.818 15.554 C 16.293 15.136,16.270 14.396,15.770 14.014 C 15.517 13.821,15.291 13.789,14.688 13.858 C 12.830 14.072,10.332 14.033,8.500 13.761 C 6.462 13.459,4.712 12.832,4.145 12.201 L 3.989 12.028 4.016 11.604 C 4.152 9.493,4.965 7.696,6.426 6.278 C 7.905 4.844,9.657 4.103,11.780 4.013 C 13.294 3.949,14.876 4.376,16.221 5.210 C 18.053 6.346,19.372 8.223,19.823 10.337 C 19.947 10.921,20.031 11.918,19.969 12.093 C 19.877 12.357,19.870 12.513,19.942 12.741 C 20.070 13.147,20.449 13.473,20.869 13.540 C 21.247 13.600,21.702 13.345,21.886 12.970 C 21.976 12.789,21.980 12.741,21.978 11.960 C 21.976 11.120,21.934 10.668,21.794 10.000 C 20.925 5.860,17.648 2.756,13.473 2.118 C 12.966 2.041,11.660 1.983,11.320 2.024 M18.695 15.057 C 18.466 15.129,18.256 15.299,18.128 15.516 L 18.020 15.700 18.008 16.850 L 17.995 18.000 16.944 18.000 C 15.797 18.000,15.643 18.022,15.382 18.221 C 15.302 18.282,15.187 18.415,15.128 18.516 C 15.037 18.672,15.020 18.746,15.020 19.000 C 15.020 19.256,15.036 19.328,15.131 19.489 C 15.192 19.592,15.304 19.725,15.381 19.783 C 15.642 19.983,15.738 19.996,16.908 19.998 L 17.995 20.000 18.008 21.153 L 18.020 22.307 18.141 22.503 C 18.543 23.156,19.457 23.156,19.859 22.503 L 19.980 22.307 19.992 21.153 L 20.005 20.000 21.092 19.998 C 22.262 19.996,22.358 19.983,22.619 19.783 C 22.696 19.725,22.808 19.592,22.869 19.489 C 22.964 19.328,22.980 19.256,22.980 19.000 C 22.980 18.746,22.963 18.672,22.872 18.516 C 22.813 18.415,22.698 18.282,22.618 18.221 C 22.357 18.022,22.203 18.000,21.056 18.000 L 20.005 18.000 19.992 16.850 L 19.980 15.700 19.872 15.516 C 19.628 15.101,19.150 14.915,18.695 15.057 " stroke="none" fill-rule="evenodd" fill="black"></path></svg>