<svg xmlns="http://www.w3.org/2000/svg" width="24" height="24" viewBox="0 0 24 24" fill="none" stroke="currentColor" stroke-width="2" stroke-linecap="round" stroke-linejoin="round"><path d="M2.670 2.061 C 2.448 2.142,2.250 2.309,2.128 2.516 C 2.036 2.672,2.020 2.745,2.021 3.000 C 2.021 3.213,2.043 3.341,2.095 3.440 C 2.136 3.517,2.637 4.050,3.208 4.625 L 4.248 5.670 3.965 6.051 C 2.998 7.355,2.348 8.925,2.100 10.560 C 2.010 11.153,1.980 12.276,2.037 12.880 C 2.158 14.161,2.467 15.254,3.038 16.420 C 4.486 19.378,7.262 21.392,10.600 21.907 C 11.245 22.007,12.755 22.007,13.400 21.907 C 15.089 21.647,16.634 21.011,17.949 20.035 L 18.330 19.752 19.375 20.792 C 19.950 21.363,20.483 21.864,20.560 21.905 C 20.659 21.957,20.787 21.979,21.000 21.979 C 21.258 21.980,21.327 21.964,21.492 21.867 C 21.968 21.587,22.139 20.967,21.865 20.508 C 21.810 20.416,17.665 16.243,12.653 11.235 C 4.231 2.820,3.525 2.125,3.343 2.065 C 3.107 1.987,2.874 1.986,2.670 2.061 M11.080 2.043 C 9.903 2.162,8.741 2.483,7.713 2.974 C 7.268 3.187,7.111 3.344,7.014 3.676 C 6.910 4.032,6.990 4.353,7.254 4.634 C 7.458 4.849,7.662 4.937,7.960 4.936 C 8.185 4.936,8.277 4.910,8.640 4.743 C 10.426 3.925,12.309 3.782,14.243 4.318 C 15.205 4.585,16.245 5.131,17.051 5.794 C 17.390 6.073,17.995 6.682,18.261 7.012 C 18.743 7.611,19.230 8.469,19.493 9.180 C 19.786 9.974,20.000 11.089,20.000 11.818 C 20.000 12.017,19.985 12.056,19.852 12.203 C 19.575 12.510,18.973 12.844,18.240 13.099 C 17.543 13.340,17.351 13.499,17.216 13.945 C 17.092 14.357,17.318 14.846,17.730 15.056 C 18.078 15.233,18.294 15.217,18.961 14.967 C 19.257 14.856,19.502 14.769,19.506 14.773 C 19.509 14.777,19.416 14.996,19.298 15.260 C 19.038 15.843,19.010 15.994,19.100 16.306 C 19.215 16.705,19.656 17.040,20.066 17.040 C 20.222 17.040,20.533 16.916,20.692 16.790 C 20.932 16.600,21.359 15.645,21.624 14.706 C 22.495 11.612,21.820 8.295,19.800 5.740 C 19.465 5.316,18.625 4.485,18.195 4.151 C 16.971 3.202,15.531 2.527,14.071 2.218 C 13.252 2.044,11.870 1.964,11.080 2.043 M9.140 10.564 L 12.580 14.009 11.420 13.985 C 9.444 13.944,7.926 13.744,6.503 13.335 C 5.309 12.993,4.514 12.611,4.150 12.207 C 3.978 12.015,3.970 11.944,4.042 11.234 C 4.142 10.258,4.389 9.379,4.803 8.520 C 5.028 8.055,5.608 7.120,5.672 7.120 C 5.687 7.120,7.248 8.670,9.140 10.564 M4.860 14.901 C 6.067 15.375,7.695 15.721,9.600 15.907 C 10.409 15.987,13.316 16.003,14.040 15.932 L 14.460 15.891 15.670 17.095 C 16.335 17.758,16.880 18.312,16.880 18.327 C 16.880 18.343,16.688 18.484,16.453 18.641 C 13.515 20.606,9.597 20.416,6.923 18.179 C 6.056 17.454,5.341 16.562,4.868 15.618 C 4.708 15.297,4.473 14.760,4.493 14.760 C 4.497 14.760,4.662 14.824,4.860 14.901 " stroke="none" fill-rule="evenodd" fill="black"></path></svg>