<svg xmlns="http://www.w3.org/2000/svg" width="24" height="24" viewBox="0 0 24 24" fill="none" stroke="currentColor" stroke-width="2" stroke-linecap="round" stroke-linejoin="round"><path d="M4.695 3.057 C 4.466 3.129,4.256 3.299,4.128 3.516 L 4.020 3.700 4.008 4.913 C 3.997 5.964,4.005 6.154,4.063 6.333 C 4.125 6.523,4.270 6.680,5.854 8.270 L 7.577 10.000 6.000 10.000 L 4.423 10.000 3.761 9.342 C 3.022 8.608,2.890 8.522,2.498 8.521 C 1.700 8.518,1.229 9.406,1.681 10.060 C 1.742 10.148,2.167 10.591,2.626 11.043 C 3.338 11.746,3.489 11.877,3.657 11.933 C 3.830 11.992,4.085 12.000,5.716 12.000 L 7.578 12.000 5.354 14.230 C 3.292 16.297,3.125 16.475,3.063 16.667 C 3.005 16.846,2.997 17.038,3.008 18.090 L 3.020 19.306 3.141 19.503 C 3.543 20.156,4.457 20.156,4.859 19.503 L 4.980 19.307 4.992 18.363 L 5.004 17.420 5.989 16.432 C 6.531 15.889,6.990 15.454,7.007 15.465 C 7.025 15.476,7.040 15.529,7.040 15.584 C 7.040 15.749,7.160 16.281,7.268 16.600 C 7.844 18.289,9.253 19.525,11.040 19.907 C 11.511 20.008,12.489 20.008,12.960 19.907 C 14.488 19.580,15.748 18.630,16.433 17.288 C 16.718 16.729,16.960 15.947,16.960 15.584 C 16.960 15.529,16.975 15.476,16.993 15.465 C 17.010 15.454,17.469 15.889,18.011 16.432 L 18.996 17.420 19.008 18.363 L 19.020 19.307 19.141 19.503 C 19.543 20.156,20.457 20.156,20.859 19.503 L 20.980 19.306 20.992 18.090 C 21.003 17.038,20.995 16.846,20.937 16.667 C 20.875 16.475,20.708 16.297,18.646 14.230 L 16.422 12.000 18.284 12.000 C 19.915 12.000,20.170 11.992,20.343 11.933 C 20.511 11.877,20.662 11.746,21.374 11.043 C 21.833 10.591,22.259 10.147,22.321 10.057 C 22.768 9.413,22.290 8.518,21.502 8.521 C 21.110 8.522,20.978 8.608,20.239 9.342 L 19.577 10.000 18.000 10.000 L 16.423 10.000 18.146 8.270 C 19.730 6.680,19.875 6.523,19.937 6.333 C 19.995 6.154,20.003 5.964,19.992 4.913 L 19.980 3.700 19.871 3.514 C 19.479 2.848,18.521 2.848,18.129 3.514 L 18.020 3.700 18.007 4.643 L 17.995 5.586 16.477 7.103 C 15.194 8.386,14.960 8.603,14.960 8.514 C 14.960 8.456,14.922 8.285,14.876 8.134 C 14.586 7.187,13.812 6.415,12.861 6.125 C 12.588 6.042,12.458 6.027,12.000 6.027 C 11.542 6.027,11.412 6.042,11.139 6.125 C 10.188 6.415,9.414 7.187,9.124 8.134 C 9.078 8.285,9.040 8.456,9.040 8.514 C 9.040 8.603,8.806 8.386,7.523 7.103 L 6.005 5.586 5.993 4.643 C 5.980 3.701,5.980 3.700,5.872 3.516 C 5.628 3.101,5.150 2.915,4.695 3.057 M12.310 8.061 C 12.688 8.173,13.000 8.598,13.000 9.001 C 13.000 9.331,12.784 9.696,12.484 9.872 C 12.328 9.963,12.254 9.980,12.000 9.980 C 11.746 9.980,11.672 9.963,11.516 9.872 C 10.935 9.530,10.833 8.774,11.304 8.303 C 11.583 8.024,11.916 7.944,12.310 8.061 M12.861 12.129 C 13.804 12.405,14.584 13.183,14.875 14.139 C 14.958 14.412,14.973 14.542,14.973 15.000 C 14.973 15.458,14.958 15.588,14.875 15.861 C 14.582 16.822,13.819 17.581,12.840 17.886 C 12.406 18.021,11.594 18.021,11.160 17.886 C 10.181 17.581,9.418 16.822,9.125 15.861 C 9.042 15.588,9.027 15.458,9.027 15.000 C 9.027 14.542,9.042 14.412,9.125 14.139 C 9.456 13.054,10.371 12.245,11.499 12.040 C 11.832 11.980,12.500 12.023,12.861 12.129 " stroke="none" fill-rule="evenodd" fill="black"></path></svg>