<svg xmlns="http://www.w3.org/2000/svg" width="24" height="24" viewBox="0 0 24 24" fill="none" stroke="currentColor" stroke-width="2" stroke-linecap="round" stroke-linejoin="round"><path d="M9.780 3.042 C 7.219 3.306,4.807 4.778,3.390 6.940 C 2.880 7.717,2.403 8.859,2.200 9.783 C 1.238 14.179,3.871 18.807,8.240 20.400 C 8.820 20.611,9.601 20.811,10.220 20.905 C 10.877 21.006,12.389 21.007,13.015 20.908 C 15.368 20.535,17.351 19.536,18.982 17.903 C 20.148 16.735,20.906 15.523,21.441 13.972 C 21.765 13.032,21.962 12.023,21.973 11.240 C 21.981 10.715,21.928 10.560,21.655 10.321 C 21.449 10.140,21.284 10.080,20.994 10.080 C 20.682 10.080,20.457 10.183,20.247 10.421 C 20.065 10.628,20.014 10.785,19.979 11.240 C 19.735 14.451,17.681 17.210,14.637 18.416 C 12.538 19.247,10.211 19.176,8.220 18.220 C 6.542 17.414,5.175 15.919,4.465 14.114 C 4.213 13.472,3.999 12.334,4.001 11.641 C 4.008 8.539,6.188 5.842,9.240 5.158 C 10.594 4.855,12.035 5.021,13.263 5.622 C 14.870 6.410,16.007 7.874,16.383 9.642 C 16.483 10.109,16.485 11.092,16.387 11.560 C 16.177 12.568,15.752 13.365,15.040 14.082 C 14.123 15.006,12.924 15.520,11.679 15.523 C 11.137 15.525,10.801 15.477,10.349 15.334 C 9.699 15.129,9.163 14.805,8.678 14.322 C 8.193 13.841,7.857 13.279,7.654 12.612 C 7.560 12.302,7.547 12.191,7.545 11.680 C 7.543 11.002,7.592 10.771,7.859 10.220 C 8.174 9.571,8.635 9.111,9.300 8.782 C 9.771 8.549,10.090 8.469,10.560 8.466 C 11.027 8.463,11.281 8.521,11.720 8.730 C 12.542 9.121,13.087 10.043,12.964 10.833 C 12.885 11.336,12.600 11.754,12.197 11.955 C 11.899 12.104,11.651 12.145,11.428 12.082 C 11.217 12.022,11.081 11.905,10.906 11.633 C 10.644 11.227,10.394 11.072,10.000 11.072 C 9.463 11.072,9.053 11.464,9.011 12.019 C 8.994 12.241,9.006 12.287,9.163 12.600 C 9.406 13.083,9.885 13.560,10.360 13.793 C 11.121 14.165,11.817 14.209,12.637 13.936 C 13.139 13.769,13.498 13.541,13.924 13.120 C 14.469 12.581,14.731 12.108,14.906 11.349 C 14.987 10.999,14.997 10.277,14.926 9.940 C 14.553 8.175,13.220 6.880,11.425 6.540 C 10.747 6.411,9.751 6.480,9.087 6.703 C 7.307 7.301,6.024 8.743,5.620 10.600 C 5.520 11.062,5.499 11.977,5.577 12.458 C 6.057 15.380,8.564 17.503,11.565 17.527 C 13.421 17.541,15.146 16.818,16.498 15.456 C 18.293 13.649,18.922 11.012,18.153 8.510 C 17.433 6.165,15.605 4.271,13.279 3.462 C 12.820 3.302,12.150 3.140,11.707 3.081 C 11.248 3.021,10.194 2.999,9.780 3.042 " stroke="none" fill-rule="evenodd" fill="black"></path></svg>