<svg xmlns="http://www.w3.org/2000/svg" width="24" height="24" viewBox="0 0 24 24" fill="none" stroke="currentColor" stroke-width="2" stroke-linecap="round" stroke-linejoin="round"><path d="M2.670 2.061 C 2.448 2.142,2.250 2.309,2.128 2.516 C 2.036 2.672,2.020 2.745,2.021 3.000 C 2.021 3.213,2.043 3.341,2.095 3.440 C 2.136 3.517,2.653 4.067,3.246 4.662 L 4.323 5.745 4.126 5.969 C 3.194 7.034,2.502 8.405,2.200 9.783 C 1.352 13.659,3.274 17.751,6.900 19.791 C 7.856 20.328,9.133 20.746,10.380 20.927 C 10.933 21.008,12.427 20.995,13.020 20.905 C 14.567 20.669,16.080 20.094,17.311 19.274 C 17.471 19.167,17.615 19.080,17.631 19.080 C 17.647 19.080,18.263 19.684,19.000 20.423 C 19.737 21.161,20.421 21.814,20.520 21.873 C 20.673 21.964,20.746 21.980,21.000 21.980 C 21.257 21.980,21.327 21.964,21.492 21.867 C 21.968 21.587,22.139 20.967,21.865 20.508 C 21.810 20.416,17.665 16.243,12.653 11.235 C 4.231 2.820,3.525 2.125,3.343 2.065 C 3.107 1.987,2.874 1.986,2.670 2.061 M9.820 3.044 C 9.171 3.103,8.183 3.326,7.878 3.481 C 7.539 3.654,7.334 4.041,7.371 4.440 C 7.411 4.889,7.708 5.227,8.147 5.325 C 8.354 5.371,8.404 5.366,8.954 5.230 C 9.719 5.041,10.204 4.984,10.832 5.011 C 11.742 5.049,12.549 5.257,13.333 5.656 C 14.945 6.475,16.018 7.901,16.406 9.740 C 16.435 9.878,16.456 10.253,16.455 10.620 C 16.454 11.350,16.385 11.749,16.143 12.415 C 15.973 12.883,15.962 13.098,16.094 13.380 C 16.459 14.162,17.511 14.175,17.898 13.403 C 18.016 13.165,18.218 12.550,18.317 12.120 C 18.662 10.627,18.444 8.901,17.723 7.421 C 17.059 6.058,16.007 4.910,14.702 4.121 C 13.308 3.279,11.532 2.887,9.820 3.044 M11.353 6.656 C 10.595 6.860,10.384 7.827,10.982 8.354 C 11.077 8.437,11.233 8.529,11.328 8.557 C 11.809 8.699,12.382 9.118,12.634 9.511 C 12.701 9.615,12.813 9.851,12.884 10.037 C 13.093 10.586,13.413 10.847,13.879 10.850 C 14.279 10.852,14.604 10.641,14.785 10.260 C 14.901 10.013,14.905 9.808,14.796 9.458 C 14.401 8.177,13.253 7.048,11.956 6.663 C 11.708 6.589,11.605 6.588,11.353 6.656 M6.616 8.432 C 6.259 8.870,5.888 9.605,5.719 10.211 C 5.247 11.901,5.645 13.773,6.781 15.200 C 7.965 16.688,9.708 17.525,11.620 17.524 C 12.712 17.524,13.684 17.293,14.664 16.801 L 15.140 16.562 15.669 17.089 L 16.197 17.616 15.949 17.775 C 15.333 18.166,14.328 18.575,13.480 18.777 C 11.705 19.201,9.854 19.005,8.220 18.220 C 6.542 17.414,5.175 15.919,4.465 14.114 C 4.216 13.479,4.000 12.340,4.000 11.655 C 4.000 10.123,4.537 8.625,5.516 7.429 L 5.737 7.158 6.266 7.686 L 6.794 8.213 6.616 8.432 M9.548 11.172 C 9.212 11.372,9.040 11.645,9.011 12.019 C 8.994 12.241,9.006 12.287,9.163 12.600 C 9.297 12.866,9.409 13.015,9.679 13.285 C 9.969 13.576,10.084 13.659,10.402 13.812 C 10.610 13.912,10.888 14.017,11.020 14.045 C 11.348 14.114,12.046 14.107,12.325 14.031 L 12.551 13.970 13.103 14.523 L 13.655 15.076 13.467 15.157 C 12.901 15.399,12.279 15.525,11.640 15.525 C 10.679 15.525,9.841 15.249,9.095 14.686 C 8.385 14.151,7.868 13.390,7.632 12.531 C 7.517 12.112,7.508 11.229,7.615 10.840 C 7.704 10.519,7.910 10.067,8.081 9.818 L 8.210 9.631 8.943 10.363 L 9.676 11.095 9.548 11.172 M20.570 10.164 C 20.344 10.276,20.101 10.557,20.047 10.770 C 20.023 10.863,19.992 11.075,19.980 11.240 C 19.890 12.394,19.546 13.584,19.038 14.500 C 18.658 15.186,18.594 15.340,18.594 15.572 C 18.594 15.970,18.792 16.292,19.142 16.463 C 19.434 16.606,19.707 16.608,20.006 16.472 C 20.251 16.360,20.371 16.223,20.651 15.740 C 21.434 14.386,21.960 12.592,21.975 11.220 C 21.979 10.838,21.968 10.758,21.892 10.616 C 21.790 10.426,21.562 10.213,21.374 10.135 C 21.171 10.050,20.771 10.065,20.570 10.164 " stroke="none" fill-rule="evenodd" fill="black"></path></svg>