<svg xmlns="http://www.w3.org/2000/svg" width="24" height="24" viewBox="0 0 24 24" fill="none" stroke="currentColor" stroke-width="2" stroke-linecap="round" stroke-linejoin="round"><path d="M20.695 2.055 C 20.464 2.130,20.255 2.300,20.128 2.516 C 20.037 2.672,20.020 2.746,20.020 3.000 C 20.020 3.257,20.036 3.327,20.133 3.492 C 20.651 4.374,21.998 4.018,21.998 3.000 C 21.998 2.623,21.792 2.281,21.463 2.112 C 21.265 2.010,20.911 1.984,20.695 2.055 M6.477 4.073 C 5.806 4.249,5.238 4.823,5.060 5.508 C 5.011 5.693,5.000 6.059,5.000 7.441 L 5.000 9.145 4.670 9.313 C 3.922 9.693,3.365 10.354,3.114 11.160 L 3.020 11.460 3.020 15.500 L 3.020 19.540 3.114 19.840 C 3.422 20.827,4.173 21.578,5.160 21.886 L 5.460 21.980 8.000 21.980 L 10.540 21.980 10.840 21.886 C 11.807 21.585,12.543 20.861,12.875 19.887 L 12.980 19.580 12.980 15.520 L 12.980 11.460 12.886 11.160 C 12.635 10.354,12.078 9.693,11.330 9.313 L 11.000 9.145 11.000 8.577 L 11.000 8.009 11.179 7.982 C 11.422 7.946,11.712 7.742,11.859 7.503 C 11.966 7.329,11.980 7.271,11.980 7.003 C 11.980 6.745,11.964 6.672,11.871 6.514 C 11.731 6.277,11.485 6.096,11.223 6.037 L 11.017 5.991 10.968 5.687 C 10.905 5.287,10.743 4.952,10.471 4.659 C 10.198 4.366,9.872 4.164,9.523 4.073 C 9.134 3.972,6.866 3.972,6.477 4.073 M17.695 4.055 C 17.464 4.130,17.255 4.300,17.128 4.516 C 17.037 4.672,17.020 4.746,17.020 5.000 C 17.020 5.257,17.036 5.327,17.133 5.492 C 17.651 6.374,18.998 6.018,18.998 5.000 C 18.998 4.623,18.792 4.281,18.463 4.112 C 18.265 4.010,17.911 3.984,17.695 4.055 M9.000 7.500 L 9.000 9.000 8.000 9.000 L 7.000 9.000 7.000 7.500 L 7.000 6.000 8.000 6.000 L 9.000 6.000 9.000 7.500 M14.695 6.055 C 14.464 6.130,14.255 6.300,14.128 6.516 C 14.037 6.672,14.020 6.746,14.020 7.000 C 14.020 7.257,14.036 7.327,14.133 7.492 C 14.651 8.374,15.998 8.018,15.998 7.000 C 15.998 6.623,15.792 6.281,15.463 6.112 C 15.265 6.010,14.911 5.984,14.695 6.055 M20.695 6.055 C 20.464 6.130,20.255 6.300,20.128 6.516 C 20.037 6.672,20.020 6.746,20.020 7.000 C 20.020 7.257,20.036 7.327,20.133 7.492 C 20.651 8.374,21.998 8.018,21.998 7.000 C 21.998 6.623,21.792 6.281,21.463 6.112 C 21.265 6.010,20.911 5.984,20.695 6.055 M17.695 8.055 C 17.464 8.130,17.255 8.300,17.128 8.516 C 17.037 8.672,17.020 8.746,17.020 9.000 C 17.020 9.257,17.036 9.327,17.133 9.492 C 17.651 10.374,18.998 10.018,18.998 9.000 C 18.998 8.623,18.792 8.281,18.463 8.112 C 18.265 8.010,17.911 7.984,17.695 8.055 M20.695 10.055 C 20.464 10.130,20.255 10.300,20.128 10.516 C 20.037 10.672,20.020 10.746,20.020 11.000 C 20.020 11.257,20.036 11.327,20.133 11.492 C 20.651 12.374,21.998 12.018,21.998 11.000 C 21.998 10.623,21.792 10.281,21.463 10.112 C 21.265 10.010,20.911 9.984,20.695 10.055 M10.310 11.061 C 10.589 11.144,10.856 11.411,10.939 11.690 C 10.992 11.866,11.000 12.389,11.000 15.501 C 11.000 19.415,11.005 19.321,10.779 19.618 C 10.718 19.698,10.585 19.813,10.484 19.872 L 10.300 19.980 8.000 19.980 L 5.700 19.980 5.516 19.872 C 5.303 19.747,5.141 19.550,5.058 19.316 C 4.969 19.062,4.971 11.991,5.061 11.690 C 5.140 11.421,5.412 11.143,5.673 11.063 C 5.958 10.975,10.015 10.973,10.310 11.061 " stroke="none" fill-rule="evenodd" fill="black"></path></svg>