<svg xmlns="http://www.w3.org/2000/svg" width="24" height="24" viewBox="0 0 24 24" fill="none" stroke="currentColor" stroke-width="2" stroke-linecap="round" stroke-linejoin="round"><path d="M4.499 2.043 C 3.380 2.232,2.461 3.048,2.114 4.160 L 2.020 4.460 2.020 12.000 L 2.020 19.540 2.114 19.840 C 2.422 20.827,3.173 21.578,4.160 21.886 L 4.460 21.980 12.000 21.980 L 19.540 21.980 19.840 21.886 C 20.827 21.578,21.578 20.827,21.886 19.840 L 21.980 19.540 21.980 12.000 L 21.980 4.460 21.886 4.160 C 21.581 3.182,20.832 2.428,19.861 2.121 L 19.540 2.020 12.120 2.014 C 8.039 2.011,4.609 2.024,4.499 2.043 M19.310 4.061 C 19.589 4.144,19.856 4.411,19.939 4.690 C 19.993 4.870,20.000 5.755,20.000 12.001 C 20.000 17.907,19.991 19.138,19.945 19.290 C 19.872 19.533,19.707 19.740,19.484 19.872 L 19.300 19.980 12.000 19.980 L 4.700 19.980 4.516 19.872 C 4.415 19.813,4.284 19.700,4.225 19.623 C 3.986 19.309,4.000 19.795,4.000 12.022 C 4.000 5.758,4.007 4.870,4.061 4.690 C 4.140 4.421,4.412 4.143,4.673 4.063 C 4.964 3.974,19.009 3.971,19.310 4.061 M13.499 7.040 C 12.363 7.246,11.461 8.048,11.114 9.160 C 11.034 9.417,11.020 9.541,11.022 10.020 C 11.024 10.541,11.033 10.605,11.149 10.940 L 11.274 11.300 9.503 13.080 C 8.529 14.059,7.695 14.914,7.651 14.980 C 7.452 15.276,7.465 15.749,7.682 16.060 C 7.846 16.296,9.398 17.819,9.555 17.899 C 10.008 18.128,10.601 17.944,10.867 17.492 C 10.964 17.327,10.980 17.257,10.980 17.000 C 10.980 16.609,10.900 16.473,10.343 15.921 L 9.920 15.502 10.209 15.211 L 10.497 14.921 10.958 15.375 C 11.523 15.931,11.604 15.978,12.000 15.979 C 12.258 15.980,12.327 15.964,12.492 15.867 C 12.842 15.662,13.029 15.295,12.988 14.895 C 12.957 14.591,12.876 14.467,12.375 13.959 L 11.921 13.497 12.311 13.112 L 12.700 12.726 13.060 12.851 C 13.400 12.970,13.452 12.976,14.000 12.976 C 14.513 12.975,14.615 12.963,14.887 12.873 C 15.853 12.551,16.585 11.807,16.886 10.840 C 17.021 10.406,17.021 9.594,16.886 9.160 C 16.581 8.179,15.810 7.407,14.861 7.129 C 14.500 7.023,13.832 6.980,13.499 7.040 M14.310 9.061 C 14.688 9.173,15.000 9.598,15.000 10.001 C 15.000 10.331,14.784 10.696,14.484 10.872 C 14.328 10.963,14.254 10.980,14.000 10.980 C 13.746 10.980,13.672 10.963,13.516 10.872 C 12.935 10.530,12.833 9.774,13.304 9.303 C 13.583 9.024,13.916 8.944,14.310 9.061 " stroke="none" fill-rule="evenodd" fill="black"></path></svg>