<svg xmlns="http://www.w3.org/2000/svg" width="24" height="24" viewBox="0 0 24 24" fill="none" stroke="currentColor" stroke-width="2" stroke-linecap="round" stroke-linejoin="round"><path d="M10.349 2.044 C 7.535 2.178,5.738 2.713,4.406 3.814 C 3.787 4.326,3.247 5.075,2.885 5.924 C 2.566 6.671,2.342 7.527,2.205 8.520 C 2.051 9.633,2.021 10.208,2.021 12.000 C 2.021 13.792,2.051 14.367,2.205 15.480 C 2.744 19.396,4.610 21.251,8.560 21.800 C 9.623 21.948,10.220 21.979,12.000 21.979 C 13.780 21.979,14.377 21.948,15.440 21.800 C 16.241 21.689,16.753 21.574,17.401 21.361 C 20.018 20.502,21.344 18.717,21.800 15.440 C 21.948 14.377,21.979 13.780,21.979 12.000 C 21.979 10.220,21.948 9.623,21.800 8.560 C 21.494 6.357,20.759 4.778,19.594 3.814 C 18.657 3.040,17.469 2.539,15.960 2.283 C 14.520 2.039,12.378 1.947,10.349 2.044 M13.500 4.041 C 16.040 4.168,17.512 4.591,18.435 5.458 C 19.509 6.468,19.999 8.517,19.999 12.000 C 19.999 15.490,19.511 17.527,18.430 18.548 C 17.356 19.562,15.410 20.000,11.992 20.000 C 8.581 19.999,6.644 19.561,5.570 18.548 C 4.489 17.527,4.001 15.490,4.001 12.000 C 4.001 10.005,4.176 8.385,4.505 7.320 C 5.052 5.555,6.056 4.719,8.129 4.302 C 9.412 4.045,11.521 3.942,13.500 4.041 M8.670 8.061 C 8.448 8.142,8.250 8.309,8.128 8.516 C 8.036 8.672,8.020 8.745,8.021 9.000 C 8.021 9.212,8.043 9.341,8.095 9.440 C 8.196 9.632,11.296 12.739,11.520 12.873 C 11.672 12.964,11.746 12.980,12.000 12.980 C 12.254 12.980,12.328 12.964,12.480 12.873 C 12.704 12.739,15.804 9.632,15.905 9.440 C 15.957 9.341,15.979 9.212,15.979 9.000 C 15.980 8.745,15.964 8.672,15.872 8.516 C 15.618 8.084,15.137 7.905,14.657 8.066 C 14.484 8.124,14.312 8.279,13.230 9.354 L 12.000 10.576 10.770 9.354 C 9.688 8.279,9.516 8.124,9.343 8.066 C 9.108 7.987,8.875 7.985,8.670 8.061 M8.670 12.061 C 8.448 12.142,8.250 12.309,8.128 12.516 C 8.036 12.672,8.020 12.745,8.021 13.000 C 8.021 13.212,8.043 13.341,8.095 13.440 C 8.196 13.632,11.296 16.739,11.520 16.873 C 11.672 16.964,11.746 16.980,12.000 16.980 C 12.254 16.980,12.328 16.964,12.480 16.873 C 12.704 16.739,15.804 13.632,15.905 13.440 C 15.957 13.341,15.979 13.212,15.979 13.000 C 15.980 12.745,15.964 12.672,15.872 12.516 C 15.618 12.084,15.137 11.905,14.657 12.066 C 14.484 12.124,14.312 12.279,13.230 13.354 L 12.000 14.576 10.770 13.354 C 9.688 12.279,9.516 12.124,9.343 12.066 C 9.108 11.987,8.875 11.985,8.670 12.061 " stroke="none" fill-rule="evenodd" fill="black"></path></svg>