<svg xmlns="http://www.w3.org/2000/svg" width="24" height="24" viewBox="0 0 24 24" fill="none" stroke="currentColor" stroke-width="2" stroke-linecap="round" stroke-linejoin="round"><path d="M4.499 2.043 C 3.380 2.232,2.461 3.048,2.114 4.160 L 2.020 4.460 2.020 12.000 L 2.020 19.540 2.114 19.840 C 2.422 20.827,3.173 21.578,4.160 21.886 L 4.460 21.980 12.000 21.980 L 19.540 21.980 19.840 21.886 C 20.827 21.578,21.578 20.827,21.886 19.840 L 21.980 19.540 21.980 12.000 L 21.980 4.460 21.886 4.160 C 21.581 3.182,20.832 2.428,19.861 2.121 L 19.540 2.020 12.120 2.014 C 8.039 2.011,4.609 2.024,4.499 2.043 M11.000 12.001 L 11.000 20.002 7.850 19.991 L 4.700 19.980 4.516 19.872 C 4.415 19.813,4.284 19.700,4.225 19.623 C 3.986 19.309,4.000 19.795,4.000 12.022 C 4.000 4.005,3.975 4.631,4.304 4.303 C 4.613 3.994,4.464 4.006,7.930 4.003 L 11.000 4.000 11.000 12.001 M14.560 4.010 C 14.560 4.016,14.209 4.371,13.780 4.800 L 13.000 5.579 13.000 4.790 L 13.000 4.000 13.780 4.000 C 14.209 4.000,14.560 4.005,14.560 4.010 M19.310 4.061 C 19.453 4.103,19.571 4.178,19.698 4.304 C 19.798 4.404,19.880 4.500,19.880 4.518 C 19.880 4.535,19.754 4.540,19.600 4.529 C 19.067 4.491,19.285 4.306,15.970 7.614 L 13.000 10.579 13.000 9.499 L 13.000 8.420 14.883 6.540 C 15.918 5.506,16.808 4.588,16.860 4.500 C 16.913 4.412,16.968 4.264,16.983 4.170 L 17.010 4.000 18.058 4.000 C 18.879 4.000,19.150 4.013,19.310 4.061 M20.000 7.720 C 20.000 8.932,19.996 9.000,19.927 9.000 C 19.887 9.000,19.766 9.029,19.657 9.065 C 19.477 9.125,19.176 9.414,16.230 12.354 L 13.000 15.578 13.000 14.499 L 13.000 13.420 16.490 9.930 C 18.409 8.011,19.984 6.440,19.990 6.440 C 19.995 6.440,20.000 7.016,20.000 7.720 M20.000 12.720 C 20.000 13.932,19.996 14.000,19.927 14.000 C 19.887 14.000,19.766 14.029,19.657 14.065 C 19.478 14.124,19.217 14.372,16.847 16.735 C 15.410 18.168,14.191 19.412,14.139 19.500 C 14.087 19.588,14.032 19.737,14.017 19.830 L 13.990 20.000 13.495 20.000 L 13.000 20.000 13.000 19.210 L 13.000 18.420 16.490 14.930 C 18.409 13.011,19.984 11.440,19.990 11.440 C 19.995 11.440,20.000 12.016,20.000 12.720 M19.961 19.224 C 19.905 19.484,19.724 19.731,19.486 19.871 L 19.300 19.980 17.860 19.991 L 16.420 20.003 18.200 18.221 L 19.980 16.440 19.992 17.730 C 20.000 18.562,19.989 19.092,19.961 19.224 " stroke="none" fill-rule="evenodd" fill="black"></path></svg>