<svg xmlns="http://www.w3.org/2000/svg" width="24" height="24" viewBox="0 0 24 24" fill="none" stroke="currentColor" stroke-width="2" stroke-linecap="round" stroke-linejoin="round"><path d="M4.499 2.043 C 3.380 2.232,2.461 3.048,2.114 4.160 L 2.020 4.460 2.020 12.000 L 2.020 19.540 2.114 19.840 C 2.422 20.827,3.173 21.578,4.160 21.886 L 4.460 21.980 12.000 21.980 L 19.540 21.980 19.840 21.886 C 20.827 21.578,21.578 20.827,21.886 19.840 L 21.980 19.540 21.980 12.000 L 21.980 4.460 21.886 4.160 C 21.581 3.182,20.832 2.428,19.861 2.121 L 19.540 2.020 12.120 2.014 C 8.039 2.011,4.609 2.024,4.499 2.043 M19.310 4.061 C 19.589 4.144,19.856 4.411,19.939 4.690 C 19.993 4.870,20.000 5.755,20.000 12.001 C 20.000 17.907,19.991 19.138,19.945 19.290 C 19.872 19.533,19.707 19.740,19.484 19.872 L 19.300 19.980 12.000 19.980 L 4.700 19.980 4.516 19.872 C 4.415 19.813,4.284 19.700,4.225 19.623 C 3.986 19.309,4.000 19.795,4.000 12.022 C 4.000 5.758,4.007 4.870,4.061 4.690 C 4.140 4.421,4.412 4.143,4.673 4.063 C 4.964 3.974,19.009 3.971,19.310 4.061 M9.695 7.057 C 9.466 7.129,9.256 7.299,9.128 7.516 C 9.037 7.672,9.020 7.746,9.020 8.000 C 9.020 8.256,9.036 8.328,9.131 8.489 C 9.192 8.592,9.304 8.725,9.381 8.783 C 9.651 8.990,9.710 8.996,11.273 8.998 C 12.637 9.000,12.724 9.004,12.704 9.070 C 12.693 9.109,12.303 10.661,11.838 12.520 C 10.908 16.240,10.926 16.138,11.138 16.501 C 11.261 16.709,11.440 16.855,11.678 16.939 C 12.135 17.100,12.673 16.889,12.874 16.470 C 12.919 16.377,13.418 14.455,13.982 12.200 C 14.869 8.652,15.004 8.071,14.986 7.888 C 14.948 7.499,14.673 7.170,14.290 7.055 C 14.033 6.978,9.943 6.979,9.695 7.057 " stroke="none" fill-rule="evenodd" fill="black"></path></svg>