<svg xmlns="http://www.w3.org/2000/svg" width="24" height="24" viewBox="0 0 24 24" fill="none" stroke="currentColor" stroke-width="2" stroke-linecap="round" stroke-linejoin="round"><path d="M4.499 2.043 C 3.380 2.232,2.461 3.048,2.114 4.160 L 2.020 4.460 2.020 12.000 L 2.020 19.540 2.114 19.840 C 2.422 20.827,3.173 21.578,4.160 21.886 L 4.460 21.980 12.000 21.980 L 19.540 21.980 19.840 21.886 C 20.827 21.578,21.578 20.827,21.886 19.840 L 21.980 19.540 21.980 12.000 L 21.980 4.460 21.886 4.160 C 21.581 3.182,20.832 2.428,19.861 2.121 L 19.540 2.020 12.120 2.014 C 8.039 2.011,4.609 2.024,4.499 2.043 M19.310 4.061 C 19.589 4.144,19.856 4.411,19.939 4.690 C 19.993 4.870,20.000 5.755,20.000 12.001 C 20.000 17.907,19.991 19.138,19.945 19.290 C 19.872 19.533,19.707 19.740,19.484 19.872 L 19.300 19.980 12.000 19.980 L 4.700 19.980 4.516 19.872 C 4.415 19.813,4.284 19.700,4.225 19.623 C 3.986 19.309,4.000 19.795,4.000 12.022 C 4.000 5.758,4.007 4.870,4.061 4.690 C 4.140 4.421,4.412 4.143,4.673 4.063 C 4.964 3.974,19.009 3.971,19.310 4.061 M8.667 7.063 C 8.394 7.150,8.147 7.407,8.054 7.701 L 7.982 7.931 8.497 12.055 C 8.780 14.324,9.028 16.236,9.046 16.304 C 9.100 16.499,9.299 16.744,9.496 16.860 C 9.880 17.085,10.383 17.019,10.699 16.703 C 10.848 16.554,10.923 16.392,11.420 15.148 C 11.726 14.385,11.986 13.760,12.000 13.760 C 12.014 13.760,12.274 14.385,12.580 15.148 C 13.075 16.389,13.152 16.554,13.300 16.702 C 13.479 16.881,13.759 17.000,14.000 17.000 C 14.413 17.000,14.821 16.701,14.938 16.315 C 15.024 16.030,16.011 8.109,15.988 7.889 C 15.911 7.163,15.058 6.765,14.452 7.172 C 14.348 7.243,14.211 7.384,14.147 7.487 C 14.037 7.667,14.023 7.747,13.773 9.767 C 13.630 10.918,13.504 11.887,13.493 11.920 C 13.482 11.953,13.338 11.643,13.173 11.231 C 12.939 10.647,12.840 10.448,12.725 10.330 C 12.507 10.105,12.308 10.020,12.000 10.020 C 11.692 10.020,11.407 10.148,11.230 10.367 C 11.169 10.442,10.986 10.836,10.823 11.242 C 10.660 11.648,10.517 11.953,10.506 11.920 C 10.495 11.887,10.376 10.960,10.241 9.860 C 10.105 8.760,9.978 7.795,9.958 7.716 C 9.822 7.194,9.216 6.887,8.667 7.063 " stroke="none" fill-rule="evenodd" fill="black"></path></svg>