<svg xmlns="http://www.w3.org/2000/svg" width="24" height="24" viewBox="0 0 24 24" fill="none" stroke="currentColor" stroke-width="2" stroke-linecap="round" stroke-linejoin="round"><path d="M4.499 2.043 C 3.380 2.232,2.461 3.048,2.114 4.160 L 2.020 4.460 2.020 12.000 L 2.020 19.540 2.114 19.840 C 2.422 20.827,3.173 21.578,4.160 21.886 L 4.460 21.980 12.000 21.980 L 19.540 21.980 19.840 21.886 C 20.827 21.578,21.578 20.827,21.886 19.840 L 21.980 19.540 21.980 12.000 L 21.980 4.460 21.886 4.160 C 21.581 3.182,20.832 2.428,19.861 2.121 L 19.540 2.020 12.120 2.014 C 8.039 2.011,4.609 2.024,4.499 2.043 M19.310 4.061 C 19.589 4.144,19.856 4.411,19.939 4.690 C 19.993 4.870,20.000 5.755,20.000 12.001 C 20.000 17.907,19.991 19.138,19.945 19.290 C 19.872 19.533,19.707 19.740,19.484 19.872 L 19.300 19.980 12.000 19.980 L 4.700 19.980 4.516 19.872 C 4.415 19.813,4.284 19.700,4.225 19.623 C 3.986 19.309,4.000 19.795,4.000 12.022 C 4.000 5.758,4.007 4.870,4.061 4.690 C 4.140 4.421,4.412 4.143,4.673 4.063 C 4.964 3.974,19.009 3.971,19.310 4.061 M9.689 7.059 C 9.457 7.131,9.263 7.287,9.138 7.499 C 8.923 7.867,8.889 7.685,10.033 12.257 C 11.177 16.822,11.113 16.621,11.486 16.851 C 11.960 17.145,12.640 16.958,12.874 16.470 C 12.919 16.377,13.418 14.455,13.982 12.200 C 15.117 7.660,15.081 7.857,14.851 7.486 C 14.548 6.995,13.902 6.862,13.424 7.191 C 13.128 7.396,13.109 7.449,12.546 9.698 C 12.257 10.854,12.011 11.800,12.000 11.800 C 11.988 11.800,11.748 10.873,11.465 9.741 C 11.182 8.609,10.915 7.610,10.871 7.521 C 10.729 7.233,10.333 6.997,10.005 7.003 C 9.925 7.004,9.783 7.029,9.689 7.059 " stroke="none" fill-rule="evenodd" fill="black"></path></svg>