<svg xmlns="http://www.w3.org/2000/svg" width="24" height="24" viewBox="0 0 24 24" fill="none" stroke="currentColor" stroke-width="2" stroke-linecap="round" stroke-linejoin="round"><path d="M4.499 2.043 C 3.380 2.232,2.461 3.048,2.114 4.160 L 2.020 4.460 2.020 12.000 L 2.020 19.540 2.114 19.840 C 2.422 20.827,3.173 21.578,4.160 21.886 L 4.460 21.980 12.000 21.980 L 19.540 21.980 19.840 21.886 C 20.827 21.578,21.578 20.827,21.886 19.840 L 21.980 19.540 21.980 12.000 L 21.980 4.460 21.886 4.160 C 21.581 3.182,20.832 2.428,19.861 2.121 L 19.540 2.020 12.120 2.014 C 8.039 2.011,4.609 2.024,4.499 2.043 M19.310 4.061 C 19.589 4.144,19.856 4.411,19.939 4.690 C 19.993 4.870,20.000 5.755,20.000 12.001 C 20.000 17.907,19.991 19.138,19.945 19.290 C 19.872 19.533,19.707 19.740,19.484 19.872 L 19.300 19.980 12.000 19.980 L 4.700 19.980 4.516 19.872 C 4.415 19.813,4.284 19.700,4.225 19.623 C 3.986 19.309,4.000 19.795,4.000 12.022 C 4.000 5.758,4.007 4.870,4.061 4.690 C 4.140 4.421,4.412 4.143,4.673 4.063 C 4.964 3.974,19.009 3.971,19.310 4.061 M8.695 7.055 C 8.464 7.130,8.255 7.300,8.128 7.516 L 8.020 7.700 8.020 12.003 L 8.020 16.306 8.141 16.503 C 8.543 17.156,9.457 17.156,9.859 16.503 L 9.980 16.306 9.991 13.966 L 10.002 11.626 10.601 12.623 C 10.958 13.219,11.257 13.671,11.343 13.748 C 11.700 14.062,12.236 14.075,12.626 13.778 C 12.711 13.713,12.972 13.320,13.368 12.659 L 13.980 11.639 14.000 13.973 L 14.020 16.306 14.141 16.503 C 14.543 17.156,15.457 17.156,15.859 16.503 L 15.980 16.306 15.991 12.086 C 16.003 7.327,16.021 7.628,15.698 7.304 C 15.514 7.121,15.245 7.000,15.020 7.000 C 14.786 7.000,14.486 7.117,14.327 7.272 C 14.234 7.361,13.757 8.116,13.120 9.180 C 12.542 10.148,12.050 10.963,12.028 10.991 C 12.000 11.028,11.696 10.553,10.916 9.251 C 10.326 8.266,9.781 7.393,9.704 7.311 C 9.463 7.055,9.030 6.945,8.695 7.055 " stroke="none" fill-rule="evenodd" fill="black"></path></svg>