<svg xmlns="http://www.w3.org/2000/svg" width="24" height="24" viewBox="0 0 24 24" fill="none" stroke="currentColor" stroke-width="2" stroke-linecap="round" stroke-linejoin="round"><path d="M9.670 3.057 C 9.587 3.087,9.457 3.158,9.381 3.217 C 9.071 3.453,9.141 3.140,7.880 9.880 C 7.240 13.301,6.704 16.132,6.688 16.171 C 6.669 16.219,6.374 15.478,5.780 13.891 C 5.180 12.290,4.862 11.491,4.780 11.383 C 4.713 11.296,4.570 11.178,4.461 11.122 C 4.277 11.027,4.217 11.019,3.621 11.007 C 3.240 10.998,2.897 11.011,2.776 11.038 C 1.902 11.231,1.726 12.409,2.504 12.864 C 2.651 12.951,2.756 12.978,3.000 12.992 L 3.309 13.010 4.705 16.734 C 5.681 19.340,6.136 20.506,6.220 20.617 C 6.643 21.174,7.562 21.087,7.875 20.461 C 7.947 20.317,8.291 18.554,9.383 12.727 C 10.161 8.576,10.808 5.140,10.820 5.090 L 10.842 5.000 15.511 4.998 C 19.307 4.997,20.208 4.986,20.330 4.943 C 20.551 4.864,20.744 4.702,20.869 4.489 C 20.964 4.328,20.980 4.256,20.980 4.000 C 20.980 3.746,20.963 3.672,20.872 3.516 C 20.740 3.293,20.533 3.128,20.290 3.055 C 20.023 2.975,9.895 2.977,9.670 3.057 M12.695 11.055 C 12.464 11.130,12.255 11.300,12.128 11.516 C 12.037 11.672,12.020 11.746,12.020 12.000 C 12.020 12.256,12.036 12.328,12.131 12.489 C 12.256 12.702,12.449 12.864,12.670 12.943 C 12.768 12.978,13.022 12.997,13.405 12.998 L 13.989 13.000 14.078 13.210 C 14.127 13.325,14.327 13.859,14.523 14.396 L 14.878 15.373 14.704 15.616 C 14.088 16.479,13.341 17.307,12.887 17.631 C 12.586 17.846,12.235 17.998,12.036 17.999 C 11.195 18.005,10.713 18.921,11.198 19.591 C 11.478 19.977,11.952 20.087,12.622 19.921 C 13.623 19.673,14.492 19.038,15.587 17.753 L 15.712 17.607 15.801 17.853 C 16.302 19.234,16.710 19.732,17.508 19.940 C 17.812 20.020,19.110 20.021,19.330 19.943 C 19.551 19.864,19.744 19.702,19.869 19.489 C 19.964 19.328,19.980 19.256,19.980 19.000 C 19.980 18.746,19.963 18.672,19.872 18.516 C 19.634 18.111,19.352 18.000,18.557 18.000 L 18.006 18.000 17.846 17.590 C 17.758 17.364,17.570 16.856,17.427 16.460 C 17.285 16.064,17.157 15.713,17.144 15.679 C 17.100 15.574,17.960 14.476,18.538 13.899 C 19.240 13.200,19.480 13.064,20.169 12.979 C 20.421 12.948,20.706 12.751,20.859 12.503 C 20.966 12.329,20.980 12.271,20.980 12.003 C 20.980 11.745,20.964 11.672,20.871 11.514 C 20.654 11.146,20.261 10.966,19.787 11.017 C 18.725 11.132,17.672 11.789,16.647 12.976 L 16.288 13.392 16.199 13.146 C 15.755 11.912,15.358 11.377,14.693 11.117 C 14.483 11.035,14.381 11.024,13.660 11.013 C 13.070 11.004,12.817 11.015,12.695 11.055 " stroke="none" fill-rule="evenodd" fill="black"></path></svg>