<svg xmlns="http://www.w3.org/2000/svg" width="24" height="24" viewBox="0 0 24 24" fill="none" stroke="currentColor" stroke-width="2" stroke-linecap="round" stroke-linejoin="round"><path d="M10.349 2.044 C 7.535 2.178,5.738 2.713,4.406 3.814 C 3.787 4.326,3.247 5.075,2.885 5.924 C 2.566 6.671,2.342 7.527,2.205 8.520 C 2.051 9.633,2.021 10.208,2.021 12.000 C 2.021 13.792,2.051 14.367,2.205 15.480 C 2.744 19.396,4.610 21.251,8.560 21.800 C 9.623 21.948,10.220 21.979,12.000 21.979 C 13.780 21.979,14.377 21.948,15.440 21.800 C 16.241 21.689,16.753 21.574,17.401 21.361 C 20.018 20.502,21.344 18.717,21.800 15.440 C 21.948 14.377,21.979 13.780,21.979 12.000 C 21.979 10.220,21.948 9.623,21.800 8.560 C 21.494 6.357,20.759 4.778,19.594 3.814 C 18.657 3.040,17.469 2.539,15.960 2.283 C 14.520 2.039,12.378 1.947,10.349 2.044 M13.500 4.041 C 16.040 4.168,17.512 4.591,18.435 5.458 C 19.509 6.468,19.999 8.517,19.999 12.000 C 19.999 15.490,19.511 17.527,18.430 18.548 C 17.356 19.562,15.410 20.000,11.992 20.000 C 8.581 19.999,6.644 19.561,5.570 18.548 C 4.489 17.527,4.001 15.490,4.001 12.000 C 4.001 10.005,4.176 8.385,4.505 7.320 C 5.052 5.555,6.056 4.719,8.129 4.302 C 9.412 4.045,11.521 3.942,13.500 4.041 M10.477 7.073 C 9.602 7.302,8.948 8.183,9.010 9.050 C 9.054 9.662,9.568 10.074,10.175 9.983 C 10.554 9.926,10.926 9.554,10.983 9.175 L 11.009 9.000 12.005 9.000 L 13.000 9.000 13.000 10.000 L 13.000 11.000 11.946 11.000 C 10.797 11.000,10.644 11.022,10.382 11.221 C 10.302 11.282,10.187 11.415,10.128 11.516 C 10.037 11.672,10.020 11.746,10.020 12.000 C 10.020 12.256,10.036 12.328,10.131 12.489 C 10.192 12.592,10.304 12.725,10.381 12.783 C 10.643 12.983,10.738 12.996,11.910 12.998 L 13.000 13.000 13.000 14.000 L 13.000 15.000 12.005 15.000 L 11.010 15.000 10.983 14.830 C 10.869 14.117,9.995 13.771,9.405 14.205 C 8.945 14.544,8.873 15.235,9.225 15.929 C 9.361 16.199,9.800 16.638,10.070 16.775 C 10.479 16.982,10.632 17.000,12.000 17.000 C 13.368 17.000,13.521 16.982,13.930 16.775 C 14.196 16.640,14.638 16.200,14.771 15.937 C 14.989 15.508,15.006 15.349,14.992 13.905 C 14.980 12.624,14.976 12.572,14.885 12.340 C 14.768 12.040,14.768 11.959,14.885 11.660 C 14.977 11.428,14.980 11.378,14.992 10.115 C 15.005 8.695,14.983 8.480,14.782 8.083 C 14.551 7.628,14.022 7.203,13.523 7.073 C 13.134 6.972,10.866 6.972,10.477 7.073 " stroke="none" fill-rule="evenodd" fill="black"></path></svg>