<svg xmlns="http://www.w3.org/2000/svg" width="24" height="24" viewBox="0 0 24 24" fill="none" stroke="currentColor" stroke-width="2" stroke-linecap="round" stroke-linejoin="round"><path d="M2.670 2.061 C 2.448 2.142,2.250 2.309,2.128 2.516 C 2.036 2.672,2.020 2.745,2.021 3.000 C 2.021 3.212,2.043 3.341,2.095 3.440 C 2.135 3.517,2.945 4.358,3.893 5.310 L 5.618 7.039 4.215 8.450 C 3.443 9.225,2.736 9.958,2.643 10.078 C 2.204 10.643,1.962 11.454,2.012 12.192 C 2.063 12.940,2.327 13.572,2.820 14.131 C 2.980 14.312,4.657 16.002,6.546 17.886 C 10.095 21.426,10.201 21.524,10.740 21.749 C 11.164 21.927,11.437 21.976,12.000 21.977 C 12.443 21.978,12.597 21.961,12.857 21.887 C 13.217 21.784,13.659 21.573,13.898 21.390 C 13.987 21.321,14.713 20.617,15.510 19.824 L 16.961 18.382 18.690 20.107 C 19.642 21.055,20.483 21.865,20.560 21.905 C 20.659 21.957,20.788 21.979,21.000 21.979 C 21.258 21.980,21.327 21.964,21.492 21.867 C 21.968 21.587,22.139 20.967,21.865 20.508 C 21.810 20.416,17.665 16.243,12.653 11.235 C 4.231 2.820,3.525 2.125,3.343 2.065 C 3.107 1.987,2.874 1.986,2.670 2.061 M11.546 2.043 C 10.913 2.130,10.363 2.390,9.837 2.852 C 9.290 3.333,8.224 4.445,8.142 4.620 C 7.835 5.274,8.320 6.042,9.038 6.039 C 9.423 6.038,9.541 5.954,10.460 5.040 C 11.424 4.081,11.507 4.026,12.000 4.026 C 12.553 4.026,12.308 3.811,16.231 7.732 C 20.192 11.688,19.982 11.449,19.977 12.020 C 19.975 12.269,19.954 12.380,19.883 12.520 C 19.826 12.633,19.481 13.014,18.961 13.540 C 18.503 14.002,18.099 14.441,18.061 14.515 C 17.742 15.147,18.248 15.960,18.960 15.960 C 19.327 15.960,19.451 15.875,20.293 15.043 C 21.208 14.140,21.457 13.850,21.654 13.458 C 22.123 12.522,22.107 11.444,21.608 10.460 C 21.477 10.201,21.183 9.896,17.743 6.447 C 15.628 4.326,13.919 2.644,13.787 2.553 C 13.179 2.135,12.314 1.938,11.546 2.043 M11.300 12.720 L 15.540 16.960 14.120 18.381 C 13.157 19.344,12.644 19.829,12.527 19.886 C 12.286 20.003,11.912 20.026,11.617 19.942 L 11.380 19.874 7.809 16.307 C 3.823 12.326,4.020 12.550,4.023 12.000 C 4.025 11.480,4.027 11.477,5.611 9.890 C 6.385 9.115,7.028 8.480,7.039 8.480 C 7.051 8.480,8.968 10.388,11.300 12.720 " stroke="none" fill-rule="evenodd" fill="black"></path></svg>