<svg xmlns="http://www.w3.org/2000/svg" width="24" height="24" viewBox="0 0 24 24" fill="none" stroke="currentColor" stroke-width="2" stroke-linecap="round" stroke-linejoin="round"><path d="M5.499 3.043 C 4.379 3.234,3.461 4.048,3.114 5.160 L 3.020 5.460 3.020 10.000 L 3.020 14.540 3.114 14.840 C 3.419 15.818,4.166 16.570,5.140 16.882 C 5.379 16.958,5.536 16.974,6.205 16.990 L 6.991 17.009 7.010 17.795 C 7.026 18.466,7.042 18.620,7.119 18.860 C 7.312 19.459,7.655 19.958,8.140 20.347 C 8.459 20.603,8.752 20.758,9.161 20.886 L 9.460 20.980 14.000 20.980 L 18.540 20.980 18.840 20.886 C 19.827 20.578,20.578 19.827,20.886 18.840 L 20.980 18.540 20.980 14.000 L 20.980 9.460 20.886 9.161 C 20.637 8.369,20.125 7.743,19.400 7.347 C 18.939 7.095,18.640 7.033,17.775 7.011 L 17.009 6.991 16.990 6.205 C 16.974 5.536,16.958 5.379,16.882 5.140 C 16.573 4.174,15.823 3.425,14.861 3.121 L 14.540 3.020 10.120 3.014 C 7.689 3.011,5.609 3.024,5.499 3.043 M14.310 5.061 C 14.452 5.103,14.571 5.178,14.697 5.303 C 14.948 5.554,15.000 5.751,15.000 6.445 L 15.000 6.996 12.230 7.009 L 9.460 7.022 9.139 7.122 C 8.181 7.423,7.441 8.160,7.115 9.140 L 7.021 9.420 7.009 12.213 L 6.996 15.007 6.348 14.993 C 5.728 14.981,5.692 14.975,5.516 14.872 C 5.303 14.747,5.141 14.550,5.058 14.316 C 4.969 14.062,4.971 5.992,5.061 5.690 C 5.140 5.421,5.412 5.143,5.673 5.063 C 5.962 4.974,14.011 4.972,14.310 5.061 M10.560 10.540 L 9.020 12.080 9.009 10.993 C 8.997 9.703,9.016 9.590,9.303 9.303 C 9.584 9.022,9.675 9.006,10.980 9.003 L 12.100 9.000 10.560 10.540 M13.300 13.280 L 9.020 17.560 9.009 16.231 L 8.999 14.901 11.949 11.951 L 14.900 9.000 16.240 9.000 L 17.580 9.000 13.300 13.280 M16.051 16.049 L 13.100 19.000 11.760 19.000 L 10.420 19.000 14.700 14.720 L 18.980 10.440 18.991 11.769 L 19.001 13.099 16.051 16.049 M18.961 18.224 C 18.905 18.484,18.724 18.731,18.486 18.871 L 18.300 18.980 17.100 18.992 L 15.900 19.003 17.440 17.461 L 18.980 15.920 18.992 16.970 C 19.000 17.630,18.988 18.096,18.961 18.224 " stroke="none" fill-rule="evenodd" fill="black"></path></svg>