<svg xmlns="http://www.w3.org/2000/svg" width="24" height="24" viewBox="0 0 24 24" fill="none" stroke="currentColor" stroke-width="2" stroke-linecap="round" stroke-linejoin="round"><path d="M11.695 1.057 C 11.466 1.129,11.256 1.299,11.128 1.516 C 11.025 1.692,11.019 1.728,11.007 2.348 L 10.993 2.996 8.227 3.009 L 5.460 3.022 5.139 3.122 C 4.170 3.426,3.419 4.181,3.114 5.160 L 3.020 5.460 3.020 12.000 L 3.020 18.540 3.114 18.840 C 3.418 19.816,4.151 20.556,5.140 20.885 L 5.420 20.979 8.207 20.991 L 10.993 21.004 11.007 21.655 C 11.020 22.300,11.021 22.309,11.141 22.503 C 11.543 23.156,12.457 23.156,12.859 22.503 C 12.979 22.308,12.980 22.300,12.993 21.653 L 13.007 21.000 13.593 20.998 C 13.978 20.997,14.232 20.978,14.330 20.943 C 14.551 20.864,14.744 20.702,14.869 20.489 C 14.964 20.328,14.980 20.256,14.980 20.000 C 14.980 19.746,14.963 19.672,14.872 19.516 C 14.633 19.110,14.352 19.000,13.554 19.000 L 13.000 19.000 13.000 12.000 L 13.000 5.000 13.590 4.998 C 13.977 4.997,14.232 4.978,14.330 4.943 C 14.551 4.864,14.744 4.702,14.869 4.489 C 14.964 4.328,14.980 4.256,14.980 4.000 C 14.980 3.746,14.963 3.672,14.872 3.516 C 14.634 3.111,14.352 3.000,13.557 3.000 L 13.007 3.000 12.993 2.350 C 12.981 1.728,12.975 1.692,12.872 1.516 C 12.628 1.101,12.150 0.915,11.695 1.057 M17.695 3.054 C 17.048 3.267,16.799 4.040,17.198 4.591 C 17.369 4.827,17.608 4.953,17.972 4.999 C 18.355 5.048,18.509 5.112,18.699 5.301 C 18.889 5.491,18.952 5.645,19.001 6.031 C 19.049 6.410,19.184 6.647,19.452 6.828 C 19.923 7.144,20.554 6.998,20.859 6.503 C 20.974 6.315,20.980 6.285,20.978 5.883 C 20.977 5.559,20.955 5.390,20.885 5.160 C 20.586 4.184,19.809 3.404,18.863 3.130 C 18.463 3.015,17.922 2.979,17.695 3.054 M11.000 12.001 L 11.000 19.002 8.350 18.991 L 5.700 18.980 5.516 18.872 C 5.415 18.813,5.284 18.700,5.225 18.623 C 4.987 18.311,5.000 18.701,5.000 12.022 C 5.000 5.123,4.977 5.629,5.304 5.303 C 5.609 4.997,5.520 5.006,8.430 5.003 L 11.000 5.000 11.000 12.001 M19.695 9.057 C 19.466 9.129,19.256 9.299,19.128 9.516 L 19.020 9.700 19.020 12.003 L 19.020 14.306 19.141 14.503 C 19.209 14.613,19.346 14.756,19.452 14.828 C 19.923 15.144,20.554 14.999,20.859 14.503 L 20.980 14.306 20.980 12.003 L 20.980 9.700 20.872 9.516 C 20.628 9.101,20.150 8.915,19.695 9.057 M19.695 17.057 C 19.298 17.181,19.062 17.491,19.002 17.966 C 18.957 18.320,18.916 18.438,18.774 18.625 C 18.613 18.835,18.377 18.955,18.034 18.998 C 17.870 19.019,17.686 19.055,17.625 19.078 C 17.439 19.149,17.242 19.323,17.128 19.516 C 17.037 19.672,17.020 19.746,17.020 20.000 C 17.020 20.257,17.036 20.327,17.133 20.492 C 17.263 20.714,17.502 20.901,17.736 20.965 C 17.960 21.026,18.519 20.982,18.863 20.877 C 19.821 20.584,20.587 19.812,20.885 18.840 C 20.955 18.611,20.977 18.440,20.978 18.120 C 20.980 17.734,20.971 17.685,20.872 17.516 C 20.628 17.101,20.150 16.915,19.695 17.057 " stroke="none" fill-rule="evenodd" fill="black"></path></svg>