<svg xmlns="http://www.w3.org/2000/svg" width="24" height="24" viewBox="0 0 24 24" fill="none" stroke="currentColor" stroke-width="2" stroke-linecap="round" stroke-linejoin="round"><path d="M4.499 2.043 C 3.380 2.232,2.461 3.048,2.114 4.160 L 2.020 4.460 2.020 12.000 L 2.020 19.540 2.114 19.840 C 2.422 20.827,3.173 21.578,4.160 21.886 L 4.460 21.980 12.000 21.980 L 19.540 21.980 19.840 21.886 C 20.827 21.578,21.578 20.827,21.886 19.840 L 21.980 19.540 21.980 12.000 L 21.980 4.460 21.886 4.160 C 21.581 3.182,20.832 2.428,19.861 2.121 L 19.540 2.020 12.120 2.014 C 8.039 2.011,4.609 2.024,4.499 2.043 M19.310 4.061 C 19.589 4.144,19.856 4.411,19.939 4.690 C 19.993 4.870,20.000 5.755,20.000 12.001 C 20.000 17.907,19.991 19.138,19.945 19.290 C 19.872 19.533,19.707 19.740,19.484 19.872 L 19.300 19.980 12.000 19.980 L 4.700 19.980 4.516 19.872 C 4.415 19.813,4.284 19.700,4.225 19.623 C 3.986 19.309,4.000 19.795,4.000 12.022 C 4.000 5.758,4.007 4.870,4.061 4.690 C 4.140 4.421,4.412 4.143,4.673 4.063 C 4.964 3.974,19.009 3.971,19.310 4.061 M7.695 8.057 C 7.466 8.129,7.256 8.299,7.128 8.516 L 7.020 8.700 7.020 12.003 L 7.020 15.306 7.141 15.503 C 7.543 16.156,8.457 16.156,8.859 15.503 L 8.980 15.307 8.992 14.153 L 9.005 13.000 9.592 12.998 C 9.978 12.997,10.232 12.978,10.330 12.943 C 10.551 12.864,10.744 12.702,10.869 12.489 C 10.964 12.328,10.980 12.256,10.980 12.000 C 10.980 11.746,10.963 11.672,10.872 11.516 C 10.633 11.110,10.352 11.000,9.554 11.000 L 9.000 11.000 9.000 10.500 L 9.000 10.000 9.590 9.998 C 9.977 9.997,10.232 9.978,10.330 9.943 C 10.551 9.864,10.744 9.702,10.869 9.489 C 10.964 9.328,10.980 9.256,10.980 9.000 C 10.980 8.746,10.963 8.672,10.872 8.516 C 10.740 8.293,10.533 8.128,10.290 8.055 C 10.039 7.979,7.937 7.981,7.695 8.057 M13.360 8.056 C 12.910 8.156,12.467 8.481,12.230 8.887 C 12.035 9.219,12.000 9.464,12.000 10.500 C 12.000 11.765,12.069 12.025,12.522 12.478 C 12.952 12.909,13.259 13.000,14.276 13.000 L 15.000 13.000 15.000 13.500 L 15.000 14.000 14.483 14.000 L 13.966 14.000 13.923 13.869 C 13.868 13.701,13.632 13.458,13.423 13.351 C 13.199 13.237,12.801 13.237,12.577 13.351 C 12.086 13.602,11.904 14.077,12.063 14.693 C 12.143 15.001,12.281 15.237,12.522 15.478 C 12.975 15.931,13.235 16.000,14.500 16.000 C 15.765 16.000,16.025 15.931,16.478 15.478 C 16.719 15.237,16.857 15.001,16.937 14.693 C 17.031 14.327,17.031 9.673,16.937 9.307 C 16.772 8.673,16.224 8.162,15.581 8.044 C 15.260 7.984,13.641 7.993,13.360 8.056 M15.000 10.500 L 15.000 11.000 14.500 11.000 L 14.000 11.000 14.000 10.500 L 14.000 10.000 14.500 10.000 L 15.000 10.000 15.000 10.500 " stroke="none" fill-rule="evenodd" fill="black"></path></svg>