<svg xmlns="http://www.w3.org/2000/svg" width="24" height="24" viewBox="0 0 24 24" fill="none" stroke="currentColor" stroke-width="2" stroke-linecap="round" stroke-linejoin="round"><path d="M4.499 2.043 C 3.380 2.232,2.461 3.048,2.114 4.160 L 2.020 4.460 2.020 12.000 L 2.020 19.540 2.114 19.840 C 2.422 20.827,3.173 21.578,4.160 21.886 L 4.460 21.980 12.000 21.980 L 19.540 21.980 19.840 21.886 C 20.827 21.578,21.578 20.827,21.886 19.840 L 21.980 19.540 21.980 12.000 L 21.980 4.460 21.886 4.160 C 21.581 3.182,20.832 2.428,19.861 2.121 L 19.540 2.020 12.120 2.014 C 8.039 2.011,4.609 2.024,4.499 2.043 M19.310 4.061 C 19.589 4.144,19.856 4.411,19.939 4.690 C 19.993 4.870,20.000 5.755,20.000 12.001 C 20.000 17.907,19.991 19.138,19.945 19.290 C 19.872 19.533,19.707 19.740,19.484 19.872 L 19.300 19.980 12.000 19.980 L 4.700 19.980 4.516 19.872 C 4.415 19.813,4.284 19.700,4.225 19.623 C 3.986 19.309,4.000 19.795,4.000 12.022 C 4.000 5.758,4.007 4.870,4.061 4.690 C 4.140 4.421,4.412 4.143,4.673 4.063 C 4.964 3.974,19.009 3.971,19.310 4.061 M7.695 8.057 C 7.466 8.129,7.256 8.299,7.128 8.516 L 7.020 8.700 7.020 12.003 L 7.020 15.306 7.141 15.503 C 7.543 16.156,8.457 16.156,8.859 15.503 L 8.980 15.307 8.992 14.153 L 9.005 13.000 9.592 12.998 C 9.978 12.997,10.232 12.978,10.330 12.943 C 10.551 12.864,10.744 12.702,10.869 12.489 C 10.964 12.328,10.980 12.256,10.980 12.000 C 10.980 11.746,10.963 11.672,10.872 11.516 C 10.633 11.110,10.352 11.000,9.554 11.000 L 9.000 11.000 9.000 10.500 L 9.000 10.000 9.590 9.998 C 9.977 9.997,10.232 9.978,10.330 9.943 C 10.551 9.864,10.744 9.702,10.869 9.489 C 10.964 9.328,10.980 9.256,10.980 9.000 C 10.980 8.746,10.963 8.672,10.872 8.516 C 10.740 8.293,10.533 8.128,10.290 8.055 C 10.039 7.979,7.937 7.981,7.695 8.057 M12.695 8.057 C 12.466 8.129,12.256 8.299,12.128 8.516 C 12.037 8.672,12.020 8.746,12.020 9.000 C 12.020 9.256,12.036 9.328,12.131 9.489 C 12.192 9.592,12.304 9.725,12.381 9.783 C 12.643 9.983,12.738 9.996,13.910 9.998 L 15.000 10.000 15.000 10.500 L 15.000 11.000 14.370 11.002 C 13.410 11.006,13.002 11.150,12.535 11.653 C 12.091 12.131,12.000 12.446,12.000 13.500 C 12.000 14.587,12.101 14.909,12.596 15.404 C 12.882 15.690,13.148 15.847,13.508 15.940 C 13.822 16.022,16.102 16.024,16.330 15.943 C 16.551 15.864,16.744 15.702,16.869 15.489 C 16.964 15.328,16.980 15.256,16.980 15.000 C 16.980 14.746,16.963 14.672,16.872 14.516 C 16.813 14.415,16.698 14.282,16.618 14.221 C 16.356 14.022,16.203 14.000,15.054 14.000 L 14.000 14.000 14.000 13.500 L 14.000 13.000 14.624 13.000 C 15.568 13.000,15.929 12.879,16.404 12.404 C 16.895 11.913,17.000 11.579,16.999 10.514 C 16.999 9.716,16.954 9.424,16.781 9.083 C 16.646 8.816,16.297 8.449,16.017 8.281 C 15.603 8.031,15.412 8.005,14.060 8.005 C 13.191 8.005,12.814 8.020,12.695 8.057 " stroke="none" fill-rule="evenodd" fill="black"></path></svg>