<svg xmlns="http://www.w3.org/2000/svg" width="24" height="24" viewBox="0 0 24 24" fill="none" stroke="currentColor" stroke-width="2" stroke-linecap="round" stroke-linejoin="round"><path d="M4.499 2.043 C 3.380 2.232,2.461 3.048,2.114 4.160 L 2.020 4.460 2.020 12.000 L 2.020 19.540 2.114 19.840 C 2.422 20.827,3.173 21.578,4.160 21.886 L 4.460 21.980 12.000 21.980 L 19.540 21.980 19.840 21.886 C 20.827 21.578,21.578 20.827,21.886 19.840 L 21.980 19.540 21.980 12.000 L 21.980 4.460 21.886 4.160 C 21.581 3.182,20.832 2.428,19.861 2.121 L 19.540 2.020 12.120 2.014 C 8.039 2.011,4.609 2.024,4.499 2.043 M19.310 4.061 C 19.589 4.144,19.856 4.411,19.939 4.690 C 19.993 4.870,20.000 5.755,20.000 12.001 C 20.000 17.907,19.991 19.138,19.945 19.290 C 19.872 19.533,19.707 19.740,19.484 19.872 L 19.300 19.980 12.000 19.980 L 4.700 19.980 4.516 19.872 C 4.415 19.813,4.284 19.700,4.225 19.623 C 3.986 19.309,4.000 19.795,4.000 12.022 C 4.000 5.758,4.007 4.870,4.061 4.690 C 4.140 4.421,4.412 4.143,4.673 4.063 C 4.964 3.974,19.009 3.971,19.310 4.061 M10.477 7.073 C 9.806 7.249,9.238 7.823,9.060 8.508 C 9.013 8.687,9.000 9.009,9.000 10.000 C 9.000 11.368,9.018 11.521,9.225 11.930 C 9.361 12.199,9.801 12.639,10.070 12.775 C 10.472 12.979,10.642 13.000,11.868 13.000 L 13.000 13.000 13.000 14.000 L 13.000 15.000 12.005 15.000 L 11.010 15.000 10.983 14.830 C 10.869 14.117,9.995 13.771,9.405 14.205 C 8.945 14.544,8.873 15.235,9.225 15.929 C 9.361 16.199,9.800 16.638,10.070 16.775 C 10.479 16.982,10.632 17.000,12.000 17.000 C 13.368 17.000,13.521 16.982,13.930 16.775 C 14.196 16.640,14.638 16.200,14.771 15.937 C 14.979 15.527,15.000 15.352,14.999 14.014 C 14.999 12.682,14.974 12.463,14.781 12.083 C 14.646 11.816,14.297 11.449,14.017 11.281 C 13.609 11.035,13.405 11.005,12.130 11.002 L 11.000 11.000 11.000 10.000 L 11.000 9.000 11.995 9.000 L 12.991 9.000 13.017 9.175 C 13.053 9.417,13.243 9.699,13.465 9.839 C 14.102 10.243,14.930 9.826,14.988 9.072 C 15.011 8.775,14.927 8.370,14.782 8.083 C 14.551 7.628,14.022 7.203,13.523 7.073 C 13.134 6.972,10.866 6.972,10.477 7.073 " stroke="none" fill-rule="evenodd" fill="black"></path></svg>