<svg xmlns="http://www.w3.org/2000/svg" width="24" height="24" viewBox="0 0 24 24" fill="none" stroke="currentColor" stroke-width="2" stroke-linecap="round" stroke-linejoin="round"><path d="M10.349 2.044 C 7.535 2.178,5.738 2.713,4.406 3.814 C 3.787 4.326,3.247 5.075,2.885 5.924 C 2.566 6.671,2.342 7.527,2.205 8.520 C 2.051 9.633,2.021 10.208,2.021 12.000 C 2.021 13.792,2.051 14.367,2.205 15.480 C 2.749 19.428,4.654 21.293,8.680 21.818 C 9.519 21.928,10.088 21.964,11.369 21.988 C 12.527 22.010,12.654 22.006,12.825 21.940 C 13.232 21.785,13.488 21.423,13.488 21.003 C 13.488 20.615,13.293 20.295,12.940 20.108 C 12.790 20.028,12.699 20.021,11.520 19.995 C 9.470 19.950,8.394 19.824,7.333 19.504 C 5.072 18.823,4.231 17.289,4.041 13.500 C 3.945 11.570,4.039 9.502,4.284 8.200 C 4.451 7.314,4.786 6.450,5.174 5.906 C 6.009 4.739,7.584 4.187,10.500 4.041 C 12.495 3.941,14.576 4.043,15.871 4.302 C 18.206 4.771,19.229 5.794,19.698 8.129 C 20.012 9.694,20.090 12.537,19.877 14.626 C 19.838 15.006,19.841 15.103,19.894 15.287 C 20.063 15.868,20.700 16.174,21.240 15.933 C 21.467 15.832,21.742 15.535,21.796 15.334 C 21.986 14.626,22.061 11.181,21.921 9.620 C 21.696 7.112,21.159 5.531,20.125 4.333 C 19.244 3.311,17.783 2.592,15.960 2.283 C 14.520 2.039,12.378 1.947,10.349 2.044 M15.695 18.057 C 15.466 18.129,15.256 18.299,15.128 18.516 C 15.037 18.672,15.020 18.746,15.020 19.000 C 15.020 19.256,15.036 19.328,15.131 19.489 C 15.256 19.702,15.449 19.864,15.670 19.943 C 15.891 20.022,22.109 20.022,22.330 19.943 C 22.551 19.864,22.744 19.702,22.869 19.489 C 22.964 19.328,22.980 19.256,22.980 19.000 C 22.980 18.746,22.963 18.672,22.872 18.516 C 22.740 18.293,22.533 18.128,22.290 18.055 C 22.030 17.977,15.945 17.979,15.695 18.057 " stroke="none" fill-rule="evenodd" fill="black"></path></svg>