<svg xmlns="http://www.w3.org/2000/svg" width="24" height="24" viewBox="0 0 24 24" fill="none" stroke="currentColor" stroke-width="2" stroke-linecap="round" stroke-linejoin="round"><path d="M4.499 2.043 C 3.380 2.232,2.461 3.048,2.114 4.160 L 2.020 4.460 2.020 12.000 L 2.020 19.540 2.114 19.840 C 2.422 20.827,3.173 21.578,4.160 21.886 L 4.460 21.980 12.000 21.980 L 19.540 21.980 19.840 21.886 C 20.827 21.578,21.578 20.827,21.886 19.840 L 21.980 19.540 21.980 12.000 L 21.980 4.460 21.886 4.160 C 21.581 3.182,20.832 2.428,19.861 2.121 L 19.540 2.020 12.120 2.014 C 8.039 2.011,4.609 2.024,4.499 2.043 M19.310 4.061 C 19.589 4.144,19.856 4.411,19.939 4.690 C 19.993 4.870,20.000 5.755,20.000 12.001 C 20.000 17.907,19.991 19.138,19.945 19.290 C 19.872 19.533,19.707 19.740,19.484 19.872 L 19.300 19.980 12.000 19.980 L 4.700 19.980 4.516 19.872 C 4.415 19.813,4.284 19.700,4.225 19.623 C 3.986 19.309,4.000 19.795,4.000 12.022 C 4.000 5.758,4.007 4.870,4.061 4.690 C 4.140 4.421,4.412 4.143,4.673 4.063 C 4.964 3.974,19.009 3.971,19.310 4.061 M9.667 7.065 C 9.406 7.145,9.153 7.401,9.061 7.678 C 8.927 8.081,8.938 8.111,9.954 10.148 L 10.879 12.000 9.954 13.852 C 8.938 15.889,8.927 15.919,9.061 16.322 C 9.189 16.707,9.594 17.000,10.000 17.000 C 10.080 17.000,10.233 16.970,10.340 16.934 C 10.686 16.816,10.804 16.649,11.419 15.408 C 11.727 14.788,11.988 14.280,12.000 14.280 C 12.012 14.280,12.273 14.788,12.581 15.408 C 13.196 16.649,13.314 16.816,13.660 16.934 C 13.767 16.970,13.920 17.000,14.000 17.000 C 14.406 17.000,14.811 16.707,14.939 16.322 C 15.073 15.919,15.062 15.889,14.046 13.852 L 13.121 12.000 14.046 10.148 C 15.056 8.124,15.072 8.079,14.944 7.693 C 14.712 6.992,13.816 6.776,13.304 7.297 C 13.182 7.421,12.997 7.751,12.581 8.592 C 12.273 9.212,12.012 9.720,12.000 9.720 C 11.988 9.720,11.727 9.212,11.419 8.592 C 10.804 7.351,10.686 7.184,10.340 7.066 C 10.106 6.986,9.924 6.986,9.667 7.065 " stroke="none" fill-rule="evenodd" fill="black"></path></svg>