<svg xmlns="http://www.w3.org/2000/svg" width="24" height="24" viewBox="0 0 24 24" fill="none" stroke="currentColor" stroke-width="2" stroke-linecap="round" stroke-linejoin="round"><path d="M10.349 2.044 C 7.535 2.178,5.738 2.713,4.406 3.814 C 3.787 4.326,3.247 5.075,2.885 5.924 C 2.566 6.671,2.342 7.527,2.205 8.520 C 2.051 9.633,2.021 10.208,2.021 12.000 C 2.021 13.792,2.051 14.367,2.205 15.480 C 2.744 19.396,4.610 21.251,8.560 21.800 C 9.505 21.932,10.226 21.975,11.540 21.977 C 12.779 21.980,12.825 21.977,12.980 21.894 C 13.333 21.703,13.528 21.385,13.528 21.000 C 13.528 20.595,13.321 20.276,12.940 20.095 C 12.749 20.005,12.702 20.001,11.860 20.000 C 8.586 19.998,6.628 19.546,5.570 18.548 C 4.972 17.983,4.545 17.082,4.302 15.871 C 3.911 13.921,3.902 10.231,4.284 8.200 C 4.451 7.314,4.786 6.450,5.174 5.906 C 6.009 4.739,7.584 4.187,10.500 4.041 C 12.495 3.941,14.576 4.043,15.871 4.302 C 18.206 4.771,19.229 5.794,19.698 8.129 C 19.882 9.047,19.954 9.906,19.995 11.660 C 20.026 12.975,20.025 12.969,20.287 13.236 C 20.662 13.619,21.292 13.633,21.674 13.268 C 21.747 13.198,21.846 13.068,21.894 12.980 C 21.977 12.825,21.980 12.779,21.977 11.540 C 21.973 9.351,21.794 7.916,21.361 6.599 C 20.624 4.354,19.222 3.081,16.803 2.459 C 15.346 2.085,12.854 1.925,10.349 2.044 M18.695 15.057 C 18.466 15.129,18.256 15.299,18.128 15.516 L 18.020 15.700 18.008 16.850 L 17.995 18.000 16.944 18.000 C 15.797 18.000,15.643 18.022,15.382 18.221 C 15.302 18.282,15.187 18.415,15.128 18.516 C 15.037 18.672,15.020 18.746,15.020 19.000 C 15.020 19.256,15.036 19.328,15.131 19.489 C 15.192 19.592,15.304 19.725,15.381 19.783 C 15.642 19.983,15.738 19.996,16.908 19.998 L 17.995 20.000 18.008 21.153 L 18.020 22.307 18.141 22.503 C 18.543 23.156,19.457 23.156,19.859 22.503 L 19.980 22.307 19.992 21.153 L 20.005 20.000 21.092 19.998 C 22.262 19.996,22.358 19.983,22.619 19.783 C 22.696 19.725,22.808 19.592,22.869 19.489 C 22.964 19.328,22.980 19.256,22.980 19.000 C 22.980 18.746,22.963 18.672,22.872 18.516 C 22.813 18.415,22.698 18.282,22.618 18.221 C 22.357 18.022,22.203 18.000,21.056 18.000 L 20.005 18.000 19.992 16.850 L 19.980 15.700 19.872 15.516 C 19.628 15.101,19.150 14.915,18.695 15.057 " stroke="none" fill-rule="evenodd" fill="black"></path></svg>