<svg xmlns="http://www.w3.org/2000/svg" width="24" height="24" viewBox="0 0 24 24" fill="none" stroke="currentColor" stroke-width="2" stroke-linecap="round" stroke-linejoin="round"><path d="M4.499 2.043 C 3.380 2.232,2.461 3.048,2.114 4.160 L 2.020 4.460 2.020 12.000 L 2.020 19.540 2.114 19.840 C 2.422 20.827,3.173 21.578,4.160 21.886 L 4.460 21.980 12.000 21.980 L 19.540 21.980 19.840 21.886 C 20.827 21.578,21.578 20.827,21.886 19.840 L 21.980 19.540 21.980 12.000 L 21.980 4.460 21.886 4.160 C 21.581 3.182,20.832 2.428,19.861 2.121 L 19.540 2.020 12.120 2.014 C 8.039 2.011,4.609 2.024,4.499 2.043 M19.310 4.061 C 19.589 4.144,19.856 4.411,19.939 4.690 C 19.993 4.870,20.000 5.755,20.000 12.001 C 20.000 17.907,19.991 19.138,19.945 19.290 C 19.872 19.533,19.707 19.740,19.484 19.872 L 19.300 19.980 12.000 19.980 L 4.700 19.980 4.516 19.872 C 4.415 19.813,4.284 19.700,4.225 19.623 C 3.986 19.309,4.000 19.795,4.000 12.022 C 4.000 5.758,4.007 4.870,4.061 4.690 C 4.140 4.421,4.412 4.143,4.673 4.063 C 4.964 3.974,19.009 3.971,19.310 4.061 M9.695 7.057 C 9.466 7.129,9.256 7.299,9.128 7.516 L 9.020 7.700 9.020 12.003 L 9.020 16.306 9.141 16.503 C 9.543 17.156,10.457 17.156,10.859 16.503 L 10.980 16.306 10.992 14.653 L 11.003 13.000 12.092 12.998 C 13.262 12.996,13.358 12.983,13.619 12.783 C 13.696 12.725,13.808 12.592,13.869 12.489 C 13.964 12.328,13.980 12.256,13.980 12.000 C 13.980 11.746,13.963 11.672,13.872 11.516 C 13.813 11.415,13.698 11.282,13.618 11.221 C 13.356 11.022,13.203 11.000,12.054 11.000 L 11.000 11.000 11.000 10.000 L 11.000 9.000 12.590 8.998 C 14.300 8.996,14.346 8.991,14.619 8.783 C 14.696 8.725,14.808 8.592,14.869 8.489 C 14.964 8.328,14.980 8.256,14.980 8.000 C 14.980 7.746,14.963 7.672,14.872 7.516 C 14.740 7.293,14.533 7.128,14.290 7.055 C 14.033 6.978,9.943 6.979,9.695 7.057 " stroke="none" fill-rule="evenodd" fill="black"></path></svg>