<svg xmlns="http://www.w3.org/2000/svg" width="24" height="24" viewBox="0 0 24 24" fill="none" stroke="currentColor" stroke-width="2" stroke-linecap="round" stroke-linejoin="round"><path d="M4.499 2.043 C 3.380 2.232,2.461 3.048,2.114 4.160 L 2.020 4.460 2.020 12.000 L 2.020 19.540 2.114 19.840 C 2.422 20.827,3.173 21.578,4.160 21.886 L 4.460 21.980 12.000 21.980 L 19.540 21.980 19.840 21.886 C 20.827 21.578,21.578 20.827,21.886 19.840 L 21.980 19.540 21.980 12.000 L 21.980 4.460 21.886 4.160 C 21.581 3.182,20.832 2.428,19.861 2.121 L 19.540 2.020 12.120 2.014 C 8.039 2.011,4.609 2.024,4.499 2.043 M19.310 4.061 C 19.589 4.144,19.856 4.411,19.939 4.690 C 19.993 4.870,20.000 5.755,20.000 12.001 C 20.000 17.907,19.991 19.138,19.945 19.290 C 19.872 19.533,19.707 19.740,19.484 19.872 L 19.300 19.980 12.000 19.980 L 4.700 19.980 4.516 19.872 C 4.415 19.813,4.284 19.700,4.225 19.623 C 3.986 19.309,4.000 19.795,4.000 12.022 C 4.000 5.758,4.007 4.870,4.061 4.690 C 4.140 4.421,4.412 4.143,4.673 4.063 C 4.964 3.974,19.009 3.971,19.310 4.061 M7.695 8.057 C 7.466 8.129,7.256 8.299,7.128 8.516 L 7.020 8.700 7.020 12.003 L 7.020 15.306 7.141 15.503 C 7.543 16.156,8.457 16.156,8.859 15.503 L 8.980 15.307 8.992 14.153 L 9.005 13.000 9.592 12.998 C 9.978 12.997,10.232 12.978,10.330 12.943 C 10.551 12.864,10.744 12.702,10.869 12.489 C 10.964 12.328,10.980 12.256,10.980 12.000 C 10.980 11.746,10.963 11.672,10.872 11.516 C 10.633 11.110,10.352 11.000,9.554 11.000 L 9.000 11.000 9.000 10.500 L 9.000 10.000 9.590 9.998 C 9.977 9.997,10.232 9.978,10.330 9.943 C 10.551 9.864,10.744 9.702,10.869 9.489 C 10.964 9.328,10.980 9.256,10.980 9.000 C 10.980 8.746,10.963 8.672,10.872 8.516 C 10.740 8.293,10.533 8.128,10.290 8.055 C 10.039 7.979,7.937 7.981,7.695 8.057 M13.174 8.042 C 12.573 8.161,12.060 8.752,12.010 9.384 C 11.932 10.352,13.089 10.878,13.730 10.166 L 13.880 10.000 14.250 10.000 C 14.546 10.000,14.645 10.016,14.748 10.078 C 14.991 10.226,15.065 10.513,14.922 10.748 C 14.801 10.946,14.656 11.000,14.248 11.000 C 13.664 11.000,13.345 11.147,13.128 11.516 C 13.037 11.672,13.020 11.746,13.020 12.000 C 13.020 12.256,13.036 12.328,13.131 12.489 C 13.353 12.866,13.630 12.996,14.220 12.998 C 14.544 13.000,14.644 13.015,14.748 13.078 C 14.991 13.226,15.065 13.513,14.922 13.748 C 14.801 13.946,14.656 14.000,14.242 14.000 L 13.880 14.000 13.730 13.834 C 13.528 13.610,13.322 13.522,13.000 13.522 C 12.680 13.522,12.472 13.609,12.276 13.828 C 12.067 14.060,11.984 14.303,12.010 14.616 C 12.051 15.137,12.409 15.642,12.896 15.867 L 13.140 15.980 14.080 15.979 C 15.005 15.979,15.025 15.977,15.320 15.869 C 16.040 15.605,16.606 15.039,16.867 14.320 C 16.965 14.051,16.976 13.966,16.976 13.500 C 16.976 13.035,16.965 12.949,16.868 12.684 C 16.809 12.521,16.705 12.301,16.636 12.194 L 16.512 12.000 16.636 11.806 C 16.705 11.699,16.809 11.479,16.868 11.316 C 16.965 11.051,16.976 10.965,16.976 10.500 C 16.976 10.035,16.965 9.948,16.868 9.680 C 16.732 9.306,16.458 8.898,16.165 8.636 C 15.887 8.387,15.390 8.137,15.020 8.060 C 14.713 7.996,13.468 7.983,13.174 8.042 " stroke="none" fill-rule="evenodd" fill="black"></path></svg>