<svg xmlns="http://www.w3.org/2000/svg" width="24" height="24" viewBox="0 0 24 24" fill="none" stroke="currentColor" stroke-width="2" stroke-linecap="round" stroke-linejoin="round"><path d="M12.643 3.069 C 12.374 3.164,12.141 3.421,12.049 3.726 C 12.006 3.866,11.236 6.928,10.336 10.530 C 9.436 14.133,8.691 17.080,8.680 17.080 C 8.669 17.080,8.030 15.816,7.260 14.272 C 5.740 11.224,5.724 11.197,5.340 11.066 C 5.078 10.977,2.999 10.968,2.710 11.055 C 2.467 11.128,2.260 11.293,2.128 11.516 C 2.037 11.672,2.020 11.746,2.020 12.000 C 2.020 12.256,2.036 12.328,2.131 12.489 C 2.192 12.592,2.304 12.725,2.381 12.783 C 2.630 12.973,2.760 12.996,3.600 12.998 L 4.380 13.000 6.260 16.768 C 7.773 19.800,8.172 20.568,8.303 20.702 C 8.831 21.240,9.729 21.007,9.951 20.274 C 9.994 20.134,10.872 16.640,11.904 12.510 L 13.780 5.000 17.480 4.998 C 20.466 4.997,21.209 4.986,21.330 4.943 C 21.551 4.864,21.744 4.702,21.869 4.489 C 21.964 4.328,21.980 4.256,21.980 4.000 C 21.980 3.746,21.963 3.672,21.872 3.516 C 21.813 3.415,21.698 3.282,21.618 3.221 C 21.319 2.993,21.463 3.000,16.964 3.003 C 13.318 3.006,12.799 3.014,12.643 3.069 " stroke="none" fill-rule="evenodd" fill="black"></path></svg>