<svg xmlns="http://www.w3.org/2000/svg" width="24" height="24" viewBox="0 0 24 24" fill="none" stroke="currentColor" stroke-width="2" stroke-linecap="round" stroke-linejoin="round"><path d="M10.349 2.044 C 7.535 2.178,5.738 2.713,4.406 3.814 C 3.787 4.326,3.247 5.075,2.885 5.924 C 2.566 6.671,2.342 7.527,2.205 8.520 C 2.051 9.633,2.021 10.208,2.021 12.000 C 2.021 13.792,2.051 14.367,2.205 15.480 C 2.744 19.396,4.610 21.251,8.560 21.800 C 9.623 21.948,10.220 21.979,12.000 21.979 C 13.780 21.979,14.377 21.948,15.440 21.800 C 16.241 21.689,16.753 21.574,17.401 21.361 C 20.018 20.502,21.344 18.717,21.800 15.440 C 21.948 14.377,21.979 13.780,21.979 12.000 C 21.979 10.220,21.948 9.623,21.800 8.560 C 21.494 6.357,20.759 4.778,19.594 3.814 C 18.657 3.040,17.469 2.539,15.960 2.283 C 14.520 2.039,12.378 1.947,10.349 2.044 M13.500 4.041 C 16.040 4.168,17.512 4.591,18.435 5.458 C 19.509 6.468,19.999 8.517,19.999 12.000 C 19.999 15.490,19.511 17.527,18.430 18.548 C 17.356 19.562,15.410 20.000,11.992 20.000 C 8.581 19.999,6.644 19.561,5.570 18.548 C 4.489 17.527,4.001 15.490,4.001 12.000 C 4.001 10.005,4.176 8.385,4.505 7.320 C 5.052 5.555,6.056 4.719,8.129 4.302 C 9.412 4.045,11.521 3.942,13.500 4.041 M9.670 9.061 C 9.448 9.142,9.250 9.309,9.128 9.516 C 9.036 9.672,9.020 9.745,9.021 10.000 C 9.021 10.213,9.043 10.340,9.096 10.440 C 9.136 10.517,9.486 10.900,9.873 11.290 L 10.577 12.000 9.873 12.710 C 9.486 13.101,9.139 13.481,9.101 13.555 C 8.872 14.008,9.056 14.601,9.508 14.867 C 9.673 14.964,9.742 14.980,10.000 14.979 C 10.213 14.979,10.340 14.957,10.440 14.904 C 10.517 14.864,10.900 14.514,11.290 14.127 L 12.000 13.423 12.710 14.127 C 13.101 14.514,13.483 14.864,13.560 14.904 C 13.660 14.957,13.787 14.979,14.000 14.979 C 14.258 14.980,14.327 14.964,14.492 14.867 C 14.714 14.737,14.901 14.498,14.965 14.264 C 15.019 14.061,14.989 13.733,14.899 13.555 C 14.861 13.481,14.514 13.101,14.127 12.710 L 13.423 12.000 14.127 11.290 C 14.514 10.900,14.864 10.517,14.904 10.440 C 14.957 10.340,14.979 10.213,14.979 10.000 C 14.980 9.745,14.964 9.672,14.872 9.516 C 14.617 9.083,14.135 8.905,13.657 9.067 C 13.491 9.123,13.345 9.247,12.730 9.854 L 12.000 10.574 11.270 9.854 C 10.655 9.247,10.509 9.123,10.343 9.067 C 10.108 8.987,9.876 8.985,9.670 9.061 " stroke="none" fill-rule="evenodd" fill="black"></path></svg>