<svg xmlns="http://www.w3.org/2000/svg" width="24" height="24" viewBox="0 0 24 24" fill="none" stroke="currentColor" stroke-width="2" stroke-linecap="round" stroke-linejoin="round"><path d="M4.499 2.043 C 3.380 2.232,2.461 3.048,2.114 4.160 L 2.020 4.460 2.020 12.000 L 2.020 19.540 2.114 19.840 C 2.422 20.827,3.173 21.578,4.160 21.886 L 4.460 21.980 12.000 21.980 L 19.540 21.980 19.840 21.886 C 20.827 21.578,21.578 20.827,21.886 19.840 L 21.980 19.540 21.980 12.000 L 21.980 4.460 21.886 4.160 C 21.581 3.182,20.832 2.428,19.861 2.121 L 19.540 2.020 12.120 2.014 C 8.039 2.011,4.609 2.024,4.499 2.043 M19.310 4.061 C 19.589 4.144,19.856 4.411,19.939 4.690 C 19.993 4.870,20.000 5.755,20.000 12.001 C 20.000 17.907,19.991 19.138,19.945 19.290 C 19.872 19.533,19.707 19.740,19.484 19.872 L 19.300 19.980 12.000 19.980 L 4.700 19.980 4.516 19.872 C 4.415 19.813,4.284 19.700,4.225 19.623 C 3.986 19.309,4.000 19.795,4.000 12.022 C 4.000 5.758,4.007 4.870,4.061 4.690 C 4.140 4.421,4.412 4.143,4.673 4.063 C 4.964 3.974,19.009 3.971,19.310 4.061 M8.670 7.061 C 8.448 7.142,8.250 7.309,8.128 7.516 C 8.036 7.672,8.020 7.745,8.021 8.000 C 8.021 8.212,8.043 8.341,8.095 8.440 C 8.196 8.632,11.296 11.739,11.520 11.873 C 11.672 11.964,11.746 11.980,12.000 11.980 C 12.254 11.980,12.328 11.964,12.480 11.873 C 12.704 11.739,15.804 8.632,15.905 8.440 C 15.957 8.341,15.979 8.212,15.979 8.000 C 15.980 7.745,15.964 7.672,15.872 7.516 C 15.618 7.084,15.137 6.905,14.657 7.066 C 14.484 7.124,14.312 7.279,13.230 8.354 L 12.000 9.576 10.770 8.354 C 9.688 7.279,9.516 7.124,9.343 7.066 C 9.108 6.987,8.875 6.985,8.670 7.061 M8.670 12.061 C 8.448 12.142,8.250 12.309,8.128 12.516 C 8.036 12.672,8.020 12.745,8.021 13.000 C 8.021 13.212,8.043 13.341,8.095 13.440 C 8.196 13.632,11.296 16.739,11.520 16.873 C 11.672 16.964,11.746 16.980,12.000 16.980 C 12.254 16.980,12.328 16.964,12.480 16.873 C 12.704 16.739,15.804 13.632,15.905 13.440 C 15.957 13.341,15.979 13.212,15.979 13.000 C 15.980 12.745,15.964 12.672,15.872 12.516 C 15.618 12.084,15.137 11.905,14.657 12.066 C 14.484 12.124,14.312 12.279,13.230 13.354 L 12.000 14.576 10.770 13.354 C 9.688 12.279,9.516 12.124,9.343 12.066 C 9.108 11.987,8.875 11.985,8.670 12.061 " stroke="none" fill-rule="evenodd" fill="black"></path></svg>