<svg xmlns="http://www.w3.org/2000/svg" width="24" height="24" viewBox="0 0 24 24" fill="none" stroke="currentColor" stroke-width="2" stroke-linecap="round" stroke-linejoin="round"><path d="M4.499 2.043 C 3.380 2.232,2.461 3.048,2.114 4.160 L 2.020 4.460 2.020 12.000 L 2.020 19.540 2.114 19.840 C 2.422 20.827,3.173 21.578,4.160 21.886 L 4.460 21.980 12.000 21.980 L 19.540 21.980 19.840 21.886 C 20.827 21.578,21.578 20.827,21.886 19.840 L 21.980 19.540 21.980 12.000 L 21.980 4.460 21.886 4.160 C 21.581 3.182,20.832 2.428,19.861 2.121 L 19.540 2.020 12.120 2.014 C 8.039 2.011,4.609 2.024,4.499 2.043 M19.310 4.061 C 19.589 4.144,19.856 4.411,19.939 4.690 C 19.993 4.870,20.000 5.755,20.000 12.001 C 20.000 17.907,19.991 19.138,19.945 19.290 C 19.872 19.533,19.707 19.740,19.484 19.872 L 19.300 19.980 12.000 19.980 L 4.700 19.980 4.516 19.872 C 4.415 19.813,4.284 19.700,4.225 19.623 C 3.986 19.309,4.000 19.795,4.000 12.022 C 4.000 5.758,4.007 4.870,4.061 4.690 C 4.140 4.421,4.412 4.143,4.673 4.063 C 4.964 3.974,19.009 3.971,19.310 4.061 M11.640 7.069 C 11.492 7.121,11.265 7.325,10.347 8.236 C 9.734 8.843,9.185 9.421,9.127 9.520 C 9.037 9.672,9.020 9.747,9.020 10.000 C 9.020 10.257,9.036 10.327,9.133 10.492 C 9.340 10.844,9.705 11.029,10.112 10.987 C 10.360 10.962,10.595 10.834,10.820 10.601 L 10.980 10.436 11.000 13.371 L 11.020 16.306 11.141 16.503 C 11.543 17.156,12.457 17.156,12.859 16.503 L 12.980 16.306 12.991 12.086 C 13.003 7.327,13.021 7.628,12.698 7.304 C 12.412 7.018,12.030 6.933,11.640 7.069 " stroke="none" fill-rule="evenodd" fill="black"></path></svg>