<svg xmlns="http://www.w3.org/2000/svg" width="24" height="24" viewBox="0 0 24 24" fill="none" stroke="currentColor" stroke-width="2" stroke-linecap="round" stroke-linejoin="round"><path d="M4.499 2.043 C 3.380 2.232,2.461 3.048,2.114 4.160 L 2.020 4.460 2.020 12.000 L 2.020 19.540 2.114 19.840 C 2.422 20.827,3.173 21.578,4.160 21.886 L 4.460 21.980 12.000 21.980 L 19.540 21.980 19.840 21.886 C 20.827 21.578,21.578 20.827,21.886 19.840 L 21.980 19.540 21.980 12.000 L 21.980 4.460 21.886 4.160 C 21.581 3.182,20.832 2.428,19.861 2.121 L 19.540 2.020 12.120 2.014 C 8.039 2.011,4.609 2.024,4.499 2.043 M19.310 4.061 C 19.589 4.144,19.856 4.411,19.939 4.690 C 19.993 4.870,20.000 5.755,20.000 12.001 C 20.000 17.907,19.991 19.138,19.945 19.290 C 19.872 19.533,19.707 19.740,19.484 19.872 L 19.300 19.980 12.000 19.980 L 4.700 19.980 4.516 19.872 C 4.415 19.813,4.284 19.700,4.225 19.623 C 3.986 19.309,4.000 19.795,4.000 12.022 C 4.000 5.758,4.007 4.870,4.061 4.690 C 4.140 4.421,4.412 4.143,4.673 4.063 C 4.964 3.974,19.009 3.971,19.310 4.061 M9.695 7.057 C 9.466 7.129,9.256 7.299,9.128 7.516 C 9.037 7.672,9.020 7.746,9.020 8.000 C 9.020 8.256,9.036 8.328,9.131 8.489 C 9.192 8.592,9.304 8.725,9.381 8.783 C 9.654 8.991,9.700 8.996,11.410 8.998 L 13.000 9.000 13.000 10.000 L 13.000 11.000 11.870 11.002 C 10.936 11.004,10.694 11.017,10.477 11.073 C 9.806 11.249,9.238 11.823,9.060 12.508 C 8.973 12.839,8.973 15.161,9.060 15.492 C 9.153 15.852,9.310 16.118,9.596 16.404 C 9.882 16.690,10.148 16.847,10.508 16.940 C 10.826 17.023,14.099 17.025,14.330 16.943 C 14.551 16.864,14.744 16.702,14.869 16.489 C 14.964 16.328,14.980 16.256,14.980 16.000 C 14.980 15.746,14.963 15.672,14.872 15.516 C 14.813 15.415,14.698 15.282,14.618 15.221 C 14.342 15.011,14.242 15.000,12.554 15.000 L 11.000 15.000 11.000 14.000 L 11.000 13.000 12.132 13.000 C 13.358 13.000,13.528 12.979,13.930 12.775 C 14.196 12.640,14.638 12.200,14.771 11.937 C 14.979 11.527,15.000 11.352,14.999 10.014 C 14.999 8.682,14.974 8.463,14.781 8.083 C 14.646 7.816,14.297 7.449,14.017 7.281 C 13.580 7.018,13.463 7.005,11.560 7.005 C 10.283 7.005,9.819 7.018,9.695 7.057 " stroke="none" fill-rule="evenodd" fill="black"></path></svg>