<svg xmlns="http://www.w3.org/2000/svg" width="24" height="24" viewBox="0 0 24 24" fill="none" stroke="currentColor" stroke-width="2" stroke-linecap="round" stroke-linejoin="round"><path d="M4.499 2.043 C 3.380 2.232,2.461 3.048,2.114 4.160 L 2.020 4.460 2.020 12.000 L 2.020 19.540 2.114 19.840 C 2.422 20.827,3.173 21.578,4.160 21.886 L 4.460 21.980 12.000 21.980 L 19.540 21.980 19.840 21.886 C 20.827 21.578,21.578 20.827,21.886 19.840 L 21.980 19.540 21.980 12.000 L 21.980 4.460 21.886 4.160 C 21.581 3.182,20.832 2.428,19.861 2.121 L 19.540 2.020 12.120 2.014 C 8.039 2.011,4.609 2.024,4.499 2.043 M19.310 4.061 C 19.589 4.144,19.856 4.411,19.939 4.690 C 19.993 4.870,20.000 5.755,20.000 12.001 C 20.000 17.907,19.991 19.138,19.945 19.290 C 19.872 19.533,19.707 19.740,19.484 19.872 L 19.300 19.980 12.000 19.980 L 4.700 19.980 4.516 19.872 C 4.415 19.813,4.284 19.700,4.225 19.623 C 3.986 19.309,4.000 19.795,4.000 12.022 C 4.000 5.758,4.007 4.870,4.061 4.690 C 4.140 4.421,4.412 4.143,4.673 4.063 C 4.964 3.974,19.009 3.971,19.310 4.061 M9.695 7.057 C 9.466 7.129,9.256 7.299,9.128 7.516 L 9.020 7.700 9.020 12.003 L 9.020 16.306 9.141 16.503 C 9.543 17.156,10.457 17.156,10.859 16.503 L 10.980 16.306 10.993 14.283 L 11.006 12.260 12.098 14.439 C 13.279 16.795,13.287 16.807,13.671 16.938 C 14.043 17.064,14.426 16.976,14.702 16.700 C 15.020 16.382,15.003 16.669,14.991 11.918 L 14.980 7.700 14.871 7.514 C 14.479 6.848,13.521 6.848,13.129 7.514 L 13.020 7.700 13.007 9.720 L 12.994 11.740 11.902 9.561 C 10.721 7.205,10.713 7.193,10.329 7.062 C 10.111 6.988,9.920 6.987,9.695 7.057 " stroke="none" fill-rule="evenodd" fill="black"></path></svg>