<svg xmlns="http://www.w3.org/2000/svg" width="24" height="24" viewBox="0 0 24 24" fill="none" stroke="currentColor" stroke-width="2" stroke-linecap="round" stroke-linejoin="round"><path d="M4.499 2.043 C 3.380 2.232,2.461 3.048,2.114 4.160 L 2.020 4.460 2.020 12.000 L 2.020 19.540 2.114 19.840 C 2.422 20.827,3.173 21.578,4.160 21.886 L 4.460 21.980 12.000 21.980 L 19.540 21.980 19.840 21.886 C 20.827 21.578,21.578 20.827,21.886 19.840 L 21.980 19.540 21.980 12.000 L 21.980 4.460 21.886 4.160 C 21.581 3.182,20.832 2.428,19.861 2.121 L 19.540 2.020 12.120 2.014 C 8.039 2.011,4.609 2.024,4.499 2.043 M19.310 4.061 C 19.589 4.144,19.856 4.411,19.939 4.690 C 19.993 4.870,20.000 5.755,20.000 12.001 C 20.000 17.907,19.991 19.138,19.945 19.290 C 19.872 19.533,19.707 19.740,19.484 19.872 L 19.300 19.980 12.000 19.980 L 4.700 19.980 4.516 19.872 C 4.415 19.813,4.284 19.700,4.225 19.623 C 3.986 19.309,4.000 19.795,4.000 12.022 C 4.000 5.758,4.007 4.870,4.061 4.690 C 4.140 4.421,4.412 4.143,4.673 4.063 C 4.964 3.974,19.009 3.971,19.310 4.061 M14.675 8.095 C 14.596 8.124,14.479 8.185,14.415 8.231 C 14.185 8.398,8.166 14.464,8.101 14.595 C 7.918 14.960,8.002 15.435,8.302 15.736 C 8.588 16.022,8.949 16.105,9.343 15.975 C 9.523 15.916,9.814 15.636,12.706 12.745 C 15.718 9.733,15.874 9.570,15.941 9.365 C 16.196 8.572,15.447 7.820,14.675 8.095 M8.600 8.163 C 8.203 8.343,8.022 8.629,8.021 9.083 C 8.020 9.351,8.034 9.409,8.141 9.583 C 8.543 10.236,9.457 10.236,9.859 9.583 C 9.966 9.409,9.980 9.351,9.979 9.083 C 9.978 8.852,9.958 8.742,9.893 8.620 C 9.714 8.285,9.377 8.082,9.000 8.082 C 8.864 8.082,8.711 8.113,8.600 8.163 M14.726 14.124 C 14.137 14.303,13.838 14.956,14.095 15.500 C 14.278 15.886,14.581 16.080,15.000 16.080 C 15.419 16.080,15.722 15.886,15.905 15.500 C 16.199 14.878,15.765 14.150,15.067 14.098 C 14.953 14.090,14.800 14.101,14.726 14.124 " stroke="none" fill-rule="evenodd" fill="black"></path></svg>