<svg xmlns="http://www.w3.org/2000/svg" width="24" height="24" viewBox="0 0 24 24" fill="none" stroke="currentColor" stroke-width="2" stroke-linecap="round" stroke-linejoin="round"><path d="M11.680 3.055 C 11.603 3.085,9.713 4.023,7.480 5.139 C 4.214 6.772,3.392 7.199,3.275 7.321 C 2.908 7.705,2.918 8.324,3.298 8.697 C 3.432 8.829,4.258 9.256,7.593 10.920 L 11.722 12.980 12.000 12.980 L 12.278 12.980 16.407 10.920 C 19.742 9.256,20.568 8.829,20.702 8.697 C 21.092 8.314,21.092 7.686,20.702 7.303 C 20.568 7.171,19.743 6.744,16.413 5.083 C 12.549 3.155,12.275 3.025,12.055 3.014 C 11.923 3.007,11.759 3.025,11.680 3.055 M14.860 6.550 C 16.433 7.336,17.720 7.989,17.720 8.000 C 17.720 8.011,16.433 8.664,14.860 9.450 L 12.000 10.880 9.140 9.450 C 7.567 8.664,6.280 8.011,6.280 8.000 C 6.280 7.985,11.936 5.134,11.990 5.122 C 11.995 5.121,13.287 5.763,14.860 6.550 M3.643 11.066 C 3.288 11.197,3.000 11.615,3.000 12.000 C 3.000 12.243,3.119 12.521,3.298 12.697 C 3.432 12.829,4.258 13.256,7.593 14.920 L 11.722 16.980 12.000 16.980 L 12.278 16.980 16.407 14.920 C 19.742 13.256,20.568 12.829,20.702 12.697 C 20.881 12.521,21.000 12.243,21.000 12.000 C 21.000 11.427,20.471 10.950,19.905 11.013 C 19.739 11.031,18.976 11.397,15.850 12.957 L 12.000 14.880 8.150 12.956 C 4.559 11.162,4.284 11.032,4.060 11.017 C 3.903 11.007,3.759 11.024,3.643 11.066 M3.643 15.066 C 3.288 15.197,3.000 15.615,3.000 16.000 C 3.000 16.243,3.119 16.521,3.298 16.697 C 3.432 16.829,4.258 17.256,7.593 18.920 L 11.722 20.980 12.000 20.980 L 12.278 20.980 16.407 18.920 C 19.742 17.256,20.568 16.829,20.702 16.697 C 20.881 16.521,21.000 16.243,21.000 16.000 C 21.000 15.427,20.471 14.950,19.905 15.013 C 19.739 15.031,18.976 15.397,15.850 16.957 L 12.000 18.880 8.150 16.956 C 4.559 15.162,4.284 15.032,4.060 15.017 C 3.903 15.007,3.759 15.024,3.643 15.066 " stroke="none" fill-rule="evenodd" fill="black"></path></svg>