<svg xmlns="http://www.w3.org/2000/svg" width="24" height="24" viewBox="0 0 24 24" fill="none" stroke="currentColor" stroke-width="2" stroke-linecap="round" stroke-linejoin="round"><path d="M11.700 4.054 C 11.612 4.084,9.713 5.022,7.480 6.138 C 3.096 8.331,3.198 8.273,3.065 8.664 C 2.982 8.906,2.983 9.095,3.066 9.340 C 3.194 9.715,3.277 9.767,5.592 10.920 C 6.762 11.503,7.720 11.989,7.720 12.000 C 7.720 12.011,6.762 12.497,5.592 13.080 C 3.277 14.233,3.194 14.285,3.066 14.660 C 2.982 14.906,2.982 15.094,3.066 15.340 C 3.201 15.735,3.117 15.687,7.593 17.920 L 11.722 19.980 12.000 19.980 L 12.278 19.980 16.407 17.920 C 19.742 16.256,20.568 15.829,20.702 15.697 C 21.092 15.314,21.092 14.686,20.702 14.303 C 20.572 14.175,20.076 13.911,18.408 13.080 C 17.238 12.497,16.280 12.011,16.280 12.000 C 16.280 11.989,17.238 11.503,18.408 10.920 C 20.076 10.089,20.572 9.825,20.702 9.697 C 21.092 9.314,21.092 8.686,20.702 8.303 C 20.568 8.171,19.745 7.746,16.418 6.087 C 11.943 3.856,12.096 3.922,11.700 4.054 M14.860 7.550 C 16.433 8.336,17.720 8.989,17.720 9.000 C 17.720 9.011,16.433 9.664,14.860 10.450 L 12.000 11.880 9.140 10.450 C 7.567 9.664,6.280 9.011,6.280 9.000 C 6.280 8.985,11.936 6.134,11.990 6.122 C 11.995 6.121,13.287 6.763,14.860 7.550 " stroke="none" fill-rule="evenodd" fill="black"></path></svg>