<svg xmlns="http://www.w3.org/2000/svg" width="24" height="24" viewBox="0 0 24 24" fill="none" stroke="currentColor" stroke-width="2" stroke-linecap="round" stroke-linejoin="round"><path d="M11.580 3.096 C 11.424 3.171,11.029 3.545,9.774 4.806 C 8.891 5.694,8.135 6.483,8.095 6.560 C 8.043 6.659,8.021 6.788,8.021 7.000 C 8.020 7.258,8.036 7.327,8.133 7.492 C 8.263 7.714,8.502 7.901,8.736 7.965 C 8.939 8.019,9.267 7.989,9.445 7.899 C 9.519 7.861,9.899 7.514,10.289 7.128 L 10.998 6.425 11.009 8.866 L 11.020 11.306 11.141 11.503 C 11.543 12.156,12.457 12.156,12.859 11.503 L 12.980 11.306 12.991 8.866 L 13.002 6.425 13.711 7.128 C 14.101 7.514,14.483 7.864,14.560 7.904 C 14.660 7.957,14.787 7.979,15.000 7.979 C 15.258 7.980,15.327 7.964,15.492 7.867 C 15.714 7.737,15.901 7.498,15.965 7.264 C 16.019 7.061,15.989 6.733,15.899 6.555 C 15.862 6.481,15.109 5.694,14.226 4.806 C 12.971 3.545,12.576 3.171,12.420 3.096 C 12.151 2.968,11.849 2.968,11.580 3.096 M5.074 9.344 C 3.282 10.237,3.190 10.298,3.065 10.664 C 2.982 10.906,2.983 11.095,3.066 11.340 C 3.201 11.735,3.117 11.687,7.593 13.920 L 11.722 15.980 12.000 15.980 L 12.278 15.980 16.407 13.920 C 20.883 11.687,20.799 11.735,20.934 11.340 C 21.017 11.095,21.018 10.906,20.935 10.664 C 20.810 10.298,20.718 10.237,18.926 9.344 C 17.302 8.535,17.268 8.520,17.021 8.520 C 16.724 8.520,16.535 8.591,16.324 8.781 C 15.897 9.167,15.905 9.852,16.341 10.236 C 16.422 10.306,16.765 10.502,17.104 10.671 C 17.443 10.840,17.720 10.988,17.720 11.000 C 17.720 11.011,16.433 11.664,14.860 12.450 L 12.000 13.880 9.140 12.450 C 7.567 11.664,6.280 11.011,6.280 11.000 C 6.280 10.988,6.557 10.840,6.896 10.671 C 7.235 10.502,7.578 10.306,7.659 10.236 C 7.973 9.960,8.081 9.503,7.920 9.129 C 7.821 8.898,7.598 8.674,7.376 8.581 C 7.296 8.547,7.117 8.520,6.979 8.520 C 6.732 8.520,6.698 8.535,5.074 9.344 M3.643 14.066 C 3.288 14.197,3.000 14.615,3.000 15.000 C 3.000 15.243,3.119 15.521,3.298 15.697 C 3.432 15.829,4.258 16.256,7.593 17.920 L 11.722 19.980 12.000 19.980 L 12.278 19.980 16.407 17.920 C 19.742 16.256,20.568 15.829,20.702 15.697 C 20.881 15.521,21.000 15.243,21.000 15.000 C 21.000 14.427,20.471 13.950,19.905 14.013 C 19.739 14.031,18.976 14.397,15.850 15.957 L 12.000 17.880 8.150 15.956 C 4.559 14.162,4.284 14.032,4.060 14.017 C 3.903 14.007,3.759 14.024,3.643 14.066 " stroke="none" fill-rule="evenodd" fill="black"></path></svg>