<svg xmlns="http://www.w3.org/2000/svg" width="24" height="24" viewBox="0 0 24 24" fill="none" stroke="currentColor" stroke-width="2" stroke-linecap="round" stroke-linejoin="round"><path d="M11.700 3.054 C 11.612 3.084,9.713 4.022,7.480 5.138 C 3.096 7.331,3.198 7.273,3.065 7.664 C 2.982 7.906,2.983 8.095,3.066 8.340 C 3.184 8.686,3.351 8.804,4.592 9.419 C 5.212 9.727,5.720 9.988,5.720 10.000 C 5.720 10.012,5.212 10.273,4.592 10.581 C 3.351 11.196,3.184 11.314,3.066 11.660 C 2.982 11.906,2.982 12.094,3.066 12.340 C 3.184 12.686,3.351 12.804,4.592 13.419 C 5.212 13.727,5.720 13.988,5.720 14.000 C 5.720 14.012,5.212 14.273,4.592 14.581 C 3.351 15.196,3.184 15.314,3.066 15.660 C 2.982 15.906,2.982 16.094,3.066 16.340 C 3.201 16.735,3.117 16.687,7.593 18.920 L 11.722 20.980 12.000 20.980 L 12.278 20.980 16.407 18.920 C 20.883 16.687,20.799 16.735,20.934 16.340 C 21.018 16.094,21.018 15.906,20.934 15.660 C 20.816 15.314,20.649 15.196,19.408 14.581 C 18.788 14.273,18.280 14.012,18.280 14.000 C 18.280 13.988,18.788 13.727,19.408 13.419 C 20.649 12.804,20.816 12.686,20.934 12.340 C 21.018 12.094,21.018 11.906,20.934 11.660 C 20.816 11.314,20.649 11.196,19.408 10.581 C 18.788 10.273,18.280 10.012,18.280 10.000 C 18.280 9.988,18.788 9.727,19.408 9.419 C 20.246 9.004,20.579 8.818,20.702 8.697 C 21.092 8.314,21.092 7.686,20.702 7.303 C 20.568 7.171,19.745 6.746,16.418 5.087 C 11.943 2.856,12.096 2.922,11.700 3.054 M14.860 6.550 C 16.433 7.336,17.720 7.989,17.720 8.000 C 17.720 8.011,16.433 8.664,14.860 9.450 L 12.000 10.880 9.140 9.450 C 7.567 8.664,6.280 8.011,6.280 8.000 C 6.280 7.985,11.936 5.134,11.990 5.122 C 11.995 5.121,13.287 5.763,14.860 6.550 M9.861 16.050 L 11.724 16.980 12.000 16.980 L 12.276 16.980 14.138 16.050 L 16.001 15.121 16.860 15.550 C 17.333 15.786,17.720 15.988,17.720 16.000 C 17.720 16.011,16.433 16.664,14.860 17.450 L 12.000 18.880 9.140 17.450 C 7.567 16.664,6.280 16.011,6.280 16.000 C 6.280 15.985,7.932 15.137,7.989 15.122 C 7.994 15.121,8.837 15.538,9.861 16.050 " stroke="none" fill-rule="evenodd" fill="black"></path></svg>