<svg xmlns="http://www.w3.org/2000/svg" width="24" height="24" viewBox="0 0 24 24" fill="none" stroke="currentColor" stroke-width="2" stroke-linecap="round" stroke-linejoin="round"><path d="M5.580 2.096 C 5.424 2.171,5.029 2.545,3.774 3.806 C 2.891 4.694,2.135 5.483,2.095 5.560 C 2.043 5.659,2.021 5.788,2.021 6.000 C 2.020 6.258,2.036 6.327,2.133 6.492 C 2.263 6.714,2.502 6.901,2.736 6.965 C 2.939 7.019,3.267 6.989,3.445 6.899 C 3.519 6.861,3.899 6.514,4.289 6.128 L 4.998 5.425 5.009 7.866 L 5.020 10.306 5.141 10.503 C 5.543 11.156,6.457 11.156,6.859 10.503 L 6.980 10.306 6.991 7.866 L 7.002 5.425 7.711 6.128 C 8.101 6.514,8.483 6.864,8.560 6.904 C 8.660 6.957,8.787 6.979,9.000 6.979 C 9.258 6.980,9.327 6.964,9.492 6.867 C 9.714 6.737,9.901 6.498,9.965 6.264 C 10.019 6.061,9.989 5.733,9.899 5.555 C 9.862 5.481,9.109 4.694,8.226 3.806 C 6.971 2.545,6.576 2.171,6.420 2.096 C 6.151 1.968,5.849 1.968,5.580 2.096 M16.695 5.057 C 16.466 5.129,16.256 5.299,16.128 5.516 L 16.020 5.700 16.009 7.850 L 15.997 10.000 13.945 10.000 C 11.718 10.000,11.666 10.004,11.382 10.221 C 11.302 10.282,11.187 10.415,11.128 10.516 L 11.020 10.700 11.009 12.850 L 10.997 15.000 8.945 15.000 C 6.718 15.000,6.666 15.004,6.382 15.221 C 6.302 15.282,6.187 15.415,6.128 15.516 L 6.020 15.700 6.009 17.850 L 5.997 20.000 3.945 20.000 C 1.718 20.000,1.666 20.004,1.382 20.221 C 1.302 20.282,1.187 20.415,1.128 20.516 C 1.037 20.672,1.020 20.746,1.020 21.000 C 1.020 21.256,1.036 21.328,1.131 21.489 C 1.256 21.702,1.449 21.864,1.670 21.943 C 1.890 22.021,7.110 22.021,7.330 21.943 C 7.551 21.864,7.744 21.702,7.869 21.489 L 7.980 21.300 7.991 19.150 L 8.003 17.000 10.091 16.998 C 11.731 16.997,12.212 16.985,12.330 16.943 C 12.551 16.864,12.744 16.702,12.869 16.489 L 12.980 16.300 12.991 14.150 L 13.003 12.000 15.091 11.998 C 16.731 11.997,17.212 11.985,17.330 11.943 C 17.551 11.864,17.744 11.702,17.869 11.489 L 17.980 11.300 17.991 9.150 L 18.003 7.000 20.091 6.998 C 21.731 6.997,22.212 6.985,22.330 6.943 C 22.551 6.864,22.744 6.702,22.869 6.489 C 22.964 6.328,22.980 6.256,22.980 6.000 C 22.980 5.746,22.963 5.672,22.872 5.516 C 22.740 5.293,22.533 5.128,22.290 5.055 C 22.031 4.977,16.944 4.979,16.695 5.057 " stroke="none" fill-rule="evenodd" fill="black"></path></svg>