<svg xmlns="http://www.w3.org/2000/svg" width="24" height="24" viewBox="0 0 24 24" fill="none" stroke="currentColor" stroke-width="2" stroke-linecap="round" stroke-linejoin="round"><path d="M11.572 2.072 C 11.312 2.165,11.070 2.331,10.923 2.517 C 10.861 2.596,10.603 3.074,10.350 3.580 L 9.889 4.501 8.857 4.651 C 7.746 4.812,7.551 4.870,7.263 5.122 C 6.945 5.402,6.775 5.831,6.811 6.267 C 6.846 6.710,6.953 6.864,7.823 7.726 C 8.433 8.330,8.599 8.517,8.584 8.580 C 8.573 8.624,8.489 9.107,8.397 9.653 L 8.230 10.645 8.295 10.913 C 8.462 11.595,9.070 12.044,9.752 11.989 C 10.021 11.968,10.239 11.871,11.530 11.198 L 12.000 10.953 12.470 11.198 C 13.761 11.871,13.979 11.968,14.248 11.989 C 14.924 12.043,15.533 11.598,15.703 10.925 C 15.776 10.635,15.780 10.680,15.557 9.400 L 15.400 8.500 16.179 7.726 C 17.044 6.867,17.144 6.722,17.186 6.276 C 17.227 5.835,17.060 5.406,16.737 5.122 C 16.449 4.870,16.254 4.812,15.143 4.651 L 14.111 4.501 13.634 3.548 C 13.105 2.491,12.973 2.315,12.570 2.130 C 12.269 1.992,11.862 1.969,11.572 2.072 M12.309 5.376 C 12.467 5.693,12.651 6.015,12.718 6.091 C 12.899 6.298,13.148 6.384,13.853 6.484 L 14.485 6.574 13.987 7.077 C 13.712 7.354,13.461 7.634,13.428 7.701 C 13.311 7.935,13.309 8.155,13.417 8.773 C 13.474 9.098,13.520 9.391,13.520 9.424 C 13.520 9.466,13.337 9.389,12.899 9.162 C 12.297 8.850,12.270 8.840,12.000 8.840 C 11.730 8.840,11.703 8.850,11.101 9.162 C 10.613 9.415,10.480 9.469,10.480 9.415 C 10.480 9.378,10.526 9.085,10.583 8.765 C 10.692 8.156,10.689 7.935,10.572 7.701 C 10.539 7.634,10.288 7.354,10.013 7.077 L 9.515 6.574 10.147 6.484 C 10.852 6.384,11.101 6.298,11.282 6.091 C 11.349 6.015,11.533 5.693,11.691 5.376 C 11.849 5.059,11.988 4.800,12.000 4.800 C 12.012 4.800,12.151 5.059,12.309 5.376 M5.772 12.072 C 5.512 12.165,5.270 12.331,5.123 12.517 C 5.061 12.596,4.803 13.074,4.550 13.580 L 4.089 14.501 3.057 14.651 C 1.946 14.812,1.751 14.870,1.463 15.122 C 1.145 15.402,0.975 15.831,1.011 16.267 C 1.046 16.710,1.153 16.864,2.023 17.726 C 2.633 18.330,2.799 18.517,2.784 18.580 C 2.773 18.624,2.689 19.107,2.597 19.653 L 2.430 20.645 2.495 20.913 C 2.662 21.595,3.270 22.044,3.952 21.989 C 4.221 21.968,4.439 21.871,5.730 21.198 L 6.200 20.953 6.670 21.198 C 7.961 21.871,8.179 21.968,8.448 21.989 C 9.124 22.043,9.733 21.598,9.903 20.925 C 9.976 20.635,9.980 20.680,9.757 19.400 L 9.600 18.500 10.379 17.726 C 11.244 16.867,11.344 16.722,11.386 16.276 C 11.427 15.835,11.260 15.406,10.937 15.122 C 10.649 14.870,10.454 14.812,9.343 14.651 L 8.311 14.501 7.834 13.548 C 7.305 12.491,7.173 12.315,6.770 12.130 C 6.469 11.992,6.062 11.969,5.772 12.072 M17.372 12.072 C 17.112 12.165,16.870 12.331,16.723 12.517 C 16.661 12.596,16.403 13.074,16.150 13.580 L 15.689 14.501 14.657 14.651 C 13.546 14.812,13.351 14.870,13.063 15.122 C 12.745 15.402,12.575 15.831,12.611 16.267 C 12.646 16.710,12.753 16.864,13.623 17.726 C 14.233 18.330,14.399 18.517,14.384 18.580 C 14.373 18.624,14.289 19.107,14.197 19.653 L 14.030 20.645 14.095 20.913 C 14.262 21.595,14.870 22.044,15.552 21.989 C 15.821 21.968,16.039 21.871,17.330 21.198 L 17.800 20.953 18.270 21.198 C 19.561 21.871,19.779 21.968,20.048 21.989 C 20.724 22.043,21.333 21.598,21.503 20.925 C 21.576 20.635,21.580 20.680,21.357 19.400 L 21.200 18.500 21.979 17.726 C 22.844 16.867,22.944 16.722,22.986 16.276 C 23.027 15.835,22.860 15.406,22.537 15.122 C 22.249 14.870,22.054 14.812,20.943 14.651 L 19.911 14.501 19.434 13.548 C 18.905 12.491,18.773 12.315,18.370 12.130 C 18.069 11.992,17.662 11.969,17.372 12.072 M6.509 15.376 C 6.667 15.693,6.851 16.015,6.918 16.091 C 7.099 16.298,7.348 16.384,8.053 16.484 L 8.685 16.574 8.187 17.077 C 7.912 17.354,7.661 17.634,7.628 17.701 C 7.511 17.935,7.509 18.155,7.617 18.773 C 7.674 19.098,7.720 19.391,7.720 19.424 C 7.720 19.466,7.537 19.389,7.099 19.162 C 6.497 18.850,6.470 18.840,6.200 18.840 C 5.930 18.840,5.903 18.850,5.301 19.162 C 4.813 19.415,4.680 19.469,4.680 19.415 C 4.680 19.378,4.726 19.085,4.783 18.765 C 4.892 18.156,4.889 17.935,4.772 17.701 C 4.739 17.634,4.488 17.354,4.213 17.077 L 3.715 16.574 4.347 16.484 C 5.052 16.384,5.301 16.298,5.482 16.091 C 5.549 16.015,5.733 15.693,5.891 15.376 C 6.049 15.059,6.188 14.800,6.200 14.800 C 6.212 14.800,6.351 15.059,6.509 15.376 M18.109 15.376 C 18.267 15.693,18.451 16.015,18.518 16.091 C 18.699 16.298,18.948 16.384,19.653 16.484 L 20.285 16.574 19.787 17.077 C 19.512 17.354,19.261 17.634,19.228 17.701 C 19.111 17.935,19.109 18.155,19.217 18.773 C 19.274 19.098,19.320 19.391,19.320 19.424 C 19.320 19.466,19.137 19.389,18.699 19.162 C 18.097 18.850,18.070 18.840,17.800 18.840 C 17.530 18.840,17.503 18.850,16.901 19.162 C 16.413 19.415,16.280 19.469,16.280 19.415 C 16.280 19.378,16.326 19.085,16.383 18.765 C 16.492 18.156,16.489 17.935,16.372 17.701 C 16.339 17.634,16.088 17.354,15.813 17.077 L 15.315 16.574 15.947 16.484 C 16.652 16.384,16.901 16.298,17.082 16.091 C 17.149 16.015,17.333 15.693,17.491 15.376 C 17.649 15.059,17.788 14.800,17.800 14.800 C 17.812 14.800,17.951 15.059,18.109 15.376 " stroke="none" fill-rule="evenodd" fill="black"></path></svg>