<svg xmlns="http://www.w3.org/2000/svg" width="24" height="24" viewBox="0 0 24 24" fill="none" stroke="currentColor" stroke-width="2" stroke-linecap="round" stroke-linejoin="round"><path d="M11.659 1.061 C 11.271 1.205,11.268 1.208,10.128 3.518 C 9.510 4.771,9.055 5.741,9.030 5.859 C 8.943 6.275,9.196 6.742,9.602 6.917 C 9.994 7.086,10.452 7.002,10.725 6.712 C 10.796 6.637,11.097 6.079,11.421 5.422 L 11.991 4.263 13.095 6.497 C 13.702 7.726,14.246 8.793,14.303 8.867 C 14.464 9.078,14.676 9.190,15.046 9.256 C 15.230 9.289,16.343 9.454,17.520 9.621 C 18.697 9.788,19.692 9.938,19.732 9.953 C 19.790 9.976,19.512 10.265,18.299 11.441 C 17.422 12.291,16.749 12.975,16.687 13.080 C 16.597 13.232,16.580 13.307,16.580 13.560 C 16.580 13.816,16.596 13.888,16.691 14.049 C 16.945 14.481,17.424 14.656,17.903 14.493 C 18.065 14.438,18.211 14.318,18.720 13.821 C 19.061 13.489,20.051 12.527,20.920 11.684 C 21.789 10.841,22.570 10.077,22.656 9.986 C 22.868 9.760,22.964 9.530,22.965 9.245 C 22.967 8.845,22.750 8.514,22.379 8.350 C 22.276 8.305,21.089 8.116,19.040 7.820 C 17.291 7.567,15.837 7.360,15.808 7.360 C 15.765 7.360,14.128 4.107,13.080 1.940 C 12.837 1.438,12.661 1.217,12.411 1.098 C 12.216 1.006,11.857 0.988,11.659 1.061 M2.670 2.061 C 2.448 2.142,2.250 2.309,2.128 2.516 C 2.036 2.672,2.020 2.745,2.021 3.000 C 2.021 3.212,2.043 3.341,2.095 3.440 C 2.135 3.517,3.077 4.491,4.188 5.605 L 6.208 7.630 6.074 7.654 C 6.000 7.668,4.996 7.815,3.842 7.982 C 2.688 8.149,1.688 8.309,1.619 8.338 C 1.133 8.541,0.890 9.109,1.077 9.606 C 1.158 9.818,1.303 9.968,3.541 12.144 C 4.850 13.416,5.920 14.473,5.920 14.493 C 5.920 14.513,5.677 15.946,5.380 17.677 C 5.083 19.409,4.840 20.914,4.840 21.023 C 4.841 21.578,5.373 22.052,5.922 21.987 C 6.152 21.960,6.058 22.007,9.350 20.275 L 11.999 18.882 14.884 20.403 C 16.579 21.296,17.850 21.942,17.964 21.968 C 18.463 22.084,18.986 21.751,19.125 21.231 C 19.161 21.097,19.164 20.977,19.135 20.783 L 19.095 20.518 19.758 21.174 C 20.122 21.535,20.483 21.864,20.560 21.904 C 20.660 21.957,20.786 21.979,21.000 21.979 C 21.258 21.980,21.327 21.964,21.492 21.867 C 21.968 21.587,22.139 20.967,21.865 20.508 C 21.810 20.416,17.665 16.243,12.653 11.235 C 4.231 2.820,3.525 2.125,3.343 2.065 C 3.107 1.987,2.874 1.986,2.670 2.061 M12.308 13.730 L 16.636 18.060 16.733 18.612 C 16.786 18.915,16.817 19.158,16.802 19.152 C 16.787 19.145,15.767 18.609,14.537 17.960 L 12.300 16.780 12.000 16.780 L 11.700 16.780 9.441 17.968 C 8.199 18.621,7.178 19.151,7.173 19.146 C 7.168 19.141,7.353 18.040,7.584 16.698 C 8.037 14.071,8.049 13.949,7.878 13.645 C 7.828 13.557,6.991 12.709,5.992 11.738 C 5.005 10.777,4.207 9.980,4.220 9.967 C 4.238 9.949,7.684 9.425,7.920 9.405 C 7.953 9.402,9.928 11.348,12.308 13.730 " stroke="none" fill-rule="evenodd" fill="black"></path></svg>