<svg xmlns="http://www.w3.org/2000/svg" width="24" height="24" viewBox="0 0 24 24" fill="none" stroke="currentColor" stroke-width="2" stroke-linecap="round" stroke-linejoin="round"><path d="M11.652 1.063 C 11.263 1.207,11.279 1.181,9.700 4.380 L 8.239 7.340 5.029 7.807 C 3.264 8.064,1.756 8.293,1.678 8.316 C 1.600 8.339,1.460 8.424,1.367 8.503 C 1.033 8.789,0.925 9.201,1.077 9.606 C 1.158 9.818,1.303 9.968,3.541 12.144 C 4.850 13.416,5.920 14.473,5.920 14.493 C 5.920 14.513,5.677 15.946,5.380 17.677 C 5.083 19.409,4.840 20.914,4.840 21.023 C 4.842 21.668,5.527 22.158,6.128 21.944 C 6.209 21.915,7.693 21.146,9.426 20.235 C 11.873 18.950,12.610 18.545,12.727 18.423 C 13.023 18.115,13.002 18.805,12.990 9.819 C 12.980 1.919,12.978 1.737,12.903 1.584 C 12.803 1.384,12.613 1.194,12.421 1.103 C 12.214 1.005,11.861 0.987,11.652 1.063 M11.000 11.734 L 11.000 17.148 9.091 18.152 C 8.041 18.704,7.178 19.151,7.173 19.146 C 7.168 19.141,7.353 18.040,7.584 16.698 C 8.037 14.071,8.049 13.949,7.878 13.645 C 7.828 13.557,6.989 12.708,5.989 11.735 C 4.498 10.283,4.203 9.979,4.265 9.954 C 4.306 9.938,5.420 9.769,6.740 9.580 C 9.413 9.197,9.452 9.188,9.687 8.866 C 9.753 8.775,10.070 8.165,10.390 7.510 C 10.711 6.855,10.979 6.320,10.986 6.320 C 10.994 6.320,11.000 8.756,11.000 11.734 " stroke="none" fill-rule="evenodd" fill="black"></path></svg>