<svg xmlns="http://www.w3.org/2000/svg" width="24" height="24" viewBox="0 0 24 24" fill="none" stroke="currentColor" stroke-width="2" stroke-linecap="round" stroke-linejoin="round"><path d="M2.670 2.061 C 2.448 2.142,2.250 2.309,2.128 2.516 C 2.036 2.672,2.020 2.745,2.021 3.000 C 2.021 3.212,2.043 3.341,2.095 3.440 C 2.135 3.517,3.563 4.977,5.269 6.685 L 8.369 9.790 8.299 10.177 C 8.222 10.609,8.234 10.795,8.364 11.142 C 8.473 11.434,8.754 11.724,9.071 11.872 C 9.383 12.019,9.879 12.026,10.178 11.888 L 10.377 11.797 11.914 13.334 L 13.452 14.872 13.326 14.937 C 12.856 15.180,12.566 15.718,12.611 16.267 C 12.646 16.710,12.753 16.864,13.623 17.726 C 14.233 18.330,14.399 18.517,14.384 18.580 C 14.373 18.624,14.289 19.107,14.197 19.653 L 14.030 20.645 14.095 20.913 C 14.262 21.595,14.870 22.044,15.552 21.989 C 15.821 21.968,16.039 21.871,17.330 21.198 L 17.800 20.953 18.270 21.198 C 19.557 21.868,19.780 21.968,20.045 21.989 C 20.185 22.000,20.364 21.992,20.442 21.970 C 20.536 21.944,20.652 21.944,20.783 21.971 C 21.211 22.059,21.628 21.877,21.859 21.503 C 21.966 21.329,21.980 21.271,21.980 21.003 C 21.980 20.746,21.964 20.673,21.873 20.520 C 21.809 20.414,18.015 16.593,12.653 11.235 C 4.231 2.820,3.525 2.125,3.343 2.065 C 3.107 1.987,2.874 1.986,2.670 2.061 M11.611 2.055 C 11.365 2.136,11.109 2.297,10.964 2.461 C 10.895 2.541,10.624 3.032,10.363 3.554 L 9.888 4.502 9.559 4.550 C 9.199 4.603,8.955 4.719,8.788 4.918 C 8.333 5.459,8.611 6.339,9.296 6.524 C 9.562 6.596,10.742 6.432,11.035 6.282 C 11.262 6.167,11.376 6.009,11.694 5.372 C 11.850 5.057,11.988 4.801,11.999 4.802 C 12.011 4.803,12.137 5.049,12.280 5.348 C 12.575 5.964,12.753 6.193,13.029 6.312 C 13.140 6.359,13.491 6.433,13.855 6.484 L 14.489 6.574 14.001 7.055 C 13.733 7.319,13.478 7.605,13.435 7.690 C 13.293 7.969,13.300 8.148,13.499 9.280 C 13.602 9.863,13.701 10.495,13.719 10.684 C 13.770 11.201,13.935 11.462,14.320 11.637 C 14.855 11.879,15.528 11.559,15.684 10.988 C 15.758 10.716,15.739 10.475,15.564 9.459 L 15.398 8.498 16.214 7.679 C 17.142 6.748,17.179 6.687,17.178 6.117 C 17.178 5.857,17.160 5.777,17.049 5.551 C 16.977 5.407,16.845 5.222,16.754 5.140 C 16.458 4.872,16.271 4.815,15.140 4.651 L 14.103 4.500 13.631 3.548 C 13.108 2.495,12.974 2.315,12.577 2.134 C 12.308 2.010,11.860 1.974,11.611 2.055 M5.772 12.072 C 5.512 12.165,5.270 12.331,5.123 12.517 C 5.061 12.596,4.803 13.074,4.550 13.580 L 4.089 14.501 3.057 14.651 C 1.946 14.812,1.751 14.870,1.463 15.122 C 1.145 15.402,0.975 15.831,1.011 16.267 C 1.046 16.710,1.153 16.864,2.023 17.726 C 2.633 18.330,2.799 18.517,2.784 18.580 C 2.773 18.624,2.689 19.107,2.597 19.653 L 2.430 20.645 2.495 20.913 C 2.662 21.595,3.270 22.044,3.952 21.989 C 4.221 21.968,4.439 21.871,5.730 21.198 L 6.200 20.953 6.670 21.198 C 7.961 21.871,8.179 21.968,8.448 21.989 C 9.124 22.043,9.733 21.598,9.903 20.925 C 9.976 20.635,9.980 20.680,9.757 19.400 L 9.600 18.500 10.379 17.726 C 11.244 16.867,11.344 16.722,11.386 16.276 C 11.427 15.835,11.260 15.406,10.937 15.122 C 10.649 14.870,10.454 14.812,9.343 14.651 L 8.311 14.501 7.834 13.548 C 7.305 12.491,7.173 12.315,6.770 12.130 C 6.469 11.992,6.062 11.969,5.772 12.072 M17.372 12.072 C 16.965 12.217,16.693 12.472,16.501 12.885 C 16.359 13.191,16.337 13.398,16.419 13.649 C 16.563 14.088,16.925 14.360,17.368 14.360 L 17.600 14.360 17.915 14.990 C 18.196 15.550,18.266 15.656,18.545 15.946 C 18.718 16.125,18.920 16.302,18.994 16.339 C 19.068 16.376,19.393 16.445,19.718 16.491 L 20.308 16.577 20.229 16.755 C 20.136 16.966,20.147 17.382,20.251 17.583 C 20.495 18.055,21.137 18.271,21.587 18.032 C 21.854 17.890,22.734 17.001,22.858 16.748 C 23.123 16.206,22.987 15.518,22.537 15.122 C 22.249 14.870,22.053 14.812,20.943 14.651 L 19.912 14.503 19.434 13.549 C 18.905 12.491,18.773 12.315,18.370 12.130 C 18.069 11.992,17.662 11.969,17.372 12.072 M6.509 15.376 C 6.667 15.693,6.851 16.015,6.918 16.091 C 7.099 16.298,7.348 16.384,8.053 16.484 L 8.685 16.574 8.187 17.077 C 7.912 17.354,7.661 17.634,7.628 17.701 C 7.511 17.935,7.509 18.155,7.617 18.773 C 7.674 19.098,7.720 19.391,7.720 19.424 C 7.720 19.466,7.537 19.389,7.099 19.162 C 6.497 18.850,6.470 18.840,6.200 18.840 C 5.930 18.840,5.903 18.850,5.301 19.162 C 4.813 19.415,4.680 19.469,4.680 19.415 C 4.680 19.378,4.726 19.085,4.783 18.765 C 4.892 18.156,4.889 17.935,4.772 17.701 C 4.739 17.634,4.488 17.354,4.213 17.077 L 3.715 16.574 4.347 16.484 C 5.052 16.384,5.301 16.298,5.482 16.091 C 5.549 16.015,5.733 15.693,5.891 15.376 C 6.049 15.059,6.188 14.800,6.200 14.800 C 6.212 14.800,6.351 15.059,6.509 15.376 M17.409 18.884 C 17.393 18.899,17.133 19.041,16.830 19.199 C 16.389 19.430,16.280 19.473,16.280 19.417 C 16.280 19.378,16.327 19.084,16.384 18.764 C 16.449 18.395,16.478 18.122,16.462 18.020 L 16.437 17.860 16.938 18.359 C 17.213 18.633,17.425 18.870,17.409 18.884 " stroke="none" fill-rule="evenodd" fill="black"></path></svg>