<svg xmlns="http://www.w3.org/2000/svg" width="24" height="24" viewBox="0 0 24 24" fill="none" stroke="currentColor" stroke-width="2" stroke-linecap="round" stroke-linejoin="round"><path d="M11.477 2.073 C 10.806 2.249,10.238 2.823,10.060 3.508 C 9.941 3.962,10.003 4.492,10.225 4.930 C 10.361 5.199,10.801 5.639,11.070 5.775 C 11.659 6.073,12.341 6.073,12.930 5.775 C 13.196 5.640,13.638 5.200,13.771 4.937 C 13.994 4.498,14.052 4.007,13.940 3.529 C 13.858 3.182,13.720 2.927,13.465 2.653 C 13.074 2.232,12.560 2.005,12.000 2.005 C 11.857 2.005,11.622 2.036,11.477 2.073 M5.044 4.625 C 4.541 4.876,4.346 5.567,4.651 6.020 C 4.769 6.197,7.752 9.186,7.943 9.320 C 8.258 9.541,8.741 9.539,9.065 9.317 C 9.499 9.018,9.619 8.371,9.320 7.943 C 9.257 7.853,8.507 7.083,7.653 6.232 C 6.495 5.078,6.054 4.663,5.920 4.603 C 5.654 4.483,5.312 4.492,5.044 4.625 M18.080 4.603 C 17.946 4.663,17.505 5.078,16.347 6.232 C 15.493 7.083,14.743 7.852,14.682 7.940 C 14.279 8.518,14.617 9.347,15.305 9.469 C 15.570 9.516,15.858 9.459,16.055 9.321 C 16.146 9.258,16.917 8.507,17.768 7.653 C 18.967 6.450,19.335 6.058,19.398 5.914 C 19.695 5.241,19.230 4.518,18.502 4.521 C 18.346 4.521,18.196 4.551,18.080 4.603 M3.477 10.073 C 3.130 10.164,2.802 10.366,2.535 10.653 C 2.178 11.038,2.000 11.485,2.000 12.000 C 2.000 12.546,2.193 13.001,2.596 13.404 C 2.999 13.807,3.454 14.000,4.000 14.000 C 4.546 14.000,5.001 13.807,5.404 13.404 C 5.920 12.889,6.106 12.236,5.940 11.529 C 5.858 11.182,5.720 10.927,5.465 10.653 C 5.074 10.232,4.560 10.005,4.000 10.005 C 3.857 10.005,3.622 10.036,3.477 10.073 M19.477 10.073 C 18.806 10.249,18.238 10.823,18.060 11.508 C 17.941 11.962,18.003 12.492,18.225 12.930 C 18.361 13.199,18.801 13.639,19.070 13.775 C 19.659 14.073,20.341 14.073,20.930 13.775 C 21.196 13.640,21.638 13.200,21.771 12.937 C 21.994 12.498,22.052 12.007,21.940 11.529 C 21.858 11.182,21.720 10.927,21.465 10.653 C 21.074 10.232,20.560 10.005,20.000 10.005 C 19.857 10.005,19.622 10.036,19.477 10.073 M8.080 14.603 C 7.946 14.663,7.505 15.078,6.347 16.232 C 5.493 17.083,4.743 17.852,4.682 17.940 C 4.372 18.384,4.498 19.029,4.952 19.330 C 5.268 19.539,5.749 19.535,6.055 19.321 C 6.146 19.258,6.917 18.507,7.768 17.653 C 8.967 16.450,9.335 16.058,9.398 15.914 C 9.695 15.241,9.230 14.518,8.502 14.521 C 8.346 14.521,8.196 14.551,8.080 14.603 M15.044 14.625 C 14.541 14.876,14.346 15.567,14.651 16.020 C 14.769 16.197,17.752 19.186,17.943 19.320 C 18.258 19.541,18.741 19.539,19.065 19.317 C 19.499 19.018,19.619 18.371,19.320 17.943 C 19.257 17.853,18.507 17.083,17.653 16.232 C 16.495 15.078,16.054 14.663,15.920 14.603 C 15.654 14.483,15.312 14.492,15.044 14.625 M11.477 18.073 C 10.806 18.249,10.238 18.823,10.060 19.508 C 9.941 19.962,10.003 20.492,10.225 20.930 C 10.361 21.199,10.801 21.639,11.070 21.775 C 11.659 22.073,12.341 22.073,12.930 21.775 C 13.196 21.640,13.638 21.200,13.771 20.937 C 13.994 20.498,14.052 20.007,13.940 19.529 C 13.858 19.182,13.720 18.927,13.465 18.653 C 13.074 18.232,12.560 18.005,12.000 18.005 C 11.857 18.005,11.622 18.036,11.477 18.073 " stroke="none" fill-rule="evenodd" fill="black"></path></svg>