<svg xmlns="http://www.w3.org/2000/svg" width="24" height="24" viewBox="0 0 24 24" fill="none" stroke="currentColor" stroke-width="2" stroke-linecap="round" stroke-linejoin="round"><path d="M2.670 2.061 C 2.448 2.142,2.250 2.309,2.128 2.516 C 2.036 2.672,2.020 2.745,2.021 3.000 C 2.021 3.213,2.043 3.341,2.095 3.440 C 2.136 3.517,2.637 4.051,3.210 4.626 L 4.250 5.672 4.072 5.906 C 2.665 7.747,1.927 10.057,2.014 12.340 C 2.113 14.916,3.129 17.249,4.940 19.060 C 8.445 22.565,13.980 22.980,17.949 20.035 L 18.330 19.752 19.375 20.792 C 19.950 21.363,20.483 21.864,20.560 21.905 C 20.659 21.957,20.787 21.979,21.000 21.979 C 21.258 21.980,21.327 21.964,21.492 21.867 C 21.968 21.587,22.139 20.967,21.865 20.508 C 21.810 20.416,17.665 16.243,12.653 11.235 C 4.231 2.820,3.525 2.125,3.343 2.065 C 3.107 1.987,2.874 1.986,2.670 2.061 M11.100 2.043 C 9.970 2.150,8.820 2.460,7.780 2.939 C 7.375 3.126,7.228 3.238,7.098 3.459 C 6.787 3.991,7.055 4.706,7.638 4.899 C 7.935 4.998,8.154 4.965,8.621 4.751 C 10.547 3.869,12.584 3.763,14.611 4.440 C 15.776 4.830,16.811 5.490,17.723 6.427 C 18.175 6.890,18.343 7.095,18.670 7.580 C 19.052 8.146,19.579 9.234,19.507 9.306 C 19.493 9.321,18.522 9.616,17.351 9.963 C 16.179 10.310,15.141 10.635,15.044 10.686 C 14.828 10.799,14.658 11.025,14.575 11.313 C 14.516 11.514,14.516 11.551,14.579 11.783 C 14.662 12.090,14.844 12.316,15.109 12.440 C 15.468 12.609,15.565 12.590,17.858 11.905 C 19.002 11.563,19.946 11.293,19.957 11.304 C 19.968 11.315,19.984 11.558,19.993 11.845 C 20.030 13.015,19.799 14.129,19.275 15.311 C 19.160 15.569,19.059 15.861,19.049 15.960 C 18.976 16.711,19.773 17.266,20.462 16.945 C 20.724 16.823,20.854 16.664,21.070 16.200 C 22.657 12.800,22.188 8.823,19.845 5.800 C 19.501 5.357,18.719 4.573,18.240 4.191 C 16.829 3.068,15.111 2.333,13.345 2.097 C 12.779 2.022,11.619 1.994,11.100 2.043 M7.500 8.920 C 8.490 9.910,9.273 10.719,9.240 10.719 C 9.163 10.717,4.527 9.340,4.497 9.310 C 4.463 9.277,4.698 8.711,4.925 8.280 C 5.128 7.894,5.628 7.120,5.675 7.120 C 5.689 7.120,6.510 7.930,7.500 8.920 M6.620 12.042 C 7.962 12.439,9.072 12.777,9.086 12.792 C 9.100 12.808,9.161 12.946,9.221 13.100 C 9.497 13.806,10.142 14.473,10.810 14.743 L 11.000 14.820 11.000 17.375 L 11.000 19.929 10.777 19.901 C 10.175 19.826,9.247 19.539,8.580 19.223 C 6.323 18.152,4.673 16.051,4.179 13.621 C 3.986 12.668,3.946 11.245,4.114 11.298 C 4.150 11.309,5.278 11.644,6.620 12.042 M15.090 16.510 C 16.074 17.494,16.880 18.312,16.880 18.328 C 16.880 18.343,16.688 18.484,16.454 18.641 C 15.755 19.108,14.955 19.477,14.163 19.699 C 13.808 19.798,13.208 19.920,13.076 19.920 C 13.002 19.920,13.000 19.844,13.000 17.378 L 13.000 14.836 13.130 14.780 C 13.202 14.749,13.269 14.722,13.280 14.722 C 13.291 14.721,14.105 15.525,15.090 16.510 " stroke="none" fill-rule="evenodd" fill="black"></path></svg>