<svg xmlns="http://www.w3.org/2000/svg" width="24" height="24" viewBox="0 0 24 24" fill="none" stroke="currentColor" stroke-width="2" stroke-linecap="round" stroke-linejoin="round"><path d="M11.695 2.057 C 11.466 2.129,11.256 2.299,11.128 2.516 L 11.020 2.700 11.009 7.637 L 10.999 12.575 9.769 11.353 C 8.688 10.279,8.516 10.124,8.343 10.066 C 7.863 9.905,7.382 10.084,7.128 10.516 C 7.036 10.672,7.020 10.745,7.021 11.000 C 7.021 11.212,7.043 11.341,7.095 11.440 C 7.135 11.517,8.116 12.531,9.274 13.694 C 11.567 15.996,11.571 15.999,12.000 15.999 C 12.429 15.999,12.433 15.996,14.726 13.694 C 15.884 12.531,16.865 11.517,16.905 11.440 C 16.957 11.341,16.979 11.212,16.979 11.000 C 16.980 10.745,16.964 10.672,16.872 10.516 C 16.618 10.084,16.137 9.905,15.657 10.066 C 15.484 10.124,15.312 10.279,14.231 11.353 L 13.001 12.575 12.991 7.637 L 12.980 2.700 12.872 2.516 C 12.628 2.101,12.150 1.915,11.695 2.057 M11.477 18.073 C 10.806 18.249,10.238 18.823,10.060 19.508 C 9.941 19.962,10.003 20.492,10.225 20.930 C 10.361 21.199,10.801 21.639,11.070 21.775 C 11.659 22.073,12.341 22.073,12.930 21.775 C 13.196 21.640,13.638 21.200,13.771 20.937 C 13.994 20.498,14.052 20.007,13.940 19.529 C 13.858 19.182,13.720 18.927,13.465 18.653 C 13.074 18.232,12.560 18.005,12.000 18.005 C 11.857 18.005,11.622 18.036,11.477 18.073 " stroke="none" fill-rule="evenodd" fill="black"></path></svg>