<svg xmlns="http://www.w3.org/2000/svg" width="24" height="24" viewBox="0 0 24 24" fill="none" stroke="currentColor" stroke-width="2" stroke-linecap="round" stroke-linejoin="round"><path d="M5.664 2.063 C 5.455 2.140,5.267 2.288,5.161 2.459 C 5.113 2.537,4.382 4.674,3.537 7.210 L 2.000 11.820 2.000 15.541 C 2.000 19.589,1.994 19.474,2.225 19.930 C 2.361 20.199,2.801 20.639,3.070 20.775 C 3.513 20.999,3.521 21.000,6.266 21.000 C 7.959 21.000,8.866 20.985,9.008 20.956 C 9.125 20.931,9.337 20.857,9.480 20.790 C 9.708 20.683,9.878 20.532,10.870 19.546 L 12.000 18.424 13.130 19.546 C 14.122 20.532,14.292 20.683,14.520 20.790 C 14.663 20.857,14.875 20.931,14.992 20.956 C 15.134 20.985,16.041 21.000,17.734 21.000 C 20.479 21.000,20.487 20.999,20.930 20.775 C 21.196 20.640,21.638 20.200,21.771 19.937 C 22.006 19.475,22.000 19.583,22.000 15.534 L 22.000 11.820 20.455 7.187 C 18.771 2.135,18.844 2.319,18.461 2.122 C 18.264 2.021,18.255 2.020,17.121 2.007 C 16.384 1.999,15.908 2.010,15.776 2.039 C 15.515 2.095,15.269 2.277,15.129 2.514 C 15.036 2.672,15.020 2.745,15.020 3.000 C 15.020 3.256,15.036 3.328,15.131 3.489 C 15.192 3.592,15.304 3.725,15.381 3.783 C 15.627 3.971,15.764 3.996,16.547 3.998 L 17.273 4.000 18.423 7.450 C 19.055 9.348,19.580 10.922,19.590 10.950 C 19.605 10.990,18.070 11.000,12.000 11.000 C 5.930 11.000,4.395 10.990,4.410 10.950 C 4.420 10.922,4.945 9.348,5.577 7.450 L 6.727 4.000 7.453 3.998 C 8.236 3.996,8.373 3.971,8.619 3.783 C 8.696 3.725,8.808 3.592,8.869 3.489 C 8.964 3.328,8.980 3.256,8.980 3.000 C 8.980 2.746,8.963 2.672,8.872 2.516 C 8.740 2.293,8.533 2.128,8.290 2.055 C 8.024 1.975,5.886 1.982,5.664 2.063 M20.000 16.000 L 20.000 19.000 17.712 19.000 L 15.424 19.000 14.302 17.886 C 13.280 16.871,13.153 16.759,12.879 16.625 C 12.338 16.359,11.662 16.359,11.121 16.625 C 10.847 16.759,10.720 16.871,9.698 17.886 L 8.576 19.000 6.288 19.000 L 4.000 19.000 4.000 16.000 L 4.000 13.000 12.000 13.000 L 20.000 13.000 20.000 16.000 M6.695 15.057 C 6.466 15.129,6.256 15.299,6.128 15.516 C 6.037 15.672,6.020 15.746,6.020 16.000 C 6.020 16.256,6.036 16.328,6.131 16.489 C 6.256 16.702,6.449 16.864,6.670 16.943 C 6.878 17.017,8.122 17.017,8.330 16.943 C 8.551 16.864,8.744 16.702,8.869 16.489 C 8.964 16.328,8.980 16.256,8.980 16.000 C 8.980 15.746,8.963 15.672,8.872 15.516 C 8.740 15.293,8.533 15.128,8.290 15.055 C 8.050 14.983,6.928 14.984,6.695 15.057 M15.695 15.057 C 15.466 15.129,15.256 15.299,15.128 15.516 C 15.037 15.672,15.020 15.746,15.020 16.000 C 15.020 16.256,15.036 16.328,15.131 16.489 C 15.256 16.702,15.449 16.864,15.670 16.943 C 15.878 17.017,17.122 17.017,17.330 16.943 C 17.551 16.864,17.744 16.702,17.869 16.489 C 17.964 16.328,17.980 16.256,17.980 16.000 C 17.980 15.746,17.963 15.672,17.872 15.516 C 17.740 15.293,17.533 15.128,17.290 15.055 C 17.050 14.983,15.928 14.984,15.695 15.057 " stroke="none" fill-rule="evenodd" fill="black"></path></svg>