<svg xmlns="http://www.w3.org/2000/svg" width="24" height="24" viewBox="0 0 24 24" fill="none" stroke="currentColor" stroke-width="2" stroke-linecap="round" stroke-linejoin="round"><path d="M5.695 2.057 C 5.352 2.164,5.073 2.481,5.018 2.825 L 4.991 2.991 4.710 3.018 C 3.496 3.138,2.485 3.972,2.114 5.160 L 2.020 5.460 2.020 7.840 C 2.020 10.429,2.024 10.480,2.261 11.300 C 2.874 13.418,4.581 15.136,6.660 15.725 C 6.836 15.775,7.000 15.831,7.025 15.848 C 7.049 15.866,7.081 15.983,7.096 16.108 C 7.159 16.649,7.438 17.520,7.737 18.114 C 8.772 20.169,10.677 21.554,12.980 21.926 C 13.392 21.992,14.607 21.992,15.020 21.926 C 17.604 21.509,19.707 19.788,20.573 17.380 C 20.920 16.415,20.963 16.097,20.988 14.335 L 21.008 12.851 21.334 12.685 C 22.078 12.307,22.636 11.643,22.886 10.840 C 23.021 10.406,23.021 9.594,22.886 9.160 C 22.581 8.181,21.822 7.418,20.861 7.125 C 20.588 7.042,20.458 7.027,20.000 7.027 C 19.542 7.027,19.412 7.042,19.139 7.125 C 18.178 7.418,17.419 8.181,17.114 9.160 C 16.979 9.594,16.979 10.406,17.114 10.840 C 17.365 11.645,17.931 12.318,18.670 12.688 L 19.000 12.853 19.000 14.008 C 19.000 15.852,18.896 16.429,18.398 17.353 C 17.683 18.681,16.466 19.585,14.960 19.907 C 14.489 20.008,13.511 20.008,13.040 19.907 C 11.492 19.576,10.231 18.614,9.541 17.240 C 9.353 16.866,9.178 16.385,9.138 16.138 L 9.113 15.978 9.526 15.912 C 12.004 15.513,14.042 13.711,14.739 11.300 C 14.976 10.480,14.980 10.429,14.980 7.840 L 14.980 5.460 14.886 5.160 C 14.705 4.578,14.391 4.107,13.911 3.695 C 13.475 3.321,12.893 3.078,12.290 3.018 L 12.009 2.991 11.982 2.825 C 11.922 2.448,11.606 2.123,11.214 2.035 C 10.792 1.941,10.352 2.134,10.129 2.514 L 10.020 2.700 10.008 3.908 C 10.000 4.666,10.011 5.174,10.038 5.272 C 10.099 5.498,10.288 5.738,10.508 5.867 C 10.673 5.964,10.743 5.980,11.003 5.980 C 11.271 5.980,11.329 5.966,11.503 5.859 C 11.742 5.712,11.946 5.422,11.982 5.179 C 12.012 4.979,12.022 4.975,12.310 5.061 C 12.452 5.103,12.571 5.178,12.697 5.303 C 12.999 5.605,13.000 5.615,13.000 7.769 C 13.000 8.833,12.982 9.809,12.957 10.027 C 12.792 11.509,11.842 12.859,10.489 13.536 C 9.458 14.053,8.194 14.135,7.071 13.759 C 5.440 13.213,4.253 11.761,4.044 10.060 C 4.018 9.844,4.000 8.939,4.000 7.797 C 4.000 5.611,4.001 5.606,4.303 5.303 C 4.429 5.178,4.548 5.103,4.690 5.061 C 4.978 4.975,4.988 4.979,5.018 5.179 C 5.054 5.422,5.258 5.712,5.497 5.859 C 5.671 5.966,5.729 5.980,5.997 5.980 C 6.257 5.980,6.327 5.964,6.492 5.867 C 6.712 5.738,6.901 5.498,6.962 5.272 C 6.989 5.174,7.000 4.666,6.992 3.908 L 6.980 2.700 6.872 2.516 C 6.628 2.101,6.150 1.915,5.695 2.057 M20.310 9.061 C 20.688 9.173,21.000 9.598,21.000 10.001 C 21.000 10.331,20.784 10.696,20.484 10.872 C 20.328 10.963,20.254 10.980,20.000 10.980 C 19.746 10.980,19.672 10.963,19.516 10.872 C 18.935 10.530,18.833 9.774,19.304 9.303 C 19.583 9.024,19.916 8.944,20.310 9.061 " stroke="none" fill-rule="evenodd" fill="black"></path></svg>