<svg xmlns="http://www.w3.org/2000/svg" width="24" height="24" viewBox="0 0 24 24" fill="none" stroke="currentColor" stroke-width="2" stroke-linecap="round" stroke-linejoin="round"><path d="M9.695 2.057 C 9.466 2.129,9.256 2.299,9.128 2.516 C 9.037 2.672,9.020 2.746,9.020 3.000 C 9.020 3.256,9.036 3.328,9.131 3.489 C 9.256 3.702,9.449 3.864,9.670 3.943 C 9.889 4.021,14.111 4.021,14.330 3.943 C 14.551 3.864,14.744 3.702,14.869 3.489 C 14.964 3.328,14.980 3.256,14.980 3.000 C 14.980 2.746,14.963 2.672,14.872 2.516 C 14.740 2.293,14.533 2.128,14.290 2.055 C 14.033 1.978,9.943 1.979,9.695 2.057 M11.207 5.043 C 9.656 5.193,8.096 5.846,6.900 6.847 C 5.985 7.612,5.307 8.477,4.800 9.529 C 3.734 11.734,3.735 14.267,4.801 16.474 C 5.225 17.352,5.730 18.049,6.446 18.741 C 7.114 19.389,7.706 19.803,8.529 20.200 C 11.259 21.519,14.467 21.184,16.900 19.326 C 17.239 19.067,17.925 18.394,18.211 18.040 C 19.538 16.398,20.183 14.230,19.958 12.168 C 19.817 10.883,19.344 9.587,18.632 8.534 L 18.330 8.088 18.548 7.874 C 18.892 7.537,18.980 7.359,18.980 7.000 C 18.980 6.746,18.963 6.672,18.872 6.516 C 18.740 6.293,18.533 6.128,18.290 6.055 C 17.883 5.933,17.591 6.023,17.196 6.393 L 16.905 6.666 16.470 6.371 C 14.946 5.342,13.056 4.865,11.207 5.043 M12.564 7.039 C 14.921 7.269,16.913 8.837,17.671 11.060 C 18.168 12.517,18.068 14.251,17.410 15.580 C 16.550 17.316,15.056 18.478,13.160 18.885 C 12.554 19.015,11.446 19.015,10.840 18.885 C 8.941 18.478,7.451 17.319,6.590 15.580 C 5.932 14.251,5.832 12.517,6.329 11.060 C 6.618 10.212,7.080 9.470,7.731 8.805 C 9.008 7.503,10.757 6.864,12.564 7.039 M14.080 9.603 C 13.947 9.663,13.550 10.033,12.567 11.012 C 11.834 11.742,11.186 12.421,11.127 12.520 C 11.036 12.672,11.020 12.746,11.020 13.000 C 11.020 13.257,11.036 13.327,11.133 13.492 C 11.413 13.968,12.032 14.138,12.492 13.866 C 12.584 13.811,13.258 13.166,13.988 12.433 C 15.006 11.411,15.335 11.057,15.398 10.914 C 15.695 10.241,15.230 9.518,14.502 9.521 C 14.346 9.521,14.196 9.551,14.080 9.603 " stroke="none" fill-rule="evenodd" fill="black"></path></svg>