<svg xmlns="http://www.w3.org/2000/svg" width="24" height="24" viewBox="0 0 24 24" fill="none" stroke="currentColor" stroke-width="2" stroke-linecap="round" stroke-linejoin="round"><path d="M2.670 2.061 C 2.448 2.142,2.250 2.309,2.128 2.516 C 2.036 2.672,2.020 2.745,2.021 3.000 C 2.021 3.214,2.043 3.340,2.096 3.440 C 2.137 3.517,2.422 3.835,2.729 4.146 L 3.288 4.712 3.205 5.326 C 3.047 6.485,3.022 6.855,3.022 8.060 C 3.022 8.967,3.040 9.400,3.093 9.836 C 3.271 11.276,3.620 12.633,4.137 13.900 C 4.218 14.098,4.357 14.449,4.445 14.680 C 4.920 15.920,5.481 16.802,6.340 17.660 C 7.626 18.947,9.244 19.731,11.079 19.958 C 11.515 20.012,12.486 20.012,12.921 19.958 C 14.290 19.789,15.622 19.263,16.722 18.458 L 16.905 18.324 17.719 19.139 L 18.533 19.954 18.420 20.498 C 18.307 21.041,18.306 21.043,18.377 21.271 C 18.476 21.590,18.780 21.888,19.077 21.959 C 19.436 22.045,19.730 21.969,20.019 21.715 L 20.160 21.592 20.301 21.715 C 20.545 21.930,20.673 21.978,21.000 21.979 C 21.258 21.980,21.327 21.964,21.492 21.867 C 21.968 21.587,22.139 20.967,21.865 20.508 C 21.810 20.416,17.665 16.243,12.653 11.235 C 4.231 2.820,3.525 2.125,3.343 2.065 C 3.107 1.987,2.874 1.986,2.670 2.061 M11.320 4.026 C 10.626 4.094,9.826 4.273,9.277 4.482 C 8.694 4.705,8.438 5.064,8.492 5.587 C 8.537 6.019,8.852 6.356,9.300 6.450 C 9.510 6.494,9.546 6.489,9.971 6.352 C 11.030 6.011,11.805 5.929,12.760 6.058 C 13.487 6.156,14.150 6.353,14.720 6.641 C 15.347 6.957,16.088 7.543,16.548 8.087 C 17.245 8.910,17.649 9.743,17.887 10.850 C 17.959 11.185,17.975 11.394,17.977 12.000 C 17.980 12.827,17.923 13.179,17.651 14.014 C 17.539 14.360,17.515 14.485,17.535 14.630 C 17.611 15.180,18.051 15.552,18.576 15.508 C 18.710 15.497,18.860 15.475,18.910 15.459 C 18.999 15.431,19.000 15.434,19.000 15.825 C 19.001 16.155,19.016 16.253,19.095 16.422 C 19.445 17.174,20.496 17.196,20.894 16.460 C 20.973 16.312,20.980 16.244,20.978 15.560 C 20.976 14.739,20.923 14.148,20.775 13.280 C 20.597 12.237,20.260 11.055,19.880 10.140 C 19.789 9.920,19.616 9.490,19.496 9.184 C 19.030 7.997,18.482 7.164,17.594 6.293 C 16.870 5.582,16.244 5.149,15.339 4.732 C 14.572 4.379,13.694 4.137,12.832 4.043 C 12.472 4.003,11.648 3.994,11.320 4.026 M5.523 7.297 C 5.439 7.409,5.286 7.636,5.182 7.801 L 4.992 8.100 5.018 7.500 C 5.031 7.170,5.054 6.813,5.067 6.707 L 5.091 6.513 5.383 6.802 L 5.674 7.092 5.523 7.297 M13.057 8.316 C 12.846 8.369,12.605 8.528,12.497 8.685 C 12.104 9.251,12.267 9.867,12.901 10.222 C 13.251 10.418,13.529 10.677,13.705 10.972 C 13.983 11.440,14.231 11.628,14.623 11.669 C 14.915 11.699,15.228 11.571,15.434 11.337 C 15.728 11.004,15.764 10.584,15.536 10.140 C 14.985 9.064,13.733 8.144,13.057 8.316 M7.845 9.265 L 8.551 9.970 8.430 10.213 C 7.233 12.626,8.688 15.474,11.355 15.941 C 12.155 16.081,13.042 15.945,13.800 15.566 L 14.031 15.451 14.741 16.161 C 15.131 16.551,15.438 16.890,15.424 16.914 C 15.374 16.994,14.739 17.353,14.360 17.514 C 12.414 18.341,10.215 18.105,8.503 16.886 C 8.104 16.602,7.482 15.992,7.192 15.600 C 5.851 13.790,5.622 11.377,6.603 9.392 C 6.811 8.971,7.061 8.560,7.109 8.560 C 7.126 8.560,7.457 8.877,7.845 9.265 M11.298 12.718 C 11.957 13.378,12.486 13.927,12.473 13.940 C 12.419 13.994,11.870 14.008,11.632 13.962 C 10.825 13.805,10.169 13.136,10.037 12.333 C 9.991 12.057,10.015 11.520,10.073 11.520 C 10.088 11.520,10.640 12.059,11.298 12.718 " stroke="none" fill-rule="evenodd" fill="black"></path></svg>