<svg xmlns="http://www.w3.org/2000/svg" width="24" height="24" viewBox="0 0 24 24" fill="none" stroke="currentColor" stroke-width="2" stroke-linecap="round" stroke-linejoin="round"><path d="M4.400 2.035 C 4.017 2.160,3.800 2.404,3.686 2.833 C 3.502 3.528,3.261 4.845,3.143 5.800 C 3.026 6.751,2.989 7.519,3.013 8.440 C 3.057 10.069,3.278 11.374,3.766 12.880 C 3.968 13.504,4.626 15.134,4.881 15.640 C 5.268 16.412,5.775 17.092,6.446 17.741 C 7.114 18.389,7.706 18.803,8.529 19.200 C 10.733 20.265,13.267 20.265,15.471 19.200 C 16.294 18.803,16.886 18.389,17.554 17.741 C 18.044 17.267,18.353 16.894,18.731 16.320 L 19.007 15.900 18.981 16.480 C 18.925 17.700,18.802 18.623,18.493 20.133 L 18.307 21.045 18.378 21.273 C 18.479 21.598,18.784 21.893,19.090 21.961 C 19.385 22.027,19.635 21.984,19.868 21.828 C 20.218 21.592,20.274 21.456,20.519 20.240 C 20.865 18.530,20.981 17.436,20.978 15.920 C 20.975 14.102,20.766 12.751,20.235 11.120 C 20.036 10.509,19.376 8.872,19.130 8.380 C 18.659 7.437,17.963 6.568,17.100 5.847 C 15.272 4.318,12.811 3.697,10.422 4.161 C 9.181 4.402,7.886 5.022,6.900 5.847 C 6.237 6.401,5.729 6.975,5.239 7.723 L 4.992 8.100 5.018 7.520 C 5.068 6.365,5.232 5.112,5.495 3.878 C 5.572 3.516,5.647 3.154,5.662 3.072 C 5.719 2.749,5.453 2.290,5.106 2.113 C 4.931 2.024,4.559 1.983,4.400 2.035 M12.564 6.039 C 14.009 6.180,15.260 6.776,16.269 7.805 C 17.693 9.258,18.277 11.270,17.857 13.280 C 17.380 15.563,15.530 17.377,13.160 17.885 C 12.554 18.015,11.446 18.015,10.840 17.885 C 8.670 17.419,6.969 15.908,6.308 13.860 C 5.613 11.704,6.150 9.418,7.731 7.805 C 9.008 6.503,10.757 5.864,12.564 6.039 M11.358 8.061 C 10.230 8.237,9.143 8.974,8.569 9.953 C 7.320 12.083,8.233 14.785,10.512 15.704 C 12.558 16.528,14.877 15.538,15.704 13.488 C 16.090 12.530,16.090 11.469,15.705 10.516 C 15.172 9.197,14.001 8.269,12.605 8.058 C 12.144 7.989,11.816 7.990,11.358 8.061 M12.523 10.073 C 13.262 10.266,13.850 10.924,13.967 11.690 C 14.067 12.343,13.873 12.933,13.403 13.404 C 13.002 13.807,12.547 14.000,12.000 14.000 C 11.485 14.000,11.038 13.822,10.653 13.465 C 9.323 12.229,10.189 10.005,12.000 10.005 C 12.143 10.005,12.378 10.036,12.523 10.073 " stroke="none" fill-rule="evenodd" fill="black"></path></svg>