<svg xmlns="http://www.w3.org/2000/svg" width="24" height="24" viewBox="0 0 24 24" fill="none" stroke="currentColor" stroke-width="2" stroke-linecap="round" stroke-linejoin="round"><path d="M10.560 4.027 C 10.002 4.085,9.463 4.247,8.946 4.511 C 6.676 5.672,5.840 8.445,7.080 10.704 L 7.242 11.000 6.067 11.000 C 4.788 11.000,4.648 11.018,4.382 11.221 C 4.083 11.449,3.935 11.893,4.035 12.264 C 4.099 12.498,4.286 12.737,4.508 12.867 L 4.700 12.980 9.100 13.001 C 13.221 13.020,13.514 13.026,13.720 13.095 C 14.122 13.228,14.410 13.410,14.742 13.740 C 15.264 14.259,15.479 14.771,15.479 15.500 C 15.479 16.226,15.265 16.737,14.742 17.264 C 14.501 17.506,14.345 17.624,14.120 17.734 C 13.604 17.987,13.407 18.009,11.860 17.988 C 10.678 17.973,10.451 17.960,10.129 17.888 C 9.639 17.779,9.278 17.658,8.960 17.496 C 8.621 17.323,8.549 17.262,8.367 16.999 C 8.159 16.699,7.907 16.548,7.580 16.527 C 7.127 16.498,6.785 16.691,6.608 17.073 C 6.388 17.548,6.519 17.986,7.047 18.542 C 7.748 19.280,8.896 19.765,10.360 19.942 C 11.012 20.021,13.214 20.020,13.700 19.941 C 14.815 19.760,15.827 19.168,16.526 18.289 C 17.653 16.871,17.808 14.913,16.920 13.296 L 16.758 13.000 17.969 12.998 C 19.271 12.996,19.354 12.986,19.619 12.783 C 19.696 12.725,19.808 12.592,19.869 12.489 C 19.964 12.328,19.980 12.256,19.980 12.000 C 19.980 11.746,19.963 11.672,19.872 11.516 C 19.813 11.415,19.698 11.282,19.618 11.221 C 19.319 10.993,19.464 11.000,14.924 10.999 C 10.281 10.999,10.437 11.007,9.880 10.734 C 9.657 10.625,9.496 10.504,9.255 10.264 C 8.737 9.747,8.521 9.229,8.521 8.500 C 8.521 7.769,8.738 7.249,9.255 6.740 C 9.599 6.401,9.896 6.217,10.300 6.094 C 10.646 5.987,12.671 5.987,13.239 6.092 C 14.070 6.247,14.745 6.532,14.995 6.833 C 15.352 7.262,15.431 7.338,15.600 7.413 C 15.817 7.509,16.156 7.514,16.369 7.423 C 16.573 7.336,16.788 7.139,16.891 6.944 C 17.021 6.698,17.012 6.287,16.872 6.018 C 16.319 4.958,14.773 4.195,12.864 4.042 C 12.387 4.003,10.884 3.994,10.560 4.027 " stroke="none" fill-rule="evenodd" fill="black"></path></svg>