<svg xmlns="http://www.w3.org/2000/svg" width="24" height="24" viewBox="0 0 24 24" fill="none" stroke="currentColor" stroke-width="2" stroke-linecap="round" stroke-linejoin="round"><path d="M3.695 4.057 C 3.466 4.129,3.256 4.299,3.128 4.516 C 3.037 4.672,3.020 4.746,3.020 5.000 C 3.020 5.256,3.036 5.328,3.131 5.489 C 3.256 5.702,3.449 5.864,3.670 5.943 C 3.768 5.978,4.023 5.997,4.410 5.998 L 5.000 6.000 5.000 11.132 C 5.000 16.721,4.990 16.466,5.225 16.930 C 5.361 17.199,5.801 17.639,6.070 17.775 C 6.506 17.996,6.557 18.000,8.868 18.000 L 11.000 18.000 11.000 18.132 C 11.000 18.323,11.104 18.690,11.225 18.930 C 11.361 19.199,11.801 19.639,12.070 19.775 C 12.522 20.004,12.453 20.000,16.000 20.000 C 19.547 20.000,19.478 20.004,19.930 19.775 C 20.196 19.640,20.638 19.200,20.771 18.937 C 20.979 18.527,21.000 18.352,20.999 17.014 C 20.999 15.682,20.974 15.463,20.781 15.083 C 20.646 14.816,20.297 14.449,20.017 14.281 C 19.548 13.999,19.636 14.005,16.000 14.005 C 12.364 14.005,12.452 13.999,11.983 14.281 C 11.703 14.449,11.354 14.816,11.219 15.083 C 11.103 15.311,11.000 15.681,11.000 15.868 L 11.000 16.000 9.000 16.000 L 7.000 16.000 7.000 13.000 L 7.000 10.000 9.000 10.000 L 11.000 10.000 11.000 10.132 C 11.000 10.323,11.104 10.690,11.225 10.930 C 11.361 11.199,11.801 11.639,12.070 11.775 C 12.522 12.004,12.453 12.000,16.000 12.000 C 19.547 12.000,19.478 12.004,19.930 11.775 C 20.196 11.640,20.638 11.200,20.771 10.937 C 20.979 10.527,21.000 10.352,20.999 9.014 C 20.999 7.682,20.974 7.463,20.781 7.083 C 20.646 6.816,20.297 6.449,20.017 6.281 C 19.548 5.999,19.636 6.005,16.000 6.005 C 12.364 6.005,12.452 5.999,11.983 6.281 C 11.703 6.449,11.354 6.816,11.219 7.083 C 11.103 7.311,11.000 7.681,11.000 7.868 L 11.000 8.000 9.000 8.000 L 7.000 8.000 7.000 7.000 L 7.000 6.000 7.590 5.998 C 7.977 5.997,8.232 5.978,8.330 5.943 C 8.551 5.864,8.744 5.702,8.869 5.489 C 8.964 5.328,8.980 5.256,8.980 5.000 C 8.980 4.746,8.963 4.672,8.872 4.516 C 8.740 4.293,8.533 4.128,8.290 4.055 C 8.033 3.978,3.943 3.979,3.695 4.057 M19.000 9.000 L 19.000 10.000 16.000 10.000 L 13.000 10.000 13.000 9.000 L 13.000 8.000 16.000 8.000 L 19.000 8.000 19.000 9.000 M19.000 17.000 L 19.000 18.000 16.000 18.000 L 13.000 18.000 13.000 17.000 L 13.000 16.000 16.000 16.000 L 19.000 16.000 19.000 17.000 " stroke="none" fill-rule="evenodd" fill="black"></path></svg>