<svg xmlns="http://www.w3.org/2000/svg" width="24" height="24" viewBox="0 0 24 24" fill="none" stroke="currentColor" stroke-width="2" stroke-linecap="round" stroke-linejoin="round"><path d="M5.643 4.069 C 5.126 4.251,4.848 4.952,5.099 5.438 C 5.135 5.508,6.406 7.013,7.923 8.783 L 10.680 12.000 7.903 15.240 C 5.533 18.005,5.117 18.510,5.058 18.685 C 4.887 19.202,5.159 19.760,5.670 19.943 C 5.793 19.987,6.866 19.997,11.542 19.998 C 17.778 20.000,17.464 20.011,17.930 19.775 C 18.196 19.640,18.638 19.200,18.771 18.937 C 18.987 18.512,19.005 18.346,18.992 16.966 L 18.980 15.700 18.871 15.514 C 18.479 14.848,17.521 14.848,17.129 15.514 L 17.020 15.700 17.008 16.850 L 16.995 18.000 12.593 18.000 C 8.428 18.000,8.193 17.996,8.245 17.931 C 8.275 17.893,9.320 16.670,10.568 15.214 C 11.815 13.757,12.867 12.506,12.907 12.433 C 13.006 12.249,13.006 11.751,12.907 11.567 C 12.867 11.494,11.815 10.243,10.568 8.786 C 9.320 7.330,8.275 6.107,8.245 6.069 C 8.193 6.004,8.428 6.000,12.593 6.000 L 16.995 6.000 17.008 7.153 L 17.020 8.307 17.141 8.503 C 17.543 9.156,18.457 9.156,18.859 8.503 L 18.980 8.306 18.992 7.058 C 19.005 5.700,18.981 5.478,18.782 5.083 C 18.646 4.816,18.297 4.449,18.017 4.281 C 17.530 3.988,17.920 4.005,11.540 4.005 C 6.463 4.006,5.800 4.013,5.643 4.069 " stroke="none" fill-rule="evenodd" fill="black"></path></svg>