<svg xmlns="http://www.w3.org/2000/svg" width="24" height="24" viewBox="0 0 24 24" fill="none" stroke="currentColor" stroke-width="2" stroke-linecap="round" stroke-linejoin="round"><path d="M10.695 2.057 C 10.466 2.129,10.256 2.299,10.128 2.516 C 10.020 2.699,10.020 2.703,10.020 3.503 L 10.020 4.306 10.141 4.503 C 10.543 5.156,11.457 5.156,11.859 4.503 L 11.980 4.306 11.980 3.503 C 11.980 2.703,11.980 2.699,11.872 2.516 C 11.628 2.101,11.150 1.915,10.695 2.057 M4.270 4.661 C 4.048 4.742,3.850 4.909,3.728 5.116 C 3.636 5.272,3.620 5.345,3.621 5.600 C 3.622 5.990,3.671 6.078,4.175 6.594 C 4.661 7.091,4.842 7.222,5.103 7.269 C 5.815 7.395,6.395 6.815,6.269 6.103 C 6.221 5.836,6.089 5.656,5.571 5.156 C 5.233 4.830,5.087 4.716,4.939 4.666 C 4.708 4.587,4.475 4.586,4.270 4.661 M17.045 4.668 C 16.854 4.736,16.082 5.446,15.880 5.740 C 15.379 6.470,16.011 7.422,16.895 7.270 C 17.154 7.225,17.339 7.091,17.825 6.594 C 18.329 6.078,18.378 5.990,18.379 5.600 C 18.380 5.345,18.364 5.272,18.272 5.116 C 18.018 4.684,17.517 4.501,17.045 4.668 M10.225 7.063 C 9.134 7.233,8.165 7.746,7.369 8.575 C 6.710 9.262,6.305 10.044,6.092 11.040 C 5.983 11.554,5.994 12.576,6.114 13.059 C 6.432 14.342,7.095 15.344,8.100 16.062 C 8.511 16.355,8.724 16.447,9.000 16.449 C 9.816 16.457,10.301 15.480,9.789 14.860 C 9.723 14.780,9.529 14.616,9.357 14.495 C 8.383 13.813,7.886 12.721,8.039 11.600 C 8.177 10.591,8.785 9.745,9.690 9.303 C 10.134 9.086,10.424 9.024,11.000 9.023 C 11.587 9.022,11.860 9.084,12.340 9.326 C 12.847 9.582,13.155 9.855,13.487 10.340 C 13.812 10.815,14.008 10.954,14.407 10.990 C 14.612 11.009,14.670 10.996,14.890 10.885 C 15.183 10.738,15.336 10.556,15.426 10.247 C 15.532 9.882,15.458 9.647,15.058 9.080 C 14.808 8.724,14.197 8.118,13.859 7.891 C 12.780 7.166,11.476 6.868,10.225 7.063 M19.695 8.054 C 19.463 8.131,19.255 8.301,19.128 8.516 C 19.036 8.672,19.020 8.746,19.020 9.003 C 19.020 9.271,19.034 9.329,19.141 9.503 C 19.294 9.751,19.579 9.948,19.831 9.979 C 20.227 10.028,20.436 10.087,20.574 10.192 C 21.162 10.634,21.117 11.500,20.486 11.871 L 20.300 11.980 17.520 12.000 C 15.418 12.015,14.713 12.032,14.627 12.070 C 14.428 12.158,14.239 12.328,14.128 12.516 C 14.037 12.672,14.020 12.746,14.020 13.000 C 14.020 13.257,14.036 13.327,14.133 13.492 C 14.262 13.711,14.502 13.901,14.727 13.962 C 14.829 13.989,15.844 13.999,17.731 13.991 L 20.580 13.979 20.860 13.885 C 21.849 13.556,22.582 12.815,22.886 11.840 C 23.021 11.406,23.021 10.594,22.886 10.160 C 22.581 9.179,21.808 8.404,20.863 8.130 C 20.463 8.015,19.922 7.979,19.695 8.054 M1.695 11.057 C 1.466 11.129,1.256 11.299,1.128 11.516 C 1.037 11.672,1.020 11.746,1.020 12.000 C 1.020 12.256,1.036 12.328,1.131 12.489 C 1.256 12.702,1.449 12.864,1.670 12.943 C 1.878 13.017,3.122 13.017,3.330 12.943 C 3.551 12.864,3.744 12.702,3.869 12.489 C 3.964 12.328,3.980 12.256,3.980 12.000 C 3.980 11.746,3.963 11.672,3.872 11.516 C 3.740 11.293,3.533 11.128,3.290 11.055 C 3.050 10.983,1.928 10.984,1.695 11.057 M11.695 15.056 C 11.465 15.129,11.256 15.299,11.128 15.516 C 11.037 15.672,11.020 15.746,11.020 16.000 C 11.020 16.256,11.036 16.328,11.131 16.489 C 11.256 16.702,11.449 16.864,11.670 16.943 C 11.790 16.986,12.442 16.997,14.963 16.998 C 18.529 17.000,18.382 16.988,18.697 17.303 C 18.970 17.577,19.057 17.919,18.945 18.290 C 18.872 18.531,18.708 18.740,18.490 18.868 C 18.339 18.956,18.245 18.976,17.860 19.000 C 17.471 19.024,17.382 19.043,17.225 19.135 C 16.905 19.323,16.720 19.644,16.720 20.014 C 16.720 20.429,17.047 20.853,17.452 20.964 C 17.710 21.034,18.518 20.986,18.860 20.879 C 19.826 20.578,20.582 19.818,20.886 18.840 C 21.021 18.406,21.021 17.594,20.886 17.160 C 20.585 16.194,19.862 15.458,18.887 15.125 L 18.580 15.020 15.220 15.012 C 12.540 15.005,11.827 15.014,11.695 15.056 M4.883 16.802 C 4.672 16.898,3.880 17.660,3.734 17.908 C 3.462 18.369,3.632 18.988,4.108 19.267 C 4.273 19.364,4.343 19.380,4.600 19.380 C 4.853 19.380,4.928 19.363,5.080 19.273 C 5.346 19.116,6.102 18.331,6.199 18.111 C 6.495 17.442,6.028 16.718,5.302 16.721 C 5.147 16.721,4.997 16.751,4.883 16.802 M10.695 19.057 C 10.466 19.129,10.256 19.299,10.128 19.516 C 10.020 19.699,10.020 19.703,10.020 20.503 L 10.020 21.306 10.141 21.503 C 10.543 22.156,11.457 22.156,11.859 21.503 L 11.980 21.306 11.980 20.503 C 11.980 19.703,11.980 19.699,11.872 19.516 C 11.628 19.101,11.150 18.915,10.695 19.057 " stroke="none" fill-rule="evenodd" fill="black"></path></svg>