<svg xmlns="http://www.w3.org/2000/svg" width="24" height="24" viewBox="0 0 24 24" fill="none" stroke="currentColor" stroke-width="2" stroke-linecap="round" stroke-linejoin="round"><path d="M11.695 2.057 C 11.466 2.129,11.256 2.299,11.128 2.516 C 11.020 2.699,11.020 2.703,11.020 3.503 L 11.020 4.306 11.141 4.503 C 11.543 5.156,12.457 5.156,12.859 4.503 L 12.980 4.306 12.980 3.503 C 12.980 2.703,12.980 2.699,12.872 2.516 C 12.628 2.101,12.150 1.915,11.695 2.057 M5.270 4.661 C 5.048 4.742,4.850 4.909,4.728 5.116 C 4.636 5.272,4.620 5.345,4.621 5.600 C 4.622 5.990,4.671 6.078,5.175 6.594 C 5.661 7.091,5.842 7.222,6.103 7.269 C 6.816 7.395,7.393 6.820,7.270 6.105 C 7.224 5.840,7.089 5.656,6.571 5.156 C 6.233 4.830,6.087 4.716,5.939 4.666 C 5.708 4.587,5.475 4.586,5.270 4.661 M19.671 6.064 C 19.563 6.097,19.415 6.186,19.327 6.271 C 19.168 6.425,16.149 11.412,16.054 11.680 C 15.933 12.018,16.033 12.435,16.299 12.701 C 16.580 12.983,16.681 13.000,18.027 13.000 C 18.672 13.000,19.200 13.011,19.200 13.024 C 19.200 13.037,18.728 13.833,18.152 14.794 C 17.575 15.754,17.081 16.603,17.054 16.680 C 16.901 17.107,17.096 17.626,17.499 17.862 C 17.840 18.061,18.299 18.028,18.624 17.780 C 18.718 17.708,19.216 16.913,20.333 15.049 C 21.200 13.603,21.932 12.350,21.960 12.264 C 22.072 11.916,21.920 11.452,21.618 11.221 C 21.352 11.018,21.212 11.000,19.936 11.000 L 18.764 11.000 19.864 9.166 C 20.867 7.494,20.967 7.312,20.987 7.111 C 21.020 6.798,20.917 6.513,20.695 6.297 C 20.411 6.021,20.066 5.942,19.671 6.064 M11.400 7.044 C 9.761 7.229,8.261 8.290,7.526 9.785 C 7.158 10.533,7.020 11.136,7.020 12.000 C 7.020 12.670,7.078 13.044,7.268 13.600 C 7.843 15.283,9.269 16.537,11.020 16.900 C 11.449 16.989,12.058 17.021,12.264 16.965 C 12.498 16.901,12.737 16.714,12.867 16.492 C 12.964 16.327,12.980 16.257,12.980 16.000 C 12.980 15.746,12.963 15.672,12.872 15.516 C 12.758 15.323,12.562 15.150,12.373 15.076 C 12.311 15.052,12.071 15.016,11.840 14.996 C 11.609 14.976,11.294 14.922,11.140 14.876 C 10.195 14.594,9.416 13.815,9.125 12.861 C 9.042 12.588,9.027 12.458,9.027 12.000 C 9.027 11.542,9.042 11.412,9.125 11.139 C 9.415 10.187,10.199 9.402,11.129 9.133 C 11.299 9.084,11.637 9.026,11.879 9.005 C 12.242 8.974,12.353 8.949,12.502 8.861 C 13.248 8.424,13.116 7.304,12.290 7.055 C 12.091 6.995,11.861 6.992,11.400 7.044 M2.695 11.057 C 2.466 11.129,2.256 11.299,2.128 11.516 C 2.037 11.672,2.020 11.746,2.020 12.000 C 2.020 12.256,2.036 12.328,2.131 12.489 C 2.256 12.702,2.449 12.864,2.670 12.943 C 2.878 13.017,4.122 13.017,4.330 12.943 C 4.551 12.864,4.744 12.702,4.869 12.489 C 4.964 12.328,4.980 12.256,4.980 12.000 C 4.980 11.746,4.963 11.672,4.872 11.516 C 4.740 11.293,4.533 11.128,4.290 11.055 C 4.050 10.983,2.928 10.984,2.695 11.057 M5.883 16.802 C 5.672 16.898,4.880 17.660,4.734 17.908 C 4.462 18.369,4.632 18.988,5.108 19.267 C 5.273 19.364,5.342 19.380,5.600 19.379 C 5.815 19.379,5.940 19.357,6.040 19.304 C 6.210 19.213,6.964 18.483,7.121 18.257 C 7.347 17.932,7.336 17.446,7.095 17.108 C 6.842 16.752,6.297 16.614,5.883 16.802 M11.695 19.057 C 11.466 19.129,11.256 19.299,11.128 19.516 C 11.020 19.699,11.020 19.703,11.020 20.503 L 11.020 21.306 11.141 21.503 C 11.543 22.156,12.457 22.156,12.859 21.503 L 12.980 21.306 12.980 20.503 C 12.980 19.703,12.980 19.699,12.872 19.516 C 12.628 19.101,12.150 18.915,11.695 19.057 " stroke="none" fill-rule="evenodd" fill="black"></path></svg>