<svg xmlns="http://www.w3.org/2000/svg" width="24" height="24" viewBox="0 0 24 24" fill="none" stroke="currentColor" stroke-width="2" stroke-linecap="round" stroke-linejoin="round"><path d="M2.670 2.061 C 2.448 2.142,2.250 2.309,2.128 2.516 C 2.037 2.672,2.020 2.746,2.020 3.000 C 2.020 3.254,2.036 3.327,2.127 3.480 C 2.188 3.581,3.455 4.879,5.017 6.440 C 6.548 7.969,7.800 9.236,7.800 9.255 C 7.800 9.275,7.746 9.379,7.680 9.487 C 7.140 10.364,6.883 11.714,7.056 12.766 C 7.228 13.816,7.672 14.701,8.410 15.466 C 9.859 16.966,12.042 17.413,13.947 16.599 C 14.151 16.512,14.406 16.387,14.513 16.320 C 14.621 16.254,14.725 16.200,14.745 16.200 C 14.764 16.200,16.031 17.452,17.560 18.983 C 19.121 20.545,20.419 21.812,20.520 21.873 C 20.673 21.964,20.746 21.980,21.000 21.980 C 21.257 21.980,21.327 21.964,21.492 21.867 C 21.968 21.587,22.139 20.967,21.865 20.508 C 21.810 20.416,17.665 16.243,12.653 11.235 C 4.231 2.820,3.525 2.125,3.343 2.065 C 3.107 1.987,2.874 1.986,2.670 2.061 M11.695 2.057 C 11.466 2.129,11.256 2.299,11.128 2.516 C 11.020 2.699,11.020 2.703,11.020 3.503 L 11.020 4.306 11.141 4.503 C 11.543 5.156,12.457 5.156,12.859 4.503 L 12.980 4.306 12.980 3.503 C 12.980 2.703,12.980 2.699,12.872 2.516 C 12.628 2.101,12.150 1.915,11.695 2.057 M18.045 4.668 C 17.854 4.736,17.082 5.446,16.880 5.740 C 16.379 6.470,17.011 7.422,17.895 7.270 C 18.154 7.225,18.339 7.091,18.825 6.594 C 19.329 6.078,19.378 5.990,19.379 5.600 C 19.380 5.345,19.364 5.272,19.272 5.116 C 19.018 4.684,18.517 4.501,18.045 4.668 M11.695 7.057 C 11.051 7.258,10.799 8.040,11.198 8.591 C 11.397 8.866,11.610 8.961,12.121 9.005 C 13.071 9.087,13.723 9.410,14.304 10.088 C 14.716 10.569,14.930 11.123,14.995 11.883 C 15.028 12.264,15.050 12.354,15.148 12.514 C 15.543 13.156,16.461 13.151,16.859 12.503 C 16.976 12.313,16.980 12.289,16.979 11.843 C 16.975 10.311,16.114 8.742,14.800 7.874 C 14.046 7.375,13.396 7.135,12.552 7.043 C 12.065 6.989,11.903 6.992,11.695 7.057 M13.256 14.726 C 13.201 14.815,12.558 14.969,12.158 14.989 C 10.925 15.052,9.835 14.407,9.301 13.300 C 9.065 12.811,9.020 12.596,9.021 11.980 C 9.023 11.462,9.065 11.228,9.225 10.842 L 9.283 10.703 11.279 12.699 C 12.377 13.797,13.267 14.709,13.256 14.726 M2.695 11.057 C 2.466 11.129,2.256 11.299,2.128 11.516 C 2.037 11.672,2.020 11.746,2.020 12.000 C 2.020 12.256,2.036 12.328,2.131 12.489 C 2.256 12.702,2.449 12.864,2.670 12.943 C 2.878 13.017,4.122 13.017,4.330 12.943 C 4.551 12.864,4.744 12.702,4.869 12.489 C 4.964 12.328,4.980 12.256,4.980 12.000 C 4.980 11.746,4.963 11.672,4.872 11.516 C 4.740 11.293,4.533 11.128,4.290 11.055 C 4.050 10.983,2.928 10.984,2.695 11.057 M19.695 11.057 C 19.466 11.129,19.256 11.299,19.128 11.516 C 19.037 11.672,19.020 11.746,19.020 12.000 C 19.020 12.256,19.036 12.328,19.131 12.489 C 19.256 12.702,19.449 12.864,19.670 12.943 C 19.878 13.017,21.122 13.017,21.330 12.943 C 21.551 12.864,21.744 12.702,21.869 12.489 C 21.964 12.328,21.980 12.256,21.980 12.000 C 21.980 11.746,21.963 11.672,21.872 11.516 C 21.740 11.293,21.533 11.128,21.290 11.055 C 21.050 10.983,19.928 10.984,19.695 11.057 M5.883 16.802 C 5.672 16.898,4.880 17.660,4.734 17.908 C 4.462 18.369,4.632 18.988,5.108 19.267 C 5.273 19.364,5.342 19.380,5.600 19.379 C 5.815 19.379,5.940 19.357,6.040 19.304 C 6.210 19.213,6.964 18.483,7.121 18.257 C 7.347 17.932,7.336 17.446,7.095 17.108 C 6.842 16.752,6.297 16.614,5.883 16.802 M11.695 19.057 C 11.466 19.129,11.256 19.299,11.128 19.516 C 11.020 19.699,11.020 19.703,11.020 20.503 L 11.020 21.306 11.141 21.503 C 11.543 22.156,12.457 22.156,12.859 21.503 L 12.980 21.306 12.980 20.503 C 12.980 19.703,12.980 19.699,12.872 19.516 C 12.628 19.101,12.150 18.915,11.695 19.057 " stroke="none" fill-rule="evenodd" fill="black"></path></svg>