<svg xmlns="http://www.w3.org/2000/svg" width="24" height="24" viewBox="0 0 24 24" fill="none" stroke="currentColor" stroke-width="2" stroke-linecap="round" stroke-linejoin="round"><path d="M11.695 2.057 C 11.466 2.129,11.256 2.299,11.128 2.516 L 11.020 2.700 11.009 4.635 L 10.997 6.571 10.269 5.852 C 9.655 5.247,9.509 5.123,9.343 5.067 C 8.865 4.905,8.383 5.083,8.128 5.516 C 8.037 5.672,8.020 5.746,8.020 6.000 C 8.020 6.254,8.036 6.328,8.127 6.480 C 8.261 6.704,11.368 9.804,11.560 9.905 C 11.754 10.007,12.246 10.007,12.440 9.905 C 12.632 9.804,15.739 6.704,15.873 6.480 C 15.964 6.328,15.980 6.254,15.980 6.000 C 15.980 5.746,15.963 5.672,15.872 5.516 C 15.617 5.083,15.135 4.905,14.657 5.067 C 14.491 5.123,14.345 5.247,13.731 5.852 L 13.003 6.571 12.991 4.635 L 12.980 2.700 12.872 2.516 C 12.628 2.101,12.150 1.915,11.695 2.057 M5.270 9.661 C 5.048 9.742,4.850 9.909,4.728 10.116 C 4.636 10.272,4.620 10.345,4.621 10.600 C 4.622 10.990,4.671 11.078,5.175 11.594 C 5.661 12.091,5.842 12.222,6.103 12.269 C 6.816 12.395,7.393 11.820,7.270 11.105 C 7.224 10.840,7.089 10.656,6.571 10.156 C 6.233 9.830,6.087 9.716,5.939 9.666 C 5.708 9.587,5.475 9.586,5.270 9.661 M18.045 9.668 C 17.854 9.736,17.082 10.446,16.880 10.740 C 16.379 11.470,17.011 12.422,17.895 12.270 C 18.154 12.225,18.339 12.091,18.825 11.594 C 19.329 11.078,19.378 10.990,19.379 10.600 C 19.380 10.345,19.364 10.272,19.272 10.116 C 19.018 9.684,18.517 9.501,18.045 9.668 M11.400 12.044 C 9.761 12.229,8.261 13.290,7.526 14.785 C 7.186 15.475,7.023 16.142,7.021 16.843 C 7.020 17.289,7.024 17.313,7.141 17.503 C 7.539 18.151,8.457 18.156,8.852 17.514 C 8.950 17.354,8.972 17.264,9.005 16.883 C 9.026 16.638,9.084 16.299,9.133 16.129 C 9.402 15.199,10.187 14.415,11.139 14.125 C 11.412 14.042,11.542 14.027,12.000 14.027 C 12.458 14.027,12.588 14.042,12.861 14.125 C 13.813 14.415,14.598 15.199,14.867 16.129 C 14.916 16.299,14.974 16.638,14.995 16.883 C 15.028 17.264,15.050 17.354,15.148 17.514 C 15.543 18.156,16.461 18.151,16.859 17.503 C 16.976 17.313,16.980 17.289,16.979 16.843 C 16.975 15.076,15.872 13.354,14.213 12.525 C 13.352 12.095,12.397 11.932,11.400 12.044 M2.695 16.057 C 2.466 16.129,2.256 16.299,2.128 16.516 C 2.037 16.672,2.020 16.746,2.020 17.000 C 2.020 17.256,2.036 17.328,2.131 17.489 C 2.256 17.702,2.449 17.864,2.670 17.943 C 2.878 18.017,4.122 18.017,4.330 17.943 C 4.551 17.864,4.744 17.702,4.869 17.489 C 4.964 17.328,4.980 17.256,4.980 17.000 C 4.980 16.746,4.963 16.672,4.872 16.516 C 4.740 16.293,4.533 16.128,4.290 16.055 C 4.050 15.983,2.928 15.984,2.695 16.057 M19.695 16.057 C 19.466 16.129,19.256 16.299,19.128 16.516 C 19.037 16.672,19.020 16.746,19.020 17.000 C 19.020 17.256,19.036 17.328,19.131 17.489 C 19.256 17.702,19.449 17.864,19.670 17.943 C 19.878 18.017,21.122 18.017,21.330 17.943 C 21.551 17.864,21.744 17.702,21.869 17.489 C 21.964 17.328,21.980 17.256,21.980 17.000 C 21.980 16.746,21.963 16.672,21.872 16.516 C 21.740 16.293,21.533 16.128,21.290 16.055 C 21.050 15.983,19.928 15.984,19.695 16.057 M2.695 20.057 C 2.466 20.129,2.256 20.299,2.128 20.516 C 2.037 20.672,2.020 20.746,2.020 21.000 C 2.020 21.256,2.036 21.328,2.131 21.489 C 2.256 21.702,2.449 21.864,2.670 21.943 C 2.893 22.023,21.107 22.023,21.330 21.943 C 21.551 21.864,21.744 21.702,21.869 21.489 C 21.964 21.328,21.980 21.256,21.980 21.000 C 21.980 20.746,21.963 20.672,21.872 20.516 C 21.740 20.293,21.533 20.128,21.290 20.055 C 21.027 19.976,2.947 19.978,2.695 20.057 " stroke="none" fill-rule="evenodd" fill="black"></path></svg>