<svg xmlns="http://www.w3.org/2000/svg" width="24" height="24" viewBox="0 0 24 24" fill="none" stroke="currentColor" stroke-width="2" stroke-linecap="round" stroke-linejoin="round"><path d="M3.477 7.073 C 2.806 7.249,2.238 7.823,2.060 8.508 C 2.013 8.687,2.000 9.009,2.000 10.000 C 2.000 11.368,2.018 11.521,2.225 11.930 C 2.361 12.199,2.801 12.639,3.070 12.775 C 3.472 12.979,3.642 13.000,4.868 13.000 L 6.000 13.000 6.000 14.000 L 6.000 15.000 4.446 15.000 C 2.758 15.000,2.658 15.011,2.382 15.221 C 2.302 15.282,2.187 15.415,2.128 15.516 C 2.037 15.672,2.020 15.746,2.020 16.000 C 2.020 16.256,2.036 16.328,2.131 16.489 C 2.192 16.592,2.304 16.725,2.381 16.783 C 2.656 16.993,2.689 16.996,4.542 16.998 C 6.408 17.000,6.503 16.991,6.930 16.775 C 7.196 16.640,7.638 16.200,7.771 15.937 C 7.979 15.527,8.000 15.352,7.999 14.014 C 7.999 12.682,7.974 12.463,7.781 12.083 C 7.646 11.816,7.297 11.449,7.017 11.281 C 6.609 11.035,6.405 11.005,5.130 11.002 L 4.000 11.000 4.000 10.000 L 4.000 9.000 5.590 8.998 C 7.300 8.996,7.346 8.991,7.619 8.783 C 7.696 8.725,7.808 8.592,7.869 8.489 C 7.964 8.328,7.980 8.256,7.980 8.000 C 7.980 7.746,7.963 7.672,7.872 7.516 C 7.813 7.415,7.698 7.282,7.618 7.221 C 7.339 7.008,7.253 7.000,5.424 7.002 C 3.966 7.004,3.705 7.014,3.477 7.073 M9.643 7.069 C 9.299 7.190,9.000 7.614,9.000 7.981 C 9.000 8.130,10.500 16.158,10.565 16.355 C 10.630 16.551,10.870 16.798,11.100 16.906 C 11.286 16.992,11.350 16.999,12.000 16.999 C 12.650 16.999,12.714 16.992,12.900 16.906 C 13.130 16.798,13.370 16.551,13.435 16.355 C 13.500 16.158,15.000 8.130,15.000 7.981 C 15.000 7.473,14.518 7.000,14.000 7.000 C 13.618 7.000,13.190 7.296,13.073 7.642 C 13.039 7.740,12.789 9.013,12.517 10.470 C 12.244 11.928,12.012 13.120,12.000 13.120 C 11.988 13.120,11.756 11.928,11.483 10.470 C 11.211 9.013,10.961 7.740,10.927 7.642 C 10.763 7.156,10.160 6.886,9.643 7.069 M18.499 7.043 C 17.383 7.230,16.461 8.048,16.114 9.160 L 16.020 9.460 16.020 12.000 L 16.020 14.540 16.114 14.840 C 16.422 15.827,17.173 16.578,18.160 16.886 C 18.451 16.977,18.503 16.980,19.880 16.980 L 21.300 16.980 21.492 16.867 C 21.711 16.739,21.901 16.498,21.961 16.275 C 21.988 16.176,21.999 15.337,21.991 13.911 L 21.980 11.700 21.872 11.516 C 21.629 11.102,21.357 11.000,20.500 11.000 C 19.643 11.000,19.371 11.102,19.128 11.516 C 19.036 11.672,19.020 11.746,19.020 12.003 C 19.020 12.271,19.034 12.329,19.141 12.503 C 19.288 12.742,19.578 12.946,19.821 12.982 L 20.000 13.009 20.000 14.008 L 20.000 15.007 19.350 14.993 C 18.728 14.981,18.692 14.975,18.516 14.872 C 18.415 14.813,18.284 14.700,18.225 14.623 C 18.000 14.327,18.000 14.332,18.000 12.022 C 18.000 9.586,17.997 9.609,18.303 9.303 C 18.587 9.019,18.694 9.000,20.037 8.998 C 21.266 8.996,21.356 8.984,21.619 8.783 C 21.696 8.725,21.808 8.592,21.869 8.489 C 21.964 8.328,21.980 8.256,21.980 8.000 C 21.980 7.746,21.963 7.672,21.872 7.516 C 21.813 7.415,21.698 7.282,21.618 7.221 C 21.350 7.016,21.216 7.000,19.904 7.005 C 19.242 7.007,18.609 7.025,18.499 7.043 " stroke="none" fill-rule="evenodd" fill="black"></path></svg>