<svg xmlns="http://www.w3.org/2000/svg" width="24" height="24" viewBox="0 0 24 24" fill="none" stroke="currentColor" stroke-width="2" stroke-linecap="round" stroke-linejoin="round"><path d="M7.400 7.044 C 5.761 7.229,4.261 8.290,3.526 9.785 C 3.158 10.533,3.020 11.136,3.020 12.000 C 3.020 12.670,3.078 13.044,3.268 13.600 C 3.846 15.291,5.253 16.525,7.040 16.907 C 7.511 17.008,8.489 17.008,8.960 16.907 C 10.207 16.640,11.295 15.946,12.034 14.948 C 12.382 14.476,12.775 13.624,12.861 13.150 L 12.889 13.000 15.233 13.000 L 17.577 13.000 16.873 13.710 C 16.486 14.101,16.136 14.483,16.096 14.560 C 16.043 14.660,16.021 14.787,16.021 15.000 C 16.020 15.258,16.036 15.327,16.133 15.492 C 16.263 15.714,16.502 15.901,16.736 15.965 C 16.939 16.019,17.267 15.989,17.445 15.899 C 17.519 15.862,18.306 15.109,19.194 14.226 C 20.957 12.472,20.999 12.420,20.999 12.000 C 20.999 11.578,20.960 11.530,19.175 9.756 C 17.716 8.307,17.519 8.124,17.343 8.066 C 16.863 7.906,16.382 8.084,16.128 8.516 C 16.036 8.672,16.020 8.745,16.021 9.000 C 16.021 9.213,16.043 9.340,16.096 9.440 C 16.136 9.517,16.486 9.900,16.873 10.290 L 17.577 11.000 15.235 11.000 L 12.893 11.000 12.842 10.773 C 12.660 9.961,12.116 9.031,11.452 8.396 C 10.365 7.358,8.912 6.874,7.400 7.044 M8.861 9.129 C 9.804 9.405,10.584 10.183,10.875 11.139 C 10.958 11.412,10.973 11.542,10.973 12.000 C 10.973 12.458,10.958 12.588,10.875 12.861 C 10.582 13.822,9.819 14.581,8.840 14.886 C 8.406 15.021,7.594 15.021,7.160 14.886 C 6.181 14.581,5.418 13.822,5.125 12.861 C 5.042 12.588,5.027 12.458,5.027 12.000 C 5.027 11.542,5.042 11.412,5.125 11.139 C 5.456 10.054,6.371 9.245,7.499 9.040 C 7.832 8.980,8.500 9.023,8.861 9.129 " stroke="none" fill-rule="evenodd" fill="black"></path></svg>