<svg xmlns="http://www.w3.org/2000/svg" width="24" height="24" viewBox="0 0 24 24" fill="none" stroke="currentColor" stroke-width="2" stroke-linecap="round" stroke-linejoin="round"><path d="M15.400 7.044 C 13.761 7.229,12.261 8.290,11.526 9.785 C 11.359 10.124,11.183 10.608,11.139 10.850 L 11.111 11.000 8.767 11.000 L 6.423 11.000 7.127 10.290 C 7.514 9.900,7.864 9.517,7.904 9.440 C 7.957 9.340,7.979 9.213,7.979 9.000 C 7.980 8.745,7.964 8.672,7.872 8.516 C 7.618 8.084,7.137 7.906,6.657 8.066 C 6.481 8.124,6.284 8.307,4.825 9.756 C 3.040 11.530,3.001 11.578,3.001 12.000 C 3.001 12.420,3.043 12.472,4.806 14.226 C 5.694 15.109,6.483 15.865,6.560 15.905 C 6.659 15.957,6.788 15.979,7.000 15.979 C 7.258 15.980,7.327 15.964,7.492 15.867 C 7.714 15.737,7.901 15.498,7.965 15.264 C 8.019 15.061,7.989 14.733,7.899 14.555 C 7.861 14.481,7.514 14.101,7.127 13.710 L 6.423 13.000 8.767 13.000 L 11.111 13.000 11.139 13.150 C 11.183 13.392,11.359 13.876,11.526 14.215 C 12.203 15.592,13.486 16.574,15.040 16.907 C 15.511 17.008,16.489 17.008,16.960 16.907 C 18.488 16.580,19.748 15.630,20.433 14.288 C 20.838 13.494,20.980 12.899,20.980 12.000 C 20.980 11.101,20.838 10.506,20.433 9.713 C 19.794 8.461,18.604 7.510,17.240 7.162 C 16.669 7.016,16.019 6.974,15.400 7.044 M16.861 9.129 C 17.804 9.405,18.584 10.183,18.875 11.139 C 18.958 11.412,18.973 11.542,18.973 12.000 C 18.973 12.458,18.958 12.588,18.875 12.861 C 18.582 13.822,17.819 14.581,16.840 14.886 C 16.406 15.021,15.594 15.021,15.160 14.886 C 14.181 14.581,13.418 13.822,13.125 12.861 C 13.042 12.588,13.027 12.458,13.027 12.000 C 13.027 11.542,13.042 11.412,13.125 11.139 C 13.456 10.054,14.371 9.245,15.499 9.040 C 15.832 8.980,16.500 9.023,16.861 9.129 " stroke="none" fill-rule="evenodd" fill="black"></path></svg>