<svg xmlns="http://www.w3.org/2000/svg" width="24" height="24" viewBox="0 0 24 24" fill="none" stroke="currentColor" stroke-width="2" stroke-linecap="round" stroke-linejoin="round"><path d="M14.695 3.057 C 14.051 3.258,13.799 4.040,14.198 4.591 C 14.263 4.681,14.403 4.805,14.508 4.867 L 14.700 4.980 15.793 5.000 L 16.885 5.020 15.396 6.860 C 14.577 7.872,13.875 8.772,13.835 8.860 C 13.671 9.218,13.760 9.642,14.062 9.946 C 14.380 10.266,14.794 10.335,15.195 10.135 C 15.386 10.040,15.525 9.882,16.693 8.439 L 17.980 6.848 18.000 7.577 C 18.020 8.304,18.020 8.307,18.141 8.503 C 18.543 9.156,19.457 9.156,19.859 8.503 L 19.980 8.306 19.991 6.063 C 20.002 4.053,19.996 3.802,19.937 3.646 C 19.845 3.405,19.657 3.204,19.420 3.094 L 19.220 3.001 17.040 3.003 C 15.374 3.005,14.821 3.018,14.695 3.057 M4.670 4.061 C 4.448 4.142,4.250 4.309,4.128 4.516 C 4.036 4.672,4.020 4.745,4.021 5.000 C 4.021 5.212,4.043 5.341,4.095 5.440 C 4.135 5.517,6.960 8.374,10.374 11.790 L 16.580 18.000 15.736 18.000 C 14.812 18.000,14.634 18.029,14.382 18.221 C 14.302 18.282,14.187 18.415,14.128 18.516 C 14.037 18.672,14.020 18.746,14.020 19.000 C 14.020 19.256,14.036 19.328,14.131 19.489 C 14.256 19.702,14.449 19.864,14.670 19.943 C 14.788 19.985,15.286 19.997,17.020 19.998 L 19.220 19.999 19.420 19.906 C 19.657 19.796,19.845 19.595,19.937 19.354 C 19.996 19.198,20.002 18.948,19.991 16.940 L 19.980 14.700 19.871 14.514 C 19.479 13.848,18.521 13.848,18.129 14.514 L 18.020 14.700 18.007 15.637 L 17.995 16.574 11.767 10.352 C 6.031 4.620,5.524 4.125,5.343 4.065 C 5.107 3.987,4.874 3.986,4.670 4.061 M8.640 14.068 C 8.486 14.121,8.151 14.438,6.347 16.235 C 5.185 17.393,4.189 18.416,4.134 18.508 C 3.862 18.968,4.032 19.587,4.508 19.867 C 4.673 19.964,4.742 19.980,5.000 19.979 C 5.212 19.979,5.341 19.957,5.440 19.905 C 5.632 19.805,9.739 15.705,9.873 15.480 C 9.964 15.328,9.980 15.254,9.980 15.000 C 9.980 14.746,9.963 14.672,9.872 14.516 C 9.617 14.083,9.121 13.903,8.640 14.068 " stroke="none" fill-rule="evenodd" fill="black"></path></svg>