<svg xmlns="http://www.w3.org/2000/svg" width="24" height="24" viewBox="0 0 24 24" fill="none" stroke="currentColor" stroke-width="2" stroke-linecap="round" stroke-linejoin="round"><path d="M17.670 3.061 C 17.448 3.142,17.250 3.309,17.128 3.516 C 17.036 3.672,17.020 3.745,17.021 4.000 C 17.021 4.213,17.043 4.340,17.096 4.440 C 17.136 4.517,17.484 4.897,17.868 5.284 L 18.566 5.989 17.693 6.012 C 16.463 6.044,15.839 6.185,14.957 6.629 C 13.965 7.129,13.233 7.765,12.619 8.660 C 12.333 9.077,12.271 9.332,12.376 9.663 C 12.519 10.117,12.976 10.436,13.411 10.386 C 13.761 10.345,13.967 10.193,14.338 9.703 C 14.522 9.459,14.733 9.203,14.807 9.134 C 15.049 8.905,15.455 8.621,15.780 8.454 C 16.426 8.120,17.016 8.000,18.019 8.000 L 18.577 8.000 17.873 8.710 C 17.486 9.101,17.139 9.481,17.101 9.555 C 16.872 10.008,17.056 10.601,17.508 10.867 C 17.673 10.964,17.742 10.980,18.000 10.979 C 18.212 10.979,18.341 10.957,18.440 10.905 C 18.517 10.865,19.306 10.109,20.194 9.226 C 21.957 7.472,21.999 7.420,21.999 7.000 C 21.999 6.578,21.960 6.530,20.175 4.756 C 18.716 3.307,18.519 3.124,18.343 3.066 C 18.108 2.987,17.875 2.986,17.670 3.061 M2.695 6.055 C 2.464 6.130,2.255 6.300,2.128 6.516 C 2.037 6.672,2.020 6.746,2.020 7.000 C 2.020 7.256,2.036 7.328,2.131 7.489 C 2.192 7.592,2.304 7.725,2.381 7.783 C 2.649 7.988,2.718 7.996,4.180 7.998 C 5.655 8.000,6.088 8.035,6.580 8.188 C 7.275 8.405,8.034 8.908,8.450 9.427 C 8.570 9.577,9.600 11.032,10.739 12.660 C 11.878 14.288,12.893 15.719,12.995 15.840 C 13.505 16.444,14.134 16.952,14.796 17.292 C 15.830 17.824,16.587 17.998,17.879 17.999 L 18.577 18.000 17.873 18.710 C 17.486 19.101,17.136 19.483,17.096 19.560 C 17.043 19.660,17.021 19.787,17.021 20.000 C 17.020 20.258,17.036 20.327,17.133 20.492 C 17.263 20.714,17.502 20.901,17.736 20.965 C 17.939 21.019,18.267 20.989,18.445 20.899 C 18.519 20.862,19.306 20.109,20.194 19.226 C 21.957 17.472,21.999 17.420,21.999 17.000 C 21.999 16.578,21.960 16.530,20.175 14.756 C 18.716 13.307,18.519 13.124,18.343 13.066 C 17.863 12.906,17.382 13.084,17.128 13.516 C 17.036 13.672,17.020 13.745,17.021 14.000 C 17.021 14.213,17.043 14.340,17.096 14.440 C 17.136 14.517,17.486 14.900,17.873 15.290 L 18.577 16.000 17.934 16.000 C 17.037 16.000,16.466 15.888,15.853 15.590 C 15.379 15.361,14.902 14.999,14.609 14.646 C 14.503 14.520,13.510 13.121,12.401 11.538 C 11.292 9.955,10.304 8.552,10.205 8.420 C 9.314 7.235,8.072 6.446,6.580 6.117 C 6.211 6.036,6.053 6.028,4.520 6.015 C 3.211 6.004,2.825 6.013,2.695 6.055 M9.465 13.645 C 9.163 13.715,9.007 13.842,8.660 14.302 C 8.293 14.787,8.115 14.966,7.717 15.250 C 7.229 15.598,6.656 15.834,6.045 15.941 C 5.793 15.985,5.360 16.000,4.301 16.000 C 2.770 16.000,2.655 16.013,2.382 16.221 C 2.302 16.282,2.187 16.415,2.128 16.516 C 2.037 16.672,2.020 16.746,2.020 17.000 C 2.020 17.256,2.036 17.328,2.131 17.489 C 2.256 17.702,2.449 17.864,2.670 17.943 C 2.892 18.022,5.668 18.020,6.220 17.941 C 7.855 17.705,9.237 16.874,10.248 15.520 C 10.683 14.937,10.754 14.681,10.598 14.265 C 10.429 13.812,9.928 13.538,9.465 13.645 " stroke="none" fill-rule="evenodd" fill="black"></path></svg>