<svg xmlns="http://www.w3.org/2000/svg" width="24" height="24" viewBox="0 0 24 24" fill="none" stroke="currentColor" stroke-width="2" stroke-linecap="round" stroke-linejoin="round"><path d="M17.670 3.061 C 17.448 3.142,17.250 3.309,17.128 3.516 C 17.036 3.672,17.020 3.745,17.021 4.000 C 17.021 4.213,17.043 4.340,17.096 4.440 C 17.136 4.517,17.486 4.899,17.872 5.289 L 18.574 5.997 16.657 6.009 C 14.525 6.021,14.589 6.013,14.301 6.302 C 14.231 6.372,13.781 6.992,13.301 7.680 C 12.265 9.166,12.224 9.260,12.401 9.735 C 12.555 10.146,13.021 10.441,13.429 10.385 C 13.695 10.348,13.978 10.177,14.155 9.944 C 14.240 9.832,14.583 9.348,14.917 8.870 L 15.525 8.000 17.051 8.000 L 18.577 8.000 17.873 8.710 C 17.486 9.101,17.139 9.481,17.101 9.555 C 16.872 10.008,17.056 10.601,17.508 10.867 C 17.673 10.964,17.742 10.980,18.000 10.979 C 18.212 10.979,18.341 10.957,18.440 10.905 C 18.517 10.865,19.306 10.109,20.194 9.226 C 21.957 7.472,21.999 7.420,21.999 7.000 C 21.999 6.578,21.960 6.530,20.175 4.756 C 18.716 3.307,18.519 3.124,18.343 3.066 C 18.108 2.987,17.875 2.986,17.670 3.061 M2.695 6.057 C 2.465 6.129,2.256 6.299,2.128 6.516 C 2.037 6.672,2.020 6.746,2.020 7.000 C 2.020 7.256,2.036 7.328,2.131 7.489 C 2.256 7.702,2.449 7.864,2.670 7.943 C 2.789 7.985,3.308 7.997,5.148 7.998 L 7.476 8.000 10.828 12.789 C 12.672 15.424,14.245 17.644,14.324 17.724 C 14.595 17.996,14.631 18.000,16.716 18.000 L 18.577 18.000 17.873 18.710 C 17.486 19.101,17.136 19.483,17.096 19.560 C 17.043 19.660,17.021 19.787,17.021 20.000 C 17.020 20.258,17.036 20.327,17.133 20.492 C 17.263 20.714,17.502 20.901,17.736 20.965 C 17.939 21.019,18.267 20.989,18.445 20.899 C 18.519 20.862,19.306 20.109,20.194 19.226 C 21.957 17.472,21.999 17.420,21.999 17.000 C 21.999 16.578,21.960 16.530,20.175 14.756 C 18.716 13.307,18.519 13.124,18.343 13.066 C 17.863 12.906,17.382 13.084,17.128 13.516 C 17.036 13.672,17.020 13.745,17.021 14.000 C 17.021 14.213,17.043 14.340,17.096 14.440 C 17.136 14.517,17.486 14.900,17.873 15.290 L 18.577 16.000 17.051 16.000 L 15.524 16.000 12.172 11.211 C 10.328 8.578,8.764 6.367,8.696 6.299 C 8.628 6.231,8.502 6.140,8.416 6.097 C 8.267 6.023,8.141 6.020,5.560 6.012 C 3.431 6.006,2.825 6.015,2.695 6.057 M9.438 13.655 C 9.040 13.761,9.040 13.761,8.083 15.130 L 7.475 16.000 5.184 16.000 C 2.698 16.000,2.669 16.002,2.382 16.221 C 2.302 16.282,2.187 16.415,2.128 16.516 C 2.037 16.672,2.020 16.746,2.020 17.000 C 2.020 17.256,2.036 17.328,2.131 17.489 C 2.256 17.702,2.449 17.864,2.670 17.943 C 2.789 17.986,3.363 17.997,5.483 17.998 C 8.459 18.000,8.396 18.006,8.676 17.723 C 8.755 17.642,9.214 17.013,9.695 16.324 C 10.735 14.835,10.777 14.741,10.598 14.265 C 10.424 13.798,9.911 13.529,9.438 13.655 " stroke="none" fill-rule="evenodd" fill="black"></path></svg>