<svg xmlns="http://www.w3.org/2000/svg" width="24" height="24" viewBox="0 0 24 24" fill="none" stroke="currentColor" stroke-width="2" stroke-linecap="round" stroke-linejoin="round"><path d="M2.670 2.061 C 2.448 2.142,2.250 2.309,2.128 2.516 C 2.036 2.672,2.020 2.745,2.021 3.000 C 2.021 3.212,2.043 3.341,2.095 3.440 C 2.135 3.517,3.672 5.086,5.510 6.926 L 8.852 10.272 8.381 10.879 L 7.910 11.485 7.502 11.084 C 7.033 10.622,6.854 10.522,6.498 10.521 C 5.866 10.519,5.415 11.063,5.529 11.689 C 5.578 11.957,5.645 12.051,6.155 12.570 L 6.579 13.000 4.874 14.710 C 3.936 15.651,3.135 16.483,3.095 16.560 C 2.993 16.754,2.993 17.246,3.095 17.440 C 3.196 17.632,6.296 20.739,6.520 20.873 C 6.673 20.964,6.745 20.980,7.000 20.979 C 7.212 20.979,7.341 20.957,7.440 20.905 C 7.517 20.865,8.349 20.064,9.290 19.126 L 11.000 17.421 11.430 17.845 C 11.946 18.353,12.044 18.423,12.301 18.468 C 13.016 18.595,13.595 18.015,13.469 17.301 C 13.423 17.048,13.351 16.945,12.890 16.476 L 12.513 16.091 13.120 15.620 L 13.728 15.148 17.074 18.490 C 18.914 20.328,20.483 21.865,20.560 21.905 C 20.659 21.957,20.788 21.979,21.000 21.979 C 21.258 21.980,21.327 21.964,21.492 21.867 C 21.968 21.587,22.139 20.967,21.865 20.508 C 21.810 20.416,17.665 16.243,12.653 11.235 C 4.231 2.820,3.525 2.125,3.343 2.065 C 3.107 1.987,2.874 1.986,2.670 2.061 M14.731 3.045 C 14.416 3.136,14.325 3.237,12.710 5.313 C 11.828 6.447,11.070 7.448,11.027 7.537 C 10.932 7.733,10.918 8.082,10.998 8.280 C 11.222 8.838,11.847 9.082,12.380 8.822 C 12.593 8.718,12.668 8.629,14.047 6.856 L 15.491 5.000 17.246 5.000 L 19.000 5.000 19.000 6.756 L 19.000 8.513 17.149 9.953 C 15.679 11.097,15.279 11.428,15.203 11.562 C 15.078 11.785,15.046 12.197,15.137 12.411 C 15.227 12.621,15.470 12.879,15.660 12.965 C 15.843 13.049,16.178 13.062,16.403 12.994 C 16.501 12.965,17.298 12.370,18.666 11.304 C 20.580 9.814,20.787 9.641,20.879 9.461 L 20.980 9.262 20.980 6.481 L 20.980 3.700 20.872 3.516 C 20.813 3.415,20.698 3.282,20.618 3.221 C 20.327 2.999,20.332 3.000,17.484 3.004 C 15.988 3.006,14.804 3.023,14.731 3.045 M11.299 12.719 C 11.915 13.336,12.283 13.732,12.259 13.754 C 12.123 13.878,11.120 14.640,11.093 14.640 C 11.037 14.640,9.349 12.932,9.365 12.893 C 9.389 12.834,10.258 11.721,10.280 11.720 C 10.291 11.720,10.750 12.170,11.299 12.719 M8.800 15.220 L 9.580 16.000 8.290 17.290 L 7.000 18.580 6.210 17.790 L 5.420 17.000 6.700 15.720 C 7.404 15.016,7.989 14.440,8.000 14.440 C 8.011 14.440,8.371 14.791,8.800 15.220 " stroke="none" fill-rule="evenodd" fill="black"></path></svg>