<svg xmlns="http://www.w3.org/2000/svg" width="24" height="24" viewBox="0 0 24 24" fill="none" stroke="currentColor" stroke-width="2" stroke-linecap="round" stroke-linejoin="round"><path d="M2.695 2.057 C 2.465 2.129,2.256 2.299,2.128 2.516 L 2.020 2.700 2.020 5.480 L 2.020 8.260 2.113 8.449 C 2.193 8.611,2.445 8.837,3.840 10.000 C 4.739 10.749,5.542 11.390,5.626 11.425 C 5.962 11.566,6.409 11.482,6.674 11.228 C 6.896 11.015,6.978 10.819,6.978 10.500 C 6.978 9.995,7.031 10.054,5.207 8.540 L 4.002 7.540 4.001 5.770 L 4.000 4.000 5.759 4.000 L 7.519 4.000 8.394 5.090 C 8.875 5.690,9.312 6.220,9.365 6.268 C 9.597 6.481,10.065 6.557,10.363 6.431 C 10.563 6.346,10.789 6.137,10.891 5.944 C 10.994 5.746,11.010 5.331,10.921 5.120 C 10.889 5.043,10.366 4.359,9.759 3.600 C 8.792 2.392,8.630 2.208,8.457 2.120 L 8.260 2.020 5.560 2.012 C 3.431 2.006,2.825 2.015,2.695 2.057 M15.740 2.043 C 15.674 2.062,15.559 2.110,15.484 2.149 C 15.390 2.198,14.011 3.855,10.948 7.600 C 8.528 10.559,6.533 12.997,6.515 13.017 C 6.497 13.038,6.279 12.855,6.008 12.593 C 5.636 12.232,5.492 12.118,5.340 12.066 C 4.866 11.905,4.382 12.084,4.128 12.516 C 4.037 12.672,4.020 12.746,4.020 13.000 C 4.020 13.391,4.100 13.527,4.657 14.079 L 5.080 14.499 3.624 15.959 C 2.824 16.763,2.135 17.483,2.095 17.560 C 1.993 17.754,1.993 18.246,2.095 18.440 C 2.196 18.632,5.296 21.739,5.520 21.873 C 5.673 21.964,5.745 21.980,6.000 21.979 C 6.212 21.979,6.341 21.957,6.440 21.905 C 6.517 21.865,7.237 21.176,8.041 20.376 L 9.501 18.920 9.921 19.343 C 10.406 19.833,10.593 19.957,10.888 19.987 C 11.295 20.029,11.660 19.844,11.867 19.492 C 11.964 19.327,11.980 19.258,11.979 19.000 C 11.978 18.605,11.931 18.523,11.387 17.970 C 11.124 17.702,10.960 17.506,10.982 17.486 C 11.003 17.467,13.443 15.471,16.405 13.049 C 21.255 9.083,21.799 8.627,21.885 8.453 L 21.980 8.260 21.980 5.480 L 21.980 2.700 21.872 2.516 C 21.813 2.415,21.698 2.282,21.618 2.221 C 21.327 1.999,21.332 2.000,18.484 2.003 C 17.041 2.005,15.806 2.023,15.740 2.043 M19.997 5.770 L 19.995 7.540 14.857 11.740 C 12.030 14.050,9.672 15.974,9.615 16.016 L 9.513 16.092 8.716 15.296 C 8.278 14.859,7.925 14.484,7.932 14.463 C 7.939 14.442,9.861 12.081,12.202 9.215 L 16.460 4.005 18.230 4.003 L 20.000 4.000 19.997 5.770 M17.220 13.732 C 16.830 13.918,16.612 14.294,16.650 14.714 C 16.662 14.842,16.702 15.008,16.740 15.084 C 16.778 15.159,17.432 15.846,18.194 16.610 L 19.579 18.001 18.790 18.789 L 18.001 19.578 16.431 18.015 C 15.031 16.621,14.839 16.444,14.663 16.386 C 14.183 16.226,13.702 16.404,13.448 16.836 C 13.356 16.992,13.340 17.065,13.341 17.320 C 13.341 17.532,13.363 17.661,13.415 17.760 C 13.515 17.952,17.296 21.739,17.520 21.873 C 17.673 21.964,17.745 21.980,18.000 21.979 C 18.212 21.979,18.341 21.957,18.440 21.905 C 18.632 21.804,21.739 18.704,21.873 18.480 C 21.964 18.328,21.980 18.254,21.980 18.000 C 21.980 17.746,21.964 17.672,21.873 17.520 C 21.738 17.292,18.269 13.834,18.080 13.738 C 18.003 13.700,17.823 13.661,17.680 13.652 C 17.466 13.639,17.384 13.653,17.220 13.732 M7.040 18.540 L 6.000 19.580 5.210 18.790 L 4.420 18.000 5.460 16.960 L 6.499 15.920 7.290 16.710 L 8.080 17.500 7.040 18.540 " stroke="none" fill-rule="evenodd" fill="black"></path></svg>