<svg xmlns="http://www.w3.org/2000/svg" width="24" height="24" viewBox="0 0 24 24" fill="none" stroke="currentColor" stroke-width="2" stroke-linecap="round" stroke-linejoin="round"><path d="M4.499 2.043 C 3.380 2.232,2.461 3.048,2.114 4.160 L 2.020 4.460 2.020 8.883 L 2.020 13.306 2.141 13.503 C 2.543 14.156,3.457 14.156,3.859 13.503 L 3.980 13.307 3.992 12.153 L 4.005 11.000 6.501 11.000 L 8.997 11.000 9.008 12.653 L 9.020 14.306 9.141 14.503 C 9.209 14.613,9.346 14.756,9.452 14.828 C 9.923 15.144,10.554 14.999,10.859 14.503 L 10.980 14.306 10.992 12.653 L 11.003 11.000 15.502 11.000 L 20.000 11.000 20.000 15.054 C 20.000 19.453,20.006 19.320,19.779 19.618 C 19.718 19.698,19.585 19.813,19.484 19.872 L 19.300 19.980 15.020 20.000 C 11.716 20.015,10.714 20.031,10.627 20.070 C 10.428 20.158,10.239 20.328,10.128 20.516 C 10.037 20.672,10.020 20.746,10.020 21.000 C 10.020 21.257,10.036 21.327,10.133 21.492 C 10.261 21.710,10.502 21.901,10.725 21.961 C 10.826 21.989,12.343 21.999,15.229 21.991 L 19.580 21.980 19.860 21.886 C 20.851 21.554,21.582 20.816,21.886 19.840 L 21.980 19.540 21.980 12.000 L 21.980 4.460 21.886 4.160 C 21.581 3.182,20.832 2.428,19.861 2.121 L 19.540 2.020 12.120 2.014 C 8.039 2.011,4.609 2.024,4.499 2.043 M9.000 6.500 L 9.000 9.000 6.500 9.000 L 4.000 9.000 4.000 6.947 C 4.000 4.594,3.998 4.608,4.304 4.303 C 4.604 4.003,4.575 4.006,6.930 4.003 L 9.000 4.000 9.000 6.500 M19.310 4.061 C 19.452 4.103,19.571 4.178,19.697 4.303 C 20.002 4.608,20.000 4.595,20.000 6.947 L 20.000 9.000 15.500 9.000 L 11.000 9.000 11.000 6.500 L 11.000 4.000 15.053 4.000 C 18.564 4.000,19.133 4.008,19.310 4.061 M2.240 16.037 C 1.794 16.173,1.512 16.546,1.512 17.000 C 1.512 17.405,1.719 17.724,2.100 17.905 C 2.296 17.997,2.324 17.999,3.439 18.000 L 4.579 18.000 2.874 19.710 C 1.936 20.651,1.138 21.481,1.101 21.555 C 0.872 22.010,1.056 22.601,1.508 22.867 C 1.673 22.964,1.742 22.980,2.000 22.979 C 2.212 22.979,2.341 22.957,2.440 22.905 C 2.517 22.865,3.349 22.064,4.290 21.126 L 6.000 19.421 6.000 20.561 C 6.001 21.676,6.003 21.704,6.095 21.900 C 6.276 22.281,6.595 22.488,7.000 22.488 C 7.405 22.488,7.724 22.281,7.905 21.900 L 7.999 21.700 7.999 19.240 L 7.999 16.780 7.905 16.580 C 7.791 16.340,7.642 16.193,7.400 16.083 C 7.225 16.004,7.152 16.002,4.780 16.004 C 3.438 16.006,2.295 16.021,2.240 16.037 " stroke="none" fill-rule="evenodd" fill="black"></path></svg>