<svg xmlns="http://www.w3.org/2000/svg" width="24" height="24" viewBox="0 0 24 24" fill="none" stroke="currentColor" stroke-width="2" stroke-linecap="round" stroke-linejoin="round"><path d="M2.670 2.061 C 2.448 2.142,2.250 2.309,2.128 2.516 C 2.036 2.672,2.020 2.746,2.020 3.004 C 2.020 3.274,2.034 3.329,2.144 3.507 L 2.269 3.708 2.144 4.064 L 2.020 4.420 2.020 11.980 L 2.020 19.540 2.114 19.840 C 2.422 20.827,3.173 21.578,4.160 21.886 L 4.460 21.980 12.020 21.980 L 19.580 21.980 19.936 21.856 L 20.292 21.731 20.493 21.856 C 20.671 21.966,20.726 21.980,20.996 21.980 C 21.257 21.980,21.327 21.964,21.492 21.867 C 21.968 21.587,22.139 20.967,21.865 20.508 C 21.810 20.416,17.665 16.243,12.653 11.235 C 4.231 2.820,3.525 2.125,3.343 2.065 C 3.107 1.987,2.874 1.986,2.670 2.061 M6.695 2.057 C 6.465 2.129,6.256 2.299,6.128 2.516 C 6.037 2.672,6.020 2.746,6.020 3.000 C 6.020 3.256,6.036 3.328,6.131 3.489 C 6.192 3.592,6.304 3.725,6.381 3.783 C 6.642 3.983,6.738 3.996,7.908 3.998 L 8.995 4.000 9.008 5.153 L 9.020 6.307 9.141 6.503 C 9.543 7.156,10.457 7.156,10.859 6.503 L 10.980 6.307 10.992 5.153 L 11.005 4.000 15.055 4.000 C 19.634 4.000,19.377 3.983,19.697 4.303 C 20.002 4.608,20.000 4.595,20.000 6.947 L 20.000 9.000 16.946 9.000 C 13.633 9.000,13.675 8.997,13.382 9.221 C 13.302 9.282,13.187 9.415,13.128 9.516 C 13.037 9.672,13.020 9.746,13.020 10.000 C 13.020 10.256,13.036 10.328,13.131 10.489 C 13.256 10.702,13.449 10.864,13.670 10.943 C 13.790 10.986,14.433 10.997,16.909 10.998 L 19.998 11.000 20.009 14.153 L 20.020 17.306 20.141 17.503 C 20.543 18.156,21.457 18.156,21.859 17.503 L 21.980 17.306 21.980 10.883 L 21.980 4.460 21.886 4.160 C 21.581 3.182,20.832 2.428,19.861 2.121 L 19.540 2.020 13.200 2.012 C 8.082 2.006,6.828 2.015,6.695 2.057 M5.800 7.220 L 7.580 9.000 5.790 9.000 L 4.000 9.000 4.000 7.220 C 4.000 6.241,4.005 5.440,4.010 5.440 C 4.016 5.440,4.821 6.241,5.800 7.220 M9.000 15.501 L 9.000 20.003 6.850 19.991 L 4.700 19.980 4.516 19.872 C 4.415 19.813,4.284 19.700,4.225 19.623 C 3.990 19.315,4.000 19.511,4.000 15.075 L 4.000 11.000 6.500 11.000 L 9.000 11.000 9.000 15.501 M14.800 16.220 L 18.580 20.000 14.790 20.000 L 11.000 20.000 11.000 16.220 C 11.000 14.141,11.005 12.440,11.010 12.440 C 11.016 12.440,12.721 14.141,14.800 16.220 " stroke="none" fill-rule="evenodd" fill="black"></path></svg>