<svg xmlns="http://www.w3.org/2000/svg" width="24" height="24" viewBox="0 0 24 24" fill="none" stroke="currentColor" stroke-width="2" stroke-linecap="round" stroke-linejoin="round"><path d="M4.499 2.043 C 3.380 2.232,2.461 3.048,2.114 4.160 L 2.020 4.460 2.020 12.000 L 2.020 19.540 2.114 19.840 C 2.418 20.816,3.149 21.554,4.140 21.886 L 4.420 21.980 8.540 21.991 C 13.139 22.004,12.843 22.021,13.173 21.724 C 13.574 21.362,13.600 20.715,13.228 20.326 C 12.952 20.039,12.880 20.021,11.890 20.007 L 11.000 19.995 11.000 15.497 L 11.000 11.000 15.500 11.000 L 20.000 11.000 20.000 11.850 C 20.001 12.661,20.005 12.709,20.095 12.900 C 20.276 13.282,20.595 13.488,21.003 13.488 C 21.292 13.488,21.536 13.381,21.724 13.173 C 22.021 12.843,22.004 13.139,21.991 8.540 L 21.980 4.420 21.886 4.140 C 21.557 3.158,20.821 2.425,19.861 2.121 L 19.540 2.020 12.120 2.014 C 8.039 2.011,4.609 2.024,4.499 2.043 M9.000 6.500 L 9.000 9.000 6.500 9.000 L 4.000 9.000 4.000 6.947 C 4.000 4.594,3.998 4.608,4.304 4.303 C 4.604 4.003,4.575 4.006,6.930 4.003 L 9.000 4.000 9.000 6.500 M19.310 4.061 C 19.452 4.103,19.571 4.178,19.697 4.303 C 20.002 4.608,20.000 4.595,20.000 6.947 L 20.000 9.000 15.500 9.000 L 11.000 9.000 11.000 6.500 L 11.000 4.000 15.053 4.000 C 18.564 4.000,19.133 4.008,19.310 4.061 M9.000 15.501 L 9.000 20.003 6.850 19.991 L 4.700 19.980 4.516 19.872 C 4.415 19.813,4.284 19.700,4.225 19.623 C 3.990 19.315,4.000 19.511,4.000 15.075 L 4.000 11.000 6.500 11.000 L 9.000 11.000 9.000 15.501 M18.670 15.061 C 18.448 15.142,18.250 15.309,18.128 15.516 C 18.036 15.672,18.020 15.745,18.021 16.000 C 18.021 16.213,18.043 16.340,18.096 16.440 C 18.136 16.517,18.486 16.899,18.873 17.290 L 19.577 18.000 17.735 18.000 C 15.735 18.000,15.663 18.007,15.382 18.221 C 15.302 18.282,15.187 18.415,15.128 18.516 C 15.037 18.672,15.020 18.746,15.020 19.000 C 15.020 19.256,15.036 19.328,15.131 19.489 C 15.256 19.702,15.449 19.864,15.670 19.943 C 15.787 19.985,16.234 19.997,17.699 19.998 L 19.577 20.000 18.873 20.710 C 18.486 21.101,18.139 21.481,18.101 21.555 C 17.872 22.008,18.056 22.601,18.508 22.867 C 18.673 22.964,18.742 22.980,19.000 22.979 C 19.212 22.979,19.341 22.957,19.440 22.905 C 19.517 22.865,20.306 22.109,21.194 21.226 C 22.957 19.472,22.999 19.420,22.999 19.000 C 22.999 18.578,22.960 18.530,21.175 16.756 C 19.716 15.307,19.519 15.124,19.343 15.066 C 19.108 14.987,18.875 14.986,18.670 15.061 " stroke="none" fill-rule="evenodd" fill="black"></path></svg>