<svg xmlns="http://www.w3.org/2000/svg" width="24" height="24" viewBox="0 0 24 24" fill="none" stroke="currentColor" stroke-width="2" stroke-linecap="round" stroke-linejoin="round"><path d="M4.499 2.043 C 3.380 2.232,2.461 3.048,2.114 4.160 L 2.020 4.460 2.020 12.000 L 2.020 19.540 2.114 19.840 C 2.418 20.816,3.149 21.554,4.140 21.886 L 4.420 21.980 8.271 21.991 C 10.824 21.999,12.173 21.989,12.275 21.961 C 12.498 21.901,12.739 21.711,12.867 21.492 C 12.964 21.327,12.980 21.257,12.980 21.000 C 12.980 20.746,12.963 20.672,12.872 20.516 C 12.633 20.110,12.352 20.000,11.554 20.000 L 11.000 20.000 11.000 15.500 L 11.000 11.000 15.498 11.000 L 19.995 11.000 20.008 12.153 L 20.020 13.307 20.141 13.503 C 20.543 14.156,21.457 14.156,21.859 13.503 L 21.980 13.306 21.980 8.883 L 21.980 4.460 21.886 4.160 C 21.581 3.182,20.832 2.428,19.861 2.121 L 19.540 2.020 12.120 2.014 C 8.039 2.011,4.609 2.024,4.499 2.043 M9.000 6.500 L 9.000 9.000 6.500 9.000 L 4.000 9.000 4.000 6.947 C 4.000 4.594,3.998 4.608,4.304 4.303 C 4.604 4.003,4.575 4.006,6.930 4.003 L 9.000 4.000 9.000 6.500 M19.310 4.061 C 19.452 4.103,19.571 4.178,19.697 4.303 C 20.002 4.608,20.000 4.595,20.000 6.947 L 20.000 9.000 15.500 9.000 L 11.000 9.000 11.000 6.500 L 11.000 4.000 15.053 4.000 C 18.564 4.000,19.133 4.008,19.310 4.061 M9.000 15.501 L 9.000 20.003 6.850 19.991 L 4.700 19.980 4.516 19.872 C 4.415 19.813,4.284 19.700,4.225 19.623 C 3.990 19.315,4.000 19.511,4.000 15.075 L 4.000 11.000 6.500 11.000 L 9.000 11.000 9.000 15.501 M16.240 16.037 C 15.794 16.173,15.512 16.546,15.512 17.000 C 15.512 17.405,15.719 17.724,16.100 17.905 C 16.296 17.997,16.324 17.999,17.439 18.000 L 18.579 18.000 16.874 19.710 C 15.936 20.651,15.138 21.481,15.101 21.555 C 14.872 22.010,15.056 22.601,15.508 22.867 C 15.673 22.964,15.742 22.980,16.000 22.979 C 16.212 22.979,16.341 22.957,16.440 22.905 C 16.517 22.865,17.350 22.064,18.290 21.126 L 20.000 19.421 20.000 20.561 C 20.001 21.676,20.003 21.704,20.095 21.900 C 20.276 22.281,20.595 22.488,21.000 22.488 C 21.405 22.488,21.724 22.281,21.905 21.900 L 21.999 21.700 21.999 19.240 L 21.999 16.780 21.905 16.580 C 21.791 16.340,21.642 16.193,21.400 16.083 C 21.225 16.004,21.152 16.002,18.780 16.004 C 17.438 16.006,16.295 16.021,16.240 16.037 " stroke="none" fill-rule="evenodd" fill="black"></path></svg>