<svg xmlns="http://www.w3.org/2000/svg" width="24" height="24" viewBox="0 0 24 24" fill="none" stroke="currentColor" stroke-width="2" stroke-linecap="round" stroke-linejoin="round"><path d="M4.499 2.043 C 3.380 2.232,2.461 3.048,2.114 4.160 L 2.020 4.460 2.020 12.000 L 2.020 19.540 2.114 19.840 C 2.418 20.816,3.149 21.554,4.140 21.886 L 4.420 21.980 8.271 21.991 C 10.824 21.999,12.173 21.989,12.275 21.961 C 12.498 21.901,12.739 21.711,12.867 21.492 C 12.964 21.327,12.980 21.257,12.980 21.000 C 12.980 20.746,12.963 20.672,12.872 20.516 C 12.633 20.110,12.352 20.000,11.554 20.000 L 11.000 20.000 11.000 15.500 L 11.000 11.000 15.498 11.000 L 19.995 11.000 20.008 12.153 L 20.020 13.307 20.141 13.503 C 20.543 14.156,21.457 14.156,21.859 13.503 L 21.980 13.306 21.980 8.883 L 21.980 4.460 21.886 4.160 C 21.581 3.182,20.832 2.428,19.861 2.121 L 19.540 2.020 12.120 2.014 C 8.039 2.011,4.609 2.024,4.499 2.043 M9.000 6.500 L 9.000 9.000 6.500 9.000 L 4.000 9.000 4.000 6.947 C 4.000 4.594,3.998 4.608,4.304 4.303 C 4.604 4.003,4.575 4.006,6.930 4.003 L 9.000 4.000 9.000 6.500 M19.310 4.061 C 19.452 4.103,19.571 4.178,19.697 4.303 C 20.002 4.608,20.000 4.595,20.000 6.947 L 20.000 9.000 15.500 9.000 L 11.000 9.000 11.000 6.500 L 11.000 4.000 15.053 4.000 C 18.564 4.000,19.133 4.008,19.310 4.061 M9.000 15.501 L 9.000 20.003 6.850 19.991 L 4.700 19.980 4.516 19.872 C 4.415 19.813,4.284 19.700,4.225 19.623 C 3.990 19.315,4.000 19.511,4.000 15.075 L 4.000 11.000 6.500 11.000 L 9.000 11.000 9.000 15.501 M18.580 15.096 C 18.424 15.171,18.029 15.545,16.774 16.806 C 15.891 17.694,15.135 18.483,15.095 18.560 C 15.043 18.659,15.021 18.788,15.021 19.000 C 15.020 19.258,15.036 19.327,15.133 19.492 C 15.263 19.714,15.502 19.901,15.736 19.965 C 15.939 20.019,16.267 19.989,16.445 19.899 C 16.519 19.861,16.899 19.514,17.289 19.128 L 17.997 18.426 18.009 20.366 L 18.020 22.306 18.141 22.503 C 18.543 23.156,19.457 23.156,19.859 22.503 L 19.980 22.306 19.991 20.366 L 20.003 18.426 20.711 19.128 C 21.101 19.514,21.483 19.864,21.560 19.904 C 21.660 19.957,21.787 19.979,22.000 19.979 C 22.258 19.980,22.327 19.964,22.492 19.867 C 22.714 19.737,22.901 19.498,22.965 19.264 C 23.019 19.061,22.989 18.733,22.899 18.555 C 22.862 18.481,22.109 17.694,21.226 16.806 C 19.472 15.043,19.420 15.001,19.000 15.001 C 18.851 15.001,18.716 15.031,18.580 15.096 " stroke="none" fill-rule="evenodd" fill="black"></path></svg>