<svg xmlns="http://www.w3.org/2000/svg" width="24" height="24" viewBox="0 0 24 24" fill="none" stroke="currentColor" stroke-width="2" stroke-linecap="round" stroke-linejoin="round"><path d="M4.499 2.043 C 3.380 2.232,2.461 3.048,2.114 4.160 L 2.020 4.460 2.020 12.000 L 2.020 19.540 2.114 19.840 C 2.422 20.827,3.173 21.578,4.160 21.886 L 4.460 21.980 12.000 21.980 L 19.540 21.980 19.840 21.886 C 20.827 21.578,21.578 20.827,21.886 19.840 L 21.980 19.540 21.980 12.000 L 21.980 4.460 21.886 4.160 C 21.581 3.182,20.832 2.428,19.861 2.121 L 19.540 2.020 12.120 2.014 C 8.039 2.011,4.609 2.024,4.499 2.043 M5.300 5.280 L 4.020 6.561 4.009 5.733 C 3.996 4.731,4.027 4.579,4.303 4.303 C 4.573 4.033,4.701 4.006,5.720 4.003 L 6.580 4.000 5.300 5.280 M19.310 4.061 C 19.452 4.103,19.571 4.178,19.697 4.303 C 20.002 4.608,20.000 4.595,20.000 6.947 L 20.000 9.000 15.500 9.000 L 11.000 9.000 11.000 6.500 L 11.000 4.000 15.053 4.000 C 18.564 4.000,19.133 4.008,19.310 4.061 M6.501 9.079 L 4.000 11.580 4.000 10.500 L 4.000 9.420 6.490 6.930 L 8.980 4.440 8.991 5.509 L 9.001 6.579 6.501 9.079 M6.501 14.079 L 4.000 16.580 4.000 15.500 L 4.000 14.420 6.490 11.930 L 8.980 9.440 8.991 10.509 L 9.001 11.579 6.501 14.079 M20.000 15.054 C 20.000 19.453,20.006 19.320,19.779 19.618 C 19.718 19.698,19.585 19.813,19.484 19.872 L 19.300 19.980 15.150 19.991 L 11.000 20.001 11.000 15.501 L 11.000 11.000 15.500 11.000 L 20.000 11.000 20.000 15.054 M7.291 18.292 L 5.580 20.005 5.140 19.993 C 4.745 19.981,4.681 19.968,4.514 19.870 C 4.340 19.768,4.080 19.476,4.080 19.382 C 4.080 19.359,5.183 18.238,6.530 16.890 L 8.980 14.440 8.991 15.509 L 9.001 16.578 7.291 18.292 M9.000 19.720 L 9.000 20.000 8.711 20.000 L 8.422 20.000 8.700 19.720 C 8.853 19.566,8.983 19.440,8.989 19.440 C 8.995 19.440,9.000 19.566,9.000 19.720 " stroke="none" fill-rule="evenodd" fill="black"></path></svg>