<svg xmlns="http://www.w3.org/2000/svg" width="24" height="24" viewBox="0 0 24 24" fill="none" stroke="currentColor" stroke-width="2" stroke-linecap="round" stroke-linejoin="round"><path d="M2.670 2.061 C 2.448 2.142,2.250 2.309,2.128 2.516 C 2.037 2.672,2.020 2.746,2.020 3.000 C 2.020 3.345,2.110 3.541,2.396 3.818 C 2.551 3.968,2.556 3.980,2.499 4.068 C 2.373 4.260,2.156 4.868,2.079 5.243 C 2.004 5.611,2.000 5.795,2.001 8.566 C 2.001 11.743,2.002 11.749,2.223 12.306 C 2.283 12.457,2.404 12.688,2.491 12.820 C 2.664 13.081,10.434 20.896,10.863 21.241 C 11.195 21.507,11.629 21.734,12.060 21.865 C 12.382 21.963,12.482 21.975,13.000 21.975 C 13.516 21.975,13.619 21.963,13.932 21.867 C 14.723 21.625,14.936 21.466,16.321 20.093 L 17.502 18.922 18.921 20.343 C 19.702 21.125,20.421 21.814,20.520 21.873 C 20.673 21.964,20.746 21.980,21.000 21.980 C 21.257 21.980,21.327 21.964,21.492 21.867 C 21.968 21.587,22.139 20.967,21.865 20.508 C 21.810 20.416,17.665 16.243,12.653 11.235 C 4.231 2.820,3.525 2.125,3.343 2.065 C 3.107 1.987,2.874 1.986,2.670 2.061 M6.695 2.056 C 6.050 2.262,5.799 3.040,6.198 3.591 C 6.263 3.681,6.403 3.805,6.508 3.867 L 6.700 3.980 9.080 4.000 C 11.431 4.020,11.462 4.021,11.620 4.107 C 11.713 4.158,13.457 5.875,15.784 8.207 C 20.291 12.725,19.975 12.364,19.977 13.000 C 19.979 13.516,19.886 13.683,19.220 14.360 C 18.615 14.975,18.522 15.127,18.522 15.500 C 18.522 15.784,18.611 16.005,18.803 16.197 C 18.995 16.389,19.216 16.478,19.500 16.478 C 19.865 16.478,20.031 16.381,20.571 15.848 C 21.361 15.071,21.651 14.643,21.865 13.940 C 21.963 13.618,21.975 13.518,21.975 13.000 C 21.975 12.482,21.963 12.382,21.865 12.060 C 21.734 11.629,21.507 11.195,21.241 10.863 C 20.957 10.510,13.094 2.673,12.880 2.531 C 12.621 2.358,12.341 2.223,12.020 2.115 L 11.740 2.022 9.300 2.013 C 7.370 2.005,6.825 2.014,6.695 2.056 M5.046 6.470 L 5.991 7.420 6.013 7.650 C 6.037 7.906,6.176 8.243,6.347 8.460 C 6.575 8.749,7.081 9.000,7.437 9.000 C 7.574 9.000,7.777 9.197,11.831 13.251 L 16.081 17.501 14.950 18.628 C 13.630 19.945,13.580 19.980,13.000 19.980 C 12.369 19.980,12.724 20.291,8.207 15.784 C 5.875 13.457,4.158 11.713,4.107 11.620 C 4.020 11.461,4.020 11.449,4.008 8.700 C 3.996 6.097,4.008 5.520,4.073 5.520 C 4.088 5.520,4.526 5.947,5.046 6.470 " stroke="none" fill-rule="evenodd" fill="black"></path></svg>