<svg xmlns="http://www.w3.org/2000/svg" width="24" height="24" viewBox="0 0 24 24" fill="none" stroke="currentColor" stroke-width="2" stroke-linecap="round" stroke-linejoin="round"><path d="M4.499 5.042 C 3.386 5.234,2.485 6.027,2.115 7.140 C 2.022 7.419,2.022 7.425,2.009 9.943 C 1.995 12.692,1.998 12.740,2.223 13.305 C 2.283 13.456,2.404 13.688,2.491 13.820 C 2.664 14.081,8.440 19.901,8.863 20.241 C 9.195 20.507,9.630 20.734,10.060 20.865 C 10.382 20.963,10.482 20.975,11.000 20.975 C 11.516 20.975,11.619 20.963,11.932 20.867 C 12.317 20.749,12.582 20.626,12.920 20.408 C 13.162 20.252,16.921 16.536,17.241 16.137 C 17.507 15.805,17.734 15.370,17.865 14.940 C 17.963 14.618,17.975 14.518,17.975 14.000 C 17.975 13.482,17.963 13.382,17.865 13.060 C 17.734 12.630,17.507 12.195,17.241 11.863 C 16.959 11.513,11.095 5.674,10.880 5.531 C 10.622 5.358,10.341 5.223,10.020 5.115 L 9.740 5.022 7.220 5.015 C 5.834 5.011,4.609 5.023,4.499 5.042 M14.670 5.061 C 14.448 5.142,14.250 5.309,14.128 5.516 C 14.036 5.672,14.020 5.745,14.021 6.000 C 14.021 6.212,14.043 6.341,14.095 6.440 C 14.135 6.517,15.289 7.705,16.658 9.080 C 18.027 10.455,19.211 11.670,19.290 11.780 C 19.871 12.596,20.113 13.660,19.941 14.645 C 19.844 15.200,19.604 15.780,19.289 16.220 C 19.210 16.330,18.701 16.870,18.158 17.420 C 17.614 17.970,17.136 18.483,17.096 18.560 C 17.043 18.660,17.021 18.787,17.021 19.000 C 17.020 19.258,17.036 19.327,17.133 19.492 C 17.412 19.967,18.031 20.138,18.492 19.866 C 18.689 19.750,20.499 17.930,20.766 17.580 C 21.583 16.507,21.999 15.299,21.999 14.000 C 21.999 12.539,21.475 11.200,20.464 10.074 C 20.280 9.868,19.096 8.672,17.834 7.415 C 15.761 5.351,15.521 5.124,15.343 5.065 C 15.107 4.987,14.874 4.986,14.670 5.061 M9.620 7.107 C 9.712 7.157,11.056 8.474,12.784 10.207 C 16.174 13.608,15.975 13.371,15.978 14.001 C 15.981 14.615,16.025 14.560,13.752 16.824 C 11.510 19.056,11.607 18.980,11.000 18.980 C 10.377 18.980,10.609 19.175,7.207 15.784 C 5.474 14.056,4.157 12.712,4.107 12.620 C 4.021 12.462,4.020 12.436,4.009 10.185 C 3.996 7.574,3.992 7.615,4.303 7.303 C 4.610 6.997,4.546 7.003,7.160 7.012 C 9.440 7.020,9.461 7.021,9.620 7.107 M6.720 9.037 C 5.860 9.299,5.742 10.479,6.535 10.887 C 7.006 11.129,7.596 10.954,7.867 10.492 C 7.964 10.327,7.980 10.257,7.980 10.000 C 7.980 9.746,7.963 9.672,7.872 9.516 C 7.641 9.123,7.133 8.912,6.720 9.037 " stroke="none" fill-rule="evenodd" fill="black"></path></svg>