<svg xmlns="http://www.w3.org/2000/svg" width="24" height="24" viewBox="0 0 24 24" fill="none" stroke="currentColor" stroke-width="2" stroke-linecap="round" stroke-linejoin="round"><path d="M2.670 2.061 C 2.448 2.142,2.250 2.309,2.128 2.516 C 2.036 2.672,2.020 2.745,2.021 3.000 C 2.021 3.213,2.043 3.341,2.095 3.440 C 2.136 3.517,2.538 3.951,2.988 4.405 L 3.807 5.229 3.553 5.372 C 2.882 5.749,2.367 6.382,2.115 7.140 C 2.022 7.419,2.022 7.425,2.009 9.943 C 1.995 12.692,1.998 12.740,2.223 13.305 C 2.283 13.456,2.404 13.688,2.491 13.820 C 2.664 14.081,8.440 19.901,8.863 20.241 C 9.195 20.507,9.630 20.734,10.060 20.865 C 10.382 20.963,10.482 20.975,11.000 20.975 C 11.516 20.975,11.619 20.963,11.932 20.867 C 12.744 20.618,12.922 20.482,14.571 18.844 L 16.001 17.422 16.555 17.975 L 17.108 18.527 17.050 18.694 C 16.968 18.929,17.005 19.274,17.137 19.499 C 17.378 19.910,17.888 20.101,18.326 19.944 L 18.473 19.892 19.406 20.829 C 19.920 21.344,20.421 21.814,20.520 21.873 C 20.672 21.964,20.746 21.980,21.000 21.980 C 21.257 21.980,21.327 21.964,21.492 21.867 C 21.968 21.587,22.139 20.967,21.865 20.508 C 21.810 20.416,17.665 16.243,12.653 11.235 C 4.231 2.820,3.525 2.125,3.343 2.065 C 3.107 1.987,2.874 1.986,2.670 2.061 M14.670 5.061 C 14.448 5.142,14.250 5.309,14.128 5.516 C 14.036 5.672,14.020 5.745,14.021 6.000 C 14.021 6.213,14.043 6.341,14.095 6.440 C 14.136 6.517,15.315 7.732,16.715 9.140 C 19.539 11.980,19.509 11.945,19.783 12.750 C 20.125 13.755,20.058 14.740,19.579 15.745 C 19.428 16.060,19.400 16.158,19.400 16.361 C 19.400 16.779,19.594 17.082,19.980 17.265 C 20.341 17.435,20.786 17.362,21.069 17.085 C 21.350 16.810,21.731 15.912,21.908 15.109 C 22.019 14.604,22.007 13.407,21.885 12.840 C 21.704 11.999,21.356 11.204,20.894 10.580 C 20.709 10.331,19.843 9.435,18.084 7.675 C 15.770 5.360,15.522 5.124,15.343 5.065 C 15.107 4.987,14.874 4.986,14.670 5.061 M10.180 5.676 C 9.981 5.769,9.744 6.013,9.662 6.209 C 9.566 6.439,9.582 6.788,9.699 7.022 C 9.843 7.309,15.619 13.080,15.880 13.197 C 16.251 13.364,16.713 13.281,16.997 12.997 C 17.281 12.713,17.364 12.251,17.197 11.880 C 17.080 11.619,11.309 5.843,11.022 5.699 C 10.775 5.575,10.418 5.566,10.180 5.676 M10.080 11.500 L 14.580 16.000 13.220 17.361 C 11.631 18.953,11.593 18.980,11.001 18.980 C 10.377 18.980,10.609 19.175,7.207 15.784 C 5.474 14.056,4.157 12.712,4.107 12.620 C 4.021 12.462,4.020 12.436,4.009 10.185 C 3.996 7.574,3.992 7.615,4.303 7.303 C 4.531 7.076,4.742 7.006,5.220 7.003 L 5.580 7.000 10.080 11.500 M6.720 9.037 C 5.860 9.299,5.742 10.479,6.535 10.887 C 7.006 11.129,7.596 10.954,7.867 10.492 C 7.964 10.327,7.980 10.257,7.980 10.000 C 7.980 9.746,7.963 9.672,7.872 9.516 C 7.641 9.123,7.133 8.912,6.720 9.037 " stroke="none" fill-rule="evenodd" fill="black"></path></svg>