<svg xmlns="http://www.w3.org/2000/svg" width="24" height="24" viewBox="0 0 24 24" fill="none" stroke="currentColor" stroke-width="2" stroke-linecap="round" stroke-linejoin="round"><path d="M5.695 4.057 C 5.466 4.129,5.256 4.299,5.128 4.516 L 5.020 4.700 5.009 9.726 L 4.999 14.751 3.709 15.464 C 2.878 15.923,2.368 16.229,2.274 16.325 C 1.779 16.833,1.996 17.699,2.678 17.939 C 3.065 18.076,3.228 18.025,4.260 17.447 L 4.980 17.044 5.000 18.175 L 5.020 19.307 5.141 19.503 C 5.543 20.156,6.457 20.156,6.859 19.503 L 6.980 19.306 7.000 17.609 L 7.020 15.912 7.980 15.377 C 8.508 15.082,8.953 14.841,8.969 14.841 C 8.985 14.840,9.003 15.845,9.009 17.073 L 9.020 19.306 9.141 19.503 C 9.543 20.156,10.457 20.156,10.859 19.503 L 10.980 19.306 10.991 16.502 L 11.002 13.698 11.991 13.150 L 12.980 12.601 13.000 15.954 L 13.020 19.306 13.141 19.503 C 13.543 20.156,14.457 20.156,14.859 19.503 L 14.980 19.306 15.000 15.387 L 15.020 11.468 16.009 10.917 L 16.999 10.367 17.009 14.837 L 17.020 19.306 17.141 19.503 C 17.543 20.156,18.457 20.156,18.859 19.503 L 18.980 19.306 18.991 14.280 L 19.001 9.254 20.291 8.540 C 21.124 8.079,21.631 7.773,21.725 7.677 C 21.884 7.513,22.000 7.227,22.000 7.000 C 22.000 6.604,21.709 6.192,21.340 6.066 C 20.937 5.929,20.781 5.976,19.780 6.535 L 19.020 6.959 19.000 5.830 L 18.980 4.700 18.871 4.514 C 18.479 3.848,17.521 3.848,17.129 4.514 L 17.020 4.700 17.000 6.396 L 16.980 8.093 15.991 8.643 L 15.003 9.193 14.991 6.946 L 14.980 4.700 14.871 4.514 C 14.479 3.848,13.521 3.848,13.129 4.514 L 13.020 4.700 13.009 7.503 L 12.998 10.307 12.032 10.843 C 11.501 11.139,11.052 11.386,11.034 11.393 C 11.016 11.400,10.997 9.897,10.991 8.053 L 10.980 4.700 10.871 4.514 C 10.479 3.848,9.521 3.848,9.129 4.514 L 9.020 4.700 9.000 8.619 L 8.980 12.537 8.000 13.082 L 7.020 13.627 7.000 9.164 L 6.980 4.700 6.872 4.516 C 6.628 4.101,6.150 3.915,5.695 4.057 " stroke="none" fill-rule="evenodd" fill="black"></path></svg>