<svg xmlns="http://www.w3.org/2000/svg" width="24" height="24" viewBox="0 0 24 24" fill="none" stroke="currentColor" stroke-width="2" stroke-linecap="round" stroke-linejoin="round"><path d="M7.695 4.057 C 7.466 4.129,7.256 4.299,7.128 4.516 L 7.020 4.700 7.020 12.003 L 7.020 19.306 7.141 19.503 C 7.543 20.156,8.457 20.156,8.859 19.503 L 8.980 19.306 8.980 12.003 L 8.980 4.700 8.872 4.516 C 8.628 4.101,8.150 3.915,7.695 4.057 M11.695 4.057 C 11.466 4.129,11.256 4.299,11.128 4.516 L 11.020 4.700 11.020 12.003 L 11.020 19.306 11.141 19.503 C 11.543 20.156,12.457 20.156,12.859 19.503 L 12.980 19.306 12.980 12.003 L 12.980 4.700 12.872 4.516 C 12.628 4.101,12.150 3.915,11.695 4.057 M15.695 4.057 C 15.466 4.129,15.256 4.299,15.128 4.516 L 15.020 4.700 15.020 12.003 L 15.020 19.306 15.141 19.503 C 15.543 20.156,16.457 20.156,16.859 19.503 L 16.980 19.306 16.980 12.003 L 16.980 4.700 16.872 4.516 C 16.628 4.101,16.150 3.915,15.695 4.057 " stroke="none" fill-rule="evenodd" fill="black"></path></svg>