<svg xmlns="http://www.w3.org/2000/svg" width="24" height="24" viewBox="0 0 24 24" fill="none" stroke="currentColor" stroke-width="2" stroke-linecap="round" stroke-linejoin="round"><path d="M11.080 2.043 C 7.989 2.339,5.215 4.038,3.543 6.660 C 3.302 7.038,2.839 7.958,2.667 8.400 C 1.873 10.443,1.791 12.816,2.440 14.921 C 3.594 18.661,6.786 21.372,10.660 21.903 C 14.421 22.419,18.179 20.725,20.298 17.560 C 21.338 16.007,21.907 14.244,21.985 12.340 C 22.015 11.609,21.954 10.828,21.848 10.590 C 21.753 10.376,21.508 10.152,21.266 10.060 C 20.911 9.925,20.466 10.044,20.201 10.345 C 19.987 10.589,19.948 10.728,19.965 11.180 C 19.995 11.968,19.967 12.858,19.901 13.240 C 19.606 14.943,18.887 16.373,17.724 17.573 C 16.868 18.456,15.835 19.120,14.660 19.542 C 12.716 20.241,10.529 20.132,8.580 19.239 C 7.322 18.663,6.077 17.562,5.257 16.301 C 4.451 15.061,3.999 13.489,4.000 11.926 C 4.002 9.733,5.026 7.473,6.671 6.029 C 7.604 5.210,8.866 4.538,10.022 4.245 C 10.802 4.048,11.047 4.023,12.222 4.021 C 13.450 4.020,13.410 4.027,13.694 3.765 C 13.943 3.535,14.055 3.120,13.960 2.779 C 13.895 2.549,13.615 2.231,13.402 2.145 C 13.083 2.018,11.895 1.965,11.080 2.043 M17.723 2.047 C 17.647 2.068,17.512 2.137,17.423 2.199 C 17.333 2.262,16.556 3.021,15.696 3.886 C 14.302 5.288,14.124 5.482,14.066 5.657 C 14.010 5.825,14.000 6.060,14.000 7.218 L 14.000 8.581 13.269 9.311 L 12.537 10.042 12.195 10.015 C 11.534 9.965,10.972 10.181,10.534 10.653 C 9.954 11.280,9.834 12.159,10.225 12.930 C 10.361 13.199,10.801 13.639,11.070 13.775 C 11.659 14.073,12.341 14.073,12.930 13.775 C 13.196 13.640,13.638 13.200,13.771 12.937 C 13.973 12.539,14.051 12.009,13.964 11.634 L 13.930 11.489 14.676 10.744 L 15.421 10.000 16.783 10.000 C 17.940 10.000,18.176 9.990,18.343 9.934 C 18.519 9.876,18.714 9.695,20.153 8.264 C 21.040 7.382,21.814 6.579,21.873 6.480 C 21.963 6.328,21.980 6.254,21.980 6.000 C 21.980 5.744,21.964 5.672,21.869 5.511 C 21.745 5.300,21.498 5.111,21.259 5.045 C 21.162 5.018,20.694 5.000,20.052 5.000 L 19.005 5.000 18.992 3.850 L 18.980 2.700 18.872 2.516 C 18.635 2.113,18.163 1.920,17.723 2.047 M17.132 6.490 C 17.350 6.861,17.632 6.996,18.199 6.998 L 18.579 7.000 18.080 7.500 L 17.581 8.000 16.791 8.000 L 16.000 8.000 16.000 7.211 L 16.000 6.421 16.490 5.930 L 16.980 5.438 17.001 5.871 C 17.020 6.248,17.036 6.327,17.132 6.490 M11.380 6.043 C 8.784 6.299,6.676 8.219,6.115 10.840 C 5.984 11.450,5.984 12.558,6.114 13.160 C 6.639 15.588,8.417 17.365,10.840 17.885 C 11.190 17.960,11.383 17.975,12.000 17.975 C 12.822 17.975,13.248 17.909,13.940 17.672 C 16.284 16.869,17.953 14.614,17.975 12.220 C 17.980 11.721,17.976 11.692,17.871 11.514 C 17.482 10.853,16.520 10.847,16.136 11.503 C 16.053 11.645,16.026 11.762,15.996 12.110 C 15.929 12.890,15.838 13.242,15.557 13.804 C 15.014 14.892,13.989 15.670,12.773 15.917 C 10.563 16.368,8.396 14.845,8.058 12.605 C 7.986 12.121,7.986 11.879,8.058 11.395 C 8.247 10.145,9.042 9.036,10.160 8.464 C 10.745 8.164,11.091 8.073,11.890 8.004 C 12.242 7.974,12.354 7.948,12.502 7.861 C 13.248 7.424,13.116 6.304,12.290 6.055 C 12.093 5.996,11.882 5.993,11.380 6.043 " stroke="none" fill-rule="evenodd" fill="black"></path></svg>