<svg xmlns="http://www.w3.org/2000/svg" width="24" height="24" viewBox="0 0 24 24" fill="none" stroke="currentColor" stroke-width="2" stroke-linecap="round" stroke-linejoin="round"><path d="M2.670 2.061 C 2.448 2.142,2.250 2.309,2.128 2.516 C 2.036 2.672,2.020 2.745,2.021 3.000 C 2.021 3.213,2.043 3.341,2.095 3.440 C 2.136 3.517,2.637 4.050,3.208 4.625 L 4.248 5.670 3.965 6.051 C 2.989 7.366,2.353 8.911,2.093 10.600 C 1.993 11.245,1.993 12.755,2.093 13.400 C 2.445 15.685,3.475 17.680,5.106 19.237 C 6.613 20.676,8.470 21.579,10.600 21.907 C 11.245 22.007,12.755 22.007,13.400 21.907 C 15.089 21.647,16.634 21.011,17.949 20.035 L 18.330 19.752 19.375 20.792 C 19.950 21.363,20.483 21.864,20.560 21.905 C 20.659 21.957,20.787 21.979,21.000 21.979 C 21.258 21.980,21.327 21.964,21.492 21.867 C 21.968 21.587,22.139 20.967,21.865 20.508 C 21.810 20.416,17.665 16.243,12.653 11.235 C 4.231 2.820,3.525 2.125,3.343 2.065 C 3.107 1.987,2.874 1.986,2.670 2.061 M11.080 2.043 C 9.919 2.160,8.803 2.464,7.760 2.949 C 7.183 3.218,7.003 3.439,6.970 3.920 C 6.954 4.149,6.966 4.206,7.068 4.399 C 7.266 4.776,7.642 4.989,8.041 4.951 C 8.141 4.941,8.409 4.848,8.637 4.744 C 10.417 3.927,12.308 3.782,14.226 4.313 C 16.341 4.899,18.237 6.498,19.205 8.512 C 20.096 10.364,20.244 12.530,19.614 14.460 C 19.556 14.636,19.404 15.020,19.275 15.313 C 19.082 15.750,19.040 15.884,19.040 16.064 C 19.040 16.733,19.663 17.207,20.300 17.022 C 20.639 16.923,20.817 16.739,21.051 16.240 C 22.656 12.828,22.185 8.751,19.845 5.800 C 18.248 3.787,15.898 2.445,13.360 2.097 C 12.823 2.023,11.572 1.994,11.080 2.043 M11.300 6.043 C 10.640 6.123,10.373 6.267,10.184 6.648 C 9.983 7.050,10.070 7.516,10.401 7.814 C 10.661 8.047,10.864 8.102,11.292 8.056 C 11.750 8.006,12.494 8.017,12.780 8.078 C 14.001 8.337,15.019 9.119,15.569 10.220 C 15.943 10.969,16.044 11.645,15.945 12.722 C 15.912 13.072,15.917 13.121,15.997 13.302 C 16.180 13.715,16.462 13.898,16.920 13.898 C 17.266 13.898,17.401 13.842,17.640 13.596 C 17.826 13.403,17.899 13.193,17.963 12.664 C 18.096 11.569,17.876 10.352,17.357 9.304 C 16.543 7.660,14.944 6.464,13.072 6.099 C 12.668 6.020,11.736 5.991,11.300 6.043 M6.404 7.824 L 7.109 8.528 6.958 8.754 C 6.362 9.648,6.003 10.861,6.001 11.989 C 5.997 14.585,7.690 16.916,10.160 17.715 C 10.916 17.960,11.950 18.060,12.691 17.962 C 13.609 17.840,14.529 17.513,15.207 17.068 L 15.473 16.892 16.177 17.597 C 16.563 17.984,16.880 18.313,16.880 18.328 C 16.880 18.343,16.688 18.484,16.453 18.641 C 13.626 20.531,9.910 20.438,7.206 18.409 C 6.812 18.113,6.098 17.424,5.789 17.041 C 3.830 14.613,3.451 11.282,4.818 8.496 C 5.056 8.011,5.609 7.120,5.672 7.120 C 5.687 7.120,6.016 7.437,6.404 7.824 M9.305 10.725 L 10.031 11.450 10.010 11.855 C 9.976 12.535,10.148 12.991,10.608 13.444 C 11.033 13.863,11.497 14.026,12.164 13.989 L 12.549 13.968 13.274 14.694 C 13.674 15.094,14.000 15.435,14.000 15.453 C 14.000 15.509,13.394 15.763,13.000 15.873 C 12.659 15.968,12.555 15.979,11.980 15.976 C 11.460 15.974,11.282 15.957,11.033 15.889 C 9.275 15.407,8.103 13.967,8.013 12.180 C 7.979 11.510,8.106 10.890,8.404 10.257 C 8.471 10.116,8.538 10.000,8.552 10.000 C 8.567 10.000,8.906 10.326,9.305 10.725 " stroke="none" fill-rule="evenodd" fill="black"></path></svg>