<svg xmlns="http://www.w3.org/2000/svg" width="24" height="24" viewBox="0 0 24 24" fill="none" stroke="currentColor" stroke-width="2" stroke-linecap="round" stroke-linejoin="round"><path d="M8.664 2.063 C 8.292 2.199,8.046 2.519,8.013 2.910 C 7.996 3.101,8.024 3.246,8.175 3.769 C 8.444 4.701,8.889 5.776,9.169 6.172 C 9.213 6.234,9.242 6.290,9.234 6.298 C 9.226 6.305,9.076 6.368,8.900 6.438 C 7.300 7.073,6.044 8.406,5.466 10.080 C 5.186 10.891,3.719 15.489,3.644 15.793 C 3.452 16.564,3.440 17.272,3.606 18.038 C 4.032 20.004,5.510 21.464,7.520 21.905 C 7.840 21.976,8.107 21.980,12.000 21.980 C 15.893 21.980,16.160 21.976,16.480 21.905 C 17.916 21.590,19.052 20.787,19.796 19.563 C 20.339 18.668,20.604 17.485,20.483 16.493 C 20.413 15.919,20.364 15.749,19.462 12.940 C 18.501 9.944,18.434 9.749,18.209 9.300 C 17.573 8.024,16.419 6.962,15.100 6.438 C 14.924 6.368,14.774 6.305,14.766 6.298 C 14.758 6.290,14.787 6.234,14.831 6.172 C 15.117 5.768,15.606 4.567,15.861 3.643 C 15.980 3.214,16.005 3.063,15.988 2.891 C 15.947 2.498,15.673 2.170,15.290 2.055 C 15.014 1.972,8.891 1.980,8.664 2.063 M13.618 4.090 C 13.542 4.347,13.253 4.932,13.058 5.224 C 12.724 5.726,12.351 6.000,12.000 6.000 C 11.649 6.000,11.276 5.726,10.942 5.224 C 10.747 4.932,10.458 4.347,10.382 4.090 L 10.355 4.000 12.000 4.000 L 13.645 4.000 13.618 4.090 M13.810 8.112 C 14.502 8.301,15.061 8.607,15.561 9.071 C 15.962 9.443,16.207 9.769,16.426 10.220 C 16.650 10.684,18.376 16.031,18.465 16.540 C 18.699 17.879,17.911 19.266,16.626 19.777 C 16.058 20.003,16.141 19.999,12.000 19.999 C 7.859 19.999,7.942 20.003,7.374 19.777 C 6.508 19.433,5.836 18.674,5.593 17.766 C 5.497 17.407,5.476 16.648,5.555 16.360 C 5.582 16.261,6.001 14.938,6.486 13.420 C 7.411 10.527,7.581 10.081,7.933 9.616 C 8.438 8.950,9.178 8.426,9.960 8.183 C 10.474 8.023,10.706 8.005,12.160 8.017 C 13.379 8.027,13.528 8.035,13.810 8.112 M12.310 10.061 C 10.856 10.336,9.698 11.321,9.218 12.690 C 9.119 12.974,9.100 13.000,9.001 13.000 C 8.674 13.000,8.305 13.215,8.135 13.504 C 7.777 14.116,8.186 14.915,8.895 14.988 L 9.113 15.011 9.220 15.315 C 9.692 16.661,10.811 17.626,12.245 17.922 C 12.987 18.076,14.001 17.967,14.513 17.679 C 14.825 17.504,15.026 17.106,14.988 16.739 C 14.950 16.363,14.745 16.080,14.400 15.923 C 14.172 15.820,13.905 15.819,13.523 15.921 C 13.025 16.053,12.598 16.014,12.130 15.794 C 11.864 15.668,11.467 15.329,11.348 15.124 L 11.275 15.000 11.728 14.998 C 12.374 14.996,12.641 14.877,12.869 14.489 C 12.964 14.328,12.980 14.256,12.980 14.000 C 12.980 13.746,12.963 13.672,12.872 13.516 C 12.648 13.135,12.340 13.000,11.692 13.000 C 11.280 13.000,11.278 12.999,11.323 12.914 C 11.408 12.756,11.698 12.469,11.913 12.330 C 12.366 12.040,12.888 11.945,13.400 12.060 C 14.065 12.211,14.363 12.175,14.667 11.909 C 15.167 11.469,15.072 10.623,14.486 10.309 C 14.013 10.054,12.970 9.935,12.310 10.061 " stroke="none" fill-rule="evenodd" fill="black"></path></svg>