<svg xmlns="http://www.w3.org/2000/svg" width="24" height="24" viewBox="0 0 24 24" fill="none" stroke="currentColor" stroke-width="2" stroke-linecap="round" stroke-linejoin="round"><path d="M8.664 2.063 C 8.292 2.199,8.046 2.519,8.013 2.910 C 7.996 3.101,8.024 3.246,8.175 3.769 C 8.444 4.701,8.889 5.776,9.169 6.172 C 9.213 6.234,9.242 6.290,9.234 6.298 C 9.226 6.305,9.076 6.368,8.900 6.438 C 7.300 7.073,6.044 8.406,5.466 10.080 C 5.186 10.891,3.719 15.489,3.644 15.793 C 3.452 16.564,3.440 17.272,3.606 18.038 C 4.032 20.004,5.510 21.464,7.520 21.905 C 7.840 21.976,8.107 21.980,12.000 21.980 C 15.893 21.980,16.160 21.976,16.480 21.905 C 17.916 21.590,19.052 20.787,19.796 19.563 C 20.339 18.668,20.604 17.485,20.483 16.493 C 20.413 15.919,20.364 15.749,19.462 12.940 C 18.501 9.944,18.434 9.749,18.209 9.300 C 17.573 8.024,16.419 6.962,15.100 6.438 C 14.924 6.368,14.774 6.305,14.766 6.298 C 14.758 6.290,14.787 6.234,14.831 6.172 C 15.117 5.768,15.606 4.567,15.861 3.643 C 15.980 3.214,16.005 3.063,15.988 2.891 C 15.947 2.498,15.673 2.170,15.290 2.055 C 15.014 1.972,8.891 1.980,8.664 2.063 M13.618 4.090 C 13.542 4.347,13.253 4.932,13.058 5.224 C 12.724 5.726,12.351 6.000,12.000 6.000 C 11.649 6.000,11.276 5.726,10.942 5.224 C 10.747 4.932,10.458 4.347,10.382 4.090 L 10.355 4.000 12.000 4.000 L 13.645 4.000 13.618 4.090 M13.810 8.112 C 14.502 8.301,15.061 8.607,15.561 9.071 C 15.962 9.443,16.207 9.769,16.426 10.220 C 16.650 10.684,18.376 16.031,18.465 16.540 C 18.699 17.879,17.911 19.266,16.626 19.777 C 16.058 20.003,16.141 19.999,12.000 19.999 C 7.859 19.999,7.942 20.003,7.374 19.777 C 6.508 19.433,5.836 18.674,5.593 17.766 C 5.497 17.407,5.476 16.648,5.555 16.360 C 5.582 16.261,6.001 14.938,6.486 13.420 C 7.411 10.527,7.581 10.081,7.933 9.616 C 8.438 8.950,9.178 8.426,9.960 8.183 C 10.474 8.023,10.706 8.005,12.160 8.017 C 13.379 8.027,13.528 8.035,13.810 8.112 M12.499 10.043 C 11.182 10.264,10.136 11.381,10.017 12.693 L 9.990 12.990 9.781 13.036 C 9.515 13.096,9.269 13.276,9.129 13.514 C 9.036 13.672,9.020 13.745,9.020 14.003 C 9.020 14.271,9.034 14.329,9.141 14.503 C 9.289 14.744,9.577 14.946,9.826 14.983 L 10.010 15.011 9.985 15.255 C 9.925 15.833,9.845 15.949,9.468 16.002 C 8.867 16.087,8.512 16.457,8.512 17.000 C 8.512 17.405,8.719 17.724,9.100 17.905 L 9.300 17.999 11.740 17.998 C 13.674 17.997,14.211 17.985,14.330 17.943 C 14.551 17.864,14.744 17.702,14.869 17.489 C 14.964 17.328,14.980 17.256,14.980 17.000 C 14.980 16.746,14.963 16.672,14.872 16.516 C 14.813 16.415,14.698 16.282,14.618 16.221 C 14.355 16.020,14.206 16.000,13.008 16.000 L 11.910 16.000 11.935 15.850 C 11.949 15.768,11.972 15.543,11.986 15.350 L 12.012 15.000 12.596 14.998 C 12.978 14.997,13.232 14.978,13.330 14.943 C 13.551 14.864,13.744 14.702,13.869 14.489 C 13.964 14.328,13.980 14.256,13.980 14.000 C 13.980 13.746,13.963 13.672,13.872 13.516 C 13.633 13.110,13.352 13.000,12.554 13.000 C 11.934 13.000,11.963 13.018,12.061 12.690 C 12.103 12.548,12.178 12.429,12.303 12.303 C 12.561 12.045,12.743 12.000,13.537 11.998 C 14.230 11.996,14.378 11.967,14.619 11.783 C 14.696 11.725,14.808 11.592,14.869 11.489 C 14.964 11.328,14.980 11.256,14.980 11.000 C 14.980 10.746,14.963 10.672,14.872 10.516 C 14.740 10.293,14.533 10.128,14.290 10.055 C 14.084 9.993,12.845 9.985,12.499 10.043 " stroke="none" fill-rule="evenodd" fill="black"></path></svg>