<svg xmlns="http://www.w3.org/2000/svg" width="24" height="24" viewBox="0 0 24 24" fill="none" stroke="currentColor" stroke-width="2" stroke-linecap="round" stroke-linejoin="round"><path d="M16.810 2.062 C 16.695 2.093,16.524 2.157,16.430 2.204 C 16.067 2.388,3.398 10.007,3.164 10.184 C 2.701 10.531,2.297 11.142,2.120 11.761 C 1.987 12.222,1.968 12.855,2.074 13.281 C 2.175 13.691,2.521 14.395,2.806 14.775 C 3.192 15.287,3.832 15.708,4.520 15.905 C 4.886 16.009,5.761 16.010,6.100 15.906 C 6.232 15.866,7.378 15.456,8.647 14.996 C 9.915 14.536,10.964 14.160,10.977 14.160 C 10.989 14.160,11.000 14.470,10.999 14.850 L 10.998 15.540 8.102 17.950 C 4.857 20.652,5.020 20.490,5.020 21.020 C 5.020 21.254,5.038 21.331,5.131 21.489 C 5.264 21.715,5.442 21.858,5.699 21.946 C 5.916 22.020,6.243 22.002,6.428 21.906 C 6.493 21.873,7.544 21.014,8.763 19.997 L 10.980 18.150 11.000 19.728 L 11.020 21.306 11.141 21.503 C 11.209 21.613,11.346 21.756,11.452 21.828 C 11.923 22.144,12.554 21.999,12.859 21.503 L 12.980 21.306 13.000 19.728 L 13.020 18.150 15.237 19.997 C 16.456 21.014,17.507 21.873,17.572 21.906 C 17.757 22.002,18.084 22.020,18.301 21.946 C 18.558 21.858,18.736 21.715,18.869 21.489 C 18.962 21.331,18.980 21.254,18.980 21.020 C 18.980 20.490,19.143 20.652,15.898 17.950 L 13.002 15.540 13.001 14.479 L 13.000 13.417 16.850 12.023 C 18.968 11.257,20.822 10.566,20.971 10.489 C 21.756 10.083,22.184 9.045,21.920 8.191 C 21.843 7.939,19.323 3.346,19.012 2.888 C 18.545 2.201,17.603 1.848,16.810 2.062 M18.684 6.378 C 19.406 7.675,19.991 8.742,19.984 8.749 C 19.937 8.797,17.658 9.593,17.638 9.569 C 17.547 9.464,15.276 5.230,15.298 5.208 C 15.375 5.128,17.268 4.007,17.315 4.013 C 17.346 4.017,17.962 5.081,18.684 6.378 M14.655 8.293 C 15.241 9.367,15.720 10.259,15.720 10.275 C 15.720 10.291,13.447 11.129,10.670 12.137 C 6.756 13.557,5.566 13.973,5.380 13.988 C 4.879 14.029,4.482 13.768,4.180 13.200 C 4.039 12.933,4.021 12.869,4.021 12.620 C 4.020 12.249,4.166 11.937,4.434 11.737 C 4.842 11.434,13.541 6.248,13.565 6.294 C 13.579 6.319,14.070 7.219,14.655 8.293 " stroke="none" fill-rule="evenodd" fill="black"></path></svg>