<svg xmlns="http://www.w3.org/2000/svg" width="24" height="24" viewBox="0 0 24 24" fill="none" stroke="currentColor" stroke-width="2" stroke-linecap="round" stroke-linejoin="round"><path d="M5.499 5.040 C 4.363 5.246,3.460 6.049,3.114 7.160 C 2.979 7.594,2.979 8.406,3.114 8.840 C 3.421 9.826,4.174 10.579,5.160 10.886 C 5.594 11.021,6.406 11.021,6.840 10.886 C 7.826 10.579,8.579 9.826,8.886 8.840 C 9.021 8.406,9.021 7.594,8.886 7.160 C 8.581 6.179,7.810 5.407,6.861 5.129 C 6.500 5.023,5.832 4.980,5.499 5.040 M13.477 5.073 C 12.789 5.253,12.184 5.887,12.041 6.577 C 12.012 6.715,12.002 8.638,12.009 12.543 L 12.020 18.306 12.141 18.503 C 12.543 19.156,13.457 19.156,13.859 18.503 L 13.980 18.306 13.991 15.653 L 14.002 13.000 16.091 12.998 C 17.731 12.997,18.212 12.985,18.330 12.943 C 18.551 12.864,18.744 12.702,18.869 12.489 C 18.964 12.328,18.980 12.256,18.980 12.000 C 18.980 11.746,18.963 11.672,18.872 11.516 C 18.813 11.415,18.698 11.282,18.618 11.221 C 18.334 11.004,18.283 11.000,16.054 11.000 L 14.000 11.000 14.000 9.000 L 14.000 7.000 17.090 6.998 C 19.567 6.997,20.210 6.986,20.330 6.943 C 20.551 6.864,20.744 6.702,20.869 6.489 C 20.964 6.328,20.980 6.256,20.980 6.000 C 20.980 5.746,20.963 5.672,20.872 5.516 C 20.813 5.415,20.698 5.282,20.618 5.221 C 20.323 4.996,20.379 5.000,16.924 5.002 C 14.048 5.004,13.715 5.011,13.477 5.073 M6.310 7.061 C 6.688 7.173,7.000 7.598,7.000 8.001 C 7.000 8.331,6.784 8.696,6.484 8.872 C 6.328 8.963,6.254 8.980,6.000 8.980 C 5.746 8.980,5.672 8.963,5.516 8.872 C 4.935 8.530,4.833 7.774,5.304 7.303 C 5.583 7.024,5.916 6.944,6.310 7.061 " stroke="none" fill-rule="evenodd" fill="black"></path></svg>