<svg xmlns="http://www.w3.org/2000/svg" width="24" height="24" viewBox="0 0 24 24" fill="none" stroke="currentColor" stroke-width="2" stroke-linecap="round" stroke-linejoin="round"><path d="M2.670 2.061 C 2.448 2.142,2.250 2.309,2.128 2.516 C 2.036 2.672,2.020 2.745,2.021 3.000 C 2.022 3.392,2.070 3.478,2.592 4.009 L 3.013 4.438 3.005 5.849 C 2.996 7.383,3.009 7.503,3.225 7.930 C 3.361 8.199,3.801 8.639,4.070 8.775 C 4.486 8.986,4.618 9.000,6.159 9.000 L 7.581 9.000 8.636 10.056 L 9.692 11.112 9.456 11.057 C 9.269 11.013,8.755 11.002,6.980 11.003 C 4.479 11.005,4.435 11.009,3.983 11.281 C 3.703 11.449,3.354 11.816,3.219 12.083 C 2.997 12.520,3.000 12.467,3.000 16.000 C 3.000 19.547,2.996 19.478,3.225 19.930 C 3.361 20.199,3.801 20.639,4.070 20.775 C 4.509 20.997,4.545 21.000,7.000 21.000 C 9.455 21.000,9.491 20.997,9.930 20.775 C 10.196 20.640,10.638 20.200,10.771 19.937 C 11.003 19.479,11.000 19.537,10.999 16.014 C 10.999 13.398,10.988 12.735,10.943 12.544 L 10.888 12.308 12.260 13.680 L 13.632 15.052 13.446 15.179 C 13.344 15.250,13.206 15.394,13.140 15.500 C 13.034 15.671,13.020 15.730,13.020 15.997 C 13.020 16.256,13.036 16.327,13.131 16.489 C 13.192 16.592,13.304 16.725,13.381 16.783 C 13.635 16.977,13.753 16.996,14.700 16.998 L 15.581 17.000 16.580 18.000 L 17.579 19.000 15.736 19.000 C 13.735 19.000,13.663 19.007,13.382 19.221 C 13.302 19.282,13.187 19.415,13.128 19.516 C 13.037 19.672,13.020 19.746,13.020 20.000 C 13.020 20.256,13.036 20.328,13.131 20.489 C 13.256 20.702,13.449 20.864,13.670 20.943 C 13.790 20.986,14.399 20.997,16.701 20.998 L 19.582 21.000 19.961 21.383 C 20.471 21.898,20.614 21.980,21.000 21.980 C 21.257 21.980,21.327 21.964,21.492 21.867 C 21.968 21.587,22.139 20.967,21.865 20.508 C 21.810 20.416,17.665 16.243,12.653 11.235 C 4.231 2.820,3.525 2.125,3.343 2.065 C 3.107 1.987,2.874 1.986,2.670 2.061 M7.695 3.057 C 7.466 3.129,7.256 3.299,7.128 3.516 C 7.037 3.672,7.020 3.746,7.020 4.000 C 7.020 4.256,7.036 4.328,7.131 4.489 C 7.256 4.702,7.449 4.864,7.670 4.943 C 7.792 4.987,8.845 4.997,13.410 4.998 L 19.000 5.000 19.000 6.000 L 19.000 7.000 15.446 7.000 C 11.590 7.000,11.678 6.995,11.382 7.221 C 11.302 7.282,11.187 7.415,11.128 7.516 C 11.037 7.672,11.020 7.746,11.020 8.000 C 11.020 8.256,11.036 8.328,11.131 8.489 C 11.256 8.702,11.449 8.864,11.670 8.943 C 11.791 8.986,12.537 8.997,15.542 8.998 C 19.590 9.000,19.474 9.006,19.930 8.775 C 20.196 8.640,20.638 8.200,20.771 7.937 C 20.979 7.527,21.000 7.352,20.999 6.014 C 20.999 4.682,20.974 4.463,20.781 4.083 C 20.646 3.816,20.297 3.449,20.017 3.281 C 19.531 2.988,19.918 3.005,13.560 3.005 C 9.011 3.005,7.827 3.016,7.695 3.057 M5.300 6.720 L 5.578 7.000 5.289 7.000 L 5.000 7.000 5.000 6.720 C 5.000 6.566,5.005 6.440,5.011 6.440 C 5.017 6.440,5.147 6.566,5.300 6.720 M15.695 11.057 C 15.466 11.129,15.256 11.299,15.128 11.516 C 15.037 11.672,15.020 11.746,15.020 12.000 C 15.020 12.256,15.036 12.328,15.131 12.489 C 15.256 12.702,15.449 12.864,15.670 12.943 C 15.889 13.021,20.111 13.021,20.330 12.943 C 20.551 12.864,20.744 12.702,20.869 12.489 C 20.964 12.328,20.980 12.256,20.980 12.000 C 20.980 11.746,20.963 11.672,20.872 11.516 C 20.740 11.293,20.533 11.128,20.290 11.055 C 20.033 10.978,15.943 10.979,15.695 11.057 M9.000 16.000 L 9.000 19.000 7.000 19.000 L 5.000 19.000 5.000 16.000 L 5.000 13.000 7.000 13.000 L 9.000 13.000 9.000 16.000 " stroke="none" fill-rule="evenodd" fill="black"></path></svg>