<svg xmlns="http://www.w3.org/2000/svg" width="24" height="24" viewBox="0 0 24 24" fill="none" stroke="currentColor" stroke-width="2" stroke-linecap="round" stroke-linejoin="round"><path d="M2.670 2.061 C 2.448 2.142,2.250 2.309,2.128 2.516 C 2.037 2.672,2.020 2.746,2.020 3.000 C 2.020 3.254,2.036 3.327,2.127 3.480 C 2.189 3.582,3.696 5.120,5.617 7.040 L 9.000 10.420 8.999 11.700 L 8.998 12.980 8.835 13.100 C 8.625 13.255,8.178 13.725,7.958 14.023 C 7.578 14.537,7.243 15.303,7.093 16.001 C 6.991 16.476,6.993 17.494,7.096 17.940 C 7.326 18.937,7.719 19.694,8.356 20.372 C 9.047 21.108,9.850 21.573,10.869 21.829 C 11.252 21.926,11.376 21.938,11.980 21.939 C 12.496 21.940,12.737 21.922,12.980 21.867 C 14.045 21.626,14.893 21.156,15.601 20.415 C 16.120 19.871,16.507 19.241,16.726 18.580 C 16.778 18.426,16.825 18.292,16.831 18.282 C 16.838 18.272,17.648 19.067,18.631 20.048 C 19.615 21.029,20.483 21.865,20.560 21.905 C 20.659 21.957,20.788 21.979,21.000 21.979 C 21.258 21.980,21.327 21.964,21.492 21.867 C 21.968 21.587,22.139 20.967,21.865 20.508 C 21.810 20.416,17.665 16.243,12.653 11.235 C 4.231 2.820,3.525 2.125,3.343 2.065 C 3.107 1.987,2.874 1.986,2.670 2.061 M11.499 2.040 C 10.363 2.246,9.461 3.048,9.114 4.160 C 9.027 4.438,9.020 4.527,9.020 5.383 L 9.020 6.306 9.141 6.503 C 9.543 7.156,10.457 7.156,10.859 6.503 L 10.980 6.306 11.002 5.523 C 11.027 4.636,11.050 4.547,11.321 4.283 C 11.490 4.120,11.777 4.000,12.000 4.000 C 12.237 4.000,12.514 4.120,12.697 4.303 C 12.993 4.599,13.000 4.651,13.000 6.441 L 13.000 7.987 12.786 8.035 C 12.515 8.096,12.270 8.275,12.129 8.514 C 12.036 8.672,12.020 8.745,12.020 9.003 C 12.020 9.271,12.034 9.329,12.141 9.503 C 12.287 9.740,12.577 9.946,12.817 9.982 C 12.988 10.007,12.993 10.012,13.018 10.183 C 13.054 10.423,13.260 10.713,13.497 10.859 C 13.671 10.966,13.729 10.980,13.997 10.980 C 14.257 10.980,14.327 10.964,14.492 10.867 C 14.711 10.738,14.901 10.498,14.962 10.273 C 14.989 10.171,14.999 9.156,14.991 7.269 L 14.979 4.420 14.885 4.140 C 14.557 3.156,13.800 2.403,12.861 2.129 C 12.500 2.023,11.832 1.980,11.499 2.040 M14.987 16.782 C 15.088 18.440,13.824 19.865,12.177 19.950 C 10.829 20.020,9.689 19.276,9.189 18.000 C 8.736 16.844,9.146 15.377,10.131 14.631 C 10.268 14.527,10.461 14.382,10.560 14.309 C 10.766 14.157,10.902 13.972,10.959 13.765 C 10.981 13.685,11.000 13.350,11.000 13.020 L 11.000 12.420 12.981 14.401 L 14.962 16.382 14.987 16.782 " stroke="none" fill-rule="evenodd" fill="black"></path></svg>