<svg xmlns="http://www.w3.org/2000/svg" width="24" height="24" viewBox="0 0 24 24" fill="none" stroke="currentColor" stroke-width="2" stroke-linecap="round" stroke-linejoin="round"><path d="M2.670 2.061 C 2.448 2.142,2.250 2.309,2.128 2.516 C 2.036 2.672,2.020 2.745,2.021 3.000 C 2.021 3.212,2.043 3.341,2.095 3.440 C 2.135 3.517,3.452 4.867,5.021 6.440 L 7.874 9.300 4.954 14.485 C 2.304 19.193,2.033 19.690,2.013 19.890 C 1.981 20.196,2.083 20.485,2.298 20.700 C 2.611 21.013,2.454 21.000,6.002 21.000 C 9.410 21.000,9.321 21.005,9.612 20.783 C 9.689 20.724,10.204 19.991,10.862 19.003 C 11.477 18.079,11.989 17.322,12.000 17.322 C 12.011 17.322,12.523 18.079,13.138 19.003 C 13.796 19.991,14.311 20.724,14.388 20.783 C 14.674 21.001,14.658 21.000,17.216 21.000 L 19.582 21.000 19.961 21.383 C 20.471 21.898,20.614 21.980,21.000 21.980 C 21.257 21.980,21.327 21.964,21.492 21.867 C 21.968 21.587,22.139 20.967,21.865 20.508 C 21.810 20.416,17.665 16.243,12.653 11.235 C 4.231 2.820,3.525 2.125,3.343 2.065 C 3.107 1.987,2.874 1.986,2.670 2.061 M11.660 3.069 C 11.326 3.184,11.202 3.355,10.367 4.850 C 9.697 6.050,9.592 6.262,9.572 6.451 C 9.497 7.179,10.193 7.735,10.885 7.499 C 11.185 7.397,11.320 7.248,11.661 6.645 C 11.836 6.334,11.989 6.080,12.000 6.080 C 12.011 6.080,12.973 7.773,14.137 9.843 C 15.301 11.913,16.302 13.674,16.363 13.758 C 16.517 13.970,16.831 14.120,17.125 14.120 C 17.869 14.120,18.339 13.384,18.028 12.707 C 17.873 12.370,12.883 3.513,12.762 3.360 C 12.523 3.058,12.053 2.934,11.660 3.069 M12.067 13.606 C 12.041 13.647,12.012 13.680,12.000 13.680 C 11.989 13.680,11.928 13.598,11.865 13.498 C 11.507 12.931,10.779 12.837,10.306 13.296 C 10.033 13.561,9.931 13.978,10.054 14.320 C 10.082 14.397,10.255 14.684,10.439 14.959 C 10.623 15.233,10.773 15.476,10.773 15.499 C 10.773 15.522,10.254 16.319,9.620 17.270 L 8.467 19.000 6.590 19.000 L 4.714 19.000 4.867 18.726 C 4.951 18.575,5.992 16.722,7.180 14.608 L 9.340 10.764 10.726 12.148 C 11.952 13.372,12.108 13.541,12.067 13.606 M15.580 17.000 L 17.580 19.000 16.556 19.000 L 15.533 19.000 14.380 17.270 C 13.746 16.319,13.227 15.522,13.227 15.500 C 13.227 15.449,13.522 15.000,13.556 15.000 C 13.569 15.000,14.480 15.900,15.580 17.000 " stroke="none" fill-rule="evenodd" fill="black"></path></svg>