<svg xmlns="http://www.w3.org/2000/svg" width="24" height="24" viewBox="0 0 24 24" fill="none" stroke="currentColor" stroke-width="2" stroke-linecap="round" stroke-linejoin="round"><path d="M11.660 3.069 C 11.538 3.111,11.398 3.202,11.300 3.302 C 11.188 3.418,9.787 5.875,6.588 11.569 C 2.442 18.946,2.033 19.691,2.013 19.890 C 1.981 20.196,2.083 20.485,2.298 20.700 C 2.611 21.013,2.454 21.000,6.002 21.000 C 9.410 21.000,9.321 21.005,9.612 20.783 C 9.689 20.724,10.204 19.991,10.862 19.003 C 11.477 18.079,11.989 17.322,12.000 17.322 C 12.011 17.322,12.523 18.079,13.138 19.003 C 13.796 19.991,14.311 20.724,14.388 20.783 C 14.679 21.006,14.587 21.000,18.015 20.998 C 21.428 20.996,21.332 21.002,21.619 20.783 C 21.927 20.549,22.074 20.075,21.951 19.714 C 21.880 19.505,12.921 3.561,12.762 3.360 C 12.523 3.058,12.053 2.934,11.660 3.069 M15.580 12.406 C 17.538 15.885,19.172 18.792,19.211 18.866 L 19.282 19.000 17.407 19.000 L 15.533 19.000 14.380 17.270 C 13.746 16.319,13.227 15.522,13.227 15.499 C 13.227 15.476,13.375 15.236,13.556 14.966 C 13.737 14.695,13.911 14.401,13.943 14.312 C 14.174 13.656,13.612 12.943,12.917 13.009 C 12.566 13.043,12.267 13.256,12.041 13.632 C 12.002 13.696,11.998 13.696,11.959 13.632 C 11.733 13.256,11.434 13.043,11.083 13.009 C 10.390 12.943,9.820 13.669,10.054 14.320 C 10.082 14.397,10.255 14.684,10.439 14.959 C 10.623 15.233,10.773 15.476,10.773 15.499 C 10.773 15.522,10.254 16.319,9.620 17.270 L 8.467 19.000 6.593 19.000 L 4.718 19.000 4.789 18.866 C 5.030 18.410,11.984 6.080,12.000 6.080 C 12.011 6.080,13.622 8.927,15.580 12.406 " stroke="none" fill-rule="evenodd" fill="black"></path></svg>