<svg xmlns="http://www.w3.org/2000/svg" width="24" height="24" viewBox="0 0 24 24" fill="none" stroke="currentColor" stroke-width="2" stroke-linecap="round" stroke-linejoin="round"><path d="M4.499 3.043 C 3.380 3.232,2.461 4.048,2.114 5.160 L 2.020 5.460 2.020 12.000 L 2.020 18.540 2.114 18.840 C 2.422 19.827,3.173 20.578,4.160 20.886 L 4.460 20.980 12.000 20.980 L 19.540 20.980 19.840 20.886 C 20.827 20.578,21.578 19.827,21.886 18.840 L 21.980 18.540 21.980 12.000 L 21.980 5.460 21.886 5.160 C 21.581 4.182,20.832 3.428,19.861 3.121 L 19.540 3.020 12.120 3.014 C 8.039 3.011,4.609 3.024,4.499 3.043 M19.310 5.061 C 19.589 5.144,19.856 5.411,19.939 5.690 C 19.992 5.869,20.000 6.651,20.000 12.001 C 20.000 17.059,19.991 18.139,19.945 18.290 C 19.872 18.533,19.707 18.740,19.484 18.872 L 19.300 18.980 12.000 18.980 L 4.700 18.980 4.516 18.872 C 4.303 18.747,4.141 18.550,4.058 18.316 C 3.968 18.060,3.971 5.993,4.061 5.690 C 4.140 5.421,4.412 5.143,4.673 5.063 C 4.964 4.974,19.009 4.971,19.310 5.061 M7.670 8.061 C 7.448 8.142,7.250 8.309,7.128 8.516 C 7.036 8.672,7.020 8.745,7.021 9.000 C 7.021 9.213,7.043 9.341,7.095 9.440 C 7.136 9.517,7.711 10.125,8.374 10.790 L 9.578 12.000 8.374 13.210 C 7.711 13.876,7.138 14.481,7.101 14.555 C 6.872 15.009,7.056 15.601,7.508 15.867 C 7.673 15.964,7.742 15.980,8.000 15.979 C 8.212 15.979,8.341 15.957,8.440 15.905 C 8.632 15.804,11.739 12.704,11.873 12.480 C 11.964 12.328,11.980 12.254,11.980 12.000 C 11.980 11.746,11.963 11.672,11.873 11.520 C 11.814 11.421,11.040 10.618,10.153 9.736 C 8.714 8.305,8.519 8.124,8.343 8.066 C 8.108 7.987,7.875 7.986,7.670 8.061 M12.695 14.057 C 12.466 14.129,12.256 14.299,12.128 14.516 C 12.037 14.672,12.020 14.746,12.020 15.000 C 12.020 15.256,12.036 15.328,12.131 15.489 C 12.256 15.702,12.449 15.864,12.670 15.943 C 12.888 16.021,16.112 16.021,16.330 15.943 C 16.551 15.864,16.744 15.702,16.869 15.489 C 16.964 15.328,16.980 15.256,16.980 15.000 C 16.980 14.746,16.963 14.672,16.872 14.516 C 16.740 14.293,16.533 14.128,16.290 14.055 C 16.035 13.978,12.941 13.980,12.695 14.057 " stroke="none" fill-rule="evenodd" fill="black"></path></svg>