<svg xmlns="http://www.w3.org/2000/svg" width="24" height="24" viewBox="0 0 24 24" fill="none" stroke="currentColor" stroke-width="2" stroke-linecap="round" stroke-linejoin="round"><path d="M4.695 6.057 C 4.466 6.129,4.256 6.299,4.128 6.516 C 4.036 6.672,4.020 6.745,4.021 7.000 C 4.021 7.212,4.043 7.341,4.095 7.440 C 4.135 7.517,5.161 8.574,6.374 9.790 L 8.579 12.000 6.374 14.210 C 5.161 15.425,4.135 16.483,4.095 16.560 C 4.043 16.659,4.021 16.788,4.021 17.000 C 4.020 17.258,4.036 17.327,4.133 17.492 C 4.413 17.968,5.033 18.139,5.492 17.865 C 5.708 17.737,10.808 12.625,10.905 12.440 C 10.957 12.341,10.979 12.212,10.979 12.000 C 10.980 11.745,10.964 11.673,10.873 11.520 C 10.812 11.418,9.630 10.207,8.153 8.734 C 5.627 6.214,5.533 6.125,5.323 6.064 C 5.066 5.988,4.919 5.987,4.695 6.057 M11.695 18.057 C 11.466 18.129,11.256 18.299,11.128 18.516 C 11.037 18.672,11.020 18.746,11.020 19.000 C 11.020 19.256,11.036 19.328,11.131 19.489 C 11.256 19.702,11.449 19.864,11.670 19.943 C 11.891 20.022,19.109 20.022,19.330 19.943 C 19.551 19.864,19.744 19.702,19.869 19.489 C 19.964 19.328,19.980 19.256,19.980 19.000 C 19.980 18.746,19.963 18.672,19.872 18.516 C 19.740 18.293,19.533 18.128,19.290 18.055 C 19.030 17.977,11.945 17.979,11.695 18.057 " stroke="none" fill-rule="evenodd" fill="black"></path></svg>