<svg xmlns="http://www.w3.org/2000/svg" width="24" height="24" viewBox="0 0 24 24" fill="none" stroke="currentColor" stroke-width="2" stroke-linecap="round" stroke-linejoin="round"><path d="M2.695 6.057 C 2.466 6.129,2.256 6.299,2.128 6.516 C 2.023 6.694,2.020 6.723,2.007 7.404 C 1.999 7.825,2.011 8.172,2.037 8.268 C 2.099 8.498,2.287 8.737,2.508 8.867 C 2.673 8.964,2.743 8.980,3.003 8.980 C 3.271 8.980,3.329 8.966,3.503 8.859 C 3.742 8.712,3.946 8.422,3.982 8.179 L 4.009 8.000 4.504 8.000 L 4.998 8.000 5.009 11.653 L 5.020 15.306 5.141 15.503 C 5.543 16.156,6.457 16.156,6.859 15.503 L 6.980 15.306 6.991 11.653 L 7.002 8.000 7.496 8.000 L 7.991 8.000 8.018 8.179 C 8.054 8.422,8.258 8.712,8.497 8.859 C 8.671 8.966,8.729 8.980,8.997 8.980 C 9.257 8.980,9.327 8.964,9.492 8.867 C 9.713 8.737,9.901 8.498,9.963 8.268 C 9.989 8.172,10.001 7.825,9.993 7.404 C 9.980 6.723,9.977 6.694,9.872 6.516 C 9.740 6.293,9.533 6.128,9.290 6.055 C 9.030 5.977,2.945 5.979,2.695 6.057 M15.650 6.066 C 15.171 6.236,14.882 6.845,15.054 7.320 C 15.082 7.397,15.604 8.256,16.213 9.230 L 17.320 11.000 16.213 12.770 C 15.604 13.743,15.082 14.603,15.054 14.680 C 14.900 15.105,15.096 15.625,15.499 15.862 C 15.839 16.061,16.299 16.028,16.623 15.781 C 16.707 15.716,17.066 15.181,17.622 14.290 C 18.100 13.526,18.493 12.897,18.495 12.893 C 18.498 12.890,18.877 13.493,19.338 14.233 C 19.799 14.974,20.243 15.646,20.325 15.726 C 20.625 16.019,21.133 16.077,21.501 15.862 C 21.904 15.625,22.100 15.105,21.946 14.680 C 21.918 14.603,21.396 13.743,20.787 12.770 L 19.680 11.000 20.787 9.230 C 21.396 8.256,21.918 7.397,21.946 7.320 C 22.070 6.979,21.967 6.562,21.694 6.296 C 21.327 5.939,20.785 5.908,20.376 6.221 C 20.293 6.283,19.926 6.831,19.378 7.710 C 18.900 8.474,18.507 9.103,18.505 9.107 C 18.502 9.110,18.123 8.507,17.662 7.767 C 17.201 7.026,16.755 6.353,16.672 6.272 C 16.419 6.025,16.004 5.941,15.650 6.066 M9.695 10.057 C 9.466 10.129,9.256 10.299,9.128 10.516 L 9.020 10.700 9.009 14.913 C 9.002 17.672,9.013 19.178,9.039 19.277 C 9.099 19.498,9.290 19.739,9.508 19.867 L 9.700 19.980 11.911 19.991 C 13.337 19.999,14.176 19.988,14.275 19.961 C 14.498 19.901,14.739 19.711,14.867 19.492 C 14.964 19.327,14.980 19.257,14.980 19.000 C 14.980 18.746,14.963 18.672,14.872 18.516 C 14.813 18.415,14.698 18.282,14.618 18.221 C 14.342 18.011,14.242 18.000,12.554 18.000 L 11.000 18.000 11.000 17.000 L 11.000 16.000 12.090 15.998 C 13.262 15.996,13.357 15.983,13.619 15.783 C 13.696 15.725,13.808 15.592,13.869 15.489 C 13.964 15.328,13.980 15.256,13.980 15.000 C 13.980 14.746,13.963 14.672,13.872 14.516 C 13.813 14.415,13.698 14.282,13.618 14.221 C 13.356 14.022,13.203 14.000,12.054 14.000 L 11.000 14.000 11.000 13.000 L 11.000 12.000 12.590 11.998 C 14.300 11.996,14.346 11.991,14.619 11.783 C 14.696 11.725,14.808 11.592,14.869 11.489 C 14.964 11.328,14.980 11.256,14.980 11.000 C 14.980 10.746,14.963 10.672,14.872 10.516 C 14.740 10.293,14.533 10.128,14.290 10.055 C 14.033 9.978,9.943 9.979,9.695 10.057 " stroke="none" fill-rule="evenodd" fill="black"></path></svg>