<svg xmlns="http://www.w3.org/2000/svg" width="24" height="24" viewBox="0 0 24 24" fill="none" stroke="currentColor" stroke-width="2" stroke-linecap="round" stroke-linejoin="round"><path d="M8.900 3.045 C 7.474 3.223,6.124 4.192,5.464 5.511 C 4.947 6.542,4.865 7.806,5.241 8.929 C 5.708 10.322,6.839 11.407,8.253 11.817 C 8.443 11.872,8.688 11.929,8.798 11.943 L 8.997 11.970 9.008 13.638 L 9.020 15.306 9.141 15.503 C 9.543 16.156,10.457 16.156,10.859 15.503 L 10.980 15.306 10.991 10.153 L 11.001 5.000 12.000 5.000 L 12.999 5.000 13.009 10.153 L 13.020 15.306 13.141 15.503 C 13.543 16.156,14.457 16.156,14.859 15.503 L 14.980 15.306 14.991 10.153 L 15.001 5.000 15.591 4.998 C 15.977 4.997,16.232 4.978,16.330 4.943 C 16.551 4.864,16.744 4.702,16.869 4.489 C 16.964 4.328,16.980 4.256,16.980 4.000 C 16.980 3.746,16.963 3.672,16.872 3.516 C 16.813 3.415,16.698 3.282,16.618 3.221 C 16.321 2.995,16.405 3.000,12.644 3.005 C 10.739 3.008,9.054 3.026,8.900 3.045 M8.985 9.948 C 8.943 9.991,8.347 9.737,8.108 9.574 C 7.431 9.113,7.001 8.308,7.001 7.500 C 7.001 6.426,7.733 5.435,8.759 5.117 L 8.980 5.049 8.990 7.491 C 8.996 8.834,8.994 9.940,8.985 9.948 M16.670 16.061 C 16.448 16.142,16.250 16.309,16.128 16.516 C 16.036 16.672,16.020 16.745,16.021 17.000 C 16.022 17.354,16.076 17.476,16.371 17.788 L 16.572 18.000 10.732 18.000 C 5.900 18.000,4.861 18.009,4.710 18.055 C 4.467 18.128,4.260 18.293,4.128 18.516 C 4.037 18.672,4.020 18.746,4.020 19.000 C 4.020 19.256,4.036 19.328,4.131 19.489 C 4.256 19.702,4.449 19.864,4.670 19.943 C 4.793 19.987,5.892 19.997,10.696 19.998 L 16.572 20.000 16.371 20.212 C 16.121 20.477,16.039 20.632,16.012 20.895 C 15.971 21.295,16.158 21.662,16.508 21.867 C 16.673 21.964,16.742 21.980,17.000 21.979 C 17.213 21.979,17.341 21.957,17.440 21.905 C 17.517 21.864,18.081 21.334,18.694 20.726 C 19.920 19.510,19.999 19.405,19.999 19.000 C 19.999 18.593,19.922 18.491,18.675 17.256 C 17.683 16.273,17.515 16.124,17.343 16.066 C 17.108 15.987,16.875 15.985,16.670 16.061 " stroke="none" fill-rule="evenodd" fill="black"></path></svg>