<svg xmlns="http://www.w3.org/2000/svg" width="24" height="24" viewBox="0 0 24 24" fill="none" stroke="currentColor" stroke-width="2" stroke-linecap="round" stroke-linejoin="round"><path d="M3.695 5.057 C 3.466 5.129,3.256 5.299,3.128 5.516 C 3.037 5.672,3.020 5.746,3.020 6.000 C 3.020 6.256,3.036 6.328,3.131 6.489 C 3.256 6.702,3.449 6.864,3.670 6.943 C 3.892 7.022,14.108 7.022,14.330 6.943 C 14.551 6.864,14.744 6.702,14.869 6.489 C 14.964 6.328,14.980 6.256,14.980 6.000 C 14.980 5.746,14.963 5.672,14.872 5.516 C 14.740 5.293,14.533 5.128,14.290 5.055 C 14.028 4.976,3.946 4.978,3.695 5.057 M17.670 8.061 C 17.448 8.142,17.250 8.309,17.128 8.516 C 17.036 8.672,17.020 8.745,17.021 9.000 C 17.021 9.213,17.043 9.340,17.096 9.440 C 17.136 9.517,17.486 9.900,17.873 10.290 L 18.577 11.000 11.235 11.000 C 5.129 11.000,3.862 11.009,3.710 11.055 C 3.467 11.128,3.260 11.293,3.128 11.516 C 3.037 11.672,3.020 11.746,3.020 12.000 C 3.020 12.256,3.036 12.328,3.131 12.489 C 3.256 12.702,3.449 12.864,3.670 12.943 C 3.793 12.987,5.139 12.997,11.199 12.998 L 18.577 13.000 17.873 13.710 C 17.486 14.101,17.139 14.481,17.101 14.555 C 16.872 15.008,17.056 15.601,17.508 15.867 C 17.673 15.964,17.742 15.980,18.000 15.979 C 18.212 15.979,18.341 15.957,18.440 15.905 C 18.632 15.804,21.739 12.704,21.873 12.480 C 21.964 12.328,21.980 12.254,21.980 12.000 C 21.980 11.746,21.963 11.672,21.873 11.520 C 21.814 11.421,21.040 10.618,20.153 9.736 C 18.714 8.305,18.519 8.124,18.343 8.066 C 18.108 7.987,17.875 7.986,17.670 8.061 M3.695 17.057 C 3.466 17.129,3.256 17.299,3.128 17.516 C 3.037 17.672,3.020 17.746,3.020 18.000 C 3.020 18.256,3.036 18.328,3.131 18.489 C 3.256 18.702,3.449 18.864,3.670 18.943 C 3.892 19.022,14.108 19.022,14.330 18.943 C 14.551 18.864,14.744 18.702,14.869 18.489 C 14.964 18.328,14.980 18.256,14.980 18.000 C 14.980 17.746,14.963 17.672,14.872 17.516 C 14.740 17.293,14.533 17.128,14.290 17.055 C 14.028 16.976,3.946 16.978,3.695 17.057 " stroke="none" fill-rule="evenodd" fill="black"></path></svg>