<svg xmlns="http://www.w3.org/2000/svg" width="24" height="24" viewBox="0 0 24 24" fill="none" stroke="currentColor" stroke-width="2" stroke-linecap="round" stroke-linejoin="round"><path d="M3.695 5.057 C 3.466 5.129,3.256 5.299,3.128 5.516 C 3.037 5.672,3.020 5.746,3.020 6.000 C 3.020 6.256,3.036 6.328,3.131 6.489 C 3.256 6.702,3.449 6.864,3.670 6.943 C 3.893 7.022,20.107 7.022,20.330 6.943 C 20.551 6.864,20.744 6.702,20.869 6.489 C 20.964 6.328,20.980 6.256,20.980 6.000 C 20.980 5.746,20.963 5.672,20.872 5.516 C 20.740 5.293,20.533 5.128,20.290 5.055 C 20.027 4.976,3.947 4.978,3.695 5.057 M3.695 11.057 C 3.466 11.129,3.256 11.299,3.128 11.516 C 3.037 11.672,3.020 11.746,3.020 12.000 C 3.020 12.256,3.036 12.328,3.131 12.489 C 3.256 12.702,3.449 12.864,3.670 12.943 C 3.793 12.987,5.035 12.997,10.540 13.001 C 18.035 13.005,17.527 12.986,18.017 13.281 C 18.902 13.814,19.243 14.955,18.793 15.880 C 18.638 16.198,18.227 16.625,17.930 16.775 C 17.542 16.971,17.341 17.000,16.346 17.000 L 15.428 17.000 15.629 16.788 C 15.924 16.476,15.978 16.354,15.979 16.000 C 15.980 15.745,15.964 15.672,15.872 15.516 C 15.618 15.084,15.136 14.905,14.657 15.066 C 14.485 15.124,14.320 15.271,13.347 16.236 C 12.734 16.843,12.185 17.421,12.127 17.520 C 12.036 17.672,12.020 17.746,12.021 18.000 C 12.021 18.213,12.043 18.341,12.095 18.440 C 12.197 18.633,14.297 20.740,14.520 20.873 C 14.672 20.964,14.746 20.980,15.000 20.980 C 15.257 20.980,15.327 20.964,15.492 20.867 C 15.842 20.662,16.029 20.295,15.988 19.895 C 15.961 19.632,15.879 19.477,15.629 19.212 L 15.428 19.000 16.398 19.000 C 17.208 19.000,17.432 18.987,17.757 18.921 C 19.117 18.643,20.193 17.755,20.704 16.488 C 21.090 15.530,21.090 14.469,20.705 13.516 C 20.172 12.197,19.001 11.269,17.605 11.058 C 17.065 10.977,3.955 10.976,3.695 11.057 M3.695 17.057 C 3.466 17.129,3.256 17.299,3.128 17.516 C 3.037 17.672,3.020 17.746,3.020 18.000 C 3.020 18.256,3.036 18.328,3.131 18.489 C 3.256 18.702,3.449 18.864,3.670 18.943 C 3.890 19.021,9.110 19.021,9.330 18.943 C 9.551 18.864,9.744 18.702,9.869 18.489 C 9.964 18.328,9.980 18.256,9.980 18.000 C 9.980 17.746,9.963 17.672,9.872 17.516 C 9.740 17.293,9.533 17.128,9.290 17.055 C 9.031 16.977,3.944 16.979,3.695 17.057 " stroke="none" fill-rule="evenodd" fill="black"></path></svg>