<svg xmlns="http://www.w3.org/2000/svg" width="24" height="24" viewBox="0 0 24 24" fill="none" stroke="currentColor" stroke-width="2" stroke-linecap="round" stroke-linejoin="round"><path d="M8.900 3.045 C 7.474 3.223,6.124 4.192,5.464 5.511 C 4.947 6.542,4.865 7.806,5.241 8.929 C 5.708 10.322,6.839 11.407,8.253 11.817 C 8.443 11.872,8.688 11.929,8.798 11.943 L 8.997 11.970 9.008 13.638 L 9.020 15.306 9.141 15.503 C 9.543 16.156,10.457 16.156,10.859 15.503 L 10.980 15.306 10.991 10.153 L 11.001 5.000 12.000 5.000 L 12.999 5.000 13.009 10.153 L 13.020 15.306 13.141 15.503 C 13.543 16.156,14.457 16.156,14.859 15.503 L 14.980 15.306 14.991 10.153 L 15.001 5.000 15.591 4.998 C 15.977 4.997,16.232 4.978,16.330 4.943 C 16.551 4.864,16.744 4.702,16.869 4.489 C 16.964 4.328,16.980 4.256,16.980 4.000 C 16.980 3.746,16.963 3.672,16.872 3.516 C 16.813 3.415,16.698 3.282,16.618 3.221 C 16.321 2.995,16.405 3.000,12.644 3.005 C 10.739 3.008,9.054 3.026,8.900 3.045 M8.985 9.948 C 8.943 9.991,8.347 9.737,8.108 9.574 C 7.431 9.113,7.001 8.308,7.001 7.500 C 7.001 6.426,7.733 5.435,8.759 5.117 L 8.980 5.049 8.990 7.491 C 8.996 8.834,8.994 9.940,8.985 9.948 M6.640 16.069 C 6.491 16.121,6.262 16.328,5.325 17.256 C 4.078 18.491,4.001 18.593,4.001 19.000 C 4.001 19.405,4.080 19.510,5.306 20.726 C 5.919 21.334,6.483 21.864,6.560 21.905 C 6.659 21.957,6.787 21.979,7.000 21.979 C 7.258 21.980,7.327 21.964,7.492 21.867 C 7.842 21.662,8.029 21.295,7.988 20.895 C 7.961 20.632,7.879 20.477,7.629 20.212 L 7.428 20.000 13.304 19.998 C 18.108 19.997,19.207 19.987,19.330 19.943 C 19.551 19.864,19.744 19.702,19.869 19.489 C 19.964 19.328,19.980 19.256,19.980 19.000 C 19.980 18.746,19.963 18.672,19.872 18.516 C 19.740 18.293,19.533 18.128,19.290 18.055 C 19.139 18.009,18.100 18.000,13.268 18.000 L 7.428 18.000 7.629 17.788 C 7.924 17.476,7.978 17.354,7.979 17.000 C 7.980 16.745,7.964 16.672,7.872 16.516 C 7.617 16.083,7.120 15.902,6.640 16.069 " stroke="none" fill-rule="evenodd" fill="black"></path></svg>