<svg xmlns="http://www.w3.org/2000/svg" width="24" height="24" viewBox="0 0 24 24" fill="none" stroke="currentColor" stroke-width="2" stroke-linecap="round" stroke-linejoin="round"><path d="M2.695 2.057 C 2.466 2.129,2.256 2.299,2.128 2.516 L 2.020 2.700 2.020 12.003 L 2.020 21.306 2.141 21.503 C 2.543 22.156,3.457 22.156,3.859 21.503 L 3.980 21.306 3.980 12.003 L 3.980 2.700 3.872 2.516 C 3.628 2.101,3.150 1.915,2.695 2.057 M20.695 2.057 C 20.466 2.129,20.256 2.299,20.128 2.516 L 20.020 2.700 20.020 12.003 L 20.020 21.306 20.141 21.503 C 20.543 22.156,21.457 22.156,21.859 21.503 L 21.980 21.306 21.980 12.003 L 21.980 2.700 21.872 2.516 C 21.628 2.101,21.150 1.915,20.695 2.057 M6.695 8.057 C 6.466 8.129,6.256 8.299,6.128 8.516 C 6.037 8.672,6.020 8.746,6.020 9.000 C 6.020 9.256,6.036 9.328,6.131 9.489 C 6.256 9.702,6.449 9.864,6.670 9.943 C 6.791 9.986,7.542 9.997,10.540 10.001 C 14.687 10.005,14.544 9.996,15.017 10.281 C 15.902 10.814,16.243 11.955,15.793 12.880 C 15.638 13.198,15.227 13.625,14.930 13.775 C 14.542 13.971,14.341 14.000,13.346 14.000 L 12.428 14.000 12.629 13.788 C 12.924 13.476,12.978 13.354,12.979 13.000 C 12.980 12.745,12.964 12.672,12.872 12.516 C 12.618 12.084,12.136 11.905,11.657 12.066 C 11.485 12.124,11.317 12.273,10.325 13.256 C 9.078 14.491,9.001 14.593,9.001 15.000 C 9.001 15.405,9.080 15.510,10.306 16.726 C 10.919 17.334,11.481 17.862,11.555 17.899 C 12.009 18.128,12.601 17.944,12.867 17.492 C 12.964 17.327,12.980 17.258,12.979 17.000 C 12.978 16.646,12.924 16.524,12.629 16.212 L 12.428 16.000 13.398 16.000 C 14.208 16.000,14.432 15.987,14.757 15.921 C 16.117 15.643,17.193 14.755,17.704 13.488 C 18.090 12.530,18.090 11.469,17.705 10.516 C 17.172 9.197,16.001 8.269,14.605 8.058 C 14.070 7.978,6.952 7.977,6.695 8.057 " stroke="none" fill-rule="evenodd" fill="black"></path></svg>