<svg xmlns="http://www.w3.org/2000/svg" width="24" height="24" viewBox="0 0 24 24" fill="none" stroke="currentColor" stroke-width="2" stroke-linecap="round" stroke-linejoin="round"><path d="M7.900 3.045 C 6.179 3.260,4.675 4.557,4.185 6.248 C 3.999 6.890,3.995 6.981,4.008 11.263 L 4.020 15.306 4.141 15.503 C 4.543 16.156,5.457 16.156,5.859 15.503 L 5.980 15.306 5.991 13.153 L 6.003 11.000 8.500 11.000 L 10.997 11.000 11.009 13.153 L 11.020 15.306 11.141 15.503 C 11.543 16.156,12.457 16.156,12.859 15.503 L 12.980 15.306 12.992 11.263 C 13.000 8.421,12.990 7.126,12.959 6.904 C 12.607 4.436,10.378 2.736,7.900 3.045 M9.020 5.060 C 9.741 5.211,10.395 5.713,10.715 6.362 C 10.958 6.855,10.998 7.108,10.999 8.130 L 11.000 9.000 8.500 9.000 L 6.000 9.000 6.001 8.130 C 6.002 7.108,6.042 6.855,6.285 6.362 C 6.774 5.371,7.914 4.828,9.020 5.060 M19.640 13.068 C 19.484 13.121,19.024 13.565,16.231 16.353 L 13.001 19.577 11.771 18.355 C 10.688 17.279,10.516 17.124,10.343 17.066 C 9.863 16.905,9.382 17.084,9.128 17.516 C 9.036 17.672,9.020 17.745,9.021 18.000 C 9.021 18.212,9.043 18.341,9.095 18.440 C 9.196 18.632,12.296 21.739,12.520 21.873 C 12.673 21.964,12.745 21.980,13.000 21.979 C 13.212 21.979,13.341 21.957,13.440 21.905 C 13.632 21.805,20.737 14.707,20.873 14.480 C 20.964 14.328,20.980 14.254,20.980 14.000 C 20.980 13.746,20.963 13.672,20.872 13.516 C 20.617 13.083,20.122 12.903,19.640 13.068 " stroke="none" fill-rule="evenodd" fill="black"></path></svg>