<svg xmlns="http://www.w3.org/2000/svg" width="24" height="24" viewBox="0 0 24 24" fill="none" stroke="currentColor" stroke-width="2" stroke-linecap="round" stroke-linejoin="round"><path d="M5.499 3.043 C 4.390 3.231,3.488 4.024,3.114 5.140 L 3.020 5.420 3.009 10.772 C 3.002 14.324,3.012 16.175,3.039 16.276 C 3.227 16.974,4.154 17.230,4.668 16.726 C 4.751 16.643,5.612 15.385,6.580 13.929 C 7.548 12.473,8.356 11.282,8.374 11.281 C 8.393 11.280,8.573 11.342,8.774 11.417 C 9.232 11.588,9.916 11.770,10.540 11.887 C 10.955 11.965,11.153 11.977,12.000 11.977 C 12.847 11.977,13.045 11.965,13.460 11.887 C 14.084 11.770,14.768 11.588,15.226 11.417 C 15.427 11.342,15.607 11.280,15.626 11.281 C 15.644 11.282,16.470 12.499,17.460 13.987 C 18.491 15.535,19.313 16.732,19.385 16.786 C 19.580 16.935,19.857 17.014,20.100 16.989 C 20.362 16.961,20.519 16.882,20.720 16.676 C 21.022 16.365,21.003 16.762,20.991 10.777 L 20.980 5.420 20.886 5.140 C 20.556 4.158,19.821 3.425,18.861 3.121 L 18.540 3.020 12.120 3.014 C 8.589 3.011,5.609 3.024,5.499 3.043 M18.310 5.061 C 18.589 5.144,18.856 5.411,18.939 5.690 C 18.992 5.866,19.000 6.367,19.000 9.297 L 19.000 12.700 17.860 10.991 C 16.667 9.201,16.629 9.154,16.264 9.039 C 16.029 8.965,15.760 9.017,15.311 9.222 C 14.248 9.710,13.011 10.000,12.000 10.000 C 10.989 10.000,9.752 9.710,8.689 9.222 C 8.240 9.017,7.971 8.965,7.736 9.039 C 7.371 9.154,7.333 9.201,6.140 10.991 L 5.000 12.700 5.000 9.297 C 5.000 5.440,4.986 5.620,5.304 5.303 C 5.623 4.983,5.120 5.006,11.983 5.003 C 17.353 5.000,18.131 5.007,18.310 5.061 M3.695 19.057 C 3.466 19.129,3.256 19.299,3.128 19.516 C 3.037 19.672,3.020 19.746,3.020 20.000 C 3.020 20.256,3.036 20.328,3.131 20.489 C 3.256 20.702,3.449 20.864,3.670 20.943 C 3.893 21.022,20.107 21.022,20.330 20.943 C 20.551 20.864,20.744 20.702,20.869 20.489 C 20.964 20.328,20.980 20.256,20.980 20.000 C 20.980 19.746,20.963 19.672,20.872 19.516 C 20.740 19.293,20.533 19.128,20.290 19.055 C 20.027 18.976,3.947 18.978,3.695 19.057 " stroke="none" fill-rule="evenodd" fill="black"></path></svg>