<svg xmlns="http://www.w3.org/2000/svg" width="24" height="24" viewBox="0 0 24 24" fill="none" stroke="currentColor" stroke-width="2" stroke-linecap="round" stroke-linejoin="round"><path d="M16.611 3.204 C 15.903 3.270,15.178 3.565,14.620 4.016 C 14.444 4.158,12.462 6.116,10.215 8.367 C 6.474 12.115,6.125 12.477,6.065 12.657 C 6.009 12.828,6.000 13.105,6.000 14.717 L 6.000 16.580 4.617 17.960 C 3.857 18.719,3.186 19.421,3.127 19.520 C 3.036 19.673,3.020 19.746,3.020 20.000 C 3.020 20.257,3.036 20.327,3.133 20.492 C 3.413 20.968,4.033 21.139,4.492 20.865 C 4.584 20.810,5.281 20.143,6.040 19.383 L 7.420 18.000 9.283 18.000 C 10.895 18.000,11.172 17.991,11.343 17.935 C 11.523 17.875,11.885 17.526,15.633 13.785 C 17.884 11.538,19.842 9.556,19.984 9.380 C 20.307 8.980,20.568 8.458,20.705 7.940 C 20.795 7.602,20.811 7.456,20.811 7.000 C 20.811 6.544,20.795 6.398,20.705 6.060 C 20.216 4.209,18.520 3.026,16.611 3.204 M17.624 5.286 C 18.615 5.651,19.087 6.781,18.658 7.765 C 18.553 8.006,18.326 8.241,14.564 12.010 L 10.581 16.000 9.291 16.000 L 8.000 16.000 8.000 14.709 L 8.000 13.418 8.251 13.169 L 8.502 12.920 8.921 13.343 C 9.406 13.833,9.593 13.957,9.888 13.987 C 10.295 14.029,10.660 13.844,10.867 13.492 C 10.964 13.327,10.980 13.257,10.980 13.000 C 10.980 12.609,10.900 12.473,10.343 11.921 L 9.920 11.501 10.709 10.711 L 11.498 9.922 11.959 10.376 C 12.523 10.931,12.604 10.978,13.000 10.979 C 13.258 10.980,13.327 10.964,13.492 10.867 C 13.842 10.662,14.029 10.295,13.988 9.895 C 13.957 9.591,13.876 9.467,13.376 8.959 L 12.922 8.498 13.711 7.709 L 14.501 6.920 14.921 7.343 C 15.473 7.900,15.609 7.980,16.000 7.980 C 16.257 7.980,16.327 7.964,16.492 7.867 C 16.844 7.660,17.029 7.295,16.987 6.888 C 16.957 6.595,16.833 6.406,16.363 5.941 C 16.141 5.721,15.960 5.527,15.960 5.509 C 15.960 5.445,16.491 5.228,16.714 5.200 C 17.021 5.162,17.378 5.196,17.624 5.286 " stroke="none" fill-rule="evenodd" fill="black"></path></svg>