<svg xmlns="http://www.w3.org/2000/svg" width="24" height="24" viewBox="0 0 24 24" fill="none" stroke="currentColor" stroke-width="2" stroke-linecap="round" stroke-linejoin="round"><path d="M2.670 2.061 C 2.448 2.142,2.250 2.309,2.128 2.516 C 2.036 2.672,2.020 2.745,2.021 3.000 C 2.021 3.212,2.043 3.341,2.095 3.440 C 2.135 3.517,3.546 4.960,5.229 6.646 C 7.904 9.324,8.281 9.716,8.215 9.751 C 8.174 9.773,8.014 9.833,7.860 9.884 C 7.587 9.973,7.527 9.976,5.580 10.000 C 3.352 10.027,3.383 10.023,2.937 10.312 C 2.499 10.596,2.186 11.022,2.060 11.508 C 1.970 11.851,1.970 19.149,2.060 19.492 C 2.153 19.852,2.310 20.118,2.596 20.404 C 2.882 20.690,3.148 20.847,3.508 20.940 C 3.839 21.027,6.161 21.027,6.492 20.940 C 6.835 20.851,7.088 20.707,7.375 20.439 C 7.517 20.306,7.644 20.213,7.656 20.233 C 7.700 20.305,8.187 20.572,8.516 20.705 C 8.701 20.780,9.028 20.877,9.243 20.921 C 9.616 20.997,9.799 21.000,13.527 21.000 C 17.317 21.000,17.429 20.998,17.714 20.919 C 18.076 20.819,18.314 20.700,18.622 20.466 L 18.860 20.285 19.640 21.058 C 20.069 21.483,20.483 21.864,20.560 21.905 C 20.660 21.957,20.787 21.979,21.000 21.979 C 21.258 21.980,21.327 21.964,21.492 21.867 C 21.968 21.587,22.139 20.967,21.865 20.508 C 21.810 20.416,17.665 16.243,12.653 11.235 C 4.231 2.820,3.525 2.125,3.343 2.065 C 3.107 1.987,2.874 1.986,2.670 2.061 M12.499 3.040 C 11.363 3.246,10.461 4.048,10.114 5.160 C 10.027 5.438,10.020 5.527,10.020 6.383 L 10.020 7.306 10.141 7.503 C 10.543 8.156,11.457 8.156,11.859 7.503 L 11.980 7.306 12.002 6.523 C 12.027 5.636,12.050 5.547,12.321 5.283 C 12.490 5.120,12.777 5.000,13.000 5.000 C 13.237 5.000,13.514 5.120,13.697 5.303 C 14.008 5.614,14.000 5.528,14.002 8.537 C 14.003 10.640,14.014 11.211,14.057 11.330 C 14.136 11.551,14.298 11.744,14.511 11.869 L 14.700 11.980 16.480 12.000 C 18.477 12.022,18.418 12.014,18.717 12.322 C 18.825 12.432,18.901 12.561,18.940 12.695 C 18.999 12.897,18.996 12.920,18.742 14.196 C 18.452 15.648,18.450 15.724,18.688 16.071 C 19.003 16.531,19.600 16.636,20.067 16.315 C 20.385 16.096,20.413 16.019,20.724 14.490 C 20.983 13.216,21.004 13.071,20.984 12.757 C 20.906 11.556,20.046 10.488,18.861 10.124 C 18.555 10.030,18.482 10.025,17.272 10.009 L 16.004 9.993 15.991 7.707 C 15.978 5.438,15.977 5.418,15.885 5.140 C 15.559 4.157,14.800 3.404,13.861 3.129 C 13.500 3.023,12.832 2.980,12.499 3.040 M13.616 15.036 L 17.452 18.872 17.328 18.936 C 17.217 18.993,16.816 19.000,13.470 19.000 C 9.425 19.000,9.524 19.005,9.083 18.781 C 8.816 18.646,8.449 18.297,8.281 18.017 C 8.004 17.557,8.005 17.570,8.002 14.574 L 8.000 11.889 8.150 11.861 C 8.501 11.797,9.333 11.455,9.609 11.262 C 9.658 11.228,9.716 11.200,9.739 11.200 C 9.762 11.200,11.506 12.926,13.616 15.036 M6.000 15.500 L 6.000 19.000 5.000 19.000 L 4.000 19.000 4.000 15.500 L 4.000 12.000 5.000 12.000 L 6.000 12.000 6.000 15.500 " stroke="none" fill-rule="evenodd" fill="black"></path></svg>