<svg xmlns="http://www.w3.org/2000/svg" width="24" height="24" viewBox="0 0 24 24" fill="none" stroke="currentColor" stroke-width="2" stroke-linecap="round" stroke-linejoin="round"><path d="M11.695 2.057 C 11.466 2.129,11.256 2.299,11.128 2.516 L 11.020 2.700 11.009 6.850 L 10.999 11.000 6.946 11.000 C 2.547 11.000,2.680 10.994,2.382 11.221 C 2.302 11.282,2.187 11.415,2.128 11.516 C 2.037 11.672,2.020 11.746,2.020 12.000 C 2.020 12.256,2.036 12.328,2.131 12.489 C 2.256 12.702,2.449 12.864,2.670 12.943 C 2.791 12.986,3.598 12.997,6.909 12.998 L 10.999 13.000 11.009 17.153 L 11.020 21.306 11.141 21.503 C 11.209 21.613,11.346 21.756,11.452 21.828 C 11.923 22.144,12.554 21.999,12.859 21.503 L 12.980 21.306 12.991 17.153 L 13.001 13.000 17.091 12.998 C 20.402 12.997,21.209 12.986,21.330 12.943 C 21.551 12.864,21.744 12.702,21.869 12.489 C 21.964 12.328,21.980 12.256,21.980 12.000 C 21.980 11.746,21.963 11.672,21.872 11.516 C 21.813 11.415,21.698 11.282,21.618 11.221 C 21.320 10.994,21.453 11.000,17.054 11.000 L 13.001 11.000 12.991 6.850 L 12.980 2.700 12.872 2.516 C 12.628 2.101,12.150 1.915,11.695 2.057 M5.499 3.040 C 4.363 3.246,3.460 4.049,3.114 5.160 C 2.979 5.594,2.979 6.406,3.114 6.840 C 3.421 7.826,4.174 8.579,5.160 8.886 C 5.594 9.021,6.406 9.021,6.840 8.886 C 7.826 8.579,8.579 7.826,8.886 6.840 C 9.021 6.406,9.021 5.594,8.886 5.160 C 8.581 4.179,7.810 3.407,6.861 3.129 C 6.500 3.023,5.832 2.980,5.499 3.040 M15.670 3.061 C 15.448 3.142,15.250 3.309,15.128 3.516 C 15.036 3.672,15.020 3.745,15.021 4.000 C 15.021 4.213,15.043 4.340,15.096 4.440 C 15.136 4.517,15.486 4.899,15.873 5.290 L 16.577 6.000 15.873 6.710 C 15.486 7.100,15.139 7.481,15.101 7.555 C 14.872 8.008,15.056 8.601,15.508 8.867 C 15.673 8.964,15.742 8.980,16.000 8.979 C 16.213 8.979,16.340 8.957,16.440 8.904 C 16.517 8.864,16.899 8.514,17.290 8.127 L 18.000 7.423 18.710 8.127 C 19.101 8.514,19.483 8.864,19.560 8.904 C 19.660 8.957,19.787 8.979,20.000 8.979 C 20.258 8.980,20.327 8.964,20.492 8.867 C 20.714 8.737,20.901 8.498,20.965 8.264 C 21.019 8.061,20.989 7.733,20.899 7.555 C 20.861 7.481,20.514 7.100,20.127 6.710 L 19.423 6.000 20.127 5.290 C 20.514 4.899,20.864 4.517,20.904 4.440 C 20.957 4.340,20.979 4.213,20.979 4.000 C 20.980 3.745,20.964 3.672,20.872 3.516 C 20.617 3.083,20.135 2.905,19.657 3.067 C 19.491 3.123,19.345 3.247,18.730 3.854 L 18.000 4.574 17.270 3.854 C 16.655 3.247,16.509 3.123,16.343 3.067 C 16.108 2.987,15.876 2.985,15.670 3.061 M6.310 5.061 C 6.688 5.173,7.000 5.598,7.000 6.001 C 7.000 6.331,6.784 6.696,6.484 6.872 C 6.328 6.963,6.254 6.980,6.000 6.980 C 5.746 6.980,5.672 6.963,5.516 6.872 C 4.935 6.530,4.833 5.774,5.304 5.303 C 5.583 5.024,5.916 4.944,6.310 5.061 M3.670 15.061 C 3.448 15.142,3.250 15.309,3.128 15.516 C 3.036 15.672,3.020 15.745,3.021 16.000 C 3.021 16.213,3.043 16.340,3.096 16.440 C 3.136 16.517,3.486 16.899,3.873 17.290 L 4.577 18.000 3.873 18.710 C 3.486 19.101,3.139 19.481,3.101 19.555 C 2.872 20.008,3.056 20.601,3.508 20.867 C 3.673 20.964,3.742 20.980,4.000 20.979 C 4.213 20.979,4.340 20.957,4.440 20.904 C 4.517 20.864,4.899 20.514,5.290 20.127 L 6.000 19.423 6.710 20.127 C 7.100 20.514,7.483 20.864,7.560 20.904 C 7.660 20.957,7.787 20.979,8.000 20.979 C 8.258 20.980,8.327 20.964,8.492 20.867 C 8.714 20.737,8.901 20.498,8.965 20.264 C 9.019 20.061,8.989 19.733,8.899 19.555 C 8.861 19.481,8.514 19.101,8.127 18.710 L 7.423 18.000 8.127 17.290 C 8.514 16.899,8.864 16.517,8.904 16.440 C 8.957 16.340,8.979 16.213,8.979 16.000 C 8.980 15.745,8.964 15.672,8.872 15.516 C 8.617 15.083,8.135 14.905,7.657 15.067 C 7.491 15.123,7.345 15.247,6.730 15.854 L 6.000 16.574 5.270 15.854 C 4.655 15.247,4.509 15.123,4.343 15.067 C 4.108 14.987,3.876 14.985,3.670 15.061 M17.499 15.040 C 16.363 15.246,15.460 16.049,15.114 17.160 C 14.979 17.594,14.979 18.406,15.114 18.840 C 15.421 19.826,16.174 20.579,17.160 20.886 C 17.412 20.964,17.547 20.979,18.000 20.979 C 18.453 20.979,18.588 20.964,18.840 20.886 C 19.826 20.579,20.579 19.826,20.886 18.840 C 21.021 18.406,21.021 17.594,20.886 17.160 C 20.581 16.179,19.810 15.407,18.861 15.129 C 18.500 15.023,17.832 14.980,17.499 15.040 M18.310 17.061 C 18.688 17.173,19.000 17.598,19.000 18.001 C 19.000 18.331,18.784 18.696,18.484 18.872 C 18.328 18.963,18.254 18.980,18.000 18.980 C 17.746 18.980,17.672 18.963,17.516 18.872 C 16.935 18.530,16.833 17.774,17.304 17.303 C 17.583 17.024,17.916 16.944,18.310 17.061 " stroke="none" fill-rule="evenodd" fill="black"></path></svg>