<svg xmlns="http://www.w3.org/2000/svg" width="24" height="24" viewBox="0 0 24 24" fill="none" stroke="currentColor" stroke-width="2" stroke-linecap="round" stroke-linejoin="round"><path d="M11.670 2.061 C 11.448 2.142,11.250 2.309,11.128 2.516 C 11.036 2.672,11.020 2.746,11.020 3.003 C 11.020 3.271,11.034 3.329,11.141 3.503 C 11.289 3.744,11.580 3.948,11.811 3.975 C 11.904 3.985,12.250 4.014,12.580 4.038 C 13.697 4.119,14.542 4.351,15.600 4.869 C 16.273 5.199,16.470 5.247,16.782 5.159 C 17.015 5.094,17.329 4.815,17.421 4.590 C 17.579 4.204,17.466 3.731,17.152 3.463 C 17.066 3.389,16.739 3.202,16.427 3.047 C 15.237 2.459,14.105 2.147,12.784 2.041 C 12.119 1.988,11.855 1.993,11.670 2.061 M7.240 3.235 C 6.784 3.384,6.512 3.746,6.512 4.203 C 6.512 4.616,6.771 5.001,7.145 5.144 C 7.354 5.224,7.757 5.205,7.948 5.106 C 8.528 4.806,8.673 3.990,8.228 3.526 C 8.158 3.453,8.029 3.357,7.943 3.312 C 7.771 3.224,7.399 3.183,7.240 3.235 M3.800 6.584 C 3.599 6.671,3.405 6.869,3.295 7.100 C 3.067 7.583,3.274 8.146,3.777 8.412 C 3.895 8.473,4.012 8.497,4.200 8.497 C 4.927 8.497,5.412 7.748,5.105 7.100 C 4.993 6.865,4.799 6.669,4.591 6.582 C 4.403 6.503,3.983 6.504,3.800 6.584 M19.400 6.584 C 19.199 6.671,19.005 6.869,18.895 7.100 C 18.667 7.583,18.874 8.146,19.377 8.412 C 19.495 8.473,19.612 8.497,19.800 8.497 C 20.527 8.497,21.012 7.748,20.705 7.100 C 20.593 6.865,20.399 6.669,20.191 6.582 C 20.003 6.503,19.583 6.504,19.400 6.584 M9.695 8.056 C 9.465 8.129,9.256 8.299,9.128 8.516 L 9.020 8.700 9.008 10.410 C 9.001 11.502,9.012 12.175,9.038 12.274 C 9.099 12.498,9.289 12.738,9.508 12.867 L 9.700 12.980 10.940 13.000 C 12.038 13.018,12.192 13.028,12.284 13.091 C 12.574 13.288,12.540 13.786,12.226 13.935 C 12.109 13.990,11.923 14.000,10.990 14.000 C 9.794 14.000,9.645 14.020,9.382 14.221 C 9.302 14.282,9.187 14.415,9.128 14.516 C 9.037 14.672,9.020 14.746,9.020 15.000 C 9.020 15.256,9.036 15.328,9.131 15.489 C 9.256 15.702,9.449 15.864,9.670 15.943 C 9.894 16.023,12.156 16.020,12.540 15.940 C 13.015 15.840,13.373 15.636,13.761 15.244 C 14.279 14.720,14.490 14.215,14.490 13.500 C 14.490 12.782,14.278 12.276,13.761 11.759 C 13.164 11.163,12.832 11.039,11.750 11.010 L 11.000 10.990 11.000 10.495 L 11.000 10.000 12.350 10.000 C 13.687 9.999,13.702 9.998,13.900 9.905 C 14.281 9.724,14.488 9.405,14.488 9.000 C 14.488 8.615,14.293 8.297,13.940 8.106 C 13.783 8.022,13.745 8.020,11.820 8.012 C 10.296 8.006,9.823 8.016,9.695 8.056 M2.695 11.057 C 2.466 11.129,2.256 11.299,2.128 11.516 C 2.036 11.672,2.020 11.745,2.021 12.000 C 2.022 12.332,2.101 12.533,2.306 12.728 C 2.785 13.181,3.580 13.046,3.893 12.460 C 4.025 12.211,4.015 11.760,3.872 11.516 C 3.628 11.101,3.150 10.915,2.695 11.057 M20.695 11.057 C 20.466 11.129,20.256 11.299,20.128 11.516 C 20.036 11.672,20.020 11.745,20.021 12.000 C 20.022 12.332,20.101 12.533,20.306 12.728 C 20.785 13.181,21.580 13.046,21.893 12.460 C 22.025 12.211,22.015 11.760,21.872 11.516 C 21.628 11.101,21.150 10.915,20.695 11.057 M3.800 15.584 C 3.599 15.671,3.405 15.869,3.295 16.100 C 3.067 16.583,3.274 17.146,3.777 17.412 C 4.002 17.530,4.398 17.530,4.623 17.412 C 5.126 17.146,5.333 16.583,5.105 16.100 C 4.993 15.865,4.799 15.669,4.591 15.582 C 4.403 15.503,3.983 15.504,3.800 15.584 M19.400 15.584 C 19.199 15.671,19.005 15.869,18.895 16.100 C 18.667 16.583,18.874 17.146,19.377 17.412 C 19.602 17.530,19.998 17.530,20.223 17.412 C 20.726 17.146,20.933 16.583,20.705 16.100 C 20.593 15.865,20.399 15.669,20.191 15.582 C 20.003 15.503,19.583 15.504,19.400 15.584 M7.240 18.835 C 6.784 18.984,6.512 19.346,6.512 19.803 C 6.512 20.216,6.771 20.601,7.145 20.744 C 7.354 20.824,7.757 20.805,7.948 20.706 C 8.528 20.406,8.673 19.590,8.228 19.126 C 8.158 19.053,8.029 18.957,7.943 18.912 C 7.771 18.824,7.399 18.783,7.240 18.835 M16.240 18.835 C 15.784 18.984,15.512 19.346,15.512 19.803 C 15.512 20.216,15.771 20.601,16.145 20.744 C 16.354 20.824,16.757 20.805,16.948 20.706 C 17.528 20.406,17.673 19.590,17.228 19.126 C 17.158 19.053,17.029 18.957,16.943 18.912 C 16.771 18.824,16.399 18.783,16.240 18.835 M11.695 20.057 C 11.466 20.129,11.256 20.299,11.128 20.516 C 11.036 20.672,11.020 20.745,11.021 21.000 C 11.022 21.332,11.101 21.533,11.306 21.728 C 11.785 22.181,12.580 22.046,12.893 21.460 C 13.025 21.211,13.015 20.760,12.872 20.516 C 12.628 20.101,12.150 19.915,11.695 20.057 " stroke="none" fill-rule="evenodd" fill="black"></path></svg>