<svg xmlns="http://www.w3.org/2000/svg" width="24" height="24" viewBox="0 0 24 24" fill="none" stroke="currentColor" stroke-width="2" stroke-linecap="round" stroke-linejoin="round"><path d="M6.477 2.073 C 5.806 2.249,5.238 2.823,5.060 3.508 C 5.009 3.704,5.000 4.350,5.000 8.000 C 5.000 12.640,4.992 12.471,5.225 12.930 C 5.361 13.199,5.801 13.639,6.070 13.775 C 6.486 13.986,6.618 14.000,8.159 14.000 L 9.581 14.000 10.460 14.883 C 10.944 15.368,11.421 15.814,11.520 15.873 C 11.672 15.964,11.746 15.980,12.000 15.980 C 12.254 15.980,12.328 15.964,12.480 15.873 C 12.579 15.814,13.056 15.368,13.540 14.883 L 14.419 14.000 15.841 14.000 C 17.382 14.000,17.514 13.986,17.930 13.775 C 18.196 13.640,18.638 13.200,18.771 12.937 C 19.008 12.471,19.000 12.634,18.999 8.014 C 18.999 3.426,19.003 3.520,18.781 3.083 C 18.646 2.816,18.297 2.449,18.017 2.281 C 17.533 1.989,17.867 2.005,12.000 2.005 C 7.157 2.005,6.719 2.010,6.477 2.073 M17.000 7.998 L 17.000 11.997 15.370 12.008 C 13.853 12.019,13.729 12.025,13.580 12.097 C 13.490 12.141,13.110 12.481,12.710 12.875 L 12.000 13.575 11.290 12.875 C 10.890 12.481,10.510 12.141,10.420 12.097 C 10.271 12.025,10.147 12.019,8.630 12.008 L 7.000 11.997 7.000 7.998 L 7.000 4.000 12.000 4.000 L 17.000 4.000 17.000 7.998 M10.044 5.625 C 9.650 5.822,9.436 6.268,9.528 6.702 C 9.583 6.963,9.654 7.061,10.155 7.570 L 10.579 8.000 10.155 8.430 C 9.653 8.940,9.584 9.036,9.528 9.300 C 9.381 9.992,9.982 10.593,10.697 10.470 C 10.952 10.426,11.054 10.353,11.570 9.845 L 12.000 9.421 12.430 9.845 C 12.946 10.353,13.044 10.423,13.301 10.468 C 14.016 10.595,14.595 10.015,14.469 9.301 C 14.423 9.044,14.353 8.946,13.846 8.431 L 13.423 8.002 13.871 7.548 C 14.160 7.255,14.347 7.029,14.399 6.911 C 14.695 6.242,14.229 5.518,13.502 5.521 C 13.138 5.522,12.968 5.620,12.452 6.129 L 12.000 6.576 11.548 6.129 C 11.270 5.856,11.026 5.652,10.918 5.602 C 10.655 5.483,10.312 5.492,10.044 5.625 M11.499 17.040 C 10.549 17.212,9.740 17.816,9.312 18.670 L 9.147 19.000 6.520 19.000 C 3.669 19.000,3.672 19.000,3.382 19.221 C 3.302 19.282,3.187 19.415,3.128 19.516 C 3.037 19.672,3.020 19.746,3.020 20.000 C 3.020 20.256,3.036 20.328,3.131 20.489 C 3.256 20.702,3.449 20.864,3.670 20.943 C 3.789 20.986,4.363 20.997,6.483 20.998 L 9.147 21.000 9.312 21.330 C 9.682 22.069,10.355 22.635,11.160 22.886 C 11.412 22.964,11.547 22.979,12.000 22.979 C 12.453 22.979,12.588 22.964,12.840 22.886 C 13.645 22.635,14.318 22.069,14.688 21.330 L 14.853 21.000 17.517 20.998 C 19.637 20.997,20.211 20.986,20.330 20.943 C 20.551 20.864,20.744 20.702,20.869 20.489 C 20.964 20.328,20.980 20.256,20.980 20.000 C 20.980 19.746,20.963 19.672,20.872 19.516 C 20.813 19.415,20.698 19.282,20.618 19.221 C 20.328 19.000,20.331 19.000,17.480 19.000 L 14.853 19.000 14.688 18.670 C 14.320 17.935,13.631 17.354,12.861 17.129 C 12.500 17.023,11.832 16.980,11.499 17.040 M12.310 19.061 C 12.688 19.173,13.000 19.598,13.000 20.001 C 13.000 20.331,12.784 20.696,12.484 20.872 C 12.328 20.963,12.254 20.980,12.000 20.980 C 11.746 20.980,11.672 20.963,11.516 20.872 C 10.935 20.530,10.833 19.774,11.304 19.303 C 11.583 19.024,11.916 18.944,12.310 19.061 " stroke="none" fill-rule="evenodd" fill="black"></path></svg>