<svg xmlns="http://www.w3.org/2000/svg" width="24" height="24" viewBox="0 0 24 24" fill="none" stroke="currentColor" stroke-width="2" stroke-linecap="round" stroke-linejoin="round"><path d="M11.695 2.054 C 11.048 2.268,10.799 3.040,11.198 3.591 C 11.263 3.681,11.400 3.803,11.502 3.863 C 11.670 3.962,11.742 3.975,12.274 4.006 C 13.953 4.106,15.333 4.571,16.607 5.465 C 17.024 5.759,17.200 5.907,17.613 6.313 C 18.054 6.747,18.320 7.069,18.654 7.580 C 19.096 8.254,19.140 8.305,19.376 8.416 C 20.223 8.817,21.103 7.945,20.705 7.100 C 20.582 6.839,20.120 6.144,19.800 5.740 C 18.248 3.778,15.767 2.393,13.249 2.083 C 12.643 2.008,11.877 1.994,11.695 2.054 M7.240 3.235 C 6.784 3.384,6.512 3.746,6.512 4.203 C 6.512 4.616,6.771 5.001,7.145 5.144 C 7.354 5.224,7.757 5.205,7.948 5.106 C 8.528 4.806,8.673 3.990,8.228 3.526 C 8.158 3.453,8.029 3.357,7.943 3.312 C 7.771 3.224,7.399 3.183,7.240 3.235 M3.800 6.584 C 3.599 6.671,3.405 6.869,3.295 7.100 C 3.067 7.583,3.274 8.146,3.777 8.412 C 3.895 8.473,4.012 8.497,4.200 8.497 C 4.927 8.497,5.412 7.748,5.105 7.100 C 4.993 6.865,4.799 6.669,4.591 6.582 C 4.403 6.503,3.983 6.504,3.800 6.584 M8.695 8.057 C 8.466 8.129,8.256 8.299,8.128 8.516 L 8.020 8.700 8.020 12.003 L 8.020 15.306 8.141 15.503 C 8.543 16.156,9.457 16.156,9.859 15.503 L 9.980 15.306 9.980 12.003 L 9.980 8.700 9.872 8.516 C 9.628 8.101,9.150 7.915,8.695 8.057 M13.499 8.040 C 12.363 8.246,11.461 9.048,11.114 10.160 C 11.022 10.453,11.020 10.497,11.020 12.000 C 11.020 13.503,11.022 13.547,11.114 13.840 C 11.422 14.827,12.174 15.579,13.160 15.886 C 13.412 15.964,13.547 15.979,14.000 15.979 C 14.453 15.979,14.588 15.964,14.840 15.886 C 15.826 15.579,16.578 14.827,16.886 13.840 C 16.978 13.547,16.980 13.503,16.980 12.000 C 16.980 10.497,16.978 10.453,16.886 10.160 C 16.580 9.178,15.810 8.407,14.861 8.129 C 14.500 8.023,13.832 7.980,13.499 8.040 M14.310 10.061 C 14.589 10.144,14.856 10.411,14.939 10.690 C 15.023 10.972,15.028 13.015,14.945 13.290 C 14.872 13.533,14.707 13.740,14.484 13.872 C 14.328 13.963,14.254 13.980,14.000 13.980 C 13.746 13.980,13.672 13.963,13.516 13.872 C 13.415 13.813,13.284 13.700,13.225 13.623 C 13.014 13.347,13.000 13.245,13.000 12.022 C 13.000 10.695,13.019 10.587,13.304 10.303 C 13.583 10.024,13.916 9.944,14.310 10.061 M2.695 11.057 C 2.466 11.129,2.256 11.299,2.128 11.516 C 2.036 11.672,2.020 11.745,2.021 12.000 C 2.022 12.332,2.101 12.533,2.306 12.728 C 2.785 13.181,3.580 13.046,3.893 12.460 C 4.025 12.211,4.015 11.760,3.872 11.516 C 3.628 11.101,3.150 10.915,2.695 11.057 M20.695 11.057 C 20.466 11.129,20.256 11.299,20.128 11.516 C 20.036 11.672,20.020 11.745,20.021 12.000 C 20.022 12.332,20.101 12.533,20.306 12.728 C 20.785 13.181,21.580 13.046,21.893 12.460 C 22.025 12.211,22.015 11.760,21.872 11.516 C 21.628 11.101,21.150 10.915,20.695 11.057 M3.800 15.584 C 3.599 15.671,3.405 15.869,3.295 16.100 C 3.067 16.583,3.274 17.146,3.777 17.412 C 4.002 17.530,4.398 17.530,4.623 17.412 C 5.126 17.146,5.333 16.583,5.105 16.100 C 4.993 15.865,4.799 15.669,4.591 15.582 C 4.403 15.503,3.983 15.504,3.800 15.584 M19.400 15.584 C 19.199 15.671,19.005 15.869,18.895 16.100 C 18.667 16.583,18.874 17.146,19.377 17.412 C 19.602 17.530,19.998 17.530,20.223 17.412 C 20.726 17.146,20.933 16.583,20.705 16.100 C 20.593 15.865,20.399 15.669,20.191 15.582 C 20.003 15.503,19.583 15.504,19.400 15.584 M7.240 18.835 C 6.784 18.984,6.512 19.346,6.512 19.803 C 6.512 20.216,6.771 20.601,7.145 20.744 C 7.354 20.824,7.757 20.805,7.948 20.706 C 8.528 20.406,8.673 19.590,8.228 19.126 C 8.158 19.053,8.029 18.957,7.943 18.912 C 7.771 18.824,7.399 18.783,7.240 18.835 M16.240 18.835 C 15.784 18.984,15.512 19.346,15.512 19.803 C 15.512 20.216,15.771 20.601,16.145 20.744 C 16.354 20.824,16.757 20.805,16.948 20.706 C 17.528 20.406,17.673 19.590,17.228 19.126 C 17.158 19.053,17.029 18.957,16.943 18.912 C 16.771 18.824,16.399 18.783,16.240 18.835 M11.695 20.057 C 11.466 20.129,11.256 20.299,11.128 20.516 C 11.036 20.672,11.020 20.745,11.021 21.000 C 11.022 21.332,11.101 21.533,11.306 21.728 C 11.785 22.181,12.580 22.046,12.893 21.460 C 13.025 21.211,13.015 20.760,12.872 20.516 C 12.628 20.101,12.150 19.915,11.695 20.057 " stroke="none" fill-rule="evenodd" fill="black"></path></svg>