<svg xmlns="http://www.w3.org/2000/svg" width="24" height="24" viewBox="0 0 24 24" fill="none" stroke="currentColor" stroke-width="2" stroke-linecap="round" stroke-linejoin="round"><path d="M6.477 2.073 C 5.806 2.249,5.238 2.823,5.060 3.508 C 5.009 3.704,5.000 4.350,5.000 8.000 C 5.000 12.640,4.992 12.471,5.225 12.930 C 5.361 13.199,5.801 13.639,6.070 13.775 C 6.486 13.986,6.618 14.000,8.159 14.000 L 9.581 14.000 10.460 14.883 C 10.944 15.368,11.421 15.814,11.520 15.873 C 11.672 15.964,11.746 15.980,12.000 15.980 C 12.254 15.980,12.328 15.964,12.480 15.873 C 12.579 15.814,13.056 15.368,13.540 14.883 L 14.419 14.000 15.841 14.000 C 17.382 14.000,17.514 13.986,17.930 13.775 C 18.196 13.640,18.638 13.200,18.771 12.937 C 19.008 12.471,19.000 12.634,18.999 8.014 C 18.999 3.426,19.003 3.520,18.781 3.083 C 18.646 2.816,18.297 2.449,18.017 2.281 C 17.533 1.989,17.867 2.005,12.000 2.005 C 7.157 2.005,6.719 2.010,6.477 2.073 M17.000 7.998 L 17.000 11.997 15.370 12.008 C 13.853 12.019,13.729 12.025,13.580 12.097 C 13.490 12.141,13.110 12.481,12.710 12.875 L 12.000 13.575 11.290 12.875 C 10.890 12.481,10.510 12.141,10.420 12.097 C 10.271 12.025,10.147 12.019,8.630 12.008 L 7.000 11.997 7.000 7.998 L 7.000 4.000 12.000 4.000 L 17.000 4.000 17.000 7.998 M8.695 5.057 C 8.466 5.129,8.256 5.299,8.128 5.516 C 8.037 5.672,8.020 5.746,8.020 6.000 C 8.020 6.256,8.036 6.328,8.131 6.489 C 8.256 6.702,8.449 6.864,8.670 6.943 C 8.891 7.022,15.109 7.022,15.330 6.943 C 15.551 6.864,15.744 6.702,15.869 6.489 C 15.964 6.328,15.980 6.256,15.980 6.000 C 15.980 5.746,15.963 5.672,15.872 5.516 C 15.740 5.293,15.533 5.128,15.290 5.055 C 15.030 4.977,8.945 4.979,8.695 5.057 M8.695 8.057 C 8.466 8.129,8.256 8.299,8.128 8.516 C 8.037 8.672,8.020 8.746,8.020 9.000 C 8.020 9.256,8.036 9.328,8.131 9.489 C 8.256 9.702,8.449 9.864,8.670 9.943 C 8.888 10.021,12.112 10.021,12.330 9.943 C 12.551 9.864,12.744 9.702,12.869 9.489 C 12.964 9.328,12.980 9.256,12.980 9.000 C 12.980 8.746,12.963 8.672,12.872 8.516 C 12.740 8.293,12.533 8.128,12.290 8.055 C 12.035 7.978,8.941 7.980,8.695 8.057 M11.499 17.040 C 10.549 17.212,9.740 17.816,9.312 18.670 L 9.147 19.000 6.520 19.000 C 3.669 19.000,3.672 19.000,3.382 19.221 C 3.302 19.282,3.187 19.415,3.128 19.516 C 3.037 19.672,3.020 19.746,3.020 20.000 C 3.020 20.256,3.036 20.328,3.131 20.489 C 3.256 20.702,3.449 20.864,3.670 20.943 C 3.789 20.986,4.363 20.997,6.483 20.998 L 9.147 21.000 9.312 21.330 C 9.682 22.069,10.355 22.635,11.160 22.886 C 11.412 22.964,11.547 22.979,12.000 22.979 C 12.453 22.979,12.588 22.964,12.840 22.886 C 13.645 22.635,14.318 22.069,14.688 21.330 L 14.853 21.000 17.517 20.998 C 19.637 20.997,20.211 20.986,20.330 20.943 C 20.551 20.864,20.744 20.702,20.869 20.489 C 20.964 20.328,20.980 20.256,20.980 20.000 C 20.980 19.746,20.963 19.672,20.872 19.516 C 20.813 19.415,20.698 19.282,20.618 19.221 C 20.328 19.000,20.331 19.000,17.480 19.000 L 14.853 19.000 14.688 18.670 C 14.320 17.935,13.631 17.354,12.861 17.129 C 12.500 17.023,11.832 16.980,11.499 17.040 M12.310 19.061 C 12.688 19.173,13.000 19.598,13.000 20.001 C 13.000 20.331,12.784 20.696,12.484 20.872 C 12.328 20.963,12.254 20.980,12.000 20.980 C 11.746 20.980,11.672 20.963,11.516 20.872 C 10.935 20.530,10.833 19.774,11.304 19.303 C 11.583 19.024,11.916 18.944,12.310 19.061 " stroke="none" fill-rule="evenodd" fill="black"></path></svg>