<svg xmlns="http://www.w3.org/2000/svg" width="24" height="24" viewBox="0 0 24 24" fill="none" stroke="currentColor" stroke-width="2" stroke-linecap="round" stroke-linejoin="round"><path d="M11.695 2.057 C 11.466 2.129,11.256 2.299,11.128 2.516 C 11.036 2.672,11.020 2.746,11.020 3.003 C 11.020 3.271,11.034 3.329,11.141 3.503 C 11.289 3.743,11.580 3.948,11.811 3.975 C 11.904 3.986,12.241 4.013,12.560 4.035 C 13.644 4.111,14.559 4.354,15.500 4.816 C 17.133 5.618,18.382 6.867,19.184 8.500 C 20.263 10.697,20.263 13.291,19.183 15.499 C 18.530 16.835,17.573 17.914,16.311 18.736 C 15.148 19.494,13.489 20.000,12.168 20.000 C 11.666 20.000,11.335 20.165,11.128 20.516 C 11.037 20.672,11.020 20.746,11.020 21.000 C 11.020 21.257,11.036 21.327,11.133 21.492 C 11.263 21.714,11.502 21.901,11.736 21.965 C 12.085 22.061,13.393 21.944,14.260 21.740 C 16.114 21.304,17.709 20.414,19.062 19.062 C 20.620 17.504,21.557 15.638,21.907 13.400 C 22.008 12.753,22.008 11.247,21.907 10.600 C 21.557 8.362,20.619 6.494,19.062 4.939 C 17.858 3.736,16.486 2.913,14.866 2.423 C 13.788 2.096,12.167 1.909,11.695 2.057 M7.240 3.235 C 6.784 3.384,6.512 3.746,6.512 4.203 C 6.512 4.616,6.771 5.001,7.145 5.144 C 7.354 5.224,7.757 5.205,7.948 5.106 C 8.528 4.806,8.673 3.990,8.228 3.526 C 8.158 3.453,8.029 3.357,7.943 3.312 C 7.771 3.224,7.399 3.183,7.240 3.235 M3.800 6.584 C 3.599 6.671,3.405 6.869,3.295 7.100 C 3.067 7.583,3.274 8.146,3.777 8.412 C 3.895 8.473,4.012 8.497,4.200 8.497 C 4.927 8.497,5.412 7.748,5.105 7.100 C 4.993 6.865,4.799 6.669,4.591 6.582 C 4.403 6.503,3.983 6.504,3.800 6.584 M7.695 8.057 C 7.466 8.129,7.256 8.299,7.128 8.516 C 7.037 8.672,7.020 8.746,7.020 9.000 C 7.020 9.256,7.036 9.328,7.131 9.489 C 7.192 9.592,7.304 9.725,7.381 9.783 C 7.636 9.978,7.752 9.996,8.720 9.998 C 9.540 10.000,9.631 10.007,9.748 10.078 C 9.991 10.226,10.065 10.513,9.922 10.748 C 9.801 10.946,9.656 11.000,9.248 11.000 C 8.664 11.000,8.345 11.147,8.128 11.516 C 8.037 11.672,8.020 11.746,8.020 12.000 C 8.020 12.256,8.036 12.328,8.131 12.489 C 8.353 12.866,8.630 12.996,9.220 12.998 C 9.544 13.000,9.644 13.015,9.748 13.078 C 9.991 13.226,10.065 13.513,9.922 13.748 C 9.779 13.983,9.698 14.000,8.748 14.000 C 7.811 14.000,7.634 14.029,7.382 14.221 C 7.302 14.282,7.187 14.415,7.128 14.516 C 7.037 14.672,7.020 14.746,7.020 15.000 C 7.020 15.257,7.036 15.327,7.133 15.492 C 7.263 15.713,7.502 15.901,7.733 15.963 C 7.836 15.991,8.273 16.001,8.957 15.992 C 9.996 15.977,10.027 15.974,10.320 15.868 C 11.038 15.607,11.605 15.039,11.867 14.320 C 11.965 14.051,11.976 13.966,11.976 13.500 C 11.976 13.035,11.965 12.949,11.868 12.684 C 11.809 12.521,11.705 12.301,11.636 12.194 L 11.512 12.000 11.636 11.806 C 11.705 11.699,11.809 11.479,11.868 11.316 C 11.965 11.051,11.976 10.965,11.976 10.500 C 11.976 10.035,11.965 9.948,11.868 9.680 C 11.732 9.306,11.458 8.898,11.165 8.636 C 10.887 8.387,10.390 8.137,10.020 8.060 C 9.650 7.982,7.940 7.980,7.695 8.057 M14.960 8.062 C 14.605 8.138,14.107 8.393,13.832 8.639 C 13.532 8.907,13.239 9.352,13.118 9.722 L 13.020 10.020 13.020 12.020 L 13.020 14.020 13.131 14.320 C 13.399 15.044,13.964 15.608,14.680 15.868 C 14.948 15.965,15.035 15.976,15.500 15.976 C 15.965 15.976,16.052 15.965,16.320 15.868 C 17.036 15.608,17.601 15.044,17.869 14.320 L 17.980 14.020 17.980 12.000 L 17.980 9.980 17.869 9.680 C 17.430 8.486,16.192 7.798,14.960 8.062 M15.724 10.062 C 15.790 10.096,15.879 10.182,15.922 10.252 C 15.996 10.373,16.000 10.464,16.000 12.000 C 16.000 13.536,15.996 13.627,15.922 13.748 C 15.722 14.076,15.278 14.076,15.078 13.748 C 15.004 13.627,15.000 13.536,15.000 12.008 C 15.000 10.228,14.999 10.232,15.252 10.078 C 15.406 9.984,15.563 9.979,15.724 10.062 M2.695 11.057 C 2.466 11.129,2.256 11.299,2.128 11.516 C 2.036 11.672,2.020 11.745,2.021 12.000 C 2.022 12.332,2.101 12.533,2.306 12.728 C 2.785 13.181,3.580 13.046,3.893 12.460 C 4.025 12.211,4.015 11.760,3.872 11.516 C 3.628 11.101,3.150 10.915,2.695 11.057 M3.800 15.584 C 3.599 15.671,3.405 15.869,3.295 16.100 C 3.067 16.583,3.274 17.146,3.777 17.412 C 4.002 17.530,4.398 17.530,4.623 17.412 C 5.126 17.146,5.333 16.583,5.105 16.100 C 4.993 15.865,4.799 15.669,4.591 15.582 C 4.403 15.503,3.983 15.504,3.800 15.584 M7.240 18.835 C 6.784 18.984,6.512 19.346,6.512 19.803 C 6.512 20.216,6.771 20.601,7.145 20.744 C 7.354 20.824,7.757 20.805,7.948 20.706 C 8.528 20.406,8.673 19.590,8.228 19.126 C 8.158 19.053,8.029 18.957,7.943 18.912 C 7.771 18.824,7.399 18.783,7.240 18.835 " stroke="none" fill-rule="evenodd" fill="black"></path></svg>