<svg xmlns="http://www.w3.org/2000/svg" width="24" height="24" viewBox="0 0 24 24" fill="none" stroke="currentColor" stroke-width="2" stroke-linecap="round" stroke-linejoin="round"><path d="M2.670 2.061 C 2.448 2.142,2.250 2.309,2.128 2.516 C 2.037 2.672,2.020 2.746,2.020 3.000 C 2.020 3.254,2.036 3.327,2.127 3.480 C 2.190 3.585,5.282 6.706,9.557 10.980 C 13.585 15.006,16.880 18.313,16.880 18.328 C 16.880 18.392,15.945 18.972,15.480 19.197 C 14.450 19.693,13.187 20.000,12.168 20.000 C 11.666 20.000,11.335 20.165,11.128 20.516 C 11.037 20.672,11.020 20.746,11.020 21.000 C 11.020 21.257,11.036 21.327,11.133 21.492 C 11.263 21.714,11.502 21.901,11.736 21.965 C 11.942 22.022,12.857 21.985,13.440 21.898 C 15.131 21.643,16.760 20.954,18.094 19.929 L 18.328 19.750 19.374 20.790 C 19.949 21.363,20.483 21.864,20.560 21.905 C 20.659 21.957,20.787 21.979,21.000 21.979 C 21.258 21.980,21.327 21.964,21.492 21.867 C 21.968 21.587,22.139 20.967,21.865 20.508 C 21.810 20.416,17.665 16.243,12.653 11.235 C 4.231 2.820,3.525 2.125,3.343 2.065 C 3.107 1.987,2.874 1.986,2.670 2.061 M11.695 2.054 C 11.048 2.268,10.799 3.040,11.198 3.591 C 11.263 3.681,11.400 3.803,11.502 3.863 C 11.669 3.961,11.743 3.975,12.253 4.005 C 13.553 4.083,14.447 4.307,15.500 4.819 C 17.820 5.946,19.425 8.086,19.884 10.662 C 19.950 11.032,19.970 11.317,19.974 11.920 C 19.979 12.780,19.933 13.204,19.758 13.921 C 19.627 14.460,19.544 14.694,19.267 15.320 C 19.089 15.720,19.063 15.814,19.063 16.040 C 19.063 16.481,19.341 16.852,19.765 16.978 C 20.031 17.057,20.102 17.056,20.365 16.971 C 20.691 16.866,20.862 16.668,21.110 16.111 C 21.508 15.217,21.758 14.366,21.907 13.400 C 21.996 12.824,22.007 11.286,21.926 10.740 C 21.678 9.075,21.183 7.765,20.301 6.440 C 18.706 4.045,16.098 2.433,13.249 2.083 C 12.643 2.008,11.877 1.994,11.695 2.054 M3.800 6.584 C 3.599 6.671,3.405 6.869,3.295 7.100 C 3.067 7.583,3.274 8.146,3.777 8.412 C 3.895 8.473,4.012 8.497,4.200 8.497 C 4.927 8.497,5.412 7.748,5.105 7.100 C 4.993 6.865,4.799 6.669,4.591 6.582 C 4.403 6.503,3.983 6.504,3.800 6.584 M2.695 11.057 C 2.466 11.129,2.256 11.299,2.128 11.516 C 2.036 11.672,2.020 11.745,2.021 12.000 C 2.022 12.332,2.101 12.533,2.306 12.728 C 2.785 13.181,3.580 13.046,3.893 12.460 C 4.025 12.211,4.015 11.760,3.872 11.516 C 3.628 11.101,3.150 10.915,2.695 11.057 M3.800 15.584 C 3.599 15.671,3.405 15.869,3.295 16.100 C 3.067 16.583,3.274 17.146,3.777 17.412 C 4.002 17.530,4.398 17.530,4.623 17.412 C 5.126 17.146,5.333 16.583,5.105 16.100 C 4.993 15.865,4.799 15.669,4.591 15.582 C 4.403 15.503,3.983 15.504,3.800 15.584 M7.240 18.835 C 6.784 18.984,6.512 19.346,6.512 19.803 C 6.512 20.216,6.771 20.601,7.145 20.744 C 7.354 20.824,7.757 20.805,7.948 20.706 C 8.528 20.406,8.673 19.590,8.228 19.126 C 8.158 19.053,8.029 18.957,7.943 18.912 C 7.771 18.824,7.399 18.783,7.240 18.835 " stroke="none" fill-rule="evenodd" fill="black"></path></svg>