<svg xmlns="http://www.w3.org/2000/svg" width="24" height="24" viewBox="0 0 24 24" fill="none" stroke="currentColor" stroke-width="2" stroke-linecap="round" stroke-linejoin="round"><path d="M11.695 2.057 C 11.466 2.129,11.256 2.299,11.128 2.516 C 11.036 2.672,11.020 2.746,11.020 3.003 C 11.020 3.271,11.034 3.329,11.141 3.503 C 11.289 3.743,11.580 3.948,11.811 3.975 C 11.904 3.986,12.241 4.013,12.560 4.035 C 13.644 4.111,14.559 4.354,15.500 4.816 C 17.133 5.618,18.382 6.867,19.184 8.500 C 19.646 9.441,19.889 10.356,19.965 11.440 C 19.987 11.759,20.014 12.096,20.025 12.189 C 20.052 12.420,20.257 12.711,20.497 12.859 C 20.671 12.966,20.729 12.980,20.997 12.980 C 21.257 12.980,21.327 12.964,21.492 12.867 C 21.714 12.737,21.901 12.498,21.965 12.264 C 22.061 11.915,21.944 10.607,21.740 9.740 C 21.304 7.885,20.413 6.289,19.062 4.939 C 17.858 3.736,16.486 2.913,14.866 2.423 C 13.788 2.096,12.167 1.909,11.695 2.057 M7.240 3.235 C 6.784 3.384,6.512 3.746,6.512 4.203 C 6.512 4.616,6.771 5.001,7.145 5.144 C 7.354 5.224,7.757 5.205,7.948 5.106 C 8.528 4.806,8.673 3.990,8.228 3.526 C 8.158 3.453,8.029 3.357,7.943 3.312 C 7.771 3.224,7.399 3.183,7.240 3.235 M3.800 6.584 C 3.599 6.671,3.405 6.869,3.295 7.100 C 3.067 7.583,3.274 8.146,3.777 8.412 C 3.895 8.473,4.012 8.497,4.200 8.497 C 4.927 8.497,5.412 7.748,5.105 7.100 C 4.993 6.865,4.799 6.669,4.591 6.582 C 4.403 6.503,3.983 6.504,3.800 6.584 M8.695 8.057 C 8.466 8.129,8.256 8.299,8.128 8.516 L 8.020 8.700 8.020 12.003 L 8.020 15.306 8.141 15.503 C 8.543 16.156,9.457 16.156,9.859 15.503 L 9.980 15.306 9.980 12.003 L 9.980 8.700 9.872 8.516 C 9.628 8.101,9.150 7.915,8.695 8.057 M11.695 8.057 C 11.466 8.129,11.256 8.299,11.128 8.516 L 11.020 8.700 11.008 10.410 C 11.001 11.502,11.012 12.175,11.038 12.274 C 11.099 12.498,11.289 12.738,11.508 12.867 L 11.700 12.980 12.850 12.992 L 14.000 13.005 14.000 13.502 L 14.000 14.000 12.946 14.000 C 11.797 14.000,11.644 14.022,11.382 14.221 C 11.302 14.282,11.187 14.415,11.128 14.516 C 11.037 14.672,11.020 14.746,11.020 15.000 C 11.020 15.256,11.036 15.328,11.131 15.489 C 11.256 15.702,11.449 15.864,11.670 15.943 C 11.898 16.024,14.178 16.022,14.492 15.940 C 14.852 15.847,15.118 15.690,15.404 15.404 C 15.895 14.913,16.000 14.579,15.999 13.514 C 15.999 12.459,15.903 12.124,15.465 11.653 C 14.998 11.150,14.590 11.006,13.630 11.002 L 13.000 11.000 13.000 10.500 L 13.000 10.000 14.090 9.998 C 15.262 9.996,15.357 9.983,15.619 9.783 C 15.696 9.725,15.808 9.592,15.869 9.489 C 15.964 9.328,15.980 9.256,15.980 9.000 C 15.980 8.746,15.963 8.672,15.872 8.516 C 15.740 8.293,15.533 8.128,15.290 8.055 C 15.035 7.978,11.941 7.980,11.695 8.057 M2.695 11.057 C 2.466 11.129,2.256 11.299,2.128 11.516 C 2.036 11.672,2.020 11.745,2.021 12.000 C 2.022 12.332,2.101 12.533,2.306 12.728 C 2.785 13.181,3.580 13.046,3.893 12.460 C 4.025 12.211,4.015 11.760,3.872 11.516 C 3.628 11.101,3.150 10.915,2.695 11.057 M3.800 15.584 C 3.599 15.671,3.405 15.869,3.295 16.100 C 3.067 16.583,3.274 17.146,3.777 17.412 C 4.002 17.530,4.398 17.530,4.623 17.412 C 5.126 17.146,5.333 16.583,5.105 16.100 C 4.993 15.865,4.799 15.669,4.591 15.582 C 4.403 15.503,3.983 15.504,3.800 15.584 M19.400 15.584 C 19.199 15.671,19.005 15.869,18.895 16.100 C 18.667 16.583,18.874 17.146,19.377 17.412 C 19.602 17.530,19.998 17.530,20.223 17.412 C 20.726 17.146,20.933 16.583,20.705 16.100 C 20.593 15.865,20.399 15.669,20.191 15.582 C 20.003 15.503,19.583 15.504,19.400 15.584 M7.240 18.835 C 6.784 18.984,6.512 19.346,6.512 19.803 C 6.512 20.216,6.771 20.601,7.145 20.744 C 7.354 20.824,7.757 20.805,7.948 20.706 C 8.528 20.406,8.673 19.590,8.228 19.126 C 8.158 19.053,8.029 18.957,7.943 18.912 C 7.771 18.824,7.399 18.783,7.240 18.835 M16.240 18.835 C 15.784 18.984,15.512 19.346,15.512 19.803 C 15.512 20.216,15.771 20.601,16.145 20.744 C 16.354 20.824,16.757 20.805,16.948 20.706 C 17.528 20.406,17.673 19.590,17.228 19.126 C 17.158 19.053,17.029 18.957,16.943 18.912 C 16.771 18.824,16.399 18.783,16.240 18.835 M11.695 20.057 C 11.466 20.129,11.256 20.299,11.128 20.516 C 11.036 20.672,11.020 20.745,11.021 21.000 C 11.022 21.332,11.101 21.533,11.306 21.728 C 11.785 22.181,12.580 22.046,12.893 21.460 C 13.025 21.211,13.015 20.760,12.872 20.516 C 12.628 20.101,12.150 19.915,11.695 20.057 " stroke="none" fill-rule="evenodd" fill="black"></path></svg>