<svg xmlns="http://www.w3.org/2000/svg" width="24" height="24" viewBox="0 0 24 24" fill="none" stroke="currentColor" stroke-width="2" stroke-linecap="round" stroke-linejoin="round"><path d="M11.695 2.057 C 11.466 2.129,11.256 2.299,11.128 2.516 C 10.985 2.760,10.975 3.211,11.107 3.460 C 11.490 4.177,12.510 4.177,12.893 3.460 C 13.025 3.211,13.015 2.760,12.872 2.516 C 12.628 2.101,12.150 1.915,11.695 2.057 M7.240 3.235 C 6.784 3.384,6.512 3.746,6.512 4.203 C 6.512 4.616,6.771 5.001,7.145 5.144 C 7.354 5.224,7.757 5.205,7.948 5.106 C 8.528 4.806,8.673 3.990,8.228 3.526 C 8.158 3.453,8.029 3.357,7.943 3.312 C 7.771 3.224,7.399 3.183,7.240 3.235 M16.240 3.235 C 15.784 3.384,15.512 3.746,15.512 4.203 C 15.512 4.616,15.771 5.001,16.145 5.144 C 16.354 5.224,16.757 5.205,16.948 5.106 C 17.528 4.806,17.673 3.990,17.228 3.526 C 17.158 3.453,17.029 3.357,16.943 3.312 C 16.771 3.224,16.399 3.183,16.240 3.235 M3.800 6.584 C 3.599 6.671,3.405 6.869,3.295 7.100 C 3.067 7.583,3.274 8.146,3.777 8.412 C 3.895 8.473,4.012 8.497,4.200 8.497 C 4.927 8.497,5.412 7.748,5.105 7.100 C 4.993 6.865,4.799 6.669,4.591 6.582 C 4.403 6.503,3.983 6.504,3.800 6.584 M19.400 6.584 C 19.199 6.671,19.005 6.869,18.895 7.100 C 18.667 7.583,18.874 8.146,19.377 8.412 C 19.495 8.473,19.612 8.497,19.800 8.497 C 20.527 8.497,21.012 7.748,20.705 7.100 C 20.593 6.865,20.399 6.669,20.191 6.582 C 20.003 6.503,19.583 6.504,19.400 6.584 M11.499 8.040 C 10.363 8.246,9.461 9.048,9.114 10.160 C 9.022 10.453,9.020 10.497,9.020 12.000 C 9.020 13.503,9.022 13.547,9.114 13.840 C 9.422 14.827,10.174 15.579,11.160 15.886 C 11.412 15.964,11.547 15.979,12.000 15.979 C 12.453 15.979,12.588 15.964,12.840 15.886 C 13.826 15.579,14.578 14.827,14.886 13.840 C 14.978 13.547,14.980 13.503,14.980 12.000 C 14.980 10.497,14.978 10.453,14.886 10.160 C 14.580 9.178,13.810 8.407,12.861 8.129 C 12.500 8.023,11.832 7.980,11.499 8.040 M12.310 10.061 C 12.589 10.144,12.856 10.411,12.939 10.690 C 13.023 10.972,13.028 13.015,12.945 13.290 C 12.872 13.533,12.707 13.740,12.484 13.872 C 12.328 13.963,12.254 13.980,12.000 13.980 C 11.746 13.980,11.672 13.963,11.516 13.872 C 11.415 13.813,11.284 13.700,11.225 13.623 C 11.014 13.347,11.000 13.245,11.000 12.022 C 11.000 10.695,11.019 10.587,11.304 10.303 C 11.583 10.024,11.916 9.944,12.310 10.061 M2.695 11.057 C 2.466 11.129,2.256 11.299,2.128 11.516 C 2.036 11.672,2.020 11.745,2.021 12.000 C 2.022 12.332,2.101 12.533,2.306 12.728 C 2.785 13.181,3.580 13.046,3.893 12.460 C 4.025 12.211,4.015 11.760,3.872 11.516 C 3.628 11.101,3.150 10.915,2.695 11.057 M20.695 11.057 C 20.466 11.129,20.256 11.299,20.128 11.516 C 20.036 11.672,20.020 11.745,20.021 12.000 C 20.022 12.332,20.101 12.533,20.306 12.728 C 20.785 13.181,21.580 13.046,21.893 12.460 C 22.025 12.211,22.015 11.760,21.872 11.516 C 21.628 11.101,21.150 10.915,20.695 11.057 M3.800 15.584 C 3.599 15.671,3.405 15.869,3.295 16.100 C 3.067 16.583,3.274 17.146,3.777 17.412 C 4.002 17.530,4.398 17.530,4.623 17.412 C 5.126 17.146,5.333 16.583,5.105 16.100 C 4.993 15.865,4.799 15.669,4.591 15.582 C 4.403 15.503,3.983 15.504,3.800 15.584 M19.400 15.584 C 19.199 15.671,19.005 15.869,18.895 16.100 C 18.667 16.583,18.874 17.146,19.377 17.412 C 19.602 17.530,19.998 17.530,20.223 17.412 C 20.726 17.146,20.933 16.583,20.705 16.100 C 20.593 15.865,20.399 15.669,20.191 15.582 C 20.003 15.503,19.583 15.504,19.400 15.584 M7.240 18.835 C 6.784 18.984,6.512 19.346,6.512 19.803 C 6.512 20.216,6.771 20.601,7.145 20.744 C 7.354 20.824,7.757 20.805,7.948 20.706 C 8.528 20.406,8.673 19.590,8.228 19.126 C 8.158 19.053,8.029 18.957,7.943 18.912 C 7.771 18.824,7.399 18.783,7.240 18.835 M16.240 18.835 C 15.784 18.984,15.512 19.346,15.512 19.803 C 15.512 20.216,15.771 20.601,16.145 20.744 C 16.354 20.824,16.757 20.805,16.948 20.706 C 17.528 20.406,17.673 19.590,17.228 19.126 C 17.158 19.053,17.029 18.957,16.943 18.912 C 16.771 18.824,16.399 18.783,16.240 18.835 M11.695 20.057 C 11.466 20.129,11.256 20.299,11.128 20.516 C 11.036 20.672,11.020 20.745,11.021 21.000 C 11.022 21.332,11.101 21.533,11.306 21.728 C 11.785 22.181,12.580 22.046,12.893 21.460 C 13.025 21.211,13.015 20.760,12.872 20.516 C 12.628 20.101,12.150 19.915,11.695 20.057 " stroke="none" fill-rule="evenodd" fill="black"></path></svg>