<svg xmlns="http://www.w3.org/2000/svg" width="24" height="24" viewBox="0 0 24 24" fill="none" stroke="currentColor" stroke-width="2" stroke-linecap="round" stroke-linejoin="round"><path d="M5.695 3.057 C 5.466 3.129,5.256 3.299,5.128 3.516 C 5.036 3.672,5.020 3.746,5.020 4.003 C 5.020 4.271,5.034 4.329,5.141 4.503 C 5.289 4.743,5.578 4.946,5.825 4.983 L 6.007 5.010 5.994 5.555 C 5.981 6.065,5.973 6.112,5.870 6.288 C 5.793 6.418,5.691 6.516,5.537 6.608 C 4.699 7.107,4.216 7.760,4.042 8.632 C 4.014 8.774,4.000 10.419,4.000 13.606 C 4.000 18.260,4.002 18.377,4.083 18.773 C 4.311 19.892,4.985 20.851,5.956 21.436 C 6.285 21.635,6.810 21.832,7.243 21.921 C 7.618 21.997,7.800 22.000,12.000 22.000 C 16.200 22.000,16.382 21.997,16.757 21.921 C 18.117 21.643,19.193 20.755,19.704 19.488 C 19.779 19.300,19.877 18.972,19.921 18.757 C 19.997 18.381,20.000 18.199,20.000 13.606 C 20.000 10.419,19.986 8.774,19.958 8.632 C 19.784 7.764,19.298 7.105,18.463 6.608 C 18.309 6.516,18.207 6.418,18.130 6.288 C 18.027 6.112,18.019 6.065,18.006 5.555 L 17.993 5.010 18.175 4.983 C 18.422 4.946,18.711 4.743,18.859 4.503 C 18.966 4.329,18.980 4.271,18.980 4.003 C 18.980 3.746,18.964 3.672,18.872 3.516 C 18.740 3.293,18.533 3.128,18.290 3.055 C 18.028 2.976,5.947 2.978,5.695 3.057 M16.000 5.578 C 16.000 6.369,16.094 6.782,16.388 7.287 C 16.653 7.743,16.972 8.052,17.510 8.375 C 17.690 8.483,17.791 8.579,17.870 8.713 L 17.980 8.900 17.992 13.500 C 17.999 16.634,17.989 18.183,17.960 18.360 C 17.896 18.747,17.710 19.096,17.403 19.404 C 17.118 19.690,16.853 19.846,16.492 19.940 C 16.149 20.030,7.851 20.030,7.508 19.940 C 6.801 19.756,6.213 19.156,6.060 18.463 C 6.005 18.214,5.999 17.622,6.009 13.540 L 6.020 8.900 6.130 8.713 C 6.209 8.578,6.310 8.484,6.490 8.376 C 7.164 7.972,7.599 7.467,7.830 6.820 C 7.967 6.436,8.000 6.193,8.000 5.578 L 8.000 5.000 12.000 5.000 L 16.000 5.000 16.000 5.578 M12.499 9.043 C 11.182 9.264,10.136 10.381,10.017 11.693 L 9.990 11.990 9.781 12.036 C 9.515 12.096,9.269 12.276,9.129 12.514 C 9.036 12.672,9.020 12.745,9.020 13.003 C 9.020 13.271,9.034 13.329,9.141 13.503 C 9.289 13.744,9.577 13.946,9.826 13.983 L 10.010 14.011 9.985 14.255 C 9.925 14.833,9.845 14.949,9.468 15.002 C 8.867 15.087,8.512 15.457,8.512 16.000 C 8.512 16.405,8.719 16.724,9.100 16.905 L 9.300 16.999 11.740 16.998 C 13.674 16.997,14.211 16.985,14.330 16.943 C 14.551 16.864,14.744 16.702,14.869 16.489 C 14.964 16.328,14.980 16.256,14.980 16.000 C 14.980 15.746,14.963 15.672,14.872 15.516 C 14.813 15.415,14.698 15.282,14.618 15.221 C 14.355 15.020,14.206 15.000,13.008 15.000 L 11.910 15.000 11.935 14.850 C 11.949 14.768,11.972 14.543,11.986 14.350 L 12.012 14.000 12.596 13.998 C 12.978 13.997,13.232 13.978,13.330 13.943 C 13.551 13.864,13.744 13.702,13.869 13.489 C 13.964 13.328,13.980 13.256,13.980 13.000 C 13.980 12.746,13.963 12.672,13.872 12.516 C 13.633 12.110,13.352 12.000,12.554 12.000 C 11.934 12.000,11.963 12.018,12.061 11.690 C 12.103 11.548,12.178 11.429,12.303 11.303 C 12.561 11.045,12.743 11.000,13.537 10.998 C 14.230 10.996,14.378 10.967,14.619 10.783 C 14.696 10.725,14.808 10.592,14.869 10.489 C 14.964 10.328,14.980 10.256,14.980 10.000 C 14.980 9.746,14.963 9.672,14.872 9.516 C 14.740 9.293,14.533 9.128,14.290 9.055 C 14.084 8.993,12.845 8.985,12.499 9.043 " stroke="none" fill-rule="evenodd" fill="black"></path></svg>