<svg xmlns="http://www.w3.org/2000/svg" width="24" height="24" viewBox="0 0 24 24" fill="none" stroke="currentColor" stroke-width="2" stroke-linecap="round" stroke-linejoin="round"><path d="M5.695 3.057 C 5.466 3.129,5.256 3.299,5.128 3.516 C 5.036 3.672,5.020 3.746,5.020 4.003 C 5.020 4.271,5.034 4.329,5.141 4.503 C 5.289 4.743,5.578 4.946,5.825 4.983 L 6.007 5.010 5.994 5.555 C 5.981 6.065,5.973 6.112,5.870 6.288 C 5.793 6.418,5.691 6.516,5.537 6.608 C 4.699 7.107,4.216 7.760,4.042 8.632 C 4.014 8.774,4.000 10.419,4.000 13.606 C 4.000 18.260,4.002 18.377,4.083 18.773 C 4.311 19.892,4.985 20.851,5.956 21.436 C 6.285 21.635,6.810 21.832,7.243 21.921 C 7.618 21.997,7.800 22.000,12.000 22.000 C 16.200 22.000,16.382 21.997,16.757 21.921 C 18.117 21.643,19.193 20.755,19.704 19.488 C 19.779 19.300,19.877 18.972,19.921 18.757 C 19.997 18.381,20.000 18.199,20.000 13.606 C 20.000 10.419,19.986 8.774,19.958 8.632 C 19.784 7.764,19.298 7.105,18.463 6.608 C 18.309 6.516,18.207 6.418,18.130 6.288 C 18.027 6.112,18.019 6.065,18.006 5.555 L 17.993 5.010 18.175 4.983 C 18.422 4.946,18.711 4.743,18.859 4.503 C 18.966 4.329,18.980 4.271,18.980 4.003 C 18.980 3.746,18.964 3.672,18.872 3.516 C 18.740 3.293,18.533 3.128,18.290 3.055 C 18.028 2.976,5.947 2.978,5.695 3.057 M16.000 5.578 C 16.000 6.369,16.094 6.782,16.388 7.287 C 16.653 7.743,16.972 8.052,17.510 8.375 C 17.690 8.483,17.791 8.579,17.870 8.713 L 17.980 8.900 17.992 13.500 C 17.999 16.634,17.989 18.183,17.960 18.360 C 17.896 18.747,17.710 19.096,17.403 19.404 C 17.118 19.690,16.853 19.846,16.492 19.940 C 16.149 20.030,7.851 20.030,7.508 19.940 C 6.801 19.756,6.213 19.156,6.060 18.463 C 6.005 18.214,5.999 17.622,6.009 13.540 L 6.020 8.900 6.130 8.713 C 6.209 8.578,6.310 8.484,6.490 8.376 C 7.164 7.972,7.599 7.467,7.830 6.820 C 7.967 6.436,8.000 6.193,8.000 5.578 L 8.000 5.000 12.000 5.000 L 16.000 5.000 16.000 5.578 M11.695 8.057 C 11.342 8.168,11.095 8.451,11.019 8.835 L 10.976 9.050 10.757 9.118 C 10.003 9.351,9.361 9.980,9.118 10.722 C 9.034 10.976,9.020 11.094,9.022 11.520 C 9.024 11.960,9.038 12.056,9.133 12.320 C 9.394 13.039,9.964 13.609,10.680 13.867 C 10.961 13.968,11.033 13.976,11.800 13.992 C 12.702 14.010,12.786 14.030,12.922 14.252 C 13.021 14.415,13.021 14.585,12.922 14.748 C 12.770 14.996,12.746 15.000,11.248 15.000 C 9.774 15.000,9.653 15.014,9.382 15.221 C 9.302 15.282,9.187 15.415,9.128 15.516 C 9.037 15.672,9.020 15.746,9.020 16.000 C 9.020 16.256,9.036 16.328,9.131 16.489 C 9.256 16.702,9.449 16.864,9.670 16.943 C 9.768 16.978,10.022 16.997,10.405 16.998 L 10.991 17.000 11.018 17.179 C 11.054 17.422,11.258 17.712,11.497 17.859 C 11.671 17.966,11.729 17.980,12.000 17.980 C 12.271 17.980,12.329 17.966,12.503 17.859 C 12.752 17.706,12.949 17.419,12.984 17.160 L 13.010 16.966 13.294 16.873 C 14.001 16.642,14.605 16.046,14.868 15.320 C 14.965 15.052,14.976 14.965,14.976 14.500 C 14.976 14.035,14.965 13.948,14.868 13.680 C 14.646 13.068,14.195 12.561,13.620 12.277 C 13.172 12.055,12.869 12.002,12.068 12.001 C 11.319 12.000,11.216 11.974,11.078 11.748 C 10.932 11.508,11.023 11.193,11.276 11.062 C 11.377 11.010,11.612 11.000,12.788 10.998 C 14.285 10.996,14.350 10.989,14.619 10.783 C 14.696 10.725,14.808 10.592,14.869 10.489 C 14.964 10.328,14.980 10.256,14.980 10.000 C 14.980 9.746,14.963 9.672,14.872 9.516 C 14.634 9.111,14.351 9.000,13.559 9.000 L 13.010 9.000 12.983 8.830 C 12.926 8.473,12.648 8.163,12.290 8.055 C 12.068 7.988,11.913 7.989,11.695 8.057 " stroke="none" fill-rule="evenodd" fill="black"></path></svg>