<svg xmlns="http://www.w3.org/2000/svg" width="24" height="24" viewBox="0 0 24 24" fill="none" stroke="currentColor" stroke-width="2" stroke-linecap="round" stroke-linejoin="round"><path d="M5.500 2.059 C 3.445 2.512,2.000 5.790,2.000 10.000 C 2.000 14.052,3.347 17.273,5.300 17.891 C 5.693 18.016,6.307 18.016,6.700 17.891 C 7.061 17.777,7.425 17.559,7.745 17.266 L 8.000 17.033 8.000 18.589 C 8.000 20.361,8.007 20.409,8.299 20.701 C 8.565 20.967,8.984 21.067,9.320 20.946 C 9.397 20.918,10.002 20.534,10.664 20.091 L 11.868 19.287 13.124 20.545 C 13.981 21.403,14.436 21.829,14.556 21.887 C 14.789 22.001,15.070 22.025,15.290 21.949 C 15.388 21.916,16.068 21.488,16.802 20.999 L 18.137 20.108 19.497 20.559 C 20.759 20.977,20.874 21.008,21.088 20.989 C 21.481 20.953,21.811 20.699,21.943 20.330 C 21.987 20.208,21.997 19.180,21.998 14.740 C 21.999 11.362,21.984 9.088,21.958 8.740 C 21.762 6.080,20.961 3.876,19.796 2.785 C 19.440 2.452,19.161 2.276,18.753 2.127 L 18.460 2.020 12.100 2.013 C 6.951 2.007,5.694 2.016,5.500 2.059 M6.183 4.051 C 6.842 4.436,7.479 5.792,7.774 7.440 C 7.945 8.392,7.978 8.825,7.976 10.040 C 7.973 11.269,7.928 11.789,7.738 12.764 C 7.388 14.562,6.496 16.133,5.908 15.986 C 5.548 15.895,5.002 15.117,4.668 14.220 C 4.399 13.498,4.184 12.528,4.072 11.540 C 4.008 10.970,4.008 9.030,4.072 8.460 C 4.266 6.745,4.755 5.221,5.347 4.493 C 5.710 4.046,5.954 3.918,6.183 4.051 M18.183 4.051 C 18.814 4.419,19.438 5.704,19.743 7.264 C 19.977 8.460,19.972 8.326,19.989 13.675 C 20.002 17.721,19.995 18.607,19.952 18.591 C 19.923 18.580,19.504 18.440,19.021 18.281 C 18.254 18.028,18.115 17.993,17.936 18.012 C 17.654 18.041,17.545 18.103,16.259 18.961 L 15.132 19.713 13.876 18.455 C 13.066 17.645,12.561 17.170,12.455 17.118 C 12.219 17.003,11.926 16.977,11.710 17.050 C 11.613 17.084,11.193 17.338,10.776 17.615 L 10.020 18.120 9.997 13.350 C 9.971 8.238,9.976 8.346,9.758 7.120 C 9.574 6.086,9.245 5.044,8.859 4.278 L 8.719 4.000 13.409 4.001 C 17.014 4.003,18.119 4.014,18.183 4.051 M5.695 9.055 C 5.464 9.130,5.255 9.300,5.128 9.516 C 5.037 9.672,5.020 9.746,5.020 10.000 C 5.020 10.257,5.036 10.327,5.133 10.492 C 5.651 11.374,6.998 11.018,6.998 10.000 C 6.998 9.623,6.792 9.281,6.463 9.112 C 6.265 9.010,5.911 8.984,5.695 9.055 " stroke="none" fill-rule="evenodd" fill="black"></path></svg>