<svg xmlns="http://www.w3.org/2000/svg" width="24" height="24" viewBox="0 0 24 24" fill="none" stroke="currentColor" stroke-width="2" stroke-linecap="round" stroke-linejoin="round"><path d="M1.240 7.037 C 0.791 7.177,0.512 7.546,0.512 8.000 C 0.512 8.405,0.719 8.724,1.100 8.905 C 1.263 8.982,1.365 8.999,1.650 9.000 L 2.000 9.000 2.002 12.590 C 2.003 15.484,2.014 16.209,2.057 16.330 C 2.304 17.022,3.176 17.217,3.696 16.698 C 4.016 16.377,4.000 16.600,4.000 12.573 L 4.000 9.000 4.350 9.000 C 4.635 8.999,4.737 8.982,4.900 8.905 C 5.281 8.724,5.488 8.405,5.488 8.000 C 5.488 7.615,5.293 7.297,4.940 7.106 C 4.784 7.022,4.740 7.020,3.060 7.013 C 2.114 7.009,1.295 7.019,1.240 7.037 M7.960 7.062 C 7.605 7.138,7.107 7.393,6.832 7.639 C 6.532 7.907,6.239 8.352,6.118 8.722 L 6.020 9.020 6.020 12.020 L 6.020 15.020 6.131 15.320 C 6.399 16.044,6.964 16.608,7.680 16.868 C 7.948 16.965,8.035 16.976,8.500 16.976 C 8.965 16.976,9.052 16.965,9.320 16.868 C 10.036 16.608,10.601 16.044,10.869 15.320 L 10.980 15.020 10.980 12.000 L 10.980 8.980 10.869 8.680 C 10.430 7.486,9.192 6.798,7.960 7.062 M12.695 7.057 C 12.466 7.129,12.256 7.299,12.128 7.516 L 12.020 7.700 12.020 12.003 L 12.020 16.306 12.141 16.503 C 12.543 17.156,13.457 17.156,13.859 16.503 L 13.980 16.306 13.992 14.769 L 14.004 13.231 14.105 13.436 C 14.409 14.045,15.197 14.184,15.682 13.713 C 15.773 13.625,15.880 13.478,15.922 13.387 L 15.996 13.220 16.008 14.763 L 16.020 16.306 16.141 16.503 C 16.543 17.156,17.457 17.156,17.859 16.503 L 17.980 16.306 17.991 12.086 C 18.003 7.329,18.020 7.618,17.701 7.299 C 17.296 6.894,16.595 6.922,16.236 7.358 C 16.165 7.444,15.911 8.022,15.573 8.869 C 15.271 9.623,15.014 10.240,15.000 10.240 C 14.986 10.240,14.726 9.615,14.420 8.852 C 13.925 7.611,13.848 7.446,13.700 7.298 C 13.433 7.030,13.063 6.942,12.695 7.057 M19.695 7.057 C 19.466 7.129,19.256 7.299,19.128 7.516 L 19.020 7.700 19.009 11.913 C 19.002 14.672,19.013 16.178,19.039 16.277 C 19.099 16.498,19.290 16.739,19.508 16.867 L 19.700 16.980 21.179 16.992 C 22.837 17.005,22.865 17.001,23.173 16.724 C 23.574 16.362,23.600 15.715,23.228 15.326 C 22.952 15.039,22.880 15.021,21.891 15.007 L 21.002 14.995 20.991 11.347 L 20.980 7.700 20.872 7.516 C 20.628 7.101,20.150 6.915,19.695 7.057 M8.724 9.062 C 8.790 9.096,8.879 9.182,8.922 9.252 C 8.997 9.376,9.000 9.472,9.000 12.000 C 9.000 14.528,8.997 14.624,8.922 14.748 C 8.833 14.893,8.654 15.000,8.500 15.000 C 8.346 15.000,8.167 14.893,8.078 14.748 C 8.003 14.625,8.000 14.528,8.000 12.008 C 8.000 9.125,7.990 9.238,8.252 9.078 C 8.406 8.984,8.563 8.979,8.724 9.062 " stroke="none" fill-rule="evenodd" fill="black"></path></svg>