<svg xmlns="http://www.w3.org/2000/svg" width="24" height="24" viewBox="0 0 24 24" fill="none" stroke="currentColor" stroke-width="2" stroke-linecap="round" stroke-linejoin="round"><path d="M2.670 2.061 C 2.448 2.142,2.250 2.309,2.128 2.516 C 2.036 2.672,2.020 2.745,2.021 3.000 C 2.021 3.214,2.043 3.340,2.096 3.440 C 2.137 3.517,2.394 3.807,2.668 4.084 L 3.165 4.589 3.581 8.344 C 3.811 10.410,4.019 12.177,4.045 12.272 C 4.110 12.513,4.283 12.735,4.508 12.867 L 4.700 12.980 5.850 12.992 L 7.000 13.005 7.000 14.996 L 7.000 16.987 6.786 17.035 C 6.515 17.096,6.270 17.275,6.129 17.514 L 6.020 17.700 6.008 19.410 C 6.001 20.502,6.012 21.175,6.038 21.274 C 6.099 21.498,6.289 21.738,6.508 21.867 L 6.700 21.980 8.000 21.980 L 9.300 21.980 9.492 21.867 C 9.711 21.738,9.901 21.498,9.962 21.274 C 9.988 21.175,9.999 20.502,9.992 19.410 L 9.980 17.700 9.871 17.514 C 9.730 17.275,9.485 17.096,9.214 17.035 L 9.000 16.987 9.000 14.994 L 9.000 13.000 10.090 12.998 C 10.881 12.997,11.220 12.982,11.326 12.944 L 11.472 12.892 14.736 16.156 L 18.000 19.420 18.002 20.300 C 18.004 21.247,18.023 21.365,18.217 21.619 C 18.275 21.696,18.408 21.808,18.511 21.869 C 18.696 21.977,18.717 21.980,19.414 21.993 C 19.976 22.004,20.168 21.994,20.316 21.945 C 20.485 21.890,20.521 21.890,20.682 21.946 C 21.204 22.128,21.819 21.801,21.965 21.264 C 22.027 21.033,21.984 20.708,21.865 20.508 C 21.810 20.416,17.665 16.243,12.653 11.235 C 4.231 2.820,3.525 2.125,3.343 2.065 C 3.107 1.987,2.874 1.986,2.670 2.061 M6.695 2.057 C 6.466 2.129,6.256 2.299,6.128 2.516 C 6.037 2.672,6.020 2.746,6.020 3.000 C 6.020 3.256,6.036 3.328,6.131 3.489 C 6.256 3.702,6.449 3.864,6.670 3.943 C 6.788 3.985,7.259 3.997,8.852 3.998 L 10.885 4.000 10.861 4.170 C 10.848 4.264,10.758 5.061,10.661 5.942 C 10.472 7.659,10.472 7.703,10.654 8.013 C 10.899 8.432,11.444 8.612,11.891 8.422 C 12.085 8.340,12.341 8.084,12.421 7.892 C 12.504 7.694,13.013 3.181,12.985 2.888 C 12.949 2.500,12.674 2.170,12.290 2.055 C 12.031 1.977,6.944 1.979,6.695 2.057 M19.673 2.056 C 19.462 2.131,19.286 2.282,18.678 2.907 C 17.027 4.606,15.857 6.284,15.128 8.000 C 14.679 9.059,14.239 10.662,14.241 11.234 C 14.244 12.064,15.186 12.497,15.864 11.980 C 16.079 11.816,16.155 11.641,16.285 11.013 C 16.661 9.199,17.350 7.710,18.559 6.100 C 18.782 5.803,18.972 5.560,18.982 5.560 C 18.992 5.560,19.000 7.456,19.000 9.774 L 19.000 13.987 18.786 14.035 C 18.515 14.096,18.270 14.275,18.129 14.514 C 18.036 14.672,18.020 14.745,18.020 15.003 C 18.020 15.271,18.034 15.329,18.141 15.503 C 18.287 15.740,18.577 15.946,18.817 15.982 C 18.988 16.007,18.993 16.012,19.018 16.183 C 19.054 16.423,19.260 16.713,19.497 16.859 C 19.671 16.966,19.729 16.980,19.997 16.980 C 20.256 16.980,20.327 16.964,20.489 16.869 C 20.702 16.744,20.864 16.551,20.943 16.330 C 20.987 16.207,20.997 14.979,20.998 9.517 C 21.000 2.026,21.026 2.632,20.694 2.300 C 20.424 2.031,20.017 1.933,19.673 2.056 M7.520 8.940 L 9.580 11.000 7.739 11.000 L 5.898 11.000 5.685 9.050 C 5.567 7.978,5.462 7.050,5.450 6.990 C 5.439 6.930,5.437 6.880,5.445 6.880 C 5.453 6.880,6.387 7.807,7.520 8.940 " stroke="none" fill-rule="evenodd" fill="black"></path></svg>