<svg xmlns="http://www.w3.org/2000/svg" width="24" height="24" viewBox="0 0 24 24" fill="none" stroke="currentColor" stroke-width="2" stroke-linecap="round" stroke-linejoin="round"><path d="M2.670 2.061 C 2.448 2.142,2.250 2.309,2.128 2.516 C 2.037 2.672,2.020 2.746,2.020 3.000 C 2.020 3.254,2.036 3.328,2.127 3.480 C 2.186 3.579,2.632 4.056,3.117 4.540 L 4.000 5.419 4.000 6.327 C 4.000 7.332,4.037 7.701,4.188 8.178 C 4.578 9.416,5.507 10.369,6.720 10.780 L 6.980 10.867 7.000 16.087 L 7.020 21.306 7.141 21.503 C 7.543 22.156,8.457 22.156,8.859 21.503 L 8.980 21.306 9.000 16.089 L 9.020 10.873 9.180 10.817 L 9.340 10.762 11.170 12.591 L 13.000 14.420 13.002 14.800 C 13.004 15.369,13.139 15.650,13.511 15.869 C 13.681 15.968,13.745 15.981,14.140 15.993 L 14.580 16.007 15.790 17.213 L 17.000 18.420 17.002 19.800 C 17.004 21.284,17.011 21.350,17.217 21.619 C 17.275 21.696,17.408 21.808,17.511 21.869 L 17.700 21.980 18.503 21.980 L 19.306 21.980 19.503 21.859 C 19.612 21.792,19.756 21.654,19.825 21.552 L 19.950 21.367 20.145 21.566 C 20.462 21.891,20.646 21.980,21.000 21.980 C 21.257 21.980,21.327 21.964,21.492 21.867 C 21.968 21.587,22.139 20.967,21.865 20.508 C 21.810 20.416,17.665 16.243,12.653 11.235 C 4.231 2.820,3.525 2.125,3.343 2.065 C 3.107 1.987,2.874 1.986,2.670 2.061 M18.673 2.056 C 18.464 2.131,18.291 2.278,17.680 2.906 C 15.498 5.145,14.217 7.251,13.537 9.717 C 13.320 10.505,13.363 10.819,13.732 11.145 C 14.199 11.556,14.921 11.458,15.220 10.943 C 15.271 10.853,15.387 10.528,15.476 10.220 C 15.950 8.577,16.652 7.231,17.780 5.803 L 17.980 5.550 18.000 10.428 L 18.020 15.306 18.141 15.503 C 18.543 16.156,19.457 16.156,19.859 15.503 L 19.980 15.306 19.990 9.085 C 20.002 2.082,20.026 2.633,19.694 2.301 C 19.424 2.031,19.017 1.933,18.673 2.056 M10.695 3.057 C 10.466 3.129,10.256 3.299,10.128 3.516 L 10.020 3.700 10.020 5.503 L 10.020 7.306 10.141 7.503 C 10.543 8.156,11.457 8.156,11.859 7.503 L 11.980 7.306 11.980 5.503 L 11.980 3.700 11.872 3.516 C 11.628 3.101,11.150 2.915,10.695 3.057 M7.000 8.572 L 7.000 8.725 6.877 8.652 C 6.679 8.536,6.377 8.192,6.249 7.936 C 6.018 7.475,6.049 7.478,6.536 7.959 C 6.967 8.386,7.000 8.430,7.000 8.572 " stroke="none" fill-rule="evenodd" fill="black"></path></svg>