<svg xmlns="http://www.w3.org/2000/svg" width="24" height="24" viewBox="0 0 24 24" fill="none" stroke="currentColor" stroke-width="2" stroke-linecap="round" stroke-linejoin="round"><path d="M6.640 2.068 C 6.486 2.121,6.151 2.438,4.347 4.235 C 3.166 5.411,2.187 6.419,2.127 6.520 C 2.036 6.673,2.020 6.745,2.021 7.000 C 2.021 7.212,2.043 7.341,2.095 7.440 C 2.135 7.517,3.161 8.574,4.373 9.790 L 6.578 11.999 4.355 14.230 C 2.346 16.244,2.124 16.479,2.065 16.657 C 2.008 16.830,2.000 17.119,2.002 19.017 C 2.003 20.719,2.015 21.212,2.057 21.330 C 2.136 21.551,2.298 21.744,2.511 21.869 L 2.700 21.980 4.916 21.991 C 6.890 22.001,7.154 21.995,7.336 21.936 C 7.524 21.875,7.714 21.697,9.770 19.646 L 12.001 17.422 14.210 19.627 C 15.426 20.839,16.483 21.865,16.560 21.905 C 16.754 22.007,17.246 22.007,17.440 21.905 C 17.632 21.805,21.739 17.705,21.873 17.480 C 21.964 17.327,21.980 17.255,21.979 17.000 C 21.979 16.788,21.957 16.659,21.905 16.560 C 21.865 16.483,20.840 15.426,19.627 14.211 L 17.422 12.001 19.204 10.211 C 21.036 8.369,21.210 8.169,21.480 7.592 C 21.827 6.851,21.916 5.860,21.707 5.060 C 21.298 3.493,19.962 2.352,18.366 2.205 C 17.698 2.143,17.013 2.254,16.424 2.518 C 15.841 2.780,15.648 2.946,13.790 4.796 L 11.999 6.577 9.770 4.354 C 7.755 2.346,7.521 2.124,7.343 2.065 C 7.102 1.985,6.878 1.986,6.640 2.068 M18.624 4.286 C 19.628 4.656,20.097 5.814,19.639 6.794 C 19.546 6.994,19.411 7.159,19.010 7.565 L 18.500 8.082 17.209 6.790 L 15.917 5.497 16.435 4.988 C 16.851 4.580,17.007 4.454,17.221 4.354 C 17.648 4.154,18.193 4.128,18.624 4.286 M8.800 6.220 L 10.580 8.000 9.290 9.290 L 8.000 10.579 7.461 10.041 L 6.921 9.503 7.376 9.041 C 7.931 8.477,7.978 8.396,7.979 8.000 C 7.980 7.745,7.964 7.672,7.872 7.516 C 7.618 7.084,7.134 6.905,6.660 7.066 C 6.506 7.119,6.363 7.232,5.980 7.604 L 5.495 8.076 4.958 7.538 L 4.421 7.000 5.700 5.720 C 6.404 5.016,6.989 4.440,7.000 4.440 C 7.011 4.440,7.821 5.241,8.800 6.220 M11.830 14.750 L 6.580 20.000 5.290 20.000 L 4.000 20.000 4.000 18.710 L 4.000 17.420 9.250 12.170 L 14.500 6.920 15.790 8.210 L 17.080 9.500 11.830 14.750 M17.800 15.220 L 19.580 17.000 18.290 18.290 L 17.000 19.579 16.461 19.041 L 15.921 18.503 16.376 18.041 C 16.931 17.477,16.978 17.396,16.979 17.000 C 16.980 16.745,16.964 16.672,16.872 16.516 C 16.618 16.084,16.134 15.905,15.660 16.066 C 15.506 16.119,15.363 16.232,14.980 16.604 L 14.495 17.076 13.958 16.538 L 13.421 16.000 14.700 14.720 C 15.404 14.016,15.989 13.440,16.000 13.440 C 16.011 13.440,16.821 14.241,17.800 15.220 " stroke="none" fill-rule="evenodd" fill="black"></path></svg>