<svg xmlns="http://www.w3.org/2000/svg" width="24" height="24" viewBox="0 0 24 24" fill="none" stroke="currentColor" stroke-width="2" stroke-linecap="round" stroke-linejoin="round"><path d="M8.120 1.980 C 7.456 2.071,6.800 2.266,6.210 2.546 C 5.905 2.690,5.816 2.755,5.704 2.909 C 5.451 3.256,5.443 3.718,5.682 4.060 C 5.744 4.148,6.515 4.940,7.397 5.820 L 9.000 7.420 9.000 8.210 L 9.000 9.000 8.211 9.000 L 7.421 9.000 5.761 7.342 C 3.957 5.541,3.934 5.522,3.509 5.521 C 3.042 5.519,2.775 5.711,2.539 6.216 C 2.155 7.041,1.965 7.851,1.932 8.806 C 1.906 9.579,1.951 10.035,2.124 10.751 C 2.488 12.250,3.295 13.528,4.500 14.516 C 5.515 15.348,6.774 15.877,8.134 16.043 C 8.984 16.147,10.142 16.040,10.940 15.784 L 11.260 15.682 14.160 18.574 C 16.035 20.444,17.144 21.521,17.297 21.620 C 17.856 21.982,18.477 22.145,19.158 22.107 C 19.390 22.095,19.688 22.055,19.820 22.019 C 20.844 21.741,21.741 20.844,22.019 19.820 C 22.055 19.688,22.095 19.390,22.107 19.158 C 22.145 18.477,21.982 17.856,21.620 17.297 C 21.521 17.144,20.444 16.035,18.574 14.160 L 15.682 11.260 15.780 10.953 C 16.041 10.129,16.148 8.993,16.043 8.134 C 15.802 6.157,14.823 4.469,13.224 3.272 C 11.824 2.225,9.896 1.737,8.120 1.980 M10.160 4.035 C 11.245 4.284,12.120 4.807,12.859 5.649 C 14.122 7.087,14.432 9.128,13.659 10.920 C 13.553 11.168,13.512 11.320,13.510 11.480 C 13.504 11.936,13.397 11.813,16.815 15.240 C 18.938 17.367,19.972 18.432,20.023 18.540 C 20.140 18.787,20.129 19.244,20.000 19.495 C 19.741 20.004,19.167 20.236,18.617 20.055 C 18.437 19.996,18.141 19.712,15.260 16.837 C 12.826 14.409,12.059 13.665,11.920 13.603 C 11.629 13.472,11.342 13.492,10.886 13.675 C 10.071 14.003,9.524 14.102,8.708 14.068 C 7.394 14.013,6.271 13.518,5.370 12.596 C 4.570 11.778,4.122 10.869,3.961 9.740 C 3.916 9.423,3.908 8.777,3.946 8.547 L 3.972 8.393 5.196 9.612 C 5.869 10.283,6.483 10.865,6.560 10.906 C 6.690 10.975,6.822 10.980,8.500 10.980 L 10.300 10.980 10.489 10.869 C 10.592 10.808,10.725 10.696,10.783 10.619 C 10.992 10.345,10.996 10.306,10.998 8.517 C 11.000 7.075,10.991 6.828,10.934 6.657 C 10.876 6.484,10.720 6.311,9.629 5.213 C 8.199 3.774,8.245 3.917,9.220 3.941 C 9.625 3.952,9.931 3.982,10.160 4.035 " stroke="none" fill-rule="evenodd" fill="black"></path></svg>