<svg xmlns="http://www.w3.org/2000/svg" width="24" height="24" viewBox="0 0 24 24" fill="none" stroke="currentColor" stroke-width="2" stroke-linecap="round" stroke-linejoin="round"><path d="M3.695 3.057 C 3.466 3.129,3.256 3.299,3.128 3.516 L 3.020 3.700 3.008 5.526 C 2.998 7.249,3.002 7.376,3.081 7.764 C 3.359 9.129,4.278 10.230,5.540 10.711 C 5.716 10.778,5.891 10.843,5.929 10.855 C 5.995 10.876,5.999 11.183,6.009 16.092 L 6.020 21.306 6.141 21.503 C 6.209 21.613,6.346 21.756,6.452 21.828 C 6.923 22.144,7.554 21.999,7.859 21.503 L 7.980 21.306 7.991 16.092 C 8.001 11.183,8.005 10.876,8.071 10.855 C 9.341 10.451,10.237 9.646,10.704 8.488 C 10.984 7.793,11.004 7.581,10.992 5.526 L 10.980 3.700 10.871 3.514 C 10.479 2.848,9.521 2.848,9.129 3.514 L 9.020 3.700 8.998 5.560 C 8.973 7.633,8.975 7.619,8.687 8.064 C 8.548 8.279,8.109 8.720,8.033 8.720 C 8.016 8.720,7.997 7.590,7.991 6.210 L 7.980 3.700 7.871 3.514 C 7.479 2.848,6.521 2.848,6.129 3.514 L 6.020 3.700 6.009 6.210 C 6.003 7.590,5.984 8.720,5.967 8.720 C 5.891 8.720,5.452 8.279,5.313 8.064 C 5.024 7.618,5.026 7.634,5.002 5.560 L 4.980 3.700 4.872 3.516 C 4.628 3.101,4.150 2.915,3.695 3.057 M16.526 3.043 C 15.146 3.222,13.879 4.401,13.327 6.020 C 13.087 6.724,13.024 7.135,13.024 8.000 C 13.024 8.866,13.088 9.277,13.328 9.980 C 13.787 11.321,14.760 12.406,15.839 12.779 L 15.980 12.828 16.000 17.067 L 16.020 21.306 16.141 21.503 C 16.543 22.156,17.457 22.156,17.859 21.503 L 17.980 21.306 18.000 17.067 L 18.020 12.828 18.161 12.779 C 19.033 12.477,19.891 11.658,20.402 10.640 C 20.578 10.289,20.781 9.683,20.887 9.188 C 21.015 8.597,21.015 7.403,20.887 6.812 C 20.599 5.476,19.983 4.415,19.117 3.762 C 18.307 3.152,17.472 2.920,16.526 3.043 M17.596 5.145 C 18.036 5.359,18.485 5.907,18.737 6.536 C 19.038 7.288,19.077 8.398,18.832 9.199 C 18.599 9.957,18.094 10.627,17.567 10.874 C 17.377 10.963,17.285 10.980,16.999 10.980 C 16.695 10.980,16.630 10.966,16.393 10.850 C 15.810 10.562,15.287 9.783,15.089 8.905 C 15.001 8.514,15.001 7.486,15.089 7.095 C 15.316 6.090,15.955 5.245,16.635 5.053 C 16.913 4.974,17.325 5.014,17.596 5.145 " stroke="none" fill-rule="evenodd" fill="black"></path></svg>