<svg xmlns="http://www.w3.org/2000/svg" width="24" height="24" viewBox="0 0 24 24" fill="none" stroke="currentColor" stroke-width="2" stroke-linecap="round" stroke-linejoin="round"><path d="M2.695 3.057 C 2.466 3.129,2.256 3.299,2.128 3.516 C 2.037 3.672,2.020 3.746,2.020 4.000 C 2.020 4.256,2.036 4.328,2.131 4.489 C 2.256 4.702,2.449 4.864,2.670 4.943 C 2.893 5.023,21.107 5.023,21.330 4.943 C 21.551 4.864,21.744 4.702,21.869 4.489 C 21.964 4.328,21.980 4.256,21.980 4.000 C 21.980 3.746,21.963 3.672,21.872 3.516 C 21.740 3.293,21.533 3.128,21.290 3.055 C 21.027 2.976,2.947 2.978,2.695 3.057 M5.695 7.057 C 5.466 7.129,5.256 7.299,5.128 7.516 C 5.037 7.672,5.020 7.746,5.020 8.000 C 5.020 8.256,5.036 8.328,5.131 8.489 C 5.256 8.702,5.449 8.864,5.670 8.943 C 5.893 9.022,20.107 9.022,20.330 8.943 C 20.551 8.864,20.744 8.702,20.869 8.489 C 20.964 8.328,20.980 8.256,20.980 8.000 C 20.980 7.746,20.963 7.672,20.872 7.516 C 20.740 7.293,20.533 7.128,20.290 7.055 C 20.027 6.976,5.947 6.978,5.695 7.057 M3.695 11.057 C 3.466 11.129,3.256 11.299,3.128 11.516 C 3.037 11.672,3.020 11.746,3.020 12.000 C 3.020 12.256,3.036 12.328,3.131 12.489 C 3.256 12.702,3.449 12.864,3.670 12.943 C 3.793 12.987,4.938 12.996,10.000 12.996 C 15.062 12.996,16.207 12.987,16.330 12.943 C 16.551 12.864,16.744 12.702,16.869 12.489 C 16.964 12.328,16.980 12.256,16.980 12.000 C 16.980 11.746,16.963 11.672,16.872 11.516 C 16.740 11.293,16.533 11.128,16.290 11.055 C 16.028 10.976,3.947 10.978,3.695 11.057 M6.695 15.057 C 6.466 15.129,6.256 15.299,6.128 15.516 C 6.037 15.672,6.020 15.746,6.020 16.000 C 6.020 16.256,6.036 16.328,6.131 16.489 C 6.256 16.702,6.449 16.864,6.670 16.943 C 6.891 17.022,13.109 17.022,13.330 16.943 C 13.551 16.864,13.744 16.702,13.869 16.489 C 13.964 16.328,13.980 16.256,13.980 16.000 C 13.980 15.746,13.963 15.672,13.872 15.516 C 13.740 15.293,13.533 15.128,13.290 15.055 C 13.030 14.977,6.945 14.979,6.695 15.057 M10.695 19.057 C 10.466 19.129,10.256 19.299,10.128 19.516 C 10.037 19.672,10.020 19.746,10.020 20.000 C 10.020 20.256,10.036 20.328,10.131 20.489 C 10.256 20.702,10.449 20.864,10.670 20.943 C 10.889 21.021,15.111 21.021,15.330 20.943 C 15.551 20.864,15.744 20.702,15.869 20.489 C 15.964 20.328,15.980 20.256,15.980 20.000 C 15.980 19.746,15.963 19.672,15.872 19.516 C 15.740 19.293,15.533 19.128,15.290 19.055 C 15.033 18.978,10.943 18.979,10.695 19.057 " stroke="none" fill-rule="evenodd" fill="black"></path></svg>