<svg xmlns="http://www.w3.org/2000/svg" width="24" height="24" viewBox="0 0 24 24" fill="none" stroke="currentColor" stroke-width="2" stroke-linecap="round" stroke-linejoin="round"><path d="M14.640 3.070 C 14.498 3.120,14.308 3.283,13.732 3.852 L 13.004 4.570 12.758 4.347 C 12.395 4.019,12.055 3.928,11.684 4.058 C 11.450 4.141,11.253 4.303,11.128 4.516 C 11.036 4.672,11.020 4.745,11.021 5.000 C 11.022 5.354,11.076 5.476,11.373 5.790 L 11.575 6.004 10.540 7.040 L 9.504 8.077 9.293 7.877 C 9.018 7.617,8.806 7.522,8.498 7.521 C 7.864 7.519,7.398 8.086,7.528 8.702 C 7.576 8.927,7.658 9.063,7.906 9.321 L 8.079 9.502 7.043 10.537 L 6.007 11.573 5.756 11.346 C 5.400 11.024,5.095 10.939,4.710 11.055 C 4.467 11.128,4.260 11.293,4.128 11.516 C 4.036 11.672,4.020 11.745,4.021 12.000 C 4.022 12.354,4.076 12.476,4.372 12.789 L 4.574 13.003 3.872 13.711 C 3.486 14.101,3.136 14.483,3.096 14.560 C 3.043 14.660,3.021 14.787,3.021 15.000 C 3.020 15.258,3.036 15.327,3.133 15.492 C 3.263 15.714,3.502 15.901,3.736 15.965 C 3.939 16.019,4.267 15.989,4.445 15.899 C 4.519 15.861,4.900 15.513,5.291 15.126 L 6.001 14.422 7.790 16.210 L 9.578 17.999 8.874 18.709 C 8.487 19.100,8.136 19.483,8.096 19.560 C 8.043 19.660,8.021 19.787,8.021 20.000 C 8.020 20.258,8.036 20.327,8.133 20.492 C 8.263 20.714,8.502 20.901,8.736 20.965 C 8.939 21.019,9.267 20.989,9.445 20.899 C 9.519 20.861,9.899 20.514,10.289 20.128 L 10.997 19.426 11.211 19.628 C 11.477 19.879,11.632 19.961,11.895 19.988 C 12.295 20.029,12.662 19.842,12.867 19.492 C 12.964 19.327,12.980 19.258,12.979 19.000 C 12.978 18.646,12.924 18.524,12.627 18.210 L 12.425 17.996 13.461 16.959 L 14.498 15.921 14.679 16.094 C 14.943 16.347,15.079 16.429,15.301 16.468 C 16.017 16.595,16.593 16.021,16.470 15.303 C 16.432 15.083,16.348 14.944,16.094 14.679 L 15.921 14.498 16.959 13.461 L 17.996 12.425 18.210 12.627 C 18.477 12.879,18.632 12.961,18.895 12.988 C 19.295 13.029,19.662 12.842,19.867 12.492 C 19.964 12.327,19.980 12.258,19.979 12.000 C 19.978 11.646,19.924 11.524,19.628 11.211 L 19.426 10.997 20.128 10.289 C 20.514 9.899,20.864 9.517,20.904 9.440 C 20.957 9.340,20.979 9.213,20.979 9.000 C 20.980 8.745,20.964 8.672,20.872 8.516 C 20.617 8.083,20.135 7.905,19.657 8.067 C 19.491 8.123,19.345 8.247,18.728 8.855 L 17.997 9.577 16.209 7.789 L 14.422 6.001 15.126 5.291 C 15.513 4.900,15.864 4.517,15.904 4.440 C 15.957 4.340,15.979 4.213,15.979 4.000 C 15.980 3.745,15.964 3.672,15.872 3.516 C 15.617 3.082,15.118 2.901,14.640 3.070 M14.800 9.220 L 16.580 11.000 15.540 12.040 L 14.500 13.080 12.710 11.290 L 10.920 9.500 11.950 8.470 C 12.516 7.904,12.989 7.440,13.000 7.440 C 13.011 7.440,13.821 8.241,14.800 9.220 M12.040 15.540 L 11.000 16.580 9.210 14.790 L 7.420 13.000 8.460 11.960 L 9.500 10.920 11.290 12.710 L 13.080 14.500 12.040 15.540 " stroke="none" fill-rule="evenodd" fill="black"></path></svg>