<svg xmlns="http://www.w3.org/2000/svg" width="24" height="24" viewBox="0 0 24 24" fill="none" stroke="currentColor" stroke-width="2" stroke-linecap="round" stroke-linejoin="round"><path d="M10.664 4.062 C 10.440 4.145,10.256 4.297,10.145 4.491 C 10.093 4.584,8.975 7.886,7.661 11.830 L 5.273 19.000 4.583 19.000 C 3.822 19.000,3.624 19.036,3.382 19.221 C 3.302 19.282,3.187 19.415,3.128 19.516 C 3.037 19.672,3.020 19.746,3.020 20.000 C 3.020 20.256,3.036 20.328,3.131 20.489 C 3.256 20.702,3.449 20.864,3.670 20.943 C 3.893 21.022,20.107 21.022,20.330 20.943 C 20.551 20.864,20.744 20.702,20.869 20.489 C 20.964 20.328,20.980 20.256,20.980 20.000 C 20.980 19.746,20.963 19.672,20.872 19.516 C 20.813 19.415,20.698 19.282,20.618 19.221 C 20.376 19.036,20.178 19.000,19.417 19.000 L 18.727 19.000 16.319 11.777 C 14.353 5.880,13.888 4.524,13.785 4.389 C 13.716 4.299,13.570 4.178,13.461 4.122 L 13.262 4.020 12.041 4.012 C 11.056 4.006,10.790 4.015,10.664 4.062 M12.773 7.500 L 13.274 9.000 12.000 9.000 L 10.726 9.000 11.227 7.500 L 11.727 6.000 12.000 6.000 L 12.273 6.000 12.773 7.500 M14.430 12.471 C 14.700 13.279,14.920 13.954,14.920 13.971 C 14.920 13.987,13.606 14.000,12.000 14.000 C 10.394 14.000,9.080 13.987,9.080 13.971 C 9.080 13.954,9.300 13.279,9.570 12.471 L 10.059 11.000 12.000 11.000 L 13.941 11.000 14.430 12.471 M16.087 17.440 C 16.347 18.221,16.571 18.892,16.583 18.930 C 16.604 18.996,16.368 19.000,12.003 19.000 C 9.471 19.000,7.400 18.995,7.400 18.989 C 7.400 18.978,8.347 16.135,8.379 16.050 C 8.394 16.010,9.140 16.002,12.005 16.010 L 15.613 16.020 16.087 17.440 " stroke="none" fill-rule="evenodd" fill="black"></path></svg>