<svg xmlns="http://www.w3.org/2000/svg" width="24" height="24" viewBox="0 0 24 24" fill="none" stroke="currentColor" stroke-width="2" stroke-linecap="round" stroke-linejoin="round"><path d="M2.580 5.094 C 2.339 5.210,2.192 5.359,2.083 5.600 C 2.003 5.777,2.002 5.839,2.003 9.980 C 2.003 13.490,2.013 14.206,2.060 14.338 C 2.109 14.477,2.108 14.520,2.053 14.691 C 1.881 15.215,2.200 15.820,2.723 15.961 C 2.823 15.988,5.678 15.998,11.227 15.991 L 19.580 15.980 19.860 15.886 C 20.851 15.554,21.582 14.816,21.886 13.840 C 21.970 13.573,21.980 13.466,21.977 12.860 C 21.974 12.086,21.908 11.633,21.697 10.935 C 21.280 9.553,20.472 8.371,19.302 7.429 C 18.743 6.979,18.279 6.686,17.580 6.342 C 16.204 5.665,14.840 5.302,12.820 5.075 C 12.554 5.045,10.806 5.024,7.600 5.014 L 2.780 4.998 2.580 5.094 M7.000 8.500 L 7.000 10.000 5.500 10.000 L 4.000 10.000 4.000 8.500 L 4.000 7.000 5.500 7.000 L 7.000 7.000 7.000 8.500 M11.790 7.026 L 12.000 7.051 12.000 8.526 L 12.000 10.000 10.500 10.000 L 9.000 10.000 9.000 8.500 L 9.000 7.000 10.290 7.000 C 11.000 7.001,11.675 7.012,11.790 7.026 M14.720 7.423 C 16.040 7.755,17.067 8.226,17.943 8.904 C 18.255 9.145,19.000 9.893,19.000 9.965 C 19.000 9.985,17.927 10.000,16.500 10.000 L 14.000 10.000 14.000 8.640 C 14.000 7.331,14.003 7.280,14.076 7.280 C 14.118 7.280,14.408 7.344,14.720 7.423 M19.933 12.190 C 19.999 12.729,20.004 13.105,19.948 13.286 C 19.871 13.534,19.707 13.740,19.484 13.872 L 19.300 13.980 11.650 13.990 L 4.000 14.001 4.000 13.000 L 4.000 12.000 11.955 12.000 L 19.910 12.000 19.933 12.190 M2.695 18.057 C 2.466 18.129,2.256 18.299,2.128 18.516 C 2.037 18.672,2.020 18.746,2.020 19.000 C 2.020 19.256,2.036 19.328,2.131 19.489 C 2.256 19.702,2.449 19.864,2.670 19.943 C 2.893 20.023,21.107 20.023,21.330 19.943 C 21.551 19.864,21.744 19.702,21.869 19.489 C 21.964 19.328,21.980 19.256,21.980 19.000 C 21.980 18.746,21.963 18.672,21.872 18.516 C 21.740 18.293,21.533 18.128,21.290 18.055 C 21.027 17.976,2.947 17.978,2.695 18.057 " stroke="none" fill-rule="evenodd" fill="black"></path></svg>