<svg xmlns="http://www.w3.org/2000/svg" width="24" height="24" viewBox="0 0 24 24" fill="none" stroke="currentColor" stroke-width="2" stroke-linecap="round" stroke-linejoin="round"><path d="M4.499 2.040 C 3.363 2.246,2.460 3.049,2.114 4.160 C 1.979 4.594,1.979 5.406,2.114 5.840 C 2.421 6.826,3.174 7.579,4.160 7.886 C 4.628 8.032,5.521 8.015,5.943 7.854 C 5.992 7.834,6.000 8.209,6.000 10.599 C 6.000 13.239,6.004 13.386,6.083 13.773 C 6.357 15.118,7.249 16.195,8.512 16.704 C 9.081 16.933,9.514 17.000,10.406 16.998 C 11.239 16.996,11.370 16.973,11.619 16.783 C 11.696 16.725,11.808 16.592,11.869 16.489 C 11.964 16.328,11.980 16.256,11.980 16.000 C 11.980 15.746,11.963 15.672,11.872 15.516 C 11.813 15.415,11.698 15.282,11.618 15.221 C 11.376 15.037,11.177 15.000,10.422 15.000 C 9.682 15.000,9.434 14.960,9.083 14.781 C 8.816 14.646,8.449 14.297,8.281 14.017 C 7.996 13.545,8.005 13.677,8.002 9.630 L 8.000 6.000 11.073 6.000 L 14.147 6.000 14.312 6.330 C 14.682 7.069,15.355 7.635,16.160 7.886 C 16.594 8.021,17.406 8.021,17.840 7.886 C 18.826 7.579,19.579 6.826,19.886 5.840 C 20.021 5.406,20.021 4.594,19.886 4.160 C 19.581 3.181,18.822 2.418,17.861 2.125 C 17.588 2.042,17.458 2.027,17.000 2.027 C 16.542 2.027,16.412 2.042,16.139 2.125 C 15.358 2.363,14.679 2.938,14.312 3.670 L 14.147 4.000 11.000 4.000 L 7.853 4.000 7.688 3.670 C 7.320 2.935,6.631 2.354,5.861 2.129 C 5.500 2.023,4.832 1.980,4.499 2.040 M5.310 4.061 C 5.688 4.173,6.000 4.598,6.000 5.001 C 6.000 5.331,5.784 5.696,5.484 5.872 C 5.328 5.963,5.254 5.980,5.000 5.980 C 4.746 5.980,4.672 5.963,4.516 5.872 C 3.935 5.530,3.833 4.774,4.304 4.303 C 4.583 4.024,4.916 3.944,5.310 4.061 M17.310 4.061 C 17.688 4.173,18.000 4.598,18.000 5.001 C 18.000 5.331,17.784 5.696,17.484 5.872 C 17.328 5.963,17.254 5.980,17.000 5.980 C 16.746 5.980,16.672 5.963,16.516 5.872 C 15.932 5.528,15.831 4.775,16.307 4.299 C 16.582 4.024,16.918 3.944,17.310 4.061 M14.650 11.066 C 14.171 11.236,13.882 11.844,14.054 12.320 C 14.082 12.397,14.486 13.032,14.953 13.730 L 15.801 15.000 15.347 15.000 C 14.657 15.000,14.357 15.127,14.128 15.516 C 14.037 15.672,14.020 15.746,14.020 16.000 C 14.020 16.256,14.036 16.328,14.131 16.489 C 14.192 16.592,14.304 16.725,14.381 16.783 C 14.643 16.983,14.738 16.996,15.910 16.998 L 17.000 17.000 17.000 17.500 L 17.000 18.000 15.946 18.000 C 14.797 18.000,14.644 18.022,14.382 18.221 C 14.302 18.282,14.187 18.415,14.128 18.516 C 14.037 18.672,14.020 18.746,14.020 19.000 C 14.020 19.256,14.036 19.328,14.131 19.489 C 14.192 19.592,14.304 19.725,14.381 19.783 C 14.642 19.983,14.738 19.996,15.907 19.998 L 16.993 20.000 17.007 20.653 C 17.020 21.300,17.021 21.308,17.141 21.503 C 17.543 22.156,18.457 22.156,18.859 21.503 C 18.979 21.308,18.980 21.300,18.993 20.653 L 19.007 20.000 20.093 19.998 C 21.262 19.996,21.358 19.983,21.619 19.783 C 21.696 19.725,21.808 19.592,21.869 19.489 C 21.964 19.328,21.980 19.256,21.980 19.000 C 21.980 18.746,21.963 18.672,21.872 18.516 C 21.813 18.415,21.698 18.282,21.618 18.221 C 21.356 18.022,21.203 18.000,20.054 18.000 L 19.000 18.000 19.000 17.500 L 19.000 17.000 20.090 16.998 C 21.262 16.996,21.357 16.983,21.619 16.783 C 21.696 16.725,21.808 16.592,21.869 16.489 C 21.964 16.328,21.980 16.256,21.980 16.000 C 21.980 15.746,21.963 15.672,21.872 15.516 C 21.643 15.127,21.343 15.000,20.653 15.000 L 20.199 15.000 21.043 13.735 C 21.507 13.040,21.912 12.399,21.943 12.310 C 22.211 11.551,21.442 10.791,20.678 11.061 C 20.583 11.094,20.450 11.164,20.383 11.215 C 20.315 11.267,19.756 12.067,19.140 12.993 C 18.524 13.920,18.011 14.678,18.000 14.678 C 17.989 14.678,17.476 13.920,16.860 12.993 C 16.244 12.067,15.685 11.267,15.617 11.215 C 15.346 11.008,14.976 10.951,14.650 11.066 " stroke="none" fill-rule="evenodd" fill="black"></path></svg>