<svg xmlns="http://www.w3.org/2000/svg" width="24" height="24" viewBox="0 0 24 24" fill="none" stroke="currentColor" stroke-width="2" stroke-linecap="round" stroke-linejoin="round"><path d="M4.499 2.040 C 3.363 2.246,2.460 3.049,2.114 4.160 C 1.979 4.594,1.979 5.406,2.114 5.840 C 2.421 6.826,3.174 7.579,4.160 7.886 C 4.628 8.032,5.521 8.015,5.943 7.854 C 5.992 7.834,6.000 8.209,6.000 10.599 C 6.000 13.239,6.004 13.386,6.083 13.773 C 6.357 15.118,7.249 16.195,8.512 16.704 C 9.081 16.933,9.514 17.000,10.406 16.998 C 11.239 16.996,11.370 16.973,11.619 16.783 C 11.696 16.725,11.808 16.592,11.869 16.489 C 11.964 16.328,11.980 16.256,11.980 16.000 C 11.980 15.746,11.963 15.672,11.872 15.516 C 11.813 15.415,11.698 15.282,11.618 15.221 C 11.376 15.037,11.177 15.000,10.422 15.000 C 9.682 15.000,9.434 14.960,9.083 14.781 C 8.816 14.646,8.449 14.297,8.281 14.017 C 7.996 13.545,8.005 13.677,8.002 9.630 L 8.000 6.000 11.073 6.000 L 14.147 6.000 14.312 6.330 C 14.682 7.069,15.355 7.635,16.160 7.886 C 16.594 8.021,17.406 8.021,17.840 7.886 C 18.826 7.579,19.579 6.826,19.886 5.840 C 20.021 5.406,20.021 4.594,19.886 4.160 C 19.581 3.181,18.822 2.418,17.861 2.125 C 17.588 2.042,17.458 2.027,17.000 2.027 C 16.542 2.027,16.412 2.042,16.139 2.125 C 15.358 2.363,14.679 2.938,14.312 3.670 L 14.147 4.000 11.000 4.000 L 7.853 4.000 7.688 3.670 C 7.320 2.935,6.631 2.354,5.861 2.129 C 5.500 2.023,4.832 1.980,4.499 2.040 M5.310 4.061 C 5.688 4.173,6.000 4.598,6.000 5.001 C 6.000 5.331,5.784 5.696,5.484 5.872 C 5.328 5.963,5.254 5.980,5.000 5.980 C 4.746 5.980,4.672 5.963,4.516 5.872 C 3.935 5.530,3.833 4.774,4.304 4.303 C 4.583 4.024,4.916 3.944,5.310 4.061 M17.310 4.061 C 17.688 4.173,18.000 4.598,18.000 5.001 C 18.000 5.331,17.784 5.696,17.484 5.872 C 17.328 5.963,17.254 5.980,17.000 5.980 C 16.746 5.980,16.672 5.963,16.516 5.872 C 15.932 5.528,15.831 4.775,16.307 4.299 C 16.582 4.024,16.918 3.944,17.310 4.061 M14.650 11.066 C 14.171 11.236,13.882 11.844,14.054 12.320 C 14.082 12.397,14.630 13.247,15.272 14.210 C 15.915 15.172,16.440 15.968,16.440 15.980 C 16.440 15.991,16.092 16.000,15.666 16.000 C 14.817 16.000,14.630 16.032,14.382 16.221 C 14.302 16.282,14.187 16.415,14.128 16.516 C 14.037 16.672,14.020 16.746,14.020 17.000 C 14.020 17.256,14.036 17.328,14.131 17.489 C 14.192 17.592,14.304 17.725,14.381 17.783 C 14.642 17.983,14.738 17.996,15.908 17.998 L 16.997 18.000 17.008 19.653 L 17.020 21.306 17.141 21.503 C 17.543 22.156,18.457 22.156,18.859 21.503 L 18.980 21.306 18.992 19.653 L 19.003 18.000 20.092 17.998 C 21.262 17.996,21.358 17.983,21.619 17.783 C 21.696 17.725,21.808 17.592,21.869 17.489 C 21.964 17.328,21.980 17.256,21.980 17.000 C 21.980 16.746,21.963 16.672,21.872 16.516 C 21.813 16.415,21.698 16.282,21.618 16.221 C 21.370 16.032,21.183 16.000,20.334 16.000 C 19.908 16.000,19.560 15.991,19.560 15.980 C 19.560 15.968,20.084 15.174,20.724 14.215 C 21.363 13.255,21.912 12.398,21.944 12.310 C 22.211 11.551,21.442 10.791,20.678 11.061 C 20.583 11.094,20.450 11.164,20.383 11.215 C 20.315 11.267,19.756 12.067,19.140 12.993 C 18.524 13.920,18.011 14.678,18.000 14.678 C 17.989 14.678,17.476 13.920,16.860 12.993 C 16.244 12.067,15.685 11.267,15.617 11.215 C 15.346 11.008,14.976 10.951,14.650 11.066 " stroke="none" fill-rule="evenodd" fill="black"></path></svg>