<svg xmlns="http://www.w3.org/2000/svg" width="24" height="24" viewBox="0 0 24 24" fill="none" stroke="currentColor" stroke-width="2" stroke-linecap="round" stroke-linejoin="round"><path d="M5.358 2.061 C 3.725 2.316,2.421 3.580,2.079 5.241 C 1.959 5.826,1.980 6.241,2.144 6.508 C 2.539 7.150,3.458 7.154,3.851 6.515 C 3.943 6.366,3.972 6.258,4.001 5.955 C 4.047 5.473,4.122 5.230,4.314 4.937 C 4.508 4.642,4.712 4.446,5.014 4.265 C 5.479 3.986,5.108 4.000,12.028 4.002 C 17.786 4.004,18.280 4.010,18.523 4.073 C 19.047 4.210,19.552 4.629,19.797 5.129 C 19.911 5.362,19.945 5.522,20.021 6.165 C 20.051 6.412,20.236 6.694,20.465 6.839 C 20.938 7.139,21.558 6.992,21.856 6.508 C 21.956 6.345,21.977 6.264,21.991 5.988 C 22.021 5.393,21.784 4.540,21.421 3.932 C 20.834 2.949,19.756 2.232,18.605 2.058 C 18.059 1.976,5.887 1.979,5.358 2.061 M11.580 6.096 C 11.424 6.171,11.029 6.545,9.774 7.806 C 8.891 8.694,8.135 9.483,8.095 9.560 C 8.043 9.659,8.021 9.788,8.021 10.000 C 8.020 10.258,8.036 10.327,8.133 10.492 C 8.263 10.714,8.502 10.901,8.736 10.965 C 8.939 11.019,9.267 10.989,9.445 10.899 C 9.519 10.861,9.900 10.514,10.290 10.127 L 11.000 9.423 11.000 11.711 L 11.000 14.000 8.390 14.000 C 5.600 14.000,5.300 14.017,4.755 14.204 C 3.847 14.515,3.028 15.170,2.569 15.953 C 1.696 17.441,1.848 19.269,2.954 20.584 C 3.529 21.266,4.331 21.735,5.243 21.921 C 5.622 21.998,5.805 22.000,12.000 22.000 C 18.195 22.000,18.378 21.998,18.757 21.921 C 20.117 21.643,21.193 20.755,21.704 19.488 C 21.994 18.769,22.070 17.977,21.921 17.243 C 21.628 15.806,20.637 14.680,19.245 14.204 C 18.700 14.017,18.400 14.000,15.610 14.000 L 13.000 14.000 13.000 11.711 L 13.000 9.423 13.710 10.127 C 14.101 10.514,14.483 10.864,14.560 10.904 C 14.660 10.957,14.787 10.979,15.000 10.979 C 15.258 10.980,15.327 10.964,15.492 10.867 C 15.714 10.737,15.901 10.498,15.965 10.264 C 16.019 10.061,15.989 9.733,15.899 9.555 C 15.862 9.481,15.109 8.694,14.226 7.806 C 12.472 6.043,12.420 6.001,12.000 6.001 C 11.851 6.001,11.716 6.031,11.580 6.096 M18.523 16.073 C 19.262 16.266,19.850 16.924,19.967 17.690 C 20.067 18.343,19.873 18.933,19.403 19.404 C 19.118 19.690,18.853 19.846,18.492 19.940 C 18.147 20.030,5.853 20.030,5.508 19.940 C 5.174 19.853,4.918 19.711,4.653 19.465 C 3.665 18.547,3.829 16.981,4.987 16.279 C 5.469 15.987,5.021 16.005,12.000 16.005 C 17.789 16.005,18.280 16.010,18.523 16.073 " stroke="none" fill-rule="evenodd" fill="black"></path></svg>