<svg xmlns="http://www.w3.org/2000/svg" width="24" height="24" viewBox="0 0 24 24" fill="none" stroke="currentColor" stroke-width="2" stroke-linecap="round" stroke-linejoin="round"><path d="M4.499 2.040 C 3.363 2.246,2.460 3.049,2.114 4.160 C 1.979 4.594,1.979 5.406,2.114 5.840 C 2.421 6.826,3.174 7.579,4.160 7.886 C 4.628 8.032,5.521 8.015,5.943 7.854 C 5.992 7.834,6.000 8.209,6.000 10.599 C 6.000 13.239,6.004 13.386,6.083 13.773 C 6.357 15.118,7.249 16.195,8.512 16.704 C 9.081 16.933,9.514 17.000,10.406 16.998 C 11.239 16.996,11.370 16.973,11.619 16.783 C 11.696 16.725,11.808 16.592,11.869 16.489 C 11.964 16.328,11.980 16.256,11.980 16.000 C 11.980 15.746,11.963 15.672,11.872 15.516 C 11.813 15.415,11.698 15.282,11.618 15.221 C 11.376 15.037,11.177 15.000,10.422 15.000 C 9.682 15.000,9.434 14.960,9.083 14.781 C 8.816 14.646,8.449 14.297,8.281 14.017 C 7.996 13.545,8.005 13.677,8.002 9.630 L 8.000 6.000 11.073 6.000 L 14.147 6.000 14.312 6.330 C 14.682 7.069,15.355 7.635,16.160 7.886 C 16.594 8.021,17.406 8.021,17.840 7.886 C 18.826 7.579,19.579 6.826,19.886 5.840 C 20.021 5.406,20.021 4.594,19.886 4.160 C 19.581 3.181,18.822 2.418,17.861 2.125 C 17.588 2.042,17.458 2.027,17.000 2.027 C 16.542 2.027,16.412 2.042,16.139 2.125 C 15.358 2.363,14.679 2.938,14.312 3.670 L 14.147 4.000 11.000 4.000 L 7.853 4.000 7.688 3.670 C 7.320 2.935,6.631 2.354,5.861 2.129 C 5.500 2.023,4.832 1.980,4.499 2.040 M5.310 4.061 C 5.688 4.173,6.000 4.598,6.000 5.001 C 6.000 5.331,5.784 5.696,5.484 5.872 C 5.328 5.963,5.254 5.980,5.000 5.980 C 4.746 5.980,4.672 5.963,4.516 5.872 C 3.935 5.530,3.833 4.774,4.304 4.303 C 4.583 4.024,4.916 3.944,5.310 4.061 M17.310 4.061 C 17.688 4.173,18.000 4.598,18.000 5.001 C 18.000 5.331,17.784 5.696,17.484 5.872 C 17.328 5.963,17.254 5.980,17.000 5.980 C 16.746 5.980,16.672 5.963,16.516 5.872 C 15.932 5.528,15.831 4.775,16.307 4.299 C 16.582 4.024,16.918 3.944,17.310 4.061 M18.642 11.041 C 17.392 11.216,16.242 12.113,15.588 13.423 C 15.423 13.753,15.179 14.460,15.140 14.723 C 15.125 14.824,15.101 14.924,15.086 14.944 C 15.072 14.965,14.952 15.004,14.820 15.031 C 14.089 15.180,13.765 15.993,14.198 16.591 C 14.350 16.801,14.617 16.956,14.877 16.987 C 15.042 17.007,15.085 17.027,15.099 17.096 C 15.179 17.466,15.268 17.786,15.363 18.047 C 16.047 19.912,17.619 21.081,19.316 20.988 C 20.189 20.940,21.010 20.578,21.634 19.963 C 21.918 19.683,22.022 19.429,21.988 19.099 C 21.961 18.838,21.882 18.680,21.673 18.478 C 21.420 18.232,21.003 18.138,20.680 18.254 C 20.603 18.281,20.383 18.424,20.192 18.570 C 19.672 18.967,19.236 19.078,18.729 18.943 C 18.197 18.801,17.713 18.352,17.385 17.695 C 17.269 17.461,17.120 17.082,17.120 17.019 C 17.120 17.008,17.584 16.999,18.150 16.998 C 19.258 16.996,19.359 16.981,19.619 16.783 C 19.696 16.725,19.808 16.592,19.869 16.489 C 19.964 16.328,19.980 16.256,19.980 16.000 C 19.980 15.746,19.963 15.672,19.872 15.516 C 19.813 15.415,19.698 15.282,19.618 15.221 C 19.359 15.024,19.199 15.000,18.114 15.000 C 17.567 15.000,17.120 14.992,17.120 14.981 C 17.120 14.918,17.269 14.539,17.385 14.305 C 17.843 13.388,18.581 12.906,19.337 13.031 C 19.670 13.086,19.899 13.195,20.215 13.449 C 20.535 13.708,20.646 13.762,20.900 13.789 C 21.622 13.863,22.169 13.172,21.939 12.475 C 21.777 11.986,20.853 11.333,20.020 11.120 C 19.650 11.025,19.014 10.989,18.642 11.041 " stroke="none" fill-rule="evenodd" fill="black"></path></svg>