<svg xmlns="http://www.w3.org/2000/svg" width="24" height="24" viewBox="0 0 24 24" fill="none" stroke="currentColor" stroke-width="2" stroke-linecap="round" stroke-linejoin="round"><path d="M9.695 3.057 C 9.466 3.129,9.256 3.299,9.128 3.516 L 9.020 3.700 9.000 10.704 L 8.980 17.708 6.780 15.689 C 5.484 14.500,4.514 13.640,4.420 13.596 C 4.227 13.506,3.816 13.496,3.626 13.575 C 3.043 13.819,2.820 14.578,3.187 15.070 C 3.361 15.303,9.355 20.775,9.551 20.880 C 9.828 21.028,10.227 21.023,10.492 20.867 C 10.709 20.739,10.901 20.498,10.960 20.278 C 10.987 20.180,10.997 17.333,10.990 11.914 L 10.980 3.700 10.872 3.516 C 10.628 3.101,10.150 2.915,9.695 3.057 M13.695 3.057 C 13.466 3.129,13.256 3.299,13.128 3.516 L 13.020 3.700 13.020 12.003 L 13.020 20.306 13.141 20.503 C 13.543 21.156,14.457 21.156,14.859 20.503 L 14.980 20.306 15.000 13.299 L 15.020 6.292 17.220 8.311 C 18.688 9.658,19.478 10.356,19.595 10.409 C 19.811 10.507,20.164 10.513,20.382 10.422 C 20.949 10.186,21.174 9.438,20.828 8.945 C 20.765 8.855,16.010 4.469,14.762 3.349 C 14.399 3.024,14.080 2.937,13.695 3.057 " stroke="none" fill-rule="evenodd" fill="black"></path></svg>