<svg xmlns="http://www.w3.org/2000/svg" width="24" height="24" viewBox="0 0 24 24" fill="none" stroke="currentColor" stroke-width="2" stroke-linecap="round" stroke-linejoin="round"><path d="M9.190 3.054 C 9.108 3.085,8.995 3.140,8.939 3.177 C 8.755 3.297,3.224 9.356,3.120 9.551 C 2.973 9.827,2.977 10.228,3.131 10.489 C 3.256 10.702,3.449 10.864,3.670 10.943 C 3.893 11.022,20.107 11.022,20.330 10.943 C 20.551 10.864,20.744 10.702,20.869 10.489 C 20.964 10.328,20.980 10.256,20.980 10.000 C 20.980 9.746,20.963 9.672,20.872 9.516 C 20.761 9.328,20.572 9.158,20.373 9.070 C 20.284 9.031,18.745 9.016,13.276 9.000 L 6.292 8.980 8.311 6.780 C 9.658 5.312,10.356 4.522,10.409 4.405 C 10.567 4.056,10.490 3.600,10.228 3.326 C 9.964 3.051,9.514 2.934,9.190 3.054 M3.695 13.057 C 3.051 13.258,2.799 14.040,3.198 14.591 C 3.263 14.681,3.403 14.805,3.508 14.867 L 3.700 14.980 10.704 15.000 L 17.708 15.020 15.689 17.220 C 14.342 18.688,13.644 19.478,13.591 19.595 C 13.493 19.811,13.487 20.164,13.578 20.382 C 13.821 20.963,14.574 21.181,15.070 20.812 C 15.301 20.641,20.775 14.646,20.880 14.449 C 21.026 14.176,21.022 13.772,20.872 13.516 C 20.740 13.293,20.533 13.128,20.290 13.055 C 20.027 12.976,3.947 12.978,3.695 13.057 " stroke="none" fill-rule="evenodd" fill="black"></path></svg>