<svg xmlns="http://www.w3.org/2000/svg" width="24" height="24" viewBox="0 0 24 24" fill="none" stroke="currentColor" stroke-width="2" stroke-linecap="round" stroke-linejoin="round"><path d="M4.499 2.040 C 3.363 2.246,2.460 3.049,2.114 4.160 C 1.979 4.594,1.979 5.406,2.114 5.840 C 2.421 6.826,3.174 7.579,4.160 7.886 C 4.628 8.032,5.521 8.015,5.943 7.854 C 5.992 7.834,6.000 8.209,6.000 10.599 C 6.000 13.239,6.004 13.386,6.083 13.773 C 6.357 15.118,7.249 16.195,8.512 16.704 C 9.081 16.933,9.514 17.000,10.406 16.998 C 11.239 16.996,11.370 16.973,11.619 16.783 C 11.696 16.725,11.808 16.592,11.869 16.489 C 11.964 16.328,11.980 16.256,11.980 16.000 C 11.980 15.746,11.963 15.672,11.872 15.516 C 11.813 15.415,11.698 15.282,11.618 15.221 C 11.376 15.037,11.177 15.000,10.422 15.000 C 9.682 15.000,9.434 14.960,9.083 14.781 C 8.816 14.646,8.449 14.297,8.281 14.017 C 7.996 13.545,8.005 13.677,8.002 9.630 L 8.000 6.000 11.073 6.000 L 14.147 6.000 14.312 6.330 C 14.682 7.069,15.355 7.635,16.160 7.886 C 16.594 8.021,17.406 8.021,17.840 7.886 C 18.826 7.579,19.579 6.826,19.886 5.840 C 20.021 5.406,20.021 4.594,19.886 4.160 C 19.581 3.181,18.822 2.418,17.861 2.125 C 17.588 2.042,17.458 2.027,17.000 2.027 C 16.542 2.027,16.412 2.042,16.139 2.125 C 15.358 2.363,14.679 2.938,14.312 3.670 L 14.147 4.000 11.000 4.000 L 7.853 4.000 7.688 3.670 C 7.320 2.935,6.631 2.354,5.861 2.129 C 5.500 2.023,4.832 1.980,4.499 2.040 M5.310 4.061 C 5.688 4.173,6.000 4.598,6.000 5.001 C 6.000 5.331,5.784 5.696,5.484 5.872 C 5.328 5.963,5.254 5.980,5.000 5.980 C 4.746 5.980,4.672 5.963,4.516 5.872 C 3.935 5.530,3.833 4.774,4.304 4.303 C 4.583 4.024,4.916 3.944,5.310 4.061 M17.310 4.061 C 17.688 4.173,18.000 4.598,18.000 5.001 C 18.000 5.331,17.784 5.696,17.484 5.872 C 17.328 5.963,17.254 5.980,17.000 5.980 C 16.746 5.980,16.672 5.963,16.516 5.872 C 15.932 5.528,15.831 4.775,16.307 4.299 C 16.582 4.024,16.918 3.944,17.310 4.061 M14.695 11.057 C 14.466 11.129,14.256 11.299,14.128 11.516 C 14.037 11.672,14.020 11.746,14.020 12.000 C 14.020 12.256,14.036 12.328,14.131 12.489 C 14.192 12.592,14.304 12.725,14.381 12.783 C 14.625 12.969,14.766 12.996,15.512 12.998 C 16.324 13.000,16.640 13.057,16.986 13.265 C 17.246 13.420,17.545 13.696,17.654 13.880 L 17.725 14.000 16.309 14.000 C 14.769 14.000,14.655 14.013,14.382 14.221 C 14.302 14.282,14.187 14.415,14.128 14.516 C 14.037 14.672,14.020 14.746,14.020 15.000 C 14.020 15.256,14.036 15.328,14.131 15.489 C 14.192 15.592,14.304 15.725,14.381 15.783 C 14.651 15.990,14.710 15.996,16.272 15.998 L 17.725 16.000 17.652 16.124 C 17.546 16.306,17.143 16.667,16.917 16.781 C 16.566 16.960,16.318 17.000,15.578 17.000 C 15.113 17.000,14.834 17.018,14.710 17.055 C 14.168 17.218,13.882 17.778,14.060 18.325 C 14.126 18.525,14.241 18.651,15.735 20.153 C 16.618 21.040,17.416 21.811,17.508 21.866 C 17.968 22.138,18.587 21.968,18.867 21.492 C 18.964 21.327,18.980 21.258,18.979 21.000 C 18.979 20.787,18.957 20.660,18.905 20.560 C 18.864 20.483,18.470 20.056,18.028 19.612 C 17.354 18.932,17.238 18.799,17.303 18.776 C 18.432 18.374,19.299 17.540,19.711 16.460 C 19.778 16.284,19.843 16.108,19.855 16.070 C 19.875 16.007,19.945 16.000,20.529 15.998 C 21.231 15.996,21.378 15.967,21.619 15.783 C 21.696 15.725,21.808 15.592,21.869 15.489 C 21.964 15.328,21.980 15.256,21.980 15.000 C 21.980 14.746,21.963 14.672,21.872 14.516 C 21.760 14.326,21.568 14.155,21.373 14.072 C 21.308 14.045,20.962 14.015,20.567 14.002 L 19.873 13.980 19.781 13.720 C 19.706 13.509,19.583 13.218,19.488 13.030 C 19.480 13.013,19.857 12.999,20.327 12.998 C 21.245 12.996,21.366 12.976,21.619 12.783 C 21.696 12.725,21.808 12.592,21.869 12.489 C 21.964 12.328,21.980 12.256,21.980 12.000 C 21.980 11.746,21.963 11.672,21.872 11.516 C 21.740 11.293,21.533 11.128,21.290 11.055 C 21.030 10.977,14.945 10.979,14.695 11.057 " stroke="none" fill-rule="evenodd" fill="black"></path></svg>