<svg xmlns="http://www.w3.org/2000/svg" width="24" height="24" viewBox="0 0 24 24" fill="none" stroke="currentColor" stroke-width="2" stroke-linecap="round" stroke-linejoin="round"><path d="M11.700 2.054 C 11.612 2.084,9.713 3.022,7.480 4.138 C 4.203 5.778,3.392 6.199,3.274 6.322 C 3.012 6.597,2.994 6.714,3.008 8.090 L 3.020 9.306 3.141 9.503 C 3.543 10.156,4.457 10.156,4.859 9.503 L 4.980 9.307 4.993 8.462 L 5.006 7.617 8.503 5.869 L 12.000 4.120 15.500 5.870 L 19.000 7.620 19.000 13.810 L 19.000 20.000 12.003 20.000 L 5.007 20.000 4.993 19.350 C 4.981 18.726,4.976 18.693,4.871 18.514 C 4.730 18.275,4.485 18.096,4.214 18.035 C 3.792 17.941,3.352 18.134,3.129 18.514 L 3.020 18.700 3.020 20.000 L 3.020 21.300 3.131 21.489 C 3.256 21.702,3.449 21.864,3.670 21.943 C 3.793 21.987,5.268 21.996,12.000 21.996 C 18.732 21.996,20.207 21.987,20.330 21.943 C 20.551 21.864,20.744 21.702,20.869 21.489 L 20.980 21.300 20.990 14.082 C 21.002 5.972,21.026 6.621,20.703 6.304 C 20.568 6.171,19.757 5.752,16.418 4.087 C 11.943 1.856,12.096 1.922,11.700 2.054 M6.640 10.069 C 6.488 10.121,6.205 10.384,4.825 11.755 C 3.040 13.530,3.001 13.578,3.001 14.000 C 3.001 14.420,3.043 14.472,4.806 16.226 C 5.694 17.109,6.481 17.862,6.555 17.899 C 7.010 18.128,7.601 17.944,7.867 17.492 C 7.964 17.327,7.980 17.258,7.979 17.000 C 7.979 16.787,7.957 16.660,7.904 16.560 C 7.864 16.483,7.514 16.101,7.127 15.710 L 6.423 15.000 9.801 14.998 C 12.519 14.997,13.209 14.986,13.330 14.943 C 13.551 14.864,13.744 14.702,13.869 14.489 C 13.964 14.328,13.980 14.256,13.980 14.000 C 13.980 13.746,13.963 13.672,13.872 13.516 C 13.813 13.415,13.698 13.282,13.618 13.221 C 13.323 12.996,13.392 13.000,9.765 13.000 L 6.423 13.000 7.127 12.290 C 7.514 11.900,7.864 11.517,7.904 11.440 C 7.957 11.340,7.979 11.213,7.979 11.000 C 7.980 10.745,7.964 10.672,7.872 10.516 C 7.617 10.083,7.121 9.902,6.640 10.069 " stroke="none" fill-rule="evenodd" fill="black"></path></svg>