<svg xmlns="http://www.w3.org/2000/svg" width="24" height="24" viewBox="0 0 24 24" fill="none" stroke="currentColor" stroke-width="2" stroke-linecap="round" stroke-linejoin="round"><path d="M4.499 2.040 C 3.363 2.246,2.460 3.049,2.114 4.160 C 1.979 4.594,1.979 5.406,2.114 5.840 C 2.421 6.826,3.174 7.579,4.160 7.886 C 4.628 8.032,5.521 8.015,5.943 7.854 C 5.992 7.834,6.000 8.209,6.000 10.599 C 6.000 13.239,6.004 13.386,6.083 13.773 C 6.357 15.118,7.249 16.195,8.512 16.704 C 9.081 16.933,9.514 17.000,10.406 16.998 C 11.239 16.996,11.370 16.973,11.619 16.783 C 11.696 16.725,11.808 16.592,11.869 16.489 C 11.964 16.328,11.980 16.256,11.980 16.000 C 11.980 15.746,11.963 15.672,11.872 15.516 C 11.813 15.415,11.698 15.282,11.618 15.221 C 11.376 15.037,11.177 15.000,10.422 15.000 C 9.682 15.000,9.434 14.960,9.083 14.781 C 8.816 14.646,8.449 14.297,8.281 14.017 C 7.996 13.545,8.005 13.677,8.002 9.630 L 8.000 6.000 11.073 6.000 L 14.147 6.000 14.312 6.330 C 14.682 7.069,15.355 7.635,16.160 7.886 C 16.594 8.021,17.406 8.021,17.840 7.886 C 18.826 7.579,19.579 6.826,19.886 5.840 C 20.021 5.406,20.021 4.594,19.886 4.160 C 19.581 3.181,18.822 2.418,17.861 2.125 C 17.588 2.042,17.458 2.027,17.000 2.027 C 16.542 2.027,16.412 2.042,16.139 2.125 C 15.358 2.363,14.679 2.938,14.312 3.670 L 14.147 4.000 11.000 4.000 L 7.853 4.000 7.688 3.670 C 7.320 2.935,6.631 2.354,5.861 2.129 C 5.500 2.023,4.832 1.980,4.499 2.040 M5.310 4.061 C 5.688 4.173,6.000 4.598,6.000 5.001 C 6.000 5.331,5.784 5.696,5.484 5.872 C 5.328 5.963,5.254 5.980,5.000 5.980 C 4.746 5.980,4.672 5.963,4.516 5.872 C 3.935 5.530,3.833 4.774,4.304 4.303 C 4.583 4.024,4.916 3.944,5.310 4.061 M17.310 4.061 C 17.688 4.173,18.000 4.598,18.000 5.001 C 18.000 5.331,17.784 5.696,17.484 5.872 C 17.328 5.963,17.254 5.980,17.000 5.980 C 16.746 5.980,16.672 5.963,16.516 5.872 C 15.932 5.528,15.831 4.775,16.307 4.299 C 16.582 4.024,16.918 3.944,17.310 4.061 M18.499 11.040 C 17.373 11.244,16.478 12.034,16.116 13.140 C 16.031 13.403,16.024 13.498,16.009 14.710 L 15.993 16.000 15.443 16.000 C 14.648 16.000,14.366 16.111,14.128 16.516 C 14.037 16.672,14.020 16.746,14.020 17.000 C 14.020 17.256,14.036 17.328,14.131 17.489 C 14.256 17.702,14.449 17.864,14.670 17.943 C 14.768 17.978,15.023 17.997,15.410 17.998 C 16.066 18.000,16.037 17.984,15.945 18.290 C 15.822 18.700,15.517 18.937,15.034 18.998 C 14.870 19.019,14.686 19.055,14.625 19.078 C 14.439 19.149,14.242 19.323,14.128 19.516 C 14.037 19.672,14.020 19.746,14.020 20.000 C 14.020 20.256,14.036 20.328,14.131 20.489 C 14.256 20.702,14.449 20.864,14.670 20.943 C 14.891 21.022,21.109 21.022,21.330 20.943 C 21.551 20.864,21.744 20.702,21.869 20.489 C 21.964 20.328,21.980 20.256,21.980 20.000 C 21.980 19.746,21.963 19.672,21.872 19.516 C 21.813 19.415,21.698 19.282,21.618 19.221 C 21.340 19.010,21.248 19.000,19.474 19.000 C 18.575 19.000,17.840 18.995,17.840 18.990 C 17.841 18.985,17.867 18.894,17.899 18.789 C 17.931 18.684,17.969 18.463,17.984 18.299 L 18.011 18.000 18.596 17.998 C 18.978 17.997,19.232 17.978,19.330 17.943 C 19.551 17.864,19.744 17.702,19.869 17.489 C 19.964 17.328,19.980 17.256,19.980 17.000 C 19.980 16.746,19.963 16.672,19.872 16.516 C 19.633 16.110,19.352 16.000,18.554 16.000 L 18.000 16.000 18.000 14.947 C 18.000 13.703,18.022 13.584,18.303 13.303 C 18.486 13.120,18.763 13.000,19.000 13.000 C 19.223 13.000,19.510 13.120,19.679 13.283 C 19.886 13.485,19.951 13.636,20.001 14.031 C 20.049 14.410,20.184 14.647,20.452 14.828 C 20.923 15.144,21.554 14.998,21.859 14.503 C 21.974 14.315,21.980 14.285,21.978 13.883 C 21.977 13.559,21.955 13.390,21.885 13.160 C 21.586 12.184,20.811 11.407,19.861 11.129 C 19.500 11.023,18.832 10.980,18.499 11.040 " stroke="none" fill-rule="evenodd" fill="black"></path></svg>