<svg xmlns="http://www.w3.org/2000/svg" width="24" height="24" viewBox="0 0 24 24" fill="none" stroke="currentColor" stroke-width="2" stroke-linecap="round" stroke-linejoin="round"><path d="M11.700 2.054 C 11.612 2.084,9.713 3.022,7.480 4.138 C 4.203 5.778,3.392 6.199,3.274 6.322 C 3.001 6.608,2.995 6.658,3.008 8.588 L 3.020 10.306 3.141 10.503 C 3.543 11.156,4.457 11.156,4.859 10.503 L 4.980 10.306 4.992 8.962 L 5.004 7.618 8.502 5.869 L 12.000 4.120 15.500 5.870 L 19.000 7.620 19.000 13.810 L 19.000 20.000 12.002 20.000 L 5.005 20.000 4.992 18.850 L 4.980 17.700 4.871 17.514 C 4.479 16.848,3.521 16.848,3.129 17.514 L 3.020 17.700 3.020 19.500 L 3.020 21.300 3.131 21.489 C 3.256 21.702,3.449 21.864,3.670 21.943 C 3.793 21.987,5.268 21.996,12.000 21.996 C 18.732 21.996,20.207 21.987,20.330 21.943 C 20.551 21.864,20.744 21.702,20.869 21.489 L 20.980 21.300 20.990 14.082 C 21.002 5.972,21.026 6.621,20.703 6.304 C 20.568 6.171,19.757 5.752,16.418 4.087 C 11.943 1.856,12.096 1.922,11.700 2.054 M9.670 10.061 C 9.448 10.142,9.250 10.309,9.128 10.516 C 9.036 10.672,9.020 10.745,9.021 11.000 C 9.021 11.213,9.043 11.340,9.096 11.440 C 9.136 11.517,9.486 11.900,9.873 12.290 L 10.577 13.000 7.235 13.000 C 3.608 13.000,3.677 12.996,3.382 13.221 C 3.302 13.282,3.187 13.415,3.128 13.516 C 3.037 13.672,3.020 13.746,3.020 14.000 C 3.020 14.256,3.036 14.328,3.131 14.489 C 3.256 14.702,3.449 14.864,3.670 14.943 C 3.791 14.986,4.481 14.997,7.199 14.998 L 10.577 15.000 9.873 15.710 C 9.486 16.101,9.139 16.481,9.101 16.555 C 8.872 17.008,9.056 17.601,9.508 17.867 C 9.673 17.964,9.742 17.980,10.000 17.979 C 10.212 17.979,10.341 17.957,10.440 17.905 C 10.517 17.865,11.306 17.109,12.194 16.226 C 13.957 14.472,13.999 14.420,13.999 14.000 C 13.999 13.578,13.960 13.530,12.175 11.756 C 10.716 10.307,10.519 10.124,10.343 10.066 C 10.108 9.987,9.875 9.986,9.670 10.061 " stroke="none" fill-rule="evenodd" fill="black"></path></svg>