<svg xmlns="http://www.w3.org/2000/svg" width="24" height="24" viewBox="0 0 24 24" fill="none" stroke="currentColor" stroke-width="2" stroke-linecap="round" stroke-linejoin="round"><path d="M2.670 2.061 C 2.448 2.142,2.250 2.309,2.128 2.516 C 2.036 2.672,2.020 2.745,2.021 3.000 C 2.021 3.213,2.043 3.341,2.095 3.440 C 2.136 3.517,2.711 4.124,3.374 4.790 L 4.578 6.000 4.235 6.000 C 3.670 6.000,3.343 6.150,3.135 6.504 C 2.782 7.108,3.180 7.905,3.876 7.987 C 3.988 8.000,4.080 8.018,4.080 8.026 C 4.080 8.035,4.296 10.638,4.560 13.811 C 4.957 18.583,5.054 19.628,5.124 19.860 C 5.408 20.812,6.180 21.580,7.160 21.886 L 7.460 21.980 12.000 21.980 L 16.540 21.980 16.840 21.886 C 17.599 21.649,18.289 21.091,18.644 20.426 L 18.769 20.192 19.595 21.011 C 20.049 21.462,20.483 21.864,20.560 21.905 C 20.659 21.957,20.787 21.979,21.000 21.979 C 21.258 21.980,21.327 21.964,21.492 21.867 C 21.968 21.587,22.139 20.967,21.865 20.508 C 21.810 20.416,17.665 16.243,12.653 11.235 C 4.231 2.820,3.525 2.125,3.343 2.065 C 3.107 1.987,2.874 1.986,2.670 2.061 M9.477 2.073 C 8.784 2.254,8.184 2.886,8.038 3.589 C 8.012 3.717,7.999 4.104,8.007 4.555 L 8.020 5.307 8.141 5.503 C 8.543 6.156,9.457 6.156,9.859 5.503 C 9.979 5.308,9.980 5.300,9.993 4.653 L 10.007 4.000 12.003 4.000 L 14.000 4.000 14.000 5.000 L 14.000 6.000 12.446 6.000 C 10.758 6.000,10.658 6.011,10.382 6.221 C 10.302 6.282,10.187 6.415,10.128 6.516 C 10.037 6.672,10.020 6.746,10.020 7.000 C 10.020 7.256,10.036 7.328,10.131 7.489 C 10.256 7.702,10.449 7.864,10.670 7.943 C 10.791 7.986,11.509 7.997,14.369 7.998 L 17.918 8.000 17.898 8.170 C 17.841 8.647,17.400 14.099,17.400 14.332 C 17.400 14.656,17.471 14.845,17.672 15.055 C 17.872 15.264,18.088 15.358,18.371 15.359 C 18.771 15.361,19.093 15.170,19.266 14.829 C 19.367 14.628,19.378 14.533,19.644 11.361 C 19.795 9.568,19.918 8.080,19.919 8.056 C 19.920 8.031,20.012 8.000,20.124 7.987 C 20.511 7.941,20.863 7.638,20.965 7.264 C 21.065 6.893,20.917 6.449,20.618 6.221 C 20.334 6.004,20.283 6.000,18.054 6.000 L 16.000 6.000 15.999 4.890 C 15.999 3.691,15.970 3.456,15.781 3.083 C 15.646 2.816,15.297 2.449,15.017 2.281 C 14.564 2.008,14.524 2.005,12.000 2.005 C 9.992 2.005,9.711 2.012,9.477 2.073 M7.844 9.264 L 9.108 10.528 9.053 10.687 C 9.008 10.818,9.000 11.420,9.009 14.076 L 9.020 17.306 9.141 17.503 C 9.543 18.156,10.457 18.156,10.859 17.503 L 10.980 17.306 11.000 14.873 L 11.020 12.439 12.009 13.430 L 12.997 14.420 13.009 15.863 L 13.020 17.306 13.141 17.503 C 13.543 18.156,14.457 18.156,14.858 17.504 C 14.970 17.323,14.980 17.274,14.994 16.869 L 15.009 16.430 16.025 17.445 L 17.041 18.460 17.018 18.760 C 16.969 19.393,16.840 19.663,16.486 19.871 L 16.300 19.980 12.000 19.980 L 7.700 19.980 7.516 19.872 C 7.324 19.759,7.151 19.563,7.076 19.373 C 7.051 19.311,6.827 16.812,6.578 13.820 C 6.329 10.828,6.116 8.295,6.104 8.190 L 6.084 8.000 6.332 8.000 L 6.580 8.000 7.844 9.264 " stroke="none" fill-rule="evenodd" fill="black"></path></svg>