<svg xmlns="http://www.w3.org/2000/svg" width="24" height="24" viewBox="0 0 24 24" fill="none" stroke="currentColor" stroke-width="2" stroke-linecap="round" stroke-linejoin="round"><path d="M5.480 2.039 C 5.039 2.095,4.718 2.195,4.260 2.419 C 3.194 2.938,2.427 3.865,2.134 4.989 C 1.987 5.553,1.964 6.242,2.074 6.778 L 2.157 7.176 2.008 7.351 C 1.540 7.906,1.228 8.531,1.075 9.220 C 1.044 9.362,1.022 9.697,1.023 10.040 C 1.025 10.634,1.063 10.864,1.242 11.350 C 1.397 11.773,1.768 12.417,1.936 12.557 C 1.986 12.599,2.000 12.690,2.000 12.989 C 2.000 14.040,2.413 15.042,3.160 15.801 C 3.545 16.192,3.933 16.462,4.397 16.664 C 4.984 16.918,5.249 16.966,6.169 16.989 L 6.997 17.009 7.009 19.158 L 7.020 21.306 7.141 21.503 C 7.209 21.613,7.346 21.756,7.452 21.828 C 7.923 22.144,8.554 21.999,8.859 21.503 L 8.980 21.306 8.991 19.153 L 9.003 17.000 9.694 17.000 C 10.074 17.000,10.492 16.981,10.623 16.958 C 12.595 16.606,14.000 14.952,14.000 12.980 C 14.000 12.689,14.014 12.598,14.064 12.557 C 14.232 12.417,14.603 11.773,14.758 11.350 C 14.934 10.873,14.973 10.633,14.976 10.040 C 14.978 9.692,14.957 9.364,14.925 9.220 C 14.771 8.528,14.460 7.906,13.989 7.349 L 13.839 7.170 13.900 6.915 C 13.991 6.542,14.020 5.873,13.963 5.477 C 13.905 5.073,13.684 4.389,13.513 4.082 C 13.005 3.174,12.087 2.442,11.102 2.161 C 10.666 2.036,10.086 1.988,9.606 2.038 C 9.010 2.099,8.693 2.190,8.171 2.449 L 8.001 2.534 7.787 2.429 C 7.438 2.258,7.189 2.169,6.876 2.105 C 6.502 2.028,5.818 1.995,5.480 2.039 M6.320 4.042 C 6.637 4.093,6.947 4.230,7.231 4.445 C 7.533 4.673,7.742 4.758,8.000 4.758 C 8.258 4.758,8.467 4.673,8.769 4.445 C 9.793 3.671,11.247 4.001,11.780 5.128 C 12.056 5.711,12.056 6.291,11.781 6.895 C 11.598 7.298,11.575 7.453,11.659 7.745 C 11.716 7.945,11.762 8.013,11.969 8.200 C 12.478 8.662,12.640 8.842,12.761 9.082 C 13.013 9.581,13.056 10.149,12.880 10.659 C 12.774 10.968,12.613 11.211,12.339 11.480 C 11.953 11.857,11.882 12.078,11.962 12.658 C 12.059 13.367,11.881 13.926,11.403 14.404 C 10.928 14.881,10.574 15.000,9.632 15.000 L 9.000 15.000 9.000 13.710 L 9.000 12.419 9.883 11.540 C 10.368 11.056,10.814 10.579,10.873 10.480 C 10.964 10.328,10.980 10.254,10.980 10.000 C 10.980 9.746,10.963 9.672,10.872 9.516 C 10.747 9.303,10.550 9.141,10.316 9.058 C 9.947 8.928,9.605 9.019,9.247 9.343 L 9.005 9.562 8.993 8.631 L 8.980 7.700 8.871 7.514 C 8.479 6.848,7.521 6.848,7.129 7.514 L 7.020 7.700 7.008 9.132 L 6.996 10.563 6.754 10.344 C 6.395 10.019,6.054 9.928,5.684 10.058 C 5.450 10.141,5.253 10.303,5.128 10.516 C 5.037 10.672,5.020 10.746,5.020 11.000 C 5.020 11.254,5.036 11.328,5.127 11.480 C 5.186 11.579,5.632 12.056,6.117 12.540 L 7.000 13.419 7.000 14.210 L 7.000 15.000 6.368 15.000 C 5.412 15.000,5.088 14.893,4.617 14.423 C 4.146 13.952,3.961 13.468,4.022 12.860 C 4.103 12.040,4.059 11.868,3.661 11.480 C 3.263 11.091,3.063 10.682,3.015 10.163 C 2.984 9.819,3.049 9.487,3.217 9.132 C 3.357 8.838,3.573 8.591,3.996 8.243 C 4.412 7.900,4.486 7.468,4.222 6.902 C 3.941 6.296,3.941 5.707,4.223 5.119 C 4.528 4.482,5.222 4.037,5.960 4.005 C 6.015 4.003,6.177 4.019,6.320 4.042 M15.670 4.061 C 15.448 4.142,15.250 4.309,15.128 4.516 C 15.036 4.672,15.020 4.745,15.021 5.000 C 15.021 5.213,15.043 5.341,15.095 5.440 C 15.136 5.517,15.647 6.061,16.232 6.649 C 16.817 7.237,17.288 7.725,17.278 7.734 C 17.268 7.743,17.071 7.845,16.840 7.960 C 16.363 8.198,16.161 8.381,16.065 8.664 C 15.983 8.905,15.983 9.094,16.065 9.343 C 16.124 9.519,16.294 9.704,17.629 11.045 C 18.454 11.873,19.113 12.559,19.094 12.569 C 19.075 12.580,18.719 12.702,18.303 12.842 C 17.455 13.126,17.283 13.227,17.122 13.540 C 16.993 13.790,16.981 14.219,17.096 14.440 C 17.136 14.517,17.711 15.125,18.374 15.790 L 19.578 17.000 16.235 17.000 C 12.608 17.000,12.677 16.996,12.382 17.221 C 12.302 17.282,12.187 17.415,12.128 17.516 C 12.037 17.672,12.020 17.746,12.020 18.000 C 12.020 18.256,12.036 18.328,12.131 18.489 C 12.256 18.702,12.449 18.864,12.670 18.943 C 12.768 18.978,13.022 18.997,13.408 18.998 L 13.995 19.000 14.008 20.153 L 14.020 21.307 14.141 21.503 C 14.543 22.156,15.457 22.156,15.859 21.503 L 15.980 21.307 15.992 20.153 L 16.005 19.000 19.077 19.000 C 22.418 19.000,22.320 19.006,22.623 18.775 C 22.700 18.716,22.813 18.585,22.872 18.484 C 22.964 18.328,22.980 18.255,22.979 18.000 C 22.979 17.788,22.957 17.659,22.905 17.560 C 22.865 17.483,22.165 16.752,21.351 15.935 C 20.537 15.118,19.887 14.441,19.906 14.431 C 19.925 14.420,20.279 14.298,20.692 14.160 C 21.522 13.882,21.696 13.783,21.867 13.492 C 21.964 13.327,21.980 13.258,21.979 13.000 C 21.979 12.788,21.957 12.659,21.905 12.560 C 21.865 12.483,21.127 11.711,20.266 10.845 C 19.405 9.979,18.718 9.263,18.740 9.254 C 18.762 9.245,18.977 9.135,19.218 9.009 C 19.700 8.757,19.879 8.579,19.963 8.268 C 20.027 8.034,19.985 7.709,19.866 7.508 C 19.811 7.416,19.040 6.618,18.153 5.736 C 16.714 4.305,16.519 4.124,16.343 4.066 C 16.108 3.987,15.875 3.986,15.670 4.061 " stroke="none" fill-rule="evenodd" fill="black"></path></svg>