<svg xmlns="http://www.w3.org/2000/svg" width="24" height="24" viewBox="0 0 24 24" fill="none" stroke="currentColor" stroke-width="2" stroke-linecap="round" stroke-linejoin="round"><path d="M11.477 2.073 C 10.806 2.249,10.238 2.823,10.060 3.508 C 9.941 3.962,10.003 4.492,10.225 4.930 C 10.361 5.199,10.801 5.639,11.070 5.775 C 11.659 6.073,12.341 6.073,12.930 5.775 C 13.196 5.640,13.638 5.200,13.771 4.937 C 13.994 4.498,14.052 4.007,13.940 3.529 C 13.858 3.182,13.720 2.927,13.465 2.653 C 13.074 2.232,12.560 2.005,12.000 2.005 C 11.857 2.005,11.622 2.036,11.477 2.073 M17.676 6.059 C 17.597 6.088,16.921 6.519,16.173 7.018 L 14.813 7.924 12.970 7.462 L 11.128 7.000 10.234 7.000 C 9.742 7.000,9.223 7.020,9.080 7.043 C 8.437 7.146,7.871 7.451,7.394 7.950 C 6.908 8.459,6.801 8.690,6.491 9.900 C 6.322 10.563,6.307 10.660,6.305 11.120 C 6.303 11.702,6.378 12.008,6.654 12.540 C 6.931 13.075,7.228 13.348,8.379 14.121 L 9.380 14.793 10.689 16.107 L 11.998 17.420 12.009 19.363 L 12.020 21.306 12.141 21.503 C 12.543 22.156,13.457 22.156,13.859 21.503 L 13.980 21.306 13.991 19.087 C 14.001 17.104,13.996 16.847,13.936 16.664 C 13.875 16.479,13.738 16.328,12.470 15.054 L 11.072 13.648 11.316 12.174 C 11.451 11.363,11.571 10.650,11.584 10.588 C 11.605 10.486,11.678 10.571,12.457 11.608 L 13.307 12.740 14.653 13.636 L 16.000 14.533 16.000 16.760 L 16.000 18.987 15.786 19.035 C 15.515 19.096,15.270 19.275,15.129 19.514 C 15.036 19.672,15.020 19.745,15.020 20.003 C 15.020 20.271,15.034 20.329,15.141 20.503 C 15.287 20.740,15.577 20.946,15.817 20.982 C 15.988 21.007,15.993 21.012,16.018 21.183 C 16.054 21.423,16.260 21.713,16.497 21.859 C 16.671 21.966,16.729 21.980,17.000 21.980 C 17.271 21.980,17.329 21.966,17.503 21.859 C 17.740 21.713,17.946 21.423,17.982 21.183 C 18.007 21.012,18.012 21.007,18.183 20.982 C 18.423 20.946,18.713 20.740,18.859 20.503 C 18.966 20.329,18.980 20.271,18.980 20.003 C 18.980 19.745,18.964 19.672,18.871 19.514 C 18.730 19.275,18.485 19.096,18.215 19.035 L 18.002 18.988 17.991 15.344 L 17.980 11.700 17.871 11.514 C 17.382 10.683,16.133 10.939,16.009 11.895 L 15.980 12.120 15.340 11.694 L 14.700 11.268 14.112 10.484 C 13.789 10.053,13.539 9.695,13.557 9.688 C 13.575 9.682,13.880 9.749,14.233 9.838 C 14.936 10.015,15.070 10.028,15.310 9.943 C 15.545 9.860,18.694 7.749,18.796 7.606 C 18.912 7.443,19.000 7.182,19.000 7.002 C 19.000 6.333,18.295 5.831,17.676 6.059 M9.800 9.062 C 9.800 9.162,9.278 12.255,9.258 12.275 C 9.226 12.308,8.564 11.838,8.485 11.726 C 8.388 11.590,8.280 11.271,8.280 11.121 C 8.280 11.058,8.359 10.691,8.456 10.306 C 8.680 9.413,8.801 9.219,9.234 9.059 C 9.447 8.981,9.800 8.982,9.800 9.062 M8.643 16.066 C 8.285 16.198,8.220 16.303,7.085 18.584 C 5.927 20.911,5.926 20.915,6.061 21.322 C 6.189 21.707,6.594 22.000,7.000 22.000 C 7.243 22.000,7.521 21.881,7.697 21.702 C 7.937 21.458,9.961 17.387,9.990 17.092 C 10.014 16.843,9.925 16.552,9.765 16.358 C 9.523 16.065,9.011 15.931,8.643 16.066 " stroke="none" fill-rule="evenodd" fill="black"></path></svg>