<svg xmlns="http://www.w3.org/2000/svg" width="24" height="24" viewBox="0 0 24 24" fill="none" stroke="currentColor" stroke-width="2" stroke-linecap="round" stroke-linejoin="round"><path d="M17.670 4.061 C 17.448 4.142,17.250 4.309,17.128 4.516 C 17.036 4.672,17.020 4.745,17.021 5.000 C 17.021 5.213,17.043 5.340,17.096 5.440 C 17.136 5.517,17.484 5.897,17.868 6.284 L 18.566 6.989 17.693 7.012 C 16.463 7.044,15.839 7.185,14.957 7.629 C 14.185 8.018,13.629 8.442,13.098 9.046 C 12.957 9.206,11.869 10.725,10.682 12.421 C 9.494 14.117,8.425 15.611,8.306 15.742 C 7.917 16.171,7.282 16.575,6.662 16.786 C 6.115 16.973,5.815 17.000,4.301 17.000 C 2.770 17.000,2.655 17.013,2.382 17.221 C 2.302 17.282,2.187 17.415,2.128 17.516 C 2.037 17.672,2.020 17.746,2.020 18.000 C 2.020 18.256,2.036 18.328,2.131 18.489 C 2.256 18.702,2.449 18.864,2.670 18.943 C 2.892 19.022,5.668 19.020,6.220 18.941 C 7.522 18.753,8.694 18.172,9.612 17.260 C 10.032 16.841,9.999 16.886,12.301 13.597 C 13.416 12.004,14.428 10.577,14.549 10.427 C 14.968 9.906,15.726 9.404,16.420 9.188 C 16.837 9.058,17.328 9.000,18.019 9.000 L 18.577 9.000 17.873 9.710 C 17.486 10.101,17.139 10.481,17.101 10.555 C 16.872 11.008,17.056 11.601,17.508 11.867 C 17.673 11.964,17.742 11.980,18.000 11.979 C 18.212 11.979,18.341 11.957,18.440 11.905 C 18.517 11.865,19.306 11.109,20.194 10.226 C 21.957 8.472,21.999 8.420,21.999 8.000 C 21.999 7.578,21.960 7.530,20.175 5.756 C 18.716 4.307,18.519 4.124,18.343 4.066 C 18.108 3.987,17.875 3.986,17.670 4.061 " stroke="none" fill-rule="evenodd" fill="black"></path></svg>