<svg xmlns="http://www.w3.org/2000/svg" width="24" height="24" viewBox="0 0 24 24" fill="none" stroke="currentColor" stroke-width="2" stroke-linecap="round" stroke-linejoin="round"><path d="M13.695 6.057 C 13.466 6.129,13.256 6.299,13.128 6.516 C 13.037 6.672,13.020 6.746,13.020 7.000 C 13.020 7.256,13.036 7.328,13.131 7.489 C 13.256 7.702,13.449 7.864,13.670 7.943 C 13.789 7.985,14.317 7.997,16.200 7.998 L 18.580 8.000 15.791 10.789 L 13.001 13.578 11.271 11.855 C 9.721 10.312,9.519 10.124,9.343 10.066 C 9.094 9.983,8.907 9.983,8.657 10.065 C 8.478 10.125,8.183 10.407,5.347 13.235 C 3.569 15.008,2.188 16.417,2.127 16.520 C 2.036 16.672,2.020 16.746,2.020 17.000 C 2.020 17.257,2.036 17.327,2.133 17.492 C 2.263 17.714,2.502 17.901,2.736 17.965 C 2.938 18.019,3.266 17.989,3.445 17.899 C 3.519 17.862,4.799 16.614,6.290 15.126 L 9.000 12.421 10.710 14.126 C 11.650 15.064,12.483 15.865,12.560 15.905 C 12.754 16.007,13.246 16.007,13.440 15.905 C 13.517 15.865,15.024 14.390,16.789 12.628 L 19.998 9.423 20.009 11.865 L 20.020 14.306 20.141 14.503 C 20.543 15.156,21.457 15.156,21.859 14.503 L 21.980 14.306 21.991 10.563 C 22.001 7.162,21.996 6.804,21.936 6.646 C 21.845 6.405,21.657 6.204,21.420 6.094 L 21.220 6.001 17.540 6.003 C 14.648 6.005,13.825 6.016,13.695 6.057 " stroke="none" fill-rule="evenodd" fill="black"></path></svg>