<svg xmlns="http://www.w3.org/2000/svg" width="24" height="24" viewBox="0 0 24 24" fill="none" stroke="currentColor" stroke-width="2" stroke-linecap="round" stroke-linejoin="round"><path d="M2.695 6.057 C 2.466 6.129,2.256 6.299,2.128 6.516 C 2.036 6.672,2.020 6.745,2.021 7.000 C 2.021 7.212,2.043 7.341,2.095 7.440 C 2.195 7.632,8.294 13.738,8.520 13.873 C 8.673 13.964,8.745 13.980,9.000 13.979 C 9.212 13.979,9.341 13.957,9.440 13.905 C 9.517 13.865,10.350 13.064,11.290 12.126 L 13.001 10.421 15.790 13.210 L 18.580 16.000 16.236 16.000 C 13.693 16.000,13.670 16.002,13.382 16.221 C 13.302 16.282,13.187 16.415,13.128 16.516 C 13.037 16.672,13.020 16.746,13.020 17.000 C 13.020 17.256,13.036 17.328,13.131 17.489 C 13.256 17.702,13.449 17.864,13.670 17.943 C 13.791 17.986,14.533 17.997,17.520 17.998 L 21.220 17.999 21.420 17.906 C 21.657 17.796,21.845 17.595,21.936 17.354 C 21.996 17.196,22.001 16.838,21.991 13.440 L 21.980 9.700 21.871 9.514 C 21.479 8.848,20.521 8.848,20.129 9.514 L 20.020 9.700 20.009 12.138 L 19.998 14.576 16.769 11.353 C 13.824 8.414,13.523 8.125,13.343 8.065 C 13.093 7.983,12.906 7.983,12.657 8.066 C 12.481 8.124,12.279 8.312,10.730 9.854 L 8.999 11.578 6.270 8.852 C 3.628 6.215,3.533 6.125,3.323 6.064 C 3.066 5.988,2.919 5.987,2.695 6.057 " stroke="none" fill-rule="evenodd" fill="black"></path></svg>