<svg xmlns="http://www.w3.org/2000/svg" width="24" height="24" viewBox="0 0 24 24" fill="none" stroke="currentColor" stroke-width="2" stroke-linecap="round" stroke-linejoin="round"><path d="M11.360 1.743 C 10.997 1.820,10.351 2.154,10.057 2.417 C 9.924 2.536,9.724 2.765,9.613 2.927 C 9.334 3.333,1.374 16.641,1.257 16.894 C 1.083 17.275,1.021 17.589,1.021 18.080 C 1.021 18.622,1.087 18.912,1.318 19.380 C 1.603 19.956,2.045 20.398,2.620 20.682 C 3.265 20.999,2.900 20.978,7.777 20.990 C 12.691 21.004,12.371 21.023,12.697 20.697 C 13.217 20.176,13.022 19.304,12.330 19.057 C 12.208 19.014,11.389 19.003,8.008 19.002 C 5.139 19.001,3.781 18.986,3.663 18.956 C 3.165 18.831,2.862 18.202,3.076 17.740 C 3.208 17.454,11.243 4.064,11.353 3.945 C 11.509 3.778,11.744 3.682,12.000 3.682 C 12.256 3.682,12.492 3.778,12.646 3.945 C 12.704 4.008,13.898 5.977,15.299 8.320 C 17.102 11.335,17.897 12.629,18.018 12.747 C 18.251 12.975,18.568 13.071,18.873 13.007 C 19.174 12.945,19.434 12.748,19.573 12.479 C 19.674 12.284,19.684 12.228,19.669 11.973 L 19.652 11.685 17.076 7.382 C 15.659 5.015,14.412 2.961,14.305 2.817 C 14.198 2.674,14.000 2.466,13.865 2.356 C 13.544 2.094,12.975 1.815,12.607 1.740 C 12.252 1.667,11.712 1.669,11.360 1.743 M18.695 15.057 C 18.466 15.129,18.256 15.299,18.128 15.516 L 18.020 15.700 18.008 16.850 L 17.995 18.000 16.944 18.000 C 15.797 18.000,15.643 18.022,15.382 18.221 C 15.302 18.282,15.187 18.415,15.128 18.516 C 15.037 18.672,15.020 18.746,15.020 19.000 C 15.020 19.256,15.036 19.328,15.131 19.489 C 15.192 19.592,15.304 19.725,15.381 19.783 C 15.642 19.983,15.738 19.996,16.908 19.998 L 17.995 20.000 18.008 21.153 L 18.020 22.307 18.141 22.503 C 18.543 23.156,19.457 23.156,19.859 22.503 L 19.980 22.307 19.992 21.153 L 20.005 20.000 21.092 19.998 C 22.262 19.996,22.358 19.983,22.619 19.783 C 22.696 19.725,22.808 19.592,22.869 19.489 C 22.964 19.328,22.980 19.256,22.980 19.000 C 22.980 18.746,22.963 18.672,22.872 18.516 C 22.813 18.415,22.698 18.282,22.618 18.221 C 22.357 18.022,22.203 18.000,21.056 18.000 L 20.005 18.000 19.992 16.850 L 19.980 15.700 19.872 15.516 C 19.628 15.101,19.150 14.915,18.695 15.057 " stroke="none" fill-rule="evenodd" fill="black"></path></svg>