<svg xmlns="http://www.w3.org/2000/svg" width="24" height="24" viewBox="0 0 24 24" fill="none" stroke="currentColor" stroke-width="2" stroke-linecap="round" stroke-linejoin="round"><path d="M11.360 1.743 C 10.997 1.820,10.351 2.154,10.057 2.417 C 9.924 2.536,9.724 2.765,9.614 2.927 C 9.334 3.335,1.373 16.642,1.257 16.895 C 1.083 17.275,1.021 17.589,1.021 18.080 C 1.021 18.622,1.087 18.912,1.318 19.380 C 1.603 19.956,2.045 20.398,2.620 20.682 C 3.265 20.999,2.900 20.978,7.777 20.990 C 12.691 21.004,12.371 21.023,12.697 20.697 C 13.217 20.176,13.022 19.304,12.330 19.057 C 12.208 19.014,11.389 19.003,8.008 19.002 C 5.139 19.001,3.781 18.986,3.663 18.956 C 3.165 18.831,2.862 18.202,3.076 17.740 C 3.208 17.455,11.243 4.064,11.353 3.945 C 11.679 3.594,12.321 3.594,12.647 3.945 C 12.705 4.008,14.304 6.652,16.200 9.820 C 18.096 12.988,19.702 15.638,19.770 15.709 C 19.950 15.896,20.214 16.008,20.480 16.008 C 21.009 16.008,21.420 15.622,21.470 15.078 C 21.487 14.891,21.472 14.811,21.391 14.635 C 21.265 14.361,14.572 3.183,14.337 2.854 C 14.241 2.719,14.058 2.516,13.931 2.404 C 13.632 2.140,12.988 1.817,12.607 1.739 C 12.252 1.667,11.711 1.669,11.360 1.743 M15.695 18.057 C 15.466 18.129,15.256 18.299,15.128 18.516 C 15.037 18.672,15.020 18.746,15.020 19.000 C 15.020 19.256,15.036 19.328,15.131 19.489 C 15.256 19.702,15.449 19.864,15.670 19.943 C 15.891 20.022,22.109 20.022,22.330 19.943 C 22.551 19.864,22.744 19.702,22.869 19.489 C 22.964 19.328,22.980 19.256,22.980 19.000 C 22.980 18.746,22.963 18.672,22.872 18.516 C 22.740 18.293,22.533 18.128,22.290 18.055 C 22.030 17.977,15.945 17.979,15.695 18.057 " stroke="none" fill-rule="evenodd" fill="black"></path></svg>