<svg xmlns="http://www.w3.org/2000/svg" width="24" height="24" viewBox="0 0 24 24" fill="none" stroke="currentColor" stroke-width="2" stroke-linecap="round" stroke-linejoin="round"><path d="M11.360 1.744 C 11.013 1.818,10.417 2.116,10.117 2.366 C 9.803 2.627,9.624 2.875,9.023 3.877 C 8.301 5.082,8.282 5.126,8.359 5.496 C 8.443 5.899,8.750 6.200,9.163 6.287 C 9.460 6.349,9.777 6.258,9.993 6.049 C 10.077 5.967,10.400 5.477,10.710 4.960 C 11.020 4.443,11.324 3.971,11.387 3.912 C 11.724 3.591,12.333 3.606,12.647 3.945 C 12.705 4.008,14.170 6.427,15.901 9.320 C 17.633 12.213,19.478 15.295,20.002 16.170 C 20.867 17.613,20.957 17.781,20.982 17.990 C 21.037 18.451,21.243 18.754,21.617 18.924 C 22.134 19.159,22.812 18.829,22.963 18.268 C 23.045 17.969,22.943 17.333,22.744 16.897 C 22.630 16.647,14.666 3.335,14.386 2.927 C 14.276 2.765,14.076 2.536,13.943 2.417 C 13.633 2.140,13.002 1.820,12.607 1.739 C 12.251 1.667,11.710 1.669,11.360 1.744 M2.670 2.061 C 2.448 2.142,2.250 2.309,2.128 2.516 C 2.036 2.672,2.020 2.745,2.021 3.000 C 2.021 3.212,2.043 3.341,2.095 3.440 C 2.135 3.517,3.157 4.571,4.366 5.782 L 6.563 7.984 3.976 12.302 C 2.554 14.677,1.339 16.728,1.276 16.860 C 1.085 17.264,1.021 17.571,1.021 18.080 C 1.021 18.622,1.087 18.912,1.318 19.380 C 1.603 19.956,2.045 20.398,2.620 20.682 C 3.283 21.008,2.439 20.979,11.498 20.991 L 19.577 21.001 19.998 21.415 C 20.522 21.929,20.608 21.978,21.000 21.979 C 21.258 21.980,21.327 21.964,21.492 21.867 C 21.968 21.587,22.139 20.967,21.865 20.508 C 21.810 20.416,17.665 16.243,12.653 11.235 C 4.231 2.820,3.525 2.125,3.343 2.065 C 3.107 1.987,2.874 1.986,2.670 2.061 M10.730 18.992 C 5.947 19.001,3.839 18.991,3.698 18.961 C 3.440 18.906,3.236 18.738,3.104 18.472 C 2.993 18.250,2.970 18.005,3.042 17.813 C 3.065 17.751,4.195 15.842,5.552 13.572 L 8.020 9.443 12.790 14.212 L 17.560 18.980 10.730 18.992 " stroke="none" fill-rule="evenodd" fill="black"></path></svg>