<svg xmlns="http://www.w3.org/2000/svg" width="24" height="24" viewBox="0 0 24 24" fill="none" stroke="currentColor" stroke-width="2" stroke-linecap="round" stroke-linejoin="round"><path d="M11.360 1.743 C 10.997 1.820,10.351 2.154,10.057 2.417 C 9.924 2.536,9.724 2.765,9.614 2.927 C 9.333 3.337,1.373 16.642,1.258 16.894 C 1.083 17.275,1.021 17.588,1.021 18.080 C 1.021 18.622,1.087 18.912,1.318 19.380 C 1.603 19.956,2.045 20.398,2.620 20.682 C 3.280 21.007,2.416 20.980,12.000 20.980 C 21.583 20.980,20.719 21.007,21.380 20.682 C 21.947 20.403,22.401 19.949,22.682 19.380 C 22.913 18.912,22.979 18.622,22.979 18.080 C 22.979 17.589,22.917 17.275,22.744 16.897 C 22.629 16.647,14.665 3.334,14.386 2.927 C 14.276 2.765,14.076 2.536,13.943 2.417 C 13.633 2.140,13.002 1.820,12.607 1.739 C 12.252 1.667,11.711 1.669,11.360 1.743 M12.380 3.756 C 12.468 3.797,12.588 3.882,12.647 3.945 C 12.789 4.099,20.880 17.616,20.952 17.820 C 21.108 18.266,20.805 18.829,20.340 18.956 C 20.114 19.018,3.907 19.018,3.663 18.956 C 3.165 18.831,2.862 18.202,3.076 17.740 C 3.207 17.457,11.243 4.064,11.353 3.945 C 11.508 3.778,11.744 3.682,12.000 3.682 C 12.130 3.682,12.286 3.712,12.380 3.756 M11.695 9.057 C 11.466 9.129,11.256 9.299,11.128 9.516 L 11.020 9.700 11.008 10.850 L 10.995 12.000 9.944 12.000 C 8.797 12.000,8.643 12.022,8.382 12.221 C 8.302 12.282,8.187 12.415,8.128 12.516 C 8.037 12.672,8.020 12.746,8.020 13.000 C 8.020 13.256,8.036 13.328,8.131 13.489 C 8.192 13.592,8.304 13.725,8.381 13.783 C 8.642 13.983,8.738 13.996,9.908 13.998 L 10.995 14.000 11.008 15.153 L 11.020 16.307 11.141 16.503 C 11.543 17.156,12.457 17.156,12.859 16.503 L 12.980 16.307 12.992 15.153 L 13.005 14.000 14.092 13.998 C 15.262 13.996,15.358 13.983,15.619 13.783 C 15.696 13.725,15.808 13.592,15.869 13.489 C 15.964 13.328,15.980 13.256,15.980 13.000 C 15.980 12.746,15.963 12.672,15.872 12.516 C 15.813 12.415,15.698 12.282,15.618 12.221 C 15.357 12.022,15.203 12.000,14.056 12.000 L 13.005 12.000 12.992 10.850 L 12.980 9.700 12.872 9.516 C 12.628 9.101,12.150 8.915,11.695 9.057 " stroke="none" fill-rule="evenodd" fill="black"></path></svg>