<svg xmlns="http://www.w3.org/2000/svg" width="24" height="24" viewBox="0 0 24 24" fill="none" stroke="currentColor" stroke-width="2" stroke-linecap="round" stroke-linejoin="round"><path d="M11.640 2.069 C 11.492 2.121,11.265 2.325,10.347 3.236 C 9.734 3.843,9.185 4.421,9.127 4.520 C 9.037 4.672,9.020 4.747,9.020 5.000 C 9.020 5.257,9.036 5.327,9.133 5.492 C 9.338 5.842,9.705 6.029,10.105 5.988 C 10.368 5.961,10.523 5.879,10.788 5.629 L 11.000 5.428 11.000 9.175 L 11.000 12.922 10.890 12.897 C 10.477 12.803,10.259 12.742,9.963 12.637 C 8.288 12.040,6.907 10.636,6.329 8.940 C 6.047 8.113,6.002 7.649,6.001 5.517 C 6.000 3.623,5.997 3.603,5.697 3.303 C 5.411 3.017,5.049 2.935,4.657 3.066 C 4.485 3.124,4.320 3.271,3.347 4.236 C 2.734 4.843,2.185 5.421,2.127 5.520 C 2.037 5.672,2.020 5.747,2.020 6.000 C 2.020 6.257,2.036 6.327,2.133 6.492 C 2.338 6.842,2.705 7.029,3.105 6.988 C 3.368 6.961,3.523 6.879,3.788 6.629 L 4.000 6.428 4.000 6.936 C 4.000 8.814,4.626 10.602,5.789 12.040 C 6.075 12.394,6.761 13.067,7.100 13.326 C 7.804 13.863,8.680 14.327,9.500 14.595 C 9.978 14.751,10.703 14.920,10.897 14.920 L 10.998 14.920 11.009 18.113 L 11.020 21.306 11.141 21.503 C 11.543 22.156,12.457 22.156,12.859 21.503 L 12.980 21.306 12.991 18.113 L 13.002 14.920 13.103 14.920 C 13.297 14.920,14.022 14.751,14.500 14.595 C 15.320 14.327,16.196 13.863,16.900 13.326 C 17.239 13.067,17.925 12.394,18.211 12.040 C 19.374 10.602,20.000 8.814,20.000 6.936 L 20.000 6.428 20.212 6.629 C 20.477 6.879,20.632 6.961,20.895 6.988 C 21.295 7.029,21.662 6.842,21.867 6.492 C 21.964 6.327,21.980 6.257,21.980 6.000 C 21.980 5.746,21.963 5.672,21.873 5.520 C 21.732 5.282,19.622 3.193,19.437 3.109 C 18.953 2.887,18.397 3.060,18.129 3.514 L 18.020 3.700 17.996 5.700 C 17.968 7.981,17.949 8.156,17.639 9.029 C 17.056 10.672,15.678 12.052,14.037 12.637 C 13.741 12.742,13.523 12.803,13.110 12.897 L 13.000 12.922 13.000 9.175 L 13.000 5.428 13.212 5.629 C 13.477 5.879,13.632 5.961,13.895 5.988 C 14.295 6.029,14.662 5.842,14.867 5.492 C 14.964 5.327,14.980 5.257,14.980 5.000 C 14.980 4.747,14.963 4.672,14.873 4.520 C 14.815 4.421,14.266 3.843,13.653 3.236 C 12.680 2.271,12.515 2.124,12.343 2.066 C 12.102 1.985,11.878 1.986,11.640 2.069 " stroke="none" fill-rule="evenodd" fill="black"></path></svg>