<svg xmlns="http://www.w3.org/2000/svg" width="24" height="24" viewBox="0 0 24 24" fill="none" stroke="currentColor" stroke-width="2" stroke-linecap="round" stroke-linejoin="round"><path d="M2.695 7.057 C 2.466 7.129,2.256 7.299,2.128 7.516 C 2.037 7.672,2.020 7.746,2.020 8.000 C 2.020 8.256,2.036 8.328,2.131 8.489 C 2.256 8.702,2.449 8.864,2.670 8.943 C 2.768 8.978,3.023 8.997,3.409 8.998 L 3.998 9.000 4.009 12.653 L 4.020 16.306 4.141 16.503 C 4.543 17.156,5.457 17.156,5.859 16.503 L 5.980 16.306 5.991 12.653 L 6.002 9.000 6.591 8.998 C 6.977 8.997,7.232 8.978,7.330 8.943 C 7.551 8.864,7.744 8.702,7.869 8.489 C 7.964 8.328,7.980 8.256,7.980 8.000 C 7.980 7.746,7.963 7.672,7.872 7.516 C 7.740 7.293,7.533 7.128,7.290 7.055 C 7.033 6.978,2.943 6.979,2.695 7.057 M9.667 7.065 C 9.406 7.145,9.153 7.401,9.061 7.678 C 8.927 8.081,8.938 8.111,9.954 10.148 L 10.879 12.000 9.954 13.852 C 8.938 15.889,8.927 15.919,9.061 16.322 C 9.189 16.707,9.594 17.000,10.000 17.000 C 10.080 17.000,10.233 16.970,10.340 16.934 C 10.686 16.816,10.804 16.649,11.419 15.408 C 11.727 14.788,11.988 14.280,12.000 14.280 C 12.012 14.280,12.273 14.788,12.581 15.408 C 13.196 16.649,13.314 16.816,13.660 16.934 C 13.767 16.970,13.920 17.000,14.000 17.000 C 14.406 17.000,14.811 16.707,14.939 16.322 C 15.073 15.919,15.062 15.889,14.046 13.852 L 13.121 12.000 14.046 10.148 C 15.056 8.124,15.072 8.079,14.944 7.693 C 14.712 6.992,13.816 6.776,13.304 7.297 C 13.182 7.421,12.997 7.751,12.581 8.592 C 12.273 9.212,12.012 9.720,12.000 9.720 C 11.988 9.720,11.727 9.212,11.419 8.592 C 10.804 7.351,10.686 7.184,10.340 7.066 C 10.106 6.986,9.924 6.986,9.667 7.065 M16.695 7.057 C 16.466 7.129,16.256 7.299,16.128 7.516 C 16.037 7.672,16.020 7.746,16.020 8.000 C 16.020 8.256,16.036 8.328,16.131 8.489 C 16.256 8.702,16.449 8.864,16.670 8.943 C 16.768 8.978,17.023 8.997,17.409 8.998 L 17.998 9.000 18.009 12.653 L 18.020 16.306 18.141 16.503 C 18.543 17.156,19.457 17.156,19.859 16.503 L 19.980 16.306 19.991 12.653 L 20.002 9.000 20.591 8.998 C 20.977 8.997,21.232 8.978,21.330 8.943 C 21.551 8.864,21.744 8.702,21.869 8.489 C 21.964 8.328,21.980 8.256,21.980 8.000 C 21.980 7.746,21.963 7.672,21.872 7.516 C 21.740 7.293,21.533 7.128,21.290 7.055 C 21.033 6.978,16.943 6.979,16.695 7.057 " stroke="none" fill-rule="evenodd" fill="black"></path></svg>