<svg xmlns="http://www.w3.org/2000/svg" width="24" height="24" viewBox="0 0 24 24" fill="none" stroke="currentColor" stroke-width="2" stroke-linecap="round" stroke-linejoin="round"><path d="M4.499 2.043 C 3.380 2.232,2.461 3.048,2.114 4.160 L 2.020 4.460 2.020 12.000 L 2.020 19.540 2.114 19.840 C 2.422 20.827,3.173 21.578,4.160 21.886 L 4.460 21.980 12.000 21.980 L 19.540 21.980 19.840 21.886 C 20.827 21.578,21.578 20.827,21.886 19.840 L 21.980 19.540 21.980 12.000 L 21.980 4.460 21.886 4.160 C 21.581 3.182,20.832 2.428,19.861 2.121 L 19.540 2.020 12.120 2.014 C 8.039 2.011,4.609 2.024,4.499 2.043 M19.310 4.061 C 19.589 4.144,19.856 4.411,19.939 4.690 C 19.993 4.870,20.000 5.755,20.000 12.001 C 20.000 17.907,19.991 19.138,19.945 19.290 C 19.872 19.533,19.707 19.740,19.484 19.872 L 19.300 19.980 12.000 19.980 L 4.700 19.980 4.516 19.872 C 4.415 19.813,4.284 19.700,4.225 19.623 C 3.986 19.309,4.000 19.795,4.000 12.022 C 4.000 5.758,4.007 4.870,4.061 4.690 C 4.140 4.421,4.412 4.143,4.673 4.063 C 4.964 3.974,19.009 3.971,19.310 4.061 M9.499 6.043 C 8.382 6.230,7.454 7.054,7.115 8.160 C 7.045 8.390,7.023 8.559,7.022 8.883 C 7.020 9.285,7.026 9.315,7.141 9.503 C 7.537 10.147,8.457 10.156,8.849 9.520 C 8.927 9.392,8.971 9.249,8.999 9.031 C 9.049 8.636,9.114 8.485,9.321 8.283 C 9.598 8.015,9.697 8.000,11.231 8.000 L 12.568 8.000 12.274 8.322 C 11.059 9.653,10.448 10.542,9.744 12.005 C 9.395 12.730,9.266 13.056,8.882 14.177 C 8.574 15.076,8.438 15.334,8.145 15.574 C 7.827 15.834,7.407 15.999,7.056 16.000 C 6.668 16.001,6.316 16.196,6.128 16.516 C 6.037 16.672,6.020 16.746,6.020 17.000 C 6.020 17.257,6.036 17.327,6.133 17.492 C 6.263 17.714,6.502 17.901,6.736 17.965 C 6.835 17.992,7.042 18.000,7.260 17.986 C 8.177 17.926,9.029 17.531,9.699 16.853 C 10.131 16.418,10.426 15.911,10.657 15.210 L 10.726 15.000 12.358 15.000 L 13.989 15.000 14.016 15.302 C 14.123 16.480,14.983 17.524,16.137 17.877 C 16.481 17.982,17.040 18.026,17.264 17.965 C 17.498 17.901,17.737 17.714,17.867 17.492 C 17.964 17.327,17.980 17.257,17.980 17.000 C 17.980 16.746,17.963 16.672,17.872 16.516 C 17.758 16.323,17.561 16.149,17.375 16.078 C 17.314 16.055,17.130 16.019,16.966 15.998 C 16.622 15.955,16.387 15.835,16.225 15.623 C 15.990 15.315,16.000 15.521,16.000 10.965 L 15.999 6.780 15.905 6.580 C 15.791 6.340,15.642 6.193,15.400 6.083 C 15.224 6.004,15.155 6.002,12.460 6.006 C 10.942 6.008,9.609 6.025,9.499 6.043 M14.000 11.220 L 14.000 13.000 12.738 13.000 L 11.475 13.000 11.747 12.472 C 12.229 11.535,12.934 10.539,13.665 9.762 C 13.832 9.585,13.975 9.440,13.984 9.440 C 13.993 9.440,14.000 10.241,14.000 11.220 " stroke="none" fill-rule="evenodd" fill="black"></path></svg>