<svg xmlns="http://www.w3.org/2000/svg" width="24" height="24" viewBox="0 0 24 24" fill="none" stroke="currentColor" stroke-width="2" stroke-linecap="round" stroke-linejoin="round"><path d="M11.860 3.047 C 9.629 3.298,7.749 4.938,7.177 7.129 C 7.010 7.772,7.001 7.969,7.001 11.337 L 7.000 14.574 6.270 13.854 C 5.655 13.247,5.509 13.123,5.343 13.067 C 4.865 12.905,4.383 13.083,4.128 13.516 C 4.036 13.672,4.020 13.745,4.021 14.000 C 4.021 14.212,4.043 14.341,4.095 14.440 C 4.135 14.517,4.891 15.306,5.774 16.194 C 7.528 17.957,7.580 17.999,8.000 17.999 C 8.420 17.999,8.472 17.957,10.226 16.194 C 11.109 15.306,11.865 14.517,11.905 14.440 C 11.957 14.341,11.979 14.212,11.979 14.000 C 11.980 13.745,11.964 13.672,11.872 13.516 C 11.617 13.083,11.135 12.905,10.657 13.067 C 10.491 13.123,10.345 13.247,9.728 13.855 L 8.997 14.577 9.009 11.239 C 9.022 7.962,9.024 7.894,9.108 7.595 C 9.383 6.620,10.063 5.808,10.995 5.342 C 11.487 5.095,11.809 5.028,12.500 5.028 C 12.983 5.028,13.160 5.044,13.405 5.111 C 13.992 5.271,14.590 5.631,15.022 6.085 C 15.329 6.408,15.489 6.642,15.681 7.053 C 15.998 7.730,15.972 7.163,15.998 14.103 L 16.020 20.306 16.141 20.503 C 16.543 21.156,17.457 21.156,17.859 20.503 L 17.980 20.306 17.992 14.263 C 18.001 9.900,17.992 8.120,17.959 7.860 C 17.801 6.617,17.284 5.542,16.420 4.661 C 15.221 3.439,13.569 2.854,11.860 3.047 " stroke="none" fill-rule="evenodd" fill="black"></path></svg>