<svg xmlns="http://www.w3.org/2000/svg" width="24" height="24" viewBox="0 0 24 24" fill="none" stroke="currentColor" stroke-width="2" stroke-linecap="round" stroke-linejoin="round"><path d="M10.860 3.047 C 9.098 3.245,7.498 4.337,6.644 5.923 C 6.347 6.476,6.127 7.182,6.041 7.860 C 6.008 8.120,5.999 9.900,6.008 14.263 L 6.020 20.306 6.141 20.503 C 6.543 21.156,7.457 21.156,7.859 20.503 L 7.980 20.306 8.001 14.103 L 8.021 7.900 8.108 7.595 C 8.385 6.618,9.063 5.808,9.995 5.342 C 10.487 5.095,10.809 5.028,11.500 5.028 C 11.983 5.028,12.160 5.044,12.405 5.111 C 12.992 5.271,13.590 5.631,14.022 6.085 C 14.329 6.408,14.489 6.642,14.681 7.053 C 14.987 7.706,14.972 7.509,14.989 11.239 L 15.003 14.577 14.272 13.855 C 13.655 13.247,13.509 13.123,13.343 13.067 C 12.865 12.905,12.383 13.083,12.128 13.516 C 12.036 13.672,12.020 13.745,12.021 14.000 C 12.021 14.212,12.043 14.341,12.095 14.440 C 12.135 14.517,12.891 15.306,13.774 16.194 C 15.528 17.957,15.580 17.999,16.000 17.999 C 16.420 17.999,16.472 17.957,18.226 16.194 C 19.109 15.306,19.865 14.517,19.905 14.440 C 19.957 14.341,19.979 14.212,19.979 14.000 C 19.980 13.745,19.964 13.672,19.872 13.516 C 19.617 13.083,19.135 12.905,18.657 13.067 C 18.491 13.123,18.345 13.247,17.730 13.854 L 17.000 14.574 17.000 11.347 C 17.000 7.866,16.993 7.716,16.784 6.999 C 16.583 6.306,16.333 5.801,15.915 5.237 C 14.740 3.652,12.830 2.825,10.860 3.047 " stroke="none" fill-rule="evenodd" fill="black"></path></svg>