<svg xmlns="http://www.w3.org/2000/svg" width="24" height="24" viewBox="0 0 24 24" fill="none" stroke="currentColor" stroke-width="2" stroke-linecap="round" stroke-linejoin="round"><path d="M11.380 3.043 C 9.353 3.243,7.539 4.499,6.605 6.350 C 6.434 6.689,6.172 7.489,6.106 7.873 C 6.074 8.055,6.038 8.215,6.025 8.228 C 6.013 8.240,5.800 8.318,5.551 8.400 C 4.072 8.889,2.870 9.571,2.057 10.384 C 1.208 11.233,0.847 12.289,1.060 13.300 C 1.434 15.073,3.371 16.500,6.546 17.341 C 6.851 17.421,7.105 17.493,7.112 17.499 C 7.118 17.505,6.877 18.005,6.576 18.609 C 5.969 19.829,5.935 19.943,6.061 20.322 C 6.189 20.707,6.594 21.000,7.000 21.000 C 7.080 21.000,7.232 20.971,7.336 20.935 C 7.692 20.814,7.773 20.696,8.517 19.207 L 9.204 17.833 9.392 17.858 C 10.319 17.982,12.237 18.033,13.362 17.964 C 13.790 17.938,14.195 17.907,14.262 17.895 C 14.383 17.874,14.391 17.886,15.322 19.283 C 15.838 20.057,16.316 20.734,16.385 20.786 C 17.039 21.285,18.000 20.817,18.000 20.000 C 18.000 19.738,17.901 19.551,17.243 18.565 C 16.889 18.035,16.600 17.583,16.600 17.561 C 16.600 17.538,16.635 17.520,16.678 17.520 C 16.721 17.520,17.004 17.456,17.308 17.379 C 20.564 16.545,22.560 15.099,22.940 13.300 C 23.153 12.289,22.792 11.233,21.943 10.384 C 21.144 9.585,20.025 8.944,18.545 8.438 C 18.239 8.333,17.974 8.223,17.955 8.194 C 17.937 8.164,17.921 8.093,17.921 8.035 C 17.919 7.676,17.524 6.549,17.214 6.020 C 16.008 3.956,13.758 2.808,11.380 3.043 M12.860 5.100 C 14.189 5.375,15.347 6.405,15.783 7.700 C 15.912 8.084,15.997 8.617,15.969 8.864 C 15.952 9.020,15.927 9.059,15.785 9.156 C 15.199 9.558,14.140 9.861,12.960 9.964 C 12.306 10.021,11.027 9.989,10.460 9.902 C 9.599 9.769,8.822 9.526,8.355 9.243 C 8.110 9.095,8.100 9.082,8.058 8.875 C 7.945 8.303,8.265 7.325,8.805 6.593 C 9.291 5.937,10.112 5.370,10.890 5.156 C 11.480 4.994,12.240 4.972,12.860 5.100 M7.195 10.880 C 7.899 11.349,9.057 11.725,10.360 11.907 C 10.740 11.960,11.133 11.977,12.000 11.977 C 12.867 11.977,13.260 11.960,13.640 11.907 C 15.329 11.671,16.654 11.147,17.338 10.444 C 17.448 10.332,17.568 10.240,17.607 10.240 C 17.718 10.240,18.624 10.588,19.060 10.799 C 19.908 11.208,20.624 11.781,20.863 12.240 C 21.117 12.729,20.971 13.232,20.424 13.750 C 19.002 15.100,15.631 16.000,12.000 16.000 C 8.369 16.000,4.998 15.100,3.576 13.750 C 3.029 13.232,2.883 12.729,3.137 12.240 C 3.481 11.578,4.548 10.876,6.000 10.357 L 6.420 10.206 6.680 10.458 C 6.823 10.596,7.055 10.786,7.195 10.880 M6.695 12.055 C 6.464 12.130,6.255 12.300,6.128 12.516 C 6.037 12.672,6.020 12.746,6.020 13.000 C 6.020 13.257,6.036 13.327,6.133 13.492 C 6.651 14.374,7.998 14.018,7.998 13.000 C 7.998 12.623,7.792 12.281,7.463 12.112 C 7.265 12.010,6.911 11.984,6.695 12.055 M16.695 12.055 C 16.464 12.130,16.255 12.300,16.128 12.516 C 16.037 12.672,16.020 12.746,16.020 13.000 C 16.020 13.257,16.036 13.327,16.133 13.492 C 16.651 14.374,17.998 14.018,17.998 13.000 C 17.998 12.623,17.792 12.281,17.463 12.112 C 17.265 12.010,16.911 11.984,16.695 12.055 M11.695 13.055 C 11.464 13.130,11.255 13.300,11.128 13.516 C 11.037 13.672,11.020 13.746,11.020 14.000 C 11.020 14.257,11.036 14.327,11.133 14.492 C 11.651 15.374,12.998 15.018,12.998 14.000 C 12.998 13.623,12.792 13.281,12.463 13.112 C 12.265 13.010,11.911 12.984,11.695 13.055 " stroke="none" fill-rule="evenodd" fill="black"></path></svg>