<svg xmlns="http://www.w3.org/2000/svg" width="24" height="24" viewBox="0 0 24 24" fill="none" stroke="currentColor" stroke-width="2" stroke-linecap="round" stroke-linejoin="round"><path d="M2.670 2.061 C 2.448 2.142,2.250 2.309,2.128 2.516 C 2.036 2.672,2.020 2.745,2.021 3.000 C 2.021 3.212,2.043 3.341,2.095 3.440 C 2.135 3.517,3.066 4.480,4.164 5.580 L 6.160 7.581 6.099 7.898 C 6.066 8.072,6.030 8.223,6.021 8.233 C 6.011 8.243,5.800 8.318,5.551 8.400 C 3.733 9.001,2.257 9.953,1.565 10.970 C 1.385 11.235,1.175 11.691,1.092 12.000 C 1.042 12.185,1.022 12.404,1.022 12.760 C 1.024 13.214,1.035 13.293,1.148 13.620 C 1.725 15.292,3.581 16.562,6.620 17.362 C 6.884 17.431,7.105 17.493,7.112 17.499 C 7.118 17.505,6.877 18.005,6.576 18.609 C 5.969 19.829,5.935 19.943,6.061 20.322 C 6.189 20.707,6.594 21.000,7.000 21.000 C 7.080 21.000,7.232 20.971,7.336 20.935 C 7.692 20.814,7.773 20.695,8.515 19.210 C 8.892 18.457,9.205 17.840,9.210 17.840 C 9.216 17.841,9.490 17.868,9.820 17.902 C 10.994 18.021,13.339 18.018,14.222 17.896 L 14.383 17.873 15.322 19.282 C 15.838 20.057,16.316 20.734,16.385 20.786 C 16.930 21.202,17.711 20.969,17.939 20.322 C 18.065 19.965,18.003 19.701,17.677 19.212 C 17.487 18.925,17.589 19.018,18.945 20.366 C 19.756 21.172,20.483 21.865,20.560 21.905 C 20.659 21.957,20.788 21.979,21.000 21.979 C 21.258 21.980,21.327 21.964,21.492 21.867 C 21.968 21.587,22.139 20.967,21.865 20.508 C 21.810 20.416,17.665 16.243,12.653 11.235 C 4.231 2.820,3.525 2.125,3.343 2.065 C 3.107 1.987,2.874 1.986,2.670 2.061 M11.340 3.041 C 10.389 3.142,9.524 3.453,8.692 3.995 C 8.162 4.340,7.967 4.649,8.009 5.080 C 8.046 5.464,8.326 5.818,8.683 5.933 C 9.066 6.057,9.224 6.018,9.796 5.661 C 10.542 5.195,11.106 5.029,11.960 5.025 C 12.605 5.021,13.013 5.096,13.543 5.317 C 14.824 5.852,15.739 7.010,15.940 8.352 C 15.967 8.535,15.981 8.765,15.969 8.864 C 15.952 9.020,15.927 9.059,15.785 9.156 C 15.522 9.337,15.247 9.463,14.819 9.600 C 14.232 9.788,14.195 9.805,14.027 9.956 C 13.794 10.167,13.702 10.372,13.703 10.680 C 13.705 11.109,13.910 11.427,14.300 11.605 C 14.519 11.705,14.797 11.697,15.200 11.579 C 16.160 11.297,16.838 10.941,17.327 10.462 C 17.451 10.340,17.581 10.240,17.615 10.240 C 17.719 10.240,18.639 10.595,19.060 10.799 C 19.908 11.208,20.624 11.781,20.863 12.240 C 21.023 12.548,21.023 12.890,20.864 13.200 C 20.641 13.633,20.063 14.114,19.161 14.614 C 18.805 14.812,18.627 15.024,18.558 15.334 C 18.459 15.776,18.670 16.205,19.091 16.415 C 19.532 16.636,19.883 16.547,20.780 15.989 C 22.149 15.137,22.916 14.063,22.989 12.893 C 23.081 11.412,22.052 10.068,20.060 9.069 C 19.481 8.778,19.212 8.666,18.545 8.438 C 18.239 8.333,17.974 8.223,17.955 8.194 C 17.937 8.164,17.921 8.093,17.921 8.035 C 17.919 7.676,17.524 6.549,17.214 6.020 C 16.005 3.951,13.712 2.789,11.340 3.041 M7.209 10.892 C 7.919 11.344,8.833 11.656,9.984 11.841 L 10.500 11.924 11.066 12.488 L 11.632 13.051 11.446 13.179 C 11.344 13.250,11.206 13.394,11.140 13.500 C 11.034 13.671,11.020 13.730,11.020 13.997 C 11.020 14.257,11.036 14.327,11.133 14.492 C 11.338 14.841,11.705 15.029,12.105 14.988 C 12.444 14.953,12.741 14.756,12.886 14.470 L 12.942 14.361 13.700 15.120 C 14.118 15.538,14.441 15.880,14.420 15.881 C 14.398 15.881,14.020 15.908,13.580 15.940 C 10.319 16.181,6.967 15.666,4.830 14.595 C 4.009 14.184,3.374 13.660,3.138 13.199 C 2.979 12.888,2.978 12.545,3.137 12.240 C 3.480 11.581,4.565 10.867,6.000 10.357 L 6.420 10.208 6.700 10.477 C 6.854 10.625,7.083 10.812,7.209 10.892 M6.695 12.055 C 6.464 12.130,6.255 12.300,6.128 12.516 C 6.037 12.672,6.020 12.746,6.020 13.000 C 6.020 13.257,6.036 13.327,6.133 13.492 C 6.651 14.374,7.998 14.018,7.998 13.000 C 7.998 12.623,7.792 12.281,7.463 12.112 C 7.265 12.010,6.911 11.984,6.695 12.055 M16.695 12.055 C 16.464 12.130,16.255 12.300,16.128 12.516 C 16.037 12.672,16.020 12.746,16.020 13.000 C 16.020 13.257,16.036 13.327,16.133 13.492 C 16.651 14.374,17.998 14.018,17.998 13.000 C 17.998 12.623,17.792 12.281,17.463 12.112 C 17.265 12.010,16.911 11.984,16.695 12.055 " stroke="none" fill-rule="evenodd" fill="black"></path></svg>