<svg xmlns="http://www.w3.org/2000/svg" width="24" height="24" viewBox="0 0 24 24" fill="none" stroke="currentColor" stroke-width="2" stroke-linecap="round" stroke-linejoin="round"><path d="M11.340 3.024 C 10.432 3.118,9.865 3.233,9.160 3.466 C 7.260 4.094,5.614 5.359,4.468 7.073 C 4.128 7.581,3.667 8.541,3.461 9.169 C 3.157 10.094,2.970 11.255,3.008 11.977 C 3.028 12.356,3.140 12.600,3.381 12.783 C 3.669 13.003,3.538 12.996,7.408 12.998 L 10.996 13.000 11.009 15.790 L 11.021 18.580 11.115 18.860 C 11.444 19.849,12.185 20.582,13.160 20.886 C 13.594 21.021,14.406 21.021,14.840 20.886 C 15.827 20.579,16.584 19.821,16.885 18.840 C 16.955 18.611,16.977 18.440,16.978 18.120 C 16.980 17.733,16.971 17.686,16.871 17.514 C 16.568 16.998,15.883 16.854,15.405 17.205 C 15.169 17.379,15.047 17.609,15.002 17.966 C 14.981 18.130,14.945 18.314,14.922 18.375 C 14.851 18.561,14.677 18.758,14.484 18.872 C 14.328 18.963,14.254 18.980,14.000 18.980 C 13.746 18.980,13.672 18.963,13.516 18.872 C 13.415 18.813,13.284 18.700,13.225 18.623 C 12.996 18.323,13.000 18.373,13.000 15.575 L 13.000 13.000 16.590 12.998 C 20.463 12.996,20.331 13.003,20.619 12.783 C 20.860 12.600,20.972 12.356,20.992 11.977 C 21.030 11.255,20.842 10.092,20.538 9.169 C 19.485 5.966,16.680 3.608,13.320 3.101 C 12.911 3.039,11.662 2.991,11.340 3.024 M13.102 5.098 C 15.581 5.473,17.715 7.237,18.573 9.620 C 18.719 10.025,18.851 10.520,18.896 10.830 L 18.921 11.000 12.000 11.000 L 5.079 11.000 5.104 10.830 C 5.149 10.520,5.281 10.025,5.427 9.620 C 6.127 7.675,7.675 6.127,9.620 5.427 C 10.250 5.200,10.715 5.102,11.540 5.023 C 11.813 4.997,12.726 5.041,13.102 5.098 " stroke="none" fill-rule="evenodd" fill="black"></path></svg>