<svg xmlns="http://www.w3.org/2000/svg" width="24" height="24" viewBox="0 0 24 24" fill="none" stroke="currentColor" stroke-width="2" stroke-linecap="round" stroke-linejoin="round"><path d="M17.700 4.050 C 17.519 4.115,6.160 11.220,6.005 11.365 C 5.717 11.635,5.623 12.117,5.789 12.480 C 5.847 12.607,6.114 12.901,6.695 13.479 L 7.518 14.297 6.529 15.299 C 5.458 16.383,5.325 16.557,5.131 17.140 C 5.039 17.419,5.025 17.527,5.023 17.980 C 5.021 18.416,5.036 18.548,5.114 18.800 C 5.381 19.659,5.975 20.349,6.780 20.739 C 7.829 21.247,8.944 21.117,9.869 20.380 C 10.289 20.046,10.440 19.799,10.440 19.447 C 10.439 19.157,10.369 18.968,10.187 18.770 C 9.971 18.535,9.765 18.442,9.460 18.442 C 9.178 18.442,8.978 18.523,8.720 18.740 C 8.351 19.051,8.022 19.115,7.660 18.946 C 7.450 18.848,7.213 18.616,7.094 18.392 C 6.996 18.207,6.998 17.826,7.098 17.620 C 7.143 17.526,7.536 17.096,8.046 16.580 L 8.917 15.700 9.649 16.426 C 10.051 16.825,10.439 17.182,10.512 17.218 C 10.838 17.381,11.303 17.318,11.584 17.071 C 11.716 16.955,18.769 5.723,18.925 5.380 C 19.079 5.043,18.986 4.576,18.710 4.290 C 18.480 4.052,18.006 3.939,17.700 4.050 M14.805 8.230 C 14.756 8.323,10.798 14.655,10.775 14.678 C 10.765 14.688,10.209 14.149,9.539 13.479 C 8.870 12.810,8.335 12.249,8.352 12.232 C 8.380 12.204,14.807 8.167,14.831 8.162 C 14.838 8.161,14.826 8.192,14.805 8.230 " stroke="none" fill-rule="evenodd" fill="black"></path></svg>