<svg xmlns="http://www.w3.org/2000/svg" width="24" height="24" viewBox="0 0 24 24" fill="none" stroke="currentColor" stroke-width="2" stroke-linecap="round" stroke-linejoin="round"><path d="M2.670 2.061 C 2.448 2.142,2.250 2.309,2.128 2.516 C 2.036 2.672,2.020 2.745,2.021 3.000 C 2.021 3.212,2.043 3.341,2.095 3.440 C 2.136 3.517,2.797 4.211,3.565 4.981 L 4.961 6.382 4.727 6.701 C 3.793 7.976,3.201 9.544,3.038 11.173 C 2.969 11.861,2.998 12.261,3.133 12.492 C 3.256 12.702,3.450 12.864,3.670 12.943 C 3.791 12.986,4.515 12.997,7.408 12.998 L 10.996 13.000 11.009 15.790 L 11.021 18.580 11.115 18.860 C 11.444 19.849,12.185 20.582,13.160 20.886 C 13.412 20.964,13.547 20.979,14.000 20.979 C 14.453 20.979,14.588 20.964,14.840 20.886 C 15.816 20.582,16.584 19.820,16.876 18.866 C 16.922 18.715,16.960 18.544,16.960 18.486 C 16.960 18.398,17.233 18.653,18.690 20.106 C 19.642 21.055,20.483 21.865,20.560 21.905 C 20.659 21.957,20.788 21.979,21.000 21.979 C 21.258 21.980,21.327 21.964,21.492 21.867 C 21.968 21.587,22.139 20.967,21.865 20.508 C 21.810 20.416,17.665 16.243,12.653 11.235 C 4.231 2.820,3.525 2.125,3.343 2.065 C 3.107 1.987,2.874 1.986,2.670 2.061 M11.060 3.044 C 10.241 3.133,9.114 3.429,8.434 3.734 C 8.011 3.924,7.779 4.210,7.733 4.598 C 7.686 4.993,7.947 5.447,8.315 5.610 C 8.599 5.737,8.874 5.714,9.340 5.526 C 10.689 4.983,12.032 4.866,13.498 5.167 C 15.125 5.500,16.696 6.536,17.695 7.934 C 18.281 8.755,18.753 9.888,18.900 10.830 L 18.927 11.000 17.410 11.000 C 15.761 11.000,15.657 11.011,15.382 11.221 C 15.302 11.282,15.187 11.415,15.128 11.516 C 15.037 11.672,15.020 11.746,15.020 12.000 C 15.020 12.256,15.036 12.328,15.131 12.489 C 15.256 12.702,15.449 12.864,15.670 12.943 C 15.889 13.021,20.111 13.021,20.330 12.943 C 20.550 12.864,20.744 12.702,20.867 12.492 C 21.002 12.262,21.031 11.870,20.963 11.176 C 20.655 7.998,18.734 5.251,15.860 3.876 C 15.042 3.486,14.254 3.245,13.320 3.101 C 12.810 3.022,11.554 2.991,11.060 3.044 M8.000 9.420 L 9.580 11.000 7.329 11.000 L 5.079 11.000 5.104 10.830 C 5.190 10.236,5.481 9.374,5.798 8.773 C 6.008 8.374,6.349 7.840,6.393 7.840 C 6.408 7.840,7.131 8.551,8.000 9.420 M15.451 17.174 C 15.225 17.324,15.051 17.592,15.021 17.835 C 14.948 18.426,14.820 18.674,14.486 18.871 C 14.328 18.964,14.255 18.980,14.000 18.980 C 13.746 18.980,13.672 18.963,13.516 18.872 C 13.415 18.813,13.284 18.700,13.225 18.623 C 13.002 18.331,13.000 18.309,13.000 16.285 L 13.000 14.420 14.317 15.737 L 15.634 17.053 15.451 17.174 " stroke="none" fill-rule="evenodd" fill="black"></path></svg>