<svg xmlns="http://www.w3.org/2000/svg" width="24" height="24" viewBox="0 0 24 24" fill="none" stroke="currentColor" stroke-width="2" stroke-linecap="round" stroke-linejoin="round"><path d="M6.695 4.057 C 6.466 4.129,6.256 4.299,6.128 4.516 L 6.020 4.700 6.020 7.720 C 6.020 10.728,6.020 10.742,6.113 11.160 C 6.650 13.599,8.417 15.365,10.840 15.885 C 11.446 16.015,12.554 16.015,13.160 15.885 C 14.369 15.626,15.340 15.109,16.195 14.269 C 17.066 13.414,17.612 12.411,17.887 11.160 C 17.980 10.742,17.980 10.728,17.980 7.720 L 17.980 4.700 17.871 4.514 C 17.479 3.848,16.521 3.848,16.129 4.514 L 16.020 4.700 15.997 7.640 C 15.977 10.178,15.965 10.618,15.908 10.855 C 15.529 12.434,14.337 13.599,12.773 13.917 C 10.664 14.347,8.607 13.002,8.092 10.855 C 8.035 10.618,8.023 10.178,8.003 7.640 L 7.980 4.700 7.872 4.516 C 7.628 4.101,7.150 3.915,6.695 4.057 M4.695 18.057 C 4.466 18.129,4.256 18.299,4.128 18.516 C 4.037 18.672,4.020 18.746,4.020 19.000 C 4.020 19.256,4.036 19.328,4.131 19.489 C 4.256 19.702,4.449 19.864,4.670 19.943 C 4.893 20.022,19.107 20.022,19.330 19.943 C 19.551 19.864,19.744 19.702,19.869 19.489 C 19.964 19.328,19.980 19.256,19.980 19.000 C 19.980 18.746,19.963 18.672,19.872 18.516 C 19.740 18.293,19.533 18.128,19.290 18.055 C 19.027 17.976,4.947 17.978,4.695 18.057 " stroke="none" fill-rule="evenodd" fill="black"></path></svg>