<svg xmlns="http://www.w3.org/2000/svg" width="24" height="24" viewBox="0 0 24 24" fill="none" stroke="currentColor" stroke-width="2" stroke-linecap="round" stroke-linejoin="round"><path d="M11.714 2.037 C 11.655 2.056,11.549 2.105,11.477 2.146 C 11.292 2.252,9.153 4.932,9.060 5.174 C 8.925 5.529,9.043 5.974,9.345 6.239 C 9.596 6.460,9.719 6.492,10.390 6.512 L 11.000 6.530 11.000 10.383 L 11.000 14.236 9.500 13.336 L 8.000 12.436 8.000 11.588 L 8.001 10.740 8.142 10.644 C 8.347 10.504,8.669 10.139,8.779 9.922 C 8.993 9.499,9.051 9.001,8.940 8.529 C 8.858 8.182,8.720 7.927,8.465 7.653 C 7.659 6.786,6.341 6.786,5.535 7.653 C 4.824 8.419,4.816 9.562,5.516 10.328 C 5.626 10.449,5.780 10.591,5.858 10.644 L 5.999 10.740 6.000 11.943 C 6.000 13.302,6.016 13.404,6.279 13.674 C 6.373 13.771,7.220 14.304,8.515 15.081 L 10.600 16.332 10.391 16.470 C 9.772 16.877,9.332 17.460,9.114 18.160 C 8.979 18.594,8.979 19.406,9.114 19.840 C 9.421 20.826,10.174 21.579,11.160 21.886 C 11.412 21.964,11.547 21.979,12.000 21.979 C 12.453 21.979,12.588 21.964,12.840 21.886 C 13.826 21.579,14.579 20.826,14.886 19.840 C 15.021 19.406,15.021 18.594,14.886 18.160 C 14.635 17.355,14.078 16.693,13.330 16.313 L 13.000 16.145 13.000 15.660 L 13.000 15.176 15.273 14.267 C 18.188 13.101,17.973 13.289,17.993 11.894 L 18.005 11.008 18.182 10.982 C 18.423 10.946,18.713 10.741,18.859 10.503 L 18.980 10.306 18.980 9.003 L 18.980 7.700 18.872 7.516 C 18.740 7.293,18.533 7.128,18.290 7.055 C 18.030 6.977,15.970 6.977,15.710 7.055 C 15.467 7.128,15.260 7.293,15.128 7.516 L 15.020 7.700 15.020 9.003 L 15.020 10.306 15.141 10.503 C 15.288 10.742,15.578 10.946,15.821 10.982 L 16.000 11.009 16.000 11.417 L 16.000 11.825 14.530 12.412 C 13.721 12.736,13.046 13.000,13.030 13.000 C 13.013 13.000,13.000 11.544,13.000 9.765 L 13.000 6.530 13.610 6.512 C 14.313 6.492,14.483 6.440,14.724 6.173 C 14.996 5.870,15.071 5.450,14.914 5.100 C 14.884 5.034,14.363 4.357,13.755 3.596 C 12.799 2.399,12.624 2.199,12.464 2.122 C 12.263 2.025,11.884 1.981,11.714 2.037 M12.310 18.061 C 12.688 18.173,13.000 18.598,13.000 19.001 C 13.000 19.331,12.784 19.696,12.484 19.872 C 12.328 19.963,12.254 19.980,12.000 19.980 C 11.746 19.980,11.672 19.963,11.516 19.872 C 10.935 19.530,10.833 18.774,11.304 18.303 C 11.583 18.024,11.916 17.944,12.310 18.061 " stroke="none" fill-rule="evenodd" fill="black"></path></svg>