<svg xmlns="http://www.w3.org/2000/svg" width="24" height="24" viewBox="0 0 24 24" fill="none" stroke="currentColor" stroke-width="2" stroke-linecap="round" stroke-linejoin="round"><path d="M11.400 2.044 C 9.761 2.229,8.261 3.290,7.526 4.785 C 7.158 5.533,7.020 6.136,7.020 7.000 C 7.020 7.670,7.078 8.044,7.268 8.600 C 7.846 10.291,9.253 11.525,11.040 11.907 C 11.511 12.008,12.489 12.008,12.960 11.907 C 14.488 11.580,15.748 10.630,16.433 9.288 C 16.838 8.494,16.980 7.899,16.980 7.000 C 16.980 6.101,16.838 5.506,16.433 4.713 C 15.794 3.461,14.604 2.510,13.240 2.162 C 12.669 2.016,12.019 1.974,11.400 2.044 M12.861 4.129 C 13.804 4.405,14.584 5.183,14.875 6.139 C 14.958 6.412,14.973 6.542,14.973 7.000 C 14.973 7.458,14.958 7.588,14.875 7.861 C 14.582 8.822,13.819 9.581,12.840 9.886 C 12.406 10.021,11.594 10.021,11.160 9.886 C 10.181 9.581,9.418 8.822,9.125 7.861 C 9.042 7.588,9.027 7.458,9.027 7.000 C 9.027 6.542,9.042 6.412,9.125 6.139 C 9.456 5.054,10.371 4.245,11.499 4.040 C 11.832 3.980,12.500 4.023,12.861 4.129 M9.400 14.044 C 7.755 14.233,6.261 15.290,5.526 16.785 C 5.333 17.177,5.187 17.599,5.093 18.040 C 5.030 18.334,5.020 18.579,5.020 19.843 L 5.020 21.306 5.141 21.503 C 5.543 22.156,6.457 22.156,6.859 21.503 L 6.980 21.307 7.003 19.883 C 7.025 18.522,7.031 18.446,7.124 18.139 C 7.416 17.185,8.180 16.421,9.139 16.123 C 9.460 16.023,9.461 16.023,11.620 16.002 C 13.737 15.980,13.783 15.978,13.940 15.894 C 14.293 15.703,14.488 15.385,14.488 15.000 C 14.488 14.615,14.293 14.297,13.940 14.106 C 13.782 14.021,13.750 14.020,11.740 14.015 C 10.618 14.011,9.565 14.025,9.400 14.044 M16.695 16.057 C 16.466 16.129,16.256 16.299,16.128 16.516 L 16.020 16.700 16.020 19.503 L 16.020 22.306 16.141 22.503 C 16.543 23.156,17.457 23.156,17.859 22.503 L 17.980 22.306 17.980 19.503 L 17.980 16.700 17.872 16.516 C 17.628 16.101,17.150 15.915,16.695 16.057 M20.695 16.057 C 20.466 16.129,20.256 16.299,20.128 16.516 L 20.020 16.700 20.020 19.503 L 20.020 22.306 20.141 22.503 C 20.543 23.156,21.457 23.156,21.859 22.503 L 21.980 22.306 21.980 19.503 L 21.980 16.700 21.872 16.516 C 21.628 16.101,21.150 15.915,20.695 16.057 " stroke="none" fill-rule="evenodd" fill="black"></path></svg>