<svg xmlns="http://www.w3.org/2000/svg" width="24" height="24" viewBox="0 0 24 24" fill="none" stroke="currentColor" stroke-width="2" stroke-linecap="round" stroke-linejoin="round"><path d="M11.400 2.044 C 9.761 2.229,8.261 3.290,7.526 4.785 C 7.158 5.533,7.020 6.136,7.020 7.000 C 7.020 7.670,7.078 8.044,7.268 8.600 C 7.846 10.291,9.253 11.525,11.040 11.907 C 11.511 12.008,12.489 12.008,12.960 11.907 C 14.488 11.580,15.748 10.630,16.433 9.288 C 16.838 8.494,16.980 7.899,16.980 7.000 C 16.980 6.101,16.838 5.506,16.433 4.713 C 15.794 3.461,14.604 2.510,13.240 2.162 C 12.669 2.016,12.019 1.974,11.400 2.044 M12.861 4.129 C 13.804 4.405,14.584 5.183,14.875 6.139 C 14.958 6.412,14.973 6.542,14.973 7.000 C 14.973 7.458,14.958 7.588,14.875 7.861 C 14.582 8.822,13.819 9.581,12.840 9.886 C 12.406 10.021,11.594 10.021,11.160 9.886 C 10.181 9.581,9.418 8.822,9.125 7.861 C 9.042 7.588,9.027 7.458,9.027 7.000 C 9.027 6.542,9.042 6.412,9.125 6.139 C 9.456 5.054,10.371 4.245,11.499 4.040 C 11.832 3.980,12.500 4.023,12.861 4.129 M9.400 14.043 C 7.754 14.234,6.261 15.290,5.526 16.785 C 5.333 17.177,5.187 17.599,5.093 18.040 C 5.030 18.334,5.020 18.579,5.020 19.843 L 5.020 21.306 5.141 21.503 C 5.543 22.156,6.457 22.156,6.859 21.503 L 6.980 21.307 7.003 19.883 C 7.025 18.522,7.031 18.446,7.124 18.139 C 7.416 17.185,8.182 16.419,9.139 16.124 C 9.452 16.027,9.500 16.024,11.120 16.002 C 12.723 15.981,12.785 15.977,12.940 15.894 C 13.293 15.703,13.488 15.385,13.488 15.000 C 13.488 14.615,13.293 14.297,12.940 14.106 C 12.784 14.022,12.737 14.020,11.240 14.014 C 10.393 14.011,9.565 14.024,9.400 14.043 M18.340 14.060 C 17.913 14.130,17.642 14.217,17.275 14.399 C 16.236 14.915,15.537 15.720,15.185 16.807 C 14.791 18.021,15.052 19.450,15.851 20.460 C 16.124 20.805,16.714 21.363,17.729 22.233 C 18.558 22.945,18.617 22.980,19.000 22.979 C 19.211 22.979,19.339 22.957,19.433 22.907 C 19.586 22.824,20.750 21.830,21.465 21.171 C 22.256 20.443,22.645 19.845,22.868 19.015 C 22.962 18.669,22.975 18.543,22.976 18.000 C 22.977 17.486,22.962 17.325,22.890 17.059 C 22.555 15.825,21.863 14.972,20.736 14.406 C 20.015 14.045,19.175 13.924,18.340 14.060 M19.383 16.043 C 19.962 16.149,20.496 16.556,20.760 17.093 C 20.848 17.273,20.941 17.528,20.964 17.660 C 21.049 18.125,20.934 18.671,20.660 19.101 C 20.538 19.293,19.979 19.839,19.309 20.421 L 18.997 20.691 18.909 20.614 C 17.924 19.754,17.524 19.372,17.355 19.130 C 17.082 18.739,16.949 18.129,17.035 17.660 C 17.107 17.269,17.361 16.802,17.640 16.550 C 18.143 16.095,18.729 15.924,19.383 16.043 M18.695 17.057 C 18.466 17.129,18.256 17.299,18.128 17.516 C 18.036 17.672,18.020 17.745,18.021 18.000 C 18.022 18.332,18.101 18.533,18.306 18.728 C 18.785 19.181,19.580 19.046,19.893 18.460 C 20.025 18.211,20.015 17.760,19.872 17.516 C 19.628 17.101,19.150 16.915,18.695 17.057 " stroke="none" fill-rule="evenodd" fill="black"></path></svg>