<svg xmlns="http://www.w3.org/2000/svg" width="24" height="24" viewBox="0 0 24 24" fill="none" stroke="currentColor" stroke-width="2" stroke-linecap="round" stroke-linejoin="round"><path d="M10.349 2.044 C 7.535 2.178,5.738 2.713,4.406 3.814 C 3.787 4.326,3.247 5.075,2.885 5.924 C 2.462 6.914,2.220 8.032,2.073 9.680 C 2.003 10.461,2.003 13.539,2.073 14.320 C 2.320 17.085,2.911 18.708,4.105 19.903 C 5.109 20.909,6.543 21.520,8.560 21.800 C 9.623 21.948,10.220 21.979,12.000 21.979 C 14.107 21.979,15.130 21.900,16.400 21.639 C 16.939 21.528,17.881 21.218,18.332 21.002 C 20.302 20.062,21.403 18.297,21.800 15.440 C 21.948 14.377,21.979 13.780,21.979 12.000 C 21.979 10.220,21.948 9.623,21.800 8.560 C 21.494 6.357,20.759 4.778,19.594 3.814 C 18.657 3.040,17.469 2.539,15.960 2.283 C 14.520 2.039,12.378 1.947,10.349 2.044 M13.500 4.041 C 16.040 4.168,17.512 4.591,18.435 5.458 C 19.509 6.468,19.999 8.517,19.999 12.000 C 19.999 14.986,19.644 16.885,18.873 18.025 L 18.707 18.270 18.477 17.805 C 18.080 17.001,17.506 16.341,16.800 15.874 C 16.046 15.375,15.396 15.135,14.552 15.043 C 14.038 14.986,9.962 14.986,9.448 15.043 C 7.683 15.236,6.162 16.345,5.439 17.967 L 5.302 18.274 5.153 18.067 C 4.378 16.990,4.001 15.003,4.001 12.000 C 4.001 10.005,4.176 8.385,4.505 7.320 C 5.052 5.555,6.056 4.719,8.129 4.302 C 9.412 4.045,11.521 3.942,13.500 4.041 M11.358 6.061 C 10.230 6.237,9.143 6.974,8.569 7.953 C 7.320 10.083,8.233 12.785,10.512 13.704 C 12.558 14.528,14.877 13.538,15.704 11.488 C 16.090 10.530,16.090 9.469,15.705 8.516 C 15.172 7.197,14.001 6.269,12.605 6.058 C 12.144 5.989,11.816 5.990,11.358 6.061 M12.523 8.073 C 13.262 8.266,13.850 8.924,13.967 9.690 C 14.067 10.343,13.873 10.933,13.403 11.404 C 13.002 11.807,12.547 12.000,12.000 12.000 C 11.485 12.000,11.038 11.822,10.653 11.465 C 9.323 10.229,10.189 8.005,12.000 8.005 C 12.143 8.005,12.378 8.036,12.523 8.073 M14.861 17.122 C 15.784 17.411,16.575 18.178,16.845 19.047 C 16.962 19.422,16.966 19.414,16.570 19.532 C 15.515 19.846,14.012 20.000,12.000 20.000 C 9.988 20.000,8.485 19.846,7.430 19.532 C 7.162 19.452,7.080 19.411,7.080 19.357 C 7.080 19.221,7.232 18.803,7.372 18.553 C 7.819 17.757,8.609 17.196,9.499 17.042 C 9.609 17.023,10.789 17.011,12.120 17.015 L 14.540 17.022 14.861 17.122 " stroke="none" fill-rule="evenodd" fill="black"></path></svg>