<svg xmlns="http://www.w3.org/2000/svg" width="24" height="24" viewBox="0 0 24 24" fill="none" stroke="currentColor" stroke-width="2" stroke-linecap="round" stroke-linejoin="round"><path d="M11.400 2.044 C 9.761 2.229,8.261 3.290,7.526 4.785 C 7.158 5.533,7.020 6.136,7.020 7.000 C 7.020 7.670,7.078 8.044,7.268 8.600 C 7.846 10.291,9.253 11.525,11.040 11.907 C 11.511 12.008,12.489 12.008,12.960 11.907 C 14.488 11.580,15.748 10.630,16.433 9.288 C 16.838 8.494,16.980 7.899,16.980 7.000 C 16.980 6.101,16.838 5.506,16.433 4.713 C 15.794 3.461,14.604 2.510,13.240 2.162 C 12.669 2.016,12.019 1.974,11.400 2.044 M12.861 4.129 C 13.804 4.405,14.584 5.183,14.875 6.139 C 14.958 6.412,14.973 6.542,14.973 7.000 C 14.973 7.458,14.958 7.588,14.875 7.861 C 14.582 8.822,13.819 9.581,12.840 9.886 C 12.406 10.021,11.594 10.021,11.160 9.886 C 10.181 9.581,9.418 8.822,9.125 7.861 C 9.042 7.588,9.027 7.458,9.027 7.000 C 9.027 6.542,9.042 6.412,9.125 6.139 C 9.456 5.054,10.371 4.245,11.499 4.040 C 11.832 3.980,12.500 4.023,12.861 4.129 M9.400 14.044 C 7.761 14.229,6.261 15.290,5.526 16.785 C 5.333 17.177,5.187 17.599,5.093 18.040 C 5.030 18.334,5.020 18.579,5.020 19.843 L 5.020 21.306 5.141 21.503 C 5.543 22.156,6.457 22.156,6.859 21.503 L 6.980 21.307 7.003 19.883 C 7.025 18.522,7.031 18.446,7.124 18.139 C 7.416 17.185,8.180 16.421,9.139 16.123 L 9.460 16.023 11.880 16.002 L 14.300 15.980 14.492 15.867 C 15.248 15.423,15.123 14.306,14.290 14.055 C 14.144 14.011,13.667 14.001,11.904 14.005 C 10.692 14.008,9.565 14.026,9.400 14.044 M20.640 16.068 C 20.488 16.121,20.196 16.394,18.731 17.853 L 17.002 19.575 16.271 18.855 C 15.655 18.247,15.509 18.123,15.343 18.067 C 14.865 17.905,14.383 18.083,14.128 18.516 C 14.036 18.672,14.020 18.745,14.021 19.000 C 14.021 19.213,14.043 19.341,14.095 19.440 C 14.197 19.633,16.297 21.740,16.520 21.873 C 16.673 21.964,16.745 21.980,17.000 21.979 C 17.212 21.979,17.341 21.957,17.440 21.905 C 17.632 21.805,21.739 17.705,21.873 17.480 C 21.964 17.328,21.980 17.254,21.980 17.000 C 21.980 16.746,21.963 16.672,21.872 16.516 C 21.617 16.083,21.121 15.903,20.640 16.068 " stroke="none" fill-rule="evenodd" fill="black"></path></svg>