<svg xmlns="http://www.w3.org/2000/svg" width="24" height="24" viewBox="0 0 24 24" fill="none" stroke="currentColor" stroke-width="2" stroke-linecap="round" stroke-linejoin="round"><path d="M8.400 2.044 C 6.761 2.229,5.261 3.290,4.526 4.785 C 4.158 5.533,4.020 6.136,4.020 7.000 C 4.020 7.670,4.078 8.044,4.268 8.600 C 4.846 10.291,6.253 11.525,8.040 11.907 C 8.511 12.008,9.489 12.008,9.960 11.907 C 11.488 11.580,12.748 10.630,13.433 9.288 C 13.838 8.494,13.980 7.899,13.980 7.000 C 13.980 6.101,13.838 5.506,13.433 4.713 C 12.794 3.461,11.604 2.510,10.240 2.162 C 9.669 2.016,9.019 1.974,8.400 2.044 M15.773 2.156 C 15.062 2.336,14.775 3.160,15.220 3.743 C 15.362 3.930,15.509 4.017,15.900 4.144 C 16.872 4.462,17.586 5.187,17.886 6.160 C 17.962 6.407,17.979 6.551,17.979 6.980 C 17.980 7.595,17.934 7.811,17.699 8.300 C 17.319 9.090,16.746 9.580,15.845 9.885 C 15.450 10.018,15.280 10.138,15.138 10.379 C 14.773 11.002,15.189 11.803,15.911 11.869 C 16.104 11.886,16.211 11.866,16.568 11.747 C 17.329 11.492,17.948 11.121,18.477 10.602 C 19.522 9.578,20.044 8.273,19.989 6.825 C 19.966 6.222,19.902 5.855,19.734 5.366 C 19.335 4.200,18.395 3.120,17.301 2.570 C 16.647 2.241,16.063 2.083,15.773 2.156 M9.861 4.129 C 10.804 4.405,11.584 5.183,11.875 6.139 C 11.958 6.412,11.973 6.542,11.973 7.000 C 11.973 7.458,11.958 7.588,11.875 7.861 C 11.582 8.822,10.819 9.581,9.840 9.886 C 9.406 10.021,8.594 10.021,8.160 9.886 C 7.181 9.581,6.418 8.822,6.125 7.861 C 6.042 7.588,6.027 7.458,6.027 7.000 C 6.027 6.542,6.042 6.412,6.125 6.139 C 6.456 5.054,7.371 4.245,8.499 4.040 C 8.832 3.980,9.500 4.023,9.861 4.129 M6.400 14.044 C 4.761 14.229,3.261 15.290,2.526 16.785 C 2.333 17.177,2.187 17.599,2.093 18.040 C 2.030 18.334,2.020 18.579,2.020 19.843 L 2.020 21.306 2.141 21.503 C 2.543 22.156,3.457 22.156,3.859 21.503 L 3.980 21.307 4.003 19.883 C 4.025 18.522,4.031 18.446,4.124 18.139 C 4.420 17.173,5.215 16.388,6.178 16.112 C 6.499 16.020,6.510 16.020,9.000 16.020 C 11.490 16.020,11.501 16.020,11.822 16.112 C 12.785 16.388,13.580 17.173,13.876 18.139 C 13.969 18.446,13.975 18.522,13.997 19.883 L 14.020 21.307 14.141 21.503 C 14.543 22.156,15.457 22.156,15.859 21.503 L 15.980 21.306 15.980 19.843 C 15.980 18.579,15.970 18.334,15.907 18.040 C 15.625 16.721,14.863 15.576,13.800 14.874 C 13.046 14.375,12.396 14.135,11.552 14.043 C 11.092 13.992,6.849 13.994,6.400 14.044 M17.620 14.235 C 17.123 14.461,16.891 14.970,17.057 15.470 C 17.167 15.802,17.423 16.020,17.853 16.148 C 18.639 16.381,19.317 16.956,19.682 17.700 C 19.959 18.264,19.970 18.339,19.996 19.903 L 20.020 21.307 20.141 21.503 C 20.543 22.156,21.457 22.156,21.859 21.503 L 21.980 21.306 21.980 19.843 C 21.980 18.589,21.970 18.333,21.909 18.049 C 21.519 16.243,20.269 14.839,18.552 14.277 C 18.137 14.142,17.852 14.129,17.620 14.235 " stroke="none" fill-rule="evenodd" fill="black"></path></svg>