<svg xmlns="http://www.w3.org/2000/svg" width="24" height="24" viewBox="0 0 24 24" fill="none" stroke="currentColor" stroke-width="2" stroke-linecap="round" stroke-linejoin="round"><path d="M5.499 3.043 C 4.383 3.230,3.461 4.048,3.114 5.160 C 3.023 5.451,3.020 5.503,3.020 6.883 L 3.020 8.306 3.141 8.503 C 3.543 9.156,4.457 9.156,4.859 8.503 L 4.980 8.307 5.000 7.023 C 5.023 5.581,5.025 5.571,5.321 5.283 C 5.592 5.021,5.716 5.000,7.037 4.998 C 8.266 4.996,8.356 4.984,8.619 4.783 C 8.696 4.725,8.808 4.592,8.869 4.489 C 8.964 4.328,8.980 4.256,8.980 4.000 C 8.980 3.746,8.963 3.672,8.872 3.516 C 8.813 3.415,8.698 3.282,8.618 3.221 C 8.350 3.016,8.216 3.000,6.904 3.005 C 6.242 3.007,5.609 3.025,5.499 3.043 M15.695 3.055 C 15.464 3.130,15.255 3.300,15.128 3.516 C 15.037 3.672,15.020 3.746,15.020 4.000 C 15.020 4.256,15.036 4.328,15.131 4.489 C 15.192 4.592,15.304 4.725,15.381 4.783 C 15.644 4.984,15.734 4.996,16.963 4.998 C 18.284 5.000,18.408 5.021,18.679 5.283 C 18.975 5.571,18.977 5.581,19.000 7.023 L 19.020 8.307 19.141 8.503 C 19.543 9.156,20.457 9.156,20.859 8.503 L 20.980 8.306 20.980 6.883 C 20.980 5.503,20.977 5.451,20.886 5.160 C 20.581 4.181,19.825 3.421,18.861 3.124 C 18.551 3.028,18.495 3.025,17.200 3.014 C 16.166 3.005,15.822 3.014,15.695 3.055 M11.499 6.040 C 10.363 6.246,9.460 7.049,9.114 8.160 C 8.979 8.594,8.979 9.406,9.114 9.840 C 9.421 10.826,10.174 11.579,11.160 11.886 C 11.594 12.021,12.406 12.021,12.840 11.886 C 13.826 11.579,14.579 10.826,14.886 9.840 C 15.021 9.406,15.021 8.594,14.886 8.160 C 14.581 7.179,13.810 6.407,12.861 6.129 C 12.500 6.023,11.832 5.980,11.499 6.040 M12.310 8.061 C 12.688 8.173,13.000 8.598,13.000 9.001 C 13.000 9.331,12.784 9.696,12.484 9.872 C 12.328 9.963,12.254 9.980,12.000 9.980 C 11.746 9.980,11.672 9.963,11.516 9.872 C 10.935 9.530,10.833 8.774,11.304 8.303 C 11.583 8.024,11.916 7.944,12.310 8.061 M9.499 13.042 C 8.375 13.236,7.454 14.055,7.115 15.160 C 7.045 15.390,7.023 15.559,7.022 15.883 C 7.020 16.285,7.026 16.315,7.141 16.503 C 7.537 17.147,8.457 17.156,8.849 16.520 C 8.927 16.392,8.971 16.249,8.999 16.031 C 9.049 15.637,9.114 15.485,9.318 15.287 C 9.616 14.997,9.592 15.000,11.980 15.000 C 14.386 15.000,14.387 15.000,14.679 15.283 C 14.886 15.485,14.951 15.636,15.001 16.031 C 15.049 16.410,15.184 16.647,15.452 16.828 C 15.923 17.144,16.554 16.998,16.859 16.503 C 16.974 16.315,16.980 16.285,16.978 15.883 C 16.977 15.559,16.955 15.390,16.885 15.160 C 16.587 14.187,15.830 13.425,14.861 13.122 L 14.540 13.022 12.120 13.015 C 10.789 13.011,9.609 13.023,9.499 13.042 M3.695 15.057 C 3.466 15.129,3.256 15.299,3.128 15.516 L 3.020 15.700 3.020 17.120 C 3.020 18.497,3.023 18.549,3.114 18.840 C 3.419 19.817,4.158 20.563,5.140 20.884 C 5.404 20.970,5.495 20.976,6.764 20.991 C 7.647 21.001,8.163 20.992,8.268 20.963 C 8.498 20.901,8.737 20.713,8.867 20.492 C 8.964 20.327,8.980 20.257,8.980 20.000 C 8.980 19.746,8.963 19.672,8.872 19.516 C 8.761 19.327,8.569 19.156,8.373 19.071 C 8.296 19.038,7.854 19.016,6.980 19.001 L 5.700 18.980 5.516 18.872 C 5.327 18.761,5.157 18.570,5.071 18.373 C 5.037 18.295,5.015 17.865,5.001 16.980 L 4.980 15.700 4.872 15.516 C 4.628 15.101,4.150 14.915,3.695 15.057 M19.695 15.057 C 19.466 15.129,19.256 15.299,19.128 15.516 L 19.020 15.700 18.999 16.980 C 18.984 17.854,18.962 18.296,18.929 18.373 C 18.844 18.569,18.673 18.761,18.484 18.872 L 18.300 18.980 17.020 19.001 C 16.146 19.016,15.704 19.038,15.627 19.071 C 15.431 19.156,15.239 19.327,15.128 19.516 C 15.037 19.672,15.020 19.746,15.020 20.000 C 15.020 20.257,15.036 20.327,15.133 20.492 C 15.263 20.713,15.502 20.901,15.732 20.963 C 15.837 20.992,16.353 21.001,17.236 20.991 C 18.505 20.976,18.596 20.970,18.860 20.884 C 19.842 20.563,20.581 19.817,20.886 18.840 C 20.977 18.549,20.980 18.497,20.980 17.120 L 20.980 15.700 20.872 15.516 C 20.628 15.101,20.150 14.915,19.695 15.057 " stroke="none" fill-rule="evenodd" fill="black"></path></svg>