<svg xmlns="http://www.w3.org/2000/svg" width="24" height="24" viewBox="0 0 24 24" fill="none" stroke="currentColor" stroke-width="2" stroke-linecap="round" stroke-linejoin="round"><path d="M11.695 2.057 C 11.466 2.129,11.256 2.299,11.128 2.516 C 11.020 2.699,11.020 2.703,11.020 3.503 L 11.020 4.306 11.141 4.503 C 11.543 5.156,12.457 5.156,12.859 4.503 L 12.980 4.306 12.980 3.503 C 12.980 2.703,12.980 2.699,12.872 2.516 C 12.628 2.101,12.150 1.915,11.695 2.057 M5.270 4.661 C 5.048 4.742,4.850 4.909,4.728 5.116 C 4.636 5.272,4.620 5.345,4.621 5.600 C 4.622 5.990,4.671 6.078,5.175 6.594 C 5.661 7.091,5.842 7.222,6.103 7.269 C 6.816 7.395,7.393 6.820,7.270 6.105 C 7.224 5.840,7.089 5.656,6.571 5.156 C 6.233 4.830,6.087 4.716,5.939 4.666 C 5.708 4.587,5.475 4.586,5.270 4.661 M18.045 4.668 C 17.854 4.736,17.082 5.446,16.880 5.740 C 16.379 6.470,17.011 7.422,17.895 7.270 C 18.154 7.225,18.339 7.091,18.825 6.594 C 19.329 6.078,19.378 5.990,19.379 5.600 C 19.380 5.345,19.364 5.272,19.272 5.116 C 19.018 4.684,18.517 4.501,18.045 4.668 M11.400 7.044 C 9.761 7.229,8.261 8.290,7.526 9.785 C 7.186 10.475,7.023 11.142,7.021 11.843 C 7.020 12.289,7.024 12.313,7.141 12.503 C 7.539 13.151,8.457 13.156,8.852 12.514 C 8.950 12.354,8.972 12.264,9.005 11.883 C 9.026 11.638,9.084 11.299,9.133 11.129 C 9.402 10.199,10.187 9.415,11.139 9.125 C 11.412 9.042,11.542 9.027,12.000 9.027 C 12.458 9.027,12.588 9.042,12.861 9.125 C 13.813 9.415,14.598 10.199,14.867 11.129 C 14.916 11.299,14.974 11.638,14.995 11.883 C 15.028 12.264,15.050 12.354,15.148 12.514 C 15.543 13.156,16.461 13.151,16.859 12.503 C 16.976 12.313,16.980 12.289,16.979 11.843 C 16.975 10.076,15.872 8.354,14.213 7.525 C 13.352 7.095,12.397 6.932,11.400 7.044 M2.695 11.057 C 2.466 11.129,2.256 11.299,2.128 11.516 C 2.037 11.672,2.020 11.746,2.020 12.000 C 2.020 12.256,2.036 12.328,2.131 12.489 C 2.256 12.702,2.449 12.864,2.670 12.943 C 2.878 13.017,4.122 13.017,4.330 12.943 C 4.551 12.864,4.744 12.702,4.869 12.489 C 4.964 12.328,4.980 12.256,4.980 12.000 C 4.980 11.746,4.963 11.672,4.872 11.516 C 4.740 11.293,4.533 11.128,4.290 11.055 C 4.050 10.983,2.928 10.984,2.695 11.057 M19.695 11.057 C 19.466 11.129,19.256 11.299,19.128 11.516 C 19.037 11.672,19.020 11.746,19.020 12.000 C 19.020 12.256,19.036 12.328,19.131 12.489 C 19.256 12.702,19.449 12.864,19.670 12.943 C 19.878 13.017,21.122 13.017,21.330 12.943 C 21.551 12.864,21.744 12.702,21.869 12.489 C 21.964 12.328,21.980 12.256,21.980 12.000 C 21.980 11.746,21.963 11.672,21.872 11.516 C 21.740 11.293,21.533 11.128,21.290 11.055 C 21.050 10.983,19.928 10.984,19.695 11.057 M5.695 15.057 C 5.466 15.129,5.256 15.299,5.128 15.516 L 5.020 15.700 5.020 17.620 C 5.020 19.521,5.021 19.543,5.114 19.840 C 5.422 20.827,6.174 21.579,7.160 21.886 C 7.594 22.021,8.406 22.021,8.840 21.886 C 9.826 21.579,10.578 20.827,10.886 19.840 C 10.979 19.543,10.980 19.521,10.980 17.620 L 10.980 15.700 10.871 15.514 C 10.479 14.848,9.521 14.848,9.129 15.514 L 9.020 15.700 8.999 17.480 C 8.985 18.768,8.965 19.291,8.929 19.373 C 8.842 19.571,8.673 19.761,8.484 19.872 C 8.328 19.963,8.254 19.980,8.000 19.980 C 7.746 19.980,7.672 19.963,7.516 19.872 C 7.328 19.761,7.158 19.572,7.070 19.373 C 7.034 19.291,7.015 18.778,7.000 17.480 L 6.980 15.700 6.872 15.516 C 6.628 15.101,6.150 14.915,5.695 15.057 M12.643 15.067 C 12.256 15.208,11.969 15.664,12.009 16.076 C 12.020 16.197,12.404 17.208,13.080 18.900 C 14.054 21.337,14.147 21.549,14.300 21.702 C 14.553 21.955,14.735 22.000,15.500 22.000 C 16.265 22.000,16.447 21.955,16.700 21.702 C 16.853 21.549,16.946 21.337,17.920 18.900 C 18.596 17.208,18.980 16.197,18.991 16.076 C 19.048 15.489,18.511 14.952,17.923 15.009 C 17.678 15.032,17.379 15.184,17.236 15.358 C 17.163 15.446,16.833 16.219,16.317 17.508 C 15.874 18.615,15.506 19.520,15.500 19.520 C 15.494 19.520,15.126 18.615,14.683 17.508 C 14.167 16.219,13.837 15.446,13.764 15.358 C 13.519 15.061,13.017 14.930,12.643 15.067 " stroke="none" fill-rule="evenodd" fill="black"></path></svg>