<svg xmlns="http://www.w3.org/2000/svg" width="24" height="24" viewBox="0 0 24 24" fill="none" stroke="currentColor" stroke-width="2" stroke-linecap="round" stroke-linejoin="round"><path d="M11.080 2.045 C 9.507 2.184,7.883 2.751,6.540 3.630 C 5.905 4.045,5.499 4.378,4.919 4.958 C 2.953 6.926,1.919 9.544,2.013 12.320 C 2.084 14.439,2.752 16.328,4.033 18.040 C 4.430 18.570,5.305 19.464,5.800 19.847 C 7.242 20.961,8.787 21.624,10.600 21.907 C 11.247 22.008,12.753 22.008,13.400 21.907 C 15.638 21.557,17.504 20.620,19.062 19.062 C 20.620 17.504,21.557 15.638,21.907 13.400 C 22.008 12.753,22.008 11.247,21.907 10.600 C 21.624 8.786,20.959 7.238,19.847 5.800 C 19.510 5.365,18.639 4.494,18.200 4.154 C 16.133 2.555,13.646 1.818,11.080 2.045 M12.734 4.041 C 14.574 4.216,16.228 4.976,17.554 6.256 C 20.043 8.658,20.702 12.394,19.183 15.499 C 18.749 16.387,18.223 17.105,17.496 17.801 C 16.876 18.394,16.262 18.819,15.471 19.200 C 13.267 20.265,10.733 20.265,8.529 19.200 C 7.477 18.693,6.612 18.015,5.847 17.100 C 3.848 14.711,3.440 11.302,4.816 8.500 C 6.162 5.760,8.867 4.049,11.920 4.005 C 12.129 4.003,12.495 4.019,12.734 4.041 M6.695 9.057 C 6.466 9.129,6.256 9.299,6.128 9.516 L 6.020 9.700 6.020 11.120 C 6.020 12.497,6.023 12.549,6.114 12.840 C 6.422 13.827,7.174 14.579,8.160 14.886 C 8.594 15.021,9.406 15.021,9.840 14.886 C 10.826 14.579,11.578 13.827,11.886 12.840 C 11.977 12.549,11.980 12.497,11.980 11.120 L 11.980 9.700 11.871 9.514 C 11.479 8.848,10.521 8.848,10.129 9.514 L 10.020 9.700 9.999 10.980 C 9.984 11.854,9.962 12.296,9.929 12.373 C 9.844 12.569,9.673 12.761,9.484 12.872 C 9.328 12.963,9.254 12.980,9.000 12.980 C 8.746 12.980,8.672 12.963,8.516 12.872 C 8.327 12.761,8.157 12.570,8.071 12.373 C 8.037 12.295,8.015 11.865,8.001 10.980 L 7.980 9.700 7.872 9.516 C 7.628 9.101,7.150 8.915,6.695 9.057 M13.670 9.055 C 13.161 9.245,12.885 9.804,13.054 10.301 C 13.094 10.417,13.337 10.782,13.684 11.245 L 14.249 12.000 13.684 12.755 C 13.061 13.587,12.976 13.757,13.012 14.106 C 13.069 14.657,13.553 15.044,14.112 14.987 C 14.468 14.951,14.634 14.820,15.086 14.218 C 15.308 13.922,15.494 13.680,15.500 13.680 C 15.506 13.680,15.692 13.922,15.914 14.218 C 16.366 14.820,16.532 14.951,16.888 14.987 C 17.447 15.044,17.931 14.657,17.988 14.106 C 18.024 13.757,17.939 13.587,17.316 12.755 L 16.751 12.000 17.316 11.245 C 17.939 10.413,18.024 10.243,17.988 9.894 C 17.930 9.338,17.442 8.951,16.881 9.017 C 16.520 9.059,16.364 9.183,15.914 9.782 C 15.692 10.078,15.506 10.320,15.500 10.320 C 15.494 10.320,15.308 10.078,15.086 9.782 C 14.616 9.156,14.474 9.049,14.075 9.018 C 13.909 9.005,13.768 9.018,13.670 9.055 " stroke="none" fill-rule="evenodd" fill="black"></path></svg>