<svg xmlns="http://www.w3.org/2000/svg" width="24" height="24" viewBox="0 0 24 24" fill="none" stroke="currentColor" stroke-width="2" stroke-linecap="round" stroke-linejoin="round"><path d="M2.670 2.061 C 2.448 2.142,2.250 2.309,2.128 2.516 C 2.036 2.672,2.020 2.745,2.021 3.000 C 2.021 3.212,2.043 3.341,2.095 3.440 C 2.135 3.517,3.250 4.664,4.573 5.990 L 6.978 8.399 6.773 8.610 C 6.481 8.909,6.269 9.261,6.135 9.668 L 6.020 10.020 6.020 14.780 L 6.020 19.540 6.114 19.840 C 6.422 20.827,7.173 21.578,8.160 21.886 L 8.460 21.980 12.000 21.980 L 15.540 21.980 15.840 21.886 C 16.817 21.581,17.584 20.820,17.876 19.866 C 17.922 19.715,17.960 19.544,17.960 19.487 C 17.960 19.398,18.147 19.568,19.190 20.606 C 19.867 21.280,20.483 21.864,20.560 21.905 C 20.659 21.957,20.787 21.979,21.000 21.979 C 21.258 21.980,21.327 21.964,21.492 21.867 C 21.968 21.587,22.139 20.967,21.865 20.508 C 21.810 20.416,17.665 16.243,12.653 11.235 C 4.231 2.820,3.525 2.125,3.343 2.065 C 3.107 1.987,2.874 1.986,2.670 2.061 M9.477 2.073 C 8.784 2.254,8.184 2.886,8.038 3.589 C 8.012 3.717,7.999 4.104,8.007 4.555 L 8.020 5.307 8.141 5.503 C 8.287 5.740,8.577 5.946,8.817 5.982 C 8.988 6.007,8.993 6.012,9.018 6.183 C 9.054 6.423,9.260 6.713,9.497 6.859 L 9.694 6.980 11.347 6.992 L 13.000 7.003 13.000 7.123 C 13.000 7.382,13.130 7.875,13.279 8.180 C 13.662 8.965,14.290 9.476,15.129 9.687 C 15.533 9.788,15.714 9.877,15.823 10.026 C 15.952 10.202,16.000 10.386,16.000 10.700 L 16.000 10.987 15.786 11.035 C 15.515 11.096,15.270 11.275,15.129 11.514 C 15.036 11.672,15.020 11.745,15.020 12.003 C 15.020 12.271,15.034 12.329,15.141 12.503 C 15.287 12.740,15.577 12.946,15.817 12.982 C 15.988 13.007,15.993 13.012,16.018 13.183 C 16.054 13.423,16.260 13.713,16.497 13.859 C 16.671 13.966,16.729 13.980,16.997 13.980 C 17.257 13.980,17.327 13.964,17.492 13.867 C 17.712 13.738,17.901 13.498,17.963 13.270 C 17.990 13.168,18.000 12.565,17.992 11.546 L 17.979 9.980 17.862 9.644 C 17.543 8.724,16.772 8.030,15.815 7.801 C 15.252 7.666,15.003 7.401,15.001 6.940 C 15.001 6.756,15.012 6.733,15.142 6.644 C 15.347 6.504,15.669 6.139,15.779 5.922 C 15.959 5.567,16.000 5.305,15.999 4.514 C 15.999 3.716,15.954 3.424,15.781 3.083 C 15.646 2.816,15.297 2.449,15.017 2.281 C 14.564 2.008,14.524 2.005,12.000 2.005 C 9.992 2.005,9.711 2.012,9.477 2.073 M14.000 4.500 L 14.000 5.000 12.000 5.000 L 10.000 5.000 10.000 4.500 L 10.000 4.000 12.000 4.000 L 14.000 4.000 14.000 4.500 M9.000 10.420 L 9.579 11.000 8.789 11.000 L 8.000 11.000 8.000 10.715 C 8.000 10.558,8.022 10.357,8.048 10.269 C 8.094 10.115,8.310 9.840,8.385 9.840 C 8.405 9.840,8.682 10.101,9.000 10.420 M12.080 13.500 L 12.579 14.000 11.736 14.000 C 10.812 14.000,10.634 14.029,10.382 14.221 C 10.302 14.282,10.187 14.415,10.128 14.516 C 10.037 14.672,10.020 14.746,10.020 15.000 C 10.020 15.257,10.036 15.327,10.133 15.492 C 10.262 15.712,10.502 15.901,10.728 15.962 C 10.826 15.989,11.335 16.000,12.096 15.992 L 13.306 15.980 13.503 15.859 C 13.611 15.792,13.756 15.654,13.824 15.553 L 13.949 15.368 14.764 16.184 L 15.579 17.000 11.790 17.000 L 8.000 17.000 8.000 15.000 L 8.000 13.000 9.791 13.000 L 11.581 13.000 12.080 13.500 M16.000 19.054 C 16.000 19.181,15.882 19.483,15.779 19.618 C 15.718 19.698,15.585 19.813,15.484 19.872 L 15.300 19.980 12.000 19.980 L 8.700 19.980 8.516 19.872 C 8.240 19.709,8.000 19.339,8.000 19.075 C 8.000 19.002,8.116 19.000,12.000 19.000 C 15.318 19.000,16.000 19.009,16.000 19.054 " stroke="none" fill-rule="evenodd" fill="black"></path></svg>