<svg xmlns="http://www.w3.org/2000/svg" width="24" height="24" viewBox="0 0 24 24" fill="none" stroke="currentColor" stroke-width="2" stroke-linecap="round" stroke-linejoin="round"><path d="M2.670 2.061 C 2.448 2.142,2.250 2.309,2.128 2.516 C 2.036 2.672,2.020 2.745,2.021 3.000 C 2.021 3.212,2.043 3.341,2.095 3.440 C 2.135 3.517,3.610 5.024,5.373 6.789 L 8.578 9.999 6.855 11.729 C 5.312 13.279,5.124 13.481,5.066 13.657 C 5.009 13.829,5.000 14.097,5.000 15.717 L 5.000 17.580 3.617 18.960 C 2.857 19.719,2.186 20.421,2.127 20.520 C 2.036 20.673,2.020 20.746,2.020 21.000 C 2.020 21.257,2.036 21.327,2.133 21.492 C 2.413 21.968,3.033 22.139,3.492 21.865 C 3.584 21.810,4.281 21.143,5.040 20.383 L 6.420 19.000 8.283 19.000 C 9.903 19.000,10.171 18.991,10.343 18.934 C 10.519 18.876,10.721 18.688,12.271 17.145 L 14.001 15.422 17.211 18.627 C 18.976 20.390,20.483 21.865,20.560 21.905 C 20.659 21.957,20.788 21.979,21.000 21.979 C 21.258 21.980,21.327 21.964,21.492 21.867 C 21.968 21.587,22.139 20.967,21.865 20.508 C 21.810 20.416,17.665 16.243,12.653 11.235 C 4.231 2.820,3.525 2.125,3.343 2.065 C 3.107 1.987,2.874 1.986,2.670 2.061 M16.670 2.061 C 16.448 2.142,16.250 2.309,16.128 2.516 C 16.036 2.672,16.020 2.745,16.021 3.000 C 16.021 3.213,16.043 3.340,16.096 3.440 C 16.136 3.517,16.487 3.900,16.874 4.291 L 17.578 5.001 16.040 6.540 L 14.501 8.079 13.301 6.882 C 11.984 5.569,11.923 5.522,11.498 5.521 C 10.867 5.519,10.415 6.063,10.529 6.688 C 10.570 6.915,10.707 7.138,10.951 7.373 L 11.109 7.525 11.050 7.693 C 10.923 8.058,11.071 8.547,11.381 8.783 C 11.651 8.990,12.022 9.053,12.320 8.944 L 12.460 8.893 13.784 10.210 L 15.108 11.528 15.056 11.674 C 14.899 12.112,15.090 12.622,15.501 12.863 C 15.726 12.995,16.071 13.032,16.307 12.950 L 16.475 12.891 16.627 13.049 C 17.077 13.515,17.608 13.621,18.046 13.331 C 18.474 13.048,18.625 12.385,18.352 11.983 C 18.306 11.915,17.740 11.329,17.094 10.680 L 15.920 9.500 17.459 7.961 L 18.999 6.422 19.709 7.126 C 20.100 7.513,20.483 7.864,20.560 7.904 C 20.660 7.957,20.787 7.979,21.000 7.979 C 21.258 7.980,21.327 7.964,21.492 7.867 C 21.968 7.587,22.138 6.968,21.866 6.508 C 21.811 6.416,20.815 5.393,19.653 4.235 C 17.748 2.338,17.521 2.124,17.343 2.065 C 17.107 1.987,16.874 1.986,16.670 2.061 M11.300 12.720 L 12.580 14.000 11.080 15.500 L 9.580 17.000 8.290 17.000 L 7.000 17.000 7.000 15.709 L 7.000 14.418 7.251 14.169 L 7.502 13.920 7.921 14.343 C 8.473 14.900,8.609 14.980,9.000 14.980 C 9.257 14.980,9.327 14.964,9.492 14.867 C 9.844 14.660,10.029 14.295,9.987 13.888 C 9.957 13.593,9.833 13.406,9.343 12.921 L 8.920 12.501 9.449 11.971 C 9.741 11.679,9.988 11.440,10.000 11.440 C 10.011 11.440,10.596 12.016,11.300 12.720 " stroke="none" fill-rule="evenodd" fill="black"></path></svg>