<svg xmlns="http://www.w3.org/2000/svg" width="24" height="24" viewBox="0 0 24 24" fill="none" stroke="currentColor" stroke-width="2" stroke-linecap="round" stroke-linejoin="round"><path d="M4.659 3.061 C 4.350 3.175,4.216 3.330,3.954 3.874 C 3.003 5.853,2.416 7.920,2.194 10.080 C 2.129 10.719,2.128 12.505,2.194 13.180 C 2.406 15.363,2.936 17.475,3.869 19.859 C 4.091 20.425,4.162 20.564,4.300 20.702 C 4.479 20.881,4.759 21.000,5.000 21.000 C 5.562 21.000,6.045 20.475,5.991 19.926 C 5.981 19.824,5.869 19.479,5.742 19.160 C 4.552 16.160,4.023 13.385,4.160 10.859 C 4.276 8.729,4.743 6.940,5.763 4.723 C 5.887 4.453,5.980 4.189,5.991 4.077 C 6.014 3.844,5.920 3.547,5.765 3.358 C 5.527 3.070,5.010 2.931,4.659 3.061 M18.667 3.065 C 18.293 3.180,17.999 3.601,18.001 4.017 C 18.002 4.189,18.034 4.274,18.450 5.200 C 19.797 8.200,20.176 11.226,19.615 14.500 C 19.504 15.145,19.557 15.427,19.843 15.713 C 20.022 15.892,20.169 15.963,20.421 15.989 C 20.709 16.018,20.875 15.981,21.095 15.835 C 21.442 15.605,21.549 15.287,21.717 13.992 C 22.165 10.535,21.664 7.388,20.133 4.052 C 19.825 3.380,19.660 3.175,19.340 3.066 C 19.106 2.986,18.924 2.986,18.667 3.065 M8.695 8.055 C 8.464 8.130,8.255 8.300,8.128 8.516 C 8.037 8.672,8.020 8.746,8.020 9.000 C 8.020 9.256,8.036 9.328,8.131 9.489 C 8.256 9.702,8.449 9.864,8.670 9.943 C 8.768 9.978,9.022 9.997,9.405 9.998 L 9.989 10.000 10.078 10.210 C 10.127 10.325,10.327 10.859,10.522 11.395 L 10.877 12.370 10.532 12.835 C 9.445 14.299,8.613 14.997,7.951 15.001 C 7.445 15.003,7.001 15.471,7.001 16.000 C 7.001 16.418,7.260 16.789,7.657 16.941 C 7.805 16.997,7.912 17.007,8.191 16.988 C 9.223 16.919,10.355 16.211,11.400 14.980 C 11.560 14.791,11.701 14.647,11.712 14.659 C 11.724 14.671,11.822 14.910,11.928 15.190 C 12.166 15.812,12.386 16.193,12.669 16.470 C 13.043 16.836,13.368 16.942,13.764 16.826 C 14.307 16.667,14.596 16.118,14.437 15.547 C 14.412 15.457,14.306 15.297,14.182 15.163 C 13.951 14.911,13.908 14.815,13.476 13.592 C 13.342 13.211,13.208 12.842,13.178 12.771 C 13.126 12.645,13.130 12.634,13.347 12.331 C 13.994 11.428,14.749 10.608,15.213 10.304 C 15.498 10.118,15.821 10.000,16.049 10.000 C 16.255 9.999,16.579 9.854,16.728 9.695 C 17.217 9.172,17.016 8.316,16.343 8.059 C 16.195 8.003,16.088 7.993,15.809 8.012 C 15.206 8.052,14.574 8.303,13.944 8.751 C 13.612 8.988,12.845 9.721,12.490 10.140 C 12.310 10.352,12.283 10.371,12.257 10.300 C 11.840 9.150,11.574 8.688,11.154 8.379 C 10.727 8.064,10.576 8.027,9.660 8.013 C 9.070 8.004,8.817 8.015,8.695 8.055 M15.695 18.057 C 15.466 18.129,15.256 18.299,15.128 18.516 C 15.037 18.672,15.020 18.746,15.020 19.000 C 15.020 19.256,15.036 19.328,15.131 19.489 C 15.256 19.702,15.449 19.864,15.670 19.943 C 15.891 20.022,22.109 20.022,22.330 19.943 C 22.551 19.864,22.744 19.702,22.869 19.489 C 22.964 19.328,22.980 19.256,22.980 19.000 C 22.980 18.746,22.963 18.672,22.872 18.516 C 22.740 18.293,22.533 18.128,22.290 18.055 C 22.030 17.977,15.945 17.979,15.695 18.057 " stroke="none" fill-rule="evenodd" fill="black"></path></svg>