<svg xmlns="http://www.w3.org/2000/svg" width="24" height="24" viewBox="0 0 24 24" fill="none" stroke="currentColor" stroke-width="2" stroke-linecap="round" stroke-linejoin="round"><path d="M2.670 2.061 C 2.448 2.142,2.250 2.309,2.128 2.516 C 2.036 2.672,2.020 2.745,2.021 3.000 C 2.021 3.214,2.043 3.340,2.096 3.440 C 2.136 3.517,2.468 3.881,2.832 4.249 C 3.487 4.910,3.494 4.918,3.443 5.029 C 3.332 5.270,3.034 6.116,2.879 6.628 C 2.331 8.444,2.079 10.288,2.135 12.084 C 2.213 14.584,2.755 17.012,3.869 19.859 C 4.091 20.425,4.162 20.564,4.300 20.702 C 4.479 20.881,4.759 21.000,5.000 21.000 C 5.562 21.000,6.046 20.475,5.991 19.926 C 5.980 19.824,5.861 19.457,5.725 19.111 C 4.221 15.272,3.792 11.950,4.397 8.819 C 4.543 8.066,4.833 6.982,4.990 6.603 L 5.047 6.466 7.963 9.384 C 9.568 10.988,10.880 12.320,10.880 12.342 C 10.880 12.433,9.977 13.579,9.574 13.999 C 8.949 14.651,8.418 14.997,8.036 14.999 C 7.195 15.005,6.713 15.921,7.198 16.591 C 7.478 16.977,7.952 17.087,8.622 16.921 C 9.623 16.673,10.492 16.038,11.587 14.753 L 11.712 14.607 11.801 14.853 C 12.302 16.234,12.710 16.732,13.508 16.940 C 13.808 17.019,15.110 17.021,15.326 16.944 L 15.472 16.892 16.792 18.216 L 18.112 19.540 18.059 19.680 C 17.778 20.425,18.555 21.210,19.309 20.944 L 19.469 20.887 19.904 21.327 C 20.474 21.900,20.607 21.980,21.000 21.980 C 21.257 21.980,21.327 21.964,21.492 21.867 C 21.968 21.587,22.139 20.967,21.865 20.508 C 21.810 20.416,17.665 16.243,12.653 11.235 C 4.231 2.820,3.525 2.125,3.343 2.065 C 3.107 1.987,2.874 1.986,2.670 2.061 M18.667 3.065 C 18.268 3.187,17.968 3.649,18.009 4.077 C 18.020 4.196,18.134 4.498,18.318 4.902 C 19.164 6.750,19.629 8.411,19.803 10.200 C 19.866 10.845,19.867 12.443,19.804 13.060 C 19.711 13.980,19.562 14.885,19.376 15.660 C 19.250 16.185,19.252 16.408,19.384 16.672 C 19.696 17.298,20.503 17.420,20.988 16.914 C 21.150 16.745,21.214 16.589,21.336 16.073 C 22.153 12.611,22.038 9.384,20.982 6.191 C 20.565 4.928,19.956 3.556,19.697 3.296 C 19.426 3.023,19.066 2.942,18.667 3.065 M15.530 8.044 C 14.868 8.155,14.038 8.607,13.417 9.196 C 13.138 9.461,13.042 9.661,13.041 9.985 C 13.039 10.623,13.611 11.091,14.230 10.958 C 14.435 10.915,14.482 10.885,15.020 10.459 C 15.390 10.167,15.653 10.047,16.026 9.999 C 16.392 9.953,16.631 9.827,16.802 9.591 C 17.207 9.032,16.947 8.253,16.290 8.055 C 16.088 7.994,15.850 7.991,15.530 8.044 " stroke="none" fill-rule="evenodd" fill="black"></path></svg>