<svg xmlns="http://www.w3.org/2000/svg" width="24" height="24" viewBox="0 0 24 24" fill="none" stroke="currentColor" stroke-width="2" stroke-linecap="round" stroke-linejoin="round"><path d="M4.659 3.061 C 4.350 3.175,4.216 3.330,3.954 3.874 C 3.003 5.853,2.416 7.920,2.194 10.080 C 2.129 10.719,2.128 12.505,2.194 13.180 C 2.406 15.363,2.936 17.475,3.869 19.859 C 4.091 20.425,4.162 20.564,4.300 20.702 C 4.479 20.881,4.759 21.000,5.000 21.000 C 5.562 21.000,6.045 20.475,5.991 19.926 C 5.981 19.824,5.869 19.479,5.742 19.160 C 4.552 16.160,4.023 13.385,4.160 10.859 C 4.276 8.729,4.743 6.940,5.763 4.723 C 5.887 4.453,5.980 4.189,5.991 4.077 C 6.014 3.844,5.920 3.547,5.765 3.358 C 5.527 3.070,5.010 2.931,4.659 3.061 M18.667 3.065 C 18.268 3.188,17.968 3.649,18.009 4.077 C 18.020 4.194,18.129 4.491,18.296 4.859 C 19.402 7.295,19.842 9.220,19.855 11.680 L 19.861 12.700 19.977 12.910 C 20.303 13.501,21.039 13.626,21.523 13.173 C 21.847 12.871,21.861 12.799,21.854 11.520 C 21.850 10.673,21.829 10.263,21.764 9.736 C 21.521 7.760,21.033 6.048,20.168 4.140 C 19.821 3.373,19.671 3.179,19.340 3.066 C 19.106 2.986,18.924 2.986,18.667 3.065 M8.695 8.055 C 8.464 8.130,8.255 8.300,8.128 8.516 C 8.037 8.672,8.020 8.746,8.020 9.000 C 8.020 9.256,8.036 9.328,8.131 9.489 C 8.256 9.702,8.449 9.864,8.670 9.943 C 8.768 9.978,9.022 9.997,9.405 9.998 L 9.989 10.000 10.078 10.210 C 10.127 10.325,10.327 10.859,10.523 11.396 L 10.878 12.373 10.704 12.616 C 10.088 13.479,9.341 14.307,8.887 14.631 C 8.586 14.846,8.235 14.998,8.036 14.999 C 7.195 15.005,6.713 15.921,7.198 16.591 C 7.478 16.977,7.952 17.087,8.622 16.921 C 9.622 16.673,10.493 16.037,11.585 14.755 L 11.709 14.610 11.915 15.155 C 12.161 15.805,12.379 16.185,12.670 16.470 C 13.064 16.857,13.429 16.960,13.847 16.802 C 14.243 16.653,14.488 16.300,14.488 15.880 C 14.488 15.591,14.399 15.384,14.180 15.160 C 13.968 14.943,13.925 14.849,13.501 13.666 C 13.318 13.157,13.158 12.713,13.144 12.679 C 13.100 12.574,13.960 11.476,14.538 10.899 C 15.240 10.200,15.480 10.064,16.169 9.979 C 16.421 9.948,16.706 9.751,16.859 9.503 C 16.966 9.329,16.980 9.271,16.980 9.003 C 16.980 8.745,16.964 8.672,16.871 8.514 C 16.654 8.146,16.261 7.966,15.787 8.017 C 14.725 8.132,13.672 8.789,12.647 9.976 L 12.288 10.392 12.199 10.146 C 11.755 8.912,11.358 8.377,10.693 8.117 C 10.483 8.035,10.381 8.024,9.660 8.013 C 9.070 8.004,8.817 8.015,8.695 8.055 M18.695 15.057 C 18.466 15.129,18.256 15.299,18.128 15.516 L 18.020 15.700 18.008 16.850 L 17.995 18.000 16.944 18.000 C 15.797 18.000,15.643 18.022,15.382 18.221 C 15.302 18.282,15.187 18.415,15.128 18.516 C 15.037 18.672,15.020 18.746,15.020 19.000 C 15.020 19.256,15.036 19.328,15.131 19.489 C 15.192 19.592,15.304 19.725,15.381 19.783 C 15.642 19.983,15.738 19.996,16.908 19.998 L 17.995 20.000 18.008 21.153 L 18.020 22.307 18.141 22.503 C 18.543 23.156,19.457 23.156,19.859 22.503 L 19.980 22.307 19.992 21.153 L 20.005 20.000 21.092 19.998 C 22.262 19.996,22.358 19.983,22.619 19.783 C 22.696 19.725,22.808 19.592,22.869 19.489 C 22.964 19.328,22.980 19.256,22.980 19.000 C 22.980 18.746,22.963 18.672,22.872 18.516 C 22.813 18.415,22.698 18.282,22.618 18.221 C 22.357 18.022,22.203 18.000,21.056 18.000 L 20.005 18.000 19.992 16.850 L 19.980 15.700 19.872 15.516 C 19.628 15.101,19.150 14.915,18.695 15.057 " stroke="none" fill-rule="evenodd" fill="black"></path></svg>