<svg xmlns="http://www.w3.org/2000/svg" width="24" height="24" viewBox="0 0 24 24" fill="none" stroke="currentColor" stroke-width="2" stroke-linecap="round" stroke-linejoin="round"><path d="M2.670 2.061 C 2.449 2.142,2.250 2.309,2.129 2.515 C 2.022 2.698,2.008 2.815,2.031 3.360 C 2.034 3.437,2.028 4.108,2.016 4.852 C 1.993 6.326,2.006 6.463,2.202 6.877 C 2.348 7.186,2.771 7.623,3.070 7.775 C 3.310 7.896,3.677 8.000,3.868 8.000 L 4.000 8.000 4.000 11.991 L 4.000 15.982 3.690 16.031 C 3.508 16.060,3.272 16.132,3.120 16.207 C 2.802 16.362,2.375 16.774,2.225 17.070 C 2.018 17.479,2.000 17.632,2.000 19.000 C 2.000 20.368,2.018 20.521,2.225 20.930 C 2.361 21.199,2.801 21.639,3.070 21.775 C 3.479 21.982,3.632 22.000,5.000 22.000 C 6.368 22.000,6.521 21.982,6.930 21.775 C 7.196 21.640,7.638 21.200,7.771 20.937 C 7.888 20.707,8.000 20.309,8.000 20.124 L 8.000 20.000 12.000 20.000 L 16.000 20.000 16.000 20.132 C 16.000 20.323,16.104 20.690,16.225 20.930 C 16.361 21.199,16.801 21.639,17.070 21.775 C 17.478 21.982,17.633 22.000,18.978 21.999 C 19.661 21.999,20.292 21.981,20.380 21.960 C 20.487 21.935,20.613 21.937,20.760 21.967 C 21.212 22.059,21.624 21.885,21.859 21.503 C 21.966 21.329,21.980 21.271,21.980 21.003 C 21.980 20.746,21.964 20.673,21.873 20.520 C 21.809 20.414,18.015 16.593,12.653 11.235 C 4.231 2.820,3.525 2.125,3.343 2.065 C 3.107 1.987,2.874 1.986,2.670 2.061 M17.477 2.073 C 16.806 2.249,16.238 2.823,16.060 3.508 C 16.027 3.634,16.000 3.796,16.000 3.868 L 16.000 4.000 12.446 4.000 C 8.590 4.000,8.678 3.995,8.382 4.221 C 8.302 4.282,8.187 4.415,8.128 4.516 C 8.037 4.672,8.020 4.746,8.020 5.000 C 8.020 5.256,8.036 5.328,8.131 5.489 C 8.256 5.702,8.449 5.864,8.670 5.943 C 8.791 5.986,9.516 5.997,12.410 5.998 L 16.000 6.000 16.000 6.132 C 16.000 6.543,16.233 7.042,16.596 7.404 C 16.958 7.766,17.457 8.000,17.868 8.000 L 17.998 8.000 18.009 11.653 L 18.020 15.306 18.141 15.503 C 18.543 16.156,19.457 16.156,19.859 15.503 L 19.980 15.306 19.991 11.653 L 20.002 8.000 20.132 8.000 C 20.323 8.000,20.690 7.896,20.930 7.775 C 21.196 7.640,21.638 7.200,21.771 6.937 C 21.979 6.527,22.000 6.352,21.999 5.014 C 21.999 3.682,21.974 3.463,21.781 3.083 C 21.551 2.628,21.022 2.203,20.523 2.073 C 20.134 1.972,17.866 1.972,17.477 2.073 M20.000 5.000 L 20.000 6.000 19.000 6.000 L 18.000 6.000 18.000 5.000 L 18.000 4.000 19.000 4.000 L 20.000 4.000 20.000 5.000 M4.300 5.720 L 4.578 6.000 4.289 6.000 L 4.000 6.000 4.000 5.720 C 4.000 5.566,4.005 5.440,4.011 5.440 C 4.017 5.440,4.147 5.566,4.300 5.720 M16.016 17.732 L 15.989 18.000 12.003 18.000 L 8.018 18.000 7.969 17.692 C 7.898 17.246,7.733 16.925,7.410 16.603 C 7.080 16.274,6.745 16.099,6.310 16.031 L 6.000 15.982 6.000 11.991 L 6.000 8.000 6.150 7.996 C 6.232 7.994,6.345 7.978,6.400 7.961 C 6.492 7.933,6.872 8.303,11.272 12.697 L 16.044 17.464 16.016 17.732 M6.000 19.000 L 6.000 20.000 5.000 20.000 L 4.000 20.000 4.000 19.000 L 4.000 18.000 5.000 18.000 L 6.000 18.000 6.000 19.000 M18.300 19.720 L 18.578 20.000 18.289 20.000 L 18.000 20.000 18.000 19.720 C 18.000 19.566,18.005 19.440,18.011 19.440 C 18.017 19.440,18.147 19.566,18.300 19.720 " stroke="none" fill-rule="evenodd" fill="black"></path></svg>