<svg xmlns="http://www.w3.org/2000/svg" width="24" height="24" viewBox="0 0 24 24" fill="none" stroke="currentColor" stroke-width="2" stroke-linecap="round" stroke-linejoin="round"><path d="M2.670 2.061 C 2.448 2.142,2.250 2.309,2.128 2.516 C 2.036 2.672,2.020 2.745,2.021 3.000 C 2.021 3.212,2.043 3.341,2.095 3.440 C 2.135 3.517,3.708 5.122,5.591 7.007 L 9.014 10.435 8.889 10.667 C 8.821 10.795,8.136 12.043,7.368 13.440 L 5.971 15.980 4.776 16.002 C 3.809 16.021,3.541 16.038,3.377 16.092 C 2.933 16.239,2.426 16.673,2.216 17.088 C 2.019 17.477,2.000 17.643,2.000 19.000 C 2.000 20.368,2.018 20.521,2.225 20.930 C 2.361 21.199,2.801 21.639,3.070 21.775 C 3.479 21.982,3.632 22.000,5.000 22.000 C 6.368 22.000,6.521 21.982,6.930 21.775 C 7.196 21.640,7.638 21.200,7.771 20.937 C 7.888 20.707,8.000 20.309,8.000 20.124 L 8.000 20.000 12.000 20.000 L 16.000 20.000 16.000 20.132 C 16.000 20.323,16.104 20.690,16.225 20.930 C 16.361 21.199,16.801 21.639,17.070 21.775 C 17.479 21.982,17.632 22.000,18.999 22.000 C 19.715 22.000,20.320 21.983,20.399 21.960 C 20.495 21.933,20.607 21.935,20.759 21.966 C 21.211 22.060,21.623 21.886,21.859 21.503 C 21.966 21.329,21.980 21.271,21.980 21.003 C 21.980 20.746,21.964 20.673,21.873 20.520 C 21.809 20.414,18.015 16.593,12.653 11.235 C 4.231 2.820,3.525 2.125,3.343 2.065 C 3.107 1.987,2.874 1.986,2.670 2.061 M10.477 3.073 C 9.784 3.254,9.184 3.886,9.038 4.589 C 9.012 4.717,8.999 5.104,9.007 5.555 L 9.020 6.307 9.141 6.503 C 9.543 7.156,10.457 7.156,10.859 6.503 C 10.979 6.308,10.980 6.300,10.993 5.653 L 11.007 5.000 12.003 5.000 L 13.000 5.000 13.000 6.000 L 13.000 7.000 12.446 7.000 C 11.648 7.000,11.367 7.110,11.128 7.516 C 11.037 7.672,11.020 7.746,11.020 8.000 C 11.020 8.257,11.036 8.327,11.133 8.492 C 11.265 8.717,11.509 8.906,11.743 8.965 C 11.901 9.005,11.921 9.028,12.122 9.393 C 12.369 9.844,12.558 10.045,12.824 10.135 C 13.067 10.218,13.218 10.217,13.485 10.131 C 13.990 9.968,14.283 9.377,14.104 8.881 L 14.054 8.743 14.362 8.441 C 14.537 8.271,14.714 8.052,14.772 7.937 C 14.979 7.525,15.000 7.351,14.999 6.014 C 14.999 4.682,14.974 4.463,14.781 4.083 C 14.551 3.628,14.022 3.203,13.523 3.073 C 13.134 2.972,10.866 2.972,10.477 3.073 M16.016 17.732 L 15.989 18.000 12.003 18.000 L 8.018 18.000 7.969 17.694 C 7.943 17.526,7.876 17.291,7.822 17.172 L 7.722 16.956 9.108 14.434 L 10.493 11.913 13.268 14.688 L 16.044 17.464 16.016 17.732 M6.000 19.000 L 6.000 20.000 5.000 20.000 L 4.000 20.000 4.000 19.000 L 4.000 18.000 5.000 18.000 L 6.000 18.000 6.000 19.000 M18.300 19.720 L 18.578 20.000 18.289 20.000 L 18.000 20.000 18.000 19.720 C 18.000 19.566,18.005 19.440,18.011 19.440 C 18.017 19.440,18.147 19.566,18.300 19.720 " stroke="none" fill-rule="evenodd" fill="black"></path></svg>