<svg xmlns="http://www.w3.org/2000/svg" width="24" height="24" viewBox="0 0 24 24" fill="none" stroke="currentColor" stroke-width="2" stroke-linecap="round" stroke-linejoin="round"><path d="M2.670 2.061 C 2.448 2.142,2.250 2.309,2.128 2.516 C 2.036 2.672,2.020 2.745,2.021 3.000 C 2.021 3.212,2.043 3.341,2.095 3.440 C 2.135 3.517,3.030 4.444,4.084 5.500 L 5.999 7.420 6.009 12.363 L 6.020 17.306 6.141 17.503 C 6.543 18.156,7.457 18.156,7.859 17.503 L 7.980 17.306 8.000 13.373 L 8.020 9.439 8.509 9.929 L 8.998 10.420 9.009 14.000 L 9.020 17.580 9.114 17.860 C 9.442 18.839,10.160 19.557,11.140 19.886 L 11.420 19.980 14.998 19.989 L 18.576 19.998 19.498 20.914 C 20.005 21.418,20.483 21.864,20.560 21.905 C 20.659 21.957,20.787 21.979,21.000 21.979 C 21.258 21.980,21.327 21.964,21.492 21.867 C 21.968 21.587,22.139 20.967,21.865 20.508 C 21.810 20.416,17.665 16.243,12.653 11.235 C 4.231 2.820,3.525 2.125,3.343 2.065 C 3.107 1.987,2.874 1.986,2.670 2.061 M11.540 4.043 C 10.617 4.177,9.760 4.805,9.322 5.669 C 9.042 6.221,9.236 6.812,9.780 7.066 C 10.281 7.300,10.804 7.093,11.117 6.539 C 11.183 6.422,11.298 6.280,11.371 6.224 C 11.673 5.994,11.576 6.000,14.978 6.000 C 18.494 6.000,18.377 5.991,18.679 6.283 C 19.004 6.599,18.978 6.163,19.000 11.523 L 19.020 16.306 19.141 16.503 C 19.543 17.156,20.457 17.156,20.859 16.503 L 20.980 16.306 20.980 11.383 L 20.980 6.460 20.886 6.160 C 20.581 5.182,19.831 4.427,18.861 4.122 L 18.540 4.021 15.160 4.015 C 13.301 4.011,11.672 4.024,11.540 4.043 M3.695 7.057 C 3.466 7.129,3.256 7.299,3.128 7.516 L 3.020 7.700 3.020 12.003 L 3.020 16.306 3.141 16.503 C 3.209 16.613,3.346 16.756,3.452 16.828 C 3.923 17.144,4.554 16.999,4.859 16.503 L 4.980 16.306 4.980 12.003 L 4.980 7.700 4.872 7.516 C 4.628 7.101,4.150 6.915,3.695 7.057 M16.010 17.991 C 15.708 17.998,14.614 17.998,13.580 17.991 L 11.700 17.980 11.516 17.872 C 11.415 17.813,11.284 17.700,11.225 17.623 C 10.998 17.325,11.000 17.354,11.000 14.785 L 11.000 12.420 13.780 15.200 L 16.560 17.980 16.010 17.991 " stroke="none" fill-rule="evenodd" fill="black"></path></svg>