<svg xmlns="http://www.w3.org/2000/svg" width="24" height="24" viewBox="0 0 24 24" fill="none" stroke="currentColor" stroke-width="2" stroke-linecap="round" stroke-linejoin="round"><path d="M2.670 2.061 C 2.448 2.142,2.250 2.309,2.128 2.516 C 2.036 2.672,2.020 2.745,2.021 3.000 C 2.021 3.213,2.043 3.341,2.095 3.440 C 2.136 3.517,2.538 3.951,2.988 4.405 L 3.807 5.229 3.553 5.372 C 2.871 5.755,2.351 6.401,2.114 7.160 L 2.020 7.460 2.020 12.000 L 2.020 16.540 2.114 16.840 C 2.422 17.827,3.173 18.578,4.160 18.886 L 4.460 18.980 9.000 18.980 L 13.540 18.980 13.840 18.886 C 14.599 18.649,15.289 18.091,15.644 17.425 L 15.770 17.191 18.095 19.511 C 19.374 20.788,20.483 21.865,20.560 21.905 C 20.659 21.957,20.788 21.979,21.000 21.979 C 21.258 21.980,21.327 21.964,21.492 21.867 C 21.968 21.587,22.139 20.967,21.865 20.508 C 21.810 20.416,17.665 16.243,12.653 11.235 C 4.231 2.820,3.525 2.125,3.343 2.065 C 3.107 1.987,2.874 1.986,2.670 2.061 M9.695 5.056 C 9.465 5.130,9.255 5.300,9.128 5.516 C 9.037 5.672,9.020 5.746,9.020 6.000 C 9.020 6.256,9.036 6.328,9.131 6.489 C 9.192 6.592,9.304 6.725,9.381 6.783 C 9.655 6.992,9.695 6.996,11.463 6.998 C 13.360 7.000,13.399 7.006,13.697 7.303 C 13.995 7.601,14.000 7.638,14.001 9.557 C 14.002 11.143,14.006 11.228,14.083 11.400 C 14.252 11.772,14.600 12.000,15.000 11.999 C 15.592 11.997,15.999 11.558,16.000 10.920 L 16.000 10.620 17.980 9.630 C 19.069 9.085,19.969 8.640,19.980 8.640 C 19.991 8.640,20.000 10.157,20.000 12.010 L 20.000 15.380 19.823 15.474 C 19.632 15.575,19.465 15.783,19.378 16.028 C 19.209 16.500,19.486 17.074,19.972 17.259 C 20.692 17.534,21.687 16.821,21.938 15.850 C 21.995 15.628,22.001 15.194,21.991 11.890 L 21.980 8.180 21.886 7.946 C 21.651 7.364,21.157 6.889,20.612 6.720 C 20.256 6.610,19.724 6.611,19.396 6.722 C 19.262 6.766,18.453 7.153,17.597 7.582 C 16.741 8.010,16.034 8.360,16.026 8.360 C 16.018 8.360,16.002 8.149,15.989 7.890 C 15.974 7.576,15.937 7.327,15.879 7.140 C 15.582 6.183,14.819 5.421,13.861 5.123 C 13.541 5.024,13.535 5.023,11.700 5.013 C 10.259 5.005,9.824 5.014,9.695 5.056 M9.790 11.210 L 14.000 15.420 14.000 15.764 C 14.000 16.336,13.851 16.656,13.484 16.872 L 13.300 16.980 9.000 16.980 L 4.700 16.980 4.516 16.872 C 4.415 16.813,4.284 16.700,4.225 16.623 C 3.990 16.315,4.000 16.515,4.000 12.022 C 4.000 7.356,3.983 7.624,4.304 7.303 C 4.531 7.076,4.742 7.006,5.220 7.003 L 5.580 7.000 9.790 11.210 " stroke="none" fill-rule="evenodd" fill="black"></path></svg>