<svg xmlns="http://www.w3.org/2000/svg" width="24" height="24" viewBox="0 0 24 24" fill="none" stroke="currentColor" stroke-width="2" stroke-linecap="round" stroke-linejoin="round"><path d="M11.080 2.045 C 9.507 2.184,7.883 2.751,6.540 3.630 C 5.905 4.045,5.499 4.378,4.919 4.958 C 2.953 6.926,1.919 9.544,2.013 12.320 C 2.084 14.439,2.752 16.328,4.033 18.040 C 4.430 18.570,5.305 19.464,5.800 19.847 C 7.242 20.961,8.787 21.624,10.600 21.907 C 11.247 22.008,12.753 22.008,13.400 21.907 C 15.638 21.557,17.504 20.620,19.062 19.062 C 20.620 17.504,21.557 15.638,21.907 13.400 C 22.008 12.753,22.008 11.247,21.907 10.600 C 21.624 8.786,20.959 7.238,19.847 5.800 C 19.510 5.365,18.639 4.494,18.200 4.154 C 16.133 2.555,13.646 1.818,11.080 2.045 M11.008 5.693 L 11.020 7.306 11.141 7.503 C 11.543 8.156,12.457 8.156,12.859 7.503 L 12.980 7.306 12.992 5.693 C 13.003 4.137,13.006 4.080,13.080 4.080 C 13.269 4.080,14.059 4.260,14.498 4.403 C 16.180 4.953,17.704 6.121,18.691 7.620 C 19.020 8.119,19.409 8.929,19.597 9.502 C 19.740 9.942,19.920 10.731,19.920 10.922 C 19.920 10.997,19.885 11.000,18.906 11.000 C 17.800 11.000,17.642 11.023,17.382 11.221 C 17.302 11.282,17.187 11.415,17.128 11.516 C 17.037 11.672,17.020 11.746,17.020 12.000 C 17.020 12.256,17.036 12.328,17.131 12.489 C 17.192 12.592,17.304 12.725,17.381 12.783 C 17.641 12.982,17.741 12.996,18.870 12.998 C 19.884 13.000,19.920 13.003,19.920 13.078 C 19.920 13.270,19.740 14.058,19.596 14.497 C 19.029 16.224,17.869 17.722,16.311 18.736 C 15.834 19.047,15.076 19.406,14.500 19.595 C 14.024 19.751,13.297 19.920,13.105 19.920 L 13.005 19.920 12.992 18.810 L 12.980 17.700 12.871 17.514 C 12.479 16.848,11.521 16.848,11.129 17.514 L 11.020 17.700 11.008 18.810 L 10.995 19.920 10.895 19.920 C 10.703 19.920,9.976 19.751,9.500 19.595 C 8.382 19.229,7.352 18.612,6.504 17.801 C 5.535 16.873,4.804 15.724,4.403 14.498 C 4.260 14.058,4.080 13.269,4.080 13.078 C 4.080 13.002,4.121 13.000,5.630 12.998 C 7.297 12.996,7.347 12.991,7.619 12.783 C 7.696 12.725,7.808 12.592,7.869 12.489 C 7.964 12.328,7.980 12.256,7.980 12.000 C 7.980 11.746,7.963 11.672,7.872 11.516 C 7.813 11.415,7.698 11.282,7.618 11.221 C 7.343 11.011,7.239 11.000,5.594 11.000 C 4.120 11.000,4.080 10.998,4.080 10.922 C 4.080 10.731,4.260 9.942,4.403 9.502 C 4.591 8.929,4.980 8.119,5.309 7.620 C 6.465 5.866,8.313 4.600,10.340 4.177 C 10.582 4.127,10.829 4.084,10.888 4.083 L 10.997 4.080 11.008 5.693 M11.695 11.057 C 11.466 11.129,11.256 11.299,11.128 11.516 C 11.036 11.672,11.020 11.745,11.021 12.000 C 11.022 12.332,11.101 12.533,11.306 12.728 C 11.785 13.181,12.580 13.046,12.893 12.460 C 13.025 12.211,13.015 11.760,12.872 11.516 C 12.628 11.101,12.150 10.915,11.695 11.057 " stroke="none" fill-rule="evenodd" fill="black"></path></svg>