<svg xmlns="http://www.w3.org/2000/svg" width="24" height="24" viewBox="0 0 24 24" fill="none" stroke="currentColor" stroke-width="2" stroke-linecap="round" stroke-linejoin="round"><path d="M2.670 2.061 C 2.448 2.142,2.250 2.309,2.128 2.516 C 2.036 2.672,2.020 2.745,2.021 3.000 C 2.021 3.213,2.043 3.341,2.095 3.440 C 2.136 3.517,2.637 4.050,3.208 4.625 L 4.247 5.669 3.989 6.005 C 2.915 7.396,2.224 9.144,2.000 11.039 C 1.948 11.482,1.949 12.580,2.002 13.072 C 2.244 15.296,3.210 17.374,4.740 18.955 C 6.330 20.600,8.184 21.563,10.500 21.947 C 11.183 22.060,12.795 22.050,13.500 21.928 C 15.200 21.634,16.748 20.974,17.995 20.011 L 18.331 19.753 19.375 20.792 C 19.950 21.363,20.483 21.864,20.560 21.905 C 20.659 21.957,20.787 21.979,21.000 21.979 C 21.258 21.980,21.327 21.964,21.492 21.867 C 21.968 21.587,22.139 20.967,21.865 20.508 C 21.810 20.416,17.665 16.243,12.653 11.235 C 4.231 2.820,3.525 2.125,3.343 2.065 C 3.107 1.987,2.874 1.986,2.670 2.061 M11.080 2.043 C 9.919 2.160,8.803 2.464,7.760 2.949 C 7.336 3.147,7.174 3.282,7.055 3.538 C 6.828 4.024,7.023 4.600,7.500 4.852 C 7.618 4.914,7.734 4.937,7.940 4.938 C 8.192 4.940,8.261 4.921,8.635 4.747 C 9.314 4.431,10.073 4.198,10.778 4.087 L 10.997 4.053 11.008 5.680 L 11.020 7.306 11.141 7.503 C 11.543 8.156,12.457 8.156,12.859 7.503 L 12.980 7.306 12.992 5.693 L 13.003 4.080 13.097 4.080 C 13.220 4.080,13.864 4.213,14.222 4.312 C 16.795 5.026,18.973 7.198,19.683 9.761 C 19.787 10.136,19.920 10.778,19.920 10.904 L 19.920 11.000 18.906 11.000 C 17.800 11.000,17.642 11.023,17.382 11.221 C 17.302 11.282,17.187 11.415,17.128 11.516 C 17.037 11.672,17.020 11.746,17.020 12.000 C 17.020 12.256,17.036 12.328,17.131 12.489 C 17.192 12.592,17.304 12.725,17.381 12.783 C 17.641 12.982,17.741 12.996,18.870 12.998 L 19.920 13.000 19.920 13.130 C 19.919 13.305,19.745 14.065,19.614 14.460 C 19.556 14.636,19.409 15.005,19.288 15.279 C 19.035 15.854,19.005 16.019,19.097 16.337 C 19.272 16.936,19.997 17.220,20.541 16.902 C 20.767 16.769,20.876 16.624,21.081 16.180 C 22.698 12.680,22.138 8.531,19.647 5.557 C 18.089 3.697,15.786 2.429,13.360 2.097 C 12.823 2.023,11.572 1.994,11.080 2.043 M11.300 12.722 L 16.900 18.324 16.780 18.424 C 16.058 19.025,14.670 19.654,13.574 19.877 C 12.932 20.008,13.007 20.142,12.992 18.830 L 12.980 17.700 12.871 17.514 C 12.479 16.848,11.521 16.848,11.129 17.514 L 11.020 17.700 11.008 18.851 L 10.995 20.003 10.848 19.977 C 9.013 19.662,7.599 18.964,6.379 17.774 C 5.195 16.618,4.381 15.103,4.100 13.530 C 4.066 13.337,4.029 13.139,4.018 13.090 L 3.998 13.000 5.589 12.998 C 7.300 12.996,7.346 12.992,7.619 12.783 C 7.696 12.725,7.808 12.592,7.869 12.489 C 7.964 12.328,7.980 12.256,7.980 12.000 C 7.980 11.746,7.963 11.672,7.872 11.516 C 7.813 11.415,7.698 11.282,7.618 11.221 C 7.343 11.011,7.240 11.000,5.574 11.000 C 4.068 11.000,4.040 10.999,4.040 10.920 C 4.040 10.737,4.246 9.887,4.401 9.433 C 4.570 8.935,4.900 8.235,5.150 7.840 C 5.367 7.498,5.641 7.120,5.672 7.120 C 5.687 7.120,8.220 9.641,11.300 12.722 " stroke="none" fill-rule="evenodd" fill="black"></path></svg>