<svg xmlns="http://www.w3.org/2000/svg" width="24" height="24" viewBox="0 0 24 24" fill="none" stroke="currentColor" stroke-width="2" stroke-linecap="round" stroke-linejoin="round"><path d="M2.670 2.061 C 2.448 2.142,2.250 2.309,2.128 2.516 C 2.036 2.672,2.020 2.745,2.021 3.000 C 2.021 3.213,2.043 3.341,2.095 3.440 C 2.136 3.517,2.637 4.050,3.208 4.625 L 4.247 5.669 3.989 6.005 C 2.915 7.396,2.224 9.144,2.000 11.039 C 1.948 11.482,1.949 12.580,2.002 13.072 C 2.244 15.296,3.210 17.374,4.740 18.955 C 6.330 20.600,8.184 21.563,10.500 21.947 C 11.183 22.060,12.795 22.050,13.500 21.928 C 15.200 21.634,16.748 20.974,17.995 20.011 L 18.331 19.753 19.375 20.792 C 19.950 21.363,20.483 21.864,20.560 21.905 C 20.659 21.957,20.787 21.979,21.000 21.979 C 21.258 21.980,21.327 21.964,21.492 21.867 C 21.968 21.587,22.139 20.967,21.865 20.508 C 21.810 20.416,17.665 16.243,12.653 11.235 C 4.231 2.820,3.525 2.125,3.343 2.065 C 3.107 1.987,2.874 1.986,2.670 2.061 M11.080 2.043 C 9.919 2.160,8.803 2.464,7.760 2.949 C 7.336 3.147,7.174 3.282,7.055 3.538 C 6.884 3.905,6.957 4.363,7.232 4.654 C 7.480 4.915,7.916 5.023,8.255 4.908 L 8.439 4.845 8.379 4.988 C 8.347 5.066,8.320 5.214,8.320 5.318 C 8.320 6.052,9.036 6.530,9.706 6.242 C 9.966 6.130,10.072 6.017,10.292 5.619 C 10.609 5.045,10.767 4.825,11.099 4.496 C 11.356 4.240,11.475 4.152,11.663 4.082 C 12.062 3.932,12.430 4.037,12.835 4.418 C 13.372 4.923,13.785 5.636,14.188 6.756 L 14.323 7.131 14.091 7.107 C 13.964 7.093,13.443 7.060,12.934 7.034 C 12.207 6.996,11.960 6.996,11.789 7.034 C 10.901 7.233,10.719 8.404,11.504 8.865 C 11.685 8.970,11.724 8.976,12.456 9.007 C 13.144 9.037,14.265 9.129,14.646 9.187 C 14.777 9.207,14.793 9.223,14.813 9.354 C 14.871 9.736,14.963 10.857,14.993 11.548 C 15.025 12.302,15.028 12.319,15.144 12.508 C 15.543 13.156,16.458 13.154,16.859 12.503 C 16.972 12.320,16.981 12.275,16.994 11.851 C 17.008 11.435,16.951 10.333,16.893 9.869 L 16.869 9.677 17.245 9.812 C 18.364 10.215,19.077 10.628,19.582 11.165 C 19.979 11.587,20.079 12.008,19.882 12.420 C 19.687 12.828,19.106 13.317,18.271 13.775 C 17.867 13.997,17.684 14.284,17.683 14.700 C 17.680 15.351,18.357 15.839,18.973 15.629 L 19.154 15.567 19.097 15.728 C 18.799 16.573,19.764 17.357,20.541 16.902 C 20.767 16.769,20.876 16.624,21.081 16.180 C 22.698 12.680,22.138 8.531,19.647 5.557 C 18.089 3.697,15.786 2.429,13.360 2.097 C 12.823 2.023,11.572 1.994,11.080 2.043 M16.112 5.131 C 16.890 5.595,17.751 6.364,18.354 7.134 C 18.600 7.448,19.072 8.189,19.141 8.368 C 19.160 8.418,19.038 8.380,18.666 8.222 C 18.121 7.990,17.524 7.782,16.900 7.610 L 16.501 7.499 16.390 7.100 C 16.218 6.477,15.978 5.782,15.763 5.287 C 15.620 4.956,15.585 4.841,15.633 4.859 C 15.669 4.873,15.884 4.995,16.112 5.131 M6.039 7.459 C 6.224 7.645,6.368 7.804,6.358 7.811 C 6.348 7.819,6.133 7.903,5.880 7.998 C 5.627 8.094,5.290 8.231,5.130 8.304 C 4.971 8.376,4.840 8.422,4.840 8.406 C 4.840 8.305,5.606 7.120,5.671 7.120 C 5.688 7.120,5.853 7.272,6.039 7.459 M7.103 9.910 C 6.967 11.177,6.967 12.822,7.103 14.089 L 7.128 14.317 6.794 14.203 C 5.736 13.839,4.955 13.394,4.457 12.873 C 3.853 12.241,3.867 11.693,4.502 11.072 C 4.953 10.632,5.649 10.226,6.553 9.878 C 6.832 9.771,7.075 9.682,7.094 9.681 C 7.113 9.681,7.117 9.784,7.103 9.910 M13.465 14.948 C 13.448 14.966,12.818 14.980,12.067 14.980 C 10.769 14.980,10.394 14.959,9.514 14.835 L 9.208 14.792 9.184 14.626 C 9.063 13.774,9.025 13.128,9.023 11.940 C 9.022 11.236,9.036 10.625,9.053 10.582 C 9.079 10.516,9.414 10.835,11.290 12.710 C 12.504 13.924,13.482 14.931,13.465 14.948 M6.119 16.084 C 6.389 16.177,6.810 16.309,7.054 16.377 L 7.499 16.501 7.623 16.946 C 7.804 17.593,8.057 18.311,8.278 18.806 C 8.384 19.045,8.459 19.240,8.444 19.240 C 8.429 19.240,8.251 19.145,8.047 19.028 C 6.756 18.289,5.678 17.207,4.965 15.935 C 4.852 15.734,4.760 15.560,4.760 15.549 C 4.760 15.538,4.955 15.616,5.194 15.722 C 5.432 15.829,5.849 15.992,6.119 16.084 M10.680 16.961 C 11.647 17.031,13.092 17.004,14.089 16.897 L 14.318 16.872 14.265 17.046 C 14.076 17.658,13.705 18.446,13.366 18.956 C 12.960 19.564,12.404 20.000,12.035 20.000 C 11.775 20.000,11.458 19.852,11.195 19.609 C 10.635 19.090,10.224 18.387,9.813 17.246 L 9.678 16.872 9.909 16.897 C 10.036 16.910,10.383 16.939,10.680 16.961 M16.561 17.982 L 16.900 18.325 16.780 18.424 C 16.457 18.691,15.531 19.248,15.573 19.149 C 15.585 19.122,15.674 18.920,15.770 18.700 C 15.867 18.480,15.998 18.152,16.062 17.970 C 16.126 17.788,16.188 17.640,16.200 17.640 C 16.212 17.640,16.374 17.794,16.561 17.982 " stroke="none" fill-rule="evenodd" fill="black"></path></svg>