<svg xmlns="http://www.w3.org/2000/svg" width="24" height="24" viewBox="0 0 24 24" fill="none" stroke="currentColor" stroke-width="2" stroke-linecap="round" stroke-linejoin="round"><path d="M11.320 2.026 C 10.395 2.116,9.900 2.207,9.152 2.424 C 6.534 3.184,4.294 5.065,3.039 7.560 C 2.866 7.906,2.554 8.698,2.427 9.120 C 1.976 10.612,1.884 12.249,2.165 13.780 C 2.667 16.511,4.274 18.913,6.600 20.408 C 8.914 21.895,11.753 22.365,14.400 21.698 C 17.881 20.822,20.596 18.217,21.590 14.800 C 21.856 13.889,21.972 13.130,21.977 12.280 C 21.980 11.717,21.977 11.694,21.871 11.514 C 21.482 10.853,20.520 10.847,20.135 11.505 C 20.042 11.664,20.026 11.752,19.977 12.411 C 19.898 13.466,19.728 14.225,19.383 15.059 C 18.116 18.125,15.036 20.111,11.740 19.987 C 9.725 19.911,7.901 19.141,6.465 17.761 C 3.679 15.082,3.206 10.773,5.346 7.572 C 7.259 4.712,10.699 3.413,14.070 4.278 C 14.437 4.372,14.877 4.532,15.400 4.761 C 15.963 5.008,16.308 4.984,16.661 4.674 C 16.888 4.474,16.978 4.267,16.978 3.940 C 16.978 3.427,16.760 3.175,16.052 2.869 C 15.198 2.499,14.593 2.315,13.722 2.159 C 12.987 2.028,11.914 1.969,11.320 2.026 M19.477 2.073 C 18.978 2.204,18.449 2.628,18.218 3.084 C 17.891 3.728,17.941 4.534,18.342 5.118 L 18.479 5.317 17.064 9.361 C 16.285 11.585,15.642 13.410,15.634 13.416 C 15.626 13.422,15.080 13.859,14.420 14.387 C 13.038 15.493,13.020 15.513,13.020 16.000 C 13.020 16.257,13.036 16.327,13.133 16.492 C 13.263 16.714,13.502 16.901,13.736 16.965 C 13.951 17.022,14.290 16.986,14.459 16.886 C 14.629 16.786,17.148 14.766,17.273 14.630 C 17.387 14.505,17.363 14.572,19.019 9.833 L 20.371 5.967 20.496 5.943 C 20.925 5.863,21.554 5.366,21.771 4.937 C 21.994 4.498,22.052 4.007,21.940 3.529 C 21.858 3.182,21.720 2.927,21.465 2.653 C 21.074 2.232,20.560 2.005,20.000 2.005 C 19.857 2.005,19.622 2.036,19.477 2.073 M11.477 10.073 C 10.806 10.249,10.238 10.823,10.060 11.508 C 9.941 11.962,10.003 12.492,10.225 12.930 C 10.361 13.199,10.801 13.639,11.070 13.775 C 11.659 14.073,12.341 14.073,12.930 13.775 C 13.196 13.640,13.638 13.200,13.771 12.937 C 13.994 12.498,14.052 12.007,13.940 11.529 C 13.858 11.182,13.720 10.927,13.465 10.653 C 13.074 10.232,12.560 10.005,12.000 10.005 C 11.857 10.005,11.622 10.036,11.477 10.073 " stroke="none" fill-rule="evenodd" fill="black"></path></svg>