<svg xmlns="http://www.w3.org/2000/svg" width="24" height="24" viewBox="0 0 24 24" fill="none" stroke="currentColor" stroke-width="2" stroke-linecap="round" stroke-linejoin="round"><path d="M2.695 4.057 C 2.466 4.129,2.256 4.299,2.128 4.516 C 2.037 4.672,2.020 4.746,2.020 5.000 C 2.020 5.256,2.036 5.328,2.131 5.489 C 2.256 5.702,2.449 5.864,2.670 5.943 C 2.893 6.023,21.107 6.023,21.330 5.943 C 21.551 5.864,21.744 5.702,21.869 5.489 C 21.964 5.328,21.980 5.256,21.980 5.000 C 21.980 4.746,21.963 4.672,21.872 4.516 C 21.740 4.293,21.533 4.128,21.290 4.055 C 21.027 3.976,2.947 3.978,2.695 4.057 M3.643 8.066 C 3.282 8.199,3.000 8.615,3.000 9.016 C 3.000 9.260,5.049 15.385,5.200 15.594 C 5.264 15.682,5.403 15.805,5.508 15.867 L 5.700 15.980 6.500 15.980 L 7.300 15.980 7.492 15.867 C 7.597 15.805,7.735 15.683,7.799 15.595 C 7.950 15.386,10.000 9.260,10.000 9.016 C 10.000 8.254,9.206 7.779,8.521 8.131 C 8.175 8.309,8.158 8.349,7.295 10.936 L 6.501 13.318 5.700 10.923 C 5.070 9.038,4.874 8.496,4.780 8.379 C 4.527 8.067,4.021 7.928,3.643 8.066 M11.695 8.057 C 11.466 8.129,11.256 8.299,11.128 8.516 L 11.020 8.700 11.020 12.003 L 11.020 15.306 11.141 15.503 C 11.543 16.156,12.457 16.156,12.859 15.503 L 12.980 15.306 12.980 12.003 L 12.980 8.700 12.872 8.516 C 12.628 8.101,12.150 7.915,11.695 8.057 M15.695 8.055 C 15.464 8.130,15.255 8.300,15.128 8.516 L 15.020 8.700 15.020 12.003 L 15.020 15.306 15.141 15.503 C 15.543 16.156,16.457 16.156,16.859 15.503 C 16.979 15.309,16.980 15.300,16.993 14.658 L 17.007 14.009 17.793 13.990 C 18.464 13.974,18.621 13.958,18.860 13.882 C 19.835 13.570,20.582 12.817,20.886 11.840 C 21.021 11.406,21.021 10.594,20.886 10.160 C 20.581 9.182,19.825 8.421,18.861 8.124 C 18.551 8.028,18.495 8.025,17.200 8.014 C 16.166 8.005,15.822 8.014,15.695 8.055 M18.310 10.061 C 18.688 10.173,19.000 10.598,19.000 11.001 C 19.000 11.331,18.784 11.696,18.484 11.872 C 18.308 11.975,18.272 11.981,17.650 11.993 L 17.000 12.007 17.000 11.003 L 17.000 10.000 17.553 10.000 C 17.931 10.000,18.170 10.019,18.310 10.061 M2.695 18.057 C 2.466 18.129,2.256 18.299,2.128 18.516 C 2.037 18.672,2.020 18.746,2.020 19.000 C 2.020 19.256,2.036 19.328,2.131 19.489 C 2.256 19.702,2.449 19.864,2.670 19.943 C 2.893 20.023,21.107 20.023,21.330 19.943 C 21.551 19.864,21.744 19.702,21.869 19.489 C 21.964 19.328,21.980 19.256,21.980 19.000 C 21.980 18.746,21.963 18.672,21.872 18.516 C 21.740 18.293,21.533 18.128,21.290 18.055 C 21.027 17.976,2.947 17.978,2.695 18.057 " stroke="none" fill-rule="evenodd" fill="black"></path></svg>