<svg xmlns="http://www.w3.org/2000/svg" width="24" height="24" viewBox="0 0 24 24" fill="none" stroke="currentColor" stroke-width="2" stroke-linecap="round" stroke-linejoin="round"><path d="M2.670 2.061 C 2.448 2.142,2.250 2.309,2.128 2.516 C 2.037 2.672,2.020 2.746,2.020 3.000 C 2.020 3.354,2.109 3.538,2.434 3.855 L 2.633 4.051 2.447 4.179 C 2.344 4.249,2.206 4.394,2.140 4.500 C 2.034 4.671,2.020 4.730,2.020 4.997 C 2.020 5.256,2.036 5.327,2.131 5.489 C 2.192 5.592,2.304 5.725,2.381 5.783 C 2.635 5.977,2.753 5.996,3.700 5.998 L 4.580 6.000 6.215 7.635 L 7.850 9.270 7.175 11.295 L 6.501 13.319 5.700 10.923 C 4.832 8.324,4.830 8.320,4.476 8.134 C 3.796 7.778,3.000 8.253,3.000 9.016 C 3.000 9.260,5.049 15.385,5.200 15.594 C 5.264 15.682,5.403 15.805,5.508 15.867 L 5.700 15.980 6.500 15.980 L 7.300 15.980 7.492 15.867 C 7.597 15.805,7.735 15.683,7.798 15.596 C 7.879 15.485,8.132 14.779,8.661 13.189 C 9.073 11.952,9.422 10.927,9.436 10.911 C 9.451 10.895,9.808 11.228,10.230 11.651 L 10.997 12.420 11.009 13.863 L 11.020 15.306 11.141 15.503 C 11.543 16.155,12.457 16.156,12.857 15.505 C 12.966 15.329,12.979 15.269,12.999 14.875 L 13.020 14.439 14.800 16.220 L 16.580 18.000 9.736 18.000 C 4.053 18.000,2.862 18.009,2.710 18.055 C 2.467 18.128,2.260 18.293,2.128 18.516 C 2.037 18.672,2.020 18.746,2.020 19.000 C 2.020 19.256,2.036 19.328,2.131 19.489 C 2.256 19.702,2.449 19.864,2.670 19.943 C 2.793 19.987,4.222 19.997,10.700 19.998 L 18.581 20.000 19.460 20.883 C 19.944 21.368,20.421 21.814,20.520 21.873 C 20.672 21.964,20.746 21.980,21.000 21.980 C 21.257 21.980,21.327 21.964,21.492 21.867 C 21.968 21.587,22.139 20.967,21.865 20.508 C 21.810 20.416,17.665 16.243,12.653 11.235 C 4.231 2.820,3.525 2.125,3.343 2.065 C 3.107 1.987,2.874 1.986,2.670 2.061 M8.695 4.057 C 8.466 4.129,8.256 4.299,8.128 4.516 C 8.037 4.672,8.020 4.746,8.020 5.000 C 8.020 5.256,8.036 5.328,8.131 5.489 C 8.256 5.702,8.449 5.864,8.670 5.943 C 8.892 6.022,21.108 6.022,21.330 5.943 C 21.551 5.864,21.744 5.702,21.869 5.489 C 21.964 5.328,21.980 5.256,21.980 5.000 C 21.980 4.746,21.963 4.672,21.872 4.516 C 21.740 4.293,21.533 4.128,21.290 4.055 C 21.028 3.976,8.947 3.978,8.695 4.057 M15.695 8.055 C 15.464 8.130,15.255 8.300,15.128 8.516 L 15.020 8.700 15.020 10.503 L 15.020 12.306 15.141 12.503 C 15.287 12.740,15.577 12.946,15.817 12.982 C 15.988 13.007,15.993 13.012,16.018 13.183 C 16.054 13.423,16.260 13.713,16.497 13.859 L 16.694 13.980 17.617 13.980 C 18.473 13.980,18.562 13.973,18.840 13.886 C 19.827 13.578,20.579 12.826,20.886 11.840 C 21.021 11.406,21.021 10.594,20.886 10.160 C 20.581 9.182,19.825 8.421,18.861 8.124 C 18.551 8.028,18.495 8.025,17.200 8.014 C 16.166 8.005,15.822 8.014,15.695 8.055 M18.310 10.061 C 18.688 10.173,19.000 10.598,19.000 11.001 C 19.000 11.331,18.784 11.696,18.484 11.872 C 18.308 11.975,18.272 11.981,17.650 11.993 L 17.000 12.007 17.000 11.003 L 17.000 10.000 17.553 10.000 C 17.931 10.000,18.170 10.019,18.310 10.061 " stroke="none" fill-rule="evenodd" fill="black"></path></svg>