<svg xmlns="http://www.w3.org/2000/svg" width="24" height="24" viewBox="0 0 24 24" fill="none" stroke="currentColor" stroke-width="2" stroke-linecap="round" stroke-linejoin="round"><path d="M2.670 2.061 C 2.449 2.142,2.250 2.309,2.129 2.515 C 2.021 2.699,2.013 2.768,2.029 3.360 C 2.031 3.437,2.025 6.812,2.016 10.860 C 2.004 15.903,2.012 18.284,2.041 18.423 C 2.148 18.941,2.602 19.538,3.070 19.775 C 3.521 20.004,3.461 20.000,6.921 20.000 C 10.534 20.000,10.381 19.988,10.697 20.303 C 10.893 20.500,11.000 20.764,11.000 21.057 C 11.001 21.256,11.149 21.582,11.305 21.728 C 11.483 21.894,11.751 21.998,12.000 21.998 C 12.249 21.998,12.517 21.894,12.695 21.728 C 12.851 21.582,12.999 21.256,13.000 21.057 C 13.000 20.764,13.107 20.500,13.303 20.303 C 13.611 19.995,13.562 20.000,16.238 20.000 L 18.581 20.000 19.460 20.883 C 19.944 21.368,20.421 21.814,20.520 21.873 C 20.672 21.964,20.746 21.980,21.000 21.980 C 21.257 21.980,21.327 21.964,21.492 21.867 C 21.968 21.587,22.139 20.967,21.865 20.508 C 21.810 20.416,17.665 16.243,12.653 11.235 C 4.231 2.820,3.525 2.125,3.343 2.065 C 3.107 1.987,2.874 1.986,2.670 2.061 M6.695 2.056 C 6.465 2.130,6.255 2.300,6.128 2.516 C 6.037 2.672,6.020 2.746,6.020 3.000 C 6.020 3.256,6.036 3.328,6.131 3.489 C 6.192 3.592,6.304 3.725,6.381 3.783 C 6.655 3.992,6.695 3.996,8.463 3.998 C 10.334 4.000,10.395 4.008,10.679 4.283 C 10.986 4.582,10.978 4.523,11.000 6.523 L 11.020 8.306 11.141 8.503 C 11.209 8.613,11.346 8.756,11.452 8.828 C 11.923 9.144,12.554 8.999,12.859 8.503 L 12.980 8.306 13.000 6.523 C 13.022 4.523,13.014 4.582,13.321 4.283 C 13.622 3.992,13.514 4.000,16.947 4.000 L 19.999 4.000 20.010 10.653 L 20.020 17.306 20.141 17.503 C 20.543 18.156,21.457 18.156,21.859 17.503 L 21.980 17.306 21.990 10.551 C 22.002 3.199,22.011 3.536,21.782 3.083 C 21.641 2.806,21.293 2.446,20.998 2.271 C 20.524 1.991,20.584 1.995,16.820 2.009 L 13.460 2.022 13.160 2.114 C 12.817 2.218,12.418 2.425,12.170 2.627 L 12.000 2.765 11.830 2.627 C 11.581 2.424,11.182 2.217,10.840 2.115 C 10.550 2.028,10.477 2.024,8.700 2.014 C 7.258 2.005,6.824 2.014,6.695 2.056 M11.000 15.290 C 11.000 16.868,10.995 18.160,10.990 18.160 C 10.985 18.159,10.881 18.129,10.760 18.091 C 10.563 18.031,10.205 18.022,7.270 18.010 L 4.000 17.997 4.000 11.709 L 4.000 5.420 7.500 8.920 L 11.000 12.420 11.000 15.290 M15.695 6.057 C 15.466 6.129,15.256 6.299,15.128 6.516 C 15.037 6.672,15.020 6.746,15.020 7.000 C 15.020 7.256,15.036 7.328,15.131 7.489 C 15.256 7.702,15.449 7.864,15.670 7.943 C 15.878 8.017,17.122 8.017,17.330 7.943 C 17.551 7.864,17.744 7.702,17.869 7.489 C 17.964 7.328,17.980 7.256,17.980 7.000 C 17.980 6.746,17.963 6.672,17.872 6.516 C 17.740 6.293,17.533 6.128,17.290 6.055 C 17.050 5.983,15.928 5.984,15.695 6.057 M6.695 10.057 C 6.466 10.129,6.256 10.299,6.128 10.516 C 6.037 10.672,6.020 10.746,6.020 11.000 C 6.020 11.256,6.036 11.328,6.131 11.489 C 6.256 11.702,6.449 11.864,6.670 11.943 C 6.878 12.017,8.122 12.017,8.330 11.943 C 8.551 11.864,8.744 11.702,8.869 11.489 C 8.964 11.328,8.980 11.256,8.980 11.000 C 8.980 10.746,8.963 10.672,8.872 10.516 C 8.740 10.293,8.533 10.128,8.290 10.055 C 8.050 9.983,6.928 9.984,6.695 10.057 M15.695 10.057 C 15.466 10.129,15.256 10.299,15.128 10.516 C 15.037 10.672,15.020 10.746,15.020 11.000 C 15.020 11.256,15.036 11.328,15.131 11.489 C 15.256 11.702,15.449 11.864,15.670 11.943 C 15.878 12.017,17.122 12.017,17.330 11.943 C 17.551 11.864,17.744 11.702,17.869 11.489 C 17.964 11.328,17.980 11.256,17.980 11.000 C 17.980 10.746,17.963 10.672,17.872 10.516 C 17.740 10.293,17.533 10.128,17.290 10.055 C 17.050 9.983,15.928 9.984,15.695 10.057 M15.010 18.004 C 13.735 18.023,13.421 18.039,13.240 18.093 C 13.119 18.129,13.015 18.159,13.010 18.160 C 13.005 18.160,13.000 17.319,13.000 16.290 L 13.000 14.420 14.780 16.200 L 16.561 17.980 15.010 18.004 " stroke="none" fill-rule="evenodd" fill="black"></path></svg>