<svg xmlns="http://www.w3.org/2000/svg" width="24" height="24" viewBox="0 0 24 24" fill="none" stroke="currentColor" stroke-width="2" stroke-linecap="round" stroke-linejoin="round"><path d="M3.477 2.073 C 2.804 2.250,2.238 2.823,2.060 3.508 C 2.008 3.707,2.000 4.691,2.000 11.000 C 2.000 18.922,1.987 18.460,2.225 18.930 C 2.361 19.199,2.801 19.639,3.070 19.775 C 3.521 20.004,3.461 20.000,6.921 20.000 C 10.534 20.000,10.381 19.988,10.697 20.303 C 10.893 20.500,11.000 20.764,11.000 21.057 C 11.001 21.256,11.149 21.582,11.305 21.728 C 11.686 22.084,12.314 22.084,12.695 21.728 C 12.851 21.582,12.999 21.256,13.000 21.057 C 13.000 20.764,13.107 20.500,13.303 20.303 C 13.619 19.988,13.466 20.000,17.079 20.000 C 20.539 20.000,20.479 20.004,20.930 19.775 C 21.196 19.640,21.638 19.200,21.771 18.937 C 22.014 18.459,22.000 18.929,21.999 11.014 C 21.999 3.156,22.009 3.532,21.781 3.083 C 21.641 2.806,21.293 2.446,20.998 2.271 C 20.524 1.991,20.584 1.995,16.820 2.009 L 13.460 2.022 13.160 2.114 C 12.817 2.218,12.418 2.425,12.170 2.627 L 12.000 2.765 11.830 2.627 C 11.582 2.425,11.183 2.218,10.840 2.114 L 10.540 2.022 7.140 2.013 C 4.021 2.004,3.718 2.009,3.477 2.073 M10.310 4.061 C 10.589 4.144,10.856 4.411,10.939 4.690 C 10.993 4.869,11.000 5.706,11.000 11.527 C 11.000 15.175,10.995 18.160,10.990 18.160 C 10.985 18.159,10.881 18.129,10.760 18.091 C 10.563 18.031,10.205 18.022,7.270 18.010 L 4.000 17.997 4.000 10.998 L 4.000 4.000 7.053 4.000 C 9.669 4.000,10.135 4.009,10.310 4.061 M20.000 10.998 L 20.000 17.997 16.730 18.010 C 13.795 18.022,13.437 18.031,13.240 18.091 C 13.119 18.129,13.015 18.159,13.010 18.160 C 13.005 18.160,13.000 15.175,13.000 11.527 C 13.000 4.063,12.976 4.630,13.304 4.303 C 13.613 3.994,13.464 4.006,16.930 4.003 L 20.000 4.000 20.000 10.998 M6.695 6.057 C 6.466 6.129,6.256 6.299,6.128 6.516 C 6.037 6.672,6.020 6.746,6.020 7.000 C 6.020 7.256,6.036 7.328,6.131 7.489 C 6.256 7.702,6.449 7.864,6.670 7.943 C 6.878 8.017,8.122 8.017,8.330 7.943 C 8.551 7.864,8.744 7.702,8.869 7.489 C 8.964 7.328,8.980 7.256,8.980 7.000 C 8.980 6.746,8.963 6.672,8.872 6.516 C 8.740 6.293,8.533 6.128,8.290 6.055 C 8.050 5.983,6.928 5.984,6.695 6.057 M15.695 6.057 C 15.466 6.129,15.256 6.299,15.128 6.516 C 15.037 6.672,15.020 6.746,15.020 7.000 C 15.020 7.256,15.036 7.328,15.131 7.489 C 15.256 7.702,15.449 7.864,15.670 7.943 C 15.878 8.017,17.122 8.017,17.330 7.943 C 17.551 7.864,17.744 7.702,17.869 7.489 C 17.964 7.328,17.980 7.256,17.980 7.000 C 17.980 6.746,17.963 6.672,17.872 6.516 C 17.740 6.293,17.533 6.128,17.290 6.055 C 17.050 5.983,15.928 5.984,15.695 6.057 M6.695 10.057 C 6.466 10.129,6.256 10.299,6.128 10.516 C 6.037 10.672,6.020 10.746,6.020 11.000 C 6.020 11.256,6.036 11.328,6.131 11.489 C 6.256 11.702,6.449 11.864,6.670 11.943 C 6.878 12.017,8.122 12.017,8.330 11.943 C 8.551 11.864,8.744 11.702,8.869 11.489 C 8.964 11.328,8.980 11.256,8.980 11.000 C 8.980 10.746,8.963 10.672,8.872 10.516 C 8.740 10.293,8.533 10.128,8.290 10.055 C 8.050 9.983,6.928 9.984,6.695 10.057 M15.695 10.057 C 15.466 10.129,15.256 10.299,15.128 10.516 C 15.037 10.672,15.020 10.746,15.020 11.000 C 15.020 11.256,15.036 11.328,15.131 11.489 C 15.256 11.702,15.449 11.864,15.670 11.943 C 15.878 12.017,17.122 12.017,17.330 11.943 C 17.551 11.864,17.744 11.702,17.869 11.489 C 17.964 11.328,17.980 11.256,17.980 11.000 C 17.980 10.746,17.963 10.672,17.872 10.516 C 17.740 10.293,17.533 10.128,17.290 10.055 C 17.050 9.983,15.928 9.984,15.695 10.057 M15.695 14.057 C 15.466 14.129,15.256 14.299,15.128 14.516 C 15.037 14.672,15.020 14.746,15.020 15.000 C 15.020 15.256,15.036 15.328,15.131 15.489 C 15.256 15.702,15.449 15.864,15.670 15.943 C 15.878 16.017,17.122 16.017,17.330 15.943 C 17.551 15.864,17.744 15.702,17.869 15.489 C 17.964 15.328,17.980 15.256,17.980 15.000 C 17.980 14.746,17.963 14.672,17.872 14.516 C 17.740 14.293,17.533 14.128,17.290 14.055 C 17.050 13.983,15.928 13.984,15.695 14.057 " stroke="none" fill-rule="evenodd" fill="black"></path></svg>