<svg xmlns="http://www.w3.org/2000/svg" width="24" height="24" viewBox="0 0 24 24" fill="none" stroke="currentColor" stroke-width="2" stroke-linecap="round" stroke-linejoin="round"><path d="M11.695 3.057 C 11.466 3.129,11.256 3.299,11.128 3.516 L 11.020 3.700 11.020 6.003 L 11.020 8.306 11.141 8.503 C 11.543 9.156,12.457 9.156,12.859 8.503 L 12.980 8.306 12.980 6.003 L 12.980 3.700 12.872 3.516 C 12.628 3.101,12.150 2.915,11.695 3.057 M6.499 4.040 C 5.363 4.246,4.454 5.055,4.115 6.160 C 4.045 6.390,4.023 6.559,4.022 6.883 C 4.020 7.285,4.026 7.315,4.141 7.503 C 4.537 8.147,5.457 8.156,5.849 7.520 C 5.927 7.392,5.971 7.249,5.999 7.031 C 6.049 6.636,6.114 6.485,6.321 6.283 C 6.490 6.120,6.777 6.000,7.000 6.000 C 7.223 6.000,7.510 6.120,7.679 6.283 C 7.950 6.547,7.973 6.636,7.998 7.523 L 8.020 8.306 8.141 8.503 C 8.543 9.156,9.457 9.156,9.859 8.503 L 9.980 8.306 9.980 7.383 C 9.980 6.527,9.973 6.438,9.886 6.160 C 9.580 5.178,8.810 4.407,7.861 4.129 C 7.500 4.023,6.832 3.980,6.499 4.040 M16.499 4.040 C 15.363 4.246,14.461 5.048,14.114 6.160 C 14.027 6.438,14.020 6.527,14.020 7.383 L 14.020 8.306 14.141 8.503 C 14.543 9.156,15.457 9.156,15.859 8.503 L 15.980 8.306 16.002 7.523 C 16.027 6.636,16.050 6.547,16.321 6.283 C 16.490 6.120,16.777 6.000,17.000 6.000 C 17.223 6.000,17.510 6.120,17.679 6.283 C 17.886 6.485,17.951 6.636,18.001 7.031 C 18.049 7.410,18.184 7.647,18.452 7.828 C 18.923 8.144,19.554 7.998,19.859 7.503 C 19.974 7.315,19.980 7.285,19.978 6.883 C 19.977 6.559,19.955 6.390,19.885 6.160 C 19.586 5.184,18.811 4.407,17.861 4.129 C 17.500 4.023,16.832 3.980,16.499 4.040 M8.854 10.041 C 8.138 10.138,7.344 10.606,6.918 11.183 C 6.832 11.299,6.690 11.535,6.603 11.707 C 6.423 12.065,3.116 19.509,3.046 19.716 C 2.936 20.041,3.039 20.441,3.299 20.701 C 3.689 21.091,4.311 21.092,4.697 20.704 C 4.838 20.562,4.996 20.233,5.853 18.300 C 6.400 17.068,6.859 16.049,6.873 16.036 C 6.935 15.979,7.160 16.093,7.401 16.300 C 7.724 16.581,7.928 16.695,8.380 16.851 C 8.714 16.966,8.781 16.976,9.300 16.978 C 9.714 16.979,9.928 16.962,10.120 16.910 C 10.507 16.805,10.988 16.552,11.271 16.304 C 11.535 16.071,11.705 16.000,12.000 16.000 C 12.295 16.000,12.465 16.071,12.729 16.304 C 13.012 16.552,13.493 16.805,13.880 16.910 C 14.072 16.962,14.286 16.979,14.700 16.978 C 15.219 16.976,15.286 16.966,15.620 16.851 C 16.072 16.695,16.276 16.581,16.599 16.300 C 16.840 16.093,17.065 15.979,17.127 16.036 C 17.141 16.049,17.600 17.068,18.147 18.300 C 19.004 20.233,19.162 20.562,19.303 20.704 C 19.689 21.092,20.311 21.091,20.701 20.701 C 20.961 20.441,21.064 20.041,20.954 19.716 C 20.884 19.509,17.577 12.065,17.397 11.707 C 16.980 10.883,16.354 10.363,15.454 10.095 C 15.241 10.031,14.941 10.024,12.160 10.017 C 10.477 10.012,8.989 10.023,8.854 10.041 M15.140 12.106 C 15.431 12.264,15.536 12.423,15.916 13.278 C 16.116 13.729,16.279 14.116,16.279 14.138 C 16.278 14.161,16.146 14.240,15.986 14.313 C 15.820 14.389,15.576 14.548,15.420 14.683 C 15.125 14.938,14.977 14.999,14.656 15.000 C 14.364 15.000,14.216 14.936,13.907 14.676 C 13.349 14.208,12.811 14.024,12.000 14.024 C 11.189 14.024,10.651 14.208,10.093 14.676 C 9.784 14.936,9.636 15.000,9.344 15.000 C 9.023 14.999,8.875 14.938,8.580 14.683 C 8.424 14.548,8.180 14.389,8.014 14.313 C 7.854 14.240,7.722 14.161,7.721 14.138 C 7.721 14.116,7.884 13.729,8.084 13.278 C 8.508 12.322,8.631 12.163,9.040 12.037 C 9.095 12.020,10.454 12.009,12.060 12.013 C 14.971 12.020,14.981 12.020,15.140 12.106 " stroke="none" fill-rule="evenodd" fill="black"></path></svg>