<svg xmlns="http://www.w3.org/2000/svg" width="24" height="24" viewBox="0 0 24 24" fill="none" stroke="currentColor" stroke-width="2" stroke-linecap="round" stroke-linejoin="round"><path d="M9.634 3.170 C 9.313 3.283,9.084 3.436,8.875 3.678 C 8.789 3.778,7.996 4.792,7.114 5.930 L 5.509 8.000 4.625 8.002 C 3.923 8.004,3.686 8.019,3.477 8.073 C 2.806 8.249,2.238 8.823,2.060 9.508 C 1.971 9.847,1.971 14.153,2.060 14.492 C 2.153 14.852,2.310 15.118,2.596 15.404 C 3.105 15.914,3.399 16.000,4.623 16.000 L 5.509 16.000 7.114 18.070 C 7.996 19.209,8.789 20.222,8.875 20.322 C 9.533 21.085,10.748 21.131,11.463 20.421 C 11.589 20.296,11.726 20.098,11.823 19.902 L 11.980 19.584 11.980 12.000 L 11.980 4.416 11.824 4.100 C 11.624 3.696,11.384 3.456,10.983 3.257 C 10.694 3.115,10.638 3.101,10.284 3.090 C 9.964 3.080,9.856 3.093,9.634 3.170 M9.990 15.243 L 9.980 18.486 8.330 16.365 C 6.949 14.588,6.650 14.225,6.490 14.132 L 6.300 14.020 5.150 14.007 L 4.000 13.995 4.000 11.999 L 4.000 10.004 5.131 9.992 C 6.252 9.980,6.264 9.979,6.461 9.879 C 6.641 9.787,6.816 9.578,8.320 7.646 L 9.980 5.514 9.990 8.757 C 9.996 10.541,9.996 13.459,9.990 15.243 M15.670 9.061 C 15.448 9.142,15.250 9.309,15.128 9.516 C 15.036 9.672,15.020 9.745,15.021 10.000 C 15.021 10.213,15.043 10.340,15.096 10.440 C 15.136 10.517,15.486 10.900,15.873 11.290 L 16.577 12.000 15.873 12.710 C 15.486 13.101,15.139 13.481,15.101 13.555 C 14.872 14.008,15.056 14.601,15.508 14.867 C 15.673 14.964,15.742 14.980,16.000 14.979 C 16.213 14.979,16.340 14.957,16.440 14.904 C 16.517 14.864,16.899 14.514,17.290 14.127 L 18.000 13.423 18.710 14.127 C 19.101 14.514,19.483 14.864,19.560 14.904 C 19.660 14.957,19.787 14.979,20.000 14.979 C 20.258 14.980,20.327 14.964,20.492 14.867 C 20.714 14.737,20.901 14.498,20.965 14.264 C 21.019 14.061,20.989 13.733,20.899 13.555 C 20.861 13.481,20.514 13.101,20.127 12.710 L 19.423 12.000 20.127 11.290 C 20.514 10.900,20.864 10.517,20.904 10.440 C 20.957 10.340,20.979 10.213,20.979 10.000 C 20.980 9.745,20.964 9.672,20.872 9.516 C 20.617 9.083,20.135 8.905,19.657 9.067 C 19.491 9.123,19.345 9.247,18.730 9.854 L 18.000 10.574 17.270 9.854 C 16.655 9.247,16.509 9.123,16.343 9.067 C 16.108 8.987,15.876 8.985,15.670 9.061 " stroke="none" fill-rule="evenodd" fill="black"></path></svg>