<svg xmlns="http://www.w3.org/2000/svg" width="24" height="24" viewBox="0 0 24 24" fill="none" stroke="currentColor" stroke-width="2" stroke-linecap="round" stroke-linejoin="round"><path d="M2.670 2.061 C 2.448 2.142,2.250 2.309,2.128 2.516 C 2.036 2.672,2.020 2.745,2.021 3.000 C 2.021 3.212,2.043 3.341,2.095 3.440 C 2.135 3.517,3.025 4.439,4.071 5.488 L 5.974 7.396 5.743 7.698 L 5.512 8.000 4.626 8.002 C 3.923 8.004,3.686 8.019,3.477 8.073 C 2.806 8.249,2.238 8.823,2.060 9.508 C 1.971 9.847,1.971 14.153,2.060 14.492 C 2.153 14.852,2.310 15.118,2.596 15.404 C 3.105 15.914,3.399 16.000,4.623 16.000 L 5.509 16.000 7.114 18.070 C 7.996 19.209,8.789 20.222,8.875 20.322 C 9.533 21.085,10.748 21.131,11.463 20.421 C 11.589 20.296,11.726 20.098,11.823 19.902 L 11.980 19.584 11.991 16.503 L 12.002 13.423 13.055 14.475 L 14.108 15.527 14.056 15.674 C 13.948 15.975,14.014 16.354,14.222 16.626 C 14.453 16.929,14.946 17.076,15.306 16.950 L 15.473 16.892 16.195 17.616 L 16.918 18.340 16.812 18.553 C 16.490 19.202,16.921 19.933,17.659 19.989 C 17.867 20.005,17.931 19.991,18.128 19.891 L 18.355 19.775 19.348 20.770 C 19.893 21.317,20.421 21.814,20.520 21.873 C 20.672 21.964,20.746 21.980,21.000 21.980 C 21.257 21.980,21.327 21.964,21.492 21.867 C 21.968 21.587,22.139 20.967,21.865 20.508 C 21.810 20.416,17.665 16.243,12.653 11.235 C 4.231 2.820,3.525 2.125,3.343 2.065 C 3.107 1.987,2.874 1.986,2.670 2.061 M9.680 3.153 C 9.389 3.250,9.254 3.324,9.052 3.498 C 8.849 3.673,8.225 4.492,8.140 4.693 C 8.070 4.862,8.062 5.155,8.123 5.374 C 8.177 5.568,8.451 5.870,8.660 5.965 C 9.042 6.140,9.583 6.006,9.852 5.671 L 9.980 5.511 10.000 6.409 L 10.020 7.307 10.141 7.503 C 10.543 8.156,11.457 8.156,11.859 7.503 L 11.980 7.306 11.980 5.861 L 11.980 4.416 11.824 4.100 C 11.624 3.696,11.384 3.456,10.983 3.257 C 10.693 3.114,10.639 3.102,10.284 3.091 C 9.995 3.083,9.846 3.098,9.680 3.153 M17.382 4.057 C 16.799 4.274,16.535 4.936,16.818 5.474 C 16.848 5.532,17.120 5.813,17.421 6.098 C 18.409 7.030,19.022 7.917,19.482 9.080 C 19.863 10.041,20.014 10.872,20.014 12.000 C 20.014 13.322,19.826 14.176,19.258 15.440 C 19.046 15.913,19.017 16.163,19.140 16.470 C 19.225 16.681,19.537 16.969,19.751 17.032 C 20.107 17.139,20.493 17.052,20.742 16.808 C 21.149 16.407,21.755 14.696,21.948 13.402 C 22.055 12.683,22.044 11.192,21.925 10.480 C 21.641 8.772,21.024 7.317,20.016 5.974 C 19.465 5.239,18.520 4.305,18.124 4.101 C 17.937 4.006,17.579 3.984,17.382 4.057 M14.734 7.038 C 14.284 7.146,13.962 7.621,14.012 8.106 C 14.043 8.402,14.186 8.630,14.497 8.878 C 15.337 9.546,15.894 10.599,15.986 11.694 C 16.001 11.875,15.990 12.226,15.960 12.521 C 15.893 13.178,15.928 13.328,16.218 13.625 C 16.523 13.938,16.940 14.012,17.342 13.825 C 17.710 13.654,17.859 13.401,17.944 12.800 C 18.200 11.004,17.565 9.098,16.278 7.804 C 15.561 7.082,15.232 6.919,14.734 7.038 M8.710 10.130 L 10.000 11.421 9.990 14.953 L 9.980 18.486 8.320 16.356 C 6.819 14.430,6.641 14.217,6.460 14.123 C 6.261 14.020,6.255 14.020,5.130 14.008 L 4.000 13.995 4.000 11.999 L 4.000 10.004 5.131 9.992 C 6.549 9.977,6.487 9.999,7.020 9.310 C 7.218 9.055,7.389 8.844,7.400 8.843 C 7.411 8.841,8.001 9.421,8.710 10.130 " stroke="none" fill-rule="evenodd" fill="black"></path></svg>