<svg xmlns="http://www.w3.org/2000/svg" width="24" height="24" viewBox="0 0 24 24" fill="none" stroke="currentColor" stroke-width="2" stroke-linecap="round" stroke-linejoin="round"><path d="M11.280 1.023 C 11.203 1.032,10.951 1.059,10.720 1.083 C 9.216 1.243,7.644 1.781,6.303 2.595 C 4.894 3.450,3.555 4.769,2.661 6.180 C 2.377 6.629,1.893 7.614,1.701 8.133 C 0.646 10.995,0.785 14.042,2.097 16.780 C 2.643 17.918,3.276 18.801,4.238 19.762 C 5.199 20.724,6.082 21.357,7.220 21.903 C 10.967 23.699,15.288 23.270,18.637 20.770 C 19.246 20.316,20.316 19.246,20.770 18.637 C 23.743 14.653,23.745 9.348,20.774 5.367 C 20.316 4.755,19.249 3.688,18.640 3.235 C 17.045 2.049,15.365 1.360,13.423 1.096 C 13.000 1.038,11.574 0.990,11.280 1.023 M13.320 3.101 C 15.883 3.488,18.124 4.931,19.560 7.120 C 19.863 7.583,20.303 8.479,20.492 9.020 C 20.838 10.013,20.977 10.865,20.977 12.000 C 20.977 12.888,20.919 13.397,20.733 14.160 C 20.209 16.312,18.843 18.249,16.960 19.511 C 16.139 20.061,14.901 20.582,13.908 20.797 C 11.268 21.366,8.479 20.708,6.370 19.019 C 4.857 17.807,3.722 16.029,3.267 14.160 C 3.081 13.397,3.023 12.888,3.023 12.000 C 3.023 10.507,3.280 9.379,3.920 8.060 C 4.971 5.891,6.877 4.221,9.160 3.466 C 9.865 3.233,10.432 3.118,11.340 3.024 C 11.662 2.991,12.911 3.039,13.320 3.101 M6.643 8.066 C 6.282 8.199,6.000 8.615,6.000 9.016 C 6.000 9.122,6.366 10.276,7.045 12.312 C 8.182 15.724,8.166 15.686,8.531 15.874 C 9.052 16.142,9.690 15.918,9.916 15.388 C 9.956 15.295,10.441 13.860,10.994 12.198 C 11.643 10.249,12.000 9.120,12.000 9.016 C 12.000 8.254,11.206 7.779,10.521 8.131 C 10.190 8.302,10.138 8.410,9.555 10.156 C 9.261 11.038,9.011 11.760,9.000 11.760 C 8.989 11.760,8.739 11.038,8.445 10.156 C 7.860 8.404,7.814 8.309,7.471 8.131 C 7.229 8.005,6.884 7.978,6.643 8.066 M14.477 8.073 C 13.806 8.249,13.238 8.823,13.060 9.508 C 12.976 9.828,12.976 11.172,13.060 11.492 C 13.153 11.852,13.310 12.118,13.596 12.404 C 14.073 12.881,14.426 13.000,15.368 13.000 L 16.000 13.000 16.000 13.500 L 16.000 14.000 15.483 14.000 L 14.966 14.000 14.923 13.869 C 14.868 13.701,14.632 13.458,14.423 13.351 C 14.199 13.237,13.801 13.237,13.577 13.351 C 13.086 13.602,12.904 14.077,13.063 14.693 C 13.143 15.001,13.281 15.237,13.522 15.478 C 13.967 15.923,14.245 16.000,15.407 16.000 C 16.598 16.000,16.898 15.910,17.404 15.404 C 17.895 14.913,18.000 14.579,17.999 13.514 C 17.999 12.459,17.903 12.124,17.465 11.653 C 16.998 11.150,16.590 11.006,15.630 11.002 L 15.000 11.000 15.000 10.500 L 15.000 10.000 15.517 10.000 L 16.034 10.000 16.077 10.131 C 16.132 10.297,16.366 10.540,16.577 10.652 C 16.802 10.770,17.198 10.770,17.423 10.652 C 17.917 10.391,18.096 9.923,17.937 9.307 C 17.772 8.673,17.224 8.162,16.581 8.044 C 16.192 7.972,14.790 7.992,14.477 8.073 " stroke="none" fill-rule="evenodd" fill="black"></path></svg>