<svg xmlns="http://www.w3.org/2000/svg" width="24" height="24" viewBox="0 0 24 24" fill="none" stroke="currentColor" stroke-width="2" stroke-linecap="round" stroke-linejoin="round"><path d="M2.670 2.061 C 2.448 2.142,2.250 2.309,2.128 2.516 C 2.036 2.672,2.020 2.745,2.021 3.000 C 2.021 3.214,2.043 3.340,2.096 3.440 C 2.137 3.517,2.418 3.832,2.722 4.140 L 3.273 4.700 3.147 5.060 L 3.020 5.420 3.020 11.980 L 3.020 18.540 3.114 18.840 C 3.422 19.827,4.173 20.578,5.160 20.886 L 5.460 20.980 12.020 20.980 L 18.580 20.980 18.940 20.853 L 19.300 20.727 19.860 21.278 C 20.168 21.582,20.483 21.863,20.560 21.904 C 20.660 21.957,20.786 21.979,21.000 21.979 C 21.258 21.980,21.327 21.964,21.492 21.867 C 21.968 21.587,22.139 20.967,21.865 20.508 C 21.810 20.416,17.665 16.243,12.653 11.235 C 4.231 2.820,3.525 2.125,3.343 2.065 C 3.107 1.987,2.874 1.986,2.670 2.061 M7.695 3.057 C 7.465 3.129,7.256 3.299,7.128 3.516 C 7.036 3.672,7.020 3.746,7.020 4.003 C 7.020 4.271,7.034 4.329,7.141 4.503 C 7.287 4.740,7.577 4.946,7.817 4.982 C 7.988 5.007,7.993 5.012,8.018 5.183 C 8.054 5.423,8.260 5.713,8.497 5.859 C 8.671 5.966,8.729 5.980,9.000 5.980 C 9.271 5.980,9.329 5.966,9.503 5.859 C 9.742 5.712,9.946 5.422,9.982 5.179 L 10.009 5.000 14.057 5.000 C 18.634 5.000,18.377 4.983,18.697 5.303 C 18.948 5.554,19.000 5.751,19.000 6.447 L 19.000 7.000 15.446 7.000 C 11.590 7.000,11.678 6.995,11.382 7.221 C 11.302 7.282,11.187 7.415,11.128 7.516 C 11.037 7.672,11.020 7.746,11.020 8.000 C 11.020 8.256,11.036 8.328,11.131 8.489 C 11.256 8.702,11.449 8.864,11.670 8.943 C 11.768 8.978,12.022 8.997,12.407 8.998 L 12.993 9.000 13.007 9.653 C 13.020 10.300,13.021 10.308,13.141 10.503 C 13.543 11.156,14.457 11.156,14.859 10.503 C 14.979 10.308,14.980 10.300,14.993 9.653 L 15.007 9.000 17.003 9.000 L 19.000 9.000 19.000 10.000 L 19.000 11.000 17.446 11.000 C 15.758 11.000,15.658 11.011,15.382 11.221 C 15.302 11.282,15.187 11.415,15.128 11.516 C 15.037 11.672,15.020 11.746,15.020 12.000 C 15.020 12.256,15.036 12.328,15.131 12.489 C 15.192 12.592,15.304 12.725,15.381 12.783 C 15.654 12.991,15.700 12.996,17.408 12.998 L 18.997 13.000 19.008 14.653 L 19.020 16.306 19.141 16.503 C 19.543 17.156,20.457 17.156,20.859 16.503 L 20.980 16.306 20.980 10.883 L 20.980 5.460 20.886 5.160 C 20.581 4.182,19.832 3.428,18.861 3.121 L 18.540 3.020 13.200 3.012 C 8.900 3.006,7.828 3.015,7.695 3.057 M5.300 6.720 L 5.578 7.000 5.289 7.000 L 5.000 7.000 5.000 6.720 C 5.000 6.566,5.005 6.440,5.011 6.440 C 5.017 6.440,5.147 6.566,5.300 6.720 M8.580 10.000 L 9.579 11.000 7.290 11.000 L 5.000 11.000 5.000 10.000 L 5.000 9.000 6.290 9.000 L 7.581 9.000 8.580 10.000 M7.000 14.000 L 7.000 15.000 6.000 15.000 L 5.000 15.000 5.000 14.000 L 5.000 13.000 6.000 13.000 L 7.000 13.000 7.000 14.000 M12.580 14.000 L 13.579 15.000 11.290 15.000 L 9.000 15.000 9.000 14.000 L 9.000 13.000 10.290 13.000 L 11.581 13.000 12.580 14.000 M10.000 18.001 L 10.000 19.003 7.850 18.991 L 5.700 18.980 5.516 18.872 C 5.415 18.813,5.284 18.700,5.225 18.623 C 5.038 18.377,5.000 18.202,5.000 17.575 L 5.000 17.000 7.500 17.000 L 10.000 17.000 10.000 18.001 M16.580 18.000 L 17.579 19.000 14.790 19.000 L 12.000 19.000 12.000 18.000 L 12.000 17.000 13.790 17.000 L 15.581 17.000 16.580 18.000 " stroke="none" fill-rule="evenodd" fill="black"></path></svg>