<svg xmlns="http://www.w3.org/2000/svg" width="24" height="24" viewBox="0 0 24 24" fill="none" stroke="currentColor" stroke-width="2" stroke-linecap="round" stroke-linejoin="round"><path d="M2.670 2.061 C 2.448 2.142,2.250 2.309,2.128 2.516 C 2.036 2.672,2.020 2.745,2.021 3.000 C 2.021 3.214,2.043 3.340,2.096 3.440 C 2.137 3.517,2.423 3.836,2.732 4.149 L 3.293 4.717 3.228 4.869 C 3.192 4.952,3.131 5.128,3.091 5.260 C 3.024 5.486,3.020 5.879,3.020 12.020 L 3.020 18.540 3.114 18.840 C 3.422 19.827,4.173 20.578,5.160 20.886 L 5.460 20.980 11.960 20.980 L 18.460 20.980 18.687 20.888 C 18.812 20.838,18.976 20.754,19.052 20.703 L 19.190 20.609 19.765 21.187 C 20.480 21.906,20.595 21.980,21.000 21.980 C 21.257 21.980,21.327 21.964,21.492 21.867 C 21.968 21.587,22.139 20.967,21.865 20.508 C 21.810 20.416,17.665 16.243,12.653 11.235 C 4.231 2.820,3.525 2.125,3.343 2.065 C 3.107 1.987,2.874 1.986,2.670 2.061 M7.695 3.057 C 7.466 3.129,7.256 3.299,7.128 3.516 C 7.037 3.672,7.020 3.746,7.020 4.000 C 7.020 4.256,7.036 4.328,7.131 4.489 C 7.256 4.702,7.449 4.864,7.670 4.943 C 7.791 4.986,8.598 4.997,11.910 4.998 L 16.000 5.000 16.000 6.000 L 16.000 7.000 13.946 7.000 C 11.717 7.000,11.666 7.004,11.382 7.221 C 11.302 7.282,11.187 7.415,11.128 7.516 C 11.037 7.672,11.020 7.746,11.020 8.000 C 11.020 8.256,11.036 8.328,11.131 8.489 C 11.256 8.702,11.449 8.864,11.670 8.943 C 11.790 8.986,12.433 8.997,14.910 8.998 L 18.000 9.000 18.000 10.000 L 18.000 11.000 16.946 11.000 C 15.797 11.000,15.644 11.022,15.382 11.221 C 15.302 11.282,15.187 11.415,15.128 11.516 C 15.037 11.672,15.020 11.746,15.020 12.000 C 15.020 12.256,15.036 12.328,15.131 12.489 C 15.192 12.592,15.304 12.725,15.381 12.783 C 15.654 12.991,15.700 12.996,17.408 12.998 L 18.997 13.000 19.008 14.653 L 19.020 16.306 19.141 16.503 C 19.543 17.156,20.457 17.156,20.859 16.503 L 20.980 16.306 20.980 14.003 L 20.980 11.700 20.871 11.514 C 20.730 11.275,20.485 11.096,20.214 11.035 L 20.000 10.987 19.999 9.884 C 19.999 8.382,19.931 8.122,19.404 7.597 C 19.080 7.274,18.742 7.099,18.310 7.031 L 18.000 6.982 17.999 5.881 C 17.999 4.691,17.970 4.455,17.781 4.083 C 17.646 3.816,17.297 3.449,17.017 3.281 C 16.539 2.993,16.744 3.005,12.060 3.005 C 8.738 3.005,7.825 3.016,7.695 3.057 M5.240 8.906 C 5.410 8.956,5.701 8.975,6.524 8.989 L 7.588 9.008 10.300 11.720 L 13.012 14.432 13.086 14.726 C 13.348 15.772,14.240 16.665,15.270 16.911 L 15.559 16.980 16.570 17.990 L 17.580 19.001 11.640 18.990 L 5.700 18.980 5.516 18.872 C 5.415 18.813,5.284 18.700,5.225 18.623 C 4.989 18.314,5.000 18.564,5.000 13.495 C 5.000 10.935,5.005 8.840,5.010 8.840 C 5.016 8.841,5.119 8.870,5.240 8.906 " stroke="none" fill-rule="evenodd" fill="black"></path></svg>