<svg xmlns="http://www.w3.org/2000/svg" width="24" height="24" viewBox="0 0 24 24" fill="none" stroke="currentColor" stroke-width="2" stroke-linecap="round" stroke-linejoin="round"><path d="M11.080 2.045 C 9.507 2.184,7.883 2.751,6.540 3.630 C 5.905 4.045,5.499 4.378,4.919 4.958 C 2.953 6.926,1.919 9.544,2.013 12.320 C 2.084 14.439,2.752 16.328,4.033 18.040 C 4.430 18.570,5.305 19.464,5.800 19.847 C 7.242 20.961,8.787 21.624,10.600 21.907 C 11.247 22.008,12.753 22.008,13.400 21.907 C 15.638 21.557,17.504 20.620,19.062 19.062 C 20.620 17.504,21.557 15.638,21.907 13.400 C 22.008 12.753,22.008 11.247,21.907 10.600 C 21.624 8.786,20.959 7.238,19.847 5.800 C 19.510 5.365,18.639 4.494,18.200 4.154 C 16.133 2.555,13.646 1.818,11.080 2.045 M12.734 4.041 C 14.574 4.216,16.228 4.976,17.554 6.256 C 20.043 8.658,20.702 12.394,19.183 15.499 C 18.749 16.387,18.223 17.105,17.496 17.801 C 16.876 18.394,16.262 18.819,15.471 19.200 C 13.267 20.265,10.733 20.265,8.529 19.200 C 7.477 18.693,6.612 18.015,5.847 17.100 C 3.848 14.711,3.440 11.302,4.816 8.500 C 6.162 5.760,8.867 4.049,11.920 4.005 C 12.129 4.003,12.495 4.019,12.734 4.041 M7.643 7.069 C 7.299 7.190,7.000 7.614,7.000 7.981 C 7.000 8.171,8.510 16.195,8.582 16.387 C 8.659 16.594,8.926 16.845,9.167 16.937 C 9.321 16.996,9.459 17.005,10.064 16.993 C 10.875 16.978,10.977 16.948,11.250 16.645 C 11.416 16.462,11.425 16.435,11.743 15.150 C 11.872 14.627,11.988 14.200,12.000 14.200 C 12.012 14.200,12.128 14.627,12.257 15.150 C 12.575 16.435,12.584 16.462,12.750 16.645 C 13.023 16.948,13.125 16.978,13.936 16.993 C 14.541 17.005,14.679 16.996,14.833 16.937 C 15.074 16.845,15.341 16.594,15.418 16.387 C 15.490 16.195,17.000 8.171,17.000 7.981 C 17.000 7.472,16.518 7.000,15.998 7.000 C 15.651 7.000,15.267 7.237,15.120 7.541 C 15.060 7.665,14.862 8.627,14.482 10.650 C 13.977 13.337,13.928 13.567,13.888 13.420 C 13.864 13.332,13.638 12.435,13.385 11.427 C 12.892 9.458,12.862 9.375,12.567 9.180 C 12.221 8.951,11.767 8.956,11.424 9.191 C 11.132 9.393,11.105 9.467,10.615 11.427 C 10.362 12.435,10.136 13.332,10.112 13.420 C 10.072 13.567,10.023 13.337,9.518 10.650 C 9.138 8.627,8.940 7.665,8.880 7.541 C 8.670 7.106,8.125 6.898,7.643 7.069 " stroke="none" fill-rule="evenodd" fill="black"></path></svg>