<svg xmlns="http://www.w3.org/2000/svg" width="24" height="24" viewBox="0 0 24 24" fill="none" stroke="currentColor" stroke-width="2" stroke-linecap="round" stroke-linejoin="round"><path d="M2.670 2.061 C 2.448 2.142,2.250 2.309,2.128 2.516 C 2.037 2.672,2.020 2.746,2.020 3.000 C 2.020 3.254,2.036 3.327,2.127 3.480 C 2.187 3.579,3.072 4.496,4.096 5.518 L 5.957 7.376 5.748 7.494 C 5.634 7.558,5.447 7.663,5.334 7.727 C 5.118 7.848,4.407 8.026,4.360 7.972 C 4.345 7.954,4.248 7.427,4.144 6.801 C 3.940 5.560,3.899 5.435,3.623 5.225 C 3.206 4.907,2.660 4.937,2.299 5.299 C 2.128 5.470,2.000 5.757,2.000 5.969 C 2.000 6.032,2.106 6.727,2.236 7.512 C 2.366 8.297,2.481 8.994,2.491 9.060 C 2.700 10.453,3.782 16.749,3.843 16.930 C 4.117 17.746,4.782 18.467,5.549 18.779 C 6.111 19.007,5.906 19.000,11.989 19.000 L 17.580 19.000 18.960 20.383 C 19.719 21.143,20.421 21.814,20.520 21.873 C 20.673 21.964,20.746 21.980,21.000 21.980 C 21.257 21.980,21.327 21.964,21.492 21.867 C 21.968 21.587,22.139 20.967,21.865 20.508 C 21.810 20.416,17.665 16.243,12.653 11.235 C 4.231 2.820,3.525 2.125,3.343 2.065 C 3.107 1.987,2.874 1.986,2.670 2.061 M20.670 5.061 C 20.455 5.140,20.251 5.308,20.140 5.497 C 20.063 5.628,20.005 5.893,19.856 6.801 C 19.752 7.427,19.655 7.954,19.640 7.972 C 19.585 8.035,18.875 7.845,18.624 7.700 C 17.596 7.106,16.583 6.903,15.332 7.043 C 14.596 7.125,14.049 7.308,13.388 7.694 C 13.260 7.768,13.004 7.869,12.819 7.918 C 12.424 8.022,12.208 8.164,12.060 8.416 C 11.775 8.903,11.972 9.557,12.482 9.821 C 12.879 10.026,13.635 9.859,14.480 9.379 C 14.984 9.093,15.263 9.027,15.980 9.026 C 16.732 9.025,17.014 9.091,17.533 9.387 C 17.981 9.643,18.544 9.847,19.010 9.921 C 19.180 9.949,19.320 9.978,19.320 9.986 C 19.320 9.994,19.122 11.176,18.880 12.613 C 18.638 14.049,18.440 15.323,18.441 15.442 C 18.442 15.818,18.647 16.155,18.980 16.332 C 19.204 16.452,19.637 16.451,19.860 16.332 C 20.065 16.223,20.259 16.020,20.337 15.833 C 20.399 15.685,22.000 6.186,22.000 5.969 C 22.000 5.757,21.872 5.470,21.701 5.299 C 21.431 5.029,21.018 4.933,20.670 5.061 M11.600 13.020 L 15.580 17.000 11.065 17.000 C 7.692 17.000,6.509 16.988,6.391 16.952 C 6.181 16.890,5.865 16.601,5.785 16.400 C 5.739 16.286,4.680 10.137,4.680 9.986 C 4.680 9.978,4.819 9.949,4.990 9.921 C 5.454 9.847,6.018 9.644,6.463 9.389 C 6.851 9.168,7.198 9.050,7.480 9.043 C 7.614 9.040,7.799 9.219,11.600 13.020 " stroke="none" fill-rule="evenodd" fill="black"></path></svg>