<svg xmlns="http://www.w3.org/2000/svg" width="24" height="24" viewBox="0 0 24 24" fill="none" stroke="currentColor" stroke-width="2" stroke-linecap="round" stroke-linejoin="round"><path d="M2.643 5.069 C 2.304 5.189,2.000 5.614,2.000 5.969 C 2.000 6.032,2.106 6.727,2.236 7.512 C 2.366 8.297,2.481 8.994,2.491 9.060 C 2.700 10.453,3.782 16.749,3.843 16.930 C 4.117 17.746,4.782 18.467,5.549 18.779 C 6.111 19.007,5.905 19.000,12.000 19.000 C 18.116 19.000,17.897 19.008,18.460 18.772 C 19.243 18.444,19.890 17.739,20.156 16.924 C 20.236 16.681,22.000 6.192,22.000 5.964 C 22.000 5.756,21.870 5.468,21.701 5.299 C 21.340 4.937,20.794 4.907,20.377 5.225 C 20.101 5.435,20.060 5.560,19.856 6.801 C 19.752 7.427,19.655 7.954,19.640 7.972 C 19.604 8.013,18.923 7.864,18.752 7.777 C 18.680 7.740,18.521 7.649,18.399 7.575 C 18.093 7.387,17.630 7.217,17.149 7.113 C 16.560 6.986,15.440 6.986,14.851 7.113 C 14.370 7.217,13.907 7.387,13.601 7.575 C 13.238 7.796,13.132 7.841,12.768 7.921 C 12.307 8.023,11.693 8.023,11.232 7.921 C 10.868 7.841,10.762 7.796,10.399 7.575 C 10.093 7.387,9.630 7.217,9.149 7.113 C 8.560 6.986,7.440 6.986,6.851 7.113 C 6.370 7.217,5.907 7.387,5.601 7.575 C 5.479 7.649,5.320 7.740,5.248 7.777 C 5.077 7.864,4.396 8.013,4.360 7.972 C 4.345 7.954,4.248 7.427,4.144 6.801 C 3.940 5.560,3.899 5.435,3.623 5.225 C 3.333 5.004,2.984 4.948,2.643 5.069 M8.856 9.099 C 9.043 9.139,9.261 9.232,9.533 9.387 C 10.253 9.798,11.064 10.000,12.000 10.000 C 12.934 10.000,13.747 9.798,14.463 9.390 C 14.985 9.092,15.255 9.027,15.980 9.026 C 16.732 9.025,17.014 9.091,17.533 9.387 C 17.981 9.643,18.544 9.847,19.010 9.921 C 19.180 9.949,19.320 9.978,19.320 9.986 C 19.320 10.137,18.261 16.286,18.215 16.400 C 18.135 16.601,17.819 16.890,17.609 16.952 C 17.381 17.021,6.619 17.021,6.391 16.952 C 6.181 16.890,5.865 16.601,5.785 16.400 C 5.739 16.286,4.680 10.137,4.680 9.986 C 4.680 9.978,4.819 9.949,4.990 9.921 C 5.452 9.848,6.017 9.644,6.463 9.391 C 6.875 9.157,7.043 9.098,7.456 9.039 C 7.779 8.993,8.511 9.025,8.856 9.099 M9.695 11.055 C 9.464 11.130,9.255 11.300,9.128 11.516 C 9.037 11.672,9.020 11.746,9.020 12.000 C 9.020 12.257,9.036 12.327,9.133 12.492 C 9.651 13.374,10.998 13.018,10.998 12.000 C 10.998 11.623,10.792 11.281,10.463 11.112 C 10.265 11.010,9.911 10.984,9.695 11.055 M13.695 11.055 C 13.464 11.130,13.255 11.300,13.128 11.516 C 13.037 11.672,13.020 11.746,13.020 12.000 C 13.020 12.257,13.036 12.327,13.133 12.492 C 13.651 13.374,14.998 13.018,14.998 12.000 C 14.998 11.623,14.792 11.281,14.463 11.112 C 14.265 11.010,13.911 10.984,13.695 11.055 M9.695 14.055 C 9.464 14.130,9.255 14.300,9.128 14.516 C 9.037 14.672,9.020 14.746,9.020 15.000 C 9.020 15.257,9.036 15.327,9.133 15.492 C 9.651 16.374,10.998 16.018,10.998 15.000 C 10.998 14.623,10.792 14.281,10.463 14.112 C 10.265 14.010,9.911 13.984,9.695 14.055 M13.695 14.055 C 13.464 14.130,13.255 14.300,13.128 14.516 C 13.037 14.672,13.020 14.746,13.020 15.000 C 13.020 15.257,13.036 15.327,13.133 15.492 C 13.651 16.374,14.998 16.018,14.998 15.000 C 14.998 14.623,14.792 14.281,14.463 14.112 C 14.265 14.010,13.911 13.984,13.695 14.055 " stroke="none" fill-rule="evenodd" fill="black"></path></svg>