<svg xmlns="http://www.w3.org/2000/svg" width="24" height="24" viewBox="0 0 24 24" fill="none" stroke="currentColor" stroke-width="2" stroke-linecap="round" stroke-linejoin="round"><path d="M5.358 2.061 C 3.731 2.315,2.417 3.584,2.083 5.227 C 2.001 5.627,2.000 5.723,2.000 12.000 C 2.000 18.277,2.001 18.373,2.083 18.773 C 2.311 19.892,2.985 20.851,3.956 21.436 C 4.285 21.635,4.810 21.832,5.243 21.921 C 5.622 21.998,5.805 22.000,12.000 22.000 C 18.195 22.000,18.378 21.998,18.757 21.921 C 20.117 21.643,21.193 20.755,21.704 19.488 C 21.779 19.300,21.877 18.972,21.921 18.757 C 21.998 18.378,22.000 18.195,22.000 12.000 C 22.000 5.805,21.998 5.622,21.921 5.243 C 21.628 3.806,20.637 2.680,19.245 2.204 C 18.646 1.999,18.690 2.000,11.960 2.004 C 6.959 2.007,5.631 2.018,5.358 2.061 M18.523 4.073 C 19.212 4.253,19.795 4.860,19.941 5.549 C 20.027 5.954,20.027 18.046,19.941 18.451 C 19.863 18.821,19.710 19.091,19.400 19.404 C 19.119 19.690,18.854 19.846,18.492 19.940 C 18.147 20.030,5.853 20.030,5.508 19.940 C 4.823 19.762,4.249 19.194,4.073 18.523 C 4.010 18.280,4.004 17.786,4.002 12.028 C 4.000 5.109,3.986 5.479,4.265 5.014 C 4.546 4.543,4.988 4.201,5.477 4.073 C 5.720 4.010,6.211 4.005,12.000 4.005 C 17.789 4.005,18.280 4.010,18.523 4.073 M7.695 6.057 C 7.466 6.129,7.256 6.299,7.128 6.516 L 7.020 6.700 7.020 12.003 L 7.020 17.306 7.141 17.503 C 7.543 18.156,8.457 18.156,8.859 17.503 L 8.980 17.306 8.980 12.003 L 8.980 6.700 8.872 6.516 C 8.628 6.101,8.150 5.915,7.695 6.057 M11.695 6.057 C 11.466 6.129,11.256 6.299,11.128 6.516 L 11.020 6.700 11.020 12.003 L 11.020 17.306 11.141 17.503 C 11.543 18.156,12.457 18.156,12.859 17.503 L 12.980 17.306 12.980 12.003 L 12.980 6.700 12.872 6.516 C 12.628 6.101,12.150 5.915,11.695 6.057 M15.695 6.057 C 15.466 6.129,15.256 6.299,15.128 6.516 L 15.020 6.700 15.020 12.003 L 15.020 17.306 15.141 17.503 C 15.543 18.156,16.457 18.156,16.859 17.503 L 16.980 17.306 16.980 12.003 L 16.980 6.700 16.872 6.516 C 16.628 6.101,16.150 5.915,15.695 6.057 " stroke="none" fill-rule="evenodd" fill="black"></path></svg>