<svg xmlns="http://www.w3.org/2000/svg" width="24" height="24" viewBox="0 0 24 24" fill="none" stroke="currentColor" stroke-width="2" stroke-linecap="round" stroke-linejoin="round"><path d="M2.670 2.061 C 2.448 2.142,2.250 2.309,2.128 2.516 C 2.037 2.672,2.020 2.746,2.020 3.000 C 2.020 3.345,2.110 3.541,2.396 3.818 C 2.551 3.968,2.556 3.980,2.499 4.068 C 2.373 4.260,2.156 4.868,2.079 5.243 C 2.002 5.622,2.000 5.805,2.000 12.000 C 2.000 18.277,2.001 18.373,2.083 18.773 C 2.311 19.892,2.985 20.851,3.956 21.436 C 4.285 21.635,4.810 21.832,5.243 21.921 C 5.622 21.998,5.805 22.000,12.000 22.000 C 18.195 22.000,18.378 21.998,18.757 21.921 C 19.132 21.844,19.740 21.627,19.932 21.501 C 20.020 21.444,20.032 21.449,20.182 21.604 C 20.459 21.890,20.655 21.980,21.000 21.980 C 21.257 21.980,21.327 21.964,21.492 21.867 C 21.968 21.587,22.139 20.967,21.865 20.508 C 21.810 20.416,17.665 16.243,12.653 11.235 C 4.231 2.820,3.525 2.125,3.343 2.065 C 3.107 1.987,2.874 1.986,2.670 2.061 M6.695 2.057 C 6.466 2.129,6.256 2.299,6.128 2.516 C 6.037 2.672,6.020 2.746,6.020 3.000 C 6.020 3.256,6.036 3.328,6.131 3.489 C 6.256 3.702,6.449 3.864,6.670 3.943 C 6.793 3.987,7.862 3.997,12.512 3.998 C 18.831 4.000,18.524 3.988,18.986 4.265 C 19.288 4.446,19.492 4.642,19.686 4.937 C 20.003 5.421,19.977 4.881,20.000 11.443 L 20.020 17.306 20.141 17.503 C 20.543 18.156,21.457 18.156,21.859 17.503 L 21.980 17.306 21.991 11.472 C 22.001 5.774,21.999 5.629,21.921 5.245 C 21.628 3.806,20.638 2.681,19.245 2.204 C 18.651 2.001,18.642 2.000,12.540 2.003 C 8.012 2.005,6.826 2.016,6.695 2.057 M11.298 12.718 C 15.257 16.677,18.482 19.931,18.465 19.948 C 18.415 19.998,5.818 20.009,5.577 19.959 C 4.887 19.816,4.253 19.211,4.073 18.523 C 4.010 18.280,4.004 17.787,4.003 12.040 C 4.002 8.619,4.012 5.753,4.026 5.670 C 4.039 5.588,4.062 5.520,4.075 5.520 C 4.089 5.520,7.339 8.759,11.298 12.718 " stroke="none" fill-rule="evenodd" fill="black"></path></svg>