<svg xmlns="http://www.w3.org/2000/svg" width="24" height="24" viewBox="0 0 24 24" fill="none" stroke="currentColor" stroke-width="2" stroke-linecap="round" stroke-linejoin="round"><path d="M2.643 2.069 C 2.304 2.189,2.000 2.614,2.000 2.969 C 2.000 3.032,2.106 3.727,2.236 4.512 C 2.366 5.297,2.481 5.994,2.491 6.060 C 2.700 7.453,3.782 13.749,3.843 13.930 C 4.117 14.746,4.782 15.467,5.549 15.779 C 6.111 16.007,5.905 16.000,12.000 16.000 C 18.116 16.000,17.897 16.008,18.460 15.772 C 19.243 15.444,19.890 14.739,20.156 13.924 C 20.236 13.681,22.000 3.192,22.000 2.964 C 22.000 2.756,21.870 2.468,21.701 2.299 C 21.340 1.937,20.794 1.907,20.377 2.225 C 20.101 2.435,20.060 2.560,19.856 3.801 C 19.752 4.427,19.655 4.954,19.640 4.972 C 19.604 5.013,18.923 4.864,18.752 4.777 C 18.680 4.740,18.521 4.649,18.399 4.575 C 18.093 4.387,17.630 4.217,17.149 4.113 C 16.560 3.986,15.440 3.986,14.851 4.113 C 14.370 4.217,13.907 4.387,13.601 4.575 C 13.238 4.796,13.132 4.841,12.768 4.921 C 12.307 5.023,11.693 5.023,11.232 4.921 C 10.868 4.841,10.762 4.796,10.399 4.575 C 10.093 4.387,9.630 4.217,9.149 4.113 C 8.560 3.986,7.440 3.986,6.851 4.113 C 6.370 4.217,5.907 4.387,5.601 4.575 C 5.479 4.649,5.320 4.740,5.248 4.777 C 5.077 4.864,4.396 5.013,4.360 4.972 C 4.345 4.954,4.248 4.427,4.144 3.801 C 3.940 2.560,3.899 2.435,3.623 2.225 C 3.333 2.004,2.984 1.948,2.643 2.069 M8.856 6.099 C 9.043 6.139,9.261 6.232,9.533 6.387 C 10.253 6.798,11.064 7.000,12.000 7.000 C 12.934 7.000,13.747 6.798,14.463 6.390 C 14.985 6.092,15.255 6.027,15.980 6.026 C 16.732 6.025,17.014 6.091,17.533 6.387 C 17.981 6.643,18.544 6.847,19.010 6.921 C 19.180 6.949,19.320 6.978,19.320 6.986 C 19.320 7.137,18.261 13.286,18.215 13.400 C 18.135 13.601,17.819 13.890,17.609 13.952 C 17.381 14.021,6.619 14.021,6.391 13.952 C 6.181 13.890,5.865 13.601,5.785 13.400 C 5.739 13.286,4.680 7.137,4.680 6.986 C 4.680 6.978,4.819 6.949,4.990 6.921 C 5.452 6.848,6.017 6.644,6.463 6.391 C 6.875 6.157,7.043 6.098,7.456 6.039 C 7.779 5.993,8.511 6.025,8.856 6.099 M4.695 17.057 C 4.466 17.129,4.256 17.299,4.128 17.516 C 4.037 17.672,4.020 17.746,4.020 18.000 C 4.020 18.256,4.036 18.328,4.131 18.489 C 4.256 18.702,4.449 18.864,4.670 18.943 C 4.893 19.022,19.107 19.022,19.330 18.943 C 19.551 18.864,19.744 18.702,19.869 18.489 C 19.964 18.328,19.980 18.256,19.980 18.000 C 19.980 17.746,19.963 17.672,19.872 17.516 C 19.740 17.293,19.533 17.128,19.290 17.055 C 19.027 16.976,4.947 16.978,4.695 17.057 M4.695 20.057 C 4.466 20.129,4.256 20.299,4.128 20.516 C 4.037 20.672,4.020 20.746,4.020 21.000 C 4.020 21.256,4.036 21.328,4.131 21.489 C 4.256 21.702,4.449 21.864,4.670 21.943 C 4.893 22.022,19.107 22.022,19.330 21.943 C 19.551 21.864,19.744 21.702,19.869 21.489 C 19.964 21.328,19.980 21.256,19.980 21.000 C 19.980 20.746,19.963 20.672,19.872 20.516 C 19.740 20.293,19.533 20.128,19.290 20.055 C 19.027 19.976,4.947 19.978,4.695 20.057 " stroke="none" fill-rule="evenodd" fill="black"></path></svg>