<svg xmlns="http://www.w3.org/2000/svg" width="24" height="24" viewBox="0 0 24 24" fill="none" stroke="currentColor" stroke-width="2" stroke-linecap="round" stroke-linejoin="round"><path d="M5.358 2.061 C 3.731 2.315,2.417 3.584,2.083 5.227 C 2.001 5.627,2.000 5.723,2.000 12.000 C 2.000 18.277,2.001 18.373,2.083 18.773 C 2.311 19.892,2.985 20.851,3.956 21.436 C 4.285 21.635,4.810 21.832,5.243 21.921 C 5.622 21.998,5.805 22.000,12.000 22.000 C 18.195 22.000,18.378 21.998,18.757 21.921 C 20.117 21.643,21.193 20.755,21.704 19.488 C 21.779 19.300,21.877 18.972,21.921 18.757 C 21.998 18.378,22.000 18.195,22.000 12.000 C 22.000 5.805,21.998 5.622,21.921 5.243 C 21.628 3.806,20.637 2.680,19.245 2.204 C 18.646 1.999,18.690 2.000,11.960 2.004 C 6.959 2.007,5.631 2.018,5.358 2.061 M18.523 4.073 C 19.212 4.253,19.795 4.860,19.941 5.549 C 20.027 5.954,20.027 18.046,19.941 18.451 C 19.863 18.821,19.710 19.091,19.400 19.404 C 19.119 19.690,18.854 19.846,18.492 19.940 C 18.147 20.030,5.853 20.030,5.508 19.940 C 4.823 19.762,4.249 19.194,4.073 18.523 C 4.010 18.280,4.004 17.786,4.002 12.028 C 4.000 5.109,3.986 5.479,4.265 5.014 C 4.546 4.543,4.988 4.201,5.477 4.073 C 5.720 4.010,6.211 4.005,12.000 4.005 C 17.789 4.005,18.280 4.010,18.523 4.073 M11.540 5.023 C 10.478 5.125,9.692 5.335,8.910 5.726 C 6.838 6.762,5.448 8.666,5.074 10.980 C 5.008 11.393,5.008 12.607,5.074 13.020 C 5.574 16.112,7.888 18.426,10.980 18.926 C 11.392 18.992,12.607 18.992,13.020 18.926 C 16.109 18.428,18.428 16.109,18.926 13.020 C 18.954 12.844,18.977 12.385,18.977 12.000 C 18.977 11.056,18.876 10.462,18.573 9.620 C 17.715 7.237,15.581 5.473,13.102 5.098 C 12.726 5.041,11.813 4.997,11.540 5.023 M12.552 7.043 C 14.413 7.246,16.001 8.479,16.680 10.248 C 17.092 11.320,17.085 12.720,16.663 13.793 C 16.120 15.174,14.991 16.256,13.600 16.732 C 13.044 16.922,12.670 16.980,12.000 16.980 C 11.330 16.980,10.956 16.922,10.400 16.732 C 8.808 16.188,7.580 14.864,7.161 13.240 C 6.920 12.307,6.983 11.125,7.320 10.248 C 8.146 8.096,10.274 6.793,12.552 7.043 M8.695 11.055 C 8.464 11.130,8.255 11.300,8.128 11.516 C 8.037 11.672,8.020 11.746,8.020 12.000 C 8.020 12.257,8.036 12.327,8.133 12.492 C 8.651 13.374,9.998 13.018,9.998 12.000 C 9.998 11.623,9.792 11.281,9.463 11.112 C 9.265 11.010,8.911 10.984,8.695 11.055 M11.695 11.055 C 11.464 11.130,11.255 11.300,11.128 11.516 C 11.037 11.672,11.020 11.746,11.020 12.000 C 11.020 12.257,11.036 12.327,11.133 12.492 C 11.651 13.374,12.998 13.018,12.998 12.000 C 12.998 11.623,12.792 11.281,12.463 11.112 C 12.265 11.010,11.911 10.984,11.695 11.055 M14.695 11.055 C 14.464 11.130,14.255 11.300,14.128 11.516 C 14.037 11.672,14.020 11.746,14.020 12.000 C 14.020 12.257,14.036 12.327,14.133 12.492 C 14.651 13.374,15.998 13.018,15.998 12.000 C 15.998 11.623,15.792 11.281,15.463 11.112 C 15.265 11.010,14.911 10.984,14.695 11.055 " stroke="none" fill-rule="evenodd" fill="black"></path></svg>