<svg xmlns="http://www.w3.org/2000/svg" width="24" height="24" viewBox="0 0 24 24" fill="none" stroke="currentColor" stroke-width="2" stroke-linecap="round" stroke-linejoin="round"><path d="M14.031 3.041 C 12.850 3.240,12.009 4.257,11.541 6.053 C 11.173 7.467,11.053 8.691,11.000 11.600 C 10.947 14.472,10.877 15.519,10.661 16.720 C 10.448 17.901,10.117 18.696,9.745 18.923 C 9.485 19.082,9.097 18.982,8.831 18.688 C 8.328 18.129,8.054 16.956,7.743 14.015 C 7.702 13.633,7.644 13.329,7.563 13.075 C 7.230 12.036,6.421 11.251,5.483 11.057 C 5.244 11.008,4.941 10.998,3.943 11.008 C 2.755 11.019,2.693 11.024,2.537 11.107 C 1.784 11.510,1.808 12.546,2.580 12.906 C 2.775 12.997,2.809 12.999,3.935 13.000 C 5.230 13.000,5.228 13.000,5.461 13.305 C 5.647 13.549,5.709 13.782,5.778 14.501 C 6.094 17.803,6.563 19.315,7.561 20.254 C 8.070 20.733,8.590 20.947,9.340 20.987 C 11.087 21.080,12.199 19.703,12.675 16.860 C 12.881 15.627,12.954 14.491,13.000 11.820 C 13.020 10.654,13.046 9.619,13.058 9.520 C 13.069 9.421,13.098 9.097,13.122 8.800 C 13.267 7.004,13.650 5.609,14.114 5.190 C 14.460 4.878,14.934 4.975,15.241 5.421 C 15.689 6.073,15.950 7.223,16.200 9.645 C 16.285 10.475,16.369 10.877,16.532 11.245 C 16.865 11.998,17.501 12.616,18.208 12.873 C 18.498 12.978,18.508 12.979,19.805 12.992 C 20.648 13.001,21.166 12.991,21.269 12.963 C 21.498 12.901,21.738 12.712,21.867 12.492 C 21.964 12.327,21.980 12.257,21.980 12.000 C 21.980 11.746,21.963 11.672,21.872 11.516 C 21.761 11.327,21.570 11.157,21.373 11.071 C 21.296 11.038,20.867 11.016,20.032 11.001 L 18.804 10.980 18.659 10.840 C 18.340 10.534,18.280 10.339,18.180 9.300 C 17.823 5.578,17.147 3.933,15.695 3.255 C 15.236 3.041,14.553 2.953,14.031 3.041 " stroke="none" fill-rule="evenodd" fill="black"></path></svg>