<svg xmlns="http://www.w3.org/2000/svg" width="24" height="24" viewBox="0 0 24 24" fill="none" stroke="currentColor" stroke-width="2" stroke-linecap="round" stroke-linejoin="round"><path d="M4.820 6.045 C 3.738 6.180,2.438 6.906,2.097 7.565 C 1.874 7.998,2.062 8.606,2.499 8.862 C 2.899 9.096,3.361 9.022,3.752 8.662 C 4.054 8.384,4.255 8.262,4.629 8.131 C 4.910 8.033,4.994 8.023,5.500 8.023 C 6.006 8.023,6.090 8.033,6.371 8.131 C 6.778 8.274,6.950 8.386,7.363 8.778 C 7.552 8.957,7.809 9.171,7.933 9.254 C 9.424 10.243,11.569 10.248,13.050 9.265 C 13.365 9.056,13.748 8.695,13.863 8.498 C 14.217 7.895,13.819 7.095,13.125 7.013 C 12.800 6.975,12.535 7.080,12.202 7.378 C 11.867 7.679,11.626 7.807,11.184 7.919 C 10.581 8.073,9.830 8.000,9.287 7.735 C 9.166 7.676,8.909 7.477,8.697 7.277 C 8.255 6.861,7.959 6.653,7.508 6.439 C 6.727 6.067,5.767 5.927,4.820 6.045 M19.671 6.064 C 19.563 6.097,19.415 6.186,19.327 6.271 C 19.168 6.425,16.149 11.412,16.054 11.680 C 15.933 12.018,16.033 12.435,16.299 12.701 C 16.580 12.983,16.681 13.000,18.027 13.000 C 18.672 13.000,19.200 13.011,19.200 13.024 C 19.200 13.037,18.728 13.833,18.152 14.794 C 17.575 15.754,17.081 16.603,17.054 16.680 C 16.901 17.107,17.096 17.626,17.499 17.862 C 17.840 18.061,18.299 18.028,18.624 17.780 C 18.718 17.708,19.216 16.913,20.333 15.049 C 21.200 13.603,21.932 12.350,21.960 12.264 C 22.072 11.916,21.920 11.452,21.618 11.221 C 21.352 11.018,21.212 11.000,19.936 11.000 L 18.764 11.000 19.864 9.166 C 20.867 7.494,20.967 7.312,20.987 7.111 C 21.020 6.798,20.917 6.513,20.695 6.297 C 20.411 6.021,20.066 5.942,19.671 6.064 M4.820 10.045 C 3.738 10.180,2.438 10.906,2.097 11.565 C 1.874 11.998,2.062 12.606,2.499 12.862 C 2.899 13.096,3.361 13.022,3.752 12.662 C 4.054 12.384,4.255 12.262,4.629 12.131 C 4.910 12.033,4.994 12.023,5.500 12.023 C 6.006 12.023,6.090 12.033,6.371 12.131 C 6.778 12.274,6.950 12.386,7.363 12.778 C 7.552 12.957,7.809 13.171,7.933 13.254 C 9.424 14.243,11.569 14.248,13.050 13.265 C 13.365 13.056,13.748 12.695,13.863 12.498 C 14.217 11.895,13.819 11.095,13.125 11.013 C 12.800 10.975,12.535 11.080,12.202 11.378 C 11.867 11.679,11.626 11.807,11.184 11.919 C 10.581 12.073,9.830 12.000,9.287 11.735 C 9.166 11.676,8.909 11.477,8.697 11.277 C 8.255 10.861,7.959 10.653,7.508 10.439 C 6.727 10.067,5.767 9.927,4.820 10.045 M4.820 14.045 C 3.738 14.180,2.438 14.906,2.097 15.565 C 1.874 15.998,2.062 16.606,2.499 16.862 C 2.899 17.096,3.361 17.022,3.752 16.662 C 4.054 16.384,4.255 16.262,4.629 16.131 C 4.910 16.033,4.994 16.023,5.500 16.023 C 6.006 16.023,6.090 16.033,6.371 16.131 C 6.778 16.274,6.950 16.386,7.363 16.778 C 7.552 16.957,7.809 17.171,7.933 17.254 C 9.424 18.243,11.569 18.248,13.050 17.265 C 13.365 17.056,13.748 16.695,13.863 16.498 C 14.217 15.895,13.819 15.095,13.125 15.013 C 12.800 14.975,12.535 15.080,12.202 15.378 C 11.867 15.679,11.626 15.807,11.184 15.919 C 10.581 16.073,9.830 16.000,9.287 15.735 C 9.166 15.676,8.909 15.477,8.697 15.277 C 8.255 14.861,7.959 14.653,7.508 14.439 C 6.727 14.067,5.767 13.927,4.820 14.045 " stroke="none" fill-rule="evenodd" fill="black"></path></svg>