<svg xmlns="http://www.w3.org/2000/svg" width="24" height="24" viewBox="0 0 24 24" fill="none" stroke="currentColor" stroke-width="2" stroke-linecap="round" stroke-linejoin="round"><path d="M11.695 3.057 C 11.466 3.129,11.256 3.299,11.128 3.516 L 11.020 3.700 11.008 9.720 L 10.995 15.740 9.902 13.561 C 8.721 11.205,8.713 11.193,8.329 11.062 C 8.170 11.008,7.795 11.000,5.519 11.000 C 2.669 11.000,2.672 11.000,2.382 11.221 C 2.302 11.282,2.187 11.415,2.128 11.516 C 2.037 11.672,2.020 11.746,2.020 12.000 C 2.020 12.256,2.036 12.328,2.131 12.489 C 2.256 12.702,2.449 12.864,2.670 12.943 C 2.788 12.985,3.300 12.997,5.100 12.998 L 7.380 13.000 9.260 16.768 C 10.773 19.800,11.172 20.568,11.303 20.702 C 11.686 21.092,12.310 21.092,12.701 20.701 C 13.023 20.379,13.000 20.878,13.002 14.203 L 13.004 8.260 14.097 10.439 C 15.279 12.794,15.287 12.807,15.671 12.938 C 15.830 12.992,16.205 13.000,18.517 12.998 C 20.637 12.997,21.211 12.986,21.330 12.943 C 21.551 12.864,21.744 12.702,21.869 12.489 C 21.964 12.328,21.980 12.256,21.980 12.000 C 21.980 11.746,21.963 11.672,21.872 11.516 C 21.813 11.415,21.698 11.282,21.618 11.221 C 21.331 11.003,21.298 11.000,18.863 11.000 L 16.620 11.000 14.740 7.232 C 12.702 3.147,12.732 3.200,12.340 3.066 C 12.112 2.988,11.923 2.986,11.695 3.057 " stroke="none" fill-rule="evenodd" fill="black"></path></svg>