<svg xmlns="http://www.w3.org/2000/svg" width="24" height="24" viewBox="0 0 24 24" fill="none" stroke="currentColor" stroke-width="2" stroke-linecap="round" stroke-linejoin="round"><path d="M11.695 3.057 C 11.466 3.129,11.256 3.299,11.128 3.516 L 11.020 3.700 11.010 11.350 L 10.999 19.000 10.000 19.000 L 9.002 19.000 8.991 15.350 L 8.980 11.700 8.872 11.516 C 8.740 11.293,8.533 11.128,8.290 11.055 C 8.022 10.974,2.978 10.974,2.710 11.055 C 2.467 11.128,2.260 11.293,2.128 11.516 C 2.037 11.672,2.020 11.746,2.020 12.000 C 2.020 12.256,2.036 12.328,2.131 12.489 C 2.256 12.702,2.449 12.864,2.670 12.943 C 2.788 12.985,3.269 12.997,4.910 12.998 L 7.000 13.000 7.002 16.590 C 7.003 19.484,7.014 20.209,7.057 20.330 C 7.136 20.551,7.298 20.744,7.511 20.869 L 7.700 20.980 10.000 20.980 L 12.300 20.980 12.489 20.869 C 12.702 20.744,12.864 20.551,12.943 20.330 C 12.987 20.207,12.997 18.826,12.998 12.590 L 13.000 5.000 14.000 5.000 L 15.000 5.000 15.002 8.590 C 15.003 11.484,15.014 12.209,15.057 12.330 C 15.136 12.551,15.298 12.744,15.511 12.869 L 15.700 12.980 18.412 12.991 C 20.172 12.998,21.177 12.988,21.276 12.961 C 21.498 12.901,21.739 12.710,21.867 12.492 C 21.964 12.327,21.980 12.257,21.980 12.000 C 21.980 11.746,21.963 11.672,21.872 11.516 C 21.813 11.415,21.698 11.282,21.618 11.221 C 21.334 11.004,21.283 11.000,19.054 11.000 L 17.002 11.000 16.991 7.350 L 16.980 3.700 16.872 3.516 C 16.740 3.293,16.533 3.128,16.290 3.055 C 16.033 2.978,11.943 2.979,11.695 3.057 " stroke="none" fill-rule="evenodd" fill="black"></path></svg>