<svg xmlns="http://www.w3.org/2000/svg" width="24" height="24" viewBox="0 0 24 24" fill="none" stroke="currentColor" stroke-width="2" stroke-linecap="round" stroke-linejoin="round"><path d="M2.670 2.061 C 2.448 2.142,2.250 2.309,2.128 2.516 C 2.036 2.672,2.020 2.745,2.021 3.000 C 2.021 3.212,2.043 3.341,2.095 3.440 C 2.135 3.517,3.262 4.678,4.599 6.020 L 7.030 8.460 7.055 8.712 C 7.150 9.698,7.698 10.818,8.455 11.575 L 8.689 11.809 8.609 11.955 C 7.714 13.574,6.097 16.574,6.056 16.693 C 5.825 17.346,6.388 18.057,7.083 17.991 C 7.333 17.967,7.621 17.818,7.762 17.640 C 7.823 17.563,8.515 16.321,9.299 14.880 C 10.084 13.439,10.739 12.247,10.754 12.231 C 10.770 12.215,11.637 13.056,12.681 14.101 L 14.580 16.000 12.736 16.000 C 10.735 16.000,10.663 16.007,10.382 16.221 C 10.128 16.415,10.038 16.621,9.996 17.106 C 9.975 17.341,9.931 17.643,9.896 17.777 C 9.697 18.555,9.067 19.326,8.340 19.679 C 7.912 19.887,7.622 19.960,7.120 19.986 C 6.644 20.011,6.349 19.959,5.852 19.759 C 4.412 19.183,3.664 17.553,4.161 16.072 C 4.384 15.405,4.685 14.994,5.280 14.546 C 5.580 14.320,5.681 14.218,5.760 14.060 C 5.892 13.797,5.896 13.416,5.771 13.177 C 5.576 12.804,5.130 12.564,4.741 12.622 C 4.403 12.673,3.870 13.049,3.330 13.619 C 2.750 14.230,2.378 14.927,2.140 15.844 C 1.983 16.448,1.957 17.292,2.078 17.875 C 2.419 19.529,3.334 20.746,4.783 21.474 C 5.924 22.048,7.170 22.153,8.448 21.782 C 9.249 21.550,9.886 21.164,10.522 20.524 C 10.969 20.074,11.320 19.586,11.541 19.104 C 11.685 18.791,11.880 18.200,11.880 18.078 C 11.880 18.002,11.927 18.000,14.230 18.000 L 16.581 18.000 17.437 18.857 L 18.293 19.714 18.141 19.777 C 17.845 19.901,17.534 19.965,17.119 19.987 C 16.618 20.015,16.264 19.940,15.649 19.678 C 15.300 19.528,15.236 19.513,14.996 19.527 C 14.470 19.557,14.117 19.914,14.086 20.446 C 14.073 20.683,14.086 20.751,14.180 20.943 C 14.304 21.197,14.465 21.330,14.899 21.535 C 16.356 22.227,18.106 22.137,19.570 21.296 L 19.760 21.186 20.090 21.507 C 20.520 21.926,20.621 21.978,21.000 21.979 C 21.258 21.980,21.327 21.964,21.492 21.867 C 21.968 21.587,22.139 20.967,21.865 20.508 C 21.810 20.416,17.665 16.243,12.653 11.235 C 4.231 2.820,3.525 2.125,3.343 2.065 C 3.107 1.987,2.874 1.986,2.670 2.061 M11.300 3.056 C 10.394 3.190,9.585 3.535,8.904 4.077 C 8.553 4.356,8.300 4.640,8.238 4.822 C 8.117 5.180,8.215 5.609,8.478 5.872 C 8.659 6.053,8.816 6.125,9.076 6.149 C 9.401 6.178,9.603 6.108,9.885 5.869 C 10.233 5.572,10.404 5.454,10.686 5.314 C 11.118 5.100,11.444 5.026,11.980 5.023 C 12.565 5.019,12.775 5.067,13.316 5.327 C 13.675 5.500,13.779 5.574,14.080 5.873 C 14.687 6.478,14.902 6.961,14.997 7.936 C 15.044 8.410,15.155 8.628,15.452 8.828 C 15.923 9.144,16.554 8.998,16.859 8.503 C 16.977 8.311,16.980 8.292,16.978 7.823 C 16.972 6.639,16.495 5.493,15.620 4.566 C 14.922 3.826,13.996 3.312,12.980 3.101 C 12.548 3.011,11.748 2.990,11.300 3.056 M16.695 12.057 C 16.051 12.258,15.799 13.040,16.198 13.591 C 16.397 13.866,16.610 13.961,17.121 14.005 C 18.071 14.087,18.723 14.410,19.304 15.088 C 19.716 15.569,19.930 16.123,19.995 16.883 C 20.028 17.264,20.050 17.354,20.148 17.514 C 20.543 18.156,21.461 18.151,21.859 17.503 C 21.976 17.313,21.980 17.289,21.979 16.843 C 21.975 15.311,21.114 13.742,19.800 12.874 C 19.046 12.375,18.396 12.135,17.552 12.043 C 17.065 11.989,16.903 11.992,16.695 12.057 " stroke="none" fill-rule="evenodd" fill="black"></path></svg>