<svg xmlns="http://www.w3.org/2000/svg" width="24" height="24" viewBox="0 0 24 24" fill="none" stroke="currentColor" stroke-width="2" stroke-linecap="round" stroke-linejoin="round"><path d="M2.695 2.055 C 2.464 2.130,2.255 2.300,2.128 2.516 C 2.037 2.672,2.020 2.746,2.020 3.000 C 2.020 3.256,2.036 3.328,2.131 3.489 C 2.192 3.592,2.304 3.725,2.381 3.783 C 2.622 3.967,2.770 3.996,3.463 3.998 C 4.257 4.000,4.439 4.045,4.697 4.303 C 5.011 4.617,5.000 4.491,5.000 7.857 L 4.999 10.820 4.830 10.916 C 4.553 11.073,4.081 11.449,3.763 11.765 C 2.943 12.580,2.372 13.645,2.114 14.840 C 1.984 15.446,1.984 16.554,2.114 17.160 C 2.638 19.587,4.417 21.365,6.840 21.885 C 7.190 21.960,7.383 21.975,8.000 21.975 C 8.617 21.975,8.810 21.960,9.160 21.885 C 10.369 21.626,11.340 21.109,12.195 20.269 C 13.069 19.411,13.626 18.386,13.883 17.160 C 13.977 16.712,14.012 15.703,13.950 15.230 L 13.919 15.000 15.062 15.000 C 15.953 15.000,16.265 15.014,16.478 15.062 C 16.962 15.172,17.443 15.529,17.717 15.982 C 17.791 16.103,17.844 16.208,17.836 16.214 C 17.827 16.221,17.703 16.291,17.560 16.370 C 16.876 16.749,16.351 17.398,16.114 18.160 C 15.979 18.594,15.979 19.406,16.114 19.840 C 16.421 20.826,17.174 21.579,18.160 21.886 C 18.594 22.021,19.406 22.021,19.840 21.886 C 20.826 21.579,21.579 20.826,21.886 19.840 C 22.021 19.406,22.021 18.594,21.886 18.160 C 21.609 17.270,20.914 16.513,20.086 16.199 C 19.921 16.136,19.898 16.111,19.857 15.954 C 19.533 14.704,18.525 13.642,17.245 13.204 C 16.998 13.120,16.336 13.001,16.110 13.000 L 16.000 13.000 16.000 11.000 L 16.000 9.000 16.590 8.998 C 16.977 8.997,17.232 8.978,17.330 8.943 C 17.551 8.864,17.744 8.702,17.869 8.489 C 17.964 8.328,17.980 8.256,17.980 8.000 C 17.980 7.746,17.963 7.672,17.872 7.516 C 17.740 7.293,17.533 7.128,17.290 7.055 C 17.139 7.010,16.221 7.000,12.057 7.000 L 7.007 7.000 6.991 5.710 C 6.976 4.498,6.969 4.403,6.884 4.140 C 6.565 3.165,5.810 2.413,4.861 2.125 C 4.574 2.039,4.451 2.027,3.700 2.015 C 3.072 2.004,2.818 2.015,2.695 2.055 M14.000 11.000 L 14.000 13.000 13.600 13.000 L 13.199 13.000 13.063 12.790 C 12.318 11.638,11.204 10.760,9.940 10.329 C 9.082 10.036,8.077 9.941,7.170 10.066 L 7.000 10.089 7.000 9.545 L 7.000 9.000 10.500 9.000 L 14.000 9.000 14.000 11.000 M8.605 12.058 C 9.855 12.247,10.964 13.042,11.536 14.160 C 11.767 14.611,11.871 14.930,11.942 15.395 C 12.014 15.879,12.014 16.121,11.942 16.605 C 11.691 18.265,10.434 19.579,8.773 19.917 C 6.563 20.368,4.396 18.845,4.058 16.605 C 3.986 16.121,3.986 15.879,4.058 15.395 C 4.314 13.698,5.675 12.324,7.358 12.061 C 7.816 11.990,8.144 11.989,8.605 12.058 M19.310 18.061 C 19.688 18.173,20.000 18.598,20.000 19.001 C 20.000 19.331,19.784 19.696,19.484 19.872 C 19.328 19.963,19.254 19.980,19.000 19.980 C 18.746 19.980,18.672 19.963,18.516 19.872 C 17.935 19.530,17.833 18.774,18.304 18.303 C 18.583 18.024,18.916 17.944,19.310 18.061 " stroke="none" fill-rule="evenodd" fill="black"></path></svg>