<svg xmlns="http://www.w3.org/2000/svg" width="24" height="24" viewBox="0 0 24 24" fill="none" stroke="currentColor" stroke-width="2" stroke-linecap="round" stroke-linejoin="round"><path d="M2.670 2.061 C 2.448 2.142,2.250 2.309,2.128 2.516 C 2.036 2.672,2.020 2.745,2.021 3.000 C 2.021 3.212,2.043 3.341,2.095 3.440 C 2.135 3.517,2.891 4.306,3.774 5.194 C 5.230 6.657,5.373 6.812,5.303 6.854 C 4.192 7.520,2.781 8.707,2.601 9.127 C 2.311 9.801,2.870 10.581,3.593 10.512 C 3.878 10.484,4.041 10.386,4.489 9.971 C 5.142 9.366,5.792 8.884,6.555 8.442 L 6.850 8.271 7.585 9.005 C 7.989 9.409,8.320 9.748,8.320 9.760 C 8.320 9.771,8.116 9.883,7.868 10.009 C 6.876 10.511,5.630 11.500,5.435 11.941 C 5.210 12.450,5.473 13.077,6.000 13.288 C 6.152 13.349,6.562 13.337,6.728 13.268 C 6.809 13.234,6.989 13.101,7.128 12.972 C 7.484 12.642,7.891 12.321,8.233 12.101 C 8.570 11.884,9.310 11.520,9.659 11.400 L 9.898 11.318 10.729 12.149 C 11.186 12.606,11.560 12.991,11.560 13.004 C 11.560 13.018,11.447 13.042,11.310 13.057 C 10.339 13.164,9.129 13.767,8.472 14.470 C 8.010 14.967,8.095 15.666,8.662 16.020 C 8.835 16.128,8.887 16.140,9.177 16.139 C 9.556 16.138,9.621 16.109,10.020 15.759 C 10.370 15.453,10.726 15.251,11.139 15.125 C 11.412 15.042,11.542 15.027,12.000 15.027 C 12.458 15.027,12.588 15.042,12.861 15.125 C 13.274 15.251,13.630 15.453,13.980 15.759 C 14.294 16.034,14.398 16.098,14.600 16.139 C 14.718 16.163,15.195 16.621,17.580 19.000 C 19.142 20.557,20.483 21.865,20.560 21.905 C 20.659 21.957,20.788 21.979,21.000 21.979 C 21.258 21.980,21.327 21.964,21.492 21.867 C 21.968 21.587,22.139 20.967,21.865 20.508 C 21.810 20.416,17.665 16.243,12.653 11.235 C 4.231 2.820,3.525 2.125,3.343 2.065 C 3.107 1.987,2.874 1.986,2.670 2.061 M10.960 5.044 C 9.928 5.133,9.673 5.203,9.436 5.467 C 9.067 5.877,9.075 6.430,9.454 6.833 C 9.727 7.123,9.972 7.178,10.619 7.092 C 11.235 7.010,12.701 7.001,13.280 7.075 C 15.700 7.386,17.766 8.350,19.542 10.000 C 19.750 10.193,19.988 10.383,20.070 10.422 C 20.684 10.714,21.407 10.290,21.469 9.600 C 21.496 9.305,21.411 9.058,21.204 8.827 C 21.010 8.611,20.217 7.917,19.815 7.612 C 17.348 5.735,14.047 4.778,10.960 5.044 M14.083 9.404 C 13.374 9.620,13.145 10.508,13.659 11.050 C 13.789 11.187,13.882 11.235,14.380 11.421 C 15.312 11.769,15.971 12.178,16.829 12.944 C 17.013 13.108,17.227 13.259,17.334 13.300 C 17.797 13.477,18.386 13.210,18.585 12.734 C 18.664 12.546,18.653 12.133,18.565 11.940 C 18.475 11.743,17.904 11.193,17.373 10.794 C 16.675 10.269,15.912 9.855,15.060 9.539 C 14.633 9.381,14.307 9.336,14.083 9.404 M11.695 17.055 C 11.464 17.130,11.255 17.300,11.128 17.516 C 11.037 17.672,11.020 17.746,11.020 18.000 C 11.020 18.257,11.036 18.327,11.133 18.492 C 11.651 19.374,12.998 19.018,12.998 18.000 C 12.998 17.623,12.792 17.281,12.463 17.112 C 12.265 17.010,11.911 16.984,11.695 17.055 " stroke="none" fill-rule="evenodd" fill="black"></path></svg>