<svg xmlns="http://www.w3.org/2000/svg" width="24" height="24" viewBox="0 0 24 24" fill="none" stroke="currentColor" stroke-width="2" stroke-linecap="round" stroke-linejoin="round"><path d="M11.220 5.023 C 11.132 5.032,10.862 5.059,10.620 5.082 C 7.867 5.354,5.205 6.571,3.124 8.509 C 2.610 8.988,2.499 9.189,2.530 9.583 C 2.586 10.285,3.308 10.718,3.928 10.423 C 4.010 10.384,4.271 10.173,4.508 9.953 C 7.523 7.166,11.743 6.281,15.640 7.620 C 15.937 7.722,16.504 7.965,16.900 8.160 C 17.931 8.667,18.744 9.230,19.633 10.051 C 20.052 10.437,20.271 10.543,20.594 10.511 C 21.073 10.465,21.465 10.073,21.511 9.595 C 21.550 9.192,21.402 8.955,20.745 8.368 C 18.691 6.533,16.313 5.448,13.580 5.099 C 13.121 5.040,11.556 4.990,11.220 5.023 M11.320 9.025 C 9.457 9.196,7.754 9.870,6.380 10.980 C 5.559 11.643,5.354 11.915,5.354 12.346 C 5.354 12.746,5.622 13.137,6.000 13.288 C 6.151 13.348,6.561 13.338,6.725 13.269 C 6.804 13.236,7.029 13.066,7.225 12.892 C 7.886 12.303,8.336 12.000,9.020 11.680 C 10.031 11.208,10.863 11.025,12.000 11.025 C 13.138 11.025,13.958 11.205,14.980 11.681 C 15.663 11.999,16.110 12.300,16.774 12.892 C 16.968 13.065,17.193 13.235,17.274 13.268 C 17.439 13.337,17.849 13.349,18.000 13.288 C 18.528 13.077,18.790 12.450,18.564 11.939 C 18.429 11.635,17.646 10.939,16.880 10.443 C 16.425 10.148,15.605 9.740,15.076 9.545 C 14.594 9.367,13.866 9.183,13.320 9.101 C 12.908 9.039,11.676 8.992,11.320 9.025 M11.400 13.044 C 10.341 13.163,9.152 13.742,8.472 14.470 C 8.010 14.967,8.095 15.666,8.662 16.020 C 8.835 16.128,8.887 16.140,9.177 16.139 C 9.556 16.138,9.621 16.109,10.020 15.759 C 10.370 15.453,10.726 15.251,11.139 15.125 C 11.412 15.042,11.542 15.027,12.000 15.027 C 12.458 15.027,12.588 15.042,12.861 15.125 C 13.274 15.251,13.630 15.453,13.980 15.759 C 14.379 16.109,14.444 16.138,14.823 16.139 C 15.113 16.140,15.165 16.128,15.338 16.020 C 15.588 15.864,15.748 15.635,15.804 15.355 C 15.900 14.876,15.662 14.488,14.968 13.989 C 13.894 13.215,12.699 12.898,11.400 13.044 M11.695 17.055 C 11.464 17.130,11.255 17.300,11.128 17.516 C 11.037 17.672,11.020 17.746,11.020 18.000 C 11.020 18.257,11.036 18.327,11.133 18.492 C 11.651 19.374,12.998 19.018,12.998 18.000 C 12.998 17.623,12.792 17.281,12.463 17.112 C 12.265 17.010,11.911 16.984,11.695 17.055 " stroke="none" fill-rule="evenodd" fill="black"></path></svg>