<svg xmlns="http://www.w3.org/2000/svg" width="24" height="24" viewBox="0 0 24 24" fill="none" stroke="currentColor" stroke-width="2" stroke-linecap="round" stroke-linejoin="round"><path d="M5.695 3.054 C 5.463 3.131,5.255 3.301,5.128 3.516 C 5.036 3.672,5.020 3.746,5.020 4.003 C 5.020 4.271,5.034 4.329,5.141 4.503 C 5.294 4.751,5.579 4.948,5.831 4.979 C 6.227 5.028,6.436 5.087,6.574 5.192 C 7.162 5.634,7.117 6.500,6.486 6.871 L 6.300 6.980 4.520 7.001 C 3.232 7.015,2.709 7.035,2.627 7.071 C 2.429 7.158,2.239 7.327,2.128 7.516 C 2.037 7.672,2.020 7.746,2.020 8.000 C 2.020 8.257,2.036 8.327,2.133 8.492 C 2.262 8.712,2.502 8.901,2.730 8.963 C 2.834 8.991,3.515 9.000,4.734 8.991 C 6.536 8.977,6.587 8.975,6.860 8.885 C 7.845 8.559,8.582 7.816,8.886 6.840 C 9.021 6.406,9.021 5.594,8.886 5.160 C 8.581 4.179,7.808 3.404,6.863 3.130 C 6.463 3.015,5.922 2.979,5.695 3.054 M19.671 6.064 C 19.563 6.097,19.415 6.186,19.327 6.271 C 19.168 6.425,16.149 11.412,16.054 11.680 C 15.933 12.018,16.033 12.435,16.299 12.701 C 16.580 12.983,16.681 13.000,18.027 13.000 C 18.672 13.000,19.200 13.011,19.200 13.024 C 19.200 13.037,18.728 13.833,18.152 14.794 C 17.575 15.754,17.081 16.603,17.054 16.680 C 16.901 17.107,17.096 17.626,17.499 17.862 C 17.840 18.061,18.299 18.028,18.624 17.780 C 18.718 17.708,19.216 16.913,20.333 15.049 C 21.200 13.603,21.932 12.350,21.960 12.264 C 22.072 11.916,21.920 11.452,21.618 11.221 C 21.352 11.018,21.212 11.000,19.936 11.000 L 18.764 11.000 19.864 9.166 C 20.867 7.494,20.967 7.312,20.987 7.111 C 21.020 6.798,20.917 6.513,20.695 6.297 C 20.411 6.021,20.066 5.942,19.671 6.064 M10.695 7.054 C 10.463 7.131,10.255 7.301,10.128 7.516 C 10.036 7.672,10.020 7.746,10.020 8.003 C 10.020 8.271,10.034 8.329,10.141 8.503 C 10.294 8.751,10.579 8.948,10.831 8.979 C 11.227 9.028,11.436 9.087,11.574 9.192 C 12.162 9.634,12.117 10.500,11.486 10.871 L 11.300 10.980 7.020 11.000 C 3.716 11.015,2.714 11.031,2.627 11.070 C 2.428 11.158,2.239 11.328,2.128 11.516 C 2.037 11.672,2.020 11.746,2.020 12.000 C 2.020 12.257,2.036 12.327,2.133 12.492 C 2.261 12.710,2.502 12.901,2.725 12.961 C 2.826 12.989,4.343 12.999,7.229 12.991 L 11.580 12.980 11.860 12.886 C 12.851 12.553,13.583 11.815,13.886 10.840 C 14.021 10.406,14.021 9.594,13.886 9.160 C 13.581 8.179,12.808 7.404,11.863 7.130 C 11.463 7.015,10.922 6.979,10.695 7.054 M2.695 15.056 C 2.465 15.129,2.255 15.300,2.128 15.516 C 2.037 15.672,2.020 15.746,2.020 16.000 C 2.020 16.256,2.036 16.328,2.131 16.489 C 2.256 16.702,2.449 16.864,2.670 16.943 C 2.788 16.985,3.278 16.997,4.963 16.998 C 7.415 17.000,7.391 16.998,7.697 17.303 C 7.970 17.577,8.057 17.919,7.945 18.290 C 7.822 18.700,7.517 18.937,7.034 18.998 C 6.870 19.019,6.686 19.055,6.625 19.078 C 6.439 19.149,6.242 19.323,6.128 19.516 C 6.037 19.672,6.020 19.746,6.020 20.000 C 6.020 20.257,6.036 20.327,6.133 20.492 C 6.263 20.714,6.502 20.901,6.736 20.965 C 6.960 21.026,7.519 20.982,7.863 20.877 C 8.820 20.584,9.582 19.817,9.886 18.840 C 10.021 18.406,10.021 17.594,9.886 17.160 C 9.582 16.182,8.829 15.425,7.861 15.122 L 7.540 15.022 5.200 15.013 C 3.351 15.005,2.825 15.014,2.695 15.056 " stroke="none" fill-rule="evenodd" fill="black"></path></svg>