<svg xmlns="http://www.w3.org/2000/svg" width="24" height="24" viewBox="0 0 24 24" fill="none" stroke="currentColor" stroke-width="2" stroke-linecap="round" stroke-linejoin="round"><path d="M5.499 3.043 C 4.380 3.233,3.461 4.048,3.114 5.160 L 3.020 5.460 3.020 8.883 L 3.020 12.306 3.141 12.503 C 3.543 13.156,4.457 13.156,4.859 12.503 L 4.980 12.306 5.000 9.023 C 5.022 5.344,5.001 5.594,5.321 5.283 C 5.633 4.981,5.174 5.000,12.000 5.000 C 18.874 5.000,18.371 4.977,18.697 5.303 C 19.023 5.629,19.000 5.126,19.000 12.001 C 19.000 17.059,18.991 18.139,18.945 18.290 C 18.872 18.533,18.707 18.740,18.484 18.872 L 18.300 18.980 15.020 19.000 C 12.517 19.015,11.713 19.032,11.627 19.070 C 11.428 19.158,11.239 19.328,11.128 19.516 C 11.037 19.672,11.020 19.746,11.020 20.000 C 11.020 20.257,11.036 20.327,11.133 20.492 C 11.261 20.711,11.502 20.901,11.726 20.962 C 11.828 20.989,13.010 20.999,15.230 20.991 L 18.580 20.979 18.860 20.886 C 19.850 20.555,20.582 19.816,20.886 18.840 L 20.980 18.540 20.980 12.000 L 20.980 5.460 20.886 5.160 C 20.581 4.182,19.832 3.428,18.861 3.121 L 18.540 3.020 12.120 3.014 C 8.589 3.011,5.609 3.024,5.499 3.043 M11.695 7.057 C 11.466 7.129,11.256 7.299,11.128 7.516 C 11.037 7.672,11.020 7.746,11.020 8.000 C 11.020 8.256,11.036 8.328,11.131 8.489 C 11.192 8.592,11.304 8.725,11.381 8.783 C 11.635 8.977,11.753 8.996,12.699 8.998 L 13.579 9.000 11.874 10.710 C 10.936 11.650,10.138 12.481,10.101 12.555 C 9.872 13.010,10.056 13.601,10.508 13.867 C 10.673 13.964,10.742 13.980,11.000 13.979 C 11.212 13.979,11.341 13.957,11.440 13.905 C 11.517 13.865,12.348 13.065,13.287 12.129 L 14.995 10.427 15.007 11.367 L 15.020 12.307 15.141 12.503 C 15.543 13.156,16.457 13.156,16.859 12.503 L 16.980 12.306 16.991 10.063 C 17.002 8.053,16.996 7.802,16.937 7.646 C 16.845 7.405,16.657 7.204,16.420 7.094 L 16.220 7.001 14.040 7.003 C 12.374 7.005,11.821 7.018,11.695 7.057 M3.477 15.073 C 2.806 15.249,2.238 15.823,2.060 16.508 C 2.011 16.694,2.000 17.066,2.000 18.500 C 2.000 20.411,2.009 20.503,2.225 20.930 C 2.361 21.199,2.801 21.639,3.070 21.775 C 3.497 21.991,3.590 22.000,5.493 22.000 C 7.397 22.000,7.506 21.990,7.937 21.771 C 8.197 21.639,8.639 21.197,8.771 20.937 C 8.990 20.506,9.000 20.396,8.999 18.514 C 8.999 16.642,8.985 16.484,8.781 16.083 C 8.646 15.816,8.297 15.449,8.017 15.281 C 7.578 15.016,7.470 15.005,5.500 15.005 C 3.965 15.005,3.706 15.013,3.477 15.073 M7.000 18.500 L 7.000 20.000 5.500 20.000 L 4.000 20.000 4.000 18.500 L 4.000 17.000 5.500 17.000 L 7.000 17.000 7.000 18.500 " stroke="none" fill-rule="evenodd" fill="black"></path></svg>