<svg xmlns="http://www.w3.org/2000/svg" width="24" height="24" viewBox="0 0 24 24" fill="none" stroke="currentColor" stroke-width="2" stroke-linecap="round" stroke-linejoin="round"><path d="M11.695 2.057 C 11.466 2.129,11.256 2.299,11.128 2.516 L 11.020 2.700 11.000 5.027 L 10.980 7.354 10.840 7.236 C 10.386 6.850,9.715 6.477,9.114 6.276 C 7.584 5.763,5.952 5.998,4.560 6.932 C 4.136 7.216,3.388 7.978,3.080 8.439 C 2.805 8.850,2.460 9.545,2.326 9.960 C 2.113 10.620,1.978 11.482,2.008 11.996 C 2.029 12.357,2.146 12.604,2.381 12.783 C 2.662 12.998,2.645 12.996,5.094 12.998 L 7.367 13.000 7.210 13.190 C 6.270 14.327,5.838 15.848,6.061 17.240 C 6.251 18.426,6.715 19.321,7.597 20.203 C 8.600 21.207,9.796 21.776,11.291 21.962 C 11.862 22.032,12.264 22.000,12.493 21.866 C 12.702 21.744,12.864 21.550,12.943 21.330 C 12.985 21.212,12.997 20.701,12.998 18.906 L 13.000 16.632 13.150 16.757 C 14.644 18.004,16.595 18.329,18.380 17.631 C 19.074 17.360,19.603 17.003,20.203 16.403 C 21.024 15.583,21.517 14.707,21.799 13.570 C 21.945 12.980,22.015 12.409,21.992 12.004 C 21.971 11.640,21.858 11.404,21.618 11.221 C 21.332 11.003,21.298 11.000,18.870 11.000 L 16.632 11.000 16.757 10.850 C 18.004 9.356,18.329 7.405,17.631 5.620 C 17.360 4.927,17.004 4.398,16.403 3.795 C 15.383 2.772,14.112 2.183,12.617 2.042 C 12.068 1.989,11.902 1.992,11.695 2.057 M13.384 4.220 C 14.556 4.613,15.446 5.439,15.816 6.474 C 16.374 8.036,15.592 9.730,13.931 10.557 C 13.659 10.692,13.139 10.880,13.036 10.880 C 13.015 10.880,13.000 9.461,13.000 7.500 C 13.000 5.119,13.013 4.120,13.043 4.120 C 13.067 4.120,13.220 4.165,13.384 4.220 M7.972 8.045 C 9.042 8.210,9.988 8.943,10.534 10.029 C 10.671 10.300,10.880 10.862,10.880 10.957 C 10.880 10.987,9.881 11.000,7.500 11.000 C 5.119 11.000,4.120 10.987,4.120 10.957 C 4.120 10.862,4.329 10.300,4.466 10.029 C 4.686 9.591,4.904 9.291,5.242 8.960 C 5.994 8.224,6.985 7.892,7.972 8.045 M19.880 13.043 C 19.880 13.138,19.671 13.700,19.534 13.971 C 19.093 14.849,18.396 15.500,17.584 15.794 C 17.116 15.963,16.778 16.015,16.323 15.988 C 15.116 15.915,14.073 15.179,13.466 13.971 C 13.329 13.700,13.120 13.138,13.120 13.043 C 13.120 13.013,14.119 13.000,16.500 13.000 C 18.881 13.000,19.880 13.013,19.880 13.043 M11.000 16.500 C 11.000 18.461,10.985 19.880,10.964 19.880 C 10.861 19.880,10.342 19.694,10.075 19.561 C 9.622 19.336,9.296 19.101,8.960 18.758 C 7.340 17.102,7.853 14.560,10.028 13.466 C 10.307 13.326,10.848 13.123,10.950 13.121 C 10.990 13.120,11.000 13.822,11.000 16.500 " stroke="none" fill-rule="evenodd" fill="black"></path></svg>