<svg xmlns="http://www.w3.org/2000/svg" width="24" height="24" viewBox="0 0 24 24" fill="none" stroke="currentColor" stroke-width="2" stroke-linecap="round" stroke-linejoin="round"><path d="M2.670 2.061 C 2.448 2.142,2.250 2.309,2.128 2.516 C 2.036 2.672,2.020 2.745,2.021 3.000 C 2.021 3.212,2.043 3.341,2.095 3.440 C 2.135 3.517,2.842 4.256,3.665 5.082 L 5.162 6.583 4.991 6.667 C 4.340 6.985,3.469 7.822,2.953 8.623 C 2.373 9.524,1.952 11.027,2.008 11.996 C 2.029 12.357,2.146 12.604,2.381 12.783 C 2.662 12.998,2.645 12.996,5.094 12.998 L 7.367 13.000 7.210 13.190 C 6.270 14.327,5.838 15.848,6.061 17.240 C 6.251 18.426,6.715 19.321,7.597 20.203 C 8.600 21.207,9.796 21.776,11.291 21.962 C 11.862 22.032,12.264 22.000,12.493 21.866 C 12.702 21.744,12.864 21.550,12.943 21.330 C 12.985 21.212,12.997 20.701,12.998 18.906 L 13.000 16.632 13.150 16.757 C 13.713 17.228,14.469 17.626,15.160 17.817 C 15.474 17.904,16.102 18.000,16.360 18.000 L 16.580 18.000 18.460 19.883 C 19.494 20.918,20.421 21.813,20.520 21.873 C 20.673 21.964,20.746 21.980,21.000 21.980 C 21.257 21.980,21.327 21.964,21.492 21.867 C 21.968 21.587,22.139 20.967,21.865 20.508 C 21.810 20.416,17.665 16.243,12.653 11.235 C 4.231 2.820,3.525 2.125,3.343 2.065 C 3.107 1.987,2.874 1.986,2.670 2.061 M11.695 2.057 C 11.466 2.129,11.256 2.299,11.128 2.516 L 11.020 2.700 11.020 5.503 L 11.020 8.306 11.141 8.503 C 11.543 9.156,12.457 9.156,12.859 8.503 L 12.980 8.306 12.991 6.213 C 12.999 4.798,13.016 4.120,13.044 4.120 C 13.138 4.120,13.702 4.330,13.971 4.466 C 14.855 4.910,15.512 5.623,15.811 6.461 C 16.282 7.779,15.821 9.201,14.620 10.139 C 14.357 10.344,14.263 10.446,14.180 10.617 C 14.033 10.916,14.033 11.202,14.178 11.499 C 14.303 11.754,14.480 11.905,14.771 12.004 C 14.964 12.069,14.980 12.085,15.042 12.275 C 15.129 12.541,15.281 12.734,15.511 12.869 L 15.700 12.980 17.790 12.991 C 18.940 12.998,19.880 13.018,19.880 13.037 C 19.880 13.141,19.689 13.663,19.550 13.940 C 19.361 14.318,19.219 14.531,18.933 14.869 C 18.663 15.188,18.571 15.470,18.634 15.784 C 18.730 16.264,19.127 16.600,19.595 16.600 C 19.935 16.600,20.132 16.502,20.421 16.190 C 21.258 15.286,21.806 14.038,21.962 12.684 C 22.055 11.872,21.964 11.485,21.618 11.221 C 21.332 11.003,21.298 11.000,18.871 11.000 L 16.635 11.000 16.793 10.810 C 18.021 9.335,18.329 7.350,17.609 5.560 C 17.341 4.895,16.997 4.391,16.403 3.795 C 15.383 2.772,14.112 2.183,12.617 2.042 C 12.068 1.989,11.902 1.992,11.695 2.057 M8.140 9.560 L 9.580 11.000 6.850 11.000 C 4.484 11.000,4.120 10.992,4.120 10.942 C 4.120 10.804,4.413 10.080,4.582 9.801 C 4.960 9.175,5.407 8.722,5.948 8.416 C 6.178 8.286,6.567 8.125,6.660 8.121 C 6.682 8.121,7.348 8.768,8.140 9.560 M11.000 16.500 C 11.000 18.461,10.985 19.880,10.964 19.880 C 10.861 19.880,10.342 19.694,10.075 19.561 C 9.622 19.336,9.296 19.101,8.960 18.758 C 7.340 17.102,7.853 14.560,10.028 13.466 C 10.307 13.326,10.848 13.123,10.950 13.121 C 10.990 13.120,11.000 13.822,11.000 16.500 " stroke="none" fill-rule="evenodd" fill="black"></path></svg>