<svg xmlns="http://www.w3.org/2000/svg" width="24" height="24" viewBox="0 0 24 24" fill="none" stroke="currentColor" stroke-width="2" stroke-linecap="round" stroke-linejoin="round"><path d="M12.934 2.059 C 12.549 2.129,12.396 2.181,12.020 2.369 C 11.156 2.801,10.557 3.462,10.261 4.310 C 10.205 4.469,10.160 4.668,10.160 4.752 C 10.160 5.156,10.448 5.567,10.820 5.694 C 11.387 5.887,11.894 5.623,12.134 5.009 C 12.284 4.625,12.554 4.327,12.912 4.151 C 13.153 4.032,13.212 4.020,13.539 4.020 C 13.860 4.020,13.929 4.034,14.164 4.145 C 14.753 4.424,15.077 4.978,15.029 5.623 C 14.988 6.163,14.672 6.614,14.168 6.853 L 13.900 6.980 9.320 7.000 C 5.776 7.015,4.714 7.031,4.627 7.070 C 4.428 7.158,4.239 7.328,4.128 7.516 C 4.037 7.672,4.020 7.746,4.020 8.000 C 4.020 8.257,4.036 8.327,4.133 8.492 C 4.261 8.710,4.502 8.901,4.725 8.961 C 4.826 8.988,6.440 8.998,9.528 8.990 L 14.180 8.979 14.468 8.890 C 15.094 8.697,15.480 8.471,15.955 8.020 C 16.663 7.348,16.989 6.628,17.029 5.640 C 17.062 4.841,16.895 4.232,16.469 3.592 C 16.266 3.289,15.892 2.880,15.639 2.686 C 14.940 2.149,13.841 1.894,12.934 2.059 M2.695 11.057 C 2.051 11.260,1.799 12.040,2.198 12.591 C 2.263 12.681,2.403 12.805,2.508 12.867 L 2.700 12.980 10.800 13.000 L 18.900 13.020 19.168 13.147 C 19.672 13.386,19.988 13.837,20.029 14.377 C 20.077 15.022,19.753 15.576,19.164 15.855 C 18.929 15.966,18.860 15.980,18.539 15.980 C 18.212 15.980,18.153 15.968,17.912 15.849 C 17.554 15.673,17.284 15.375,17.134 14.991 C 16.946 14.510,16.589 14.240,16.140 14.240 C 15.631 14.240,15.160 14.722,15.160 15.244 C 15.160 15.453,15.352 15.974,15.559 16.325 C 15.778 16.698,16.323 17.243,16.709 17.474 C 17.354 17.862,17.971 18.022,18.680 17.988 C 19.904 17.929,20.889 17.347,21.544 16.295 C 21.911 15.707,22.064 15.088,22.030 14.334 C 21.986 13.379,21.658 12.654,20.974 11.995 C 20.527 11.566,20.038 11.282,19.420 11.095 C 19.192 11.026,18.780 11.022,11.020 11.013 C 4.408 11.006,2.829 11.014,2.695 11.057 M3.695 15.056 C 3.050 15.261,2.799 16.040,3.198 16.591 C 3.263 16.681,3.403 16.805,3.508 16.867 L 3.700 16.980 6.800 17.000 L 9.900 17.020 10.168 17.147 C 10.672 17.386,10.988 17.837,11.029 18.377 C 11.077 19.022,10.753 19.576,10.164 19.855 C 9.929 19.966,9.860 19.980,9.539 19.980 C 9.212 19.980,9.153 19.968,8.912 19.849 C 8.554 19.673,8.284 19.375,8.134 18.991 C 7.946 18.510,7.589 18.240,7.140 18.240 C 6.631 18.240,6.160 18.722,6.160 19.244 C 6.160 19.453,6.352 19.974,6.559 20.325 C 6.778 20.698,7.323 21.243,7.709 21.474 C 8.354 21.862,8.971 22.022,9.680 21.988 C 10.904 21.929,11.889 21.347,12.544 20.295 C 12.911 19.707,13.064 19.088,13.030 18.334 C 12.986 17.379,12.658 16.654,11.974 15.995 C 11.526 15.565,11.032 15.279,10.420 15.096 C 10.200 15.030,9.922 15.023,7.020 15.014 C 4.495 15.006,3.827 15.014,3.695 15.056 " stroke="none" fill-rule="evenodd" fill="black"></path></svg>