<svg xmlns="http://www.w3.org/2000/svg" width="24" height="24" viewBox="0 0 24 24" fill="none" stroke="currentColor" stroke-width="2" stroke-linecap="round" stroke-linejoin="round"><path d="M5.695 2.057 C 5.466 2.129,5.256 2.299,5.128 2.516 L 5.020 2.700 5.010 11.350 L 4.999 20.000 4.446 20.000 C 3.648 20.000,3.367 20.110,3.128 20.516 C 3.037 20.672,3.020 20.746,3.020 21.000 C 3.020 21.256,3.036 21.328,3.131 21.489 C 3.256 21.702,3.449 21.864,3.670 21.943 C 3.788 21.985,4.280 21.996,6.000 21.996 C 7.720 21.996,8.212 21.985,8.330 21.943 C 8.551 21.864,8.744 21.702,8.869 21.489 C 8.964 21.328,8.980 21.256,8.980 21.000 C 8.980 20.746,8.963 20.672,8.872 20.516 C 8.633 20.110,8.352 20.000,7.554 20.000 L 7.000 20.000 7.000 15.960 C 7.000 13.738,7.010 11.920,7.022 11.920 C 7.280 11.920,18.152 10.987,18.272 10.955 C 18.512 10.890,18.735 10.717,18.867 10.492 L 18.980 10.300 18.980 8.000 L 18.980 5.700 18.867 5.508 C 18.725 5.266,18.493 5.097,18.227 5.041 C 18.113 5.017,15.635 4.800,12.720 4.560 C 9.805 4.319,7.327 4.112,7.213 4.099 L 7.007 4.075 6.993 3.388 C 6.980 2.724,6.976 2.694,6.872 2.516 C 6.628 2.101,6.150 1.915,5.695 2.057 M8.110 6.185 L 9.000 6.254 9.000 8.007 C 9.000 9.718,8.998 9.760,8.922 9.760 C 8.825 9.760,7.497 9.871,7.210 9.902 L 7.000 9.926 7.000 8.000 L 7.000 6.074 7.110 6.095 C 7.170 6.106,7.620 6.147,8.110 6.185 M11.980 6.501 C 12.398 6.535,12.799 6.572,12.871 6.583 L 13.001 6.604 12.991 8.012 L 12.980 9.420 11.990 9.501 L 11.000 9.581 11.000 8.011 L 11.000 6.440 11.110 6.440 C 11.171 6.440,11.562 6.467,11.980 6.501 M16.000 6.840 C 16.495 6.883,16.922 6.919,16.950 6.919 C 16.989 6.920,17.000 7.162,17.000 7.997 L 17.000 9.074 16.790 9.098 C 16.503 9.129,15.175 9.240,15.078 9.240 C 15.002 9.240,15.000 9.203,15.000 8.000 C 15.000 7.034,15.011 6.760,15.050 6.761 C 15.078 6.761,15.505 6.797,16.000 6.840 " stroke="none" fill-rule="evenodd" fill="black"></path></svg>