<svg xmlns="http://www.w3.org/2000/svg" width="24" height="24" viewBox="0 0 24 24" fill="none" stroke="currentColor" stroke-width="2" stroke-linecap="round" stroke-linejoin="round"><path d="M2.670 2.061 C 2.448 2.142,2.250 2.309,2.128 2.516 C 2.037 2.672,2.020 2.746,2.020 3.000 C 2.020 3.254,2.036 3.327,2.127 3.480 C 2.186 3.579,2.837 4.261,3.573 4.995 L 4.910 6.330 4.721 6.735 C 4.384 7.458,4.172 8.202,4.061 9.052 C 3.970 9.751,3.969 20.144,4.060 20.492 C 4.153 20.852,4.310 21.118,4.596 21.404 C 4.882 21.690,5.148 21.847,5.508 21.940 C 5.853 22.030,18.147 22.030,18.492 21.940 C 18.856 21.846,19.119 21.690,19.416 21.393 L 19.692 21.117 20.056 21.473 C 20.520 21.927,20.616 21.978,21.000 21.979 C 21.258 21.980,21.327 21.964,21.492 21.867 C 21.968 21.587,22.139 20.967,21.865 20.508 C 21.810 20.416,17.665 16.243,12.653 11.235 C 4.231 2.820,3.525 2.125,3.343 2.065 C 3.107 1.987,2.874 1.986,2.670 2.061 M11.220 2.045 C 10.356 2.127,9.455 2.378,8.660 2.757 C 8.181 2.986,7.663 3.293,7.486 3.455 C 7.336 3.591,7.231 3.839,7.209 4.107 C 7.192 4.322,7.204 4.388,7.297 4.578 C 7.422 4.833,7.621 5.012,7.875 5.099 C 8.215 5.215,8.484 5.164,8.882 4.910 C 9.411 4.572,10.267 4.221,10.789 4.128 L 10.997 4.091 11.009 6.199 L 11.020 8.306 11.141 8.503 C 11.543 9.156,12.457 9.156,12.859 8.503 L 12.980 8.306 13.000 6.199 L 13.020 4.091 13.380 4.178 C 15.644 4.724,17.455 6.644,17.904 8.974 C 17.950 9.212,17.972 9.664,17.988 10.650 L 18.009 12.000 17.451 12.000 C 16.648 12.000,16.367 12.109,16.128 12.516 C 16.037 12.672,16.020 12.746,16.020 13.000 C 16.020 13.256,16.036 13.328,16.131 13.489 C 16.256 13.702,16.449 13.864,16.670 13.943 C 16.768 13.978,17.022 13.997,17.407 13.998 L 17.993 14.000 18.007 14.653 C 18.020 15.300,18.021 15.308,18.141 15.503 C 18.543 16.156,19.457 16.156,19.859 15.503 L 19.980 15.306 19.980 12.283 C 19.980 10.000,19.967 9.177,19.928 8.920 C 19.364 5.241,16.395 2.404,12.726 2.041 C 12.253 1.994,11.741 1.996,11.220 2.045 M8.500 9.920 L 10.580 12.000 8.286 12.000 L 5.991 12.000 6.012 10.630 C 6.029 9.459,6.043 9.205,6.112 8.880 C 6.182 8.552,6.387 7.840,6.412 7.840 C 6.417 7.840,7.356 8.776,8.500 9.920 M11.000 17.000 L 11.000 20.000 8.500 20.000 L 6.000 20.000 6.000 17.000 L 6.000 14.000 8.500 14.000 L 11.000 14.000 11.000 17.000 M18.000 19.710 L 18.000 20.000 15.500 20.000 L 13.000 20.000 13.000 17.210 L 13.000 14.420 15.500 16.920 L 18.000 19.420 18.000 19.710 " stroke="none" fill-rule="evenodd" fill="black"></path></svg>