<svg xmlns="http://www.w3.org/2000/svg" width="24" height="24" viewBox="0 0 24 24" fill="none" stroke="currentColor" stroke-width="2" stroke-linecap="round" stroke-linejoin="round"><path d="M7.520 1.001 C 7.105 1.040,6.656 1.141,6.520 1.227 C 6.106 1.489,5.931 1.905,6.041 2.365 C 6.113 2.663,6.416 2.968,6.734 3.060 C 6.942 3.120,6.984 3.120,7.309 3.059 C 7.756 2.974,8.244 2.974,8.691 3.059 C 9.016 3.120,9.058 3.120,9.266 3.060 C 9.584 2.968,9.887 2.663,9.959 2.365 C 10.077 1.873,9.830 1.365,9.381 1.178 C 9.039 1.035,8.105 0.946,7.520 1.001 M15.520 1.001 C 15.105 1.040,14.656 1.141,14.520 1.227 C 14.106 1.489,13.931 1.905,14.041 2.365 C 14.113 2.663,14.416 2.968,14.734 3.060 C 14.942 3.120,14.984 3.120,15.309 3.059 C 15.756 2.974,16.244 2.974,16.691 3.059 C 17.016 3.120,17.058 3.120,17.266 3.060 C 17.584 2.968,17.887 2.663,17.959 2.365 C 18.077 1.873,17.830 1.365,17.381 1.178 C 17.039 1.035,16.105 0.946,15.520 1.001 M4.043 3.266 C 3.677 3.401,3.410 3.818,3.187 4.600 C 3.007 5.235,2.950 6.009,3.061 6.322 C 3.356 7.158,4.493 7.227,4.903 6.434 C 4.945 6.354,4.982 6.143,5.002 5.882 C 5.039 5.389,5.084 5.186,5.266 4.712 C 5.458 4.211,5.438 3.919,5.188 3.595 C 4.937 3.269,4.431 3.124,4.043 3.266 M11.320 3.246 C 10.942 3.349,10.648 3.707,10.612 4.106 C 10.594 4.305,10.610 4.391,10.721 4.676 C 10.890 5.116,10.953 5.358,10.984 5.704 L 11.010 5.987 10.670 6.014 C 9.636 6.093,8.171 6.458,7.090 6.905 C 5.422 7.595,4.026 8.531,2.749 9.816 C 2.100 10.469,2.020 10.599,2.021 11.000 C 2.021 11.212,2.043 11.341,2.095 11.440 C 2.178 11.599,7.695 17.146,7.940 17.318 C 8.167 17.476,8.458 17.532,8.715 17.465 C 8.933 17.408,9.085 17.313,9.460 16.996 C 9.854 16.664,10.384 16.381,10.910 16.222 L 11.000 16.195 11.000 17.234 L 11.000 18.273 10.862 18.359 C 10.669 18.478,10.334 18.855,10.218 19.085 C 9.927 19.658,9.930 20.347,10.225 20.930 C 10.361 21.199,10.801 21.639,11.070 21.775 C 11.659 22.073,12.341 22.073,12.930 21.775 C 13.196 21.640,13.638 21.200,13.771 20.937 C 14.064 20.359,14.068 19.649,13.782 19.085 C 13.666 18.855,13.331 18.478,13.138 18.359 L 13.000 18.273 13.000 17.234 L 13.000 16.195 13.090 16.222 C 13.616 16.381,14.146 16.664,14.540 16.996 C 14.915 17.313,15.067 17.408,15.285 17.465 C 15.542 17.532,15.833 17.476,16.060 17.318 C 16.148 17.256,17.491 15.931,19.045 14.373 C 21.724 11.687,21.874 11.529,21.940 11.325 C 22.020 11.077,22.005 10.762,21.902 10.564 C 21.665 10.105,20.247 8.819,19.220 8.131 C 17.498 6.978,15.221 6.159,13.335 6.014 L 13.000 5.988 13.000 5.832 C 13.000 5.582,13.112 5.108,13.266 4.710 C 13.390 4.390,13.406 4.308,13.388 4.106 C 13.335 3.515,12.737 3.088,12.169 3.234 C 12.029 3.270,11.944 3.272,11.865 3.242 C 11.734 3.192,11.513 3.194,11.320 3.246 M19.320 3.246 C 18.942 3.349,18.648 3.707,18.612 4.106 C 18.594 4.307,18.610 4.391,18.729 4.700 C 18.914 5.182,18.955 5.362,18.997 5.880 C 19.026 6.242,19.050 6.350,19.137 6.498 C 19.568 7.235,20.655 7.129,20.939 6.322 C 21.154 5.713,20.756 3.953,20.300 3.497 C 20.042 3.240,19.682 3.148,19.320 3.246 M11.000 11.077 L 11.000 14.154 10.770 14.202 C 10.160 14.327,9.421 14.622,8.882 14.956 L 8.570 15.150 6.483 13.063 L 4.396 10.975 4.768 10.655 C 5.253 10.238,5.532 10.027,6.023 9.709 C 7.270 8.900,8.766 8.318,10.160 8.100 C 10.391 8.064,10.607 8.029,10.640 8.022 C 10.673 8.015,10.768 8.007,10.850 8.005 L 11.000 8.000 11.000 11.077 M13.880 8.103 C 15.852 8.431,17.757 9.354,19.351 10.756 L 19.603 10.977 17.517 13.063 L 15.430 15.150 15.118 14.956 C 14.579 14.622,13.840 14.327,13.230 14.202 L 13.000 14.154 13.000 11.071 L 13.000 7.989 13.250 8.014 C 13.388 8.029,13.671 8.069,13.880 8.103 " stroke="none" fill-rule="evenodd" fill="black"></path></svg>