<svg xmlns="http://www.w3.org/2000/svg" width="24" height="24" viewBox="0 0 24 24" fill="none" stroke="currentColor" stroke-width="2" stroke-linecap="round" stroke-linejoin="round"><path d="M10.700 4.005 C 8.177 4.246,5.643 5.314,3.646 6.979 C 3.128 7.411,2.262 8.288,2.128 8.516 C 2.036 8.672,2.020 8.745,2.021 9.000 C 2.021 9.212,2.043 9.341,2.095 9.440 C 2.178 9.599,7.695 15.146,7.940 15.318 C 8.167 15.476,8.458 15.532,8.715 15.465 C 8.933 15.408,9.085 15.312,9.460 14.996 C 9.721 14.775,10.276 14.432,10.337 14.452 C 10.359 14.460,10.453 14.912,10.547 15.459 L 10.717 16.452 10.516 16.672 C 9.953 17.288,9.839 18.169,10.225 18.930 C 10.361 19.199,10.801 19.639,11.070 19.775 C 11.659 20.073,12.341 20.073,12.930 19.775 C 13.196 19.640,13.638 19.200,13.771 18.937 C 14.067 18.353,14.069 17.649,13.775 17.069 C 13.638 16.799,13.202 16.369,12.915 16.221 L 12.691 16.105 12.521 15.111 C 12.427 14.564,12.357 14.109,12.366 14.101 C 12.374 14.093,12.528 14.111,12.707 14.142 C 13.361 14.256,14.037 14.571,14.540 14.996 C 14.915 15.312,15.067 15.408,15.285 15.465 C 15.542 15.532,15.833 15.476,16.060 15.318 C 16.148 15.256,17.491 13.931,19.045 12.373 C 21.724 9.687,21.874 9.529,21.940 9.325 C 22.020 9.077,22.005 8.762,21.902 8.564 C 21.741 8.253,20.728 7.261,19.980 6.682 C 18.011 5.157,15.663 4.226,13.220 4.001 C 12.705 3.953,11.218 3.956,10.700 4.005 M13.120 6.001 C 15.452 6.244,17.548 7.170,19.351 8.756 L 19.603 8.977 17.517 11.063 L 15.430 13.150 15.118 12.956 C 14.310 12.455,13.369 12.160,12.372 12.093 C 12.016 12.069,12.003 12.065,11.982 11.964 C 11.958 11.851,10.960 6.046,10.960 6.021 C 10.960 5.958,12.562 5.943,13.120 6.001 M9.492 9.330 C 9.773 10.963,10.001 12.332,10.001 12.370 C 10.000 12.409,9.980 12.440,9.955 12.440 C 9.867 12.440,9.189 12.766,8.882 12.956 L 8.570 13.150 6.483 11.063 L 4.396 8.975 4.768 8.655 C 5.909 7.674,7.034 7.025,8.440 6.536 C 8.715 6.441,8.950 6.362,8.962 6.361 C 8.974 6.361,9.212 7.697,9.492 9.330 " stroke="none" fill-rule="evenodd" fill="black"></path></svg>