<svg xmlns="http://www.w3.org/2000/svg" width="24" height="24" viewBox="0 0 24 24" fill="none" stroke="currentColor" stroke-width="2" stroke-linecap="round" stroke-linejoin="round"><path d="M10.865 2.040 C 8.579 2.219,6.726 2.877,5.745 3.857 C 5.438 4.164,5.251 4.448,5.110 4.823 C 5.020 5.060,5.020 5.065,5.009 8.050 L 4.998 11.039 4.889 11.063 C 3.850 11.286,3.073 12.197,3.013 13.260 C 2.987 13.716,3.065 14.103,3.268 14.515 C 3.400 14.784,3.511 14.915,4.209 15.624 L 5.000 16.427 5.001 17.344 C 5.002 18.425,5.039 18.660,5.296 19.180 C 5.660 19.918,6.383 20.558,7.420 21.061 C 8.632 21.648,9.943 21.937,11.620 21.986 C 13.559 22.043,15.224 21.728,16.628 21.036 C 17.904 20.408,18.734 19.511,18.940 18.536 C 18.987 18.316,18.999 17.871,18.999 16.340 L 19.000 14.419 19.682 13.740 C 20.420 13.005,20.586 12.806,20.761 12.445 C 20.890 12.178,21.000 11.700,21.000 11.404 C 21.000 10.371,20.291 9.424,19.289 9.120 L 19.003 9.033 18.992 7.047 C 18.980 5.101,18.978 5.055,18.890 4.823 C 18.749 4.448,18.562 4.164,18.255 3.857 C 17.366 2.969,15.752 2.341,13.739 2.099 C 13.125 2.025,11.482 1.991,10.865 2.040 M12.980 4.042 C 14.326 4.141,15.398 4.405,16.252 4.848 C 16.603 5.031,17.000 5.376,17.000 5.500 C 17.000 5.630,16.602 5.971,16.220 6.167 C 15.546 6.514,14.685 6.761,13.640 6.907 C 12.933 7.006,11.067 7.006,10.360 6.907 C 9.315 6.761,8.454 6.514,7.780 6.167 C 7.398 5.971,7.000 5.630,7.000 5.500 C 7.000 5.376,7.397 5.031,7.748 4.848 C 9.010 4.193,10.957 3.893,12.980 4.042 M7.344 8.176 C 9.961 9.279,14.039 9.279,16.656 8.176 C 16.833 8.101,16.983 8.040,16.989 8.040 C 16.995 8.040,17.000 8.540,17.000 9.150 C 17.000 9.791,17.018 10.323,17.042 10.409 C 17.148 10.792,17.580 11.120,17.980 11.120 C 18.095 11.120,18.269 11.092,18.365 11.058 C 18.463 11.023,18.594 11.006,18.664 11.018 C 18.880 11.058,19.034 11.298,18.981 11.512 C 18.965 11.576,18.595 11.981,18.044 12.539 C 17.261 13.331,17.124 13.488,17.067 13.657 C 17.008 13.831,17.000 14.101,17.000 15.983 L 17.000 18.111 16.888 18.325 C 16.603 18.871,15.520 19.469,14.300 19.753 C 13.370 19.970,12.103 20.052,11.060 19.963 C 9.217 19.806,7.517 19.100,7.112 18.325 L 7.000 18.111 7.000 16.983 C 7.000 16.037,6.989 15.822,6.934 15.657 C 6.876 15.488,6.742 15.333,5.979 14.560 C 5.490 14.065,5.070 13.621,5.045 13.573 C 4.964 13.415,4.992 13.280,5.136 13.136 C 5.288 12.984,5.384 12.970,5.640 13.060 C 6.124 13.231,6.652 13.028,6.894 12.580 C 6.979 12.422,6.980 12.387,6.991 10.230 C 6.998 9.025,7.007 8.040,7.013 8.040 C 7.018 8.040,7.167 8.101,7.344 8.176 M9.580 11.595 C 9.376 11.687,9.151 11.937,9.063 12.167 C 9.004 12.321,8.996 12.477,9.007 13.326 L 9.020 14.307 9.141 14.503 C 9.543 15.156,10.457 15.156,10.859 14.503 L 10.980 14.307 10.993 13.326 C 11.007 12.220,10.989 12.121,10.724 11.828 C 10.528 11.609,10.320 11.522,10.000 11.522 C 9.834 11.522,9.682 11.548,9.580 11.595 M13.695 15.057 C 13.466 15.129,13.256 15.299,13.128 15.516 C 13.020 15.699,13.020 15.703,13.020 16.503 L 13.020 17.306 13.141 17.503 C 13.543 18.156,14.457 18.156,14.859 17.503 L 14.980 17.306 14.980 16.503 C 14.980 15.703,14.980 15.699,14.872 15.516 C 14.628 15.101,14.150 14.915,13.695 15.057 " stroke="none" fill-rule="evenodd" fill="black"></path></svg>