<svg xmlns="http://www.w3.org/2000/svg" width="24" height="24" viewBox="0 0 24 24" fill="none" stroke="currentColor" stroke-width="2" stroke-linecap="round" stroke-linejoin="round"><path d="M2.670 2.061 C 2.448 2.142,2.250 2.309,2.128 2.516 C 2.036 2.672,2.020 2.745,2.021 3.000 C 2.021 3.213,2.043 3.341,2.095 3.440 C 2.136 3.517,2.638 4.052,3.212 4.628 L 4.255 5.677 4.072 5.909 C 3.745 6.326,3.321 7.008,3.061 7.540 C 1.637 10.446,1.668 13.742,3.145 16.595 C 3.633 17.539,4.146 18.232,4.957 19.043 C 5.768 19.854,6.461 20.367,7.405 20.855 C 8.795 21.575,10.242 21.945,11.840 21.988 C 13.155 22.023,14.577 21.747,15.905 21.197 C 16.620 20.901,17.506 20.387,18.092 19.927 L 18.323 19.745 19.372 20.788 C 19.948 21.362,20.483 21.864,20.560 21.905 C 20.659 21.957,20.787 21.979,21.000 21.979 C 21.258 21.980,21.327 21.964,21.492 21.867 C 21.714 21.737,21.901 21.498,21.965 21.264 C 22.019 21.062,21.989 20.734,21.899 20.555 C 21.862 20.481,18.337 16.923,14.066 12.648 C 3.025 1.599,3.578 2.145,3.343 2.066 C 3.108 1.987,2.875 1.985,2.670 2.061 M10.900 2.064 C 9.749 2.216,8.897 2.449,7.925 2.877 C 7.387 3.115,7.227 3.236,7.094 3.510 C 6.816 4.077,7.106 4.729,7.714 4.906 C 7.994 4.987,8.165 4.958,8.619 4.753 C 8.818 4.663,9.122 4.537,9.295 4.473 C 9.662 4.338,9.655 4.301,9.383 4.915 C 9.127 5.495,9.000 5.862,9.000 6.021 C 9.000 6.396,9.317 6.845,9.663 6.962 C 9.886 7.037,10.193 7.024,10.404 6.931 C 10.699 6.801,10.853 6.606,11.042 6.127 C 11.249 5.602,11.948 4.160,11.996 4.160 C 12.045 4.160,12.594 5.248,12.836 5.824 C 13.123 6.511,13.560 7.804,13.560 7.970 C 13.560 7.986,13.410 8.000,13.226 8.000 C 12.664 8.000,12.343 8.151,12.128 8.516 C 12.037 8.672,12.020 8.746,12.020 9.000 C 12.020 9.256,12.036 9.328,12.131 9.489 C 12.371 9.897,12.615 9.996,13.390 9.998 C 13.954 10.000,13.960 10.001,13.961 10.090 C 13.963 10.327,14.078 11.273,14.116 11.373 C 14.296 11.835,14.845 12.099,15.339 11.960 C 15.587 11.891,15.848 11.652,15.960 11.392 C 16.044 11.196,16.049 11.144,16.024 10.709 C 16.010 10.450,15.987 10.185,15.974 10.119 L 15.950 10.000 17.849 10.000 L 19.749 10.000 19.834 10.430 C 20.051 11.532,20.047 12.619,19.822 13.673 C 19.788 13.834,19.760 13.973,19.760 13.983 C 19.760 13.992,19.565 14.000,19.326 14.000 C 18.659 14.000,18.355 14.131,18.128 14.516 C 18.036 14.672,18.020 14.746,18.020 15.003 C 18.020 15.271,18.034 15.329,18.141 15.503 C 18.294 15.752,18.581 15.949,18.839 15.984 C 19.026 16.009,19.032 16.013,19.057 16.168 C 19.115 16.532,19.359 16.828,19.712 16.960 C 19.968 17.057,20.090 17.060,20.353 16.975 C 20.671 16.872,20.817 16.723,21.026 16.287 C 21.643 14.996,21.999 13.440,21.999 12.040 C 21.999 7.726,19.251 3.894,15.180 2.528 C 13.837 2.078,12.165 1.896,10.900 2.064 M15.564 4.840 C 16.371 5.244,17.079 5.764,17.722 6.426 C 18.200 6.919,18.675 7.530,18.875 7.910 L 18.923 8.000 17.280 8.000 C 16.000 8.000,15.634 7.989,15.624 7.950 C 15.616 7.923,15.552 7.675,15.480 7.400 C 15.297 6.691,14.950 5.679,14.654 4.986 C 14.514 4.660,14.400 4.386,14.400 4.377 C 14.400 4.339,15.187 4.652,15.564 4.840 M6.140 7.560 L 6.579 8.000 5.827 8.000 C 5.237 8.000,5.081 7.989,5.104 7.950 C 5.218 7.753,5.653 7.120,5.675 7.120 C 5.689 7.120,5.899 7.318,6.140 7.560 M8.024 10.110 C 7.978 10.330,7.921 11.396,7.920 12.022 C 7.920 12.593,7.968 13.508,8.017 13.870 L 8.035 14.001 6.151 13.990 L 4.266 13.980 4.216 13.759 C 3.980 12.718,3.977 11.352,4.209 10.230 L 4.256 10.000 6.151 10.000 L 8.046 10.000 8.024 10.110 M11.314 13.991 C 10.629 13.996,10.063 13.996,10.058 13.991 C 10.023 13.954,9.954 12.967,9.934 12.220 L 9.911 11.340 11.236 12.660 L 12.561 13.980 11.314 13.991 M8.542 16.660 C 8.750 17.436,9.085 18.410,9.375 19.082 C 9.494 19.356,9.587 19.584,9.582 19.590 C 9.558 19.618,8.929 19.373,8.528 19.180 C 7.271 18.575,6.190 17.634,5.364 16.423 C 5.230 16.226,5.120 16.050,5.120 16.032 C 5.120 16.014,5.851 16.004,6.745 16.010 L 8.370 16.020 8.542 16.660 M13.538 16.130 C 13.465 16.460,13.054 17.655,12.835 18.169 C 12.568 18.800,12.047 19.840,12.000 19.840 C 11.954 19.840,11.395 18.726,11.167 18.180 C 10.943 17.646,10.631 16.756,10.537 16.383 C 10.503 16.249,10.467 16.108,10.455 16.070 C 10.436 16.004,10.528 16.000,12.000 16.000 L 13.566 16.000 13.538 16.130 M16.880 18.328 C 16.880 18.376,16.063 18.900,15.690 19.091 C 15.334 19.274,14.711 19.532,14.507 19.582 L 14.395 19.610 14.463 19.455 C 14.812 18.663,15.175 17.679,15.365 17.007 L 15.414 16.835 16.147 17.567 C 16.550 17.970,16.880 18.312,16.880 18.328 " stroke="none" fill-rule="evenodd" fill="black"></path></svg>