<svg xmlns="http://www.w3.org/2000/svg" width="24" height="24" viewBox="0 0 24 24" fill="none" stroke="currentColor" stroke-width="2" stroke-linecap="round" stroke-linejoin="round"><path d="M10.860 2.066 C 8.465 2.371,6.382 3.408,4.767 5.100 C 4.302 5.588,3.767 6.278,3.613 6.591 C 3.525 6.772,3.512 6.840,3.529 7.053 C 3.540 7.190,3.587 7.376,3.633 7.466 C 3.848 7.887,4.371 8.097,4.825 7.944 C 5.085 7.856,5.215 7.736,5.564 7.260 C 6.329 6.219,7.333 5.385,8.500 4.819 C 8.959 4.597,9.600 4.338,9.600 4.375 C 9.600 4.383,9.491 4.648,9.357 4.964 C 9.005 5.797,8.680 6.779,8.680 7.011 C 8.680 7.878,9.764 8.321,10.376 7.705 C 10.517 7.563,10.570 7.454,10.756 6.920 C 10.875 6.579,11.071 6.066,11.190 5.780 C 11.431 5.205,11.953 4.160,12.000 4.160 C 12.017 4.160,12.166 4.426,12.332 4.750 C 12.649 5.369,13.059 6.350,13.278 7.011 C 13.349 7.226,13.464 7.485,13.534 7.587 C 13.752 7.908,14.201 8.068,14.589 7.963 C 14.993 7.854,15.320 7.432,15.320 7.019 C 15.320 6.770,15.012 5.834,14.644 4.964 C 14.510 4.648,14.400 4.383,14.400 4.377 C 14.400 4.334,15.093 4.613,15.550 4.840 C 16.777 5.450,17.651 6.182,18.478 7.294 C 18.883 7.838,19.034 7.949,19.424 7.989 C 19.984 8.047,20.488 7.580,20.488 7.003 C 20.488 6.722,20.426 6.570,20.156 6.195 C 18.710 4.185,16.573 2.770,14.180 2.238 C 13.165 2.013,11.826 1.943,10.860 2.066 M1.689 9.059 C 1.320 9.174,1.052 9.503,1.014 9.888 C 0.996 10.069,1.072 10.418,1.534 12.258 C 2.129 14.628,2.130 14.632,2.486 14.851 C 2.922 15.121,3.523 14.992,3.814 14.567 C 3.869 14.486,4.042 14.079,4.198 13.663 C 4.353 13.246,4.487 12.899,4.495 12.891 C 4.503 12.884,4.642 13.233,4.805 13.668 C 4.977 14.130,5.150 14.525,5.220 14.618 C 5.460 14.933,5.926 15.071,6.313 14.942 C 6.543 14.866,6.818 14.623,6.902 14.421 C 6.933 14.348,7.194 13.346,7.482 12.194 C 8.067 9.861,8.070 9.839,7.851 9.486 C 7.548 8.995,6.902 8.862,6.424 9.191 C 6.188 9.354,6.092 9.536,5.947 10.100 C 5.874 10.383,5.804 10.598,5.792 10.578 C 5.780 10.557,5.683 10.306,5.576 10.020 C 5.287 9.247,5.045 9.022,4.500 9.022 C 3.955 9.022,3.713 9.247,3.424 10.020 C 3.317 10.306,3.220 10.557,3.208 10.578 C 3.196 10.598,3.127 10.385,3.054 10.104 C 2.910 9.546,2.830 9.383,2.620 9.223 C 2.341 9.010,2.024 8.954,1.689 9.059 M9.240 9.035 C 9.055 9.096,8.901 9.192,8.775 9.327 C 8.617 9.495,8.571 9.585,8.519 9.829 C 8.479 10.012,8.507 10.145,9.019 12.195 C 9.317 13.389,9.586 14.414,9.617 14.473 C 9.702 14.634,9.919 14.826,10.120 14.917 C 10.364 15.027,10.649 15.023,10.900 14.906 C 11.249 14.743,11.351 14.587,11.679 13.709 C 11.841 13.275,11.985 12.920,12.000 12.920 C 12.015 12.920,12.159 13.275,12.322 13.710 C 12.654 14.599,12.763 14.763,13.129 14.920 C 13.509 15.084,13.968 14.971,14.246 14.645 C 14.320 14.558,14.403 14.427,14.429 14.354 C 14.455 14.280,14.712 13.276,15.000 12.123 C 15.507 10.089,15.521 10.018,15.478 9.812 C 15.429 9.573,15.251 9.311,15.042 9.170 C 14.658 8.912,14.160 8.962,13.807 9.294 C 13.623 9.467,13.582 9.558,13.446 10.097 C 13.381 10.355,13.319 10.574,13.310 10.584 C 13.300 10.594,13.206 10.367,13.100 10.081 C 12.862 9.434,12.754 9.282,12.417 9.116 C 12.191 9.004,12.132 8.992,11.937 9.012 C 11.651 9.041,11.373 9.186,11.219 9.386 C 11.152 9.473,11.010 9.781,10.903 10.072 C 10.796 10.363,10.700 10.594,10.690 10.584 C 10.681 10.574,10.619 10.355,10.554 10.097 C 10.489 9.839,10.411 9.581,10.381 9.524 C 10.309 9.386,10.092 9.185,9.924 9.100 C 9.769 9.022,9.390 8.986,9.240 9.035 M16.689 9.059 C 16.320 9.174,16.052 9.503,16.014 9.888 C 15.996 10.069,16.072 10.418,16.534 12.258 C 17.129 14.628,17.130 14.632,17.486 14.851 C 17.922 15.121,18.523 14.992,18.814 14.567 C 18.869 14.486,19.042 14.079,19.198 13.663 C 19.353 13.246,19.487 12.899,19.495 12.891 C 19.503 12.884,19.642 13.233,19.805 13.668 C 19.977 14.130,20.150 14.525,20.220 14.618 C 20.460 14.933,20.926 15.071,21.313 14.942 C 21.543 14.866,21.818 14.623,21.902 14.421 C 21.933 14.348,22.194 13.346,22.482 12.194 C 23.067 9.861,23.070 9.839,22.851 9.486 C 22.548 8.995,21.902 8.862,21.424 9.191 C 21.188 9.354,21.092 9.536,20.947 10.100 C 20.874 10.383,20.804 10.598,20.792 10.578 C 20.780 10.557,20.683 10.306,20.576 10.020 C 20.287 9.247,20.045 9.022,19.500 9.022 C 18.955 9.022,18.713 9.247,18.424 10.020 C 18.317 10.306,18.220 10.557,18.208 10.578 C 18.196 10.598,18.127 10.385,18.054 10.104 C 17.910 9.546,17.830 9.383,17.620 9.223 C 17.341 9.010,17.024 8.954,16.689 9.059 M4.185 16.059 C 3.810 16.193,3.563 16.523,3.530 16.937 C 3.506 17.242,3.570 17.403,3.898 17.857 C 4.859 19.189,6.137 20.261,7.620 20.980 C 8.250 21.285,8.520 21.392,9.120 21.573 C 10.056 21.856,11.031 22.000,12.000 22.000 C 15.234 22.000,18.257 20.445,20.156 17.805 C 20.425 17.431,20.488 17.278,20.488 17.000 C 20.488 16.732,20.401 16.507,20.228 16.326 C 20.015 16.105,19.819 16.022,19.500 16.022 C 19.061 16.022,18.915 16.120,18.478 16.706 C 17.678 17.782,16.710 18.602,15.586 19.158 C 15.201 19.348,14.438 19.652,14.412 19.625 C 14.405 19.618,14.507 19.359,14.638 19.048 C 15.010 18.168,15.320 17.229,15.320 16.986 C 15.319 16.419,14.792 15.947,14.233 16.013 C 13.950 16.047,13.649 16.224,13.514 16.436 C 13.453 16.532,13.346 16.784,13.276 16.996 C 13.059 17.650,12.648 18.633,12.332 19.250 C 12.166 19.575,12.017 19.840,12.001 19.840 C 11.957 19.840,11.478 18.895,11.240 18.341 C 11.128 18.078,10.927 17.557,10.794 17.182 C 10.660 16.807,10.510 16.446,10.460 16.379 C 10.338 16.216,10.007 16.042,9.767 16.013 C 9.215 15.948,8.680 16.423,8.680 16.978 C 8.680 17.222,8.996 18.182,9.357 19.036 C 9.491 19.353,9.596 19.618,9.590 19.624 C 9.563 19.651,8.732 19.309,8.361 19.118 C 7.250 18.548,6.303 17.738,5.530 16.700 C 5.350 16.458,5.142 16.221,5.067 16.174 C 4.798 16.002,4.467 15.958,4.185 16.059 " stroke="none" fill-rule="evenodd" fill="black"></path></svg>