<svg xmlns="http://www.w3.org/2000/svg" width="24" height="24" viewBox="0 0 24 24" fill="none" stroke="currentColor" stroke-width="2" stroke-linecap="round" stroke-linejoin="round"><path d="M10.760 2.082 C 7.904 2.471,5.490 3.923,3.815 6.260 C 2.950 7.467,2.352 8.980,2.092 10.620 C 1.994 11.243,1.995 12.766,2.094 13.380 C 2.240 14.284,2.446 15.038,2.750 15.780 C 4.426 19.883,8.632 22.405,13.019 21.940 C 13.788 21.858,13.945 21.807,14.172 21.565 C 14.483 21.231,14.547 20.800,14.343 20.405 C 14.255 20.237,13.995 20.020,13.781 19.938 C 13.598 19.868,13.567 19.868,13.025 19.933 C 12.714 19.970,12.369 20.001,12.258 20.000 L 12.056 20.000 11.732 19.370 C 11.209 18.355,10.912 17.624,10.597 16.580 C 10.511 16.294,10.440 16.047,10.440 16.031 C 10.440 16.015,11.479 15.997,12.750 15.991 C 14.915 15.981,15.069 15.975,15.200 15.905 C 15.398 15.800,15.554 15.646,15.648 15.463 C 15.781 15.204,15.952 14.120,16.044 12.940 C 16.090 12.356,16.073 10.812,16.015 10.250 L 15.989 10.000 17.870 10.000 L 19.752 10.000 19.816 10.290 C 19.929 10.805,19.961 11.124,19.986 11.960 C 20.012 12.847,20.031 12.936,20.241 13.175 C 20.619 13.605,21.278 13.630,21.670 13.229 C 21.922 12.973,21.971 12.819,21.992 12.232 C 22.041 10.828,21.724 9.262,21.115 7.902 C 20.148 5.739,18.376 3.943,16.220 2.943 C 14.523 2.154,12.532 1.841,10.760 2.082 M12.374 4.830 C 12.867 5.808,13.257 6.803,13.533 7.790 L 13.591 8.000 12.016 8.000 C 11.149 8.000,10.440 7.987,10.440 7.970 C 10.440 7.909,10.759 6.887,10.896 6.508 C 11.175 5.739,11.919 4.160,12.003 4.160 C 12.021 4.160,12.188 4.462,12.374 4.830 M9.356 4.964 C 9.079 5.618,8.615 6.993,8.480 7.560 C 8.430 7.769,8.377 7.954,8.362 7.970 C 8.347 7.987,7.600 7.996,6.701 7.990 L 5.068 7.980 5.339 7.580 C 6.136 6.404,7.175 5.476,8.362 4.879 C 8.745 4.686,9.564 4.351,9.590 4.376 C 9.596 4.382,9.491 4.647,9.356 4.964 M15.547 4.843 C 16.917 5.515,18.052 6.553,18.836 7.850 L 18.927 8.000 17.288 8.000 L 15.650 8.000 15.563 7.650 C 15.308 6.621,15.024 5.820,14.413 4.409 C 14.381 4.335,14.976 4.562,15.547 4.843 M8.021 10.090 C 7.981 10.271,7.920 11.422,7.920 12.000 C 7.920 12.578,7.981 13.729,8.021 13.910 L 8.042 14.000 6.144 14.000 L 4.246 14.000 4.186 13.730 C 4.057 13.150,4.024 12.798,4.024 12.020 C 4.024 11.245,4.049 10.987,4.188 10.310 L 4.252 10.000 6.147 10.000 L 8.042 10.000 8.021 10.090 M13.975 10.130 C 14.111 10.887,14.091 12.892,13.937 13.850 L 13.913 14.000 11.982 14.000 L 10.050 14.000 10.027 13.810 C 9.938 13.082,9.907 11.960,9.954 11.190 C 9.982 10.745,10.014 10.295,10.027 10.190 L 10.050 10.000 12.001 10.000 L 13.951 10.000 13.975 10.130 M18.668 15.061 C 18.585 15.092,18.462 15.156,18.395 15.203 C 18.260 15.300,16.136 18.454,16.054 18.680 C 15.893 19.127,16.117 19.673,16.550 19.886 C 16.733 19.977,16.784 19.981,17.930 20.000 L 19.120 20.020 18.600 20.800 C 17.971 21.741,17.914 21.905,18.061 22.322 C 18.284 22.955,18.992 23.187,19.570 22.815 C 19.686 22.741,19.972 22.342,20.805 21.093 C 21.401 20.198,21.917 19.387,21.950 19.289 C 22.074 18.926,21.931 18.460,21.625 18.226 C 21.365 18.028,21.326 18.023,20.070 18.001 L 18.880 17.980 19.383 17.225 C 19.660 16.810,19.912 16.399,19.943 16.310 C 20.212 15.550,19.428 14.782,18.668 15.061 M8.507 16.540 C 8.687 17.240,9.060 18.334,9.357 19.036 C 9.491 19.353,9.596 19.618,9.590 19.624 C 9.584 19.629,9.399 19.566,9.180 19.483 C 8.272 19.140,7.395 18.611,6.660 17.964 C 6.191 17.551,5.503 16.717,5.163 16.150 L 5.073 15.999 6.723 16.010 L 8.373 16.020 8.507 16.540 " stroke="none" fill-rule="evenodd" fill="black"></path></svg>