<svg xmlns="http://www.w3.org/2000/svg" width="24" height="24" viewBox="0 0 24 24" fill="none" stroke="currentColor" stroke-width="2" stroke-linecap="round" stroke-linejoin="round"><path d="M11.040 2.044 C 9.759 2.212,8.865 2.452,7.907 2.884 C 6.773 3.395,5.825 4.051,4.938 4.938 C 3.382 6.494,2.451 8.356,2.092 10.625 C 1.995 11.238,1.996 12.768,2.092 13.380 C 2.309 14.745,2.737 15.970,3.380 17.060 C 4.823 19.506,7.249 21.237,10.020 21.796 C 10.893 21.972,12.083 22.053,12.656 21.974 C 12.928 21.937,13.233 21.739,13.377 21.506 C 13.612 21.124,13.559 20.622,13.250 20.303 C 13.022 20.067,12.843 20.002,12.418 20.001 L 12.056 20.000 11.732 19.370 C 11.209 18.355,10.912 17.624,10.597 16.580 C 10.511 16.294,10.440 16.047,10.440 16.030 C 10.440 16.014,11.398 16.000,12.570 16.000 L 14.700 15.999 14.900 15.906 C 15.087 15.818,15.400 15.528,15.400 15.441 C 15.400 15.419,15.463 15.344,15.540 15.274 C 15.840 15.002,15.935 14.600,16.040 13.160 C 16.106 12.265,16.070 10.566,15.976 10.110 L 15.954 10.000 17.857 10.000 C 18.904 10.000,19.760 10.007,19.760 10.016 C 19.760 10.024,19.795 10.201,19.838 10.409 C 19.937 10.891,19.999 11.599,20.000 12.251 C 20.000 12.818,20.031 12.936,20.241 13.175 C 20.504 13.475,20.930 13.589,21.311 13.463 C 21.551 13.383,21.839 13.098,21.924 12.858 C 21.996 12.653,21.996 11.296,21.924 10.760 C 21.585 8.233,20.335 5.940,18.437 4.359 C 16.912 3.089,15.201 2.344,13.205 2.081 C 12.556 1.995,11.542 1.978,11.040 2.044 M12.332 4.750 C 12.804 5.675,13.153 6.554,13.440 7.539 C 13.506 7.766,13.560 7.963,13.560 7.976 C 13.560 7.989,12.858 8.000,12.000 8.000 C 11.142 8.000,10.440 7.987,10.440 7.970 C 10.440 7.909,10.759 6.887,10.896 6.508 C 11.170 5.751,11.918 4.160,12.000 4.160 C 12.017 4.160,12.166 4.426,12.332 4.750 M9.356 4.964 C 9.079 5.618,8.615 6.993,8.480 7.560 C 8.430 7.769,8.377 7.954,8.362 7.970 C 8.347 7.987,7.601 7.996,6.704 7.990 L 5.074 7.980 5.282 7.660 C 6.048 6.484,7.182 5.465,8.403 4.856 C 8.756 4.680,9.566 4.353,9.590 4.376 C 9.596 4.382,9.491 4.647,9.356 4.964 M15.500 4.820 C 16.842 5.474,17.861 6.367,18.670 7.599 L 18.921 7.980 17.293 7.990 C 16.398 7.996,15.653 7.987,15.639 7.970 C 15.625 7.954,15.553 7.706,15.480 7.420 C 15.308 6.745,14.942 5.672,14.640 4.957 C 14.508 4.644,14.400 4.383,14.400 4.375 C 14.400 4.337,15.043 4.598,15.500 4.820 M8.021 10.090 C 7.981 10.271,7.920 11.422,7.920 12.000 C 7.920 12.578,7.981 13.729,8.021 13.910 L 8.042 14.000 6.148 14.000 L 4.255 14.000 4.188 13.710 C 4.055 13.134,4.023 12.807,4.023 12.040 C 4.023 11.281,4.054 10.958,4.189 10.310 L 4.254 10.000 6.148 10.000 L 8.042 10.000 8.021 10.090 M13.973 10.190 C 14.061 10.895,14.092 12.008,14.045 12.794 C 14.018 13.248,13.986 13.706,13.973 13.810 L 13.950 14.000 12.000 14.000 L 10.050 14.000 10.027 13.810 C 9.938 13.082,9.907 11.960,9.954 11.190 C 9.982 10.745,10.014 10.295,10.027 10.190 L 10.050 10.000 12.000 10.000 L 13.950 10.000 13.973 10.190 M18.580 15.096 C 18.424 15.171,18.029 15.545,16.774 16.806 C 15.891 17.694,15.135 18.483,15.095 18.560 C 15.043 18.659,15.021 18.788,15.021 19.000 C 15.020 19.258,15.036 19.327,15.133 19.492 C 15.263 19.714,15.502 19.901,15.736 19.965 C 15.939 20.019,16.267 19.989,16.445 19.899 C 16.519 19.861,16.899 19.514,17.289 19.128 L 17.997 18.426 18.009 20.366 L 18.020 22.306 18.141 22.503 C 18.543 23.156,19.457 23.156,19.859 22.503 L 19.980 22.306 19.991 20.366 L 20.003 18.426 20.711 19.128 C 21.101 19.514,21.483 19.864,21.560 19.904 C 21.660 19.957,21.787 19.979,22.000 19.979 C 22.258 19.980,22.327 19.964,22.492 19.867 C 22.714 19.737,22.901 19.498,22.965 19.264 C 23.019 19.061,22.989 18.733,22.899 18.555 C 22.862 18.481,22.109 17.694,21.226 16.806 C 19.472 15.043,19.420 15.001,19.000 15.001 C 18.851 15.001,18.716 15.031,18.580 15.096 M8.507 16.540 C 8.687 17.240,9.060 18.334,9.357 19.036 C 9.491 19.353,9.596 19.618,9.590 19.624 C 9.584 19.629,9.398 19.566,9.176 19.482 C 7.519 18.857,6.076 17.658,5.164 16.150 L 5.073 15.999 6.723 16.010 L 8.373 16.020 8.507 16.540 " stroke="none" fill-rule="evenodd" fill="black"></path></svg>