<svg xmlns="http://www.w3.org/2000/svg" width="24" height="24" viewBox="0 0 24 24" fill="none" stroke="currentColor" stroke-width="2" stroke-linecap="round" stroke-linejoin="round"><path d="M10.895 2.061 C 8.520 2.367,6.598 3.292,4.957 4.920 C 3.410 6.454,2.503 8.235,2.113 10.501 C 1.994 11.194,1.982 12.742,2.090 13.409 C 2.565 16.343,4.073 18.719,6.480 20.327 C 8.053 21.377,10.032 21.997,11.820 21.999 C 12.157 21.999,12.252 21.984,12.422 21.905 C 13.020 21.627,13.197 20.858,12.776 20.366 C 12.618 20.182,12.416 20.062,12.194 20.020 C 12.058 19.994,12.040 19.970,11.730 19.367 C 11.209 18.355,10.912 17.623,10.597 16.580 C 10.511 16.294,10.440 16.047,10.440 16.030 C 10.440 16.014,11.173 16.000,12.070 16.000 L 13.700 15.999 13.900 15.905 C 14.281 15.724,14.488 15.405,14.488 15.000 C 14.488 14.615,14.293 14.297,13.940 14.106 C 13.783 14.022,13.740 14.020,11.915 14.009 L 10.050 13.997 10.027 13.809 C 10.014 13.705,9.982 13.255,9.954 12.810 C 9.907 12.040,9.938 10.918,10.027 10.190 L 10.050 10.000 12.000 10.000 L 13.949 10.000 13.975 10.225 C 14.053 10.887,14.085 11.779,14.060 12.591 L 14.032 13.483 14.139 13.701 C 14.450 14.337,15.265 14.465,15.746 13.954 C 15.951 13.735,16.002 13.589,16.042 13.107 C 16.107 12.313,16.069 10.546,15.977 10.110 L 15.954 10.000 17.854 10.000 L 19.753 10.000 19.799 10.210 C 19.880 10.584,19.958 11.207,19.995 11.771 C 20.027 12.278,20.039 12.338,20.146 12.511 C 20.542 13.154,21.460 13.152,21.856 12.508 C 21.957 12.344,21.977 12.264,21.992 11.975 C 22.012 11.599,21.947 10.805,21.854 10.280 C 21.483 8.188,20.418 6.208,18.877 4.744 C 17.533 3.468,15.700 2.520,13.921 2.183 C 12.956 2.000,11.750 1.951,10.895 2.061 M12.311 4.710 C 12.832 5.729,13.329 7.019,13.535 7.890 L 13.562 8.000 12.001 8.000 C 11.142 8.000,10.440 7.987,10.440 7.970 C 10.440 7.909,10.759 6.887,10.896 6.508 C 11.170 5.752,11.918 4.160,12.000 4.160 C 12.016 4.160,12.157 4.407,12.311 4.710 M9.356 4.964 C 9.079 5.618,8.615 6.993,8.480 7.560 C 8.430 7.769,8.377 7.954,8.362 7.970 C 8.347 7.987,7.601 7.996,6.704 7.990 L 5.074 7.980 5.282 7.660 C 6.048 6.483,7.168 5.477,8.400 4.859 C 8.754 4.681,9.566 4.352,9.590 4.376 C 9.596 4.382,9.491 4.647,9.356 4.964 M15.540 4.838 C 16.832 5.467,17.891 6.410,18.710 7.660 L 18.920 7.980 17.292 7.990 C 16.397 7.996,15.653 7.987,15.639 7.970 C 15.624 7.954,15.563 7.742,15.502 7.500 C 15.335 6.835,14.920 5.610,14.645 4.969 C 14.510 4.656,14.400 4.391,14.400 4.380 C 14.400 4.341,15.082 4.615,15.540 4.838 M8.021 10.090 C 7.981 10.271,7.920 11.422,7.920 12.000 C 7.920 12.578,7.981 13.729,8.021 13.910 L 8.042 14.000 6.141 14.000 C 5.095 14.000,4.240 13.993,4.240 13.984 C 4.240 13.976,4.206 13.800,4.163 13.594 C 3.943 12.515,3.958 11.323,4.206 10.210 L 4.253 10.000 6.147 10.000 L 8.042 10.000 8.021 10.090 M18.358 15.061 C 17.230 15.237,16.143 15.974,15.569 16.953 C 14.320 19.083,15.233 21.785,17.512 22.704 C 19.558 23.528,21.877 22.538,22.704 20.488 C 23.090 19.530,23.090 18.469,22.705 17.516 C 22.172 16.197,21.001 15.269,19.605 15.058 C 19.144 14.989,18.816 14.990,18.358 15.061 M8.507 16.540 C 8.687 17.240,9.060 18.333,9.357 19.036 C 9.490 19.352,9.600 19.617,9.600 19.623 C 9.600 19.661,8.951 19.405,8.532 19.202 C 8.002 18.946,7.406 18.570,6.950 18.203 C 6.333 17.707,5.551 16.811,5.166 16.159 L 5.071 15.999 6.722 16.010 L 8.373 16.020 8.507 16.540 M19.470 17.057 C 19.485 17.071,18.954 17.626,18.290 18.290 C 17.626 18.954,17.072 19.486,17.059 19.472 C 17.045 19.459,17.024 19.314,17.012 19.150 C 16.940 18.202,17.563 17.318,18.477 17.071 C 18.735 17.001,19.405 16.991,19.470 17.057 M20.982 18.784 C 21.047 19.396,20.844 19.961,20.398 20.410 C 20.104 20.705,19.779 20.885,19.404 20.963 C 19.181 21.010,18.584 20.997,18.532 20.945 C 18.504 20.918,20.872 18.520,20.927 18.520 C 20.941 18.520,20.966 18.639,20.982 18.784 " stroke="none" fill-rule="evenodd" fill="black"></path></svg>