<svg xmlns="http://www.w3.org/2000/svg" width="24" height="24" viewBox="0 0 24 24" fill="none" stroke="currentColor" stroke-width="2" stroke-linecap="round" stroke-linejoin="round"><path d="M10.800 2.080 C 9.873 2.209,9.155 2.386,8.451 2.657 C 4.975 3.999,2.587 7.034,2.075 10.760 C 1.993 11.350,2.005 12.796,2.095 13.380 C 2.571 16.456,4.257 18.996,6.873 20.577 C 8.376 21.485,10.226 22.002,11.960 21.999 C 12.600 21.998,13.224 21.943,13.385 21.873 C 13.606 21.778,13.796 21.596,13.902 21.379 C 13.994 21.192,14.007 21.121,13.994 20.886 C 13.974 20.532,13.826 20.276,13.541 20.101 L 13.344 19.980 12.699 19.989 L 12.055 19.998 11.731 19.369 C 11.209 18.355,10.912 17.623,10.597 16.580 C 10.511 16.294,10.440 16.047,10.440 16.030 C 10.440 16.014,11.173 16.000,12.070 16.000 L 13.700 15.999 13.900 15.905 C 14.281 15.724,14.488 15.405,14.488 15.000 C 14.488 14.615,14.293 14.297,13.940 14.106 C 13.783 14.022,13.740 14.020,11.915 14.009 L 10.050 13.997 10.027 13.809 C 10.014 13.705,9.982 13.255,9.954 12.810 C 9.907 12.040,9.938 10.918,10.027 10.190 L 10.050 10.000 12.000 10.000 L 13.949 10.000 13.973 10.170 C 14.057 10.759,14.092 12.033,14.046 12.812 C 13.993 13.718,14.014 13.866,14.231 14.151 C 14.485 14.484,14.995 14.610,15.393 14.439 C 15.641 14.332,15.885 14.074,15.954 13.845 C 16.100 13.358,16.118 10.893,15.981 10.110 L 15.962 10.000 17.858 10.000 L 19.755 10.000 19.817 10.290 C 19.957 10.941,19.976 11.163,19.979 12.220 C 19.982 13.384,19.986 13.410,20.204 13.658 C 20.374 13.852,20.603 13.964,20.879 13.989 C 21.327 14.030,21.767 13.715,21.906 13.253 C 21.966 13.056,21.977 12.863,21.975 12.000 C 21.974 11.078,21.963 10.924,21.869 10.400 C 21.345 7.505,19.815 5.164,17.440 3.621 C 16.070 2.732,14.804 2.291,12.908 2.041 C 12.446 1.980,11.374 2.000,10.800 2.080 M12.291 4.670 C 12.826 5.710,13.325 7.002,13.535 7.890 L 13.562 8.000 12.001 8.000 C 11.142 8.000,10.440 7.987,10.440 7.970 C 10.440 7.909,10.759 6.887,10.896 6.508 C 11.169 5.754,11.918 4.160,12.000 4.160 C 12.016 4.160,12.147 4.389,12.291 4.670 M9.356 4.964 C 9.079 5.618,8.615 6.993,8.480 7.560 C 8.430 7.769,8.377 7.954,8.362 7.970 C 8.347 7.987,7.601 7.996,6.704 7.990 L 5.074 7.980 5.282 7.660 C 6.057 6.470,7.197 5.452,8.449 4.832 C 8.810 4.653,9.564 4.353,9.590 4.378 C 9.596 4.383,9.491 4.647,9.356 4.964 M15.389 4.762 C 16.078 5.085,16.777 5.540,17.321 6.019 C 17.809 6.449,18.492 7.274,18.837 7.850 L 18.927 8.001 17.277 7.990 L 15.627 7.980 15.495 7.466 C 15.309 6.745,14.933 5.642,14.645 4.969 C 14.510 4.656,14.400 4.391,14.400 4.380 C 14.400 4.346,14.978 4.568,15.389 4.762 M8.021 10.090 C 7.981 10.271,7.920 11.422,7.920 12.000 C 7.920 12.578,7.981 13.729,8.021 13.910 L 8.042 14.000 6.145 14.000 L 4.248 14.000 4.204 13.810 C 3.957 12.739,3.944 11.603,4.164 10.445 L 4.249 10.000 6.145 10.000 L 8.042 10.000 8.021 10.090 M8.507 16.540 C 8.687 17.240,9.060 18.333,9.357 19.036 C 9.490 19.352,9.600 19.617,9.600 19.625 C 9.600 19.656,8.988 19.418,8.608 19.238 C 7.169 18.557,5.940 17.459,5.176 16.170 L 5.075 15.999 6.724 16.010 L 8.373 16.020 8.507 16.540 M16.695 16.057 C 16.466 16.129,16.256 16.299,16.128 16.516 L 16.020 16.700 16.020 19.503 L 16.020 22.306 16.141 22.503 C 16.543 23.156,17.457 23.156,17.859 22.503 L 17.980 22.306 17.980 19.503 L 17.980 16.700 17.872 16.516 C 17.628 16.101,17.150 15.915,16.695 16.057 M20.695 16.057 C 20.466 16.129,20.256 16.299,20.128 16.516 L 20.020 16.700 20.020 19.503 L 20.020 22.306 20.141 22.503 C 20.543 23.156,21.457 23.156,21.859 22.503 L 21.980 22.306 21.980 19.503 L 21.980 16.700 21.872 16.516 C 21.628 16.101,21.150 15.915,20.695 16.057 " stroke="none" fill-rule="evenodd" fill="black"></path></svg>