<svg xmlns="http://www.w3.org/2000/svg" width="24" height="24" viewBox="0 0 24 24" fill="none" stroke="currentColor" stroke-width="2" stroke-linecap="round" stroke-linejoin="round"><path d="M10.780 2.081 C 8.488 2.396,6.533 3.349,4.958 4.919 C 2.346 7.522,1.380 11.268,2.409 14.800 C 2.960 16.690,4.024 18.330,5.540 19.624 C 6.964 20.840,8.651 21.596,10.640 21.908 C 11.292 22.010,12.713 22.008,13.380 21.905 C 14.508 21.730,15.697 21.357,15.966 21.094 C 16.135 20.929,16.280 20.599,16.280 20.380 C 16.280 20.173,16.136 19.831,15.990 19.690 C 15.670 19.381,15.275 19.326,14.730 19.516 C 14.548 19.579,14.400 19.624,14.400 19.616 C 14.400 19.608,14.510 19.344,14.644 19.031 C 15.568 16.872,16.078 14.380,16.080 12.013 C 16.080 11.426,16.019 10.273,15.979 10.090 L 15.958 10.000 17.853 10.000 L 19.748 10.000 19.813 10.310 C 19.929 10.869,19.968 11.249,19.994 12.043 C 20.020 12.825,20.020 12.827,20.141 13.022 C 20.295 13.271,20.519 13.428,20.808 13.488 C 21.112 13.552,21.415 13.461,21.663 13.233 C 21.949 12.969,21.981 12.834,21.977 11.880 C 21.967 9.488,21.139 7.304,19.535 5.440 C 18.350 4.063,16.752 3.022,14.960 2.459 C 13.627 2.041,12.090 1.902,10.780 2.081 M12.291 4.670 C 12.765 5.591,13.104 6.429,13.398 7.403 C 13.487 7.698,13.560 7.954,13.560 7.970 C 13.560 7.987,12.858 8.000,12.000 8.000 C 11.142 8.000,10.440 7.987,10.440 7.970 C 10.440 7.909,10.759 6.887,10.896 6.508 C 11.169 5.754,11.918 4.160,12.000 4.160 C 12.016 4.160,12.147 4.389,12.291 4.670 M9.356 4.964 C 9.079 5.618,8.615 6.993,8.480 7.560 C 8.430 7.769,8.377 7.954,8.362 7.970 C 8.347 7.987,7.602 7.996,6.706 7.990 L 5.077 7.980 5.356 7.569 C 5.747 6.992,5.977 6.714,6.406 6.297 C 7.060 5.663,7.688 5.217,8.469 4.833 C 8.838 4.652,9.565 4.357,9.590 4.379 C 9.596 4.383,9.491 4.647,9.356 4.964 M14.921 4.560 C 16.486 5.184,17.762 6.222,18.683 7.620 L 18.920 7.980 17.293 7.990 C 16.397 7.996,15.653 7.987,15.638 7.970 C 15.623 7.954,15.570 7.769,15.520 7.560 C 15.470 7.351,15.308 6.811,15.159 6.360 C 14.927 5.659,14.778 5.270,14.455 4.530 C 14.380 4.356,14.414 4.359,14.921 4.560 M8.021 10.090 C 7.981 10.271,7.920 11.422,7.920 12.000 C 7.920 12.578,7.981 13.729,8.021 13.910 L 8.042 14.000 6.147 14.000 L 4.253 14.000 4.186 13.670 C 3.958 12.542,3.951 11.491,4.163 10.440 C 4.205 10.231,4.239 10.046,4.240 10.030 C 4.240 10.014,5.095 10.000,6.141 10.000 L 8.042 10.000 8.021 10.090 M13.973 10.190 C 14.062 10.918,14.093 12.040,14.046 12.810 C 14.018 13.256,13.986 13.706,13.973 13.810 L 13.950 14.000 12.000 14.000 L 10.050 14.000 10.027 13.810 C 9.938 13.082,9.907 11.960,9.954 11.190 C 9.982 10.745,10.014 10.295,10.027 10.190 L 10.050 10.000 12.000 10.000 L 13.950 10.000 13.973 10.190 M18.695 15.057 C 18.466 15.129,18.256 15.299,18.128 15.516 L 18.020 15.700 18.020 17.503 L 18.020 19.306 18.141 19.503 C 18.543 20.156,19.457 20.156,19.859 19.503 L 19.980 19.306 19.980 17.503 L 19.980 15.700 19.872 15.516 C 19.628 15.101,19.150 14.915,18.695 15.057 M8.507 16.540 C 8.686 17.235,9.059 18.333,9.350 19.020 C 9.516 19.410,9.572 19.584,9.536 19.593 C 9.461 19.611,8.720 19.305,8.280 19.075 C 7.209 18.513,6.253 17.685,5.547 16.707 C 5.386 16.483,5.213 16.232,5.163 16.150 L 5.073 15.999 6.723 16.010 L 8.373 16.020 8.507 16.540 M13.560 16.030 C 13.560 16.105,13.218 17.181,13.062 17.597 C 12.760 18.403,12.079 19.840,12.000 19.840 C 11.918 19.840,11.169 18.246,10.896 17.492 C 10.759 17.113,10.440 16.091,10.440 16.030 C 10.440 16.014,11.142 16.000,12.000 16.000 C 12.858 16.000,13.560 16.014,13.560 16.030 M18.695 21.057 C 18.466 21.129,18.256 21.299,18.128 21.516 C 18.036 21.672,18.020 21.745,18.021 22.000 C 18.022 22.332,18.101 22.533,18.306 22.728 C 18.785 23.181,19.580 23.046,19.893 22.460 C 20.025 22.211,20.015 21.760,19.872 21.516 C 19.628 21.101,19.150 20.915,18.695 21.057 " stroke="none" fill-rule="evenodd" fill="black"></path></svg>