<svg xmlns="http://www.w3.org/2000/svg" width="24" height="24" viewBox="0 0 24 24" fill="none" stroke="currentColor" stroke-width="2" stroke-linecap="round" stroke-linejoin="round"><path d="M10.800 2.079 C 9.060 2.322,7.623 2.869,6.303 3.790 C 4.002 5.395,2.533 7.784,2.092 10.640 C 1.993 11.281,1.994 12.759,2.095 13.380 C 2.510 15.954,3.686 18.076,5.560 19.636 C 7.065 20.888,8.657 21.600,10.640 21.907 C 10.964 21.957,11.336 21.978,11.900 21.979 C 12.844 21.980,12.966 21.950,13.253 21.643 C 13.607 21.265,13.615 20.730,13.273 20.341 C 13.040 20.077,12.847 20.000,12.415 20.000 L 12.056 20.000 11.732 19.370 C 11.209 18.355,10.912 17.624,10.597 16.580 C 10.511 16.294,10.440 16.047,10.440 16.030 C 10.440 16.014,12.748 16.000,15.570 15.999 C 20.645 15.998,20.702 15.997,20.880 15.917 C 21.237 15.755,21.356 15.582,21.551 14.940 C 22.305 12.457,22.099 9.907,20.958 7.580 C 20.192 6.021,19.079 4.746,17.580 3.713 C 15.678 2.403,13.036 1.766,10.800 2.079 M12.352 4.790 C 12.707 5.489,12.950 6.059,13.199 6.780 C 13.345 7.204,13.560 7.917,13.560 7.978 C 13.560 7.990,12.858 8.000,12.000 8.000 C 11.142 8.000,10.440 7.987,10.440 7.970 C 10.440 7.909,10.759 6.887,10.896 6.508 C 11.171 5.750,11.919 4.160,12.001 4.160 C 12.017 4.160,12.175 4.444,12.352 4.790 M9.356 4.964 C 9.079 5.618,8.615 6.993,8.480 7.560 C 8.430 7.769,8.377 7.954,8.362 7.970 C 8.347 7.987,7.603 7.996,6.708 7.990 L 5.080 7.980 5.290 7.660 C 6.097 6.428,7.161 5.480,8.454 4.842 C 8.884 4.629,9.562 4.353,9.590 4.378 C 9.596 4.383,9.491 4.647,9.356 4.964 M15.540 4.840 C 16.831 5.473,17.901 6.424,18.710 7.660 L 18.920 7.980 17.292 7.990 C 16.397 7.996,15.653 7.987,15.638 7.970 C 15.623 7.954,15.569 7.769,15.519 7.560 C 15.329 6.774,14.979 5.743,14.604 4.862 C 14.492 4.598,14.400 4.379,14.400 4.374 C 14.400 4.342,15.143 4.645,15.540 4.840 M8.021 10.090 C 7.981 10.271,7.920 11.422,7.920 12.000 C 7.920 12.578,7.981 13.729,8.021 13.910 L 8.042 14.000 6.147 14.000 L 4.252 14.000 4.188 13.690 C 4.049 13.016,4.024 12.755,4.025 12.000 C 4.025 11.247,4.064 10.864,4.207 10.210 L 4.253 10.000 6.147 10.000 L 8.042 10.000 8.021 10.090 M13.973 10.210 C 14.092 11.231,14.100 12.506,13.996 13.530 L 13.948 14.000 11.999 14.000 L 10.050 14.000 10.027 13.810 C 9.938 13.082,9.907 11.960,9.954 11.190 C 9.982 10.745,10.014 10.295,10.027 10.190 L 10.050 10.000 12.000 10.000 L 13.949 10.000 13.973 10.210 M19.760 10.030 C 19.761 10.046,19.795 10.231,19.837 10.440 C 20.051 11.505,20.044 12.532,19.814 13.670 L 19.747 14.000 17.849 14.000 L 15.951 14.000 15.975 13.870 C 16.103 13.176,16.107 10.858,15.981 10.110 L 15.962 10.000 17.861 10.000 C 18.905 10.000,19.760 10.014,19.760 10.030 M8.507 16.540 C 8.686 17.235,9.059 18.333,9.350 19.020 C 9.505 19.385,9.571 19.584,9.539 19.592 C 9.470 19.609,8.721 19.304,8.306 19.091 C 7.020 18.427,5.890 17.353,5.105 16.050 C 5.081 16.009,5.405 16.001,6.724 16.010 L 8.373 16.020 8.507 16.540 M15.695 18.057 C 15.466 18.129,15.256 18.299,15.128 18.516 C 15.037 18.672,15.020 18.746,15.020 19.000 C 15.020 19.256,15.036 19.328,15.131 19.489 C 15.256 19.702,15.449 19.864,15.670 19.943 C 15.891 20.022,22.109 20.022,22.330 19.943 C 22.551 19.864,22.744 19.702,22.869 19.489 C 22.964 19.328,22.980 19.256,22.980 19.000 C 22.980 18.746,22.963 18.672,22.872 18.516 C 22.740 18.293,22.533 18.128,22.290 18.055 C 22.030 17.977,15.945 17.979,15.695 18.057 " stroke="none" fill-rule="evenodd" fill="black"></path></svg>