<svg xmlns="http://www.w3.org/2000/svg" width="24" height="24" viewBox="0 0 24 24" fill="none" stroke="currentColor" stroke-width="2" stroke-linecap="round" stroke-linejoin="round"><path d="M10.895 2.061 C 8.520 2.367,6.598 3.292,4.957 4.920 C 3.410 6.454,2.503 8.235,2.113 10.501 C 1.994 11.194,1.982 12.742,2.090 13.409 C 2.565 16.343,4.073 18.719,6.480 20.327 C 8.053 21.377,10.032 21.997,11.820 21.999 C 12.158 21.999,12.251 21.985,12.420 21.905 C 12.801 21.724,13.008 21.405,13.008 21.000 C 13.008 20.515,12.671 20.109,12.194 20.020 C 12.058 19.994,12.040 19.970,11.730 19.367 C 11.209 18.355,10.912 17.623,10.597 16.580 C 10.511 16.294,10.440 16.047,10.440 16.030 C 10.440 16.014,10.948 16.000,11.570 16.000 C 12.675 15.999,12.704 15.997,12.900 15.905 C 13.281 15.724,13.488 15.405,13.488 15.000 C 13.488 14.615,13.293 14.297,12.940 14.106 C 12.786 14.023,12.726 14.020,11.415 14.008 L 10.050 13.996 10.027 13.808 C 10.014 13.705,9.982 13.255,9.954 12.810 C 9.907 12.040,9.938 10.918,10.027 10.190 L 10.050 10.000 12.000 10.000 L 13.949 10.000 13.974 10.214 C 14.056 10.911,14.084 11.708,14.059 12.611 L 14.031 13.602 14.139 13.821 C 14.492 14.544,15.540 14.550,15.904 13.832 C 15.988 13.666,16.014 13.540,16.042 13.144 C 16.106 12.266,16.073 10.674,15.979 10.130 L 15.956 10.000 17.858 10.000 C 18.904 10.000,19.760 10.007,19.760 10.016 C 19.760 10.024,19.795 10.202,19.838 10.410 C 19.881 10.618,19.936 11.066,19.960 11.404 C 19.985 11.743,20.014 12.096,20.025 12.189 C 20.052 12.420,20.257 12.711,20.497 12.859 C 20.671 12.966,20.729 12.980,20.997 12.980 C 21.256 12.980,21.327 12.964,21.489 12.869 C 21.858 12.652,21.996 12.367,21.997 11.820 C 21.998 11.443,21.916 10.590,21.839 10.180 C 21.458 8.144,20.386 6.178,18.877 4.744 C 17.533 3.468,15.700 2.520,13.921 2.183 C 12.956 2.000,11.750 1.951,10.895 2.061 M12.311 4.710 C 12.832 5.729,13.329 7.019,13.535 7.890 L 13.562 8.000 12.001 8.000 C 11.142 8.000,10.440 7.987,10.440 7.970 C 10.440 7.909,10.759 6.887,10.896 6.508 C 11.170 5.752,11.918 4.160,12.000 4.160 C 12.016 4.160,12.157 4.407,12.311 4.710 M9.356 4.964 C 9.079 5.618,8.615 6.993,8.480 7.560 C 8.430 7.769,8.377 7.954,8.362 7.970 C 8.347 7.987,7.601 7.996,6.704 7.990 L 5.074 7.980 5.282 7.660 C 6.048 6.483,7.168 5.477,8.400 4.859 C 8.754 4.681,9.566 4.352,9.590 4.376 C 9.596 4.382,9.491 4.647,9.356 4.964 M15.540 4.838 C 16.832 5.467,17.891 6.410,18.710 7.660 L 18.920 7.980 17.292 7.990 C 16.397 7.996,15.653 7.987,15.639 7.970 C 15.624 7.954,15.563 7.742,15.502 7.500 C 15.335 6.835,14.920 5.610,14.645 4.969 C 14.510 4.656,14.400 4.391,14.400 4.380 C 14.400 4.341,15.082 4.615,15.540 4.838 M8.021 10.090 C 7.981 10.271,7.920 11.422,7.920 12.000 C 7.920 12.578,7.981 13.729,8.021 13.910 L 8.042 14.000 6.141 14.000 C 5.095 14.000,4.240 13.993,4.240 13.984 C 4.240 13.976,4.206 13.800,4.163 13.594 C 3.943 12.515,3.958 11.323,4.206 10.210 L 4.253 10.000 6.147 10.000 L 8.042 10.000 8.021 10.090 M18.617 14.577 C 18.415 14.665,18.193 14.886,18.094 15.100 C 18.015 15.270,18.001 15.364,18.000 15.724 L 18.000 16.148 17.708 16.292 C 17.548 16.371,17.334 16.499,17.233 16.576 L 17.050 16.716 16.664 16.503 C 16.211 16.253,15.998 16.209,15.686 16.302 C 15.161 16.458,14.862 17.002,15.014 17.526 C 15.098 17.815,15.269 17.998,15.677 18.238 L 16.014 18.436 16.017 19.002 L 16.020 19.567 15.649 19.786 C 15.230 20.032,15.075 20.208,14.999 20.524 C 14.876 21.035,15.183 21.552,15.700 21.702 C 16.043 21.802,16.254 21.745,16.876 21.388 L 17.053 21.286 17.235 21.425 C 17.335 21.501,17.548 21.629,17.708 21.708 L 18.000 21.852 18.000 22.276 C 18.001 22.638,18.015 22.729,18.095 22.900 C 18.276 23.281,18.595 23.488,19.000 23.488 C 19.405 23.488,19.724 23.281,19.905 22.900 C 19.986 22.729,19.999 22.639,20.000 22.274 L 20.000 21.848 20.269 21.721 C 20.418 21.652,20.633 21.524,20.749 21.437 L 20.959 21.278 21.120 21.380 C 21.666 21.725,21.988 21.810,22.323 21.699 C 22.828 21.531,23.121 21.024,23.001 20.524 C 22.926 20.210,22.771 20.034,22.352 19.784 L 21.980 19.562 21.983 18.999 L 21.986 18.436 22.323 18.238 C 22.731 17.998,22.902 17.815,22.986 17.526 C 23.138 17.002,22.839 16.458,22.314 16.302 C 22.002 16.209,21.789 16.253,21.336 16.503 L 20.950 16.716 20.767 16.576 C 20.666 16.499,20.452 16.371,20.292 16.292 L 20.000 16.148 20.000 15.724 C 19.999 15.362,19.985 15.271,19.905 15.100 C 19.793 14.865,19.599 14.669,19.391 14.582 C 19.210 14.506,18.785 14.503,18.617 14.577 M8.507 16.540 C 8.687 17.240,9.060 18.333,9.357 19.036 C 9.490 19.352,9.600 19.617,9.600 19.623 C 9.600 19.661,8.951 19.405,8.532 19.202 C 8.002 18.946,7.406 18.570,6.950 18.203 C 6.333 17.707,5.551 16.811,5.166 16.159 L 5.071 15.999 6.722 16.010 L 8.373 16.020 8.507 16.540 M19.260 18.044 C 19.497 18.107,19.701 18.263,19.849 18.494 C 19.968 18.679,19.980 18.727,19.980 19.003 C 19.980 19.287,19.970 19.322,19.831 19.531 C 19.613 19.859,19.389 19.980,19.000 19.979 C 18.665 19.978,18.526 19.923,18.308 19.705 C 18.104 19.501,18.022 19.300,18.022 19.000 C 18.022 18.334,18.621 17.871,19.260 18.044 " stroke="none" fill-rule="evenodd" fill="black"></path></svg>