<svg xmlns="http://www.w3.org/2000/svg" width="24" height="24" viewBox="0 0 24 24" fill="none" stroke="currentColor" stroke-width="2" stroke-linecap="round" stroke-linejoin="round"><path d="M10.880 2.064 C 8.874 2.328,7.270 2.994,5.780 4.181 C 3.773 5.779,2.527 7.942,2.094 10.580 C 2.004 11.128,1.991 12.796,2.072 13.300 C 2.280 14.583,2.633 15.666,3.185 16.715 C 4.161 18.573,5.769 20.103,7.730 21.040 C 8.780 21.541,9.867 21.835,11.146 21.964 C 11.591 22.009,11.649 22.007,11.823 21.941 C 12.036 21.860,12.296 21.643,12.384 21.472 C 12.475 21.296,12.513 21.019,12.474 20.811 C 12.454 20.702,12.345 20.465,12.219 20.252 C 11.709 19.398,11.215 18.368,10.902 17.502 C 10.744 17.068,10.440 16.095,10.440 16.026 C 10.440 16.012,11.173 16.000,12.070 16.000 L 13.700 15.999 13.900 15.905 C 14.281 15.724,14.488 15.405,14.488 15.000 C 14.488 14.615,14.293 14.297,13.940 14.106 C 13.783 14.022,13.740 14.020,11.915 14.009 L 10.050 13.997 10.027 13.809 C 10.014 13.705,9.982 13.255,9.954 12.810 C 9.907 12.040,9.938 10.918,10.027 10.190 L 10.050 10.000 12.000 10.000 L 13.949 10.000 13.974 10.210 C 14.062 10.940,14.091 11.963,14.048 12.771 C 13.999 13.667,14.013 13.822,14.157 14.056 C 14.412 14.468,14.940 14.640,15.390 14.459 C 15.611 14.371,15.894 14.056,15.955 13.832 C 16.024 13.580,16.079 12.792,16.079 12.053 C 16.080 11.434,16.021 10.279,15.979 10.090 L 15.958 10.000 17.855 10.000 L 19.752 10.000 19.815 10.290 C 19.958 10.949,19.976 11.157,19.978 12.240 L 19.980 13.340 20.088 13.524 C 20.277 13.846,20.578 14.015,20.954 14.010 C 21.349 14.004,21.677 13.799,21.838 13.455 C 21.958 13.200,22.016 12.476,21.985 11.620 C 21.950 10.637,21.819 9.867,21.536 8.992 C 20.487 5.749,17.983 3.321,14.700 2.366 C 13.586 2.041,12.000 1.916,10.880 2.064 M12.291 4.670 C 12.826 5.710,13.325 7.002,13.535 7.890 L 13.562 8.000 12.001 8.000 C 11.142 8.000,10.440 7.987,10.440 7.970 C 10.440 7.909,10.759 6.887,10.896 6.508 C 11.169 5.754,11.918 4.160,12.000 4.160 C 12.016 4.160,12.147 4.389,12.291 4.670 M9.357 4.964 C 9.060 5.666,8.687 6.760,8.507 7.460 L 8.373 7.980 6.722 7.990 L 5.072 8.001 5.183 7.810 C 5.704 6.921,6.684 5.920,7.653 5.287 C 8.044 5.032,8.730 4.682,9.140 4.528 C 9.503 4.392,9.576 4.368,9.590 4.379 C 9.596 4.384,9.491 4.647,9.357 4.964 M15.347 4.741 C 16.737 5.388,17.876 6.370,18.688 7.620 L 18.922 7.980 17.293 7.990 C 16.398 7.996,15.653 7.987,15.638 7.970 C 15.623 7.954,15.570 7.769,15.520 7.560 C 15.380 6.972,14.917 5.602,14.645 4.969 C 14.510 4.656,14.400 4.391,14.400 4.380 C 14.400 4.348,14.966 4.563,15.347 4.741 M8.021 10.090 C 7.981 10.271,7.920 11.422,7.920 12.000 C 7.920 12.578,7.981 13.729,8.021 13.910 L 8.042 14.000 6.147 14.000 L 4.252 14.000 4.186 13.690 C 4.048 13.033,4.021 12.759,4.021 11.980 C 4.022 11.203,4.041 11.003,4.187 10.310 L 4.252 10.000 6.147 10.000 L 8.042 10.000 8.021 10.090 M8.507 16.540 C 8.687 17.240,9.060 18.333,9.357 19.036 C 9.490 19.352,9.600 19.617,9.600 19.623 C 9.600 19.661,8.951 19.405,8.532 19.202 C 7.168 18.543,5.895 17.392,5.166 16.159 L 5.071 15.999 6.722 16.010 L 8.373 16.020 8.507 16.540 M16.640 16.069 C 16.492 16.121,16.265 16.325,15.347 17.236 C 14.734 17.843,14.185 18.421,14.127 18.520 C 14.037 18.672,14.020 18.747,14.020 19.000 C 14.020 19.254,14.036 19.328,14.127 19.480 C 14.260 19.703,16.367 21.803,16.560 21.905 C 16.659 21.957,16.787 21.979,17.000 21.979 C 17.258 21.980,17.327 21.964,17.492 21.867 C 17.714 21.737,17.901 21.498,17.965 21.264 C 18.019 21.061,17.989 20.733,17.899 20.555 C 17.861 20.481,17.514 20.101,17.127 19.710 L 16.423 19.000 17.127 18.290 C 17.514 17.899,17.864 17.517,17.904 17.440 C 17.957 17.340,17.979 17.213,17.979 17.000 C 17.980 16.745,17.964 16.672,17.872 16.516 C 17.617 16.083,17.120 15.902,16.640 16.069 M19.670 16.061 C 19.448 16.142,19.250 16.309,19.128 16.516 C 19.036 16.672,19.020 16.745,19.021 17.000 C 19.021 17.213,19.043 17.340,19.096 17.440 C 19.136 17.517,19.486 17.899,19.873 18.290 L 20.577 19.000 19.873 19.710 C 19.486 20.101,19.139 20.481,19.101 20.555 C 18.872 21.008,19.056 21.601,19.508 21.867 C 19.673 21.964,19.742 21.980,20.000 21.979 C 20.213 21.979,20.341 21.957,20.440 21.905 C 20.633 21.803,22.740 19.703,22.873 19.480 C 22.964 19.328,22.980 19.254,22.980 19.000 C 22.980 18.747,22.963 18.672,22.873 18.520 C 22.815 18.421,22.266 17.843,21.653 17.236 C 20.680 16.271,20.515 16.124,20.343 16.066 C 20.108 15.987,19.875 15.985,19.670 16.061 " stroke="none" fill-rule="evenodd" fill="black"></path></svg>