<svg xmlns="http://www.w3.org/2000/svg" width="24" height="24" viewBox="0 0 24 24" fill="none" stroke="currentColor" stroke-width="2" stroke-linecap="round" stroke-linejoin="round"><path d="M11.240 2.022 C 11.207 2.029,10.955 2.064,10.680 2.100 C 8.739 2.355,6.973 3.150,5.459 4.451 C 3.608 6.042,2.420 8.256,2.074 10.760 C 1.995 11.333,2.005 12.793,2.092 13.360 C 2.354 15.068,2.967 16.580,3.934 17.900 C 5.260 19.713,7.177 21.034,9.352 21.635 C 10.479 21.947,11.885 22.089,12.334 21.936 C 12.700 21.811,13.000 21.390,13.000 21.000 C 13.000 20.579,12.687 20.167,12.281 20.054 L 12.051 19.990 11.729 19.365 C 11.209 18.355,10.912 17.622,10.597 16.580 C 10.511 16.294,10.440 16.047,10.440 16.030 C 10.440 16.014,11.173 16.000,12.070 16.000 L 13.700 15.999 13.900 15.905 C 14.281 15.724,14.488 15.405,14.488 15.000 C 14.488 14.615,14.293 14.297,13.940 14.106 C 13.783 14.022,13.740 14.020,11.915 14.009 L 10.050 13.997 10.027 13.809 C 10.014 13.705,9.982 13.255,9.954 12.810 C 9.907 12.040,9.938 10.918,10.027 10.190 L 10.050 10.000 12.000 10.000 L 13.949 10.000 13.973 10.170 C 14.058 10.772,14.091 12.008,14.046 12.832 C 13.994 13.765,14.004 13.861,14.178 14.123 C 14.423 14.495,14.869 14.646,15.336 14.516 C 15.560 14.454,15.890 14.113,15.952 13.880 C 16.021 13.622,16.080 12.771,16.080 12.037 C 16.080 11.429,16.020 10.275,15.979 10.090 L 15.958 10.000 17.855 10.000 L 19.752 10.000 19.815 10.290 C 19.983 11.065,20.035 11.891,19.962 12.670 C 19.920 13.127,19.922 13.226,19.975 13.409 C 20.133 13.948,20.684 14.235,21.256 14.076 C 21.464 14.018,21.807 13.674,21.870 13.460 C 22.016 12.962,22.032 11.475,21.901 10.602 C 21.436 7.521,19.685 4.924,17.022 3.362 C 16.165 2.860,15.121 2.452,14.160 2.246 C 13.625 2.131,13.595 2.126,13.060 2.060 C 12.648 2.009,11.422 1.983,11.240 2.022 M12.291 4.670 C 12.826 5.710,13.325 7.002,13.535 7.890 L 13.562 8.000 12.001 8.000 C 11.142 8.000,10.440 7.987,10.440 7.970 C 10.440 7.909,10.759 6.887,10.896 6.508 C 11.169 5.754,11.918 4.160,12.000 4.160 C 12.016 4.160,12.147 4.389,12.291 4.670 M9.357 4.964 C 9.060 5.666,8.687 6.760,8.507 7.460 L 8.373 7.980 6.722 7.990 L 5.071 8.001 5.166 7.841 C 5.848 6.687,7.029 5.583,8.286 4.922 C 8.691 4.709,9.559 4.346,9.590 4.376 C 9.596 4.382,9.491 4.647,9.357 4.964 M15.347 4.741 C 16.737 5.388,17.876 6.370,18.688 7.620 L 18.922 7.980 17.293 7.990 C 16.398 7.996,15.653 7.987,15.638 7.970 C 15.623 7.954,15.570 7.769,15.520 7.560 C 15.380 6.972,14.917 5.602,14.645 4.969 C 14.510 4.656,14.400 4.391,14.400 4.380 C 14.400 4.348,14.966 4.563,15.347 4.741 M8.021 10.090 C 7.981 10.271,7.920 11.422,7.920 12.000 C 7.920 12.578,7.981 13.729,8.021 13.910 L 8.042 14.000 6.147 14.000 L 4.253 14.000 4.206 13.790 C 3.949 12.637,3.942 11.452,4.183 10.329 L 4.254 10.000 6.148 10.000 L 8.042 10.000 8.021 10.090 M8.507 16.540 C 8.687 17.240,9.060 18.333,9.357 19.036 C 9.490 19.352,9.600 19.617,9.600 19.623 C 9.600 19.660,8.952 19.405,8.540 19.206 C 7.656 18.778,7.063 18.350,6.318 17.603 C 5.827 17.111,5.474 16.667,5.163 16.150 L 5.073 15.999 6.723 16.010 L 8.373 16.020 8.507 16.540 M16.670 16.061 C 16.448 16.142,16.250 16.309,16.128 16.516 C 16.037 16.672,16.020 16.746,16.020 17.000 C 16.020 17.254,16.036 17.328,16.127 17.480 C 16.186 17.579,16.650 18.074,17.157 18.579 L 18.079 19.499 17.124 20.459 C 16.599 20.988,16.138 21.481,16.101 21.555 C 15.872 22.009,16.056 22.601,16.508 22.867 C 16.673 22.964,16.743 22.980,17.000 22.980 C 17.254 22.980,17.328 22.964,17.480 22.873 C 17.579 22.814,18.074 22.350,18.579 21.843 L 19.499 20.921 20.459 21.876 C 20.988 22.401,21.483 22.864,21.560 22.905 C 21.659 22.957,21.787 22.979,22.000 22.979 C 22.258 22.980,22.327 22.964,22.492 22.867 C 22.714 22.737,22.901 22.498,22.965 22.264 C 23.019 22.061,22.989 21.733,22.899 21.555 C 22.862 21.481,22.401 20.988,21.876 20.459 L 20.921 19.499 21.843 18.579 C 22.350 18.074,22.814 17.579,22.873 17.480 C 22.964 17.328,22.980 17.254,22.980 17.000 C 22.980 16.746,22.963 16.672,22.872 16.516 C 22.618 16.084,22.136 15.905,21.657 16.066 C 21.486 16.124,21.330 16.262,20.480 17.104 L 19.500 18.076 18.520 17.104 C 17.671 16.262,17.514 16.124,17.343 16.066 C 17.108 15.987,16.875 15.985,16.670 16.061 " stroke="none" fill-rule="evenodd" fill="black"></path></svg>