<svg xmlns="http://www.w3.org/2000/svg" width="24" height="24" viewBox="0 0 24 24" fill="none" stroke="currentColor" stroke-width="2" stroke-linecap="round" stroke-linejoin="round"><path d="M10.880 2.061 C 8.552 2.370,6.580 3.317,4.990 4.890 C 3.394 6.470,2.473 8.292,2.094 10.620 C 1.995 11.233,1.994 12.756,2.092 13.380 C 2.563 16.351,4.115 18.781,6.568 20.389 C 7.733 21.153,9.092 21.663,10.598 21.903 C 11.044 21.974,12.285 22.024,12.608 21.983 C 13.113 21.920,13.482 21.544,13.513 21.060 C 13.533 20.737,13.470 20.551,13.265 20.327 C 13.027 20.068,12.855 20.002,12.418 20.001 L 12.056 20.000 11.732 19.370 C 11.209 18.355,10.912 17.624,10.597 16.580 C 10.511 16.294,10.440 16.047,10.440 16.031 C 10.440 16.015,11.479 15.997,12.750 15.991 C 14.915 15.981,15.069 15.975,15.200 15.905 C 15.398 15.800,15.554 15.646,15.648 15.463 C 15.781 15.204,15.952 14.120,16.044 12.940 C 16.090 12.356,16.073 10.812,16.015 10.250 L 15.989 10.000 17.870 10.000 L 19.752 10.000 19.816 10.290 C 19.927 10.798,19.964 11.160,19.993 12.003 L 20.020 12.826 20.141 13.022 C 20.296 13.273,20.520 13.428,20.813 13.486 C 21.123 13.548,21.416 13.460,21.663 13.233 C 21.946 12.972,21.980 12.830,21.978 11.920 C 21.975 11.116,21.931 10.657,21.794 10.000 C 20.991 6.171,18.117 3.202,14.320 2.281 C 13.300 2.034,11.810 1.938,10.880 2.061 M12.374 4.830 C 12.867 5.808,13.257 6.803,13.533 7.790 L 13.591 8.000 12.016 8.000 C 11.149 8.000,10.440 7.987,10.440 7.970 C 10.440 7.909,10.759 6.887,10.896 6.508 C 11.175 5.739,11.919 4.160,12.003 4.160 C 12.021 4.160,12.188 4.462,12.374 4.830 M9.356 4.964 C 9.079 5.618,8.615 6.993,8.480 7.560 C 8.430 7.769,8.377 7.954,8.362 7.970 C 8.347 7.987,7.601 7.996,6.704 7.990 L 5.074 7.980 5.282 7.660 C 6.046 6.487,7.118 5.520,8.364 4.880 C 8.732 4.691,9.563 4.350,9.590 4.376 C 9.596 4.382,9.491 4.647,9.356 4.964 M15.460 4.795 C 16.895 5.480,18.050 6.541,18.895 7.950 C 18.919 7.990,18.587 8.000,17.287 8.000 L 15.650 8.000 15.563 7.650 C 15.308 6.621,15.024 5.820,14.413 4.409 C 14.384 4.343,14.944 4.549,15.460 4.795 M8.021 10.090 C 7.981 10.271,7.920 11.422,7.920 12.000 C 7.920 12.578,7.981 13.729,8.021 13.910 L 8.042 14.000 6.148 14.000 L 4.255 14.000 4.188 13.710 C 4.055 13.134,4.023 12.807,4.023 12.040 C 4.023 11.281,4.054 10.958,4.189 10.310 L 4.254 10.000 6.148 10.000 L 8.042 10.000 8.021 10.090 M13.975 10.130 C 14.111 10.887,14.091 12.892,13.937 13.850 L 13.913 14.000 11.982 14.000 L 10.050 14.000 10.027 13.810 C 9.938 13.082,9.907 11.960,9.954 11.190 C 9.982 10.745,10.014 10.295,10.027 10.190 L 10.050 10.000 12.001 10.000 L 13.951 10.000 13.975 10.130 M18.695 15.057 C 18.466 15.129,18.256 15.299,18.128 15.516 L 18.020 15.700 18.009 17.635 L 17.997 19.571 17.269 18.852 C 16.655 18.247,16.509 18.123,16.343 18.067 C 15.865 17.905,15.383 18.083,15.128 18.516 C 15.036 18.672,15.020 18.745,15.021 19.000 C 15.021 19.212,15.043 19.341,15.095 19.440 C 15.135 19.517,15.891 20.306,16.774 21.194 C 18.528 22.957,18.580 22.999,19.000 22.999 C 19.420 22.999,19.472 22.957,21.226 21.194 C 22.109 20.306,22.865 19.517,22.905 19.440 C 22.957 19.341,22.979 19.212,22.979 19.000 C 22.980 18.745,22.964 18.672,22.872 18.516 C 22.617 18.083,22.135 17.905,21.657 18.067 C 21.491 18.123,21.345 18.247,20.731 18.852 L 20.003 19.571 19.991 17.635 L 19.980 15.700 19.872 15.516 C 19.628 15.101,19.150 14.915,18.695 15.057 M8.507 16.540 C 8.687 17.240,9.060 18.334,9.357 19.036 C 9.491 19.353,9.596 19.618,9.590 19.624 C 9.563 19.651,8.732 19.309,8.361 19.118 C 7.023 18.431,5.929 17.416,5.164 16.150 L 5.073 15.999 6.723 16.010 L 8.373 16.020 8.507 16.540 " stroke="none" fill-rule="evenodd" fill="black"></path></svg>