<svg xmlns="http://www.w3.org/2000/svg" width="24" height="24" viewBox="0 0 24 24" fill="none" stroke="currentColor" stroke-width="2" stroke-linecap="round" stroke-linejoin="round"><path d="M10.862 2.065 C 9.195 2.278,7.800 2.792,6.467 3.682 C 4.075 5.280,2.536 7.715,2.093 10.600 C 1.994 11.249,1.993 12.760,2.093 13.400 C 2.369 15.184,3.065 16.802,4.160 18.207 C 4.490 18.630,5.324 19.471,5.740 19.801 C 7.344 21.070,9.263 21.821,11.323 21.983 C 11.624 22.007,11.690 21.999,11.863 21.923 C 12.209 21.770,12.412 21.524,12.476 21.179 C 12.528 20.901,12.461 20.658,12.219 20.252 C 11.709 19.398,11.215 18.368,10.902 17.502 C 10.744 17.068,10.440 16.095,10.440 16.026 C 10.440 16.012,10.498 16.000,10.570 16.000 C 10.747 15.999,11.073 15.838,11.228 15.675 C 11.402 15.492,11.488 15.268,11.488 15.000 C 11.488 14.732,11.401 14.507,11.228 14.326 C 11.011 14.101,10.824 14.027,10.415 14.008 L 10.049 13.991 10.027 13.805 C 10.014 13.703,9.982 13.255,9.954 12.810 C 9.907 12.040,9.938 10.918,10.027 10.190 L 10.050 10.000 12.005 10.000 C 13.542 10.000,13.960 10.011,13.960 10.050 C 13.961 10.078,13.987 10.391,14.018 10.747 C 14.066 11.290,14.092 11.427,14.177 11.595 C 14.552 12.333,15.630 12.289,15.972 11.521 C 16.045 11.358,16.049 11.287,16.027 10.737 C 16.013 10.404,15.990 10.102,15.977 10.066 C 15.953 10.005,16.106 10.000,17.852 10.000 L 19.753 10.000 19.798 10.210 C 19.889 10.633,19.961 11.194,19.995 11.751 C 20.027 12.280,20.038 12.335,20.146 12.511 C 20.543 13.156,21.460 13.152,21.859 12.503 L 21.980 12.305 21.976 11.683 C 21.969 10.512,21.712 9.313,21.216 8.128 C 19.656 4.406,15.973 1.976,11.933 2.004 C 11.585 2.007,11.103 2.034,10.862 2.065 M12.313 4.712 C 12.657 5.382,12.954 6.065,13.169 6.680 C 13.320 7.114,13.560 7.904,13.560 7.970 C 13.560 7.986,12.858 8.000,12.000 8.000 C 11.142 8.000,10.440 7.987,10.440 7.970 C 10.440 7.909,10.759 6.887,10.896 6.508 C 11.170 5.752,11.918 4.160,12.000 4.160 C 12.016 4.160,12.157 4.408,12.313 4.712 M9.357 4.964 C 9.060 5.666,8.687 6.760,8.507 7.460 L 8.373 7.980 6.722 7.990 L 5.071 8.001 5.166 7.841 C 5.692 6.950,6.649 5.957,7.588 5.326 C 7.973 5.068,8.656 4.719,9.140 4.534 C 9.382 4.442,9.584 4.371,9.590 4.377 C 9.596 4.383,9.491 4.647,9.357 4.964 M15.500 4.819 C 16.412 5.263,17.075 5.750,17.792 6.501 C 18.197 6.924,18.579 7.417,18.824 7.830 L 18.925 8.000 17.284 8.000 L 15.643 8.000 15.600 7.830 C 15.340 6.799,14.995 5.761,14.632 4.922 C 14.523 4.668,14.423 4.437,14.412 4.409 C 14.380 4.331,14.906 4.529,15.500 4.819 M8.021 10.090 C 7.981 10.271,7.920 11.422,7.920 12.000 C 7.920 12.578,7.981 13.729,8.021 13.910 L 8.042 14.000 6.144 14.000 L 4.247 14.000 4.202 13.793 C 4.056 13.111,4.025 12.795,4.026 12.000 C 4.026 11.208,4.059 10.873,4.202 10.207 L 4.247 10.000 6.144 10.000 L 8.042 10.000 8.021 10.090 M15.699 14.037 C 14.670 14.202,13.737 14.905,13.305 15.840 C 13.072 16.345,13.021 16.592,13.024 17.200 C 13.026 17.692,13.037 17.773,13.149 18.111 C 13.392 18.843,13.413 18.869,15.473 20.912 C 16.500 21.930,17.421 22.812,17.520 22.872 C 17.673 22.964,17.745 22.980,18.000 22.980 C 18.254 22.980,18.327 22.964,18.480 22.873 C 18.579 22.814,19.509 21.923,20.547 20.893 C 22.582 18.874,22.591 18.863,22.818 18.213 C 23.020 17.636,23.050 16.947,22.900 16.380 C 22.746 15.802,22.353 15.189,21.871 14.775 C 20.903 13.943,19.453 13.773,18.325 14.360 L 18.013 14.522 17.697 14.363 C 17.245 14.135,16.862 14.039,16.340 14.020 C 16.098 14.012,15.810 14.019,15.699 14.037 M8.507 16.540 C 8.687 17.240,9.060 18.334,9.357 19.036 C 9.491 19.353,9.596 19.618,9.590 19.624 C 9.566 19.648,8.754 19.319,8.400 19.141 C 7.091 18.485,5.922 17.403,5.164 16.150 L 5.073 15.999 6.723 16.010 L 8.373 16.020 8.507 16.540 M16.756 16.138 C 16.867 16.194,17.072 16.348,17.213 16.480 C 17.512 16.759,17.693 16.846,17.980 16.849 C 18.293 16.851,18.459 16.777,18.773 16.492 C 19.235 16.074,19.562 15.956,20.020 16.041 C 20.841 16.193,21.259 17.127,20.806 17.797 C 20.748 17.883,20.101 18.542,19.368 19.262 C 18.242 20.369,18.025 20.565,17.961 20.535 C 17.919 20.516,17.278 19.898,16.537 19.163 C 15.024 17.661,15.020 17.657,15.023 17.160 C 15.025 16.915,15.045 16.822,15.133 16.651 C 15.292 16.341,15.584 16.126,15.980 16.025 C 16.158 15.979,16.559 16.038,16.756 16.138 " stroke="none" fill-rule="evenodd" fill="black"></path></svg>