<svg xmlns="http://www.w3.org/2000/svg" width="24" height="24" viewBox="0 0 24 24" fill="none" stroke="currentColor" stroke-width="2" stroke-linecap="round" stroke-linejoin="round"><path d="M17.495 2.037 C 16.778 2.152,16.051 2.594,15.607 3.185 C 15.377 3.492,15.252 3.734,15.114 4.143 L 15.020 4.420 15.009 10.777 C 14.997 17.988,14.965 17.336,15.345 17.755 L 15.568 18.001 10.134 17.991 L 4.700 17.980 4.516 17.872 C 3.947 17.538,3.834 16.784,4.283 16.321 C 4.589 16.007,4.448 16.023,7.160 15.999 C 9.554 15.978,9.583 15.976,9.860 15.885 C 10.846 15.559,11.582 14.815,11.886 13.840 C 12.021 13.406,12.021 12.594,11.886 12.160 C 11.582 11.182,10.827 10.423,9.861 10.123 C 9.543 10.024,9.523 10.023,7.760 10.008 C 6.537 9.998,5.916 10.007,5.776 10.038 C 5.515 10.096,5.269 10.277,5.129 10.514 C 5.036 10.672,5.020 10.745,5.020 11.000 C 5.020 11.256,5.036 11.328,5.131 11.489 C 5.192 11.592,5.304 11.725,5.381 11.783 C 5.655 11.992,5.695 11.996,7.463 11.998 C 9.360 12.000,9.399 12.006,9.697 12.303 C 9.970 12.577,10.057 12.919,9.945 13.290 C 9.872 13.533,9.707 13.740,9.484 13.872 L 9.300 13.980 6.880 14.002 L 4.460 14.023 4.139 14.123 C 3.173 14.423,2.418 15.182,2.114 16.160 C 1.979 16.594,1.979 17.406,2.114 17.840 C 2.417 18.815,3.149 19.553,4.140 19.886 L 4.420 19.980 11.311 19.991 L 18.202 20.002 18.396 19.918 C 18.550 19.852,18.821 19.602,19.729 18.687 C 20.747 17.663,20.876 17.518,20.935 17.337 C 20.996 17.151,21.001 16.615,20.991 10.777 L 20.980 4.420 20.886 4.143 C 20.748 3.734,20.623 3.492,20.393 3.185 C 20.024 2.694,19.468 2.309,18.860 2.122 C 18.547 2.026,17.840 1.982,17.495 2.037 M18.461 4.111 C 18.646 4.206,18.800 4.362,18.905 4.560 C 18.967 4.676,18.982 4.812,18.993 5.350 L 19.007 6.000 18.000 6.000 L 16.993 6.000 17.007 5.350 C 17.018 4.812,17.033 4.676,17.095 4.560 C 17.233 4.299,17.437 4.128,17.720 4.035 C 17.885 3.981,18.289 4.022,18.461 4.111 M19.000 12.291 L 19.000 16.581 18.500 17.080 L 18.000 17.579 17.500 17.080 L 17.000 16.581 17.000 12.291 L 17.000 8.000 18.000 8.000 L 19.000 8.000 19.000 12.291 " stroke="none" fill-rule="evenodd" fill="black"></path></svg>