<svg xmlns="http://www.w3.org/2000/svg" width="24" height="24" viewBox="0 0 24 24" fill="none" stroke="currentColor" stroke-width="2" stroke-linecap="round" stroke-linejoin="round"><path d="M11.080 2.045 C 9.507 2.184,7.883 2.751,6.540 3.630 C 5.905 4.045,5.499 4.378,4.919 4.958 C 2.953 6.926,1.919 9.544,2.013 12.320 C 2.084 14.439,2.752 16.328,4.033 18.040 C 4.430 18.570,5.305 19.464,5.800 19.847 C 7.242 20.961,8.787 21.624,10.600 21.907 C 11.247 22.008,12.753 22.008,13.400 21.907 C 15.638 21.557,17.504 20.620,19.062 19.062 C 20.620 17.504,21.557 15.638,21.907 13.400 C 22.008 12.753,22.008 11.247,21.907 10.600 C 21.624 8.786,20.959 7.238,19.847 5.800 C 19.510 5.365,18.639 4.494,18.200 4.154 C 16.133 2.555,13.646 1.818,11.080 2.045 M12.734 4.041 C 14.574 4.216,16.228 4.976,17.554 6.256 C 20.043 8.658,20.702 12.394,19.183 15.499 C 18.749 16.387,18.223 17.105,17.496 17.801 C 16.876 18.394,16.262 18.819,15.471 19.200 C 13.267 20.265,10.733 20.265,8.529 19.200 C 7.477 18.693,6.612 18.015,5.847 17.100 C 3.848 14.711,3.440 11.302,4.816 8.500 C 6.162 5.760,8.867 4.049,11.920 4.005 C 12.129 4.003,12.495 4.019,12.734 4.041 M8.670 7.055 C 8.174 7.240,7.902 7.767,8.042 8.269 C 8.084 8.417,8.423 8.896,9.548 10.397 L 11.000 12.334 11.002 14.257 C 11.003 15.759,11.015 16.213,11.057 16.330 C 11.136 16.551,11.298 16.744,11.511 16.869 C 11.672 16.964,11.744 16.980,12.000 16.980 C 12.256 16.980,12.328 16.964,12.489 16.869 C 12.592 16.808,12.723 16.699,12.778 16.626 C 12.997 16.339,13.000 16.309,13.000 14.242 L 13.000 12.334 14.452 10.397 C 15.577 8.896,15.916 8.417,15.958 8.269 C 16.150 7.583,15.591 6.934,14.881 7.017 C 14.458 7.067,14.422 7.104,13.168 8.781 C 12.537 9.626,12.011 10.316,12.000 10.316 C 11.989 10.316,11.463 9.626,10.832 8.781 C 9.550 7.067,9.537 7.054,9.075 7.018 C 8.909 7.005,8.768 7.018,8.670 7.055 " stroke="none" fill-rule="evenodd" fill="black"></path></svg>