<svg xmlns="http://www.w3.org/2000/svg" width="24" height="24" viewBox="0 0 24 24" fill="none" stroke="currentColor" stroke-width="2" stroke-linecap="round" stroke-linejoin="round"><path d="M2.667 7.065 C 2.406 7.145,2.153 7.401,2.061 7.678 C 1.927 8.081,1.938 8.111,2.954 10.148 L 3.879 12.000 2.954 13.852 C 1.938 15.889,1.927 15.919,2.061 16.322 C 2.189 16.707,2.594 17.000,3.000 17.000 C 3.080 17.000,3.233 16.970,3.340 16.934 C 3.686 16.816,3.804 16.649,4.419 15.408 C 4.727 14.788,4.988 14.280,5.000 14.280 C 5.012 14.280,5.273 14.788,5.581 15.408 C 6.196 16.649,6.314 16.816,6.660 16.934 C 6.767 16.970,6.920 17.000,7.000 17.000 C 7.406 17.000,7.811 16.707,7.939 16.322 C 8.073 15.919,8.062 15.889,7.046 13.852 L 6.121 12.000 7.046 10.148 C 8.056 8.124,8.072 8.079,7.944 7.693 C 7.712 6.992,6.816 6.776,6.304 7.297 C 6.182 7.421,5.997 7.751,5.581 8.592 C 5.273 9.212,5.012 9.720,5.000 9.720 C 4.988 9.720,4.727 9.212,4.419 8.592 C 3.804 7.351,3.686 7.184,3.340 7.066 C 3.106 6.986,2.924 6.986,2.667 7.065 M9.667 7.065 C 9.406 7.145,9.153 7.401,9.061 7.678 C 8.927 8.081,8.938 8.111,9.954 10.148 L 10.879 12.000 9.954 13.852 C 8.938 15.889,8.927 15.919,9.061 16.322 C 9.189 16.707,9.594 17.000,10.000 17.000 C 10.080 17.000,10.233 16.970,10.340 16.934 C 10.686 16.816,10.804 16.649,11.419 15.408 C 11.727 14.788,11.988 14.280,12.000 14.280 C 12.012 14.280,12.273 14.788,12.581 15.408 C 13.196 16.649,13.314 16.816,13.660 16.934 C 13.767 16.970,13.920 17.000,14.000 17.000 C 14.406 17.000,14.811 16.707,14.939 16.322 C 15.073 15.919,15.062 15.889,14.046 13.852 L 13.121 12.000 14.046 10.148 C 15.056 8.124,15.072 8.079,14.944 7.693 C 14.712 6.992,13.816 6.776,13.304 7.297 C 13.182 7.421,12.997 7.751,12.581 8.592 C 12.273 9.212,12.012 9.720,12.000 9.720 C 11.988 9.720,11.727 9.212,11.419 8.592 C 10.804 7.351,10.686 7.184,10.340 7.066 C 10.106 6.986,9.924 6.986,9.667 7.065 M16.667 7.065 C 16.406 7.145,16.153 7.401,16.061 7.678 C 15.927 8.081,15.938 8.111,16.954 10.148 L 17.879 12.000 16.954 13.852 C 15.938 15.889,15.927 15.919,16.061 16.322 C 16.189 16.707,16.594 17.000,17.000 17.000 C 17.080 17.000,17.233 16.970,17.340 16.934 C 17.686 16.816,17.804 16.649,18.419 15.408 C 18.727 14.788,18.988 14.280,19.000 14.280 C 19.012 14.280,19.273 14.788,19.581 15.408 C 20.196 16.649,20.314 16.816,20.660 16.934 C 20.767 16.970,20.920 17.000,21.000 17.000 C 21.406 17.000,21.811 16.707,21.939 16.322 C 22.073 15.919,22.062 15.889,21.046 13.852 L 20.121 12.000 21.046 10.148 C 22.056 8.124,22.072 8.079,21.944 7.693 C 21.712 6.992,20.816 6.776,20.304 7.297 C 20.182 7.421,19.997 7.751,19.581 8.592 C 19.273 9.212,19.012 9.720,19.000 9.720 C 18.988 9.720,18.727 9.212,18.419 8.592 C 17.804 7.351,17.686 7.184,17.340 7.066 C 17.106 6.986,16.924 6.986,16.667 7.065 " stroke="none" fill-rule="evenodd" fill="black"></path></svg>