<svg xmlns="http://www.w3.org/2000/svg" width="24" height="24" viewBox="0 0 24 24" fill="none" stroke="currentColor" stroke-width="2" stroke-linecap="round" stroke-linejoin="round"><path d="M11.477 2.073 C 10.806 2.249,10.238 2.823,10.060 3.508 C 9.941 3.962,10.003 4.492,10.225 4.930 C 10.361 5.199,10.801 5.639,11.070 5.775 C 11.659 6.073,12.341 6.073,12.930 5.775 C 13.196 5.640,13.638 5.200,13.771 4.937 C 13.994 4.498,14.052 4.007,13.940 3.529 C 13.858 3.182,13.720 2.927,13.465 2.653 C 13.074 2.232,12.560 2.005,12.000 2.005 C 11.857 2.005,11.622 2.036,11.477 2.073 M7.683 8.043 C 3.186 9.175,3.378 9.114,3.149 9.486 C 2.861 9.950,3.023 10.582,3.499 10.862 C 3.862 11.074,3.763 11.092,7.453 10.168 C 10.579 9.385,10.805 9.334,10.787 9.414 C 10.776 9.461,10.592 10.734,10.378 12.242 C 10.087 14.292,9.996 15.031,10.017 15.171 C 10.054 15.423,10.255 15.710,10.497 15.859 L 10.694 15.980 12.938 15.991 L 15.181 16.003 15.597 18.091 C 15.826 19.240,16.037 20.251,16.067 20.337 C 16.303 21.020,17.185 21.217,17.700 20.702 C 17.874 20.528,18.000 20.243,18.000 20.023 C 18.000 19.955,17.763 18.714,17.473 17.264 C 16.882 14.310,16.907 14.390,16.503 14.141 L 16.306 14.020 14.228 14.009 L 12.151 13.997 12.171 13.889 C 12.182 13.829,12.331 12.795,12.503 11.590 C 12.674 10.386,12.828 9.400,12.846 9.400 C 12.864 9.400,14.422 9.979,16.309 10.686 C 18.325 11.442,19.817 11.980,19.926 11.991 C 20.476 12.045,21.000 11.562,21.000 11.000 C 21.000 10.760,20.881 10.479,20.704 10.302 C 20.547 10.145,20.350 10.067,16.358 8.569 C 12.761 7.220,12.148 7.001,11.978 7.006 C 11.869 7.009,9.936 7.476,7.683 8.043 M9.240 16.035 C 9.043 16.100,8.890 16.198,8.764 16.341 C 8.694 16.421,8.354 17.052,8.008 17.743 L 7.381 19.000 5.637 19.000 C 3.743 19.000,3.662 19.008,3.382 19.221 C 3.302 19.282,3.187 19.415,3.128 19.516 C 3.037 19.672,3.020 19.746,3.020 20.000 C 3.020 20.256,3.036 20.328,3.131 20.489 C 3.256 20.702,3.449 20.864,3.670 20.943 C 3.788 20.985,4.281 20.997,5.983 20.998 C 7.894 21.000,8.168 20.992,8.340 20.934 C 8.705 20.809,8.785 20.687,9.677 18.892 C 10.461 17.313,10.493 17.239,10.492 17.014 C 10.491 16.619,10.292 16.292,9.943 16.112 C 9.771 16.024,9.399 15.983,9.240 16.035 " stroke="none" fill-rule="evenodd" fill="black"></path></svg>