<svg xmlns="http://www.w3.org/2000/svg" width="24" height="24" viewBox="0 0 24 24" fill="none" stroke="currentColor" stroke-width="2" stroke-linecap="round" stroke-linejoin="round"><path d="M2.670 2.061 C 2.448 2.142,2.250 2.309,2.128 2.516 C 2.037 2.672,2.020 2.746,2.020 3.000 C 2.020 3.392,2.100 3.526,2.671 4.093 L 3.108 4.527 3.056 4.673 C 3.016 4.784,3.003 5.194,3.001 6.340 L 2.999 7.860 2.651 8.140 C 1.858 8.778,1.214 9.361,1.119 9.528 C 1.041 9.665,1.021 9.757,1.021 9.980 C 1.020 10.437,1.095 10.545,1.874 11.211 C 2.240 11.524,2.644 11.861,2.770 11.960 L 3.000 12.139 3.000 13.642 C 3.000 15.356,3.008 15.410,3.300 15.702 C 3.601 16.003,4.121 16.085,4.459 15.886 C 4.534 15.842,4.957 15.505,5.401 15.137 L 6.208 14.468 6.334 14.543 C 7.162 15.036,7.578 15.265,8.229 15.587 L 8.997 15.966 9.009 18.133 L 9.020 20.300 9.131 20.489 C 9.256 20.702,9.449 20.864,9.670 20.943 C 9.891 21.022,16.109 21.022,16.330 20.943 C 16.551 20.864,16.744 20.702,16.869 20.489 L 16.980 20.300 16.993 19.363 L 17.005 18.427 18.713 20.129 C 19.652 21.065,20.483 21.865,20.560 21.905 C 20.659 21.957,20.788 21.979,21.000 21.979 C 21.258 21.980,21.327 21.964,21.492 21.867 C 21.968 21.587,22.139 20.967,21.865 20.508 C 21.810 20.416,17.665 16.243,12.653 11.235 C 4.231 2.820,3.525 2.125,3.343 2.065 C 3.107 1.987,2.874 1.986,2.670 2.061 M12.920 3.023 C 12.843 3.033,12.609 3.059,12.400 3.082 C 11.394 3.192,10.087 3.568,8.969 4.070 C 8.412 4.320,8.241 4.474,8.139 4.816 C 8.065 5.065,8.065 5.136,8.142 5.393 C 8.285 5.874,8.793 6.185,9.265 6.079 C 9.367 6.056,9.633 5.958,9.855 5.862 C 10.992 5.368,12.130 5.077,13.160 5.015 C 13.671 4.985,14.691 5.054,15.338 5.164 C 17.503 5.530,19.399 6.594,20.317 7.957 C 21.307 9.427,21.209 10.996,20.039 12.415 C 19.618 12.926,19.223 13.248,18.270 13.854 C 17.650 14.249,17.556 14.937,18.055 15.422 C 18.292 15.654,18.527 15.741,18.830 15.712 C 19.291 15.668,20.393 14.923,21.167 14.134 C 21.612 13.680,21.759 13.501,22.050 13.060 C 22.463 12.434,22.762 11.712,22.926 10.940 C 23.007 10.562,22.996 9.413,22.907 9.000 C 22.663 7.857,22.126 6.861,21.283 5.987 C 20.782 5.469,20.449 5.190,19.880 4.813 C 18.477 3.884,16.713 3.271,14.899 3.084 C 14.453 3.038,13.139 2.998,12.920 3.023 M5.340 7.414 C 5.647 7.669,5.878 7.771,6.141 7.769 L 6.347 7.767 9.963 11.383 L 13.580 15.000 13.339 15.000 C 12.800 15.000,11.900 14.844,11.180 14.625 C 10.492 14.416,9.997 14.219,9.247 13.857 C 8.440 13.468,8.051 13.251,7.195 12.714 C 6.851 12.498,6.522 12.303,6.462 12.281 C 6.292 12.216,5.918 12.234,5.740 12.315 C 5.652 12.355,5.454 12.492,5.300 12.618 L 5.020 12.848 5.000 12.133 C 4.973 11.176,4.978 11.186,4.178 10.529 C 3.849 10.259,3.575 10.024,3.569 10.006 C 3.563 9.988,3.812 9.769,4.123 9.519 C 4.982 8.828,5.000 8.793,5.000 7.813 C 5.000 7.297,5.011 7.162,5.050 7.185 C 5.077 7.202,5.208 7.305,5.340 7.414 M11.720 16.817 C 12.501 16.970,13.083 17.015,13.940 16.986 C 14.358 16.972,14.768 16.949,14.850 16.935 L 15.000 16.910 15.000 17.955 L 15.000 19.000 13.000 19.000 L 11.000 19.000 11.000 17.822 L 11.000 16.644 11.110 16.681 C 11.171 16.701,11.445 16.762,11.720 16.817 " stroke="none" fill-rule="evenodd" fill="black"></path></svg>