<svg xmlns="http://www.w3.org/2000/svg" width="24" height="24" viewBox="0 0 24 24" fill="none" stroke="currentColor" stroke-width="2" stroke-linecap="round" stroke-linejoin="round"><path d="M11.033 2.060 C 9.263 2.275,7.673 3.046,6.387 4.313 C 4.776 5.901,3.923 8.053,4.014 10.300 C 4.097 12.346,4.886 14.148,6.356 15.650 L 6.698 16.000 5.796 16.000 C 4.808 16.000,4.637 16.027,4.382 16.221 C 4.302 16.282,4.187 16.415,4.128 16.516 C 4.037 16.672,4.020 16.746,4.020 17.000 C 4.020 17.256,4.036 17.328,4.131 17.489 C 4.256 17.702,4.449 17.864,4.670 17.943 C 4.890 18.021,10.110 18.021,10.330 17.943 C 10.551 17.864,10.744 17.702,10.869 17.489 C 10.972 17.313,10.980 17.269,10.980 16.860 C 10.980 16.482,10.967 16.397,10.891 16.254 C 10.754 15.997,10.513 15.817,10.144 15.697 C 9.684 15.546,9.077 15.248,8.637 14.956 C 8.176 14.649,7.431 13.916,7.101 13.445 C 5.428 11.051,5.707 7.816,7.763 5.763 C 10.119 3.411,13.881 3.411,16.237 5.763 C 18.292 7.815,18.571 11.049,16.899 13.445 C 16.575 13.910,15.826 14.645,15.365 14.953 C 14.923 15.248,14.401 15.506,13.892 15.682 C 13.479 15.824,13.248 15.993,13.109 16.254 C 13.033 16.397,13.020 16.482,13.020 16.860 C 13.020 17.269,13.028 17.313,13.131 17.489 C 13.256 17.702,13.449 17.864,13.670 17.943 C 13.890 18.021,19.110 18.021,19.330 17.943 C 19.551 17.864,19.744 17.702,19.869 17.489 C 19.964 17.328,19.980 17.256,19.980 17.000 C 19.980 16.746,19.963 16.672,19.872 16.516 C 19.813 16.415,19.698 16.282,19.618 16.221 C 19.363 16.027,19.192 16.000,18.204 16.000 L 17.302 16.000 17.644 15.650 C 18.867 14.401,19.554 13.075,19.887 11.322 C 20.013 10.661,20.013 9.354,19.888 8.670 C 19.468 6.382,18.232 4.512,16.320 3.270 C 14.782 2.272,12.880 1.837,11.033 2.060 M4.695 19.057 C 4.466 19.129,4.256 19.299,4.128 19.516 C 4.037 19.672,4.020 19.746,4.020 20.000 C 4.020 20.256,4.036 20.328,4.131 20.489 C 4.256 20.702,4.449 20.864,4.670 20.943 C 4.893 21.022,19.107 21.022,19.330 20.943 C 19.551 20.864,19.744 20.702,19.869 20.489 C 19.964 20.328,19.980 20.256,19.980 20.000 C 19.980 19.746,19.963 19.672,19.872 19.516 C 19.740 19.293,19.533 19.128,19.290 19.055 C 19.027 18.976,4.947 18.978,4.695 19.057 " stroke="none" fill-rule="evenodd" fill="black"></path></svg>