<svg xmlns="http://www.w3.org/2000/svg" width="24" height="24" viewBox="0 0 24 24" fill="none" stroke="currentColor" stroke-width="2" stroke-linecap="round" stroke-linejoin="round"><path d="M7.440 2.023 C 7.385 2.032,7.205 2.060,7.040 2.084 C 6.004 2.233,4.882 2.762,4.018 3.509 C 3.094 4.308,2.405 5.500,2.113 6.805 C 2.033 7.162,2.020 7.326,2.022 7.980 C 2.024 8.613,2.039 8.810,2.114 9.160 C 2.477 10.845,3.324 12.085,4.768 13.048 C 5.641 13.629,6.861 14.004,7.865 13.998 C 8.366 13.995,8.658 13.847,8.869 13.489 C 8.964 13.328,8.980 13.256,8.980 13.000 C 8.980 12.746,8.963 12.672,8.872 12.516 C 8.759 12.323,8.562 12.150,8.373 12.076 C 8.311 12.052,8.052 12.016,7.798 11.996 C 6.702 11.912,5.894 11.542,5.140 10.779 C 4.602 10.234,4.255 9.591,4.092 8.834 C 3.986 8.343,3.996 7.534,4.113 7.062 C 4.287 6.363,4.737 5.579,5.235 5.110 C 6.781 3.654,9.160 3.641,10.731 5.080 L 10.999 5.326 11.010 13.316 L 11.020 21.306 11.141 21.503 C 11.543 22.156,12.457 22.156,12.859 21.503 L 12.980 21.306 12.990 13.316 L 13.001 5.326 13.269 5.080 C 13.773 4.619,14.354 4.298,14.960 4.147 C 15.963 3.896,16.852 3.983,17.740 4.417 C 18.637 4.856,19.188 5.418,19.624 6.337 C 19.884 6.886,19.975 7.306,19.978 7.960 C 19.982 9.102,19.622 10.008,18.860 10.778 C 18.103 11.542,17.296 11.912,16.202 11.996 C 15.948 12.016,15.689 12.052,15.627 12.076 C 15.438 12.150,15.241 12.323,15.128 12.516 C 15.037 12.672,15.020 12.746,15.020 13.000 C 15.020 13.256,15.036 13.328,15.131 13.489 C 15.342 13.848,15.634 13.996,16.140 13.998 C 17.055 14.002,18.289 13.649,19.067 13.159 C 20.907 12.003,21.910 10.285,21.987 8.160 C 22.014 7.415,21.925 6.797,21.695 6.122 C 21.103 4.390,19.899 3.114,18.209 2.427 C 17.483 2.132,16.856 2.019,15.960 2.023 C 15.185 2.026,14.760 2.094,14.072 2.325 C 13.398 2.550,12.527 3.039,12.130 3.413 L 12.000 3.536 11.870 3.413 C 11.293 2.869,10.169 2.330,9.170 2.119 C 8.796 2.040,7.692 1.979,7.440 2.023 " stroke="none" fill-rule="evenodd" fill="black"></path></svg>