<svg xmlns="http://www.w3.org/2000/svg" width="24" height="24" viewBox="0 0 24 24" fill="none" stroke="currentColor" stroke-width="2" stroke-linecap="round" stroke-linejoin="round"><path d="M2.695 3.054 C 2.048 3.267,1.799 4.040,2.198 4.591 C 2.369 4.827,2.608 4.953,2.972 4.999 C 3.355 5.048,3.509 5.112,3.699 5.301 C 4.001 5.604,3.978 5.194,4.000 10.523 L 4.020 15.306 4.141 15.503 C 4.543 16.156,5.457 16.156,5.859 15.503 L 5.980 15.306 6.000 10.523 C 6.022 5.163,5.996 5.599,6.321 5.283 C 6.490 5.120,6.777 5.000,7.000 5.000 C 7.223 5.000,7.510 5.120,7.679 5.283 C 8.004 5.599,7.978 5.163,8.000 10.523 L 8.020 15.306 8.141 15.503 C 8.543 16.156,9.457 16.156,9.859 15.503 L 9.980 15.306 10.000 10.523 C 10.022 5.163,9.996 5.599,10.321 5.283 C 10.490 5.120,10.777 5.000,11.000 5.000 C 11.223 5.000,11.510 5.120,11.679 5.283 C 12.006 5.601,11.978 5.079,12.001 11.220 L 12.021 16.700 12.127 17.083 C 12.391 18.046,12.807 18.779,13.508 19.522 C 13.653 19.676,13.764 19.809,13.755 19.818 C 13.717 19.856,12.813 19.968,12.300 19.998 C 11.992 20.015,11.689 20.050,11.627 20.075 C 11.436 20.151,11.241 20.324,11.128 20.516 C 11.037 20.672,11.020 20.746,11.020 21.000 C 11.020 21.256,11.036 21.328,11.131 21.489 C 11.348 21.857,11.633 21.996,12.180 21.998 C 13.190 22.002,14.511 21.758,15.541 21.378 C 15.760 21.297,15.967 21.231,16.000 21.231 C 16.033 21.231,16.240 21.297,16.459 21.378 C 17.489 21.758,18.810 22.002,19.820 21.998 C 20.367 21.996,20.652 21.857,20.869 21.489 C 20.964 21.328,20.980 21.256,20.980 21.000 C 20.980 20.746,20.963 20.672,20.872 20.516 C 20.759 20.324,20.564 20.151,20.373 20.075 C 20.311 20.050,20.008 20.015,19.700 19.998 C 19.187 19.968,18.283 19.856,18.245 19.818 C 18.236 19.809,18.347 19.676,18.492 19.522 C 19.195 18.777,19.615 18.035,19.871 17.083 C 19.972 16.709,19.975 16.663,19.990 15.180 C 20.008 13.465,19.979 13.194,19.705 12.516 C 19.172 11.197,18.001 10.269,16.605 10.058 C 16.121 9.986,15.879 9.986,15.395 10.058 C 14.972 10.122,14.621 10.231,14.271 10.406 C 14.145 10.469,14.034 10.520,14.023 10.520 C 14.012 10.520,13.998 9.373,13.991 7.970 C 13.978 5.423,13.978 5.420,13.885 5.140 C 13.559 4.159,12.810 3.414,11.861 3.125 C 11.405 2.987,10.643 2.981,10.180 3.113 C 9.825 3.215,9.429 3.416,9.170 3.627 L 9.000 3.765 8.830 3.627 C 8.571 3.416,8.175 3.214,7.820 3.114 C 7.366 2.985,6.634 2.985,6.180 3.114 C 5.825 3.214,5.429 3.416,5.170 3.627 L 5.000 3.765 4.830 3.627 C 4.574 3.418,4.175 3.215,3.840 3.122 C 3.449 3.013,2.914 2.982,2.695 3.054 M16.523 12.073 C 17.212 12.253,17.795 12.860,17.941 13.549 C 18.021 13.926,18.021 16.046,17.941 16.495 C 17.882 16.826,17.662 17.337,17.440 17.660 C 17.169 18.054,16.650 18.541,16.170 18.851 L 16.000 18.961 15.830 18.851 C 15.350 18.541,14.831 18.054,14.560 17.660 C 14.338 17.337,14.118 16.826,14.059 16.495 C 13.975 16.025,13.978 13.894,14.062 13.522 C 14.259 12.657,15.092 12.005,16.000 12.005 C 16.143 12.005,16.378 12.036,16.523 12.073 " stroke="none" fill-rule="evenodd" fill="black"></path></svg>