<svg xmlns="http://www.w3.org/2000/svg" width="24" height="24" viewBox="0 0 24 24" fill="none" stroke="currentColor" stroke-width="2" stroke-linecap="round" stroke-linejoin="round"><path d="M12.695 3.057 C 12.466 3.129,12.256 3.299,12.128 3.516 C 12.037 3.672,12.020 3.746,12.020 4.000 C 12.020 4.256,12.036 4.328,12.131 4.489 C 12.256 4.702,12.449 4.864,12.670 4.943 C 12.789 4.985,13.317 4.997,15.200 4.998 L 17.580 5.000 13.291 9.289 L 9.001 13.579 8.051 12.632 C 7.003 11.588,6.911 11.522,6.498 11.521 C 5.866 11.519,5.415 12.063,5.529 12.689 C 5.550 12.804,5.604 12.952,5.649 13.019 C 5.694 13.085,6.147 13.558,6.655 14.070 L 7.579 15.000 5.374 17.210 C 4.161 18.425,3.135 19.483,3.095 19.560 C 3.043 19.659,3.021 19.788,3.021 20.000 C 3.020 20.258,3.036 20.327,3.133 20.492 C 3.263 20.714,3.502 20.901,3.736 20.965 C 3.939 21.019,4.267 20.989,4.445 20.899 C 4.519 20.862,5.575 19.839,6.790 18.626 L 9.000 16.421 9.930 17.345 C 10.442 17.853,10.915 18.306,10.981 18.351 C 11.262 18.541,11.762 18.525,12.065 18.317 C 12.478 18.033,12.618 17.376,12.351 16.981 C 12.306 16.915,11.853 16.441,11.344 15.930 L 10.420 15.000 14.700 10.720 L 18.980 6.440 19.000 8.873 L 19.020 11.306 19.141 11.503 C 19.543 12.156,20.457 12.156,20.859 11.503 L 20.980 11.306 20.991 7.563 C 21.001 4.162,20.996 3.804,20.936 3.646 C 20.845 3.405,20.657 3.204,20.420 3.094 L 20.220 3.001 16.540 3.003 C 13.648 3.005,12.825 3.016,12.695 3.057 " stroke="none" fill-rule="evenodd" fill="black"></path></svg>