<svg xmlns="http://www.w3.org/2000/svg" width="24" height="24" viewBox="0 0 24 24" fill="none" stroke="currentColor" stroke-width="2" stroke-linecap="round" stroke-linejoin="round"><path d="M3.695 3.057 C 3.051 3.258,2.799 4.040,3.198 4.591 C 3.386 4.850,3.613 4.960,4.048 5.001 C 4.526 5.047,4.769 5.122,5.063 5.313 C 5.457 5.569,5.764 5.957,5.914 6.390 C 5.973 6.561,5.981 7.073,6.000 11.443 L 6.020 16.306 6.141 16.503 C 6.543 17.156,7.457 17.156,7.859 16.503 L 7.980 16.306 8.000 11.443 C 8.023 6.003,7.999 6.417,8.314 5.937 C 8.810 5.181,9.661 4.848,10.523 5.073 C 11.212 5.253,11.795 5.860,11.941 6.549 C 12.027 6.954,12.027 18.046,11.941 18.451 C 11.863 18.821,11.710 19.091,11.400 19.404 C 11.026 19.783,10.546 20.000,10.078 20.000 C 9.511 20.000,9.066 20.371,9.013 20.888 C 8.971 21.293,9.156 21.661,9.505 21.865 C 9.989 22.148,11.200 21.940,12.064 21.424 C 12.530 21.145,13.146 20.545,13.383 20.137 C 13.424 20.067,13.436 20.070,13.583 20.184 C 13.844 20.386,14.154 20.559,14.512 20.704 C 16.558 21.528,18.877 20.538,19.704 18.488 C 20.090 17.530,20.090 16.469,19.705 15.516 C 19.172 14.197,18.001 13.269,16.605 13.058 C 16.121 12.986,15.879 12.986,15.395 13.058 C 14.972 13.122,14.621 13.231,14.271 13.406 C 14.145 13.469,14.033 13.520,14.021 13.520 C 14.010 13.520,14.000 11.970,14.000 10.076 C 14.000 6.798,13.996 6.614,13.921 6.243 C 13.628 4.806,12.637 3.680,11.245 3.204 C 10.951 3.103,10.322 3.000,10.000 3.000 C 9.001 3.000,7.971 3.422,7.192 4.151 L 7.000 4.331 6.808 4.151 C 6.168 3.552,5.419 3.181,4.605 3.058 C 4.141 2.989,3.915 2.988,3.695 3.057 M16.523 15.073 C 17.262 15.266,17.850 15.924,17.967 16.690 C 18.067 17.343,17.873 17.933,17.403 18.404 C 17.002 18.807,16.547 19.000,16.000 19.000 C 15.485 19.000,15.038 18.822,14.653 18.465 C 13.323 17.229,14.189 15.005,16.000 15.005 C 16.143 15.005,16.378 15.036,16.523 15.073 " stroke="none" fill-rule="evenodd" fill="black"></path></svg>