<svg xmlns="http://www.w3.org/2000/svg" width="24" height="24" viewBox="0 0 24 24" fill="none" stroke="currentColor" stroke-width="2" stroke-linecap="round" stroke-linejoin="round"><path d="M5.660 6.067 C 5.477 6.122,5.326 6.261,3.847 7.734 C 2.960 8.617,2.186 9.421,2.127 9.520 C 2.037 9.672,2.020 9.746,2.020 10.000 C 2.020 10.257,2.036 10.327,2.133 10.492 C 2.263 10.714,2.502 10.901,2.736 10.965 C 2.939 11.019,3.267 10.989,3.445 10.899 C 3.519 10.862,4.125 10.289,4.790 9.626 L 6.000 8.422 7.210 9.626 C 7.875 10.289,8.483 10.864,8.560 10.905 C 8.754 11.007,9.246 11.007,9.440 10.905 C 9.517 10.864,10.125 10.289,10.790 9.626 L 12.000 8.422 13.210 9.626 C 13.876 10.289,14.483 10.864,14.560 10.905 C 14.754 11.007,15.246 11.007,15.440 10.905 C 15.517 10.864,16.125 10.289,16.790 9.626 L 18.000 8.422 19.210 9.626 C 19.875 10.289,20.483 10.864,20.560 10.905 C 20.659 10.957,20.787 10.979,21.000 10.979 C 21.258 10.980,21.327 10.964,21.492 10.867 C 21.968 10.587,22.138 9.968,21.866 9.508 C 21.811 9.416,21.040 8.617,20.153 7.734 C 18.615 6.203,18.530 6.125,18.323 6.064 C 18.050 5.984,17.949 5.984,17.677 6.064 C 17.472 6.125,17.390 6.199,16.230 7.352 L 15.000 8.576 13.770 7.352 C 12.610 6.199,12.528 6.125,12.323 6.064 C 12.203 6.029,12.058 6.000,12.000 6.000 C 11.942 6.000,11.797 6.029,11.677 6.064 C 11.472 6.125,11.390 6.199,10.230 7.352 L 9.000 8.576 7.770 7.352 C 6.610 6.199,6.528 6.125,6.323 6.064 C 6.059 5.986,5.922 5.987,5.660 6.067 M5.640 13.069 C 5.488 13.121,5.208 13.381,3.847 14.735 C 2.960 15.618,2.186 16.421,2.127 16.520 C 2.037 16.672,2.020 16.746,2.020 17.000 C 2.020 17.257,2.036 17.327,2.133 17.492 C 2.263 17.714,2.502 17.901,2.736 17.965 C 2.939 18.019,3.267 17.989,3.445 17.899 C 3.519 17.862,4.125 17.289,4.790 16.626 L 6.000 15.422 7.210 16.626 C 7.875 17.289,8.483 17.864,8.560 17.905 C 8.660 17.957,8.786 17.978,9.000 17.978 C 9.214 17.978,9.340 17.957,9.440 17.905 C 9.517 17.864,10.124 17.289,10.790 16.626 L 12.000 15.422 13.210 16.626 C 13.876 17.289,14.483 17.864,14.560 17.905 C 14.754 18.007,15.246 18.007,15.440 17.905 C 15.517 17.864,16.125 17.289,16.790 16.626 L 18.000 15.422 19.210 16.626 C 19.876 17.289,20.483 17.864,20.560 17.905 C 20.659 17.957,20.787 17.979,21.000 17.979 C 21.258 17.980,21.327 17.964,21.492 17.867 C 21.968 17.587,22.138 16.968,21.866 16.508 C 21.811 16.416,21.040 15.618,20.153 14.736 C 18.714 13.305,18.519 13.124,18.343 13.066 C 18.093 12.983,17.906 12.983,17.657 13.066 C 17.484 13.124,17.312 13.279,16.230 14.354 L 15.000 15.576 13.770 14.354 C 12.688 13.279,12.516 13.124,12.343 13.066 C 12.234 13.030,12.080 13.000,12.000 13.000 C 11.920 13.000,11.766 13.030,11.657 13.066 C 11.484 13.124,11.312 13.279,10.230 14.354 L 9.000 15.576 7.770 14.354 C 6.688 13.279,6.516 13.124,6.343 13.066 C 6.102 12.985,5.878 12.986,5.640 13.069 " stroke="none" fill-rule="evenodd" fill="black"></path></svg>