<svg xmlns="http://www.w3.org/2000/svg" width="24" height="24" viewBox="0 0 24 24" fill="none" stroke="currentColor" stroke-width="2" stroke-linecap="round" stroke-linejoin="round"><path d="M4.499 2.043 C 3.383 2.230,2.461 3.048,2.114 4.160 C 2.027 4.438,2.020 4.527,2.020 5.383 L 2.020 6.306 2.141 6.503 C 2.543 7.156,3.457 7.156,3.859 6.503 L 3.980 6.306 4.002 5.523 C 4.027 4.636,4.050 4.547,4.321 4.283 C 4.565 4.047,4.762 4.000,5.537 3.998 C 6.230 3.996,6.378 3.967,6.619 3.783 C 6.696 3.725,6.808 3.592,6.869 3.489 C 6.964 3.328,6.980 3.256,6.980 3.000 C 6.980 2.746,6.963 2.672,6.872 2.516 C 6.740 2.293,6.533 2.128,6.290 2.055 C 6.084 1.993,4.845 1.985,4.499 2.043 M9.695 2.057 C 9.466 2.129,9.256 2.299,9.128 2.516 C 9.037 2.672,9.020 2.746,9.020 3.000 C 9.020 3.256,9.036 3.328,9.131 3.489 C 9.256 3.702,9.449 3.864,9.670 3.943 C 9.878 4.017,11.122 4.017,11.330 3.943 C 11.551 3.864,11.744 3.702,11.869 3.489 C 11.964 3.328,11.980 3.256,11.980 3.000 C 11.980 2.746,11.963 2.672,11.872 2.516 C 11.740 2.293,11.533 2.128,11.290 2.055 C 11.050 1.983,9.928 1.984,9.695 2.057 M14.695 2.055 C 14.464 2.130,14.255 2.300,14.128 2.516 C 14.037 2.672,14.020 2.746,14.020 3.000 C 14.020 3.256,14.036 3.328,14.131 3.489 C 14.192 3.592,14.304 3.725,14.381 3.783 C 14.622 3.967,14.770 3.996,15.463 3.998 C 16.238 4.000,16.435 4.047,16.679 4.283 C 16.950 4.547,16.973 4.636,16.998 5.523 L 17.020 6.306 17.141 6.503 C 17.543 7.156,18.457 7.156,18.859 6.503 L 18.980 6.306 18.980 5.383 C 18.980 4.527,18.973 4.438,18.886 4.160 C 18.580 3.180,17.820 2.416,16.861 2.125 C 16.574 2.039,16.451 2.027,15.700 2.015 C 15.072 2.004,14.818 2.015,14.695 2.055 M2.695 9.057 C 2.466 9.129,2.256 9.299,2.128 9.516 C 2.020 9.699,2.020 9.703,2.020 10.503 L 2.020 11.306 2.141 11.503 C 2.543 12.156,3.457 12.156,3.859 11.503 L 3.980 11.306 3.980 10.503 C 3.980 9.703,3.980 9.699,3.872 9.516 C 3.628 9.101,3.150 8.915,2.695 9.057 M14.380 9.043 C 11.784 9.299,9.676 11.219,9.115 13.840 C 8.984 14.450,8.984 15.558,9.114 16.160 C 9.639 18.588,11.417 20.365,13.840 20.885 C 14.190 20.960,14.383 20.975,15.000 20.975 C 15.617 20.975,15.810 20.960,16.160 20.885 C 16.916 20.723,17.687 20.410,18.245 20.040 L 18.470 19.890 19.905 21.328 C 20.694 22.118,21.416 22.810,21.508 22.865 C 21.967 23.139,22.587 22.968,22.867 22.492 C 22.964 22.327,22.980 22.257,22.980 22.000 C 22.980 21.746,22.964 21.673,22.873 21.520 C 22.814 21.421,22.118 20.694,21.328 19.905 L 19.890 18.470 20.040 18.245 C 20.410 17.687,20.723 16.916,20.885 16.160 C 21.015 15.554,21.015 14.446,20.885 13.840 C 20.626 12.631,20.109 11.660,19.269 10.805 C 17.978 9.490,16.230 8.860,14.380 9.043 M15.605 11.058 C 16.855 11.247,17.964 12.042,18.536 13.160 C 18.767 13.611,18.871 13.930,18.942 14.395 C 19.014 14.879,19.014 15.121,18.942 15.605 C 18.691 17.265,17.434 18.579,15.773 18.917 C 13.563 19.368,11.396 17.845,11.058 15.605 C 10.986 15.121,10.986 14.879,11.058 14.395 C 11.314 12.698,12.675 11.324,14.358 11.061 C 14.816 10.990,15.144 10.989,15.605 11.058 M14.695 12.057 C 14.466 12.129,14.256 12.299,14.128 12.516 C 14.025 12.692,14.019 12.728,14.007 13.350 L 13.993 14.000 13.443 14.000 C 12.648 14.000,12.366 14.111,12.128 14.516 C 12.037 14.672,12.020 14.746,12.020 15.000 C 12.020 15.256,12.036 15.328,12.131 15.489 C 12.256 15.702,12.449 15.864,12.670 15.943 C 12.768 15.978,13.022 15.997,13.407 15.998 L 13.993 16.000 14.007 16.653 C 14.020 17.300,14.021 17.308,14.141 17.503 C 14.209 17.613,14.346 17.756,14.452 17.828 C 14.923 18.144,15.554 17.999,15.859 17.503 C 15.979 17.308,15.980 17.300,15.993 16.653 L 16.007 16.000 16.593 15.998 C 16.978 15.997,17.232 15.978,17.330 15.943 C 17.551 15.864,17.744 15.702,17.869 15.489 C 17.964 15.328,17.980 15.256,17.980 15.000 C 17.980 14.746,17.963 14.672,17.872 14.516 C 17.634 14.111,17.352 14.000,16.557 14.000 L 16.007 14.000 15.993 13.350 C 15.981 12.728,15.975 12.692,15.872 12.516 C 15.628 12.101,15.150 11.915,14.695 12.057 M2.695 14.057 C 2.466 14.129,2.256 14.299,2.128 14.516 L 2.020 14.700 2.020 15.620 C 2.020 16.473,2.027 16.562,2.114 16.840 C 2.419 17.818,3.164 18.569,4.140 18.882 C 4.383 18.960,4.531 18.974,5.260 18.990 C 5.805 19.002,6.158 18.993,6.264 18.964 C 6.497 18.901,6.737 18.714,6.867 18.492 C 6.964 18.327,6.980 18.257,6.980 18.000 C 6.980 17.746,6.963 17.672,6.872 17.516 C 6.760 17.325,6.567 17.154,6.373 17.073 C 6.307 17.045,5.934 17.016,5.480 17.003 C 4.724 16.981,4.694 16.977,4.516 16.872 C 4.326 16.760,4.155 16.568,4.072 16.373 C 4.043 16.305,4.015 15.947,4.002 15.480 C 3.981 14.724,3.977 14.694,3.872 14.516 C 3.628 14.101,3.150 13.915,2.695 14.057 " stroke="none" fill-rule="evenodd" fill="black"></path></svg>