<svg xmlns="http://www.w3.org/2000/svg" width="24" height="24" viewBox="0 0 24 24" fill="none" stroke="currentColor" stroke-width="2" stroke-linecap="round" stroke-linejoin="round"><path d="M9.340 2.024 C 7.387 2.229,5.783 2.959,4.394 4.274 L 4.008 4.640 3.994 4.170 C 3.981 3.744,3.970 3.683,3.871 3.514 C 3.479 2.848,2.521 2.848,2.129 3.514 L 2.020 3.700 2.020 6.000 L 2.020 8.300 2.131 8.489 C 2.256 8.702,2.449 8.864,2.670 8.943 C 2.889 9.021,7.111 9.021,7.330 8.943 C 7.551 8.864,7.744 8.702,7.869 8.489 C 7.964 8.328,7.980 8.256,7.980 8.000 C 7.980 7.746,7.963 7.672,7.872 7.516 C 7.813 7.415,7.698 7.282,7.618 7.221 C 7.353 7.019,7.210 7.000,5.954 7.000 C 5.319 7.000,4.800 6.986,4.800 6.969 C 4.800 6.953,4.866 6.840,4.947 6.719 C 6.862 3.856,10.704 3.150,13.507 5.145 C 13.992 5.490,14.637 6.159,14.971 6.662 C 15.659 7.699,15.976 8.745,15.976 9.980 C 15.976 10.635,15.934 10.992,15.794 11.520 C 15.512 12.584,15.025 13.421,14.223 14.221 C 13.333 15.109,12.391 15.619,11.146 15.888 C 10.593 16.007,9.491 16.016,8.900 15.905 C 7.083 15.567,5.449 14.360,4.643 12.760 C 4.502 12.481,4.400 12.235,4.220 11.744 C 3.909 10.891,2.751 10.811,2.375 11.617 C 2.241 11.905,2.252 12.140,2.419 12.638 C 3.071 14.574,4.503 16.194,6.418 17.162 C 8.954 18.444,12.098 18.232,14.465 16.620 L 14.900 16.324 17.660 19.078 C 19.178 20.593,20.481 21.862,20.555 21.899 C 21.010 22.128,21.601 21.944,21.867 21.492 C 21.964 21.327,21.980 21.258,21.979 21.000 C 21.979 20.788,21.957 20.659,21.905 20.560 C 21.865 20.483,20.591 19.178,19.075 17.659 L 16.319 14.898 16.491 14.659 C 17.398 13.406,17.918 11.890,17.985 10.304 C 18.043 8.932,17.712 7.473,17.068 6.265 C 15.704 3.707,13.061 2.079,10.180 2.021 C 9.806 2.014,9.428 2.015,9.340 2.024 " stroke="none" fill-rule="evenodd" fill="black"></path></svg>