<svg xmlns="http://www.w3.org/2000/svg" width="24" height="24" viewBox="0 0 24 24" fill="none" stroke="currentColor" stroke-width="2" stroke-linecap="round" stroke-linejoin="round"><path d="M2.670 2.061 C 2.448 2.142,2.250 2.309,2.128 2.516 C 2.036 2.672,2.020 2.745,2.021 3.000 C 2.021 3.212,2.043 3.341,2.095 3.440 C 2.135 3.517,3.836 5.249,5.874 7.290 L 9.579 11.000 6.736 11.000 C 3.651 11.000,3.674 10.998,3.382 11.221 C 3.302 11.282,3.187 11.415,3.128 11.516 C 3.037 11.672,3.020 11.746,3.020 12.000 C 3.020 12.256,3.036 12.328,3.131 12.489 C 3.256 12.702,3.449 12.864,3.670 12.943 C 3.788 12.985,4.269 12.997,5.910 12.998 L 8.000 13.000 5.548 16.270 C 3.607 18.858,3.085 19.580,3.042 19.731 C 2.937 20.107,3.078 20.553,3.374 20.778 C 3.673 21.006,3.575 21.000,7.015 20.998 C 9.554 20.997,10.210 20.986,10.330 20.943 C 10.551 20.864,10.744 20.702,10.869 20.489 C 10.964 20.328,10.980 20.256,10.980 20.000 C 10.980 19.746,10.963 19.672,10.872 19.516 C 10.813 19.415,10.698 19.282,10.618 19.221 C 10.334 19.004,10.283 19.000,8.054 19.000 L 6.000 19.000 8.460 15.720 C 9.813 13.915,10.920 12.417,10.920 12.390 C 10.920 12.363,13.058 14.476,15.670 17.086 C 18.282 19.696,20.483 21.865,20.560 21.905 C 20.659 21.957,20.788 21.979,21.000 21.979 C 21.258 21.980,21.327 21.964,21.492 21.867 C 21.968 21.587,22.139 20.967,21.865 20.508 C 21.810 20.416,17.665 16.243,12.653 11.235 C 4.231 2.820,3.525 2.125,3.343 2.065 C 3.107 1.987,2.874 1.986,2.670 2.061 M13.695 3.057 C 13.466 3.129,13.256 3.299,13.128 3.516 C 13.037 3.672,13.020 3.746,13.020 4.000 C 13.020 4.256,13.036 4.328,13.131 4.489 C 13.256 4.702,13.449 4.864,13.670 4.943 C 13.788 4.985,14.269 4.997,15.910 4.998 L 18.000 5.000 15.964 7.715 C 14.059 10.255,13.925 10.446,13.880 10.660 C 13.798 11.054,13.949 11.436,14.284 11.678 C 14.443 11.793,14.834 11.906,14.937 11.867 C 14.975 11.852,14.995 11.911,15.011 12.083 C 15.047 12.482,15.299 12.811,15.670 12.943 C 15.889 13.021,20.111 13.021,20.330 12.943 C 20.551 12.864,20.744 12.702,20.869 12.489 C 20.964 12.328,20.980 12.256,20.980 12.000 C 20.980 11.746,20.963 11.672,20.872 11.516 C 20.813 11.415,20.698 11.282,20.618 11.221 C 20.334 11.004,20.283 11.000,18.054 11.000 L 16.000 11.000 18.452 7.730 C 20.393 5.142,20.915 4.420,20.958 4.269 C 21.103 3.748,20.808 3.211,20.290 3.055 C 20.030 2.977,13.945 2.979,13.695 3.057 " stroke="none" fill-rule="evenodd" fill="black"></path></svg>