<svg xmlns="http://www.w3.org/2000/svg" width="24" height="24" viewBox="0 0 24 24" fill="none" stroke="currentColor" stroke-width="2" stroke-linecap="round" stroke-linejoin="round"><path d="M13.695 3.057 C 13.466 3.129,13.256 3.299,13.128 3.516 C 13.037 3.672,13.020 3.746,13.020 4.000 C 13.020 4.256,13.036 4.328,13.131 4.489 C 13.256 4.702,13.449 4.864,13.670 4.943 C 13.788 4.985,14.269 4.997,15.910 4.998 L 18.000 5.000 15.548 8.270 C 13.607 10.858,13.085 11.580,13.042 11.731 C 12.937 12.107,13.078 12.553,13.374 12.778 C 13.673 13.006,13.575 13.000,17.015 12.998 C 19.554 12.997,20.210 12.986,20.330 12.943 C 20.551 12.864,20.744 12.702,20.869 12.489 C 20.964 12.328,20.980 12.256,20.980 12.000 C 20.980 11.746,20.963 11.672,20.872 11.516 C 20.813 11.415,20.698 11.282,20.618 11.221 C 20.334 11.004,20.283 11.000,18.054 11.000 L 16.000 11.000 18.452 7.730 C 20.393 5.142,20.915 4.420,20.958 4.269 C 21.103 3.748,20.808 3.211,20.290 3.055 C 20.030 2.977,13.945 2.979,13.695 3.057 M3.695 11.057 C 3.466 11.129,3.256 11.299,3.128 11.516 C 3.037 11.672,3.020 11.746,3.020 12.000 C 3.020 12.256,3.036 12.328,3.131 12.489 C 3.256 12.702,3.449 12.864,3.670 12.943 C 3.788 12.985,4.269 12.997,5.910 12.998 L 8.000 13.000 5.548 16.270 C 3.607 18.858,3.085 19.580,3.042 19.731 C 2.937 20.107,3.078 20.553,3.374 20.778 C 3.673 21.006,3.575 21.000,7.015 20.998 C 9.554 20.997,10.210 20.986,10.330 20.943 C 10.551 20.864,10.744 20.702,10.869 20.489 C 10.964 20.328,10.980 20.256,10.980 20.000 C 10.980 19.746,10.963 19.672,10.872 19.516 C 10.813 19.415,10.698 19.282,10.618 19.221 C 10.334 19.004,10.283 19.000,8.054 19.000 L 6.000 19.000 8.452 15.730 C 10.393 13.142,10.915 12.420,10.958 12.269 C 11.103 11.748,10.808 11.211,10.290 11.055 C 10.030 10.977,3.945 10.979,3.695 11.057 " stroke="none" fill-rule="evenodd" fill="black"></path></svg>